<svg xmlns="http://www.w3.org/2000/svg" width="962" height="420" font-family="sans-serif">
<rect width="962" height="420" fill="white"/>
<text x="481.0" y="26" text-anchor="middle" font-size="17" font-weight="bold">BLAS-3 — PureBLAS / AOCL (PB/AOCL ratio)</text>
<line x1="46" y1="42" x2="68" y2="42" stroke="#d62728" stroke-width="3"/>
<text x="73" y="46" font-size="12">Zen3 · AVX2</text>
<line x1="176" y1="42" x2="198" y2="42" stroke="#2ca02c" stroke-width="3"/>
<text x="203" y="46" font-size="12">Zen5 · AVX-512</text>
<line x1="327" y1="42" x2="349" y2="42" stroke="#1f77b4" stroke-width="3"/>
<text x="354" y="46" font-size="12">Zen4 · AVX-512</text>
<rect x="46" y="60" width="210" height="138" fill="none" stroke="#e2e2e2"/>
<line x1="46" y1="127.10016572332844" x2="256" y2="127.10016572332844" stroke="#d33" stroke-dasharray="4 3"/>
<text x="42" y="201.0" text-anchor="end" font-size="9" fill="#999">0.5×</text>
<text x="42" y="130.10016572332844" text-anchor="end" font-size="9" fill="#999">1.0×</text>
<polygon points="46.0,72.4 92.7,124.7 139.3,127.3 162.7,126.1 186.0,124.9 209.3,120.0 232.7,112.5 256.0,101.6 256.0,102.1 232.7,113.0 209.3,120.1 186.0,125.0 162.7,126.9 139.3,129.1 92.7,126.8 46.0,84.8" fill="#d62728" opacity="0.11"/>
<polyline points="46.0,84.2 92.7,125.2 139.3,128.5 162.7,126.6 186.0,124.9 209.3,120.1 232.7,112.7 256.0,102.0" fill="none" stroke="#d62728" stroke-width="1.6"/>
<circle cx="46.0" cy="84.2" r="2" fill="#d62728"/>
<circle cx="92.7" cy="125.2" r="2" fill="#d62728"/>
<circle cx="139.3" cy="128.5" r="2" fill="#d62728"/>
<circle cx="162.7" cy="126.6" r="2" fill="#d62728"/>
<circle cx="186.0" cy="124.9" r="2" fill="#d62728"/>
<circle cx="209.3" cy="120.1" r="2" fill="#d62728"/>
<circle cx="232.7" cy="112.7" r="2" fill="#d62728"/>
<circle cx="256.0" cy="102.0" r="2" fill="#d62728"/>
<polygon points="46.0,67.9 92.7,116.2 139.3,126.2 162.7,127.3 186.0,127.2 209.3,121.2 232.7,111.6 256.0,99.9 256.0,100.0 232.7,112.4 209.3,122.1 186.0,127.8 162.7,129.8 139.3,128.6 92.7,121.3 46.0,80.3" fill="#2ca02c" opacity="0.11"/>
<polyline points="46.0,74.6 92.7,119.8 139.3,127.1 162.7,127.8 186.0,127.4 209.3,121.9 232.7,112.1 256.0,100.0" fill="none" stroke="#2ca02c" stroke-width="1.6"/>
<circle cx="46.0" cy="74.6" r="2" fill="#2ca02c"/>
<circle cx="92.7" cy="119.8" r="2" fill="#2ca02c"/>
<circle cx="139.3" cy="127.1" r="2" fill="#2ca02c"/>
<circle cx="162.7" cy="127.8" r="2" fill="#2ca02c"/>
<circle cx="186.0" cy="127.4" r="2" fill="#2ca02c"/>
<circle cx="209.3" cy="121.9" r="2" fill="#2ca02c"/>
<circle cx="232.7" cy="112.1" r="2" fill="#2ca02c"/>
<circle cx="256.0" cy="100.0" r="2" fill="#2ca02c"/>
<polygon points="46.0,81.1 92.7,110.5 139.3,130.0 162.7,127.7 186.0,118.5 209.3,113.1 232.7,99.5 256.0,103.3 256.0,103.7 232.7,102.0 209.3,116.1 186.0,120.6 162.7,128.8 139.3,130.7 92.7,111.9 46.0,82.3" fill="#1f77b4" opacity="0.11"/>
<polyline points="46.0,81.7 92.7,111.3 139.3,130.3 162.7,128.4 186.0,119.6 209.3,115.0 232.7,100.3 256.0,103.6" fill="none" stroke="#1f77b4" stroke-width="1.6"/>
<circle cx="46.0" cy="81.7" r="2" fill="#1f77b4"/>
<circle cx="92.7" cy="111.3" r="2" fill="#1f77b4"/>
<circle cx="139.3" cy="130.3" r="2" fill="#1f77b4"/>
<circle cx="162.7" cy="128.4" r="2" fill="#1f77b4"/>
<circle cx="186.0" cy="119.6" r="2" fill="#1f77b4"/>
<circle cx="209.3" cy="115.0" r="2" fill="#1f77b4"/>
<circle cx="232.7" cy="100.3" r="2" fill="#1f77b4"/>
<circle cx="256.0" cy="103.6" r="2" fill="#1f77b4"/>
<text x="151.0" y="55" text-anchor="middle" font-size="12" font-weight="bold">gemm</text>
<line x1="46.0" y1="60" x2="46.0" y2="198" stroke="#f4f4f4"/>
<text x="46.0" y="209" text-anchor="middle" font-size="8" fill="#999">8</text>
<line x1="92.7" y1="60" x2="92.7" y2="198" stroke="#f4f4f4"/>
<text x="92.7" y="209" text-anchor="middle" font-size="8" fill="#999">32</text>
<line x1="139.3" y1="60" x2="139.3" y2="198" stroke="#f4f4f4"/>
<text x="139.3" y="209" text-anchor="middle" font-size="8" fill="#999">128</text>
<line x1="162.7" y1="60" x2="162.7" y2="198" stroke="#f4f4f4"/>
<text x="162.7" y="209" text-anchor="middle" font-size="8" fill="#999">256</text>
<line x1="186.0" y1="60" x2="186.0" y2="198" stroke="#f4f4f4"/>
<text x="186.0" y="209" text-anchor="middle" font-size="8" fill="#999">512</text>
<line x1="209.3" y1="60" x2="209.3" y2="198" stroke="#f4f4f4"/>
<text x="209.3" y="209" text-anchor="middle" font-size="8" fill="#999">1k</text>
<line x1="232.7" y1="60" x2="232.7" y2="198" stroke="#f4f4f4"/>
<text x="232.7" y="209" text-anchor="middle" font-size="8" fill="#999">2k</text>
<line x1="256.0" y1="60" x2="256.0" y2="198" stroke="#f4f4f4"/>
<text x="256.0" y="209" text-anchor="middle" font-size="8" fill="#999">4k</text>
<rect x="276" y="60" width="210" height="138" fill="none" stroke="#e2e2e2"/>
<line x1="276" y1="174.993546264783" x2="486" y2="174.993546264783" stroke="#d33" stroke-dasharray="4 3"/>
<text x="272" y="201.0" text-anchor="end" font-size="9" fill="#999">0.5×</text>
<text x="272" y="177.993546264783" text-anchor="end" font-size="9" fill="#999">1.0×</text>
<text x="272" y="63.002792661917994" text-anchor="end" font-size="9" fill="#999">31.96×</text>
<polygon points="276.0,70.9 322.7,145.8 369.3,173.5 392.7,177.3 416.0,176.1 439.3,175.5 462.7,175.2 486.0,173.7 486.0,175.1 462.7,175.4 439.3,175.6 416.0,176.2 392.7,177.6 369.3,174.6 322.7,149.5 276.0,72.5" fill="#d62728" opacity="0.11"/>
<polyline points="276.0,71.1 322.7,146.6 369.3,173.7 392.7,177.5 416.0,176.1 439.3,175.6 462.7,175.3 486.0,174.9" fill="none" stroke="#d62728" stroke-width="1.6"/>
<circle cx="276.0" cy="71.1" r="2" fill="#d62728"/>
<circle cx="322.7" cy="146.6" r="2" fill="#d62728"/>
<circle cx="369.3" cy="173.7" r="2" fill="#d62728"/>
<circle cx="392.7" cy="177.5" r="2" fill="#d62728"/>
<circle cx="416.0" cy="176.1" r="2" fill="#d62728"/>
<circle cx="439.3" cy="175.6" r="2" fill="#d62728"/>
<circle cx="462.7" cy="175.3" r="2" fill="#d62728"/>
<circle cx="486.0" cy="174.9" r="2" fill="#d62728"/>
<polygon points="276.0,62.6 322.7,140.3 369.3,170.1 392.7,174.4 416.0,174.9 439.3,175.6 462.7,175.5 486.0,175.2 486.0,175.2 462.7,175.7 439.3,175.8 416.0,175.0 392.7,174.6 369.3,170.6 322.7,143.8 276.0,69.7" fill="#2ca02c" opacity="0.11"/>
<polyline points="276.0,63.2 322.7,140.9 369.3,170.3 392.7,174.5 416.0,175.0 439.3,175.7 462.7,175.6 486.0,175.2" fill="none" stroke="#2ca02c" stroke-width="1.6"/>
<circle cx="276.0" cy="63.2" r="2" fill="#2ca02c"/>
<circle cx="322.7" cy="140.9" r="2" fill="#2ca02c"/>
<circle cx="369.3" cy="170.3" r="2" fill="#2ca02c"/>
<circle cx="392.7" cy="174.5" r="2" fill="#2ca02c"/>
<circle cx="416.0" cy="175.0" r="2" fill="#2ca02c"/>
<circle cx="439.3" cy="175.7" r="2" fill="#2ca02c"/>
<circle cx="462.7" cy="175.6" r="2" fill="#2ca02c"/>
<circle cx="486.0" cy="175.2" r="2" fill="#2ca02c"/>
<polygon points="276.0,63.3 322.7,137.8 369.3,170.3 392.7,176.0 416.0,175.9 439.3,176.0 462.7,176.4 486.0,176.3 486.0,176.5 462.7,176.6 439.3,176.2 416.0,175.9 392.7,176.1 369.3,170.5 322.7,138.7 276.0,64.1" fill="#1f77b4" opacity="0.11"/>
<polyline points="276.0,63.4 322.7,138.0 369.3,170.4 392.7,176.1 416.0,175.9 439.3,176.1 462.7,176.4 486.0,176.4" fill="none" stroke="#1f77b4" stroke-width="1.6"/>
<circle cx="276.0" cy="63.4" r="2" fill="#1f77b4"/>
<circle cx="322.7" cy="138.0" r="2" fill="#1f77b4"/>
<circle cx="369.3" cy="170.4" r="2" fill="#1f77b4"/>
<circle cx="392.7" cy="176.1" r="2" fill="#1f77b4"/>
<circle cx="416.0" cy="175.9" r="2" fill="#1f77b4"/>
<circle cx="439.3" cy="176.1" r="2" fill="#1f77b4"/>
<circle cx="462.7" cy="176.4" r="2" fill="#1f77b4"/>
<circle cx="486.0" cy="176.4" r="2" fill="#1f77b4"/>
<text x="381.0" y="55" text-anchor="middle" font-size="12" font-weight="bold">symm</text>
<line x1="276.0" y1="60" x2="276.0" y2="198" stroke="#f4f4f4"/>
<text x="276.0" y="209" text-anchor="middle" font-size="8" fill="#999">8</text>
<line x1="322.7" y1="60" x2="322.7" y2="198" stroke="#f4f4f4"/>
<text x="322.7" y="209" text-anchor="middle" font-size="8" fill="#999">32</text>
<line x1="369.3" y1="60" x2="369.3" y2="198" stroke="#f4f4f4"/>
<text x="369.3" y="209" text-anchor="middle" font-size="8" fill="#999">128</text>
<line x1="392.7" y1="60" x2="392.7" y2="198" stroke="#f4f4f4"/>
<text x="392.7" y="209" text-anchor="middle" font-size="8" fill="#999">256</text>
<line x1="416.0" y1="60" x2="416.0" y2="198" stroke="#f4f4f4"/>
<text x="416.0" y="209" text-anchor="middle" font-size="8" fill="#999">512</text>
<line x1="439.3" y1="60" x2="439.3" y2="198" stroke="#f4f4f4"/>
<text x="439.3" y="209" text-anchor="middle" font-size="8" fill="#999">1k</text>
<line x1="462.7" y1="60" x2="462.7" y2="198" stroke="#f4f4f4"/>
<text x="462.7" y="209" text-anchor="middle" font-size="8" fill="#999">2k</text>
<line x1="486.0" y1="60" x2="486.0" y2="198" stroke="#f4f4f4"/>
<text x="486.0" y="209" text-anchor="middle" font-size="8" fill="#999">4k</text>
<rect x="506" y="60" width="210" height="138" fill="none" stroke="#e2e2e2"/>
<line x1="506" y1="167.64374438103152" x2="716" y2="167.64374438103152" stroke="#d33" stroke-dasharray="4 3"/>
<text x="502" y="201.0" text-anchor="end" font-size="9" fill="#999">0.5×</text>
<text x="502" y="170.64374438103152" text-anchor="end" font-size="9" fill="#999">1.0×</text>
<text x="502" y="63.001422151694534" text-anchor="end" font-size="9" fill="#999">11.68×</text>
<polygon points="506.0,66.9 552.7,159.7 599.3,167.4 622.7,169.1 646.0,168.3 669.3,168.8 692.7,169.8 716.0,169.3 716.0,170.8 692.7,170.2 669.3,168.9 646.0,168.3 622.7,170.6 599.3,172.1 552.7,165.1 506.0,68.9" fill="#d62728" opacity="0.11"/>
<polyline points="506.0,67.3 552.7,161.9 599.3,167.9 622.7,169.5 646.0,168.3 669.3,168.8 692.7,170.1 716.0,169.4" fill="none" stroke="#d62728" stroke-width="1.6"/>
<circle cx="506.0" cy="67.3" r="2" fill="#d62728"/>
<circle cx="552.7" cy="161.9" r="2" fill="#d62728"/>
<circle cx="599.3" cy="167.9" r="2" fill="#d62728"/>
<circle cx="622.7" cy="169.5" r="2" fill="#d62728"/>
<circle cx="646.0" cy="168.3" r="2" fill="#d62728"/>
<circle cx="669.3" cy="168.8" r="2" fill="#d62728"/>
<circle cx="692.7" cy="170.1" r="2" fill="#d62728"/>
<circle cx="716.0" cy="169.4" r="2" fill="#d62728"/>
<polygon points="506.0,79.2 552.7,164.5 599.3,172.6 622.7,164.8 646.0,165.6 669.3,166.8 692.7,168.4 716.0,169.5 716.0,169.8 692.7,168.6 669.3,167.0 646.0,165.7 622.7,165.4 599.3,173.8 552.7,166.5 506.0,87.0" fill="#2ca02c" opacity="0.11"/>
<polyline points="506.0,81.4 552.7,165.3 599.3,173.3 622.7,165.0 646.0,165.6 669.3,166.9 692.7,168.5 716.0,169.8" fill="none" stroke="#2ca02c" stroke-width="1.6"/>
<circle cx="506.0" cy="81.4" r="2" fill="#2ca02c"/>
<circle cx="552.7" cy="165.3" r="2" fill="#2ca02c"/>
<circle cx="599.3" cy="173.3" r="2" fill="#2ca02c"/>
<circle cx="622.7" cy="165.0" r="2" fill="#2ca02c"/>
<circle cx="646.0" cy="165.6" r="2" fill="#2ca02c"/>
<circle cx="669.3" cy="166.9" r="2" fill="#2ca02c"/>
<circle cx="692.7" cy="168.5" r="2" fill="#2ca02c"/>
<circle cx="716.0" cy="169.8" r="2" fill="#2ca02c"/>
<polygon points="506.0,63.4 552.7,153.4 599.3,171.6 622.7,165.3 646.0,165.0 669.3,166.6 692.7,169.0 716.0,170.3 716.0,170.7 692.7,169.8 669.3,167.0 646.0,165.2 622.7,166.0 599.3,172.0 552.7,154.0 506.0,65.0" fill="#1f77b4" opacity="0.11"/>
<polyline points="506.0,64.7 552.7,153.6 599.3,171.8 622.7,165.4 646.0,165.1 669.3,166.8 692.7,169.5 716.0,170.4" fill="none" stroke="#1f77b4" stroke-width="1.6"/>
<circle cx="506.0" cy="64.7" r="2" fill="#1f77b4"/>
<circle cx="552.7" cy="153.6" r="2" fill="#1f77b4"/>
<circle cx="599.3" cy="171.8" r="2" fill="#1f77b4"/>
<circle cx="622.7" cy="165.4" r="2" fill="#1f77b4"/>
<circle cx="646.0" cy="165.1" r="2" fill="#1f77b4"/>
<circle cx="669.3" cy="166.8" r="2" fill="#1f77b4"/>
<circle cx="692.7" cy="169.5" r="2" fill="#1f77b4"/>
<circle cx="716.0" cy="170.4" r="2" fill="#1f77b4"/>
<text x="611.0" y="55" text-anchor="middle" font-size="12" font-weight="bold">syrk</text>
<line x1="506.0" y1="60" x2="506.0" y2="198" stroke="#f4f4f4"/>
<text x="506.0" y="209" text-anchor="middle" font-size="8" fill="#999">8</text>
<line x1="552.7" y1="60" x2="552.7" y2="198" stroke="#f4f4f4"/>
<text x="552.7" y="209" text-anchor="middle" font-size="8" fill="#999">32</text>
<line x1="599.3" y1="60" x2="599.3" y2="198" stroke="#f4f4f4"/>
<text x="599.3" y="209" text-anchor="middle" font-size="8" fill="#999">128</text>
<line x1="622.7" y1="60" x2="622.7" y2="198" stroke="#f4f4f4"/>
<text x="622.7" y="209" text-anchor="middle" font-size="8" fill="#999">256</text>
<line x1="646.0" y1="60" x2="646.0" y2="198" stroke="#f4f4f4"/>
<text x="646.0" y="209" text-anchor="middle" font-size="8" fill="#999">512</text>
<line x1="669.3" y1="60" x2="669.3" y2="198" stroke="#f4f4f4"/>
<text x="669.3" y="209" text-anchor="middle" font-size="8" fill="#999">1k</text>
<line x1="692.7" y1="60" x2="692.7" y2="198" stroke="#f4f4f4"/>
<text x="692.7" y="209" text-anchor="middle" font-size="8" fill="#999">2k</text>
<line x1="716.0" y1="60" x2="716.0" y2="198" stroke="#f4f4f4"/>
<text x="716.0" y="209" text-anchor="middle" font-size="8" fill="#999">4k</text>
<rect x="736" y="60" width="210" height="138" fill="none" stroke="#e2e2e2"/>
<line x1="736" y1="176.7503540235088" x2="946" y2="176.7503540235088" stroke="#d33" stroke-dasharray="4 3"/>
<text x="732" y="201.0" text-anchor="end" font-size="9" fill="#999">0.5×</text>
<text x="732" y="179.7503540235088" text-anchor="end" font-size="9" fill="#999">1.0×</text>
<text x="732" y="63.00276873250285" text-anchor="end" font-size="9" fill="#999">45.07×</text>
<polygon points="736.0,66.2 782.7,136.4 829.3,174.2 852.7,177.1 876.0,176.5 899.3,177.4 922.7,178.1 946.0,177.7 946.0,177.9 922.7,178.5 899.3,177.6 876.0,176.6 852.7,177.5 829.3,177.7 782.7,140.0 736.0,68.6" fill="#d62728" opacity="0.11"/>
<polyline points="736.0,66.9 782.7,136.8 829.3,175.6 852.7,177.3 876.0,176.5 899.3,177.5 922.7,178.2 946.0,177.8" fill="none" stroke="#d62728" stroke-width="1.6"/>
<circle cx="736.0" cy="66.9" r="2" fill="#d62728"/>
<circle cx="782.7" cy="136.8" r="2" fill="#d62728"/>
<circle cx="829.3" cy="175.6" r="2" fill="#d62728"/>
<circle cx="852.7" cy="177.3" r="2" fill="#d62728"/>
<circle cx="876.0" cy="176.5" r="2" fill="#d62728"/>
<circle cx="899.3" cy="177.5" r="2" fill="#d62728"/>
<circle cx="922.7" cy="178.2" r="2" fill="#d62728"/>
<circle cx="946.0" cy="177.8" r="2" fill="#d62728"/>
<polygon points="736.0,65.8 782.7,131.9 829.3,166.1 852.7,171.3 876.0,175.2 899.3,175.7 922.7,177.5 946.0,178.2 946.0,178.3 922.7,177.8 899.3,176.0 876.0,175.4 852.7,171.8 829.3,167.4 782.7,134.5 736.0,73.9" fill="#2ca02c" opacity="0.11"/>
<polyline points="736.0,67.8 782.7,132.4 829.3,166.5 852.7,171.5 876.0,175.3 899.3,175.9 922.7,177.5 946.0,178.2" fill="none" stroke="#2ca02c" stroke-width="1.6"/>
<circle cx="736.0" cy="67.8" r="2" fill="#2ca02c"/>
<circle cx="782.7" cy="132.4" r="2" fill="#2ca02c"/>
<circle cx="829.3" cy="166.5" r="2" fill="#2ca02c"/>
<circle cx="852.7" cy="171.5" r="2" fill="#2ca02c"/>
<circle cx="876.0" cy="175.3" r="2" fill="#2ca02c"/>
<circle cx="899.3" cy="175.9" r="2" fill="#2ca02c"/>
<circle cx="922.7" cy="177.5" r="2" fill="#2ca02c"/>
<circle cx="946.0" cy="178.2" r="2" fill="#2ca02c"/>
<polygon points="736.0,62.4 782.7,134.5 829.3,165.4 852.7,171.5 876.0,174.8 899.3,175.5 922.7,177.5 946.0,177.9 946.0,178.3 922.7,177.7 899.3,175.7 876.0,174.9 852.7,172.3 829.3,165.6 782.7,135.5 736.0,68.3" fill="#1f77b4" opacity="0.11"/>
<polyline points="736.0,62.7 782.7,134.8 829.3,165.6 852.7,171.8 876.0,174.9 899.3,175.6 922.7,177.6 946.0,178.1" fill="none" stroke="#1f77b4" stroke-width="1.6"/>
<circle cx="736.0" cy="62.7" r="2" fill="#1f77b4"/>
<circle cx="782.7" cy="134.8" r="2" fill="#1f77b4"/>
<circle cx="829.3" cy="165.6" r="2" fill="#1f77b4"/>
<circle cx="852.7" cy="171.8" r="2" fill="#1f77b4"/>
<circle cx="876.0" cy="174.9" r="2" fill="#1f77b4"/>
<circle cx="899.3" cy="175.6" r="2" fill="#1f77b4"/>
<circle cx="922.7" cy="177.6" r="2" fill="#1f77b4"/>
<circle cx="946.0" cy="178.1" r="2" fill="#1f77b4"/>
<text x="841.0" y="55" text-anchor="middle" font-size="12" font-weight="bold">syr2k</text>
<line x1="736.0" y1="60" x2="736.0" y2="198" stroke="#f4f4f4"/>
<text x="736.0" y="209" text-anchor="middle" font-size="8" fill="#999">8</text>
<line x1="782.7" y1="60" x2="782.7" y2="198" stroke="#f4f4f4"/>
<text x="782.7" y="209" text-anchor="middle" font-size="8" fill="#999">32</text>
<line x1="829.3" y1="60" x2="829.3" y2="198" stroke="#f4f4f4"/>
<text x="829.3" y="209" text-anchor="middle" font-size="8" fill="#999">128</text>
<line x1="852.7" y1="60" x2="852.7" y2="198" stroke="#f4f4f4"/>
<text x="852.7" y="209" text-anchor="middle" font-size="8" fill="#999">256</text>
<line x1="876.0" y1="60" x2="876.0" y2="198" stroke="#f4f4f4"/>
<text x="876.0" y="209" text-anchor="middle" font-size="8" fill="#999">512</text>
<line x1="899.3" y1="60" x2="899.3" y2="198" stroke="#f4f4f4"/>
<text x="899.3" y="209" text-anchor="middle" font-size="8" fill="#999">1k</text>
<line x1="922.7" y1="60" x2="922.7" y2="198" stroke="#f4f4f4"/>
<text x="922.7" y="209" text-anchor="middle" font-size="8" fill="#999">2k</text>
<line x1="946.0" y1="60" x2="946.0" y2="198" stroke="#f4f4f4"/>
<text x="946.0" y="209" text-anchor="middle" font-size="8" fill="#999">4k</text>
<rect x="46" y="232" width="210" height="138" fill="none" stroke="#e2e2e2"/>
<line x1="46" y1="347.57527563806116" x2="256" y2="347.57527563806116" stroke="#d33" stroke-dasharray="4 3"/>
<text x="42" y="373.0" text-anchor="end" font-size="9" fill="#999">0.5×</text>
<text x="42" y="350.57527563806116" text-anchor="end" font-size="9" fill="#999">1.0×</text>
<text x="42" y="235.00261156139933" text-anchor="end" font-size="9" fill="#999">35.6×</text>
<polygon points="46.0,248.9 92.7,311.8 139.3,346.8 162.7,348.8 186.0,348.8 209.3,349.0 232.7,348.7 256.0,348.1 256.0,348.2 232.7,348.9 209.3,349.1 186.0,349.2 162.7,351.1 139.3,347.2 92.7,318.0 46.0,250.3" fill="#d62728" opacity="0.11"/>
<polyline points="46.0,248.9 92.7,312.8 139.3,347.0 162.7,349.7 186.0,349.0 209.3,349.0 232.7,348.8 256.0,348.1" fill="none" stroke="#d62728" stroke-width="1.6"/>
<circle cx="46.0" cy="248.9" r="2" fill="#d62728"/>
<circle cx="92.7" cy="312.8" r="2" fill="#d62728"/>
<circle cx="139.3" cy="347.0" r="2" fill="#d62728"/>
<circle cx="162.7" cy="349.7" r="2" fill="#d62728"/>
<circle cx="186.0" cy="349.0" r="2" fill="#d62728"/>
<circle cx="209.3" cy="349.0" r="2" fill="#d62728"/>
<circle cx="232.7" cy="348.8" r="2" fill="#d62728"/>
<circle cx="256.0" cy="348.1" r="2" fill="#d62728"/>
<polygon points="46.0,234.5 92.7,310.7 139.3,341.3 162.7,344.5 186.0,348.2 209.3,348.8 232.7,349.1 256.0,348.6 256.0,348.6 232.7,349.2 209.3,349.0 186.0,348.7 162.7,345.1 139.3,342.2 92.7,316.4 46.0,240.3" fill="#2ca02c" opacity="0.11"/>
<polyline points="46.0,235.1 92.7,311.6 139.3,341.5 162.7,344.9 186.0,348.5 209.3,348.9 232.7,349.2 256.0,348.6" fill="none" stroke="#2ca02c" stroke-width="1.6"/>
<circle cx="46.0" cy="235.1" r="2" fill="#2ca02c"/>
<circle cx="92.7" cy="311.6" r="2" fill="#2ca02c"/>
<circle cx="139.3" cy="341.5" r="2" fill="#2ca02c"/>
<circle cx="162.7" cy="344.9" r="2" fill="#2ca02c"/>
<circle cx="186.0" cy="348.5" r="2" fill="#2ca02c"/>
<circle cx="209.3" cy="348.9" r="2" fill="#2ca02c"/>
<circle cx="232.7" cy="349.2" r="2" fill="#2ca02c"/>
<circle cx="256.0" cy="348.6" r="2" fill="#2ca02c"/>
<polygon points="46.0,236.1 92.7,313.5 139.3,341.6 162.7,345.2 186.0,348.9 209.3,349.2 232.7,349.8 256.0,349.5 256.0,349.7 232.7,350.3 209.3,349.4 186.0,349.2 162.7,345.5 139.3,341.8 92.7,315.4 46.0,238.9" fill="#1f77b4" opacity="0.11"/>
<polyline points="46.0,236.4 92.7,313.9 139.3,341.7 162.7,345.3 186.0,349.1 209.3,349.3 232.7,350.0 256.0,349.6" fill="none" stroke="#1f77b4" stroke-width="1.6"/>
<circle cx="46.0" cy="236.4" r="2" fill="#1f77b4"/>
<circle cx="92.7" cy="313.9" r="2" fill="#1f77b4"/>
<circle cx="139.3" cy="341.7" r="2" fill="#1f77b4"/>
<circle cx="162.7" cy="345.3" r="2" fill="#1f77b4"/>
<circle cx="186.0" cy="349.1" r="2" fill="#1f77b4"/>
<circle cx="209.3" cy="349.3" r="2" fill="#1f77b4"/>
<circle cx="232.7" cy="350.0" r="2" fill="#1f77b4"/>
<circle cx="256.0" cy="349.6" r="2" fill="#1f77b4"/>
<text x="151.0" y="227" text-anchor="middle" font-size="12" font-weight="bold">trmm</text>
<line x1="46.0" y1="232" x2="46.0" y2="370" stroke="#f4f4f4"/>
<text x="46.0" y="381" text-anchor="middle" font-size="8" fill="#999">8</text>
<line x1="92.7" y1="232" x2="92.7" y2="370" stroke="#f4f4f4"/>
<text x="92.7" y="381" text-anchor="middle" font-size="8" fill="#999">32</text>
<line x1="139.3" y1="232" x2="139.3" y2="370" stroke="#f4f4f4"/>
<text x="139.3" y="381" text-anchor="middle" font-size="8" fill="#999">128</text>
<line x1="162.7" y1="232" x2="162.7" y2="370" stroke="#f4f4f4"/>
<text x="162.7" y="381" text-anchor="middle" font-size="8" fill="#999">256</text>
<line x1="186.0" y1="232" x2="186.0" y2="370" stroke="#f4f4f4"/>
<text x="186.0" y="381" text-anchor="middle" font-size="8" fill="#999">512</text>
<line x1="209.3" y1="232" x2="209.3" y2="370" stroke="#f4f4f4"/>
<text x="209.3" y="381" text-anchor="middle" font-size="8" fill="#999">1k</text>
<line x1="232.7" y1="232" x2="232.7" y2="370" stroke="#f4f4f4"/>
<text x="232.7" y="381" text-anchor="middle" font-size="8" fill="#999">2k</text>
<line x1="256.0" y1="232" x2="256.0" y2="370" stroke="#f4f4f4"/>
<text x="256.0" y="381" text-anchor="middle" font-size="8" fill="#999">4k</text>
<rect x="276" y="232" width="210" height="138" fill="none" stroke="#e2e2e2"/>
<line x1="276" y1="290.3128589919105" x2="486" y2="290.3128589919105" stroke="#d33" stroke-dasharray="4 3"/>
<text x="272" y="373.0" text-anchor="end" font-size="9" fill="#999">0.5×</text>
<text x="272" y="293.3128589919105" text-anchor="end" font-size="9" fill="#999">1.0×</text>
<text x="272" y="235.0469569179946" text-anchor="end" font-size="9" fill="#999">1.66×</text>
<polygon points="276.0,265.3 322.7,273.0 369.3,291.8 392.7,290.8 416.0,282.9 439.3,285.3 462.7,283.9 486.0,281.0 486.0,288.9 462.7,284.4 439.3,285.7 416.0,284.1 392.7,294.6 369.3,294.7 322.7,319.9 276.0,270.3" fill="#d62728" opacity="0.11"/>
<polyline points="276.0,265.8 322.7,295.3 369.3,293.7 392.7,291.6 416.0,283.6 439.3,285.5 462.7,284.1 486.0,281.2" fill="none" stroke="#d62728" stroke-width="1.6"/>
<circle cx="276.0" cy="265.8" r="2" fill="#d62728"/>
<circle cx="322.7" cy="295.3" r="2" fill="#d62728"/>
<circle cx="369.3" cy="293.7" r="2" fill="#d62728"/>
<circle cx="392.7" cy="291.6" r="2" fill="#d62728"/>
<circle cx="416.0" cy="283.6" r="2" fill="#d62728"/>
<circle cx="439.3" cy="285.5" r="2" fill="#d62728"/>
<circle cx="462.7" cy="284.1" r="2" fill="#d62728"/>
<circle cx="486.0" cy="281.2" r="2" fill="#d62728"/>
<polygon points="276.0,240.8 322.7,291.8 369.3,275.2 392.7,283.7 416.0,293.7 439.3,290.3 462.7,286.9 486.0,279.9 486.0,282.4 462.7,287.9 439.3,291.2 416.0,294.9 392.7,290.0 369.3,277.8 322.7,310.3 276.0,254.0" fill="#2ca02c" opacity="0.11"/>
<polyline points="276.0,245.3 322.7,297.6 369.3,276.5 392.7,285.8 416.0,294.2 439.3,290.7 462.7,287.2 486.0,281.6" fill="none" stroke="#2ca02c" stroke-width="1.6"/>
<circle cx="276.0" cy="245.3" r="2" fill="#2ca02c"/>
<circle cx="322.7" cy="297.6" r="2" fill="#2ca02c"/>
<circle cx="369.3" cy="276.5" r="2" fill="#2ca02c"/>
<circle cx="392.7" cy="285.8" r="2" fill="#2ca02c"/>
<circle cx="416.0" cy="294.2" r="2" fill="#2ca02c"/>
<circle cx="439.3" cy="290.7" r="2" fill="#2ca02c"/>
<circle cx="462.7" cy="287.2" r="2" fill="#2ca02c"/>
<circle cx="486.0" cy="281.6" r="2" fill="#2ca02c"/>
<polygon points="276.0,252.3 322.7,296.4 369.3,297.5 392.7,295.4 416.0,298.8 439.3,295.6 462.7,287.4 486.0,279.0 486.0,297.4 462.7,288.7 439.3,296.2 416.0,300.5 392.7,296.2 369.3,299.0 322.7,300.3 276.0,262.8" fill="#1f77b4" opacity="0.11"/>
<polyline points="276.0,261.6 322.7,298.5 369.3,298.5 392.7,295.8 416.0,299.2 439.3,296.0 462.7,287.7 486.0,280.7" fill="none" stroke="#1f77b4" stroke-width="1.6"/>
<circle cx="276.0" cy="261.6" r="2" fill="#1f77b4"/>
<circle cx="322.7" cy="298.5" r="2" fill="#1f77b4"/>
<circle cx="369.3" cy="298.5" r="2" fill="#1f77b4"/>
<circle cx="392.7" cy="295.8" r="2" fill="#1f77b4"/>
<circle cx="416.0" cy="299.2" r="2" fill="#1f77b4"/>
<circle cx="439.3" cy="296.0" r="2" fill="#1f77b4"/>
<circle cx="462.7" cy="287.7" r="2" fill="#1f77b4"/>
<circle cx="486.0" cy="280.7" r="2" fill="#1f77b4"/>
<text x="381.0" y="227" text-anchor="middle" font-size="12" font-weight="bold">trsm</text>
<line x1="276.0" y1="232" x2="276.0" y2="370" stroke="#f4f4f4"/>
<text x="276.0" y="381" text-anchor="middle" font-size="8" fill="#999">8</text>
<line x1="322.7" y1="232" x2="322.7" y2="370" stroke="#f4f4f4"/>
<text x="322.7" y="381" text-anchor="middle" font-size="8" fill="#999">32</text>
<line x1="369.3" y1="232" x2="369.3" y2="370" stroke="#f4f4f4"/>
<text x="369.3" y="381" text-anchor="middle" font-size="8" fill="#999">128</text>
<line x1="392.7" y1="232" x2="392.7" y2="370" stroke="#f4f4f4"/>
<text x="392.7" y="381" text-anchor="middle" font-size="8" fill="#999">256</text>
<line x1="416.0" y1="232" x2="416.0" y2="370" stroke="#f4f4f4"/>
<text x="416.0" y="381" text-anchor="middle" font-size="8" fill="#999">512</text>
<line x1="439.3" y1="232" x2="439.3" y2="370" stroke="#f4f4f4"/>
<text x="439.3" y="381" text-anchor="middle" font-size="8" fill="#999">1k</text>
<line x1="462.7" y1="232" x2="462.7" y2="370" stroke="#f4f4f4"/>
<text x="462.7" y="381" text-anchor="middle" font-size="8" fill="#999">2k</text>
<line x1="486.0" y1="232" x2="486.0" y2="370" stroke="#f4f4f4"/>
<text x="486.0" y="381" text-anchor="middle" font-size="8" fill="#999">4k</text>
<rect x="506" y="232" width="210" height="138" fill="none" stroke="#e2e2e2"/>
<line x1="506" y1="322.22434755646344" x2="716" y2="322.22434755646344" stroke="#d33" stroke-dasharray="4 3"/>
<text x="502" y="373.0" text-anchor="end" font-size="9" fill="#999">0.5×</text>
<text x="502" y="325.22434755646344" text-anchor="end" font-size="9" fill="#999">1.0×</text>
<text x="502" y="235.0465962431211" text-anchor="end" font-size="9" fill="#999">3.7×</text>
<polygon points="506.0,256.7 552.7,314.2 599.3,333.2 622.7,326.6 646.0,305.2 669.3,294.9 692.7,326.9 716.0,325.3 716.0,325.4 692.7,327.2 669.3,295.3 646.0,305.9 622.7,327.5 599.3,335.2 552.7,329.8 506.0,258.5" fill="#d62728" opacity="0.11"/>
<polyline points="506.0,257.1 552.7,324.6 599.3,334.0 622.7,327.0 646.0,305.5 669.3,295.1 692.7,327.1 716.0,325.4" fill="none" stroke="#d62728" stroke-width="1.6"/>
<circle cx="506.0" cy="257.1" r="2" fill="#d62728"/>
<circle cx="552.7" cy="324.6" r="2" fill="#d62728"/>
<circle cx="599.3" cy="334.0" r="2" fill="#d62728"/>
<circle cx="622.7" cy="327.0" r="2" fill="#d62728"/>
<circle cx="646.0" cy="305.5" r="2" fill="#d62728"/>
<circle cx="669.3" cy="295.1" r="2" fill="#d62728"/>
<circle cx="692.7" cy="327.1" r="2" fill="#d62728"/>
<circle cx="716.0" cy="325.4" r="2" fill="#d62728"/>
<polygon points="506.0,237.3 552.7,315.7 599.3,316.6 622.7,320.9 646.0,326.6 669.3,324.6 692.7,323.3 716.0,322.9 716.0,323.0 692.7,323.7 669.3,325.0 646.0,327.3 622.7,322.0 599.3,318.0 552.7,319.6 506.0,249.7" fill="#2ca02c" opacity="0.11"/>
<polyline points="506.0,243.5 552.7,316.8 599.3,317.3 622.7,321.5 646.0,327.1 669.3,324.8 692.7,323.5 716.0,322.9" fill="none" stroke="#2ca02c" stroke-width="1.6"/>
<circle cx="506.0" cy="243.5" r="2" fill="#2ca02c"/>
<circle cx="552.7" cy="316.8" r="2" fill="#2ca02c"/>
<circle cx="599.3" cy="317.3" r="2" fill="#2ca02c"/>
<circle cx="622.7" cy="321.5" r="2" fill="#2ca02c"/>
<circle cx="646.0" cy="327.1" r="2" fill="#2ca02c"/>
<circle cx="669.3" cy="324.8" r="2" fill="#2ca02c"/>
<circle cx="692.7" cy="323.5" r="2" fill="#2ca02c"/>
<circle cx="716.0" cy="322.9" r="2" fill="#2ca02c"/>
<polygon points="506.0,258.5 552.7,311.5 599.3,319.0 622.7,322.9 646.0,275.2 669.3,290.9 692.7,324.9 716.0,324.5 716.0,325.2 692.7,325.3 669.3,295.8 646.0,284.4 622.7,323.3 599.3,319.4 552.7,313.7 506.0,276.6" fill="#1f77b4" opacity="0.11"/>
<polyline points="506.0,259.6 552.7,312.7 599.3,319.2 622.7,323.1 646.0,275.5 669.3,291.6 692.7,325.0 716.0,324.8" fill="none" stroke="#1f77b4" stroke-width="1.6"/>
<circle cx="506.0" cy="259.6" r="2" fill="#1f77b4"/>
<circle cx="552.7" cy="312.7" r="2" fill="#1f77b4"/>
<circle cx="599.3" cy="319.2" r="2" fill="#1f77b4"/>
<circle cx="622.7" cy="323.1" r="2" fill="#1f77b4"/>
<circle cx="646.0" cy="275.5" r="2" fill="#1f77b4"/>
<circle cx="669.3" cy="291.6" r="2" fill="#1f77b4"/>
<circle cx="692.7" cy="325.0" r="2" fill="#1f77b4"/>
<circle cx="716.0" cy="324.8" r="2" fill="#1f77b4"/>
<text x="611.0" y="227" text-anchor="middle" font-size="12" font-weight="bold">trsmR</text>
<line x1="506.0" y1="232" x2="506.0" y2="370" stroke="#f4f4f4"/>
<text x="506.0" y="381" text-anchor="middle" font-size="8" fill="#999">8</text>
<line x1="552.7" y1="232" x2="552.7" y2="370" stroke="#f4f4f4"/>
<text x="552.7" y="381" text-anchor="middle" font-size="8" fill="#999">32</text>
<line x1="599.3" y1="232" x2="599.3" y2="370" stroke="#f4f4f4"/>
<text x="599.3" y="381" text-anchor="middle" font-size="8" fill="#999">128</text>
<line x1="622.7" y1="232" x2="622.7" y2="370" stroke="#f4f4f4"/>
<text x="622.7" y="381" text-anchor="middle" font-size="8" fill="#999">256</text>
<line x1="646.0" y1="232" x2="646.0" y2="370" stroke="#f4f4f4"/>
<text x="646.0" y="381" text-anchor="middle" font-size="8" fill="#999">512</text>
<line x1="669.3" y1="232" x2="669.3" y2="370" stroke="#f4f4f4"/>
<text x="669.3" y="381" text-anchor="middle" font-size="8" fill="#999">1k</text>
<line x1="692.7" y1="232" x2="692.7" y2="370" stroke="#f4f4f4"/>
<text x="692.7" y="381" text-anchor="middle" font-size="8" fill="#999">2k</text>
<line x1="716.0" y1="232" x2="716.0" y2="370" stroke="#f4f4f4"/>
<text x="716.0" y="381" text-anchor="middle" font-size="8" fill="#999">4k</text>
</svg>
