<svg xmlns="http://www.w3.org/2000/svg" width="900" height="460" font-family="sans-serif">
<rect width="900" height="460" fill="white"/>
<text x="450.0" y="28" text-anchor="middle" font-size="18" font-weight="bold">Complex LAPACK: PureBLAS / OpenBLAS (AVX2, 1 thread, ComplexF64)</text>
<line x1="62" y1="400.0" x2="768" y2="400.0" stroke="#eee"/>
<text x="54" y="404.0" text-anchor="end" font-size="11" fill="#666">0.5×</text>
<line x1="62" y1="314.500046757148" x2="768" y2="314.500046757148" stroke="#eee"/>
<text x="54" y="318.500046757148" text-anchor="end" font-size="11" fill="#666">0.7×</text>
<line x1="62" y1="223.86644400914682" x2="768" y2="223.86644400914682" stroke="#eee"/>
<text x="54" y="227.86644400914682" text-anchor="end" font-size="11" fill="#666">1.0×</text>
<line x1="62" y1="120.83491863582756" x2="768" y2="120.83491863582756" stroke="#eee"/>
<text x="54" y="124.83491863582756" text-anchor="end" font-size="11" fill="#666">1.5×</text>
<line x1="62.0" y1="50" x2="62.0" y2="400" stroke="#f4f4f4"/>
<text x="62.0" y="418" text-anchor="middle" font-size="11" fill="#444">8</text>
<line x1="238.5" y1="50" x2="238.5" y2="400" stroke="#f4f4f4"/>
<text x="238.5" y="418" text-anchor="middle" font-size="11" fill="#444">32</text>
<line x1="415.0" y1="50" x2="415.0" y2="400" stroke="#f4f4f4"/>
<text x="415.0" y="418" text-anchor="middle" font-size="11" fill="#444">128</text>
<line x1="503.25" y1="50" x2="503.25" y2="400" stroke="#f4f4f4"/>
<text x="503.25" y="418" text-anchor="middle" font-size="11" fill="#444">256</text>
<line x1="591.5" y1="50" x2="591.5" y2="400" stroke="#f4f4f4"/>
<text x="591.5" y="418" text-anchor="middle" font-size="11" fill="#444">512</text>
<line x1="679.75" y1="50" x2="679.75" y2="400" stroke="#f4f4f4"/>
<text x="679.75" y="418" text-anchor="middle" font-size="11" fill="#444">1024</text>
<line x1="768.0" y1="50" x2="768.0" y2="400" stroke="#f4f4f4"/>
<text x="768.0" y="418" text-anchor="middle" font-size="11" fill="#444">2048</text>
<line x1="62" y1="223.86644400914682" x2="768" y2="223.86644400914682" stroke="#888"/>
<line x1="62" y1="234.2395988875714" x2="768" y2="234.2395988875714" stroke="#d33" stroke-width="1.5" stroke-dasharray="6 4"/>
<text x="66" y="229.2395988875714" font-size="11" fill="#d33">0.96× gate</text>
<polygon points="62.0,139.2 238.5,400.0 415.0,344.1 503.2,321.6 591.5,271.9 679.8,224.6 768.0,199.5 768.0,199.9 679.8,226.3 591.5,272.5 503.2,322.3 415.0,344.7 238.5,400.0 62.0,181.2" fill="#1f77b4" opacity="0.14" stroke="none"/>
<polyline points="62.0,140.4 238.5,400.0 415.0,344.5 503.2,322.0 591.5,272.3 679.8,225.8 768.0,199.7" fill="none" stroke="#1f77b4" stroke-width="2"/>
<circle cx="62.0" cy="140.4" r="3" fill="#1f77b4"/>
<circle cx="238.5" cy="400.0" r="3" fill="#1f77b4"/>
<circle cx="415.0" cy="344.5" r="3" fill="#1f77b4"/>
<circle cx="503.2" cy="322.0" r="3" fill="#1f77b4"/>
<circle cx="591.5" cy="272.3" r="3" fill="#1f77b4"/>
<circle cx="679.8" cy="225.8" r="3" fill="#1f77b4"/>
<circle cx="768.0" cy="199.7" r="3" fill="#1f77b4"/>
<line x1="782" y1="56" x2="802" y2="56" stroke="#1f77b4" stroke-width="3"/>
<text x="806" y="60" font-size="12">zpotrf</text>
<polygon points="62.0,153.7 238.5,381.6 415.0,393.3 503.2,346.3 591.5,321.0 679.8,312.2 768.0,307.8 768.0,309.2 679.8,313.9 591.5,321.3 503.2,347.6 415.0,395.2 238.5,382.3 62.0,157.7" fill="#d62728" opacity="0.14" stroke="none"/>
<polyline points="62.0,156.5 238.5,382.3 415.0,394.2 503.2,346.8 591.5,321.2 679.8,313.4 768.0,308.5" fill="none" stroke="#d62728" stroke-width="2"/>
<circle cx="62.0" cy="156.5" r="3" fill="#d62728"/>
<circle cx="238.5" cy="382.3" r="3" fill="#d62728"/>
<circle cx="415.0" cy="394.2" r="3" fill="#d62728"/>
<circle cx="503.2" cy="346.8" r="3" fill="#d62728"/>
<circle cx="591.5" cy="321.2" r="3" fill="#d62728"/>
<circle cx="679.8" cy="313.4" r="3" fill="#d62728"/>
<circle cx="768.0" cy="308.5" r="3" fill="#d62728"/>
<line x1="782" y1="74" x2="802" y2="74" stroke="#d62728" stroke-width="3"/>
<text x="806" y="78" font-size="12">zgeqrf</text>
<polygon points="62.0,208.7 238.5,301.9 415.0,352.2 503.2,328.6 591.5,290.0 679.8,292.3 768.0,295.2 768.0,295.5 679.8,293.9 591.5,290.4 503.2,329.7 415.0,353.2 238.5,302.0 62.0,209.0" fill="#2ca02c" opacity="0.14" stroke="none"/>
<polyline points="62.0,208.9 238.5,301.9 415.0,352.9 503.2,328.8 591.5,290.3 679.8,292.6 768.0,295.3" fill="none" stroke="#2ca02c" stroke-width="2"/>
<circle cx="62.0" cy="208.9" r="3" fill="#2ca02c"/>
<circle cx="238.5" cy="301.9" r="3" fill="#2ca02c"/>
<circle cx="415.0" cy="352.9" r="3" fill="#2ca02c"/>
<circle cx="503.2" cy="328.8" r="3" fill="#2ca02c"/>
<circle cx="591.5" cy="290.3" r="3" fill="#2ca02c"/>
<circle cx="679.8" cy="292.6" r="3" fill="#2ca02c"/>
<circle cx="768.0" cy="295.3" r="3" fill="#2ca02c"/>
<line x1="782" y1="92" x2="802" y2="92" stroke="#2ca02c" stroke-width="3"/>
<text x="806" y="96" font-size="12">zgetrf</text>
<polygon points="62.0,85.1 238.5,242.9 415.0,400.0 503.2,400.0 591.5,400.0 679.8,400.0 768.0,400.0 768.0,400.0 679.8,400.0 591.5,400.0 503.2,400.0 415.0,400.0 238.5,243.4 62.0,85.7" fill="#9467bd" opacity="0.14" stroke="none"/>
<polyline points="62.0,85.5 238.5,243.3 415.0,400.0 503.2,400.0 591.5,400.0 679.8,400.0 768.0,400.0" fill="none" stroke="#9467bd" stroke-width="2"/>
<circle cx="62.0" cy="85.5" r="3" fill="#9467bd"/>
<circle cx="238.5" cy="243.3" r="3" fill="#9467bd"/>
<circle cx="415.0" cy="400.0" r="3" fill="#9467bd"/>
<circle cx="503.2" cy="400.0" r="3" fill="#9467bd"/>
<circle cx="591.5" cy="400.0" r="3" fill="#9467bd"/>
<circle cx="679.8" cy="400.0" r="3" fill="#9467bd"/>
<circle cx="768.0" cy="400.0" r="3" fill="#9467bd"/>
<line x1="782" y1="110" x2="802" y2="110" stroke="#9467bd" stroke-width="3"/>
<text x="806" y="114" font-size="12">zgesvd</text>
<text x="415.0" y="450" text-anchor="middle" font-size="11" fill="#666">matrix size n (log) · y = median ratio (log) · dashed = the 0.96× gate</text>
</svg>
