<svg xmlns="http://www.w3.org/2000/svg" width="900" height="440" font-family="sans-serif">
<rect width="900" height="440" fill="white"/>
<text x="450.0" y="28" text-anchor="middle" font-size="18" font-weight="bold">BLAS-1: PureBLAS / OpenBLAS (AVX-512 native (Zen5), 1 thread, Float64)</text>
<line x1="60" y1="358.0" x2="880" y2="358.0" stroke="#eee"/>
<text x="52" y="362.0" text-anchor="end" font-size="11" fill="#666">0×</text>
<line x1="60" y1="348.09858388398266" x2="880" y2="348.09858388398266" stroke="#eee"/>
<text x="52" y="352.09858388398266" text-anchor="end" font-size="11" fill="#666">0.5×</text>
<line x1="60" y1="338.1971677679653" x2="880" y2="338.1971677679653" stroke="#eee"/>
<text x="52" y="342.1971677679653" text-anchor="end" font-size="11" fill="#666">1×</text>
<line x1="60" y1="328.29575165194797" x2="880" y2="328.29575165194797" stroke="#eee"/>
<text x="52" y="332.29575165194797" text-anchor="end" font-size="11" fill="#666">1.5×</text>
<line x1="60" y1="338.1971677679653" x2="880" y2="338.1971677679653" stroke="#888" stroke-width="1"/>
<line x1="60" y1="338.98928105724667" x2="880" y2="338.98928105724667" stroke="#d33" stroke-width="1.5" stroke-dasharray="6 4"/>
<text x="880" y="333.98928105724667" text-anchor="end" font-size="11" fill="#d33">0.96× gate</text>
<polygon points="128.3,340.2 128.4,340.1 128.4,340.0 128.4,339.9 128.5,339.8 128.7,339.7 129.0,339.6 129.4,339.5 130.2,339.4 131.5,339.3 133.4,339.2 135.9,339.1 138.8,339.0 142.1,338.9 145.9,338.8 150.5,338.8 156.4,338.7 163.9,338.6 172.4,338.5 180.3,338.4 185.3,338.3 185.7,338.2 181.3,338.1 173.8,338.0 165.5,337.9 158.5,337.8 153.3,337.7 149.5,337.6 146.2,337.5 143.1,337.4 140.3,337.3 138.4,337.2 137.6,337.1 138.3,337.0 139.8,336.9 141.5,336.8 142.6,336.7 142.4,336.6 140.9,336.5 138.7,336.4 136.1,336.3 133.8,336.2 131.9,336.1 130.6,336.0 129.9,335.9 129.4,335.8 129.2,335.7 129.1,335.6 129.1,335.5 129.0,335.4 129.0,335.3 128.9,335.2 128.8,335.1 128.8,335.0 128.8,334.9 128.7,334.8 128.7,334.7 128.6,334.6 128.5,334.5 128.5,334.4 128.5,334.3 128.5,334.2 128.6,334.1 128.7,334.0 128.7,333.9 128.6,333.8 128.6,333.7 128.5,333.6 128.4,333.6 128.4,333.5 128.4,333.4 128.3,333.3 128.3,333.3 128.3,333.4 128.3,333.5 128.2,333.6 128.2,333.6 128.1,333.7 128.0,333.8 128.0,333.9 128.0,334.0 128.1,334.1 128.1,334.2 128.2,334.3 128.2,334.4 128.1,334.5 128.1,334.6 128.0,334.7 127.9,334.8 127.9,334.9 127.9,335.0 127.8,335.1 127.8,335.2 127.7,335.3 127.6,335.4 127.6,335.5 127.5,335.6 127.4,335.7 127.2,335.8 126.8,335.9 126.0,336.0 124.7,336.1 122.9,336.2 120.5,336.3 118.0,336.4 115.7,336.5 114.3,336.6 114.1,336.7 115.1,336.8 116.8,336.9 118.4,337.0 119.0,337.1 118.3,337.2 116.3,337.3 113.5,337.4 110.4,337.5 107.2,337.6 103.3,337.7 98.1,337.8 91.1,337.9 82.9,338.0 75.3,338.1 70.9,338.2 71.3,338.3 76.4,338.4 84.3,338.5 92.8,338.6 100.3,338.7 106.2,338.8 110.8,338.8 114.6,338.9 117.9,339.0 120.8,339.1 123.3,339.2 125.2,339.3 126.4,339.4 127.2,339.5 127.7,339.6 128.0,339.7 128.1,339.8 128.2,339.9 128.3,340.0 128.3,340.1 128.3,340.2" fill="#2a8" opacity="0.5" stroke="#2a8" stroke-width="1"/>
<line x1="71.7" y1="338.1356934602624" x2="185.0" y2="338.1356934602624" stroke="#114" stroke-width="2"/>
<circle cx="128.33333333333331" cy="338.6740670221168" r="2.4" fill="#114"/>
<text x="128.33333333333331" y="327.9629502236224" text-anchor="middle" font-size="11">1.00</text>
<text x="128.33333333333331" y="376" text-anchor="middle" font-size="12">axpy</text>
<polygon points="265.0,341.8 265.0,341.7 265.0,341.6 265.0,341.5 265.1,341.5 265.1,341.4 265.3,341.3 265.4,341.3 265.3,341.2 265.2,341.1 265.1,341.0 265.0,341.0 265.0,340.9 265.0,340.8 265.0,340.7 265.0,340.7 265.0,340.6 265.0,340.5 265.0,340.4 265.0,340.4 265.0,340.3 265.0,340.2 265.1,340.1 265.2,340.1 265.3,340.0 265.4,339.9 265.3,339.8 265.2,339.8 265.1,339.7 265.0,339.6 265.0,339.6 265.0,339.5 265.0,339.4 265.0,339.3 265.0,339.3 265.1,339.2 265.3,339.1 265.8,339.0 266.7,339.0 268.0,338.9 270.0,338.8 273.2,338.7 277.5,338.7 282.6,338.6 288.2,338.5 295.7,338.4 306.1,338.4 316.8,338.3 322.4,338.2 319.5,338.2 310.1,338.1 298.7,338.0 289.8,337.9 286.1,337.9 285.9,337.8 284.7,337.7 280.1,337.6 274.2,337.6 269.9,337.5 267.9,337.4 267.6,337.3 268.0,337.3 268.3,337.2 268.1,337.1 267.3,337.0 266.3,337.0 265.6,336.9 265.2,336.8 265.0,336.8 265.0,336.7 265.0,336.6 265.0,336.5 265.0,336.5 265.0,336.6 265.0,336.7 265.0,336.8 264.8,336.8 264.4,336.9 263.7,337.0 262.7,337.0 261.9,337.1 261.7,337.2 262.0,337.3 262.4,337.3 262.1,337.4 260.1,337.5 255.8,337.6 249.9,337.6 245.3,337.7 244.1,337.8 243.9,337.9 240.2,337.9 231.3,338.0 219.9,338.1 210.5,338.2 207.6,338.2 213.2,338.3 223.9,338.4 234.3,338.4 241.8,338.5 247.4,338.6 252.5,338.7 256.8,338.7 260.0,338.8 262.0,338.9 263.3,339.0 264.2,339.0 264.7,339.1 264.9,339.2 265.0,339.3 265.0,339.3 265.0,339.4 265.0,339.5 265.0,339.6 265.0,339.6 264.9,339.7 264.8,339.8 264.7,339.8 264.6,339.9 264.7,340.0 264.8,340.1 264.9,340.1 265.0,340.2 265.0,340.3 265.0,340.4 265.0,340.4 265.0,340.5 265.0,340.6 265.0,340.7 265.0,340.7 265.0,340.8 265.0,340.9 265.0,341.0 264.9,341.0 264.8,341.1 264.7,341.2 264.6,341.3 264.7,341.3 264.9,341.4 264.9,341.5 265.0,341.5 265.0,341.6 265.0,341.7 265.0,341.8" fill="#2a8" opacity="0.5" stroke="#2a8" stroke-width="1"/>
<line x1="207.5" y1="338.21257561124105" x2="322.5" y2="338.21257561124105" stroke="#114" stroke-width="2"/>
<circle cx="265.0" cy="338.5308604738141" r="2.4" fill="#114"/>
<text x="265.0" y="331.0687911186938" text-anchor="middle" font-size="11">1.00</text>
<text x="265.0" y="376" text-anchor="middle" font-size="12">dot</text>
<polygon points="411.7,257.4 414.5,254.5 417.7,251.6 421.2,248.7 424.9,245.7 428.7,242.8 432.3,239.9 435.6,237.0 438.2,234.0 440.2,231.1 441.2,228.2 441.3,225.3 440.5,222.4 438.7,219.4 436.2,216.5 433.1,213.6 429.5,210.7 425.8,207.8 422.2,204.8 418.7,201.9 415.6,199.0 412.9,196.1 410.8,193.1 409.3,190.2 408.4,187.3 408.2,184.4 408.6,181.5 409.8,178.5 411.6,175.6 414.1,172.7 417.3,169.8 421.2,166.9 425.6,163.9 430.5,161.0 435.5,158.1 440.6,155.2 445.5,152.2 449.9,149.3 453.6,146.4 456.5,143.5 458.3,140.6 459.1,137.6 458.9,134.7 457.8,131.8 456.1,128.9 453.8,126.0 451.4,123.0 448.9,120.1 446.6,117.2 444.4,114.3 442.6,111.3 441.1,108.4 439.8,105.5 438.8,102.6 438.0,99.7 437.3,96.7 436.7,93.8 436.1,90.9 435.5,88.0 434.8,85.1 434.0,82.1 433.0,79.2 431.8,76.3 430.3,73.4 428.6,70.4 426.6,67.5 424.4,64.6 422.0,61.7 419.5,58.8 417.0,55.8 414.6,52.9 412.3,50.0 391.0,50.0 388.8,52.9 386.3,55.8 383.8,58.8 381.4,61.7 379.0,64.6 376.7,67.5 374.8,70.4 373.0,73.4 371.5,76.3 370.3,79.2 369.3,82.1 368.5,85.1 367.8,88.0 367.2,90.9 366.6,93.8 366.0,96.7 365.3,99.7 364.5,102.6 363.5,105.5 362.3,108.4 360.7,111.3 358.9,114.3 356.8,117.2 354.4,120.1 351.9,123.0 349.5,126.0 347.3,128.9 345.5,131.8 344.5,134.7 344.3,137.6 345.1,140.6 346.9,143.5 349.7,146.4 353.4,149.3 357.8,152.2 362.7,155.2 367.8,158.1 372.9,161.0 377.7,163.9 382.1,166.9 386.0,169.8 389.2,172.7 391.7,175.6 393.6,178.5 394.7,181.5 395.1,184.4 394.9,187.3 394.0,190.2 392.5,193.1 390.4,196.1 387.7,199.0 384.6,201.9 381.2,204.8 377.5,207.8 373.8,210.7 370.3,213.6 367.2,216.5 364.6,219.4 362.9,222.4 362.0,225.3 362.1,228.2 363.2,231.1 365.1,234.0 367.8,237.0 371.0,239.9 374.6,242.8 378.4,245.7 382.1,248.7 385.6,251.6 388.8,254.5 391.7,257.4" fill="#2a8" opacity="0.5" stroke="#2a8" stroke-width="1"/>
<line x1="344.6" y1="139.43413504926076" x2="458.7" y2="139.43413504926076" stroke="#114" stroke-width="2"/>
<circle cx="401.66666666666663" cy="228.01901853723248" r="2.4" fill="#114"/>
<text x="401.66666666666663" y="61.433962264150935" text-anchor="middle" font-size="11">11.04</text>
<text x="401.66666666666663" y="376" text-anchor="middle" font-size="12">nrm2</text>
<polygon points="546.9,339.9 550.1,339.8 554.0,339.6 558.5,339.5 563.8,339.3 569.4,339.2 575.3,339.0 581.0,338.9 586.2,338.8 590.5,338.6 593.7,338.5 595.5,338.3 595.7,338.2 594.5,338.1 592.0,337.9 588.5,337.8 584.2,337.6 579.6,337.5 575.0,337.3 570.6,337.2 566.7,337.1 563.4,336.9 560.5,336.8 558.1,336.6 556.1,336.5 554.4,336.3 552.7,336.2 551.2,336.1 549.6,335.9 548.1,335.8 546.6,335.6 545.2,335.5 543.9,335.4 542.7,335.2 541.7,335.1 540.8,334.9 540.1,334.8 539.6,334.6 539.2,334.5 538.9,334.4 538.7,334.2 538.6,334.1 538.5,333.9 538.5,333.8 538.5,333.6 538.6,333.5 538.7,333.4 538.9,333.2 539.2,333.1 539.6,332.9 540.1,332.8 540.8,332.7 541.6,332.5 542.6,332.4 543.6,332.2 544.8,332.1 546.0,331.9 547.1,331.8 548.1,331.7 549.0,331.5 549.5,331.4 549.8,331.2 549.7,331.1 549.3,330.9 548.6,330.8 547.7,330.7 546.6,330.5 545.4,330.4 544.3,330.2 543.1,330.1 542.1,330.0 541.2,329.8 535.4,329.8 534.5,330.0 533.5,330.1 532.4,330.2 531.2,330.4 530.1,330.5 529.0,330.7 528.1,330.8 527.4,330.9 527.0,331.1 526.9,331.2 527.1,331.4 527.7,331.5 528.5,331.7 529.6,331.8 530.7,331.9 531.9,332.1 533.0,332.2 534.1,332.4 535.1,332.5 535.9,332.7 536.5,332.8 537.1,332.9 537.5,333.1 537.7,333.2 537.9,333.4 538.1,333.5 538.1,333.6 538.2,333.8 538.1,333.9 538.1,334.1 538.0,334.2 537.8,334.4 537.5,334.5 537.1,334.6 536.6,334.8 535.9,334.9 535.0,335.1 534.0,335.2 532.8,335.4 531.5,335.5 530.0,335.6 528.6,335.8 527.0,335.9 525.5,336.1 523.9,336.2 522.3,336.3 520.5,336.5 518.5,336.6 516.2,336.8 513.3,336.9 509.9,337.1 506.0,337.2 501.7,337.3 497.1,337.5 492.5,337.6 488.2,337.8 484.6,337.9 482.1,338.1 480.9,338.2 481.2,338.3 483.0,338.5 486.2,338.6 490.5,338.8 495.7,338.9 501.4,339.0 507.3,339.2 512.9,339.3 518.1,339.5 522.7,339.6 526.6,339.8 529.8,339.9" fill="#2a8" opacity="0.5" stroke="#2a8" stroke-width="1"/>
<line x1="481.0" y1="338.1848541081063" x2="595.7" y2="338.1848541081063" stroke="#114" stroke-width="2"/>
<circle cx="538.3333333333333" cy="338.48431773554614" r="2.4" fill="#114"/>
<text x="538.3333333333333" y="324.8195841316064" text-anchor="middle" font-size="11">1.00</text>
<text x="538.3333333333333" y="376" text-anchor="middle" font-size="12">asum</text>
<polygon points="678.9,339.1 680.7,339.0 683.1,338.9 686.1,338.8 689.7,338.7 693.9,338.6 698.6,338.5 703.7,338.4 708.9,338.3 714.1,338.2 719.0,338.1 723.3,338.0 726.9,337.9 729.7,337.8 731.6,337.7 732.4,337.6 732.3,337.5 731.2,337.4 729.2,337.3 726.5,337.2 723.2,337.1 719.4,337.0 715.3,336.9 711.1,336.8 706.7,336.7 702.5,336.6 698.5,336.5 694.7,336.4 691.2,336.3 688.1,336.2 685.4,336.1 683.0,336.0 681.1,335.9 679.5,335.8 678.2,335.7 677.3,335.6 676.6,335.5 676.1,335.4 675.8,335.3 675.6,335.2 675.6,335.1 675.6,335.0 675.8,334.9 676.1,334.8 676.4,334.7 676.9,334.6 677.4,334.5 678.0,334.4 678.7,334.3 679.4,334.2 680.1,334.1 680.8,334.0 681.4,333.9 682.1,333.8 682.6,333.7 683.2,333.6 683.7,333.5 684.1,333.4 684.4,333.3 684.6,333.2 684.7,333.1 684.5,333.0 684.2,332.9 683.7,332.8 683.1,332.7 682.2,332.6 681.3,332.5 680.4,332.4 679.4,332.3 678.5,332.2 677.7,332.1 677.0,332.0 673.0,332.0 672.3,332.1 671.5,332.2 670.6,332.3 669.6,332.4 668.7,332.5 667.8,332.6 666.9,332.7 666.3,332.8 665.8,332.9 665.5,333.0 665.3,333.1 665.4,333.2 665.6,333.3 665.9,333.4 666.3,333.5 666.8,333.6 667.4,333.7 667.9,333.8 668.6,333.9 669.2,334.0 669.9,334.1 670.6,334.2 671.3,334.3 672.0,334.4 672.6,334.5 673.1,334.6 673.6,334.7 673.9,334.8 674.2,334.9 674.4,335.0 674.4,335.1 674.4,335.2 674.2,335.3 673.9,335.4 673.4,335.5 672.7,335.6 671.8,335.7 670.5,335.8 668.9,335.9 667.0,336.0 664.6,336.1 661.9,336.2 658.8,336.3 655.3,336.4 651.5,336.5 647.5,336.6 643.3,336.7 638.9,336.8 634.7,336.9 630.6,337.0 626.8,337.1 623.5,337.2 620.8,337.3 618.8,337.4 617.7,337.5 617.6,337.6 618.4,337.7 620.3,337.8 623.1,337.9 626.7,338.0 631.0,338.1 635.9,338.2 641.1,338.3 646.3,338.4 651.4,338.5 656.1,338.6 660.3,338.7 663.9,338.8 666.9,338.9 669.3,339.0 671.1,339.1" fill="#2a8" opacity="0.5" stroke="#2a8" stroke-width="1"/>
<line x1="619.3" y1="337.3691358978857" x2="730.7" y2="337.3691358978857" stroke="#114" stroke-width="2"/>
<circle cx="675.0" cy="338.0401257519224" r="2.4" fill="#114"/>
<text x="675.0" y="326.7283483639163" text-anchor="middle" font-size="11">1.04</text>
<text x="675.0" y="376" text-anchor="middle" font-size="12">scal</text>
<polygon points="813.7,345.3 814.7,344.8 815.9,344.3 817.5,343.7 819.4,343.2 821.6,342.7 824.2,342.2 827.0,341.7 829.9,341.1 833.1,340.6 836.2,340.1 839.3,339.6 842.3,339.1 845.2,338.6 847.8,338.0 850.3,337.5 852.4,337.0 854.3,336.5 855.9,336.0 857.3,335.4 858.3,334.9 859.1,334.4 859.6,333.9 860.0,333.4 860.2,332.9 860.2,332.3 860.3,331.8 860.4,331.3 860.5,330.8 860.6,330.3 860.9,329.7 861.3,329.2 861.7,328.7 862.1,328.2 862.5,327.7 862.9,327.2 863.2,326.6 863.5,326.1 863.8,325.6 864.1,325.1 864.5,324.6 865.0,324.0 865.6,323.5 866.3,323.0 867.1,322.5 867.9,322.0 868.6,321.5 869.0,320.9 869.1,320.4 868.6,319.9 867.6,319.4 866.0,318.9 863.9,318.3 861.3,317.8 858.3,317.3 855.0,316.8 851.5,316.3 848.0,315.7 844.4,315.2 840.9,314.7 837.5,314.2 834.1,313.7 830.9,313.2 827.8,312.6 825.0,312.1 822.4,311.6 820.1,311.1 818.1,310.6 816.4,310.0 815.1,309.5 814.1,309.0 813.3,308.5 810.0,308.5 809.3,309.0 808.2,309.5 806.9,310.0 805.2,310.6 803.3,311.1 801.0,311.6 798.4,312.1 795.5,312.6 792.5,313.2 789.2,313.7 785.9,314.2 782.4,314.7 778.9,315.2 775.4,315.7 771.8,316.3 768.4,316.8 765.1,317.3 762.1,317.8 759.4,318.3 757.3,318.9 755.7,319.4 754.7,319.9 754.3,320.4 754.3,320.9 754.7,321.5 755.4,322.0 756.2,322.5 757.0,323.0 757.7,323.5 758.4,324.0 758.8,324.6 759.2,325.1 759.5,325.6 759.8,326.1 760.1,326.6 760.5,327.2 760.8,327.7 761.2,328.2 761.7,328.7 762.1,329.2 762.4,329.7 762.7,330.3 762.9,330.8 763.0,331.3 763.0,331.8 763.1,332.3 763.2,332.9 763.4,333.4 763.7,333.9 764.3,334.4 765.0,334.9 766.1,335.4 767.4,336.0 769.0,336.5 770.9,337.0 773.1,337.5 775.5,338.0 778.2,338.6 781.0,339.1 784.0,339.6 787.1,340.1 790.3,340.6 793.4,341.1 796.4,341.7 799.2,342.2 801.7,342.7 803.9,343.2 805.8,343.7 807.4,344.3 808.6,344.8 809.6,345.3" fill="#2a8" opacity="0.5" stroke="#2a8" stroke-width="1"/>
<line x1="760.0" y1="326.4945766522987" x2="863.3" y2="326.4945766522987" stroke="#114" stroke-width="2"/>
<circle cx="811.6666666666666" cy="330.0520268982697" r="2.4" fill="#114"/>
<text x="811.6666666666666" y="306.0869134369235" text-anchor="middle" font-size="11">1.59</text>
<text x="811.6666666666666" y="376" text-anchor="middle" font-size="12">iamax</text>
<text x="450.0" y="428" text-anchor="middle" font-size="11" fill="#666">violin = ratio distribution over sizes · line = median · dark dot = worst size · green = every size ≥ gate</text>
</svg>
