<svg xmlns="http://www.w3.org/2000/svg" width="900" height="460" font-family="sans-serif">
<rect width="900" height="460" fill="white"/>
<text x="450.0" y="28" text-anchor="middle" font-size="18" font-weight="bold">LAPACK: PureBLAS / OpenBLAS (AVX2, 1 thread, Float64)</text>
<line x1="62" y1="400.0" x2="768" y2="400.0" stroke="#eee"/>
<text x="54" y="404.0" text-anchor="end" font-size="11" fill="#666">0.5×</text>
<line x1="62" y1="345.4767837198142" x2="768" y2="345.4767837198142" stroke="#eee"/>
<text x="54" y="349.4767837198142" text-anchor="end" font-size="11" fill="#666">0.7×</text>
<line x1="62" y1="287.6798453887999" x2="768" y2="287.6798453887999" stroke="#eee"/>
<text x="54" y="291.6798453887999" text-anchor="end" font-size="11" fill="#666">1.0×</text>
<line x1="62" y1="221.97676686604544" x2="768" y2="221.97676686604544" stroke="#eee"/>
<text x="54" y="225.97676686604544" text-anchor="end" font-size="11" fill="#666">1.5×</text>
<line x1="62" y1="175.35969077759984" x2="768" y2="175.35969077759984" stroke="#eee"/>
<text x="54" y="179.35969077759984" text-anchor="end" font-size="11" fill="#666">2.0×</text>
<line x1="62" y1="109.65661225484534" x2="768" y2="109.65661225484534" stroke="#eee"/>
<text x="54" y="113.65661225484534" text-anchor="end" font-size="11" fill="#666">3.0×</text>
<line x1="62" y1="63.03953616639979" x2="768" y2="63.03953616639979" stroke="#eee"/>
<text x="54" y="67.03953616639978" text-anchor="end" font-size="11" fill="#666">4.0×</text>
<line x1="62.0" y1="50" x2="62.0" y2="400" stroke="#f4f4f4"/>
<text x="62.0" y="418" text-anchor="middle" font-size="11" fill="#444">8</text>
<line x1="238.5" y1="50" x2="238.5" y2="400" stroke="#f4f4f4"/>
<text x="238.5" y="418" text-anchor="middle" font-size="11" fill="#444">32</text>
<line x1="415.0" y1="50" x2="415.0" y2="400" stroke="#f4f4f4"/>
<text x="415.0" y="418" text-anchor="middle" font-size="11" fill="#444">128</text>
<line x1="503.25" y1="50" x2="503.25" y2="400" stroke="#f4f4f4"/>
<text x="503.25" y="418" text-anchor="middle" font-size="11" fill="#444">256</text>
<line x1="591.5" y1="50" x2="591.5" y2="400" stroke="#f4f4f4"/>
<text x="591.5" y="418" text-anchor="middle" font-size="11" fill="#444">512</text>
<line x1="679.75" y1="50" x2="679.75" y2="400" stroke="#f4f4f4"/>
<text x="679.75" y="418" text-anchor="middle" font-size="11" fill="#444">1024</text>
<line x1="768.0" y1="50" x2="768.0" y2="400" stroke="#f4f4f4"/>
<text x="768.0" y="418" text-anchor="middle" font-size="11" fill="#444">2048</text>
<line x1="62" y1="287.6798453887999" x2="768" y2="287.6798453887999" stroke="#888"/>
<line x1="62" y1="294.29479364892063" x2="768" y2="294.29479364892063" stroke="#d33" stroke-width="1.5" stroke-dasharray="6 4"/>
<text x="66" y="289.29479364892063" font-size="11" fill="#d33">0.96× gate</text>
<polyline points="62.0,241.5 238.5,226.9 415.0,322.9 503.2,321.2 591.5,314.5 679.8,344.9 768.0,313.2" fill="none" stroke="#1f77b4" stroke-width="2"/>
<circle cx="62.0" cy="241.5" r="3" fill="#1f77b4"/>
<circle cx="238.5" cy="226.9" r="3" fill="#1f77b4"/>
<circle cx="415.0" cy="322.9" r="3" fill="#1f77b4"/>
<circle cx="503.2" cy="321.2" r="3" fill="#1f77b4"/>
<circle cx="591.5" cy="314.5" r="3" fill="#1f77b4"/>
<circle cx="679.8" cy="344.9" r="3" fill="#1f77b4"/>
<circle cx="768.0" cy="313.2" r="3" fill="#1f77b4"/>
<line x1="782" y1="56" x2="802" y2="56" stroke="#1f77b4" stroke-width="3"/>
<text x="806" y="60" font-size="12">potrf</text>
<polyline points="62.0,72.6 238.5,204.8 415.0,245.0 503.2,271.2 591.5,254.2 679.8,254.8 768.0,255.9" fill="none" stroke="#d62728" stroke-width="2"/>
<circle cx="62.0" cy="72.6" r="3" fill="#d62728"/>
<circle cx="238.5" cy="204.8" r="3" fill="#d62728"/>
<circle cx="415.0" cy="245.0" r="3" fill="#d62728"/>
<circle cx="503.2" cy="271.2" r="3" fill="#d62728"/>
<circle cx="591.5" cy="254.2" r="3" fill="#d62728"/>
<circle cx="679.8" cy="254.8" r="3" fill="#d62728"/>
<circle cx="768.0" cy="255.9" r="3" fill="#d62728"/>
<line x1="782" y1="74" x2="802" y2="74" stroke="#d62728" stroke-width="3"/>
<text x="806" y="78" font-size="12">geqrf</text>
<polyline points="62.0,154.0 238.5,141.2 415.0,281.1 503.2,303.0 591.5,287.8 679.8,286.0 768.0,284.7" fill="none" stroke="#2ca02c" stroke-width="2"/>
<circle cx="62.0" cy="154.0" r="3" fill="#2ca02c"/>
<circle cx="238.5" cy="141.2" r="3" fill="#2ca02c"/>
<circle cx="415.0" cy="281.1" r="3" fill="#2ca02c"/>
<circle cx="503.2" cy="303.0" r="3" fill="#2ca02c"/>
<circle cx="591.5" cy="287.8" r="3" fill="#2ca02c"/>
<circle cx="679.8" cy="286.0" r="3" fill="#2ca02c"/>
<circle cx="768.0" cy="284.7" r="3" fill="#2ca02c"/>
<line x1="782" y1="92" x2="802" y2="92" stroke="#2ca02c" stroke-width="3"/>
<text x="806" y="96" font-size="12">getrf</text>
<polyline points="62.0,201.0 238.5,258.3 415.0,271.6 503.2,262.6 591.5,253.4 679.8,261.3 768.0,270.8" fill="none" stroke="#9467bd" stroke-width="2"/>
<circle cx="62.0" cy="201.0" r="3" fill="#9467bd"/>
<circle cx="238.5" cy="258.3" r="3" fill="#9467bd"/>
<circle cx="415.0" cy="271.6" r="3" fill="#9467bd"/>
<circle cx="503.2" cy="262.6" r="3" fill="#9467bd"/>
<circle cx="591.5" cy="253.4" r="3" fill="#9467bd"/>
<circle cx="679.8" cy="261.3" r="3" fill="#9467bd"/>
<circle cx="768.0" cy="270.8" r="3" fill="#9467bd"/>
<line x1="782" y1="110" x2="802" y2="110" stroke="#9467bd" stroke-width="3"/>
<text x="806" y="114" font-size="12">gesvd</text>
<text x="415.0" y="450" text-anchor="middle" font-size="11" fill="#666">matrix size n (log) · y = median ratio (log) · dashed = the 0.96× gate</text>
</svg>
