<svg xmlns="http://www.w3.org/2000/svg" width="900" height="440" font-family="sans-serif">
<rect width="900" height="440" fill="white"/>
<text x="450.0" y="28" text-anchor="middle" font-size="18" font-weight="bold">Complex BLAS-2: PureBLAS / OpenBLAS (AVX2, 1 thread, ComplexF64)</text>
<line x1="60" y1="358.0" x2="880" y2="358.0" stroke="#eee"/>
<text x="52" y="362.0" text-anchor="end" font-size="11" fill="#666">0×</text>
<line x1="60" y1="279.70574262799926" x2="880" y2="279.70574262799926" stroke="#eee"/>
<text x="52" y="283.70574262799926" text-anchor="end" font-size="11" fill="#666">0.5×</text>
<line x1="60" y1="201.41148525599843" x2="880" y2="201.41148525599843" stroke="#eee"/>
<text x="52" y="205.41148525599843" text-anchor="end" font-size="11" fill="#666">1×</text>
<line x1="60" y1="123.11722788399769" x2="880" y2="123.11722788399769" stroke="#eee"/>
<text x="52" y="127.11722788399769" text-anchor="end" font-size="11" fill="#666">1.5×</text>
<line x1="60" y1="201.41148525599843" x2="880" y2="201.41148525599843" stroke="#888" stroke-width="1"/>
<line x1="60" y1="207.6750258457585" x2="880" y2="207.6750258457585" stroke="#d33" stroke-width="1.5" stroke-dasharray="6 4"/>
<text x="880" y="202.6750258457585" text-anchor="end" font-size="11" fill="#d33">0.96× gate</text>
<polygon points="129.0,206.2 129.3,205.6 129.6,205.1 129.9,204.5 130.4,204.0 130.9,203.5 131.7,202.9 132.5,202.4 133.6,201.8 135.0,201.3 136.6,200.7 138.6,200.2 141.0,199.7 143.8,199.1 146.9,198.6 150.5,198.0 154.4,197.5 158.6,196.9 162.9,196.4 167.3,195.9 171.5,195.3 175.5,194.8 179.0,194.2 181.9,193.7 184.0,193.1 185.3,192.6 185.7,192.1 185.3,191.5 184.1,191.0 182.3,190.4 179.9,189.9 177.1,189.3 174.1,188.8 171.0,188.3 168.1,187.7 165.5,187.2 163.1,186.6 161.2,186.1 159.7,185.5 158.7,185.0 158.1,184.5 158.0,183.9 158.1,183.4 158.6,182.8 159.3,182.3 160.1,181.7 161.0,181.2 162.0,180.7 162.9,180.1 163.8,179.6 164.5,179.0 165.2,178.5 165.8,177.9 166.2,177.4 166.4,176.9 166.4,176.3 166.2,175.8 165.7,175.2 164.9,174.7 163.8,174.1 162.3,173.6 160.4,173.1 158.2,172.5 155.6,172.0 152.9,171.4 150.0,170.9 147.0,170.3 144.1,169.8 141.4,169.3 138.9,168.7 136.7,168.2 134.8,167.6 121.9,167.6 120.0,168.2 117.8,168.7 115.3,169.3 112.5,169.8 109.7,170.3 106.7,170.9 103.8,171.4 101.0,172.0 98.5,172.5 96.3,173.1 94.4,173.6 92.9,174.1 91.7,174.7 90.9,175.2 90.5,175.8 90.3,176.3 90.3,176.9 90.5,177.4 90.9,177.9 91.4,178.5 92.1,179.0 92.9,179.6 93.8,180.1 94.7,180.7 95.6,181.2 96.6,181.7 97.4,182.3 98.1,182.8 98.5,183.4 98.7,183.9 98.5,184.5 97.9,185.0 96.9,185.5 95.5,186.1 93.5,186.6 91.2,187.2 88.5,187.7 85.6,188.3 82.6,188.8 79.6,189.3 76.8,189.9 74.4,190.4 72.5,191.0 71.3,191.5 70.9,192.1 71.4,192.6 72.7,193.1 74.8,193.7 77.7,194.2 81.2,194.8 85.1,195.3 89.4,195.9 93.7,196.4 98.1,196.9 102.3,197.5 106.2,198.0 109.7,198.6 112.9,199.1 115.7,199.7 118.0,200.2 120.0,200.7 121.7,201.3 123.0,201.8 124.1,202.4 125.0,202.9 125.7,203.5 126.3,204.0 126.7,204.5 127.1,205.1 127.4,205.6 127.6,206.2" fill="#2a8" opacity="0.5" stroke="#2a8" stroke-width="1"/>
<line x1="88.8" y1="187.66859341866893" x2="167.9" y2="187.66859341866893" stroke="#114" stroke-width="2"/>
<circle cx="128.33333333333331" cy="193.75072929046445" r="2.4" fill="#114"/>
<text x="128.33333333333331" y="165.61456012434428" text-anchor="middle" font-size="11">1.09</text>
<text x="128.33333333333331" y="376" text-anchor="middle" font-size="12">zgemvN</text>
<polygon points="266.8,242.0 267.5,241.1 268.4,240.2 269.5,239.2 270.8,238.3 272.4,237.4 274.2,236.5 276.2,235.5 278.3,234.6 280.4,233.7 282.4,232.8 284.1,231.9 285.5,230.9 286.6,230.0 287.1,229.1 287.2,228.2 287.0,227.3 286.5,226.3 285.9,225.4 285.3,224.5 285.0,223.6 285.1,222.6 285.7,221.7 287.0,220.8 289.0,219.9 291.7,219.0 295.0,218.0 298.7,217.1 302.7,216.2 306.7,215.3 310.6,214.3 314.1,213.4 317.1,212.5 319.5,211.6 321.2,210.7 322.1,209.7 322.4,208.8 322.0,207.9 321.2,207.0 320.0,206.1 318.5,205.1 317.0,204.2 315.4,203.3 313.9,202.4 312.6,201.4 311.3,200.5 310.2,199.6 309.3,198.7 308.5,197.8 307.7,196.8 307.1,195.9 306.6,195.0 306.2,194.1 305.8,193.2 305.5,192.2 305.2,191.3 304.8,190.4 304.3,189.5 303.6,188.5 302.6,187.6 301.1,186.7 299.3,185.8 297.1,184.9 294.5,183.9 291.6,183.0 288.5,182.1 285.3,181.2 282.2,180.2 279.2,179.3 276.5,178.4 274.0,177.5 271.9,176.6 258.1,176.6 256.0,177.5 253.5,178.4 250.8,179.3 247.8,180.2 244.7,181.2 241.5,182.1 238.4,183.0 235.5,183.9 232.9,184.9 230.7,185.8 228.9,186.7 227.4,187.6 226.4,188.5 225.7,189.5 225.2,190.4 224.8,191.3 224.5,192.2 224.2,193.2 223.8,194.1 223.4,195.0 222.9,195.9 222.3,196.8 221.5,197.8 220.7,198.7 219.8,199.6 218.7,200.5 217.4,201.4 216.1,202.4 214.6,203.3 213.0,204.2 211.5,205.1 210.0,206.1 208.8,207.0 208.0,207.9 207.6,208.8 207.9,209.7 208.8,210.7 210.5,211.6 212.9,212.5 215.9,213.4 219.4,214.3 223.3,215.3 227.3,216.2 231.3,217.1 235.0,218.0 238.3,219.0 241.0,219.9 243.0,220.8 244.3,221.7 244.9,222.6 245.0,223.6 244.7,224.5 244.1,225.4 243.5,226.3 243.0,227.3 242.8,228.2 242.9,229.1 243.4,230.0 244.5,230.9 245.9,231.9 247.6,232.8 249.6,233.7 251.7,234.6 253.8,235.5 255.8,236.5 257.6,237.4 259.2,238.3 260.5,239.2 261.6,240.2 262.5,241.1 263.2,242.0" fill="#d33" opacity="0.5" stroke="#d33" stroke-width="1"/>
<line x1="209.7" y1="206.28666642315645" x2="320.3" y2="206.28666642315645" stroke="#114" stroke-width="2"/>
<circle cx="265.0" cy="229.01127274271084" r="2.4" fill="#114"/>
<text x="265.0" y="177.14814586456484" text-anchor="middle" font-size="11">0.97</text>
<text x="265.0" y="376" text-anchor="middle" font-size="12">zgemvC</text>
<polygon points="408.9,218.2 411.1,217.1 413.7,216.0 416.8,214.9 420.3,213.9 424.2,212.8 428.5,211.7 433.0,210.6 437.6,209.6 442.2,208.5 446.6,207.4 450.5,206.3 453.9,205.3 456.5,204.2 458.3,203.1 459.1,202.0 458.9,201.0 457.8,199.9 455.7,198.8 453.0,197.7 449.6,196.7 445.9,195.6 441.9,194.5 437.9,193.5 434.0,192.4 430.4,191.3 427.1,190.2 424.3,189.2 421.9,188.1 420.0,187.0 418.6,185.9 417.6,184.9 417.0,183.8 416.6,182.7 416.4,181.6 416.3,180.6 416.2,179.5 416.1,178.4 415.9,177.3 415.6,176.3 415.2,175.2 414.6,174.1 413.9,173.0 413.2,172.0 412.4,170.9 411.6,169.8 410.9,168.7 410.3,167.7 409.9,166.6 409.7,165.5 409.6,164.5 409.8,163.4 410.1,162.3 410.7,161.2 411.3,160.2 412.0,159.1 412.7,158.0 413.4,156.9 414.0,155.9 414.4,154.8 414.6,153.7 414.6,152.6 414.3,151.6 413.8,150.5 413.1,149.4 412.2,148.3 411.2,147.3 410.1,146.2 409.0,145.1 407.9,144.0 406.8,143.0 405.9,141.9 397.5,141.9 396.5,143.0 395.5,144.0 394.3,145.1 393.2,146.2 392.1,147.3 391.1,148.3 390.2,149.4 389.5,150.5 389.0,151.6 388.7,152.6 388.7,153.7 388.9,154.8 389.3,155.9 389.9,156.9 390.6,158.0 391.3,159.1 392.0,160.2 392.7,161.2 393.2,162.3 393.5,163.4 393.7,164.5 393.7,165.5 393.4,166.6 393.0,167.7 392.4,168.7 391.7,169.8 391.0,170.9 390.2,172.0 389.4,173.0 388.7,174.1 388.2,175.2 387.7,176.3 387.4,177.3 387.2,178.4 387.1,179.5 387.0,180.6 386.9,181.6 386.7,182.7 386.3,183.8 385.7,184.9 384.7,185.9 383.3,187.0 381.4,188.1 379.1,189.2 376.2,190.2 373.0,191.3 369.3,192.4 365.4,193.5 361.4,194.5 357.4,195.6 353.7,196.7 350.3,197.7 347.6,198.8 345.6,199.9 344.4,201.0 344.3,202.0 345.1,203.1 346.8,204.2 349.4,205.3 352.8,206.3 356.7,207.4 361.1,208.5 365.7,209.6 370.3,210.6 374.8,211.7 379.1,212.8 383.1,213.9 386.6,214.9 389.6,216.0 392.3,217.1 394.4,218.2" fill="#2a8" opacity="0.5" stroke="#2a8" stroke-width="1"/>
<line x1="345.4" y1="200.0326081360727" x2="457.9" y2="200.0326081360727" stroke="#114" stroke-width="2"/>
<circle cx="401.66666666666663" cy="205.453938219668" r="2.4" fill="#114"/>
<text x="401.66666666666663" y="143.5316305521311" text-anchor="middle" font-size="11">1.01</text>
<text x="401.66666666666663" y="376" text-anchor="middle" font-size="12">zgeru</text>
<polygon points="540.0,202.9 540.6,200.8 541.3,198.6 542.3,196.5 543.5,194.4 545.0,192.3 546.8,190.2 549.1,188.1 551.8,186.0 554.9,183.8 558.4,181.7 562.3,179.6 566.4,177.5 570.8,175.4 575.2,173.3 579.6,171.1 583.6,169.0 587.3,166.9 590.3,164.8 592.7,162.7 594.2,160.6 594.9,158.4 594.8,156.3 593.8,154.2 592.2,152.1 590.0,150.0 587.4,147.9 584.6,145.7 581.7,143.6 578.8,141.5 576.1,139.4 573.7,137.3 571.7,135.2 570.2,133.1 569.0,130.9 568.3,128.8 568.0,126.7 568.0,124.6 568.2,122.5 568.7,120.4 569.3,118.2 570.0,116.1 570.8,114.0 571.7,111.9 572.7,109.8 573.8,107.7 575.0,105.5 576.4,103.4 578.0,101.3 579.8,99.2 581.9,97.1 584.0,95.0 586.3,92.8 588.6,90.7 590.7,88.6 592.6,86.5 594.2,84.4 595.3,82.3 595.7,80.2 595.5,78.0 594.6,75.9 592.9,73.8 590.4,71.7 587.3,69.6 583.7,67.5 579.6,65.3 575.3,63.2 570.8,61.1 566.4,59.0 562.1,56.9 558.1,54.8 554.5,52.6 522.2,52.6 518.5,54.8 514.6,56.9 510.3,59.0 505.9,61.1 501.4,63.2 497.1,65.3 493.0,67.5 489.3,69.6 486.3,71.7 483.8,73.8 482.1,75.9 481.2,78.0 480.9,80.2 481.4,82.3 482.5,84.4 484.0,86.5 485.9,88.6 488.1,90.7 490.4,92.8 492.6,95.0 494.8,97.1 496.8,99.2 498.6,101.3 500.3,103.4 501.7,105.5 502.9,107.7 504.0,109.8 505.0,111.9 505.9,114.0 506.7,116.1 507.4,118.2 508.0,120.4 508.5,122.5 508.7,124.6 508.7,126.7 508.4,128.8 507.6,130.9 506.5,133.1 504.9,135.2 502.9,137.3 500.6,139.4 497.9,141.5 495.0,143.6 492.1,145.7 489.2,147.9 486.6,150.0 484.5,152.1 482.8,154.2 481.9,156.3 481.8,158.4 482.5,160.6 484.0,162.7 486.3,164.8 489.4,166.9 493.0,169.0 497.1,171.1 501.4,173.3 505.9,175.4 510.2,177.5 514.4,179.6 518.3,181.7 521.8,183.8 524.9,186.0 527.6,188.1 529.8,190.2 531.7,192.3 533.2,194.4 534.4,196.5 535.4,198.6 536.1,200.8 536.7,202.9" fill="#2a8" opacity="0.5" stroke="#2a8" stroke-width="1"/>
<line x1="506.1" y1="114.58421242174101" x2="570.6" y2="114.58421242174101" stroke="#114" stroke-width="2"/>
<circle cx="538.3333333333333" cy="163.44752045647215" r="2.4" fill="#114"/>
<text x="538.3333333333333" y="61.433962264150935" text-anchor="middle" font-size="11">1.55</text>
<text x="538.3333333333333" y="376" text-anchor="middle" font-size="12">zhemv</text>
<polygon points="676.9,228.7 677.5,226.3 678.4,223.8 679.5,221.4 680.9,219.0 682.7,216.6 684.8,214.1 687.3,211.7 690.3,209.3 693.7,206.9 697.6,204.4 701.9,202.0 706.5,199.6 711.2,197.2 716.0,194.7 720.5,192.3 724.6,189.9 728.1,187.5 730.6,185.0 732.1,182.6 732.4,180.2 731.5,177.8 729.4,175.3 726.2,172.9 722.2,170.5 717.6,168.0 712.7,165.6 707.7,163.2 702.9,160.8 698.6,158.3 694.9,155.9 691.9,153.5 689.6,151.1 688.0,148.6 687.0,146.2 686.6,143.8 686.6,141.4 686.8,138.9 687.2,136.5 687.5,134.1 687.8,131.7 687.9,129.2 687.9,126.8 687.6,124.4 687.1,122.0 686.4,119.5 685.7,117.1 685.0,114.7 684.3,112.3 683.7,109.8 683.4,107.4 683.2,105.0 683.2,102.6 683.5,100.1 683.9,97.7 684.4,95.3 685.0,92.9 685.6,90.4 686.1,88.0 686.5,85.6 686.7,83.2 686.7,80.7 686.4,78.3 686.0,75.9 685.3,73.4 684.5,71.0 683.5,68.6 682.5,66.2 681.4,63.7 680.4,61.3 679.4,58.9 678.5,56.5 671.5,56.5 670.6,58.9 669.6,61.3 668.6,63.7 667.5,66.2 666.5,68.6 665.5,71.0 664.7,73.4 664.0,75.9 663.6,78.3 663.3,80.7 663.3,83.2 663.5,85.6 663.9,88.0 664.4,90.4 665.0,92.9 665.6,95.3 666.1,97.7 666.5,100.1 666.8,102.6 666.8,105.0 666.6,107.4 666.3,109.8 665.7,112.3 665.0,114.7 664.3,117.1 663.6,119.5 662.9,122.0 662.4,124.4 662.1,126.8 662.1,129.2 662.2,131.7 662.5,134.1 662.8,136.5 663.2,138.9 663.4,141.4 663.4,143.8 663.0,146.2 662.0,148.6 660.4,151.1 658.1,153.5 655.1,155.9 651.4,158.3 647.1,160.8 642.3,163.2 637.3,165.6 632.4,168.0 627.8,170.5 623.8,172.9 620.6,175.3 618.5,177.8 617.6,180.2 617.9,182.6 619.4,185.0 621.9,187.5 625.4,189.9 629.5,192.3 634.0,194.7 638.8,197.2 643.5,199.6 648.1,202.0 652.4,204.4 656.3,206.9 659.7,209.3 662.7,211.7 665.2,214.1 667.3,216.6 669.1,219.0 670.5,221.4 671.6,223.8 672.5,226.3 673.1,228.7" fill="#2a8" opacity="0.5" stroke="#2a8" stroke-width="1"/>
<line x1="618.6" y1="177.60312026874897" x2="731.4" y2="177.60312026874897" stroke="#114" stroke-width="2"/>
<circle cx="675.0" cy="194.3466406178452" r="2.4" fill="#114"/>
<text x="675.0" y="67.38710244008425" text-anchor="middle" font-size="11">1.15</text>
<text x="675.0" y="376" text-anchor="middle" font-size="12">ztrmv</text>
<polygon points="812.4,227.1 812.7,225.3 813.1,223.5 813.5,221.8 814.0,220.0 814.6,218.3 815.4,216.5 816.3,214.8 817.4,213.0 818.7,211.2 820.1,209.5 821.9,207.7 823.9,206.0 826.3,204.2 829.0,202.4 832.1,200.7 835.6,198.9 839.4,197.2 843.6,195.4 848.0,193.7 852.5,191.9 856.9,190.1 860.9,188.4 864.4,186.6 867.1,184.9 868.7,183.1 869.1,181.4 868.2,179.6 866.1,177.8 862.8,176.1 858.7,174.3 854.0,172.6 849.0,170.8 844.0,169.1 839.4,167.3 835.4,165.5 832.1,163.8 829.6,162.0 827.9,160.3 826.9,158.5 826.4,156.8 826.2,155.0 826.3,153.2 826.4,151.5 826.3,149.7 826.1,148.0 825.6,146.2 824.9,144.5 824.0,142.7 823.0,140.9 822.1,139.2 821.2,137.4 820.7,135.7 820.4,133.9 820.4,132.2 820.7,130.4 821.3,128.6 822.2,126.9 823.1,125.1 824.0,123.4 824.8,121.6 825.3,119.9 825.5,118.1 825.4,116.3 824.8,114.6 824.0,112.8 822.9,111.1 821.6,109.3 820.2,107.5 818.7,105.8 817.4,104.0 816.1,102.3 807.2,102.3 806.0,104.0 804.6,105.8 803.2,107.5 801.8,109.3 800.5,111.1 799.3,112.8 798.5,114.6 798.0,116.3 797.8,118.1 798.0,119.9 798.6,121.6 799.3,123.4 800.3,125.1 801.2,126.9 802.0,128.6 802.6,130.4 803.0,132.2 803.0,133.9 802.7,135.7 802.1,137.4 801.3,139.2 800.3,140.9 799.3,142.7 798.4,144.5 797.7,146.2 797.2,148.0 797.0,149.7 796.9,151.5 797.0,153.2 797.1,155.0 797.0,156.8 796.5,158.5 795.5,160.3 793.7,162.0 791.2,163.8 788.0,165.5 783.9,167.3 779.3,169.1 774.4,170.8 769.4,172.6 764.6,174.3 760.5,176.1 757.3,177.8 755.1,179.6 754.3,181.4 754.7,183.1 756.3,184.9 758.9,186.6 762.4,188.4 766.5,190.1 770.9,191.9 775.3,193.7 779.7,195.4 783.9,197.2 787.8,198.9 791.2,200.7 794.3,202.4 797.0,204.2 799.4,206.0 801.4,207.7 803.2,209.5 804.7,211.2 806.0,213.0 807.0,214.8 807.9,216.5 808.7,218.3 809.3,220.0 809.8,221.8 810.3,223.5 810.6,225.3 810.9,227.1" fill="#2a8" opacity="0.5" stroke="#2a8" stroke-width="1"/>
<line x1="756.0" y1="178.78126162740696" x2="867.4" y2="178.78126162740696" stroke="#114" stroke-width="2"/>
<circle cx="811.6666666666666" cy="195.46131106521233" r="2.4" fill="#114"/>
<text x="811.6666666666666" y="108.60353588549494" text-anchor="middle" font-size="11">1.14</text>
<text x="811.6666666666666" y="376" text-anchor="middle" font-size="12">ztrsv</text>
<text x="450.0" y="428" text-anchor="middle" font-size="11" fill="#666">violin = ratio distribution over sizes · line = median · dark dot = worst size · green = every size ≥ gate</text>
</svg>
