<svg xmlns="http://www.w3.org/2000/svg" width="900" height="440" font-family="sans-serif">
<rect width="900" height="440" fill="white"/>
<text x="450.0" y="28" text-anchor="middle" font-size="18" font-weight="bold">BLAS-2: PureBLAS / OpenBLAS (AVX-512 native (Zen5), 1 thread, Float64)</text>
<line x1="60" y1="358.0" x2="880" y2="358.0" stroke="#eee"/>
<text x="52" y="362.0" text-anchor="end" font-size="11" fill="#666">0×</text>
<line x1="60" y1="284.97233492581927" x2="880" y2="284.97233492581927" stroke="#eee"/>
<text x="52" y="288.97233492581927" text-anchor="end" font-size="11" fill="#666">0.5×</text>
<line x1="60" y1="211.94466985163862" x2="880" y2="211.94466985163862" stroke="#eee"/>
<text x="52" y="215.94466985163862" text-anchor="end" font-size="11" fill="#666">1×</text>
<line x1="60" y1="138.91700477745795" x2="880" y2="138.91700477745795" stroke="#eee"/>
<text x="52" y="142.91700477745795" text-anchor="end" font-size="11" fill="#666">1.5×</text>
<line x1="60" y1="211.94466985163862" x2="880" y2="211.94466985163862" stroke="#888" stroke-width="1"/>
<line x1="60" y1="217.78688305757308" x2="880" y2="217.78688305757308" stroke="#d33" stroke-width="1.5" stroke-dasharray="6 4"/>
<text x="880" y="212.78688305757308" text-anchor="end" font-size="11" fill="#d33">0.96× gate</text>
<polygon points="108.7,256.0 110.2,253.1 112.2,250.2 114.6,247.3 117.4,244.4 120.6,241.5 124.1,238.6 127.7,235.7 131.2,232.8 134.6,229.9 137.6,227.0 140.2,224.1 142.2,221.2 143.4,218.3 143.8,215.4 143.3,212.5 141.7,209.6 139.3,206.7 136.0,203.8 132.1,200.9 128.0,198.0 123.8,195.1 119.8,192.2 116.3,189.3 113.3,186.4 111.0,183.5 109.2,180.6 107.9,177.7 107.0,174.8 106.4,171.9 106.1,169.0 105.9,166.1 105.8,163.2 105.8,160.3 105.9,157.4 106.1,154.5 106.4,151.6 106.7,148.7 107.1,145.8 107.6,142.9 108.1,140.0 108.5,137.1 109.0,134.2 109.3,131.3 109.5,128.3 109.6,125.4 109.5,122.5 109.4,119.6 109.2,116.7 109.0,113.8 108.9,110.9 108.9,108.0 109.0,105.1 109.1,102.2 109.2,99.3 109.4,96.4 109.5,93.5 109.5,90.6 109.4,87.7 109.2,84.8 108.9,81.9 108.5,79.0 108.1,76.1 107.7,73.2 107.3,70.3 107.0,67.4 106.7,64.5 106.4,61.6 106.2,58.7 106.0,55.8 105.9,52.9 105.8,50.0 105.3,50.0 105.2,52.9 105.1,55.8 104.9,58.7 104.7,61.6 104.4,64.5 104.1,67.4 103.8,70.3 103.4,73.2 103.0,76.1 102.6,79.0 102.2,81.9 101.9,84.8 101.7,87.7 101.6,90.6 101.6,93.5 101.7,96.4 101.9,99.3 102.0,102.2 102.2,105.1 102.2,108.0 102.2,110.9 102.1,113.8 101.9,116.7 101.7,119.6 101.6,122.5 101.6,125.4 101.6,128.3 101.8,131.3 102.2,134.2 102.6,137.1 103.0,140.0 103.5,142.9 104.0,145.8 104.4,148.7 104.7,151.6 105.0,154.5 105.2,157.4 105.3,160.3 105.3,163.2 105.2,166.1 105.0,169.0 104.7,171.9 104.1,174.8 103.2,177.7 101.9,180.6 100.1,183.5 97.8,186.4 94.8,189.3 91.3,192.2 87.3,195.1 83.1,198.0 79.0,200.9 75.1,203.8 71.8,206.7 69.4,209.6 67.8,212.5 67.3,215.4 67.7,218.3 68.9,221.2 70.9,224.1 73.5,227.0 76.6,229.9 79.9,232.8 83.5,235.7 87.0,238.6 90.5,241.5 93.7,244.4 96.5,247.3 98.9,250.2 100.9,253.1 102.4,256.0" fill="#d33" opacity="0.5" stroke="#d33" stroke-width="1"/>
<line x1="67.6" y1="213.2331679659607" x2="143.5" y2="213.2331679659607" stroke="#114" stroke-width="2"/>
<circle cx="105.55555555555556" cy="232.49625413143784" r="2.4" fill="#114"/>
<text x="105.55555555555556" y="61.433962264150935" text-anchor="middle" font-size="11">0.99</text>
<text x="105.55555555555556" y="376" text-anchor="middle" font-size="12">gemvN</text>
<polygon points="197.0,214.7 197.2,214.2 197.5,213.6 197.9,213.1 198.5,212.5 199.3,212.0 200.5,211.4 201.9,210.9 203.8,210.3 206.1,209.8 208.9,209.3 212.0,208.7 215.4,208.2 219.0,207.6 222.6,207.1 226.0,206.5 229.0,206.0 231.5,205.4 233.4,204.9 234.5,204.4 234.9,203.8 234.7,203.3 233.9,202.7 232.7,202.2 231.2,201.6 229.5,201.1 227.6,200.5 225.7,200.0 223.7,199.5 221.6,198.9 219.5,198.4 217.3,197.8 215.1,197.3 212.9,196.7 210.8,196.2 208.8,195.6 207.0,195.1 205.6,194.6 204.4,194.0 203.7,193.5 203.3,192.9 203.4,192.4 203.8,191.8 204.6,191.3 205.7,190.7 207.0,190.2 208.5,189.7 209.9,189.1 211.3,188.6 212.4,188.0 213.3,187.5 213.9,186.9 214.2,186.4 214.3,185.9 214.1,185.3 213.8,184.8 213.4,184.2 213.1,183.7 212.7,183.1 212.3,182.6 211.9,182.0 211.4,181.5 210.8,181.0 210.0,180.4 209.0,179.9 207.8,179.3 206.5,178.8 205.1,178.2 203.7,177.7 202.4,177.1 201.2,176.6 200.1,176.1 193.2,176.1 192.1,176.6 190.9,177.1 189.6,177.7 188.2,178.2 186.8,178.8 185.5,179.3 184.3,179.9 183.3,180.4 182.5,181.0 181.9,181.5 181.4,182.0 181.0,182.6 180.6,183.1 180.3,183.7 179.9,184.2 179.5,184.8 179.3,185.3 179.1,185.9 179.1,186.4 179.4,186.9 180.0,187.5 180.9,188.0 182.0,188.6 183.4,189.1 184.8,189.7 186.3,190.2 187.6,190.7 188.7,191.3 189.5,191.8 190.0,192.4 190.0,192.9 189.7,193.5 188.9,194.0 187.8,194.6 186.3,195.1 184.5,195.6 182.6,196.2 180.5,196.7 178.3,197.3 176.0,197.8 173.9,198.4 171.7,198.9 169.7,199.5 167.7,200.0 165.7,200.5 163.9,201.1 162.1,201.6 160.6,202.2 159.4,202.7 158.6,203.3 158.4,203.8 158.8,204.4 160.0,204.9 161.8,205.4 164.3,206.0 167.3,206.5 170.8,207.1 174.4,207.6 177.9,208.2 181.4,208.7 184.5,209.3 187.2,209.8 189.5,210.3 191.4,210.9 192.9,211.4 194.0,212.0 194.8,212.5 195.4,213.1 195.8,213.6 196.1,214.2 196.3,214.7" fill="#2a8" opacity="0.5" stroke="#2a8" stroke-width="1"/>
<line x1="169.4" y1="199.52484701071091" x2="223.9" y2="199.52484701071091" stroke="#114" stroke-width="2"/>
<circle cx="196.66666666666669" cy="206.10810666725055" r="2.4" fill="#114"/>
<text x="196.66666666666669" y="174.03010401807393" text-anchor="middle" font-size="11">1.09</text>
<text x="196.66666666666669" y="376" text-anchor="middle" font-size="12">gemvT</text>
<polygon points="288.1,260.0 288.4,258.3 288.9,256.5 289.6,254.8 290.8,253.0 292.4,251.3 294.3,249.5 296.7,247.8 299.2,246.0 301.5,244.3 303.4,242.6 304.6,240.8 304.8,239.1 304.1,237.3 302.7,235.6 300.7,233.8 298.5,232.1 296.4,230.4 294.6,228.6 293.3,226.9 292.8,225.1 293.3,223.4 295.0,221.6 298.0,219.9 302.3,218.1 307.7,216.4 313.6,214.7 319.2,212.9 323.6,211.2 326.0,209.4 326.0,207.7 323.6,205.9 319.3,204.2 313.8,202.4 308.1,200.7 302.8,199.0 298.6,197.2 295.5,195.5 293.6,193.7 292.6,192.0 292.3,190.2 292.4,188.5 292.7,186.8 293.0,185.0 293.3,183.3 293.4,181.5 293.4,179.8 293.4,178.0 293.3,176.3 293.1,174.5 292.7,172.8 292.2,171.1 291.6,169.3 290.8,167.6 290.1,165.8 289.4,164.1 288.9,162.3 288.5,160.6 288.2,158.8 288.1,157.1 288.0,155.4 288.0,153.6 288.0,151.9 288.0,150.1 288.0,148.4 288.0,146.6 288.0,144.9 287.9,143.1 287.9,141.4 287.9,139.7 287.8,137.9 287.8,136.2 287.7,136.2 287.7,137.9 287.7,139.7 287.7,141.4 287.6,143.1 287.6,144.9 287.6,146.6 287.6,148.4 287.6,150.1 287.6,151.9 287.6,153.6 287.6,155.4 287.5,157.1 287.3,158.8 287.1,160.6 286.7,162.3 286.1,164.1 285.5,165.8 284.7,167.6 284.0,169.3 283.3,171.1 282.8,172.8 282.5,174.5 282.3,176.3 282.2,178.0 282.1,179.8 282.2,181.5 282.3,183.3 282.5,185.0 282.8,186.8 283.1,188.5 283.3,190.2 283.0,192.0 282.0,193.7 280.1,195.5 277.0,197.2 272.7,199.0 267.5,200.7 261.7,202.4 256.3,204.2 251.9,205.9 249.5,207.7 249.5,209.4 251.9,211.2 256.3,212.9 261.9,214.7 267.8,216.4 273.2,218.1 277.6,219.9 280.6,221.6 282.3,223.4 282.8,225.1 282.3,226.9 281.0,228.6 279.2,230.4 277.1,232.1 274.9,233.8 272.9,235.6 271.4,237.3 270.7,239.1 271.0,240.8 272.1,242.6 274.0,244.3 276.4,246.0 278.9,247.8 281.2,249.5 283.2,251.3 284.8,253.0 285.9,254.8 286.7,256.5 287.2,258.3 287.5,260.0" fill="#d33" opacity="0.5" stroke="#d33" stroke-width="1"/>
<line x1="249.7" y1="209.69662325559077" x2="325.8" y2="209.69662325559077" stroke="#114" stroke-width="2"/>
<circle cx="287.77777777777777" cy="242.19595940690965" r="2.4" fill="#114"/>
<text x="287.77777777777777" y="142.39253663323052" text-anchor="middle" font-size="11">1.02</text>
<text x="287.77777777777777" y="376" text-anchor="middle" font-size="12">ger</text>
<polygon points="379.4,225.3 379.6,224.3 380.0,223.3 380.3,222.4 380.8,221.4 381.3,220.4 381.8,219.4 382.2,218.4 382.7,217.4 383.0,216.4 383.3,215.4 383.6,214.4 383.9,213.4 384.3,212.4 385.0,211.4 386.0,210.4 387.6,209.4 389.6,208.4 392.1,207.4 394.9,206.4 397.7,205.4 400.3,204.4 402.4,203.4 403.5,202.4 403.7,201.4 403.0,200.4 401.6,199.4 399.8,198.4 398.1,197.4 396.9,196.4 396.5,195.4 397.0,194.4 398.4,193.4 400.7,192.4 403.5,191.4 406.6,190.4 409.7,189.4 412.6,188.4 414.9,187.5 416.5,186.5 417.2,185.5 417.0,184.5 416.0,183.5 414.4,182.5 412.4,181.5 410.1,180.5 407.6,179.5 405.1,178.5 402.6,177.5 400.1,176.5 397.8,175.5 395.6,174.5 393.9,173.5 392.7,172.5 392.0,171.5 391.9,170.5 392.2,169.5 392.8,168.5 393.4,167.5 393.7,166.5 393.5,165.5 392.8,164.5 391.6,163.5 390.0,162.5 388.2,161.5 386.3,160.5 384.5,159.5 383.0,158.5 381.7,157.5 380.8,156.5 380.1,155.5 379.6,154.5 378.2,154.5 377.7,155.5 377.0,156.5 376.0,157.5 374.8,158.5 373.2,159.5 371.5,160.5 369.6,161.5 367.7,162.5 366.1,163.5 364.9,164.5 364.2,165.5 364.1,166.5 364.4,167.5 364.9,168.5 365.5,169.5 365.9,170.5 365.8,171.5 365.1,172.5 363.9,173.5 362.1,174.5 360.0,175.5 357.7,176.5 355.2,177.5 352.7,178.5 350.2,179.5 347.7,180.5 345.4,181.5 343.4,182.5 341.8,183.5 340.8,184.5 340.6,185.5 341.3,186.5 342.9,187.5 345.2,188.4 348.1,189.4 351.2,190.4 354.3,191.4 357.1,192.4 359.3,193.4 360.8,194.4 361.3,195.4 360.8,196.4 359.7,197.4 358.0,198.4 356.2,199.4 354.8,200.4 354.0,201.4 354.2,202.4 355.4,203.4 357.4,204.4 360.0,205.4 362.9,206.4 365.7,207.4 368.2,208.4 370.2,209.4 371.7,210.4 372.8,211.4 373.5,212.4 373.9,213.4 374.2,214.4 374.5,215.4 374.8,216.4 375.1,217.4 375.5,218.4 376.0,219.4 376.5,220.4 377.0,221.4 377.4,222.4 377.8,223.3 378.1,224.3 378.4,225.3" fill="#2a8" opacity="0.5" stroke="#2a8" stroke-width="1"/>
<line x1="340.9" y1="186.0449301975297" x2="416.8" y2="186.0449301975297" stroke="#114" stroke-width="2"/>
<circle cx="378.8888888888889" cy="201.94048226760765" r="2.4" fill="#114"/>
<text x="378.8888888888889" y="155.63381419668877" text-anchor="middle" font-size="11">1.18</text>
<text x="378.8888888888889" y="376" text-anchor="middle" font-size="12">symv</text>
<polygon points="473.1,235.5 474.6,234.1 476.6,232.7 479.0,231.2 481.9,229.8 485.2,228.4 488.8,226.9 492.6,225.5 496.2,224.0 499.5,222.6 502.4,221.2 504.7,219.7 506.4,218.3 507.6,216.9 508.1,215.4 508.3,214.0 508.0,212.6 507.4,211.1 506.6,209.7 505.4,208.3 503.9,206.8 502.3,205.4 500.5,204.0 498.8,202.5 497.2,201.1 495.9,199.7 495.1,198.2 494.7,196.8 494.6,195.4 494.8,193.9 495.0,192.5 495.0,191.1 494.7,189.6 493.8,188.2 492.4,186.8 490.5,185.3 488.2,183.9 485.8,182.5 483.3,181.0 480.9,179.6 478.9,178.2 477.2,176.7 475.8,175.3 474.9,173.9 474.3,172.4 473.9,171.0 473.8,169.6 473.7,168.1 473.8,166.7 474.0,165.3 474.3,163.8 474.6,162.4 475.1,161.0 475.7,159.5 476.5,158.1 477.2,156.7 478.0,155.2 478.8,153.8 479.3,152.4 479.7,150.9 479.8,149.5 479.7,148.1 479.2,146.6 478.5,145.2 477.6,143.8 476.7,142.3 475.6,140.9 474.6,139.4 473.7,138.0 472.8,136.6 472.1,135.1 471.5,133.7 468.5,133.7 467.9,135.1 467.2,136.6 466.3,138.0 465.4,139.4 464.4,140.9 463.3,142.3 462.4,143.8 461.5,145.2 460.8,146.6 460.3,148.1 460.2,149.5 460.3,150.9 460.7,152.4 461.2,153.8 462.0,155.2 462.8,156.7 463.5,158.1 464.3,159.5 464.9,161.0 465.4,162.4 465.7,163.8 466.0,165.3 466.2,166.7 466.3,168.1 466.2,169.6 466.1,171.0 465.7,172.4 465.1,173.9 464.2,175.3 462.8,176.7 461.1,178.2 459.1,179.6 456.7,181.0 454.2,182.5 451.8,183.9 449.5,185.3 447.6,186.8 446.2,188.2 445.3,189.6 445.0,191.1 445.0,192.5 445.2,193.9 445.4,195.4 445.3,196.8 444.9,198.2 444.1,199.7 442.8,201.1 441.2,202.5 439.5,204.0 437.7,205.4 436.1,206.8 434.6,208.3 433.4,209.7 432.6,211.1 432.0,212.6 431.7,214.0 431.9,215.4 432.4,216.9 433.6,218.3 435.3,219.7 437.6,221.2 440.5,222.6 443.8,224.0 447.4,225.5 451.2,226.9 454.8,228.4 458.1,229.8 461.0,231.2 463.4,232.7 465.4,234.1 466.9,235.5" fill="#d33" opacity="0.5" stroke="#d33" stroke-width="1"/>
<line x1="436.9" y1="206.08769436001646" x2="503.1" y2="206.08769436001646" stroke="#114" stroke-width="2"/>
<circle cx="470.0" cy="220.1809477089156" r="2.4" fill="#114"/>
<text x="470.0" y="137.80145801795675" text-anchor="middle" font-size="11">1.04</text>
<text x="470.0" y="376" text-anchor="middle" font-size="12">trmv</text>
<polygon points="564.1,233.8 565.4,232.9 567.1,232.0 569.2,231.1 571.8,230.2 574.8,229.3 578.1,228.3 581.8,227.4 585.4,226.5 589.0,225.6 592.3,224.7 595.1,223.8 597.2,222.9 598.6,222.0 599.3,221.1 599.4,220.2 599.0,219.2 598.4,218.3 597.7,217.4 597.2,216.5 596.8,215.6 596.6,214.7 596.5,213.8 596.5,212.9 596.3,212.0 595.9,211.0 595.0,210.1 593.6,209.2 591.7,208.3 589.5,207.4 587.0,206.5 584.5,205.6 582.3,204.7 580.4,203.8 579.2,202.8 578.7,201.9 578.9,201.0 579.9,200.1 581.4,199.2 583.4,198.3 585.7,197.4 587.9,196.5 590.0,195.6 591.6,194.6 592.7,193.7 593.1,192.8 593.0,191.9 592.2,191.0 591.0,190.1 589.6,189.2 587.9,188.3 586.3,187.4 584.8,186.5 583.6,185.5 582.6,184.6 581.8,183.7 581.1,182.8 580.6,181.9 580.0,181.0 579.2,180.1 578.3,179.2 577.2,178.3 575.9,177.3 574.4,176.4 572.8,175.5 571.2,174.6 569.6,173.7 568.1,172.8 566.7,171.9 565.4,171.0 564.4,170.1 563.5,169.1 558.7,169.1 557.8,170.1 556.8,171.0 555.5,171.9 554.2,172.8 552.6,173.7 551.0,174.6 549.4,175.5 547.8,176.4 546.3,177.3 545.0,178.3 543.9,179.2 543.0,180.1 542.3,181.0 541.7,181.9 541.1,182.8 540.4,183.7 539.7,184.6 538.6,185.5 537.4,186.5 535.9,187.4 534.3,188.3 532.7,189.2 531.2,190.1 530.0,191.0 529.3,191.9 529.1,192.8 529.6,193.7 530.6,194.6 532.3,195.6 534.3,196.5 536.5,197.4 538.8,198.3 540.8,199.2 542.4,200.1 543.3,201.0 543.5,201.9 543.0,202.8 541.8,203.8 540.0,204.7 537.7,205.6 535.2,206.5 532.8,207.4 530.5,208.3 528.7,209.2 527.3,210.1 526.4,211.0 525.9,212.0 525.7,212.9 525.7,213.8 525.6,214.7 525.4,215.6 525.1,216.5 524.5,217.4 523.8,218.3 523.2,219.2 522.8,220.2 522.9,221.1 523.6,222.0 525.0,222.9 527.2,223.8 529.9,224.7 533.2,225.6 536.8,226.5 540.5,227.4 544.1,228.3 547.5,229.3 550.5,230.2 553.0,231.1 555.2,232.0 556.8,232.9 558.1,233.8" fill="#d33" opacity="0.5" stroke="#d33" stroke-width="1"/>
<line x1="529.2" y1="208.94922223121748" x2="593.1" y2="208.94922223121748" stroke="#114" stroke-width="2"/>
<circle cx="561.1111111111111" cy="222.50754270291384" r="2.4" fill="#114"/>
<text x="561.1111111111111" y="169.64065371978836" text-anchor="middle" font-size="11">1.02</text>
<text x="561.1111111111111" y="376" text-anchor="middle" font-size="12">trsv</text>
<polygon points="655.7,221.9 657.1,219.7 658.7,217.5 660.4,215.3 662.0,213.0 663.5,210.8 664.5,208.6 665.0,206.4 665.0,204.1 664.3,201.9 663.1,199.7 661.6,197.5 659.9,195.2 658.3,193.0 656.8,190.8 655.6,188.6 654.7,186.3 654.2,184.1 654.1,181.9 654.5,179.7 655.3,177.4 656.7,175.2 658.7,173.0 661.3,170.7 664.4,168.5 668.0,166.3 672.0,164.1 675.9,161.8 679.7,159.6 683.1,157.4 685.8,155.2 687.9,152.9 689.2,150.7 690.0,148.5 690.4,146.3 690.5,144.0 690.4,141.8 690.0,139.6 689.4,137.4 688.3,135.1 686.6,132.9 684.2,130.7 681.3,128.4 677.9,126.2 674.2,124.0 670.6,121.8 667.4,119.5 664.9,117.3 663.1,115.1 662.2,112.9 662.1,110.6 662.6,108.4 663.4,106.2 664.3,104.0 665.0,101.7 665.4,99.5 665.2,97.3 664.6,95.1 663.4,92.8 662.0,90.6 660.3,88.4 658.7,86.2 657.1,83.9 655.8,81.7 654.8,79.5 654.0,77.2 653.4,75.0 653.0,72.8 652.7,70.6 652.5,68.3 652.4,66.1 652.3,63.9 652.1,63.9 652.0,66.1 651.9,68.3 651.7,70.6 651.5,72.8 651.0,75.0 650.5,77.2 649.7,79.5 648.6,81.7 647.3,83.9 645.8,86.2 644.1,88.4 642.5,90.6 641.0,92.8 639.9,95.1 639.2,97.3 639.1,99.5 639.4,101.7 640.1,104.0 641.1,106.2 641.9,108.4 642.3,110.6 642.2,112.9 641.3,115.1 639.6,117.3 637.0,119.5 633.8,121.8 630.2,124.0 626.6,126.2 623.2,128.4 620.2,130.7 617.9,132.9 616.2,135.1 615.1,137.4 614.4,139.6 614.1,141.8 614.0,144.0 614.0,146.3 614.4,148.5 615.2,150.7 616.6,152.9 618.6,155.2 621.4,157.4 624.7,159.6 628.5,161.8 632.5,164.1 636.4,166.3 640.0,168.5 643.2,170.7 645.7,173.0 647.7,175.2 649.1,177.4 649.9,179.7 650.3,181.9 650.2,184.1 649.7,186.3 648.9,188.6 647.7,190.8 646.2,193.0 644.5,195.2 642.8,197.5 641.3,199.7 640.2,201.9 639.5,204.1 639.4,206.4 639.9,208.6 641.0,210.8 642.4,213.0 644.1,215.3 645.8,217.5 647.4,219.7 648.7,221.9" fill="#2a8" opacity="0.5" stroke="#2a8" stroke-width="1"/>
<line x1="614.0" y1="143.30771110236637" x2="690.5" y2="143.30771110236637" stroke="#114" stroke-width="2"/>
<circle cx="652.2222222222223" cy="205.79463018816895" r="2.4" fill="#114"/>
<text x="652.2222222222223" y="73.42175674204948" text-anchor="middle" font-size="11">1.47</text>
<text x="652.2222222222223" y="376" text-anchor="middle" font-size="12">spmv</text>
<polygon points="743.3,189.7 743.4,188.6 743.5,187.6 744.0,186.6 745.1,185.6 747.5,184.6 751.6,183.5 757.6,182.5 765.0,181.5 772.6,180.5 778.6,179.5 781.6,178.4 780.5,177.4 775.5,176.4 768.1,175.4 760.7,174.4 755.1,173.4 751.8,172.3 750.4,171.3 749.9,170.3 749.8,169.3 750.2,168.3 750.9,167.2 751.6,166.2 751.6,165.2 750.6,164.2 748.9,163.2 747.1,162.1 745.8,161.1 745.0,160.1 744.7,159.1 744.6,158.1 744.7,157.0 744.8,156.0 744.8,155.0 744.7,154.0 744.5,153.0 744.1,151.9 743.8,150.9 743.5,149.9 743.4,148.9 743.4,147.9 743.3,146.8 743.3,145.8 743.3,144.8 743.3,143.8 743.3,142.8 743.3,141.7 743.3,140.7 743.3,139.7 743.3,138.7 743.3,137.7 743.3,136.6 743.3,135.6 743.3,134.6 743.3,133.6 743.3,132.6 743.3,131.5 743.3,130.5 743.3,129.5 743.4,128.5 743.4,127.5 743.5,126.5 743.5,125.4 743.5,124.4 743.5,123.4 743.5,122.4 743.4,121.4 743.4,120.3 743.3,119.3 743.3,118.3 743.3,117.3 743.3,117.3 743.3,118.3 743.3,119.3 743.3,120.3 743.3,121.4 743.2,122.4 743.2,123.4 743.1,124.4 743.1,125.4 743.2,126.5 743.3,127.5 743.3,128.5 743.3,129.5 743.3,130.5 743.3,131.5 743.3,132.6 743.3,133.6 743.3,134.6 743.3,135.6 743.3,136.6 743.3,137.7 743.3,138.7 743.3,139.7 743.3,140.7 743.3,141.7 743.3,142.8 743.3,143.8 743.3,144.8 743.3,145.8 743.3,146.8 743.3,147.9 743.3,148.9 743.1,149.9 742.9,150.9 742.6,151.9 742.2,153.0 741.9,154.0 741.8,155.0 741.9,156.0 742.0,157.0 742.0,158.1 742.0,159.1 741.7,160.1 740.9,161.1 739.5,162.1 737.8,163.2 736.1,164.2 735.1,165.2 735.0,166.2 735.7,167.2 736.5,168.3 736.9,169.3 736.8,170.3 736.3,171.3 734.8,172.3 731.6,173.4 725.9,174.4 718.5,175.4 711.2,176.4 706.2,177.4 705.1,178.4 708.0,179.5 714.1,180.5 721.6,181.5 729.0,182.5 735.1,183.5 739.2,184.6 741.6,185.6 742.7,186.6 743.1,187.6 743.3,188.6 743.3,189.7" fill="#2a8" opacity="0.5" stroke="#2a8" stroke-width="1"/>
<line x1="706.5" y1="177.3307645932319" x2="780.2" y2="177.3307645932319" stroke="#114" stroke-width="2"/>
<circle cx="743.3333333333334" cy="180.4483206187521" r="2.4" fill="#114"/>
<text x="743.3333333333334" y="118.51628490936632" text-anchor="middle" font-size="11">1.24</text>
<text x="743.3333333333334" y="376" text-anchor="middle" font-size="12">gbmvN</text>
<polygon points="834.6,202.7 834.7,201.9 834.8,201.1 834.9,200.3 835.1,199.5 835.3,198.8 835.6,198.0 835.8,197.2 836.1,196.4 836.4,195.6 836.8,194.9 837.2,194.1 837.9,193.3 838.8,192.5 840.1,191.7 841.8,191.0 844.2,190.2 847.2,189.4 850.8,188.6 854.8,187.8 859.1,187.1 863.4,186.3 867.1,185.5 870.1,184.7 872.0,183.9 872.7,183.1 872.1,182.4 870.3,181.6 867.6,180.8 864.3,180.0 860.8,179.2 857.2,178.5 853.9,177.7 851.0,176.9 848.6,176.1 846.8,175.3 845.5,174.6 844.7,173.8 844.2,173.0 843.9,172.2 843.6,171.4 843.3,170.7 842.7,169.9 842.0,169.1 841.1,168.3 840.0,167.5 839.0,166.8 838.0,166.0 837.2,165.2 836.5,164.4 836.2,163.6 836.1,162.9 836.3,162.1 836.7,161.3 837.4,160.5 838.4,159.7 839.5,159.0 840.7,158.2 841.9,157.4 842.9,156.6 843.5,155.8 843.8,155.0 843.6,154.3 843.0,153.5 842.0,152.7 840.9,151.9 839.6,151.1 838.4,150.4 837.4,149.6 836.5,148.8 835.8,148.0 835.3,147.2 833.6,147.2 833.1,148.0 832.4,148.8 831.5,149.6 830.5,150.4 829.3,151.1 828.0,151.9 826.9,152.7 825.9,153.5 825.3,154.3 825.1,155.0 825.4,155.8 826.0,156.6 827.0,157.4 828.1,158.2 829.3,159.0 830.5,159.7 831.4,160.5 832.2,161.3 832.6,162.1 832.8,162.9 832.7,163.6 832.3,164.4 831.7,165.2 830.9,166.0 829.9,166.8 828.8,167.5 827.8,168.3 826.9,169.1 826.1,169.9 825.6,170.7 825.3,171.4 825.0,172.2 824.7,173.0 824.2,173.8 823.4,174.6 822.1,175.3 820.3,176.1 817.9,176.9 815.0,177.7 811.7,178.5 808.1,179.2 804.6,180.0 801.3,180.8 798.6,181.6 796.8,182.4 796.2,183.1 796.8,183.9 798.8,184.7 801.7,185.5 805.5,186.3 809.7,187.1 814.0,187.8 818.1,188.6 821.7,189.4 824.7,190.2 827.0,191.0 828.8,191.7 830.1,192.5 831.0,193.3 831.6,194.1 832.1,194.9 832.5,195.6 832.8,196.4 833.1,197.2 833.3,198.0 833.6,198.8 833.8,199.5 834.0,200.3 834.1,201.1 834.2,201.9 834.3,202.7" fill="#2a8" opacity="0.5" stroke="#2a8" stroke-width="1"/>
<line x1="797.1" y1="182.1837433394726" x2="871.8" y2="182.1837433394726" stroke="#114" stroke-width="2"/>
<circle cx="834.4444444444445" cy="185.3155558806781" r="2.4" fill="#114"/>
<text x="834.4444444444445" y="146.84107512917308" text-anchor="middle" font-size="11">1.20</text>
<text x="834.4444444444445" y="376" text-anchor="middle" font-size="12">sbmv</text>
<text x="450.0" y="428" text-anchor="middle" font-size="11" fill="#666">violin = ratio distribution over sizes · line = median · dark dot = worst size · green = every size ≥ gate</text>
</svg>
