<svg xmlns="http://www.w3.org/2000/svg" width="962" height="420" font-family="sans-serif">
<rect width="962" height="420" fill="white"/>
<text x="481.0" y="26" text-anchor="middle" font-size="17" font-weight="bold">BLAS-1 — PB / AOCL ratio</text>
<line x1="46" y1="42" x2="68" y2="42" stroke="#d62728" stroke-width="3"/>
<text x="73" y="46" font-size="12">Zen3 · AVX2</text>
<line x1="176" y1="42" x2="198" y2="42" stroke="#1f77b4" stroke-width="3"/>
<text x="203" y="46" font-size="12">Zen4 · AVX-512</text>
<line x1="327" y1="42" x2="349" y2="42" stroke="#2ca02c" stroke-width="3"/>
<text x="354" y="46" font-size="12">Zen5 · AVX-512</text>
<rect x="46" y="60" width="210" height="138" fill="none" stroke="#e2e2e2"/>
<line x1="46" y1="124.03853247492546" x2="256" y2="124.03853247492546" stroke="#d33" stroke-dasharray="4 3"/>
<text x="42" y="201.0" text-anchor="end" font-size="9" fill="#999">0.5×</text>
<text x="42" y="127.03853247492546" text-anchor="end" font-size="9" fill="#999">1.0×</text>
<text x="42" y="63.14037683022965" text-anchor="end" font-size="9" fill="#999">1.82×</text>
<polygon points="46.0,68.2 79.4,94.7 116.0,94.9 149.4,99.5 186.0,105.3 219.4,109.5 256.0,106.8 256.0,112.9 219.4,110.8 186.0,112.0 149.4,102.1 116.0,95.5 79.4,96.2 46.0,69.1" fill="#d62728" opacity="0.11"/>
<polyline points="46.0,68.9 79.4,94.9 116.0,95.0 149.4,100.5 186.0,105.9 219.4,110.0 256.0,109.9" fill="none" stroke="#d62728" stroke-width="1.6"/>
<circle cx="46.0" cy="68.9" r="2" fill="#d62728"/>
<circle cx="79.4" cy="94.9" r="2" fill="#d62728"/>
<circle cx="116.0" cy="95.0" r="2" fill="#d62728"/>
<circle cx="149.4" cy="100.5" r="2" fill="#d62728"/>
<circle cx="186.0" cy="105.9" r="2" fill="#d62728"/>
<circle cx="219.4" cy="110.0" r="2" fill="#d62728"/>
<circle cx="256.0" cy="109.9" r="2" fill="#d62728"/>
<polygon points="46.0,91.2 79.4,120.5 116.0,122.4 149.4,120.9 186.0,121.1 219.4,120.8 256.0,109.5 256.0,115.4 219.4,121.7 186.0,122.5 149.4,123.2 116.0,123.1 79.4,121.0 46.0,102.4" fill="#1f77b4" opacity="0.11"/>
<polyline points="46.0,98.2 79.4,120.8 116.0,123.1 149.4,123.0 186.0,122.3 219.4,121.1 256.0,113.7" fill="none" stroke="#1f77b4" stroke-width="1.6"/>
<circle cx="46.0" cy="98.2" r="2" fill="#1f77b4"/>
<circle cx="79.4" cy="120.8" r="2" fill="#1f77b4"/>
<circle cx="116.0" cy="123.1" r="2" fill="#1f77b4"/>
<circle cx="149.4" cy="123.0" r="2" fill="#1f77b4"/>
<circle cx="186.0" cy="122.3" r="2" fill="#1f77b4"/>
<circle cx="219.4" cy="121.1" r="2" fill="#1f77b4"/>
<circle cx="256.0" cy="113.7" r="2" fill="#1f77b4"/>
<polygon points="46.0,118.1 79.4,112.6 116.0,121.1 149.4,124.1 186.0,122.2 219.4,126.7 256.0,119.9 256.0,130.6 219.4,130.7 186.0,124.1 149.4,125.3 116.0,122.5 79.4,115.0 46.0,118.8" fill="#2ca02c" opacity="0.11"/>
<polyline points="46.0,118.5 79.4,113.4 116.0,121.9 149.4,124.6 186.0,123.3 219.4,129.0 256.0,125.7" fill="none" stroke="#2ca02c" stroke-width="1.6"/>
<circle cx="46.0" cy="118.5" r="2" fill="#2ca02c"/>
<circle cx="79.4" cy="113.4" r="2" fill="#2ca02c"/>
<circle cx="116.0" cy="121.9" r="2" fill="#2ca02c"/>
<circle cx="149.4" cy="124.6" r="2" fill="#2ca02c"/>
<circle cx="186.0" cy="123.3" r="2" fill="#2ca02c"/>
<circle cx="219.4" cy="129.0" r="2" fill="#2ca02c"/>
<circle cx="256.0" cy="125.7" r="2" fill="#2ca02c"/>
<text x="151.0" y="55" text-anchor="middle" font-size="12" font-weight="bold">axpy</text>
<line x1="46.0" y1="60" x2="46.0" y2="198" stroke="#f4f4f4"/>
<text x="46.0" y="209" text-anchor="middle" font-size="8" fill="#999">1000</text>
<line x1="79.4" y1="60" x2="79.4" y2="198" stroke="#f4f4f4"/>
<text x="79.4" y="209" text-anchor="middle" font-size="8" fill="#999">2k</text>
<line x1="116.0" y1="60" x2="116.0" y2="198" stroke="#f4f4f4"/>
<text x="116.0" y="209" text-anchor="middle" font-size="8" fill="#999">9k</text>
<line x1="149.4" y1="60" x2="149.4" y2="198" stroke="#f4f4f4"/>
<text x="149.4" y="209" text-anchor="middle" font-size="8" fill="#999">29k</text>
<line x1="186.0" y1="60" x2="186.0" y2="198" stroke="#f4f4f4"/>
<text x="186.0" y="209" text-anchor="middle" font-size="8" fill="#999">97k</text>
<line x1="219.4" y1="60" x2="219.4" y2="198" stroke="#f4f4f4"/>
<text x="219.4" y="209" text-anchor="middle" font-size="8" fill="#999">292k</text>
<line x1="256.0" y1="60" x2="256.0" y2="198" stroke="#f4f4f4"/>
<text x="256.0" y="209" text-anchor="middle" font-size="8" fill="#999">976k</text>
<rect x="276" y="60" width="210" height="138" fill="none" stroke="#e2e2e2"/>
<line x1="276" y1="115.76276119065531" x2="486" y2="115.76276119065531" stroke="#d33" stroke-dasharray="4 3"/>
<text x="272" y="201.0" text-anchor="end" font-size="9" fill="#999">0.5×</text>
<text x="272" y="118.76276119065531" text-anchor="end" font-size="9" fill="#999">1.0×</text>
<text x="272" y="63.0" text-anchor="end" font-size="9" fill="#999">1.6×</text>
<polygon points="276.0,99.1 309.4,105.3 346.0,112.3 379.4,111.5 416.0,114.2 449.4,115.1 486.0,114.4 486.0,118.6 449.4,116.0 416.0,115.4 379.4,112.2 346.0,112.5 309.4,106.0 276.0,99.6" fill="#d62728" opacity="0.11"/>
<polyline points="276.0,99.5 309.4,105.5 346.0,112.5 379.4,111.8 416.0,114.6 449.4,115.5 486.0,116.1" fill="none" stroke="#d62728" stroke-width="1.6"/>
<circle cx="276.0" cy="99.5" r="2" fill="#d62728"/>
<circle cx="309.4" cy="105.5" r="2" fill="#d62728"/>
<circle cx="346.0" cy="112.5" r="2" fill="#d62728"/>
<circle cx="379.4" cy="111.8" r="2" fill="#d62728"/>
<circle cx="416.0" cy="114.6" r="2" fill="#d62728"/>
<circle cx="449.4" cy="115.5" r="2" fill="#d62728"/>
<circle cx="486.0" cy="116.1" r="2" fill="#d62728"/>
<polygon points="276.0,103.8 309.4,111.1 346.0,113.0 379.4,113.8 416.0,114.5 449.4,115.1 486.0,114.4 486.0,116.7 449.4,115.9 416.0,115.6 379.4,114.9 346.0,113.2 309.4,113.4 276.0,107.3" fill="#1f77b4" opacity="0.11"/>
<polyline points="276.0,104.1 309.4,112.7 346.0,113.2 379.4,114.7 416.0,115.1 449.4,115.5 486.0,115.4" fill="none" stroke="#1f77b4" stroke-width="1.6"/>
<circle cx="276.0" cy="104.1" r="2" fill="#1f77b4"/>
<circle cx="309.4" cy="112.7" r="2" fill="#1f77b4"/>
<circle cx="346.0" cy="113.2" r="2" fill="#1f77b4"/>
<circle cx="379.4" cy="114.7" r="2" fill="#1f77b4"/>
<circle cx="416.0" cy="115.1" r="2" fill="#1f77b4"/>
<circle cx="449.4" cy="115.5" r="2" fill="#1f77b4"/>
<circle cx="486.0" cy="115.4" r="2" fill="#1f77b4"/>
<polygon points="276.0,110.7 309.4,107.5 346.0,109.8 379.4,108.8 416.0,113.3 449.4,110.8 486.0,107.6 486.0,126.9 449.4,113.6 416.0,115.1 379.4,134.2 346.0,138.7 309.4,111.5 276.0,111.4" fill="#2ca02c" opacity="0.11"/>
<polyline points="276.0,111.2 309.4,109.0 346.0,126.0 379.4,110.0 416.0,113.8 449.4,111.8 486.0,115.8" fill="none" stroke="#2ca02c" stroke-width="1.6"/>
<circle cx="276.0" cy="111.2" r="2" fill="#2ca02c"/>
<circle cx="309.4" cy="109.0" r="2" fill="#2ca02c"/>
<circle cx="346.0" cy="126.0" r="2" fill="#2ca02c"/>
<circle cx="379.4" cy="110.0" r="2" fill="#2ca02c"/>
<circle cx="416.0" cy="113.8" r="2" fill="#2ca02c"/>
<circle cx="449.4" cy="111.8" r="2" fill="#2ca02c"/>
<circle cx="486.0" cy="115.8" r="2" fill="#2ca02c"/>
<text x="381.0" y="55" text-anchor="middle" font-size="12" font-weight="bold">dot</text>
<line x1="276.0" y1="60" x2="276.0" y2="198" stroke="#f4f4f4"/>
<text x="276.0" y="209" text-anchor="middle" font-size="8" fill="#999">1000</text>
<line x1="309.4" y1="60" x2="309.4" y2="198" stroke="#f4f4f4"/>
<text x="309.4" y="209" text-anchor="middle" font-size="8" fill="#999">2k</text>
<line x1="346.0" y1="60" x2="346.0" y2="198" stroke="#f4f4f4"/>
<text x="346.0" y="209" text-anchor="middle" font-size="8" fill="#999">9k</text>
<line x1="379.4" y1="60" x2="379.4" y2="198" stroke="#f4f4f4"/>
<text x="379.4" y="209" text-anchor="middle" font-size="8" fill="#999">29k</text>
<line x1="416.0" y1="60" x2="416.0" y2="198" stroke="#f4f4f4"/>
<text x="416.0" y="209" text-anchor="middle" font-size="8" fill="#999">97k</text>
<line x1="449.4" y1="60" x2="449.4" y2="198" stroke="#f4f4f4"/>
<text x="449.4" y="209" text-anchor="middle" font-size="8" fill="#999">292k</text>
<line x1="486.0" y1="60" x2="486.0" y2="198" stroke="#f4f4f4"/>
<text x="486.0" y="209" text-anchor="middle" font-size="8" fill="#999">976k</text>
<rect x="506" y="60" width="210" height="138" fill="none" stroke="#e2e2e2"/>
<line x1="506" y1="159.51710932451505" x2="716" y2="159.51710932451505" stroke="#d33" stroke-dasharray="4 3"/>
<text x="502" y="201.0" text-anchor="end" font-size="9" fill="#999">0.5×</text>
<text x="502" y="162.51710932451505" text-anchor="end" font-size="9" fill="#999">1.0×</text>
<text x="502" y="63.04028000903462" text-anchor="end" font-size="9" fill="#999">6.0×</text>
<polygon points="506.0,93.2 539.4,103.2 576.0,106.1 609.4,106.5 646.0,119.1 679.4,121.2 716.0,121.9 716.0,128.2 679.4,124.0 646.0,120.3 609.4,107.8 576.0,106.5 539.4,103.5 506.0,94.3" fill="#d62728" opacity="0.11"/>
<polyline points="506.0,94.2 539.4,103.3 576.0,106.3 609.4,107.5 646.0,119.6 679.4,121.6 716.0,124.0" fill="none" stroke="#d62728" stroke-width="1.6"/>
<circle cx="506.0" cy="94.2" r="2" fill="#d62728"/>
<circle cx="539.4" cy="103.3" r="2" fill="#d62728"/>
<circle cx="576.0" cy="106.3" r="2" fill="#d62728"/>
<circle cx="609.4" cy="107.5" r="2" fill="#d62728"/>
<circle cx="646.0" cy="119.6" r="2" fill="#d62728"/>
<circle cx="679.4" cy="121.6" r="2" fill="#d62728"/>
<circle cx="716.0" cy="124.0" r="2" fill="#d62728"/>
<polygon points="506.0,67.3 539.4,73.5 576.0,107.4 609.4,109.1 646.0,112.0 679.4,118.7 716.0,120.7 716.0,121.4 679.4,119.2 646.0,114.5 609.4,109.5 576.0,107.8 539.4,74.3 506.0,70.1" fill="#1f77b4" opacity="0.11"/>
<polyline points="506.0,68.8 539.4,74.0 576.0,107.7 609.4,109.4 646.0,113.0 679.4,118.9 716.0,120.9" fill="none" stroke="#1f77b4" stroke-width="1.6"/>
<circle cx="506.0" cy="68.8" r="2" fill="#1f77b4"/>
<circle cx="539.4" cy="74.0" r="2" fill="#1f77b4"/>
<circle cx="576.0" cy="107.7" r="2" fill="#1f77b4"/>
<circle cx="609.4" cy="109.4" r="2" fill="#1f77b4"/>
<circle cx="646.0" cy="113.0" r="2" fill="#1f77b4"/>
<circle cx="679.4" cy="118.9" r="2" fill="#1f77b4"/>
<circle cx="716.0" cy="120.9" r="2" fill="#1f77b4"/>
<polygon points="506.0,64.3 539.4,72.3 576.0,92.9 609.4,93.6 646.0,83.5 679.4,118.5 716.0,118.1 716.0,122.8 679.4,123.8 646.0,90.7 609.4,94.3 576.0,93.9 539.4,72.8 506.0,65.3" fill="#2ca02c" opacity="0.11"/>
<polyline points="506.0,65.0 539.4,72.6 576.0,93.4 609.4,93.9 646.0,86.4 679.4,123.3 716.0,120.2" fill="none" stroke="#2ca02c" stroke-width="1.6"/>
<circle cx="506.0" cy="65.0" r="2" fill="#2ca02c"/>
<circle cx="539.4" cy="72.6" r="2" fill="#2ca02c"/>
<circle cx="576.0" cy="93.4" r="2" fill="#2ca02c"/>
<circle cx="609.4" cy="93.9" r="2" fill="#2ca02c"/>
<circle cx="646.0" cy="86.4" r="2" fill="#2ca02c"/>
<circle cx="679.4" cy="123.3" r="2" fill="#2ca02c"/>
<circle cx="716.0" cy="120.2" r="2" fill="#2ca02c"/>
<text x="611.0" y="55" text-anchor="middle" font-size="12" font-weight="bold">nrm2</text>
<line x1="506.0" y1="60" x2="506.0" y2="198" stroke="#f4f4f4"/>
<text x="506.0" y="209" text-anchor="middle" font-size="8" fill="#999">1000</text>
<line x1="539.4" y1="60" x2="539.4" y2="198" stroke="#f4f4f4"/>
<text x="539.4" y="209" text-anchor="middle" font-size="8" fill="#999">2k</text>
<line x1="576.0" y1="60" x2="576.0" y2="198" stroke="#f4f4f4"/>
<text x="576.0" y="209" text-anchor="middle" font-size="8" fill="#999">9k</text>
<line x1="609.4" y1="60" x2="609.4" y2="198" stroke="#f4f4f4"/>
<text x="609.4" y="209" text-anchor="middle" font-size="8" fill="#999">29k</text>
<line x1="646.0" y1="60" x2="646.0" y2="198" stroke="#f4f4f4"/>
<text x="646.0" y="209" text-anchor="middle" font-size="8" fill="#999">97k</text>
<line x1="679.4" y1="60" x2="679.4" y2="198" stroke="#f4f4f4"/>
<text x="679.4" y="209" text-anchor="middle" font-size="8" fill="#999">292k</text>
<line x1="716.0" y1="60" x2="716.0" y2="198" stroke="#f4f4f4"/>
<text x="716.0" y="209" text-anchor="middle" font-size="8" fill="#999">976k</text>
<rect x="736" y="60" width="210" height="138" fill="none" stroke="#e2e2e2"/>
<line x1="736" y1="173.4423557186178" x2="946" y2="173.4423557186178" stroke="#d33" stroke-dasharray="4 3"/>
<text x="732" y="201.0" text-anchor="end" font-size="9" fill="#999">0.5×</text>
<text x="732" y="176.4423557186178" text-anchor="end" font-size="9" fill="#999">1.0×</text>
<text x="732" y="63.00045421556478" text-anchor="end" font-size="9" fill="#999">24.58×</text>
<polygon points="736.0,70.0 769.4,67.3 806.0,85.3 839.4,85.3 876.0,93.1 909.4,93.6 946.0,94.0 946.0,98.1 909.4,98.2 876.0,93.9 839.4,85.7 806.0,85.6 769.4,67.9 736.0,70.6" fill="#d62728" opacity="0.11"/>
<polyline points="736.0,70.3 769.4,67.6 806.0,85.6 839.4,85.6 876.0,93.5 909.4,94.0 946.0,95.4" fill="none" stroke="#d62728" stroke-width="1.6"/>
<circle cx="736.0" cy="70.3" r="2" fill="#d62728"/>
<circle cx="769.4" cy="67.6" r="2" fill="#d62728"/>
<circle cx="806.0" cy="85.6" r="2" fill="#d62728"/>
<circle cx="839.4" cy="85.6" r="2" fill="#d62728"/>
<circle cx="876.0" cy="93.5" r="2" fill="#d62728"/>
<circle cx="909.4" cy="94.0" r="2" fill="#d62728"/>
<circle cx="946.0" cy="95.4" r="2" fill="#d62728"/>
<polygon points="736.0,65.9 769.4,64.6 806.0,85.2 839.4,85.2 876.0,87.5 909.4,91.4 946.0,92.6 946.0,93.2 909.4,91.9 876.0,89.7 839.4,85.5 806.0,85.5 769.4,65.2 736.0,66.4" fill="#1f77b4" opacity="0.11"/>
<polyline points="736.0,66.1 769.4,64.9 806.0,85.4 839.4,85.5 876.0,88.6 909.4,91.6 946.0,92.8" fill="none" stroke="#1f77b4" stroke-width="1.6"/>
<circle cx="736.0" cy="66.1" r="2" fill="#1f77b4"/>
<circle cx="769.4" cy="64.9" r="2" fill="#1f77b4"/>
<circle cx="806.0" cy="85.4" r="2" fill="#1f77b4"/>
<circle cx="839.4" cy="85.5" r="2" fill="#1f77b4"/>
<circle cx="876.0" cy="88.6" r="2" fill="#1f77b4"/>
<circle cx="909.4" cy="91.6" r="2" fill="#1f77b4"/>
<circle cx="946.0" cy="92.8" r="2" fill="#1f77b4"/>
<polygon points="736.0,64.1 769.4,62.7 806.0,72.5 839.4,72.7 876.0,65.1 909.4,91.4 946.0,88.5 946.0,94.0 909.4,91.9 876.0,74.9 839.4,73.1 806.0,74.1 769.4,63.0 736.0,64.9" fill="#2ca02c" opacity="0.11"/>
<polyline points="736.0,64.4 769.4,62.9 806.0,73.7 839.4,72.9 876.0,69.7 909.4,91.6 946.0,90.9" fill="none" stroke="#2ca02c" stroke-width="1.6"/>
<circle cx="736.0" cy="64.4" r="2" fill="#2ca02c"/>
<circle cx="769.4" cy="62.9" r="2" fill="#2ca02c"/>
<circle cx="806.0" cy="73.7" r="2" fill="#2ca02c"/>
<circle cx="839.4" cy="72.9" r="2" fill="#2ca02c"/>
<circle cx="876.0" cy="69.7" r="2" fill="#2ca02c"/>
<circle cx="909.4" cy="91.6" r="2" fill="#2ca02c"/>
<circle cx="946.0" cy="90.9" r="2" fill="#2ca02c"/>
<text x="841.0" y="55" text-anchor="middle" font-size="12" font-weight="bold">asum</text>
<line x1="736.0" y1="60" x2="736.0" y2="198" stroke="#f4f4f4"/>
<text x="736.0" y="209" text-anchor="middle" font-size="8" fill="#999">1000</text>
<line x1="769.4" y1="60" x2="769.4" y2="198" stroke="#f4f4f4"/>
<text x="769.4" y="209" text-anchor="middle" font-size="8" fill="#999">2k</text>
<line x1="806.0" y1="60" x2="806.0" y2="198" stroke="#f4f4f4"/>
<text x="806.0" y="209" text-anchor="middle" font-size="8" fill="#999">9k</text>
<line x1="839.4" y1="60" x2="839.4" y2="198" stroke="#f4f4f4"/>
<text x="839.4" y="209" text-anchor="middle" font-size="8" fill="#999">29k</text>
<line x1="876.0" y1="60" x2="876.0" y2="198" stroke="#f4f4f4"/>
<text x="876.0" y="209" text-anchor="middle" font-size="8" fill="#999">97k</text>
<line x1="909.4" y1="60" x2="909.4" y2="198" stroke="#f4f4f4"/>
<text x="909.4" y="209" text-anchor="middle" font-size="8" fill="#999">292k</text>
<line x1="946.0" y1="60" x2="946.0" y2="198" stroke="#f4f4f4"/>
<text x="946.0" y="209" text-anchor="middle" font-size="8" fill="#999">976k</text>
<rect x="46" y="232" width="210" height="138" fill="none" stroke="#e2e2e2"/>
<line x1="46" y1="304.9321628786376" x2="256" y2="304.9321628786376" stroke="#d33" stroke-dasharray="4 3"/>
<text x="42" y="373.0" text-anchor="end" font-size="9" fill="#999">0.5×</text>
<text x="42" y="307.9321628786376" text-anchor="end" font-size="9" fill="#999">1.0×</text>
<text x="42" y="235.20616389084782" text-anchor="end" font-size="9" fill="#999">2.17×</text>
<polygon points="46.0,239.2 79.4,239.5 116.0,256.1 149.4,256.7 186.0,270.3 219.4,277.0 256.0,279.3 256.0,282.4 219.4,282.6 186.0,272.5 149.4,257.4 116.0,256.7 79.4,240.1 46.0,239.8" fill="#d62728" opacity="0.11"/>
<polyline points="46.0,239.5 79.4,239.9 116.0,256.6 149.4,257.2 186.0,271.2 219.4,277.6 256.0,280.4" fill="none" stroke="#d62728" stroke-width="1.6"/>
<circle cx="46.0" cy="239.5" r="2" fill="#d62728"/>
<circle cx="79.4" cy="239.9" r="2" fill="#d62728"/>
<circle cx="116.0" cy="256.6" r="2" fill="#d62728"/>
<circle cx="149.4" cy="257.2" r="2" fill="#d62728"/>
<circle cx="186.0" cy="271.2" r="2" fill="#d62728"/>
<circle cx="219.4" cy="277.6" r="2" fill="#d62728"/>
<circle cx="256.0" cy="280.4" r="2" fill="#d62728"/>
<polygon points="46.0,300.8 79.4,303.3 116.0,303.4 149.4,282.2 186.0,293.8 219.4,298.5 256.0,303.6 256.0,304.5 219.4,301.9 186.0,295.7 149.4,283.0 116.0,303.5 79.4,303.8 46.0,301.6" fill="#1f77b4" opacity="0.11"/>
<polyline points="46.0,301.5 79.4,303.7 116.0,303.5 149.4,282.7 186.0,294.6 219.4,299.8 256.0,304.1" fill="none" stroke="#1f77b4" stroke-width="1.6"/>
<circle cx="46.0" cy="301.5" r="2" fill="#1f77b4"/>
<circle cx="79.4" cy="303.7" r="2" fill="#1f77b4"/>
<circle cx="116.0" cy="303.5" r="2" fill="#1f77b4"/>
<circle cx="149.4" cy="282.7" r="2" fill="#1f77b4"/>
<circle cx="186.0" cy="294.6" r="2" fill="#1f77b4"/>
<circle cx="219.4" cy="299.8" r="2" fill="#1f77b4"/>
<circle cx="256.0" cy="304.1" r="2" fill="#1f77b4"/>
<polygon points="46.0,293.3 79.4,298.9 116.0,298.8 149.4,301.5 186.0,296.2 219.4,302.3 256.0,302.5 256.0,307.3 219.4,303.1 186.0,300.0 149.4,302.7 116.0,301.0 79.4,300.5 46.0,295.6" fill="#2ca02c" opacity="0.11"/>
<polyline points="46.0,295.0 79.4,299.8 116.0,300.1 149.4,302.2 186.0,298.0 219.4,302.6 256.0,304.9" fill="none" stroke="#2ca02c" stroke-width="1.6"/>
<circle cx="46.0" cy="295.0" r="2" fill="#2ca02c"/>
<circle cx="79.4" cy="299.8" r="2" fill="#2ca02c"/>
<circle cx="116.0" cy="300.1" r="2" fill="#2ca02c"/>
<circle cx="149.4" cy="302.2" r="2" fill="#2ca02c"/>
<circle cx="186.0" cy="298.0" r="2" fill="#2ca02c"/>
<circle cx="219.4" cy="302.6" r="2" fill="#2ca02c"/>
<circle cx="256.0" cy="304.9" r="2" fill="#2ca02c"/>
<text x="151.0" y="227" text-anchor="middle" font-size="12" font-weight="bold">scal</text>
<line x1="46.0" y1="232" x2="46.0" y2="370" stroke="#f4f4f4"/>
<text x="46.0" y="381" text-anchor="middle" font-size="8" fill="#999">1000</text>
<line x1="79.4" y1="232" x2="79.4" y2="370" stroke="#f4f4f4"/>
<text x="79.4" y="381" text-anchor="middle" font-size="8" fill="#999">2k</text>
<line x1="116.0" y1="232" x2="116.0" y2="370" stroke="#f4f4f4"/>
<text x="116.0" y="381" text-anchor="middle" font-size="8" fill="#999">9k</text>
<line x1="149.4" y1="232" x2="149.4" y2="370" stroke="#f4f4f4"/>
<text x="149.4" y="381" text-anchor="middle" font-size="8" fill="#999">29k</text>
<line x1="186.0" y1="232" x2="186.0" y2="370" stroke="#f4f4f4"/>
<text x="186.0" y="381" text-anchor="middle" font-size="8" fill="#999">97k</text>
<line x1="219.4" y1="232" x2="219.4" y2="370" stroke="#f4f4f4"/>
<text x="219.4" y="381" text-anchor="middle" font-size="8" fill="#999">292k</text>
<line x1="256.0" y1="232" x2="256.0" y2="370" stroke="#f4f4f4"/>
<text x="256.0" y="381" text-anchor="middle" font-size="8" fill="#999">976k</text>
<rect x="276" y="232" width="210" height="138" fill="none" stroke="#e2e2e2"/>
<line x1="276" y1="291.9374712956207" x2="486" y2="291.9374712956207" stroke="#d33" stroke-dasharray="4 3"/>
<text x="272" y="373.0" text-anchor="end" font-size="9" fill="#999">0.5×</text>
<text x="272" y="294.9374712956207" text-anchor="end" font-size="9" fill="#999">1.0×</text>
<text x="272" y="235.177893183461" text-anchor="end" font-size="9" fill="#999">1.7×</text>
<polygon points="276.0,265.7 309.4,268.9 346.0,283.0 379.4,283.1 416.0,295.1 449.4,292.3 486.0,293.6 486.0,296.5 449.4,296.5 416.0,296.4 379.4,285.9 346.0,290.3 309.4,276.9 276.0,270.3" fill="#d62728" opacity="0.11"/>
<polyline points="276.0,267.8 309.4,272.4 346.0,285.8 379.4,284.4 416.0,295.9 449.4,295.9 486.0,295.0" fill="none" stroke="#d62728" stroke-width="1.6"/>
<circle cx="276.0" cy="267.8" r="2" fill="#d62728"/>
<circle cx="309.4" cy="272.4" r="2" fill="#d62728"/>
<circle cx="346.0" cy="285.8" r="2" fill="#d62728"/>
<circle cx="379.4" cy="284.4" r="2" fill="#d62728"/>
<circle cx="416.0" cy="295.9" r="2" fill="#d62728"/>
<circle cx="449.4" cy="295.9" r="2" fill="#d62728"/>
<circle cx="486.0" cy="295.0" r="2" fill="#d62728"/>
<polygon points="276.0,277.1 309.4,266.3 346.0,289.9 379.4,291.3 416.0,287.9 449.4,288.7 486.0,289.3 486.0,290.7 449.4,290.0 416.0,290.4 379.4,291.7 346.0,290.9 309.4,272.6 276.0,287.3" fill="#1f77b4" opacity="0.11"/>
<polyline points="276.0,281.1 309.4,268.4 346.0,290.3 379.4,291.5 416.0,289.1 449.4,289.2 486.0,289.8" fill="none" stroke="#1f77b4" stroke-width="1.6"/>
<circle cx="276.0" cy="281.1" r="2" fill="#1f77b4"/>
<circle cx="309.4" cy="268.4" r="2" fill="#1f77b4"/>
<circle cx="346.0" cy="290.3" r="2" fill="#1f77b4"/>
<circle cx="379.4" cy="291.5" r="2" fill="#1f77b4"/>
<circle cx="416.0" cy="289.1" r="2" fill="#1f77b4"/>
<circle cx="449.4" cy="289.2" r="2" fill="#1f77b4"/>
<circle cx="486.0" cy="289.8" r="2" fill="#1f77b4"/>
<polygon points="276.0,275.9 309.4,269.6 346.0,264.0 379.4,263.4 416.0,240.7 449.4,291.7 486.0,289.8 486.0,295.7 449.4,292.3 416.0,274.0 379.4,264.1 346.0,265.7 309.4,273.8 276.0,287.5" fill="#2ca02c" opacity="0.11"/>
<polyline points="276.0,282.1 309.4,271.8 346.0,264.9 379.4,263.7 416.0,253.7 449.4,292.0 486.0,293.6" fill="none" stroke="#2ca02c" stroke-width="1.6"/>
<circle cx="276.0" cy="282.1" r="2" fill="#2ca02c"/>
<circle cx="309.4" cy="271.8" r="2" fill="#2ca02c"/>
<circle cx="346.0" cy="264.9" r="2" fill="#2ca02c"/>
<circle cx="379.4" cy="263.7" r="2" fill="#2ca02c"/>
<circle cx="416.0" cy="253.7" r="2" fill="#2ca02c"/>
<circle cx="449.4" cy="292.0" r="2" fill="#2ca02c"/>
<circle cx="486.0" cy="293.6" r="2" fill="#2ca02c"/>
<text x="381.0" y="227" text-anchor="middle" font-size="12" font-weight="bold">iamax</text>
<line x1="276.0" y1="232" x2="276.0" y2="370" stroke="#f4f4f4"/>
<text x="276.0" y="381" text-anchor="middle" font-size="8" fill="#999">1000</text>
<line x1="309.4" y1="232" x2="309.4" y2="370" stroke="#f4f4f4"/>
<text x="309.4" y="381" text-anchor="middle" font-size="8" fill="#999">2k</text>
<line x1="346.0" y1="232" x2="346.0" y2="370" stroke="#f4f4f4"/>
<text x="346.0" y="381" text-anchor="middle" font-size="8" fill="#999">9k</text>
<line x1="379.4" y1="232" x2="379.4" y2="370" stroke="#f4f4f4"/>
<text x="379.4" y="381" text-anchor="middle" font-size="8" fill="#999">29k</text>
<line x1="416.0" y1="232" x2="416.0" y2="370" stroke="#f4f4f4"/>
<text x="416.0" y="381" text-anchor="middle" font-size="8" fill="#999">97k</text>
<line x1="449.4" y1="232" x2="449.4" y2="370" stroke="#f4f4f4"/>
<text x="449.4" y="381" text-anchor="middle" font-size="8" fill="#999">292k</text>
<line x1="486.0" y1="232" x2="486.0" y2="370" stroke="#f4f4f4"/>
<text x="486.0" y="381" text-anchor="middle" font-size="8" fill="#999">976k</text>
</svg>
