<svg xmlns="http://www.w3.org/2000/svg" width="962" height="420" font-family="sans-serif">
<rect width="962" height="420" fill="white"/>
<text x="481.0" y="26" text-anchor="middle" font-size="17" font-weight="bold">BLAS-1 — PureBLAS / OpenBLAS (PB/OpenBLAS ratio)</text>
<line x1="46" y1="42" x2="68" y2="42" stroke="#d62728" stroke-width="3"/>
<text x="73" y="46" font-size="12">Zen3 · AVX2</text>
<line x1="176" y1="42" x2="198" y2="42" stroke="#2ca02c" stroke-width="3"/>
<text x="203" y="46" font-size="12">Zen5 · AVX-512</text>
<line x1="327" y1="42" x2="349" y2="42" stroke="#1f77b4" stroke-width="3"/>
<text x="354" y="46" font-size="12">Zen4 · AVX-512</text>
<rect x="46" y="60" width="210" height="138" fill="none" stroke="#e2e2e2"/>
<line x1="46" y1="115.76276119065531" x2="256" y2="115.76276119065531" stroke="#d33" stroke-dasharray="4 3"/>
<text x="42" y="201.0" text-anchor="end" font-size="9" fill="#999">0.5×</text>
<text x="42" y="118.76276119065531" text-anchor="end" font-size="9" fill="#999">1.0×</text>
<text x="42" y="63.0" text-anchor="end" font-size="9" fill="#999">1.6×</text>
<polygon points="46.0,110.1 79.4,113.3 116.0,115.5 149.4,114.3 186.0,114.7 219.4,114.7 256.0,113.0 256.0,117.4 219.4,116.3 186.0,116.2 149.4,116.5 116.0,115.6 79.4,114.9 46.0,110.6" fill="#d62728" opacity="0.11"/>
<polyline points="46.0,110.4 79.4,113.7 116.0,115.5 149.4,115.8 186.0,115.6 219.4,115.7 256.0,115.9" fill="none" stroke="#d62728" stroke-width="1.6"/>
<circle cx="46.0" cy="110.4" r="2" fill="#d62728"/>
<circle cx="79.4" cy="113.7" r="2" fill="#d62728"/>
<circle cx="116.0" cy="115.5" r="2" fill="#d62728"/>
<circle cx="149.4" cy="115.8" r="2" fill="#d62728"/>
<circle cx="186.0" cy="115.6" r="2" fill="#d62728"/>
<circle cx="219.4" cy="115.7" r="2" fill="#d62728"/>
<circle cx="256.0" cy="115.9" r="2" fill="#d62728"/>
<polygon points="46.0,109.6 79.4,109.0 116.0,115.2 149.4,116.0 186.0,113.1 219.4,112.2 256.0,113.2 256.0,121.7 219.4,117.6 186.0,115.9 149.4,117.0 116.0,117.3 79.4,110.2 46.0,110.1" fill="#2ca02c" opacity="0.11"/>
<polyline points="46.0,109.9 79.4,109.8 116.0,116.2 149.4,116.5 186.0,115.4 219.4,115.6 256.0,117.3" fill="none" stroke="#2ca02c" stroke-width="1.6"/>
<circle cx="46.0" cy="109.9" r="2" fill="#2ca02c"/>
<circle cx="79.4" cy="109.8" r="2" fill="#2ca02c"/>
<circle cx="116.0" cy="116.2" r="2" fill="#2ca02c"/>
<circle cx="149.4" cy="116.5" r="2" fill="#2ca02c"/>
<circle cx="186.0" cy="115.4" r="2" fill="#2ca02c"/>
<circle cx="219.4" cy="115.6" r="2" fill="#2ca02c"/>
<circle cx="256.0" cy="117.3" r="2" fill="#2ca02c"/>
<polygon points="46.0,103.4 79.4,113.6 116.0,114.3 149.4,114.9 186.0,114.2 219.4,112.6 256.0,111.4 256.0,119.7 219.4,115.2 186.0,116.6 149.4,116.0 116.0,115.4 79.4,113.9 46.0,104.1" fill="#1f77b4" opacity="0.11"/>
<polyline points="46.0,103.9 79.4,113.8 116.0,115.2 149.4,115.6 186.0,115.1 219.4,114.1 256.0,116.5" fill="none" stroke="#1f77b4" stroke-width="1.6"/>
<circle cx="46.0" cy="103.9" r="2" fill="#1f77b4"/>
<circle cx="79.4" cy="113.8" r="2" fill="#1f77b4"/>
<circle cx="116.0" cy="115.2" r="2" fill="#1f77b4"/>
<circle cx="149.4" cy="115.6" r="2" fill="#1f77b4"/>
<circle cx="186.0" cy="115.1" r="2" fill="#1f77b4"/>
<circle cx="219.4" cy="114.1" r="2" fill="#1f77b4"/>
<circle cx="256.0" cy="116.5" r="2" fill="#1f77b4"/>
<text x="151.0" y="55" text-anchor="middle" font-size="12" font-weight="bold">axpy</text>
<line x1="46.0" y1="60" x2="46.0" y2="198" stroke="#f4f4f4"/>
<text x="46.0" y="209" text-anchor="middle" font-size="8" fill="#999">1000</text>
<line x1="79.4" y1="60" x2="79.4" y2="198" stroke="#f4f4f4"/>
<text x="79.4" y="209" text-anchor="middle" font-size="8" fill="#999">2k</text>
<line x1="116.0" y1="60" x2="116.0" y2="198" stroke="#f4f4f4"/>
<text x="116.0" y="209" text-anchor="middle" font-size="8" fill="#999">9k</text>
<line x1="149.4" y1="60" x2="149.4" y2="198" stroke="#f4f4f4"/>
<text x="149.4" y="209" text-anchor="middle" font-size="8" fill="#999">29k</text>
<line x1="186.0" y1="60" x2="186.0" y2="198" stroke="#f4f4f4"/>
<text x="186.0" y="209" text-anchor="middle" font-size="8" fill="#999">97k</text>
<line x1="219.4" y1="60" x2="219.4" y2="198" stroke="#f4f4f4"/>
<text x="219.4" y="209" text-anchor="middle" font-size="8" fill="#999">292k</text>
<line x1="256.0" y1="60" x2="256.0" y2="198" stroke="#f4f4f4"/>
<text x="256.0" y="209" text-anchor="middle" font-size="8" fill="#999">976k</text>
<rect x="276" y="60" width="210" height="138" fill="none" stroke="#e2e2e2"/>
<line x1="276" y1="115.76276119065531" x2="486" y2="115.76276119065531" stroke="#d33" stroke-dasharray="4 3"/>
<text x="272" y="201.0" text-anchor="end" font-size="9" fill="#999">0.5×</text>
<text x="272" y="118.76276119065531" text-anchor="end" font-size="9" fill="#999">1.0×</text>
<text x="272" y="63.0" text-anchor="end" font-size="9" fill="#999">1.6×</text>
<polygon points="276.0,113.4 309.4,115.1 346.0,115.6 379.4,114.5 416.0,115.8 449.4,115.0 486.0,115.6 486.0,117.9 449.4,117.3 416.0,116.6 379.4,117.4 346.0,115.7 309.4,115.5 276.0,115.1" fill="#d62728" opacity="0.11"/>
<polyline points="276.0,114.4 309.4,115.3 346.0,115.7 379.4,115.8 416.0,116.3 449.4,116.6 486.0,116.8" fill="none" stroke="#d62728" stroke-width="1.6"/>
<circle cx="276.0" cy="114.4" r="2" fill="#d62728"/>
<circle cx="309.4" cy="115.3" r="2" fill="#d62728"/>
<circle cx="346.0" cy="115.7" r="2" fill="#d62728"/>
<circle cx="379.4" cy="115.8" r="2" fill="#d62728"/>
<circle cx="416.0" cy="116.3" r="2" fill="#d62728"/>
<circle cx="449.4" cy="116.6" r="2" fill="#d62728"/>
<circle cx="486.0" cy="116.8" r="2" fill="#d62728"/>
<polygon points="276.0,112.6 309.4,114.8 346.0,115.5 379.4,114.7 416.0,113.4 449.4,111.7 486.0,112.4 486.0,119.3 449.4,115.6 416.0,118.6 379.4,118.5 346.0,117.7 309.4,115.6 276.0,113.2" fill="#2ca02c" opacity="0.11"/>
<polyline points="276.0,112.8 309.4,115.3 346.0,117.1 379.4,116.5 416.0,115.8 449.4,114.8 486.0,115.6" fill="none" stroke="#2ca02c" stroke-width="1.6"/>
<circle cx="276.0" cy="112.8" r="2" fill="#2ca02c"/>
<circle cx="309.4" cy="115.3" r="2" fill="#2ca02c"/>
<circle cx="346.0" cy="117.1" r="2" fill="#2ca02c"/>
<circle cx="379.4" cy="116.5" r="2" fill="#2ca02c"/>
<circle cx="416.0" cy="115.8" r="2" fill="#2ca02c"/>
<circle cx="449.4" cy="114.8" r="2" fill="#2ca02c"/>
<circle cx="486.0" cy="115.6" r="2" fill="#2ca02c"/>
<polygon points="276.0,113.0 309.4,115.7 346.0,115.7 379.4,115.5 416.0,114.8 449.4,114.6 486.0,113.6 486.0,120.1 449.4,116.4 416.0,116.4 379.4,116.9 346.0,116.1 309.4,115.9 276.0,114.0" fill="#1f77b4" opacity="0.11"/>
<polyline points="276.0,113.7 309.4,115.8 346.0,115.8 379.4,115.8 416.0,115.4 449.4,115.4 486.0,115.7" fill="none" stroke="#1f77b4" stroke-width="1.6"/>
<circle cx="276.0" cy="113.7" r="2" fill="#1f77b4"/>
<circle cx="309.4" cy="115.8" r="2" fill="#1f77b4"/>
<circle cx="346.0" cy="115.8" r="2" fill="#1f77b4"/>
<circle cx="379.4" cy="115.8" r="2" fill="#1f77b4"/>
<circle cx="416.0" cy="115.4" r="2" fill="#1f77b4"/>
<circle cx="449.4" cy="115.4" r="2" fill="#1f77b4"/>
<circle cx="486.0" cy="115.7" r="2" fill="#1f77b4"/>
<text x="381.0" y="55" text-anchor="middle" font-size="12" font-weight="bold">dot</text>
<line x1="276.0" y1="60" x2="276.0" y2="198" stroke="#f4f4f4"/>
<text x="276.0" y="209" text-anchor="middle" font-size="8" fill="#999">1000</text>
<line x1="309.4" y1="60" x2="309.4" y2="198" stroke="#f4f4f4"/>
<text x="309.4" y="209" text-anchor="middle" font-size="8" fill="#999">2k</text>
<line x1="346.0" y1="60" x2="346.0" y2="198" stroke="#f4f4f4"/>
<text x="346.0" y="209" text-anchor="middle" font-size="8" fill="#999">9k</text>
<line x1="379.4" y1="60" x2="379.4" y2="198" stroke="#f4f4f4"/>
<text x="379.4" y="209" text-anchor="middle" font-size="8" fill="#999">29k</text>
<line x1="416.0" y1="60" x2="416.0" y2="198" stroke="#f4f4f4"/>
<text x="416.0" y="209" text-anchor="middle" font-size="8" fill="#999">97k</text>
<line x1="449.4" y1="60" x2="449.4" y2="198" stroke="#f4f4f4"/>
<text x="449.4" y="209" text-anchor="middle" font-size="8" fill="#999">292k</text>
<line x1="486.0" y1="60" x2="486.0" y2="198" stroke="#f4f4f4"/>
<text x="486.0" y="209" text-anchor="middle" font-size="8" fill="#999">976k</text>
<rect x="506" y="60" width="210" height="138" fill="none" stroke="#e2e2e2"/>
<line x1="506" y1="170.40235851005048" x2="716" y2="170.40235851005048" stroke="#d33" stroke-dasharray="4 3"/>
<text x="502" y="201.0" text-anchor="end" font-size="9" fill="#999">0.5×</text>
<text x="502" y="173.40235851005048" text-anchor="end" font-size="9" fill="#999">1.0×</text>
<text x="502" y="63.01179255025233" text-anchor="end" font-size="9" fill="#999">16.0×</text>
<polygon points="506.0,89.9 539.4,88.3 576.0,88.0 609.4,87.7 646.0,95.7 679.4,96.6 716.0,96.9 716.0,101.9 679.4,99.2 646.0,97.5 609.4,88.2 576.0,88.4 539.4,88.6 506.0,90.2" fill="#d62728" opacity="0.11"/>
<polyline points="506.0,90.1 539.4,88.5 576.0,88.3 609.4,88.0 646.0,96.8 679.4,97.2 716.0,99.2" fill="none" stroke="#d62728" stroke-width="1.6"/>
<circle cx="506.0" cy="90.1" r="2" fill="#d62728"/>
<circle cx="539.4" cy="88.5" r="2" fill="#d62728"/>
<circle cx="576.0" cy="88.3" r="2" fill="#d62728"/>
<circle cx="609.4" cy="88.0" r="2" fill="#d62728"/>
<circle cx="646.0" cy="96.8" r="2" fill="#d62728"/>
<circle cx="679.4" cy="97.2" r="2" fill="#d62728"/>
<circle cx="716.0" cy="99.2" r="2" fill="#d62728"/>
<polygon points="506.0,68.2 539.4,63.1 576.0,74.7 609.4,73.5 646.0,70.1 679.4,93.8 716.0,90.9 716.0,99.9 679.4,97.3 646.0,83.9 609.4,74.6 576.0,75.8 539.4,63.6 506.0,68.7" fill="#2ca02c" opacity="0.11"/>
<polyline points="506.0,68.4 539.4,63.3 576.0,75.0 609.4,73.8 646.0,75.5 679.4,95.2 716.0,96.4" fill="none" stroke="#2ca02c" stroke-width="1.6"/>
<circle cx="506.0" cy="68.4" r="2" fill="#2ca02c"/>
<circle cx="539.4" cy="63.3" r="2" fill="#2ca02c"/>
<circle cx="576.0" cy="75.0" r="2" fill="#2ca02c"/>
<circle cx="609.4" cy="73.8" r="2" fill="#2ca02c"/>
<circle cx="646.0" cy="75.5" r="2" fill="#2ca02c"/>
<circle cx="679.4" cy="95.2" r="2" fill="#2ca02c"/>
<circle cx="716.0" cy="96.4" r="2" fill="#2ca02c"/>
<polygon points="506.0,69.6 539.4,67.8 576.0,87.6 609.4,87.5 646.0,88.1 679.4,94.4 716.0,95.8 716.0,97.4 679.4,95.4 646.0,92.7 609.4,87.8 576.0,87.9 539.4,68.9 506.0,72.1" fill="#1f77b4" opacity="0.11"/>
<polyline points="506.0,70.6 539.4,68.4 576.0,87.9 609.4,87.8 646.0,91.2 679.4,94.6 716.0,96.2" fill="none" stroke="#1f77b4" stroke-width="1.6"/>
<circle cx="506.0" cy="70.6" r="2" fill="#1f77b4"/>
<circle cx="539.4" cy="68.4" r="2" fill="#1f77b4"/>
<circle cx="576.0" cy="87.9" r="2" fill="#1f77b4"/>
<circle cx="609.4" cy="87.8" r="2" fill="#1f77b4"/>
<circle cx="646.0" cy="91.2" r="2" fill="#1f77b4"/>
<circle cx="679.4" cy="94.6" r="2" fill="#1f77b4"/>
<circle cx="716.0" cy="96.2" r="2" fill="#1f77b4"/>
<text x="611.0" y="55" text-anchor="middle" font-size="12" font-weight="bold">nrm2</text>
<line x1="506.0" y1="60" x2="506.0" y2="198" stroke="#f4f4f4"/>
<text x="506.0" y="209" text-anchor="middle" font-size="8" fill="#999">1000</text>
<line x1="539.4" y1="60" x2="539.4" y2="198" stroke="#f4f4f4"/>
<text x="539.4" y="209" text-anchor="middle" font-size="8" fill="#999">2k</text>
<line x1="576.0" y1="60" x2="576.0" y2="198" stroke="#f4f4f4"/>
<text x="576.0" y="209" text-anchor="middle" font-size="8" fill="#999">9k</text>
<line x1="609.4" y1="60" x2="609.4" y2="198" stroke="#f4f4f4"/>
<text x="609.4" y="209" text-anchor="middle" font-size="8" fill="#999">29k</text>
<line x1="646.0" y1="60" x2="646.0" y2="198" stroke="#f4f4f4"/>
<text x="646.0" y="209" text-anchor="middle" font-size="8" fill="#999">97k</text>
<line x1="679.4" y1="60" x2="679.4" y2="198" stroke="#f4f4f4"/>
<text x="679.4" y="209" text-anchor="middle" font-size="8" fill="#999">292k</text>
<line x1="716.0" y1="60" x2="716.0" y2="198" stroke="#f4f4f4"/>
<text x="716.0" y="209" text-anchor="middle" font-size="8" fill="#999">976k</text>
<rect x="736" y="60" width="210" height="138" fill="none" stroke="#e2e2e2"/>
<line x1="736" y1="130.86832135659836" x2="946" y2="130.86832135659836" stroke="#d33" stroke-dasharray="4 3"/>
<text x="732" y="201.0" text-anchor="end" font-size="9" fill="#999">0.5×</text>
<text x="732" y="133.86832135659836" text-anchor="end" font-size="9" fill="#999">1.0×</text>
<polygon points="736.0,67.5 769.4,68.9 806.0,87.4 839.4,87.7 876.0,99.9 909.4,101.8 946.0,101.9 946.0,112.8 909.4,102.9 876.0,101.8 839.4,89.0 806.0,88.0 769.4,69.6 736.0,68.6" fill="#d62728" opacity="0.11"/>
<polyline points="736.0,68.0 769.4,69.2 806.0,87.8 839.4,88.3 876.0,101.0 909.4,102.7 946.0,106.0" fill="none" stroke="#d62728" stroke-width="1.6"/>
<circle cx="736.0" cy="68.0" r="2" fill="#d62728"/>
<circle cx="769.4" cy="69.2" r="2" fill="#d62728"/>
<circle cx="806.0" cy="87.8" r="2" fill="#d62728"/>
<circle cx="839.4" cy="88.3" r="2" fill="#d62728"/>
<circle cx="876.0" cy="101.0" r="2" fill="#d62728"/>
<circle cx="909.4" cy="102.7" r="2" fill="#d62728"/>
<circle cx="946.0" cy="106.0" r="2" fill="#d62728"/>
<polygon points="736.0,98.3 769.4,119.6 806.0,128.4 839.4,129.9 876.0,128.2 909.4,126.8 946.0,125.2 946.0,143.0 909.4,131.6 876.0,137.1 839.4,132.5 806.0,132.5 769.4,121.3 736.0,101.2" fill="#2ca02c" opacity="0.11"/>
<polyline points="736.0,100.0 769.4,120.0 806.0,130.3 839.4,130.5 876.0,131.4 909.4,129.9 946.0,131.7" fill="none" stroke="#2ca02c" stroke-width="1.6"/>
<circle cx="736.0" cy="100.0" r="2" fill="#2ca02c"/>
<circle cx="769.4" cy="120.0" r="2" fill="#2ca02c"/>
<circle cx="806.0" cy="130.3" r="2" fill="#2ca02c"/>
<circle cx="839.4" cy="130.5" r="2" fill="#2ca02c"/>
<circle cx="876.0" cy="131.4" r="2" fill="#2ca02c"/>
<circle cx="909.4" cy="129.9" r="2" fill="#2ca02c"/>
<circle cx="946.0" cy="131.7" r="2" fill="#2ca02c"/>
<polygon points="736.0,95.0 769.4,115.9 806.0,130.5 839.4,130.6 876.0,130.4 909.4,130.8 946.0,129.1 946.0,131.9 909.4,131.6 876.0,132.0 839.4,130.9 806.0,131.0 769.4,116.4 736.0,95.5" fill="#1f77b4" opacity="0.11"/>
<polyline points="736.0,95.2 769.4,116.1 806.0,130.6 839.4,130.8 876.0,131.0 909.4,131.1 946.0,130.9" fill="none" stroke="#1f77b4" stroke-width="1.6"/>
<circle cx="736.0" cy="95.2" r="2" fill="#1f77b4"/>
<circle cx="769.4" cy="116.1" r="2" fill="#1f77b4"/>
<circle cx="806.0" cy="130.6" r="2" fill="#1f77b4"/>
<circle cx="839.4" cy="130.8" r="2" fill="#1f77b4"/>
<circle cx="876.0" cy="131.0" r="2" fill="#1f77b4"/>
<circle cx="909.4" cy="131.1" r="2" fill="#1f77b4"/>
<circle cx="946.0" cy="130.9" r="2" fill="#1f77b4"/>
<text x="841.0" y="55" text-anchor="middle" font-size="12" font-weight="bold">asum</text>
<line x1="736.0" y1="60" x2="736.0" y2="198" stroke="#f4f4f4"/>
<text x="736.0" y="209" text-anchor="middle" font-size="8" fill="#999">1000</text>
<line x1="769.4" y1="60" x2="769.4" y2="198" stroke="#f4f4f4"/>
<text x="769.4" y="209" text-anchor="middle" font-size="8" fill="#999">2k</text>
<line x1="806.0" y1="60" x2="806.0" y2="198" stroke="#f4f4f4"/>
<text x="806.0" y="209" text-anchor="middle" font-size="8" fill="#999">9k</text>
<line x1="839.4" y1="60" x2="839.4" y2="198" stroke="#f4f4f4"/>
<text x="839.4" y="209" text-anchor="middle" font-size="8" fill="#999">29k</text>
<line x1="876.0" y1="60" x2="876.0" y2="198" stroke="#f4f4f4"/>
<text x="876.0" y="209" text-anchor="middle" font-size="8" fill="#999">97k</text>
<line x1="909.4" y1="60" x2="909.4" y2="198" stroke="#f4f4f4"/>
<text x="909.4" y="209" text-anchor="middle" font-size="8" fill="#999">292k</text>
<line x1="946.0" y1="60" x2="946.0" y2="198" stroke="#f4f4f4"/>
<text x="946.0" y="209" text-anchor="middle" font-size="8" fill="#999">976k</text>
<rect x="46" y="232" width="210" height="138" fill="none" stroke="#e2e2e2"/>
<line x1="46" y1="287.7627611906553" x2="256" y2="287.7627611906553" stroke="#d33" stroke-dasharray="4 3"/>
<text x="42" y="373.0" text-anchor="end" font-size="9" fill="#999">0.5×</text>
<text x="42" y="290.7627611906553" text-anchor="end" font-size="9" fill="#999">1.0×</text>
<text x="42" y="235.0" text-anchor="end" font-size="9" fill="#999">1.6×</text>
<polygon points="46.0,283.0 79.4,285.7 116.0,286.4 149.4,285.9 186.0,286.9 219.4,286.9 256.0,280.7 256.0,287.8 219.4,288.6 186.0,288.6 149.4,286.4 116.0,287.1 79.4,286.1 46.0,283.2" fill="#d62728" opacity="0.11"/>
<polyline points="46.0,283.1 79.4,285.8 116.0,286.9 149.4,286.3 186.0,288.4 219.4,287.5 256.0,285.5" fill="none" stroke="#d62728" stroke-width="1.6"/>
<circle cx="46.0" cy="283.1" r="2" fill="#d62728"/>
<circle cx="79.4" cy="285.8" r="2" fill="#d62728"/>
<circle cx="116.0" cy="286.9" r="2" fill="#d62728"/>
<circle cx="149.4" cy="286.3" r="2" fill="#d62728"/>
<circle cx="186.0" cy="288.4" r="2" fill="#d62728"/>
<circle cx="219.4" cy="287.5" r="2" fill="#d62728"/>
<circle cx="256.0" cy="285.5" r="2" fill="#d62728"/>
<polygon points="46.0,275.9 79.4,253.0 116.0,270.8 149.4,284.2 186.0,280.1 219.4,286.6 256.0,275.9 256.0,293.0 219.4,289.9 186.0,289.3 149.4,290.1 116.0,283.8 79.4,261.2 46.0,280.8" fill="#2ca02c" opacity="0.11"/>
<polyline points="46.0,278.0 79.4,257.9 116.0,282.8 149.4,285.1 186.0,286.0 219.4,287.8 256.0,286.6" fill="none" stroke="#2ca02c" stroke-width="1.6"/>
<circle cx="46.0" cy="278.0" r="2" fill="#2ca02c"/>
<circle cx="79.4" cy="257.9" r="2" fill="#2ca02c"/>
<circle cx="116.0" cy="282.8" r="2" fill="#2ca02c"/>
<circle cx="149.4" cy="285.1" r="2" fill="#2ca02c"/>
<circle cx="186.0" cy="286.0" r="2" fill="#2ca02c"/>
<circle cx="219.4" cy="287.8" r="2" fill="#2ca02c"/>
<circle cx="256.0" cy="286.6" r="2" fill="#2ca02c"/>
<polygon points="46.0,273.4 79.4,282.5 116.0,287.6 149.4,288.4 186.0,284.5 219.4,286.5 256.0,289.2 256.0,292.5 219.4,292.2 186.0,288.7 149.4,289.1 116.0,288.0 79.4,282.8 46.0,273.9" fill="#1f77b4" opacity="0.11"/>
<polyline points="46.0,273.7 79.4,282.7 116.0,287.8 149.4,289.0 186.0,286.8 219.4,288.5 256.0,290.8" fill="none" stroke="#1f77b4" stroke-width="1.6"/>
<circle cx="46.0" cy="273.7" r="2" fill="#1f77b4"/>
<circle cx="79.4" cy="282.7" r="2" fill="#1f77b4"/>
<circle cx="116.0" cy="287.8" r="2" fill="#1f77b4"/>
<circle cx="149.4" cy="289.0" r="2" fill="#1f77b4"/>
<circle cx="186.0" cy="286.8" r="2" fill="#1f77b4"/>
<circle cx="219.4" cy="288.5" r="2" fill="#1f77b4"/>
<circle cx="256.0" cy="290.8" r="2" fill="#1f77b4"/>
<text x="151.0" y="227" text-anchor="middle" font-size="12" font-weight="bold">scal</text>
<line x1="46.0" y1="232" x2="46.0" y2="370" stroke="#f4f4f4"/>
<text x="46.0" y="381" text-anchor="middle" font-size="8" fill="#999">1000</text>
<line x1="79.4" y1="232" x2="79.4" y2="370" stroke="#f4f4f4"/>
<text x="79.4" y="381" text-anchor="middle" font-size="8" fill="#999">2k</text>
<line x1="116.0" y1="232" x2="116.0" y2="370" stroke="#f4f4f4"/>
<text x="116.0" y="381" text-anchor="middle" font-size="8" fill="#999">9k</text>
<line x1="149.4" y1="232" x2="149.4" y2="370" stroke="#f4f4f4"/>
<text x="149.4" y="381" text-anchor="middle" font-size="8" fill="#999">29k</text>
<line x1="186.0" y1="232" x2="186.0" y2="370" stroke="#f4f4f4"/>
<text x="186.0" y="381" text-anchor="middle" font-size="8" fill="#999">97k</text>
<line x1="219.4" y1="232" x2="219.4" y2="370" stroke="#f4f4f4"/>
<text x="219.4" y="381" text-anchor="middle" font-size="8" fill="#999">292k</text>
<line x1="256.0" y1="232" x2="256.0" y2="370" stroke="#f4f4f4"/>
<text x="256.0" y="381" text-anchor="middle" font-size="8" fill="#999">976k</text>
<rect x="276" y="232" width="210" height="138" fill="none" stroke="#e2e2e2"/>
<line x1="276" y1="308.204633403519" x2="486" y2="308.204633403519" stroke="#d33" stroke-dasharray="4 3"/>
<text x="272" y="373.0" text-anchor="end" font-size="9" fill="#999">0.5×</text>
<text x="272" y="311.204633403519" text-anchor="end" font-size="9" fill="#999">1.0×</text>
<text x="272" y="235.03191004856825" text-anchor="end" font-size="9" fill="#999">2.35×</text>
<polygon points="276.0,285.9 309.4,288.7 346.0,280.3 379.4,279.1 416.0,276.3 449.4,274.1 486.0,279.0 486.0,323.4 449.4,319.8 416.0,322.3 379.4,333.4 346.0,334.9 309.4,349.4 276.0,347.6" fill="#d62728" opacity="0.11"/>
<polyline points="276.0,306.8 309.4,311.1 346.0,302.3 379.4,301.6 416.0,298.0 449.4,292.1 486.0,297.6" fill="none" stroke="#d62728" stroke-width="1.6"/>
<circle cx="276.0" cy="306.8" r="2" fill="#d62728"/>
<circle cx="309.4" cy="311.1" r="2" fill="#d62728"/>
<circle cx="346.0" cy="302.3" r="2" fill="#d62728"/>
<circle cx="379.4" cy="301.6" r="2" fill="#d62728"/>
<circle cx="416.0" cy="298.0" r="2" fill="#d62728"/>
<circle cx="449.4" cy="292.1" r="2" fill="#d62728"/>
<circle cx="486.0" cy="297.6" r="2" fill="#d62728"/>
<polygon points="276.0,248.4 309.4,238.9 346.0,240.0 379.4,241.9 416.0,245.2 449.4,238.9 486.0,242.3 486.0,284.1 449.4,292.7 416.0,300.9 379.4,309.3 346.0,308.4 309.4,307.0 276.0,306.8" fill="#2ca02c" opacity="0.11"/>
<polyline points="276.0,272.4 309.4,264.0 346.0,265.4 379.4,267.9 416.0,266.9 449.4,254.0 486.0,260.0" fill="none" stroke="#2ca02c" stroke-width="1.6"/>
<circle cx="276.0" cy="272.4" r="2" fill="#2ca02c"/>
<circle cx="309.4" cy="264.0" r="2" fill="#2ca02c"/>
<circle cx="346.0" cy="265.4" r="2" fill="#2ca02c"/>
<circle cx="379.4" cy="267.9" r="2" fill="#2ca02c"/>
<circle cx="416.0" cy="266.9" r="2" fill="#2ca02c"/>
<circle cx="449.4" cy="254.0" r="2" fill="#2ca02c"/>
<circle cx="486.0" cy="260.0" r="2" fill="#2ca02c"/>
<polygon points="276.0,270.1 309.4,267.6 346.0,259.5 379.4,261.8 416.0,254.6 449.4,257.9 486.0,257.9 486.0,309.7 449.4,309.6 416.0,298.8 379.4,304.8 346.0,304.5 309.4,316.8 276.0,319.7" fill="#1f77b4" opacity="0.11"/>
<polyline points="276.0,293.2 309.4,287.4 346.0,278.1 379.4,278.7 416.0,275.3 449.4,275.1 486.0,282.3" fill="none" stroke="#1f77b4" stroke-width="1.6"/>
<circle cx="276.0" cy="293.2" r="2" fill="#1f77b4"/>
<circle cx="309.4" cy="287.4" r="2" fill="#1f77b4"/>
<circle cx="346.0" cy="278.1" r="2" fill="#1f77b4"/>
<circle cx="379.4" cy="278.7" r="2" fill="#1f77b4"/>
<circle cx="416.0" cy="275.3" r="2" fill="#1f77b4"/>
<circle cx="449.4" cy="275.1" r="2" fill="#1f77b4"/>
<circle cx="486.0" cy="282.3" r="2" fill="#1f77b4"/>
<text x="381.0" y="227" text-anchor="middle" font-size="12" font-weight="bold">iamax</text>
<line x1="276.0" y1="232" x2="276.0" y2="370" stroke="#f4f4f4"/>
<text x="276.0" y="381" text-anchor="middle" font-size="8" fill="#999">1000</text>
<line x1="309.4" y1="232" x2="309.4" y2="370" stroke="#f4f4f4"/>
<text x="309.4" y="381" text-anchor="middle" font-size="8" fill="#999">2k</text>
<line x1="346.0" y1="232" x2="346.0" y2="370" stroke="#f4f4f4"/>
<text x="346.0" y="381" text-anchor="middle" font-size="8" fill="#999">9k</text>
<line x1="379.4" y1="232" x2="379.4" y2="370" stroke="#f4f4f4"/>
<text x="379.4" y="381" text-anchor="middle" font-size="8" fill="#999">29k</text>
<line x1="416.0" y1="232" x2="416.0" y2="370" stroke="#f4f4f4"/>
<text x="416.0" y="381" text-anchor="middle" font-size="8" fill="#999">97k</text>
<line x1="449.4" y1="232" x2="449.4" y2="370" stroke="#f4f4f4"/>
<text x="449.4" y="381" text-anchor="middle" font-size="8" fill="#999">292k</text>
<line x1="486.0" y1="232" x2="486.0" y2="370" stroke="#f4f4f4"/>
<text x="486.0" y="381" text-anchor="middle" font-size="8" fill="#999">976k</text>
</svg>
