<svg xmlns="http://www.w3.org/2000/svg" width="900" height="460" font-family="sans-serif">
<rect width="900" height="460" fill="white"/>
<text x="450.0" y="28" text-anchor="middle" font-size="18" font-weight="bold">BLAS-3: PureBLAS / OpenBLAS (AVX-512, 1 thread, Float64)</text>
<line x1="62" y1="400.0" x2="768" y2="400.0" stroke="#eee"/>
<text x="54" y="404.0" text-anchor="end" font-size="11" fill="#666">0.5×</text>
<line x1="62" y1="323.24473752198224" x2="768" y2="323.24473752198224" stroke="#eee"/>
<text x="54" y="327.24473752198224" text-anchor="end" font-size="11" fill="#666">0.7×</text>
<line x1="62" y1="241.8808805325889" x2="768" y2="241.8808805325889" stroke="#eee"/>
<text x="54" y="245.8808805325889" text-anchor="end" font-size="11" fill="#666">1.0×</text>
<line x1="62" y1="149.38712499710485" x2="768" y2="149.38712499710485" stroke="#eee"/>
<text x="54" y="153.38712499710485" text-anchor="end" font-size="11" fill="#666">1.5×</text>
<line x1="62" y1="83.76176106517778" x2="768" y2="83.76176106517778" stroke="#eee"/>
<text x="54" y="87.76176106517778" text-anchor="end" font-size="11" fill="#666">2.0×</text>
<line x1="62.0" y1="50" x2="62.0" y2="400" stroke="#f4f4f4"/>
<text x="62.0" y="418" text-anchor="middle" font-size="11" fill="#444">8</text>
<line x1="238.5" y1="50" x2="238.5" y2="400" stroke="#f4f4f4"/>
<text x="238.5" y="418" text-anchor="middle" font-size="11" fill="#444">32</text>
<line x1="415.0" y1="50" x2="415.0" y2="400" stroke="#f4f4f4"/>
<text x="415.0" y="418" text-anchor="middle" font-size="11" fill="#444">128</text>
<line x1="503.25" y1="50" x2="503.25" y2="400" stroke="#f4f4f4"/>
<text x="503.25" y="418" text-anchor="middle" font-size="11" fill="#444">256</text>
<line x1="591.5" y1="50" x2="591.5" y2="400" stroke="#f4f4f4"/>
<text x="591.5" y="418" text-anchor="middle" font-size="11" fill="#444">512</text>
<line x1="679.75" y1="50" x2="679.75" y2="400" stroke="#f4f4f4"/>
<text x="679.75" y="418" text-anchor="middle" font-size="11" fill="#444">1024</text>
<line x1="768.0" y1="50" x2="768.0" y2="400" stroke="#f4f4f4"/>
<text x="768.0" y="418" text-anchor="middle" font-size="11" fill="#444">2048</text>
<line x1="62" y1="241.8808805325889" x2="768" y2="241.8808805325889" stroke="#888"/>
<line x1="62" y1="251.19309878792666" x2="768" y2="251.19309878792666" stroke="#d33" stroke-width="1.5" stroke-dasharray="6 4"/>
<text x="66" y="246.19309878792666" font-size="11" fill="#d33">0.96× gate</text>
<polygon points="62.0,196.6 238.5,281.1 415.0,185.6 503.2,224.0 591.5,239.4 679.8,237.3 768.0,221.4 768.0,221.7 679.8,238.1 591.5,240.7 503.2,227.5 415.0,204.3 238.5,291.2 62.0,222.6" fill="#1f77b4" opacity="0.14" stroke="none"/>
<polyline points="62.0,204.1 238.5,283.8 415.0,195.4 503.2,225.5 591.5,240.0 679.8,237.4 768.0,221.6" fill="none" stroke="#1f77b4" stroke-width="2"/>
<circle cx="62.0" cy="204.1" r="3" fill="#1f77b4"/>
<circle cx="238.5" cy="283.8" r="3" fill="#1f77b4"/>
<circle cx="415.0" cy="195.4" r="3" fill="#1f77b4"/>
<circle cx="503.2" cy="225.5" r="3" fill="#1f77b4"/>
<circle cx="591.5" cy="240.0" r="3" fill="#1f77b4"/>
<circle cx="679.8" cy="237.4" r="3" fill="#1f77b4"/>
<circle cx="768.0" cy="221.6" r="3" fill="#1f77b4"/>
<line x1="782" y1="56" x2="802" y2="56" stroke="#1f77b4" stroke-width="3"/>
<text x="806" y="60" font-size="12">gemm</text>
<polygon points="62.0,115.1 238.5,162.5 415.0,203.4 503.2,207.1 591.5,213.1 679.8,213.5 768.0,215.9 768.0,216.4 679.8,214.1 591.5,213.7 503.2,211.2 415.0,208.9 238.5,164.2 62.0,130.9" fill="#d62728" opacity="0.14" stroke="none"/>
<polyline points="62.0,117.6 238.5,163.6 415.0,206.2 503.2,208.1 591.5,213.3 679.8,213.9 768.0,216.3" fill="none" stroke="#d62728" stroke-width="2"/>
<circle cx="62.0" cy="117.6" r="3" fill="#d62728"/>
<circle cx="238.5" cy="163.6" r="3" fill="#d62728"/>
<circle cx="415.0" cy="206.2" r="3" fill="#d62728"/>
<circle cx="503.2" cy="208.1" r="3" fill="#d62728"/>
<circle cx="591.5" cy="213.3" r="3" fill="#d62728"/>
<circle cx="679.8" cy="213.9" r="3" fill="#d62728"/>
<circle cx="768.0" cy="216.3" r="3" fill="#d62728"/>
<line x1="782" y1="74" x2="802" y2="74" stroke="#d62728" stroke-width="3"/>
<text x="806" y="78" font-size="12">zgemm</text>
<polygon points="62.0,194.2 238.5,199.9 415.0,201.0 503.2,255.7 591.5,238.5 679.8,237.3 768.0,243.3 768.0,243.5 679.8,237.9 591.5,240.1 503.2,264.7 415.0,212.4 238.5,207.3 62.0,224.4" fill="#2ca02c" opacity="0.14" stroke="none"/>
<polyline points="62.0,223.2 238.5,206.2 415.0,205.0 503.2,261.1 591.5,239.6 679.8,237.6 768.0,243.4" fill="none" stroke="#2ca02c" stroke-width="2"/>
<circle cx="62.0" cy="223.2" r="3" fill="#2ca02c"/>
<circle cx="238.5" cy="206.2" r="3" fill="#2ca02c"/>
<circle cx="415.0" cy="205.0" r="3" fill="#2ca02c"/>
<circle cx="503.2" cy="261.1" r="3" fill="#2ca02c"/>
<circle cx="591.5" cy="239.6" r="3" fill="#2ca02c"/>
<circle cx="679.8" cy="237.6" r="3" fill="#2ca02c"/>
<circle cx="768.0" cy="243.4" r="3" fill="#2ca02c"/>
<line x1="782" y1="92" x2="802" y2="92" stroke="#2ca02c" stroke-width="3"/>
<text x="806" y="96" font-size="12">symm</text>
<polygon points="62.0,181.6 238.5,199.8 415.0,198.7 503.2,218.0 591.5,221.5 679.8,236.6 768.0,250.8 768.0,251.4 679.8,237.3 591.5,223.4 503.2,222.2 415.0,209.3 238.5,207.7 62.0,185.0" fill="#9467bd" opacity="0.14" stroke="none"/>
<polyline points="62.0,184.7 238.5,203.9 415.0,207.8 503.2,221.1 591.5,222.2 679.8,237.1 768.0,251.1" fill="none" stroke="#9467bd" stroke-width="2"/>
<circle cx="62.0" cy="184.7" r="3" fill="#9467bd"/>
<circle cx="238.5" cy="203.9" r="3" fill="#9467bd"/>
<circle cx="415.0" cy="207.8" r="3" fill="#9467bd"/>
<circle cx="503.2" cy="221.1" r="3" fill="#9467bd"/>
<circle cx="591.5" cy="222.2" r="3" fill="#9467bd"/>
<circle cx="679.8" cy="237.1" r="3" fill="#9467bd"/>
<circle cx="768.0" cy="251.1" r="3" fill="#9467bd"/>
<line x1="782" y1="110" x2="802" y2="110" stroke="#9467bd" stroke-width="3"/>
<text x="806" y="114" font-size="12">syrk</text>
<polygon points="62.0,136.5 238.5,187.1 415.0,186.0 503.2,201.8 591.5,228.1 679.8,243.3 768.0,250.2 768.0,250.4 679.8,243.8 591.5,229.6 503.2,209.2 415.0,194.9 238.5,189.2 62.0,157.4" fill="#ff7f0e" opacity="0.14" stroke="none"/>
<polyline points="62.0,146.9 238.5,188.3 415.0,194.3 503.2,204.9 591.5,228.6 679.8,243.4 768.0,250.3" fill="none" stroke="#ff7f0e" stroke-width="2"/>
<circle cx="62.0" cy="146.9" r="3" fill="#ff7f0e"/>
<circle cx="238.5" cy="188.3" r="3" fill="#ff7f0e"/>
<circle cx="415.0" cy="194.3" r="3" fill="#ff7f0e"/>
<circle cx="503.2" cy="204.9" r="3" fill="#ff7f0e"/>
<circle cx="591.5" cy="228.6" r="3" fill="#ff7f0e"/>
<circle cx="679.8" cy="243.4" r="3" fill="#ff7f0e"/>
<circle cx="768.0" cy="250.3" r="3" fill="#ff7f0e"/>
<line x1="782" y1="128" x2="802" y2="128" stroke="#ff7f0e" stroke-width="3"/>
<text x="806" y="132" font-size="12">syr2k</text>
<polygon points="62.0,198.3 238.5,224.4 415.0,193.9 503.2,216.4 591.5,241.3 679.8,246.0 768.0,249.0 768.0,250.1 679.8,246.9 591.5,243.9 503.2,220.8 415.0,214.3 238.5,226.5 62.0,206.0" fill="#17becf" opacity="0.14" stroke="none"/>
<polyline points="62.0,200.7 238.5,225.4 415.0,204.2 503.2,219.1 591.5,241.8 679.8,246.5 768.0,249.4" fill="none" stroke="#17becf" stroke-width="2"/>
<circle cx="62.0" cy="200.7" r="3" fill="#17becf"/>
<circle cx="238.5" cy="225.4" r="3" fill="#17becf"/>
<circle cx="415.0" cy="204.2" r="3" fill="#17becf"/>
<circle cx="503.2" cy="219.1" r="3" fill="#17becf"/>
<circle cx="591.5" cy="241.8" r="3" fill="#17becf"/>
<circle cx="679.8" cy="246.5" r="3" fill="#17becf"/>
<circle cx="768.0" cy="249.4" r="3" fill="#17becf"/>
<line x1="782" y1="146" x2="802" y2="146" stroke="#17becf" stroke-width="3"/>
<text x="806" y="150" font-size="12">trmm</text>
<polygon points="62.0,158.8 238.5,106.8 415.0,81.0 503.2,83.3 591.5,171.4 679.8,198.0 768.0,222.6 768.0,226.6 679.8,198.6 591.5,173.4 503.2,87.7 415.0,82.8 238.5,117.6 62.0,182.7" fill="#8c564b" opacity="0.14" stroke="none"/>
<polyline points="62.0,176.0 238.5,112.7 415.0,81.9 503.2,85.9 591.5,172.1 679.8,198.4 768.0,223.6" fill="none" stroke="#8c564b" stroke-width="2"/>
<circle cx="62.0" cy="176.0" r="3" fill="#8c564b"/>
<circle cx="238.5" cy="112.7" r="3" fill="#8c564b"/>
<circle cx="415.0" cy="81.9" r="3" fill="#8c564b"/>
<circle cx="503.2" cy="85.9" r="3" fill="#8c564b"/>
<circle cx="591.5" cy="172.1" r="3" fill="#8c564b"/>
<circle cx="679.8" cy="198.4" r="3" fill="#8c564b"/>
<circle cx="768.0" cy="223.6" r="3" fill="#8c564b"/>
<line x1="782" y1="164" x2="802" y2="164" stroke="#8c564b" stroke-width="3"/>
<text x="806" y="168" font-size="12">trsm</text>
<text x="415.0" y="450" text-anchor="middle" font-size="11" fill="#666">matrix size n (log) · y = median ratio (log) · dashed = the 0.96× gate</text>
</svg>
