<svg xmlns="http://www.w3.org/2000/svg" width="962" height="592" font-family="sans-serif">
<rect width="962" height="592" fill="white"/>
<text x="481.0" y="26" text-anchor="middle" font-size="17" font-weight="bold">BLAS-2 — PB / Accelerate ratio</text>
<line x1="46" y1="42" x2="68" y2="42" stroke="#888888" stroke-width="3"/>
<text x="73" y="46" font-size="12">ARM · NEON</text>
<rect x="46" y="60" width="210" height="138" fill="none" stroke="#e2e2e2"/>
<line x1="46" y1="110.52262586854665" x2="256" y2="110.52262586854665" stroke="#d33" stroke-dasharray="4 3"/>
<text x="42" y="113.52262586854665" text-anchor="end" font-size="9" fill="#999">1.0×</text>
<text x="42" y="63.0" text-anchor="end" font-size="9" fill="#999">1.6×</text>
<polygon points="46.0,129.2 57.8,187.8 79.0,137.4 90.8,143.9 123.8,125.8 156.9,107.9 188.8,90.1 189.9,103.1 223.0,88.2 224.2,117.7 256.0,99.6 256.0,103.0 224.2,124.3 223.0,97.8 189.9,106.5 188.8,95.5 156.9,110.5 123.8,127.7 90.8,154.0 79.0,139.4 57.8,190.2 46.0,179.1" fill="#888888" opacity="0.11"/>
<polyline points="46.0,137.6 57.8,189.5 79.0,138.5 90.8,144.9 123.8,126.6 156.9,108.7 188.8,92.5 189.9,105.0 223.0,93.6 224.2,119.0 256.0,101.8" fill="none" stroke="#888888" stroke-width="1.6"/>
<circle cx="46.0" cy="137.6" r="2" fill="#888888"/>
<circle cx="57.8" cy="189.5" r="2" fill="#888888"/>
<circle cx="79.0" cy="138.5" r="2" fill="#888888"/>
<circle cx="90.8" cy="144.9" r="2" fill="#888888"/>
<circle cx="123.8" cy="126.6" r="2" fill="#888888"/>
<circle cx="156.9" cy="108.7" r="2" fill="#888888"/>
<circle cx="188.8" cy="92.5" r="2" fill="#888888"/>
<circle cx="189.9" cy="105.0" r="2" fill="#888888"/>
<circle cx="223.0" cy="93.6" r="2" fill="#888888"/>
<circle cx="224.2" cy="119.0" r="2" fill="#888888"/>
<circle cx="256.0" cy="101.8" r="2" fill="#888888"/>
<text x="151.0" y="55" text-anchor="middle" font-size="12" font-weight="bold">gemvN</text>
<line x1="46.0" y1="60" x2="46.0" y2="198" stroke="#f4f4f4"/>
<text x="46.0" y="209" text-anchor="middle" font-size="8" fill="#999">50</text>
<line x1="57.8" y1="60" x2="57.8" y2="198" stroke="#f4f4f4"/>
<text x="57.8" y="209" text-anchor="middle" font-size="8" fill="#999">64</text>
<line x1="79.0" y1="60" x2="79.0" y2="198" stroke="#f4f4f4"/>
<text x="79.0" y="209" text-anchor="middle" font-size="8" fill="#999">100</text>
<line x1="90.8" y1="60" x2="90.8" y2="198" stroke="#f4f4f4"/>
<text x="90.8" y="209" text-anchor="middle" font-size="8" fill="#999">128</text>
<line x1="123.8" y1="60" x2="123.8" y2="198" stroke="#f4f4f4"/>
<text x="123.8" y="209" text-anchor="middle" font-size="8" fill="#999">256</text>
<line x1="156.9" y1="60" x2="156.9" y2="198" stroke="#f4f4f4"/>
<text x="156.9" y="209" text-anchor="middle" font-size="8" fill="#999">512</text>
<line x1="188.8" y1="60" x2="188.8" y2="198" stroke="#f4f4f4"/>
<text x="188.8" y="209" text-anchor="middle" font-size="8" fill="#999">1000</text>
<line x1="189.9" y1="60" x2="189.9" y2="198" stroke="#f4f4f4"/>
<text x="189.9" y="209" text-anchor="middle" font-size="8" fill="#999">1k</text>
<line x1="223.0" y1="60" x2="223.0" y2="198" stroke="#f4f4f4"/>
<text x="223.0" y="209" text-anchor="middle" font-size="8" fill="#999">2k</text>
<line x1="224.2" y1="60" x2="224.2" y2="198" stroke="#f4f4f4"/>
<text x="224.2" y="209" text-anchor="middle" font-size="8" fill="#999">2k</text>
<line x1="256.0" y1="60" x2="256.0" y2="198" stroke="#f4f4f4"/>
<text x="256.0" y="209" text-anchor="middle" font-size="8" fill="#999">4k</text>
<rect x="276" y="60" width="210" height="138" fill="none" stroke="#e2e2e2"/>
<line x1="276" y1="101.09231732396043" x2="486" y2="101.09231732396043" stroke="#d33" stroke-dasharray="4 3"/>
<text x="272" y="200.1385377742114" text-anchor="end" font-size="9" fill="#999">0.31×</text>
<text x="272" y="104.09231732396043" text-anchor="end" font-size="9" fill="#999">1.0×</text>
<text x="272" y="63.02480314512684" text-anchor="end" font-size="9" fill="#999">1.65×</text>
<polygon points="276.0,66.3 287.8,141.4 309.0,128.4 320.8,190.9 353.8,141.0 386.9,117.3 418.8,119.3 419.9,107.0 453.0,98.1 454.2,107.3 486.0,105.0 486.0,105.6 454.2,109.8 453.0,100.3 419.9,108.5 418.8,123.3 386.9,119.9 353.8,142.7 320.8,192.0 309.0,138.7 287.8,145.5 276.0,74.0" fill="#888888" opacity="0.11"/>
<polyline points="276.0,69.4 287.8,143.5 309.0,128.7 320.8,191.5 353.8,142.2 386.9,118.8 418.8,121.6 419.9,107.7 453.0,99.3 454.2,108.5 486.0,105.3" fill="none" stroke="#888888" stroke-width="1.6"/>
<circle cx="276.0" cy="69.4" r="2" fill="#888888"/>
<circle cx="287.8" cy="143.5" r="2" fill="#888888"/>
<circle cx="309.0" cy="128.7" r="2" fill="#888888"/>
<circle cx="320.8" cy="191.5" r="2" fill="#888888"/>
<circle cx="353.8" cy="142.2" r="2" fill="#888888"/>
<circle cx="386.9" cy="118.8" r="2" fill="#888888"/>
<circle cx="418.8" cy="121.6" r="2" fill="#888888"/>
<circle cx="419.9" cy="107.7" r="2" fill="#888888"/>
<circle cx="453.0" cy="99.3" r="2" fill="#888888"/>
<circle cx="454.2" cy="108.5" r="2" fill="#888888"/>
<circle cx="486.0" cy="105.3" r="2" fill="#888888"/>
<text x="381.0" y="55" text-anchor="middle" font-size="12" font-weight="bold">gemvT</text>
<line x1="276.0" y1="60" x2="276.0" y2="198" stroke="#f4f4f4"/>
<text x="276.0" y="209" text-anchor="middle" font-size="8" fill="#999">50</text>
<line x1="287.8" y1="60" x2="287.8" y2="198" stroke="#f4f4f4"/>
<text x="287.8" y="209" text-anchor="middle" font-size="8" fill="#999">64</text>
<line x1="309.0" y1="60" x2="309.0" y2="198" stroke="#f4f4f4"/>
<text x="309.0" y="209" text-anchor="middle" font-size="8" fill="#999">100</text>
<line x1="320.8" y1="60" x2="320.8" y2="198" stroke="#f4f4f4"/>
<text x="320.8" y="209" text-anchor="middle" font-size="8" fill="#999">128</text>
<line x1="353.8" y1="60" x2="353.8" y2="198" stroke="#f4f4f4"/>
<text x="353.8" y="209" text-anchor="middle" font-size="8" fill="#999">256</text>
<line x1="386.9" y1="60" x2="386.9" y2="198" stroke="#f4f4f4"/>
<text x="386.9" y="209" text-anchor="middle" font-size="8" fill="#999">512</text>
<line x1="418.8" y1="60" x2="418.8" y2="198" stroke="#f4f4f4"/>
<text x="418.8" y="209" text-anchor="middle" font-size="8" fill="#999">1000</text>
<line x1="419.9" y1="60" x2="419.9" y2="198" stroke="#f4f4f4"/>
<text x="419.9" y="209" text-anchor="middle" font-size="8" fill="#999">1k</text>
<line x1="453.0" y1="60" x2="453.0" y2="198" stroke="#f4f4f4"/>
<text x="453.0" y="209" text-anchor="middle" font-size="8" fill="#999">2k</text>
<line x1="454.2" y1="60" x2="454.2" y2="198" stroke="#f4f4f4"/>
<text x="454.2" y="209" text-anchor="middle" font-size="8" fill="#999">2k</text>
<line x1="486.0" y1="60" x2="486.0" y2="198" stroke="#f4f4f4"/>
<text x="486.0" y="209" text-anchor="middle" font-size="8" fill="#999">4k</text>
<rect x="506" y="60" width="210" height="138" fill="none" stroke="#e2e2e2"/>
<line x1="506" y1="115.76276119065531" x2="716" y2="115.76276119065531" stroke="#d33" stroke-dasharray="4 3"/>
<text x="502" y="201.0" text-anchor="end" font-size="9" fill="#999">0.5×</text>
<text x="502" y="118.76276119065531" text-anchor="end" font-size="9" fill="#999">1.0×</text>
<text x="502" y="63.0" text-anchor="end" font-size="9" fill="#999">1.6×</text>
<polygon points="506.0,116.8 520.0,115.1 545.2,168.5 559.2,119.4 598.4,122.6 637.6,121.6 675.5,126.5 676.8,121.4 716.0,139.9 716.0,159.7 676.8,122.8 675.5,127.7 637.6,123.0 598.4,122.9 559.2,121.1 545.2,171.3 520.0,116.0 506.0,126.7" fill="#888888" opacity="0.11"/>
<polyline points="506.0,121.2 520.0,115.4 545.2,170.0 559.2,120.1 598.4,122.8 637.6,121.7 675.5,126.7 676.8,121.8 716.0,152.8" fill="none" stroke="#888888" stroke-width="1.6"/>
<circle cx="506.0" cy="121.2" r="2" fill="#888888"/>
<circle cx="520.0" cy="115.4" r="2" fill="#888888"/>
<circle cx="545.2" cy="170.0" r="2" fill="#888888"/>
<circle cx="559.2" cy="120.1" r="2" fill="#888888"/>
<circle cx="598.4" cy="122.8" r="2" fill="#888888"/>
<circle cx="637.6" cy="121.7" r="2" fill="#888888"/>
<circle cx="675.5" cy="126.7" r="2" fill="#888888"/>
<circle cx="676.8" cy="121.8" r="2" fill="#888888"/>
<circle cx="716.0" cy="152.8" r="2" fill="#888888"/>
<text x="611.0" y="55" text-anchor="middle" font-size="12" font-weight="bold">ger</text>
<line x1="506.0" y1="60" x2="506.0" y2="198" stroke="#f4f4f4"/>
<text x="506.0" y="209" text-anchor="middle" font-size="8" fill="#999">50</text>
<line x1="520.0" y1="60" x2="520.0" y2="198" stroke="#f4f4f4"/>
<text x="520.0" y="209" text-anchor="middle" font-size="8" fill="#999">64</text>
<line x1="545.2" y1="60" x2="545.2" y2="198" stroke="#f4f4f4"/>
<text x="545.2" y="209" text-anchor="middle" font-size="8" fill="#999">100</text>
<line x1="559.2" y1="60" x2="559.2" y2="198" stroke="#f4f4f4"/>
<text x="559.2" y="209" text-anchor="middle" font-size="8" fill="#999">128</text>
<line x1="598.4" y1="60" x2="598.4" y2="198" stroke="#f4f4f4"/>
<text x="598.4" y="209" text-anchor="middle" font-size="8" fill="#999">256</text>
<line x1="637.6" y1="60" x2="637.6" y2="198" stroke="#f4f4f4"/>
<text x="637.6" y="209" text-anchor="middle" font-size="8" fill="#999">512</text>
<line x1="675.5" y1="60" x2="675.5" y2="198" stroke="#f4f4f4"/>
<text x="675.5" y="209" text-anchor="middle" font-size="8" fill="#999">1000</text>
<line x1="676.8" y1="60" x2="676.8" y2="198" stroke="#f4f4f4"/>
<text x="676.8" y="209" text-anchor="middle" font-size="8" fill="#999">1k</text>
<line x1="716.0" y1="60" x2="716.0" y2="198" stroke="#f4f4f4"/>
<text x="716.0" y="209" text-anchor="middle" font-size="8" fill="#999">2k</text>
<rect x="736" y="60" width="210" height="138" fill="none" stroke="#e2e2e2"/>
<line x1="736" y1="155.73230819160227" x2="946" y2="155.73230819160227" stroke="#d33" stroke-dasharray="4 3"/>
<text x="732" y="201.0" text-anchor="end" font-size="9" fill="#999">0.5×</text>
<text x="732" y="158.73230819160227" text-anchor="end" font-size="9" fill="#999">1.0×</text>
<polygon points="736.0,64.7 747.8,88.8 769.0,110.6 780.8,129.2 813.8,159.7 846.9,149.5 878.8,152.6 879.9,131.5 913.0,71.7 914.2,103.2 946.0,78.9 946.0,83.1 914.2,127.1 913.0,81.0 879.9,132.9 878.8,153.2 846.9,150.0 813.8,159.8 780.8,129.7 769.0,111.3 747.8,92.1 736.0,65.9" fill="#888888" opacity="0.11"/>
<polyline points="736.0,64.9 747.8,89.1 769.0,110.9 780.8,129.5 813.8,159.8 846.9,149.8 878.8,152.9 879.9,132.7 913.0,74.9 914.2,122.5 946.0,82.7" fill="none" stroke="#888888" stroke-width="1.6"/>
<circle cx="736.0" cy="64.9" r="2" fill="#888888"/>
<circle cx="747.8" cy="89.1" r="2" fill="#888888"/>
<circle cx="769.0" cy="110.9" r="2" fill="#888888"/>
<circle cx="780.8" cy="129.5" r="2" fill="#888888"/>
<circle cx="813.8" cy="159.8" r="2" fill="#888888"/>
<circle cx="846.9" cy="149.8" r="2" fill="#888888"/>
<circle cx="878.8" cy="152.9" r="2" fill="#888888"/>
<circle cx="879.9" cy="132.7" r="2" fill="#888888"/>
<circle cx="913.0" cy="74.9" r="2" fill="#888888"/>
<circle cx="914.2" cy="122.5" r="2" fill="#888888"/>
<circle cx="946.0" cy="82.7" r="2" fill="#888888"/>
<text x="841.0" y="55" text-anchor="middle" font-size="12" font-weight="bold">symv</text>
<line x1="736.0" y1="60" x2="736.0" y2="198" stroke="#f4f4f4"/>
<text x="736.0" y="209" text-anchor="middle" font-size="8" fill="#999">50</text>
<line x1="747.8" y1="60" x2="747.8" y2="198" stroke="#f4f4f4"/>
<text x="747.8" y="209" text-anchor="middle" font-size="8" fill="#999">64</text>
<line x1="769.0" y1="60" x2="769.0" y2="198" stroke="#f4f4f4"/>
<text x="769.0" y="209" text-anchor="middle" font-size="8" fill="#999">100</text>
<line x1="780.8" y1="60" x2="780.8" y2="198" stroke="#f4f4f4"/>
<text x="780.8" y="209" text-anchor="middle" font-size="8" fill="#999">128</text>
<line x1="813.8" y1="60" x2="813.8" y2="198" stroke="#f4f4f4"/>
<text x="813.8" y="209" text-anchor="middle" font-size="8" fill="#999">256</text>
<line x1="846.9" y1="60" x2="846.9" y2="198" stroke="#f4f4f4"/>
<text x="846.9" y="209" text-anchor="middle" font-size="8" fill="#999">512</text>
<line x1="878.8" y1="60" x2="878.8" y2="198" stroke="#f4f4f4"/>
<text x="878.8" y="209" text-anchor="middle" font-size="8" fill="#999">1000</text>
<line x1="879.9" y1="60" x2="879.9" y2="198" stroke="#f4f4f4"/>
<text x="879.9" y="209" text-anchor="middle" font-size="8" fill="#999">1k</text>
<line x1="913.0" y1="60" x2="913.0" y2="198" stroke="#f4f4f4"/>
<text x="913.0" y="209" text-anchor="middle" font-size="8" fill="#999">2k</text>
<line x1="914.2" y1="60" x2="914.2" y2="198" stroke="#f4f4f4"/>
<text x="914.2" y="209" text-anchor="middle" font-size="8" fill="#999">2k</text>
<line x1="946.0" y1="60" x2="946.0" y2="198" stroke="#f4f4f4"/>
<text x="946.0" y="209" text-anchor="middle" font-size="8" fill="#999">4k</text>
<rect x="46" y="232" width="210" height="138" fill="none" stroke="#e2e2e2"/>
<line x1="46" y1="291.973744597658" x2="256" y2="291.973744597658" stroke="#d33" stroke-dasharray="4 3"/>
<text x="42" y="294.973744597658" text-anchor="end" font-size="9" fill="#999">1.0×</text>
<polygon points="46.0,258.8 57.8,288.7 79.0,321.9 90.8,238.8 123.8,315.5 156.9,362.3 188.8,350.3 189.9,351.5 223.0,298.0 224.2,249.8 256.0,270.6 256.0,275.7 224.2,265.6 223.0,307.3 189.9,352.1 188.8,350.6 156.9,363.6 123.8,316.7 90.8,305.1 79.0,325.1 57.8,296.8 46.0,265.1" fill="#888888" opacity="0.11"/>
<polyline points="46.0,260.9 57.8,291.4 79.0,323.0 90.8,242.3 123.8,315.8 156.9,362.4 188.8,350.5 189.9,351.8 223.0,301.9 224.2,257.7 256.0,273.4" fill="none" stroke="#888888" stroke-width="1.6"/>
<circle cx="46.0" cy="260.9" r="2" fill="#888888"/>
<circle cx="57.8" cy="291.4" r="2" fill="#888888"/>
<circle cx="79.0" cy="323.0" r="2" fill="#888888"/>
<circle cx="90.8" cy="242.3" r="2" fill="#888888"/>
<circle cx="123.8" cy="315.8" r="2" fill="#888888"/>
<circle cx="156.9" cy="362.4" r="2" fill="#888888"/>
<circle cx="188.8" cy="350.5" r="2" fill="#888888"/>
<circle cx="189.9" cy="351.8" r="2" fill="#888888"/>
<circle cx="223.0" cy="301.9" r="2" fill="#888888"/>
<circle cx="224.2" cy="257.7" r="2" fill="#888888"/>
<circle cx="256.0" cy="273.4" r="2" fill="#888888"/>
<text x="151.0" y="227" text-anchor="middle" font-size="12" font-weight="bold">trmv</text>
<line x1="46.0" y1="232" x2="46.0" y2="370" stroke="#f4f4f4"/>
<text x="46.0" y="381" text-anchor="middle" font-size="8" fill="#999">50</text>
<line x1="57.8" y1="232" x2="57.8" y2="370" stroke="#f4f4f4"/>
<text x="57.8" y="381" text-anchor="middle" font-size="8" fill="#999">64</text>
<line x1="79.0" y1="232" x2="79.0" y2="370" stroke="#f4f4f4"/>
<text x="79.0" y="381" text-anchor="middle" font-size="8" fill="#999">100</text>
<line x1="90.8" y1="232" x2="90.8" y2="370" stroke="#f4f4f4"/>
<text x="90.8" y="381" text-anchor="middle" font-size="8" fill="#999">128</text>
<line x1="123.8" y1="232" x2="123.8" y2="370" stroke="#f4f4f4"/>
<text x="123.8" y="381" text-anchor="middle" font-size="8" fill="#999">256</text>
<line x1="156.9" y1="232" x2="156.9" y2="370" stroke="#f4f4f4"/>
<text x="156.9" y="381" text-anchor="middle" font-size="8" fill="#999">512</text>
<line x1="188.8" y1="232" x2="188.8" y2="370" stroke="#f4f4f4"/>
<text x="188.8" y="381" text-anchor="middle" font-size="8" fill="#999">1000</text>
<line x1="189.9" y1="232" x2="189.9" y2="370" stroke="#f4f4f4"/>
<text x="189.9" y="381" text-anchor="middle" font-size="8" fill="#999">1k</text>
<line x1="223.0" y1="232" x2="223.0" y2="370" stroke="#f4f4f4"/>
<text x="223.0" y="381" text-anchor="middle" font-size="8" fill="#999">2k</text>
<line x1="224.2" y1="232" x2="224.2" y2="370" stroke="#f4f4f4"/>
<text x="224.2" y="381" text-anchor="middle" font-size="8" fill="#999">2k</text>
<line x1="256.0" y1="232" x2="256.0" y2="370" stroke="#f4f4f4"/>
<text x="256.0" y="381" text-anchor="middle" font-size="8" fill="#999">4k</text>
<rect x="276" y="232" width="210" height="138" fill="none" stroke="#e2e2e2"/>
<line x1="276" y1="295.35490367545606" x2="486" y2="295.35490367545606" stroke="#d33" stroke-dasharray="4 3"/>
<text x="272" y="373.0" text-anchor="end" font-size="9" fill="#999">0.5×</text>
<text x="272" y="298.35490367545606" text-anchor="end" font-size="9" fill="#999">1.0×</text>
<text x="272" y="235.0560929027465" text-anchor="end" font-size="9" fill="#999">1.8×</text>
<polygon points="276.0,290.8 287.8,299.4 309.0,331.1 320.8,336.5 353.8,304.0 386.9,240.3 418.8,281.1 419.9,295.5 453.0,315.4 454.2,296.2 486.0,328.5 486.0,329.9 454.2,324.1 453.0,328.1 419.9,297.6 418.8,301.5 386.9,244.9 353.8,304.9 320.8,337.6 309.0,331.3 287.8,300.4 276.0,302.7" fill="#888888" opacity="0.11"/>
<polyline points="276.0,299.3 287.8,300.0 309.0,331.2 320.8,336.9 353.8,304.2 386.9,241.1 418.8,282.2 419.9,296.0 453.0,318.6 454.2,302.9 486.0,329.3" fill="none" stroke="#888888" stroke-width="1.6"/>
<circle cx="276.0" cy="299.3" r="2" fill="#888888"/>
<circle cx="287.8" cy="300.0" r="2" fill="#888888"/>
<circle cx="309.0" cy="331.2" r="2" fill="#888888"/>
<circle cx="320.8" cy="336.9" r="2" fill="#888888"/>
<circle cx="353.8" cy="304.2" r="2" fill="#888888"/>
<circle cx="386.9" cy="241.1" r="2" fill="#888888"/>
<circle cx="418.8" cy="282.2" r="2" fill="#888888"/>
<circle cx="419.9" cy="296.0" r="2" fill="#888888"/>
<circle cx="453.0" cy="318.6" r="2" fill="#888888"/>
<circle cx="454.2" cy="302.9" r="2" fill="#888888"/>
<circle cx="486.0" cy="329.3" r="2" fill="#888888"/>
<text x="381.0" y="227" text-anchor="middle" font-size="12" font-weight="bold">trsv</text>
<line x1="276.0" y1="232" x2="276.0" y2="370" stroke="#f4f4f4"/>
<text x="276.0" y="381" text-anchor="middle" font-size="8" fill="#999">50</text>
<line x1="287.8" y1="232" x2="287.8" y2="370" stroke="#f4f4f4"/>
<text x="287.8" y="381" text-anchor="middle" font-size="8" fill="#999">64</text>
<line x1="309.0" y1="232" x2="309.0" y2="370" stroke="#f4f4f4"/>
<text x="309.0" y="381" text-anchor="middle" font-size="8" fill="#999">100</text>
<line x1="320.8" y1="232" x2="320.8" y2="370" stroke="#f4f4f4"/>
<text x="320.8" y="381" text-anchor="middle" font-size="8" fill="#999">128</text>
<line x1="353.8" y1="232" x2="353.8" y2="370" stroke="#f4f4f4"/>
<text x="353.8" y="381" text-anchor="middle" font-size="8" fill="#999">256</text>
<line x1="386.9" y1="232" x2="386.9" y2="370" stroke="#f4f4f4"/>
<text x="386.9" y="381" text-anchor="middle" font-size="8" fill="#999">512</text>
<line x1="418.8" y1="232" x2="418.8" y2="370" stroke="#f4f4f4"/>
<text x="418.8" y="381" text-anchor="middle" font-size="8" fill="#999">1000</text>
<line x1="419.9" y1="232" x2="419.9" y2="370" stroke="#f4f4f4"/>
<text x="419.9" y="381" text-anchor="middle" font-size="8" fill="#999">1k</text>
<line x1="453.0" y1="232" x2="453.0" y2="370" stroke="#f4f4f4"/>
<text x="453.0" y="381" text-anchor="middle" font-size="8" fill="#999">2k</text>
<line x1="454.2" y1="232" x2="454.2" y2="370" stroke="#f4f4f4"/>
<text x="454.2" y="381" text-anchor="middle" font-size="8" fill="#999">2k</text>
<line x1="486.0" y1="232" x2="486.0" y2="370" stroke="#f4f4f4"/>
<text x="486.0" y="381" text-anchor="middle" font-size="8" fill="#999">4k</text>
<rect x="506" y="232" width="210" height="138" fill="none" stroke="#e2e2e2"/>
<line x1="506" y1="298.02635311338247" x2="716" y2="298.02635311338247" stroke="#d33" stroke-dasharray="4 3"/>
<text x="502" y="373.0" text-anchor="end" font-size="9" fill="#999">0.5×</text>
<text x="502" y="301.02635311338247" text-anchor="end" font-size="9" fill="#999">1.0×</text>
<polygon points="506.0,314.5 520.0,312.0 545.2,335.9 559.2,335.1 598.4,314.4 637.6,240.0 675.5,282.1 676.8,294.9 716.0,316.5 716.0,327.0 676.8,295.4 675.5,284.2 637.6,240.9 598.4,314.9 559.2,342.1 545.2,336.5 520.0,314.5 506.0,317.3" fill="#888888" opacity="0.11"/>
<polyline points="506.0,316.3 520.0,312.7 545.2,336.2 559.2,336.0 598.4,314.6 637.6,240.2 675.5,282.4 676.8,295.1 716.0,321.7" fill="none" stroke="#888888" stroke-width="1.6"/>
<circle cx="506.0" cy="316.3" r="2" fill="#888888"/>
<circle cx="520.0" cy="312.7" r="2" fill="#888888"/>
<circle cx="545.2" cy="336.2" r="2" fill="#888888"/>
<circle cx="559.2" cy="336.0" r="2" fill="#888888"/>
<circle cx="598.4" cy="314.6" r="2" fill="#888888"/>
<circle cx="637.6" cy="240.2" r="2" fill="#888888"/>
<circle cx="675.5" cy="282.4" r="2" fill="#888888"/>
<circle cx="676.8" cy="295.1" r="2" fill="#888888"/>
<circle cx="716.0" cy="321.7" r="2" fill="#888888"/>
<text x="611.0" y="227" text-anchor="middle" font-size="12" font-weight="bold">trsvLN</text>
<line x1="506.0" y1="232" x2="506.0" y2="370" stroke="#f4f4f4"/>
<text x="506.0" y="381" text-anchor="middle" font-size="8" fill="#999">50</text>
<line x1="520.0" y1="232" x2="520.0" y2="370" stroke="#f4f4f4"/>
<text x="520.0" y="381" text-anchor="middle" font-size="8" fill="#999">64</text>
<line x1="545.2" y1="232" x2="545.2" y2="370" stroke="#f4f4f4"/>
<text x="545.2" y="381" text-anchor="middle" font-size="8" fill="#999">100</text>
<line x1="559.2" y1="232" x2="559.2" y2="370" stroke="#f4f4f4"/>
<text x="559.2" y="381" text-anchor="middle" font-size="8" fill="#999">128</text>
<line x1="598.4" y1="232" x2="598.4" y2="370" stroke="#f4f4f4"/>
<text x="598.4" y="381" text-anchor="middle" font-size="8" fill="#999">256</text>
<line x1="637.6" y1="232" x2="637.6" y2="370" stroke="#f4f4f4"/>
<text x="637.6" y="381" text-anchor="middle" font-size="8" fill="#999">512</text>
<line x1="675.5" y1="232" x2="675.5" y2="370" stroke="#f4f4f4"/>
<text x="675.5" y="381" text-anchor="middle" font-size="8" fill="#999">1000</text>
<line x1="676.8" y1="232" x2="676.8" y2="370" stroke="#f4f4f4"/>
<text x="676.8" y="381" text-anchor="middle" font-size="8" fill="#999">1k</text>
<line x1="716.0" y1="232" x2="716.0" y2="370" stroke="#f4f4f4"/>
<text x="716.0" y="381" text-anchor="middle" font-size="8" fill="#999">2k</text>
<rect x="736" y="232" width="210" height="138" fill="none" stroke="#e2e2e2"/>
<line x1="736" y1="291.353427673687" x2="946" y2="291.353427673687" stroke="#d33" stroke-dasharray="4 3"/>
<text x="732" y="373.0" text-anchor="end" font-size="9" fill="#999">0.5×</text>
<text x="732" y="294.353427673687" text-anchor="end" font-size="9" fill="#999">1.0×</text>
<polygon points="736.0,290.0 750.0,291.1 775.2,286.8 789.2,281.6 828.4,265.0 867.6,240.7 905.5,283.8 906.8,299.3 946.0,310.3 946.0,327.2 906.8,299.8 905.5,284.8 867.6,241.5 828.4,266.3 789.2,282.0 775.2,287.3 750.0,292.2 736.0,290.8" fill="#888888" opacity="0.11"/>
<polyline points="736.0,290.3 750.0,291.5 775.2,287.0 789.2,281.8 828.4,265.5 867.6,241.2 905.5,284.1 906.8,299.6 946.0,317.5" fill="none" stroke="#888888" stroke-width="1.6"/>
<circle cx="736.0" cy="290.3" r="2" fill="#888888"/>
<circle cx="750.0" cy="291.5" r="2" fill="#888888"/>
<circle cx="775.2" cy="287.0" r="2" fill="#888888"/>
<circle cx="789.2" cy="281.8" r="2" fill="#888888"/>
<circle cx="828.4" cy="265.5" r="2" fill="#888888"/>
<circle cx="867.6" cy="241.2" r="2" fill="#888888"/>
<circle cx="905.5" cy="284.1" r="2" fill="#888888"/>
<circle cx="906.8" cy="299.6" r="2" fill="#888888"/>
<circle cx="946.0" cy="317.5" r="2" fill="#888888"/>
<text x="841.0" y="227" text-anchor="middle" font-size="12" font-weight="bold">trsvLT</text>
<line x1="736.0" y1="232" x2="736.0" y2="370" stroke="#f4f4f4"/>
<text x="736.0" y="381" text-anchor="middle" font-size="8" fill="#999">50</text>
<line x1="750.0" y1="232" x2="750.0" y2="370" stroke="#f4f4f4"/>
<text x="750.0" y="381" text-anchor="middle" font-size="8" fill="#999">64</text>
<line x1="775.2" y1="232" x2="775.2" y2="370" stroke="#f4f4f4"/>
<text x="775.2" y="381" text-anchor="middle" font-size="8" fill="#999">100</text>
<line x1="789.2" y1="232" x2="789.2" y2="370" stroke="#f4f4f4"/>
<text x="789.2" y="381" text-anchor="middle" font-size="8" fill="#999">128</text>
<line x1="828.4" y1="232" x2="828.4" y2="370" stroke="#f4f4f4"/>
<text x="828.4" y="381" text-anchor="middle" font-size="8" fill="#999">256</text>
<line x1="867.6" y1="232" x2="867.6" y2="370" stroke="#f4f4f4"/>
<text x="867.6" y="381" text-anchor="middle" font-size="8" fill="#999">512</text>
<line x1="905.5" y1="232" x2="905.5" y2="370" stroke="#f4f4f4"/>
<text x="905.5" y="381" text-anchor="middle" font-size="8" fill="#999">1000</text>
<line x1="906.8" y1="232" x2="906.8" y2="370" stroke="#f4f4f4"/>
<text x="906.8" y="381" text-anchor="middle" font-size="8" fill="#999">1k</text>
<line x1="946.0" y1="232" x2="946.0" y2="370" stroke="#f4f4f4"/>
<text x="946.0" y="381" text-anchor="middle" font-size="8" fill="#999">2k</text>
<rect x="46" y="404" width="210" height="138" fill="none" stroke="#e2e2e2"/>
<line x1="46" y1="459.7627611906553" x2="256" y2="459.7627611906553" stroke="#d33" stroke-dasharray="4 3"/>
<text x="42" y="545.0" text-anchor="end" font-size="9" fill="#999">0.5×</text>
<text x="42" y="462.7627611906553" text-anchor="end" font-size="9" fill="#999">1.0×</text>
<text x="42" y="407.0" text-anchor="end" font-size="9" fill="#999">1.6×</text>
<polygon points="46.0,467.6 60.0,491.7 85.2,505.4 99.2,504.1 138.4,438.4 177.6,452.7 215.5,454.3 216.8,454.4 256.0,453.8 256.0,454.1 216.8,454.6 215.5,454.7 177.6,453.7 138.4,439.7 99.2,505.0 85.2,506.4 60.0,497.0 46.0,471.5" fill="#888888" opacity="0.11"/>
<polyline points="46.0,470.7 60.0,496.1 85.2,506.2 99.2,504.6 138.4,439.1 177.6,453.2 215.5,454.5 216.8,454.5 256.0,454.0" fill="none" stroke="#888888" stroke-width="1.6"/>
<circle cx="46.0" cy="470.7" r="2" fill="#888888"/>
<circle cx="60.0" cy="496.1" r="2" fill="#888888"/>
<circle cx="85.2" cy="506.2" r="2" fill="#888888"/>
<circle cx="99.2" cy="504.6" r="2" fill="#888888"/>
<circle cx="138.4" cy="439.1" r="2" fill="#888888"/>
<circle cx="177.6" cy="453.2" r="2" fill="#888888"/>
<circle cx="215.5" cy="454.5" r="2" fill="#888888"/>
<circle cx="216.8" cy="454.5" r="2" fill="#888888"/>
<circle cx="256.0" cy="454.0" r="2" fill="#888888"/>
<text x="151.0" y="399" text-anchor="middle" font-size="12" font-weight="bold">spmv</text>
<line x1="46.0" y1="404" x2="46.0" y2="542" stroke="#f4f4f4"/>
<text x="46.0" y="553" text-anchor="middle" font-size="8" fill="#999">50</text>
<line x1="60.0" y1="404" x2="60.0" y2="542" stroke="#f4f4f4"/>
<text x="60.0" y="553" text-anchor="middle" font-size="8" fill="#999">64</text>
<line x1="85.2" y1="404" x2="85.2" y2="542" stroke="#f4f4f4"/>
<text x="85.2" y="553" text-anchor="middle" font-size="8" fill="#999">100</text>
<line x1="99.2" y1="404" x2="99.2" y2="542" stroke="#f4f4f4"/>
<text x="99.2" y="553" text-anchor="middle" font-size="8" fill="#999">128</text>
<line x1="138.4" y1="404" x2="138.4" y2="542" stroke="#f4f4f4"/>
<text x="138.4" y="553" text-anchor="middle" font-size="8" fill="#999">256</text>
<line x1="177.6" y1="404" x2="177.6" y2="542" stroke="#f4f4f4"/>
<text x="177.6" y="553" text-anchor="middle" font-size="8" fill="#999">512</text>
<line x1="215.5" y1="404" x2="215.5" y2="542" stroke="#f4f4f4"/>
<text x="215.5" y="553" text-anchor="middle" font-size="8" fill="#999">1000</text>
<line x1="216.8" y1="404" x2="216.8" y2="542" stroke="#f4f4f4"/>
<text x="216.8" y="553" text-anchor="middle" font-size="8" fill="#999">1k</text>
<line x1="256.0" y1="404" x2="256.0" y2="542" stroke="#f4f4f4"/>
<text x="256.0" y="553" text-anchor="middle" font-size="8" fill="#999">2k</text>
<rect x="276" y="404" width="210" height="138" fill="none" stroke="#e2e2e2"/>
<line x1="276" y1="459.7627611906553" x2="486" y2="459.7627611906553" stroke="#d33" stroke-dasharray="4 3"/>
<text x="272" y="545.0" text-anchor="end" font-size="9" fill="#999">0.5×</text>
<text x="272" y="462.7627611906553" text-anchor="end" font-size="9" fill="#999">1.0×</text>
<text x="272" y="407.0" text-anchor="end" font-size="9" fill="#999">1.6×</text>
<polygon points="276.0,446.9 290.0,463.4 315.2,486.3 329.2,497.1 368.4,450.1 407.6,481.8 445.5,491.7 446.8,491.7 486.0,503.1 486.0,504.9 446.8,494.3 445.5,494.1 407.6,485.5 368.4,451.4 329.2,497.7 315.2,487.3 290.0,464.7 276.0,448.5" fill="#888888" opacity="0.11"/>
<polyline points="276.0,447.5 290.0,464.1 315.2,486.8 329.2,497.3 368.4,450.5 407.6,484.2 445.5,493.5 446.8,493.9 486.0,503.9" fill="none" stroke="#888888" stroke-width="1.6"/>
<circle cx="276.0" cy="447.5" r="2" fill="#888888"/>
<circle cx="290.0" cy="464.1" r="2" fill="#888888"/>
<circle cx="315.2" cy="486.8" r="2" fill="#888888"/>
<circle cx="329.2" cy="497.3" r="2" fill="#888888"/>
<circle cx="368.4" cy="450.5" r="2" fill="#888888"/>
<circle cx="407.6" cy="484.2" r="2" fill="#888888"/>
<circle cx="445.5" cy="493.5" r="2" fill="#888888"/>
<circle cx="446.8" cy="493.9" r="2" fill="#888888"/>
<circle cx="486.0" cy="503.9" r="2" fill="#888888"/>
<text x="381.0" y="399" text-anchor="middle" font-size="12" font-weight="bold">gbmvN</text>
<line x1="276.0" y1="404" x2="276.0" y2="542" stroke="#f4f4f4"/>
<text x="276.0" y="553" text-anchor="middle" font-size="8" fill="#999">50</text>
<line x1="290.0" y1="404" x2="290.0" y2="542" stroke="#f4f4f4"/>
<text x="290.0" y="553" text-anchor="middle" font-size="8" fill="#999">64</text>
<line x1="315.2" y1="404" x2="315.2" y2="542" stroke="#f4f4f4"/>
<text x="315.2" y="553" text-anchor="middle" font-size="8" fill="#999">100</text>
<line x1="329.2" y1="404" x2="329.2" y2="542" stroke="#f4f4f4"/>
<text x="329.2" y="553" text-anchor="middle" font-size="8" fill="#999">128</text>
<line x1="368.4" y1="404" x2="368.4" y2="542" stroke="#f4f4f4"/>
<text x="368.4" y="553" text-anchor="middle" font-size="8" fill="#999">256</text>
<line x1="407.6" y1="404" x2="407.6" y2="542" stroke="#f4f4f4"/>
<text x="407.6" y="553" text-anchor="middle" font-size="8" fill="#999">512</text>
<line x1="445.5" y1="404" x2="445.5" y2="542" stroke="#f4f4f4"/>
<text x="445.5" y="553" text-anchor="middle" font-size="8" fill="#999">1000</text>
<line x1="446.8" y1="404" x2="446.8" y2="542" stroke="#f4f4f4"/>
<text x="446.8" y="553" text-anchor="middle" font-size="8" fill="#999">1k</text>
<line x1="486.0" y1="404" x2="486.0" y2="542" stroke="#f4f4f4"/>
<text x="486.0" y="553" text-anchor="middle" font-size="8" fill="#999">2k</text>
<rect x="506" y="404" width="210" height="138" fill="none" stroke="#e2e2e2"/>
<line x1="506" y1="459.7627611906553" x2="716" y2="459.7627611906553" stroke="#d33" stroke-dasharray="4 3"/>
<text x="502" y="545.0" text-anchor="end" font-size="9" fill="#999">0.5×</text>
<text x="502" y="462.7627611906553" text-anchor="end" font-size="9" fill="#999">1.0×</text>
<text x="502" y="407.0" text-anchor="end" font-size="9" fill="#999">1.6×</text>
<polygon points="506.0,488.8 520.0,495.2 545.2,502.0 559.2,502.6 598.4,433.8 637.6,463.3 675.5,480.6 676.8,480.3 716.0,497.4 716.0,499.9 676.8,481.8 675.5,482.2 637.6,464.4 598.4,434.5 559.2,504.5 545.2,503.7 520.0,497.8 506.0,489.8" fill="#888888" opacity="0.11"/>
<polyline points="506.0,489.6 520.0,495.7 545.2,502.3 559.2,503.9 598.4,434.1 637.6,464.0 675.5,481.5 676.8,480.6 716.0,497.7" fill="none" stroke="#888888" stroke-width="1.6"/>
<circle cx="506.0" cy="489.6" r="2" fill="#888888"/>
<circle cx="520.0" cy="495.7" r="2" fill="#888888"/>
<circle cx="545.2" cy="502.3" r="2" fill="#888888"/>
<circle cx="559.2" cy="503.9" r="2" fill="#888888"/>
<circle cx="598.4" cy="434.1" r="2" fill="#888888"/>
<circle cx="637.6" cy="464.0" r="2" fill="#888888"/>
<circle cx="675.5" cy="481.5" r="2" fill="#888888"/>
<circle cx="676.8" cy="480.6" r="2" fill="#888888"/>
<circle cx="716.0" cy="497.7" r="2" fill="#888888"/>
<text x="611.0" y="399" text-anchor="middle" font-size="12" font-weight="bold">sbmv</text>
<line x1="506.0" y1="404" x2="506.0" y2="542" stroke="#f4f4f4"/>
<text x="506.0" y="553" text-anchor="middle" font-size="8" fill="#999">50</text>
<line x1="520.0" y1="404" x2="520.0" y2="542" stroke="#f4f4f4"/>
<text x="520.0" y="553" text-anchor="middle" font-size="8" fill="#999">64</text>
<line x1="545.2" y1="404" x2="545.2" y2="542" stroke="#f4f4f4"/>
<text x="545.2" y="553" text-anchor="middle" font-size="8" fill="#999">100</text>
<line x1="559.2" y1="404" x2="559.2" y2="542" stroke="#f4f4f4"/>
<text x="559.2" y="553" text-anchor="middle" font-size="8" fill="#999">128</text>
<line x1="598.4" y1="404" x2="598.4" y2="542" stroke="#f4f4f4"/>
<text x="598.4" y="553" text-anchor="middle" font-size="8" fill="#999">256</text>
<line x1="637.6" y1="404" x2="637.6" y2="542" stroke="#f4f4f4"/>
<text x="637.6" y="553" text-anchor="middle" font-size="8" fill="#999">512</text>
<line x1="675.5" y1="404" x2="675.5" y2="542" stroke="#f4f4f4"/>
<text x="675.5" y="553" text-anchor="middle" font-size="8" fill="#999">1000</text>
<line x1="676.8" y1="404" x2="676.8" y2="542" stroke="#f4f4f4"/>
<text x="676.8" y="553" text-anchor="middle" font-size="8" fill="#999">1k</text>
<line x1="716.0" y1="404" x2="716.0" y2="542" stroke="#f4f4f4"/>
<text x="716.0" y="553" text-anchor="middle" font-size="8" fill="#999">2k</text>
</svg>
