<svg xmlns="http://www.w3.org/2000/svg" width="900" height="440" font-family="sans-serif">
<rect width="900" height="440" fill="white"/>
<text x="450.0" y="28" text-anchor="middle" font-size="18" font-weight="bold">Complex BLAS-1: PureBLAS / OpenBLAS (AVX2, 1 thread, ComplexF64)</text>
<line x1="60" y1="358.0" x2="880" y2="358.0" stroke="#eee"/>
<text x="52" y="362.0" text-anchor="end" font-size="11" fill="#666">0×</text>
<line x1="60" y1="339.73868766451795" x2="880" y2="339.73868766451795" stroke="#eee"/>
<text x="52" y="343.73868766451795" text-anchor="end" font-size="11" fill="#666">0.5×</text>
<line x1="60" y1="321.47737532903585" x2="880" y2="321.47737532903585" stroke="#eee"/>
<text x="52" y="325.47737532903585" text-anchor="end" font-size="11" fill="#666">1×</text>
<line x1="60" y1="303.2160629935538" x2="880" y2="303.2160629935538" stroke="#eee"/>
<text x="52" y="307.2160629935538" text-anchor="end" font-size="11" fill="#666">1.5×</text>
<line x1="60" y1="321.47737532903585" x2="880" y2="321.47737532903585" stroke="#888" stroke-width="1"/>
<line x1="60" y1="322.9382803158744" x2="880" y2="322.9382803158744" stroke="#d33" stroke-width="1.5" stroke-dasharray="6 4"/>
<text x="880" y="317.9382803158744" text-anchor="end" font-size="11" fill="#d33">0.96× gate</text>
<polygon points="142.1,337.9 142.1,337.5 142.2,337.2 142.4,336.8 142.5,336.4 142.7,336.1 142.8,335.7 142.9,335.4 142.9,335.0 142.7,334.6 142.5,334.3 142.4,333.9 142.2,333.6 142.1,333.2 142.1,332.9 142.0,332.5 142.0,332.1 142.0,331.8 142.0,331.4 142.0,331.1 142.0,330.7 142.0,330.3 142.0,330.0 142.0,329.6 142.0,329.3 142.1,328.9 142.1,328.5 142.2,328.2 142.4,327.8 142.6,327.5 142.8,327.1 143.1,326.7 143.4,326.4 143.9,326.0 144.5,325.7 145.4,325.3 146.5,324.9 148.0,324.6 150.1,324.2 153.0,323.9 157.6,323.5 164.4,323.1 173.5,322.8 184.5,322.4 195.6,322.1 204.8,321.7 210.2,321.3 210.9,321.0 207.0,320.6 199.9,320.3 191.2,319.9 182.5,319.6 174.9,319.2 168.7,318.8 164.1,318.5 161.2,318.1 159.9,317.8 160.1,317.4 161.5,317.0 163.4,316.7 164.9,316.3 165.2,316.0 163.8,315.6 160.7,315.2 156.7,314.9 152.5,314.5 148.8,314.2 146.0,313.8 144.2,313.4 143.0,313.1 142.5,312.7 142.2,312.4 141.8,312.4 141.5,312.7 141.0,313.1 139.8,313.4 138.0,313.8 135.2,314.2 131.5,314.5 127.3,314.9 123.3,315.2 120.2,315.6 118.8,316.0 119.1,316.3 120.6,316.7 122.5,317.0 123.9,317.4 124.1,317.8 122.8,318.1 119.9,318.5 115.3,318.8 109.1,319.2 101.5,319.6 92.8,319.9 84.1,320.3 77.0,320.6 73.1,321.0 73.8,321.3 79.2,321.7 88.4,322.1 99.5,322.4 110.5,322.8 119.6,323.1 126.4,323.5 131.0,323.9 133.9,324.2 136.0,324.6 137.5,324.9 138.6,325.3 139.5,325.7 140.1,326.0 140.6,326.4 140.9,326.7 141.2,327.1 141.4,327.5 141.6,327.8 141.8,328.2 141.9,328.5 141.9,328.9 142.0,329.3 142.0,329.6 142.0,330.0 142.0,330.3 142.0,330.7 142.0,331.1 142.0,331.4 142.0,331.8 142.0,332.1 142.0,332.5 141.9,332.9 141.9,333.2 141.8,333.6 141.6,333.9 141.5,334.3 141.3,334.6 141.1,335.0 141.1,335.4 141.2,335.7 141.3,336.1 141.5,336.4 141.6,336.8 141.8,337.2 141.9,337.5 141.9,337.9" fill="#2a8" opacity="0.5" stroke="#2a8" stroke-width="1"/>
<line x1="74.3" y1="320.8298997497372" x2="209.7" y2="320.8298997497372" stroke="#114" stroke-width="2"/>
<circle cx="142.0" cy="322.0512905305294" r="2.4" fill="#114"/>
<text x="142.0" y="308.8906190936989" text-anchor="middle" font-size="11">1.02</text>
<text x="142.0" y="376" text-anchor="middle" font-size="12">zaxpy</text>
<polygon points="306.4,333.6 306.7,333.2 307.3,332.8 308.3,332.4 309.6,332.0 311.4,331.6 313.5,331.2 315.9,330.8 318.1,330.4 319.8,330.0 320.7,329.6 320.6,329.2 319.5,328.8 317.7,328.4 315.4,327.9 313.1,327.5 311.1,327.1 309.6,326.7 308.6,326.3 308.4,325.9 308.9,325.5 310.3,325.1 312.9,324.7 316.9,324.3 322.8,323.9 330.5,323.5 339.8,323.1 349.9,322.7 359.7,322.3 367.9,321.8 373.2,321.4 374.9,321.0 372.9,320.6 368.0,320.2 361.0,319.8 353.2,319.4 345.6,319.0 338.9,318.6 333.2,318.2 328.6,317.8 324.9,317.4 321.7,317.0 319.0,316.6 316.5,316.1 314.2,315.7 312.2,315.3 310.6,314.9 309.2,314.5 308.2,314.1 307.5,313.7 306.9,313.3 306.6,312.9 306.4,312.5 306.2,312.1 306.1,311.7 306.1,311.3 306.1,310.9 306.1,310.5 306.2,310.0 306.3,309.6 306.4,309.2 306.6,308.8 306.7,308.4 306.8,308.0 306.8,307.6 306.8,307.2 306.7,306.8 306.5,306.4 306.4,306.0 306.3,305.6 306.2,305.2 306.1,304.8 305.9,304.8 305.8,305.2 305.7,305.6 305.6,306.0 305.5,306.4 305.3,306.8 305.2,307.2 305.2,307.6 305.2,308.0 305.3,308.4 305.4,308.8 305.6,309.2 305.7,309.6 305.8,310.0 305.9,310.5 305.9,310.9 305.9,311.3 305.9,311.7 305.8,312.1 305.6,312.5 305.4,312.9 305.1,313.3 304.5,313.7 303.8,314.1 302.8,314.5 301.4,314.9 299.8,315.3 297.8,315.7 295.5,316.1 293.0,316.6 290.3,317.0 287.1,317.4 283.4,317.8 278.8,318.2 273.1,318.6 266.4,319.0 258.8,319.4 251.0,319.8 244.0,320.2 239.1,320.6 237.1,321.0 238.8,321.4 244.1,321.8 252.3,322.3 262.1,322.7 272.2,323.1 281.5,323.5 289.2,323.9 295.1,324.3 299.1,324.7 301.7,325.1 303.1,325.5 303.6,325.9 303.4,326.3 302.4,326.7 300.9,327.1 298.9,327.5 296.6,327.9 294.3,328.4 292.5,328.8 291.4,329.2 291.3,329.6 292.2,330.0 293.9,330.4 296.1,330.8 298.5,331.2 300.6,331.6 302.4,332.0 303.7,332.4 304.7,332.8 305.3,333.2 305.6,333.6" fill="#d33" opacity="0.5" stroke="#d33" stroke-width="1"/>
<line x1="237.7" y1="321.27899017559736" x2="374.3" y2="321.27899017559736" stroke="#114" stroke-width="2"/>
<circle cx="306.0" cy="329.38420055373626" r="2.4" fill="#114"/>
<text x="306.0" y="301.610117310597" text-anchor="middle" font-size="11">1.01</text>
<text x="306.0" y="376" text-anchor="middle" font-size="12">zdotc</text>
<polygon points="475.5,323.1 478.4,323.0 482.2,322.9 487.1,322.8 493.1,322.7 500.0,322.5 507.6,322.4 515.4,322.3 522.8,322.2 529.3,322.0 534.4,321.9 537.6,321.8 538.9,321.7 538.2,321.5 535.9,321.4 532.4,321.3 528.2,321.2 523.9,321.0 519.8,320.9 516.4,320.8 513.6,320.7 511.6,320.6 510.2,320.4 509.3,320.3 508.6,320.2 508.0,320.1 507.3,319.9 506.5,319.8 505.5,319.7 504.4,319.6 503.3,319.4 502.1,319.3 501.0,319.2 500.0,319.1 499.0,318.9 497.9,318.8 496.9,318.7 495.7,318.6 494.3,318.5 492.7,318.3 491.0,318.2 489.1,318.1 487.2,318.0 485.4,317.8 483.6,317.7 482.0,317.6 480.7,317.5 479.5,317.3 478.6,317.2 477.7,317.1 477.0,317.0 476.3,316.8 475.6,316.7 475.0,316.6 474.3,316.5 473.7,316.4 473.1,316.2 472.6,316.1 472.2,316.0 471.9,315.9 471.6,315.7 471.5,315.6 471.4,315.5 471.3,315.4 471.2,315.2 471.1,315.1 471.0,315.0 470.8,314.9 470.7,314.7 470.6,314.6 470.4,314.5 470.3,314.4 469.7,314.4 469.6,314.5 469.4,314.6 469.3,314.7 469.2,314.9 469.0,315.0 468.9,315.1 468.8,315.2 468.7,315.4 468.6,315.5 468.5,315.6 468.4,315.7 468.1,315.9 467.8,316.0 467.4,316.1 466.9,316.2 466.3,316.4 465.7,316.5 465.0,316.6 464.4,316.7 463.7,316.8 463.0,317.0 462.3,317.1 461.4,317.2 460.5,317.3 459.3,317.5 458.0,317.6 456.4,317.7 454.6,317.8 452.8,318.0 450.9,318.1 449.0,318.2 447.3,318.3 445.7,318.5 444.3,318.6 443.1,318.7 442.1,318.8 441.0,318.9 440.0,319.1 439.0,319.2 437.9,319.3 436.7,319.4 435.6,319.6 434.5,319.7 433.5,319.8 432.7,319.9 432.0,320.1 431.4,320.2 430.7,320.3 429.8,320.4 428.4,320.6 426.4,320.7 423.6,320.8 420.2,320.9 416.1,321.0 411.8,321.2 407.6,321.3 404.1,321.4 401.8,321.5 401.1,321.7 402.4,321.8 405.6,321.9 410.7,322.0 417.2,322.2 424.6,322.3 432.4,322.4 440.0,322.5 446.9,322.7 452.9,322.8 457.8,322.9 461.6,323.0 464.5,323.1" fill="#2a8" opacity="0.5" stroke="#2a8" stroke-width="1"/>
<line x1="420.6" y1="320.90910777762974" x2="519.4" y2="320.90910777762974" stroke="#114" stroke-width="2"/>
<circle cx="470.0" cy="321.88024967542447" r="2.4" fill="#114"/>
<text x="470.0" y="309.28174941211967" text-anchor="middle" font-size="11">1.02</text>
<text x="470.0" y="376" text-anchor="middle" font-size="12">zscal</text>
<polygon points="643.0,188.7 644.5,186.8 646.2,184.9 648.0,183.0 649.9,181.1 651.9,179.2 654.0,177.3 656.1,175.4 658.3,173.5 660.4,171.7 662.5,169.8 664.6,167.9 666.6,166.0 668.5,164.1 670.3,162.2 672.0,160.3 673.6,158.4 674.9,156.5 676.2,154.6 677.2,152.7 678.0,150.8 678.5,149.0 678.9,147.1 678.9,145.2 678.7,143.3 678.3,141.4 677.5,139.5 676.5,137.6 675.2,135.7 673.7,133.8 672.0,131.9 670.2,130.0 668.2,128.1 666.1,126.3 664.1,124.4 662.1,122.5 660.1,120.6 658.4,118.7 656.8,116.8 655.5,114.9 654.5,113.0 653.8,111.1 653.5,109.2 653.6,107.3 654.2,105.4 655.1,103.6 656.6,101.7 658.5,99.8 660.9,97.9 663.8,96.0 667.1,94.1 670.7,92.2 674.7,90.3 678.8,88.4 683.0,86.5 687.2,84.6 691.2,82.8 694.8,80.9 697.9,79.0 700.4,77.1 702.1,75.2 702.9,73.3 702.8,71.4 701.8,69.5 699.8,67.6 697.1,65.7 693.5,63.8 689.4,61.9 684.9,60.1 680.0,58.2 675.0,56.3 670.0,54.4 598.0,54.4 593.0,56.3 588.0,58.2 583.1,60.1 578.6,61.9 574.5,63.8 570.9,65.7 568.2,67.6 566.2,69.5 565.2,71.4 565.1,73.3 565.9,75.2 567.6,77.1 570.1,79.0 573.2,80.9 576.8,82.8 580.8,84.6 585.0,86.5 589.2,88.4 593.3,90.3 597.3,92.2 600.9,94.1 604.2,96.0 607.1,97.9 609.5,99.8 611.4,101.7 612.9,103.6 613.8,105.4 614.4,107.3 614.5,109.2 614.2,111.1 613.5,113.0 612.5,114.9 611.2,116.8 609.6,118.7 607.9,120.6 605.9,122.5 603.9,124.4 601.9,126.3 599.8,128.1 597.8,130.0 596.0,131.9 594.3,133.8 592.8,135.7 591.5,137.6 590.5,139.5 589.7,141.4 589.3,143.3 589.1,145.2 589.1,147.1 589.5,149.0 590.0,150.8 590.8,152.7 591.8,154.6 593.1,156.5 594.4,158.4 596.0,160.3 597.7,162.2 599.5,164.1 601.4,166.0 603.4,167.9 605.5,169.8 607.6,171.7 609.7,173.5 611.9,175.4 614.0,177.3 616.1,179.2 618.1,181.1 620.0,183.0 621.8,184.9 623.5,186.8 625.0,188.7" fill="#2a8" opacity="0.5" stroke="#2a8" stroke-width="1"/>
<line x1="603.9" y1="95.81955760591373" x2="664.1" y2="95.81955760591373" stroke="#114" stroke-width="2"/>
<circle cx="634.0" cy="156.19726474191705" r="2.4" fill="#114"/>
<text x="634.0" y="61.433962264150935" text-anchor="middle" font-size="11">7.18</text>
<text x="634.0" y="376" text-anchor="middle" font-size="12">dznrm2</text>
<polygon points="798.1,336.3 798.2,335.5 798.3,334.8 798.4,334.0 798.6,333.3 798.8,332.5 798.9,331.8 798.9,331.0 798.9,330.3 798.7,329.5 798.6,328.8 798.4,328.0 798.3,327.3 798.2,326.5 798.1,325.8 798.0,325.0 798.0,324.3 798.0,323.5 798.0,322.8 798.0,322.0 798.0,321.3 798.0,320.5 798.0,319.8 798.0,319.0 798.0,318.3 798.0,317.5 798.0,316.8 798.1,316.0 798.2,315.3 798.5,314.6 799.1,313.8 800.3,313.1 802.3,312.3 805.3,311.6 809.7,310.8 815.4,310.1 822.1,309.3 829.3,308.6 836.6,307.8 843.3,307.1 849.2,306.3 854.3,305.6 858.7,304.8 862.6,304.1 865.5,303.3 866.9,302.6 865.7,301.8 861.2,301.1 853.6,300.3 843.5,299.6 832.6,298.8 822.2,298.1 813.6,297.3 807.3,296.6 803.2,295.8 801.1,295.1 800.5,294.3 801.2,293.6 802.8,292.8 805.3,292.1 808.3,291.3 811.3,290.6 813.7,289.9 814.9,289.1 814.5,288.4 812.7,287.6 810.0,286.9 806.9,286.1 804.0,285.4 801.7,284.6 800.1,283.9 799.0,283.1 797.0,283.1 795.9,283.9 794.3,284.6 792.0,285.4 789.1,286.1 786.0,286.9 783.3,287.6 781.5,288.4 781.1,289.1 782.3,289.9 784.7,290.6 787.7,291.3 790.7,292.1 793.2,292.8 794.8,293.6 795.5,294.3 794.9,295.1 792.8,295.8 788.7,296.6 782.4,297.3 773.8,298.1 763.4,298.8 752.5,299.6 742.4,300.3 734.8,301.1 730.3,301.8 729.1,302.6 730.5,303.3 733.4,304.1 737.3,304.8 741.7,305.6 746.8,306.3 752.7,307.1 759.4,307.8 766.7,308.6 773.9,309.3 780.6,310.1 786.3,310.8 790.7,311.6 793.7,312.3 795.7,313.1 796.9,313.8 797.5,314.6 797.8,315.3 797.9,316.0 798.0,316.8 798.0,317.5 798.0,318.3 798.0,319.0 798.0,319.8 798.0,320.5 798.0,321.3 798.0,322.0 798.0,322.8 798.0,323.5 798.0,324.3 798.0,325.0 797.9,325.8 797.8,326.5 797.7,327.3 797.6,328.0 797.4,328.8 797.3,329.5 797.1,330.3 797.1,331.0 797.1,331.8 797.2,332.5 797.4,333.3 797.6,334.0 797.7,334.8 797.8,335.5 797.9,336.3" fill="#2a8" opacity="0.5" stroke="#2a8" stroke-width="1"/>
<line x1="729.2" y1="302.3067190170181" x2="866.8" y2="302.3067190170181" stroke="#114" stroke-width="2"/>
<circle cx="798.0" cy="307.4105459142538" r="2.4" fill="#114"/>
<text x="798.0" y="282.31730563879313" text-anchor="middle" font-size="11">1.52</text>
<text x="798.0" y="376" text-anchor="middle" font-size="12">dzasum</text>
<text x="450.0" y="428" text-anchor="middle" font-size="11" fill="#666">violin = ratio distribution over sizes · line = median · dark dot = worst size · green = every size ≥ gate</text>
</svg>
