<svg xmlns="http://www.w3.org/2000/svg" width="962" height="592" font-family="sans-serif">
<rect width="962" height="592" fill="white"/>
<text x="481.0" y="26" text-anchor="middle" font-size="17" font-weight="bold">BLAS-2 — PureBLAS / AOCL (PB/AOCL ratio)</text>
<line x1="46" y1="42" x2="68" y2="42" stroke="#888888" stroke-width="3"/>
<text x="73" y="46" font-size="12">AVX2</text>
<line x1="127" y1="42" x2="149" y2="42" stroke="#888888" stroke-width="3"/>
<text x="154" y="46" font-size="12">Zen5</text>
<line x1="208" y1="42" x2="230" y2="42" stroke="#888888" stroke-width="3"/>
<text x="235" y="46" font-size="12">AVX-512</text>
<rect x="46" y="60" width="210" height="138" fill="none" stroke="#e2e2e2"/>
<line x1="46" y1="131.90949399138373" x2="256" y2="131.90949399138373" stroke="#d33" stroke-dasharray="4 3"/>
<text x="42" y="201.0" text-anchor="end" font-size="9" fill="#999">0.5×</text>
<text x="42" y="134.90949399138373" text-anchor="end" font-size="9" fill="#999">1.0×</text>
<polygon points="46.0,67.3 98.5,118.1 151.0,123.5 203.5,128.4 256.0,129.9 256.0,131.6 203.5,129.2 151.0,131.2 98.5,120.2 46.0,70.1" fill="#888888" opacity="0.11"/>
<polyline points="46.0,68.4 98.5,119.3 151.0,128.0 203.5,128.7 256.0,130.2" fill="none" stroke="#888888" stroke-width="1.6"/>
<circle cx="46.0" cy="68.4" r="2" fill="#888888"/>
<circle cx="98.5" cy="119.3" r="2" fill="#888888"/>
<circle cx="151.0" cy="128.0" r="2" fill="#888888"/>
<circle cx="203.5" cy="128.7" r="2" fill="#888888"/>
<circle cx="256.0" cy="130.2" r="2" fill="#888888"/>
<polygon points="46.0,86.2 98.5,108.1 151.0,107.1 203.5,127.9 256.0,132.5 256.0,139.7 203.5,129.8 151.0,111.8 98.5,112.1 46.0,94.1" fill="#888888" opacity="0.11"/>
<polyline points="46.0,90.0 98.5,111.0 151.0,108.1 203.5,129.1 256.0,134.6" fill="none" stroke="#888888" stroke-width="1.6"/>
<circle cx="46.0" cy="90.0" r="2" fill="#888888"/>
<circle cx="98.5" cy="111.0" r="2" fill="#888888"/>
<circle cx="151.0" cy="108.1" r="2" fill="#888888"/>
<circle cx="203.5" cy="129.1" r="2" fill="#888888"/>
<circle cx="256.0" cy="134.6" r="2" fill="#888888"/>
<polygon points="46.0,85.4 98.5,123.8 151.0,112.4 203.5,127.2 256.0,130.4 256.0,132.3 203.5,131.0 151.0,132.6 98.5,125.2 46.0,88.7" fill="#888888" opacity="0.11"/>
<polyline points="46.0,86.4 98.5,124.5 151.0,130.0 203.5,129.9 256.0,131.6" fill="none" stroke="#888888" stroke-width="1.6"/>
<circle cx="46.0" cy="86.4" r="2" fill="#888888"/>
<circle cx="98.5" cy="124.5" r="2" fill="#888888"/>
<circle cx="151.0" cy="130.0" r="2" fill="#888888"/>
<circle cx="203.5" cy="129.9" r="2" fill="#888888"/>
<circle cx="256.0" cy="131.6" r="2" fill="#888888"/>
<text x="151.0" y="55" text-anchor="middle" font-size="12" font-weight="bold">gemvN</text>
<line x1="46.0" y1="60" x2="46.0" y2="198" stroke="#f4f4f4"/>
<text x="46.0" y="209" text-anchor="middle" font-size="8" fill="#999">64</text>
<line x1="98.5" y1="60" x2="98.5" y2="198" stroke="#f4f4f4"/>
<text x="98.5" y="209" text-anchor="middle" font-size="8" fill="#999">128</text>
<line x1="151.0" y1="60" x2="151.0" y2="198" stroke="#f4f4f4"/>
<text x="151.0" y="209" text-anchor="middle" font-size="8" fill="#999">256</text>
<line x1="203.5" y1="60" x2="203.5" y2="198" stroke="#f4f4f4"/>
<text x="203.5" y="209" text-anchor="middle" font-size="8" fill="#999">512</text>
<line x1="256.0" y1="60" x2="256.0" y2="198" stroke="#f4f4f4"/>
<text x="256.0" y="209" text-anchor="middle" font-size="8" fill="#999">1k</text>
<rect x="276" y="60" width="210" height="138" fill="none" stroke="#e2e2e2"/>
<line x1="276" y1="115.76276119065531" x2="486" y2="115.76276119065531" stroke="#d33" stroke-dasharray="4 3"/>
<text x="272" y="201.0" text-anchor="end" font-size="9" fill="#999">0.5×</text>
<text x="272" y="118.76276119065531" text-anchor="end" font-size="9" fill="#999">1.0×</text>
<text x="272" y="63.0" text-anchor="end" font-size="9" fill="#999">1.6×</text>
<polygon points="276.0,97.0 328.5,106.0 381.0,110.5 433.5,109.9 486.0,120.6 486.0,122.3 433.5,110.9 381.0,114.0 328.5,109.5 276.0,100.1" fill="#888888" opacity="0.11"/>
<polyline points="276.0,97.7 328.5,106.8 381.0,112.0 433.5,110.4 486.0,121.2" fill="none" stroke="#888888" stroke-width="1.6"/>
<circle cx="276.0" cy="97.7" r="2" fill="#888888"/>
<circle cx="328.5" cy="106.8" r="2" fill="#888888"/>
<circle cx="381.0" cy="112.0" r="2" fill="#888888"/>
<circle cx="433.5" cy="110.4" r="2" fill="#888888"/>
<circle cx="486.0" cy="121.2" r="2" fill="#888888"/>
<polygon points="276.0,110.6 328.5,133.5 381.0,142.7 433.5,114.7 486.0,92.2 486.0,112.0 433.5,121.8 381.0,161.6 328.5,140.9 276.0,122.3" fill="#888888" opacity="0.11"/>
<polyline points="276.0,115.8 328.5,138.3 381.0,151.5 433.5,115.9 486.0,104.2" fill="none" stroke="#888888" stroke-width="1.6"/>
<circle cx="276.0" cy="115.8" r="2" fill="#888888"/>
<circle cx="328.5" cy="138.3" r="2" fill="#888888"/>
<circle cx="381.0" cy="151.5" r="2" fill="#888888"/>
<circle cx="433.5" cy="115.9" r="2" fill="#888888"/>
<circle cx="486.0" cy="104.2" r="2" fill="#888888"/>
<polygon points="276.0,113.0 328.5,111.7 381.0,117.7 433.5,105.4 486.0,120.2 486.0,122.4 433.5,115.8 381.0,123.3 328.5,114.4 276.0,115.2" fill="#888888" opacity="0.11"/>
<polyline points="276.0,114.0 328.5,112.1 381.0,119.9 433.5,113.7 486.0,121.7" fill="none" stroke="#888888" stroke-width="1.6"/>
<circle cx="276.0" cy="114.0" r="2" fill="#888888"/>
<circle cx="328.5" cy="112.1" r="2" fill="#888888"/>
<circle cx="381.0" cy="119.9" r="2" fill="#888888"/>
<circle cx="433.5" cy="113.7" r="2" fill="#888888"/>
<circle cx="486.0" cy="121.7" r="2" fill="#888888"/>
<text x="381.0" y="55" text-anchor="middle" font-size="12" font-weight="bold">gemvT</text>
<line x1="276.0" y1="60" x2="276.0" y2="198" stroke="#f4f4f4"/>
<text x="276.0" y="209" text-anchor="middle" font-size="8" fill="#999">64</text>
<line x1="328.5" y1="60" x2="328.5" y2="198" stroke="#f4f4f4"/>
<text x="328.5" y="209" text-anchor="middle" font-size="8" fill="#999">128</text>
<line x1="381.0" y1="60" x2="381.0" y2="198" stroke="#f4f4f4"/>
<text x="381.0" y="209" text-anchor="middle" font-size="8" fill="#999">256</text>
<line x1="433.5" y1="60" x2="433.5" y2="198" stroke="#f4f4f4"/>
<text x="433.5" y="209" text-anchor="middle" font-size="8" fill="#999">512</text>
<line x1="486.0" y1="60" x2="486.0" y2="198" stroke="#f4f4f4"/>
<text x="486.0" y="209" text-anchor="middle" font-size="8" fill="#999">1k</text>
<rect x="506" y="60" width="210" height="138" fill="none" stroke="#e2e2e2"/>
<line x1="506" y1="131.06736201193075" x2="716" y2="131.06736201193075" stroke="#d33" stroke-dasharray="4 3"/>
<text x="502" y="201.0" text-anchor="end" font-size="9" fill="#999">0.5×</text>
<text x="502" y="134.06736201193075" text-anchor="end" font-size="9" fill="#999">1.0×</text>
<polygon points="506.0,67.4 558.5,86.8 611.0,94.3 663.5,97.3 716.0,98.4 716.0,99.1 663.5,99.7 611.0,97.6 558.5,87.5 506.0,69.2" fill="#888888" opacity="0.11"/>
<polyline points="506.0,68.0 558.5,87.4 611.0,95.5 663.5,98.1 716.0,98.6" fill="none" stroke="#888888" stroke-width="1.6"/>
<circle cx="506.0" cy="68.0" r="2" fill="#888888"/>
<circle cx="558.5" cy="87.4" r="2" fill="#888888"/>
<circle cx="611.0" cy="95.5" r="2" fill="#888888"/>
<circle cx="663.5" cy="98.1" r="2" fill="#888888"/>
<circle cx="716.0" cy="98.6" r="2" fill="#888888"/>
<polygon points="506.0,77.9 558.5,121.3 611.0,126.0 663.5,129.7 716.0,129.8 716.0,131.9 663.5,132.4 611.0,127.3 558.5,125.4 506.0,126.6" fill="#888888" opacity="0.11"/>
<polyline points="506.0,101.4 558.5,123.9 611.0,126.4 663.5,131.1 716.0,130.9" fill="none" stroke="#888888" stroke-width="1.6"/>
<circle cx="506.0" cy="101.4" r="2" fill="#888888"/>
<circle cx="558.5" cy="123.9" r="2" fill="#888888"/>
<circle cx="611.0" cy="126.4" r="2" fill="#888888"/>
<circle cx="663.5" cy="131.1" r="2" fill="#888888"/>
<circle cx="716.0" cy="130.9" r="2" fill="#888888"/>
<polygon points="506.0,103.5 558.5,121.0 611.0,126.4 663.5,126.8 716.0,128.1 716.0,130.3 663.5,146.3 611.0,129.7 558.5,122.1 506.0,110.9" fill="#888888" opacity="0.11"/>
<polyline points="506.0,104.4 558.5,121.4 611.0,127.7 663.5,130.6 716.0,128.8" fill="none" stroke="#888888" stroke-width="1.6"/>
<circle cx="506.0" cy="104.4" r="2" fill="#888888"/>
<circle cx="558.5" cy="121.4" r="2" fill="#888888"/>
<circle cx="611.0" cy="127.7" r="2" fill="#888888"/>
<circle cx="663.5" cy="130.6" r="2" fill="#888888"/>
<circle cx="716.0" cy="128.8" r="2" fill="#888888"/>
<text x="611.0" y="55" text-anchor="middle" font-size="12" font-weight="bold">ger</text>
<line x1="506.0" y1="60" x2="506.0" y2="198" stroke="#f4f4f4"/>
<text x="506.0" y="209" text-anchor="middle" font-size="8" fill="#999">64</text>
<line x1="558.5" y1="60" x2="558.5" y2="198" stroke="#f4f4f4"/>
<text x="558.5" y="209" text-anchor="middle" font-size="8" fill="#999">128</text>
<line x1="611.0" y1="60" x2="611.0" y2="198" stroke="#f4f4f4"/>
<text x="611.0" y="209" text-anchor="middle" font-size="8" fill="#999">256</text>
<line x1="663.5" y1="60" x2="663.5" y2="198" stroke="#f4f4f4"/>
<text x="663.5" y="209" text-anchor="middle" font-size="8" fill="#999">512</text>
<line x1="716.0" y1="60" x2="716.0" y2="198" stroke="#f4f4f4"/>
<text x="716.0" y="209" text-anchor="middle" font-size="8" fill="#999">1k</text>
<rect x="736" y="60" width="210" height="138" fill="none" stroke="#e2e2e2"/>
<line x1="736" y1="119.97342181452707" x2="946" y2="119.97342181452707" stroke="#d33" stroke-dasharray="4 3"/>
<text x="732" y="201.0" text-anchor="end" font-size="9" fill="#999">0.5×</text>
<text x="732" y="122.97342181452707" text-anchor="end" font-size="9" fill="#999">1.0×</text>
<text x="732" y="63.24136507374006" text-anchor="end" font-size="9" fill="#999">1.7×</text>
<polygon points="736.0,68.7 788.5,83.7 841.0,95.2 893.5,105.5 946.0,110.9 946.0,119.2 893.5,111.4 841.0,107.6 788.5,85.9 736.0,69.6" fill="#888888" opacity="0.11"/>
<polyline points="736.0,69.4 788.5,84.3 841.0,102.8 893.5,108.8 946.0,115.5" fill="none" stroke="#888888" stroke-width="1.6"/>
<circle cx="736.0" cy="69.4" r="2" fill="#888888"/>
<circle cx="788.5" cy="84.3" r="2" fill="#888888"/>
<circle cx="841.0" cy="102.8" r="2" fill="#888888"/>
<circle cx="893.5" cy="108.8" r="2" fill="#888888"/>
<circle cx="946.0" cy="115.5" r="2" fill="#888888"/>
<polygon points="736.0,84.7 788.5,89.5 841.0,92.4 893.5,98.4 946.0,109.2 946.0,123.1 893.5,101.2 841.0,93.3 788.5,91.4 736.0,86.1" fill="#888888" opacity="0.11"/>
<polyline points="736.0,85.2 788.5,90.6 841.0,93.0 893.5,99.0 946.0,118.8" fill="none" stroke="#888888" stroke-width="1.6"/>
<circle cx="736.0" cy="85.2" r="2" fill="#888888"/>
<circle cx="788.5" cy="90.6" r="2" fill="#888888"/>
<circle cx="841.0" cy="93.0" r="2" fill="#888888"/>
<circle cx="893.5" cy="99.0" r="2" fill="#888888"/>
<circle cx="946.0" cy="118.8" r="2" fill="#888888"/>
<polygon points="736.0,81.2 788.5,86.0 841.0,80.6 893.5,82.5 946.0,106.7 946.0,109.4 893.5,98.2 841.0,86.4 788.5,87.9 736.0,82.1" fill="#888888" opacity="0.11"/>
<polyline points="736.0,81.9 788.5,86.3 841.0,83.7 893.5,90.1 946.0,107.9" fill="none" stroke="#888888" stroke-width="1.6"/>
<circle cx="736.0" cy="81.9" r="2" fill="#888888"/>
<circle cx="788.5" cy="86.3" r="2" fill="#888888"/>
<circle cx="841.0" cy="83.7" r="2" fill="#888888"/>
<circle cx="893.5" cy="90.1" r="2" fill="#888888"/>
<circle cx="946.0" cy="107.9" r="2" fill="#888888"/>
<text x="841.0" y="55" text-anchor="middle" font-size="12" font-weight="bold">symv</text>
<line x1="736.0" y1="60" x2="736.0" y2="198" stroke="#f4f4f4"/>
<text x="736.0" y="209" text-anchor="middle" font-size="8" fill="#999">64</text>
<line x1="788.5" y1="60" x2="788.5" y2="198" stroke="#f4f4f4"/>
<text x="788.5" y="209" text-anchor="middle" font-size="8" fill="#999">128</text>
<line x1="841.0" y1="60" x2="841.0" y2="198" stroke="#f4f4f4"/>
<text x="841.0" y="209" text-anchor="middle" font-size="8" fill="#999">256</text>
<line x1="893.5" y1="60" x2="893.5" y2="198" stroke="#f4f4f4"/>
<text x="893.5" y="209" text-anchor="middle" font-size="8" fill="#999">512</text>
<line x1="946.0" y1="60" x2="946.0" y2="198" stroke="#f4f4f4"/>
<text x="946.0" y="209" text-anchor="middle" font-size="8" fill="#999">1k</text>
<rect x="46" y="232" width="210" height="138" fill="none" stroke="#e2e2e2"/>
<line x1="46" y1="288.12113631131155" x2="256" y2="288.12113631131155" stroke="#d33" stroke-dasharray="4 3"/>
<text x="42" y="373.0" text-anchor="end" font-size="9" fill="#999">0.5×</text>
<text x="42" y="291.12113631131155" text-anchor="end" font-size="9" fill="#999">1.0×</text>
<polygon points="46.0,241.1 98.5,277.7 151.0,279.7 203.5,292.7 256.0,290.9 256.0,292.0 203.5,294.0 151.0,290.5 98.5,279.0 46.0,242.2" fill="#888888" opacity="0.11"/>
<polyline points="46.0,242.0 98.5,278.3 151.0,284.1 203.5,293.2 256.0,291.5" fill="none" stroke="#888888" stroke-width="1.6"/>
<circle cx="46.0" cy="242.0" r="2" fill="#888888"/>
<circle cx="98.5" cy="278.3" r="2" fill="#888888"/>
<circle cx="151.0" cy="284.1" r="2" fill="#888888"/>
<circle cx="203.5" cy="293.2" r="2" fill="#888888"/>
<circle cx="256.0" cy="291.5" r="2" fill="#888888"/>
<polygon points="46.0,258.0 98.5,302.6 151.0,286.7 203.5,286.0 256.0,285.6 256.0,294.4 203.5,288.7 151.0,287.4 98.5,313.2 46.0,277.4" fill="#888888" opacity="0.11"/>
<polyline points="46.0,275.1 98.5,303.4 151.0,287.0 203.5,287.5 256.0,287.0" fill="none" stroke="#888888" stroke-width="1.6"/>
<circle cx="46.0" cy="275.1" r="2" fill="#888888"/>
<circle cx="98.5" cy="303.4" r="2" fill="#888888"/>
<circle cx="151.0" cy="287.0" r="2" fill="#888888"/>
<circle cx="203.5" cy="287.5" r="2" fill="#888888"/>
<circle cx="256.0" cy="287.0" r="2" fill="#888888"/>
<polygon points="46.0,252.0 98.5,285.3 151.0,293.1 203.5,293.1 256.0,292.1 256.0,294.6 203.5,298.7 151.0,296.3 98.5,287.5 46.0,255.2" fill="#888888" opacity="0.11"/>
<polyline points="46.0,253.3 98.5,286.0 151.0,294.2 203.5,296.0 256.0,293.1" fill="none" stroke="#888888" stroke-width="1.6"/>
<circle cx="46.0" cy="253.3" r="2" fill="#888888"/>
<circle cx="98.5" cy="286.0" r="2" fill="#888888"/>
<circle cx="151.0" cy="294.2" r="2" fill="#888888"/>
<circle cx="203.5" cy="296.0" r="2" fill="#888888"/>
<circle cx="256.0" cy="293.1" r="2" fill="#888888"/>
<text x="151.0" y="227" text-anchor="middle" font-size="12" font-weight="bold">trmv</text>
<line x1="46.0" y1="232" x2="46.0" y2="370" stroke="#f4f4f4"/>
<text x="46.0" y="381" text-anchor="middle" font-size="8" fill="#999">64</text>
<line x1="98.5" y1="232" x2="98.5" y2="370" stroke="#f4f4f4"/>
<text x="98.5" y="381" text-anchor="middle" font-size="8" fill="#999">128</text>
<line x1="151.0" y1="232" x2="151.0" y2="370" stroke="#f4f4f4"/>
<text x="151.0" y="381" text-anchor="middle" font-size="8" fill="#999">256</text>
<line x1="203.5" y1="232" x2="203.5" y2="370" stroke="#f4f4f4"/>
<text x="203.5" y="381" text-anchor="middle" font-size="8" fill="#999">512</text>
<line x1="256.0" y1="232" x2="256.0" y2="370" stroke="#f4f4f4"/>
<text x="256.0" y="381" text-anchor="middle" font-size="8" fill="#999">1k</text>
<rect x="276" y="232" width="210" height="138" fill="none" stroke="#e2e2e2"/>
<line x1="276" y1="287.7627611906553" x2="486" y2="287.7627611906553" stroke="#d33" stroke-dasharray="4 3"/>
<text x="272" y="373.0" text-anchor="end" font-size="9" fill="#999">0.5×</text>
<text x="272" y="290.7627611906553" text-anchor="end" font-size="9" fill="#999">1.0×</text>
<text x="272" y="235.0" text-anchor="end" font-size="9" fill="#999">1.6×</text>
<polygon points="276.0,248.9 328.5,268.9 381.0,283.0 433.5,293.3 486.0,292.3 486.0,293.3 433.5,296.3 381.0,288.9 328.5,269.4 276.0,249.2" fill="#888888" opacity="0.11"/>
<polyline points="276.0,249.1 328.5,269.1 381.0,287.0 433.5,294.4 486.0,292.5" fill="none" stroke="#888888" stroke-width="1.6"/>
<circle cx="276.0" cy="249.1" r="2" fill="#888888"/>
<circle cx="328.5" cy="269.1" r="2" fill="#888888"/>
<circle cx="381.0" cy="287.0" r="2" fill="#888888"/>
<circle cx="433.5" cy="294.4" r="2" fill="#888888"/>
<circle cx="486.0" cy="292.5" r="2" fill="#888888"/>
<polygon points="276.0,243.9 328.5,270.0 381.0,286.8 433.5,291.0 486.0,295.6 486.0,301.2 433.5,292.4 381.0,292.7 328.5,274.2 276.0,251.2" fill="#888888" opacity="0.11"/>
<polyline points="276.0,247.3 328.5,270.6 381.0,287.7 433.5,291.4 486.0,296.4" fill="none" stroke="#888888" stroke-width="1.6"/>
<circle cx="276.0" cy="247.3" r="2" fill="#888888"/>
<circle cx="328.5" cy="270.6" r="2" fill="#888888"/>
<circle cx="381.0" cy="287.7" r="2" fill="#888888"/>
<circle cx="433.5" cy="291.4" r="2" fill="#888888"/>
<circle cx="486.0" cy="296.4" r="2" fill="#888888"/>
<polygon points="276.0,265.6 328.5,282.8 381.0,298.8 433.5,295.6 486.0,292.3 486.0,294.9 433.5,298.6 381.0,307.3 328.5,283.8 276.0,266.6" fill="#888888" opacity="0.11"/>
<polyline points="276.0,265.8 328.5,283.3 381.0,301.3 433.5,297.1 486.0,294.3" fill="none" stroke="#888888" stroke-width="1.6"/>
<circle cx="276.0" cy="265.8" r="2" fill="#888888"/>
<circle cx="328.5" cy="283.3" r="2" fill="#888888"/>
<circle cx="381.0" cy="301.3" r="2" fill="#888888"/>
<circle cx="433.5" cy="297.1" r="2" fill="#888888"/>
<circle cx="486.0" cy="294.3" r="2" fill="#888888"/>
<text x="381.0" y="227" text-anchor="middle" font-size="12" font-weight="bold">trsv</text>
<line x1="276.0" y1="232" x2="276.0" y2="370" stroke="#f4f4f4"/>
<text x="276.0" y="381" text-anchor="middle" font-size="8" fill="#999">64</text>
<line x1="328.5" y1="232" x2="328.5" y2="370" stroke="#f4f4f4"/>
<text x="328.5" y="381" text-anchor="middle" font-size="8" fill="#999">128</text>
<line x1="381.0" y1="232" x2="381.0" y2="370" stroke="#f4f4f4"/>
<text x="381.0" y="381" text-anchor="middle" font-size="8" fill="#999">256</text>
<line x1="433.5" y1="232" x2="433.5" y2="370" stroke="#f4f4f4"/>
<text x="433.5" y="381" text-anchor="middle" font-size="8" fill="#999">512</text>
<line x1="486.0" y1="232" x2="486.0" y2="370" stroke="#f4f4f4"/>
<text x="486.0" y="381" text-anchor="middle" font-size="8" fill="#999">1k</text>
<rect x="506" y="232" width="210" height="138" fill="none" stroke="#e2e2e2"/>
<line x1="506" y1="335.5096602694059" x2="716" y2="335.5096602694059" stroke="#d33" stroke-dasharray="4 3"/>
<text x="502" y="373.0" text-anchor="end" font-size="9" fill="#999">0.5×</text>
<text x="502" y="338.5096602694059" text-anchor="end" font-size="9" fill="#999">1.0×</text>
<polygon points="506.0,291.4 558.5,254.9 611.0,241.8 663.5,245.4 716.0,242.3 716.0,242.6 663.5,245.8 611.0,245.3 558.5,255.4 506.0,293.1" fill="#888888" opacity="0.11"/>
<polyline points="506.0,292.0 558.5,255.1 611.0,242.9 663.5,245.6 716.0,242.4" fill="none" stroke="#888888" stroke-width="1.6"/>
<circle cx="506.0" cy="292.0" r="2" fill="#888888"/>
<circle cx="558.5" cy="255.1" r="2" fill="#888888"/>
<circle cx="611.0" cy="242.9" r="2" fill="#888888"/>
<circle cx="663.5" cy="245.6" r="2" fill="#888888"/>
<circle cx="716.0" cy="242.4" r="2" fill="#888888"/>
<polygon points="506.0,300.3 558.5,257.1 611.0,240.6 663.5,235.8 716.0,236.2 716.0,240.8 663.5,237.6 611.0,242.0 558.5,258.3 506.0,303.8" fill="#888888" opacity="0.11"/>
<polyline points="506.0,301.8 558.5,257.4 611.0,241.6 663.5,236.7 716.0,237.8" fill="none" stroke="#888888" stroke-width="1.6"/>
<circle cx="506.0" cy="301.8" r="2" fill="#888888"/>
<circle cx="558.5" cy="257.4" r="2" fill="#888888"/>
<circle cx="611.0" cy="241.6" r="2" fill="#888888"/>
<circle cx="663.5" cy="236.7" r="2" fill="#888888"/>
<circle cx="716.0" cy="237.8" r="2" fill="#888888"/>
<polygon points="506.0,293.8 558.5,252.3 611.0,237.4 663.5,236.3 716.0,237.7 716.0,240.4 663.5,238.1 611.0,238.3 558.5,253.3 506.0,297.0" fill="#888888" opacity="0.11"/>
<polyline points="506.0,294.6 558.5,252.6 611.0,238.0 663.5,237.2 716.0,238.9" fill="none" stroke="#888888" stroke-width="1.6"/>
<circle cx="506.0" cy="294.6" r="2" fill="#888888"/>
<circle cx="558.5" cy="252.6" r="2" fill="#888888"/>
<circle cx="611.0" cy="238.0" r="2" fill="#888888"/>
<circle cx="663.5" cy="237.2" r="2" fill="#888888"/>
<circle cx="716.0" cy="238.9" r="2" fill="#888888"/>
<text x="611.0" y="227" text-anchor="middle" font-size="12" font-weight="bold">spmv</text>
<line x1="506.0" y1="232" x2="506.0" y2="370" stroke="#f4f4f4"/>
<text x="506.0" y="381" text-anchor="middle" font-size="8" fill="#999">64</text>
<line x1="558.5" y1="232" x2="558.5" y2="370" stroke="#f4f4f4"/>
<text x="558.5" y="381" text-anchor="middle" font-size="8" fill="#999">128</text>
<line x1="611.0" y1="232" x2="611.0" y2="370" stroke="#f4f4f4"/>
<text x="611.0" y="381" text-anchor="middle" font-size="8" fill="#999">256</text>
<line x1="663.5" y1="232" x2="663.5" y2="370" stroke="#f4f4f4"/>
<text x="663.5" y="381" text-anchor="middle" font-size="8" fill="#999">512</text>
<line x1="716.0" y1="232" x2="716.0" y2="370" stroke="#f4f4f4"/>
<text x="716.0" y="381" text-anchor="middle" font-size="8" fill="#999">1k</text>
<rect x="736" y="232" width="210" height="138" fill="none" stroke="#e2e2e2"/>
<line x1="736" y1="290.7363799653878" x2="946" y2="290.7363799653878" stroke="#d33" stroke-dasharray="4 3"/>
<text x="732" y="373.0" text-anchor="end" font-size="9" fill="#999">0.5×</text>
<text x="732" y="293.7363799653878" text-anchor="end" font-size="9" fill="#999">1.0×</text>
<text x="732" y="235.09334106969956" text-anchor="end" font-size="9" fill="#999">1.67×</text>
<polygon points="736.0,268.1 788.5,266.8 841.0,266.5 893.5,272.5 946.0,272.6 946.0,275.1 893.5,274.7 841.0,277.6 788.5,282.6 736.0,271.7" fill="#888888" opacity="0.11"/>
<polyline points="736.0,268.4 788.5,270.4 841.0,271.7 893.5,272.6 946.0,272.9" fill="none" stroke="#888888" stroke-width="1.6"/>
<circle cx="736.0" cy="268.4" r="2" fill="#888888"/>
<circle cx="788.5" cy="270.4" r="2" fill="#888888"/>
<circle cx="841.0" cy="271.7" r="2" fill="#888888"/>
<circle cx="893.5" cy="272.6" r="2" fill="#888888"/>
<circle cx="946.0" cy="272.9" r="2" fill="#888888"/>
<polygon points="736.0,248.9 788.5,257.0 841.0,257.4 893.5,260.4 946.0,262.1 946.0,262.9 893.5,262.3 841.0,264.2 788.5,261.5 736.0,259.3" fill="#888888" opacity="0.11"/>
<polyline points="736.0,257.0 788.5,260.7 841.0,260.6 893.5,261.9 946.0,262.5" fill="none" stroke="#888888" stroke-width="1.6"/>
<circle cx="736.0" cy="257.0" r="2" fill="#888888"/>
<circle cx="788.5" cy="260.7" r="2" fill="#888888"/>
<circle cx="841.0" cy="260.6" r="2" fill="#888888"/>
<circle cx="893.5" cy="261.9" r="2" fill="#888888"/>
<circle cx="946.0" cy="262.5" r="2" fill="#888888"/>
<polygon points="736.0,242.7 788.5,240.8 841.0,242.1 893.5,248.7 946.0,248.0 946.0,249.1 893.5,249.4 841.0,250.0 788.5,249.1 736.0,244.1" fill="#888888" opacity="0.11"/>
<polyline points="736.0,243.7 788.5,248.4 841.0,248.3 893.5,248.9 946.0,248.9" fill="none" stroke="#888888" stroke-width="1.6"/>
<circle cx="736.0" cy="243.7" r="2" fill="#888888"/>
<circle cx="788.5" cy="248.4" r="2" fill="#888888"/>
<circle cx="841.0" cy="248.3" r="2" fill="#888888"/>
<circle cx="893.5" cy="248.9" r="2" fill="#888888"/>
<circle cx="946.0" cy="248.9" r="2" fill="#888888"/>
<text x="841.0" y="227" text-anchor="middle" font-size="12" font-weight="bold">gbmvN</text>
<line x1="736.0" y1="232" x2="736.0" y2="370" stroke="#f4f4f4"/>
<text x="736.0" y="381" text-anchor="middle" font-size="8" fill="#999">64</text>
<line x1="788.5" y1="232" x2="788.5" y2="370" stroke="#f4f4f4"/>
<text x="788.5" y="381" text-anchor="middle" font-size="8" fill="#999">128</text>
<line x1="841.0" y1="232" x2="841.0" y2="370" stroke="#f4f4f4"/>
<text x="841.0" y="381" text-anchor="middle" font-size="8" fill="#999">256</text>
<line x1="893.5" y1="232" x2="893.5" y2="370" stroke="#f4f4f4"/>
<text x="893.5" y="381" text-anchor="middle" font-size="8" fill="#999">512</text>
<line x1="946.0" y1="232" x2="946.0" y2="370" stroke="#f4f4f4"/>
<text x="946.0" y="381" text-anchor="middle" font-size="8" fill="#999">1k</text>
<rect x="46" y="404" width="210" height="138" fill="none" stroke="#e2e2e2"/>
<line x1="46" y1="459.7627611906553" x2="256" y2="459.7627611906553" stroke="#d33" stroke-dasharray="4 3"/>
<text x="42" y="545.0" text-anchor="end" font-size="9" fill="#999">0.5×</text>
<text x="42" y="462.7627611906553" text-anchor="end" font-size="9" fill="#999">1.0×</text>
<text x="42" y="407.0" text-anchor="end" font-size="9" fill="#999">1.6×</text>
<polygon points="46.0,420.0 98.5,419.9 151.0,421.8 203.5,423.9 256.0,424.0 256.0,424.9 203.5,425.5 151.0,426.2 98.5,424.4 46.0,422.1" fill="#888888" opacity="0.11"/>
<polyline points="46.0,420.5 98.5,422.1 151.0,423.0 203.5,424.0 256.0,424.2" fill="none" stroke="#888888" stroke-width="1.6"/>
<circle cx="46.0" cy="420.5" r="2" fill="#888888"/>
<circle cx="98.5" cy="422.1" r="2" fill="#888888"/>
<circle cx="151.0" cy="423.0" r="2" fill="#888888"/>
<circle cx="203.5" cy="424.0" r="2" fill="#888888"/>
<circle cx="256.0" cy="424.2" r="2" fill="#888888"/>
<polygon points="46.0,441.2 98.5,441.9 151.0,441.9 203.5,442.1 256.0,441.1 256.0,442.8 203.5,443.1 151.0,443.8 98.5,448.7 46.0,443.3" fill="#888888" opacity="0.11"/>
<polyline points="46.0,441.6 98.5,443.0 151.0,443.2 203.5,442.6 256.0,442.3" fill="none" stroke="#888888" stroke-width="1.6"/>
<circle cx="46.0" cy="441.6" r="2" fill="#888888"/>
<circle cx="98.5" cy="443.0" r="2" fill="#888888"/>
<circle cx="151.0" cy="443.2" r="2" fill="#888888"/>
<circle cx="203.5" cy="442.6" r="2" fill="#888888"/>
<circle cx="256.0" cy="442.3" r="2" fill="#888888"/>
<polygon points="46.0,443.9 98.5,441.4 151.0,445.2 203.5,446.5 256.0,446.0 256.0,447.3 203.5,447.1 151.0,450.4 98.5,445.8 46.0,446.7" fill="#888888" opacity="0.11"/>
<polyline points="46.0,444.6 98.5,444.3 151.0,447.5 203.5,446.9 256.0,446.8" fill="none" stroke="#888888" stroke-width="1.6"/>
<circle cx="46.0" cy="444.6" r="2" fill="#888888"/>
<circle cx="98.5" cy="444.3" r="2" fill="#888888"/>
<circle cx="151.0" cy="447.5" r="2" fill="#888888"/>
<circle cx="203.5" cy="446.9" r="2" fill="#888888"/>
<circle cx="256.0" cy="446.8" r="2" fill="#888888"/>
<text x="151.0" y="399" text-anchor="middle" font-size="12" font-weight="bold">sbmv</text>
<line x1="46.0" y1="404" x2="46.0" y2="542" stroke="#f4f4f4"/>
<text x="46.0" y="553" text-anchor="middle" font-size="8" fill="#999">64</text>
<line x1="98.5" y1="404" x2="98.5" y2="542" stroke="#f4f4f4"/>
<text x="98.5" y="553" text-anchor="middle" font-size="8" fill="#999">128</text>
<line x1="151.0" y1="404" x2="151.0" y2="542" stroke="#f4f4f4"/>
<text x="151.0" y="553" text-anchor="middle" font-size="8" fill="#999">256</text>
<line x1="203.5" y1="404" x2="203.5" y2="542" stroke="#f4f4f4"/>
<text x="203.5" y="553" text-anchor="middle" font-size="8" fill="#999">512</text>
<line x1="256.0" y1="404" x2="256.0" y2="542" stroke="#f4f4f4"/>
<text x="256.0" y="553" text-anchor="middle" font-size="8" fill="#999">1k</text>
</svg>
