<svg xmlns="http://www.w3.org/2000/svg" width="900" height="440" font-family="sans-serif">
<rect width="900" height="440" fill="white"/>
<text x="450.0" y="28" text-anchor="middle" font-size="18" font-weight="bold">Complex BLAS-1: PureBLAS / OpenBLAS (AVX-512 native (Zen5), 1 thread, ComplexF64)</text>
<line x1="60" y1="358.0" x2="880" y2="358.0" stroke="#eee"/>
<text x="52" y="362.0" text-anchor="end" font-size="11" fill="#666">0×</text>
<line x1="60" y1="348.61359356655294" x2="880" y2="348.61359356655294" stroke="#eee"/>
<text x="52" y="352.61359356655294" text-anchor="end" font-size="11" fill="#666">0.5×</text>
<line x1="60" y1="339.2271871331059" x2="880" y2="339.2271871331059" stroke="#eee"/>
<text x="52" y="343.2271871331059" text-anchor="end" font-size="11" fill="#666">1×</text>
<line x1="60" y1="329.8407806996588" x2="880" y2="329.8407806996588" stroke="#eee"/>
<text x="52" y="333.8407806996588" text-anchor="end" font-size="11" fill="#666">1.5×</text>
<line x1="60" y1="339.2271871331059" x2="880" y2="339.2271871331059" stroke="#888" stroke-width="1"/>
<line x1="60" y1="339.9780996477817" x2="880" y2="339.9780996477817" stroke="#d33" stroke-width="1.5" stroke-dasharray="6 4"/>
<text x="880" y="334.9780996477817" text-anchor="end" font-size="11" fill="#d33">0.96× gate</text>
<polygon points="149.9,342.2 152.2,342.1 154.8,342.0 157.7,341.8 160.9,341.7 164.3,341.6 167.8,341.4 171.4,341.3 175.0,341.1 178.4,341.0 181.8,340.9 185.0,340.7 188.1,340.6 191.1,340.5 194.0,340.3 196.9,340.2 199.7,340.0 202.4,339.9 204.9,339.8 207.1,339.6 208.9,339.5 210.2,339.4 210.9,339.2 210.9,339.1 210.2,339.0 209.0,338.8 207.2,338.7 204.9,338.5 202.4,338.4 199.7,338.3 197.0,338.1 194.3,338.0 191.8,337.9 189.3,337.7 187.0,337.6 184.9,337.5 182.8,337.3 180.7,337.2 178.6,337.0 176.4,336.9 174.2,336.8 171.9,336.6 169.6,336.5 167.2,336.4 164.8,336.2 162.6,336.1 160.5,336.0 158.7,335.8 157.2,335.7 156.1,335.5 155.3,335.4 155.0,335.3 155.1,335.1 155.6,335.0 156.4,334.9 157.4,334.7 158.4,334.6 159.5,334.4 160.5,334.3 161.2,334.2 161.6,334.0 161.6,333.9 161.1,333.8 160.3,333.6 159.1,333.5 157.6,333.4 155.9,333.2 154.1,333.1 152.3,332.9 150.5,332.8 148.9,332.7 147.4,332.5 136.6,332.5 135.1,332.7 133.5,332.8 131.7,332.9 129.9,333.1 128.1,333.2 126.4,333.4 124.9,333.5 123.7,333.6 122.9,333.8 122.4,333.9 122.4,334.0 122.8,334.2 123.5,334.3 124.5,334.4 125.6,334.6 126.6,334.7 127.6,334.9 128.4,335.0 128.9,335.1 129.0,335.3 128.7,335.4 127.9,335.5 126.8,335.7 125.3,335.8 123.5,336.0 121.4,336.1 119.2,336.2 116.8,336.4 114.4,336.5 112.1,336.6 109.8,336.8 107.6,336.9 105.4,337.0 103.3,337.2 101.2,337.3 99.1,337.5 97.0,337.6 94.7,337.7 92.2,337.9 89.7,338.0 87.0,338.1 84.3,338.3 81.6,338.4 79.1,338.5 76.8,338.7 75.0,338.8 73.8,339.0 73.1,339.1 73.1,339.2 73.8,339.4 75.1,339.5 76.9,339.6 79.1,339.8 81.6,339.9 84.3,340.0 87.1,340.2 90.0,340.3 92.9,340.5 95.9,340.6 99.0,340.7 102.2,340.9 105.6,341.0 109.0,341.1 112.6,341.3 116.2,341.4 119.7,341.6 123.1,341.7 126.3,341.8 129.2,342.0 131.8,342.1 134.1,342.2" fill="#d33" opacity="0.5" stroke="#d33" stroke-width="1"/>
<line x1="73.8" y1="338.9472722685528" x2="210.2" y2="338.9472722685528" stroke="#114" stroke-width="2"/>
<circle cx="142.0" cy="340.7245599303472" r="2.4" fill="#114"/>
<text x="142.0" y="327.503319240886" text-anchor="middle" font-size="11">1.01</text>
<text x="142.0" y="376" text-anchor="middle" font-size="12">zaxpy</text>
<polygon points="311.9,340.7 313.8,340.6 316.1,340.5 318.9,340.3 322.2,340.2 325.9,340.1 330.0,340.0 334.5,339.9 339.3,339.7 344.2,339.6 349.2,339.5 354.1,339.4 358.8,339.3 363.2,339.1 367.0,339.0 370.2,338.9 372.7,338.8 374.2,338.6 374.9,338.5 374.6,338.4 373.4,338.3 371.3,338.2 368.5,338.0 365.1,337.9 361.3,337.8 357.1,337.7 352.9,337.6 348.7,337.4 344.7,337.3 341.0,337.2 337.6,337.1 334.7,336.9 332.2,336.8 330.1,336.7 328.5,336.6 327.1,336.5 326.1,336.3 325.2,336.2 324.5,336.1 323.8,336.0 323.3,335.9 322.8,335.7 322.3,335.6 321.8,335.5 321.3,335.4 320.9,335.2 320.5,335.1 320.3,335.0 320.1,334.9 320.0,334.8 320.0,334.6 320.1,334.5 320.3,334.4 320.5,334.3 320.8,334.2 321.1,334.0 321.3,333.9 321.4,333.8 321.3,333.7 321.1,333.5 320.6,333.4 320.0,333.3 319.1,333.2 318.1,333.1 316.9,332.9 315.7,332.8 314.4,332.7 313.1,332.6 311.9,332.4 310.8,332.3 309.8,332.2 308.9,332.1 303.1,332.1 302.2,332.2 301.2,332.3 300.1,332.4 298.9,332.6 297.6,332.7 296.3,332.8 295.1,332.9 293.9,333.1 292.9,333.2 292.0,333.3 291.4,333.4 290.9,333.5 290.7,333.7 290.6,333.8 290.7,333.9 290.9,334.0 291.2,334.2 291.5,334.3 291.7,334.4 291.9,334.5 292.0,334.6 292.0,334.8 291.9,334.9 291.7,335.0 291.5,335.1 291.1,335.2 290.7,335.4 290.2,335.5 289.7,335.6 289.2,335.7 288.7,335.9 288.2,336.0 287.5,336.1 286.8,336.2 285.9,336.3 284.9,336.5 283.5,336.6 281.9,336.7 279.8,336.8 277.3,336.9 274.4,337.1 271.0,337.2 267.3,337.3 263.3,337.4 259.1,337.6 254.9,337.7 250.7,337.8 246.9,337.9 243.5,338.0 240.7,338.2 238.6,338.3 237.4,338.4 237.1,338.5 237.8,338.6 239.3,338.8 241.8,338.9 245.0,339.0 248.8,339.1 253.2,339.3 257.9,339.4 262.8,339.5 267.8,339.6 272.7,339.7 277.5,339.9 282.0,340.0 286.1,340.1 289.8,340.2 293.1,340.3 295.9,340.5 298.2,340.6 300.1,340.7" fill="#2a8" opacity="0.5" stroke="#2a8" stroke-width="1"/>
<line x1="240.4" y1="338.1765528692659" x2="371.6" y2="338.1765528692659" stroke="#114" stroke-width="2"/>
<circle cx="306.0" cy="339.4506644596293" r="2.4" fill="#114"/>
<text x="306.0" y="326.95002517110953" text-anchor="middle" font-size="11">1.06</text>
<text x="306.0" y="376" text-anchor="middle" font-size="12">zdotc</text>
<polygon points="470.1,343.6 470.2,343.4 470.3,343.2 470.5,343.0 470.7,342.8 470.9,342.6 471.0,342.5 471.2,342.3 471.3,342.1 471.3,341.9 471.4,341.7 471.5,341.5 472.0,341.3 473.0,341.1 474.9,340.9 478.2,340.7 483.2,340.5 490.2,340.3 499.1,340.1 509.3,339.9 519.7,339.7 529.0,339.5 535.7,339.3 538.9,339.1 538.1,338.9 533.7,338.7 526.4,338.5 517.5,338.3 508.1,338.1 499.2,337.9 491.5,337.7 485.3,337.5 480.6,337.3 477.5,337.1 475.5,336.9 474.5,336.7 474.1,336.5 474.1,336.3 474.2,336.1 474.4,335.9 474.4,335.7 474.4,335.5 474.4,335.3 474.3,335.1 474.2,334.9 474.3,334.7 474.5,334.5 474.8,334.3 475.2,334.1 475.6,333.9 475.9,333.8 476.0,333.6 475.9,333.4 475.6,333.2 475.1,333.0 474.5,332.8 473.8,332.6 473.1,332.4 472.5,332.2 472.0,332.0 471.6,331.8 471.3,331.6 471.1,331.4 471.0,331.2 470.9,331.0 470.8,330.8 470.6,330.6 470.5,330.4 470.4,330.2 470.3,330.0 470.2,329.8 470.1,329.6 469.9,329.6 469.8,329.8 469.7,330.0 469.6,330.2 469.5,330.4 469.4,330.6 469.2,330.8 469.1,331.0 469.0,331.2 468.9,331.4 468.7,331.6 468.4,331.8 468.0,332.0 467.5,332.2 466.9,332.4 466.2,332.6 465.5,332.8 464.9,333.0 464.4,333.2 464.1,333.4 464.0,333.6 464.1,333.8 464.4,333.9 464.8,334.1 465.2,334.3 465.5,334.5 465.7,334.7 465.8,334.9 465.7,335.1 465.6,335.3 465.6,335.5 465.6,335.7 465.6,335.9 465.8,336.1 465.9,336.3 465.9,336.5 465.5,336.7 464.5,336.9 462.5,337.1 459.4,337.3 454.7,337.5 448.5,337.7 440.8,337.9 431.9,338.1 422.5,338.3 413.6,338.5 406.3,338.7 401.9,338.9 401.1,339.1 404.3,339.3 411.0,339.5 420.3,339.7 430.7,339.9 440.9,340.1 449.8,340.3 456.8,340.5 461.8,340.7 465.1,340.9 467.0,341.1 468.0,341.3 468.5,341.5 468.6,341.7 468.7,341.9 468.7,342.1 468.8,342.3 469.0,342.5 469.1,342.6 469.3,342.8 469.5,343.0 469.7,343.2 469.8,343.4 469.9,343.6" fill="#2a8" opacity="0.5" stroke="#2a8" stroke-width="1"/>
<line x1="401.4" y1="339.1276642253603" x2="538.6" y2="339.1276642253603" stroke="#114" stroke-width="2"/>
<circle cx="470.0" cy="339.22983346120316" r="2.4" fill="#114"/>
<text x="470.0" y="324.9874192233719" text-anchor="middle" font-size="11">1.01</text>
<text x="470.0" y="376" text-anchor="middle" font-size="12">zscal</text>
<polygon points="655.7,281.4 659.1,278.1 662.7,274.8 666.4,271.6 670.1,268.3 673.9,265.1 677.6,261.8 681.0,258.5 684.2,255.3 687.1,252.0 689.5,248.8 691.5,245.5 692.9,242.3 693.8,239.0 694.1,235.7 693.9,232.5 693.2,229.2 692.0,226.0 690.3,222.7 688.3,219.4 686.0,216.2 683.4,212.9 680.7,209.7 678.0,206.4 675.3,203.2 672.6,199.9 670.1,196.6 667.9,193.4 665.9,190.1 664.3,186.9 663.0,183.6 662.0,180.3 661.4,177.1 661.2,173.8 661.2,170.6 661.5,167.3 662.1,164.0 662.9,160.8 663.8,157.5 664.9,154.3 666.2,151.0 667.5,147.8 668.9,144.5 670.4,141.2 672.1,138.0 673.9,134.7 675.9,131.5 678.0,128.2 680.3,124.9 682.8,121.7 685.4,118.4 688.1,115.2 690.8,111.9 693.4,108.7 695.9,105.4 698.2,102.1 700.1,98.9 701.6,95.6 702.5,92.4 702.9,89.1 702.6,85.8 701.6,82.6 700.0,79.3 697.8,76.1 694.9,72.8 691.6,69.6 687.9,66.3 683.8,63.0 679.5,59.8 675.1,56.5 670.7,53.3 666.4,50.0 601.6,50.0 597.3,53.3 592.9,56.5 588.5,59.8 584.2,63.0 580.1,66.3 576.4,69.6 573.1,72.8 570.2,76.1 568.0,79.3 566.4,82.6 565.4,85.8 565.1,89.1 565.5,92.4 566.4,95.6 567.9,98.9 569.8,102.1 572.1,105.4 574.6,108.7 577.2,111.9 579.9,115.2 582.6,118.4 585.2,121.7 587.7,124.9 590.0,128.2 592.1,131.5 594.1,134.7 595.9,138.0 597.6,141.2 599.1,144.5 600.5,147.8 601.8,151.0 603.1,154.3 604.2,157.5 605.1,160.8 605.9,164.0 606.5,167.3 606.8,170.6 606.8,173.8 606.6,177.1 606.0,180.3 605.0,183.6 603.7,186.9 602.1,190.1 600.1,193.4 597.9,196.6 595.4,199.9 592.7,203.2 590.0,206.4 587.3,209.7 584.6,212.9 582.0,216.2 579.7,219.4 577.7,222.7 576.0,226.0 574.8,229.2 574.1,232.5 573.9,235.7 574.2,239.0 575.1,242.3 576.5,245.5 578.5,248.8 580.9,252.0 583.8,255.3 587.0,258.5 590.4,261.8 594.1,265.1 597.9,268.3 601.6,271.6 605.3,274.8 608.9,278.1 612.3,281.4" fill="#2a8" opacity="0.5" stroke="#2a8" stroke-width="1"/>
<line x1="599.9" y1="146.28437811458036" x2="668.1" y2="146.28437811458036" stroke="#114" stroke-width="2"/>
<circle cx="634.0" cy="250.82921617398247" r="2.4" fill="#114"/>
<text x="634.0" y="61.433962264150935" text-anchor="middle" font-size="11">11.28</text>
<text x="634.0" y="376" text-anchor="middle" font-size="12">dznrm2</text>
<polygon points="799.7,343.1 800.6,342.9 801.8,342.6 803.4,342.3 805.3,342.1 807.8,341.8 810.8,341.6 814.3,341.3 818.4,341.0 823.2,340.8 828.5,340.5 834.3,340.3 840.5,340.0 846.8,339.7 852.8,339.5 858.3,339.2 862.8,339.0 865.7,338.7 866.9,338.4 866.1,338.2 863.2,337.9 858.6,337.7 852.4,337.4 845.4,337.1 837.8,336.9 830.4,336.6 823.4,336.4 817.3,336.1 812.3,335.9 808.2,335.6 805.2,335.3 803.0,335.1 801.5,334.8 800.5,334.6 799.9,334.3 799.5,334.0 799.3,333.8 799.2,333.5 799.1,333.3 799.1,333.0 799.1,332.7 799.3,332.5 799.5,332.2 799.9,332.0 800.4,331.7 801.1,331.4 801.9,331.2 802.9,330.9 803.9,330.7 804.8,330.4 805.7,330.1 806.4,329.9 806.8,329.6 807.0,329.4 806.8,329.1 806.3,328.9 805.7,328.6 804.8,328.3 803.9,328.1 803.0,327.8 802.1,327.6 801.3,327.3 800.7,327.0 800.1,326.8 799.7,326.5 799.3,326.3 799.1,326.0 798.8,325.7 798.6,325.5 798.5,325.2 798.4,325.0 798.3,324.7 797.7,324.7 797.6,325.0 797.5,325.2 797.4,325.5 797.2,325.7 796.9,326.0 796.7,326.3 796.3,326.5 795.9,326.8 795.3,327.0 794.7,327.3 793.9,327.6 793.0,327.8 792.1,328.1 791.2,328.3 790.3,328.6 789.7,328.9 789.2,329.1 789.0,329.4 789.2,329.6 789.6,329.9 790.3,330.1 791.2,330.4 792.1,330.7 793.1,330.9 794.1,331.2 794.9,331.4 795.6,331.7 796.1,332.0 796.5,332.2 796.7,332.5 796.9,332.7 796.9,333.0 796.9,333.3 796.8,333.5 796.7,333.8 796.5,334.0 796.1,334.3 795.5,334.6 794.5,334.8 793.0,335.1 790.8,335.3 787.8,335.6 783.7,335.9 778.7,336.1 772.6,336.4 765.6,336.6 758.2,336.9 750.6,337.1 743.6,337.4 737.4,337.7 732.8,337.9 729.9,338.2 729.1,338.4 730.3,338.7 733.2,339.0 737.7,339.2 743.2,339.5 749.2,339.7 755.5,340.0 761.7,340.3 767.5,340.5 772.8,340.8 777.6,341.0 781.7,341.3 785.2,341.6 788.2,341.8 790.7,342.1 792.6,342.3 794.2,342.6 795.4,342.9 796.3,343.1" fill="#d33" opacity="0.5" stroke="#d33" stroke-width="1"/>
<line x1="729.2" y1="338.3540655459113" x2="866.8" y2="338.3540655459113" stroke="#114" stroke-width="2"/>
<circle cx="798.0" cy="340.4517284046829" r="2.4" fill="#114"/>
<text x="798.0" y="320.51416389137177" text-anchor="middle" font-size="11">1.05</text>
<text x="798.0" y="376" text-anchor="middle" font-size="12">dzasum</text>
<text x="450.0" y="428" text-anchor="middle" font-size="11" fill="#666">violin = ratio distribution over sizes · line = median · dark dot = worst size · green = every size ≥ gate</text>
</svg>
