<svg xmlns="http://www.w3.org/2000/svg" width="900" height="460" font-family="sans-serif">
<rect width="900" height="460" fill="white"/>
<text x="450.0" y="28" text-anchor="middle" font-size="18" font-weight="bold">LAPACK: PureBLAS / OpenBLAS (AVX-512, 1 thread, Float64)</text>
<line x1="62" y1="400.0" x2="768" y2="400.0" stroke="#eee"/>
<text x="54" y="404.0" text-anchor="end" font-size="11" fill="#666">0.5×</text>
<line x1="62" y1="341.07709797405107" x2="768" y2="341.07709797405107" stroke="#eee"/>
<text x="54" y="345.07709797405107" text-anchor="end" font-size="11" fill="#666">0.7×</text>
<line x1="62" y1="278.616304810685" x2="768" y2="278.616304810685" stroke="#eee"/>
<text x="54" y="282.616304810685" text-anchor="end" font-size="11" fill="#666">1.0×</text>
<line x1="62" y1="207.6113949259687" x2="768" y2="207.6113949259687" stroke="#eee"/>
<text x="54" y="211.6113949259687" text-anchor="end" font-size="11" fill="#666">1.5×</text>
<line x1="62" y1="157.23260962137002" x2="768" y2="157.23260962137002" stroke="#eee"/>
<text x="54" y="161.23260962137002" text-anchor="end" font-size="11" fill="#666">2.0×</text>
<line x1="62" y1="86.22769973665373" x2="768" y2="86.22769973665373" stroke="#eee"/>
<text x="54" y="90.22769973665373" text-anchor="end" font-size="11" fill="#666">3.0×</text>
<line x1="62.0" y1="50" x2="62.0" y2="400" stroke="#f4f4f4"/>
<text x="62.0" y="418" text-anchor="middle" font-size="11" fill="#444">8</text>
<line x1="238.5" y1="50" x2="238.5" y2="400" stroke="#f4f4f4"/>
<text x="238.5" y="418" text-anchor="middle" font-size="11" fill="#444">32</text>
<line x1="415.0" y1="50" x2="415.0" y2="400" stroke="#f4f4f4"/>
<text x="415.0" y="418" text-anchor="middle" font-size="11" fill="#444">128</text>
<line x1="503.25" y1="50" x2="503.25" y2="400" stroke="#f4f4f4"/>
<text x="503.25" y="418" text-anchor="middle" font-size="11" fill="#444">256</text>
<line x1="591.5" y1="50" x2="591.5" y2="400" stroke="#f4f4f4"/>
<text x="591.5" y="418" text-anchor="middle" font-size="11" fill="#444">512</text>
<line x1="679.75" y1="50" x2="679.75" y2="400" stroke="#f4f4f4"/>
<text x="679.75" y="418" text-anchor="middle" font-size="11" fill="#444">1024</text>
<line x1="768.0" y1="50" x2="768.0" y2="400" stroke="#f4f4f4"/>
<text x="768.0" y="418" text-anchor="middle" font-size="11" fill="#444">2048</text>
<line x1="62" y1="278.616304810685" x2="768" y2="278.616304810685" stroke="#888"/>
<line x1="62" y1="285.7650384113377" x2="768" y2="285.7650384113377" stroke="#d33" stroke-width="1.5" stroke-dasharray="6 4"/>
<text x="66" y="280.7650384113377" font-size="11" fill="#d33">0.96× gate</text>
<polygon points="62.0,199.8 238.5,207.6 415.0,206.1 503.2,225.7 591.5,217.2 679.8,242.1 768.0,250.9 768.0,258.8 679.8,259.3 591.5,235.9 503.2,230.2 415.0,217.3 238.5,227.0 62.0,204.5" fill="#1f77b4" opacity="0.14" stroke="none"/>
<polyline points="62.0,201.2 238.5,209.8 415.0,211.1 503.2,228.4 591.5,220.0 679.8,253.6 768.0,254.8" fill="none" stroke="#1f77b4" stroke-width="2"/>
<circle cx="62.0" cy="201.2" r="3" fill="#1f77b4"/>
<circle cx="238.5" cy="209.8" r="3" fill="#1f77b4"/>
<circle cx="415.0" cy="211.1" r="3" fill="#1f77b4"/>
<circle cx="503.2" cy="228.4" r="3" fill="#1f77b4"/>
<circle cx="591.5" cy="220.0" r="3" fill="#1f77b4"/>
<circle cx="679.8" cy="253.6" r="3" fill="#1f77b4"/>
<circle cx="768.0" cy="254.8" r="3" fill="#1f77b4"/>
<line x1="782" y1="56" x2="802" y2="56" stroke="#1f77b4" stroke-width="3"/>
<text x="806" y="60" font-size="12">potrf</text>
<polygon points="62.0,50.0 238.5,194.8 415.0,185.9 503.2,230.7 591.5,193.3 679.8,226.0 768.0,248.7 768.0,251.1 679.8,229.3 591.5,209.8 503.2,243.5 415.0,215.3 238.5,214.0 62.0,88.7" fill="#d62728" opacity="0.14" stroke="none"/>
<polyline points="62.0,74.5 238.5,207.2 415.0,201.7 503.2,241.6 591.5,201.9 679.8,227.8 768.0,249.5" fill="none" stroke="#d62728" stroke-width="2"/>
<circle cx="62.0" cy="74.5" r="3" fill="#d62728"/>
<circle cx="238.5" cy="207.2" r="3" fill="#d62728"/>
<circle cx="415.0" cy="201.7" r="3" fill="#d62728"/>
<circle cx="503.2" cy="241.6" r="3" fill="#d62728"/>
<circle cx="591.5" cy="201.9" r="3" fill="#d62728"/>
<circle cx="679.8" cy="227.8" r="3" fill="#d62728"/>
<circle cx="768.0" cy="249.5" r="3" fill="#d62728"/>
<line x1="782" y1="74" x2="802" y2="74" stroke="#d62728" stroke-width="3"/>
<text x="806" y="78" font-size="12">geqrf</text>
<polygon points="62.0,160.5 238.5,184.6 415.0,236.1 503.2,262.0 591.5,249.2 679.8,253.2 768.0,265.4 768.0,270.8 679.8,257.2 591.5,275.5 503.2,287.5 415.0,240.0 238.5,191.5 62.0,168.9" fill="#2ca02c" opacity="0.14" stroke="none"/>
<polyline points="62.0,168.2 238.5,187.3 415.0,238.7 503.2,268.3 591.5,262.3 679.8,255.9 768.0,268.0" fill="none" stroke="#2ca02c" stroke-width="2"/>
<circle cx="62.0" cy="168.2" r="3" fill="#2ca02c"/>
<circle cx="238.5" cy="187.3" r="3" fill="#2ca02c"/>
<circle cx="415.0" cy="238.7" r="3" fill="#2ca02c"/>
<circle cx="503.2" cy="268.3" r="3" fill="#2ca02c"/>
<circle cx="591.5" cy="262.3" r="3" fill="#2ca02c"/>
<circle cx="679.8" cy="255.9" r="3" fill="#2ca02c"/>
<circle cx="768.0" cy="268.0" r="3" fill="#2ca02c"/>
<line x1="782" y1="92" x2="802" y2="92" stroke="#2ca02c" stroke-width="3"/>
<text x="806" y="96" font-size="12">getrf</text>
<polygon points="62.0,187.0 238.5,160.1 415.0,266.8 503.2,230.3 591.5,222.1 679.8,228.2 768.0,246.2 768.0,251.2 679.8,235.7 591.5,231.7 503.2,241.1 415.0,273.5 238.5,224.1 62.0,189.5" fill="#9467bd" opacity="0.14" stroke="none"/>
<polyline points="62.0,189.1 238.5,218.5 415.0,271.2 503.2,238.8 591.5,227.7 679.8,230.3 768.0,246.6" fill="none" stroke="#9467bd" stroke-width="2"/>
<circle cx="62.0" cy="189.1" r="3" fill="#9467bd"/>
<circle cx="238.5" cy="218.5" r="3" fill="#9467bd"/>
<circle cx="415.0" cy="271.2" r="3" fill="#9467bd"/>
<circle cx="503.2" cy="238.8" r="3" fill="#9467bd"/>
<circle cx="591.5" cy="227.7" r="3" fill="#9467bd"/>
<circle cx="679.8" cy="230.3" r="3" fill="#9467bd"/>
<circle cx="768.0" cy="246.6" r="3" fill="#9467bd"/>
<line x1="782" y1="110" x2="802" y2="110" stroke="#9467bd" stroke-width="3"/>
<text x="806" y="114" font-size="12">gesvd</text>
<text x="415.0" y="450" text-anchor="middle" font-size="11" fill="#666">matrix size n (log) · y = median ratio (log) · dashed = the 0.96× gate</text>
</svg>
