<svg xmlns="http://www.w3.org/2000/svg" width="900" height="440" font-family="sans-serif">
<rect width="900" height="440" fill="white"/>
<text x="450.0" y="28" text-anchor="middle" font-size="18" font-weight="bold">Complex BLAS-1: PureBLAS / OpenBLAS (AVX2, 1 thread, ComplexF64)</text>
<line x1="60" y1="358.0" x2="880" y2="358.0" stroke="#eee"/>
<text x="52" y="362.0" text-anchor="end" font-size="11" fill="#666">0×</text>
<line x1="60" y1="339.7078220598742" x2="880" y2="339.7078220598742" stroke="#eee"/>
<text x="52" y="343.7078220598742" text-anchor="end" font-size="11" fill="#666">0.5×</text>
<line x1="60" y1="321.4156441197484" x2="880" y2="321.4156441197484" stroke="#eee"/>
<text x="52" y="325.4156441197484" text-anchor="end" font-size="11" fill="#666">1×</text>
<line x1="60" y1="303.1234661796226" x2="880" y2="303.1234661796226" stroke="#eee"/>
<text x="52" y="307.1234661796226" text-anchor="end" font-size="11" fill="#666">1.5×</text>
<line x1="60" y1="321.4156441197484" x2="880" y2="321.4156441197484" stroke="#888" stroke-width="1"/>
<line x1="60" y1="322.8790183549585" x2="880" y2="322.8790183549585" stroke="#d33" stroke-width="1.5" stroke-dasharray="6 4"/>
<text x="880" y="317.8790183549585" text-anchor="end" font-size="11" fill="#d33">0.96× gate</text>
<polygon points="118.6,327.8 118.6,327.6 118.7,327.4 118.8,327.2 118.8,327.0 118.9,326.8 119.1,326.6 119.2,326.4 119.3,326.2 119.5,326.0 119.7,325.8 119.8,325.6 120.0,325.4 120.3,325.2 120.6,325.0 121.0,324.8 121.6,324.6 122.5,324.4 123.5,324.2 124.8,324.0 126.4,323.8 128.3,323.6 130.4,323.4 133.0,323.2 136.0,323.0 139.8,322.8 144.4,322.6 149.7,322.4 155.3,322.2 160.7,322.0 165.0,321.8 167.6,321.6 167.8,321.3 165.4,321.1 160.8,320.9 154.5,320.7 147.5,320.5 140.5,320.3 134.3,320.1 129.2,319.9 125.4,319.7 122.7,319.5 120.9,319.3 119.8,319.1 119.2,318.9 118.9,318.7 118.7,318.5 118.7,318.3 118.6,318.1 118.7,317.9 118.8,317.7 119.0,317.5 119.4,317.3 120.0,317.1 120.8,316.9 121.9,316.7 123.3,316.5 124.9,316.3 126.4,316.1 127.7,315.9 128.5,315.7 128.8,315.5 128.4,315.3 127.5,315.1 126.2,314.9 124.6,314.7 123.1,314.5 121.8,314.3 120.7,314.1 119.9,313.9 119.4,313.7 119.0,313.4 118.1,313.4 117.8,313.7 117.2,313.9 116.4,314.1 115.4,314.3 114.0,314.5 112.5,314.7 111.0,314.9 109.6,315.1 108.7,315.3 108.3,315.5 108.6,315.7 109.5,315.9 110.7,316.1 112.3,316.3 113.8,316.5 115.2,316.7 116.3,316.9 117.2,317.1 117.8,317.3 118.1,317.5 118.3,317.7 118.5,317.9 118.5,318.1 118.5,318.3 118.4,318.5 118.3,318.7 117.9,318.9 117.3,319.1 116.2,319.3 114.5,319.5 111.8,319.7 107.9,319.9 102.9,320.1 96.6,320.3 89.7,320.5 82.6,320.7 76.4,320.9 71.7,321.1 69.4,321.3 69.6,321.6 72.1,321.8 76.5,322.0 81.8,322.2 87.5,322.4 92.7,322.6 97.3,322.8 101.1,323.0 104.2,323.2 106.7,323.4 108.9,323.6 110.7,323.8 112.3,324.0 113.6,324.2 114.7,324.4 115.5,324.6 116.1,324.8 116.5,325.0 116.9,325.2 117.1,325.4 117.3,325.6 117.5,325.8 117.6,326.0 117.8,326.2 118.0,326.4 118.1,326.6 118.2,326.8 118.3,327.0 118.4,327.2 118.4,327.4 118.5,327.6 118.5,327.8" fill="#d33" opacity="0.5" stroke="#d33" stroke-width="1"/>
<line x1="69.4" y1="321.3514103234292" x2="167.8" y2="321.3514103234292" stroke="#114" stroke-width="2"/>
<circle cx="118.57142857142857" cy="323.0748392439586" r="2.4" fill="#114"/>
<text x="118.57142857142857" y="308.90037073873583" text-anchor="middle" font-size="11">1.00</text>
<text x="118.57142857142857" y="376" text-anchor="middle" font-size="12">zaxpy</text>
<polygon points="237.1,331.2 237.8,330.9 238.8,330.7 240.1,330.5 241.5,330.3 242.9,330.0 244.3,329.8 245.3,329.6 246.0,329.4 246.1,329.1 245.7,328.9 244.8,328.7 243.5,328.5 242.1,328.2 240.7,328.0 239.3,327.8 238.2,327.6 237.4,327.3 236.8,327.1 236.3,326.9 236.1,326.7 235.9,326.4 235.8,326.2 235.8,326.0 235.8,325.8 235.9,325.5 236.1,325.3 236.3,325.1 236.7,324.9 237.2,324.6 238.0,324.4 239.0,324.2 240.4,324.0 242.2,323.7 244.5,323.5 247.3,323.3 250.8,323.1 254.8,322.8 259.5,322.6 264.7,322.4 270.0,322.2 275.2,321.9 279.7,321.7 283.0,321.5 284.9,321.3 284.9,321.0 283.2,320.8 279.9,320.6 275.3,320.4 270.0,320.1 264.5,319.9 259.0,319.7 254.0,319.5 249.7,319.2 246.1,319.0 243.2,318.8 241.1,318.6 239.5,318.3 238.3,318.1 237.6,317.9 237.0,317.7 236.7,317.4 236.4,317.2 236.3,317.0 236.2,316.8 236.1,316.5 236.0,316.3 235.9,316.1 235.9,315.9 235.8,315.6 235.8,315.4 235.8,315.2 235.7,315.2 235.6,315.4 235.6,315.6 235.5,315.9 235.5,316.1 235.4,316.3 235.4,316.5 235.3,316.8 235.1,317.0 235.0,317.2 234.8,317.4 234.4,317.7 233.9,317.9 233.1,318.1 232.0,318.3 230.4,318.6 228.2,318.8 225.3,319.0 221.7,319.2 217.4,319.5 212.4,319.7 207.0,319.9 201.4,320.1 196.1,320.4 191.6,320.6 188.2,320.8 186.5,321.0 186.6,321.3 188.4,321.5 191.7,321.7 196.2,321.9 201.4,322.2 206.7,322.4 211.9,322.6 216.6,322.8 220.7,323.1 224.1,323.3 227.0,323.5 229.2,323.7 231.0,324.0 232.4,324.2 233.5,324.4 234.2,324.6 234.8,324.9 235.1,325.1 235.4,325.3 235.5,325.5 235.6,325.8 235.6,326.0 235.6,326.2 235.5,326.4 235.4,326.7 235.1,326.9 234.7,327.1 234.0,327.3 233.2,327.6 232.1,327.8 230.8,328.0 229.3,328.2 227.9,328.5 226.7,328.7 225.7,328.9 225.3,329.1 225.4,329.4 226.1,329.6 227.2,329.8 228.5,330.0 230.0,330.3 231.4,330.5 232.6,330.7 233.6,330.9 234.3,331.2" fill="#d33" opacity="0.5" stroke="#d33" stroke-width="1"/>
<line x1="187.0" y1="321.3430091544203" x2="284.4" y2="321.3430091544203" stroke="#114" stroke-width="2"/>
<circle cx="235.71428571428572" cy="329.22712024793884" r="2.4" fill="#114"/>
<text x="235.71428571428572" y="310.794059364428" text-anchor="middle" font-size="11">1.00</text>
<text x="235.71428571428572" y="376" text-anchor="middle" font-size="12">zdotc</text>
<polygon points="352.9,324.2 352.9,324.2 352.9,324.1 353.0,324.0 353.0,323.9 353.1,323.9 353.2,323.8 353.2,323.7 353.3,323.6 353.3,323.6 353.4,323.5 353.4,323.4 353.5,323.3 353.7,323.3 353.9,323.2 354.3,323.1 354.7,323.0 355.4,323.0 356.2,322.9 357.3,322.8 358.8,322.7 360.6,322.7 362.9,322.6 365.7,322.5 369.0,322.5 372.9,322.4 377.1,322.3 381.6,322.2 386.0,322.2 390.1,322.1 393.8,322.0 397.0,321.9 399.5,321.9 401.3,321.8 402.1,321.7 401.6,321.6 399.7,321.6 396.7,321.5 392.8,321.4 388.4,321.3 383.9,321.3 379.5,321.2 375.3,321.1 371.4,321.1 367.7,321.0 364.3,320.9 361.5,320.8 359.2,320.8 357.7,320.7 356.9,320.6 357.0,320.5 358.0,320.5 359.8,320.4 362.3,320.3 365.0,320.2 367.6,320.2 369.3,320.1 369.9,320.0 369.0,319.9 367.0,319.9 364.3,319.8 361.4,319.7 358.8,319.6 356.7,319.6 355.2,319.5 354.2,319.4 353.6,319.4 353.3,319.3 353.1,319.2 353.0,319.1 352.9,319.1 352.9,319.0 352.8,319.0 352.8,319.1 352.7,319.1 352.6,319.2 352.4,319.3 352.1,319.4 351.5,319.4 350.5,319.5 349.0,319.6 346.9,319.6 344.3,319.7 341.4,319.8 338.7,319.9 336.7,319.9 335.9,320.0 336.4,320.1 338.1,320.2 340.7,320.2 343.4,320.3 345.9,320.4 347.7,320.5 348.7,320.5 348.8,320.6 348.1,320.7 346.5,320.8 344.2,320.8 341.4,320.9 338.0,321.0 334.3,321.1 330.4,321.1 326.2,321.2 321.8,321.3 317.3,321.3 312.9,321.4 309.0,321.5 306.0,321.6 304.2,321.6 303.7,321.7 304.4,321.8 306.2,321.9 308.8,321.9 311.9,322.0 315.6,322.1 319.8,322.2 324.1,322.2 328.6,322.3 332.8,322.4 336.7,322.5 340.0,322.5 342.8,322.6 345.1,322.7 346.9,322.7 348.4,322.8 349.5,322.9 350.4,323.0 351.0,323.0 351.4,323.1 351.8,323.2 352.0,323.3 352.2,323.3 352.3,323.4 352.4,323.5 352.4,323.6 352.4,323.6 352.5,323.7 352.5,323.8 352.6,323.9 352.7,323.9 352.7,324.0 352.8,324.1 352.8,324.2 352.8,324.2" fill="#2a8" opacity="0.5" stroke="#2a8" stroke-width="1"/>
<line x1="303.9" y1="321.66254561565665" x2="401.8" y2="321.66254561565665" stroke="#114" stroke-width="2"/>
<circle cx="352.85714285714283" cy="322.1089635745789" r="2.4" fill="#114"/>
<text x="352.85714285714283" y="313.5497367108878" text-anchor="middle" font-size="11">0.99</text>
<text x="352.85714285714283" y="376" text-anchor="middle" font-size="12">zscal</text>
<polygon points="470.8,191.3 471.1,189.4 471.4,187.5 471.7,185.5 472.2,183.6 472.7,181.7 473.3,179.7 474.0,177.8 474.9,175.9 475.9,173.9 476.9,172.0 478.1,170.1 479.4,168.1 480.8,166.2 482.2,164.3 483.6,162.3 484.9,160.4 486.2,158.5 487.3,156.5 488.3,154.6 489.2,152.7 489.9,150.7 490.5,148.8 491.0,146.9 491.5,144.9 491.9,143.0 492.3,141.1 492.7,139.1 492.9,137.2 493.1,135.3 493.0,133.3 492.8,131.4 492.3,129.5 491.5,127.5 490.4,125.6 489.2,123.7 487.7,121.7 486.1,119.8 484.4,117.9 482.7,115.9 481.2,114.0 479.7,112.1 478.4,110.1 477.4,108.2 476.6,106.3 476.2,104.3 476.1,102.4 476.4,100.5 477.1,98.6 478.3,96.6 480.1,94.7 482.4,92.8 485.3,90.8 488.8,88.9 492.7,87.0 497.1,85.0 501.6,83.1 506.1,81.2 510.2,79.2 513.9,77.3 516.7,75.4 518.5,73.4 519.2,71.5 518.7,69.6 516.9,67.6 514.1,65.7 510.5,63.8 506.2,61.8 501.6,59.9 496.8,58.0 492.2,56.0 488.0,54.1 452.0,54.1 447.8,56.0 443.2,58.0 438.4,59.9 433.8,61.8 429.5,63.8 425.9,65.7 423.1,67.6 421.3,69.6 420.8,71.5 421.5,73.4 423.3,75.4 426.1,77.3 429.8,79.2 433.9,81.2 438.4,83.1 442.9,85.0 447.3,87.0 451.2,88.9 454.7,90.8 457.6,92.8 459.9,94.7 461.7,96.6 462.9,98.6 463.6,100.5 463.9,102.4 463.8,104.3 463.4,106.3 462.6,108.2 461.6,110.1 460.3,112.1 458.8,114.0 457.3,115.9 455.6,117.9 453.9,119.8 452.3,121.7 450.8,123.7 449.6,125.6 448.5,127.5 447.7,129.5 447.2,131.4 447.0,133.3 446.9,135.3 447.1,137.2 447.3,139.1 447.7,141.1 448.1,143.0 448.5,144.9 449.0,146.9 449.5,148.8 450.1,150.7 450.8,152.7 451.7,154.6 452.7,156.5 453.8,158.5 455.1,160.4 456.4,162.3 457.8,164.3 459.2,166.2 460.6,168.1 461.9,170.1 463.1,172.0 464.1,173.9 465.1,175.9 466.0,177.8 466.7,179.7 467.3,181.7 467.8,183.6 468.3,185.5 468.6,187.5 468.9,189.4 469.2,191.3" fill="#2a8" opacity="0.5" stroke="#2a8" stroke-width="1"/>
<line x1="424.1" y1="75.96615858857646" x2="515.9" y2="75.96615858857646" stroke="#114" stroke-width="2"/>
<circle cx="470.0" cy="152.70952214487858" r="2.4" fill="#114"/>
<text x="470.0" y="61.43396226415098" text-anchor="middle" font-size="11">7.71</text>
<text x="470.0" y="376" text-anchor="middle" font-size="12">dznrm2</text>
<polygon points="587.7,320.2 587.9,319.7 588.2,319.2 588.7,318.7 589.3,318.2 590.0,317.7 591.0,317.2 592.2,316.7 593.8,316.2 595.7,315.7 598.0,315.2 600.7,314.6 603.8,314.1 607.3,313.6 611.1,313.1 614.9,312.6 618.7,312.1 622.1,311.6 624.9,311.1 626.9,310.6 628.0,310.1 627.9,309.6 626.8,309.1 624.8,308.6 622.0,308.1 618.9,307.6 615.7,307.1 613.0,306.6 610.9,306.1 610.0,305.6 610.3,305.1 612.0,304.6 614.9,304.1 618.9,303.6 623.4,303.1 628.0,302.6 632.0,302.1 634.9,301.6 636.3,301.1 636.0,300.6 633.9,300.1 630.3,299.6 625.4,299.1 619.8,298.6 614.0,298.0 608.5,297.5 603.5,297.0 599.2,296.5 595.8,296.0 593.3,295.5 591.5,295.0 590.4,294.5 589.9,294.0 589.9,293.5 590.4,293.0 591.3,292.5 592.6,292.0 594.2,291.5 596.0,291.0 598.0,290.5 599.9,290.0 601.6,289.5 603.0,289.0 603.7,288.5 603.8,288.0 603.3,287.5 602.1,287.0 600.5,286.5 598.6,286.0 596.6,285.5 594.6,285.0 592.8,284.5 581.4,284.5 579.6,285.0 577.7,285.5 575.7,286.0 573.7,286.5 572.1,287.0 571.0,287.5 570.5,288.0 570.6,288.5 571.3,289.0 572.6,289.5 574.3,290.0 576.3,290.5 578.3,291.0 580.1,291.5 581.7,292.0 583.0,292.5 583.9,293.0 584.4,293.5 584.4,294.0 583.9,294.5 582.8,295.0 581.0,295.5 578.5,296.0 575.1,296.5 570.8,297.0 565.8,297.5 560.2,298.0 554.5,298.6 548.9,299.1 544.0,299.6 540.4,300.1 538.3,300.6 537.9,301.1 539.4,301.6 542.3,302.1 546.3,302.6 550.9,303.1 555.4,303.6 559.4,304.1 562.3,304.6 564.0,305.1 564.3,305.6 563.4,306.1 561.3,306.6 558.6,307.1 555.4,307.6 552.3,308.1 549.5,308.6 547.5,309.1 546.4,309.6 546.3,310.1 547.4,310.6 549.4,311.1 552.2,311.6 555.6,312.1 559.3,312.6 563.2,313.1 567.0,313.6 570.5,314.1 573.6,314.6 576.3,315.2 578.6,315.7 580.5,316.2 582.1,316.7 583.3,317.2 584.3,317.7 585.0,318.2 585.6,318.7 586.1,319.2 586.4,319.7 586.6,320.2" fill="#2a8" opacity="0.5" stroke="#2a8" stroke-width="1"/>
<line x1="538.6" y1="301.37196833835264" x2="635.7" y2="301.37196833835264" stroke="#114" stroke-width="2"/>
<circle cx="587.1428571428571" cy="310.85925336687757" r="2.4" fill="#114"/>
<text x="587.1428571428571" y="281.9811278365625" text-anchor="middle" font-size="11">1.55</text>
<text x="587.1428571428571" y="376" text-anchor="middle" font-size="12">dzasum</text>
<polygon points="708.8,330.5 709.8,330.3 710.9,330.1 712.0,330.0 712.9,329.8 713.7,329.6 714.4,329.4 714.7,329.3 714.8,329.1 714.5,328.9 714.0,328.8 713.2,328.6 712.3,328.4 711.3,328.2 710.2,328.1 709.2,327.9 708.2,327.7 707.4,327.5 706.6,327.4 706.0,327.2 705.6,327.0 705.2,326.9 705.0,326.7 704.8,326.5 704.8,326.3 704.7,326.2 704.8,326.0 704.8,325.8 704.9,325.6 705.0,325.5 705.1,325.3 705.3,325.1 705.5,325.0 705.7,324.8 705.9,324.6 706.2,324.4 706.6,324.3 707.0,324.1 707.6,323.9 708.4,323.7 709.4,323.6 710.6,323.4 712.2,323.2 714.0,323.0 716.3,322.9 718.9,322.7 721.9,322.5 725.2,322.4 728.8,322.2 732.5,322.0 736.3,321.8 740.1,321.7 743.6,321.5 746.8,321.3 749.4,321.1 751.5,321.0 752.9,320.8 753.5,320.6 753.3,320.5 752.3,320.3 750.5,320.1 748.1,319.9 745.0,319.8 741.5,319.6 737.6,319.4 733.5,319.2 729.4,319.1 725.5,318.9 721.8,318.7 718.4,318.6 715.4,318.4 712.8,318.2 695.7,318.2 693.2,318.4 690.2,318.6 686.8,318.7 683.1,318.9 679.1,319.1 675.0,319.2 671.0,319.4 667.1,319.6 663.6,319.8 660.5,319.9 658.0,320.1 656.3,320.3 655.3,320.5 655.1,320.6 655.7,320.8 657.1,321.0 659.1,321.1 661.8,321.3 665.0,321.5 668.5,321.7 672.2,321.8 676.0,322.0 679.8,322.2 683.4,322.4 686.7,322.5 689.7,322.7 692.3,322.9 694.5,323.0 696.4,323.2 697.9,323.4 699.2,323.6 700.2,323.7 700.9,323.9 701.5,324.1 702.0,324.3 702.4,324.4 702.7,324.6 702.9,324.8 703.1,325.0 703.3,325.1 703.4,325.3 703.6,325.5 703.7,325.6 703.8,325.8 703.8,326.0 703.8,326.2 703.8,326.3 703.7,326.5 703.6,326.7 703.3,326.9 703.0,327.0 702.5,327.2 701.9,327.4 701.2,327.5 700.4,327.7 699.4,327.9 698.3,328.1 697.3,328.2 696.2,328.4 695.3,328.6 694.6,328.8 694.1,328.9 693.8,329.1 693.9,329.3 694.2,329.4 694.8,329.6 695.6,329.8 696.6,330.0 697.7,330.1 698.7,330.3 699.8,330.5" fill="#d33" opacity="0.5" stroke="#d33" stroke-width="1"/>
<line x1="656.0" y1="320.85694708170286" x2="752.5" y2="320.85694708170286" stroke="#114" stroke-width="2"/>
<circle cx="704.2857142857142" cy="329.20093271467914" r="2.4" fill="#114"/>
<text x="704.2857142857142" y="313.4564547672265" text-anchor="middle" font-size="11">1.02</text>
<text x="704.2857142857142" y="376" text-anchor="middle" font-size="12">zdotu</text>
<polygon points="825.0,333.8 826.3,333.3 827.9,332.8 829.8,332.3 832.0,331.8 834.5,331.2 837.1,330.7 839.9,330.2 842.7,329.7 845.5,329.2 848.1,328.7 850.6,328.1 852.8,327.6 854.8,327.1 856.6,326.6 858.0,326.1 859.3,325.5 860.4,325.0 861.3,324.5 862.1,324.0 862.7,323.5 863.3,323.0 863.8,322.4 864.2,321.9 864.5,321.4 864.9,320.9 865.2,320.4 865.5,319.8 865.9,319.3 866.2,318.8 866.6,318.3 867.0,317.8 867.3,317.3 867.6,316.7 867.9,316.2 868.1,315.7 868.1,315.2 868.2,314.7 868.1,314.1 868.1,313.6 868.0,313.1 867.9,312.6 867.9,312.1 867.9,311.6 868.0,311.0 868.1,310.5 868.3,310.0 868.5,309.5 868.8,309.0 869.1,308.4 869.5,307.9 869.8,307.4 870.2,306.9 870.5,306.4 870.6,305.9 870.6,305.3 870.3,304.8 869.6,304.3 868.4,303.8 866.6,303.3 864.2,302.8 861.3,302.2 857.8,301.7 854.0,301.2 849.9,300.7 845.7,300.2 841.6,299.6 837.8,299.1 834.3,298.6 831.3,298.1 828.8,297.6 826.8,297.1 816.1,297.1 814.0,297.6 811.5,298.1 808.5,298.6 805.1,299.1 801.2,299.6 797.1,300.2 793.0,300.7 788.9,301.2 785.0,301.7 781.6,302.2 778.6,302.8 776.2,303.3 774.5,303.8 773.3,304.3 772.6,304.8 772.3,305.3 772.2,305.9 772.4,306.4 772.7,306.9 773.0,307.4 773.4,307.9 773.7,308.4 774.0,309.0 774.3,309.5 774.5,310.0 774.7,310.5 774.9,311.0 774.9,311.6 775.0,312.1 774.9,312.6 774.9,313.1 774.8,313.6 774.7,314.1 774.7,314.7 774.7,315.2 774.8,315.7 775.0,316.2 775.2,316.7 775.5,317.3 775.9,317.8 776.2,318.3 776.6,318.8 777.0,319.3 777.3,319.8 777.6,320.4 778.0,320.9 778.3,321.4 778.7,321.9 779.1,322.4 779.6,323.0 780.1,323.5 780.8,324.0 781.6,324.5 782.5,325.0 783.5,325.5 784.8,326.1 786.3,326.6 788.0,327.1 790.0,327.6 792.3,328.1 794.7,328.7 797.4,329.2 800.1,329.7 803.0,330.2 805.7,330.7 808.4,331.2 810.8,331.8 813.0,332.3 814.9,332.8 816.5,333.3 817.9,333.8" fill="#2a8" opacity="0.5" stroke="#2a8" stroke-width="1"/>
<line x1="774.7" y1="314.2278339607884" x2="868.1" y2="314.2278339607884" stroke="#114" stroke-width="2"/>
<circle cx="821.4285714285714" cy="317.59798405616186" r="2.4" fill="#114"/>
<text x="821.4285714285714" y="294.67032688227357" text-anchor="middle" font-size="11">1.20</text>
<text x="821.4285714285714" y="376" text-anchor="middle" font-size="12">izamax</text>
<text x="450.0" y="428" text-anchor="middle" font-size="11" fill="#666">violin = ratio distribution over sizes · line = median · dark dot = worst size · green = every size ≥ gate</text>
</svg>
