<svg xmlns="http://www.w3.org/2000/svg" width="900" height="440" font-family="sans-serif">
<rect width="900" height="440" fill="white"/>
<text x="450.0" y="28" text-anchor="middle" font-size="18" font-weight="bold">BLAS-2: PureBLAS / OpenBLAS (AVX-512 native (Zen5), 1 thread, Float64)</text>
<line x1="60" y1="358.0" x2="880" y2="358.0" stroke="#eee"/>
<text x="52" y="362.0" text-anchor="end" font-size="11" fill="#666">0×</text>
<line x1="60" y1="282.5464921929921" x2="880" y2="282.5464921929921" stroke="#eee"/>
<text x="52" y="286.5464921929921" text-anchor="end" font-size="11" fill="#666">0.5×</text>
<line x1="60" y1="207.09298438598424" x2="880" y2="207.09298438598424" stroke="#eee"/>
<text x="52" y="211.09298438598424" text-anchor="end" font-size="11" fill="#666">1×</text>
<line x1="60" y1="131.63947657897634" x2="880" y2="131.63947657897634" stroke="#eee"/>
<text x="52" y="135.63947657897634" text-anchor="end" font-size="11" fill="#666">1.5×</text>
<line x1="60" y1="207.09298438598424" x2="880" y2="207.09298438598424" stroke="#888" stroke-width="1"/>
<line x1="60" y1="213.12926501054488" x2="880" y2="213.12926501054488" stroke="#d33" stroke-width="1.5" stroke-dasharray="6 4"/>
<text x="880" y="208.12926501054488" text-anchor="end" font-size="11" fill="#d33">0.96× gate</text>
<polygon points="106.7,263.7 107.3,260.7 108.2,257.7 109.2,254.7 110.6,251.7 112.4,248.7 114.5,245.6 116.9,242.6 119.7,239.6 122.7,236.6 125.9,233.6 129.3,230.6 132.6,227.6 135.8,224.6 138.7,221.6 141.0,218.6 142.8,215.5 143.7,212.5 143.8,209.5 143.0,206.5 141.3,203.5 138.9,200.5 135.8,197.5 132.2,194.5 128.4,191.5 124.6,188.5 121.0,185.4 117.6,182.4 114.7,179.4 112.3,176.4 110.4,173.4 108.9,170.4 107.8,167.4 107.0,164.4 106.5,161.4 106.1,158.4 106.0,155.3 105.9,152.3 105.9,149.3 106.0,146.3 106.2,143.3 106.3,140.3 106.5,137.3 106.7,134.3 106.9,131.3 107.1,128.3 107.3,125.2 107.4,122.2 107.6,119.2 107.7,116.2 107.9,113.2 108.1,110.2 108.5,107.2 108.9,104.2 109.4,101.2 110.0,98.2 110.6,95.1 111.1,92.1 111.5,89.1 111.8,86.1 111.9,83.1 111.8,80.1 111.4,77.1 110.9,74.1 110.3,71.1 109.6,68.1 108.9,65.0 108.2,62.0 107.6,59.0 107.1,56.0 106.7,53.0 106.4,50.0 104.8,50.0 104.4,53.0 104.0,56.0 103.5,59.0 102.9,62.0 102.2,65.0 101.5,68.1 100.8,71.1 100.2,74.1 99.7,77.1 99.3,80.1 99.2,83.1 99.3,86.1 99.6,89.1 100.0,92.1 100.6,95.1 101.1,98.2 101.7,101.2 102.2,104.2 102.6,107.2 103.0,110.2 103.2,113.2 103.4,116.2 103.5,119.2 103.7,122.2 103.8,125.2 104.0,128.3 104.2,131.3 104.4,134.3 104.6,137.3 104.8,140.3 105.0,143.3 105.1,146.3 105.2,149.3 105.2,152.3 105.1,155.3 105.0,158.4 104.6,161.4 104.1,164.4 103.4,167.4 102.3,170.4 100.8,173.4 98.8,176.4 96.4,179.4 93.5,182.4 90.1,185.4 86.5,188.5 82.7,191.5 78.9,194.5 75.4,197.5 72.2,200.5 69.8,203.5 68.1,206.5 67.3,209.5 67.4,212.5 68.3,215.5 70.1,218.6 72.5,221.6 75.3,224.6 78.5,227.6 81.8,230.6 85.2,233.6 88.4,236.6 91.4,239.6 94.2,242.6 96.6,245.6 98.7,248.7 100.5,251.7 101.9,254.7 103.0,257.7 103.8,260.7 104.4,263.7" fill="#d33" opacity="0.5" stroke="#d33" stroke-width="1"/>
<line x1="67.2" y1="210.12379027610876" x2="143.9" y2="210.12379027610876" stroke="#114" stroke-width="2"/>
<circle cx="105.55555555555556" cy="230.99984048275326" r="2.4" fill="#114"/>
<text x="105.55555555555556" y="61.433962264150935" text-anchor="middle" font-size="11">0.98</text>
<text x="105.55555555555556" y="376" text-anchor="middle" font-size="12">gemvN</text>
<polygon points="207.4,208.5 210.1,207.9 213.0,207.4 216.1,206.8 219.2,206.2 222.3,205.6 225.2,205.0 227.8,204.4 230.0,203.8 231.8,203.2 233.2,202.7 234.1,202.1 234.7,201.5 234.9,200.9 234.9,200.3 234.7,199.7 234.3,199.1 233.7,198.6 232.8,198.0 231.7,197.4 230.3,196.8 228.6,196.2 226.7,195.6 224.5,195.0 222.2,194.5 219.8,193.9 217.5,193.3 215.4,192.7 213.5,192.1 211.9,191.5 210.7,190.9 209.8,190.3 209.2,189.8 208.9,189.2 208.8,188.6 208.9,188.0 209.1,187.4 209.6,186.8 210.2,186.2 211.1,185.7 212.2,185.1 213.5,184.5 215.2,183.9 217.0,183.3 219.1,182.7 221.2,182.1 223.2,181.5 225.0,181.0 226.3,180.4 227.2,179.8 227.5,179.2 227.1,178.6 226.1,178.0 224.6,177.4 222.7,176.9 220.5,176.3 218.1,175.7 215.8,175.1 213.6,174.5 211.5,173.9 209.7,173.3 208.2,172.8 206.8,172.2 205.6,171.6 204.5,171.0 203.6,170.4 202.7,169.8 201.9,169.2 201.1,168.6 200.4,168.1 199.7,167.5 199.1,166.9 194.2,166.9 193.6,167.5 193.0,168.1 192.2,168.6 191.5,169.2 190.6,169.8 189.7,170.4 188.8,171.0 187.7,171.6 186.5,172.2 185.2,172.8 183.6,173.3 181.8,173.9 179.8,174.5 177.5,175.1 175.2,175.7 172.9,176.3 170.7,176.9 168.7,177.4 167.2,178.0 166.2,178.6 165.9,179.2 166.1,179.8 167.0,180.4 168.4,181.0 170.2,181.5 172.2,182.1 174.3,182.7 176.3,183.3 178.2,183.9 179.8,184.5 181.2,185.1 182.3,185.7 183.1,186.2 183.7,186.8 184.2,187.4 184.5,188.0 184.6,188.6 184.5,189.2 184.2,189.8 183.6,190.3 182.6,190.9 181.4,191.5 179.8,192.1 177.9,192.7 175.8,193.3 173.5,193.9 171.1,194.5 168.8,195.0 166.7,195.6 164.7,196.2 163.0,196.8 161.6,197.4 160.5,198.0 159.7,198.6 159.0,199.1 158.6,199.7 158.4,200.3 158.4,200.9 158.7,201.5 159.2,202.1 160.2,202.7 161.5,203.2 163.3,203.8 165.5,204.4 168.1,205.0 171.0,205.6 174.1,206.2 177.3,206.8 180.3,207.4 183.3,207.9 185.9,208.5" fill="#2a8" opacity="0.5" stroke="#2a8" stroke-width="1"/>
<line x1="166.0" y1="195.82151032524635" x2="227.4" y2="195.82151032524635" stroke="#114" stroke-width="2"/>
<circle cx="196.66666666666669" cy="203.6050964635654" r="2.4" fill="#114"/>
<text x="196.66666666666669" y="165.16211374557133" text-anchor="middle" font-size="11">1.07</text>
<text x="196.66666666666669" y="376" text-anchor="middle" font-size="12">gemvT</text>
<polygon points="290.7,255.3 292.1,253.3 294.1,251.3 296.3,249.3 298.9,247.3 301.5,245.3 303.9,243.3 305.8,241.3 307.0,239.3 307.2,237.4 306.5,235.4 305.0,233.4 303.0,231.4 300.7,229.4 298.7,227.4 297.1,225.4 296.3,223.4 296.7,221.4 298.2,219.5 300.9,217.5 304.6,215.5 309.1,213.5 314.0,211.5 318.6,209.5 322.5,207.5 325.0,205.5 326.0,203.5 325.4,201.6 323.1,199.6 319.7,197.6 315.6,195.6 311.3,193.6 307.2,191.6 303.6,189.6 300.6,187.6 298.3,185.6 296.4,183.7 295.0,181.7 293.8,179.7 292.9,177.7 292.2,175.7 291.6,173.7 291.1,171.7 290.8,169.7 290.5,167.7 290.3,165.8 290.0,163.8 289.8,161.8 289.6,159.8 289.3,157.8 289.1,155.8 288.9,153.8 288.7,151.8 288.7,149.8 288.6,147.9 288.7,145.9 288.9,143.9 289.1,141.9 289.5,139.9 289.8,137.9 290.2,135.9 290.5,133.9 290.8,131.9 290.8,130.0 290.8,128.0 290.6,126.0 290.2,124.0 289.8,122.0 289.4,120.0 289.0,118.0 288.7,116.0 288.4,114.0 287.2,114.0 286.9,116.0 286.5,118.0 286.1,120.0 285.7,122.0 285.3,124.0 285.0,126.0 284.8,128.0 284.7,130.0 284.8,131.9 285.0,133.9 285.4,135.9 285.7,137.9 286.1,139.9 286.4,141.9 286.7,143.9 286.8,145.9 286.9,147.9 286.9,149.8 286.8,151.8 286.7,153.8 286.5,155.8 286.2,157.8 286.0,159.8 285.7,161.8 285.5,163.8 285.3,165.8 285.1,167.7 284.8,169.7 284.5,171.7 284.0,173.7 283.4,175.7 282.6,177.7 281.7,179.7 280.6,181.7 279.1,183.7 277.3,185.6 274.9,187.6 271.9,189.6 268.3,191.6 264.2,193.6 259.9,195.6 255.8,197.6 252.4,199.6 250.2,201.6 249.5,203.5 250.5,205.5 253.1,207.5 257.0,209.5 261.6,211.5 266.4,213.5 270.9,215.5 274.7,217.5 277.4,219.5 278.9,221.4 279.2,223.4 278.5,225.4 276.9,227.4 274.8,229.4 272.6,231.4 270.5,233.4 269.0,235.4 268.3,237.4 268.6,239.3 269.7,241.3 271.6,243.3 274.0,245.3 276.6,247.3 279.2,249.3 281.5,251.3 283.4,253.3 284.9,255.3" fill="#d33" opacity="0.5" stroke="#d33" stroke-width="1"/>
<line x1="249.9" y1="204.7806894313157" x2="325.6" y2="204.7806894313157" stroke="#114" stroke-width="2"/>
<circle cx="287.77777777777777" cy="240.6216185004231" r="2.4" fill="#114"/>
<text x="287.77777777777777" y="121.94799970839527" text-anchor="middle" font-size="11">1.02</text>
<text x="287.77777777777777" y="376" text-anchor="middle" font-size="12">ger</text>
<polygon points="379.2,224.6 379.4,223.6 379.6,222.6 379.9,221.6 380.3,220.6 380.7,219.5 381.1,218.5 381.4,217.5 381.7,216.5 381.8,215.5 381.9,214.5 381.9,213.4 381.8,212.4 381.7,211.4 381.7,210.4 381.8,209.4 382.2,208.4 382.8,207.3 383.7,206.3 384.8,205.3 386.1,204.3 387.5,203.3 388.8,202.3 389.9,201.2 390.7,200.2 391.5,199.2 392.2,198.2 393.1,197.2 394.4,196.1 396.3,195.1 398.7,194.1 401.6,193.1 404.8,192.1 408.0,191.1 410.9,190.0 413.4,189.0 415.3,188.0 416.5,187.0 417.1,186.0 417.2,185.0 416.7,183.9 415.8,182.9 414.6,181.9 413.3,180.9 411.8,179.9 410.2,178.9 408.6,177.8 406.8,176.8 404.8,175.8 402.4,174.8 399.8,173.8 397.1,172.7 394.4,171.7 392.0,170.7 390.2,169.7 389.2,168.7 389.0,167.7 389.6,166.6 390.7,165.6 392.0,164.6 393.0,163.6 393.5,162.6 393.3,161.6 392.3,160.5 390.7,159.5 388.7,158.5 386.6,157.5 384.6,156.5 382.9,155.5 381.5,154.4 380.5,153.4 379.9,152.4 377.9,152.4 377.2,153.4 376.3,154.4 374.9,155.5 373.2,156.5 371.2,157.5 369.1,158.5 367.1,159.5 365.5,160.5 364.5,161.6 364.3,162.6 364.8,163.6 365.8,164.6 367.1,165.6 368.2,166.6 368.8,167.7 368.6,168.7 367.6,169.7 365.8,170.7 363.4,171.7 360.7,172.7 357.9,173.8 355.3,174.8 353.0,175.8 351.0,176.8 349.2,177.8 347.5,178.9 346.0,179.9 344.5,180.9 343.2,181.9 342.0,182.9 341.1,183.9 340.6,185.0 340.6,186.0 341.3,187.0 342.5,188.0 344.4,189.0 346.9,190.0 349.8,191.1 353.0,192.1 356.1,193.1 359.1,194.1 361.5,195.1 363.4,196.1 364.7,197.2 365.6,198.2 366.3,199.2 367.0,200.2 367.9,201.2 369.0,202.3 370.3,203.3 371.6,204.3 372.9,205.3 374.1,206.3 375.0,207.3 375.6,208.4 376.0,209.4 376.1,210.4 376.1,211.4 376.0,212.4 375.9,213.4 375.9,214.5 375.9,215.5 376.1,216.5 376.4,217.5 376.7,218.5 377.1,219.5 377.5,220.6 377.9,221.6 378.2,222.6 378.4,223.6 378.6,224.6" fill="#2a8" opacity="0.5" stroke="#2a8" stroke-width="1"/>
<line x1="341.1" y1="184.0070904900267" x2="416.7" y2="184.0070904900267" stroke="#114" stroke-width="2"/>
<circle cx="378.8888888888889" cy="201.05682747404745" r="2.4" fill="#114"/>
<text x="378.8888888888889" y="153.6335653461437" text-anchor="middle" font-size="11">1.15</text>
<text x="378.8888888888889" y="376" text-anchor="middle" font-size="12">symv</text>
<polygon points="472.7,218.4 474.2,217.2 476.3,215.9 479.1,214.6 482.5,213.4 486.6,212.1 491.1,210.8 495.8,209.5 500.2,208.3 503.9,207.0 506.7,205.7 508.2,204.5 508.3,203.2 507.0,201.9 504.6,200.7 501.3,199.4 497.6,198.1 493.8,196.9 490.4,195.6 487.6,194.3 485.6,193.1 484.5,191.8 484.3,190.5 484.8,189.3 485.9,188.0 487.1,186.7 488.2,185.5 489.1,184.2 489.4,182.9 489.1,181.7 488.3,180.4 487.0,179.1 485.3,177.9 483.6,176.6 482.0,175.3 480.6,174.1 479.5,172.8 478.8,171.5 478.4,170.3 478.1,169.0 477.9,167.7 477.8,166.5 477.5,165.2 477.0,163.9 476.4,162.7 475.6,161.4 474.8,160.1 473.9,158.9 473.1,157.6 472.4,156.3 471.9,155.1 471.5,153.8 471.2,152.5 471.1,151.3 471.1,150.0 471.3,148.7 471.5,147.5 471.8,146.2 472.2,144.9 472.6,143.7 472.9,142.4 473.2,141.1 473.4,139.9 473.4,138.6 473.3,137.3 473.1,136.1 472.8,134.8 472.4,133.5 471.9,132.3 471.5,131.0 471.1,129.7 470.8,128.5 469.2,128.5 468.9,129.7 468.5,131.0 468.1,132.3 467.6,133.5 467.2,134.8 466.9,136.1 466.7,137.3 466.6,138.6 466.6,139.9 466.8,141.1 467.1,142.4 467.4,143.7 467.8,144.9 468.2,146.2 468.5,147.5 468.7,148.7 468.9,150.0 468.9,151.3 468.8,152.5 468.5,153.8 468.1,155.1 467.6,156.3 466.9,157.6 466.1,158.9 465.2,160.1 464.4,161.4 463.6,162.7 463.0,163.9 462.5,165.2 462.2,166.5 462.1,167.7 461.9,169.0 461.6,170.3 461.2,171.5 460.5,172.8 459.4,174.1 458.0,175.3 456.4,176.6 454.7,177.9 453.0,179.1 451.7,180.4 450.9,181.7 450.6,182.9 450.9,184.2 451.8,185.5 452.9,186.7 454.1,188.0 455.2,189.3 455.7,190.5 455.5,191.8 454.4,193.1 452.4,194.3 449.6,195.6 446.2,196.9 442.4,198.1 438.7,199.4 435.4,200.7 433.0,201.9 431.7,203.2 431.8,204.5 433.3,205.7 436.1,207.0 439.8,208.3 444.2,209.5 448.9,210.8 453.4,212.1 457.5,213.4 460.9,214.6 463.7,215.9 465.8,217.2 467.3,218.4" fill="#2a8" opacity="0.5" stroke="#2a8" stroke-width="1"/>
<line x1="439.6" y1="199.12162131465357" x2="500.4" y2="199.12162131465357" stroke="#114" stroke-width="2"/>
<circle cx="470.0" cy="206.0311386193296" r="2.4" fill="#114"/>
<text x="470.0" y="131.41653059736" text-anchor="middle" font-size="11">1.05</text>
<text x="470.0" y="376" text-anchor="middle" font-size="12">trmv</text>
<polygon points="564.1,233.0 565.1,232.1 566.2,231.1 567.4,230.2 568.8,229.3 570.1,228.3 571.4,227.4 572.6,226.5 573.6,225.5 574.5,224.6 575.2,223.7 575.7,222.7 576.2,221.8 576.6,220.9 577.0,219.9 577.4,219.0 577.9,218.1 578.3,217.1 578.7,216.2 578.9,215.2 578.9,214.3 578.8,213.4 578.5,212.4 578.0,211.5 577.6,210.6 577.2,209.6 577.0,208.7 577.0,207.8 577.2,206.8 577.6,205.9 578.2,205.0 578.8,204.0 579.6,203.1 580.4,202.2 581.3,201.2 582.3,200.3 583.5,199.4 585.0,198.4 586.8,197.5 588.8,196.6 591.1,195.6 593.4,194.7 595.6,193.8 597.5,192.8 598.8,191.9 599.4,191.0 599.1,190.0 597.9,189.1 596.0,188.2 593.4,187.2 590.4,186.3 587.3,185.4 584.2,184.4 581.5,183.5 579.3,182.6 577.5,181.6 576.4,180.7 575.7,179.8 575.3,178.8 575.1,177.9 575.0,177.0 574.7,176.0 574.3,175.1 573.6,174.2 572.7,173.2 571.6,172.3 570.4,171.4 569.0,170.4 567.7,169.5 566.4,168.6 565.2,167.6 564.2,166.7 558.0,166.7 557.0,167.6 555.8,168.6 554.6,169.5 553.2,170.4 551.9,171.4 550.6,172.3 549.5,173.2 548.6,174.2 547.9,175.1 547.5,176.0 547.3,177.0 547.1,177.9 546.9,178.8 546.6,179.8 545.9,180.7 544.7,181.6 543.0,182.6 540.7,183.5 538.0,184.4 535.0,185.4 531.8,186.3 528.8,187.2 526.2,188.2 524.3,189.1 523.1,190.0 522.8,191.0 523.4,191.9 524.7,192.8 526.6,193.8 528.8,194.7 531.1,195.6 533.4,196.6 535.5,197.5 537.2,198.4 538.7,199.4 539.9,200.3 540.9,201.2 541.8,202.2 542.6,203.1 543.4,204.0 544.1,205.0 544.6,205.9 545.0,206.8 545.2,207.8 545.2,208.7 545.0,209.6 544.6,210.6 544.2,211.5 543.7,212.4 543.4,213.4 543.3,214.3 543.3,215.2 543.5,216.2 543.9,217.1 544.3,218.1 544.8,219.0 545.2,219.9 545.6,220.9 546.1,221.8 546.5,222.7 547.1,223.7 547.8,224.6 548.6,225.5 549.6,226.5 550.8,227.4 552.1,228.3 553.4,229.3 554.8,230.2 556.0,231.1 557.2,232.1 558.1,233.0" fill="#d33" opacity="0.5" stroke="#d33" stroke-width="1"/>
<line x1="524.5" y1="192.71555962018923" x2="597.7" y2="192.71555962018923" stroke="#114" stroke-width="2"/>
<circle cx="561.1111111111111" cy="224.6214618567559" r="2.4" fill="#114"/>
<text x="561.1111111111111" y="167.36209104207654" text-anchor="middle" font-size="11">1.10</text>
<text x="561.1111111111111" y="376" text-anchor="middle" font-size="12">trsv</text>
<polygon points="657.9,182.0 659.7,180.7 661.7,179.3 663.8,178.0 665.9,176.6 667.8,175.2 669.5,173.9 670.7,172.5 671.5,171.2 671.9,169.8 672.0,168.4 671.9,167.1 671.9,165.7 672.1,164.4 672.7,163.0 673.7,161.7 675.2,160.3 677.1,158.9 679.2,157.6 681.4,156.2 683.5,154.9 685.4,153.5 686.9,152.2 688.0,150.8 688.7,149.4 688.9,148.1 688.9,146.7 688.5,145.4 688.0,144.0 687.3,142.6 686.7,141.3 686.0,139.9 685.5,138.6 685.1,137.2 685.0,135.9 685.3,134.5 685.8,133.1 686.6,131.8 687.7,130.4 688.8,129.1 689.8,127.7 690.4,126.3 690.5,125.0 689.8,123.6 688.3,122.3 686.0,120.9 683.1,119.6 679.8,118.2 676.3,116.8 673.0,115.5 670.0,114.1 667.5,112.8 665.7,111.4 664.7,110.0 664.2,108.7 664.4,107.3 664.9,106.0 665.7,104.6 666.4,103.3 666.9,101.9 667.2,100.5 667.0,99.2 666.4,97.8 665.4,96.5 664.1,95.1 662.5,93.7 660.9,92.4 659.3,91.0 657.8,89.7 656.5,88.3 655.4,87.0 654.5,85.6 650.0,85.6 649.1,87.0 647.9,88.3 646.6,89.7 645.1,91.0 643.5,92.4 641.9,93.7 640.4,95.1 639.1,96.5 638.1,97.8 637.5,99.2 637.3,100.5 637.5,101.9 638.1,103.3 638.8,104.6 639.5,106.0 640.1,107.3 640.2,108.7 639.8,110.0 638.7,111.4 636.9,112.8 634.5,114.1 631.5,115.5 628.1,116.8 624.6,118.2 621.3,119.6 618.4,120.9 616.1,122.3 614.6,123.6 614.0,125.0 614.0,126.3 614.6,127.7 615.6,129.1 616.7,130.4 617.8,131.8 618.6,133.1 619.2,134.5 619.4,135.9 619.3,137.2 619.0,138.6 618.4,139.9 617.8,141.3 617.1,142.6 616.5,144.0 615.9,145.4 615.6,146.7 615.5,148.1 615.8,149.4 616.4,150.8 617.5,152.2 619.0,153.5 620.9,154.9 623.0,156.2 625.2,157.6 627.4,158.9 629.2,160.3 630.7,161.7 631.7,163.0 632.3,164.4 632.5,165.7 632.5,167.1 632.4,168.4 632.5,169.8 632.9,171.2 633.7,172.5 635.0,173.9 636.6,175.2 638.5,176.6 640.6,178.0 642.7,179.3 644.7,180.7 646.5,182.0" fill="#2a8" opacity="0.5" stroke="#2a8" stroke-width="1"/>
<line x1="619.0" y1="138.42907762310978" x2="685.4" y2="138.42907762310978" stroke="#114" stroke-width="2"/>
<circle cx="652.2222222222223" cy="171.67586959299024" r="2.4" fill="#114"/>
<text x="652.2222222222223" y="89.17358088614648" text-anchor="middle" font-size="11">1.46</text>
<text x="652.2222222222223" y="376" text-anchor="middle" font-size="12">spmv</text>
<polygon points="743.5,183.7 743.8,182.6 744.5,181.6 746.1,180.5 748.8,179.5 753.2,178.4 759.1,177.4 766.1,176.3 773.1,175.3 778.7,174.2 781.6,173.2 780.9,172.1 776.7,171.1 770.4,170.0 763.6,169.0 757.7,167.9 753.7,166.9 751.4,165.9 750.4,164.8 750.1,163.8 750.1,162.7 750.1,161.7 749.7,160.6 749.1,159.6 748.3,158.5 747.5,157.5 746.9,156.4 746.5,155.4 746.2,154.3 746.0,153.3 745.7,152.2 745.2,151.2 744.8,150.1 744.3,149.1 744.0,148.0 743.7,147.0 743.5,145.9 743.4,144.9 743.4,143.8 743.4,142.8 743.5,141.7 743.5,140.7 743.5,139.6 743.5,138.6 743.5,137.5 743.4,136.5 743.4,135.4 743.4,134.4 743.3,133.3 743.3,132.3 743.4,131.2 743.4,130.2 743.4,129.2 743.4,128.1 743.5,127.1 743.5,126.0 743.5,125.0 743.6,123.9 743.6,122.9 743.6,121.8 743.7,120.8 743.8,119.7 743.8,118.7 743.8,117.6 743.8,116.6 743.7,115.5 743.6,114.5 743.5,113.4 743.4,112.4 743.4,111.3 743.3,110.3 743.3,109.2 743.3,109.2 743.3,110.3 743.3,111.3 743.3,112.4 743.2,113.4 743.1,114.5 743.0,115.5 742.9,116.6 742.8,117.6 742.8,118.7 742.9,119.7 743.0,120.8 743.0,121.8 743.1,122.9 743.1,123.9 743.1,125.0 743.1,126.0 743.2,127.1 743.2,128.1 743.3,129.2 743.3,130.2 743.3,131.2 743.3,132.3 743.3,133.3 743.3,134.4 743.3,135.4 743.2,136.5 743.2,137.5 743.2,138.6 743.2,139.6 743.2,140.7 743.2,141.7 743.2,142.8 743.3,143.8 743.2,144.9 743.1,145.9 743.0,147.0 742.7,148.0 742.3,149.1 741.9,150.1 741.4,151.2 741.0,152.2 740.7,153.3 740.4,154.3 740.2,155.4 739.8,156.4 739.2,157.5 738.4,158.5 737.6,159.6 736.9,160.6 736.6,161.7 736.5,162.7 736.6,163.8 736.3,164.8 735.3,165.9 733.0,166.9 728.9,167.9 723.1,169.0 716.3,170.0 709.9,171.1 705.8,172.1 705.1,173.2 708.0,174.2 713.6,175.3 720.6,176.3 727.6,177.4 733.5,178.4 737.8,179.5 740.6,180.5 742.1,181.6 742.9,182.6 743.2,183.7" fill="#2a8" opacity="0.5" stroke="#2a8" stroke-width="1"/>
<line x1="705.6" y1="172.22636274748228" x2="781.1" y2="172.22636274748228" stroke="#114" stroke-width="2"/>
<circle cx="743.3333333333334" cy="175.60571923375136" r="2.4" fill="#114"/>
<text x="743.3333333333334" y="110.67839454999611" text-anchor="middle" font-size="11">1.23</text>
<text x="743.3333333333334" y="376" text-anchor="middle" font-size="12">gbmvN</text>
<polygon points="835.4,194.7 836.2,193.8 837.5,192.9 839.4,192.1 842.0,191.2 845.5,190.3 849.8,189.4 854.6,188.6 859.7,187.7 864.6,186.8 868.6,185.9 871.4,185.1 872.7,184.2 872.3,183.3 870.4,182.5 867.3,181.6 863.3,180.7 859.0,179.8 854.7,179.0 850.8,178.1 847.5,177.2 844.8,176.3 842.9,175.5 841.7,174.6 841.1,173.7 840.9,172.8 841.0,172.0 841.2,171.1 841.3,170.2 841.1,169.3 840.7,168.5 840.0,167.6 839.2,166.7 838.3,165.9 837.5,165.0 836.8,164.1 836.5,163.2 836.5,162.4 836.8,161.5 837.4,160.6 838.3,159.7 839.4,158.9 840.5,158.0 841.5,157.1 842.1,156.2 842.3,155.4 842.1,154.5 841.5,153.6 840.5,152.8 839.4,151.9 838.3,151.0 837.3,150.1 836.4,149.3 835.8,148.4 835.4,147.5 835.1,146.6 834.9,145.8 834.8,144.9 834.8,144.0 834.8,143.1 834.8,142.3 834.8,141.4 834.8,140.5 834.8,139.6 834.8,138.8 834.8,137.9 834.8,137.0 834.7,136.2 834.7,135.3 834.6,134.4 834.6,133.5 834.5,132.7 834.4,132.7 834.3,133.5 834.3,134.4 834.2,135.3 834.2,136.2 834.1,137.0 834.1,137.9 834.1,138.8 834.0,139.6 834.0,140.5 834.1,141.4 834.1,142.3 834.1,143.1 834.1,144.0 834.1,144.9 834.0,145.8 833.8,146.6 833.5,147.5 833.1,148.4 832.4,149.3 831.6,150.1 830.6,151.0 829.5,151.9 828.3,152.8 827.4,153.6 826.8,154.5 826.5,155.4 826.8,156.2 827.4,157.1 828.4,158.0 829.5,158.9 830.5,159.7 831.5,160.6 832.1,161.5 832.4,162.4 832.4,163.2 832.0,164.1 831.4,165.0 830.6,165.9 829.7,166.7 828.9,167.6 828.2,168.5 827.8,169.3 827.6,170.2 827.7,171.1 827.8,172.0 828.0,172.8 827.8,173.7 827.2,174.6 826.0,175.5 824.1,176.3 821.4,177.2 818.1,178.1 814.1,179.0 809.9,179.8 805.6,180.7 801.6,181.6 798.5,182.5 796.6,183.3 796.2,184.2 797.4,185.1 800.3,185.9 804.3,186.8 809.2,187.7 814.3,188.6 819.1,189.4 823.4,190.3 826.9,191.2 829.5,192.1 831.4,192.9 832.7,193.8 833.5,194.7" fill="#2a8" opacity="0.5" stroke="#2a8" stroke-width="1"/>
<line x1="797.7" y1="182.74107923675362" x2="871.2" y2="182.74107923675362" stroke="#114" stroke-width="2"/>
<circle cx="834.4444444444445" cy="185.89691697736666" r="2.4" fill="#114"/>
<text x="834.4444444444445" y="132.90621289368795" text-anchor="middle" font-size="11">1.16</text>
<text x="834.4444444444445" y="376" text-anchor="middle" font-size="12">sbmv</text>
<text x="450.0" y="428" text-anchor="middle" font-size="11" fill="#666">violin = ratio distribution over sizes · line = median · dark dot = worst size · green = every size ≥ gate</text>
</svg>
