<svg xmlns="http://www.w3.org/2000/svg" width="900" height="460" font-family="sans-serif">
<rect width="900" height="460" fill="white"/>
<text x="450.0" y="28" text-anchor="middle" font-size="18" font-weight="bold">Complex BLAS-3: PureBLAS / OpenBLAS (AVX-512, 1 thread, ComplexF64)</text>
<line x1="62" y1="400.0" x2="768" y2="400.0" stroke="#eee"/>
<text x="54" y="404.0" text-anchor="end" font-size="11" fill="#666">0.5×</text>
<line x1="62" y1="312.1646374575582" x2="768" y2="312.1646374575582" stroke="#eee"/>
<text x="54" y="316.1646374575582" text-anchor="end" font-size="11" fill="#666">0.7×</text>
<line x1="62" y1="219.05540109006472" x2="768" y2="219.05540109006472" stroke="#eee"/>
<text x="54" y="223.05540109006472" text-anchor="end" font-size="11" fill="#666">1.0×</text>
<line x1="62" y1="113.20959601972245" x2="768" y2="113.20959601972245" stroke="#eee"/>
<text x="54" y="117.20959601972245" text-anchor="end" font-size="11" fill="#666">1.5×</text>
<line x1="62.0" y1="50" x2="62.0" y2="400" stroke="#f4f4f4"/>
<text x="62.0" y="418" text-anchor="middle" font-size="11" fill="#444">8</text>
<line x1="238.5" y1="50" x2="238.5" y2="400" stroke="#f4f4f4"/>
<text x="238.5" y="418" text-anchor="middle" font-size="11" fill="#444">32</text>
<line x1="415.0" y1="50" x2="415.0" y2="400" stroke="#f4f4f4"/>
<text x="415.0" y="418" text-anchor="middle" font-size="11" fill="#444">128</text>
<line x1="503.25" y1="50" x2="503.25" y2="400" stroke="#f4f4f4"/>
<text x="503.25" y="418" text-anchor="middle" font-size="11" fill="#444">256</text>
<line x1="591.5" y1="50" x2="591.5" y2="400" stroke="#f4f4f4"/>
<text x="591.5" y="418" text-anchor="middle" font-size="11" fill="#444">512</text>
<line x1="679.75" y1="50" x2="679.75" y2="400" stroke="#f4f4f4"/>
<text x="679.75" y="418" text-anchor="middle" font-size="11" fill="#444">1024</text>
<line x1="768.0" y1="50" x2="768.0" y2="400" stroke="#f4f4f4"/>
<text x="768.0" y="418" text-anchor="middle" font-size="11" fill="#444">2048</text>
<line x1="62" y1="219.05540109006472" x2="768" y2="219.05540109006472" stroke="#888"/>
<line x1="62" y1="229.71189603418912" x2="768" y2="229.71189603418912" stroke="#d33" stroke-width="1.5" stroke-dasharray="6 4"/>
<text x="66" y="224.71189603418912" font-size="11" fill="#d33">0.96× gate</text>
<polygon points="62.0,81.0 238.5,135.4 415.0,180.2 503.2,157.4 591.5,181.8 679.8,183.8 768.0,185.8 768.0,191.4 679.8,190.6 591.5,194.1 503.2,180.8 415.0,188.8 238.5,163.9 62.0,92.4" fill="#1f77b4" opacity="0.14" stroke="none"/>
<polyline points="62.0,86.5 238.5,153.2 415.0,184.4 503.2,170.7 591.5,187.2 679.8,185.2 768.0,189.3" fill="none" stroke="#1f77b4" stroke-width="2"/>
<circle cx="62.0" cy="86.5" r="3" fill="#1f77b4"/>
<circle cx="238.5" cy="153.2" r="3" fill="#1f77b4"/>
<circle cx="415.0" cy="184.4" r="3" fill="#1f77b4"/>
<circle cx="503.2" cy="170.7" r="3" fill="#1f77b4"/>
<circle cx="591.5" cy="187.2" r="3" fill="#1f77b4"/>
<circle cx="679.8" cy="185.2" r="3" fill="#1f77b4"/>
<circle cx="768.0" cy="189.3" r="3" fill="#1f77b4"/>
<line x1="782" y1="56" x2="802" y2="56" stroke="#1f77b4" stroke-width="3"/>
<text x="806" y="60" font-size="12">zgemm</text>
<polygon points="62.0,224.7 238.5,190.5 415.0,168.6 503.2,178.2 591.5,183.9 679.8,193.5 768.0,190.3 768.0,196.2 679.8,198.1 591.5,201.2 503.2,190.8 415.0,194.8 238.5,253.4 62.0,258.4" fill="#d62728" opacity="0.14" stroke="none"/>
<polyline points="62.0,249.3 238.5,203.6 415.0,183.3 503.2,185.4 591.5,198.1 679.8,195.5 768.0,192.4" fill="none" stroke="#d62728" stroke-width="2"/>
<circle cx="62.0" cy="249.3" r="3" fill="#d62728"/>
<circle cx="238.5" cy="203.6" r="3" fill="#d62728"/>
<circle cx="415.0" cy="183.3" r="3" fill="#d62728"/>
<circle cx="503.2" cy="185.4" r="3" fill="#d62728"/>
<circle cx="591.5" cy="198.1" r="3" fill="#d62728"/>
<circle cx="679.8" cy="195.5" r="3" fill="#d62728"/>
<circle cx="768.0" cy="192.4" r="3" fill="#d62728"/>
<line x1="782" y1="74" x2="802" y2="74" stroke="#d62728" stroke-width="3"/>
<text x="806" y="78" font-size="12">zhemm</text>
<polygon points="62.0,130.9 238.5,258.0 415.0,162.6 503.2,166.4 591.5,156.9 679.8,181.7 768.0,181.3 768.0,188.9 679.8,191.5 591.5,183.5 503.2,185.1 415.0,194.3 238.5,277.6 62.0,188.2" fill="#2ca02c" opacity="0.14" stroke="none"/>
<polyline points="62.0,166.2 238.5,273.4 415.0,183.4 503.2,183.4 591.5,177.4 679.8,184.9 768.0,184.1" fill="none" stroke="#2ca02c" stroke-width="2"/>
<circle cx="62.0" cy="166.2" r="3" fill="#2ca02c"/>
<circle cx="238.5" cy="273.4" r="3" fill="#2ca02c"/>
<circle cx="415.0" cy="183.4" r="3" fill="#2ca02c"/>
<circle cx="503.2" cy="183.4" r="3" fill="#2ca02c"/>
<circle cx="591.5" cy="177.4" r="3" fill="#2ca02c"/>
<circle cx="679.8" cy="184.9" r="3" fill="#2ca02c"/>
<circle cx="768.0" cy="184.1" r="3" fill="#2ca02c"/>
<line x1="782" y1="92" x2="802" y2="92" stroke="#2ca02c" stroke-width="3"/>
<text x="806" y="96" font-size="12">zherk</text>
<polygon points="62.0,180.2 238.5,196.4 415.0,135.8 503.2,188.7 591.5,183.8 679.8,187.6 768.0,193.0 768.0,196.9 679.8,196.7 591.5,194.1 503.2,197.8 415.0,159.7 238.5,206.6 62.0,214.7" fill="#9467bd" opacity="0.14" stroke="none"/>
<polyline points="62.0,191.3 238.5,201.0 415.0,149.8 503.2,193.5 591.5,188.1 679.8,194.9 768.0,196.0" fill="none" stroke="#9467bd" stroke-width="2"/>
<circle cx="62.0" cy="191.3" r="3" fill="#9467bd"/>
<circle cx="238.5" cy="201.0" r="3" fill="#9467bd"/>
<circle cx="415.0" cy="149.8" r="3" fill="#9467bd"/>
<circle cx="503.2" cy="193.5" r="3" fill="#9467bd"/>
<circle cx="591.5" cy="188.1" r="3" fill="#9467bd"/>
<circle cx="679.8" cy="194.9" r="3" fill="#9467bd"/>
<circle cx="768.0" cy="196.0" r="3" fill="#9467bd"/>
<line x1="782" y1="110" x2="802" y2="110" stroke="#9467bd" stroke-width="3"/>
<text x="806" y="114" font-size="12">ztrmm</text>
<polygon points="62.0,314.6 238.5,246.4 415.0,213.4 503.2,156.5 591.5,172.9 679.8,176.0 768.0,184.3 768.0,190.2 679.8,184.9 591.5,189.3 503.2,193.2 415.0,238.3 238.5,287.1 62.0,327.5" fill="#ff7f0e" opacity="0.14" stroke="none"/>
<polyline points="62.0,322.8 238.5,274.4 415.0,230.5 503.2,179.0 591.5,179.0 679.8,181.9 768.0,185.7" fill="none" stroke="#ff7f0e" stroke-width="2"/>
<circle cx="62.0" cy="322.8" r="3" fill="#ff7f0e"/>
<circle cx="238.5" cy="274.4" r="3" fill="#ff7f0e"/>
<circle cx="415.0" cy="230.5" r="3" fill="#ff7f0e"/>
<circle cx="503.2" cy="179.0" r="3" fill="#ff7f0e"/>
<circle cx="591.5" cy="179.0" r="3" fill="#ff7f0e"/>
<circle cx="679.8" cy="181.9" r="3" fill="#ff7f0e"/>
<circle cx="768.0" cy="185.7" r="3" fill="#ff7f0e"/>
<line x1="782" y1="128" x2="802" y2="128" stroke="#ff7f0e" stroke-width="3"/>
<text x="806" y="132" font-size="12">ztrsm</text>
<text x="415.0" y="450" text-anchor="middle" font-size="11" fill="#666">matrix size n (log) · y = median ratio (log) · dashed = the 0.96× gate</text>
</svg>
