<svg xmlns="http://www.w3.org/2000/svg" width="900" height="460" font-family="sans-serif">
<rect width="900" height="460" fill="white"/>
<text x="450.0" y="28" text-anchor="middle" font-size="18" font-weight="bold">Complex BLAS-3: PureBLAS / OpenBLAS (AVX-512, 1 thread, ComplexF64)</text>
<line x1="62" y1="400.0" x2="768" y2="400.0" stroke="#eee"/>
<text x="54" y="404.0" text-anchor="end" font-size="11" fill="#666">0.5×</text>
<line x1="62" y1="303.7688780356323" x2="768" y2="303.7688780356323" stroke="#eee"/>
<text x="54" y="307.7688780356323" text-anchor="end" font-size="11" fill="#666">0.7×</text>
<line x1="62" y1="201.75977803835113" x2="768" y2="201.75977803835113" stroke="#eee"/>
<text x="54" y="205.75977803835113" text-anchor="end" font-size="11" fill="#666">1.0×</text>
<line x1="62" y1="85.79668205614797" x2="768" y2="85.79668205614797" stroke="#eee"/>
<text x="54" y="89.79668205614797" text-anchor="end" font-size="11" fill="#666">1.5×</text>
<line x1="62.0" y1="50" x2="62.0" y2="400" stroke="#f4f4f4"/>
<text x="62.0" y="418" text-anchor="middle" font-size="11" fill="#444">8</text>
<line x1="238.5" y1="50" x2="238.5" y2="400" stroke="#f4f4f4"/>
<text x="238.5" y="418" text-anchor="middle" font-size="11" fill="#444">32</text>
<line x1="415.0" y1="50" x2="415.0" y2="400" stroke="#f4f4f4"/>
<text x="415.0" y="418" text-anchor="middle" font-size="11" fill="#444">128</text>
<line x1="503.25" y1="50" x2="503.25" y2="400" stroke="#f4f4f4"/>
<text x="503.25" y="418" text-anchor="middle" font-size="11" fill="#444">256</text>
<line x1="591.5" y1="50" x2="591.5" y2="400" stroke="#f4f4f4"/>
<text x="591.5" y="418" text-anchor="middle" font-size="11" fill="#444">512</text>
<line x1="679.75" y1="50" x2="679.75" y2="400" stroke="#f4f4f4"/>
<text x="679.75" y="418" text-anchor="middle" font-size="11" fill="#444">1024</text>
<line x1="768.0" y1="50" x2="768.0" y2="400" stroke="#f4f4f4"/>
<text x="768.0" y="418" text-anchor="middle" font-size="11" fill="#444">2048</text>
<line x1="62" y1="201.75977803835113" x2="768" y2="201.75977803835113" stroke="#888"/>
<line x1="62" y1="213.4348760284709" x2="768" y2="213.4348760284709" stroke="#d33" stroke-width="1.5" stroke-dasharray="6 4"/>
<text x="66" y="208.4348760284709" font-size="11" fill="#d33">0.96× gate</text>
<polygon points="62.0,93.8 238.5,86.5 415.0,128.2 503.2,152.3 591.5,163.0 679.8,167.5 768.0,164.3 768.0,169.3 679.8,172.0 591.5,174.3 503.2,172.6 415.0,147.2 238.5,118.0 62.0,149.2" fill="#1f77b4" opacity="0.14" stroke="none"/>
<polyline points="62.0,121.4 238.5,103.3 415.0,139.8 503.2,161.5 591.5,168.9 679.8,169.9 768.0,166.1" fill="none" stroke="#1f77b4" stroke-width="2"/>
<circle cx="62.0" cy="121.4" r="3" fill="#1f77b4"/>
<circle cx="238.5" cy="103.3" r="3" fill="#1f77b4"/>
<circle cx="415.0" cy="139.8" r="3" fill="#1f77b4"/>
<circle cx="503.2" cy="161.5" r="3" fill="#1f77b4"/>
<circle cx="591.5" cy="168.9" r="3" fill="#1f77b4"/>
<circle cx="679.8" cy="169.9" r="3" fill="#1f77b4"/>
<circle cx="768.0" cy="166.1" r="3" fill="#1f77b4"/>
<line x1="782" y1="56" x2="802" y2="56" stroke="#1f77b4" stroke-width="3"/>
<text x="806" y="60" font-size="12">zgemm</text>
<polygon points="62.0,255.8 238.5,152.7 415.0,152.2 503.2,165.3 591.5,168.3 679.8,166.7 768.0,165.6 768.0,171.1 679.8,169.9 591.5,180.6 503.2,178.8 415.0,184.2 238.5,158.3 62.0,275.1" fill="#d62728" opacity="0.14" stroke="none"/>
<polyline points="62.0,266.5 238.5,156.9 415.0,166.2 503.2,172.1 591.5,174.2 679.8,167.7 768.0,167.8" fill="none" stroke="#d62728" stroke-width="2"/>
<circle cx="62.0" cy="266.5" r="3" fill="#d62728"/>
<circle cx="238.5" cy="156.9" r="3" fill="#d62728"/>
<circle cx="415.0" cy="166.2" r="3" fill="#d62728"/>
<circle cx="503.2" cy="172.1" r="3" fill="#d62728"/>
<circle cx="591.5" cy="174.2" r="3" fill="#d62728"/>
<circle cx="679.8" cy="167.7" r="3" fill="#d62728"/>
<circle cx="768.0" cy="167.8" r="3" fill="#d62728"/>
<line x1="782" y1="74" x2="802" y2="74" stroke="#d62728" stroke-width="3"/>
<text x="806" y="78" font-size="12">zhemm</text>
<polygon points="62.0,136.0 238.5,252.8 415.0,160.5 503.2,144.6 591.5,154.2 679.8,159.4 768.0,158.5 768.0,168.3 679.8,168.0 591.5,158.0 503.2,164.7 415.0,213.1 238.5,282.3 62.0,178.8" fill="#2ca02c" opacity="0.14" stroke="none"/>
<polyline points="62.0,159.1 238.5,273.5 415.0,183.9 503.2,151.5 591.5,155.3 679.8,165.4 768.0,166.3" fill="none" stroke="#2ca02c" stroke-width="2"/>
<circle cx="62.0" cy="159.1" r="3" fill="#2ca02c"/>
<circle cx="238.5" cy="273.5" r="3" fill="#2ca02c"/>
<circle cx="415.0" cy="183.9" r="3" fill="#2ca02c"/>
<circle cx="503.2" cy="151.5" r="3" fill="#2ca02c"/>
<circle cx="591.5" cy="155.3" r="3" fill="#2ca02c"/>
<circle cx="679.8" cy="165.4" r="3" fill="#2ca02c"/>
<circle cx="768.0" cy="166.3" r="3" fill="#2ca02c"/>
<line x1="782" y1="92" x2="802" y2="92" stroke="#2ca02c" stroke-width="3"/>
<text x="806" y="96" font-size="12">zherk</text>
<polygon points="62.0,210.0 238.5,238.8 415.0,182.3 503.2,149.8 591.5,162.8 679.8,162.3 768.0,171.6 768.0,174.7 679.8,168.3 591.5,174.2 503.2,176.2 415.0,206.8 238.5,289.1 62.0,248.3" fill="#9467bd" opacity="0.14" stroke="none"/>
<polyline points="62.0,228.7 238.5,274.2 415.0,190.7 503.2,162.2 591.5,169.0 679.8,166.1 768.0,173.6" fill="none" stroke="#9467bd" stroke-width="2"/>
<circle cx="62.0" cy="228.7" r="3" fill="#9467bd"/>
<circle cx="238.5" cy="274.2" r="3" fill="#9467bd"/>
<circle cx="415.0" cy="190.7" r="3" fill="#9467bd"/>
<circle cx="503.2" cy="162.2" r="3" fill="#9467bd"/>
<circle cx="591.5" cy="169.0" r="3" fill="#9467bd"/>
<circle cx="679.8" cy="166.1" r="3" fill="#9467bd"/>
<circle cx="768.0" cy="173.6" r="3" fill="#9467bd"/>
<line x1="782" y1="110" x2="802" y2="110" stroke="#9467bd" stroke-width="3"/>
<text x="806" y="114" font-size="12">zher2k</text>
<polygon points="62.0,228.2 238.5,246.9 415.0,181.3 503.2,147.7 591.5,157.9 679.8,165.5 768.0,164.2 768.0,169.2 679.8,171.2 591.5,169.4 503.2,175.1 415.0,202.3 238.5,286.4 62.0,255.4" fill="#ff7f0e" opacity="0.14" stroke="none"/>
<polyline points="62.0,234.8 238.5,264.7 415.0,192.7 503.2,166.3 591.5,161.5 679.8,167.4 768.0,166.9" fill="none" stroke="#ff7f0e" stroke-width="2"/>
<circle cx="62.0" cy="234.8" r="3" fill="#ff7f0e"/>
<circle cx="238.5" cy="264.7" r="3" fill="#ff7f0e"/>
<circle cx="415.0" cy="192.7" r="3" fill="#ff7f0e"/>
<circle cx="503.2" cy="166.3" r="3" fill="#ff7f0e"/>
<circle cx="591.5" cy="161.5" r="3" fill="#ff7f0e"/>
<circle cx="679.8" cy="167.4" r="3" fill="#ff7f0e"/>
<circle cx="768.0" cy="166.9" r="3" fill="#ff7f0e"/>
<line x1="782" y1="128" x2="802" y2="128" stroke="#ff7f0e" stroke-width="3"/>
<text x="806" y="132" font-size="12">zsyr2k</text>
<polygon points="62.0,150.7 238.5,166.9 415.0,120.8 503.2,138.7 591.5,163.4 679.8,170.9 768.0,173.5 768.0,181.3 679.8,181.6 591.5,179.7 503.2,165.5 415.0,128.0 238.5,197.0 62.0,169.8" fill="#17becf" opacity="0.14" stroke="none"/>
<polyline points="62.0,153.2 238.5,182.1 415.0,123.0 503.2,158.8 591.5,174.0 679.8,175.6 768.0,177.7" fill="none" stroke="#17becf" stroke-width="2"/>
<circle cx="62.0" cy="153.2" r="3" fill="#17becf"/>
<circle cx="238.5" cy="182.1" r="3" fill="#17becf"/>
<circle cx="415.0" cy="123.0" r="3" fill="#17becf"/>
<circle cx="503.2" cy="158.8" r="3" fill="#17becf"/>
<circle cx="591.5" cy="174.0" r="3" fill="#17becf"/>
<circle cx="679.8" cy="175.6" r="3" fill="#17becf"/>
<circle cx="768.0" cy="177.7" r="3" fill="#17becf"/>
<line x1="782" y1="146" x2="802" y2="146" stroke="#17becf" stroke-width="3"/>
<text x="806" y="150" font-size="12">ztrmm</text>
<polygon points="62.0,149.6 238.5,207.3 415.0,172.9 503.2,142.7 591.5,156.2 679.8,156.1 768.0,170.1 768.0,173.4 679.8,165.3 591.5,170.6 503.2,165.3 415.0,203.8 238.5,233.2 62.0,190.6" fill="#8c564b" opacity="0.14" stroke="none"/>
<polyline points="62.0,174.8 238.5,224.4 415.0,196.1 503.2,153.9 591.5,157.9 679.8,162.0 768.0,172.0" fill="none" stroke="#8c564b" stroke-width="2"/>
<circle cx="62.0" cy="174.8" r="3" fill="#8c564b"/>
<circle cx="238.5" cy="224.4" r="3" fill="#8c564b"/>
<circle cx="415.0" cy="196.1" r="3" fill="#8c564b"/>
<circle cx="503.2" cy="153.9" r="3" fill="#8c564b"/>
<circle cx="591.5" cy="157.9" r="3" fill="#8c564b"/>
<circle cx="679.8" cy="162.0" r="3" fill="#8c564b"/>
<circle cx="768.0" cy="172.0" r="3" fill="#8c564b"/>
<line x1="782" y1="164" x2="802" y2="164" stroke="#8c564b" stroke-width="3"/>
<text x="806" y="168" font-size="12">ztrsm</text>
<polygon points="62.0,138.1 238.5,128.0 415.0,103.4 503.2,146.4 591.5,158.7 679.8,180.0 768.0,176.2 768.0,179.4 679.8,189.0 591.5,194.8 503.2,162.4 415.0,151.6 238.5,149.7 62.0,152.1" fill="#e377c2" opacity="0.14" stroke="none"/>
<polyline points="62.0,144.5 238.5,134.0 415.0,124.3 503.2,156.3 591.5,171.8 679.8,184.0 768.0,178.6" fill="none" stroke="#e377c2" stroke-width="2"/>
<circle cx="62.0" cy="144.5" r="3" fill="#e377c2"/>
<circle cx="238.5" cy="134.0" r="3" fill="#e377c2"/>
<circle cx="415.0" cy="124.3" r="3" fill="#e377c2"/>
<circle cx="503.2" cy="156.3" r="3" fill="#e377c2"/>
<circle cx="591.5" cy="171.8" r="3" fill="#e377c2"/>
<circle cx="679.8" cy="184.0" r="3" fill="#e377c2"/>
<circle cx="768.0" cy="178.6" r="3" fill="#e377c2"/>
<line x1="782" y1="182" x2="802" y2="182" stroke="#e377c2" stroke-width="3"/>
<text x="806" y="186" font-size="12">ztrmmR</text>
<polygon points="62.0,340.0 238.5,271.4 415.0,196.2 503.2,146.7 591.5,144.7 679.8,160.2 768.0,164.4 768.0,170.5 679.8,169.2 591.5,157.4 503.2,169.2 415.0,215.0 238.5,294.9 62.0,349.1" fill="#1f77b4" opacity="0.14" stroke="none"/>
<polyline points="62.0,343.5 238.5,283.0 415.0,205.0 503.2,157.0 591.5,150.0 679.8,162.5 768.0,167.4" fill="none" stroke="#1f77b4" stroke-width="2"/>
<circle cx="62.0" cy="343.5" r="3" fill="#1f77b4"/>
<circle cx="238.5" cy="283.0" r="3" fill="#1f77b4"/>
<circle cx="415.0" cy="205.0" r="3" fill="#1f77b4"/>
<circle cx="503.2" cy="157.0" r="3" fill="#1f77b4"/>
<circle cx="591.5" cy="150.0" r="3" fill="#1f77b4"/>
<circle cx="679.8" cy="162.5" r="3" fill="#1f77b4"/>
<circle cx="768.0" cy="167.4" r="3" fill="#1f77b4"/>
<line x1="782" y1="200" x2="802" y2="200" stroke="#1f77b4" stroke-width="3"/>
<text x="806" y="204" font-size="12">ztrsmR</text>
<text x="415.0" y="450" text-anchor="middle" font-size="11" fill="#666">matrix size n (log) · y = median ratio (log) · dashed = the 0.96× gate</text>
</svg>
