<svg xmlns="http://www.w3.org/2000/svg" width="962" height="592" font-family="sans-serif">
<rect width="962" height="592" fill="white"/>
<text x="481.0" y="26" text-anchor="middle" font-size="17" font-weight="bold">BLAS-2 — PureBLAS / AOCL (PB/AOCL ratio)</text>
<line x1="46" y1="42" x2="68" y2="42" stroke="#888888" stroke-width="3"/>
<text x="73" y="46" font-size="12">AVX2</text>
<line x1="127" y1="42" x2="149" y2="42" stroke="#888888" stroke-width="3"/>
<text x="154" y="46" font-size="12">Zen5</text>
<line x1="208" y1="42" x2="230" y2="42" stroke="#888888" stroke-width="3"/>
<text x="235" y="46" font-size="12">AVX-512</text>
<rect x="46" y="60" width="210" height="138" fill="none" stroke="#e2e2e2"/>
<line x1="46" y1="131.23956351075293" x2="256" y2="131.23956351075293" stroke="#d33" stroke-dasharray="4 3"/>
<text x="42" y="201.0" text-anchor="end" font-size="9" fill="#999">0.5×</text>
<text x="42" y="134.23956351075293" text-anchor="end" font-size="9" fill="#999">1.0×</text>
<polygon points="46.0,67.4 98.5,115.1 151.0,124.1 203.5,129.0 256.0,129.6 256.0,131.3 203.5,130.5 151.0,128.6 98.5,117.5 46.0,69.1" fill="#888888" opacity="0.11"/>
<polyline points="46.0,68.1 98.5,117.2 151.0,127.0 203.5,129.1 256.0,129.8" fill="none" stroke="#888888" stroke-width="1.6"/>
<circle cx="46.0" cy="68.1" r="2" fill="#888888"/>
<circle cx="98.5" cy="117.2" r="2" fill="#888888"/>
<circle cx="151.0" cy="127.0" r="2" fill="#888888"/>
<circle cx="203.5" cy="129.1" r="2" fill="#888888"/>
<circle cx="256.0" cy="129.8" r="2" fill="#888888"/>
<polygon points="46.0,80.1 98.5,110.6 151.0,111.0 203.5,127.7 256.0,131.5 256.0,142.2 203.5,128.7 151.0,118.3 98.5,112.5 46.0,86.6" fill="#888888" opacity="0.11"/>
<polyline points="46.0,85.4 98.5,111.7 151.0,113.0 203.5,128.0 256.0,133.3" fill="none" stroke="#888888" stroke-width="1.6"/>
<circle cx="46.0" cy="85.4" r="2" fill="#888888"/>
<circle cx="98.5" cy="111.7" r="2" fill="#888888"/>
<circle cx="151.0" cy="113.0" r="2" fill="#888888"/>
<circle cx="203.5" cy="128.0" r="2" fill="#888888"/>
<circle cx="256.0" cy="133.3" r="2" fill="#888888"/>
<polygon points="46.0,84.2 98.5,124.2 151.0,129.5 203.5,122.0 256.0,131.9 256.0,134.8 203.5,128.3 151.0,131.2 98.5,125.3 46.0,88.4" fill="#888888" opacity="0.11"/>
<polyline points="46.0,87.3 98.5,124.6 151.0,130.6 203.5,125.1 256.0,132.4" fill="none" stroke="#888888" stroke-width="1.6"/>
<circle cx="46.0" cy="87.3" r="2" fill="#888888"/>
<circle cx="98.5" cy="124.6" r="2" fill="#888888"/>
<circle cx="151.0" cy="130.6" r="2" fill="#888888"/>
<circle cx="203.5" cy="125.1" r="2" fill="#888888"/>
<circle cx="256.0" cy="132.4" r="2" fill="#888888"/>
<text x="151.0" y="55" text-anchor="middle" font-size="12" font-weight="bold">gemvN</text>
<line x1="46.0" y1="60" x2="46.0" y2="198" stroke="#f4f4f4"/>
<text x="46.0" y="209" text-anchor="middle" font-size="8" fill="#999">64</text>
<line x1="98.5" y1="60" x2="98.5" y2="198" stroke="#f4f4f4"/>
<text x="98.5" y="209" text-anchor="middle" font-size="8" fill="#999">128</text>
<line x1="151.0" y1="60" x2="151.0" y2="198" stroke="#f4f4f4"/>
<text x="151.0" y="209" text-anchor="middle" font-size="8" fill="#999">256</text>
<line x1="203.5" y1="60" x2="203.5" y2="198" stroke="#f4f4f4"/>
<text x="203.5" y="209" text-anchor="middle" font-size="8" fill="#999">512</text>
<line x1="256.0" y1="60" x2="256.0" y2="198" stroke="#f4f4f4"/>
<text x="256.0" y="209" text-anchor="middle" font-size="8" fill="#999">1k</text>
<rect x="276" y="60" width="210" height="138" fill="none" stroke="#e2e2e2"/>
<line x1="276" y1="115.76276119065531" x2="486" y2="115.76276119065531" stroke="#d33" stroke-dasharray="4 3"/>
<text x="272" y="201.0" text-anchor="end" font-size="9" fill="#999">0.5×</text>
<text x="272" y="118.76276119065531" text-anchor="end" font-size="9" fill="#999">1.0×</text>
<text x="272" y="63.0" text-anchor="end" font-size="9" fill="#999">1.6×</text>
<polygon points="276.0,95.8 328.5,106.3 381.0,104.8 433.5,104.9 486.0,114.1 486.0,122.7 433.5,112.1 381.0,109.7 328.5,109.6 276.0,98.1" fill="#888888" opacity="0.11"/>
<polyline points="276.0,96.3 328.5,106.8 381.0,107.7 433.5,108.0 486.0,118.7" fill="none" stroke="#888888" stroke-width="1.6"/>
<circle cx="276.0" cy="96.3" r="2" fill="#888888"/>
<circle cx="328.5" cy="106.8" r="2" fill="#888888"/>
<circle cx="381.0" cy="107.7" r="2" fill="#888888"/>
<circle cx="433.5" cy="108.0" r="2" fill="#888888"/>
<circle cx="486.0" cy="118.7" r="2" fill="#888888"/>
<polygon points="276.0,108.3 328.5,133.1 381.0,139.4 433.5,114.6 486.0,95.2 486.0,113.5 433.5,118.1 381.0,151.7 328.5,134.6 276.0,117.9" fill="#888888" opacity="0.11"/>
<polyline points="276.0,111.0 328.5,134.2 381.0,148.6 433.5,116.1 486.0,111.8" fill="none" stroke="#888888" stroke-width="1.6"/>
<circle cx="276.0" cy="111.0" r="2" fill="#888888"/>
<circle cx="328.5" cy="134.2" r="2" fill="#888888"/>
<circle cx="381.0" cy="148.6" r="2" fill="#888888"/>
<circle cx="433.5" cy="116.1" r="2" fill="#888888"/>
<circle cx="486.0" cy="111.8" r="2" fill="#888888"/>
<polygon points="276.0,112.5 328.5,107.0 381.0,115.2 433.5,104.3 486.0,120.2 486.0,126.0 433.5,112.1 381.0,119.6 328.5,113.4 276.0,116.8" fill="#888888" opacity="0.11"/>
<polyline points="276.0,113.6 328.5,110.8 381.0,117.5 433.5,106.1 486.0,123.8" fill="none" stroke="#888888" stroke-width="1.6"/>
<circle cx="276.0" cy="113.6" r="2" fill="#888888"/>
<circle cx="328.5" cy="110.8" r="2" fill="#888888"/>
<circle cx="381.0" cy="117.5" r="2" fill="#888888"/>
<circle cx="433.5" cy="106.1" r="2" fill="#888888"/>
<circle cx="486.0" cy="123.8" r="2" fill="#888888"/>
<text x="381.0" y="55" text-anchor="middle" font-size="12" font-weight="bold">gemvT</text>
<line x1="276.0" y1="60" x2="276.0" y2="198" stroke="#f4f4f4"/>
<text x="276.0" y="209" text-anchor="middle" font-size="8" fill="#999">64</text>
<line x1="328.5" y1="60" x2="328.5" y2="198" stroke="#f4f4f4"/>
<text x="328.5" y="209" text-anchor="middle" font-size="8" fill="#999">128</text>
<line x1="381.0" y1="60" x2="381.0" y2="198" stroke="#f4f4f4"/>
<text x="381.0" y="209" text-anchor="middle" font-size="8" fill="#999">256</text>
<line x1="433.5" y1="60" x2="433.5" y2="198" stroke="#f4f4f4"/>
<text x="433.5" y="209" text-anchor="middle" font-size="8" fill="#999">512</text>
<line x1="486.0" y1="60" x2="486.0" y2="198" stroke="#f4f4f4"/>
<text x="486.0" y="209" text-anchor="middle" font-size="8" fill="#999">1k</text>
<rect x="506" y="60" width="210" height="138" fill="none" stroke="#e2e2e2"/>
<line x1="506" y1="131.1701349493047" x2="716" y2="131.1701349493047" stroke="#d33" stroke-dasharray="4 3"/>
<text x="502" y="201.0" text-anchor="end" font-size="9" fill="#999">0.5×</text>
<text x="502" y="134.1701349493047" text-anchor="end" font-size="9" fill="#999">1.0×</text>
<text x="502" y="63.09637683396676" text-anchor="end" font-size="9" fill="#999">2.09×</text>
<polygon points="506.0,67.4 558.5,87.7 611.0,92.9 663.5,95.8 716.0,96.3 716.0,97.9 663.5,96.0 611.0,95.8 558.5,88.3 506.0,69.4" fill="#888888" opacity="0.11"/>
<polyline points="506.0,68.4 558.5,87.9 611.0,93.8 663.5,95.9 716.0,97.1" fill="none" stroke="#888888" stroke-width="1.6"/>
<circle cx="506.0" cy="68.4" r="2" fill="#888888"/>
<circle cx="558.5" cy="87.9" r="2" fill="#888888"/>
<circle cx="611.0" cy="93.8" r="2" fill="#888888"/>
<circle cx="663.5" cy="95.9" r="2" fill="#888888"/>
<circle cx="716.0" cy="97.1" r="2" fill="#888888"/>
<polygon points="506.0,87.5 558.5,126.0 611.0,128.0 663.5,128.1 716.0,127.5 716.0,132.0 663.5,130.2 611.0,129.0 558.5,129.1 506.0,130.7" fill="#888888" opacity="0.11"/>
<polyline points="506.0,110.6 558.5,128.4 611.0,128.4 663.5,129.3 716.0,129.6" fill="none" stroke="#888888" stroke-width="1.6"/>
<circle cx="506.0" cy="110.6" r="2" fill="#888888"/>
<circle cx="558.5" cy="128.4" r="2" fill="#888888"/>
<circle cx="611.0" cy="128.4" r="2" fill="#888888"/>
<circle cx="663.5" cy="129.3" r="2" fill="#888888"/>
<circle cx="716.0" cy="129.6" r="2" fill="#888888"/>
<polygon points="506.0,102.7 558.5,119.9 611.0,127.3 663.5,122.8 716.0,122.3 716.0,146.9 663.5,128.2 611.0,132.0 558.5,126.9 506.0,110.4" fill="#888888" opacity="0.11"/>
<polyline points="506.0,105.7 558.5,121.8 611.0,128.6 663.5,124.5 716.0,133.2" fill="none" stroke="#888888" stroke-width="1.6"/>
<circle cx="506.0" cy="105.7" r="2" fill="#888888"/>
<circle cx="558.5" cy="121.8" r="2" fill="#888888"/>
<circle cx="611.0" cy="128.6" r="2" fill="#888888"/>
<circle cx="663.5" cy="124.5" r="2" fill="#888888"/>
<circle cx="716.0" cy="133.2" r="2" fill="#888888"/>
<text x="611.0" y="55" text-anchor="middle" font-size="12" font-weight="bold">ger</text>
<line x1="506.0" y1="60" x2="506.0" y2="198" stroke="#f4f4f4"/>
<text x="506.0" y="209" text-anchor="middle" font-size="8" fill="#999">64</text>
<line x1="558.5" y1="60" x2="558.5" y2="198" stroke="#f4f4f4"/>
<text x="558.5" y="209" text-anchor="middle" font-size="8" fill="#999">128</text>
<line x1="611.0" y1="60" x2="611.0" y2="198" stroke="#f4f4f4"/>
<text x="611.0" y="209" text-anchor="middle" font-size="8" fill="#999">256</text>
<line x1="663.5" y1="60" x2="663.5" y2="198" stroke="#f4f4f4"/>
<text x="663.5" y="209" text-anchor="middle" font-size="8" fill="#999">512</text>
<line x1="716.0" y1="60" x2="716.0" y2="198" stroke="#f4f4f4"/>
<text x="716.0" y="209" text-anchor="middle" font-size="8" fill="#999">1k</text>
<rect x="736" y="60" width="210" height="138" fill="none" stroke="#e2e2e2"/>
<line x1="736" y1="119.70661179127939" x2="946" y2="119.70661179127939" stroke="#d33" stroke-dasharray="4 3"/>
<text x="732" y="201.0" text-anchor="end" font-size="9" fill="#999">0.5×</text>
<text x="732" y="122.70661179127939" text-anchor="end" font-size="9" fill="#999">1.0×</text>
<polygon points="736.0,68.7 788.5,82.4 841.0,93.1 893.5,101.0 946.0,106.8 946.0,114.0 893.5,109.9 841.0,102.5 788.5,85.0 736.0,69.9" fill="#888888" opacity="0.11"/>
<polyline points="736.0,69.0 788.5,83.5 841.0,94.9 893.5,108.0 946.0,112.7" fill="none" stroke="#888888" stroke-width="1.6"/>
<circle cx="736.0" cy="69.0" r="2" fill="#888888"/>
<circle cx="788.5" cy="83.5" r="2" fill="#888888"/>
<circle cx="841.0" cy="94.9" r="2" fill="#888888"/>
<circle cx="893.5" cy="108.0" r="2" fill="#888888"/>
<circle cx="946.0" cy="112.7" r="2" fill="#888888"/>
<polygon points="736.0,83.6 788.5,89.7 841.0,92.2 893.5,94.3 946.0,105.5 946.0,115.6 893.5,100.5 841.0,93.2 788.5,91.5 736.0,86.7" fill="#888888" opacity="0.11"/>
<polyline points="736.0,85.6 788.5,91.0 841.0,92.9 893.5,97.5 946.0,109.2" fill="none" stroke="#888888" stroke-width="1.6"/>
<circle cx="736.0" cy="85.6" r="2" fill="#888888"/>
<circle cx="788.5" cy="91.0" r="2" fill="#888888"/>
<circle cx="841.0" cy="92.9" r="2" fill="#888888"/>
<circle cx="893.5" cy="97.5" r="2" fill="#888888"/>
<circle cx="946.0" cy="109.2" r="2" fill="#888888"/>
<polygon points="736.0,79.3 788.5,83.4 841.0,81.7 893.5,85.0 946.0,100.3 946.0,104.2 893.5,93.7 841.0,87.0 788.5,84.9 736.0,82.0" fill="#888888" opacity="0.11"/>
<polyline points="736.0,81.4 788.5,84.5 841.0,83.6 893.5,91.0 946.0,101.5" fill="none" stroke="#888888" stroke-width="1.6"/>
<circle cx="736.0" cy="81.4" r="2" fill="#888888"/>
<circle cx="788.5" cy="84.5" r="2" fill="#888888"/>
<circle cx="841.0" cy="83.6" r="2" fill="#888888"/>
<circle cx="893.5" cy="91.0" r="2" fill="#888888"/>
<circle cx="946.0" cy="101.5" r="2" fill="#888888"/>
<text x="841.0" y="55" text-anchor="middle" font-size="12" font-weight="bold">symv</text>
<line x1="736.0" y1="60" x2="736.0" y2="198" stroke="#f4f4f4"/>
<text x="736.0" y="209" text-anchor="middle" font-size="8" fill="#999">64</text>
<line x1="788.5" y1="60" x2="788.5" y2="198" stroke="#f4f4f4"/>
<text x="788.5" y="209" text-anchor="middle" font-size="8" fill="#999">128</text>
<line x1="841.0" y1="60" x2="841.0" y2="198" stroke="#f4f4f4"/>
<text x="841.0" y="209" text-anchor="middle" font-size="8" fill="#999">256</text>
<line x1="893.5" y1="60" x2="893.5" y2="198" stroke="#f4f4f4"/>
<text x="893.5" y="209" text-anchor="middle" font-size="8" fill="#999">512</text>
<line x1="946.0" y1="60" x2="946.0" y2="198" stroke="#f4f4f4"/>
<text x="946.0" y="209" text-anchor="middle" font-size="8" fill="#999">1k</text>
<rect x="46" y="232" width="210" height="138" fill="none" stroke="#e2e2e2"/>
<line x1="46" y1="287.7627611906553" x2="256" y2="287.7627611906553" stroke="#d33" stroke-dasharray="4 3"/>
<text x="42" y="373.0" text-anchor="end" font-size="9" fill="#999">0.5×</text>
<text x="42" y="290.7627611906553" text-anchor="end" font-size="9" fill="#999">1.0×</text>
<text x="42" y="235.0" text-anchor="end" font-size="9" fill="#999">1.6×</text>
<polygon points="46.0,241.7 98.5,276.4 151.0,275.3 203.5,292.8 256.0,290.7 256.0,296.6 203.5,297.4 151.0,286.8 98.5,278.3 46.0,243.4" fill="#888888" opacity="0.11"/>
<polyline points="46.0,242.9 98.5,277.8 151.0,280.1 203.5,293.5 256.0,293.0" fill="none" stroke="#888888" stroke-width="1.6"/>
<circle cx="46.0" cy="242.9" r="2" fill="#888888"/>
<circle cx="98.5" cy="277.8" r="2" fill="#888888"/>
<circle cx="151.0" cy="280.1" r="2" fill="#888888"/>
<circle cx="203.5" cy="293.5" r="2" fill="#888888"/>
<circle cx="256.0" cy="293.0" r="2" fill="#888888"/>
<polygon points="46.0,263.7 98.5,302.0 151.0,285.7 203.5,284.0 256.0,285.0 256.0,286.6 203.5,288.6 151.0,286.4 98.5,314.0 46.0,280.6" fill="#888888" opacity="0.11"/>
<polyline points="46.0,278.2 98.5,306.3 151.0,286.2 203.5,286.9 256.0,285.8" fill="none" stroke="#888888" stroke-width="1.6"/>
<circle cx="46.0" cy="278.2" r="2" fill="#888888"/>
<circle cx="98.5" cy="306.3" r="2" fill="#888888"/>
<circle cx="151.0" cy="286.2" r="2" fill="#888888"/>
<circle cx="203.5" cy="286.9" r="2" fill="#888888"/>
<circle cx="256.0" cy="285.8" r="2" fill="#888888"/>
<polygon points="46.0,252.0 98.5,283.7 151.0,283.0 203.5,290.4 256.0,288.6 256.0,289.8 203.5,296.1 151.0,296.0 98.5,286.6 46.0,254.3" fill="#888888" opacity="0.11"/>
<polyline points="46.0,252.6 98.5,285.5 151.0,294.0 203.5,292.3 256.0,289.3" fill="none" stroke="#888888" stroke-width="1.6"/>
<circle cx="46.0" cy="252.6" r="2" fill="#888888"/>
<circle cx="98.5" cy="285.5" r="2" fill="#888888"/>
<circle cx="151.0" cy="294.0" r="2" fill="#888888"/>
<circle cx="203.5" cy="292.3" r="2" fill="#888888"/>
<circle cx="256.0" cy="289.3" r="2" fill="#888888"/>
<text x="151.0" y="227" text-anchor="middle" font-size="12" font-weight="bold">trmv</text>
<line x1="46.0" y1="232" x2="46.0" y2="370" stroke="#f4f4f4"/>
<text x="46.0" y="381" text-anchor="middle" font-size="8" fill="#999">64</text>
<line x1="98.5" y1="232" x2="98.5" y2="370" stroke="#f4f4f4"/>
<text x="98.5" y="381" text-anchor="middle" font-size="8" fill="#999">128</text>
<line x1="151.0" y1="232" x2="151.0" y2="370" stroke="#f4f4f4"/>
<text x="151.0" y="381" text-anchor="middle" font-size="8" fill="#999">256</text>
<line x1="203.5" y1="232" x2="203.5" y2="370" stroke="#f4f4f4"/>
<text x="203.5" y="381" text-anchor="middle" font-size="8" fill="#999">512</text>
<line x1="256.0" y1="232" x2="256.0" y2="370" stroke="#f4f4f4"/>
<text x="256.0" y="381" text-anchor="middle" font-size="8" fill="#999">1k</text>
<rect x="276" y="232" width="210" height="138" fill="none" stroke="#e2e2e2"/>
<line x1="276" y1="287.7627611906553" x2="486" y2="287.7627611906553" stroke="#d33" stroke-dasharray="4 3"/>
<text x="272" y="373.0" text-anchor="end" font-size="9" fill="#999">0.5×</text>
<text x="272" y="290.7627611906553" text-anchor="end" font-size="9" fill="#999">1.0×</text>
<text x="272" y="235.0" text-anchor="end" font-size="9" fill="#999">1.6×</text>
<polygon points="276.0,249.2 328.5,269.2 381.0,278.7 433.5,295.7 486.0,292.7 486.0,295.7 433.5,297.9 381.0,287.0 328.5,270.7 276.0,249.8" fill="#888888" opacity="0.11"/>
<polyline points="276.0,249.3 328.5,270.2 381.0,285.3 433.5,297.2 486.0,295.0" fill="none" stroke="#888888" stroke-width="1.6"/>
<circle cx="276.0" cy="249.3" r="2" fill="#888888"/>
<circle cx="328.5" cy="270.2" r="2" fill="#888888"/>
<circle cx="381.0" cy="285.3" r="2" fill="#888888"/>
<circle cx="433.5" cy="297.2" r="2" fill="#888888"/>
<circle cx="486.0" cy="295.0" r="2" fill="#888888"/>
<polygon points="276.0,243.5 328.5,270.2 381.0,286.1 433.5,290.4 486.0,279.2 486.0,294.6 433.5,293.5 381.0,287.7 328.5,274.3 276.0,253.3" fill="#888888" opacity="0.11"/>
<polyline points="276.0,247.3 328.5,272.5 381.0,286.9 433.5,291.9 486.0,292.0" fill="none" stroke="#888888" stroke-width="1.6"/>
<circle cx="276.0" cy="247.3" r="2" fill="#888888"/>
<circle cx="328.5" cy="272.5" r="2" fill="#888888"/>
<circle cx="381.0" cy="286.9" r="2" fill="#888888"/>
<circle cx="433.5" cy="291.9" r="2" fill="#888888"/>
<circle cx="486.0" cy="292.0" r="2" fill="#888888"/>
<polygon points="276.0,265.3 328.5,282.3 381.0,299.4 433.5,291.7 486.0,291.1 486.0,295.2 433.5,299.6 381.0,302.3 328.5,283.9 276.0,266.4" fill="#888888" opacity="0.11"/>
<polyline points="276.0,265.9 328.5,283.3 381.0,301.2 433.5,295.5 486.0,293.6" fill="none" stroke="#888888" stroke-width="1.6"/>
<circle cx="276.0" cy="265.9" r="2" fill="#888888"/>
<circle cx="328.5" cy="283.3" r="2" fill="#888888"/>
<circle cx="381.0" cy="301.2" r="2" fill="#888888"/>
<circle cx="433.5" cy="295.5" r="2" fill="#888888"/>
<circle cx="486.0" cy="293.6" r="2" fill="#888888"/>
<text x="381.0" y="227" text-anchor="middle" font-size="12" font-weight="bold">trsv</text>
<line x1="276.0" y1="232" x2="276.0" y2="370" stroke="#f4f4f4"/>
<text x="276.0" y="381" text-anchor="middle" font-size="8" fill="#999">64</text>
<line x1="328.5" y1="232" x2="328.5" y2="370" stroke="#f4f4f4"/>
<text x="328.5" y="381" text-anchor="middle" font-size="8" fill="#999">128</text>
<line x1="381.0" y1="232" x2="381.0" y2="370" stroke="#f4f4f4"/>
<text x="381.0" y="381" text-anchor="middle" font-size="8" fill="#999">256</text>
<line x1="433.5" y1="232" x2="433.5" y2="370" stroke="#f4f4f4"/>
<text x="433.5" y="381" text-anchor="middle" font-size="8" fill="#999">512</text>
<line x1="486.0" y1="232" x2="486.0" y2="370" stroke="#f4f4f4"/>
<text x="486.0" y="381" text-anchor="middle" font-size="8" fill="#999">1k</text>
<rect x="506" y="232" width="210" height="138" fill="none" stroke="#e2e2e2"/>
<line x1="506" y1="335.7327854450507" x2="716" y2="335.7327854450507" stroke="#d33" stroke-dasharray="4 3"/>
<text x="502" y="373.0" text-anchor="end" font-size="9" fill="#999">0.5×</text>
<text x="502" y="338.7327854450507" text-anchor="end" font-size="9" fill="#999">1.0×</text>
<text x="502" y="235.01277839658638" text-anchor="end" font-size="9" fill="#999">8.15×</text>
<polygon points="506.0,292.2 558.5,256.3 611.0,242.2 663.5,245.7 716.0,242.7 716.0,244.0 663.5,247.1 611.0,244.5 558.5,257.2 506.0,294.1" fill="#888888" opacity="0.11"/>
<polyline points="506.0,292.6 558.5,256.6 611.0,243.0 663.5,246.0 716.0,243.0" fill="none" stroke="#888888" stroke-width="1.6"/>
<circle cx="506.0" cy="292.6" r="2" fill="#888888"/>
<circle cx="558.5" cy="256.6" r="2" fill="#888888"/>
<circle cx="611.0" cy="243.0" r="2" fill="#888888"/>
<circle cx="663.5" cy="246.0" r="2" fill="#888888"/>
<circle cx="716.0" cy="243.0" r="2" fill="#888888"/>
<polygon points="506.0,300.1 558.5,257.9 611.0,241.4 663.5,236.2 716.0,236.9 716.0,238.1 663.5,237.7 611.0,243.0 558.5,259.1 506.0,303.3" fill="#888888" opacity="0.11"/>
<polyline points="506.0,301.9 558.5,258.3 611.0,242.7 663.5,237.0 716.0,237.2" fill="none" stroke="#888888" stroke-width="1.6"/>
<circle cx="506.0" cy="301.9" r="2" fill="#888888"/>
<circle cx="558.5" cy="258.3" r="2" fill="#888888"/>
<circle cx="611.0" cy="242.7" r="2" fill="#888888"/>
<circle cx="663.5" cy="237.0" r="2" fill="#888888"/>
<circle cx="716.0" cy="237.2" r="2" fill="#888888"/>
<polygon points="506.0,294.6 558.5,252.8 611.0,239.2 663.5,235.8 716.0,238.1 716.0,239.1 663.5,237.5 611.0,240.2 558.5,254.3 506.0,298.6" fill="#888888" opacity="0.11"/>
<polyline points="506.0,295.2 558.5,253.4 611.0,239.5 663.5,236.7 716.0,238.6" fill="none" stroke="#888888" stroke-width="1.6"/>
<circle cx="506.0" cy="295.2" r="2" fill="#888888"/>
<circle cx="558.5" cy="253.4" r="2" fill="#888888"/>
<circle cx="611.0" cy="239.5" r="2" fill="#888888"/>
<circle cx="663.5" cy="236.7" r="2" fill="#888888"/>
<circle cx="716.0" cy="238.6" r="2" fill="#888888"/>
<text x="611.0" y="227" text-anchor="middle" font-size="12" font-weight="bold">spmv</text>
<line x1="506.0" y1="232" x2="506.0" y2="370" stroke="#f4f4f4"/>
<text x="506.0" y="381" text-anchor="middle" font-size="8" fill="#999">64</text>
<line x1="558.5" y1="232" x2="558.5" y2="370" stroke="#f4f4f4"/>
<text x="558.5" y="381" text-anchor="middle" font-size="8" fill="#999">128</text>
<line x1="611.0" y1="232" x2="611.0" y2="370" stroke="#f4f4f4"/>
<text x="611.0" y="381" text-anchor="middle" font-size="8" fill="#999">256</text>
<line x1="663.5" y1="232" x2="663.5" y2="370" stroke="#f4f4f4"/>
<text x="663.5" y="381" text-anchor="middle" font-size="8" fill="#999">512</text>
<line x1="716.0" y1="232" x2="716.0" y2="370" stroke="#f4f4f4"/>
<text x="716.0" y="381" text-anchor="middle" font-size="8" fill="#999">1k</text>
<rect x="736" y="232" width="210" height="138" fill="none" stroke="#e2e2e2"/>
<line x1="736" y1="291.1604194685322" x2="946" y2="291.1604194685322" stroke="#d33" stroke-dasharray="4 3"/>
<text x="732" y="373.0" text-anchor="end" font-size="9" fill="#999">0.5×</text>
<text x="732" y="294.1604194685322" text-anchor="end" font-size="9" fill="#999">1.0×</text>
<text x="732" y="235.15204981442884" text-anchor="end" font-size="9" fill="#999">1.68×</text>
<polygon points="736.0,269.0 788.5,271.1 841.0,271.7 893.5,273.2 946.0,273.8 946.0,276.1 893.5,274.4 841.0,278.4 788.5,283.0 736.0,271.1" fill="#888888" opacity="0.11"/>
<polyline points="736.0,269.3 788.5,271.8 841.0,274.2 893.5,273.6 946.0,274.1" fill="none" stroke="#888888" stroke-width="1.6"/>
<circle cx="736.0" cy="269.3" r="2" fill="#888888"/>
<circle cx="788.5" cy="271.8" r="2" fill="#888888"/>
<circle cx="841.0" cy="274.2" r="2" fill="#888888"/>
<circle cx="893.5" cy="273.6" r="2" fill="#888888"/>
<circle cx="946.0" cy="274.1" r="2" fill="#888888"/>
<polygon points="736.0,254.4 788.5,259.8 841.0,260.2 893.5,259.3 946.0,257.7 946.0,264.9 893.5,264.5 841.0,263.9 788.5,263.8 736.0,261.0" fill="#888888" opacity="0.11"/>
<polyline points="736.0,258.6 788.5,262.9 841.0,261.2 893.5,264.0 946.0,264.7" fill="none" stroke="#888888" stroke-width="1.6"/>
<circle cx="736.0" cy="258.6" r="2" fill="#888888"/>
<circle cx="788.5" cy="262.9" r="2" fill="#888888"/>
<circle cx="841.0" cy="261.2" r="2" fill="#888888"/>
<circle cx="893.5" cy="264.0" r="2" fill="#888888"/>
<circle cx="946.0" cy="264.7" r="2" fill="#888888"/>
<polygon points="736.0,243.7 788.5,240.8 841.0,248.1 893.5,248.9 946.0,248.5 946.0,250.0 893.5,250.4 841.0,250.7 788.5,250.1 736.0,245.1" fill="#888888" opacity="0.11"/>
<polyline points="736.0,244.6 788.5,248.9 841.0,250.2 893.5,249.8 946.0,249.8" fill="none" stroke="#888888" stroke-width="1.6"/>
<circle cx="736.0" cy="244.6" r="2" fill="#888888"/>
<circle cx="788.5" cy="248.9" r="2" fill="#888888"/>
<circle cx="841.0" cy="250.2" r="2" fill="#888888"/>
<circle cx="893.5" cy="249.8" r="2" fill="#888888"/>
<circle cx="946.0" cy="249.8" r="2" fill="#888888"/>
<text x="841.0" y="227" text-anchor="middle" font-size="12" font-weight="bold">gbmvN</text>
<line x1="736.0" y1="232" x2="736.0" y2="370" stroke="#f4f4f4"/>
<text x="736.0" y="381" text-anchor="middle" font-size="8" fill="#999">64</text>
<line x1="788.5" y1="232" x2="788.5" y2="370" stroke="#f4f4f4"/>
<text x="788.5" y="381" text-anchor="middle" font-size="8" fill="#999">128</text>
<line x1="841.0" y1="232" x2="841.0" y2="370" stroke="#f4f4f4"/>
<text x="841.0" y="381" text-anchor="middle" font-size="8" fill="#999">256</text>
<line x1="893.5" y1="232" x2="893.5" y2="370" stroke="#f4f4f4"/>
<text x="893.5" y="381" text-anchor="middle" font-size="8" fill="#999">512</text>
<line x1="946.0" y1="232" x2="946.0" y2="370" stroke="#f4f4f4"/>
<text x="946.0" y="381" text-anchor="middle" font-size="8" fill="#999">1k</text>
<rect x="46" y="404" width="210" height="138" fill="none" stroke="#e2e2e2"/>
<line x1="46" y1="459.7627611906553" x2="256" y2="459.7627611906553" stroke="#d33" stroke-dasharray="4 3"/>
<text x="42" y="545.0" text-anchor="end" font-size="9" fill="#999">0.5×</text>
<text x="42" y="462.7627611906553" text-anchor="end" font-size="9" fill="#999">1.0×</text>
<text x="42" y="407.0" text-anchor="end" font-size="9" fill="#999">1.6×</text>
<polygon points="46.0,422.2 98.5,423.7 151.0,422.6 203.5,425.1 256.0,425.1 256.0,426.1 203.5,426.6 151.0,429.5 98.5,428.4 46.0,423.2" fill="#888888" opacity="0.11"/>
<polyline points="46.0,422.5 98.5,424.0 151.0,423.5 203.5,425.3 256.0,425.3" fill="none" stroke="#888888" stroke-width="1.6"/>
<circle cx="46.0" cy="422.5" r="2" fill="#888888"/>
<circle cx="98.5" cy="424.0" r="2" fill="#888888"/>
<circle cx="151.0" cy="423.5" r="2" fill="#888888"/>
<circle cx="203.5" cy="425.3" r="2" fill="#888888"/>
<circle cx="256.0" cy="425.3" r="2" fill="#888888"/>
<polygon points="46.0,441.4 98.5,440.6 151.0,441.9 203.5,443.1 256.0,442.7 256.0,444.1 203.5,446.4 151.0,445.3 98.5,449.1 46.0,457.8" fill="#888888" opacity="0.11"/>
<polyline points="46.0,443.1 98.5,442.6 151.0,442.5 203.5,443.9 256.0,443.6" fill="none" stroke="#888888" stroke-width="1.6"/>
<circle cx="46.0" cy="443.1" r="2" fill="#888888"/>
<circle cx="98.5" cy="442.6" r="2" fill="#888888"/>
<circle cx="151.0" cy="442.5" r="2" fill="#888888"/>
<circle cx="203.5" cy="443.9" r="2" fill="#888888"/>
<circle cx="256.0" cy="443.6" r="2" fill="#888888"/>
<polygon points="46.0,444.8 98.5,446.1 151.0,446.8 203.5,450.4 256.0,442.1 256.0,452.7 203.5,452.0 151.0,455.9 98.5,458.2 46.0,447.9" fill="#888888" opacity="0.11"/>
<polyline points="46.0,446.0 98.5,447.7 151.0,450.9 203.5,451.1 256.0,451.7" fill="none" stroke="#888888" stroke-width="1.6"/>
<circle cx="46.0" cy="446.0" r="2" fill="#888888"/>
<circle cx="98.5" cy="447.7" r="2" fill="#888888"/>
<circle cx="151.0" cy="450.9" r="2" fill="#888888"/>
<circle cx="203.5" cy="451.1" r="2" fill="#888888"/>
<circle cx="256.0" cy="451.7" r="2" fill="#888888"/>
<text x="151.0" y="399" text-anchor="middle" font-size="12" font-weight="bold">sbmv</text>
<line x1="46.0" y1="404" x2="46.0" y2="542" stroke="#f4f4f4"/>
<text x="46.0" y="553" text-anchor="middle" font-size="8" fill="#999">64</text>
<line x1="98.5" y1="404" x2="98.5" y2="542" stroke="#f4f4f4"/>
<text x="98.5" y="553" text-anchor="middle" font-size="8" fill="#999">128</text>
<line x1="151.0" y1="404" x2="151.0" y2="542" stroke="#f4f4f4"/>
<text x="151.0" y="553" text-anchor="middle" font-size="8" fill="#999">256</text>
<line x1="203.5" y1="404" x2="203.5" y2="542" stroke="#f4f4f4"/>
<text x="203.5" y="553" text-anchor="middle" font-size="8" fill="#999">512</text>
<line x1="256.0" y1="404" x2="256.0" y2="542" stroke="#f4f4f4"/>
<text x="256.0" y="553" text-anchor="middle" font-size="8" fill="#999">1k</text>
</svg>
