<svg xmlns="http://www.w3.org/2000/svg" width="962" height="248" font-family="sans-serif">
<rect width="962" height="248" fill="white"/>
<text x="481.0" y="26" text-anchor="middle" font-size="17" font-weight="bold">LAPACK — PureBLAS / OpenBLAS (PB/OpenBLAS ratio)</text>
<line x1="46" y1="42" x2="68" y2="42" stroke="#d62728" stroke-width="3"/>
<text x="73" y="46" font-size="12">Zen3 · AVX2</text>
<line x1="176" y1="42" x2="198" y2="42" stroke="#2ca02c" stroke-width="3"/>
<text x="203" y="46" font-size="12">Zen5 · AVX-512</text>
<line x1="327" y1="42" x2="349" y2="42" stroke="#1f77b4" stroke-width="3"/>
<text x="354" y="46" font-size="12">Zen4 · AVX-512</text>
<rect x="46" y="60" width="210" height="138" fill="none" stroke="#e2e2e2"/>
<line x1="46" y1="119.06463503319603" x2="256" y2="119.06463503319603" stroke="#d33" stroke-dasharray="4 3"/>
<text x="42" y="201.0" text-anchor="end" font-size="9" fill="#999">0.5×</text>
<text x="42" y="122.06463503319603" text-anchor="end" font-size="9" fill="#999">1.0×</text>
<polygon points="46.0,79.3 92.7,68.8 139.3,103.9 162.7,113.3 186.0,110.8 209.3,113.1 232.7,112.9 256.0,116.2 256.0,116.6 232.7,113.7 209.3,114.4 186.0,111.7 162.7,114.2 139.3,107.1 92.7,70.0 46.0,80.5" fill="#d62728" opacity="0.11"/>
<polyline points="46.0,79.9 92.7,69.5 139.3,106.8 162.7,113.9 186.0,111.3 209.3,113.9 232.7,113.6 256.0,116.4" fill="none" stroke="#d62728" stroke-width="1.6"/>
<circle cx="46.0" cy="79.9" r="2" fill="#d62728"/>
<circle cx="92.7" cy="69.5" r="2" fill="#d62728"/>
<circle cx="139.3" cy="106.8" r="2" fill="#d62728"/>
<circle cx="162.7" cy="113.9" r="2" fill="#d62728"/>
<circle cx="186.0" cy="111.3" r="2" fill="#d62728"/>
<circle cx="209.3" cy="113.9" r="2" fill="#d62728"/>
<circle cx="232.7" cy="113.6" r="2" fill="#d62728"/>
<circle cx="256.0" cy="116.4" r="2" fill="#d62728"/>
<polygon points="46.0,75.9 92.7,81.1 139.3,80.8 162.7,73.4 186.0,72.0 209.3,83.8 232.7,99.5 256.0,105.7 256.0,106.9 232.7,102.4 209.3,85.6 186.0,72.7 162.7,74.7 139.3,82.9 92.7,88.4 46.0,110.0" fill="#2ca02c" opacity="0.11"/>
<polyline points="46.0,77.3 92.7,84.2 139.3,82.1 162.7,74.2 186.0,72.4 209.3,84.2 232.7,101.5 256.0,106.3" fill="none" stroke="#2ca02c" stroke-width="1.6"/>
<circle cx="46.0" cy="77.3" r="2" fill="#2ca02c"/>
<circle cx="92.7" cy="84.2" r="2" fill="#2ca02c"/>
<circle cx="139.3" cy="82.1" r="2" fill="#2ca02c"/>
<circle cx="162.7" cy="74.2" r="2" fill="#2ca02c"/>
<circle cx="186.0" cy="72.4" r="2" fill="#2ca02c"/>
<circle cx="209.3" cy="84.2" r="2" fill="#2ca02c"/>
<circle cx="232.7" cy="101.5" r="2" fill="#2ca02c"/>
<circle cx="256.0" cy="106.3" r="2" fill="#2ca02c"/>
<polygon points="46.0,70.7 92.7,68.8 139.3,81.4 162.7,74.7 186.0,73.0 209.3,89.8 232.7,104.1 256.0,109.4 256.0,111.5 232.7,105.1 209.3,93.3 186.0,74.0 162.7,76.9 139.3,83.0 92.7,70.2 46.0,71.5" fill="#1f77b4" opacity="0.11"/>
<polyline points="46.0,71.3 92.7,69.2 139.3,82.2 162.7,76.0 186.0,73.7 209.3,90.4 232.7,104.9 256.0,109.7" fill="none" stroke="#1f77b4" stroke-width="1.6"/>
<circle cx="46.0" cy="71.3" r="2" fill="#1f77b4"/>
<circle cx="92.7" cy="69.2" r="2" fill="#1f77b4"/>
<circle cx="139.3" cy="82.2" r="2" fill="#1f77b4"/>
<circle cx="162.7" cy="76.0" r="2" fill="#1f77b4"/>
<circle cx="186.0" cy="73.7" r="2" fill="#1f77b4"/>
<circle cx="209.3" cy="90.4" r="2" fill="#1f77b4"/>
<circle cx="232.7" cy="104.9" r="2" fill="#1f77b4"/>
<circle cx="256.0" cy="109.7" r="2" fill="#1f77b4"/>
<text x="151.0" y="55" text-anchor="middle" font-size="12" font-weight="bold">potrf</text>
<line x1="46.0" y1="60" x2="46.0" y2="198" stroke="#f4f4f4"/>
<text x="46.0" y="209" text-anchor="middle" font-size="8" fill="#999">8</text>
<line x1="92.7" y1="60" x2="92.7" y2="198" stroke="#f4f4f4"/>
<text x="92.7" y="209" text-anchor="middle" font-size="8" fill="#999">32</text>
<line x1="139.3" y1="60" x2="139.3" y2="198" stroke="#f4f4f4"/>
<text x="139.3" y="209" text-anchor="middle" font-size="8" fill="#999">128</text>
<line x1="162.7" y1="60" x2="162.7" y2="198" stroke="#f4f4f4"/>
<text x="162.7" y="209" text-anchor="middle" font-size="8" fill="#999">256</text>
<line x1="186.0" y1="60" x2="186.0" y2="198" stroke="#f4f4f4"/>
<text x="186.0" y="209" text-anchor="middle" font-size="8" fill="#999">512</text>
<line x1="209.3" y1="60" x2="209.3" y2="198" stroke="#f4f4f4"/>
<text x="209.3" y="209" text-anchor="middle" font-size="8" fill="#999">1k</text>
<line x1="232.7" y1="60" x2="232.7" y2="198" stroke="#f4f4f4"/>
<text x="232.7" y="209" text-anchor="middle" font-size="8" fill="#999">2k</text>
<line x1="256.0" y1="60" x2="256.0" y2="198" stroke="#f4f4f4"/>
<text x="256.0" y="209" text-anchor="middle" font-size="8" fill="#999">4k</text>
<rect x="276" y="60" width="210" height="138" fill="none" stroke="#e2e2e2"/>
<line x1="276" y1="145.08618366784137" x2="486" y2="145.08618366784137" stroke="#d33" stroke-dasharray="4 3"/>
<text x="272" y="201.0" text-anchor="end" font-size="9" fill="#999">0.5×</text>
<text x="272" y="148.08618366784137" text-anchor="end" font-size="9" fill="#999">1.0×</text>
<polygon points="276.0,65.9 322.7,106.8 369.3,124.3 392.7,136.8 416.0,126.9 439.3,129.4 462.7,128.3 486.0,128.3 486.0,128.8 462.7,129.1 439.3,130.6 416.0,128.9 392.7,138.8 369.3,125.2 322.7,108.1 276.0,68.2" fill="#d62728" opacity="0.11"/>
<polyline points="276.0,67.5 322.7,107.9 369.3,124.8 392.7,137.9 416.0,127.9 439.3,129.9 462.7,128.7 486.0,128.5" fill="none" stroke="#d62728" stroke-width="1.6"/>
<circle cx="276.0" cy="67.5" r="2" fill="#d62728"/>
<circle cx="322.7" cy="107.9" r="2" fill="#d62728"/>
<circle cx="369.3" cy="124.8" r="2" fill="#d62728"/>
<circle cx="392.7" cy="137.9" r="2" fill="#d62728"/>
<circle cx="416.0" cy="127.9" r="2" fill="#d62728"/>
<circle cx="439.3" cy="129.9" r="2" fill="#d62728"/>
<circle cx="462.7" cy="128.7" r="2" fill="#d62728"/>
<circle cx="486.0" cy="128.5" r="2" fill="#d62728"/>
<polygon points="276.0,77.5 322.7,112.8 369.3,120.7 392.7,124.0 416.0,120.8 439.3,131.9 462.7,143.9 486.0,145.9 486.0,146.8 462.7,145.6 439.3,133.2 416.0,121.4 392.7,124.7 369.3,121.7 322.7,115.7 276.0,83.4" fill="#2ca02c" opacity="0.11"/>
<polyline points="276.0,81.7 322.7,115.1 369.3,121.2 392.7,124.5 416.0,121.2 439.3,132.5 462.7,145.3 486.0,146.2" fill="none" stroke="#2ca02c" stroke-width="1.6"/>
<circle cx="276.0" cy="81.7" r="2" fill="#2ca02c"/>
<circle cx="322.7" cy="115.1" r="2" fill="#2ca02c"/>
<circle cx="369.3" cy="121.2" r="2" fill="#2ca02c"/>
<circle cx="392.7" cy="124.5" r="2" fill="#2ca02c"/>
<circle cx="416.0" cy="121.2" r="2" fill="#2ca02c"/>
<circle cx="439.3" cy="132.5" r="2" fill="#2ca02c"/>
<circle cx="462.7" cy="145.3" r="2" fill="#2ca02c"/>
<circle cx="486.0" cy="146.2" r="2" fill="#2ca02c"/>
<polygon points="276.0,68.0 322.7,117.2 369.3,116.7 392.7,120.7 416.0,106.0 439.3,121.9 462.7,126.1 486.0,127.2 486.0,128.1 462.7,130.9 439.3,122.6 416.0,108.4 392.7,124.2 369.3,117.2 322.7,118.4 276.0,76.8" fill="#1f77b4" opacity="0.11"/>
<polyline points="276.0,76.1 322.7,118.0 369.3,117.0 392.7,122.0 416.0,106.6 439.3,122.3 462.7,127.0 486.0,127.5" fill="none" stroke="#1f77b4" stroke-width="1.6"/>
<circle cx="276.0" cy="76.1" r="2" fill="#1f77b4"/>
<circle cx="322.7" cy="118.0" r="2" fill="#1f77b4"/>
<circle cx="369.3" cy="117.0" r="2" fill="#1f77b4"/>
<circle cx="392.7" cy="122.0" r="2" fill="#1f77b4"/>
<circle cx="416.0" cy="106.6" r="2" fill="#1f77b4"/>
<circle cx="439.3" cy="122.3" r="2" fill="#1f77b4"/>
<circle cx="462.7" cy="127.0" r="2" fill="#1f77b4"/>
<circle cx="486.0" cy="127.5" r="2" fill="#1f77b4"/>
<text x="381.0" y="55" text-anchor="middle" font-size="12" font-weight="bold">geqrf</text>
<line x1="276.0" y1="60" x2="276.0" y2="198" stroke="#f4f4f4"/>
<text x="276.0" y="209" text-anchor="middle" font-size="8" fill="#999">8</text>
<line x1="322.7" y1="60" x2="322.7" y2="198" stroke="#f4f4f4"/>
<text x="322.7" y="209" text-anchor="middle" font-size="8" fill="#999">32</text>
<line x1="369.3" y1="60" x2="369.3" y2="198" stroke="#f4f4f4"/>
<text x="369.3" y="209" text-anchor="middle" font-size="8" fill="#999">128</text>
<line x1="392.7" y1="60" x2="392.7" y2="198" stroke="#f4f4f4"/>
<text x="392.7" y="209" text-anchor="middle" font-size="8" fill="#999">256</text>
<line x1="416.0" y1="60" x2="416.0" y2="198" stroke="#f4f4f4"/>
<text x="416.0" y="209" text-anchor="middle" font-size="8" fill="#999">512</text>
<line x1="439.3" y1="60" x2="439.3" y2="198" stroke="#f4f4f4"/>
<text x="439.3" y="209" text-anchor="middle" font-size="8" fill="#999">1k</text>
<line x1="462.7" y1="60" x2="462.7" y2="198" stroke="#f4f4f4"/>
<text x="462.7" y="209" text-anchor="middle" font-size="8" fill="#999">2k</text>
<line x1="486.0" y1="60" x2="486.0" y2="198" stroke="#f4f4f4"/>
<text x="486.0" y="209" text-anchor="middle" font-size="8" fill="#999">4k</text>
<rect x="506" y="60" width="210" height="138" fill="none" stroke="#e2e2e2"/>
<line x1="506" y1="139.68167152901674" x2="716" y2="139.68167152901674" stroke="#d33" stroke-dasharray="4 3"/>
<text x="502" y="201.0" text-anchor="end" font-size="9" fill="#999">0.5×</text>
<text x="502" y="142.68167152901674" text-anchor="end" font-size="9" fill="#999">1.0×</text>
<polygon points="506.0,70.2 552.7,66.5 599.3,119.9 622.7,137.2 646.0,136.6 669.3,134.9 692.7,136.2 716.0,138.0 716.0,138.7 692.7,137.3 669.3,136.6 646.0,139.2 622.7,138.6 599.3,120.5 552.7,71.7 506.0,79.8" fill="#d62728" opacity="0.11"/>
<polyline points="506.0,72.9 552.7,69.9 599.3,120.2 622.7,138.0 646.0,138.5 669.3,135.6 692.7,136.7 716.0,138.4" fill="none" stroke="#d62728" stroke-width="1.6"/>
<circle cx="506.0" cy="72.9" r="2" fill="#d62728"/>
<circle cx="552.7" cy="69.9" r="2" fill="#d62728"/>
<circle cx="599.3" cy="120.2" r="2" fill="#d62728"/>
<circle cx="622.7" cy="138.0" r="2" fill="#d62728"/>
<circle cx="646.0" cy="138.5" r="2" fill="#d62728"/>
<circle cx="669.3" cy="135.6" r="2" fill="#d62728"/>
<circle cx="692.7" cy="136.7" r="2" fill="#d62728"/>
<circle cx="716.0" cy="138.4" r="2" fill="#d62728"/>
<polygon points="506.0,86.7 552.7,94.8 599.3,113.6 622.7,123.2 646.0,125.7 669.3,125.5 692.7,130.8 716.0,132.6 716.0,133.3 692.7,131.8 669.3,127.7 646.0,126.1 622.7,124.7 599.3,114.8 552.7,96.8 506.0,89.0" fill="#2ca02c" opacity="0.11"/>
<polyline points="506.0,88.0 552.7,95.8 599.3,114.1 622.7,123.8 646.0,125.9 669.3,127.0 692.7,131.4 716.0,132.7" fill="none" stroke="#2ca02c" stroke-width="1.6"/>
<circle cx="506.0" cy="88.0" r="2" fill="#2ca02c"/>
<circle cx="552.7" cy="95.8" r="2" fill="#2ca02c"/>
<circle cx="599.3" cy="114.1" r="2" fill="#2ca02c"/>
<circle cx="622.7" cy="123.8" r="2" fill="#2ca02c"/>
<circle cx="646.0" cy="125.9" r="2" fill="#2ca02c"/>
<circle cx="669.3" cy="127.0" r="2" fill="#2ca02c"/>
<circle cx="692.7" cy="131.4" r="2" fill="#2ca02c"/>
<circle cx="716.0" cy="132.7" r="2" fill="#2ca02c"/>
<polygon points="506.0,84.3 552.7,96.0 599.3,114.5 622.7,124.3 646.0,125.9 669.3,128.1 692.7,134.3 716.0,138.4 716.0,139.4 692.7,135.4 669.3,129.3 646.0,127.6 622.7,126.2 599.3,115.4 552.7,96.7 506.0,86.5" fill="#1f77b4" opacity="0.11"/>
<polyline points="506.0,85.0 552.7,96.2 599.3,114.9 622.7,125.2 646.0,127.5 669.3,128.4 692.7,134.9 716.0,139.1" fill="none" stroke="#1f77b4" stroke-width="1.6"/>
<circle cx="506.0" cy="85.0" r="2" fill="#1f77b4"/>
<circle cx="552.7" cy="96.2" r="2" fill="#1f77b4"/>
<circle cx="599.3" cy="114.9" r="2" fill="#1f77b4"/>
<circle cx="622.7" cy="125.2" r="2" fill="#1f77b4"/>
<circle cx="646.0" cy="127.5" r="2" fill="#1f77b4"/>
<circle cx="669.3" cy="128.4" r="2" fill="#1f77b4"/>
<circle cx="692.7" cy="134.9" r="2" fill="#1f77b4"/>
<circle cx="716.0" cy="139.1" r="2" fill="#1f77b4"/>
<text x="611.0" y="55" text-anchor="middle" font-size="12" font-weight="bold">getrf</text>
<line x1="506.0" y1="60" x2="506.0" y2="198" stroke="#f4f4f4"/>
<text x="506.0" y="209" text-anchor="middle" font-size="8" fill="#999">8</text>
<line x1="552.7" y1="60" x2="552.7" y2="198" stroke="#f4f4f4"/>
<text x="552.7" y="209" text-anchor="middle" font-size="8" fill="#999">32</text>
<line x1="599.3" y1="60" x2="599.3" y2="198" stroke="#f4f4f4"/>
<text x="599.3" y="209" text-anchor="middle" font-size="8" fill="#999">128</text>
<line x1="622.7" y1="60" x2="622.7" y2="198" stroke="#f4f4f4"/>
<text x="622.7" y="209" text-anchor="middle" font-size="8" fill="#999">256</text>
<line x1="646.0" y1="60" x2="646.0" y2="198" stroke="#f4f4f4"/>
<text x="646.0" y="209" text-anchor="middle" font-size="8" fill="#999">512</text>
<line x1="669.3" y1="60" x2="669.3" y2="198" stroke="#f4f4f4"/>
<text x="669.3" y="209" text-anchor="middle" font-size="8" fill="#999">1k</text>
<line x1="692.7" y1="60" x2="692.7" y2="198" stroke="#f4f4f4"/>
<text x="692.7" y="209" text-anchor="middle" font-size="8" fill="#999">2k</text>
<line x1="716.0" y1="60" x2="716.0" y2="198" stroke="#f4f4f4"/>
<text x="716.0" y="209" text-anchor="middle" font-size="8" fill="#999">4k</text>
<rect x="736" y="60" width="210" height="138" fill="none" stroke="#e2e2e2"/>
<line x1="736" y1="123.40192318974027" x2="946" y2="123.40192318974027" stroke="#d33" stroke-dasharray="4 3"/>
<text x="732" y="201.0" text-anchor="end" font-size="9" fill="#999">0.5×</text>
<text x="732" y="126.40192318974027" text-anchor="end" font-size="9" fill="#999">1.0×</text>
<text x="732" y="63.142984819691435" text-anchor="end" font-size="9" fill="#999">1.8×</text>
<polygon points="736.0,68.3 788.5,93.2 841.0,108.7 867.2,96.8 893.5,90.0 919.8,87.8 946.0,104.2 946.0,108.8 919.8,99.5 893.5,91.2 867.2,98.1 841.0,112.1 788.5,94.7 736.0,69.4" fill="#d62728" opacity="0.11"/>
<polyline points="736.0,69.0 788.5,94.2 841.0,111.8 867.2,97.3 893.5,90.9 919.8,97.2 946.0,107.0" fill="none" stroke="#d62728" stroke-width="1.6"/>
<circle cx="736.0" cy="69.0" r="2" fill="#d62728"/>
<circle cx="788.5" cy="94.2" r="2" fill="#d62728"/>
<circle cx="841.0" cy="111.8" r="2" fill="#d62728"/>
<circle cx="867.2" cy="97.3" r="2" fill="#d62728"/>
<circle cx="893.5" cy="90.9" r="2" fill="#d62728"/>
<circle cx="919.8" cy="97.2" r="2" fill="#d62728"/>
<circle cx="946.0" cy="107.0" r="2" fill="#d62728"/>
<polygon points="736.0,74.4 788.5,93.8 841.0,122.9 867.2,96.8 893.5,98.5 919.8,106.4 946.0,116.5 946.0,122.5 919.8,109.7 893.5,101.4 867.2,98.1 841.0,123.5 788.5,99.1 736.0,76.1" fill="#2ca02c" opacity="0.11"/>
<polyline points="736.0,75.3 788.5,98.5 841.0,123.3 867.2,97.6 893.5,100.7 919.8,108.7 946.0,120.1" fill="none" stroke="#2ca02c" stroke-width="1.6"/>
<circle cx="736.0" cy="75.3" r="2" fill="#2ca02c"/>
<circle cx="788.5" cy="98.5" r="2" fill="#2ca02c"/>
<circle cx="841.0" cy="123.3" r="2" fill="#2ca02c"/>
<circle cx="867.2" cy="97.6" r="2" fill="#2ca02c"/>
<circle cx="893.5" cy="100.7" r="2" fill="#2ca02c"/>
<circle cx="919.8" cy="108.7" r="2" fill="#2ca02c"/>
<circle cx="946.0" cy="120.1" r="2" fill="#2ca02c"/>
<polygon points="736.0,69.4 788.5,82.8 841.0,118.9 867.2,93.3 893.5,88.5 919.8,91.1 946.0,97.1 946.0,107.3 919.8,96.0 893.5,91.7 867.2,94.2 841.0,124.9 788.5,95.1 736.0,70.9" fill="#1f77b4" opacity="0.11"/>
<polyline points="736.0,70.1 788.5,94.6 841.0,119.3 867.2,93.9 893.5,91.2 919.8,94.1 946.0,106.2" fill="none" stroke="#1f77b4" stroke-width="1.6"/>
<circle cx="736.0" cy="70.1" r="2" fill="#1f77b4"/>
<circle cx="788.5" cy="94.6" r="2" fill="#1f77b4"/>
<circle cx="841.0" cy="119.3" r="2" fill="#1f77b4"/>
<circle cx="867.2" cy="93.9" r="2" fill="#1f77b4"/>
<circle cx="893.5" cy="91.2" r="2" fill="#1f77b4"/>
<circle cx="919.8" cy="94.1" r="2" fill="#1f77b4"/>
<circle cx="946.0" cy="106.2" r="2" fill="#1f77b4"/>
<text x="841.0" y="55" text-anchor="middle" font-size="12" font-weight="bold">gesvd</text>
<line x1="736.0" y1="60" x2="736.0" y2="198" stroke="#f4f4f4"/>
<text x="736.0" y="209" text-anchor="middle" font-size="8" fill="#999">8</text>
<line x1="788.5" y1="60" x2="788.5" y2="198" stroke="#f4f4f4"/>
<text x="788.5" y="209" text-anchor="middle" font-size="8" fill="#999">32</text>
<line x1="841.0" y1="60" x2="841.0" y2="198" stroke="#f4f4f4"/>
<text x="841.0" y="209" text-anchor="middle" font-size="8" fill="#999">128</text>
<line x1="867.2" y1="60" x2="867.2" y2="198" stroke="#f4f4f4"/>
<text x="867.2" y="209" text-anchor="middle" font-size="8" fill="#999">256</text>
<line x1="893.5" y1="60" x2="893.5" y2="198" stroke="#f4f4f4"/>
<text x="893.5" y="209" text-anchor="middle" font-size="8" fill="#999">512</text>
<line x1="919.8" y1="60" x2="919.8" y2="198" stroke="#f4f4f4"/>
<text x="919.8" y="209" text-anchor="middle" font-size="8" fill="#999">1k</text>
<line x1="946.0" y1="60" x2="946.0" y2="198" stroke="#f4f4f4"/>
<text x="946.0" y="209" text-anchor="middle" font-size="8" fill="#999">2k</text>
</svg>
