<svg xmlns="http://www.w3.org/2000/svg" width="900" height="440" font-family="sans-serif">
<rect width="900" height="440" fill="white"/>
<text x="450.0" y="28" text-anchor="middle" font-size="18" font-weight="bold">BLAS-1: PureBLAS / OpenBLAS (AVX-512, 1 thread, Float64)</text>
<line x1="60" y1="358.0" x2="880" y2="358.0" stroke="#eee"/>
<text x="52" y="362.0" text-anchor="end" font-size="11" fill="#666">0×</text>
<line x1="60" y1="347.01400952126346" x2="880" y2="347.01400952126346" stroke="#eee"/>
<text x="52" y="351.01400952126346" text-anchor="end" font-size="11" fill="#666">0.5×</text>
<line x1="60" y1="336.0280190425269" x2="880" y2="336.0280190425269" stroke="#eee"/>
<text x="52" y="340.0280190425269" text-anchor="end" font-size="11" fill="#666">1×</text>
<line x1="60" y1="325.0420285637904" x2="880" y2="325.0420285637904" stroke="#eee"/>
<text x="52" y="329.0420285637904" text-anchor="end" font-size="11" fill="#666">1.5×</text>
<line x1="60" y1="336.0280190425269" x2="880" y2="336.0280190425269" stroke="#888" stroke-width="1"/>
<line x1="60" y1="336.9068982808258" x2="880" y2="336.9068982808258" stroke="#d33" stroke-width="1.5" stroke-dasharray="6 4"/>
<text x="880" y="331.9068982808258" text-anchor="end" font-size="11" fill="#d33">0.96× gate</text>
<polygon points="128.3,343.5 128.3,343.3 128.4,343.2 128.4,343.0 128.5,342.8 128.5,342.7 128.6,342.5 128.7,342.3 128.7,342.2 128.7,342.0 128.7,341.9 128.7,341.7 128.7,341.5 128.6,341.4 128.6,341.2 128.5,341.0 128.6,340.9 128.6,340.7 128.6,340.5 128.6,340.4 128.6,340.2 128.5,340.0 128.4,339.9 128.4,339.7 128.4,339.6 128.4,339.4 128.4,339.2 128.6,339.1 128.8,338.9 129.2,338.7 129.7,338.6 130.2,338.4 130.4,338.2 130.3,338.1 130.0,337.9 129.6,337.7 129.3,337.6 129.4,337.4 130.1,337.3 132.2,337.1 136.4,336.9 143.6,336.8 153.8,336.6 165.8,336.4 176.9,336.3 184.1,336.1 185.7,335.9 182.0,335.8 174.5,335.6 165.3,335.4 156.2,335.3 148.6,335.1 142.8,335.0 138.7,334.8 136.1,334.6 134.4,334.5 133.6,334.3 133.8,334.1 134.9,334.0 136.5,333.8 137.9,333.6 138.5,333.5 138.0,333.3 136.5,333.2 134.5,333.0 132.5,332.8 130.8,332.7 129.6,332.5 128.9,332.3 128.5,332.2 128.4,332.0 128.3,331.8 128.3,331.8 128.3,332.0 128.1,332.2 127.8,332.3 127.1,332.5 125.9,332.7 124.2,332.8 122.1,333.0 120.1,333.2 118.7,333.3 118.2,333.5 118.8,333.6 120.2,333.8 121.8,334.0 122.8,334.1 123.0,334.3 122.3,334.5 120.6,334.6 117.9,334.8 113.9,335.0 108.1,335.1 100.4,335.3 91.4,335.4 82.2,335.6 74.7,335.8 70.9,335.9 72.6,336.1 79.8,336.3 90.8,336.4 102.8,336.6 113.1,336.8 120.3,336.9 124.5,337.1 126.5,337.3 127.3,337.4 127.4,337.6 127.1,337.7 126.7,337.9 126.4,338.1 126.3,338.2 126.5,338.4 126.9,338.6 127.4,338.7 127.9,338.9 128.1,339.1 128.2,339.2 128.3,339.4 128.3,339.6 128.3,339.7 128.3,339.9 128.2,340.0 128.1,340.2 128.0,340.4 128.0,340.5 128.1,340.7 128.1,340.9 128.1,341.0 128.1,341.2 128.0,341.4 128.0,341.5 128.0,341.7 128.0,341.9 128.0,342.0 128.0,342.2 128.0,342.3 128.1,342.5 128.1,342.7 128.2,342.8 128.3,343.0 128.3,343.2 128.3,343.3 128.3,343.5" fill="#2a8" opacity="0.5" stroke="#2a8" stroke-width="1"/>
<line x1="71.4" y1="335.9044292645544" x2="185.3" y2="335.9044292645544" stroke="#114" stroke-width="2"/>
<circle cx="128.33333333333331" cy="336.28610429299914" r="2.4" fill="#114"/>
<text x="128.33333333333331" y="327.0002008040583" text-anchor="middle" font-size="11">1.01</text>
<text x="128.33333333333331" y="376" text-anchor="middle" font-size="12">axpy</text>
<polygon points="265.0,337.6 265.0,337.5 265.0,337.4 265.0,337.3 265.0,337.2 265.2,337.0 265.6,336.9 266.3,336.8 268.1,336.7 272.2,336.6 279.9,336.5 291.7,336.3 306.5,336.2 319.0,336.1 322.4,336.0 316.9,335.9 308.1,335.7 299.1,335.6 290.0,335.5 281.6,335.4 275.0,335.3 270.6,335.2 268.1,335.0 266.7,334.9 265.8,334.8 265.4,334.7 265.4,334.6 265.3,334.4 265.2,334.3 265.1,334.2 265.1,334.1 265.1,334.0 265.3,333.9 265.3,333.7 265.2,333.6 265.1,333.5 265.0,333.4 265.0,333.3 265.0,333.2 265.0,333.0 265.0,332.9 265.1,332.8 265.2,332.7 265.3,332.6 265.3,332.4 265.2,332.3 265.1,332.2 265.0,332.1 265.0,332.0 265.0,331.9 265.0,331.7 265.0,331.6 265.0,331.5 265.0,331.4 265.0,331.3 265.0,331.2 265.0,331.0 265.0,330.9 265.0,330.8 265.0,330.7 265.0,330.6 265.0,330.4 265.1,330.3 265.3,330.2 265.3,330.1 265.2,330.0 265.1,329.9 265.0,329.7 265.0,329.6 265.0,329.5 265.0,329.4 265.0,329.3 265.0,329.3 265.0,329.4 265.0,329.5 265.0,329.6 265.0,329.7 264.9,329.9 264.8,330.0 264.7,330.1 264.7,330.2 264.9,330.3 265.0,330.4 265.0,330.6 265.0,330.7 265.0,330.8 265.0,330.9 265.0,331.0 265.0,331.2 265.0,331.3 265.0,331.4 265.0,331.5 265.0,331.6 265.0,331.7 265.0,331.9 265.0,332.0 265.0,332.1 264.9,332.2 264.8,332.3 264.7,332.4 264.7,332.6 264.8,332.7 264.9,332.8 265.0,332.9 265.0,333.0 265.0,333.2 265.0,333.3 265.0,333.4 264.9,333.5 264.8,333.6 264.7,333.7 264.7,333.9 264.9,334.0 264.9,334.1 264.9,334.2 264.8,334.3 264.7,334.4 264.6,334.6 264.6,334.7 264.2,334.8 263.3,334.9 261.9,335.0 259.4,335.2 255.0,335.3 248.4,335.4 240.0,335.5 230.9,335.6 221.9,335.7 213.1,335.9 207.6,336.0 211.0,336.1 223.5,336.2 238.3,336.3 250.1,336.5 257.8,336.6 261.9,336.7 263.7,336.8 264.4,336.9 264.8,337.0 265.0,337.2 265.0,337.3 265.0,337.4 265.0,337.5 265.0,337.6" fill="#2a8" opacity="0.5" stroke="#2a8" stroke-width="1"/>
<line x1="208.4" y1="335.94900314723265" x2="321.6" y2="335.94900314723265" stroke="#114" stroke-width="2"/>
<circle cx="265.0" cy="336.1090856141772" r="2.4" fill="#114"/>
<text x="265.0" y="324.11158636011" text-anchor="middle" font-size="11">1.00</text>
<text x="265.0" y="376" text-anchor="middle" font-size="12">dot</text>
<polygon points="405.2,302.4 406.5,298.8 408.2,295.3 410.3,291.7 412.9,288.2 415.8,284.6 419.1,281.1 422.8,277.5 426.7,273.9 430.7,270.4 434.6,266.8 438.4,263.3 441.8,259.7 444.8,256.2 447.2,252.6 449.1,249.1 450.4,245.5 451.3,241.9 451.9,238.4 452.3,234.8 452.6,231.3 453.0,227.7 453.6,224.2 454.4,220.6 455.4,217.1 456.5,213.5 457.6,210.0 458.5,206.4 459.1,202.8 459.1,199.3 458.3,195.7 456.8,192.2 454.4,188.6 451.1,185.1 447.2,181.5 442.7,178.0 437.8,174.4 432.9,170.9 428.1,167.3 423.6,163.7 419.7,160.2 416.4,156.6 413.8,153.1 412.0,149.5 410.8,146.0 410.4,142.4 410.7,138.9 411.5,135.3 412.8,131.8 414.5,128.2 416.6,124.6 418.9,121.1 421.4,117.5 424.0,114.0 426.6,110.4 429.1,106.9 431.4,103.3 433.3,99.8 434.9,96.2 436.0,92.7 436.5,89.1 436.3,85.5 435.6,82.0 434.2,78.4 432.3,74.9 429.9,71.3 427.1,67.8 424.2,64.2 421.1,60.7 418.1,57.1 415.3,53.6 412.7,50.0 390.7,50.0 388.0,53.6 385.2,57.1 382.2,60.7 379.1,64.2 376.2,67.8 373.4,71.3 371.1,74.9 369.1,78.4 367.8,82.0 367.0,85.5 366.9,89.1 367.4,92.7 368.4,96.2 370.0,99.8 372.0,103.3 374.2,106.9 376.7,110.4 379.3,114.0 381.9,117.5 384.4,121.1 386.8,124.6 388.8,128.2 390.6,131.8 391.9,135.3 392.7,138.9 392.9,142.4 392.5,146.0 391.4,149.5 389.5,153.1 386.9,156.6 383.6,160.2 379.7,163.7 375.2,167.3 370.4,170.9 365.5,174.4 360.7,178.0 356.2,181.5 352.2,185.1 349.0,188.6 346.6,192.2 345.0,195.7 344.3,199.3 344.3,202.8 344.8,206.4 345.7,210.0 346.8,213.5 348.0,217.1 349.0,220.6 349.8,224.2 350.3,227.7 350.8,231.3 351.1,234.8 351.4,238.4 352.0,241.9 352.9,245.5 354.2,249.1 356.1,252.6 358.5,256.2 361.5,259.7 364.9,263.3 368.7,266.8 372.7,270.4 376.7,273.9 380.5,277.5 384.2,281.1 387.5,284.6 390.5,288.2 393.0,291.7 395.1,295.3 396.8,298.8 398.1,302.4" fill="#2a8" opacity="0.5" stroke="#2a8" stroke-width="1"/>
<line x1="347.3" y1="190.91630855191937" x2="456.0" y2="190.91630855191937" stroke="#114" stroke-width="2"/>
<circle cx="401.66666666666663" cy="255.5264660857904" r="2.4" fill="#114"/>
<text x="401.66666666666663" y="61.433962264150935" text-anchor="middle" font-size="11">7.60</text>
<text x="401.66666666666663" y="376" text-anchor="middle" font-size="12">nrm2</text>
<polygon points="545.4,338.2 548.1,338.0 551.5,337.9 555.6,337.7 560.3,337.5 565.5,337.3 571.1,337.1 576.8,337.0 582.3,336.8 587.2,336.6 591.2,336.4 594.1,336.3 595.6,336.1 595.7,335.9 594.4,335.7 591.9,335.5 588.3,335.4 584.1,335.2 579.4,335.0 574.7,334.8 570.1,334.6 565.9,334.5 562.3,334.3 559.2,334.1 556.7,333.9 554.7,333.7 553.1,333.6 551.9,333.4 551.0,333.2 550.2,333.0 549.5,332.8 548.9,332.7 548.3,332.5 547.7,332.3 547.1,332.1 546.5,331.9 545.9,331.8 545.3,331.6 544.7,331.4 544.2,331.2 543.6,331.0 543.1,330.9 542.6,330.7 542.0,330.5 541.6,330.3 541.1,330.1 540.8,330.0 540.6,329.8 540.5,329.6 540.5,329.4 540.8,329.3 541.2,329.1 541.9,328.9 542.7,328.7 543.7,328.5 544.9,328.4 546.1,328.2 547.3,328.0 548.5,327.8 549.4,327.6 550.2,327.5 550.6,327.3 550.7,327.1 550.4,326.9 549.8,326.7 548.9,326.6 547.8,326.4 546.6,326.2 545.3,326.0 544.0,325.8 542.9,325.7 541.9,325.5 534.8,325.5 533.8,325.7 532.6,325.8 531.4,326.0 530.1,326.2 528.9,326.4 527.8,326.6 526.9,326.7 526.3,326.9 526.0,327.1 526.1,327.3 526.5,327.5 527.2,327.6 528.2,327.8 529.3,328.0 530.6,328.2 531.8,328.4 532.9,328.5 534.0,328.7 534.8,328.9 535.4,329.1 535.9,329.3 536.1,329.4 536.2,329.6 536.1,329.8 535.9,330.0 535.5,330.1 535.1,330.3 534.6,330.5 534.1,330.7 533.6,330.9 533.0,331.0 532.5,331.2 531.9,331.4 531.4,331.6 530.8,331.8 530.2,331.9 529.6,332.1 529.0,332.3 528.4,332.5 527.8,332.7 527.2,332.8 526.5,333.0 525.7,333.2 524.7,333.4 523.5,333.6 522.0,333.7 520.0,333.9 517.5,334.1 514.4,334.3 510.7,334.5 506.5,334.6 502.0,334.8 497.2,335.0 492.6,335.2 488.3,335.4 484.8,335.5 482.2,335.7 480.9,335.9 481.0,336.1 482.6,336.3 485.4,336.4 489.5,336.6 494.4,336.8 499.8,337.0 505.5,337.1 511.1,337.3 516.4,337.5 521.1,337.7 525.2,337.9 528.6,338.0 531.3,338.2" fill="#2a8" opacity="0.5" stroke="#2a8" stroke-width="1"/>
<line x1="480.9" y1="335.91951205478244" x2="595.8" y2="335.91951205478244" stroke="#114" stroke-width="2"/>
<circle cx="538.3333333333333" cy="336.15083768917106" r="2.4" fill="#114"/>
<text x="538.3333333333333" y="320.74974827160366" text-anchor="middle" font-size="11">1.00</text>
<text x="538.3333333333333" y="376" text-anchor="middle" font-size="12">asum</text>
<polygon points="675.1,338.6 675.1,338.5 675.3,338.4 675.5,338.3 675.8,338.2 676.3,338.1 676.9,338.0 677.8,337.8 678.8,337.7 679.9,337.6 681.2,337.5 682.3,337.4 683.2,337.3 683.6,337.2 683.7,337.1 683.6,337.0 683.4,336.8 683.6,336.7 684.5,336.6 686.1,336.5 688.5,336.4 691.8,336.3 695.9,336.2 700.8,336.1 706.5,335.9 712.9,335.8 719.4,335.7 725.4,335.6 730.0,335.5 732.4,335.4 732.3,335.3 730.1,335.2 726.3,335.1 721.9,334.9 717.4,334.8 713.0,334.7 708.6,334.6 704.1,334.5 699.6,334.4 695.1,334.3 691.1,334.2 687.9,334.0 685.7,333.9 684.7,333.8 684.7,333.7 685.5,333.6 686.7,333.5 688.0,333.4 689.0,333.3 689.2,333.2 688.6,333.0 687.1,332.9 685.0,332.8 682.8,332.7 680.7,332.6 679.0,332.5 677.8,332.4 677.0,332.3 676.5,332.1 676.3,332.0 676.1,331.9 676.1,331.8 676.0,331.7 675.9,331.6 675.8,331.5 675.7,331.4 675.5,331.3 675.4,331.1 675.2,331.0 675.1,330.9 675.1,330.8 675.0,330.7 675.0,330.7 674.9,330.8 674.9,330.9 674.8,331.0 674.6,331.1 674.5,331.3 674.3,331.4 674.2,331.5 674.1,331.6 674.0,331.7 673.9,331.8 673.9,331.9 673.7,332.0 673.5,332.1 673.0,332.3 672.2,332.4 671.0,332.5 669.3,332.6 667.2,332.7 665.0,332.8 662.9,332.9 661.4,333.0 660.8,333.2 661.0,333.3 662.0,333.4 663.3,333.5 664.5,333.6 665.3,333.7 665.3,333.8 664.3,333.9 662.1,334.0 658.9,334.2 654.9,334.3 650.4,334.4 645.9,334.5 641.4,334.6 637.0,334.7 632.6,334.8 628.1,334.9 623.7,335.1 619.9,335.2 617.7,335.3 617.6,335.4 620.0,335.5 624.6,335.6 630.6,335.7 637.1,335.8 643.5,335.9 649.2,336.1 654.1,336.2 658.2,336.3 661.5,336.4 663.9,336.5 665.5,336.6 666.4,336.7 666.6,336.8 666.4,337.0 666.3,337.1 666.4,337.2 666.8,337.3 667.7,337.4 668.8,337.5 670.1,337.6 671.2,337.7 672.2,337.8 673.1,338.0 673.7,338.1 674.2,338.2 674.5,338.3 674.7,338.4 674.9,338.5 674.9,338.6" fill="#2a8" opacity="0.5" stroke="#2a8" stroke-width="1"/>
<line x1="617.4" y1="335.3227394975036" x2="732.6" y2="335.3227394975036" stroke="#114" stroke-width="2"/>
<circle cx="675.0" cy="335.87292455729096" r="2.4" fill="#114"/>
<text x="675.0" y="325.4968317683144" text-anchor="middle" font-size="11">1.03</text>
<text x="675.0" y="376" text-anchor="middle" font-size="12">scal</text>
<polygon points="812.3,343.6 812.6,343.2 813.2,342.8 813.9,342.5 814.8,342.1 815.9,341.7 817.3,341.4 819.0,341.0 820.9,340.6 822.9,340.2 825.1,339.9 827.4,339.5 829.8,339.1 832.1,338.7 834.5,338.4 836.8,338.0 839.1,337.6 841.3,337.3 843.5,336.9 845.6,336.5 847.6,336.1 849.4,335.8 851.0,335.4 852.4,335.0 853.3,334.6 854.0,334.3 854.2,333.9 854.2,333.5 854.0,333.2 853.7,332.8 853.6,332.4 853.7,332.0 854.0,331.7 854.7,331.3 855.6,330.9 856.8,330.5 858.0,330.2 859.2,329.8 860.3,329.4 861.3,329.1 862.3,328.7 863.3,328.3 864.3,327.9 865.5,327.6 866.6,327.2 867.7,326.8 868.6,326.4 869.1,326.1 868.9,325.7 868.1,325.3 866.4,325.0 863.9,324.6 860.8,324.2 857.1,323.8 853.1,323.5 849.0,323.1 844.8,322.7 840.7,322.3 836.7,322.0 833.0,321.6 829.6,321.2 826.4,320.9 823.6,320.5 821.2,320.1 819.0,319.7 817.3,319.4 815.8,319.0 814.6,318.6 813.7,318.3 813.1,317.9 812.6,317.5 812.3,317.1 811.1,317.1 810.7,317.5 810.3,317.9 809.6,318.3 808.7,318.6 807.5,319.0 806.1,319.4 804.3,319.7 802.2,320.1 799.7,320.5 796.9,320.9 793.8,321.2 790.3,321.6 786.6,322.0 782.7,322.3 778.6,322.7 774.4,323.1 770.2,323.5 766.2,323.8 762.6,324.2 759.4,324.6 757.0,325.0 755.3,325.3 754.4,325.7 754.3,326.1 754.7,326.4 755.6,326.8 756.7,327.2 757.9,327.6 759.0,327.9 760.0,328.3 761.0,328.7 762.0,329.1 763.0,329.4 764.2,329.8 765.4,330.2 766.6,330.5 767.7,330.9 768.6,331.3 769.3,331.7 769.7,332.0 769.8,332.4 769.6,332.8 769.4,333.2 769.2,333.5 769.1,333.9 769.4,334.3 770.0,334.6 771.0,335.0 772.3,335.4 773.9,335.8 775.7,336.1 777.7,336.5 779.9,336.9 782.0,337.3 784.3,337.6 786.5,338.0 788.9,338.4 791.2,338.7 793.6,339.1 795.9,339.5 798.2,339.9 800.4,340.2 802.5,340.6 804.3,341.0 806.0,341.4 807.4,341.7 808.6,342.1 809.5,342.5 810.2,342.8 810.7,343.2 811.1,343.6" fill="#2a8" opacity="0.5" stroke="#2a8" stroke-width="1"/>
<line x1="762.5" y1="329.2552172023264" x2="860.8" y2="329.2552172023264" stroke="#114" stroke-width="2"/>
<circle cx="811.6666666666666" cy="331.5413451621814" r="2.4" fill="#114"/>
<text x="811.6666666666666" y="313.72886583342085" text-anchor="middle" font-size="11">1.31</text>
<text x="811.6666666666666" y="376" text-anchor="middle" font-size="12">iamax</text>
<text x="450.0" y="428" text-anchor="middle" font-size="11" fill="#666">violin = ratio distribution over sizes · line = median · dark dot = worst size · green = every size ≥ gate</text>
</svg>
