<svg xmlns="http://www.w3.org/2000/svg" width="900" height="440" font-family="sans-serif">
<rect width="900" height="440" fill="white"/>
<text x="450.0" y="28" text-anchor="middle" font-size="18" font-weight="bold">Complex BLAS-2: PureBLAS / OpenBLAS (AVX2, 1 thread, ComplexF64)</text>
<line x1="60" y1="358.0" x2="880" y2="358.0" stroke="#eee"/>
<text x="52" y="362.0" text-anchor="end" font-size="11" fill="#666">0×</text>
<line x1="60" y1="278.0040963543968" x2="880" y2="278.0040963543968" stroke="#eee"/>
<text x="52" y="282.0040963543968" text-anchor="end" font-size="11" fill="#666">0.5×</text>
<line x1="60" y1="198.0081927087936" x2="880" y2="198.0081927087936" stroke="#eee"/>
<text x="52" y="202.0081927087936" text-anchor="end" font-size="11" fill="#666">1×</text>
<line x1="60" y1="118.01228906319038" x2="880" y2="118.01228906319038" stroke="#eee"/>
<text x="52" y="122.01228906319038" text-anchor="end" font-size="11" fill="#666">1.5×</text>
<line x1="60" y1="198.0081927087936" x2="880" y2="198.0081927087936" stroke="#888" stroke-width="1"/>
<line x1="60" y1="204.40786500044183" x2="880" y2="204.40786500044183" stroke="#d33" stroke-width="1.5" stroke-dasharray="6 4"/>
<text x="880" y="199.40786500044183" text-anchor="end" font-size="11" fill="#d33">0.96× gate</text>
<polygon points="103.1,196.6 103.8,196.1 104.8,195.6 105.9,195.1 107.3,194.7 108.9,194.2 110.7,193.7 112.8,193.2 115.1,192.8 117.6,192.3 120.2,191.8 122.9,191.3 125.6,190.9 128.1,190.4 130.5,189.9 132.5,189.4 134.1,189.0 135.1,188.5 135.4,188.0 135.1,187.5 134.1,187.1 132.4,186.6 130.2,186.1 127.4,185.6 124.4,185.2 121.3,184.7 118.1,184.2 115.1,183.7 112.4,183.3 110.0,182.8 107.9,182.3 106.3,181.8 105.0,181.4 104.1,180.9 103.6,180.4 103.4,179.9 103.6,179.5 104.0,179.0 104.7,178.5 105.8,178.0 107.1,177.6 108.6,177.1 110.4,176.6 112.4,176.1 114.5,175.7 116.6,175.2 118.7,174.7 120.6,174.2 122.3,173.8 123.7,173.3 124.7,172.8 125.3,172.4 125.4,171.9 125.1,171.4 124.5,170.9 123.5,170.5 122.2,170.0 120.7,169.5 119.0,169.0 117.2,168.6 115.4,168.1 113.6,167.6 111.8,167.1 110.2,166.7 108.7,166.2 107.3,165.7 106.1,165.2 105.0,164.8 104.1,164.3 103.3,163.8 102.7,163.3 102.3,162.9 99.7,162.9 99.3,163.3 98.7,163.8 97.9,164.3 97.0,164.8 95.9,165.2 94.7,165.7 93.3,166.2 91.8,166.7 90.2,167.1 88.4,167.6 86.6,168.1 84.8,168.6 83.0,169.0 81.3,169.5 79.8,170.0 78.5,170.5 77.5,170.9 76.9,171.4 76.6,171.9 76.7,172.4 77.3,172.8 78.3,173.3 79.7,173.8 81.4,174.2 83.3,174.7 85.4,175.2 87.5,175.7 89.6,176.1 91.6,176.6 93.4,177.1 94.9,177.6 96.2,178.0 97.3,178.5 98.0,179.0 98.4,179.5 98.6,179.9 98.4,180.4 97.9,180.9 97.0,181.4 95.7,181.8 94.1,182.3 92.0,182.8 89.6,183.3 86.9,183.7 83.9,184.2 80.7,184.7 77.6,185.2 74.6,185.6 71.8,186.1 69.6,186.6 67.9,187.1 66.9,187.5 66.6,188.0 66.9,188.5 67.9,189.0 69.5,189.4 71.5,189.9 73.9,190.4 76.4,190.9 79.1,191.3 81.8,191.8 84.4,192.3 86.9,192.8 89.2,193.2 91.3,193.7 93.1,194.2 94.7,194.7 96.1,195.1 97.2,195.6 98.2,196.1 98.9,196.6" fill="#2a8" opacity="0.5" stroke="#2a8" stroke-width="1"/>
<line x1="70.0" y1="186.51089961495808" x2="132.0" y2="186.51089961495808" stroke="#114" stroke-width="2"/>
<circle cx="101.0" cy="191.11443992165897" r="2.4" fill="#114"/>
<text x="101.0" y="160.3737115299504" text-anchor="middle" font-size="11">1.07</text>
<text x="101.0" y="376" text-anchor="middle" font-size="12">zgemvN</text>
<polygon points="185.5,233.2 186.4,232.5 187.4,231.8 188.6,231.0 189.9,230.3 191.3,229.6 192.7,228.9 194.0,228.2 195.2,227.4 196.3,226.7 197.0,226.0 197.5,225.3 197.7,224.5 197.6,223.8 197.2,223.1 196.7,222.4 196.2,221.6 195.8,220.9 195.6,220.2 195.5,219.5 195.8,218.7 196.3,218.0 197.1,217.3 198.1,216.6 199.2,215.8 200.2,215.1 201.3,214.4 202.2,213.7 203.0,213.0 203.6,212.2 204.1,211.5 204.4,210.8 204.8,210.1 205.1,209.3 205.4,208.6 205.7,207.9 206.1,207.2 206.6,206.4 207.0,205.7 207.6,205.0 208.1,204.3 208.7,203.5 209.3,202.8 209.9,202.1 210.4,201.4 210.9,200.6 211.3,199.9 211.6,199.2 211.9,198.5 212.1,197.8 212.3,197.0 212.6,196.3 212.9,195.6 213.3,194.9 213.9,194.1 214.6,193.4 215.4,192.7 216.2,192.0 216.9,191.2 217.4,190.5 217.4,189.8 217.1,189.1 216.1,188.3 214.6,187.6 212.6,186.9 210.0,186.2 207.2,185.4 204.0,184.7 200.9,184.0 197.8,183.3 194.9,182.6 192.3,181.8 173.7,181.8 171.1,182.6 168.2,183.3 165.1,184.0 162.0,184.7 158.8,185.4 156.0,186.2 153.4,186.9 151.4,187.6 149.9,188.3 148.9,189.1 148.6,189.8 148.6,190.5 149.1,191.2 149.8,192.0 150.6,192.7 151.4,193.4 152.1,194.1 152.7,194.9 153.1,195.6 153.4,196.3 153.7,197.0 153.9,197.8 154.1,198.5 154.4,199.2 154.7,199.9 155.1,200.6 155.6,201.4 156.1,202.1 156.7,202.8 157.3,203.5 157.9,204.3 158.4,205.0 159.0,205.7 159.4,206.4 159.9,207.2 160.3,207.9 160.6,208.6 160.9,209.3 161.2,210.1 161.6,210.8 161.9,211.5 162.4,212.2 163.0,213.0 163.8,213.7 164.7,214.4 165.8,215.1 166.8,215.8 167.9,216.6 168.9,217.3 169.7,218.0 170.2,218.7 170.5,219.5 170.4,220.2 170.2,220.9 169.8,221.6 169.3,222.4 168.8,223.1 168.4,223.8 168.3,224.5 168.5,225.3 169.0,226.0 169.7,226.7 170.8,227.4 172.0,228.2 173.3,228.9 174.7,229.6 176.1,230.3 177.4,231.0 178.6,231.8 179.6,232.5 180.5,233.2" fill="#d33" opacity="0.5" stroke="#d33" stroke-width="1"/>
<line x1="154.6" y1="199.69570918335572" x2="211.4" y2="199.69570918335572" stroke="#114" stroke-width="2"/>
<circle cx="183.0" cy="224.83041338842565" r="2.4" fill="#114"/>
<text x="183.0" y="181.06163679265808" text-anchor="middle" font-size="11">0.99</text>
<text x="183.0" y="376" text-anchor="middle" font-size="12">zgemvT</text>
<polygon points="266.3,232.9 266.9,232.1 267.7,231.3 268.7,230.6 270.0,229.8 271.5,229.0 273.1,228.2 274.8,227.5 276.6,226.7 278.2,225.9 279.5,225.2 280.5,224.4 281.1,223.6 281.2,222.8 280.9,222.1 280.3,221.3 279.5,220.5 278.7,219.7 278.1,219.0 277.8,218.2 278.0,217.4 278.8,216.7 280.0,215.9 281.8,215.1 283.9,214.3 286.3,213.6 288.6,212.8 290.7,212.0 292.5,211.3 293.8,210.5 294.4,209.7 294.5,208.9 293.9,208.2 292.9,207.4 291.6,206.6 290.2,205.9 288.9,205.1 287.8,204.3 287.1,203.5 287.0,202.8 287.4,202.0 288.4,201.2 289.8,200.5 291.5,199.7 293.3,198.9 295.1,198.1 296.6,197.4 297.9,196.6 298.7,195.8 299.2,195.1 299.4,194.3 299.4,193.5 299.2,192.7 299.0,192.0 298.8,191.2 298.6,190.4 298.4,189.6 298.2,188.9 297.7,188.1 297.0,187.3 295.9,186.6 294.5,185.8 292.6,185.0 290.3,184.2 287.7,183.5 284.9,182.7 282.0,181.9 279.2,181.2 276.5,180.4 274.1,179.6 272.0,178.8 270.2,178.1 259.8,178.1 258.0,178.8 255.9,179.6 253.5,180.4 250.8,181.2 248.0,181.9 245.1,182.7 242.3,183.5 239.7,184.2 237.4,185.0 235.5,185.8 234.1,186.6 233.0,187.3 232.3,188.1 231.8,188.9 231.6,189.6 231.4,190.4 231.2,191.2 231.0,192.0 230.8,192.7 230.6,193.5 230.6,194.3 230.8,195.1 231.3,195.8 232.1,196.6 233.4,197.4 234.9,198.1 236.7,198.9 238.5,199.7 240.2,200.5 241.6,201.2 242.6,202.0 243.0,202.8 242.9,203.5 242.2,204.3 241.1,205.1 239.8,205.9 238.4,206.6 237.1,207.4 236.1,208.2 235.5,208.9 235.6,209.7 236.2,210.5 237.5,211.3 239.3,212.0 241.4,212.8 243.7,213.6 246.1,214.3 248.2,215.1 250.0,215.9 251.2,216.7 252.0,217.4 252.2,218.2 251.9,219.0 251.3,219.7 250.5,220.5 249.7,221.3 249.1,222.1 248.8,222.8 248.9,223.6 249.5,224.4 250.5,225.2 251.8,225.9 253.4,226.7 255.2,227.5 256.9,228.2 258.5,229.0 260.0,229.8 261.3,230.6 262.3,231.3 263.1,232.1 263.7,232.9" fill="#d33" opacity="0.5" stroke="#d33" stroke-width="1"/>
<line x1="232.9" y1="197.1132243671884" x2="297.1" y2="197.1132243671884" stroke="#114" stroke-width="2"/>
<circle cx="265.0" cy="223.1566670295334" r="2.4" fill="#114"/>
<text x="265.0" y="177.6340481010601" text-anchor="middle" font-size="11">1.01</text>
<text x="265.0" y="376" text-anchor="middle" font-size="12">zgemvC</text>
<polygon points="352.8,211.3 355.0,210.2 357.6,209.0 360.8,207.8 364.2,206.6 367.9,205.4 371.5,204.2 374.9,203.1 377.8,201.9 379.9,200.7 381.1,199.5 381.4,198.3 380.8,197.2 379.3,196.0 377.2,194.8 374.7,193.6 372.0,192.4 369.2,191.2 366.6,190.1 364.1,188.9 362.0,187.7 360.1,186.5 358.5,185.3 357.1,184.1 356.0,183.0 355.2,181.8 354.7,180.6 354.4,179.4 354.4,178.2 354.5,177.1 354.8,175.9 355.1,174.7 355.4,173.5 355.6,172.3 355.6,171.1 355.3,170.0 354.9,168.8 354.3,167.6 353.5,166.4 352.7,165.2 351.9,164.1 351.1,162.9 350.4,161.7 350.0,160.5 349.7,159.3 349.7,158.1 349.9,157.0 350.4,155.8 351.0,154.6 351.7,153.4 352.5,152.2 353.3,151.0 354.1,149.9 354.6,148.7 354.9,147.5 355.0,146.3 354.9,145.1 354.5,144.0 353.8,142.8 353.1,141.6 352.2,140.4 351.4,139.2 350.6,138.0 349.8,136.9 349.2,135.7 348.6,134.5 348.2,133.3 347.9,132.1 347.6,130.9 347.4,129.8 347.3,128.6 347.2,127.4 346.8,127.4 346.7,128.6 346.6,129.8 346.4,130.9 346.1,132.1 345.8,133.3 345.4,134.5 344.8,135.7 344.2,136.9 343.4,138.0 342.6,139.2 341.8,140.4 340.9,141.6 340.2,142.8 339.5,144.0 339.1,145.1 339.0,146.3 339.1,147.5 339.4,148.7 339.9,149.9 340.7,151.0 341.5,152.2 342.3,153.4 343.0,154.6 343.6,155.8 344.1,157.0 344.3,158.1 344.3,159.3 344.0,160.5 343.6,161.7 342.9,162.9 342.1,164.1 341.3,165.2 340.5,166.4 339.7,167.6 339.1,168.8 338.7,170.0 338.4,171.1 338.4,172.3 338.6,173.5 338.9,174.7 339.2,175.9 339.5,177.1 339.6,178.2 339.6,179.4 339.3,180.6 338.8,181.8 338.0,183.0 336.9,184.1 335.5,185.3 333.9,186.5 332.0,187.7 329.9,188.9 327.4,190.1 324.8,191.2 322.0,192.4 319.3,193.6 316.8,194.8 314.7,196.0 313.2,197.2 312.6,198.3 312.9,199.5 314.1,200.7 316.2,201.9 319.1,203.1 322.5,204.2 326.1,205.4 329.8,206.6 333.2,207.8 336.4,209.0 339.0,210.2 341.2,211.3" fill="#2a8" opacity="0.5" stroke="#2a8" stroke-width="1"/>
<line x1="313.1" y1="197.2504213392163" x2="380.9" y2="197.2504213392163" stroke="#114" stroke-width="2"/>
<circle cx="347.0" cy="201.39410581342878" r="2.4" fill="#114"/>
<text x="347.0" y="129.78411161308276" text-anchor="middle" font-size="11">1.00</text>
<text x="347.0" y="376" text-anchor="middle" font-size="12">zgeru</text>
<polygon points="444.9,168.2 447.1,166.6 449.4,165.1 451.5,163.5 453.6,161.9 455.4,160.3 456.9,158.8 458.2,157.2 459.1,155.6 459.6,154.0 459.8,152.5 459.6,150.9 459.2,149.3 458.5,147.7 457.5,146.2 456.3,144.6 455.1,143.0 453.7,141.4 452.2,139.9 450.8,138.3 449.4,136.7 448.0,135.1 446.7,133.6 445.5,132.0 444.5,130.4 443.6,128.8 442.9,127.3 442.4,125.7 442.1,124.1 442.0,122.5 442.0,120.9 442.2,119.4 442.4,117.8 442.6,116.2 442.9,114.6 443.1,113.1 443.3,111.5 443.4,109.9 443.4,108.3 443.3,106.8 443.2,105.2 443.2,103.6 443.1,102.0 443.2,100.5 443.4,98.9 443.8,97.3 444.5,95.7 445.4,94.2 446.5,92.6 447.9,91.0 449.5,89.4 451.3,87.9 453.3,86.3 455.2,84.7 457.1,83.1 458.9,81.6 460.5,80.0 461.8,78.4 462.8,76.8 463.3,75.3 463.4,73.7 463.1,72.1 462.3,70.5 461.1,69.0 459.4,67.4 457.5,65.8 455.3,64.2 452.9,62.7 450.4,61.1 447.8,59.5 445.3,57.9 443.0,56.4 415.0,56.4 412.7,57.9 410.2,59.5 407.6,61.1 405.1,62.7 402.7,64.2 400.5,65.8 398.6,67.4 396.9,69.0 395.7,70.5 394.9,72.1 394.6,73.7 394.7,75.3 395.2,76.8 396.2,78.4 397.5,80.0 399.1,81.6 400.9,83.1 402.8,84.7 404.7,86.3 406.7,87.9 408.5,89.4 410.1,91.0 411.5,92.6 412.6,94.2 413.5,95.7 414.2,97.3 414.6,98.9 414.8,100.5 414.9,102.0 414.8,103.6 414.8,105.2 414.7,106.8 414.6,108.3 414.6,109.9 414.7,111.5 414.9,113.1 415.1,114.6 415.4,116.2 415.6,117.8 415.8,119.4 416.0,120.9 416.0,122.5 415.9,124.1 415.6,125.7 415.1,127.3 414.4,128.8 413.5,130.4 412.5,132.0 411.3,133.6 410.0,135.1 408.6,136.7 407.2,138.3 405.8,139.9 404.3,141.4 402.9,143.0 401.7,144.6 400.5,146.2 399.5,147.7 398.8,149.3 398.4,150.9 398.2,152.5 398.4,154.0 398.9,155.6 399.8,157.2 401.1,158.8 402.6,160.3 404.4,161.9 406.5,163.5 408.6,165.1 410.9,166.6 413.1,168.2" fill="#2a8" opacity="0.5" stroke="#2a8" stroke-width="1"/>
<line x1="414.6" y1="110.28402247533921" x2="443.4" y2="110.28402247533921" stroke="#114" stroke-width="2"/>
<circle cx="429.0" cy="156.6095292708374" r="2.4" fill="#114"/>
<text x="429.0" y="61.433962264150935" text-anchor="middle" font-size="11">1.55</text>
<text x="429.0" y="376" text-anchor="middle" font-size="12">zhemv</text>
<polygon points="516.0,208.1 517.6,206.0 519.5,203.8 521.7,201.7 524.1,199.6 526.9,197.4 529.8,195.3 532.7,193.2 535.7,191.1 538.5,188.9 540.9,186.8 543.0,184.7 544.5,182.6 545.3,180.4 545.4,178.3 544.9,176.2 543.6,174.1 541.8,171.9 539.5,169.8 536.8,167.7 533.8,165.5 530.9,163.4 528.0,161.3 525.3,159.2 522.9,157.0 520.8,154.9 519.2,152.8 518.0,150.7 517.2,148.5 516.8,146.4 516.7,144.3 516.9,142.1 517.3,140.0 517.7,137.9 518.2,135.8 518.6,133.6 518.9,131.5 519.0,129.4 518.9,127.3 518.7,125.1 518.2,123.0 517.6,120.9 516.9,118.8 516.2,116.6 515.4,114.5 514.7,112.4 514.1,110.2 513.6,108.1 513.3,106.0 513.1,103.9 513.1,101.7 513.2,99.6 513.5,97.5 513.9,95.4 514.4,93.2 515.0,91.1 515.7,89.0 516.4,86.8 517.1,84.7 517.7,82.6 518.1,80.5 518.5,78.3 518.6,76.2 518.6,74.1 518.3,72.0 517.9,69.8 517.4,67.7 516.7,65.6 516.0,63.5 515.2,61.3 514.5,59.2 513.8,57.1 508.2,57.1 507.5,59.2 506.8,61.3 506.0,63.5 505.3,65.6 504.6,67.7 504.1,69.8 503.7,72.0 503.4,74.1 503.4,76.2 503.5,78.3 503.9,80.5 504.3,82.6 504.9,84.7 505.6,86.8 506.3,89.0 507.0,91.1 507.6,93.2 508.1,95.4 508.5,97.5 508.8,99.6 508.9,101.7 508.9,103.9 508.7,106.0 508.4,108.1 507.9,110.2 507.3,112.4 506.6,114.5 505.8,116.6 505.1,118.8 504.4,120.9 503.8,123.0 503.3,125.1 503.1,127.3 503.0,129.4 503.1,131.5 503.4,133.6 503.8,135.8 504.3,137.9 504.7,140.0 505.1,142.1 505.3,144.3 505.2,146.4 504.8,148.5 504.0,150.7 502.8,152.8 501.2,154.9 499.1,157.0 496.7,159.2 494.0,161.3 491.1,163.4 488.2,165.5 485.2,167.7 482.5,169.8 480.2,171.9 478.4,174.1 477.1,176.2 476.6,178.3 476.7,180.4 477.5,182.6 479.0,184.7 481.1,186.8 483.5,188.9 486.3,191.1 489.3,193.2 492.2,195.3 495.1,197.4 497.9,199.6 500.3,201.7 502.5,203.8 504.4,206.0 506.0,208.1" fill="#2a8" opacity="0.5" stroke="#2a8" stroke-width="1"/>
<line x1="477.4" y1="175.65403826367606" x2="544.6" y2="175.65403826367606" stroke="#114" stroke-width="2"/>
<circle cx="511.0" cy="190.8765600308039" r="2.4" fill="#114"/>
<text x="511.0" y="65.94529588684951" text-anchor="middle" font-size="11">1.14</text>
<text x="511.0" y="376" text-anchor="middle" font-size="12">ztrmv</text>
<polygon points="595.8,205.0 596.7,203.5 597.9,202.0 599.4,200.6 601.2,199.1 603.2,197.6 605.5,196.1 608.0,194.6 610.8,193.1 613.6,191.7 616.4,190.2 619.1,188.7 621.7,187.2 623.9,185.7 625.6,184.3 626.8,182.8 627.4,181.3 627.4,179.8 626.7,178.3 625.3,176.8 623.4,175.4 621.0,173.9 618.3,172.4 615.4,170.9 612.4,169.4 609.5,167.9 606.9,166.5 604.5,165.0 602.5,163.5 601.0,162.0 599.9,160.5 599.3,159.0 599.0,157.6 599.0,156.1 599.3,154.6 599.8,153.1 600.3,151.6 600.8,150.1 601.2,148.7 601.4,147.2 601.4,145.7 601.2,144.2 600.8,142.7 600.2,141.2 599.5,139.8 598.8,138.3 598.0,136.8 597.3,135.3 596.7,133.8 596.3,132.3 596.1,130.9 596.0,129.4 596.1,127.9 596.4,126.4 596.8,124.9 597.4,123.4 598.0,122.0 598.6,120.5 599.3,119.0 599.8,117.5 600.3,116.0 600.6,114.5 600.8,113.1 600.8,111.6 600.5,110.1 600.1,108.6 599.5,107.1 598.8,105.6 598.1,104.2 597.3,102.7 596.5,101.2 595.8,99.7 590.2,99.7 589.5,101.2 588.7,102.7 587.9,104.2 587.2,105.6 586.5,107.1 585.9,108.6 585.5,110.1 585.2,111.6 585.2,113.1 585.4,114.5 585.7,116.0 586.2,117.5 586.7,119.0 587.4,120.5 588.0,122.0 588.6,123.4 589.2,124.9 589.6,126.4 589.9,127.9 590.0,129.4 589.9,130.9 589.7,132.3 589.3,133.8 588.7,135.3 588.0,136.8 587.2,138.3 586.5,139.8 585.8,141.2 585.2,142.7 584.8,144.2 584.6,145.7 584.6,147.2 584.8,148.7 585.2,150.1 585.7,151.6 586.2,153.1 586.7,154.6 587.0,156.1 587.0,157.6 586.7,159.0 586.1,160.5 585.0,162.0 583.5,163.5 581.5,165.0 579.1,166.5 576.5,167.9 573.6,169.4 570.6,170.9 567.7,172.4 565.0,173.9 562.6,175.4 560.7,176.8 559.3,178.3 558.6,179.8 558.6,181.3 559.2,182.8 560.4,184.3 562.1,185.7 564.3,187.2 566.9,188.7 569.6,190.2 572.4,191.7 575.2,193.1 578.0,194.6 580.5,196.1 582.8,197.6 584.8,199.1 586.6,200.6 588.1,202.0 589.3,203.5 590.2,205.0" fill="#2a8" opacity="0.5" stroke="#2a8" stroke-width="1"/>
<line x1="560.9" y1="176.62545970237156" x2="625.1" y2="176.62545970237156" stroke="#114" stroke-width="2"/>
<circle cx="593.0" cy="189.13459663520086" r="2.4" fill="#114"/>
<text x="593.0" y="104.16312382921745" text-anchor="middle" font-size="11">1.13</text>
<text x="593.0" y="376" text-anchor="middle" font-size="12">ztrsv</text>
<polygon points="687.2,299.1 689.9,297.7 692.7,296.3 695.5,294.8 698.2,293.4 700.6,291.9 702.8,290.5 704.5,289.0 705.9,287.6 706.9,286.2 707.6,284.7 708.1,283.3 708.5,281.8 708.8,280.4 709.0,278.9 709.2,277.5 709.4,276.1 709.4,274.6 709.4,273.2 709.1,271.7 708.7,270.3 708.2,268.8 707.5,267.4 706.8,265.9 706.1,264.5 705.3,263.1 704.6,261.6 703.8,260.2 703.0,258.7 702.2,257.3 701.2,255.8 699.9,254.4 698.5,253.0 696.9,251.5 695.1,250.1 693.1,248.6 691.0,247.2 688.9,245.7 686.8,244.3 684.8,242.8 682.9,241.4 681.3,240.0 679.9,238.5 678.7,237.1 677.8,235.6 677.1,234.2 676.6,232.7 676.2,231.3 676.1,229.9 676.1,228.4 676.3,227.0 676.6,225.5 677.1,224.1 677.8,222.6 678.7,221.2 679.7,219.7 680.8,218.3 682.1,216.9 683.4,215.4 684.6,214.0 685.7,212.5 686.6,211.1 687.3,209.6 687.6,208.2 687.5,206.8 687.2,205.3 686.5,203.9 685.5,202.4 684.4,201.0 683.2,199.5 681.9,198.1 680.6,196.7 669.4,196.7 668.1,198.1 666.8,199.5 665.6,201.0 664.5,202.4 663.5,203.9 662.8,205.3 662.5,206.8 662.4,208.2 662.7,209.6 663.4,211.1 664.3,212.5 665.4,214.0 666.6,215.4 667.9,216.9 669.2,218.3 670.3,219.7 671.3,221.2 672.2,222.6 672.9,224.1 673.4,225.5 673.7,227.0 673.9,228.4 673.9,229.9 673.8,231.3 673.4,232.7 672.9,234.2 672.2,235.6 671.3,237.1 670.1,238.5 668.7,240.0 667.1,241.4 665.2,242.8 663.2,244.3 661.1,245.7 659.0,247.2 656.9,248.6 654.9,250.1 653.1,251.5 651.5,253.0 650.1,254.4 648.8,255.8 647.8,257.3 647.0,258.7 646.2,260.2 645.4,261.6 644.7,263.1 643.9,264.5 643.2,265.9 642.5,267.4 641.8,268.8 641.3,270.3 640.9,271.7 640.6,273.2 640.6,274.6 640.6,276.1 640.8,277.5 641.0,278.9 641.2,280.4 641.5,281.8 641.9,283.3 642.4,284.7 643.1,286.2 644.1,287.6 645.5,289.0 647.2,290.5 649.4,291.9 651.8,293.4 654.5,294.8 657.3,296.3 660.1,297.7 662.8,299.1" fill="#d33" opacity="0.5" stroke="#d33" stroke-width="1"/>
<line x1="640.7" y1="272.5481365547847" x2="709.3" y2="272.5481365547847" stroke="#114" stroke-width="2"/>
<circle cx="675.0" cy="288.88395231591403" r="2.4" fill="#114"/>
<text x="675.0" y="200.8276267734206" text-anchor="middle" font-size="11">0.53</text>
<text x="675.0" y="376" text-anchor="middle" font-size="12">zhpmv</text>
<polygon points="758.3,241.8 759.1,241.4 760.3,240.9 761.8,240.5 763.9,240.0 766.5,239.6 769.6,239.2 773.1,238.7 776.9,238.3 780.7,237.8 784.3,237.4 787.3,236.9 789.7,236.5 791.0,236.0 791.4,235.6 790.9,235.2 789.5,234.7 787.5,234.3 785.0,233.8 782.3,233.4 779.6,232.9 777.0,232.5 774.5,232.0 772.2,231.6 770.1,231.2 768.1,230.7 766.3,230.3 764.7,229.8 763.3,229.4 762.2,228.9 761.2,228.5 760.5,228.0 760.1,227.6 759.9,227.1 759.9,226.7 760.2,226.3 760.8,225.8 761.5,225.4 762.4,224.9 763.3,224.5 764.2,224.0 765.0,223.6 765.6,223.1 766.0,222.7 766.1,222.3 765.9,221.8 765.4,221.4 764.6,220.9 763.8,220.5 762.9,220.0 762.0,219.6 761.3,219.1 760.7,218.7 760.3,218.3 760.0,217.8 759.9,217.4 759.9,216.9 759.9,216.5 760.0,216.0 759.9,215.6 759.9,215.1 759.7,214.7 759.5,214.2 759.2,213.8 758.9,213.4 758.6,212.9 758.3,212.5 758.0,212.0 757.7,211.6 757.5,211.1 757.4,210.7 757.3,210.2 756.7,210.2 756.6,210.7 756.5,211.1 756.3,211.6 756.0,212.0 755.7,212.5 755.4,212.9 755.1,213.4 754.8,213.8 754.5,214.2 754.3,214.7 754.1,215.1 754.1,215.6 754.0,216.0 754.1,216.5 754.1,216.9 754.1,217.4 754.0,217.8 753.7,218.3 753.3,218.7 752.7,219.1 752.0,219.6 751.1,220.0 750.2,220.5 749.4,220.9 748.6,221.4 748.1,221.8 747.9,222.3 748.0,222.7 748.4,223.1 749.0,223.6 749.8,224.0 750.7,224.5 751.6,224.9 752.5,225.4 753.2,225.8 753.8,226.3 754.1,226.7 754.1,227.1 753.9,227.6 753.5,228.0 752.8,228.5 751.8,228.9 750.7,229.4 749.3,229.8 747.7,230.3 745.9,230.7 743.9,231.2 741.8,231.6 739.5,232.0 737.0,232.5 734.4,232.9 731.7,233.4 729.0,233.8 726.5,234.3 724.5,234.7 723.1,235.2 722.6,235.6 723.0,236.0 724.3,236.5 726.7,236.9 729.7,237.4 733.3,237.8 737.1,238.3 740.9,238.7 744.4,239.2 747.5,239.6 750.1,240.0 752.2,240.5 753.7,240.9 754.9,241.4 755.7,241.8" fill="#d33" opacity="0.5" stroke="#d33" stroke-width="1"/>
<line x1="723.8" y1="234.9055857262008" x2="790.2" y2="234.9055857262008" stroke="#114" stroke-width="2"/>
<circle cx="757.0" cy="236.58462404190536" r="2.4" fill="#114"/>
<text x="757.0" y="207.55724885096848" text-anchor="middle" font-size="11">0.77</text>
<text x="757.0" y="376" text-anchor="middle" font-size="12">zgbmvN</text>
<polygon points="839.0,241.7 839.0,241.2 839.0,240.8 839.1,240.3 839.1,239.9 839.1,239.5 839.2,239.0 839.2,238.6 839.2,238.2 839.3,237.7 839.3,237.3 839.3,236.8 839.3,236.4 839.4,236.0 839.5,235.5 839.6,235.1 839.7,234.7 839.8,234.2 840.0,233.8 840.1,233.3 840.3,232.9 840.6,232.5 841.0,232.0 841.6,231.6 842.6,231.2 844.2,230.7 846.8,230.3 850.4,229.8 855.0,229.4 860.3,229.0 865.7,228.5 870.1,228.1 872.9,227.7 873.4,227.2 871.8,226.8 868.6,226.3 864.4,225.9 860.3,225.5 856.6,225.0 853.7,224.6 851.7,224.2 850.5,223.7 849.7,223.3 849.3,222.8 849.0,222.4 848.5,222.0 847.7,221.5 846.7,221.1 845.5,220.7 844.2,220.2 842.9,219.8 842.0,219.3 841.3,218.9 841.1,218.5 841.4,218.0 842.0,217.6 842.9,217.2 843.9,216.7 845.0,216.3 845.7,215.8 846.0,215.4 845.9,215.0 845.3,214.5 844.3,214.1 843.2,213.7 842.1,213.2 841.1,212.8 840.4,212.3 839.8,211.9 839.5,211.5 839.2,211.0 839.1,210.6 838.9,210.6 838.8,211.0 838.5,211.5 838.2,211.9 837.6,212.3 836.9,212.8 835.9,213.2 834.8,213.7 833.7,214.1 832.7,214.5 832.1,215.0 832.0,215.4 832.3,215.8 833.0,216.3 834.1,216.7 835.1,217.2 836.0,217.6 836.6,218.0 836.9,218.5 836.7,218.9 836.0,219.3 835.1,219.8 833.8,220.2 832.5,220.7 831.3,221.1 830.3,221.5 829.5,222.0 829.0,222.4 828.7,222.8 828.3,223.3 827.5,223.7 826.3,224.2 824.3,224.6 821.4,225.0 817.7,225.5 813.6,225.9 809.4,226.3 806.2,226.8 804.6,227.2 805.1,227.7 807.9,228.1 812.3,228.5 817.7,229.0 823.0,229.4 827.6,229.8 831.2,230.3 833.8,230.7 835.4,231.2 836.4,231.6 837.0,232.0 837.4,232.5 837.7,232.9 837.9,233.3 838.0,233.8 838.2,234.2 838.3,234.7 838.4,235.1 838.5,235.5 838.6,236.0 838.7,236.4 838.7,236.8 838.7,237.3 838.7,237.7 838.8,238.2 838.8,238.6 838.8,239.0 838.9,239.5 838.9,239.9 838.9,240.3 839.0,240.8 839.0,241.2 839.0,241.7" fill="#d33" opacity="0.5" stroke="#d33" stroke-width="1"/>
<line x1="804.6" y1="227.2270674713304" x2="873.4" y2="227.2270674713304" stroke="#114" stroke-width="2"/>
<circle cx="839.0" cy="227.67750437099664" r="2.4" fill="#114"/>
<text x="839.0" y="207.85428562300174" text-anchor="middle" font-size="11">0.82</text>
<text x="839.0" y="376" text-anchor="middle" font-size="12">zhbmv</text>
<text x="450.0" y="428" text-anchor="middle" font-size="11" fill="#666">violin = ratio distribution over sizes · line = median · dark dot = worst size · green = every size ≥ gate</text>
</svg>
