<svg xmlns="http://www.w3.org/2000/svg" width="900" height="460" font-family="sans-serif">
<rect width="900" height="460" fill="white"/>
<text x="450.0" y="28" text-anchor="middle" font-size="18" font-weight="bold">LAPACK: PureBLAS / OpenBLAS (AVX-512, 1 thread, Float64)</text>
<line x1="62" y1="400.0" x2="768" y2="400.0" stroke="#eee"/>
<text x="54" y="404.0" text-anchor="end" font-size="11" fill="#666">0.5×</text>
<line x1="62" y1="338.20399094844413" x2="768" y2="338.20399094844413" stroke="#eee"/>
<text x="54" y="342.20399094844413" text-anchor="end" font-size="11" fill="#666">0.7×</text>
<line x1="62" y1="272.69758160711683" x2="768" y2="272.69758160711683" stroke="#eee"/>
<text x="54" y="276.69758160711683" text-anchor="end" font-size="11" fill="#666">1.0×</text>
<line x1="62" y1="198.2304405961651" x2="768" y2="198.2304405961651" stroke="#eee"/>
<text x="54" y="202.2304405961651" text-anchor="end" font-size="11" fill="#666">1.5×</text>
<line x1="62" y1="145.39516321423375" x2="768" y2="145.39516321423375" stroke="#eee"/>
<text x="54" y="149.39516321423375" text-anchor="end" font-size="11" fill="#666">2.0×</text>
<line x1="62" y1="70.92802220328196" x2="768" y2="70.92802220328196" stroke="#eee"/>
<text x="54" y="74.92802220328196" text-anchor="end" font-size="11" fill="#666">3.0×</text>
<line x1="62.0" y1="50" x2="62.0" y2="400" stroke="#f4f4f4"/>
<text x="62.0" y="418" text-anchor="middle" font-size="11" fill="#444">8</text>
<line x1="238.5" y1="50" x2="238.5" y2="400" stroke="#f4f4f4"/>
<text x="238.5" y="418" text-anchor="middle" font-size="11" fill="#444">32</text>
<line x1="415.0" y1="50" x2="415.0" y2="400" stroke="#f4f4f4"/>
<text x="415.0" y="418" text-anchor="middle" font-size="11" fill="#444">128</text>
<line x1="503.25" y1="50" x2="503.25" y2="400" stroke="#f4f4f4"/>
<text x="503.25" y="418" text-anchor="middle" font-size="11" fill="#444">256</text>
<line x1="591.5" y1="50" x2="591.5" y2="400" stroke="#f4f4f4"/>
<text x="591.5" y="418" text-anchor="middle" font-size="11" fill="#444">512</text>
<line x1="679.75" y1="50" x2="679.75" y2="400" stroke="#f4f4f4"/>
<text x="679.75" y="418" text-anchor="middle" font-size="11" fill="#444">1024</text>
<line x1="768.0" y1="50" x2="768.0" y2="400" stroke="#f4f4f4"/>
<text x="768.0" y="418" text-anchor="middle" font-size="11" fill="#444">2048</text>
<line x1="62" y1="272.69758160711683" x2="768" y2="272.69758160711683" stroke="#888"/>
<line x1="62" y1="280.1948906517146" x2="768" y2="280.1948906517146" stroke="#d33" stroke-width="1.5" stroke-dasharray="6 4"/>
<text x="66" y="275.1948906517146" font-size="11" fill="#d33">0.96× gate</text>
<polygon points="62.0,211.8 238.5,208.2 415.0,193.5 503.2,204.6 591.5,224.2 679.8,237.2 768.0,251.0 768.0,251.2 679.8,238.2 591.5,233.8 503.2,217.8 415.0,196.8 238.5,213.6 62.0,217.2" fill="#1f77b4" opacity="0.14" stroke="none"/>
<polyline points="62.0,214.3 238.5,210.6 415.0,195.9 503.2,208.0 591.5,227.6 679.8,237.6 768.0,251.2" fill="none" stroke="#1f77b4" stroke-width="2"/>
<circle cx="62.0" cy="214.3" r="3" fill="#1f77b4"/>
<circle cx="238.5" cy="210.6" r="3" fill="#1f77b4"/>
<circle cx="415.0" cy="195.9" r="3" fill="#1f77b4"/>
<circle cx="503.2" cy="208.0" r="3" fill="#1f77b4"/>
<circle cx="591.5" cy="227.6" r="3" fill="#1f77b4"/>
<circle cx="679.8" cy="237.6" r="3" fill="#1f77b4"/>
<circle cx="768.0" cy="251.2" r="3" fill="#1f77b4"/>
<line x1="782" y1="56" x2="802" y2="56" stroke="#1f77b4" stroke-width="3"/>
<text x="806" y="60" font-size="12">potrf</text>
<polygon points="62.0,73.4 238.5,200.0 415.0,205.4 503.2,219.8 591.5,186.9 679.8,219.7 768.0,244.6 768.0,245.9 679.8,221.0 591.5,187.2 503.2,224.0 415.0,207.4 238.5,207.8 62.0,89.8" fill="#d62728" opacity="0.14" stroke="none"/>
<polyline points="62.0,75.7 238.5,206.2 415.0,206.8 503.2,221.4 591.5,187.0 679.8,220.8 768.0,245.2" fill="none" stroke="#d62728" stroke-width="2"/>
<circle cx="62.0" cy="75.7" r="3" fill="#d62728"/>
<circle cx="238.5" cy="206.2" r="3" fill="#d62728"/>
<circle cx="415.0" cy="206.8" r="3" fill="#d62728"/>
<circle cx="503.2" cy="221.4" r="3" fill="#d62728"/>
<circle cx="591.5" cy="187.0" r="3" fill="#d62728"/>
<circle cx="679.8" cy="220.8" r="3" fill="#d62728"/>
<circle cx="768.0" cy="245.2" r="3" fill="#d62728"/>
<line x1="782" y1="74" x2="802" y2="74" stroke="#d62728" stroke-width="3"/>
<text x="806" y="78" font-size="12">geqrf</text>
<polygon points="62.0,157.0 238.5,177.7 415.0,223.2 503.2,238.0 591.5,247.9 679.8,250.2 768.0,267.1 768.0,267.6 679.8,251.4 591.5,251.5 503.2,250.8 415.0,227.1 238.5,179.7 62.0,162.9" fill="#2ca02c" opacity="0.14" stroke="none"/>
<polyline points="62.0,157.5 238.5,178.8 415.0,226.1 503.2,242.2 591.5,249.6 679.8,250.9 768.0,267.1" fill="none" stroke="#2ca02c" stroke-width="2"/>
<circle cx="62.0" cy="157.5" r="3" fill="#2ca02c"/>
<circle cx="238.5" cy="178.8" r="3" fill="#2ca02c"/>
<circle cx="415.0" cy="226.1" r="3" fill="#2ca02c"/>
<circle cx="503.2" cy="242.2" r="3" fill="#2ca02c"/>
<circle cx="591.5" cy="249.6" r="3" fill="#2ca02c"/>
<circle cx="679.8" cy="250.9" r="3" fill="#2ca02c"/>
<circle cx="768.0" cy="267.1" r="3" fill="#2ca02c"/>
<line x1="782" y1="92" x2="802" y2="92" stroke="#2ca02c" stroke-width="3"/>
<text x="806" y="96" font-size="12">getrf</text>
<polygon points="62.0,183.8 238.5,213.9 415.0,266.3 503.2,222.8 591.5,217.9 679.8,230.3 768.0,250.2 768.0,250.2 679.8,232.3 591.5,218.8 503.2,223.8 415.0,266.7 238.5,225.7 62.0,185.2" fill="#9467bd" opacity="0.14" stroke="none"/>
<polyline points="62.0,184.7 238.5,225.6 415.0,266.6 503.2,223.5 591.5,218.3 679.8,232.1 768.0,250.2" fill="none" stroke="#9467bd" stroke-width="2"/>
<circle cx="62.0" cy="184.7" r="3" fill="#9467bd"/>
<circle cx="238.5" cy="225.6" r="3" fill="#9467bd"/>
<circle cx="415.0" cy="266.6" r="3" fill="#9467bd"/>
<circle cx="503.2" cy="223.5" r="3" fill="#9467bd"/>
<circle cx="591.5" cy="218.3" r="3" fill="#9467bd"/>
<circle cx="679.8" cy="232.1" r="3" fill="#9467bd"/>
<circle cx="768.0" cy="250.2" r="3" fill="#9467bd"/>
<line x1="782" y1="110" x2="802" y2="110" stroke="#9467bd" stroke-width="3"/>
<text x="806" y="114" font-size="12">gesvd</text>
<text x="415.0" y="450" text-anchor="middle" font-size="11" fill="#666">matrix size n (log) · y = median ratio (log) · dashed = the 0.96× gate</text>
</svg>
