<svg xmlns="http://www.w3.org/2000/svg" width="900" height="440" font-family="sans-serif">
<rect width="900" height="440" fill="white"/>
<text x="450.0" y="28" text-anchor="middle" font-size="18" font-weight="bold">BLAS-2: PureBLAS / OpenBLAS (AVX2, 1 thread, Float64)</text>
<line x1="60" y1="358.0" x2="880" y2="358.0" stroke="#eee"/>
<text x="52" y="362.0" text-anchor="end" font-size="11" fill="#666">0×</text>
<line x1="60" y1="296.79358803079356" x2="880" y2="296.79358803079356" stroke="#eee"/>
<text x="52" y="300.79358803079356" text-anchor="end" font-size="11" fill="#666">0.5×</text>
<line x1="60" y1="235.58717606158723" x2="880" y2="235.58717606158723" stroke="#eee"/>
<text x="52" y="239.58717606158723" text-anchor="end" font-size="11" fill="#666">1×</text>
<line x1="60" y1="174.38076409238084" x2="880" y2="174.38076409238084" stroke="#eee"/>
<text x="52" y="178.38076409238084" text-anchor="end" font-size="11" fill="#666">1.5×</text>
<line x1="60" y1="235.58717606158723" x2="880" y2="235.58717606158723" stroke="#888" stroke-width="1"/>
<line x1="60" y1="240.48368901912377" x2="880" y2="240.48368901912377" stroke="#d33" stroke-width="1.5" stroke-dasharray="6 4"/>
<text x="880" y="235.48368901912377" text-anchor="end" font-size="11" fill="#d33">0.96× gate</text>
<polygon points="106.9,259.3 107.6,257.7 108.5,256.1 109.6,254.5 111.1,252.9 112.9,251.3 115.2,249.7 117.9,248.1 120.9,246.5 124.2,244.9 127.8,243.3 131.4,241.7 134.8,240.0 138.0,238.4 140.6,236.8 142.5,235.2 143.6,233.6 143.8,232.0 143.1,230.4 141.5,228.8 139.1,227.2 136.1,225.6 132.7,224.0 129.1,222.4 125.4,220.8 122.0,219.2 118.8,217.6 115.9,216.0 113.5,214.3 111.5,212.7 109.9,211.1 108.7,209.5 107.7,207.9 107.0,206.3 106.6,204.7 106.2,203.1 106.0,201.5 106.0,199.9 105.9,198.3 106.0,196.7 106.2,195.1 106.4,193.5 106.7,191.9 107.0,190.3 107.5,188.6 108.0,187.0 108.6,185.4 109.2,183.8 109.8,182.2 110.4,180.6 111.0,179.0 111.4,177.4 111.7,175.8 111.8,174.2 111.8,172.6 111.6,171.0 111.3,169.4 110.9,167.8 110.4,166.2 109.9,164.5 109.3,162.9 108.8,161.3 108.3,159.7 107.9,158.1 107.5,156.5 107.2,154.9 106.9,153.3 106.6,151.7 106.4,150.1 106.2,148.5 106.0,146.9 105.9,145.3 105.2,145.3 105.1,146.9 104.9,148.5 104.7,150.1 104.5,151.7 104.2,153.3 104.0,154.9 103.6,156.5 103.2,158.1 102.8,159.7 102.3,161.3 101.8,162.9 101.2,164.5 100.7,166.2 100.2,167.8 99.8,169.4 99.5,171.0 99.3,172.6 99.3,174.2 99.4,175.8 99.7,177.4 100.1,179.0 100.7,180.6 101.3,182.2 101.9,183.8 102.5,185.4 103.1,187.0 103.6,188.6 104.1,190.3 104.5,191.9 104.7,193.5 105.0,195.1 105.1,196.7 105.2,198.3 105.2,199.9 105.1,201.5 104.9,203.1 104.6,204.7 104.1,206.3 103.4,207.9 102.5,209.5 101.2,211.1 99.6,212.7 97.6,214.3 95.2,216.0 92.3,217.6 89.1,219.2 85.7,220.8 82.0,222.4 78.4,224.0 75.0,225.6 72.0,227.2 69.7,228.8 68.0,230.4 67.3,232.0 67.5,233.6 68.6,235.2 70.5,236.8 73.1,238.4 76.3,240.0 79.8,241.7 83.3,243.3 86.9,244.9 90.2,246.5 93.3,248.1 95.9,249.7 98.2,251.3 100.0,252.9 101.5,254.5 102.7,256.1 103.5,257.7 104.2,259.3" fill="#2a8" opacity="0.5" stroke="#2a8" stroke-width="1"/>
<line x1="67.5" y1="231.3494819220676" x2="143.6" y2="231.3494819220676" stroke="#114" stroke-width="2"/>
<circle cx="105.55555555555556" cy="239.62695017115539" r="2.4" fill="#114"/>
<text x="105.55555555555556" y="150.50610168522383" text-anchor="middle" font-size="11">1.03</text>
<text x="105.55555555555556" y="376" text-anchor="middle" font-size="12">gemvN</text>
<polygon points="197.1,240.4 197.3,240.0 197.6,239.6 198.0,239.2 198.5,238.8 199.2,238.4 200.1,238.0 201.3,237.6 202.9,237.2 204.9,236.8 207.3,236.4 210.3,236.0 213.8,235.6 217.7,235.2 221.7,234.8 225.5,234.4 229.0,234.0 231.8,233.6 233.8,233.2 234.8,232.8 234.9,232.4 234.3,232.0 232.9,231.5 231.1,231.1 229.0,230.7 226.7,230.3 224.2,229.9 221.8,229.5 219.5,229.1 217.5,228.7 216.0,228.3 214.9,227.9 214.5,227.5 214.6,227.1 215.1,226.7 216.0,226.3 217.0,225.9 218.0,225.5 218.7,225.1 219.1,224.7 219.0,224.3 218.5,223.9 217.5,223.5 216.1,223.1 214.5,222.7 212.6,222.3 210.7,221.9 208.8,221.5 206.9,221.1 205.2,220.7 203.6,220.2 202.3,219.8 201.2,219.4 200.3,219.0 199.7,218.6 199.2,218.2 198.8,217.8 198.5,217.4 198.3,217.0 198.2,216.6 198.1,216.2 198.0,215.8 197.9,215.4 197.7,215.0 197.6,214.6 197.5,214.2 197.4,213.8 197.2,213.4 197.1,213.0 197.0,212.6 196.9,212.2 196.8,211.8 196.5,211.8 196.4,212.2 196.3,212.6 196.2,213.0 196.1,213.4 196.0,213.8 195.8,214.2 195.7,214.6 195.6,215.0 195.5,215.4 195.4,215.8 195.3,216.2 195.1,216.6 195.0,217.0 194.8,217.4 194.5,217.8 194.2,218.2 193.7,218.6 193.0,219.0 192.1,219.4 191.0,219.8 189.7,220.2 188.2,220.7 186.4,221.1 184.6,221.5 182.6,221.9 180.7,222.3 178.9,222.7 177.2,223.1 175.9,223.5 174.9,223.9 174.3,224.3 174.3,224.7 174.6,225.1 175.4,225.5 176.3,225.9 177.3,226.3 178.2,226.7 178.8,227.1 178.9,227.5 178.4,227.9 177.4,228.3 175.8,228.7 173.8,229.1 171.5,229.5 169.1,229.9 166.7,230.3 164.3,230.7 162.2,231.1 160.4,231.5 159.1,232.0 158.4,232.4 158.5,232.8 159.6,233.2 161.5,233.6 164.3,234.0 167.8,234.4 171.7,234.8 175.7,235.2 179.5,235.6 183.0,236.0 186.0,236.4 188.5,236.8 190.5,237.2 192.0,237.6 193.2,238.0 194.1,238.4 194.8,238.8 195.4,239.2 195.8,239.6 196.1,240.0 196.3,240.4" fill="#2a8" opacity="0.5" stroke="#2a8" stroke-width="1"/>
<line x1="166.9" y1="230.30506616250685" x2="226.5" y2="230.30506616250685" stroke="#114" stroke-width="2"/>
<circle cx="196.66666666666669" cy="233.42568480551088" r="2.4" fill="#114"/>
<text x="196.66666666666669" y="208.7450946382869" text-anchor="middle" font-size="11">1.04</text>
<text x="196.66666666666669" y="376" text-anchor="middle" font-size="12">gemvT</text>
<polygon points="294.5,244.9 296.4,244.1 298.7,243.4 301.2,242.7 304.0,241.9 307.1,241.2 310.2,240.5 313.3,239.7 316.4,239.0 319.2,238.3 321.7,237.5 323.6,236.8 325.1,236.0 325.9,235.3 326.0,234.6 325.6,233.8 324.4,233.1 322.8,232.4 320.6,231.6 318.1,230.9 315.3,230.2 312.4,229.4 309.4,228.7 306.5,228.0 303.7,227.2 301.1,226.5 298.8,225.8 296.7,225.0 294.9,224.3 293.4,223.6 292.1,222.8 291.1,222.1 290.4,221.4 289.7,220.6 289.3,219.9 289.0,219.2 288.7,218.4 288.6,217.7 288.4,216.9 288.4,216.2 288.3,215.5 288.4,214.7 288.4,214.0 288.5,213.3 288.6,212.5 288.7,211.8 288.9,211.1 289.2,210.3 289.4,209.6 289.8,208.9 290.2,208.1 290.6,207.4 291.0,206.7 291.5,205.9 292.0,205.2 292.5,204.5 292.9,203.7 293.3,203.0 293.6,202.3 293.9,201.5 294.0,200.8 294.0,200.1 293.9,199.3 293.7,198.6 293.4,197.8 292.9,197.1 292.5,196.4 292.0,195.6 291.4,194.9 290.9,194.2 290.4,193.4 289.9,192.7 285.7,192.7 285.2,193.4 284.7,194.2 284.1,194.9 283.6,195.6 283.1,196.4 282.6,197.1 282.2,197.8 281.9,198.6 281.7,199.3 281.6,200.1 281.6,200.8 281.7,201.5 281.9,202.3 282.2,203.0 282.6,203.7 283.1,204.5 283.6,205.2 284.0,205.9 284.5,206.7 285.0,207.4 285.4,208.1 285.8,208.9 286.1,209.6 286.4,210.3 286.6,211.1 286.8,211.8 287.0,212.5 287.1,213.3 287.2,214.0 287.2,214.7 287.2,215.5 287.2,216.2 287.1,216.9 287.0,217.7 286.8,218.4 286.6,219.2 286.3,219.9 285.8,220.6 285.2,221.4 284.4,222.1 283.4,222.8 282.2,223.6 280.7,224.3 278.9,225.0 276.8,225.8 274.4,226.5 271.8,227.2 269.0,228.0 266.1,228.7 263.1,229.4 260.2,230.2 257.4,230.9 254.9,231.6 252.8,232.4 251.1,233.1 250.0,233.8 249.5,234.6 249.7,235.3 250.5,236.0 251.9,236.8 253.9,237.5 256.4,238.3 259.2,239.0 262.2,239.7 265.4,240.5 268.5,241.2 271.5,241.9 274.3,242.7 276.9,243.4 279.1,244.1 281.1,244.9" fill="#2a8" opacity="0.5" stroke="#2a8" stroke-width="1"/>
<line x1="249.6" y1="234.3094552131138" x2="325.9" y2="234.3094552131138" stroke="#114" stroke-width="2"/>
<circle cx="287.77777777777777" cy="237.3350189165726" r="2.4" fill="#114"/>
<text x="287.77777777777777" y="191.95006339023516" text-anchor="middle" font-size="11">1.01</text>
<text x="287.77777777777777" y="376" text-anchor="middle" font-size="12">ger</text>
<polygon points="392.4,243.0 394.9,242.1 397.7,241.1 400.5,240.2 403.3,239.2 406.1,238.3 408.8,237.3 411.2,236.4 413.3,235.4 415.0,234.4 416.2,233.5 416.9,232.5 417.2,231.6 416.9,230.6 416.2,229.7 415.1,228.7 413.6,227.8 411.9,226.8 410.0,225.9 407.9,224.9 405.8,223.9 403.7,223.0 401.6,222.0 399.6,221.1 397.7,220.1 396.0,219.2 394.4,218.2 393.0,217.3 391.7,216.3 390.7,215.4 389.8,214.4 389.1,213.5 388.6,212.5 388.2,211.5 388.0,210.6 387.9,209.6 388.0,208.7 388.1,207.7 388.2,206.8 388.4,205.8 388.6,204.9 388.7,203.9 388.8,203.0 388.8,202.0 388.8,201.1 388.7,200.1 388.6,199.1 388.4,198.2 388.3,197.2 388.1,196.3 388.0,195.3 388.0,194.4 388.1,193.4 388.1,192.5 388.3,191.5 388.5,190.6 388.7,189.6 388.8,188.6 388.9,187.7 389.0,186.7 388.9,185.8 388.8,184.8 388.5,183.9 388.1,182.9 387.6,182.0 387.0,181.0 386.3,180.1 385.5,179.1 384.8,178.2 384.0,177.2 383.3,176.2 382.6,175.3 375.2,175.3 374.5,176.2 373.8,177.2 373.0,178.2 372.2,179.1 371.5,180.1 370.8,181.0 370.2,182.0 369.7,182.9 369.3,183.9 369.0,184.8 368.8,185.8 368.8,186.7 368.8,187.7 369.0,188.6 369.1,189.6 369.3,190.6 369.5,191.5 369.6,192.5 369.7,193.4 369.8,194.4 369.7,195.3 369.6,196.3 369.5,197.2 369.4,198.2 369.2,199.1 369.1,200.1 369.0,201.1 369.0,202.0 369.0,203.0 369.1,203.9 369.2,204.9 369.4,205.8 369.6,206.8 369.7,207.7 369.8,208.7 369.9,209.6 369.8,210.6 369.6,211.5 369.2,212.5 368.7,213.5 368.0,214.4 367.1,215.4 366.0,216.3 364.8,217.3 363.4,218.2 361.8,219.2 360.0,220.1 358.2,221.1 356.2,222.0 354.1,223.0 352.0,223.9 349.9,224.9 347.8,225.9 345.9,226.8 344.1,227.8 342.7,228.7 341.6,229.7 340.9,230.6 340.6,231.6 340.9,232.5 341.6,233.5 342.8,234.4 344.5,235.4 346.6,236.4 349.0,237.3 351.6,238.3 354.4,239.2 357.3,240.2 360.1,241.1 362.8,242.1 365.4,243.0" fill="#2a8" opacity="0.5" stroke="#2a8" stroke-width="1"/>
<line x1="342.5" y1="228.83893615087376" x2="415.2" y2="228.83893615087376" stroke="#114" stroke-width="2"/>
<circle cx="378.8888888888889" cy="235.2666254051077" r="2.4" fill="#114"/>
<text x="378.8888888888889" y="176.04481895836426" text-anchor="middle" font-size="11">1.06</text>
<text x="378.8888888888889" y="376" text-anchor="middle" font-size="12">symv</text>
<polygon points="470.5,254.7 470.7,253.3 471.0,251.8 471.3,250.4 471.9,248.9 472.6,247.5 473.6,246.0 475.0,244.6 476.6,243.1 478.7,241.7 481.2,240.2 484.1,238.8 487.4,237.3 490.9,235.9 494.5,234.5 498.1,233.0 501.4,231.6 504.2,230.1 506.4,228.7 507.7,227.2 508.3,225.8 507.9,224.3 506.8,222.9 505.0,221.4 502.6,220.0 500.1,218.6 497.4,217.1 494.8,215.7 492.4,214.2 490.4,212.8 488.7,211.3 487.5,209.9 486.6,208.4 485.9,207.0 485.6,205.5 485.4,204.1 485.3,202.6 485.2,201.2 485.1,199.8 485.0,198.3 484.7,196.9 484.4,195.4 483.8,194.0 483.2,192.5 482.4,191.1 481.5,189.6 480.5,188.2 479.6,186.7 478.7,185.3 477.9,183.9 477.3,182.4 477.0,181.0 476.8,179.5 476.9,178.1 477.2,176.6 477.6,175.2 478.1,173.7 478.6,172.3 479.1,170.8 479.5,169.4 479.7,167.9 479.7,166.5 479.4,165.1 479.0,163.6 478.3,162.2 477.5,160.7 476.7,159.3 475.7,157.8 474.8,156.4 473.9,154.9 473.1,153.5 472.4,152.0 467.6,152.0 466.9,153.5 466.1,154.9 465.2,156.4 464.3,157.8 463.3,159.3 462.5,160.7 461.7,162.2 461.0,163.6 460.6,165.1 460.3,166.5 460.3,167.9 460.5,169.4 460.9,170.8 461.4,172.3 461.9,173.7 462.4,175.2 462.8,176.6 463.1,178.1 463.2,179.5 463.0,181.0 462.7,182.4 462.1,183.9 461.3,185.3 460.4,186.7 459.5,188.2 458.5,189.6 457.6,191.1 456.8,192.5 456.2,194.0 455.6,195.4 455.3,196.9 455.0,198.3 454.9,199.8 454.8,201.2 454.7,202.6 454.6,204.1 454.4,205.5 454.1,207.0 453.4,208.4 452.5,209.9 451.3,211.3 449.6,212.8 447.6,214.2 445.2,215.7 442.6,217.1 439.9,218.6 437.4,220.0 435.0,221.4 433.2,222.9 432.1,224.3 431.7,225.8 432.3,227.2 433.6,228.7 435.8,230.1 438.6,231.6 441.9,233.0 445.5,234.5 449.1,235.9 452.6,237.3 455.9,238.8 458.8,240.2 461.3,241.7 463.4,243.1 465.0,244.6 466.4,246.0 467.4,247.5 468.1,248.9 468.7,250.4 469.0,251.8 469.3,253.3 469.5,254.7" fill="#2a8" opacity="0.5" stroke="#2a8" stroke-width="1"/>
<line x1="433.3" y1="222.83350769948805" x2="506.7" y2="222.83350769948805" stroke="#114" stroke-width="2"/>
<circle cx="470.0" cy="227.7020527169107" r="2.4" fill="#114"/>
<text x="470.0" y="156.17273242871514" text-anchor="middle" font-size="11">1.10</text>
<text x="470.0" y="376" text-anchor="middle" font-size="12">trmv</text>
<polygon points="573.6,239.8 576.3,238.4 579.3,237.0 582.3,235.6 585.4,234.2 588.5,232.8 591.4,231.3 594.0,229.9 596.1,228.5 597.8,227.1 598.9,225.7 599.4,224.2 599.2,222.8 598.5,221.4 597.3,220.0 595.5,218.6 593.5,217.1 591.2,215.7 588.8,214.3 586.3,212.9 584.0,211.5 581.8,210.0 579.8,208.6 578.1,207.2 576.7,205.8 575.6,204.4 574.8,203.0 574.3,201.5 574.0,200.1 573.9,198.7 573.9,197.3 574.0,195.9 574.1,194.4 574.3,193.0 574.5,191.6 574.6,190.2 574.7,188.8 574.8,187.3 574.8,185.9 574.8,184.5 574.9,183.1 574.9,181.7 574.9,180.2 575.0,178.8 575.2,177.4 575.3,176.0 575.5,174.6 575.7,173.2 575.9,171.7 576.0,170.3 576.1,168.9 576.1,167.5 576.0,166.1 575.7,164.6 575.3,163.2 574.7,161.8 574.0,160.4 573.1,159.0 572.1,157.5 571.1,156.1 570.0,154.7 568.9,153.3 567.9,151.9 566.9,150.4 566.0,149.0 565.1,147.6 564.4,146.2 563.7,144.8 563.2,143.4 562.7,141.9 562.4,140.5 562.1,139.1 560.2,139.1 559.9,140.5 559.5,141.9 559.0,143.4 558.5,144.8 557.8,146.2 557.1,147.6 556.3,149.0 555.3,150.4 554.3,151.9 553.3,153.3 552.2,154.7 551.1,156.1 550.1,157.5 549.1,159.0 548.3,160.4 547.5,161.8 547.0,163.2 546.5,164.6 546.2,166.1 546.1,167.5 546.1,168.9 546.2,170.3 546.3,171.7 546.5,173.2 546.7,174.6 546.9,176.0 547.1,177.4 547.2,178.8 547.3,180.2 547.3,181.7 547.4,183.1 547.4,184.5 547.4,185.9 547.4,187.3 547.5,188.8 547.6,190.2 547.7,191.6 547.9,193.0 548.1,194.4 548.2,195.9 548.3,197.3 548.4,198.7 548.2,200.1 547.9,201.5 547.4,203.0 546.6,204.4 545.5,205.8 544.1,207.2 542.4,208.6 540.4,210.0 538.3,211.5 535.9,212.9 533.5,214.3 531.0,215.7 528.7,217.1 526.7,218.6 525.0,220.0 523.7,221.4 523.0,222.8 522.8,224.2 523.3,225.7 524.4,227.1 526.1,228.5 528.3,229.9 530.9,231.3 533.7,232.8 536.8,234.2 539.9,235.6 543.0,237.0 545.9,238.4 548.6,239.8" fill="#2a8" opacity="0.5" stroke="#2a8" stroke-width="1"/>
<line x1="529.6" y1="216.5802623412118" x2="592.6" y2="216.5802623412118" stroke="#114" stroke-width="2"/>
<circle cx="561.1111111111111" cy="227.86651693315022" r="2.4" fill="#114"/>
<text x="561.1111111111111" y="143.04083699156547" text-anchor="middle" font-size="11">1.16</text>
<text x="561.1111111111111" y="376" text-anchor="middle" font-size="12">trsv</text>
<polygon points="663.9,261.4 666.3,258.5 668.9,255.5 671.6,252.5 674.4,249.5 677.2,246.5 679.9,243.6 682.4,240.6 684.6,237.6 686.6,234.6 688.2,231.7 689.3,228.7 690.1,225.7 690.5,222.7 690.5,219.7 690.1,216.8 689.4,213.8 688.4,210.8 687.1,207.8 685.7,204.9 684.0,201.9 682.3,198.9 680.4,195.9 678.4,192.9 676.4,190.0 674.5,187.0 672.5,184.0 670.8,181.0 669.1,178.1 667.7,175.1 666.4,172.1 665.4,169.1 664.7,166.1 664.1,163.2 663.8,160.2 663.7,157.2 663.6,154.2 663.7,151.3 663.7,148.3 663.7,145.3 663.7,142.3 663.5,139.3 663.3,136.4 662.9,133.4 662.5,130.4 662.1,127.4 661.6,124.4 661.2,121.5 660.8,118.5 660.6,115.5 660.5,112.5 660.5,109.6 660.7,106.6 661.0,103.6 661.3,100.6 661.7,97.6 662.1,94.7 662.4,91.7 662.6,88.7 662.7,85.7 662.7,82.8 662.4,79.8 662.0,76.8 661.5,73.8 660.8,70.8 660.0,67.9 659.2,64.9 658.3,61.9 657.5,58.9 656.7,56.0 655.9,53.0 655.2,50.0 649.2,50.0 648.5,53.0 647.8,56.0 647.0,58.9 646.1,61.9 645.2,64.9 644.4,67.9 643.6,70.8 643.0,73.8 642.4,76.8 642.0,79.8 641.8,82.8 641.7,85.7 641.8,88.7 642.0,91.7 642.4,94.7 642.7,97.6 643.1,100.6 643.5,103.6 643.8,106.6 643.9,109.6 644.0,112.5 643.9,115.5 643.6,118.5 643.3,121.5 642.8,124.4 642.4,127.4 641.9,130.4 641.5,133.4 641.2,136.4 640.9,139.3 640.8,142.3 640.7,145.3 640.7,148.3 640.8,151.3 640.8,154.2 640.8,157.2 640.6,160.2 640.3,163.2 639.8,166.1 639.0,169.1 638.0,172.1 636.8,175.1 635.3,178.1 633.7,181.0 631.9,184.0 630.0,187.0 628.0,190.0 626.0,192.9 624.1,195.9 622.2,198.9 620.4,201.9 618.8,204.9 617.3,207.8 616.0,210.8 615.1,213.8 614.3,216.8 614.0,219.7 614.0,222.7 614.3,225.7 615.1,228.7 616.3,231.7 617.9,234.6 619.8,237.6 622.1,240.6 624.6,243.6 627.2,246.5 630.0,249.5 632.8,252.5 635.5,255.5 638.1,258.5 640.5,261.4" fill="#2a8" opacity="0.5" stroke="#2a8" stroke-width="1"/>
<line x1="618.0" y1="206.43904644247348" x2="686.5" y2="206.43904644247348" stroke="#114" stroke-width="2"/>
<circle cx="652.2222222222223" cy="237.1759382223485" r="2.4" fill="#114"/>
<text x="652.2222222222223" y="61.43396226415098" text-anchor="middle" font-size="11">1.24</text>
<text x="652.2222222222223" y="376" text-anchor="middle" font-size="12">spmv</text>
<polygon points="743.4,245.3 743.5,244.7 743.5,244.0 743.6,243.4 743.7,242.8 743.8,242.1 743.9,241.5 743.9,240.9 744.0,240.2 744.0,239.6 744.1,239.0 744.2,238.4 744.4,237.7 744.7,237.1 745.0,236.5 745.4,235.8 745.9,235.2 746.5,234.6 747.4,233.9 748.7,233.3 750.5,232.7 753.0,232.1 756.2,231.4 760.0,230.8 764.4,230.2 768.9,229.5 773.3,228.9 777.0,228.3 779.9,227.7 781.4,227.0 781.6,226.4 780.4,225.8 778.1,225.1 775.1,224.5 771.5,223.9 767.9,223.2 764.5,222.6 761.3,222.0 758.6,221.4 756.2,220.7 754.4,220.1 753.1,219.5 752.3,218.8 752.0,218.2 752.1,217.6 752.5,217.0 753.1,216.3 753.6,215.7 753.9,215.1 753.9,214.4 753.5,213.8 752.7,213.2 751.6,212.5 750.3,211.9 749.0,211.3 747.8,210.7 746.7,210.0 745.8,209.4 745.1,208.8 744.6,208.1 744.3,207.5 744.1,206.9 744.0,206.2 744.0,205.6 743.9,205.0 743.9,204.4 743.8,203.7 743.7,203.1 743.6,202.5 743.5,201.8 743.5,201.2 743.4,200.6 743.3,200.6 743.2,201.2 743.1,201.8 743.1,202.5 743.0,203.1 742.9,203.7 742.8,204.4 742.7,205.0 742.7,205.6 742.6,206.2 742.5,206.9 742.4,207.5 742.1,208.1 741.6,208.8 740.9,209.4 740.0,210.0 738.9,210.7 737.7,211.3 736.3,211.9 735.1,212.5 734.0,213.2 733.2,213.8 732.8,214.4 732.8,215.1 733.1,215.7 733.6,216.3 734.2,217.0 734.6,217.6 734.7,218.2 734.4,218.8 733.6,219.5 732.3,220.1 730.4,220.7 728.1,221.4 725.3,222.0 722.2,222.6 718.7,223.2 715.1,223.9 711.6,224.5 708.5,225.1 706.2,225.8 705.1,226.4 705.2,227.0 706.8,227.7 709.6,228.3 713.4,228.9 717.8,229.5 722.3,230.2 726.6,230.8 730.5,231.4 733.7,232.1 736.1,232.7 738.0,233.3 739.3,233.9 740.2,234.6 740.8,235.2 741.3,235.8 741.7,236.5 742.0,237.1 742.3,237.7 742.4,238.4 742.6,239.0 742.6,239.6 742.7,240.2 742.7,240.9 742.8,241.5 742.9,242.1 743.0,242.8 743.1,243.4 743.1,244.0 743.2,244.7 743.3,245.3" fill="#2a8" opacity="0.5" stroke="#2a8" stroke-width="1"/>
<line x1="706.1" y1="225.82377992094507" x2="780.6" y2="225.82377992094507" stroke="#114" stroke-width="2"/>
<circle cx="743.3333333333334" cy="228.9528060057112" r="2.4" fill="#114"/>
<text x="743.3333333333334" y="199.10676410285234" text-anchor="middle" font-size="11">1.08</text>
<text x="743.3333333333334" y="376" text-anchor="middle" font-size="12">gbmvN</text>
<polygon points="834.5,209.1 834.5,207.8 834.5,206.4 834.6,205.1 834.7,203.8 834.8,202.5 834.9,201.2 834.9,199.8 834.9,198.5 834.8,197.2 834.7,195.9 834.6,194.5 834.5,193.2 834.5,191.9 834.5,190.6 834.5,189.2 834.4,187.9 834.4,186.6 834.4,185.3 834.4,183.9 834.4,182.6 834.4,181.3 834.4,180.0 834.4,178.6 834.4,177.3 834.4,176.0 834.4,174.7 834.5,173.3 834.5,172.0 834.6,170.7 834.8,169.4 835.2,168.0 836.2,166.7 838.0,165.4 840.9,164.1 845.4,162.7 851.3,161.4 858.2,160.1 864.9,158.8 870.1,157.5 872.7,156.1 872.4,154.8 869.4,153.5 864.9,152.2 860.0,150.8 855.4,149.5 851.5,148.2 848.3,146.9 845.7,145.5 843.7,144.2 842.1,142.9 841.1,141.6 840.7,140.2 840.8,138.9 841.2,137.6 841.6,136.3 841.8,134.9 841.6,133.6 841.2,132.3 840.5,131.0 839.7,129.6 838.8,128.3 837.9,127.0 837.1,125.7 836.4,124.3 835.8,123.0 835.3,121.7 835.0,120.4 834.7,119.0 834.6,117.7 834.5,116.4 834.5,115.1 834.4,115.1 834.4,116.4 834.3,117.7 834.2,119.0 833.9,120.4 833.6,121.7 833.1,123.0 832.5,124.3 831.8,125.7 831.0,127.0 830.1,128.3 829.2,129.6 828.4,131.0 827.7,132.3 827.3,133.6 827.1,134.9 827.3,136.3 827.7,137.6 828.1,138.9 828.2,140.2 827.8,141.6 826.8,142.9 825.2,144.2 823.1,145.5 820.6,146.9 817.4,148.2 813.5,149.5 808.9,150.8 804.0,152.2 799.5,153.5 796.5,154.8 796.2,156.1 798.8,157.5 804.0,158.8 810.7,160.1 817.6,161.4 823.5,162.7 828.0,164.1 830.9,165.4 832.7,166.7 833.7,168.0 834.1,169.4 834.3,170.7 834.4,172.0 834.4,173.3 834.4,174.7 834.4,176.0 834.4,177.3 834.4,178.6 834.4,180.0 834.4,181.3 834.4,182.6 834.4,183.9 834.4,185.3 834.4,186.6 834.4,187.9 834.4,189.2 834.4,190.6 834.4,191.9 834.3,193.2 834.3,194.5 834.2,195.9 834.1,197.2 834.0,198.5 834.0,199.8 834.0,201.2 834.1,202.5 834.2,203.8 834.3,205.1 834.3,206.4 834.4,207.8 834.4,209.1" fill="#2a8" opacity="0.5" stroke="#2a8" stroke-width="1"/>
<line x1="796.6" y1="154.7637731662594" x2="872.3" y2="154.7637731662594" stroke="#114" stroke-width="2"/>
<circle cx="834.4444444444445" cy="157.41249099359965" r="2.4" fill="#114"/>
<text x="834.4444444444445" y="118.36988408280976" text-anchor="middle" font-size="11">1.66</text>
<text x="834.4444444444445" y="376" text-anchor="middle" font-size="12">sbmv</text>
<text x="450.0" y="428" text-anchor="middle" font-size="11" fill="#666">violin = ratio distribution over sizes · line = median · dark dot = worst size · green = every size ≥ gate</text>
</svg>
