<svg xmlns="http://www.w3.org/2000/svg" width="900" height="460" font-family="sans-serif">
<rect width="900" height="460" fill="white"/>
<text x="450.0" y="28" text-anchor="middle" font-size="18" font-weight="bold">BLAS-3: PureBLAS / OpenBLAS (AVX-512, 1 thread, Float64)</text>
<line x1="62" y1="400.0" x2="768" y2="400.0" stroke="#eee"/>
<text x="54" y="404.0" text-anchor="end" font-size="11" fill="#666">0.5×</text>
<line x1="62" y1="324.36777535980235" x2="768" y2="324.36777535980235" stroke="#eee"/>
<text x="54" y="328.36777535980235" text-anchor="end" font-size="11" fill="#666">0.7×</text>
<line x1="62" y1="244.19438645142492" x2="768" y2="244.19438645142492" stroke="#eee"/>
<text x="54" y="248.19438645142492" text-anchor="end" font-size="11" fill="#666">1.0×</text>
<line x1="62" y1="153.05394512365638" x2="768" y2="153.05394512365638" stroke="#eee"/>
<text x="54" y="157.05394512365638" text-anchor="end" font-size="11" fill="#666">1.5×</text>
<line x1="62" y1="88.3887729028498" x2="768" y2="88.3887729028498" stroke="#eee"/>
<text x="54" y="92.3887729028498" text-anchor="end" font-size="11" fill="#666">2.0×</text>
<line x1="62.0" y1="50" x2="62.0" y2="400" stroke="#f4f4f4"/>
<text x="62.0" y="418" text-anchor="middle" font-size="11" fill="#444">8</text>
<line x1="238.5" y1="50" x2="238.5" y2="400" stroke="#f4f4f4"/>
<text x="238.5" y="418" text-anchor="middle" font-size="11" fill="#444">32</text>
<line x1="415.0" y1="50" x2="415.0" y2="400" stroke="#f4f4f4"/>
<text x="415.0" y="418" text-anchor="middle" font-size="11" fill="#444">128</text>
<line x1="503.25" y1="50" x2="503.25" y2="400" stroke="#f4f4f4"/>
<text x="503.25" y="418" text-anchor="middle" font-size="11" fill="#444">256</text>
<line x1="591.5" y1="50" x2="591.5" y2="400" stroke="#f4f4f4"/>
<text x="591.5" y="418" text-anchor="middle" font-size="11" fill="#444">512</text>
<line x1="679.75" y1="50" x2="679.75" y2="400" stroke="#f4f4f4"/>
<text x="679.75" y="418" text-anchor="middle" font-size="11" fill="#444">1024</text>
<line x1="768.0" y1="50" x2="768.0" y2="400" stroke="#f4f4f4"/>
<text x="768.0" y="418" text-anchor="middle" font-size="11" fill="#444">2048</text>
<line x1="62" y1="244.19438645142492" x2="768" y2="244.19438645142492" stroke="#888"/>
<line x1="62" y1="253.37035380855514" x2="768" y2="253.37035380855514" stroke="#d33" stroke-width="1.5" stroke-dasharray="6 4"/>
<text x="66" y="248.37035380855514" font-size="11" fill="#d33">0.96× gate</text>
<polygon points="62.0,154.1 238.5,231.9 415.0,188.0 503.2,226.1 591.5,239.8 679.8,239.7 768.0,221.9 768.0,222.5 679.8,241.5 591.5,242.7 503.2,239.6 415.0,203.9 238.5,242.4 62.0,169.1" fill="#1f77b4" opacity="0.14" stroke="none"/>
<polyline points="62.0,159.2 238.5,235.0 415.0,194.3 503.2,230.5 591.5,241.8 679.8,240.8 768.0,222.1" fill="none" stroke="#1f77b4" stroke-width="2"/>
<circle cx="62.0" cy="159.2" r="3" fill="#1f77b4"/>
<circle cx="238.5" cy="235.0" r="3" fill="#1f77b4"/>
<circle cx="415.0" cy="194.3" r="3" fill="#1f77b4"/>
<circle cx="503.2" cy="230.5" r="3" fill="#1f77b4"/>
<circle cx="591.5" cy="241.8" r="3" fill="#1f77b4"/>
<circle cx="679.8" cy="240.8" r="3" fill="#1f77b4"/>
<circle cx="768.0" cy="222.1" r="3" fill="#1f77b4"/>
<line x1="782" y1="56" x2="802" y2="56" stroke="#1f77b4" stroke-width="3"/>
<text x="806" y="60" font-size="12">gemm</text>
<polygon points="62.0,118.0 238.5,165.4 415.0,205.9 503.2,207.4 591.5,215.7 679.8,217.3 768.0,213.3 768.0,215.1 679.8,217.7 591.5,216.2 503.2,211.1 415.0,207.2 238.5,166.3 62.0,121.4" fill="#d62728" opacity="0.14" stroke="none"/>
<polyline points="62.0,120.5 238.5,165.8 415.0,206.4 503.2,208.4 591.5,216.0 679.8,217.5 768.0,213.5" fill="none" stroke="#d62728" stroke-width="2"/>
<circle cx="62.0" cy="120.5" r="3" fill="#d62728"/>
<circle cx="238.5" cy="165.8" r="3" fill="#d62728"/>
<circle cx="415.0" cy="206.4" r="3" fill="#d62728"/>
<circle cx="503.2" cy="208.4" r="3" fill="#d62728"/>
<circle cx="591.5" cy="216.0" r="3" fill="#d62728"/>
<circle cx="679.8" cy="217.5" r="3" fill="#d62728"/>
<circle cx="768.0" cy="213.5" r="3" fill="#d62728"/>
<line x1="782" y1="74" x2="802" y2="74" stroke="#d62728" stroke-width="3"/>
<text x="806" y="78" font-size="12">zgemm</text>
<polygon points="62.0,209.0 238.5,173.7 415.0,205.5 503.2,258.7 591.5,242.1 679.8,240.7 768.0,247.4 768.0,247.8 679.8,241.6 591.5,244.0 503.2,264.8 415.0,220.7 238.5,183.0 62.0,211.8" fill="#2ca02c" opacity="0.14" stroke="none"/>
<polyline points="62.0,210.5 238.5,178.0 415.0,212.3 503.2,262.4 591.5,242.5 679.8,241.1 768.0,247.6" fill="none" stroke="#2ca02c" stroke-width="2"/>
<circle cx="62.0" cy="210.5" r="3" fill="#2ca02c"/>
<circle cx="238.5" cy="178.0" r="3" fill="#2ca02c"/>
<circle cx="415.0" cy="212.3" r="3" fill="#2ca02c"/>
<circle cx="503.2" cy="262.4" r="3" fill="#2ca02c"/>
<circle cx="591.5" cy="242.5" r="3" fill="#2ca02c"/>
<circle cx="679.8" cy="241.1" r="3" fill="#2ca02c"/>
<circle cx="768.0" cy="247.6" r="3" fill="#2ca02c"/>
<line x1="782" y1="92" x2="802" y2="92" stroke="#2ca02c" stroke-width="3"/>
<text x="806" y="96" font-size="12">symm</text>
<polygon points="62.0,130.7 238.5,157.7 415.0,181.4 503.2,239.2 591.5,166.9 679.8,239.7 768.0,116.2 768.0,233.1 679.8,242.4 591.5,229.9 503.2,254.6 415.0,210.7 238.5,225.9 62.0,146.0" fill="#9467bd" opacity="0.14" stroke="none"/>
<polyline points="62.0,131.0 238.5,174.5 415.0,205.0 503.2,243.1 591.5,224.5 679.8,241.7 768.0,197.0" fill="none" stroke="#9467bd" stroke-width="2"/>
<circle cx="62.0" cy="131.0" r="3" fill="#9467bd"/>
<circle cx="238.5" cy="174.5" r="3" fill="#9467bd"/>
<circle cx="415.0" cy="205.0" r="3" fill="#9467bd"/>
<circle cx="503.2" cy="243.1" r="3" fill="#9467bd"/>
<circle cx="591.5" cy="224.5" r="3" fill="#9467bd"/>
<circle cx="679.8" cy="241.7" r="3" fill="#9467bd"/>
<circle cx="768.0" cy="197.0" r="3" fill="#9467bd"/>
<line x1="782" y1="110" x2="802" y2="110" stroke="#9467bd" stroke-width="3"/>
<text x="806" y="114" font-size="12">syrk</text>
<polygon points="62.0,111.8 238.5,184.2 415.0,189.4 503.2,201.1 591.5,228.3 679.8,245.9 768.0,251.1 768.0,251.4 679.8,248.3 591.5,230.5 503.2,211.1 415.0,198.6 238.5,192.9 62.0,156.6" fill="#ff7f0e" opacity="0.14" stroke="none"/>
<polyline points="62.0,154.6 238.5,185.2 415.0,193.4 503.2,202.9 591.5,229.7 679.8,247.8 768.0,251.3" fill="none" stroke="#ff7f0e" stroke-width="2"/>
<circle cx="62.0" cy="154.6" r="3" fill="#ff7f0e"/>
<circle cx="238.5" cy="185.2" r="3" fill="#ff7f0e"/>
<circle cx="415.0" cy="193.4" r="3" fill="#ff7f0e"/>
<circle cx="503.2" cy="202.9" r="3" fill="#ff7f0e"/>
<circle cx="591.5" cy="229.7" r="3" fill="#ff7f0e"/>
<circle cx="679.8" cy="247.8" r="3" fill="#ff7f0e"/>
<circle cx="768.0" cy="251.3" r="3" fill="#ff7f0e"/>
<line x1="782" y1="128" x2="802" y2="128" stroke="#ff7f0e" stroke-width="3"/>
<text x="806" y="132" font-size="12">syr2k</text>
<polygon points="62.0,209.4 238.5,206.0 415.0,208.2 503.2,215.9 591.5,243.8 679.8,243.5 768.0,254.4 768.0,254.9 679.8,247.2 591.5,245.5 503.2,222.1 415.0,217.7 238.5,232.8 62.0,238.3" fill="#17becf" opacity="0.14" stroke="none"/>
<polyline points="62.0,220.2 238.5,212.0 415.0,214.4 503.2,218.9 591.5,244.3 679.8,245.8 768.0,254.6" fill="none" stroke="#17becf" stroke-width="2"/>
<circle cx="62.0" cy="220.2" r="3" fill="#17becf"/>
<circle cx="238.5" cy="212.0" r="3" fill="#17becf"/>
<circle cx="415.0" cy="214.4" r="3" fill="#17becf"/>
<circle cx="503.2" cy="218.9" r="3" fill="#17becf"/>
<circle cx="591.5" cy="244.3" r="3" fill="#17becf"/>
<circle cx="679.8" cy="245.8" r="3" fill="#17becf"/>
<circle cx="768.0" cy="254.6" r="3" fill="#17becf"/>
<line x1="782" y1="146" x2="802" y2="146" stroke="#17becf" stroke-width="3"/>
<text x="806" y="150" font-size="12">trmm</text>
<polygon points="62.0,128.2 238.5,105.6 415.0,78.2 503.2,91.3 591.5,174.4 679.8,202.7 768.0,229.5 768.0,236.4 679.8,203.5 591.5,175.4 503.2,95.7 415.0,84.9 238.5,108.4 62.0,155.4" fill="#8c564b" opacity="0.14" stroke="none"/>
<polyline points="62.0,137.3 238.5,107.1 415.0,81.4 503.2,93.7 591.5,175.2 679.8,203.0 768.0,232.6" fill="none" stroke="#8c564b" stroke-width="2"/>
<circle cx="62.0" cy="137.3" r="3" fill="#8c564b"/>
<circle cx="238.5" cy="107.1" r="3" fill="#8c564b"/>
<circle cx="415.0" cy="81.4" r="3" fill="#8c564b"/>
<circle cx="503.2" cy="93.7" r="3" fill="#8c564b"/>
<circle cx="591.5" cy="175.2" r="3" fill="#8c564b"/>
<circle cx="679.8" cy="203.0" r="3" fill="#8c564b"/>
<circle cx="768.0" cy="232.6" r="3" fill="#8c564b"/>
<line x1="782" y1="164" x2="802" y2="164" stroke="#8c564b" stroke-width="3"/>
<text x="806" y="168" font-size="12">trsm</text>
<text x="415.0" y="450" text-anchor="middle" font-size="11" fill="#666">matrix size n (log) · y = median ratio (log) · dashed = the 0.96× gate</text>
</svg>
