<svg xmlns="http://www.w3.org/2000/svg" width="900" height="440" font-family="sans-serif">
<rect width="900" height="440" fill="white"/>
<text x="450.0" y="28" text-anchor="middle" font-size="18" font-weight="bold">Complex BLAS-2: PureBLAS / OpenBLAS (AVX-512, 1 thread, ComplexF64)</text>
<line x1="60" y1="358.0" x2="880" y2="358.0" stroke="#eee"/>
<text x="52" y="362.0" text-anchor="end" font-size="11" fill="#666">0×</text>
<line x1="60" y1="292.3866884530605" x2="880" y2="292.3866884530605" stroke="#eee"/>
<text x="52" y="296.3866884530605" text-anchor="end" font-size="11" fill="#666">0.5×</text>
<line x1="60" y1="226.77337690612103" x2="880" y2="226.77337690612103" stroke="#eee"/>
<text x="52" y="230.77337690612103" text-anchor="end" font-size="11" fill="#666">1×</text>
<line x1="60" y1="161.16006535918154" x2="880" y2="161.16006535918154" stroke="#eee"/>
<text x="52" y="165.16006535918154" text-anchor="end" font-size="11" fill="#666">1.5×</text>
<line x1="60" y1="226.77337690612103" x2="880" y2="226.77337690612103" stroke="#888" stroke-width="1"/>
<line x1="60" y1="232.0224418298762" x2="880" y2="232.0224418298762" stroke="#d33" stroke-width="1.5" stroke-dasharray="6 4"/>
<text x="880" y="227.0224418298762" text-anchor="end" font-size="11" fill="#d33">0.96× gate</text>
<polygon points="129.0,260.6 129.3,259.5 129.6,258.4 130.0,257.3 130.5,256.3 131.0,255.2 131.6,254.1 132.3,253.0 133.1,252.0 134.0,250.9 135.0,249.8 136.3,248.7 137.8,247.7 139.6,246.6 141.6,245.5 144.0,244.5 146.6,243.4 149.6,242.3 152.6,241.2 155.9,240.2 159.2,239.1 162.4,238.0 165.6,236.9 168.7,235.9 171.7,234.8 174.5,233.7 177.0,232.6 179.4,231.6 181.5,230.5 183.3,229.4 184.6,228.4 185.5,227.3 185.7,226.2 185.3,225.1 184.2,224.1 182.3,223.0 179.7,221.9 176.5,220.8 172.8,219.8 168.8,218.7 164.7,217.6 160.6,216.5 156.8,215.5 153.2,214.4 150.1,213.3 147.6,212.3 145.5,211.2 144.0,210.1 143.0,209.0 142.5,208.0 142.2,206.9 142.2,205.8 142.4,204.7 142.6,203.7 142.8,202.6 143.0,201.5 143.1,200.4 143.0,199.4 142.8,198.3 142.5,197.2 142.0,196.2 141.2,195.1 140.4,194.0 139.3,192.9 138.1,191.9 136.8,190.8 135.5,189.7 134.2,188.6 133.0,187.6 132.0,186.5 131.0,185.4 130.3,184.4 126.4,184.4 125.6,185.4 124.7,186.5 123.6,187.6 122.4,188.6 121.1,189.7 119.8,190.8 118.6,191.9 117.4,192.9 116.3,194.0 115.4,195.1 114.7,196.2 114.2,197.2 113.8,198.3 113.6,199.4 113.6,200.4 113.7,201.5 113.9,202.6 114.1,203.7 114.3,204.7 114.5,205.8 114.5,206.9 114.2,208.0 113.6,209.0 112.6,210.1 111.1,211.2 109.1,212.3 106.5,213.3 103.5,214.4 99.9,215.5 96.0,216.5 91.9,217.6 87.8,218.7 83.8,219.8 80.2,220.8 77.0,221.9 74.4,223.0 72.5,224.1 71.4,225.1 70.9,226.2 71.2,227.3 72.0,228.4 73.4,229.4 75.2,230.5 77.3,231.6 79.6,232.6 82.2,233.7 85.0,234.8 87.9,235.9 91.0,236.9 94.2,238.0 97.5,239.1 100.8,240.2 104.0,241.2 107.1,242.3 110.0,243.4 112.7,244.5 115.0,245.5 117.1,246.6 118.9,247.7 120.4,248.7 121.6,249.8 122.7,250.9 123.6,252.0 124.4,253.0 125.1,254.1 125.7,255.2 126.2,256.3 126.7,257.3 127.1,258.4 127.4,259.5 127.7,260.6" fill="#d33" opacity="0.5" stroke="#d33" stroke-width="1"/>
<line x1="71.1" y1="225.47319064346345" x2="185.5" y2="225.47319064346345" stroke="#114" stroke-width="2"/>
<circle cx="128.33333333333331" cy="236.29896850286232" r="2.4" fill="#114"/>
<text x="128.33333333333331" y="185.93645531828528" text-anchor="middle" font-size="11">1.01</text>
<text x="128.33333333333331" y="376" text-anchor="middle" font-size="12">zgemvN</text>
<polygon points="269.3,246.4 270.6,245.3 272.2,244.3 274.1,243.2 276.4,242.1 278.8,241.0 281.6,240.0 284.6,238.9 287.7,237.8 291.0,236.7 294.3,235.7 297.6,234.6 300.7,233.5 303.8,232.4 306.6,231.4 309.1,230.3 311.4,229.2 313.5,228.2 315.2,227.1 316.8,226.0 318.1,224.9 319.2,223.9 320.2,222.8 321.0,221.7 321.6,220.6 322.1,219.6 322.4,218.5 322.4,217.4 322.1,216.4 321.5,215.3 320.6,214.2 319.3,213.1 317.5,212.1 315.5,211.0 313.1,209.9 310.6,208.8 307.8,207.8 305.1,206.7 302.4,205.6 299.8,204.6 297.5,203.5 295.6,202.4 294.0,201.3 292.8,200.3 292.1,199.2 291.8,198.1 291.8,197.0 292.2,196.0 292.8,194.9 293.6,193.8 294.5,192.8 295.4,191.7 296.3,190.6 296.9,189.5 297.4,188.5 297.5,187.4 297.3,186.3 296.7,185.2 295.6,184.2 294.2,183.1 292.4,182.0 290.3,180.9 287.9,179.9 285.5,178.8 282.9,177.7 280.4,176.7 278.0,175.6 275.8,174.5 273.7,173.4 271.9,172.4 270.4,171.3 269.1,170.2 260.9,170.2 259.6,171.3 258.1,172.4 256.3,173.4 254.2,174.5 252.0,175.6 249.6,176.7 247.1,177.7 244.5,178.8 242.1,179.9 239.7,180.9 237.6,182.0 235.8,183.1 234.4,184.2 233.3,185.2 232.7,186.3 232.5,187.4 232.6,188.5 233.1,189.5 233.7,190.6 234.6,191.7 235.5,192.8 236.4,193.8 237.2,194.9 237.8,196.0 238.2,197.0 238.2,198.1 237.9,199.2 237.2,200.3 236.0,201.3 234.4,202.4 232.5,203.5 230.2,204.6 227.6,205.6 224.9,206.7 222.2,207.8 219.4,208.8 216.9,209.9 214.5,211.0 212.5,212.1 210.7,213.1 209.4,214.2 208.5,215.3 207.9,216.4 207.6,217.4 207.6,218.5 207.9,219.6 208.4,220.6 209.0,221.7 209.8,222.8 210.8,223.9 211.9,224.9 213.2,226.0 214.8,227.1 216.5,228.2 218.6,229.2 220.9,230.3 223.4,231.4 226.2,232.4 229.3,233.5 232.4,234.6 235.7,235.7 239.0,236.7 242.3,237.8 245.4,238.9 248.4,240.0 251.2,241.0 253.6,242.1 255.9,243.2 257.8,244.3 259.4,245.3 260.7,246.4" fill="#2a8" opacity="0.5" stroke="#2a8" stroke-width="1"/>
<line x1="209.9" y1="213.75639934445758" x2="320.1" y2="213.75639934445758" stroke="#114" stroke-width="2"/>
<circle cx="265.0" cy="231.63715234785622" r="2.4" fill="#114"/>
<text x="265.0" y="171.80352887582188" text-anchor="middle" font-size="11">1.10</text>
<text x="265.0" y="376" text-anchor="middle" font-size="12">zgemvC</text>
<polygon points="401.8,273.1 401.8,271.4 401.9,269.7 402.1,267.9 402.2,266.2 402.3,264.4 402.4,262.7 402.5,260.9 402.4,259.2 402.3,257.4 402.2,255.7 402.1,254.0 401.9,252.2 401.8,250.5 401.8,248.7 401.8,247.0 401.9,245.2 402.1,243.5 402.4,241.7 402.9,240.0 403.8,238.2 404.9,236.5 406.4,234.8 408.2,233.0 410.4,231.3 412.8,229.5 415.4,227.8 418.2,226.0 421.2,224.3 424.7,222.5 428.6,220.8 433.1,219.1 438.2,217.3 443.8,215.6 449.3,213.8 454.2,212.1 457.7,210.3 459.1,208.6 457.9,206.8 454.4,205.1 449.0,203.4 442.5,201.6 435.9,199.9 429.8,198.1 424.6,196.4 420.8,194.6 418.1,192.9 416.5,191.1 415.7,189.4 415.4,187.6 415.3,185.9 414.9,184.2 414.3,182.4 413.2,180.7 411.9,178.9 410.4,177.2 409.1,175.4 408.1,173.7 407.3,171.9 406.8,170.2 406.5,168.5 406.2,166.7 405.9,165.0 405.4,163.2 404.8,161.5 404.2,159.7 403.5,158.0 403.0,156.2 402.5,154.5 402.2,152.7 402.0,151.0 401.8,149.3 401.5,149.3 401.4,151.0 401.1,152.7 400.8,154.5 400.3,156.2 399.8,158.0 399.2,159.7 398.5,161.5 397.9,163.2 397.5,165.0 397.1,166.7 396.8,168.5 396.5,170.2 396.0,171.9 395.3,173.7 394.2,175.4 392.9,177.2 391.4,178.9 390.1,180.7 389.1,182.4 388.4,184.2 388.1,185.9 387.9,187.6 387.6,189.4 386.8,191.1 385.2,192.9 382.6,194.6 378.7,196.4 373.6,198.1 367.5,199.9 360.8,201.6 354.4,203.4 348.9,205.1 345.4,206.8 344.3,208.6 345.6,210.3 349.1,212.1 354.0,213.8 359.6,215.6 365.1,217.3 370.3,219.1 374.8,220.8 378.7,222.5 382.1,224.3 385.2,226.0 388.0,227.8 390.6,229.5 392.9,231.3 395.1,233.0 396.9,234.8 398.4,236.5 399.6,238.2 400.4,240.0 400.9,241.7 401.3,243.5 401.5,245.2 401.5,247.0 401.5,248.7 401.5,250.5 401.4,252.2 401.3,254.0 401.1,255.7 401.0,257.4 400.9,259.2 400.9,260.9 400.9,262.7 401.0,264.4 401.1,266.2 401.3,267.9 401.4,269.7 401.5,271.4 401.6,273.1" fill="#2a8" opacity="0.5" stroke="#2a8" stroke-width="1"/>
<line x1="344.5" y1="207.6993781663296" x2="458.8" y2="207.6993781663296" stroke="#114" stroke-width="2"/>
<circle cx="401.66666666666663" cy="222.85170441080564" r="2.4" fill="#114"/>
<text x="401.66666666666663" y="155.46077284935296" text-anchor="middle" font-size="11">1.15</text>
<text x="401.66666666666663" y="376" text-anchor="middle" font-size="12">zgeru</text>
<polygon points="554.2,256.4 557.7,253.5 561.4,250.6 565.4,247.7 569.6,244.8 573.9,241.9 578.1,239.0 582.1,236.1 585.8,233.2 589.0,230.3 591.7,227.4 593.8,224.4 595.1,221.5 595.7,218.6 595.6,215.7 594.9,212.8 593.5,209.9 591.6,207.0 589.4,204.1 586.8,201.2 584.0,198.3 581.2,195.4 578.5,192.5 576.0,189.6 573.7,186.6 571.7,183.7 570.2,180.8 569.1,177.9 568.5,175.0 568.2,172.1 568.5,169.2 569.0,166.3 569.9,163.4 571.0,160.5 572.3,157.6 573.6,154.7 574.9,151.8 576.1,148.9 577.2,145.9 578.2,143.0 579.0,140.1 579.6,137.2 580.1,134.3 580.5,131.4 580.8,128.5 581.0,125.6 581.2,122.7 581.3,119.8 581.3,116.9 581.3,114.0 581.1,111.1 580.9,108.1 580.4,105.2 579.7,102.3 578.8,99.4 577.6,96.5 576.2,93.6 574.6,90.7 572.7,87.8 570.6,84.9 568.3,82.0 565.9,79.1 563.5,76.2 561.0,73.3 558.6,70.4 556.2,67.4 553.9,64.5 551.8,61.6 549.8,58.7 548.0,55.8 546.3,52.9 544.9,50.0 531.8,50.0 530.3,52.9 528.7,55.8 526.9,58.7 524.9,61.6 522.7,64.5 520.5,67.4 518.1,70.4 515.6,73.3 513.2,76.2 510.7,79.1 508.3,82.0 506.1,84.9 504.0,87.8 502.1,90.7 500.4,93.6 499.0,96.5 497.9,99.4 497.0,102.3 496.3,105.2 495.8,108.1 495.5,111.1 495.4,114.0 495.3,116.9 495.4,119.8 495.5,122.7 495.6,125.6 495.8,128.5 496.1,131.4 496.5,134.3 497.0,137.2 497.7,140.1 498.5,143.0 499.5,145.9 500.6,148.9 501.8,151.8 503.1,154.7 504.4,157.6 505.7,160.5 506.8,163.4 507.6,166.3 508.2,169.2 508.4,172.1 508.2,175.0 507.6,177.9 506.5,180.8 504.9,183.7 503.0,186.6 500.7,189.6 498.1,192.5 495.4,195.4 492.6,198.3 489.9,201.2 487.3,204.1 485.0,207.0 483.1,209.9 481.8,212.8 481.0,215.7 480.9,218.6 481.6,221.5 482.9,224.4 484.9,227.4 487.6,230.3 490.9,233.2 494.6,236.1 498.6,239.0 502.8,241.9 507.0,244.8 511.2,247.7 515.3,250.6 519.0,253.5 522.4,256.4" fill="#2a8" opacity="0.5" stroke="#2a8" stroke-width="1"/>
<line x1="503.2" y1="154.8264856722471" x2="573.5" y2="154.8264856722471" stroke="#114" stroke-width="2"/>
<circle cx="538.3333333333333" cy="226.67433809137822" r="2.4" fill="#114"/>
<text x="538.3333333333333" y="61.433962264150935" text-anchor="middle" font-size="11">1.55</text>
<text x="538.3333333333333" y="376" text-anchor="middle" font-size="12">zhemv</text>
<polygon points="676.8,265.6 677.7,263.2 678.9,260.8 680.5,258.4 682.5,256.0 685.0,253.6 688.0,251.2 691.6,248.8 695.6,246.4 700.0,244.0 704.6,241.5 709.2,239.1 713.6,236.7 717.8,234.3 721.4,231.9 724.6,229.5 727.1,227.1 729.0,224.7 730.5,222.3 731.5,219.9 732.1,217.5 732.4,215.1 732.4,212.7 732.1,210.3 731.5,207.9 730.4,205.5 728.9,203.0 727.0,200.6 724.7,198.2 722.1,195.8 719.2,193.4 716.2,191.0 713.3,188.6 710.5,186.2 707.9,183.8 705.6,181.4 703.8,179.0 702.2,176.6 701.0,174.2 700.2,171.8 699.5,169.4 699.0,166.9 698.6,164.5 698.3,162.1 698.0,159.7 697.7,157.3 697.4,154.9 697.0,152.5 696.6,150.1 696.1,147.7 695.5,145.3 694.8,142.9 694.0,140.5 693.0,138.1 692.0,135.7 690.8,133.3 689.5,130.9 688.2,128.4 686.8,126.0 685.5,123.6 684.2,121.2 683.0,118.8 681.9,116.4 680.8,114.0 679.9,111.6 679.0,109.2 678.3,106.8 677.6,104.4 677.0,102.0 676.6,99.6 676.2,97.2 675.9,94.8 674.1,94.8 673.8,97.2 673.4,99.6 673.0,102.0 672.4,104.4 671.7,106.8 671.0,109.2 670.1,111.6 669.2,114.0 668.1,116.4 667.0,118.8 665.8,121.2 664.5,123.6 663.2,126.0 661.8,128.4 660.5,130.9 659.2,133.3 658.0,135.7 657.0,138.1 656.0,140.5 655.2,142.9 654.5,145.3 653.9,147.7 653.4,150.1 653.0,152.5 652.6,154.9 652.3,157.3 652.0,159.7 651.7,162.1 651.4,164.5 651.0,166.9 650.5,169.4 649.8,171.8 649.0,174.2 647.8,176.6 646.2,179.0 644.4,181.4 642.1,183.8 639.5,186.2 636.7,188.6 633.8,191.0 630.8,193.4 627.9,195.8 625.3,198.2 623.0,200.6 621.1,203.0 619.6,205.5 618.5,207.9 617.9,210.3 617.6,212.7 617.6,215.1 617.9,217.5 618.5,219.9 619.5,222.3 621.0,224.7 622.9,227.1 625.4,229.5 628.6,231.9 632.2,234.3 636.4,236.7 640.8,239.1 645.4,241.5 650.0,244.0 654.4,246.4 658.4,248.8 662.0,251.2 665.0,253.6 667.5,256.0 669.5,258.4 671.1,260.8 672.3,263.2 673.2,265.6" fill="#2a8" opacity="0.5" stroke="#2a8" stroke-width="1"/>
<line x1="620.3" y1="204.1485291098507" x2="729.7" y2="204.1485291098507" stroke="#114" stroke-width="2"/>
<circle cx="675.0" cy="231.16388403351212" r="2.4" fill="#114"/>
<text x="675.0" y="105.50053544995222" text-anchor="middle" font-size="11">1.17</text>
<text x="675.0" y="376" text-anchor="middle" font-size="12">ztrmv</text>
<polygon points="812.0,284.7 812.2,283.3 812.4,281.9 812.7,280.5 813.0,279.2 813.3,277.8 813.5,276.4 813.7,275.0 813.9,273.6 814.0,272.2 814.0,270.8 813.9,269.4 813.8,268.0 813.7,266.7 813.6,265.3 813.6,263.9 813.6,262.5 813.8,261.1 814.2,259.7 814.8,258.3 815.6,256.9 816.8,255.5 818.2,254.1 820.1,252.8 822.3,251.4 824.9,250.0 828.0,248.6 831.3,247.2 834.9,245.8 838.6,244.4 842.2,243.0 845.8,241.6 849.1,240.2 852.3,238.9 855.3,237.5 858.3,236.1 861.1,234.7 863.7,233.3 866.0,231.9 867.8,230.5 868.9,229.1 869.1,227.7 868.1,226.4 866.1,225.0 863.1,223.6 859.2,222.2 854.8,220.8 850.2,219.4 845.5,218.0 841.2,216.6 837.4,215.2 834.4,213.8 832.1,212.5 830.6,211.1 830.0,209.7 830.0,208.3 830.4,206.9 831.0,205.5 831.4,204.1 831.4,202.7 830.8,201.3 829.6,199.9 827.8,198.6 825.6,197.2 823.3,195.8 820.9,194.4 818.7,193.0 816.8,191.6 815.3,190.2 814.1,188.8 813.2,187.4 812.6,186.0 810.7,186.0 810.1,187.4 809.3,188.8 808.1,190.2 806.5,191.6 804.6,193.0 802.5,194.4 800.1,195.8 797.7,197.2 795.5,198.6 793.7,199.9 792.5,201.3 792.0,202.7 792.0,204.1 792.4,205.5 792.9,206.9 793.4,208.3 793.4,209.7 792.7,211.1 791.3,212.5 789.0,213.8 785.9,215.2 782.1,216.6 777.8,218.0 773.2,219.4 768.5,220.8 764.1,222.2 760.3,223.6 757.2,225.0 755.2,226.4 754.3,227.7 754.4,229.1 755.5,230.5 757.3,231.9 759.6,233.3 762.3,234.7 765.1,236.1 768.0,237.5 771.0,238.9 774.2,240.2 777.6,241.6 781.1,243.0 784.7,244.4 788.4,245.8 792.0,247.2 795.4,248.6 798.4,250.0 801.0,251.4 803.3,252.8 805.1,254.1 806.6,255.5 807.7,256.9 808.6,258.3 809.1,259.7 809.5,261.1 809.7,262.5 809.8,263.9 809.7,265.3 809.7,266.7 809.5,268.0 809.4,269.4 809.4,270.8 809.4,272.2 809.4,273.6 809.6,275.0 809.8,276.4 810.1,277.8 810.4,279.2 810.7,280.5 810.9,281.9 811.1,283.3 811.3,284.7" fill="#d33" opacity="0.5" stroke="#d33" stroke-width="1"/>
<line x1="754.3" y1="227.65482980154493" x2="869.0" y2="227.65482980154493" stroke="#114" stroke-width="2"/>
<circle cx="811.6666666666666" cy="243.1218527053407" r="2.4" fill="#114"/>
<text x="811.6666666666666" y="189.8086820053464" text-anchor="middle" font-size="11">0.99</text>
<text x="811.6666666666666" y="376" text-anchor="middle" font-size="12">ztrsv</text>
<text x="450.0" y="428" text-anchor="middle" font-size="11" fill="#666">violin = ratio distribution over sizes · line = median · dark dot = worst size · green = every size ≥ gate</text>
</svg>
