<svg xmlns="http://www.w3.org/2000/svg" width="900" height="440" font-family="sans-serif">
<rect width="900" height="440" fill="white"/>
<text x="450.0" y="28" text-anchor="middle" font-size="18" font-weight="bold">Complex BLAS-2: PureBLAS / OpenBLAS (AVX2, 1 thread, ComplexF64)</text>
<line x1="60" y1="358.0" x2="880" y2="358.0" stroke="#eee"/>
<text x="52" y="362.0" text-anchor="end" font-size="11" fill="#666">0×</text>
<line x1="60" y1="280.65466677283456" x2="880" y2="280.65466677283456" stroke="#eee"/>
<text x="52" y="284.65466677283456" text-anchor="end" font-size="11" fill="#666">0.5×</text>
<line x1="60" y1="203.30933354566915" x2="880" y2="203.30933354566915" stroke="#eee"/>
<text x="52" y="207.30933354566915" text-anchor="end" font-size="11" fill="#666">1×</text>
<line x1="60" y1="125.96400031850371" x2="880" y2="125.96400031850371" stroke="#eee"/>
<text x="52" y="129.9640003185037" text-anchor="end" font-size="11" fill="#666">1.5×</text>
<line x1="60" y1="203.30933354566915" x2="880" y2="203.30933354566915" stroke="#888" stroke-width="1"/>
<line x1="60" y1="209.49696020384238" x2="880" y2="209.49696020384238" stroke="#d33" stroke-width="1.5" stroke-dasharray="6 4"/>
<text x="880" y="204.49696020384238" text-anchor="end" font-size="11" fill="#d33">0.96× gate</text>
<polygon points="132.1,263.8 133.3,262.5 134.7,261.3 136.4,260.1 138.4,258.9 140.7,257.7 143.3,256.5 146.1,255.3 149.3,254.0 152.6,252.8 156.1,251.6 159.7,250.4 163.2,249.2 166.8,248.0 170.1,246.8 173.3,245.5 176.2,244.3 178.8,243.1 181.0,241.9 182.8,240.7 184.2,239.5 185.2,238.3 185.7,237.1 185.7,235.8 185.3,234.6 184.3,233.4 182.9,232.2 180.9,231.0 178.5,229.8 175.7,228.6 172.5,227.3 169.0,226.1 165.3,224.9 161.6,223.7 157.8,222.5 154.2,221.3 150.9,220.1 147.9,218.8 145.2,217.6 143.1,216.4 141.4,215.2 140.3,214.0 139.6,212.8 139.4,211.6 139.7,210.3 140.3,209.1 141.2,207.9 142.5,206.7 143.9,205.5 145.5,204.3 147.2,203.1 148.9,201.9 150.6,200.6 152.1,199.4 153.4,198.2 154.5,197.0 155.2,195.8 155.6,194.6 155.7,193.4 155.3,192.1 154.5,190.9 153.3,189.7 151.9,188.5 150.1,187.3 148.2,186.1 146.1,184.9 143.9,183.6 141.8,182.4 139.8,181.2 137.9,180.0 136.1,178.8 134.6,177.6 122.1,177.6 120.6,178.8 118.8,180.0 116.9,181.2 114.9,182.4 112.7,183.6 110.6,184.9 108.5,186.1 106.5,187.3 104.8,188.5 103.3,189.7 102.2,190.9 101.4,192.1 101.0,193.4 101.0,194.6 101.4,195.8 102.2,197.0 103.3,198.2 104.6,199.4 106.1,200.6 107.8,201.9 109.5,203.1 111.1,204.3 112.8,205.5 114.2,206.7 115.4,207.9 116.4,209.1 117.0,210.3 117.2,211.6 117.0,212.8 116.4,214.0 115.2,215.2 113.6,216.4 111.4,217.6 108.8,218.8 105.8,220.1 102.4,221.3 98.8,222.5 95.1,223.7 91.3,224.9 87.7,226.1 84.2,227.3 81.0,228.6 78.2,229.8 75.7,231.0 73.8,232.2 72.3,233.4 71.4,234.6 70.9,235.8 71.0,237.1 71.5,238.3 72.4,239.5 73.8,240.7 75.6,241.9 77.9,243.1 80.4,244.3 83.3,245.5 86.5,246.8 89.9,248.0 93.4,249.2 97.0,250.4 100.6,251.6 104.1,252.8 107.4,254.0 110.5,255.3 113.4,256.5 116.0,257.7 118.3,258.9 120.3,260.1 122.0,261.3 123.4,262.5 124.5,263.8" fill="#d33" opacity="0.5" stroke="#d33" stroke-width="1"/>
<line x1="76.3" y1="230.6940012097591" x2="180.4" y2="230.6940012097591" stroke="#114" stroke-width="2"/>
<circle cx="128.33333333333331" cy="247.94857586866272" r="2.4" fill="#114"/>
<text x="128.33333333333331" y="180.16396135013883" text-anchor="middle" font-size="11">0.82</text>
<text x="128.33333333333331" y="376" text-anchor="middle" font-size="12">zgemvN</text>
<polygon points="271.6,239.0 273.2,238.2 274.9,237.3 276.6,236.4 278.2,235.5 279.7,234.7 281.0,233.8 282.0,232.9 282.6,232.0 282.8,231.2 282.6,230.3 282.2,229.4 281.4,228.5 280.5,227.7 279.7,226.8 279.0,225.9 278.5,225.0 278.5,224.2 279.1,223.3 280.2,222.4 281.9,221.5 284.4,220.6 287.4,219.8 291.0,218.9 295.0,218.0 299.2,217.1 303.6,216.3 307.9,215.4 311.9,214.5 315.4,213.6 318.3,212.8 320.5,211.9 321.9,211.0 322.4,210.1 322.1,209.3 320.9,208.4 319.0,207.5 316.6,206.6 313.7,205.8 310.6,204.9 307.4,204.0 304.3,203.1 301.4,202.2 298.9,201.4 297.0,200.5 295.6,199.6 294.8,198.7 294.5,197.9 294.8,197.0 295.5,196.1 296.5,195.2 297.6,194.4 298.7,193.5 299.6,192.6 300.2,191.7 300.4,190.9 300.1,190.0 299.1,189.1 297.7,188.2 295.7,187.3 293.3,186.5 290.5,185.6 287.6,184.7 284.6,183.8 281.6,183.0 278.8,182.1 276.3,181.2 274.0,180.3 272.0,179.5 270.4,178.6 269.0,177.7 267.9,176.8 262.1,176.8 261.0,177.7 259.6,178.6 258.0,179.5 256.0,180.3 253.7,181.2 251.2,182.1 248.4,183.0 245.4,183.8 242.4,184.7 239.5,185.6 236.7,186.5 234.3,187.3 232.3,188.2 230.9,189.1 229.9,190.0 229.6,190.9 229.8,191.7 230.4,192.6 231.3,193.5 232.4,194.4 233.5,195.2 234.5,196.1 235.2,197.0 235.5,197.9 235.2,198.7 234.4,199.6 233.0,200.5 231.1,201.4 228.6,202.2 225.7,203.1 222.6,204.0 219.4,204.9 216.3,205.8 213.4,206.6 211.0,207.5 209.1,208.4 207.9,209.3 207.6,210.1 208.1,211.0 209.5,211.9 211.7,212.8 214.6,213.6 218.1,214.5 222.1,215.4 226.4,216.3 230.8,217.1 235.0,218.0 239.0,218.9 242.6,219.8 245.6,220.6 248.1,221.5 249.8,222.4 250.9,223.3 251.5,224.2 251.5,225.0 251.0,225.9 250.3,226.8 249.5,227.7 248.6,228.5 247.8,229.4 247.4,230.3 247.2,231.2 247.4,232.0 248.0,232.9 249.0,233.8 250.3,234.7 251.8,235.5 253.4,236.4 255.1,237.3 256.8,238.2 258.4,239.0" fill="#d33" opacity="0.5" stroke="#d33" stroke-width="1"/>
<line x1="210.3" y1="207.7667233608215" x2="319.7" y2="207.7667233608215" stroke="#114" stroke-width="2"/>
<circle cx="265.0" cy="231.9053756009302" r="2.4" fill="#114"/>
<text x="265.0" y="177.10246047586608" text-anchor="middle" font-size="11">0.97</text>
<text x="265.0" y="376" text-anchor="middle" font-size="12">zgemvC</text>
<polygon points="402.0,241.5 402.0,240.0 402.1,238.5 402.2,237.0 402.4,235.4 402.5,233.9 402.8,232.4 403.1,230.9 403.5,229.4 404.1,227.8 405.1,226.3 406.4,224.8 408.1,223.3 410.5,221.8 413.4,220.2 417.1,218.7 421.4,217.2 426.4,215.7 431.8,214.2 437.4,212.7 443.0,211.1 448.2,209.6 452.7,208.1 456.2,206.6 458.3,205.1 459.1,203.5 458.3,202.0 456.1,200.5 452.7,199.0 448.3,197.5 443.3,195.9 438.1,194.4 432.9,192.9 428.2,191.4 424.0,189.9 420.5,188.3 417.8,186.8 415.9,185.3 414.7,183.8 414.1,182.3 414.0,180.8 414.1,179.2 414.4,177.7 414.6,176.2 414.7,174.7 414.6,173.2 414.2,171.6 413.6,170.1 412.8,168.6 411.9,167.1 411.1,165.6 410.3,164.0 409.8,162.5 409.5,161.0 409.6,159.5 409.9,158.0 410.5,156.4 411.2,154.9 412.1,153.4 412.8,151.9 413.5,150.4 413.8,148.8 413.9,147.3 413.6,145.8 413.0,144.3 412.1,142.8 411.0,141.3 409.7,139.7 408.4,138.2 407.2,136.7 406.0,135.2 405.0,133.7 398.4,133.7 397.3,135.2 396.2,136.7 394.9,138.2 393.6,139.7 392.3,141.3 391.2,142.8 390.3,144.3 389.7,145.8 389.4,147.3 389.5,148.8 389.9,150.4 390.5,151.9 391.3,153.4 392.1,154.9 392.9,156.4 393.4,158.0 393.8,159.5 393.8,161.0 393.5,162.5 393.0,164.0 392.2,165.6 391.4,167.1 390.5,168.6 389.7,170.1 389.1,171.6 388.7,173.2 388.6,174.7 388.7,176.2 388.9,177.7 389.2,179.2 389.4,180.8 389.2,182.3 388.6,183.8 387.4,185.3 385.5,186.8 382.8,188.3 379.4,189.9 375.2,191.4 370.4,192.9 365.2,194.4 360.0,195.9 355.0,197.5 350.7,199.0 347.2,200.5 345.0,202.0 344.3,203.5 345.0,205.1 347.2,206.6 350.6,208.1 355.1,209.6 360.3,211.1 365.9,212.7 371.6,214.2 377.0,215.7 381.9,217.2 386.2,218.7 389.9,220.2 392.9,221.8 395.2,223.3 397.0,224.8 398.3,226.3 399.2,227.8 399.8,229.4 400.3,230.9 400.6,232.4 400.8,233.9 401.0,235.4 401.1,237.0 401.2,238.5 401.3,240.0 401.4,241.5" fill="#2a8" opacity="0.5" stroke="#2a8" stroke-width="1"/>
<line x1="345.1" y1="201.97930325001832" x2="458.3" y2="201.97930325001832" stroke="#114" stroke-width="2"/>
<circle cx="401.66666666666663" cy="209.24862333174235" r="2.4" fill="#114"/>
<text x="401.66666666666663" y="138.3457426277185" text-anchor="middle" font-size="11">1.01</text>
<text x="401.66666666666663" y="376" text-anchor="middle" font-size="12">zgeru</text>
<polygon points="556.0,182.7 559.5,180.8 563.3,179.0 567.3,177.2 571.4,175.4 575.5,173.6 579.6,171.8 583.4,170.0 586.8,168.2 589.8,166.4 592.2,164.6 593.9,162.8 594.9,161.0 595.2,159.2 594.8,157.4 593.7,155.6 592.1,153.8 590.0,152.0 587.5,150.2 584.8,148.4 581.9,146.6 579.1,144.8 576.4,143.0 573.9,141.2 571.6,139.4 569.7,137.6 568.2,135.8 567.0,134.0 566.3,132.2 565.8,130.4 565.7,128.6 565.9,126.8 566.3,125.0 566.9,123.2 567.6,121.4 568.4,119.6 569.2,117.8 570.2,116.0 571.2,114.2 572.4,112.4 573.6,110.6 575.0,108.8 576.6,107.0 578.3,105.2 580.2,103.4 582.2,101.6 584.4,99.8 586.6,98.0 588.7,96.2 590.8,94.4 592.6,92.6 594.1,90.8 595.2,89.0 595.7,87.2 595.7,85.4 595.1,83.6 593.9,81.8 592.1,80.0 589.7,78.2 586.8,76.4 583.5,74.6 579.9,72.8 576.1,71.0 572.1,69.2 568.2,67.4 564.4,65.6 560.7,63.8 557.3,62.0 554.2,60.2 551.5,58.4 549.0,56.6 546.9,54.8 529.8,54.8 527.7,56.6 525.2,58.4 522.4,60.2 519.3,62.0 515.9,63.8 512.3,65.6 508.4,67.4 504.5,69.2 500.6,71.0 496.8,72.8 493.1,74.6 489.8,76.4 487.0,78.2 484.6,80.0 482.7,81.8 481.5,83.6 480.9,85.4 480.9,87.2 481.5,89.0 482.6,90.8 484.1,92.6 485.9,94.4 487.9,96.2 490.1,98.0 492.3,99.8 494.4,101.6 496.5,103.4 498.4,105.2 500.1,107.0 501.6,108.8 503.0,110.6 504.3,112.4 505.4,114.2 506.5,116.0 507.4,117.8 508.3,119.6 509.1,121.4 509.8,123.2 510.4,125.0 510.8,126.8 510.9,128.6 510.8,130.4 510.4,132.2 509.6,134.0 508.5,135.8 507.0,137.6 505.1,139.4 502.8,141.2 500.3,143.0 497.6,144.8 494.7,146.6 491.9,148.4 489.2,150.2 486.7,152.0 484.6,153.8 482.9,155.6 481.9,157.4 481.5,159.2 481.8,161.0 482.8,162.8 484.5,164.6 486.9,166.4 489.8,168.2 493.3,170.0 497.1,171.8 501.1,173.6 505.3,175.4 509.4,177.2 513.4,179.0 517.2,180.8 520.7,182.7" fill="#2a8" opacity="0.5" stroke="#2a8" stroke-width="1"/>
<line x1="507.5" y1="117.96265927972765" x2="569.2" y2="117.96265927972765" stroke="#114" stroke-width="2"/>
<circle cx="538.3333333333333" cy="163.6387801876098" r="2.4" fill="#114"/>
<text x="538.3333333333333" y="61.43396226415098" text-anchor="middle" font-size="11">1.55</text>
<text x="538.3333333333333" y="376" text-anchor="middle" font-size="12">zhemv</text>
<polygon points="687.3,256.1 690.1,253.3 693.3,250.5 696.7,247.7 700.4,244.9 704.3,242.1 708.3,239.3 712.3,236.5 716.2,233.7 720.0,230.9 723.4,228.1 726.3,225.3 728.8,222.5 730.7,219.6 731.9,216.8 732.4,214.0 732.2,211.2 731.3,208.4 729.8,205.6 727.7,202.8 725.0,200.0 721.9,197.2 718.4,194.4 714.8,191.6 711.0,188.8 707.3,186.0 703.7,183.2 700.3,180.4 697.2,177.5 694.5,174.7 692.1,171.9 690.3,169.1 688.8,166.3 687.7,163.5 687.0,160.7 686.6,157.9 686.5,155.1 686.6,152.3 686.9,149.5 687.2,146.7 687.6,143.9 687.9,141.1 688.1,138.3 688.3,135.4 688.3,132.6 688.2,129.8 687.9,127.0 687.6,124.2 687.3,121.4 686.9,118.6 686.6,115.8 686.3,113.0 686.1,110.2 686.1,107.4 686.2,104.6 686.5,101.8 686.8,99.0 687.2,96.2 687.7,93.3 688.2,90.5 688.6,87.7 688.8,84.9 689.0,82.1 688.9,79.3 688.6,76.5 688.2,73.7 687.5,70.9 686.7,68.1 685.7,65.3 684.6,62.5 683.5,59.7 682.4,56.9 667.6,56.9 666.5,59.7 665.4,62.5 664.3,65.3 663.3,68.1 662.5,70.9 661.8,73.7 661.4,76.5 661.1,79.3 661.0,82.1 661.2,84.9 661.4,87.7 661.8,90.5 662.3,93.3 662.8,96.2 663.2,99.0 663.5,101.8 663.8,104.6 663.9,107.4 663.9,110.2 663.7,113.0 663.4,115.8 663.1,118.6 662.7,121.4 662.4,124.2 662.1,127.0 661.8,129.8 661.7,132.6 661.7,135.4 661.9,138.3 662.1,141.1 662.4,143.9 662.8,146.7 663.1,149.5 663.4,152.3 663.5,155.1 663.4,157.9 663.0,160.7 662.3,163.5 661.2,166.3 659.7,169.1 657.9,171.9 655.5,174.7 652.8,177.5 649.7,180.4 646.3,183.2 642.7,186.0 639.0,188.8 635.2,191.6 631.6,194.4 628.1,197.2 625.0,200.0 622.3,202.8 620.2,205.6 618.7,208.4 617.8,211.2 617.6,214.0 618.1,216.8 619.3,219.6 621.2,222.5 623.7,225.3 626.6,228.1 630.0,230.9 633.8,233.7 637.7,236.5 641.7,239.3 645.7,242.1 649.6,244.9 653.3,247.7 656.7,250.5 659.9,253.3 662.7,256.1" fill="#d33" opacity="0.5" stroke="#d33" stroke-width="1"/>
<line x1="620.4" y1="205.2956519180566" x2="729.6" y2="205.2956519180566" stroke="#114" stroke-width="2"/>
<circle cx="675.0" cy="228.36767993706638" r="2.4" fill="#114"/>
<text x="675.0" y="70.39342755953572" text-anchor="middle" font-size="11">0.99</text>
<text x="675.0" y="376" text-anchor="middle" font-size="12">ztrmv</text>
<polygon points="812.6,238.8 813.1,238.2 813.7,237.5 814.6,236.9 815.7,236.2 817.1,235.6 818.9,234.9 821.0,234.3 823.3,233.6 825.9,233.0 828.7,232.3 831.4,231.7 833.9,231.0 836.2,230.4 837.9,229.7 839.2,229.1 839.8,228.4 840.0,227.8 839.8,227.1 839.5,226.5 839.2,225.8 839.3,225.2 839.9,224.5 841.3,223.9 843.4,223.2 846.3,222.6 849.9,221.9 853.9,221.3 858.0,220.6 861.9,220.0 865.2,219.3 867.6,218.7 868.9,218.0 869.1,217.4 868.0,216.7 866.0,216.1 863.0,215.4 859.5,214.8 855.6,214.1 851.5,213.5 847.6,212.8 843.8,212.2 840.4,211.5 837.4,210.9 835.0,210.2 833.0,209.6 831.6,208.9 830.7,208.3 830.2,207.6 830.1,207.0 830.2,206.3 830.3,205.7 830.4,205.0 830.2,204.4 829.8,203.7 828.9,203.1 827.7,202.4 826.3,201.8 824.6,201.1 822.9,200.5 821.1,199.8 819.5,199.2 818.1,198.5 816.8,197.8 815.7,197.2 814.8,196.5 814.1,195.9 813.5,195.2 813.0,194.6 812.7,193.9 812.4,193.3 812.2,192.6 811.2,192.6 810.9,193.3 810.7,193.9 810.3,194.6 809.8,195.2 809.2,195.9 808.5,196.5 807.6,197.2 806.5,197.8 805.3,198.5 803.8,199.2 802.2,199.8 800.5,200.5 798.7,201.1 797.1,201.8 795.6,202.4 794.4,203.1 793.6,203.7 793.1,204.4 792.9,205.0 793.0,205.7 793.2,206.3 793.3,207.0 793.1,207.6 792.7,208.3 791.8,208.9 790.3,209.6 788.4,210.2 785.9,210.9 782.9,211.5 779.5,212.2 775.8,212.8 771.8,213.5 767.7,214.1 763.8,214.8 760.3,215.4 757.4,216.1 755.3,216.7 754.3,217.4 754.4,218.0 755.7,218.7 758.2,219.3 761.5,220.0 765.3,220.6 769.4,221.3 773.4,221.9 777.0,222.6 779.9,223.2 782.1,223.9 783.4,224.5 784.1,225.2 784.1,225.8 783.9,226.5 783.5,227.1 783.3,227.8 783.5,228.4 784.2,229.1 785.4,229.7 787.2,230.4 789.4,231.0 791.9,231.7 794.7,232.3 797.4,233.0 800.0,233.6 802.4,234.3 804.5,234.9 806.2,235.6 807.6,236.2 808.8,236.9 809.6,237.5 810.3,238.2 810.7,238.8" fill="#d33" opacity="0.5" stroke="#d33" stroke-width="1"/>
<line x1="754.6" y1="218.16197559340011" x2="868.7" y2="218.16197559340011" stroke="#114" stroke-width="2"/>
<circle cx="811.6666666666666" cy="229.42103151847098" r="2.4" fill="#114"/>
<text x="811.6666666666666" y="191.36396115916335" text-anchor="middle" font-size="11">0.90</text>
<text x="811.6666666666666" y="376" text-anchor="middle" font-size="12">ztrsv</text>
<text x="450.0" y="428" text-anchor="middle" font-size="11" fill="#666">violin = ratio distribution over sizes · line = median · dark dot = worst size · green = every size ≥ gate</text>
</svg>
