<svg xmlns="http://www.w3.org/2000/svg" width="900" height="440" font-family="sans-serif">
<rect width="900" height="440" fill="white"/>
<text x="450.0" y="28" text-anchor="middle" font-size="18" font-weight="bold">Complex BLAS-2: PureBLAS / OpenBLAS (AVX2, 1 thread, ComplexF64)</text>
<line x1="60" y1="358.0" x2="880" y2="358.0" stroke="#eee"/>
<text x="52" y="362.0" text-anchor="end" font-size="11" fill="#666">0×</text>
<line x1="60" y1="301.2366634980674" x2="880" y2="301.2366634980674" stroke="#eee"/>
<text x="52" y="305.2366634980674" text-anchor="end" font-size="11" fill="#666">0.5×</text>
<line x1="60" y1="244.4733269961349" x2="880" y2="244.4733269961349" stroke="#eee"/>
<text x="52" y="248.4733269961349" text-anchor="end" font-size="11" fill="#666">1×</text>
<line x1="60" y1="187.7099904942023" x2="880" y2="187.7099904942023" stroke="#eee"/>
<text x="52" y="191.7099904942023" text-anchor="end" font-size="11" fill="#666">1.5×</text>
<line x1="60" y1="244.4733269961349" x2="880" y2="244.4733269961349" stroke="#888" stroke-width="1"/>
<line x1="60" y1="249.0143939162895" x2="880" y2="249.0143939162895" stroke="#d33" stroke-width="1.5" stroke-dasharray="6 4"/>
<text x="880" y="244.0143939162895" text-anchor="end" font-size="11" fill="#d33">0.96× gate</text>
<polygon points="103.1,243.9 103.8,243.5 104.6,243.2 105.6,242.8 106.7,242.5 108.0,242.1 109.4,241.8 111.0,241.4 112.8,241.0 114.8,240.7 117.1,240.3 119.6,240.0 122.3,239.6 125.1,239.3 127.9,238.9 130.5,238.6 132.7,238.2 134.3,237.9 135.3,237.5 135.4,237.2 134.8,236.8 133.3,236.5 131.2,236.1 128.7,235.8 125.9,235.4 123.0,235.1 120.3,234.7 117.9,234.4 115.9,234.0 114.2,233.7 112.9,233.3 112.1,232.9 111.6,232.6 111.4,232.2 111.5,231.9 111.9,231.5 112.6,231.2 113.6,230.8 114.8,230.5 116.3,230.1 117.9,229.8 119.6,229.4 121.2,229.1 122.7,228.7 124.0,228.4 124.9,228.0 125.4,227.7 125.5,227.3 125.3,227.0 124.7,226.6 123.9,226.3 122.9,225.9 121.7,225.6 120.5,225.2 119.2,224.8 118.0,224.5 116.7,224.1 115.4,223.8 114.1,223.4 112.9,223.1 111.6,222.7 110.4,222.4 109.2,222.0 108.1,221.7 107.1,221.3 106.1,221.0 105.2,220.6 104.3,220.3 103.6,219.9 103.0,219.6 102.5,219.2 102.1,218.9 99.9,218.9 99.5,219.2 99.0,219.6 98.4,219.9 97.7,220.3 96.8,220.6 95.9,221.0 94.9,221.3 93.9,221.7 92.8,222.0 91.6,222.4 90.4,222.7 89.1,223.1 87.9,223.4 86.6,223.8 85.3,224.1 84.0,224.5 82.8,224.8 81.5,225.2 80.3,225.6 79.1,225.9 78.1,226.3 77.3,226.6 76.7,227.0 76.5,227.3 76.6,227.7 77.1,228.0 78.0,228.4 79.3,228.7 80.8,229.1 82.4,229.4 84.1,229.8 85.7,230.1 87.2,230.5 88.4,230.8 89.4,231.2 90.1,231.5 90.5,231.9 90.6,232.2 90.4,232.6 89.9,232.9 89.1,233.3 87.8,233.7 86.1,234.0 84.1,234.4 81.7,234.7 79.0,235.1 76.1,235.4 73.3,235.8 70.8,236.1 68.7,236.5 67.2,236.8 66.6,237.2 66.7,237.5 67.7,237.9 69.3,238.2 71.5,238.6 74.1,238.9 76.9,239.3 79.7,239.6 82.4,240.0 84.9,240.3 87.2,240.7 89.2,241.0 91.0,241.4 92.6,241.8 94.0,242.1 95.3,242.5 96.4,242.8 97.4,243.2 98.2,243.5 98.9,243.9" fill="#2a8" opacity="0.5" stroke="#2a8" stroke-width="1"/>
<line x1="87.1" y1="233.81792173417" x2="114.9" y2="233.81792173417" stroke="#114" stroke-width="2"/>
<circle cx="101.0" cy="239.6415544430214" r="2.4" fill="#114"/>
<text x="101.0" y="215.46145106193543" text-anchor="middle" font-size="11">1.09</text>
<text x="101.0" y="376" text-anchor="middle" font-size="12">zgemvN</text>
<polygon points="188.4,235.9 190.1,235.5 192.1,235.0 194.5,234.6 197.1,234.1 199.9,233.7 202.7,233.2 205.6,232.8 208.3,232.3 210.7,231.9 212.9,231.4 214.6,230.9 215.9,230.5 216.9,230.0 217.3,229.6 217.4,229.1 217.2,228.7 216.6,228.2 215.8,227.8 214.7,227.3 213.5,226.9 212.1,226.4 210.6,225.9 209.0,225.5 207.4,225.0 205.8,224.6 204.3,224.1 202.9,223.7 201.8,223.2 200.8,222.8 200.1,222.3 199.6,221.9 199.2,221.4 198.9,220.9 198.6,220.5 198.3,220.0 197.8,219.6 197.2,219.1 196.3,218.7 195.3,218.2 194.1,217.8 192.7,217.3 191.4,216.9 190.0,216.4 188.8,216.0 187.7,215.5 186.9,215.0 186.2,214.6 185.8,214.1 185.6,213.7 185.7,213.2 185.9,212.8 186.4,212.3 187.0,211.9 187.7,211.4 188.6,211.0 189.4,210.5 190.3,210.0 191.2,209.6 192.0,209.1 192.5,208.7 192.9,208.2 193.1,207.8 193.0,207.3 192.6,206.9 192.0,206.4 191.2,206.0 190.2,205.5 189.2,205.0 188.2,204.6 187.2,204.1 186.3,203.7 179.7,203.7 178.8,204.1 177.8,204.6 176.8,205.0 175.8,205.5 174.8,206.0 174.0,206.4 173.4,206.9 173.0,207.3 172.9,207.8 173.1,208.2 173.5,208.7 174.0,209.1 174.8,209.6 175.7,210.0 176.6,210.5 177.4,211.0 178.3,211.4 179.0,211.9 179.6,212.3 180.1,212.8 180.3,213.2 180.4,213.7 180.2,214.1 179.8,214.6 179.1,215.0 178.3,215.5 177.2,216.0 176.0,216.4 174.6,216.9 173.3,217.3 171.9,217.8 170.7,218.2 169.7,218.7 168.8,219.1 168.2,219.6 167.7,220.0 167.4,220.5 167.1,220.9 166.8,221.4 166.4,221.9 165.9,222.3 165.2,222.8 164.2,223.2 163.1,223.7 161.7,224.1 160.2,224.6 158.6,225.0 157.0,225.5 155.4,225.9 153.9,226.4 152.5,226.9 151.3,227.3 150.2,227.8 149.4,228.2 148.8,228.7 148.6,229.1 148.7,229.6 149.1,230.0 150.1,230.5 151.4,230.9 153.1,231.4 155.3,231.9 157.7,232.3 160.4,232.8 163.3,233.2 166.1,233.7 168.9,234.1 171.5,234.6 173.9,235.0 175.9,235.5 177.6,235.9" fill="#2a8" opacity="0.5" stroke="#2a8" stroke-width="1"/>
<line x1="156.7" y1="225.5791812014832" x2="209.3" y2="225.5791812014832" stroke="#114" stroke-width="2"/>
<circle cx="183.0" cy="232.0607506221487" r="2.4" fill="#114"/>
<text x="183.0" y="200.989753729433" text-anchor="middle" font-size="11">1.17</text>
<text x="183.0" y="376" text-anchor="middle" font-size="12">zgemvT</text>
<polygon points="266.9,237.1 267.8,236.7 269.0,236.3 270.4,235.9 272.3,235.5 274.4,235.1 276.8,234.7 279.4,234.3 282.1,233.9 284.8,233.5 287.2,233.1 289.3,232.7 290.9,232.3 292.1,231.8 292.7,231.4 293.0,231.0 293.0,230.6 292.9,230.2 292.8,229.8 293.0,229.4 293.4,229.0 294.2,228.6 295.3,228.2 296.5,227.8 297.7,227.4 298.7,227.0 299.3,226.6 299.4,226.2 298.9,225.8 297.8,225.4 296.0,225.0 293.7,224.5 290.9,224.1 287.9,223.7 284.7,223.3 281.5,222.9 278.5,222.5 275.7,222.1 273.3,221.7 271.2,221.3 269.5,220.9 268.2,220.5 267.2,220.1 266.5,219.7 266.0,219.3 265.6,218.9 265.5,218.5 265.4,218.1 265.4,217.7 265.6,217.3 265.9,216.8 266.3,216.4 266.8,216.0 267.5,215.6 268.4,215.2 269.4,214.8 270.6,214.4 271.8,214.0 273.0,213.6 274.1,213.2 275.0,212.8 275.6,212.4 275.9,212.0 275.8,211.6 275.3,211.2 274.6,210.8 273.5,210.4 272.4,210.0 271.1,209.5 269.9,209.1 268.8,208.7 267.9,208.3 262.1,208.3 261.2,208.7 260.1,209.1 258.9,209.5 257.6,210.0 256.5,210.4 255.4,210.8 254.7,211.2 254.2,211.6 254.1,212.0 254.4,212.4 255.0,212.8 255.9,213.2 257.0,213.6 258.2,214.0 259.4,214.4 260.6,214.8 261.6,215.2 262.5,215.6 263.2,216.0 263.7,216.4 264.1,216.8 264.4,217.3 264.6,217.7 264.6,218.1 264.5,218.5 264.4,218.9 264.0,219.3 263.5,219.7 262.8,220.1 261.8,220.5 260.5,220.9 258.8,221.3 256.7,221.7 254.3,222.1 251.5,222.5 248.5,222.9 245.3,223.3 242.1,223.7 239.1,224.1 236.3,224.5 234.0,225.0 232.2,225.4 231.1,225.8 230.6,226.2 230.7,226.6 231.3,227.0 232.3,227.4 233.5,227.8 234.7,228.2 235.8,228.6 236.6,229.0 237.0,229.4 237.2,229.8 237.1,230.2 237.0,230.6 237.0,231.0 237.3,231.4 237.9,231.8 239.1,232.3 240.7,232.7 242.8,233.1 245.2,233.5 247.9,233.9 250.6,234.3 253.2,234.7 255.6,235.1 257.7,235.5 259.6,235.9 261.0,236.3 262.2,236.7 263.1,237.1" fill="#2a8" opacity="0.5" stroke="#2a8" stroke-width="1"/>
<line x1="231.3" y1="226.98784879445918" x2="298.7" y2="226.98784879445918" stroke="#114" stroke-width="2"/>
<circle cx="265.0" cy="232.60343593741388" r="2.4" fill="#114"/>
<text x="265.0" y="205.29838919498715" text-anchor="middle" font-size="11">1.15</text>
<text x="265.0" y="376" text-anchor="middle" font-size="12">zgemvC</text>
<polygon points="350.8,257.1 352.2,256.3 353.9,255.5 356.0,254.6 358.4,253.8 361.2,253.0 364.2,252.2 367.4,251.3 370.6,250.5 373.6,249.7 376.3,248.8 378.6,248.0 380.2,247.2 381.2,246.3 381.4,245.5 381.0,244.7 379.8,243.8 378.1,243.0 375.9,242.2 373.4,241.3 370.7,240.5 368.0,239.7 365.3,238.8 362.8,238.0 360.5,237.2 358.4,236.4 356.6,235.5 355.2,234.7 354.0,233.9 353.2,233.0 352.7,232.2 352.5,231.4 352.6,230.5 352.9,229.7 353.2,228.9 353.7,228.0 354.2,227.2 354.6,226.4 354.9,225.5 355.0,224.7 354.9,223.9 354.7,223.0 354.2,222.2 353.7,221.4 353.0,220.5 352.3,219.7 351.7,218.9 351.1,218.1 350.6,217.2 350.4,216.4 350.3,215.6 350.4,214.7 350.7,213.9 351.2,213.1 351.8,212.2 352.5,211.4 353.2,210.6 354.0,209.7 354.5,208.9 355.0,208.1 355.2,207.2 355.2,206.4 355.0,205.6 354.5,204.7 353.9,203.9 353.1,203.1 352.3,202.2 351.5,201.4 350.6,200.6 349.9,199.8 349.2,198.9 348.7,198.1 345.3,198.1 344.8,198.9 344.1,199.8 343.4,200.6 342.5,201.4 341.7,202.2 340.9,203.1 340.1,203.9 339.5,204.7 339.0,205.6 338.8,206.4 338.8,207.2 339.0,208.1 339.5,208.9 340.0,209.7 340.8,210.6 341.5,211.4 342.2,212.2 342.8,213.1 343.3,213.9 343.6,214.7 343.7,215.6 343.6,216.4 343.4,217.2 342.9,218.1 342.3,218.9 341.7,219.7 341.0,220.5 340.3,221.4 339.8,222.2 339.3,223.0 339.1,223.9 339.0,224.7 339.1,225.5 339.4,226.4 339.8,227.2 340.3,228.0 340.8,228.9 341.1,229.7 341.4,230.5 341.5,231.4 341.3,232.2 340.8,233.0 340.0,233.9 338.8,234.7 337.4,235.5 335.6,236.4 333.5,237.2 331.2,238.0 328.7,238.8 326.0,239.7 323.3,240.5 320.6,241.3 318.1,242.2 315.9,243.0 314.2,243.8 313.0,244.7 312.6,245.5 312.8,246.3 313.8,247.2 315.4,248.0 317.7,248.8 320.4,249.7 323.4,250.5 326.6,251.3 329.8,252.2 332.8,253.0 335.6,253.8 338.0,254.6 340.1,255.5 341.8,256.3 343.2,257.1" fill="#2a8" opacity="0.5" stroke="#2a8" stroke-width="1"/>
<line x1="312.8" y1="244.9064050994361" x2="381.2" y2="244.9064050994361" stroke="#114" stroke-width="2"/>
<circle cx="347.0" cy="248.61524859144654" r="2.4" fill="#114"/>
<text x="347.0" y="197.9875845201847" text-anchor="middle" font-size="11">1.00</text>
<text x="347.0" y="376" text-anchor="middle" font-size="12">zgeru</text>
<polygon points="441.2,221.7 443.3,220.6 445.7,219.5 448.1,218.4 450.5,217.3 452.9,216.2 455.3,215.1 457.4,214.0 459.3,212.9 460.9,211.8 462.2,210.7 463.0,209.6 463.4,208.5 463.4,207.4 463.0,206.3 462.1,205.2 460.9,204.1 459.4,203.0 457.6,201.9 455.6,200.8 453.6,199.7 451.5,198.6 449.5,197.5 447.7,196.4 446.1,195.3 444.7,194.2 443.5,193.1 442.7,192.0 442.2,190.9 441.9,189.8 441.9,188.7 442.0,187.6 442.3,186.5 442.7,185.4 443.1,184.3 443.4,183.2 443.7,182.1 443.9,181.0 444.0,179.9 444.0,178.8 444.0,177.7 444.0,176.6 444.0,175.5 444.0,174.4 444.2,173.3 444.5,172.2 445.0,171.1 445.7,170.0 446.6,168.9 447.7,167.8 449.0,166.7 450.5,165.6 452.1,164.5 453.8,163.4 455.5,162.3 457.1,161.2 458.6,160.1 460.0,159.0 461.1,157.9 461.9,156.8 462.4,155.7 462.6,154.6 462.3,153.5 461.6,152.4 460.5,151.3 459.0,150.2 457.1,149.1 455.0,148.0 452.7,146.9 450.3,145.8 447.8,144.7 445.3,143.6 412.7,143.6 410.2,144.7 407.7,145.8 405.3,146.9 403.0,148.0 400.9,149.1 399.0,150.2 397.5,151.3 396.4,152.4 395.7,153.5 395.4,154.6 395.6,155.7 396.1,156.8 396.9,157.9 398.0,159.0 399.4,160.1 400.9,161.2 402.5,162.3 404.2,163.4 405.9,164.5 407.5,165.6 409.0,166.7 410.3,167.8 411.4,168.9 412.3,170.0 413.0,171.1 413.5,172.2 413.8,173.3 414.0,174.4 414.0,175.5 414.0,176.6 414.0,177.7 414.0,178.8 414.0,179.9 414.1,181.0 414.3,182.1 414.6,183.2 414.9,184.3 415.3,185.4 415.7,186.5 416.0,187.6 416.1,188.7 416.1,189.8 415.8,190.9 415.3,192.0 414.5,193.1 413.3,194.2 411.9,195.3 410.3,196.4 408.5,197.5 406.5,198.6 404.4,199.7 402.4,200.8 400.4,201.9 398.6,203.0 397.1,204.1 395.9,205.2 395.0,206.3 394.6,207.4 394.6,208.5 395.0,209.6 395.8,210.7 397.1,211.8 398.7,212.9 400.6,214.0 402.7,215.1 405.1,216.2 407.5,217.3 409.9,218.4 412.3,219.5 414.7,220.6 416.8,221.7" fill="#2a8" opacity="0.5" stroke="#2a8" stroke-width="1"/>
<line x1="414.1" y1="181.03523173317305" x2="443.9" y2="181.03523173317305" stroke="#114" stroke-width="2"/>
<circle cx="429.0" cy="213.66459104927102" r="2.4" fill="#114"/>
<text x="429.0" y="145.38029325168176" text-anchor="middle" font-size="11">1.56</text>
<text x="429.0" y="376" text-anchor="middle" font-size="12">zhemv</text>
<polygon points="517.4,248.8 519.2,247.3 521.4,245.8 523.8,244.3 526.5,242.8 529.4,241.3 532.4,239.7 535.4,238.2 538.3,236.7 540.8,235.2 542.9,233.7 544.5,232.2 545.3,230.7 545.4,229.2 544.8,227.6 543.5,226.1 541.5,224.6 538.9,223.1 536.1,221.6 533.0,220.1 529.8,218.6 526.8,217.0 524.0,215.5 521.5,214.0 519.4,212.5 517.7,211.0 516.4,209.5 515.5,208.0 515.1,206.5 514.9,204.9 515.0,203.4 515.3,201.9 515.8,200.4 516.3,198.9 516.9,197.4 517.5,195.9 517.9,194.4 518.3,192.8 518.5,191.3 518.5,189.8 518.3,188.3 517.9,186.8 517.4,185.3 516.8,183.8 516.2,182.2 515.5,180.7 514.9,179.2 514.3,177.7 513.9,176.2 513.5,174.7 513.4,173.2 513.4,171.7 513.5,170.1 513.8,168.6 514.2,167.1 514.8,165.6 515.4,164.1 516.0,162.6 516.7,161.1 517.2,159.6 517.7,158.0 518.1,156.5 518.3,155.0 518.3,153.5 518.2,152.0 517.8,150.5 517.4,149.0 516.8,147.4 516.1,145.9 515.4,144.4 514.7,142.9 514.0,141.4 508.0,141.4 507.3,142.9 506.6,144.4 505.9,145.9 505.2,147.4 504.6,149.0 504.2,150.5 503.8,152.0 503.7,153.5 503.7,155.0 503.9,156.5 504.3,158.0 504.8,159.6 505.3,161.1 506.0,162.6 506.6,164.1 507.2,165.6 507.8,167.1 508.2,168.6 508.5,170.1 508.6,171.7 508.6,173.2 508.5,174.7 508.1,176.2 507.7,177.7 507.1,179.2 506.5,180.7 505.8,182.2 505.2,183.8 504.6,185.3 504.1,186.8 503.7,188.3 503.5,189.8 503.5,191.3 503.7,192.8 504.1,194.4 504.5,195.9 505.1,197.4 505.7,198.9 506.2,200.4 506.7,201.9 507.0,203.4 507.1,204.9 506.9,206.5 506.5,208.0 505.6,209.5 504.3,211.0 502.6,212.5 500.5,214.0 498.0,215.5 495.2,217.0 492.2,218.6 489.0,220.1 485.9,221.6 483.1,223.1 480.5,224.6 478.5,226.1 477.2,227.6 476.6,229.2 476.7,230.7 477.5,232.2 479.1,233.7 481.2,235.2 483.7,236.7 486.6,238.2 489.6,239.7 492.6,241.3 495.5,242.8 498.2,244.3 500.6,245.8 502.8,247.3 504.6,248.8" fill="#2a8" opacity="0.5" stroke="#2a8" stroke-width="1"/>
<line x1="477.7" y1="227.0290712376579" x2="544.3" y2="227.0290712376579" stroke="#114" stroke-width="2"/>
<circle cx="511.0" cy="237.314205234523" r="2.4" fill="#114"/>
<text x="511.0" y="145.97430785986506" text-anchor="middle" font-size="11">1.15</text>
<text x="511.0" y="376" text-anchor="middle" font-size="12">ztrmv</text>
<polygon points="595.8,252.0 596.6,250.9 597.6,249.8 598.8,248.7 600.1,247.6 601.5,246.6 603.0,245.5 604.6,244.4 606.4,243.3 608.2,242.2 610.2,241.1 612.3,240.0 614.5,238.9 616.8,237.8 619.1,236.7 621.4,235.6 623.5,234.5 625.4,233.4 626.7,232.3 627.4,231.2 627.4,230.1 626.7,229.0 625.2,228.0 623.0,226.9 620.3,225.8 617.1,224.7 613.9,223.6 610.6,222.5 607.5,221.4 604.7,220.3 602.4,219.2 600.5,218.1 599.2,217.0 598.3,215.9 597.9,214.8 597.9,213.7 598.2,212.6 598.7,211.5 599.3,210.4 600.0,209.4 600.7,208.3 601.2,207.2 601.6,206.1 601.7,205.0 601.6,203.9 601.3,202.8 600.7,201.7 600.0,200.6 599.3,199.5 598.5,198.4 597.8,197.3 597.2,196.2 596.8,195.1 596.6,194.0 596.6,192.9 596.9,191.8 597.3,190.8 598.0,189.7 598.7,188.6 599.5,187.5 600.2,186.4 600.9,185.3 601.4,184.2 601.7,183.1 601.7,182.0 601.5,180.9 601.0,179.8 600.4,178.7 599.6,177.6 598.7,176.5 597.8,175.4 596.9,174.3 589.1,174.3 588.2,175.4 587.3,176.5 586.4,177.6 585.6,178.7 585.0,179.8 584.5,180.9 584.3,182.0 584.3,183.1 584.6,184.2 585.1,185.3 585.8,186.4 586.5,187.5 587.3,188.6 588.0,189.7 588.7,190.8 589.1,191.8 589.4,192.9 589.4,194.0 589.2,195.1 588.8,196.2 588.2,197.3 587.5,198.4 586.7,199.5 586.0,200.6 585.3,201.7 584.7,202.8 584.4,203.9 584.3,205.0 584.4,206.1 584.8,207.2 585.3,208.3 586.0,209.4 586.7,210.4 587.3,211.5 587.8,212.6 588.1,213.7 588.1,214.8 587.7,215.9 586.8,217.0 585.5,218.1 583.6,219.2 581.3,220.3 578.5,221.4 575.4,222.5 572.1,223.6 568.9,224.7 565.7,225.8 563.0,226.9 560.8,228.0 559.3,229.0 558.6,230.1 558.6,231.2 559.3,232.3 560.6,233.4 562.5,234.5 564.6,235.6 566.9,236.7 569.2,237.8 571.5,238.9 573.7,240.0 575.8,241.1 577.8,242.2 579.6,243.3 581.4,244.4 583.0,245.5 584.5,246.6 585.9,247.6 587.2,248.7 588.4,249.8 589.4,250.9 590.2,252.0" fill="#2a8" opacity="0.5" stroke="#2a8" stroke-width="1"/>
<line x1="559.5" y1="228.8477128597504" x2="626.5" y2="228.8477128597504" stroke="#114" stroke-width="2"/>
<circle cx="593.0" cy="241.83342629913966" r="2.4" fill="#114"/>
<text x="593.0" y="176.04515506676822" text-anchor="middle" font-size="11">1.14</text>
<text x="593.0" y="376" text-anchor="middle" font-size="12">ztrsv</text>
<polygon points="687.1,221.2 689.7,220.0 692.6,218.8 695.6,217.6 698.6,216.4 701.5,215.3 704.1,214.1 706.2,212.9 707.9,211.7 709.0,210.5 709.4,209.3 709.2,208.2 708.5,207.0 707.2,205.8 705.5,204.6 703.5,203.4 701.3,202.2 699.1,201.0 696.9,199.9 694.9,198.7 693.0,197.5 691.2,196.3 689.6,195.1 688.2,193.9 686.9,192.8 685.7,191.6 684.5,190.4 683.5,189.2 682.6,188.0 681.7,186.8 681.0,185.7 680.4,184.5 680.0,183.3 679.7,182.1 679.6,180.9 679.7,179.7 680.0,178.5 680.4,177.4 680.9,176.2 681.5,175.0 682.1,173.8 682.6,172.6 683.1,171.4 683.5,170.3 683.7,169.1 683.7,167.9 683.6,166.7 683.4,165.5 683.1,164.3 682.7,163.2 682.3,162.0 681.9,160.8 681.6,159.6 681.4,158.4 681.4,157.2 681.5,156.0 681.7,154.9 682.0,153.7 682.4,152.5 682.8,151.3 683.2,150.1 683.5,148.9 683.6,147.8 683.7,146.6 683.5,145.4 683.2,144.2 682.7,143.0 682.1,141.8 681.4,140.7 680.7,139.5 679.9,138.3 679.1,137.1 670.9,137.1 670.1,138.3 669.3,139.5 668.6,140.7 667.9,141.8 667.3,143.0 666.8,144.2 666.5,145.4 666.3,146.6 666.4,147.8 666.5,148.9 666.8,150.1 667.2,151.3 667.6,152.5 668.0,153.7 668.3,154.9 668.5,156.0 668.6,157.2 668.6,158.4 668.4,159.6 668.1,160.8 667.7,162.0 667.3,163.2 666.9,164.3 666.6,165.5 666.4,166.7 666.3,167.9 666.3,169.1 666.5,170.3 666.9,171.4 667.4,172.6 667.9,173.8 668.5,175.0 669.1,176.2 669.6,177.4 670.0,178.5 670.3,179.7 670.4,180.9 670.3,182.1 670.0,183.3 669.6,184.5 669.0,185.7 668.3,186.8 667.4,188.0 666.5,189.2 665.5,190.4 664.3,191.6 663.1,192.8 661.8,193.9 660.4,195.1 658.8,196.3 657.0,197.5 655.1,198.7 653.1,199.9 650.9,201.0 648.7,202.2 646.5,203.4 644.5,204.6 642.8,205.8 641.5,207.0 640.8,208.2 640.6,209.3 641.0,210.5 642.1,211.7 643.8,212.9 645.9,214.1 648.5,215.3 651.4,216.4 654.4,217.6 657.4,218.8 660.3,220.0 662.9,221.2" fill="#2a8" opacity="0.5" stroke="#2a8" stroke-width="1"/>
<line x1="641.3" y1="207.20768581771398" x2="708.7" y2="207.20768581771398" stroke="#114" stroke-width="2"/>
<circle cx="675.0" cy="211.87971583660791" r="2.4" fill="#114"/>
<text x="675.0" y="139.4197412639758" text-anchor="middle" font-size="11">1.33</text>
<text x="675.0" y="376" text-anchor="middle" font-size="12">zhpmv</text>
<polygon points="759.3,207.0 760.4,206.4 761.8,205.8 763.7,205.1 766.0,204.5 768.7,203.8 771.8,203.2 775.0,202.5 778.4,201.9 781.7,201.2 784.7,200.6 787.3,199.9 789.3,199.3 790.7,198.6 791.4,198.0 791.4,197.4 790.9,196.7 789.9,196.1 788.7,195.4 787.4,194.8 786.1,194.1 785.1,193.5 784.4,192.8 784.0,192.2 784.0,191.5 784.3,190.9 784.7,190.2 785.2,189.6 785.4,189.0 785.4,188.3 785.0,187.7 784.1,187.0 782.7,186.4 780.9,185.7 778.6,185.1 776.2,184.4 773.6,183.8 771.1,183.1 768.7,182.5 766.5,181.9 764.6,181.2 763.0,180.6 761.8,179.9 760.8,179.3 760.1,178.6 759.7,178.0 759.4,177.3 759.3,176.7 759.4,176.0 759.6,175.4 759.9,174.7 760.3,174.1 760.8,173.5 761.3,172.8 762.0,172.2 762.6,171.5 763.3,170.9 763.9,170.2 764.4,169.6 764.8,168.9 765.0,168.3 765.0,167.6 764.9,167.0 764.5,166.3 763.9,165.7 763.2,165.1 762.4,164.4 761.5,163.8 760.7,163.1 759.9,162.5 759.2,161.8 758.6,161.2 755.4,161.2 754.8,161.8 754.1,162.5 753.3,163.1 752.5,163.8 751.6,164.4 750.8,165.1 750.1,165.7 749.5,166.3 749.1,167.0 749.0,167.6 749.0,168.3 749.2,168.9 749.6,169.6 750.1,170.2 750.7,170.9 751.4,171.5 752.0,172.2 752.7,172.8 753.2,173.5 753.7,174.1 754.1,174.7 754.4,175.4 754.6,176.0 754.7,176.7 754.6,177.3 754.3,178.0 753.9,178.6 753.2,179.3 752.2,179.9 751.0,180.6 749.4,181.2 747.5,181.9 745.3,182.5 742.9,183.1 740.4,183.8 737.8,184.4 735.4,185.1 733.1,185.7 731.3,186.4 729.9,187.0 729.0,187.7 728.6,188.3 728.6,189.0 728.8,189.6 729.3,190.2 729.7,190.9 730.0,191.5 730.0,192.2 729.6,192.8 728.9,193.5 727.9,194.1 726.6,194.8 725.3,195.4 724.1,196.1 723.1,196.7 722.6,197.4 722.6,198.0 723.3,198.6 724.7,199.3 726.7,199.9 729.3,200.6 732.3,201.2 735.6,201.9 739.0,202.5 742.2,203.2 745.3,203.8 748.0,204.5 750.3,205.1 752.2,205.8 753.6,206.4 754.7,207.0" fill="#2a8" opacity="0.5" stroke="#2a8" stroke-width="1"/>
<line x1="730.0" y1="191.9216708344861" x2="784.0" y2="191.9216708344861" stroke="#114" stroke-width="2"/>
<circle cx="757.0" cy="200.22652919948302" r="2.4" fill="#114"/>
<text x="757.0" y="159.80041081973988" text-anchor="middle" font-size="11">1.46</text>
<text x="757.0" y="376" text-anchor="middle" font-size="12">zgbmvN</text>
<polygon points="839.0,298.8 839.0,295.2 839.0,291.7 839.0,288.2 839.0,284.7 839.0,281.2 839.1,277.7 839.1,274.2 839.1,270.7 839.0,267.2 839.0,263.7 839.0,260.2 839.0,256.7 839.0,253.2 839.0,249.7 839.0,246.2 839.0,242.7 839.0,239.2 839.0,235.7 839.0,232.2 839.0,228.7 839.1,225.2 839.1,221.7 839.1,218.2 839.4,214.7 843.0,211.2 857.0,207.7 873.4,204.2 866.9,200.7 848.9,197.1 840.7,193.6 839.3,190.1 839.2,186.6 839.1,183.1 839.0,179.6 839.0,176.1 839.0,172.6 839.0,169.1 839.0,165.6 839.0,162.1 839.0,158.6 839.0,155.1 839.0,151.6 839.0,148.1 839.0,144.6 839.0,141.1 839.0,137.6 839.0,134.1 839.0,130.6 839.0,127.1 839.0,123.6 839.0,120.1 839.0,116.6 839.0,113.1 839.0,109.6 839.0,106.1 839.0,102.6 839.0,99.0 839.1,95.5 839.1,92.0 839.1,88.5 839.0,85.0 839.0,81.5 839.0,78.0 839.0,74.5 839.1,71.0 839.1,67.5 839.1,64.0 839.0,60.5 839.0,57.0 839.0,53.5 839.0,50.0 839.0,50.0 839.0,53.5 839.0,57.0 839.0,60.5 838.9,64.0 838.9,67.5 838.9,71.0 839.0,74.5 839.0,78.0 839.0,81.5 839.0,85.0 838.9,88.5 838.9,92.0 838.9,95.5 839.0,99.0 839.0,102.6 839.0,106.1 839.0,109.6 839.0,113.1 839.0,116.6 839.0,120.1 839.0,123.6 839.0,127.1 839.0,130.6 839.0,134.1 839.0,137.6 839.0,141.1 839.0,144.6 839.0,148.1 839.0,151.6 839.0,155.1 839.0,158.6 839.0,162.1 839.0,165.6 839.0,169.1 839.0,172.6 839.0,176.1 839.0,179.6 838.9,183.1 838.8,186.6 838.7,190.1 837.3,193.6 829.1,197.1 811.1,200.7 804.6,204.2 821.0,207.7 835.0,211.2 838.6,214.7 838.9,218.2 838.9,221.7 838.9,225.2 839.0,228.7 839.0,232.2 839.0,235.7 839.0,239.2 839.0,242.7 839.0,246.2 839.0,249.7 839.0,253.2 839.0,256.7 839.0,260.2 839.0,263.7 839.0,267.2 838.9,270.7 838.9,274.2 838.9,277.7 839.0,281.2 839.0,284.7 839.0,288.2 839.0,291.7 839.0,295.2 839.0,298.8" fill="#2a8" opacity="0.5" stroke="#2a8" stroke-width="1"/>
<line x1="803.7" y1="203.5708121415399" x2="874.3" y2="203.5708121415399" stroke="#114" stroke-width="2"/>
<circle cx="839.0" cy="204.5729052800452" r="2.4" fill="#114"/>
<text x="839.0" y="61.43396226415098" text-anchor="middle" font-size="11">1.36</text>
<text x="839.0" y="376" text-anchor="middle" font-size="12">zhbmv</text>
<text x="450.0" y="428" text-anchor="middle" font-size="11" fill="#666">violin = ratio distribution over sizes · line = median · dark dot = worst size · green = every size ≥ gate</text>
</svg>
