<svg xmlns="http://www.w3.org/2000/svg" width="900" height="440" font-family="sans-serif">
<rect width="900" height="440" fill="white"/>
<text x="450.0" y="28" text-anchor="middle" font-size="18" font-weight="bold">Complex BLAS-2: PureBLAS / OpenBLAS (AVX-512 (Zen4), 1 thread, ComplexF64)</text>
<line x1="60" y1="358.0" x2="880" y2="358.0" stroke="#eee"/>
<text x="52" y="362.0" text-anchor="end" font-size="11" fill="#666">0×</text>
<line x1="60" y1="290.9635740602386" x2="880" y2="290.9635740602386" stroke="#eee"/>
<text x="52" y="294.9635740602386" text-anchor="end" font-size="11" fill="#666">0.5×</text>
<line x1="60" y1="223.9271481204772" x2="880" y2="223.9271481204772" stroke="#eee"/>
<text x="52" y="227.9271481204772" text-anchor="end" font-size="11" fill="#666">1×</text>
<line x1="60" y1="156.89072218071584" x2="880" y2="156.89072218071584" stroke="#eee"/>
<text x="52" y="160.89072218071584" text-anchor="end" font-size="11" fill="#666">1.5×</text>
<line x1="60" y1="223.9271481204772" x2="880" y2="223.9271481204772" stroke="#888" stroke-width="1"/>
<line x1="60" y1="229.29006219565812" x2="880" y2="229.29006219565812" stroke="#d33" stroke-width="1.5" stroke-dasharray="6 4"/>
<text x="880" y="224.29006219565812" text-anchor="end" font-size="11" fill="#d33">0.96× gate</text>
<polygon points="128.6,255.6 128.8,254.2 129.1,252.8 129.4,251.5 130.0,250.1 130.6,248.7 131.6,247.4 132.8,246.0 134.3,244.7 136.3,243.3 138.8,241.9 141.9,240.6 145.5,239.2 149.6,237.9 154.2,236.5 159.0,235.1 163.9,233.8 168.7,232.4 173.4,231.1 177.5,229.7 181.1,228.3 183.7,227.0 185.4,225.6 185.7,224.2 184.7,222.9 182.3,221.5 178.5,220.2 173.7,218.8 168.1,217.4 162.2,216.1 156.4,214.7 150.9,213.4 146.1,212.0 142.1,210.6 138.8,209.3 136.3,207.9 134.4,206.6 133.1,205.2 132.3,203.8 132.0,202.5 132.1,201.1 132.6,199.7 133.5,198.4 134.7,197.0 136.1,195.7 137.5,194.3 138.8,192.9 139.7,191.6 140.1,190.2 139.9,188.9 139.1,187.5 137.9,186.1 136.3,184.8 134.7,183.4 133.1,182.1 131.8,180.7 130.7,179.3 130.0,178.0 129.5,176.6 129.2,175.2 129.1,173.9 129.1,172.5 129.1,171.2 129.1,169.8 129.1,168.4 129.1,167.1 129.0,165.7 128.9,164.4 128.8,163.0 128.7,161.6 128.6,160.3 128.5,158.9 128.2,158.9 128.1,160.3 128.0,161.6 127.9,163.0 127.8,164.4 127.7,165.7 127.6,167.1 127.6,168.4 127.6,169.8 127.6,171.2 127.6,172.5 127.6,173.9 127.5,175.2 127.2,176.6 126.7,178.0 125.9,179.3 124.9,180.7 123.5,182.1 122.0,183.4 120.4,184.8 118.8,186.1 117.6,187.5 116.8,188.9 116.6,190.2 117.0,191.6 117.9,192.9 119.2,194.3 120.6,195.7 122.0,197.0 123.2,198.4 124.1,199.7 124.6,201.1 124.7,202.5 124.3,203.8 123.5,205.2 122.2,206.6 120.4,207.9 117.8,209.3 114.6,210.6 110.5,212.0 105.7,213.4 100.3,214.7 94.4,216.1 88.5,217.4 83.0,218.8 78.1,220.2 74.4,221.5 71.9,222.9 70.9,224.2 71.3,225.6 72.9,227.0 75.6,228.3 79.1,229.7 83.3,231.1 87.9,232.4 92.8,233.8 97.7,235.1 102.5,236.5 107.0,237.9 111.2,239.2 114.8,240.6 117.8,241.9 120.3,243.3 122.3,244.7 123.9,246.0 125.1,247.4 126.0,248.7 126.7,250.1 127.2,251.5 127.6,252.8 127.9,254.2 128.0,255.6" fill="#d33" opacity="0.5" stroke="#d33" stroke-width="1"/>
<line x1="71.1" y1="223.76646814016576" x2="185.5" y2="223.76646814016576" stroke="#114" stroke-width="2"/>
<circle cx="128.33333333333331" cy="232.52835557283416" r="2.4" fill="#114"/>
<text x="128.33333333333331" y="162.47948534904162" text-anchor="middle" font-size="11">1.00</text>
<text x="128.33333333333331" y="376" text-anchor="middle" font-size="12">zgemvN</text>
<polygon points="266.2,252.0 266.6,250.7 267.1,249.5 267.7,248.3 268.5,247.1 269.4,245.8 270.4,244.6 271.6,243.4 273.1,242.2 274.8,240.9 276.7,239.7 279.0,238.5 281.5,237.3 284.3,236.1 287.5,234.8 290.9,233.6 294.6,232.4 298.4,231.2 302.3,229.9 306.2,228.7 309.8,227.5 313.2,226.3 316.2,225.0 318.7,223.8 320.6,222.6 321.8,221.4 322.4,220.1 322.4,218.9 321.8,217.7 320.6,216.5 319.1,215.2 317.3,214.0 315.2,212.8 313.1,211.6 310.9,210.3 308.7,209.1 306.6,207.9 304.5,206.7 302.6,205.4 300.7,204.2 299.0,203.0 297.5,201.8 296.2,200.5 295.1,199.3 294.4,198.1 293.9,196.9 293.7,195.6 293.7,194.4 294.1,193.2 294.6,192.0 295.2,190.7 295.8,189.5 296.3,188.3 296.7,187.1 296.9,185.8 296.8,184.6 296.3,183.4 295.3,182.2 294.0,180.9 292.3,179.7 290.3,178.5 287.9,177.3 285.4,176.0 282.8,174.8 280.2,173.6 277.7,172.4 275.4,171.1 273.3,169.9 271.5,168.7 269.9,167.5 268.7,166.2 267.7,165.0 262.3,165.0 261.3,166.2 260.1,167.5 258.5,168.7 256.7,169.9 254.6,171.1 252.3,172.4 249.8,173.6 247.2,174.8 244.6,176.0 242.1,177.3 239.7,178.5 237.7,179.7 236.0,180.9 234.7,182.2 233.7,183.4 233.2,184.6 233.1,185.8 233.3,187.1 233.7,188.3 234.2,189.5 234.8,190.7 235.4,192.0 235.9,193.2 236.3,194.4 236.3,195.6 236.1,196.9 235.6,198.1 234.9,199.3 233.8,200.5 232.5,201.8 231.0,203.0 229.3,204.2 227.4,205.4 225.5,206.7 223.4,207.9 221.3,209.1 219.1,210.3 216.9,211.6 214.8,212.8 212.7,214.0 210.9,215.2 209.4,216.5 208.2,217.7 207.6,218.9 207.6,220.1 208.2,221.4 209.4,222.6 211.3,223.8 213.8,225.0 216.8,226.3 220.2,227.5 223.8,228.7 227.7,229.9 231.6,231.2 235.4,232.4 239.1,233.6 242.5,234.8 245.7,236.1 248.5,237.3 251.0,238.5 253.3,239.7 255.2,240.9 256.9,242.2 258.4,243.4 259.6,244.6 260.6,245.8 261.5,247.1 262.3,248.3 262.9,249.5 263.4,250.7 263.8,252.0" fill="#d33" opacity="0.5" stroke="#d33" stroke-width="1"/>
<line x1="214.5" y1="212.93290574155424" x2="315.5" y2="212.93290574155424" stroke="#114" stroke-width="2"/>
<circle cx="265.0" cy="229.5081540570247" r="2.4" fill="#114"/>
<text x="265.0" y="167.64940285438624" text-anchor="middle" font-size="11">1.08</text>
<text x="265.0" y="376" text-anchor="middle" font-size="12">zgemvC</text>
<polygon points="401.9,245.9 402.0,244.6 402.2,243.3 402.4,242.0 402.6,240.7 402.9,239.4 403.2,238.1 403.4,236.8 403.7,235.5 403.8,234.2 404.0,233.0 404.2,231.7 404.5,230.4 405.0,229.1 405.8,227.8 406.9,226.5 408.5,225.2 410.5,223.9 412.9,222.6 415.5,221.3 418.4,220.0 421.3,218.7 424.3,217.4 427.4,216.1 430.6,214.8 434.1,213.5 437.9,212.2 442.0,210.9 446.4,209.6 450.7,208.3 454.6,207.0 457.5,205.7 459.1,204.4 458.9,203.2 456.9,201.9 453.3,200.6 448.5,199.3 442.9,198.0 437.0,196.7 431.4,195.4 426.3,194.1 421.9,192.8 418.3,191.5 415.5,190.2 413.3,188.9 411.7,187.6 410.7,186.3 410.1,185.0 409.8,183.7 409.8,182.4 409.9,181.1 410.1,179.8 410.3,178.5 410.4,177.2 410.3,175.9 410.0,174.7 409.5,173.4 408.9,172.1 408.1,170.8 407.3,169.5 406.5,168.2 405.7,166.9 405.0,165.6 404.4,164.3 403.8,163.0 403.4,161.7 403.0,160.4 402.6,159.1 402.4,157.8 402.1,156.5 402.0,155.2 401.9,153.9 401.5,153.9 401.4,155.2 401.2,156.5 401.0,157.8 400.7,159.1 400.4,160.4 400.0,161.7 399.5,163.0 399.0,164.3 398.3,165.6 397.6,166.9 396.9,168.2 396.1,169.5 395.2,170.8 394.5,172.1 393.8,173.4 393.4,174.7 393.1,175.9 393.0,177.2 393.0,178.5 393.2,179.8 393.4,181.1 393.5,182.4 393.5,183.7 393.2,185.0 392.6,186.3 391.6,187.6 390.0,188.9 387.9,190.2 385.0,191.5 381.4,192.8 377.0,194.1 371.9,195.4 366.3,196.7 360.5,198.0 354.9,199.3 350.0,200.6 346.4,201.9 344.4,203.2 344.3,204.4 345.8,205.7 348.7,207.0 352.6,208.3 356.9,209.6 361.3,210.9 365.4,212.2 369.2,213.5 372.7,214.8 375.9,216.1 379.0,217.4 382.0,218.7 385.0,220.0 387.8,221.3 390.5,222.6 392.8,223.9 394.8,225.2 396.4,226.5 397.5,227.8 398.3,229.1 398.8,230.4 399.1,231.7 399.3,233.0 399.5,234.2 399.7,235.5 399.9,236.8 400.1,238.1 400.4,239.4 400.7,240.7 401.0,242.0 401.2,243.3 401.3,244.6 401.5,245.9" fill="#2a8" opacity="0.5" stroke="#2a8" stroke-width="1"/>
<line x1="344.1" y1="203.72997571565793" x2="459.2" y2="203.72997571565793" stroke="#114" stroke-width="2"/>
<circle cx="401.66666666666663" cy="217.04108975325246" r="2.4" fill="#114"/>
<text x="401.66666666666663" y="157.04285067575051" text-anchor="middle" font-size="11">1.15</text>
<text x="401.66666666666663" y="376" text-anchor="middle" font-size="12">zgeru</text>
<polygon points="560.7,251.1 564.5,248.3 568.4,245.4 572.4,242.6 576.5,239.8 580.4,236.9 584.0,234.1 587.3,231.3 590.2,228.4 592.5,225.6 594.2,222.8 595.3,219.9 595.7,217.1 595.5,214.3 594.6,211.4 593.2,208.6 591.3,205.8 589.0,202.9 586.4,200.1 583.6,197.3 580.8,194.5 578.0,191.6 575.4,188.8 573.1,186.0 571.1,183.1 569.6,180.3 568.5,177.5 568.0,174.6 568.0,171.8 568.5,169.0 569.5,166.1 570.8,163.3 572.5,160.5 574.4,157.6 576.4,154.8 578.4,152.0 580.3,149.1 582.0,146.3 583.5,143.5 584.6,140.6 585.4,137.8 585.9,135.0 586.1,132.1 586.0,129.3 585.7,126.5 585.3,123.6 584.8,120.8 584.3,118.0 583.8,115.1 583.4,112.3 583.1,109.5 582.8,106.6 582.6,103.8 582.4,101.0 582.1,98.2 581.7,95.3 581.2,92.5 580.5,89.7 579.5,86.8 578.3,84.0 576.7,81.2 574.9,78.3 572.9,75.5 570.6,72.7 568.1,69.8 565.5,67.0 562.8,64.2 560.1,61.3 557.5,58.5 555.0,55.7 552.6,52.8 550.4,50.0 526.3,50.0 524.1,52.8 521.7,55.7 519.2,58.5 516.5,61.3 513.9,64.2 511.2,67.0 508.6,69.8 506.1,72.7 503.8,75.5 501.7,78.3 499.9,81.2 498.4,84.0 497.1,86.8 496.2,89.7 495.4,92.5 494.9,95.3 494.6,98.2 494.3,101.0 494.1,103.8 493.8,106.6 493.6,109.5 493.2,112.3 492.8,115.1 492.4,118.0 491.9,120.8 491.4,123.6 491.0,126.5 490.7,129.3 490.6,132.1 490.8,135.0 491.3,137.8 492.1,140.6 493.2,143.5 494.7,146.3 496.4,149.1 498.3,152.0 500.3,154.8 502.3,157.6 504.2,160.5 505.8,163.3 507.2,166.1 508.2,169.0 508.7,171.8 508.7,174.6 508.1,177.5 507.1,180.3 505.6,183.1 503.6,186.0 501.3,188.8 498.7,191.6 495.9,194.5 493.1,197.3 490.3,200.1 487.7,202.9 485.4,205.8 483.5,208.6 482.0,211.4 481.2,214.3 480.9,217.1 481.3,219.9 482.4,222.8 484.1,225.6 486.5,228.4 489.3,231.3 492.7,234.1 496.3,236.9 500.2,239.8 504.2,242.6 508.3,245.4 512.2,248.3 515.9,251.1" fill="#2a8" opacity="0.5" stroke="#2a8" stroke-width="1"/>
<line x1="493.6" y1="144.2622051804109" x2="583.1" y2="144.2622051804109" stroke="#114" stroke-width="2"/>
<circle cx="538.3333333333333" cy="227.39029754814746" r="2.4" fill="#114"/>
<text x="538.3333333333333" y="61.433962264150935" text-anchor="middle" font-size="11">1.59</text>
<text x="538.3333333333333" y="376" text-anchor="middle" font-size="12">zhemv</text>
<polygon points="680.2,259.5 682.3,257.0 685.1,254.4 688.4,251.8 692.3,249.3 696.7,246.7 701.5,244.1 706.3,241.6 711.0,239.0 715.4,236.4 719.2,233.8 722.4,231.3 724.8,228.7 726.6,226.1 727.8,223.6 728.5,221.0 729.1,218.4 729.5,215.9 730.0,213.3 730.6,210.7 731.2,208.1 731.9,205.6 732.3,203.0 732.4,200.4 732.0,197.9 731.1,195.3 729.5,192.7 727.3,190.1 724.7,187.6 721.8,185.0 718.7,182.4 715.6,179.9 712.8,177.3 710.3,174.7 708.1,172.2 706.4,169.6 705.0,167.0 703.9,164.4 703.0,161.9 702.2,159.3 701.6,156.7 701.0,154.2 700.4,151.6 699.8,149.0 699.3,146.5 698.6,143.9 697.9,141.3 697.0,138.7 695.9,136.2 694.7,133.6 693.3,131.0 691.8,128.5 690.1,125.9 688.4,123.3 686.8,120.8 685.2,118.2 683.8,115.6 682.6,113.0 681.5,110.5 680.6,107.9 679.8,105.3 679.2,102.8 678.6,100.2 678.1,97.6 677.7,95.1 677.3,92.5 677.0,89.9 676.6,87.3 676.3,84.8 676.0,82.2 675.8,79.6 675.6,77.1 674.4,77.1 674.2,79.6 674.0,82.2 673.7,84.8 673.4,87.3 673.0,89.9 672.7,92.5 672.3,95.1 671.9,97.6 671.4,100.2 670.8,102.8 670.2,105.3 669.4,107.9 668.5,110.5 667.4,113.0 666.2,115.6 664.8,118.2 663.2,120.8 661.6,123.3 659.9,125.9 658.2,128.5 656.7,131.0 655.3,133.6 654.1,136.2 653.0,138.7 652.1,141.3 651.4,143.9 650.7,146.5 650.2,149.0 649.6,151.6 649.0,154.2 648.4,156.7 647.8,159.3 647.0,161.9 646.1,164.4 645.0,167.0 643.6,169.6 641.9,172.2 639.7,174.7 637.2,177.3 634.4,179.9 631.3,182.4 628.2,185.0 625.3,187.6 622.7,190.1 620.5,192.7 618.9,195.3 618.0,197.9 617.6,200.4 617.7,203.0 618.1,205.6 618.8,208.1 619.4,210.7 620.0,213.3 620.5,215.9 620.9,218.4 621.5,221.0 622.2,223.6 623.4,226.1 625.2,228.7 627.6,231.3 630.8,233.8 634.6,236.4 639.0,239.0 643.7,241.6 648.5,244.1 653.3,246.7 657.7,249.3 661.6,251.8 664.9,254.4 667.7,257.0 669.8,259.5" fill="#d33" opacity="0.5" stroke="#d33" stroke-width="1"/>
<line x1="618.3" y1="196.81194211691508" x2="731.7" y2="196.81194211691508" stroke="#114" stroke-width="2"/>
<circle cx="675.0" cy="231.66075850364658" r="2.4" fill="#114"/>
<text x="675.0" y="88.93937889098899" text-anchor="middle" font-size="11">1.20</text>
<text x="675.0" y="376" text-anchor="middle" font-size="12">ztrmv</text>
<polygon points="812.2,258.9 812.4,257.1 812.7,255.4 813.1,253.7 813.7,251.9 814.5,250.2 815.6,248.4 817.1,246.7 819.0,244.9 821.4,243.2 824.4,241.5 827.9,239.7 831.9,238.0 836.1,236.2 840.4,234.5 844.5,232.7 848.1,231.0 851.1,229.3 853.3,227.5 854.6,225.8 855.2,224.0 855.1,222.3 854.6,220.5 853.9,218.8 853.2,217.0 852.6,215.3 852.2,213.6 852.0,211.8 852.2,210.1 852.6,208.3 853.3,206.6 854.4,204.8 855.7,203.1 857.3,201.4 859.2,199.6 861.2,197.9 863.2,196.1 865.1,194.4 866.8,192.6 868.0,190.9 868.8,189.2 869.1,187.4 868.7,185.7 867.8,183.9 866.2,182.2 864.1,180.4 861.4,178.7 858.3,177.0 854.8,175.2 851.0,173.5 847.2,171.7 843.3,170.0 839.5,168.2 835.9,166.5 832.5,164.7 829.4,163.0 826.6,161.3 824.1,159.5 821.9,157.8 820.0,156.0 818.4,154.3 817.0,152.5 816.0,150.8 815.1,149.1 814.4,147.3 813.9,145.6 813.4,143.8 813.0,142.1 812.7,140.3 812.5,138.6 812.3,136.9 812.1,135.1 811.2,135.1 811.0,136.9 810.8,138.6 810.6,140.3 810.3,142.1 809.9,143.8 809.5,145.6 808.9,147.3 808.2,149.1 807.4,150.8 806.3,152.5 805.0,154.3 803.4,156.0 801.5,157.8 799.3,159.5 796.7,161.3 793.9,163.0 790.8,164.7 787.4,166.5 783.8,168.2 780.1,170.0 776.2,171.7 772.3,173.5 768.5,175.2 765.0,177.0 761.9,178.7 759.2,180.4 757.1,182.2 755.5,183.9 754.6,185.7 754.3,187.4 754.5,189.2 755.3,190.9 756.6,192.6 758.2,194.4 760.1,196.1 762.1,197.9 764.1,199.6 766.0,201.4 767.6,203.1 769.0,204.8 770.0,206.6 770.7,208.3 771.2,210.1 771.3,211.8 771.2,213.6 770.8,215.3 770.2,217.0 769.4,218.8 768.7,220.5 768.2,222.3 768.2,224.0 768.7,225.8 770.1,227.5 772.2,229.3 775.2,231.0 778.9,232.7 782.9,234.5 787.2,236.2 791.5,238.0 795.4,239.7 799.0,241.5 801.9,243.2 804.4,244.9 806.3,246.7 807.7,248.4 808.8,250.2 809.6,251.9 810.2,253.7 810.6,255.4 810.9,257.1 811.2,258.9" fill="#2a8" opacity="0.5" stroke="#2a8" stroke-width="1"/>
<line x1="759.6" y1="195.67335181167357" x2="863.7" y2="195.67335181167357" stroke="#114" stroke-width="2"/>
<circle cx="811.6666666666666" cy="228.25072458870693" r="2.4" fill="#114"/>
<text x="811.6666666666666" y="141.30555131256256" text-anchor="middle" font-size="11">1.21</text>
<text x="811.6666666666666" y="376" text-anchor="middle" font-size="12">ztrsv</text>
<text x="450.0" y="428" text-anchor="middle" font-size="11" fill="#666">violin = ratio distribution over sizes · line = median · dark dot = worst size · green = every size ≥ gate</text>
</svg>
