<svg xmlns="http://www.w3.org/2000/svg" width="900" height="440" font-family="sans-serif">
<rect width="900" height="440" fill="white"/>
<text x="450.0" y="28" text-anchor="middle" font-size="18" font-weight="bold">BLAS-1: PureBLAS / OpenBLAS (AVX-512, 1 thread, Float64)</text>
<line x1="60" y1="358.0" x2="880" y2="358.0" stroke="#eee"/>
<text x="52" y="362.0" text-anchor="end" font-size="11" fill="#666">0×</text>
<line x1="60" y1="346.8856708686926" x2="880" y2="346.8856708686926" stroke="#eee"/>
<text x="52" y="350.8856708686926" text-anchor="end" font-size="11" fill="#666">0.5×</text>
<line x1="60" y1="335.7713417373853" x2="880" y2="335.7713417373853" stroke="#eee"/>
<text x="52" y="339.7713417373853" text-anchor="end" font-size="11" fill="#666">1×</text>
<line x1="60" y1="324.6570126060779" x2="880" y2="324.6570126060779" stroke="#eee"/>
<text x="52" y="328.6570126060779" text-anchor="end" font-size="11" fill="#666">1.5×</text>
<line x1="60" y1="335.7713417373853" x2="880" y2="335.7713417373853" stroke="#888" stroke-width="1"/>
<line x1="60" y1="336.6604880678899" x2="880" y2="336.6604880678899" stroke="#d33" stroke-width="1.5" stroke-dasharray="6 4"/>
<text x="880" y="331.6604880678899" text-anchor="end" font-size="11" fill="#d33">0.96× gate</text>
<polygon points="128.3,341.5 128.4,341.4 128.4,341.2 128.4,341.1 128.5,340.9 128.6,340.8 128.7,340.7 128.7,340.5 128.7,340.4 128.6,340.2 128.6,340.1 128.5,340.0 128.5,339.8 128.5,339.7 128.6,339.6 128.7,339.4 128.9,339.3 129.0,339.1 129.2,339.0 129.5,338.9 129.8,338.7 130.3,338.6 130.8,338.4 131.1,338.3 131.2,338.2 131.1,338.0 130.8,337.9 130.4,337.7 130.3,337.6 130.7,337.5 131.6,337.3 133.3,337.2 136.0,337.0 139.8,336.9 145.1,336.8 151.7,336.6 159.6,336.5 168.0,336.3 175.9,336.2 182.2,336.1 185.6,335.9 185.7,335.8 182.8,335.6 177.8,335.5 171.8,335.4 165.8,335.2 160.3,335.1 155.3,334.9 150.8,334.8 146.6,334.7 142.8,334.5 139.4,334.4 136.8,334.3 135.0,334.1 134.2,334.0 134.3,333.8 135.2,333.7 136.5,333.6 137.8,333.4 138.5,333.3 138.6,333.1 138.0,333.0 136.9,332.9 135.5,332.7 133.9,332.6 132.4,332.4 131.0,332.3 129.9,332.2 129.2,332.0 128.7,331.9 128.5,331.7 128.4,331.6 128.3,331.6 128.2,331.7 127.9,331.9 127.5,332.0 126.7,332.2 125.6,332.3 124.3,332.4 122.7,332.6 121.2,332.7 119.8,332.9 118.7,333.0 118.1,333.1 118.1,333.3 118.9,333.4 120.1,333.6 121.5,333.7 122.4,333.8 122.5,334.0 121.7,334.1 119.9,334.3 117.2,334.4 113.9,334.5 110.0,334.7 105.8,334.8 101.3,334.9 96.4,335.1 90.9,335.2 84.9,335.4 78.9,335.5 73.9,335.6 70.9,335.8 71.1,335.9 74.5,336.1 80.7,336.2 88.7,336.3 97.1,336.5 104.9,336.6 111.6,336.8 116.8,336.9 120.7,337.0 123.4,337.2 125.1,337.3 126.0,337.5 126.3,337.6 126.2,337.7 125.9,337.9 125.6,338.0 125.4,338.2 125.6,338.3 125.9,338.4 126.4,338.6 126.8,338.7 127.2,338.9 127.4,339.0 127.6,339.1 127.8,339.3 127.9,339.4 128.1,339.6 128.2,339.7 128.2,339.8 128.2,340.0 128.1,340.1 128.0,340.2 128.0,340.4 128.0,340.5 128.0,340.7 128.1,340.8 128.2,340.9 128.2,341.1 128.3,341.2 128.3,341.4 128.3,341.5" fill="#2a8" opacity="0.5" stroke="#2a8" stroke-width="1"/>
<line x1="71.6" y1="335.7419334944896" x2="185.1" y2="335.7419334944896" stroke="#114" stroke-width="2"/>
<circle cx="128.33333333333331" cy="336.435662919312" r="2.4" fill="#114"/>
<text x="128.33333333333331" y="326.5967075692559" text-anchor="middle" font-size="11">1.00</text>
<text x="128.33333333333331" y="376" text-anchor="middle" font-size="12">axpy</text>
<polygon points="265.0,342.1 265.0,342.0 265.0,341.9 265.0,341.7 265.0,341.6 265.1,341.4 265.3,341.3 265.4,341.2 265.3,341.0 265.1,340.9 265.0,340.7 265.0,340.6 265.0,340.4 265.0,340.3 265.0,340.2 265.0,340.0 265.0,339.9 265.0,339.7 265.0,339.6 265.0,339.5 265.1,339.3 265.3,339.2 265.4,339.0 265.4,338.9 265.2,338.7 265.1,338.6 265.3,338.5 265.5,338.3 265.7,338.2 265.6,338.0 265.4,337.9 265.1,337.8 265.1,337.6 265.1,337.5 265.3,337.3 265.5,337.2 265.8,337.0 267.0,336.9 269.7,336.8 273.6,336.6 279.2,336.5 289.1,336.3 303.3,336.2 316.1,336.1 322.4,335.9 322.4,335.8 319.3,335.6 315.3,335.5 307.4,335.3 293.5,335.2 279.2,335.1 270.4,334.9 266.6,334.8 265.4,334.6 265.1,334.5 265.0,334.4 265.0,334.2 265.0,334.1 265.0,333.9 265.0,333.8 265.0,333.6 265.0,333.5 265.1,333.4 265.3,333.2 265.4,333.1 265.3,332.9 265.1,332.8 265.0,332.7 265.0,332.5 265.0,332.4 265.0,332.2 265.0,332.1 265.0,332.1 265.0,332.2 265.0,332.4 265.0,332.5 265.0,332.7 264.9,332.8 264.7,332.9 264.6,333.1 264.7,333.2 264.9,333.4 265.0,333.5 265.0,333.6 265.0,333.8 265.0,333.9 265.0,334.1 265.0,334.2 265.0,334.4 264.9,334.5 264.6,334.6 263.4,334.8 259.6,334.9 250.8,335.1 236.5,335.2 222.6,335.3 214.7,335.5 210.7,335.6 207.6,335.8 207.6,335.9 213.9,336.1 226.7,336.2 240.9,336.3 250.8,336.5 256.4,336.6 260.3,336.8 263.0,336.9 264.2,337.0 264.5,337.2 264.7,337.3 264.9,337.5 264.9,337.6 264.9,337.8 264.6,337.9 264.4,338.0 264.3,338.2 264.5,338.3 264.7,338.5 264.9,338.6 264.8,338.7 264.6,338.9 264.6,339.0 264.7,339.2 264.9,339.3 265.0,339.5 265.0,339.6 265.0,339.7 265.0,339.9 265.0,340.0 265.0,340.2 265.0,340.3 265.0,340.4 265.0,340.6 265.0,340.7 264.9,340.9 264.7,341.0 264.6,341.2 264.7,341.3 264.9,341.4 265.0,341.6 265.0,341.7 265.0,341.9 265.0,342.0 265.0,342.1" fill="#2a8" opacity="0.5" stroke="#2a8" stroke-width="1"/>
<line x1="207.3" y1="335.7937036477987" x2="322.7" y2="335.7937036477987" stroke="#114" stroke-width="2"/>
<circle cx="265.0" cy="336.19829856545016" r="2.4" fill="#114"/>
<text x="265.0" y="327.09458550805726" text-anchor="middle" font-size="11">1.00</text>
<text x="265.0" y="376" text-anchor="middle" font-size="12">dot</text>
<polygon points="403.7,310.5 404.6,306.8 405.7,303.1 407.2,299.5 409.1,295.8 411.4,292.1 414.1,288.5 417.2,284.8 420.7,281.1 424.6,277.4 428.6,273.8 432.6,270.1 436.5,266.4 440.1,262.8 443.3,259.1 445.9,255.4 447.9,251.8 449.3,248.1 450.1,244.4 450.5,240.8 450.6,237.1 450.7,233.4 450.8,229.8 451.1,226.1 451.7,222.4 452.6,218.8 453.8,215.1 455.2,211.4 456.7,207.7 457.9,204.1 458.8,200.4 459.1,196.7 458.6,193.1 457.2,189.4 454.8,185.7 451.6,182.1 447.6,178.4 443.0,174.7 438.1,171.1 433.1,167.4 428.2,163.7 423.8,160.1 419.8,156.4 416.6,152.7 414.1,149.0 412.4,145.4 411.4,141.7 411.2,138.0 411.6,134.4 412.6,130.7 414.0,127.0 415.9,123.4 418.2,119.7 420.7,116.0 423.3,112.4 426.1,108.7 428.8,105.0 431.3,101.4 433.6,97.7 435.4,94.0 436.8,90.4 437.5,86.7 437.5,83.0 436.9,79.3 435.5,75.7 433.5,72.0 431.0,68.3 428.0,64.7 424.9,61.0 421.6,57.3 418.4,53.7 415.3,50.0 388.0,50.0 385.0,53.7 381.7,57.3 378.5,61.0 375.3,64.7 372.4,68.3 369.8,72.0 367.8,75.7 366.5,79.3 365.8,83.0 365.8,86.7 366.6,90.4 367.9,94.0 369.8,97.7 372.0,101.4 374.6,105.0 377.3,108.7 380.0,112.4 382.7,116.0 385.2,119.7 387.4,123.4 389.3,127.0 390.8,130.7 391.7,134.4 392.1,138.0 391.9,141.7 390.9,145.4 389.2,149.0 386.7,152.7 383.5,156.4 379.6,160.1 375.1,163.7 370.2,167.4 365.2,171.1 360.3,174.7 355.7,178.4 351.7,182.1 348.5,185.7 346.2,189.4 344.8,193.1 344.3,196.7 344.5,200.4 345.4,204.1 346.7,207.7 348.1,211.4 349.5,215.1 350.8,218.8 351.7,222.4 352.3,226.1 352.6,229.8 352.7,233.4 352.7,237.1 352.8,240.8 353.2,244.4 354.0,248.1 355.4,251.8 357.4,255.4 360.0,259.1 363.2,262.8 366.8,266.4 370.7,270.1 374.8,273.8 378.8,277.4 382.6,281.1 386.1,284.8 389.3,288.5 392.0,292.1 394.2,295.8 396.1,299.5 397.6,303.1 398.7,306.8 399.6,310.5" fill="#2a8" opacity="0.5" stroke="#2a8" stroke-width="1"/>
<line x1="347.0" y1="187.86412382979827" x2="456.3" y2="187.86412382979827" stroke="#114" stroke-width="2"/>
<circle cx="401.66666666666663" cy="254.4984751089408" r="2.4" fill="#114"/>
<text x="401.66666666666663" y="61.433962264150935" text-anchor="middle" font-size="11">7.65</text>
<text x="401.66666666666663" y="376" text-anchor="middle" font-size="12">nrm2</text>
<polygon points="538.5,339.7 538.6,339.5 538.8,339.2 539.1,339.0 539.7,338.8 540.6,338.5 542.1,338.3 544.4,338.1 547.6,337.8 551.9,337.6 557.3,337.4 563.9,337.1 571.2,336.9 578.6,336.7 585.5,336.4 591.1,336.2 594.6,336.0 595.7,335.7 594.2,335.5 590.4,335.3 584.8,335.0 578.1,334.8 571.2,334.6 564.8,334.3 559.3,334.1 555.0,333.9 552.0,333.6 550.1,333.4 549.1,333.1 548.6,332.9 548.5,332.7 548.5,332.4 548.3,332.2 548.0,332.0 547.5,331.7 546.7,331.5 545.8,331.3 544.8,331.0 543.7,330.8 542.7,330.6 541.8,330.3 541.0,330.1 540.4,329.9 540.1,329.6 539.9,329.4 540.1,329.2 540.5,328.9 541.3,328.7 542.3,328.5 543.5,328.2 545.0,328.0 546.4,327.8 547.8,327.5 548.8,327.3 549.5,327.1 549.6,326.8 549.3,326.6 548.4,326.4 547.3,326.1 545.9,325.9 544.4,325.7 543.1,325.4 541.9,325.2 540.9,324.9 540.1,324.7 539.6,324.5 539.1,324.2 538.9,324.0 538.7,323.8 538.6,323.5 538.5,323.3 538.4,323.1 538.2,323.1 538.2,323.3 538.1,323.5 538.0,323.8 537.8,324.0 537.5,324.2 537.1,324.5 536.5,324.7 535.8,324.9 534.8,325.2 533.6,325.4 532.2,325.7 530.8,325.9 529.4,326.1 528.2,326.4 527.4,326.6 527.0,326.8 527.2,327.1 527.8,327.3 528.9,327.5 530.2,327.8 531.7,328.0 533.1,328.2 534.4,328.5 535.4,328.7 536.1,328.9 536.6,329.2 536.7,329.4 536.6,329.6 536.2,329.9 535.7,330.1 534.9,330.3 534.0,330.6 532.9,330.8 531.9,331.0 530.9,331.3 529.9,331.5 529.2,331.7 528.7,332.0 528.3,332.2 528.2,332.4 528.2,332.7 528.0,332.9 527.6,333.1 526.5,333.4 524.7,333.6 521.6,333.9 517.4,334.1 511.9,334.3 505.4,334.6 498.5,334.8 491.9,335.0 486.3,335.3 482.4,335.5 480.9,335.7 482.0,336.0 485.6,336.2 491.2,336.4 498.1,336.7 505.5,336.9 512.8,337.1 519.3,337.4 524.8,337.6 529.1,337.8 532.3,338.1 534.5,338.3 536.0,338.5 537.0,338.8 537.5,339.0 537.9,339.2 538.1,339.5 538.2,339.7" fill="#2a8" opacity="0.5" stroke="#2a8" stroke-width="1"/>
<line x1="481.0" y1="335.6995343442391" x2="595.7" y2="335.6995343442391" stroke="#114" stroke-width="2"/>
<circle cx="538.3333333333333" cy="335.8860454551023" r="2.4" fill="#114"/>
<text x="538.3333333333333" y="318.71947923990984" text-anchor="middle" font-size="11">1.00</text>
<text x="538.3333333333333" y="376" text-anchor="middle" font-size="12">asum</text>
<polygon points="675.1,338.2 675.2,338.1 675.4,338.0 675.7,337.9 676.1,337.8 676.5,337.7 677.1,337.6 677.9,337.5 678.6,337.4 679.4,337.3 680.1,337.2 680.7,337.1 681.2,337.0 681.7,336.9 682.2,336.8 682.8,336.7 683.7,336.6 684.9,336.5 686.5,336.4 688.6,336.3 691.1,336.2 694.3,336.1 698.2,336.0 702.8,335.9 708.1,335.8 713.8,335.7 719.6,335.6 724.8,335.5 729.0,335.4 731.6,335.3 732.4,335.2 731.5,335.1 729.1,335.0 725.8,334.9 722.1,334.8 718.3,334.7 714.6,334.6 711.1,334.5 707.6,334.4 704.2,334.3 700.7,334.2 697.2,334.1 693.7,334.0 690.5,333.9 687.8,333.8 685.6,333.7 684.1,333.6 683.4,333.5 683.5,333.4 684.4,333.3 685.8,333.2 687.4,333.1 688.7,333.0 689.6,332.9 689.7,332.8 689.1,332.7 687.9,332.6 686.3,332.5 684.6,332.4 683.0,332.3 681.7,332.2 680.7,332.1 679.8,332.0 679.1,331.9 678.4,331.8 677.7,331.7 677.1,331.6 676.5,331.5 676.0,331.4 675.7,331.3 675.4,331.2 675.2,331.1 674.8,331.1 674.6,331.2 674.3,331.3 674.0,331.4 673.5,331.5 672.9,331.6 672.3,331.7 671.6,331.8 670.9,331.9 670.2,332.0 669.3,332.1 668.3,332.2 667.0,332.3 665.4,332.4 663.7,332.5 662.1,332.6 660.9,332.7 660.3,332.8 660.4,332.9 661.3,333.0 662.6,333.1 664.2,333.2 665.6,333.3 666.5,333.4 666.6,333.5 665.9,333.6 664.4,333.7 662.2,333.8 659.5,333.9 656.3,334.0 652.8,334.1 649.3,334.2 645.8,334.3 642.4,334.4 638.9,334.5 635.4,334.6 631.7,334.7 627.9,334.8 624.2,334.9 620.9,335.0 618.5,335.1 617.6,335.2 618.4,335.3 621.0,335.4 625.2,335.5 630.4,335.6 636.2,335.7 641.9,335.8 647.2,335.9 651.8,336.0 655.7,336.1 658.9,336.2 661.4,336.3 663.5,336.4 665.1,336.5 666.3,336.6 667.2,336.7 667.8,336.8 668.3,336.9 668.8,337.0 669.3,337.1 669.9,337.2 670.6,337.3 671.4,337.4 672.1,337.5 672.9,337.6 673.5,337.7 673.9,337.8 674.3,337.9 674.6,338.0 674.8,338.1 674.9,338.2" fill="#2a8" opacity="0.5" stroke="#2a8" stroke-width="1"/>
<line x1="618.4" y1="335.06532696308744" x2="731.6" y2="335.06532696308744" stroke="#114" stroke-width="2"/>
<circle cx="675.0" cy="335.8008213952116" r="2.4" fill="#114"/>
<text x="675.0" y="325.784144912615" text-anchor="middle" font-size="11">1.03</text>
<text x="675.0" y="376" text-anchor="middle" font-size="12">scal</text>
<polygon points="813.2,342.6 814.0,342.2 815.1,341.8 816.5,341.4 818.1,341.0 820.1,340.6 822.4,340.2 824.9,339.8 827.6,339.4 830.4,339.0 833.2,338.6 836.1,338.3 839.0,337.9 841.8,337.5 844.7,337.1 847.5,336.7 850.3,336.3 853.0,335.9 855.6,335.5 857.9,335.1 859.9,334.7 861.4,334.3 862.5,333.9 863.2,333.5 863.5,333.1 863.4,332.7 863.0,332.3 862.6,331.9 862.3,331.5 862.0,331.1 862.1,330.7 862.5,330.3 863.1,329.9 864.1,329.6 865.2,329.2 866.4,328.8 867.5,328.4 868.4,328.0 868.9,327.6 869.1,327.2 868.8,326.8 868.1,326.4 867.1,326.0 865.9,325.6 864.6,325.2 863.3,324.8 862.2,324.4 861.2,324.0 860.5,323.6 859.9,323.2 859.3,322.8 858.7,322.4 857.8,322.0 856.6,321.6 854.8,321.2 852.3,320.8 849.2,320.5 845.5,320.1 841.4,319.7 837.1,319.3 832.8,318.9 828.7,318.5 825.1,318.1 821.9,317.7 819.2,317.3 817.1,316.9 815.5,316.5 814.3,316.1 813.4,315.7 812.8,315.3 812.4,314.9 812.1,314.5 811.2,314.5 810.9,314.9 810.5,315.3 809.9,315.7 809.0,316.1 807.8,316.5 806.2,316.9 804.1,317.3 801.5,317.7 798.3,318.1 794.6,318.5 790.5,318.9 786.2,319.3 781.9,319.7 777.8,320.1 774.1,320.5 771.0,320.8 768.6,321.2 766.8,321.6 765.5,322.0 764.6,322.4 764.0,322.8 763.5,323.2 762.8,323.6 762.1,324.0 761.1,324.4 760.0,324.8 758.7,325.2 757.5,325.6 756.3,326.0 755.3,326.4 754.6,326.8 754.3,327.2 754.4,327.6 754.9,328.0 755.8,328.4 756.9,328.8 758.1,329.2 759.2,329.6 760.2,329.9 760.9,330.3 761.2,330.7 761.3,331.1 761.1,331.5 760.7,331.9 760.3,332.3 760.0,332.7 759.9,333.1 760.1,333.5 760.8,333.9 761.9,334.3 763.5,334.7 765.5,335.1 767.8,335.5 770.3,335.9 773.0,336.3 775.8,336.7 778.7,337.1 781.5,337.5 784.4,337.9 787.2,338.3 790.1,338.6 793.0,339.0 795.8,339.4 798.4,339.8 800.9,340.2 803.2,340.6 805.2,341.0 806.9,341.4 808.2,341.8 809.3,342.2 810.1,342.6" fill="#2a8" opacity="0.5" stroke="#2a8" stroke-width="1"/>
<line x1="755.8" y1="328.3843430465949" x2="867.5" y2="328.3843430465949" stroke="#114" stroke-width="2"/>
<circle cx="811.6666666666666" cy="331.4401746666994" r="2.4" fill="#114"/>
<text x="811.6666666666666" y="311.2734326572776" text-anchor="middle" font-size="11">1.33</text>
<text x="811.6666666666666" y="376" text-anchor="middle" font-size="12">iamax</text>
<text x="450.0" y="428" text-anchor="middle" font-size="11" fill="#666">violin = ratio distribution over sizes · line = median · dark dot = worst size · green = every size ≥ gate</text>
</svg>
