<svg xmlns="http://www.w3.org/2000/svg" width="900" height="440" font-family="sans-serif">
<rect width="900" height="440" fill="white"/>
<text x="450.0" y="28" text-anchor="middle" font-size="18" font-weight="bold">BLAS-2: PureBLAS / OpenBLAS (AVX-512, 1 thread, Float64)</text>
<line x1="60" y1="358.0" x2="880" y2="358.0" stroke="#eee"/>
<text x="52" y="362.0" text-anchor="end" font-size="11" fill="#666">0×</text>
<line x1="60" y1="291.8383900950157" x2="880" y2="291.8383900950157" stroke="#eee"/>
<text x="52" y="295.8383900950157" text-anchor="end" font-size="11" fill="#666">0.5×</text>
<line x1="60" y1="225.67678019003148" x2="880" y2="225.67678019003148" stroke="#eee"/>
<text x="52" y="229.67678019003148" text-anchor="end" font-size="11" fill="#666">1×</text>
<line x1="60" y1="159.51517028504725" x2="880" y2="159.51517028504725" stroke="#eee"/>
<text x="52" y="163.51517028504725" text-anchor="end" font-size="11" fill="#666">1.5×</text>
<line x1="60" y1="225.67678019003148" x2="880" y2="225.67678019003148" stroke="#888" stroke-width="1"/>
<line x1="60" y1="230.9697089824302" x2="880" y2="230.9697089824302" stroke="#d33" stroke-width="1.5" stroke-dasharray="6 4"/>
<text x="880" y="225.9697089824302" text-anchor="end" font-size="11" fill="#d33">0.96× gate</text>
<polygon points="109.5,261.3 110.8,258.4 112.5,255.4 114.5,252.4 116.9,249.5 119.6,246.5 122.5,243.5 125.7,240.6 128.9,237.6 132.1,234.6 135.1,231.7 137.9,228.7 140.2,225.7 142.0,222.8 143.2,219.8 143.8,216.8 143.8,213.9 143.3,210.9 142.3,208.0 140.8,205.0 139.1,202.0 137.2,199.1 135.1,196.1 133.0,193.1 130.8,190.2 128.6,187.2 126.5,184.2 124.4,181.3 122.3,178.3 120.3,175.3 118.4,172.4 116.6,169.4 114.9,166.4 113.3,163.5 111.9,160.5 110.6,157.5 109.6,154.6 108.7,151.6 108.0,148.6 107.4,145.7 107.1,142.7 106.8,139.7 106.7,136.8 106.7,133.8 106.8,130.8 107.0,127.9 107.3,124.9 107.7,121.9 108.1,119.0 108.5,116.0 109.0,113.0 109.5,110.1 110.1,107.1 110.6,104.2 111.0,101.2 111.5,98.2 111.9,95.3 112.1,92.3 112.3,89.3 112.4,86.4 112.4,83.4 112.2,80.4 111.9,77.5 111.5,74.5 111.0,71.5 110.5,68.6 109.9,65.6 109.3,62.6 108.7,59.7 108.2,56.7 107.7,53.7 107.2,50.8 103.9,50.8 103.4,53.7 102.9,56.7 102.4,59.7 101.8,62.6 101.2,65.6 100.6,68.6 100.1,71.5 99.6,74.5 99.2,77.5 98.9,80.4 98.8,83.4 98.7,86.4 98.8,89.3 99.0,92.3 99.3,95.3 99.6,98.2 100.1,101.2 100.5,104.2 101.1,107.1 101.6,110.1 102.1,113.0 102.6,116.0 103.0,119.0 103.5,121.9 103.8,124.9 104.1,127.9 104.3,130.8 104.4,133.8 104.4,136.8 104.3,139.7 104.1,142.7 103.7,145.7 103.1,148.6 102.4,151.6 101.5,154.6 100.5,157.5 99.2,160.5 97.8,163.5 96.2,166.4 94.5,169.4 92.7,172.4 90.8,175.3 88.8,178.3 86.7,181.3 84.6,184.2 82.5,187.2 80.3,190.2 78.2,193.1 76.0,196.1 73.9,199.1 72.0,202.0 70.3,205.0 68.9,208.0 67.8,210.9 67.3,213.9 67.3,216.8 67.9,219.8 69.1,222.8 70.9,225.7 73.2,228.7 76.0,231.7 79.0,234.6 82.2,237.6 85.4,240.6 88.6,243.5 91.5,246.5 94.2,249.5 96.6,252.4 98.6,255.4 100.3,258.4 101.7,261.3" fill="#2a8" opacity="0.5" stroke="#2a8" stroke-width="1"/>
<line x1="67.4" y1="213.08901482492985" x2="143.7" y2="213.08901482492985" stroke="#114" stroke-width="2"/>
<circle cx="105.55555555555556" cy="230.51158533528303" r="2.4" fill="#114"/>
<text x="105.55555555555556" y="65.35942475645199" text-anchor="middle" font-size="11">1.10</text>
<text x="105.55555555555556" y="376" text-anchor="middle" font-size="12">gemvN</text>
<polygon points="197.0,244.6 197.2,243.5 197.4,242.4 197.8,241.3 198.2,240.1 198.8,239.0 199.5,237.9 200.5,236.8 201.7,235.6 203.3,234.5 205.2,233.4 207.4,232.3 210.1,231.2 213.0,230.0 216.2,228.9 219.6,227.8 223.0,226.7 226.2,225.5 229.2,224.4 231.6,223.3 233.5,222.2 234.6,221.1 234.9,219.9 234.5,218.8 233.5,217.7 231.9,216.6 229.9,215.4 227.7,214.3 225.4,213.2 223.2,212.1 221.0,211.0 218.9,209.8 217.0,208.7 215.2,207.6 213.5,206.5 211.9,205.3 210.5,204.2 209.2,203.1 208.3,202.0 207.7,200.9 207.4,199.7 207.5,198.6 207.9,197.5 208.7,196.4 209.7,195.2 210.9,194.1 212.1,193.0 213.1,191.9 214.0,190.8 214.5,189.6 214.5,188.5 214.2,187.4 213.4,186.3 212.2,185.1 210.7,184.0 209.0,182.9 207.3,181.8 205.6,180.7 204.1,179.5 202.7,178.4 201.5,177.3 200.5,176.2 199.7,175.1 199.0,173.9 198.5,172.8 198.1,171.7 197.8,170.6 197.6,169.4 197.4,168.3 197.2,167.2 197.1,166.1 197.0,165.0 196.4,165.0 196.3,166.1 196.1,167.2 196.0,168.3 195.8,169.4 195.5,170.6 195.2,171.7 194.8,172.8 194.3,173.9 193.7,175.1 192.9,176.2 191.9,177.3 190.7,178.4 189.3,179.5 187.7,180.7 186.0,181.8 184.3,182.9 182.6,184.0 181.2,185.1 180.0,186.3 179.2,187.4 178.8,188.5 178.9,189.6 179.4,190.8 180.2,191.9 181.3,193.0 182.4,194.1 183.6,195.2 184.6,196.4 185.4,197.5 185.8,198.6 185.9,199.7 185.7,200.9 185.0,202.0 184.1,203.1 182.9,204.2 181.5,205.3 179.9,206.5 178.2,207.6 176.3,208.7 174.4,209.8 172.3,211.0 170.2,212.1 167.9,213.2 165.6,214.3 163.4,215.4 161.5,216.6 159.9,217.7 158.8,218.8 158.4,219.9 158.7,221.1 159.9,222.2 161.7,223.3 164.2,224.4 167.1,225.5 170.3,226.7 173.7,227.8 177.1,228.9 180.3,230.0 183.3,231.2 185.9,232.3 188.2,233.4 190.1,234.5 191.6,235.6 192.9,236.8 193.8,237.9 194.6,239.0 195.1,240.1 195.6,241.3 195.9,242.4 196.1,243.5 196.3,244.6" fill="#2a8" opacity="0.5" stroke="#2a8" stroke-width="1"/>
<line x1="161.0" y1="216.8470617736774" x2="232.3" y2="216.8470617736774" stroke="#114" stroke-width="2"/>
<circle cx="196.66666666666669" cy="224.8712032963905" r="2.4" fill="#114"/>
<text x="196.66666666666669" y="166.87532085578692" text-anchor="middle" font-size="11">1.07</text>
<text x="196.66666666666669" y="376" text-anchor="middle" font-size="12">gemvT</text>
<polygon points="287.9,234.2 288.0,233.0 288.4,231.9 289.2,230.7 290.7,229.5 293.0,228.3 296.4,227.1 300.5,225.9 305.1,224.8 309.5,223.6 313.5,222.4 317.0,221.2 320.1,220.0 322.8,218.8 324.9,217.6 326.0,216.5 325.9,215.3 324.5,214.1 321.8,212.9 318.3,211.7 314.5,210.5 310.6,209.4 307.0,208.2 303.9,207.0 301.3,205.8 299.2,204.6 297.8,203.4 296.7,202.3 296.0,201.1 295.3,199.9 294.6,198.7 293.8,197.5 292.8,196.3 291.7,195.2 290.6,194.0 289.6,192.8 288.9,191.6 288.4,190.4 288.1,189.2 287.9,188.1 287.8,186.9 287.8,185.7 287.8,184.5 287.8,183.3 287.8,182.1 287.8,180.9 287.8,179.8 287.8,178.6 287.8,177.4 287.8,176.2 287.8,175.0 287.8,173.8 287.8,172.7 287.8,171.5 287.8,170.3 287.8,169.1 287.8,167.9 287.8,166.7 287.8,165.6 287.9,164.4 288.0,163.2 288.1,162.0 288.2,160.8 288.3,159.6 288.4,158.5 288.3,157.3 288.2,156.1 288.1,154.9 288.0,153.7 287.9,152.5 287.8,151.3 287.8,150.2 287.8,150.2 287.7,151.3 287.7,152.5 287.6,153.7 287.4,154.9 287.3,156.1 287.2,157.3 287.2,158.5 287.2,159.6 287.3,160.8 287.4,162.0 287.6,163.2 287.7,164.4 287.7,165.6 287.7,166.7 287.8,167.9 287.8,169.1 287.8,170.3 287.8,171.5 287.8,172.7 287.8,173.8 287.8,175.0 287.8,176.2 287.8,177.4 287.8,178.6 287.8,179.8 287.8,180.9 287.8,182.1 287.8,183.3 287.8,184.5 287.8,185.7 287.7,186.9 287.6,188.1 287.5,189.2 287.2,190.4 286.7,191.6 285.9,192.8 285.0,194.0 283.9,195.2 282.8,196.3 281.8,197.5 280.9,198.7 280.2,199.9 279.6,201.1 278.8,202.3 277.8,203.4 276.3,204.6 274.3,205.8 271.7,207.0 268.5,208.2 264.9,209.4 261.1,210.5 257.3,211.7 253.8,212.9 251.1,214.1 249.6,215.3 249.5,216.5 250.7,217.6 252.8,218.8 255.5,220.0 258.5,221.2 262.0,222.4 266.0,223.6 270.5,224.8 275.0,225.9 279.2,227.1 282.5,228.3 284.9,229.5 286.3,230.7 287.1,231.9 287.5,233.0 287.7,234.2" fill="#2a8" opacity="0.5" stroke="#2a8" stroke-width="1"/>
<line x1="249.7" y1="215.13020867600187" x2="325.8" y2="215.13020867600187" stroke="#114" stroke-width="2"/>
<circle cx="287.77777777777777" cy="223.27540611011892" r="2.4" fill="#114"/>
<text x="287.77777777777777" y="152.51293704815902" text-anchor="middle" font-size="11">1.08</text>
<text x="287.77777777777777" y="376" text-anchor="middle" font-size="12">ger</text>
<polygon points="379.9,221.5 380.3,220.6 380.9,219.7 381.6,218.8 382.5,217.9 383.7,217.0 385.0,216.1 386.6,215.1 388.4,214.2 390.4,213.3 392.5,212.4 394.9,211.5 397.3,210.6 399.8,209.7 402.3,208.8 404.8,207.9 407.1,207.0 409.4,206.1 411.4,205.2 413.2,204.3 414.6,203.4 415.8,202.5 416.6,201.5 417.0,200.6 417.2,199.7 417.0,198.8 416.7,197.9 416.1,197.0 415.5,196.1 414.9,195.2 414.2,194.3 413.6,193.4 413.1,192.5 412.6,191.6 412.1,190.7 411.6,189.8 411.1,188.9 410.6,187.9 409.8,187.0 408.9,186.1 407.9,185.2 406.6,184.3 405.3,183.4 403.9,182.5 402.5,181.6 401.1,180.7 399.9,179.8 398.8,178.9 397.8,178.0 397.0,177.1 396.3,176.2 395.6,175.2 394.8,174.3 394.0,173.4 393.0,172.5 391.9,171.6 390.8,170.7 389.6,169.8 388.4,168.9 387.2,168.0 386.1,167.1 385.1,166.2 384.2,165.3 383.3,164.4 382.6,163.5 382.0,162.6 381.4,161.6 380.9,160.7 380.5,159.8 380.1,158.9 379.8,158.0 379.6,157.1 378.2,157.1 378.0,158.0 377.7,158.9 377.3,159.8 376.9,160.7 376.4,161.6 375.8,162.6 375.2,163.5 374.4,164.4 373.6,165.3 372.7,166.2 371.7,167.1 370.6,168.0 369.4,168.9 368.2,169.8 367.0,170.7 365.8,171.6 364.8,172.5 363.8,173.4 363.0,174.3 362.2,175.2 361.5,176.2 360.7,177.1 359.9,178.0 359.0,178.9 357.9,179.8 356.7,180.7 355.3,181.6 353.9,182.5 352.5,183.4 351.1,184.3 349.9,185.2 348.8,186.1 348.0,187.0 347.2,187.9 346.6,188.9 346.1,189.8 345.7,190.7 345.2,191.6 344.7,192.5 344.2,193.4 343.6,194.3 342.9,195.2 342.3,196.1 341.6,197.0 341.1,197.9 340.8,198.8 340.6,199.7 340.8,200.6 341.2,201.5 342.0,202.5 343.1,203.4 344.6,204.3 346.4,205.2 348.4,206.1 350.6,207.0 353.0,207.9 355.5,208.8 358.0,209.7 360.5,210.6 362.9,211.5 365.2,212.4 367.4,213.3 369.4,214.2 371.2,215.1 372.8,216.1 374.1,217.0 375.3,217.9 376.2,218.8 376.9,219.7 377.5,220.6 377.9,221.5" fill="#2a8" opacity="0.5" stroke="#2a8" stroke-width="1"/>
<line x1="343.6" y1="194.28134203065625" x2="414.2" y2="194.28134203065625" stroke="#114" stroke-width="2"/>
<circle cx="378.8888888888889" cy="207.89032263752947" r="2.4" fill="#114"/>
<text x="378.8888888888889" y="157.55655394019377" text-anchor="middle" font-size="11">1.24</text>
<text x="378.8888888888889" y="376" text-anchor="middle" font-size="12">symv</text>
<polygon points="470.4,242.4 470.6,241.0 470.8,239.5 471.2,238.0 471.8,236.6 472.5,235.1 473.4,233.6 474.5,232.1 475.9,230.7 477.6,229.2 479.6,227.7 481.8,226.2 484.2,224.8 486.7,223.3 489.1,221.8 491.3,220.3 493.2,218.9 494.7,217.4 495.9,215.9 496.7,214.4 497.4,213.0 497.9,211.5 498.3,210.0 498.9,208.5 499.6,207.1 500.5,205.6 501.6,204.1 502.8,202.7 504.1,201.2 505.5,199.7 506.8,198.2 507.7,196.8 508.3,195.3 508.2,193.8 507.3,192.3 505.8,190.9 503.5,189.4 500.6,187.9 497.4,186.4 494.2,185.0 491.1,183.5 488.4,182.0 486.3,180.5 484.8,179.1 483.7,177.6 483.1,176.1 482.8,174.6 482.5,173.2 482.2,171.7 481.8,170.2 481.1,168.8 480.2,167.3 479.1,165.8 478.0,164.3 476.8,162.9 475.7,161.4 474.7,159.9 473.8,158.4 473.2,157.0 472.6,155.5 472.2,154.0 471.9,152.5 471.6,151.1 471.4,149.6 471.2,148.1 471.0,146.6 470.9,145.2 470.7,143.7 470.6,142.2 470.4,140.7 470.3,139.3 470.2,137.8 469.8,137.8 469.7,139.3 469.6,140.7 469.4,142.2 469.3,143.7 469.1,145.2 469.0,146.6 468.8,148.1 468.6,149.6 468.4,151.1 468.1,152.5 467.8,154.0 467.4,155.5 466.8,157.0 466.2,158.4 465.3,159.9 464.3,161.4 463.2,162.9 462.0,164.3 460.9,165.8 459.8,167.3 458.9,168.8 458.2,170.2 457.8,171.7 457.5,173.2 457.2,174.6 456.9,176.1 456.3,177.6 455.2,179.1 453.7,180.5 451.6,182.0 448.9,183.5 445.8,185.0 442.6,186.4 439.4,187.9 436.5,189.4 434.2,190.9 432.7,192.3 431.8,193.8 431.7,195.3 432.3,196.8 433.2,198.2 434.5,199.7 435.9,201.2 437.2,202.7 438.4,204.1 439.5,205.6 440.4,207.1 441.1,208.5 441.7,210.0 442.1,211.5 442.6,213.0 443.3,214.4 444.1,215.9 445.3,217.4 446.8,218.9 448.7,220.3 450.9,221.8 453.3,223.3 455.8,224.8 458.2,226.2 460.4,227.7 462.4,229.2 464.1,230.7 465.5,232.1 466.6,233.6 467.5,235.1 468.2,236.6 468.8,238.0 469.2,239.5 469.4,241.0 469.6,242.4" fill="#2a8" opacity="0.5" stroke="#2a8" stroke-width="1"/>
<line x1="432.0" y1="196.263261132625" x2="508.0" y2="196.263261132625" stroke="#114" stroke-width="2"/>
<circle cx="470.0" cy="218.11060549847633" r="2.4" fill="#114"/>
<text x="470.0" y="142.13789502193407" text-anchor="middle" font-size="11">1.22</text>
<text x="470.0" y="376" text-anchor="middle" font-size="12">trmv</text>
<polygon points="561.3,249.4 561.4,248.2 561.5,247.1 561.7,246.0 561.8,244.9 562.0,243.7 562.2,242.6 562.4,241.5 562.5,240.4 562.6,239.2 562.7,238.1 562.8,237.0 563.0,235.8 563.3,234.7 563.8,233.6 564.6,232.5 565.7,231.3 567.3,230.2 569.4,229.1 571.9,228.0 574.9,226.8 578.1,225.7 581.3,224.6 584.2,223.5 586.8,222.3 588.7,221.2 590.1,220.1 591.0,219.0 591.5,217.8 591.8,216.7 592.2,215.6 592.6,214.5 593.1,213.3 593.8,212.2 594.4,211.1 595.0,210.0 595.6,208.8 596.0,207.7 596.3,206.6 596.6,205.5 596.9,204.3 597.4,203.2 598.0,202.1 598.6,200.9 599.1,199.8 599.4,198.7 599.2,197.6 598.4,196.4 597.0,195.3 594.7,194.2 591.7,193.1 588.1,191.9 584.2,190.8 580.1,189.7 576.2,188.6 572.7,187.4 569.7,186.3 567.2,185.2 565.4,184.1 564.1,182.9 563.2,181.8 562.7,180.7 562.4,179.6 562.2,178.4 562.1,177.3 562.0,176.2 561.9,175.1 561.7,173.9 561.6,172.8 561.5,171.7 561.4,170.6 561.3,169.4 560.9,169.4 560.8,170.6 560.7,171.7 560.6,172.8 560.5,173.9 560.4,175.1 560.2,176.2 560.1,177.3 560.0,178.4 559.8,179.6 559.5,180.7 559.0,181.8 558.1,182.9 556.8,184.1 555.0,185.2 552.5,186.3 549.5,187.4 546.0,188.6 542.1,189.7 538.0,190.8 534.1,191.9 530.5,193.1 527.5,194.2 525.3,195.3 523.8,196.4 523.0,197.6 522.8,198.7 523.1,199.8 523.6,200.9 524.3,202.1 524.8,203.2 525.3,204.3 525.7,205.5 526.0,206.6 526.3,207.7 526.7,208.8 527.2,210.0 527.8,211.1 528.5,212.2 529.1,213.3 529.6,214.5 530.1,215.6 530.4,216.7 530.7,217.8 531.3,219.0 532.1,220.1 533.5,221.2 535.5,222.3 538.0,223.5 540.9,224.6 544.1,225.7 547.3,226.8 550.3,228.0 552.8,229.1 554.9,230.2 556.5,231.3 557.7,232.5 558.4,233.6 558.9,234.7 559.2,235.8 559.4,237.0 559.5,238.1 559.6,239.2 559.7,240.4 559.9,241.5 560.0,242.6 560.2,243.7 560.4,244.9 560.5,246.0 560.7,247.1 560.8,248.2 560.9,249.4" fill="#2a8" opacity="0.5" stroke="#2a8" stroke-width="1"/>
<line x1="526.1" y1="207.12953412291017" x2="596.1" y2="207.12953412291017" stroke="#114" stroke-width="2"/>
<circle cx="561.1111111111111" cy="221.63305549783811" r="2.4" fill="#114"/>
<text x="561.1111111111111" y="171.3732814475374" text-anchor="middle" font-size="11">1.14</text>
<text x="561.1111111111111" y="376" text-anchor="middle" font-size="12">trsv</text>
<polygon points="655.1,233.6 656.2,231.3 657.5,229.1 659.0,226.8 660.5,224.6 661.9,222.3 663.1,220.1 664.1,217.8 664.6,215.6 664.8,213.3 664.7,211.1 664.3,208.8 663.9,206.6 663.5,204.3 663.3,202.1 663.4,199.8 663.8,197.6 664.3,195.3 665.1,193.1 665.9,190.9 666.8,188.6 667.8,186.4 668.8,184.1 670.0,181.9 671.3,179.6 673.0,177.4 675.1,175.1 677.4,172.9 680.0,170.6 682.6,168.4 685.1,166.1 687.3,163.9 689.0,161.6 690.1,159.4 690.5,157.1 690.1,154.9 689.1,152.6 687.5,150.4 685.4,148.1 682.9,145.9 680.3,143.6 677.7,141.4 675.1,139.2 672.7,136.9 670.4,134.7 668.3,132.4 666.4,130.2 664.7,127.9 663.1,125.7 661.7,123.4 660.4,121.2 659.3,118.9 658.3,116.7 657.4,114.4 656.6,112.2 655.9,109.9 655.4,107.7 654.8,105.4 654.4,103.2 654.1,100.9 653.8,98.7 653.5,96.4 653.4,94.2 653.2,91.9 653.1,89.7 653.0,87.5 652.9,85.2 652.8,83.0 652.7,80.7 652.6,78.5 652.5,76.2 652.4,74.0 652.0,74.0 651.9,76.2 651.9,78.5 651.8,80.7 651.7,83.0 651.6,85.2 651.5,87.5 651.4,89.7 651.2,91.9 651.1,94.2 650.9,96.4 650.7,98.7 650.4,100.9 650.0,103.2 649.6,105.4 649.1,107.7 648.5,109.9 647.8,112.2 647.1,114.4 646.2,116.7 645.2,118.9 644.0,121.2 642.8,123.4 641.3,125.7 639.8,127.9 638.0,130.2 636.1,132.4 634.1,134.7 631.8,136.9 629.3,139.2 626.8,141.4 624.1,143.6 621.5,145.9 619.1,148.1 617.0,150.4 615.3,152.6 614.3,154.9 614.0,157.1 614.3,159.4 615.4,161.6 617.1,163.9 619.3,166.1 621.8,168.4 624.5,170.6 627.0,172.9 629.4,175.1 631.4,177.4 633.1,179.6 634.5,181.9 635.6,184.1 636.7,186.4 637.6,188.6 638.5,190.9 639.4,193.1 640.1,195.3 640.7,197.6 641.0,199.8 641.1,202.1 640.9,204.3 640.6,206.6 640.1,208.8 639.8,211.1 639.6,213.3 639.8,215.6 640.4,217.8 641.3,220.1 642.5,222.3 644.0,224.6 645.5,226.8 646.9,229.1 648.2,231.3 649.3,233.6" fill="#2a8" opacity="0.5" stroke="#2a8" stroke-width="1"/>
<line x1="615.4" y1="161.5993025311533" x2="689.0" y2="161.5993025311533" stroke="#114" stroke-width="2"/>
<circle cx="652.2222222222223" cy="215.60709680864042" r="2.4" fill="#114"/>
<text x="652.2222222222223" y="83.62257832797908" text-anchor="middle" font-size="11">1.48</text>
<text x="652.2222222222223" y="376" text-anchor="middle" font-size="12">spmv</text>
<polygon points="743.4,223.7 743.5,221.2 743.7,218.8 744.0,216.4 744.5,213.9 745.2,211.5 746.3,209.0 747.7,206.6 749.6,204.2 752.1,201.7 755.1,199.3 758.7,196.8 762.6,194.4 766.8,192.0 770.9,189.5 774.7,187.1 777.9,184.6 780.3,182.2 781.5,179.8 781.6,177.3 780.5,174.9 778.5,172.4 775.8,170.0 772.8,167.6 769.6,165.1 766.3,162.7 762.9,160.2 759.4,157.8 756.0,155.4 752.9,152.9 750.2,150.5 748.3,148.0 747.1,145.6 746.5,143.2 746.3,140.7 746.3,138.3 746.4,135.8 746.4,133.4 746.1,131.0 745.7,128.5 745.2,126.1 744.7,123.6 744.3,121.2 743.9,118.8 743.7,116.3 743.5,113.9 743.4,111.5 743.4,109.0 743.3,106.6 743.3,104.1 743.3,101.7 743.3,99.3 743.3,96.8 743.3,94.4 743.4,91.9 743.4,89.5 743.5,87.1 743.6,84.6 743.7,82.2 743.9,79.7 744.0,77.3 744.2,74.9 744.3,72.4 744.4,70.0 744.3,67.5 744.2,65.1 744.0,62.7 743.8,60.2 743.6,57.8 743.5,55.3 743.4,52.9 743.4,50.5 743.3,50.5 743.2,52.9 743.2,55.3 743.0,57.8 742.9,60.2 742.7,62.7 742.5,65.1 742.4,67.5 742.3,70.0 742.3,72.4 742.5,74.9 742.6,77.3 742.8,79.7 743.0,82.2 743.1,84.6 743.2,87.1 743.3,89.5 743.3,91.9 743.3,94.4 743.3,96.8 743.3,99.3 743.3,101.7 743.3,104.1 743.3,106.6 743.3,109.0 743.3,111.5 743.2,113.9 743.0,116.3 742.7,118.8 742.4,121.2 741.9,123.6 741.4,126.1 740.9,128.5 740.5,131.0 740.3,133.4 740.3,135.8 740.3,138.3 740.4,140.7 740.2,143.2 739.6,145.6 738.4,148.0 736.4,150.5 733.8,152.9 730.7,155.4 727.2,157.8 723.7,160.2 720.3,162.7 717.0,165.1 713.9,167.6 710.9,170.0 708.2,172.4 706.2,174.9 705.1,177.3 705.1,179.8 706.4,182.2 708.8,184.6 712.0,187.1 715.8,189.5 719.9,192.0 724.1,194.4 728.0,196.8 731.5,199.3 734.6,201.7 737.0,204.2 739.0,206.6 740.4,209.0 741.5,211.5 742.2,213.9 742.7,216.4 743.0,218.8 743.2,221.2 743.3,223.7" fill="#2a8" opacity="0.5" stroke="#2a8" stroke-width="1"/>
<line x1="705.4" y1="176.31057776305252" x2="781.3" y2="176.31057776305252" stroke="#114" stroke-width="2"/>
<circle cx="743.3333333333334" cy="190.5360796175652" r="2.4" fill="#114"/>
<text x="743.3333333333334" y="61.43396226415098" text-anchor="middle" font-size="11">1.37</text>
<text x="743.3333333333334" y="376" text-anchor="middle" font-size="12">gbmvN</text>
<polygon points="834.5,288.5 834.5,286.7 834.5,284.9 834.6,283.0 834.7,281.2 834.8,279.3 834.9,277.5 835.0,275.6 834.9,273.8 834.8,272.0 834.7,270.1 834.6,268.3 834.5,266.4 834.5,264.6 834.5,262.8 834.4,260.9 834.4,259.1 834.4,257.2 834.4,255.4 834.4,253.5 834.4,251.7 834.4,249.9 834.4,248.0 834.4,246.2 834.4,244.3 834.4,242.5 834.4,240.6 834.4,238.8 834.5,237.0 834.5,235.1 834.5,233.3 834.6,231.4 834.8,229.6 835.1,227.7 835.4,225.9 835.8,224.1 836.3,222.2 837.0,220.4 837.8,218.5 838.8,216.7 840.0,214.8 841.4,213.0 843.0,211.2 845.2,209.3 848.0,207.5 851.8,205.6 856.6,203.8 862.1,201.9 867.4,200.1 871.3,198.3 872.7,196.4 871.1,194.6 867.0,192.7 861.8,190.9 856.8,189.0 853.0,187.2 850.7,185.4 849.4,183.5 848.3,181.7 846.9,179.8 845.0,178.0 842.8,176.1 840.6,174.3 838.8,172.5 837.3,170.6 836.2,168.8 835.5,166.9 835.0,165.1 834.7,163.2 834.6,161.4 834.5,159.6 834.5,157.7 834.4,157.7 834.4,159.6 834.3,161.4 834.2,163.2 833.9,165.1 833.4,166.9 832.7,168.8 831.6,170.6 830.1,172.5 828.2,174.3 826.1,176.1 823.9,178.0 822.0,179.8 820.6,181.7 819.5,183.5 818.1,185.4 815.8,187.2 812.1,189.0 807.1,190.9 801.9,192.7 797.8,194.6 796.2,196.4 797.6,198.3 801.5,200.1 806.8,201.9 812.3,203.8 817.1,205.6 820.9,207.5 823.7,209.3 825.8,211.2 827.5,213.0 828.9,214.8 830.1,216.7 831.1,218.5 831.9,220.4 832.6,222.2 833.1,224.1 833.5,225.9 833.8,227.7 834.1,229.6 834.2,231.4 834.3,233.3 834.4,235.1 834.4,237.0 834.4,238.8 834.4,240.6 834.4,242.5 834.4,244.3 834.4,246.2 834.4,248.0 834.4,249.9 834.4,251.7 834.4,253.5 834.4,255.4 834.4,257.2 834.4,259.1 834.4,260.9 834.4,262.8 834.4,264.6 834.4,266.4 834.3,268.3 834.2,270.1 834.1,272.0 834.0,273.8 833.9,275.6 834.0,277.5 834.1,279.3 834.2,281.2 834.3,283.0 834.4,284.9 834.4,286.7 834.4,288.5" fill="#2a8" opacity="0.5" stroke="#2a8" stroke-width="1"/>
<line x1="796.6" y1="195.56132814186108" x2="872.3" y2="195.56132814186108" stroke="#114" stroke-width="2"/>
<circle cx="834.4444444444445" cy="201.57251050572708" r="2.4" fill="#114"/>
<text x="834.4444444444445" y="164.59114618699448" text-anchor="middle" font-size="11">1.23</text>
<text x="834.4444444444445" y="376" text-anchor="middle" font-size="12">sbmv</text>
<text x="450.0" y="428" text-anchor="middle" font-size="11" fill="#666">violin = ratio distribution over sizes · line = median · dark dot = worst size · green = every size ≥ gate</text>
</svg>
