<svg xmlns="http://www.w3.org/2000/svg" width="900" height="460" font-family="sans-serif">
<rect width="900" height="460" fill="white"/>
<text x="450.0" y="28" text-anchor="middle" font-size="18" font-weight="bold">BLAS-3: PureBLAS / OpenBLAS (AVX-512 native (Zen5), 1 thread, Float64)</text>
<line x1="62" y1="400.0" x2="768" y2="400.0" stroke="#eee"/>
<text x="54" y="404.0" text-anchor="end" font-size="11" fill="#666">0.5×</text>
<line x1="62" y1="333.2712067152655" x2="768" y2="333.2712067152655" stroke="#eee"/>
<text x="54" y="337.2712067152655" text-anchor="end" font-size="11" fill="#666">0.7×</text>
<line x1="62" y1="262.5358353725013" x2="768" y2="262.5358353725013" stroke="#eee"/>
<text x="54" y="266.5358353725013" text-anchor="end" font-size="11" fill="#666">1.0×</text>
<line x1="62" y1="182.12445387245495" x2="768" y2="182.12445387245495" stroke="#eee"/>
<text x="54" y="186.12445387245495" text-anchor="end" font-size="11" fill="#666">1.5×</text>
<line x1="62" y1="125.07167074500258" x2="768" y2="125.07167074500258" stroke="#eee"/>
<text x="54" y="129.07167074500256" text-anchor="end" font-size="11" fill="#666">2.0×</text>
<line x1="62.0" y1="50" x2="62.0" y2="400" stroke="#f4f4f4"/>
<text x="62.0" y="418" text-anchor="middle" font-size="11" fill="#444">8</text>
<line x1="238.5" y1="50" x2="238.5" y2="400" stroke="#f4f4f4"/>
<text x="238.5" y="418" text-anchor="middle" font-size="11" fill="#444">32</text>
<line x1="415.0" y1="50" x2="415.0" y2="400" stroke="#f4f4f4"/>
<text x="415.0" y="418" text-anchor="middle" font-size="11" fill="#444">128</text>
<line x1="503.25" y1="50" x2="503.25" y2="400" stroke="#f4f4f4"/>
<text x="503.25" y="418" text-anchor="middle" font-size="11" fill="#444">256</text>
<line x1="591.5" y1="50" x2="591.5" y2="400" stroke="#f4f4f4"/>
<text x="591.5" y="418" text-anchor="middle" font-size="11" fill="#444">512</text>
<line x1="679.75" y1="50" x2="679.75" y2="400" stroke="#f4f4f4"/>
<text x="679.75" y="418" text-anchor="middle" font-size="11" fill="#444">1024</text>
<line x1="768.0" y1="50" x2="768.0" y2="400" stroke="#f4f4f4"/>
<text x="768.0" y="418" text-anchor="middle" font-size="11" fill="#444">2048</text>
<line x1="62" y1="262.5358353725013" x2="768" y2="262.5358353725013" stroke="#888"/>
<line x1="62" y1="270.63160714008177" x2="768" y2="270.63160714008177" stroke="#d33" stroke-width="1.5" stroke-dasharray="6 4"/>
<text x="66" y="265.63160714008177" font-size="11" fill="#d33">0.96× gate</text>
<polygon points="62.0,205.0 238.5,287.1 415.0,206.6 503.2,223.1 591.5,235.6 679.8,234.6 768.0,218.7 768.0,220.5 679.8,236.4 591.5,236.1 503.2,226.2 415.0,207.2 238.5,288.0 62.0,228.2" fill="#1f77b4" opacity="0.14" stroke="none"/>
<polyline points="62.0,208.8 238.5,287.5 415.0,206.9 503.2,224.8 591.5,236.0 679.8,235.0 768.0,220.1" fill="none" stroke="#1f77b4" stroke-width="2"/>
<circle cx="62.0" cy="208.8" r="3" fill="#1f77b4"/>
<circle cx="238.5" cy="287.5" r="3" fill="#1f77b4"/>
<circle cx="415.0" cy="206.9" r="3" fill="#1f77b4"/>
<circle cx="503.2" cy="224.8" r="3" fill="#1f77b4"/>
<circle cx="591.5" cy="236.0" r="3" fill="#1f77b4"/>
<circle cx="679.8" cy="235.0" r="3" fill="#1f77b4"/>
<circle cx="768.0" cy="220.1" r="3" fill="#1f77b4"/>
<line x1="782" y1="56" x2="802" y2="56" stroke="#1f77b4" stroke-width="3"/>
<text x="806" y="60" font-size="12">gemm</text>
<polygon points="62.0,73.3 238.5,172.1 415.0,213.6 503.2,220.2 591.5,226.4 679.8,228.9 768.0,230.7 768.0,230.7 679.8,229.4 591.5,226.7 503.2,220.2 415.0,214.1 238.5,174.1 62.0,103.2" fill="#d62728" opacity="0.14" stroke="none"/>
<polyline points="62.0,77.7 238.5,173.1 415.0,213.6 503.2,220.2 591.5,226.5 679.8,229.2 768.0,230.7" fill="none" stroke="#d62728" stroke-width="2"/>
<circle cx="62.0" cy="77.7" r="3" fill="#d62728"/>
<circle cx="238.5" cy="173.1" r="3" fill="#d62728"/>
<circle cx="415.0" cy="213.6" r="3" fill="#d62728"/>
<circle cx="503.2" cy="220.2" r="3" fill="#d62728"/>
<circle cx="591.5" cy="226.5" r="3" fill="#d62728"/>
<circle cx="679.8" cy="229.2" r="3" fill="#d62728"/>
<circle cx="768.0" cy="230.7" r="3" fill="#d62728"/>
<line x1="782" y1="74" x2="802" y2="74" stroke="#d62728" stroke-width="3"/>
<text x="806" y="78" font-size="12">zgemm</text>
<polygon points="62.0,167.3 238.5,201.4 415.0,219.4 503.2,234.2 591.5,236.4 679.8,241.1 768.0,242.3 768.0,242.4 679.8,241.5 591.5,236.5 503.2,234.3 415.0,220.4 238.5,203.3 62.0,177.5" fill="#2ca02c" opacity="0.14" stroke="none"/>
<polyline points="62.0,172.5 238.5,201.9 415.0,220.1 503.2,234.2 591.5,236.5 679.8,241.2 768.0,242.3" fill="none" stroke="#2ca02c" stroke-width="2"/>
<circle cx="62.0" cy="172.5" r="3" fill="#2ca02c"/>
<circle cx="238.5" cy="201.9" r="3" fill="#2ca02c"/>
<circle cx="415.0" cy="220.1" r="3" fill="#2ca02c"/>
<circle cx="503.2" cy="234.2" r="3" fill="#2ca02c"/>
<circle cx="591.5" cy="236.5" r="3" fill="#2ca02c"/>
<circle cx="679.8" cy="241.2" r="3" fill="#2ca02c"/>
<circle cx="768.0" cy="242.3" r="3" fill="#2ca02c"/>
<line x1="782" y1="92" x2="802" y2="92" stroke="#2ca02c" stroke-width="3"/>
<text x="806" y="96" font-size="12">symm</text>
<polygon points="62.0,179.8 238.5,205.5 415.0,217.0 503.2,214.0 591.5,220.0 679.8,231.1 768.0,240.0 768.0,240.2 679.8,231.5 591.5,220.3 503.2,215.4 415.0,220.8 238.5,209.0 62.0,184.5" fill="#9467bd" opacity="0.14" stroke="none"/>
<polyline points="62.0,181.4 238.5,206.9 415.0,218.1 503.2,214.6 591.5,220.2 679.8,231.2 768.0,240.1" fill="none" stroke="#9467bd" stroke-width="2"/>
<circle cx="62.0" cy="181.4" r="3" fill="#9467bd"/>
<circle cx="238.5" cy="206.9" r="3" fill="#9467bd"/>
<circle cx="415.0" cy="218.1" r="3" fill="#9467bd"/>
<circle cx="503.2" cy="214.6" r="3" fill="#9467bd"/>
<circle cx="591.5" cy="220.2" r="3" fill="#9467bd"/>
<circle cx="679.8" cy="231.2" r="3" fill="#9467bd"/>
<circle cx="768.0" cy="240.1" r="3" fill="#9467bd"/>
<line x1="782" y1="110" x2="802" y2="110" stroke="#9467bd" stroke-width="3"/>
<text x="806" y="114" font-size="12">syrk</text>
<polygon points="62.0,175.5 238.5,204.4 415.0,178.4 503.2,193.2 591.5,223.2 679.8,240.0 768.0,244.7 768.0,245.0 679.8,240.0 591.5,223.5 503.2,194.2 415.0,181.0 238.5,206.9 62.0,206.7" fill="#ff7f0e" opacity="0.14" stroke="none"/>
<polyline points="62.0,201.8 238.5,205.0 415.0,179.1 503.2,193.5 591.5,223.4 679.8,240.0 768.0,245.0" fill="none" stroke="#ff7f0e" stroke-width="2"/>
<circle cx="62.0" cy="201.8" r="3" fill="#ff7f0e"/>
<circle cx="238.5" cy="205.0" r="3" fill="#ff7f0e"/>
<circle cx="415.0" cy="179.1" r="3" fill="#ff7f0e"/>
<circle cx="503.2" cy="193.5" r="3" fill="#ff7f0e"/>
<circle cx="591.5" cy="223.4" r="3" fill="#ff7f0e"/>
<circle cx="679.8" cy="240.0" r="3" fill="#ff7f0e"/>
<circle cx="768.0" cy="245.0" r="3" fill="#ff7f0e"/>
<line x1="782" y1="128" x2="802" y2="128" stroke="#ff7f0e" stroke-width="3"/>
<text x="806" y="132" font-size="12">syr2k</text>
<polygon points="62.0,211.5 238.5,215.7 415.0,207.1 503.2,218.7 591.5,238.4 679.8,241.9 768.0,245.4 768.0,247.0 679.8,242.9 591.5,240.9 503.2,219.1 415.0,211.6 238.5,217.7 62.0,222.6" fill="#17becf" opacity="0.14" stroke="none"/>
<polyline points="62.0,220.3 238.5,216.3 415.0,210.4 503.2,218.9 591.5,239.7 679.8,242.3 768.0,246.6" fill="none" stroke="#17becf" stroke-width="2"/>
<circle cx="62.0" cy="220.3" r="3" fill="#17becf"/>
<circle cx="238.5" cy="216.3" r="3" fill="#17becf"/>
<circle cx="415.0" cy="210.4" r="3" fill="#17becf"/>
<circle cx="503.2" cy="218.9" r="3" fill="#17becf"/>
<circle cx="591.5" cy="239.7" r="3" fill="#17becf"/>
<circle cx="679.8" cy="242.3" r="3" fill="#17becf"/>
<circle cx="768.0" cy="246.6" r="3" fill="#17becf"/>
<line x1="782" y1="146" x2="802" y2="146" stroke="#17becf" stroke-width="3"/>
<text x="806" y="150" font-size="12">trmm</text>
<polygon points="62.0,131.9 238.5,87.2 415.0,117.4 503.2,131.3 591.5,191.0 679.8,212.2 768.0,228.2 768.0,229.8 679.8,212.3 591.5,191.2 503.2,134.9 415.0,117.7 238.5,89.6 62.0,135.4" fill="#8c564b" opacity="0.14" stroke="none"/>
<polyline points="62.0,133.0 238.5,88.9 415.0,117.5 503.2,132.4 591.5,191.1 679.8,212.3 768.0,228.7" fill="none" stroke="#8c564b" stroke-width="2"/>
<circle cx="62.0" cy="133.0" r="3" fill="#8c564b"/>
<circle cx="238.5" cy="88.9" r="3" fill="#8c564b"/>
<circle cx="415.0" cy="117.5" r="3" fill="#8c564b"/>
<circle cx="503.2" cy="132.4" r="3" fill="#8c564b"/>
<circle cx="591.5" cy="191.1" r="3" fill="#8c564b"/>
<circle cx="679.8" cy="212.3" r="3" fill="#8c564b"/>
<circle cx="768.0" cy="228.7" r="3" fill="#8c564b"/>
<line x1="782" y1="164" x2="802" y2="164" stroke="#8c564b" stroke-width="3"/>
<text x="806" y="168" font-size="12">trsm</text>
<text x="415.0" y="450" text-anchor="middle" font-size="11" fill="#666">matrix size n (log) · y = median ratio (log) · dashed = the 0.96× gate</text>
</svg>
