<svg xmlns="http://www.w3.org/2000/svg" width="900" height="440" font-family="sans-serif">
<rect width="900" height="440" fill="white"/>
<text x="450.0" y="28" text-anchor="middle" font-size="18" font-weight="bold">Complex BLAS-1: PureBLAS / OpenBLAS (Zen5, 1 thread, ComplexF64)</text>
<line x1="60" y1="358.0" x2="880" y2="358.0" stroke="#eee"/>
<text x="52" y="362.0" text-anchor="end" font-size="11" fill="#666">0×</text>
<line x1="60" y1="348.5371696472893" x2="880" y2="348.5371696472893" stroke="#eee"/>
<text x="52" y="352.5371696472893" text-anchor="end" font-size="11" fill="#666">0.5×</text>
<line x1="60" y1="339.07433929457864" x2="880" y2="339.07433929457864" stroke="#eee"/>
<text x="52" y="343.07433929457864" text-anchor="end" font-size="11" fill="#666">1×</text>
<line x1="60" y1="329.61150894186795" x2="880" y2="329.61150894186795" stroke="#eee"/>
<text x="52" y="333.61150894186795" text-anchor="end" font-size="11" fill="#666">1.5×</text>
<line x1="60" y1="339.07433929457864" x2="880" y2="339.07433929457864" stroke="#888" stroke-width="1"/>
<line x1="60" y1="339.8313657227955" x2="880" y2="339.8313657227955" stroke="#d33" stroke-width="1.5" stroke-dasharray="6 4"/>
<text x="880" y="334.8313657227955" text-anchor="end" font-size="11" fill="#d33">0.96× gate</text>
<polygon points="123.7,341.9 125.5,341.8 127.7,341.7 130.2,341.5 133.0,341.4 136.0,341.3 139.0,341.2 142.0,341.0 144.7,340.9 147.1,340.8 149.2,340.6 151.0,340.5 152.4,340.4 153.7,340.2 154.9,340.1 156.2,340.0 157.7,339.9 159.4,339.7 161.2,339.6 163.1,339.5 164.9,339.3 166.4,339.2 167.4,339.1 167.8,338.9 167.4,338.8 166.3,338.7 164.5,338.6 162.2,338.4 159.5,338.3 156.6,338.2 153.6,338.0 150.7,337.9 147.9,337.8 145.2,337.6 142.7,337.5 140.3,337.4 138.0,337.3 135.8,337.1 133.6,337.0 131.5,336.9 129.6,336.7 127.7,336.6 126.0,336.5 124.5,336.3 123.3,336.2 122.2,336.1 121.4,336.0 120.8,335.8 120.4,335.7 120.3,335.6 120.4,335.4 120.6,335.3 121.2,335.2 121.9,335.0 122.9,334.9 124.1,334.8 125.5,334.7 127.0,334.5 128.6,334.4 130.1,334.3 131.5,334.1 132.6,334.0 133.4,333.9 133.7,333.7 133.5,333.6 132.9,333.5 131.8,333.4 130.5,333.2 128.9,333.1 127.3,333.0 125.7,332.8 124.2,332.7 113.0,332.7 111.5,332.8 109.8,333.0 108.2,333.1 106.7,333.2 105.3,333.4 104.3,333.5 103.6,333.6 103.5,333.7 103.8,333.9 104.5,334.0 105.6,334.1 107.0,334.3 108.5,334.4 110.1,334.5 111.6,334.7 113.0,334.8 114.2,334.9 115.2,335.0 116.0,335.2 116.5,335.3 116.8,335.4 116.9,335.6 116.7,335.7 116.4,335.8 115.8,336.0 114.9,336.1 113.9,336.2 112.6,336.3 111.1,336.5 109.4,336.6 107.6,336.7 105.6,336.9 103.5,337.0 101.4,337.1 99.2,337.3 96.9,337.4 94.5,337.5 91.9,337.6 89.3,337.8 86.4,337.9 83.5,338.0 80.5,338.2 77.6,338.3 74.9,338.4 72.6,338.6 70.8,338.7 69.7,338.8 69.4,338.9 69.7,339.1 70.7,339.2 72.2,339.3 74.0,339.5 75.9,339.6 77.8,339.7 79.5,339.9 80.9,340.0 82.3,340.1 83.5,340.2 84.7,340.4 86.2,340.5 87.9,340.6 90.0,340.8 92.4,340.9 95.2,341.0 98.1,341.2 101.2,341.3 104.1,341.4 106.9,341.5 109.4,341.7 111.6,341.8 113.4,341.9" fill="#d33" opacity="0.5" stroke="#d33" stroke-width="1"/>
<line x1="69.7" y1="338.82674865641843" x2="167.5" y2="338.82674865641843" stroke="#114" stroke-width="2"/>
<circle cx="118.57142857142857" cy="340.58978307104303" r="2.4" fill="#114"/>
<text x="118.57142857142857" y="327.6332440713535" text-anchor="middle" font-size="11">1.01</text>
<text x="118.57142857142857" y="376" text-anchor="middle" font-size="12">zaxpy</text>
<polygon points="235.8,342.0 235.8,341.8 235.9,341.7 236.1,341.6 236.3,341.4 236.6,341.3 237.0,341.1 237.6,341.0 238.3,340.9 239.2,340.7 240.4,340.6 242.0,340.4 244.0,340.3 246.6,340.2 249.9,340.0 253.8,339.9 258.1,339.7 262.4,339.6 266.2,339.5 269.1,339.3 271.0,339.2 272.2,339.0 273.0,338.9 273.9,338.8 275.5,338.6 277.6,338.5 280.1,338.3 282.4,338.2 284.2,338.1 284.9,337.9 284.6,337.8 283.3,337.6 281.1,337.5 278.1,337.4 274.6,337.2 270.4,337.1 265.8,337.0 260.9,336.8 256.0,336.7 251.3,336.5 247.4,336.4 244.2,336.3 241.9,336.1 240.4,336.0 239.5,335.8 239.0,335.7 238.7,335.6 238.5,335.4 238.4,335.3 238.4,335.1 238.3,335.0 238.3,334.9 238.3,334.7 238.2,334.6 238.1,334.4 238.1,334.3 238.2,334.2 238.3,334.0 238.7,333.9 239.1,333.7 239.7,333.6 240.2,333.5 240.7,333.3 240.8,333.2 240.7,333.0 240.2,332.9 239.4,332.8 238.6,332.6 237.8,332.5 237.1,332.3 236.6,332.2 236.2,332.1 235.2,332.1 234.9,332.2 234.3,332.3 233.6,332.5 232.8,332.6 232.0,332.8 231.3,332.9 230.8,333.0 230.6,333.2 230.8,333.3 231.2,333.5 231.7,333.6 232.3,333.7 232.8,333.9 233.1,334.0 233.3,334.2 233.3,334.3 233.3,334.4 233.2,334.6 233.2,334.7 233.1,334.9 233.1,335.0 233.1,335.1 233.0,335.3 232.9,335.4 232.8,335.6 232.5,335.7 231.9,335.8 231.0,336.0 229.5,336.1 227.2,336.3 224.1,336.4 220.1,336.5 215.5,336.7 210.5,336.8 205.6,337.0 201.0,337.1 196.9,337.2 193.3,337.4 190.4,337.5 188.2,337.6 186.8,337.8 186.5,337.9 187.3,338.1 189.0,338.2 191.3,338.3 193.8,338.5 195.9,338.6 197.5,338.8 198.5,338.9 199.3,339.0 200.4,339.2 202.3,339.3 205.2,339.5 209.0,339.6 213.3,339.7 217.6,339.9 221.5,340.0 224.8,340.2 227.4,340.3 229.4,340.4 231.0,340.6 232.2,340.7 233.1,340.9 233.8,341.0 234.4,341.1 234.8,341.3 235.1,341.4 235.3,341.6 235.5,341.7 235.6,341.8 235.6,342.0" fill="#2a8" opacity="0.5" stroke="#2a8" stroke-width="1"/>
<line x1="187.1" y1="338.05225984638474" x2="284.3" y2="338.05225984638474" stroke="#114" stroke-width="2"/>
<circle cx="235.71428571428572" cy="339.319123786848" r="2.4" fill="#114"/>
<text x="235.71428571428572" y="327.05039145817693" text-anchor="middle" font-size="11">1.05</text>
<text x="235.71428571428572" y="376" text-anchor="middle" font-size="12">zdotc</text>
<polygon points="353.4,339.9 353.7,339.9 354.1,339.8 354.6,339.8 355.3,339.8 356.1,339.7 357.0,339.7 358.0,339.7 359.0,339.7 360.0,339.6 360.9,339.6 361.7,339.6 362.3,339.6 362.8,339.5 363.1,339.5 363.4,339.5 363.5,339.4 363.8,339.4 364.2,339.4 364.9,339.4 366.1,339.3 368.0,339.3 370.8,339.3 374.6,339.2 379.3,339.2 384.6,339.2 390.1,339.2 395.2,339.1 399.2,339.1 401.6,339.1 402.1,339.1 400.4,339.0 396.9,339.0 392.1,339.0 386.5,338.9 380.8,338.9 375.6,338.9 371.2,338.9 367.8,338.8 365.5,338.8 364.2,338.8 363.9,338.7 364.2,338.7 365.1,338.7 366.5,338.7 368.1,338.6 369.8,338.6 371.6,338.6 373.4,338.6 374.9,338.5 376.2,338.5 377.0,338.5 377.3,338.4 377.0,338.4 376.1,338.4 374.5,338.4 372.5,338.3 370.1,338.3 367.6,338.3 365.1,338.2 362.7,338.2 360.6,338.2 358.8,338.2 357.4,338.1 356.2,338.1 355.2,338.1 354.5,338.1 354.0,338.0 353.6,338.0 353.3,338.0 353.2,337.9 353.0,337.9 352.7,337.9 352.6,337.9 352.4,338.0 352.1,338.0 351.7,338.0 351.2,338.1 350.5,338.1 349.6,338.1 348.4,338.1 346.9,338.2 345.1,338.2 343.0,338.2 340.6,338.2 338.1,338.3 335.6,338.3 333.2,338.3 331.2,338.4 329.6,338.4 328.7,338.4 328.4,338.4 328.7,338.5 329.5,338.5 330.8,338.5 332.4,338.6 334.1,338.6 335.9,338.6 337.6,338.6 339.2,338.7 340.6,338.7 341.5,338.7 341.8,338.7 341.5,338.8 340.2,338.8 337.9,338.8 334.5,338.9 330.1,338.9 324.9,338.9 319.2,338.9 313.6,339.0 308.8,339.0 305.3,339.0 303.7,339.1 304.1,339.1 306.5,339.1 310.5,339.1 315.6,339.2 321.1,339.2 326.4,339.2 331.1,339.2 334.9,339.3 337.7,339.3 339.6,339.3 340.9,339.4 341.6,339.4 341.9,339.4 342.2,339.4 342.4,339.5 342.6,339.5 342.9,339.5 343.4,339.6 344.0,339.6 344.8,339.6 345.7,339.6 346.7,339.7 347.7,339.7 348.7,339.7 349.6,339.7 350.4,339.8 351.1,339.8 351.6,339.8 352.0,339.9 352.3,339.9" fill="#2a8" opacity="0.5" stroke="#2a8" stroke-width="1"/>
<line x1="304.0" y1="339.04345333806026" x2="401.7" y2="339.04345333806026" stroke="#114" stroke-width="2"/>
<circle cx="352.85714285714283" cy="339.4892940859296" r="2.4" fill="#114"/>
<text x="352.85714285714283" y="332.1364563047469" text-anchor="middle" font-size="11">1.00</text>
<text x="352.85714285714283" y="376" text-anchor="middle" font-size="12">zscal</text>
<polygon points="481.7,291.4 484.0,288.0 486.5,284.6 489.2,281.2 492.0,277.8 494.8,274.4 497.6,271.0 500.3,267.6 502.8,264.2 505.1,260.8 507.0,257.4 508.6,254.0 509.9,250.6 510.7,247.2 511.1,243.8 511.1,240.4 510.7,237.0 510.0,233.6 508.8,230.2 507.4,226.8 505.7,223.4 503.7,220.0 501.5,216.6 499.3,213.2 496.9,209.8 494.5,206.4 492.3,203.0 490.1,199.6 488.2,196.2 486.5,192.8 485.2,189.4 484.2,186.0 483.6,182.6 483.4,179.2 483.5,175.8 483.9,172.4 484.6,169.0 485.5,165.6 486.6,162.2 487.7,158.8 488.9,155.4 490.0,152.0 491.1,148.6 492.1,145.2 493.0,141.8 494.0,138.4 495.0,135.0 496.1,131.6 497.3,128.2 498.8,124.8 500.5,121.4 502.4,118.0 504.6,114.6 506.9,111.2 509.3,107.8 511.7,104.4 513.9,101.0 515.9,97.6 517.5,94.2 518.7,90.8 519.2,87.4 519.1,84.0 518.4,80.6 517.0,77.2 515.0,73.8 512.5,70.4 509.5,67.0 506.2,63.6 502.7,60.2 499.1,56.8 495.5,53.4 492.0,50.0 448.0,50.0 444.5,53.4 440.9,56.8 437.3,60.2 433.8,63.6 430.5,67.0 427.5,70.4 425.0,73.8 423.0,77.2 421.6,80.6 420.9,84.0 420.8,87.4 421.3,90.8 422.5,94.2 424.1,97.6 426.1,101.0 428.3,104.4 430.7,107.8 433.1,111.2 435.4,114.6 437.6,118.0 439.5,121.4 441.2,124.8 442.7,128.2 443.9,131.6 445.0,135.0 446.0,138.4 447.0,141.8 447.9,145.2 448.9,148.6 450.0,152.0 451.1,155.4 452.3,158.8 453.4,162.2 454.5,165.6 455.4,169.0 456.1,172.4 456.5,175.8 456.6,179.2 456.4,182.6 455.8,186.0 454.8,189.4 453.5,192.8 451.8,196.2 449.9,199.6 447.7,203.0 445.5,206.4 443.1,209.8 440.7,213.2 438.5,216.6 436.3,220.0 434.3,223.4 432.6,226.8 431.2,230.2 430.0,233.6 429.3,237.0 428.9,240.4 428.9,243.8 429.3,247.2 430.1,250.6 431.4,254.0 433.0,257.4 434.9,260.8 437.2,264.2 439.7,267.6 442.4,271.0 445.2,274.4 448.0,277.8 450.8,281.2 453.5,284.6 456.0,288.0 458.3,291.4" fill="#2a8" opacity="0.5" stroke="#2a8" stroke-width="1"/>
<line x1="448.0" y1="145.46392229374794" x2="492.0" y2="145.46392229374794" stroke="#114" stroke-width="2"/>
<circle cx="470.0" cy="263.0300248201944" r="2.4" fill="#114"/>
<text x="470.0" y="61.433962264150935" text-anchor="middle" font-size="11">11.23</text>
<text x="470.0" y="376" text-anchor="middle" font-size="12">dznrm2</text>
<polygon points="587.4,340.0 587.6,339.9 587.8,339.9 588.1,339.8 588.5,339.8 589.0,339.7 589.7,339.7 590.4,339.6 591.3,339.6 592.4,339.5 593.6,339.5 594.9,339.4 596.4,339.4 597.8,339.3 599.1,339.3 600.3,339.2 601.1,339.2 601.7,339.1 602.0,339.1 602.2,339.0 602.4,339.0 603.0,338.9 604.0,338.9 605.6,338.8 607.9,338.8 610.8,338.7 614.2,338.7 617.9,338.6 621.6,338.6 625.1,338.5 628.2,338.5 630.6,338.4 632.2,338.4 632.6,338.3 631.7,338.3 629.6,338.2 626.4,338.2 622.6,338.1 618.5,338.1 615.0,338.0 612.5,338.0 611.5,337.9 612.3,337.8 614.9,337.8 618.9,337.7 623.8,337.7 628.9,337.6 633.1,337.6 635.8,337.5 636.3,337.5 634.7,337.4 631.2,337.4 626.2,337.3 620.7,337.3 615.1,337.2 610.1,337.2 605.8,337.1 602.3,337.1 599.5,337.0 597.3,337.0 595.4,336.9 593.9,336.9 592.5,336.8 591.3,336.8 590.3,336.7 589.4,336.7 588.8,336.6 588.3,336.6 587.9,336.5 587.6,336.5 587.4,336.4 587.3,336.4 587.0,336.4 586.9,336.4 586.7,336.5 586.4,336.5 586.0,336.6 585.5,336.6 584.8,336.7 584.0,336.7 583.0,336.8 581.8,336.8 580.4,336.9 578.9,336.9 577.0,337.0 574.8,337.0 572.0,337.1 568.5,337.1 564.2,337.2 559.2,337.2 553.6,337.3 548.0,337.3 543.1,337.4 539.6,337.4 537.9,337.5 538.5,337.5 541.2,337.6 545.4,337.6 550.4,337.7 555.4,337.7 559.4,337.8 562.0,337.8 562.8,337.9 561.8,338.0 559.3,338.0 555.7,338.1 551.7,338.1 547.9,338.2 544.7,338.2 542.6,338.3 541.7,338.3 542.1,338.4 543.7,338.4 546.1,338.5 549.2,338.5 552.7,338.6 556.4,338.6 560.1,338.7 563.5,338.7 566.4,338.8 568.7,338.8 570.3,338.9 571.3,338.9 571.9,339.0 572.1,339.0 572.3,339.1 572.6,339.1 573.2,339.2 574.0,339.2 575.2,339.3 576.5,339.3 577.9,339.4 579.3,339.4 580.7,339.5 581.9,339.5 583.0,339.6 583.9,339.6 584.6,339.7 585.2,339.7 585.7,339.8 586.2,339.8 586.5,339.9 586.7,339.9 586.9,340.0" fill="#2a8" opacity="0.5" stroke="#2a8" stroke-width="1"/>
<line x1="545.1" y1="338.1979180779778" x2="629.2" y2="338.1979180779778" stroke="#114" stroke-width="2"/>
<circle cx="587.1428571428571" cy="339.1253225722077" r="2.4" fill="#114"/>
<text x="587.1428571428571" y="330.74621889020136" text-anchor="middle" font-size="11">1.05</text>
<text x="587.1428571428571" y="376" text-anchor="middle" font-size="12">dzasum</text>
<polygon points="704.4,342.1 704.5,341.9 704.8,341.8 705.2,341.6 705.9,341.5 706.8,341.3 707.9,341.2 709.2,341.0 710.5,340.9 711.7,340.7 713.0,340.6 714.5,340.4 716.4,340.3 719.1,340.1 722.5,340.0 726.5,339.8 730.6,339.7 734.1,339.5 736.5,339.4 737.7,339.2 738.1,339.1 738.1,338.9 738.7,338.8 740.2,338.6 742.6,338.5 745.4,338.3 748.3,338.2 750.7,338.0 752.4,337.9 753.4,337.8 753.5,337.6 752.7,337.5 750.9,337.3 747.9,337.2 743.8,337.0 738.7,336.9 732.9,336.7 727.0,336.6 721.4,336.4 716.6,336.3 712.8,336.1 710.1,336.0 708.2,335.8 707.0,335.7 706.2,335.5 705.7,335.4 705.4,335.2 705.2,335.1 705.1,334.9 705.1,334.8 705.1,334.6 705.1,334.5 705.1,334.3 705.2,334.2 705.3,334.0 705.4,333.9 705.5,333.7 705.6,333.6 705.9,333.4 706.2,333.3 706.5,333.1 706.9,333.0 707.2,332.8 707.3,332.7 707.1,332.5 706.8,332.4 706.3,332.2 705.7,332.1 705.3,331.9 704.9,331.8 704.6,331.6 704.4,331.5 704.1,331.5 704.0,331.6 703.7,331.8 703.3,331.9 702.8,332.1 702.3,332.2 701.8,332.4 701.4,332.5 701.3,332.7 701.4,332.8 701.7,333.0 702.0,333.1 702.4,333.3 702.7,333.4 702.9,333.6 703.1,333.7 703.2,333.9 703.3,334.0 703.4,334.2 703.4,334.3 703.5,334.5 703.5,334.6 703.5,334.8 703.5,334.9 703.4,335.1 703.2,335.2 702.9,335.4 702.4,335.5 701.6,335.7 700.4,335.8 698.5,336.0 695.7,336.1 692.0,336.3 687.2,336.4 681.6,336.6 675.7,336.7 669.9,336.9 664.8,337.0 660.6,337.2 657.7,337.3 655.9,337.5 655.1,337.6 655.2,337.8 656.1,337.9 657.9,338.0 660.3,338.2 663.1,338.3 666.0,338.5 668.4,338.6 669.9,338.8 670.4,338.9 670.5,339.1 670.8,339.2 672.0,339.4 674.5,339.5 678.0,339.7 682.1,339.8 686.1,340.0 689.5,340.1 692.1,340.3 694.1,340.4 695.6,340.6 696.8,340.7 698.1,340.9 699.4,341.0 700.6,341.2 701.8,341.3 702.7,341.5 703.3,341.6 703.8,341.8 704.0,341.9 704.2,342.1" fill="#2a8" opacity="0.5" stroke="#2a8" stroke-width="1"/>
<line x1="659.0" y1="338.12365576852625" x2="749.6" y2="338.12365576852625" stroke="#114" stroke-width="2"/>
<circle cx="704.2857142857142" cy="339.7598496612186" r="2.4" fill="#114"/>
<text x="704.2857142857142" y="326.5387005995554" text-anchor="middle" font-size="11">1.05</text>
<text x="704.2857142857142" y="376" text-anchor="middle" font-size="12">zdotu</text>
<polygon points="824.2,337.2 825.3,336.8 826.7,336.4 828.4,336.0 830.4,335.6 832.5,335.2 834.9,334.9 837.4,334.5 839.9,334.1 842.4,333.7 844.8,333.3 847.1,332.9 849.2,332.5 851.2,332.1 853.0,331.7 854.6,331.3 856.2,330.9 857.8,330.5 859.3,330.2 860.8,329.8 862.4,329.4 864.0,329.0 865.5,328.6 866.9,328.2 868.2,327.8 869.2,327.4 869.9,327.0 870.4,326.6 870.6,326.2 870.6,325.8 870.5,325.5 870.2,325.1 869.8,324.7 869.4,324.3 868.9,323.9 868.4,323.5 868.0,323.1 867.6,322.7 867.2,322.3 866.8,321.9 866.5,321.5 866.3,321.1 866.3,320.7 866.3,320.4 866.5,320.0 866.8,319.6 867.1,319.2 867.4,318.8 867.7,318.4 868.0,318.0 868.0,317.6 867.9,317.2 867.5,316.8 866.7,316.4 865.6,316.0 864.1,315.7 862.1,315.3 859.7,314.9 856.8,314.5 853.7,314.1 850.3,313.7 846.8,313.3 843.3,312.9 839.9,312.5 836.6,312.1 833.7,311.7 831.1,311.3 828.9,311.0 827.0,310.6 825.5,310.2 824.4,309.8 823.5,309.4 819.4,309.4 818.5,309.8 817.3,310.2 815.8,310.6 814.0,311.0 811.7,311.3 809.1,311.7 806.2,312.1 803.0,312.5 799.6,312.9 796.1,313.3 792.6,313.7 789.2,314.1 786.0,314.5 783.2,314.9 780.8,315.3 778.8,315.7 777.2,316.0 776.1,316.4 775.4,316.8 775.0,317.2 774.8,317.6 774.9,318.0 775.1,318.4 775.4,318.8 775.8,319.2 776.1,319.6 776.4,320.0 776.5,320.4 776.6,320.7 776.5,321.1 776.3,321.5 776.1,321.9 775.7,322.3 775.3,322.7 774.9,323.1 774.4,323.5 774.0,323.9 773.5,324.3 773.1,324.7 772.7,325.1 772.4,325.5 772.2,325.8 772.2,326.2 772.5,326.6 772.9,327.0 773.7,327.4 774.7,327.8 775.9,328.2 777.4,328.6 778.9,329.0 780.4,329.4 782.0,329.8 783.6,330.2 785.1,330.5 786.6,330.9 788.2,331.3 789.9,331.7 791.7,332.1 793.7,332.5 795.8,332.9 798.0,333.3 800.4,333.7 802.9,334.1 805.5,334.5 807.9,334.9 810.3,335.2 812.5,335.6 814.5,336.0 816.1,336.4 817.5,336.8 818.7,337.2" fill="#2a8" opacity="0.5" stroke="#2a8" stroke-width="1"/>
<line x1="774.8" y1="323.17127240295736" x2="868.1" y2="323.17127240295736" stroke="#114" stroke-width="2"/>
<circle cx="821.4285714285714" cy="327.1737761472906" r="2.4" fill="#114"/>
<text x="821.4285714285714" y="306.11178817078905" text-anchor="middle" font-size="11">1.84</text>
<text x="821.4285714285714" y="376" text-anchor="middle" font-size="12">izamax</text>
<text x="450.0" y="428" text-anchor="middle" font-size="11" fill="#666">violin = ratio distribution over sizes · line = median · dark dot = worst size · green = every size ≥ gate</text>
</svg>
