<svg xmlns="http://www.w3.org/2000/svg" width="900" height="440" font-family="sans-serif">
<rect width="900" height="440" fill="white"/>
<text x="450.0" y="28" text-anchor="middle" font-size="18" font-weight="bold">BLAS-2: PureBLAS / OpenBLAS (AVX-512, 1 thread, Float64)</text>
<line x1="60" y1="358.0" x2="880" y2="358.0" stroke="#eee"/>
<text x="52" y="362.0" text-anchor="end" font-size="11" fill="#666">0×</text>
<line x1="60" y1="301.80947337443814" x2="880" y2="301.80947337443814" stroke="#eee"/>
<text x="52" y="305.80947337443814" text-anchor="end" font-size="11" fill="#666">0.5×</text>
<line x1="60" y1="245.61894674887623" x2="880" y2="245.61894674887623" stroke="#eee"/>
<text x="52" y="249.61894674887623" text-anchor="end" font-size="11" fill="#666">1×</text>
<line x1="60" y1="189.42842012331434" x2="880" y2="189.42842012331434" stroke="#eee"/>
<text x="52" y="193.42842012331434" text-anchor="end" font-size="11" fill="#666">1.5×</text>
<line x1="60" y1="245.61894674887623" x2="880" y2="245.61894674887623" stroke="#888" stroke-width="1"/>
<line x1="60" y1="250.1141888789212" x2="880" y2="250.1141888789212" stroke="#d33" stroke-width="1.5" stroke-dasharray="6 4"/>
<text x="880" y="245.1141888789212" text-anchor="end" font-size="11" fill="#d33">0.96× gate</text>
<polygon points="109.6,278.8 111.3,275.6 113.5,272.4 116.1,269.2 119.3,265.9 122.8,262.7 126.5,259.5 130.4,256.3 134.0,253.1 137.4,249.8 140.2,246.6 142.2,243.4 143.4,240.2 143.8,236.9 143.4,233.7 142.2,230.5 140.5,227.3 138.4,224.0 136.1,220.8 133.6,217.6 131.0,214.4 128.5,211.2 126.1,207.9 123.7,204.7 121.3,201.5 119.1,198.3 116.9,195.0 114.9,191.8 113.1,188.6 111.5,185.4 110.2,182.1 109.1,178.9 108.4,175.7 107.8,172.5 107.5,169.3 107.4,166.0 107.5,162.8 107.8,159.6 108.1,156.4 108.6,153.1 109.1,149.9 109.6,146.7 110.2,143.5 110.8,140.2 111.3,137.0 111.7,133.8 112.0,130.6 112.2,127.4 112.2,124.1 112.1,120.9 111.7,117.7 111.3,114.5 110.7,111.2 110.1,108.0 109.5,104.8 108.8,101.6 108.3,98.3 107.8,95.1 107.4,91.9 107.0,88.7 106.8,85.5 106.6,82.2 106.4,79.0 106.3,75.8 106.2,72.6 106.2,69.3 106.1,66.1 106.1,62.9 106.0,59.7 105.9,56.4 105.9,53.2 105.8,50.0 105.3,50.0 105.2,53.2 105.2,56.4 105.1,59.7 105.0,62.9 105.0,66.1 104.9,69.3 104.9,72.6 104.8,75.8 104.7,79.0 104.5,82.2 104.3,85.5 104.1,88.7 103.7,91.9 103.3,95.1 102.8,98.3 102.3,101.6 101.6,104.8 101.0,108.0 100.4,111.2 99.8,114.5 99.4,117.7 99.1,120.9 98.9,124.1 98.9,127.4 99.1,130.6 99.4,133.8 99.8,137.0 100.3,140.2 100.9,143.5 101.5,146.7 102.0,149.9 102.6,153.1 103.0,156.4 103.3,159.6 103.6,162.8 103.7,166.0 103.6,169.3 103.3,172.5 102.8,175.7 102.0,178.9 100.9,182.1 99.6,185.4 98.0,188.6 96.2,191.8 94.2,195.0 92.0,198.3 89.8,201.5 87.5,204.7 85.1,207.9 82.6,211.2 80.1,214.4 77.6,217.6 75.1,220.8 72.7,224.0 70.6,227.3 68.9,230.5 67.7,233.7 67.3,236.9 67.7,240.2 68.9,243.4 70.9,246.6 73.7,249.8 77.1,253.1 80.8,256.3 84.6,259.5 88.3,262.7 91.8,265.9 95.0,269.2 97.6,272.4 99.8,275.6 101.5,278.8" fill="#d33" opacity="0.5" stroke="#d33" stroke-width="1"/>
<line x1="67.8" y1="233.38239180560626" x2="143.3" y2="233.38239180560626" stroke="#114" stroke-width="2"/>
<circle cx="105.55555555555556" cy="251.33824804095298" r="2.4" fill="#114"/>
<text x="105.55555555555556" y="61.433962264150935" text-anchor="middle" font-size="11">1.11</text>
<text x="105.55555555555556" y="376" text-anchor="middle" font-size="12">gemvN</text>
<polygon points="196.8,269.8 196.9,268.6 197.0,267.5 197.1,266.3 197.3,265.1 197.5,263.9 197.7,262.7 198.0,261.6 198.3,260.4 198.8,259.2 199.6,258.0 200.6,256.8 202.0,255.6 203.7,254.5 205.9,253.3 208.4,252.1 211.3,250.9 214.5,249.7 217.8,248.5 221.2,247.4 224.4,246.2 227.5,245.0 230.1,243.8 232.3,242.6 233.8,241.5 234.7,240.3 234.9,239.1 234.5,237.9 233.6,236.7 232.3,235.5 230.7,234.4 228.9,233.2 227.0,232.0 224.9,230.8 222.8,229.6 220.7,228.4 218.7,227.3 216.9,226.1 215.3,224.9 214.2,223.7 213.4,222.5 213.2,221.4 213.4,220.2 213.8,219.0 214.5,217.8 215.0,216.6 215.2,215.4 214.9,214.3 214.1,213.1 212.7,211.9 210.8,210.7 208.5,209.5 206.2,208.3 204.0,207.2 202.1,206.0 200.5,204.8 199.2,203.6 198.4,202.4 197.8,201.3 197.5,200.1 197.4,198.9 197.3,197.7 197.3,196.5 197.4,195.3 197.4,194.2 197.3,193.0 197.3,191.8 197.2,190.6 197.1,189.4 197.0,188.3 196.9,187.1 196.8,185.9 196.5,185.9 196.4,187.1 196.3,188.3 196.2,189.4 196.2,190.6 196.1,191.8 196.0,193.0 196.0,194.2 196.0,195.3 196.0,196.5 196.0,197.7 196.0,198.9 195.8,200.1 195.5,201.3 194.9,202.4 194.1,203.6 192.9,204.8 191.3,206.0 189.3,207.2 187.1,208.3 184.8,209.5 182.6,210.7 180.7,211.9 179.2,213.1 178.4,214.3 178.1,215.4 178.4,216.6 178.9,217.8 179.5,219.0 180.0,220.2 180.1,221.4 179.9,222.5 179.2,223.7 178.0,224.9 176.4,226.1 174.6,227.3 172.6,228.4 170.5,229.6 168.4,230.8 166.4,232.0 164.4,233.2 162.6,234.4 161.0,235.5 159.7,236.7 158.8,237.9 158.4,239.1 158.6,240.3 159.5,241.5 161.0,242.6 163.2,243.8 165.8,245.0 168.9,246.2 172.2,247.4 175.5,248.5 178.9,249.7 182.0,250.9 184.9,252.1 187.5,253.3 189.6,254.5 191.4,255.6 192.7,256.8 193.8,258.0 194.5,259.2 195.0,260.4 195.4,261.6 195.7,262.7 195.9,263.9 196.0,265.1 196.2,266.3 196.3,267.5 196.4,268.6 196.5,269.8" fill="#2a8" opacity="0.5" stroke="#2a8" stroke-width="1"/>
<line x1="160.6" y1="235.9072709434043" x2="232.8" y2="235.9072709434043" stroke="#114" stroke-width="2"/>
<circle cx="196.66666666666669" cy="247.4655280256995" r="2.4" fill="#114"/>
<text x="196.66666666666669" y="188.19077653677894" text-anchor="middle" font-size="11">1.09</text>
<text x="196.66666666666669" y="376" text-anchor="middle" font-size="12">gemvT</text>
<polygon points="287.8,262.8 287.9,261.6 288.0,260.5 288.1,259.3 288.3,258.2 288.5,257.0 288.9,255.9 289.4,254.7 290.3,253.6 291.8,252.4 294.1,251.3 297.3,250.1 301.2,249.0 305.6,247.8 310.0,246.7 313.9,245.5 317.0,244.4 319.3,243.2 320.9,242.1 322.3,240.9 323.7,239.8 324.9,238.7 325.8,237.5 326.0,236.4 325.3,235.2 323.5,234.1 320.8,232.9 317.6,231.8 314.4,230.6 311.3,229.5 308.6,228.3 306.2,227.2 304.2,226.0 302.4,224.9 300.8,223.7 299.2,222.6 297.6,221.4 296.0,220.3 294.5,219.1 293.0,218.0 291.7,216.8 290.6,215.7 289.7,214.5 289.2,213.4 288.9,212.3 288.7,211.1 288.6,210.0 288.5,208.8 288.4,207.7 288.3,206.5 288.1,205.4 288.0,204.2 287.9,203.1 287.8,201.9 287.8,200.8 287.8,199.6 287.8,198.5 287.8,197.3 287.9,196.2 288.0,195.0 288.1,193.9 288.2,192.7 288.3,191.6 288.4,190.4 288.5,189.3 288.4,188.1 288.3,187.0 288.2,185.9 288.1,184.7 287.9,183.6 287.9,182.4 287.8,181.3 287.7,181.3 287.7,182.4 287.6,183.6 287.5,184.7 287.4,185.9 287.2,187.0 287.1,188.1 287.1,189.3 287.1,190.4 287.2,191.6 287.4,192.7 287.5,193.9 287.6,195.0 287.7,196.2 287.7,197.3 287.8,198.5 287.8,199.6 287.7,200.8 287.7,201.9 287.6,203.1 287.6,204.2 287.4,205.4 287.3,206.5 287.1,207.7 287.0,208.8 287.0,210.0 286.9,211.1 286.7,212.3 286.4,213.4 285.8,214.5 285.0,215.7 283.9,216.8 282.6,218.0 281.1,219.1 279.5,220.3 277.9,221.4 276.4,222.6 274.8,223.7 273.1,224.9 271.3,226.0 269.3,227.2 267.0,228.3 264.3,229.5 261.2,230.6 257.9,231.8 254.7,232.9 252.1,234.1 250.3,235.2 249.5,236.4 249.7,237.5 250.6,238.7 251.9,239.8 253.2,240.9 254.6,242.1 256.3,243.2 258.6,244.4 261.7,245.5 265.6,246.7 270.0,247.8 274.4,249.0 278.3,250.1 281.5,251.3 283.7,252.4 285.2,253.6 286.1,254.7 286.7,255.9 287.1,257.0 287.3,258.2 287.5,259.3 287.6,260.5 287.7,261.6 287.7,262.8" fill="#2a8" opacity="0.5" stroke="#2a8" stroke-width="1"/>
<line x1="249.5" y1="236.58041249406364" x2="326.1" y2="236.58041249406364" stroke="#114" stroke-width="2"/>
<circle cx="287.77777777777777" cy="244.31760901644196" r="2.4" fill="#114"/>
<text x="287.77777777777777" y="183.32873027052733" text-anchor="middle" font-size="11">1.08</text>
<text x="287.77777777777777" y="376" text-anchor="middle" font-size="12">ger</text>
<polygon points="379.4,252.9 379.6,251.6 380.0,250.3 380.4,249.0 381.0,247.6 381.8,246.3 382.7,245.0 383.8,243.7 385.1,242.4 386.8,241.0 388.8,239.7 391.2,238.4 394.0,237.1 397.2,235.8 400.6,234.5 404.0,233.1 407.4,231.8 410.5,230.5 413.1,229.2 415.1,227.9 416.4,226.5 417.1,225.2 417.2,223.9 416.7,222.6 415.8,221.3 414.7,219.9 413.4,218.6 412.0,217.3 410.7,216.0 409.5,214.7 408.2,213.3 407.1,212.0 405.9,210.7 404.9,209.4 403.8,208.1 402.9,206.8 401.9,205.4 400.8,204.1 399.8,202.8 398.5,201.5 397.2,200.2 395.6,198.8 393.9,197.5 392.1,196.2 390.3,194.9 388.6,193.6 387.0,192.2 385.6,190.9 384.4,189.6 383.5,188.3 382.9,187.0 382.4,185.6 382.1,184.3 381.8,183.0 381.6,181.7 381.4,180.4 381.1,179.0 380.9,177.7 380.6,176.4 380.4,175.1 380.2,173.8 380.1,172.5 380.0,171.1 379.9,169.8 379.8,168.5 379.7,167.2 379.6,165.9 379.5,164.5 379.3,163.2 379.2,161.9 379.1,160.6 379.1,159.3 378.7,159.3 378.6,160.6 378.5,161.9 378.4,163.2 378.3,164.5 378.2,165.9 378.1,167.2 378.0,168.5 377.9,169.8 377.8,171.1 377.7,172.5 377.5,173.8 377.4,175.1 377.1,176.4 376.9,177.7 376.6,179.0 376.4,180.4 376.2,181.7 375.9,183.0 375.7,184.3 375.4,185.6 374.9,187.0 374.2,188.3 373.4,189.6 372.2,190.9 370.8,192.2 369.2,193.6 367.5,194.9 365.7,196.2 363.9,197.5 362.2,198.8 360.6,200.2 359.2,201.5 358.0,202.8 356.9,204.1 355.9,205.4 354.9,206.8 353.9,208.1 352.9,209.4 351.8,210.7 350.7,212.0 349.5,213.3 348.3,214.7 347.1,216.0 345.7,217.3 344.4,218.6 343.1,219.9 342.0,221.3 341.1,222.6 340.6,223.9 340.7,225.2 341.3,226.5 342.7,227.9 344.7,229.2 347.3,230.5 350.4,231.8 353.8,233.1 357.2,234.5 360.6,235.8 363.7,237.1 366.5,238.4 369.0,239.7 371.0,241.0 372.6,242.4 374.0,243.7 375.1,245.0 376.0,246.3 376.8,247.6 377.3,249.0 377.8,250.3 378.2,251.6 378.4,252.9" fill="#2a8" opacity="0.5" stroke="#2a8" stroke-width="1"/>
<line x1="343.8" y1="219.18738023764763" x2="413.9" y2="219.18738023764763" stroke="#114" stroke-width="2"/>
<circle cx="378.8888888888889" cy="231.0757981528642" r="2.4" fill="#114"/>
<text x="378.8888888888889" y="162.50648059970672" text-anchor="middle" font-size="11">1.24</text>
<text x="378.8888888888889" y="376" text-anchor="middle" font-size="12">symv</text>
<polygon points="470.2,274.7 470.3,273.1 470.5,271.5 470.7,270.0 470.9,268.4 471.2,266.8 471.3,265.3 471.4,263.7 471.5,262.1 471.5,260.6 471.5,259.0 471.7,257.4 472.1,255.8 472.8,254.3 473.9,252.7 475.5,251.1 477.5,249.6 480.0,248.0 482.9,246.4 485.9,244.9 489.0,243.3 492.0,241.7 494.8,240.1 497.4,238.6 499.8,237.0 502.1,235.4 504.0,233.9 505.7,232.3 507.0,230.7 507.9,229.1 508.3,227.6 508.2,226.0 507.8,224.4 507.0,222.9 506.0,221.3 504.8,219.7 503.5,218.2 502.0,216.6 500.3,215.0 498.3,213.4 496.2,211.9 493.8,210.3 491.3,208.7 488.8,207.2 486.3,205.6 484.0,204.0 482.0,202.5 480.2,200.9 478.7,199.3 477.5,197.7 476.6,196.2 475.8,194.6 475.2,193.0 474.6,191.5 474.2,189.9 473.7,188.3 473.3,186.7 473.0,185.2 472.7,183.6 472.4,182.0 472.2,180.5 472.0,178.9 471.9,177.3 471.8,175.8 471.7,174.2 471.5,172.6 471.3,171.0 471.0,169.5 470.8,167.9 470.6,166.3 470.4,164.8 470.2,163.2 469.8,163.2 469.6,164.8 469.4,166.3 469.2,167.9 469.0,169.5 468.7,171.0 468.5,172.6 468.3,174.2 468.2,175.8 468.1,177.3 468.0,178.9 467.8,180.5 467.6,182.0 467.3,183.6 467.0,185.2 466.7,186.7 466.3,188.3 465.8,189.9 465.4,191.5 464.8,193.0 464.2,194.6 463.4,196.2 462.5,197.7 461.3,199.3 459.8,200.9 458.0,202.5 456.0,204.0 453.7,205.6 451.2,207.2 448.7,208.7 446.2,210.3 443.8,211.9 441.7,213.4 439.7,215.0 438.0,216.6 436.5,218.2 435.2,219.7 434.0,221.3 433.0,222.9 432.2,224.4 431.8,226.0 431.7,227.6 432.1,229.1 433.0,230.7 434.3,232.3 436.0,233.9 437.9,235.4 440.2,237.0 442.6,238.6 445.2,240.1 448.0,241.7 451.0,243.3 454.1,244.9 457.1,246.4 460.0,248.0 462.5,249.6 464.5,251.1 466.1,252.7 467.2,254.3 467.9,255.8 468.3,257.4 468.5,259.0 468.5,260.6 468.5,262.1 468.6,263.7 468.7,265.3 468.8,266.8 469.1,268.4 469.3,270.0 469.5,271.5 469.7,273.1 469.8,274.7" fill="#2a8" opacity="0.5" stroke="#2a8" stroke-width="1"/>
<line x1="432.3" y1="224.33025665535627" x2="507.7" y2="224.33025665535627" stroke="#114" stroke-width="2"/>
<circle cx="470.0" cy="239.44424286248199" r="2.4" fill="#114"/>
<text x="470.0" y="168.16291908788324" text-anchor="middle" font-size="11">1.19</text>
<text x="470.0" y="376" text-anchor="middle" font-size="12">trmv</text>
<polygon points="561.8,259.7 562.0,258.9 562.4,258.1 562.8,257.3 563.3,256.5 564.0,255.7 564.7,254.9 565.5,254.1 566.5,253.3 567.7,252.4 568.9,251.6 570.3,250.8 571.8,250.0 573.4,249.2 575.0,248.4 576.5,247.6 578.0,246.8 579.4,245.9 580.6,245.1 581.6,244.3 582.4,243.5 583.0,242.7 583.4,241.9 583.8,241.1 584.1,240.3 584.4,239.4 584.8,238.6 585.3,237.8 586.0,237.0 586.7,236.2 587.7,235.4 588.8,234.6 589.9,233.8 591.2,232.9 592.6,232.1 594.0,231.3 595.3,230.5 596.6,229.7 597.6,228.9 598.5,228.1 599.1,227.3 599.4,226.4 599.3,225.6 598.7,224.8 597.8,224.0 596.4,223.2 594.7,222.4 592.8,221.6 590.6,220.8 588.3,219.9 586.0,219.1 583.8,218.3 581.7,217.5 579.7,216.7 578.0,215.9 576.4,215.1 575.0,214.3 573.7,213.5 572.5,212.6 571.4,211.8 570.3,211.0 569.2,210.2 568.2,209.4 567.2,208.6 566.3,207.8 565.4,207.0 564.6,206.1 563.8,205.3 563.2,204.5 562.7,203.7 562.3,202.9 561.9,202.1 560.3,202.1 560.0,202.9 559.5,203.7 559.0,204.5 558.4,205.3 557.7,206.1 556.8,207.0 556.0,207.8 555.0,208.6 554.0,209.4 553.0,210.2 551.9,211.0 550.8,211.8 549.7,212.6 548.5,213.5 547.2,214.3 545.8,215.1 544.2,215.9 542.5,216.7 540.6,217.5 538.5,218.3 536.2,219.1 533.9,219.9 531.6,220.8 529.5,221.6 527.5,222.4 525.8,223.2 524.4,224.0 523.5,224.8 523.0,225.6 522.8,226.4 523.1,227.3 523.7,228.1 524.6,228.9 525.7,229.7 526.9,230.5 528.3,231.3 529.6,232.1 531.0,232.9 532.3,233.8 533.5,234.6 534.5,235.4 535.5,236.2 536.3,237.0 536.9,237.8 537.4,238.6 537.8,239.4 538.1,240.3 538.4,241.1 538.8,241.9 539.2,242.7 539.8,243.5 540.6,244.3 541.6,245.1 542.8,245.9 544.2,246.8 545.7,247.6 547.3,248.4 548.9,249.2 550.4,250.0 551.9,250.8 553.3,251.6 554.6,252.4 555.7,253.3 556.7,254.1 557.5,254.9 558.3,255.7 558.9,256.5 559.4,257.3 559.8,258.1 560.2,258.9 560.4,259.7" fill="#2a8" opacity="0.5" stroke="#2a8" stroke-width="1"/>
<line x1="524.8" y1="229.09827107813484" x2="597.4" y2="229.09827107813484" stroke="#114" stroke-width="2"/>
<circle cx="561.1111111111111" cy="244.10214527416684" r="2.4" fill="#114"/>
<text x="561.1111111111111" y="201.84061353539377" text-anchor="middle" font-size="11">1.15</text>
<text x="561.1111111111111" y="376" text-anchor="middle" font-size="12">trsv</text>
<polygon points="654.8,255.0 655.9,252.8 657.3,250.6 658.9,248.4 660.7,246.3 662.5,244.1 664.3,241.9 665.8,239.7 667.1,237.5 668.1,235.3 668.6,233.2 668.8,231.0 668.8,228.8 668.6,226.6 668.5,224.4 668.4,222.3 668.4,220.1 668.7,217.9 669.2,215.7 670.0,213.5 671.0,211.4 672.3,209.2 673.8,207.0 675.6,204.8 677.7,202.6 680.0,200.5 682.4,198.3 684.7,196.1 686.9,193.9 688.7,191.7 689.9,189.5 690.5,187.4 690.3,185.2 689.4,183.0 687.9,180.8 685.8,178.6 683.4,176.5 680.8,174.3 678.0,172.1 675.3,169.9 672.7,167.7 670.3,165.6 668.0,163.4 665.9,161.2 664.0,159.0 662.3,156.8 660.8,154.7 659.6,152.5 658.5,150.3 657.7,148.1 657.0,145.9 656.4,143.7 655.9,141.6 655.5,139.4 655.2,137.2 654.9,135.0 654.6,132.8 654.4,130.7 654.2,128.5 654.1,126.3 654.0,124.1 653.9,121.9 653.8,119.8 653.7,117.6 653.5,115.4 653.4,113.2 653.2,111.0 653.1,108.9 652.9,106.7 652.8,104.5 652.6,102.3 652.5,100.1 651.9,100.1 651.8,102.3 651.7,104.5 651.5,106.7 651.4,108.9 651.2,111.0 651.0,113.2 650.9,115.4 650.8,117.6 650.7,119.8 650.6,121.9 650.5,124.1 650.3,126.3 650.2,128.5 650.0,130.7 649.8,132.8 649.6,135.0 649.3,137.2 648.9,139.4 648.5,141.6 648.0,143.7 647.5,145.9 646.8,148.1 645.9,150.3 644.9,152.5 643.6,154.7 642.2,156.8 640.5,159.0 638.6,161.2 636.5,163.4 634.2,165.6 631.7,167.7 629.1,169.9 626.4,172.1 623.7,174.3 621.0,176.5 618.6,178.6 616.6,180.8 615.0,183.0 614.1,185.2 614.0,187.4 614.5,189.5 615.8,191.7 617.5,193.9 619.7,196.1 622.1,198.3 624.5,200.5 626.7,202.6 628.8,204.8 630.6,207.0 632.2,209.2 633.5,211.4 634.5,213.5 635.2,215.7 635.7,217.9 636.0,220.1 636.1,222.3 636.0,224.4 635.8,226.6 635.6,228.8 635.6,231.0 635.8,233.2 636.4,235.3 637.3,237.5 638.6,239.7 640.2,241.9 642.0,244.1 643.8,246.3 645.6,248.4 647.2,250.6 648.5,252.8 649.6,255.0" fill="#2a8" opacity="0.5" stroke="#2a8" stroke-width="1"/>
<line x1="614.7" y1="189.94138271126778" x2="689.7" y2="189.94138271126778" stroke="#114" stroke-width="2"/>
<circle cx="652.2222222222223" cy="236.59440392692682" r="2.4" fill="#114"/>
<text x="652.2222222222223" y="109.29799506626688" text-anchor="middle" font-size="11">1.50</text>
<text x="652.2222222222223" y="376" text-anchor="middle" font-size="12">spmv</text>
<polygon points="743.4,290.3 743.4,287.8 743.5,285.2 743.6,282.7 743.7,280.2 743.8,277.7 743.9,275.2 744.1,272.7 744.1,270.2 744.3,267.7 744.4,265.2 744.5,262.6 744.7,260.1 744.9,257.6 745.1,255.1 745.4,252.6 745.7,250.1 746.0,247.6 746.3,245.1 746.6,242.6 747.0,240.0 747.5,237.5 748.2,235.0 749.1,232.5 750.4,230.0 752.0,227.5 753.8,225.0 755.8,222.5 757.9,219.9 760.2,217.4 762.8,214.9 765.9,212.4 769.4,209.9 773.2,207.4 776.8,204.9 779.8,202.4 781.5,199.9 781.6,197.3 780.1,194.8 777.3,192.3 773.6,189.8 769.7,187.3 765.9,184.8 762.5,182.3 759.4,179.8 756.7,177.3 754.4,174.7 752.3,172.2 750.4,169.7 748.8,167.2 747.6,164.7 746.7,162.2 746.2,159.7 745.8,157.2 745.7,154.7 745.7,152.1 745.7,149.6 745.6,147.1 745.5,144.6 745.4,142.1 745.2,139.6 745.0,137.1 744.7,134.6 744.5,132.1 744.3,129.5 744.1,127.0 743.9,124.5 743.8,122.0 743.6,119.5 743.5,117.0 743.4,114.5 743.4,112.0 743.3,112.0 743.2,114.5 743.1,117.0 743.0,119.5 742.9,122.0 742.7,124.5 742.6,127.0 742.4,129.5 742.2,132.1 741.9,134.6 741.7,137.1 741.5,139.6 741.3,142.1 741.1,144.6 741.0,147.1 741.0,149.6 741.0,152.1 741.0,154.7 740.8,157.2 740.5,159.7 739.9,162.2 739.0,164.7 737.8,167.2 736.3,169.7 734.4,172.2 732.3,174.7 729.9,177.3 727.3,179.8 724.2,182.3 720.8,184.8 717.0,187.3 713.0,189.8 709.4,192.3 706.6,194.8 705.1,197.3 705.2,199.9 706.9,202.4 709.8,204.9 713.5,207.4 717.3,209.9 720.8,212.4 723.9,214.9 726.5,217.4 728.8,219.9 730.9,222.5 732.9,225.0 734.7,227.5 736.3,230.0 737.6,232.5 738.5,235.0 739.2,237.5 739.7,240.0 740.0,242.6 740.4,245.1 740.7,247.6 741.0,250.1 741.3,252.6 741.5,255.1 741.8,257.6 742.0,260.1 742.1,262.6 742.3,265.2 742.4,267.7 742.5,270.2 742.6,272.7 742.7,275.2 742.8,277.7 742.9,280.2 743.1,282.7 743.2,285.2 743.2,287.8 743.3,290.3" fill="#2a8" opacity="0.5" stroke="#2a8" stroke-width="1"/>
<line x1="704.9" y1="198.89770665066754" x2="781.7" y2="198.89770665066754" stroke="#114" stroke-width="2"/>
<circle cx="743.3333333333334" cy="204.20994247963463" r="2.4" fill="#114"/>
<text x="743.3333333333334" y="123.40414263529294" text-anchor="middle" font-size="11">1.42</text>
<text x="743.3333333333334" y="376" text-anchor="middle" font-size="12">gbmvN</text>
<polygon points="834.6,283.0 834.7,281.1 834.8,279.1 835.0,277.2 835.3,275.2 835.5,273.3 835.8,271.3 836.1,269.3 836.4,267.4 836.6,265.4 836.8,263.5 837.0,261.5 837.3,259.5 837.7,257.6 838.1,255.6 838.5,253.7 839.0,251.7 839.7,249.7 840.8,247.8 842.3,245.8 844.6,243.9 847.8,241.9 851.8,239.9 856.4,238.0 861.2,236.0 865.7,234.1 869.3,232.1 871.7,230.1 872.7,228.2 872.4,226.2 871.3,224.3 869.6,222.3 867.7,220.3 865.8,218.4 864.0,216.4 862.1,214.5 859.9,212.5 857.3,210.5 854.4,208.6 851.3,206.6 848.2,204.7 845.3,202.7 842.9,200.7 841.0,198.8 839.7,196.8 838.8,194.9 838.3,192.9 838.0,190.9 837.8,189.0 837.6,187.0 837.5,185.1 837.4,183.1 837.2,181.1 837.1,179.2 836.9,177.2 836.7,175.3 836.5,173.3 836.3,171.3 836.1,169.4 836.0,167.4 835.9,165.5 835.9,163.5 835.8,161.5 835.8,159.6 835.7,157.6 835.6,155.7 835.4,153.7 835.2,151.7 835.0,149.8 834.9,147.8 834.7,145.9 834.6,143.9 834.3,143.9 834.2,145.9 834.0,147.8 833.9,149.8 833.7,151.7 833.4,153.7 833.3,155.7 833.2,157.6 833.1,159.6 833.0,161.5 833.0,163.5 833.0,165.5 832.9,167.4 832.8,169.4 832.6,171.3 832.4,173.3 832.2,175.3 832.0,177.2 831.8,179.2 831.7,181.1 831.5,183.1 831.4,185.1 831.3,187.0 831.1,189.0 830.9,190.9 830.6,192.9 830.1,194.9 829.2,196.8 827.8,198.8 826.0,200.7 823.5,202.7 820.7,204.7 817.6,206.6 814.5,208.6 811.6,210.5 809.0,212.5 806.8,214.5 804.9,216.4 803.0,218.4 801.2,220.3 799.3,222.3 797.6,224.3 796.4,226.2 796.2,228.2 797.2,230.1 799.5,232.1 803.2,234.1 807.7,236.0 812.5,238.0 817.1,239.9 821.1,241.9 824.3,243.9 826.6,245.8 828.1,247.8 829.2,249.7 829.9,251.7 830.4,253.7 830.8,255.6 831.2,257.6 831.6,259.5 831.8,261.5 832.1,263.5 832.3,265.4 832.5,267.4 832.8,269.3 833.1,271.3 833.3,273.3 833.6,275.2 833.9,277.2 834.1,279.1 834.2,281.1 834.3,283.0" fill="#2a8" opacity="0.5" stroke="#2a8" stroke-width="1"/>
<line x1="797.0" y1="225.11256400264708" x2="871.9" y2="225.11256400264708" stroke="#114" stroke-width="2"/>
<circle cx="834.4444444444445" cy="233.2415535425646" r="2.4" fill="#114"/>
<text x="834.4444444444445" y="151.55475438047137" text-anchor="middle" font-size="11">1.18</text>
<text x="834.4444444444445" y="376" text-anchor="middle" font-size="12">sbmv</text>
<text x="450.0" y="428" text-anchor="middle" font-size="11" fill="#666">violin = ratio distribution over sizes · line = median · dark dot = worst size · green = every size ≥ gate</text>
</svg>
