<svg xmlns="http://www.w3.org/2000/svg" width="900" height="460" font-family="sans-serif">
<rect width="900" height="460" fill="white"/>
<text x="450.0" y="28" text-anchor="middle" font-size="18" font-weight="bold">LAPACK: PureBLAS / OpenBLAS (AVX2, 1 thread, Float64)</text>
<line x1="62" y1="400.0" x2="768" y2="400.0" stroke="#eee"/>
<text x="54" y="404.0" text-anchor="end" font-size="11" fill="#666">0.5×</text>
<line x1="62" y1="340.8131248761984" x2="768" y2="340.8131248761984" stroke="#eee"/>
<text x="54" y="344.8131248761984" text-anchor="end" font-size="11" fill="#666">0.7×</text>
<line x1="62" y1="278.0725089529416" x2="768" y2="278.0725089529416" stroke="#eee"/>
<text x="54" y="282.0725089529416" text-anchor="end" font-size="11" fill="#666">1.0×</text>
<line x1="62" y1="206.74949888339793" x2="768" y2="206.74949888339793" stroke="#eee"/>
<text x="54" y="210.74949888339793" text-anchor="end" font-size="11" fill="#666">1.5×</text>
<line x1="62" y1="156.14501790588315" x2="768" y2="156.14501790588315" stroke="#eee"/>
<text x="54" y="160.14501790588315" text-anchor="end" font-size="11" fill="#666">2.0×</text>
<line x1="62" y1="84.82200783633951" x2="768" y2="84.82200783633951" stroke="#eee"/>
<text x="54" y="88.82200783633951" text-anchor="end" font-size="11" fill="#666">3.0×</text>
<line x1="62.0" y1="50" x2="62.0" y2="400" stroke="#f4f4f4"/>
<text x="62.0" y="418" text-anchor="middle" font-size="11" fill="#444">8</text>
<line x1="238.5" y1="50" x2="238.5" y2="400" stroke="#f4f4f4"/>
<text x="238.5" y="418" text-anchor="middle" font-size="11" fill="#444">32</text>
<line x1="415.0" y1="50" x2="415.0" y2="400" stroke="#f4f4f4"/>
<text x="415.0" y="418" text-anchor="middle" font-size="11" fill="#444">128</text>
<line x1="503.25" y1="50" x2="503.25" y2="400" stroke="#f4f4f4"/>
<text x="503.25" y="418" text-anchor="middle" font-size="11" fill="#444">256</text>
<line x1="591.5" y1="50" x2="591.5" y2="400" stroke="#f4f4f4"/>
<text x="591.5" y="418" text-anchor="middle" font-size="11" fill="#444">512</text>
<line x1="679.75" y1="50" x2="679.75" y2="400" stroke="#f4f4f4"/>
<text x="679.75" y="418" text-anchor="middle" font-size="11" fill="#444">1024</text>
<line x1="768.0" y1="50" x2="768.0" y2="400" stroke="#f4f4f4"/>
<text x="768.0" y="418" text-anchor="middle" font-size="11" fill="#444">2048</text>
<line x1="62" y1="278.0725089529416" x2="768" y2="278.0725089529416" stroke="#888"/>
<line x1="62" y1="285.2532686977488" x2="768" y2="285.2532686977488" stroke="#d33" stroke-width="1.5" stroke-dasharray="6 4"/>
<text x="66" y="280.2532686977488" font-size="11" fill="#d33">0.96× gate</text>
<polygon points="62.0,219.0 238.5,200.4 415.0,264.5 503.2,262.7 591.5,260.1 679.8,265.4 768.0,267.2 768.0,268.8 679.8,266.5 591.5,263.0 503.2,267.5 415.0,267.8 238.5,211.4 62.0,226.5" fill="#1f77b4" opacity="0.14" stroke="none"/>
<polyline points="62.0,224.9 238.5,205.2 415.0,267.2 503.2,266.6 591.5,261.3 679.8,265.8 768.0,267.7" fill="none" stroke="#1f77b4" stroke-width="2"/>
<circle cx="62.0" cy="224.9" r="3" fill="#1f77b4"/>
<circle cx="238.5" cy="205.2" r="3" fill="#1f77b4"/>
<circle cx="415.0" cy="267.2" r="3" fill="#1f77b4"/>
<circle cx="503.2" cy="266.6" r="3" fill="#1f77b4"/>
<circle cx="591.5" cy="261.3" r="3" fill="#1f77b4"/>
<circle cx="679.8" cy="265.8" r="3" fill="#1f77b4"/>
<circle cx="768.0" cy="267.7" r="3" fill="#1f77b4"/>
<line x1="782" y1="56" x2="802" y2="56" stroke="#1f77b4" stroke-width="3"/>
<text x="806" y="60" font-size="12">potrf</text>
<polygon points="62.0,50.0 238.5,191.2 415.0,232.0 503.2,255.7 591.5,237.5 679.8,242.3 768.0,240.8 768.0,245.3 679.8,243.6 591.5,237.7 503.2,256.1 415.0,232.7 238.5,192.1 62.0,79.5" fill="#d62728" opacity="0.14" stroke="none"/>
<polyline points="62.0,74.6 238.5,191.9 415.0,232.2 503.2,255.9 591.5,237.6 679.8,242.4 768.0,243.9" fill="none" stroke="#d62728" stroke-width="2"/>
<circle cx="62.0" cy="74.6" r="3" fill="#d62728"/>
<circle cx="238.5" cy="191.9" r="3" fill="#d62728"/>
<circle cx="415.0" cy="232.2" r="3" fill="#d62728"/>
<circle cx="503.2" cy="255.9" r="3" fill="#d62728"/>
<circle cx="591.5" cy="237.6" r="3" fill="#d62728"/>
<circle cx="679.8" cy="242.4" r="3" fill="#d62728"/>
<circle cx="768.0" cy="243.9" r="3" fill="#d62728"/>
<line x1="782" y1="74" x2="802" y2="74" stroke="#d62728" stroke-width="3"/>
<text x="806" y="78" font-size="12">geqrf</text>
<polygon points="62.0,136.2 238.5,135.4 415.0,243.2 503.2,277.2 591.5,274.7 679.8,270.6 768.0,272.6 768.0,276.9 679.8,271.1 591.5,275.3 503.2,278.0 415.0,244.1 238.5,143.8 62.0,143.7" fill="#2ca02c" opacity="0.14" stroke="none"/>
<polyline points="62.0,138.6 238.5,137.0 415.0,243.7 503.2,277.6 591.5,274.9 679.8,270.6 768.0,274.1" fill="none" stroke="#2ca02c" stroke-width="2"/>
<circle cx="62.0" cy="138.6" r="3" fill="#2ca02c"/>
<circle cx="238.5" cy="137.0" r="3" fill="#2ca02c"/>
<circle cx="415.0" cy="243.7" r="3" fill="#2ca02c"/>
<circle cx="503.2" cy="277.6" r="3" fill="#2ca02c"/>
<circle cx="591.5" cy="274.9" r="3" fill="#2ca02c"/>
<circle cx="679.8" cy="270.6" r="3" fill="#2ca02c"/>
<circle cx="768.0" cy="274.1" r="3" fill="#2ca02c"/>
<line x1="782" y1="92" x2="802" y2="92" stroke="#2ca02c" stroke-width="3"/>
<text x="806" y="96" font-size="12">getrf</text>
<polygon points="62.0,183.0 238.5,243.2 415.0,261.7 503.2,236.2 591.5,201.9 679.8,231.6 768.0,240.0 768.0,248.0 679.8,242.1 591.5,228.9 503.2,238.7 415.0,262.2 238.5,247.3 62.0,183.5" fill="#9467bd" opacity="0.14" stroke="none"/>
<polyline points="62.0,183.4 238.5,243.7 415.0,262.0 503.2,237.6 591.5,222.7 679.8,240.1 768.0,244.2" fill="none" stroke="#9467bd" stroke-width="2"/>
<circle cx="62.0" cy="183.4" r="3" fill="#9467bd"/>
<circle cx="238.5" cy="243.7" r="3" fill="#9467bd"/>
<circle cx="415.0" cy="262.0" r="3" fill="#9467bd"/>
<circle cx="503.2" cy="237.6" r="3" fill="#9467bd"/>
<circle cx="591.5" cy="222.7" r="3" fill="#9467bd"/>
<circle cx="679.8" cy="240.1" r="3" fill="#9467bd"/>
<circle cx="768.0" cy="244.2" r="3" fill="#9467bd"/>
<line x1="782" y1="110" x2="802" y2="110" stroke="#9467bd" stroke-width="3"/>
<text x="806" y="114" font-size="12">gesvd</text>
<text x="415.0" y="450" text-anchor="middle" font-size="11" fill="#666">matrix size n (log) · y = median ratio (log) · dashed = the 0.96× gate</text>
</svg>
