<svg xmlns="http://www.w3.org/2000/svg" width="900" height="460" font-family="sans-serif">
<rect width="900" height="460" fill="white"/>
<text x="450.0" y="28" text-anchor="middle" font-size="18" font-weight="bold">BLAS-3: PureBLAS / OpenBLAS (AVX-512, 1 thread, Float64)</text>
<line x1="62" y1="400.0" x2="768" y2="400.0" stroke="#eee"/>
<text x="54" y="404.0" text-anchor="end" font-size="11" fill="#666">0.5×</text>
<line x1="62" y1="323.15894650676915" x2="768" y2="323.15894650676915" stroke="#eee"/>
<text x="54" y="327.15894650676915" text-anchor="end" font-size="11" fill="#666">0.7×</text>
<line x1="62" y1="241.70414737650603" x2="768" y2="241.70414737650603" stroke="#eee"/>
<text x="54" y="245.70414737650603" text-anchor="end" font-size="11" fill="#666">1.0×</text>
<line x1="62" y1="149.10700957207933" x2="768" y2="149.10700957207933" stroke="#eee"/>
<text x="54" y="153.10700957207933" text-anchor="end" font-size="11" fill="#666">1.5×</text>
<line x1="62" y1="83.408294753012" x2="768" y2="83.408294753012" stroke="#eee"/>
<text x="54" y="87.408294753012" text-anchor="end" font-size="11" fill="#666">2.0×</text>
<line x1="62.0" y1="50" x2="62.0" y2="400" stroke="#f4f4f4"/>
<text x="62.0" y="418" text-anchor="middle" font-size="11" fill="#444">8</text>
<line x1="238.5" y1="50" x2="238.5" y2="400" stroke="#f4f4f4"/>
<text x="238.5" y="418" text-anchor="middle" font-size="11" fill="#444">32</text>
<line x1="415.0" y1="50" x2="415.0" y2="400" stroke="#f4f4f4"/>
<text x="415.0" y="418" text-anchor="middle" font-size="11" fill="#444">128</text>
<line x1="503.25" y1="50" x2="503.25" y2="400" stroke="#f4f4f4"/>
<text x="503.25" y="418" text-anchor="middle" font-size="11" fill="#444">256</text>
<line x1="591.5" y1="50" x2="591.5" y2="400" stroke="#f4f4f4"/>
<text x="591.5" y="418" text-anchor="middle" font-size="11" fill="#444">512</text>
<line x1="679.75" y1="50" x2="679.75" y2="400" stroke="#f4f4f4"/>
<text x="679.75" y="418" text-anchor="middle" font-size="11" fill="#444">1024</text>
<line x1="768.0" y1="50" x2="768.0" y2="400" stroke="#f4f4f4"/>
<text x="768.0" y="418" text-anchor="middle" font-size="11" fill="#444">2048</text>
<line x1="62" y1="241.70414737650603" x2="768" y2="241.70414737650603" stroke="#888"/>
<line x1="62" y1="251.02677409938354" x2="768" y2="251.02677409938354" stroke="#d33" stroke-width="1.5" stroke-dasharray="6 4"/>
<text x="66" y="246.02677409938354" font-size="11" fill="#d33">0.96× gate</text>
<polygon points="62.0,210.9 238.5,282.5 415.0,202.5 503.2,223.8 591.5,236.4 679.8,237.5 768.0,220.9 768.0,222.7 679.8,238.5 591.5,241.4 503.2,240.6 415.0,217.1 238.5,297.2 62.0,235.3" fill="#1f77b4" opacity="0.14" stroke="none"/>
<polyline points="62.0,222.7 238.5,291.1 415.0,203.3 503.2,232.2 591.5,240.0 679.8,237.7 768.0,221.3" fill="none" stroke="#1f77b4" stroke-width="2"/>
<circle cx="62.0" cy="222.7" r="3" fill="#1f77b4"/>
<circle cx="238.5" cy="291.1" r="3" fill="#1f77b4"/>
<circle cx="415.0" cy="203.3" r="3" fill="#1f77b4"/>
<circle cx="503.2" cy="232.2" r="3" fill="#1f77b4"/>
<circle cx="591.5" cy="240.0" r="3" fill="#1f77b4"/>
<circle cx="679.8" cy="237.7" r="3" fill="#1f77b4"/>
<circle cx="768.0" cy="221.3" r="3" fill="#1f77b4"/>
<line x1="782" y1="56" x2="802" y2="56" stroke="#1f77b4" stroke-width="3"/>
<text x="806" y="60" font-size="12">gemm</text>
<polygon points="62.0,179.9 238.5,166.9 415.0,205.4 503.2,208.8 591.5,215.5 679.8,216.2 768.0,218.8 768.0,219.1 679.8,217.4 591.5,217.8 503.2,213.5 415.0,208.8 238.5,169.1 62.0,189.0" fill="#d62728" opacity="0.14" stroke="none"/>
<polyline points="62.0,185.0 238.5,168.2 415.0,206.1 503.2,210.2 591.5,216.7 679.8,216.8 768.0,219.0" fill="none" stroke="#d62728" stroke-width="2"/>
<circle cx="62.0" cy="185.0" r="3" fill="#d62728"/>
<circle cx="238.5" cy="168.2" r="3" fill="#d62728"/>
<circle cx="415.0" cy="206.1" r="3" fill="#d62728"/>
<circle cx="503.2" cy="210.2" r="3" fill="#d62728"/>
<circle cx="591.5" cy="216.7" r="3" fill="#d62728"/>
<circle cx="679.8" cy="216.8" r="3" fill="#d62728"/>
<circle cx="768.0" cy="219.0" r="3" fill="#d62728"/>
<line x1="782" y1="74" x2="802" y2="74" stroke="#d62728" stroke-width="3"/>
<text x="806" y="78" font-size="12">zgemm</text>
<polygon points="62.0,214.3 238.5,213.8 415.0,203.4 503.2,243.3 591.5,234.6 679.8,238.7 768.0,243.5 768.0,243.9 679.8,240.3 591.5,240.2 503.2,250.4 415.0,216.2 238.5,220.5 62.0,247.9" fill="#2ca02c" opacity="0.14" stroke="none"/>
<polyline points="62.0,224.6 238.5,216.5 415.0,212.5 503.2,245.6 591.5,239.5 679.8,239.4 768.0,243.7" fill="none" stroke="#2ca02c" stroke-width="2"/>
<circle cx="62.0" cy="224.6" r="3" fill="#2ca02c"/>
<circle cx="238.5" cy="216.5" r="3" fill="#2ca02c"/>
<circle cx="415.0" cy="212.5" r="3" fill="#2ca02c"/>
<circle cx="503.2" cy="245.6" r="3" fill="#2ca02c"/>
<circle cx="591.5" cy="239.5" r="3" fill="#2ca02c"/>
<circle cx="679.8" cy="239.4" r="3" fill="#2ca02c"/>
<circle cx="768.0" cy="243.7" r="3" fill="#2ca02c"/>
<line x1="782" y1="92" x2="802" y2="92" stroke="#2ca02c" stroke-width="3"/>
<text x="806" y="96" font-size="12">symm</text>
<polygon points="62.0,181.2 238.5,198.3 415.0,208.5 503.2,220.2 591.5,222.0 679.8,236.3 768.0,249.5 768.0,250.1 679.8,237.3 591.5,222.9 503.2,224.2 415.0,210.1 238.5,206.0 62.0,189.1" fill="#9467bd" opacity="0.14" stroke="none"/>
<polyline points="62.0,182.5 238.5,199.3 415.0,209.3 503.2,221.6 591.5,222.4 679.8,236.7 768.0,249.9" fill="none" stroke="#9467bd" stroke-width="2"/>
<circle cx="62.0" cy="182.5" r="3" fill="#9467bd"/>
<circle cx="238.5" cy="199.3" r="3" fill="#9467bd"/>
<circle cx="415.0" cy="209.3" r="3" fill="#9467bd"/>
<circle cx="503.2" cy="221.6" r="3" fill="#9467bd"/>
<circle cx="591.5" cy="222.4" r="3" fill="#9467bd"/>
<circle cx="679.8" cy="236.7" r="3" fill="#9467bd"/>
<circle cx="768.0" cy="249.9" r="3" fill="#9467bd"/>
<line x1="782" y1="110" x2="802" y2="110" stroke="#9467bd" stroke-width="3"/>
<text x="806" y="114" font-size="12">syrk</text>
<polygon points="62.0,184.7 238.5,183.4 415.0,178.6 503.2,206.4 591.5,228.4 679.8,243.5 768.0,249.4 768.0,250.0 679.8,244.3 591.5,230.7 503.2,228.9 415.0,187.4 238.5,189.5 62.0,213.2" fill="#ff7f0e" opacity="0.14" stroke="none"/>
<polyline points="62.0,189.4 238.5,187.1 415.0,184.0 503.2,225.0 591.5,229.0 679.8,243.7 768.0,249.9" fill="none" stroke="#ff7f0e" stroke-width="2"/>
<circle cx="62.0" cy="189.4" r="3" fill="#ff7f0e"/>
<circle cx="238.5" cy="187.1" r="3" fill="#ff7f0e"/>
<circle cx="415.0" cy="184.0" r="3" fill="#ff7f0e"/>
<circle cx="503.2" cy="225.0" r="3" fill="#ff7f0e"/>
<circle cx="591.5" cy="229.0" r="3" fill="#ff7f0e"/>
<circle cx="679.8" cy="243.7" r="3" fill="#ff7f0e"/>
<circle cx="768.0" cy="249.9" r="3" fill="#ff7f0e"/>
<line x1="782" y1="128" x2="802" y2="128" stroke="#ff7f0e" stroke-width="3"/>
<text x="806" y="132" font-size="12">syr2k</text>
<polygon points="62.0,142.4 238.5,225.0 415.0,207.2 503.2,217.3 591.5,237.5 679.8,247.0 768.0,248.1 768.0,248.5 679.8,247.8 591.5,241.7 503.2,222.1 415.0,217.6 238.5,228.2 62.0,203.7" fill="#17becf" opacity="0.14" stroke="none"/>
<polyline points="62.0,175.6 238.5,226.6 415.0,210.5 503.2,220.9 591.5,240.1 679.8,247.4 768.0,248.3" fill="none" stroke="#17becf" stroke-width="2"/>
<circle cx="62.0" cy="175.6" r="3" fill="#17becf"/>
<circle cx="238.5" cy="226.6" r="3" fill="#17becf"/>
<circle cx="415.0" cy="210.5" r="3" fill="#17becf"/>
<circle cx="503.2" cy="220.9" r="3" fill="#17becf"/>
<circle cx="591.5" cy="240.1" r="3" fill="#17becf"/>
<circle cx="679.8" cy="247.4" r="3" fill="#17becf"/>
<circle cx="768.0" cy="248.3" r="3" fill="#17becf"/>
<line x1="782" y1="146" x2="802" y2="146" stroke="#17becf" stroke-width="3"/>
<text x="806" y="150" font-size="12">trmm</text>
<polygon points="62.0,171.1 238.5,104.9 415.0,79.8 503.2,89.4 591.5,167.3 679.8,197.0 768.0,227.5 768.0,230.6 679.8,198.4 591.5,175.8 503.2,100.4 415.0,83.8 238.5,111.6 62.0,174.9" fill="#8c564b" opacity="0.14" stroke="none"/>
<polyline points="62.0,173.9 238.5,106.4 415.0,81.9 503.2,94.7 591.5,169.2 679.8,198.0 768.0,229.2" fill="none" stroke="#8c564b" stroke-width="2"/>
<circle cx="62.0" cy="173.9" r="3" fill="#8c564b"/>
<circle cx="238.5" cy="106.4" r="3" fill="#8c564b"/>
<circle cx="415.0" cy="81.9" r="3" fill="#8c564b"/>
<circle cx="503.2" cy="94.7" r="3" fill="#8c564b"/>
<circle cx="591.5" cy="169.2" r="3" fill="#8c564b"/>
<circle cx="679.8" cy="198.0" r="3" fill="#8c564b"/>
<circle cx="768.0" cy="229.2" r="3" fill="#8c564b"/>
<line x1="782" y1="164" x2="802" y2="164" stroke="#8c564b" stroke-width="3"/>
<text x="806" y="168" font-size="12">trsm</text>
<text x="415.0" y="450" text-anchor="middle" font-size="11" fill="#666">matrix size n (log) · y = median ratio (log) · dashed = the 0.96× gate</text>
</svg>
