<svg xmlns="http://www.w3.org/2000/svg" width="962" height="420" font-family="sans-serif">
<rect width="962" height="420" fill="white"/>
<text x="481.0" y="26" text-anchor="middle" font-size="17" font-weight="bold">BLAS-1 — PureBLAS / AOCL (PB/AOCL ratio)</text>
<line x1="46" y1="42" x2="68" y2="42" stroke="#d62728" stroke-width="3"/>
<text x="73" y="46" font-size="12">Zen3 · AVX2</text>
<line x1="176" y1="42" x2="198" y2="42" stroke="#2ca02c" stroke-width="3"/>
<text x="203" y="46" font-size="12">Zen5 · AVX-512</text>
<line x1="327" y1="42" x2="349" y2="42" stroke="#1f77b4" stroke-width="3"/>
<text x="354" y="46" font-size="12">Zen4 · AVX-512</text>
<rect x="46" y="60" width="210" height="138" fill="none" stroke="#e2e2e2"/>
<line x1="46" y1="123.63364685834881" x2="256" y2="123.63364685834881" stroke="#d33" stroke-dasharray="4 3"/>
<text x="42" y="201.0" text-anchor="end" font-size="9" fill="#999">0.5×</text>
<text x="42" y="126.63364685834881" text-anchor="end" font-size="9" fill="#999">1.0×</text>
<polygon points="46.0,68.3 46.0,68.6" fill="#d62728" opacity="0.11"/>
<polyline points="46.0,68.5" fill="none" stroke="#d62728" stroke-width="1.6"/>
<circle cx="46.0" cy="68.5" r="2" fill="#d62728"/>
<polygon points="46.0,119.3 46.0,120.1" fill="#2ca02c" opacity="0.11"/>
<polyline points="46.0,119.7" fill="none" stroke="#2ca02c" stroke-width="1.6"/>
<circle cx="46.0" cy="119.7" r="2" fill="#2ca02c"/>
<polygon points="46.0,113.4 46.0,114.3" fill="#1f77b4" opacity="0.11"/>
<polyline points="46.0,114.2" fill="none" stroke="#1f77b4" stroke-width="1.6"/>
<circle cx="46.0" cy="114.2" r="2" fill="#1f77b4"/>
<text x="151.0" y="55" text-anchor="middle" font-size="12" font-weight="bold">axpy</text>
<line x1="46.0" y1="60" x2="46.0" y2="198" stroke="#f4f4f4"/>
<text x="46.0" y="209" text-anchor="middle" font-size="8" fill="#999">1000</text>
<rect x="276" y="60" width="210" height="138" fill="none" stroke="#e2e2e2"/>
<line x1="276" y1="115.76276119065531" x2="486" y2="115.76276119065531" stroke="#d33" stroke-dasharray="4 3"/>
<text x="272" y="201.0" text-anchor="end" font-size="9" fill="#999">0.5×</text>
<text x="272" y="118.76276119065531" text-anchor="end" font-size="9" fill="#999">1.0×</text>
<text x="272" y="63.0" text-anchor="end" font-size="9" fill="#999">1.6×</text>
<polygon points="276.0,102.3 276.0,103.0" fill="#d62728" opacity="0.11"/>
<polyline points="276.0,102.8" fill="none" stroke="#d62728" stroke-width="1.6"/>
<circle cx="276.0" cy="102.8" r="2" fill="#d62728"/>
<polygon points="276.0,110.7 276.0,112.9" fill="#2ca02c" opacity="0.11"/>
<polyline points="276.0,112.4" fill="none" stroke="#2ca02c" stroke-width="1.6"/>
<circle cx="276.0" cy="112.4" r="2" fill="#2ca02c"/>
<polygon points="276.0,106.2 276.0,109.8" fill="#1f77b4" opacity="0.11"/>
<polyline points="276.0,109.5" fill="none" stroke="#1f77b4" stroke-width="1.6"/>
<circle cx="276.0" cy="109.5" r="2" fill="#1f77b4"/>
<text x="381.0" y="55" text-anchor="middle" font-size="12" font-weight="bold">dot</text>
<line x1="276.0" y1="60" x2="276.0" y2="198" stroke="#f4f4f4"/>
<text x="276.0" y="209" text-anchor="middle" font-size="8" fill="#999">1000</text>
<rect x="506" y="60" width="210" height="138" fill="none" stroke="#e2e2e2"/>
<line x1="506" y1="157.68094352564685" x2="716" y2="157.68094352564685" stroke="#d33" stroke-dasharray="4 3"/>
<text x="502" y="201.0" text-anchor="end" font-size="9" fill="#999">0.5×</text>
<text x="502" y="160.68094352564685" text-anchor="end" font-size="9" fill="#999">1.0×</text>
<text x="502" y="63.01879437706514" text-anchor="end" font-size="9" fill="#999">5.36×</text>
<polygon points="506.0,90.3 506.0,91.1" fill="#d62728" opacity="0.11"/>
<polyline points="506.0,90.7" fill="none" stroke="#d62728" stroke-width="1.6"/>
<circle cx="506.0" cy="90.7" r="2" fill="#d62728"/>
<polygon points="506.0,64.5 506.0,67.2" fill="#2ca02c" opacity="0.11"/>
<polyline points="506.0,65.1" fill="none" stroke="#2ca02c" stroke-width="1.6"/>
<circle cx="506.0" cy="65.1" r="2" fill="#2ca02c"/>
<polygon points="506.0,65.6 506.0,67.8" fill="#1f77b4" opacity="0.11"/>
<polyline points="506.0,66.7" fill="none" stroke="#1f77b4" stroke-width="1.6"/>
<circle cx="506.0" cy="66.7" r="2" fill="#1f77b4"/>
<text x="611.0" y="55" text-anchor="middle" font-size="12" font-weight="bold">nrm2</text>
<line x1="506.0" y1="60" x2="506.0" y2="198" stroke="#f4f4f4"/>
<text x="506.0" y="209" text-anchor="middle" font-size="8" fill="#999">1000</text>
<rect x="736" y="60" width="210" height="138" fill="none" stroke="#e2e2e2"/>
<line x1="736" y1="173.2206982844133" x2="946" y2="173.2206982844133" stroke="#d33" stroke-dasharray="4 3"/>
<text x="732" y="201.0" text-anchor="end" font-size="9" fill="#999">0.5×</text>
<text x="732" y="176.2206982844133" text-anchor="end" font-size="9" fill="#999">1.0×</text>
<polygon points="736.0,76.7 736.0,77.1" fill="#d62728" opacity="0.11"/>
<polyline points="736.0,76.9" fill="none" stroke="#d62728" stroke-width="1.6"/>
<circle cx="736.0" cy="76.9" r="2" fill="#d62728"/>
<polygon points="736.0,62.8 736.0,63.3" fill="#2ca02c" opacity="0.11"/>
<polyline points="736.0,63.0" fill="none" stroke="#2ca02c" stroke-width="1.6"/>
<circle cx="736.0" cy="63.0" r="2" fill="#2ca02c"/>
<polygon points="736.0,67.8 736.0,68.5" fill="#1f77b4" opacity="0.11"/>
<polyline points="736.0,68.2" fill="none" stroke="#1f77b4" stroke-width="1.6"/>
<circle cx="736.0" cy="68.2" r="2" fill="#1f77b4"/>
<text x="841.0" y="55" text-anchor="middle" font-size="12" font-weight="bold">asum</text>
<line x1="736.0" y1="60" x2="736.0" y2="198" stroke="#f4f4f4"/>
<text x="736.0" y="209" text-anchor="middle" font-size="8" fill="#999">1000</text>
<rect x="46" y="232" width="210" height="138" fill="none" stroke="#e2e2e2"/>
<line x1="46" y1="304.44129403899956" x2="256" y2="304.44129403899956" stroke="#d33" stroke-dasharray="4 3"/>
<text x="42" y="373.0" text-anchor="end" font-size="9" fill="#999">0.5×</text>
<text x="42" y="307.44129403899956" text-anchor="end" font-size="9" fill="#999">1.0×</text>
<text x="42" y="235.04241167625187" text-anchor="end" font-size="9" fill="#999">2.15×</text>
<polygon points="46.0,239.3 46.0,239.9" fill="#d62728" opacity="0.11"/>
<polyline points="46.0,239.8" fill="none" stroke="#d62728" stroke-width="1.6"/>
<circle cx="46.0" cy="239.8" r="2" fill="#d62728"/>
<polygon points="46.0,301.2 46.0,302.6" fill="#2ca02c" opacity="0.11"/>
<polyline points="46.0,301.9" fill="none" stroke="#2ca02c" stroke-width="1.6"/>
<circle cx="46.0" cy="301.9" r="2" fill="#2ca02c"/>
<polygon points="46.0,301.5 46.0,302.2" fill="#1f77b4" opacity="0.11"/>
<polyline points="46.0,302.0" fill="none" stroke="#1f77b4" stroke-width="1.6"/>
<circle cx="46.0" cy="302.0" r="2" fill="#1f77b4"/>
<text x="151.0" y="227" text-anchor="middle" font-size="12" font-weight="bold">scal</text>
<line x1="46.0" y1="232" x2="46.0" y2="370" stroke="#f4f4f4"/>
<text x="46.0" y="381" text-anchor="middle" font-size="8" fill="#999">1000</text>
<rect x="276" y="232" width="210" height="138" fill="none" stroke="#e2e2e2"/>
<line x1="276" y1="287.7627611906553" x2="486" y2="287.7627611906553" stroke="#d33" stroke-dasharray="4 3"/>
<text x="272" y="373.0" text-anchor="end" font-size="9" fill="#999">0.5×</text>
<text x="272" y="290.7627611906553" text-anchor="end" font-size="9" fill="#999">1.0×</text>
<text x="272" y="235.0" text-anchor="end" font-size="9" fill="#999">1.6×</text>
<polygon points="276.0,273.5 276.0,277.4" fill="#d62728" opacity="0.11"/>
<polyline points="276.0,274.6" fill="none" stroke="#d62728" stroke-width="1.6"/>
<circle cx="276.0" cy="274.6" r="2" fill="#d62728"/>
<polygon points="276.0,300.6 276.0,313.2" fill="#2ca02c" opacity="0.11"/>
<polyline points="276.0,304.7" fill="none" stroke="#2ca02c" stroke-width="1.6"/>
<circle cx="276.0" cy="304.7" r="2" fill="#2ca02c"/>
<polygon points="276.0,303.6 276.0,312.2" fill="#1f77b4" opacity="0.11"/>
<polyline points="276.0,308.7" fill="none" stroke="#1f77b4" stroke-width="1.6"/>
<circle cx="276.0" cy="308.7" r="2" fill="#1f77b4"/>
<text x="381.0" y="227" text-anchor="middle" font-size="12" font-weight="bold">iamax</text>
<line x1="276.0" y1="232" x2="276.0" y2="370" stroke="#f4f4f4"/>
<text x="276.0" y="381" text-anchor="middle" font-size="8" fill="#999">1000</text>
</svg>
