<svg xmlns="http://www.w3.org/2000/svg" width="900" height="440" font-family="sans-serif">
<rect width="900" height="440" fill="white"/>
<text x="450.0" y="28" text-anchor="middle" font-size="18" font-weight="bold">Complex BLAS-1: PureBLAS / OpenBLAS (AVX-512, 1 thread, ComplexF64)</text>
<line x1="60" y1="358.0" x2="880" y2="358.0" stroke="#eee"/>
<text x="52" y="362.0" text-anchor="end" font-size="11" fill="#666">0×</text>
<line x1="60" y1="346.4987871498004" x2="880" y2="346.4987871498004" stroke="#eee"/>
<text x="52" y="350.4987871498004" text-anchor="end" font-size="11" fill="#666">0.5×</text>
<line x1="60" y1="334.9975742996008" x2="880" y2="334.9975742996008" stroke="#eee"/>
<text x="52" y="338.9975742996008" text-anchor="end" font-size="11" fill="#666">1×</text>
<line x1="60" y1="323.49636144940115" x2="880" y2="323.49636144940115" stroke="#eee"/>
<text x="52" y="327.49636144940115" text-anchor="end" font-size="11" fill="#666">1.5×</text>
<line x1="60" y1="334.9975742996008" x2="880" y2="334.9975742996008" stroke="#888" stroke-width="1"/>
<line x1="60" y1="335.91767132761674" x2="880" y2="335.91767132761674" stroke="#d33" stroke-width="1.5" stroke-dasharray="6 4"/>
<text x="880" y="330.91767132761674" text-anchor="end" font-size="11" fill="#d33">0.96× gate</text>
<polygon points="118.6,339.9 118.6,339.7 118.7,339.6 118.7,339.4 118.8,339.3 118.8,339.2 118.9,339.0 118.9,338.9 118.9,338.7 118.9,338.6 118.8,338.4 118.8,338.3 118.8,338.2 118.8,338.0 118.9,337.9 119.0,337.7 119.3,337.6 119.6,337.5 120.3,337.3 121.3,337.2 122.8,337.0 125.0,336.9 127.7,336.7 131.1,336.6 134.9,336.5 138.9,336.3 142.9,336.2 146.8,336.0 150.5,335.9 153.9,335.7 156.9,335.6 159.8,335.5 162.3,335.3 164.6,335.2 166.5,335.0 167.7,334.9 167.8,334.8 166.5,334.6 163.7,334.5 159.4,334.3 153.9,334.2 147.8,334.0 141.5,333.9 135.7,333.8 130.8,333.6 126.9,333.5 124.2,333.3 122.6,333.2 121.7,333.1 121.5,332.9 121.7,332.8 122.1,332.6 122.8,332.5 123.6,332.3 124.4,332.2 125.3,332.1 126.1,331.9 126.7,331.8 127.3,331.6 127.6,331.5 127.8,331.4 127.6,331.2 127.1,331.1 126.2,330.9 125.1,330.8 123.8,330.6 122.5,330.5 121.3,330.4 120.3,330.2 119.6,330.1 119.1,329.9 118.9,329.8 118.3,329.8 118.0,329.9 117.5,330.1 116.8,330.2 115.9,330.4 114.7,330.5 113.4,330.6 112.1,330.8 110.9,330.9 110.1,331.1 109.5,331.2 109.4,331.4 109.5,331.5 109.9,331.6 110.4,331.8 111.1,331.9 111.9,332.1 112.7,332.2 113.6,332.3 114.3,332.5 115.0,332.6 115.5,332.8 115.7,332.9 115.4,333.1 114.6,333.2 112.9,333.3 110.2,333.5 106.4,333.6 101.4,333.8 95.6,333.9 89.4,334.0 83.2,334.2 77.8,334.3 73.5,334.5 70.7,334.6 69.4,334.8 69.5,334.9 70.6,335.0 72.5,335.2 74.8,335.3 77.4,335.5 80.2,335.6 83.3,335.7 86.6,335.9 90.3,336.0 94.2,336.2 98.2,336.3 102.2,336.5 106.0,336.6 109.4,336.7 112.2,336.9 114.3,337.0 115.9,337.2 116.9,337.3 117.5,337.5 117.9,337.6 118.1,337.7 118.2,337.9 118.3,338.0 118.3,338.2 118.3,338.3 118.3,338.4 118.3,338.6 118.2,338.7 118.2,338.9 118.3,339.0 118.3,339.2 118.4,339.3 118.4,339.4 118.5,339.6 118.5,339.7 118.5,339.9" fill="#d33" opacity="0.5" stroke="#d33" stroke-width="1"/>
<line x1="69.3" y1="334.834672030292" x2="167.9" y2="334.834672030292" stroke="#114" stroke-width="2"/>
<circle cx="118.57142857142857" cy="336.17488318293016" r="2.4" fill="#114"/>
<text x="118.57142857142857" y="324.8087449019667" text-anchor="middle" font-size="11">1.01</text>
<text x="118.57142857142857" y="376" text-anchor="middle" font-size="12">zaxpy</text>
<polygon points="235.8,338.3 235.9,338.2 235.9,338.0 236.0,337.9 236.0,337.7 236.1,337.6 236.2,337.4 236.3,337.2 236.3,337.1 236.5,336.9 236.8,336.8 237.2,336.6 238.0,336.5 239.3,336.3 241.1,336.2 243.7,336.0 247.2,335.9 251.6,335.7 256.7,335.6 262.4,335.4 268.2,335.3 273.6,335.1 278.3,335.0 281.8,334.8 284.0,334.7 284.9,334.5 284.8,334.3 283.8,334.2 282.5,334.0 280.9,333.9 279.4,333.7 278.0,333.6 276.8,333.4 275.9,333.3 275.1,333.1 274.5,333.0 273.9,332.8 272.9,332.7 271.3,332.5 269.0,332.4 266.1,332.2 262.6,332.1 259.0,331.9 255.8,331.8 253.5,331.6 252.4,331.4 252.7,331.3 254.6,331.1 257.7,331.0 261.6,330.8 265.7,330.7 269.2,330.5 271.6,330.4 272.4,330.2 271.3,330.1 268.7,329.9 264.8,329.8 260.1,329.6 255.2,329.5 250.7,329.3 246.8,329.2 243.6,329.0 241.2,328.9 239.4,328.7 238.2,328.6 237.4,328.4 236.8,328.2 236.5,328.1 236.2,327.9 236.0,327.8 235.9,327.6 235.8,327.5 235.6,327.5 235.5,327.6 235.4,327.8 235.2,327.9 235.0,328.1 234.6,328.2 234.0,328.4 233.2,328.6 232.0,328.7 230.3,328.9 227.8,329.0 224.7,329.2 220.7,329.3 216.2,329.5 211.3,329.6 206.7,329.8 202.7,329.9 200.1,330.1 199.1,330.2 199.8,330.4 202.2,330.5 205.8,330.7 209.8,330.8 213.7,331.0 216.8,331.1 218.7,331.3 219.1,331.4 218.0,331.6 215.6,331.8 212.4,331.9 208.8,332.1 205.4,332.2 202.4,332.4 200.1,332.5 198.6,332.7 197.6,332.8 196.9,333.0 196.3,333.1 195.6,333.3 194.6,333.4 193.4,333.6 192.0,333.7 190.5,333.9 189.0,334.0 187.6,334.2 186.7,334.3 186.5,334.5 187.4,334.7 189.6,334.8 193.1,335.0 197.8,335.1 203.3,335.3 209.1,335.4 214.7,335.6 219.8,335.7 224.2,335.9 227.7,336.0 230.3,336.2 232.2,336.3 233.4,336.5 234.2,336.6 234.7,336.8 234.9,336.9 235.1,337.1 235.2,337.2 235.2,337.4 235.3,337.6 235.4,337.7 235.5,337.9 235.5,338.0 235.6,338.2 235.6,338.3" fill="#2a8" opacity="0.5" stroke="#2a8" stroke-width="1"/>
<line x1="196.3" y1="333.13365965768236" x2="275.2" y2="333.13365965768236" stroke="#114" stroke-width="2"/>
<circle cx="235.71428571428572" cy="334.783187365506" r="2.4" fill="#114"/>
<text x="235.71428571428572" y="322.56744020881064" text-anchor="middle" font-size="11">1.08</text>
<text x="235.71428571428572" y="376" text-anchor="middle" font-size="12">zdotc</text>
<polygon points="352.9,337.7 352.9,337.7 353.0,337.6 353.1,337.5 353.3,337.5 353.6,337.4 353.8,337.4 354.0,337.3 354.1,337.2 354.1,337.2 353.9,337.1 353.7,337.1 353.5,337.0 353.3,336.9 353.1,336.9 353.0,336.8 353.0,336.7 353.1,336.7 353.3,336.6 353.6,336.6 354.2,336.5 355.0,336.4 356.0,336.4 357.2,336.3 358.3,336.3 359.2,336.2 359.9,336.1 360.3,336.1 360.5,336.0 360.4,335.9 360.2,335.9 359.8,335.8 359.3,335.8 358.9,335.7 358.8,335.6 359.2,335.6 360.4,335.5 362.8,335.5 366.5,335.4 371.4,335.3 377.1,335.3 383.1,335.2 388.6,335.2 393.3,335.1 397.1,335.0 399.8,335.0 401.6,334.9 402.1,334.8 400.9,334.8 398.0,334.7 393.3,334.7 387.6,334.6 381.9,334.5 377.2,334.5 373.8,334.4 371.9,334.4 370.8,334.3 369.7,334.2 368.1,334.2 366.0,334.1 363.3,334.0 360.6,334.0 358.2,333.9 356.3,333.9 354.9,333.8 354.1,333.7 353.5,333.7 353.2,333.6 353.0,333.6 352.9,333.5 352.9,333.4 352.9,333.4 352.8,333.4 352.8,333.4 352.8,333.5 352.7,333.6 352.5,333.6 352.2,333.7 351.6,333.7 350.8,333.8 349.4,333.9 347.5,333.9 345.1,334.0 342.4,334.0 339.8,334.1 337.6,334.2 336.0,334.2 335.0,334.3 333.8,334.4 331.9,334.4 328.6,334.5 323.8,334.5 318.1,334.6 312.4,334.7 307.7,334.7 304.8,334.8 303.7,334.8 304.2,334.9 305.9,335.0 308.7,335.0 312.4,335.1 317.1,335.2 322.6,335.2 328.6,335.3 334.3,335.3 339.2,335.4 342.9,335.5 345.3,335.5 346.5,335.6 346.9,335.6 346.8,335.7 346.4,335.8 345.9,335.8 345.5,335.9 345.3,335.9 345.2,336.0 345.4,336.1 345.8,336.1 346.5,336.2 347.5,336.3 348.6,336.3 349.7,336.4 350.7,336.4 351.5,336.5 352.1,336.6 352.4,336.6 352.6,336.7 352.7,336.7 352.7,336.8 352.6,336.9 352.4,336.9 352.2,337.0 352.0,337.1 351.8,337.1 351.6,337.2 351.6,337.2 351.7,337.3 351.9,337.4 352.1,337.4 352.4,337.5 352.6,337.5 352.7,337.6 352.8,337.7 352.8,337.7" fill="#2a8" opacity="0.5" stroke="#2a8" stroke-width="1"/>
<line x1="303.6" y1="334.85915416554457" x2="402.1" y2="334.85915416554457" stroke="#114" stroke-width="2"/>
<circle cx="352.85714285714283" cy="335.31561514485844" r="2.4" fill="#114"/>
<text x="352.85714285714283" y="327.83372500964174" text-anchor="middle" font-size="11">1.01</text>
<text x="352.85714285714283" y="376" text-anchor="middle" font-size="12">zscal</text>
<polygon points="478.2,290.8 480.7,287.5 483.7,284.1 487.0,280.7 490.6,277.3 494.4,273.9 498.1,270.5 501.7,267.1 504.9,263.7 507.5,260.3 509.5,256.9 510.8,253.5 511.3,250.1 511.0,246.7 510.1,243.4 508.6,240.0 506.8,236.6 504.8,233.2 502.9,229.8 501.1,226.4 499.9,223.0 499.3,219.6 499.4,216.2 500.3,212.8 502.1,209.4 504.5,206.0 507.5,202.6 510.7,199.3 513.8,195.9 516.5,192.5 518.3,189.1 519.2,185.7 518.9,182.3 517.3,178.9 514.5,175.5 510.8,172.1 506.3,168.7 501.5,165.3 496.5,161.9 491.6,158.6 487.2,155.2 483.3,151.8 480.0,148.4 477.4,145.0 475.3,141.6 473.9,138.2 472.8,134.8 472.2,131.4 471.9,128.0 471.8,124.6 472.0,121.2 472.3,117.8 472.9,114.5 473.6,111.1 474.5,107.7 475.5,104.3 476.7,100.9 478.1,97.5 479.5,94.1 480.9,90.7 482.3,87.3 483.5,83.9 484.5,80.5 485.1,77.1 485.3,73.7 485.2,70.4 484.6,67.0 483.6,63.6 482.4,60.2 480.9,56.8 479.4,53.4 477.8,50.0 462.2,50.0 460.6,53.4 459.1,56.8 457.6,60.2 456.4,63.6 455.4,67.0 454.8,70.4 454.7,73.7 454.9,77.1 455.5,80.5 456.5,83.9 457.7,87.3 459.1,90.7 460.5,94.1 461.9,97.5 463.3,100.9 464.5,104.3 465.5,107.7 466.4,111.1 467.1,114.5 467.7,117.8 468.0,121.2 468.2,124.6 468.1,128.0 467.8,131.4 467.2,134.8 466.1,138.2 464.7,141.6 462.6,145.0 460.0,148.4 456.7,151.8 452.8,155.2 448.4,158.6 443.5,161.9 438.5,165.3 433.7,168.7 429.2,172.1 425.5,175.5 422.7,178.9 421.1,182.3 420.8,185.7 421.7,189.1 423.5,192.5 426.2,195.9 429.3,199.3 432.5,202.6 435.5,206.0 437.9,209.4 439.7,212.8 440.6,216.2 440.7,219.6 440.1,223.0 438.9,226.4 437.1,229.8 435.2,233.2 433.2,236.6 431.4,240.0 429.9,243.4 429.0,246.7 428.7,250.1 429.2,253.5 430.5,256.9 432.5,260.3 435.1,263.7 438.3,267.1 441.9,270.5 445.6,273.9 449.4,277.3 453.0,280.7 456.3,284.1 459.3,287.5 461.8,290.8" fill="#2a8" opacity="0.5" stroke="#2a8" stroke-width="1"/>
<line x1="421.1" y1="187.36765818320868" x2="518.9" y2="187.36765818320868" stroke="#114" stroke-width="2"/>
<circle cx="470.0" cy="262.4119644628598" r="2.4" fill="#114"/>
<text x="470.0" y="61.43396226415098" text-anchor="middle" font-size="11">7.42</text>
<text x="470.0" y="376" text-anchor="middle" font-size="12">dznrm2</text>
<polygon points="587.1,337.6 587.1,337.5 587.2,337.4 587.2,337.3 587.3,337.2 587.5,337.2 587.7,337.1 588.0,337.0 588.3,336.9 588.5,336.8 588.6,336.7 588.6,336.6 588.6,336.5 588.7,336.4 589.2,336.3 590.0,336.2 591.1,336.1 592.5,336.1 594.2,336.0 596.7,335.9 600.1,335.8 603.9,335.7 606.7,335.6 607.7,335.5 607.0,335.4 606.5,335.3 608.6,335.2 614.6,335.1 623.4,335.1 631.8,335.0 636.3,334.9 635.7,334.8 631.0,334.7 624.1,334.6 616.3,334.5 608.4,334.4 601.3,334.3 595.6,334.2 591.8,334.1 589.5,334.0 588.3,334.0 587.9,333.9 587.8,333.8 587.8,333.7 587.9,333.6 588.0,333.5 588.0,333.4 587.9,333.3 587.8,333.2 587.7,333.1 587.5,333.0 587.5,333.0 587.6,332.9 587.7,332.8 587.7,332.7 587.7,332.6 587.6,332.5 587.5,332.4 587.5,332.3 587.5,332.2 587.5,332.1 587.6,332.0 587.6,331.9 587.6,331.9 587.5,331.8 587.4,331.7 587.3,331.6 587.2,331.5 587.2,331.4 587.2,331.3 587.1,331.2 587.1,331.1 587.1,331.1 587.1,331.2 587.1,331.3 587.1,331.4 587.0,331.5 587.0,331.6 586.9,331.7 586.8,331.8 586.7,331.9 586.7,331.9 586.7,332.0 586.7,332.1 586.8,332.2 586.8,332.3 586.8,332.4 586.7,332.5 586.6,332.6 586.6,332.7 586.6,332.8 586.7,332.9 586.8,333.0 586.7,333.0 586.6,333.1 586.5,333.2 586.3,333.3 586.3,333.4 586.3,333.5 586.4,333.6 586.4,333.7 586.5,333.8 586.4,333.9 585.9,334.0 584.8,334.0 582.5,334.1 578.7,334.2 573.0,334.3 565.9,334.4 558.0,334.5 550.2,334.6 543.3,334.7 538.6,334.8 537.9,334.9 542.5,335.0 550.9,335.1 559.7,335.1 565.7,335.2 567.8,335.3 567.3,335.4 566.6,335.5 567.6,335.6 570.4,335.7 574.2,335.8 577.6,335.9 580.1,336.0 581.8,336.1 583.1,336.1 584.3,336.2 585.1,336.3 585.6,336.4 585.7,336.5 585.7,336.6 585.7,336.7 585.8,336.8 586.0,336.9 586.3,337.0 586.6,337.1 586.8,337.2 587.0,337.2 587.1,337.3 587.1,337.4 587.1,337.5 587.1,337.6" fill="#2a8" opacity="0.5" stroke="#2a8" stroke-width="1"/>
<line x1="538.8" y1="334.89868788780774" x2="635.5" y2="334.89868788780774" stroke="#114" stroke-width="2"/>
<circle cx="587.1428571428571" cy="335.57955656791177" r="2.4" fill="#114"/>
<text x="587.1428571428571" y="325.79206322786195" text-anchor="middle" font-size="11">1.00</text>
<text x="587.1428571428571" y="376" text-anchor="middle" font-size="12">dzasum</text>
<polygon points="712.8,336.0 715.6,335.9 718.8,335.8 722.6,335.7 726.6,335.6 730.9,335.5 735.3,335.4 739.5,335.3 743.4,335.2 746.8,335.1 749.5,335.0 751.5,334.9 752.8,334.8 753.4,334.7 753.5,334.6 753.1,334.5 752.4,334.4 751.5,334.3 750.5,334.1 749.4,334.0 748.2,333.9 746.9,333.8 745.4,333.7 743.7,333.6 741.8,333.5 739.8,333.4 737.6,333.3 735.5,333.2 733.5,333.1 731.6,333.0 730.1,332.9 728.9,332.8 728.2,332.7 727.8,332.6 727.9,332.5 728.2,332.4 728.7,332.3 729.4,332.2 730.0,332.1 730.6,332.0 731.0,331.9 731.3,331.8 731.6,331.7 731.8,331.6 732.1,331.5 732.5,331.4 733.3,331.3 734.3,331.2 735.6,331.1 737.2,331.0 738.9,330.9 740.5,330.8 741.9,330.7 742.9,330.6 743.3,330.5 743.0,330.4 741.9,330.3 740.1,330.2 737.6,330.1 734.7,330.0 731.3,329.9 727.8,329.8 724.2,329.7 720.8,329.6 717.6,329.5 714.9,329.4 712.5,329.3 710.5,329.2 708.9,329.1 707.6,329.0 706.6,328.9 705.9,328.8 702.7,328.8 701.9,328.9 701.0,329.0 699.7,329.1 698.1,329.2 696.1,329.3 693.7,329.4 690.9,329.5 687.8,329.6 684.4,329.7 680.8,329.8 677.3,329.9 673.9,330.0 670.9,330.1 668.5,330.2 666.7,330.3 665.6,330.4 665.3,330.5 665.7,330.6 666.7,330.7 668.1,330.8 669.7,330.9 671.4,331.0 672.9,331.1 674.3,331.2 675.3,331.3 676.0,331.4 676.5,331.5 676.8,331.6 677.0,331.7 677.2,331.8 677.6,331.9 678.0,332.0 678.6,332.1 679.2,332.2 679.8,332.3 680.4,332.4 680.7,332.5 680.7,332.6 680.4,332.7 679.6,332.8 678.5,332.9 676.9,333.0 675.1,333.1 673.1,333.2 670.9,333.3 668.8,333.4 666.8,333.5 664.9,333.6 663.2,333.7 661.7,333.8 660.4,333.9 659.2,334.0 658.1,334.1 657.0,334.3 656.2,334.4 655.5,334.5 655.1,334.6 655.1,334.7 655.8,334.8 657.1,334.9 659.1,335.0 661.8,335.1 665.2,335.2 669.0,335.3 673.3,335.4 677.6,335.5 681.9,335.6 686.0,335.7 689.7,335.8 693.0,335.9 695.7,336.0" fill="#2a8" opacity="0.5" stroke="#2a8" stroke-width="1"/>
<line x1="670.5" y1="333.36226419444847" x2="738.1" y2="333.36226419444847" stroke="#114" stroke-width="2"/>
<circle cx="704.2857142857142" cy="335.01987473025025" r="2.4" fill="#114"/>
<text x="704.2857142857142" y="323.5318178776879" text-anchor="middle" font-size="11">1.07</text>
<text x="704.2857142857142" y="376" text-anchor="middle" font-size="12">zdotu</text>
<polygon points="824.6,335.9 825.9,335.5 827.6,335.1 829.7,334.7 832.1,334.3 834.8,333.8 837.7,333.4 840.7,333.0 843.6,332.6 846.4,332.2 849.0,331.8 851.2,331.4 853.1,330.9 854.7,330.5 855.9,330.1 856.9,329.7 857.7,329.3 858.4,328.9 859.1,328.5 859.8,328.1 860.6,327.6 861.4,327.2 862.2,326.8 863.0,326.4 863.8,326.0 864.4,325.6 865.0,325.2 865.6,324.7 866.1,324.3 866.6,323.9 867.1,323.5 867.7,323.1 868.2,322.7 868.8,322.3 869.4,321.9 869.9,321.4 870.3,321.0 870.5,320.6 870.6,320.2 870.6,319.8 870.4,319.4 870.1,319.0 869.9,318.5 869.7,318.1 869.5,317.7 869.4,317.3 869.4,316.9 869.4,316.5 869.4,316.1 869.3,315.7 869.0,315.2 868.5,314.8 867.6,314.4 866.2,314.0 864.4,313.6 862.1,313.2 859.2,312.8 855.9,312.3 852.2,311.9 848.4,311.5 844.4,311.1 840.6,310.7 837.0,310.3 833.7,309.9 830.9,309.5 828.5,309.0 826.6,308.6 825.1,308.2 824.0,307.8 823.2,307.4 822.6,307.0 822.2,306.6 820.7,306.6 820.3,307.0 819.7,307.4 818.9,307.8 817.7,308.2 816.2,308.6 814.3,309.0 812.0,309.5 809.1,309.9 805.9,310.3 802.3,310.7 798.4,311.1 794.5,311.5 790.6,311.9 786.9,312.3 783.6,312.8 780.8,313.2 778.4,313.6 776.6,314.0 775.3,314.4 774.4,314.8 773.9,315.2 773.6,315.7 773.5,316.1 773.4,316.5 773.5,316.9 773.4,317.3 773.4,317.7 773.2,318.1 773.0,318.5 772.7,319.0 772.5,319.4 772.3,319.8 772.2,320.2 772.3,320.6 772.5,321.0 772.9,321.4 773.4,321.9 774.0,322.3 774.6,322.7 775.2,323.1 775.8,323.5 776.3,323.9 776.8,324.3 777.3,324.7 777.8,325.2 778.4,325.6 779.1,326.0 779.8,326.4 780.6,326.8 781.5,327.2 782.3,327.6 783.0,328.1 783.7,328.5 784.4,328.9 785.2,329.3 786.0,329.7 786.9,330.1 788.2,330.5 789.7,330.9 791.6,331.4 793.9,331.8 796.4,332.2 799.2,332.6 802.2,333.0 805.2,333.4 808.1,333.8 810.8,334.3 813.2,334.7 815.2,335.1 816.9,335.5 818.3,335.9" fill="#2a8" opacity="0.5" stroke="#2a8" stroke-width="1"/>
<line x1="772.6" y1="321.0868878586592" x2="870.3" y2="321.0868878586592" stroke="#114" stroke-width="2"/>
<circle cx="821.4285714285714" cy="323.72299134713586" r="2.4" fill="#114"/>
<text x="821.4285714285714" y="303.4383754665102" text-anchor="middle" font-size="11">1.60</text>
<text x="821.4285714285714" y="376" text-anchor="middle" font-size="12">izamax</text>
<text x="450.0" y="428" text-anchor="middle" font-size="11" fill="#666">violin = ratio distribution over sizes · line = median · dark dot = worst size · green = every size ≥ gate</text>
</svg>
