<svg xmlns="http://www.w3.org/2000/svg" width="900" height="440" font-family="sans-serif">
<rect width="900" height="440" fill="white"/>
<text x="450.0" y="28" text-anchor="middle" font-size="18" font-weight="bold">Complex BLAS-1: PureBLAS / OpenBLAS (AVX-512, 1 thread, ComplexF64)</text>
<line x1="60" y1="358.0" x2="880" y2="358.0" stroke="#eee"/>
<text x="52" y="362.0" text-anchor="end" font-size="11" fill="#666">0×</text>
<line x1="60" y1="347.3289871571064" x2="880" y2="347.3289871571064" stroke="#eee"/>
<text x="52" y="351.3289871571064" text-anchor="end" font-size="11" fill="#666">0.5×</text>
<line x1="60" y1="336.6579743142127" x2="880" y2="336.6579743142127" stroke="#eee"/>
<text x="52" y="340.6579743142127" text-anchor="end" font-size="11" fill="#666">1×</text>
<line x1="60" y1="325.9869614713191" x2="880" y2="325.9869614713191" stroke="#eee"/>
<text x="52" y="329.9869614713191" text-anchor="end" font-size="11" fill="#666">1.5×</text>
<line x1="60" y1="336.6579743142127" x2="880" y2="336.6579743142127" stroke="#888" stroke-width="1"/>
<line x1="60" y1="337.5116553416442" x2="880" y2="337.5116553416442" stroke="#d33" stroke-width="1.5" stroke-dasharray="6 4"/>
<text x="880" y="332.5116553416442" text-anchor="end" font-size="11" fill="#d33">0.96× gate</text>
<polygon points="142.1,344.1 142.1,343.8 142.2,343.5 142.4,343.3 142.7,343.0 143.0,342.8 143.4,342.5 143.9,342.3 144.4,342.0 144.8,341.8 145.3,341.5 145.6,341.3 145.8,341.0 145.9,340.8 145.9,340.5 146.0,340.3 146.3,340.0 146.8,339.7 147.6,339.5 148.7,339.2 150.2,339.0 152.2,338.7 155.0,338.5 159.1,338.2 164.7,338.0 172.0,337.7 180.9,337.5 190.6,337.2 199.8,337.0 207.0,336.7 210.9,336.5 210.8,336.2 206.8,336.0 199.8,335.7 191.2,335.4 182.4,335.2 174.7,334.9 168.5,334.7 164.0,334.4 160.9,334.2 158.5,333.9 156.4,333.7 154.3,333.4 152.2,333.2 150.1,332.9 148.4,332.7 147.0,332.4 146.1,332.2 145.4,331.9 144.7,331.6 144.1,331.4 143.5,331.1 143.0,330.9 142.7,330.6 142.5,330.4 142.5,330.1 142.6,329.9 142.8,329.6 142.9,329.4 143.1,329.1 143.2,328.9 143.3,328.6 143.3,328.4 143.2,328.1 143.1,327.8 143.0,327.6 142.8,327.3 142.6,327.1 142.4,326.8 142.2,326.6 142.1,326.3 142.1,326.1 141.9,326.1 141.9,326.3 141.8,326.6 141.6,326.8 141.4,327.1 141.2,327.3 141.0,327.6 140.9,327.8 140.8,328.1 140.7,328.4 140.7,328.6 140.8,328.9 140.9,329.1 141.1,329.4 141.2,329.6 141.4,329.9 141.5,330.1 141.5,330.4 141.3,330.6 141.0,330.9 140.5,331.1 139.9,331.4 139.3,331.6 138.6,331.9 137.9,332.2 137.0,332.4 135.6,332.7 133.9,332.9 131.8,333.2 129.7,333.4 127.6,333.7 125.5,333.9 123.1,334.2 120.0,334.4 115.5,334.7 109.3,334.9 101.6,335.2 92.8,335.4 84.2,335.7 77.2,336.0 73.2,336.2 73.1,336.5 77.0,336.7 84.2,337.0 93.4,337.2 103.1,337.5 112.0,337.7 119.3,338.0 124.9,338.2 129.0,338.5 131.8,338.7 133.8,339.0 135.3,339.2 136.4,339.5 137.2,339.7 137.7,340.0 138.0,340.3 138.1,340.5 138.1,340.8 138.2,341.0 138.4,341.3 138.7,341.5 139.2,341.8 139.6,342.0 140.1,342.3 140.6,342.5 141.0,342.8 141.3,343.0 141.6,343.3 141.8,343.5 141.9,343.8 141.9,344.1" fill="#2a8" opacity="0.5" stroke="#2a8" stroke-width="1"/>
<line x1="72.8" y1="336.2814678378658" x2="211.2" y2="336.2814678378658" stroke="#114" stroke-width="2"/>
<circle cx="142.0" cy="336.77784872516327" r="2.4" fill="#114"/>
<text x="142.0" y="321.8512020389493" text-anchor="middle" font-size="11">1.02</text>
<text x="142.0" y="376" text-anchor="middle" font-size="12">zaxpy</text>
<polygon points="306.1,343.1 306.2,342.8 306.4,342.6 306.5,342.3 306.8,342.0 307.0,341.7 307.2,341.4 307.3,341.1 307.5,340.8 307.8,340.5 308.3,340.2 309.2,340.0 310.5,339.7 312.3,339.4 314.3,339.1 316.7,338.8 319.2,338.5 321.9,338.2 325.1,337.9 328.9,337.7 333.8,337.4 339.8,337.1 346.9,336.8 354.5,336.5 362.0,336.2 368.4,335.9 372.9,335.6 374.9,335.3 374.5,335.1 372.1,334.8 368.6,334.5 364.8,334.2 361.0,333.9 357.4,333.6 354.0,333.3 350.6,333.0 347.2,332.8 343.6,332.5 339.9,332.2 335.9,331.9 331.9,331.6 327.9,331.3 324.0,331.0 320.7,330.7 318.1,330.5 316.2,330.2 314.9,329.9 314.1,329.6 313.3,329.3 312.6,329.0 311.7,328.7 310.8,328.4 309.9,328.1 309.2,327.9 308.5,327.6 308.0,327.3 307.6,327.0 307.3,326.7 307.1,326.4 307.0,326.1 306.9,325.8 307.0,325.6 307.1,325.3 307.1,325.0 307.2,324.7 307.1,324.4 306.9,324.1 306.7,323.8 306.5,323.5 306.4,323.2 306.2,323.0 306.1,322.7 305.9,322.7 305.8,323.0 305.6,323.2 305.5,323.5 305.3,323.8 305.1,324.1 304.9,324.4 304.8,324.7 304.9,325.0 304.9,325.3 305.0,325.6 305.1,325.8 305.0,326.1 304.9,326.4 304.7,326.7 304.4,327.0 304.0,327.3 303.5,327.6 302.8,327.9 302.1,328.1 301.2,328.4 300.3,328.7 299.4,329.0 298.7,329.3 297.9,329.6 297.1,329.9 295.8,330.2 293.9,330.5 291.3,330.7 288.0,331.0 284.1,331.3 280.1,331.6 276.1,331.9 272.1,332.2 268.4,332.5 264.8,332.8 261.4,333.0 258.0,333.3 254.6,333.6 251.0,333.9 247.2,334.2 243.4,334.5 239.9,334.8 237.5,335.1 237.1,335.3 239.1,335.6 243.6,335.9 250.0,336.2 257.5,336.5 265.1,336.8 272.2,337.1 278.2,337.4 283.1,337.7 286.9,337.9 290.1,338.2 292.8,338.5 295.3,338.8 297.7,339.1 299.7,339.4 301.5,339.7 302.8,340.0 303.7,340.2 304.2,340.5 304.5,340.8 304.7,341.1 304.8,341.4 305.0,341.7 305.2,342.0 305.5,342.3 305.6,342.6 305.8,342.8 305.9,343.1" fill="#2a8" opacity="0.5" stroke="#2a8" stroke-width="1"/>
<line x1="237.9" y1="335.0026948748941" x2="374.1" y2="335.0026948748941" stroke="#114" stroke-width="2"/>
<circle cx="306.0" cy="335.9335088421562" r="2.4" fill="#114"/>
<text x="306.0" y="318.68619079834525" text-anchor="middle" font-size="11">1.08</text>
<text x="306.0" y="376" text-anchor="middle" font-size="12">zdotc</text>
<polygon points="470.1,342.0 470.2,341.8 470.4,341.6 470.6,341.4 470.9,341.2 471.3,341.0 471.7,340.8 472.1,340.6 472.5,340.4 472.9,340.1 473.2,339.9 473.5,339.7 473.9,339.5 474.5,339.3 475.3,339.1 476.4,338.9 478.1,338.7 480.3,338.5 483.4,338.2 487.6,338.0 493.0,337.8 499.7,337.6 507.5,337.4 516.1,337.2 524.7,337.0 532.0,336.8 537.0,336.6 538.9,336.3 537.3,336.1 532.6,335.9 525.6,335.7 517.7,335.5 509.8,335.3 503.0,335.1 497.6,334.9 493.5,334.7 490.4,334.5 488.0,334.2 485.8,334.0 483.7,333.8 481.7,333.6 479.8,333.4 478.1,333.2 476.7,333.0 475.6,332.8 474.7,332.6 473.9,332.3 473.2,332.1 472.7,331.9 472.3,331.7 472.2,331.5 472.3,331.3 472.6,331.1 473.1,330.9 473.4,330.7 473.5,330.4 473.4,330.2 473.0,330.0 472.5,329.8 472.0,329.6 471.6,329.4 471.3,329.2 471.1,329.0 471.0,328.8 471.0,328.6 470.9,328.3 470.7,328.1 470.6,327.9 470.4,327.7 470.3,327.5 470.2,327.3 470.1,327.1 469.9,327.1 469.8,327.3 469.7,327.5 469.6,327.7 469.4,327.9 469.3,328.1 469.1,328.3 469.0,328.6 469.0,328.8 468.9,329.0 468.7,329.2 468.4,329.4 468.0,329.6 467.5,329.8 467.0,330.0 466.6,330.2 466.5,330.4 466.6,330.7 466.9,330.9 467.4,331.1 467.7,331.3 467.8,331.5 467.7,331.7 467.3,331.9 466.8,332.1 466.1,332.3 465.3,332.6 464.4,332.8 463.3,333.0 461.9,333.2 460.2,333.4 458.3,333.6 456.3,333.8 454.2,334.0 452.0,334.2 449.6,334.5 446.5,334.7 442.4,334.9 437.0,335.1 430.2,335.3 422.3,335.5 414.4,335.7 407.4,335.9 402.7,336.1 401.1,336.3 403.0,336.6 408.0,336.8 415.3,337.0 423.9,337.2 432.5,337.4 440.3,337.6 447.0,337.8 452.4,338.0 456.6,338.2 459.7,338.5 461.9,338.7 463.6,338.9 464.7,339.1 465.5,339.3 466.1,339.5 466.5,339.7 466.8,339.9 467.1,340.1 467.5,340.4 467.9,340.6 468.3,340.8 468.7,341.0 469.1,341.2 469.4,341.4 469.6,341.6 469.8,341.8 469.9,342.0" fill="#2a8" opacity="0.5" stroke="#2a8" stroke-width="1"/>
<line x1="401.6" y1="336.2263588767544" x2="538.4" y2="336.2263588767544" stroke="#114" stroke-width="2"/>
<circle cx="470.0" cy="336.7104346561416" r="2.4" fill="#114"/>
<text x="470.0" y="322.55908621142186" text-anchor="middle" font-size="11">1.02</text>
<text x="470.0" y="376" text-anchor="middle" font-size="12">zscal</text>
<polygon points="639.6,327.4 642.1,323.5 645.5,319.6 649.7,315.7 654.8,311.8 660.6,307.9 667.1,304.0 673.8,300.1 680.6,296.2 686.9,292.2 692.4,288.3 696.8,284.4 700.1,280.5 702.0,276.6 702.9,272.7 702.8,268.8 702.2,264.9 701.3,261.0 700.5,257.1 699.8,253.2 699.4,249.3 699.3,245.4 699.3,241.5 699.2,237.5 699.0,233.6 698.5,229.7 697.5,225.8 696.1,221.9 694.2,218.0 691.8,214.1 689.1,210.2 686.1,206.3 682.8,202.4 679.2,198.5 675.5,194.6 671.7,190.7 667.9,186.8 664.1,182.8 660.4,178.9 656.9,175.0 653.6,171.1 650.6,167.2 648.0,163.3 645.7,159.4 643.9,155.5 642.4,151.6 641.2,147.7 640.3,143.8 639.8,139.9 639.5,136.0 639.4,132.1 639.5,128.1 639.7,124.2 640.1,120.3 640.5,116.4 640.9,112.5 641.3,108.6 641.7,104.7 642.0,100.8 642.1,96.9 642.1,93.0 642.0,89.1 641.7,85.2 641.2,81.3 640.7,77.4 640.0,73.4 639.3,69.5 638.6,65.6 637.9,61.7 637.2,57.8 636.6,53.9 636.0,50.0 632.0,50.0 631.4,53.9 630.8,57.8 630.1,61.7 629.4,65.6 628.7,69.5 628.0,73.4 627.3,77.4 626.8,81.3 626.3,85.2 626.0,89.1 625.9,93.0 625.9,96.9 626.0,100.8 626.3,104.7 626.7,108.6 627.1,112.5 627.5,116.4 627.9,120.3 628.3,124.2 628.5,128.1 628.6,132.1 628.5,136.0 628.2,139.9 627.7,143.8 626.8,147.7 625.6,151.6 624.1,155.5 622.3,159.4 620.0,163.3 617.4,167.2 614.4,171.1 611.1,175.0 607.6,178.9 603.9,182.8 600.1,186.8 596.3,190.7 592.5,194.6 588.8,198.5 585.2,202.4 581.9,206.3 578.9,210.2 576.2,214.1 573.8,218.0 571.9,221.9 570.5,225.8 569.5,229.7 569.0,233.6 568.8,237.5 568.7,241.5 568.7,245.4 568.6,249.3 568.2,253.2 567.5,257.1 566.7,261.0 565.8,264.9 565.2,268.8 565.1,272.7 566.0,276.6 567.9,280.5 571.2,284.4 575.6,288.3 581.1,292.2 587.4,296.2 594.2,300.1 600.9,304.0 607.4,307.9 613.2,311.8 618.3,315.7 622.5,319.6 625.9,323.5 628.4,327.4" fill="#2a8" opacity="0.5" stroke="#2a8" stroke-width="1"/>
<line x1="568.7" y1="239.88110171670678" x2="699.3" y2="239.88110171670678" stroke="#114" stroke-width="2"/>
<circle cx="634.0" cy="283.79369427888946" r="2.4" fill="#114"/>
<text x="634.0" y="61.43396226415098" text-anchor="middle" font-size="11">5.53</text>
<text x="634.0" y="376" text-anchor="middle" font-size="12">dznrm2</text>
<polygon points="798.0,348.9 798.1,348.6 798.2,348.3 798.3,348.0 798.5,347.7 798.7,347.4 798.9,347.1 799.0,346.8 798.9,346.5 798.7,346.2 798.5,345.9 798.3,345.6 798.2,345.3 798.1,345.0 798.0,344.8 798.0,344.5 798.0,344.2 798.1,343.9 798.2,343.6 798.4,343.3 798.7,343.0 799.0,342.7 799.4,342.4 799.8,342.1 800.1,341.8 800.5,341.5 800.8,341.2 801.1,340.9 801.5,340.6 801.9,340.4 802.5,340.1 803.5,339.8 805.0,339.5 807.4,339.2 811.0,338.9 816.2,338.6 823.1,338.3 831.6,338.0 841.2,337.7 850.9,337.4 859.4,337.1 865.1,336.8 866.9,336.5 864.7,336.2 859.2,336.0 852.1,335.7 844.6,335.4 837.9,335.1 832.2,334.8 827.4,334.5 823.1,334.2 819.1,333.9 815.4,333.6 812.1,333.3 809.4,333.0 807.3,332.7 805.7,332.4 804.5,332.1 803.6,331.8 802.9,331.6 802.2,331.3 801.6,331.0 801.1,330.7 800.5,330.4 800.0,330.1 799.5,329.8 799.1,329.5 798.7,329.2 798.4,328.9 798.2,328.6 798.1,328.3 798.0,328.0 798.0,328.0 797.9,328.3 797.8,328.6 797.6,328.9 797.3,329.2 796.9,329.5 796.5,329.8 796.0,330.1 795.5,330.4 794.9,330.7 794.4,331.0 793.8,331.3 793.1,331.6 792.4,331.8 791.5,332.1 790.3,332.4 788.7,332.7 786.6,333.0 783.9,333.3 780.6,333.6 776.9,333.9 772.9,334.2 768.6,334.5 763.8,334.8 758.1,335.1 751.4,335.4 743.9,335.7 736.8,336.0 731.3,336.2 729.1,336.5 730.9,336.8 736.6,337.1 745.1,337.4 754.8,337.7 764.4,338.0 772.9,338.3 779.8,338.6 785.0,338.9 788.6,339.2 791.0,339.5 792.5,339.8 793.5,340.1 794.1,340.4 794.5,340.6 794.9,340.9 795.2,341.2 795.5,341.5 795.9,341.8 796.2,342.1 796.6,342.4 797.0,342.7 797.3,343.0 797.6,343.3 797.8,343.6 797.9,343.9 798.0,344.2 798.0,344.5 798.0,344.8 797.9,345.0 797.8,345.3 797.7,345.6 797.5,345.9 797.3,346.2 797.1,346.5 797.0,346.8 797.1,347.1 797.3,347.4 797.5,347.7 797.7,348.0 797.8,348.3 797.9,348.6 798.0,348.9" fill="#2a8" opacity="0.5" stroke="#2a8" stroke-width="1"/>
<line x1="729.4" y1="336.4415798254382" x2="866.6" y2="336.4415798254382" stroke="#114" stroke-width="2"/>
<circle cx="798.0" cy="337.2763944181426" r="2.4" fill="#114"/>
<text x="798.0" y="324.08555960772975" text-anchor="middle" font-size="11">1.01</text>
<text x="798.0" y="376" text-anchor="middle" font-size="12">dzasum</text>
<text x="450.0" y="428" text-anchor="middle" font-size="11" fill="#666">violin = ratio distribution over sizes · line = median · dark dot = worst size · green = every size ≥ gate</text>
</svg>
