<svg xmlns="http://www.w3.org/2000/svg" width="900" height="460" font-family="sans-serif">
<rect width="900" height="460" fill="white"/>
<text x="450.0" y="28" text-anchor="middle" font-size="18" font-weight="bold">Complex BLAS-3: PureBLAS / OpenBLAS (AVX2, 1 thread, ComplexF64)</text>
<line x1="62" y1="400.0" x2="768" y2="400.0" stroke="#eee"/>
<text x="54" y="404.0" text-anchor="end" font-size="11" fill="#666">0.5×</text>
<line x1="62" y1="303.7688780356323" x2="768" y2="303.7688780356323" stroke="#eee"/>
<text x="54" y="307.7688780356323" text-anchor="end" font-size="11" fill="#666">0.7×</text>
<line x1="62" y1="201.75977803835113" x2="768" y2="201.75977803835113" stroke="#eee"/>
<text x="54" y="205.75977803835113" text-anchor="end" font-size="11" fill="#666">1.0×</text>
<line x1="62" y1="85.79668205614797" x2="768" y2="85.79668205614797" stroke="#eee"/>
<text x="54" y="89.79668205614797" text-anchor="end" font-size="11" fill="#666">1.5×</text>
<line x1="62.0" y1="50" x2="62.0" y2="400" stroke="#f4f4f4"/>
<text x="62.0" y="418" text-anchor="middle" font-size="11" fill="#444">8</text>
<line x1="238.5" y1="50" x2="238.5" y2="400" stroke="#f4f4f4"/>
<text x="238.5" y="418" text-anchor="middle" font-size="11" fill="#444">32</text>
<line x1="415.0" y1="50" x2="415.0" y2="400" stroke="#f4f4f4"/>
<text x="415.0" y="418" text-anchor="middle" font-size="11" fill="#444">128</text>
<line x1="503.25" y1="50" x2="503.25" y2="400" stroke="#f4f4f4"/>
<text x="503.25" y="418" text-anchor="middle" font-size="11" fill="#444">256</text>
<line x1="591.5" y1="50" x2="591.5" y2="400" stroke="#f4f4f4"/>
<text x="591.5" y="418" text-anchor="middle" font-size="11" fill="#444">512</text>
<line x1="679.75" y1="50" x2="679.75" y2="400" stroke="#f4f4f4"/>
<text x="679.75" y="418" text-anchor="middle" font-size="11" fill="#444">1024</text>
<line x1="768.0" y1="50" x2="768.0" y2="400" stroke="#f4f4f4"/>
<text x="768.0" y="418" text-anchor="middle" font-size="11" fill="#444">2048</text>
<line x1="62" y1="201.75977803835113" x2="768" y2="201.75977803835113" stroke="#888"/>
<line x1="62" y1="213.4348760284709" x2="768" y2="213.4348760284709" stroke="#d33" stroke-width="1.5" stroke-dasharray="6 4"/>
<text x="66" y="208.4348760284709" font-size="11" fill="#d33">0.96× gate</text>
<polygon points="62.0,145.8 238.5,201.2 415.0,204.2 503.2,205.3 591.5,208.8 679.8,212.6 768.0,209.4 768.0,213.4 679.8,214.5 591.5,215.7 503.2,206.7 415.0,205.4 238.5,212.7 62.0,219.3" fill="#1f77b4" opacity="0.14" stroke="none"/>
<polyline points="62.0,150.8 238.5,208.8 415.0,204.6 503.2,205.8 591.5,209.8 679.8,213.7 768.0,211.5" fill="none" stroke="#1f77b4" stroke-width="2"/>
<circle cx="62.0" cy="150.8" r="3" fill="#1f77b4"/>
<circle cx="238.5" cy="208.8" r="3" fill="#1f77b4"/>
<circle cx="415.0" cy="204.6" r="3" fill="#1f77b4"/>
<circle cx="503.2" cy="205.8" r="3" fill="#1f77b4"/>
<circle cx="591.5" cy="209.8" r="3" fill="#1f77b4"/>
<circle cx="679.8" cy="213.7" r="3" fill="#1f77b4"/>
<circle cx="768.0" cy="211.5" r="3" fill="#1f77b4"/>
<line x1="782" y1="56" x2="802" y2="56" stroke="#1f77b4" stroke-width="3"/>
<text x="806" y="60" font-size="12">zgemm</text>
<polygon points="62.0,327.0 238.5,230.0 415.0,227.4 503.2,224.1 591.5,223.1 679.8,212.0 768.0,213.9 768.0,217.7 679.8,217.1 591.5,224.1 503.2,225.2 415.0,230.0 238.5,239.4 62.0,352.3" fill="#d62728" opacity="0.14" stroke="none"/>
<polyline points="62.0,347.7 238.5,237.6 415.0,228.7 503.2,224.8 591.5,223.4 679.8,216.4 768.0,215.2" fill="none" stroke="#d62728" stroke-width="2"/>
<circle cx="62.0" cy="347.7" r="3" fill="#d62728"/>
<circle cx="238.5" cy="237.6" r="3" fill="#d62728"/>
<circle cx="415.0" cy="228.7" r="3" fill="#d62728"/>
<circle cx="503.2" cy="224.8" r="3" fill="#d62728"/>
<circle cx="591.5" cy="223.4" r="3" fill="#d62728"/>
<circle cx="679.8" cy="216.4" r="3" fill="#d62728"/>
<circle cx="768.0" cy="215.2" r="3" fill="#d62728"/>
<line x1="782" y1="74" x2="802" y2="74" stroke="#d62728" stroke-width="3"/>
<text x="806" y="78" font-size="12">zhemm</text>
<polygon points="62.0,207.1 238.5,158.4 415.0,183.2 503.2,189.9 591.5,210.1 679.8,219.5 768.0,220.5 768.0,224.8 679.8,221.3 591.5,215.0 503.2,191.4 415.0,187.3 238.5,167.2 62.0,208.5" fill="#2ca02c" opacity="0.14" stroke="none"/>
<polyline points="62.0,208.3 238.5,161.6 415.0,186.5 503.2,190.7 591.5,212.8 679.8,220.5 768.0,223.6" fill="none" stroke="#2ca02c" stroke-width="2"/>
<circle cx="62.0" cy="208.3" r="3" fill="#2ca02c"/>
<circle cx="238.5" cy="161.6" r="3" fill="#2ca02c"/>
<circle cx="415.0" cy="186.5" r="3" fill="#2ca02c"/>
<circle cx="503.2" cy="190.7" r="3" fill="#2ca02c"/>
<circle cx="591.5" cy="212.8" r="3" fill="#2ca02c"/>
<circle cx="679.8" cy="220.5" r="3" fill="#2ca02c"/>
<circle cx="768.0" cy="223.6" r="3" fill="#2ca02c"/>
<line x1="782" y1="92" x2="802" y2="92" stroke="#2ca02c" stroke-width="3"/>
<text x="806" y="96" font-size="12">zherk</text>
<polygon points="62.0,261.9 238.5,195.2 415.0,192.4 503.2,201.6 591.5,228.5 679.8,221.1 768.0,217.7 768.0,219.5 679.8,224.2 591.5,232.5 503.2,203.8 415.0,196.5 238.5,208.2 62.0,268.8" fill="#9467bd" opacity="0.14" stroke="none"/>
<polyline points="62.0,266.5 238.5,202.4 415.0,195.6 503.2,202.5 591.5,229.9 679.8,223.2 768.0,219.0" fill="none" stroke="#9467bd" stroke-width="2"/>
<circle cx="62.0" cy="266.5" r="3" fill="#9467bd"/>
<circle cx="238.5" cy="202.4" r="3" fill="#9467bd"/>
<circle cx="415.0" cy="195.6" r="3" fill="#9467bd"/>
<circle cx="503.2" cy="202.5" r="3" fill="#9467bd"/>
<circle cx="591.5" cy="229.9" r="3" fill="#9467bd"/>
<circle cx="679.8" cy="223.2" r="3" fill="#9467bd"/>
<circle cx="768.0" cy="219.0" r="3" fill="#9467bd"/>
<line x1="782" y1="110" x2="802" y2="110" stroke="#9467bd" stroke-width="3"/>
<text x="806" y="114" font-size="12">zher2k</text>
<polygon points="62.0,268.9 238.5,193.6 415.0,205.3 503.2,210.1 591.5,230.9 679.8,221.6 768.0,218.9 768.0,221.6 679.8,224.9 591.5,231.6 503.2,211.5 415.0,207.5 238.5,203.0 62.0,271.5" fill="#ff7f0e" opacity="0.14" stroke="none"/>
<polyline points="62.0,270.6 238.5,201.2 415.0,206.5 503.2,211.1 591.5,231.2 679.8,222.6 768.0,219.7" fill="none" stroke="#ff7f0e" stroke-width="2"/>
<circle cx="62.0" cy="270.6" r="3" fill="#ff7f0e"/>
<circle cx="238.5" cy="201.2" r="3" fill="#ff7f0e"/>
<circle cx="415.0" cy="206.5" r="3" fill="#ff7f0e"/>
<circle cx="503.2" cy="211.1" r="3" fill="#ff7f0e"/>
<circle cx="591.5" cy="231.2" r="3" fill="#ff7f0e"/>
<circle cx="679.8" cy="222.6" r="3" fill="#ff7f0e"/>
<circle cx="768.0" cy="219.7" r="3" fill="#ff7f0e"/>
<line x1="782" y1="128" x2="802" y2="128" stroke="#ff7f0e" stroke-width="3"/>
<text x="806" y="132" font-size="12">zsyr2k</text>
<polygon points="62.0,209.1 238.5,246.2 415.0,215.2 503.2,216.2 591.5,216.2 679.8,213.8 768.0,212.9 768.0,218.0 679.8,220.7 591.5,217.6 503.2,218.2 415.0,217.9 238.5,251.1 62.0,216.5" fill="#17becf" opacity="0.14" stroke="none"/>
<polyline points="62.0,212.3 238.5,247.6 415.0,216.5 503.2,217.0 591.5,217.3 679.8,217.0 768.0,215.6" fill="none" stroke="#17becf" stroke-width="2"/>
<circle cx="62.0" cy="212.3" r="3" fill="#17becf"/>
<circle cx="238.5" cy="247.6" r="3" fill="#17becf"/>
<circle cx="415.0" cy="216.5" r="3" fill="#17becf"/>
<circle cx="503.2" cy="217.0" r="3" fill="#17becf"/>
<circle cx="591.5" cy="217.3" r="3" fill="#17becf"/>
<circle cx="679.8" cy="217.0" r="3" fill="#17becf"/>
<circle cx="768.0" cy="215.6" r="3" fill="#17becf"/>
<line x1="782" y1="146" x2="802" y2="146" stroke="#17becf" stroke-width="3"/>
<text x="806" y="150" font-size="12">ztrmm</text>
<polygon points="62.0,354.1 238.5,353.8 415.0,282.7 503.2,204.7 591.5,191.2 679.8,193.6 768.0,202.0 768.0,205.4 679.8,195.9 591.5,192.4 503.2,206.2 415.0,284.6 238.5,355.0 62.0,358.1" fill="#8c564b" opacity="0.14" stroke="none"/>
<polyline points="62.0,356.9 238.5,354.2 415.0,284.0 503.2,205.7 591.5,191.7 679.8,194.8 768.0,203.9" fill="none" stroke="#8c564b" stroke-width="2"/>
<circle cx="62.0" cy="356.9" r="3" fill="#8c564b"/>
<circle cx="238.5" cy="354.2" r="3" fill="#8c564b"/>
<circle cx="415.0" cy="284.0" r="3" fill="#8c564b"/>
<circle cx="503.2" cy="205.7" r="3" fill="#8c564b"/>
<circle cx="591.5" cy="191.7" r="3" fill="#8c564b"/>
<circle cx="679.8" cy="194.8" r="3" fill="#8c564b"/>
<circle cx="768.0" cy="203.9" r="3" fill="#8c564b"/>
<line x1="782" y1="164" x2="802" y2="164" stroke="#8c564b" stroke-width="3"/>
<text x="806" y="168" font-size="12">ztrsm</text>
<polygon points="62.0,187.6 238.5,269.0 415.0,202.3 503.2,215.2 591.5,212.5 679.8,218.2 768.0,215.1 768.0,220.1 679.8,223.5 591.5,214.0 503.2,216.6 415.0,216.7 238.5,282.8 62.0,195.2" fill="#e377c2" opacity="0.14" stroke="none"/>
<polyline points="62.0,193.3 238.5,273.3 415.0,205.2 503.2,216.0 591.5,213.8 679.8,222.8 768.0,217.9" fill="none" stroke="#e377c2" stroke-width="2"/>
<circle cx="62.0" cy="193.3" r="3" fill="#e377c2"/>
<circle cx="238.5" cy="273.3" r="3" fill="#e377c2"/>
<circle cx="415.0" cy="205.2" r="3" fill="#e377c2"/>
<circle cx="503.2" cy="216.0" r="3" fill="#e377c2"/>
<circle cx="591.5" cy="213.8" r="3" fill="#e377c2"/>
<circle cx="679.8" cy="222.8" r="3" fill="#e377c2"/>
<circle cx="768.0" cy="217.9" r="3" fill="#e377c2"/>
<line x1="782" y1="182" x2="802" y2="182" stroke="#e377c2" stroke-width="3"/>
<text x="806" y="186" font-size="12">ztrmmR</text>
<polygon points="62.0,400.0 238.5,381.2 415.0,310.4 503.2,227.8 591.5,202.7 679.8,204.4 768.0,202.9 768.0,207.8 679.8,206.4 591.5,204.0 503.2,231.7 415.0,312.5 238.5,393.2 62.0,400.0" fill="#1f77b4" opacity="0.14" stroke="none"/>
<polyline points="62.0,400.0 238.5,392.1 415.0,311.6 503.2,231.2 591.5,203.8 679.8,205.3 768.0,204.8" fill="none" stroke="#1f77b4" stroke-width="2"/>
<circle cx="62.0" cy="400.0" r="3" fill="#1f77b4"/>
<circle cx="238.5" cy="392.1" r="3" fill="#1f77b4"/>
<circle cx="415.0" cy="311.6" r="3" fill="#1f77b4"/>
<circle cx="503.2" cy="231.2" r="3" fill="#1f77b4"/>
<circle cx="591.5" cy="203.8" r="3" fill="#1f77b4"/>
<circle cx="679.8" cy="205.3" r="3" fill="#1f77b4"/>
<circle cx="768.0" cy="204.8" r="3" fill="#1f77b4"/>
<line x1="782" y1="200" x2="802" y2="200" stroke="#1f77b4" stroke-width="3"/>
<text x="806" y="204" font-size="12">ztrsmR</text>
<text x="415.0" y="450" text-anchor="middle" font-size="11" fill="#666">matrix size n (log) · y = median ratio (log) · dashed = the 0.96× gate</text>
</svg>
