<svg xmlns="http://www.w3.org/2000/svg" width="900" height="440" font-family="sans-serif">
<rect width="900" height="440" fill="white"/>
<text x="450.0" y="28" text-anchor="middle" font-size="18" font-weight="bold">BLAS-2: PureBLAS / OpenBLAS (AVX2, 1 thread, Float64)</text>
<line x1="60" y1="358.0" x2="880" y2="358.0" stroke="#eee"/>
<text x="52" y="362.0" text-anchor="end" font-size="11" fill="#666">0×</text>
<line x1="60" y1="303.1086542841143" x2="880" y2="303.1086542841143" stroke="#eee"/>
<text x="52" y="307.1086542841143" text-anchor="end" font-size="11" fill="#666">0.5×</text>
<line x1="60" y1="248.2173085682287" x2="880" y2="248.2173085682287" stroke="#eee"/>
<text x="52" y="252.2173085682287" text-anchor="end" font-size="11" fill="#666">1×</text>
<line x1="60" y1="193.32596285234308" x2="880" y2="193.32596285234308" stroke="#eee"/>
<text x="52" y="197.32596285234308" text-anchor="end" font-size="11" fill="#666">1.5×</text>
<line x1="60" y1="248.2173085682287" x2="880" y2="248.2173085682287" stroke="#888" stroke-width="1"/>
<line x1="60" y1="252.6086162254996" x2="880" y2="252.6086162254996" stroke="#d33" stroke-width="1.5" stroke-dasharray="6 4"/>
<text x="880" y="247.6086162254996" text-anchor="end" font-size="11" fill="#d33">0.96× gate</text>
<polygon points="110.6,264.7 112.2,263.4 114.1,262.2 116.2,260.9 118.7,259.7 121.5,258.4 124.4,257.2 127.5,255.9 130.6,254.7 133.6,253.4 136.4,252.2 138.9,250.9 141.0,249.7 142.5,248.4 143.5,247.2 143.8,245.9 143.5,244.7 142.6,243.4 141.1,242.1 139.1,240.9 136.7,239.6 133.9,238.4 131.0,237.1 128.1,235.9 125.1,234.6 122.2,233.4 119.5,232.1 117.1,230.9 114.9,229.6 112.9,228.4 111.3,227.1 109.9,225.9 108.8,224.6 108.0,223.4 107.3,222.1 106.8,220.9 106.4,219.6 106.2,218.4 106.0,217.1 105.9,215.9 105.9,214.6 105.9,213.4 106.0,212.1 106.1,210.9 106.3,209.6 106.6,208.3 107.0,207.1 107.4,205.8 107.9,204.6 108.5,203.3 109.1,202.1 109.8,200.8 110.5,199.6 111.2,198.3 111.8,197.1 112.3,195.8 112.7,194.6 112.9,193.3 112.9,192.1 112.8,190.8 112.6,189.6 112.1,188.3 111.6,187.1 111.0,185.8 110.3,184.6 109.7,183.3 109.0,182.1 108.4,180.8 107.8,179.6 107.4,178.3 106.9,177.1 106.6,175.8 104.5,175.8 104.2,177.1 103.8,178.3 103.3,179.6 102.7,180.8 102.1,182.1 101.4,183.3 100.8,184.6 100.1,185.8 99.5,187.1 99.0,188.3 98.6,189.6 98.3,190.8 98.2,192.1 98.2,193.3 98.5,194.6 98.8,195.8 99.3,197.1 99.9,198.3 100.6,199.6 101.3,200.8 102.0,202.1 102.6,203.3 103.2,204.6 103.7,205.8 104.1,207.1 104.5,208.3 104.8,209.6 105.0,210.9 105.1,212.1 105.2,213.4 105.2,214.6 105.2,215.9 105.1,217.1 105.0,218.4 104.7,219.6 104.3,220.9 103.8,222.1 103.1,223.4 102.3,224.6 101.2,225.9 99.8,227.1 98.2,228.4 96.3,229.6 94.1,230.9 91.6,232.1 88.9,233.4 86.0,234.6 83.1,235.9 80.1,237.1 77.2,238.4 74.5,239.6 72.0,240.9 70.0,242.1 68.5,243.4 67.6,244.7 67.3,245.9 67.6,247.2 68.6,248.4 70.1,249.7 72.2,250.9 74.7,252.2 77.5,253.4 80.5,254.7 83.6,255.9 86.7,257.2 89.6,258.4 92.4,259.7 94.9,260.9 97.0,262.2 98.9,263.4 100.5,264.7" fill="#d33" opacity="0.5" stroke="#d33" stroke-width="1"/>
<line x1="67.5" y1="244.98006570826624" x2="143.7" y2="244.98006570826624" stroke="#114" stroke-width="2"/>
<circle cx="105.55555555555556" cy="253.3063386767899" r="2.4" fill="#114"/>
<text x="105.55555555555556" y="178.5772015558503" text-anchor="middle" font-size="11">1.03</text>
<text x="105.55555555555556" y="376" text-anchor="middle" font-size="12">gemvN</text>
<polygon points="196.7,260.0 196.8,259.5 196.9,259.1 197.0,258.6 197.1,258.2 197.2,257.7 197.3,257.2 197.3,256.8 197.3,256.3 197.3,255.9 197.2,255.4 197.1,255.0 196.9,254.5 196.9,254.0 196.8,253.6 196.9,253.1 197.0,252.7 197.1,252.2 197.4,251.8 197.8,251.3 198.3,250.8 199.0,250.4 200.1,249.9 201.7,249.5 204.0,249.0 207.1,248.6 211.0,248.1 215.5,247.6 220.2,247.2 224.7,246.7 228.6,246.3 231.6,245.8 233.6,245.4 234.7,244.9 234.9,244.4 234.4,244.0 233.1,243.5 230.9,243.1 228.1,242.6 225.0,242.2 222.0,241.7 219.6,241.2 218.2,240.8 217.9,240.3 218.6,239.9 219.8,239.4 221.2,239.0 222.1,238.5 222.1,238.0 221.0,237.6 219.0,237.1 216.1,236.7 212.8,236.2 209.5,235.8 206.4,235.3 203.9,234.9 201.8,234.4 200.4,233.9 199.5,233.5 198.9,233.0 198.6,232.6 198.5,232.1 198.4,231.7 198.3,231.2 198.2,230.7 198.0,230.3 197.7,229.8 197.5,229.4 197.2,228.9 197.0,228.5 196.9,228.0 196.8,227.5 196.6,227.5 196.5,228.0 196.3,228.5 196.1,228.9 195.9,229.4 195.6,229.8 195.4,230.3 195.2,230.7 195.0,231.2 194.9,231.7 194.9,232.1 194.7,232.6 194.4,233.0 193.9,233.5 192.9,233.9 191.5,234.4 189.5,234.9 186.9,235.3 183.8,235.8 180.5,236.2 177.2,236.7 174.4,237.1 172.3,237.6 171.2,238.0 171.3,238.5 172.1,239.0 173.5,239.4 174.8,239.9 175.4,240.3 175.1,240.8 173.7,241.2 171.3,241.7 168.3,242.2 165.2,242.6 162.4,243.1 160.3,243.5 158.9,244.0 158.4,244.4 158.7,244.9 159.8,245.4 161.8,245.8 164.7,246.3 168.6,246.7 173.1,247.2 177.8,247.6 182.3,248.1 186.2,248.6 189.3,249.0 191.6,249.5 193.2,249.9 194.3,250.4 195.1,250.8 195.6,251.3 195.9,251.8 196.2,252.2 196.4,252.7 196.5,253.1 196.5,253.6 196.5,254.0 196.4,254.5 196.3,255.0 196.2,255.4 196.1,255.9 196.0,256.3 196.0,256.8 196.0,257.2 196.1,257.7 196.2,258.2 196.3,258.6 196.5,259.1 196.5,259.5 196.6,260.0" fill="#2a8" opacity="0.5" stroke="#2a8" stroke-width="1"/>
<line x1="162.0" y1="243.16157346133343" x2="231.4" y2="243.16157346133343" stroke="#114" stroke-width="2"/>
<circle cx="196.66666666666669" cy="246.45805588302755" r="2.4" fill="#114"/>
<text x="196.66666666666669" y="224.85679856088504" text-anchor="middle" font-size="11">1.05</text>
<text x="196.66666666666669" y="376" text-anchor="middle" font-size="12">gemvT</text>
<polygon points="294.9,255.8 296.9,255.1 299.2,254.5 301.9,253.8 304.8,253.2 307.9,252.5 311.2,251.9 314.3,251.2 317.4,250.5 320.1,249.9 322.5,249.2 324.3,248.6 325.5,247.9 326.0,247.3 325.9,246.6 325.1,246.0 323.7,245.3 321.8,244.7 319.5,244.0 316.8,243.3 313.9,242.7 311.0,242.0 308.0,241.4 305.2,240.7 302.5,240.1 300.0,239.4 297.8,238.8 295.9,238.1 294.3,237.4 292.9,236.8 291.7,236.1 290.8,235.5 290.1,234.8 289.6,234.2 289.1,233.5 288.8,232.9 288.6,232.2 288.4,231.5 288.3,230.9 288.3,230.2 288.2,229.6 288.3,228.9 288.3,228.3 288.4,227.6 288.6,227.0 288.8,226.3 289.1,225.7 289.4,225.0 289.8,224.3 290.3,223.7 290.8,223.0 291.4,222.4 292.0,221.7 292.6,221.1 293.1,220.4 293.6,219.8 294.1,219.1 294.4,218.4 294.6,217.8 294.7,217.1 294.6,216.5 294.4,215.8 294.0,215.2 293.6,214.5 293.1,213.9 292.5,213.2 291.9,212.5 291.3,211.9 290.7,211.2 290.2,210.6 289.7,209.9 289.3,209.3 286.2,209.3 285.8,209.9 285.4,210.6 284.8,211.2 284.3,211.9 283.7,212.5 283.1,213.2 282.5,213.9 282.0,214.5 281.5,215.2 281.2,215.8 281.0,216.5 280.9,217.1 281.0,217.8 281.2,218.4 281.5,219.1 281.9,219.8 282.4,220.4 283.0,221.1 283.6,221.7 284.2,222.4 284.7,223.0 285.2,223.7 285.7,224.3 286.1,225.0 286.5,225.7 286.7,226.3 287.0,227.0 287.1,227.6 287.2,228.3 287.3,228.9 287.3,229.6 287.3,230.2 287.2,230.9 287.1,231.5 287.0,232.2 286.7,232.9 286.4,233.5 286.0,234.2 285.4,234.8 284.7,235.5 283.8,236.1 282.7,236.8 281.3,237.4 279.7,238.1 277.7,238.8 275.5,239.4 273.1,240.1 270.4,240.7 267.5,241.4 264.6,242.0 261.6,242.7 258.8,243.3 256.1,244.0 253.7,244.7 251.8,245.3 250.4,246.0 249.6,246.6 249.5,247.3 250.1,247.9 251.3,248.6 253.1,249.2 255.4,249.9 258.2,250.5 261.2,251.2 264.4,251.9 267.6,252.5 270.7,253.2 273.7,253.8 276.3,254.5 278.7,255.1 280.7,255.8" fill="#2a8" opacity="0.5" stroke="#2a8" stroke-width="1"/>
<line x1="249.8" y1="246.40698659264905" x2="325.7" y2="246.40698659264905" stroke="#114" stroke-width="2"/>
<circle cx="287.77777777777777" cy="249.2850806782414" r="2.4" fill="#114"/>
<text x="287.77777777777777" y="207.95217366541462" text-anchor="middle" font-size="11">1.02</text>
<text x="287.77777777777777" y="376" text-anchor="middle" font-size="12">ger</text>
<polygon points="383.7,260.0 385.6,258.8 388.0,257.5 390.9,256.2 394.2,255.0 397.9,253.7 401.8,252.5 405.7,251.2 409.3,249.9 412.5,248.7 414.9,247.4 416.5,246.1 417.2,244.9 416.8,243.6 415.6,242.4 413.6,241.1 411.0,239.8 408.0,238.6 404.7,237.3 401.5,236.0 398.3,234.8 395.4,233.5 392.9,232.3 390.8,231.0 389.1,229.7 387.8,228.5 387.0,227.2 386.6,225.9 386.5,224.7 386.7,223.4 387.0,222.2 387.3,220.9 387.7,219.6 388.0,218.4 388.1,217.1 388.2,215.8 388.2,214.6 388.1,213.3 388.0,212.1 387.9,210.8 387.9,209.5 387.9,208.3 388.0,207.0 388.1,205.7 388.1,204.5 388.1,203.2 387.9,202.0 387.6,200.7 387.1,199.4 386.5,198.2 385.8,196.9 385.0,195.6 384.1,194.4 383.3,193.1 382.5,191.9 381.8,190.6 381.2,189.3 380.8,188.1 380.4,186.8 380.1,185.5 379.9,184.3 379.7,183.0 379.6,181.8 379.5,180.5 379.5,179.2 379.4,178.0 379.4,176.7 379.3,175.4 379.3,174.2 379.2,172.9 379.1,171.7 379.1,170.4 378.7,170.4 378.6,171.7 378.6,172.9 378.5,174.2 378.5,175.4 378.4,176.7 378.4,178.0 378.3,179.2 378.2,180.5 378.1,181.8 378.0,183.0 377.9,184.3 377.7,185.5 377.4,186.8 377.0,188.1 376.5,189.3 375.9,190.6 375.3,191.9 374.5,193.1 373.7,194.4 372.8,195.6 372.0,196.9 371.3,198.2 370.6,199.4 370.2,200.7 369.8,202.0 369.7,203.2 369.6,204.5 369.7,205.7 369.8,207.0 369.9,208.3 369.9,209.5 369.9,210.8 369.8,212.1 369.7,213.3 369.6,214.6 369.6,215.8 369.6,217.1 369.8,218.4 370.1,219.6 370.4,220.9 370.8,222.2 371.1,223.4 371.3,224.7 371.2,225.9 370.8,227.2 369.9,228.5 368.7,229.7 367.0,231.0 364.9,232.3 362.3,233.5 359.5,234.8 356.3,236.0 353.1,237.3 349.8,238.6 346.8,239.8 344.2,241.1 342.2,242.4 340.9,243.6 340.6,244.9 341.3,246.1 342.9,247.4 345.3,248.7 348.5,249.9 352.1,251.2 356.0,252.5 359.9,253.7 363.5,255.0 366.9,256.2 369.8,257.5 372.2,258.8 374.1,260.0" fill="#2a8" opacity="0.5" stroke="#2a8" stroke-width="1"/>
<line x1="341.9" y1="242.58974448354977" x2="415.9" y2="242.58974448354977" stroke="#114" stroke-width="2"/>
<circle cx="378.8888888888889" cy="247.25149565152853" r="2.4" fill="#114"/>
<text x="378.8888888888889" y="173.24881619064456" text-anchor="middle" font-size="11">1.05</text>
<text x="378.8888888888889" y="376" text-anchor="middle" font-size="12">symv</text>
<polygon points="471.3,263.0 472.3,261.0 473.8,258.9 476.0,256.9 479.1,254.8 483.1,252.8 487.8,250.8 493.0,248.7 498.2,246.7 502.8,244.7 506.3,242.6 508.1,240.6 508.3,238.6 506.7,236.5 504.0,234.5 500.4,232.5 496.7,230.4 493.2,228.4 490.4,226.4 488.2,224.3 486.8,222.3 486.0,220.3 485.5,218.2 485.2,216.2 484.9,214.2 484.4,212.1 483.5,210.1 482.4,208.1 481.0,206.0 479.7,204.0 478.5,201.9 477.6,199.9 477.2,197.9 477.3,195.8 477.7,193.8 478.2,191.8 478.7,189.7 479.0,187.7 478.9,185.7 478.4,183.6 477.5,181.6 476.4,179.6 475.2,177.5 474.0,175.5 472.9,173.5 472.0,171.4 471.3,169.4 470.8,167.4 470.5,165.3 470.3,163.3 470.2,161.3 470.1,159.2 470.0,157.2 470.0,155.2 470.0,153.1 470.0,151.1 470.1,149.1 470.1,147.0 470.2,145.0 470.2,142.9 470.3,140.9 470.4,138.9 470.4,136.8 470.5,134.8 470.5,132.8 470.5,130.7 470.4,128.7 470.4,126.7 470.3,124.6 470.2,122.6 470.2,120.6 470.1,118.5 469.9,118.5 469.8,120.6 469.8,122.6 469.7,124.6 469.6,126.7 469.6,128.7 469.5,130.7 469.5,132.8 469.5,134.8 469.6,136.8 469.6,138.9 469.7,140.9 469.8,142.9 469.8,145.0 469.9,147.0 469.9,149.1 470.0,151.1 470.0,153.1 470.0,155.2 470.0,157.2 469.9,159.2 469.8,161.3 469.7,163.3 469.5,165.3 469.2,167.4 468.7,169.4 468.0,171.4 467.1,173.5 466.0,175.5 464.8,177.5 463.6,179.6 462.5,181.6 461.6,183.6 461.1,185.7 461.0,187.7 461.3,189.7 461.8,191.8 462.3,193.8 462.7,195.8 462.8,197.9 462.4,199.9 461.5,201.9 460.3,204.0 459.0,206.0 457.6,208.1 456.5,210.1 455.6,212.1 455.1,214.2 454.8,216.2 454.5,218.2 454.0,220.3 453.2,222.3 451.8,224.3 449.6,226.4 446.8,228.4 443.3,230.4 439.6,232.5 436.0,234.5 433.3,236.5 431.7,238.6 431.9,240.6 433.7,242.6 437.2,244.7 441.8,246.7 447.0,248.7 452.2,250.8 456.9,252.8 460.9,254.8 464.0,256.9 466.2,258.9 467.7,261.0 468.7,263.0" fill="#2a8" opacity="0.5" stroke="#2a8" stroke-width="1"/>
<line x1="433.7" y1="236.1654898088427" x2="506.3" y2="236.1654898088427" stroke="#114" stroke-width="2"/>
<circle cx="470.0" cy="241.9529327106505" r="2.4" fill="#114"/>
<text x="470.0" y="126.69036207412015" text-anchor="middle" font-size="11">1.11</text>
<text x="470.0" y="376" text-anchor="middle" font-size="12">trmv</text>
<polygon points="561.4,270.0 561.6,268.4 561.7,266.8 562.0,265.3 562.3,263.7 562.8,262.1 563.6,260.6 564.6,259.0 565.9,257.4 567.6,255.8 569.9,254.3 572.6,252.7 575.8,251.1 579.3,249.5 583.2,248.0 587.1,246.4 590.8,244.8 594.1,243.3 596.7,241.7 598.5,240.1 599.4,238.5 599.2,237.0 598.0,235.4 596.1,233.8 593.5,232.3 590.5,230.7 587.3,229.1 584.3,227.5 581.5,226.0 579.2,224.4 577.4,222.8 576.1,221.2 575.3,219.7 574.9,218.1 574.9,216.5 575.2,215.0 575.6,213.4 576.0,211.8 576.5,210.2 576.9,208.7 577.2,207.1 577.3,205.5 577.3,203.9 577.1,202.4 576.8,200.8 576.4,199.2 575.9,197.7 575.4,196.1 575.0,194.5 574.6,192.9 574.3,191.4 574.1,189.8 573.9,188.2 573.7,186.7 573.5,185.1 573.1,183.5 572.5,181.9 571.8,180.4 570.9,178.8 569.8,177.2 568.7,175.6 567.5,174.1 566.4,172.5 565.4,170.9 564.5,169.4 563.7,167.8 563.1,166.2 562.6,164.6 562.2,163.1 561.9,161.5 561.7,159.9 561.5,158.3 560.7,158.3 560.6,159.9 560.3,161.5 560.0,163.1 559.6,164.6 559.1,166.2 558.5,167.8 557.7,169.4 556.8,170.9 555.8,172.5 554.7,174.1 553.5,175.6 552.4,177.2 551.4,178.8 550.4,180.4 549.7,181.9 549.1,183.5 548.7,185.1 548.5,186.7 548.3,188.2 548.1,189.8 547.9,191.4 547.6,192.9 547.3,194.5 546.8,196.1 546.3,197.7 545.9,199.2 545.5,200.8 545.1,202.4 545.0,203.9 544.9,205.5 545.1,207.1 545.3,208.7 545.7,210.2 546.2,211.8 546.7,213.4 547.1,215.0 547.3,216.5 547.3,218.1 547.0,219.7 546.2,221.2 544.9,222.8 543.0,224.4 540.7,226.0 537.9,227.5 534.9,229.1 531.8,230.7 528.8,232.3 526.2,233.8 524.2,235.4 523.0,237.0 522.8,238.5 523.7,240.1 525.5,241.7 528.1,243.3 531.4,244.8 535.2,246.4 539.1,248.0 542.9,249.5 546.5,251.1 549.6,252.7 552.4,254.3 554.6,255.8 556.3,257.4 557.7,259.0 558.7,260.6 559.4,262.1 559.9,263.7 560.2,265.3 560.5,266.8 560.7,268.4 560.8,270.0" fill="#2a8" opacity="0.5" stroke="#2a8" stroke-width="1"/>
<line x1="527.7" y1="232.87856802326021" x2="594.6" y2="232.87856802326021" stroke="#114" stroke-width="2"/>
<circle cx="561.1111111111111" cy="240.42340859378555" r="2.4" fill="#114"/>
<text x="561.1111111111111" y="163.33007141661028" text-anchor="middle" font-size="11">1.14</text>
<text x="561.1111111111111" y="376" text-anchor="middle" font-size="12">trsv</text>
<polygon points="661.5,274.0 664.1,270.8 667.0,267.7 670.1,264.5 673.4,261.4 676.8,258.2 680.0,255.1 682.9,251.9 685.5,248.8 687.5,245.6 689.1,242.5 690.1,239.3 690.5,236.1 690.4,233.0 689.8,229.8 688.7,226.7 687.4,223.5 685.7,220.4 683.7,217.2 681.6,214.1 679.3,210.9 677.0,207.7 674.7,204.6 672.5,201.4 670.4,198.3 668.6,195.1 667.1,192.0 665.8,188.8 664.9,185.7 664.4,182.5 664.0,179.4 663.9,176.2 663.9,173.0 664.0,169.9 663.9,166.7 663.8,163.6 663.6,160.4 663.3,157.3 662.8,154.1 662.3,151.0 661.8,147.8 661.4,144.6 661.1,141.5 660.9,138.3 660.9,135.2 661.1,132.0 661.3,128.9 661.6,125.7 661.8,122.6 662.0,119.4 662.0,116.3 661.9,113.1 661.5,109.9 661.0,106.8 660.3,103.6 659.5,100.5 658.6,97.3 657.7,94.2 656.8,91.0 656.0,87.9 655.3,84.7 654.7,81.5 654.2,78.4 653.8,75.2 653.5,72.1 653.3,68.9 653.1,65.8 652.9,62.6 652.8,59.5 652.7,56.3 652.7,53.2 652.6,50.0 651.9,50.0 651.8,53.2 651.7,56.3 651.6,59.5 651.5,62.6 651.4,65.8 651.2,68.9 651.0,72.1 650.7,75.2 650.3,78.4 649.8,81.5 649.2,84.7 648.5,87.9 647.7,91.0 646.8,94.2 645.9,97.3 645.0,100.5 644.2,103.6 643.5,106.8 642.9,109.9 642.6,113.1 642.4,116.3 642.5,119.4 642.6,122.6 642.9,125.7 643.1,128.9 643.4,132.0 643.5,135.2 643.5,138.3 643.3,141.5 643.0,144.6 642.6,147.8 642.1,151.0 641.6,154.1 641.2,157.3 640.8,160.4 640.6,163.6 640.5,166.7 640.5,169.9 640.5,173.0 640.5,176.2 640.4,179.4 640.1,182.5 639.5,185.7 638.6,188.8 637.4,192.0 635.8,195.1 634.0,198.3 632.0,201.4 629.7,204.6 627.4,207.7 625.1,210.9 622.9,214.1 620.7,217.2 618.8,220.4 617.1,223.5 615.7,226.7 614.7,229.8 614.1,233.0 614.0,236.1 614.4,239.3 615.4,242.5 616.9,245.6 619.0,248.8 621.5,251.9 624.5,255.1 627.7,258.2 631.0,261.4 634.3,264.5 637.4,267.7 640.3,270.8 642.9,274.0" fill="#2a8" opacity="0.5" stroke="#2a8" stroke-width="1"/>
<line x1="618.0" y1="221.8357448713028" x2="686.5" y2="221.8357448713028" stroke="#114" stroke-width="2"/>
<circle cx="652.2222222222223" cy="249.05008347304164" r="2.4" fill="#114"/>
<text x="652.2222222222223" y="61.43396226415098" text-anchor="middle" font-size="11">1.24</text>
<text x="652.2222222222223" y="376" text-anchor="middle" font-size="12">spmv</text>
<polygon points="743.3,293.9 743.3,292.3 743.3,290.8 743.4,289.2 743.5,287.7 743.6,286.1 743.7,284.5 743.8,283.0 743.7,281.4 743.6,279.9 743.5,278.3 743.4,276.7 743.3,275.2 743.3,273.6 743.3,272.1 743.4,270.5 743.4,269.0 743.6,267.4 743.7,265.8 743.8,264.3 743.7,262.7 743.6,261.2 743.5,259.6 743.5,258.1 743.5,256.5 743.7,254.9 743.9,253.4 744.2,251.8 744.9,250.3 746.4,248.7 749.4,247.2 754.9,245.6 762.9,244.0 772.1,242.5 779.4,240.9 781.6,239.4 777.9,237.8 770.6,236.2 763.1,234.7 757.6,233.1 754.4,231.6 752.5,230.0 750.6,228.5 748.6,226.9 746.7,225.3 745.3,223.8 744.5,222.2 744.1,220.7 743.8,219.1 743.7,217.6 743.7,216.0 743.8,214.4 743.8,212.9 743.7,211.3 743.6,209.8 743.4,208.2 743.4,206.7 743.3,205.1 743.3,203.5 743.3,202.0 743.4,200.4 743.5,198.9 743.6,197.3 743.7,195.7 743.8,194.2 743.7,192.6 743.6,191.1 743.5,189.5 743.4,188.0 743.3,186.4 743.3,184.8 743.3,183.3 743.3,183.3 743.3,184.8 743.3,186.4 743.3,188.0 743.2,189.5 743.1,191.1 743.0,192.6 742.9,194.2 743.0,195.7 743.1,197.3 743.2,198.9 743.3,200.4 743.3,202.0 743.3,203.5 743.3,205.1 743.3,206.7 743.2,208.2 743.1,209.8 743.0,211.3 742.9,212.9 742.9,214.4 743.0,216.0 743.0,217.6 742.9,219.1 742.6,220.7 742.2,222.2 741.3,223.8 740.0,225.3 738.1,226.9 736.0,228.5 734.2,230.0 732.2,231.6 729.1,233.1 723.6,234.7 716.1,236.2 708.8,237.8 705.1,239.4 707.3,240.9 714.6,242.5 723.8,244.0 731.8,245.6 737.2,247.2 740.2,248.7 741.7,250.3 742.4,251.8 742.8,253.4 743.0,254.9 743.2,256.5 743.2,258.1 743.2,259.6 743.1,261.2 742.9,262.7 742.9,264.3 743.0,265.8 743.1,267.4 743.2,269.0 743.3,270.5 743.3,272.1 743.3,273.6 743.3,275.2 743.3,276.7 743.2,278.3 743.1,279.9 743.0,281.4 742.9,283.0 743.0,284.5 743.1,286.1 743.2,287.7 743.3,289.2 743.3,290.8 743.3,292.3 743.3,293.9" fill="#2a8" opacity="0.5" stroke="#2a8" stroke-width="1"/>
<line x1="705.2" y1="239.20739300829953" x2="781.5" y2="239.20739300829953" stroke="#114" stroke-width="2"/>
<circle cx="743.3333333333334" cy="241.27292133352182" r="2.4" fill="#114"/>
<text x="743.3333333333334" y="188.16549564545932" text-anchor="middle" font-size="11">1.08</text>
<text x="743.3333333333334" y="376" text-anchor="middle" font-size="12">gbmvN</text>
<polygon points="834.5,201.6 834.5,200.6 834.6,199.6 834.7,198.6 834.8,197.6 834.9,196.7 835.0,195.7 835.1,194.7 835.2,193.7 835.2,192.7 835.2,191.7 835.2,190.7 835.2,189.7 835.3,188.7 835.6,187.7 836.3,186.7 837.6,185.8 839.7,184.8 842.9,183.8 847.3,182.8 852.9,181.8 859.0,180.8 864.9,179.8 869.7,178.8 872.4,177.8 872.7,176.8 870.7,175.9 866.9,174.9 862.2,173.9 857.5,172.9 853.4,171.9 850.1,170.9 847.5,169.9 845.5,168.9 843.9,167.9 842.4,166.9 841.0,166.0 839.9,165.0 839.0,164.0 838.5,163.0 838.4,162.0 838.6,161.0 839.0,160.0 839.5,159.0 839.9,158.0 840.1,157.0 840.0,156.1 839.7,155.1 839.2,154.1 838.5,153.1 837.8,152.1 837.0,151.1 836.4,150.1 835.8,149.1 835.3,148.1 835.0,147.1 834.8,146.1 834.6,145.2 834.6,144.2 834.6,143.2 834.7,142.2 834.7,141.2 834.8,140.2 834.9,139.2 834.9,138.2 834.9,137.2 834.8,136.2 834.7,135.3 834.6,134.3 834.6,133.3 834.5,132.3 834.5,131.3 834.4,131.3 834.4,132.3 834.3,133.3 834.2,134.3 834.2,135.3 834.1,136.2 834.0,137.2 834.0,138.2 834.0,139.2 834.1,140.2 834.1,141.2 834.2,142.2 834.3,143.2 834.3,144.2 834.3,145.2 834.1,146.1 833.9,147.1 833.6,148.1 833.1,149.1 832.5,150.1 831.8,151.1 831.1,152.1 830.4,153.1 829.7,154.1 829.2,155.1 828.9,156.1 828.8,157.0 829.0,158.0 829.4,159.0 829.8,160.0 830.3,161.0 830.5,162.0 830.4,163.0 829.9,164.0 829.0,165.0 827.9,166.0 826.5,166.9 825.0,167.9 823.3,168.9 821.4,169.9 818.8,170.9 815.5,171.9 811.3,172.9 806.7,173.9 802.0,174.9 798.2,175.9 796.2,176.8 796.5,177.8 799.2,178.8 804.0,179.8 809.9,180.8 816.0,181.8 821.5,182.8 826.0,183.8 829.2,184.8 831.3,185.8 832.6,186.7 833.3,187.7 833.6,188.7 833.7,189.7 833.7,190.7 833.7,191.7 833.7,192.7 833.7,193.7 833.8,194.7 833.9,195.7 834.0,196.7 834.1,197.6 834.2,198.6 834.3,199.6 834.4,200.6 834.4,201.6" fill="#2a8" opacity="0.5" stroke="#2a8" stroke-width="1"/>
<line x1="796.3" y1="176.72013987002367" x2="872.6" y2="176.72013987002367" stroke="#114" stroke-width="2"/>
<circle cx="834.4444444444445" cy="178.3844088218632" r="2.4" fill="#114"/>
<text x="834.4444444444445" y="132.27572082958955" text-anchor="middle" font-size="11">1.65</text>
<text x="834.4444444444445" y="376" text-anchor="middle" font-size="12">sbmv</text>
<text x="450.0" y="428" text-anchor="middle" font-size="11" fill="#666">violin = ratio distribution over sizes · line = median · dark dot = worst size · green = every size ≥ gate</text>
</svg>
