<svg xmlns="http://www.w3.org/2000/svg" width="900" height="440" font-family="sans-serif">
<rect width="900" height="440" fill="white"/>
<text x="450.0" y="28" text-anchor="middle" font-size="18" font-weight="bold">Complex BLAS-1: PureBLAS / OpenBLAS (AVX-512, 1 thread, ComplexF64)</text>
<line x1="60" y1="358.0" x2="880" y2="358.0" stroke="#eee"/>
<text x="52" y="362.0" text-anchor="end" font-size="11" fill="#666">0×</text>
<line x1="60" y1="350.6012215800142" x2="880" y2="350.6012215800142" stroke="#eee"/>
<text x="52" y="354.6012215800142" text-anchor="end" font-size="11" fill="#666">0.5×</text>
<line x1="60" y1="343.20244316002845" x2="880" y2="343.20244316002845" stroke="#eee"/>
<text x="52" y="347.20244316002845" text-anchor="end" font-size="11" fill="#666">1×</text>
<line x1="60" y1="335.80366474004273" x2="880" y2="335.80366474004273" stroke="#eee"/>
<text x="52" y="339.80366474004273" text-anchor="end" font-size="11" fill="#666">1.5×</text>
<line x1="60" y1="343.20244316002845" x2="880" y2="343.20244316002845" stroke="#888" stroke-width="1"/>
<line x1="60" y1="343.79434543362737" x2="880" y2="343.79434543362737" stroke="#d33" stroke-width="1.5" stroke-dasharray="6 4"/>
<text x="880" y="338.79434543362737" text-anchor="end" font-size="11" fill="#d33">0.96× gate</text>
<polygon points="118.6,358.0 118.6,357.4 118.7,356.9 118.7,356.3 118.8,355.8 118.9,355.2 118.9,354.6 119.0,354.1 119.0,353.5 119.0,353.0 118.9,352.4 118.8,351.8 118.7,351.3 118.7,350.7 118.6,350.2 118.6,349.6 118.7,349.0 118.8,348.5 119.0,347.9 119.7,347.4 121.1,346.8 124.3,346.3 130.1,345.7 139.1,345.1 150.4,344.6 161.2,344.0 167.8,343.5 167.6,342.9 160.9,342.3 150.4,341.8 139.6,341.2 131.1,340.7 125.5,340.1 122.4,339.5 120.8,339.0 120.1,338.4 119.8,337.9 119.6,337.3 119.4,336.7 119.3,336.2 119.2,335.6 119.1,335.1 119.0,334.5 119.0,333.9 119.1,333.4 119.3,332.8 119.4,332.3 119.6,331.7 119.6,331.1 119.5,330.6 119.4,330.0 119.2,329.5 119.1,328.9 119.0,328.4 118.9,327.8 118.9,327.2 118.9,326.7 118.9,326.1 119.0,325.6 119.2,325.0 119.6,324.4 119.9,323.9 120.2,323.3 120.3,322.8 120.1,322.2 119.7,321.6 119.3,321.1 119.0,320.5 118.8,320.0 118.7,319.4 118.6,318.8 118.6,318.3 118.6,318.3 118.5,318.8 118.5,319.4 118.4,320.0 118.1,320.5 117.8,321.1 117.4,321.6 117.1,322.2 116.9,322.8 116.9,323.3 117.2,323.9 117.6,324.4 117.9,325.0 118.1,325.6 118.3,326.1 118.3,326.7 118.3,327.2 118.2,327.8 118.2,328.4 118.0,328.9 117.9,329.5 117.7,330.0 117.6,330.6 117.5,331.1 117.6,331.7 117.7,332.3 117.9,332.8 118.0,333.4 118.1,333.9 118.1,334.5 118.1,335.1 118.0,335.6 117.8,336.2 117.7,336.7 117.6,337.3 117.4,337.9 117.1,338.4 116.3,339.0 114.8,339.5 111.7,340.1 106.1,340.7 97.6,341.2 86.8,341.8 76.2,342.3 69.5,342.9 69.4,343.5 76.0,344.0 86.8,344.6 98.0,345.1 107.0,345.7 112.9,346.3 116.0,346.8 117.5,347.4 118.1,347.9 118.3,348.5 118.5,349.0 118.5,349.6 118.5,350.2 118.5,350.7 118.4,351.3 118.3,351.8 118.3,352.4 118.2,353.0 118.1,353.5 118.2,354.1 118.2,354.6 118.3,355.2 118.3,355.8 118.4,356.3 118.5,356.9 118.5,357.4 118.5,358.0" fill="#2a8" opacity="0.5" stroke="#2a8" stroke-width="1"/>
<line x1="68.6" y1="343.1376053757089" x2="168.6" y2="343.1376053757089" stroke="#114" stroke-width="2"/>
<circle cx="118.57142857142857" cy="343.5836835931121" r="2.4" fill="#114"/>
<text x="118.57142857142857" y="316.26014376659475" text-anchor="middle" font-size="11">1.00</text>
<text x="118.57142857142857" y="376" text-anchor="middle" font-size="12">zaxpy</text>
<polygon points="235.9,345.0 236.0,344.9 236.1,344.8 236.2,344.8 236.4,344.7 236.5,344.6 236.7,344.5 236.9,344.4 237.0,344.4 237.3,344.3 237.5,344.2 237.9,344.1 238.4,344.0 239.2,343.9 240.2,343.9 241.7,343.8 243.8,343.7 246.3,343.6 249.6,343.5 253.4,343.4 257.7,343.4 262.3,343.3 267.1,343.2 271.7,343.1 275.9,343.0 279.4,342.9 282.1,342.9 283.9,342.8 284.8,342.7 284.9,342.6 284.3,342.5 283.1,342.5 281.3,342.4 279.2,342.3 276.7,342.2 273.8,342.1 270.8,342.0 267.7,342.0 264.6,341.9 261.8,341.8 259.5,341.7 257.8,341.6 256.8,341.5 256.6,341.5 257.0,341.4 257.9,341.3 259.1,341.2 260.3,341.1 261.5,341.0 262.4,341.0 263.2,340.9 263.8,340.8 264.5,340.7 265.2,340.6 266.2,340.6 267.3,340.5 268.4,340.4 269.2,340.3 269.6,340.2 269.2,340.1 268.0,340.1 266.0,340.0 263.2,339.9 259.8,339.8 256.1,339.7 252.4,339.6 248.9,339.6 245.8,339.5 243.1,339.4 240.9,339.3 239.3,339.2 238.1,339.1 233.4,339.1 232.2,339.2 230.5,339.3 228.3,339.4 225.7,339.5 222.5,339.6 219.0,339.6 215.3,339.7 211.6,339.8 208.3,339.9 205.5,340.0 203.4,340.1 202.2,340.1 201.9,340.2 202.2,340.3 203.0,340.4 204.1,340.5 205.2,340.6 206.2,340.6 207.0,340.7 207.6,340.8 208.3,340.9 209.0,341.0 210.0,341.0 211.1,341.1 212.4,341.2 213.6,341.3 214.5,341.4 214.9,341.5 214.6,341.5 213.7,341.6 212.0,341.7 209.6,341.8 206.8,341.9 203.8,342.0 200.6,342.0 197.6,342.1 194.8,342.2 192.3,342.3 190.1,342.4 188.4,342.5 187.1,342.5 186.5,342.6 186.6,342.7 187.5,342.8 189.3,342.9 192.0,342.9 195.6,343.0 199.8,343.1 204.4,343.2 209.1,343.3 213.8,343.4 218.1,343.4 221.9,343.5 225.1,343.6 227.7,343.7 229.7,343.8 231.2,343.9 232.3,343.9 233.0,344.0 233.5,344.1 233.9,344.2 234.2,344.3 234.4,344.4 234.6,344.4 234.7,344.5 234.9,344.6 235.1,344.7 235.2,344.8 235.3,344.8 235.4,344.9 235.5,345.0" fill="#2a8" opacity="0.5" stroke="#2a8" stroke-width="1"/>
<line x1="198.9" y1="342.08707739148883" x2="272.6" y2="342.08707739148883" stroke="#114" stroke-width="2"/>
<circle cx="235.71428571428572" cy="342.99866111367345" r="2.4" fill="#114"/>
<text x="235.71428571428572" y="333.74022594498655" text-anchor="middle" font-size="11">1.08</text>
<text x="235.71428571428572" y="376" text-anchor="middle" font-size="12">zdotc</text>
<polygon points="352.9,345.0 352.9,345.0 353.0,344.9 353.2,344.9 353.5,344.8 354.0,344.7 354.7,344.7 355.4,344.6 355.9,344.5 356.2,344.5 356.2,344.4 356.1,344.3 355.9,344.3 355.9,344.2 355.9,344.2 355.9,344.1 355.9,344.0 355.9,344.0 356.2,343.9 356.9,343.8 358.1,343.8 359.8,343.7 361.9,343.6 364.3,343.6 367.5,343.5 372.0,343.4 378.1,343.4 385.7,343.3 393.4,343.3 399.4,343.2 402.1,343.1 400.8,343.1 396.4,343.0 390.5,342.9 384.7,342.9 379.6,342.8 375.0,342.7 370.5,342.7 366.0,342.6 361.8,342.6 358.6,342.5 356.5,342.4 355.3,342.4 354.8,342.3 354.7,342.2 354.8,342.2 354.9,342.1 355.1,342.0 355.1,342.0 355.1,341.9 355.0,341.8 354.8,341.8 354.5,341.7 354.2,341.7 353.9,341.6 353.6,341.5 353.4,341.5 353.3,341.4 353.2,341.3 353.2,341.3 353.2,341.2 353.2,341.1 353.2,341.1 353.2,341.0 353.2,341.0 353.1,340.9 353.1,340.8 353.0,340.8 352.9,340.7 352.9,340.6 352.9,340.6 352.9,340.5 352.9,340.5 352.8,340.6 352.8,340.6 352.8,340.7 352.7,340.8 352.7,340.8 352.6,340.9 352.5,341.0 352.5,341.0 352.5,341.1 352.5,341.1 352.5,341.2 352.5,341.3 352.5,341.3 352.5,341.4 352.3,341.5 352.1,341.5 351.8,341.6 351.5,341.7 351.2,341.7 350.9,341.8 350.7,341.8 350.6,341.9 350.6,342.0 350.7,342.0 350.8,342.1 350.9,342.2 351.0,342.2 350.9,342.3 350.4,342.4 349.2,342.4 347.1,342.5 343.9,342.6 339.8,342.6 335.2,342.7 330.7,342.7 326.1,342.8 321.0,342.9 315.2,342.9 309.3,343.0 304.9,343.1 303.7,343.1 306.3,343.2 312.3,343.3 320.1,343.3 327.6,343.4 333.8,343.4 338.2,343.5 341.4,343.6 343.9,343.6 346.0,343.7 347.7,343.8 348.8,343.8 349.5,343.9 349.8,344.0 349.8,344.0 349.8,344.1 349.8,344.2 349.8,344.2 349.8,344.3 349.7,344.3 349.5,344.4 349.5,344.5 349.8,344.5 350.3,344.6 351.0,344.7 351.7,344.7 352.2,344.8 352.5,344.9 352.7,344.9 352.8,345.0 352.8,345.0" fill="#2a8" opacity="0.5" stroke="#2a8" stroke-width="1"/>
<line x1="303.6" y1="343.11582392707976" x2="402.1" y2="343.11582392707976" stroke="#114" stroke-width="2"/>
<circle cx="352.85714285714283" cy="343.77916016087124" r="2.4" fill="#114"/>
<text x="352.85714285714283" y="334.97022423013465" text-anchor="middle" font-size="11">1.01</text>
<text x="352.85714285714283" y="376" text-anchor="middle" font-size="12">zscal</text>
<polygon points="476.7,335.3 479.9,331.3 484.0,327.3 488.9,323.2 494.5,319.2 500.5,315.2 506.3,311.2 511.6,307.2 515.7,303.1 518.3,299.1 519.2,295.1 518.3,291.1 516.0,287.1 512.6,283.1 508.7,279.0 504.7,275.0 501.3,271.0 498.6,267.0 496.8,263.0 495.8,258.9 495.3,254.9 495.2,250.9 495.0,246.9 494.6,242.9 493.8,238.9 492.5,234.8 490.8,230.8 489.0,226.8 487.1,222.8 485.5,218.8 484.3,214.7 483.7,210.7 483.7,206.7 484.5,202.7 485.9,198.7 487.9,194.7 490.2,190.6 492.7,186.6 495.1,182.6 497.1,178.6 498.4,174.6 499.0,170.5 498.6,166.5 497.4,162.5 495.5,158.5 493.0,154.5 490.1,150.5 487.1,146.4 484.1,142.4 481.3,138.4 478.8,134.4 476.7,130.4 475.0,126.3 473.7,122.3 472.7,118.3 472.0,114.3 471.5,110.3 471.2,106.3 471.0,102.2 470.8,98.2 470.8,94.2 470.7,90.2 470.7,86.2 470.7,82.1 470.7,78.1 470.7,74.1 470.7,70.1 470.6,66.1 470.5,62.1 470.5,58.0 470.4,54.0 470.3,50.0 469.7,50.0 469.6,54.0 469.5,58.0 469.5,62.1 469.4,66.1 469.3,70.1 469.3,74.1 469.3,78.1 469.3,82.1 469.3,86.2 469.3,90.2 469.2,94.2 469.2,98.2 469.0,102.2 468.8,106.3 468.5,110.3 468.0,114.3 467.3,118.3 466.3,122.3 465.0,126.3 463.3,130.4 461.2,134.4 458.7,138.4 455.9,142.4 452.9,146.4 449.9,150.5 447.0,154.5 444.5,158.5 442.6,162.5 441.4,166.5 441.0,170.5 441.6,174.6 442.9,178.6 444.9,182.6 447.3,186.6 449.8,190.6 452.1,194.7 454.1,198.7 455.5,202.7 456.3,206.7 456.3,210.7 455.7,214.7 454.5,218.8 452.9,222.8 451.0,226.8 449.2,230.8 447.5,234.8 446.2,238.9 445.4,242.9 445.0,246.9 444.8,250.9 444.7,254.9 444.2,258.9 443.2,263.0 441.4,267.0 438.7,271.0 435.3,275.0 431.3,279.0 427.4,283.1 424.0,287.1 421.7,291.1 420.8,295.1 421.7,299.1 424.3,303.1 428.4,307.2 433.7,311.2 439.5,315.2 445.5,319.2 451.1,323.2 456.0,327.3 460.1,331.3 463.3,335.3" fill="#2a8" opacity="0.5" stroke="#2a8" stroke-width="1"/>
<line x1="445.1" y1="245.24012716009415" x2="494.9" y2="245.24012716009415" stroke="#114" stroke-width="2"/>
<circle cx="470.0" cy="300.2027440460586" r="2.4" fill="#114"/>
<text x="470.0" y="61.433962264150935" text-anchor="middle" font-size="11">7.62</text>
<text x="470.0" y="376" text-anchor="middle" font-size="12">dznrm2</text>
<polygon points="587.1,353.4 587.1,352.9 587.1,352.4 587.1,351.9 587.2,351.4 587.2,350.9 587.4,350.4 587.5,349.9 587.6,349.4 587.6,348.9 587.7,348.4 587.6,347.9 587.3,347.4 587.2,346.9 587.3,346.4 587.9,345.9 590.0,345.4 595.2,344.9 606.1,344.4 623.1,343.9 636.3,343.4 629.9,342.9 609.8,342.4 595.3,341.9 589.9,341.4 588.4,340.9 587.9,340.4 587.7,339.9 587.6,339.4 587.4,338.9 587.2,338.4 587.2,337.9 587.1,337.4 587.1,336.9 587.1,336.4 587.1,335.9 587.1,335.4 587.1,334.9 587.1,334.4 587.1,333.9 587.1,333.4 587.1,332.9 587.1,332.4 587.1,331.9 587.1,331.4 587.1,330.9 587.1,330.4 587.1,329.9 587.1,329.4 587.1,328.9 587.1,328.4 587.2,327.9 587.2,327.3 587.3,326.8 587.3,326.3 587.2,325.8 587.2,325.3 587.1,324.8 587.1,324.3 587.1,323.8 587.1,323.3 587.1,322.8 587.2,322.3 587.3,321.8 587.3,321.3 587.3,320.8 587.2,320.3 587.2,319.8 587.1,319.3 587.1,318.8 587.1,318.3 587.1,317.8 587.1,317.8 587.1,318.3 587.1,318.8 587.1,319.3 587.1,319.8 587.1,320.3 587.0,320.8 586.9,321.3 587.0,321.8 587.1,322.3 587.1,322.8 587.1,323.3 587.1,323.8 587.1,324.3 587.1,324.8 587.1,325.3 587.0,325.8 587.0,326.3 587.0,326.8 587.1,327.3 587.1,327.9 587.1,328.4 587.1,328.9 587.1,329.4 587.1,329.9 587.1,330.4 587.1,330.9 587.1,331.4 587.1,331.9 587.1,332.4 587.1,332.9 587.1,333.4 587.1,333.9 587.1,334.4 587.1,334.9 587.1,335.4 587.1,335.9 587.1,336.4 587.1,336.9 587.1,337.4 587.1,337.9 587.0,338.4 586.9,338.9 586.7,339.4 586.6,339.9 586.4,340.4 585.9,340.9 584.4,341.4 579.0,341.9 564.5,342.4 544.4,342.9 537.9,343.4 551.1,343.9 568.2,344.4 579.1,344.9 584.3,345.4 586.4,345.9 587.0,346.4 587.1,346.9 586.9,347.4 586.7,347.9 586.5,348.4 586.7,348.9 586.7,349.4 586.7,349.9 586.9,350.4 587.1,350.9 587.1,351.4 587.1,351.9 587.1,352.4 587.1,352.9 587.1,353.4" fill="#d33" opacity="0.5" stroke="#d33" stroke-width="1"/>
<line x1="537.5" y1="343.24720874450105" x2="636.8" y2="343.24720874450105" stroke="#114" stroke-width="2"/>
<circle cx="587.1428571428571" cy="343.7984293698283" r="2.4" fill="#114"/>
<text x="587.1428571428571" y="315.2866162120808" text-anchor="middle" font-size="11">1.00</text>
<text x="587.1428571428571" y="376" text-anchor="middle" font-size="12">dzasum</text>
<polygon points="704.3,358.0 704.3,356.3 704.3,354.6 704.4,352.8 704.9,351.1 706.8,349.4 712.8,347.7 726.2,346.0 744.3,344.2 753.5,342.5 744.3,340.8 725.9,339.1 712.3,337.4 706.7,335.7 705.0,333.9 704.6,332.2 704.5,330.5 704.6,328.8 704.7,327.1 704.8,325.3 704.9,323.6 704.9,321.9 704.7,320.2 704.5,318.5 704.4,316.7 704.3,315.0 704.3,313.3 704.3,311.6 704.3,309.9 704.3,308.1 704.3,306.4 704.3,304.7 704.3,303.0 704.3,301.3 704.3,299.6 704.3,297.8 704.3,296.1 704.3,294.4 704.3,292.7 704.3,291.0 704.3,289.2 704.3,287.5 704.3,285.8 704.3,284.1 704.3,282.4 704.3,280.6 704.3,278.9 704.3,277.2 704.3,275.5 704.3,273.8 704.3,272.0 704.3,270.3 704.3,268.6 704.3,266.9 704.3,265.2 704.3,263.5 704.3,261.7 704.3,260.0 704.3,258.3 704.3,256.6 704.4,254.9 704.4,253.1 704.5,251.4 704.5,249.7 704.5,248.0 704.4,246.3 704.4,244.5 704.3,242.8 704.3,241.1 704.3,239.4 704.3,237.7 704.3,235.9 704.3,235.9 704.3,237.7 704.3,239.4 704.3,241.1 704.3,242.8 704.2,244.5 704.1,246.3 704.1,248.0 704.0,249.7 704.1,251.4 704.1,253.1 704.2,254.9 704.3,256.6 704.3,258.3 704.3,260.0 704.3,261.7 704.3,263.5 704.3,265.2 704.3,266.9 704.3,268.6 704.3,270.3 704.3,272.0 704.3,273.8 704.3,275.5 704.3,277.2 704.3,278.9 704.3,280.6 704.3,282.4 704.3,284.1 704.3,285.8 704.3,287.5 704.3,289.2 704.3,291.0 704.3,292.7 704.3,294.4 704.3,296.1 704.3,297.8 704.3,299.6 704.3,301.3 704.3,303.0 704.3,304.7 704.3,306.4 704.3,308.1 704.3,309.9 704.3,311.6 704.3,313.3 704.3,315.0 704.2,316.7 704.1,318.5 703.8,320.2 703.7,321.9 703.7,323.6 703.7,325.3 703.8,327.1 703.9,328.8 704.0,330.5 704.0,332.2 703.5,333.9 701.9,335.7 696.2,337.4 682.7,339.1 664.3,340.8 655.1,342.5 664.3,344.2 682.4,346.0 695.7,347.7 701.7,349.4 703.7,351.1 704.2,352.8 704.3,354.6 704.3,356.3 704.3,358.0" fill="#2a8" opacity="0.5" stroke="#2a8" stroke-width="1"/>
<line x1="655.1" y1="342.6167047035051" x2="753.5" y2="342.6167047035051" stroke="#114" stroke-width="2"/>
<circle cx="704.2857142857142" cy="343.01828607702197" r="2.4" fill="#114"/>
<text x="704.2857142857142" y="241.83623489258565" text-anchor="middle" font-size="11">1.04</text>
<text x="704.2857142857142" y="376" text-anchor="middle" font-size="12">zdotu</text>
<polygon points="821.6,358.0 822.1,355.0 823.7,351.9 827.8,348.9 836.1,345.9 848.0,342.8 860.0,339.8 868.2,336.7 870.6,333.7 866.5,330.7 856.7,327.6 844.7,324.6 835.2,321.6 830.1,318.5 828.2,315.5 827.3,312.5 826.4,309.4 825.7,306.4 825.2,303.4 824.7,300.3 823.8,297.3 822.8,294.2 822.1,291.2 821.8,288.2 821.6,285.1 821.6,282.1 821.6,279.1 821.7,276.0 821.7,273.0 821.6,270.0 821.5,266.9 821.5,263.9 821.6,260.8 821.9,257.8 822.1,254.8 822.2,251.7 822.0,248.7 821.7,245.7 821.5,242.6 821.5,239.6 821.4,236.6 821.4,233.5 821.4,230.5 821.4,227.4 821.4,224.4 821.4,221.4 821.4,218.3 821.4,215.3 821.4,212.3 821.4,209.2 821.4,206.2 821.4,203.2 821.4,200.1 821.4,197.1 821.4,194.1 821.4,191.0 821.4,188.0 821.4,184.9 821.4,181.9 821.4,178.9 821.5,175.8 821.5,172.8 821.6,169.8 821.7,166.7 821.7,163.7 821.6,160.7 821.5,157.6 821.5,154.6 821.4,151.5 821.4,148.5 821.4,145.5 821.4,142.4 821.4,142.4 821.4,145.5 821.4,148.5 821.4,151.5 821.4,154.6 821.3,157.6 821.2,160.7 821.2,163.7 821.2,166.7 821.3,169.8 821.4,172.8 821.4,175.8 821.4,178.9 821.4,181.9 821.4,184.9 821.4,188.0 821.4,191.0 821.4,194.1 821.4,197.1 821.4,200.1 821.4,203.2 821.4,206.2 821.4,209.2 821.4,212.3 821.4,215.3 821.4,218.3 821.4,221.4 821.4,224.4 821.4,227.4 821.4,230.5 821.4,233.5 821.4,236.6 821.4,239.6 821.3,242.6 821.1,245.7 820.9,248.7 820.7,251.7 820.8,254.8 821.0,257.8 821.2,260.8 821.3,263.9 821.3,266.9 821.3,270.0 821.2,273.0 821.2,276.0 821.2,279.1 821.3,282.1 821.3,285.1 821.1,288.2 820.7,291.2 820.0,294.2 819.1,297.3 818.2,300.3 817.7,303.4 817.2,306.4 816.5,309.4 815.6,312.5 814.7,315.5 812.7,318.5 807.6,321.6 798.1,324.6 786.2,327.6 776.3,330.7 772.2,333.7 774.6,336.7 782.8,339.8 794.9,342.8 806.8,345.9 815.0,348.9 819.2,351.9 820.7,355.0 821.2,358.0" fill="#2a8" opacity="0.5" stroke="#2a8" stroke-width="1"/>
<line x1="773.3" y1="332.31982942920456" x2="869.6" y2="332.31982942920456" stroke="#114" stroke-width="2"/>
<circle cx="821.4285714285714" cy="337.68717155341875" r="2.4" fill="#114"/>
<text x="821.4285714285714" y="158.7534769567162" text-anchor="middle" font-size="11">1.74</text>
<text x="821.4285714285714" y="376" text-anchor="middle" font-size="12">izamax</text>
<text x="450.0" y="428" text-anchor="middle" font-size="11" fill="#666">violin = ratio distribution over sizes · line = median · dark dot = worst size · green = every size ≥ gate</text>
</svg>
