<svg xmlns="http://www.w3.org/2000/svg" width="900" height="440" font-family="sans-serif">
<rect width="900" height="440" fill="white"/>
<text x="450.0" y="28" text-anchor="middle" font-size="18" font-weight="bold">BLAS-2: PureBLAS / OpenBLAS (AVX-512 native (Zen5), 1 thread, Float64)</text>
<line x1="60" y1="358.0" x2="880" y2="358.0" stroke="#eee"/>
<text x="52" y="362.0" text-anchor="end" font-size="11" fill="#666">0×</text>
<line x1="60" y1="282.4109065378906" x2="880" y2="282.4109065378906" stroke="#eee"/>
<text x="52" y="286.4109065378906" text-anchor="end" font-size="11" fill="#666">0.5×</text>
<line x1="60" y1="206.82181307578114" x2="880" y2="206.82181307578114" stroke="#eee"/>
<text x="52" y="210.82181307578114" text-anchor="end" font-size="11" fill="#666">1×</text>
<line x1="60" y1="131.2327196136717" x2="880" y2="131.2327196136717" stroke="#eee"/>
<text x="52" y="135.2327196136717" text-anchor="end" font-size="11" fill="#666">1.5×</text>
<line x1="60" y1="206.82181307578114" x2="880" y2="206.82181307578114" stroke="#888" stroke-width="1"/>
<line x1="60" y1="212.8689405527499" x2="880" y2="212.8689405527499" stroke="#d33" stroke-width="1.5" stroke-dasharray="6 4"/>
<text x="880" y="207.8689405527499" text-anchor="end" font-size="11" fill="#d33">0.96× gate</text>
<polygon points="106.5,259.8 107.0,257.0 107.6,254.2 108.4,251.4 109.6,248.5 111.0,245.7 112.7,242.9 114.8,240.1 117.2,237.3 120.0,234.4 123.1,231.6 126.4,228.8 129.9,226.0 133.3,223.2 136.5,220.3 139.3,217.5 141.6,214.7 143.1,211.9 143.8,209.0 143.7,206.2 142.7,203.4 141.0,200.6 138.6,197.8 135.7,194.9 132.4,192.1 129.0,189.3 125.7,186.5 122.4,183.7 119.4,180.8 116.7,178.0 114.4,175.2 112.4,172.4 110.8,169.6 109.5,166.7 108.5,163.9 107.7,161.1 107.2,158.3 106.8,155.5 106.7,152.6 106.7,149.8 106.8,147.0 107.2,144.2 107.7,141.3 108.4,138.5 109.2,135.7 110.1,132.9 111.0,130.1 111.8,127.2 112.5,124.4 113.0,121.6 113.3,118.8 113.2,116.0 112.9,113.1 112.4,110.3 111.7,107.5 110.9,104.7 110.1,101.9 109.3,99.0 108.6,96.2 108.0,93.4 107.5,90.6 107.2,87.8 106.9,84.9 106.6,82.1 106.5,79.3 106.3,76.5 106.2,73.6 106.1,70.8 106.0,68.0 105.9,65.2 105.8,62.4 105.7,59.5 105.4,59.5 105.3,62.4 105.2,65.2 105.1,68.0 105.0,70.8 104.9,73.6 104.8,76.5 104.7,79.3 104.5,82.1 104.2,84.9 104.0,87.8 103.6,90.6 103.1,93.4 102.5,96.2 101.8,99.0 101.0,101.9 100.2,104.7 99.4,107.5 98.7,110.3 98.2,113.1 97.9,116.0 97.8,118.8 98.1,121.6 98.6,124.4 99.3,127.2 100.1,130.1 101.0,132.9 101.9,135.7 102.7,138.5 103.4,141.3 103.9,144.2 104.3,147.0 104.4,149.8 104.4,152.6 104.3,155.5 103.9,158.3 103.4,161.1 102.6,163.9 101.6,166.7 100.3,169.6 98.7,172.4 96.8,175.2 94.4,178.0 91.7,180.8 88.7,183.7 85.5,186.5 82.1,189.3 78.7,192.1 75.4,194.9 72.5,197.8 70.2,200.6 68.4,203.4 67.4,206.2 67.3,209.0 68.0,211.9 69.5,214.7 71.8,217.5 74.6,220.3 77.8,223.2 81.2,226.0 84.7,228.8 88.0,231.6 91.1,234.4 93.9,237.3 96.3,240.1 98.4,242.9 100.2,245.7 101.6,248.5 102.7,251.4 103.5,254.2 104.2,257.0 104.6,259.8" fill="#d33" opacity="0.5" stroke="#d33" stroke-width="1"/>
<line x1="67.3" y1="207.49911425375961" x2="143.9" y2="207.49911425375961" stroke="#114" stroke-width="2"/>
<circle cx="105.55555555555556" cy="226.40399902275473" r="2.4" fill="#114"/>
<text x="105.55555555555556" y="73.16914085268957" text-anchor="middle" font-size="11">1.00</text>
<text x="105.55555555555556" y="376" text-anchor="middle" font-size="12">gemvN</text>
<polygon points="203.4,210.1 205.5,209.4 208.0,208.6 210.8,207.9 213.9,207.2 217.1,206.5 220.4,205.8 223.7,205.0 226.7,204.3 229.4,203.6 231.6,202.9 233.2,202.1 234.3,201.4 234.9,200.7 234.9,200.0 234.5,199.2 233.8,198.5 232.8,197.8 231.5,197.1 230.1,196.3 228.5,195.6 226.8,194.9 225.0,194.2 223.1,193.5 221.1,192.7 218.9,192.0 216.8,191.3 214.7,190.6 212.7,189.8 210.8,189.1 209.2,188.4 208.0,187.7 207.2,186.9 206.8,186.2 206.9,185.5 207.4,184.8 208.4,184.0 209.8,183.3 211.6,182.6 213.5,181.9 215.4,181.2 217.3,180.4 219.0,179.7 220.2,179.0 221.1,178.3 221.3,177.5 221.0,176.8 220.1,176.1 218.7,175.4 216.9,174.6 214.9,173.9 212.6,173.2 210.3,172.5 208.1,171.7 206.1,171.0 204.3,170.3 202.7,169.6 201.4,168.9 200.4,168.1 199.6,167.4 199.0,166.7 198.5,166.0 198.2,165.2 197.9,164.5 197.7,163.8 197.6,163.1 197.4,162.3 197.3,161.6 197.2,160.9 197.1,160.2 197.1,159.4 197.0,158.7 196.4,158.7 196.3,159.4 196.2,160.2 196.1,160.9 196.0,161.6 195.9,162.3 195.8,163.1 195.6,163.8 195.4,164.5 195.2,165.2 194.8,166.0 194.4,166.7 193.7,167.4 192.9,168.1 191.9,168.9 190.6,169.6 189.1,170.3 187.2,171.0 185.2,171.7 183.0,172.5 180.7,173.2 178.5,173.9 176.4,174.6 174.6,175.4 173.2,176.1 172.3,176.8 172.0,177.5 172.3,178.3 173.1,179.0 174.4,179.7 176.0,180.4 177.9,181.2 179.9,181.9 181.8,182.6 183.5,183.3 184.9,184.0 185.9,184.8 186.5,185.5 186.5,186.2 186.2,186.9 185.3,187.7 184.1,188.4 182.5,189.1 180.7,189.8 178.7,190.6 176.5,191.3 174.4,192.0 172.3,192.7 170.2,193.5 168.3,194.2 166.5,194.9 164.8,195.6 163.2,196.3 161.8,197.1 160.6,197.8 159.5,198.5 158.8,199.2 158.4,200.0 158.4,200.7 159.0,201.4 160.1,202.1 161.8,202.9 164.0,203.6 166.6,204.3 169.6,205.0 172.9,205.8 176.2,206.5 179.5,207.2 182.5,207.9 185.3,208.6 187.8,209.4 189.9,210.1" fill="#2a8" opacity="0.5" stroke="#2a8" stroke-width="1"/>
<line x1="166.7" y1="194.79531405294756" x2="226.6" y2="194.79531405294756" stroke="#114" stroke-width="2"/>
<circle cx="196.66666666666669" cy="203.06395069272926" r="2.4" fill="#114"/>
<text x="196.66666666666669" y="157.93636248462846" text-anchor="middle" font-size="11">1.08</text>
<text x="196.66666666666669" y="376" text-anchor="middle" font-size="12">gemvT</text>
<polygon points="288.4,266.6 288.8,264.6 289.3,262.7 290.0,260.7 290.8,258.7 291.8,256.8 292.8,254.8 293.9,252.8 295.0,250.9 296.1,248.9 297.3,246.9 298.4,245.0 299.7,243.0 300.9,241.0 302.0,239.1 303.0,237.1 303.6,235.1 303.8,233.2 303.5,231.2 302.9,229.2 302.1,227.3 301.4,225.3 301.3,223.3 301.9,221.4 303.5,219.4 306.1,217.4 309.5,215.5 313.6,213.5 317.8,211.5 321.7,209.6 324.6,207.6 326.0,205.6 325.9,203.7 324.0,201.7 320.8,199.7 316.7,197.8 312.3,195.8 308.1,193.8 304.7,191.9 302.1,189.9 300.4,187.9 299.3,186.0 298.6,184.0 298.0,182.0 297.4,180.1 296.5,178.1 295.4,176.1 294.2,174.2 293.0,172.2 291.9,170.2 290.9,168.3 290.1,166.3 289.5,164.3 289.0,162.4 288.6,160.4 288.4,158.4 288.2,156.5 288.1,154.5 288.1,152.5 288.1,150.6 288.2,148.6 288.2,146.6 288.3,144.7 288.3,142.7 288.3,140.7 288.3,138.8 288.3,136.8 288.2,134.8 288.1,132.8 288.0,130.9 288.0,128.9 287.9,126.9 287.7,126.9 287.6,128.9 287.5,130.9 287.4,132.8 287.4,134.8 287.3,136.8 287.3,138.8 287.2,140.7 287.2,142.7 287.3,144.7 287.3,146.6 287.4,148.6 287.4,150.6 287.5,152.5 287.4,154.5 287.3,156.5 287.2,158.4 286.9,160.4 286.5,162.4 286.1,164.3 285.4,166.3 284.6,168.3 283.6,170.2 282.5,172.2 281.3,174.2 280.1,176.1 279.1,178.1 278.2,180.1 277.5,182.0 276.9,184.0 276.2,186.0 275.2,187.9 273.5,189.9 270.9,191.9 267.4,193.8 263.3,195.8 258.9,197.8 254.7,199.7 251.5,201.7 249.7,203.7 249.5,205.6 251.0,207.6 253.9,209.6 257.7,211.5 261.9,213.5 266.0,215.5 269.5,217.4 272.1,219.4 273.7,221.4 274.3,223.3 274.1,225.3 273.5,227.3 272.7,229.2 272.0,231.2 271.8,233.2 271.9,235.1 272.6,237.1 273.5,239.1 274.7,241.0 275.9,243.0 277.1,245.0 278.3,246.9 279.4,248.9 280.5,250.9 281.6,252.8 282.7,254.8 283.8,256.8 284.7,258.7 285.5,260.7 286.2,262.7 286.7,264.6 287.1,266.6" fill="#d33" opacity="0.5" stroke="#d33" stroke-width="1"/>
<line x1="249.4" y1="205.4073635698091" x2="326.1" y2="205.4073635698091" stroke="#114" stroke-width="2"/>
<circle cx="287.77777777777777" cy="244.15021522243393" r="2.4" fill="#114"/>
<text x="287.77777777777777" y="134.70831918540546" text-anchor="middle" font-size="11">1.01</text>
<text x="287.77777777777777" y="376" text-anchor="middle" font-size="12">ger</text>
<polygon points="379.2,229.0 379.3,227.9 379.5,226.7 379.8,225.5 380.1,224.4 380.4,223.2 380.7,222.1 381.0,220.9 381.2,219.7 381.4,218.6 381.4,217.4 381.3,216.3 381.1,215.1 380.9,213.9 380.6,212.8 380.3,211.6 380.2,210.5 380.1,209.3 380.2,208.1 380.5,207.0 381.1,205.8 381.8,204.7 382.8,203.5 384.1,202.3 385.5,201.2 387.2,200.0 389.0,198.9 391.1,197.7 393.4,196.5 395.9,195.4 398.8,194.2 401.8,193.1 405.1,191.9 408.2,190.7 411.2,189.6 413.8,188.4 415.7,187.3 416.8,186.1 417.2,184.9 416.8,183.8 415.8,182.6 414.5,181.5 413.0,180.3 411.7,179.1 410.5,178.0 409.4,176.8 408.5,175.7 407.4,174.5 406.1,173.3 404.6,172.2 402.9,171.0 401.0,169.9 399.2,168.7 397.6,167.5 396.4,166.4 395.6,165.2 395.3,164.1 395.1,162.9 395.0,161.7 394.7,160.6 394.1,159.4 393.0,158.3 391.6,157.1 389.8,155.9 387.9,154.8 386.0,153.6 384.3,152.5 382.8,151.3 381.6,150.1 380.7,149.0 380.0,147.8 379.6,146.7 378.2,146.7 377.8,147.8 377.1,149.0 376.2,150.1 375.0,151.3 373.5,152.5 371.7,153.6 369.9,154.8 368.0,155.9 366.2,157.1 364.8,158.3 363.7,159.4 363.1,160.6 362.8,161.7 362.7,162.9 362.5,164.1 362.1,165.2 361.4,166.4 360.2,167.5 358.6,168.7 356.8,169.9 354.9,171.0 353.2,172.2 351.6,173.3 350.4,174.5 349.3,175.7 348.3,176.8 347.3,178.0 346.1,179.1 344.7,180.3 343.3,181.5 342.0,182.6 341.0,183.8 340.6,184.9 341.0,186.1 342.1,187.3 344.0,188.4 346.6,189.6 349.5,190.7 352.7,191.9 355.9,193.1 359.0,194.2 361.9,195.4 364.4,196.5 366.7,197.7 368.8,198.9 370.6,200.0 372.3,201.2 373.7,202.3 374.9,203.5 376.0,204.7 376.7,205.8 377.3,207.0 377.6,208.1 377.7,209.3 377.6,210.5 377.4,211.6 377.2,212.8 376.9,213.9 376.7,215.1 376.5,216.3 376.4,217.4 376.4,218.6 376.5,219.7 376.8,220.9 377.1,222.1 377.4,223.2 377.7,224.4 378.0,225.5 378.2,226.7 378.4,227.9 378.6,229.0" fill="#2a8" opacity="0.5" stroke="#2a8" stroke-width="1"/>
<line x1="341.8" y1="182.74568173911908" x2="415.9" y2="182.74568173911908" stroke="#114" stroke-width="2"/>
<circle cx="378.8888888888889" cy="197.08482647594477" r="2.4" fill="#114"/>
<text x="378.8888888888889" y="148.86676132583457" text-anchor="middle" font-size="11">1.16</text>
<text x="378.8888888888889" y="376" text-anchor="middle" font-size="12">symv</text>
<polygon points="470.2,239.3 470.4,237.3 470.6,235.3 471.0,233.3 471.4,231.3 471.9,229.4 472.5,227.4 473.2,225.4 474.1,223.4 475.2,221.4 476.6,219.4 478.7,217.4 481.6,215.4 485.4,213.4 490.0,211.4 495.1,209.5 500.1,207.5 504.3,205.5 507.2,203.5 508.3,201.5 507.5,199.5 505.4,197.5 502.3,195.5 499.2,193.5 496.5,191.5 494.7,189.6 493.8,187.6 493.4,185.6 493.2,183.6 492.7,181.6 491.6,179.6 489.9,177.6 487.7,175.6 485.3,173.6 482.8,171.7 480.6,169.7 478.7,167.7 477.3,165.7 476.4,163.7 475.9,161.7 475.8,159.7 475.9,157.7 476.0,155.7 476.0,153.7 475.9,151.8 475.5,149.8 474.8,147.8 474.0,145.8 473.1,143.8 472.3,141.8 471.6,139.8 471.0,137.8 470.6,135.8 470.4,133.8 470.3,131.9 470.3,129.9 470.4,127.9 470.5,125.9 470.6,123.9 470.7,121.9 470.9,119.9 470.9,117.9 470.9,115.9 470.9,113.9 470.9,112.0 470.8,110.0 470.6,108.0 470.5,106.0 470.4,104.0 470.3,102.0 470.2,100.0 470.1,98.0 469.9,98.0 469.8,100.0 469.7,102.0 469.6,104.0 469.5,106.0 469.4,108.0 469.2,110.0 469.1,112.0 469.1,113.9 469.1,115.9 469.1,117.9 469.1,119.9 469.3,121.9 469.4,123.9 469.5,125.9 469.6,127.9 469.7,129.9 469.7,131.9 469.6,133.8 469.4,135.8 469.0,137.8 468.4,139.8 467.7,141.8 466.9,143.8 466.0,145.8 465.2,147.8 464.5,149.8 464.1,151.8 464.0,153.7 464.0,155.7 464.1,157.7 464.2,159.7 464.1,161.7 463.6,163.7 462.7,165.7 461.3,167.7 459.4,169.7 457.2,171.7 454.7,173.6 452.3,175.6 450.1,177.6 448.4,179.6 447.3,181.6 446.8,183.6 446.6,185.6 446.2,187.6 445.3,189.6 443.5,191.5 440.8,193.5 437.7,195.5 434.6,197.5 432.5,199.5 431.7,201.5 432.8,203.5 435.7,205.5 439.9,207.5 444.9,209.5 450.0,211.4 454.6,213.4 458.4,215.4 461.3,217.4 463.4,219.4 464.8,221.4 465.9,223.4 466.8,225.4 467.5,227.4 468.1,229.4 468.6,231.3 469.0,233.3 469.4,235.3 469.6,237.3 469.8,239.3" fill="#2a8" opacity="0.5" stroke="#2a8" stroke-width="1"/>
<line x1="434.0" y1="197.99007973738233" x2="506.0" y2="197.99007973738233" stroke="#114" stroke-width="2"/>
<circle cx="470.0" cy="204.96178874883162" r="2.4" fill="#114"/>
<text x="470.0" y="105.94262043250136" text-anchor="middle" font-size="11">1.06</text>
<text x="470.0" y="376" text-anchor="middle" font-size="12">trmv</text>
<polygon points="561.9,233.8 562.2,232.8 562.5,231.8 562.9,230.7 563.3,229.7 563.7,228.7 564.1,227.7 564.5,226.6 564.9,225.6 565.2,224.6 565.5,223.6 565.8,222.6 566.2,221.5 566.6,220.5 567.3,219.5 568.2,218.5 569.5,217.5 571.2,216.4 573.5,215.4 576.2,214.4 579.4,213.4 583.0,212.3 586.7,211.3 590.4,210.3 593.8,209.3 596.6,208.3 598.5,207.2 599.4,206.2 599.2,205.2 597.9,204.2 595.8,203.1 593.0,202.1 589.9,201.1 586.8,200.1 584.0,199.1 581.7,198.0 580.2,197.0 579.4,196.0 579.2,195.0 579.7,194.0 580.5,192.9 581.6,191.9 582.7,190.9 583.7,189.9 584.4,188.8 584.8,187.8 584.9,186.8 584.6,185.8 583.9,184.8 583.0,183.7 581.9,182.7 580.7,181.7 579.3,180.7 578.0,179.6 576.6,178.6 575.3,177.6 573.9,176.6 572.5,175.6 571.2,174.5 569.8,173.5 568.5,172.5 567.3,171.5 566.1,170.5 565.1,169.4 564.2,168.4 563.5,167.4 562.9,166.4 562.4,165.3 562.1,164.3 561.8,163.3 561.6,162.3 561.4,161.3 560.8,161.3 560.6,162.3 560.4,163.3 560.2,164.3 559.8,165.3 559.3,166.4 558.7,167.4 558.0,168.4 557.1,169.4 556.1,170.5 554.9,171.5 553.7,172.5 552.4,173.5 551.0,174.5 549.7,175.6 548.3,176.6 547.0,177.6 545.6,178.6 544.2,179.6 542.9,180.7 541.5,181.7 540.3,182.7 539.2,183.7 538.3,184.8 537.7,185.8 537.3,186.8 537.4,187.8 537.8,188.8 538.5,189.9 539.5,190.9 540.6,191.9 541.7,192.9 542.5,194.0 543.0,195.0 542.9,196.0 542.0,197.0 540.5,198.0 538.2,199.1 535.4,200.1 532.3,201.1 529.2,202.1 526.5,203.1 524.3,204.2 523.1,205.2 522.8,206.2 523.7,207.2 525.6,208.3 528.4,209.3 531.8,210.3 535.5,211.3 539.2,212.3 542.8,213.4 546.0,214.4 548.7,215.4 551.0,216.4 552.7,217.5 554.0,218.5 554.9,219.5 555.6,220.5 556.0,221.5 556.4,222.6 556.7,223.6 557.0,224.6 557.3,225.6 557.7,226.6 558.1,227.7 558.5,228.7 558.9,229.7 559.3,230.7 559.7,231.8 560.1,232.8 560.3,233.8" fill="#2a8" opacity="0.5" stroke="#2a8" stroke-width="1"/>
<line x1="527.0" y1="202.94307370429544" x2="595.3" y2="202.94307370429544" stroke="#114" stroke-width="2"/>
<circle cx="561.1111111111111" cy="208.16362621098133" r="2.4" fill="#114"/>
<text x="561.1111111111111" y="162.52272973960294" text-anchor="middle" font-size="11">1.03</text>
<text x="561.1111111111111" y="376" text-anchor="middle" font-size="12">trsv</text>
<polygon points="655.8,186.4 657.1,184.6 658.6,182.7 660.3,180.9 662.0,179.0 663.7,177.1 665.3,175.3 666.6,173.4 667.7,171.6 668.4,169.7 668.8,167.9 669.1,166.0 669.4,164.1 669.8,162.3 670.6,160.4 671.7,158.6 673.2,156.7 675.1,154.8 677.4,153.0 679.8,151.1 682.2,149.3 684.5,147.4 686.5,145.5 688.1,143.7 689.3,141.8 690.1,140.0 690.4,138.1 690.5,136.2 690.3,134.4 689.8,132.5 689.1,130.7 688.1,128.8 686.7,126.9 685.0,125.1 682.9,123.2 680.4,121.4 677.6,119.5 674.6,117.6 671.7,115.8 668.9,113.9 666.4,112.1 664.4,110.2 662.9,108.3 662.0,106.5 661.7,104.6 661.8,102.8 662.2,100.9 662.8,99.0 663.4,97.2 663.8,95.3 664.0,93.5 663.9,91.6 663.4,89.7 662.7,87.9 661.6,86.0 660.5,84.2 659.2,82.3 658.0,80.4 656.9,78.6 655.9,76.7 655.1,74.9 654.5,73.0 654.0,71.1 653.6,69.3 653.4,67.4 653.2,65.6 653.0,63.7 652.9,61.9 652.8,60.0 652.7,58.1 652.6,56.3 652.5,54.4 652.0,54.4 651.9,56.3 651.8,58.1 651.7,60.0 651.6,61.9 651.4,63.7 651.3,65.6 651.1,67.4 650.8,69.3 650.5,71.1 650.0,73.0 649.3,74.9 648.5,76.7 647.6,78.6 646.5,80.4 645.2,82.3 644.0,84.2 642.8,86.0 641.8,87.9 641.0,89.7 640.5,91.6 640.4,93.5 640.6,95.3 641.0,97.2 641.6,99.0 642.2,100.9 642.6,102.8 642.7,104.6 642.4,106.5 641.5,108.3 640.1,110.2 638.1,112.1 635.6,113.9 632.8,115.8 629.8,117.6 626.8,119.5 624.0,121.4 621.6,123.2 619.4,125.1 617.7,126.9 616.4,128.8 615.4,130.7 614.6,132.5 614.2,134.4 614.0,136.2 614.0,138.1 614.4,140.0 615.2,141.8 616.3,143.7 618.0,145.5 619.9,147.4 622.2,149.3 624.7,151.1 627.1,153.0 629.3,154.8 631.2,156.7 632.8,158.6 633.9,160.4 634.6,162.3 635.0,164.1 635.3,166.0 635.6,167.9 636.1,169.7 636.8,171.6 637.8,173.4 639.1,175.3 640.7,177.1 642.4,179.0 644.2,180.9 645.9,182.7 647.4,184.6 648.7,186.4" fill="#2a8" opacity="0.5" stroke="#2a8" stroke-width="1"/>
<line x1="613.9" y1="136.79990681578647" x2="690.5" y2="136.79990681578647" stroke="#114" stroke-width="2"/>
<circle cx="652.2222222222223" cy="171.09766405322998" r="2.4" fill="#114"/>
<text x="652.2222222222223" y="61.433962264150935" text-anchor="middle" font-size="11">1.46</text>
<text x="652.2222222222223" y="376" text-anchor="middle" font-size="12">spmv</text>
<polygon points="743.4,187.3 743.5,186.2 743.7,185.1 744.0,184.0 744.8,182.9 746.0,181.8 748.0,180.7 751.0,179.6 755.2,178.5 760.4,177.3 766.4,176.2 772.5,175.1 777.8,174.0 781.0,172.9 781.6,171.8 779.3,170.7 774.8,169.6 769.3,168.5 764.0,167.4 759.8,166.3 756.8,165.2 755.1,164.1 754.1,163.0 753.4,161.9 752.7,160.7 751.8,159.6 750.7,158.5 749.5,157.4 748.4,156.3 747.7,155.2 747.4,154.1 747.3,153.0 747.2,151.9 747.1,150.8 746.7,149.7 746.1,148.6 745.4,147.5 744.8,146.4 744.2,145.2 743.8,144.1 743.6,143.0 743.4,141.9 743.4,140.8 743.3,139.7 743.3,138.6 743.3,137.5 743.3,136.4 743.3,135.3 743.3,134.2 743.3,133.1 743.3,132.0 743.3,130.9 743.3,129.8 743.3,128.6 743.3,127.5 743.3,126.4 743.3,125.3 743.4,124.2 743.4,123.1 743.4,122.0 743.5,120.9 743.6,119.8 743.7,118.7 743.8,117.6 743.8,116.5 743.8,115.4 743.7,114.3 743.6,113.1 743.5,112.0 743.4,110.9 743.4,109.8 743.4,108.7 743.3,108.7 743.3,109.8 743.2,110.9 743.2,112.0 743.1,113.1 743.0,114.3 742.9,115.4 742.9,116.5 742.9,117.6 743.0,118.7 743.1,119.8 743.2,120.9 743.2,122.0 743.3,123.1 743.3,124.2 743.3,125.3 743.3,126.4 743.3,127.5 743.3,128.6 743.3,129.8 743.3,130.9 743.3,132.0 743.3,133.1 743.3,134.2 743.3,135.3 743.3,136.4 743.3,137.5 743.3,138.6 743.3,139.7 743.3,140.8 743.2,141.9 743.1,143.0 742.8,144.1 742.4,145.2 741.9,146.4 741.2,147.5 740.5,148.6 740.0,149.7 739.6,150.8 739.4,151.9 739.4,153.0 739.3,154.1 739.0,155.2 738.3,156.3 737.2,157.4 736.0,158.5 734.9,159.6 734.0,160.7 733.3,161.9 732.6,163.0 731.6,164.1 729.8,165.2 726.9,166.3 722.6,167.4 717.3,168.5 711.8,169.6 707.4,170.7 705.1,171.8 705.6,172.9 708.9,174.0 714.2,175.1 720.3,176.2 726.3,177.3 731.5,178.5 735.6,179.6 738.6,180.7 740.6,181.8 741.9,182.9 742.6,184.0 743.0,185.1 743.2,186.2 743.3,187.3" fill="#2a8" opacity="0.5" stroke="#2a8" stroke-width="1"/>
<line x1="705.6" y1="171.4023738530756" x2="781.1" y2="171.4023738530756" stroke="#114" stroke-width="2"/>
<circle cx="743.3333333333334" cy="175.77059306399042" r="2.4" fill="#114"/>
<text x="743.3333333333334" y="110.5701226877838" text-anchor="middle" font-size="11">1.23</text>
<text x="743.3333333333334" y="376" text-anchor="middle" font-size="12">gbmvN</text>
<polygon points="834.7,200.8 834.8,200.1 834.9,199.3 835.0,198.5 835.2,197.7 835.4,197.0 835.7,196.2 836.1,195.4 836.7,194.7 837.4,193.9 838.4,193.1 839.7,192.4 841.3,191.6 843.4,190.8 846.0,190.0 849.0,189.3 852.4,188.5 856.0,187.7 859.8,187.0 863.5,186.2 866.8,185.4 869.6,184.6 871.6,183.9 872.6,183.1 872.7,182.3 871.9,181.6 870.2,180.8 867.9,180.0 865.2,179.3 862.2,178.5 859.3,177.7 856.6,176.9 854.1,176.2 852.0,175.4 850.3,174.6 849.0,173.9 848.0,173.1 847.3,172.3 846.8,171.5 846.4,170.8 846.0,170.0 845.7,169.2 845.2,168.5 844.6,167.7 843.9,166.9 843.1,166.2 842.3,165.4 841.4,164.6 840.6,163.8 839.8,163.1 839.3,162.3 838.9,161.5 838.8,160.8 838.9,160.0 839.1,159.2 839.5,158.5 840.1,157.7 840.6,156.9 841.2,156.1 841.6,155.4 841.9,154.6 842.1,153.8 842.0,153.1 841.7,152.3 841.3,151.5 840.6,150.7 839.9,150.0 839.1,149.2 838.3,148.4 837.5,147.7 836.8,146.9 836.2,146.1 832.7,146.1 832.1,146.9 831.4,147.7 830.6,148.4 829.8,149.2 829.0,150.0 828.3,150.7 827.6,151.5 827.2,152.3 826.9,153.1 826.8,153.8 826.9,154.6 827.3,155.4 827.7,156.1 828.3,156.9 828.8,157.7 829.3,158.5 829.8,159.2 830.0,160.0 830.1,160.8 830.0,161.5 829.6,162.3 829.0,163.1 828.3,163.8 827.5,164.6 826.6,165.4 825.8,166.2 825.0,166.9 824.3,167.7 823.7,168.5 823.2,169.2 822.8,170.0 822.5,170.8 822.1,171.5 821.6,172.3 820.9,173.1 819.9,173.9 818.6,174.6 816.9,175.4 814.8,176.2 812.3,176.9 809.6,177.7 806.7,178.5 803.7,179.3 801.0,180.0 798.7,180.8 797.0,181.6 796.2,182.3 796.3,183.1 797.3,183.9 799.3,184.6 802.1,185.4 805.4,186.2 809.1,187.0 812.9,187.7 816.5,188.5 819.9,189.3 822.9,190.0 825.5,190.8 827.6,191.6 829.2,192.4 830.5,193.1 831.5,193.9 832.2,194.7 832.8,195.4 833.2,196.2 833.5,197.0 833.7,197.7 833.9,198.5 834.0,199.3 834.1,200.1 834.2,200.8" fill="#2a8" opacity="0.5" stroke="#2a8" stroke-width="1"/>
<line x1="797.0" y1="181.56181520698186" x2="871.9" y2="181.56181520698186" stroke="#114" stroke-width="2"/>
<circle cx="834.4444444444445" cy="183.96017555846947" r="2.4" fill="#114"/>
<text x="834.4444444444445" y="145.65970893653423" text-anchor="middle" font-size="11">1.17</text>
<text x="834.4444444444445" y="376" text-anchor="middle" font-size="12">sbmv</text>
<text x="450.0" y="428" text-anchor="middle" font-size="11" fill="#666">violin = ratio distribution over sizes · line = median · dark dot = worst size · green = every size ≥ gate</text>
</svg>
