<svg xmlns="http://www.w3.org/2000/svg" width="900" height="440" font-family="sans-serif">
<rect width="900" height="440" fill="white"/>
<text x="450.0" y="28" text-anchor="middle" font-size="18" font-weight="bold">Complex BLAS-2: PureBLAS / OpenBLAS (AVX-512, 1 thread, ComplexF64)</text>
<line x1="60" y1="358.0" x2="880" y2="358.0" stroke="#eee"/>
<text x="52" y="362.0" text-anchor="end" font-size="11" fill="#666">0×</text>
<line x1="60" y1="289.0860402518987" x2="880" y2="289.0860402518987" stroke="#eee"/>
<text x="52" y="293.0860402518987" text-anchor="end" font-size="11" fill="#666">0.5×</text>
<line x1="60" y1="220.17208050379742" x2="880" y2="220.17208050379742" stroke="#eee"/>
<text x="52" y="224.17208050379742" text-anchor="end" font-size="11" fill="#666">1×</text>
<line x1="60" y1="151.25812075569613" x2="880" y2="151.25812075569613" stroke="#eee"/>
<text x="52" y="155.25812075569613" text-anchor="end" font-size="11" fill="#666">1.5×</text>
<line x1="60" y1="220.17208050379742" x2="880" y2="220.17208050379742" stroke="#888" stroke-width="1"/>
<line x1="60" y1="225.68519728364552" x2="880" y2="225.68519728364552" stroke="#d33" stroke-width="1.5" stroke-dasharray="6 4"/>
<text x="880" y="220.68519728364552" text-anchor="end" font-size="11" fill="#d33">0.96× gate</text>
<polygon points="101.7,229.6 101.9,228.6 102.2,227.6 102.5,226.6 102.9,225.6 103.3,224.6 103.7,223.6 104.3,222.7 105.0,221.7 105.8,220.7 106.8,219.7 108.1,218.7 109.8,217.7 111.8,216.7 114.2,215.7 117.0,214.7 120.0,213.7 123.2,212.8 126.4,211.8 129.3,210.8 131.9,209.8 133.8,208.8 135.0,207.8 135.4,206.8 135.1,205.8 134.0,204.8 132.4,203.8 130.4,202.9 128.1,201.9 125.8,200.9 123.5,199.9 121.4,198.9 119.5,197.9 118.0,196.9 116.7,195.9 115.7,194.9 115.1,193.9 114.6,193.0 114.4,192.0 114.3,191.0 114.2,190.0 114.1,189.0 113.8,188.0 113.4,187.0 112.7,186.0 111.8,185.0 110.7,184.0 109.5,183.1 108.2,182.1 107.0,181.1 105.8,180.1 104.9,179.1 104.2,178.1 103.9,177.1 103.8,176.1 104.0,175.1 104.6,174.2 105.4,173.2 106.4,172.2 107.5,171.2 108.6,170.2 109.6,169.2 110.4,168.2 111.0,167.2 111.1,166.2 110.9,165.2 110.3,164.3 109.4,163.3 108.3,162.3 107.2,161.3 106.0,160.3 104.9,159.3 97.1,159.3 96.0,160.3 94.8,161.3 93.7,162.3 92.6,163.3 91.7,164.3 91.1,165.2 90.9,166.2 91.0,167.2 91.6,168.2 92.4,169.2 93.4,170.2 94.5,171.2 95.6,172.2 96.6,173.2 97.4,174.2 98.0,175.1 98.2,176.1 98.1,177.1 97.8,178.1 97.1,179.1 96.2,180.1 95.0,181.1 93.8,182.1 92.5,183.1 91.3,184.0 90.2,185.0 89.3,186.0 88.6,187.0 88.2,188.0 87.9,189.0 87.8,190.0 87.7,191.0 87.6,192.0 87.4,193.0 86.9,193.9 86.3,194.9 85.3,195.9 84.0,196.9 82.5,197.9 80.6,198.9 78.5,199.9 76.2,200.9 73.9,201.9 71.6,202.9 69.6,203.8 68.0,204.8 66.9,205.8 66.6,206.8 67.0,207.8 68.2,208.8 70.1,209.8 72.7,210.8 75.6,211.8 78.8,212.8 82.0,213.7 85.0,214.7 87.8,215.7 90.2,216.7 92.2,217.7 93.9,218.7 95.2,219.7 96.2,220.7 97.0,221.7 97.7,222.7 98.3,223.6 98.7,224.6 99.1,225.6 99.5,226.6 99.8,227.6 100.1,228.6 100.3,229.6" fill="#2a8" opacity="0.5" stroke="#2a8" stroke-width="1"/>
<line x1="68.3" y1="204.57147246197675" x2="133.7" y2="204.57147246197675" stroke="#114" stroke-width="2"/>
<circle cx="101.0" cy="209.69227377300078" r="2.4" fill="#114"/>
<text x="101.0" y="160.3269086886446" text-anchor="middle" font-size="11">1.11</text>
<text x="101.0" y="376" text-anchor="middle" font-size="12">zgemvN</text>
<polygon points="188.0,242.6 189.3,241.5 190.6,240.3 192.0,239.2 193.4,238.1 194.6,237.0 195.6,235.9 196.4,234.7 196.9,233.6 197.2,232.5 197.4,231.4 197.4,230.3 197.5,229.1 197.7,228.0 198.2,226.9 199.1,225.8 200.4,224.7 202.1,223.5 204.2,222.4 206.6,221.3 209.2,220.2 211.6,219.1 213.9,217.9 215.7,216.8 216.9,215.7 217.4,214.6 217.3,213.5 216.4,212.3 214.9,211.2 213.0,210.1 210.9,209.0 208.8,207.9 206.8,206.7 205.0,205.6 203.7,204.5 202.7,203.4 202.1,202.3 201.8,201.1 201.8,200.0 201.9,198.9 202.1,197.8 202.3,196.7 202.4,195.5 202.4,194.4 202.3,193.3 201.9,192.2 201.4,191.0 200.7,189.9 199.7,188.8 198.7,187.7 197.5,186.6 196.2,185.4 195.1,184.3 194.1,183.2 193.2,182.1 192.7,181.0 192.5,179.8 192.6,178.7 193.0,177.6 193.6,176.5 194.2,175.4 194.9,174.2 195.4,173.1 195.7,172.0 195.8,170.9 195.5,169.8 194.8,168.6 193.9,167.5 192.8,166.4 191.5,165.3 190.1,164.2 188.8,163.0 177.2,163.0 175.9,164.2 174.5,165.3 173.2,166.4 172.1,167.5 171.2,168.6 170.5,169.8 170.2,170.9 170.3,172.0 170.6,173.1 171.1,174.2 171.8,175.4 172.4,176.5 173.0,177.6 173.4,178.7 173.5,179.8 173.3,181.0 172.8,182.1 171.9,183.2 170.9,184.3 169.8,185.4 168.5,186.6 167.3,187.7 166.3,188.8 165.3,189.9 164.6,191.0 164.1,192.2 163.7,193.3 163.6,194.4 163.6,195.5 163.7,196.7 163.9,197.8 164.1,198.9 164.2,200.0 164.2,201.1 163.9,202.3 163.3,203.4 162.3,204.5 161.0,205.6 159.2,206.7 157.2,207.9 155.1,209.0 153.0,210.1 151.1,211.2 149.6,212.3 148.7,213.5 148.6,214.6 149.1,215.7 150.3,216.8 152.1,217.9 154.4,219.1 156.8,220.2 159.4,221.3 161.8,222.4 163.9,223.5 165.6,224.7 166.9,225.8 167.8,226.9 168.3,228.0 168.5,229.1 168.6,230.3 168.6,231.4 168.8,232.5 169.1,233.6 169.6,234.7 170.4,235.9 171.4,237.0 172.6,238.1 174.0,239.2 175.4,240.3 176.7,241.5 178.0,242.6" fill="#d33" opacity="0.5" stroke="#d33" stroke-width="1"/>
<line x1="150.1" y1="211.94261157295705" x2="215.9" y2="211.94261157295705" stroke="#114" stroke-width="2"/>
<circle cx="183.0" cy="233.89491869132192" r="2.4" fill="#114"/>
<text x="183.0" y="164.9601663369781" text-anchor="middle" font-size="11">1.06</text>
<text x="183.0" y="376" text-anchor="middle" font-size="12">zgemvT</text>
<polygon points="268.1,240.0 269.1,239.0 270.2,238.0 271.4,237.0 272.7,236.0 274.0,234.9 275.2,233.9 276.3,232.9 277.1,231.9 277.8,230.8 278.2,229.8 278.5,228.8 278.8,227.8 279.0,226.7 279.4,225.7 280.1,224.7 281.2,223.7 282.8,222.6 284.7,221.6 287.1,220.6 289.7,219.6 292.3,218.5 294.8,217.5 297.0,216.5 298.6,215.5 299.4,214.4 299.4,213.4 298.6,212.4 297.1,211.4 294.9,210.3 292.3,209.3 289.5,208.3 286.8,207.3 284.2,206.2 282.1,205.2 280.5,204.2 279.4,203.2 278.9,202.1 278.8,201.1 279.2,200.1 279.8,199.1 280.7,198.0 281.6,197.0 282.4,196.0 283.2,195.0 283.8,193.9 284.2,192.9 284.4,191.9 284.3,190.9 283.9,189.8 283.2,188.8 282.4,187.8 281.4,186.8 280.3,185.8 279.3,184.7 278.5,183.7 277.8,182.7 277.4,181.7 277.2,180.6 277.3,179.6 277.5,178.6 277.7,177.6 277.9,176.5 277.9,175.5 277.7,174.5 277.3,173.5 276.6,172.4 275.6,171.4 274.4,170.4 273.2,169.4 271.9,168.3 270.6,167.3 259.4,167.3 258.1,168.3 256.8,169.4 255.6,170.4 254.4,171.4 253.4,172.4 252.7,173.5 252.3,174.5 252.1,175.5 252.1,176.5 252.3,177.6 252.5,178.6 252.7,179.6 252.8,180.6 252.6,181.7 252.2,182.7 251.5,183.7 250.7,184.7 249.7,185.8 248.6,186.8 247.6,187.8 246.8,188.8 246.1,189.8 245.7,190.9 245.6,191.9 245.8,192.9 246.2,193.9 246.8,195.0 247.6,196.0 248.4,197.0 249.3,198.0 250.2,199.1 250.8,200.1 251.2,201.1 251.1,202.1 250.6,203.2 249.5,204.2 247.9,205.2 245.8,206.2 243.2,207.3 240.5,208.3 237.7,209.3 235.1,210.3 232.9,211.4 231.4,212.4 230.6,213.4 230.6,214.4 231.4,215.5 233.0,216.5 235.2,217.5 237.7,218.5 240.3,219.6 242.9,220.6 245.3,221.6 247.2,222.6 248.8,223.7 249.9,224.7 250.6,225.7 251.0,226.7 251.2,227.8 251.5,228.8 251.8,229.8 252.2,230.8 252.9,231.9 253.7,232.9 254.8,233.9 256.0,234.9 257.3,236.0 258.6,237.0 259.8,238.0 260.9,239.0 261.9,240.0" fill="#d33" opacity="0.5" stroke="#d33" stroke-width="1"/>
<line x1="233.8" y1="210.9163527554506" x2="296.2" y2="210.9163527554506" stroke="#114" stroke-width="2"/>
<circle cx="265.0" cy="229.88695216093242" r="2.4" fill="#114"/>
<text x="265.0" y="168.5727463685036" text-anchor="middle" font-size="11">1.07</text>
<text x="265.0" y="376" text-anchor="middle" font-size="12">zgemvC</text>
<polygon points="347.2,259.5 347.2,257.9 347.4,256.3 347.5,254.6 347.7,253.0 348.0,251.3 348.2,249.7 348.5,248.0 348.8,246.4 349.1,244.8 349.3,243.1 349.6,241.5 349.9,239.8 350.2,238.2 350.6,236.5 351.0,234.9 351.5,233.2 352.1,231.6 352.7,230.0 353.4,228.3 354.2,226.7 354.9,225.0 355.7,223.4 356.5,221.7 357.5,220.1 358.7,218.4 360.3,216.8 362.3,215.2 364.7,213.5 367.7,211.9 370.9,210.2 374.2,208.6 377.2,206.9 379.5,205.3 381.0,203.6 381.4,202.0 380.8,200.4 379.3,198.7 377.2,197.1 374.7,195.4 372.1,193.8 369.6,192.1 367.3,190.5 365.1,188.9 363.0,187.2 360.8,185.6 358.6,183.9 356.5,182.3 354.4,180.6 352.6,179.0 351.1,177.3 350.0,175.7 349.4,174.1 349.2,172.4 349.4,170.8 350.1,169.1 351.0,167.5 352.2,165.8 353.6,164.2 354.8,162.5 355.9,160.9 356.6,159.3 356.8,157.6 356.5,156.0 355.7,154.3 354.6,152.7 353.3,151.0 351.9,149.4 350.7,147.7 349.6,146.1 348.7,144.5 348.1,142.8 345.9,142.8 345.3,144.5 344.4,146.1 343.3,147.7 342.1,149.4 340.7,151.0 339.4,152.7 338.3,154.3 337.5,156.0 337.2,157.6 337.4,159.3 338.1,160.9 339.2,162.5 340.4,164.2 341.8,165.8 343.0,167.5 343.9,169.1 344.6,170.8 344.8,172.4 344.6,174.1 344.0,175.7 342.9,177.3 341.4,179.0 339.6,180.6 337.5,182.3 335.4,183.9 333.2,185.6 331.0,187.2 328.9,188.9 326.7,190.5 324.4,192.1 321.9,193.8 319.3,195.4 316.8,197.1 314.7,198.7 313.2,200.4 312.6,202.0 313.0,203.6 314.5,205.3 316.8,206.9 319.8,208.6 323.1,210.2 326.3,211.9 329.3,213.5 331.7,215.2 333.7,216.8 335.3,218.4 336.5,220.1 337.5,221.7 338.3,223.4 339.1,225.0 339.8,226.7 340.6,228.3 341.3,230.0 341.9,231.6 342.5,233.2 343.0,234.9 343.4,236.5 343.8,238.2 344.1,239.8 344.4,241.5 344.7,243.1 344.9,244.8 345.2,246.4 345.5,248.0 345.8,249.7 346.0,251.3 346.3,253.0 346.5,254.6 346.6,256.3 346.8,257.9 346.8,259.5" fill="#2a8" opacity="0.5" stroke="#2a8" stroke-width="1"/>
<line x1="313.4" y1="200.03616567803292" x2="380.6" y2="200.03616567803292" stroke="#114" stroke-width="2"/>
<circle cx="347.0" cy="224.24633103294627" r="2.4" fill="#114"/>
<text x="347.0" y="148.33319494797348" text-anchor="middle" font-size="11">1.15</text>
<text x="347.0" y="376" text-anchor="middle" font-size="12">zgeru</text>
<polygon points="443.7,243.5 446.3,240.8 449.0,238.1 451.7,235.4 454.4,232.6 456.8,229.9 458.9,227.2 460.7,224.5 462.1,221.7 463.0,219.0 463.4,216.3 463.4,213.6 463.0,210.8 462.3,208.1 461.2,205.4 460.0,202.7 458.5,199.9 456.9,197.2 455.2,194.5 453.4,191.8 451.6,189.0 449.8,186.3 448.1,183.6 446.5,180.8 444.9,178.1 443.6,175.4 442.5,172.7 441.7,169.9 441.3,167.2 441.1,164.5 441.3,161.8 441.8,159.0 442.7,156.3 443.7,153.6 445.0,150.9 446.4,148.1 447.8,145.4 449.3,142.7 450.7,140.0 452.0,137.2 453.1,134.5 454.1,131.8 455.0,129.1 455.8,126.3 456.4,123.6 457.1,120.9 457.6,118.2 458.2,115.4 458.8,112.7 459.4,110.0 460.0,107.2 460.6,104.5 461.2,101.8 461.7,99.1 462.1,96.3 462.3,93.6 462.2,90.9 461.9,88.2 461.3,85.4 460.3,82.7 459.1,80.0 457.5,77.3 455.7,74.5 453.7,71.8 451.5,69.1 449.2,66.4 446.9,63.6 444.6,60.9 442.4,58.2 440.3,55.5 438.4,52.7 436.7,50.0 421.3,50.0 419.6,52.7 417.7,55.5 415.6,58.2 413.4,60.9 411.1,63.6 408.8,66.4 406.5,69.1 404.3,71.8 402.3,74.5 400.5,77.3 398.9,80.0 397.7,82.7 396.7,85.4 396.1,88.2 395.8,90.9 395.7,93.6 395.9,96.3 396.3,99.1 396.8,101.8 397.4,104.5 398.0,107.2 398.6,110.0 399.2,112.7 399.8,115.4 400.4,118.2 400.9,120.9 401.6,123.6 402.2,126.3 403.0,129.1 403.9,131.8 404.9,134.5 406.0,137.2 407.3,140.0 408.7,142.7 410.2,145.4 411.6,148.1 413.0,150.9 414.3,153.6 415.3,156.3 416.2,159.0 416.7,161.8 416.9,164.5 416.7,167.2 416.3,169.9 415.5,172.7 414.4,175.4 413.1,178.1 411.5,180.8 409.9,183.6 408.2,186.3 406.4,189.0 404.6,191.8 402.8,194.5 401.1,197.2 399.5,199.9 398.0,202.7 396.8,205.4 395.7,208.1 395.0,210.8 394.6,213.6 394.6,216.3 395.0,219.0 395.9,221.7 397.3,224.5 399.1,227.2 401.2,229.9 403.6,232.6 406.3,235.4 409.0,238.1 411.7,240.8 414.3,243.5" fill="#2a8" opacity="0.5" stroke="#2a8" stroke-width="1"/>
<line x1="406.1" y1="137.3713260107105" x2="451.9" y2="137.3713260107105" stroke="#114" stroke-width="2"/>
<circle cx="429.0" cy="224.43167886761339" r="2.4" fill="#114"/>
<text x="429.0" y="61.433962264150935" text-anchor="middle" font-size="11">1.60</text>
<text x="429.0" y="376" text-anchor="middle" font-size="12">zhemv</text>
<polygon points="518.5,241.9 520.5,239.9 522.7,237.9 525.1,235.9 527.6,233.9 530.1,231.9 532.5,229.8 534.7,227.8 536.7,225.8 538.4,223.8 539.7,221.8 540.8,219.8 541.6,217.8 542.3,215.8 542.9,213.8 543.4,211.8 543.9,209.8 544.4,207.8 544.9,205.8 545.3,203.7 545.4,201.7 545.4,199.7 545.0,197.7 544.3,195.7 543.3,193.7 542.0,191.7 540.6,189.7 539.2,187.7 537.8,185.7 536.5,183.7 535.3,181.7 534.2,179.6 533.3,177.6 532.4,175.6 531.6,173.6 530.7,171.6 529.9,169.6 529.1,167.6 528.3,165.6 527.6,163.6 526.9,161.6 526.4,159.6 525.9,157.6 525.5,155.6 525.1,153.5 524.8,151.5 524.5,149.5 524.1,147.5 523.7,145.5 523.2,143.5 522.7,141.5 522.3,139.5 521.9,137.5 521.7,135.5 521.7,133.5 521.8,131.5 522.1,129.5 522.5,127.4 523.0,125.4 523.6,123.4 524.0,121.4 524.3,119.4 524.3,117.4 524.1,115.4 523.6,113.4 522.9,111.4 521.9,109.4 520.8,107.4 519.6,105.4 518.3,103.4 517.0,101.3 515.9,99.3 506.1,99.3 505.0,101.3 503.7,103.4 502.4,105.4 501.2,107.4 500.1,109.4 499.1,111.4 498.4,113.4 497.9,115.4 497.7,117.4 497.7,119.4 498.0,121.4 498.4,123.4 499.0,125.4 499.5,127.4 499.9,129.5 500.2,131.5 500.3,133.5 500.3,135.5 500.1,137.5 499.7,139.5 499.3,141.5 498.8,143.5 498.3,145.5 497.9,147.5 497.5,149.5 497.2,151.5 496.9,153.5 496.5,155.6 496.1,157.6 495.6,159.6 495.1,161.6 494.4,163.6 493.7,165.6 492.9,167.6 492.1,169.6 491.3,171.6 490.4,173.6 489.6,175.6 488.7,177.6 487.8,179.6 486.7,181.7 485.5,183.7 484.2,185.7 482.8,187.7 481.4,189.7 480.0,191.7 478.7,193.7 477.7,195.7 477.0,197.7 476.6,199.7 476.6,201.7 476.7,203.7 477.1,205.8 477.6,207.8 478.1,209.8 478.6,211.8 479.1,213.8 479.7,215.8 480.4,217.8 481.2,219.8 482.3,221.8 483.6,223.8 485.3,225.8 487.3,227.8 489.5,229.8 491.9,231.9 494.4,233.9 496.9,235.9 499.3,237.9 501.5,239.9 503.5,241.9" fill="#d33" opacity="0.5" stroke="#d33" stroke-width="1"/>
<line x1="477.1" y1="197.45000567871793" x2="544.9" y2="197.45000567871793" stroke="#114" stroke-width="2"/>
<circle cx="511.0" cy="226.60706506848436" r="2.4" fill="#114"/>
<text x="511.0" y="107.35342780142793" text-anchor="middle" font-size="11">1.16</text>
<text x="511.0" y="376" text-anchor="middle" font-size="12">ztrmv</text>
<polygon points="594.7,246.9 595.4,245.6 596.2,244.3 597.2,243.0 598.4,241.6 599.7,240.3 601.2,239.0 602.8,237.7 604.4,236.4 606.0,235.1 607.5,233.8 609.0,232.5 610.3,231.2 611.6,229.8 612.6,228.5 613.6,227.2 614.4,225.9 615.0,224.6 615.5,223.3 615.8,222.0 615.9,220.7 615.7,219.4 615.3,218.0 614.7,216.7 613.9,215.4 613.2,214.1 612.6,212.8 612.2,211.5 612.3,210.2 612.7,208.9 613.7,207.6 615.1,206.3 616.9,204.9 618.8,203.6 620.9,202.3 622.8,201.0 624.4,199.7 625.8,198.4 626.7,197.1 627.3,195.8 627.4,194.5 627.3,193.1 627.0,191.8 626.6,190.5 626.2,189.2 625.8,187.9 625.5,186.6 625.3,185.3 625.1,184.0 624.9,182.7 624.6,181.3 624.2,180.0 623.7,178.7 623.1,177.4 622.3,176.1 621.5,174.8 620.6,173.5 619.7,172.2 618.8,170.9 617.8,169.5 616.8,168.2 615.7,166.9 614.3,165.6 612.8,164.3 611.0,163.0 609.0,161.7 606.9,160.4 604.8,159.1 602.7,157.8 600.7,156.4 599.0,155.1 597.5,153.8 588.5,153.8 587.0,155.1 585.3,156.4 583.3,157.8 581.2,159.1 579.1,160.4 577.0,161.7 575.0,163.0 573.2,164.3 571.7,165.6 570.3,166.9 569.2,168.2 568.2,169.5 567.2,170.9 566.3,172.2 565.4,173.5 564.5,174.8 563.7,176.1 562.9,177.4 562.3,178.7 561.8,180.0 561.4,181.3 561.1,182.7 560.9,184.0 560.7,185.3 560.5,186.6 560.2,187.9 559.8,189.2 559.4,190.5 559.0,191.8 558.7,193.1 558.6,194.5 558.7,195.8 559.3,197.1 560.2,198.4 561.6,199.7 563.2,201.0 565.1,202.3 567.2,203.6 569.1,204.9 570.9,206.3 572.3,207.6 573.3,208.9 573.7,210.2 573.8,211.5 573.4,212.8 572.8,214.1 572.1,215.4 571.3,216.7 570.7,218.0 570.3,219.4 570.1,220.7 570.2,222.0 570.5,223.3 571.0,224.6 571.6,225.9 572.4,227.2 573.4,228.5 574.4,229.8 575.7,231.2 577.0,232.5 578.5,233.8 580.0,235.1 581.6,236.4 583.2,237.7 584.8,239.0 586.3,240.3 587.6,241.6 588.8,243.0 589.8,244.3 590.6,245.6 591.3,246.9" fill="#d33" opacity="0.5" stroke="#d33" stroke-width="1"/>
<line x1="558.6" y1="194.63707536330008" x2="627.4" y2="194.63707536330008" stroke="#114" stroke-width="2"/>
<circle cx="593.0" cy="229.0884200579291" r="2.4" fill="#114"/>
<text x="593.0" y="157.04740112160644" text-anchor="middle" font-size="11">1.19</text>
<text x="593.0" y="376" text-anchor="middle" font-size="12">ztrsv</text>
<polygon points="683.8,225.1 685.6,223.7 687.6,222.2 689.6,220.8 691.6,219.4 693.5,218.0 695.4,216.6 697.0,215.2 698.4,213.8 699.5,212.4 700.2,211.0 700.7,209.6 700.7,208.2 700.4,206.8 699.7,205.4 698.7,204.0 697.5,202.5 696.1,201.1 694.6,199.7 693.1,198.3 691.7,196.9 690.4,195.5 689.4,194.1 688.8,192.7 688.4,191.3 688.5,189.9 688.9,188.5 689.7,187.1 690.7,185.7 692.0,184.3 693.3,182.8 694.8,181.4 696.2,180.0 697.6,178.6 698.9,177.2 700.0,175.8 700.9,174.4 701.7,173.0 702.4,171.6 703.0,170.2 703.5,168.8 703.9,167.4 704.2,166.0 704.4,164.5 704.6,163.1 704.7,161.7 704.8,160.3 704.8,158.9 704.8,157.5 704.8,156.1 704.9,154.7 705.1,153.3 705.5,151.9 705.9,150.5 706.5,149.1 707.2,147.7 708.0,146.3 708.6,144.8 709.2,143.4 709.4,142.0 709.4,140.6 708.9,139.2 707.9,137.8 706.4,136.4 704.5,135.0 702.2,133.6 699.6,132.2 696.8,130.8 693.9,129.4 691.0,128.0 688.3,126.6 685.9,125.1 664.1,125.1 661.7,126.6 659.0,128.0 656.1,129.4 653.2,130.8 650.4,132.2 647.8,133.6 645.5,135.0 643.6,136.4 642.1,137.8 641.1,139.2 640.6,140.6 640.6,142.0 640.8,143.4 641.4,144.8 642.0,146.3 642.8,147.7 643.5,149.1 644.1,150.5 644.5,151.9 644.9,153.3 645.1,154.7 645.2,156.1 645.2,157.5 645.2,158.9 645.2,160.3 645.3,161.7 645.4,163.1 645.6,164.5 645.8,166.0 646.1,167.4 646.5,168.8 647.0,170.2 647.6,171.6 648.3,173.0 649.1,174.4 650.0,175.8 651.1,177.2 652.4,178.6 653.8,180.0 655.2,181.4 656.7,182.8 658.0,184.3 659.3,185.7 660.3,187.1 661.1,188.5 661.5,189.9 661.6,191.3 661.2,192.7 660.6,194.1 659.6,195.5 658.3,196.9 656.9,198.3 655.4,199.7 653.9,201.1 652.5,202.5 651.3,204.0 650.3,205.4 649.6,206.8 649.3,208.2 649.3,209.6 649.8,211.0 650.5,212.4 651.6,213.8 653.0,215.2 654.6,216.6 656.5,218.0 658.4,219.4 660.4,220.8 662.4,222.2 664.4,223.7 666.2,225.1" fill="#2a8" opacity="0.5" stroke="#2a8" stroke-width="1"/>
<line x1="645.7" y1="165.46935065939712" x2="704.3" y2="165.46935065939712" stroke="#114" stroke-width="2"/>
<circle cx="675.0" cy="214.426644071596" r="2.4" fill="#114"/>
<text x="675.0" y="129.03941656306444" text-anchor="middle" font-size="11">1.40</text>
<text x="675.0" y="376" text-anchor="middle" font-size="12">zhpmv</text>
<polygon points="757.4,201.7 757.6,201.0 757.8,200.2 758.1,199.5 758.4,198.8 758.7,198.1 759.1,197.4 759.5,196.7 759.9,195.9 760.3,195.2 760.9,194.5 761.6,193.8 762.5,193.1 763.8,192.3 765.4,191.6 767.4,190.9 769.9,190.2 772.7,189.5 775.9,188.8 779.3,188.0 782.6,187.3 785.7,186.6 788.3,185.9 790.2,185.2 791.2,184.5 791.4,183.7 790.9,183.0 789.6,182.3 787.9,181.6 786.0,180.9 784.0,180.2 782.2,179.4 780.6,178.7 779.3,178.0 778.2,177.3 777.1,176.6 776.0,175.8 774.7,175.1 773.3,174.4 771.6,173.7 769.9,173.0 768.0,172.3 766.2,171.5 764.5,170.8 763.1,170.1 761.8,169.4 760.8,168.7 760.1,168.0 759.7,167.2 759.5,166.5 759.5,165.8 759.7,165.1 760.0,164.4 760.5,163.6 761.1,162.9 761.7,162.2 762.5,161.5 763.3,160.8 764.0,160.1 764.6,159.3 765.0,158.6 765.2,157.9 765.1,157.2 764.7,156.5 764.0,155.8 763.1,155.0 762.1,154.3 761.1,153.6 760.1,152.9 759.3,152.2 758.6,151.4 758.1,150.7 755.9,150.7 755.4,151.4 754.7,152.2 753.9,152.9 752.9,153.6 751.9,154.3 750.9,155.0 750.0,155.8 749.3,156.5 748.9,157.2 748.8,157.9 749.0,158.6 749.4,159.3 750.0,160.1 750.7,160.8 751.5,161.5 752.3,162.2 752.9,162.9 753.5,163.6 754.0,164.4 754.3,165.1 754.5,165.8 754.5,166.5 754.3,167.2 753.9,168.0 753.2,168.7 752.2,169.4 750.9,170.1 749.5,170.8 747.8,171.5 746.0,172.3 744.1,173.0 742.4,173.7 740.7,174.4 739.3,175.1 738.0,175.8 736.9,176.6 735.8,177.3 734.7,178.0 733.4,178.7 731.8,179.4 730.0,180.2 728.0,180.9 726.1,181.6 724.4,182.3 723.1,183.0 722.6,183.7 722.8,184.5 723.8,185.2 725.7,185.9 728.3,186.6 731.4,187.3 734.7,188.0 738.1,188.8 741.3,189.5 744.1,190.2 746.6,190.9 748.6,191.6 750.2,192.3 751.5,193.1 752.4,193.8 753.1,194.5 753.7,195.2 754.1,195.9 754.5,196.7 754.9,197.4 755.3,198.1 755.6,198.8 755.9,199.5 756.2,200.2 756.4,201.0 756.6,201.7" fill="#2a8" opacity="0.5" stroke="#2a8" stroke-width="1"/>
<line x1="726.5" y1="181.43949822724827" x2="787.5" y2="181.43949822724827" stroke="#114" stroke-width="2"/>
<circle cx="757.0" cy="186.55507126648757" r="2.4" fill="#114"/>
<text x="757.0" y="149.88221803356117" text-anchor="middle" font-size="11">1.28</text>
<text x="757.0" y="376" text-anchor="middle" font-size="12">zgbmvN</text>
<polygon points="839.0,233.1 839.0,232.5 839.0,231.9 839.0,231.3 839.0,230.7 839.1,230.1 839.1,229.5 839.2,228.9 839.2,228.3 839.1,227.7 839.0,227.1 839.0,226.5 839.0,225.9 839.0,225.3 839.1,224.7 839.2,224.1 839.2,223.5 839.1,223.0 839.0,222.4 839.0,221.8 839.0,221.2 839.0,220.6 839.0,220.0 839.0,219.4 839.0,218.8 839.0,218.2 839.0,217.6 839.0,217.0 839.0,216.4 839.0,215.8 839.0,215.2 839.0,214.6 839.0,214.0 839.0,213.4 839.0,212.8 839.2,212.2 839.4,211.6 839.6,211.0 839.6,210.4 839.8,209.8 841.2,209.2 845.6,208.6 853.3,208.0 862.1,207.4 869.3,206.8 873.4,206.2 872.3,205.6 865.7,205.0 857.8,204.4 852.5,203.8 849.5,203.2 846.8,202.6 843.8,202.0 841.6,201.4 840.6,200.8 840.3,200.2 840.0,199.6 839.7,199.0 839.4,198.4 839.3,197.8 839.3,197.3 839.3,196.7 839.3,196.1 839.3,195.5 839.2,194.9 839.1,194.3 839.1,193.7 839.0,193.1 839.0,192.5 839.0,191.9 839.0,191.3 839.0,190.7 839.0,190.7 839.0,191.3 839.0,191.9 839.0,192.5 839.0,193.1 838.9,193.7 838.9,194.3 838.8,194.9 838.7,195.5 838.7,196.1 838.7,196.7 838.7,197.3 838.7,197.8 838.6,198.4 838.3,199.0 838.0,199.6 837.7,200.2 837.4,200.8 836.4,201.4 834.2,202.0 831.2,202.6 828.5,203.2 825.5,203.8 820.2,204.4 812.3,205.0 805.7,205.6 804.6,206.2 808.7,206.8 815.9,207.4 824.7,208.0 832.4,208.6 836.8,209.2 838.2,209.8 838.4,210.4 838.4,211.0 838.6,211.6 838.8,212.2 839.0,212.8 839.0,213.4 839.0,214.0 839.0,214.6 839.0,215.2 839.0,215.8 839.0,216.4 839.0,217.0 839.0,217.6 839.0,218.2 839.0,218.8 839.0,219.4 839.0,220.0 839.0,220.6 839.0,221.2 839.0,221.8 839.0,222.4 838.9,223.0 838.8,223.5 838.8,224.1 838.9,224.7 839.0,225.3 839.0,225.9 839.0,226.5 839.0,227.1 838.9,227.7 838.8,228.3 838.8,228.9 838.9,229.5 838.9,230.1 839.0,230.7 839.0,231.3 839.0,231.9 839.0,232.5 839.0,233.1" fill="#2a8" opacity="0.5" stroke="#2a8" stroke-width="1"/>
<line x1="804.4" y1="205.8918079793522" x2="873.6" y2="205.8918079793522" stroke="#114" stroke-width="2"/>
<circle cx="839.0" cy="207.41854184766763" r="2.4" fill="#114"/>
<text x="839.0" y="189.0051582102251" text-anchor="middle" font-size="11">1.10</text>
<text x="839.0" y="376" text-anchor="middle" font-size="12">zhbmv</text>
<text x="450.0" y="428" text-anchor="middle" font-size="11" fill="#666">violin = ratio distribution over sizes · line = median · dark dot = worst size · green = every size ≥ gate</text>
</svg>
