<svg xmlns="http://www.w3.org/2000/svg" width="900" height="440" font-family="sans-serif">
<rect width="900" height="440" fill="white"/>
<text x="450.0" y="28" text-anchor="middle" font-size="18" font-weight="bold">Complex BLAS-1: PureBLAS / OpenBLAS (AVX-512 native (Zen5), 1 thread, ComplexF64)</text>
<line x1="60" y1="358.0" x2="880" y2="358.0" stroke="#eee"/>
<text x="52" y="362.0" text-anchor="end" font-size="11" fill="#666">0×</text>
<line x1="60" y1="348.51319289397696" x2="880" y2="348.51319289397696" stroke="#eee"/>
<text x="52" y="352.51319289397696" text-anchor="end" font-size="11" fill="#666">0.5×</text>
<line x1="60" y1="339.0263857879539" x2="880" y2="339.0263857879539" stroke="#eee"/>
<text x="52" y="343.0263857879539" text-anchor="end" font-size="11" fill="#666">1×</text>
<line x1="60" y1="329.53957868193083" x2="880" y2="329.53957868193083" stroke="#eee"/>
<text x="52" y="333.53957868193083" text-anchor="end" font-size="11" fill="#666">1.5×</text>
<line x1="60" y1="339.0263857879539" x2="880" y2="339.0263857879539" stroke="#888" stroke-width="1"/>
<line x1="60" y1="339.78533035643574" x2="880" y2="339.78533035643574" stroke="#d33" stroke-width="1.5" stroke-dasharray="6 4"/>
<text x="880" y="334.78533035643574" text-anchor="end" font-size="11" fill="#d33">0.96× gate</text>
<polygon points="150.4,342.2 152.7,342.0 155.4,341.9 158.4,341.8 161.8,341.6 165.4,341.5 169.2,341.3 173.0,341.2 176.9,341.1 180.6,340.9 184.3,340.8 187.7,340.6 190.9,340.5 193.9,340.4 196.7,340.2 199.3,340.1 201.7,340.0 203.9,339.8 205.9,339.7 207.6,339.5 209.0,339.4 210.1,339.3 210.7,339.1 210.9,339.0 210.5,338.8 209.7,338.7 208.4,338.6 206.8,338.4 204.8,338.3 202.7,338.2 200.5,338.0 198.2,337.9 196.1,337.7 194.0,337.6 192.2,337.5 190.5,337.3 189.0,337.2 187.6,337.0 186.2,336.9 184.9,336.8 183.5,336.6 182.1,336.5 180.5,336.4 178.9,336.2 177.2,336.1 175.5,335.9 173.8,335.8 172.2,335.7 170.8,335.5 169.6,335.4 168.7,335.2 168.1,335.1 167.8,335.0 167.7,334.8 167.8,334.7 168.1,334.6 168.4,334.4 168.8,334.3 168.9,334.1 168.9,334.0 168.7,333.9 168.1,333.7 167.2,333.6 165.9,333.4 164.3,333.3 162.5,333.2 160.4,333.0 158.3,332.9 156.1,332.8 153.9,332.6 151.9,332.5 150.1,332.3 133.9,332.3 132.1,332.5 130.1,332.6 127.9,332.8 125.7,332.9 123.6,333.0 121.5,333.2 119.7,333.3 118.1,333.4 116.8,333.6 115.9,333.7 115.3,333.9 115.1,334.0 115.1,334.1 115.2,334.3 115.6,334.4 115.9,334.6 116.2,334.7 116.3,334.8 116.2,335.0 115.9,335.1 115.3,335.2 114.4,335.4 113.2,335.5 111.8,335.7 110.2,335.8 108.5,335.9 106.8,336.1 105.1,336.2 103.5,336.4 101.9,336.5 100.5,336.6 99.1,336.8 97.8,336.9 96.4,337.0 95.0,337.2 93.5,337.3 91.8,337.5 90.0,337.6 87.9,337.7 85.8,337.9 83.5,338.0 81.3,338.2 79.2,338.3 77.2,338.4 75.6,338.6 74.3,338.7 73.5,338.8 73.1,339.0 73.3,339.1 73.9,339.3 75.0,339.4 76.4,339.5 78.1,339.7 80.1,339.8 82.3,340.0 84.7,340.1 87.3,340.2 90.1,340.4 93.1,340.5 96.3,340.6 99.7,340.8 103.4,340.9 107.1,341.1 111.0,341.2 114.8,341.3 118.6,341.5 122.2,341.6 125.6,341.8 128.6,341.9 131.3,342.0 133.6,342.2" fill="#d33" opacity="0.5" stroke="#d33" stroke-width="1"/>
<line x1="78.9" y1="338.304682403464" x2="205.1" y2="338.304682403464" stroke="#114" stroke-width="2"/>
<circle cx="142.0" cy="340.5083944893961" r="2.4" fill="#114"/>
<text x="142.0" y="327.31724292662045" text-anchor="middle" font-size="11">1.04</text>
<text x="142.0" y="376" text-anchor="middle" font-size="12">zaxpy</text>
<polygon points="309.3,340.7 310.5,340.6 312.0,340.5 313.8,340.3 316.0,340.2 318.5,340.1 321.5,339.9 324.7,339.8 328.3,339.7 332.2,339.5 336.3,339.4 340.6,339.3 345.0,339.1 349.6,339.0 354.1,338.9 358.6,338.7 362.8,338.6 366.7,338.5 370.0,338.3 372.6,338.2 374.3,338.1 374.9,337.9 374.4,337.8 372.7,337.7 369.8,337.6 366.0,337.4 361.3,337.3 356.1,337.2 350.5,337.0 344.8,336.9 339.2,336.8 334.1,336.6 329.4,336.5 325.4,336.4 321.9,336.2 319.1,336.1 317.0,336.0 315.3,335.8 314.1,335.7 313.3,335.6 312.8,335.4 312.5,335.3 312.4,335.2 312.5,335.0 312.7,334.9 313.1,334.8 313.5,334.6 314.0,334.5 314.6,334.4 315.4,334.2 316.2,334.1 317.2,334.0 318.1,333.8 319.1,333.7 320.0,333.6 320.8,333.4 321.5,333.3 321.8,333.2 321.9,333.0 321.7,332.9 321.1,332.8 320.2,332.6 319.1,332.5 317.8,332.4 316.4,332.2 314.9,332.1 313.5,332.0 312.2,331.8 310.9,331.7 309.9,331.6 308.9,331.4 308.2,331.3 303.8,331.3 303.1,331.4 302.1,331.6 301.1,331.7 299.8,331.8 298.5,332.0 297.1,332.1 295.6,332.2 294.2,332.4 292.9,332.5 291.8,332.6 290.9,332.8 290.3,332.9 290.1,333.0 290.2,333.2 290.5,333.3 291.2,333.4 292.0,333.6 292.9,333.7 293.9,333.8 294.8,334.0 295.8,334.1 296.6,334.2 297.4,334.4 298.0,334.5 298.5,334.6 298.9,334.8 299.3,334.9 299.5,335.0 299.6,335.2 299.5,335.3 299.2,335.4 298.7,335.6 297.9,335.7 296.7,335.8 295.0,336.0 292.9,336.1 290.1,336.2 286.6,336.4 282.6,336.5 277.9,336.6 272.8,336.8 267.2,336.9 261.5,337.0 255.9,337.2 250.7,337.3 246.0,337.4 242.2,337.6 239.3,337.7 237.6,337.8 237.1,337.9 237.7,338.1 239.4,338.2 242.0,338.3 245.3,338.5 249.2,338.6 253.4,338.7 257.9,338.9 262.4,339.0 267.0,339.1 271.4,339.3 275.7,339.4 279.8,339.5 283.7,339.7 287.3,339.8 290.5,339.9 293.5,340.1 296.0,340.2 298.2,340.3 300.0,340.5 301.5,340.6 302.7,340.7" fill="#2a8" opacity="0.5" stroke="#2a8" stroke-width="1"/>
<line x1="239.2" y1="337.6927246070103" x2="372.8" y2="337.6927246070103" stroke="#114" stroke-width="2"/>
<circle cx="306.0" cy="339.2796127876104" r="2.4" fill="#114"/>
<text x="306.0" y="326.2510928656118" text-anchor="middle" font-size="11">1.07</text>
<text x="306.0" y="376" text-anchor="middle" font-size="12">zdotc</text>
<polygon points="477.4,340.6 480.6,340.5 484.8,340.3 490.0,340.2 496.1,340.0 503.0,339.9 510.4,339.7 517.8,339.6 524.7,339.4 530.8,339.3 535.3,339.1 538.1,339.0 538.9,338.8 537.6,338.7 534.4,338.5 529.7,338.4 523.8,338.2 517.2,338.1 510.3,337.9 503.6,337.8 497.4,337.6 491.9,337.5 487.2,337.3 483.4,337.2 480.3,337.0 477.9,336.9 476.2,336.8 474.9,336.6 473.9,336.5 473.2,336.3 472.7,336.2 472.3,336.0 472.0,335.9 471.7,335.7 471.5,335.6 471.3,335.4 471.1,335.3 471.0,335.1 471.0,335.0 471.0,334.8 471.2,334.7 471.3,334.5 471.6,334.4 471.9,334.2 472.3,334.1 472.7,333.9 473.1,333.8 473.6,333.6 474.0,333.5 474.5,333.3 474.9,333.2 475.2,333.0 475.5,332.9 475.8,332.8 475.9,332.6 475.9,332.5 475.9,332.3 475.8,332.2 475.6,332.0 475.3,331.9 474.9,331.7 474.5,331.6 474.0,331.4 473.5,331.3 473.1,331.1 472.6,331.0 472.1,330.8 471.7,330.7 471.3,330.5 471.0,330.4 470.8,330.2 470.5,330.1 469.5,330.1 469.2,330.2 469.0,330.4 468.7,330.5 468.3,330.7 467.9,330.8 467.4,331.0 466.9,331.1 466.5,331.3 466.0,331.4 465.5,331.6 465.1,331.7 464.7,331.9 464.4,332.0 464.2,332.2 464.1,332.3 464.1,332.5 464.1,332.6 464.2,332.8 464.5,332.9 464.8,333.0 465.1,333.2 465.5,333.3 466.0,333.5 466.4,333.6 466.9,333.8 467.3,333.9 467.7,334.1 468.1,334.2 468.4,334.4 468.7,334.5 468.8,334.7 469.0,334.8 469.0,335.0 469.0,335.1 468.9,335.3 468.7,335.4 468.5,335.6 468.3,335.7 468.0,335.9 467.7,336.0 467.3,336.2 466.8,336.3 466.1,336.5 465.1,336.6 463.8,336.8 462.1,336.9 459.7,337.0 456.6,337.2 452.8,337.3 448.1,337.5 442.6,337.6 436.4,337.8 429.7,337.9 422.8,338.1 416.2,338.2 410.3,338.4 405.6,338.5 402.4,338.7 401.1,338.8 401.9,339.0 404.7,339.1 409.2,339.3 415.3,339.4 422.2,339.6 429.6,339.7 437.0,339.9 443.9,340.0 450.0,340.2 455.2,340.3 459.4,340.5 462.6,340.6" fill="#2a8" opacity="0.5" stroke="#2a8" stroke-width="1"/>
<line x1="401.3" y1="338.9120634346259" x2="538.7" y2="338.9120634346259" stroke="#114" stroke-width="2"/>
<circle cx="470.0" cy="339.0239602677402" r="2.4" fill="#114"/>
<text x="470.0" y="325.13455956358473" text-anchor="middle" font-size="11">1.01</text>
<text x="470.0" y="376" text-anchor="middle" font-size="12">zscal</text>
<polygon points="659.0,282.8 662.9,279.5 666.9,276.3 671.1,273.0 675.3,269.7 679.5,266.4 683.6,263.1 687.4,259.9 690.9,256.6 694.0,253.3 696.5,250.0 698.5,246.7 699.8,243.5 700.4,240.2 700.3,236.9 699.6,233.6 698.2,230.4 696.3,227.1 693.9,223.8 691.0,220.5 687.8,217.2 684.4,214.0 680.9,210.7 677.5,207.4 674.1,204.1 671.0,200.8 668.1,197.6 665.6,194.3 663.5,191.0 661.8,187.7 660.5,184.4 659.7,181.2 659.3,177.9 659.3,174.6 659.7,171.3 660.4,168.0 661.3,164.8 662.4,161.5 663.7,158.2 665.0,154.9 666.5,151.7 668.0,148.4 669.5,145.1 671.1,141.8 672.8,138.5 674.5,135.3 676.3,132.0 678.3,128.7 680.4,125.4 682.6,122.1 684.9,118.9 687.3,115.6 689.8,112.3 692.3,109.0 694.7,105.7 697.0,102.5 699.0,99.2 700.7,95.9 702.0,92.6 702.7,89.3 702.9,86.1 702.4,82.8 701.4,79.5 699.7,76.2 697.4,73.0 694.6,69.7 691.3,66.4 687.5,63.1 683.5,59.8 679.3,56.6 675.0,53.3 670.7,50.0 597.3,50.0 593.0,53.3 588.7,56.6 584.5,59.8 580.5,63.1 576.7,66.4 573.4,69.7 570.6,73.0 568.3,76.2 566.6,79.5 565.6,82.8 565.1,86.1 565.3,89.3 566.0,92.6 567.3,95.9 569.0,99.2 571.0,102.5 573.3,105.7 575.7,109.0 578.2,112.3 580.7,115.6 583.1,118.9 585.4,122.1 587.6,125.4 589.7,128.7 591.7,132.0 593.5,135.3 595.2,138.5 596.9,141.8 598.5,145.1 600.0,148.4 601.5,151.7 603.0,154.9 604.3,158.2 605.6,161.5 606.7,164.8 607.6,168.0 608.3,171.3 608.7,174.6 608.7,177.9 608.3,181.2 607.5,184.4 606.2,187.7 604.5,191.0 602.4,194.3 599.9,197.6 597.0,200.8 593.9,204.1 590.5,207.4 587.1,210.7 583.6,214.0 580.2,217.2 577.0,220.5 574.1,223.8 571.7,227.1 569.8,230.4 568.4,233.6 567.7,236.9 567.6,240.2 568.2,243.5 569.5,246.7 571.5,250.0 574.0,253.3 577.1,256.6 580.6,259.9 584.4,263.1 588.5,266.4 592.7,269.7 596.9,273.0 601.1,276.3 605.1,279.5 609.0,282.8" fill="#2a8" opacity="0.5" stroke="#2a8" stroke-width="1"/>
<line x1="598.1" y1="144.25578788204223" x2="669.9" y2="144.25578788204223" stroke="#114" stroke-width="2"/>
<circle cx="634.0" cy="250.38064626636825" r="2.4" fill="#114"/>
<text x="634.0" y="61.43396226415098" text-anchor="middle" font-size="11">11.27</text>
<text x="634.0" y="376" text-anchor="middle" font-size="12">dznrm2</text>
<polygon points="800.0,342.5 800.8,342.3 802.0,342.1 803.6,341.8 805.6,341.6 808.2,341.3 811.3,341.1 815.1,340.9 819.6,340.6 824.7,340.4 830.4,340.2 836.5,339.9 842.8,339.7 849.0,339.4 854.8,339.2 859.8,339.0 863.6,338.7 866.1,338.5 866.9,338.3 865.9,338.0 863.3,337.8 859.1,337.5 853.7,337.3 847.4,337.1 840.7,336.8 833.9,336.6 827.4,336.4 821.4,336.1 816.2,335.9 811.9,335.6 808.3,335.4 805.6,335.2 803.6,334.9 802.1,334.7 801.1,334.5 800.4,334.2 799.9,334.0 799.6,333.7 799.4,333.5 799.3,333.3 799.3,333.0 799.3,332.8 799.4,332.6 799.6,332.3 799.9,332.1 800.3,331.8 800.9,331.6 801.5,331.4 802.2,331.1 803.0,330.9 803.8,330.6 804.6,330.4 805.4,330.2 806.1,329.9 806.7,329.7 807.1,329.5 807.3,329.2 807.3,329.0 807.1,328.7 806.7,328.5 806.2,328.3 805.4,328.0 804.6,327.8 803.8,327.6 802.9,327.3 802.1,327.1 801.3,326.8 800.6,326.6 800.0,326.4 799.5,326.1 799.1,325.9 798.8,325.7 797.2,325.7 796.9,325.9 796.5,326.1 796.0,326.4 795.4,326.6 794.7,326.8 793.9,327.1 793.1,327.3 792.2,327.6 791.4,327.8 790.6,328.0 789.8,328.3 789.3,328.5 788.9,328.7 788.7,329.0 788.7,329.2 788.9,329.5 789.3,329.7 789.9,329.9 790.6,330.2 791.4,330.4 792.2,330.6 793.0,330.9 793.8,331.1 794.5,331.4 795.1,331.6 795.7,331.8 796.1,332.1 796.4,332.3 796.6,332.6 796.7,332.8 796.7,333.0 796.7,333.3 796.6,333.5 796.4,333.7 796.1,334.0 795.6,334.2 794.9,334.5 793.9,334.7 792.4,334.9 790.4,335.2 787.7,335.4 784.1,335.6 779.8,335.9 774.6,336.1 768.6,336.4 762.1,336.6 755.3,336.8 748.6,337.1 742.3,337.3 736.9,337.5 732.7,337.8 730.1,338.0 729.1,338.3 729.9,338.5 732.4,338.7 736.2,339.0 741.2,339.2 747.0,339.4 753.2,339.7 759.5,339.9 765.6,340.2 771.3,340.4 776.4,340.6 780.9,340.9 784.7,341.1 787.8,341.3 790.4,341.6 792.4,341.8 794.0,342.1 795.2,342.3 796.0,342.5" fill="#2a8" opacity="0.5" stroke="#2a8" stroke-width="1"/>
<line x1="729.1" y1="338.22693417485175" x2="866.9" y2="338.22693417485175" stroke="#114" stroke-width="2"/>
<circle cx="798.0" cy="339.36857822880387" r="2.4" fill="#114"/>
<text x="798.0" y="321.3215126894763" text-anchor="middle" font-size="11">1.04</text>
<text x="798.0" y="376" text-anchor="middle" font-size="12">dzasum</text>
<text x="450.0" y="428" text-anchor="middle" font-size="11" fill="#666">violin = ratio distribution over sizes · line = median · dark dot = worst size · green = every size ≥ gate</text>
</svg>
