<svg xmlns="http://www.w3.org/2000/svg" width="900" height="440" font-family="sans-serif">
<rect width="900" height="440" fill="white"/>
<text x="450.0" y="28" text-anchor="middle" font-size="18" font-weight="bold">BLAS-2: PureBLAS / OpenBLAS (AVX2, 1 thread, Float64)</text>
<line x1="60" y1="358.0" x2="880" y2="358.0" stroke="#eee"/>
<text x="52" y="362.0" text-anchor="end" font-size="11" fill="#666">0×</text>
<line x1="60" y1="296.86950478208166" x2="880" y2="296.86950478208166" stroke="#eee"/>
<text x="52" y="300.86950478208166" text-anchor="end" font-size="11" fill="#666">0.5×</text>
<line x1="60" y1="235.73900956416324" x2="880" y2="235.73900956416324" stroke="#eee"/>
<text x="52" y="239.73900956416324" text-anchor="end" font-size="11" fill="#666">1×</text>
<line x1="60" y1="174.6085143462449" x2="880" y2="174.6085143462449" stroke="#eee"/>
<text x="52" y="178.6085143462449" text-anchor="end" font-size="11" fill="#666">1.5×</text>
<line x1="60" y1="235.73900956416324" x2="880" y2="235.73900956416324" stroke="#888" stroke-width="1"/>
<line x1="60" y1="240.62944918159675" x2="880" y2="240.62944918159675" stroke="#d33" stroke-width="1.5" stroke-dasharray="6 4"/>
<text x="880" y="235.62944918159675" text-anchor="end" font-size="11" fill="#d33">0.96× gate</text>
<polygon points="105.6,263.2 105.7,262.0 105.9,260.8 106.2,259.6 106.7,258.4 107.4,257.2 108.3,256.0 109.4,254.8 111.0,253.6 112.9,252.4 115.4,251.2 118.6,250.0 122.5,248.8 126.8,247.6 131.2,246.4 135.2,245.2 138.3,244.0 140.3,242.8 141.2,241.6 141.4,240.4 141.4,239.2 141.4,238.0 141.9,236.8 142.7,235.6 143.5,234.4 143.8,233.2 143.1,232.0 141.1,230.8 137.9,229.6 133.9,228.4 130.0,227.2 126.6,226.0 123.9,224.8 122.1,223.6 120.6,222.4 119.2,221.2 117.6,220.0 115.6,218.9 113.4,217.7 111.3,216.5 109.5,215.3 108.0,214.1 106.9,212.9 106.3,211.7 105.9,210.5 105.7,209.3 105.6,208.1 105.6,206.9 105.6,205.7 105.6,204.5 105.6,203.3 105.6,202.1 105.6,200.9 105.6,199.7 105.6,198.5 105.6,197.3 105.6,196.1 105.6,194.9 105.7,193.7 105.8,192.5 105.9,191.3 106.0,190.1 106.2,188.9 106.3,187.7 106.3,186.5 106.3,185.3 106.1,184.1 106.0,182.9 105.9,181.7 105.7,180.5 105.7,179.3 105.6,178.1 105.5,178.1 105.5,179.3 105.4,180.5 105.2,181.7 105.1,182.9 105.0,184.1 104.9,185.3 104.8,186.5 104.9,187.7 105.0,188.9 105.1,190.1 105.2,191.3 105.4,192.5 105.4,193.7 105.5,194.9 105.5,196.1 105.5,197.3 105.6,198.5 105.6,199.7 105.6,200.9 105.6,202.1 105.6,203.3 105.6,204.5 105.5,205.7 105.5,206.9 105.5,208.1 105.4,209.3 105.2,210.5 104.8,211.7 104.2,212.9 103.1,214.1 101.7,215.3 99.8,216.5 97.7,217.7 95.5,218.9 93.5,220.0 91.9,221.2 90.5,222.4 89.0,223.6 87.2,224.8 84.6,226.0 81.1,227.2 77.2,228.4 73.3,229.6 70.1,230.8 68.0,232.0 67.3,233.2 67.6,234.4 68.4,235.6 69.2,236.8 69.7,238.0 69.7,239.2 69.7,240.4 69.9,241.6 70.8,242.8 72.8,244.0 75.9,245.2 79.9,246.4 84.3,247.6 88.6,248.8 92.5,250.0 95.7,251.2 98.2,252.4 100.2,253.6 101.7,254.8 102.8,256.0 103.7,257.2 104.4,258.4 104.9,259.6 105.2,260.8 105.4,262.0 105.5,263.2" fill="#d33" opacity="0.5" stroke="#d33" stroke-width="1"/>
<line x1="68.4" y1="235.5803870204883" x2="142.8" y2="235.5803870204883" stroke="#114" stroke-width="2"/>
<circle cx="105.55555555555556" cy="243.0600413989487" r="2.4" fill="#114"/>
<text x="105.55555555555556" y="180.55092724704724" text-anchor="middle" font-size="11">1.00</text>
<text x="105.55555555555556" y="376" text-anchor="middle" font-size="12">gemvN</text>
<polygon points="197.1,241.6 197.3,241.3 197.5,241.0 197.8,240.6 198.0,240.3 198.3,240.0 198.5,239.6 198.8,239.3 199.0,239.0 199.3,238.7 199.7,238.3 200.3,238.0 201.0,237.7 202.1,237.3 203.5,237.0 205.4,236.7 207.9,236.4 210.8,236.0 214.1,235.7 217.8,235.4 221.6,235.0 225.2,234.7 228.5,234.4 231.2,234.1 233.2,233.7 234.4,233.4 234.9,233.1 234.8,232.7 234.3,232.4 233.6,232.1 232.9,231.8 232.2,231.4 231.5,231.1 230.8,230.8 230.2,230.5 229.4,230.1 228.5,229.8 227.5,229.5 226.5,229.1 225.7,228.8 225.2,228.5 225.2,228.2 225.6,227.8 226.5,227.5 227.7,227.2 229.0,226.8 230.3,226.5 231.2,226.2 231.5,225.9 231.1,225.5 229.9,225.2 228.0,224.9 225.5,224.5 222.6,224.2 219.5,223.9 216.4,223.6 213.5,223.2 210.9,222.9 208.6,222.6 206.6,222.2 204.9,221.9 203.5,221.6 202.3,221.3 201.3,220.9 200.4,220.6 199.6,220.3 198.9,219.9 198.4,219.6 197.9,219.3 197.6,219.0 197.3,218.6 197.1,218.3 196.2,218.3 196.0,218.6 195.8,219.0 195.4,219.3 195.0,219.6 194.4,219.9 193.7,220.3 193.0,220.6 192.1,220.9 191.0,221.3 189.8,221.6 188.4,221.9 186.7,222.2 184.8,222.6 182.5,222.9 179.8,223.2 176.9,223.6 173.8,223.9 170.7,224.2 167.8,224.5 165.3,224.9 163.4,225.2 162.2,225.5 161.8,225.9 162.2,226.2 163.0,226.5 164.3,226.8 165.6,227.2 166.9,227.5 167.7,227.8 168.2,228.2 168.1,228.5 167.6,228.8 166.8,229.1 165.9,229.5 164.9,229.8 164.0,230.1 163.2,230.5 162.5,230.8 161.8,231.1 161.2,231.4 160.5,231.8 159.7,232.1 159.0,232.4 158.5,232.7 158.4,233.1 158.9,233.4 160.1,233.7 162.1,234.1 164.8,234.4 168.1,234.7 171.7,235.0 175.5,235.4 179.2,235.7 182.6,236.0 185.5,236.4 187.9,236.7 189.8,237.0 191.3,237.3 192.3,237.7 193.1,238.0 193.6,238.3 194.0,238.7 194.3,239.0 194.6,239.3 194.8,239.6 195.1,240.0 195.3,240.3 195.6,240.6 195.8,241.0 196.0,241.3 196.2,241.6" fill="#2a8" opacity="0.5" stroke="#2a8" stroke-width="1"/>
<line x1="164.4" y1="229.9795962199029" x2="229.0" y2="229.9795962199029" stroke="#114" stroke-width="2"/>
<circle cx="196.66666666666669" cy="233.86640119206254" r="2.4" fill="#114"/>
<text x="196.66666666666669" y="214.74898646845332" text-anchor="middle" font-size="11">1.05</text>
<text x="196.66666666666669" y="376" text-anchor="middle" font-size="12">gemvT</text>
<polygon points="291.3,246.8 292.5,246.0 294.1,245.3 296.1,244.5 298.4,243.8 301.0,243.0 304.0,242.2 307.2,241.5 310.5,240.7 313.8,239.9 317.0,239.2 319.8,238.4 322.3,237.6 324.2,236.9 325.5,236.1 326.0,235.4 325.9,234.6 325.0,233.8 323.5,233.1 321.5,232.3 319.1,231.5 316.3,230.8 313.4,230.0 310.4,229.2 307.4,228.5 304.6,227.7 302.0,227.0 299.6,226.2 297.4,225.4 295.5,224.7 293.9,223.9 292.6,223.1 291.4,222.4 290.6,221.6 289.8,220.8 289.3,220.1 288.9,219.3 288.6,218.6 288.3,217.8 288.2,217.0 288.1,216.3 288.1,215.5 288.1,214.7 288.1,214.0 288.2,213.2 288.4,212.4 288.6,211.7 288.9,210.9 289.2,210.2 289.6,209.4 290.0,208.6 290.6,207.9 291.1,207.1 291.8,206.3 292.4,205.6 293.0,204.8 293.6,204.0 294.1,203.3 294.4,202.5 294.7,201.7 294.8,201.0 294.7,200.2 294.5,199.5 294.2,198.7 293.7,197.9 293.1,197.2 292.5,196.4 291.9,195.6 291.2,194.9 290.6,194.1 290.1,193.3 289.6,192.6 286.0,192.6 285.5,193.3 284.9,194.1 284.3,194.9 283.7,195.6 283.0,196.4 282.4,197.2 281.8,197.9 281.4,198.7 281.0,199.5 280.8,200.2 280.8,201.0 280.9,201.7 281.1,202.5 281.5,203.3 282.0,204.0 282.6,204.8 283.2,205.6 283.8,206.3 284.4,207.1 285.0,207.9 285.5,208.6 286.0,209.4 286.4,210.2 286.7,210.9 287.0,211.7 287.2,212.4 287.3,213.2 287.4,214.0 287.5,214.7 287.5,215.5 287.4,216.3 287.4,217.0 287.2,217.8 287.0,218.6 286.7,219.3 286.3,220.1 285.7,220.8 285.0,221.6 284.1,222.4 283.0,223.1 281.6,223.9 280.0,224.7 278.2,225.4 276.0,226.2 273.6,227.0 270.9,227.7 268.1,228.5 265.2,229.2 262.2,230.0 259.2,230.8 256.5,231.5 254.0,232.3 252.0,233.1 250.5,233.8 249.7,234.6 249.5,235.4 250.1,236.1 251.3,236.9 253.2,237.6 255.7,238.4 258.6,239.2 261.8,239.9 265.1,240.7 268.4,241.5 271.6,242.2 274.5,243.0 277.2,243.8 279.5,244.5 281.4,245.3 283.0,246.0 284.3,246.8" fill="#2a8" opacity="0.5" stroke="#2a8" stroke-width="1"/>
<line x1="249.5" y1="235.17511792546082" x2="326.1" y2="235.17511792546082" stroke="#114" stroke-width="2"/>
<circle cx="287.77777777777777" cy="237.33223405427503" r="2.4" fill="#114"/>
<text x="287.77777777777777" y="192.02848795614054" text-anchor="middle" font-size="11">1.00</text>
<text x="287.77777777777777" y="376" text-anchor="middle" font-size="12">ger</text>
<polygon points="381.4,249.5 382.4,248.4 383.6,247.3 385.1,246.1 387.0,245.0 389.3,243.9 391.9,242.8 394.8,241.7 398.0,240.6 401.3,239.4 404.7,238.3 407.9,237.2 410.8,236.1 413.3,235.0 415.3,233.9 416.6,232.7 417.2,231.6 417.0,230.5 416.2,229.4 414.8,228.3 412.8,227.2 410.6,226.1 408.1,224.9 405.5,223.8 402.9,222.7 400.4,221.6 398.1,220.5 396.1,219.4 394.2,218.2 392.7,217.1 391.4,216.0 390.3,214.9 389.5,213.8 388.9,212.7 388.5,211.5 388.3,210.4 388.2,209.3 388.3,208.2 388.4,207.1 388.5,206.0 388.6,204.9 388.7,203.7 388.7,202.6 388.6,201.5 388.4,200.4 388.1,199.3 387.8,198.2 387.6,197.0 387.4,195.9 387.2,194.8 387.2,193.7 387.2,192.6 387.4,191.5 387.6,190.3 387.8,189.2 388.1,188.1 388.3,187.0 388.4,185.9 388.3,184.8 388.1,183.7 387.8,182.5 387.3,181.4 386.7,180.3 386.0,179.2 385.2,178.1 384.4,177.0 383.5,175.8 382.8,174.7 382.0,173.6 381.4,172.5 380.8,171.4 380.4,170.3 377.4,170.3 376.9,171.4 376.4,172.5 375.7,173.6 375.0,174.7 374.2,175.8 373.4,177.0 372.6,178.1 371.8,179.2 371.1,180.3 370.5,181.4 370.0,182.5 369.6,183.7 369.5,184.8 369.4,185.9 369.5,187.0 369.7,188.1 370.0,189.2 370.2,190.3 370.4,191.5 370.6,192.6 370.6,193.7 370.6,194.8 370.4,195.9 370.2,197.0 369.9,198.2 369.7,199.3 369.4,200.4 369.2,201.5 369.1,202.6 369.1,203.7 369.1,204.9 369.3,206.0 369.4,207.1 369.5,208.2 369.5,209.3 369.5,210.4 369.3,211.5 368.9,212.7 368.3,213.8 367.5,214.9 366.4,216.0 365.1,217.1 363.5,218.2 361.7,219.4 359.6,220.5 357.4,221.6 354.9,222.7 352.3,223.8 349.7,224.9 347.2,226.1 344.9,227.2 343.0,228.3 341.6,229.4 340.8,230.5 340.6,231.6 341.2,232.7 342.5,233.9 344.4,235.0 347.0,236.1 349.9,237.2 353.1,238.3 356.5,239.4 359.8,240.6 362.9,241.7 365.9,242.8 368.5,243.9 370.7,245.0 372.6,246.1 374.2,247.3 375.4,248.4 376.4,249.5" fill="#2a8" opacity="0.5" stroke="#2a8" stroke-width="1"/>
<line x1="341.6" y1="229.34282697769942" x2="416.1" y2="229.34282697769942" stroke="#114" stroke-width="2"/>
<circle cx="378.8888888888889" cy="233.833063290867" r="2.4" fill="#114"/>
<text x="378.8888888888889" y="172.12786635601262" text-anchor="middle" font-size="11">1.05</text>
<text x="378.8888888888889" y="376" text-anchor="middle" font-size="12">symv</text>
<polygon points="474.5,246.1 476.0,244.7 477.9,243.3 480.1,242.0 482.7,240.6 485.6,239.2 488.8,237.8 492.2,236.5 495.5,235.1 498.8,233.7 501.8,232.3 504.3,231.0 506.3,229.6 507.6,228.2 508.3,226.8 508.2,225.5 507.3,224.1 505.9,222.7 503.9,221.3 501.5,219.9 498.9,218.6 496.1,217.2 493.4,215.8 490.7,214.4 488.2,213.1 486.0,211.7 484.1,210.3 482.5,208.9 481.2,207.6 480.3,206.2 479.6,204.8 479.2,203.4 479.0,202.0 478.9,200.7 479.0,199.3 479.0,197.9 479.0,196.5 479.0,195.2 478.8,193.8 478.5,192.4 478.2,191.0 477.8,189.7 477.3,188.3 476.8,186.9 476.4,185.5 476.1,184.2 475.9,182.8 475.8,181.4 475.9,180.0 476.2,178.6 476.5,177.3 476.9,175.9 477.4,174.5 477.9,173.1 478.3,171.8 478.6,170.4 478.8,169.0 478.8,167.6 478.6,166.3 478.3,164.9 477.8,163.5 477.2,162.1 476.5,160.7 475.7,159.4 475.0,158.0 474.2,156.6 473.5,155.2 472.8,153.9 472.3,152.5 471.8,151.1 471.4,149.7 471.0,148.4 469.0,148.4 468.6,149.7 468.2,151.1 467.7,152.5 467.2,153.9 466.5,155.2 465.8,156.6 465.0,158.0 464.3,159.4 463.5,160.7 462.8,162.1 462.2,163.5 461.7,164.9 461.4,166.3 461.2,167.6 461.2,169.0 461.4,170.4 461.7,171.8 462.1,173.1 462.6,174.5 463.1,175.9 463.5,177.3 463.8,178.6 464.1,180.0 464.2,181.4 464.1,182.8 463.9,184.2 463.6,185.5 463.2,186.9 462.7,188.3 462.2,189.7 461.8,191.0 461.5,192.4 461.2,193.8 461.0,195.2 461.0,196.5 461.0,197.9 461.0,199.3 461.1,200.7 461.0,202.0 460.8,203.4 460.4,204.8 459.7,206.2 458.8,207.6 457.5,208.9 455.9,210.3 454.0,211.7 451.8,213.1 449.3,214.4 446.6,215.8 443.9,217.2 441.1,218.6 438.5,219.9 436.1,221.3 434.1,222.7 432.7,224.1 431.8,225.5 431.7,226.8 432.4,228.2 433.7,229.6 435.7,231.0 438.2,232.3 441.2,233.7 444.5,235.1 447.8,236.5 451.2,237.8 454.4,239.2 457.3,240.6 459.9,242.0 462.1,243.3 464.0,244.7 465.5,246.1" fill="#2a8" opacity="0.5" stroke="#2a8" stroke-width="1"/>
<line x1="431.8" y1="225.4734615156518" x2="508.2" y2="225.4734615156518" stroke="#114" stroke-width="2"/>
<circle cx="470.0" cy="228.97679451216348" r="2.4" fill="#114"/>
<text x="470.0" y="152.01579226023412" text-anchor="middle" font-size="11">1.08</text>
<text x="470.0" y="376" text-anchor="middle" font-size="12">trmv</text>
<polygon points="562.2,254.2 562.6,252.7 563.2,251.3 563.9,249.9 564.8,248.4 566.0,247.0 567.5,245.6 569.3,244.1 571.4,242.7 573.8,241.2 576.5,239.8 579.5,238.4 582.6,236.9 585.8,235.5 588.9,234.1 591.9,232.6 594.5,231.2 596.6,229.8 598.2,228.3 599.1,226.9 599.4,225.4 599.0,224.0 597.9,222.6 596.3,221.1 594.3,219.7 592.0,218.3 589.6,216.8 587.1,215.4 584.7,213.9 582.4,212.5 580.4,211.1 578.6,209.6 577.1,208.2 575.8,206.8 574.8,205.3 574.0,203.9 573.3,202.4 572.8,201.0 572.5,199.6 572.2,198.1 572.1,196.7 572.0,195.3 572.1,193.8 572.2,192.4 572.4,190.9 572.6,189.5 572.9,188.1 573.1,186.6 573.3,185.2 573.5,183.8 573.6,182.3 573.7,180.9 573.7,179.4 573.7,178.0 573.6,176.6 573.6,175.1 573.6,173.7 573.5,172.3 573.5,170.8 573.4,169.4 573.3,168.0 573.2,166.5 572.9,165.1 572.5,163.6 572.0,162.2 571.4,160.8 570.6,159.3 569.7,157.9 568.8,156.5 567.8,155.0 566.9,153.6 565.9,152.1 556.3,152.1 555.4,153.6 554.4,155.0 553.4,156.5 552.5,157.9 551.6,159.3 550.9,160.8 550.2,162.2 549.7,163.6 549.3,165.1 549.1,166.5 548.9,168.0 548.8,169.4 548.7,170.8 548.7,172.3 548.7,173.7 548.6,175.1 548.6,176.6 548.5,178.0 548.5,179.4 548.5,180.9 548.6,182.3 548.7,183.8 548.9,185.2 549.1,186.6 549.3,188.1 549.6,189.5 549.8,190.9 550.0,192.4 550.1,193.8 550.2,195.3 550.1,196.7 550.0,198.1 549.7,199.6 549.4,201.0 548.9,202.4 548.2,203.9 547.4,205.3 546.4,206.8 545.1,208.2 543.6,209.6 541.9,211.1 539.8,212.5 537.6,213.9 535.2,215.4 532.7,216.8 530.2,218.3 527.9,219.7 525.9,221.1 524.3,222.6 523.3,224.0 522.8,225.4 523.1,226.9 524.0,228.3 525.6,229.8 527.8,231.2 530.4,232.6 533.3,234.1 536.4,235.5 539.6,236.9 542.8,238.4 545.7,239.8 548.4,241.2 550.9,242.7 553.0,244.1 554.7,245.6 556.2,247.0 557.4,248.4 558.3,249.9 559.1,251.3 559.6,252.7 560.0,254.2" fill="#2a8" opacity="0.5" stroke="#2a8" stroke-width="1"/>
<line x1="525.5" y1="221.44055619034253" x2="596.7" y2="221.44055619034253" stroke="#114" stroke-width="2"/>
<circle cx="561.1111111111111" cy="228.57397888594556" r="2.4" fill="#114"/>
<text x="561.1111111111111" y="156.21326789716278" text-anchor="middle" font-size="11">1.12</text>
<text x="561.1111111111111" y="376" text-anchor="middle" font-size="12">trsv</text>
<polygon points="663.6,262.6 666.0,259.6 668.6,256.6 671.3,253.6 674.2,250.6 677.0,247.6 679.7,244.6 682.3,241.6 684.6,238.6 686.6,235.6 688.2,232.6 689.4,229.6 690.1,226.6 690.5,223.7 690.4,220.7 690.0,217.7 689.3,214.7 688.2,211.7 686.9,208.7 685.4,205.7 683.7,202.7 682.0,199.7 680.1,196.7 678.2,193.7 676.2,190.7 674.4,187.7 672.6,184.7 670.9,181.7 669.4,178.7 668.1,175.8 667.0,172.8 666.1,169.8 665.4,166.8 664.9,163.8 664.6,160.8 664.4,157.8 664.3,154.8 664.2,151.8 664.1,148.8 663.9,145.8 663.7,142.8 663.3,139.8 662.9,136.8 662.4,133.8 661.8,130.8 661.3,127.8 660.8,124.9 660.4,121.9 660.1,118.9 660.0,115.9 660.0,112.9 660.1,109.9 660.4,106.9 660.8,103.9 661.2,100.9 661.6,97.9 662.0,94.9 662.3,91.9 662.5,88.9 662.5,85.9 662.4,82.9 662.1,79.9 661.6,76.9 661.0,74.0 660.2,71.0 659.4,68.0 658.6,65.0 657.7,62.0 656.9,59.0 656.1,56.0 655.4,53.0 654.7,50.0 649.7,50.0 649.1,53.0 648.4,56.0 647.6,59.0 646.8,62.0 645.9,65.0 645.0,68.0 644.2,71.0 643.5,74.0 642.9,76.9 642.4,79.9 642.1,82.9 641.9,85.9 641.9,88.9 642.1,91.9 642.4,94.9 642.8,97.9 643.2,100.9 643.7,103.9 644.0,106.9 644.3,109.9 644.5,112.9 644.5,115.9 644.3,118.9 644.0,121.9 643.6,124.9 643.1,127.8 642.6,130.8 642.1,133.8 641.6,136.8 641.1,139.8 640.8,142.8 640.5,145.8 640.3,148.8 640.2,151.8 640.1,154.8 640.0,157.8 639.8,160.8 639.5,163.8 639.0,166.8 638.4,169.8 637.5,172.8 636.4,175.8 635.1,178.7 633.5,181.7 631.9,184.7 630.1,187.7 628.2,190.7 626.3,193.7 624.4,196.7 622.5,199.7 620.7,202.7 619.0,205.7 617.5,208.7 616.2,211.7 615.2,214.7 614.4,217.7 614.0,220.7 614.0,223.7 614.3,226.6 615.1,229.6 616.3,232.6 617.9,235.6 619.8,238.6 622.1,241.6 624.7,244.6 627.4,247.6 630.3,250.6 633.1,253.6 635.9,256.6 638.5,259.6 640.9,262.6" fill="#2a8" opacity="0.5" stroke="#2a8" stroke-width="1"/>
<line x1="618.0" y1="207.7755426876763" x2="686.5" y2="207.7755426876763" stroke="#114" stroke-width="2"/>
<circle cx="652.2222222222223" cy="238.1124466655977" r="2.4" fill="#114"/>
<text x="652.2222222222223" y="61.43396226415098" text-anchor="middle" font-size="11">1.23</text>
<text x="652.2222222222223" y="376" text-anchor="middle" font-size="12">spmv</text>
<polygon points="743.4,248.8 743.4,248.1 743.5,247.4 743.6,246.7 743.7,246.1 743.8,245.4 743.8,244.7 743.9,244.1 743.9,243.4 743.8,242.7 743.8,242.1 743.7,241.4 743.7,240.7 743.8,240.0 743.9,239.4 744.0,238.7 744.1,238.0 744.3,237.4 744.5,236.7 744.8,236.0 745.2,235.4 745.8,234.7 746.7,234.0 748.1,233.4 750.1,232.7 752.8,232.0 756.3,231.3 760.4,230.7 765.1,230.0 769.9,229.3 774.5,228.7 778.3,228.0 780.8,227.3 781.6,226.7 780.7,226.0 778.3,225.3 774.8,224.6 770.9,224.0 767.0,223.3 763.4,222.6 760.3,222.0 757.7,221.3 755.4,220.6 753.7,220.0 752.4,219.3 751.7,218.6 751.5,218.0 751.8,217.3 752.2,216.6 752.6,215.9 752.8,215.3 752.6,214.6 752.0,213.9 751.0,213.3 749.8,212.6 748.5,211.9 747.3,211.3 746.2,210.6 745.5,209.9 744.9,209.2 744.6,208.6 744.5,207.9 744.5,207.2 744.5,206.6 744.4,205.9 744.3,205.2 744.2,204.6 744.0,203.9 743.8,203.2 743.6,202.6 743.5,201.9 743.4,201.2 743.2,201.2 743.2,201.9 743.0,202.6 742.9,203.2 742.7,203.9 742.5,204.6 742.4,205.2 742.3,205.9 742.2,206.6 742.2,207.2 742.2,207.9 742.0,208.6 741.7,209.2 741.2,209.9 740.4,210.6 739.4,211.3 738.2,211.9 736.9,212.6 735.6,213.3 734.6,213.9 734.0,214.6 733.8,215.3 734.0,215.9 734.5,216.6 734.9,217.3 735.1,218.0 735.0,218.6 734.3,219.3 733.0,220.0 731.2,220.6 729.0,221.3 726.3,222.0 723.2,222.6 719.7,223.3 715.8,224.0 711.8,224.6 708.4,225.3 706.0,226.0 705.1,226.7 705.9,227.3 708.4,228.0 712.2,228.7 716.7,229.3 721.6,230.0 726.2,230.7 730.4,231.3 733.9,232.0 736.6,232.7 738.6,233.4 739.9,234.0 740.9,234.7 741.5,235.4 741.9,236.0 742.2,236.7 742.4,237.4 742.5,238.0 742.7,238.7 742.8,239.4 742.9,240.0 742.9,240.7 742.9,241.4 742.9,242.1 742.8,242.7 742.8,243.4 742.8,244.1 742.8,244.7 742.9,245.4 743.0,246.1 743.1,246.7 743.2,247.4 743.2,248.1 743.3,248.8" fill="#2a8" opacity="0.5" stroke="#2a8" stroke-width="1"/>
<line x1="705.9" y1="226.02110753155367" x2="780.8" y2="226.02110753155367" stroke="#114" stroke-width="2"/>
<circle cx="743.3333333333334" cy="229.0653508778526" r="2.4" fill="#114"/>
<text x="743.3333333333334" y="200.00986551472377" text-anchor="middle" font-size="11">1.08</text>
<text x="743.3333333333334" y="376" text-anchor="middle" font-size="12">gbmvN</text>
<polygon points="834.5,174.1 834.6,173.1 834.6,172.1 834.7,171.1 834.8,170.1 834.9,169.1 835.0,168.1 835.2,167.1 835.6,166.1 836.3,165.2 837.4,164.2 839.3,163.2 842.2,162.2 846.1,161.2 851.0,160.2 856.6,159.2 862.2,158.2 867.2,157.2 870.9,156.3 872.7,155.3 872.5,154.3 870.4,153.3 866.9,152.3 862.9,151.3 858.8,150.3 855.1,149.3 852.2,148.3 850.0,147.4 848.3,146.4 847.1,145.4 846.1,144.4 845.2,143.4 844.2,142.4 843.2,141.4 842.2,140.4 841.4,139.4 840.8,138.5 840.4,137.5 840.4,136.5 840.6,135.5 840.8,134.5 841.1,133.5 841.1,132.5 840.9,131.5 840.4,130.5 839.8,129.6 839.0,128.6 838.2,127.6 837.5,126.6 836.8,125.6 836.3,124.6 835.9,123.6 835.6,122.6 835.3,121.6 835.1,120.7 835.0,119.7 834.8,118.7 834.7,117.7 834.7,116.7 834.7,115.7 834.7,114.7 834.8,113.7 834.9,112.7 834.9,111.7 834.9,110.8 834.9,109.8 834.8,108.8 834.8,107.8 834.7,106.8 834.6,105.8 834.6,104.8 834.5,103.8 834.4,103.8 834.3,104.8 834.3,105.8 834.2,106.8 834.1,107.8 834.1,108.8 834.0,109.8 834.0,110.8 834.0,111.7 834.0,112.7 834.1,113.7 834.1,114.7 834.2,115.7 834.2,116.7 834.1,117.7 834.1,118.7 833.9,119.7 833.8,120.7 833.5,121.6 833.3,122.6 833.0,123.6 832.6,124.6 832.1,125.6 831.4,126.6 830.7,127.6 829.9,128.6 829.1,129.6 828.4,130.5 828.0,131.5 827.8,132.5 827.8,133.5 828.1,134.5 828.3,135.5 828.5,136.5 828.5,137.5 828.1,138.5 827.5,139.4 826.7,140.4 825.7,141.4 824.7,142.4 823.7,143.4 822.8,144.4 821.8,145.4 820.6,146.4 818.9,147.4 816.7,148.3 813.7,149.3 810.1,150.3 806.0,151.3 801.9,152.3 798.5,153.3 796.4,154.3 796.2,155.3 798.0,156.3 801.6,157.2 806.7,158.2 812.3,159.2 817.9,160.2 822.8,161.2 826.7,162.2 829.6,163.2 831.4,164.2 832.6,165.2 833.3,166.1 833.6,167.1 833.9,168.1 834.0,169.1 834.1,170.1 834.2,171.1 834.3,172.1 834.3,173.1 834.4,174.1" fill="#2a8" opacity="0.5" stroke="#2a8" stroke-width="1"/>
<line x1="796.6" y1="154.13493386667375" x2="872.3" y2="154.13493386667375" stroke="#114" stroke-width="2"/>
<circle cx="834.4444444444445" cy="156.23124976614028" r="2.4" fill="#114"/>
<text x="834.4444444444445" y="104.82999196054016" text-anchor="middle" font-size="11">1.67</text>
<text x="834.4444444444445" y="376" text-anchor="middle" font-size="12">sbmv</text>
<text x="450.0" y="428" text-anchor="middle" font-size="11" fill="#666">violin = ratio distribution over sizes · line = median · dark dot = worst size · green = every size ≥ gate</text>
</svg>
