<svg xmlns="http://www.w3.org/2000/svg" width="900" height="440" font-family="sans-serif">
<rect width="900" height="440" fill="white"/>
<text x="450.0" y="28" text-anchor="middle" font-size="18" font-weight="bold">Complex BLAS-1: PureBLAS / OpenBLAS (AVX-512 native (Zen5), 1 thread, ComplexF64)</text>
<line x1="60" y1="358.0" x2="880" y2="358.0" stroke="#eee"/>
<text x="52" y="362.0" text-anchor="end" font-size="11" fill="#666">0×</text>
<line x1="60" y1="348.7783249559999" x2="880" y2="348.7783249559999" stroke="#eee"/>
<text x="52" y="352.7783249559999" text-anchor="end" font-size="11" fill="#666">0.5×</text>
<line x1="60" y1="339.55664991199984" x2="880" y2="339.55664991199984" stroke="#eee"/>
<text x="52" y="343.55664991199984" text-anchor="end" font-size="11" fill="#666">1×</text>
<line x1="60" y1="330.33497486799973" x2="880" y2="330.33497486799973" stroke="#eee"/>
<text x="52" y="334.33497486799973" text-anchor="end" font-size="11" fill="#666">1.5×</text>
<line x1="60" y1="339.55664991199984" x2="880" y2="339.55664991199984" stroke="#888" stroke-width="1"/>
<line x1="60" y1="340.29438391551986" x2="880" y2="340.29438391551986" stroke="#d33" stroke-width="1.5" stroke-dasharray="6 4"/>
<text x="880" y="335.29438391551986" text-anchor="end" font-size="11" fill="#d33">0.96× gate</text>
<polygon points="143.6,343.5 144.3,343.3 145.2,343.2 146.4,343.0 148.0,342.9 149.9,342.7 152.1,342.6 154.8,342.4 157.8,342.3 161.1,342.1 164.6,342.0 168.2,341.8 171.8,341.7 175.3,341.5 178.6,341.4 181.6,341.2 184.4,341.1 187.0,340.9 189.5,340.8 191.9,340.6 194.5,340.5 197.1,340.3 199.8,340.2 202.5,340.0 205.1,339.9 207.4,339.7 209.2,339.6 210.4,339.4 210.9,339.3 210.5,339.1 209.3,339.0 207.3,338.8 204.5,338.7 201.2,338.5 197.5,338.4 193.6,338.2 189.6,338.1 185.6,337.9 181.7,337.8 178.1,337.6 174.7,337.5 171.5,337.3 168.6,337.2 166.0,337.0 163.5,336.9 161.3,336.7 159.3,336.6 157.6,336.5 156.1,336.3 155.0,336.2 154.1,336.0 153.7,335.9 153.7,335.7 154.0,335.6 154.8,335.4 155.8,335.3 157.0,335.1 158.4,335.0 159.7,334.8 160.9,334.7 161.7,334.5 162.2,334.4 162.1,334.2 161.6,334.1 160.6,333.9 159.2,333.8 157.4,333.6 155.5,333.5 153.5,333.3 151.5,333.2 149.6,333.0 147.9,332.9 136.1,332.9 134.4,333.0 132.5,333.2 130.5,333.3 128.5,333.5 126.6,333.6 124.8,333.8 123.4,333.9 122.4,334.1 121.9,334.2 121.8,334.4 122.3,334.5 123.1,334.7 124.3,334.8 125.6,335.0 127.0,335.1 128.2,335.3 129.2,335.4 130.0,335.6 130.3,335.7 130.3,335.9 129.9,336.0 129.0,336.2 127.9,336.3 126.4,336.5 124.7,336.6 122.7,336.7 120.5,336.9 118.0,337.0 115.4,337.2 112.5,337.3 109.3,337.5 105.9,337.6 102.3,337.8 98.4,337.9 94.4,338.1 90.4,338.2 86.5,338.4 82.8,338.5 79.5,338.7 76.7,338.8 74.7,339.0 73.5,339.1 73.1,339.3 73.6,339.4 74.8,339.6 76.6,339.7 78.9,339.9 81.5,340.0 84.2,340.2 86.9,340.3 89.5,340.5 92.1,340.6 94.5,340.8 97.0,340.9 99.6,341.1 102.4,341.2 105.4,341.4 108.7,341.5 112.2,341.7 115.8,341.8 119.4,342.0 122.9,342.1 126.2,342.3 129.2,342.4 131.9,342.6 134.1,342.7 136.0,342.9 137.6,343.0 138.8,343.2 139.7,343.3 140.4,343.5" fill="#d33" opacity="0.5" stroke="#d33" stroke-width="1"/>
<line x1="73.2" y1="339.2299594408709" x2="210.8" y2="339.2299594408709" stroke="#114" stroke-width="2"/>
<circle cx="142.0" cy="341.28097749330277" r="2.4" fill="#114"/>
<text x="142.0" y="327.9287299117657" text-anchor="middle" font-size="11">1.02</text>
<text x="142.0" y="376" text-anchor="middle" font-size="12">zaxpy</text>
<polygon points="306.5,342.8 306.6,342.6 306.9,342.5 307.1,342.3 307.4,342.2 307.8,342.0 308.3,341.9 308.8,341.7 309.6,341.5 310.6,341.4 311.9,341.2 313.6,341.1 315.8,340.9 318.5,340.8 321.8,340.6 325.6,340.5 329.9,340.3 334.7,340.2 339.8,340.0 345.1,339.9 350.6,339.7 356.1,339.6 361.4,339.4 366.2,339.3 370.3,339.1 373.2,339.0 374.9,338.8 374.9,338.7 373.2,338.5 369.9,338.3 365.2,338.2 359.4,338.0 352.9,337.9 346.2,337.7 339.8,337.6 333.9,337.4 328.9,337.3 324.7,337.1 321.5,337.0 319.2,336.8 317.5,336.7 316.5,336.5 315.8,336.4 315.5,336.2 315.3,336.1 315.2,335.9 315.1,335.8 315.1,335.6 315.1,335.5 315.1,335.3 315.2,335.1 315.5,335.0 315.9,334.8 316.4,334.7 317.1,334.5 317.8,334.4 318.5,334.2 319.0,334.1 319.3,333.9 319.3,333.8 319.0,333.6 318.3,333.5 317.3,333.3 316.1,333.2 314.7,333.0 313.3,332.9 311.9,332.7 310.6,332.6 309.5,332.4 308.5,332.3 307.8,332.1 307.2,332.0 304.8,332.0 304.2,332.1 303.5,332.3 302.5,332.4 301.4,332.6 300.1,332.7 298.7,332.9 297.3,333.0 295.9,333.2 294.7,333.3 293.7,333.5 293.0,333.6 292.7,333.8 292.7,333.9 293.0,334.1 293.5,334.2 294.2,334.4 294.9,334.5 295.6,334.7 296.1,334.8 296.5,335.0 296.8,335.1 296.9,335.3 296.9,335.5 296.9,335.6 296.9,335.8 296.8,335.9 296.7,336.1 296.5,336.2 296.2,336.4 295.5,336.5 294.5,336.7 292.8,336.8 290.5,337.0 287.3,337.1 283.1,337.3 278.1,337.4 272.2,337.6 265.8,337.7 259.1,337.9 252.6,338.0 246.8,338.2 242.1,338.3 238.8,338.5 237.1,338.7 237.1,338.8 238.8,339.0 241.7,339.1 245.8,339.3 250.6,339.4 255.9,339.6 261.4,339.7 266.9,339.9 272.2,340.0 277.3,340.2 282.1,340.3 286.4,340.5 290.2,340.6 293.5,340.8 296.2,340.9 298.4,341.1 300.1,341.2 301.4,341.4 302.4,341.5 303.2,341.7 303.7,341.9 304.2,342.0 304.6,342.2 304.9,342.3 305.1,342.5 305.4,342.6 305.5,342.8" fill="#2a8" opacity="0.5" stroke="#2a8" stroke-width="1"/>
<line x1="237.6" y1="338.5858676579253" x2="374.4" y2="338.5858676579253" stroke="#114" stroke-width="2"/>
<circle cx="306.0" cy="339.7744653634224" r="2.4" fill="#114"/>
<text x="306.0" y="327.0272538557463" text-anchor="middle" font-size="11">1.05</text>
<text x="306.0" y="376" text-anchor="middle" font-size="12">zdotc</text>
<polygon points="494.7,349.9 499.7,349.6 505.0,349.4 510.3,349.1 515.6,348.8 520.5,348.6 524.8,348.3 528.6,348.0 531.6,347.8 533.8,347.5 535.3,347.2 536.3,347.0 536.8,346.7 537.1,346.4 537.3,346.2 537.5,345.9 537.8,345.6 538.2,345.4 538.6,345.1 538.9,344.8 538.9,344.6 538.5,344.3 537.6,344.0 536.3,343.8 534.4,343.5 532.2,343.2 529.8,343.0 527.4,342.7 525.4,342.5 523.8,342.2 522.9,341.9 522.7,341.7 523.2,341.4 524.3,341.1 525.9,340.9 527.6,340.6 529.3,340.3 530.7,340.1 531.5,339.8 531.6,339.5 530.9,339.3 529.4,339.0 527.1,338.7 524.1,338.5 520.6,338.2 516.8,337.9 512.8,337.7 508.8,337.4 505.0,337.1 501.5,336.9 498.5,336.6 495.9,336.3 493.8,336.1 492.2,335.8 491.1,335.5 490.3,335.3 489.9,335.0 489.7,334.7 489.6,334.5 489.5,334.2 489.4,334.0 489.0,333.7 488.5,333.4 487.7,333.2 486.7,332.9 485.5,332.6 484.1,332.4 482.5,332.1 480.9,331.8 479.3,331.6 477.8,331.3 476.4,331.0 463.6,331.0 462.2,331.3 460.7,331.6 459.1,331.8 457.5,332.1 455.9,332.4 454.5,332.6 453.3,332.9 452.3,333.2 451.5,333.4 451.0,333.7 450.6,334.0 450.5,334.2 450.4,334.5 450.3,334.7 450.1,335.0 449.7,335.3 448.9,335.5 447.8,335.8 446.2,336.1 444.1,336.3 441.5,336.6 438.5,336.9 435.0,337.1 431.2,337.4 427.2,337.7 423.2,337.9 419.4,338.2 415.9,338.5 412.9,338.7 410.6,339.0 409.1,339.3 408.4,339.5 408.5,339.8 409.3,340.1 410.7,340.3 412.4,340.6 414.1,340.9 415.7,341.1 416.8,341.4 417.3,341.7 417.1,341.9 416.2,342.2 414.6,342.5 412.6,342.7 410.2,343.0 407.8,343.2 405.6,343.5 403.7,343.8 402.4,344.0 401.5,344.3 401.1,344.6 401.1,344.8 401.4,345.1 401.8,345.4 402.2,345.6 402.5,345.9 402.7,346.2 402.9,346.4 403.2,346.7 403.7,347.0 404.7,347.2 406.2,347.5 408.4,347.8 411.4,348.0 415.2,348.3 419.5,348.6 424.4,348.8 429.7,349.1 435.0,349.4 440.3,349.6 445.3,349.9" fill="#d33" opacity="0.5" stroke="#d33" stroke-width="1"/>
<line x1="402.7" y1="343.9690484750129" x2="537.3" y2="343.9690484750129" stroke="#114" stroke-width="2"/>
<circle cx="470.0" cy="347.9802207844678" r="2.4" fill="#114"/>
<text x="470.0" y="326.883891773598" text-anchor="middle" font-size="11">0.76</text>
<text x="470.0" y="376" text-anchor="middle" font-size="12">zscal</text>
<polygon points="659.4,282.3 663.3,279.0 667.3,275.8 671.5,272.5 675.6,269.2 679.6,265.9 683.5,262.7 687.0,259.4 690.2,256.1 692.9,252.9 695.0,249.6 696.5,246.3 697.4,243.0 697.6,239.8 697.1,236.5 696.1,233.2 694.4,230.0 692.3,226.7 689.7,223.4 686.8,220.1 683.7,216.9 680.5,213.6 677.2,210.3 674.0,207.1 671.0,203.8 668.2,200.5 665.7,197.2 663.6,194.0 661.9,190.7 660.7,187.4 659.8,184.1 659.4,180.9 659.4,177.6 659.7,174.3 660.4,171.1 661.3,167.8 662.4,164.5 663.7,161.2 665.2,158.0 666.7,154.7 668.3,151.4 670.0,148.2 671.7,144.9 673.6,141.6 675.5,138.3 677.6,135.1 679.8,131.8 682.2,128.5 684.6,125.3 687.2,122.0 689.8,118.7 692.4,115.4 694.9,112.2 697.3,108.9 699.3,105.6 701.0,102.4 702.2,99.1 702.8,95.8 702.9,92.5 702.3,89.3 701.0,86.0 699.1,82.7 696.5,79.4 693.4,76.2 689.9,72.9 685.9,69.6 681.7,66.4 677.4,63.1 672.9,59.8 668.5,56.5 664.3,53.3 660.2,50.0 607.8,50.0 603.7,53.3 599.5,56.5 595.1,59.8 590.6,63.1 586.3,66.4 582.1,69.6 578.1,72.9 574.6,76.2 571.5,79.4 568.9,82.7 567.0,86.0 565.7,89.3 565.1,92.5 565.2,95.8 565.8,99.1 567.0,102.4 568.7,105.6 570.7,108.9 573.1,112.2 575.6,115.4 578.2,118.7 580.8,122.0 583.4,125.3 585.8,128.5 588.2,131.8 590.4,135.1 592.5,138.3 594.4,141.6 596.3,144.9 598.0,148.2 599.7,151.4 601.3,154.7 602.8,158.0 604.3,161.2 605.6,164.5 606.7,167.8 607.6,171.1 608.3,174.3 608.6,177.6 608.6,180.9 608.2,184.1 607.3,187.4 606.1,190.7 604.4,194.0 602.3,197.2 599.8,200.5 597.0,203.8 594.0,207.1 590.8,210.3 587.5,213.6 584.3,216.9 581.2,220.1 578.3,223.4 575.7,226.7 573.6,230.0 571.9,233.2 570.9,236.5 570.4,239.8 570.6,243.0 571.5,246.3 573.0,249.6 575.1,252.9 577.8,256.1 581.0,259.4 584.5,262.7 588.4,265.9 592.4,269.2 596.5,272.5 600.7,275.8 604.7,279.0 608.6,282.3" fill="#2a8" opacity="0.5" stroke="#2a8" stroke-width="1"/>
<line x1="599.1" y1="150.28623450784352" x2="668.9" y2="150.28623450784352" stroke="#114" stroke-width="2"/>
<circle cx="634.0" cy="253.13939720951925" r="2.4" fill="#114"/>
<text x="634.0" y="61.433962264150935" text-anchor="middle" font-size="11">11.26</text>
<text x="634.0" y="376" text-anchor="middle" font-size="12">dznrm2</text>
<polygon points="799.2,343.3 799.8,343.0 800.6,342.8 801.8,342.5 803.3,342.3 805.3,342.1 807.8,341.8 810.9,341.6 814.6,341.3 819.0,341.1 824.1,340.9 829.7,340.6 835.9,340.4 842.3,340.2 848.6,339.9 854.6,339.7 859.8,339.4 863.7,339.2 866.2,339.0 866.9,338.7 865.7,338.5 862.7,338.2 858.0,338.0 852.1,337.8 845.4,337.5 838.4,337.3 831.4,337.1 825.0,336.8 819.4,336.6 814.7,336.3 810.9,336.1 808.0,335.9 805.8,335.6 804.1,335.4 802.9,335.2 802.0,334.9 801.2,334.7 800.6,334.4 800.2,334.2 799.8,334.0 799.6,333.7 799.5,333.5 799.5,333.2 799.7,333.0 800.0,332.8 800.4,332.5 800.8,332.3 801.3,332.1 801.9,331.8 802.4,331.6 802.9,331.3 803.3,331.1 803.7,330.9 804.1,330.6 804.4,330.4 804.6,330.1 804.7,329.9 804.7,329.7 804.7,329.4 804.4,329.2 804.1,329.0 803.6,328.7 803.0,328.5 802.4,328.2 801.7,328.0 801.1,327.8 800.5,327.5 799.9,327.3 799.4,327.1 799.0,326.8 798.7,326.6 798.5,326.3 797.5,326.3 797.3,326.6 797.0,326.8 796.6,327.1 796.1,327.3 795.5,327.5 794.9,327.8 794.3,328.0 793.6,328.2 793.0,328.5 792.4,328.7 791.9,329.0 791.6,329.2 791.3,329.4 791.3,329.7 791.3,329.9 791.4,330.1 791.6,330.4 791.9,330.6 792.3,330.9 792.7,331.1 793.1,331.3 793.6,331.6 794.1,331.8 794.7,332.1 795.2,332.3 795.6,332.5 796.0,332.8 796.3,333.0 796.5,333.2 796.5,333.5 796.4,333.7 796.2,334.0 795.8,334.2 795.4,334.4 794.8,334.7 794.0,334.9 793.1,335.2 791.9,335.4 790.2,335.6 788.0,335.9 785.1,336.1 781.3,336.3 776.6,336.6 771.0,336.8 764.6,337.1 757.6,337.3 750.6,337.5 743.9,337.8 738.0,338.0 733.3,338.2 730.3,338.5 729.1,338.7 729.8,339.0 732.3,339.2 736.2,339.4 741.4,339.7 747.4,339.9 753.7,340.2 760.1,340.4 766.3,340.6 771.9,340.9 777.0,341.1 781.4,341.3 785.1,341.6 788.2,341.8 790.7,342.1 792.7,342.3 794.2,342.5 795.4,342.8 796.2,343.0 796.8,343.3" fill="#2a8" opacity="0.5" stroke="#2a8" stroke-width="1"/>
<line x1="729.1" y1="338.7166635117071" x2="866.9" y2="338.7166635117071" stroke="#114" stroke-width="2"/>
<circle cx="798.0" cy="340.0025421572635" r="2.4" fill="#114"/>
<text x="798.0" y="322.0037859389114" text-anchor="middle" font-size="11">1.05</text>
<text x="798.0" y="376" text-anchor="middle" font-size="12">dzasum</text>
<text x="450.0" y="428" text-anchor="middle" font-size="11" fill="#666">violin = ratio distribution over sizes · line = median · dark dot = worst size · green = every size ≥ gate</text>
</svg>
