<svg xmlns="http://www.w3.org/2000/svg" width="900" height="440" font-family="sans-serif">
<rect width="900" height="440" fill="white"/>
<text x="450.0" y="28" text-anchor="middle" font-size="18" font-weight="bold">BLAS-1: PureBLAS / OpenBLAS (AVX2, 1 thread, Float64)</text>
<line x1="60" y1="358.0" x2="880" y2="358.0" stroke="#eee"/>
<text x="52" y="362.0" text-anchor="end" font-size="11" fill="#666">0×</text>
<line x1="60" y1="339.7757858138357" x2="880" y2="339.7757858138357" stroke="#eee"/>
<text x="52" y="343.7757858138357" text-anchor="end" font-size="11" fill="#666">0.5×</text>
<line x1="60" y1="321.55157162767136" x2="880" y2="321.55157162767136" stroke="#eee"/>
<text x="52" y="325.55157162767136" text-anchor="end" font-size="11" fill="#666">1×</text>
<line x1="60" y1="303.32735744150705" x2="880" y2="303.32735744150705" stroke="#eee"/>
<text x="52" y="307.32735744150705" text-anchor="end" font-size="11" fill="#666">1.5×</text>
<line x1="60" y1="321.55157162767136" x2="880" y2="321.55157162767136" stroke="#888" stroke-width="1"/>
<line x1="60" y1="323.0095087625645" x2="880" y2="323.0095087625645" stroke="#d33" stroke-width="1.5" stroke-dasharray="6 4"/>
<text x="880" y="318.0095087625645" text-anchor="end" font-size="11" fill="#d33">0.96× gate</text>
<polygon points="128.3,323.7 128.4,323.6 128.4,323.5 128.4,323.5 128.5,323.4 128.5,323.3 128.6,323.3 128.6,323.2 128.7,323.2 128.7,323.1 128.6,323.0 128.6,323.0 128.6,322.9 128.6,322.8 128.6,322.8 128.7,322.7 128.7,322.6 128.7,322.6 128.7,322.5 128.8,322.5 128.9,322.4 129.1,322.3 129.5,322.3 130.0,322.2 130.9,322.1 132.4,322.1 134.8,322.0 138.6,321.9 144.0,321.9 151.1,321.8 159.7,321.8 168.8,321.7 177.2,321.6 183.2,321.6 185.7,321.5 184.2,321.4 179.1,321.4 171.7,321.3 163.6,321.2 156.2,321.2 150.5,321.1 146.9,321.1 145.3,321.0 145.1,320.9 145.7,320.9 146.2,320.8 146.1,320.7 144.9,320.7 142.8,320.6 140.2,320.5 137.6,320.5 135.5,320.4 134.2,320.4 134.0,320.3 134.8,320.2 136.6,320.2 138.8,320.1 141.1,320.0 142.9,320.0 143.6,319.9 143.0,319.8 141.2,319.8 138.6,319.7 135.8,319.6 133.4,319.6 131.4,319.5 130.1,319.5 129.2,319.4 128.8,319.3 128.5,319.3 128.4,319.2 128.4,319.1 128.3,319.1 128.2,319.2 128.1,319.3 127.9,319.3 127.4,319.4 126.6,319.5 125.3,319.5 123.3,319.6 120.8,319.6 118.1,319.7 115.5,319.8 113.7,319.8 113.1,319.9 113.8,320.0 115.5,320.0 117.8,320.1 120.1,320.2 121.8,320.2 122.7,320.3 122.4,320.4 121.2,320.4 119.1,320.5 116.5,320.5 113.8,320.6 111.7,320.7 110.6,320.7 110.4,320.8 111.0,320.9 111.5,320.9 111.4,321.0 109.8,321.1 106.2,321.1 100.5,321.2 93.1,321.2 84.9,321.3 77.5,321.4 72.4,321.4 70.9,321.5 73.4,321.6 79.5,321.6 87.8,321.7 97.0,321.8 105.5,321.8 112.7,321.9 118.1,321.9 121.8,322.0 124.3,322.1 125.7,322.1 126.7,322.2 127.2,322.3 127.5,322.3 127.8,322.4 127.9,322.5 127.9,322.5 128.0,322.6 128.0,322.6 128.0,322.7 128.0,322.8 128.0,322.8 128.1,322.9 128.0,323.0 128.0,323.0 128.0,323.1 128.0,323.2 128.0,323.2 128.1,323.3 128.1,323.3 128.2,323.4 128.2,323.5 128.3,323.5 128.3,323.6 128.3,323.7" fill="#2a8" opacity="0.5" stroke="#2a8" stroke-width="1"/>
<line x1="72.6" y1="321.43261630662573" x2="184.1" y2="321.43261630662573" stroke="#114" stroke-width="2"/>
<circle cx="128.33333333333331" cy="321.59303479728567" r="2.4" fill="#114"/>
<text x="128.33333333333331" y="313.63662815311056" text-anchor="middle" font-size="11">1.00</text>
<text x="128.33333333333331" y="376" text-anchor="middle" font-size="12">axpy</text>
<polygon points="265.4,322.8 265.7,322.8 266.0,322.7 266.6,322.6 267.3,322.6 268.4,322.5 269.8,322.5 271.7,322.4 274.2,322.4 277.2,322.3 280.9,322.2 285.2,322.2 290.0,322.1 295.3,322.1 300.8,322.0 306.3,322.0 311.4,321.9 315.8,321.8 319.3,321.8 321.6,321.7 322.4,321.7 321.8,321.6 319.7,321.6 316.3,321.5 311.8,321.4 306.5,321.4 300.8,321.3 295.0,321.3 289.4,321.2 284.3,321.2 279.9,321.1 276.1,321.0 273.1,321.0 270.8,320.9 269.1,320.9 267.9,320.8 267.0,320.8 266.5,320.7 266.2,320.6 266.0,320.6 266.0,320.5 266.0,320.5 266.2,320.4 266.4,320.4 266.7,320.3 267.1,320.2 267.5,320.2 268.1,320.1 268.8,320.1 269.6,320.0 270.5,320.0 271.5,319.9 272.6,319.8 273.8,319.8 274.9,319.7 276.0,319.7 277.0,319.6 277.7,319.6 278.1,319.5 278.1,319.4 277.7,319.4 276.9,319.3 275.8,319.3 274.5,319.2 273.0,319.1 271.6,319.1 270.2,319.0 268.9,319.0 267.9,318.9 267.0,318.9 266.4,318.8 265.9,318.7 264.1,318.7 263.6,318.8 263.0,318.9 262.1,318.9 261.1,319.0 259.8,319.0 258.4,319.1 257.0,319.1 255.5,319.2 254.2,319.3 253.1,319.3 252.3,319.4 251.9,319.4 251.9,319.5 252.3,319.6 253.0,319.6 254.0,319.7 255.1,319.7 256.2,319.8 257.4,319.8 258.5,319.9 259.5,320.0 260.4,320.0 261.2,320.1 261.9,320.1 262.5,320.2 262.9,320.2 263.3,320.3 263.6,320.4 263.8,320.4 264.0,320.5 264.0,320.5 264.0,320.6 263.8,320.6 263.5,320.7 263.0,320.8 262.1,320.8 260.9,320.9 259.2,320.9 256.9,321.0 253.9,321.0 250.1,321.1 245.7,321.2 240.6,321.2 235.0,321.3 229.2,321.3 223.5,321.4 218.2,321.4 213.7,321.5 210.3,321.6 208.2,321.6 207.6,321.7 208.4,321.7 210.7,321.8 214.2,321.8 218.6,321.9 223.7,322.0 229.2,322.0 234.7,322.1 240.0,322.1 244.8,322.2 249.1,322.2 252.8,322.3 255.8,322.4 258.3,322.4 260.2,322.5 261.6,322.5 262.7,322.6 263.4,322.6 264.0,322.7 264.3,322.8 264.6,322.8" fill="#2a8" opacity="0.5" stroke="#2a8" stroke-width="1"/>
<line x1="210.9" y1="321.5457821171782" x2="319.1" y2="321.5457821171782" stroke="#114" stroke-width="2"/>
<circle cx="265.0" cy="321.8636680632067" r="2.4" fill="#114"/>
<text x="265.0" y="313.20027177304524" text-anchor="middle" font-size="11">1.00</text>
<text x="265.0" y="376" text-anchor="middle" font-size="12">dot</text>
<polygon points="401.8,205.4 401.9,203.3 402.0,201.1 402.1,199.0 402.2,196.8 402.3,194.7 402.4,192.5 402.4,190.4 402.5,188.2 402.5,186.1 402.5,183.9 402.5,181.7 402.5,179.6 402.6,177.4 402.6,175.3 402.7,173.1 402.9,171.0 403.2,168.8 403.6,166.7 404.1,164.5 404.8,162.4 405.7,160.2 406.7,158.1 408.0,155.9 409.6,153.8 411.4,151.6 413.7,149.5 416.3,147.3 419.5,145.2 423.2,143.0 427.3,140.8 431.5,138.7 435.7,136.5 439.4,134.4 442.2,132.2 443.8,130.1 443.8,127.9 442.3,125.8 439.3,123.6 435.1,121.5 430.3,119.3 425.1,117.2 420.2,115.0 415.9,112.9 412.4,110.7 409.8,108.6 408.2,106.4 407.7,104.2 408.2,102.1 409.7,99.9 412.0,97.8 415.2,95.6 419.1,93.5 423.6,91.3 428.6,89.2 434.0,87.0 439.5,84.9 445.0,82.7 450.0,80.6 454.3,78.4 457.5,76.3 459.1,74.1 458.8,72.0 456.6,69.8 452.5,67.7 446.9,65.5 440.3,63.3 433.3,61.2 426.5,59.0 420.3,56.9 415.1,54.7 410.9,52.6 392.5,52.6 388.3,54.7 383.0,56.9 376.8,59.0 370.0,61.2 363.0,63.3 356.4,65.5 350.8,67.7 346.8,69.8 344.5,72.0 344.3,74.1 345.8,76.3 349.0,78.4 353.3,80.6 358.4,82.7 363.8,84.9 369.3,87.0 374.7,89.2 379.7,91.3 384.3,93.5 388.2,95.6 391.3,97.8 393.7,99.9 395.1,102.1 395.6,104.2 395.1,106.4 393.5,108.6 391.0,110.7 387.4,112.9 383.1,115.0 378.2,117.2 373.1,119.3 368.2,121.5 364.1,123.6 361.1,125.8 359.5,127.9 359.6,130.1 361.1,132.2 363.9,134.4 367.6,136.5 371.8,138.7 376.1,140.8 380.1,143.0 383.8,145.2 387.0,147.3 389.7,149.5 391.9,151.6 393.8,153.8 395.3,155.9 396.6,158.1 397.7,160.2 398.5,162.4 399.2,164.5 399.8,166.7 400.2,168.8 400.4,171.0 400.6,173.1 400.7,175.3 400.8,177.4 400.8,179.6 400.8,181.7 400.8,183.9 400.8,186.1 400.9,188.2 400.9,190.4 401.0,192.5 401.1,194.7 401.2,196.8 401.3,199.0 401.4,201.1 401.4,203.3 401.5,205.4" fill="#2a8" opacity="0.5" stroke="#2a8" stroke-width="1"/>
<line x1="366.4" y1="85.88898563481106" x2="436.9" y2="85.88898563481106" stroke="#114" stroke-width="2"/>
<circle cx="401.66666666666663" cy="133.60340747979404" r="2.4" fill="#114"/>
<text x="401.66666666666663" y="61.43396226415098" text-anchor="middle" font-size="11">7.47</text>
<text x="401.66666666666663" y="376" text-anchor="middle" font-size="12">nrm2</text>
<polygon points="538.6,324.1 538.8,323.5 538.9,322.9 539.1,322.3 539.3,321.7 539.6,321.1 539.9,320.5 540.4,319.9 540.9,319.3 541.7,318.7 542.7,318.1 544.0,317.5 545.8,316.9 548.0,316.3 550.9,315.7 554.5,315.1 558.8,314.5 563.7,313.9 569.2,313.3 575.0,312.7 580.7,312.1 586.0,311.5 590.4,310.9 593.6,310.2 595.4,309.6 595.7,309.0 594.6,308.4 592.4,307.8 589.4,307.2 586.3,306.6 583.5,306.0 581.3,305.4 579.9,304.8 579.5,304.2 579.7,303.6 580.2,303.0 580.6,302.4 580.6,301.8 579.8,301.2 578.1,300.6 575.4,300.0 571.9,299.4 567.9,298.8 563.6,298.2 559.4,297.6 555.5,297.0 552.3,296.4 549.8,295.8 548.1,295.2 547.2,294.6 547.3,294.0 548.3,293.4 550.0,292.8 552.6,292.2 555.7,291.6 559.4,290.9 563.3,290.3 567.1,289.7 570.6,289.1 573.5,288.5 575.5,287.9 576.3,287.3 576.1,286.7 574.6,286.1 572.2,285.5 568.9,284.9 565.1,284.3 561.0,283.7 557.0,283.1 553.2,282.5 549.7,281.9 546.8,281.3 529.8,281.3 526.9,281.9 523.5,282.5 519.7,283.1 515.6,283.7 511.6,284.3 507.7,284.9 504.5,285.5 502.0,286.1 500.6,286.7 500.3,287.3 501.2,287.9 503.2,288.5 506.1,289.1 509.6,289.7 513.4,290.3 517.3,290.9 520.9,291.6 524.1,292.2 526.6,292.8 528.4,293.4 529.4,294.0 529.4,294.6 528.6,295.2 526.9,295.8 524.4,296.4 521.1,297.0 517.3,297.6 513.1,298.2 508.8,298.8 504.7,299.4 501.3,300.0 498.6,300.6 496.8,301.2 496.0,301.8 496.0,302.4 496.5,303.0 497.0,303.6 497.2,304.2 496.7,304.8 495.4,305.4 493.2,306.0 490.4,306.6 487.2,307.2 484.3,307.8 482.1,308.4 480.9,309.0 481.2,309.6 483.0,310.2 486.3,310.9 490.7,311.5 496.0,312.1 501.7,312.7 507.5,313.3 512.9,313.9 517.9,314.5 522.2,315.1 525.7,315.7 528.6,316.3 530.9,316.9 532.7,317.5 534.0,318.1 535.0,318.7 535.7,319.3 536.3,319.9 536.7,320.5 537.1,321.1 537.4,321.7 537.6,322.3 537.8,322.9 537.9,323.5 538.0,324.1" fill="#2a8" opacity="0.5" stroke="#2a8" stroke-width="1"/>
<line x1="496.4" y1="301.45829999428776" x2="580.3" y2="301.45829999428776" stroke="#114" stroke-width="2"/>
<circle cx="538.3333333333333" cy="310.0097511925821" r="2.4" fill="#114"/>
<text x="538.3333333333333" y="279.50193596735085" text-anchor="middle" font-size="11">1.55</text>
<text x="538.3333333333333" y="376" text-anchor="middle" font-size="12">asum</text>
<polygon points="675.0,323.6 675.0,323.5 675.1,323.5 675.1,323.4 675.2,323.3 675.2,323.3 675.3,323.2 675.3,323.2 675.4,323.1 675.3,323.1 675.3,323.0 675.3,322.9 675.3,322.9 675.3,322.8 675.5,322.8 675.7,322.7 675.9,322.7 676.2,322.6 676.5,322.5 676.7,322.5 676.9,322.4 677.0,322.4 677.0,322.3 677.1,322.3 677.3,322.2 677.8,322.2 678.7,322.1 680.1,322.0 682.2,322.0 685.1,321.9 688.6,321.9 692.8,321.8 697.5,321.8 702.8,321.7 708.7,321.6 715.0,321.6 721.3,321.5 726.9,321.5 730.9,321.4 732.4,321.4 731.2,321.3 727.4,321.2 722.0,321.2 716.0,321.1 710.3,321.1 705.4,321.0 701.2,321.0 697.3,320.9 693.4,320.8 689.5,320.8 685.7,320.7 682.5,320.7 679.9,320.6 678.2,320.6 677.5,320.5 677.7,320.4 678.8,320.4 680.8,320.3 683.5,320.3 686.5,320.2 689.2,320.2 690.8,320.1 691.0,320.0 689.6,320.0 687.1,319.9 684.1,319.9 681.2,319.8 678.8,319.8 677.1,319.7 676.1,319.7 675.5,319.6 675.2,319.5 674.8,319.5 674.5,319.6 673.9,319.7 672.9,319.7 671.2,319.8 668.8,319.8 665.9,319.9 662.9,319.9 660.4,320.0 659.0,320.0 659.2,320.1 660.8,320.2 663.5,320.2 666.5,320.3 669.2,320.3 671.2,320.4 672.3,320.4 672.5,320.5 671.8,320.6 670.1,320.6 667.5,320.7 664.3,320.7 660.5,320.8 656.6,320.8 652.7,320.9 648.8,321.0 644.6,321.0 639.7,321.1 634.0,321.1 628.0,321.2 622.6,321.2 618.8,321.3 617.6,321.4 619.1,321.4 623.1,321.5 628.7,321.5 635.0,321.6 641.3,321.6 647.2,321.7 652.5,321.8 657.2,321.8 661.4,321.9 664.9,321.9 667.8,322.0 669.9,322.0 671.3,322.1 672.2,322.2 672.7,322.2 672.9,322.3 673.0,322.3 673.0,322.4 673.1,322.4 673.3,322.5 673.5,322.5 673.8,322.6 674.1,322.7 674.3,322.7 674.5,322.8 674.7,322.8 674.7,322.9 674.7,322.9 674.7,323.0 674.7,323.1 674.6,323.1 674.7,323.2 674.7,323.2 674.8,323.3 674.8,323.3 674.9,323.4 674.9,323.5 675.0,323.5 675.0,323.6" fill="#2a8" opacity="0.5" stroke="#2a8" stroke-width="1"/>
<line x1="617.6" y1="321.3445585356315" x2="732.4" y2="321.3445585356315" stroke="#114" stroke-width="2"/>
<circle cx="675.0" cy="321.6884939054638" r="2.4" fill="#114"/>
<text x="675.0" y="313.98735708674155" text-anchor="middle" font-size="11">1.01</text>
<text x="675.0" y="376" text-anchor="middle" font-size="12">scal</text>
<polygon points="812.6,342.2 813.1,341.6 813.8,341.0 814.6,340.4 815.7,339.7 817.1,339.1 818.6,338.5 820.4,337.9 822.3,337.3 824.5,336.7 826.8,336.0 829.4,335.4 832.1,334.8 835.1,334.2 838.3,333.6 841.8,333.0 845.4,332.3 849.1,331.7 852.6,331.1 856.0,330.5 859.0,329.9 861.4,329.2 863.3,328.6 864.5,328.0 865.2,327.4 865.3,326.8 865.1,326.2 864.6,325.5 864.0,324.9 863.5,324.3 863.2,323.7 863.1,323.1 863.3,322.5 863.8,321.8 864.5,321.2 865.4,320.6 866.4,320.0 867.3,319.4 868.1,318.7 868.7,318.1 869.0,317.5 869.1,316.9 868.8,316.3 868.4,315.7 867.8,315.0 867.1,314.4 866.5,313.8 865.7,313.2 865.0,312.6 864.2,312.0 863.1,311.3 861.8,310.7 860.0,310.1 857.8,309.5 855.2,308.9 852.1,308.2 848.6,307.6 844.9,307.0 841.0,306.4 837.2,305.8 833.5,305.2 829.9,304.5 826.7,303.9 823.8,303.3 821.3,302.7 819.1,302.1 817.3,301.5 815.8,300.8 814.6,300.2 813.7,299.6 813.0,299.0 812.5,298.4 810.8,298.4 810.3,299.0 809.7,299.6 808.7,300.2 807.6,300.8 806.1,301.5 804.3,302.1 802.1,302.7 799.5,303.3 796.6,303.9 793.4,304.5 789.9,305.2 786.1,305.8 782.3,306.4 778.4,307.0 774.7,307.6 771.3,308.2 768.1,308.9 765.5,309.5 763.3,310.1 761.6,310.7 760.2,311.3 759.2,312.0 758.3,312.6 757.6,313.2 756.9,313.8 756.2,314.4 755.5,315.0 754.9,315.7 754.5,316.3 754.3,316.9 754.3,317.5 754.6,318.1 755.2,318.7 756.0,319.4 757.0,320.0 757.9,320.6 758.8,321.2 759.5,321.8 760.0,322.5 760.2,323.1 760.1,323.7 759.8,324.3 759.3,324.9 758.8,325.5 758.3,326.2 758.0,326.8 758.2,327.4 758.8,328.0 760.1,328.6 761.9,329.2 764.4,329.9 767.3,330.5 770.7,331.1 774.3,331.7 777.9,332.3 781.5,333.0 785.0,333.6 788.2,334.2 791.2,334.8 794.0,335.4 796.5,336.0 798.8,336.7 801.0,337.3 802.9,337.9 804.7,338.5 806.3,339.1 807.6,339.7 808.7,340.4 809.6,341.0 810.3,341.6 810.7,342.2" fill="#d33" opacity="0.5" stroke="#d33" stroke-width="1"/>
<line x1="756.2" y1="319.49012019320264" x2="867.1" y2="319.49012019320264" stroke="#114" stroke-width="2"/>
<circle cx="811.6666666666666" cy="324.30102043420897" r="2.4" fill="#114"/>
<text x="811.6666666666666" y="296.66551721530834" text-anchor="middle" font-size="11">1.06</text>
<text x="811.6666666666666" y="376" text-anchor="middle" font-size="12">iamax</text>
<text x="450.0" y="428" text-anchor="middle" font-size="11" fill="#666">violin = ratio distribution over sizes · line = median · dark dot = worst size · green = every size ≥ gate</text>
</svg>
