<svg xmlns="http://www.w3.org/2000/svg" width="900" height="460" font-family="sans-serif">
<rect width="900" height="460" fill="white"/>
<text x="450.0" y="28" text-anchor="middle" font-size="18" font-weight="bold">BLAS-3: PureBLAS / OpenBLAS (AVX-512, 1 thread, Float64)</text>
<line x1="62" y1="400.0" x2="768" y2="400.0" stroke="#eee"/>
<text x="54" y="404.0" text-anchor="end" font-size="11" fill="#666">0.5×</text>
<line x1="62" y1="322.98092939383275" x2="768" y2="322.98092939383275" stroke="#eee"/>
<text x="54" y="326.98092939383275" text-anchor="end" font-size="11" fill="#666">0.7×</text>
<line x1="62" y1="241.33742451948112" x2="768" y2="241.33742451948112" stroke="#eee"/>
<text x="54" y="245.33742451948112" text-anchor="end" font-size="11" fill="#666">1.0×</text>
<line x1="62" y1="148.52576759553762" x2="768" y2="148.52576759553762" stroke="#eee"/>
<text x="54" y="152.52576759553762" text-anchor="end" font-size="11" fill="#666">1.5×</text>
<line x1="62" y1="82.67484903896224" x2="768" y2="82.67484903896224" stroke="#eee"/>
<text x="54" y="86.67484903896224" text-anchor="end" font-size="11" fill="#666">2.0×</text>
<line x1="62.0" y1="50" x2="62.0" y2="400" stroke="#f4f4f4"/>
<text x="62.0" y="418" text-anchor="middle" font-size="11" fill="#444">8</text>
<line x1="238.5" y1="50" x2="238.5" y2="400" stroke="#f4f4f4"/>
<text x="238.5" y="418" text-anchor="middle" font-size="11" fill="#444">32</text>
<line x1="415.0" y1="50" x2="415.0" y2="400" stroke="#f4f4f4"/>
<text x="415.0" y="418" text-anchor="middle" font-size="11" fill="#444">128</text>
<line x1="503.25" y1="50" x2="503.25" y2="400" stroke="#f4f4f4"/>
<text x="503.25" y="418" text-anchor="middle" font-size="11" fill="#444">256</text>
<line x1="591.5" y1="50" x2="591.5" y2="400" stroke="#f4f4f4"/>
<text x="591.5" y="418" text-anchor="middle" font-size="11" fill="#444">512</text>
<line x1="679.75" y1="50" x2="679.75" y2="400" stroke="#f4f4f4"/>
<text x="679.75" y="418" text-anchor="middle" font-size="11" fill="#444">1024</text>
<line x1="768.0" y1="50" x2="768.0" y2="400" stroke="#f4f4f4"/>
<text x="768.0" y="418" text-anchor="middle" font-size="11" fill="#444">2048</text>
<line x1="62" y1="241.33742451948112" x2="768" y2="241.33742451948112" stroke="#888"/>
<line x1="62" y1="250.68164890426914" x2="768" y2="250.68164890426914" stroke="#d33" stroke-width="1.5" stroke-dasharray="6 4"/>
<text x="66" y="245.68164890426914" font-size="11" fill="#d33">0.96× gate</text>
<polygon points="62.0,210.1 238.5,283.0 415.0,191.4 503.2,220.5 591.5,237.6 679.8,237.4 768.0,220.5 768.0,221.0 679.8,237.6 591.5,238.7 503.2,230.8 415.0,201.7 238.5,288.8 62.0,228.9" fill="#1f77b4" opacity="0.14" stroke="none"/>
<polyline points="62.0,219.0 238.5,287.4 415.0,198.4 503.2,228.8 591.5,238.3 679.8,237.5 768.0,220.6" fill="none" stroke="#1f77b4" stroke-width="2"/>
<circle cx="62.0" cy="219.0" r="3" fill="#1f77b4"/>
<circle cx="238.5" cy="287.4" r="3" fill="#1f77b4"/>
<circle cx="415.0" cy="198.4" r="3" fill="#1f77b4"/>
<circle cx="503.2" cy="228.8" r="3" fill="#1f77b4"/>
<circle cx="591.5" cy="238.3" r="3" fill="#1f77b4"/>
<circle cx="679.8" cy="237.5" r="3" fill="#1f77b4"/>
<circle cx="768.0" cy="220.6" r="3" fill="#1f77b4"/>
<line x1="782" y1="56" x2="802" y2="56" stroke="#1f77b4" stroke-width="3"/>
<text x="806" y="60" font-size="12">gemm</text>
<polygon points="62.0,174.0 238.5,163.5 415.0,201.1 503.2,210.4 591.5,217.3 679.8,218.3 768.0,220.9 768.0,221.0 679.8,219.5 591.5,217.7 503.2,212.5 415.0,207.0 238.5,164.6 62.0,195.4" fill="#d62728" opacity="0.14" stroke="none"/>
<polyline points="62.0,190.3 238.5,164.0 415.0,205.0 503.2,211.9 591.5,217.5 679.8,218.6 768.0,220.9" fill="none" stroke="#d62728" stroke-width="2"/>
<circle cx="62.0" cy="190.3" r="3" fill="#d62728"/>
<circle cx="238.5" cy="164.0" r="3" fill="#d62728"/>
<circle cx="415.0" cy="205.0" r="3" fill="#d62728"/>
<circle cx="503.2" cy="211.9" r="3" fill="#d62728"/>
<circle cx="591.5" cy="217.5" r="3" fill="#d62728"/>
<circle cx="679.8" cy="218.6" r="3" fill="#d62728"/>
<circle cx="768.0" cy="220.9" r="3" fill="#d62728"/>
<line x1="782" y1="74" x2="802" y2="74" stroke="#d62728" stroke-width="3"/>
<text x="806" y="78" font-size="12">zgemm</text>
<polygon points="62.0,216.2 238.5,197.9 415.0,203.5 503.2,233.5 591.5,237.9 679.8,237.9 768.0,242.8 768.0,243.9 679.8,238.3 591.5,240.5 503.2,240.9 415.0,218.0 238.5,201.8 62.0,246.2" fill="#2ca02c" opacity="0.14" stroke="none"/>
<polyline points="62.0,232.3 238.5,200.9 415.0,213.1 503.2,239.9 591.5,239.9 679.8,238.2 768.0,243.2" fill="none" stroke="#2ca02c" stroke-width="2"/>
<circle cx="62.0" cy="232.3" r="3" fill="#2ca02c"/>
<circle cx="238.5" cy="200.9" r="3" fill="#2ca02c"/>
<circle cx="415.0" cy="213.1" r="3" fill="#2ca02c"/>
<circle cx="503.2" cy="239.9" r="3" fill="#2ca02c"/>
<circle cx="591.5" cy="239.9" r="3" fill="#2ca02c"/>
<circle cx="679.8" cy="238.2" r="3" fill="#2ca02c"/>
<circle cx="768.0" cy="243.2" r="3" fill="#2ca02c"/>
<line x1="782" y1="92" x2="802" y2="92" stroke="#2ca02c" stroke-width="3"/>
<text x="806" y="96" font-size="12">symm</text>
<polygon points="62.0,178.2 238.5,193.9 415.0,209.2 503.2,217.9 591.5,218.0 679.8,235.5 768.0,249.5 768.0,249.9 679.8,236.6 591.5,221.1 503.2,224.7 415.0,216.6 238.5,196.6 62.0,184.5" fill="#9467bd" opacity="0.14" stroke="none"/>
<polyline points="62.0,183.2 238.5,195.1 415.0,214.6 503.2,222.6 591.5,220.7 679.8,236.3 768.0,249.6" fill="none" stroke="#9467bd" stroke-width="2"/>
<circle cx="62.0" cy="183.2" r="3" fill="#9467bd"/>
<circle cx="238.5" cy="195.1" r="3" fill="#9467bd"/>
<circle cx="415.0" cy="214.6" r="3" fill="#9467bd"/>
<circle cx="503.2" cy="222.6" r="3" fill="#9467bd"/>
<circle cx="591.5" cy="220.7" r="3" fill="#9467bd"/>
<circle cx="679.8" cy="236.3" r="3" fill="#9467bd"/>
<circle cx="768.0" cy="249.6" r="3" fill="#9467bd"/>
<line x1="782" y1="110" x2="802" y2="110" stroke="#9467bd" stroke-width="3"/>
<text x="806" y="114" font-size="12">syrk</text>
<polygon points="62.0,138.4 238.5,188.8 415.0,185.3 503.2,202.4 591.5,226.9 679.8,243.8 768.0,249.9 768.0,250.7 679.8,244.3 591.5,227.9 503.2,209.3 415.0,198.0 238.5,190.6 62.0,181.2" fill="#ff7f0e" opacity="0.14" stroke="none"/>
<polyline points="62.0,156.1 238.5,190.0 415.0,192.9 503.2,203.5 591.5,227.5 679.8,243.9 768.0,250.2" fill="none" stroke="#ff7f0e" stroke-width="2"/>
<circle cx="62.0" cy="156.1" r="3" fill="#ff7f0e"/>
<circle cx="238.5" cy="190.0" r="3" fill="#ff7f0e"/>
<circle cx="415.0" cy="192.9" r="3" fill="#ff7f0e"/>
<circle cx="503.2" cy="203.5" r="3" fill="#ff7f0e"/>
<circle cx="591.5" cy="227.5" r="3" fill="#ff7f0e"/>
<circle cx="679.8" cy="243.9" r="3" fill="#ff7f0e"/>
<circle cx="768.0" cy="250.2" r="3" fill="#ff7f0e"/>
<line x1="782" y1="128" x2="802" y2="128" stroke="#ff7f0e" stroke-width="3"/>
<text x="806" y="132" font-size="12">syr2k</text>
<polygon points="62.0,203.6 238.5,215.3 415.0,213.4 503.2,214.1 591.5,240.6 679.8,244.4 768.0,247.9 768.0,248.7 679.8,247.7 591.5,242.5 503.2,216.9 415.0,215.9 238.5,227.9 62.0,216.2" fill="#17becf" opacity="0.14" stroke="none"/>
<polyline points="62.0,204.2 238.5,221.6 415.0,215.5 503.2,215.8 591.5,241.5 679.8,245.6 768.0,248.5" fill="none" stroke="#17becf" stroke-width="2"/>
<circle cx="62.0" cy="204.2" r="3" fill="#17becf"/>
<circle cx="238.5" cy="221.6" r="3" fill="#17becf"/>
<circle cx="415.0" cy="215.5" r="3" fill="#17becf"/>
<circle cx="503.2" cy="215.8" r="3" fill="#17becf"/>
<circle cx="591.5" cy="241.5" r="3" fill="#17becf"/>
<circle cx="679.8" cy="245.6" r="3" fill="#17becf"/>
<circle cx="768.0" cy="248.5" r="3" fill="#17becf"/>
<line x1="782" y1="146" x2="802" y2="146" stroke="#17becf" stroke-width="3"/>
<text x="806" y="150" font-size="12">trmm</text>
<polygon points="62.0,162.1 238.5,99.5 415.0,78.8 503.2,81.1 591.5,173.9 679.8,198.0 768.0,231.9 768.0,234.1 679.8,199.9 591.5,175.8 503.2,109.7 415.0,84.3 238.5,104.0 62.0,173.8" fill="#8c564b" opacity="0.14" stroke="none"/>
<polyline points="62.0,168.2 238.5,101.8 415.0,82.0 503.2,87.3 591.5,174.3 679.8,198.1 768.0,233.5" fill="none" stroke="#8c564b" stroke-width="2"/>
<circle cx="62.0" cy="168.2" r="3" fill="#8c564b"/>
<circle cx="238.5" cy="101.8" r="3" fill="#8c564b"/>
<circle cx="415.0" cy="82.0" r="3" fill="#8c564b"/>
<circle cx="503.2" cy="87.3" r="3" fill="#8c564b"/>
<circle cx="591.5" cy="174.3" r="3" fill="#8c564b"/>
<circle cx="679.8" cy="198.1" r="3" fill="#8c564b"/>
<circle cx="768.0" cy="233.5" r="3" fill="#8c564b"/>
<line x1="782" y1="164" x2="802" y2="164" stroke="#8c564b" stroke-width="3"/>
<text x="806" y="168" font-size="12">trsm</text>
<text x="415.0" y="450" text-anchor="middle" font-size="11" fill="#666">matrix size n (log) · y = median ratio (log) · dashed = the 0.96× gate</text>
</svg>
