<svg xmlns="http://www.w3.org/2000/svg" width="962" height="592" font-family="sans-serif">
<rect width="962" height="592" fill="white"/>
<text x="481.0" y="26" text-anchor="middle" font-size="17" font-weight="bold">Complex BLAS-3 — PureBLAS / AOCL (PB/AOCL ratio)</text>
<line x1="46" y1="42" x2="68" y2="42" stroke="#d62728" stroke-width="3"/>
<text x="73" y="46" font-size="12">Zen3 · AVX2</text>
<line x1="176" y1="42" x2="198" y2="42" stroke="#2ca02c" stroke-width="3"/>
<text x="203" y="46" font-size="12">Zen5 · AVX-512</text>
<line x1="327" y1="42" x2="349" y2="42" stroke="#1f77b4" stroke-width="3"/>
<text x="354" y="46" font-size="12">Zen4 · AVX-512</text>
<rect x="46" y="60" width="210" height="138" fill="none" stroke="#e2e2e2"/>
<line x1="46" y1="140.30812533118677" x2="256" y2="140.30812533118677" stroke="#d33" stroke-dasharray="4 3"/>
<text x="42" y="201.0" text-anchor="end" font-size="9" fill="#999">0.5×</text>
<text x="42" y="143.30812533118677" text-anchor="end" font-size="9" fill="#999">1.0×</text>
<text x="42" y="63.14141098302926" text-anchor="end" font-size="9" fill="#999">2.62×</text>
<polygon points="46.0,72.0 98.5,151.6 151.0,125.2 177.2,121.8 203.5,120.4 229.8,121.1 256.0,119.7 256.0,119.8 229.8,121.5 203.5,120.8 177.2,122.2 151.0,125.8 98.5,156.3 46.0,74.3" fill="#d62728" opacity="0.11"/>
<polyline points="46.0,72.6 98.5,154.6 151.0,125.5 177.2,122.0 203.5,120.5 229.8,121.3 256.0,119.7" fill="none" stroke="#d62728" stroke-width="1.6"/>
<circle cx="46.0" cy="72.6" r="2" fill="#d62728"/>
<circle cx="98.5" cy="154.6" r="2" fill="#d62728"/>
<circle cx="151.0" cy="125.5" r="2" fill="#d62728"/>
<circle cx="177.2" cy="122.0" r="2" fill="#d62728"/>
<circle cx="203.5" cy="120.5" r="2" fill="#d62728"/>
<circle cx="229.8" cy="121.3" r="2" fill="#d62728"/>
<circle cx="256.0" cy="119.7" r="2" fill="#d62728"/>
<polygon points="46.0,66.4 98.5,131.9 151.0,143.7 177.2,138.6 203.5,140.4 229.8,139.4 256.0,138.5 256.0,138.8 229.8,139.8 203.5,140.7 177.2,139.2 151.0,144.7 98.5,139.9 46.0,74.3" fill="#2ca02c" opacity="0.11"/>
<polyline points="46.0,68.7 98.5,136.1 151.0,144.2 177.2,138.7 203.5,140.5 229.8,139.6 256.0,138.6" fill="none" stroke="#2ca02c" stroke-width="1.6"/>
<circle cx="46.0" cy="68.7" r="2" fill="#2ca02c"/>
<circle cx="98.5" cy="136.1" r="2" fill="#2ca02c"/>
<circle cx="151.0" cy="144.2" r="2" fill="#2ca02c"/>
<circle cx="177.2" cy="138.7" r="2" fill="#2ca02c"/>
<circle cx="203.5" cy="140.5" r="2" fill="#2ca02c"/>
<circle cx="229.8" cy="139.6" r="2" fill="#2ca02c"/>
<circle cx="256.0" cy="138.6" r="2" fill="#2ca02c"/>
<polygon points="46.0,83.5 98.5,136.3 151.0,142.8 177.2,138.5 203.5,139.6 229.8,139.9 256.0,140.3 256.0,140.6 229.8,140.1 203.5,139.9 177.2,138.6 151.0,143.1 98.5,142.3 46.0,86.5" fill="#1f77b4" opacity="0.11"/>
<polyline points="46.0,84.9 98.5,141.6 151.0,143.0 177.2,138.6 203.5,139.9 229.8,140.0 256.0,140.4" fill="none" stroke="#1f77b4" stroke-width="1.6"/>
<circle cx="46.0" cy="84.9" r="2" fill="#1f77b4"/>
<circle cx="98.5" cy="141.6" r="2" fill="#1f77b4"/>
<circle cx="151.0" cy="143.0" r="2" fill="#1f77b4"/>
<circle cx="177.2" cy="138.6" r="2" fill="#1f77b4"/>
<circle cx="203.5" cy="139.9" r="2" fill="#1f77b4"/>
<circle cx="229.8" cy="140.0" r="2" fill="#1f77b4"/>
<circle cx="256.0" cy="140.4" r="2" fill="#1f77b4"/>
<text x="151.0" y="55" text-anchor="middle" font-size="12" font-weight="bold">zgemm</text>
<line x1="46.0" y1="60" x2="46.0" y2="198" stroke="#f4f4f4"/>
<text x="46.0" y="209" text-anchor="middle" font-size="8" fill="#999">8</text>
<line x1="98.5" y1="60" x2="98.5" y2="198" stroke="#f4f4f4"/>
<text x="98.5" y="209" text-anchor="middle" font-size="8" fill="#999">32</text>
<line x1="151.0" y1="60" x2="151.0" y2="198" stroke="#f4f4f4"/>
<text x="151.0" y="209" text-anchor="middle" font-size="8" fill="#999">128</text>
<line x1="177.2" y1="60" x2="177.2" y2="198" stroke="#f4f4f4"/>
<text x="177.2" y="209" text-anchor="middle" font-size="8" fill="#999">256</text>
<line x1="203.5" y1="60" x2="203.5" y2="198" stroke="#f4f4f4"/>
<text x="203.5" y="209" text-anchor="middle" font-size="8" fill="#999">512</text>
<line x1="229.8" y1="60" x2="229.8" y2="198" stroke="#f4f4f4"/>
<text x="229.8" y="209" text-anchor="middle" font-size="8" fill="#999">1k</text>
<line x1="256.0" y1="60" x2="256.0" y2="198" stroke="#f4f4f4"/>
<text x="256.0" y="209" text-anchor="middle" font-size="8" fill="#999">2k</text>
<rect x="276" y="60" width="210" height="138" fill="none" stroke="#e2e2e2"/>
<line x1="276" y1="170.20060111224885" x2="486" y2="170.20060111224885" stroke="#d33" stroke-dasharray="4 3"/>
<text x="272" y="201.0" text-anchor="end" font-size="9" fill="#999">0.5×</text>
<text x="272" y="173.20060111224885" text-anchor="end" font-size="9" fill="#999">1.0×</text>
<polygon points="276.0,63.1 328.5,152.7 381.0,161.7 407.2,162.1 433.5,161.2 459.8,161.2 486.0,160.4 486.0,162.1 459.8,161.3 433.5,161.5 407.2,162.2 381.0,161.8 328.5,153.3 276.0,64.7" fill="#d62728" opacity="0.11"/>
<polyline points="276.0,63.6 328.5,153.0 381.0,161.8 407.2,162.1 433.5,161.3 459.8,161.3 486.0,160.5" fill="none" stroke="#d62728" stroke-width="1.6"/>
<circle cx="276.0" cy="63.6" r="2" fill="#d62728"/>
<circle cx="328.5" cy="153.0" r="2" fill="#d62728"/>
<circle cx="381.0" cy="161.8" r="2" fill="#d62728"/>
<circle cx="407.2" cy="162.1" r="2" fill="#d62728"/>
<circle cx="433.5" cy="161.3" r="2" fill="#d62728"/>
<circle cx="459.8" cy="161.3" r="2" fill="#d62728"/>
<circle cx="486.0" cy="160.5" r="2" fill="#d62728"/>
<polygon points="276.0,63.9 328.5,152.0 381.0,170.9 407.2,169.7 433.5,170.5 459.8,170.1 486.0,169.6 486.0,169.7 459.8,170.3 433.5,170.7 407.2,169.9 381.0,171.4 328.5,153.5 276.0,68.1" fill="#2ca02c" opacity="0.11"/>
<polyline points="276.0,65.0 328.5,152.8 381.0,171.1 407.2,169.9 433.5,170.6 459.8,170.2 486.0,169.6" fill="none" stroke="#2ca02c" stroke-width="1.6"/>
<circle cx="276.0" cy="65.0" r="2" fill="#2ca02c"/>
<circle cx="328.5" cy="152.8" r="2" fill="#2ca02c"/>
<circle cx="381.0" cy="171.1" r="2" fill="#2ca02c"/>
<circle cx="407.2" cy="169.9" r="2" fill="#2ca02c"/>
<circle cx="433.5" cy="170.6" r="2" fill="#2ca02c"/>
<circle cx="459.8" cy="170.2" r="2" fill="#2ca02c"/>
<circle cx="486.0" cy="169.6" r="2" fill="#2ca02c"/>
<polygon points="276.0,65.3 328.5,151.6 381.0,170.8 407.2,170.2 433.5,170.2 459.8,170.4 486.0,170.5 486.0,170.6 459.8,170.6 433.5,170.3 407.2,170.2 381.0,171.0 328.5,152.2 276.0,67.1" fill="#1f77b4" opacity="0.11"/>
<polyline points="276.0,66.0 328.5,151.8 381.0,170.9 407.2,170.2 433.5,170.3 459.8,170.5 486.0,170.5" fill="none" stroke="#1f77b4" stroke-width="1.6"/>
<circle cx="276.0" cy="66.0" r="2" fill="#1f77b4"/>
<circle cx="328.5" cy="151.8" r="2" fill="#1f77b4"/>
<circle cx="381.0" cy="170.9" r="2" fill="#1f77b4"/>
<circle cx="407.2" cy="170.2" r="2" fill="#1f77b4"/>
<circle cx="433.5" cy="170.3" r="2" fill="#1f77b4"/>
<circle cx="459.8" cy="170.5" r="2" fill="#1f77b4"/>
<circle cx="486.0" cy="170.5" r="2" fill="#1f77b4"/>
<text x="381.0" y="55" text-anchor="middle" font-size="12" font-weight="bold">zhemm</text>
<line x1="276.0" y1="60" x2="276.0" y2="198" stroke="#f4f4f4"/>
<text x="276.0" y="209" text-anchor="middle" font-size="8" fill="#999">8</text>
<line x1="328.5" y1="60" x2="328.5" y2="198" stroke="#f4f4f4"/>
<text x="328.5" y="209" text-anchor="middle" font-size="8" fill="#999">32</text>
<line x1="381.0" y1="60" x2="381.0" y2="198" stroke="#f4f4f4"/>
<text x="381.0" y="209" text-anchor="middle" font-size="8" fill="#999">128</text>
<line x1="407.2" y1="60" x2="407.2" y2="198" stroke="#f4f4f4"/>
<text x="407.2" y="209" text-anchor="middle" font-size="8" fill="#999">256</text>
<line x1="433.5" y1="60" x2="433.5" y2="198" stroke="#f4f4f4"/>
<text x="433.5" y="209" text-anchor="middle" font-size="8" fill="#999">512</text>
<line x1="459.8" y1="60" x2="459.8" y2="198" stroke="#f4f4f4"/>
<text x="459.8" y="209" text-anchor="middle" font-size="8" fill="#999">1k</text>
<line x1="486.0" y1="60" x2="486.0" y2="198" stroke="#f4f4f4"/>
<text x="486.0" y="209" text-anchor="middle" font-size="8" fill="#999">2k</text>
<rect x="506" y="60" width="210" height="138" fill="none" stroke="#e2e2e2"/>
<line x1="506" y1="170.76881064082704" x2="716" y2="170.76881064082704" stroke="#d33" stroke-dasharray="4 3"/>
<text x="502" y="201.0" text-anchor="end" font-size="9" fill="#999">0.5×</text>
<text x="502" y="173.76881064082704" text-anchor="end" font-size="9" fill="#999">1.0×</text>
<polygon points="506.0,63.0 558.5,157.4 611.0,164.5 637.2,163.9 663.5,162.2 689.8,162.2 716.0,161.3 716.0,161.4 689.8,162.4 663.5,162.3 637.2,164.0 611.0,164.7 558.5,158.0 506.0,64.6" fill="#d62728" opacity="0.11"/>
<polyline points="506.0,63.4 558.5,157.6 611.0,164.7 637.2,164.0 663.5,162.2 689.8,162.3 716.0,161.3" fill="none" stroke="#d62728" stroke-width="1.6"/>
<circle cx="506.0" cy="63.4" r="2" fill="#d62728"/>
<circle cx="558.5" cy="157.6" r="2" fill="#d62728"/>
<circle cx="611.0" cy="164.7" r="2" fill="#d62728"/>
<circle cx="637.2" cy="164.0" r="2" fill="#d62728"/>
<circle cx="663.5" cy="162.2" r="2" fill="#d62728"/>
<circle cx="689.8" cy="162.3" r="2" fill="#d62728"/>
<circle cx="716.0" cy="161.3" r="2" fill="#d62728"/>
<polygon points="506.0,64.2 558.5,154.9 611.0,171.5 637.2,171.4 663.5,172.5 689.8,171.1 716.0,170.6 716.0,170.6 689.8,171.5 663.5,172.9 637.2,171.6 611.0,171.9 558.5,156.1 506.0,69.2" fill="#2ca02c" opacity="0.11"/>
<polyline points="506.0,65.2 558.5,155.6 611.0,171.6 637.2,171.5 663.5,172.8 689.8,171.4 716.0,170.6" fill="none" stroke="#2ca02c" stroke-width="1.6"/>
<circle cx="506.0" cy="65.2" r="2" fill="#2ca02c"/>
<circle cx="558.5" cy="155.6" r="2" fill="#2ca02c"/>
<circle cx="611.0" cy="171.6" r="2" fill="#2ca02c"/>
<circle cx="637.2" cy="171.5" r="2" fill="#2ca02c"/>
<circle cx="663.5" cy="172.8" r="2" fill="#2ca02c"/>
<circle cx="689.8" cy="171.4" r="2" fill="#2ca02c"/>
<circle cx="716.0" cy="170.6" r="2" fill="#2ca02c"/>
<polygon points="506.0,64.6 558.5,153.8 611.0,171.5 637.2,172.3 663.5,172.7 689.8,171.9 716.0,171.6 716.0,172.1 689.8,172.0 663.5,172.8 637.2,172.7 611.0,171.8 558.5,154.8 506.0,66.4" fill="#1f77b4" opacity="0.11"/>
<polyline points="506.0,65.1 558.5,154.3 611.0,171.7 637.2,172.6 663.5,172.7 689.8,171.9 716.0,171.8" fill="none" stroke="#1f77b4" stroke-width="1.6"/>
<circle cx="506.0" cy="65.1" r="2" fill="#1f77b4"/>
<circle cx="558.5" cy="154.3" r="2" fill="#1f77b4"/>
<circle cx="611.0" cy="171.7" r="2" fill="#1f77b4"/>
<circle cx="637.2" cy="172.6" r="2" fill="#1f77b4"/>
<circle cx="663.5" cy="172.7" r="2" fill="#1f77b4"/>
<circle cx="689.8" cy="171.9" r="2" fill="#1f77b4"/>
<circle cx="716.0" cy="171.8" r="2" fill="#1f77b4"/>
<text x="611.0" y="55" text-anchor="middle" font-size="12" font-weight="bold">zsymm</text>
<line x1="506.0" y1="60" x2="506.0" y2="198" stroke="#f4f4f4"/>
<text x="506.0" y="209" text-anchor="middle" font-size="8" fill="#999">8</text>
<line x1="558.5" y1="60" x2="558.5" y2="198" stroke="#f4f4f4"/>
<text x="558.5" y="209" text-anchor="middle" font-size="8" fill="#999">32</text>
<line x1="611.0" y1="60" x2="611.0" y2="198" stroke="#f4f4f4"/>
<text x="611.0" y="209" text-anchor="middle" font-size="8" fill="#999">128</text>
<line x1="637.2" y1="60" x2="637.2" y2="198" stroke="#f4f4f4"/>
<text x="637.2" y="209" text-anchor="middle" font-size="8" fill="#999">256</text>
<line x1="663.5" y1="60" x2="663.5" y2="198" stroke="#f4f4f4"/>
<text x="663.5" y="209" text-anchor="middle" font-size="8" fill="#999">512</text>
<line x1="689.8" y1="60" x2="689.8" y2="198" stroke="#f4f4f4"/>
<text x="689.8" y="209" text-anchor="middle" font-size="8" fill="#999">1k</text>
<line x1="716.0" y1="60" x2="716.0" y2="198" stroke="#f4f4f4"/>
<text x="716.0" y="209" text-anchor="middle" font-size="8" fill="#999">2k</text>
<rect x="736" y="60" width="210" height="138" fill="none" stroke="#e2e2e2"/>
<line x1="736" y1="165.86246682851254" x2="946" y2="165.86246682851254" stroke="#d33" stroke-dasharray="4 3"/>
<text x="732" y="201.0" text-anchor="end" font-size="9" fill="#999">0.5×</text>
<text x="732" y="168.86246682851254" text-anchor="end" font-size="9" fill="#999">1.0×</text>
<polygon points="736.0,70.8 788.5,154.5 841.0,163.6 867.2,159.4 893.5,156.5 919.8,155.9 946.0,154.9 946.0,155.2 919.8,156.4 893.5,156.9 867.2,159.9 841.0,164.4 788.5,155.3 736.0,72.7" fill="#d62728" opacity="0.11"/>
<polyline points="736.0,70.9 788.5,155.0 841.0,163.8 867.2,159.8 893.5,156.7 919.8,156.1 946.0,155.1" fill="none" stroke="#d62728" stroke-width="1.6"/>
<circle cx="736.0" cy="70.9" r="2" fill="#d62728"/>
<circle cx="788.5" cy="155.0" r="2" fill="#d62728"/>
<circle cx="841.0" cy="163.8" r="2" fill="#d62728"/>
<circle cx="867.2" cy="159.8" r="2" fill="#d62728"/>
<circle cx="893.5" cy="156.7" r="2" fill="#d62728"/>
<circle cx="919.8" cy="156.1" r="2" fill="#d62728"/>
<circle cx="946.0" cy="155.1" r="2" fill="#d62728"/>
<polygon points="736.0,79.1 788.5,164.8 841.0,165.3 867.2,167.5 893.5,167.5 919.8,166.2 946.0,166.0 946.0,166.2 919.8,167.0 893.5,168.5 867.2,167.9 841.0,166.7 788.5,165.9 736.0,82.2" fill="#2ca02c" opacity="0.11"/>
<polyline points="736.0,79.7 788.5,165.3 841.0,166.4 867.2,167.6 893.5,168.2 919.8,166.4 946.0,166.1" fill="none" stroke="#2ca02c" stroke-width="1.6"/>
<circle cx="736.0" cy="79.7" r="2" fill="#2ca02c"/>
<circle cx="788.5" cy="165.3" r="2" fill="#2ca02c"/>
<circle cx="841.0" cy="166.4" r="2" fill="#2ca02c"/>
<circle cx="867.2" cy="167.6" r="2" fill="#2ca02c"/>
<circle cx="893.5" cy="168.2" r="2" fill="#2ca02c"/>
<circle cx="919.8" cy="166.4" r="2" fill="#2ca02c"/>
<circle cx="946.0" cy="166.1" r="2" fill="#2ca02c"/>
<polygon points="736.0,63.6 788.5,157.6 841.0,164.1 867.2,167.4 893.5,167.7 919.8,166.9 946.0,166.6 946.0,166.7 919.8,167.0 893.5,167.9 867.2,167.8 841.0,164.3 788.5,158.9 736.0,66.9" fill="#1f77b4" opacity="0.11"/>
<polyline points="736.0,64.0 788.5,158.5 841.0,164.2 867.2,167.6 893.5,167.9 919.8,166.9 946.0,166.6" fill="none" stroke="#1f77b4" stroke-width="1.6"/>
<circle cx="736.0" cy="64.0" r="2" fill="#1f77b4"/>
<circle cx="788.5" cy="158.5" r="2" fill="#1f77b4"/>
<circle cx="841.0" cy="164.2" r="2" fill="#1f77b4"/>
<circle cx="867.2" cy="167.6" r="2" fill="#1f77b4"/>
<circle cx="893.5" cy="167.9" r="2" fill="#1f77b4"/>
<circle cx="919.8" cy="166.9" r="2" fill="#1f77b4"/>
<circle cx="946.0" cy="166.6" r="2" fill="#1f77b4"/>
<text x="841.0" y="55" text-anchor="middle" font-size="12" font-weight="bold">zsyrk</text>
<line x1="736.0" y1="60" x2="736.0" y2="198" stroke="#f4f4f4"/>
<text x="736.0" y="209" text-anchor="middle" font-size="8" fill="#999">8</text>
<line x1="788.5" y1="60" x2="788.5" y2="198" stroke="#f4f4f4"/>
<text x="788.5" y="209" text-anchor="middle" font-size="8" fill="#999">32</text>
<line x1="841.0" y1="60" x2="841.0" y2="198" stroke="#f4f4f4"/>
<text x="841.0" y="209" text-anchor="middle" font-size="8" fill="#999">128</text>
<line x1="867.2" y1="60" x2="867.2" y2="198" stroke="#f4f4f4"/>
<text x="867.2" y="209" text-anchor="middle" font-size="8" fill="#999">256</text>
<line x1="893.5" y1="60" x2="893.5" y2="198" stroke="#f4f4f4"/>
<text x="893.5" y="209" text-anchor="middle" font-size="8" fill="#999">512</text>
<line x1="919.8" y1="60" x2="919.8" y2="198" stroke="#f4f4f4"/>
<text x="919.8" y="209" text-anchor="middle" font-size="8" fill="#999">1k</text>
<line x1="946.0" y1="60" x2="946.0" y2="198" stroke="#f4f4f4"/>
<text x="946.0" y="209" text-anchor="middle" font-size="8" fill="#999">2k</text>
<rect x="46" y="232" width="210" height="138" fill="none" stroke="#e2e2e2"/>
<line x1="46" y1="345.10787476765285" x2="256" y2="345.10787476765285" stroke="#d33" stroke-dasharray="4 3"/>
<text x="42" y="373.0" text-anchor="end" font-size="9" fill="#999">0.5×</text>
<text x="42" y="348.10787476765285" text-anchor="end" font-size="9" fill="#999">1.0×</text>
<polygon points="46.0,239.6 98.5,315.7 151.0,337.9 177.2,339.6 203.5,337.2 229.8,337.5 256.0,335.9 256.0,336.0 229.8,337.8 203.5,337.6 177.2,339.7 151.0,338.5 98.5,317.9 46.0,240.7" fill="#d62728" opacity="0.11"/>
<polyline points="46.0,239.8 98.5,316.1 151.0,338.1 177.2,339.7 203.5,337.5 229.8,337.7 256.0,336.0" fill="none" stroke="#d62728" stroke-width="1.6"/>
<circle cx="46.0" cy="239.8" r="2" fill="#d62728"/>
<circle cx="98.5" cy="316.1" r="2" fill="#d62728"/>
<circle cx="151.0" cy="338.1" r="2" fill="#d62728"/>
<circle cx="177.2" cy="339.7" r="2" fill="#d62728"/>
<circle cx="203.5" cy="337.5" r="2" fill="#d62728"/>
<circle cx="229.8" cy="337.7" r="2" fill="#d62728"/>
<circle cx="256.0" cy="336.0" r="2" fill="#d62728"/>
<polygon points="46.0,234.8 98.5,324.5 151.0,341.9 177.2,345.1 203.5,343.4 229.8,344.4 256.0,344.9 256.0,345.0 229.8,345.0 203.5,344.3 177.2,345.4 151.0,342.6 98.5,328.6 46.0,236.0" fill="#2ca02c" opacity="0.11"/>
<polyline points="46.0,235.3 98.5,325.4 151.0,342.3 177.2,345.2 203.5,344.0 229.8,344.6 256.0,345.0" fill="none" stroke="#2ca02c" stroke-width="1.6"/>
<circle cx="46.0" cy="235.3" r="2" fill="#2ca02c"/>
<circle cx="98.5" cy="325.4" r="2" fill="#2ca02c"/>
<circle cx="151.0" cy="342.3" r="2" fill="#2ca02c"/>
<circle cx="177.2" cy="345.2" r="2" fill="#2ca02c"/>
<circle cx="203.5" cy="344.0" r="2" fill="#2ca02c"/>
<circle cx="229.8" cy="344.6" r="2" fill="#2ca02c"/>
<circle cx="256.0" cy="345.0" r="2" fill="#2ca02c"/>
<polygon points="46.0,234.9 98.5,322.2 151.0,339.1 177.2,344.9 203.5,344.7 229.8,345.6 256.0,345.5 256.0,345.6 229.8,346.0 203.5,344.9 177.2,345.1 151.0,339.7 98.5,323.3 46.0,237.5" fill="#1f77b4" opacity="0.11"/>
<polyline points="46.0,235.2 98.5,322.5 151.0,339.5 177.2,345.0 203.5,344.9 229.8,345.8 256.0,345.6" fill="none" stroke="#1f77b4" stroke-width="1.6"/>
<circle cx="46.0" cy="235.2" r="2" fill="#1f77b4"/>
<circle cx="98.5" cy="322.5" r="2" fill="#1f77b4"/>
<circle cx="151.0" cy="339.5" r="2" fill="#1f77b4"/>
<circle cx="177.2" cy="345.0" r="2" fill="#1f77b4"/>
<circle cx="203.5" cy="344.9" r="2" fill="#1f77b4"/>
<circle cx="229.8" cy="345.8" r="2" fill="#1f77b4"/>
<circle cx="256.0" cy="345.6" r="2" fill="#1f77b4"/>
<text x="151.0" y="227" text-anchor="middle" font-size="12" font-weight="bold">zherk</text>
<line x1="46.0" y1="232" x2="46.0" y2="370" stroke="#f4f4f4"/>
<text x="46.0" y="381" text-anchor="middle" font-size="8" fill="#999">8</text>
<line x1="98.5" y1="232" x2="98.5" y2="370" stroke="#f4f4f4"/>
<text x="98.5" y="381" text-anchor="middle" font-size="8" fill="#999">32</text>
<line x1="151.0" y1="232" x2="151.0" y2="370" stroke="#f4f4f4"/>
<text x="151.0" y="381" text-anchor="middle" font-size="8" fill="#999">128</text>
<line x1="177.2" y1="232" x2="177.2" y2="370" stroke="#f4f4f4"/>
<text x="177.2" y="381" text-anchor="middle" font-size="8" fill="#999">256</text>
<line x1="203.5" y1="232" x2="203.5" y2="370" stroke="#f4f4f4"/>
<text x="203.5" y="381" text-anchor="middle" font-size="8" fill="#999">512</text>
<line x1="229.8" y1="232" x2="229.8" y2="370" stroke="#f4f4f4"/>
<text x="229.8" y="381" text-anchor="middle" font-size="8" fill="#999">1k</text>
<line x1="256.0" y1="232" x2="256.0" y2="370" stroke="#f4f4f4"/>
<text x="256.0" y="381" text-anchor="middle" font-size="8" fill="#999">2k</text>
<rect x="276" y="232" width="210" height="138" fill="none" stroke="#e2e2e2"/>
<line x1="276" y1="345.2669445279166" x2="486" y2="345.2669445279166" stroke="#d33" stroke-dasharray="4 3"/>
<text x="272" y="373.0" text-anchor="end" font-size="9" fill="#999">0.5×</text>
<text x="272" y="348.2669445279166" text-anchor="end" font-size="9" fill="#999">1.0×</text>
<text x="272" y="235.00087264180414" text-anchor="end" font-size="9" fill="#999">23.91×</text>
<polygon points="276.0,239.8 328.5,314.3 381.0,338.5 407.2,339.8 433.5,337.4 459.8,337.4 486.0,335.8 486.0,336.0 459.8,337.6 433.5,337.8 407.2,340.0 381.0,338.7 328.5,316.8 276.0,241.1" fill="#d62728" opacity="0.11"/>
<polyline points="276.0,240.1 328.5,314.9 381.0,338.6 407.2,340.0 433.5,337.6 459.8,337.5 486.0,336.0" fill="none" stroke="#d62728" stroke-width="1.6"/>
<circle cx="276.0" cy="240.1" r="2" fill="#d62728"/>
<circle cx="328.5" cy="314.9" r="2" fill="#d62728"/>
<circle cx="381.0" cy="338.6" r="2" fill="#d62728"/>
<circle cx="407.2" cy="340.0" r="2" fill="#d62728"/>
<circle cx="433.5" cy="337.6" r="2" fill="#d62728"/>
<circle cx="459.8" cy="337.5" r="2" fill="#d62728"/>
<circle cx="486.0" cy="336.0" r="2" fill="#d62728"/>
<polygon points="276.0,234.7 328.5,322.8 381.0,341.5 407.2,345.0 433.5,345.4 459.8,344.4 486.0,345.1 486.0,345.4 459.8,344.7 433.5,345.7 407.2,345.5 381.0,341.9 328.5,326.1 276.0,237.3" fill="#2ca02c" opacity="0.11"/>
<polyline points="276.0,235.3 328.5,325.1 381.0,341.7 407.2,345.3 433.5,345.5 459.8,344.5 486.0,345.2" fill="none" stroke="#2ca02c" stroke-width="1.6"/>
<circle cx="276.0" cy="235.3" r="2" fill="#2ca02c"/>
<circle cx="328.5" cy="325.1" r="2" fill="#2ca02c"/>
<circle cx="381.0" cy="341.7" r="2" fill="#2ca02c"/>
<circle cx="407.2" cy="345.3" r="2" fill="#2ca02c"/>
<circle cx="433.5" cy="345.5" r="2" fill="#2ca02c"/>
<circle cx="459.8" cy="344.5" r="2" fill="#2ca02c"/>
<circle cx="486.0" cy="345.2" r="2" fill="#2ca02c"/>
<polygon points="276.0,235.1 328.5,321.6 381.0,338.7 407.2,344.9 433.5,345.0 459.8,345.8 486.0,345.8 486.0,346.0 459.8,346.0 433.5,345.3 407.2,345.1 381.0,339.1 328.5,322.2 276.0,238.0" fill="#1f77b4" opacity="0.11"/>
<polyline points="276.0,235.7 328.5,321.8 381.0,339.0 407.2,345.0 433.5,345.1 459.8,345.9 486.0,345.9" fill="none" stroke="#1f77b4" stroke-width="1.6"/>
<circle cx="276.0" cy="235.7" r="2" fill="#1f77b4"/>
<circle cx="328.5" cy="321.8" r="2" fill="#1f77b4"/>
<circle cx="381.0" cy="339.0" r="2" fill="#1f77b4"/>
<circle cx="407.2" cy="345.0" r="2" fill="#1f77b4"/>
<circle cx="433.5" cy="345.1" r="2" fill="#1f77b4"/>
<circle cx="459.8" cy="345.9" r="2" fill="#1f77b4"/>
<circle cx="486.0" cy="345.9" r="2" fill="#1f77b4"/>
<text x="381.0" y="227" text-anchor="middle" font-size="12" font-weight="bold">zher2k</text>
<line x1="276.0" y1="232" x2="276.0" y2="370" stroke="#f4f4f4"/>
<text x="276.0" y="381" text-anchor="middle" font-size="8" fill="#999">8</text>
<line x1="328.5" y1="232" x2="328.5" y2="370" stroke="#f4f4f4"/>
<text x="328.5" y="381" text-anchor="middle" font-size="8" fill="#999">32</text>
<line x1="381.0" y1="232" x2="381.0" y2="370" stroke="#f4f4f4"/>
<text x="381.0" y="381" text-anchor="middle" font-size="8" fill="#999">128</text>
<line x1="407.2" y1="232" x2="407.2" y2="370" stroke="#f4f4f4"/>
<text x="407.2" y="381" text-anchor="middle" font-size="8" fill="#999">256</text>
<line x1="433.5" y1="232" x2="433.5" y2="370" stroke="#f4f4f4"/>
<text x="433.5" y="381" text-anchor="middle" font-size="8" fill="#999">512</text>
<line x1="459.8" y1="232" x2="459.8" y2="370" stroke="#f4f4f4"/>
<text x="459.8" y="381" text-anchor="middle" font-size="8" fill="#999">1k</text>
<line x1="486.0" y1="232" x2="486.0" y2="370" stroke="#f4f4f4"/>
<text x="486.0" y="381" text-anchor="middle" font-size="8" fill="#999">2k</text>
<rect x="506" y="232" width="210" height="138" fill="none" stroke="#e2e2e2"/>
<line x1="506" y1="344.9116035088944" x2="716" y2="344.9116035088944" stroke="#d33" stroke-dasharray="4 3"/>
<text x="502" y="373.0" text-anchor="end" font-size="9" fill="#999">0.5×</text>
<text x="502" y="347.9116035088944" text-anchor="end" font-size="9" fill="#999">1.0×</text>
<polygon points="506.0,240.3 558.5,322.5 611.0,343.9 637.2,341.6 663.5,339.0 689.8,338.5 716.0,336.8 716.0,338.7 689.8,338.8 663.5,339.4 637.2,341.8 611.0,344.1 558.5,325.1 506.0,241.4" fill="#d62728" opacity="0.11"/>
<polyline points="506.0,240.5 558.5,323.3 611.0,344.0 637.2,341.7 663.5,339.2 689.8,338.7 716.0,336.9" fill="none" stroke="#d62728" stroke-width="1.6"/>
<circle cx="506.0" cy="240.5" r="2" fill="#d62728"/>
<circle cx="558.5" cy="323.3" r="2" fill="#d62728"/>
<circle cx="611.0" cy="344.0" r="2" fill="#d62728"/>
<circle cx="637.2" cy="341.7" r="2" fill="#d62728"/>
<circle cx="663.5" cy="339.2" r="2" fill="#d62728"/>
<circle cx="689.8" cy="338.7" r="2" fill="#d62728"/>
<circle cx="716.0" cy="336.9" r="2" fill="#d62728"/>
<polygon points="506.0,235.4 558.5,328.8 611.0,344.3 637.2,346.3 663.5,346.6 689.8,345.1 716.0,345.0 716.0,345.1 689.8,345.4 663.5,347.0 637.2,346.7 611.0,344.9 558.5,331.9 506.0,237.9" fill="#2ca02c" opacity="0.11"/>
<polyline points="506.0,236.1 558.5,330.8 611.0,344.6 637.2,346.5 663.5,346.8 689.8,345.2 716.0,345.1" fill="none" stroke="#2ca02c" stroke-width="1.6"/>
<circle cx="506.0" cy="236.1" r="2" fill="#2ca02c"/>
<circle cx="558.5" cy="330.8" r="2" fill="#2ca02c"/>
<circle cx="611.0" cy="344.6" r="2" fill="#2ca02c"/>
<circle cx="637.2" cy="346.5" r="2" fill="#2ca02c"/>
<circle cx="663.5" cy="346.8" r="2" fill="#2ca02c"/>
<circle cx="689.8" cy="345.2" r="2" fill="#2ca02c"/>
<circle cx="716.0" cy="345.1" r="2" fill="#2ca02c"/>
<polygon points="506.0,234.8 558.5,327.1 611.0,342.9 637.2,346.0 663.5,345.8 689.8,345.4 716.0,344.8 716.0,345.3 689.8,345.6 663.5,346.1 637.2,346.1 611.0,343.0 558.5,327.6 506.0,236.2" fill="#1f77b4" opacity="0.11"/>
<polyline points="506.0,235.1 558.5,327.3 611.0,343.0 637.2,346.0 663.5,345.9 689.8,345.5 716.0,345.0" fill="none" stroke="#1f77b4" stroke-width="1.6"/>
<circle cx="506.0" cy="235.1" r="2" fill="#1f77b4"/>
<circle cx="558.5" cy="327.3" r="2" fill="#1f77b4"/>
<circle cx="611.0" cy="343.0" r="2" fill="#1f77b4"/>
<circle cx="637.2" cy="346.0" r="2" fill="#1f77b4"/>
<circle cx="663.5" cy="345.9" r="2" fill="#1f77b4"/>
<circle cx="689.8" cy="345.5" r="2" fill="#1f77b4"/>
<circle cx="716.0" cy="345.0" r="2" fill="#1f77b4"/>
<text x="611.0" y="227" text-anchor="middle" font-size="12" font-weight="bold">zsyr2k</text>
<line x1="506.0" y1="232" x2="506.0" y2="370" stroke="#f4f4f4"/>
<text x="506.0" y="381" text-anchor="middle" font-size="8" fill="#999">8</text>
<line x1="558.5" y1="232" x2="558.5" y2="370" stroke="#f4f4f4"/>
<text x="558.5" y="381" text-anchor="middle" font-size="8" fill="#999">32</text>
<line x1="611.0" y1="232" x2="611.0" y2="370" stroke="#f4f4f4"/>
<text x="611.0" y="381" text-anchor="middle" font-size="8" fill="#999">128</text>
<line x1="637.2" y1="232" x2="637.2" y2="370" stroke="#f4f4f4"/>
<text x="637.2" y="381" text-anchor="middle" font-size="8" fill="#999">256</text>
<line x1="663.5" y1="232" x2="663.5" y2="370" stroke="#f4f4f4"/>
<text x="663.5" y="381" text-anchor="middle" font-size="8" fill="#999">512</text>
<line x1="689.8" y1="232" x2="689.8" y2="370" stroke="#f4f4f4"/>
<text x="689.8" y="381" text-anchor="middle" font-size="8" fill="#999">1k</text>
<line x1="716.0" y1="232" x2="716.0" y2="370" stroke="#f4f4f4"/>
<text x="716.0" y="381" text-anchor="middle" font-size="8" fill="#999">2k</text>
<rect x="736" y="232" width="210" height="138" fill="none" stroke="#e2e2e2"/>
<line x1="736" y1="343.57821605040954" x2="946" y2="343.57821605040954" stroke="#d33" stroke-dasharray="4 3"/>
<text x="732" y="373.0" text-anchor="end" font-size="9" fill="#999">0.5×</text>
<text x="732" y="346.57821605040954" text-anchor="end" font-size="9" fill="#999">1.0×</text>
<text x="732" y="235.00826946246332" text-anchor="end" font-size="9" fill="#999">18.67×</text>
<polygon points="736.0,241.3 788.5,329.5 841.0,345.9 867.2,343.5 893.5,341.0 919.8,338.8 946.0,337.3 946.0,337.4 919.8,338.9 893.5,341.1 867.2,343.8 841.0,346.0 788.5,330.2 736.0,242.8" fill="#d62728" opacity="0.11"/>
<polyline points="736.0,241.7 788.5,329.7 841.0,346.0 867.2,343.7 893.5,341.0 919.8,338.8 946.0,337.3" fill="none" stroke="#d62728" stroke-width="1.6"/>
<circle cx="736.0" cy="241.7" r="2" fill="#d62728"/>
<circle cx="788.5" cy="329.7" r="2" fill="#d62728"/>
<circle cx="841.0" cy="346.0" r="2" fill="#d62728"/>
<circle cx="867.2" cy="343.7" r="2" fill="#d62728"/>
<circle cx="893.5" cy="341.0" r="2" fill="#d62728"/>
<circle cx="919.8" cy="338.8" r="2" fill="#d62728"/>
<circle cx="946.0" cy="337.3" r="2" fill="#d62728"/>
<polygon points="736.0,234.9 788.5,329.2 841.0,344.3 867.2,345.3 893.5,344.6 919.8,344.6 946.0,343.7 946.0,343.9 919.8,344.8 893.5,344.8 867.2,345.4 841.0,344.8 788.5,331.5 736.0,241.2" fill="#2ca02c" opacity="0.11"/>
<polyline points="736.0,236.0 788.5,330.8 841.0,344.5 867.2,345.3 893.5,344.7 919.8,344.7 946.0,343.8" fill="none" stroke="#2ca02c" stroke-width="1.6"/>
<circle cx="736.0" cy="236.0" r="2" fill="#2ca02c"/>
<circle cx="788.5" cy="330.8" r="2" fill="#2ca02c"/>
<circle cx="841.0" cy="344.5" r="2" fill="#2ca02c"/>
<circle cx="867.2" cy="345.3" r="2" fill="#2ca02c"/>
<circle cx="893.5" cy="344.7" r="2" fill="#2ca02c"/>
<circle cx="919.8" cy="344.7" r="2" fill="#2ca02c"/>
<circle cx="946.0" cy="343.8" r="2" fill="#2ca02c"/>
<polygon points="736.0,236.4 788.5,325.8 841.0,344.8 867.2,345.8 893.5,345.0 919.8,344.6 946.0,344.7 946.0,345.1 919.8,345.0 893.5,345.1 867.2,346.0 841.0,345.1 788.5,326.4 736.0,238.4" fill="#1f77b4" opacity="0.11"/>
<polyline points="736.0,236.7 788.5,326.0 841.0,345.0 867.2,345.9 893.5,345.1 919.8,344.6 946.0,344.9" fill="none" stroke="#1f77b4" stroke-width="1.6"/>
<circle cx="736.0" cy="236.7" r="2" fill="#1f77b4"/>
<circle cx="788.5" cy="326.0" r="2" fill="#1f77b4"/>
<circle cx="841.0" cy="345.0" r="2" fill="#1f77b4"/>
<circle cx="867.2" cy="345.9" r="2" fill="#1f77b4"/>
<circle cx="893.5" cy="345.1" r="2" fill="#1f77b4"/>
<circle cx="919.8" cy="344.6" r="2" fill="#1f77b4"/>
<circle cx="946.0" cy="344.9" r="2" fill="#1f77b4"/>
<text x="841.0" y="227" text-anchor="middle" font-size="12" font-weight="bold">ztrmm</text>
<line x1="736.0" y1="232" x2="736.0" y2="370" stroke="#f4f4f4"/>
<text x="736.0" y="381" text-anchor="middle" font-size="8" fill="#999">8</text>
<line x1="788.5" y1="232" x2="788.5" y2="370" stroke="#f4f4f4"/>
<text x="788.5" y="381" text-anchor="middle" font-size="8" fill="#999">32</text>
<line x1="841.0" y1="232" x2="841.0" y2="370" stroke="#f4f4f4"/>
<text x="841.0" y="381" text-anchor="middle" font-size="8" fill="#999">128</text>
<line x1="867.2" y1="232" x2="867.2" y2="370" stroke="#f4f4f4"/>
<text x="867.2" y="381" text-anchor="middle" font-size="8" fill="#999">256</text>
<line x1="893.5" y1="232" x2="893.5" y2="370" stroke="#f4f4f4"/>
<text x="893.5" y="381" text-anchor="middle" font-size="8" fill="#999">512</text>
<line x1="919.8" y1="232" x2="919.8" y2="370" stroke="#f4f4f4"/>
<text x="919.8" y="381" text-anchor="middle" font-size="8" fill="#999">1k</text>
<line x1="946.0" y1="232" x2="946.0" y2="370" stroke="#f4f4f4"/>
<text x="946.0" y="381" text-anchor="middle" font-size="8" fill="#999">2k</text>
<rect x="46" y="404" width="210" height="138" fill="none" stroke="#e2e2e2"/>
<line x1="46" y1="459.7627611906553" x2="256" y2="459.7627611906553" stroke="#d33" stroke-dasharray="4 3"/>
<text x="42" y="545.0" text-anchor="end" font-size="9" fill="#999">0.5×</text>
<text x="42" y="462.7627611906553" text-anchor="end" font-size="9" fill="#999">1.0×</text>
<text x="42" y="407.0" text-anchor="end" font-size="9" fill="#999">1.6×</text>
<polygon points="46.0,437.6 98.5,493.8 151.0,509.9 177.2,474.8 203.5,455.6 229.8,446.6 256.0,428.1 256.0,429.6 229.8,447.0 203.5,456.7 177.2,478.0 151.0,510.9 98.5,498.1 46.0,439.3" fill="#d62728" opacity="0.11"/>
<polyline points="46.0,438.4 98.5,497.3 151.0,510.8 177.2,476.6 203.5,456.5 229.8,446.8 256.0,428.4" fill="none" stroke="#d62728" stroke-width="1.6"/>
<circle cx="46.0" cy="438.4" r="2" fill="#d62728"/>
<circle cx="98.5" cy="497.3" r="2" fill="#d62728"/>
<circle cx="151.0" cy="510.8" r="2" fill="#d62728"/>
<circle cx="177.2" cy="476.6" r="2" fill="#d62728"/>
<circle cx="203.5" cy="456.5" r="2" fill="#d62728"/>
<circle cx="229.8" cy="446.8" r="2" fill="#d62728"/>
<circle cx="256.0" cy="428.4" r="2" fill="#d62728"/>
<polygon points="46.0,454.5 98.5,509.4 151.0,485.4 177.2,481.4 203.5,464.3 229.8,459.0 256.0,457.8 256.0,458.1 229.8,459.7 203.5,466.2 177.2,481.8 151.0,486.6 98.5,518.7 46.0,458.6" fill="#2ca02c" opacity="0.11"/>
<polyline points="46.0,456.0 98.5,511.8 151.0,486.1 177.2,481.6 203.5,465.7 229.8,459.4 256.0,458.0" fill="none" stroke="#2ca02c" stroke-width="1.6"/>
<circle cx="46.0" cy="456.0" r="2" fill="#2ca02c"/>
<circle cx="98.5" cy="511.8" r="2" fill="#2ca02c"/>
<circle cx="151.0" cy="486.1" r="2" fill="#2ca02c"/>
<circle cx="177.2" cy="481.6" r="2" fill="#2ca02c"/>
<circle cx="203.5" cy="465.7" r="2" fill="#2ca02c"/>
<circle cx="229.8" cy="459.4" r="2" fill="#2ca02c"/>
<circle cx="256.0" cy="458.0" r="2" fill="#2ca02c"/>
<polygon points="46.0,471.9 98.5,510.3 151.0,506.5 177.2,426.8 203.5,462.3 229.8,453.6 256.0,450.5 256.0,455.2 229.8,454.6 203.5,463.6 177.2,440.6 151.0,508.7 98.5,513.8 46.0,473.7" fill="#1f77b4" opacity="0.11"/>
<polyline points="46.0,472.6 98.5,511.8 151.0,508.4 177.2,432.5 203.5,463.3 229.8,453.9 256.0,454.8" fill="none" stroke="#1f77b4" stroke-width="1.6"/>
<circle cx="46.0" cy="472.6" r="2" fill="#1f77b4"/>
<circle cx="98.5" cy="511.8" r="2" fill="#1f77b4"/>
<circle cx="151.0" cy="508.4" r="2" fill="#1f77b4"/>
<circle cx="177.2" cy="432.5" r="2" fill="#1f77b4"/>
<circle cx="203.5" cy="463.3" r="2" fill="#1f77b4"/>
<circle cx="229.8" cy="453.9" r="2" fill="#1f77b4"/>
<circle cx="256.0" cy="454.8" r="2" fill="#1f77b4"/>
<text x="151.0" y="399" text-anchor="middle" font-size="12" font-weight="bold">ztrsm</text>
<line x1="46.0" y1="404" x2="46.0" y2="542" stroke="#f4f4f4"/>
<text x="46.0" y="553" text-anchor="middle" font-size="8" fill="#999">8</text>
<line x1="98.5" y1="404" x2="98.5" y2="542" stroke="#f4f4f4"/>
<text x="98.5" y="553" text-anchor="middle" font-size="8" fill="#999">32</text>
<line x1="151.0" y1="404" x2="151.0" y2="542" stroke="#f4f4f4"/>
<text x="151.0" y="553" text-anchor="middle" font-size="8" fill="#999">128</text>
<line x1="177.2" y1="404" x2="177.2" y2="542" stroke="#f4f4f4"/>
<text x="177.2" y="553" text-anchor="middle" font-size="8" fill="#999">256</text>
<line x1="203.5" y1="404" x2="203.5" y2="542" stroke="#f4f4f4"/>
<text x="203.5" y="553" text-anchor="middle" font-size="8" fill="#999">512</text>
<line x1="229.8" y1="404" x2="229.8" y2="542" stroke="#f4f4f4"/>
<text x="229.8" y="553" text-anchor="middle" font-size="8" fill="#999">1k</text>
<line x1="256.0" y1="404" x2="256.0" y2="542" stroke="#f4f4f4"/>
<text x="256.0" y="553" text-anchor="middle" font-size="8" fill="#999">2k</text>
<rect x="276" y="404" width="210" height="138" fill="none" stroke="#e2e2e2"/>
<line x1="276" y1="516.2165344171672" x2="486" y2="516.2165344171672" stroke="#d33" stroke-dasharray="4 3"/>
<text x="272" y="545.0" text-anchor="end" font-size="9" fill="#999">0.5×</text>
<text x="272" y="519.2165344171672" text-anchor="end" font-size="9" fill="#999">1.0×</text>
<polygon points="276.0,417.8 328.5,504.2 381.0,516.4 407.2,514.9 433.5,512.5 459.8,510.9 486.0,509.4 486.0,509.5 459.8,510.9 433.5,512.7 407.2,515.1 381.0,516.5 328.5,505.6 276.0,419.4" fill="#d62728" opacity="0.11"/>
<polyline points="276.0,418.2 328.5,504.4 381.0,516.5 407.2,515.0 433.5,512.6 459.8,510.9 486.0,509.5" fill="none" stroke="#d62728" stroke-width="1.6"/>
<circle cx="276.0" cy="418.2" r="2" fill="#d62728"/>
<circle cx="328.5" cy="504.4" r="2" fill="#d62728"/>
<circle cx="381.0" cy="516.5" r="2" fill="#d62728"/>
<circle cx="407.2" cy="515.0" r="2" fill="#d62728"/>
<circle cx="433.5" cy="512.6" r="2" fill="#d62728"/>
<circle cx="459.8" cy="510.9" r="2" fill="#d62728"/>
<circle cx="486.0" cy="509.5" r="2" fill="#d62728"/>
<polygon points="276.0,406.9 328.5,500.0 381.0,516.4 407.2,515.8 433.5,516.7 459.8,516.8 486.0,516.2 486.0,516.3 459.8,516.9 433.5,516.9 407.2,516.0 381.0,517.0 328.5,504.5 276.0,410.0" fill="#2ca02c" opacity="0.11"/>
<polyline points="276.0,407.8 328.5,503.8 381.0,516.6 407.2,515.9 433.5,516.8 459.8,516.8 486.0,516.3" fill="none" stroke="#2ca02c" stroke-width="1.6"/>
<circle cx="276.0" cy="407.8" r="2" fill="#2ca02c"/>
<circle cx="328.5" cy="503.8" r="2" fill="#2ca02c"/>
<circle cx="381.0" cy="516.6" r="2" fill="#2ca02c"/>
<circle cx="407.2" cy="515.9" r="2" fill="#2ca02c"/>
<circle cx="433.5" cy="516.8" r="2" fill="#2ca02c"/>
<circle cx="459.8" cy="516.8" r="2" fill="#2ca02c"/>
<circle cx="486.0" cy="516.3" r="2" fill="#2ca02c"/>
<polygon points="276.0,408.2 328.5,494.2 381.0,514.7 407.2,516.8 433.5,517.1 459.8,517.0 486.0,516.5 486.0,517.3 459.8,517.2 433.5,517.3 407.2,517.1 381.0,515.6 328.5,495.0 276.0,410.5" fill="#1f77b4" opacity="0.11"/>
<polyline points="276.0,408.8 328.5,494.6 381.0,515.5 407.2,516.9 433.5,517.2 459.8,517.1 486.0,516.9" fill="none" stroke="#1f77b4" stroke-width="1.6"/>
<circle cx="276.0" cy="408.8" r="2" fill="#1f77b4"/>
<circle cx="328.5" cy="494.6" r="2" fill="#1f77b4"/>
<circle cx="381.0" cy="515.5" r="2" fill="#1f77b4"/>
<circle cx="407.2" cy="516.9" r="2" fill="#1f77b4"/>
<circle cx="433.5" cy="517.2" r="2" fill="#1f77b4"/>
<circle cx="459.8" cy="517.1" r="2" fill="#1f77b4"/>
<circle cx="486.0" cy="516.9" r="2" fill="#1f77b4"/>
<text x="381.0" y="399" text-anchor="middle" font-size="12" font-weight="bold">ztrmmR</text>
<line x1="276.0" y1="404" x2="276.0" y2="542" stroke="#f4f4f4"/>
<text x="276.0" y="553" text-anchor="middle" font-size="8" fill="#999">8</text>
<line x1="328.5" y1="404" x2="328.5" y2="542" stroke="#f4f4f4"/>
<text x="328.5" y="553" text-anchor="middle" font-size="8" fill="#999">32</text>
<line x1="381.0" y1="404" x2="381.0" y2="542" stroke="#f4f4f4"/>
<text x="381.0" y="553" text-anchor="middle" font-size="8" fill="#999">128</text>
<line x1="407.2" y1="404" x2="407.2" y2="542" stroke="#f4f4f4"/>
<text x="407.2" y="553" text-anchor="middle" font-size="8" fill="#999">256</text>
<line x1="433.5" y1="404" x2="433.5" y2="542" stroke="#f4f4f4"/>
<text x="433.5" y="553" text-anchor="middle" font-size="8" fill="#999">512</text>
<line x1="459.8" y1="404" x2="459.8" y2="542" stroke="#f4f4f4"/>
<text x="459.8" y="553" text-anchor="middle" font-size="8" fill="#999">1k</text>
<line x1="486.0" y1="404" x2="486.0" y2="542" stroke="#f4f4f4"/>
<text x="486.0" y="553" text-anchor="middle" font-size="8" fill="#999">2k</text>
<rect x="506" y="404" width="210" height="138" fill="none" stroke="#e2e2e2"/>
<line x1="506" y1="494.66152190025116" x2="716" y2="494.66152190025116" stroke="#d33" stroke-dasharray="4 3"/>
<text x="502" y="545.0" text-anchor="end" font-size="9" fill="#999">0.5×</text>
<text x="502" y="497.66152190025116" text-anchor="end" font-size="9" fill="#999">1.0×</text>
<text x="502" y="407.0289511342773" text-anchor="end" font-size="9" fill="#999">3.77×</text>
<polygon points="506.0,461.1 558.5,492.2 611.0,501.7 637.2,473.2 663.5,465.3 689.8,453.7 716.0,409.3 716.0,410.4 689.8,454.8 663.5,466.7 637.2,474.2 611.0,502.5 558.5,493.7 506.0,462.9" fill="#d62728" opacity="0.11"/>
<polyline points="506.0,462.2 558.5,493.0 611.0,502.1 637.2,473.6 663.5,466.5 689.8,454.2 716.0,410.0" fill="none" stroke="#d62728" stroke-width="1.6"/>
<circle cx="506.0" cy="462.2" r="2" fill="#d62728"/>
<circle cx="558.5" cy="493.0" r="2" fill="#d62728"/>
<circle cx="611.0" cy="502.1" r="2" fill="#d62728"/>
<circle cx="637.2" cy="473.6" r="2" fill="#d62728"/>
<circle cx="663.5" cy="466.5" r="2" fill="#d62728"/>
<circle cx="689.8" cy="454.2" r="2" fill="#d62728"/>
<circle cx="716.0" cy="410.0" r="2" fill="#d62728"/>
<polygon points="506.0,464.1 558.5,487.5 611.0,494.2 637.2,494.4 663.5,493.7 689.8,494.3 716.0,495.8 716.0,496.0 689.8,494.6 663.5,494.0 637.2,494.7 611.0,494.7 558.5,491.1 506.0,467.0" fill="#2ca02c" opacity="0.11"/>
<polyline points="506.0,465.5 558.5,489.7 611.0,494.4 637.2,494.6 663.5,493.9 689.8,494.3 716.0,495.8" fill="none" stroke="#2ca02c" stroke-width="1.6"/>
<circle cx="506.0" cy="465.5" r="2" fill="#2ca02c"/>
<circle cx="558.5" cy="489.7" r="2" fill="#2ca02c"/>
<circle cx="611.0" cy="494.4" r="2" fill="#2ca02c"/>
<circle cx="637.2" cy="494.6" r="2" fill="#2ca02c"/>
<circle cx="663.5" cy="493.9" r="2" fill="#2ca02c"/>
<circle cx="689.8" cy="494.3" r="2" fill="#2ca02c"/>
<circle cx="716.0" cy="495.8" r="2" fill="#2ca02c"/>
<polygon points="506.0,468.4 558.5,497.9 611.0,497.9 637.2,449.1 663.5,495.9 689.8,497.3 716.0,497.1 716.0,497.5 689.8,497.7 663.5,496.1 637.2,452.3 611.0,498.3 558.5,498.7 506.0,470.7" fill="#1f77b4" opacity="0.11"/>
<polyline points="506.0,469.5 558.5,498.5 611.0,498.0 637.2,450.5 663.5,496.1 689.8,497.4 716.0,497.3" fill="none" stroke="#1f77b4" stroke-width="1.6"/>
<circle cx="506.0" cy="469.5" r="2" fill="#1f77b4"/>
<circle cx="558.5" cy="498.5" r="2" fill="#1f77b4"/>
<circle cx="611.0" cy="498.0" r="2" fill="#1f77b4"/>
<circle cx="637.2" cy="450.5" r="2" fill="#1f77b4"/>
<circle cx="663.5" cy="496.1" r="2" fill="#1f77b4"/>
<circle cx="689.8" cy="497.4" r="2" fill="#1f77b4"/>
<circle cx="716.0" cy="497.3" r="2" fill="#1f77b4"/>
<text x="611.0" y="399" text-anchor="middle" font-size="12" font-weight="bold">ztrsmR</text>
<line x1="506.0" y1="404" x2="506.0" y2="542" stroke="#f4f4f4"/>
<text x="506.0" y="553" text-anchor="middle" font-size="8" fill="#999">8</text>
<line x1="558.5" y1="404" x2="558.5" y2="542" stroke="#f4f4f4"/>
<text x="558.5" y="553" text-anchor="middle" font-size="8" fill="#999">32</text>
<line x1="611.0" y1="404" x2="611.0" y2="542" stroke="#f4f4f4"/>
<text x="611.0" y="553" text-anchor="middle" font-size="8" fill="#999">128</text>
<line x1="637.2" y1="404" x2="637.2" y2="542" stroke="#f4f4f4"/>
<text x="637.2" y="553" text-anchor="middle" font-size="8" fill="#999">256</text>
<line x1="663.5" y1="404" x2="663.5" y2="542" stroke="#f4f4f4"/>
<text x="663.5" y="553" text-anchor="middle" font-size="8" fill="#999">512</text>
<line x1="689.8" y1="404" x2="689.8" y2="542" stroke="#f4f4f4"/>
<text x="689.8" y="553" text-anchor="middle" font-size="8" fill="#999">1k</text>
<line x1="716.0" y1="404" x2="716.0" y2="542" stroke="#f4f4f4"/>
<text x="716.0" y="553" text-anchor="middle" font-size="8" fill="#999">2k</text>
</svg>
