<svg xmlns="http://www.w3.org/2000/svg" width="962" height="420" font-family="sans-serif">
<rect width="962" height="420" fill="white"/>
<text x="481.0" y="26" text-anchor="middle" font-size="17" font-weight="bold">BLAS-1 — PureBLAS / OpenBLAS (PB/OpenBLAS ratio)</text>
<line x1="46" y1="42" x2="68" y2="42" stroke="#d62728" stroke-width="3"/>
<text x="73" y="46" font-size="12">Zen3 · AVX2</text>
<line x1="176" y1="42" x2="198" y2="42" stroke="#2ca02c" stroke-width="3"/>
<text x="203" y="46" font-size="12">Zen5 · AVX-512</text>
<line x1="327" y1="42" x2="349" y2="42" stroke="#1f77b4" stroke-width="3"/>
<text x="354" y="46" font-size="12">Zen4 · AVX-512</text>
<rect x="46" y="60" width="210" height="138" fill="none" stroke="#e2e2e2"/>
<line x1="46" y1="115.76276119065531" x2="256" y2="115.76276119065531" stroke="#d33" stroke-dasharray="4 3"/>
<text x="42" y="201.0" text-anchor="end" font-size="9" fill="#999">0.5×</text>
<text x="42" y="118.76276119065531" text-anchor="end" font-size="9" fill="#999">1.0×</text>
<text x="42" y="63.0" text-anchor="end" font-size="9" fill="#999">1.6×</text>
<polygon points="46.0,109.9 79.4,114.2 116.0,115.5 149.4,114.6 186.0,115.2 219.4,114.0 256.0,112.4 256.0,117.3 219.4,117.0 186.0,115.7 149.4,116.0 116.0,115.6 79.4,115.0 46.0,110.2" fill="#d62728" opacity="0.11"/>
<polyline points="46.0,110.0 79.4,114.3 116.0,115.6 149.4,115.3 186.0,115.4 219.4,116.1 256.0,115.7" fill="none" stroke="#d62728" stroke-width="1.6"/>
<circle cx="46.0" cy="110.0" r="2" fill="#d62728"/>
<circle cx="79.4" cy="114.3" r="2" fill="#d62728"/>
<circle cx="116.0" cy="115.6" r="2" fill="#d62728"/>
<circle cx="149.4" cy="115.3" r="2" fill="#d62728"/>
<circle cx="186.0" cy="115.4" r="2" fill="#d62728"/>
<circle cx="219.4" cy="116.1" r="2" fill="#d62728"/>
<circle cx="256.0" cy="115.7" r="2" fill="#d62728"/>
<polygon points="46.0,109.2 79.4,108.8 116.0,115.8 149.4,115.5 186.0,114.6 219.4,111.0 256.0,105.5 256.0,119.0 219.4,117.2 186.0,115.7 149.4,117.1 116.0,116.3 79.4,109.9 46.0,109.9" fill="#2ca02c" opacity="0.11"/>
<polyline points="46.0,109.6 79.4,109.1 116.0,116.1 149.4,116.3 186.0,115.3 219.4,114.9 256.0,113.5" fill="none" stroke="#2ca02c" stroke-width="1.6"/>
<circle cx="46.0" cy="109.6" r="2" fill="#2ca02c"/>
<circle cx="79.4" cy="109.1" r="2" fill="#2ca02c"/>
<circle cx="116.0" cy="116.1" r="2" fill="#2ca02c"/>
<circle cx="149.4" cy="116.3" r="2" fill="#2ca02c"/>
<circle cx="186.0" cy="115.3" r="2" fill="#2ca02c"/>
<circle cx="219.4" cy="114.9" r="2" fill="#2ca02c"/>
<circle cx="256.0" cy="113.5" r="2" fill="#2ca02c"/>
<polygon points="46.0,103.5 79.4,113.6 116.0,114.5 149.4,115.3 186.0,113.8 219.4,113.7 256.0,115.6 256.0,117.7 219.4,114.2 186.0,115.9 149.4,115.6 116.0,115.2 79.4,113.9 46.0,104.0" fill="#1f77b4" opacity="0.11"/>
<polyline points="46.0,103.9 79.4,113.8 116.0,115.1 149.4,115.6 186.0,114.4 219.4,113.9 256.0,116.6" fill="none" stroke="#1f77b4" stroke-width="1.6"/>
<circle cx="46.0" cy="103.9" r="2" fill="#1f77b4"/>
<circle cx="79.4" cy="113.8" r="2" fill="#1f77b4"/>
<circle cx="116.0" cy="115.1" r="2" fill="#1f77b4"/>
<circle cx="149.4" cy="115.6" r="2" fill="#1f77b4"/>
<circle cx="186.0" cy="114.4" r="2" fill="#1f77b4"/>
<circle cx="219.4" cy="113.9" r="2" fill="#1f77b4"/>
<circle cx="256.0" cy="116.6" r="2" fill="#1f77b4"/>
<text x="151.0" y="55" text-anchor="middle" font-size="12" font-weight="bold">axpy</text>
<line x1="46.0" y1="60" x2="46.0" y2="198" stroke="#f4f4f4"/>
<text x="46.0" y="209" text-anchor="middle" font-size="8" fill="#999">1000</text>
<line x1="79.4" y1="60" x2="79.4" y2="198" stroke="#f4f4f4"/>
<text x="79.4" y="209" text-anchor="middle" font-size="8" fill="#999">2k</text>
<line x1="116.0" y1="60" x2="116.0" y2="198" stroke="#f4f4f4"/>
<text x="116.0" y="209" text-anchor="middle" font-size="8" fill="#999">9k</text>
<line x1="149.4" y1="60" x2="149.4" y2="198" stroke="#f4f4f4"/>
<text x="149.4" y="209" text-anchor="middle" font-size="8" fill="#999">29k</text>
<line x1="186.0" y1="60" x2="186.0" y2="198" stroke="#f4f4f4"/>
<text x="186.0" y="209" text-anchor="middle" font-size="8" fill="#999">97k</text>
<line x1="219.4" y1="60" x2="219.4" y2="198" stroke="#f4f4f4"/>
<text x="219.4" y="209" text-anchor="middle" font-size="8" fill="#999">292k</text>
<line x1="256.0" y1="60" x2="256.0" y2="198" stroke="#f4f4f4"/>
<text x="256.0" y="209" text-anchor="middle" font-size="8" fill="#999">976k</text>
<rect x="276" y="60" width="210" height="138" fill="none" stroke="#e2e2e2"/>
<line x1="276" y1="115.76276119065531" x2="486" y2="115.76276119065531" stroke="#d33" stroke-dasharray="4 3"/>
<text x="272" y="201.0" text-anchor="end" font-size="9" fill="#999">0.5×</text>
<text x="272" y="118.76276119065531" text-anchor="end" font-size="9" fill="#999">1.0×</text>
<text x="272" y="63.0" text-anchor="end" font-size="9" fill="#999">1.6×</text>
<polygon points="276.0,113.4 309.4,115.2 346.0,115.7 379.4,115.4 416.0,116.5 449.4,115.9 486.0,116.0 486.0,120.4 449.4,119.5 416.0,116.8 379.4,116.5 346.0,115.8 309.4,115.5 276.0,115.0" fill="#d62728" opacity="0.11"/>
<polyline points="276.0,114.3 309.4,115.4 346.0,115.7 379.4,116.0 416.0,116.7 449.4,116.7 486.0,118.1" fill="none" stroke="#d62728" stroke-width="1.6"/>
<circle cx="276.0" cy="114.3" r="2" fill="#d62728"/>
<circle cx="309.4" cy="115.4" r="2" fill="#d62728"/>
<circle cx="346.0" cy="115.7" r="2" fill="#d62728"/>
<circle cx="379.4" cy="116.0" r="2" fill="#d62728"/>
<circle cx="416.0" cy="116.7" r="2" fill="#d62728"/>
<circle cx="449.4" cy="116.7" r="2" fill="#d62728"/>
<circle cx="486.0" cy="118.1" r="2" fill="#d62728"/>
<polygon points="276.0,112.7 309.4,115.0 346.0,115.2 379.4,114.0 416.0,115.2 449.4,110.7 486.0,109.0 486.0,119.1 449.4,115.6 416.0,116.3 379.4,119.2 346.0,117.4 309.4,115.5 276.0,113.0" fill="#2ca02c" opacity="0.11"/>
<polyline points="276.0,112.8 309.4,115.2 346.0,116.1 379.4,116.3 416.0,115.6 449.4,114.7 486.0,115.2" fill="none" stroke="#2ca02c" stroke-width="1.6"/>
<circle cx="276.0" cy="112.8" r="2" fill="#2ca02c"/>
<circle cx="309.4" cy="115.2" r="2" fill="#2ca02c"/>
<circle cx="346.0" cy="116.1" r="2" fill="#2ca02c"/>
<circle cx="379.4" cy="116.3" r="2" fill="#2ca02c"/>
<circle cx="416.0" cy="115.6" r="2" fill="#2ca02c"/>
<circle cx="449.4" cy="114.7" r="2" fill="#2ca02c"/>
<circle cx="486.0" cy="115.2" r="2" fill="#2ca02c"/>
<polygon points="276.0,113.5 309.4,115.5 346.0,115.7 379.4,115.7 416.0,115.0 449.4,115.2 486.0,114.7 486.0,117.3 449.4,116.1 416.0,116.3 379.4,116.0 346.0,115.8 309.4,115.7 276.0,114.2" fill="#1f77b4" opacity="0.11"/>
<polyline points="276.0,113.8 309.4,115.6 346.0,115.7 379.4,115.8 416.0,115.9 449.4,115.7 486.0,116.1" fill="none" stroke="#1f77b4" stroke-width="1.6"/>
<circle cx="276.0" cy="113.8" r="2" fill="#1f77b4"/>
<circle cx="309.4" cy="115.6" r="2" fill="#1f77b4"/>
<circle cx="346.0" cy="115.7" r="2" fill="#1f77b4"/>
<circle cx="379.4" cy="115.8" r="2" fill="#1f77b4"/>
<circle cx="416.0" cy="115.9" r="2" fill="#1f77b4"/>
<circle cx="449.4" cy="115.7" r="2" fill="#1f77b4"/>
<circle cx="486.0" cy="116.1" r="2" fill="#1f77b4"/>
<text x="381.0" y="55" text-anchor="middle" font-size="12" font-weight="bold">dot</text>
<line x1="276.0" y1="60" x2="276.0" y2="198" stroke="#f4f4f4"/>
<text x="276.0" y="209" text-anchor="middle" font-size="8" fill="#999">1000</text>
<line x1="309.4" y1="60" x2="309.4" y2="198" stroke="#f4f4f4"/>
<text x="309.4" y="209" text-anchor="middle" font-size="8" fill="#999">2k</text>
<line x1="346.0" y1="60" x2="346.0" y2="198" stroke="#f4f4f4"/>
<text x="346.0" y="209" text-anchor="middle" font-size="8" fill="#999">9k</text>
<line x1="379.4" y1="60" x2="379.4" y2="198" stroke="#f4f4f4"/>
<text x="379.4" y="209" text-anchor="middle" font-size="8" fill="#999">29k</text>
<line x1="416.0" y1="60" x2="416.0" y2="198" stroke="#f4f4f4"/>
<text x="416.0" y="209" text-anchor="middle" font-size="8" fill="#999">97k</text>
<line x1="449.4" y1="60" x2="449.4" y2="198" stroke="#f4f4f4"/>
<text x="449.4" y="209" text-anchor="middle" font-size="8" fill="#999">292k</text>
<line x1="486.0" y1="60" x2="486.0" y2="198" stroke="#f4f4f4"/>
<text x="486.0" y="209" text-anchor="middle" font-size="8" fill="#999">976k</text>
<rect x="506" y="60" width="210" height="138" fill="none" stroke="#e2e2e2"/>
<line x1="506" y1="170.25046979656997" x2="716" y2="170.25046979656997" stroke="#d33" stroke-dasharray="4 3"/>
<text x="502" y="201.0" text-anchor="end" font-size="9" fill="#999">0.5×</text>
<text x="502" y="173.25046979656997" text-anchor="end" font-size="9" fill="#999">1.0×</text>
<text x="502" y="63.010115005334086" text-anchor="end" font-size="9" fill="#999">15.7×</text>
<polygon points="506.0,89.2 539.4,87.7 576.0,87.4 609.4,87.1 646.0,95.6 679.4,95.8 716.0,96.7 716.0,101.4 679.4,99.0 646.0,97.0 609.4,87.5 576.0,87.7 539.4,88.0 506.0,89.7" fill="#d62728" opacity="0.11"/>
<polyline points="506.0,89.5 539.4,87.9 576.0,87.7 609.4,87.4 646.0,96.2 679.4,96.6 716.0,98.2" fill="none" stroke="#d62728" stroke-width="1.6"/>
<circle cx="506.0" cy="89.5" r="2" fill="#d62728"/>
<circle cx="539.4" cy="87.9" r="2" fill="#d62728"/>
<circle cx="576.0" cy="87.7" r="2" fill="#d62728"/>
<circle cx="609.4" cy="87.4" r="2" fill="#d62728"/>
<circle cx="646.0" cy="96.2" r="2" fill="#d62728"/>
<circle cx="679.4" cy="96.6" r="2" fill="#d62728"/>
<circle cx="716.0" cy="98.2" r="2" fill="#d62728"/>
<polygon points="506.0,67.9 539.4,63.1 576.0,74.3 609.4,73.2 646.0,67.2 679.4,93.5 716.0,91.3 716.0,95.1 679.4,94.4 646.0,76.8 609.4,73.7 576.0,75.2 539.4,63.5 506.0,68.5" fill="#2ca02c" opacity="0.11"/>
<polyline points="506.0,68.3 539.4,63.3 576.0,74.8 609.4,73.4 646.0,71.6 679.4,93.9 716.0,92.7" fill="none" stroke="#2ca02c" stroke-width="1.6"/>
<circle cx="506.0" cy="68.3" r="2" fill="#2ca02c"/>
<circle cx="539.4" cy="63.3" r="2" fill="#2ca02c"/>
<circle cx="576.0" cy="74.8" r="2" fill="#2ca02c"/>
<circle cx="609.4" cy="73.4" r="2" fill="#2ca02c"/>
<circle cx="646.0" cy="71.6" r="2" fill="#2ca02c"/>
<circle cx="679.4" cy="93.9" r="2" fill="#2ca02c"/>
<circle cx="716.0" cy="92.7" r="2" fill="#2ca02c"/>
<polygon points="506.0,68.8 539.4,67.2 576.0,87.1 609.4,87.0 646.0,88.2 679.4,93.7 716.0,94.9 716.0,95.5 679.4,94.1 646.0,92.2 609.4,87.3 576.0,87.3 539.4,68.2 506.0,71.4" fill="#1f77b4" opacity="0.11"/>
<polyline points="506.0,69.9 539.4,67.7 576.0,87.3 609.4,87.2 646.0,90.7 679.4,93.8 716.0,95.2" fill="none" stroke="#1f77b4" stroke-width="1.6"/>
<circle cx="506.0" cy="69.9" r="2" fill="#1f77b4"/>
<circle cx="539.4" cy="67.7" r="2" fill="#1f77b4"/>
<circle cx="576.0" cy="87.3" r="2" fill="#1f77b4"/>
<circle cx="609.4" cy="87.2" r="2" fill="#1f77b4"/>
<circle cx="646.0" cy="90.7" r="2" fill="#1f77b4"/>
<circle cx="679.4" cy="93.8" r="2" fill="#1f77b4"/>
<circle cx="716.0" cy="95.2" r="2" fill="#1f77b4"/>
<text x="611.0" y="55" text-anchor="middle" font-size="12" font-weight="bold">nrm2</text>
<line x1="506.0" y1="60" x2="506.0" y2="198" stroke="#f4f4f4"/>
<text x="506.0" y="209" text-anchor="middle" font-size="8" fill="#999">1000</text>
<line x1="539.4" y1="60" x2="539.4" y2="198" stroke="#f4f4f4"/>
<text x="539.4" y="209" text-anchor="middle" font-size="8" fill="#999">2k</text>
<line x1="576.0" y1="60" x2="576.0" y2="198" stroke="#f4f4f4"/>
<text x="576.0" y="209" text-anchor="middle" font-size="8" fill="#999">9k</text>
<line x1="609.4" y1="60" x2="609.4" y2="198" stroke="#f4f4f4"/>
<text x="609.4" y="209" text-anchor="middle" font-size="8" fill="#999">29k</text>
<line x1="646.0" y1="60" x2="646.0" y2="198" stroke="#f4f4f4"/>
<text x="646.0" y="209" text-anchor="middle" font-size="8" fill="#999">97k</text>
<line x1="679.4" y1="60" x2="679.4" y2="198" stroke="#f4f4f4"/>
<text x="679.4" y="209" text-anchor="middle" font-size="8" fill="#999">292k</text>
<line x1="716.0" y1="60" x2="716.0" y2="198" stroke="#f4f4f4"/>
<text x="716.0" y="209" text-anchor="middle" font-size="8" fill="#999">976k</text>
<rect x="736" y="60" width="210" height="138" fill="none" stroke="#e2e2e2"/>
<line x1="736" y1="130.6086731396494" x2="946" y2="130.6086731396494" stroke="#d33" stroke-dasharray="4 3"/>
<text x="732" y="201.0" text-anchor="end" font-size="9" fill="#999">0.5×</text>
<text x="732" y="133.6086731396494" text-anchor="end" font-size="9" fill="#999">1.0×</text>
<polygon points="736.0,67.5 769.4,68.9 806.0,87.0 839.4,87.5 876.0,101.2 909.4,101.8 946.0,102.8 946.0,110.1 909.4,115.2 876.0,103.0 839.4,88.3 806.0,87.7 769.4,69.6 736.0,68.9" fill="#d62728" opacity="0.11"/>
<polyline points="736.0,68.1 769.4,69.2 806.0,87.5 839.4,87.9 876.0,101.8 909.4,103.2 946.0,103.8" fill="none" stroke="#d62728" stroke-width="1.6"/>
<circle cx="736.0" cy="68.1" r="2" fill="#d62728"/>
<circle cx="769.4" cy="69.2" r="2" fill="#d62728"/>
<circle cx="806.0" cy="87.5" r="2" fill="#d62728"/>
<circle cx="839.4" cy="87.9" r="2" fill="#d62728"/>
<circle cx="876.0" cy="101.8" r="2" fill="#d62728"/>
<circle cx="909.4" cy="103.2" r="2" fill="#d62728"/>
<circle cx="946.0" cy="103.8" r="2" fill="#d62728"/>
<polygon points="736.0,101.6 769.4,121.2 806.0,132.0 839.4,130.3 876.0,128.0 909.4,129.7 946.0,127.0 946.0,133.4 909.4,130.8 876.0,132.4 839.4,130.9 806.0,132.7 769.4,121.5 736.0,102.3" fill="#2ca02c" opacity="0.11"/>
<polyline points="736.0,101.7 769.4,121.4 806.0,132.3 839.4,130.5 876.0,130.2 909.4,130.2 946.0,131.3" fill="none" stroke="#2ca02c" stroke-width="1.6"/>
<circle cx="736.0" cy="101.7" r="2" fill="#2ca02c"/>
<circle cx="769.4" cy="121.4" r="2" fill="#2ca02c"/>
<circle cx="806.0" cy="132.3" r="2" fill="#2ca02c"/>
<circle cx="839.4" cy="130.5" r="2" fill="#2ca02c"/>
<circle cx="876.0" cy="130.2" r="2" fill="#2ca02c"/>
<circle cx="909.4" cy="130.2" r="2" fill="#2ca02c"/>
<circle cx="946.0" cy="131.3" r="2" fill="#2ca02c"/>
<polygon points="736.0,94.6 769.4,115.7 806.0,130.5 839.4,130.5 876.0,129.6 909.4,130.5 946.0,130.7 946.0,131.5 909.4,131.1 876.0,131.3 839.4,130.7 806.0,130.6 769.4,116.0 736.0,95.1" fill="#1f77b4" opacity="0.11"/>
<polyline points="736.0,94.8 769.4,115.9 806.0,130.6 839.4,130.6 876.0,130.5 909.4,130.9 946.0,131.0" fill="none" stroke="#1f77b4" stroke-width="1.6"/>
<circle cx="736.0" cy="94.8" r="2" fill="#1f77b4"/>
<circle cx="769.4" cy="115.9" r="2" fill="#1f77b4"/>
<circle cx="806.0" cy="130.6" r="2" fill="#1f77b4"/>
<circle cx="839.4" cy="130.6" r="2" fill="#1f77b4"/>
<circle cx="876.0" cy="130.5" r="2" fill="#1f77b4"/>
<circle cx="909.4" cy="130.9" r="2" fill="#1f77b4"/>
<circle cx="946.0" cy="131.0" r="2" fill="#1f77b4"/>
<text x="841.0" y="55" text-anchor="middle" font-size="12" font-weight="bold">asum</text>
<line x1="736.0" y1="60" x2="736.0" y2="198" stroke="#f4f4f4"/>
<text x="736.0" y="209" text-anchor="middle" font-size="8" fill="#999">1000</text>
<line x1="769.4" y1="60" x2="769.4" y2="198" stroke="#f4f4f4"/>
<text x="769.4" y="209" text-anchor="middle" font-size="8" fill="#999">2k</text>
<line x1="806.0" y1="60" x2="806.0" y2="198" stroke="#f4f4f4"/>
<text x="806.0" y="209" text-anchor="middle" font-size="8" fill="#999">9k</text>
<line x1="839.4" y1="60" x2="839.4" y2="198" stroke="#f4f4f4"/>
<text x="839.4" y="209" text-anchor="middle" font-size="8" fill="#999">29k</text>
<line x1="876.0" y1="60" x2="876.0" y2="198" stroke="#f4f4f4"/>
<text x="876.0" y="209" text-anchor="middle" font-size="8" fill="#999">97k</text>
<line x1="909.4" y1="60" x2="909.4" y2="198" stroke="#f4f4f4"/>
<text x="909.4" y="209" text-anchor="middle" font-size="8" fill="#999">292k</text>
<line x1="946.0" y1="60" x2="946.0" y2="198" stroke="#f4f4f4"/>
<text x="946.0" y="209" text-anchor="middle" font-size="8" fill="#999">976k</text>
<rect x="46" y="232" width="210" height="138" fill="none" stroke="#e2e2e2"/>
<line x1="46" y1="287.7627611906553" x2="256" y2="287.7627611906553" stroke="#d33" stroke-dasharray="4 3"/>
<text x="42" y="373.0" text-anchor="end" font-size="9" fill="#999">0.5×</text>
<text x="42" y="290.7627611906553" text-anchor="end" font-size="9" fill="#999">1.0×</text>
<text x="42" y="235.0" text-anchor="end" font-size="9" fill="#999">1.6×</text>
<polygon points="46.0,282.9 79.4,285.4 116.0,287.0 149.4,286.6 186.0,287.5 219.4,285.9 256.0,285.6 256.0,288.8 219.4,288.6 186.0,288.2 149.4,286.9 116.0,287.3 79.4,285.9 46.0,283.2" fill="#d62728" opacity="0.11"/>
<polyline points="46.0,283.1 79.4,285.6 116.0,287.2 149.4,286.7 186.0,287.9 219.4,287.4 256.0,287.2" fill="none" stroke="#d62728" stroke-width="1.6"/>
<circle cx="46.0" cy="283.1" r="2" fill="#d62728"/>
<circle cx="79.4" cy="285.6" r="2" fill="#d62728"/>
<circle cx="116.0" cy="287.2" r="2" fill="#d62728"/>
<circle cx="149.4" cy="286.7" r="2" fill="#d62728"/>
<circle cx="186.0" cy="287.9" r="2" fill="#d62728"/>
<circle cx="219.4" cy="287.4" r="2" fill="#d62728"/>
<circle cx="256.0" cy="287.2" r="2" fill="#d62728"/>
<polygon points="46.0,277.3 79.4,253.2 116.0,281.5 149.4,283.3 186.0,284.0 219.4,286.3 256.0,282.6 256.0,291.2 219.4,287.8 186.0,286.7 149.4,283.9 116.0,282.3 79.4,263.3 46.0,282.6" fill="#2ca02c" opacity="0.11"/>
<polyline points="46.0,279.4 79.4,259.8 116.0,281.7 149.4,283.6 186.0,285.1 219.4,287.3 256.0,287.1" fill="none" stroke="#2ca02c" stroke-width="1.6"/>
<circle cx="46.0" cy="279.4" r="2" fill="#2ca02c"/>
<circle cx="79.4" cy="259.8" r="2" fill="#2ca02c"/>
<circle cx="116.0" cy="281.7" r="2" fill="#2ca02c"/>
<circle cx="149.4" cy="283.6" r="2" fill="#2ca02c"/>
<circle cx="186.0" cy="285.1" r="2" fill="#2ca02c"/>
<circle cx="219.4" cy="287.3" r="2" fill="#2ca02c"/>
<circle cx="256.0" cy="287.1" r="2" fill="#2ca02c"/>
<polygon points="46.0,273.5 79.4,282.5 116.0,287.7 149.4,288.7 186.0,287.1 219.4,287.6 256.0,289.5 256.0,291.7 219.4,292.3 186.0,289.2 149.4,289.0 116.0,287.8 79.4,283.0 46.0,273.8" fill="#1f77b4" opacity="0.11"/>
<polyline points="46.0,273.7 79.4,282.8 116.0,287.8 149.4,288.8 186.0,288.3 219.4,288.3 256.0,290.6" fill="none" stroke="#1f77b4" stroke-width="1.6"/>
<circle cx="46.0" cy="273.7" r="2" fill="#1f77b4"/>
<circle cx="79.4" cy="282.8" r="2" fill="#1f77b4"/>
<circle cx="116.0" cy="287.8" r="2" fill="#1f77b4"/>
<circle cx="149.4" cy="288.8" r="2" fill="#1f77b4"/>
<circle cx="186.0" cy="288.3" r="2" fill="#1f77b4"/>
<circle cx="219.4" cy="288.3" r="2" fill="#1f77b4"/>
<circle cx="256.0" cy="290.6" r="2" fill="#1f77b4"/>
<text x="151.0" y="227" text-anchor="middle" font-size="12" font-weight="bold">scal</text>
<line x1="46.0" y1="232" x2="46.0" y2="370" stroke="#f4f4f4"/>
<text x="46.0" y="381" text-anchor="middle" font-size="8" fill="#999">1000</text>
<line x1="79.4" y1="232" x2="79.4" y2="370" stroke="#f4f4f4"/>
<text x="79.4" y="381" text-anchor="middle" font-size="8" fill="#999">2k</text>
<line x1="116.0" y1="232" x2="116.0" y2="370" stroke="#f4f4f4"/>
<text x="116.0" y="381" text-anchor="middle" font-size="8" fill="#999">9k</text>
<line x1="149.4" y1="232" x2="149.4" y2="370" stroke="#f4f4f4"/>
<text x="149.4" y="381" text-anchor="middle" font-size="8" fill="#999">29k</text>
<line x1="186.0" y1="232" x2="186.0" y2="370" stroke="#f4f4f4"/>
<text x="186.0" y="381" text-anchor="middle" font-size="8" fill="#999">97k</text>
<line x1="219.4" y1="232" x2="219.4" y2="370" stroke="#f4f4f4"/>
<text x="219.4" y="381" text-anchor="middle" font-size="8" fill="#999">292k</text>
<line x1="256.0" y1="232" x2="256.0" y2="370" stroke="#f4f4f4"/>
<text x="256.0" y="381" text-anchor="middle" font-size="8" fill="#999">976k</text>
<rect x="276" y="232" width="210" height="138" fill="none" stroke="#e2e2e2"/>
<line x1="276" y1="308.4021031983161" x2="486" y2="308.4021031983161" stroke="#d33" stroke-dasharray="4 3"/>
<text x="272" y="373.0" text-anchor="end" font-size="9" fill="#999">0.5×</text>
<text x="272" y="311.4021031983161" text-anchor="end" font-size="9" fill="#999">1.0×</text>
<text x="272" y="235.09543806218687" text-anchor="end" font-size="9" fill="#999">2.36×</text>
<polygon points="276.0,284.8 309.4,289.7 346.0,282.0 379.4,281.2 416.0,276.6 449.4,278.6 486.0,275.8 486.0,319.0 449.4,322.7 416.0,329.3 379.4,336.2 346.0,335.5 309.4,351.1 276.0,346.2" fill="#d62728" opacity="0.11"/>
<polyline points="276.0,306.7 309.4,312.1 346.0,304.3 379.4,303.6 416.0,301.3 449.4,295.0 486.0,287.7" fill="none" stroke="#d62728" stroke-width="1.6"/>
<circle cx="276.0" cy="306.7" r="2" fill="#d62728"/>
<circle cx="309.4" cy="312.1" r="2" fill="#d62728"/>
<circle cx="346.0" cy="304.3" r="2" fill="#d62728"/>
<circle cx="379.4" cy="303.6" r="2" fill="#d62728"/>
<circle cx="416.0" cy="301.3" r="2" fill="#d62728"/>
<circle cx="449.4" cy="295.0" r="2" fill="#d62728"/>
<circle cx="486.0" cy="287.7" r="2" fill="#d62728"/>
<polygon points="276.0,250.6 309.4,241.0 346.0,242.5 379.4,242.6 416.0,240.0 449.4,238.8 486.0,245.6 486.0,287.2 449.4,297.3 416.0,303.4 379.4,312.5 346.0,311.6 309.4,307.9 276.0,308.9" fill="#2ca02c" opacity="0.11"/>
<polyline points="276.0,278.1 309.4,266.2 346.0,270.5 379.4,270.2 416.0,267.4 449.4,260.9 486.0,259.7" fill="none" stroke="#2ca02c" stroke-width="1.6"/>
<circle cx="276.0" cy="278.1" r="2" fill="#2ca02c"/>
<circle cx="309.4" cy="266.2" r="2" fill="#2ca02c"/>
<circle cx="346.0" cy="270.5" r="2" fill="#2ca02c"/>
<circle cx="379.4" cy="270.2" r="2" fill="#2ca02c"/>
<circle cx="416.0" cy="267.4" r="2" fill="#2ca02c"/>
<circle cx="449.4" cy="260.9" r="2" fill="#2ca02c"/>
<circle cx="486.0" cy="259.7" r="2" fill="#2ca02c"/>
<polygon points="276.0,272.7 309.4,269.8 346.0,261.4 379.4,262.3 416.0,258.5 449.4,256.7 486.0,256.7 486.0,309.9 449.4,311.0 416.0,300.2 379.4,301.2 346.0,304.8 309.4,318.8 276.0,320.3" fill="#1f77b4" opacity="0.11"/>
<polyline points="276.0,294.9 309.4,289.4 346.0,277.6 379.4,278.9 416.0,280.0 449.4,274.6 486.0,277.3" fill="none" stroke="#1f77b4" stroke-width="1.6"/>
<circle cx="276.0" cy="294.9" r="2" fill="#1f77b4"/>
<circle cx="309.4" cy="289.4" r="2" fill="#1f77b4"/>
<circle cx="346.0" cy="277.6" r="2" fill="#1f77b4"/>
<circle cx="379.4" cy="278.9" r="2" fill="#1f77b4"/>
<circle cx="416.0" cy="280.0" r="2" fill="#1f77b4"/>
<circle cx="449.4" cy="274.6" r="2" fill="#1f77b4"/>
<circle cx="486.0" cy="277.3" r="2" fill="#1f77b4"/>
<text x="381.0" y="227" text-anchor="middle" font-size="12" font-weight="bold">iamax</text>
<line x1="276.0" y1="232" x2="276.0" y2="370" stroke="#f4f4f4"/>
<text x="276.0" y="381" text-anchor="middle" font-size="8" fill="#999">1000</text>
<line x1="309.4" y1="232" x2="309.4" y2="370" stroke="#f4f4f4"/>
<text x="309.4" y="381" text-anchor="middle" font-size="8" fill="#999">2k</text>
<line x1="346.0" y1="232" x2="346.0" y2="370" stroke="#f4f4f4"/>
<text x="346.0" y="381" text-anchor="middle" font-size="8" fill="#999">9k</text>
<line x1="379.4" y1="232" x2="379.4" y2="370" stroke="#f4f4f4"/>
<text x="379.4" y="381" text-anchor="middle" font-size="8" fill="#999">29k</text>
<line x1="416.0" y1="232" x2="416.0" y2="370" stroke="#f4f4f4"/>
<text x="416.0" y="381" text-anchor="middle" font-size="8" fill="#999">97k</text>
<line x1="449.4" y1="232" x2="449.4" y2="370" stroke="#f4f4f4"/>
<text x="449.4" y="381" text-anchor="middle" font-size="8" fill="#999">292k</text>
<line x1="486.0" y1="232" x2="486.0" y2="370" stroke="#f4f4f4"/>
<text x="486.0" y="381" text-anchor="middle" font-size="8" fill="#999">976k</text>
</svg>
