<svg xmlns="http://www.w3.org/2000/svg" width="900" height="440" font-family="sans-serif">
<rect width="900" height="440" fill="white"/>
<text x="450.0" y="28" text-anchor="middle" font-size="18" font-weight="bold">Complex BLAS-2: PureBLAS / OpenBLAS (AVX-512, 1 thread, ComplexF64)</text>
<line x1="60" y1="358.0" x2="880" y2="358.0" stroke="#eee"/>
<text x="52" y="362.0" text-anchor="end" font-size="11" fill="#666">0×</text>
<line x1="60" y1="291.2127157244263" x2="880" y2="291.2127157244263" stroke="#eee"/>
<text x="52" y="295.2127157244263" text-anchor="end" font-size="11" fill="#666">0.5×</text>
<line x1="60" y1="224.42543144885258" x2="880" y2="224.42543144885258" stroke="#eee"/>
<text x="52" y="228.42543144885258" text-anchor="end" font-size="11" fill="#666">1×</text>
<line x1="60" y1="157.6381471732789" x2="880" y2="157.6381471732789" stroke="#eee"/>
<text x="52" y="161.6381471732789" text-anchor="end" font-size="11" fill="#666">1.5×</text>
<line x1="60" y1="224.42543144885258" x2="880" y2="224.42543144885258" stroke="#888" stroke-width="1"/>
<line x1="60" y1="229.7684141908985" x2="880" y2="229.7684141908985" stroke="#d33" stroke-width="1.5" stroke-dasharray="6 4"/>
<text x="880" y="224.7684141908985" text-anchor="end" font-size="11" fill="#d33">0.96× gate</text>
<polygon points="131.7,248.4 132.8,247.4 134.1,246.5 135.8,245.5 137.7,244.5 140.0,243.6 142.6,242.6 145.4,241.6 148.5,240.6 151.7,239.7 155.1,238.7 158.6,237.7 162.0,236.8 165.4,235.8 168.6,234.8 171.7,233.8 174.6,232.9 177.2,231.9 179.5,230.9 181.6,230.0 183.2,229.0 184.5,228.0 185.4,227.1 185.7,226.1 185.5,225.1 184.7,224.1 183.3,223.2 181.3,222.2 178.7,221.2 175.6,220.3 172.0,219.3 168.2,218.3 164.2,217.3 160.1,216.4 156.1,215.4 152.3,214.4 148.8,213.5 145.6,212.5 142.9,211.5 140.6,210.5 138.8,209.6 137.4,208.6 136.5,207.6 135.9,206.7 135.7,205.7 135.8,204.7 136.2,203.7 136.8,202.8 137.6,201.8 138.6,200.8 139.8,199.9 141.0,198.9 142.3,197.9 143.6,196.9 144.9,196.0 146.0,195.0 146.9,194.0 147.6,193.1 147.9,192.1 147.9,191.1 147.6,190.2 146.9,189.2 145.8,188.2 144.5,187.2 143.0,186.3 141.3,185.3 139.6,184.3 137.9,183.4 136.3,182.4 134.8,181.4 133.4,180.4 132.3,179.5 124.4,179.5 123.2,180.4 121.9,181.4 120.4,182.4 118.8,183.4 117.1,184.3 115.3,185.3 113.7,186.3 112.1,187.2 110.8,188.2 109.8,189.2 109.1,190.2 108.7,191.1 108.8,192.1 109.1,193.1 109.8,194.0 110.7,195.0 111.8,196.0 113.0,196.9 114.3,197.9 115.6,198.9 116.9,199.9 118.0,200.8 119.0,201.8 119.9,202.8 120.5,203.7 120.9,204.7 121.0,205.7 120.8,206.7 120.2,207.6 119.2,208.6 117.9,209.6 116.0,210.5 113.8,211.5 111.1,212.5 107.9,213.5 104.4,214.4 100.6,215.4 96.6,216.4 92.5,217.3 88.5,218.3 84.6,219.3 81.1,220.3 78.0,221.2 75.4,222.2 73.3,223.2 71.9,224.1 71.1,225.1 70.9,226.1 71.3,227.1 72.1,228.0 73.4,229.0 75.1,230.0 77.1,230.9 79.5,231.9 82.1,232.9 85.0,233.8 88.0,234.8 91.3,235.8 94.7,236.8 98.1,237.7 101.5,238.7 104.9,239.7 108.2,240.6 111.3,241.6 114.1,242.6 116.7,243.6 118.9,244.5 120.9,245.5 122.5,246.5 123.9,247.4 125.0,248.4" fill="#d33" opacity="0.5" stroke="#d33" stroke-width="1"/>
<line x1="72.2" y1="223.90509885780645" x2="184.4" y2="223.90509885780645" stroke="#114" stroke-width="2"/>
<circle cx="128.33333333333331" cy="233.4911663451643" r="2.4" fill="#114"/>
<text x="128.33333333333331" y="180.35684731609845" text-anchor="middle" font-size="11">1.00</text>
<text x="128.33333333333331" y="376" text-anchor="middle" font-size="12">zgemvN</text>
<polygon points="265.3,302.4 265.4,300.7 265.5,299.1 265.7,297.5 265.8,295.8 265.9,294.2 265.9,292.6 266.0,291.0 265.9,289.3 265.9,287.7 265.8,286.1 265.8,284.5 265.7,282.8 265.7,281.2 265.9,279.6 266.2,277.9 266.7,276.3 267.5,274.7 268.7,273.1 270.3,271.4 272.5,269.8 275.2,268.2 278.4,266.6 282.1,264.9 285.9,263.3 289.8,261.7 293.4,260.0 296.5,258.4 299.0,256.8 300.7,255.2 301.8,253.5 302.6,251.9 303.3,250.3 304.4,248.7 306.1,247.0 308.6,245.4 311.8,243.8 315.3,242.1 318.6,240.5 321.2,238.9 322.4,237.3 321.9,235.6 319.6,234.0 315.6,232.4 310.4,230.8 304.6,229.1 298.9,227.5 293.7,225.9 289.5,224.2 286.5,222.6 284.8,221.0 284.5,219.4 285.2,217.7 286.8,216.1 289.0,214.5 291.4,212.9 293.7,211.2 295.5,209.6 296.6,208.0 296.7,206.3 295.8,204.7 293.9,203.1 291.0,201.5 287.6,199.8 283.9,198.2 280.2,196.6 276.8,195.0 273.7,193.3 271.2,191.7 269.3,190.1 267.8,188.4 266.8,186.8 263.2,186.8 262.2,188.4 260.7,190.1 258.8,191.7 256.3,193.3 253.2,195.0 249.8,196.6 246.1,198.2 242.4,199.8 239.0,201.5 236.1,203.1 234.2,204.7 233.3,206.3 233.4,208.0 234.5,209.6 236.3,211.2 238.6,212.9 241.0,214.5 243.2,216.1 244.8,217.7 245.5,219.4 245.2,221.0 243.5,222.6 240.5,224.2 236.3,225.9 231.1,227.5 225.4,229.1 219.6,230.8 214.4,232.4 210.4,234.0 208.1,235.6 207.6,237.3 208.8,238.9 211.4,240.5 214.7,242.1 218.2,243.8 221.4,245.4 223.9,247.0 225.6,248.7 226.7,250.3 227.4,251.9 228.2,253.5 229.3,255.2 231.0,256.8 233.5,258.4 236.6,260.0 240.2,261.7 244.1,263.3 247.9,264.9 251.6,266.6 254.8,268.2 257.5,269.8 259.7,271.4 261.3,273.1 262.5,274.7 263.3,276.3 263.8,277.9 264.1,279.6 264.3,281.2 264.3,282.8 264.2,284.5 264.2,286.1 264.1,287.7 264.1,289.3 264.0,291.0 264.1,292.6 264.1,294.2 264.2,295.8 264.3,297.5 264.5,299.1 264.6,300.7 264.7,302.4" fill="#d33" opacity="0.5" stroke="#d33" stroke-width="1"/>
<line x1="207.6" y1="236.51882968592292" x2="322.4" y2="236.51882968592292" stroke="#114" stroke-width="2"/>
<circle cx="265.0" cy="258.345719779802" r="2.4" fill="#114"/>
<text x="265.0" y="192.2171112389362" text-anchor="middle" font-size="11">0.91</text>
<text x="265.0" y="376" text-anchor="middle" font-size="12">zgemvC</text>
<polygon points="402.9,231.0 403.5,230.1 404.2,229.1 405.1,228.2 406.3,227.2 407.7,226.2 409.2,225.3 410.9,224.3 412.7,223.4 414.6,222.4 416.4,221.5 418.1,220.5 419.7,219.5 421.2,218.6 422.8,217.6 424.5,216.7 426.5,215.7 428.9,214.7 431.7,213.8 434.9,212.8 438.6,211.9 442.5,210.9 446.5,210.0 450.3,209.0 453.6,208.0 456.3,207.1 458.2,206.1 459.1,205.2 458.9,204.2 457.8,203.2 455.7,202.3 452.7,201.3 449.0,200.4 444.8,199.4 440.2,198.5 435.4,197.5 430.7,196.5 426.1,195.6 421.9,194.6 418.2,193.7 414.9,192.7 412.2,191.7 410.1,190.8 408.5,189.8 407.4,188.9 406.8,187.9 406.6,187.0 406.6,186.0 407.0,185.0 407.5,184.1 408.2,183.1 409.1,182.2 409.9,181.2 410.8,180.2 411.5,179.3 412.1,178.3 412.5,177.4 412.6,176.4 412.5,175.5 412.2,174.5 411.6,173.5 410.9,172.6 410.0,171.6 409.0,170.7 408.0,169.7 407.1,168.7 406.1,167.8 405.3,166.8 404.5,165.9 403.8,164.9 403.3,164.0 402.8,163.0 400.5,163.0 400.1,164.0 399.5,164.9 398.8,165.9 398.1,166.8 397.2,167.8 396.3,168.7 395.3,169.7 394.3,170.7 393.4,171.6 392.5,172.6 391.7,173.5 391.2,174.5 390.8,175.5 390.7,176.4 390.8,177.4 391.2,178.3 391.8,179.3 392.6,180.2 393.4,181.2 394.3,182.2 395.1,183.1 395.8,184.1 396.4,185.0 396.7,186.0 396.8,187.0 396.5,187.9 395.9,188.9 394.8,189.8 393.2,190.8 391.1,191.7 388.4,192.7 385.2,193.7 381.4,194.6 377.2,195.6 372.6,196.5 367.9,197.5 363.2,198.5 358.6,199.4 354.3,200.4 350.7,201.3 347.7,202.3 345.6,203.2 344.4,204.2 344.3,205.2 345.2,206.1 347.0,207.1 349.7,208.0 353.1,209.0 356.8,210.0 360.8,210.9 364.7,211.9 368.4,212.8 371.7,213.8 374.5,214.7 376.8,215.7 378.8,216.7 380.5,217.6 382.1,218.6 383.7,219.5 385.3,220.5 387.0,221.5 388.8,222.4 390.6,223.4 392.4,224.3 394.1,225.3 395.7,226.2 397.0,227.2 398.2,228.2 399.1,229.1 399.9,230.1 400.4,231.0" fill="#2a8" opacity="0.5" stroke="#2a8" stroke-width="1"/>
<line x1="344.2" y1="204.82100730676902" x2="459.1" y2="204.82100730676902" stroke="#114" stroke-width="2"/>
<circle cx="401.66666666666663" cy="218.3613766037582" r="2.4" fill="#114"/>
<text x="401.66666666666663" y="163.7992910858229" text-anchor="middle" font-size="11">1.15</text>
<text x="401.66666666666663" y="376" text-anchor="middle" font-size="12">zgeru</text>
<polygon points="561.2,250.1 565.1,247.3 569.1,244.5 573.2,241.7 577.3,238.9 581.2,236.0 584.9,233.2 588.1,230.4 590.9,227.6 593.1,224.8 594.7,221.9 595.5,219.1 595.7,216.3 595.2,213.5 594.1,210.7 592.5,207.8 590.3,205.0 587.8,202.2 585.0,199.4 582.1,196.6 579.2,193.8 576.3,190.9 573.6,188.1 571.2,185.3 569.2,182.5 567.6,179.7 566.5,176.8 566.0,174.0 565.9,171.2 566.3,168.4 567.2,165.6 568.5,162.7 570.2,159.9 572.1,157.1 574.1,154.3 576.3,151.5 578.4,148.7 580.4,145.8 582.3,143.0 584.0,140.2 585.4,137.4 586.5,134.6 587.3,131.7 587.9,128.9 588.3,126.1 588.4,123.3 588.4,120.5 588.3,117.6 588.1,114.8 587.7,112.0 587.3,109.2 586.9,106.4 586.3,103.6 585.6,100.7 584.8,97.9 583.9,95.1 582.7,92.3 581.3,89.5 579.7,86.6 577.9,83.8 575.8,81.0 573.5,78.2 571.1,75.4 568.5,72.5 565.8,69.7 563.0,66.9 560.3,64.1 557.7,61.3 555.1,58.5 552.7,55.6 550.5,52.8 548.5,50.0 528.2,50.0 526.1,52.8 523.9,55.6 521.5,58.5 519.0,61.3 516.3,64.1 513.6,66.9 510.9,69.7 508.2,72.5 505.6,75.4 503.1,78.2 500.9,81.0 498.8,83.8 496.9,86.6 495.3,89.5 494.0,92.3 492.8,95.1 491.8,97.9 491.0,100.7 490.4,103.6 489.8,106.4 489.3,109.2 488.9,112.0 488.6,114.8 488.4,117.6 488.2,120.5 488.2,123.3 488.4,126.1 488.7,128.9 489.3,131.7 490.2,134.6 491.3,137.4 492.7,140.2 494.4,143.0 496.2,145.8 498.3,148.7 500.4,151.5 502.5,154.3 504.6,157.1 506.5,159.9 508.2,162.7 509.5,165.6 510.4,168.4 510.8,171.2 510.7,174.0 510.1,176.8 509.0,179.7 507.4,182.5 505.4,185.3 503.0,188.1 500.4,190.9 497.5,193.8 494.6,196.6 491.6,199.4 488.9,202.2 486.4,205.0 484.2,207.8 482.5,210.7 481.4,213.5 480.9,216.3 481.1,219.1 482.0,221.9 483.6,224.8 485.8,227.6 488.5,230.4 491.8,233.2 495.5,236.0 499.4,238.9 503.5,241.7 507.6,244.5 511.6,247.3 515.4,250.1" fill="#2a8" opacity="0.5" stroke="#2a8" stroke-width="1"/>
<line x1="495.8" y1="145.20770026003842" x2="580.9" y2="145.20770026003842" stroke="#114" stroke-width="2"/>
<circle cx="538.3333333333333" cy="226.76855840409203" r="2.4" fill="#114"/>
<text x="538.3333333333333" y="61.433962264150935" text-anchor="middle" font-size="11">1.59</text>
<text x="538.3333333333333" y="376" text-anchor="middle" font-size="12">zhemv</text>
<polygon points="679.3,283.1 681.1,280.4 683.4,277.6 686.3,274.9 689.7,272.2 693.8,269.4 698.4,266.7 703.4,263.9 708.6,261.2 713.8,258.4 718.7,255.7 723.1,252.9 726.9,250.2 729.7,247.4 731.5,244.7 732.4,242.0 732.4,239.2 731.7,236.5 730.4,233.7 728.9,231.0 727.3,228.2 725.7,225.5 724.4,222.7 723.3,220.0 722.5,217.3 721.9,214.5 721.6,211.8 721.3,209.0 721.0,206.3 720.6,203.5 720.1,200.8 719.4,198.0 718.4,195.3 717.2,192.5 715.8,189.8 714.4,187.1 712.8,184.3 711.3,181.6 709.9,178.8 708.7,176.1 707.8,173.3 707.1,170.6 706.7,167.8 706.4,165.1 706.4,162.4 706.5,159.6 706.6,156.9 706.7,154.1 706.7,151.4 706.5,148.6 706.1,145.9 705.4,143.1 704.5,140.4 703.2,137.7 701.6,134.9 699.7,132.2 697.6,129.4 695.3,126.7 692.9,123.9 690.5,121.2 688.2,118.4 686.1,115.7 684.1,112.9 682.4,110.2 680.9,107.5 679.6,104.7 678.6,102.0 677.7,99.2 677.1,96.5 676.6,93.7 676.2,91.0 675.9,88.2 674.1,88.2 673.8,91.0 673.4,93.7 672.9,96.5 672.3,99.2 671.4,102.0 670.4,104.7 669.1,107.5 667.6,110.2 665.9,112.9 663.9,115.7 661.8,118.4 659.5,121.2 657.1,123.9 654.7,126.7 652.4,129.4 650.3,132.2 648.4,134.9 646.8,137.7 645.5,140.4 644.6,143.1 643.9,145.9 643.5,148.6 643.3,151.4 643.3,154.1 643.4,156.9 643.5,159.6 643.6,162.4 643.6,165.1 643.3,167.8 642.9,170.6 642.2,173.3 641.3,176.1 640.1,178.8 638.7,181.6 637.2,184.3 635.6,187.1 634.2,189.8 632.8,192.5 631.6,195.3 630.6,198.0 629.9,200.8 629.4,203.5 629.0,206.3 628.7,209.0 628.4,211.8 628.1,214.5 627.5,217.3 626.7,220.0 625.6,222.7 624.3,225.5 622.7,228.2 621.1,231.0 619.6,233.7 618.3,236.5 617.6,239.2 617.6,242.0 618.5,244.7 620.3,247.4 623.1,250.2 626.9,252.9 631.3,255.7 636.2,258.4 641.4,261.2 646.6,263.9 651.6,266.7 656.2,269.4 660.3,272.2 663.7,274.9 666.6,277.6 668.9,280.4 670.7,283.1" fill="#d33" opacity="0.5" stroke="#d33" stroke-width="1"/>
<line x1="629.1" y1="205.41157466902254" x2="720.9" y2="205.41157466902254" stroke="#114" stroke-width="2"/>
<circle cx="675.0" cy="246.8003226011181" r="2.4" fill="#114"/>
<text x="675.0" y="101.31965786291948" text-anchor="middle" font-size="11">1.14</text>
<text x="675.0" y="376" text-anchor="middle" font-size="12">ztrmv</text>
<polygon points="812.4,264.8 812.6,264.0 812.9,263.1 813.3,262.2 813.7,261.4 814.2,260.5 814.9,259.7 815.7,258.8 816.7,257.9 818.0,257.1 819.7,256.2 821.8,255.4 824.5,254.5 827.6,253.7 831.4,252.8 835.6,251.9 840.2,251.1 845.0,250.2 849.9,249.4 854.6,248.5 858.8,247.6 862.5,246.8 865.5,245.9 867.5,245.1 868.7,244.2 869.1,243.3 868.6,242.5 867.5,241.6 865.9,240.8 863.8,239.9 861.6,239.1 859.3,238.2 857.0,237.3 854.9,236.5 853.0,235.6 851.4,234.8 850.1,233.9 849.2,233.0 848.5,232.2 848.1,231.3 848.0,230.5 847.9,229.6 847.8,228.8 847.7,227.9 847.3,227.0 846.7,226.2 845.9,225.3 844.9,224.5 843.7,223.6 842.4,222.7 841.1,221.9 839.8,221.0 838.6,220.2 837.5,219.3 836.5,218.4 835.5,217.6 834.5,216.7 833.4,215.9 832.3,215.0 831.0,214.2 829.5,213.3 827.8,212.4 826.1,211.6 824.3,210.7 822.4,209.9 820.7,209.0 819.0,208.1 817.5,207.3 816.2,206.4 815.1,205.6 814.2,204.7 813.5,203.8 809.9,203.8 809.2,204.7 808.3,205.6 807.1,206.4 805.8,207.3 804.3,208.1 802.7,209.0 800.9,209.9 799.1,210.7 797.2,211.6 795.5,212.4 793.9,213.3 792.4,214.2 791.1,215.0 789.9,215.9 788.8,216.7 787.9,217.6 786.9,218.4 785.9,219.3 784.7,220.2 783.5,221.0 782.3,221.9 781.0,222.7 779.7,223.6 778.5,224.5 777.4,225.3 776.6,226.2 776.0,227.0 775.7,227.9 775.5,228.8 775.4,229.6 775.4,230.5 775.2,231.3 774.8,232.2 774.2,233.0 773.2,233.9 771.9,234.8 770.3,235.6 768.4,236.5 766.3,237.3 764.0,238.2 761.7,239.1 759.5,239.9 757.5,240.8 755.8,241.6 754.7,242.5 754.3,243.3 754.6,244.2 755.8,245.1 757.9,245.9 760.8,246.8 764.5,247.6 768.8,248.5 773.5,249.4 778.3,250.2 783.2,251.1 787.8,251.9 792.0,252.8 795.7,253.7 798.9,254.5 801.5,255.4 803.6,256.2 805.3,257.1 806.6,257.9 807.6,258.8 808.4,259.7 809.1,260.5 809.6,261.4 810.1,262.2 810.4,263.1 810.7,264.0 811.0,264.8" fill="#d33" opacity="0.5" stroke="#d33" stroke-width="1"/>
<line x1="767.9" y1="236.70917151398703" x2="855.5" y2="236.70917151398703" stroke="#114" stroke-width="2"/>
<circle cx="811.6666666666666" cy="246.7173058871148" r="2.4" fill="#114"/>
<text x="811.6666666666666" y="203.9633078528561" text-anchor="middle" font-size="11">0.91</text>
<text x="811.6666666666666" y="376" text-anchor="middle" font-size="12">ztrsv</text>
<text x="450.0" y="428" text-anchor="middle" font-size="11" fill="#666">violin = ratio distribution over sizes · line = median · dark dot = worst size · green = every size ≥ gate</text>
</svg>
