<svg xmlns="http://www.w3.org/2000/svg" width="900" height="440" font-family="sans-serif">
<rect width="900" height="440" fill="white"/>
<text x="450.0" y="28" text-anchor="middle" font-size="18" font-weight="bold">Complex BLAS-2: PureBLAS / OpenBLAS (AVX-512 native (Zen5), 1 thread, ComplexF64)</text>
<line x1="60" y1="358.0" x2="880" y2="358.0" stroke="#eee"/>
<text x="52" y="362.0" text-anchor="end" font-size="11" fill="#666">0×</text>
<line x1="60" y1="298.5778781630267" x2="880" y2="298.5778781630267" stroke="#eee"/>
<text x="52" y="302.5778781630267" text-anchor="end" font-size="11" fill="#666">0.5×</text>
<line x1="60" y1="239.1557563260534" x2="880" y2="239.1557563260534" stroke="#eee"/>
<text x="52" y="243.1557563260534" text-anchor="end" font-size="11" fill="#666">1×</text>
<line x1="60" y1="179.73363448908003" x2="880" y2="179.73363448908003" stroke="#eee"/>
<text x="52" y="183.73363448908003" text-anchor="end" font-size="11" fill="#666">1.5×</text>
<line x1="60" y1="239.1557563260534" x2="880" y2="239.1557563260534" stroke="#888" stroke-width="1"/>
<line x1="60" y1="243.90952607301122" x2="880" y2="243.90952607301122" stroke="#d33" stroke-width="1.5" stroke-dasharray="6 4"/>
<text x="880" y="238.90952607301122" text-anchor="end" font-size="11" fill="#d33">0.96× gate</text>
<polygon points="108.0,252.3 109.6,251.6 111.5,250.8 113.5,250.1 115.8,249.3 118.1,248.6 120.6,247.8 123.1,247.1 125.5,246.4 127.8,245.6 130.0,244.9 131.8,244.1 133.4,243.4 134.5,242.7 135.2,241.9 135.4,241.2 135.2,240.4 134.5,239.7 133.3,238.9 131.7,238.2 129.8,237.5 127.5,236.7 125.1,236.0 122.6,235.2 120.0,234.5 117.5,233.8 115.1,233.0 112.8,232.3 110.8,231.5 109.0,230.8 107.5,230.0 106.2,229.3 105.1,228.6 104.3,227.8 103.7,227.1 103.4,226.3 103.2,225.6 103.3,224.9 103.5,224.1 103.9,223.4 104.4,222.6 105.1,221.9 106.0,221.1 107.0,220.4 108.2,219.7 109.6,218.9 111.0,218.2 112.6,217.4 114.4,216.7 116.1,216.0 117.9,215.2 119.8,214.5 121.5,213.7 123.1,213.0 124.6,212.2 125.8,211.5 126.7,210.8 127.2,210.0 127.3,209.3 127.1,208.5 126.4,207.8 125.4,207.1 124.0,206.3 122.3,205.6 120.4,204.8 118.4,204.1 116.3,203.3 114.2,202.6 112.2,201.9 110.3,201.1 108.6,200.4 107.1,199.6 94.9,199.6 93.4,200.4 91.7,201.1 89.8,201.9 87.8,202.6 85.7,203.3 83.6,204.1 81.6,204.8 79.7,205.6 78.0,206.3 76.6,207.1 75.6,207.8 74.9,208.5 74.7,209.3 74.8,210.0 75.3,210.8 76.2,211.5 77.4,212.2 78.9,213.0 80.5,213.7 82.2,214.5 84.1,215.2 85.9,216.0 87.6,216.7 89.4,217.4 91.0,218.2 92.4,218.9 93.8,219.7 95.0,220.4 96.0,221.1 96.9,221.9 97.6,222.6 98.1,223.4 98.5,224.1 98.7,224.9 98.8,225.6 98.6,226.3 98.3,227.1 97.7,227.8 96.9,228.6 95.8,229.3 94.5,230.0 93.0,230.8 91.2,231.5 89.2,232.3 86.9,233.0 84.5,233.8 82.0,234.5 79.4,235.2 76.9,236.0 74.5,236.7 72.2,237.5 70.3,238.2 68.7,238.9 67.5,239.7 66.8,240.4 66.6,241.2 66.8,241.9 67.5,242.7 68.6,243.4 70.2,244.1 72.0,244.9 74.2,245.6 76.5,246.4 78.9,247.1 81.4,247.8 83.9,248.6 86.2,249.3 88.5,250.1 90.5,250.8 92.4,251.6 94.0,252.3" fill="#d33" opacity="0.5" stroke="#d33" stroke-width="1"/>
<line x1="71.8" y1="237.60742711238015" x2="130.2" y2="237.60742711238015" stroke="#114" stroke-width="2"/>
<circle cx="101.0" cy="245.5070182636576" r="2.4" fill="#114"/>
<text x="101.0" y="198.92356517926902" text-anchor="middle" font-size="11">1.01</text>
<text x="101.0" y="376" text-anchor="middle" font-size="12">zgemvN</text>
<polygon points="189.7,261.4 191.4,260.6 193.1,259.8 194.9,259.0 196.6,258.3 198.1,257.5 199.2,256.7 200.0,255.9 200.3,255.1 200.1,254.4 199.6,253.6 198.7,252.8 197.6,252.0 196.5,251.3 195.5,250.5 194.8,249.7 194.4,248.9 194.5,248.2 195.2,247.4 196.3,246.6 197.8,245.8 199.7,245.1 201.8,244.3 204.0,243.5 206.2,242.7 208.2,241.9 210.0,241.2 211.5,240.4 212.7,239.6 213.7,238.8 214.4,238.1 215.1,237.3 215.6,236.5 216.0,235.7 216.4,235.0 216.7,234.2 216.9,233.4 217.0,232.6 216.9,231.9 216.7,231.1 216.4,230.3 216.0,229.5 215.4,228.7 214.8,228.0 214.2,227.2 213.6,226.4 213.0,225.6 212.6,224.9 212.2,224.1 212.1,223.3 212.1,222.5 212.4,221.8 213.0,221.0 213.7,220.2 214.6,219.4 215.5,218.7 216.4,217.9 217.1,217.1 217.4,216.3 217.4,215.5 216.8,214.8 215.6,214.0 213.9,213.2 211.7,212.4 209.0,211.7 206.1,210.9 203.0,210.1 199.9,209.3 197.0,208.6 194.3,207.8 191.8,207.0 189.8,206.2 176.2,206.2 174.2,207.0 171.7,207.8 169.0,208.6 166.1,209.3 163.0,210.1 159.9,210.9 157.0,211.7 154.3,212.4 152.1,213.2 150.4,214.0 149.2,214.8 148.6,215.5 148.6,216.3 148.9,217.1 149.6,217.9 150.5,218.7 151.4,219.4 152.3,220.2 153.0,221.0 153.6,221.8 153.9,222.5 153.9,223.3 153.8,224.1 153.4,224.9 153.0,225.6 152.4,226.4 151.8,227.2 151.2,228.0 150.6,228.7 150.0,229.5 149.6,230.3 149.3,231.1 149.1,231.9 149.0,232.6 149.1,233.4 149.3,234.2 149.6,235.0 150.0,235.7 150.4,236.5 150.9,237.3 151.6,238.1 152.3,238.8 153.3,239.6 154.5,240.4 156.0,241.2 157.8,241.9 159.8,242.7 162.0,243.5 164.2,244.3 166.3,245.1 168.2,245.8 169.7,246.6 170.8,247.4 171.5,248.2 171.6,248.9 171.2,249.7 170.5,250.5 169.5,251.3 168.4,252.0 167.3,252.8 166.4,253.6 165.9,254.4 165.7,255.1 166.0,255.9 166.8,256.7 167.9,257.5 169.4,258.3 171.1,259.0 172.9,259.8 174.6,260.6 176.3,261.4" fill="#d33" opacity="0.5" stroke="#d33" stroke-width="1"/>
<line x1="149.7" y1="230.10220392007977" x2="216.3" y2="230.10220392007977" stroke="#114" stroke-width="2"/>
<circle cx="183.0" cy="255.28066198874004" r="2.4" fill="#114"/>
<text x="183.0" y="205.7572634235489" text-anchor="middle" font-size="11">1.08</text>
<text x="183.0" y="376" text-anchor="middle" font-size="12">zgemvT</text>
<polygon points="270.4,257.0 271.5,256.4 272.7,255.7 273.8,255.1 274.9,254.4 275.8,253.8 276.5,253.1 277.0,252.5 277.2,251.8 277.2,251.2 277.0,250.5 276.6,249.9 276.2,249.2 275.7,248.6 275.3,247.9 275.0,247.3 275.0,246.6 275.3,246.0 275.9,245.3 276.8,244.7 278.0,244.0 279.4,243.4 280.9,242.7 282.5,242.1 284.0,241.4 285.5,240.8 286.7,240.1 287.7,239.5 288.4,238.8 288.9,238.2 289.1,237.5 289.2,236.9 289.0,236.2 288.7,235.6 288.3,234.9 287.8,234.3 287.1,233.6 286.4,233.0 285.5,232.3 284.4,231.7 283.3,231.0 282.1,230.4 280.8,229.7 279.6,229.0 278.5,228.4 277.6,227.7 276.9,227.1 276.7,226.4 276.8,225.8 277.5,225.1 278.6,224.5 280.2,223.8 282.3,223.2 284.7,222.5 287.4,221.9 290.2,221.2 292.9,220.6 295.3,219.9 297.3,219.3 298.7,218.6 299.4,218.0 299.4,217.3 298.7,216.7 297.2,216.0 295.1,215.4 292.5,214.7 289.5,214.1 286.4,213.4 283.3,212.8 280.2,212.1 277.4,211.5 274.9,210.8 255.1,210.8 252.6,211.5 249.8,212.1 246.7,212.8 243.6,213.4 240.5,214.1 237.5,214.7 234.9,215.4 232.8,216.0 231.3,216.7 230.6,217.3 230.6,218.0 231.3,218.6 232.7,219.3 234.7,219.9 237.1,220.6 239.8,221.2 242.6,221.9 245.3,222.5 247.7,223.2 249.8,223.8 251.4,224.5 252.5,225.1 253.2,225.8 253.3,226.4 253.1,227.1 252.4,227.7 251.5,228.4 250.4,229.0 249.2,229.7 247.9,230.4 246.7,231.0 245.6,231.7 244.5,232.3 243.6,233.0 242.9,233.6 242.2,234.3 241.7,234.9 241.3,235.6 241.0,236.2 240.8,236.9 240.9,237.5 241.1,238.2 241.6,238.8 242.3,239.5 243.3,240.1 244.5,240.8 246.0,241.4 247.5,242.1 249.1,242.7 250.6,243.4 252.0,244.0 253.2,244.7 254.1,245.3 254.7,246.0 255.0,246.6 255.0,247.3 254.7,247.9 254.3,248.6 253.8,249.2 253.4,249.9 253.0,250.5 252.8,251.2 252.8,251.8 253.0,252.5 253.5,253.1 254.2,253.8 255.1,254.4 256.2,255.1 257.3,255.7 258.5,256.4 259.6,257.0" fill="#d33" opacity="0.5" stroke="#d33" stroke-width="1"/>
<line x1="246.0" y1="231.36987689162817" x2="284.0" y2="231.36987689162817" stroke="#114" stroke-width="2"/>
<circle cx="265.0" cy="251.7189244320011" r="2.4" fill="#114"/>
<text x="265.0" y="209.48945698947966" text-anchor="middle" font-size="11">1.07</text>
<text x="265.0" y="376" text-anchor="middle" font-size="12">zgemvC</text>
<polygon points="350.2,240.3 351.1,239.9 352.2,239.6 353.4,239.2 354.8,238.9 356.3,238.5 357.8,238.1 359.3,237.8 360.9,237.4 362.5,237.1 364.1,236.7 365.7,236.3 367.4,236.0 369.1,235.6 370.9,235.3 372.8,234.9 374.7,234.5 376.5,234.2 378.2,233.8 379.7,233.5 380.8,233.1 381.4,232.7 381.4,232.4 380.8,232.0 379.6,231.7 377.7,231.3 375.4,230.9 372.8,230.6 369.9,230.2 367.1,229.9 364.4,229.5 362.0,229.1 360.0,228.8 358.5,228.4 357.5,228.1 356.9,227.7 356.8,227.3 357.0,227.0 357.5,226.6 358.1,226.3 358.7,225.9 359.4,225.5 359.9,225.2 360.4,224.8 360.7,224.5 360.9,224.1 361.2,223.7 361.4,223.4 361.7,223.0 362.2,222.7 362.8,222.3 363.5,221.9 364.4,221.6 365.4,221.2 366.3,220.9 367.2,220.5 367.9,220.1 368.3,219.8 368.4,219.4 368.1,219.1 367.4,218.7 366.4,218.3 364.9,218.0 363.3,217.6 361.4,217.3 359.4,216.9 357.5,216.5 355.7,216.2 354.0,215.8 352.5,215.5 351.2,215.1 350.1,214.7 343.9,214.7 342.8,215.1 341.5,215.5 340.0,215.8 338.3,216.2 336.5,216.5 334.6,216.9 332.6,217.3 330.7,217.6 329.1,218.0 327.6,218.3 326.6,218.7 325.9,219.1 325.6,219.4 325.7,219.8 326.1,220.1 326.8,220.5 327.7,220.9 328.6,221.2 329.6,221.6 330.5,221.9 331.2,222.3 331.8,222.7 332.3,223.0 332.6,223.4 332.8,223.7 333.1,224.1 333.3,224.5 333.6,224.8 334.1,225.2 334.6,225.5 335.3,225.9 335.9,226.3 336.5,226.6 337.0,227.0 337.2,227.3 337.1,227.7 336.5,228.1 335.5,228.4 334.0,228.8 332.0,229.1 329.6,229.5 326.9,229.9 324.1,230.2 321.2,230.6 318.6,230.9 316.3,231.3 314.4,231.7 313.2,232.0 312.6,232.4 312.6,232.7 313.2,233.1 314.3,233.5 315.8,233.8 317.5,234.2 319.3,234.5 321.2,234.9 323.1,235.3 324.9,235.6 326.6,236.0 328.3,236.3 329.9,236.7 331.5,237.1 333.1,237.4 334.7,237.8 336.2,238.1 337.7,238.5 339.2,238.9 340.6,239.2 341.8,239.6 342.9,239.9 343.8,240.3" fill="#2a8" opacity="0.5" stroke="#2a8" stroke-width="1"/>
<line x1="315.3" y1="231.46961489193484" x2="378.7" y2="231.46961489193484" stroke="#114" stroke-width="2"/>
<circle cx="347.0" cy="236.6948472071331" r="2.4" fill="#114"/>
<text x="347.0" y="211.40564618377442" text-anchor="middle" font-size="11">1.06</text>
<text x="347.0" y="376" text-anchor="middle" font-size="12">zgeru</text>
<polygon points="446.1,248.6 448.5,245.8 450.8,243.0 453.1,240.2 455.2,237.4 457.1,234.6 458.7,231.9 460.0,229.1 461.0,226.3 461.6,223.5 461.8,220.7 461.7,217.9 461.2,215.1 460.5,212.3 459.4,209.5 458.2,206.7 456.7,203.9 455.2,201.1 453.5,198.3 451.8,195.5 450.1,192.7 448.5,189.9 446.9,187.1 445.5,184.3 444.2,181.5 443.1,178.7 442.1,175.9 441.5,173.1 441.0,170.3 440.7,167.5 440.7,164.7 440.9,161.9 441.2,159.1 441.6,156.3 442.2,153.5 442.7,150.7 443.3,147.9 443.9,145.1 444.4,142.3 444.8,139.5 445.1,136.7 445.5,133.9 445.7,131.1 446.0,128.3 446.4,125.5 446.8,122.7 447.3,119.9 448.0,117.1 448.8,114.3 449.8,111.5 451.0,108.8 452.3,106.0 453.7,103.2 455.2,100.4 456.7,97.6 458.2,94.8 459.6,92.0 460.9,89.2 462.0,86.4 462.8,83.6 463.3,80.8 463.4,78.0 463.2,75.2 462.6,72.4 461.6,69.6 460.2,66.8 458.5,64.0 456.5,61.2 454.3,58.4 451.9,55.6 449.5,52.8 447.1,50.0 410.9,50.0 408.5,52.8 406.1,55.6 403.7,58.4 401.5,61.2 399.5,64.0 397.8,66.8 396.4,69.6 395.4,72.4 394.8,75.2 394.6,78.0 394.7,80.8 395.2,83.6 396.0,86.4 397.1,89.2 398.4,92.0 399.8,94.8 401.3,97.6 402.8,100.4 404.3,103.2 405.7,106.0 407.0,108.8 408.2,111.5 409.2,114.3 410.0,117.1 410.7,119.9 411.2,122.7 411.6,125.5 412.0,128.3 412.3,131.1 412.5,133.9 412.9,136.7 413.2,139.5 413.6,142.3 414.1,145.1 414.7,147.9 415.3,150.7 415.8,153.5 416.4,156.3 416.8,159.1 417.1,161.9 417.3,164.7 417.3,167.5 417.0,170.3 416.5,173.1 415.9,175.9 414.9,178.7 413.8,181.5 412.5,184.3 411.1,187.1 409.5,189.9 407.9,192.7 406.2,195.5 404.5,198.3 402.8,201.1 401.3,203.9 399.8,206.7 398.6,209.5 397.5,212.3 396.8,215.1 396.3,217.9 396.2,220.7 396.4,223.5 397.0,226.3 398.0,229.1 399.3,231.9 400.9,234.6 402.8,237.4 404.9,240.2 407.2,243.0 409.5,245.8 411.9,248.6" fill="#2a8" opacity="0.5" stroke="#2a8" stroke-width="1"/>
<line x1="413.2" y1="139.30383213327002" x2="444.8" y2="139.30383213327002" stroke="#114" stroke-width="2"/>
<circle cx="429.0" cy="229.01111611536487" r="2.4" fill="#114"/>
<text x="429.0" y="61.43396226415098" text-anchor="middle" font-size="11">1.84</text>
<text x="429.0" y="376" text-anchor="middle" font-size="12">zhemv</text>
<polygon points="513.5,259.9 514.3,258.4 515.4,256.9 516.6,255.4 518.2,254.0 519.9,252.5 522.0,251.0 524.3,249.5 526.8,248.0 529.4,246.6 532.2,245.1 535.0,243.6 537.6,242.1 540.1,240.6 542.2,239.2 543.8,237.7 544.9,236.2 545.4,234.7 545.3,233.2 544.7,231.8 543.4,230.3 541.7,228.8 539.7,227.3 537.4,225.9 535.1,224.4 532.8,222.9 530.7,221.4 528.8,219.9 527.2,218.5 525.9,217.0 524.8,215.5 524.0,214.0 523.3,212.5 522.8,211.1 522.2,209.6 521.7,208.1 521.1,206.6 520.5,205.1 519.8,203.7 519.0,202.2 518.3,200.7 517.6,199.2 516.9,197.7 516.4,196.3 515.9,194.8 515.7,193.3 515.6,191.8 515.7,190.3 516.0,188.9 516.6,187.4 517.3,185.9 518.2,184.4 519.3,183.0 520.5,181.5 521.8,180.0 523.2,178.5 524.4,177.0 525.6,175.6 526.6,174.1 527.4,172.6 527.8,171.1 528.0,169.6 527.7,168.2 527.2,166.7 526.3,165.2 525.2,163.7 523.8,162.2 522.4,160.8 520.9,159.3 519.4,157.8 517.9,156.3 516.6,154.8 505.4,154.8 504.1,156.3 502.6,157.8 501.1,159.3 499.6,160.8 498.2,162.2 496.8,163.7 495.7,165.2 494.8,166.7 494.3,168.2 494.0,169.6 494.2,171.1 494.6,172.6 495.4,174.1 496.4,175.6 497.6,177.0 498.8,178.5 500.2,180.0 501.5,181.5 502.7,183.0 503.8,184.4 504.7,185.9 505.4,187.4 506.0,188.9 506.3,190.3 506.4,191.8 506.3,193.3 506.1,194.8 505.6,196.3 505.1,197.7 504.4,199.2 503.7,200.7 503.0,202.2 502.2,203.7 501.5,205.1 500.9,206.6 500.3,208.1 499.8,209.6 499.2,211.1 498.7,212.5 498.0,214.0 497.2,215.5 496.1,217.0 494.8,218.5 493.2,219.9 491.3,221.4 489.2,222.9 486.9,224.4 484.6,225.9 482.3,227.3 480.3,228.8 478.6,230.3 477.3,231.8 476.7,233.2 476.6,234.7 477.1,236.2 478.2,237.7 479.8,239.2 481.9,240.6 484.4,242.1 487.0,243.6 489.8,245.1 492.6,246.6 495.2,248.0 497.7,249.5 500.0,251.0 502.1,252.5 503.8,254.0 505.4,255.4 506.6,256.9 507.7,258.4 508.5,259.9" fill="#2a8" opacity="0.5" stroke="#2a8" stroke-width="1"/>
<line x1="479.1" y1="229.77274232356262" x2="542.9" y2="229.77274232356262" stroke="#114" stroke-width="2"/>
<circle cx="511.0" cy="240.69080709949455" r="2.4" fill="#114"/>
<text x="511.0" y="159.20169853442235" text-anchor="middle" font-size="11">1.08</text>
<text x="511.0" y="376" text-anchor="middle" font-size="12">ztrmv</text>
<polygon points="599.0,254.4 600.6,253.6 602.5,252.7 604.6,251.9 606.9,251.0 609.4,250.1 612.0,249.3 614.6,248.4 617.2,247.6 619.6,246.7 621.8,245.9 623.8,245.0 625.4,244.2 626.5,243.3 627.2,242.4 627.4,241.6 627.2,240.7 626.5,239.9 625.5,239.0 624.1,238.2 622.6,237.3 620.9,236.5 619.2,235.6 617.6,234.8 616.1,233.9 614.9,233.0 613.8,232.2 613.1,231.3 612.6,230.5 612.3,229.6 612.1,228.8 612.1,227.9 612.1,227.1 612.2,226.2 612.3,225.4 612.3,224.5 612.3,223.6 612.3,222.8 612.3,221.9 612.2,221.1 612.0,220.2 611.8,219.4 611.6,218.5 611.2,217.7 610.8,216.8 610.4,215.9 610.1,215.1 609.8,214.2 609.6,213.4 609.6,212.5 609.9,211.7 610.4,210.8 611.2,210.0 612.2,209.1 613.4,208.3 614.6,207.4 615.9,206.5 617.0,205.7 617.9,204.8 618.4,204.0 618.6,203.1 618.3,202.3 617.5,201.4 616.3,200.6 614.7,199.7 612.9,198.9 610.8,198.0 608.7,197.1 606.5,196.3 604.4,195.4 602.4,194.6 600.6,193.7 585.4,193.7 583.6,194.6 581.6,195.4 579.5,196.3 577.3,197.1 575.2,198.0 573.1,198.9 571.3,199.7 569.7,200.6 568.5,201.4 567.7,202.3 567.4,203.1 567.6,204.0 568.1,204.8 569.0,205.7 570.1,206.5 571.4,207.4 572.6,208.3 573.8,209.1 574.8,210.0 575.6,210.8 576.1,211.7 576.4,212.5 576.4,213.4 576.2,214.2 575.9,215.1 575.6,215.9 575.2,216.8 574.8,217.7 574.4,218.5 574.2,219.4 574.0,220.2 573.8,221.1 573.7,221.9 573.7,222.8 573.7,223.6 573.7,224.5 573.7,225.4 573.8,226.2 573.9,227.1 573.9,227.9 573.9,228.8 573.7,229.6 573.4,230.5 572.9,231.3 572.2,232.2 571.1,233.0 569.9,233.9 568.4,234.8 566.8,235.6 565.1,236.5 563.4,237.3 561.9,238.2 560.5,239.0 559.5,239.9 558.8,240.7 558.6,241.6 558.8,242.4 559.5,243.3 560.6,244.2 562.2,245.0 564.2,245.9 566.4,246.7 568.8,247.6 571.4,248.4 574.0,249.3 576.6,250.1 579.1,251.0 581.4,251.9 583.5,252.7 585.4,253.6 587.0,254.4" fill="#d33" opacity="0.5" stroke="#d33" stroke-width="1"/>
<line x1="573.8" y1="226.7170358353387" x2="612.2" y2="226.7170358353387" stroke="#114" stroke-width="2"/>
<circle cx="593.0" cy="246.19365146922885" r="2.4" fill="#114"/>
<text x="593.0" y="193.78734978192998" text-anchor="middle" font-size="11">1.10</text>
<text x="593.0" y="376" text-anchor="middle" font-size="12">ztrsv</text>
<polygon points="679.5,258.4 680.3,257.1 681.1,255.9 681.8,254.7 682.5,253.5 683.1,252.3 683.6,251.0 684.0,249.8 684.2,248.6 684.4,247.4 684.4,246.1 684.4,244.9 684.3,243.7 684.3,242.5 684.2,241.2 684.2,240.0 684.3,238.8 684.3,237.6 684.4,236.4 684.4,235.1 684.4,233.9 684.3,232.7 684.0,231.5 683.7,230.2 683.2,229.0 682.6,227.8 681.9,226.6 681.2,225.3 680.4,224.1 679.6,222.9 678.9,221.7 678.2,220.5 677.6,219.2 677.2,218.0 676.8,216.8 676.6,215.6 676.6,214.3 676.7,213.1 677.0,211.9 677.5,210.7 678.2,209.4 679.2,208.2 680.5,207.0 682.0,205.8 683.9,204.6 686.0,203.3 688.4,202.1 691.0,200.9 693.7,199.7 696.4,198.4 699.2,197.2 701.8,196.0 704.1,194.8 706.1,193.5 707.7,192.3 708.8,191.1 709.4,189.9 709.4,188.7 709.0,187.4 708.1,186.2 706.7,185.0 705.0,183.8 703.0,182.5 700.7,181.3 698.3,180.1 695.8,178.9 693.3,177.6 690.9,176.4 688.6,175.2 686.4,174.0 684.4,172.8 682.6,171.5 667.4,171.5 665.6,172.8 663.6,174.0 661.4,175.2 659.1,176.4 656.7,177.6 654.2,178.9 651.7,180.1 649.3,181.3 647.0,182.5 645.0,183.8 643.3,185.0 641.9,186.2 641.0,187.4 640.6,188.7 640.6,189.9 641.2,191.1 642.3,192.3 643.9,193.5 645.9,194.8 648.2,196.0 650.8,197.2 653.6,198.4 656.3,199.7 659.0,200.9 661.6,202.1 664.0,203.3 666.1,204.6 668.0,205.8 669.5,207.0 670.8,208.2 671.8,209.4 672.5,210.7 673.0,211.9 673.3,213.1 673.4,214.3 673.4,215.6 673.2,216.8 672.8,218.0 672.4,219.2 671.8,220.5 671.1,221.7 670.4,222.9 669.6,224.1 668.8,225.3 668.1,226.6 667.4,227.8 666.8,229.0 666.3,230.2 666.0,231.5 665.7,232.7 665.6,233.9 665.6,235.1 665.6,236.4 665.7,237.6 665.7,238.8 665.8,240.0 665.8,241.2 665.7,242.5 665.7,243.7 665.6,244.9 665.6,246.1 665.6,247.4 665.8,248.6 666.0,249.8 666.4,251.0 666.9,252.3 667.5,253.5 668.2,254.7 668.9,255.9 669.7,257.1 670.5,258.4" fill="#d33" opacity="0.5" stroke="#d33" stroke-width="1"/>
<line x1="641.7" y1="191.6715447579106" x2="708.3" y2="191.6715447579106" stroke="#114" stroke-width="2"/>
<circle cx="675.0" cy="249.3313319818572" r="2.4" fill="#114"/>
<text x="675.0" y="174.1299422371644" text-anchor="middle" font-size="11">1.40</text>
<text x="675.0" y="376" text-anchor="middle" font-size="12">zhpmv</text>
<polygon points="758.2,220.2 759.2,219.4 760.6,218.6 762.6,217.8 765.2,217.0 768.4,216.3 772.1,215.5 776.0,214.7 779.9,213.9 783.4,213.1 786.5,212.3 788.9,211.6 790.5,210.8 791.4,210.0 791.4,209.2 790.7,208.4 789.2,207.6 787.1,206.9 784.4,206.1 781.4,205.3 778.2,204.5 775.1,203.7 772.2,203.0 769.9,202.2 768.2,201.4 767.4,200.6 767.2,199.8 767.5,199.0 768.0,198.3 768.4,197.5 768.5,196.7 768.2,195.9 767.5,195.1 766.6,194.3 765.5,193.6 764.4,192.8 763.6,192.0 762.9,191.2 762.6,190.4 762.5,189.7 762.6,188.9 763.0,188.1 763.4,187.3 763.8,186.5 764.0,185.7 764.0,185.0 763.5,184.2 762.7,183.4 761.8,182.6 760.7,181.8 759.7,181.0 758.8,180.3 758.2,179.5 757.7,178.7 757.4,177.9 757.2,177.1 757.1,176.4 757.1,175.6 757.1,174.8 757.1,174.0 757.1,173.2 757.2,172.4 757.2,171.7 757.2,170.9 757.2,170.1 757.2,169.3 757.2,168.5 757.2,167.7 757.1,167.0 757.1,166.2 757.1,165.4 757.0,164.6 757.0,164.6 756.9,165.4 756.9,166.2 756.9,167.0 756.8,167.7 756.8,168.5 756.8,169.3 756.8,170.1 756.8,170.9 756.8,171.7 756.8,172.4 756.9,173.2 756.9,174.0 756.9,174.8 756.9,175.6 756.9,176.4 756.8,177.1 756.6,177.9 756.3,178.7 755.8,179.5 755.2,180.3 754.3,181.0 753.3,181.8 752.2,182.6 751.3,183.4 750.5,184.2 750.0,185.0 750.0,185.7 750.2,186.5 750.6,187.3 751.0,188.1 751.4,188.9 751.5,189.7 751.4,190.4 751.1,191.2 750.4,192.0 749.6,192.8 748.5,193.6 747.4,194.3 746.5,195.1 745.8,195.9 745.5,196.7 745.6,197.5 746.0,198.3 746.5,199.0 746.8,199.8 746.6,200.6 745.8,201.4 744.1,202.2 741.8,203.0 738.9,203.7 735.8,204.5 732.6,205.3 729.6,206.1 726.9,206.9 724.8,207.6 723.3,208.4 722.6,209.2 722.6,210.0 723.5,210.8 725.1,211.6 727.5,212.3 730.6,213.1 734.1,213.9 738.0,214.7 741.9,215.5 745.6,216.3 748.8,217.0 751.4,217.8 753.4,218.6 754.8,219.4 755.8,220.2" fill="#2a8" opacity="0.5" stroke="#2a8" stroke-width="1"/>
<line x1="725.2" y1="207.46222375292797" x2="788.8" y2="207.46222375292797" stroke="#114" stroke-width="2"/>
<circle cx="757.0" cy="213.87651648766976" r="2.4" fill="#114"/>
<text x="757.0" y="164.1825377842331" text-anchor="middle" font-size="11">1.27</text>
<text x="757.0" y="376" text-anchor="middle" font-size="12">zgbmvN</text>
<polygon points="839.0,237.3 839.0,237.0 839.0,236.8 839.1,236.6 839.1,236.4 839.1,236.1 839.2,235.9 839.2,235.7 839.3,235.5 839.3,235.2 839.3,235.0 839.3,234.8 839.4,234.6 839.3,234.3 839.3,234.1 839.3,233.9 839.3,233.7 839.3,233.4 839.3,233.2 839.4,233.0 839.5,232.8 839.7,232.5 839.8,232.3 840.0,232.1 840.1,231.9 840.2,231.6 840.4,231.4 840.8,231.2 841.4,231.0 842.5,230.7 844.4,230.5 847.3,230.3 851.5,230.1 856.9,229.8 862.7,229.6 868.2,229.4 872.0,229.2 873.4,228.9 872.1,228.7 868.6,228.5 863.7,228.3 858.7,228.0 854.5,227.8 851.6,227.6 849.9,227.4 849.0,227.1 848.3,226.9 847.6,226.7 846.7,226.5 845.6,226.3 844.5,226.0 843.5,225.8 842.9,225.6 842.7,225.4 842.7,225.1 843.0,224.9 843.5,224.7 844.1,224.5 844.6,224.2 845.0,224.0 845.2,223.8 844.9,223.6 844.4,223.3 843.5,223.1 842.5,222.9 841.5,222.7 840.7,222.4 840.0,222.2 839.6,222.0 839.3,221.8 839.1,221.5 839.1,221.3 838.9,221.3 838.9,221.5 838.7,221.8 838.4,222.0 838.0,222.2 837.3,222.4 836.5,222.7 835.5,222.9 834.5,223.1 833.6,223.3 833.1,223.6 832.8,223.8 833.0,224.0 833.4,224.2 833.9,224.5 834.5,224.7 835.0,224.9 835.3,225.1 835.3,225.4 835.1,225.6 834.5,225.8 833.5,226.0 832.4,226.3 831.3,226.5 830.4,226.7 829.7,226.9 829.0,227.1 828.1,227.4 826.4,227.6 823.5,227.8 819.3,228.0 814.3,228.3 809.4,228.5 805.9,228.7 804.6,228.9 806.0,229.2 809.8,229.4 815.3,229.6 821.1,229.8 826.5,230.1 830.7,230.3 833.6,230.5 835.5,230.7 836.6,231.0 837.2,231.2 837.6,231.4 837.8,231.6 837.9,231.9 838.0,232.1 838.2,232.3 838.3,232.5 838.5,232.8 838.6,233.0 838.7,233.2 838.7,233.4 838.7,233.7 838.7,233.9 838.7,234.1 838.7,234.3 838.6,234.6 838.7,234.8 838.7,235.0 838.7,235.2 838.7,235.5 838.8,235.7 838.8,235.9 838.9,236.1 838.9,236.4 838.9,236.6 839.0,236.8 839.0,237.0 839.0,237.3" fill="#2a8" opacity="0.5" stroke="#2a8" stroke-width="1"/>
<line x1="805.9" y1="228.7219448229226" x2="872.1" y2="228.7219448229226" stroke="#114" stroke-width="2"/>
<circle cx="839.0" cy="229.28758278728802" r="2.4" fill="#114"/>
<text x="839.0" y="217.04449400491004" text-anchor="middle" font-size="11">1.09</text>
<text x="839.0" y="376" text-anchor="middle" font-size="12">zhbmv</text>
<text x="450.0" y="428" text-anchor="middle" font-size="11" fill="#666">violin = ratio distribution over sizes · line = median · dark dot = worst size · green = every size ≥ gate</text>
</svg>
