<svg xmlns="http://www.w3.org/2000/svg" width="900" height="440" font-family="sans-serif">
<rect width="900" height="440" fill="white"/>
<text x="450.0" y="28" text-anchor="middle" font-size="18" font-weight="bold">Complex BLAS-2: PureBLAS / OpenBLAS (AVX-512 native (Zen5), 1 thread, ComplexF64)</text>
<line x1="60" y1="358.0" x2="880" y2="358.0" stroke="#eee"/>
<text x="52" y="362.0" text-anchor="end" font-size="11" fill="#666">0×</text>
<line x1="60" y1="304.60559824181996" x2="880" y2="304.60559824181996" stroke="#eee"/>
<text x="52" y="308.60559824181996" text-anchor="end" font-size="11" fill="#666">0.5×</text>
<line x1="60" y1="251.2111964836399" x2="880" y2="251.2111964836399" stroke="#eee"/>
<text x="52" y="255.2111964836399" text-anchor="end" font-size="11" fill="#666">1×</text>
<line x1="60" y1="197.81679472545983" x2="880" y2="197.81679472545983" stroke="#eee"/>
<text x="52" y="201.81679472545983" text-anchor="end" font-size="11" fill="#666">1.5×</text>
<line x1="60" y1="251.2111964836399" x2="880" y2="251.2111964836399" stroke="#888" stroke-width="1"/>
<line x1="60" y1="255.48274862429432" x2="880" y2="255.48274862429432" stroke="#d33" stroke-width="1.5" stroke-dasharray="6 4"/>
<text x="880" y="250.48274862429432" text-anchor="end" font-size="11" fill="#d33">0.96× gate</text>
<polygon points="128.7,296.0 128.9,295.2 129.3,294.4 129.8,293.6 130.5,292.7 131.4,291.9 132.4,291.1 133.5,290.2 134.6,289.4 135.6,288.6 136.4,287.8 136.9,286.9 137.1,286.1 137.1,285.3 137.0,284.4 136.9,283.6 136.7,282.8 136.6,282.0 136.4,281.1 136.3,280.3 136.1,279.5 135.9,278.6 135.7,277.8 135.5,277.0 135.6,276.2 136.2,275.3 137.3,274.5 139.3,273.7 142.3,272.8 146.3,272.0 151.4,271.2 157.3,270.4 163.7,269.5 170.0,268.7 175.7,267.9 180.4,267.0 183.7,266.2 185.5,265.4 185.7,264.5 184.5,263.7 182.1,262.9 178.7,262.1 174.5,261.2 169.8,260.4 164.9,259.6 160.1,258.7 155.6,257.9 151.4,257.1 147.6,256.3 144.3,255.4 141.3,254.6 138.7,253.8 136.5,252.9 134.6,252.1 133.0,251.3 131.7,250.5 130.7,249.6 130.0,248.8 129.6,248.0 129.3,247.1 129.2,246.3 129.1,245.5 129.1,244.7 129.1,243.8 129.1,243.0 129.1,242.2 129.0,241.3 128.9,240.5 128.8,239.7 128.7,238.9 128.6,238.0 128.5,237.2 128.2,237.2 128.1,238.0 128.0,238.9 127.9,239.7 127.8,240.5 127.7,241.3 127.6,242.2 127.5,243.0 127.5,243.8 127.5,244.7 127.5,245.5 127.5,246.3 127.4,247.1 127.1,248.0 126.6,248.8 125.9,249.6 124.9,250.5 123.7,251.3 122.1,252.1 120.2,252.9 117.9,253.8 115.3,254.6 112.4,255.4 109.1,256.3 105.3,257.1 101.1,257.9 96.5,258.7 91.7,259.6 86.8,260.4 82.2,261.2 78.0,262.1 74.6,262.9 72.1,263.7 70.9,264.5 71.2,265.4 72.9,266.2 76.2,267.0 80.9,267.9 86.7,268.7 93.0,269.5 99.4,270.4 105.3,271.2 110.4,272.0 114.4,272.8 117.4,273.7 119.4,274.5 120.5,275.3 121.0,276.2 121.1,277.0 121.0,277.8 120.8,278.6 120.6,279.5 120.4,280.3 120.2,281.1 120.1,282.0 120.0,282.8 119.8,283.6 119.6,284.4 119.5,285.3 119.5,286.1 119.8,286.9 120.3,287.8 121.1,288.6 122.0,289.4 123.1,290.2 124.3,291.1 125.3,291.9 126.2,292.7 126.9,293.6 127.4,294.4 127.8,295.2 128.0,296.0" fill="#d33" opacity="0.5" stroke="#d33" stroke-width="1"/>
<line x1="71.2" y1="265.42171837594105" x2="185.5" y2="265.42171837594105" stroke="#114" stroke-width="2"/>
<circle cx="128.33333333333331" cy="284.7522466979302" r="2.4" fill="#114"/>
<text x="128.33333333333331" y="237.0621864277329" text-anchor="middle" font-size="11">0.87</text>
<text x="128.33333333333331" y="376" text-anchor="middle" font-size="12">zgemvN</text>
<polygon points="274.6,272.2 276.4,271.5 278.4,270.8 280.3,270.1 282.2,269.3 283.9,268.6 285.5,267.9 286.8,267.2 287.8,266.5 288.5,265.8 289.0,265.0 289.3,264.3 289.5,263.6 289.7,262.9 289.8,262.2 290.1,261.5 290.5,260.7 291.1,260.0 291.8,259.3 292.7,258.6 293.7,257.9 294.6,257.2 295.6,256.4 296.5,255.7 297.3,255.0 298.0,254.3 298.6,253.6 299.1,252.9 299.6,252.1 300.0,251.4 300.4,250.7 300.8,250.0 301.2,249.3 301.7,248.6 302.3,247.8 302.9,247.1 303.6,246.4 304.4,245.7 305.3,245.0 306.4,244.3 307.6,243.5 309.0,242.8 310.5,242.1 312.1,241.4 313.9,240.7 315.6,240.0 317.4,239.2 319.0,238.5 320.3,237.8 321.4,237.1 322.1,236.4 322.4,235.7 322.2,234.9 321.5,234.2 320.4,233.5 318.7,232.8 316.7,232.1 314.2,231.4 311.4,230.6 308.3,229.9 304.9,229.2 301.5,228.5 298.0,227.8 294.4,227.1 290.9,226.3 287.6,225.6 284.4,224.9 281.4,224.2 278.7,223.5 276.2,222.7 274.1,222.0 272.2,221.3 257.8,221.3 255.9,222.0 253.8,222.7 251.3,223.5 248.6,224.2 245.6,224.9 242.4,225.6 239.1,226.3 235.6,227.1 232.0,227.8 228.5,228.5 225.1,229.2 221.7,229.9 218.6,230.6 215.8,231.4 213.3,232.1 211.3,232.8 209.6,233.5 208.5,234.2 207.8,234.9 207.6,235.7 207.9,236.4 208.6,237.1 209.7,237.8 211.0,238.5 212.6,239.2 214.4,240.0 216.1,240.7 217.9,241.4 219.5,242.1 221.0,242.8 222.4,243.5 223.6,244.3 224.7,245.0 225.6,245.7 226.4,246.4 227.1,247.1 227.7,247.8 228.3,248.6 228.8,249.3 229.2,250.0 229.6,250.7 230.0,251.4 230.4,252.1 230.9,252.9 231.4,253.6 232.0,254.3 232.7,255.0 233.5,255.7 234.4,256.4 235.4,257.2 236.3,257.9 237.3,258.6 238.2,259.3 238.9,260.0 239.5,260.7 239.9,261.5 240.2,262.2 240.3,262.9 240.5,263.6 240.7,264.3 241.0,265.0 241.5,265.8 242.2,266.5 243.2,267.2 244.5,267.9 246.1,268.6 247.8,269.3 249.7,270.1 251.6,270.8 253.6,271.5 255.4,272.2" fill="#d33" opacity="0.5" stroke="#d33" stroke-width="1"/>
<line x1="219.3" y1="242.01330218942343" x2="310.7" y2="242.01330218942343" stroke="#114" stroke-width="2"/>
<circle cx="265.0" cy="266.16704233457915" r="2.4" fill="#114"/>
<text x="265.0" y="220.41391906819692" text-anchor="middle" font-size="11">1.09</text>
<text x="265.0" y="376" text-anchor="middle" font-size="12">zgemvC</text>
<polygon points="402.9,255.2 403.4,254.8 404.2,254.4 405.1,254.0 406.3,253.6 407.8,253.3 409.6,252.9 411.7,252.5 414.2,252.1 417.0,251.8 420.1,251.4 423.5,251.0 427.1,250.6 430.8,250.3 434.7,249.9 438.6,249.5 442.5,249.1 446.2,248.7 449.6,248.4 452.7,248.0 455.2,247.6 457.2,247.2 458.5,246.9 459.1,246.5 458.9,246.1 458.1,245.7 456.8,245.4 454.9,245.0 452.7,244.6 450.3,244.2 447.9,243.9 445.5,243.5 443.1,243.1 440.9,242.7 438.9,242.3 437.0,242.0 435.2,241.6 433.6,241.2 432.1,240.8 430.8,240.5 429.8,240.1 429.0,239.7 428.5,239.3 428.3,239.0 428.4,238.6 428.7,238.2 429.1,237.8 429.5,237.5 430.0,237.1 430.2,236.7 430.2,236.3 429.8,235.9 429.1,235.6 427.9,235.2 426.3,234.8 424.4,234.4 422.2,234.1 419.8,233.7 417.4,233.3 415.1,232.9 412.9,232.6 410.9,232.2 409.2,231.8 407.7,231.4 406.4,231.0 405.4,230.7 404.5,230.3 403.9,229.9 403.3,229.5 402.9,229.2 402.6,228.8 402.3,228.4 401.0,228.4 400.8,228.8 400.4,229.2 400.0,229.5 399.5,229.9 398.8,230.3 397.9,230.7 396.9,231.0 395.6,231.4 394.1,231.8 392.4,232.2 390.4,232.6 388.2,232.9 385.9,233.3 383.5,233.7 381.2,234.1 379.0,234.4 377.0,234.8 375.4,235.2 374.3,235.6 373.5,235.9 373.1,236.3 373.1,236.7 373.4,237.1 373.8,237.5 374.3,237.8 374.7,238.2 374.9,238.6 375.0,239.0 374.8,239.3 374.3,239.7 373.5,240.1 372.5,240.5 371.2,240.8 369.8,241.2 368.2,241.6 366.4,242.0 364.5,242.3 362.4,242.7 360.2,243.1 357.9,243.5 355.4,243.9 353.0,244.2 350.6,244.6 348.4,245.0 346.6,245.4 345.2,245.7 344.4,246.1 344.3,246.5 344.9,246.9 346.1,247.2 348.1,247.6 350.7,248.0 353.7,248.4 357.2,248.7 360.9,249.1 364.7,249.5 368.6,249.9 372.5,250.3 376.3,250.6 379.9,251.0 383.2,251.4 386.3,251.8 389.1,252.1 391.6,252.5 393.7,252.9 395.5,253.3 397.0,253.6 398.2,254.0 399.2,254.4 399.9,254.8 400.5,255.2" fill="#2a8" opacity="0.5" stroke="#2a8" stroke-width="1"/>
<line x1="349.9" y1="244.72035379689052" x2="453.4" y2="244.72035379689052" stroke="#114" stroke-width="2"/>
<circle cx="401.66666666666663" cy="249.60935983505" r="2.4" fill="#114"/>
<text x="401.66666666666663" y="225.1735869855657" text-anchor="middle" font-size="11">1.06</text>
<text x="401.66666666666663" y="376" text-anchor="middle" font-size="12">zgeru</text>
<polygon points="552.5,238.2 555.6,235.6 559.1,232.9 562.9,230.3 567.0,227.6 571.2,225.0 575.5,222.3 579.7,219.7 583.7,217.0 587.3,214.4 590.4,211.7 592.8,209.1 594.6,206.4 595.5,203.8 595.7,201.1 595.2,198.5 593.9,195.8 592.1,193.2 589.9,190.5 587.3,187.9 584.5,185.2 581.8,182.6 579.1,179.9 576.5,177.3 574.3,174.6 572.3,172.0 570.6,169.3 569.2,166.7 568.0,164.0 567.0,161.3 566.2,158.7 565.5,156.0 565.0,153.4 564.6,150.7 564.3,148.1 564.1,145.4 564.1,142.8 564.4,140.1 564.8,137.5 565.4,134.8 566.3,132.2 567.5,129.5 568.8,126.9 570.3,124.2 571.9,121.6 573.6,118.9 575.3,116.3 577.0,113.6 578.6,111.0 580.0,108.3 581.3,105.7 582.3,103.0 583.0,100.4 583.4,97.7 583.5,95.1 583.1,92.4 582.3,89.8 581.1,87.1 579.5,84.5 577.6,81.8 575.3,79.2 572.7,76.5 569.9,73.9 567.0,71.2 564.0,68.6 561.1,65.9 558.2,63.3 555.4,60.6 552.9,58.0 550.5,55.3 548.4,52.7 546.5,50.0 530.1,50.0 528.3,52.7 526.2,55.3 523.8,58.0 521.2,60.6 518.5,63.3 515.6,65.9 512.6,68.6 509.7,71.2 506.7,73.9 504.0,76.5 501.4,79.2 499.1,81.8 497.1,84.5 495.5,87.1 494.4,89.8 493.6,92.4 493.2,95.1 493.2,97.7 493.6,100.4 494.4,103.0 495.4,105.7 496.6,108.3 498.1,111.0 499.7,113.6 501.4,116.3 503.1,118.9 504.8,121.6 506.4,124.2 507.9,126.9 509.2,129.5 510.3,132.2 511.2,134.8 511.9,137.5 512.3,140.1 512.5,142.8 512.5,145.4 512.4,148.1 512.1,150.7 511.7,153.4 511.1,156.0 510.5,158.7 509.7,161.3 508.7,164.0 507.5,166.7 506.1,169.3 504.4,172.0 502.4,174.6 500.1,177.3 497.6,179.9 494.9,182.6 492.1,185.2 489.4,187.9 486.8,190.5 484.5,193.2 482.7,195.8 481.5,198.5 480.9,201.1 481.1,203.8 482.1,206.4 483.8,209.1 486.3,211.7 489.4,214.4 493.0,217.0 496.9,219.7 501.1,222.3 505.4,225.0 509.7,227.6 513.7,230.3 517.6,232.9 521.1,235.6 524.2,238.2" fill="#2a8" opacity="0.5" stroke="#2a8" stroke-width="1"/>
<line x1="510.9" y1="157.02727449721715" x2="565.8" y2="157.02727449721715" stroke="#114" stroke-width="2"/>
<circle cx="538.3333333333333" cy="209.98655216302282" r="2.4" fill="#114"/>
<text x="538.3333333333333" y="61.433962264150935" text-anchor="middle" font-size="11">1.88</text>
<text x="538.3333333333333" y="376" text-anchor="middle" font-size="12">zhemv</text>
<polygon points="681.9,270.6 683.6,269.2 685.6,267.7 687.8,266.3 690.4,264.8 693.1,263.4 696.1,261.9 699.3,260.5 702.6,259.0 706.0,257.5 709.5,256.1 712.9,254.6 716.3,253.2 719.5,251.7 722.5,250.3 725.2,248.8 727.6,247.4 729.6,245.9 731.0,244.5 732.0,243.0 732.4,241.6 732.2,240.1 731.5,238.7 730.3,237.2 728.6,235.8 726.6,234.3 724.3,232.9 721.8,231.4 719.2,230.0 716.7,228.5 714.2,227.1 711.8,225.6 709.6,224.2 707.6,222.7 705.8,221.3 704.1,219.8 702.6,218.4 701.2,216.9 699.9,215.5 698.6,214.0 697.5,212.6 696.5,211.1 695.7,209.7 695.0,208.2 694.5,206.8 694.4,205.3 694.4,203.9 694.8,202.4 695.5,201.0 696.4,199.5 697.5,198.1 698.8,196.6 700.1,195.2 701.4,193.7 702.7,192.3 703.7,190.8 704.4,189.4 704.9,187.9 704.9,186.5 704.6,185.0 703.8,183.6 702.7,182.1 701.2,180.7 699.4,179.2 697.4,177.8 695.2,176.3 692.9,174.9 690.6,173.4 688.4,172.0 686.3,170.5 684.3,169.1 682.6,167.6 667.4,167.6 665.7,169.1 663.7,170.5 661.6,172.0 659.4,173.4 657.1,174.9 654.8,176.3 652.6,177.8 650.6,179.2 648.8,180.7 647.3,182.1 646.2,183.6 645.4,185.0 645.1,186.5 645.1,187.9 645.6,189.4 646.3,190.8 647.3,192.3 648.6,193.7 649.9,195.2 651.2,196.6 652.5,198.1 653.6,199.5 654.5,201.0 655.2,202.4 655.6,203.9 655.6,205.3 655.5,206.8 655.0,208.2 654.3,209.7 653.5,211.1 652.5,212.6 651.4,214.0 650.1,215.5 648.8,216.9 647.4,218.4 645.9,219.8 644.2,221.3 642.4,222.7 640.4,224.2 638.2,225.6 635.8,227.1 633.3,228.5 630.8,230.0 628.2,231.4 625.7,232.9 623.4,234.3 621.4,235.8 619.7,237.2 618.5,238.7 617.8,240.1 617.6,241.6 618.0,243.0 619.0,244.5 620.4,245.9 622.4,247.4 624.8,248.8 627.5,250.3 630.5,251.7 633.7,253.2 637.1,254.6 640.5,256.1 644.0,257.5 647.4,259.0 650.7,260.5 653.9,261.9 656.9,263.4 659.6,264.8 662.2,266.3 664.4,267.7 666.4,269.2 668.1,270.6" fill="#2a8" opacity="0.5" stroke="#2a8" stroke-width="1"/>
<line x1="622.7" y1="234.77935683929945" x2="727.3" y2="234.77935683929945" stroke="#114" stroke-width="2"/>
<circle cx="675.0" cy="255.1599430874857" r="2.4" fill="#114"/>
<text x="675.0" y="171.74103110458788" text-anchor="middle" font-size="11">1.15</text>
<text x="675.0" y="376" text-anchor="middle" font-size="12">ztrmv</text>
<polygon points="813.0,286.9 813.5,285.6 814.1,284.3 814.8,283.1 815.4,281.8 816.1,280.5 816.7,279.3 817.2,278.0 817.7,276.7 818.0,275.4 818.4,274.2 818.9,272.9 819.5,271.6 820.5,270.4 821.8,269.1 823.6,267.8 826.0,266.5 828.9,265.3 832.5,264.0 836.5,262.7 840.9,261.5 845.5,260.2 850.1,258.9 854.3,257.6 858.0,256.4 861.0,255.1 863.2,253.8 864.6,252.6 865.3,251.3 865.6,250.0 865.7,248.7 865.7,247.5 866.0,246.2 866.5,244.9 867.2,243.7 868.0,242.4 868.7,241.1 869.1,239.8 869.0,238.6 868.5,237.3 867.5,236.0 866.3,234.8 865.1,233.5 863.9,232.2 863.1,230.9 862.8,229.7 862.9,228.4 863.7,227.1 864.8,225.9 866.1,224.6 867.4,223.3 868.2,222.0 868.4,220.8 867.5,219.5 865.5,218.2 862.3,217.0 858.0,215.7 852.9,214.4 847.2,213.1 841.5,211.9 835.9,210.6 830.8,209.3 826.4,208.1 822.7,206.8 819.7,205.5 817.5,204.2 815.8,203.0 814.6,201.7 813.7,200.4 813.1,199.2 812.6,197.9 812.3,196.6 811.0,196.6 810.7,197.9 810.2,199.2 809.6,200.4 808.8,201.7 807.5,203.0 805.8,204.2 803.6,205.5 800.7,206.8 797.0,208.1 792.5,209.3 787.5,210.6 781.9,211.9 776.1,213.1 770.5,214.4 765.3,215.7 761.0,217.0 757.8,218.2 755.8,219.5 755.0,220.8 755.1,222.0 756.0,223.3 757.2,224.6 758.6,225.9 759.7,227.1 760.4,228.4 760.6,229.7 760.2,230.9 759.4,232.2 758.3,233.5 757.0,234.8 755.8,236.0 754.9,237.3 754.3,238.6 754.3,239.8 754.6,241.1 755.3,242.4 756.1,243.7 756.8,244.9 757.3,246.2 757.6,247.5 757.7,248.7 757.7,250.0 758.0,251.3 758.7,252.6 760.1,253.8 762.3,255.1 765.3,256.4 769.0,257.6 773.3,258.9 777.8,260.2 782.4,261.5 786.8,262.7 790.9,264.0 794.4,265.3 797.4,266.5 799.7,267.8 801.6,269.1 802.9,270.4 803.8,271.6 804.4,272.9 804.9,274.2 805.3,275.4 805.7,276.7 806.1,278.0 806.7,279.3 807.3,280.5 807.9,281.8 808.6,283.1 809.2,284.3 809.8,285.6 810.3,286.9" fill="#d33" opacity="0.5" stroke="#d33" stroke-width="1"/>
<line x1="754.3" y1="238.72067906493015" x2="869.0" y2="238.72067906493015" stroke="#114" stroke-width="2"/>
<circle cx="811.6666666666666" cy="255.53021415186623" r="2.4" fill="#114"/>
<text x="811.6666666666666" y="199.52368559720082" text-anchor="middle" font-size="11">1.12</text>
<text x="811.6666666666666" y="376" text-anchor="middle" font-size="12">ztrsv</text>
<text x="450.0" y="428" text-anchor="middle" font-size="11" fill="#666">violin = ratio distribution over sizes · line = median · dark dot = worst size · green = every size ≥ gate</text>
</svg>
