<svg xmlns="http://www.w3.org/2000/svg" width="900" height="460" font-family="sans-serif">
<rect width="900" height="460" fill="white"/>
<text x="450.0" y="28" text-anchor="middle" font-size="18" font-weight="bold">Complex BLAS-3: PureBLAS / OpenBLAS (AVX-512, 1 thread, ComplexF64)</text>
<line x1="62" y1="400.0" x2="768" y2="400.0" stroke="#eee"/>
<text x="54" y="404.0" text-anchor="end" font-size="11" fill="#666">0.5×</text>
<line x1="62" y1="315.136608385383" x2="768" y2="315.136608385383" stroke="#eee"/>
<text x="54" y="319.136608385383" text-anchor="end" font-size="11" fill="#666">0.7×</text>
<line x1="62" y1="225.17778815538156" x2="768" y2="225.17778815538156" stroke="#eee"/>
<text x="54" y="229.17778815538156" text-anchor="end" font-size="11" fill="#666">1.0×</text>
<line x1="62" y1="122.91334993314986" x2="768" y2="122.91334993314986" stroke="#eee"/>
<text x="54" y="126.91334993314986" text-anchor="end" font-size="11" fill="#666">1.5×</text>
<line x1="62" y1="50.35557631076315" x2="768" y2="50.35557631076315" stroke="#eee"/>
<text x="54" y="54.35557631076315" text-anchor="end" font-size="11" fill="#666">2.0×</text>
<line x1="62.0" y1="50" x2="62.0" y2="400" stroke="#f4f4f4"/>
<text x="62.0" y="418" text-anchor="middle" font-size="11" fill="#444">8</text>
<line x1="238.5" y1="50" x2="238.5" y2="400" stroke="#f4f4f4"/>
<text x="238.5" y="418" text-anchor="middle" font-size="11" fill="#444">32</text>
<line x1="415.0" y1="50" x2="415.0" y2="400" stroke="#f4f4f4"/>
<text x="415.0" y="418" text-anchor="middle" font-size="11" fill="#444">128</text>
<line x1="503.25" y1="50" x2="503.25" y2="400" stroke="#f4f4f4"/>
<text x="503.25" y="418" text-anchor="middle" font-size="11" fill="#444">256</text>
<line x1="591.5" y1="50" x2="591.5" y2="400" stroke="#f4f4f4"/>
<text x="591.5" y="418" text-anchor="middle" font-size="11" fill="#444">512</text>
<line x1="679.75" y1="50" x2="679.75" y2="400" stroke="#f4f4f4"/>
<text x="679.75" y="418" text-anchor="middle" font-size="11" fill="#444">1024</text>
<line x1="768.0" y1="50" x2="768.0" y2="400" stroke="#f4f4f4"/>
<text x="768.0" y="418" text-anchor="middle" font-size="11" fill="#444">2048</text>
<line x1="62" y1="225.17778815538156" x2="768" y2="225.17778815538156" stroke="#888"/>
<line x1="62" y1="235.4737131394156" x2="768" y2="235.4737131394156" stroke="#d33" stroke-width="1.5" stroke-dasharray="6 4"/>
<text x="66" y="230.4737131394156" font-size="11" fill="#d33">0.96× gate</text>
<polygon points="62.0,83.3 238.5,131.4 415.0,179.0 503.2,189.3 591.5,197.1 679.8,196.0 768.0,196.7 768.0,199.7 679.8,198.1 591.5,204.1 503.2,194.8 415.0,184.7 238.5,132.2 62.0,88.1" fill="#1f77b4" opacity="0.14" stroke="none"/>
<polyline points="62.0,85.3 238.5,131.8 415.0,181.9 503.2,190.3 591.5,199.9 679.8,197.5 768.0,198.6" fill="none" stroke="#1f77b4" stroke-width="2"/>
<circle cx="62.0" cy="85.3" r="3" fill="#1f77b4"/>
<circle cx="238.5" cy="131.8" r="3" fill="#1f77b4"/>
<circle cx="415.0" cy="181.9" r="3" fill="#1f77b4"/>
<circle cx="503.2" cy="190.3" r="3" fill="#1f77b4"/>
<circle cx="591.5" cy="199.9" r="3" fill="#1f77b4"/>
<circle cx="679.8" cy="197.5" r="3" fill="#1f77b4"/>
<circle cx="768.0" cy="198.6" r="3" fill="#1f77b4"/>
<line x1="782" y1="56" x2="802" y2="56" stroke="#1f77b4" stroke-width="3"/>
<text x="806" y="60" font-size="12">zgemm</text>
<polygon points="62.0,190.3 238.5,166.4 415.0,201.4 503.2,192.6 591.5,200.6 679.8,197.4 768.0,194.3 768.0,194.9 679.8,197.9 591.5,203.1 503.2,202.4 415.0,208.2 238.5,174.5 62.0,210.7" fill="#d62728" opacity="0.14" stroke="none"/>
<polyline points="62.0,196.1 238.5,171.2 415.0,202.0 503.2,197.7 591.5,201.1 679.8,197.6 768.0,194.8" fill="none" stroke="#d62728" stroke-width="2"/>
<circle cx="62.0" cy="196.1" r="3" fill="#d62728"/>
<circle cx="238.5" cy="171.2" r="3" fill="#d62728"/>
<circle cx="415.0" cy="202.0" r="3" fill="#d62728"/>
<circle cx="503.2" cy="197.7" r="3" fill="#d62728"/>
<circle cx="591.5" cy="201.1" r="3" fill="#d62728"/>
<circle cx="679.8" cy="197.6" r="3" fill="#d62728"/>
<circle cx="768.0" cy="194.8" r="3" fill="#d62728"/>
<line x1="782" y1="74" x2="802" y2="74" stroke="#d62728" stroke-width="3"/>
<text x="806" y="78" font-size="12">zhemm</text>
<polygon points="62.0,194.1 238.5,172.0 415.0,187.5 503.2,204.5 591.5,205.8 679.8,201.2 768.0,193.8 768.0,196.1 679.8,201.6 591.5,207.3 503.2,212.1 415.0,196.0 238.5,179.3 62.0,213.9" fill="#2ca02c" opacity="0.14" stroke="none"/>
<polyline points="62.0,210.5 238.5,175.1 415.0,193.0 503.2,207.6 591.5,206.9 679.8,201.4 768.0,195.3" fill="none" stroke="#2ca02c" stroke-width="2"/>
<circle cx="62.0" cy="210.5" r="3" fill="#2ca02c"/>
<circle cx="238.5" cy="175.1" r="3" fill="#2ca02c"/>
<circle cx="415.0" cy="193.0" r="3" fill="#2ca02c"/>
<circle cx="503.2" cy="207.6" r="3" fill="#2ca02c"/>
<circle cx="591.5" cy="206.9" r="3" fill="#2ca02c"/>
<circle cx="679.8" cy="201.4" r="3" fill="#2ca02c"/>
<circle cx="768.0" cy="195.3" r="3" fill="#2ca02c"/>
<line x1="782" y1="92" x2="802" y2="92" stroke="#2ca02c" stroke-width="3"/>
<text x="806" y="96" font-size="12">zsymm</text>
<polygon points="62.0,80.7 238.5,184.8 415.0,213.9 503.2,187.1 591.5,188.9 679.8,194.4 768.0,189.6 768.0,190.4 679.8,197.6 591.5,190.6 503.2,196.5 415.0,225.2 238.5,190.0 62.0,111.6" fill="#9467bd" opacity="0.14" stroke="none"/>
<polyline points="62.0,91.9 238.5,186.2 415.0,217.6 503.2,189.4 591.5,189.9 679.8,194.5 768.0,190.0" fill="none" stroke="#9467bd" stroke-width="2"/>
<circle cx="62.0" cy="91.9" r="3" fill="#9467bd"/>
<circle cx="238.5" cy="186.2" r="3" fill="#9467bd"/>
<circle cx="415.0" cy="217.6" r="3" fill="#9467bd"/>
<circle cx="503.2" cy="189.4" r="3" fill="#9467bd"/>
<circle cx="591.5" cy="189.9" r="3" fill="#9467bd"/>
<circle cx="679.8" cy="194.5" r="3" fill="#9467bd"/>
<circle cx="768.0" cy="190.0" r="3" fill="#9467bd"/>
<line x1="782" y1="110" x2="802" y2="110" stroke="#9467bd" stroke-width="3"/>
<text x="806" y="114" font-size="12">zsyrk</text>
<polygon points="62.0,92.7 238.5,181.3 415.0,213.4 503.2,184.7 591.5,190.1 679.8,194.5 768.0,194.8 768.0,195.1 679.8,198.4 591.5,199.7 503.2,196.2 415.0,216.8 238.5,183.0 62.0,104.0" fill="#ff7f0e" opacity="0.14" stroke="none"/>
<polyline points="62.0,99.5 238.5,182.1 415.0,214.1 503.2,193.0 591.5,191.5 679.8,196.8 768.0,194.8" fill="none" stroke="#ff7f0e" stroke-width="2"/>
<circle cx="62.0" cy="99.5" r="3" fill="#ff7f0e"/>
<circle cx="238.5" cy="182.1" r="3" fill="#ff7f0e"/>
<circle cx="415.0" cy="214.1" r="3" fill="#ff7f0e"/>
<circle cx="503.2" cy="193.0" r="3" fill="#ff7f0e"/>
<circle cx="591.5" cy="191.5" r="3" fill="#ff7f0e"/>
<circle cx="679.8" cy="196.8" r="3" fill="#ff7f0e"/>
<circle cx="768.0" cy="194.8" r="3" fill="#ff7f0e"/>
<line x1="782" y1="128" x2="802" y2="128" stroke="#ff7f0e" stroke-width="3"/>
<text x="806" y="132" font-size="12">zherk</text>
<polygon points="62.0,160.4 238.5,216.3 415.0,216.9 503.2,191.2 591.5,191.5 679.8,196.0 768.0,192.7 768.0,194.8 679.8,199.7 591.5,194.5 503.2,200.0 415.0,221.8 238.5,220.2 62.0,175.0" fill="#17becf" opacity="0.14" stroke="none"/>
<polyline points="62.0,162.4 238.5,217.0 415.0,219.4 503.2,195.4 591.5,193.2 679.8,197.7 768.0,193.7" fill="none" stroke="#17becf" stroke-width="2"/>
<circle cx="62.0" cy="162.4" r="3" fill="#17becf"/>
<circle cx="238.5" cy="217.0" r="3" fill="#17becf"/>
<circle cx="415.0" cy="219.4" r="3" fill="#17becf"/>
<circle cx="503.2" cy="195.4" r="3" fill="#17becf"/>
<circle cx="591.5" cy="193.2" r="3" fill="#17becf"/>
<circle cx="679.8" cy="197.7" r="3" fill="#17becf"/>
<circle cx="768.0" cy="193.7" r="3" fill="#17becf"/>
<line x1="782" y1="146" x2="802" y2="146" stroke="#17becf" stroke-width="3"/>
<text x="806" y="150" font-size="12">zher2k</text>
<polygon points="62.0,138.4 238.5,212.7 415.0,212.2 503.2,190.3 591.5,192.8 679.8,195.1 768.0,194.9 768.0,196.1 679.8,196.4 591.5,198.1 503.2,195.7 415.0,227.4 238.5,214.3 62.0,156.2" fill="#8c564b" opacity="0.14" stroke="none"/>
<polyline points="62.0,143.4 238.5,213.3 415.0,216.7 503.2,192.0 591.5,194.0 679.8,195.8 768.0,195.8" fill="none" stroke="#8c564b" stroke-width="2"/>
<circle cx="62.0" cy="143.4" r="3" fill="#8c564b"/>
<circle cx="238.5" cy="213.3" r="3" fill="#8c564b"/>
<circle cx="415.0" cy="216.7" r="3" fill="#8c564b"/>
<circle cx="503.2" cy="192.0" r="3" fill="#8c564b"/>
<circle cx="591.5" cy="194.0" r="3" fill="#8c564b"/>
<circle cx="679.8" cy="195.8" r="3" fill="#8c564b"/>
<circle cx="768.0" cy="195.8" r="3" fill="#8c564b"/>
<line x1="782" y1="164" x2="802" y2="164" stroke="#8c564b" stroke-width="3"/>
<text x="806" y="168" font-size="12">zsyr2k</text>
<polygon points="62.0,230.0 238.5,213.5 415.0,192.7 503.2,207.8 591.5,206.3 679.8,206.3 768.0,201.7 768.0,204.1 679.8,207.2 591.5,208.0 503.2,212.9 415.0,219.7 238.5,215.0 62.0,240.6" fill="#e377c2" opacity="0.14" stroke="none"/>
<polyline points="62.0,235.5 238.5,214.0 415.0,209.5 503.2,209.0 591.5,207.4 679.8,206.8 768.0,202.8" fill="none" stroke="#e377c2" stroke-width="2"/>
<circle cx="62.0" cy="235.5" r="3" fill="#e377c2"/>
<circle cx="238.5" cy="214.0" r="3" fill="#e377c2"/>
<circle cx="415.0" cy="209.5" r="3" fill="#e377c2"/>
<circle cx="503.2" cy="209.0" r="3" fill="#e377c2"/>
<circle cx="591.5" cy="207.4" r="3" fill="#e377c2"/>
<circle cx="679.8" cy="206.8" r="3" fill="#e377c2"/>
<circle cx="768.0" cy="202.8" r="3" fill="#e377c2"/>
<line x1="782" y1="182" x2="802" y2="182" stroke="#e377c2" stroke-width="3"/>
<text x="806" y="186" font-size="12">ztrmm</text>
<polygon points="62.0,193.2 238.5,222.9 415.0,203.8 503.2,188.6 591.5,189.5 679.8,194.0 768.0,197.4 768.0,198.1 679.8,197.6 591.5,191.5 503.2,195.5 415.0,205.9 238.5,235.1 62.0,207.1" fill="#1f77b4" opacity="0.14" stroke="none"/>
<polyline points="62.0,196.8 238.5,231.8 415.0,205.0 503.2,194.8 591.5,190.6 679.8,195.7 768.0,197.6" fill="none" stroke="#1f77b4" stroke-width="2"/>
<circle cx="62.0" cy="196.8" r="3" fill="#1f77b4"/>
<circle cx="238.5" cy="231.8" r="3" fill="#1f77b4"/>
<circle cx="415.0" cy="205.0" r="3" fill="#1f77b4"/>
<circle cx="503.2" cy="194.8" r="3" fill="#1f77b4"/>
<circle cx="591.5" cy="190.6" r="3" fill="#1f77b4"/>
<circle cx="679.8" cy="195.7" r="3" fill="#1f77b4"/>
<circle cx="768.0" cy="197.6" r="3" fill="#1f77b4"/>
<line x1="782" y1="200" x2="802" y2="200" stroke="#1f77b4" stroke-width="3"/>
<text x="806" y="204" font-size="12">ztrsm</text>
<polygon points="62.0,193.6 238.5,174.7 415.0,173.9 503.2,199.6 591.5,207.3 679.8,210.5 768.0,205.1 768.0,207.2 679.8,211.2 591.5,208.4 503.2,210.6 415.0,192.2 238.5,176.0 62.0,206.4" fill="#d62728" opacity="0.14" stroke="none"/>
<polyline points="62.0,194.7 238.5,175.4 415.0,178.6 503.2,204.3 591.5,207.8 679.8,210.9 768.0,206.1" fill="none" stroke="#d62728" stroke-width="2"/>
<circle cx="62.0" cy="194.7" r="3" fill="#d62728"/>
<circle cx="238.5" cy="175.4" r="3" fill="#d62728"/>
<circle cx="415.0" cy="178.6" r="3" fill="#d62728"/>
<circle cx="503.2" cy="204.3" r="3" fill="#d62728"/>
<circle cx="591.5" cy="207.8" r="3" fill="#d62728"/>
<circle cx="679.8" cy="210.9" r="3" fill="#d62728"/>
<circle cx="768.0" cy="206.1" r="3" fill="#d62728"/>
<line x1="782" y1="218" x2="802" y2="218" stroke="#d62728" stroke-width="3"/>
<text x="806" y="222" font-size="12">ztrmmR</text>
<polygon points="62.0,98.0 238.5,125.8 415.0,127.3 503.2,155.4 591.5,177.9 679.8,196.7 768.0,199.3 768.0,199.9 679.8,197.3 591.5,180.6 503.2,160.0 415.0,132.9 238.5,135.5 62.0,124.4" fill="#2ca02c" opacity="0.14" stroke="none"/>
<polyline points="62.0,122.5 238.5,130.6 415.0,130.7 503.2,159.4 591.5,178.6 679.8,197.1 768.0,199.7" fill="none" stroke="#2ca02c" stroke-width="2"/>
<circle cx="62.0" cy="122.5" r="3" fill="#2ca02c"/>
<circle cx="238.5" cy="130.6" r="3" fill="#2ca02c"/>
<circle cx="415.0" cy="130.7" r="3" fill="#2ca02c"/>
<circle cx="503.2" cy="159.4" r="3" fill="#2ca02c"/>
<circle cx="591.5" cy="178.6" r="3" fill="#2ca02c"/>
<circle cx="679.8" cy="197.1" r="3" fill="#2ca02c"/>
<circle cx="768.0" cy="199.7" r="3" fill="#2ca02c"/>
<line x1="782" y1="236" x2="802" y2="236" stroke="#2ca02c" stroke-width="3"/>
<text x="806" y="240" font-size="12">ztrsmR</text>
<text x="415.0" y="450" text-anchor="middle" font-size="11" fill="#666">matrix size n (log) · y = median ratio (log) · dashed = the 0.96× gate</text>
</svg>
