<svg xmlns="http://www.w3.org/2000/svg" width="900" height="460" font-family="sans-serif">
<rect width="900" height="460" fill="white"/>
<text x="450.0" y="28" text-anchor="middle" font-size="18" font-weight="bold">LAPACK: PureBLAS / OpenBLAS (AVX2, 1 thread, Float64)</text>
<line x1="62" y1="400.0" x2="768" y2="400.0" stroke="#eee"/>
<text x="54" y="404.0" text-anchor="end" font-size="11" fill="#666">0.5×</text>
<line x1="62" y1="349.54194442518303" x2="768" y2="349.54194442518303" stroke="#eee"/>
<text x="54" y="353.54194442518303" text-anchor="end" font-size="11" fill="#666">0.7×</text>
<line x1="62" y1="296.0542500937612" x2="768" y2="296.0542500937612" stroke="#eee"/>
<text x="54" y="300.0542500937612" text-anchor="end" font-size="11" fill="#666">1.0×</text>
<line x1="62" y1="235.24988428927182" x2="768" y2="235.24988428927182" stroke="#eee"/>
<text x="54" y="239.24988428927182" text-anchor="end" font-size="11" fill="#666">1.5×</text>
<line x1="62" y1="192.10850018752234" x2="768" y2="192.10850018752234" stroke="#eee"/>
<text x="54" y="196.10850018752234" text-anchor="end" font-size="11" fill="#666">2.0×</text>
<line x1="62" y1="131.304134383033" x2="768" y2="131.304134383033" stroke="#eee"/>
<text x="54" y="135.304134383033" text-anchor="end" font-size="11" fill="#666">3.0×</text>
<line x1="62" y1="88.16275028128354" x2="768" y2="88.16275028128354" stroke="#eee"/>
<text x="54" y="92.16275028128354" text-anchor="end" font-size="11" fill="#666">4.0×</text>
<line x1="62" y1="54.69969304232984" x2="768" y2="54.69969304232984" stroke="#eee"/>
<text x="54" y="58.69969304232984" text-anchor="end" font-size="11" fill="#666">5.0×</text>
<line x1="62.0" y1="50" x2="62.0" y2="400" stroke="#f4f4f4"/>
<text x="62.0" y="418" text-anchor="middle" font-size="11" fill="#444">8</text>
<line x1="238.5" y1="50" x2="238.5" y2="400" stroke="#f4f4f4"/>
<text x="238.5" y="418" text-anchor="middle" font-size="11" fill="#444">32</text>
<line x1="415.0" y1="50" x2="415.0" y2="400" stroke="#f4f4f4"/>
<text x="415.0" y="418" text-anchor="middle" font-size="11" fill="#444">128</text>
<line x1="503.25" y1="50" x2="503.25" y2="400" stroke="#f4f4f4"/>
<text x="503.25" y="418" text-anchor="middle" font-size="11" fill="#444">256</text>
<line x1="591.5" y1="50" x2="591.5" y2="400" stroke="#f4f4f4"/>
<text x="591.5" y="418" text-anchor="middle" font-size="11" fill="#444">512</text>
<line x1="679.75" y1="50" x2="679.75" y2="400" stroke="#f4f4f4"/>
<text x="679.75" y="418" text-anchor="middle" font-size="11" fill="#444">1024</text>
<line x1="768.0" y1="50" x2="768.0" y2="400" stroke="#f4f4f4"/>
<text x="768.0" y="418" text-anchor="middle" font-size="11" fill="#444">2048</text>
<line x1="62" y1="296.0542500937612" x2="768" y2="296.0542500937612" stroke="#888"/>
<line x1="62" y1="302.1759987671792" x2="768" y2="302.1759987671792" stroke="#d33" stroke-width="1.5" stroke-dasharray="6 4"/>
<text x="66" y="297.1759987671792" font-size="11" fill="#d33">0.96× gate</text>
<polyline points="62.0,193.2 238.5,244.6 415.0,326.1 503.2,327.2 591.5,324.3 679.8,366.6 768.0,323.7" fill="none" stroke="#1f77b4" stroke-width="2"/>
<circle cx="62.0" cy="193.2" r="3" fill="#1f77b4"/>
<circle cx="238.5" cy="244.6" r="3" fill="#1f77b4"/>
<circle cx="415.0" cy="326.1" r="3" fill="#1f77b4"/>
<circle cx="503.2" cy="327.2" r="3" fill="#1f77b4"/>
<circle cx="591.5" cy="324.3" r="3" fill="#1f77b4"/>
<circle cx="679.8" cy="366.6" r="3" fill="#1f77b4"/>
<circle cx="768.0" cy="323.7" r="3" fill="#1f77b4"/>
<line x1="782" y1="56" x2="802" y2="56" stroke="#1f77b4" stroke-width="3"/>
<text x="806" y="60" font-size="12">potrf</text>
<polyline points="62.0,71.0 238.5,188.9 415.0,263.4 503.2,288.0 591.5,276.4 679.8,274.2 768.0,288.6" fill="none" stroke="#d62728" stroke-width="2"/>
<circle cx="62.0" cy="71.0" r="3" fill="#d62728"/>
<circle cx="238.5" cy="188.9" r="3" fill="#d62728"/>
<circle cx="415.0" cy="263.4" r="3" fill="#d62728"/>
<circle cx="503.2" cy="288.0" r="3" fill="#d62728"/>
<circle cx="591.5" cy="276.4" r="3" fill="#d62728"/>
<circle cx="679.8" cy="274.2" r="3" fill="#d62728"/>
<circle cx="768.0" cy="288.6" r="3" fill="#d62728"/>
<line x1="782" y1="74" x2="802" y2="74" stroke="#d62728" stroke-width="3"/>
<text x="806" y="78" font-size="12">geqrf</text>
<polyline points="62.0,120.0 238.5,158.0 415.0,279.1 503.2,297.0 591.5,297.5 679.8,297.2 768.0,294.9" fill="none" stroke="#2ca02c" stroke-width="2"/>
<circle cx="62.0" cy="120.0" r="3" fill="#2ca02c"/>
<circle cx="238.5" cy="158.0" r="3" fill="#2ca02c"/>
<circle cx="415.0" cy="279.1" r="3" fill="#2ca02c"/>
<circle cx="503.2" cy="297.0" r="3" fill="#2ca02c"/>
<circle cx="591.5" cy="297.5" r="3" fill="#2ca02c"/>
<circle cx="679.8" cy="297.2" r="3" fill="#2ca02c"/>
<circle cx="768.0" cy="294.9" r="3" fill="#2ca02c"/>
<line x1="782" y1="92" x2="802" y2="92" stroke="#2ca02c" stroke-width="3"/>
<text x="806" y="96" font-size="12">getrf</text>
<polyline points="62.0,220.6 238.5,247.6 415.0,281.7 503.2,276.5 591.5,275.0 679.8,296.1 768.0,288.0" fill="none" stroke="#9467bd" stroke-width="2"/>
<circle cx="62.0" cy="220.6" r="3" fill="#9467bd"/>
<circle cx="238.5" cy="247.6" r="3" fill="#9467bd"/>
<circle cx="415.0" cy="281.7" r="3" fill="#9467bd"/>
<circle cx="503.2" cy="276.5" r="3" fill="#9467bd"/>
<circle cx="591.5" cy="275.0" r="3" fill="#9467bd"/>
<circle cx="679.8" cy="296.1" r="3" fill="#9467bd"/>
<circle cx="768.0" cy="288.0" r="3" fill="#9467bd"/>
<line x1="782" y1="110" x2="802" y2="110" stroke="#9467bd" stroke-width="3"/>
<text x="806" y="114" font-size="12">gesvd</text>
<text x="415.0" y="450" text-anchor="middle" font-size="11" fill="#666">matrix size n (log) · y = median ratio (log) · dashed = the 0.96× gate</text>
</svg>
