<svg xmlns="http://www.w3.org/2000/svg" width="900" height="460" font-family="sans-serif">
<rect width="900" height="460" fill="white"/>
<text x="450.0" y="28" text-anchor="middle" font-size="18" font-weight="bold">BLAS-3: PureBLAS / OpenBLAS (AVX-512, 1 thread, Float64)</text>
<line x1="62" y1="400.0" x2="768" y2="400.0" stroke="#eee"/>
<text x="54" y="404.0" text-anchor="end" font-size="11" fill="#666">0.5×</text>
<line x1="62" y1="328.0911705073531" x2="768" y2="328.0911705073531" stroke="#eee"/>
<text x="54" y="332.0911705073531" text-anchor="end" font-size="11" fill="#666">0.7×</text>
<line x1="62" y1="251.86473950804523" x2="768" y2="251.86473950804523" stroke="#eee"/>
<text x="54" y="255.86473950804523" text-anchor="end" font-size="11" fill="#666">1.0×</text>
<line x1="62" y1="165.2111670856915" x2="768" y2="165.2111670856915" stroke="#eee"/>
<text x="54" y="169.2111670856915" text-anchor="end" font-size="11" fill="#666">1.5×</text>
<line x1="62" y1="103.72947901609047" x2="768" y2="103.72947901609047" stroke="#eee"/>
<text x="54" y="107.72947901609047" text-anchor="end" font-size="11" fill="#666">2.0×</text>
<line x1="62.0" y1="50" x2="62.0" y2="400" stroke="#f4f4f4"/>
<text x="62.0" y="418" text-anchor="middle" font-size="11" fill="#444">8</text>
<line x1="238.5" y1="50" x2="238.5" y2="400" stroke="#f4f4f4"/>
<text x="238.5" y="418" text-anchor="middle" font-size="11" fill="#444">32</text>
<line x1="415.0" y1="50" x2="415.0" y2="400" stroke="#f4f4f4"/>
<text x="415.0" y="418" text-anchor="middle" font-size="11" fill="#444">128</text>
<line x1="503.25" y1="50" x2="503.25" y2="400" stroke="#f4f4f4"/>
<text x="503.25" y="418" text-anchor="middle" font-size="11" fill="#444">256</text>
<line x1="591.5" y1="50" x2="591.5" y2="400" stroke="#f4f4f4"/>
<text x="591.5" y="418" text-anchor="middle" font-size="11" fill="#444">512</text>
<line x1="679.75" y1="50" x2="679.75" y2="400" stroke="#f4f4f4"/>
<text x="679.75" y="418" text-anchor="middle" font-size="11" fill="#444">1024</text>
<line x1="768.0" y1="50" x2="768.0" y2="400" stroke="#f4f4f4"/>
<text x="768.0" y="418" text-anchor="middle" font-size="11" fill="#444">2048</text>
<line x1="62" y1="251.86473950804523" x2="768" y2="251.86473950804523" stroke="#888"/>
<line x1="62" y1="260.5889714773278" x2="768" y2="260.5889714773278" stroke="#d33" stroke-width="1.5" stroke-dasharray="6 4"/>
<text x="66" y="255.5889714773278" font-size="11" fill="#d33">0.96× gate</text>
<polyline points="62.0,241.5 238.5,283.6 415.0,214.6 503.2,231.1 591.5,236.5 679.8,243.8 768.0,254.1" fill="none" stroke="#1f77b4" stroke-width="2"/>
<circle cx="62.0" cy="241.5" r="3" fill="#1f77b4"/>
<circle cx="238.5" cy="283.6" r="3" fill="#1f77b4"/>
<circle cx="415.0" cy="214.6" r="3" fill="#1f77b4"/>
<circle cx="503.2" cy="231.1" r="3" fill="#1f77b4"/>
<circle cx="591.5" cy="236.5" r="3" fill="#1f77b4"/>
<circle cx="679.8" cy="243.8" r="3" fill="#1f77b4"/>
<circle cx="768.0" cy="254.1" r="3" fill="#1f77b4"/>
<line x1="782" y1="56" x2="802" y2="56" stroke="#1f77b4" stroke-width="3"/>
<text x="806" y="60" font-size="12">gemm</text>
<polyline points="62.0,144.2 238.5,203.0 415.0,202.4 503.2,203.5 591.5,219.4 679.8,221.5 768.0,223.5" fill="none" stroke="#d62728" stroke-width="2"/>
<circle cx="62.0" cy="144.2" r="3" fill="#d62728"/>
<circle cx="238.5" cy="203.0" r="3" fill="#d62728"/>
<circle cx="415.0" cy="202.4" r="3" fill="#d62728"/>
<circle cx="503.2" cy="203.5" r="3" fill="#d62728"/>
<circle cx="591.5" cy="219.4" r="3" fill="#d62728"/>
<circle cx="679.8" cy="221.5" r="3" fill="#d62728"/>
<circle cx="768.0" cy="223.5" r="3" fill="#d62728"/>
<line x1="782" y1="74" x2="802" y2="74" stroke="#d62728" stroke-width="3"/>
<text x="806" y="78" font-size="12">zgemm</text>
<polyline points="62.0,196.1 238.5,192.8 415.0,218.9 503.2,248.6 591.5,241.9 679.8,242.7 768.0,252.8" fill="none" stroke="#2ca02c" stroke-width="2"/>
<circle cx="62.0" cy="196.1" r="3" fill="#2ca02c"/>
<circle cx="238.5" cy="192.8" r="3" fill="#2ca02c"/>
<circle cx="415.0" cy="218.9" r="3" fill="#2ca02c"/>
<circle cx="503.2" cy="248.6" r="3" fill="#2ca02c"/>
<circle cx="591.5" cy="241.9" r="3" fill="#2ca02c"/>
<circle cx="679.8" cy="242.7" r="3" fill="#2ca02c"/>
<circle cx="768.0" cy="252.8" r="3" fill="#2ca02c"/>
<line x1="782" y1="92" x2="802" y2="92" stroke="#2ca02c" stroke-width="3"/>
<text x="806" y="96" font-size="12">symm</text>
<polyline points="62.0,172.5 238.5,204.2 415.0,228.6 503.2,238.2 591.5,218.5 679.8,241.4 768.0,258.1" fill="none" stroke="#9467bd" stroke-width="2"/>
<circle cx="62.0" cy="172.5" r="3" fill="#9467bd"/>
<circle cx="238.5" cy="204.2" r="3" fill="#9467bd"/>
<circle cx="415.0" cy="228.6" r="3" fill="#9467bd"/>
<circle cx="503.2" cy="238.2" r="3" fill="#9467bd"/>
<circle cx="591.5" cy="218.5" r="3" fill="#9467bd"/>
<circle cx="679.8" cy="241.4" r="3" fill="#9467bd"/>
<circle cx="768.0" cy="258.1" r="3" fill="#9467bd"/>
<line x1="782" y1="110" x2="802" y2="110" stroke="#9467bd" stroke-width="3"/>
<text x="806" y="114" font-size="12">syrk</text>
<polyline points="62.0,152.4 238.5,189.3 415.0,205.0 503.2,238.3 591.5,232.6 679.8,247.7 768.0,258.6" fill="none" stroke="#ff7f0e" stroke-width="2"/>
<circle cx="62.0" cy="152.4" r="3" fill="#ff7f0e"/>
<circle cx="238.5" cy="189.3" r="3" fill="#ff7f0e"/>
<circle cx="415.0" cy="205.0" r="3" fill="#ff7f0e"/>
<circle cx="503.2" cy="238.3" r="3" fill="#ff7f0e"/>
<circle cx="591.5" cy="232.6" r="3" fill="#ff7f0e"/>
<circle cx="679.8" cy="247.7" r="3" fill="#ff7f0e"/>
<circle cx="768.0" cy="258.6" r="3" fill="#ff7f0e"/>
<line x1="782" y1="128" x2="802" y2="128" stroke="#ff7f0e" stroke-width="3"/>
<text x="806" y="132" font-size="12">syr2k</text>
<polyline points="62.0,214.3 238.5,207.8 415.0,199.5 503.2,236.3 591.5,246.6 679.8,246.7 768.0,256.7" fill="none" stroke="#17becf" stroke-width="2"/>
<circle cx="62.0" cy="214.3" r="3" fill="#17becf"/>
<circle cx="238.5" cy="207.8" r="3" fill="#17becf"/>
<circle cx="415.0" cy="199.5" r="3" fill="#17becf"/>
<circle cx="503.2" cy="236.3" r="3" fill="#17becf"/>
<circle cx="591.5" cy="246.6" r="3" fill="#17becf"/>
<circle cx="679.8" cy="246.7" r="3" fill="#17becf"/>
<circle cx="768.0" cy="256.7" r="3" fill="#17becf"/>
<line x1="782" y1="146" x2="802" y2="146" stroke="#17becf" stroke-width="3"/>
<text x="806" y="150" font-size="12">trmm</text>
<polyline points="62.0,166.6 238.5,109.2 415.0,79.9 503.2,101.2 591.5,170.1 679.8,202.1 768.0,245.4" fill="none" stroke="#8c564b" stroke-width="2"/>
<circle cx="62.0" cy="166.6" r="3" fill="#8c564b"/>
<circle cx="238.5" cy="109.2" r="3" fill="#8c564b"/>
<circle cx="415.0" cy="79.9" r="3" fill="#8c564b"/>
<circle cx="503.2" cy="101.2" r="3" fill="#8c564b"/>
<circle cx="591.5" cy="170.1" r="3" fill="#8c564b"/>
<circle cx="679.8" cy="202.1" r="3" fill="#8c564b"/>
<circle cx="768.0" cy="245.4" r="3" fill="#8c564b"/>
<line x1="782" y1="164" x2="802" y2="164" stroke="#8c564b" stroke-width="3"/>
<text x="806" y="168" font-size="12">trsm</text>
<text x="415.0" y="450" text-anchor="middle" font-size="11" fill="#666">matrix size n (log) · y = median ratio (log) · dashed = the 0.96× gate</text>
</svg>
