<svg xmlns="http://www.w3.org/2000/svg" width="962" height="420" font-family="sans-serif">
<rect width="962" height="420" fill="white"/>
<text x="481.0" y="26" text-anchor="middle" font-size="17" font-weight="bold">BLAS-1 — PureBLAS / OpenBLAS (PB/OpenBLAS ratio)</text>
<line x1="46" y1="42" x2="68" y2="42" stroke="#d62728" stroke-width="3"/>
<text x="73" y="46" font-size="12">Zen3 · AVX2</text>
<line x1="176" y1="42" x2="198" y2="42" stroke="#2ca02c" stroke-width="3"/>
<text x="203" y="46" font-size="12">Zen5 · AVX-512</text>
<line x1="327" y1="42" x2="349" y2="42" stroke="#1f77b4" stroke-width="3"/>
<text x="354" y="46" font-size="12">Zen4 · AVX-512</text>
<rect x="46" y="60" width="210" height="138" fill="none" stroke="#e2e2e2"/>
<line x1="46" y1="115.76276119065531" x2="256" y2="115.76276119065531" stroke="#d33" stroke-dasharray="4 3"/>
<text x="42" y="201.0" text-anchor="end" font-size="9" fill="#999">0.5×</text>
<text x="42" y="118.76276119065531" text-anchor="end" font-size="9" fill="#999">1.0×</text>
<text x="42" y="63.0" text-anchor="end" font-size="9" fill="#999">1.6×</text>
<polygon points="46.0,110.4 79.4,113.0 116.0,115.5 149.4,114.3 186.0,113.9 219.4,112.6 256.0,108.7 256.0,125.1 219.4,118.8 186.0,116.3 149.4,116.4 116.0,115.6 79.4,114.9 46.0,110.5" fill="#d62728" opacity="0.11"/>
<polyline points="46.0,110.5 79.4,113.2 116.0,115.6 149.4,115.0 186.0,115.6 219.4,115.7 256.0,115.8" fill="none" stroke="#d62728" stroke-width="1.6"/>
<circle cx="46.0" cy="110.5" r="2" fill="#d62728"/>
<circle cx="79.4" cy="113.2" r="2" fill="#d62728"/>
<circle cx="116.0" cy="115.6" r="2" fill="#d62728"/>
<circle cx="149.4" cy="115.0" r="2" fill="#d62728"/>
<circle cx="186.0" cy="115.6" r="2" fill="#d62728"/>
<circle cx="219.4" cy="115.7" r="2" fill="#d62728"/>
<circle cx="256.0" cy="115.8" r="2" fill="#d62728"/>
<polygon points="46.0,108.9 79.4,109.0 116.0,115.1 149.4,115.1 186.0,115.3 219.4,109.9 256.0,104.8 256.0,125.7 219.4,116.5 186.0,116.0 149.4,117.2 116.0,116.6 79.4,110.0 46.0,110.2" fill="#2ca02c" opacity="0.11"/>
<polyline points="46.0,109.5 79.4,109.6 116.0,116.1 149.4,116.2 186.0,115.7 219.4,113.8 256.0,114.4" fill="none" stroke="#2ca02c" stroke-width="1.6"/>
<circle cx="46.0" cy="109.5" r="2" fill="#2ca02c"/>
<circle cx="79.4" cy="109.6" r="2" fill="#2ca02c"/>
<circle cx="116.0" cy="116.1" r="2" fill="#2ca02c"/>
<circle cx="149.4" cy="116.2" r="2" fill="#2ca02c"/>
<circle cx="186.0" cy="115.7" r="2" fill="#2ca02c"/>
<circle cx="219.4" cy="113.8" r="2" fill="#2ca02c"/>
<circle cx="256.0" cy="114.4" r="2" fill="#2ca02c"/>
<polygon points="46.0,103.5 79.4,113.3 116.0,115.0 149.4,115.3 186.0,112.9 219.4,114.0 256.0,112.8 256.0,117.8 219.4,114.9 186.0,116.1 149.4,115.8 116.0,115.1 79.4,113.6 46.0,104.1" fill="#1f77b4" opacity="0.11"/>
<polyline points="46.0,103.9 79.4,113.5 116.0,115.1 149.4,115.5 186.0,114.4 219.4,114.4 256.0,116.4" fill="none" stroke="#1f77b4" stroke-width="1.6"/>
<circle cx="46.0" cy="103.9" r="2" fill="#1f77b4"/>
<circle cx="79.4" cy="113.5" r="2" fill="#1f77b4"/>
<circle cx="116.0" cy="115.1" r="2" fill="#1f77b4"/>
<circle cx="149.4" cy="115.5" r="2" fill="#1f77b4"/>
<circle cx="186.0" cy="114.4" r="2" fill="#1f77b4"/>
<circle cx="219.4" cy="114.4" r="2" fill="#1f77b4"/>
<circle cx="256.0" cy="116.4" r="2" fill="#1f77b4"/>
<text x="151.0" y="55" text-anchor="middle" font-size="12" font-weight="bold">axpy</text>
<line x1="46.0" y1="60" x2="46.0" y2="198" stroke="#f4f4f4"/>
<text x="46.0" y="209" text-anchor="middle" font-size="8" fill="#999">1000</text>
<line x1="79.4" y1="60" x2="79.4" y2="198" stroke="#f4f4f4"/>
<text x="79.4" y="209" text-anchor="middle" font-size="8" fill="#999">2k</text>
<line x1="116.0" y1="60" x2="116.0" y2="198" stroke="#f4f4f4"/>
<text x="116.0" y="209" text-anchor="middle" font-size="8" fill="#999">9k</text>
<line x1="149.4" y1="60" x2="149.4" y2="198" stroke="#f4f4f4"/>
<text x="149.4" y="209" text-anchor="middle" font-size="8" fill="#999">29k</text>
<line x1="186.0" y1="60" x2="186.0" y2="198" stroke="#f4f4f4"/>
<text x="186.0" y="209" text-anchor="middle" font-size="8" fill="#999">97k</text>
<line x1="219.4" y1="60" x2="219.4" y2="198" stroke="#f4f4f4"/>
<text x="219.4" y="209" text-anchor="middle" font-size="8" fill="#999">292k</text>
<line x1="256.0" y1="60" x2="256.0" y2="198" stroke="#f4f4f4"/>
<text x="256.0" y="209" text-anchor="middle" font-size="8" fill="#999">976k</text>
<rect x="276" y="60" width="210" height="138" fill="none" stroke="#e2e2e2"/>
<line x1="276" y1="115.76276119065531" x2="486" y2="115.76276119065531" stroke="#d33" stroke-dasharray="4 3"/>
<text x="272" y="201.0" text-anchor="end" font-size="9" fill="#999">0.5×</text>
<text x="272" y="118.76276119065531" text-anchor="end" font-size="9" fill="#999">1.0×</text>
<text x="272" y="63.0" text-anchor="end" font-size="9" fill="#999">1.6×</text>
<polygon points="276.0,112.1 309.4,115.4 346.0,115.7 379.4,115.2 416.0,115.4 449.4,112.9 486.0,112.0 486.0,120.3 449.4,119.4 416.0,116.5 379.4,117.0 346.0,115.8 309.4,115.6 276.0,113.1" fill="#d62728" opacity="0.11"/>
<polyline points="276.0,112.6 309.4,115.5 346.0,115.7 379.4,115.9 416.0,116.1 449.4,116.1 486.0,116.3" fill="none" stroke="#d62728" stroke-width="1.6"/>
<circle cx="276.0" cy="112.6" r="2" fill="#d62728"/>
<circle cx="309.4" cy="115.5" r="2" fill="#d62728"/>
<circle cx="346.0" cy="115.7" r="2" fill="#d62728"/>
<circle cx="379.4" cy="115.9" r="2" fill="#d62728"/>
<circle cx="416.0" cy="116.1" r="2" fill="#d62728"/>
<circle cx="449.4" cy="116.1" r="2" fill="#d62728"/>
<circle cx="486.0" cy="116.3" r="2" fill="#d62728"/>
<polygon points="276.0,112.6 309.4,114.8 346.0,115.4 379.4,114.1 416.0,115.3 449.4,111.5 486.0,99.3 486.0,127.5 449.4,116.3 416.0,116.6 379.4,119.7 346.0,117.2 309.4,116.9 276.0,113.1" fill="#2ca02c" opacity="0.11"/>
<polyline points="276.0,113.0 309.4,115.3 346.0,116.4 379.4,117.0 416.0,116.0 449.4,115.0 486.0,115.2" fill="none" stroke="#2ca02c" stroke-width="1.6"/>
<circle cx="276.0" cy="113.0" r="2" fill="#2ca02c"/>
<circle cx="309.4" cy="115.3" r="2" fill="#2ca02c"/>
<circle cx="346.0" cy="116.4" r="2" fill="#2ca02c"/>
<circle cx="379.4" cy="117.0" r="2" fill="#2ca02c"/>
<circle cx="416.0" cy="116.0" r="2" fill="#2ca02c"/>
<circle cx="449.4" cy="115.0" r="2" fill="#2ca02c"/>
<circle cx="486.0" cy="115.2" r="2" fill="#2ca02c"/>
<polygon points="276.0,113.3 309.4,115.5 346.0,115.7 379.4,115.7 416.0,114.9 449.4,114.5 486.0,114.7 486.0,117.7 449.4,116.0 416.0,116.4 379.4,116.3 346.0,115.8 309.4,115.7 276.0,114.0" fill="#1f77b4" opacity="0.11"/>
<polyline points="276.0,113.7 309.4,115.6 346.0,115.7 379.4,115.8 416.0,115.7 449.4,115.5 486.0,116.3" fill="none" stroke="#1f77b4" stroke-width="1.6"/>
<circle cx="276.0" cy="113.7" r="2" fill="#1f77b4"/>
<circle cx="309.4" cy="115.6" r="2" fill="#1f77b4"/>
<circle cx="346.0" cy="115.7" r="2" fill="#1f77b4"/>
<circle cx="379.4" cy="115.8" r="2" fill="#1f77b4"/>
<circle cx="416.0" cy="115.7" r="2" fill="#1f77b4"/>
<circle cx="449.4" cy="115.5" r="2" fill="#1f77b4"/>
<circle cx="486.0" cy="116.3" r="2" fill="#1f77b4"/>
<text x="381.0" y="55" text-anchor="middle" font-size="12" font-weight="bold">dot</text>
<line x1="276.0" y1="60" x2="276.0" y2="198" stroke="#f4f4f4"/>
<text x="276.0" y="209" text-anchor="middle" font-size="8" fill="#999">1000</text>
<line x1="309.4" y1="60" x2="309.4" y2="198" stroke="#f4f4f4"/>
<text x="309.4" y="209" text-anchor="middle" font-size="8" fill="#999">2k</text>
<line x1="346.0" y1="60" x2="346.0" y2="198" stroke="#f4f4f4"/>
<text x="346.0" y="209" text-anchor="middle" font-size="8" fill="#999">9k</text>
<line x1="379.4" y1="60" x2="379.4" y2="198" stroke="#f4f4f4"/>
<text x="379.4" y="209" text-anchor="middle" font-size="8" fill="#999">29k</text>
<line x1="416.0" y1="60" x2="416.0" y2="198" stroke="#f4f4f4"/>
<text x="416.0" y="209" text-anchor="middle" font-size="8" fill="#999">97k</text>
<line x1="449.4" y1="60" x2="449.4" y2="198" stroke="#f4f4f4"/>
<text x="449.4" y="209" text-anchor="middle" font-size="8" fill="#999">292k</text>
<line x1="486.0" y1="60" x2="486.0" y2="198" stroke="#f4f4f4"/>
<text x="486.0" y="209" text-anchor="middle" font-size="8" fill="#999">976k</text>
<rect x="506" y="60" width="210" height="138" fill="none" stroke="#e2e2e2"/>
<line x1="506" y1="170.36763831006468" x2="716" y2="170.36763831006468" stroke="#d33" stroke-dasharray="4 3"/>
<text x="502" y="201.0" text-anchor="end" font-size="9" fill="#999">0.5×</text>
<text x="502" y="173.36763831006468" text-anchor="end" font-size="9" fill="#999">1.0×</text>
<polygon points="506.0,89.7 539.4,88.2 576.0,87.9 609.4,87.5 646.0,96.6 679.4,97.4 716.0,101.4 716.0,106.0 679.4,108.1 646.0,98.9 609.4,88.0 576.0,88.2 539.4,88.5 506.0,90.0" fill="#d62728" opacity="0.11"/>
<polyline points="506.0,90.0 539.4,88.5 576.0,88.2 609.4,87.9 646.0,97.3 679.4,100.3 716.0,103.5" fill="none" stroke="#d62728" stroke-width="1.6"/>
<circle cx="506.0" cy="90.0" r="2" fill="#d62728"/>
<circle cx="539.4" cy="88.5" r="2" fill="#d62728"/>
<circle cx="576.0" cy="88.2" r="2" fill="#d62728"/>
<circle cx="609.4" cy="87.9" r="2" fill="#d62728"/>
<circle cx="646.0" cy="97.3" r="2" fill="#d62728"/>
<circle cx="679.4" cy="100.3" r="2" fill="#d62728"/>
<circle cx="716.0" cy="103.5" r="2" fill="#d62728"/>
<polygon points="506.0,68.1 539.4,63.1 576.0,74.1 609.4,73.2 646.0,68.4 679.4,93.8 716.0,92.6 716.0,96.6 679.4,94.9 646.0,75.8 609.4,73.8 576.0,74.9 539.4,63.3 506.0,68.5" fill="#2ca02c" opacity="0.11"/>
<polyline points="506.0,68.3 539.4,63.2 576.0,74.6 609.4,73.5 646.0,73.9 679.4,94.2 716.0,94.0" fill="none" stroke="#2ca02c" stroke-width="1.6"/>
<circle cx="506.0" cy="68.3" r="2" fill="#2ca02c"/>
<circle cx="539.4" cy="63.2" r="2" fill="#2ca02c"/>
<circle cx="576.0" cy="74.6" r="2" fill="#2ca02c"/>
<circle cx="609.4" cy="73.5" r="2" fill="#2ca02c"/>
<circle cx="646.0" cy="73.9" r="2" fill="#2ca02c"/>
<circle cx="679.4" cy="94.2" r="2" fill="#2ca02c"/>
<circle cx="716.0" cy="94.0" r="2" fill="#2ca02c"/>
<polygon points="506.0,69.4 539.4,67.6 576.0,87.5 609.4,87.4 646.0,90.1 679.4,94.1 716.0,95.4 716.0,96.1 679.4,94.6 646.0,92.6 609.4,87.8 576.0,87.8 539.4,68.8 506.0,71.8" fill="#1f77b4" opacity="0.11"/>
<polyline points="506.0,70.4 539.4,68.3 576.0,87.8 609.4,87.7 646.0,91.3 679.4,94.3 716.0,95.7" fill="none" stroke="#1f77b4" stroke-width="1.6"/>
<circle cx="506.0" cy="70.4" r="2" fill="#1f77b4"/>
<circle cx="539.4" cy="68.3" r="2" fill="#1f77b4"/>
<circle cx="576.0" cy="87.8" r="2" fill="#1f77b4"/>
<circle cx="609.4" cy="87.7" r="2" fill="#1f77b4"/>
<circle cx="646.0" cy="91.3" r="2" fill="#1f77b4"/>
<circle cx="679.4" cy="94.3" r="2" fill="#1f77b4"/>
<circle cx="716.0" cy="95.7" r="2" fill="#1f77b4"/>
<text x="611.0" y="55" text-anchor="middle" font-size="12" font-weight="bold">nrm2</text>
<line x1="506.0" y1="60" x2="506.0" y2="198" stroke="#f4f4f4"/>
<text x="506.0" y="209" text-anchor="middle" font-size="8" fill="#999">1000</text>
<line x1="539.4" y1="60" x2="539.4" y2="198" stroke="#f4f4f4"/>
<text x="539.4" y="209" text-anchor="middle" font-size="8" fill="#999">2k</text>
<line x1="576.0" y1="60" x2="576.0" y2="198" stroke="#f4f4f4"/>
<text x="576.0" y="209" text-anchor="middle" font-size="8" fill="#999">9k</text>
<line x1="609.4" y1="60" x2="609.4" y2="198" stroke="#f4f4f4"/>
<text x="609.4" y="209" text-anchor="middle" font-size="8" fill="#999">29k</text>
<line x1="646.0" y1="60" x2="646.0" y2="198" stroke="#f4f4f4"/>
<text x="646.0" y="209" text-anchor="middle" font-size="8" fill="#999">97k</text>
<line x1="679.4" y1="60" x2="679.4" y2="198" stroke="#f4f4f4"/>
<text x="679.4" y="209" text-anchor="middle" font-size="8" fill="#999">292k</text>
<line x1="716.0" y1="60" x2="716.0" y2="198" stroke="#f4f4f4"/>
<text x="716.0" y="209" text-anchor="middle" font-size="8" fill="#999">976k</text>
<rect x="736" y="60" width="210" height="138" fill="none" stroke="#e2e2e2"/>
<line x1="736" y1="130.7281387222876" x2="946" y2="130.7281387222876" stroke="#d33" stroke-dasharray="4 3"/>
<text x="732" y="201.0" text-anchor="end" font-size="9" fill="#999">0.5×</text>
<text x="732" y="133.7281387222876" text-anchor="end" font-size="9" fill="#999">1.0×</text>
<text x="732" y="63.11752332309954" text-anchor="end" font-size="9" fill="#999">2.07×</text>
<polygon points="736.0,67.5 769.4,69.1 806.0,87.1 839.4,87.3 876.0,101.5 909.4,102.6 946.0,102.2 946.0,110.6 909.4,118.0 876.0,104.8 839.4,88.4 806.0,87.9 769.4,69.9 736.0,68.3" fill="#d62728" opacity="0.11"/>
<polyline points="736.0,67.8 769.4,69.4 806.0,87.7 839.4,88.0 876.0,102.1 909.4,103.7 946.0,104.1" fill="none" stroke="#d62728" stroke-width="1.6"/>
<circle cx="736.0" cy="67.8" r="2" fill="#d62728"/>
<circle cx="769.4" cy="69.4" r="2" fill="#d62728"/>
<circle cx="806.0" cy="87.7" r="2" fill="#d62728"/>
<circle cx="839.4" cy="88.0" r="2" fill="#d62728"/>
<circle cx="876.0" cy="102.1" r="2" fill="#d62728"/>
<circle cx="909.4" cy="103.7" r="2" fill="#d62728"/>
<circle cx="946.0" cy="104.1" r="2" fill="#d62728"/>
<polygon points="736.0,100.1 769.4,121.1 806.0,131.9 839.4,130.5 876.0,128.5 909.4,130.1 946.0,124.7 946.0,133.1 909.4,131.9 876.0,132.2 839.4,131.1 806.0,132.6 769.4,121.5 736.0,101.4" fill="#2ca02c" opacity="0.11"/>
<polyline points="736.0,100.8 769.4,121.3 806.0,132.3 839.4,130.8 876.0,130.3 909.4,130.5 946.0,129.4" fill="none" stroke="#2ca02c" stroke-width="1.6"/>
<circle cx="736.0" cy="100.8" r="2" fill="#2ca02c"/>
<circle cx="769.4" cy="121.3" r="2" fill="#2ca02c"/>
<circle cx="806.0" cy="132.3" r="2" fill="#2ca02c"/>
<circle cx="839.4" cy="130.8" r="2" fill="#2ca02c"/>
<circle cx="876.0" cy="130.3" r="2" fill="#2ca02c"/>
<circle cx="909.4" cy="130.5" r="2" fill="#2ca02c"/>
<circle cx="946.0" cy="129.4" r="2" fill="#2ca02c"/>
<polygon points="736.0,94.9 769.4,115.8 806.0,130.6 839.4,130.7 876.0,129.7 909.4,130.7 946.0,130.4 946.0,132.1 909.4,131.4 876.0,131.3 839.4,130.8 806.0,130.7 769.4,116.2 736.0,95.5" fill="#1f77b4" opacity="0.11"/>
<polyline points="736.0,95.1 769.4,116.0 806.0,130.6 839.4,130.7 876.0,130.5 909.4,131.1 946.0,131.0" fill="none" stroke="#1f77b4" stroke-width="1.6"/>
<circle cx="736.0" cy="95.1" r="2" fill="#1f77b4"/>
<circle cx="769.4" cy="116.0" r="2" fill="#1f77b4"/>
<circle cx="806.0" cy="130.6" r="2" fill="#1f77b4"/>
<circle cx="839.4" cy="130.7" r="2" fill="#1f77b4"/>
<circle cx="876.0" cy="130.5" r="2" fill="#1f77b4"/>
<circle cx="909.4" cy="131.1" r="2" fill="#1f77b4"/>
<circle cx="946.0" cy="131.0" r="2" fill="#1f77b4"/>
<text x="841.0" y="55" text-anchor="middle" font-size="12" font-weight="bold">asum</text>
<line x1="736.0" y1="60" x2="736.0" y2="198" stroke="#f4f4f4"/>
<text x="736.0" y="209" text-anchor="middle" font-size="8" fill="#999">1000</text>
<line x1="769.4" y1="60" x2="769.4" y2="198" stroke="#f4f4f4"/>
<text x="769.4" y="209" text-anchor="middle" font-size="8" fill="#999">2k</text>
<line x1="806.0" y1="60" x2="806.0" y2="198" stroke="#f4f4f4"/>
<text x="806.0" y="209" text-anchor="middle" font-size="8" fill="#999">9k</text>
<line x1="839.4" y1="60" x2="839.4" y2="198" stroke="#f4f4f4"/>
<text x="839.4" y="209" text-anchor="middle" font-size="8" fill="#999">29k</text>
<line x1="876.0" y1="60" x2="876.0" y2="198" stroke="#f4f4f4"/>
<text x="876.0" y="209" text-anchor="middle" font-size="8" fill="#999">97k</text>
<line x1="909.4" y1="60" x2="909.4" y2="198" stroke="#f4f4f4"/>
<text x="909.4" y="209" text-anchor="middle" font-size="8" fill="#999">292k</text>
<line x1="946.0" y1="60" x2="946.0" y2="198" stroke="#f4f4f4"/>
<text x="946.0" y="209" text-anchor="middle" font-size="8" fill="#999">976k</text>
<rect x="46" y="232" width="210" height="138" fill="none" stroke="#e2e2e2"/>
<line x1="46" y1="287.7627611906553" x2="256" y2="287.7627611906553" stroke="#d33" stroke-dasharray="4 3"/>
<text x="42" y="373.0" text-anchor="end" font-size="9" fill="#999">0.5×</text>
<text x="42" y="290.7627611906553" text-anchor="end" font-size="9" fill="#999">1.0×</text>
<text x="42" y="235.0" text-anchor="end" font-size="9" fill="#999">1.6×</text>
<polygon points="46.0,282.9 79.4,285.4 116.0,286.9 149.4,286.4 186.0,287.6 219.4,286.5 256.0,284.8 256.0,290.1 219.4,289.4 186.0,290.0 149.4,286.9 116.0,287.1 79.4,285.9 46.0,283.2" fill="#d62728" opacity="0.11"/>
<polyline points="46.0,283.1 79.4,285.6 116.0,287.0 149.4,286.7 186.0,288.3 219.4,288.6 256.0,288.4" fill="none" stroke="#d62728" stroke-width="1.6"/>
<circle cx="46.0" cy="283.1" r="2" fill="#d62728"/>
<circle cx="79.4" cy="285.6" r="2" fill="#d62728"/>
<circle cx="116.0" cy="287.0" r="2" fill="#d62728"/>
<circle cx="149.4" cy="286.7" r="2" fill="#d62728"/>
<circle cx="186.0" cy="288.3" r="2" fill="#d62728"/>
<circle cx="219.4" cy="288.6" r="2" fill="#d62728"/>
<circle cx="256.0" cy="288.4" r="2" fill="#d62728"/>
<polygon points="46.0,277.0 79.4,254.8 116.0,282.3 149.4,284.8 186.0,283.5 219.4,286.9 256.0,279.8 256.0,296.3 219.4,289.1 186.0,287.2 149.4,285.1 116.0,283.0 79.4,261.4 46.0,282.1" fill="#2ca02c" opacity="0.11"/>
<polyline points="46.0,278.9 79.4,257.7 116.0,282.5 149.4,284.9 186.0,285.7 219.4,287.7 256.0,288.8" fill="none" stroke="#2ca02c" stroke-width="1.6"/>
<circle cx="46.0" cy="278.9" r="2" fill="#2ca02c"/>
<circle cx="79.4" cy="257.7" r="2" fill="#2ca02c"/>
<circle cx="116.0" cy="282.5" r="2" fill="#2ca02c"/>
<circle cx="149.4" cy="284.9" r="2" fill="#2ca02c"/>
<circle cx="186.0" cy="285.7" r="2" fill="#2ca02c"/>
<circle cx="219.4" cy="287.7" r="2" fill="#2ca02c"/>
<circle cx="256.0" cy="288.8" r="2" fill="#2ca02c"/>
<polygon points="46.0,273.0 79.4,282.4 116.0,288.0 149.4,289.0 186.0,285.6 219.4,286.5 256.0,288.2 256.0,291.4 219.4,292.3 186.0,287.9 149.4,289.2 116.0,288.2 79.4,282.8 46.0,273.4" fill="#1f77b4" opacity="0.11"/>
<polyline points="46.0,273.3 79.4,282.6 116.0,288.2 149.4,289.1 186.0,286.6 219.4,288.1 256.0,290.0" fill="none" stroke="#1f77b4" stroke-width="1.6"/>
<circle cx="46.0" cy="273.3" r="2" fill="#1f77b4"/>
<circle cx="79.4" cy="282.6" r="2" fill="#1f77b4"/>
<circle cx="116.0" cy="288.2" r="2" fill="#1f77b4"/>
<circle cx="149.4" cy="289.1" r="2" fill="#1f77b4"/>
<circle cx="186.0" cy="286.6" r="2" fill="#1f77b4"/>
<circle cx="219.4" cy="288.1" r="2" fill="#1f77b4"/>
<circle cx="256.0" cy="290.0" r="2" fill="#1f77b4"/>
<text x="151.0" y="227" text-anchor="middle" font-size="12" font-weight="bold">scal</text>
<line x1="46.0" y1="232" x2="46.0" y2="370" stroke="#f4f4f4"/>
<text x="46.0" y="381" text-anchor="middle" font-size="8" fill="#999">1000</text>
<line x1="79.4" y1="232" x2="79.4" y2="370" stroke="#f4f4f4"/>
<text x="79.4" y="381" text-anchor="middle" font-size="8" fill="#999">2k</text>
<line x1="116.0" y1="232" x2="116.0" y2="370" stroke="#f4f4f4"/>
<text x="116.0" y="381" text-anchor="middle" font-size="8" fill="#999">9k</text>
<line x1="149.4" y1="232" x2="149.4" y2="370" stroke="#f4f4f4"/>
<text x="149.4" y="381" text-anchor="middle" font-size="8" fill="#999">29k</text>
<line x1="186.0" y1="232" x2="186.0" y2="370" stroke="#f4f4f4"/>
<text x="186.0" y="381" text-anchor="middle" font-size="8" fill="#999">97k</text>
<line x1="219.4" y1="232" x2="219.4" y2="370" stroke="#f4f4f4"/>
<text x="219.4" y="381" text-anchor="middle" font-size="8" fill="#999">292k</text>
<line x1="256.0" y1="232" x2="256.0" y2="370" stroke="#f4f4f4"/>
<text x="256.0" y="381" text-anchor="middle" font-size="8" fill="#999">976k</text>
<rect x="276" y="232" width="210" height="138" fill="none" stroke="#e2e2e2"/>
<line x1="276" y1="321.5998416259746" x2="486" y2="321.5998416259746" stroke="#d33" stroke-dasharray="4 3"/>
<text x="272" y="373.0" text-anchor="end" font-size="9" fill="#999">0.5×</text>
<text x="272" y="324.5998416259746" text-anchor="end" font-size="9" fill="#999">1.0×</text>
<polygon points="276.0,260.2 309.4,256.0 346.0,253.6 379.4,251.3 416.0,264.7 449.4,267.0 486.0,268.9 486.0,298.8 449.4,296.5 416.0,298.5 379.4,290.8 346.0,288.9 309.4,295.3 276.0,298.2" fill="#d62728" opacity="0.11"/>
<polyline points="276.0,271.4 309.4,269.8 346.0,267.0 379.4,267.6 416.0,278.2 449.4,278.3 486.0,282.9" fill="none" stroke="#d62728" stroke-width="1.6"/>
<circle cx="276.0" cy="271.4" r="2" fill="#d62728"/>
<circle cx="309.4" cy="269.8" r="2" fill="#d62728"/>
<circle cx="346.0" cy="267.0" r="2" fill="#d62728"/>
<circle cx="379.4" cy="267.6" r="2" fill="#d62728"/>
<circle cx="416.0" cy="278.2" r="2" fill="#d62728"/>
<circle cx="449.4" cy="278.3" r="2" fill="#d62728"/>
<circle cx="486.0" cy="282.9" r="2" fill="#d62728"/>
<polygon points="276.0,273.3 309.4,249.3 346.0,239.5 379.4,237.4 416.0,240.6 449.4,258.3 486.0,259.6 486.0,292.3 449.4,306.8 416.0,281.8 379.4,284.9 346.0,288.5 309.4,289.7 276.0,301.2" fill="#2ca02c" opacity="0.11"/>
<polyline points="276.0,284.1 309.4,263.7 346.0,259.9 379.4,256.1 416.0,259.3 449.4,281.0 486.0,273.4" fill="none" stroke="#2ca02c" stroke-width="1.6"/>
<circle cx="276.0" cy="284.1" r="2" fill="#2ca02c"/>
<circle cx="309.4" cy="263.7" r="2" fill="#2ca02c"/>
<circle cx="346.0" cy="259.9" r="2" fill="#2ca02c"/>
<circle cx="379.4" cy="256.1" r="2" fill="#2ca02c"/>
<circle cx="416.0" cy="259.3" r="2" fill="#2ca02c"/>
<circle cx="449.4" cy="281.0" r="2" fill="#2ca02c"/>
<circle cx="486.0" cy="273.4" r="2" fill="#2ca02c"/>
<polygon points="276.0,288.8 309.4,267.3 346.0,257.4 379.4,253.5 416.0,261.1 449.4,260.5 486.0,259.0 486.0,297.8 449.4,299.9 416.0,296.3 379.4,296.1 346.0,298.0 309.4,305.0 276.0,314.0" fill="#1f77b4" opacity="0.11"/>
<polyline points="276.0,298.4 309.4,282.9 346.0,272.0 379.4,270.7 416.0,279.5 449.4,274.4 486.0,273.0" fill="none" stroke="#1f77b4" stroke-width="1.6"/>
<circle cx="276.0" cy="298.4" r="2" fill="#1f77b4"/>
<circle cx="309.4" cy="282.9" r="2" fill="#1f77b4"/>
<circle cx="346.0" cy="272.0" r="2" fill="#1f77b4"/>
<circle cx="379.4" cy="270.7" r="2" fill="#1f77b4"/>
<circle cx="416.0" cy="279.5" r="2" fill="#1f77b4"/>
<circle cx="449.4" cy="274.4" r="2" fill="#1f77b4"/>
<circle cx="486.0" cy="273.0" r="2" fill="#1f77b4"/>
<text x="381.0" y="227" text-anchor="middle" font-size="12" font-weight="bold">iamax</text>
<line x1="276.0" y1="232" x2="276.0" y2="370" stroke="#f4f4f4"/>
<text x="276.0" y="381" text-anchor="middle" font-size="8" fill="#999">1000</text>
<line x1="309.4" y1="232" x2="309.4" y2="370" stroke="#f4f4f4"/>
<text x="309.4" y="381" text-anchor="middle" font-size="8" fill="#999">2k</text>
<line x1="346.0" y1="232" x2="346.0" y2="370" stroke="#f4f4f4"/>
<text x="346.0" y="381" text-anchor="middle" font-size="8" fill="#999">9k</text>
<line x1="379.4" y1="232" x2="379.4" y2="370" stroke="#f4f4f4"/>
<text x="379.4" y="381" text-anchor="middle" font-size="8" fill="#999">29k</text>
<line x1="416.0" y1="232" x2="416.0" y2="370" stroke="#f4f4f4"/>
<text x="416.0" y="381" text-anchor="middle" font-size="8" fill="#999">97k</text>
<line x1="449.4" y1="232" x2="449.4" y2="370" stroke="#f4f4f4"/>
<text x="449.4" y="381" text-anchor="middle" font-size="8" fill="#999">292k</text>
<line x1="486.0" y1="232" x2="486.0" y2="370" stroke="#f4f4f4"/>
<text x="486.0" y="381" text-anchor="middle" font-size="8" fill="#999">976k</text>
</svg>
