<svg xmlns="http://www.w3.org/2000/svg" width="900" height="440" font-family="sans-serif">
<rect width="900" height="440" fill="white"/>
<text x="450.0" y="28" text-anchor="middle" font-size="18" font-weight="bold">BLAS-1: PureBLAS / OpenBLAS (AVX2, 1 thread, Float64)</text>
<line x1="60" y1="358.0" x2="880" y2="358.0" stroke="#eee"/>
<text x="52" y="362.0" text-anchor="end" font-size="11" fill="#666">0×</text>
<line x1="60" y1="339.79464765377304" x2="880" y2="339.79464765377304" stroke="#eee"/>
<text x="52" y="343.79464765377304" text-anchor="end" font-size="11" fill="#666">0.5×</text>
<line x1="60" y1="321.589295307546" x2="880" y2="321.589295307546" stroke="#eee"/>
<text x="52" y="325.589295307546" text-anchor="end" font-size="11" fill="#666">1×</text>
<line x1="60" y1="303.383942961319" x2="880" y2="303.383942961319" stroke="#eee"/>
<text x="52" y="307.383942961319" text-anchor="end" font-size="11" fill="#666">1.5×</text>
<line x1="60" y1="321.589295307546" x2="880" y2="321.589295307546" stroke="#888" stroke-width="1"/>
<line x1="60" y1="323.0457234952442" x2="880" y2="323.0457234952442" stroke="#d33" stroke-width="1.5" stroke-dasharray="6 4"/>
<text x="880" y="318.0457234952442" text-anchor="end" font-size="11" fill="#d33">0.96× gate</text>
<polygon points="128.3,323.5 128.4,323.5 128.4,323.4 128.5,323.3 128.5,323.3 128.6,323.2 128.7,323.2 128.8,323.1 128.8,323.1 128.8,323.0 128.7,323.0 128.6,322.9 128.5,322.9 128.5,322.8 128.5,322.7 128.5,322.7 128.5,322.6 128.6,322.6 128.8,322.5 128.9,322.5 129.2,322.4 129.5,322.4 130.0,322.3 130.9,322.3 132.2,322.2 134.0,322.1 136.5,322.1 139.8,322.0 143.8,322.0 148.5,321.9 154.0,321.9 160.2,321.8 167.0,321.8 173.8,321.7 179.9,321.7 184.1,321.6 185.7,321.5 184.7,321.5 181.7,321.4 178.0,321.4 174.6,321.3 172.2,321.3 170.6,321.2 169.5,321.2 168.4,321.1 167.1,321.1 165.6,321.0 164.3,320.9 163.1,320.9 161.7,320.8 159.8,320.8 157.4,320.7 154.6,320.7 151.9,320.6 149.5,320.6 147.7,320.5 146.4,320.5 145.4,320.4 144.4,320.3 143.5,320.3 142.4,320.2 141.2,320.2 139.6,320.1 137.7,320.1 135.6,320.0 133.6,320.0 131.8,319.9 130.5,319.9 129.5,319.8 128.9,319.7 128.6,319.7 128.4,319.6 128.2,319.6 128.1,319.7 127.7,319.7 127.2,319.8 126.2,319.9 124.8,319.9 123.1,320.0 121.0,320.0 119.0,320.1 117.1,320.1 115.5,320.2 114.3,320.2 113.2,320.3 112.3,320.3 111.3,320.4 110.2,320.5 108.9,320.5 107.1,320.6 104.8,320.6 102.1,320.7 99.3,320.7 96.8,320.8 95.0,320.8 93.6,320.9 92.3,320.9 91.0,321.0 89.6,321.1 88.3,321.1 87.1,321.2 86.0,321.2 84.5,321.3 82.1,321.3 78.7,321.4 74.9,321.4 72.0,321.5 70.9,321.5 72.6,321.6 76.8,321.7 82.8,321.7 89.7,321.8 96.5,321.8 102.7,321.9 108.2,321.9 112.9,322.0 116.9,322.0 120.1,322.1 122.6,322.1 124.5,322.2 125.8,322.3 126.6,322.3 127.2,322.4 127.5,322.4 127.7,322.5 127.9,322.5 128.0,322.6 128.1,322.6 128.2,322.7 128.2,322.7 128.2,322.8 128.1,322.9 128.0,322.9 128.0,323.0 127.9,323.0 127.9,323.1 127.9,323.1 127.9,323.2 128.0,323.2 128.1,323.3 128.2,323.3 128.3,323.4 128.3,323.5 128.3,323.5" fill="#2a8" opacity="0.5" stroke="#2a8" stroke-width="1"/>
<line x1="84.7" y1="321.2671473237382" x2="172.0" y2="321.2671473237382" stroke="#114" stroke-width="2"/>
<circle cx="128.33333333333331" cy="321.68297375729577" r="2.4" fill="#114"/>
<text x="128.33333333333331" y="314.0710912929453" text-anchor="middle" font-size="11">1.01</text>
<text x="128.33333333333331" y="376" text-anchor="middle" font-size="12">axpy</text>
<polygon points="265.0,324.1 265.1,324.0 265.1,323.9 265.1,323.8 265.2,323.7 265.3,323.6 265.4,323.5 265.4,323.5 265.5,323.4 265.5,323.3 265.5,323.2 265.4,323.1 265.4,323.0 265.4,322.9 265.5,322.8 265.7,322.8 266.0,322.7 266.6,322.6 267.6,322.5 269.3,322.4 272.0,322.3 276.1,322.2 281.9,322.2 289.4,322.1 298.1,322.0 307.1,321.9 315.1,321.8 320.5,321.7 322.4,321.6 320.3,321.5 314.7,321.5 306.7,321.4 297.9,321.3 289.4,321.2 282.2,321.1 276.7,321.0 272.8,320.9 270.2,320.9 268.7,320.8 267.9,320.7 267.4,320.6 267.3,320.5 267.2,320.4 267.2,320.3 267.3,320.2 267.4,320.2 267.5,320.1 267.6,320.0 267.8,319.9 267.9,319.8 268.0,319.7 268.1,319.6 268.1,319.6 268.1,319.5 268.2,319.4 268.4,319.3 268.7,319.2 269.1,319.1 269.6,319.0 270.0,318.9 270.3,318.9 270.4,318.8 270.1,318.7 269.6,318.6 268.8,318.5 268.0,318.4 267.2,318.3 266.5,318.3 265.9,318.2 265.5,318.1 265.3,318.0 265.1,317.9 264.9,317.9 264.7,318.0 264.5,318.1 264.1,318.2 263.5,318.3 262.8,318.3 262.0,318.4 261.2,318.5 260.4,318.6 259.9,318.7 259.6,318.8 259.7,318.9 260.0,318.9 260.4,319.0 260.9,319.1 261.3,319.2 261.6,319.3 261.8,319.4 261.9,319.5 261.9,319.6 261.9,319.6 262.0,319.7 262.1,319.8 262.2,319.9 262.4,320.0 262.5,320.1 262.6,320.2 262.7,320.2 262.8,320.3 262.8,320.4 262.7,320.5 262.6,320.6 262.1,320.7 261.3,320.8 259.8,320.9 257.2,320.9 253.3,321.0 247.8,321.1 240.6,321.2 232.1,321.3 223.3,321.4 215.3,321.5 209.7,321.5 207.6,321.6 209.5,321.7 214.9,321.8 222.9,321.9 231.9,322.0 240.6,322.1 248.1,322.2 253.9,322.2 258.0,322.3 260.7,322.4 262.4,322.5 263.4,322.6 264.0,322.7 264.3,322.8 264.5,322.8 264.6,322.9 264.6,323.0 264.6,323.1 264.5,323.2 264.5,323.3 264.5,323.4 264.6,323.5 264.6,323.5 264.7,323.6 264.8,323.7 264.9,323.8 264.9,323.9 264.9,324.0 265.0,324.1" fill="#2a8" opacity="0.5" stroke="#2a8" stroke-width="1"/>
<line x1="208.5" y1="321.5777054301587" x2="321.5" y2="321.5777054301587" stroke="#114" stroke-width="2"/>
<circle cx="265.0" cy="321.7492780719768" r="2.4" fill="#114"/>
<text x="265.0" y="312.56335379284445" text-anchor="middle" font-size="11">1.00</text>
<text x="265.0" y="376" text-anchor="middle" font-size="12">dot</text>
<polygon points="401.9,198.5 402.0,196.5 402.1,194.4 402.2,192.4 402.3,190.3 402.5,188.3 402.6,186.2 402.8,184.2 402.9,182.2 403.1,180.1 403.3,178.1 403.5,176.0 403.8,174.0 404.1,171.9 404.6,169.9 405.1,167.8 405.8,165.8 406.6,163.8 407.5,161.7 408.6,159.7 409.8,157.6 411.2,155.6 412.9,153.5 414.8,151.5 417.1,149.4 419.8,147.4 422.9,145.3 426.4,143.3 430.0,141.3 433.7,139.2 437.1,137.2 440.0,135.1 441.9,133.1 442.7,131.0 442.2,129.0 440.4,126.9 437.5,124.9 433.7,122.9 429.3,120.8 424.7,118.8 420.3,116.7 416.3,114.7 412.9,112.6 410.3,110.6 408.6,108.5 407.7,106.5 407.6,104.4 408.3,102.4 409.8,100.4 412.0,98.3 414.9,96.3 418.5,94.2 422.6,92.2 427.1,90.1 432.1,88.1 437.2,86.0 442.4,84.0 447.3,82.0 451.8,79.9 455.5,77.9 458.0,75.8 459.1,73.8 458.5,71.7 456.3,69.7 452.6,67.6 447.6,65.6 441.6,63.5 435.3,61.5 428.9,59.5 423.0,57.4 417.8,55.4 413.4,53.3 390.0,53.3 385.6,55.4 380.3,57.4 374.4,59.5 368.0,61.5 361.7,63.5 355.8,65.6 350.7,67.6 347.0,69.7 344.8,71.7 344.3,73.8 345.4,75.8 347.9,77.9 351.5,79.9 356.0,82.0 361.0,84.0 366.1,86.0 371.3,88.1 376.2,90.1 380.8,92.2 384.9,94.2 388.4,96.3 391.3,98.3 393.5,100.4 395.0,102.4 395.7,104.4 395.7,106.5 394.8,108.5 393.0,110.6 390.4,112.6 387.1,114.7 383.1,116.7 378.6,118.8 374.1,120.8 369.7,122.9 365.9,124.9 362.9,126.9 361.1,129.0 360.6,131.0 361.4,133.1 363.4,135.1 366.2,137.2 369.6,139.2 373.3,141.3 377.0,143.3 380.4,145.3 383.5,147.4 386.2,149.4 388.5,151.5 390.5,153.5 392.1,155.6 393.5,157.6 394.8,159.7 395.8,161.7 396.8,163.8 397.6,165.8 398.2,167.8 398.8,169.9 399.2,171.9 399.6,174.0 399.8,176.0 400.1,178.1 400.3,180.1 400.4,182.2 400.6,184.2 400.7,186.2 400.9,188.3 401.0,190.3 401.1,192.4 401.3,194.4 401.4,196.5 401.4,198.5" fill="#2a8" opacity="0.5" stroke="#2a8" stroke-width="1"/>
<line x1="365.7" y1="85.86230955317887" x2="437.7" y2="85.86230955317887" stroke="#114" stroke-width="2"/>
<circle cx="401.66666666666663" cy="137.5171296262629" r="2.4" fill="#114"/>
<text x="401.66666666666663" y="61.43396226415098" text-anchor="middle" font-size="11">7.47</text>
<text x="401.66666666666663" y="376" text-anchor="middle" font-size="12">nrm2</text>
<polygon points="539.0,323.1 539.2,322.5 539.5,321.9 539.8,321.3 540.3,320.7 540.9,320.2 541.6,319.6 542.5,319.0 543.6,318.4 545.0,317.8 546.7,317.2 548.9,316.7 551.5,316.1 554.7,315.5 558.3,314.9 562.6,314.3 567.3,313.7 572.3,313.2 577.4,312.6 582.5,312.0 587.1,311.4 590.9,310.8 593.7,310.2 595.4,309.7 595.7,309.1 594.9,308.5 593.0,307.9 590.5,307.3 587.7,306.8 585.1,306.2 582.9,305.6 581.5,305.0 580.8,304.4 580.8,303.8 581.3,303.3 582.0,302.7 582.3,302.1 582.2,301.5 581.2,300.9 579.3,300.3 576.5,299.8 573.0,299.2 569.0,298.6 564.8,298.0 560.7,297.4 556.9,296.8 553.6,296.3 551.1,295.7 549.4,295.1 548.5,294.5 548.5,293.9 549.4,293.4 551.1,292.8 553.6,292.2 556.7,291.6 560.3,291.0 564.1,290.4 567.9,289.9 571.5,289.3 574.5,288.7 576.7,288.1 577.9,287.5 578.0,286.9 576.9,286.4 574.8,285.8 571.9,285.2 568.3,284.6 564.3,284.0 560.2,283.4 556.2,282.9 552.5,282.3 549.2,281.7 527.5,281.7 524.2,282.3 520.5,282.9 516.5,283.4 512.4,284.0 508.4,284.6 504.8,285.2 501.8,285.8 499.7,286.4 498.7,286.9 498.8,287.5 500.0,288.1 502.2,288.7 505.2,289.3 508.7,289.9 512.6,290.4 516.4,291.0 520.0,291.6 523.1,292.2 525.6,292.8 527.3,293.4 528.2,293.9 528.2,294.5 527.3,295.1 525.6,295.7 523.0,296.3 519.8,296.8 516.0,297.4 511.9,298.0 507.7,298.6 503.7,299.2 500.2,299.8 497.4,300.3 495.5,300.9 494.5,301.5 494.3,302.1 494.7,302.7 495.3,303.3 495.8,303.8 495.9,304.4 495.2,305.0 493.8,305.6 491.6,306.2 489.0,306.8 486.2,307.3 483.7,307.9 481.8,308.5 480.9,309.1 481.3,309.7 482.9,310.2 485.8,310.8 489.6,311.4 494.2,312.0 499.2,312.6 504.4,313.2 509.4,313.7 514.1,314.3 518.3,314.9 522.0,315.5 525.2,316.1 527.8,316.7 529.9,317.2 531.7,317.8 533.1,318.4 534.2,319.0 535.1,319.6 535.8,320.2 536.4,320.7 536.8,321.3 537.2,321.9 537.5,322.5 537.7,323.1" fill="#2a8" opacity="0.5" stroke="#2a8" stroke-width="1"/>
<line x1="494.6" y1="301.4446236066275" x2="582.1" y2="301.4446236066275" stroke="#114" stroke-width="2"/>
<circle cx="538.3333333333333" cy="310.78809695958034" r="2.4" fill="#114"/>
<text x="538.3333333333333" y="279.76066987674983" text-anchor="middle" font-size="11">1.55</text>
<text x="538.3333333333333" y="376" text-anchor="middle" font-size="12">asum</text>
<polygon points="675.0,322.9 675.1,322.9 675.1,322.8 675.2,322.8 675.3,322.7 675.4,322.7 675.5,322.6 675.6,322.6 675.8,322.5 676.1,322.5 676.4,322.4 676.9,322.4 677.5,322.3 678.3,322.3 679.1,322.2 680.1,322.2 681.1,322.1 682.2,322.1 683.4,322.0 684.7,322.0 686.4,322.0 688.6,321.9 691.4,321.9 694.9,321.8 699.2,321.8 704.0,321.7 709.3,321.7 714.8,321.6 720.1,321.6 724.9,321.5 728.6,321.5 731.2,321.4 732.4,321.4 732.4,321.3 731.3,321.3 729.4,321.2 727.0,321.2 724.1,321.1 720.6,321.1 716.6,321.1 712.1,321.0 707.1,321.0 701.9,320.9 696.8,320.9 692.1,320.8 688.0,320.8 684.6,320.7 682.1,320.7 680.4,320.6 679.4,320.6 679.2,320.5 679.7,320.5 681.0,320.4 683.0,320.4 685.7,320.3 688.7,320.3 691.5,320.2 693.8,320.2 695.1,320.2 695.1,320.1 693.8,320.1 691.5,320.0 688.5,320.0 685.4,319.9 682.5,319.9 680.1,319.8 678.2,319.8 676.9,319.7 676.1,319.7 675.6,319.6 675.3,319.6 675.1,319.5 674.9,319.5 674.7,319.6 674.4,319.6 673.9,319.7 673.1,319.7 671.8,319.8 669.9,319.8 667.5,319.9 664.6,319.9 661.5,320.0 658.5,320.0 656.2,320.1 654.9,320.1 654.9,320.2 656.2,320.2 658.5,320.2 661.3,320.3 664.3,320.3 667.0,320.4 669.0,320.4 670.3,320.5 670.8,320.5 670.6,320.6 669.6,320.6 667.9,320.7 665.4,320.7 662.0,320.8 657.9,320.8 653.2,320.9 648.1,320.9 642.9,321.0 637.9,321.0 633.4,321.1 629.4,321.1 625.9,321.1 623.0,321.2 620.6,321.2 618.7,321.3 617.6,321.3 617.6,321.4 618.8,321.4 621.4,321.5 625.1,321.5 629.9,321.6 635.2,321.6 640.7,321.7 646.0,321.7 650.8,321.8 655.1,321.8 658.6,321.9 661.4,321.9 663.6,322.0 665.3,322.0 666.6,322.0 667.8,322.1 668.9,322.1 669.9,322.2 670.9,322.2 671.7,322.3 672.5,322.3 673.1,322.4 673.6,322.4 673.9,322.5 674.2,322.5 674.4,322.6 674.5,322.6 674.6,322.7 674.7,322.7 674.8,322.8 674.9,322.8 674.9,322.9 675.0,322.9" fill="#2a8" opacity="0.5" stroke="#2a8" stroke-width="1"/>
<line x1="617.5" y1="321.34754738735865" x2="732.5" y2="321.34754738735865" stroke="#114" stroke-width="2"/>
<circle cx="675.0" cy="321.6597697738635" r="2.4" fill="#114"/>
<text x="675.0" y="313.9232939801561" text-anchor="middle" font-size="11">1.01</text>
<text x="675.0" y="376" text-anchor="middle" font-size="12">scal</text>
<polygon points="812.5,343.0 813.0,342.3 813.6,341.7 814.5,341.1 815.6,340.4 816.9,339.8 818.5,339.1 820.3,338.5 822.2,337.9 824.4,337.2 826.7,336.6 829.2,335.9 831.9,335.3 834.7,334.7 837.8,334.0 841.1,333.4 844.5,332.7 848.0,332.1 851.5,331.4 854.8,330.8 858.0,330.2 860.7,329.5 863.1,328.9 865.0,328.2 866.5,327.6 867.5,327.0 868.0,326.3 868.2,325.7 868.1,325.0 867.7,324.4 867.2,323.8 866.7,323.1 866.3,322.5 865.9,321.8 865.8,321.2 865.9,320.6 866.3,319.9 866.8,319.3 867.4,318.6 868.0,318.0 868.5,317.4 868.9,316.7 869.1,316.1 869.0,315.4 868.8,314.8 868.4,314.2 867.8,313.5 867.0,312.9 866.1,312.2 864.9,311.6 863.5,311.0 861.7,310.3 859.7,309.7 857.3,309.0 854.6,308.4 851.8,307.7 848.8,307.1 845.7,306.5 842.5,305.8 839.3,305.2 836.0,304.5 832.8,303.9 829.6,303.3 826.6,302.6 823.8,302.0 821.2,301.3 819.0,300.7 817.1,300.1 815.5,299.4 814.3,298.8 813.4,298.1 812.8,297.5 810.5,297.5 809.9,298.1 809.0,298.8 807.8,299.4 806.3,300.1 804.4,300.7 802.1,301.3 799.6,302.0 796.7,302.6 793.7,303.3 790.5,303.9 787.3,304.5 784.1,305.2 780.8,305.8 777.7,306.5 774.5,307.1 771.5,307.7 768.7,308.4 766.0,309.0 763.7,309.7 761.6,310.3 759.9,311.0 758.4,311.6 757.2,312.2 756.3,312.9 755.5,313.5 755.0,314.2 754.5,314.8 754.3,315.4 754.3,316.1 754.4,316.7 754.8,317.4 755.3,318.0 755.9,318.6 756.5,319.3 757.1,319.9 757.4,320.6 757.5,321.2 757.4,321.8 757.1,322.5 756.6,323.1 756.1,323.8 755.6,324.4 755.2,325.0 755.1,325.7 755.3,326.3 755.9,327.0 756.8,327.6 758.3,328.2 760.2,328.9 762.6,329.5 765.4,330.2 768.5,330.8 771.8,331.4 775.3,332.1 778.8,332.7 782.2,333.4 785.5,334.0 788.6,334.7 791.5,335.3 794.1,335.9 796.6,336.6 799.0,337.2 801.1,337.9 803.1,338.5 804.9,339.1 806.4,339.8 807.7,340.4 808.8,341.1 809.7,341.7 810.3,342.3 810.8,343.0" fill="#d33" opacity="0.5" stroke="#d33" stroke-width="1"/>
<line x1="756.7" y1="319.4827694152653" x2="866.6" y2="319.4827694152653" stroke="#114" stroke-width="2"/>
<circle cx="811.6666666666666" cy="324.1337262342677" r="2.4" fill="#114"/>
<text x="811.6666666666666" y="295.9585084565051" text-anchor="middle" font-size="11">1.06</text>
<text x="811.6666666666666" y="376" text-anchor="middle" font-size="12">iamax</text>
<text x="450.0" y="428" text-anchor="middle" font-size="11" fill="#666">violin = ratio distribution over sizes · line = median · dark dot = worst size · green = every size ≥ gate</text>
</svg>
