<svg xmlns="http://www.w3.org/2000/svg" width="900" height="440" font-family="sans-serif">
<rect width="900" height="440" fill="white"/>
<text x="450.0" y="28" text-anchor="middle" font-size="18" font-weight="bold">Complex BLAS-2: PureBLAS / OpenBLAS (AVX-512, 1 thread, ComplexF64)</text>
<line x1="60" y1="358.0" x2="880" y2="358.0" stroke="#eee"/>
<text x="52" y="362.0" text-anchor="end" font-size="11" fill="#666">0×</text>
<line x1="60" y1="289.35618552033475" x2="880" y2="289.35618552033475" stroke="#eee"/>
<text x="52" y="293.35618552033475" text-anchor="end" font-size="11" fill="#666">0.5×</text>
<line x1="60" y1="220.71237104066944" x2="880" y2="220.71237104066944" stroke="#eee"/>
<text x="52" y="224.71237104066944" text-anchor="end" font-size="11" fill="#666">1×</text>
<line x1="60" y1="152.06855656100413" x2="880" y2="152.06855656100413" stroke="#eee"/>
<text x="52" y="156.06855656100413" text-anchor="end" font-size="11" fill="#666">1.5×</text>
<line x1="60" y1="220.71237104066944" x2="880" y2="220.71237104066944" stroke="#888" stroke-width="1"/>
<line x1="60" y1="226.20387619904264" x2="880" y2="226.20387619904264" stroke="#d33" stroke-width="1.5" stroke-dasharray="6 4"/>
<text x="880" y="221.20387619904264" text-anchor="end" font-size="11" fill="#d33">0.96× gate</text>
<polygon points="101.2,237.9 101.2,236.8 101.3,235.7 101.4,234.6 101.6,233.5 101.7,232.4 101.9,231.4 102.1,230.3 102.4,229.2 102.7,228.1 103.1,227.0 103.6,225.9 104.4,224.8 105.3,223.7 106.6,222.6 108.2,221.5 110.3,220.4 112.9,219.3 115.9,218.2 119.3,217.1 122.9,216.1 126.5,215.0 129.8,213.9 132.6,212.8 134.5,211.7 135.4,210.6 135.3,209.5 134.1,208.4 131.9,207.3 129.1,206.2 125.9,205.1 122.6,204.0 119.6,202.9 116.8,201.8 114.6,200.8 113.0,199.7 111.8,198.6 111.0,197.5 110.6,196.4 110.4,195.3 110.3,194.2 110.3,193.1 110.3,192.0 110.5,190.9 110.6,189.8 110.9,188.7 111.2,187.6 111.6,186.6 112.0,185.5 112.3,184.4 112.6,183.3 112.7,182.2 112.7,181.1 112.5,180.0 112.3,178.9 112.1,177.8 111.9,176.7 111.8,175.6 111.8,174.5 111.9,173.4 111.9,172.3 111.9,171.3 111.7,170.2 111.2,169.1 110.5,168.0 109.6,166.9 108.5,165.8 107.3,164.7 106.1,163.6 105.0,162.5 104.0,161.4 103.2,160.3 98.8,160.3 98.0,161.4 97.0,162.5 95.9,163.6 94.7,164.7 93.5,165.8 92.4,166.9 91.5,168.0 90.8,169.1 90.3,170.2 90.1,171.3 90.1,172.3 90.1,173.4 90.2,174.5 90.2,175.6 90.1,176.7 89.9,177.8 89.7,178.9 89.5,180.0 89.3,181.1 89.3,182.2 89.4,183.3 89.7,184.4 90.0,185.5 90.4,186.6 90.8,187.6 91.1,188.7 91.4,189.8 91.5,190.9 91.7,192.0 91.7,193.1 91.7,194.2 91.6,195.3 91.4,196.4 91.0,197.5 90.2,198.6 89.0,199.7 87.4,200.8 85.2,201.8 82.4,202.9 79.4,204.0 76.1,205.1 72.9,206.2 70.1,207.3 67.9,208.4 66.7,209.5 66.6,210.6 67.5,211.7 69.4,212.8 72.2,213.9 75.5,215.0 79.1,216.1 82.7,217.1 86.1,218.2 89.1,219.3 91.7,220.4 93.8,221.5 95.4,222.6 96.7,223.7 97.6,224.8 98.4,225.9 98.9,227.0 99.3,228.1 99.6,229.2 99.9,230.3 100.1,231.4 100.3,232.4 100.4,233.5 100.6,234.6 100.7,235.7 100.8,236.8 100.8,237.9" fill="#2a8" opacity="0.5" stroke="#2a8" stroke-width="1"/>
<line x1="68.6" y1="208.0082439141135" x2="133.4" y2="208.0082439141135" stroke="#114" stroke-width="2"/>
<circle cx="101.0" cy="212.0443296430088" r="2.4" fill="#114"/>
<text x="101.0" y="162.05450680495483" text-anchor="middle" font-size="11">1.09</text>
<text x="101.0" y="376" text-anchor="middle" font-size="12">zgemvN</text>
<polygon points="186.0,245.8 186.9,244.7 188.0,243.6 189.2,242.4 190.5,241.3 191.7,240.1 192.8,239.0 193.7,237.8 194.3,236.7 194.6,235.5 194.6,234.4 194.4,233.3 194.0,232.1 193.7,231.0 193.4,229.8 193.5,228.7 194.0,227.5 194.9,226.4 196.3,225.2 198.3,224.1 200.6,223.0 203.3,221.8 206.2,220.7 209.0,219.5 211.7,218.4 214.0,217.2 215.8,216.1 217.0,214.9 217.4,213.8 217.2,212.7 216.3,211.5 214.8,210.4 212.9,209.2 210.5,208.1 208.0,206.9 205.4,205.8 202.7,204.6 200.2,203.5 197.9,202.3 195.9,201.2 194.2,200.1 192.9,198.9 192.1,197.8 191.6,196.6 191.6,195.5 191.9,194.3 192.5,193.2 193.3,192.0 194.2,190.9 195.1,189.8 195.9,188.6 196.5,187.5 197.0,186.3 197.3,185.2 197.4,184.0 197.4,182.9 197.3,181.7 197.2,180.6 196.9,179.5 196.6,178.3 196.2,177.2 195.6,176.0 194.9,174.9 194.0,173.7 192.9,172.6 191.8,171.4 190.5,170.3 189.3,169.1 188.1,168.0 187.0,166.9 186.1,165.7 185.3,164.6 180.7,164.6 179.9,165.7 179.0,166.9 177.9,168.0 176.7,169.1 175.5,170.3 174.2,171.4 173.1,172.6 172.0,173.7 171.1,174.9 170.4,176.0 169.8,177.2 169.4,178.3 169.1,179.5 168.8,180.6 168.7,181.7 168.6,182.9 168.6,184.0 168.7,185.2 169.0,186.3 169.5,187.5 170.1,188.6 170.9,189.8 171.8,190.9 172.7,192.0 173.5,193.2 174.1,194.3 174.4,195.5 174.4,196.6 173.9,197.8 173.1,198.9 171.8,200.1 170.1,201.2 168.1,202.3 165.8,203.5 163.3,204.6 160.6,205.8 158.0,206.9 155.5,208.1 153.1,209.2 151.2,210.4 149.7,211.5 148.8,212.7 148.6,213.8 149.0,214.9 150.2,216.1 152.0,217.2 154.3,218.4 157.0,219.5 159.8,220.7 162.7,221.8 165.4,223.0 167.7,224.1 169.7,225.2 171.1,226.4 172.0,227.5 172.5,228.7 172.6,229.8 172.3,231.0 172.0,232.1 171.6,233.3 171.4,234.4 171.4,235.5 171.7,236.7 172.3,237.8 173.2,239.0 174.3,240.1 175.5,241.3 176.8,242.4 178.0,243.6 179.1,244.7 180.0,245.8" fill="#d33" opacity="0.5" stroke="#d33" stroke-width="1"/>
<line x1="149.0" y1="212.34064794968137" x2="217.0" y2="212.34064794968137" stroke="#114" stroke-width="2"/>
<circle cx="183.0" cy="235.71307078258923" r="2.4" fill="#114"/>
<text x="183.0" y="166.6575471429833" text-anchor="middle" font-size="11">1.06</text>
<text x="183.0" y="376" text-anchor="middle" font-size="12">zgemvT</text>
<polygon points="267.8,240.8 268.8,239.7 269.9,238.6 271.2,237.6 272.6,236.5 274.1,235.4 275.5,234.4 276.8,233.3 278.0,232.2 278.9,231.2 279.7,230.1 280.3,229.0 280.7,228.0 281.2,226.9 281.8,225.8 282.7,224.8 283.9,223.7 285.4,222.7 287.4,221.6 289.6,220.5 291.9,219.5 294.3,218.4 296.4,217.3 298.0,216.3 299.1,215.2 299.4,214.1 299.0,213.1 297.9,212.0 296.1,210.9 293.9,209.9 291.4,208.8 288.8,207.7 286.4,206.7 284.3,205.6 282.5,204.5 281.2,203.5 280.3,202.4 279.9,201.4 279.7,200.3 279.8,199.2 280.1,198.2 280.5,197.1 280.9,196.0 281.3,195.0 281.7,193.9 282.1,192.8 282.5,191.8 282.7,190.7 282.9,189.6 282.9,188.6 282.7,187.5 282.5,186.4 282.1,185.4 281.7,184.3 281.2,183.2 280.9,182.2 280.5,181.1 280.3,180.1 280.1,179.0 279.9,177.9 279.6,176.9 279.2,175.8 278.7,174.7 277.9,173.7 276.9,172.6 275.7,171.5 274.4,170.5 273.1,169.4 271.7,168.3 270.4,167.3 269.3,166.2 268.2,165.1 261.8,165.1 260.7,166.2 259.6,167.3 258.3,168.3 256.9,169.4 255.6,170.5 254.3,171.5 253.1,172.6 252.1,173.7 251.3,174.7 250.8,175.8 250.4,176.9 250.1,177.9 249.9,179.0 249.7,180.1 249.5,181.1 249.1,182.2 248.8,183.2 248.3,184.3 247.9,185.4 247.5,186.4 247.3,187.5 247.1,188.6 247.1,189.6 247.3,190.7 247.5,191.8 247.9,192.8 248.3,193.9 248.7,195.0 249.1,196.0 249.5,197.1 249.9,198.2 250.2,199.2 250.3,200.3 250.1,201.4 249.7,202.4 248.8,203.5 247.5,204.5 245.7,205.6 243.6,206.7 241.2,207.7 238.6,208.8 236.1,209.9 233.9,210.9 232.1,212.0 231.0,213.1 230.6,214.1 230.9,215.2 232.0,216.3 233.6,217.3 235.7,218.4 238.1,219.5 240.4,220.5 242.6,221.6 244.6,222.7 246.1,223.7 247.3,224.8 248.2,225.8 248.8,226.9 249.3,228.0 249.7,229.0 250.3,230.1 251.1,231.2 252.0,232.2 253.2,233.3 254.5,234.4 255.9,235.4 257.4,236.5 258.8,237.6 260.1,238.6 261.2,239.7 262.2,240.8" fill="#d33" opacity="0.5" stroke="#d33" stroke-width="1"/>
<line x1="233.0" y1="211.44079707422426" x2="297.0" y2="211.44079707422426" stroke="#114" stroke-width="2"/>
<circle cx="265.0" cy="230.28312704495616" r="2.4" fill="#114"/>
<text x="265.0" y="166.68361840086556" text-anchor="middle" font-size="11">1.07</text>
<text x="265.0" y="376" text-anchor="middle" font-size="12">zgemvC</text>
<polygon points="347.1,239.3 347.1,238.0 347.2,236.7 347.3,235.4 347.4,234.2 347.5,232.9 347.6,231.6 347.7,230.3 347.9,229.0 348.0,227.7 348.2,226.4 348.4,225.1 348.7,223.8 349.2,222.5 350.0,221.2 351.2,219.9 352.8,218.6 355.0,217.3 357.7,216.0 360.8,214.7 364.3,213.4 368.0,212.1 371.5,210.8 374.8,209.5 377.5,208.2 379.6,206.9 380.9,205.7 381.4,204.4 381.2,203.1 380.3,201.8 378.9,200.5 377.2,199.2 375.2,197.9 373.1,196.6 371.2,195.3 369.3,194.0 367.6,192.7 366.0,191.4 364.4,190.1 362.6,188.8 360.7,187.5 358.6,186.2 356.5,184.9 354.5,183.6 352.7,182.3 351.2,181.0 350.1,179.7 349.3,178.4 348.8,177.2 348.7,175.9 348.7,174.6 348.9,173.3 349.3,172.0 349.9,170.7 350.6,169.4 351.4,168.1 352.4,166.8 353.4,165.5 354.3,164.2 355.0,162.9 355.5,161.6 355.5,160.3 355.3,159.0 354.6,157.7 353.7,156.4 352.6,155.1 351.4,153.8 350.3,152.5 349.4,151.2 348.6,149.9 348.1,148.7 347.6,147.4 346.4,147.4 345.9,148.7 345.4,149.9 344.6,151.2 343.7,152.5 342.6,153.8 341.4,155.1 340.3,156.4 339.4,157.7 338.7,159.0 338.5,160.3 338.5,161.6 339.0,162.9 339.7,164.2 340.6,165.5 341.6,166.8 342.6,168.1 343.4,169.4 344.1,170.7 344.7,172.0 345.1,173.3 345.3,174.6 345.3,175.9 345.2,177.2 344.7,178.4 343.9,179.7 342.8,181.0 341.3,182.3 339.5,183.6 337.5,184.9 335.4,186.2 333.3,187.5 331.4,188.8 329.6,190.1 328.0,191.4 326.4,192.7 324.7,194.0 322.8,195.3 320.9,196.6 318.8,197.9 316.8,199.2 315.1,200.5 313.7,201.8 312.8,203.1 312.6,204.4 313.1,205.7 314.4,206.9 316.5,208.2 319.2,209.5 322.5,210.8 326.0,212.1 329.7,213.4 333.2,214.7 336.3,216.0 339.0,217.3 341.2,218.6 342.8,219.9 344.0,221.2 344.8,222.5 345.3,223.8 345.6,225.1 345.8,226.4 346.0,227.7 346.1,229.0 346.3,230.3 346.4,231.6 346.5,232.9 346.6,234.2 346.7,235.4 346.8,236.7 346.9,238.0 346.9,239.3" fill="#2a8" opacity="0.5" stroke="#2a8" stroke-width="1"/>
<line x1="315.8" y1="199.90330838087527" x2="378.2" y2="199.90330838087527" stroke="#114" stroke-width="2"/>
<circle cx="347.0" cy="210.95921370409008" r="2.4" fill="#114"/>
<text x="347.0" y="150.47768632083825" text-anchor="middle" font-size="11">1.15</text>
<text x="347.0" y="376" text-anchor="middle" font-size="12">zgeru</text>
<polygon points="445.3,244.2 447.9,241.4 450.5,238.7 453.1,236.0 455.5,233.2 457.8,230.5 459.7,227.7 461.2,225.0 462.4,222.3 463.1,219.5 463.4,216.8 463.3,214.1 462.9,211.3 462.1,208.6 461.1,205.9 459.8,203.1 458.5,200.4 457.0,197.7 455.4,194.9 453.8,192.2 452.3,189.5 450.7,186.7 449.3,184.0 447.9,181.3 446.8,178.5 445.8,175.8 445.0,173.1 444.6,170.3 444.4,167.6 444.4,164.9 444.8,162.1 445.5,159.4 446.4,156.6 447.4,153.9 448.6,151.2 449.9,148.4 451.1,145.7 452.3,143.0 453.4,140.2 454.2,137.5 454.9,134.8 455.3,132.0 455.5,129.3 455.5,126.6 455.2,123.8 454.8,121.1 454.3,118.4 453.7,115.6 453.1,112.9 452.5,110.2 452.0,107.4 451.7,104.7 451.6,102.0 451.7,99.2 452.0,96.5 452.5,93.8 453.2,91.0 454.0,88.3 454.8,85.5 455.6,82.8 456.2,80.1 456.7,77.3 456.8,74.6 456.7,71.9 456.1,69.1 455.2,66.4 453.9,63.7 452.3,60.9 450.4,58.2 448.4,55.5 446.2,52.7 444.0,50.0 414.0,50.0 411.8,52.7 409.6,55.5 407.6,58.2 405.7,60.9 404.1,63.7 402.8,66.4 401.9,69.1 401.3,71.9 401.2,74.6 401.3,77.3 401.8,80.1 402.4,82.8 403.2,85.5 404.0,88.3 404.8,91.0 405.5,93.8 406.0,96.5 406.3,99.2 406.4,102.0 406.3,104.7 406.0,107.4 405.5,110.2 404.9,112.9 404.3,115.6 403.7,118.4 403.2,121.1 402.8,123.8 402.5,126.6 402.5,129.3 402.7,132.0 403.1,134.8 403.8,137.5 404.6,140.2 405.7,143.0 406.9,145.7 408.1,148.4 409.4,151.2 410.6,153.9 411.6,156.6 412.5,159.4 413.2,162.1 413.6,164.9 413.6,167.6 413.4,170.3 413.0,173.1 412.2,175.8 411.2,178.5 410.1,181.3 408.7,184.0 407.3,186.7 405.7,189.5 404.2,192.2 402.6,194.9 401.0,197.7 399.5,200.4 398.2,203.1 396.9,205.9 395.9,208.6 395.1,211.3 394.7,214.1 394.6,216.8 394.9,219.5 395.6,222.3 396.8,225.0 398.3,227.7 400.2,230.5 402.5,233.2 404.9,236.0 407.5,238.7 410.1,241.4 412.7,244.2" fill="#2a8" opacity="0.5" stroke="#2a8" stroke-width="1"/>
<line x1="403.6" y1="136.9744009976789" x2="454.4" y2="136.9744009976789" stroke="#114" stroke-width="2"/>
<circle cx="429.0" cy="224.97758621285715" r="2.4" fill="#114"/>
<text x="429.0" y="61.433962264150935" text-anchor="middle" font-size="11">1.61</text>
<text x="429.0" y="376" text-anchor="middle" font-size="12">zhemv</text>
<polygon points="517.7,244.9 519.6,242.7 521.7,240.6 524.0,238.4 526.4,236.3 528.7,234.1 530.8,232.0 532.8,229.8 534.5,227.7 535.9,225.5 537.0,223.4 537.9,221.2 538.7,219.1 539.3,216.9 539.9,214.8 540.6,212.6 541.3,210.5 542.0,208.3 542.8,206.2 543.6,204.0 544.3,201.9 544.9,199.7 545.3,197.6 545.4,195.4 545.3,193.3 545.0,191.1 544.3,189.0 543.5,186.8 542.5,184.7 541.4,182.5 540.2,180.4 539.0,178.2 537.9,176.1 536.7,173.9 535.6,171.8 534.6,169.6 533.7,167.4 532.9,165.3 532.2,163.1 531.7,161.0 531.3,158.8 530.9,156.7 530.6,154.5 530.1,152.4 529.6,150.2 528.9,148.1 528.1,145.9 527.1,143.8 526.2,141.6 525.4,139.5 524.7,137.3 524.2,135.2 524.0,133.0 524.1,130.9 524.4,128.7 524.7,126.6 525.1,124.4 525.3,122.3 525.4,120.1 525.1,118.0 524.6,115.8 523.7,113.7 522.6,111.5 521.3,109.4 519.9,107.2 518.5,105.1 517.1,102.9 515.9,100.8 514.8,98.6 513.9,96.5 513.1,94.3 512.5,92.2 509.5,92.2 508.9,94.3 508.1,96.5 507.2,98.6 506.1,100.8 504.9,102.9 503.5,105.1 502.1,107.2 500.7,109.4 499.4,111.5 498.3,113.7 497.4,115.8 496.9,118.0 496.6,120.1 496.7,122.3 496.9,124.4 497.3,126.6 497.6,128.7 497.9,130.9 498.0,133.0 497.8,135.2 497.3,137.3 496.6,139.5 495.8,141.6 494.9,143.8 493.9,145.9 493.1,148.1 492.4,150.2 491.9,152.4 491.4,154.5 491.1,156.7 490.7,158.8 490.3,161.0 489.8,163.1 489.1,165.3 488.3,167.4 487.4,169.6 486.4,171.8 485.3,173.9 484.1,176.1 483.0,178.2 481.8,180.4 480.6,182.5 479.5,184.7 478.5,186.8 477.7,189.0 477.0,191.1 476.7,193.3 476.6,195.4 476.7,197.6 477.1,199.7 477.7,201.9 478.4,204.0 479.2,206.2 480.0,208.3 480.7,210.5 481.4,212.6 482.1,214.8 482.7,216.9 483.3,219.1 484.1,221.2 485.0,223.4 486.1,225.5 487.5,227.7 489.2,229.8 491.2,232.0 493.3,234.1 495.6,236.3 498.0,238.4 500.3,240.6 502.4,242.7 504.3,244.9" fill="#d33" opacity="0.5" stroke="#d33" stroke-width="1"/>
<line x1="477.8" y1="188.4488229782633" x2="544.2" y2="188.4488229782633" stroke="#114" stroke-width="2"/>
<circle cx="511.0" cy="229.29321419815875" r="2.4" fill="#114"/>
<text x="511.0" y="101.1798185628283" text-anchor="middle" font-size="11">1.24</text>
<text x="511.0" y="376" text-anchor="middle" font-size="12">ztrmv</text>
<polygon points="608.8,233.6 611.8,232.5 614.9,231.4 617.9,230.3 620.6,229.3 623.0,228.2 624.8,227.1 625.9,226.1 626.4,225.0 626.1,223.9 625.1,222.8 623.4,221.8 621.3,220.7 618.8,219.6 616.1,218.6 613.4,217.5 611.0,216.4 608.8,215.3 607.2,214.3 606.2,213.2 605.7,212.1 606.0,211.1 606.9,210.0 608.3,208.9 610.3,207.8 612.6,206.8 615.2,205.7 617.9,204.6 620.5,203.6 622.8,202.5 624.7,201.4 626.2,200.3 627.1,199.3 627.4,198.2 627.3,197.1 626.6,196.1 625.7,195.0 624.5,193.9 623.4,192.8 622.4,191.8 621.5,190.7 621.1,189.6 620.9,188.6 621.1,187.5 621.6,186.4 622.4,185.3 623.3,184.3 624.2,183.2 625.0,182.1 625.7,181.1 626.3,180.0 626.5,178.9 626.5,177.8 626.2,176.8 625.8,175.7 625.1,174.6 624.3,173.6 623.4,172.5 622.4,171.4 621.3,170.4 620.1,169.3 618.9,168.2 617.5,167.1 616.1,166.1 614.5,165.0 612.8,163.9 611.1,162.9 609.2,161.8 607.3,160.7 605.4,159.6 603.6,158.6 601.8,157.5 584.2,157.5 582.4,158.6 580.6,159.6 578.7,160.7 576.8,161.8 574.9,162.9 573.2,163.9 571.5,165.0 569.9,166.1 568.5,167.1 567.1,168.2 565.9,169.3 564.7,170.4 563.6,171.4 562.6,172.5 561.7,173.6 560.9,174.6 560.2,175.7 559.8,176.8 559.5,177.8 559.5,178.9 559.7,180.0 560.3,181.1 561.0,182.1 561.8,183.2 562.7,184.3 563.6,185.3 564.4,186.4 564.9,187.5 565.1,188.6 564.9,189.6 564.5,190.7 563.6,191.8 562.6,192.8 561.5,193.9 560.3,195.0 559.4,196.1 558.7,197.1 558.6,198.2 558.9,199.3 559.8,200.3 561.3,201.4 563.2,202.5 565.5,203.6 568.1,204.6 570.8,205.7 573.4,206.8 575.7,207.8 577.7,208.9 579.1,210.0 580.0,211.1 580.3,212.1 579.8,213.2 578.8,214.3 577.2,215.3 575.0,216.4 572.6,217.5 569.9,218.6 567.2,219.6 564.7,220.7 562.6,221.8 560.9,222.8 559.9,223.9 559.6,225.0 560.1,226.1 561.2,227.1 563.0,228.2 565.4,229.3 568.1,230.3 571.1,231.4 574.2,232.5 577.2,233.6" fill="#2a8" opacity="0.5" stroke="#2a8" stroke-width="1"/>
<line x1="558.6" y1="198.28790337332717" x2="627.4" y2="198.28790337332717" stroke="#114" stroke-width="2"/>
<circle cx="593.0" cy="225.4435279665794" r="2.4" fill="#114"/>
<text x="593.0" y="159.0785820923502" text-anchor="middle" font-size="11">1.16</text>
<text x="593.0" y="376" text-anchor="middle" font-size="12">ztrsv</text>
<polygon points="680.5,225.4 682.0,224.0 683.9,222.6 686.0,221.1 688.3,219.7 690.8,218.2 693.3,216.8 695.9,215.4 698.3,213.9 700.5,212.5 702.4,211.1 703.8,209.6 704.7,208.2 705.1,206.8 704.8,205.3 704.1,203.9 702.9,202.5 701.3,201.0 699.5,199.6 697.6,198.2 695.7,196.7 694.0,195.3 692.6,193.9 691.4,192.4 690.7,191.0 690.3,189.5 690.2,188.1 690.4,186.7 690.8,185.2 691.4,183.8 692.1,182.4 692.9,180.9 693.7,179.5 694.5,178.1 695.3,176.6 696.1,175.2 696.9,173.8 697.8,172.3 698.7,170.9 699.6,169.5 700.5,168.0 701.4,166.6 702.2,165.2 703.0,163.7 703.7,162.3 704.2,160.8 704.7,159.4 705.1,158.0 705.4,156.5 705.7,155.1 706.1,153.7 706.5,152.2 706.9,150.8 707.5,149.4 708.0,147.9 708.6,146.5 709.1,145.1 709.4,143.6 709.4,142.2 709.1,140.8 708.4,139.3 707.2,137.9 705.6,136.5 703.5,135.0 701.1,133.6 698.4,132.1 695.6,130.7 692.7,129.3 689.9,127.8 687.3,126.4 684.9,125.0 682.8,123.5 667.2,123.5 665.1,125.0 662.7,126.4 660.1,127.8 657.3,129.3 654.4,130.7 651.6,132.1 648.9,133.6 646.5,135.0 644.4,136.5 642.8,137.9 641.6,139.3 640.9,140.8 640.6,142.2 640.6,143.6 640.9,145.1 641.4,146.5 642.0,147.9 642.5,149.4 643.1,150.8 643.5,152.2 643.9,153.7 644.3,155.1 644.6,156.5 644.9,158.0 645.3,159.4 645.8,160.8 646.3,162.3 647.0,163.7 647.8,165.2 648.6,166.6 649.5,168.0 650.4,169.5 651.3,170.9 652.2,172.3 653.1,173.8 653.9,175.2 654.7,176.6 655.5,178.1 656.3,179.5 657.1,180.9 657.9,182.4 658.6,183.8 659.2,185.2 659.6,186.7 659.8,188.1 659.7,189.5 659.3,191.0 658.6,192.4 657.4,193.9 656.0,195.3 654.3,196.7 652.4,198.2 650.5,199.6 648.7,201.0 647.1,202.5 645.9,203.9 645.2,205.3 644.9,206.8 645.3,208.2 646.2,209.6 647.6,211.1 649.5,212.5 651.7,213.9 654.1,215.4 656.7,216.8 659.2,218.2 661.7,219.7 664.0,221.1 666.1,222.6 668.0,224.0 669.5,225.4" fill="#2a8" opacity="0.5" stroke="#2a8" stroke-width="1"/>
<line x1="647.9" y1="165.43813881868127" x2="702.1" y2="165.43813881868127" stroke="#114" stroke-width="2"/>
<circle cx="675.0" cy="210.5779223530808" r="2.4" fill="#114"/>
<text x="675.0" y="127.61737444464879" text-anchor="middle" font-size="11">1.40</text>
<text x="675.0" y="376" text-anchor="middle" font-size="12">zhpmv</text>
<polygon points="757.0,207.6 757.1,206.7 757.1,205.9 757.1,205.0 757.1,204.2 757.2,203.4 757.2,202.5 757.3,201.7 757.3,200.8 757.4,200.0 757.5,199.1 757.6,198.3 757.8,197.5 758.0,196.6 758.2,195.8 758.5,194.9 758.9,194.1 759.5,193.3 760.2,192.4 761.3,191.6 762.9,190.7 765.0,189.9 767.8,189.1 771.1,188.2 774.9,187.4 778.9,186.5 782.8,185.7 786.2,184.8 789.0,184.0 790.8,183.2 791.4,182.3 791.0,181.5 789.7,180.6 787.5,179.8 784.9,179.0 781.9,178.1 778.8,177.3 775.9,176.4 773.0,175.6 770.5,174.8 768.1,173.9 766.1,173.1 764.3,172.2 762.8,171.4 761.6,170.6 760.6,169.7 759.8,168.9 759.2,168.0 758.8,167.2 758.5,166.3 758.5,165.5 758.7,164.7 759.0,163.8 759.6,163.0 760.3,162.1 761.1,161.3 761.9,160.5 762.8,159.6 763.6,158.8 764.1,157.9 764.4,157.1 764.3,156.3 763.9,155.4 763.2,154.6 762.4,153.7 761.4,152.9 760.4,152.0 759.5,151.2 758.7,150.4 758.1,149.5 757.7,148.7 757.4,147.8 756.6,147.8 756.3,148.7 755.9,149.5 755.3,150.4 754.5,151.2 753.6,152.0 752.6,152.9 751.6,153.7 750.8,154.6 750.1,155.4 749.7,156.3 749.6,157.1 749.9,157.9 750.4,158.8 751.2,159.6 752.1,160.5 752.9,161.3 753.7,162.1 754.4,163.0 755.0,163.8 755.3,164.7 755.5,165.5 755.5,166.3 755.2,167.2 754.8,168.0 754.2,168.9 753.4,169.7 752.4,170.6 751.2,171.4 749.7,172.2 747.9,173.1 745.9,173.9 743.5,174.8 741.0,175.6 738.1,176.4 735.2,177.3 732.1,178.1 729.1,179.0 726.5,179.8 724.3,180.6 723.0,181.5 722.6,182.3 723.2,183.2 725.0,184.0 727.8,184.8 731.2,185.7 735.1,186.5 739.1,187.4 742.9,188.2 746.2,189.1 749.0,189.9 751.1,190.7 752.7,191.6 753.8,192.4 754.5,193.3 755.1,194.1 755.5,194.9 755.8,195.8 756.0,196.6 756.2,197.5 756.4,198.3 756.5,199.1 756.6,200.0 756.7,200.8 756.7,201.7 756.8,202.5 756.8,203.4 756.9,204.2 756.9,205.0 756.9,205.9 756.9,206.7 757.0,207.6" fill="#2a8" opacity="0.5" stroke="#2a8" stroke-width="1"/>
<line x1="723.6" y1="181.0485524579054" x2="790.4" y2="181.0485524579054" stroke="#114" stroke-width="2"/>
<circle cx="757.0" cy="185.53000834866225" r="2.4" fill="#114"/>
<text x="757.0" y="147.84263603510072" text-anchor="middle" font-size="11">1.29</text>
<text x="757.0" y="376" text-anchor="middle" font-size="12">zgbmvN</text>
<polygon points="839.0,237.9 839.0,237.3 839.0,236.8 839.0,236.2 839.0,235.7 839.1,235.1 839.2,234.5 839.2,234.0 839.2,233.4 839.1,232.8 839.1,232.3 839.0,231.7 839.0,231.2 839.0,230.6 839.0,230.0 839.0,229.5 839.0,228.9 839.0,228.4 839.0,227.8 839.0,227.2 839.0,226.7 839.0,226.1 839.0,225.6 839.0,225.0 839.0,224.4 839.0,223.9 839.0,223.3 839.0,222.7 839.1,222.2 839.2,221.6 839.2,221.1 839.2,220.5 839.2,219.9 839.1,219.4 839.0,218.8 839.0,218.3 839.0,217.7 839.1,217.1 839.3,216.6 839.8,216.0 840.7,215.4 841.9,214.9 843.0,214.3 843.7,213.8 844.1,213.2 845.1,212.6 847.7,212.1 852.5,211.5 859.2,211.0 866.6,210.4 872.2,209.8 873.4,209.3 869.7,208.7 863.0,208.2 856.7,207.6 852.9,207.0 851.5,206.5 851.5,205.9 851.8,205.3 851.4,204.8 850.2,204.2 848.3,203.7 846.3,203.1 844.3,202.5 842.4,202.0 840.9,201.4 839.8,200.9 839.3,200.3 839.1,199.7 839.0,199.2 839.0,198.6 839.0,198.1 839.0,198.1 839.0,198.6 839.0,199.2 838.9,199.7 838.7,200.3 838.2,200.9 837.1,201.4 835.6,202.0 833.7,202.5 831.7,203.1 829.7,203.7 827.8,204.2 826.6,204.8 826.2,205.3 826.5,205.9 826.5,206.5 825.1,207.0 821.3,207.6 815.0,208.2 808.3,208.7 804.6,209.3 805.8,209.8 811.4,210.4 818.8,211.0 825.5,211.5 830.3,212.1 832.9,212.6 833.9,213.2 834.3,213.8 835.0,214.3 836.1,214.9 837.3,215.4 838.2,216.0 838.7,216.6 838.9,217.1 839.0,217.7 839.0,218.3 839.0,218.8 838.9,219.4 838.8,219.9 838.8,220.5 838.8,221.1 838.8,221.6 838.9,222.2 839.0,222.7 839.0,223.3 839.0,223.9 839.0,224.4 839.0,225.0 839.0,225.6 839.0,226.1 839.0,226.7 839.0,227.2 839.0,227.8 839.0,228.4 839.0,228.9 839.0,229.5 839.0,230.0 839.0,230.6 839.0,231.2 839.0,231.7 838.9,232.3 838.9,232.8 838.8,233.4 838.8,234.0 838.8,234.5 838.9,235.1 839.0,235.7 839.0,236.2 839.0,236.8 839.0,237.3 839.0,237.9" fill="#2a8" opacity="0.5" stroke="#2a8" stroke-width="1"/>
<line x1="805.9" y1="208.99522165100612" x2="872.1" y2="208.99522165100612" stroke="#114" stroke-width="2"/>
<circle cx="839.0" cy="210.38283113684838" r="2.4" fill="#114"/>
<text x="839.0" y="196.1297756078485" text-anchor="middle" font-size="11">1.09</text>
<text x="839.0" y="376" text-anchor="middle" font-size="12">zhbmv</text>
<text x="450.0" y="428" text-anchor="middle" font-size="11" fill="#666">violin = ratio distribution over sizes · line = median · dark dot = worst size · green = every size ≥ gate</text>
</svg>
