<svg xmlns="http://www.w3.org/2000/svg" width="900" height="460" font-family="sans-serif">
<rect width="900" height="460" fill="white"/>
<text x="450.0" y="28" text-anchor="middle" font-size="18" font-weight="bold">BLAS-3: PureBLAS / OpenBLAS (AVX-512 native (Zen5), 1 thread, Float64)</text>
<line x1="62" y1="400.0" x2="768" y2="400.0" stroke="#eee"/>
<text x="54" y="404.0" text-anchor="end" font-size="11" fill="#666">0.5×</text>
<line x1="62" y1="329.8668071009431" x2="768" y2="329.8668071009431" stroke="#eee"/>
<text x="54" y="333.8668071009431" text-anchor="end" font-size="11" fill="#666">0.7×</text>
<line x1="62" y1="255.52262674089735" x2="768" y2="255.52262674089735" stroke="#eee"/>
<text x="54" y="259.52262674089735" text-anchor="end" font-size="11" fill="#666">1.0×</text>
<line x1="62" y1="171.00878118162876" x2="768" y2="171.00878118162876" stroke="#eee"/>
<text x="54" y="175.00878118162876" text-anchor="end" font-size="11" fill="#666">1.5×</text>
<line x1="62" y1="111.04525348179467" x2="768" y2="111.04525348179467" stroke="#eee"/>
<text x="54" y="115.04525348179467" text-anchor="end" font-size="11" fill="#666">2.0×</text>
<line x1="62.0" y1="50" x2="62.0" y2="400" stroke="#f4f4f4"/>
<text x="62.0" y="418" text-anchor="middle" font-size="11" fill="#444">8</text>
<line x1="238.5" y1="50" x2="238.5" y2="400" stroke="#f4f4f4"/>
<text x="238.5" y="418" text-anchor="middle" font-size="11" fill="#444">32</text>
<line x1="415.0" y1="50" x2="415.0" y2="400" stroke="#f4f4f4"/>
<text x="415.0" y="418" text-anchor="middle" font-size="11" fill="#444">128</text>
<line x1="503.25" y1="50" x2="503.25" y2="400" stroke="#f4f4f4"/>
<text x="503.25" y="418" text-anchor="middle" font-size="11" fill="#444">256</text>
<line x1="591.5" y1="50" x2="591.5" y2="400" stroke="#f4f4f4"/>
<text x="591.5" y="418" text-anchor="middle" font-size="11" fill="#444">512</text>
<line x1="679.75" y1="50" x2="679.75" y2="400" stroke="#f4f4f4"/>
<text x="679.75" y="418" text-anchor="middle" font-size="11" fill="#444">1024</text>
<line x1="768.0" y1="50" x2="768.0" y2="400" stroke="#f4f4f4"/>
<text x="768.0" y="418" text-anchor="middle" font-size="11" fill="#444">2048</text>
<line x1="62" y1="255.52262674089735" x2="768" y2="255.52262674089735" stroke="#888"/>
<line x1="62" y1="264.0314322368953" x2="768" y2="264.0314322368953" stroke="#d33" stroke-width="1.5" stroke-dasharray="6 4"/>
<text x="66" y="259.0314322368953" font-size="11" fill="#d33">0.96× gate</text>
<polygon points="62.0,205.2 238.5,269.6 415.0,188.7 503.2,209.8 591.5,232.3 679.8,236.6 768.0,241.6 768.0,242.5 679.8,237.3 591.5,233.2 503.2,211.8 415.0,195.3 238.5,275.3 62.0,221.1" fill="#1f77b4" opacity="0.14" stroke="none"/>
<polyline points="62.0,207.7 238.5,271.2 415.0,190.1 503.2,210.3 591.5,232.6 679.8,237.1 768.0,241.9" fill="none" stroke="#1f77b4" stroke-width="2"/>
<circle cx="62.0" cy="207.7" r="3" fill="#1f77b4"/>
<circle cx="238.5" cy="271.2" r="3" fill="#1f77b4"/>
<circle cx="415.0" cy="190.1" r="3" fill="#1f77b4"/>
<circle cx="503.2" cy="210.3" r="3" fill="#1f77b4"/>
<circle cx="591.5" cy="232.6" r="3" fill="#1f77b4"/>
<circle cx="679.8" cy="237.1" r="3" fill="#1f77b4"/>
<circle cx="768.0" cy="241.9" r="3" fill="#1f77b4"/>
<line x1="782" y1="56" x2="802" y2="56" stroke="#1f77b4" stroke-width="3"/>
<text x="806" y="60" font-size="12">gemm</text>
<polygon points="62.0,152.6 238.5,197.8 415.0,218.7 503.2,206.3 591.5,216.1 679.8,218.4 768.0,221.8 768.0,222.0 679.8,219.4 591.5,217.4 503.2,206.8 415.0,220.8 238.5,216.1 62.0,188.6" fill="#d62728" opacity="0.14" stroke="none"/>
<polyline points="62.0,163.1 238.5,206.5 415.0,220.4 503.2,206.4 591.5,216.3 679.8,219.1 768.0,221.9" fill="none" stroke="#d62728" stroke-width="2"/>
<circle cx="62.0" cy="163.1" r="3" fill="#d62728"/>
<circle cx="238.5" cy="206.5" r="3" fill="#d62728"/>
<circle cx="415.0" cy="220.4" r="3" fill="#d62728"/>
<circle cx="503.2" cy="206.4" r="3" fill="#d62728"/>
<circle cx="591.5" cy="216.3" r="3" fill="#d62728"/>
<circle cx="679.8" cy="219.1" r="3" fill="#d62728"/>
<circle cx="768.0" cy="221.9" r="3" fill="#d62728"/>
<line x1="782" y1="74" x2="802" y2="74" stroke="#d62728" stroke-width="3"/>
<text x="806" y="78" font-size="12">zgemm</text>
<polygon points="62.0,174.5 238.5,191.5 415.0,200.7 503.2,221.3 591.5,228.2 679.8,236.4 768.0,239.0 768.0,240.5 679.8,237.4 591.5,229.2 503.2,222.3 415.0,207.8 238.5,205.8 62.0,188.0" fill="#2ca02c" opacity="0.14" stroke="none"/>
<polyline points="62.0,180.7 238.5,194.5 415.0,204.9 503.2,221.7 591.5,228.8 679.8,236.6 768.0,239.6" fill="none" stroke="#2ca02c" stroke-width="2"/>
<circle cx="62.0" cy="180.7" r="3" fill="#2ca02c"/>
<circle cx="238.5" cy="194.5" r="3" fill="#2ca02c"/>
<circle cx="415.0" cy="204.9" r="3" fill="#2ca02c"/>
<circle cx="503.2" cy="221.7" r="3" fill="#2ca02c"/>
<circle cx="591.5" cy="228.8" r="3" fill="#2ca02c"/>
<circle cx="679.8" cy="236.6" r="3" fill="#2ca02c"/>
<circle cx="768.0" cy="239.6" r="3" fill="#2ca02c"/>
<line x1="782" y1="92" x2="802" y2="92" stroke="#2ca02c" stroke-width="3"/>
<text x="806" y="96" font-size="12">symm</text>
<polygon points="62.0,162.8 238.5,198.0 415.0,207.9 503.2,200.1 591.5,208.7 679.8,225.6 768.0,232.7 768.0,233.1 679.8,226.5 591.5,211.2 503.2,203.5 415.0,214.9 238.5,204.3 62.0,168.7" fill="#9467bd" opacity="0.14" stroke="none"/>
<polyline points="62.0,167.1 238.5,201.1 415.0,208.8 503.2,202.7 591.5,209.7 679.8,226.1 768.0,232.8" fill="none" stroke="#9467bd" stroke-width="2"/>
<circle cx="62.0" cy="167.1" r="3" fill="#9467bd"/>
<circle cx="238.5" cy="201.1" r="3" fill="#9467bd"/>
<circle cx="415.0" cy="208.8" r="3" fill="#9467bd"/>
<circle cx="503.2" cy="202.7" r="3" fill="#9467bd"/>
<circle cx="591.5" cy="209.7" r="3" fill="#9467bd"/>
<circle cx="679.8" cy="226.1" r="3" fill="#9467bd"/>
<circle cx="768.0" cy="232.8" r="3" fill="#9467bd"/>
<line x1="782" y1="110" x2="802" y2="110" stroke="#9467bd" stroke-width="3"/>
<text x="806" y="114" font-size="12">syrk</text>
<polygon points="62.0,171.5 238.5,192.5 415.0,167.4 503.2,181.1 591.5,216.6 679.8,229.5 768.0,236.5 768.0,237.4 679.8,231.1 591.5,218.1 503.2,183.8 415.0,181.5 238.5,202.9 62.0,176.8" fill="#ff7f0e" opacity="0.14" stroke="none"/>
<polyline points="62.0,174.4 238.5,195.2 415.0,175.6 503.2,182.2 591.5,217.2 679.8,230.3 768.0,237.1" fill="none" stroke="#ff7f0e" stroke-width="2"/>
<circle cx="62.0" cy="174.4" r="3" fill="#ff7f0e"/>
<circle cx="238.5" cy="195.2" r="3" fill="#ff7f0e"/>
<circle cx="415.0" cy="175.6" r="3" fill="#ff7f0e"/>
<circle cx="503.2" cy="182.2" r="3" fill="#ff7f0e"/>
<circle cx="591.5" cy="217.2" r="3" fill="#ff7f0e"/>
<circle cx="679.8" cy="230.3" r="3" fill="#ff7f0e"/>
<circle cx="768.0" cy="237.1" r="3" fill="#ff7f0e"/>
<line x1="782" y1="128" x2="802" y2="128" stroke="#ff7f0e" stroke-width="3"/>
<text x="806" y="132" font-size="12">syr2k</text>
<polygon points="62.0,176.4 238.5,206.8 415.0,190.1 503.2,202.5 591.5,234.2 679.8,246.8 768.0,239.5 768.0,240.3 679.8,248.6 591.5,237.0 503.2,206.7 415.0,194.8 238.5,212.3 62.0,181.1" fill="#17becf" opacity="0.14" stroke="none"/>
<polyline points="62.0,178.4 238.5,208.1 415.0,191.3 503.2,205.9 591.5,235.4 679.8,247.7 768.0,239.8" fill="none" stroke="#17becf" stroke-width="2"/>
<circle cx="62.0" cy="178.4" r="3" fill="#17becf"/>
<circle cx="238.5" cy="208.1" r="3" fill="#17becf"/>
<circle cx="415.0" cy="191.3" r="3" fill="#17becf"/>
<circle cx="503.2" cy="205.9" r="3" fill="#17becf"/>
<circle cx="591.5" cy="235.4" r="3" fill="#17becf"/>
<circle cx="679.8" cy="247.7" r="3" fill="#17becf"/>
<circle cx="768.0" cy="239.8" r="3" fill="#17becf"/>
<line x1="782" y1="146" x2="802" y2="146" stroke="#17becf" stroke-width="3"/>
<text x="806" y="150" font-size="12">trmm</text>
<polygon points="62.0,126.1 238.5,75.3 415.0,104.0 503.2,117.9 591.5,179.4 679.8,203.4 768.0,225.3 768.0,227.3 679.8,205.7 591.5,182.2 503.2,119.4 415.0,106.6 238.5,113.7 62.0,128.4" fill="#8c564b" opacity="0.14" stroke="none"/>
<polyline points="62.0,127.0 238.5,79.1 415.0,105.4 503.2,118.4 591.5,181.3 679.8,204.6 768.0,226.1" fill="none" stroke="#8c564b" stroke-width="2"/>
<circle cx="62.0" cy="127.0" r="3" fill="#8c564b"/>
<circle cx="238.5" cy="79.1" r="3" fill="#8c564b"/>
<circle cx="415.0" cy="105.4" r="3" fill="#8c564b"/>
<circle cx="503.2" cy="118.4" r="3" fill="#8c564b"/>
<circle cx="591.5" cy="181.3" r="3" fill="#8c564b"/>
<circle cx="679.8" cy="204.6" r="3" fill="#8c564b"/>
<circle cx="768.0" cy="226.1" r="3" fill="#8c564b"/>
<line x1="782" y1="164" x2="802" y2="164" stroke="#8c564b" stroke-width="3"/>
<text x="806" y="168" font-size="12">trsm</text>
<text x="415.0" y="450" text-anchor="middle" font-size="11" fill="#666">matrix size n (log) · y = median ratio (log) · dashed = the 0.96× gate</text>
</svg>
