<svg xmlns="http://www.w3.org/2000/svg" width="900" height="460" font-family="sans-serif">
<rect width="900" height="460" fill="white"/>
<text x="450.0" y="28" text-anchor="middle" font-size="18" font-weight="bold">LAPACK: PureBLAS / OpenBLAS (AVX2, 1 thread, Float64)</text>
<line x1="62" y1="400.0" x2="768" y2="400.0" stroke="#eee"/>
<text x="54" y="404.0" text-anchor="end" font-size="11" fill="#666">0.5×</text>
<line x1="62" y1="341.03765780424226" x2="768" y2="341.03765780424226" stroke="#eee"/>
<text x="54" y="345.03765780424226" text-anchor="end" font-size="11" fill="#666">0.7×</text>
<line x1="62" y1="278.53505637610886" x2="768" y2="278.53505637610886" stroke="#eee"/>
<text x="54" y="282.53505637610886" text-anchor="end" font-size="11" fill="#666">1.0×</text>
<line x1="62" y1="207.48261920392332" x2="768" y2="207.48261920392332" stroke="#eee"/>
<text x="54" y="211.48261920392332" text-anchor="end" font-size="11" fill="#666">1.5×</text>
<line x1="62" y1="157.07011275221777" x2="768" y2="157.07011275221777" stroke="#eee"/>
<text x="54" y="161.07011275221777" text-anchor="end" font-size="11" fill="#666">2.0×</text>
<line x1="62" y1="86.01767558003218" x2="768" y2="86.01767558003218" stroke="#eee"/>
<text x="54" y="90.01767558003218" text-anchor="end" font-size="11" fill="#666">3.0×</text>
<line x1="62.0" y1="50" x2="62.0" y2="400" stroke="#f4f4f4"/>
<text x="62.0" y="418" text-anchor="middle" font-size="11" fill="#444">8</text>
<line x1="238.5" y1="50" x2="238.5" y2="400" stroke="#f4f4f4"/>
<text x="238.5" y="418" text-anchor="middle" font-size="11" fill="#444">32</text>
<line x1="415.0" y1="50" x2="415.0" y2="400" stroke="#f4f4f4"/>
<text x="415.0" y="418" text-anchor="middle" font-size="11" fill="#444">128</text>
<line x1="503.25" y1="50" x2="503.25" y2="400" stroke="#f4f4f4"/>
<text x="503.25" y="418" text-anchor="middle" font-size="11" fill="#444">256</text>
<line x1="591.5" y1="50" x2="591.5" y2="400" stroke="#f4f4f4"/>
<text x="591.5" y="418" text-anchor="middle" font-size="11" fill="#444">512</text>
<line x1="679.75" y1="50" x2="679.75" y2="400" stroke="#f4f4f4"/>
<text x="679.75" y="418" text-anchor="middle" font-size="11" fill="#444">1024</text>
<line x1="768.0" y1="50" x2="768.0" y2="400" stroke="#f4f4f4"/>
<text x="768.0" y="418" text-anchor="middle" font-size="11" fill="#444">2048</text>
<line x1="62" y1="278.53505637610886" x2="768" y2="278.53505637610886" stroke="#888"/>
<line x1="62" y1="285.6885749968036" x2="768" y2="285.6885749968036" stroke="#d33" stroke-width="1.5" stroke-dasharray="6 4"/>
<text x="66" y="280.6885749968036" font-size="11" fill="#d33">0.96× gate</text>
<polygon points="62.0,221.4 238.5,207.5 415.0,297.6 503.2,309.4 591.5,297.9 679.8,297.4 768.0,291.6 768.0,292.8 679.8,298.2 591.5,299.7 503.2,313.5 415.0,300.9 238.5,213.5 62.0,230.8" fill="#1f77b4" opacity="0.14" stroke="none"/>
<polyline points="62.0,225.5 238.5,213.1 415.0,299.3 503.2,310.5 591.5,299.2 679.8,297.9 768.0,292.1" fill="none" stroke="#1f77b4" stroke-width="2"/>
<circle cx="62.0" cy="225.5" r="3" fill="#1f77b4"/>
<circle cx="238.5" cy="213.1" r="3" fill="#1f77b4"/>
<circle cx="415.0" cy="299.3" r="3" fill="#1f77b4"/>
<circle cx="503.2" cy="310.5" r="3" fill="#1f77b4"/>
<circle cx="591.5" cy="299.2" r="3" fill="#1f77b4"/>
<circle cx="679.8" cy="297.9" r="3" fill="#1f77b4"/>
<circle cx="768.0" cy="292.1" r="3" fill="#1f77b4"/>
<line x1="782" y1="56" x2="802" y2="56" stroke="#1f77b4" stroke-width="3"/>
<text x="806" y="60" font-size="12">potrf</text>
<polygon points="62.0,50.0 238.5,191.7 415.0,235.1 503.2,255.6 591.5,237.9 679.8,243.9 768.0,244.7 768.0,246.8 679.8,247.8 591.5,243.6 503.2,256.7 415.0,235.8 238.5,192.4 62.0,87.7" fill="#d62728" opacity="0.14" stroke="none"/>
<polyline points="62.0,74.5 238.5,192.1 415.0,235.7 503.2,256.0 591.5,240.4 679.8,245.9 768.0,245.9" fill="none" stroke="#d62728" stroke-width="2"/>
<circle cx="62.0" cy="74.5" r="3" fill="#d62728"/>
<circle cx="238.5" cy="192.1" r="3" fill="#d62728"/>
<circle cx="415.0" cy="235.7" r="3" fill="#d62728"/>
<circle cx="503.2" cy="256.0" r="3" fill="#d62728"/>
<circle cx="591.5" cy="240.4" r="3" fill="#d62728"/>
<circle cx="679.8" cy="245.9" r="3" fill="#d62728"/>
<circle cx="768.0" cy="245.9" r="3" fill="#d62728"/>
<line x1="782" y1="74" x2="802" y2="74" stroke="#d62728" stroke-width="3"/>
<text x="806" y="78" font-size="12">geqrf</text>
<polygon points="62.0,131.9 238.5,134.7 415.0,239.6 503.2,271.5 591.5,272.0 679.8,271.3 768.0,272.3 768.0,273.6 679.8,272.1 591.5,277.3 503.2,275.1 415.0,240.3 238.5,135.7 62.0,136.4" fill="#2ca02c" opacity="0.14" stroke="none"/>
<polyline points="62.0,134.3 238.5,135.2 415.0,240.1 503.2,273.9 591.5,274.5 679.8,271.7 768.0,272.5" fill="none" stroke="#2ca02c" stroke-width="2"/>
<circle cx="62.0" cy="134.3" r="3" fill="#2ca02c"/>
<circle cx="238.5" cy="135.2" r="3" fill="#2ca02c"/>
<circle cx="415.0" cy="240.1" r="3" fill="#2ca02c"/>
<circle cx="503.2" cy="273.9" r="3" fill="#2ca02c"/>
<circle cx="591.5" cy="274.5" r="3" fill="#2ca02c"/>
<circle cx="679.8" cy="271.7" r="3" fill="#2ca02c"/>
<circle cx="768.0" cy="272.5" r="3" fill="#2ca02c"/>
<line x1="782" y1="92" x2="802" y2="92" stroke="#2ca02c" stroke-width="3"/>
<text x="806" y="96" font-size="12">getrf</text>
<polygon points="62.0,184.9 238.5,240.6 415.0,261.2 503.2,240.4 591.5,234.6 679.8,239.7 768.0,251.1 768.0,253.6 679.8,247.3 591.5,237.0 503.2,242.3 415.0,262.1 238.5,244.6 62.0,186.3" fill="#9467bd" opacity="0.14" stroke="none"/>
<polyline points="62.0,185.4 238.5,241.0 415.0,261.7 503.2,241.4 591.5,234.8 679.8,242.8 768.0,252.7" fill="none" stroke="#9467bd" stroke-width="2"/>
<circle cx="62.0" cy="185.4" r="3" fill="#9467bd"/>
<circle cx="238.5" cy="241.0" r="3" fill="#9467bd"/>
<circle cx="415.0" cy="261.7" r="3" fill="#9467bd"/>
<circle cx="503.2" cy="241.4" r="3" fill="#9467bd"/>
<circle cx="591.5" cy="234.8" r="3" fill="#9467bd"/>
<circle cx="679.8" cy="242.8" r="3" fill="#9467bd"/>
<circle cx="768.0" cy="252.7" r="3" fill="#9467bd"/>
<line x1="782" y1="110" x2="802" y2="110" stroke="#9467bd" stroke-width="3"/>
<text x="806" y="114" font-size="12">gesvd</text>
<text x="415.0" y="450" text-anchor="middle" font-size="11" fill="#666">matrix size n (log) · y = median ratio (log) · dashed = the 0.96× gate</text>
</svg>
