<svg xmlns="http://www.w3.org/2000/svg" width="962" height="248" font-family="sans-serif">
<rect width="962" height="248" fill="white"/>
<text x="481.0" y="26" text-anchor="middle" font-size="17" font-weight="bold">Complex LAPACK — PureBLAS / AOCL (PB/AOCL ratio)</text>
<line x1="46" y1="42" x2="68" y2="42" stroke="#888888" stroke-width="3"/>
<text x="73" y="46" font-size="12">AVX2</text>
<line x1="127" y1="42" x2="149" y2="42" stroke="#888888" stroke-width="3"/>
<text x="154" y="46" font-size="12">Zen5</text>
<line x1="208" y1="42" x2="230" y2="42" stroke="#888888" stroke-width="3"/>
<text x="235" y="46" font-size="12">AVX-512</text>
<rect x="46" y="60" width="210" height="138" fill="none" stroke="#e2e2e2"/>
<line x1="46" y1="182.02955628128842" x2="256" y2="182.02955628128842" stroke="#d33" stroke-dasharray="4 3"/>
<text x="42" y="201.0" text-anchor="end" font-size="9" fill="#999">0.5×</text>
<text x="42" y="185.02955628128842" text-anchor="end" font-size="9" fill="#999">1.0×</text>
<polygon points="46.0,65.5 106.0,124.3 166.0,165.5 196.0,173.6 226.0,176.1 256.0,176.8 256.0,177.3 226.0,176.1 196.0,173.8 166.0,165.7 106.0,124.8 46.0,66.2" fill="#888888" opacity="0.11"/>
<polyline points="46.0,65.6 106.0,124.5 166.0,165.7 196.0,173.7 226.0,176.1 256.0,177.0" fill="none" stroke="#888888" stroke-width="1.6"/>
<circle cx="46.0" cy="65.6" r="2" fill="#888888"/>
<circle cx="106.0" cy="124.5" r="2" fill="#888888"/>
<circle cx="166.0" cy="165.7" r="2" fill="#888888"/>
<circle cx="196.0" cy="173.7" r="2" fill="#888888"/>
<circle cx="226.0" cy="176.1" r="2" fill="#888888"/>
<circle cx="256.0" cy="177.0" r="2" fill="#888888"/>
<polygon points="46.0,61.8 106.0,126.2 166.0,166.8 196.0,171.9 226.0,175.8 256.0,180.6 256.0,180.6 226.0,176.1 196.0,172.5 166.0,167.4 106.0,126.6 46.0,62.7" fill="#888888" opacity="0.11"/>
<polyline points="46.0,62.1 106.0,126.2 166.0,167.3 196.0,172.4 226.0,176.0 256.0,180.6" fill="none" stroke="#888888" stroke-width="1.6"/>
<circle cx="46.0" cy="62.1" r="2" fill="#888888"/>
<circle cx="106.0" cy="126.2" r="2" fill="#888888"/>
<circle cx="166.0" cy="167.3" r="2" fill="#888888"/>
<circle cx="196.0" cy="172.4" r="2" fill="#888888"/>
<circle cx="226.0" cy="176.0" r="2" fill="#888888"/>
<circle cx="256.0" cy="180.6" r="2" fill="#888888"/>
<text x="151.0" y="55" text-anchor="middle" font-size="12" font-weight="bold">zpotrf</text>
<line x1="46.0" y1="60" x2="46.0" y2="198" stroke="#f4f4f4"/>
<text x="46.0" y="209" text-anchor="middle" font-size="8" fill="#999">8</text>
<line x1="106.0" y1="60" x2="106.0" y2="198" stroke="#f4f4f4"/>
<text x="106.0" y="209" text-anchor="middle" font-size="8" fill="#999">32</text>
<line x1="166.0" y1="60" x2="166.0" y2="198" stroke="#f4f4f4"/>
<text x="166.0" y="209" text-anchor="middle" font-size="8" fill="#999">128</text>
<line x1="196.0" y1="60" x2="196.0" y2="198" stroke="#f4f4f4"/>
<text x="196.0" y="209" text-anchor="middle" font-size="8" fill="#999">256</text>
<line x1="226.0" y1="60" x2="226.0" y2="198" stroke="#f4f4f4"/>
<text x="226.0" y="209" text-anchor="middle" font-size="8" fill="#999">512</text>
<line x1="256.0" y1="60" x2="256.0" y2="198" stroke="#f4f4f4"/>
<text x="256.0" y="209" text-anchor="middle" font-size="8" fill="#999">1k</text>
<rect x="276" y="60" width="210" height="138" fill="none" stroke="#e2e2e2"/>
<line x1="276" y1="135.58057096223308" x2="486" y2="135.58057096223308" stroke="#d33" stroke-dasharray="4 3"/>
<text x="272" y="201.0" text-anchor="end" font-size="9" fill="#999">0.5×</text>
<text x="272" y="138.58057096223308" text-anchor="end" font-size="9" fill="#999">1.0×</text>
<text x="272" y="63.18458882398096" text-anchor="end" font-size="9" fill="#999">2.31×</text>
<polygon points="276.0,66.9 336.0,80.0 396.0,102.3 426.0,107.9 456.0,100.2 486.0,107.5 486.0,108.7 456.0,100.7 426.0,109.1 396.0,102.6 336.0,93.8 276.0,69.1" fill="#888888" opacity="0.11"/>
<polyline points="276.0,68.4 336.0,92.4 396.0,102.5 426.0,108.8 456.0,100.6 486.0,107.6" fill="none" stroke="#888888" stroke-width="1.6"/>
<circle cx="276.0" cy="68.4" r="2" fill="#888888"/>
<circle cx="336.0" cy="92.4" r="2" fill="#888888"/>
<circle cx="396.0" cy="102.5" r="2" fill="#888888"/>
<circle cx="426.0" cy="108.8" r="2" fill="#888888"/>
<circle cx="456.0" cy="100.6" r="2" fill="#888888"/>
<circle cx="486.0" cy="107.6" r="2" fill="#888888"/>
<polygon points="276.0,79.2 336.0,126.2 396.0,118.4 426.0,96.6 456.0,111.4 486.0,131.8 486.0,132.4 456.0,112.5 426.0,97.3 396.0,121.6 336.0,129.8 276.0,85.3" fill="#888888" opacity="0.11"/>
<polyline points="276.0,84.0 336.0,128.3 396.0,121.0 426.0,96.9 456.0,111.9 486.0,132.2" fill="none" stroke="#888888" stroke-width="1.6"/>
<circle cx="276.0" cy="84.0" r="2" fill="#888888"/>
<circle cx="336.0" cy="128.3" r="2" fill="#888888"/>
<circle cx="396.0" cy="121.0" r="2" fill="#888888"/>
<circle cx="426.0" cy="96.9" r="2" fill="#888888"/>
<circle cx="456.0" cy="111.9" r="2" fill="#888888"/>
<circle cx="486.0" cy="132.2" r="2" fill="#888888"/>
<text x="381.0" y="55" text-anchor="middle" font-size="12" font-weight="bold">zgeqrf</text>
<line x1="276.0" y1="60" x2="276.0" y2="198" stroke="#f4f4f4"/>
<text x="276.0" y="209" text-anchor="middle" font-size="8" fill="#999">8</text>
<line x1="336.0" y1="60" x2="336.0" y2="198" stroke="#f4f4f4"/>
<text x="336.0" y="209" text-anchor="middle" font-size="8" fill="#999">32</text>
<line x1="396.0" y1="60" x2="396.0" y2="198" stroke="#f4f4f4"/>
<text x="396.0" y="209" text-anchor="middle" font-size="8" fill="#999">128</text>
<line x1="426.0" y1="60" x2="426.0" y2="198" stroke="#f4f4f4"/>
<text x="426.0" y="209" text-anchor="middle" font-size="8" fill="#999">256</text>
<line x1="456.0" y1="60" x2="456.0" y2="198" stroke="#f4f4f4"/>
<text x="456.0" y="209" text-anchor="middle" font-size="8" fill="#999">512</text>
<line x1="486.0" y1="60" x2="486.0" y2="198" stroke="#f4f4f4"/>
<text x="486.0" y="209" text-anchor="middle" font-size="8" fill="#999">1k</text>
<rect x="506" y="60" width="210" height="138" fill="none" stroke="#e2e2e2"/>
<line x1="506" y1="124.69886941213038" x2="716" y2="124.69886941213038" stroke="#d33" stroke-dasharray="4 3"/>
<text x="502" y="201.0" text-anchor="end" font-size="9" fill="#999">0.5×</text>
<text x="502" y="127.69886941213038" text-anchor="end" font-size="9" fill="#999">1.0×</text>
<text x="502" y="63.215442158970454" text-anchor="end" font-size="9" fill="#999">1.84×</text>
<polygon points="506.0,98.9 566.0,108.5 626.0,86.8 656.0,76.0 686.0,87.8 716.0,97.8 716.0,99.9 686.0,91.2 656.0,78.8 626.0,90.1 566.0,117.9 506.0,99.2" fill="#888888" opacity="0.11"/>
<polyline points="506.0,99.0 566.0,110.4 626.0,87.1 656.0,77.1 686.0,88.8 716.0,99.6" fill="none" stroke="#888888" stroke-width="1.6"/>
<circle cx="506.0" cy="99.0" r="2" fill="#888888"/>
<circle cx="566.0" cy="110.4" r="2" fill="#888888"/>
<circle cx="626.0" cy="87.1" r="2" fill="#888888"/>
<circle cx="656.0" cy="77.1" r="2" fill="#888888"/>
<circle cx="686.0" cy="88.8" r="2" fill="#888888"/>
<circle cx="716.0" cy="99.6" r="2" fill="#888888"/>
<polygon points="506.0,104.0 566.0,127.9 626.0,86.8 656.0,68.1 686.0,85.3 716.0,96.4 716.0,105.4 686.0,87.3 656.0,69.5 626.0,89.3 566.0,135.9 506.0,104.5" fill="#888888" opacity="0.11"/>
<polyline points="506.0,104.3 566.0,131.4 626.0,87.5 656.0,68.5 686.0,85.9 716.0,96.5" fill="none" stroke="#888888" stroke-width="1.6"/>
<circle cx="506.0" cy="104.3" r="2" fill="#888888"/>
<circle cx="566.0" cy="131.4" r="2" fill="#888888"/>
<circle cx="626.0" cy="87.5" r="2" fill="#888888"/>
<circle cx="656.0" cy="68.5" r="2" fill="#888888"/>
<circle cx="686.0" cy="85.9" r="2" fill="#888888"/>
<circle cx="716.0" cy="96.5" r="2" fill="#888888"/>
<text x="611.0" y="55" text-anchor="middle" font-size="12" font-weight="bold">zgetrf</text>
<line x1="506.0" y1="60" x2="506.0" y2="198" stroke="#f4f4f4"/>
<text x="506.0" y="209" text-anchor="middle" font-size="8" fill="#999">8</text>
<line x1="566.0" y1="60" x2="566.0" y2="198" stroke="#f4f4f4"/>
<text x="566.0" y="209" text-anchor="middle" font-size="8" fill="#999">32</text>
<line x1="626.0" y1="60" x2="626.0" y2="198" stroke="#f4f4f4"/>
<text x="626.0" y="209" text-anchor="middle" font-size="8" fill="#999">128</text>
<line x1="656.0" y1="60" x2="656.0" y2="198" stroke="#f4f4f4"/>
<text x="656.0" y="209" text-anchor="middle" font-size="8" fill="#999">256</text>
<line x1="686.0" y1="60" x2="686.0" y2="198" stroke="#f4f4f4"/>
<text x="686.0" y="209" text-anchor="middle" font-size="8" fill="#999">512</text>
<line x1="716.0" y1="60" x2="716.0" y2="198" stroke="#f4f4f4"/>
<text x="716.0" y="209" text-anchor="middle" font-size="8" fill="#999">1k</text>
<rect x="736" y="60" width="210" height="138" fill="none" stroke="#e2e2e2"/>
<line x1="736" y1="141.57037243949162" x2="946" y2="141.57037243949162" stroke="#d33" stroke-dasharray="4 3"/>
<text x="732" y="201.0" text-anchor="end" font-size="9" fill="#999">0.5×</text>
<text x="732" y="144.57037243949162" text-anchor="end" font-size="9" fill="#999">1.0×</text>
<text x="732" y="63.10818675285006" text-anchor="end" font-size="9" fill="#999">2.72×</text>
<polygon points="736.0,66.3 796.0,121.2 856.0,126.9 886.0,118.2 916.0,122.4 946.0,130.7 946.0,131.8 916.0,122.6 886.0,118.6 856.0,127.2 796.0,124.0 736.0,66.8" fill="#888888" opacity="0.11"/>
<polyline points="736.0,66.6 796.0,123.9 856.0,127.1 886.0,118.4 916.0,122.5 946.0,131.5" fill="none" stroke="#888888" stroke-width="1.6"/>
<circle cx="736.0" cy="66.6" r="2" fill="#888888"/>
<circle cx="796.0" cy="123.9" r="2" fill="#888888"/>
<circle cx="856.0" cy="127.1" r="2" fill="#888888"/>
<circle cx="886.0" cy="118.4" r="2" fill="#888888"/>
<circle cx="916.0" cy="122.5" r="2" fill="#888888"/>
<circle cx="946.0" cy="131.5" r="2" fill="#888888"/>
<polygon points="736.0,76.3 796.0,129.6 856.0,144.2 886.0,124.0 916.0,126.2 946.0,134.5 946.0,136.0 916.0,127.0 886.0,124.8 856.0,144.8 796.0,138.5 736.0,79.4" fill="#888888" opacity="0.11"/>
<polyline points="736.0,78.5 796.0,137.2 856.0,144.4 886.0,124.8 916.0,126.5 946.0,135.1" fill="none" stroke="#888888" stroke-width="1.6"/>
<circle cx="736.0" cy="78.5" r="2" fill="#888888"/>
<circle cx="796.0" cy="137.2" r="2" fill="#888888"/>
<circle cx="856.0" cy="144.4" r="2" fill="#888888"/>
<circle cx="886.0" cy="124.8" r="2" fill="#888888"/>
<circle cx="916.0" cy="126.5" r="2" fill="#888888"/>
<circle cx="946.0" cy="135.1" r="2" fill="#888888"/>
<polygon points="736.0,72.5 796.0,121.6 856.0,143.7 886.0,116.7 916.0,124.2 946.0,134.1 946.0,136.2 916.0,124.8 886.0,117.2 856.0,144.0 796.0,143.0 736.0,75.9" fill="#888888" opacity="0.11"/>
<polyline points="736.0,75.8 796.0,142.4 856.0,143.7 886.0,116.9 916.0,124.5 946.0,134.6" fill="none" stroke="#888888" stroke-width="1.6"/>
<circle cx="736.0" cy="75.8" r="2" fill="#888888"/>
<circle cx="796.0" cy="142.4" r="2" fill="#888888"/>
<circle cx="856.0" cy="143.7" r="2" fill="#888888"/>
<circle cx="886.0" cy="116.9" r="2" fill="#888888"/>
<circle cx="916.0" cy="124.5" r="2" fill="#888888"/>
<circle cx="946.0" cy="134.6" r="2" fill="#888888"/>
<text x="841.0" y="55" text-anchor="middle" font-size="12" font-weight="bold">zgesvd</text>
<line x1="736.0" y1="60" x2="736.0" y2="198" stroke="#f4f4f4"/>
<text x="736.0" y="209" text-anchor="middle" font-size="8" fill="#999">8</text>
<line x1="796.0" y1="60" x2="796.0" y2="198" stroke="#f4f4f4"/>
<text x="796.0" y="209" text-anchor="middle" font-size="8" fill="#999">32</text>
<line x1="856.0" y1="60" x2="856.0" y2="198" stroke="#f4f4f4"/>
<text x="856.0" y="209" text-anchor="middle" font-size="8" fill="#999">128</text>
<line x1="886.0" y1="60" x2="886.0" y2="198" stroke="#f4f4f4"/>
<text x="886.0" y="209" text-anchor="middle" font-size="8" fill="#999">256</text>
<line x1="916.0" y1="60" x2="916.0" y2="198" stroke="#f4f4f4"/>
<text x="916.0" y="209" text-anchor="middle" font-size="8" fill="#999">512</text>
<line x1="946.0" y1="60" x2="946.0" y2="198" stroke="#f4f4f4"/>
<text x="946.0" y="209" text-anchor="middle" font-size="8" fill="#999">1k</text>
</svg>
