<svg xmlns="http://www.w3.org/2000/svg" width="962" height="420" font-family="sans-serif">
<rect width="962" height="420" fill="white"/>
<text x="481.0" y="26" text-anchor="middle" font-size="17" font-weight="bold">BLAS-3 — PureBLAS / OpenBLAS (PB/OpenBLAS ratio)</text>
<line x1="46" y1="42" x2="68" y2="42" stroke="#d62728" stroke-width="3"/>
<text x="73" y="46" font-size="12">Zen3 · AVX2</text>
<line x1="176" y1="42" x2="198" y2="42" stroke="#2ca02c" stroke-width="3"/>
<text x="203" y="46" font-size="12">Zen5 · AVX-512</text>
<line x1="327" y1="42" x2="349" y2="42" stroke="#1f77b4" stroke-width="3"/>
<text x="354" y="46" font-size="12">Zen4 · AVX-512</text>
<rect x="46" y="60" width="210" height="138" fill="none" stroke="#e2e2e2"/>
<line x1="46" y1="132.03564280137" x2="256" y2="132.03564280137" stroke="#d33" stroke-dasharray="4 3"/>
<text x="42" y="201.0" text-anchor="end" font-size="9" fill="#999">0.5×</text>
<text x="42" y="135.03564280137" text-anchor="end" font-size="9" fill="#999">1.0×</text>
<text x="42" y="63.07819746374186" text-anchor="end" font-size="9" fill="#999">2.13×</text>
<polygon points="46.0,67.3 92.7,100.9 139.3,125.3 162.7,129.5 186.0,126.2 209.3,121.7 232.7,113.6 256.0,100.2 256.0,103.5 232.7,114.1 209.3,122.3 186.0,127.0 162.7,130.1 139.3,126.9 92.7,102.4 46.0,68.6" fill="#d62728" opacity="0.11"/>
<polyline points="46.0,67.9 92.7,101.5 139.3,126.2 162.7,129.9 186.0,126.7 209.3,121.9 232.7,113.9 256.0,103.4" fill="none" stroke="#d62728" stroke-width="1.6"/>
<circle cx="46.0" cy="67.9" r="2" fill="#d62728"/>
<circle cx="92.7" cy="101.5" r="2" fill="#d62728"/>
<circle cx="139.3" cy="126.2" r="2" fill="#d62728"/>
<circle cx="162.7" cy="129.9" r="2" fill="#d62728"/>
<circle cx="186.0" cy="126.7" r="2" fill="#d62728"/>
<circle cx="209.3" cy="121.9" r="2" fill="#d62728"/>
<circle cx="232.7" cy="113.9" r="2" fill="#d62728"/>
<circle cx="256.0" cy="103.4" r="2" fill="#d62728"/>
<polygon points="46.0,107.2 92.7,129.3 139.3,104.6 162.7,113.0 186.0,119.3 209.3,117.4 232.7,110.6 256.0,99.6 256.0,100.6 232.7,111.6 209.3,118.7 186.0,120.0 162.7,115.3 139.3,106.4 92.7,133.1 46.0,117.7" fill="#2ca02c" opacity="0.11"/>
<polyline points="46.0,115.1 92.7,131.6 139.3,105.5 162.7,113.5 186.0,119.5 209.3,118.2 232.7,111.1 256.0,100.6" fill="none" stroke="#2ca02c" stroke-width="1.6"/>
<circle cx="46.0" cy="115.1" r="2" fill="#2ca02c"/>
<circle cx="92.7" cy="131.6" r="2" fill="#2ca02c"/>
<circle cx="139.3" cy="105.5" r="2" fill="#2ca02c"/>
<circle cx="162.7" cy="113.5" r="2" fill="#2ca02c"/>
<circle cx="186.0" cy="119.5" r="2" fill="#2ca02c"/>
<circle cx="209.3" cy="118.2" r="2" fill="#2ca02c"/>
<circle cx="232.7" cy="111.1" r="2" fill="#2ca02c"/>
<circle cx="256.0" cy="100.6" r="2" fill="#2ca02c"/>
<polygon points="46.0,119.2 92.7,126.8 139.3,113.6 162.7,122.8 186.0,130.8 209.3,129.5 232.7,121.4 256.0,109.9 256.0,110.3 232.7,121.9 209.3,130.4 186.0,131.6 162.7,125.5 139.3,115.1 92.7,129.8 46.0,123.5" fill="#1f77b4" opacity="0.11"/>
<polyline points="46.0,120.7 92.7,128.9 139.3,114.2 162.7,123.3 186.0,131.1 209.3,129.6 232.7,121.7 256.0,110.2" fill="none" stroke="#1f77b4" stroke-width="1.6"/>
<circle cx="46.0" cy="120.7" r="2" fill="#1f77b4"/>
<circle cx="92.7" cy="128.9" r="2" fill="#1f77b4"/>
<circle cx="139.3" cy="114.2" r="2" fill="#1f77b4"/>
<circle cx="162.7" cy="123.3" r="2" fill="#1f77b4"/>
<circle cx="186.0" cy="131.1" r="2" fill="#1f77b4"/>
<circle cx="209.3" cy="129.6" r="2" fill="#1f77b4"/>
<circle cx="232.7" cy="121.7" r="2" fill="#1f77b4"/>
<circle cx="256.0" cy="110.2" r="2" fill="#1f77b4"/>
<text x="151.0" y="55" text-anchor="middle" font-size="12" font-weight="bold">gemm</text>
<line x1="46.0" y1="60" x2="46.0" y2="198" stroke="#f4f4f4"/>
<text x="46.0" y="209" text-anchor="middle" font-size="8" fill="#999">8</text>
<line x1="92.7" y1="60" x2="92.7" y2="198" stroke="#f4f4f4"/>
<text x="92.7" y="209" text-anchor="middle" font-size="8" fill="#999">32</text>
<line x1="139.3" y1="60" x2="139.3" y2="198" stroke="#f4f4f4"/>
<text x="139.3" y="209" text-anchor="middle" font-size="8" fill="#999">128</text>
<line x1="162.7" y1="60" x2="162.7" y2="198" stroke="#f4f4f4"/>
<text x="162.7" y="209" text-anchor="middle" font-size="8" fill="#999">256</text>
<line x1="186.0" y1="60" x2="186.0" y2="198" stroke="#f4f4f4"/>
<text x="186.0" y="209" text-anchor="middle" font-size="8" fill="#999">512</text>
<line x1="209.3" y1="60" x2="209.3" y2="198" stroke="#f4f4f4"/>
<text x="209.3" y="209" text-anchor="middle" font-size="8" fill="#999">1k</text>
<line x1="232.7" y1="60" x2="232.7" y2="198" stroke="#f4f4f4"/>
<text x="232.7" y="209" text-anchor="middle" font-size="8" fill="#999">2k</text>
<line x1="256.0" y1="60" x2="256.0" y2="198" stroke="#f4f4f4"/>
<text x="256.0" y="209" text-anchor="middle" font-size="8" fill="#999">4k</text>
<rect x="276" y="60" width="210" height="138" fill="none" stroke="#e2e2e2"/>
<line x1="276" y1="115.76276119065531" x2="486" y2="115.76276119065531" stroke="#d33" stroke-dasharray="4 3"/>
<text x="272" y="201.0" text-anchor="end" font-size="9" fill="#999">0.5×</text>
<text x="272" y="118.76276119065531" text-anchor="end" font-size="9" fill="#999">1.0×</text>
<text x="272" y="63.0" text-anchor="end" font-size="9" fill="#999">1.6×</text>
<polygon points="276.0,89.4 322.7,92.5 369.3,118.6 392.7,117.9 416.0,111.9 439.3,109.4 462.7,107.8 486.0,106.8 486.0,107.1 462.7,108.9 439.3,110.7 416.0,114.0 392.7,120.0 369.3,119.7 322.7,108.4 276.0,100.5" fill="#d62728" opacity="0.11"/>
<polyline points="276.0,97.7 322.7,100.0 369.3,119.1 392.7,119.6 416.0,113.3 439.3,109.7 462.7,107.9 486.0,106.9" fill="none" stroke="#d62728" stroke-width="1.6"/>
<circle cx="276.0" cy="97.7" r="2" fill="#d62728"/>
<circle cx="322.7" cy="100.0" r="2" fill="#d62728"/>
<circle cx="369.3" cy="119.1" r="2" fill="#d62728"/>
<circle cx="392.7" cy="119.6" r="2" fill="#d62728"/>
<circle cx="416.0" cy="113.3" r="2" fill="#d62728"/>
<circle cx="439.3" cy="109.7" r="2" fill="#d62728"/>
<circle cx="462.7" cy="107.9" r="2" fill="#d62728"/>
<circle cx="486.0" cy="106.9" r="2" fill="#d62728"/>
<polygon points="276.0,69.4 322.7,78.6 369.3,89.6 392.7,100.6 416.0,100.3 439.3,102.0 462.7,102.2 486.0,102.1 486.0,103.3 462.7,102.7 439.3,102.7 416.0,100.8 392.7,102.0 369.3,90.8 322.7,83.0 276.0,82.5" fill="#2ca02c" opacity="0.11"/>
<polyline points="276.0,70.4 322.7,81.0 369.3,90.2 392.7,100.9 416.0,100.5 439.3,102.5 462.7,102.4 486.0,102.3" fill="none" stroke="#2ca02c" stroke-width="1.6"/>
<circle cx="276.0" cy="70.4" r="2" fill="#2ca02c"/>
<circle cx="322.7" cy="81.0" r="2" fill="#2ca02c"/>
<circle cx="369.3" cy="90.2" r="2" fill="#2ca02c"/>
<circle cx="392.7" cy="100.9" r="2" fill="#2ca02c"/>
<circle cx="416.0" cy="100.5" r="2" fill="#2ca02c"/>
<circle cx="439.3" cy="102.5" r="2" fill="#2ca02c"/>
<circle cx="462.7" cy="102.4" r="2" fill="#2ca02c"/>
<circle cx="486.0" cy="102.3" r="2" fill="#2ca02c"/>
<polygon points="276.0,78.5 322.7,74.5 369.3,100.9 392.7,115.2 416.0,114.5 439.3,113.8 462.7,116.7 486.0,115.9 486.0,119.4 462.7,117.2 439.3,114.4 416.0,114.9 392.7,115.9 369.3,101.8 322.7,76.6 276.0,83.1" fill="#1f77b4" opacity="0.11"/>
<polyline points="276.0,81.9 322.7,75.6 369.3,101.3 392.7,115.5 416.0,114.7 439.3,114.2 462.7,116.9 486.0,117.6" fill="none" stroke="#1f77b4" stroke-width="1.6"/>
<circle cx="276.0" cy="81.9" r="2" fill="#1f77b4"/>
<circle cx="322.7" cy="75.6" r="2" fill="#1f77b4"/>
<circle cx="369.3" cy="101.3" r="2" fill="#1f77b4"/>
<circle cx="392.7" cy="115.5" r="2" fill="#1f77b4"/>
<circle cx="416.0" cy="114.7" r="2" fill="#1f77b4"/>
<circle cx="439.3" cy="114.2" r="2" fill="#1f77b4"/>
<circle cx="462.7" cy="116.9" r="2" fill="#1f77b4"/>
<circle cx="486.0" cy="117.6" r="2" fill="#1f77b4"/>
<text x="381.0" y="55" text-anchor="middle" font-size="12" font-weight="bold">symm</text>
<line x1="276.0" y1="60" x2="276.0" y2="198" stroke="#f4f4f4"/>
<text x="276.0" y="209" text-anchor="middle" font-size="8" fill="#999">8</text>
<line x1="322.7" y1="60" x2="322.7" y2="198" stroke="#f4f4f4"/>
<text x="322.7" y="209" text-anchor="middle" font-size="8" fill="#999">32</text>
<line x1="369.3" y1="60" x2="369.3" y2="198" stroke="#f4f4f4"/>
<text x="369.3" y="209" text-anchor="middle" font-size="8" fill="#999">128</text>
<line x1="392.7" y1="60" x2="392.7" y2="198" stroke="#f4f4f4"/>
<text x="392.7" y="209" text-anchor="middle" font-size="8" fill="#999">256</text>
<line x1="416.0" y1="60" x2="416.0" y2="198" stroke="#f4f4f4"/>
<text x="416.0" y="209" text-anchor="middle" font-size="8" fill="#999">512</text>
<line x1="439.3" y1="60" x2="439.3" y2="198" stroke="#f4f4f4"/>
<text x="439.3" y="209" text-anchor="middle" font-size="8" fill="#999">1k</text>
<line x1="462.7" y1="60" x2="462.7" y2="198" stroke="#f4f4f4"/>
<text x="462.7" y="209" text-anchor="middle" font-size="8" fill="#999">2k</text>
<line x1="486.0" y1="60" x2="486.0" y2="198" stroke="#f4f4f4"/>
<text x="486.0" y="209" text-anchor="middle" font-size="8" fill="#999">4k</text>
<rect x="506" y="60" width="210" height="138" fill="none" stroke="#e2e2e2"/>
<line x1="506" y1="121.9918612645971" x2="716" y2="121.9918612645971" stroke="#d33" stroke-dasharray="4 3"/>
<text x="502" y="201.0" text-anchor="end" font-size="9" fill="#999">0.5×</text>
<text x="502" y="124.9918612645971" text-anchor="end" font-size="9" fill="#999">1.0×</text>
<text x="502" y="63.00149091842497" text-anchor="end" font-size="9" fill="#999">1.76×</text>
<polygon points="506.0,85.9 552.7,84.6 599.3,115.0 622.7,118.6 646.0,116.6 669.3,117.0 692.7,119.1 716.0,116.0 716.0,116.5 692.7,119.5 669.3,117.4 646.0,117.7 622.7,123.3 599.3,123.9 552.7,101.0 506.0,89.2" fill="#d62728" opacity="0.11"/>
<polyline points="506.0,87.2 552.7,95.2 599.3,118.8 622.7,119.7 646.0,117.2 669.3,117.3 692.7,119.3 716.0,116.1" fill="none" stroke="#d62728" stroke-width="1.6"/>
<circle cx="506.0" cy="87.2" r="2" fill="#d62728"/>
<circle cx="552.7" cy="95.2" r="2" fill="#d62728"/>
<circle cx="599.3" cy="118.8" r="2" fill="#d62728"/>
<circle cx="622.7" cy="119.7" r="2" fill="#d62728"/>
<circle cx="646.0" cy="117.2" r="2" fill="#d62728"/>
<circle cx="669.3" cy="117.3" r="2" fill="#d62728"/>
<circle cx="692.7" cy="119.3" r="2" fill="#d62728"/>
<circle cx="716.0" cy="116.1" r="2" fill="#d62728"/>
<polygon points="506.0,68.4 552.7,88.8 599.3,96.6 622.7,94.8 646.0,98.5 669.3,104.4 692.7,109.7 716.0,113.8 716.0,114.0 692.7,110.1 669.3,105.7 646.0,99.0 622.7,97.1 599.3,99.3 552.7,91.0 506.0,73.8" fill="#2ca02c" opacity="0.11"/>
<polyline points="506.0,72.0 552.7,89.4 599.3,97.8 622.7,95.0 646.0,98.8 669.3,105.3 692.7,110.0 716.0,113.8" fill="none" stroke="#2ca02c" stroke-width="1.6"/>
<circle cx="506.0" cy="72.0" r="2" fill="#2ca02c"/>
<circle cx="552.7" cy="89.4" r="2" fill="#2ca02c"/>
<circle cx="599.3" cy="97.8" r="2" fill="#2ca02c"/>
<circle cx="622.7" cy="95.0" r="2" fill="#2ca02c"/>
<circle cx="646.0" cy="98.8" r="2" fill="#2ca02c"/>
<circle cx="669.3" cy="105.3" r="2" fill="#2ca02c"/>
<circle cx="692.7" cy="110.0" r="2" fill="#2ca02c"/>
<circle cx="716.0" cy="113.8" r="2" fill="#2ca02c"/>
<polygon points="506.0,84.6 552.7,95.0 599.3,105.4 622.7,108.4 646.0,111.9 669.3,119.6 692.7,125.3 716.0,127.7 716.0,128.9 692.7,125.8 669.3,120.0 646.0,112.4 622.7,109.9 599.3,106.2 552.7,96.3 506.0,88.1" fill="#1f77b4" opacity="0.11"/>
<polyline points="506.0,85.9 552.7,95.4 599.3,105.7 622.7,108.8 646.0,112.1 669.3,119.7 692.7,125.5 716.0,128.4" fill="none" stroke="#1f77b4" stroke-width="1.6"/>
<circle cx="506.0" cy="85.9" r="2" fill="#1f77b4"/>
<circle cx="552.7" cy="95.4" r="2" fill="#1f77b4"/>
<circle cx="599.3" cy="105.7" r="2" fill="#1f77b4"/>
<circle cx="622.7" cy="108.8" r="2" fill="#1f77b4"/>
<circle cx="646.0" cy="112.1" r="2" fill="#1f77b4"/>
<circle cx="669.3" cy="119.7" r="2" fill="#1f77b4"/>
<circle cx="692.7" cy="125.5" r="2" fill="#1f77b4"/>
<circle cx="716.0" cy="128.4" r="2" fill="#1f77b4"/>
<text x="611.0" y="55" text-anchor="middle" font-size="12" font-weight="bold">syrk</text>
<line x1="506.0" y1="60" x2="506.0" y2="198" stroke="#f4f4f4"/>
<text x="506.0" y="209" text-anchor="middle" font-size="8" fill="#999">8</text>
<line x1="552.7" y1="60" x2="552.7" y2="198" stroke="#f4f4f4"/>
<text x="552.7" y="209" text-anchor="middle" font-size="8" fill="#999">32</text>
<line x1="599.3" y1="60" x2="599.3" y2="198" stroke="#f4f4f4"/>
<text x="599.3" y="209" text-anchor="middle" font-size="8" fill="#999">128</text>
<line x1="622.7" y1="60" x2="622.7" y2="198" stroke="#f4f4f4"/>
<text x="622.7" y="209" text-anchor="middle" font-size="8" fill="#999">256</text>
<line x1="646.0" y1="60" x2="646.0" y2="198" stroke="#f4f4f4"/>
<text x="646.0" y="209" text-anchor="middle" font-size="8" fill="#999">512</text>
<line x1="669.3" y1="60" x2="669.3" y2="198" stroke="#f4f4f4"/>
<text x="669.3" y="209" text-anchor="middle" font-size="8" fill="#999">1k</text>
<line x1="692.7" y1="60" x2="692.7" y2="198" stroke="#f4f4f4"/>
<text x="692.7" y="209" text-anchor="middle" font-size="8" fill="#999">2k</text>
<line x1="716.0" y1="60" x2="716.0" y2="198" stroke="#f4f4f4"/>
<text x="716.0" y="209" text-anchor="middle" font-size="8" fill="#999">4k</text>
<rect x="736" y="60" width="210" height="138" fill="none" stroke="#e2e2e2"/>
<line x1="736" y1="126.98689599115632" x2="946" y2="126.98689599115632" stroke="#d33" stroke-dasharray="4 3"/>
<text x="732" y="201.0" text-anchor="end" font-size="9" fill="#999">0.5×</text>
<text x="732" y="129.9868959911563" text-anchor="end" font-size="9" fill="#999">1.0×</text>
<text x="732" y="63.156015648538194" text-anchor="end" font-size="9" fill="#999">1.92×</text>
<polygon points="736.0,67.9 782.7,92.9 829.3,129.2 852.7,128.9 876.0,125.5 899.3,124.2 922.7,123.9 946.0,121.4 946.0,122.2 922.7,124.4 899.3,124.4 876.0,126.6 852.7,129.7 829.3,139.1 782.7,107.8 736.0,71.1" fill="#d62728" opacity="0.11"/>
<polyline points="736.0,70.0 782.7,96.2 829.3,131.1 852.7,129.2 876.0,125.9 899.3,124.3 922.7,124.1 946.0,121.7" fill="none" stroke="#d62728" stroke-width="1.6"/>
<circle cx="736.0" cy="70.0" r="2" fill="#d62728"/>
<circle cx="782.7" cy="96.2" r="2" fill="#d62728"/>
<circle cx="829.3" cy="131.1" r="2" fill="#d62728"/>
<circle cx="852.7" cy="129.2" r="2" fill="#d62728"/>
<circle cx="876.0" cy="125.9" r="2" fill="#d62728"/>
<circle cx="899.3" cy="124.3" r="2" fill="#d62728"/>
<circle cx="922.7" cy="124.1" r="2" fill="#d62728"/>
<circle cx="946.0" cy="121.7" r="2" fill="#d62728"/>
<polygon points="736.0,74.7 782.7,90.4 829.3,82.7 852.7,90.5 876.0,106.1 899.3,114.2 922.7,118.6 946.0,119.8 946.0,120.2 922.7,118.8 899.3,116.1 876.0,106.9 852.7,91.7 829.3,85.7 782.7,93.6 736.0,92.1" fill="#2ca02c" opacity="0.11"/>
<polyline points="736.0,85.5 782.7,92.0 829.3,84.4 852.7,90.8 876.0,106.3 899.3,115.7 922.7,118.7 946.0,120.1" fill="none" stroke="#2ca02c" stroke-width="1.6"/>
<circle cx="736.0" cy="85.5" r="2" fill="#2ca02c"/>
<circle cx="782.7" cy="92.0" r="2" fill="#2ca02c"/>
<circle cx="829.3" cy="84.4" r="2" fill="#2ca02c"/>
<circle cx="852.7" cy="90.8" r="2" fill="#2ca02c"/>
<circle cx="876.0" cy="106.3" r="2" fill="#2ca02c"/>
<circle cx="899.3" cy="115.7" r="2" fill="#2ca02c"/>
<circle cx="922.7" cy="118.7" r="2" fill="#2ca02c"/>
<circle cx="946.0" cy="120.1" r="2" fill="#2ca02c"/>
<polygon points="736.0,87.1 782.7,99.4 829.3,102.2 852.7,106.4 876.0,120.3 899.3,127.2 922.7,129.8 946.0,129.9 946.0,130.8 922.7,130.4 899.3,127.5 876.0,120.7 852.7,109.2 829.3,103.7 782.7,100.7 736.0,101.7" fill="#1f77b4" opacity="0.11"/>
<polyline points="736.0,88.4 782.7,100.0 829.3,103.2 852.7,107.3 876.0,120.6 899.3,127.4 922.7,130.1 946.0,130.4" fill="none" stroke="#1f77b4" stroke-width="1.6"/>
<circle cx="736.0" cy="88.4" r="2" fill="#1f77b4"/>
<circle cx="782.7" cy="100.0" r="2" fill="#1f77b4"/>
<circle cx="829.3" cy="103.2" r="2" fill="#1f77b4"/>
<circle cx="852.7" cy="107.3" r="2" fill="#1f77b4"/>
<circle cx="876.0" cy="120.6" r="2" fill="#1f77b4"/>
<circle cx="899.3" cy="127.4" r="2" fill="#1f77b4"/>
<circle cx="922.7" cy="130.1" r="2" fill="#1f77b4"/>
<circle cx="946.0" cy="130.4" r="2" fill="#1f77b4"/>
<text x="841.0" y="55" text-anchor="middle" font-size="12" font-weight="bold">syr2k</text>
<line x1="736.0" y1="60" x2="736.0" y2="198" stroke="#f4f4f4"/>
<text x="736.0" y="209" text-anchor="middle" font-size="8" fill="#999">8</text>
<line x1="782.7" y1="60" x2="782.7" y2="198" stroke="#f4f4f4"/>
<text x="782.7" y="209" text-anchor="middle" font-size="8" fill="#999">32</text>
<line x1="829.3" y1="60" x2="829.3" y2="198" stroke="#f4f4f4"/>
<text x="829.3" y="209" text-anchor="middle" font-size="8" fill="#999">128</text>
<line x1="852.7" y1="60" x2="852.7" y2="198" stroke="#f4f4f4"/>
<text x="852.7" y="209" text-anchor="middle" font-size="8" fill="#999">256</text>
<line x1="876.0" y1="60" x2="876.0" y2="198" stroke="#f4f4f4"/>
<text x="876.0" y="209" text-anchor="middle" font-size="8" fill="#999">512</text>
<line x1="899.3" y1="60" x2="899.3" y2="198" stroke="#f4f4f4"/>
<text x="899.3" y="209" text-anchor="middle" font-size="8" fill="#999">1k</text>
<line x1="922.7" y1="60" x2="922.7" y2="198" stroke="#f4f4f4"/>
<text x="922.7" y="209" text-anchor="middle" font-size="8" fill="#999">2k</text>
<line x1="946.0" y1="60" x2="946.0" y2="198" stroke="#f4f4f4"/>
<text x="946.0" y="209" text-anchor="middle" font-size="8" fill="#999">4k</text>
<rect x="46" y="232" width="210" height="138" fill="none" stroke="#e2e2e2"/>
<line x1="46" y1="290.42520190004507" x2="256" y2="290.42520190004507" stroke="#d33" stroke-dasharray="4 3"/>
<text x="42" y="373.0" text-anchor="end" font-size="9" fill="#999">0.5×</text>
<text x="42" y="293.42520190004507" text-anchor="end" font-size="9" fill="#999">1.0×</text>
<text x="42" y="235.24144307786668" text-anchor="end" font-size="9" fill="#999">1.66×</text>
<polygon points="46.0,311.7 92.7,264.1 139.3,267.6 162.7,276.7 186.0,277.3 209.3,281.6 232.7,283.5 256.0,282.2 256.0,283.0 232.7,285.0 209.3,282.0 186.0,278.0 162.7,278.1 139.3,275.8 92.7,298.7 46.0,315.1" fill="#d62728" opacity="0.11"/>
<polyline points="46.0,312.9 92.7,279.3 139.3,273.0 162.7,277.6 186.0,277.7 209.3,281.7 232.7,283.9 256.0,282.4" fill="none" stroke="#d62728" stroke-width="1.6"/>
<circle cx="46.0" cy="312.9" r="2" fill="#d62728"/>
<circle cx="92.7" cy="279.3" r="2" fill="#d62728"/>
<circle cx="139.3" cy="273.0" r="2" fill="#d62728"/>
<circle cx="162.7" cy="277.6" r="2" fill="#d62728"/>
<circle cx="186.0" cy="277.7" r="2" fill="#d62728"/>
<circle cx="209.3" cy="281.7" r="2" fill="#d62728"/>
<circle cx="232.7" cy="283.9" r="2" fill="#d62728"/>
<circle cx="256.0" cy="282.4" r="2" fill="#d62728"/>
<polygon points="46.0,240.8 92.7,261.2 139.3,261.9 162.7,263.8 186.0,276.0 209.3,278.7 232.7,281.0 256.0,279.3 256.0,279.8 232.7,281.3 209.3,280.1 186.0,278.5 162.7,265.5 139.3,263.1 92.7,267.0 46.0,244.3" fill="#2ca02c" opacity="0.11"/>
<polyline points="46.0,242.0 92.7,263.7 139.3,262.4 162.7,264.9 186.0,277.3 209.3,279.6 232.7,281.2 256.0,279.5" fill="none" stroke="#2ca02c" stroke-width="1.6"/>
<circle cx="46.0" cy="242.0" r="2" fill="#2ca02c"/>
<circle cx="92.7" cy="263.7" r="2" fill="#2ca02c"/>
<circle cx="139.3" cy="262.4" r="2" fill="#2ca02c"/>
<circle cx="162.7" cy="264.9" r="2" fill="#2ca02c"/>
<circle cx="186.0" cy="277.3" r="2" fill="#2ca02c"/>
<circle cx="209.3" cy="279.6" r="2" fill="#2ca02c"/>
<circle cx="232.7" cy="281.2" r="2" fill="#2ca02c"/>
<circle cx="256.0" cy="279.5" r="2" fill="#2ca02c"/>
<polygon points="46.0,265.3 92.7,279.4 139.3,274.2 162.7,277.4 186.0,290.5 209.3,291.5 232.7,293.9 256.0,293.6 256.0,295.5 232.7,295.0 209.3,291.8 186.0,291.2 162.7,278.3 139.3,274.9 92.7,283.1 46.0,272.8" fill="#1f77b4" opacity="0.11"/>
<polyline points="46.0,271.4 92.7,280.4 139.3,274.6 162.7,277.7 186.0,290.8 209.3,291.7 232.7,294.2 256.0,294.6" fill="none" stroke="#1f77b4" stroke-width="1.6"/>
<circle cx="46.0" cy="271.4" r="2" fill="#1f77b4"/>
<circle cx="92.7" cy="280.4" r="2" fill="#1f77b4"/>
<circle cx="139.3" cy="274.6" r="2" fill="#1f77b4"/>
<circle cx="162.7" cy="277.7" r="2" fill="#1f77b4"/>
<circle cx="186.0" cy="290.8" r="2" fill="#1f77b4"/>
<circle cx="209.3" cy="291.7" r="2" fill="#1f77b4"/>
<circle cx="232.7" cy="294.2" r="2" fill="#1f77b4"/>
<circle cx="256.0" cy="294.6" r="2" fill="#1f77b4"/>
<text x="151.0" y="227" text-anchor="middle" font-size="12" font-weight="bold">trmm</text>
<line x1="46.0" y1="232" x2="46.0" y2="370" stroke="#f4f4f4"/>
<text x="46.0" y="381" text-anchor="middle" font-size="8" fill="#999">8</text>
<line x1="92.7" y1="232" x2="92.7" y2="370" stroke="#f4f4f4"/>
<text x="92.7" y="381" text-anchor="middle" font-size="8" fill="#999">32</text>
<line x1="139.3" y1="232" x2="139.3" y2="370" stroke="#f4f4f4"/>
<text x="139.3" y="381" text-anchor="middle" font-size="8" fill="#999">128</text>
<line x1="162.7" y1="232" x2="162.7" y2="370" stroke="#f4f4f4"/>
<text x="162.7" y="381" text-anchor="middle" font-size="8" fill="#999">256</text>
<line x1="186.0" y1="232" x2="186.0" y2="370" stroke="#f4f4f4"/>
<text x="186.0" y="381" text-anchor="middle" font-size="8" fill="#999">512</text>
<line x1="209.3" y1="232" x2="209.3" y2="370" stroke="#f4f4f4"/>
<text x="209.3" y="381" text-anchor="middle" font-size="8" fill="#999">1k</text>
<line x1="232.7" y1="232" x2="232.7" y2="370" stroke="#f4f4f4"/>
<text x="232.7" y="381" text-anchor="middle" font-size="8" fill="#999">2k</text>
<line x1="256.0" y1="232" x2="256.0" y2="370" stroke="#f4f4f4"/>
<text x="256.0" y="381" text-anchor="middle" font-size="8" fill="#999">4k</text>
<rect x="276" y="232" width="210" height="138" fill="none" stroke="#e2e2e2"/>
<line x1="276" y1="312.08629154363604" x2="486" y2="312.08629154363604" stroke="#d33" stroke-dasharray="4 3"/>
<text x="272" y="373.0" text-anchor="end" font-size="9" fill="#999">0.5×</text>
<text x="272" y="315.08629154363604" text-anchor="end" font-size="9" fill="#999">1.0×</text>
<polygon points="276.0,303.6 322.7,266.8 369.3,312.0 392.7,314.5 416.0,307.5 439.3,307.3 462.7,305.0 486.0,304.8 486.0,315.1 462.7,306.0 439.3,308.3 416.0,309.7 392.7,315.1 369.3,316.7 322.7,272.8 276.0,305.7" fill="#d62728" opacity="0.11"/>
<polyline points="276.0,304.8 322.7,268.6 369.3,312.7 392.7,314.7 416.0,308.5 439.3,307.9 462.7,305.3 486.0,312.6" fill="none" stroke="#d62728" stroke-width="1.6"/>
<circle cx="276.0" cy="304.8" r="2" fill="#d62728"/>
<circle cx="322.7" cy="268.6" r="2" fill="#d62728"/>
<circle cx="369.3" cy="312.7" r="2" fill="#d62728"/>
<circle cx="392.7" cy="314.7" r="2" fill="#d62728"/>
<circle cx="416.0" cy="308.5" r="2" fill="#d62728"/>
<circle cx="439.3" cy="307.9" r="2" fill="#d62728"/>
<circle cx="462.7" cy="305.3" r="2" fill="#d62728"/>
<circle cx="486.0" cy="312.6" r="2" fill="#d62728"/>
<polygon points="276.0,263.0 322.7,238.4 369.3,251.9 392.7,257.0 416.0,281.7 439.3,290.9 462.7,297.0 486.0,297.1 486.0,304.8 462.7,297.5 439.3,291.5 416.0,282.1 392.7,259.3 369.3,255.1 322.7,242.8 276.0,270.3" fill="#2ca02c" opacity="0.11"/>
<polyline points="276.0,265.4 322.7,239.8 369.3,252.6 392.7,257.7 416.0,281.9 439.3,291.2 462.7,297.2 486.0,298.2" fill="none" stroke="#2ca02c" stroke-width="1.6"/>
<circle cx="276.0" cy="265.4" r="2" fill="#2ca02c"/>
<circle cx="322.7" cy="239.8" r="2" fill="#2ca02c"/>
<circle cx="369.3" cy="252.6" r="2" fill="#2ca02c"/>
<circle cx="392.7" cy="257.7" r="2" fill="#2ca02c"/>
<circle cx="416.0" cy="281.9" r="2" fill="#2ca02c"/>
<circle cx="439.3" cy="291.2" r="2" fill="#2ca02c"/>
<circle cx="462.7" cy="297.2" r="2" fill="#2ca02c"/>
<circle cx="486.0" cy="298.2" r="2" fill="#2ca02c"/>
<polygon points="276.0,276.2 322.7,259.0 369.3,249.7 392.7,254.2 416.0,285.5 439.3,296.3 462.7,307.3 486.0,307.3 486.0,321.7 462.7,310.4 439.3,296.9 416.0,286.9 392.7,255.9 369.3,252.1 322.7,263.2 276.0,284.3" fill="#1f77b4" opacity="0.11"/>
<polyline points="276.0,279.1 322.7,260.0 369.3,251.5 392.7,255.1 416.0,286.0 439.3,296.6 462.7,309.2 486.0,309.8" fill="none" stroke="#1f77b4" stroke-width="1.6"/>
<circle cx="276.0" cy="279.1" r="2" fill="#1f77b4"/>
<circle cx="322.7" cy="260.0" r="2" fill="#1f77b4"/>
<circle cx="369.3" cy="251.5" r="2" fill="#1f77b4"/>
<circle cx="392.7" cy="255.1" r="2" fill="#1f77b4"/>
<circle cx="416.0" cy="286.0" r="2" fill="#1f77b4"/>
<circle cx="439.3" cy="296.6" r="2" fill="#1f77b4"/>
<circle cx="462.7" cy="309.2" r="2" fill="#1f77b4"/>
<circle cx="486.0" cy="309.8" r="2" fill="#1f77b4"/>
<text x="381.0" y="227" text-anchor="middle" font-size="12" font-weight="bold">trsm</text>
<line x1="276.0" y1="232" x2="276.0" y2="370" stroke="#f4f4f4"/>
<text x="276.0" y="381" text-anchor="middle" font-size="8" fill="#999">8</text>
<line x1="322.7" y1="232" x2="322.7" y2="370" stroke="#f4f4f4"/>
<text x="322.7" y="381" text-anchor="middle" font-size="8" fill="#999">32</text>
<line x1="369.3" y1="232" x2="369.3" y2="370" stroke="#f4f4f4"/>
<text x="369.3" y="381" text-anchor="middle" font-size="8" fill="#999">128</text>
<line x1="392.7" y1="232" x2="392.7" y2="370" stroke="#f4f4f4"/>
<text x="392.7" y="381" text-anchor="middle" font-size="8" fill="#999">256</text>
<line x1="416.0" y1="232" x2="416.0" y2="370" stroke="#f4f4f4"/>
<text x="416.0" y="381" text-anchor="middle" font-size="8" fill="#999">512</text>
<line x1="439.3" y1="232" x2="439.3" y2="370" stroke="#f4f4f4"/>
<text x="439.3" y="381" text-anchor="middle" font-size="8" fill="#999">1k</text>
<line x1="462.7" y1="232" x2="462.7" y2="370" stroke="#f4f4f4"/>
<text x="462.7" y="381" text-anchor="middle" font-size="8" fill="#999">2k</text>
<line x1="486.0" y1="232" x2="486.0" y2="370" stroke="#f4f4f4"/>
<text x="486.0" y="381" text-anchor="middle" font-size="8" fill="#999">4k</text>
<rect x="506" y="232" width="210" height="138" fill="none" stroke="#e2e2e2"/>
<line x1="506" y1="315.09086134007856" x2="716" y2="315.09086134007856" stroke="#d33" stroke-dasharray="4 3"/>
<text x="502" y="373.0" text-anchor="end" font-size="9" fill="#999">0.5×</text>
<text x="502" y="318.09086134007856" text-anchor="end" font-size="9" fill="#999">1.0×</text>
<text x="502" y="235.1252438046159" text-anchor="end" font-size="9" fill="#999">2.85×</text>
<polygon points="506.0,279.8 552.7,287.1 599.3,312.2 622.7,307.7 646.0,322.7 669.3,317.5 692.7,313.5 716.0,311.7 716.0,314.5 692.7,314.3 669.3,317.6 646.0,322.9 622.7,308.5 599.3,313.8 552.7,291.7 506.0,281.9" fill="#d62728" opacity="0.11"/>
<polyline points="506.0,280.3 552.7,289.4 599.3,313.3 622.7,308.0 646.0,322.8 669.3,317.5 692.7,313.6 716.0,312.3" fill="none" stroke="#d62728" stroke-width="1.6"/>
<circle cx="506.0" cy="280.3" r="2" fill="#d62728"/>
<circle cx="552.7" cy="289.4" r="2" fill="#d62728"/>
<circle cx="599.3" cy="313.3" r="2" fill="#d62728"/>
<circle cx="622.7" cy="308.0" r="2" fill="#d62728"/>
<circle cx="646.0" cy="322.8" r="2" fill="#d62728"/>
<circle cx="669.3" cy="317.5" r="2" fill="#d62728"/>
<circle cx="692.7" cy="313.6" r="2" fill="#d62728"/>
<circle cx="716.0" cy="312.3" r="2" fill="#d62728"/>
<polygon points="506.0,238.1 552.7,251.1 599.3,260.5 622.7,264.7 646.0,288.4 669.3,295.5 692.7,300.7 716.0,303.6 716.0,304.0 692.7,301.0 669.3,295.9 646.0,288.8 622.7,265.6 599.3,262.5 552.7,256.5 506.0,244.4" fill="#2ca02c" opacity="0.11"/>
<polyline points="506.0,239.9 552.7,252.2 599.3,261.1 622.7,265.2 646.0,288.6 669.3,295.7 692.7,300.8 716.0,303.7" fill="none" stroke="#2ca02c" stroke-width="1.6"/>
<circle cx="506.0" cy="239.9" r="2" fill="#2ca02c"/>
<circle cx="552.7" cy="252.2" r="2" fill="#2ca02c"/>
<circle cx="599.3" cy="261.1" r="2" fill="#2ca02c"/>
<circle cx="622.7" cy="265.2" r="2" fill="#2ca02c"/>
<circle cx="646.0" cy="288.6" r="2" fill="#2ca02c"/>
<circle cx="669.3" cy="295.7" r="2" fill="#2ca02c"/>
<circle cx="692.7" cy="300.8" r="2" fill="#2ca02c"/>
<circle cx="716.0" cy="303.7" r="2" fill="#2ca02c"/>
<polygon points="506.0,246.5 552.7,246.2 599.3,256.4 622.7,260.8 646.0,285.5 669.3,298.5 692.7,307.8 716.0,312.0 716.0,313.5 692.7,309.2 669.3,299.5 646.0,289.0 622.7,262.5 599.3,259.0 552.7,253.9 506.0,250.7" fill="#1f77b4" opacity="0.11"/>
<polyline points="506.0,247.9 552.7,247.6 599.3,257.2 622.7,261.8 646.0,286.9 669.3,298.9 692.7,308.9 716.0,312.9" fill="none" stroke="#1f77b4" stroke-width="1.6"/>
<circle cx="506.0" cy="247.9" r="2" fill="#1f77b4"/>
<circle cx="552.7" cy="247.6" r="2" fill="#1f77b4"/>
<circle cx="599.3" cy="257.2" r="2" fill="#1f77b4"/>
<circle cx="622.7" cy="261.8" r="2" fill="#1f77b4"/>
<circle cx="646.0" cy="286.9" r="2" fill="#1f77b4"/>
<circle cx="669.3" cy="298.9" r="2" fill="#1f77b4"/>
<circle cx="692.7" cy="308.9" r="2" fill="#1f77b4"/>
<circle cx="716.0" cy="312.9" r="2" fill="#1f77b4"/>
<text x="611.0" y="227" text-anchor="middle" font-size="12" font-weight="bold">trsmR</text>
<line x1="506.0" y1="232" x2="506.0" y2="370" stroke="#f4f4f4"/>
<text x="506.0" y="381" text-anchor="middle" font-size="8" fill="#999">8</text>
<line x1="552.7" y1="232" x2="552.7" y2="370" stroke="#f4f4f4"/>
<text x="552.7" y="381" text-anchor="middle" font-size="8" fill="#999">32</text>
<line x1="599.3" y1="232" x2="599.3" y2="370" stroke="#f4f4f4"/>
<text x="599.3" y="381" text-anchor="middle" font-size="8" fill="#999">128</text>
<line x1="622.7" y1="232" x2="622.7" y2="370" stroke="#f4f4f4"/>
<text x="622.7" y="381" text-anchor="middle" font-size="8" fill="#999">256</text>
<line x1="646.0" y1="232" x2="646.0" y2="370" stroke="#f4f4f4"/>
<text x="646.0" y="381" text-anchor="middle" font-size="8" fill="#999">512</text>
<line x1="669.3" y1="232" x2="669.3" y2="370" stroke="#f4f4f4"/>
<text x="669.3" y="381" text-anchor="middle" font-size="8" fill="#999">1k</text>
<line x1="692.7" y1="232" x2="692.7" y2="370" stroke="#f4f4f4"/>
<text x="692.7" y="381" text-anchor="middle" font-size="8" fill="#999">2k</text>
<line x1="716.0" y1="232" x2="716.0" y2="370" stroke="#f4f4f4"/>
<text x="716.0" y="381" text-anchor="middle" font-size="8" fill="#999">4k</text>
</svg>
