<svg xmlns="http://www.w3.org/2000/svg" width="900" height="440" font-family="sans-serif">
<rect width="900" height="440" fill="white"/>
<text x="450.0" y="28" text-anchor="middle" font-size="18" font-weight="bold">BLAS-1: PureBLAS / OpenBLAS (AVX-512, 1 thread, Float64)</text>
<line x1="60" y1="358.0" x2="880" y2="358.0" stroke="#eee"/>
<text x="52" y="362.0" text-anchor="end" font-size="11" fill="#666">0×</text>
<line x1="60" y1="347.1771016617446" x2="880" y2="347.1771016617446" stroke="#eee"/>
<text x="52" y="351.1771016617446" text-anchor="end" font-size="11" fill="#666">0.5×</text>
<line x1="60" y1="336.3542033234891" x2="880" y2="336.3542033234891" stroke="#eee"/>
<text x="52" y="340.3542033234891" text-anchor="end" font-size="11" fill="#666">1×</text>
<line x1="60" y1="325.53130498523365" x2="880" y2="325.53130498523365" stroke="#eee"/>
<text x="52" y="329.53130498523365" text-anchor="end" font-size="11" fill="#666">1.5×</text>
<line x1="60" y1="336.3542033234891" x2="880" y2="336.3542033234891" stroke="#888" stroke-width="1"/>
<line x1="60" y1="337.22003519054954" x2="880" y2="337.22003519054954" stroke="#d33" stroke-width="1.5" stroke-dasharray="6 4"/>
<text x="880" y="332.22003519054954" text-anchor="end" font-size="11" fill="#d33">0.96× gate</text>
<polygon points="128.6,342.6 128.7,342.4 128.9,342.2 129.1,342.0 129.3,341.9 129.6,341.7 130.0,341.5 130.5,341.3 131.1,341.1 131.9,340.9 132.7,340.7 133.7,340.5 134.9,340.3 136.0,340.1 137.2,339.9 138.4,339.7 139.6,339.5 140.8,339.3 142.0,339.1 143.3,338.9 144.7,338.8 146.5,338.6 148.5,338.4 151.1,338.2 154.1,338.0 157.7,337.8 161.8,337.6 166.4,337.4 171.1,337.2 175.7,337.0 179.7,336.8 182.9,336.6 184.9,336.4 185.7,336.2 185.3,336.0 183.7,335.9 181.4,335.7 178.4,335.5 175.2,335.3 171.9,335.1 168.7,334.9 165.6,334.7 162.7,334.5 160.0,334.3 157.6,334.1 155.5,333.9 153.5,333.7 151.7,333.5 150.1,333.3 148.5,333.1 146.9,332.9 145.3,332.8 143.7,332.6 142.1,332.4 140.5,332.2 139.1,332.0 137.8,331.8 136.6,331.6 135.7,331.4 134.9,331.2 134.2,331.0 133.6,330.8 133.1,330.6 132.6,330.4 132.0,330.2 131.5,330.0 130.9,329.9 130.4,329.7 129.9,329.5 129.5,329.3 129.1,329.1 128.9,328.9 127.8,328.9 127.5,329.1 127.2,329.3 126.8,329.5 126.3,329.7 125.7,329.9 125.2,330.0 124.6,330.2 124.1,330.4 123.6,330.6 123.0,330.8 122.5,331.0 121.8,331.2 121.0,331.4 120.0,331.6 118.9,331.8 117.6,332.0 116.1,332.2 114.6,332.4 113.0,332.6 111.4,332.8 109.8,332.9 108.2,333.1 106.6,333.3 105.0,333.5 103.2,333.7 101.2,333.9 99.0,334.1 96.6,334.3 94.0,334.5 91.1,334.7 88.0,334.9 84.8,335.1 81.5,335.3 78.2,335.5 75.3,335.7 72.9,335.9 71.4,336.0 70.9,336.2 71.7,336.4 73.8,336.6 77.0,336.8 81.0,337.0 85.6,337.2 90.3,337.4 94.8,337.6 99.0,337.8 102.6,338.0 105.6,338.2 108.1,338.4 110.2,338.6 111.9,338.8 113.4,338.9 114.7,339.1 115.9,339.3 117.1,339.5 118.2,339.7 119.4,339.9 120.6,340.1 121.8,340.3 122.9,340.5 123.9,340.7 124.8,340.9 125.5,341.1 126.1,341.3 126.6,341.5 127.0,341.7 127.3,341.9 127.6,342.0 127.8,342.2 128.0,342.4 128.1,342.6" fill="#2a8" opacity="0.5" stroke="#2a8" stroke-width="1"/>
<line x1="71.3" y1="336.0633031280975" x2="185.4" y2="336.0633031280975" stroke="#114" stroke-width="2"/>
<circle cx="128.33333333333331" cy="336.7596850810938" r="2.4" fill="#114"/>
<text x="128.33333333333331" y="324.24847261757475" text-anchor="middle" font-size="11">1.01</text>
<text x="128.33333333333331" y="376" text-anchor="middle" font-size="12">axpy</text>
<polygon points="265.1,341.2 265.2,341.0 265.3,340.8 265.6,340.6 265.9,340.4 266.5,340.1 267.1,339.9 268.0,339.7 269.0,339.5 270.2,339.3 271.6,339.1 273.3,338.8 275.3,338.6 277.7,338.4 280.7,338.2 284.6,338.0 289.3,337.8 295.1,337.5 301.6,337.3 308.4,337.1 314.6,336.9 319.4,336.7 322.2,336.5 322.4,336.2 320.2,336.0 316.0,335.8 310.6,335.6 304.6,335.4 298.8,335.2 293.4,335.0 288.8,334.7 284.9,334.5 281.7,334.3 279.1,334.1 276.9,333.9 275.1,333.7 273.7,333.4 272.6,333.2 271.7,333.0 270.9,332.8 270.2,332.6 269.5,332.4 268.7,332.1 267.9,331.9 267.1,331.7 266.4,331.5 265.9,331.3 265.5,331.1 265.3,330.8 265.1,330.6 265.1,330.4 265.0,330.2 265.0,330.0 265.0,329.8 265.0,329.5 265.1,329.3 265.2,329.1 265.3,328.9 265.5,328.7 265.7,328.5 266.0,328.3 266.3,328.0 266.4,327.8 266.5,327.6 266.4,327.4 266.2,327.2 265.9,327.0 265.7,326.7 265.4,326.5 265.3,326.3 265.1,326.1 265.1,325.9 264.9,325.9 264.9,326.1 264.7,326.3 264.6,326.5 264.3,326.7 264.1,327.0 263.8,327.2 263.6,327.4 263.5,327.6 263.6,327.8 263.7,328.0 264.0,328.3 264.3,328.5 264.5,328.7 264.7,328.9 264.8,329.1 264.9,329.3 265.0,329.5 265.0,329.8 265.0,330.0 265.0,330.2 264.9,330.4 264.9,330.6 264.7,330.8 264.5,331.1 264.1,331.3 263.6,331.5 262.9,331.7 262.1,331.9 261.3,332.1 260.5,332.4 259.8,332.6 259.1,332.8 258.3,333.0 257.4,333.2 256.3,333.4 254.9,333.7 253.1,333.9 250.9,334.1 248.3,334.3 245.1,334.5 241.2,334.7 236.6,335.0 231.2,335.2 225.4,335.4 219.4,335.6 214.0,335.8 209.8,336.0 207.6,336.2 207.8,336.5 210.6,336.7 215.4,336.9 221.6,337.1 228.4,337.3 234.9,337.5 240.7,337.8 245.4,338.0 249.3,338.2 252.3,338.4 254.7,338.6 256.7,338.8 258.4,339.1 259.8,339.3 261.0,339.5 262.0,339.7 262.9,339.9 263.5,340.1 264.1,340.4 264.4,340.6 264.7,340.8 264.8,341.0 264.9,341.2" fill="#2a8" opacity="0.5" stroke="#2a8" stroke-width="1"/>
<line x1="207.6" y1="336.2429977911957" x2="322.4" y2="336.2429977911957" stroke="#114" stroke-width="2"/>
<circle cx="265.0" cy="336.5093824086534" r="2.4" fill="#114"/>
<text x="265.0" y="321.39396133327" text-anchor="middle" font-size="11">1.01</text>
<text x="265.0" y="376" text-anchor="middle" font-size="12">dot</text>
<polygon points="405.7,329.7 407.4,325.7 409.7,321.8 412.6,317.9 416.2,313.9 420.2,310.0 424.8,306.0 429.7,302.1 434.7,298.2 439.7,294.2 444.3,290.3 448.5,286.3 452.0,282.4 454.7,278.5 456.8,274.5 458.1,270.6 458.9,266.6 459.1,262.7 458.8,258.8 458.2,254.8 457.3,250.9 456.1,247.0 454.5,243.0 452.8,239.1 450.7,235.1 448.4,231.2 446.0,227.3 443.4,223.3 440.7,219.4 437.9,215.4 435.1,211.5 432.5,207.6 429.9,203.6 427.4,199.7 425.2,195.7 423.1,191.8 421.2,187.9 419.5,183.9 417.9,180.0 416.4,176.0 415.1,172.1 413.8,168.2 412.6,164.2 411.5,160.3 410.4,156.4 409.4,152.4 408.5,148.5 407.7,144.5 407.0,140.6 406.4,136.7 406.0,132.7 405.7,128.8 405.6,124.8 405.6,120.9 405.8,117.0 406.1,113.0 406.5,109.1 406.9,105.1 407.4,101.2 407.8,97.3 408.1,93.3 408.3,89.4 408.4,85.5 408.3,81.5 408.0,77.6 407.6,73.6 407.1,69.7 406.5,65.8 405.8,61.8 405.1,57.9 404.4,53.9 403.9,50.0 399.5,50.0 398.9,53.9 398.2,57.9 397.5,61.8 396.9,65.8 396.2,69.7 395.7,73.6 395.3,77.6 395.0,81.5 394.9,85.5 395.0,89.4 395.2,93.3 395.5,97.3 396.0,101.2 396.4,105.1 396.9,109.1 397.2,113.0 397.5,117.0 397.7,120.9 397.7,124.8 397.6,128.8 397.3,132.7 396.9,136.7 396.3,140.6 395.6,144.5 394.8,148.5 393.9,152.4 392.9,156.4 391.8,160.3 390.7,164.2 389.5,168.2 388.2,172.1 386.9,176.0 385.4,180.0 383.9,183.9 382.2,187.9 380.3,191.8 378.2,195.7 375.9,199.7 373.5,203.6 370.9,207.6 368.2,211.5 365.4,215.4 362.7,219.4 360.0,223.3 357.4,227.3 354.9,231.2 352.6,235.1 350.6,239.1 348.8,243.0 347.3,247.0 346.0,250.9 345.1,254.8 344.5,258.8 344.3,262.7 344.5,266.6 345.2,270.6 346.5,274.5 348.6,278.5 351.4,282.4 354.9,286.3 359.0,290.3 363.6,294.2 368.6,298.2 373.6,302.1 378.5,306.0 383.1,310.0 387.2,313.9 390.7,317.9 393.6,321.8 395.9,325.7 397.7,329.7" fill="#2a8" opacity="0.5" stroke="#2a8" stroke-width="1"/>
<line x1="347.5" y1="246.3891397746082" x2="455.9" y2="246.3891397746082" stroke="#114" stroke-width="2"/>
<circle cx="401.66666666666663" cy="284.3565454098766" r="2.4" fill="#114"/>
<text x="401.66666666666663" y="61.433962264150935" text-anchor="middle" font-size="11">5.16</text>
<text x="401.66666666666663" y="376" text-anchor="middle" font-size="12">nrm2</text>
<polygon points="538.4,342.6 538.5,342.3 538.7,342.0 538.9,341.6 539.2,341.3 539.6,341.0 540.1,340.7 540.8,340.4 541.8,340.1 543.1,339.7 545.0,339.4 547.4,339.1 550.7,338.8 555.1,338.5 560.6,338.2 567.3,337.8 574.7,337.5 582.2,337.2 588.8,336.9 593.5,336.6 595.7,336.3 595.2,335.9 592.5,335.6 588.3,335.3 583.5,335.0 578.8,334.7 574.6,334.4 571.0,334.0 567.8,333.7 564.8,333.4 561.8,333.1 558.8,332.8 555.9,332.5 553.2,332.1 550.8,331.8 548.7,331.5 547.0,331.2 545.7,330.9 544.7,330.6 544.0,330.2 543.4,329.9 542.8,329.6 542.4,329.3 542.0,329.0 541.6,328.7 541.5,328.3 541.4,328.0 541.4,327.7 541.5,327.4 541.6,327.1 541.7,326.8 541.5,326.4 541.3,326.1 540.9,325.8 540.4,325.5 539.9,325.2 539.5,324.9 539.1,324.5 538.9,324.2 538.8,323.9 538.8,323.6 538.9,323.3 539.0,323.0 539.1,322.6 539.1,322.3 539.1,322.0 539.0,321.7 538.9,321.4 538.7,321.1 538.6,320.7 538.5,320.4 538.4,320.1 538.2,320.1 538.2,320.4 538.1,320.7 537.9,321.1 537.8,321.4 537.7,321.7 537.6,322.0 537.6,322.3 537.6,322.6 537.7,323.0 537.8,323.3 537.8,323.6 537.8,323.9 537.7,324.2 537.5,324.5 537.2,324.9 536.7,325.2 536.3,325.5 535.8,325.8 535.4,326.1 535.1,326.4 535.0,326.8 535.0,327.1 535.1,327.4 535.2,327.7 535.3,328.0 535.2,328.3 535.0,328.7 534.7,329.0 534.3,329.3 533.8,329.6 533.3,329.9 532.7,330.2 531.9,330.6 530.9,330.9 529.7,331.2 528.0,331.5 525.9,331.8 523.5,332.1 520.7,332.5 517.8,332.8 514.9,333.1 511.9,333.4 508.9,333.7 505.7,334.0 502.0,334.4 497.9,334.7 493.2,335.0 488.4,335.3 484.2,335.6 481.4,335.9 480.9,336.3 483.1,336.6 487.8,336.9 494.4,337.2 501.9,337.5 509.4,337.8 516.1,338.2 521.6,338.5 526.0,338.8 529.3,339.1 531.7,339.4 533.5,339.7 534.9,340.1 535.8,340.4 536.6,340.7 537.1,341.0 537.5,341.3 537.8,341.6 538.0,342.0 538.1,342.3 538.2,342.6" fill="#2a8" opacity="0.5" stroke="#2a8" stroke-width="1"/>
<line x1="481.8" y1="335.88325637827995" x2="594.9" y2="335.88325637827995" stroke="#114" stroke-width="2"/>
<circle cx="538.3333333333333" cy="336.55555633485983" r="2.4" fill="#114"/>
<text x="538.3333333333333" y="316.3159770371301" text-anchor="middle" font-size="11">1.02</text>
<text x="538.3333333333333" y="376" text-anchor="middle" font-size="12">asum</text>
<polygon points="675.5,337.4 675.9,337.2 676.5,337.0 677.4,336.9 678.5,336.7 679.9,336.5 681.5,336.4 683.3,336.2 685.3,336.0 687.7,335.9 690.7,335.7 694.5,335.5 699.2,335.4 704.8,335.2 711.1,335.0 717.6,334.9 723.5,334.7 728.3,334.5 731.3,334.4 732.4,334.2 731.5,334.0 729.0,333.9 725.2,333.7 720.8,333.5 716.1,333.4 711.8,333.2 708.0,333.1 705.1,332.9 703.0,332.7 701.7,332.6 701.1,332.4 700.6,332.2 700.1,332.1 699.2,331.9 697.8,331.7 695.7,331.6 693.2,331.4 690.5,331.2 687.7,331.1 685.1,330.9 682.8,330.7 680.9,330.6 679.4,330.4 678.3,330.2 677.5,330.1 677.0,329.9 676.6,329.7 676.4,329.6 676.3,329.4 676.2,329.2 676.2,329.1 676.1,328.9 676.1,328.7 675.9,328.6 675.8,328.4 675.7,328.3 675.5,328.1 675.4,327.9 675.4,327.8 675.4,327.6 675.5,327.4 675.7,327.3 675.8,327.1 675.9,326.9 675.9,326.8 675.8,326.6 675.7,326.4 675.6,326.3 675.4,326.1 675.3,325.9 675.2,325.8 675.1,325.6 674.9,325.6 674.8,325.8 674.7,325.9 674.6,326.1 674.4,326.3 674.3,326.4 674.2,326.6 674.1,326.8 674.1,326.9 674.2,327.1 674.3,327.3 674.5,327.4 674.6,327.6 674.6,327.8 674.6,327.9 674.5,328.1 674.3,328.3 674.2,328.4 674.1,328.6 673.9,328.7 673.9,328.9 673.8,329.1 673.8,329.2 673.7,329.4 673.6,329.6 673.4,329.7 673.0,329.9 672.5,330.1 671.7,330.2 670.6,330.4 669.1,330.6 667.2,330.7 664.9,330.9 662.3,331.1 659.5,331.2 656.8,331.4 654.3,331.6 652.2,331.7 650.8,331.9 649.9,332.1 649.4,332.2 648.9,332.4 648.3,332.6 647.0,332.7 644.9,332.9 642.0,333.1 638.2,333.2 633.9,333.4 629.2,333.5 624.8,333.7 621.0,333.9 618.5,334.0 617.6,334.2 618.7,334.4 621.7,334.5 626.5,334.7 632.4,334.9 638.9,335.0 645.2,335.2 650.8,335.4 655.5,335.5 659.3,335.7 662.3,335.9 664.7,336.0 666.7,336.2 668.5,336.4 670.1,336.5 671.5,336.7 672.6,336.9 673.5,337.0 674.1,337.2 674.5,337.4" fill="#2a8" opacity="0.5" stroke="#2a8" stroke-width="1"/>
<line x1="620.3" y1="333.9186108717448" x2="729.7" y2="333.9186108717448" stroke="#114" stroke-width="2"/>
<circle cx="675.0" cy="334.5889112826491" r="2.4" fill="#114"/>
<text x="675.0" y="320.7786933140359" text-anchor="middle" font-size="11">1.11</text>
<text x="675.0" y="376" text-anchor="middle" font-size="12">scal</text>
<polygon points="816.6,344.4 817.9,343.9 819.4,343.5 821.2,343.1 823.0,342.6 825.0,342.2 827.1,341.8 829.1,341.3 831.2,340.9 833.3,340.5 835.3,340.1 837.3,339.6 839.1,339.2 840.8,338.8 842.4,338.3 843.9,337.9 845.1,337.5 846.2,337.0 847.0,336.6 847.6,336.2 848.1,335.7 848.3,335.3 848.5,334.9 848.7,334.4 848.8,334.0 849.1,333.6 849.4,333.2 850.0,332.7 850.7,332.3 851.5,331.9 852.6,331.4 853.7,331.0 855.0,330.6 856.4,330.1 857.8,329.7 859.2,329.3 860.6,328.8 862.0,328.4 863.3,328.0 864.5,327.5 865.6,327.1 866.7,326.7 867.5,326.2 868.2,325.8 868.8,325.4 869.0,325.0 869.1,324.5 868.8,324.1 868.2,323.7 867.3,323.2 866.0,322.8 864.4,322.4 862.4,321.9 860.1,321.5 857.4,321.1 854.5,320.6 851.4,320.2 848.2,319.8 844.8,319.3 841.4,318.9 838.0,318.5 834.8,318.0 831.6,317.6 828.7,317.2 826.0,316.8 823.6,316.3 821.4,315.9 819.6,315.5 817.9,315.0 816.6,314.6 815.4,314.2 814.5,313.7 808.8,313.7 807.9,314.2 806.8,314.6 805.4,315.0 803.8,315.5 801.9,315.9 799.7,316.3 797.3,316.8 794.6,317.2 791.7,317.6 788.6,318.0 785.3,318.5 781.9,318.9 778.5,319.3 775.2,319.8 771.9,320.2 768.8,320.6 765.9,321.1 763.3,321.5 761.0,321.9 759.0,322.4 757.3,322.8 756.0,323.2 755.1,323.7 754.5,324.1 754.3,324.5 754.3,325.0 754.6,325.4 755.1,325.8 755.8,326.2 756.7,326.7 757.7,327.1 758.8,327.5 760.1,328.0 761.4,328.4 762.8,328.8 764.2,329.3 765.6,329.7 767.0,330.1 768.3,330.6 769.6,331.0 770.8,331.4 771.8,331.9 772.7,332.3 773.4,332.7 773.9,333.2 774.3,333.6 774.5,334.0 774.7,334.4 774.8,334.9 775.0,335.3 775.3,335.7 775.7,336.2 776.3,336.6 777.2,337.0 778.2,337.5 779.5,337.9 780.9,338.3 782.5,338.8 784.2,339.2 786.1,339.6 788.0,340.1 790.0,340.5 792.1,340.9 794.2,341.3 796.3,341.8 798.3,342.2 800.3,342.6 802.2,343.1 803.9,343.5 805.4,343.9 806.8,344.4" fill="#2a8" opacity="0.5" stroke="#2a8" stroke-width="1"/>
<line x1="759.2" y1="327.6676656120328" x2="864.2" y2="327.6676656120328" stroke="#114" stroke-width="2"/>
<circle cx="811.6666666666666" cy="333.5715992649501" r="2.4" fill="#114"/>
<text x="811.6666666666666" y="310.7319890711882" text-anchor="middle" font-size="11">1.40</text>
<text x="811.6666666666666" y="376" text-anchor="middle" font-size="12">iamax</text>
<text x="450.0" y="428" text-anchor="middle" font-size="11" fill="#666">violin = ratio distribution over sizes · line = median · dark dot = worst size · green = every size ≥ gate</text>
</svg>
