<svg xmlns="http://www.w3.org/2000/svg" width="962" height="592" font-family="sans-serif">
<rect width="962" height="592" fill="white"/>
<text x="481.0" y="26" text-anchor="middle" font-size="17" font-weight="bold">BLAS-2 — PureBLAS / OpenBLAS (PB/OpenBLAS ratio)</text>
<line x1="46" y1="42" x2="68" y2="42" stroke="#d62728" stroke-width="3"/>
<text x="73" y="46" font-size="12">Zen3 · AVX2</text>
<line x1="176" y1="42" x2="198" y2="42" stroke="#2ca02c" stroke-width="3"/>
<text x="203" y="46" font-size="12">Zen5 · AVX-512</text>
<line x1="327" y1="42" x2="349" y2="42" stroke="#1f77b4" stroke-width="3"/>
<text x="354" y="46" font-size="12">Zen4 · AVX-512</text>
<rect x="46" y="60" width="210" height="138" fill="none" stroke="#e2e2e2"/>
<line x1="46" y1="136.76503788367518" x2="256" y2="136.76503788367518" stroke="#d33" stroke-dasharray="4 3"/>
<text x="42" y="201.0" text-anchor="end" font-size="9" fill="#999">0.5×</text>
<text x="42" y="139.76503788367518" text-anchor="end" font-size="9" fill="#999">1.0×</text>
<text x="42" y="63.1624533193904" text-anchor="end" font-size="9" fill="#999">2.38×</text>
<polygon points="46.0,98.5 81.0,133.5 116.0,126.9 151.0,134.6 186.0,128.6 221.0,124.0 256.0,132.9 256.0,135.8 221.0,124.9 186.0,129.7 151.0,136.5 116.0,133.0 81.0,135.9 46.0,101.7" fill="#d62728" opacity="0.11"/>
<polyline points="46.0,100.6 81.0,134.7 116.0,130.1 151.0,136.1 186.0,129.3 221.0,124.4 256.0,133.3" fill="none" stroke="#d62728" stroke-width="1.6"/>
<circle cx="46.0" cy="100.6" r="2" fill="#d62728"/>
<circle cx="81.0" cy="134.7" r="2" fill="#d62728"/>
<circle cx="116.0" cy="130.1" r="2" fill="#d62728"/>
<circle cx="151.0" cy="136.1" r="2" fill="#d62728"/>
<circle cx="186.0" cy="129.3" r="2" fill="#d62728"/>
<circle cx="221.0" cy="124.4" r="2" fill="#d62728"/>
<circle cx="256.0" cy="133.3" r="2" fill="#d62728"/>
<polygon points="46.0,74.6 81.0,108.8 116.0,126.9 151.0,137.5 186.0,138.2 221.0,135.1 256.0,127.7 256.0,129.9 221.0,140.3 186.0,140.6 151.0,142.3 116.0,133.2 81.0,121.8 46.0,90.6" fill="#2ca02c" opacity="0.11"/>
<polyline points="46.0,77.5 81.0,120.6 116.0,129.5 151.0,139.1 186.0,139.6 221.0,139.7 256.0,129.2" fill="none" stroke="#2ca02c" stroke-width="1.6"/>
<circle cx="46.0" cy="77.5" r="2" fill="#2ca02c"/>
<circle cx="81.0" cy="120.6" r="2" fill="#2ca02c"/>
<circle cx="116.0" cy="129.5" r="2" fill="#2ca02c"/>
<circle cx="151.0" cy="139.1" r="2" fill="#2ca02c"/>
<circle cx="186.0" cy="139.6" r="2" fill="#2ca02c"/>
<circle cx="221.0" cy="139.7" r="2" fill="#2ca02c"/>
<circle cx="256.0" cy="129.2" r="2" fill="#2ca02c"/>
<polygon points="46.0,66.8 81.0,132.0 116.0,133.0 151.0,132.8 186.0,126.5 221.0,112.8 256.0,108.6 256.0,112.5 221.0,115.9 186.0,129.8 151.0,139.1 116.0,138.3 81.0,133.7 46.0,73.6" fill="#1f77b4" opacity="0.11"/>
<polyline points="46.0,69.6 81.0,133.1 116.0,135.6 151.0,135.6 186.0,128.2 221.0,114.8 256.0,110.8" fill="none" stroke="#1f77b4" stroke-width="1.6"/>
<circle cx="46.0" cy="69.6" r="2" fill="#1f77b4"/>
<circle cx="81.0" cy="133.1" r="2" fill="#1f77b4"/>
<circle cx="116.0" cy="135.6" r="2" fill="#1f77b4"/>
<circle cx="151.0" cy="135.6" r="2" fill="#1f77b4"/>
<circle cx="186.0" cy="128.2" r="2" fill="#1f77b4"/>
<circle cx="221.0" cy="114.8" r="2" fill="#1f77b4"/>
<circle cx="256.0" cy="110.8" r="2" fill="#1f77b4"/>
<text x="151.0" y="55" text-anchor="middle" font-size="12" font-weight="bold">gemvN</text>
<line x1="46.0" y1="60" x2="46.0" y2="198" stroke="#f4f4f4"/>
<text x="46.0" y="209" text-anchor="middle" font-size="8" fill="#999">64</text>
<line x1="81.0" y1="60" x2="81.0" y2="198" stroke="#f4f4f4"/>
<text x="81.0" y="209" text-anchor="middle" font-size="8" fill="#999">128</text>
<line x1="116.0" y1="60" x2="116.0" y2="198" stroke="#f4f4f4"/>
<text x="116.0" y="209" text-anchor="middle" font-size="8" fill="#999">256</text>
<line x1="151.0" y1="60" x2="151.0" y2="198" stroke="#f4f4f4"/>
<text x="151.0" y="209" text-anchor="middle" font-size="8" fill="#999">512</text>
<line x1="186.0" y1="60" x2="186.0" y2="198" stroke="#f4f4f4"/>
<text x="186.0" y="209" text-anchor="middle" font-size="8" fill="#999">1k</text>
<line x1="221.0" y1="60" x2="221.0" y2="198" stroke="#f4f4f4"/>
<text x="221.0" y="209" text-anchor="middle" font-size="8" fill="#999">2k</text>
<line x1="256.0" y1="60" x2="256.0" y2="198" stroke="#f4f4f4"/>
<text x="256.0" y="209" text-anchor="middle" font-size="8" fill="#999">4k</text>
<rect x="276" y="60" width="210" height="138" fill="none" stroke="#e2e2e2"/>
<line x1="276" y1="115.76276119065531" x2="486" y2="115.76276119065531" stroke="#d33" stroke-dasharray="4 3"/>
<text x="272" y="201.0" text-anchor="end" font-size="9" fill="#999">0.5×</text>
<text x="272" y="118.76276119065531" text-anchor="end" font-size="9" fill="#999">1.0×</text>
<text x="272" y="63.0" text-anchor="end" font-size="9" fill="#999">1.6×</text>
<polygon points="276.0,106.2 311.0,109.8 346.0,109.8 381.0,111.9 416.0,114.6 451.0,114.7 486.0,105.9 486.0,106.6 451.0,116.1 416.0,115.4 381.0,114.9 346.0,116.0 311.0,113.4 276.0,108.7" fill="#d62728" opacity="0.11"/>
<polyline points="276.0,107.3 311.0,110.7 346.0,113.1 381.0,113.4 416.0,115.1 451.0,115.3 486.0,106.4" fill="none" stroke="#d62728" stroke-width="1.6"/>
<circle cx="276.0" cy="107.3" r="2" fill="#d62728"/>
<circle cx="311.0" cy="110.7" r="2" fill="#d62728"/>
<circle cx="346.0" cy="113.1" r="2" fill="#d62728"/>
<circle cx="381.0" cy="113.4" r="2" fill="#d62728"/>
<circle cx="416.0" cy="115.1" r="2" fill="#d62728"/>
<circle cx="451.0" cy="115.3" r="2" fill="#d62728"/>
<circle cx="486.0" cy="106.4" r="2" fill="#d62728"/>
<polygon points="276.0,94.2 311.0,108.1 346.0,111.0 381.0,108.6 416.0,109.3 451.0,93.2 486.0,91.6 486.0,97.2 451.0,96.8 416.0,114.4 381.0,110.6 346.0,113.8 311.0,109.8 276.0,105.4" fill="#2ca02c" opacity="0.11"/>
<polyline points="276.0,96.1 311.0,108.9 346.0,113.3 381.0,109.3 416.0,112.4 451.0,96.6 486.0,95.9" fill="none" stroke="#2ca02c" stroke-width="1.6"/>
<circle cx="276.0" cy="96.1" r="2" fill="#2ca02c"/>
<circle cx="311.0" cy="108.9" r="2" fill="#2ca02c"/>
<circle cx="346.0" cy="113.3" r="2" fill="#2ca02c"/>
<circle cx="381.0" cy="109.3" r="2" fill="#2ca02c"/>
<circle cx="416.0" cy="112.4" r="2" fill="#2ca02c"/>
<circle cx="451.0" cy="96.6" r="2" fill="#2ca02c"/>
<circle cx="486.0" cy="95.9" r="2" fill="#2ca02c"/>
<polygon points="276.0,86.7 311.0,108.6 346.0,115.8 381.0,109.6 416.0,104.8 451.0,103.1 486.0,84.1 486.0,88.6 451.0,107.0 416.0,109.6 381.0,113.3 346.0,119.0 311.0,110.8 276.0,89.8" fill="#1f77b4" opacity="0.11"/>
<polyline points="276.0,88.1 311.0,109.3 346.0,117.2 381.0,111.4 416.0,106.8 451.0,104.9 486.0,86.6" fill="none" stroke="#1f77b4" stroke-width="1.6"/>
<circle cx="276.0" cy="88.1" r="2" fill="#1f77b4"/>
<circle cx="311.0" cy="109.3" r="2" fill="#1f77b4"/>
<circle cx="346.0" cy="117.2" r="2" fill="#1f77b4"/>
<circle cx="381.0" cy="111.4" r="2" fill="#1f77b4"/>
<circle cx="416.0" cy="106.8" r="2" fill="#1f77b4"/>
<circle cx="451.0" cy="104.9" r="2" fill="#1f77b4"/>
<circle cx="486.0" cy="86.6" r="2" fill="#1f77b4"/>
<text x="381.0" y="55" text-anchor="middle" font-size="12" font-weight="bold">gemvT</text>
<line x1="276.0" y1="60" x2="276.0" y2="198" stroke="#f4f4f4"/>
<text x="276.0" y="209" text-anchor="middle" font-size="8" fill="#999">64</text>
<line x1="311.0" y1="60" x2="311.0" y2="198" stroke="#f4f4f4"/>
<text x="311.0" y="209" text-anchor="middle" font-size="8" fill="#999">128</text>
<line x1="346.0" y1="60" x2="346.0" y2="198" stroke="#f4f4f4"/>
<text x="346.0" y="209" text-anchor="middle" font-size="8" fill="#999">256</text>
<line x1="381.0" y1="60" x2="381.0" y2="198" stroke="#f4f4f4"/>
<text x="381.0" y="209" text-anchor="middle" font-size="8" fill="#999">512</text>
<line x1="416.0" y1="60" x2="416.0" y2="198" stroke="#f4f4f4"/>
<text x="416.0" y="209" text-anchor="middle" font-size="8" fill="#999">1k</text>
<line x1="451.0" y1="60" x2="451.0" y2="198" stroke="#f4f4f4"/>
<text x="451.0" y="209" text-anchor="middle" font-size="8" fill="#999">2k</text>
<line x1="486.0" y1="60" x2="486.0" y2="198" stroke="#f4f4f4"/>
<text x="486.0" y="209" text-anchor="middle" font-size="8" fill="#999">4k</text>
<rect x="506" y="60" width="210" height="138" fill="none" stroke="#e2e2e2"/>
<line x1="506" y1="122.7076972786658" x2="716" y2="122.7076972786658" stroke="#d33" stroke-dasharray="4 3"/>
<text x="502" y="201.0" text-anchor="end" font-size="9" fill="#999">0.5×</text>
<text x="502" y="125.7076972786658" text-anchor="end" font-size="9" fill="#999">1.0×</text>
<text x="502" y="63.07374420787399" text-anchor="end" font-size="9" fill="#999">1.78×</text>
<polygon points="506.0,89.0 541.0,112.6 576.0,115.4 611.0,115.1 646.0,121.0 681.0,103.6 716.0,115.9 716.0,117.5 681.0,107.8 646.0,123.8 611.0,122.5 576.0,119.8 541.0,114.5 506.0,90.6" fill="#d62728" opacity="0.11"/>
<polyline points="506.0,89.7 541.0,113.3 576.0,117.4 611.0,120.8 646.0,122.4 681.0,106.6 716.0,116.7" fill="none" stroke="#d62728" stroke-width="1.6"/>
<circle cx="506.0" cy="89.7" r="2" fill="#d62728"/>
<circle cx="541.0" cy="113.3" r="2" fill="#d62728"/>
<circle cx="576.0" cy="117.4" r="2" fill="#d62728"/>
<circle cx="611.0" cy="120.8" r="2" fill="#d62728"/>
<circle cx="646.0" cy="122.4" r="2" fill="#d62728"/>
<circle cx="681.0" cy="106.6" r="2" fill="#d62728"/>
<circle cx="716.0" cy="116.7" r="2" fill="#d62728"/>
<polygon points="506.0,68.4 541.0,114.5 576.0,118.2 611.0,121.4 646.0,120.9 681.0,149.4 716.0,114.7 716.0,121.0 681.0,157.1 646.0,123.8 611.0,123.3 576.0,118.9 541.0,118.6 506.0,120.7" fill="#2ca02c" opacity="0.11"/>
<polyline points="506.0,90.0 541.0,116.8 576.0,118.5 611.0,122.2 646.0,122.0 681.0,151.2 716.0,118.5" fill="none" stroke="#2ca02c" stroke-width="1.6"/>
<circle cx="506.0" cy="90.0" r="2" fill="#2ca02c"/>
<circle cx="541.0" cy="116.8" r="2" fill="#2ca02c"/>
<circle cx="576.0" cy="118.5" r="2" fill="#2ca02c"/>
<circle cx="611.0" cy="122.2" r="2" fill="#2ca02c"/>
<circle cx="646.0" cy="122.0" r="2" fill="#2ca02c"/>
<circle cx="681.0" cy="151.2" r="2" fill="#2ca02c"/>
<circle cx="716.0" cy="118.5" r="2" fill="#2ca02c"/>
<polygon points="506.0,98.8 541.0,109.9 576.0,106.3 611.0,106.7 646.0,112.2 681.0,113.1 716.0,120.5 716.0,124.6 681.0,120.1 646.0,118.3 611.0,128.1 576.0,115.6 541.0,116.0 506.0,105.4" fill="#1f77b4" opacity="0.11"/>
<polyline points="506.0,102.9 541.0,113.4 576.0,110.3 611.0,114.3 646.0,116.2 681.0,116.2 716.0,123.5" fill="none" stroke="#1f77b4" stroke-width="1.6"/>
<circle cx="506.0" cy="102.9" r="2" fill="#1f77b4"/>
<circle cx="541.0" cy="113.4" r="2" fill="#1f77b4"/>
<circle cx="576.0" cy="110.3" r="2" fill="#1f77b4"/>
<circle cx="611.0" cy="114.3" r="2" fill="#1f77b4"/>
<circle cx="646.0" cy="116.2" r="2" fill="#1f77b4"/>
<circle cx="681.0" cy="116.2" r="2" fill="#1f77b4"/>
<circle cx="716.0" cy="123.5" r="2" fill="#1f77b4"/>
<text x="611.0" y="55" text-anchor="middle" font-size="12" font-weight="bold">ger</text>
<line x1="506.0" y1="60" x2="506.0" y2="198" stroke="#f4f4f4"/>
<text x="506.0" y="209" text-anchor="middle" font-size="8" fill="#999">64</text>
<line x1="541.0" y1="60" x2="541.0" y2="198" stroke="#f4f4f4"/>
<text x="541.0" y="209" text-anchor="middle" font-size="8" fill="#999">128</text>
<line x1="576.0" y1="60" x2="576.0" y2="198" stroke="#f4f4f4"/>
<text x="576.0" y="209" text-anchor="middle" font-size="8" fill="#999">256</text>
<line x1="611.0" y1="60" x2="611.0" y2="198" stroke="#f4f4f4"/>
<text x="611.0" y="209" text-anchor="middle" font-size="8" fill="#999">512</text>
<line x1="646.0" y1="60" x2="646.0" y2="198" stroke="#f4f4f4"/>
<text x="646.0" y="209" text-anchor="middle" font-size="8" fill="#999">1k</text>
<line x1="681.0" y1="60" x2="681.0" y2="198" stroke="#f4f4f4"/>
<text x="681.0" y="209" text-anchor="middle" font-size="8" fill="#999">2k</text>
<line x1="716.0" y1="60" x2="716.0" y2="198" stroke="#f4f4f4"/>
<text x="716.0" y="209" text-anchor="middle" font-size="8" fill="#999">4k</text>
<rect x="736" y="60" width="210" height="138" fill="none" stroke="#e2e2e2"/>
<line x1="736" y1="115.76276119065531" x2="946" y2="115.76276119065531" stroke="#d33" stroke-dasharray="4 3"/>
<text x="732" y="201.0" text-anchor="end" font-size="9" fill="#999">0.5×</text>
<text x="732" y="118.76276119065531" text-anchor="end" font-size="9" fill="#999">1.0×</text>
<text x="732" y="63.0" text-anchor="end" font-size="9" fill="#999">1.6×</text>
<polygon points="736.0,73.9 771.0,85.2 806.0,101.0 841.0,111.6 876.0,112.8 911.0,113.5 946.0,109.5 946.0,111.4 911.0,115.0 876.0,116.6 841.0,113.8 806.0,107.2 771.0,88.0 736.0,75.5" fill="#d62728" opacity="0.11"/>
<polyline points="736.0,74.8 771.0,86.6 806.0,103.3 841.0,112.9 876.0,114.3 911.0,114.7 946.0,111.0" fill="none" stroke="#d62728" stroke-width="1.6"/>
<circle cx="736.0" cy="74.8" r="2" fill="#d62728"/>
<circle cx="771.0" cy="86.6" r="2" fill="#d62728"/>
<circle cx="806.0" cy="103.3" r="2" fill="#d62728"/>
<circle cx="841.0" cy="112.9" r="2" fill="#d62728"/>
<circle cx="876.0" cy="114.3" r="2" fill="#d62728"/>
<circle cx="911.0" cy="114.7" r="2" fill="#d62728"/>
<circle cx="946.0" cy="111.0" r="2" fill="#d62728"/>
<polygon points="736.0,83.5 771.0,92.6 806.0,98.5 841.0,100.7 876.0,110.9 911.0,88.1 946.0,102.4 946.0,106.7 911.0,99.2 876.0,119.5 841.0,105.0 806.0,99.8 771.0,94.1 736.0,85.3" fill="#2ca02c" opacity="0.11"/>
<polyline points="736.0,84.9 771.0,93.1 806.0,99.1 841.0,103.7 876.0,112.2 911.0,97.0 946.0,103.8" fill="none" stroke="#2ca02c" stroke-width="1.6"/>
<circle cx="736.0" cy="84.9" r="2" fill="#2ca02c"/>
<circle cx="771.0" cy="93.1" r="2" fill="#2ca02c"/>
<circle cx="806.0" cy="99.1" r="2" fill="#2ca02c"/>
<circle cx="841.0" cy="103.7" r="2" fill="#2ca02c"/>
<circle cx="876.0" cy="112.2" r="2" fill="#2ca02c"/>
<circle cx="911.0" cy="97.0" r="2" fill="#2ca02c"/>
<circle cx="946.0" cy="103.8" r="2" fill="#2ca02c"/>
<polygon points="736.0,75.9 771.0,81.3 806.0,86.5 841.0,91.6 876.0,101.5 911.0,86.7 946.0,93.8 946.0,95.5 911.0,92.5 876.0,104.5 841.0,101.9 806.0,88.8 771.0,83.8 736.0,77.6" fill="#1f77b4" opacity="0.11"/>
<polyline points="736.0,76.8 771.0,82.5 806.0,87.5 841.0,99.9 876.0,102.8 911.0,89.5 946.0,95.1" fill="none" stroke="#1f77b4" stroke-width="1.6"/>
<circle cx="736.0" cy="76.8" r="2" fill="#1f77b4"/>
<circle cx="771.0" cy="82.5" r="2" fill="#1f77b4"/>
<circle cx="806.0" cy="87.5" r="2" fill="#1f77b4"/>
<circle cx="841.0" cy="99.9" r="2" fill="#1f77b4"/>
<circle cx="876.0" cy="102.8" r="2" fill="#1f77b4"/>
<circle cx="911.0" cy="89.5" r="2" fill="#1f77b4"/>
<circle cx="946.0" cy="95.1" r="2" fill="#1f77b4"/>
<text x="841.0" y="55" text-anchor="middle" font-size="12" font-weight="bold">symv</text>
<line x1="736.0" y1="60" x2="736.0" y2="198" stroke="#f4f4f4"/>
<text x="736.0" y="209" text-anchor="middle" font-size="8" fill="#999">64</text>
<line x1="771.0" y1="60" x2="771.0" y2="198" stroke="#f4f4f4"/>
<text x="771.0" y="209" text-anchor="middle" font-size="8" fill="#999">128</text>
<line x1="806.0" y1="60" x2="806.0" y2="198" stroke="#f4f4f4"/>
<text x="806.0" y="209" text-anchor="middle" font-size="8" fill="#999">256</text>
<line x1="841.0" y1="60" x2="841.0" y2="198" stroke="#f4f4f4"/>
<text x="841.0" y="209" text-anchor="middle" font-size="8" fill="#999">512</text>
<line x1="876.0" y1="60" x2="876.0" y2="198" stroke="#f4f4f4"/>
<text x="876.0" y="209" text-anchor="middle" font-size="8" fill="#999">1k</text>
<line x1="911.0" y1="60" x2="911.0" y2="198" stroke="#f4f4f4"/>
<text x="911.0" y="209" text-anchor="middle" font-size="8" fill="#999">2k</text>
<line x1="946.0" y1="60" x2="946.0" y2="198" stroke="#f4f4f4"/>
<text x="946.0" y="209" text-anchor="middle" font-size="8" fill="#999">4k</text>
<rect x="46" y="232" width="210" height="138" fill="none" stroke="#e2e2e2"/>
<line x1="46" y1="291.67294720917783" x2="256" y2="291.67294720917783" stroke="#d33" stroke-dasharray="4 3"/>
<text x="42" y="373.0" text-anchor="end" font-size="9" fill="#999">0.5×</text>
<text x="42" y="294.67294720917783" text-anchor="end" font-size="9" fill="#999">1.0×</text>
<polygon points="46.0,240.7 81.0,256.2 116.0,263.7 151.0,279.6 186.0,283.7 221.0,285.5 256.0,283.6 256.0,285.3 221.0,286.8 186.0,285.3 151.0,282.0 116.0,273.9 81.0,258.0 46.0,241.9" fill="#d62728" opacity="0.11"/>
<polyline points="46.0,241.6 81.0,257.4 116.0,267.8 151.0,280.5 186.0,284.2 221.0,286.0 256.0,284.2" fill="none" stroke="#d62728" stroke-width="1.6"/>
<circle cx="46.0" cy="241.6" r="2" fill="#d62728"/>
<circle cx="81.0" cy="257.4" r="2" fill="#d62728"/>
<circle cx="116.0" cy="267.8" r="2" fill="#d62728"/>
<circle cx="151.0" cy="280.5" r="2" fill="#d62728"/>
<circle cx="186.0" cy="284.2" r="2" fill="#d62728"/>
<circle cx="221.0" cy="286.0" r="2" fill="#d62728"/>
<circle cx="256.0" cy="284.2" r="2" fill="#d62728"/>
<polygon points="46.0,250.7 81.0,268.3 116.0,266.1 151.0,283.5 186.0,288.9 221.0,284.0 256.0,281.2 256.0,289.1 221.0,287.5 186.0,299.8 151.0,286.4 116.0,268.1 81.0,278.3 46.0,271.5" fill="#2ca02c" opacity="0.11"/>
<polyline points="46.0,257.7 81.0,271.3 116.0,267.4 151.0,285.2 186.0,291.5 221.0,285.2 256.0,284.2" fill="none" stroke="#2ca02c" stroke-width="1.6"/>
<circle cx="46.0" cy="257.7" r="2" fill="#2ca02c"/>
<circle cx="81.0" cy="271.3" r="2" fill="#2ca02c"/>
<circle cx="116.0" cy="267.4" r="2" fill="#2ca02c"/>
<circle cx="151.0" cy="285.2" r="2" fill="#2ca02c"/>
<circle cx="186.0" cy="291.5" r="2" fill="#2ca02c"/>
<circle cx="221.0" cy="285.2" r="2" fill="#2ca02c"/>
<circle cx="256.0" cy="284.2" r="2" fill="#2ca02c"/>
<polygon points="46.0,251.9 81.0,261.6 116.0,273.5 151.0,283.6 186.0,285.0 221.0,268.3 256.0,253.4 256.0,273.1 221.0,274.5 186.0,288.9 151.0,286.4 116.0,279.2 81.0,264.8 46.0,254.6" fill="#1f77b4" opacity="0.11"/>
<polyline points="46.0,252.7 81.0,263.4 116.0,275.7 151.0,284.7 186.0,287.5 221.0,270.5 256.0,269.2" fill="none" stroke="#1f77b4" stroke-width="1.6"/>
<circle cx="46.0" cy="252.7" r="2" fill="#1f77b4"/>
<circle cx="81.0" cy="263.4" r="2" fill="#1f77b4"/>
<circle cx="116.0" cy="275.7" r="2" fill="#1f77b4"/>
<circle cx="151.0" cy="284.7" r="2" fill="#1f77b4"/>
<circle cx="186.0" cy="287.5" r="2" fill="#1f77b4"/>
<circle cx="221.0" cy="270.5" r="2" fill="#1f77b4"/>
<circle cx="256.0" cy="269.2" r="2" fill="#1f77b4"/>
<text x="151.0" y="227" text-anchor="middle" font-size="12" font-weight="bold">trmv</text>
<line x1="46.0" y1="232" x2="46.0" y2="370" stroke="#f4f4f4"/>
<text x="46.0" y="381" text-anchor="middle" font-size="8" fill="#999">64</text>
<line x1="81.0" y1="232" x2="81.0" y2="370" stroke="#f4f4f4"/>
<text x="81.0" y="381" text-anchor="middle" font-size="8" fill="#999">128</text>
<line x1="116.0" y1="232" x2="116.0" y2="370" stroke="#f4f4f4"/>
<text x="116.0" y="381" text-anchor="middle" font-size="8" fill="#999">256</text>
<line x1="151.0" y1="232" x2="151.0" y2="370" stroke="#f4f4f4"/>
<text x="151.0" y="381" text-anchor="middle" font-size="8" fill="#999">512</text>
<line x1="186.0" y1="232" x2="186.0" y2="370" stroke="#f4f4f4"/>
<text x="186.0" y="381" text-anchor="middle" font-size="8" fill="#999">1k</text>
<line x1="221.0" y1="232" x2="221.0" y2="370" stroke="#f4f4f4"/>
<text x="221.0" y="381" text-anchor="middle" font-size="8" fill="#999">2k</text>
<line x1="256.0" y1="232" x2="256.0" y2="370" stroke="#f4f4f4"/>
<text x="256.0" y="381" text-anchor="middle" font-size="8" fill="#999">4k</text>
<rect x="276" y="232" width="210" height="138" fill="none" stroke="#e2e2e2"/>
<line x1="276" y1="292.7723614965898" x2="486" y2="292.7723614965898" stroke="#d33" stroke-dasharray="4 3"/>
<text x="272" y="373.0" text-anchor="end" font-size="9" fill="#999">0.5×</text>
<text x="272" y="295.7723614965898" text-anchor="end" font-size="9" fill="#999">1.0×</text>
<polygon points="276.0,240.6 311.0,250.4 346.0,255.1 381.0,275.9 416.0,281.9 451.0,284.0 486.0,277.1 486.0,290.5 451.0,290.4 416.0,285.9 381.0,278.8 346.0,262.6 311.0,251.5 276.0,240.9" fill="#d62728" opacity="0.11"/>
<polyline points="276.0,240.7 311.0,250.7 346.0,259.6 381.0,277.2 416.0,283.5 451.0,286.9 486.0,286.7" fill="none" stroke="#d62728" stroke-width="1.6"/>
<circle cx="276.0" cy="240.7" r="2" fill="#d62728"/>
<circle cx="311.0" cy="250.7" r="2" fill="#d62728"/>
<circle cx="346.0" cy="259.6" r="2" fill="#d62728"/>
<circle cx="381.0" cy="277.2" r="2" fill="#d62728"/>
<circle cx="416.0" cy="283.5" r="2" fill="#d62728"/>
<circle cx="451.0" cy="286.9" r="2" fill="#d62728"/>
<circle cx="486.0" cy="286.7" r="2" fill="#d62728"/>
<polygon points="276.0,269.8 311.0,273.5 346.0,275.9 381.0,288.1 416.0,303.8 451.0,287.3 486.0,280.5 486.0,296.8 451.0,294.9 416.0,305.3 381.0,290.1 346.0,277.4 311.0,278.0 276.0,276.3" fill="#2ca02c" opacity="0.11"/>
<polyline points="276.0,272.2 311.0,277.2 346.0,276.4 381.0,289.0 416.0,304.6 451.0,290.6 486.0,282.5" fill="none" stroke="#2ca02c" stroke-width="1.6"/>
<circle cx="276.0" cy="272.2" r="2" fill="#2ca02c"/>
<circle cx="311.0" cy="277.2" r="2" fill="#2ca02c"/>
<circle cx="346.0" cy="276.4" r="2" fill="#2ca02c"/>
<circle cx="381.0" cy="289.0" r="2" fill="#2ca02c"/>
<circle cx="416.0" cy="304.6" r="2" fill="#2ca02c"/>
<circle cx="451.0" cy="290.6" r="2" fill="#2ca02c"/>
<circle cx="486.0" cy="282.5" r="2" fill="#2ca02c"/>
<polygon points="276.0,274.1 311.0,278.1 346.0,280.8 381.0,289.9 416.0,286.7 451.0,269.6 486.0,254.4 486.0,279.5 451.0,281.5 416.0,292.7 381.0,293.7 346.0,284.8 311.0,279.5 276.0,275.1" fill="#1f77b4" opacity="0.11"/>
<polyline points="276.0,274.7 311.0,279.0 346.0,283.2 381.0,291.9 416.0,291.0 451.0,275.4 486.0,274.8" fill="none" stroke="#1f77b4" stroke-width="1.6"/>
<circle cx="276.0" cy="274.7" r="2" fill="#1f77b4"/>
<circle cx="311.0" cy="279.0" r="2" fill="#1f77b4"/>
<circle cx="346.0" cy="283.2" r="2" fill="#1f77b4"/>
<circle cx="381.0" cy="291.9" r="2" fill="#1f77b4"/>
<circle cx="416.0" cy="291.0" r="2" fill="#1f77b4"/>
<circle cx="451.0" cy="275.4" r="2" fill="#1f77b4"/>
<circle cx="486.0" cy="274.8" r="2" fill="#1f77b4"/>
<text x="381.0" y="227" text-anchor="middle" font-size="12" font-weight="bold">trsv</text>
<line x1="276.0" y1="232" x2="276.0" y2="370" stroke="#f4f4f4"/>
<text x="276.0" y="381" text-anchor="middle" font-size="8" fill="#999">64</text>
<line x1="311.0" y1="232" x2="311.0" y2="370" stroke="#f4f4f4"/>
<text x="311.0" y="381" text-anchor="middle" font-size="8" fill="#999">128</text>
<line x1="346.0" y1="232" x2="346.0" y2="370" stroke="#f4f4f4"/>
<text x="346.0" y="381" text-anchor="middle" font-size="8" fill="#999">256</text>
<line x1="381.0" y1="232" x2="381.0" y2="370" stroke="#f4f4f4"/>
<text x="381.0" y="381" text-anchor="middle" font-size="8" fill="#999">512</text>
<line x1="416.0" y1="232" x2="416.0" y2="370" stroke="#f4f4f4"/>
<text x="416.0" y="381" text-anchor="middle" font-size="8" fill="#999">1k</text>
<line x1="451.0" y1="232" x2="451.0" y2="370" stroke="#f4f4f4"/>
<text x="451.0" y="381" text-anchor="middle" font-size="8" fill="#999">2k</text>
<line x1="486.0" y1="232" x2="486.0" y2="370" stroke="#f4f4f4"/>
<text x="486.0" y="381" text-anchor="middle" font-size="8" fill="#999">4k</text>
<rect x="506" y="232" width="210" height="138" fill="none" stroke="#e2e2e2"/>
<line x1="506" y1="318.3016709685186" x2="716" y2="318.3016709685186" stroke="#d33" stroke-dasharray="4 3"/>
<text x="502" y="373.0" text-anchor="end" font-size="9" fill="#999">0.5×</text>
<text x="502" y="321.3016709685186" text-anchor="end" font-size="9" fill="#999">1.0×</text>
<text x="502" y="235.01577608285245" text-anchor="end" font-size="9" fill="#999">3.18×</text>
<polygon points="506.0,258.1 541.0,241.1 576.0,250.5 611.0,268.6 646.0,267.6 681.0,264.7 716.0,267.1 716.0,267.9 681.0,266.2 646.0,268.8 611.0,271.0 576.0,255.9 541.0,243.4 506.0,260.3" fill="#d62728" opacity="0.11"/>
<polyline points="506.0,258.7 541.0,242.0 576.0,252.9 611.0,270.2 646.0,268.2 681.0,265.0 716.0,267.6" fill="none" stroke="#d62728" stroke-width="1.6"/>
<circle cx="506.0" cy="258.7" r="2" fill="#d62728"/>
<circle cx="541.0" cy="242.0" r="2" fill="#d62728"/>
<circle cx="576.0" cy="252.9" r="2" fill="#d62728"/>
<circle cx="611.0" cy="270.2" r="2" fill="#d62728"/>
<circle cx="646.0" cy="268.2" r="2" fill="#d62728"/>
<circle cx="681.0" cy="265.0" r="2" fill="#d62728"/>
<circle cx="716.0" cy="267.6" r="2" fill="#d62728"/>
<polygon points="506.0,273.1 541.0,237.7 576.0,250.0 611.0,259.6 646.0,270.1 681.0,268.0 716.0,269.2 716.0,274.9 681.0,277.6 646.0,278.9 611.0,261.6 576.0,251.8 541.0,241.7 506.0,279.7" fill="#2ca02c" opacity="0.11"/>
<polyline points="506.0,278.0 541.0,241.2 576.0,250.9 611.0,260.5 646.0,272.7 681.0,271.5 716.0,271.4" fill="none" stroke="#2ca02c" stroke-width="1.6"/>
<circle cx="506.0" cy="278.0" r="2" fill="#2ca02c"/>
<circle cx="541.0" cy="241.2" r="2" fill="#2ca02c"/>
<circle cx="576.0" cy="250.9" r="2" fill="#2ca02c"/>
<circle cx="611.0" cy="260.5" r="2" fill="#2ca02c"/>
<circle cx="646.0" cy="272.7" r="2" fill="#2ca02c"/>
<circle cx="681.0" cy="271.5" r="2" fill="#2ca02c"/>
<circle cx="716.0" cy="271.4" r="2" fill="#2ca02c"/>
<polygon points="506.0,273.3 541.0,246.5 576.0,246.2 611.0,252.7 646.0,262.6 681.0,272.5 716.0,266.8 716.0,268.2 681.0,278.7 646.0,265.2 611.0,255.9 576.0,247.7 541.0,248.4 506.0,276.2" fill="#1f77b4" opacity="0.11"/>
<polyline points="506.0,274.9 541.0,247.6 576.0,247.1 611.0,254.0 646.0,263.5 681.0,275.9 716.0,267.6" fill="none" stroke="#1f77b4" stroke-width="1.6"/>
<circle cx="506.0" cy="274.9" r="2" fill="#1f77b4"/>
<circle cx="541.0" cy="247.6" r="2" fill="#1f77b4"/>
<circle cx="576.0" cy="247.1" r="2" fill="#1f77b4"/>
<circle cx="611.0" cy="254.0" r="2" fill="#1f77b4"/>
<circle cx="646.0" cy="263.5" r="2" fill="#1f77b4"/>
<circle cx="681.0" cy="275.9" r="2" fill="#1f77b4"/>
<circle cx="716.0" cy="267.6" r="2" fill="#1f77b4"/>
<text x="611.0" y="227" text-anchor="middle" font-size="12" font-weight="bold">spmv</text>
<line x1="506.0" y1="232" x2="506.0" y2="370" stroke="#f4f4f4"/>
<text x="506.0" y="381" text-anchor="middle" font-size="8" fill="#999">64</text>
<line x1="541.0" y1="232" x2="541.0" y2="370" stroke="#f4f4f4"/>
<text x="541.0" y="381" text-anchor="middle" font-size="8" fill="#999">128</text>
<line x1="576.0" y1="232" x2="576.0" y2="370" stroke="#f4f4f4"/>
<text x="576.0" y="381" text-anchor="middle" font-size="8" fill="#999">256</text>
<line x1="611.0" y1="232" x2="611.0" y2="370" stroke="#f4f4f4"/>
<text x="611.0" y="381" text-anchor="middle" font-size="8" fill="#999">512</text>
<line x1="646.0" y1="232" x2="646.0" y2="370" stroke="#f4f4f4"/>
<text x="646.0" y="381" text-anchor="middle" font-size="8" fill="#999">1k</text>
<line x1="681.0" y1="232" x2="681.0" y2="370" stroke="#f4f4f4"/>
<text x="681.0" y="381" text-anchor="middle" font-size="8" fill="#999">2k</text>
<line x1="716.0" y1="232" x2="716.0" y2="370" stroke="#f4f4f4"/>
<text x="716.0" y="381" text-anchor="middle" font-size="8" fill="#999">4k</text>
<rect x="736" y="232" width="210" height="138" fill="none" stroke="#e2e2e2"/>
<line x1="736" y1="291.4708681045641" x2="946" y2="291.4708681045641" stroke="#d33" stroke-dasharray="4 3"/>
<text x="732" y="373.0" text-anchor="end" font-size="9" fill="#999">0.5×</text>
<text x="732" y="294.4708681045641" text-anchor="end" font-size="9" fill="#999">1.0×</text>
<text x="732" y="235.02248973166868" text-anchor="end" font-size="9" fill="#999">1.69×</text>
<polygon points="736.0,273.7 771.0,264.8 806.0,279.4 841.0,282.4 876.0,283.4 911.0,284.2 946.0,284.8 946.0,286.3 911.0,286.1 876.0,286.2 841.0,286.0 806.0,287.2 771.0,280.5 736.0,277.2" fill="#d62728" opacity="0.11"/>
<polyline points="736.0,274.4 771.0,279.2 806.0,282.3 841.0,282.8 876.0,283.7 911.0,284.7 946.0,285.8" fill="none" stroke="#d62728" stroke-width="1.6"/>
<circle cx="736.0" cy="274.4" r="2" fill="#d62728"/>
<circle cx="771.0" cy="279.2" r="2" fill="#d62728"/>
<circle cx="806.0" cy="282.3" r="2" fill="#d62728"/>
<circle cx="841.0" cy="282.8" r="2" fill="#d62728"/>
<circle cx="876.0" cy="283.7" r="2" fill="#d62728"/>
<circle cx="911.0" cy="284.7" r="2" fill="#d62728"/>
<circle cx="946.0" cy="285.8" r="2" fill="#d62728"/>
<polygon points="736.0,259.7 771.0,243.6 806.0,258.0 841.0,264.9 876.0,264.7 911.0,264.5 946.0,266.1 946.0,267.1 911.0,265.7 876.0,265.7 841.0,265.9 806.0,269.9 771.0,267.5 736.0,261.6" fill="#2ca02c" opacity="0.11"/>
<polyline points="736.0,261.0 771.0,267.1 806.0,258.7 841.0,265.3 876.0,265.1 911.0,265.1 946.0,266.5" fill="none" stroke="#2ca02c" stroke-width="1.6"/>
<circle cx="736.0" cy="261.0" r="2" fill="#2ca02c"/>
<circle cx="771.0" cy="267.1" r="2" fill="#2ca02c"/>
<circle cx="806.0" cy="258.7" r="2" fill="#2ca02c"/>
<circle cx="841.0" cy="265.3" r="2" fill="#2ca02c"/>
<circle cx="876.0" cy="265.1" r="2" fill="#2ca02c"/>
<circle cx="911.0" cy="265.1" r="2" fill="#2ca02c"/>
<circle cx="946.0" cy="266.5" r="2" fill="#2ca02c"/>
<polygon points="736.0,240.7 771.0,241.6 806.0,245.2 841.0,247.9 876.0,249.7 911.0,250.7 946.0,253.1 946.0,255.0 911.0,252.5 876.0,251.1 841.0,250.1 806.0,251.9 771.0,250.4 736.0,245.4" fill="#1f77b4" opacity="0.11"/>
<polyline points="736.0,243.8 771.0,249.3 806.0,247.9 841.0,249.7 876.0,250.4 911.0,251.2 946.0,253.9" fill="none" stroke="#1f77b4" stroke-width="1.6"/>
<circle cx="736.0" cy="243.8" r="2" fill="#1f77b4"/>
<circle cx="771.0" cy="249.3" r="2" fill="#1f77b4"/>
<circle cx="806.0" cy="247.9" r="2" fill="#1f77b4"/>
<circle cx="841.0" cy="249.7" r="2" fill="#1f77b4"/>
<circle cx="876.0" cy="250.4" r="2" fill="#1f77b4"/>
<circle cx="911.0" cy="251.2" r="2" fill="#1f77b4"/>
<circle cx="946.0" cy="253.9" r="2" fill="#1f77b4"/>
<text x="841.0" y="227" text-anchor="middle" font-size="12" font-weight="bold">gbmvN</text>
<line x1="736.0" y1="232" x2="736.0" y2="370" stroke="#f4f4f4"/>
<text x="736.0" y="381" text-anchor="middle" font-size="8" fill="#999">64</text>
<line x1="771.0" y1="232" x2="771.0" y2="370" stroke="#f4f4f4"/>
<text x="771.0" y="381" text-anchor="middle" font-size="8" fill="#999">128</text>
<line x1="806.0" y1="232" x2="806.0" y2="370" stroke="#f4f4f4"/>
<text x="806.0" y="381" text-anchor="middle" font-size="8" fill="#999">256</text>
<line x1="841.0" y1="232" x2="841.0" y2="370" stroke="#f4f4f4"/>
<text x="841.0" y="381" text-anchor="middle" font-size="8" fill="#999">512</text>
<line x1="876.0" y1="232" x2="876.0" y2="370" stroke="#f4f4f4"/>
<text x="876.0" y="381" text-anchor="middle" font-size="8" fill="#999">1k</text>
<line x1="911.0" y1="232" x2="911.0" y2="370" stroke="#f4f4f4"/>
<text x="911.0" y="381" text-anchor="middle" font-size="8" fill="#999">2k</text>
<line x1="946.0" y1="232" x2="946.0" y2="370" stroke="#f4f4f4"/>
<text x="946.0" y="381" text-anchor="middle" font-size="8" fill="#999">4k</text>
<rect x="46" y="404" width="210" height="138" fill="none" stroke="#e2e2e2"/>
<line x1="46" y1="473.3132339236349" x2="256" y2="473.3132339236349" stroke="#d33" stroke-dasharray="4 3"/>
<text x="42" y="545.0" text-anchor="end" font-size="9" fill="#999">0.5×</text>
<text x="42" y="476.3132339236349" text-anchor="end" font-size="9" fill="#999">1.0×</text>
<text x="42" y="407.13223212551713" text-anchor="end" font-size="9" fill="#999">2.01×</text>
<polygon points="46.0,411.6 81.0,416.0 116.0,419.0 151.0,422.8 186.0,422.5 221.0,423.0 256.0,423.9 256.0,424.2 221.0,423.8 186.0,423.7 151.0,424.5 116.0,423.6 81.0,420.0 46.0,414.2" fill="#d62728" opacity="0.11"/>
<polyline points="46.0,412.4 81.0,417.9 116.0,421.0 151.0,423.3 186.0,423.5 221.0,423.3 256.0,424.1" fill="none" stroke="#d62728" stroke-width="1.6"/>
<circle cx="46.0" cy="412.4" r="2" fill="#d62728"/>
<circle cx="81.0" cy="417.9" r="2" fill="#d62728"/>
<circle cx="116.0" cy="421.0" r="2" fill="#d62728"/>
<circle cx="151.0" cy="423.3" r="2" fill="#d62728"/>
<circle cx="186.0" cy="423.5" r="2" fill="#d62728"/>
<circle cx="221.0" cy="423.3" r="2" fill="#d62728"/>
<circle cx="256.0" cy="424.1" r="2" fill="#d62728"/>
<polygon points="46.0,443.1 81.0,448.6 116.0,454.5 151.0,458.1 186.0,458.7 221.0,459.6 256.0,459.9 256.0,463.1 221.0,460.0 186.0,459.5 151.0,465.8 116.0,457.8 81.0,452.4 46.0,446.0" fill="#2ca02c" opacity="0.11"/>
<polyline points="46.0,443.8 81.0,450.9 116.0,455.9 151.0,458.4 186.0,459.3 221.0,459.8 256.0,460.1" fill="none" stroke="#2ca02c" stroke-width="1.6"/>
<circle cx="46.0" cy="443.8" r="2" fill="#2ca02c"/>
<circle cx="81.0" cy="450.9" r="2" fill="#2ca02c"/>
<circle cx="116.0" cy="455.9" r="2" fill="#2ca02c"/>
<circle cx="151.0" cy="458.4" r="2" fill="#2ca02c"/>
<circle cx="186.0" cy="459.3" r="2" fill="#2ca02c"/>
<circle cx="221.0" cy="459.8" r="2" fill="#2ca02c"/>
<circle cx="256.0" cy="460.1" r="2" fill="#2ca02c"/>
<polygon points="46.0,449.4 81.0,454.1 116.0,458.9 151.0,461.5 186.0,462.9 221.0,463.0 256.0,463.1 256.0,464.3 221.0,463.9 186.0,463.5 151.0,463.1 116.0,461.9 81.0,460.7 46.0,453.2" fill="#1f77b4" opacity="0.11"/>
<polyline points="46.0,451.0 81.0,457.6 116.0,460.6 151.0,462.5 186.0,463.2 221.0,463.5 256.0,464.0" fill="none" stroke="#1f77b4" stroke-width="1.6"/>
<circle cx="46.0" cy="451.0" r="2" fill="#1f77b4"/>
<circle cx="81.0" cy="457.6" r="2" fill="#1f77b4"/>
<circle cx="116.0" cy="460.6" r="2" fill="#1f77b4"/>
<circle cx="151.0" cy="462.5" r="2" fill="#1f77b4"/>
<circle cx="186.0" cy="463.2" r="2" fill="#1f77b4"/>
<circle cx="221.0" cy="463.5" r="2" fill="#1f77b4"/>
<circle cx="256.0" cy="464.0" r="2" fill="#1f77b4"/>
<text x="151.0" y="399" text-anchor="middle" font-size="12" font-weight="bold">sbmv</text>
<line x1="46.0" y1="404" x2="46.0" y2="542" stroke="#f4f4f4"/>
<text x="46.0" y="553" text-anchor="middle" font-size="8" fill="#999">64</text>
<line x1="81.0" y1="404" x2="81.0" y2="542" stroke="#f4f4f4"/>
<text x="81.0" y="553" text-anchor="middle" font-size="8" fill="#999">128</text>
<line x1="116.0" y1="404" x2="116.0" y2="542" stroke="#f4f4f4"/>
<text x="116.0" y="553" text-anchor="middle" font-size="8" fill="#999">256</text>
<line x1="151.0" y1="404" x2="151.0" y2="542" stroke="#f4f4f4"/>
<text x="151.0" y="553" text-anchor="middle" font-size="8" fill="#999">512</text>
<line x1="186.0" y1="404" x2="186.0" y2="542" stroke="#f4f4f4"/>
<text x="186.0" y="553" text-anchor="middle" font-size="8" fill="#999">1k</text>
<line x1="221.0" y1="404" x2="221.0" y2="542" stroke="#f4f4f4"/>
<text x="221.0" y="553" text-anchor="middle" font-size="8" fill="#999">2k</text>
<line x1="256.0" y1="404" x2="256.0" y2="542" stroke="#f4f4f4"/>
<text x="256.0" y="553" text-anchor="middle" font-size="8" fill="#999">4k</text>
</svg>
