<svg xmlns="http://www.w3.org/2000/svg" width="900" height="440" font-family="sans-serif">
<rect width="900" height="440" fill="white"/>
<text x="450.0" y="28" text-anchor="middle" font-size="18" font-weight="bold">BLAS-1: PureBLAS / OpenBLAS (Zen4, 1 thread, Float64)</text>
<line x1="60" y1="358.0" x2="880" y2="358.0" stroke="#eee"/>
<text x="52" y="362.0" text-anchor="end" font-size="11" fill="#666">0×</text>
<line x1="60" y1="347.386012396315" x2="880" y2="347.386012396315" stroke="#eee"/>
<text x="52" y="351.386012396315" text-anchor="end" font-size="11" fill="#666">0.5×</text>
<line x1="60" y1="336.77202479262996" x2="880" y2="336.77202479262996" stroke="#eee"/>
<text x="52" y="340.77202479262996" text-anchor="end" font-size="11" fill="#666">1×</text>
<line x1="60" y1="326.158037188945" x2="880" y2="326.158037188945" stroke="#eee"/>
<text x="52" y="330.158037188945" text-anchor="end" font-size="11" fill="#666">1.5×</text>
<line x1="60" y1="336.77202479262996" x2="880" y2="336.77202479262996" stroke="#888" stroke-width="1"/>
<line x1="60" y1="337.6211438009248" x2="880" y2="337.6211438009248" stroke="#d33" stroke-width="1.5" stroke-dasharray="6 4"/>
<text x="880" y="332.6211438009248" text-anchor="end" font-size="11" fill="#d33">0.96× gate</text>
<polygon points="128.4,346.5 128.5,346.2 128.6,346.0 128.7,345.7 128.9,345.4 129.1,345.2 129.4,344.9 129.6,344.6 129.8,344.3 130.0,344.1 130.2,343.8 130.4,343.5 130.5,343.3 130.6,343.0 130.8,342.7 130.9,342.5 131.1,342.2 131.2,341.9 131.3,341.6 131.3,341.4 131.5,341.1 131.6,340.8 132.0,340.6 132.6,340.3 133.3,340.0 134.4,339.7 135.8,339.5 137.6,339.2 140.2,338.9 143.7,338.7 148.4,338.4 154.5,338.1 161.6,337.8 169.3,337.6 176.5,337.3 182.3,337.0 185.5,336.8 185.7,336.5 183.0,336.2 178.0,336.0 171.7,335.7 165.1,335.4 159.0,335.1 153.8,334.9 149.7,334.6 146.5,334.3 144.0,334.1 142.0,333.8 140.5,333.5 139.2,333.2 138.1,333.0 137.2,332.7 136.4,332.4 135.6,332.2 134.7,331.9 133.8,331.6 132.9,331.3 132.0,331.1 131.3,330.8 130.8,330.5 130.4,330.3 130.2,330.0 130.0,329.7 129.8,329.5 129.6,329.2 129.4,328.9 129.2,328.6 129.0,328.4 128.8,328.1 128.6,327.8 128.5,327.6 128.4,327.3 128.2,327.3 128.2,327.6 128.1,327.8 127.9,328.1 127.7,328.4 127.5,328.6 127.2,328.9 127.0,329.2 126.8,329.5 126.7,329.7 126.5,330.0 126.2,330.3 125.9,330.5 125.3,330.8 124.6,331.1 123.8,331.3 122.9,331.6 122.0,331.9 121.1,332.2 120.3,332.4 119.4,332.7 118.5,333.0 117.5,333.2 116.2,333.5 114.6,333.8 112.7,334.1 110.2,334.3 107.0,334.6 102.9,334.9 97.7,335.1 91.6,335.4 85.0,335.7 78.7,336.0 73.7,336.2 70.9,336.5 71.2,336.8 74.4,337.0 80.2,337.3 87.4,337.6 95.1,337.8 102.2,338.1 108.2,338.4 113.0,338.7 116.5,338.9 119.0,339.2 120.9,339.5 122.3,339.7 123.3,340.0 124.1,340.3 124.7,340.6 125.0,340.8 125.2,341.1 125.3,341.4 125.4,341.6 125.5,341.9 125.6,342.2 125.8,342.5 125.9,342.7 126.0,343.0 126.2,343.3 126.3,343.5 126.4,343.8 126.6,344.1 126.8,344.3 127.1,344.6 127.3,344.9 127.5,345.2 127.7,345.4 127.9,345.7 128.1,346.0 128.2,346.2 128.3,346.5" fill="#2a8" opacity="0.5" stroke="#2a8" stroke-width="1"/>
<line x1="70.7" y1="336.5636907791916" x2="186.0" y2="336.5636907791916" stroke="#114" stroke-width="2"/>
<circle cx="128.33333333333331" cy="337.0410678096108" r="2.4" fill="#114"/>
<text x="128.33333333333331" y="323.18266126874414" text-anchor="middle" font-size="11">1.01</text>
<text x="128.33333333333331" y="376" text-anchor="middle" font-size="12">axpy</text>
<polygon points="265.1,344.7 265.1,344.4 265.2,344.2 265.4,343.9 265.6,343.6 265.8,343.4 266.0,343.1 266.2,342.8 266.3,342.6 266.3,342.3 266.2,342.1 266.1,341.8 266.0,341.5 266.1,341.3 266.3,341.0 266.7,340.7 267.3,340.5 268.1,340.2 269.2,339.9 270.7,339.7 272.6,339.4 275.2,339.1 278.4,338.9 282.7,338.6 288.2,338.3 295.1,338.1 302.9,337.8 310.9,337.6 317.7,337.3 321.9,337.0 322.4,336.8 319.2,336.5 313.0,336.2 305.4,336.0 297.7,335.7 291.1,335.4 285.8,335.2 281.9,334.9 278.7,334.6 276.1,334.4 273.8,334.1 271.7,333.9 269.9,333.6 268.6,333.3 267.8,333.1 267.3,332.8 267.1,332.5 267.1,332.3 267.1,332.0 267.1,331.7 267.0,331.5 267.0,331.2 266.8,330.9 266.7,330.7 266.7,330.4 266.8,330.1 266.9,329.9 267.0,329.6 267.0,329.4 267.0,329.1 266.9,328.8 266.7,328.6 266.5,328.3 266.3,328.0 266.1,327.8 265.9,327.5 265.7,327.2 265.5,327.0 265.3,326.7 265.2,326.4 265.1,326.2 265.0,325.9 265.0,325.9 264.9,326.2 264.8,326.4 264.7,326.7 264.5,327.0 264.3,327.2 264.1,327.5 263.9,327.8 263.7,328.0 263.5,328.3 263.3,328.6 263.1,328.8 263.0,329.1 263.0,329.4 263.0,329.6 263.1,329.9 263.2,330.1 263.3,330.4 263.3,330.7 263.2,330.9 263.0,331.2 263.0,331.5 262.9,331.7 262.9,332.0 262.9,332.3 262.9,332.5 262.7,332.8 262.2,333.1 261.4,333.3 260.1,333.6 258.3,333.9 256.2,334.1 253.9,334.4 251.3,334.6 248.1,334.9 244.2,335.2 238.9,335.4 232.3,335.7 224.6,336.0 217.0,336.2 210.8,336.5 207.6,336.8 208.1,337.0 212.3,337.3 219.1,337.6 227.1,337.8 234.9,338.1 241.8,338.3 247.3,338.6 251.6,338.9 254.8,339.1 257.4,339.4 259.3,339.7 260.8,339.9 261.9,340.2 262.7,340.5 263.3,340.7 263.7,341.0 263.9,341.3 264.0,341.5 263.9,341.8 263.8,342.1 263.7,342.3 263.7,342.6 263.8,342.8 264.0,343.1 264.2,343.4 264.4,343.6 264.6,343.9 264.8,344.2 264.9,344.4 264.9,344.7" fill="#2a8" opacity="0.5" stroke="#2a8" stroke-width="1"/>
<line x1="207.6" y1="336.76092817151624" x2="322.4" y2="336.76092817151624" stroke="#114" stroke-width="2"/>
<circle cx="265.0" cy="337.27982316353257" r="2.4" fill="#114"/>
<text x="265.0" y="321.7642644251311" text-anchor="middle" font-size="11">1.00</text>
<text x="265.0" y="376" text-anchor="middle" font-size="12">dot</text>
<polygon points="405.3,325.5 406.9,321.6 409.0,317.7 411.7,313.8 414.9,309.9 418.7,306.1 423.0,302.2 427.6,298.3 432.5,294.4 437.4,290.5 442.1,286.7 446.5,282.8 450.4,278.9 453.6,275.0 456.0,271.1 457.7,267.3 458.7,263.4 459.1,259.5 458.9,255.6 458.2,251.7 457.4,247.9 456.5,244.0 455.6,240.1 455.0,236.2 454.6,232.3 454.5,228.5 454.7,224.6 455.0,220.7 455.4,216.8 455.6,212.9 455.6,209.1 455.0,205.2 453.8,201.3 452.0,197.4 449.5,193.6 446.4,189.7 442.8,185.8 438.7,181.9 434.4,178.0 430.1,174.2 426.0,170.3 422.1,166.4 418.5,162.5 415.5,158.6 413.0,154.8 411.0,150.9 409.4,147.0 408.3,143.1 407.6,139.2 407.2,135.4 407.0,131.5 407.1,127.6 407.3,123.7 407.6,119.8 408.0,116.0 408.5,112.1 408.9,108.2 409.3,104.3 409.6,100.4 409.8,96.6 409.9,92.7 409.7,88.8 409.4,84.9 408.9,81.0 408.2,77.2 407.5,73.3 406.7,69.4 405.9,65.5 405.1,61.6 404.4,57.8 403.8,53.9 403.3,50.0 400.0,50.0 399.5,53.9 398.9,57.8 398.2,61.6 397.4,65.5 396.6,69.4 395.8,73.3 395.1,77.2 394.4,81.0 393.9,84.9 393.6,88.8 393.5,92.7 393.5,96.6 393.7,100.4 394.0,104.3 394.4,108.2 394.9,112.1 395.3,116.0 395.7,119.8 396.0,123.7 396.2,127.6 396.3,131.5 396.1,135.4 395.7,139.2 395.0,143.1 393.9,147.0 392.4,150.9 390.4,154.8 387.8,158.6 384.8,162.5 381.3,166.4 377.4,170.3 373.2,174.2 368.9,178.0 364.6,181.9 360.6,185.8 356.9,189.7 353.8,193.6 351.3,197.4 349.5,201.3 348.3,205.2 347.8,209.1 347.7,212.9 347.9,216.8 348.3,220.7 348.6,224.6 348.8,228.5 348.7,232.3 348.4,236.2 347.7,240.1 346.9,244.0 345.9,247.9 345.1,251.7 344.5,255.6 344.3,259.5 344.6,263.4 345.6,267.3 347.3,271.1 349.8,275.0 353.0,278.9 356.8,282.8 361.2,286.7 365.9,290.5 370.8,294.4 375.7,298.3 380.4,302.2 384.6,306.1 388.4,309.9 391.7,313.8 394.3,317.7 396.4,321.6 398.1,325.5" fill="#2a8" opacity="0.5" stroke="#2a8" stroke-width="1"/>
<line x1="348.8" y1="231.00237925015765" x2="454.5" y2="231.00237925015765" stroke="#114" stroke-width="2"/>
<circle cx="401.66666666666663" cy="273.40124511855015" r="2.4" fill="#114"/>
<text x="401.66666666666663" y="61.433962264150935" text-anchor="middle" font-size="11">5.98</text>
<text x="401.66666666666663" y="376" text-anchor="middle" font-size="12">nrm2</text>
<polygon points="538.5,348.6 538.6,348.2 538.8,347.8 539.1,347.5 539.4,347.1 539.6,346.7 539.8,346.3 539.9,345.9 539.9,345.5 539.7,345.1 539.5,344.8 539.4,344.4 539.4,344.0 539.5,343.6 539.8,343.2 540.4,342.8 541.1,342.4 542.1,342.1 543.2,341.7 544.4,341.3 545.8,340.9 547.4,340.5 549.4,340.1 552.1,339.7 555.7,339.4 560.6,339.0 566.8,338.6 574.0,338.2 581.6,337.8 588.4,337.4 593.4,337.0 595.7,336.7 595.2,336.3 592.2,335.9 587.7,335.5 582.4,335.1 577.3,334.7 572.8,334.3 568.8,333.9 565.4,333.6 562.2,333.2 559.1,332.8 556.2,332.4 553.6,332.0 551.4,331.6 549.7,331.2 548.6,330.9 548.1,330.5 548.0,330.1 548.0,329.7 547.8,329.3 547.3,328.9 546.4,328.5 545.2,328.2 543.8,327.8 542.4,327.4 541.2,327.0 540.2,326.6 539.5,326.2 539.2,325.8 539.0,325.5 539.0,325.1 539.0,324.7 539.1,324.3 539.1,323.9 539.1,323.5 539.0,323.1 538.9,322.8 538.7,322.4 538.6,322.0 538.5,321.6 538.4,321.2 538.2,321.2 538.2,321.6 538.1,322.0 537.9,322.4 537.8,322.8 537.7,323.1 537.6,323.5 537.5,323.9 537.6,324.3 537.6,324.7 537.7,325.1 537.7,325.5 537.5,325.8 537.1,326.2 536.5,326.6 535.5,327.0 534.3,327.4 532.9,327.8 531.5,328.2 530.3,328.5 529.4,328.9 528.9,329.3 528.7,329.7 528.7,330.1 528.5,330.5 528.0,330.9 527.0,331.2 525.3,331.6 523.1,332.0 520.4,332.4 517.5,332.8 514.5,333.2 511.3,333.6 507.8,333.9 503.9,334.3 499.3,334.7 494.2,335.1 489.0,335.5 484.4,335.9 481.4,336.3 480.9,336.7 483.3,337.0 488.3,337.4 495.1,337.8 502.7,338.2 509.9,338.6 516.1,339.0 520.9,339.4 524.6,339.7 527.3,340.1 529.3,340.5 530.9,340.9 532.2,341.3 533.5,341.7 534.6,342.1 535.5,342.4 536.3,342.8 536.8,343.2 537.2,343.6 537.3,344.0 537.3,344.4 537.1,344.8 536.9,345.1 536.8,345.5 536.7,345.9 536.8,346.3 537.0,346.7 537.3,347.1 537.6,347.5 537.8,347.8 538.0,348.2 538.2,348.6" fill="#2a8" opacity="0.5" stroke="#2a8" stroke-width="1"/>
<line x1="481.3" y1="336.30085610403273" x2="595.4" y2="336.30085610403273" stroke="#114" stroke-width="2"/>
<circle cx="538.3333333333333" cy="337.1092043874589" r="2.4" fill="#114"/>
<text x="538.3333333333333" y="317.89296281529386" text-anchor="middle" font-size="11">1.02</text>
<text x="538.3333333333333" y="376" text-anchor="middle" font-size="12">asum</text>
<polygon points="675.1,344.2 675.2,343.9 675.4,343.5 675.8,343.1 676.3,342.7 676.9,342.4 677.7,342.0 678.6,341.6 679.3,341.2 679.9,340.8 680.3,340.5 680.6,340.1 680.8,339.7 681.3,339.3 682.5,339.0 684.6,338.6 688.0,338.2 692.5,337.8 698.1,337.4 704.2,337.1 710.6,336.7 716.8,336.3 722.5,335.9 727.4,335.6 730.9,335.2 732.4,334.8 731.7,334.4 728.8,334.0 724.2,333.7 718.6,333.3 712.7,332.9 707.0,332.5 701.7,332.2 697.0,331.8 693.0,331.4 689.8,331.0 687.3,330.6 685.6,330.3 684.5,329.9 683.8,329.5 683.2,329.1 682.6,328.8 681.8,328.4 680.8,328.0 679.7,327.6 678.6,327.2 677.5,326.9 676.6,326.5 676.0,326.1 675.5,325.7 675.3,325.4 675.1,325.0 675.0,324.6 675.0,324.2 675.0,323.8 675.0,323.5 675.0,323.1 675.1,322.7 675.1,322.3 675.2,322.0 675.3,321.6 675.5,321.2 675.7,320.8 675.8,320.4 675.8,320.1 675.8,319.7 675.7,319.3 675.5,318.9 675.3,318.6 675.2,318.2 675.1,317.8 675.1,317.4 674.9,317.4 674.9,317.8 674.8,318.2 674.7,318.6 674.5,318.9 674.3,319.3 674.2,319.7 674.2,320.1 674.2,320.4 674.3,320.8 674.5,321.2 674.7,321.6 674.8,322.0 674.9,322.3 674.9,322.7 675.0,323.1 675.0,323.5 675.0,323.8 675.0,324.2 675.0,324.6 674.9,325.0 674.7,325.4 674.5,325.7 674.0,326.1 673.4,326.5 672.5,326.9 671.4,327.2 670.3,327.6 669.2,328.0 668.2,328.4 667.4,328.8 666.8,329.1 666.2,329.5 665.5,329.9 664.4,330.3 662.7,330.6 660.2,331.0 657.0,331.4 653.0,331.8 648.3,332.2 643.0,332.5 637.3,332.9 631.4,333.3 625.8,333.7 621.2,334.0 618.3,334.4 617.6,334.8 619.1,335.2 622.6,335.6 627.5,335.9 633.2,336.3 639.4,336.7 645.8,337.1 651.9,337.4 657.5,337.8 662.0,338.2 665.4,338.6 667.5,339.0 668.7,339.3 669.2,339.7 669.4,340.1 669.7,340.5 670.1,340.8 670.7,341.2 671.4,341.6 672.3,342.0 673.1,342.4 673.7,342.7 674.2,343.1 674.6,343.5 674.8,343.9 674.9,344.2" fill="#2a8" opacity="0.5" stroke="#2a8" stroke-width="1"/>
<line x1="617.7" y1="334.6260439762696" x2="732.3" y2="334.6260439762696" stroke="#114" stroke-width="2"/>
<circle cx="675.0" cy="335.42325280532873" r="2.4" fill="#114"/>
<text x="675.0" y="314.0529901278389" text-anchor="middle" font-size="11">1.10</text>
<text x="675.0" y="376" text-anchor="middle" font-size="12">scal</text>
<polygon points="813.4,348.3 814.1,347.7 815.1,347.1 816.4,346.6 818.0,346.0 819.9,345.4 822.2,344.8 824.8,344.2 827.7,343.6 830.9,343.0 834.4,342.4 838.1,341.8 841.9,341.2 845.7,340.7 849.5,340.1 853.1,339.5 856.5,338.9 859.6,338.3 862.3,337.7 864.6,337.1 866.4,336.5 867.7,335.9 868.6,335.4 869.0,334.8 869.1,334.2 868.9,333.6 868.5,333.0 868.1,332.4 867.7,331.8 867.5,331.2 867.5,330.6 867.7,330.0 868.0,329.5 868.4,328.9 868.8,328.3 869.0,327.7 869.0,327.1 868.7,326.5 868.1,325.9 867.2,325.3 866.0,324.7 864.5,324.2 862.8,323.6 860.8,323.0 858.5,322.4 855.9,321.8 853.0,321.2 849.9,320.6 846.7,320.0 843.3,319.4 839.9,318.8 836.6,318.3 833.5,317.7 830.6,317.1 828.0,316.5 825.6,315.9 823.6,315.3 821.8,314.7 820.2,314.1 818.9,313.5 817.7,313.0 816.8,312.4 815.9,311.8 815.2,311.2 814.6,310.6 814.1,310.0 813.7,309.4 813.3,308.8 812.9,308.2 812.7,307.6 812.4,307.1 812.2,306.5 811.1,306.5 810.9,307.1 810.7,307.6 810.4,308.2 810.1,308.8 809.7,309.4 809.2,310.0 808.7,310.6 808.1,311.2 807.4,311.8 806.6,312.4 805.6,313.0 804.5,313.5 803.1,314.1 801.6,314.7 799.8,315.3 797.7,315.9 795.4,316.5 792.7,317.1 789.8,317.7 786.7,318.3 783.4,318.8 780.0,319.4 776.7,320.0 773.4,320.6 770.3,321.2 767.4,321.8 764.9,322.4 762.6,323.0 760.5,323.6 758.8,324.2 757.3,324.7 756.1,325.3 755.2,325.9 754.7,326.5 754.4,327.1 754.4,327.7 754.6,328.3 754.9,328.9 755.3,329.5 755.7,330.0 755.8,330.6 755.8,331.2 755.6,331.8 755.3,332.4 754.9,333.0 754.5,333.6 754.3,334.2 754.3,334.8 754.7,335.4 755.6,335.9 756.9,336.5 758.7,337.1 761.0,337.7 763.7,338.3 766.8,338.9 770.2,339.5 773.8,340.1 777.6,340.7 781.5,341.2 785.2,341.8 788.9,342.4 792.4,343.0 795.6,343.6 798.5,344.2 801.1,344.8 803.4,345.4 805.3,346.0 806.9,346.6 808.2,347.1 809.2,347.7 810.0,348.3" fill="#2a8" opacity="0.5" stroke="#2a8" stroke-width="1"/>
<line x1="755.5" y1="329.6712471900623" x2="867.9" y2="329.6712471900623" stroke="#114" stroke-width="2"/>
<circle cx="811.6666666666666" cy="332.59698804364865" r="2.4" fill="#114"/>
<text x="811.6666666666666" y="304.5535300243379" text-anchor="middle" font-size="11">1.33</text>
<text x="811.6666666666666" y="376" text-anchor="middle" font-size="12">iamax</text>
<text x="450.0" y="428" text-anchor="middle" font-size="11" fill="#666">violin = ratio distribution over sizes · line = median · dark dot = worst size · green = every size ≥ gate</text>
</svg>
