<svg xmlns="http://www.w3.org/2000/svg" width="900" height="440" font-family="sans-serif">
<rect width="900" height="440" fill="white"/>
<text x="450.0" y="28" text-anchor="middle" font-size="18" font-weight="bold">Complex BLAS-1: PureBLAS / OpenBLAS (AVX-512 native (Zen5), 1 thread, ComplexF64)</text>
<line x1="60" y1="358.0" x2="880" y2="358.0" stroke="#eee"/>
<text x="52" y="362.0" text-anchor="end" font-size="11" fill="#666">0×</text>
<line x1="60" y1="348.4117934379769" x2="880" y2="348.4117934379769" stroke="#eee"/>
<text x="52" y="352.4117934379769" text-anchor="end" font-size="11" fill="#666">0.5×</text>
<line x1="60" y1="338.8235868759539" x2="880" y2="338.8235868759539" stroke="#eee"/>
<text x="52" y="342.8235868759539" text-anchor="end" font-size="11" fill="#666">1×</text>
<line x1="60" y1="329.23538031393076" x2="880" y2="329.23538031393076" stroke="#eee"/>
<text x="52" y="333.23538031393076" text-anchor="end" font-size="11" fill="#666">1.5×</text>
<line x1="60" y1="338.8235868759539" x2="880" y2="338.8235868759539" stroke="#888" stroke-width="1"/>
<line x1="60" y1="339.59064340091567" x2="880" y2="339.59064340091567" stroke="#d33" stroke-width="1.5" stroke-dasharray="6 4"/>
<text x="880" y="334.59064340091567" text-anchor="end" font-size="11" fill="#d33">0.96× gate</text>
<polygon points="124.5,340.8 126.4,340.7 128.6,340.6 131.1,340.5 133.7,340.3 136.4,340.2 139.0,340.1 141.5,340.0 143.9,339.9 145.9,339.8 147.8,339.7 149.4,339.6 151.0,339.5 152.6,339.4 154.3,339.3 156.1,339.2 158.0,339.0 160.0,338.9 162.1,338.8 164.0,338.7 165.7,338.6 167.0,338.5 167.7,338.4 167.8,338.3 167.0,338.2 165.4,338.1 163.1,338.0 160.0,337.9 156.2,337.7 152.1,337.6 147.7,337.5 143.2,337.4 138.9,337.3 135.0,337.2 131.4,337.1 128.4,337.0 125.8,336.9 123.8,336.8 122.3,336.7 121.1,336.6 120.2,336.4 119.7,336.3 119.3,336.2 119.0,336.1 118.9,336.0 118.9,335.9 118.9,335.8 119.0,335.7 119.2,335.6 119.5,335.5 120.0,335.4 120.6,335.3 121.3,335.1 122.2,335.0 123.3,334.9 124.6,334.8 125.9,334.7 127.3,334.6 128.7,334.5 129.9,334.4 130.9,334.3 131.5,334.2 131.8,334.1 131.7,333.9 131.2,333.8 130.3,333.7 129.1,333.6 127.8,333.5 126.4,333.4 125.0,333.3 123.6,333.2 122.4,333.1 114.7,333.1 113.5,333.2 112.2,333.3 110.8,333.4 109.4,333.5 108.0,333.6 106.9,333.7 106.0,333.8 105.4,333.9 105.3,334.1 105.6,334.2 106.3,334.3 107.3,334.4 108.5,334.5 109.8,334.6 111.2,334.7 112.6,334.8 113.8,334.9 114.9,335.0 115.8,335.1 116.6,335.3 117.2,335.4 117.6,335.5 117.9,335.6 118.1,335.7 118.2,335.8 118.3,335.9 118.2,336.0 118.1,336.1 117.9,336.2 117.5,336.3 116.9,336.4 116.1,336.6 114.9,336.7 113.3,336.8 111.3,336.9 108.8,337.0 105.7,337.1 102.2,337.2 98.2,337.3 93.9,337.4 89.5,337.5 85.1,337.6 80.9,337.7 77.2,337.9 74.1,338.0 71.7,338.1 70.1,338.2 69.4,338.3 69.4,338.4 70.1,338.5 71.4,338.6 73.1,338.7 75.1,338.8 77.1,338.9 79.2,339.0 81.1,339.2 82.9,339.3 84.5,339.4 86.1,339.5 87.7,339.6 89.4,339.7 91.2,339.8 93.3,339.9 95.6,340.0 98.1,340.1 100.8,340.2 103.5,340.3 106.1,340.5 108.5,340.6 110.7,340.7 112.6,340.8" fill="#d33" opacity="0.5" stroke="#d33" stroke-width="1"/>
<line x1="69.3" y1="338.3225647791438" x2="167.8" y2="338.3225647791438" stroke="#114" stroke-width="2"/>
<circle cx="118.57142857142857" cy="339.83242155832573" r="2.4" fill="#114"/>
<text x="118.57142857142857" y="327.8580268127214" text-anchor="middle" font-size="11">1.03</text>
<text x="118.57142857142857" y="376" text-anchor="middle" font-size="12">zaxpy</text>
<polygon points="236.8,341.9 237.4,341.7 238.1,341.6 239.1,341.4 240.3,341.2 241.8,341.1 243.4,340.9 245.2,340.8 247.1,340.6 249.0,340.4 250.9,340.3 252.7,340.1 254.5,339.9 256.2,339.8 257.9,339.6 259.6,339.5 261.3,339.3 263.1,339.1 264.8,339.0 266.5,338.8 268.2,338.6 270.0,338.5 271.7,338.3 273.6,338.2 275.6,338.0 277.8,337.8 280.0,337.7 282.0,337.5 283.7,337.3 284.7,337.2 284.9,337.0 284.2,336.8 282.6,336.7 280.2,336.5 277.3,336.4 274.1,336.2 271.0,336.0 268.0,335.9 265.3,335.7 262.8,335.5 260.6,335.4 258.3,335.2 256.1,335.1 253.7,334.9 251.3,334.7 248.9,334.6 246.6,334.4 244.5,334.2 242.8,334.1 241.4,333.9 240.4,333.8 239.8,333.6 239.5,333.4 239.5,333.3 239.7,333.1 240.2,332.9 240.8,332.8 241.6,332.6 242.5,332.5 243.4,332.3 244.2,332.1 244.9,332.0 245.3,331.8 245.4,331.6 245.1,331.5 244.4,331.3 243.4,331.2 242.3,331.0 241.0,330.8 239.8,330.7 238.7,330.5 237.8,330.3 233.6,330.3 232.7,330.5 231.6,330.7 230.4,330.8 229.2,331.0 228.0,331.2 227.0,331.3 226.3,331.5 226.0,331.6 226.1,331.8 226.5,332.0 227.2,332.1 228.1,332.3 229.0,332.5 229.9,332.6 230.6,332.8 231.3,332.9 231.7,333.1 231.9,333.3 231.9,333.4 231.6,333.6 231.0,333.8 230.0,333.9 228.7,334.1 226.9,334.2 224.9,334.4 222.6,334.6 220.2,334.7 217.7,334.9 215.4,335.1 213.1,335.2 210.9,335.4 208.6,335.5 206.2,335.7 203.4,335.9 200.5,336.0 197.3,336.2 194.1,336.4 191.2,336.5 188.8,336.7 187.2,336.8 186.5,337.0 186.7,337.2 187.7,337.3 189.4,337.5 191.4,337.7 193.6,337.8 195.8,338.0 197.8,338.2 199.7,338.3 201.5,338.5 203.2,338.6 204.9,338.8 206.6,339.0 208.4,339.1 210.1,339.3 211.8,339.5 213.5,339.6 215.2,339.8 216.9,339.9 218.7,340.1 220.5,340.3 222.4,340.4 224.3,340.6 226.2,340.8 228.0,340.9 229.6,341.1 231.1,341.2 232.3,341.4 233.3,341.6 234.1,341.7 234.6,341.9" fill="#d33" opacity="0.5" stroke="#d33" stroke-width="1"/>
<line x1="186.8" y1="337.1825408016196" x2="284.7" y2="337.1825408016196" stroke="#114" stroke-width="2"/>
<circle cx="235.71428571428572" cy="339.83713921609433" r="2.4" fill="#114"/>
<text x="235.71428571428572" y="325.4882377345522" text-anchor="middle" font-size="11">1.09</text>
<text x="235.71428571428572" y="376" text-anchor="middle" font-size="12">zdotc</text>
<polygon points="352.9,343.9 352.9,343.8 352.9,343.7 352.9,343.6 352.9,343.5 353.0,343.4 353.1,343.3 353.1,343.2 353.1,343.1 353.0,343.0 353.0,342.9 352.9,342.8 352.9,342.7 352.9,342.6 352.9,342.5 352.9,342.4 352.9,342.3 353.0,342.2 353.0,342.1 353.1,342.0 353.1,341.9 353.1,341.8 353.0,341.7 352.9,341.6 352.9,341.5 352.9,341.4 352.9,341.3 352.9,341.2 352.9,341.1 352.9,341.0 352.9,340.9 352.9,340.8 352.9,340.8 352.9,340.7 353.0,340.6 353.2,340.5 353.7,340.4 354.5,340.3 355.6,340.2 356.6,340.1 357.4,340.0 357.9,339.9 358.4,339.8 359.3,339.7 360.6,339.6 362.3,339.5 364.3,339.4 367.5,339.3 373.6,339.2 383.2,339.1 394.4,339.0 402.1,338.9 401.8,338.8 394.0,338.7 383.8,338.6 375.7,338.5 371.0,338.4 368.7,338.3 367.5,338.2 367.2,338.1 367.2,338.0 366.6,337.9 364.6,337.8 361.5,337.7 358.3,337.6 355.7,337.5 354.1,337.4 353.3,337.3 353.0,337.3 352.9,337.2 352.9,337.1 352.9,337.0 352.9,337.0 352.9,337.1 352.8,337.2 352.7,337.3 352.4,337.3 351.6,337.4 350.0,337.5 347.4,337.6 344.2,337.7 341.1,337.8 339.2,337.9 338.5,338.0 338.5,338.1 338.2,338.2 337.1,338.3 334.7,338.4 330.0,338.5 322.0,338.6 311.7,338.7 303.9,338.8 303.7,338.9 311.3,339.0 322.5,339.1 332.1,339.2 338.2,339.3 341.4,339.4 343.4,339.5 345.1,339.6 346.5,339.7 347.3,339.8 347.8,339.9 348.3,340.0 349.1,340.1 350.2,340.2 351.2,340.3 352.0,340.4 352.5,340.5 352.7,340.6 352.8,340.7 352.9,340.8 352.9,340.8 352.9,340.9 352.9,341.0 352.9,341.1 352.9,341.2 352.9,341.3 352.8,341.4 352.8,341.5 352.8,341.6 352.7,341.7 352.6,341.8 352.6,341.9 352.6,342.0 352.7,342.1 352.8,342.2 352.8,342.3 352.8,342.4 352.9,342.5 352.9,342.6 352.8,342.7 352.8,342.8 352.8,342.9 352.7,343.0 352.6,343.1 352.6,343.2 352.6,343.3 352.7,343.4 352.8,343.5 352.8,343.6 352.8,343.7 352.9,343.8 352.9,343.9" fill="#2a8" opacity="0.5" stroke="#2a8" stroke-width="1"/>
<line x1="302.7" y1="338.85158534269124" x2="403.0" y2="338.85158534269124" stroke="#114" stroke-width="2"/>
<circle cx="352.85714285714283" cy="339.27357986942195" r="2.4" fill="#114"/>
<text x="352.85714285714283" y="331.6583995041007" text-anchor="middle" font-size="11">1.00</text>
<text x="352.85714285714283" y="376" text-anchor="middle" font-size="12">zscal</text>
<polygon points="482.2,295.4 484.6,291.9 487.2,288.5 489.9,285.0 492.7,281.6 495.5,278.1 498.2,274.6 500.7,271.2 503.1,267.7 505.1,264.3 506.8,260.8 508.1,257.4 509.1,253.9 509.6,250.4 509.7,247.0 509.5,243.5 508.9,240.1 508.0,236.6 506.7,233.2 505.3,229.7 503.5,226.3 501.6,222.8 499.6,219.3 497.4,215.9 495.2,212.4 493.0,209.0 490.9,205.5 488.9,202.1 487.1,198.6 485.5,195.2 484.2,191.7 483.3,188.2 482.7,184.8 482.5,181.3 482.7,177.9 483.2,174.4 483.9,171.0 484.9,167.5 486.0,164.0 487.3,160.6 488.5,157.1 489.8,153.7 491.1,150.2 492.3,146.8 493.4,143.3 494.6,139.9 495.9,136.4 497.2,132.9 498.7,129.5 500.4,126.0 502.3,122.6 504.4,119.1 506.6,115.7 509.0,112.2 511.3,108.8 513.6,105.3 515.6,101.8 517.3,98.4 518.5,94.9 519.2,91.5 519.2,88.0 518.6,84.6 517.2,81.1 515.3,77.6 512.8,74.2 509.8,70.7 506.4,67.3 502.8,63.8 499.2,60.4 495.5,56.9 491.9,53.5 488.5,50.0 451.5,50.0 448.1,53.5 444.5,56.9 440.8,60.4 437.2,63.8 433.6,67.3 430.2,70.7 427.2,74.2 424.7,77.6 422.8,81.1 421.4,84.6 420.8,88.0 420.8,91.5 421.5,94.9 422.7,98.4 424.4,101.8 426.4,105.3 428.7,108.8 431.0,112.2 433.4,115.7 435.6,119.1 437.7,122.6 439.6,126.0 441.3,129.5 442.8,132.9 444.1,136.4 445.4,139.9 446.6,143.3 447.7,146.8 448.9,150.2 450.2,153.7 451.5,157.1 452.7,160.6 454.0,164.0 455.1,167.5 456.1,171.0 456.8,174.4 457.3,177.9 457.5,181.3 457.3,184.8 456.7,188.2 455.8,191.7 454.5,195.2 452.9,198.6 451.1,202.1 449.1,205.5 447.0,209.0 444.8,212.4 442.6,215.9 440.4,219.3 438.4,222.8 436.5,226.3 434.7,229.7 433.3,233.2 432.0,236.6 431.1,240.1 430.5,243.5 430.3,247.0 430.4,250.4 430.9,253.9 431.9,257.4 433.2,260.8 434.9,264.3 436.9,267.7 439.3,271.2 441.8,274.6 444.5,278.1 447.3,281.6 450.1,285.0 452.8,288.5 455.4,291.9 457.8,295.4" fill="#2a8" opacity="0.5" stroke="#2a8" stroke-width="1"/>
<line x1="447.7" y1="146.7939086941837" x2="492.3" y2="146.7939086941837" stroke="#114" stroke-width="2"/>
<circle cx="470.0" cy="268.23272192570573" r="2.4" fill="#114"/>
<text x="470.0" y="61.43396226415098" text-anchor="middle" font-size="11">11.01</text>
<text x="470.0" y="376" text-anchor="middle" font-size="12">dznrm2</text>
<polygon points="587.7,339.8 588.2,339.8 588.8,339.7 589.9,339.6 591.3,339.5 593.4,339.4 596.1,339.3 599.5,339.2 603.7,339.1 608.5,339.0 613.8,338.9 619.3,338.8 624.5,338.7 629.2,338.6 632.8,338.5 635.3,338.5 636.3,338.4 636.2,338.3 635.0,338.2 633.3,338.1 631.4,338.0 629.7,337.9 628.3,337.8 627.0,337.7 625.8,337.6 624.2,337.5 621.9,337.4 618.8,337.3 615.0,337.2 610.6,337.2 606.1,337.1 601.7,337.0 597.8,336.9 594.6,336.8 592.1,336.7 590.3,336.6 589.1,336.5 588.4,336.4 588.0,336.3 587.9,336.2 588.1,336.1 588.5,336.0 589.1,336.0 590.0,335.9 591.2,335.8 592.6,335.7 594.2,335.6 595.8,335.5 597.2,335.4 598.4,335.3 599.1,335.2 599.2,335.1 598.9,335.0 598.0,334.9 596.9,334.8 595.5,334.7 594.2,334.7 592.9,334.6 591.8,334.5 590.9,334.4 590.2,334.3 589.6,334.2 589.2,334.1 588.8,334.0 588.5,333.9 588.2,333.8 588.0,333.7 587.8,333.6 587.6,333.5 587.5,333.4 587.4,333.4 587.3,333.3 587.0,333.3 586.9,333.4 586.8,333.4 586.7,333.5 586.5,333.6 586.3,333.7 586.1,333.8 585.8,333.9 585.5,334.0 585.1,334.1 584.7,334.2 584.1,334.3 583.4,334.4 582.5,334.5 581.4,334.6 580.1,334.7 578.7,334.7 577.4,334.8 576.3,334.9 575.4,335.0 575.1,335.1 575.2,335.2 575.9,335.3 577.1,335.4 578.5,335.5 580.1,335.6 581.7,335.7 583.1,335.8 584.3,335.9 585.2,336.0 585.8,336.0 586.2,336.1 586.4,336.2 586.3,336.3 585.9,336.4 585.1,336.5 583.9,336.6 582.2,336.7 579.7,336.8 576.5,336.9 572.6,337.0 568.2,337.1 563.6,337.2 559.3,337.2 555.4,337.3 552.4,337.4 550.1,337.5 548.5,337.6 547.2,337.7 546.0,337.8 544.6,337.9 542.8,338.0 541.0,338.1 539.3,338.2 538.1,338.3 537.9,338.4 539.0,338.5 541.4,338.5 545.1,338.6 549.8,338.7 555.0,338.8 560.5,338.9 565.8,339.0 570.6,339.1 574.8,339.2 578.2,339.3 580.9,339.4 583.0,339.5 584.4,339.6 585.5,339.7 586.1,339.8 586.6,339.8" fill="#2a8" opacity="0.5" stroke="#2a8" stroke-width="1"/>
<line x1="541.4" y1="338.06092623864566" x2="632.9" y2="338.06092623864566" stroke="#114" stroke-width="2"/>
<circle cx="587.1428571428571" cy="338.7241793840507" r="2.4" fill="#114"/>
<text x="587.1428571428571" y="327.9322694282307" text-anchor="middle" font-size="11">1.04</text>
<text x="587.1428571428571" y="376" text-anchor="middle" font-size="12">dzasum</text>
<polygon points="705.5,341.3 706.1,341.1 706.8,341.0 707.8,340.8 709.1,340.7 710.6,340.5 712.5,340.4 714.8,340.2 717.6,340.1 720.7,339.9 724.1,339.8 727.8,339.6 731.5,339.5 735.2,339.3 738.7,339.2 741.7,339.0 744.3,338.9 746.4,338.7 748.0,338.6 749.3,338.4 750.3,338.3 751.2,338.1 752.0,338.0 752.7,337.8 753.3,337.7 753.5,337.5 753.2,337.4 752.3,337.2 750.7,337.1 748.3,336.9 745.4,336.8 742.1,336.6 738.6,336.5 735.2,336.3 732.2,336.2 729.6,336.1 727.7,335.9 726.4,335.8 725.7,335.6 725.5,335.5 725.4,335.3 725.3,335.2 724.9,335.0 724.2,334.9 723.0,334.7 721.5,334.6 719.6,334.4 717.5,334.3 715.4,334.1 713.5,334.0 711.8,333.8 710.6,333.7 709.7,333.5 709.3,333.4 709.3,333.2 709.7,333.1 710.5,332.9 711.4,332.8 712.6,332.6 713.7,332.5 714.8,332.3 715.7,332.2 716.3,332.0 716.4,331.9 716.1,331.7 715.4,331.6 714.4,331.4 713.0,331.3 711.6,331.1 710.1,331.0 708.8,330.9 707.6,330.7 700.9,330.7 699.8,330.9 698.4,331.0 697.0,331.1 695.5,331.3 694.2,331.4 693.2,331.6 692.4,331.7 692.2,331.9 692.3,332.0 692.9,332.2 693.7,332.3 694.8,332.5 696.0,332.6 697.1,332.8 698.1,332.9 698.8,333.1 699.2,333.2 699.2,333.4 698.8,333.5 698.0,333.7 696.8,333.8 695.1,334.0 693.2,334.1 691.1,334.3 689.0,334.4 687.1,334.6 685.5,334.7 684.4,334.9 683.6,335.0 683.3,335.2 683.2,335.3 683.1,335.5 682.8,335.6 682.1,335.8 680.9,335.9 679.0,336.1 676.4,336.2 673.4,336.3 670.0,336.5 666.5,336.6 663.1,336.8 660.2,336.9 657.9,337.1 656.3,337.2 655.4,337.4 655.1,337.5 655.3,337.7 655.9,337.8 656.6,338.0 657.4,338.1 658.3,338.3 659.3,338.4 660.6,338.6 662.2,338.7 664.2,338.9 666.8,339.0 669.9,339.2 673.3,339.3 677.0,339.5 680.8,339.6 684.5,339.8 687.9,339.9 691.0,340.1 693.7,340.2 696.0,340.4 698.0,340.5 699.5,340.7 700.8,340.8 701.7,341.0 702.5,341.1 703.1,341.3" fill="#2a8" opacity="0.5" stroke="#2a8" stroke-width="1"/>
<line x1="655.7" y1="337.31413757361145" x2="752.8" y2="337.31413757361145" stroke="#114" stroke-width="2"/>
<circle cx="704.2857142857142" cy="339.13316043540965" r="2.4" fill="#114"/>
<text x="704.2857142857142" y="325.7551239227894" text-anchor="middle" font-size="11">1.08</text>
<text x="704.2857142857142" y="376" text-anchor="middle" font-size="12">zdotu</text>
<polygon points="822.7,337.6 823.3,337.2 824.1,336.8 825.2,336.4 826.5,336.0 828.0,335.6 829.9,335.2 831.9,334.8 834.1,334.4 836.5,334.0 838.9,333.6 841.3,333.2 843.6,332.8 845.7,332.5 847.6,332.1 849.3,331.7 850.8,331.3 852.1,330.9 853.2,330.5 854.2,330.1 855.2,329.7 856.2,329.3 857.3,328.9 858.3,328.5 859.3,328.1 860.3,327.7 861.1,327.3 861.8,326.9 862.2,326.6 862.4,326.2 862.4,325.8 862.2,325.4 862.0,325.0 861.8,324.6 861.8,324.2 862.0,323.8 862.5,323.4 863.4,323.0 864.5,322.6 865.7,322.2 867.0,321.8 868.3,321.4 869.3,321.1 870.1,320.7 870.5,320.3 870.6,319.9 870.4,319.5 869.9,319.1 869.2,318.7 868.4,318.3 867.5,317.9 866.5,317.5 865.5,317.1 864.5,316.7 863.3,316.3 861.9,315.9 860.3,315.5 858.4,315.2 856.2,314.8 853.7,314.4 850.9,314.0 847.9,313.6 844.7,313.2 841.5,312.8 838.4,312.4 835.4,312.0 832.6,311.6 830.1,311.2 828.0,310.8 826.3,310.4 824.9,310.0 823.8,309.7 819.1,309.7 818.0,310.0 816.6,310.4 814.8,310.8 812.7,311.2 810.3,311.6 807.5,312.0 804.5,312.4 801.3,312.8 798.1,313.2 795.0,313.6 792.0,314.0 789.2,314.4 786.7,314.8 784.5,315.2 782.6,315.5 781.0,315.9 779.6,316.3 778.4,316.7 777.3,317.1 776.3,317.5 775.4,317.9 774.5,318.3 773.7,318.7 773.0,319.1 772.5,319.5 772.2,319.9 772.3,320.3 772.7,320.7 773.5,321.1 774.6,321.4 775.8,321.8 777.1,322.2 778.4,322.6 779.5,323.0 780.3,323.4 780.8,323.8 781.1,324.2 781.0,324.6 780.9,325.0 780.6,325.4 780.5,325.8 780.4,326.2 780.6,326.6 781.1,326.9 781.7,327.3 782.6,327.7 783.5,328.1 784.5,328.5 785.6,328.9 786.6,329.3 787.6,329.7 788.6,330.1 789.7,330.5 790.8,330.9 792.1,331.3 793.5,331.7 795.2,332.1 797.1,332.5 799.3,332.8 801.5,333.2 803.9,333.6 806.3,334.0 808.7,334.4 811.0,334.8 813.0,335.2 814.8,335.6 816.4,336.0 817.7,336.4 818.7,336.8 819.5,337.2 820.1,337.6" fill="#2a8" opacity="0.5" stroke="#2a8" stroke-width="1"/>
<line x1="776.3" y1="321.97812742445956" x2="866.6" y2="321.97812742445956" stroke="#114" stroke-width="2"/>
<circle cx="821.4285714285714" cy="323.40683233688696" r="2.4" fill="#114"/>
<text x="821.4285714285714" y="306.3849407324673" text-anchor="middle" font-size="11">1.88</text>
<text x="821.4285714285714" y="376" text-anchor="middle" font-size="12">izamax</text>
<text x="450.0" y="428" text-anchor="middle" font-size="11" fill="#666">violin = ratio distribution over sizes · line = median · dark dot = worst size · green = every size ≥ gate</text>
</svg>
