<svg xmlns="http://www.w3.org/2000/svg" width="962" height="420" font-family="sans-serif">
<rect width="962" height="420" fill="white"/>
<text x="481.0" y="26" text-anchor="middle" font-size="17" font-weight="bold">BLAS-1 — PureBLAS / OpenBLAS (PB/OpenBLAS ratio)</text>
<line x1="46" y1="42" x2="68" y2="42" stroke="#d62728" stroke-width="3"/>
<text x="73" y="46" font-size="12">Zen3 · AVX2</text>
<line x1="176" y1="42" x2="198" y2="42" stroke="#2ca02c" stroke-width="3"/>
<text x="203" y="46" font-size="12">Zen5 · AVX-512</text>
<line x1="327" y1="42" x2="349" y2="42" stroke="#1f77b4" stroke-width="3"/>
<text x="354" y="46" font-size="12">Zen4 · AVX-512</text>
<rect x="46" y="60" width="210" height="138" fill="none" stroke="#e2e2e2"/>
<line x1="46" y1="115.76276119065531" x2="256" y2="115.76276119065531" stroke="#d33" stroke-dasharray="4 3"/>
<text x="42" y="201.0" text-anchor="end" font-size="9" fill="#999">0.5×</text>
<text x="42" y="118.76276119065531" text-anchor="end" font-size="9" fill="#999">1.0×</text>
<text x="42" y="63.0" text-anchor="end" font-size="9" fill="#999">1.6×</text>
<polygon points="46.0,110.2 79.4,113.2 116.0,115.5 149.4,114.4 186.0,114.4 219.4,112.5 256.0,112.7 256.0,120.5 219.4,117.1 186.0,115.5 149.4,116.5 116.0,115.6 79.4,113.6 46.0,110.6" fill="#d62728" opacity="0.11"/>
<polyline points="46.0,110.5 79.4,113.3 116.0,115.5 149.4,115.3 186.0,114.9 219.4,115.6 256.0,116.6" fill="none" stroke="#d62728" stroke-width="1.6"/>
<circle cx="46.0" cy="110.5" r="2" fill="#d62728"/>
<circle cx="79.4" cy="113.3" r="2" fill="#d62728"/>
<circle cx="116.0" cy="115.5" r="2" fill="#d62728"/>
<circle cx="149.4" cy="115.3" r="2" fill="#d62728"/>
<circle cx="186.0" cy="114.9" r="2" fill="#d62728"/>
<circle cx="219.4" cy="115.6" r="2" fill="#d62728"/>
<circle cx="256.0" cy="116.6" r="2" fill="#d62728"/>
<polygon points="46.0,108.4 79.4,107.8 116.0,114.5 149.4,116.1 186.0,115.1 219.4,108.5 256.0,104.8 256.0,119.9 219.4,116.2 186.0,115.8 149.4,117.1 116.0,116.7 79.4,111.3 46.0,109.9" fill="#2ca02c" opacity="0.11"/>
<polyline points="46.0,109.5 79.4,108.6 116.0,115.9 149.4,116.7 186.0,115.4 219.4,114.2 256.0,116.2" fill="none" stroke="#2ca02c" stroke-width="1.6"/>
<circle cx="46.0" cy="109.5" r="2" fill="#2ca02c"/>
<circle cx="79.4" cy="108.6" r="2" fill="#2ca02c"/>
<circle cx="116.0" cy="115.9" r="2" fill="#2ca02c"/>
<circle cx="149.4" cy="116.7" r="2" fill="#2ca02c"/>
<circle cx="186.0" cy="115.4" r="2" fill="#2ca02c"/>
<circle cx="219.4" cy="114.2" r="2" fill="#2ca02c"/>
<circle cx="256.0" cy="116.2" r="2" fill="#2ca02c"/>
<polygon points="46.0,103.5 79.4,113.4 116.0,115.0 149.4,115.2 186.0,113.7 219.4,113.6 256.0,112.1 256.0,121.5 219.4,115.0 186.0,117.4 149.4,115.7 116.0,115.6 79.4,113.9 46.0,104.1" fill="#1f77b4" opacity="0.11"/>
<polyline points="46.0,103.9 79.4,113.8 116.0,115.2 149.4,115.5 186.0,115.1 219.4,114.3 256.0,116.5" fill="none" stroke="#1f77b4" stroke-width="1.6"/>
<circle cx="46.0" cy="103.9" r="2" fill="#1f77b4"/>
<circle cx="79.4" cy="113.8" r="2" fill="#1f77b4"/>
<circle cx="116.0" cy="115.2" r="2" fill="#1f77b4"/>
<circle cx="149.4" cy="115.5" r="2" fill="#1f77b4"/>
<circle cx="186.0" cy="115.1" r="2" fill="#1f77b4"/>
<circle cx="219.4" cy="114.3" r="2" fill="#1f77b4"/>
<circle cx="256.0" cy="116.5" r="2" fill="#1f77b4"/>
<text x="151.0" y="55" text-anchor="middle" font-size="12" font-weight="bold">axpy</text>
<line x1="46.0" y1="60" x2="46.0" y2="198" stroke="#f4f4f4"/>
<text x="46.0" y="209" text-anchor="middle" font-size="8" fill="#999">1000</text>
<line x1="79.4" y1="60" x2="79.4" y2="198" stroke="#f4f4f4"/>
<text x="79.4" y="209" text-anchor="middle" font-size="8" fill="#999">2k</text>
<line x1="116.0" y1="60" x2="116.0" y2="198" stroke="#f4f4f4"/>
<text x="116.0" y="209" text-anchor="middle" font-size="8" fill="#999">9k</text>
<line x1="149.4" y1="60" x2="149.4" y2="198" stroke="#f4f4f4"/>
<text x="149.4" y="209" text-anchor="middle" font-size="8" fill="#999">29k</text>
<line x1="186.0" y1="60" x2="186.0" y2="198" stroke="#f4f4f4"/>
<text x="186.0" y="209" text-anchor="middle" font-size="8" fill="#999">97k</text>
<line x1="219.4" y1="60" x2="219.4" y2="198" stroke="#f4f4f4"/>
<text x="219.4" y="209" text-anchor="middle" font-size="8" fill="#999">292k</text>
<line x1="256.0" y1="60" x2="256.0" y2="198" stroke="#f4f4f4"/>
<text x="256.0" y="209" text-anchor="middle" font-size="8" fill="#999">976k</text>
<rect x="276" y="60" width="210" height="138" fill="none" stroke="#e2e2e2"/>
<line x1="276" y1="115.76276119065531" x2="486" y2="115.76276119065531" stroke="#d33" stroke-dasharray="4 3"/>
<text x="272" y="201.0" text-anchor="end" font-size="9" fill="#999">0.5×</text>
<text x="272" y="118.76276119065531" text-anchor="end" font-size="9" fill="#999">1.0×</text>
<text x="272" y="63.0" text-anchor="end" font-size="9" fill="#999">1.6×</text>
<polygon points="276.0,108.8 309.4,115.3 346.0,115.6 379.4,114.8 416.0,116.3 449.4,116.1 486.0,111.6 486.0,119.5 449.4,117.9 416.0,117.2 379.4,116.9 346.0,115.7 309.4,115.7 276.0,109.7" fill="#d62728" opacity="0.11"/>
<polyline points="276.0,109.2 309.4,115.4 346.0,115.7 379.4,116.1 416.0,116.6 449.4,116.6 486.0,116.3" fill="none" stroke="#d62728" stroke-width="1.6"/>
<circle cx="276.0" cy="109.2" r="2" fill="#d62728"/>
<circle cx="309.4" cy="115.4" r="2" fill="#d62728"/>
<circle cx="346.0" cy="115.7" r="2" fill="#d62728"/>
<circle cx="379.4" cy="116.1" r="2" fill="#d62728"/>
<circle cx="416.0" cy="116.6" r="2" fill="#d62728"/>
<circle cx="449.4" cy="116.6" r="2" fill="#d62728"/>
<circle cx="486.0" cy="116.3" r="2" fill="#d62728"/>
<polygon points="276.0,112.7 309.4,114.9 346.0,114.6 379.4,114.5 416.0,116.0 449.4,111.4 486.0,103.6 486.0,128.6 449.4,116.5 416.0,118.1 379.4,119.2 346.0,116.2 309.4,116.7 276.0,113.3" fill="#2ca02c" opacity="0.11"/>
<polyline points="276.0,113.1 309.4,115.3 346.0,115.0 379.4,116.0 416.0,117.3 449.4,115.0 486.0,119.3" fill="none" stroke="#2ca02c" stroke-width="1.6"/>
<circle cx="276.0" cy="113.1" r="2" fill="#2ca02c"/>
<circle cx="309.4" cy="115.3" r="2" fill="#2ca02c"/>
<circle cx="346.0" cy="115.0" r="2" fill="#2ca02c"/>
<circle cx="379.4" cy="116.0" r="2" fill="#2ca02c"/>
<circle cx="416.0" cy="117.3" r="2" fill="#2ca02c"/>
<circle cx="449.4" cy="115.0" r="2" fill="#2ca02c"/>
<circle cx="486.0" cy="119.3" r="2" fill="#2ca02c"/>
<polygon points="276.0,113.3 309.4,115.4 346.0,115.7 379.4,115.3 416.0,115.3 449.4,115.1 486.0,114.0 486.0,119.6 449.4,116.4 416.0,116.3 379.4,116.3 346.0,116.0 309.4,115.8 276.0,114.2" fill="#1f77b4" opacity="0.11"/>
<polyline points="276.0,113.8 309.4,115.6 346.0,115.8 379.4,115.8 416.0,115.9 449.4,115.8 486.0,115.4" fill="none" stroke="#1f77b4" stroke-width="1.6"/>
<circle cx="276.0" cy="113.8" r="2" fill="#1f77b4"/>
<circle cx="309.4" cy="115.6" r="2" fill="#1f77b4"/>
<circle cx="346.0" cy="115.8" r="2" fill="#1f77b4"/>
<circle cx="379.4" cy="115.8" r="2" fill="#1f77b4"/>
<circle cx="416.0" cy="115.9" r="2" fill="#1f77b4"/>
<circle cx="449.4" cy="115.8" r="2" fill="#1f77b4"/>
<circle cx="486.0" cy="115.4" r="2" fill="#1f77b4"/>
<text x="381.0" y="55" text-anchor="middle" font-size="12" font-weight="bold">dot</text>
<line x1="276.0" y1="60" x2="276.0" y2="198" stroke="#f4f4f4"/>
<text x="276.0" y="209" text-anchor="middle" font-size="8" fill="#999">1000</text>
<line x1="309.4" y1="60" x2="309.4" y2="198" stroke="#f4f4f4"/>
<text x="309.4" y="209" text-anchor="middle" font-size="8" fill="#999">2k</text>
<line x1="346.0" y1="60" x2="346.0" y2="198" stroke="#f4f4f4"/>
<text x="346.0" y="209" text-anchor="middle" font-size="8" fill="#999">9k</text>
<line x1="379.4" y1="60" x2="379.4" y2="198" stroke="#f4f4f4"/>
<text x="379.4" y="209" text-anchor="middle" font-size="8" fill="#999">29k</text>
<line x1="416.0" y1="60" x2="416.0" y2="198" stroke="#f4f4f4"/>
<text x="416.0" y="209" text-anchor="middle" font-size="8" fill="#999">97k</text>
<line x1="449.4" y1="60" x2="449.4" y2="198" stroke="#f4f4f4"/>
<text x="449.4" y="209" text-anchor="middle" font-size="8" fill="#999">292k</text>
<line x1="486.0" y1="60" x2="486.0" y2="198" stroke="#f4f4f4"/>
<text x="486.0" y="209" text-anchor="middle" font-size="8" fill="#999">976k</text>
<rect x="506" y="60" width="210" height="138" fill="none" stroke="#e2e2e2"/>
<line x1="506" y1="170.37524448647144" x2="716" y2="170.37524448647144" stroke="#d33" stroke-dasharray="4 3"/>
<text x="502" y="201.0" text-anchor="end" font-size="9" fill="#999">0.5×</text>
<text x="502" y="173.37524448647144" text-anchor="end" font-size="9" fill="#999">1.0×</text>
<text x="502" y="63.00096149439202" text-anchor="end" font-size="9" fill="#999">15.95×</text>
<polygon points="506.0,89.8 539.4,88.3 576.0,88.1 609.4,87.7 646.0,96.2 679.4,96.5 716.0,97.5 716.0,102.9 679.4,99.7 646.0,97.6 609.4,88.0 576.0,88.4 539.4,88.5 506.0,90.0" fill="#d62728" opacity="0.11"/>
<polyline points="506.0,90.0 539.4,88.5 576.0,88.3 609.4,87.9 646.0,96.9 679.4,97.2 716.0,99.3" fill="none" stroke="#d62728" stroke-width="1.6"/>
<circle cx="506.0" cy="90.0" r="2" fill="#d62728"/>
<circle cx="539.4" cy="88.5" r="2" fill="#d62728"/>
<circle cx="576.0" cy="88.3" r="2" fill="#d62728"/>
<circle cx="609.4" cy="87.9" r="2" fill="#d62728"/>
<circle cx="646.0" cy="96.9" r="2" fill="#d62728"/>
<circle cx="679.4" cy="97.2" r="2" fill="#d62728"/>
<circle cx="716.0" cy="99.3" r="2" fill="#d62728"/>
<polygon points="506.0,67.9 539.4,63.1 576.0,74.4 609.4,73.3 646.0,66.8 679.4,94.0 716.0,90.4 716.0,94.1 679.4,94.7 646.0,77.5 609.4,74.0 576.0,75.3 539.4,63.4 506.0,69.1" fill="#2ca02c" opacity="0.11"/>
<polyline points="506.0,68.2 539.4,63.3 576.0,74.9 609.4,73.7 646.0,71.6 679.4,94.4 716.0,91.5" fill="none" stroke="#2ca02c" stroke-width="1.6"/>
<circle cx="506.0" cy="68.2" r="2" fill="#2ca02c"/>
<circle cx="539.4" cy="63.3" r="2" fill="#2ca02c"/>
<circle cx="576.0" cy="74.9" r="2" fill="#2ca02c"/>
<circle cx="609.4" cy="73.7" r="2" fill="#2ca02c"/>
<circle cx="646.0" cy="71.6" r="2" fill="#2ca02c"/>
<circle cx="679.4" cy="94.4" r="2" fill="#2ca02c"/>
<circle cx="716.0" cy="91.5" r="2" fill="#2ca02c"/>
<polygon points="506.0,69.5 539.4,67.7 576.0,87.6 609.4,87.4 646.0,88.3 679.4,94.1 716.0,95.4 716.0,96.8 679.4,95.3 646.0,92.6 609.4,87.9 576.0,87.9 539.4,68.8 506.0,72.0" fill="#1f77b4" opacity="0.11"/>
<polyline points="506.0,70.5 539.4,68.3 576.0,87.8 609.4,87.7 646.0,91.0 679.4,94.4 716.0,95.7" fill="none" stroke="#1f77b4" stroke-width="1.6"/>
<circle cx="506.0" cy="70.5" r="2" fill="#1f77b4"/>
<circle cx="539.4" cy="68.3" r="2" fill="#1f77b4"/>
<circle cx="576.0" cy="87.8" r="2" fill="#1f77b4"/>
<circle cx="609.4" cy="87.7" r="2" fill="#1f77b4"/>
<circle cx="646.0" cy="91.0" r="2" fill="#1f77b4"/>
<circle cx="679.4" cy="94.4" r="2" fill="#1f77b4"/>
<circle cx="716.0" cy="95.7" r="2" fill="#1f77b4"/>
<text x="611.0" y="55" text-anchor="middle" font-size="12" font-weight="bold">nrm2</text>
<line x1="506.0" y1="60" x2="506.0" y2="198" stroke="#f4f4f4"/>
<text x="506.0" y="209" text-anchor="middle" font-size="8" fill="#999">1000</text>
<line x1="539.4" y1="60" x2="539.4" y2="198" stroke="#f4f4f4"/>
<text x="539.4" y="209" text-anchor="middle" font-size="8" fill="#999">2k</text>
<line x1="576.0" y1="60" x2="576.0" y2="198" stroke="#f4f4f4"/>
<text x="576.0" y="209" text-anchor="middle" font-size="8" fill="#999">9k</text>
<line x1="609.4" y1="60" x2="609.4" y2="198" stroke="#f4f4f4"/>
<text x="609.4" y="209" text-anchor="middle" font-size="8" fill="#999">29k</text>
<line x1="646.0" y1="60" x2="646.0" y2="198" stroke="#f4f4f4"/>
<text x="646.0" y="209" text-anchor="middle" font-size="8" fill="#999">97k</text>
<line x1="679.4" y1="60" x2="679.4" y2="198" stroke="#f4f4f4"/>
<text x="679.4" y="209" text-anchor="middle" font-size="8" fill="#999">292k</text>
<line x1="716.0" y1="60" x2="716.0" y2="198" stroke="#f4f4f4"/>
<text x="716.0" y="209" text-anchor="middle" font-size="8" fill="#999">976k</text>
<rect x="736" y="60" width="210" height="138" fill="none" stroke="#e2e2e2"/>
<line x1="736" y1="132.2069298433322" x2="946" y2="132.2069298433322" stroke="#d33" stroke-dasharray="4 3"/>
<text x="732" y="201.0" text-anchor="end" font-size="9" fill="#999">0.5×</text>
<text x="732" y="135.2069298433322" text-anchor="end" font-size="9" fill="#999">1.0×</text>
<polygon points="736.0,70.8 769.4,67.3 806.0,89.7 839.4,90.0 876.0,100.9 909.4,104.4 946.0,104.9 946.0,113.8 909.4,114.1 876.0,104.8 839.4,90.8 806.0,90.3 769.4,68.0 736.0,72.2" fill="#d62728" opacity="0.11"/>
<polyline points="736.0,71.5 769.4,67.6 806.0,90.1 839.4,90.4 876.0,103.7 909.4,105.0 946.0,106.8" fill="none" stroke="#d62728" stroke-width="1.6"/>
<circle cx="736.0" cy="71.5" r="2" fill="#d62728"/>
<circle cx="769.4" cy="67.6" r="2" fill="#d62728"/>
<circle cx="806.0" cy="90.1" r="2" fill="#d62728"/>
<circle cx="839.4" cy="90.4" r="2" fill="#d62728"/>
<circle cx="876.0" cy="103.7" r="2" fill="#d62728"/>
<circle cx="909.4" cy="105.0" r="2" fill="#d62728"/>
<circle cx="946.0" cy="106.8" r="2" fill="#d62728"/>
<polygon points="736.0,102.8 769.4,122.8 806.0,131.5 839.4,131.8 876.0,129.4 909.4,131.8 946.0,126.2 946.0,139.8 909.4,132.6 876.0,136.3 839.4,132.2 806.0,133.7 769.4,123.1 736.0,103.5" fill="#2ca02c" opacity="0.11"/>
<polyline points="736.0,103.2 769.4,122.9 806.0,132.7 839.4,131.9 876.0,132.2 909.4,132.2 946.0,133.9" fill="none" stroke="#2ca02c" stroke-width="1.6"/>
<circle cx="736.0" cy="103.2" r="2" fill="#2ca02c"/>
<circle cx="769.4" cy="122.9" r="2" fill="#2ca02c"/>
<circle cx="806.0" cy="132.7" r="2" fill="#2ca02c"/>
<circle cx="839.4" cy="131.9" r="2" fill="#2ca02c"/>
<circle cx="876.0" cy="132.2" r="2" fill="#2ca02c"/>
<circle cx="909.4" cy="132.2" r="2" fill="#2ca02c"/>
<circle cx="946.0" cy="133.9" r="2" fill="#2ca02c"/>
<polygon points="736.0,96.9 769.4,117.5 806.0,132.0 839.4,132.1 876.0,130.8 909.4,131.4 946.0,129.5 946.0,133.8 909.4,133.1 876.0,132.8 839.4,132.4 806.0,132.2 769.4,118.0 736.0,97.5" fill="#1f77b4" opacity="0.11"/>
<polyline points="736.0,97.3 769.4,117.8 806.0,132.1 839.4,132.2 876.0,132.0 909.4,132.3 946.0,132.6" fill="none" stroke="#1f77b4" stroke-width="1.6"/>
<circle cx="736.0" cy="97.3" r="2" fill="#1f77b4"/>
<circle cx="769.4" cy="117.8" r="2" fill="#1f77b4"/>
<circle cx="806.0" cy="132.1" r="2" fill="#1f77b4"/>
<circle cx="839.4" cy="132.2" r="2" fill="#1f77b4"/>
<circle cx="876.0" cy="132.0" r="2" fill="#1f77b4"/>
<circle cx="909.4" cy="132.3" r="2" fill="#1f77b4"/>
<circle cx="946.0" cy="132.6" r="2" fill="#1f77b4"/>
<text x="841.0" y="55" text-anchor="middle" font-size="12" font-weight="bold">asum</text>
<line x1="736.0" y1="60" x2="736.0" y2="198" stroke="#f4f4f4"/>
<text x="736.0" y="209" text-anchor="middle" font-size="8" fill="#999">1000</text>
<line x1="769.4" y1="60" x2="769.4" y2="198" stroke="#f4f4f4"/>
<text x="769.4" y="209" text-anchor="middle" font-size="8" fill="#999">2k</text>
<line x1="806.0" y1="60" x2="806.0" y2="198" stroke="#f4f4f4"/>
<text x="806.0" y="209" text-anchor="middle" font-size="8" fill="#999">9k</text>
<line x1="839.4" y1="60" x2="839.4" y2="198" stroke="#f4f4f4"/>
<text x="839.4" y="209" text-anchor="middle" font-size="8" fill="#999">29k</text>
<line x1="876.0" y1="60" x2="876.0" y2="198" stroke="#f4f4f4"/>
<text x="876.0" y="209" text-anchor="middle" font-size="8" fill="#999">97k</text>
<line x1="909.4" y1="60" x2="909.4" y2="198" stroke="#f4f4f4"/>
<text x="909.4" y="209" text-anchor="middle" font-size="8" fill="#999">292k</text>
<line x1="946.0" y1="60" x2="946.0" y2="198" stroke="#f4f4f4"/>
<text x="946.0" y="209" text-anchor="middle" font-size="8" fill="#999">976k</text>
<rect x="46" y="232" width="210" height="138" fill="none" stroke="#e2e2e2"/>
<line x1="46" y1="287.7627611906553" x2="256" y2="287.7627611906553" stroke="#d33" stroke-dasharray="4 3"/>
<text x="42" y="373.0" text-anchor="end" font-size="9" fill="#999">0.5×</text>
<text x="42" y="290.7627611906553" text-anchor="end" font-size="9" fill="#999">1.0×</text>
<text x="42" y="235.0" text-anchor="end" font-size="9" fill="#999">1.6×</text>
<polygon points="46.0,282.9 79.4,285.4 116.0,286.6 149.4,286.0 186.0,286.7 219.4,285.7 256.0,284.6 256.0,288.0 219.4,289.2 186.0,288.3 149.4,286.6 116.0,287.0 79.4,286.0 46.0,283.1" fill="#d62728" opacity="0.11"/>
<polyline points="46.0,283.1 79.4,285.6 116.0,286.7 149.4,286.4 186.0,287.4 219.4,287.3 256.0,286.4" fill="none" stroke="#d62728" stroke-width="1.6"/>
<circle cx="46.0" cy="283.1" r="2" fill="#d62728"/>
<circle cx="79.4" cy="285.6" r="2" fill="#d62728"/>
<circle cx="116.0" cy="286.7" r="2" fill="#d62728"/>
<circle cx="149.4" cy="286.4" r="2" fill="#d62728"/>
<circle cx="186.0" cy="287.4" r="2" fill="#d62728"/>
<circle cx="219.4" cy="287.3" r="2" fill="#d62728"/>
<circle cx="256.0" cy="286.4" r="2" fill="#d62728"/>
<polygon points="46.0,277.0 79.4,253.4 116.0,282.8 149.4,284.8 186.0,284.0 219.4,287.4 256.0,285.2 256.0,294.0 219.4,288.5 186.0,289.4 149.4,285.1 116.0,283.7 79.4,261.3 46.0,281.7" fill="#2ca02c" opacity="0.11"/>
<polyline points="46.0,278.9 79.4,258.1 116.0,283.1 149.4,285.0 186.0,285.6 219.4,287.8 256.0,288.3" fill="none" stroke="#2ca02c" stroke-width="1.6"/>
<circle cx="46.0" cy="278.9" r="2" fill="#2ca02c"/>
<circle cx="79.4" cy="258.1" r="2" fill="#2ca02c"/>
<circle cx="116.0" cy="283.1" r="2" fill="#2ca02c"/>
<circle cx="149.4" cy="285.0" r="2" fill="#2ca02c"/>
<circle cx="186.0" cy="285.6" r="2" fill="#2ca02c"/>
<circle cx="219.4" cy="287.8" r="2" fill="#2ca02c"/>
<circle cx="256.0" cy="288.3" r="2" fill="#2ca02c"/>
<polygon points="46.0,272.7 79.4,282.2 116.0,287.6 149.4,288.8 186.0,285.5 219.4,287.4 256.0,286.3 256.0,290.9 219.4,293.5 186.0,290.6 149.4,289.3 116.0,287.9 79.4,282.7 46.0,273.3" fill="#1f77b4" opacity="0.11"/>
<polyline points="46.0,273.3 79.4,282.5 116.0,287.8 149.4,289.1 186.0,287.8 219.4,288.5 256.0,289.3" fill="none" stroke="#1f77b4" stroke-width="1.6"/>
<circle cx="46.0" cy="273.3" r="2" fill="#1f77b4"/>
<circle cx="79.4" cy="282.5" r="2" fill="#1f77b4"/>
<circle cx="116.0" cy="287.8" r="2" fill="#1f77b4"/>
<circle cx="149.4" cy="289.1" r="2" fill="#1f77b4"/>
<circle cx="186.0" cy="287.8" r="2" fill="#1f77b4"/>
<circle cx="219.4" cy="288.5" r="2" fill="#1f77b4"/>
<circle cx="256.0" cy="289.3" r="2" fill="#1f77b4"/>
<text x="151.0" y="227" text-anchor="middle" font-size="12" font-weight="bold">scal</text>
<line x1="46.0" y1="232" x2="46.0" y2="370" stroke="#f4f4f4"/>
<text x="46.0" y="381" text-anchor="middle" font-size="8" fill="#999">1000</text>
<line x1="79.4" y1="232" x2="79.4" y2="370" stroke="#f4f4f4"/>
<text x="79.4" y="381" text-anchor="middle" font-size="8" fill="#999">2k</text>
<line x1="116.0" y1="232" x2="116.0" y2="370" stroke="#f4f4f4"/>
<text x="116.0" y="381" text-anchor="middle" font-size="8" fill="#999">9k</text>
<line x1="149.4" y1="232" x2="149.4" y2="370" stroke="#f4f4f4"/>
<text x="149.4" y="381" text-anchor="middle" font-size="8" fill="#999">29k</text>
<line x1="186.0" y1="232" x2="186.0" y2="370" stroke="#f4f4f4"/>
<text x="186.0" y="381" text-anchor="middle" font-size="8" fill="#999">97k</text>
<line x1="219.4" y1="232" x2="219.4" y2="370" stroke="#f4f4f4"/>
<text x="219.4" y="381" text-anchor="middle" font-size="8" fill="#999">292k</text>
<line x1="256.0" y1="232" x2="256.0" y2="370" stroke="#f4f4f4"/>
<text x="256.0" y="381" text-anchor="middle" font-size="8" fill="#999">976k</text>
<rect x="276" y="232" width="210" height="138" fill="none" stroke="#e2e2e2"/>
<line x1="276" y1="308.56452641835926" x2="486" y2="308.56452641835926" stroke="#d33" stroke-dasharray="4 3"/>
<text x="272" y="373.0" text-anchor="end" font-size="9" fill="#999">0.5×</text>
<text x="272" y="311.56452641835926" text-anchor="end" font-size="9" fill="#999">1.0×</text>
<text x="272" y="235.084300385449" text-anchor="end" font-size="9" fill="#999">2.37×</text>
<polygon points="276.0,284.6 309.4,290.7 346.0,283.2 379.4,283.4 416.0,276.2 449.4,275.9 486.0,277.4 486.0,320.7 449.4,321.0 416.0,326.7 379.4,338.6 346.0,336.8 309.4,350.3 276.0,348.4" fill="#d62728" opacity="0.11"/>
<polyline points="276.0,307.0 309.4,312.8 346.0,304.8 379.4,306.8 416.0,297.7 449.4,292.6 486.0,293.5" fill="none" stroke="#d62728" stroke-width="1.6"/>
<circle cx="276.0" cy="307.0" r="2" fill="#d62728"/>
<circle cx="309.4" cy="312.8" r="2" fill="#d62728"/>
<circle cx="346.0" cy="304.8" r="2" fill="#d62728"/>
<circle cx="379.4" cy="306.8" r="2" fill="#d62728"/>
<circle cx="416.0" cy="297.7" r="2" fill="#d62728"/>
<circle cx="449.4" cy="292.6" r="2" fill="#d62728"/>
<circle cx="486.0" cy="293.5" r="2" fill="#d62728"/>
<polygon points="276.0,249.7 309.4,242.1 346.0,242.9 379.4,241.9 416.0,242.7 449.4,238.8 486.0,240.4 486.0,289.8 449.4,301.2 416.0,305.0 379.4,310.1 346.0,311.0 309.4,308.8 276.0,308.9" fill="#2ca02c" opacity="0.11"/>
<polyline points="276.0,277.0 309.4,264.8 346.0,268.5 379.4,270.9 416.0,271.3 449.4,264.4 486.0,258.1" fill="none" stroke="#2ca02c" stroke-width="1.6"/>
<circle cx="276.0" cy="277.0" r="2" fill="#2ca02c"/>
<circle cx="309.4" cy="264.8" r="2" fill="#2ca02c"/>
<circle cx="346.0" cy="268.5" r="2" fill="#2ca02c"/>
<circle cx="379.4" cy="270.9" r="2" fill="#2ca02c"/>
<circle cx="416.0" cy="271.3" r="2" fill="#2ca02c"/>
<circle cx="449.4" cy="264.4" r="2" fill="#2ca02c"/>
<circle cx="486.0" cy="258.1" r="2" fill="#2ca02c"/>
<polygon points="276.0,271.8 309.4,269.4 346.0,261.2 379.4,262.9 416.0,255.2 449.4,258.6 486.0,259.1 486.0,305.1 449.4,309.7 416.0,297.7 379.4,306.2 346.0,305.2 309.4,317.7 276.0,316.9" fill="#1f77b4" opacity="0.11"/>
<polyline points="276.0,290.6 309.4,289.9 346.0,278.5 379.4,280.0 416.0,273.7 449.4,274.0 486.0,277.0" fill="none" stroke="#1f77b4" stroke-width="1.6"/>
<circle cx="276.0" cy="290.6" r="2" fill="#1f77b4"/>
<circle cx="309.4" cy="289.9" r="2" fill="#1f77b4"/>
<circle cx="346.0" cy="278.5" r="2" fill="#1f77b4"/>
<circle cx="379.4" cy="280.0" r="2" fill="#1f77b4"/>
<circle cx="416.0" cy="273.7" r="2" fill="#1f77b4"/>
<circle cx="449.4" cy="274.0" r="2" fill="#1f77b4"/>
<circle cx="486.0" cy="277.0" r="2" fill="#1f77b4"/>
<text x="381.0" y="227" text-anchor="middle" font-size="12" font-weight="bold">iamax</text>
<line x1="276.0" y1="232" x2="276.0" y2="370" stroke="#f4f4f4"/>
<text x="276.0" y="381" text-anchor="middle" font-size="8" fill="#999">1000</text>
<line x1="309.4" y1="232" x2="309.4" y2="370" stroke="#f4f4f4"/>
<text x="309.4" y="381" text-anchor="middle" font-size="8" fill="#999">2k</text>
<line x1="346.0" y1="232" x2="346.0" y2="370" stroke="#f4f4f4"/>
<text x="346.0" y="381" text-anchor="middle" font-size="8" fill="#999">9k</text>
<line x1="379.4" y1="232" x2="379.4" y2="370" stroke="#f4f4f4"/>
<text x="379.4" y="381" text-anchor="middle" font-size="8" fill="#999">29k</text>
<line x1="416.0" y1="232" x2="416.0" y2="370" stroke="#f4f4f4"/>
<text x="416.0" y="381" text-anchor="middle" font-size="8" fill="#999">97k</text>
<line x1="449.4" y1="232" x2="449.4" y2="370" stroke="#f4f4f4"/>
<text x="449.4" y="381" text-anchor="middle" font-size="8" fill="#999">292k</text>
<line x1="486.0" y1="232" x2="486.0" y2="370" stroke="#f4f4f4"/>
<text x="486.0" y="381" text-anchor="middle" font-size="8" fill="#999">976k</text>
</svg>
