<svg xmlns="http://www.w3.org/2000/svg" width="900" height="440" font-family="sans-serif">
<rect width="900" height="440" fill="white"/>
<text x="450.0" y="28" text-anchor="middle" font-size="18" font-weight="bold">BLAS-1: PureBLAS / OpenBLAS (AVX2, 1 thread, Float64)</text>
<line x1="60" y1="358.0" x2="880" y2="358.0" stroke="#eee"/>
<text x="52" y="362.0" text-anchor="end" font-size="11" fill="#666">0×</text>
<line x1="60" y1="343.2971424910733" x2="880" y2="343.2971424910733" stroke="#eee"/>
<text x="52" y="347.2971424910733" text-anchor="end" font-size="11" fill="#666">0.5×</text>
<line x1="60" y1="328.59428498214663" x2="880" y2="328.59428498214663" stroke="#eee"/>
<text x="52" y="332.59428498214663" text-anchor="end" font-size="11" fill="#666">1×</text>
<line x1="60" y1="313.89142747321995" x2="880" y2="313.89142747321995" stroke="#eee"/>
<text x="52" y="317.89142747321995" text-anchor="end" font-size="11" fill="#666">1.5×</text>
<line x1="60" y1="328.59428498214663" x2="880" y2="328.59428498214663" stroke="#888" stroke-width="1"/>
<line x1="60" y1="329.77051358286076" x2="880" y2="329.77051358286076" stroke="#d33" stroke-width="1.5" stroke-dasharray="6 4"/>
<text x="880" y="324.77051358286076" text-anchor="end" font-size="11" fill="#d33">0.96× gate</text>
<polygon points="128.8,330.4 129.4,330.2 130.7,330.0 133.0,329.8 136.9,329.6 142.6,329.4 150.4,329.2 159.5,329.1 169.0,328.9 177.3,328.7 183.1,328.5 185.7,328.3 185.1,328.1 182.1,328.0 177.6,327.8 172.4,327.6 166.9,327.4 161.4,327.2 155.9,327.0 150.7,326.9 145.9,326.7 141.9,326.5 138.7,326.3 136.2,326.1 134.3,325.9 132.9,325.7 132.0,325.6 131.3,325.4 130.8,325.2 130.6,325.0 130.6,324.8 130.6,324.6 130.7,324.5 130.8,324.3 130.8,324.1 130.9,323.9 130.8,323.7 130.8,323.5 130.6,323.4 130.4,323.2 130.1,323.0 129.9,322.8 129.7,322.6 129.6,322.4 129.5,322.3 129.4,322.1 129.3,321.9 129.2,321.7 129.1,321.5 129.0,321.3 128.8,321.1 128.7,321.0 128.5,320.8 128.5,320.6 128.4,320.4 128.4,320.2 128.4,320.0 128.4,319.9 128.4,319.7 128.5,319.5 128.6,319.3 128.8,319.1 128.9,318.9 129.0,318.8 129.0,318.6 129.0,318.4 128.9,318.2 128.7,318.0 128.6,317.8 128.5,317.6 128.4,317.5 128.4,317.3 128.3,317.3 128.2,317.5 128.2,317.6 128.1,317.8 127.9,318.0 127.8,318.2 127.7,318.4 127.7,318.6 127.7,318.8 127.8,318.9 127.9,319.1 128.0,319.3 128.1,319.5 128.2,319.7 128.3,319.9 128.3,320.0 128.3,320.2 128.3,320.4 128.2,320.6 128.1,320.8 128.0,321.0 127.9,321.1 127.7,321.3 127.6,321.5 127.5,321.7 127.4,321.9 127.3,322.1 127.2,322.3 127.1,322.4 126.9,322.6 126.8,322.8 126.5,323.0 126.3,323.2 126.1,323.4 125.9,323.5 125.8,323.7 125.8,323.9 125.8,324.1 125.9,324.3 126.0,324.5 126.1,324.6 126.1,324.8 126.0,325.0 125.8,325.2 125.4,325.4 124.7,325.6 123.7,325.7 122.3,325.9 120.5,326.1 118.0,326.3 114.8,326.5 110.7,326.7 106.0,326.9 100.7,327.0 95.3,327.2 89.8,327.4 84.3,327.6 79.1,327.8 74.6,328.0 71.5,328.1 70.9,328.3 73.5,328.5 79.4,328.7 87.7,328.9 97.1,329.1 106.3,329.2 114.0,329.4 119.8,329.6 123.7,329.8 126.0,330.0 127.3,330.2 127.9,330.4" fill="#2a8" opacity="0.5" stroke="#2a8" stroke-width="1"/>
<line x1="71.0" y1="328.2030146786633" x2="185.7" y2="328.2030146786633" stroke="#114" stroke-width="2"/>
<circle cx="128.33333333333331" cy="328.54299370826516" r="2.4" fill="#114"/>
<text x="128.33333333333331" y="312.59221510022445" text-anchor="middle" font-size="11">1.01</text>
<text x="128.33333333333331" y="376" text-anchor="middle" font-size="12">axpy</text>
<polygon points="265.0,346.1 265.0,345.7 265.0,345.3 265.0,344.8 265.1,344.4 265.3,343.9 265.4,343.5 265.5,343.1 265.4,342.6 265.3,342.2 265.1,341.7 265.0,341.3 265.0,340.9 265.0,340.4 265.0,340.0 265.0,339.5 265.0,339.1 265.0,338.7 265.0,338.2 265.0,337.8 265.0,337.3 265.0,336.9 265.0,336.5 265.0,336.0 265.0,335.6 265.0,335.2 265.0,334.7 265.0,334.3 265.0,333.8 265.0,333.4 265.0,333.0 265.0,332.5 265.0,332.1 265.1,331.6 265.4,331.2 266.7,330.8 270.7,330.3 280.2,329.9 295.7,329.4 312.7,329.0 322.4,328.6 318.9,328.1 305.3,327.7 289.8,327.2 278.2,326.8 271.5,326.4 268.0,325.9 266.3,325.5 265.6,325.0 265.4,324.6 265.6,324.2 265.9,323.7 266.2,323.3 266.3,322.9 266.1,322.4 265.8,322.0 265.5,321.5 265.5,321.1 265.6,320.7 265.8,320.2 265.9,319.8 265.9,319.3 265.8,318.9 265.7,318.5 265.6,318.0 265.5,317.6 265.3,317.1 265.1,316.7 265.0,316.3 265.0,315.8 265.0,315.4 265.0,314.9 265.0,314.9 265.0,315.4 265.0,315.8 265.0,316.3 264.9,316.7 264.7,317.1 264.5,317.6 264.4,318.0 264.3,318.5 264.2,318.9 264.1,319.3 264.1,319.8 264.2,320.2 264.4,320.7 264.5,321.1 264.5,321.5 264.2,322.0 263.9,322.4 263.7,322.9 263.8,323.3 264.1,323.7 264.4,324.2 264.6,324.6 264.4,325.0 263.7,325.5 262.0,325.9 258.5,326.4 251.8,326.8 240.2,327.2 224.7,327.7 211.1,328.1 207.6,328.6 217.3,329.0 234.3,329.4 249.8,329.9 259.3,330.3 263.3,330.8 264.6,331.2 264.9,331.6 265.0,332.1 265.0,332.5 265.0,333.0 265.0,333.4 265.0,333.8 265.0,334.3 265.0,334.7 265.0,335.2 265.0,335.6 265.0,336.0 265.0,336.5 265.0,336.9 265.0,337.3 265.0,337.8 265.0,338.2 265.0,338.7 265.0,339.1 265.0,339.5 265.0,340.0 265.0,340.4 265.0,340.9 265.0,341.3 264.9,341.7 264.7,342.2 264.6,342.6 264.5,343.1 264.6,343.5 264.7,343.9 264.9,344.4 265.0,344.8 265.0,345.3 265.0,345.7 265.0,346.1" fill="#2a8" opacity="0.5" stroke="#2a8" stroke-width="1"/>
<line x1="207.2" y1="328.45942672490634" x2="322.8" y2="328.45942672490634" stroke="#114" stroke-width="2"/>
<circle cx="265.0" cy="328.64076819933325" r="2.4" fill="#114"/>
<text x="265.0" y="312.0084910829511" text-anchor="middle" font-size="11">1.00</text>
<text x="265.0" y="376" text-anchor="middle" font-size="12">dot</text>
<polygon points="402.1,249.8 402.4,247.0 402.7,244.2 403.1,241.4 403.6,238.5 404.2,235.7 404.9,232.9 405.7,230.1 406.7,227.3 407.9,224.5 409.3,221.7 410.9,218.8 412.7,216.0 414.7,213.2 417.0,210.4 419.4,207.6 421.9,204.8 424.4,202.0 426.8,199.1 428.9,196.3 430.7,193.5 432.1,190.7 433.0,187.9 433.2,185.1 432.8,182.3 431.7,179.5 430.0,176.6 427.7,173.8 425.2,171.0 422.5,168.2 420.1,165.4 418.2,162.6 417.2,159.8 417.4,156.9 418.9,154.1 421.9,151.3 426.3,148.5 431.8,145.7 438.1,142.9 444.5,140.1 450.4,137.2 455.2,134.4 458.2,131.6 459.1,128.8 457.6,126.0 454.0,123.2 448.6,120.4 441.9,117.5 434.8,114.7 427.7,111.9 421.2,109.1 415.7,106.3 411.3,103.5 408.0,100.7 405.7,97.8 404.1,95.0 403.1,92.2 402.6,89.4 402.3,86.6 402.2,83.8 402.2,81.0 402.3,78.1 402.3,75.3 402.4,72.5 402.4,69.7 402.5,66.9 402.4,64.1 402.4,61.3 402.3,58.4 402.2,55.6 402.1,52.8 402.0,50.0 401.4,50.0 401.3,52.8 401.2,55.6 401.1,58.4 401.0,61.3 400.9,64.1 400.9,66.9 400.9,69.7 400.9,72.5 401.0,75.3 401.1,78.1 401.1,81.0 401.1,83.8 401.0,86.6 400.8,89.4 400.2,92.2 399.2,95.0 397.7,97.8 395.3,100.7 392.0,103.5 387.6,106.3 382.1,109.1 375.6,111.9 368.6,114.7 361.4,117.5 354.8,120.4 349.3,123.2 345.7,126.0 344.3,128.8 345.1,131.6 348.2,134.4 352.9,137.2 358.9,140.1 365.3,142.9 371.5,145.7 377.0,148.5 381.4,151.3 384.4,154.1 386.0,156.9 386.2,159.8 385.2,162.6 383.3,165.4 380.8,168.2 378.2,171.0 375.6,173.8 373.4,176.6 371.7,179.5 370.6,182.3 370.1,185.1 370.4,187.9 371.2,190.7 372.6,193.5 374.4,196.3 376.6,199.1 379.0,202.0 381.4,204.8 383.9,207.6 386.3,210.4 388.6,213.2 390.6,216.0 392.4,218.8 394.0,221.7 395.4,224.5 396.6,227.3 397.6,230.1 398.5,232.9 399.2,235.7 399.8,238.5 400.3,241.4 400.7,244.2 401.0,247.0 401.2,249.8" fill="#2a8" opacity="0.5" stroke="#2a8" stroke-width="1"/>
<line x1="353.4" y1="137.47718195005913" x2="449.9" y2="137.47718195005913" stroke="#114" stroke-width="2"/>
<circle cx="401.66666666666663" cy="192.38355338999165" r="2.4" fill="#114"/>
<text x="401.66666666666663" y="61.43396226415098" text-anchor="middle" font-size="11">7.50</text>
<text x="401.66666666666663" y="376" text-anchor="middle" font-size="12">nrm2</text>
<polygon points="540.8,324.9 541.6,324.5 542.7,324.2 544.1,323.8 545.7,323.4 547.8,323.0 550.2,322.6 553.0,322.2 556.2,321.9 559.8,321.5 563.6,321.1 567.6,320.7 571.8,320.3 575.8,319.9 579.7,319.6 583.2,319.2 586.2,318.8 588.7,318.4 590.7,318.0 592.0,317.6 592.9,317.3 593.3,316.9 593.5,316.5 593.5,316.1 593.5,315.7 593.7,315.3 593.9,315.0 594.3,314.6 594.8,314.2 595.3,313.8 595.7,313.4 595.7,313.0 595.4,312.7 594.5,312.3 593.1,311.9 591.1,311.5 588.5,311.1 585.6,310.7 582.3,310.4 578.9,310.0 575.5,309.6 572.3,309.2 569.4,308.8 567.0,308.4 565.1,308.0 563.8,307.7 563.2,307.3 563.2,306.9 563.8,306.5 565.0,306.1 566.7,305.7 568.9,305.4 571.5,305.0 574.2,304.6 576.9,304.2 579.5,303.8 581.7,303.4 583.3,303.1 584.3,302.7 584.4,302.3 583.7,301.9 582.1,301.5 579.8,301.1 576.7,300.8 573.2,300.4 569.3,300.0 565.3,299.6 561.3,299.2 557.5,298.8 554.0,298.5 550.8,298.1 548.1,297.7 528.6,297.7 525.8,298.1 522.7,298.5 519.2,298.8 515.3,299.2 511.4,299.6 507.3,300.0 503.5,300.4 499.9,300.8 496.9,301.1 494.6,301.5 493.0,301.9 492.3,302.3 492.4,302.7 493.4,303.1 495.0,303.4 497.2,303.8 499.8,304.2 502.5,304.6 505.2,305.0 507.7,305.4 509.9,305.7 511.7,306.1 512.9,306.5 513.5,306.9 513.5,307.3 512.8,307.7 511.5,308.0 509.7,308.4 507.2,308.8 504.4,309.2 501.2,309.6 497.8,310.0 494.4,310.4 491.1,310.7 488.1,311.1 485.6,311.5 483.6,311.9 482.1,312.3 481.3,312.7 480.9,313.0 481.0,313.4 481.4,313.8 481.9,314.2 482.4,314.6 482.8,315.0 483.0,315.3 483.1,315.7 483.1,316.1 483.2,316.5 483.3,316.9 483.8,317.3 484.6,317.6 486.0,318.0 487.9,318.4 490.4,318.8 493.5,319.2 497.0,319.6 500.9,319.9 504.9,320.3 509.0,320.7 513.1,321.1 516.9,321.5 520.5,321.9 523.6,322.2 526.5,322.6 528.9,323.0 530.9,323.4 532.6,323.8 534.0,324.2 535.0,324.5 535.9,324.9" fill="#2a8" opacity="0.5" stroke="#2a8" stroke-width="1"/>
<line x1="482.5" y1="312.1411070991771" x2="594.1" y2="312.1411070991771" stroke="#114" stroke-width="2"/>
<circle cx="538.3333333333333" cy="317.88870969057564" r="2.4" fill="#114"/>
<text x="538.3333333333333" y="294.3740165436597" text-anchor="middle" font-size="11">1.56</text>
<text x="538.3333333333333" y="376" text-anchor="middle" font-size="12">asum</text>
<polygon points="675.1,330.5 675.3,330.3 675.7,330.1 676.6,329.9 678.2,329.7 680.9,329.5 685.2,329.3 691.4,329.1 699.2,328.9 708.2,328.8 717.2,328.6 725.0,328.4 730.3,328.2 732.4,328.0 731.3,327.8 727.3,327.6 721.5,327.4 714.6,327.2 707.4,327.0 700.5,326.8 694.5,326.6 689.4,326.4 685.4,326.3 682.5,326.1 680.3,325.9 678.9,325.7 677.9,325.5 677.3,325.3 676.9,325.1 676.5,324.9 676.2,324.7 675.9,324.5 675.7,324.3 675.5,324.1 675.5,324.0 675.5,323.8 675.6,323.6 675.6,323.4 675.6,323.2 675.6,323.0 675.5,322.8 675.4,322.6 675.3,322.4 675.3,322.2 675.3,322.0 675.4,321.8 675.5,321.6 675.6,321.5 675.7,321.3 675.7,321.1 675.7,320.9 675.7,320.7 675.7,320.5 675.7,320.3 675.7,320.1 675.7,319.9 675.6,319.7 675.4,319.5 675.4,319.3 675.3,319.2 675.3,319.0 675.4,318.8 675.5,318.6 675.6,318.4 675.6,318.2 675.6,318.0 675.5,317.8 675.4,317.6 675.2,317.4 675.1,317.2 675.1,317.0 675.0,316.8 675.0,316.8 674.9,317.0 674.9,317.2 674.8,317.4 674.6,317.6 674.5,317.8 674.4,318.0 674.4,318.2 674.4,318.4 674.5,318.6 674.6,318.8 674.7,319.0 674.7,319.2 674.6,319.3 674.6,319.5 674.4,319.7 674.3,319.9 674.3,320.1 674.3,320.3 674.3,320.5 674.3,320.7 674.3,320.9 674.3,321.1 674.3,321.3 674.4,321.5 674.5,321.6 674.6,321.8 674.7,322.0 674.7,322.2 674.7,322.4 674.6,322.6 674.5,322.8 674.4,323.0 674.4,323.2 674.4,323.4 674.4,323.6 674.5,323.8 674.5,324.0 674.5,324.1 674.3,324.3 674.1,324.5 673.8,324.7 673.5,324.9 673.1,325.1 672.7,325.3 672.1,325.5 671.1,325.7 669.7,325.9 667.5,326.1 664.6,326.3 660.6,326.4 655.5,326.6 649.5,326.8 642.6,327.0 635.4,327.2 628.5,327.4 622.7,327.6 618.7,327.8 617.6,328.0 619.7,328.2 625.0,328.4 632.8,328.6 641.8,328.8 650.8,328.9 658.6,329.1 664.8,329.3 669.1,329.5 671.8,329.7 673.4,329.9 674.3,330.1 674.7,330.3 674.9,330.5" fill="#2a8" opacity="0.5" stroke="#2a8" stroke-width="1"/>
<line x1="617.8" y1="327.8805498178998" x2="732.2" y2="327.8805498178998" stroke="#114" stroke-width="2"/>
<circle cx="675.0" cy="328.47999668060015" r="2.4" fill="#114"/>
<text x="675.0" y="312.21420928310334" text-anchor="middle" font-size="11">1.02</text>
<text x="675.0" y="376" text-anchor="middle" font-size="12">scal</text>
<polygon points="812.8,345.2 813.3,344.7 813.9,344.1 814.7,343.6 815.6,343.1 816.8,342.5 818.2,342.0 819.9,341.4 821.7,340.9 823.9,340.4 826.3,339.8 828.9,339.3 831.8,338.8 834.8,338.2 837.8,337.7 840.9,337.1 844.0,336.6 846.9,336.1 849.6,335.5 852.1,335.0 854.3,334.5 856.3,333.9 858.2,333.4 859.9,332.8 861.5,332.3 863.1,331.8 864.6,331.2 866.0,330.7 867.2,330.1 868.1,329.6 868.8,329.1 869.1,328.5 869.0,328.0 868.5,327.5 867.6,326.9 866.5,326.4 865.1,325.8 863.5,325.3 861.8,324.8 860.1,324.2 858.4,323.7 856.8,323.2 855.2,322.6 853.8,322.1 852.4,321.5 851.2,321.0 850.1,320.5 849.1,319.9 848.1,319.4 847.0,318.9 845.7,318.3 844.3,317.8 842.7,317.2 840.9,316.7 838.8,316.2 836.4,315.6 834.0,315.1 831.5,314.6 828.9,314.0 826.5,313.5 824.2,312.9 822.1,312.4 820.2,311.9 818.6,311.3 817.2,310.8 816.0,310.2 815.0,309.7 814.2,309.2 813.6,308.6 813.1,308.1 812.7,307.6 812.4,307.0 810.9,307.0 810.6,307.6 810.2,308.1 809.7,308.6 809.1,309.2 808.3,309.7 807.3,310.2 806.2,310.8 804.8,311.3 803.1,311.9 801.3,312.4 799.1,312.9 796.8,313.5 794.4,314.0 791.9,314.6 789.3,315.1 786.9,315.6 784.6,316.2 782.5,316.7 780.6,317.2 779.0,317.8 777.6,318.3 776.4,318.9 775.3,319.4 774.2,319.9 773.2,320.5 772.1,321.0 770.9,321.5 769.6,322.1 768.1,322.6 766.6,323.2 764.9,323.7 763.2,324.2 761.5,324.8 759.8,325.3 758.3,325.8 756.9,326.4 755.7,326.9 754.9,327.5 754.4,328.0 754.3,328.5 754.5,329.1 755.2,329.6 756.2,330.1 757.4,330.7 758.7,331.2 760.2,331.8 761.8,332.3 763.4,332.8 765.2,333.4 767.0,333.9 769.0,334.5 771.3,335.0 773.7,335.5 776.5,336.1 779.4,336.6 782.4,337.1 785.5,337.7 788.6,338.2 791.6,338.8 794.4,339.3 797.0,339.8 799.4,340.4 801.6,340.9 803.5,341.4 805.1,342.0 806.5,342.5 807.7,343.1 808.7,343.6 809.4,344.1 810.1,344.7 810.5,345.2" fill="#d33" opacity="0.5" stroke="#d33" stroke-width="1"/>
<line x1="755.1" y1="327.313107830848" x2="868.3" y2="327.313107830848" stroke="#114" stroke-width="2"/>
<circle cx="811.6666666666666" cy="331.7740269164177" r="2.4" fill="#114"/>
<text x="811.6666666666666" y="304.76315744317515" text-anchor="middle" font-size="11">1.04</text>
<text x="811.6666666666666" y="376" text-anchor="middle" font-size="12">iamax</text>
<text x="450.0" y="428" text-anchor="middle" font-size="11" fill="#666">violin = ratio distribution over sizes · line = median · dark dot = worst size · green = every size ≥ gate</text>
</svg>
