<svg xmlns="http://www.w3.org/2000/svg" width="900" height="440" font-family="sans-serif">
<rect width="900" height="440" fill="white"/>
<text x="450.0" y="28" text-anchor="middle" font-size="18" font-weight="bold">BLAS-2: PureBLAS / OpenBLAS (AVX2, 1 thread, Float64)</text>
<line x1="60" y1="358.0" x2="880" y2="358.0" stroke="#eee"/>
<text x="52" y="362.0" text-anchor="end" font-size="11" fill="#666">0×</text>
<line x1="60" y1="295.8355777583489" x2="880" y2="295.8355777583489" stroke="#eee"/>
<text x="52" y="299.8355777583489" text-anchor="end" font-size="11" fill="#666">0.5×</text>
<line x1="60" y1="233.6711555166978" x2="880" y2="233.6711555166978" stroke="#eee"/>
<text x="52" y="237.6711555166978" text-anchor="end" font-size="11" fill="#666">1×</text>
<line x1="60" y1="171.50673327504677" x2="880" y2="171.50673327504677" stroke="#eee"/>
<text x="52" y="175.50673327504677" text-anchor="end" font-size="11" fill="#666">1.5×</text>
<line x1="60" y1="233.6711555166978" x2="880" y2="233.6711555166978" stroke="#888" stroke-width="1"/>
<line x1="60" y1="238.64430929602995" x2="880" y2="238.64430929602995" stroke="#d33" stroke-width="1.5" stroke-dasharray="6 4"/>
<text x="880" y="233.64430929602995" text-anchor="end" font-size="11" fill="#d33">0.96× gate</text>
<polygon points="105.8,257.2 106.0,256.3 106.3,255.5 106.6,254.6 107.0,253.7 107.5,252.9 108.1,252.0 108.9,251.1 109.9,250.2 111.1,249.4 112.8,248.5 115.0,247.6 117.7,246.8 120.8,245.9 124.3,245.0 127.9,244.1 131.2,243.3 134.2,242.4 136.6,241.5 138.4,240.7 139.5,239.8 140.1,238.9 140.4,238.1 140.6,237.2 140.7,236.3 141.0,235.4 141.4,234.6 142.0,233.7 142.7,232.8 143.4,232.0 143.8,231.1 143.7,230.2 143.0,229.3 141.3,228.5 138.8,227.6 135.6,226.7 131.9,225.9 128.3,225.0 125.0,224.1 122.3,223.3 120.5,222.4 119.4,221.5 118.8,220.6 118.5,219.8 118.3,218.9 117.8,218.0 117.0,217.2 115.9,216.3 114.6,215.4 113.1,214.5 111.6,213.7 110.3,212.8 109.1,211.9 108.1,211.1 107.4,210.2 106.8,209.3 106.4,208.5 106.2,207.6 106.1,206.7 106.1,205.8 106.1,205.0 106.2,204.1 106.2,203.2 106.3,202.4 106.3,201.5 106.3,200.6 106.2,199.8 106.1,198.9 106.0,198.0 105.9,197.1 105.8,196.3 105.7,195.4 105.4,195.4 105.3,196.3 105.2,197.1 105.1,198.0 105.0,198.9 104.9,199.8 104.8,200.6 104.8,201.5 104.8,202.4 104.9,203.2 104.9,204.1 105.0,205.0 105.0,205.8 105.0,206.7 104.9,207.6 104.7,208.5 104.3,209.3 103.7,210.2 103.0,211.1 102.0,211.9 100.9,212.8 99.5,213.7 98.0,214.5 96.5,215.4 95.2,216.3 94.1,217.2 93.3,218.0 92.8,218.9 92.6,219.8 92.3,220.6 91.7,221.5 90.6,222.4 88.8,223.3 86.1,224.1 82.8,225.0 79.2,225.9 75.5,226.7 72.3,227.6 69.8,228.5 68.2,229.3 67.4,230.2 67.3,231.1 67.7,232.0 68.4,232.8 69.1,233.7 69.7,234.6 70.1,235.4 70.4,236.3 70.6,237.2 70.7,238.1 71.0,238.9 71.6,239.8 72.7,240.7 74.5,241.5 76.9,242.4 79.9,243.3 83.3,244.1 86.8,245.0 90.3,245.9 93.4,246.8 96.1,247.6 98.3,248.5 100.0,249.4 101.2,250.2 102.2,251.1 103.0,252.0 103.6,252.9 104.1,253.7 104.5,254.6 104.8,255.5 105.1,256.3 105.3,257.2" fill="#d33" opacity="0.5" stroke="#d33" stroke-width="1"/>
<line x1="68.4" y1="232.81992834736923" x2="142.8" y2="232.81992834736923" stroke="#114" stroke-width="2"/>
<circle cx="105.55555555555556" cy="242.30780896202" r="2.4" fill="#114"/>
<text x="105.55555555555556" y="195.57956758592667" text-anchor="middle" font-size="11">1.01</text>
<text x="105.55555555555556" y="376" text-anchor="middle" font-size="12">gemvN</text>
<polygon points="197.0,239.4 197.1,239.1 197.3,238.8 197.4,238.4 197.6,238.1 197.9,237.7 198.2,237.4 198.5,237.1 199.0,236.7 199.7,236.4 200.6,236.1 201.8,235.7 203.5,235.4 205.6,235.1 208.1,234.7 211.1,234.4 214.4,234.0 218.0,233.7 221.6,233.4 225.0,233.0 228.1,232.7 230.7,232.4 232.7,232.0 234.1,231.7 234.8,231.4 234.9,231.0 234.5,230.7 233.5,230.3 232.0,230.0 230.2,229.7 228.0,229.3 225.7,229.0 223.3,228.7 220.8,228.3 218.5,228.0 216.5,227.7 214.8,227.3 213.5,227.0 212.6,226.6 212.0,226.3 211.9,226.0 212.1,225.6 212.5,225.3 213.0,225.0 213.5,224.6 214.0,224.3 214.3,224.0 214.4,223.6 214.1,223.3 213.7,222.9 213.0,222.6 212.0,222.3 211.0,221.9 209.9,221.6 208.8,221.3 207.7,220.9 206.6,220.6 205.6,220.3 204.7,219.9 203.8,219.6 203.0,219.2 202.2,218.9 201.4,218.6 200.7,218.2 200.0,217.9 199.4,217.6 198.8,217.2 198.4,216.9 197.9,216.5 197.6,216.2 197.3,215.9 197.1,215.5 196.2,215.5 196.0,215.9 195.7,216.2 195.4,216.5 195.0,216.9 194.5,217.2 193.9,217.6 193.3,217.9 192.6,218.2 191.9,218.6 191.2,218.9 190.4,219.2 189.5,219.6 188.7,219.9 187.7,220.3 186.7,220.6 185.7,220.9 184.6,221.3 183.4,221.6 182.3,221.9 181.3,222.3 180.4,222.6 179.7,222.9 179.2,223.3 179.0,223.6 179.0,224.0 179.3,224.3 179.8,224.6 180.4,225.0 180.9,225.3 181.3,225.6 181.4,226.0 181.3,226.3 180.8,226.6 179.9,227.0 178.5,227.3 176.8,227.7 174.8,228.0 172.5,228.3 170.1,228.7 167.6,229.0 165.3,229.3 163.2,229.7 161.3,230.0 159.9,230.3 158.9,230.7 158.4,231.0 158.5,231.4 159.2,231.7 160.6,232.0 162.6,232.4 165.2,232.7 168.3,233.0 171.8,233.4 175.3,233.7 178.9,234.0 182.2,234.4 185.2,234.7 187.8,235.1 189.9,235.4 191.5,235.7 192.7,236.1 193.6,236.4 194.3,236.7 194.8,237.1 195.2,237.4 195.4,237.7 195.7,238.1 195.9,238.4 196.1,238.8 196.2,239.1 196.3,239.4" fill="#2a8" opacity="0.5" stroke="#2a8" stroke-width="1"/>
<line x1="162.4" y1="229.804948091634" x2="230.9" y2="229.804948091634" stroke="#114" stroke-width="2"/>
<circle cx="196.66666666666669" cy="232.5483015023083" r="2.4" fill="#114"/>
<text x="196.66666666666669" y="212.0520125411089" text-anchor="middle" font-size="11">1.03</text>
<text x="196.66666666666669" y="376" text-anchor="middle" font-size="12">gemvT</text>
<polygon points="293.1,243.9 295.4,242.8 298.2,241.8 301.5,240.8 305.3,239.7 309.4,238.7 313.5,237.7 317.5,236.6 320.9,235.6 323.6,234.5 325.4,233.5 326.0,232.5 325.6,231.4 324.0,230.4 321.5,229.4 318.3,228.3 314.6,227.3 310.6,226.2 306.7,225.2 303.0,224.2 299.7,223.1 296.8,222.1 294.4,221.1 292.5,220.0 291.0,219.0 290.0,217.9 289.2,216.9 288.7,215.9 288.3,214.8 288.1,213.8 288.1,212.7 288.0,211.7 288.1,210.7 288.3,209.6 288.5,208.6 288.8,207.6 289.2,206.5 289.7,205.5 290.3,204.4 291.0,203.4 291.7,202.4 292.4,201.3 293.0,200.3 293.5,199.3 293.9,198.2 294.1,197.2 294.1,196.1 293.8,195.1 293.4,194.1 292.8,193.0 292.2,192.0 291.5,191.0 290.9,189.9 290.3,188.9 289.7,187.8 289.3,186.8 288.9,185.8 288.7,184.7 288.5,183.7 288.4,182.7 288.3,181.6 288.2,180.6 288.2,179.5 288.2,178.5 288.2,177.5 288.2,176.4 288.1,175.4 288.1,174.4 288.0,173.3 288.0,172.3 288.0,171.2 287.9,170.2 287.6,170.2 287.6,171.2 287.6,172.3 287.5,173.3 287.5,174.4 287.4,175.4 287.4,176.4 287.4,177.5 287.4,178.5 287.3,179.5 287.3,180.6 287.3,181.6 287.2,182.7 287.1,183.7 286.9,184.7 286.6,185.8 286.3,186.8 285.8,187.8 285.3,188.9 284.7,189.9 284.0,191.0 283.3,192.0 282.7,193.0 282.2,194.1 281.7,195.1 281.5,196.1 281.5,197.2 281.6,198.2 282.0,199.3 282.5,200.3 283.2,201.3 283.9,202.4 284.6,203.4 285.3,204.4 285.9,205.5 286.4,206.5 286.8,207.6 287.1,208.6 287.3,209.6 287.4,210.7 287.5,211.7 287.5,212.7 287.4,213.8 287.2,214.8 286.9,215.9 286.4,216.9 285.6,217.9 284.5,219.0 283.0,220.0 281.1,221.1 278.7,222.1 275.9,223.1 272.5,224.2 268.8,225.2 264.9,226.2 261.0,227.3 257.3,228.3 254.1,229.4 251.6,230.4 250.0,231.4 249.5,232.5 250.2,233.5 251.9,234.5 254.6,235.6 258.1,236.6 262.0,237.7 266.2,238.7 270.3,239.7 274.0,240.8 277.4,241.8 280.2,242.8 282.4,243.9" fill="#2a8" opacity="0.5" stroke="#2a8" stroke-width="1"/>
<line x1="249.5" y1="232.15573135847333" x2="326.0" y2="232.15573135847333" stroke="#114" stroke-width="2"/>
<circle cx="287.77777777777777" cy="234.76401209156901" r="2.4" fill="#114"/>
<text x="287.77777777777777" y="171.53055489270832" text-anchor="middle" font-size="11">1.01</text>
<text x="287.77777777777777" y="376" text-anchor="middle" font-size="12">ger</text>
<polygon points="383.0,246.1 384.6,244.8 386.6,243.5 389.0,242.3 391.9,241.0 395.1,239.8 398.5,238.5 402.1,237.2 405.7,236.0 409.1,234.7 412.1,233.4 414.5,232.2 416.2,230.9 417.1,229.7 417.2,228.4 416.4,227.1 415.0,225.9 413.0,224.6 410.6,223.3 407.9,222.1 405.1,220.8 402.3,219.6 399.6,218.3 397.1,217.0 394.9,215.8 393.0,214.5 391.4,213.2 390.1,212.0 389.2,210.7 388.6,209.5 388.2,208.2 388.1,206.9 388.1,205.7 388.3,204.4 388.6,203.1 388.8,201.9 389.0,200.6 389.1,199.4 389.0,198.1 388.9,196.8 388.7,195.6 388.4,194.3 388.1,193.0 387.9,191.8 387.8,190.5 387.7,189.3 387.7,188.0 387.9,186.7 388.0,185.5 388.1,184.2 388.2,182.9 388.1,181.7 387.9,180.4 387.6,179.2 387.1,177.9 386.4,176.6 385.7,175.4 384.8,174.1 384.0,172.8 383.2,171.6 382.5,170.3 381.8,169.1 381.3,167.8 380.8,166.5 380.4,165.3 380.1,164.0 379.8,162.7 379.6,161.5 379.5,160.2 379.3,158.9 379.2,157.7 379.2,156.4 378.6,156.4 378.5,157.7 378.4,158.9 378.3,160.2 378.2,161.5 378.0,162.7 377.7,164.0 377.4,165.3 377.0,166.5 376.5,167.8 376.0,169.1 375.3,170.3 374.6,171.6 373.8,172.8 372.9,174.1 372.1,175.4 371.4,176.6 370.7,177.9 370.2,179.2 369.9,180.4 369.7,181.7 369.6,182.9 369.7,184.2 369.8,185.5 369.9,186.7 370.0,188.0 370.1,189.3 370.0,190.5 369.9,191.8 369.6,193.0 369.4,194.3 369.1,195.6 368.9,196.8 368.7,198.1 368.7,199.4 368.8,200.6 369.0,201.9 369.2,203.1 369.5,204.4 369.7,205.7 369.7,206.9 369.6,208.2 369.2,209.5 368.6,210.7 367.6,212.0 366.4,213.2 364.8,214.5 362.9,215.8 360.7,217.0 358.2,218.3 355.5,219.6 352.7,220.8 349.9,222.1 347.2,223.3 344.8,224.6 342.8,225.9 341.3,227.1 340.6,228.4 340.7,229.7 341.6,230.9 343.3,232.2 345.7,233.4 348.7,234.7 352.1,236.0 355.7,237.2 359.3,238.5 362.7,239.8 365.9,241.0 368.7,242.3 371.2,243.5 373.1,244.8 374.7,246.1" fill="#2a8" opacity="0.5" stroke="#2a8" stroke-width="1"/>
<line x1="341.6" y1="226.87433255778575" x2="416.2" y2="226.87433255778575" stroke="#114" stroke-width="2"/>
<circle cx="378.8888888888889" cy="232.506607237578" r="2.4" fill="#114"/>
<text x="378.8888888888889" y="159.3001327369552" text-anchor="middle" font-size="11">1.05</text>
<text x="378.8888888888889" y="376" text-anchor="middle" font-size="12">symv</text>
<polygon points="470.6,258.7 470.8,257.2 471.0,255.7 471.3,254.2 471.6,252.7 472.1,251.2 472.7,249.7 473.5,248.2 474.6,246.7 475.9,245.2 477.6,243.7 479.6,242.3 482.1,240.8 484.8,239.3 487.9,237.8 491.2,236.3 494.6,234.8 498.0,233.3 501.1,231.8 503.8,230.3 506.0,228.8 507.5,227.3 508.3,225.8 508.3,224.3 507.5,222.8 506.1,221.3 504.2,219.8 501.8,218.3 499.2,216.8 496.5,215.3 493.8,213.8 491.2,212.3 488.8,210.8 486.7,209.3 485.0,207.8 483.5,206.3 482.4,204.8 481.6,203.3 481.1,201.8 480.8,200.3 480.6,198.8 480.5,197.3 480.5,195.8 480.4,194.3 480.2,192.8 479.9,191.3 479.5,189.8 478.9,188.3 478.3,186.8 477.7,185.3 477.2,183.8 476.7,182.3 476.3,180.8 476.2,179.3 476.2,177.8 476.4,176.3 476.7,174.8 477.2,173.3 477.7,171.8 478.2,170.3 478.7,168.8 479.0,167.3 479.2,165.8 479.2,164.3 478.9,162.8 478.5,161.3 477.8,159.9 477.1,158.4 476.2,156.9 475.3,155.4 474.4,153.9 473.6,152.4 466.4,152.4 465.6,153.9 464.7,155.4 463.8,156.9 462.9,158.4 462.2,159.9 461.5,161.3 461.1,162.8 460.8,164.3 460.8,165.8 461.0,167.3 461.3,168.8 461.8,170.3 462.3,171.8 462.8,173.3 463.3,174.8 463.6,176.3 463.8,177.8 463.8,179.3 463.7,180.8 463.3,182.3 462.8,183.8 462.3,185.3 461.7,186.8 461.1,188.3 460.5,189.8 460.1,191.3 459.8,192.8 459.6,194.3 459.5,195.8 459.5,197.3 459.4,198.8 459.2,200.3 458.9,201.8 458.4,203.3 457.6,204.8 456.5,206.3 455.0,207.8 453.3,209.3 451.2,210.8 448.8,212.3 446.2,213.8 443.5,215.3 440.8,216.8 438.2,218.3 435.8,219.8 433.9,221.3 432.5,222.8 431.7,224.3 431.7,225.8 432.5,227.3 434.0,228.8 436.2,230.3 438.9,231.8 442.0,233.3 445.4,234.8 448.8,236.3 452.1,237.8 455.2,239.3 457.9,240.8 460.4,242.3 462.4,243.7 464.1,245.2 465.4,246.7 466.5,248.2 467.3,249.7 467.9,251.2 468.4,252.7 468.7,254.2 469.0,255.7 469.2,257.2 469.4,258.7" fill="#2a8" opacity="0.5" stroke="#2a8" stroke-width="1"/>
<line x1="432.0" y1="223.52967178391776" x2="508.0" y2="223.52967178391776" stroke="#114" stroke-width="2"/>
<circle cx="470.0" cy="228.26920751930734" r="2.4" fill="#114"/>
<text x="470.0" y="156.85448259743958" text-anchor="middle" font-size="11">1.08</text>
<text x="470.0" y="376" text-anchor="middle" font-size="12">trmv</text>
<polygon points="569.2,242.0 571.1,240.7 573.2,239.4 575.6,238.2 578.2,236.9 580.9,235.6 583.7,234.4 586.5,233.1 589.2,231.8 591.8,230.6 594.1,229.3 596.1,228.0 597.6,226.8 598.7,225.5 599.3,224.2 599.4,222.9 599.0,221.7 598.1,220.4 596.8,219.1 595.2,217.9 593.4,216.6 591.4,215.3 589.3,214.1 587.3,212.8 585.3,211.5 583.5,210.3 581.8,209.0 580.3,207.7 579.0,206.5 577.8,205.2 576.7,203.9 575.8,202.7 575.0,201.4 574.3,200.1 573.7,198.9 573.2,197.6 572.8,196.3 572.4,195.1 572.1,193.8 571.9,192.5 571.9,191.3 571.9,190.0 572.0,188.7 572.2,187.5 572.4,186.2 572.7,184.9 573.0,183.7 573.4,182.4 573.7,181.1 574.0,179.9 574.2,178.6 574.4,177.3 574.6,176.1 574.7,174.8 574.7,173.5 574.8,172.3 574.8,171.0 574.7,169.7 574.6,168.5 574.5,167.2 574.3,165.9 574.0,164.7 573.6,163.4 573.1,162.1 572.6,160.9 571.9,159.6 571.2,158.3 570.3,157.1 569.5,155.8 568.6,154.5 567.7,153.3 566.8,152.0 555.4,152.0 554.5,153.3 553.6,154.5 552.7,155.8 551.9,157.1 551.1,158.3 550.3,159.6 549.6,160.9 549.1,162.1 548.6,163.4 548.2,164.7 547.9,165.9 547.7,167.2 547.6,168.5 547.5,169.7 547.5,171.0 547.4,172.3 547.5,173.5 547.6,174.8 547.7,176.1 547.8,177.3 548.0,178.6 548.3,179.9 548.6,181.1 548.9,182.4 549.2,183.7 549.5,184.9 549.8,186.2 550.1,187.5 550.2,188.7 550.4,190.0 550.4,191.3 550.3,192.5 550.1,193.8 549.8,195.1 549.5,196.3 549.0,197.6 548.5,198.9 547.9,200.1 547.2,201.4 546.4,202.7 545.5,203.9 544.4,205.2 543.3,206.5 541.9,207.7 540.4,209.0 538.7,210.3 536.9,211.5 534.9,212.8 532.9,214.1 530.8,215.3 528.9,216.6 527.0,217.9 525.4,219.1 524.1,220.4 523.3,221.7 522.8,222.9 522.9,224.2 523.5,225.5 524.6,226.8 526.2,228.0 528.1,229.3 530.5,230.6 533.0,231.8 535.8,233.1 538.6,234.4 541.4,235.6 544.1,236.9 546.6,238.2 549.0,239.4 551.1,240.7 553.0,242.0" fill="#2a8" opacity="0.5" stroke="#2a8" stroke-width="1"/>
<line x1="525.3" y1="219.28016256411246" x2="596.9" y2="219.28016256411246" stroke="#114" stroke-width="2"/>
<circle cx="561.1111111111111" cy="225.30214070352002" r="2.4" fill="#114"/>
<text x="561.1111111111111" y="154.90667801048215" text-anchor="middle" font-size="11">1.12</text>
<text x="561.1111111111111" y="376" text-anchor="middle" font-size="12">trsv</text>
<polygon points="663.6,261.3 666.0,258.3 668.5,255.3 671.2,252.3 673.9,249.4 676.7,246.4 679.4,243.4 681.9,240.4 684.2,237.4 686.2,234.5 687.8,231.5 689.1,228.5 689.9,225.5 690.4,222.6 690.5,219.6 690.2,216.6 689.6,213.6 688.8,210.7 687.6,207.7 686.3,204.7 684.8,201.7 683.1,198.8 681.3,195.8 679.5,192.8 677.6,189.8 675.6,186.9 673.7,183.9 671.9,180.9 670.2,177.9 668.7,175.0 667.3,172.0 666.2,169.0 665.3,166.0 664.6,163.1 664.2,160.1 663.9,157.1 663.8,154.1 663.8,151.2 663.9,148.2 664.0,145.2 664.0,142.2 664.0,139.3 663.9,136.3 663.7,133.3 663.3,130.3 662.9,127.4 662.5,124.4 662.1,121.4 661.6,118.4 661.3,115.5 661.0,112.5 660.9,109.5 660.9,106.5 661.0,103.6 661.2,100.6 661.4,97.6 661.8,94.6 662.1,91.7 662.3,88.7 662.5,85.7 662.5,82.7 662.5,79.8 662.2,76.8 661.8,73.8 661.3,70.8 660.7,67.9 659.9,64.9 659.1,61.9 658.3,58.9 657.5,56.0 656.7,53.0 655.9,50.0 648.5,50.0 647.8,53.0 647.0,56.0 646.1,58.9 645.3,61.9 644.5,64.9 643.8,67.9 643.1,70.8 642.6,73.8 642.2,76.8 642.0,79.8 641.9,82.7 642.0,85.7 642.1,88.7 642.4,91.7 642.7,94.6 643.0,97.6 643.3,100.6 643.5,103.6 643.6,106.5 643.6,109.5 643.4,112.5 643.2,115.5 642.8,118.4 642.4,121.4 641.9,124.4 641.5,127.4 641.1,130.3 640.8,133.3 640.6,136.3 640.5,139.3 640.4,142.2 640.5,145.2 640.5,148.2 640.6,151.2 640.6,154.1 640.5,157.1 640.3,160.1 639.8,163.1 639.1,166.0 638.2,169.0 637.1,172.0 635.8,175.0 634.2,177.9 632.5,180.9 630.7,183.9 628.8,186.9 626.9,189.8 625.0,192.8 623.1,195.8 621.3,198.8 619.7,201.7 618.2,204.7 616.8,207.7 615.7,210.7 614.8,213.6 614.2,216.6 614.0,219.6 614.0,222.6 614.5,225.5 615.4,228.5 616.6,231.5 618.3,234.5 620.3,237.4 622.5,240.4 625.1,243.4 627.7,246.4 630.5,249.4 633.2,252.3 635.9,255.3 638.5,258.3 640.8,261.3" fill="#2a8" opacity="0.5" stroke="#2a8" stroke-width="1"/>
<line x1="618.3" y1="204.39251173055482" x2="686.1" y2="204.39251173055482" stroke="#114" stroke-width="2"/>
<circle cx="652.2222222222223" cy="235.8246809616379" r="2.4" fill="#114"/>
<text x="652.2222222222223" y="61.433962264150935" text-anchor="middle" font-size="11">1.24</text>
<text x="652.2222222222223" y="376" text-anchor="middle" font-size="12">spmv</text>
<polygon points="743.4,240.0 743.5,239.4 743.6,238.9 743.7,238.4 743.7,237.9 743.8,237.4 743.9,236.9 743.9,236.3 743.9,235.8 743.9,235.3 743.9,234.8 744.0,234.3 744.1,233.8 744.4,233.3 744.9,232.7 745.6,232.2 746.7,231.7 748.1,231.2 749.9,230.7 752.1,230.2 754.7,229.7 757.6,229.1 760.8,228.6 764.2,228.1 767.7,227.6 771.1,227.1 774.4,226.6 777.2,226.1 779.5,225.5 781.0,225.0 781.6,224.5 781.2,224.0 779.9,223.5 777.8,223.0 775.1,222.5 772.0,221.9 768.9,221.4 765.9,220.9 763.2,220.4 760.8,219.9 758.6,219.4 756.7,218.9 755.0,218.3 753.6,217.8 752.4,217.3 751.5,216.8 751.0,216.3 750.9,215.8 751.0,215.3 751.4,214.7 752.0,214.2 752.6,213.7 753.1,213.2 753.3,212.7 753.3,212.2 752.9,211.6 752.2,211.1 751.2,210.6 750.1,210.1 749.0,209.6 748.0,209.1 747.0,208.6 746.3,208.0 745.7,207.5 745.2,207.0 744.8,206.5 744.5,206.0 744.2,205.5 744.0,205.0 743.8,204.4 743.6,203.9 743.5,203.4 743.1,203.4 743.0,203.9 742.9,204.4 742.7,205.0 742.5,205.5 742.2,206.0 741.9,206.5 741.5,207.0 741.0,207.5 740.4,208.0 739.6,208.6 738.7,209.1 737.7,209.6 736.6,210.1 735.5,210.6 734.5,211.1 733.8,211.6 733.4,212.2 733.3,212.7 733.6,213.2 734.1,213.7 734.7,214.2 735.2,214.7 735.6,215.3 735.8,215.8 735.6,216.3 735.1,216.8 734.3,217.3 733.1,217.8 731.6,218.3 730.0,218.9 728.1,219.4 725.9,219.9 723.5,220.4 720.7,220.9 717.8,221.4 714.6,221.9 711.6,222.5 708.9,223.0 706.7,223.5 705.4,224.0 705.1,224.5 705.7,225.0 707.2,225.5 709.5,226.1 712.3,226.6 715.5,227.1 719.0,227.6 722.5,228.1 725.9,228.6 729.1,229.1 732.0,229.7 734.6,230.2 736.8,230.7 738.6,231.2 740.0,231.7 741.0,232.2 741.8,232.7 742.3,233.3 742.5,233.8 742.7,234.3 742.7,234.8 742.8,235.3 742.8,235.8 742.8,236.3 742.8,236.9 742.9,237.4 742.9,237.9 743.0,238.4 743.1,238.9 743.2,239.4 743.2,240.0" fill="#2a8" opacity="0.5" stroke="#2a8" stroke-width="1"/>
<line x1="706.6" y1="223.5314404258242" x2="780.1" y2="223.5314404258242" stroke="#114" stroke-width="2"/>
<circle cx="743.3333333333334" cy="226.30808803417835" r="2.4" fill="#114"/>
<text x="743.3333333333334" y="201.1509345730197" text-anchor="middle" font-size="11">1.08</text>
<text x="743.3333333333334" y="376" text-anchor="middle" font-size="12">gbmvN</text>
<polygon points="834.4,205.2 834.5,203.4 834.5,201.6 834.5,199.8 834.6,197.9 834.7,196.1 834.8,194.3 834.9,192.5 834.8,190.7 834.7,188.8 834.6,187.0 834.5,185.2 834.5,183.4 834.5,181.6 834.4,179.7 834.4,177.9 834.4,176.1 834.5,174.3 834.5,172.5 834.7,170.6 835.1,168.8 836.2,167.0 838.5,165.2 842.9,163.4 849.8,161.5 858.4,159.7 866.7,157.9 872.1,156.1 872.7,154.3 869.0,152.4 863.1,150.6 857.0,148.8 852.0,147.0 848.1,145.2 844.9,143.4 842.3,141.5 840.5,139.7 839.8,137.9 840.1,136.1 840.8,134.3 841.2,132.4 841.1,130.6 840.2,128.8 838.9,127.0 837.5,125.2 836.3,123.3 835.4,121.5 834.9,119.7 834.6,117.9 834.5,116.1 834.5,114.2 834.4,112.4 834.4,110.6 834.4,108.8 834.4,107.0 834.4,105.1 834.4,103.3 834.4,101.5 834.5,99.7 834.5,97.9 834.5,96.0 834.6,94.2 834.7,92.4 834.8,90.6 834.9,88.8 834.8,86.9 834.7,85.1 834.6,83.3 834.5,81.5 834.5,79.7 834.5,77.8 834.4,76.0 834.4,76.0 834.4,77.8 834.4,79.7 834.3,81.5 834.3,83.3 834.1,85.1 834.0,86.9 834.0,88.8 834.0,90.6 834.1,92.4 834.3,94.2 834.3,96.0 834.4,97.9 834.4,99.7 834.4,101.5 834.4,103.3 834.4,105.1 834.4,107.0 834.4,108.8 834.4,110.6 834.4,112.4 834.4,114.2 834.4,116.1 834.3,117.9 834.0,119.7 833.5,121.5 832.6,123.3 831.4,125.2 829.9,127.0 828.6,128.8 827.8,130.6 827.7,132.4 828.1,134.3 828.8,136.1 829.1,137.9 828.4,139.7 826.6,141.5 824.0,143.4 820.8,145.2 816.9,147.0 811.9,148.8 805.8,150.6 799.9,152.4 796.2,154.3 796.8,156.1 802.1,157.9 810.5,159.7 819.1,161.5 825.9,163.4 830.4,165.2 832.7,167.0 833.8,168.8 834.2,170.6 834.4,172.5 834.4,174.3 834.4,176.1 834.4,177.9 834.4,179.7 834.4,181.6 834.4,183.4 834.3,185.2 834.3,187.0 834.1,188.8 834.0,190.7 834.0,192.5 834.0,194.3 834.1,196.1 834.3,197.9 834.3,199.8 834.4,201.6 834.4,203.4 834.4,205.2" fill="#2a8" opacity="0.5" stroke="#2a8" stroke-width="1"/>
<line x1="796.3" y1="154.16731913488798" x2="872.6" y2="154.16731913488798" stroke="#114" stroke-width="2"/>
<circle cx="834.4444444444445" cy="156.50647674783454" r="2.4" fill="#114"/>
<text x="834.4444444444445" y="82.73020624346925" text-anchor="middle" font-size="11">1.64</text>
<text x="834.4444444444445" y="376" text-anchor="middle" font-size="12">sbmv</text>
<text x="450.0" y="428" text-anchor="middle" font-size="11" fill="#666">violin = ratio distribution over sizes · line = median · dark dot = worst size · green = every size ≥ gate</text>
</svg>
