<svg xmlns="http://www.w3.org/2000/svg" width="900" height="440" font-family="sans-serif">
<rect width="900" height="440" fill="white"/>
<text x="450.0" y="28" text-anchor="middle" font-size="18" font-weight="bold">Complex BLAS-1: PureBLAS / OpenBLAS (AVX-512, 1 thread, ComplexF64)</text>
<line x1="60" y1="358.0" x2="880" y2="358.0" stroke="#eee"/>
<text x="52" y="362.0" text-anchor="end" font-size="11" fill="#666">0×</text>
<line x1="60" y1="346.3024601797577" x2="880" y2="346.3024601797577" stroke="#eee"/>
<text x="52" y="350.3024601797577" text-anchor="end" font-size="11" fill="#666">0.5×</text>
<line x1="60" y1="334.60492035951535" x2="880" y2="334.60492035951535" stroke="#eee"/>
<text x="52" y="338.60492035951535" text-anchor="end" font-size="11" fill="#666">1×</text>
<line x1="60" y1="322.90738053927305" x2="880" y2="322.90738053927305" stroke="#eee"/>
<text x="52" y="326.90738053927305" text-anchor="end" font-size="11" fill="#666">1.5×</text>
<line x1="60" y1="334.60492035951535" x2="880" y2="334.60492035951535" stroke="#888" stroke-width="1"/>
<line x1="60" y1="335.5407235451347" x2="880" y2="335.5407235451347" stroke="#d33" stroke-width="1.5" stroke-dasharray="6 4"/>
<text x="880" y="330.5407235451347" text-anchor="end" font-size="11" fill="#d33">0.96× gate</text>
<polygon points="118.7,338.3 118.8,338.2 119.0,338.0 119.2,337.8 119.6,337.7 120.2,337.5 120.8,337.4 121.7,337.2 122.8,337.1 124.3,336.9 126.1,336.7 128.5,336.6 131.7,336.4 135.7,336.3 140.6,336.1 146.2,336.0 152.0,335.8 157.5,335.7 162.1,335.5 165.5,335.3 167.3,335.2 167.8,335.0 167.2,334.9 166.0,334.7 164.3,334.6 162.1,334.4 159.3,334.2 155.9,334.1 151.8,333.9 147.2,333.8 142.4,333.6 137.5,333.5 133.1,333.3 129.1,333.2 125.9,333.0 123.4,332.8 121.7,332.7 120.6,332.5 120.0,332.4 120.0,332.2 120.4,332.1 121.2,331.9 122.4,331.7 123.9,331.6 125.6,331.4 127.1,331.3 128.3,331.1 129.0,331.0 129.2,330.8 128.8,330.7 128.0,330.5 127.0,330.3 126.0,330.2 125.0,330.0 124.1,329.9 123.3,329.7 122.6,329.6 121.9,329.4 121.2,329.2 120.6,329.1 120.1,328.9 119.7,328.8 119.4,328.6 119.2,328.5 119.1,328.3 119.0,328.2 118.9,328.0 118.8,327.8 118.7,327.7 118.7,327.5 118.6,327.4 118.6,327.2 118.5,327.2 118.5,327.4 118.5,327.5 118.4,327.7 118.3,327.8 118.3,328.0 118.2,328.2 118.1,328.3 117.9,328.5 117.7,328.6 117.4,328.8 117.0,328.9 116.5,329.1 116.0,329.2 115.3,329.4 114.6,329.6 113.8,329.7 113.0,329.9 112.1,330.0 111.1,330.2 110.1,330.3 109.1,330.5 108.4,330.7 108.0,330.8 108.1,331.0 108.8,331.1 110.1,331.3 111.6,331.4 113.2,331.6 114.7,331.7 115.9,331.9 116.8,332.1 117.2,332.2 117.1,332.4 116.6,332.5 115.5,332.7 113.7,332.8 111.2,333.0 108.0,333.2 104.1,333.3 99.6,333.5 94.8,333.6 89.9,333.8 85.3,333.9 81.3,334.1 77.9,334.2 75.1,334.4 72.9,334.6 71.1,334.7 69.9,334.9 69.4,335.0 69.9,335.2 71.7,335.3 75.0,335.5 79.6,335.7 85.2,335.8 91.0,336.0 96.5,336.1 101.4,336.3 105.5,336.4 108.6,336.6 111.0,336.7 112.9,336.9 114.3,337.1 115.4,337.2 116.3,337.4 117.0,337.5 117.5,337.7 117.9,337.8 118.2,338.0 118.3,338.2 118.5,338.3" fill="#2a8" opacity="0.5" stroke="#2a8" stroke-width="1"/>
<line x1="72.6" y1="334.5856061787464" x2="164.6" y2="334.5856061787464" stroke="#114" stroke-width="2"/>
<circle cx="118.57142857142857" cy="335.4946671235721" r="2.4" fill="#114"/>
<text x="118.57142857142857" y="322.3267864188732" text-anchor="middle" font-size="11">1.00</text>
<text x="118.57142857142857" y="376" text-anchor="middle" font-size="12">zaxpy</text>
<polygon points="235.9,336.8 236.0,336.7 236.2,336.6 236.4,336.4 236.7,336.3 237.1,336.2 237.6,336.0 238.4,335.9 239.5,335.8 241.0,335.6 243.2,335.5 246.1,335.3 249.8,335.2 254.2,335.1 259.4,334.9 265.0,334.8 270.6,334.7 275.7,334.5 279.9,334.4 283.0,334.3 284.6,334.1 284.9,334.0 284.2,333.9 282.9,333.7 281.4,333.6 280.0,333.5 279.0,333.3 278.3,333.2 277.8,333.1 277.3,332.9 276.6,332.8 275.5,332.7 274.0,332.5 272.3,332.4 270.5,332.3 268.9,332.1 267.8,332.0 267.3,331.9 267.4,331.7 268.0,331.6 269.1,331.5 270.4,331.3 271.7,331.2 272.8,331.1 273.6,330.9 274.0,330.8 274.0,330.7 273.7,330.5 273.0,330.4 272.0,330.3 270.8,330.1 269.4,330.0 267.8,329.9 266.0,329.7 264.0,329.6 261.9,329.5 259.7,329.3 257.2,329.2 254.7,329.1 252.1,328.9 249.5,328.8 247.1,328.7 244.8,328.5 242.7,328.4 241.0,328.3 239.5,328.1 238.4,328.0 237.6,327.9 236.9,327.7 236.5,327.6 236.2,327.5 236.0,327.3 235.4,327.3 235.2,327.5 234.9,327.6 234.5,327.7 233.9,327.9 233.0,328.0 231.9,328.1 230.5,328.3 228.7,328.4 226.7,328.5 224.4,328.7 221.9,328.8 219.3,328.9 216.7,329.1 214.2,329.2 211.8,329.3 209.5,329.5 207.4,329.6 205.4,329.7 203.6,329.9 202.0,330.0 200.6,330.1 199.4,330.3 198.4,330.4 197.8,330.5 197.4,330.7 197.5,330.8 197.9,330.9 198.7,331.1 199.8,331.2 201.0,331.3 202.3,331.5 203.4,331.6 204.1,331.7 204.2,331.9 203.6,332.0 202.5,332.1 200.9,332.3 199.1,332.4 197.4,332.5 195.9,332.7 194.8,332.8 194.1,332.9 193.6,333.1 193.1,333.2 192.4,333.3 191.4,333.5 190.0,333.6 188.5,333.7 187.2,333.9 186.5,334.0 186.8,334.1 188.5,334.3 191.5,334.4 195.7,334.5 200.8,334.7 206.4,334.8 212.0,334.9 217.2,335.1 221.7,335.2 225.4,335.3 228.2,335.5 230.4,335.6 231.9,335.8 233.1,335.9 233.8,336.0 234.4,336.2 234.8,336.3 235.1,336.4 235.3,336.6 235.4,336.7 235.5,336.8" fill="#2a8" opacity="0.5" stroke="#2a8" stroke-width="1"/>
<line x1="197.7" y1="332.51167327417863" x2="273.7" y2="332.51167327417863" stroke="#114" stroke-width="2"/>
<circle cx="235.71428571428572" cy="334.26971175353515" r="2.4" fill="#114"/>
<text x="235.71428571428572" y="322.2760624896671" text-anchor="middle" font-size="11">1.09</text>
<text x="235.71428571428572" y="376" text-anchor="middle" font-size="12">zdotc</text>
<polygon points="352.9,337.6 352.9,337.5 353.0,337.5 353.2,337.4 353.4,337.3 353.6,337.3 353.9,337.2 354.3,337.1 354.6,337.0 354.8,337.0 354.9,336.9 355.0,336.8 355.1,336.8 355.1,336.7 355.2,336.6 355.4,336.6 355.7,336.5 356.1,336.4 356.6,336.4 357.1,336.3 357.8,336.2 358.5,336.1 359.3,336.1 360.1,336.0 360.8,335.9 361.4,335.9 361.7,335.8 362.0,335.7 362.3,335.7 362.8,335.6 363.8,335.5 365.4,335.4 367.4,335.4 369.8,335.3 372.4,335.2 375.3,335.2 378.4,335.1 381.9,335.0 386.0,335.0 390.3,334.9 394.6,334.8 398.2,334.8 400.8,334.7 402.0,334.6 402.1,334.5 401.3,334.5 400.1,334.4 398.7,334.3 397.3,334.3 395.6,334.2 393.4,334.1 390.6,334.1 386.9,334.0 382.5,333.9 377.4,333.8 372.2,333.8 367.3,333.7 363.2,333.6 360.0,333.6 357.8,333.5 356.3,333.4 355.3,333.4 354.7,333.3 354.2,333.2 353.9,333.2 353.6,333.1 353.4,333.0 353.2,332.9 353.1,332.9 353.0,332.8 352.9,332.7 352.9,332.7 352.8,332.7 352.8,332.7 352.7,332.8 352.7,332.9 352.5,332.9 352.3,333.0 352.1,333.1 351.8,333.2 351.5,333.2 351.0,333.3 350.4,333.4 349.4,333.4 348.0,333.5 345.7,333.6 342.5,333.6 338.4,333.7 333.5,333.8 328.3,333.8 323.2,333.9 318.8,334.0 315.1,334.1 312.3,334.1 310.1,334.2 308.4,334.3 307.0,334.3 305.6,334.4 304.4,334.5 303.7,334.5 303.7,334.6 305.0,334.7 307.5,334.8 311.2,334.8 315.4,334.9 319.8,335.0 323.8,335.0 327.3,335.1 330.5,335.2 333.3,335.2 336.0,335.3 338.3,335.4 340.3,335.4 341.9,335.5 342.9,335.6 343.4,335.7 343.8,335.7 344.0,335.8 344.4,335.9 344.9,335.9 345.6,336.0 346.4,336.1 347.2,336.1 347.9,336.2 348.6,336.3 349.1,336.4 349.6,336.4 350.0,336.5 350.3,336.6 350.5,336.6 350.6,336.7 350.7,336.8 350.7,336.8 350.8,336.9 350.9,337.0 351.2,337.0 351.5,337.1 351.8,337.2 352.1,337.3 352.3,337.3 352.5,337.4 352.7,337.5 352.8,337.5 352.8,337.6" fill="#2a8" opacity="0.5" stroke="#2a8" stroke-width="1"/>
<line x1="303.7" y1="334.6103012162521" x2="402.0" y2="334.6103012162521" stroke="#114" stroke-width="2"/>
<circle cx="352.85714285714283" cy="335.148296678273" r="2.4" fill="#114"/>
<text x="352.85714285714283" y="327.1792592157193" text-anchor="middle" font-size="11">1.00</text>
<text x="352.85714285714283" y="376" text-anchor="middle" font-size="12">zscal</text>
<polygon points="477.4,288.1 479.6,284.7 482.2,281.4 485.1,278.0 488.3,274.7 491.5,271.3 494.8,267.9 498.1,264.6 501.0,261.2 503.7,257.9 505.9,254.5 507.7,251.2 508.9,247.8 509.5,244.5 509.6,241.1 509.2,237.8 508.3,234.4 507.0,231.1 505.5,227.7 504.0,224.4 502.5,221.0 501.3,217.7 500.5,214.3 500.4,210.9 501.0,207.6 502.4,204.2 504.5,200.9 507.2,197.5 510.1,194.2 513.2,190.8 515.9,187.5 518.0,184.1 519.1,180.8 519.2,177.4 518.1,174.1 515.8,170.7 512.4,167.4 508.3,164.0 503.6,160.6 498.7,157.3 493.8,153.9 489.2,150.6 485.1,147.2 481.6,143.9 478.7,140.5 476.4,137.2 474.6,133.8 473.4,130.5 472.6,127.1 472.2,123.8 472.0,120.4 472.1,117.1 472.3,113.7 472.8,110.4 473.5,107.0 474.4,103.6 475.4,100.3 476.7,96.9 478.1,93.6 479.6,90.2 481.1,86.9 482.6,83.5 483.9,80.2 484.9,76.8 485.6,73.5 485.9,70.1 485.7,66.8 485.1,63.4 484.2,60.1 482.9,56.7 481.3,53.4 479.7,50.0 460.3,50.0 458.7,53.4 457.1,56.7 455.8,60.1 454.9,63.4 454.3,66.8 454.1,70.1 454.4,73.5 455.1,76.8 456.1,80.2 457.4,83.5 458.9,86.9 460.4,90.2 461.9,93.6 463.3,96.9 464.6,100.3 465.6,103.6 466.5,107.0 467.2,110.4 467.7,113.7 467.9,117.1 468.0,120.4 467.8,123.8 467.4,127.1 466.6,130.5 465.4,133.8 463.6,137.2 461.3,140.5 458.4,143.9 454.9,147.2 450.8,150.6 446.2,153.9 441.3,157.3 436.4,160.6 431.7,164.0 427.6,167.4 424.2,170.7 421.9,174.1 420.8,177.4 420.9,180.8 422.0,184.1 424.1,187.5 426.8,190.8 429.9,194.2 432.8,197.5 435.5,200.9 437.6,204.2 439.0,207.6 439.6,210.9 439.5,214.3 438.7,217.7 437.5,221.0 436.0,224.4 434.5,227.7 433.0,231.1 431.7,234.4 430.8,237.8 430.4,241.1 430.5,244.5 431.1,247.8 432.3,251.2 434.1,254.5 436.3,257.9 439.0,261.2 441.9,264.6 445.2,267.9 448.5,271.3 451.7,274.7 454.9,278.0 457.8,281.4 460.4,284.7 462.6,288.1" fill="#2a8" opacity="0.5" stroke="#2a8" stroke-width="1"/>
<line x1="421.2" y1="182.19695341475006" x2="518.8" y2="182.19695341475006" stroke="#114" stroke-width="2"/>
<circle cx="470.0" cy="259.66710755831525" r="2.4" fill="#114"/>
<text x="470.0" y="61.43396226415098" text-anchor="middle" font-size="11">7.51</text>
<text x="470.0" y="376" text-anchor="middle" font-size="12">dznrm2</text>
<polygon points="587.1,337.3 587.2,337.2 587.2,337.1 587.3,337.0 587.5,336.9 587.7,336.8 588.1,336.8 588.5,336.7 588.8,336.6 589.1,336.5 589.4,336.4 589.6,336.3 589.9,336.2 590.2,336.1 590.8,336.0 591.8,335.9 593.8,335.8 597.1,335.7 601.8,335.7 607.4,335.6 612.8,335.5 617.0,335.4 619.4,335.3 620.3,335.2 620.6,335.1 621.3,335.0 623.3,334.9 627.0,334.8 631.5,334.7 635.3,334.7 636.3,334.6 633.4,334.5 626.8,334.4 618.1,334.3 609.4,334.2 602.1,334.1 596.8,334.0 593.3,333.9 591.1,333.8 589.9,333.7 589.2,333.6 588.8,333.6 588.6,333.5 588.4,333.4 588.1,333.3 588.0,333.2 587.9,333.1 587.9,333.0 587.9,332.9 587.8,332.8 587.8,332.7 587.8,332.6 587.7,332.5 587.7,332.5 587.8,332.4 587.8,332.3 587.8,332.2 587.9,332.1 588.0,332.0 588.1,331.9 588.2,331.8 588.4,331.7 588.5,331.6 588.4,331.5 588.3,331.5 588.0,331.4 587.7,331.3 587.5,331.2 587.3,331.1 587.2,331.0 587.2,330.9 587.2,330.8 587.1,330.8 587.1,330.9 587.1,331.0 587.0,331.1 586.8,331.2 586.6,331.3 586.3,331.4 586.0,331.5 585.8,331.5 585.8,331.6 585.9,331.7 586.0,331.8 586.2,331.9 586.3,332.0 586.4,332.1 586.5,332.2 586.5,332.3 586.5,332.4 586.5,332.5 586.5,332.5 586.5,332.6 586.5,332.7 586.4,332.8 586.4,332.9 586.4,333.0 586.4,333.1 586.3,333.2 586.1,333.3 585.9,333.4 585.7,333.5 585.5,333.6 585.1,333.6 584.4,333.7 583.2,333.8 581.0,333.9 577.5,334.0 572.2,334.1 564.9,334.2 556.2,334.3 547.5,334.4 540.9,334.5 537.9,334.6 539.0,334.7 542.8,334.7 547.3,334.8 551.0,334.9 553.0,335.0 553.7,335.1 554.0,335.2 554.9,335.3 557.3,335.4 561.5,335.5 566.9,335.6 572.5,335.7 577.2,335.7 580.5,335.8 582.5,335.9 583.5,336.0 584.1,336.1 584.4,336.2 584.7,336.3 584.9,336.4 585.2,336.5 585.5,336.6 585.8,336.7 586.2,336.8 586.5,336.8 586.8,336.9 587.0,337.0 587.1,337.1 587.1,337.2 587.1,337.3" fill="#2a8" opacity="0.5" stroke="#2a8" stroke-width="1"/>
<line x1="542.5" y1="334.73786366659175" x2="631.8" y2="334.73786366659175" stroke="#114" stroke-width="2"/>
<circle cx="587.1428571428571" cy="335.3780040786493" r="2.4" fill="#114"/>
<text x="587.1428571428571" y="325.47794163408855" text-anchor="middle" font-size="11">0.99</text>
<text x="587.1428571428571" y="376" text-anchor="middle" font-size="12">dzasum</text>
<polygon points="704.9,336.3 705.3,336.2 705.8,336.1 706.6,335.9 707.7,335.8 709.2,335.7 711.2,335.6 713.8,335.4 717.1,335.3 721.0,335.2 725.6,335.1 730.6,334.9 735.7,334.8 740.8,334.7 745.3,334.6 748.9,334.4 751.6,334.3 753.1,334.2 753.5,334.1 753.1,333.9 752.1,333.8 751.0,333.7 750.0,333.6 749.2,333.4 748.7,333.3 748.3,333.2 747.8,333.1 747.0,332.9 745.6,332.8 743.7,332.7 741.2,332.6 738.4,332.4 735.6,332.3 733.1,332.2 731.3,332.1 730.3,331.9 730.3,331.8 731.3,331.7 733.1,331.6 735.4,331.4 737.9,331.3 740.3,331.2 742.3,331.1 743.7,330.9 744.3,330.8 744.1,330.7 743.2,330.6 741.6,330.4 739.6,330.3 737.3,330.2 734.9,330.1 732.5,329.9 730.2,329.8 728.2,329.7 726.5,329.6 725.1,329.4 723.9,329.3 722.8,329.2 721.8,329.1 720.8,328.9 719.6,328.8 718.3,328.7 716.8,328.6 715.2,328.4 713.6,328.3 712.0,328.2 710.5,328.1 709.1,327.9 707.9,327.8 706.9,327.7 706.1,327.6 705.5,327.4 703.0,327.4 702.4,327.6 701.7,327.7 700.7,327.8 699.5,327.9 698.1,328.1 696.6,328.2 695.0,328.3 693.3,328.4 691.7,328.6 690.3,328.7 689.0,328.8 687.8,328.9 686.7,329.1 685.7,329.2 684.7,329.3 683.5,329.4 682.1,329.6 680.4,329.7 678.4,329.8 676.1,329.9 673.7,330.1 671.3,330.2 668.9,330.3 666.9,330.4 665.4,330.6 664.5,330.7 664.3,330.8 664.9,330.9 666.3,331.1 668.3,331.2 670.7,331.3 673.2,331.4 675.5,331.6 677.3,331.7 678.2,331.8 678.3,331.9 677.3,332.1 675.5,332.2 673.0,332.3 670.2,332.4 667.4,332.6 664.9,332.7 662.9,332.8 661.6,332.9 660.8,333.1 660.3,333.2 659.9,333.3 659.4,333.4 658.6,333.6 657.5,333.7 656.4,333.8 655.5,333.9 655.1,334.1 655.5,334.2 657.0,334.3 659.6,334.4 663.3,334.6 667.8,334.7 672.8,334.8 678.0,334.9 683.0,335.1 687.5,335.2 691.5,335.3 694.8,335.4 697.4,335.6 699.4,335.7 700.9,335.8 702.0,335.9 702.8,336.1 703.3,336.2 703.7,336.3" fill="#2a8" opacity="0.5" stroke="#2a8" stroke-width="1"/>
<line x1="664.1" y1="332.72868814190906" x2="744.4" y2="332.72868814190906" stroke="#114" stroke-width="2"/>
<circle cx="704.2857142857142" cy="334.3661203644808" r="2.4" fill="#114"/>
<text x="704.2857142857142" y="322.329162027783" text-anchor="middle" font-size="11">1.08</text>
<text x="704.2857142857142" y="376" text-anchor="middle" font-size="12">zdotu</text>
<polygon points="822.4,335.7 823.1,335.2 824.1,334.8 825.5,334.3 827.4,333.8 829.8,333.3 832.8,332.8 836.2,332.3 840.0,331.8 843.8,331.4 847.6,330.9 851.0,330.4 853.9,329.9 856.1,329.4 857.6,328.9 858.4,328.4 858.6,327.9 858.3,327.5 857.8,327.0 857.2,326.5 856.7,326.0 856.4,325.5 856.5,325.0 856.8,324.5 857.5,324.1 858.3,323.6 859.2,323.1 860.1,322.6 861.0,322.1 861.7,321.6 862.2,321.1 862.7,320.6 863.2,320.2 863.7,319.7 864.4,319.2 865.1,318.7 866.0,318.2 867.1,317.7 868.2,317.2 869.2,316.8 870.1,316.3 870.6,315.8 870.6,315.3 870.0,314.8 868.8,314.3 866.8,313.8 864.2,313.3 861.0,312.9 857.4,312.4 853.4,311.9 849.4,311.4 845.3,310.9 841.3,310.4 837.6,309.9 834.2,309.5 831.3,309.0 828.9,308.5 826.9,308.0 825.4,307.5 824.3,307.0 823.5,306.5 823.0,306.0 822.6,305.6 822.4,305.1 822.2,304.6 822.1,304.1 822.0,303.6 821.9,303.1 821.8,302.6 821.7,302.2 821.6,301.7 821.6,301.2 821.3,301.2 821.2,301.7 821.2,302.2 821.1,302.6 821.0,303.1 820.9,303.6 820.8,304.1 820.6,304.6 820.5,305.1 820.2,305.6 819.9,306.0 819.4,306.5 818.6,307.0 817.5,307.5 815.9,308.0 814.0,308.5 811.6,309.0 808.6,309.5 805.3,309.9 801.6,310.4 797.6,310.9 793.5,311.4 789.4,311.9 785.5,312.4 781.9,312.9 778.7,313.3 776.1,313.8 774.1,314.3 772.8,314.8 772.2,315.3 772.2,315.8 772.8,316.3 773.6,316.8 774.7,317.2 775.8,317.7 776.8,318.2 777.7,318.7 778.5,319.2 779.1,319.7 779.6,320.2 780.1,320.6 780.6,321.1 781.2,321.6 781.9,322.1 782.7,322.6 783.6,323.1 784.6,323.6 785.4,324.1 786.0,324.5 786.4,325.0 786.4,325.5 786.2,326.0 785.7,326.5 785.1,327.0 784.6,327.5 784.3,327.9 784.5,328.4 785.3,328.9 786.7,329.4 789.0,329.9 791.8,330.4 795.3,330.9 799.0,331.4 802.9,331.8 806.6,332.3 810.1,332.8 813.0,333.3 815.5,333.8 817.4,334.3 818.8,334.8 819.8,335.2 820.4,335.7" fill="#2a8" opacity="0.5" stroke="#2a8" stroke-width="1"/>
<line x1="779.5" y1="319.99957245304796" x2="863.4" y2="319.99957245304796" stroke="#114" stroke-width="2"/>
<circle cx="821.4285714285714" cy="324.5103847607571" r="2.4" fill="#114"/>
<text x="821.4285714285714" y="298.56050545809006" text-anchor="middle" font-size="11">1.62</text>
<text x="821.4285714285714" y="376" text-anchor="middle" font-size="12">izamax</text>
<text x="450.0" y="428" text-anchor="middle" font-size="11" fill="#666">violin = ratio distribution over sizes · line = median · dark dot = worst size · green = every size ≥ gate</text>
</svg>
