<svg xmlns="http://www.w3.org/2000/svg" width="900" height="440" font-family="sans-serif">
<rect width="900" height="440" fill="white"/>
<text x="450.0" y="28" text-anchor="middle" font-size="18" font-weight="bold">BLAS-1: PureBLAS / OpenBLAS (AVX-512, 1 thread, Float64)</text>
<line x1="60" y1="358.0" x2="880" y2="358.0" stroke="#eee"/>
<text x="52" y="362.0" text-anchor="end" font-size="11" fill="#666">0×</text>
<line x1="60" y1="346.7682917351542" x2="880" y2="346.7682917351542" stroke="#eee"/>
<text x="52" y="350.7682917351542" text-anchor="end" font-size="11" fill="#666">0.5×</text>
<line x1="60" y1="335.53658347030847" x2="880" y2="335.53658347030847" stroke="#eee"/>
<text x="52" y="339.53658347030847" text-anchor="end" font-size="11" fill="#666">1×</text>
<line x1="60" y1="324.3048752054627" x2="880" y2="324.3048752054627" stroke="#eee"/>
<text x="52" y="328.3048752054627" text-anchor="end" font-size="11" fill="#666">1.5×</text>
<line x1="60" y1="335.53658347030847" x2="880" y2="335.53658347030847" stroke="#888" stroke-width="1"/>
<line x1="60" y1="336.43512013149615" x2="880" y2="336.43512013149615" stroke="#d33" stroke-width="1.5" stroke-dasharray="6 4"/>
<text x="880" y="331.43512013149615" text-anchor="end" font-size="11" fill="#d33">0.96× gate</text>
<polygon points="128.3,340.9 128.4,340.7 128.4,340.6 128.4,340.5 128.5,340.3 128.6,340.2 128.6,340.0 128.7,339.9 128.6,339.8 128.6,339.6 128.5,339.5 128.4,339.4 128.4,339.2 128.4,339.1 128.4,338.9 128.5,338.8 128.6,338.7 128.8,338.5 129.0,338.4 129.3,338.2 129.7,338.1 130.2,338.0 130.8,337.8 131.5,337.7 132.0,337.6 132.3,337.4 132.4,337.3 132.4,337.1 132.7,337.0 133.6,336.9 135.6,336.7 139.0,336.6 144.1,336.5 150.7,336.3 158.7,336.2 167.4,336.0 175.6,335.9 182.2,335.8 185.7,335.6 185.3,335.5 180.9,335.3 173.5,335.2 164.5,335.1 155.7,334.9 148.2,334.8 142.6,334.7 138.7,334.5 136.1,334.4 134.5,334.2 133.6,334.1 133.4,334.0 134.1,333.8 135.8,333.7 138.2,333.5 140.7,333.4 142.5,333.3 142.9,333.1 141.6,333.0 139.1,332.9 136.1,332.7 133.4,332.6 131.4,332.4 130.1,332.3 129.4,332.2 129.0,332.0 128.8,331.9 128.6,331.7 128.5,331.6 128.4,331.5 128.4,331.3 128.4,331.2 128.3,331.1 128.3,331.1 128.3,331.2 128.3,331.3 128.2,331.5 128.1,331.6 128.0,331.7 127.9,331.9 127.7,332.0 127.3,332.2 126.5,332.3 125.3,332.4 123.3,332.6 120.6,332.7 117.6,332.9 115.1,333.0 113.8,333.1 114.1,333.3 115.9,333.4 118.5,333.5 120.9,333.7 122.5,333.8 123.3,334.0 123.1,334.1 122.2,334.2 120.6,334.4 118.0,334.5 114.1,334.7 108.5,334.8 101.0,334.9 92.2,335.1 83.2,335.2 75.7,335.3 71.3,335.5 70.9,335.6 74.5,335.8 81.0,335.9 89.3,336.0 98.0,336.2 105.9,336.3 112.6,336.5 117.6,336.6 121.0,336.7 123.0,336.9 124.0,337.0 124.3,337.1 124.3,337.3 124.4,337.4 124.7,337.6 125.2,337.7 125.8,337.8 126.4,338.0 127.0,338.1 127.4,338.2 127.7,338.4 127.9,338.5 128.1,338.7 128.2,338.8 128.2,338.9 128.3,339.1 128.3,339.2 128.2,339.4 128.2,339.5 128.1,339.6 128.0,339.8 128.0,339.9 128.0,340.0 128.1,340.2 128.2,340.3 128.2,340.5 128.3,340.6 128.3,340.7 128.3,340.9" fill="#2a8" opacity="0.5" stroke="#2a8" stroke-width="1"/>
<line x1="71.0" y1="335.5041387702395" x2="185.7" y2="335.5041387702395" stroke="#114" stroke-width="2"/>
<circle cx="128.33333333333331" cy="336.1786593637734" r="2.4" fill="#114"/>
<text x="128.33333333333331" y="326.0387372737116" text-anchor="middle" font-size="11">1.00</text>
<text x="128.33333333333331" y="376" text-anchor="middle" font-size="12">axpy</text>
<polygon points="265.0,337.9 265.0,337.8 265.0,337.7 265.0,337.7 265.1,337.6 265.2,337.5 265.3,337.4 265.4,337.3 265.3,337.2 265.2,337.1 265.1,337.0 265.0,336.9 265.0,336.9 265.0,336.8 265.0,336.7 265.0,336.6 265.1,336.5 265.4,336.4 266.1,336.3 267.4,336.2 269.5,336.1 272.2,336.1 275.9,336.0 281.0,335.9 288.5,335.8 298.9,335.7 310.4,335.6 319.3,335.5 322.4,335.4 320.3,335.3 315.3,335.2 308.8,335.2 301.0,335.1 292.9,335.0 285.7,334.9 280.1,334.8 275.6,334.7 271.9,334.6 269.1,334.5 267.4,334.4 266.5,334.4 266.1,334.3 265.8,334.2 265.6,334.1 265.6,334.0 265.7,333.9 265.7,333.8 265.8,333.7 265.7,333.6 265.7,333.6 265.8,333.5 266.0,333.4 266.3,333.3 266.4,333.2 266.1,333.1 265.8,333.0 265.5,332.9 265.4,332.8 265.4,332.7 265.4,332.7 265.3,332.6 265.2,332.5 265.3,332.4 265.4,332.3 265.4,332.2 265.3,332.1 265.2,332.0 265.1,331.9 265.0,331.9 265.0,331.8 265.0,331.7 265.0,331.6 265.0,331.6 265.0,331.7 265.0,331.8 265.0,331.9 264.9,331.9 264.8,332.0 264.7,332.1 264.6,332.2 264.6,332.3 264.7,332.4 264.8,332.5 264.7,332.6 264.6,332.7 264.6,332.7 264.6,332.8 264.5,332.9 264.2,333.0 263.9,333.1 263.6,333.2 263.7,333.3 264.0,333.4 264.2,333.5 264.3,333.6 264.3,333.6 264.2,333.7 264.3,333.8 264.3,333.9 264.4,334.0 264.4,334.1 264.2,334.2 263.9,334.3 263.5,334.4 262.6,334.4 260.9,334.5 258.1,334.6 254.4,334.7 249.9,334.8 244.3,334.9 237.1,335.0 229.0,335.1 221.2,335.2 214.7,335.2 209.7,335.3 207.6,335.4 210.7,335.5 219.6,335.6 231.1,335.7 241.5,335.8 249.0,335.9 254.1,336.0 257.8,336.1 260.5,336.1 262.6,336.2 263.9,336.3 264.6,336.4 264.9,336.5 265.0,336.6 265.0,336.7 265.0,336.8 265.0,336.9 265.0,336.9 264.9,337.0 264.8,337.1 264.7,337.2 264.6,337.3 264.7,337.4 264.8,337.5 264.9,337.6 265.0,337.7 265.0,337.7 265.0,337.8 265.0,337.9" fill="#2a8" opacity="0.5" stroke="#2a8" stroke-width="1"/>
<line x1="208.1" y1="335.38398194786396" x2="321.9" y2="335.38398194786396" stroke="#114" stroke-width="2"/>
<circle cx="265.0" cy="335.5986048720938" r="2.4" fill="#114"/>
<text x="265.0" y="326.23525595816983" text-anchor="middle" font-size="11">1.01</text>
<text x="265.0" y="376" text-anchor="middle" font-size="12">dot</text>
<polygon points="406.8,284.8 408.6,281.5 410.8,278.1 413.5,274.8 416.6,271.5 420.2,268.2 424.1,264.9 428.3,261.6 432.7,258.3 437.0,255.0 441.1,251.7 444.8,248.4 448.1,245.1 450.9,241.8 453.0,238.5 454.6,235.2 455.6,231.9 456.2,228.5 456.6,225.2 456.7,221.9 456.9,218.6 457.2,215.3 457.5,212.0 458.0,208.7 458.5,205.4 458.9,202.1 459.1,198.8 458.9,195.5 458.1,192.2 456.7,188.9 454.6,185.6 451.8,182.3 448.4,179.0 444.3,175.6 439.9,172.3 435.4,169.0 430.8,165.7 426.4,162.4 422.4,159.1 418.8,155.8 415.8,152.5 413.3,149.2 411.4,145.9 410.1,142.6 409.4,139.3 409.1,136.0 409.2,132.7 409.8,129.4 410.7,126.0 412.0,122.7 413.7,119.4 415.6,116.1 417.8,112.8 420.3,109.5 422.8,106.2 425.5,102.9 428.1,99.6 430.5,96.3 432.7,93.0 434.4,89.7 435.7,86.4 436.3,83.1 436.3,79.8 435.7,76.5 434.4,73.1 432.6,69.8 430.2,66.5 427.5,63.2 424.6,59.9 421.6,56.6 418.6,53.3 415.8,50.0 387.6,50.0 384.7,53.3 381.7,56.6 378.7,59.9 375.8,63.2 373.1,66.5 370.8,69.8 368.9,73.1 367.6,76.5 367.0,79.8 367.0,83.1 367.7,86.4 368.9,89.7 370.6,93.0 372.8,96.3 375.2,99.6 377.8,102.9 380.5,106.2 383.1,109.5 385.5,112.8 387.7,116.1 389.7,119.4 391.3,122.7 392.6,126.0 393.6,129.4 394.1,132.7 394.3,136.0 394.0,139.3 393.2,142.6 391.9,145.9 390.0,149.2 387.6,152.5 384.5,155.8 381.0,159.1 376.9,162.4 372.5,165.7 368.0,169.0 363.4,172.3 359.0,175.6 355.0,179.0 351.5,182.3 348.7,185.6 346.6,188.9 345.2,192.2 344.5,195.5 344.3,198.8 344.5,202.1 344.9,205.4 345.4,208.7 345.8,212.0 346.2,215.3 346.4,218.6 346.6,221.9 346.8,225.2 347.1,228.5 347.7,231.9 348.8,235.2 350.3,238.5 352.5,241.8 355.2,245.1 358.5,248.4 362.3,251.7 366.4,255.0 370.7,258.3 375.0,261.6 379.2,264.9 383.1,268.2 386.7,271.5 389.8,274.8 392.5,278.1 394.8,281.5 396.6,284.8" fill="#2a8" opacity="0.5" stroke="#2a8" stroke-width="1"/>
<line x1="348.2" y1="186.20907852817166" x2="455.1" y2="186.20907852817166" stroke="#114" stroke-width="2"/>
<circle cx="401.66666666666663" cy="244.02636584715071" r="2.4" fill="#114"/>
<text x="401.66666666666663" y="61.433962264150935" text-anchor="middle" font-size="11">7.65</text>
<text x="401.66666666666663" y="376" text-anchor="middle" font-size="12">nrm2</text>
<polygon points="545.4,338.0 549.0,337.7 553.6,337.5 559.4,337.2 566.0,336.9 573.2,336.7 580.3,336.4 586.7,336.2 591.7,335.9 594.8,335.6 595.7,335.4 594.3,335.1 590.9,334.9 586.0,334.6 580.1,334.4 574.1,334.1 568.3,333.8 563.3,333.6 559.3,333.3 556.3,333.1 554.1,332.8 552.7,332.5 551.8,332.3 551.0,332.0 550.3,331.8 549.5,331.5 548.6,331.2 547.6,331.0 546.5,330.7 545.4,330.5 544.3,330.2 543.3,330.0 542.5,329.7 541.7,329.4 541.1,329.2 540.7,328.9 540.4,328.7 540.4,328.4 540.7,328.1 541.2,327.9 542.0,327.6 543.1,327.4 544.3,327.1 545.6,326.8 546.9,326.6 548.0,326.3 548.8,326.1 549.3,325.8 549.2,325.6 548.8,325.3 547.9,325.0 546.8,324.8 545.5,324.5 544.2,324.3 542.9,324.0 541.9,323.7 541.0,323.5 540.3,323.2 539.9,323.0 539.5,322.7 539.3,322.4 539.2,322.2 539.1,321.9 539.1,321.7 539.0,321.4 538.9,321.2 538.9,320.9 538.8,320.6 538.7,320.4 538.6,320.1 538.5,319.9 538.5,319.6 538.2,319.6 538.1,319.9 538.1,320.1 538.0,320.4 537.9,320.6 537.8,320.9 537.7,321.2 537.7,321.4 537.6,321.7 537.5,321.9 537.4,322.2 537.3,322.4 537.1,322.7 536.8,323.0 536.3,323.2 535.7,323.5 534.8,323.7 533.7,324.0 532.5,324.3 531.2,324.5 529.9,324.8 528.8,325.0 527.9,325.3 527.4,325.6 527.4,325.8 527.8,326.1 528.6,326.3 529.8,326.6 531.0,326.8 532.4,327.1 533.6,327.4 534.6,327.6 535.4,327.9 536.0,328.1 536.2,328.4 536.2,328.7 536.0,328.9 535.6,329.2 535.0,329.4 534.2,329.7 533.3,330.0 532.3,330.2 531.2,330.5 530.1,330.7 529.0,331.0 528.0,331.2 527.1,331.5 526.3,331.8 525.6,332.0 524.9,332.3 523.9,332.5 522.5,332.8 520.4,333.1 517.4,333.3 513.4,333.6 508.4,333.8 502.6,334.1 496.5,334.4 490.7,334.6 485.7,334.9 482.3,335.1 480.9,335.4 481.8,335.6 485.0,335.9 490.0,336.2 496.4,336.4 503.5,336.7 510.7,336.9 517.3,337.2 523.0,337.5 527.7,337.7 531.3,338.0" fill="#2a8" opacity="0.5" stroke="#2a8" stroke-width="1"/>
<line x1="481.2" y1="335.2937819433579" x2="595.5" y2="335.2937819433579" stroke="#114" stroke-width="2"/>
<circle cx="538.3333333333333" cy="335.78541615798036" r="2.4" fill="#114"/>
<text x="538.3333333333333" y="315.41522666272283" text-anchor="middle" font-size="11">1.01</text>
<text x="538.3333333333333" y="376" text-anchor="middle" font-size="12">asum</text>
<polygon points="675.0,342.0 675.0,341.8 675.0,341.6 675.1,341.4 675.1,341.2 675.2,341.0 675.3,340.8 675.3,340.6 675.3,340.4 675.2,340.2 675.2,340.0 675.1,339.8 675.1,339.6 675.2,339.4 675.3,339.2 675.4,339.0 675.4,338.8 675.5,338.6 675.6,338.4 675.7,338.2 676.0,338.0 676.6,337.8 677.8,337.6 679.5,337.4 681.6,337.2 683.6,337.0 685.0,336.8 685.8,336.6 686.6,336.4 688.5,336.2 692.4,336.0 698.8,335.8 707.5,335.6 717.0,335.4 725.5,335.2 731.0,335.0 732.4,334.8 729.6,334.5 723.3,334.3 714.6,334.1 704.9,333.9 695.8,333.7 688.5,333.5 683.5,333.3 680.6,333.1 679.4,332.9 679.5,332.7 680.5,332.5 682.5,332.3 685.0,332.1 687.2,331.9 688.1,331.7 687.4,331.5 685.2,331.3 682.4,331.1 679.7,330.9 677.7,330.7 676.4,330.5 675.6,330.3 675.3,330.1 675.2,329.9 675.2,329.7 675.3,329.5 675.3,329.3 675.3,329.1 675.3,328.9 675.2,328.7 675.1,328.5 675.1,328.3 675.0,328.1 675.0,327.9 675.0,327.7 675.0,327.7 675.0,327.9 675.0,328.1 674.9,328.3 674.9,328.5 674.8,328.7 674.7,328.9 674.7,329.1 674.7,329.3 674.7,329.5 674.8,329.7 674.8,329.9 674.7,330.1 674.4,330.3 673.6,330.5 672.3,330.7 670.3,330.9 667.6,331.1 664.8,331.3 662.6,331.5 661.9,331.7 662.8,331.9 665.0,332.1 667.5,332.3 669.5,332.5 670.5,332.7 670.6,332.9 669.4,333.1 666.5,333.3 661.5,333.5 654.2,333.7 645.1,333.9 635.4,334.1 626.7,334.3 620.4,334.5 617.6,334.8 619.0,335.0 624.5,335.2 633.0,335.4 642.5,335.6 651.2,335.8 657.6,336.0 661.5,336.2 663.4,336.4 664.2,336.6 665.0,336.8 666.4,337.0 668.4,337.2 670.5,337.4 672.2,337.6 673.4,337.8 674.0,338.0 674.3,338.2 674.4,338.4 674.5,338.6 674.6,338.8 674.6,339.0 674.7,339.2 674.8,339.4 674.9,339.6 674.9,339.8 674.8,340.0 674.8,340.2 674.7,340.4 674.7,340.6 674.7,340.8 674.8,341.0 674.9,341.2 674.9,341.4 675.0,341.6 675.0,341.8 675.0,342.0" fill="#2a8" opacity="0.5" stroke="#2a8" stroke-width="1"/>
<line x1="617.5" y1="334.77156615158" x2="732.5" y2="334.77156615158" stroke="#114" stroke-width="2"/>
<circle cx="675.0" cy="335.8256430076716" r="2.4" fill="#114"/>
<text x="675.0" y="323.1107979288769" text-anchor="middle" font-size="11">1.03</text>
<text x="675.0" y="376" text-anchor="middle" font-size="12">scal</text>
<polygon points="812.6,343.0 813.1,342.6 813.7,342.2 814.6,341.8 815.7,341.4 816.9,341.0 818.3,340.7 819.8,340.3 821.4,339.9 823.0,339.5 824.7,339.1 826.4,338.7 828.2,338.3 830.1,337.9 832.2,337.5 834.5,337.1 836.9,336.7 839.3,336.3 841.8,335.9 844.2,335.5 846.4,335.2 848.4,334.8 850.1,334.4 851.4,334.0 852.5,333.6 853.1,333.2 853.5,332.8 853.6,332.4 853.4,332.0 853.1,331.6 852.8,331.2 852.5,330.8 852.4,330.4 852.5,330.0 852.9,329.6 853.7,329.3 854.9,328.9 856.5,328.5 858.4,328.1 860.5,327.7 862.7,327.3 864.9,326.9 866.7,326.5 868.1,326.1 868.9,325.7 869.1,325.3 868.5,324.9 867.4,324.5 865.6,324.1 863.4,323.8 860.8,323.4 857.8,323.0 854.5,322.6 851.0,322.2 847.2,321.8 843.2,321.4 839.1,321.0 835.1,320.6 831.2,320.2 827.5,319.8 824.3,319.4 821.5,319.0 819.1,318.6 817.2,318.2 815.8,317.9 814.6,317.5 813.8,317.1 813.1,316.7 812.7,316.3 812.3,315.9 812.1,315.5 811.9,315.1 811.4,315.1 811.2,315.5 811.0,315.9 810.7,316.3 810.2,316.7 809.6,317.1 808.7,317.5 807.6,317.9 806.1,318.2 804.2,318.6 801.8,319.0 799.0,319.4 795.8,319.8 792.2,320.2 788.3,320.6 784.2,321.0 780.2,321.4 776.2,321.8 772.4,322.2 768.8,322.6 765.5,323.0 762.5,323.4 759.9,323.8 757.7,324.1 756.0,324.5 754.8,324.9 754.3,325.3 754.4,325.7 755.2,326.1 756.6,326.5 758.4,326.9 760.6,327.3 762.8,327.7 765.0,328.1 766.9,328.5 768.4,328.9 769.6,329.3 770.4,329.6 770.8,330.0 770.9,330.4 770.8,330.8 770.5,331.2 770.2,331.6 769.9,332.0 769.8,332.4 769.8,332.8 770.2,333.2 770.9,333.6 771.9,334.0 773.2,334.4 774.9,334.8 776.9,335.2 779.1,335.5 781.5,335.9 784.0,336.3 786.5,336.7 788.8,337.1 791.1,337.5 793.2,337.9 795.1,338.3 797.0,338.7 798.7,339.1 800.3,339.5 802.0,339.9 803.5,340.3 805.0,340.7 806.4,341.0 807.7,341.4 808.7,341.8 809.6,342.2 810.3,342.6 810.8,343.0" fill="#2a8" opacity="0.5" stroke="#2a8" stroke-width="1"/>
<line x1="764.1" y1="327.92074916859104" x2="859.2" y2="327.92074916859104" stroke="#114" stroke-width="2"/>
<circle cx="811.6666666666666" cy="331.07098051224835" r="2.4" fill="#114"/>
<text x="811.6666666666666" y="311.8399847407761" text-anchor="middle" font-size="11">1.34</text>
<text x="811.6666666666666" y="376" text-anchor="middle" font-size="12">iamax</text>
<text x="450.0" y="428" text-anchor="middle" font-size="11" fill="#666">violin = ratio distribution over sizes · line = median · dark dot = worst size · green = every size ≥ gate</text>
</svg>
