<svg xmlns="http://www.w3.org/2000/svg" width="900" height="460" font-family="sans-serif">
<rect width="900" height="460" fill="white"/>
<text x="450.0" y="28" text-anchor="middle" font-size="18" font-weight="bold">BLAS-3: PureBLAS / OpenBLAS (AVX2, 1 thread, Float64)</text>
<line x1="62" y1="400.0" x2="768" y2="400.0" stroke="#eee"/>
<text x="54" y="404.0" text-anchor="end" font-size="11" fill="#666">0.5×</text>
<line x1="62" y1="323.3500099390984" x2="768" y2="323.3500099390984" stroke="#eee"/>
<text x="54" y="327.3500099390984" text-anchor="end" font-size="11" fill="#666">0.7×</text>
<line x1="62" y1="242.09774620878133" x2="768" y2="242.09774620878133" stroke="#eee"/>
<text x="54" y="246.09774620878133" text-anchor="end" font-size="11" fill="#666">1.0×</text>
<line x1="62" y1="149.7308489615634" x2="768" y2="149.7308489615634" stroke="#eee"/>
<text x="54" y="153.7308489615634" text-anchor="end" font-size="11" fill="#666">1.5×</text>
<line x1="62" y1="84.19549241756266" x2="768" y2="84.19549241756266" stroke="#eee"/>
<text x="54" y="88.19549241756266" text-anchor="end" font-size="11" fill="#666">2.0×</text>
<line x1="62.0" y1="50" x2="62.0" y2="400" stroke="#f4f4f4"/>
<text x="62.0" y="418" text-anchor="middle" font-size="11" fill="#444">8</text>
<line x1="238.5" y1="50" x2="238.5" y2="400" stroke="#f4f4f4"/>
<text x="238.5" y="418" text-anchor="middle" font-size="11" fill="#444">32</text>
<line x1="415.0" y1="50" x2="415.0" y2="400" stroke="#f4f4f4"/>
<text x="415.0" y="418" text-anchor="middle" font-size="11" fill="#444">128</text>
<line x1="503.25" y1="50" x2="503.25" y2="400" stroke="#f4f4f4"/>
<text x="503.25" y="418" text-anchor="middle" font-size="11" fill="#444">256</text>
<line x1="591.5" y1="50" x2="591.5" y2="400" stroke="#f4f4f4"/>
<text x="591.5" y="418" text-anchor="middle" font-size="11" fill="#444">512</text>
<line x1="679.75" y1="50" x2="679.75" y2="400" stroke="#f4f4f4"/>
<text x="679.75" y="418" text-anchor="middle" font-size="11" fill="#444">1024</text>
<line x1="768.0" y1="50" x2="768.0" y2="400" stroke="#f4f4f4"/>
<text x="768.0" y="418" text-anchor="middle" font-size="11" fill="#444">2048</text>
<line x1="62" y1="242.09774620878133" x2="768" y2="242.09774620878133" stroke="#888"/>
<line x1="62" y1="251.39719244441906" x2="768" y2="251.39719244441906" stroke="#d33" stroke-width="1.5" stroke-dasharray="6 4"/>
<text x="66" y="246.39719244441906" font-size="11" fill="#d33">0.96× gate</text>
<polygon points="62.0,80.3 238.5,198.7 415.0,219.3 503.2,239.6 591.5,229.8 679.8,231.1 768.0,232.7 768.0,234.0 679.8,235.8 591.5,233.8 503.2,240.9 415.0,224.8 238.5,223.8 62.0,82.9" fill="#1f77b4" opacity="0.14" stroke="none"/>
<polyline points="62.0,81.8 238.5,214.2 415.0,223.4 503.2,240.6 591.5,230.8 679.8,234.0 768.0,233.7" fill="none" stroke="#1f77b4" stroke-width="2"/>
<circle cx="62.0" cy="81.8" r="3" fill="#1f77b4"/>
<circle cx="238.5" cy="214.2" r="3" fill="#1f77b4"/>
<circle cx="415.0" cy="223.4" r="3" fill="#1f77b4"/>
<circle cx="503.2" cy="240.6" r="3" fill="#1f77b4"/>
<circle cx="591.5" cy="230.8" r="3" fill="#1f77b4"/>
<circle cx="679.8" cy="234.0" r="3" fill="#1f77b4"/>
<circle cx="768.0" cy="233.7" r="3" fill="#1f77b4"/>
<line x1="782" y1="56" x2="802" y2="56" stroke="#1f77b4" stroke-width="3"/>
<text x="806" y="60" font-size="12">gemm</text>
<polygon points="62.0,203.8 238.5,249.1 415.0,243.0 503.2,248.1 591.5,249.2 679.8,247.1 768.0,247.7 768.0,249.6 679.8,252.2 591.5,250.7 503.2,248.4 415.0,247.4 238.5,256.5 62.0,205.9" fill="#d62728" opacity="0.14" stroke="none"/>
<polyline points="62.0,204.5 238.5,253.8 415.0,244.6 503.2,248.4 591.5,249.9 679.8,248.8 768.0,248.3" fill="none" stroke="#d62728" stroke-width="2"/>
<circle cx="62.0" cy="204.5" r="3" fill="#d62728"/>
<circle cx="238.5" cy="253.8" r="3" fill="#d62728"/>
<circle cx="415.0" cy="244.6" r="3" fill="#d62728"/>
<circle cx="503.2" cy="248.4" r="3" fill="#d62728"/>
<circle cx="591.5" cy="249.9" r="3" fill="#d62728"/>
<circle cx="679.8" cy="248.8" r="3" fill="#d62728"/>
<circle cx="768.0" cy="248.3" r="3" fill="#d62728"/>
<line x1="782" y1="74" x2="802" y2="74" stroke="#d62728" stroke-width="3"/>
<text x="806" y="78" font-size="12">zgemm</text>
<polygon points="62.0,208.7 238.5,223.3 415.0,237.3 503.2,246.8 591.5,235.0 679.8,233.1 768.0,228.6 768.0,232.9 679.8,236.2 591.5,236.7 503.2,249.0 415.0,241.4 238.5,231.1 62.0,210.1" fill="#2ca02c" opacity="0.14" stroke="none"/>
<polyline points="62.0,209.7 238.5,225.8 415.0,239.6 503.2,247.5 591.5,235.6 679.8,233.7 768.0,231.2" fill="none" stroke="#2ca02c" stroke-width="2"/>
<circle cx="62.0" cy="209.7" r="3" fill="#2ca02c"/>
<circle cx="238.5" cy="225.8" r="3" fill="#2ca02c"/>
<circle cx="415.0" cy="239.6" r="3" fill="#2ca02c"/>
<circle cx="503.2" cy="247.5" r="3" fill="#2ca02c"/>
<circle cx="591.5" cy="235.6" r="3" fill="#2ca02c"/>
<circle cx="679.8" cy="233.7" r="3" fill="#2ca02c"/>
<circle cx="768.0" cy="231.2" r="3" fill="#2ca02c"/>
<line x1="782" y1="92" x2="802" y2="92" stroke="#2ca02c" stroke-width="3"/>
<text x="806" y="96" font-size="12">symm</text>
<polygon points="62.0,151.0 238.5,182.5 415.0,225.0 503.2,233.1 591.5,231.0 679.8,233.2 768.0,235.9 768.0,236.3 679.8,234.5 591.5,233.1 503.2,234.0 415.0,229.2 238.5,186.6 62.0,156.0" fill="#9467bd" opacity="0.14" stroke="none"/>
<polyline points="62.0,154.6 238.5,185.4 415.0,228.1 503.2,233.7 591.5,231.7 679.8,233.8 768.0,236.0" fill="none" stroke="#9467bd" stroke-width="2"/>
<circle cx="62.0" cy="154.6" r="3" fill="#9467bd"/>
<circle cx="238.5" cy="185.4" r="3" fill="#9467bd"/>
<circle cx="415.0" cy="228.1" r="3" fill="#9467bd"/>
<circle cx="503.2" cy="233.7" r="3" fill="#9467bd"/>
<circle cx="591.5" cy="231.7" r="3" fill="#9467bd"/>
<circle cx="679.8" cy="233.8" r="3" fill="#9467bd"/>
<circle cx="768.0" cy="236.0" r="3" fill="#9467bd"/>
<line x1="782" y1="110" x2="802" y2="110" stroke="#9467bd" stroke-width="3"/>
<text x="806" y="114" font-size="12">syrk</text>
<polygon points="62.0,124.5 238.5,223.4 415.0,235.2 503.2,242.7 591.5,238.8 679.8,235.7 768.0,238.1 768.0,239.5 679.8,238.1 591.5,240.1 503.2,244.0 415.0,240.0 238.5,231.2 62.0,128.9" fill="#ff7f0e" opacity="0.14" stroke="none"/>
<polyline points="62.0,128.1 238.5,226.1 415.0,237.7 503.2,243.7 591.5,239.3 679.8,236.6 768.0,238.4" fill="none" stroke="#ff7f0e" stroke-width="2"/>
<circle cx="62.0" cy="128.1" r="3" fill="#ff7f0e"/>
<circle cx="238.5" cy="226.1" r="3" fill="#ff7f0e"/>
<circle cx="415.0" cy="237.7" r="3" fill="#ff7f0e"/>
<circle cx="503.2" cy="243.7" r="3" fill="#ff7f0e"/>
<circle cx="591.5" cy="239.3" r="3" fill="#ff7f0e"/>
<circle cx="679.8" cy="236.6" r="3" fill="#ff7f0e"/>
<circle cx="768.0" cy="238.4" r="3" fill="#ff7f0e"/>
<line x1="782" y1="128" x2="802" y2="128" stroke="#ff7f0e" stroke-width="3"/>
<text x="806" y="132" font-size="12">syr2k</text>
<polygon points="62.0,287.5 238.5,184.4 415.0,199.5 503.2,202.0 591.5,215.3 679.8,227.2 768.0,228.6 768.0,232.0 679.8,227.6 591.5,217.0 503.2,203.7 415.0,204.2 238.5,194.7 62.0,288.5" fill="#17becf" opacity="0.14" stroke="none"/>
<polyline points="62.0,288.3 238.5,189.1 415.0,202.0 503.2,202.9 591.5,215.4 679.8,227.5 768.0,231.4" fill="none" stroke="#17becf" stroke-width="2"/>
<circle cx="62.0" cy="288.3" r="3" fill="#17becf"/>
<circle cx="238.5" cy="189.1" r="3" fill="#17becf"/>
<circle cx="415.0" cy="202.0" r="3" fill="#17becf"/>
<circle cx="503.2" cy="202.9" r="3" fill="#17becf"/>
<circle cx="591.5" cy="215.4" r="3" fill="#17becf"/>
<circle cx="679.8" cy="227.5" r="3" fill="#17becf"/>
<circle cx="768.0" cy="231.4" r="3" fill="#17becf"/>
<line x1="782" y1="146" x2="802" y2="146" stroke="#17becf" stroke-width="3"/>
<text x="806" y="150" font-size="12">trmm</text>
<polygon points="62.0,219.9 238.5,238.5 415.0,248.1 503.2,244.4 591.5,229.8 679.8,234.3 768.0,232.6 768.0,233.9 679.8,234.9 591.5,232.1 503.2,247.2 415.0,251.8 238.5,246.1 62.0,222.6" fill="#8c564b" opacity="0.14" stroke="none"/>
<polyline points="62.0,221.9 238.5,244.1 415.0,250.4 503.2,245.5 591.5,230.5 679.8,234.6 768.0,233.3" fill="none" stroke="#8c564b" stroke-width="2"/>
<circle cx="62.0" cy="221.9" r="3" fill="#8c564b"/>
<circle cx="238.5" cy="244.1" r="3" fill="#8c564b"/>
<circle cx="415.0" cy="250.4" r="3" fill="#8c564b"/>
<circle cx="503.2" cy="245.5" r="3" fill="#8c564b"/>
<circle cx="591.5" cy="230.5" r="3" fill="#8c564b"/>
<circle cx="679.8" cy="234.6" r="3" fill="#8c564b"/>
<circle cx="768.0" cy="233.3" r="3" fill="#8c564b"/>
<line x1="782" y1="164" x2="802" y2="164" stroke="#8c564b" stroke-width="3"/>
<text x="806" y="168" font-size="12">trsm</text>
<text x="415.0" y="450" text-anchor="middle" font-size="11" fill="#666">matrix size n (log) · y = median ratio (log) · dashed = the 0.96× gate</text>
</svg>
