<svg xmlns="http://www.w3.org/2000/svg" width="962" height="248" font-family="sans-serif">
<rect width="962" height="248" fill="white"/>
<text x="481.0" y="26" text-anchor="middle" font-size="17" font-weight="bold">Complex LAPACK — PureBLAS / AOCL (PB/AOCL ratio)</text>
<line x1="46" y1="42" x2="68" y2="42" stroke="#d62728" stroke-width="3"/>
<text x="73" y="46" font-size="12">Zen3 · AVX2</text>
<line x1="176" y1="42" x2="198" y2="42" stroke="#2ca02c" stroke-width="3"/>
<text x="203" y="46" font-size="12">Zen5 · AVX-512</text>
<line x1="327" y1="42" x2="349" y2="42" stroke="#1f77b4" stroke-width="3"/>
<text x="354" y="46" font-size="12">Zen4 · AVX-512</text>
<rect x="46" y="60" width="210" height="138" fill="none" stroke="#e2e2e2"/>
<line x1="46" y1="181.85529659786158" x2="256" y2="181.85529659786158" stroke="#d33" stroke-dasharray="4 3"/>
<text x="42" y="201.0" text-anchor="end" font-size="9" fill="#999">0.5×</text>
<text x="42" y="184.85529659786158" text-anchor="end" font-size="9" fill="#999">1.0×</text>
<text x="42" y="63.000471712216665" text-anchor="end" font-size="9" fill="#999">187.1×</text>
<polygon points="46.0,63.2 98.5,122.8 151.0,165.4 177.2,173.4 203.5,176.0 229.8,176.2 256.0,177.3 256.0,177.4 229.8,176.7 203.5,176.0 177.2,173.7 151.0,165.5 98.5,122.9 46.0,64.4" fill="#d62728" opacity="0.11"/>
<polyline points="46.0,64.1 98.5,122.8 151.0,165.5 177.2,173.6 203.5,176.0 229.8,176.7 256.0,177.3" fill="none" stroke="#d62728" stroke-width="1.6"/>
<circle cx="46.0" cy="64.1" r="2" fill="#d62728"/>
<circle cx="98.5" cy="122.8" r="2" fill="#d62728"/>
<circle cx="151.0" cy="165.5" r="2" fill="#d62728"/>
<circle cx="177.2" cy="173.6" r="2" fill="#d62728"/>
<circle cx="203.5" cy="176.0" r="2" fill="#d62728"/>
<circle cx="229.8" cy="176.7" r="2" fill="#d62728"/>
<circle cx="256.0" cy="177.3" r="2" fill="#d62728"/>
<polygon points="46.0,62.8 98.5,123.8 151.0,166.4 177.2,175.1 203.5,179.0 229.8,180.9 256.0,181.8 256.0,181.9 229.8,181.0 203.5,179.1 177.2,175.4 151.0,166.8 98.5,125.4 46.0,65.7" fill="#2ca02c" opacity="0.11"/>
<polyline points="46.0,63.2 98.5,124.9 151.0,166.5 177.2,175.3 203.5,179.1 229.8,180.9 256.0,181.9" fill="none" stroke="#2ca02c" stroke-width="1.6"/>
<circle cx="46.0" cy="63.2" r="2" fill="#2ca02c"/>
<circle cx="98.5" cy="124.9" r="2" fill="#2ca02c"/>
<circle cx="151.0" cy="166.5" r="2" fill="#2ca02c"/>
<circle cx="177.2" cy="175.3" r="2" fill="#2ca02c"/>
<circle cx="203.5" cy="179.1" r="2" fill="#2ca02c"/>
<circle cx="229.8" cy="180.9" r="2" fill="#2ca02c"/>
<circle cx="256.0" cy="181.9" r="2" fill="#2ca02c"/>
<polygon points="46.0,61.8 98.5,125.7 151.0,167.1 177.2,172.2 203.5,175.8 229.8,180.4 256.0,181.9 256.0,182.0 229.8,180.5 203.5,175.9 177.2,172.4 151.0,167.5 98.5,126.1 46.0,65.3" fill="#1f77b4" opacity="0.11"/>
<polyline points="46.0,65.2 98.5,125.8 151.0,167.4 177.2,172.3 203.5,175.9 229.8,180.5 256.0,182.0" fill="none" stroke="#1f77b4" stroke-width="1.6"/>
<circle cx="46.0" cy="65.2" r="2" fill="#1f77b4"/>
<circle cx="98.5" cy="125.8" r="2" fill="#1f77b4"/>
<circle cx="151.0" cy="167.4" r="2" fill="#1f77b4"/>
<circle cx="177.2" cy="172.3" r="2" fill="#1f77b4"/>
<circle cx="203.5" cy="175.9" r="2" fill="#1f77b4"/>
<circle cx="229.8" cy="180.5" r="2" fill="#1f77b4"/>
<circle cx="256.0" cy="182.0" r="2" fill="#1f77b4"/>
<text x="151.0" y="55" text-anchor="middle" font-size="12" font-weight="bold">zpotrf</text>
<line x1="46.0" y1="60" x2="46.0" y2="198" stroke="#f4f4f4"/>
<text x="46.0" y="209" text-anchor="middle" font-size="8" fill="#999">8</text>
<line x1="98.5" y1="60" x2="98.5" y2="198" stroke="#f4f4f4"/>
<text x="98.5" y="209" text-anchor="middle" font-size="8" fill="#999">32</text>
<line x1="151.0" y1="60" x2="151.0" y2="198" stroke="#f4f4f4"/>
<text x="151.0" y="209" text-anchor="middle" font-size="8" fill="#999">128</text>
<line x1="177.2" y1="60" x2="177.2" y2="198" stroke="#f4f4f4"/>
<text x="177.2" y="209" text-anchor="middle" font-size="8" fill="#999">256</text>
<line x1="203.5" y1="60" x2="203.5" y2="198" stroke="#f4f4f4"/>
<text x="203.5" y="209" text-anchor="middle" font-size="8" fill="#999">512</text>
<line x1="229.8" y1="60" x2="229.8" y2="198" stroke="#f4f4f4"/>
<text x="229.8" y="209" text-anchor="middle" font-size="8" fill="#999">1k</text>
<line x1="256.0" y1="60" x2="256.0" y2="198" stroke="#f4f4f4"/>
<text x="256.0" y="209" text-anchor="middle" font-size="8" fill="#999">2k</text>
<rect x="276" y="60" width="210" height="138" fill="none" stroke="#e2e2e2"/>
<line x1="276" y1="135.29787323135633" x2="486" y2="135.29787323135633" stroke="#d33" stroke-dasharray="4 3"/>
<text x="272" y="201.0" text-anchor="end" font-size="9" fill="#999">0.5×</text>
<text x="272" y="138.29787323135633" text-anchor="end" font-size="9" fill="#999">1.0×</text>
<polygon points="276.0,67.0 328.5,91.8 381.0,101.8 407.2,108.7 433.5,98.7 459.8,106.9 486.0,108.3 486.0,108.6 459.8,108.1 433.5,99.6 407.2,110.1 381.0,102.5 328.5,93.1 276.0,69.8" fill="#d62728" opacity="0.11"/>
<polyline points="276.0,68.6 328.5,92.8 381.0,102.3 407.2,109.6 433.5,99.2 459.8,107.3 486.0,108.4" fill="none" stroke="#d62728" stroke-width="1.6"/>
<circle cx="276.0" cy="68.6" r="2" fill="#d62728"/>
<circle cx="328.5" cy="92.8" r="2" fill="#d62728"/>
<circle cx="381.0" cy="102.3" r="2" fill="#d62728"/>
<circle cx="407.2" cy="109.6" r="2" fill="#d62728"/>
<circle cx="433.5" cy="99.2" r="2" fill="#d62728"/>
<circle cx="459.8" cy="107.3" r="2" fill="#d62728"/>
<circle cx="486.0" cy="108.4" r="2" fill="#d62728"/>
<polygon points="276.0,89.1 328.5,123.5 381.0,125.5 407.2,113.8 433.5,124.5 459.8,140.2 486.0,135.7 486.0,135.9 459.8,140.5 433.5,124.9 407.2,115.0 381.0,126.9 328.5,130.3 276.0,93.5" fill="#2ca02c" opacity="0.11"/>
<polyline points="276.0,92.1 328.5,128.7 381.0,126.3 407.2,114.7 433.5,124.7 459.8,140.4 486.0,135.7" fill="none" stroke="#2ca02c" stroke-width="1.6"/>
<circle cx="276.0" cy="92.1" r="2" fill="#2ca02c"/>
<circle cx="328.5" cy="128.7" r="2" fill="#2ca02c"/>
<circle cx="381.0" cy="126.3" r="2" fill="#2ca02c"/>
<circle cx="407.2" cy="114.7" r="2" fill="#2ca02c"/>
<circle cx="433.5" cy="124.7" r="2" fill="#2ca02c"/>
<circle cx="459.8" cy="140.4" r="2" fill="#2ca02c"/>
<circle cx="486.0" cy="135.7" r="2" fill="#2ca02c"/>
<polygon points="276.0,86.1 328.5,127.4 381.0,120.6 407.2,94.9 433.5,110.3 459.8,132.4 486.0,125.0 486.0,129.2 459.8,133.0 433.5,111.5 407.2,95.8 381.0,121.4 328.5,129.9 276.0,93.2" fill="#1f77b4" opacity="0.11"/>
<polyline points="276.0,92.2 328.5,129.1 381.0,121.0 407.2,95.4 433.5,110.6 459.8,132.7 486.0,125.1" fill="none" stroke="#1f77b4" stroke-width="1.6"/>
<circle cx="276.0" cy="92.2" r="2" fill="#1f77b4"/>
<circle cx="328.5" cy="129.1" r="2" fill="#1f77b4"/>
<circle cx="381.0" cy="121.0" r="2" fill="#1f77b4"/>
<circle cx="407.2" cy="95.4" r="2" fill="#1f77b4"/>
<circle cx="433.5" cy="110.6" r="2" fill="#1f77b4"/>
<circle cx="459.8" cy="132.7" r="2" fill="#1f77b4"/>
<circle cx="486.0" cy="125.1" r="2" fill="#1f77b4"/>
<text x="381.0" y="55" text-anchor="middle" font-size="12" font-weight="bold">zgeqrf</text>
<line x1="276.0" y1="60" x2="276.0" y2="198" stroke="#f4f4f4"/>
<text x="276.0" y="209" text-anchor="middle" font-size="8" fill="#999">8</text>
<line x1="328.5" y1="60" x2="328.5" y2="198" stroke="#f4f4f4"/>
<text x="328.5" y="209" text-anchor="middle" font-size="8" fill="#999">32</text>
<line x1="381.0" y1="60" x2="381.0" y2="198" stroke="#f4f4f4"/>
<text x="381.0" y="209" text-anchor="middle" font-size="8" fill="#999">128</text>
<line x1="407.2" y1="60" x2="407.2" y2="198" stroke="#f4f4f4"/>
<text x="407.2" y="209" text-anchor="middle" font-size="8" fill="#999">256</text>
<line x1="433.5" y1="60" x2="433.5" y2="198" stroke="#f4f4f4"/>
<text x="433.5" y="209" text-anchor="middle" font-size="8" fill="#999">512</text>
<line x1="459.8" y1="60" x2="459.8" y2="198" stroke="#f4f4f4"/>
<text x="459.8" y="209" text-anchor="middle" font-size="8" fill="#999">1k</text>
<line x1="486.0" y1="60" x2="486.0" y2="198" stroke="#f4f4f4"/>
<text x="486.0" y="209" text-anchor="middle" font-size="8" fill="#999">2k</text>
<rect x="506" y="60" width="210" height="138" fill="none" stroke="#e2e2e2"/>
<line x1="506" y1="125.54087047846731" x2="716" y2="125.54087047846731" stroke="#d33" stroke-dasharray="4 3"/>
<text x="502" y="201.0" text-anchor="end" font-size="9" fill="#999">0.5×</text>
<text x="502" y="128.5408704784673" text-anchor="end" font-size="9" fill="#999">1.0×</text>
<text x="502" y="63.107503501454985" text-anchor="end" font-size="9" fill="#999">1.87×</text>
<polygon points="506.0,102.0 558.5,112.9 611.0,87.0 637.2,77.0 663.5,87.5 689.8,98.5 716.0,102.2 716.0,104.4 689.8,101.3 663.5,92.9 637.2,80.2 611.0,96.8 558.5,114.0 506.0,103.1" fill="#d62728" opacity="0.11"/>
<polyline points="506.0,102.6 558.5,113.2 611.0,94.9 637.2,78.4 663.5,90.4 689.8,99.3 716.0,103.3" fill="none" stroke="#d62728" stroke-width="1.6"/>
<circle cx="506.0" cy="102.6" r="2" fill="#d62728"/>
<circle cx="558.5" cy="113.2" r="2" fill="#d62728"/>
<circle cx="611.0" cy="94.9" r="2" fill="#d62728"/>
<circle cx="637.2" cy="78.4" r="2" fill="#d62728"/>
<circle cx="663.5" cy="90.4" r="2" fill="#d62728"/>
<circle cx="689.8" cy="99.3" r="2" fill="#d62728"/>
<circle cx="716.0" cy="103.3" r="2" fill="#d62728"/>
<polygon points="506.0,101.0 558.5,126.5 611.0,107.8 637.2,71.6 663.5,94.4 689.8,110.7 716.0,117.4 716.0,117.6 689.8,112.2 663.5,94.9 637.2,72.4 611.0,108.5 558.5,129.9 506.0,102.9" fill="#2ca02c" opacity="0.11"/>
<polyline points="506.0,102.1 558.5,127.6 611.0,108.2 637.2,72.0 663.5,94.6 689.8,111.8 716.0,117.4" fill="none" stroke="#2ca02c" stroke-width="1.6"/>
<circle cx="506.0" cy="102.1" r="2" fill="#2ca02c"/>
<circle cx="558.5" cy="127.6" r="2" fill="#2ca02c"/>
<circle cx="611.0" cy="108.2" r="2" fill="#2ca02c"/>
<circle cx="637.2" cy="72.0" r="2" fill="#2ca02c"/>
<circle cx="663.5" cy="94.6" r="2" fill="#2ca02c"/>
<circle cx="689.8" cy="111.8" r="2" fill="#2ca02c"/>
<circle cx="716.0" cy="117.4" r="2" fill="#2ca02c"/>
<polygon points="506.0,105.1 558.5,128.0 611.0,95.9 637.2,68.0 663.5,75.9 689.8,95.6 716.0,104.0 716.0,115.4 689.8,96.1 663.5,77.3 637.2,71.3 611.0,103.7 558.5,129.7 506.0,109.0" fill="#1f77b4" opacity="0.11"/>
<polyline points="506.0,106.3 558.5,128.8 611.0,101.5 637.2,69.6 663.5,76.6 689.8,95.8 716.0,109.6" fill="none" stroke="#1f77b4" stroke-width="1.6"/>
<circle cx="506.0" cy="106.3" r="2" fill="#1f77b4"/>
<circle cx="558.5" cy="128.8" r="2" fill="#1f77b4"/>
<circle cx="611.0" cy="101.5" r="2" fill="#1f77b4"/>
<circle cx="637.2" cy="69.6" r="2" fill="#1f77b4"/>
<circle cx="663.5" cy="76.6" r="2" fill="#1f77b4"/>
<circle cx="689.8" cy="95.8" r="2" fill="#1f77b4"/>
<circle cx="716.0" cy="109.6" r="2" fill="#1f77b4"/>
<text x="611.0" y="55" text-anchor="middle" font-size="12" font-weight="bold">zgetrf</text>
<line x1="506.0" y1="60" x2="506.0" y2="198" stroke="#f4f4f4"/>
<text x="506.0" y="209" text-anchor="middle" font-size="8" fill="#999">8</text>
<line x1="558.5" y1="60" x2="558.5" y2="198" stroke="#f4f4f4"/>
<text x="558.5" y="209" text-anchor="middle" font-size="8" fill="#999">32</text>
<line x1="611.0" y1="60" x2="611.0" y2="198" stroke="#f4f4f4"/>
<text x="611.0" y="209" text-anchor="middle" font-size="8" fill="#999">128</text>
<line x1="637.2" y1="60" x2="637.2" y2="198" stroke="#f4f4f4"/>
<text x="637.2" y="209" text-anchor="middle" font-size="8" fill="#999">256</text>
<line x1="663.5" y1="60" x2="663.5" y2="198" stroke="#f4f4f4"/>
<text x="663.5" y="209" text-anchor="middle" font-size="8" fill="#999">512</text>
<line x1="689.8" y1="60" x2="689.8" y2="198" stroke="#f4f4f4"/>
<text x="689.8" y="209" text-anchor="middle" font-size="8" fill="#999">1k</text>
<line x1="716.0" y1="60" x2="716.0" y2="198" stroke="#f4f4f4"/>
<text x="716.0" y="209" text-anchor="middle" font-size="8" fill="#999">2k</text>
<rect x="736" y="60" width="210" height="138" fill="none" stroke="#e2e2e2"/>
<line x1="736" y1="140.02739918342712" x2="946" y2="140.02739918342712" stroke="#d33" stroke-dasharray="4 3"/>
<text x="732" y="201.0" text-anchor="end" font-size="9" fill="#999">0.5×</text>
<text x="732" y="143.02739918342712" text-anchor="end" font-size="9" fill="#999">1.0×</text>
<text x="732" y="63.111495127532756" text-anchor="end" font-size="9" fill="#999">2.6×</text>
<polygon points="736.0,66.4 788.5,120.1 841.0,125.6 867.2,115.9 893.5,120.0 919.8,128.4 946.0,139.1 946.0,140.0 919.8,129.2 893.5,120.5 867.2,116.6 841.0,126.1 788.5,124.4 736.0,67.0" fill="#d62728" opacity="0.11"/>
<polyline points="736.0,66.9 788.5,124.3 841.0,125.9 867.2,116.2 893.5,120.3 919.8,128.9 946.0,139.5" fill="none" stroke="#d62728" stroke-width="1.6"/>
<circle cx="736.0" cy="66.9" r="2" fill="#d62728"/>
<circle cx="788.5" cy="124.3" r="2" fill="#d62728"/>
<circle cx="841.0" cy="125.9" r="2" fill="#d62728"/>
<circle cx="867.2" cy="116.2" r="2" fill="#d62728"/>
<circle cx="893.5" cy="120.3" r="2" fill="#d62728"/>
<circle cx="919.8" cy="128.9" r="2" fill="#d62728"/>
<circle cx="946.0" cy="139.5" r="2" fill="#d62728"/>
<polygon points="736.0,73.3 788.5,127.9 841.0,142.7 867.2,122.7 893.5,125.3 919.8,134.6 946.0,136.8 946.0,137.6 919.8,135.6 893.5,129.1 867.2,123.4 841.0,143.1 788.5,135.4 736.0,75.1" fill="#2ca02c" opacity="0.11"/>
<polyline points="736.0,74.1 788.5,135.0 841.0,142.9 867.2,123.1 893.5,127.7 919.8,135.4 946.0,137.3" fill="none" stroke="#2ca02c" stroke-width="1.6"/>
<circle cx="736.0" cy="74.1" r="2" fill="#2ca02c"/>
<circle cx="788.5" cy="135.0" r="2" fill="#2ca02c"/>
<circle cx="841.0" cy="142.9" r="2" fill="#2ca02c"/>
<circle cx="867.2" cy="123.1" r="2" fill="#2ca02c"/>
<circle cx="893.5" cy="127.7" r="2" fill="#2ca02c"/>
<circle cx="919.8" cy="135.4" r="2" fill="#2ca02c"/>
<circle cx="946.0" cy="137.3" r="2" fill="#2ca02c"/>
<polygon points="736.0,72.7 788.5,123.9 841.0,142.4 867.2,112.3 893.5,121.5 919.8,129.9 946.0,133.2 946.0,141.9 919.8,133.6 893.5,122.1 867.2,115.2 841.0,143.0 788.5,141.9 736.0,74.2" fill="#1f77b4" opacity="0.11"/>
<polyline points="736.0,73.9 788.5,141.5 841.0,142.7 867.2,113.7 893.5,121.8 919.8,131.8 946.0,137.4" fill="none" stroke="#1f77b4" stroke-width="1.6"/>
<circle cx="736.0" cy="73.9" r="2" fill="#1f77b4"/>
<circle cx="788.5" cy="141.5" r="2" fill="#1f77b4"/>
<circle cx="841.0" cy="142.7" r="2" fill="#1f77b4"/>
<circle cx="867.2" cy="113.7" r="2" fill="#1f77b4"/>
<circle cx="893.5" cy="121.8" r="2" fill="#1f77b4"/>
<circle cx="919.8" cy="131.8" r="2" fill="#1f77b4"/>
<circle cx="946.0" cy="137.4" r="2" fill="#1f77b4"/>
<text x="841.0" y="55" text-anchor="middle" font-size="12" font-weight="bold">zgesvd</text>
<line x1="736.0" y1="60" x2="736.0" y2="198" stroke="#f4f4f4"/>
<text x="736.0" y="209" text-anchor="middle" font-size="8" fill="#999">8</text>
<line x1="788.5" y1="60" x2="788.5" y2="198" stroke="#f4f4f4"/>
<text x="788.5" y="209" text-anchor="middle" font-size="8" fill="#999">32</text>
<line x1="841.0" y1="60" x2="841.0" y2="198" stroke="#f4f4f4"/>
<text x="841.0" y="209" text-anchor="middle" font-size="8" fill="#999">128</text>
<line x1="867.2" y1="60" x2="867.2" y2="198" stroke="#f4f4f4"/>
<text x="867.2" y="209" text-anchor="middle" font-size="8" fill="#999">256</text>
<line x1="893.5" y1="60" x2="893.5" y2="198" stroke="#f4f4f4"/>
<text x="893.5" y="209" text-anchor="middle" font-size="8" fill="#999">512</text>
<line x1="919.8" y1="60" x2="919.8" y2="198" stroke="#f4f4f4"/>
<text x="919.8" y="209" text-anchor="middle" font-size="8" fill="#999">1k</text>
<line x1="946.0" y1="60" x2="946.0" y2="198" stroke="#f4f4f4"/>
<text x="946.0" y="209" text-anchor="middle" font-size="8" fill="#999">2k</text>
</svg>
