<svg xmlns="http://www.w3.org/2000/svg" width="962" height="248" font-family="sans-serif">
<rect width="962" height="248" fill="white"/>
<text x="481.0" y="26" text-anchor="middle" font-size="17" font-weight="bold">LAPACK — PureBLAS / OpenBLAS (PB/OpenBLAS ratio)</text>
<line x1="46" y1="42" x2="68" y2="42" stroke="#d62728" stroke-width="3"/>
<text x="73" y="46" font-size="12">Zen3 · AVX2</text>
<line x1="176" y1="42" x2="198" y2="42" stroke="#2ca02c" stroke-width="3"/>
<text x="203" y="46" font-size="12">Zen5 · AVX-512</text>
<line x1="327" y1="42" x2="349" y2="42" stroke="#1f77b4" stroke-width="3"/>
<text x="354" y="46" font-size="12">Zen4 · AVX-512</text>
<rect x="46" y="60" width="210" height="138" fill="none" stroke="#e2e2e2"/>
<line x1="46" y1="132.92044404996722" x2="256" y2="132.92044404996722" stroke="#d33" stroke-dasharray="4 3"/>
<text x="42" y="201.0" text-anchor="end" font-size="9" fill="#999">0.5×</text>
<text x="42" y="135.92044404996722" text-anchor="end" font-size="9" fill="#999">1.0×</text>
<text x="42" y="63.181346985466654" text-anchor="end" font-size="9" fill="#999">2.17×</text>
<polygon points="46.0,99.3 92.7,78.1 139.3,91.9 162.7,111.0 186.0,118.0 209.3,125.6 232.7,126.9 256.0,129.0 256.0,129.6 232.7,127.9 209.3,126.1 186.0,119.1 162.7,112.1 139.3,93.9 92.7,87.3 46.0,99.7" fill="#d62728" opacity="0.11"/>
<polyline points="46.0,99.5 92.7,80.2 139.3,93.0 162.7,111.4 186.0,118.4 209.3,125.8 232.7,127.2 256.0,129.3" fill="none" stroke="#d62728" stroke-width="1.6"/>
<circle cx="46.0" cy="99.5" r="2" fill="#d62728"/>
<circle cx="92.7" cy="80.2" r="2" fill="#d62728"/>
<circle cx="139.3" cy="93.0" r="2" fill="#d62728"/>
<circle cx="162.7" cy="111.4" r="2" fill="#d62728"/>
<circle cx="186.0" cy="118.4" r="2" fill="#d62728"/>
<circle cx="209.3" cy="125.8" r="2" fill="#d62728"/>
<circle cx="232.7" cy="127.2" r="2" fill="#d62728"/>
<circle cx="256.0" cy="129.3" r="2" fill="#d62728"/>
<polygon points="46.0,96.9 92.7,78.2 139.3,73.3 162.7,82.0 186.0,88.8 209.3,96.8 232.7,109.8 256.0,116.2 256.0,116.4 232.7,111.0 209.3,97.7 186.0,89.6 162.7,83.2 139.3,74.9 92.7,82.0 46.0,98.3" fill="#2ca02c" opacity="0.11"/>
<polyline points="46.0,97.8 92.7,80.2 139.3,74.1 162.7,82.4 186.0,89.1 209.3,97.2 232.7,110.5 256.0,116.3" fill="none" stroke="#2ca02c" stroke-width="1.6"/>
<circle cx="46.0" cy="97.8" r="2" fill="#2ca02c"/>
<circle cx="92.7" cy="80.2" r="2" fill="#2ca02c"/>
<circle cx="139.3" cy="74.1" r="2" fill="#2ca02c"/>
<circle cx="162.7" cy="82.4" r="2" fill="#2ca02c"/>
<circle cx="186.0" cy="89.1" r="2" fill="#2ca02c"/>
<circle cx="209.3" cy="97.2" r="2" fill="#2ca02c"/>
<circle cx="232.7" cy="110.5" r="2" fill="#2ca02c"/>
<circle cx="256.0" cy="116.3" r="2" fill="#2ca02c"/>
<polygon points="46.0,93.6 92.7,67.2 139.3,72.0 162.7,83.1 186.0,92.1 209.3,107.7 232.7,118.3 256.0,125.0 256.0,125.8 232.7,119.2 209.3,109.8 186.0,92.8 162.7,85.4 139.3,73.9 92.7,73.6 46.0,94.2" fill="#1f77b4" opacity="0.11"/>
<polyline points="46.0,93.9 92.7,70.3 139.3,72.9 162.7,84.3 186.0,92.4 209.3,108.2 232.7,119.0 256.0,125.1" fill="none" stroke="#1f77b4" stroke-width="1.6"/>
<circle cx="46.0" cy="93.9" r="2" fill="#1f77b4"/>
<circle cx="92.7" cy="70.3" r="2" fill="#1f77b4"/>
<circle cx="139.3" cy="72.9" r="2" fill="#1f77b4"/>
<circle cx="162.7" cy="84.3" r="2" fill="#1f77b4"/>
<circle cx="186.0" cy="92.4" r="2" fill="#1f77b4"/>
<circle cx="209.3" cy="108.2" r="2" fill="#1f77b4"/>
<circle cx="232.7" cy="119.0" r="2" fill="#1f77b4"/>
<circle cx="256.0" cy="125.1" r="2" fill="#1f77b4"/>
<text x="151.0" y="55" text-anchor="middle" font-size="12" font-weight="bold">potrf</text>
<line x1="46.0" y1="60" x2="46.0" y2="198" stroke="#f4f4f4"/>
<text x="46.0" y="209" text-anchor="middle" font-size="8" fill="#999">8</text>
<line x1="92.7" y1="60" x2="92.7" y2="198" stroke="#f4f4f4"/>
<text x="92.7" y="209" text-anchor="middle" font-size="8" fill="#999">32</text>
<line x1="139.3" y1="60" x2="139.3" y2="198" stroke="#f4f4f4"/>
<text x="139.3" y="209" text-anchor="middle" font-size="8" fill="#999">128</text>
<line x1="162.7" y1="60" x2="162.7" y2="198" stroke="#f4f4f4"/>
<text x="162.7" y="209" text-anchor="middle" font-size="8" fill="#999">256</text>
<line x1="186.0" y1="60" x2="186.0" y2="198" stroke="#f4f4f4"/>
<text x="186.0" y="209" text-anchor="middle" font-size="8" fill="#999">512</text>
<line x1="209.3" y1="60" x2="209.3" y2="198" stroke="#f4f4f4"/>
<text x="209.3" y="209" text-anchor="middle" font-size="8" fill="#999">1k</text>
<line x1="232.7" y1="60" x2="232.7" y2="198" stroke="#f4f4f4"/>
<text x="232.7" y="209" text-anchor="middle" font-size="8" fill="#999">2k</text>
<line x1="256.0" y1="60" x2="256.0" y2="198" stroke="#f4f4f4"/>
<text x="256.0" y="209" text-anchor="middle" font-size="8" fill="#999">4k</text>
<rect x="276" y="60" width="210" height="138" fill="none" stroke="#e2e2e2"/>
<line x1="276" y1="142.04530424163187" x2="486" y2="142.04530424163187" stroke="#d33" stroke-dasharray="4 3"/>
<text x="272" y="201.0" text-anchor="end" font-size="9" fill="#999">0.5×</text>
<text x="272" y="145.04530424163187" text-anchor="end" font-size="9" fill="#999">1.0×</text>
<text x="272" y="63.09023697451786" text-anchor="end" font-size="9" fill="#999">2.76×</text>
<polygon points="276.0,66.2 322.7,86.3 369.3,84.3 392.7,101.1 416.0,104.5 439.3,110.9 462.7,109.4 486.0,111.6 486.0,112.1 462.7,109.8 439.3,112.0 416.0,105.3 392.7,101.7 369.3,85.0 322.7,91.6 276.0,68.9" fill="#d62728" opacity="0.11"/>
<polyline points="276.0,67.8 322.7,91.3 369.3,84.7 392.7,101.3 416.0,105.0 439.3,111.3 462.7,109.6 486.0,112.0" fill="none" stroke="#d62728" stroke-width="1.6"/>
<circle cx="276.0" cy="67.8" r="2" fill="#d62728"/>
<circle cx="322.7" cy="91.3" r="2" fill="#d62728"/>
<circle cx="369.3" cy="84.7" r="2" fill="#d62728"/>
<circle cx="392.7" cy="101.3" r="2" fill="#d62728"/>
<circle cx="416.0" cy="105.0" r="2" fill="#d62728"/>
<circle cx="439.3" cy="111.3" r="2" fill="#d62728"/>
<circle cx="462.7" cy="109.6" r="2" fill="#d62728"/>
<circle cx="486.0" cy="112.0" r="2" fill="#d62728"/>
<polygon points="276.0,77.1 322.7,94.4 369.3,72.1 392.7,88.5 416.0,93.9 439.3,105.8 462.7,110.3 486.0,115.0 486.0,115.3 462.7,110.5 439.3,106.1 416.0,94.6 392.7,89.0 369.3,72.6 322.7,96.1 276.0,82.1" fill="#2ca02c" opacity="0.11"/>
<polyline points="276.0,80.8 322.7,95.6 369.3,72.3 392.7,88.9 416.0,94.3 439.3,106.0 462.7,110.4 486.0,115.0" fill="none" stroke="#2ca02c" stroke-width="1.6"/>
<circle cx="276.0" cy="80.8" r="2" fill="#2ca02c"/>
<circle cx="322.7" cy="95.6" r="2" fill="#2ca02c"/>
<circle cx="369.3" cy="72.3" r="2" fill="#2ca02c"/>
<circle cx="392.7" cy="88.9" r="2" fill="#2ca02c"/>
<circle cx="416.0" cy="94.3" r="2" fill="#2ca02c"/>
<circle cx="439.3" cy="106.0" r="2" fill="#2ca02c"/>
<circle cx="462.7" cy="110.4" r="2" fill="#2ca02c"/>
<circle cx="486.0" cy="115.0" r="2" fill="#2ca02c"/>
<polygon points="276.0,67.2 322.7,96.1 369.3,69.6 392.7,90.3 416.0,79.9 439.3,93.8 462.7,97.5 486.0,108.3 486.0,108.9 462.7,102.8 439.3,94.5 416.0,81.4 392.7,91.4 369.3,70.2 322.7,97.5 276.0,75.2" fill="#1f77b4" opacity="0.11"/>
<polyline points="276.0,74.3 322.7,97.0 369.3,69.9 392.7,90.8 416.0,80.9 439.3,94.0 462.7,101.9 486.0,108.6" fill="none" stroke="#1f77b4" stroke-width="1.6"/>
<circle cx="276.0" cy="74.3" r="2" fill="#1f77b4"/>
<circle cx="322.7" cy="97.0" r="2" fill="#1f77b4"/>
<circle cx="369.3" cy="69.9" r="2" fill="#1f77b4"/>
<circle cx="392.7" cy="90.8" r="2" fill="#1f77b4"/>
<circle cx="416.0" cy="80.9" r="2" fill="#1f77b4"/>
<circle cx="439.3" cy="94.0" r="2" fill="#1f77b4"/>
<circle cx="462.7" cy="101.9" r="2" fill="#1f77b4"/>
<circle cx="486.0" cy="108.6" r="2" fill="#1f77b4"/>
<text x="381.0" y="55" text-anchor="middle" font-size="12" font-weight="bold">geqrf</text>
<line x1="276.0" y1="60" x2="276.0" y2="198" stroke="#f4f4f4"/>
<text x="276.0" y="209" text-anchor="middle" font-size="8" fill="#999">8</text>
<line x1="322.7" y1="60" x2="322.7" y2="198" stroke="#f4f4f4"/>
<text x="322.7" y="209" text-anchor="middle" font-size="8" fill="#999">32</text>
<line x1="369.3" y1="60" x2="369.3" y2="198" stroke="#f4f4f4"/>
<text x="369.3" y="209" text-anchor="middle" font-size="8" fill="#999">128</text>
<line x1="392.7" y1="60" x2="392.7" y2="198" stroke="#f4f4f4"/>
<text x="392.7" y="209" text-anchor="middle" font-size="8" fill="#999">256</text>
<line x1="416.0" y1="60" x2="416.0" y2="198" stroke="#f4f4f4"/>
<text x="416.0" y="209" text-anchor="middle" font-size="8" fill="#999">512</text>
<line x1="439.3" y1="60" x2="439.3" y2="198" stroke="#f4f4f4"/>
<text x="439.3" y="209" text-anchor="middle" font-size="8" fill="#999">1k</text>
<line x1="462.7" y1="60" x2="462.7" y2="198" stroke="#f4f4f4"/>
<text x="462.7" y="209" text-anchor="middle" font-size="8" fill="#999">2k</text>
<line x1="486.0" y1="60" x2="486.0" y2="198" stroke="#f4f4f4"/>
<text x="486.0" y="209" text-anchor="middle" font-size="8" fill="#999">4k</text>
<rect x="506" y="60" width="210" height="138" fill="none" stroke="#e2e2e2"/>
<line x1="506" y1="139.43987151290042" x2="716" y2="139.43987151290042" stroke="#d33" stroke-dasharray="4 3"/>
<text x="502" y="201.0" text-anchor="end" font-size="9" fill="#999">0.5×</text>
<text x="502" y="142.43987151290042" text-anchor="end" font-size="9" fill="#999">1.0×</text>
<text x="502" y="63.02391573912356" text-anchor="end" font-size="9" fill="#999">2.56×</text>
<polygon points="506.0,80.5 552.7,66.5 599.3,109.8 622.7,123.5 646.0,126.9 669.3,127.6 692.7,131.6 716.0,134.1 716.0,139.1 692.7,132.6 669.3,128.9 646.0,128.3 622.7,124.4 599.3,110.8 552.7,72.4 506.0,81.6" fill="#d62728" opacity="0.11"/>
<polyline points="506.0,81.1 552.7,70.4 599.3,110.4 622.7,123.9 646.0,127.6 669.3,127.8 692.7,132.4 716.0,135.2" fill="none" stroke="#d62728" stroke-width="1.6"/>
<circle cx="506.0" cy="81.1" r="2" fill="#d62728"/>
<circle cx="552.7" cy="70.4" r="2" fill="#d62728"/>
<circle cx="599.3" cy="110.4" r="2" fill="#d62728"/>
<circle cx="622.7" cy="123.9" r="2" fill="#d62728"/>
<circle cx="646.0" cy="127.6" r="2" fill="#d62728"/>
<circle cx="669.3" cy="127.8" r="2" fill="#d62728"/>
<circle cx="692.7" cy="132.4" r="2" fill="#d62728"/>
<circle cx="716.0" cy="135.2" r="2" fill="#d62728"/>
<polygon points="506.0,95.2 552.7,93.3 599.3,105.6 622.7,116.1 646.0,120.6 669.3,120.2 692.7,124.3 716.0,128.0 716.0,128.2 692.7,124.6 669.3,120.7 646.0,120.9 622.7,117.1 599.3,107.4 552.7,95.4 506.0,98.0" fill="#2ca02c" opacity="0.11"/>
<polyline points="506.0,96.8 552.7,94.2 599.3,106.1 622.7,116.6 646.0,120.7 669.3,120.4 692.7,124.5 716.0,128.1" fill="none" stroke="#2ca02c" stroke-width="1.6"/>
<circle cx="506.0" cy="96.8" r="2" fill="#2ca02c"/>
<circle cx="552.7" cy="94.2" r="2" fill="#2ca02c"/>
<circle cx="599.3" cy="106.1" r="2" fill="#2ca02c"/>
<circle cx="622.7" cy="116.6" r="2" fill="#2ca02c"/>
<circle cx="646.0" cy="120.7" r="2" fill="#2ca02c"/>
<circle cx="669.3" cy="120.4" r="2" fill="#2ca02c"/>
<circle cx="692.7" cy="124.5" r="2" fill="#2ca02c"/>
<circle cx="716.0" cy="128.1" r="2" fill="#2ca02c"/>
<polygon points="506.0,87.8 552.7,83.8 599.3,103.6 622.7,116.0 646.0,118.5 669.3,122.0 692.7,129.5 716.0,134.6 716.0,135.8 692.7,130.4 669.3,122.4 646.0,119.0 622.7,118.1 599.3,105.0 552.7,85.4 506.0,91.4" fill="#1f77b4" opacity="0.11"/>
<polyline points="506.0,90.7 552.7,84.7 599.3,104.1 622.7,116.9 646.0,118.7 669.3,122.3 692.7,130.2 716.0,135.1" fill="none" stroke="#1f77b4" stroke-width="1.6"/>
<circle cx="506.0" cy="90.7" r="2" fill="#1f77b4"/>
<circle cx="552.7" cy="84.7" r="2" fill="#1f77b4"/>
<circle cx="599.3" cy="104.1" r="2" fill="#1f77b4"/>
<circle cx="622.7" cy="116.9" r="2" fill="#1f77b4"/>
<circle cx="646.0" cy="118.7" r="2" fill="#1f77b4"/>
<circle cx="669.3" cy="122.3" r="2" fill="#1f77b4"/>
<circle cx="692.7" cy="130.2" r="2" fill="#1f77b4"/>
<circle cx="716.0" cy="135.1" r="2" fill="#1f77b4"/>
<text x="611.0" y="55" text-anchor="middle" font-size="12" font-weight="bold">getrf</text>
<line x1="506.0" y1="60" x2="506.0" y2="198" stroke="#f4f4f4"/>
<text x="506.0" y="209" text-anchor="middle" font-size="8" fill="#999">8</text>
<line x1="552.7" y1="60" x2="552.7" y2="198" stroke="#f4f4f4"/>
<text x="552.7" y="209" text-anchor="middle" font-size="8" fill="#999">32</text>
<line x1="599.3" y1="60" x2="599.3" y2="198" stroke="#f4f4f4"/>
<text x="599.3" y="209" text-anchor="middle" font-size="8" fill="#999">128</text>
<line x1="622.7" y1="60" x2="622.7" y2="198" stroke="#f4f4f4"/>
<text x="622.7" y="209" text-anchor="middle" font-size="8" fill="#999">256</text>
<line x1="646.0" y1="60" x2="646.0" y2="198" stroke="#f4f4f4"/>
<text x="646.0" y="209" text-anchor="middle" font-size="8" fill="#999">512</text>
<line x1="669.3" y1="60" x2="669.3" y2="198" stroke="#f4f4f4"/>
<text x="669.3" y="209" text-anchor="middle" font-size="8" fill="#999">1k</text>
<line x1="692.7" y1="60" x2="692.7" y2="198" stroke="#f4f4f4"/>
<text x="692.7" y="209" text-anchor="middle" font-size="8" fill="#999">2k</text>
<line x1="716.0" y1="60" x2="716.0" y2="198" stroke="#f4f4f4"/>
<text x="716.0" y="209" text-anchor="middle" font-size="8" fill="#999">4k</text>
<rect x="736" y="60" width="210" height="138" fill="none" stroke="#e2e2e2"/>
<line x1="736" y1="123.87325975347198" x2="946" y2="123.87325975347198" stroke="#d33" stroke-dasharray="4 3"/>
<text x="732" y="201.0" text-anchor="end" font-size="9" fill="#999">0.5×</text>
<text x="732" y="126.87325975347198" text-anchor="end" font-size="9" fill="#999">1.0×</text>
<polygon points="736.0,68.2 788.5,92.9 841.0,96.9 867.2,81.2 893.5,80.8 919.8,89.7 946.0,96.4 946.0,101.2 919.8,94.6 893.5,85.5 867.2,90.7 841.0,98.3 788.5,95.8 736.0,69.0" fill="#d62728" opacity="0.11"/>
<polyline points="736.0,68.6 788.5,95.2 841.0,98.0 867.2,90.3 893.5,84.9 919.8,94.2 946.0,97.5" fill="none" stroke="#d62728" stroke-width="1.6"/>
<circle cx="736.0" cy="68.6" r="2" fill="#d62728"/>
<circle cx="788.5" cy="95.2" r="2" fill="#d62728"/>
<circle cx="841.0" cy="98.0" r="2" fill="#d62728"/>
<circle cx="867.2" cy="90.3" r="2" fill="#d62728"/>
<circle cx="893.5" cy="84.9" r="2" fill="#d62728"/>
<circle cx="919.8" cy="94.2" r="2" fill="#d62728"/>
<circle cx="946.0" cy="97.5" r="2" fill="#d62728"/>
<polygon points="736.0,75.3 788.5,94.4 841.0,109.9 867.2,97.4 893.5,91.8 919.8,94.7 946.0,101.2 946.0,105.6 919.8,97.5 893.5,92.7 867.2,97.9 841.0,110.4 788.5,99.0 736.0,76.5" fill="#2ca02c" opacity="0.11"/>
<polyline points="736.0,76.0 788.5,98.5 841.0,110.2 867.2,97.8 893.5,92.4 919.8,96.4 946.0,101.9" fill="none" stroke="#2ca02c" stroke-width="1.6"/>
<circle cx="736.0" cy="76.0" r="2" fill="#2ca02c"/>
<circle cx="788.5" cy="98.5" r="2" fill="#2ca02c"/>
<circle cx="841.0" cy="110.2" r="2" fill="#2ca02c"/>
<circle cx="867.2" cy="97.8" r="2" fill="#2ca02c"/>
<circle cx="893.5" cy="92.4" r="2" fill="#2ca02c"/>
<circle cx="919.8" cy="96.4" r="2" fill="#2ca02c"/>
<circle cx="946.0" cy="101.9" r="2" fill="#2ca02c"/>
<polygon points="736.0,70.7 788.5,82.8 841.0,108.8 867.2,94.4 893.5,82.7 919.8,82.9 946.0,92.7 946.0,103.3 919.8,88.5 893.5,84.5 867.2,99.9 841.0,109.2 788.5,95.2 736.0,71.8" fill="#1f77b4" opacity="0.11"/>
<polyline points="736.0,71.1 788.5,95.0 841.0,109.0 867.2,94.9 893.5,83.6 919.8,86.1 946.0,96.8" fill="none" stroke="#1f77b4" stroke-width="1.6"/>
<circle cx="736.0" cy="71.1" r="2" fill="#1f77b4"/>
<circle cx="788.5" cy="95.0" r="2" fill="#1f77b4"/>
<circle cx="841.0" cy="109.0" r="2" fill="#1f77b4"/>
<circle cx="867.2" cy="94.9" r="2" fill="#1f77b4"/>
<circle cx="893.5" cy="83.6" r="2" fill="#1f77b4"/>
<circle cx="919.8" cy="86.1" r="2" fill="#1f77b4"/>
<circle cx="946.0" cy="96.8" r="2" fill="#1f77b4"/>
<text x="841.0" y="55" text-anchor="middle" font-size="12" font-weight="bold">gesvd</text>
<line x1="736.0" y1="60" x2="736.0" y2="198" stroke="#f4f4f4"/>
<text x="736.0" y="209" text-anchor="middle" font-size="8" fill="#999">8</text>
<line x1="788.5" y1="60" x2="788.5" y2="198" stroke="#f4f4f4"/>
<text x="788.5" y="209" text-anchor="middle" font-size="8" fill="#999">32</text>
<line x1="841.0" y1="60" x2="841.0" y2="198" stroke="#f4f4f4"/>
<text x="841.0" y="209" text-anchor="middle" font-size="8" fill="#999">128</text>
<line x1="867.2" y1="60" x2="867.2" y2="198" stroke="#f4f4f4"/>
<text x="867.2" y="209" text-anchor="middle" font-size="8" fill="#999">256</text>
<line x1="893.5" y1="60" x2="893.5" y2="198" stroke="#f4f4f4"/>
<text x="893.5" y="209" text-anchor="middle" font-size="8" fill="#999">512</text>
<line x1="919.8" y1="60" x2="919.8" y2="198" stroke="#f4f4f4"/>
<text x="919.8" y="209" text-anchor="middle" font-size="8" fill="#999">1k</text>
<line x1="946.0" y1="60" x2="946.0" y2="198" stroke="#f4f4f4"/>
<text x="946.0" y="209" text-anchor="middle" font-size="8" fill="#999">2k</text>
</svg>
