<svg xmlns="http://www.w3.org/2000/svg" width="900" height="460" font-family="sans-serif">
<rect width="900" height="460" fill="white"/>
<text x="450.0" y="28" text-anchor="middle" font-size="18" font-weight="bold">Complex LAPACK: PureBLAS / OpenBLAS (Zen5, 1 thread, ComplexF64)</text>
<line x1="62" y1="400.0" x2="768" y2="400.0" stroke="#eee"/>
<text x="54" y="404.0" text-anchor="end" font-size="11" fill="#666">0.5×</text>
<line x1="62" y1="308.60906937914075" x2="768" y2="308.60906937914075" stroke="#eee"/>
<text x="54" y="312.60906937914075" text-anchor="end" font-size="11" fill="#666">0.7×</text>
<line x1="62" y1="211.73077896494587" x2="768" y2="211.73077896494587" stroke="#eee"/>
<text x="54" y="215.73077896494587" text-anchor="end" font-size="11" fill="#666">1.0×</text>
<line x1="62" y1="101.60034461945651" x2="768" y2="101.60034461945651" stroke="#eee"/>
<text x="54" y="105.60034461945651" text-anchor="end" font-size="11" fill="#666">1.5×</text>
<line x1="62.0" y1="50" x2="62.0" y2="400" stroke="#f4f4f4"/>
<text x="62.0" y="418" text-anchor="middle" font-size="11" fill="#444">8</text>
<line x1="238.5" y1="50" x2="238.5" y2="400" stroke="#f4f4f4"/>
<text x="238.5" y="418" text-anchor="middle" font-size="11" fill="#444">32</text>
<line x1="415.0" y1="50" x2="415.0" y2="400" stroke="#f4f4f4"/>
<text x="415.0" y="418" text-anchor="middle" font-size="11" fill="#444">128</text>
<line x1="503.25" y1="50" x2="503.25" y2="400" stroke="#f4f4f4"/>
<text x="503.25" y="418" text-anchor="middle" font-size="11" fill="#444">256</text>
<line x1="591.5" y1="50" x2="591.5" y2="400" stroke="#f4f4f4"/>
<text x="591.5" y="418" text-anchor="middle" font-size="11" fill="#444">512</text>
<line x1="679.75" y1="50" x2="679.75" y2="400" stroke="#f4f4f4"/>
<text x="679.75" y="418" text-anchor="middle" font-size="11" fill="#444">1024</text>
<line x1="768.0" y1="50" x2="768.0" y2="400" stroke="#f4f4f4"/>
<text x="768.0" y="418" text-anchor="middle" font-size="11" fill="#444">2048</text>
<line x1="62" y1="211.73077896494587" x2="768" y2="211.73077896494587" stroke="#888"/>
<line x1="62" y1="222.8186479269419" x2="768" y2="222.8186479269419" stroke="#d33" stroke-width="1.5" stroke-dasharray="6 4"/>
<text x="66" y="217.8186479269419" font-size="11" fill="#d33">0.96× gate</text>
<polygon points="62.0,91.6 238.5,199.5 415.0,157.7 503.2,155.8 591.5,137.0 679.8,150.2 768.0,162.8 768.0,163.3 679.8,151.2 591.5,137.6 503.2,156.4 415.0,162.3 238.5,204.2 62.0,133.1" fill="#1f77b4" opacity="0.14" stroke="none"/>
<polyline points="62.0,128.5 238.5,202.7 415.0,161.7 503.2,156.0 591.5,137.4 679.8,150.4 768.0,163.0" fill="none" stroke="#1f77b4" stroke-width="2"/>
<circle cx="62.0" cy="128.5" r="3" fill="#1f77b4"/>
<circle cx="238.5" cy="202.7" r="3" fill="#1f77b4"/>
<circle cx="415.0" cy="161.7" r="3" fill="#1f77b4"/>
<circle cx="503.2" cy="156.0" r="3" fill="#1f77b4"/>
<circle cx="591.5" cy="137.4" r="3" fill="#1f77b4"/>
<circle cx="679.8" cy="150.4" r="3" fill="#1f77b4"/>
<circle cx="768.0" cy="163.0" r="3" fill="#1f77b4"/>
<line x1="782" y1="56" x2="802" y2="56" stroke="#1f77b4" stroke-width="3"/>
<text x="806" y="60" font-size="12">zpotrf</text>
<polygon points="62.0,208.8 238.5,360.5 415.0,362.3 503.2,262.7 591.5,225.9 679.8,209.2 768.0,198.7 768.0,198.8 679.8,209.9 591.5,226.0 503.2,263.5 415.0,362.9 238.5,365.7 62.0,216.7" fill="#d62728" opacity="0.14" stroke="none"/>
<polyline points="62.0,213.5 238.5,364.1 415.0,362.6 503.2,263.4 591.5,226.0 679.8,209.6 768.0,198.8" fill="none" stroke="#d62728" stroke-width="2"/>
<circle cx="62.0" cy="213.5" r="3" fill="#d62728"/>
<circle cx="238.5" cy="364.1" r="3" fill="#d62728"/>
<circle cx="415.0" cy="362.6" r="3" fill="#d62728"/>
<circle cx="503.2" cy="263.4" r="3" fill="#d62728"/>
<circle cx="591.5" cy="226.0" r="3" fill="#d62728"/>
<circle cx="679.8" cy="209.6" r="3" fill="#d62728"/>
<circle cx="768.0" cy="198.8" r="3" fill="#d62728"/>
<line x1="782" y1="74" x2="802" y2="74" stroke="#d62728" stroke-width="3"/>
<text x="806" y="78" font-size="12">zgeqrf</text>
<polygon points="62.0,185.3 238.5,180.7 415.0,207.1 503.2,213.8 591.5,193.2 679.8,216.4 768.0,199.9 768.0,200.0 679.8,216.7 591.5,193.6 503.2,214.3 415.0,207.7 238.5,184.9 62.0,185.7" fill="#2ca02c" opacity="0.14" stroke="none"/>
<polyline points="62.0,185.5 238.5,181.6 415.0,207.5 503.2,213.9 591.5,193.4 679.8,216.6 768.0,199.9" fill="none" stroke="#2ca02c" stroke-width="2"/>
<circle cx="62.0" cy="185.5" r="3" fill="#2ca02c"/>
<circle cx="238.5" cy="181.6" r="3" fill="#2ca02c"/>
<circle cx="415.0" cy="207.5" r="3" fill="#2ca02c"/>
<circle cx="503.2" cy="213.9" r="3" fill="#2ca02c"/>
<circle cx="591.5" cy="193.4" r="3" fill="#2ca02c"/>
<circle cx="679.8" cy="216.6" r="3" fill="#2ca02c"/>
<circle cx="768.0" cy="199.9" r="3" fill="#2ca02c"/>
<line x1="782" y1="92" x2="802" y2="92" stroke="#2ca02c" stroke-width="3"/>
<text x="806" y="96" font-size="12">zgetrf</text>
<polygon points="62.0,87.5 238.5,224.0 415.0,400.0 503.2,400.0 591.5,400.0 679.8,400.0 768.0,400.0 768.0,400.0 679.8,400.0 591.5,400.0 503.2,400.0 415.0,400.0 238.5,227.0 62.0,89.9" fill="#9467bd" opacity="0.14" stroke="none"/>
<polyline points="62.0,88.0 238.5,226.9 415.0,400.0 503.2,400.0 591.5,400.0 679.8,400.0 768.0,400.0" fill="none" stroke="#9467bd" stroke-width="2"/>
<circle cx="62.0" cy="88.0" r="3" fill="#9467bd"/>
<circle cx="238.5" cy="226.9" r="3" fill="#9467bd"/>
<circle cx="415.0" cy="400.0" r="3" fill="#9467bd"/>
<circle cx="503.2" cy="400.0" r="3" fill="#9467bd"/>
<circle cx="591.5" cy="400.0" r="3" fill="#9467bd"/>
<circle cx="679.8" cy="400.0" r="3" fill="#9467bd"/>
<circle cx="768.0" cy="400.0" r="3" fill="#9467bd"/>
<line x1="782" y1="110" x2="802" y2="110" stroke="#9467bd" stroke-width="3"/>
<text x="806" y="114" font-size="12">zgesvd</text>
<text x="415.0" y="450" text-anchor="middle" font-size="11" fill="#666">matrix size n (log) · y = median ratio (log) · dashed = the 0.96× gate</text>
</svg>
