<svg xmlns="http://www.w3.org/2000/svg" width="900" height="460" font-family="sans-serif">
<rect width="900" height="460" fill="white"/>
<text x="450.0" y="28" text-anchor="middle" font-size="18" font-weight="bold">LAPACK: PureBLAS / OpenBLAS (AVX-512, 1 thread, Float64)</text>
<line x1="62" y1="400.0" x2="768" y2="400.0" stroke="#eee"/>
<text x="54" y="404.0" text-anchor="end" font-size="11" fill="#666">0.5×</text>
<line x1="62" y1="337.92526557874635" x2="768" y2="337.92526557874635" stroke="#eee"/>
<text x="54" y="341.92526557874635" text-anchor="end" font-size="11" fill="#666">0.7×</text>
<line x1="62" y1="272.12339543919825" x2="768" y2="272.12339543919825" stroke="#eee"/>
<text x="54" y="276.12339543919825" text-anchor="end" font-size="11" fill="#666">1.0×</text>
<line x1="62" y1="197.32037705158123" x2="768" y2="197.32037705158123" stroke="#eee"/>
<text x="54" y="201.32037705158123" text-anchor="end" font-size="11" fill="#666">1.5×</text>
<line x1="62" y1="144.2467908783965" x2="768" y2="144.2467908783965" stroke="#eee"/>
<text x="54" y="148.2467908783965" text-anchor="end" font-size="11" fill="#666">2.0×</text>
<line x1="62" y1="69.44377249077948" x2="768" y2="69.44377249077948" stroke="#eee"/>
<text x="54" y="73.44377249077948" text-anchor="end" font-size="11" fill="#666">3.0×</text>
<line x1="62.0" y1="50" x2="62.0" y2="400" stroke="#f4f4f4"/>
<text x="62.0" y="418" text-anchor="middle" font-size="11" fill="#444">8</text>
<line x1="238.5" y1="50" x2="238.5" y2="400" stroke="#f4f4f4"/>
<text x="238.5" y="418" text-anchor="middle" font-size="11" fill="#444">32</text>
<line x1="415.0" y1="50" x2="415.0" y2="400" stroke="#f4f4f4"/>
<text x="415.0" y="418" text-anchor="middle" font-size="11" fill="#444">128</text>
<line x1="503.25" y1="50" x2="503.25" y2="400" stroke="#f4f4f4"/>
<text x="503.25" y="418" text-anchor="middle" font-size="11" fill="#444">256</text>
<line x1="591.5" y1="50" x2="591.5" y2="400" stroke="#f4f4f4"/>
<text x="591.5" y="418" text-anchor="middle" font-size="11" fill="#444">512</text>
<line x1="679.75" y1="50" x2="679.75" y2="400" stroke="#f4f4f4"/>
<text x="679.75" y="418" text-anchor="middle" font-size="11" fill="#444">1024</text>
<line x1="768.0" y1="50" x2="768.0" y2="400" stroke="#f4f4f4"/>
<text x="768.0" y="418" text-anchor="middle" font-size="11" fill="#444">2048</text>
<line x1="62" y1="272.12339543919825" x2="768" y2="272.12339543919825" stroke="#888"/>
<line x1="62" y1="279.65452042542825" x2="768" y2="279.65452042542825" stroke="#d33" stroke-width="1.5" stroke-dasharray="6 4"/>
<text x="66" y="274.65452042542825" font-size="11" fill="#d33">0.96× gate</text>
<polyline points="62.0,193.6 238.5,207.9 415.0,233.3 503.2,226.5 591.5,226.5 679.8,250.0 768.0,253.2" fill="none" stroke="#1f77b4" stroke-width="2"/>
<circle cx="62.0" cy="193.6" r="3" fill="#1f77b4"/>
<circle cx="238.5" cy="207.9" r="3" fill="#1f77b4"/>
<circle cx="415.0" cy="233.3" r="3" fill="#1f77b4"/>
<circle cx="503.2" cy="226.5" r="3" fill="#1f77b4"/>
<circle cx="591.5" cy="226.5" r="3" fill="#1f77b4"/>
<circle cx="679.8" cy="250.0" r="3" fill="#1f77b4"/>
<circle cx="768.0" cy="253.2" r="3" fill="#1f77b4"/>
<line x1="782" y1="56" x2="802" y2="56" stroke="#1f77b4" stroke-width="3"/>
<text x="806" y="60" font-size="12">potrf</text>
<polyline points="62.0,75.8 238.5,202.0 415.0,203.5 503.2,226.3 591.5,186.2 679.8,217.7 768.0,243.0" fill="none" stroke="#d62728" stroke-width="2"/>
<circle cx="62.0" cy="75.8" r="3" fill="#d62728"/>
<circle cx="238.5" cy="202.0" r="3" fill="#d62728"/>
<circle cx="415.0" cy="203.5" r="3" fill="#d62728"/>
<circle cx="503.2" cy="226.3" r="3" fill="#d62728"/>
<circle cx="591.5" cy="186.2" r="3" fill="#d62728"/>
<circle cx="679.8" cy="217.7" r="3" fill="#d62728"/>
<circle cx="768.0" cy="243.0" r="3" fill="#d62728"/>
<line x1="782" y1="74" x2="802" y2="74" stroke="#d62728" stroke-width="3"/>
<text x="806" y="78" font-size="12">geqrf</text>
<polyline points="62.0,158.8 238.5,207.3 415.0,274.0 503.2,277.3 591.5,262.1 679.8,260.8 768.0,263.9" fill="none" stroke="#2ca02c" stroke-width="2"/>
<circle cx="62.0" cy="158.8" r="3" fill="#2ca02c"/>
<circle cx="238.5" cy="207.3" r="3" fill="#2ca02c"/>
<circle cx="415.0" cy="274.0" r="3" fill="#2ca02c"/>
<circle cx="503.2" cy="277.3" r="3" fill="#2ca02c"/>
<circle cx="591.5" cy="262.1" r="3" fill="#2ca02c"/>
<circle cx="679.8" cy="260.8" r="3" fill="#2ca02c"/>
<circle cx="768.0" cy="263.9" r="3" fill="#2ca02c"/>
<line x1="782" y1="92" x2="802" y2="92" stroke="#2ca02c" stroke-width="3"/>
<text x="806" y="96" font-size="12">getrf</text>
<polyline points="62.0,181.9 238.5,235.3 415.0,271.1 503.2,234.2 591.5,212.6 679.8,239.3 768.0,243.5" fill="none" stroke="#9467bd" stroke-width="2"/>
<circle cx="62.0" cy="181.9" r="3" fill="#9467bd"/>
<circle cx="238.5" cy="235.3" r="3" fill="#9467bd"/>
<circle cx="415.0" cy="271.1" r="3" fill="#9467bd"/>
<circle cx="503.2" cy="234.2" r="3" fill="#9467bd"/>
<circle cx="591.5" cy="212.6" r="3" fill="#9467bd"/>
<circle cx="679.8" cy="239.3" r="3" fill="#9467bd"/>
<circle cx="768.0" cy="243.5" r="3" fill="#9467bd"/>
<line x1="782" y1="110" x2="802" y2="110" stroke="#9467bd" stroke-width="3"/>
<text x="806" y="114" font-size="12">gesvd</text>
<text x="415.0" y="450" text-anchor="middle" font-size="11" fill="#666">matrix size n (log) · y = median ratio (log) · dashed = the 0.96× gate</text>
</svg>
