<svg xmlns="http://www.w3.org/2000/svg" width="900" height="440" font-family="sans-serif">
<rect width="900" height="440" fill="white"/>
<text x="450.0" y="28" text-anchor="middle" font-size="18" font-weight="bold">Complex BLAS-2: PureBLAS / OpenBLAS (AVX2, 1 thread, ComplexF64)</text>
<line x1="60" y1="358.0" x2="880" y2="358.0" stroke="#eee"/>
<text x="52" y="362.0" text-anchor="end" font-size="11" fill="#666">0×</text>
<line x1="60" y1="280.7280715078213" x2="880" y2="280.7280715078213" stroke="#eee"/>
<text x="52" y="284.7280715078213" text-anchor="end" font-size="11" fill="#666">0.5×</text>
<line x1="60" y1="203.45614301564262" x2="880" y2="203.45614301564262" stroke="#eee"/>
<text x="52" y="207.45614301564262" text-anchor="end" font-size="11" fill="#666">1×</text>
<line x1="60" y1="126.18421452346395" x2="880" y2="126.18421452346395" stroke="#eee"/>
<text x="52" y="130.18421452346394" text-anchor="end" font-size="11" fill="#666">1.5×</text>
<line x1="60" y1="203.45614301564262" x2="880" y2="203.45614301564262" stroke="#888" stroke-width="1"/>
<line x1="60" y1="209.63789729501693" x2="880" y2="209.63789729501693" stroke="#d33" stroke-width="1.5" stroke-dasharray="6 4"/>
<text x="880" y="204.63789729501693" text-anchor="end" font-size="11" fill="#d33">0.96× gate</text>
<polygon points="135.1,261.9 136.8,260.7 138.8,259.5 141.0,258.4 143.5,257.2 146.2,256.1 149.0,254.9 151.9,253.8 154.9,252.6 157.9,251.5 160.8,250.3 163.7,249.1 166.5,248.0 169.1,246.8 171.6,245.7 174.0,244.5 176.2,243.4 178.3,242.2 180.2,241.1 181.9,239.9 183.4,238.7 184.6,237.6 185.4,236.4 185.7,235.3 185.5,234.1 184.8,233.0 183.4,231.8 181.4,230.6 178.8,229.5 175.8,228.3 172.3,227.2 168.5,226.0 164.6,224.9 160.7,223.7 156.9,222.6 153.4,221.4 150.3,220.2 147.7,219.1 145.6,217.9 144.1,216.8 143.1,215.6 142.6,214.5 142.6,213.3 143.0,212.2 143.8,211.0 144.9,209.8 146.1,208.7 147.5,207.5 148.9,206.4 150.2,205.2 151.4,204.1 152.5,202.9 153.3,201.7 153.8,200.6 154.1,199.4 154.1,198.3 153.8,197.1 153.2,196.0 152.4,194.8 151.3,193.7 150.1,192.5 148.7,191.3 147.2,190.2 145.6,189.0 143.9,187.9 142.2,186.7 140.6,185.6 139.0,184.4 137.4,183.3 136.0,182.1 134.7,180.9 133.5,179.8 123.2,179.8 122.0,180.9 120.7,182.1 119.2,183.3 117.7,184.4 116.1,185.6 114.4,186.7 112.8,187.9 111.1,189.0 109.5,190.2 108.0,191.3 106.6,192.5 105.3,193.7 104.3,194.8 103.4,196.0 102.9,197.1 102.6,198.3 102.5,199.4 102.8,200.6 103.4,201.7 104.2,202.9 105.2,204.1 106.5,205.2 107.8,206.4 109.2,207.5 110.5,208.7 111.8,209.8 112.8,211.0 113.6,212.2 114.0,213.3 114.1,214.5 113.6,215.6 112.6,216.8 111.0,217.9 109.0,219.1 106.3,220.2 103.3,221.4 99.8,222.6 96.0,223.7 92.1,224.9 88.2,226.0 84.4,227.2 80.9,228.3 77.8,229.5 75.3,230.6 73.3,231.8 71.9,233.0 71.1,234.1 70.9,235.3 71.3,236.4 72.1,237.6 73.2,238.7 74.7,239.9 76.4,241.1 78.4,242.2 80.5,243.4 82.7,244.5 85.1,245.7 87.6,246.8 90.2,248.0 93.0,249.1 95.8,250.3 98.8,251.5 101.8,252.6 104.7,253.8 107.7,254.9 110.5,256.1 113.2,257.2 115.6,258.4 117.9,259.5 119.9,260.7 121.6,261.9" fill="#d33" opacity="0.5" stroke="#d33" stroke-width="1"/>
<line x1="73.8" y1="231.46648414827982" x2="182.9" y2="231.46648414827982" stroke="#114" stroke-width="2"/>
<circle cx="128.33333333333331" cy="249.687180843249" r="2.4" fill="#114"/>
<text x="128.33333333333331" y="181.97883534154633" text-anchor="middle" font-size="11">0.82</text>
<text x="128.33333333333331" y="376" text-anchor="middle" font-size="12">zgemvN</text>
<polygon points="266.4,240.7 267.0,239.8 267.7,238.9 268.7,238.0 269.9,237.1 271.3,236.2 272.9,235.4 274.7,234.5 276.6,233.6 278.5,232.7 280.3,231.8 281.9,230.9 283.3,230.1 284.2,229.2 284.8,228.3 284.9,227.4 284.8,226.5 284.6,225.6 284.4,224.7 284.5,223.9 285.0,223.0 286.1,222.1 287.9,221.2 290.4,220.3 293.6,219.4 297.3,218.6 301.3,217.7 305.5,216.8 309.5,215.9 313.3,215.0 316.5,214.1 319.1,213.3 320.9,212.4 322.0,211.5 322.4,210.6 322.1,209.7 321.3,208.8 320.0,207.9 318.3,207.1 316.3,206.2 314.1,205.3 311.7,204.4 309.3,203.5 306.8,202.6 304.4,201.8 302.1,200.9 299.9,200.0 297.9,199.1 296.0,198.2 294.5,197.3 293.1,196.5 292.1,195.6 291.3,194.7 290.8,193.8 290.5,192.9 290.2,192.0 289.9,191.2 289.6,190.3 289.0,189.4 288.2,188.5 287.0,187.6 285.5,186.7 283.8,185.8 281.8,185.0 279.6,184.1 277.4,183.2 275.3,182.3 273.3,181.4 271.6,180.5 270.0,179.7 268.7,178.8 267.7,177.9 262.3,177.9 261.3,178.8 260.0,179.7 258.4,180.5 256.7,181.4 254.7,182.3 252.6,183.2 250.4,184.1 248.2,185.0 246.2,185.8 244.5,186.7 243.0,187.6 241.8,188.5 241.0,189.4 240.4,190.3 240.1,191.2 239.8,192.0 239.5,192.9 239.2,193.8 238.7,194.7 237.9,195.6 236.9,196.5 235.5,197.3 234.0,198.2 232.1,199.1 230.1,200.0 227.9,200.9 225.6,201.8 223.2,202.6 220.7,203.5 218.3,204.4 215.9,205.3 213.7,206.2 211.7,207.1 210.0,207.9 208.7,208.8 207.9,209.7 207.6,210.6 208.0,211.5 209.1,212.4 210.9,213.3 213.5,214.1 216.7,215.0 220.5,215.9 224.5,216.8 228.7,217.7 232.7,218.6 236.4,219.4 239.6,220.3 242.1,221.2 243.9,222.1 245.0,223.0 245.5,223.9 245.6,224.7 245.4,225.6 245.2,226.5 245.1,227.4 245.2,228.3 245.8,229.2 246.7,230.1 248.1,230.9 249.7,231.8 251.5,232.7 253.4,233.6 255.3,234.5 257.1,235.4 258.7,236.2 260.1,237.1 261.3,238.0 262.3,238.9 263.0,239.8 263.6,240.7" fill="#d33" opacity="0.5" stroke="#d33" stroke-width="1"/>
<line x1="208.7" y1="208.86074267275532" x2="321.3" y2="208.86074267275532" stroke="#114" stroke-width="2"/>
<circle cx="265.0" cy="228.17717502116395" r="2.4" fill="#114"/>
<text x="265.0" y="178.2139902421586" text-anchor="middle" font-size="11">0.97</text>
<text x="265.0" y="376" text-anchor="middle" font-size="12">zgemvC</text>
<polygon points="411.2,222.1 413.9,220.9 417.0,219.7 420.6,218.6 424.7,217.4 429.1,216.2 433.7,215.1 438.3,213.9 442.9,212.7 447.3,211.5 451.2,210.4 454.4,209.2 456.9,208.0 458.5,206.9 459.1,205.7 458.7,204.5 457.4,203.4 455.2,202.2 452.4,201.0 449.0,199.9 445.3,198.7 441.4,197.5 437.5,196.4 433.9,195.2 430.5,194.0 427.5,192.9 424.9,191.7 422.9,190.5 421.2,189.4 420.0,188.2 419.2,187.0 418.7,185.9 418.5,184.7 418.3,183.5 418.3,182.3 418.2,181.2 418.0,180.0 417.6,178.8 417.1,177.7 416.5,176.5 415.6,175.3 414.7,174.2 413.7,173.0 412.7,171.8 411.8,170.7 411.0,169.5 410.5,168.3 410.2,167.2 410.2,166.0 410.4,164.8 410.9,163.7 411.5,162.5 412.3,161.3 413.1,160.2 413.9,159.0 414.5,157.8 415.0,156.6 415.2,155.5 415.2,154.3 414.9,153.1 414.3,152.0 413.5,150.8 412.6,149.6 411.4,148.5 410.2,147.3 409.0,146.1 407.9,145.0 406.8,143.8 405.8,142.6 404.9,141.5 404.2,140.3 403.6,139.1 399.8,139.1 399.2,140.3 398.4,141.5 397.6,142.6 396.6,143.8 395.5,145.0 394.3,146.1 393.1,147.3 391.9,148.5 390.8,149.6 389.8,150.8 389.0,152.0 388.4,153.1 388.1,154.3 388.1,155.5 388.3,156.6 388.8,157.8 389.5,159.0 390.3,160.2 391.1,161.3 391.8,162.5 392.5,163.7 392.9,164.8 393.2,166.0 393.1,167.2 392.8,168.3 392.3,169.5 391.5,170.7 390.6,171.8 389.6,173.0 388.6,174.2 387.7,175.3 386.9,176.5 386.2,177.7 385.7,178.8 385.4,180.0 385.2,181.2 385.1,182.3 385.0,183.5 384.9,184.7 384.6,185.9 384.1,187.0 383.3,188.2 382.1,189.4 380.5,190.5 378.4,191.7 375.8,192.9 372.9,194.0 369.5,195.2 365.8,196.4 361.9,197.5 358.1,198.7 354.3,199.9 351.0,201.0 348.1,202.2 346.0,203.4 344.6,204.5 344.3,205.7 344.9,206.9 346.4,208.0 348.9,209.2 352.2,210.4 356.1,211.5 360.4,212.7 365.0,213.9 369.7,215.1 374.3,216.2 378.7,217.4 382.7,218.6 386.3,219.7 389.5,220.9 392.2,222.1" fill="#2a8" opacity="0.5" stroke="#2a8" stroke-width="1"/>
<line x1="346.0" y1="203.36568633661625" x2="457.4" y2="203.36568633661625" stroke="#114" stroke-width="2"/>
<circle cx="401.66666666666663" cy="208.98368358257397" r="2.4" fill="#114"/>
<text x="401.66666666666663" y="141.4024851693376" text-anchor="middle" font-size="11">1.00</text>
<text x="401.66666666666663" y="376" text-anchor="middle" font-size="12">zgeru</text>
<polygon points="554.4,184.3 557.4,182.5 560.7,180.6 564.1,178.8 567.5,177.0 570.9,175.2 574.2,173.3 577.2,171.5 580.0,169.7 582.3,167.8 584.2,166.0 585.6,164.2 586.5,162.4 586.9,160.5 586.9,158.7 586.4,156.9 585.6,155.1 584.5,153.2 583.1,151.4 581.6,149.6 580.0,147.8 578.3,145.9 576.7,144.1 575.1,142.3 573.6,140.5 572.2,138.6 571.0,136.8 569.9,135.0 569.0,133.2 568.3,131.3 567.8,129.5 567.5,127.7 567.3,125.9 567.3,124.0 567.5,122.2 567.7,120.4 568.1,118.5 568.6,116.7 569.3,114.9 570.1,113.1 571.1,111.2 572.3,109.4 573.7,107.6 575.4,105.8 577.3,103.9 579.4,102.1 581.7,100.3 584.1,98.5 586.5,96.6 588.9,94.8 591.1,93.0 593.0,91.2 594.4,89.3 595.4,87.5 595.7,85.7 595.4,83.9 594.4,82.0 592.8,80.2 590.5,78.4 587.6,76.6 584.3,74.7 580.6,72.9 576.6,71.1 572.5,69.2 568.5,67.4 564.5,65.6 560.7,63.8 557.2,61.9 554.0,60.1 551.2,58.3 548.7,56.5 546.6,54.6 530.1,54.6 528.0,56.5 525.5,58.3 522.7,60.1 519.5,61.9 516.0,63.8 512.2,65.6 508.2,67.4 504.1,69.2 500.1,71.1 496.1,72.9 492.4,74.7 489.0,76.6 486.2,78.4 483.9,80.2 482.2,82.0 481.2,83.9 480.9,85.7 481.3,87.5 482.2,89.3 483.7,91.2 485.6,93.0 487.8,94.8 490.1,96.6 492.6,98.5 495.0,100.3 497.3,102.1 499.4,103.9 501.3,105.8 503.0,107.6 504.4,109.4 505.6,111.2 506.6,113.1 507.4,114.9 508.0,116.7 508.6,118.5 508.9,120.4 509.2,122.2 509.3,124.0 509.3,125.9 509.2,127.7 508.9,129.5 508.4,131.3 507.7,133.2 506.8,135.0 505.7,136.8 504.5,138.6 503.1,140.5 501.6,142.3 500.0,144.1 498.3,145.9 496.7,147.8 495.1,149.6 493.5,151.4 492.2,153.2 491.1,155.1 490.3,156.9 489.8,158.7 489.7,160.5 490.1,162.4 491.0,164.2 492.5,166.0 494.3,167.8 496.7,169.7 499.4,171.5 502.5,173.3 505.8,175.2 509.2,177.0 512.6,178.8 516.0,180.6 519.2,182.5 522.2,184.3" fill="#2a8" opacity="0.5" stroke="#2a8" stroke-width="1"/>
<line x1="508.1" y1="116.83182961747775" x2="568.6" y2="116.83182961747775" stroke="#114" stroke-width="2"/>
<circle cx="538.3333333333333" cy="167.4204305194697" r="2.4" fill="#114"/>
<text x="538.3333333333333" y="61.43396226415098" text-anchor="middle" font-size="11">1.56</text>
<text x="538.3333333333333" y="376" text-anchor="middle" font-size="12">zhemv</text>
<polygon points="677.4,276.8 678.3,273.6 679.4,270.5 680.9,267.3 682.8,264.1 685.1,260.9 687.8,257.7 690.9,254.6 694.5,251.4 698.4,248.2 702.6,245.0 707.1,241.8 711.5,238.7 715.9,235.5 720.1,232.3 723.9,229.1 727.1,225.9 729.7,222.8 731.4,219.6 732.4,216.4 732.4,213.2 731.5,210.0 729.8,206.9 727.4,203.7 724.2,200.5 720.6,197.3 716.5,194.1 712.2,191.0 707.9,187.8 703.7,184.6 699.7,181.4 696.1,178.3 693.0,175.1 690.3,171.9 688.3,168.7 686.8,165.5 685.9,162.4 685.5,159.2 685.5,156.0 685.9,152.8 686.5,149.6 687.3,146.5 688.0,143.3 688.8,140.1 689.4,136.9 689.8,133.7 690.0,130.6 690.0,127.4 689.8,124.2 689.5,121.0 689.1,117.8 688.8,114.7 688.5,111.5 688.3,108.3 688.3,105.1 688.4,101.9 688.6,98.8 688.8,95.6 689.1,92.4 689.3,89.2 689.4,86.1 689.3,82.9 689.0,79.7 688.5,76.5 687.7,73.3 686.8,70.2 685.7,67.0 684.5,63.8 683.2,60.6 682.0,57.4 680.8,54.3 679.7,51.1 670.3,51.1 669.2,54.3 668.0,57.4 666.8,60.6 665.5,63.8 664.3,67.0 663.2,70.2 662.3,73.3 661.5,76.5 661.0,79.7 660.7,82.9 660.6,86.1 660.7,89.2 660.9,92.4 661.2,95.6 661.4,98.8 661.6,101.9 661.7,105.1 661.7,108.3 661.5,111.5 661.2,114.7 660.9,117.8 660.5,121.0 660.2,124.2 660.0,127.4 660.0,130.6 660.2,133.7 660.6,136.9 661.2,140.1 662.0,143.3 662.7,146.5 663.5,149.6 664.1,152.8 664.5,156.0 664.5,159.2 664.1,162.4 663.2,165.5 661.7,168.7 659.7,171.9 657.0,175.1 653.9,178.3 650.3,181.4 646.3,184.6 642.1,187.8 637.8,191.0 633.5,194.1 629.4,197.3 625.8,200.5 622.6,203.7 620.2,206.9 618.5,210.0 617.6,213.2 617.6,216.4 618.6,219.6 620.3,222.8 622.9,225.9 626.1,229.1 629.9,232.3 634.1,235.5 638.5,238.7 642.9,241.8 647.4,245.0 651.6,248.2 655.5,251.4 659.1,254.6 662.2,257.7 664.9,260.9 667.2,264.1 669.1,267.3 670.6,270.5 671.7,273.6 672.6,276.8" fill="#d33" opacity="0.5" stroke="#d33" stroke-width="1"/>
<line x1="620.8" y1="205.8953345917654" x2="729.2" y2="205.8953345917654" stroke="#114" stroke-width="2"/>
<circle cx="675.0" cy="228.06322483497678" r="2.4" fill="#114"/>
<text x="675.0" y="67.17216288653867" text-anchor="middle" font-size="11">0.98</text>
<text x="675.0" y="376" text-anchor="middle" font-size="12">ztrmv</text>
<polygon points="811.8,251.6 811.9,250.7 812.1,249.8 812.2,248.9 812.4,247.9 812.5,247.0 812.7,246.1 812.7,245.2 812.7,244.3 812.6,243.4 812.5,242.5 812.5,241.6 812.6,240.6 812.8,239.7 813.3,238.8 814.1,237.9 815.4,237.0 817.1,236.1 819.2,235.2 821.8,234.2 824.7,233.3 827.6,232.4 830.4,231.5 832.9,230.6 835.0,229.7 836.8,228.8 838.4,227.8 840.0,226.9 841.8,226.0 843.9,225.1 846.4,224.2 849.4,223.3 852.8,222.4 856.5,221.4 860.2,220.5 863.6,219.6 866.4,218.7 868.3,217.8 869.1,216.9 868.7,216.0 867.4,215.0 865.4,214.1 862.8,213.2 859.9,212.3 856.7,211.4 853.3,210.5 849.7,209.6 845.8,208.7 841.9,207.7 838.1,206.8 834.6,205.9 831.5,205.0 828.8,204.1 826.5,203.2 824.4,202.3 822.4,201.3 820.6,200.4 818.9,199.5 817.4,198.6 816.2,197.7 815.3,196.8 814.7,195.9 814.4,194.9 814.1,194.0 813.9,193.1 813.6,192.2 813.3,191.3 812.9,190.4 812.6,189.5 812.3,188.5 812.1,187.6 811.9,186.7 811.4,186.7 811.3,187.6 811.0,188.5 810.7,189.5 810.4,190.4 810.1,191.3 809.7,192.2 809.5,193.1 809.2,194.0 808.9,194.9 808.6,195.9 808.0,196.8 807.2,197.7 806.0,198.6 804.5,199.5 802.7,200.4 800.9,201.3 798.9,202.3 796.9,203.2 794.6,204.1 791.9,205.0 788.8,205.9 785.2,206.8 781.4,207.7 777.5,208.7 773.6,209.6 770.0,210.5 766.6,211.4 763.4,212.3 760.5,213.2 758.0,214.1 755.9,215.0 754.6,216.0 754.3,216.9 755.0,217.8 756.9,218.7 759.7,219.6 763.1,220.5 766.8,221.4 770.5,222.4 773.9,223.3 776.9,224.2 779.5,225.1 781.6,226.0 783.3,226.9 784.9,227.8 786.5,228.8 788.3,229.7 790.5,230.6 793.0,231.5 795.8,232.4 798.7,233.3 801.5,234.2 804.1,235.2 806.3,236.1 808.0,237.0 809.2,237.9 810.1,238.8 810.5,239.7 810.8,240.6 810.8,241.6 810.8,242.5 810.7,243.4 810.6,244.3 810.6,245.2 810.7,246.1 810.8,247.0 811.0,247.9 811.1,248.9 811.3,249.8 811.4,250.7 811.5,251.6" fill="#d33" opacity="0.5" stroke="#d33" stroke-width="1"/>
<line x1="754.3" y1="216.8300257406625" x2="869.1" y2="216.8300257406625" stroke="#114" stroke-width="2"/>
<circle cx="811.6666666666666" cy="228.9827451039561" r="2.4" fill="#114"/>
<text x="811.6666666666666" y="187.2486551280884" text-anchor="middle" font-size="11">0.91</text>
<text x="811.6666666666666" y="376" text-anchor="middle" font-size="12">ztrsv</text>
<text x="450.0" y="428" text-anchor="middle" font-size="11" fill="#666">violin = ratio distribution over sizes · line = median · dark dot = worst size · green = every size ≥ gate</text>
</svg>
