<svg xmlns="http://www.w3.org/2000/svg" width="900" height="460" font-family="sans-serif">
<rect width="900" height="460" fill="white"/>
<text x="450.0" y="28" text-anchor="middle" font-size="18" font-weight="bold">LAPACK: PureBLAS / OpenBLAS (AVX-512 native (Zen5), 1 thread, Float64)</text>
<line x1="62" y1="400.0" x2="768" y2="400.0" stroke="#eee"/>
<text x="54" y="404.0" text-anchor="end" font-size="11" fill="#666">0.5×</text>
<line x1="62" y1="328.6421417745384" x2="768" y2="328.6421417745384" stroke="#eee"/>
<text x="54" y="332.6421417745384" text-anchor="end" font-size="11" fill="#666">0.7×</text>
<line x1="62" y1="252.99976385434493" x2="768" y2="252.99976385434493" stroke="#eee"/>
<text x="54" y="256.9997638543449" text-anchor="end" font-size="11" fill="#666">1.0×</text>
<line x1="62" y1="167.0101381119821" x2="768" y2="167.0101381119821" stroke="#eee"/>
<text x="54" y="171.0101381119821" text-anchor="end" font-size="11" fill="#666">1.5×</text>
<line x1="62" y1="105.9995277086899" x2="768" y2="105.9995277086899" stroke="#eee"/>
<text x="54" y="109.9995277086899" text-anchor="end" font-size="11" fill="#666">2.0×</text>
<line x1="62.0" y1="50" x2="62.0" y2="400" stroke="#f4f4f4"/>
<text x="62.0" y="418" text-anchor="middle" font-size="11" fill="#444">8</text>
<line x1="238.5" y1="50" x2="238.5" y2="400" stroke="#f4f4f4"/>
<text x="238.5" y="418" text-anchor="middle" font-size="11" fill="#444">32</text>
<line x1="415.0" y1="50" x2="415.0" y2="400" stroke="#f4f4f4"/>
<text x="415.0" y="418" text-anchor="middle" font-size="11" fill="#444">128</text>
<line x1="503.25" y1="50" x2="503.25" y2="400" stroke="#f4f4f4"/>
<text x="503.25" y="418" text-anchor="middle" font-size="11" fill="#444">256</text>
<line x1="591.5" y1="50" x2="591.5" y2="400" stroke="#f4f4f4"/>
<text x="591.5" y="418" text-anchor="middle" font-size="11" fill="#444">512</text>
<line x1="679.75" y1="50" x2="679.75" y2="400" stroke="#f4f4f4"/>
<text x="679.75" y="418" text-anchor="middle" font-size="11" fill="#444">1024</text>
<line x1="768.0" y1="50" x2="768.0" y2="400" stroke="#f4f4f4"/>
<text x="768.0" y="418" text-anchor="middle" font-size="11" fill="#444">2048</text>
<line x1="62" y1="252.99976385434493" x2="768" y2="252.99976385434493" stroke="#888"/>
<line x1="62" y1="261.6571500527083" x2="768" y2="261.6571500527083" stroke="#d33" stroke-width="1.5" stroke-dasharray="6 4"/>
<text x="66" y="256.6571500527083" font-size="11" fill="#d33">0.96× gate</text>
<polygon points="62.0,172.7 238.5,187.0 415.0,182.5 503.2,168.1 591.5,168.8 679.8,180.5 768.0,209.5 768.0,209.8 679.8,183.5 591.5,169.3 503.2,168.9 415.0,183.9 238.5,189.8 62.0,175.2" fill="#1f77b4" opacity="0.14" stroke="none"/>
<polyline points="62.0,173.2 238.5,188.6 415.0,183.4 503.2,168.4 591.5,169.1 679.8,182.8 768.0,209.6" fill="none" stroke="#1f77b4" stroke-width="2"/>
<circle cx="62.0" cy="173.2" r="3" fill="#1f77b4"/>
<circle cx="238.5" cy="188.6" r="3" fill="#1f77b4"/>
<circle cx="415.0" cy="183.4" r="3" fill="#1f77b4"/>
<circle cx="503.2" cy="168.4" r="3" fill="#1f77b4"/>
<circle cx="591.5" cy="169.1" r="3" fill="#1f77b4"/>
<circle cx="679.8" cy="182.8" r="3" fill="#1f77b4"/>
<circle cx="768.0" cy="209.6" r="3" fill="#1f77b4"/>
<line x1="782" y1="56" x2="802" y2="56" stroke="#1f77b4" stroke-width="3"/>
<text x="806" y="60" font-size="12">potrf</text>
<polygon points="62.0,76.1 238.5,170.3 415.0,189.9 503.2,197.0 591.5,186.2 679.8,215.5 768.0,252.6 768.0,253.8 679.8,216.0 591.5,186.4 503.2,197.2 415.0,190.6 238.5,172.6 62.0,80.4" fill="#d62728" opacity="0.14" stroke="none"/>
<polyline points="62.0,79.6 238.5,172.3 415.0,190.5 503.2,197.1 591.5,186.3 679.8,215.9 768.0,253.3" fill="none" stroke="#d62728" stroke-width="2"/>
<circle cx="62.0" cy="79.6" r="3" fill="#d62728"/>
<circle cx="238.5" cy="172.3" r="3" fill="#d62728"/>
<circle cx="415.0" cy="190.5" r="3" fill="#d62728"/>
<circle cx="503.2" cy="197.1" r="3" fill="#d62728"/>
<circle cx="591.5" cy="186.3" r="3" fill="#d62728"/>
<circle cx="679.8" cy="215.9" r="3" fill="#d62728"/>
<circle cx="768.0" cy="253.3" r="3" fill="#d62728"/>
<line x1="782" y1="74" x2="802" y2="74" stroke="#d62728" stroke-width="3"/>
<text x="806" y="78" font-size="12">geqrf</text>
<polygon points="62.0,122.4 238.5,140.5 415.0,188.4 503.2,211.5 591.5,218.0 679.8,215.9 768.0,227.4 768.0,228.0 679.8,216.0 591.5,218.1 503.2,213.5 415.0,189.6 238.5,142.2 62.0,124.4" fill="#2ca02c" opacity="0.14" stroke="none"/>
<polyline points="62.0,122.8 238.5,140.7 415.0,189.3 503.2,212.0 591.5,218.1 679.8,215.9 768.0,227.7" fill="none" stroke="#2ca02c" stroke-width="2"/>
<circle cx="62.0" cy="122.8" r="3" fill="#2ca02c"/>
<circle cx="238.5" cy="140.7" r="3" fill="#2ca02c"/>
<circle cx="415.0" cy="189.3" r="3" fill="#2ca02c"/>
<circle cx="503.2" cy="212.0" r="3" fill="#2ca02c"/>
<circle cx="591.5" cy="218.1" r="3" fill="#2ca02c"/>
<circle cx="679.8" cy="215.9" r="3" fill="#2ca02c"/>
<circle cx="768.0" cy="227.7" r="3" fill="#2ca02c"/>
<line x1="782" y1="92" x2="802" y2="92" stroke="#2ca02c" stroke-width="3"/>
<text x="806" y="96" font-size="12">getrf</text>
<polygon points="62.0,156.5 238.5,201.0 415.0,252.5 503.2,202.2 591.5,212.2 679.8,223.5 768.0,238.3 768.0,238.3 679.8,224.6 591.5,215.1 503.2,203.0 415.0,252.9 238.5,203.6 62.0,157.7" fill="#9467bd" opacity="0.14" stroke="none"/>
<polyline points="62.0,157.3 238.5,203.2 415.0,252.8 503.2,202.8 591.5,214.8 679.8,224.3 768.0,238.3" fill="none" stroke="#9467bd" stroke-width="2"/>
<circle cx="62.0" cy="157.3" r="3" fill="#9467bd"/>
<circle cx="238.5" cy="203.2" r="3" fill="#9467bd"/>
<circle cx="415.0" cy="252.8" r="3" fill="#9467bd"/>
<circle cx="503.2" cy="202.8" r="3" fill="#9467bd"/>
<circle cx="591.5" cy="214.8" r="3" fill="#9467bd"/>
<circle cx="679.8" cy="224.3" r="3" fill="#9467bd"/>
<circle cx="768.0" cy="238.3" r="3" fill="#9467bd"/>
<line x1="782" y1="110" x2="802" y2="110" stroke="#9467bd" stroke-width="3"/>
<text x="806" y="114" font-size="12">gesvd</text>
<text x="415.0" y="450" text-anchor="middle" font-size="11" fill="#666">matrix size n (log) · y = median ratio (log) · dashed = the 0.96× gate</text>
</svg>
