<svg xmlns="http://www.w3.org/2000/svg" width="900" height="440" font-family="sans-serif">
<rect width="900" height="440" fill="white"/>
<text x="450.0" y="28" text-anchor="middle" font-size="18" font-weight="bold">Complex BLAS-2: PureBLAS / OpenBLAS (AVX2, 1 thread, ComplexF64)</text>
<line x1="60" y1="358.0" x2="880" y2="358.0" stroke="#eee"/>
<text x="52" y="362.0" text-anchor="end" font-size="11" fill="#666">0×</text>
<line x1="60" y1="279.28714046688776" x2="880" y2="279.28714046688776" stroke="#eee"/>
<text x="52" y="283.28714046688776" text-anchor="end" font-size="11" fill="#666">0.5×</text>
<line x1="60" y1="200.57428093377553" x2="880" y2="200.57428093377553" stroke="#eee"/>
<text x="52" y="204.57428093377553" text-anchor="end" font-size="11" fill="#666">1×</text>
<line x1="60" y1="121.86142140066323" x2="880" y2="121.86142140066323" stroke="#eee"/>
<text x="52" y="125.86142140066323" text-anchor="end" font-size="11" fill="#666">1.5×</text>
<line x1="60" y1="200.57428093377553" x2="880" y2="200.57428093377553" stroke="#888" stroke-width="1"/>
<line x1="60" y1="206.8713096964245" x2="880" y2="206.8713096964245" stroke="#d33" stroke-width="1.5" stroke-dasharray="6 4"/>
<text x="880" y="201.8713096964245" text-anchor="end" font-size="11" fill="#d33">0.96× gate</text>
<polygon points="101.8,203.8 102.2,203.3 102.7,202.8 103.4,202.4 104.3,201.9 105.4,201.5 106.7,201.0 108.4,200.5 110.2,200.1 112.3,199.6 114.7,199.2 117.1,198.7 119.7,198.2 122.2,197.8 124.8,197.3 127.2,196.9 129.4,196.4 131.3,195.9 133.0,195.5 134.2,195.0 135.1,194.6 135.4,194.1 135.3,193.6 134.7,193.2 133.5,192.7 131.8,192.3 129.7,191.8 127.3,191.3 124.6,190.9 121.8,190.4 119.0,190.0 116.3,189.5 113.9,189.0 111.9,188.6 110.2,188.1 109.0,187.7 108.2,187.2 107.9,186.7 108.0,186.3 108.5,185.8 109.3,185.4 110.3,184.9 111.5,184.4 112.8,184.0 114.1,183.5 115.4,183.1 116.6,182.6 117.8,182.1 118.7,181.7 119.6,181.2 120.2,180.8 120.7,180.3 121.1,179.8 121.3,179.4 121.4,178.9 121.4,178.5 121.3,178.0 121.0,177.5 120.7,177.1 120.2,176.6 119.5,176.2 118.7,175.7 117.6,175.2 116.4,174.8 115.0,174.3 113.5,173.9 111.9,173.4 110.3,172.9 108.7,172.5 107.3,172.0 106.0,171.6 104.9,171.1 97.1,171.1 96.0,171.6 94.7,172.0 93.3,172.5 91.7,172.9 90.1,173.4 88.5,173.9 87.0,174.3 85.6,174.8 84.4,175.2 83.3,175.7 82.5,176.2 81.8,176.6 81.3,177.1 81.0,177.5 80.7,178.0 80.6,178.5 80.6,178.9 80.7,179.4 80.9,179.8 81.3,180.3 81.8,180.8 82.4,181.2 83.3,181.7 84.2,182.1 85.4,182.6 86.6,183.1 87.9,183.5 89.2,184.0 90.5,184.4 91.7,184.9 92.7,185.4 93.5,185.8 94.0,186.3 94.1,186.7 93.8,187.2 93.0,187.7 91.8,188.1 90.1,188.6 88.1,189.0 85.7,189.5 83.0,190.0 80.2,190.4 77.4,190.9 74.7,191.3 72.3,191.8 70.2,192.3 68.5,192.7 67.3,193.2 66.7,193.6 66.6,194.1 66.9,194.6 67.8,195.0 69.0,195.5 70.7,195.9 72.6,196.4 74.8,196.9 77.2,197.3 79.8,197.8 82.3,198.2 84.9,198.7 87.3,199.2 89.7,199.6 91.8,200.1 93.6,200.5 95.3,201.0 96.6,201.5 97.7,201.9 98.6,202.4 99.3,202.8 99.8,203.3 100.2,203.8" fill="#2a8" opacity="0.5" stroke="#2a8" stroke-width="1"/>
<line x1="73.2" y1="191.63335927517156" x2="128.8" y2="191.63335927517156" stroke="#114" stroke-width="2"/>
<circle cx="101.0" cy="197.13890369256904" r="2.4" fill="#114"/>
<text x="101.0" y="168.5215846213661" text-anchor="middle" font-size="11">1.06</text>
<text x="101.0" y="376" text-anchor="middle" font-size="12">zgemvN</text>
<polygon points="191.8,192.0 194.1,191.4 196.7,190.7 199.5,190.0 202.3,189.4 205.1,188.7 207.8,188.1 210.1,187.4 212.1,186.8 213.7,186.1 214.9,185.5 215.8,184.8 216.3,184.2 216.6,183.5 216.8,182.8 216.9,182.2 217.0,181.5 217.2,180.9 217.3,180.2 217.4,179.6 217.4,178.9 217.2,178.3 216.7,177.6 215.9,176.9 214.8,176.3 213.3,175.6 211.5,175.0 209.5,174.3 207.4,173.7 205.2,173.0 203.0,172.4 201.0,171.7 199.3,171.0 197.8,170.4 196.8,169.7 196.0,169.1 195.7,168.4 195.6,167.8 195.7,167.1 196.0,166.5 196.3,165.8 196.5,165.1 196.5,164.5 196.3,163.8 195.8,163.2 195.2,162.5 194.4,161.9 193.4,161.2 192.5,160.6 191.6,159.9 190.8,159.2 190.3,158.6 190.0,157.9 190.0,157.3 190.3,156.6 190.8,156.0 191.5,155.3 192.3,154.7 193.2,154.0 194.0,153.3 194.7,152.7 195.1,152.0 195.3,151.4 195.2,150.7 194.8,150.1 194.1,149.4 193.2,148.8 192.1,148.1 190.9,147.5 189.7,146.8 188.5,146.1 187.4,145.5 178.6,145.5 177.5,146.1 176.3,146.8 175.1,147.5 173.9,148.1 172.8,148.8 171.9,149.4 171.2,150.1 170.8,150.7 170.7,151.4 170.9,152.0 171.3,152.7 172.0,153.3 172.8,154.0 173.7,154.7 174.5,155.3 175.2,156.0 175.7,156.6 176.0,157.3 176.0,157.9 175.7,158.6 175.2,159.2 174.4,159.9 173.5,160.6 172.6,161.2 171.6,161.9 170.8,162.5 170.2,163.2 169.7,163.8 169.5,164.5 169.5,165.1 169.7,165.8 170.0,166.5 170.3,167.1 170.4,167.8 170.3,168.4 170.0,169.1 169.2,169.7 168.2,170.4 166.7,171.0 165.0,171.7 163.0,172.4 160.8,173.0 158.6,173.7 156.5,174.3 154.5,175.0 152.7,175.6 151.2,176.3 150.1,176.9 149.3,177.6 148.8,178.3 148.6,178.9 148.6,179.6 148.7,180.2 148.8,180.9 149.0,181.5 149.1,182.2 149.2,182.8 149.4,183.5 149.7,184.2 150.2,184.8 151.1,185.5 152.3,186.1 153.9,186.8 155.9,187.4 158.2,188.1 160.9,188.7 163.7,189.4 166.5,190.0 169.3,190.7 171.9,191.4 174.2,192.0" fill="#2a8" opacity="0.5" stroke="#2a8" stroke-width="1"/>
<line x1="148.9" y1="178.0700081224244" x2="217.1" y2="178.0700081224244" stroke="#114" stroke-width="2"/>
<circle cx="183.0" cy="186.83182224831094" r="2.4" fill="#114"/>
<text x="183.0" y="144.24224614120556" text-anchor="middle" font-size="11">1.14</text>
<text x="183.0" y="376" text-anchor="middle" font-size="12">zgemvT</text>
<polygon points="267.8,187.5 269.0,187.0 270.4,186.6 272.2,186.1 274.3,185.7 276.7,185.2 279.4,184.7 282.4,184.3 285.4,183.8 288.4,183.3 291.2,182.9 293.8,182.4 296.0,182.0 297.7,181.5 298.8,181.0 299.4,180.6 299.4,180.1 299.0,179.6 298.1,179.2 296.8,178.7 295.2,178.3 293.5,177.8 291.6,177.3 289.7,176.9 287.7,176.4 285.9,176.0 284.1,175.5 282.6,175.0 281.2,174.6 280.1,174.1 279.2,173.6 278.5,173.2 277.9,172.7 277.4,172.3 276.8,171.8 276.2,171.3 275.5,170.9 274.6,170.4 273.7,169.9 272.6,169.5 271.6,169.0 270.6,168.6 269.7,168.1 269.0,167.6 268.4,167.2 267.9,166.7 267.7,166.2 267.5,165.8 267.5,165.3 267.6,164.9 267.7,164.4 267.9,163.9 268.1,163.5 268.5,163.0 268.9,162.6 269.4,162.1 270.0,161.6 270.6,161.2 271.2,160.7 271.8,160.2 272.3,159.8 272.7,159.3 272.9,158.9 272.8,158.4 272.6,157.9 272.1,157.5 271.4,157.0 270.7,156.5 269.8,156.1 269.0,155.6 268.2,155.2 267.4,154.7 262.6,154.7 261.8,155.2 261.0,155.6 260.2,156.1 259.3,156.5 258.6,157.0 257.9,157.5 257.4,157.9 257.2,158.4 257.1,158.9 257.3,159.3 257.7,159.8 258.2,160.2 258.8,160.7 259.4,161.2 260.0,161.6 260.6,162.1 261.1,162.6 261.5,163.0 261.9,163.5 262.1,163.9 262.3,164.4 262.4,164.9 262.5,165.3 262.5,165.8 262.3,166.2 262.1,166.7 261.6,167.2 261.0,167.6 260.3,168.1 259.4,168.6 258.4,169.0 257.4,169.5 256.3,169.9 255.4,170.4 254.5,170.9 253.8,171.3 253.2,171.8 252.6,172.3 252.1,172.7 251.5,173.2 250.8,173.6 249.9,174.1 248.8,174.6 247.4,175.0 245.9,175.5 244.1,176.0 242.3,176.4 240.3,176.9 238.4,177.3 236.5,177.8 234.8,178.3 233.2,178.7 231.9,179.2 231.0,179.6 230.6,180.1 230.6,180.6 231.2,181.0 232.3,181.5 234.0,182.0 236.2,182.4 238.8,182.9 241.6,183.3 244.6,183.8 247.6,184.3 250.6,184.7 253.3,185.2 255.7,185.7 257.8,186.1 259.6,186.6 261.0,187.0 262.2,187.5" fill="#2a8" opacity="0.5" stroke="#2a8" stroke-width="1"/>
<line x1="233.4" y1="178.67596415580206" x2="296.6" y2="178.67596415580206" stroke="#114" stroke-width="2"/>
<circle cx="265.0" cy="182.70438612418573" r="2.4" fill="#114"/>
<text x="265.0" y="152.12907235335445" text-anchor="middle" font-size="11">1.14</text>
<text x="265.0" y="376" text-anchor="middle" font-size="12">zgemvC</text>
<polygon points="353.0,216.6 355.0,215.3 357.3,213.9 359.9,212.6 362.9,211.3 366.0,210.0 369.3,208.6 372.4,207.3 375.3,206.0 377.8,204.7 379.8,203.4 381.0,202.0 381.4,200.7 381.1,199.4 380.0,198.1 378.2,196.7 375.8,195.4 373.1,194.1 370.1,192.8 367.1,191.4 364.2,190.1 361.5,188.8 359.1,187.5 357.0,186.1 355.4,184.8 354.1,183.5 353.2,182.2 352.7,180.9 352.5,179.5 352.6,178.2 352.8,176.9 353.2,175.6 353.6,174.2 354.0,172.9 354.4,171.6 354.6,170.3 354.6,168.9 354.5,167.6 354.2,166.3 353.7,165.0 353.2,163.6 352.5,162.3 351.8,161.0 351.1,159.7 350.4,158.4 349.8,157.0 349.3,155.7 348.9,154.4 348.6,153.1 348.5,151.7 348.5,150.4 348.6,149.1 348.8,147.8 349.2,146.4 349.7,145.1 350.2,143.8 350.9,142.5 351.5,141.2 352.2,139.8 352.9,138.5 353.4,137.2 353.9,135.9 354.1,134.5 354.2,133.2 354.2,131.9 353.9,130.6 353.5,129.2 352.9,127.9 352.3,126.6 351.6,125.3 350.9,123.9 350.2,122.6 343.8,122.6 343.1,123.9 342.4,125.3 341.7,126.6 341.1,127.9 340.5,129.2 340.1,130.6 339.8,131.9 339.8,133.2 339.9,134.5 340.1,135.9 340.6,137.2 341.1,138.5 341.8,139.8 342.5,141.2 343.1,142.5 343.8,143.8 344.3,145.1 344.8,146.4 345.2,147.8 345.4,149.1 345.5,150.4 345.5,151.7 345.4,153.1 345.1,154.4 344.7,155.7 344.2,157.0 343.6,158.4 342.9,159.7 342.2,161.0 341.5,162.3 340.8,163.6 340.3,165.0 339.8,166.3 339.5,167.6 339.4,168.9 339.4,170.3 339.6,171.6 340.0,172.9 340.4,174.2 340.8,175.6 341.2,176.9 341.4,178.2 341.5,179.5 341.3,180.9 340.8,182.2 339.9,183.5 338.6,184.8 337.0,186.1 334.9,187.5 332.5,188.8 329.8,190.1 326.9,191.4 323.9,192.8 320.9,194.1 318.2,195.4 315.8,196.7 314.0,198.1 312.9,199.4 312.6,200.7 313.0,202.0 314.2,203.4 316.2,204.7 318.7,206.0 321.6,207.3 324.7,208.6 328.0,210.0 331.1,211.3 334.1,212.6 336.7,213.9 339.0,215.3 341.0,216.6" fill="#2a8" opacity="0.5" stroke="#2a8" stroke-width="1"/>
<line x1="312.6" y1="200.27048005897507" x2="381.4" y2="200.27048005897507" stroke="#114" stroke-width="2"/>
<circle cx="347.0" cy="204.01545082054014" r="2.4" fill="#114"/>
<text x="347.0" y="125.96903665828933" text-anchor="middle" font-size="11">1.00</text>
<text x="347.0" y="376" text-anchor="middle" font-size="12">zgeru</text>
<polygon points="443.5,173.5 445.6,171.9 447.7,170.3 449.7,168.8 451.7,167.2 453.4,165.6 454.8,164.0 456.0,162.5 456.8,160.9 457.3,159.3 457.4,157.7 457.2,156.1 456.8,154.6 456.1,153.0 455.3,151.4 454.4,149.8 453.4,148.3 452.3,146.7 451.3,145.1 450.4,143.5 449.4,141.9 448.6,140.4 447.8,138.8 447.2,137.2 446.6,135.6 446.0,134.1 445.6,132.5 445.3,130.9 445.1,129.3 444.9,127.7 444.8,126.2 444.8,124.6 444.8,123.0 444.8,121.4 444.7,119.9 444.6,118.3 444.5,116.7 444.2,115.1 443.9,113.6 443.6,112.0 443.2,110.4 442.9,108.8 442.6,107.2 442.4,105.7 442.4,104.1 442.6,102.5 443.0,100.9 443.7,99.4 444.6,97.8 445.9,96.2 447.4,94.6 449.1,93.0 451.0,91.5 453.1,89.9 455.1,88.3 457.1,86.7 458.9,85.2 460.6,83.6 461.9,82.0 462.9,80.4 463.4,78.9 463.4,77.3 463.0,75.7 462.1,74.1 460.8,72.5 459.0,71.0 457.0,69.4 454.7,67.8 452.2,66.2 449.6,64.7 447.0,63.1 444.5,61.5 413.5,61.5 411.0,63.1 408.4,64.7 405.8,66.2 403.3,67.8 401.0,69.4 399.0,71.0 397.2,72.5 395.9,74.1 395.0,75.7 394.6,77.3 394.6,78.9 395.1,80.4 396.1,82.0 397.4,83.6 399.1,85.2 400.9,86.7 402.9,88.3 404.9,89.9 407.0,91.5 408.9,93.0 410.6,94.6 412.1,96.2 413.4,97.8 414.3,99.4 415.0,100.9 415.4,102.5 415.6,104.1 415.6,105.7 415.4,107.2 415.1,108.8 414.8,110.4 414.4,112.0 414.1,113.6 413.8,115.1 413.5,116.7 413.4,118.3 413.3,119.9 413.2,121.4 413.2,123.0 413.2,124.6 413.2,126.2 413.1,127.7 412.9,129.3 412.7,130.9 412.4,132.5 412.0,134.1 411.4,135.6 410.8,137.2 410.2,138.8 409.4,140.4 408.6,141.9 407.6,143.5 406.7,145.1 405.7,146.7 404.6,148.3 403.6,149.8 402.7,151.4 401.9,153.0 401.2,154.6 400.8,156.1 400.6,157.7 400.7,159.3 401.2,160.9 402.0,162.5 403.2,164.0 404.6,165.6 406.3,167.2 408.3,168.8 410.3,170.3 412.4,171.9 414.5,173.5" fill="#2a8" opacity="0.5" stroke="#2a8" stroke-width="1"/>
<line x1="413.7" y1="115.76378140196535" x2="444.3" y2="115.76378140196535" stroke="#114" stroke-width="2"/>
<circle cx="429.0" cy="162.40052473182553" r="2.4" fill="#114"/>
<text x="429.0" y="66.59096860525183" text-anchor="middle" font-size="11">1.54</text>
<text x="429.0" y="376" text-anchor="middle" font-size="12">zhemv</text>
<polygon points="511.2,266.4 511.3,263.4 511.4,260.3 511.6,257.3 511.7,254.2 511.8,251.2 511.9,248.1 512.0,245.1 512.1,242.0 512.1,239.0 512.1,235.9 512.0,232.9 512.0,229.8 512.1,226.8 512.2,223.8 512.6,220.7 513.1,217.7 514.0,214.6 515.4,211.6 517.2,208.5 519.6,205.5 522.6,202.4 526.2,199.4 530.2,196.3 534.3,193.3 538.3,190.2 541.7,187.2 544.2,184.1 545.4,181.1 545.2,178.0 543.5,175.0 540.5,171.9 536.6,168.9 532.2,165.8 527.8,162.8 523.8,159.7 520.4,156.7 517.9,153.6 516.1,150.6 515.1,147.5 514.7,144.5 514.8,141.4 515.3,138.4 515.8,135.4 516.4,132.3 516.8,129.3 517.0,126.2 516.9,123.2 516.5,120.1 515.9,117.1 515.3,114.0 514.6,111.0 514.0,107.9 513.6,104.9 513.5,101.8 513.5,98.8 513.9,95.7 514.4,92.7 515.1,89.6 515.9,86.6 516.6,83.5 517.2,80.5 517.6,77.4 517.8,74.4 517.6,71.3 517.2,68.3 516.5,65.2 515.7,62.2 514.8,59.1 513.9,56.1 513.1,53.0 512.5,50.0 509.5,50.0 508.9,53.0 508.1,56.1 507.2,59.1 506.3,62.2 505.5,65.2 504.8,68.3 504.4,71.3 504.2,74.4 504.4,77.4 504.8,80.5 505.4,83.5 506.1,86.6 506.9,89.6 507.6,92.7 508.1,95.7 508.5,98.8 508.5,101.8 508.4,104.9 508.0,107.9 507.4,111.0 506.7,114.0 506.1,117.1 505.5,120.1 505.1,123.2 505.0,126.2 505.2,129.3 505.6,132.3 506.2,135.4 506.7,138.4 507.2,141.4 507.3,144.5 506.9,147.5 505.9,150.6 504.1,153.6 501.6,156.7 498.2,159.7 494.2,162.8 489.8,165.8 485.4,168.9 481.5,171.9 478.5,175.0 476.8,178.0 476.6,181.1 477.8,184.1 480.3,187.2 483.7,190.2 487.7,193.3 491.8,196.3 495.8,199.4 499.4,202.4 502.4,205.5 504.8,208.5 506.6,211.6 508.0,214.6 508.9,217.7 509.4,220.7 509.8,223.8 509.9,226.8 510.0,229.8 510.0,232.9 509.9,235.9 509.9,239.0 509.9,242.0 510.0,245.1 510.1,248.1 510.2,251.2 510.3,254.2 510.4,257.3 510.6,260.3 510.7,263.4 510.8,266.4" fill="#2a8" opacity="0.5" stroke="#2a8" stroke-width="1"/>
<line x1="477.1" y1="177.13845509813433" x2="544.9" y2="177.13845509813433" stroke="#114" stroke-width="2"/>
<circle cx="511.0" cy="192.17852204219352" r="2.4" fill="#114"/>
<text x="511.0" y="62.370528739919195" text-anchor="middle" font-size="11">1.15</text>
<text x="511.0" y="376" text-anchor="middle" font-size="12">ztrmv</text>
<polygon points="595.7,207.0 596.6,205.5 597.7,204.1 599.1,202.7 600.7,201.3 602.5,199.8 604.5,198.4 606.7,197.0 609.0,195.6 611.5,194.1 614.1,192.7 616.6,191.3 619.1,189.8 621.4,188.4 623.5,187.0 625.2,185.6 626.5,184.1 627.3,182.7 627.4,181.3 627.0,179.9 625.9,178.4 624.2,177.0 622.0,175.6 619.4,174.1 616.5,172.7 613.5,171.3 610.6,169.9 607.8,168.4 605.3,167.0 603.2,165.6 601.4,164.2 600.1,162.7 599.3,161.3 598.8,159.9 598.8,158.4 599.0,157.0 599.4,155.6 600.0,154.2 600.6,152.7 601.1,151.3 601.6,149.9 601.8,148.5 601.8,147.0 601.6,145.6 601.2,144.2 600.6,142.8 599.8,141.3 599.1,139.9 598.3,138.5 597.7,137.0 597.1,135.6 596.8,134.2 596.6,132.8 596.7,131.3 596.9,129.9 597.4,128.5 597.9,127.1 598.6,125.6 599.3,124.2 600.0,122.8 600.7,121.3 601.1,119.9 601.4,118.5 601.5,117.1 601.3,115.6 601.0,114.2 600.4,112.8 599.7,111.4 598.8,109.9 598.0,108.5 597.1,107.1 596.3,105.6 589.7,105.6 588.9,107.1 588.0,108.5 587.2,109.9 586.3,111.4 585.6,112.8 585.0,114.2 584.7,115.6 584.5,117.1 584.6,118.5 584.9,119.9 585.3,121.3 586.0,122.8 586.7,124.2 587.4,125.6 588.1,127.1 588.6,128.5 589.1,129.9 589.3,131.3 589.4,132.8 589.2,134.2 588.9,135.6 588.3,137.0 587.7,138.5 586.9,139.9 586.2,141.3 585.4,142.8 584.8,144.2 584.4,145.6 584.2,147.0 584.2,148.5 584.4,149.9 584.9,151.3 585.4,152.7 586.0,154.2 586.6,155.6 587.0,157.0 587.2,158.4 587.2,159.9 586.7,161.3 585.9,162.7 584.6,164.2 582.8,165.6 580.7,167.0 578.2,168.4 575.4,169.9 572.5,171.3 569.5,172.7 566.6,174.1 564.0,175.6 561.8,177.0 560.1,178.4 559.0,179.9 558.6,181.3 558.7,182.7 559.5,184.1 560.8,185.6 562.5,187.0 564.6,188.4 566.9,189.8 569.4,191.3 571.9,192.7 574.5,194.1 577.0,195.6 579.3,197.0 581.5,198.4 583.5,199.8 585.3,201.3 586.9,202.7 588.3,204.1 589.4,205.5 590.3,207.0" fill="#2a8" opacity="0.5" stroke="#2a8" stroke-width="1"/>
<line x1="559.7" y1="178.9147313492811" x2="626.3" y2="178.9147313492811" stroke="#114" stroke-width="2"/>
<circle cx="593.0" cy="192.53554021828916" r="2.4" fill="#114"/>
<text x="593.0" y="109.70341378242496" text-anchor="middle" font-size="11">1.14</text>
<text x="593.0" y="376" text-anchor="middle" font-size="12">ztrsv</text>
<polygon points="690.4,163.9 693.4,162.3 696.5,160.8 699.5,159.3 702.4,157.8 705.0,156.3 707.0,154.8 708.5,153.3 709.3,151.8 709.4,150.3 708.8,148.8 707.6,147.3 705.8,145.8 703.6,144.3 701.2,142.8 698.7,141.2 696.3,139.7 694.0,138.2 692.0,136.7 690.3,135.2 688.8,133.7 687.7,132.2 686.9,130.7 686.2,129.2 685.7,127.7 685.3,126.2 684.9,124.7 684.5,123.2 684.1,121.6 683.7,120.1 683.4,118.6 683.1,117.1 682.8,115.6 682.6,114.1 682.6,112.6 682.6,111.1 682.8,109.6 683.0,108.1 683.3,106.6 683.6,105.1 683.8,103.6 684.0,102.0 684.1,100.5 684.0,99.0 683.8,97.5 683.5,96.0 683.1,94.5 682.6,93.0 682.1,91.5 681.7,90.0 681.3,88.5 681.0,87.0 680.9,85.5 680.8,84.0 681.0,82.4 681.3,80.9 681.6,79.4 682.1,77.9 682.5,76.4 682.9,74.9 683.3,73.4 683.5,71.9 683.6,70.4 683.5,68.9 683.3,67.4 682.9,65.9 682.3,64.4 681.7,62.9 680.9,61.3 680.2,59.8 679.4,58.3 678.7,56.8 671.3,56.8 670.6,58.3 669.8,59.8 669.1,61.3 668.3,62.9 667.7,64.4 667.1,65.9 666.7,67.4 666.5,68.9 666.4,70.4 666.5,71.9 666.7,73.4 667.1,74.9 667.5,76.4 667.9,77.9 668.4,79.4 668.7,80.9 669.0,82.4 669.2,84.0 669.1,85.5 669.0,87.0 668.7,88.5 668.3,90.0 667.9,91.5 667.4,93.0 666.9,94.5 666.5,96.0 666.2,97.5 666.0,99.0 665.9,100.5 666.0,102.0 666.2,103.6 666.4,105.1 666.7,106.6 667.0,108.1 667.2,109.6 667.4,111.1 667.4,112.6 667.4,114.1 667.2,115.6 666.9,117.1 666.6,118.6 666.3,120.1 665.9,121.6 665.5,123.2 665.1,124.7 664.7,126.2 664.3,127.7 663.8,129.2 663.1,130.7 662.3,132.2 661.2,133.7 659.7,135.2 658.0,136.7 656.0,138.2 653.7,139.7 651.3,141.2 648.8,142.8 646.4,144.3 644.2,145.8 642.4,147.3 641.2,148.8 640.6,150.3 640.7,151.8 641.5,153.3 643.0,154.8 645.0,156.3 647.6,157.8 650.5,159.3 653.5,160.8 656.6,162.3 659.6,163.9" fill="#2a8" opacity="0.5" stroke="#2a8" stroke-width="1"/>
<line x1="641.1" y1="148.96982931505585" x2="708.9" y2="148.96982931505585" stroke="#114" stroke-width="2"/>
<circle cx="675.0" cy="153.19968595164647" r="2.4" fill="#114"/>
<text x="675.0" y="61.43396226415098" text-anchor="middle" font-size="11">1.33</text>
<text x="675.0" y="376" text-anchor="middle" font-size="12">zhpmv</text>
<polygon points="759.1,147.2 760.2,146.4 761.7,145.5 763.6,144.6 766.0,143.7 768.8,142.8 772.0,142.0 775.4,141.1 778.8,140.2 782.2,139.3 785.1,138.4 787.6,137.6 789.5,136.7 790.8,135.8 791.4,134.9 791.4,134.1 791.0,133.2 790.3,132.3 789.3,131.4 788.2,130.5 787.2,129.7 786.2,128.8 785.3,127.9 784.5,127.0 783.7,126.1 782.9,125.3 782.1,124.4 781.2,123.5 780.3,122.6 779.5,121.7 778.6,120.9 777.8,120.0 777.1,119.1 776.3,118.2 775.5,117.3 774.5,116.5 773.4,115.6 772.1,114.7 770.5,113.8 768.9,113.0 767.2,112.1 765.5,111.2 764.0,110.3 762.6,109.4 761.5,108.6 760.7,107.7 760.2,106.8 759.9,105.9 759.9,105.0 760.0,104.2 760.2,103.3 760.6,102.4 760.9,101.5 761.3,100.6 761.6,99.8 761.9,98.9 762.2,98.0 762.4,97.1 762.6,96.2 762.8,95.4 762.9,94.5 762.8,93.6 762.7,92.7 762.4,91.9 761.9,91.0 761.4,90.1 760.8,89.2 760.1,88.3 759.5,87.5 758.9,86.6 758.4,85.7 757.9,84.8 756.1,84.8 755.6,85.7 755.1,86.6 754.5,87.5 753.9,88.3 753.2,89.2 752.6,90.1 752.1,91.0 751.6,91.9 751.3,92.7 751.2,93.6 751.1,94.5 751.2,95.4 751.4,96.2 751.6,97.1 751.8,98.0 752.1,98.9 752.4,99.8 752.7,100.6 753.1,101.5 753.4,102.4 753.8,103.3 754.0,104.2 754.1,105.0 754.1,105.9 753.8,106.8 753.3,107.7 752.5,108.6 751.4,109.4 750.0,110.3 748.5,111.2 746.8,112.1 745.1,113.0 743.5,113.8 741.9,114.7 740.6,115.6 739.5,116.5 738.5,117.3 737.7,118.2 736.9,119.1 736.2,120.0 735.4,120.9 734.5,121.7 733.7,122.6 732.8,123.5 731.9,124.4 731.1,125.3 730.3,126.1 729.5,127.0 728.7,127.9 727.8,128.8 726.8,129.7 725.8,130.5 724.7,131.4 723.7,132.3 723.0,133.2 722.6,134.1 722.6,134.9 723.2,135.8 724.5,136.7 726.4,137.6 728.9,138.4 731.8,139.3 735.2,140.2 738.6,141.1 742.0,142.0 745.2,142.8 748.0,143.7 750.4,144.6 752.3,145.5 753.8,146.4 754.9,147.2" fill="#2a8" opacity="0.5" stroke="#2a8" stroke-width="1"/>
<line x1="728.7" y1="127.87018391711175" x2="785.3" y2="127.87018391711175" stroke="#114" stroke-width="2"/>
<circle cx="757.0" cy="138.48639713641265" r="2.4" fill="#114"/>
<text x="757.0" y="85.1142502113083" text-anchor="middle" font-size="11">1.46</text>
<text x="757.0" y="376" text-anchor="middle" font-size="12">zgbmvN</text>
<polygon points="839.0,154.1 839.0,153.4 839.0,152.8 839.0,152.1 839.0,151.5 839.1,150.8 839.2,150.2 839.6,149.5 840.9,148.9 844.5,148.2 851.3,147.5 860.2,146.9 868.8,146.2 873.4,145.6 871.5,144.9 865.0,144.3 857.7,143.6 852.7,143.0 851.2,142.3 851.0,141.7 848.5,141.0 844.1,140.4 840.8,139.7 839.4,139.1 839.0,138.4 839.0,137.8 839.0,137.1 839.0,136.5 839.0,135.8 839.0,135.2 839.0,134.5 839.0,133.9 839.0,133.2 839.0,132.6 839.0,131.9 839.0,131.3 839.0,130.6 839.0,130.0 839.0,129.3 839.1,128.7 839.2,128.0 839.2,127.4 839.1,126.7 839.1,126.1 839.0,125.4 839.0,124.8 839.0,124.1 839.0,123.5 839.0,122.8 839.0,122.2 839.0,121.5 839.0,120.9 839.0,120.2 839.0,119.6 839.0,118.9 839.0,118.3 839.0,117.6 839.0,117.0 839.0,116.3 839.0,115.7 839.0,115.0 839.0,114.4 839.1,113.7 839.2,113.1 839.2,112.4 839.1,111.8 839.1,111.1 839.0,110.5 839.0,109.8 839.0,109.2 839.0,108.5 839.0,107.8 839.0,107.8 839.0,108.5 839.0,109.2 839.0,109.8 839.0,110.5 838.9,111.1 838.9,111.8 838.8,112.4 838.8,113.1 838.9,113.7 839.0,114.4 839.0,115.0 839.0,115.7 839.0,116.3 839.0,117.0 839.0,117.6 839.0,118.3 839.0,118.9 839.0,119.6 839.0,120.2 839.0,120.9 839.0,121.5 839.0,122.2 839.0,122.8 839.0,123.5 839.0,124.1 839.0,124.8 839.0,125.4 838.9,126.1 838.9,126.7 838.8,127.4 838.8,128.0 838.9,128.7 839.0,129.3 839.0,130.0 839.0,130.6 839.0,131.3 839.0,131.9 839.0,132.6 839.0,133.2 839.0,133.9 839.0,134.5 839.0,135.2 839.0,135.8 839.0,136.5 839.0,137.1 839.0,137.8 839.0,138.4 838.6,139.1 837.2,139.7 833.9,140.4 829.5,141.0 827.0,141.7 826.8,142.3 825.3,143.0 820.3,143.6 813.0,144.3 806.5,144.9 804.6,145.6 809.2,146.2 817.8,146.9 826.7,147.5 833.5,148.2 837.1,148.9 838.4,149.5 838.8,150.2 838.9,150.8 839.0,151.5 839.0,152.1 839.0,152.8 839.0,153.4 839.0,154.1" fill="#2a8" opacity="0.5" stroke="#2a8" stroke-width="1"/>
<line x1="804.8" y1="145.24258784434227" x2="873.2" y2="145.24258784434227" stroke="#114" stroke-width="2"/>
<circle cx="839.0" cy="146.8421381350753" r="2.4" fill="#114"/>
<text x="839.0" y="106.57476840398179" text-anchor="middle" font-size="11">1.35</text>
<text x="839.0" y="376" text-anchor="middle" font-size="12">zhbmv</text>
<text x="450.0" y="428" text-anchor="middle" font-size="11" fill="#666">violin = ratio distribution over sizes · line = median · dark dot = worst size · green = every size ≥ gate</text>
</svg>
