<svg xmlns="http://www.w3.org/2000/svg" width="900" height="460" font-family="sans-serif">
<rect width="900" height="460" fill="white"/>
<text x="450.0" y="28" text-anchor="middle" font-size="18" font-weight="bold">BLAS-3: PureBLAS / OpenBLAS (AVX2, 1 thread, Float64)</text>
<line x1="62" y1="400.0" x2="768" y2="400.0" stroke="#eee"/>
<text x="54" y="404.0" text-anchor="end" font-size="11" fill="#666">0.5×</text>
<line x1="62" y1="322.11161193744726" x2="768" y2="322.11161193744726" stroke="#eee"/>
<text x="54" y="326.11161193744726" text-anchor="end" font-size="11" fill="#666">0.7×</text>
<line x1="62" y1="239.546593424601" x2="768" y2="239.546593424601" stroke="#eee"/>
<text x="54" y="243.546593424601" text-anchor="end" font-size="11" fill="#666">1.0×</text>
<line x1="62" y1="145.6873674650272" x2="768" y2="145.6873674650272" stroke="#eee"/>
<text x="54" y="149.6873674650272" text-anchor="end" font-size="11" fill="#666">1.5×</text>
<line x1="62" y1="79.09318684920201" x2="768" y2="79.09318684920201" stroke="#eee"/>
<text x="54" y="83.09318684920201" text-anchor="end" font-size="11" fill="#666">2.0×</text>
<line x1="62.0" y1="50" x2="62.0" y2="400" stroke="#f4f4f4"/>
<text x="62.0" y="418" text-anchor="middle" font-size="11" fill="#444">8</text>
<line x1="238.5" y1="50" x2="238.5" y2="400" stroke="#f4f4f4"/>
<text x="238.5" y="418" text-anchor="middle" font-size="11" fill="#444">32</text>
<line x1="415.0" y1="50" x2="415.0" y2="400" stroke="#f4f4f4"/>
<text x="415.0" y="418" text-anchor="middle" font-size="11" fill="#444">128</text>
<line x1="503.25" y1="50" x2="503.25" y2="400" stroke="#f4f4f4"/>
<text x="503.25" y="418" text-anchor="middle" font-size="11" fill="#444">256</text>
<line x1="591.5" y1="50" x2="591.5" y2="400" stroke="#f4f4f4"/>
<text x="591.5" y="418" text-anchor="middle" font-size="11" fill="#444">512</text>
<line x1="679.75" y1="50" x2="679.75" y2="400" stroke="#f4f4f4"/>
<text x="679.75" y="418" text-anchor="middle" font-size="11" fill="#444">1024</text>
<line x1="768.0" y1="50" x2="768.0" y2="400" stroke="#f4f4f4"/>
<text x="768.0" y="418" text-anchor="middle" font-size="11" fill="#444">2048</text>
<line x1="62" y1="239.546593424601" x2="768" y2="239.546593424601" stroke="#888"/>
<line x1="62" y1="248.99628645903837" x2="768" y2="248.99628645903837" stroke="#d33" stroke-width="1.5" stroke-dasharray="6 4"/>
<text x="66" y="243.99628645903837" font-size="11" fill="#d33">0.96× gate</text>
<polyline points="62.0,82.4 238.5,212.9 415.0,214.6 503.2,237.7 591.5,227.7 679.8,232.5 768.0,231.7" fill="none" stroke="#1f77b4" stroke-width="2"/>
<circle cx="62.0" cy="82.4" r="3" fill="#1f77b4"/>
<circle cx="238.5" cy="212.9" r="3" fill="#1f77b4"/>
<circle cx="415.0" cy="214.6" r="3" fill="#1f77b4"/>
<circle cx="503.2" cy="237.7" r="3" fill="#1f77b4"/>
<circle cx="591.5" cy="227.7" r="3" fill="#1f77b4"/>
<circle cx="679.8" cy="232.5" r="3" fill="#1f77b4"/>
<circle cx="768.0" cy="231.7" r="3" fill="#1f77b4"/>
<line x1="782" y1="56" x2="802" y2="56" stroke="#1f77b4" stroke-width="3"/>
<text x="806" y="60" font-size="12">gemm</text>
<polyline points="62.0,194.6 238.5,250.7 415.0,238.9 503.2,244.8 591.5,247.2 679.8,245.7 768.0,246.7" fill="none" stroke="#d62728" stroke-width="2"/>
<circle cx="62.0" cy="194.6" r="3" fill="#d62728"/>
<circle cx="238.5" cy="250.7" r="3" fill="#d62728"/>
<circle cx="415.0" cy="238.9" r="3" fill="#d62728"/>
<circle cx="503.2" cy="244.8" r="3" fill="#d62728"/>
<circle cx="591.5" cy="247.2" r="3" fill="#d62728"/>
<circle cx="679.8" cy="245.7" r="3" fill="#d62728"/>
<circle cx="768.0" cy="246.7" r="3" fill="#d62728"/>
<line x1="782" y1="74" x2="802" y2="74" stroke="#d62728" stroke-width="3"/>
<text x="806" y="78" font-size="12">zgemm</text>
<polyline points="62.0,162.7 238.5,217.0 415.0,242.5 503.2,243.8 591.5,230.2 679.8,227.8 768.0,226.3" fill="none" stroke="#2ca02c" stroke-width="2"/>
<circle cx="62.0" cy="162.7" r="3" fill="#2ca02c"/>
<circle cx="238.5" cy="217.0" r="3" fill="#2ca02c"/>
<circle cx="415.0" cy="242.5" r="3" fill="#2ca02c"/>
<circle cx="503.2" cy="243.8" r="3" fill="#2ca02c"/>
<circle cx="591.5" cy="230.2" r="3" fill="#2ca02c"/>
<circle cx="679.8" cy="227.8" r="3" fill="#2ca02c"/>
<circle cx="768.0" cy="226.3" r="3" fill="#2ca02c"/>
<line x1="782" y1="92" x2="802" y2="92" stroke="#2ca02c" stroke-width="3"/>
<text x="806" y="96" font-size="12">symm</text>
<polyline points="62.0,132.1 238.5,184.4 415.0,234.8 503.2,233.4 591.5,232.2 679.8,235.8 768.0,234.5" fill="none" stroke="#9467bd" stroke-width="2"/>
<circle cx="62.0" cy="132.1" r="3" fill="#9467bd"/>
<circle cx="238.5" cy="184.4" r="3" fill="#9467bd"/>
<circle cx="415.0" cy="234.8" r="3" fill="#9467bd"/>
<circle cx="503.2" cy="233.4" r="3" fill="#9467bd"/>
<circle cx="591.5" cy="232.2" r="3" fill="#9467bd"/>
<circle cx="679.8" cy="235.8" r="3" fill="#9467bd"/>
<circle cx="768.0" cy="234.5" r="3" fill="#9467bd"/>
<line x1="782" y1="110" x2="802" y2="110" stroke="#9467bd" stroke-width="3"/>
<text x="806" y="114" font-size="12">syrk</text>
<polyline points="62.0,116.4 238.5,212.4 415.0,238.9 503.2,251.3 591.5,239.6 679.8,240.7 768.0,237.0" fill="none" stroke="#ff7f0e" stroke-width="2"/>
<circle cx="62.0" cy="116.4" r="3" fill="#ff7f0e"/>
<circle cx="238.5" cy="212.4" r="3" fill="#ff7f0e"/>
<circle cx="415.0" cy="238.9" r="3" fill="#ff7f0e"/>
<circle cx="503.2" cy="251.3" r="3" fill="#ff7f0e"/>
<circle cx="591.5" cy="239.6" r="3" fill="#ff7f0e"/>
<circle cx="679.8" cy="240.7" r="3" fill="#ff7f0e"/>
<circle cx="768.0" cy="237.0" r="3" fill="#ff7f0e"/>
<line x1="782" y1="128" x2="802" y2="128" stroke="#ff7f0e" stroke-width="3"/>
<text x="806" y="132" font-size="12">syr2k</text>
<polyline points="62.0,290.4 238.5,184.4 415.0,194.7 503.2,194.1 591.5,207.6 679.8,222.1 768.0,224.6" fill="none" stroke="#17becf" stroke-width="2"/>
<circle cx="62.0" cy="290.4" r="3" fill="#17becf"/>
<circle cx="238.5" cy="184.4" r="3" fill="#17becf"/>
<circle cx="415.0" cy="194.7" r="3" fill="#17becf"/>
<circle cx="503.2" cy="194.1" r="3" fill="#17becf"/>
<circle cx="591.5" cy="207.6" r="3" fill="#17becf"/>
<circle cx="679.8" cy="222.1" r="3" fill="#17becf"/>
<circle cx="768.0" cy="224.6" r="3" fill="#17becf"/>
<line x1="782" y1="146" x2="802" y2="146" stroke="#17becf" stroke-width="3"/>
<text x="806" y="150" font-size="12">trmm</text>
<polyline points="62.0,233.6 238.5,243.6 415.0,270.8 503.2,280.7 591.5,256.5 679.8,247.3 768.0,236.2" fill="none" stroke="#8c564b" stroke-width="2"/>
<circle cx="62.0" cy="233.6" r="3" fill="#8c564b"/>
<circle cx="238.5" cy="243.6" r="3" fill="#8c564b"/>
<circle cx="415.0" cy="270.8" r="3" fill="#8c564b"/>
<circle cx="503.2" cy="280.7" r="3" fill="#8c564b"/>
<circle cx="591.5" cy="256.5" r="3" fill="#8c564b"/>
<circle cx="679.8" cy="247.3" r="3" fill="#8c564b"/>
<circle cx="768.0" cy="236.2" r="3" fill="#8c564b"/>
<line x1="782" y1="164" x2="802" y2="164" stroke="#8c564b" stroke-width="3"/>
<text x="806" y="168" font-size="12">trsm</text>
<text x="415.0" y="450" text-anchor="middle" font-size="11" fill="#666">matrix size n (log) · y = median ratio (log) · dashed = the 0.96× gate</text>
</svg>
