<svg xmlns="http://www.w3.org/2000/svg" width="900" height="460" font-family="sans-serif">
<rect width="900" height="460" fill="white"/>
<text x="450.0" y="28" text-anchor="middle" font-size="18" font-weight="bold">LAPACK: PureBLAS / OpenBLAS (AVX-512 (Zen4), 1 thread, Float64)</text>
<line x1="62" y1="400.0" x2="768" y2="400.0" stroke="#eee"/>
<text x="54" y="404.0" text-anchor="end" font-size="11" fill="#666">0.5×</text>
<line x1="62" y1="342.0903362693068" x2="768" y2="342.0903362693068" stroke="#eee"/>
<text x="54" y="346.0903362693068" text-anchor="end" font-size="11" fill="#666">0.7×</text>
<line x1="62" y1="280.7036189815196" x2="768" y2="280.7036189815196" stroke="#eee"/>
<text x="54" y="284.7036189815196" text-anchor="end" font-size="11" fill="#666">1.0×</text>
<line x1="62" y1="210.91970961396544" x2="768" y2="210.91970961396544" stroke="#eee"/>
<text x="54" y="214.91970961396544" text-anchor="end" font-size="11" fill="#666">1.5×</text>
<line x1="62" y1="161.4072379630392" x2="768" y2="161.4072379630392" stroke="#eee"/>
<text x="54" y="165.4072379630392" text-anchor="end" font-size="11" fill="#666">2.0×</text>
<line x1="62" y1="91.623328595485" x2="768" y2="91.623328595485" stroke="#eee"/>
<text x="54" y="95.623328595485" text-anchor="end" font-size="11" fill="#666">3.0×</text>
<line x1="62.0" y1="50" x2="62.0" y2="400" stroke="#f4f4f4"/>
<text x="62.0" y="418" text-anchor="middle" font-size="11" fill="#444">8</text>
<line x1="238.5" y1="50" x2="238.5" y2="400" stroke="#f4f4f4"/>
<text x="238.5" y="418" text-anchor="middle" font-size="11" fill="#444">32</text>
<line x1="415.0" y1="50" x2="415.0" y2="400" stroke="#f4f4f4"/>
<text x="415.0" y="418" text-anchor="middle" font-size="11" fill="#444">128</text>
<line x1="503.25" y1="50" x2="503.25" y2="400" stroke="#f4f4f4"/>
<text x="503.25" y="418" text-anchor="middle" font-size="11" fill="#444">256</text>
<line x1="591.5" y1="50" x2="591.5" y2="400" stroke="#f4f4f4"/>
<text x="591.5" y="418" text-anchor="middle" font-size="11" fill="#444">512</text>
<line x1="679.75" y1="50" x2="679.75" y2="400" stroke="#f4f4f4"/>
<text x="679.75" y="418" text-anchor="middle" font-size="11" fill="#444">1024</text>
<line x1="768.0" y1="50" x2="768.0" y2="400" stroke="#f4f4f4"/>
<text x="768.0" y="418" text-anchor="middle" font-size="11" fill="#444">2048</text>
<line x1="62" y1="280.7036189815196" x2="768" y2="280.7036189815196" stroke="#888"/>
<line x1="62" y1="287.729422950438" x2="768" y2="287.729422950438" stroke="#d33" stroke-width="1.5" stroke-dasharray="6 4"/>
<text x="66" y="282.729422950438" font-size="11" fill="#d33">0.96× gate</text>
<polygon points="62.0,196.9 238.5,214.8 415.0,219.6 503.2,213.2 591.5,231.1 679.8,255.2 768.0,254.7 768.0,256.6 679.8,265.7 591.5,239.7 503.2,219.7 415.0,229.2 238.5,220.8 62.0,230.0" fill="#1f77b4" opacity="0.14" stroke="none"/>
<polyline points="62.0,206.3 238.5,218.3 415.0,224.2 503.2,215.5 591.5,235.4 679.8,256.6 768.0,255.0" fill="none" stroke="#1f77b4" stroke-width="2"/>
<circle cx="62.0" cy="206.3" r="3" fill="#1f77b4"/>
<circle cx="238.5" cy="218.3" r="3" fill="#1f77b4"/>
<circle cx="415.0" cy="224.2" r="3" fill="#1f77b4"/>
<circle cx="503.2" cy="215.5" r="3" fill="#1f77b4"/>
<circle cx="591.5" cy="235.4" r="3" fill="#1f77b4"/>
<circle cx="679.8" cy="256.6" r="3" fill="#1f77b4"/>
<circle cx="768.0" cy="255.0" r="3" fill="#1f77b4"/>
<line x1="782" y1="56" x2="802" y2="56" stroke="#1f77b4" stroke-width="3"/>
<text x="806" y="60" font-size="12">potrf</text>
<polygon points="62.0,50.0 238.5,205.9 415.0,189.9 503.2,231.1 591.5,202.4 679.8,229.1 768.0,248.1 768.0,260.1 679.8,232.8 591.5,204.4 503.2,240.8 415.0,215.8 238.5,217.3 62.0,85.2" fill="#d62728" opacity="0.14" stroke="none"/>
<polyline points="62.0,74.1 238.5,206.4 415.0,209.4 503.2,234.8 591.5,203.2 679.8,230.0 768.0,250.6" fill="none" stroke="#d62728" stroke-width="2"/>
<circle cx="62.0" cy="74.1" r="3" fill="#d62728"/>
<circle cx="238.5" cy="206.4" r="3" fill="#d62728"/>
<circle cx="415.0" cy="209.4" r="3" fill="#d62728"/>
<circle cx="503.2" cy="234.8" r="3" fill="#d62728"/>
<circle cx="591.5" cy="203.2" r="3" fill="#d62728"/>
<circle cx="679.8" cy="230.0" r="3" fill="#d62728"/>
<circle cx="768.0" cy="250.6" r="3" fill="#d62728"/>
<line x1="782" y1="74" x2="802" y2="74" stroke="#d62728" stroke-width="3"/>
<text x="806" y="78" font-size="12">geqrf</text>
<polygon points="62.0,171.7 238.5,188.8 415.0,216.1 503.2,262.3 591.5,246.7 679.8,265.0 768.0,272.4 768.0,273.6 679.8,267.3 591.5,262.1 503.2,272.9 415.0,239.2 238.5,200.8 62.0,176.8" fill="#2ca02c" opacity="0.14" stroke="none"/>
<polyline points="62.0,174.7 238.5,197.7 415.0,234.1 503.2,268.1 591.5,260.4 679.8,265.6 768.0,273.1" fill="none" stroke="#2ca02c" stroke-width="2"/>
<circle cx="62.0" cy="174.7" r="3" fill="#2ca02c"/>
<circle cx="238.5" cy="197.7" r="3" fill="#2ca02c"/>
<circle cx="415.0" cy="234.1" r="3" fill="#2ca02c"/>
<circle cx="503.2" cy="268.1" r="3" fill="#2ca02c"/>
<circle cx="591.5" cy="260.4" r="3" fill="#2ca02c"/>
<circle cx="679.8" cy="265.6" r="3" fill="#2ca02c"/>
<circle cx="768.0" cy="273.1" r="3" fill="#2ca02c"/>
<line x1="782" y1="92" x2="802" y2="92" stroke="#2ca02c" stroke-width="3"/>
<text x="806" y="96" font-size="12">getrf</text>
<polygon points="62.0,187.8 238.5,235.0 415.0,273.2 503.2,204.7 591.5,221.4 679.8,231.2 768.0,245.8 768.0,256.0 679.8,240.1 591.5,233.8 503.2,250.7 415.0,277.6 238.5,242.9 62.0,193.0" fill="#9467bd" opacity="0.14" stroke="none"/>
<polyline points="62.0,192.0 238.5,235.6 415.0,273.7 503.2,234.3 591.5,231.6 679.8,235.0 768.0,247.5" fill="none" stroke="#9467bd" stroke-width="2"/>
<circle cx="62.0" cy="192.0" r="3" fill="#9467bd"/>
<circle cx="238.5" cy="235.6" r="3" fill="#9467bd"/>
<circle cx="415.0" cy="273.7" r="3" fill="#9467bd"/>
<circle cx="503.2" cy="234.3" r="3" fill="#9467bd"/>
<circle cx="591.5" cy="231.6" r="3" fill="#9467bd"/>
<circle cx="679.8" cy="235.0" r="3" fill="#9467bd"/>
<circle cx="768.0" cy="247.5" r="3" fill="#9467bd"/>
<line x1="782" y1="110" x2="802" y2="110" stroke="#9467bd" stroke-width="3"/>
<text x="806" y="114" font-size="12">gesvd</text>
<text x="415.0" y="450" text-anchor="middle" font-size="11" fill="#666">matrix size n (log) · y = median ratio (log) · dashed = the 0.96× gate</text>
</svg>
