<svg xmlns="http://www.w3.org/2000/svg" width="900" height="440" font-family="sans-serif">
<rect width="900" height="440" fill="white"/>
<text x="450.0" y="28" text-anchor="middle" font-size="18" font-weight="bold">Complex BLAS-1: PureBLAS / OpenBLAS (AVX-512, 1 thread, ComplexF64)</text>
<line x1="60" y1="358.0" x2="880" y2="358.0" stroke="#eee"/>
<text x="52" y="362.0" text-anchor="end" font-size="11" fill="#666">0×</text>
<line x1="60" y1="347.47805272898665" x2="880" y2="347.47805272898665" stroke="#eee"/>
<text x="52" y="351.47805272898665" text-anchor="end" font-size="11" fill="#666">0.5×</text>
<line x1="60" y1="336.9561054579733" x2="880" y2="336.9561054579733" stroke="#eee"/>
<text x="52" y="340.9561054579733" text-anchor="end" font-size="11" fill="#666">1×</text>
<line x1="60" y1="326.43415818696" x2="880" y2="326.43415818696" stroke="#eee"/>
<text x="52" y="330.43415818696" text-anchor="end" font-size="11" fill="#666">1.5×</text>
<line x1="60" y1="336.9561054579733" x2="880" y2="336.9561054579733" stroke="#888" stroke-width="1"/>
<line x1="60" y1="337.79786123965437" x2="880" y2="337.79786123965437" stroke="#d33" stroke-width="1.5" stroke-dasharray="6 4"/>
<text x="880" y="332.79786123965437" text-anchor="end" font-size="11" fill="#d33">0.96× gate</text>
<polygon points="142.1,341.1 142.1,340.9 142.2,340.7 142.4,340.5 142.6,340.4 142.9,340.2 143.2,340.0 143.6,339.8 144.1,339.7 144.7,339.5 145.4,339.3 146.1,339.1 146.7,339.0 147.3,338.8 148.0,338.6 149.1,338.5 151.1,338.3 154.5,338.1 159.7,337.9 166.8,337.8 175.6,337.6 185.4,337.4 194.9,337.2 203.0,337.1 208.5,336.9 210.9,336.7 209.9,336.5 206.0,336.4 200.1,336.2 193.0,336.0 185.6,335.8 178.3,335.7 171.5,335.5 165.3,335.3 159.7,335.1 155.0,335.0 151.3,334.8 148.7,334.6 147.2,334.4 146.3,334.3 145.9,334.1 145.7,333.9 145.4,333.7 145.0,333.6 144.6,333.4 144.1,333.2 143.7,333.1 143.3,332.9 142.9,332.7 142.7,332.5 142.4,332.4 142.3,332.2 142.2,332.0 142.2,331.8 142.3,331.7 142.5,331.5 142.8,331.3 143.0,331.1 143.3,331.0 143.6,330.8 143.8,330.6 144.0,330.4 144.0,330.3 143.9,330.1 143.7,329.9 143.4,329.7 143.1,329.6 142.7,329.4 142.5,329.2 142.3,329.0 142.1,328.9 142.1,328.7 141.9,328.7 141.9,328.9 141.7,329.0 141.5,329.2 141.3,329.4 140.9,329.6 140.6,329.7 140.3,329.9 140.1,330.1 140.0,330.3 140.0,330.4 140.2,330.6 140.4,330.8 140.7,331.0 141.0,331.1 141.2,331.3 141.5,331.5 141.7,331.7 141.8,331.8 141.8,332.0 141.7,332.2 141.6,332.4 141.3,332.5 141.1,332.7 140.7,332.9 140.3,333.1 139.9,333.2 139.4,333.4 139.0,333.6 138.6,333.7 138.3,333.9 138.1,334.1 137.7,334.3 136.8,334.4 135.3,334.6 132.7,334.8 129.0,335.0 124.3,335.1 118.7,335.3 112.5,335.5 105.7,335.7 98.4,335.8 91.0,336.0 83.9,336.2 78.0,336.4 74.1,336.5 73.1,336.7 75.5,336.9 81.0,337.1 89.1,337.2 98.6,337.4 108.4,337.6 117.2,337.8 124.3,337.9 129.5,338.1 132.9,338.3 134.9,338.5 136.0,338.6 136.7,338.8 137.3,339.0 137.9,339.1 138.6,339.3 139.3,339.5 139.9,339.7 140.4,339.8 140.8,340.0 141.1,340.2 141.4,340.4 141.6,340.5 141.8,340.7 141.9,340.9 141.9,341.1" fill="#2a8" opacity="0.5" stroke="#2a8" stroke-width="1"/>
<line x1="73.6" y1="336.57700501603176" x2="210.4" y2="336.57700501603176" stroke="#114" stroke-width="2"/>
<circle cx="142.0" cy="336.9686561373933" r="2.4" fill="#114"/>
<text x="142.0" y="323.92876760004634" text-anchor="middle" font-size="11">1.02</text>
<text x="142.0" y="376" text-anchor="middle" font-size="12">zaxpy</text>
<polygon points="306.1,342.9 306.2,342.6 306.4,342.4 306.6,342.2 306.9,341.9 307.2,341.7 307.4,341.5 307.5,341.2 307.5,341.0 307.4,340.7 307.4,340.5 307.4,340.3 307.5,340.0 307.7,339.8 308.1,339.6 308.7,339.3 309.7,339.1 311.2,338.9 313.5,338.6 316.6,338.4 320.5,338.1 325.0,337.9 330.1,337.7 335.4,337.4 341.0,337.2 346.7,337.0 352.7,336.7 358.6,336.5 364.2,336.2 368.9,336.0 372.4,335.8 374.3,335.5 374.9,335.3 374.5,335.1 373.6,334.8 372.6,334.6 371.8,334.3 371.0,334.1 370.0,333.9 368.7,333.6 367.0,333.4 364.9,333.2 362.4,332.9 359.2,332.7 355.0,332.5 349.8,332.2 343.6,332.0 336.7,331.7 329.8,331.5 323.4,331.3 318.1,331.0 314.1,330.8 311.3,330.6 309.6,330.3 308.6,330.1 308.0,329.8 307.7,329.6 307.5,329.4 307.3,329.1 307.2,328.9 307.2,328.7 307.2,328.4 307.3,328.2 307.4,328.0 307.4,327.7 307.4,327.5 307.2,327.2 306.9,327.0 306.6,326.8 306.4,326.5 306.2,326.3 306.1,326.1 305.9,326.1 305.8,326.3 305.6,326.5 305.4,326.8 305.1,327.0 304.8,327.2 304.6,327.5 304.6,327.7 304.6,328.0 304.7,328.2 304.8,328.4 304.8,328.7 304.8,328.9 304.7,329.1 304.5,329.4 304.3,329.6 304.0,329.8 303.4,330.1 302.4,330.3 300.7,330.6 297.9,330.8 293.9,331.0 288.6,331.3 282.2,331.5 275.3,331.7 268.4,332.0 262.2,332.2 257.0,332.5 252.8,332.7 249.6,332.9 247.1,333.2 245.0,333.4 243.3,333.6 242.0,333.9 241.0,334.1 240.2,334.3 239.4,334.6 238.4,334.8 237.5,335.1 237.1,335.3 237.7,335.5 239.6,335.8 243.1,336.0 247.8,336.2 253.4,336.5 259.3,336.7 265.3,337.0 271.0,337.2 276.6,337.4 281.9,337.7 287.0,337.9 291.5,338.1 295.4,338.4 298.5,338.6 300.8,338.9 302.3,339.1 303.3,339.3 303.9,339.6 304.3,339.8 304.5,340.0 304.6,340.3 304.6,340.5 304.6,340.7 304.5,341.0 304.5,341.2 304.6,341.5 304.8,341.7 305.1,341.9 305.4,342.2 305.6,342.4 305.8,342.6 305.9,342.9" fill="#2a8" opacity="0.5" stroke="#2a8" stroke-width="1"/>
<line x1="239.4" y1="334.57755378708356" x2="372.6" y2="334.57755378708356" stroke="#114" stroke-width="2"/>
<circle cx="306.0" cy="336.40224028723856" r="2.4" fill="#114"/>
<text x="306.0" y="321.71880413520313" text-anchor="middle" font-size="11">1.11</text>
<text x="306.0" y="376" text-anchor="middle" font-size="12">zdotc</text>
<polygon points="470.0,342.2 470.1,342.0 470.1,341.8 470.3,341.5 470.5,341.3 470.7,341.0 470.9,340.8 471.1,340.5 471.1,340.3 471.1,340.1 471.1,339.8 471.2,339.6 471.5,339.3 471.9,339.1 472.4,338.8 473.3,338.6 474.7,338.4 477.1,338.1 480.7,337.9 486.0,337.6 493.3,337.4 502.5,337.1 513.3,336.9 524.4,336.7 533.7,336.4 538.9,336.2 538.5,335.9 533.3,335.7 525.6,335.4 518.3,335.2 513.1,335.0 510.0,334.7 507.8,334.5 505.1,334.2 501.1,334.0 495.9,333.7 490.2,333.5 485.0,333.3 480.6,333.0 477.3,332.8 474.9,332.5 473.4,332.3 472.5,332.1 472.1,331.8 472.0,331.6 471.9,331.3 471.7,331.1 471.4,330.8 471.0,330.6 470.6,330.4 470.4,330.1 470.2,329.9 470.1,329.6 470.0,329.4 470.0,329.1 470.0,328.9 470.0,328.7 470.0,328.4 470.1,328.2 470.1,327.9 470.3,327.7 470.5,327.4 470.7,327.2 470.9,327.0 471.0,326.7 470.9,326.5 470.7,326.2 470.5,326.0 470.3,325.7 470.1,325.5 470.1,325.3 470.0,325.0 470.0,325.0 469.9,325.3 469.9,325.5 469.7,325.7 469.5,326.0 469.3,326.2 469.1,326.5 469.0,326.7 469.1,327.0 469.3,327.2 469.5,327.4 469.7,327.7 469.9,327.9 469.9,328.2 470.0,328.4 470.0,328.7 470.0,328.9 470.0,329.1 470.0,329.4 469.9,329.6 469.8,329.9 469.6,330.1 469.4,330.4 469.0,330.6 468.6,330.8 468.3,331.1 468.1,331.3 468.0,331.6 467.9,331.8 467.5,332.1 466.6,332.3 465.1,332.5 462.7,332.8 459.4,333.0 455.0,333.3 449.8,333.5 444.1,333.7 438.9,334.0 434.9,334.2 432.2,334.5 430.0,334.7 426.9,335.0 421.7,335.2 414.4,335.4 406.7,335.7 401.5,335.9 401.1,336.2 406.3,336.4 415.6,336.7 426.7,336.9 437.5,337.1 446.7,337.4 454.0,337.6 459.3,337.9 462.9,338.1 465.3,338.4 466.7,338.6 467.6,338.8 468.1,339.1 468.5,339.3 468.8,339.6 468.9,339.8 468.9,340.1 468.9,340.3 468.9,340.5 469.1,340.8 469.3,341.0 469.5,341.3 469.7,341.5 469.9,341.8 469.9,342.0 470.0,342.2" fill="#2a8" opacity="0.5" stroke="#2a8" stroke-width="1"/>
<line x1="402.6" y1="335.8631352015659" x2="537.4" y2="335.8631352015659" stroke="#114" stroke-width="2"/>
<circle cx="470.0" cy="336.40926205099936" r="2.4" fill="#114"/>
<text x="470.0" y="320.7105931734267" text-anchor="middle" font-size="11">1.05</text>
<text x="470.0" y="376" text-anchor="middle" font-size="12">zscal</text>
<polygon points="638.1,328.4 640.5,324.5 643.9,320.5 648.3,316.6 653.8,312.7 660.4,308.8 667.7,304.9 675.3,300.9 682.7,297.0 689.4,293.1 694.9,289.2 699.0,285.3 701.6,281.3 702.8,277.4 702.9,273.5 702.3,269.6 701.4,265.7 700.3,261.7 699.2,257.8 697.9,253.9 696.4,250.0 694.6,246.0 692.3,242.1 689.7,238.2 686.8,234.3 683.6,230.4 680.3,226.4 677.0,222.5 673.6,218.6 670.2,214.7 666.9,210.8 663.7,206.8 660.6,202.9 657.7,199.0 655.0,195.1 652.6,191.2 650.4,187.2 648.4,183.3 646.6,179.4 645.0,175.5 643.5,171.5 642.1,167.6 640.8,163.7 639.7,159.8 638.8,155.9 638.0,151.9 637.5,148.0 637.1,144.1 637.0,140.2 636.9,136.3 636.9,132.3 637.0,128.4 637.1,124.5 637.2,120.6 637.3,116.7 637.3,112.7 637.4,108.8 637.4,104.9 637.4,101.0 637.4,97.1 637.4,93.1 637.4,89.2 637.4,85.3 637.4,81.4 637.3,77.4 637.1,73.5 636.9,69.6 636.6,65.7 636.3,61.8 635.9,57.8 635.6,53.9 635.2,50.0 632.8,50.0 632.4,53.9 632.1,57.8 631.7,61.8 631.4,65.7 631.1,69.6 630.9,73.5 630.7,77.4 630.6,81.4 630.6,85.3 630.6,89.2 630.6,93.1 630.6,97.1 630.6,101.0 630.6,104.9 630.6,108.8 630.7,112.7 630.7,116.7 630.8,120.6 630.9,124.5 631.0,128.4 631.1,132.3 631.1,136.3 631.0,140.2 630.9,144.1 630.5,148.0 630.0,151.9 629.2,155.9 628.3,159.8 627.2,163.7 625.9,167.6 624.5,171.5 623.0,175.5 621.4,179.4 619.6,183.3 617.6,187.2 615.4,191.2 613.0,195.1 610.3,199.0 607.4,202.9 604.3,206.8 601.1,210.8 597.8,214.7 594.4,218.6 591.0,222.5 587.7,226.4 584.4,230.4 581.2,234.3 578.3,238.2 575.7,242.1 573.4,246.0 571.6,250.0 570.1,253.9 568.8,257.8 567.7,261.7 566.6,265.7 565.7,269.6 565.1,273.5 565.2,277.4 566.4,281.3 569.0,285.3 573.1,289.2 578.6,293.1 585.3,297.0 592.7,300.9 600.3,304.9 607.6,308.8 614.2,312.7 619.7,316.6 624.1,320.5 627.5,324.5 629.9,328.4" fill="#2a8" opacity="0.5" stroke="#2a8" stroke-width="1"/>
<line x1="570.4" y1="253.13287804810315" x2="697.6" y2="253.13287804810315" stroke="#114" stroke-width="2"/>
<circle cx="634.0" cy="289.7798699490412" r="2.4" fill="#114"/>
<text x="634.0" y="61.43396226415098" text-anchor="middle" font-size="11">4.98</text>
<text x="634.0" y="376" text-anchor="middle" font-size="12">dznrm2</text>
<polygon points="798.1,346.2 798.2,345.9 798.3,345.7 798.5,345.5 798.7,345.3 798.9,345.0 799.0,344.8 799.0,344.6 799.0,344.3 798.9,344.1 798.7,343.9 798.5,343.6 798.3,343.4 798.2,343.2 798.2,342.9 798.3,342.7 798.4,342.5 798.7,342.2 799.0,342.0 799.6,341.8 800.4,341.5 801.4,341.3 802.9,341.1 804.8,340.9 807.1,340.6 809.7,340.4 812.4,340.2 814.9,339.9 817.1,339.7 818.8,339.5 820.2,339.2 821.5,339.0 823.4,338.8 826.5,338.5 831.3,338.3 837.9,338.1 845.8,337.8 854.1,337.6 861.2,337.4 865.8,337.1 866.9,336.9 864.5,336.7 859.5,336.5 853.1,336.2 846.7,336.0 841.0,335.8 836.5,335.5 833.0,335.3 830.1,335.1 827.5,334.8 824.9,334.6 822.2,334.4 819.4,334.1 816.5,333.9 813.6,333.7 810.8,333.4 808.1,333.2 805.7,333.0 803.8,332.7 802.4,332.5 801.4,332.3 800.8,332.1 800.5,331.8 800.2,331.6 799.9,331.4 799.6,331.1 799.2,330.9 798.9,330.7 798.6,330.4 798.4,330.2 798.2,330.0 798.1,329.7 797.9,329.7 797.8,330.0 797.6,330.2 797.4,330.4 797.1,330.7 796.8,330.9 796.4,331.1 796.1,331.4 795.8,331.6 795.5,331.8 795.2,332.1 794.6,332.3 793.6,332.5 792.2,332.7 790.3,333.0 787.9,333.2 785.2,333.4 782.4,333.7 779.5,333.9 776.6,334.1 773.8,334.4 771.1,334.6 768.5,334.8 765.9,335.1 763.0,335.3 759.5,335.5 755.0,335.8 749.3,336.0 742.9,336.2 736.5,336.5 731.5,336.7 729.1,336.9 730.2,337.1 734.8,337.4 741.9,337.6 750.2,337.8 758.1,338.1 764.7,338.3 769.5,338.5 772.6,338.8 774.5,339.0 775.8,339.2 777.2,339.5 778.9,339.7 781.1,339.9 783.6,340.2 786.3,340.4 788.9,340.6 791.2,340.9 793.1,341.1 794.6,341.3 795.6,341.5 796.4,341.8 797.0,342.0 797.3,342.2 797.6,342.5 797.7,342.7 797.8,342.9 797.8,343.2 797.7,343.4 797.5,343.6 797.3,343.9 797.1,344.1 797.0,344.3 797.0,344.6 797.0,344.8 797.1,345.0 797.3,345.3 797.5,345.5 797.7,345.7 797.8,345.9 797.9,346.2" fill="#d33" opacity="0.5" stroke="#d33" stroke-width="1"/>
<line x1="729.1" y1="336.9367101095483" x2="866.9" y2="336.9367101095483" stroke="#114" stroke-width="2"/>
<circle cx="798.0" cy="339.0105566071801" r="2.4" fill="#114"/>
<text x="798.0" y="325.36349930250054" text-anchor="middle" font-size="11">1.00</text>
<text x="798.0" y="376" text-anchor="middle" font-size="12">dzasum</text>
<text x="450.0" y="428" text-anchor="middle" font-size="11" fill="#666">violin = ratio distribution over sizes · line = median · dark dot = worst size · green = every size ≥ gate</text>
</svg>
