<svg xmlns="http://www.w3.org/2000/svg" width="900" height="460" font-family="sans-serif">
<rect width="900" height="460" fill="white"/>
<text x="450.0" y="28" text-anchor="middle" font-size="18" font-weight="bold">Complex BLAS-3: PureBLAS / OpenBLAS (AVX-512 native (Zen5), 1 thread, ComplexF64)</text>
<line x1="62" y1="400.0" x2="768" y2="400.0" stroke="#eee"/>
<text x="54" y="404.0" text-anchor="end" font-size="11" fill="#666">0.5×</text>
<line x1="62" y1="331.7382116127829" x2="768" y2="331.7382116127829" stroke="#eee"/>
<text x="54" y="335.7382116127829" text-anchor="end" font-size="11" fill="#666">0.7×</text>
<line x1="62" y1="259.3777999762725" x2="768" y2="259.3777999762725" stroke="#eee"/>
<text x="54" y="263.3777999762725" text-anchor="end" font-size="11" fill="#666">1.0×</text>
<line x1="62" y1="177.11908619348225" x2="768" y2="177.11908619348225" stroke="#eee"/>
<text x="54" y="181.11908619348225" text-anchor="end" font-size="11" fill="#666">1.5×</text>
<line x1="62" y1="118.75559995254501" x2="768" y2="118.75559995254501" stroke="#eee"/>
<text x="54" y="122.75559995254501" text-anchor="end" font-size="11" fill="#666">2.0×</text>
<line x1="62.0" y1="50" x2="62.0" y2="400" stroke="#f4f4f4"/>
<text x="62.0" y="418" text-anchor="middle" font-size="11" fill="#444">8</text>
<line x1="238.5" y1="50" x2="238.5" y2="400" stroke="#f4f4f4"/>
<text x="238.5" y="418" text-anchor="middle" font-size="11" fill="#444">32</text>
<line x1="415.0" y1="50" x2="415.0" y2="400" stroke="#f4f4f4"/>
<text x="415.0" y="418" text-anchor="middle" font-size="11" fill="#444">128</text>
<line x1="503.25" y1="50" x2="503.25" y2="400" stroke="#f4f4f4"/>
<text x="503.25" y="418" text-anchor="middle" font-size="11" fill="#444">256</text>
<line x1="591.5" y1="50" x2="591.5" y2="400" stroke="#f4f4f4"/>
<text x="591.5" y="418" text-anchor="middle" font-size="11" fill="#444">512</text>
<line x1="679.75" y1="50" x2="679.75" y2="400" stroke="#f4f4f4"/>
<text x="679.75" y="418" text-anchor="middle" font-size="11" fill="#444">1024</text>
<line x1="768.0" y1="50" x2="768.0" y2="400" stroke="#f4f4f4"/>
<text x="768.0" y="418" text-anchor="middle" font-size="11" fill="#444">2048</text>
<line x1="62" y1="259.3777999762725" x2="768" y2="259.3777999762725" stroke="#888"/>
<line x1="62" y1="267.6595600984987" x2="768" y2="267.6595600984987" stroke="#d33" stroke-width="1.5" stroke-dasharray="6 4"/>
<text x="66" y="262.6595600984987" font-size="11" fill="#d33">0.96× gate</text>
<polygon points="62.0,70.2 238.5,166.3 415.0,210.1 503.2,213.9 591.5,221.3 679.8,223.3 768.0,225.2 768.0,225.3 679.8,223.3 591.5,221.7 503.2,213.9 415.0,210.5 238.5,170.7 62.0,89.8" fill="#1f77b4" opacity="0.14" stroke="none"/>
<polyline points="62.0,78.4 238.5,167.3 415.0,210.3 503.2,213.9 591.5,221.5 679.8,223.3 768.0,225.3" fill="none" stroke="#1f77b4" stroke-width="2"/>
<circle cx="62.0" cy="78.4" r="3" fill="#1f77b4"/>
<circle cx="238.5" cy="167.3" r="3" fill="#1f77b4"/>
<circle cx="415.0" cy="210.3" r="3" fill="#1f77b4"/>
<circle cx="503.2" cy="213.9" r="3" fill="#1f77b4"/>
<circle cx="591.5" cy="221.5" r="3" fill="#1f77b4"/>
<circle cx="679.8" cy="223.3" r="3" fill="#1f77b4"/>
<circle cx="768.0" cy="225.3" r="3" fill="#1f77b4"/>
<line x1="782" y1="56" x2="802" y2="56" stroke="#1f77b4" stroke-width="3"/>
<text x="806" y="60" font-size="12">zgemm</text>
<polygon points="62.0,186.0 238.5,201.6 415.0,224.1 503.2,216.3 591.5,222.4 679.8,222.8 768.0,225.1 768.0,225.2 679.8,223.3 591.5,222.6 503.2,216.4 415.0,224.4 238.5,206.3 62.0,188.9" fill="#d62728" opacity="0.14" stroke="none"/>
<polyline points="62.0,186.7 238.5,203.9 415.0,224.2 503.2,216.3 591.5,222.5 679.8,223.1 768.0,225.1" fill="none" stroke="#d62728" stroke-width="2"/>
<circle cx="62.0" cy="186.7" r="3" fill="#d62728"/>
<circle cx="238.5" cy="203.9" r="3" fill="#d62728"/>
<circle cx="415.0" cy="224.2" r="3" fill="#d62728"/>
<circle cx="503.2" cy="216.3" r="3" fill="#d62728"/>
<circle cx="591.5" cy="222.5" r="3" fill="#d62728"/>
<circle cx="679.8" cy="223.1" r="3" fill="#d62728"/>
<circle cx="768.0" cy="225.1" r="3" fill="#d62728"/>
<line x1="782" y1="74" x2="802" y2="74" stroke="#d62728" stroke-width="3"/>
<text x="806" y="78" font-size="12">zhemm</text>
<polygon points="62.0,171.0 238.5,204.7 415.0,221.3 503.2,221.3 591.5,229.5 679.8,225.8 768.0,226.4 768.0,226.5 679.8,226.3 591.5,229.9 503.2,221.5 415.0,221.7 238.5,207.5 62.0,174.0" fill="#2ca02c" opacity="0.14" stroke="none"/>
<polyline points="62.0,172.8 238.5,206.2 415.0,221.5 503.2,221.4 591.5,229.8 679.8,226.2 768.0,226.4" fill="none" stroke="#2ca02c" stroke-width="2"/>
<circle cx="62.0" cy="172.8" r="3" fill="#2ca02c"/>
<circle cx="238.5" cy="206.2" r="3" fill="#2ca02c"/>
<circle cx="415.0" cy="221.5" r="3" fill="#2ca02c"/>
<circle cx="503.2" cy="221.4" r="3" fill="#2ca02c"/>
<circle cx="591.5" cy="229.8" r="3" fill="#2ca02c"/>
<circle cx="679.8" cy="226.2" r="3" fill="#2ca02c"/>
<circle cx="768.0" cy="226.4" r="3" fill="#2ca02c"/>
<line x1="782" y1="92" x2="802" y2="92" stroke="#2ca02c" stroke-width="3"/>
<text x="806" y="96" font-size="12">zsymm</text>
<polygon points="62.0,96.1 238.5,227.0 415.0,233.9 503.2,218.6 591.5,220.0 679.8,221.9 768.0,224.3 768.0,224.9 679.8,222.6 591.5,221.7 503.2,219.4 415.0,237.5 238.5,236.1 62.0,102.0" fill="#9467bd" opacity="0.14" stroke="none"/>
<polyline points="62.0,99.4 238.5,229.1 415.0,235.8 503.2,218.9 591.5,221.2 679.8,222.5 768.0,224.6" fill="none" stroke="#9467bd" stroke-width="2"/>
<circle cx="62.0" cy="99.4" r="3" fill="#9467bd"/>
<circle cx="238.5" cy="229.1" r="3" fill="#9467bd"/>
<circle cx="415.0" cy="235.8" r="3" fill="#9467bd"/>
<circle cx="503.2" cy="218.9" r="3" fill="#9467bd"/>
<circle cx="591.5" cy="221.2" r="3" fill="#9467bd"/>
<circle cx="679.8" cy="222.5" r="3" fill="#9467bd"/>
<circle cx="768.0" cy="224.6" r="3" fill="#9467bd"/>
<line x1="782" y1="110" x2="802" y2="110" stroke="#9467bd" stroke-width="3"/>
<text x="806" y="114" font-size="12">zsyrk</text>
<polygon points="62.0,108.8 238.5,227.1 415.0,235.0 503.2,219.1 591.5,217.5 679.8,221.3 768.0,223.6 768.0,224.3 679.8,222.0 591.5,222.0 503.2,219.2 415.0,236.8 238.5,230.6 62.0,116.9" fill="#ff7f0e" opacity="0.14" stroke="none"/>
<polyline points="62.0,110.9 238.5,228.8 415.0,236.5 503.2,219.1 591.5,220.6 679.8,221.9 768.0,223.9" fill="none" stroke="#ff7f0e" stroke-width="2"/>
<circle cx="62.0" cy="110.9" r="3" fill="#ff7f0e"/>
<circle cx="238.5" cy="228.8" r="3" fill="#ff7f0e"/>
<circle cx="415.0" cy="236.5" r="3" fill="#ff7f0e"/>
<circle cx="503.2" cy="219.1" r="3" fill="#ff7f0e"/>
<circle cx="591.5" cy="220.6" r="3" fill="#ff7f0e"/>
<circle cx="679.8" cy="221.9" r="3" fill="#ff7f0e"/>
<circle cx="768.0" cy="223.9" r="3" fill="#ff7f0e"/>
<line x1="782" y1="128" x2="802" y2="128" stroke="#ff7f0e" stroke-width="3"/>
<text x="806" y="132" font-size="12">zherk</text>
<polygon points="62.0,158.7 238.5,250.2 415.0,235.5 503.2,219.4 591.5,219.5 679.8,221.9 768.0,224.3 768.0,224.3 679.8,222.0 591.5,219.8 503.2,219.6 415.0,236.6 238.5,251.7 62.0,159.9" fill="#17becf" opacity="0.14" stroke="none"/>
<polyline points="62.0,159.3 238.5,251.1 415.0,236.0 503.2,219.5 591.5,219.7 679.8,222.0 768.0,224.3" fill="none" stroke="#17becf" stroke-width="2"/>
<circle cx="62.0" cy="159.3" r="3" fill="#17becf"/>
<circle cx="238.5" cy="251.1" r="3" fill="#17becf"/>
<circle cx="415.0" cy="236.0" r="3" fill="#17becf"/>
<circle cx="503.2" cy="219.5" r="3" fill="#17becf"/>
<circle cx="591.5" cy="219.7" r="3" fill="#17becf"/>
<circle cx="679.8" cy="222.0" r="3" fill="#17becf"/>
<circle cx="768.0" cy="224.3" r="3" fill="#17becf"/>
<line x1="782" y1="146" x2="802" y2="146" stroke="#17becf" stroke-width="3"/>
<text x="806" y="150" font-size="12">zher2k</text>
<polygon points="62.0,156.6 238.5,244.1 415.0,236.0 503.2,218.7 591.5,219.1 679.8,222.0 768.0,224.9 768.0,224.9 679.8,222.4 591.5,220.6 503.2,219.3 415.0,237.5 238.5,249.8 62.0,159.8" fill="#8c564b" opacity="0.14" stroke="none"/>
<polyline points="62.0,158.3 238.5,248.6 415.0,236.5 503.2,219.1 591.5,219.7 679.8,222.3 768.0,224.9" fill="none" stroke="#8c564b" stroke-width="2"/>
<circle cx="62.0" cy="158.3" r="3" fill="#8c564b"/>
<circle cx="238.5" cy="248.6" r="3" fill="#8c564b"/>
<circle cx="415.0" cy="236.5" r="3" fill="#8c564b"/>
<circle cx="503.2" cy="219.1" r="3" fill="#8c564b"/>
<circle cx="591.5" cy="219.7" r="3" fill="#8c564b"/>
<circle cx="679.8" cy="222.3" r="3" fill="#8c564b"/>
<circle cx="768.0" cy="224.9" r="3" fill="#8c564b"/>
<line x1="782" y1="164" x2="802" y2="164" stroke="#8c564b" stroke-width="3"/>
<text x="806" y="168" font-size="12">zsyr2k</text>
<polygon points="62.0,211.1 238.5,259.6 415.0,248.9 503.2,237.1 591.5,229.1 679.8,230.4 768.0,229.8 768.0,229.8 679.8,230.6 591.5,229.2 503.2,237.4 415.0,250.7 238.5,267.8 62.0,213.3" fill="#e377c2" opacity="0.14" stroke="none"/>
<polyline points="62.0,211.7 238.5,265.7 415.0,249.4 503.2,237.1 591.5,229.1 679.8,230.6 768.0,229.8" fill="none" stroke="#e377c2" stroke-width="2"/>
<circle cx="62.0" cy="211.7" r="3" fill="#e377c2"/>
<circle cx="238.5" cy="265.7" r="3" fill="#e377c2"/>
<circle cx="415.0" cy="249.4" r="3" fill="#e377c2"/>
<circle cx="503.2" cy="237.1" r="3" fill="#e377c2"/>
<circle cx="591.5" cy="229.1" r="3" fill="#e377c2"/>
<circle cx="679.8" cy="230.6" r="3" fill="#e377c2"/>
<circle cx="768.0" cy="229.8" r="3" fill="#e377c2"/>
<line x1="782" y1="182" x2="802" y2="182" stroke="#e377c2" stroke-width="3"/>
<text x="806" y="186" font-size="12">ztrmm</text>
<polygon points="62.0,198.3 238.5,236.6 415.0,208.3 503.2,222.5 591.5,217.7 679.8,224.5 768.0,229.4 768.0,229.6 679.8,225.2 591.5,217.7 503.2,222.6 415.0,208.7 238.5,257.0 62.0,202.5" fill="#1f77b4" opacity="0.14" stroke="none"/>
<polyline points="62.0,200.3 238.5,251.7 415.0,208.6 503.2,222.6 591.5,217.7 679.8,224.9 768.0,229.4" fill="none" stroke="#1f77b4" stroke-width="2"/>
<circle cx="62.0" cy="200.3" r="3" fill="#1f77b4"/>
<circle cx="238.5" cy="251.7" r="3" fill="#1f77b4"/>
<circle cx="415.0" cy="208.6" r="3" fill="#1f77b4"/>
<circle cx="503.2" cy="222.6" r="3" fill="#1f77b4"/>
<circle cx="591.5" cy="217.7" r="3" fill="#1f77b4"/>
<circle cx="679.8" cy="224.9" r="3" fill="#1f77b4"/>
<circle cx="768.0" cy="229.4" r="3" fill="#1f77b4"/>
<line x1="782" y1="200" x2="802" y2="200" stroke="#1f77b4" stroke-width="3"/>
<text x="806" y="204" font-size="12">ztrsm</text>
<polygon points="62.0,199.3 238.5,249.6 415.0,242.2 503.2,229.6 591.5,227.0 679.8,229.5 768.0,228.8 768.0,229.1 679.8,229.9 591.5,227.8 503.2,229.7 415.0,243.1 238.5,259.1 62.0,201.4" fill="#d62728" opacity="0.14" stroke="none"/>
<polyline points="62.0,199.8 238.5,256.5 415.0,242.6 503.2,229.6 591.5,227.2 679.8,229.6 768.0,228.9" fill="none" stroke="#d62728" stroke-width="2"/>
<circle cx="62.0" cy="199.8" r="3" fill="#d62728"/>
<circle cx="238.5" cy="256.5" r="3" fill="#d62728"/>
<circle cx="415.0" cy="242.6" r="3" fill="#d62728"/>
<circle cx="503.2" cy="229.6" r="3" fill="#d62728"/>
<circle cx="591.5" cy="227.2" r="3" fill="#d62728"/>
<circle cx="679.8" cy="229.6" r="3" fill="#d62728"/>
<circle cx="768.0" cy="228.9" r="3" fill="#d62728"/>
<line x1="782" y1="218" x2="802" y2="218" stroke="#d62728" stroke-width="3"/>
<text x="806" y="222" font-size="12">ztrmmR</text>
<polygon points="62.0,105.2 238.5,155.5 415.0,162.4 503.2,187.1 591.5,204.4 679.8,217.3 768.0,226.9 768.0,227.2 679.8,217.6 591.5,204.6 503.2,187.8 415.0,162.8 238.5,161.6 62.0,127.5" fill="#2ca02c" opacity="0.14" stroke="none"/>
<polyline points="62.0,124.8 238.5,161.3 415.0,162.6 503.2,187.5 591.5,204.4 679.8,217.4 768.0,227.1" fill="none" stroke="#2ca02c" stroke-width="2"/>
<circle cx="62.0" cy="124.8" r="3" fill="#2ca02c"/>
<circle cx="238.5" cy="161.3" r="3" fill="#2ca02c"/>
<circle cx="415.0" cy="162.6" r="3" fill="#2ca02c"/>
<circle cx="503.2" cy="187.5" r="3" fill="#2ca02c"/>
<circle cx="591.5" cy="204.4" r="3" fill="#2ca02c"/>
<circle cx="679.8" cy="217.4" r="3" fill="#2ca02c"/>
<circle cx="768.0" cy="227.1" r="3" fill="#2ca02c"/>
<line x1="782" y1="236" x2="802" y2="236" stroke="#2ca02c" stroke-width="3"/>
<text x="806" y="240" font-size="12">ztrsmR</text>
<text x="415.0" y="450" text-anchor="middle" font-size="11" fill="#666">matrix size n (log) · y = median ratio (log) · dashed = the 0.96× gate</text>
</svg>
