<svg xmlns="http://www.w3.org/2000/svg" width="900" height="460" font-family="sans-serif">
<rect width="900" height="460" fill="white"/>
<text x="450.0" y="28" text-anchor="middle" font-size="18" font-weight="bold">BLAS-3: PureBLAS / OpenBLAS (AVX2, 1 thread, Float64)</text>
<line x1="62" y1="400.0" x2="768" y2="400.0" stroke="#eee"/>
<text x="54" y="404.0" text-anchor="end" font-size="11" fill="#666">0.5×</text>
<line x1="62" y1="321.83211124198715" x2="768" y2="321.83211124198715" stroke="#eee"/>
<text x="54" y="325.83211124198715" text-anchor="end" font-size="11" fill="#666">0.7×</text>
<line x1="62" y1="238.97081005249223" x2="768" y2="238.97081005249223" stroke="#eee"/>
<text x="54" y="242.97081005249223" text-anchor="end" font-size="11" fill="#666">1.0×</text>
<line x1="62" y1="144.77477241169606" x2="768" y2="144.77477241169606" stroke="#eee"/>
<text x="54" y="148.77477241169606" text-anchor="end" font-size="11" fill="#666">1.5×</text>
<line x1="62" y1="77.94162010498448" x2="768" y2="77.94162010498448" stroke="#eee"/>
<text x="54" y="81.94162010498448" text-anchor="end" font-size="11" fill="#666">2.0×</text>
<line x1="62.0" y1="50" x2="62.0" y2="400" stroke="#f4f4f4"/>
<text x="62.0" y="418" text-anchor="middle" font-size="11" fill="#444">8</text>
<line x1="238.5" y1="50" x2="238.5" y2="400" stroke="#f4f4f4"/>
<text x="238.5" y="418" text-anchor="middle" font-size="11" fill="#444">32</text>
<line x1="415.0" y1="50" x2="415.0" y2="400" stroke="#f4f4f4"/>
<text x="415.0" y="418" text-anchor="middle" font-size="11" fill="#444">128</text>
<line x1="503.25" y1="50" x2="503.25" y2="400" stroke="#f4f4f4"/>
<text x="503.25" y="418" text-anchor="middle" font-size="11" fill="#444">256</text>
<line x1="591.5" y1="50" x2="591.5" y2="400" stroke="#f4f4f4"/>
<text x="591.5" y="418" text-anchor="middle" font-size="11" fill="#444">512</text>
<line x1="679.75" y1="50" x2="679.75" y2="400" stroke="#f4f4f4"/>
<text x="679.75" y="418" text-anchor="middle" font-size="11" fill="#444">1024</text>
<line x1="768.0" y1="50" x2="768.0" y2="400" stroke="#f4f4f4"/>
<text x="768.0" y="418" text-anchor="middle" font-size="11" fill="#444">2048</text>
<line x1="62" y1="238.97081005249223" x2="768" y2="238.97081005249223" stroke="#888"/>
<line x1="62" y1="248.45441309380877" x2="768" y2="248.45441309380877" stroke="#d33" stroke-width="1.5" stroke-dasharray="6 4"/>
<text x="66" y="243.45441309380877" font-size="11" fill="#d33">0.96× gate</text>
<polyline points="62.0,82.5 238.5,215.6 415.0,216.4 503.2,234.3 591.5,226.3 679.8,230.2 768.0,232.9" fill="none" stroke="#1f77b4" stroke-width="2"/>
<circle cx="62.0" cy="82.5" r="3" fill="#1f77b4"/>
<circle cx="238.5" cy="215.6" r="3" fill="#1f77b4"/>
<circle cx="415.0" cy="216.4" r="3" fill="#1f77b4"/>
<circle cx="503.2" cy="234.3" r="3" fill="#1f77b4"/>
<circle cx="591.5" cy="226.3" r="3" fill="#1f77b4"/>
<circle cx="679.8" cy="230.2" r="3" fill="#1f77b4"/>
<circle cx="768.0" cy="232.9" r="3" fill="#1f77b4"/>
<line x1="782" y1="56" x2="802" y2="56" stroke="#1f77b4" stroke-width="3"/>
<text x="806" y="60" font-size="12">gemm</text>
<polyline points="62.0,193.1 238.5,259.2 415.0,253.6 503.2,242.3 591.5,246.3 679.8,242.3 768.0,249.7" fill="none" stroke="#d62728" stroke-width="2"/>
<circle cx="62.0" cy="193.1" r="3" fill="#d62728"/>
<circle cx="238.5" cy="259.2" r="3" fill="#d62728"/>
<circle cx="415.0" cy="253.6" r="3" fill="#d62728"/>
<circle cx="503.2" cy="242.3" r="3" fill="#d62728"/>
<circle cx="591.5" cy="246.3" r="3" fill="#d62728"/>
<circle cx="679.8" cy="242.3" r="3" fill="#d62728"/>
<circle cx="768.0" cy="249.7" r="3" fill="#d62728"/>
<line x1="782" y1="74" x2="802" y2="74" stroke="#d62728" stroke-width="3"/>
<text x="806" y="78" font-size="12">zgemm</text>
<polyline points="62.0,195.1 238.5,223.2 415.0,237.6 503.2,264.7 591.5,238.8 679.8,220.8 768.0,229.0" fill="none" stroke="#2ca02c" stroke-width="2"/>
<circle cx="62.0" cy="195.1" r="3" fill="#2ca02c"/>
<circle cx="238.5" cy="223.2" r="3" fill="#2ca02c"/>
<circle cx="415.0" cy="237.6" r="3" fill="#2ca02c"/>
<circle cx="503.2" cy="264.7" r="3" fill="#2ca02c"/>
<circle cx="591.5" cy="238.8" r="3" fill="#2ca02c"/>
<circle cx="679.8" cy="220.8" r="3" fill="#2ca02c"/>
<circle cx="768.0" cy="229.0" r="3" fill="#2ca02c"/>
<line x1="782" y1="92" x2="802" y2="92" stroke="#2ca02c" stroke-width="3"/>
<text x="806" y="96" font-size="12">symm</text>
<polyline points="62.0,141.4 238.5,173.6 415.0,212.7 503.2,207.5 591.5,228.5 679.8,222.6 768.0,236.6" fill="none" stroke="#9467bd" stroke-width="2"/>
<circle cx="62.0" cy="141.4" r="3" fill="#9467bd"/>
<circle cx="238.5" cy="173.6" r="3" fill="#9467bd"/>
<circle cx="415.0" cy="212.7" r="3" fill="#9467bd"/>
<circle cx="503.2" cy="207.5" r="3" fill="#9467bd"/>
<circle cx="591.5" cy="228.5" r="3" fill="#9467bd"/>
<circle cx="679.8" cy="222.6" r="3" fill="#9467bd"/>
<circle cx="768.0" cy="236.6" r="3" fill="#9467bd"/>
<line x1="782" y1="110" x2="802" y2="110" stroke="#9467bd" stroke-width="3"/>
<text x="806" y="114" font-size="12">syrk</text>
<polyline points="62.0,108.0 238.5,214.2 415.0,237.5 503.2,238.2 591.5,241.4 679.8,236.4 768.0,244.9" fill="none" stroke="#ff7f0e" stroke-width="2"/>
<circle cx="62.0" cy="108.0" r="3" fill="#ff7f0e"/>
<circle cx="238.5" cy="214.2" r="3" fill="#ff7f0e"/>
<circle cx="415.0" cy="237.5" r="3" fill="#ff7f0e"/>
<circle cx="503.2" cy="238.2" r="3" fill="#ff7f0e"/>
<circle cx="591.5" cy="241.4" r="3" fill="#ff7f0e"/>
<circle cx="679.8" cy="236.4" r="3" fill="#ff7f0e"/>
<circle cx="768.0" cy="244.9" r="3" fill="#ff7f0e"/>
<line x1="782" y1="128" x2="802" y2="128" stroke="#ff7f0e" stroke-width="3"/>
<text x="806" y="132" font-size="12">syr2k</text>
<polyline points="62.0,249.7 238.5,207.6 415.0,185.7 503.2,181.4 591.5,208.2 679.8,206.1 768.0,252.5" fill="none" stroke="#17becf" stroke-width="2"/>
<circle cx="62.0" cy="249.7" r="3" fill="#17becf"/>
<circle cx="238.5" cy="207.6" r="3" fill="#17becf"/>
<circle cx="415.0" cy="185.7" r="3" fill="#17becf"/>
<circle cx="503.2" cy="181.4" r="3" fill="#17becf"/>
<circle cx="591.5" cy="208.2" r="3" fill="#17becf"/>
<circle cx="679.8" cy="206.1" r="3" fill="#17becf"/>
<circle cx="768.0" cy="252.5" r="3" fill="#17becf"/>
<line x1="782" y1="146" x2="802" y2="146" stroke="#17becf" stroke-width="3"/>
<text x="806" y="150" font-size="12">trmm</text>
<polyline points="62.0,255.8 238.5,239.6 415.0,251.1 503.2,271.5 591.5,246.1 679.8,238.4 768.0,224.6" fill="none" stroke="#8c564b" stroke-width="2"/>
<circle cx="62.0" cy="255.8" r="3" fill="#8c564b"/>
<circle cx="238.5" cy="239.6" r="3" fill="#8c564b"/>
<circle cx="415.0" cy="251.1" r="3" fill="#8c564b"/>
<circle cx="503.2" cy="271.5" r="3" fill="#8c564b"/>
<circle cx="591.5" cy="246.1" r="3" fill="#8c564b"/>
<circle cx="679.8" cy="238.4" r="3" fill="#8c564b"/>
<circle cx="768.0" cy="224.6" r="3" fill="#8c564b"/>
<line x1="782" y1="164" x2="802" y2="164" stroke="#8c564b" stroke-width="3"/>
<text x="806" y="168" font-size="12">trsm</text>
<text x="415.0" y="450" text-anchor="middle" font-size="11" fill="#666">matrix size n (log) · y = median ratio (log) · dashed = the 0.96× gate</text>
</svg>
