<svg xmlns="http://www.w3.org/2000/svg" width="962" height="592" font-family="sans-serif">
<rect width="962" height="592" fill="white"/>
<text x="481.0" y="26" text-anchor="middle" font-size="17" font-weight="bold">BLAS-2 — PureBLAS / AOCL (PB/AOCL ratio)</text>
<line x1="46" y1="42" x2="68" y2="42" stroke="#d62728" stroke-width="3"/>
<text x="73" y="46" font-size="12">Zen3 · AVX2</text>
<line x1="176" y1="42" x2="198" y2="42" stroke="#2ca02c" stroke-width="3"/>
<text x="203" y="46" font-size="12">Zen5 · AVX-512</text>
<line x1="327" y1="42" x2="349" y2="42" stroke="#1f77b4" stroke-width="3"/>
<text x="354" y="46" font-size="12">Zen4 · AVX-512</text>
<rect x="46" y="60" width="210" height="138" fill="none" stroke="#e2e2e2"/>
<line x1="46" y1="131.35256141821796" x2="256" y2="131.35256141821796" stroke="#d33" stroke-dasharray="4 3"/>
<text x="42" y="201.0" text-anchor="end" font-size="9" fill="#999">0.5×</text>
<text x="42" y="134.35256141821796" text-anchor="end" font-size="9" fill="#999">1.0×</text>
<text x="42" y="63.01385442898107" text-anchor="end" font-size="9" fill="#999">2.1×</text>
<polygon points="46.0,67.4 81.0,117.7 116.0,124.3 151.0,127.7 186.0,128.8 221.0,129.5 256.0,134.7 256.0,138.1 221.0,131.1 186.0,131.9 151.0,131.8 116.0,129.0 81.0,120.4 46.0,70.0" fill="#d62728" opacity="0.11"/>
<polyline points="46.0,68.9 81.0,118.5 116.0,126.9 151.0,129.4 186.0,130.4 221.0,130.3 256.0,136.1" fill="none" stroke="#d62728" stroke-width="1.6"/>
<circle cx="46.0" cy="68.9" r="2" fill="#d62728"/>
<circle cx="81.0" cy="118.5" r="2" fill="#d62728"/>
<circle cx="116.0" cy="126.9" r="2" fill="#d62728"/>
<circle cx="151.0" cy="129.4" r="2" fill="#d62728"/>
<circle cx="186.0" cy="130.4" r="2" fill="#d62728"/>
<circle cx="221.0" cy="130.3" r="2" fill="#d62728"/>
<circle cx="256.0" cy="136.1" r="2" fill="#d62728"/>
<polygon points="46.0,84.7 81.0,109.3 116.0,106.7 151.0,127.6 186.0,130.4 221.0,134.9 256.0,115.2 256.0,129.0 221.0,139.6 186.0,143.5 151.0,133.1 116.0,115.5 81.0,112.2 46.0,93.7" fill="#2ca02c" opacity="0.11"/>
<polyline points="46.0,89.8 81.0,111.8 116.0,113.3 151.0,130.8 186.0,134.8 221.0,136.7 256.0,126.1" fill="none" stroke="#2ca02c" stroke-width="1.6"/>
<circle cx="46.0" cy="89.8" r="2" fill="#2ca02c"/>
<circle cx="81.0" cy="111.8" r="2" fill="#2ca02c"/>
<circle cx="116.0" cy="113.3" r="2" fill="#2ca02c"/>
<circle cx="151.0" cy="130.8" r="2" fill="#2ca02c"/>
<circle cx="186.0" cy="134.8" r="2" fill="#2ca02c"/>
<circle cx="221.0" cy="136.7" r="2" fill="#2ca02c"/>
<circle cx="256.0" cy="126.1" r="2" fill="#2ca02c"/>
<polygon points="46.0,83.8 81.0,123.6 116.0,128.4 151.0,116.5 186.0,129.8 221.0,123.7 256.0,121.6 256.0,123.0 221.0,125.3 186.0,131.8 151.0,133.6 116.0,131.3 81.0,125.1 46.0,87.8" fill="#1f77b4" opacity="0.11"/>
<polyline points="46.0,85.8 81.0,124.6 116.0,130.2 151.0,126.0 186.0,130.9 221.0,124.3 256.0,122.5" fill="none" stroke="#1f77b4" stroke-width="1.6"/>
<circle cx="46.0" cy="85.8" r="2" fill="#1f77b4"/>
<circle cx="81.0" cy="124.6" r="2" fill="#1f77b4"/>
<circle cx="116.0" cy="130.2" r="2" fill="#1f77b4"/>
<circle cx="151.0" cy="126.0" r="2" fill="#1f77b4"/>
<circle cx="186.0" cy="130.9" r="2" fill="#1f77b4"/>
<circle cx="221.0" cy="124.3" r="2" fill="#1f77b4"/>
<circle cx="256.0" cy="122.5" r="2" fill="#1f77b4"/>
<text x="151.0" y="55" text-anchor="middle" font-size="12" font-weight="bold">gemvN</text>
<line x1="46.0" y1="60" x2="46.0" y2="198" stroke="#f4f4f4"/>
<text x="46.0" y="209" text-anchor="middle" font-size="8" fill="#999">64</text>
<line x1="81.0" y1="60" x2="81.0" y2="198" stroke="#f4f4f4"/>
<text x="81.0" y="209" text-anchor="middle" font-size="8" fill="#999">128</text>
<line x1="116.0" y1="60" x2="116.0" y2="198" stroke="#f4f4f4"/>
<text x="116.0" y="209" text-anchor="middle" font-size="8" fill="#999">256</text>
<line x1="151.0" y1="60" x2="151.0" y2="198" stroke="#f4f4f4"/>
<text x="151.0" y="209" text-anchor="middle" font-size="8" fill="#999">512</text>
<line x1="186.0" y1="60" x2="186.0" y2="198" stroke="#f4f4f4"/>
<text x="186.0" y="209" text-anchor="middle" font-size="8" fill="#999">1k</text>
<line x1="221.0" y1="60" x2="221.0" y2="198" stroke="#f4f4f4"/>
<text x="221.0" y="209" text-anchor="middle" font-size="8" fill="#999">2k</text>
<line x1="256.0" y1="60" x2="256.0" y2="198" stroke="#f4f4f4"/>
<text x="256.0" y="209" text-anchor="middle" font-size="8" fill="#999">4k</text>
<rect x="276" y="60" width="210" height="138" fill="none" stroke="#e2e2e2"/>
<line x1="276" y1="115.76276119065531" x2="486" y2="115.76276119065531" stroke="#d33" stroke-dasharray="4 3"/>
<text x="272" y="201.0" text-anchor="end" font-size="9" fill="#999">0.5×</text>
<text x="272" y="118.76276119065531" text-anchor="end" font-size="9" fill="#999">1.0×</text>
<text x="272" y="63.0" text-anchor="end" font-size="9" fill="#999">1.6×</text>
<polygon points="276.0,97.6 311.0,103.1 346.0,110.2 381.0,105.3 416.0,119.0 451.0,120.6 486.0,110.5 486.0,115.7 451.0,122.9 416.0,120.9 381.0,110.0 346.0,117.2 311.0,106.2 276.0,101.1" fill="#d62728" opacity="0.11"/>
<polyline points="276.0,98.7 311.0,104.8 346.0,113.4 381.0,107.0 416.0,119.8 451.0,121.7 486.0,113.8" fill="none" stroke="#d62728" stroke-width="1.6"/>
<circle cx="276.0" cy="98.7" r="2" fill="#d62728"/>
<circle cx="311.0" cy="104.8" r="2" fill="#d62728"/>
<circle cx="346.0" cy="113.4" r="2" fill="#d62728"/>
<circle cx="381.0" cy="107.0" r="2" fill="#d62728"/>
<circle cx="416.0" cy="119.8" r="2" fill="#d62728"/>
<circle cx="451.0" cy="121.7" r="2" fill="#d62728"/>
<circle cx="486.0" cy="113.8" r="2" fill="#d62728"/>
<polygon points="276.0,109.5 311.0,133.1 346.0,136.4 381.0,111.1 416.0,96.0 451.0,117.7 486.0,103.6 486.0,112.7 451.0,119.4 416.0,115.3 381.0,123.8 346.0,157.2 311.0,136.1 276.0,121.1" fill="#2ca02c" opacity="0.11"/>
<polyline points="276.0,115.4 311.0,134.5 346.0,150.1 381.0,113.3 416.0,111.5 451.0,118.7 486.0,110.2" fill="none" stroke="#2ca02c" stroke-width="1.6"/>
<circle cx="276.0" cy="115.4" r="2" fill="#2ca02c"/>
<circle cx="311.0" cy="134.5" r="2" fill="#2ca02c"/>
<circle cx="346.0" cy="150.1" r="2" fill="#2ca02c"/>
<circle cx="381.0" cy="113.3" r="2" fill="#2ca02c"/>
<circle cx="416.0" cy="111.5" r="2" fill="#2ca02c"/>
<circle cx="451.0" cy="118.7" r="2" fill="#2ca02c"/>
<circle cx="486.0" cy="110.2" r="2" fill="#2ca02c"/>
<polygon points="276.0,112.1 311.0,111.9 346.0,115.8 381.0,103.4 416.0,121.3 451.0,119.5 486.0,102.8 486.0,105.1 451.0,123.2 416.0,123.7 381.0,114.2 346.0,121.0 311.0,114.8 276.0,114.4" fill="#1f77b4" opacity="0.11"/>
<polyline points="276.0,113.3 311.0,112.4 346.0,118.9 381.0,108.9 416.0,122.6 451.0,122.3 486.0,104.9" fill="none" stroke="#1f77b4" stroke-width="1.6"/>
<circle cx="276.0" cy="113.3" r="2" fill="#1f77b4"/>
<circle cx="311.0" cy="112.4" r="2" fill="#1f77b4"/>
<circle cx="346.0" cy="118.9" r="2" fill="#1f77b4"/>
<circle cx="381.0" cy="108.9" r="2" fill="#1f77b4"/>
<circle cx="416.0" cy="122.6" r="2" fill="#1f77b4"/>
<circle cx="451.0" cy="122.3" r="2" fill="#1f77b4"/>
<circle cx="486.0" cy="104.9" r="2" fill="#1f77b4"/>
<text x="381.0" y="55" text-anchor="middle" font-size="12" font-weight="bold">gemvT</text>
<line x1="276.0" y1="60" x2="276.0" y2="198" stroke="#f4f4f4"/>
<text x="276.0" y="209" text-anchor="middle" font-size="8" fill="#999">64</text>
<line x1="311.0" y1="60" x2="311.0" y2="198" stroke="#f4f4f4"/>
<text x="311.0" y="209" text-anchor="middle" font-size="8" fill="#999">128</text>
<line x1="346.0" y1="60" x2="346.0" y2="198" stroke="#f4f4f4"/>
<text x="346.0" y="209" text-anchor="middle" font-size="8" fill="#999">256</text>
<line x1="381.0" y1="60" x2="381.0" y2="198" stroke="#f4f4f4"/>
<text x="381.0" y="209" text-anchor="middle" font-size="8" fill="#999">512</text>
<line x1="416.0" y1="60" x2="416.0" y2="198" stroke="#f4f4f4"/>
<text x="416.0" y="209" text-anchor="middle" font-size="8" fill="#999">1k</text>
<line x1="451.0" y1="60" x2="451.0" y2="198" stroke="#f4f4f4"/>
<text x="451.0" y="209" text-anchor="middle" font-size="8" fill="#999">2k</text>
<line x1="486.0" y1="60" x2="486.0" y2="198" stroke="#f4f4f4"/>
<text x="486.0" y="209" text-anchor="middle" font-size="8" fill="#999">4k</text>
<rect x="506" y="60" width="210" height="138" fill="none" stroke="#e2e2e2"/>
<line x1="506" y1="131.7355744431" x2="716" y2="131.7355744431" stroke="#d33" stroke-dasharray="4 3"/>
<text x="502" y="201.0" text-anchor="end" font-size="9" fill="#999">0.5×</text>
<text x="502" y="134.7355744431" text-anchor="end" font-size="9" fill="#999">1.0×</text>
<polygon points="506.0,67.4 541.0,88.0 576.0,93.9 611.0,96.5 646.0,97.4 681.0,92.3 716.0,119.6 716.0,122.9 681.0,95.1 646.0,98.7 611.0,97.5 576.0,97.0 541.0,89.4 506.0,69.2" fill="#d62728" opacity="0.11"/>
<polyline points="506.0,68.0 541.0,88.6 576.0,95.2 611.0,97.2 646.0,98.1 681.0,93.3 716.0,120.6" fill="none" stroke="#d62728" stroke-width="1.6"/>
<circle cx="506.0" cy="68.0" r="2" fill="#d62728"/>
<circle cx="541.0" cy="88.6" r="2" fill="#d62728"/>
<circle cx="576.0" cy="95.2" r="2" fill="#d62728"/>
<circle cx="611.0" cy="97.2" r="2" fill="#d62728"/>
<circle cx="646.0" cy="98.1" r="2" fill="#d62728"/>
<circle cx="681.0" cy="93.3" r="2" fill="#d62728"/>
<circle cx="716.0" cy="120.6" r="2" fill="#d62728"/>
<polygon points="506.0,80.9 541.0,122.9 576.0,126.5 611.0,129.0 646.0,128.5 681.0,158.8 716.0,126.6 716.0,132.1 681.0,163.7 646.0,134.3 611.0,131.2 576.0,127.9 541.0,126.9 506.0,109.4" fill="#2ca02c" opacity="0.11"/>
<polyline points="506.0,106.6 541.0,125.5 576.0,127.0 611.0,130.3 646.0,131.7 681.0,160.6 716.0,130.0" fill="none" stroke="#2ca02c" stroke-width="1.6"/>
<circle cx="506.0" cy="106.6" r="2" fill="#2ca02c"/>
<circle cx="541.0" cy="125.5" r="2" fill="#2ca02c"/>
<circle cx="576.0" cy="127.0" r="2" fill="#2ca02c"/>
<circle cx="611.0" cy="130.3" r="2" fill="#2ca02c"/>
<circle cx="646.0" cy="131.7" r="2" fill="#2ca02c"/>
<circle cx="681.0" cy="160.6" r="2" fill="#2ca02c"/>
<circle cx="716.0" cy="130.0" r="2" fill="#2ca02c"/>
<polygon points="506.0,103.3 541.0,119.0 576.0,119.4 611.0,127.2 646.0,132.3 681.0,140.6 716.0,133.9 716.0,135.8 681.0,143.2 646.0,156.7 611.0,131.5 576.0,128.5 541.0,122.8 506.0,108.3" fill="#1f77b4" opacity="0.11"/>
<polyline points="506.0,105.0 541.0,120.8 576.0,125.3 611.0,130.2 646.0,135.5 681.0,141.9 716.0,134.3" fill="none" stroke="#1f77b4" stroke-width="1.6"/>
<circle cx="506.0" cy="105.0" r="2" fill="#1f77b4"/>
<circle cx="541.0" cy="120.8" r="2" fill="#1f77b4"/>
<circle cx="576.0" cy="125.3" r="2" fill="#1f77b4"/>
<circle cx="611.0" cy="130.2" r="2" fill="#1f77b4"/>
<circle cx="646.0" cy="135.5" r="2" fill="#1f77b4"/>
<circle cx="681.0" cy="141.9" r="2" fill="#1f77b4"/>
<circle cx="716.0" cy="134.3" r="2" fill="#1f77b4"/>
<text x="611.0" y="55" text-anchor="middle" font-size="12" font-weight="bold">ger</text>
<line x1="506.0" y1="60" x2="506.0" y2="198" stroke="#f4f4f4"/>
<text x="506.0" y="209" text-anchor="middle" font-size="8" fill="#999">64</text>
<line x1="541.0" y1="60" x2="541.0" y2="198" stroke="#f4f4f4"/>
<text x="541.0" y="209" text-anchor="middle" font-size="8" fill="#999">128</text>
<line x1="576.0" y1="60" x2="576.0" y2="198" stroke="#f4f4f4"/>
<text x="576.0" y="209" text-anchor="middle" font-size="8" fill="#999">256</text>
<line x1="611.0" y1="60" x2="611.0" y2="198" stroke="#f4f4f4"/>
<text x="611.0" y="209" text-anchor="middle" font-size="8" fill="#999">512</text>
<line x1="646.0" y1="60" x2="646.0" y2="198" stroke="#f4f4f4"/>
<text x="646.0" y="209" text-anchor="middle" font-size="8" fill="#999">1k</text>
<line x1="681.0" y1="60" x2="681.0" y2="198" stroke="#f4f4f4"/>
<text x="681.0" y="209" text-anchor="middle" font-size="8" fill="#999">2k</text>
<line x1="716.0" y1="60" x2="716.0" y2="198" stroke="#f4f4f4"/>
<text x="716.0" y="209" text-anchor="middle" font-size="8" fill="#999">4k</text>
<rect x="736" y="60" width="210" height="138" fill="none" stroke="#e2e2e2"/>
<line x1="736" y1="119.69686115167309" x2="946" y2="119.69686115167309" stroke="#d33" stroke-dasharray="4 3"/>
<text x="732" y="201.0" text-anchor="end" font-size="9" fill="#999">0.5×</text>
<text x="732" y="122.69686115167309" text-anchor="end" font-size="9" fill="#999">1.0×</text>
<polygon points="736.0,68.7 771.0,82.0 806.0,96.1 841.0,97.1 876.0,104.7 911.0,122.8 946.0,118.6 946.0,119.8 911.0,123.8 876.0,120.2 841.0,111.4 806.0,103.2 771.0,85.2 736.0,70.5" fill="#d62728" opacity="0.11"/>
<polyline points="736.0,69.2 771.0,83.7 806.0,98.8 841.0,108.0 876.0,115.6 911.0,123.2 946.0,119.1" fill="none" stroke="#d62728" stroke-width="1.6"/>
<circle cx="736.0" cy="69.2" r="2" fill="#d62728"/>
<circle cx="771.0" cy="83.7" r="2" fill="#d62728"/>
<circle cx="806.0" cy="98.8" r="2" fill="#d62728"/>
<circle cx="841.0" cy="108.0" r="2" fill="#d62728"/>
<circle cx="876.0" cy="115.6" r="2" fill="#d62728"/>
<circle cx="911.0" cy="123.2" r="2" fill="#d62728"/>
<circle cx="946.0" cy="119.1" r="2" fill="#d62728"/>
<polygon points="736.0,84.4 771.0,89.8 806.0,91.0 841.0,97.0 876.0,98.6 911.0,104.7 946.0,102.4 946.0,110.1 911.0,111.7 876.0,110.4 841.0,103.6 806.0,93.3 771.0,91.6 736.0,87.0" fill="#2ca02c" opacity="0.11"/>
<polyline points="736.0,86.4 771.0,91.1 806.0,92.7 841.0,99.7 876.0,106.5 911.0,107.6 946.0,104.4" fill="none" stroke="#2ca02c" stroke-width="1.6"/>
<circle cx="736.0" cy="86.4" r="2" fill="#2ca02c"/>
<circle cx="771.0" cy="91.1" r="2" fill="#2ca02c"/>
<circle cx="806.0" cy="92.7" r="2" fill="#2ca02c"/>
<circle cx="841.0" cy="99.7" r="2" fill="#2ca02c"/>
<circle cx="876.0" cy="106.5" r="2" fill="#2ca02c"/>
<circle cx="911.0" cy="107.6" r="2" fill="#2ca02c"/>
<circle cx="946.0" cy="104.4" r="2" fill="#2ca02c"/>
<polygon points="736.0,80.7 771.0,84.2 806.0,82.8 841.0,87.9 876.0,105.1 911.0,122.7 946.0,124.7 946.0,126.4 911.0,125.4 876.0,110.3 841.0,97.0 806.0,86.9 771.0,85.6 736.0,81.9" fill="#1f77b4" opacity="0.11"/>
<polyline points="736.0,81.4 771.0,84.9 806.0,85.4 841.0,93.7 876.0,106.3 911.0,124.1 946.0,125.8" fill="none" stroke="#1f77b4" stroke-width="1.6"/>
<circle cx="736.0" cy="81.4" r="2" fill="#1f77b4"/>
<circle cx="771.0" cy="84.9" r="2" fill="#1f77b4"/>
<circle cx="806.0" cy="85.4" r="2" fill="#1f77b4"/>
<circle cx="841.0" cy="93.7" r="2" fill="#1f77b4"/>
<circle cx="876.0" cy="106.3" r="2" fill="#1f77b4"/>
<circle cx="911.0" cy="124.1" r="2" fill="#1f77b4"/>
<circle cx="946.0" cy="125.8" r="2" fill="#1f77b4"/>
<text x="841.0" y="55" text-anchor="middle" font-size="12" font-weight="bold">symv</text>
<line x1="736.0" y1="60" x2="736.0" y2="198" stroke="#f4f4f4"/>
<text x="736.0" y="209" text-anchor="middle" font-size="8" fill="#999">64</text>
<line x1="771.0" y1="60" x2="771.0" y2="198" stroke="#f4f4f4"/>
<text x="771.0" y="209" text-anchor="middle" font-size="8" fill="#999">128</text>
<line x1="806.0" y1="60" x2="806.0" y2="198" stroke="#f4f4f4"/>
<text x="806.0" y="209" text-anchor="middle" font-size="8" fill="#999">256</text>
<line x1="841.0" y1="60" x2="841.0" y2="198" stroke="#f4f4f4"/>
<text x="841.0" y="209" text-anchor="middle" font-size="8" fill="#999">512</text>
<line x1="876.0" y1="60" x2="876.0" y2="198" stroke="#f4f4f4"/>
<text x="876.0" y="209" text-anchor="middle" font-size="8" fill="#999">1k</text>
<line x1="911.0" y1="60" x2="911.0" y2="198" stroke="#f4f4f4"/>
<text x="911.0" y="209" text-anchor="middle" font-size="8" fill="#999">2k</text>
<line x1="946.0" y1="60" x2="946.0" y2="198" stroke="#f4f4f4"/>
<text x="946.0" y="209" text-anchor="middle" font-size="8" fill="#999">4k</text>
<rect x="46" y="232" width="210" height="138" fill="none" stroke="#e2e2e2"/>
<line x1="46" y1="287.7627611906553" x2="256" y2="287.7627611906553" stroke="#d33" stroke-dasharray="4 3"/>
<text x="42" y="373.0" text-anchor="end" font-size="9" fill="#999">0.5×</text>
<text x="42" y="290.7627611906553" text-anchor="end" font-size="9" fill="#999">1.0×</text>
<text x="42" y="235.0" text-anchor="end" font-size="9" fill="#999">1.6×</text>
<polygon points="46.0,241.8 81.0,274.9 116.0,284.7 151.0,295.7 186.0,293.9 221.0,289.1 256.0,295.5 256.0,297.1 221.0,290.6 186.0,297.1 151.0,298.1 116.0,291.8 81.0,277.8 46.0,243.0" fill="#d62728" opacity="0.11"/>
<polyline points="46.0,242.6 81.0,277.5 116.0,287.6 151.0,297.0 186.0,295.5 221.0,289.7 256.0,296.4" fill="none" stroke="#d62728" stroke-width="1.6"/>
<circle cx="46.0" cy="242.6" r="2" fill="#d62728"/>
<circle cx="81.0" cy="277.5" r="2" fill="#d62728"/>
<circle cx="116.0" cy="287.6" r="2" fill="#d62728"/>
<circle cx="151.0" cy="297.0" r="2" fill="#d62728"/>
<circle cx="186.0" cy="295.5" r="2" fill="#d62728"/>
<circle cx="221.0" cy="289.7" r="2" fill="#d62728"/>
<circle cx="256.0" cy="296.4" r="2" fill="#d62728"/>
<polygon points="46.0,259.0 81.0,303.0 116.0,285.3 151.0,283.7 186.0,279.4 221.0,258.7 256.0,265.2 256.0,283.2 221.0,270.6 186.0,286.7 151.0,289.7 116.0,287.7 81.0,311.7 46.0,277.1" fill="#2ca02c" opacity="0.11"/>
<polyline points="46.0,274.9 81.0,304.3 116.0,286.4 151.0,286.5 186.0,286.2 221.0,266.7 256.0,279.1" fill="none" stroke="#2ca02c" stroke-width="1.6"/>
<circle cx="46.0" cy="274.9" r="2" fill="#2ca02c"/>
<circle cx="81.0" cy="304.3" r="2" fill="#2ca02c"/>
<circle cx="116.0" cy="286.4" r="2" fill="#2ca02c"/>
<circle cx="151.0" cy="286.5" r="2" fill="#2ca02c"/>
<circle cx="186.0" cy="286.2" r="2" fill="#2ca02c"/>
<circle cx="221.0" cy="266.7" r="2" fill="#2ca02c"/>
<circle cx="256.0" cy="279.1" r="2" fill="#2ca02c"/>
<polygon points="46.0,251.7 81.0,284.4 116.0,291.7 151.0,291.8 186.0,291.3 221.0,278.6 256.0,281.2 256.0,285.8 221.0,282.8 186.0,293.0 151.0,296.9 116.0,295.6 81.0,289.2 46.0,254.1" fill="#1f77b4" opacity="0.11"/>
<polyline points="46.0,253.0 81.0,286.5 116.0,293.7 151.0,293.8 186.0,292.2 221.0,280.7 256.0,284.5" fill="none" stroke="#1f77b4" stroke-width="1.6"/>
<circle cx="46.0" cy="253.0" r="2" fill="#1f77b4"/>
<circle cx="81.0" cy="286.5" r="2" fill="#1f77b4"/>
<circle cx="116.0" cy="293.7" r="2" fill="#1f77b4"/>
<circle cx="151.0" cy="293.8" r="2" fill="#1f77b4"/>
<circle cx="186.0" cy="292.2" r="2" fill="#1f77b4"/>
<circle cx="221.0" cy="280.7" r="2" fill="#1f77b4"/>
<circle cx="256.0" cy="284.5" r="2" fill="#1f77b4"/>
<text x="151.0" y="227" text-anchor="middle" font-size="12" font-weight="bold">trmv</text>
<line x1="46.0" y1="232" x2="46.0" y2="370" stroke="#f4f4f4"/>
<text x="46.0" y="381" text-anchor="middle" font-size="8" fill="#999">64</text>
<line x1="81.0" y1="232" x2="81.0" y2="370" stroke="#f4f4f4"/>
<text x="81.0" y="381" text-anchor="middle" font-size="8" fill="#999">128</text>
<line x1="116.0" y1="232" x2="116.0" y2="370" stroke="#f4f4f4"/>
<text x="116.0" y="381" text-anchor="middle" font-size="8" fill="#999">256</text>
<line x1="151.0" y1="232" x2="151.0" y2="370" stroke="#f4f4f4"/>
<text x="151.0" y="381" text-anchor="middle" font-size="8" fill="#999">512</text>
<line x1="186.0" y1="232" x2="186.0" y2="370" stroke="#f4f4f4"/>
<text x="186.0" y="381" text-anchor="middle" font-size="8" fill="#999">1k</text>
<line x1="221.0" y1="232" x2="221.0" y2="370" stroke="#f4f4f4"/>
<text x="221.0" y="381" text-anchor="middle" font-size="8" fill="#999">2k</text>
<line x1="256.0" y1="232" x2="256.0" y2="370" stroke="#f4f4f4"/>
<text x="256.0" y="381" text-anchor="middle" font-size="8" fill="#999">4k</text>
<rect x="276" y="232" width="210" height="138" fill="none" stroke="#e2e2e2"/>
<line x1="276" y1="287.7627611906553" x2="486" y2="287.7627611906553" stroke="#d33" stroke-dasharray="4 3"/>
<text x="272" y="373.0" text-anchor="end" font-size="9" fill="#999">0.5×</text>
<text x="272" y="290.7627611906553" text-anchor="end" font-size="9" fill="#999">1.0×</text>
<text x="272" y="235.0" text-anchor="end" font-size="9" fill="#999">1.6×</text>
<polygon points="276.0,249.7 311.0,270.0 346.0,283.4 381.0,295.3 416.0,290.9 451.0,287.4 486.0,290.4 486.0,300.2 451.0,295.4 416.0,295.9 381.0,298.0 346.0,288.1 311.0,275.6 276.0,250.2" fill="#d62728" opacity="0.11"/>
<polyline points="276.0,249.9 311.0,271.1 346.0,284.7 381.0,296.8 416.0,294.3 451.0,289.5 486.0,295.0" fill="none" stroke="#d62728" stroke-width="1.6"/>
<circle cx="276.0" cy="249.9" r="2" fill="#d62728"/>
<circle cx="311.0" cy="271.1" r="2" fill="#d62728"/>
<circle cx="346.0" cy="284.7" r="2" fill="#d62728"/>
<circle cx="381.0" cy="296.8" r="2" fill="#d62728"/>
<circle cx="416.0" cy="294.3" r="2" fill="#d62728"/>
<circle cx="451.0" cy="289.5" r="2" fill="#d62728"/>
<circle cx="486.0" cy="295.0" r="2" fill="#d62728"/>
<polygon points="276.0,244.4 311.0,270.6 346.0,286.9 381.0,291.2 416.0,287.0 451.0,277.3 486.0,271.9 486.0,283.2 451.0,287.3 416.0,295.7 381.0,296.2 346.0,287.6 311.0,273.4 276.0,250.9" fill="#2ca02c" opacity="0.11"/>
<polyline points="276.0,248.6 311.0,271.1 346.0,287.3 381.0,293.1 416.0,295.0 451.0,283.8 486.0,281.8" fill="none" stroke="#2ca02c" stroke-width="1.6"/>
<circle cx="276.0" cy="248.6" r="2" fill="#2ca02c"/>
<circle cx="311.0" cy="271.1" r="2" fill="#2ca02c"/>
<circle cx="346.0" cy="287.3" r="2" fill="#2ca02c"/>
<circle cx="381.0" cy="293.1" r="2" fill="#2ca02c"/>
<circle cx="416.0" cy="295.0" r="2" fill="#2ca02c"/>
<circle cx="451.0" cy="283.8" r="2" fill="#2ca02c"/>
<circle cx="486.0" cy="281.8" r="2" fill="#2ca02c"/>
<polygon points="276.0,265.5 311.0,282.6 346.0,302.3 381.0,296.2 416.0,294.8 451.0,292.7 486.0,293.7 486.0,297.7 451.0,302.4 416.0,298.4 381.0,298.2 346.0,306.8 311.0,283.9 276.0,266.6" fill="#1f77b4" opacity="0.11"/>
<polyline points="276.0,265.8 311.0,283.3 346.0,304.2 381.0,297.2 416.0,297.4 451.0,298.7 486.0,295.1" fill="none" stroke="#1f77b4" stroke-width="1.6"/>
<circle cx="276.0" cy="265.8" r="2" fill="#1f77b4"/>
<circle cx="311.0" cy="283.3" r="2" fill="#1f77b4"/>
<circle cx="346.0" cy="304.2" r="2" fill="#1f77b4"/>
<circle cx="381.0" cy="297.2" r="2" fill="#1f77b4"/>
<circle cx="416.0" cy="297.4" r="2" fill="#1f77b4"/>
<circle cx="451.0" cy="298.7" r="2" fill="#1f77b4"/>
<circle cx="486.0" cy="295.1" r="2" fill="#1f77b4"/>
<text x="381.0" y="227" text-anchor="middle" font-size="12" font-weight="bold">trsv</text>
<line x1="276.0" y1="232" x2="276.0" y2="370" stroke="#f4f4f4"/>
<text x="276.0" y="381" text-anchor="middle" font-size="8" fill="#999">64</text>
<line x1="311.0" y1="232" x2="311.0" y2="370" stroke="#f4f4f4"/>
<text x="311.0" y="381" text-anchor="middle" font-size="8" fill="#999">128</text>
<line x1="346.0" y1="232" x2="346.0" y2="370" stroke="#f4f4f4"/>
<text x="346.0" y="381" text-anchor="middle" font-size="8" fill="#999">256</text>
<line x1="381.0" y1="232" x2="381.0" y2="370" stroke="#f4f4f4"/>
<text x="381.0" y="381" text-anchor="middle" font-size="8" fill="#999">512</text>
<line x1="416.0" y1="232" x2="416.0" y2="370" stroke="#f4f4f4"/>
<text x="416.0" y="381" text-anchor="middle" font-size="8" fill="#999">1k</text>
<line x1="451.0" y1="232" x2="451.0" y2="370" stroke="#f4f4f4"/>
<text x="451.0" y="381" text-anchor="middle" font-size="8" fill="#999">2k</text>
<line x1="486.0" y1="232" x2="486.0" y2="370" stroke="#f4f4f4"/>
<text x="486.0" y="381" text-anchor="middle" font-size="8" fill="#999">4k</text>
<rect x="506" y="232" width="210" height="138" fill="none" stroke="#e2e2e2"/>
<line x1="506" y1="335.7606771840859" x2="716" y2="335.7606771840859" stroke="#d33" stroke-dasharray="4 3"/>
<text x="502" y="373.0" text-anchor="end" font-size="9" fill="#999">0.5×</text>
<text x="502" y="338.7606771840859" text-anchor="end" font-size="9" fill="#999">1.0×</text>
<text x="502" y="235.00402195603144" text-anchor="end" font-size="9" fill="#999">8.17×</text>
<polygon points="506.0,292.2 541.0,255.8 576.0,242.0 611.0,245.8 646.0,243.2 681.0,243.4 716.0,263.5 716.0,264.4 681.0,243.9 646.0,244.0 611.0,247.0 576.0,245.2 541.0,257.1 506.0,293.9" fill="#d62728" opacity="0.11"/>
<polyline points="506.0,292.5 541.0,256.3 576.0,242.5 611.0,246.3 646.0,243.5 681.0,243.8 716.0,263.8" fill="none" stroke="#d62728" stroke-width="1.6"/>
<circle cx="506.0" cy="292.5" r="2" fill="#d62728"/>
<circle cx="541.0" cy="256.3" r="2" fill="#d62728"/>
<circle cx="576.0" cy="242.5" r="2" fill="#d62728"/>
<circle cx="611.0" cy="246.3" r="2" fill="#d62728"/>
<circle cx="646.0" cy="243.5" r="2" fill="#d62728"/>
<circle cx="681.0" cy="243.8" r="2" fill="#d62728"/>
<circle cx="716.0" cy="263.8" r="2" fill="#d62728"/>
<polygon points="506.0,300.4 541.0,258.0 576.0,242.4 611.0,235.8 646.0,237.0 681.0,240.8 716.0,243.4 716.0,246.2 681.0,247.0 646.0,241.6 611.0,238.2 576.0,243.1 541.0,258.9 506.0,302.8" fill="#2ca02c" opacity="0.11"/>
<polyline points="506.0,301.9 541.0,258.3 576.0,242.7 611.0,237.0 646.0,238.0 681.0,241.8 716.0,245.6" fill="none" stroke="#2ca02c" stroke-width="1.6"/>
<circle cx="506.0" cy="301.9" r="2" fill="#2ca02c"/>
<circle cx="541.0" cy="258.3" r="2" fill="#2ca02c"/>
<circle cx="576.0" cy="242.7" r="2" fill="#2ca02c"/>
<circle cx="611.0" cy="237.0" r="2" fill="#2ca02c"/>
<circle cx="646.0" cy="238.0" r="2" fill="#2ca02c"/>
<circle cx="681.0" cy="241.8" r="2" fill="#2ca02c"/>
<circle cx="716.0" cy="245.6" r="2" fill="#2ca02c"/>
<polygon points="506.0,294.5 541.0,253.5 576.0,238.8 611.0,235.8 646.0,238.6 681.0,255.1 716.0,263.2 716.0,263.5 681.0,257.1 646.0,241.2 611.0,239.9 576.0,239.9 541.0,254.2 506.0,296.3" fill="#1f77b4" opacity="0.11"/>
<polyline points="506.0,295.0 541.0,253.8 576.0,239.2 611.0,237.4 646.0,240.5 681.0,255.4 716.0,263.4" fill="none" stroke="#1f77b4" stroke-width="1.6"/>
<circle cx="506.0" cy="295.0" r="2" fill="#1f77b4"/>
<circle cx="541.0" cy="253.8" r="2" fill="#1f77b4"/>
<circle cx="576.0" cy="239.2" r="2" fill="#1f77b4"/>
<circle cx="611.0" cy="237.4" r="2" fill="#1f77b4"/>
<circle cx="646.0" cy="240.5" r="2" fill="#1f77b4"/>
<circle cx="681.0" cy="255.4" r="2" fill="#1f77b4"/>
<circle cx="716.0" cy="263.4" r="2" fill="#1f77b4"/>
<text x="611.0" y="227" text-anchor="middle" font-size="12" font-weight="bold">spmv</text>
<line x1="506.0" y1="232" x2="506.0" y2="370" stroke="#f4f4f4"/>
<text x="506.0" y="381" text-anchor="middle" font-size="8" fill="#999">64</text>
<line x1="541.0" y1="232" x2="541.0" y2="370" stroke="#f4f4f4"/>
<text x="541.0" y="381" text-anchor="middle" font-size="8" fill="#999">128</text>
<line x1="576.0" y1="232" x2="576.0" y2="370" stroke="#f4f4f4"/>
<text x="576.0" y="381" text-anchor="middle" font-size="8" fill="#999">256</text>
<line x1="611.0" y1="232" x2="611.0" y2="370" stroke="#f4f4f4"/>
<text x="611.0" y="381" text-anchor="middle" font-size="8" fill="#999">512</text>
<line x1="646.0" y1="232" x2="646.0" y2="370" stroke="#f4f4f4"/>
<text x="646.0" y="381" text-anchor="middle" font-size="8" fill="#999">1k</text>
<line x1="681.0" y1="232" x2="681.0" y2="370" stroke="#f4f4f4"/>
<text x="681.0" y="381" text-anchor="middle" font-size="8" fill="#999">2k</text>
<line x1="716.0" y1="232" x2="716.0" y2="370" stroke="#f4f4f4"/>
<text x="716.0" y="381" text-anchor="middle" font-size="8" fill="#999">4k</text>
<rect x="736" y="232" width="210" height="138" fill="none" stroke="#e2e2e2"/>
<line x1="736" y1="290.3970234771243" x2="946" y2="290.3970234771243" stroke="#d33" stroke-dasharray="4 3"/>
<text x="732" y="373.0" text-anchor="end" font-size="9" fill="#999">0.5×</text>
<text x="732" y="293.3970234771243" text-anchor="end" font-size="9" fill="#999">1.0×</text>
<text x="732" y="235.19266106433233" text-anchor="end" font-size="9" fill="#999">1.66×</text>
<polygon points="736.0,266.4 771.0,268.8 806.0,269.5 841.0,272.0 876.0,272.4 911.0,273.0 946.0,273.6 946.0,274.1 911.0,274.0 876.0,274.7 841.0,274.1 806.0,275.3 771.0,275.6 736.0,270.3" fill="#d62728" opacity="0.11"/>
<polyline points="736.0,268.4 771.0,269.7 806.0,272.0 841.0,272.4 876.0,272.6 911.0,273.6 946.0,273.8" fill="none" stroke="#d62728" stroke-width="1.6"/>
<circle cx="736.0" cy="268.4" r="2" fill="#d62728"/>
<circle cx="771.0" cy="269.7" r="2" fill="#d62728"/>
<circle cx="806.0" cy="272.0" r="2" fill="#d62728"/>
<circle cx="841.0" cy="272.4" r="2" fill="#d62728"/>
<circle cx="876.0" cy="272.6" r="2" fill="#d62728"/>
<circle cx="911.0" cy="273.6" r="2" fill="#d62728"/>
<circle cx="946.0" cy="273.8" r="2" fill="#d62728"/>
<polygon points="736.0,253.2 771.0,258.6 806.0,260.0 841.0,261.2 876.0,260.5 911.0,261.4 946.0,266.0 946.0,267.3 911.0,264.3 876.0,263.9 841.0,263.8 806.0,263.8 771.0,262.3 736.0,259.4" fill="#2ca02c" opacity="0.11"/>
<polyline points="736.0,255.6 771.0,261.3 806.0,261.8 841.0,263.2 876.0,263.3 911.0,263.9 946.0,266.9" fill="none" stroke="#2ca02c" stroke-width="1.6"/>
<circle cx="736.0" cy="255.6" r="2" fill="#2ca02c"/>
<circle cx="771.0" cy="261.3" r="2" fill="#2ca02c"/>
<circle cx="806.0" cy="261.8" r="2" fill="#2ca02c"/>
<circle cx="841.0" cy="263.2" r="2" fill="#2ca02c"/>
<circle cx="876.0" cy="263.3" r="2" fill="#2ca02c"/>
<circle cx="911.0" cy="263.9" r="2" fill="#2ca02c"/>
<circle cx="946.0" cy="266.9" r="2" fill="#2ca02c"/>
<polygon points="736.0,242.3 771.0,240.8 806.0,244.9 841.0,246.3 876.0,248.0 911.0,248.1 946.0,249.3 946.0,252.5 911.0,249.0 876.0,248.8 841.0,248.5 806.0,249.4 771.0,248.6 736.0,243.4" fill="#1f77b4" opacity="0.11"/>
<polyline points="736.0,243.2 771.0,247.5 806.0,247.6 841.0,248.1 876.0,248.6 911.0,248.4 946.0,251.0" fill="none" stroke="#1f77b4" stroke-width="1.6"/>
<circle cx="736.0" cy="243.2" r="2" fill="#1f77b4"/>
<circle cx="771.0" cy="247.5" r="2" fill="#1f77b4"/>
<circle cx="806.0" cy="247.6" r="2" fill="#1f77b4"/>
<circle cx="841.0" cy="248.1" r="2" fill="#1f77b4"/>
<circle cx="876.0" cy="248.6" r="2" fill="#1f77b4"/>
<circle cx="911.0" cy="248.4" r="2" fill="#1f77b4"/>
<circle cx="946.0" cy="251.0" r="2" fill="#1f77b4"/>
<text x="841.0" y="227" text-anchor="middle" font-size="12" font-weight="bold">gbmvN</text>
<line x1="736.0" y1="232" x2="736.0" y2="370" stroke="#f4f4f4"/>
<text x="736.0" y="381" text-anchor="middle" font-size="8" fill="#999">64</text>
<line x1="771.0" y1="232" x2="771.0" y2="370" stroke="#f4f4f4"/>
<text x="771.0" y="381" text-anchor="middle" font-size="8" fill="#999">128</text>
<line x1="806.0" y1="232" x2="806.0" y2="370" stroke="#f4f4f4"/>
<text x="806.0" y="381" text-anchor="middle" font-size="8" fill="#999">256</text>
<line x1="841.0" y1="232" x2="841.0" y2="370" stroke="#f4f4f4"/>
<text x="841.0" y="381" text-anchor="middle" font-size="8" fill="#999">512</text>
<line x1="876.0" y1="232" x2="876.0" y2="370" stroke="#f4f4f4"/>
<text x="876.0" y="381" text-anchor="middle" font-size="8" fill="#999">1k</text>
<line x1="911.0" y1="232" x2="911.0" y2="370" stroke="#f4f4f4"/>
<text x="911.0" y="381" text-anchor="middle" font-size="8" fill="#999">2k</text>
<line x1="946.0" y1="232" x2="946.0" y2="370" stroke="#f4f4f4"/>
<text x="946.0" y="381" text-anchor="middle" font-size="8" fill="#999">4k</text>
<rect x="46" y="404" width="210" height="138" fill="none" stroke="#e2e2e2"/>
<line x1="46" y1="459.7627611906553" x2="256" y2="459.7627611906553" stroke="#d33" stroke-dasharray="4 3"/>
<text x="42" y="545.0" text-anchor="end" font-size="9" fill="#999">0.5×</text>
<text x="42" y="462.7627611906553" text-anchor="end" font-size="9" fill="#999">1.0×</text>
<text x="42" y="407.0" text-anchor="end" font-size="9" fill="#999">1.6×</text>
<polygon points="46.0,419.0 81.0,421.2 116.0,421.6 151.0,423.6 186.0,424.0 221.0,424.2 256.0,425.2 256.0,426.2 221.0,425.3 186.0,424.8 151.0,425.3 116.0,425.2 81.0,427.2 46.0,420.9" fill="#d62728" opacity="0.11"/>
<polyline points="46.0,420.2 81.0,421.9 116.0,422.8 151.0,424.0 186.0,424.2 221.0,424.5 256.0,425.8" fill="none" stroke="#d62728" stroke-width="1.6"/>
<circle cx="46.0" cy="420.2" r="2" fill="#d62728"/>
<circle cx="81.0" cy="421.9" r="2" fill="#d62728"/>
<circle cx="116.0" cy="422.8" r="2" fill="#d62728"/>
<circle cx="151.0" cy="424.0" r="2" fill="#d62728"/>
<circle cx="186.0" cy="424.2" r="2" fill="#d62728"/>
<circle cx="221.0" cy="424.5" r="2" fill="#d62728"/>
<circle cx="256.0" cy="425.8" r="2" fill="#d62728"/>
<polygon points="46.0,440.2 81.0,441.3 116.0,441.4 151.0,442.5 186.0,442.9 221.0,442.9 256.0,443.2 256.0,443.8 221.0,443.7 186.0,443.9 151.0,444.1 116.0,446.4 81.0,448.6 46.0,443.2" fill="#2ca02c" opacity="0.11"/>
<polyline points="46.0,441.1 81.0,441.9 116.0,445.2 151.0,443.8 186.0,443.6 221.0,443.2 256.0,443.6" fill="none" stroke="#2ca02c" stroke-width="1.6"/>
<circle cx="46.0" cy="441.1" r="2" fill="#2ca02c"/>
<circle cx="81.0" cy="441.9" r="2" fill="#2ca02c"/>
<circle cx="116.0" cy="445.2" r="2" fill="#2ca02c"/>
<circle cx="151.0" cy="443.8" r="2" fill="#2ca02c"/>
<circle cx="186.0" cy="443.6" r="2" fill="#2ca02c"/>
<circle cx="221.0" cy="443.2" r="2" fill="#2ca02c"/>
<circle cx="256.0" cy="443.6" r="2" fill="#2ca02c"/>
<polygon points="46.0,444.2 81.0,445.2 116.0,444.9 151.0,446.2 186.0,446.8 221.0,446.9 256.0,447.3 256.0,449.4 221.0,447.8 186.0,447.8 151.0,447.9 116.0,449.4 81.0,453.2 46.0,447.0" fill="#1f77b4" opacity="0.11"/>
<polyline points="46.0,444.8 81.0,446.1 116.0,446.8 151.0,446.7 186.0,447.1 221.0,447.2 256.0,447.7" fill="none" stroke="#1f77b4" stroke-width="1.6"/>
<circle cx="46.0" cy="444.8" r="2" fill="#1f77b4"/>
<circle cx="81.0" cy="446.1" r="2" fill="#1f77b4"/>
<circle cx="116.0" cy="446.8" r="2" fill="#1f77b4"/>
<circle cx="151.0" cy="446.7" r="2" fill="#1f77b4"/>
<circle cx="186.0" cy="447.1" r="2" fill="#1f77b4"/>
<circle cx="221.0" cy="447.2" r="2" fill="#1f77b4"/>
<circle cx="256.0" cy="447.7" r="2" fill="#1f77b4"/>
<text x="151.0" y="399" text-anchor="middle" font-size="12" font-weight="bold">sbmv</text>
<line x1="46.0" y1="404" x2="46.0" y2="542" stroke="#f4f4f4"/>
<text x="46.0" y="553" text-anchor="middle" font-size="8" fill="#999">64</text>
<line x1="81.0" y1="404" x2="81.0" y2="542" stroke="#f4f4f4"/>
<text x="81.0" y="553" text-anchor="middle" font-size="8" fill="#999">128</text>
<line x1="116.0" y1="404" x2="116.0" y2="542" stroke="#f4f4f4"/>
<text x="116.0" y="553" text-anchor="middle" font-size="8" fill="#999">256</text>
<line x1="151.0" y1="404" x2="151.0" y2="542" stroke="#f4f4f4"/>
<text x="151.0" y="553" text-anchor="middle" font-size="8" fill="#999">512</text>
<line x1="186.0" y1="404" x2="186.0" y2="542" stroke="#f4f4f4"/>
<text x="186.0" y="553" text-anchor="middle" font-size="8" fill="#999">1k</text>
<line x1="221.0" y1="404" x2="221.0" y2="542" stroke="#f4f4f4"/>
<text x="221.0" y="553" text-anchor="middle" font-size="8" fill="#999">2k</text>
<line x1="256.0" y1="404" x2="256.0" y2="542" stroke="#f4f4f4"/>
<text x="256.0" y="553" text-anchor="middle" font-size="8" fill="#999">4k</text>
</svg>
