<svg xmlns="http://www.w3.org/2000/svg" width="900" height="460" font-family="sans-serif">
<rect width="900" height="460" fill="white"/>
<text x="450.0" y="28" text-anchor="middle" font-size="18" font-weight="bold">BLAS-3: PureBLAS / OpenBLAS (AVX2, 1 thread, Float64)</text>
<line x1="62" y1="400.0" x2="768" y2="400.0" stroke="#eee"/>
<text x="54" y="404.0" text-anchor="end" font-size="11" fill="#666">0.5×</text>
<line x1="62" y1="321.66704725926195" x2="768" y2="321.66704725926195" stroke="#eee"/>
<text x="54" y="325.66704725926195" text-anchor="end" font-size="11" fill="#666">0.7×</text>
<line x1="62" y1="238.6307711970227" x2="768" y2="238.6307711970227" stroke="#eee"/>
<text x="54" y="242.6307711970227" text-anchor="end" font-size="11" fill="#666">1.0×</text>
<line x1="62" y1="144.2358235769887" x2="768" y2="144.2358235769887" stroke="#eee"/>
<text x="54" y="148.2358235769887" text-anchor="end" font-size="11" fill="#666">1.5×</text>
<line x1="62" y1="77.26154239404542" x2="768" y2="77.26154239404542" stroke="#eee"/>
<text x="54" y="81.26154239404542" text-anchor="end" font-size="11" fill="#666">2.0×</text>
<line x1="62.0" y1="50" x2="62.0" y2="400" stroke="#f4f4f4"/>
<text x="62.0" y="418" text-anchor="middle" font-size="11" fill="#444">8</text>
<line x1="238.5" y1="50" x2="238.5" y2="400" stroke="#f4f4f4"/>
<text x="238.5" y="418" text-anchor="middle" font-size="11" fill="#444">32</text>
<line x1="415.0" y1="50" x2="415.0" y2="400" stroke="#f4f4f4"/>
<text x="415.0" y="418" text-anchor="middle" font-size="11" fill="#444">128</text>
<line x1="503.25" y1="50" x2="503.25" y2="400" stroke="#f4f4f4"/>
<text x="503.25" y="418" text-anchor="middle" font-size="11" fill="#444">256</text>
<line x1="591.5" y1="50" x2="591.5" y2="400" stroke="#f4f4f4"/>
<text x="591.5" y="418" text-anchor="middle" font-size="11" fill="#444">512</text>
<line x1="679.75" y1="50" x2="679.75" y2="400" stroke="#f4f4f4"/>
<text x="679.75" y="418" text-anchor="middle" font-size="11" fill="#444">1024</text>
<line x1="768.0" y1="50" x2="768.0" y2="400" stroke="#f4f4f4"/>
<text x="768.0" y="418" text-anchor="middle" font-size="11" fill="#444">2048</text>
<line x1="62" y1="238.6307711970227" x2="768" y2="238.6307711970227" stroke="#888"/>
<line x1="62" y1="248.1344003809594" x2="768" y2="248.1344003809594" stroke="#d33" stroke-width="1.5" stroke-dasharray="6 4"/>
<text x="66" y="243.1344003809594" font-size="11" fill="#d33">0.96× gate</text>
<polygon points="62.0,79.7 238.5,220.0 415.0,212.9 503.2,230.2 591.5,227.5 679.8,226.0 768.0,223.2 768.0,225.6 679.8,226.6 591.5,229.3 503.2,233.5 415.0,216.1 238.5,231.2 62.0,84.9" fill="#1f77b4" opacity="0.14" stroke="none"/>
<polyline points="62.0,82.5 238.5,225.0 415.0,213.9 503.2,231.8 591.5,228.7 679.8,226.3 768.0,224.6" fill="none" stroke="#1f77b4" stroke-width="2"/>
<circle cx="62.0" cy="82.5" r="3" fill="#1f77b4"/>
<circle cx="238.5" cy="225.0" r="3" fill="#1f77b4"/>
<circle cx="415.0" cy="213.9" r="3" fill="#1f77b4"/>
<circle cx="503.2" cy="231.8" r="3" fill="#1f77b4"/>
<circle cx="591.5" cy="228.7" r="3" fill="#1f77b4"/>
<circle cx="679.8" cy="226.3" r="3" fill="#1f77b4"/>
<circle cx="768.0" cy="224.6" r="3" fill="#1f77b4"/>
<line x1="782" y1="56" x2="802" y2="56" stroke="#1f77b4" stroke-width="3"/>
<text x="806" y="60" font-size="12">gemm</text>
<polygon points="62.0,192.4 238.5,243.3 415.0,245.9 503.2,252.2 591.5,248.9 679.8,244.4 768.0,246.1 768.0,246.9 679.8,246.9 591.5,254.6 503.2,253.1 415.0,247.3 238.5,250.0 62.0,196.9" fill="#d62728" opacity="0.14" stroke="none"/>
<polyline points="62.0,194.3 238.5,246.7 415.0,246.9 503.2,252.7 591.5,249.5 679.8,246.0 768.0,246.5" fill="none" stroke="#d62728" stroke-width="2"/>
<circle cx="62.0" cy="194.3" r="3" fill="#d62728"/>
<circle cx="238.5" cy="246.7" r="3" fill="#d62728"/>
<circle cx="415.0" cy="246.9" r="3" fill="#d62728"/>
<circle cx="503.2" cy="252.7" r="3" fill="#d62728"/>
<circle cx="591.5" cy="249.5" r="3" fill="#d62728"/>
<circle cx="679.8" cy="246.0" r="3" fill="#d62728"/>
<circle cx="768.0" cy="246.5" r="3" fill="#d62728"/>
<line x1="782" y1="74" x2="802" y2="74" stroke="#d62728" stroke-width="3"/>
<text x="806" y="78" font-size="12">zgemm</text>
<polygon points="62.0,185.1 238.5,222.2 415.0,238.5 503.2,242.0 591.5,232.5 679.8,226.9 768.0,224.2 768.0,227.0 679.8,229.8 591.5,233.5 503.2,244.0 415.0,241.1 238.5,228.6 62.0,188.7" fill="#2ca02c" opacity="0.14" stroke="none"/>
<polyline points="62.0,188.3 238.5,226.5 415.0,240.3 503.2,243.1 591.5,233.3 679.8,227.9 768.0,225.3" fill="none" stroke="#2ca02c" stroke-width="2"/>
<circle cx="62.0" cy="188.3" r="3" fill="#2ca02c"/>
<circle cx="238.5" cy="226.5" r="3" fill="#2ca02c"/>
<circle cx="415.0" cy="240.3" r="3" fill="#2ca02c"/>
<circle cx="503.2" cy="243.1" r="3" fill="#2ca02c"/>
<circle cx="591.5" cy="233.3" r="3" fill="#2ca02c"/>
<circle cx="679.8" cy="227.9" r="3" fill="#2ca02c"/>
<circle cx="768.0" cy="225.3" r="3" fill="#2ca02c"/>
<line x1="782" y1="92" x2="802" y2="92" stroke="#2ca02c" stroke-width="3"/>
<text x="806" y="96" font-size="12">symm</text>
<polygon points="62.0,149.3 238.5,173.0 415.0,222.1 503.2,227.4 591.5,225.9 679.8,226.7 768.0,231.2 768.0,232.6 679.8,231.2 591.5,227.8 503.2,230.4 415.0,227.5 238.5,180.0 62.0,152.1" fill="#9467bd" opacity="0.14" stroke="none"/>
<polyline points="62.0,150.4 238.5,176.4 415.0,225.9 503.2,228.7 591.5,227.2 679.8,228.5 768.0,231.8" fill="none" stroke="#9467bd" stroke-width="2"/>
<circle cx="62.0" cy="150.4" r="3" fill="#9467bd"/>
<circle cx="238.5" cy="176.4" r="3" fill="#9467bd"/>
<circle cx="415.0" cy="225.9" r="3" fill="#9467bd"/>
<circle cx="503.2" cy="228.7" r="3" fill="#9467bd"/>
<circle cx="591.5" cy="227.2" r="3" fill="#9467bd"/>
<circle cx="679.8" cy="228.5" r="3" fill="#9467bd"/>
<circle cx="768.0" cy="231.8" r="3" fill="#9467bd"/>
<line x1="782" y1="110" x2="802" y2="110" stroke="#9467bd" stroke-width="3"/>
<text x="806" y="114" font-size="12">syrk</text>
<polygon points="62.0,126.3 238.5,215.0 415.0,233.9 503.2,241.2 591.5,232.9 679.8,231.5 768.0,232.1 768.0,233.6 679.8,234.1 591.5,236.0 503.2,243.9 415.0,239.9 238.5,226.2 62.0,129.1" fill="#ff7f0e" opacity="0.14" stroke="none"/>
<polyline points="62.0,126.8 238.5,218.5 415.0,235.9 503.2,242.7 591.5,233.8 679.8,231.8 768.0,233.0" fill="none" stroke="#ff7f0e" stroke-width="2"/>
<circle cx="62.0" cy="126.8" r="3" fill="#ff7f0e"/>
<circle cx="238.5" cy="218.5" r="3" fill="#ff7f0e"/>
<circle cx="415.0" cy="235.9" r="3" fill="#ff7f0e"/>
<circle cx="503.2" cy="242.7" r="3" fill="#ff7f0e"/>
<circle cx="591.5" cy="233.8" r="3" fill="#ff7f0e"/>
<circle cx="679.8" cy="231.8" r="3" fill="#ff7f0e"/>
<circle cx="768.0" cy="233.0" r="3" fill="#ff7f0e"/>
<line x1="782" y1="128" x2="802" y2="128" stroke="#ff7f0e" stroke-width="3"/>
<text x="806" y="132" font-size="12">syr2k</text>
<polygon points="62.0,292.9 238.5,177.9 415.0,188.0 503.2,194.5 591.5,206.0 679.8,221.6 768.0,222.0 768.0,228.9 679.8,224.4 591.5,207.7 503.2,197.0 415.0,194.8 238.5,191.4 62.0,294.4" fill="#17becf" opacity="0.14" stroke="none"/>
<polyline points="62.0,293.3 238.5,189.1 415.0,190.7 503.2,196.3 591.5,206.8 679.8,222.9 768.0,225.2" fill="none" stroke="#17becf" stroke-width="2"/>
<circle cx="62.0" cy="293.3" r="3" fill="#17becf"/>
<circle cx="238.5" cy="189.1" r="3" fill="#17becf"/>
<circle cx="415.0" cy="190.7" r="3" fill="#17becf"/>
<circle cx="503.2" cy="196.3" r="3" fill="#17becf"/>
<circle cx="591.5" cy="206.8" r="3" fill="#17becf"/>
<circle cx="679.8" cy="222.9" r="3" fill="#17becf"/>
<circle cx="768.0" cy="225.2" r="3" fill="#17becf"/>
<line x1="782" y1="146" x2="802" y2="146" stroke="#17becf" stroke-width="3"/>
<text x="806" y="150" font-size="12">trmm</text>
<polygon points="62.0,228.1 238.5,241.4 415.0,246.1 503.2,238.7 591.5,232.2 679.8,230.9 768.0,225.8 768.0,229.7 679.8,232.6 591.5,232.9 503.2,243.3 415.0,250.6 238.5,248.3 62.0,229.7" fill="#8c564b" opacity="0.14" stroke="none"/>
<polyline points="62.0,229.0 238.5,246.0 415.0,249.1 503.2,240.6 591.5,232.4 679.8,232.0 768.0,226.6" fill="none" stroke="#8c564b" stroke-width="2"/>
<circle cx="62.0" cy="229.0" r="3" fill="#8c564b"/>
<circle cx="238.5" cy="246.0" r="3" fill="#8c564b"/>
<circle cx="415.0" cy="249.1" r="3" fill="#8c564b"/>
<circle cx="503.2" cy="240.6" r="3" fill="#8c564b"/>
<circle cx="591.5" cy="232.4" r="3" fill="#8c564b"/>
<circle cx="679.8" cy="232.0" r="3" fill="#8c564b"/>
<circle cx="768.0" cy="226.6" r="3" fill="#8c564b"/>
<line x1="782" y1="164" x2="802" y2="164" stroke="#8c564b" stroke-width="3"/>
<text x="806" y="168" font-size="12">trsm</text>
<text x="415.0" y="450" text-anchor="middle" font-size="11" fill="#666">matrix size n (log) · y = median ratio (log) · dashed = the 0.96× gate</text>
</svg>
