<svg xmlns="http://www.w3.org/2000/svg" width="900" height="440" font-family="sans-serif">
<rect width="900" height="440" fill="white"/>
<text x="450.0" y="28" text-anchor="middle" font-size="18" font-weight="bold">BLAS-1: PureBLAS / OpenBLAS (AVX-512, 1 thread, Float64)</text>
<line x1="60" y1="358.0" x2="880" y2="358.0" stroke="#eee"/>
<text x="52" y="362.0" text-anchor="end" font-size="11" fill="#666">0×</text>
<line x1="60" y1="346.5856602703852" x2="880" y2="346.5856602703852" stroke="#eee"/>
<text x="52" y="350.5856602703852" text-anchor="end" font-size="11" fill="#666">0.5×</text>
<line x1="60" y1="335.17132054077035" x2="880" y2="335.17132054077035" stroke="#eee"/>
<text x="52" y="339.17132054077035" text-anchor="end" font-size="11" fill="#666">1×</text>
<line x1="60" y1="323.75698081115553" x2="880" y2="323.75698081115553" stroke="#eee"/>
<text x="52" y="327.75698081115553" text-anchor="end" font-size="11" fill="#666">1.5×</text>
<line x1="60" y1="335.17132054077035" x2="880" y2="335.17132054077035" stroke="#888" stroke-width="1"/>
<line x1="60" y1="336.0844677191395" x2="880" y2="336.0844677191395" stroke="#d33" stroke-width="1.5" stroke-dasharray="6 4"/>
<text x="880" y="331.0844677191395" text-anchor="end" font-size="11" fill="#d33">0.96× gate</text>
<polygon points="128.3,342.9 128.4,342.7 128.4,342.5 128.4,342.3 128.5,342.2 128.6,342.0 128.7,341.8 128.8,341.7 128.9,341.5 128.9,341.3 128.8,341.2 128.7,341.0 128.6,340.8 128.6,340.7 128.7,340.5 128.8,340.3 128.9,340.2 129.0,340.0 129.1,339.8 129.1,339.7 129.0,339.5 128.9,339.3 128.9,339.1 128.9,339.0 128.9,338.8 129.0,338.6 129.2,338.5 129.4,338.3 129.6,338.1 129.8,338.0 129.9,337.8 129.9,337.6 129.9,337.5 129.9,337.3 129.9,337.1 129.9,337.0 130.2,336.8 131.0,336.6 132.7,336.5 136.0,336.3 141.5,336.1 149.7,335.9 160.2,335.8 171.4,335.6 180.7,335.4 185.7,335.3 185.4,335.1 180.4,334.9 172.5,334.8 164.0,334.6 156.1,334.4 149.5,334.3 144.1,334.1 139.8,333.9 136.7,333.8 134.6,333.6 133.7,333.4 133.9,333.2 135.0,333.1 136.6,332.9 138.0,332.7 138.7,332.6 138.4,332.4 137.1,332.2 135.1,332.1 133.1,331.9 131.2,331.7 129.9,331.6 129.1,331.4 128.7,331.2 128.5,331.1 128.4,330.9 128.3,330.9 128.2,331.1 128.0,331.2 127.6,331.4 126.7,331.6 125.4,331.7 123.6,331.9 121.5,332.1 119.6,332.2 118.3,332.4 118.0,332.6 118.7,332.7 120.1,332.9 121.7,333.1 122.7,333.2 122.9,333.4 122.0,333.6 120.0,333.8 116.9,333.9 112.6,334.1 107.2,334.3 100.5,334.4 92.7,334.6 84.1,334.8 76.3,334.9 71.3,335.1 70.9,335.3 76.0,335.4 85.3,335.6 96.4,335.8 106.9,335.9 115.2,336.1 120.7,336.3 124.0,336.5 125.7,336.6 126.4,336.8 126.7,337.0 126.8,337.1 126.8,337.3 126.8,337.5 126.8,337.6 126.8,337.8 126.9,338.0 127.1,338.1 127.2,338.3 127.4,338.5 127.6,338.6 127.7,338.8 127.8,339.0 127.8,339.1 127.7,339.3 127.6,339.5 127.6,339.7 127.6,339.8 127.7,340.0 127.8,340.2 127.9,340.3 128.0,340.5 128.0,340.7 128.0,340.8 128.0,341.0 127.9,341.2 127.8,341.3 127.8,341.5 127.8,341.7 127.9,341.8 128.1,342.0 128.2,342.2 128.2,342.3 128.3,342.5 128.3,342.7 128.3,342.9" fill="#2a8" opacity="0.5" stroke="#2a8" stroke-width="1"/>
<line x1="70.6" y1="335.1517161098404" x2="186.1" y2="335.1517161098404" stroke="#114" stroke-width="2"/>
<circle cx="128.33333333333331" cy="335.5253080088625" r="2.4" fill="#114"/>
<text x="128.33333333333331" y="326.0836160541212" text-anchor="middle" font-size="11">1.00</text>
<text x="128.33333333333331" y="376" text-anchor="middle" font-size="12">axpy</text>
<polygon points="265.0,341.0 265.0,340.9 265.0,340.8 265.1,340.7 265.1,340.6 265.2,340.5 265.3,340.4 265.3,340.3 265.4,340.2 265.4,340.0 265.5,339.9 265.5,339.8 265.6,339.7 265.6,339.6 265.5,339.5 265.5,339.4 265.5,339.3 265.6,339.2 265.7,339.1 265.9,339.0 266.0,338.9 266.0,338.8 266.0,338.7 265.9,338.6 265.8,338.5 265.7,338.4 265.6,338.2 265.5,338.1 265.4,338.0 265.4,337.9 265.4,337.8 265.4,337.7 265.5,337.6 265.6,337.5 265.6,337.4 265.6,337.3 265.5,337.2 265.5,337.1 265.5,337.0 265.6,336.9 265.9,336.8 266.4,336.7 267.4,336.6 269.0,336.4 271.2,336.3 273.9,336.2 276.6,336.1 279.1,336.0 281.5,335.9 284.5,335.8 288.8,335.7 295.4,335.6 304.0,335.5 313.2,335.4 320.2,335.3 322.4,335.2 318.7,335.1 310.4,335.0 300.3,334.9 290.6,334.8 282.7,334.6 276.6,334.5 272.3,334.4 269.4,334.3 267.6,334.2 266.4,334.1 265.7,334.0 265.3,333.9 265.1,333.8 265.1,333.7 265.0,333.6 265.0,333.5 265.0,333.5 265.0,333.6 264.9,333.7 264.9,333.8 264.7,333.9 264.3,334.0 263.6,334.1 262.4,334.2 260.6,334.3 257.7,334.4 253.4,334.5 247.3,334.6 239.4,334.8 229.7,334.9 219.6,335.0 211.3,335.1 207.6,335.2 209.8,335.3 216.8,335.4 226.0,335.5 234.6,335.6 241.2,335.7 245.5,335.8 248.5,335.9 250.9,336.0 253.4,336.1 256.1,336.2 258.8,336.3 261.0,336.4 262.6,336.6 263.6,336.7 264.1,336.8 264.4,336.9 264.5,337.0 264.5,337.1 264.5,337.2 264.4,337.3 264.4,337.4 264.4,337.5 264.5,337.6 264.6,337.7 264.6,337.8 264.6,337.9 264.6,338.0 264.5,338.1 264.4,338.2 264.3,338.4 264.2,338.5 264.1,338.6 264.0,338.7 264.0,338.8 264.0,338.9 264.1,339.0 264.3,339.1 264.4,339.2 264.5,339.3 264.5,339.4 264.5,339.5 264.4,339.6 264.4,339.7 264.5,339.8 264.5,339.9 264.6,340.0 264.6,340.2 264.7,340.3 264.7,340.4 264.8,340.5 264.9,340.6 264.9,340.7 265.0,340.8 265.0,340.9 265.0,341.0" fill="#2a8" opacity="0.5" stroke="#2a8" stroke-width="1"/>
<line x1="207.7" y1="335.21483963997036" x2="322.3" y2="335.21483963997036" stroke="#114" stroke-width="2"/>
<circle cx="265.0" cy="336.082203945697" r="2.4" fill="#114"/>
<text x="265.0" y="328.2439042330774" text-anchor="middle" font-size="11">1.00</text>
<text x="265.0" y="376" text-anchor="middle" font-size="12">dot</text>
<polygon points="409.9,281.0 412.3,277.7 415.1,274.5 418.3,271.2 421.8,268.0 425.7,264.7 429.7,261.5 433.7,258.2 437.7,255.0 441.4,251.7 444.7,248.5 447.6,245.2 450.0,242.0 451.7,238.7 453.0,235.5 453.8,232.2 454.3,228.9 454.5,225.7 454.6,222.4 454.8,219.2 455.1,215.9 455.5,212.7 456.2,209.4 456.9,206.2 457.7,202.9 458.5,199.7 459.0,196.4 459.1,193.2 458.6,189.9 457.6,186.6 455.8,183.4 453.4,180.1 450.2,176.9 446.5,173.6 442.3,170.4 437.8,167.1 433.3,163.9 428.8,160.6 424.6,157.4 420.8,154.1 417.5,150.9 414.8,147.6 412.6,144.4 411.0,141.1 409.9,137.8 409.3,134.6 409.2,131.3 409.5,128.1 410.2,124.8 411.3,121.6 412.8,118.3 414.6,115.1 416.7,111.8 419.2,108.6 421.8,105.3 424.7,102.1 427.7,98.8 430.7,95.5 433.4,92.3 435.9,89.0 437.8,85.8 439.1,82.5 439.7,79.3 439.6,76.0 438.6,72.8 436.9,69.5 434.6,66.3 431.7,63.0 428.5,59.8 425.1,56.5 421.7,53.3 418.4,50.0 385.0,50.0 381.6,53.3 378.2,56.5 374.8,59.8 371.6,63.0 368.8,66.3 366.4,69.5 364.7,72.8 363.8,76.0 363.6,79.3 364.2,82.5 365.5,85.8 367.5,89.0 369.9,92.3 372.7,95.5 375.6,98.8 378.6,102.1 381.5,105.3 384.2,108.6 386.6,111.8 388.8,115.1 390.5,118.3 392.0,121.6 393.1,124.8 393.8,128.1 394.1,131.3 394.0,134.6 393.5,137.8 392.4,141.1 390.8,144.4 388.6,147.6 385.8,150.9 382.5,154.1 378.7,157.4 374.5,160.6 370.1,163.9 365.5,167.1 361.1,170.4 356.9,173.6 353.1,176.9 350.0,180.1 347.5,183.4 345.7,186.6 344.7,189.9 344.3,193.2 344.4,196.4 344.9,199.7 345.6,202.9 346.4,206.2 347.2,209.4 347.8,212.7 348.2,215.9 348.5,219.2 348.7,222.4 348.8,225.7 349.1,228.9 349.5,232.2 350.3,235.5 351.6,238.7 353.4,242.0 355.7,245.2 358.6,248.5 361.9,251.7 365.6,255.0 369.6,258.2 373.6,261.5 377.6,264.7 381.5,268.0 385.1,271.2 388.3,274.5 391.1,277.7 393.5,281.0" fill="#2a8" opacity="0.5" stroke="#2a8" stroke-width="1"/>
<line x1="347.3" y1="183.77306843118015" x2="456.1" y2="183.77306843118015" stroke="#114" stroke-width="2"/>
<circle cx="401.66666666666663" cy="244.4051801406468" r="2.4" fill="#114"/>
<text x="401.66666666666663" y="61.43396226415098" text-anchor="middle" font-size="11">7.63</text>
<text x="401.66666666666663" y="376" text-anchor="middle" font-size="12">nrm2</text>
<polygon points="539.9,338.2 540.9,337.9 542.4,337.7 544.5,337.5 547.4,337.3 551.2,337.1 556.0,336.9 561.7,336.7 568.1,336.4 574.8,336.2 581.3,336.0 587.2,335.8 591.8,335.6 594.8,335.4 595.7,335.1 594.7,334.9 591.8,334.7 587.4,334.5 582.1,334.3 576.3,334.1 570.6,333.8 565.4,333.6 561.1,333.4 557.6,333.2 555.1,333.0 553.5,332.8 552.5,332.5 552.0,332.3 551.7,332.1 551.6,331.9 551.3,331.7 550.8,331.5 550.1,331.2 549.1,331.0 547.9,330.8 546.5,330.6 545.2,330.4 543.8,330.2 542.6,329.9 541.5,329.7 540.7,329.5 540.1,329.3 539.7,329.1 539.5,328.9 539.6,328.6 539.9,328.4 540.4,328.2 541.1,328.0 542.0,327.8 543.1,327.6 544.3,327.3 545.6,327.1 546.8,326.9 547.8,326.7 548.6,326.5 549.1,326.3 549.2,326.0 549.0,325.8 548.4,325.6 547.5,325.4 546.5,325.2 545.4,325.0 544.2,324.8 543.2,324.5 542.2,324.3 541.4,324.1 540.7,323.9 540.1,323.7 539.6,323.5 539.3,323.2 539.0,323.0 538.8,322.8 537.9,322.8 537.7,323.0 537.4,323.2 537.0,323.5 536.6,323.7 536.0,323.9 535.3,324.1 534.5,324.3 533.5,324.5 532.4,324.8 531.3,325.0 530.2,325.2 529.1,325.4 528.3,325.6 527.7,325.8 527.4,326.0 527.5,326.3 528.0,326.5 528.8,326.7 529.9,326.9 531.1,327.1 532.4,327.3 533.6,327.6 534.7,327.8 535.6,328.0 536.3,328.2 536.8,328.4 537.1,328.6 537.1,328.9 537.0,329.1 536.6,329.3 536.0,329.5 535.1,329.7 534.1,329.9 532.9,330.2 531.5,330.4 530.1,330.6 528.8,330.8 527.6,331.0 526.6,331.2 525.9,331.5 525.4,331.7 525.1,331.9 524.9,332.1 524.7,332.3 524.2,332.5 523.2,332.8 521.5,333.0 519.0,333.2 515.6,333.4 511.2,333.6 506.1,333.8 500.4,334.1 494.6,334.3 489.3,334.5 484.9,334.7 482.0,334.9 480.9,335.1 481.9,335.4 484.8,335.6 489.5,335.8 495.3,336.0 501.9,336.2 508.6,336.4 514.9,336.7 520.6,336.9 525.4,337.1 529.3,337.3 532.2,337.5 534.3,337.7 535.8,337.9 536.8,338.2" fill="#2a8" opacity="0.5" stroke="#2a8" stroke-width="1"/>
<line x1="480.9" y1="335.1142235653071" x2="595.7" y2="335.1142235653071" stroke="#114" stroke-width="2"/>
<circle cx="538.3333333333333" cy="335.43004100848145" r="2.4" fill="#114"/>
<text x="538.3333333333333" y="318.3267178074335" text-anchor="middle" font-size="11">1.00</text>
<text x="538.3333333333333" y="376" text-anchor="middle" font-size="12">asum</text>
<polygon points="675.0,339.1 675.0,339.0 675.1,338.8 675.1,338.6 675.3,338.5 675.4,338.3 675.6,338.2 675.9,338.0 676.2,337.9 676.6,337.7 677.1,337.6 677.7,337.4 678.3,337.3 678.9,337.1 679.6,337.0 680.2,336.8 680.8,336.7 681.4,336.5 682.2,336.4 683.1,336.2 684.5,336.0 686.4,335.9 689.1,335.7 692.8,335.6 697.6,335.4 703.5,335.3 710.0,335.1 716.6,335.0 722.6,334.8 727.4,334.7 730.8,334.5 732.4,334.4 732.1,334.2 729.6,334.1 724.9,333.9 718.4,333.8 710.8,333.6 703.0,333.4 696.0,333.3 690.1,333.1 685.7,333.0 682.9,332.8 681.7,332.7 682.0,332.5 683.6,332.4 685.9,332.2 688.2,332.1 689.6,331.9 689.5,331.8 687.7,331.6 685.0,331.5 682.0,331.3 679.5,331.2 677.7,331.0 676.5,330.8 675.9,330.7 675.5,330.5 675.3,330.4 675.2,330.2 675.1,330.1 675.2,329.9 675.2,329.8 675.3,329.6 675.4,329.5 675.4,329.3 675.4,329.2 675.3,329.0 675.2,328.9 675.1,328.7 675.1,328.6 675.0,328.4 675.0,328.2 675.0,328.2 675.0,328.4 674.9,328.6 674.9,328.7 674.8,328.9 674.7,329.0 674.6,329.2 674.6,329.3 674.6,329.5 674.7,329.6 674.8,329.8 674.8,329.9 674.9,330.1 674.8,330.2 674.7,330.4 674.5,330.5 674.1,330.7 673.5,330.8 672.3,331.0 670.5,331.2 668.0,331.3 665.0,331.5 662.3,331.6 660.5,331.8 660.4,331.9 661.8,332.1 664.1,332.2 666.4,332.4 668.0,332.5 668.3,332.7 667.1,332.8 664.3,333.0 659.9,333.1 654.0,333.3 647.0,333.4 639.2,333.6 631.6,333.8 625.1,333.9 620.4,334.1 617.9,334.2 617.6,334.4 619.2,334.5 622.6,334.7 627.4,334.8 633.4,335.0 640.0,335.1 646.5,335.3 652.4,335.4 657.2,335.6 660.9,335.7 663.6,335.9 665.5,336.0 666.9,336.2 667.8,336.4 668.6,336.5 669.2,336.7 669.8,336.8 670.4,337.0 671.1,337.1 671.7,337.3 672.3,337.4 672.9,337.6 673.4,337.7 673.8,337.9 674.1,338.0 674.4,338.2 674.6,338.3 674.7,338.5 674.9,338.6 674.9,338.8 675.0,339.0 675.0,339.1" fill="#2a8" opacity="0.5" stroke="#2a8" stroke-width="1"/>
<line x1="617.5" y1="334.2736432408979" x2="732.5" y2="334.2736432408979" stroke="#114" stroke-width="2"/>
<circle cx="675.0" cy="335.1368994457541" r="2.4" fill="#114"/>
<text x="675.0" y="323.3348385857715" text-anchor="middle" font-size="11">1.04</text>
<text x="675.0" y="376" text-anchor="middle" font-size="12">scal</text>
<polygon points="813.4,341.9 814.1,341.5 815.1,341.1 816.4,340.8 817.9,340.4 819.8,340.0 821.8,339.6 824.2,339.3 826.8,338.9 829.5,338.5 832.5,338.2 835.6,337.8 838.8,337.4 842.0,337.1 845.3,336.7 848.5,336.3 851.7,335.9 854.6,335.6 857.4,335.2 859.7,334.8 861.7,334.5 863.3,334.1 864.3,333.7 864.9,333.4 865.0,333.0 864.7,332.6 864.1,332.2 863.4,331.9 862.6,331.5 861.8,331.1 861.1,330.8 860.6,330.4 860.4,330.0 860.4,329.7 860.7,329.3 861.4,328.9 862.2,328.5 863.3,328.2 864.6,327.8 865.8,327.4 867.0,327.1 868.1,326.7 868.8,326.3 869.1,326.0 868.9,325.6 868.2,325.2 867.1,324.8 865.6,324.5 863.8,324.1 861.9,323.7 859.9,323.4 857.9,323.0 856.1,322.6 854.4,322.3 852.7,321.9 851.1,321.5 849.5,321.1 847.7,320.8 845.6,320.4 843.3,320.0 840.7,319.7 837.8,319.3 834.6,318.9 831.4,318.5 828.2,318.2 825.1,317.8 822.3,317.4 819.9,317.1 817.8,316.7 816.0,316.3 814.7,316.0 813.7,315.6 809.6,315.6 808.6,316.0 807.3,316.3 805.6,316.7 803.5,317.1 801.0,317.4 798.2,317.8 795.1,318.2 791.9,318.5 788.7,318.9 785.6,319.3 782.7,319.7 780.0,320.0 777.7,320.4 775.7,320.8 773.9,321.1 772.2,321.5 770.6,321.9 769.0,322.3 767.2,322.6 765.4,323.0 763.5,323.4 761.5,323.7 759.5,324.1 757.7,324.5 756.2,324.8 755.1,325.2 754.4,325.6 754.3,326.0 754.6,326.3 755.3,326.7 756.3,327.1 757.5,327.4 758.8,327.8 760.0,328.2 761.1,328.5 762.0,328.9 762.6,329.3 762.9,329.7 763.0,330.0 762.7,330.4 762.2,330.8 761.6,331.1 760.8,331.5 760.0,331.9 759.2,332.2 758.6,332.6 758.4,333.0 758.5,333.4 759.0,333.7 760.1,334.1 761.6,334.5 763.6,334.8 766.0,335.2 768.7,335.6 771.7,335.9 774.8,336.3 778.0,336.7 781.3,337.1 784.6,337.4 787.8,337.8 790.8,338.2 793.8,338.5 796.6,338.9 799.1,339.3 801.5,339.6 803.6,340.0 805.4,340.4 806.9,340.8 808.2,341.1 809.2,341.5 810.0,341.9" fill="#2a8" opacity="0.5" stroke="#2a8" stroke-width="1"/>
<line x1="760.4" y1="328.3135264341216" x2="862.9" y2="328.3135264341216" stroke="#114" stroke-width="2"/>
<circle cx="811.6666666666666" cy="330.6755221478114" r="2.4" fill="#114"/>
<text x="811.6666666666666" y="312.1674890891033" text-anchor="middle" font-size="11">1.30</text>
<text x="811.6666666666666" y="376" text-anchor="middle" font-size="12">iamax</text>
<text x="450.0" y="428" text-anchor="middle" font-size="11" fill="#666">violin = ratio distribution over sizes · line = median · dark dot = worst size · green = every size ≥ gate</text>
</svg>
