<svg xmlns="http://www.w3.org/2000/svg" width="962" height="592" font-family="sans-serif">
<rect width="962" height="592" fill="white"/>
<text x="481.0" y="26" text-anchor="middle" font-size="17" font-weight="bold">Complex BLAS-2 — PureBLAS / AOCL (PB/AOCL ratio)</text>
<line x1="46" y1="42" x2="68" y2="42" stroke="#d62728" stroke-width="3"/>
<text x="73" y="46" font-size="12">Zen3 · AVX2</text>
<line x1="176" y1="42" x2="198" y2="42" stroke="#2ca02c" stroke-width="3"/>
<text x="203" y="46" font-size="12">Zen5 · AVX-512</text>
<line x1="327" y1="42" x2="349" y2="42" stroke="#1f77b4" stroke-width="3"/>
<text x="354" y="46" font-size="12">Zen4 · AVX-512</text>
<rect x="46" y="60" width="210" height="138" fill="none" stroke="#e2e2e2"/>
<line x1="46" y1="115.92056150212017" x2="256" y2="115.92056150212017" stroke="#d33" stroke-dasharray="4 3"/>
<text x="42" y="201.0" text-anchor="end" font-size="9" fill="#999">0.5×</text>
<text x="42" y="118.92056150212017" text-anchor="end" font-size="9" fill="#999">1.0×</text>
<text x="42" y="63.2648002692872" text-anchor="end" font-size="9" fill="#999">1.6×</text>
<polygon points="46.0,69.1 81.0,77.7 116.0,92.7 151.0,98.3 186.0,103.1 221.0,107.3 256.0,114.2 256.0,116.5 221.0,108.9 186.0,105.3 151.0,103.6 116.0,102.5 81.0,87.3 46.0,71.6" fill="#d62728" opacity="0.11"/>
<polyline points="46.0,70.0 81.0,83.1 116.0,98.7 151.0,100.7 186.0,103.9 221.0,107.7 256.0,115.7" fill="none" stroke="#d62728" stroke-width="1.6"/>
<circle cx="46.0" cy="70.0" r="2" fill="#d62728"/>
<circle cx="81.0" cy="83.1" r="2" fill="#d62728"/>
<circle cx="116.0" cy="98.7" r="2" fill="#d62728"/>
<circle cx="151.0" cy="100.7" r="2" fill="#d62728"/>
<circle cx="186.0" cy="103.9" r="2" fill="#d62728"/>
<circle cx="221.0" cy="107.7" r="2" fill="#d62728"/>
<circle cx="256.0" cy="115.7" r="2" fill="#d62728"/>
<polygon points="46.0,110.3 81.0,109.9 116.0,104.5 151.0,97.1 186.0,110.1 221.0,109.5 256.0,99.6 256.0,102.1 221.0,116.3 186.0,120.6 151.0,121.3 116.0,108.7 81.0,110.8 46.0,112.0" fill="#2ca02c" opacity="0.11"/>
<polyline points="46.0,111.4 81.0,110.6 116.0,106.7 151.0,106.0 186.0,117.5 221.0,112.4 256.0,101.3" fill="none" stroke="#2ca02c" stroke-width="1.6"/>
<circle cx="46.0" cy="111.4" r="2" fill="#2ca02c"/>
<circle cx="81.0" cy="110.6" r="2" fill="#2ca02c"/>
<circle cx="116.0" cy="106.7" r="2" fill="#2ca02c"/>
<circle cx="151.0" cy="106.0" r="2" fill="#2ca02c"/>
<circle cx="186.0" cy="117.5" r="2" fill="#2ca02c"/>
<circle cx="221.0" cy="112.4" r="2" fill="#2ca02c"/>
<circle cx="256.0" cy="101.3" r="2" fill="#2ca02c"/>
<polygon points="46.0,113.1 81.0,111.7 116.0,101.0 151.0,113.0 186.0,123.4 221.0,118.2 256.0,112.6 256.0,115.2 221.0,119.6 186.0,132.8 151.0,133.7 116.0,110.5 81.0,120.4 46.0,115.5" fill="#1f77b4" opacity="0.11"/>
<polyline points="46.0,113.6 81.0,113.1 116.0,102.8 151.0,122.1 186.0,130.5 221.0,119.2 256.0,115.0" fill="none" stroke="#1f77b4" stroke-width="1.6"/>
<circle cx="46.0" cy="113.6" r="2" fill="#1f77b4"/>
<circle cx="81.0" cy="113.1" r="2" fill="#1f77b4"/>
<circle cx="116.0" cy="102.8" r="2" fill="#1f77b4"/>
<circle cx="151.0" cy="122.1" r="2" fill="#1f77b4"/>
<circle cx="186.0" cy="130.5" r="2" fill="#1f77b4"/>
<circle cx="221.0" cy="119.2" r="2" fill="#1f77b4"/>
<circle cx="256.0" cy="115.0" r="2" fill="#1f77b4"/>
<text x="151.0" y="55" text-anchor="middle" font-size="12" font-weight="bold">zgemvN</text>
<line x1="46.0" y1="60" x2="46.0" y2="198" stroke="#f4f4f4"/>
<text x="46.0" y="209" text-anchor="middle" font-size="8" fill="#999">64</text>
<line x1="81.0" y1="60" x2="81.0" y2="198" stroke="#f4f4f4"/>
<text x="81.0" y="209" text-anchor="middle" font-size="8" fill="#999">128</text>
<line x1="116.0" y1="60" x2="116.0" y2="198" stroke="#f4f4f4"/>
<text x="116.0" y="209" text-anchor="middle" font-size="8" fill="#999">256</text>
<line x1="151.0" y1="60" x2="151.0" y2="198" stroke="#f4f4f4"/>
<text x="151.0" y="209" text-anchor="middle" font-size="8" fill="#999">512</text>
<line x1="186.0" y1="60" x2="186.0" y2="198" stroke="#f4f4f4"/>
<text x="186.0" y="209" text-anchor="middle" font-size="8" fill="#999">1k</text>
<line x1="221.0" y1="60" x2="221.0" y2="198" stroke="#f4f4f4"/>
<text x="221.0" y="209" text-anchor="middle" font-size="8" fill="#999">2k</text>
<line x1="256.0" y1="60" x2="256.0" y2="198" stroke="#f4f4f4"/>
<text x="256.0" y="209" text-anchor="middle" font-size="8" fill="#999">4k</text>
<rect x="276" y="60" width="210" height="138" fill="none" stroke="#e2e2e2"/>
<line x1="276" y1="115.76276119065531" x2="486" y2="115.76276119065531" stroke="#d33" stroke-dasharray="4 3"/>
<text x="272" y="201.0" text-anchor="end" font-size="9" fill="#999">0.5×</text>
<text x="272" y="118.76276119065531" text-anchor="end" font-size="9" fill="#999">1.0×</text>
<text x="272" y="63.0" text-anchor="end" font-size="9" fill="#999">1.6×</text>
<polygon points="276.0,90.9 311.0,94.2 346.0,106.9 381.0,116.5 416.0,119.4 451.0,121.0 486.0,112.6 486.0,115.7 451.0,122.0 416.0,122.7 381.0,119.0 346.0,117.4 311.0,109.9 276.0,92.7" fill="#d62728" opacity="0.11"/>
<polyline points="276.0,92.2 311.0,102.4 346.0,113.7 381.0,117.1 416.0,121.5 451.0,121.7 486.0,115.3" fill="none" stroke="#d62728" stroke-width="1.6"/>
<circle cx="276.0" cy="92.2" r="2" fill="#d62728"/>
<circle cx="311.0" cy="102.4" r="2" fill="#d62728"/>
<circle cx="346.0" cy="113.7" r="2" fill="#d62728"/>
<circle cx="381.0" cy="117.1" r="2" fill="#d62728"/>
<circle cx="416.0" cy="121.5" r="2" fill="#d62728"/>
<circle cx="451.0" cy="121.7" r="2" fill="#d62728"/>
<circle cx="486.0" cy="115.3" r="2" fill="#d62728"/>
<polygon points="276.0,117.1 311.0,116.3 346.0,109.6 381.0,81.1 416.0,98.9 451.0,113.9 486.0,102.9 486.0,105.0 451.0,122.1 416.0,126.2 381.0,108.1 346.0,112.0 311.0,117.3 276.0,119.3" fill="#2ca02c" opacity="0.11"/>
<polyline points="276.0,118.2 311.0,117.1 346.0,110.2 381.0,99.5 416.0,104.9 451.0,115.0 486.0,104.0" fill="none" stroke="#2ca02c" stroke-width="1.6"/>
<circle cx="276.0" cy="118.2" r="2" fill="#2ca02c"/>
<circle cx="311.0" cy="117.1" r="2" fill="#2ca02c"/>
<circle cx="346.0" cy="110.2" r="2" fill="#2ca02c"/>
<circle cx="381.0" cy="99.5" r="2" fill="#2ca02c"/>
<circle cx="416.0" cy="104.9" r="2" fill="#2ca02c"/>
<circle cx="451.0" cy="115.0" r="2" fill="#2ca02c"/>
<circle cx="486.0" cy="104.0" r="2" fill="#2ca02c"/>
<polygon points="276.0,112.0 311.0,108.8 346.0,96.5 381.0,117.9 416.0,120.2 451.0,114.9 486.0,110.0 486.0,112.1 451.0,118.0 416.0,129.8 381.0,120.6 346.0,101.9 311.0,115.4 276.0,113.6" fill="#1f77b4" opacity="0.11"/>
<polyline points="276.0,113.2 311.0,113.8 346.0,100.0 381.0,119.0 416.0,124.0 451.0,116.8 486.0,111.2" fill="none" stroke="#1f77b4" stroke-width="1.6"/>
<circle cx="276.0" cy="113.2" r="2" fill="#1f77b4"/>
<circle cx="311.0" cy="113.8" r="2" fill="#1f77b4"/>
<circle cx="346.0" cy="100.0" r="2" fill="#1f77b4"/>
<circle cx="381.0" cy="119.0" r="2" fill="#1f77b4"/>
<circle cx="416.0" cy="124.0" r="2" fill="#1f77b4"/>
<circle cx="451.0" cy="116.8" r="2" fill="#1f77b4"/>
<circle cx="486.0" cy="111.2" r="2" fill="#1f77b4"/>
<text x="381.0" y="55" text-anchor="middle" font-size="12" font-weight="bold">zgemvT</text>
<line x1="276.0" y1="60" x2="276.0" y2="198" stroke="#f4f4f4"/>
<text x="276.0" y="209" text-anchor="middle" font-size="8" fill="#999">64</text>
<line x1="311.0" y1="60" x2="311.0" y2="198" stroke="#f4f4f4"/>
<text x="311.0" y="209" text-anchor="middle" font-size="8" fill="#999">128</text>
<line x1="346.0" y1="60" x2="346.0" y2="198" stroke="#f4f4f4"/>
<text x="346.0" y="209" text-anchor="middle" font-size="8" fill="#999">256</text>
<line x1="381.0" y1="60" x2="381.0" y2="198" stroke="#f4f4f4"/>
<text x="381.0" y="209" text-anchor="middle" font-size="8" fill="#999">512</text>
<line x1="416.0" y1="60" x2="416.0" y2="198" stroke="#f4f4f4"/>
<text x="416.0" y="209" text-anchor="middle" font-size="8" fill="#999">1k</text>
<line x1="451.0" y1="60" x2="451.0" y2="198" stroke="#f4f4f4"/>
<text x="451.0" y="209" text-anchor="middle" font-size="8" fill="#999">2k</text>
<line x1="486.0" y1="60" x2="486.0" y2="198" stroke="#f4f4f4"/>
<text x="486.0" y="209" text-anchor="middle" font-size="8" fill="#999">4k</text>
<rect x="506" y="60" width="210" height="138" fill="none" stroke="#e2e2e2"/>
<line x1="506" y1="115.76276119065531" x2="716" y2="115.76276119065531" stroke="#d33" stroke-dasharray="4 3"/>
<text x="502" y="201.0" text-anchor="end" font-size="9" fill="#999">0.5×</text>
<text x="502" y="118.76276119065531" text-anchor="end" font-size="9" fill="#999">1.0×</text>
<text x="502" y="63.0" text-anchor="end" font-size="9" fill="#999">1.6×</text>
<polygon points="506.0,85.2 541.0,92.7 576.0,108.5 611.0,113.7 646.0,117.4 681.0,119.4 716.0,113.6 716.0,115.2 681.0,121.6 646.0,120.3 611.0,119.3 576.0,113.7 541.0,105.3 506.0,86.5" fill="#d62728" opacity="0.11"/>
<polyline points="506.0,85.7 541.0,98.6 576.0,110.9 611.0,115.8 646.0,119.2 681.0,121.0 716.0,114.7" fill="none" stroke="#d62728" stroke-width="1.6"/>
<circle cx="506.0" cy="85.7" r="2" fill="#d62728"/>
<circle cx="541.0" cy="98.6" r="2" fill="#d62728"/>
<circle cx="576.0" cy="110.9" r="2" fill="#d62728"/>
<circle cx="611.0" cy="115.8" r="2" fill="#d62728"/>
<circle cx="646.0" cy="119.2" r="2" fill="#d62728"/>
<circle cx="681.0" cy="121.0" r="2" fill="#d62728"/>
<circle cx="716.0" cy="114.7" r="2" fill="#d62728"/>
<polygon points="506.0,115.2 541.0,115.0 576.0,109.0 611.0,80.2 646.0,97.4 681.0,113.6 716.0,101.4 716.0,106.7 681.0,116.4 646.0,117.1 611.0,107.7 576.0,110.8 541.0,115.7 506.0,116.1" fill="#2ca02c" opacity="0.11"/>
<polyline points="506.0,115.4 541.0,115.6 576.0,109.7 611.0,99.5 646.0,107.9 681.0,114.5 716.0,104.3" fill="none" stroke="#2ca02c" stroke-width="1.6"/>
<circle cx="506.0" cy="115.4" r="2" fill="#2ca02c"/>
<circle cx="541.0" cy="115.6" r="2" fill="#2ca02c"/>
<circle cx="576.0" cy="109.7" r="2" fill="#2ca02c"/>
<circle cx="611.0" cy="99.5" r="2" fill="#2ca02c"/>
<circle cx="646.0" cy="107.9" r="2" fill="#2ca02c"/>
<circle cx="681.0" cy="114.5" r="2" fill="#2ca02c"/>
<circle cx="716.0" cy="104.3" r="2" fill="#2ca02c"/>
<polygon points="506.0,106.2 541.0,110.7 576.0,94.4 611.0,115.8 646.0,119.5 681.0,115.8 716.0,109.9 716.0,111.5 681.0,119.0 646.0,130.6 611.0,119.6 576.0,100.8 541.0,113.6 506.0,107.7" fill="#1f77b4" opacity="0.11"/>
<polyline points="506.0,107.0 541.0,111.7 576.0,97.9 611.0,117.8 646.0,129.3 681.0,117.3 716.0,110.5" fill="none" stroke="#1f77b4" stroke-width="1.6"/>
<circle cx="506.0" cy="107.0" r="2" fill="#1f77b4"/>
<circle cx="541.0" cy="111.7" r="2" fill="#1f77b4"/>
<circle cx="576.0" cy="97.9" r="2" fill="#1f77b4"/>
<circle cx="611.0" cy="117.8" r="2" fill="#1f77b4"/>
<circle cx="646.0" cy="129.3" r="2" fill="#1f77b4"/>
<circle cx="681.0" cy="117.3" r="2" fill="#1f77b4"/>
<circle cx="716.0" cy="110.5" r="2" fill="#1f77b4"/>
<text x="611.0" y="55" text-anchor="middle" font-size="12" font-weight="bold">zgemvC</text>
<line x1="506.0" y1="60" x2="506.0" y2="198" stroke="#f4f4f4"/>
<text x="506.0" y="209" text-anchor="middle" font-size="8" fill="#999">64</text>
<line x1="541.0" y1="60" x2="541.0" y2="198" stroke="#f4f4f4"/>
<text x="541.0" y="209" text-anchor="middle" font-size="8" fill="#999">128</text>
<line x1="576.0" y1="60" x2="576.0" y2="198" stroke="#f4f4f4"/>
<text x="576.0" y="209" text-anchor="middle" font-size="8" fill="#999">256</text>
<line x1="611.0" y1="60" x2="611.0" y2="198" stroke="#f4f4f4"/>
<text x="611.0" y="209" text-anchor="middle" font-size="8" fill="#999">512</text>
<line x1="646.0" y1="60" x2="646.0" y2="198" stroke="#f4f4f4"/>
<text x="646.0" y="209" text-anchor="middle" font-size="8" fill="#999">1k</text>
<line x1="681.0" y1="60" x2="681.0" y2="198" stroke="#f4f4f4"/>
<text x="681.0" y="209" text-anchor="middle" font-size="8" fill="#999">2k</text>
<line x1="716.0" y1="60" x2="716.0" y2="198" stroke="#f4f4f4"/>
<text x="716.0" y="209" text-anchor="middle" font-size="8" fill="#999">4k</text>
<rect x="736" y="60" width="210" height="138" fill="none" stroke="#e2e2e2"/>
<line x1="736" y1="119.65817764991165" x2="946" y2="119.65817764991165" stroke="#d33" stroke-dasharray="4 3"/>
<text x="732" y="201.0" text-anchor="end" font-size="9" fill="#999">0.5×</text>
<text x="732" y="122.65817764991165" text-anchor="end" font-size="9" fill="#999">1.0×</text>
<polygon points="736.0,68.7 771.0,70.8 806.0,79.3 841.0,80.6 876.0,83.0 911.0,115.9 946.0,116.7 946.0,119.7 911.0,118.1 876.0,86.1 841.0,84.4 806.0,82.3 771.0,75.5 736.0,71.4" fill="#d62728" opacity="0.11"/>
<polyline points="736.0,70.3 771.0,72.4 806.0,80.2 841.0,83.4 876.0,85.1 911.0,117.1 946.0,118.3" fill="none" stroke="#d62728" stroke-width="1.6"/>
<circle cx="736.0" cy="70.3" r="2" fill="#d62728"/>
<circle cx="771.0" cy="72.4" r="2" fill="#d62728"/>
<circle cx="806.0" cy="80.2" r="2" fill="#d62728"/>
<circle cx="841.0" cy="83.4" r="2" fill="#d62728"/>
<circle cx="876.0" cy="85.1" r="2" fill="#d62728"/>
<circle cx="911.0" cy="117.1" r="2" fill="#d62728"/>
<circle cx="946.0" cy="118.3" r="2" fill="#d62728"/>
<polygon points="736.0,108.3 771.0,111.0 806.0,114.4 841.0,113.6 876.0,119.9 911.0,123.7 946.0,124.6 946.0,125.9 911.0,126.8 876.0,129.1 841.0,118.8 806.0,117.9 771.0,112.2 736.0,113.9" fill="#2ca02c" opacity="0.11"/>
<polyline points="736.0,111.4 771.0,111.5 806.0,116.7 841.0,118.1 876.0,123.4 911.0,126.3 946.0,125.1" fill="none" stroke="#2ca02c" stroke-width="1.6"/>
<circle cx="736.0" cy="111.4" r="2" fill="#2ca02c"/>
<circle cx="771.0" cy="111.5" r="2" fill="#2ca02c"/>
<circle cx="806.0" cy="116.7" r="2" fill="#2ca02c"/>
<circle cx="841.0" cy="118.1" r="2" fill="#2ca02c"/>
<circle cx="876.0" cy="123.4" r="2" fill="#2ca02c"/>
<circle cx="911.0" cy="126.3" r="2" fill="#2ca02c"/>
<circle cx="946.0" cy="125.1" r="2" fill="#2ca02c"/>
<polygon points="736.0,98.0 771.0,101.8 806.0,100.4 841.0,111.3 876.0,119.1 911.0,120.8 946.0,120.6 946.0,123.2 911.0,122.9 876.0,147.3 841.0,130.7 806.0,145.0 771.0,111.3 736.0,103.6" fill="#1f77b4" opacity="0.11"/>
<polyline points="736.0,99.6 771.0,104.7 806.0,108.2 841.0,116.4 876.0,130.6 911.0,121.8 946.0,122.1" fill="none" stroke="#1f77b4" stroke-width="1.6"/>
<circle cx="736.0" cy="99.6" r="2" fill="#1f77b4"/>
<circle cx="771.0" cy="104.7" r="2" fill="#1f77b4"/>
<circle cx="806.0" cy="108.2" r="2" fill="#1f77b4"/>
<circle cx="841.0" cy="116.4" r="2" fill="#1f77b4"/>
<circle cx="876.0" cy="130.6" r="2" fill="#1f77b4"/>
<circle cx="911.0" cy="121.8" r="2" fill="#1f77b4"/>
<circle cx="946.0" cy="122.1" r="2" fill="#1f77b4"/>
<text x="841.0" y="55" text-anchor="middle" font-size="12" font-weight="bold">zgeru</text>
<line x1="736.0" y1="60" x2="736.0" y2="198" stroke="#f4f4f4"/>
<text x="736.0" y="209" text-anchor="middle" font-size="8" fill="#999">64</text>
<line x1="771.0" y1="60" x2="771.0" y2="198" stroke="#f4f4f4"/>
<text x="771.0" y="209" text-anchor="middle" font-size="8" fill="#999">128</text>
<line x1="806.0" y1="60" x2="806.0" y2="198" stroke="#f4f4f4"/>
<text x="806.0" y="209" text-anchor="middle" font-size="8" fill="#999">256</text>
<line x1="841.0" y1="60" x2="841.0" y2="198" stroke="#f4f4f4"/>
<text x="841.0" y="209" text-anchor="middle" font-size="8" fill="#999">512</text>
<line x1="876.0" y1="60" x2="876.0" y2="198" stroke="#f4f4f4"/>
<text x="876.0" y="209" text-anchor="middle" font-size="8" fill="#999">1k</text>
<line x1="911.0" y1="60" x2="911.0" y2="198" stroke="#f4f4f4"/>
<text x="911.0" y="209" text-anchor="middle" font-size="8" fill="#999">2k</text>
<line x1="946.0" y1="60" x2="946.0" y2="198" stroke="#f4f4f4"/>
<text x="946.0" y="209" text-anchor="middle" font-size="8" fill="#999">4k</text>
<rect x="46" y="232" width="210" height="138" fill="none" stroke="#e2e2e2"/>
<line x1="46" y1="319.7342581129794" x2="256" y2="319.7342581129794" stroke="#d33" stroke-dasharray="4 3"/>
<text x="42" y="373.0" text-anchor="end" font-size="9" fill="#999">0.5×</text>
<text x="42" y="322.7342581129794" text-anchor="end" font-size="9" fill="#999">1.0×</text>
<text x="42" y="235.06270667365396" text-anchor="end" font-size="9" fill="#999">3.35×</text>
<polygon points="46.0,300.5 81.0,306.5 116.0,314.6 151.0,316.7 186.0,318.7 221.0,321.9 256.0,324.2 256.0,327.6 221.0,323.9 186.0,322.7 151.0,320.5 116.0,318.3 81.0,308.0 46.0,301.2" fill="#d62728" opacity="0.11"/>
<polyline points="46.0,300.8 81.0,307.2 116.0,316.6 151.0,318.7 186.0,319.5 221.0,322.8 256.0,324.3" fill="none" stroke="#d62728" stroke-width="1.6"/>
<circle cx="46.0" cy="300.8" r="2" fill="#d62728"/>
<circle cx="81.0" cy="307.2" r="2" fill="#d62728"/>
<circle cx="116.0" cy="316.6" r="2" fill="#d62728"/>
<circle cx="151.0" cy="318.7" r="2" fill="#d62728"/>
<circle cx="186.0" cy="319.5" r="2" fill="#d62728"/>
<circle cx="221.0" cy="322.8" r="2" fill="#d62728"/>
<circle cx="256.0" cy="324.3" r="2" fill="#d62728"/>
<polygon points="46.0,275.0 81.0,265.8 116.0,257.4 151.0,254.2 186.0,253.7 221.0,249.1 256.0,251.5 256.0,252.8 221.0,252.8 186.0,257.1 151.0,256.8 116.0,259.0 81.0,266.5 46.0,276.5" fill="#2ca02c" opacity="0.11"/>
<polyline points="46.0,276.2 81.0,266.0 116.0,258.3 151.0,255.2 186.0,254.7 221.0,251.4 256.0,252.1" fill="none" stroke="#2ca02c" stroke-width="1.6"/>
<circle cx="46.0" cy="276.2" r="2" fill="#2ca02c"/>
<circle cx="81.0" cy="266.0" r="2" fill="#2ca02c"/>
<circle cx="116.0" cy="258.3" r="2" fill="#2ca02c"/>
<circle cx="151.0" cy="255.2" r="2" fill="#2ca02c"/>
<circle cx="186.0" cy="254.7" r="2" fill="#2ca02c"/>
<circle cx="221.0" cy="251.4" r="2" fill="#2ca02c"/>
<circle cx="256.0" cy="252.1" r="2" fill="#2ca02c"/>
<polygon points="46.0,272.2 81.0,257.1 116.0,245.4 151.0,239.3 186.0,237.6 221.0,264.5 256.0,251.5 256.0,263.7 221.0,267.7 186.0,243.3 151.0,241.2 116.0,249.5 81.0,259.2 46.0,272.9" fill="#1f77b4" opacity="0.11"/>
<polyline points="46.0,272.4 81.0,257.7 116.0,246.7 151.0,240.2 186.0,239.7 221.0,265.0 256.0,260.1" fill="none" stroke="#1f77b4" stroke-width="1.6"/>
<circle cx="46.0" cy="272.4" r="2" fill="#1f77b4"/>
<circle cx="81.0" cy="257.7" r="2" fill="#1f77b4"/>
<circle cx="116.0" cy="246.7" r="2" fill="#1f77b4"/>
<circle cx="151.0" cy="240.2" r="2" fill="#1f77b4"/>
<circle cx="186.0" cy="239.7" r="2" fill="#1f77b4"/>
<circle cx="221.0" cy="265.0" r="2" fill="#1f77b4"/>
<circle cx="256.0" cy="260.1" r="2" fill="#1f77b4"/>
<text x="151.0" y="227" text-anchor="middle" font-size="12" font-weight="bold">zhemv</text>
<line x1="46.0" y1="232" x2="46.0" y2="370" stroke="#f4f4f4"/>
<text x="46.0" y="381" text-anchor="middle" font-size="8" fill="#999">64</text>
<line x1="81.0" y1="232" x2="81.0" y2="370" stroke="#f4f4f4"/>
<text x="81.0" y="381" text-anchor="middle" font-size="8" fill="#999">128</text>
<line x1="116.0" y1="232" x2="116.0" y2="370" stroke="#f4f4f4"/>
<text x="116.0" y="381" text-anchor="middle" font-size="8" fill="#999">256</text>
<line x1="151.0" y1="232" x2="151.0" y2="370" stroke="#f4f4f4"/>
<text x="151.0" y="381" text-anchor="middle" font-size="8" fill="#999">512</text>
<line x1="186.0" y1="232" x2="186.0" y2="370" stroke="#f4f4f4"/>
<text x="186.0" y="381" text-anchor="middle" font-size="8" fill="#999">1k</text>
<line x1="221.0" y1="232" x2="221.0" y2="370" stroke="#f4f4f4"/>
<text x="221.0" y="381" text-anchor="middle" font-size="8" fill="#999">2k</text>
<line x1="256.0" y1="232" x2="256.0" y2="370" stroke="#f4f4f4"/>
<text x="256.0" y="381" text-anchor="middle" font-size="8" fill="#999">4k</text>
<rect x="276" y="232" width="210" height="138" fill="none" stroke="#e2e2e2"/>
<line x1="276" y1="307.69746556638273" x2="486" y2="307.69746556638273" stroke="#d33" stroke-dasharray="4 3"/>
<text x="272" y="373.0" text-anchor="end" font-size="9" fill="#999">0.5×</text>
<text x="272" y="310.69746556638273" text-anchor="end" font-size="9" fill="#999">1.0×</text>
<text x="272" y="235.0544130741781" text-anchor="end" font-size="9" fill="#999">2.32×</text>
<polygon points="276.0,238.9 311.0,247.1 346.0,274.7 381.0,262.5 416.0,257.9 451.0,249.0 486.0,269.6 486.0,272.3 451.0,251.1 416.0,259.9 381.0,265.4 346.0,279.1 311.0,251.1 276.0,242.7" fill="#d62728" opacity="0.11"/>
<polyline points="276.0,239.5 311.0,248.0 346.0,277.2 381.0,264.0 416.0,258.6 451.0,250.1 486.0,269.7" fill="none" stroke="#d62728" stroke-width="1.6"/>
<circle cx="276.0" cy="239.5" r="2" fill="#d62728"/>
<circle cx="311.0" cy="248.0" r="2" fill="#d62728"/>
<circle cx="346.0" cy="277.2" r="2" fill="#d62728"/>
<circle cx="381.0" cy="264.0" r="2" fill="#d62728"/>
<circle cx="416.0" cy="258.6" r="2" fill="#d62728"/>
<circle cx="451.0" cy="250.1" r="2" fill="#d62728"/>
<circle cx="486.0" cy="269.7" r="2" fill="#d62728"/>
<polygon points="276.0,261.6 311.0,264.0 346.0,279.1 381.0,294.8 416.0,304.1 451.0,277.4 486.0,280.0 486.0,282.1 451.0,280.2 416.0,312.8 381.0,303.8 346.0,284.2 311.0,266.0 276.0,267.7" fill="#2ca02c" opacity="0.11"/>
<polyline points="276.0,264.0 311.0,265.2 346.0,281.9 381.0,299.1 416.0,306.2 451.0,278.9 486.0,281.0" fill="none" stroke="#2ca02c" stroke-width="1.6"/>
<circle cx="276.0" cy="264.0" r="2" fill="#2ca02c"/>
<circle cx="311.0" cy="265.2" r="2" fill="#2ca02c"/>
<circle cx="346.0" cy="281.9" r="2" fill="#2ca02c"/>
<circle cx="381.0" cy="299.1" r="2" fill="#2ca02c"/>
<circle cx="416.0" cy="306.2" r="2" fill="#2ca02c"/>
<circle cx="451.0" cy="278.9" r="2" fill="#2ca02c"/>
<circle cx="486.0" cy="281.0" r="2" fill="#2ca02c"/>
<polygon points="276.0,256.9 311.0,266.3 346.0,283.4 381.0,292.8 416.0,287.0 451.0,267.0 486.0,263.9 486.0,275.3 451.0,271.0 416.0,313.5 381.0,301.9 346.0,298.1 311.0,270.2 276.0,259.2" fill="#1f77b4" opacity="0.11"/>
<polyline points="276.0,257.3 311.0,267.2 346.0,286.5 381.0,298.7 416.0,300.8 451.0,268.1 486.0,270.3" fill="none" stroke="#1f77b4" stroke-width="1.6"/>
<circle cx="276.0" cy="257.3" r="2" fill="#1f77b4"/>
<circle cx="311.0" cy="267.2" r="2" fill="#1f77b4"/>
<circle cx="346.0" cy="286.5" r="2" fill="#1f77b4"/>
<circle cx="381.0" cy="298.7" r="2" fill="#1f77b4"/>
<circle cx="416.0" cy="300.8" r="2" fill="#1f77b4"/>
<circle cx="451.0" cy="268.1" r="2" fill="#1f77b4"/>
<circle cx="486.0" cy="270.3" r="2" fill="#1f77b4"/>
<text x="381.0" y="227" text-anchor="middle" font-size="12" font-weight="bold">ztrmv</text>
<line x1="276.0" y1="232" x2="276.0" y2="370" stroke="#f4f4f4"/>
<text x="276.0" y="381" text-anchor="middle" font-size="8" fill="#999">64</text>
<line x1="311.0" y1="232" x2="311.0" y2="370" stroke="#f4f4f4"/>
<text x="311.0" y="381" text-anchor="middle" font-size="8" fill="#999">128</text>
<line x1="346.0" y1="232" x2="346.0" y2="370" stroke="#f4f4f4"/>
<text x="346.0" y="381" text-anchor="middle" font-size="8" fill="#999">256</text>
<line x1="381.0" y1="232" x2="381.0" y2="370" stroke="#f4f4f4"/>
<text x="381.0" y="381" text-anchor="middle" font-size="8" fill="#999">512</text>
<line x1="416.0" y1="232" x2="416.0" y2="370" stroke="#f4f4f4"/>
<text x="416.0" y="381" text-anchor="middle" font-size="8" fill="#999">1k</text>
<line x1="451.0" y1="232" x2="451.0" y2="370" stroke="#f4f4f4"/>
<text x="451.0" y="381" text-anchor="middle" font-size="8" fill="#999">2k</text>
<line x1="486.0" y1="232" x2="486.0" y2="370" stroke="#f4f4f4"/>
<text x="486.0" y="381" text-anchor="middle" font-size="8" fill="#999">4k</text>
<rect x="506" y="232" width="210" height="138" fill="none" stroke="#e2e2e2"/>
<line x1="506" y1="291.1652403040529" x2="716" y2="291.1652403040529" stroke="#d33" stroke-dasharray="4 3"/>
<text x="502" y="373.0" text-anchor="end" font-size="9" fill="#999">0.5×</text>
<text x="502" y="294.1652403040529" text-anchor="end" font-size="9" fill="#999">1.0×</text>
<text x="502" y="235.16047885844745" text-anchor="end" font-size="9" fill="#999">1.68×</text>
<polygon points="506.0,240.8 541.0,255.5 576.0,280.0 611.0,268.0 646.0,266.6 681.0,280.0 716.0,287.8 716.0,290.1 681.0,281.0 646.0,269.9 611.0,271.3 576.0,287.0 541.0,261.1 506.0,242.1" fill="#d62728" opacity="0.11"/>
<polyline points="506.0,241.1 541.0,257.8 576.0,284.4 611.0,269.6 646.0,268.3 681.0,280.6 716.0,289.7" fill="none" stroke="#d62728" stroke-width="1.6"/>
<circle cx="506.0" cy="241.1" r="2" fill="#d62728"/>
<circle cx="541.0" cy="257.8" r="2" fill="#d62728"/>
<circle cx="576.0" cy="284.4" r="2" fill="#d62728"/>
<circle cx="611.0" cy="269.6" r="2" fill="#d62728"/>
<circle cx="646.0" cy="268.3" r="2" fill="#d62728"/>
<circle cx="681.0" cy="280.6" r="2" fill="#d62728"/>
<circle cx="716.0" cy="289.7" r="2" fill="#d62728"/>
<polygon points="506.0,252.4 541.0,252.4 576.0,254.1 611.0,264.7 646.0,274.8 681.0,270.6 716.0,279.9 716.0,285.0 681.0,276.8 646.0,280.5 611.0,269.9 576.0,257.3 541.0,252.8 506.0,254.0" fill="#2ca02c" opacity="0.11"/>
<polyline points="506.0,252.9 541.0,252.6 576.0,255.9 611.0,265.7 646.0,276.9 681.0,273.4 716.0,283.0" fill="none" stroke="#2ca02c" stroke-width="1.6"/>
<circle cx="506.0" cy="252.9" r="2" fill="#2ca02c"/>
<circle cx="541.0" cy="252.6" r="2" fill="#2ca02c"/>
<circle cx="576.0" cy="255.9" r="2" fill="#2ca02c"/>
<circle cx="611.0" cy="265.7" r="2" fill="#2ca02c"/>
<circle cx="646.0" cy="276.9" r="2" fill="#2ca02c"/>
<circle cx="681.0" cy="273.4" r="2" fill="#2ca02c"/>
<circle cx="716.0" cy="283.0" r="2" fill="#2ca02c"/>
<polygon points="506.0,242.6 541.0,250.4 576.0,250.3 611.0,263.1 646.0,288.1 681.0,282.3 716.0,282.8 716.0,286.2 681.0,288.6 646.0,300.3 611.0,276.0 576.0,262.3 541.0,253.6 506.0,245.8" fill="#1f77b4" opacity="0.11"/>
<polyline points="506.0,244.7 541.0,251.9 576.0,255.5 611.0,269.4 646.0,289.9 681.0,282.9 716.0,284.4" fill="none" stroke="#1f77b4" stroke-width="1.6"/>
<circle cx="506.0" cy="244.7" r="2" fill="#1f77b4"/>
<circle cx="541.0" cy="251.9" r="2" fill="#1f77b4"/>
<circle cx="576.0" cy="255.5" r="2" fill="#1f77b4"/>
<circle cx="611.0" cy="269.4" r="2" fill="#1f77b4"/>
<circle cx="646.0" cy="289.9" r="2" fill="#1f77b4"/>
<circle cx="681.0" cy="282.9" r="2" fill="#1f77b4"/>
<circle cx="716.0" cy="284.4" r="2" fill="#1f77b4"/>
<text x="611.0" y="227" text-anchor="middle" font-size="12" font-weight="bold">ztrsv</text>
<line x1="506.0" y1="232" x2="506.0" y2="370" stroke="#f4f4f4"/>
<text x="506.0" y="381" text-anchor="middle" font-size="8" fill="#999">64</text>
<line x1="541.0" y1="232" x2="541.0" y2="370" stroke="#f4f4f4"/>
<text x="541.0" y="381" text-anchor="middle" font-size="8" fill="#999">128</text>
<line x1="576.0" y1="232" x2="576.0" y2="370" stroke="#f4f4f4"/>
<text x="576.0" y="381" text-anchor="middle" font-size="8" fill="#999">256</text>
<line x1="611.0" y1="232" x2="611.0" y2="370" stroke="#f4f4f4"/>
<text x="611.0" y="381" text-anchor="middle" font-size="8" fill="#999">512</text>
<line x1="646.0" y1="232" x2="646.0" y2="370" stroke="#f4f4f4"/>
<text x="646.0" y="381" text-anchor="middle" font-size="8" fill="#999">1k</text>
<line x1="681.0" y1="232" x2="681.0" y2="370" stroke="#f4f4f4"/>
<text x="681.0" y="381" text-anchor="middle" font-size="8" fill="#999">2k</text>
<line x1="716.0" y1="232" x2="716.0" y2="370" stroke="#f4f4f4"/>
<text x="716.0" y="381" text-anchor="middle" font-size="8" fill="#999">4k</text>
<rect x="736" y="232" width="210" height="138" fill="none" stroke="#e2e2e2"/>
<line x1="736" y1="339.34432113960656" x2="946" y2="339.34432113960656" stroke="#d33" stroke-dasharray="4 3"/>
<text x="732" y="373.0" text-anchor="end" font-size="9" fill="#999">0.5×</text>
<text x="732" y="342.34432113960656" text-anchor="end" font-size="9" fill="#999">1.0×</text>
<polygon points="736.0,270.1 771.0,258.5 806.0,251.7 841.0,248.1 876.0,249.1 911.0,258.9 946.0,265.2 946.0,267.4 911.0,259.7 876.0,249.5 841.0,249.6 806.0,252.6 771.0,259.4 736.0,271.3" fill="#d62728" opacity="0.11"/>
<polyline points="736.0,270.4 771.0,258.9 806.0,252.1 841.0,248.9 876.0,249.3 911.0,259.1 946.0,267.0" fill="none" stroke="#d62728" stroke-width="1.6"/>
<circle cx="736.0" cy="270.4" r="2" fill="#d62728"/>
<circle cx="771.0" cy="258.9" r="2" fill="#d62728"/>
<circle cx="806.0" cy="252.1" r="2" fill="#d62728"/>
<circle cx="841.0" cy="248.9" r="2" fill="#d62728"/>
<circle cx="876.0" cy="249.3" r="2" fill="#d62728"/>
<circle cx="911.0" cy="259.1" r="2" fill="#d62728"/>
<circle cx="946.0" cy="267.0" r="2" fill="#d62728"/>
<polygon points="736.0,270.5 771.0,254.0 806.0,244.3 841.0,238.5 876.0,235.4 911.0,254.3 946.0,258.2 946.0,258.7 911.0,255.8 876.0,236.4 841.0,239.9 806.0,244.9 771.0,254.4 736.0,271.6" fill="#2ca02c" opacity="0.11"/>
<polyline points="736.0,270.8 771.0,254.1 806.0,244.5 841.0,238.7 876.0,236.0 911.0,255.2 946.0,258.5" fill="none" stroke="#2ca02c" stroke-width="1.6"/>
<circle cx="736.0" cy="270.8" r="2" fill="#2ca02c"/>
<circle cx="771.0" cy="254.1" r="2" fill="#2ca02c"/>
<circle cx="806.0" cy="244.5" r="2" fill="#2ca02c"/>
<circle cx="841.0" cy="238.7" r="2" fill="#2ca02c"/>
<circle cx="876.0" cy="236.0" r="2" fill="#2ca02c"/>
<circle cx="911.0" cy="255.2" r="2" fill="#2ca02c"/>
<circle cx="946.0" cy="258.5" r="2" fill="#2ca02c"/>
<polygon points="736.0,271.4 771.0,256.8 806.0,246.9 841.0,241.8 876.0,246.0 911.0,274.5 946.0,275.4 946.0,280.1 911.0,275.7 876.0,248.2 841.0,242.6 806.0,247.5 771.0,258.0 736.0,272.5" fill="#1f77b4" opacity="0.11"/>
<polyline points="736.0,271.8 771.0,257.1 806.0,247.1 841.0,242.2 876.0,247.4 911.0,275.2 946.0,275.7" fill="none" stroke="#1f77b4" stroke-width="1.6"/>
<circle cx="736.0" cy="271.8" r="2" fill="#1f77b4"/>
<circle cx="771.0" cy="257.1" r="2" fill="#1f77b4"/>
<circle cx="806.0" cy="247.1" r="2" fill="#1f77b4"/>
<circle cx="841.0" cy="242.2" r="2" fill="#1f77b4"/>
<circle cx="876.0" cy="247.4" r="2" fill="#1f77b4"/>
<circle cx="911.0" cy="275.2" r="2" fill="#1f77b4"/>
<circle cx="946.0" cy="275.7" r="2" fill="#1f77b4"/>
<text x="841.0" y="227" text-anchor="middle" font-size="12" font-weight="bold">zhpmv</text>
<line x1="736.0" y1="232" x2="736.0" y2="370" stroke="#f4f4f4"/>
<text x="736.0" y="381" text-anchor="middle" font-size="8" fill="#999">64</text>
<line x1="771.0" y1="232" x2="771.0" y2="370" stroke="#f4f4f4"/>
<text x="771.0" y="381" text-anchor="middle" font-size="8" fill="#999">128</text>
<line x1="806.0" y1="232" x2="806.0" y2="370" stroke="#f4f4f4"/>
<text x="806.0" y="381" text-anchor="middle" font-size="8" fill="#999">256</text>
<line x1="841.0" y1="232" x2="841.0" y2="370" stroke="#f4f4f4"/>
<text x="841.0" y="381" text-anchor="middle" font-size="8" fill="#999">512</text>
<line x1="876.0" y1="232" x2="876.0" y2="370" stroke="#f4f4f4"/>
<text x="876.0" y="381" text-anchor="middle" font-size="8" fill="#999">1k</text>
<line x1="911.0" y1="232" x2="911.0" y2="370" stroke="#f4f4f4"/>
<text x="911.0" y="381" text-anchor="middle" font-size="8" fill="#999">2k</text>
<line x1="946.0" y1="232" x2="946.0" y2="370" stroke="#f4f4f4"/>
<text x="946.0" y="381" text-anchor="middle" font-size="8" fill="#999">4k</text>
<rect x="46" y="404" width="210" height="138" fill="none" stroke="#e2e2e2"/>
<line x1="46" y1="484.1340596007236" x2="256" y2="484.1340596007236" stroke="#d33" stroke-dasharray="4 3"/>
<text x="42" y="545.0" text-anchor="end" font-size="9" fill="#999">0.5×</text>
<text x="42" y="487.1340596007236" text-anchor="end" font-size="9" fill="#999">1.0×</text>
<text x="42" y="407.0447159710849" text-anchor="end" font-size="9" fill="#999">2.61×</text>
<polygon points="46.0,418.7 81.0,419.6 116.0,421.1 151.0,421.6 186.0,423.8 221.0,423.9 256.0,424.9 256.0,426.6 221.0,425.3 186.0,426.4 151.0,423.9 116.0,424.2 81.0,425.1 46.0,427.8" fill="#d62728" opacity="0.11"/>
<polyline points="46.0,420.8 81.0,422.4 116.0,421.8 151.0,422.5 186.0,425.3 221.0,424.6 256.0,425.5" fill="none" stroke="#d62728" stroke-width="1.6"/>
<circle cx="46.0" cy="420.8" r="2" fill="#d62728"/>
<circle cx="81.0" cy="422.4" r="2" fill="#d62728"/>
<circle cx="116.0" cy="421.8" r="2" fill="#d62728"/>
<circle cx="151.0" cy="422.5" r="2" fill="#d62728"/>
<circle cx="186.0" cy="425.3" r="2" fill="#d62728"/>
<circle cx="221.0" cy="424.6" r="2" fill="#d62728"/>
<circle cx="256.0" cy="425.5" r="2" fill="#d62728"/>
<polygon points="46.0,411.4 81.0,410.4 116.0,413.0 151.0,413.1 186.0,413.3 221.0,414.9 256.0,414.9 256.0,415.8 221.0,415.9 186.0,413.8 151.0,414.1 116.0,414.0 81.0,415.5 46.0,419.5" fill="#2ca02c" opacity="0.11"/>
<polyline points="46.0,412.4 81.0,411.5 116.0,413.3 151.0,413.6 186.0,413.6 221.0,415.4 256.0,415.3" fill="none" stroke="#2ca02c" stroke-width="1.6"/>
<circle cx="46.0" cy="412.4" r="2" fill="#2ca02c"/>
<circle cx="81.0" cy="411.5" r="2" fill="#2ca02c"/>
<circle cx="116.0" cy="413.3" r="2" fill="#2ca02c"/>
<circle cx="151.0" cy="413.6" r="2" fill="#2ca02c"/>
<circle cx="186.0" cy="413.6" r="2" fill="#2ca02c"/>
<circle cx="221.0" cy="415.4" r="2" fill="#2ca02c"/>
<circle cx="256.0" cy="415.3" r="2" fill="#2ca02c"/>
<polygon points="46.0,426.7 81.0,427.5 116.0,429.4 151.0,429.9 186.0,430.1 221.0,431.8 256.0,432.2 256.0,433.7 221.0,434.1 186.0,432.6 151.0,432.3 116.0,432.5 81.0,434.5 46.0,438.0" fill="#1f77b4" opacity="0.11"/>
<polyline points="46.0,428.3 81.0,431.1 116.0,430.3 151.0,430.9 186.0,431.4 221.0,433.1 256.0,432.8" fill="none" stroke="#1f77b4" stroke-width="1.6"/>
<circle cx="46.0" cy="428.3" r="2" fill="#1f77b4"/>
<circle cx="81.0" cy="431.1" r="2" fill="#1f77b4"/>
<circle cx="116.0" cy="430.3" r="2" fill="#1f77b4"/>
<circle cx="151.0" cy="430.9" r="2" fill="#1f77b4"/>
<circle cx="186.0" cy="431.4" r="2" fill="#1f77b4"/>
<circle cx="221.0" cy="433.1" r="2" fill="#1f77b4"/>
<circle cx="256.0" cy="432.8" r="2" fill="#1f77b4"/>
<text x="151.0" y="399" text-anchor="middle" font-size="12" font-weight="bold">zgbmvN</text>
<line x1="46.0" y1="404" x2="46.0" y2="542" stroke="#f4f4f4"/>
<text x="46.0" y="553" text-anchor="middle" font-size="8" fill="#999">64</text>
<line x1="81.0" y1="404" x2="81.0" y2="542" stroke="#f4f4f4"/>
<text x="81.0" y="553" text-anchor="middle" font-size="8" fill="#999">128</text>
<line x1="116.0" y1="404" x2="116.0" y2="542" stroke="#f4f4f4"/>
<text x="116.0" y="553" text-anchor="middle" font-size="8" fill="#999">256</text>
<line x1="151.0" y1="404" x2="151.0" y2="542" stroke="#f4f4f4"/>
<text x="151.0" y="553" text-anchor="middle" font-size="8" fill="#999">512</text>
<line x1="186.0" y1="404" x2="186.0" y2="542" stroke="#f4f4f4"/>
<text x="186.0" y="553" text-anchor="middle" font-size="8" fill="#999">1k</text>
<line x1="221.0" y1="404" x2="221.0" y2="542" stroke="#f4f4f4"/>
<text x="221.0" y="553" text-anchor="middle" font-size="8" fill="#999">2k</text>
<line x1="256.0" y1="404" x2="256.0" y2="542" stroke="#f4f4f4"/>
<text x="256.0" y="553" text-anchor="middle" font-size="8" fill="#999">4k</text>
<rect x="276" y="404" width="210" height="138" fill="none" stroke="#e2e2e2"/>
<line x1="276" y1="489.2983041148982" x2="486" y2="489.2983041148982" stroke="#d33" stroke-dasharray="4 3"/>
<text x="272" y="545.0" text-anchor="end" font-size="9" fill="#999">0.5×</text>
<text x="272" y="492.2983041148982" text-anchor="end" font-size="9" fill="#999">1.0×</text>
<text x="272" y="407.01438261819067" text-anchor="end" font-size="9" fill="#999">3.07×</text>
<polygon points="276.0,414.7 311.0,411.4 346.0,410.5 381.0,410.0 416.0,409.9 451.0,410.2 486.0,410.3 486.0,410.9 451.0,411.0 416.0,410.9 381.0,411.0 346.0,412.8 311.0,413.7 276.0,418.5" fill="#d62728" opacity="0.11"/>
<polyline points="276.0,415.1 311.0,412.3 346.0,410.9 381.0,410.4 416.0,410.2 451.0,410.6 486.0,410.5" fill="none" stroke="#d62728" stroke-width="1.6"/>
<circle cx="276.0" cy="415.1" r="2" fill="#d62728"/>
<circle cx="311.0" cy="412.3" r="2" fill="#d62728"/>
<circle cx="346.0" cy="410.9" r="2" fill="#d62728"/>
<circle cx="381.0" cy="410.4" r="2" fill="#d62728"/>
<circle cx="416.0" cy="410.2" r="2" fill="#d62728"/>
<circle cx="451.0" cy="410.6" r="2" fill="#d62728"/>
<circle cx="486.0" cy="410.5" r="2" fill="#d62728"/>
<polygon points="276.0,426.6 311.0,423.4 346.0,422.4 381.0,422.0 416.0,421.7 451.0,421.6 486.0,421.7 486.0,422.4 451.0,422.0 416.0,422.1 381.0,422.3 346.0,423.8 311.0,425.2 276.0,429.9" fill="#2ca02c" opacity="0.11"/>
<polyline points="276.0,426.9 311.0,424.1 346.0,423.1 381.0,422.1 416.0,421.8 451.0,421.7 486.0,421.9" fill="none" stroke="#2ca02c" stroke-width="1.6"/>
<circle cx="276.0" cy="426.9" r="2" fill="#2ca02c"/>
<circle cx="311.0" cy="424.1" r="2" fill="#2ca02c"/>
<circle cx="346.0" cy="423.1" r="2" fill="#2ca02c"/>
<circle cx="381.0" cy="422.1" r="2" fill="#2ca02c"/>
<circle cx="416.0" cy="421.8" r="2" fill="#2ca02c"/>
<circle cx="451.0" cy="421.7" r="2" fill="#2ca02c"/>
<circle cx="486.0" cy="421.9" r="2" fill="#2ca02c"/>
<polygon points="276.0,424.0 311.0,421.1 346.0,420.1 381.0,420.0 416.0,419.8 451.0,419.9 486.0,420.2 486.0,420.9 451.0,421.1 416.0,421.5 381.0,421.9 346.0,422.8 311.0,425.3 276.0,426.7" fill="#1f77b4" opacity="0.11"/>
<polyline points="276.0,424.8 311.0,422.3 346.0,420.7 381.0,420.4 416.0,420.3 451.0,420.2 486.0,420.5" fill="none" stroke="#1f77b4" stroke-width="1.6"/>
<circle cx="276.0" cy="424.8" r="2" fill="#1f77b4"/>
<circle cx="311.0" cy="422.3" r="2" fill="#1f77b4"/>
<circle cx="346.0" cy="420.7" r="2" fill="#1f77b4"/>
<circle cx="381.0" cy="420.4" r="2" fill="#1f77b4"/>
<circle cx="416.0" cy="420.3" r="2" fill="#1f77b4"/>
<circle cx="451.0" cy="420.2" r="2" fill="#1f77b4"/>
<circle cx="486.0" cy="420.5" r="2" fill="#1f77b4"/>
<text x="381.0" y="399" text-anchor="middle" font-size="12" font-weight="bold">zhbmv</text>
<line x1="276.0" y1="404" x2="276.0" y2="542" stroke="#f4f4f4"/>
<text x="276.0" y="553" text-anchor="middle" font-size="8" fill="#999">64</text>
<line x1="311.0" y1="404" x2="311.0" y2="542" stroke="#f4f4f4"/>
<text x="311.0" y="553" text-anchor="middle" font-size="8" fill="#999">128</text>
<line x1="346.0" y1="404" x2="346.0" y2="542" stroke="#f4f4f4"/>
<text x="346.0" y="553" text-anchor="middle" font-size="8" fill="#999">256</text>
<line x1="381.0" y1="404" x2="381.0" y2="542" stroke="#f4f4f4"/>
<text x="381.0" y="553" text-anchor="middle" font-size="8" fill="#999">512</text>
<line x1="416.0" y1="404" x2="416.0" y2="542" stroke="#f4f4f4"/>
<text x="416.0" y="553" text-anchor="middle" font-size="8" fill="#999">1k</text>
<line x1="451.0" y1="404" x2="451.0" y2="542" stroke="#f4f4f4"/>
<text x="451.0" y="553" text-anchor="middle" font-size="8" fill="#999">2k</text>
<line x1="486.0" y1="404" x2="486.0" y2="542" stroke="#f4f4f4"/>
<text x="486.0" y="553" text-anchor="middle" font-size="8" fill="#999">4k</text>
</svg>
