<svg xmlns="http://www.w3.org/2000/svg" width="900" height="460" font-family="sans-serif">
<rect width="900" height="460" fill="white"/>
<text x="450.0" y="28" text-anchor="middle" font-size="18" font-weight="bold">Complex BLAS-3: PureBLAS / OpenBLAS (AVX-512 native (Zen5), 1 thread, ComplexF64)</text>
<line x1="62" y1="400.0" x2="768" y2="400.0" stroke="#eee"/>
<text x="54" y="404.0" text-anchor="end" font-size="11" fill="#666">0.5×</text>
<line x1="62" y1="331.2983489821192" x2="768" y2="331.2983489821192" stroke="#eee"/>
<text x="54" y="335.2983489821192" text-anchor="end" font-size="11" fill="#666">0.7×</text>
<line x1="62" y1="258.47166416744653" x2="768" y2="258.47166416744653" stroke="#eee"/>
<text x="54" y="262.47166416744653" text-anchor="end" font-size="11" fill="#666">1.0×</text>
<line x1="62" y1="175.68289491593254" x2="768" y2="175.68289491593254" stroke="#eee"/>
<text x="54" y="179.68289491593254" text-anchor="end" font-size="11" fill="#666">1.5×</text>
<line x1="62" y1="116.94332833489318" x2="768" y2="116.94332833489318" stroke="#eee"/>
<text x="54" y="120.94332833489318" text-anchor="end" font-size="11" fill="#666">2.0×</text>
<line x1="62.0" y1="50" x2="62.0" y2="400" stroke="#f4f4f4"/>
<text x="62.0" y="418" text-anchor="middle" font-size="11" fill="#444">8</text>
<line x1="238.5" y1="50" x2="238.5" y2="400" stroke="#f4f4f4"/>
<text x="238.5" y="418" text-anchor="middle" font-size="11" fill="#444">32</text>
<line x1="415.0" y1="50" x2="415.0" y2="400" stroke="#f4f4f4"/>
<text x="415.0" y="418" text-anchor="middle" font-size="11" fill="#444">128</text>
<line x1="503.25" y1="50" x2="503.25" y2="400" stroke="#f4f4f4"/>
<text x="503.25" y="418" text-anchor="middle" font-size="11" fill="#444">256</text>
<line x1="591.5" y1="50" x2="591.5" y2="400" stroke="#f4f4f4"/>
<text x="591.5" y="418" text-anchor="middle" font-size="11" fill="#444">512</text>
<line x1="679.75" y1="50" x2="679.75" y2="400" stroke="#f4f4f4"/>
<text x="679.75" y="418" text-anchor="middle" font-size="11" fill="#444">1024</text>
<line x1="768.0" y1="50" x2="768.0" y2="400" stroke="#f4f4f4"/>
<text x="768.0" y="418" text-anchor="middle" font-size="11" fill="#444">2048</text>
<line x1="62" y1="258.47166416744653" x2="768" y2="258.47166416744653" stroke="#888"/>
<line x1="62" y1="266.806789970238" x2="768" y2="266.806789970238" stroke="#d33" stroke-width="1.5" stroke-dasharray="6 4"/>
<text x="66" y="261.806789970238" font-size="11" fill="#d33">0.96× gate</text>
<polygon points="62.0,81.4 238.5,166.7 415.0,205.8 503.2,212.8 591.5,219.1 679.8,223.0 768.0,224.9 768.0,224.9 679.8,223.1 591.5,219.7 503.2,213.6 415.0,206.5 238.5,170.5 62.0,85.5" fill="#1f77b4" opacity="0.14" stroke="none"/>
<polyline points="62.0,82.9 238.5,167.4 415.0,206.0 503.2,213.1 591.5,219.4 679.8,223.1 768.0,224.9" fill="none" stroke="#1f77b4" stroke-width="2"/>
<circle cx="62.0" cy="82.9" r="3" fill="#1f77b4"/>
<circle cx="238.5" cy="167.4" r="3" fill="#1f77b4"/>
<circle cx="415.0" cy="206.0" r="3" fill="#1f77b4"/>
<circle cx="503.2" cy="213.1" r="3" fill="#1f77b4"/>
<circle cx="591.5" cy="219.4" r="3" fill="#1f77b4"/>
<circle cx="679.8" cy="223.1" r="3" fill="#1f77b4"/>
<circle cx="768.0" cy="224.9" r="3" fill="#1f77b4"/>
<line x1="782" y1="56" x2="802" y2="56" stroke="#1f77b4" stroke-width="3"/>
<text x="806" y="60" font-size="12">zgemm</text>
<polygon points="62.0,193.7 238.5,200.7 415.0,224.9 503.2,214.9 591.5,220.5 679.8,224.3 768.0,225.1 768.0,225.1 679.8,224.7 591.5,222.5 503.2,215.6 415.0,227.8 238.5,201.3 62.0,246.7" fill="#d62728" opacity="0.14" stroke="none"/>
<polyline points="62.0,218.9 238.5,200.9 415.0,225.7 503.2,215.2 591.5,220.6 679.8,224.4 768.0,225.1" fill="none" stroke="#d62728" stroke-width="2"/>
<circle cx="62.0" cy="218.9" r="3" fill="#d62728"/>
<circle cx="238.5" cy="200.9" r="3" fill="#d62728"/>
<circle cx="415.0" cy="225.7" r="3" fill="#d62728"/>
<circle cx="503.2" cy="215.2" r="3" fill="#d62728"/>
<circle cx="591.5" cy="220.6" r="3" fill="#d62728"/>
<circle cx="679.8" cy="224.4" r="3" fill="#d62728"/>
<circle cx="768.0" cy="225.1" r="3" fill="#d62728"/>
<line x1="782" y1="74" x2="802" y2="74" stroke="#d62728" stroke-width="3"/>
<text x="806" y="78" font-size="12">zhemm</text>
<polygon points="62.0,193.1 238.5,205.5 415.0,219.8 503.2,219.0 591.5,225.8 679.8,226.1 768.0,226.7 768.0,226.9 679.8,226.8 591.5,226.7 503.2,219.6 415.0,220.9 238.5,206.0 62.0,197.0" fill="#2ca02c" opacity="0.14" stroke="none"/>
<polyline points="62.0,194.2 238.5,205.8 415.0,220.3 503.2,219.3 591.5,226.1 679.8,226.2 768.0,226.9" fill="none" stroke="#2ca02c" stroke-width="2"/>
<circle cx="62.0" cy="194.2" r="3" fill="#2ca02c"/>
<circle cx="238.5" cy="205.8" r="3" fill="#2ca02c"/>
<circle cx="415.0" cy="220.3" r="3" fill="#2ca02c"/>
<circle cx="503.2" cy="219.3" r="3" fill="#2ca02c"/>
<circle cx="591.5" cy="226.1" r="3" fill="#2ca02c"/>
<circle cx="679.8" cy="226.2" r="3" fill="#2ca02c"/>
<circle cx="768.0" cy="226.9" r="3" fill="#2ca02c"/>
<line x1="782" y1="92" x2="802" y2="92" stroke="#2ca02c" stroke-width="3"/>
<text x="806" y="96" font-size="12">zsymm</text>
<polygon points="62.0,70.0 238.5,240.2 415.0,242.2 503.2,220.7 591.5,225.1 679.8,222.4 768.0,225.0 768.0,225.6 679.8,223.2 591.5,227.3 503.2,221.3 415.0,251.6 238.5,244.8 62.0,92.5" fill="#9467bd" opacity="0.14" stroke="none"/>
<polyline points="62.0,78.5 238.5,243.4 415.0,244.7 503.2,221.0 591.5,226.8 679.8,222.8 768.0,225.4" fill="none" stroke="#9467bd" stroke-width="2"/>
<circle cx="62.0" cy="78.5" r="3" fill="#9467bd"/>
<circle cx="238.5" cy="243.4" r="3" fill="#9467bd"/>
<circle cx="415.0" cy="244.7" r="3" fill="#9467bd"/>
<circle cx="503.2" cy="221.0" r="3" fill="#9467bd"/>
<circle cx="591.5" cy="226.8" r="3" fill="#9467bd"/>
<circle cx="679.8" cy="222.8" r="3" fill="#9467bd"/>
<circle cx="768.0" cy="225.4" r="3" fill="#9467bd"/>
<line x1="782" y1="110" x2="802" y2="110" stroke="#9467bd" stroke-width="3"/>
<text x="806" y="114" font-size="12">zsyrk</text>
<polygon points="62.0,123.5 238.5,241.2 415.0,245.1 503.2,220.2 591.5,225.1 679.8,222.9 768.0,224.6 768.0,224.7 679.8,223.9 591.5,228.2 503.2,220.5 415.0,258.8 238.5,246.3 62.0,146.2" fill="#ff7f0e" opacity="0.14" stroke="none"/>
<polyline points="62.0,134.2 238.5,242.1 415.0,249.4 503.2,220.3 591.5,227.2 679.8,223.6 768.0,224.6" fill="none" stroke="#ff7f0e" stroke-width="2"/>
<circle cx="62.0" cy="134.2" r="3" fill="#ff7f0e"/>
<circle cx="238.5" cy="242.1" r="3" fill="#ff7f0e"/>
<circle cx="415.0" cy="249.4" r="3" fill="#ff7f0e"/>
<circle cx="503.2" cy="220.3" r="3" fill="#ff7f0e"/>
<circle cx="591.5" cy="227.2" r="3" fill="#ff7f0e"/>
<circle cx="679.8" cy="223.6" r="3" fill="#ff7f0e"/>
<circle cx="768.0" cy="224.6" r="3" fill="#ff7f0e"/>
<line x1="782" y1="128" x2="802" y2="128" stroke="#ff7f0e" stroke-width="3"/>
<text x="806" y="132" font-size="12">zherk</text>
<polygon points="62.0,131.2 238.5,256.4 415.0,245.3 503.2,222.2 591.5,226.5 679.8,223.1 768.0,224.2 768.0,224.3 679.8,223.8 591.5,228.8 503.2,224.4 415.0,251.0 238.5,259.6 62.0,167.4" fill="#17becf" opacity="0.14" stroke="none"/>
<polyline points="62.0,166.3 238.5,257.7 415.0,247.3 503.2,222.7 591.5,227.4 679.8,223.5 768.0,224.3" fill="none" stroke="#17becf" stroke-width="2"/>
<circle cx="62.0" cy="166.3" r="3" fill="#17becf"/>
<circle cx="238.5" cy="257.7" r="3" fill="#17becf"/>
<circle cx="415.0" cy="247.3" r="3" fill="#17becf"/>
<circle cx="503.2" cy="222.7" r="3" fill="#17becf"/>
<circle cx="591.5" cy="227.4" r="3" fill="#17becf"/>
<circle cx="679.8" cy="223.5" r="3" fill="#17becf"/>
<circle cx="768.0" cy="224.3" r="3" fill="#17becf"/>
<line x1="782" y1="146" x2="802" y2="146" stroke="#17becf" stroke-width="3"/>
<text x="806" y="150" font-size="12">zher2k</text>
<polygon points="62.0,156.4 238.5,254.2 415.0,244.3 503.2,222.1 591.5,224.9 679.8,223.2 768.0,225.1 768.0,225.3 679.8,224.1 591.5,227.2 503.2,223.8 415.0,251.3 238.5,255.9 62.0,169.3" fill="#8c564b" opacity="0.14" stroke="none"/>
<polyline points="62.0,161.7 238.5,255.4 415.0,247.7 503.2,222.9 591.5,226.2 679.8,223.8 768.0,225.2" fill="none" stroke="#8c564b" stroke-width="2"/>
<circle cx="62.0" cy="161.7" r="3" fill="#8c564b"/>
<circle cx="238.5" cy="255.4" r="3" fill="#8c564b"/>
<circle cx="415.0" cy="247.7" r="3" fill="#8c564b"/>
<circle cx="503.2" cy="222.9" r="3" fill="#8c564b"/>
<circle cx="591.5" cy="226.2" r="3" fill="#8c564b"/>
<circle cx="679.8" cy="223.8" r="3" fill="#8c564b"/>
<circle cx="768.0" cy="225.2" r="3" fill="#8c564b"/>
<line x1="782" y1="164" x2="802" y2="164" stroke="#8c564b" stroke-width="3"/>
<text x="806" y="168" font-size="12">zsyr2k</text>
<polygon points="62.0,242.0 238.5,270.9 415.0,239.8 503.2,233.7 591.5,227.2 679.8,229.5 768.0,228.9 768.0,230.1 679.8,230.2 591.5,227.6 503.2,235.3 415.0,243.3 238.5,271.5 62.0,270.3" fill="#e377c2" opacity="0.14" stroke="none"/>
<polyline points="62.0,252.0 238.5,271.1 415.0,241.6 503.2,234.6 591.5,227.3 679.8,229.7 768.0,230.0" fill="none" stroke="#e377c2" stroke-width="2"/>
<circle cx="62.0" cy="252.0" r="3" fill="#e377c2"/>
<circle cx="238.5" cy="271.1" r="3" fill="#e377c2"/>
<circle cx="415.0" cy="241.6" r="3" fill="#e377c2"/>
<circle cx="503.2" cy="234.6" r="3" fill="#e377c2"/>
<circle cx="591.5" cy="227.3" r="3" fill="#e377c2"/>
<circle cx="679.8" cy="229.7" r="3" fill="#e377c2"/>
<circle cx="768.0" cy="230.0" r="3" fill="#e377c2"/>
<line x1="782" y1="182" x2="802" y2="182" stroke="#e377c2" stroke-width="3"/>
<text x="806" y="186" font-size="12">ztrmm</text>
<polygon points="62.0,215.0 238.5,258.9 415.0,208.3 503.2,220.9 591.5,217.3 679.8,222.3 768.0,227.2 768.0,227.7 679.8,222.6 591.5,217.6 503.2,221.3 415.0,209.3 238.5,260.6 62.0,224.5" fill="#1f77b4" opacity="0.14" stroke="none"/>
<polyline points="62.0,223.5 238.5,260.3 415.0,208.9 503.2,221.2 591.5,217.4 679.8,222.4 768.0,227.3" fill="none" stroke="#1f77b4" stroke-width="2"/>
<circle cx="62.0" cy="223.5" r="3" fill="#1f77b4"/>
<circle cx="238.5" cy="260.3" r="3" fill="#1f77b4"/>
<circle cx="415.0" cy="208.9" r="3" fill="#1f77b4"/>
<circle cx="503.2" cy="221.2" r="3" fill="#1f77b4"/>
<circle cx="591.5" cy="217.4" r="3" fill="#1f77b4"/>
<circle cx="679.8" cy="222.4" r="3" fill="#1f77b4"/>
<circle cx="768.0" cy="227.3" r="3" fill="#1f77b4"/>
<line x1="782" y1="200" x2="802" y2="200" stroke="#1f77b4" stroke-width="3"/>
<text x="806" y="204" font-size="12">ztrsm</text>
<polygon points="62.0,140.5 238.5,273.7 415.0,242.0 503.2,227.6 591.5,227.6 679.8,230.1 768.0,230.1 768.0,230.7 679.8,230.8 591.5,228.4 503.2,229.1 415.0,246.5 238.5,274.6 62.0,195.6" fill="#d62728" opacity="0.14" stroke="none"/>
<polyline points="62.0,179.5 238.5,274.0 415.0,242.4 503.2,228.2 591.5,228.1 679.8,230.3 768.0,230.5" fill="none" stroke="#d62728" stroke-width="2"/>
<circle cx="62.0" cy="179.5" r="3" fill="#d62728"/>
<circle cx="238.5" cy="274.0" r="3" fill="#d62728"/>
<circle cx="415.0" cy="242.4" r="3" fill="#d62728"/>
<circle cx="503.2" cy="228.2" r="3" fill="#d62728"/>
<circle cx="591.5" cy="228.1" r="3" fill="#d62728"/>
<circle cx="679.8" cy="230.3" r="3" fill="#d62728"/>
<circle cx="768.0" cy="230.5" r="3" fill="#d62728"/>
<line x1="782" y1="218" x2="802" y2="218" stroke="#d62728" stroke-width="3"/>
<text x="806" y="222" font-size="12">ztrmmR</text>
<polygon points="62.0,86.0 238.5,160.6 415.0,158.5 503.2,186.7 591.5,203.3 679.8,216.9 768.0,227.1 768.0,227.1 679.8,217.6 591.5,205.3 503.2,188.4 415.0,159.4 238.5,161.3 62.0,128.6" fill="#2ca02c" opacity="0.14" stroke="none"/>
<polyline points="62.0,126.5 238.5,161.0 415.0,159.0 503.2,187.0 591.5,203.8 679.8,216.9 768.0,227.1" fill="none" stroke="#2ca02c" stroke-width="2"/>
<circle cx="62.0" cy="126.5" r="3" fill="#2ca02c"/>
<circle cx="238.5" cy="161.0" r="3" fill="#2ca02c"/>
<circle cx="415.0" cy="159.0" r="3" fill="#2ca02c"/>
<circle cx="503.2" cy="187.0" r="3" fill="#2ca02c"/>
<circle cx="591.5" cy="203.8" r="3" fill="#2ca02c"/>
<circle cx="679.8" cy="216.9" r="3" fill="#2ca02c"/>
<circle cx="768.0" cy="227.1" r="3" fill="#2ca02c"/>
<line x1="782" y1="236" x2="802" y2="236" stroke="#2ca02c" stroke-width="3"/>
<text x="806" y="240" font-size="12">ztrsmR</text>
<text x="415.0" y="450" text-anchor="middle" font-size="11" fill="#666">matrix size n (log) · y = median ratio (log) · dashed = the 0.96× gate</text>
</svg>
