<svg xmlns="http://www.w3.org/2000/svg" width="962" height="420" font-family="sans-serif">
<rect width="962" height="420" fill="white"/>
<text x="481.0" y="26" text-anchor="middle" font-size="17" font-weight="bold">Complex BLAS-1 — PureBLAS / OpenBLAS (PB/OpenBLAS ratio)</text>
<line x1="46" y1="42" x2="68" y2="42" stroke="#d62728" stroke-width="3"/>
<text x="73" y="46" font-size="12">Zen3 · AVX2</text>
<line x1="176" y1="42" x2="198" y2="42" stroke="#2ca02c" stroke-width="3"/>
<text x="203" y="46" font-size="12">Zen5 · AVX-512</text>
<line x1="327" y1="42" x2="349" y2="42" stroke="#1f77b4" stroke-width="3"/>
<text x="354" y="46" font-size="12">Zen4 · AVX-512</text>
<rect x="46" y="60" width="210" height="138" fill="none" stroke="#e2e2e2"/>
<line x1="46" y1="115.76276119065531" x2="256" y2="115.76276119065531" stroke="#d33" stroke-dasharray="4 3"/>
<text x="42" y="201.0" text-anchor="end" font-size="9" fill="#999">0.5×</text>
<text x="42" y="118.76276119065531" text-anchor="end" font-size="9" fill="#999">1.0×</text>
<text x="42" y="63.0" text-anchor="end" font-size="9" fill="#999">1.6×</text>
<polygon points="46.0,97.4 79.4,115.1 116.0,116.5 149.4,114.9 186.0,113.8 219.4,115.5 256.0,117.2 256.0,121.5 219.4,118.6 186.0,116.6 149.4,116.6 116.0,118.7 79.4,116.6 46.0,98.9" fill="#d62728" opacity="0.11"/>
<polyline points="46.0,98.1 79.4,115.9 116.0,117.5 149.4,115.7 186.0,115.4 219.4,116.8 256.0,119.4" fill="none" stroke="#d62728" stroke-width="1.6"/>
<circle cx="46.0" cy="98.1" r="2" fill="#d62728"/>
<circle cx="79.4" cy="115.9" r="2" fill="#d62728"/>
<circle cx="116.0" cy="117.5" r="2" fill="#d62728"/>
<circle cx="149.4" cy="115.7" r="2" fill="#d62728"/>
<circle cx="186.0" cy="115.4" r="2" fill="#d62728"/>
<circle cx="219.4" cy="116.8" r="2" fill="#d62728"/>
<circle cx="256.0" cy="119.4" r="2" fill="#d62728"/>
<polygon points="46.0,86.0 79.4,124.3 116.0,114.3 149.4,98.2 186.0,114.8 219.4,103.5 256.0,104.9 256.0,115.3 219.4,111.1 186.0,117.3 149.4,124.0 116.0,128.5 79.4,126.5 46.0,86.5" fill="#2ca02c" opacity="0.11"/>
<polyline points="46.0,86.2 79.4,124.7 116.0,123.8 149.4,111.0 186.0,116.0 219.4,106.3 256.0,112.8" fill="none" stroke="#2ca02c" stroke-width="1.6"/>
<circle cx="46.0" cy="86.2" r="2" fill="#2ca02c"/>
<circle cx="79.4" cy="124.7" r="2" fill="#2ca02c"/>
<circle cx="116.0" cy="123.8" r="2" fill="#2ca02c"/>
<circle cx="149.4" cy="111.0" r="2" fill="#2ca02c"/>
<circle cx="186.0" cy="116.0" r="2" fill="#2ca02c"/>
<circle cx="219.4" cy="106.3" r="2" fill="#2ca02c"/>
<circle cx="256.0" cy="112.8" r="2" fill="#2ca02c"/>
<polygon points="46.0,93.2 79.4,114.1 116.0,115.1 149.4,106.2 186.0,121.0 219.4,119.6 256.0,115.0 256.0,117.8 219.4,121.5 186.0,122.0 149.4,116.8 116.0,125.1 79.4,114.4 46.0,96.4" fill="#1f77b4" opacity="0.11"/>
<polyline points="46.0,94.4 79.4,114.1 116.0,115.4 149.4,113.6 186.0,121.8 219.4,120.6 256.0,116.4" fill="none" stroke="#1f77b4" stroke-width="1.6"/>
<circle cx="46.0" cy="94.4" r="2" fill="#1f77b4"/>
<circle cx="79.4" cy="114.1" r="2" fill="#1f77b4"/>
<circle cx="116.0" cy="115.4" r="2" fill="#1f77b4"/>
<circle cx="149.4" cy="113.6" r="2" fill="#1f77b4"/>
<circle cx="186.0" cy="121.8" r="2" fill="#1f77b4"/>
<circle cx="219.4" cy="120.6" r="2" fill="#1f77b4"/>
<circle cx="256.0" cy="116.4" r="2" fill="#1f77b4"/>
<text x="151.0" y="55" text-anchor="middle" font-size="12" font-weight="bold">zaxpy</text>
<line x1="46.0" y1="60" x2="46.0" y2="198" stroke="#f4f4f4"/>
<text x="46.0" y="209" text-anchor="middle" font-size="8" fill="#999">1000</text>
<line x1="79.4" y1="60" x2="79.4" y2="198" stroke="#f4f4f4"/>
<text x="79.4" y="209" text-anchor="middle" font-size="8" fill="#999">2k</text>
<line x1="116.0" y1="60" x2="116.0" y2="198" stroke="#f4f4f4"/>
<text x="116.0" y="209" text-anchor="middle" font-size="8" fill="#999">9k</text>
<line x1="149.4" y1="60" x2="149.4" y2="198" stroke="#f4f4f4"/>
<text x="149.4" y="209" text-anchor="middle" font-size="8" fill="#999">29k</text>
<line x1="186.0" y1="60" x2="186.0" y2="198" stroke="#f4f4f4"/>
<text x="186.0" y="209" text-anchor="middle" font-size="8" fill="#999">97k</text>
<line x1="219.4" y1="60" x2="219.4" y2="198" stroke="#f4f4f4"/>
<text x="219.4" y="209" text-anchor="middle" font-size="8" fill="#999">292k</text>
<line x1="256.0" y1="60" x2="256.0" y2="198" stroke="#f4f4f4"/>
<text x="256.0" y="209" text-anchor="middle" font-size="8" fill="#999">976k</text>
<rect x="276" y="60" width="210" height="138" fill="none" stroke="#e2e2e2"/>
<line x1="276" y1="115.76276119065531" x2="486" y2="115.76276119065531" stroke="#d33" stroke-dasharray="4 3"/>
<text x="272" y="201.0" text-anchor="end" font-size="9" fill="#999">0.5×</text>
<text x="272" y="118.76276119065531" text-anchor="end" font-size="9" fill="#999">1.0×</text>
<text x="272" y="63.0" text-anchor="end" font-size="9" fill="#999">1.6×</text>
<polygon points="276.0,143.5 309.4,115.4 346.0,115.5 379.4,110.8 416.0,111.7 449.4,108.0 486.0,111.8 486.0,118.3 449.4,114.7 416.0,114.3 379.4,112.8 346.0,118.8 309.4,116.1 276.0,145.8" fill="#d62728" opacity="0.11"/>
<polyline points="276.0,144.5 309.4,115.8 346.0,116.1 379.4,111.5 416.0,113.0 449.4,111.9 486.0,116.6" fill="none" stroke="#d62728" stroke-width="1.6"/>
<circle cx="276.0" cy="144.5" r="2" fill="#d62728"/>
<circle cx="309.4" cy="115.8" r="2" fill="#d62728"/>
<circle cx="346.0" cy="116.1" r="2" fill="#d62728"/>
<circle cx="379.4" cy="111.5" r="2" fill="#d62728"/>
<circle cx="416.0" cy="113.0" r="2" fill="#d62728"/>
<circle cx="449.4" cy="111.9" r="2" fill="#d62728"/>
<circle cx="486.0" cy="116.6" r="2" fill="#d62728"/>
<polygon points="276.0,106.5 309.4,104.3 346.0,76.9 379.4,93.7 416.0,115.8 449.4,118.5 486.0,98.7 486.0,106.5 449.4,137.6 416.0,118.4 379.4,119.9 346.0,104.9 309.4,112.1 276.0,113.2" fill="#2ca02c" opacity="0.11"/>
<polyline points="276.0,110.1 309.4,108.5 346.0,78.9 379.4,108.5 416.0,116.6 449.4,125.8 486.0,104.2" fill="none" stroke="#2ca02c" stroke-width="1.6"/>
<circle cx="276.0" cy="110.1" r="2" fill="#2ca02c"/>
<circle cx="309.4" cy="108.5" r="2" fill="#2ca02c"/>
<circle cx="346.0" cy="78.9" r="2" fill="#2ca02c"/>
<circle cx="379.4" cy="108.5" r="2" fill="#2ca02c"/>
<circle cx="416.0" cy="116.6" r="2" fill="#2ca02c"/>
<circle cx="449.4" cy="125.8" r="2" fill="#2ca02c"/>
<circle cx="486.0" cy="104.2" r="2" fill="#2ca02c"/>
<polygon points="276.0,96.9 309.4,114.2 346.0,115.1 379.4,101.0 416.0,91.6 449.4,89.8 486.0,98.1 486.0,108.8 449.4,95.3 416.0,95.6 379.4,115.6 346.0,115.4 309.4,114.5 276.0,113.1" fill="#1f77b4" opacity="0.11"/>
<polyline points="276.0,111.1 309.4,114.4 346.0,115.3 379.4,107.4 416.0,93.6 449.4,92.3 486.0,99.8" fill="none" stroke="#1f77b4" stroke-width="1.6"/>
<circle cx="276.0" cy="111.1" r="2" fill="#1f77b4"/>
<circle cx="309.4" cy="114.4" r="2" fill="#1f77b4"/>
<circle cx="346.0" cy="115.3" r="2" fill="#1f77b4"/>
<circle cx="379.4" cy="107.4" r="2" fill="#1f77b4"/>
<circle cx="416.0" cy="93.6" r="2" fill="#1f77b4"/>
<circle cx="449.4" cy="92.3" r="2" fill="#1f77b4"/>
<circle cx="486.0" cy="99.8" r="2" fill="#1f77b4"/>
<text x="381.0" y="55" text-anchor="middle" font-size="12" font-weight="bold">zdotc</text>
<line x1="276.0" y1="60" x2="276.0" y2="198" stroke="#f4f4f4"/>
<text x="276.0" y="209" text-anchor="middle" font-size="8" fill="#999">1000</text>
<line x1="309.4" y1="60" x2="309.4" y2="198" stroke="#f4f4f4"/>
<text x="309.4" y="209" text-anchor="middle" font-size="8" fill="#999">2k</text>
<line x1="346.0" y1="60" x2="346.0" y2="198" stroke="#f4f4f4"/>
<text x="346.0" y="209" text-anchor="middle" font-size="8" fill="#999">9k</text>
<line x1="379.4" y1="60" x2="379.4" y2="198" stroke="#f4f4f4"/>
<text x="379.4" y="209" text-anchor="middle" font-size="8" fill="#999">29k</text>
<line x1="416.0" y1="60" x2="416.0" y2="198" stroke="#f4f4f4"/>
<text x="416.0" y="209" text-anchor="middle" font-size="8" fill="#999">97k</text>
<line x1="449.4" y1="60" x2="449.4" y2="198" stroke="#f4f4f4"/>
<text x="449.4" y="209" text-anchor="middle" font-size="8" fill="#999">292k</text>
<line x1="486.0" y1="60" x2="486.0" y2="198" stroke="#f4f4f4"/>
<text x="486.0" y="209" text-anchor="middle" font-size="8" fill="#999">976k</text>
<rect x="506" y="60" width="210" height="138" fill="none" stroke="#e2e2e2"/>
<line x1="506" y1="115.76276119065531" x2="716" y2="115.76276119065531" stroke="#d33" stroke-dasharray="4 3"/>
<text x="502" y="201.0" text-anchor="end" font-size="9" fill="#999">0.5×</text>
<text x="502" y="118.76276119065531" text-anchor="end" font-size="9" fill="#999">1.0×</text>
<text x="502" y="63.0" text-anchor="end" font-size="9" fill="#999">1.6×</text>
<polygon points="506.0,110.8 539.4,116.6 576.0,115.8 609.4,113.1 646.0,116.1 679.4,115.3 716.0,115.0 716.0,123.8 679.4,117.9 646.0,118.3 609.4,116.4 576.0,116.3 539.4,117.1 506.0,111.4" fill="#d62728" opacity="0.11"/>
<polyline points="506.0,110.9 539.4,116.8 576.0,116.2 609.4,114.8 646.0,117.4 679.4,117.1 716.0,116.7" fill="none" stroke="#d62728" stroke-width="1.6"/>
<circle cx="506.0" cy="110.9" r="2" fill="#d62728"/>
<circle cx="539.4" cy="116.8" r="2" fill="#d62728"/>
<circle cx="576.0" cy="116.2" r="2" fill="#d62728"/>
<circle cx="609.4" cy="114.8" r="2" fill="#d62728"/>
<circle cx="646.0" cy="117.4" r="2" fill="#d62728"/>
<circle cx="679.4" cy="117.1" r="2" fill="#d62728"/>
<circle cx="716.0" cy="116.7" r="2" fill="#d62728"/>
<polygon points="506.0,110.5 539.4,110.1 576.0,114.9 609.4,115.6 646.0,115.6 679.4,114.6 716.0,107.4 716.0,130.1 679.4,119.4 646.0,117.4 609.4,115.9 576.0,115.9 539.4,112.9 506.0,112.6" fill="#2ca02c" opacity="0.11"/>
<polyline points="506.0,111.7 539.4,112.2 576.0,115.5 609.4,115.7 646.0,116.6 679.4,116.8 716.0,117.0" fill="none" stroke="#2ca02c" stroke-width="1.6"/>
<circle cx="506.0" cy="111.7" r="2" fill="#2ca02c"/>
<circle cx="539.4" cy="112.2" r="2" fill="#2ca02c"/>
<circle cx="576.0" cy="115.5" r="2" fill="#2ca02c"/>
<circle cx="609.4" cy="115.7" r="2" fill="#2ca02c"/>
<circle cx="646.0" cy="116.6" r="2" fill="#2ca02c"/>
<circle cx="679.4" cy="116.8" r="2" fill="#2ca02c"/>
<circle cx="716.0" cy="117.0" r="2" fill="#2ca02c"/>
<polygon points="506.0,112.3 539.4,114.6 576.0,115.3 609.4,114.6 646.0,117.3 679.4,115.3 716.0,113.9 716.0,123.7 679.4,120.2 646.0,119.3 609.4,116.5 576.0,115.5 539.4,114.8 506.0,113.1" fill="#1f77b4" opacity="0.11"/>
<polyline points="506.0,112.7 539.4,114.7 576.0,115.4 609.4,115.7 646.0,118.3 679.4,116.7 716.0,118.3" fill="none" stroke="#1f77b4" stroke-width="1.6"/>
<circle cx="506.0" cy="112.7" r="2" fill="#1f77b4"/>
<circle cx="539.4" cy="114.7" r="2" fill="#1f77b4"/>
<circle cx="576.0" cy="115.4" r="2" fill="#1f77b4"/>
<circle cx="609.4" cy="115.7" r="2" fill="#1f77b4"/>
<circle cx="646.0" cy="118.3" r="2" fill="#1f77b4"/>
<circle cx="679.4" cy="116.7" r="2" fill="#1f77b4"/>
<circle cx="716.0" cy="118.3" r="2" fill="#1f77b4"/>
<text x="611.0" y="55" text-anchor="middle" font-size="12" font-weight="bold">zscal</text>
<line x1="506.0" y1="60" x2="506.0" y2="198" stroke="#f4f4f4"/>
<text x="506.0" y="209" text-anchor="middle" font-size="8" fill="#999">1000</text>
<line x1="539.4" y1="60" x2="539.4" y2="198" stroke="#f4f4f4"/>
<text x="539.4" y="209" text-anchor="middle" font-size="8" fill="#999">2k</text>
<line x1="576.0" y1="60" x2="576.0" y2="198" stroke="#f4f4f4"/>
<text x="576.0" y="209" text-anchor="middle" font-size="8" fill="#999">9k</text>
<line x1="609.4" y1="60" x2="609.4" y2="198" stroke="#f4f4f4"/>
<text x="609.4" y="209" text-anchor="middle" font-size="8" fill="#999">29k</text>
<line x1="646.0" y1="60" x2="646.0" y2="198" stroke="#f4f4f4"/>
<text x="646.0" y="209" text-anchor="middle" font-size="8" fill="#999">97k</text>
<line x1="679.4" y1="60" x2="679.4" y2="198" stroke="#f4f4f4"/>
<text x="679.4" y="209" text-anchor="middle" font-size="8" fill="#999">292k</text>
<line x1="716.0" y1="60" x2="716.0" y2="198" stroke="#f4f4f4"/>
<text x="716.0" y="209" text-anchor="middle" font-size="8" fill="#999">976k</text>
<rect x="736" y="60" width="210" height="138" fill="none" stroke="#e2e2e2"/>
<line x1="736" y1="170.67668084204274" x2="946" y2="170.67668084204274" stroke="#d33" stroke-dasharray="4 3"/>
<text x="732" y="201.0" text-anchor="end" font-size="9" fill="#999">0.5×</text>
<text x="732" y="173.67668084204274" text-anchor="end" font-size="9" fill="#999">1.0×</text>
<text x="732" y="63.00353021285823" text-anchor="end" font-size="9" fill="#999">16.57×</text>
<polygon points="736.0,89.4 769.4,89.7 806.0,89.0 839.4,89.6 876.0,97.9 909.4,98.4 946.0,101.7 946.0,103.3 909.4,104.8 876.0,101.8 839.4,94.2 806.0,89.1 769.4,89.8 736.0,89.6" fill="#d62728" opacity="0.11"/>
<polyline points="736.0,89.5 769.4,89.7 806.0,89.0 839.4,90.1 876.0,98.4 909.4,99.0 946.0,102.4" fill="none" stroke="#d62728" stroke-width="1.6"/>
<circle cx="736.0" cy="89.5" r="2" fill="#d62728"/>
<circle cx="769.4" cy="89.7" r="2" fill="#d62728"/>
<circle cx="806.0" cy="89.0" r="2" fill="#d62728"/>
<circle cx="839.4" cy="90.1" r="2" fill="#d62728"/>
<circle cx="876.0" cy="98.4" r="2" fill="#d62728"/>
<circle cx="909.4" cy="99.0" r="2" fill="#d62728"/>
<circle cx="946.0" cy="102.4" r="2" fill="#d62728"/>
<polygon points="736.0,65.6 769.4,63.0 806.0,75.1 839.4,65.6 876.0,88.6 909.4,97.5 946.0,105.6 946.0,108.1 909.4,100.0 876.0,92.2 839.4,67.7 806.0,75.5 769.4,63.4 736.0,66.0" fill="#2ca02c" opacity="0.11"/>
<polyline points="736.0,65.7 769.4,63.2 806.0,75.3 839.4,66.6 876.0,91.2 909.4,99.5 946.0,107.3" fill="none" stroke="#2ca02c" stroke-width="1.6"/>
<circle cx="736.0" cy="65.7" r="2" fill="#2ca02c"/>
<circle cx="769.4" cy="63.2" r="2" fill="#2ca02c"/>
<circle cx="806.0" cy="75.3" r="2" fill="#2ca02c"/>
<circle cx="839.4" cy="66.6" r="2" fill="#2ca02c"/>
<circle cx="876.0" cy="91.2" r="2" fill="#2ca02c"/>
<circle cx="909.4" cy="99.5" r="2" fill="#2ca02c"/>
<circle cx="946.0" cy="107.3" r="2" fill="#2ca02c"/>
<polygon points="736.0,70.0 769.4,88.4 806.0,88.8 839.4,88.8 876.0,95.2 909.4,96.5 946.0,103.5 946.0,107.0 909.4,97.0 876.0,96.2 839.4,89.2 806.0,88.9 769.4,88.5 736.0,71.2" fill="#1f77b4" opacity="0.11"/>
<polyline points="736.0,70.6 769.4,88.4 806.0,88.8 839.4,88.9 876.0,95.6 909.4,96.7 946.0,106.1" fill="none" stroke="#1f77b4" stroke-width="1.6"/>
<circle cx="736.0" cy="70.6" r="2" fill="#1f77b4"/>
<circle cx="769.4" cy="88.4" r="2" fill="#1f77b4"/>
<circle cx="806.0" cy="88.8" r="2" fill="#1f77b4"/>
<circle cx="839.4" cy="88.9" r="2" fill="#1f77b4"/>
<circle cx="876.0" cy="95.6" r="2" fill="#1f77b4"/>
<circle cx="909.4" cy="96.7" r="2" fill="#1f77b4"/>
<circle cx="946.0" cy="106.1" r="2" fill="#1f77b4"/>
<text x="841.0" y="55" text-anchor="middle" font-size="12" font-weight="bold">dznrm2</text>
<line x1="736.0" y1="60" x2="736.0" y2="198" stroke="#f4f4f4"/>
<text x="736.0" y="209" text-anchor="middle" font-size="8" fill="#999">1000</text>
<line x1="769.4" y1="60" x2="769.4" y2="198" stroke="#f4f4f4"/>
<text x="769.4" y="209" text-anchor="middle" font-size="8" fill="#999">2k</text>
<line x1="806.0" y1="60" x2="806.0" y2="198" stroke="#f4f4f4"/>
<text x="806.0" y="209" text-anchor="middle" font-size="8" fill="#999">9k</text>
<line x1="839.4" y1="60" x2="839.4" y2="198" stroke="#f4f4f4"/>
<text x="839.4" y="209" text-anchor="middle" font-size="8" fill="#999">29k</text>
<line x1="876.0" y1="60" x2="876.0" y2="198" stroke="#f4f4f4"/>
<text x="876.0" y="209" text-anchor="middle" font-size="8" fill="#999">97k</text>
<line x1="909.4" y1="60" x2="909.4" y2="198" stroke="#f4f4f4"/>
<text x="909.4" y="209" text-anchor="middle" font-size="8" fill="#999">292k</text>
<line x1="946.0" y1="60" x2="946.0" y2="198" stroke="#f4f4f4"/>
<text x="946.0" y="209" text-anchor="middle" font-size="8" fill="#999">976k</text>
<rect x="46" y="232" width="210" height="138" fill="none" stroke="#e2e2e2"/>
<line x1="46" y1="304.3341000931289" x2="256" y2="304.3341000931289" stroke="#d33" stroke-dasharray="4 3"/>
<text x="42" y="373.0" text-anchor="end" font-size="9" fill="#999">0.5×</text>
<text x="42" y="307.3341000931289" text-anchor="end" font-size="9" fill="#999">1.0×</text>
<polygon points="46.0,239.3 79.4,261.3 116.0,262.2 149.4,262.7 186.0,276.7 219.4,277.1 256.0,276.5 256.0,281.9 219.4,288.7 186.0,280.1 149.4,270.1 116.0,263.5 79.4,262.0 46.0,243.2" fill="#d62728" opacity="0.11"/>
<polyline points="46.0,241.7 79.4,261.9 116.0,262.4 149.4,263.9 186.0,277.7 219.4,277.9 256.0,280.0" fill="none" stroke="#d62728" stroke-width="1.6"/>
<circle cx="46.0" cy="241.7" r="2" fill="#d62728"/>
<circle cx="79.4" cy="261.9" r="2" fill="#d62728"/>
<circle cx="116.0" cy="262.4" r="2" fill="#d62728"/>
<circle cx="149.4" cy="263.9" r="2" fill="#d62728"/>
<circle cx="186.0" cy="277.7" r="2" fill="#d62728"/>
<circle cx="219.4" cy="277.9" r="2" fill="#d62728"/>
<circle cx="256.0" cy="280.0" r="2" fill="#d62728"/>
<polygon points="46.0,296.6 79.4,301.6 116.0,296.6 149.4,301.5 186.0,299.1 219.4,299.2 256.0,285.7 256.0,300.1 219.4,304.2 186.0,302.0 149.4,306.1 116.0,297.7 79.4,302.0 46.0,297.6" fill="#2ca02c" opacity="0.11"/>
<polyline points="46.0,297.2 79.4,301.8 116.0,297.1 149.4,303.8 186.0,301.0 219.4,301.0 256.0,289.6" fill="none" stroke="#2ca02c" stroke-width="1.6"/>
<circle cx="46.0" cy="297.2" r="2" fill="#2ca02c"/>
<circle cx="79.4" cy="301.8" r="2" fill="#2ca02c"/>
<circle cx="116.0" cy="297.1" r="2" fill="#2ca02c"/>
<circle cx="149.4" cy="303.8" r="2" fill="#2ca02c"/>
<circle cx="186.0" cy="301.0" r="2" fill="#2ca02c"/>
<circle cx="219.4" cy="301.0" r="2" fill="#2ca02c"/>
<circle cx="256.0" cy="289.6" r="2" fill="#2ca02c"/>
<polygon points="46.0,306.0 79.4,303.7 116.0,304.0 149.4,303.9 186.0,303.2 219.4,302.4 256.0,301.3 256.0,305.8 219.4,303.5 186.0,303.8 149.4,305.0 116.0,304.1 79.4,303.8 46.0,308.9" fill="#1f77b4" opacity="0.11"/>
<polyline points="46.0,308.0 79.4,303.8 116.0,304.1 149.4,304.3 186.0,303.6 219.4,303.0 256.0,303.0" fill="none" stroke="#1f77b4" stroke-width="1.6"/>
<circle cx="46.0" cy="308.0" r="2" fill="#1f77b4"/>
<circle cx="79.4" cy="303.8" r="2" fill="#1f77b4"/>
<circle cx="116.0" cy="304.1" r="2" fill="#1f77b4"/>
<circle cx="149.4" cy="304.3" r="2" fill="#1f77b4"/>
<circle cx="186.0" cy="303.6" r="2" fill="#1f77b4"/>
<circle cx="219.4" cy="303.0" r="2" fill="#1f77b4"/>
<circle cx="256.0" cy="303.0" r="2" fill="#1f77b4"/>
<text x="151.0" y="227" text-anchor="middle" font-size="12" font-weight="bold">dzasum</text>
<line x1="46.0" y1="232" x2="46.0" y2="370" stroke="#f4f4f4"/>
<text x="46.0" y="381" text-anchor="middle" font-size="8" fill="#999">1000</text>
<line x1="79.4" y1="232" x2="79.4" y2="370" stroke="#f4f4f4"/>
<text x="79.4" y="381" text-anchor="middle" font-size="8" fill="#999">2k</text>
<line x1="116.0" y1="232" x2="116.0" y2="370" stroke="#f4f4f4"/>
<text x="116.0" y="381" text-anchor="middle" font-size="8" fill="#999">9k</text>
<line x1="149.4" y1="232" x2="149.4" y2="370" stroke="#f4f4f4"/>
<text x="149.4" y="381" text-anchor="middle" font-size="8" fill="#999">29k</text>
<line x1="186.0" y1="232" x2="186.0" y2="370" stroke="#f4f4f4"/>
<text x="186.0" y="381" text-anchor="middle" font-size="8" fill="#999">97k</text>
<line x1="219.4" y1="232" x2="219.4" y2="370" stroke="#f4f4f4"/>
<text x="219.4" y="381" text-anchor="middle" font-size="8" fill="#999">292k</text>
<line x1="256.0" y1="232" x2="256.0" y2="370" stroke="#f4f4f4"/>
<text x="256.0" y="381" text-anchor="middle" font-size="8" fill="#999">976k</text>
<rect x="276" y="232" width="210" height="138" fill="none" stroke="#e2e2e2"/>
<line x1="276" y1="287.7627611906553" x2="486" y2="287.7627611906553" stroke="#d33" stroke-dasharray="4 3"/>
<text x="272" y="373.0" text-anchor="end" font-size="9" fill="#999">0.5×</text>
<text x="272" y="290.7627611906553" text-anchor="end" font-size="9" fill="#999">1.0×</text>
<text x="272" y="235.0" text-anchor="end" font-size="9" fill="#999">1.6×</text>
<polygon points="276.0,315.6 309.4,287.4 346.0,287.6 379.4,279.1 416.0,283.6 449.4,281.4 486.0,286.5 486.0,292.0 449.4,285.2 416.0,286.2 379.4,283.5 346.0,289.5 309.4,288.1 276.0,316.8" fill="#d62728" opacity="0.11"/>
<polyline points="276.0,316.2 309.4,287.8 346.0,287.8 379.4,282.5 416.0,284.7 449.4,283.7 486.0,288.2" fill="none" stroke="#d62728" stroke-width="1.6"/>
<circle cx="276.0" cy="316.2" r="2" fill="#d62728"/>
<circle cx="309.4" cy="287.8" r="2" fill="#d62728"/>
<circle cx="346.0" cy="287.8" r="2" fill="#d62728"/>
<circle cx="379.4" cy="282.5" r="2" fill="#d62728"/>
<circle cx="416.0" cy="284.7" r="2" fill="#d62728"/>
<circle cx="449.4" cy="283.7" r="2" fill="#d62728"/>
<circle cx="486.0" cy="288.2" r="2" fill="#d62728"/>
<polygon points="276.0,280.5 309.4,277.9 346.0,252.0 379.4,262.3 416.0,287.9 449.4,288.4 486.0,258.9 486.0,281.4 449.4,302.9 416.0,289.8 379.4,293.2 346.0,277.4 309.4,281.3 276.0,286.6" fill="#2ca02c" opacity="0.11"/>
<polyline points="276.0,284.0 309.4,279.1 346.0,253.0 379.4,278.1 416.0,288.6 449.4,292.7 486.0,276.2" fill="none" stroke="#2ca02c" stroke-width="1.6"/>
<circle cx="276.0" cy="284.0" r="2" fill="#2ca02c"/>
<circle cx="309.4" cy="279.1" r="2" fill="#2ca02c"/>
<circle cx="346.0" cy="253.0" r="2" fill="#2ca02c"/>
<circle cx="379.4" cy="278.1" r="2" fill="#2ca02c"/>
<circle cx="416.0" cy="288.6" r="2" fill="#2ca02c"/>
<circle cx="449.4" cy="292.7" r="2" fill="#2ca02c"/>
<circle cx="486.0" cy="276.2" r="2" fill="#2ca02c"/>
<polygon points="276.0,268.8 309.4,286.3 346.0,287.1 379.4,274.1 416.0,263.0 449.4,262.2 486.0,270.2 486.0,273.7 449.4,267.6 416.0,267.4 379.4,288.8 346.0,287.3 309.4,286.5 276.0,285.0" fill="#1f77b4" opacity="0.11"/>
<polyline points="276.0,271.1 309.4,286.4 346.0,287.2 379.4,279.3 416.0,265.2 449.4,265.6 486.0,272.4" fill="none" stroke="#1f77b4" stroke-width="1.6"/>
<circle cx="276.0" cy="271.1" r="2" fill="#1f77b4"/>
<circle cx="309.4" cy="286.4" r="2" fill="#1f77b4"/>
<circle cx="346.0" cy="287.2" r="2" fill="#1f77b4"/>
<circle cx="379.4" cy="279.3" r="2" fill="#1f77b4"/>
<circle cx="416.0" cy="265.2" r="2" fill="#1f77b4"/>
<circle cx="449.4" cy="265.6" r="2" fill="#1f77b4"/>
<circle cx="486.0" cy="272.4" r="2" fill="#1f77b4"/>
<text x="381.0" y="227" text-anchor="middle" font-size="12" font-weight="bold">zdotu</text>
<line x1="276.0" y1="232" x2="276.0" y2="370" stroke="#f4f4f4"/>
<text x="276.0" y="381" text-anchor="middle" font-size="8" fill="#999">1000</text>
<line x1="309.4" y1="232" x2="309.4" y2="370" stroke="#f4f4f4"/>
<text x="309.4" y="381" text-anchor="middle" font-size="8" fill="#999">2k</text>
<line x1="346.0" y1="232" x2="346.0" y2="370" stroke="#f4f4f4"/>
<text x="346.0" y="381" text-anchor="middle" font-size="8" fill="#999">9k</text>
<line x1="379.4" y1="232" x2="379.4" y2="370" stroke="#f4f4f4"/>
<text x="379.4" y="381" text-anchor="middle" font-size="8" fill="#999">29k</text>
<line x1="416.0" y1="232" x2="416.0" y2="370" stroke="#f4f4f4"/>
<text x="416.0" y="381" text-anchor="middle" font-size="8" fill="#999">97k</text>
<line x1="449.4" y1="232" x2="449.4" y2="370" stroke="#f4f4f4"/>
<text x="449.4" y="381" text-anchor="middle" font-size="8" fill="#999">292k</text>
<line x1="486.0" y1="232" x2="486.0" y2="370" stroke="#f4f4f4"/>
<text x="486.0" y="381" text-anchor="middle" font-size="8" fill="#999">976k</text>
<rect x="506" y="232" width="210" height="138" fill="none" stroke="#e2e2e2"/>
<line x1="506" y1="310.5898770151838" x2="716" y2="310.5898770151838" stroke="#d33" stroke-dasharray="4 3"/>
<text x="502" y="373.0" text-anchor="end" font-size="9" fill="#999">0.5×</text>
<text x="502" y="313.5898770151838" text-anchor="end" font-size="9" fill="#999">1.0×</text>
<text x="502" y="235.0539663208417" text-anchor="end" font-size="9" fill="#999">2.5×</text>
<polygon points="506.0,276.2 539.4,274.7 576.0,275.6 609.4,277.6 646.0,279.5 679.4,276.5 716.0,280.0 716.0,316.4 679.4,321.3 646.0,324.5 609.4,324.0 576.0,324.3 539.4,319.3 506.0,325.5" fill="#d62728" opacity="0.11"/>
<polyline points="506.0,294.0 539.4,292.8 576.0,297.2 609.4,297.5 646.0,299.6 679.4,295.6 716.0,295.5" fill="none" stroke="#d62728" stroke-width="1.6"/>
<circle cx="506.0" cy="294.0" r="2" fill="#d62728"/>
<circle cx="539.4" cy="292.8" r="2" fill="#d62728"/>
<circle cx="576.0" cy="297.2" r="2" fill="#d62728"/>
<circle cx="609.4" cy="297.5" r="2" fill="#d62728"/>
<circle cx="646.0" cy="299.6" r="2" fill="#d62728"/>
<circle cx="679.4" cy="295.6" r="2" fill="#d62728"/>
<circle cx="716.0" cy="295.5" r="2" fill="#d62728"/>
<polygon points="506.0,242.5 539.4,239.5 576.0,240.2 609.4,240.4 646.0,238.6 679.4,243.5 716.0,249.8 716.0,284.8 679.4,278.8 646.0,279.4 609.4,282.4 576.0,281.0 539.4,283.2 506.0,284.0" fill="#2ca02c" opacity="0.11"/>
<polyline points="506.0,257.8 539.4,256.9 576.0,255.9 609.4,261.4 646.0,255.7 679.4,259.3 716.0,264.9" fill="none" stroke="#2ca02c" stroke-width="1.6"/>
<circle cx="506.0" cy="257.8" r="2" fill="#2ca02c"/>
<circle cx="539.4" cy="256.9" r="2" fill="#2ca02c"/>
<circle cx="576.0" cy="255.9" r="2" fill="#2ca02c"/>
<circle cx="609.4" cy="261.4" r="2" fill="#2ca02c"/>
<circle cx="646.0" cy="255.7" r="2" fill="#2ca02c"/>
<circle cx="679.4" cy="259.3" r="2" fill="#2ca02c"/>
<circle cx="716.0" cy="264.9" r="2" fill="#2ca02c"/>
<polygon points="506.0,251.7 539.4,248.2 576.0,246.7 609.4,247.6 646.0,248.1 679.4,249.5 716.0,245.7 716.0,285.4 679.4,295.2 646.0,290.8 609.4,293.7 576.0,294.7 539.4,290.6 506.0,294.3" fill="#1f77b4" opacity="0.11"/>
<polyline points="506.0,270.6 539.4,263.4 576.0,264.8 609.4,269.4 646.0,265.2 679.4,268.3 716.0,262.2" fill="none" stroke="#1f77b4" stroke-width="1.6"/>
<circle cx="506.0" cy="270.6" r="2" fill="#1f77b4"/>
<circle cx="539.4" cy="263.4" r="2" fill="#1f77b4"/>
<circle cx="576.0" cy="264.8" r="2" fill="#1f77b4"/>
<circle cx="609.4" cy="269.4" r="2" fill="#1f77b4"/>
<circle cx="646.0" cy="265.2" r="2" fill="#1f77b4"/>
<circle cx="679.4" cy="268.3" r="2" fill="#1f77b4"/>
<circle cx="716.0" cy="262.2" r="2" fill="#1f77b4"/>
<text x="611.0" y="227" text-anchor="middle" font-size="12" font-weight="bold">izamax</text>
<line x1="506.0" y1="232" x2="506.0" y2="370" stroke="#f4f4f4"/>
<text x="506.0" y="381" text-anchor="middle" font-size="8" fill="#999">1000</text>
<line x1="539.4" y1="232" x2="539.4" y2="370" stroke="#f4f4f4"/>
<text x="539.4" y="381" text-anchor="middle" font-size="8" fill="#999">2k</text>
<line x1="576.0" y1="232" x2="576.0" y2="370" stroke="#f4f4f4"/>
<text x="576.0" y="381" text-anchor="middle" font-size="8" fill="#999">9k</text>
<line x1="609.4" y1="232" x2="609.4" y2="370" stroke="#f4f4f4"/>
<text x="609.4" y="381" text-anchor="middle" font-size="8" fill="#999">29k</text>
<line x1="646.0" y1="232" x2="646.0" y2="370" stroke="#f4f4f4"/>
<text x="646.0" y="381" text-anchor="middle" font-size="8" fill="#999">97k</text>
<line x1="679.4" y1="232" x2="679.4" y2="370" stroke="#f4f4f4"/>
<text x="679.4" y="381" text-anchor="middle" font-size="8" fill="#999">292k</text>
<line x1="716.0" y1="232" x2="716.0" y2="370" stroke="#f4f4f4"/>
<text x="716.0" y="381" text-anchor="middle" font-size="8" fill="#999">976k</text>
</svg>
