<svg xmlns="http://www.w3.org/2000/svg" width="900" height="440" font-family="sans-serif">
<rect width="900" height="440" fill="white"/>
<text x="450.0" y="28" text-anchor="middle" font-size="18" font-weight="bold">Complex BLAS-2: PureBLAS / OpenBLAS (AVX2, 1 thread, ComplexF64)</text>
<line x1="60" y1="358.0" x2="880" y2="358.0" stroke="#eee"/>
<text x="52" y="362.0" text-anchor="end" font-size="11" fill="#666">0×</text>
<line x1="60" y1="280.8322939695639" x2="880" y2="280.8322939695639" stroke="#eee"/>
<text x="52" y="284.8322939695639" text-anchor="end" font-size="11" fill="#666">0.5×</text>
<line x1="60" y1="203.66458793912776" x2="880" y2="203.66458793912776" stroke="#eee"/>
<text x="52" y="207.66458793912776" text-anchor="end" font-size="11" fill="#666">1×</text>
<line x1="60" y1="126.49688190869165" x2="880" y2="126.49688190869165" stroke="#eee"/>
<text x="52" y="130.49688190869165" text-anchor="end" font-size="11" fill="#666">1.5×</text>
<line x1="60" y1="203.66458793912776" x2="880" y2="203.66458793912776" stroke="#888" stroke-width="1"/>
<line x1="60" y1="209.83800442156266" x2="880" y2="209.83800442156266" stroke="#d33" stroke-width="1.5" stroke-dasharray="6 4"/>
<text x="880" y="204.83800442156266" text-anchor="end" font-size="11" fill="#d33">0.96× gate</text>
<polygon points="105.3,202.1 106.7,201.7 108.5,201.3 110.5,200.9 112.8,200.5 115.4,200.2 118.1,199.8 120.9,199.4 123.8,199.0 126.5,198.6 129.0,198.2 131.1,197.8 132.9,197.5 134.2,197.1 135.0,196.7 135.4,196.3 135.4,195.9 135.2,195.5 134.9,195.1 134.4,194.8 134.1,194.4 133.9,194.0 133.8,193.6 134.0,193.2 134.2,192.8 134.6,192.4 135.0,192.1 135.3,191.7 135.4,191.3 135.4,190.9 135.1,190.5 134.5,190.1 133.8,189.7 132.8,189.4 131.7,189.0 130.5,188.6 129.2,188.2 128.0,187.8 126.8,187.4 125.7,187.0 124.6,186.7 123.7,186.3 122.8,185.9 122.1,185.5 121.5,185.1 120.9,184.7 120.5,184.3 120.2,184.0 120.0,183.6 119.9,183.2 120.0,182.8 120.2,182.4 120.6,182.0 121.2,181.6 121.9,181.3 122.7,180.9 123.6,180.5 124.5,180.1 125.3,179.7 125.9,179.3 126.3,178.9 126.3,178.6 126.0,178.2 125.2,177.8 124.0,177.4 122.5,177.0 120.6,176.6 118.5,176.2 116.2,175.8 113.9,175.5 111.7,175.1 109.7,174.7 92.3,174.7 90.3,175.1 88.1,175.5 85.8,175.8 83.5,176.2 81.4,176.6 79.5,177.0 78.0,177.4 76.8,177.8 76.0,178.2 75.7,178.6 75.7,178.9 76.1,179.3 76.7,179.7 77.5,180.1 78.4,180.5 79.3,180.9 80.1,181.3 80.8,181.6 81.4,182.0 81.8,182.4 82.0,182.8 82.1,183.2 82.0,183.6 81.8,184.0 81.5,184.3 81.1,184.7 80.5,185.1 79.9,185.5 79.2,185.9 78.3,186.3 77.4,186.7 76.3,187.0 75.2,187.4 74.0,187.8 72.8,188.2 71.5,188.6 70.3,189.0 69.2,189.4 68.2,189.7 67.5,190.1 66.9,190.5 66.6,190.9 66.6,191.3 66.7,191.7 67.0,192.1 67.4,192.4 67.8,192.8 68.0,193.2 68.2,193.6 68.1,194.0 67.9,194.4 67.6,194.8 67.1,195.1 66.8,195.5 66.6,195.9 66.6,196.3 67.0,196.7 67.8,197.1 69.1,197.5 70.9,197.8 73.0,198.2 75.5,198.6 78.2,199.0 81.1,199.4 83.9,199.8 86.6,200.2 89.2,200.5 91.5,200.9 93.5,201.3 95.3,201.7 96.7,202.1" fill="#2a8" opacity="0.5" stroke="#2a8" stroke-width="1"/>
<line x1="67.7" y1="189.97852997880324" x2="134.3" y2="189.97852997880324" stroke="#114" stroke-width="2"/>
<circle cx="101.0" cy="197.792143527576" r="2.4" fill="#114"/>
<text x="101.0" y="171.59234537021257" text-anchor="middle" font-size="11">1.09</text>
<text x="101.0" y="376" text-anchor="middle" font-size="12">zgemvN</text>
<polygon points="185.2,193.6 186.2,192.9 187.5,192.3 189.1,191.7 191.0,191.0 193.4,190.4 196.0,189.7 198.9,189.1 202.0,188.5 205.1,187.8 208.0,187.2 210.7,186.5 213.1,185.9 214.9,185.3 216.3,184.6 217.1,184.0 217.4,183.4 217.3,182.7 216.9,182.1 216.1,181.4 215.1,180.8 213.9,180.2 212.6,179.5 211.0,178.9 209.4,178.2 207.6,177.6 205.7,177.0 203.7,176.3 201.8,175.7 200.0,175.0 198.4,174.4 197.0,173.8 195.9,173.1 195.2,172.5 194.8,171.8 194.6,171.2 194.6,170.6 194.6,169.9 194.6,169.3 194.5,168.6 194.1,168.0 193.6,167.4 192.8,166.7 191.9,166.1 190.8,165.4 189.7,164.8 188.7,164.2 187.7,163.5 187.0,162.9 186.4,162.2 186.1,161.6 186.0,161.0 186.2,160.3 186.6,159.7 187.2,159.0 187.9,158.4 188.8,157.8 189.7,157.1 190.6,156.5 191.5,155.8 192.2,155.2 192.7,154.6 192.9,153.9 192.8,153.3 192.5,152.7 191.9,152.0 191.1,151.4 190.1,150.7 189.1,150.1 188.0,149.5 187.0,148.8 186.1,148.2 179.9,148.2 179.0,148.8 178.0,149.5 176.9,150.1 175.9,150.7 174.9,151.4 174.1,152.0 173.5,152.7 173.2,153.3 173.1,153.9 173.3,154.6 173.8,155.2 174.5,155.8 175.4,156.5 176.3,157.1 177.2,157.8 178.1,158.4 178.8,159.0 179.4,159.7 179.8,160.3 180.0,161.0 179.9,161.6 179.6,162.2 179.0,162.9 178.3,163.5 177.3,164.2 176.3,164.8 175.2,165.4 174.1,166.1 173.2,166.7 172.4,167.4 171.9,168.0 171.5,168.6 171.4,169.3 171.4,169.9 171.4,170.6 171.4,171.2 171.2,171.8 170.8,172.5 170.1,173.1 169.0,173.8 167.6,174.4 166.0,175.0 164.2,175.7 162.3,176.3 160.3,177.0 158.4,177.6 156.6,178.2 155.0,178.9 153.4,179.5 152.1,180.2 150.9,180.8 149.9,181.4 149.1,182.1 148.7,182.7 148.6,183.4 148.9,184.0 149.7,184.6 151.1,185.3 152.9,185.9 155.3,186.5 158.0,187.2 160.9,187.8 164.0,188.5 167.1,189.1 170.0,189.7 172.6,190.4 175.0,191.0 176.9,191.7 178.5,192.3 179.8,192.9 180.8,193.6" fill="#2a8" opacity="0.5" stroke="#2a8" stroke-width="1"/>
<line x1="153.9" y1="179.29701060916008" x2="212.1" y2="179.29701060916008" stroke="#114" stroke-width="2"/>
<circle cx="183.0" cy="186.30690473020678" r="2.4" fill="#114"/>
<text x="183.0" y="146.81777478854804" text-anchor="middle" font-size="11">1.16</text>
<text x="183.0" y="376" text-anchor="middle" font-size="12">zgemvT</text>
<polygon points="270.3,191.2 272.0,190.7 274.0,190.1 276.4,189.6 279.0,189.0 281.9,188.5 284.9,187.9 287.8,187.3 290.7,186.8 293.3,186.2 295.6,185.7 297.4,185.1 298.6,184.5 299.3,184.0 299.4,183.4 299.1,182.9 298.2,182.3 297.0,181.8 295.6,181.2 293.9,180.6 292.1,180.1 290.3,179.5 288.4,179.0 286.6,178.4 284.9,177.9 283.3,177.3 281.9,176.7 280.7,176.2 279.7,175.6 278.9,175.1 278.3,174.5 277.8,174.0 277.4,173.4 277.0,172.8 276.5,172.3 276.0,171.7 275.3,171.2 274.5,170.6 273.5,170.1 272.5,169.5 271.4,168.9 270.4,168.4 269.4,167.8 268.5,167.3 267.7,166.7 267.1,166.2 266.7,165.6 266.4,165.0 266.3,164.5 266.4,163.9 266.6,163.4 267.0,162.8 267.5,162.3 268.1,161.7 268.9,161.1 269.8,160.6 270.7,160.0 271.6,159.5 272.5,158.9 273.2,158.4 273.8,157.8 274.2,157.2 274.3,156.7 274.1,156.1 273.7,155.6 273.1,155.0 272.3,154.5 271.4,153.9 270.4,153.3 269.5,152.8 268.6,152.2 267.8,151.7 262.2,151.7 261.4,152.2 260.5,152.8 259.6,153.3 258.6,153.9 257.7,154.5 256.9,155.0 256.3,155.6 255.9,156.1 255.7,156.7 255.8,157.2 256.2,157.8 256.8,158.4 257.5,158.9 258.4,159.5 259.3,160.0 260.2,160.6 261.1,161.1 261.9,161.7 262.5,162.3 263.0,162.8 263.4,163.4 263.6,163.9 263.7,164.5 263.6,165.0 263.3,165.6 262.9,166.2 262.3,166.7 261.5,167.3 260.6,167.8 259.6,168.4 258.6,168.9 257.5,169.5 256.5,170.1 255.5,170.6 254.7,171.2 254.0,171.7 253.5,172.3 253.0,172.8 252.6,173.4 252.2,174.0 251.7,174.5 251.1,175.1 250.3,175.6 249.3,176.2 248.1,176.7 246.7,177.3 245.1,177.9 243.4,178.4 241.6,179.0 239.7,179.5 237.9,180.1 236.1,180.6 234.4,181.2 233.0,181.8 231.8,182.3 230.9,182.9 230.6,183.4 230.7,184.0 231.4,184.5 232.6,185.1 234.4,185.7 236.7,186.2 239.3,186.8 242.2,187.3 245.1,187.9 248.1,188.5 251.0,189.0 253.6,189.6 256.0,190.1 258.0,190.7 259.7,191.2" fill="#2a8" opacity="0.5" stroke="#2a8" stroke-width="1"/>
<line x1="234.5" y1="181.17835022932877" x2="295.5" y2="181.17835022932877" stroke="#114" stroke-width="2"/>
<circle cx="265.0" cy="186.78287092434232" r="2.4" fill="#114"/>
<text x="265.0" y="149.74219549655987" text-anchor="middle" font-size="11">1.15</text>
<text x="265.0" y="376" text-anchor="middle" font-size="12">zgemvC</text>
<polygon points="353.8,218.0 355.8,216.9 358.2,215.9 360.8,214.8 363.6,213.7 366.6,212.7 369.6,211.6 372.5,210.6 375.1,209.5 377.5,208.4 379.3,207.4 380.7,206.3 381.4,205.2 381.4,204.2 380.9,203.1 379.8,202.1 378.2,201.0 376.1,199.9 373.8,198.9 371.3,197.8 368.7,196.7 366.1,195.7 363.6,194.6 361.3,193.5 359.2,192.5 357.4,191.4 355.9,190.4 354.8,189.3 354.0,188.2 353.5,187.2 353.3,186.1 353.4,185.0 353.7,184.0 354.1,182.9 354.6,181.8 355.1,180.8 355.4,179.7 355.6,178.7 355.7,177.6 355.5,176.5 355.1,175.5 354.5,174.4 353.8,173.3 353.1,172.3 352.3,171.2 351.5,170.1 350.8,169.1 350.3,168.0 350.0,167.0 349.8,165.9 349.8,164.8 350.0,163.8 350.4,162.7 350.9,161.6 351.6,160.6 352.4,159.5 353.1,158.4 353.9,157.4 354.5,156.3 355.0,155.3 355.3,154.2 355.4,153.1 355.3,152.1 354.9,151.0 354.4,149.9 353.7,148.9 352.9,147.8 352.0,146.8 351.2,145.7 350.4,144.6 349.7,143.6 349.0,142.5 345.0,142.5 344.3,143.6 343.6,144.6 342.8,145.7 342.0,146.8 341.1,147.8 340.3,148.9 339.6,149.9 339.1,151.0 338.7,152.1 338.6,153.1 338.7,154.2 339.0,155.3 339.5,156.3 340.1,157.4 340.9,158.4 341.6,159.5 342.4,160.6 343.1,161.6 343.6,162.7 344.0,163.8 344.2,164.8 344.2,165.9 344.0,167.0 343.7,168.0 343.2,169.1 342.5,170.1 341.7,171.2 340.9,172.3 340.2,173.3 339.5,174.4 338.9,175.5 338.5,176.5 338.3,177.6 338.4,178.7 338.6,179.7 338.9,180.8 339.4,181.8 339.9,182.9 340.3,184.0 340.6,185.0 340.7,186.1 340.5,187.2 340.0,188.2 339.2,189.3 338.1,190.4 336.6,191.4 334.8,192.5 332.7,193.5 330.4,194.6 327.9,195.7 325.3,196.7 322.7,197.8 320.2,198.9 317.9,199.9 315.8,201.0 314.2,202.1 313.1,203.1 312.6,204.2 312.6,205.2 313.3,206.3 314.7,207.4 316.5,208.4 318.9,209.5 321.5,210.6 324.4,211.6 327.4,212.7 330.4,213.7 333.2,214.8 335.8,215.9 338.2,216.9 340.2,218.0" fill="#d33" opacity="0.5" stroke="#d33" stroke-width="1"/>
<line x1="314.6" y1="201.74327159375136" x2="379.4" y2="201.74327159375136" stroke="#114" stroke-width="2"/>
<circle cx="347.0" cy="210.0452732005991" r="2.4" fill="#114"/>
<text x="347.0" y="144.05233129357987" text-anchor="middle" font-size="11">1.01</text>
<text x="347.0" y="376" text-anchor="middle" font-size="12">zgeru</text>
<polygon points="445.6,175.9 448.2,174.3 450.8,172.7 453.3,171.1 455.7,169.5 457.9,167.9 459.8,166.3 461.3,164.7 462.4,163.2 463.1,161.6 463.3,160.0 463.0,158.4 462.3,156.8 461.2,155.2 459.8,153.6 458.1,152.0 456.2,150.4 454.2,148.8 452.1,147.3 450.1,145.7 448.1,144.1 446.3,142.5 444.7,140.9 443.3,139.3 442.3,137.7 441.5,136.1 440.9,134.5 440.7,132.9 440.7,131.4 440.9,129.8 441.3,128.2 441.7,126.6 442.2,125.0 442.7,123.4 443.1,121.8 443.5,120.2 443.8,118.6 443.9,117.1 444.0,115.5 444.1,113.9 444.1,112.3 444.3,110.7 444.5,109.1 444.9,107.5 445.4,105.9 446.3,104.3 447.3,102.7 448.6,101.2 450.1,99.6 451.7,98.0 453.5,96.4 455.4,94.8 457.2,93.2 458.9,91.6 460.4,90.0 461.7,88.4 462.7,86.8 463.3,85.3 463.4,83.7 463.2,82.1 462.4,80.5 461.3,78.9 459.7,77.3 457.8,75.7 455.7,74.1 453.3,72.5 450.8,71.0 448.2,69.4 445.7,67.8 443.3,66.2 441.0,64.6 439.0,63.0 419.0,63.0 417.0,64.6 414.7,66.2 412.3,67.8 409.8,69.4 407.2,71.0 404.7,72.5 402.3,74.1 400.2,75.7 398.3,77.3 396.7,78.9 395.6,80.5 394.8,82.1 394.6,83.7 394.7,85.3 395.3,86.8 396.3,88.4 397.6,90.0 399.1,91.6 400.8,93.2 402.6,94.8 404.5,96.4 406.3,98.0 407.9,99.6 409.4,101.2 410.7,102.7 411.7,104.3 412.6,105.9 413.1,107.5 413.5,109.1 413.7,110.7 413.9,112.3 413.9,113.9 414.0,115.5 414.1,117.1 414.2,118.6 414.5,120.2 414.9,121.8 415.3,123.4 415.8,125.0 416.3,126.6 416.7,128.2 417.1,129.8 417.3,131.4 417.3,132.9 417.1,134.5 416.5,136.1 415.7,137.7 414.7,139.3 413.3,140.9 411.7,142.5 409.9,144.1 407.9,145.7 405.9,147.3 403.8,148.8 401.8,150.4 399.9,152.0 398.2,153.6 396.8,155.2 395.7,156.8 395.0,158.4 394.7,160.0 394.9,161.6 395.6,163.2 396.7,164.7 398.2,166.3 400.1,167.9 402.3,169.5 404.7,171.1 407.2,172.7 409.8,174.3 412.4,175.9" fill="#2a8" opacity="0.5" stroke="#2a8" stroke-width="1"/>
<line x1="414.3" y1="118.84222785402079" x2="443.7" y2="118.84222785402079" stroke="#114" stroke-width="2"/>
<circle cx="429.0" cy="164.69695937411274" r="2.4" fill="#114"/>
<text x="429.0" y="68.17574899608383" text-anchor="middle" font-size="11">1.55</text>
<text x="429.0" y="376" text-anchor="middle" font-size="12">zhemv</text>
<polygon points="515.4,213.2 516.9,211.1 518.6,209.0 520.6,206.9 522.9,204.9 525.4,202.8 528.2,200.7 531.2,198.6 534.1,196.5 537.0,194.4 539.7,192.4 542.0,190.3 543.8,188.2 545.0,186.1 545.4,184.0 545.1,182.0 544.0,179.9 542.2,177.8 539.9,175.7 537.0,173.6 533.9,171.6 530.8,169.5 527.6,167.4 524.7,165.3 522.2,163.2 520.0,161.1 518.2,159.1 517.0,157.0 516.1,154.9 515.7,152.8 515.5,150.7 515.7,148.7 516.1,146.6 516.6,144.5 517.1,142.4 517.7,140.3 518.1,138.3 518.4,136.2 518.6,134.1 518.6,132.0 518.4,129.9 518.0,127.8 517.4,125.8 516.8,123.7 516.1,121.6 515.5,119.5 514.9,117.4 514.3,115.4 513.9,113.3 513.6,111.2 513.5,109.1 513.5,107.0 513.7,105.0 514.0,102.9 514.4,100.8 514.9,98.7 515.5,96.6 516.1,94.5 516.7,92.5 517.2,90.4 517.7,88.3 518.0,86.2 518.1,84.1 518.1,82.1 518.0,80.0 517.6,77.9 517.1,75.8 516.5,73.7 515.8,71.7 515.1,69.6 514.4,67.5 513.8,65.4 508.2,65.4 507.6,67.5 506.9,69.6 506.2,71.7 505.5,73.7 504.9,75.8 504.4,77.9 504.0,80.0 503.9,82.1 503.9,84.1 504.0,86.2 504.3,88.3 504.8,90.4 505.3,92.5 505.9,94.5 506.5,96.6 507.1,98.7 507.6,100.8 508.0,102.9 508.3,105.0 508.5,107.0 508.5,109.1 508.4,111.2 508.1,113.3 507.7,115.4 507.1,117.4 506.5,119.5 505.9,121.6 505.2,123.7 504.6,125.8 504.0,127.8 503.6,129.9 503.4,132.0 503.4,134.1 503.6,136.2 503.9,138.3 504.3,140.3 504.9,142.4 505.4,144.5 505.9,146.6 506.3,148.7 506.5,150.7 506.3,152.8 505.9,154.9 505.0,157.0 503.8,159.1 502.0,161.1 499.8,163.2 497.3,165.3 494.4,167.4 491.2,169.5 488.1,171.6 485.0,173.6 482.1,175.7 479.8,177.8 478.0,179.9 476.9,182.0 476.6,184.0 477.0,186.1 478.2,188.2 480.0,190.3 482.3,192.4 485.0,194.4 487.9,196.5 490.8,198.6 493.8,200.7 496.6,202.8 499.1,204.9 501.4,206.9 503.4,209.0 505.1,211.1 506.6,213.2" fill="#2a8" opacity="0.5" stroke="#2a8" stroke-width="1"/>
<line x1="476.7" y1="182.59370712581912" x2="545.3" y2="182.59370712581912" stroke="#114" stroke-width="2"/>
<circle cx="511.0" cy="196.337170105451" r="2.4" fill="#114"/>
<text x="511.0" y="73.96077976670598" text-anchor="middle" font-size="11">1.14</text>
<text x="511.0" y="376" text-anchor="middle" font-size="12">ztrmv</text>
<polygon points="594.3,213.7 594.8,212.3 595.4,210.8 596.2,209.4 597.2,207.9 598.3,206.4 599.6,205.0 601.1,203.5 602.7,202.1 604.5,200.6 606.5,199.2 608.7,197.7 611.0,196.3 613.6,194.8 616.2,193.3 618.9,191.9 621.5,190.4 623.8,189.0 625.7,187.5 626.9,186.1 627.4,184.6 627.1,183.2 626.0,181.7 624.0,180.2 621.5,178.8 618.5,177.3 615.3,175.9 612.1,174.4 609.0,173.0 606.3,171.5 604.0,170.1 602.1,168.6 600.8,167.1 599.8,165.7 599.3,164.2 599.0,162.8 598.9,161.3 599.0,159.9 599.2,158.4 599.4,157.0 599.5,155.5 599.5,154.1 599.3,152.6 599.0,151.1 598.6,149.7 598.1,148.2 597.5,146.8 596.8,145.3 596.2,143.9 595.7,142.4 595.3,141.0 595.0,139.5 595.0,138.0 595.1,136.6 595.4,135.1 595.8,133.7 596.5,132.2 597.2,130.8 598.1,129.3 598.9,127.9 599.7,126.4 600.4,124.9 600.9,123.5 601.2,122.0 601.2,120.6 601.0,119.1 600.5,117.7 599.8,116.2 598.9,114.8 598.0,113.3 597.1,111.9 596.3,110.4 589.7,110.4 588.9,111.9 588.0,113.3 587.1,114.8 586.2,116.2 585.5,117.7 585.0,119.1 584.8,120.6 584.8,122.0 585.1,123.5 585.6,124.9 586.3,126.4 587.1,127.9 587.9,129.3 588.8,130.8 589.5,132.2 590.2,133.7 590.6,135.1 590.9,136.6 591.0,138.0 591.0,139.5 590.7,141.0 590.3,142.4 589.8,143.9 589.2,145.3 588.5,146.8 587.9,148.2 587.4,149.7 587.0,151.1 586.7,152.6 586.5,154.1 586.5,155.5 586.6,157.0 586.8,158.4 587.0,159.9 587.1,161.3 587.0,162.8 586.7,164.2 586.2,165.7 585.2,167.1 583.9,168.6 582.0,170.1 579.7,171.5 577.0,173.0 573.9,174.4 570.7,175.9 567.5,177.3 564.5,178.8 562.0,180.2 560.0,181.7 558.9,183.2 558.6,184.6 559.1,186.1 560.3,187.5 562.2,189.0 564.5,190.4 567.1,191.9 569.8,193.3 572.4,194.8 575.0,196.3 577.3,197.7 579.5,199.2 581.5,200.6 583.3,202.1 584.9,203.5 586.4,205.0 587.7,206.4 588.8,207.9 589.8,209.4 590.6,210.8 591.2,212.3 591.7,213.7" fill="#2a8" opacity="0.5" stroke="#2a8" stroke-width="1"/>
<line x1="559.1" y1="182.75072900180692" x2="626.9" y2="182.75072900180692" stroke="#114" stroke-width="2"/>
<circle cx="593.0" cy="198.13133262931893" r="2.4" fill="#114"/>
<text x="593.0" y="114.64301941612933" text-anchor="middle" font-size="11">1.14</text>
<text x="593.0" y="376" text-anchor="middle" font-size="12">ztrsv</text>
<polygon points="679.0,180.5 680.4,178.7 682.2,176.9 684.4,175.2 687.0,173.4 689.9,171.6 693.0,169.9 696.3,168.1 699.5,166.3 702.5,164.6 705.2,162.8 707.3,161.0 708.8,159.3 709.4,157.5 709.3,155.7 708.4,154.0 706.8,152.2 704.8,150.4 702.3,148.7 699.8,146.9 697.2,145.1 694.9,143.4 692.8,141.6 691.0,139.8 689.6,138.1 688.5,136.3 687.6,134.5 686.9,132.8 686.3,131.0 685.8,129.2 685.3,127.5 684.8,125.7 684.4,123.9 684.0,122.2 683.6,120.4 683.4,118.6 683.2,116.9 683.2,115.1 683.2,113.3 683.3,111.6 683.5,109.8 683.6,108.0 683.7,106.3 683.7,104.5 683.5,102.7 683.3,101.0 682.8,99.2 682.3,97.4 681.8,95.7 681.2,93.9 680.6,92.1 680.2,90.4 679.8,88.6 679.7,86.8 679.7,85.1 679.9,83.3 680.3,81.5 680.8,79.8 681.5,78.0 682.1,76.2 682.7,74.5 683.2,72.7 683.6,70.9 683.8,69.2 683.7,67.4 683.5,65.6 683.0,63.9 682.4,62.1 681.6,60.3 680.8,58.6 679.9,56.8 679.1,55.0 670.9,55.0 670.1,56.8 669.2,58.6 668.4,60.3 667.6,62.1 667.0,63.9 666.5,65.6 666.3,67.4 666.2,69.2 666.4,70.9 666.8,72.7 667.3,74.5 667.9,76.2 668.5,78.0 669.2,79.8 669.7,81.5 670.1,83.3 670.3,85.1 670.3,86.8 670.2,88.6 669.8,90.4 669.4,92.1 668.8,93.9 668.2,95.7 667.7,97.4 667.2,99.2 666.7,101.0 666.5,102.7 666.3,104.5 666.3,106.3 666.4,108.0 666.5,109.8 666.7,111.6 666.8,113.3 666.8,115.1 666.8,116.9 666.6,118.6 666.4,120.4 666.0,122.2 665.6,123.9 665.2,125.7 664.7,127.5 664.2,129.2 663.7,131.0 663.1,132.8 662.4,134.5 661.5,136.3 660.4,138.1 659.0,139.8 657.2,141.6 655.1,143.4 652.8,145.1 650.2,146.9 647.7,148.7 645.2,150.4 643.2,152.2 641.6,154.0 640.7,155.7 640.6,157.5 641.2,159.3 642.7,161.0 644.8,162.8 647.5,164.6 650.5,166.3 653.7,168.1 657.0,169.9 660.1,171.6 663.0,173.4 665.6,175.2 667.8,176.9 669.6,178.7 671.0,180.5" fill="#2a8" opacity="0.5" stroke="#2a8" stroke-width="1"/>
<line x1="641.1" y1="154.83198321150226" x2="708.9" y2="154.83198321150226" stroke="#114" stroke-width="2"/>
<circle cx="675.0" cy="158.2545536003675" r="2.4" fill="#114"/>
<text x="675.0" y="61.433962264150935" text-anchor="middle" font-size="11">1.32</text>
<text x="675.0" y="376" text-anchor="middle" font-size="12">zhpmv</text>
<polygon points="758.2,153.8 758.8,152.9 759.7,152.0 760.8,151.2 762.3,150.3 764.1,149.4 766.2,148.5 768.7,147.6 771.4,146.8 774.3,145.9 777.2,145.0 780.1,144.1 782.9,143.3 785.4,142.4 787.5,141.5 789.2,140.6 790.4,139.8 791.2,138.9 791.4,138.0 791.3,137.1 790.8,136.3 789.9,135.4 788.9,134.5 787.7,133.6 786.3,132.8 784.7,131.9 783.0,131.0 781.3,130.1 779.4,129.3 777.6,128.4 775.9,127.5 774.3,126.6 773.0,125.7 771.9,124.9 771.1,124.0 770.5,123.1 769.9,122.2 769.4,121.4 768.8,120.5 768.1,119.6 767.3,118.7 766.4,117.9 765.4,117.0 764.5,116.1 763.6,115.2 762.8,114.4 762.1,113.5 761.6,112.6 761.3,111.7 761.0,110.9 760.9,110.0 760.9,109.1 761.0,108.2 761.2,107.4 761.4,106.5 761.6,105.6 761.9,104.7 762.3,103.8 762.6,103.0 762.8,102.1 763.0,101.2 763.1,100.3 763.0,99.5 762.7,98.6 762.3,97.7 761.7,96.8 761.1,96.0 760.4,95.1 759.8,94.2 759.1,93.3 758.6,92.5 758.1,91.6 755.9,91.6 755.4,92.5 754.9,93.3 754.2,94.2 753.6,95.1 752.9,96.0 752.3,96.8 751.7,97.7 751.3,98.6 751.0,99.5 750.9,100.3 751.0,101.2 751.2,102.1 751.4,103.0 751.7,103.8 752.1,104.7 752.4,105.6 752.6,106.5 752.8,107.4 753.0,108.2 753.1,109.1 753.1,110.0 753.0,110.9 752.7,111.7 752.4,112.6 751.9,113.5 751.2,114.4 750.4,115.2 749.5,116.1 748.6,117.0 747.6,117.9 746.7,118.7 745.9,119.6 745.2,120.5 744.6,121.4 744.1,122.2 743.5,123.1 742.9,124.0 742.1,124.9 741.0,125.7 739.7,126.6 738.1,127.5 736.4,128.4 734.6,129.3 732.7,130.1 731.0,131.0 729.3,131.9 727.7,132.8 726.3,133.6 725.1,134.5 724.1,135.4 723.2,136.3 722.7,137.1 722.6,138.0 722.8,138.9 723.6,139.8 724.8,140.6 726.5,141.5 728.6,142.4 731.1,143.3 733.9,144.1 736.8,145.0 739.7,145.9 742.6,146.8 745.3,147.6 747.8,148.5 749.9,149.4 751.7,150.3 753.2,151.2 754.3,152.0 755.2,152.9 755.8,153.8" fill="#2a8" opacity="0.5" stroke="#2a8" stroke-width="1"/>
<line x1="726.2" y1="133.7616665820492" x2="787.8" y2="133.7616665820492" stroke="#114" stroke-width="2"/>
<circle cx="757.0" cy="144.1606308762827" r="2.4" fill="#114"/>
<text x="757.0" y="91.85288887685158" text-anchor="middle" font-size="11">1.45</text>
<text x="757.0" y="376" text-anchor="middle" font-size="12">zgbmvN</text>
<polygon points="839.0,163.5 839.0,163.0 839.0,162.6 839.0,162.2 839.0,161.7 839.0,161.3 839.1,160.9 839.2,160.5 839.2,160.0 839.1,159.6 839.0,159.2 839.0,158.8 839.0,158.3 839.0,157.9 839.0,157.5 839.0,157.0 839.0,156.6 839.0,156.2 839.0,155.8 839.0,155.3 839.0,154.9 839.0,154.5 839.0,154.1 839.1,153.6 839.4,153.2 839.6,152.8 839.8,152.3 839.7,151.9 839.6,151.5 839.4,151.1 839.4,150.6 839.5,150.2 839.9,149.8 840.9,149.4 843.6,148.9 849.3,148.5 858.8,148.1 869.0,147.6 873.4,147.2 869.4,146.8 861.0,146.4 853.2,145.9 847.9,145.5 845.3,145.1 845.3,144.7 845.3,144.2 843.7,143.8 841.4,143.4 839.9,142.9 839.3,142.5 839.2,142.1 839.2,141.7 839.2,141.2 839.2,140.8 839.2,140.4 839.2,140.0 839.2,139.5 839.3,139.1 839.3,138.7 839.3,138.2 839.1,137.8 839.1,137.4 839.1,137.0 839.2,136.5 839.2,136.1 839.1,135.7 839.0,135.3 839.0,134.8 839.0,134.4 839.0,134.0 839.0,133.5 839.0,133.1 839.0,133.1 839.0,133.5 839.0,134.0 839.0,134.4 839.0,134.8 839.0,135.3 838.9,135.7 838.8,136.1 838.8,136.5 838.9,137.0 838.9,137.4 838.9,137.8 838.7,138.2 838.7,138.7 838.7,139.1 838.8,139.5 838.8,140.0 838.8,140.4 838.8,140.8 838.8,141.2 838.8,141.7 838.8,142.1 838.7,142.5 838.1,142.9 836.6,143.4 834.3,143.8 832.7,144.2 832.7,144.7 832.7,145.1 830.1,145.5 824.8,145.9 817.0,146.4 808.6,146.8 804.6,147.2 809.0,147.6 819.2,148.1 828.7,148.5 834.4,148.9 837.1,149.4 838.1,149.8 838.5,150.2 838.6,150.6 838.6,151.1 838.4,151.5 838.3,151.9 838.2,152.3 838.4,152.8 838.6,153.2 838.9,153.6 839.0,154.1 839.0,154.5 839.0,154.9 839.0,155.3 839.0,155.8 839.0,156.2 839.0,156.6 839.0,157.0 839.0,157.5 839.0,157.9 839.0,158.3 839.0,158.8 839.0,159.2 838.9,159.6 838.8,160.0 838.8,160.5 838.9,160.9 839.0,161.3 839.0,161.7 839.0,162.2 839.0,162.6 839.0,163.0 839.0,163.5" fill="#2a8" opacity="0.5" stroke="#2a8" stroke-width="1"/>
<line x1="804.7" y1="147.1557641124942" x2="873.3" y2="147.1557641124942" stroke="#114" stroke-width="2"/>
<circle cx="839.0" cy="147.6923631132379" r="2.4" fill="#114"/>
<text x="839.0" y="130.2994698769058" text-anchor="middle" font-size="11">1.37</text>
<text x="839.0" y="376" text-anchor="middle" font-size="12">zhbmv</text>
<text x="450.0" y="428" text-anchor="middle" font-size="11" fill="#666">violin = ratio distribution over sizes · line = median · dark dot = worst size · green = every size ≥ gate</text>
</svg>
