<svg xmlns="http://www.w3.org/2000/svg" width="900" height="460" font-family="sans-serif">
<rect width="900" height="460" fill="white"/>
<text x="450.0" y="28" text-anchor="middle" font-size="18" font-weight="bold">Complex LAPACK: PureBLAS / OpenBLAS (AVX2, 1 thread, ComplexF64)</text>
<line x1="62" y1="400.0" x2="768" y2="400.0" stroke="#eee"/>
<text x="54" y="404.0" text-anchor="end" font-size="11" fill="#666">0.5×</text>
<line x1="62" y1="314.61051233943783" x2="768" y2="314.61051233943783" stroke="#eee"/>
<text x="54" y="318.61051233943783" text-anchor="end" font-size="11" fill="#666">0.7×</text>
<line x1="62" y1="224.09400782743378" x2="768" y2="224.09400782743378" stroke="#eee"/>
<text x="54" y="228.09400782743378" text-anchor="end" font-size="11" fill="#666">1.0×</text>
<line x1="62" y1="121.19559875433335" x2="768" y2="121.19559875433335" stroke="#eee"/>
<text x="54" y="125.19559875433335" text-anchor="end" font-size="11" fill="#666">1.5×</text>
<line x1="62.0" y1="50" x2="62.0" y2="400" stroke="#f4f4f4"/>
<text x="62.0" y="418" text-anchor="middle" font-size="11" fill="#444">8</text>
<line x1="238.5" y1="50" x2="238.5" y2="400" stroke="#f4f4f4"/>
<text x="238.5" y="418" text-anchor="middle" font-size="11" fill="#444">32</text>
<line x1="415.0" y1="50" x2="415.0" y2="400" stroke="#f4f4f4"/>
<text x="415.0" y="418" text-anchor="middle" font-size="11" fill="#444">128</text>
<line x1="503.25" y1="50" x2="503.25" y2="400" stroke="#f4f4f4"/>
<text x="503.25" y="418" text-anchor="middle" font-size="11" fill="#444">256</text>
<line x1="591.5" y1="50" x2="591.5" y2="400" stroke="#f4f4f4"/>
<text x="591.5" y="418" text-anchor="middle" font-size="11" fill="#444">512</text>
<line x1="679.75" y1="50" x2="679.75" y2="400" stroke="#f4f4f4"/>
<text x="679.75" y="418" text-anchor="middle" font-size="11" fill="#444">1024</text>
<line x1="768.0" y1="50" x2="768.0" y2="400" stroke="#f4f4f4"/>
<text x="768.0" y="418" text-anchor="middle" font-size="11" fill="#444">2048</text>
<line x1="62" y1="224.09400782743378" x2="768" y2="224.09400782743378" stroke="#888"/>
<line x1="62" y1="234.45376063310437" x2="768" y2="234.45376063310437" stroke="#d33" stroke-width="1.5" stroke-dasharray="6 4"/>
<text x="66" y="229.45376063310437" font-size="11" fill="#d33">0.96× gate</text>
<polygon points="62.0,109.8 238.5,175.5 415.0,218.0 503.2,223.3 591.5,211.7 679.8,203.4 768.0,204.9 768.0,205.8 679.8,206.3 591.5,212.4 503.2,224.1 415.0,218.5 238.5,176.5 62.0,180.0" fill="#1f77b4" opacity="0.14" stroke="none"/>
<polyline points="62.0,118.2 238.5,176.0 415.0,218.3 503.2,223.9 591.5,211.9 679.8,203.9 768.0,205.3" fill="none" stroke="#1f77b4" stroke-width="2"/>
<circle cx="62.0" cy="118.2" r="3" fill="#1f77b4"/>
<circle cx="238.5" cy="176.0" r="3" fill="#1f77b4"/>
<circle cx="415.0" cy="218.3" r="3" fill="#1f77b4"/>
<circle cx="503.2" cy="223.9" r="3" fill="#1f77b4"/>
<circle cx="591.5" cy="211.9" r="3" fill="#1f77b4"/>
<circle cx="679.8" cy="203.9" r="3" fill="#1f77b4"/>
<circle cx="768.0" cy="205.3" r="3" fill="#1f77b4"/>
<line x1="782" y1="56" x2="802" y2="56" stroke="#1f77b4" stroke-width="3"/>
<text x="806" y="60" font-size="12">zpotrf</text>
<polygon points="62.0,201.2 238.5,337.4 415.0,341.9 503.2,300.1 591.5,278.6 679.8,287.9 768.0,291.3 768.0,292.0 679.8,288.2 591.5,281.0 503.2,301.2 415.0,344.0 238.5,338.5 62.0,205.9" fill="#d62728" opacity="0.14" stroke="none"/>
<polyline points="62.0,203.9 238.5,337.9 415.0,342.9 503.2,300.8 591.5,279.6 679.8,288.1 768.0,291.8" fill="none" stroke="#d62728" stroke-width="2"/>
<circle cx="62.0" cy="203.9" r="3" fill="#d62728"/>
<circle cx="238.5" cy="337.9" r="3" fill="#d62728"/>
<circle cx="415.0" cy="342.9" r="3" fill="#d62728"/>
<circle cx="503.2" cy="300.8" r="3" fill="#d62728"/>
<circle cx="591.5" cy="279.6" r="3" fill="#d62728"/>
<circle cx="679.8" cy="288.1" r="3" fill="#d62728"/>
<circle cx="768.0" cy="291.8" r="3" fill="#d62728"/>
<line x1="782" y1="74" x2="802" y2="74" stroke="#d62728" stroke-width="3"/>
<text x="806" y="78" font-size="12">zgeqrf</text>
<polygon points="62.0,159.7 238.5,212.4 415.0,273.7 503.2,279.4 591.5,253.8 679.8,275.6 768.0,280.4 768.0,283.0 679.8,276.4 591.5,254.5 503.2,280.2 415.0,274.2 238.5,212.8 62.0,160.1" fill="#2ca02c" opacity="0.14" stroke="none"/>
<polyline points="62.0,159.8 238.5,212.6 415.0,273.9 503.2,280.0 591.5,254.2 679.8,276.0 768.0,281.8" fill="none" stroke="#2ca02c" stroke-width="2"/>
<circle cx="62.0" cy="159.8" r="3" fill="#2ca02c"/>
<circle cx="238.5" cy="212.6" r="3" fill="#2ca02c"/>
<circle cx="415.0" cy="273.9" r="3" fill="#2ca02c"/>
<circle cx="503.2" cy="280.0" r="3" fill="#2ca02c"/>
<circle cx="591.5" cy="254.2" r="3" fill="#2ca02c"/>
<circle cx="679.8" cy="276.0" r="3" fill="#2ca02c"/>
<circle cx="768.0" cy="281.8" r="3" fill="#2ca02c"/>
<line x1="782" y1="92" x2="802" y2="92" stroke="#2ca02c" stroke-width="3"/>
<text x="806" y="96" font-size="12">zgetrf</text>
<polygon points="62.0,85.1 238.5,237.7 415.0,400.0 503.2,400.0 591.5,400.0 679.8,400.0 768.0,400.0 768.0,400.0 679.8,400.0 591.5,400.0 503.2,400.0 415.0,400.0 238.5,243.6 62.0,85.6" fill="#9467bd" opacity="0.14" stroke="none"/>
<polyline points="62.0,85.5 238.5,243.4 415.0,400.0 503.2,400.0 591.5,400.0 679.8,400.0 768.0,400.0" fill="none" stroke="#9467bd" stroke-width="2"/>
<circle cx="62.0" cy="85.5" r="3" fill="#9467bd"/>
<circle cx="238.5" cy="243.4" r="3" fill="#9467bd"/>
<circle cx="415.0" cy="400.0" r="3" fill="#9467bd"/>
<circle cx="503.2" cy="400.0" r="3" fill="#9467bd"/>
<circle cx="591.5" cy="400.0" r="3" fill="#9467bd"/>
<circle cx="679.8" cy="400.0" r="3" fill="#9467bd"/>
<circle cx="768.0" cy="400.0" r="3" fill="#9467bd"/>
<line x1="782" y1="110" x2="802" y2="110" stroke="#9467bd" stroke-width="3"/>
<text x="806" y="114" font-size="12">zgesvd</text>
<text x="415.0" y="450" text-anchor="middle" font-size="11" fill="#666">matrix size n (log) · y = median ratio (log) · dashed = the 0.96× gate</text>
</svg>
