<svg xmlns="http://www.w3.org/2000/svg" width="900" height="440" font-family="sans-serif">
<rect width="900" height="440" fill="white"/>
<text x="450.0" y="28" text-anchor="middle" font-size="18" font-weight="bold">Complex BLAS-1: PureBLAS / OpenBLAS (AVX2, 1 thread, ComplexF64)</text>
<line x1="60" y1="358.0" x2="880" y2="358.0" stroke="#eee"/>
<text x="52" y="362.0" text-anchor="end" font-size="11" fill="#666">0×</text>
<line x1="60" y1="342.00709663437686" x2="880" y2="342.00709663437686" stroke="#eee"/>
<text x="52" y="346.00709663437686" text-anchor="end" font-size="11" fill="#666">0.5×</text>
<line x1="60" y1="326.0141932687537" x2="880" y2="326.0141932687537" stroke="#eee"/>
<text x="52" y="330.0141932687537" text-anchor="end" font-size="11" fill="#666">1×</text>
<line x1="60" y1="310.0212899031305" x2="880" y2="310.0212899031305" stroke="#eee"/>
<text x="52" y="314.0212899031305" text-anchor="end" font-size="11" fill="#666">1.5×</text>
<line x1="60" y1="326.0141932687537" x2="880" y2="326.0141932687537" stroke="#888" stroke-width="1"/>
<line x1="60" y1="327.2936255380035" x2="880" y2="327.2936255380035" stroke="#d33" stroke-width="1.5" stroke-dasharray="6 4"/>
<text x="880" y="322.2936255380035" text-anchor="end" font-size="11" fill="#d33">0.96× gate</text>
<polygon points="142.0,339.5 142.1,339.2 142.2,338.9 142.3,338.6 142.4,338.3 142.6,338.0 142.7,337.7 142.8,337.4 142.7,337.1 142.6,336.7 142.5,336.4 142.3,336.1 142.2,335.8 142.1,335.5 142.0,335.2 142.0,334.9 142.0,334.6 142.0,334.3 142.0,334.0 142.0,333.7 142.0,333.4 142.0,333.1 142.0,332.8 142.0,332.5 142.0,332.2 142.0,331.9 142.0,331.5 142.0,331.2 142.0,330.9 142.0,330.6 142.1,330.3 142.2,330.0 142.4,329.7 142.6,329.4 143.1,329.1 144.0,328.8 145.6,328.5 148.5,328.2 153.4,327.9 160.9,327.6 171.3,327.3 183.6,327.0 196.0,326.6 205.9,326.3 210.9,326.0 210.0,325.7 203.7,325.4 194.1,325.1 183.6,324.8 173.9,324.5 166.3,324.2 160.7,323.9 156.7,323.6 154.1,323.3 152.4,323.0 151.5,322.7 151.4,322.4 152.1,322.1 153.4,321.7 155.1,321.4 156.6,321.1 157.4,320.8 157.0,320.5 155.5,320.2 153.0,319.9 150.2,319.6 147.5,319.3 145.3,319.0 143.8,318.7 142.9,318.4 142.4,318.1 142.2,317.8 141.8,317.8 141.6,318.1 141.1,318.4 140.2,318.7 138.7,319.0 136.5,319.3 133.8,319.6 131.0,319.9 128.5,320.2 127.0,320.5 126.6,320.8 127.4,321.1 128.9,321.4 130.6,321.7 131.9,322.1 132.6,322.4 132.5,322.7 131.6,323.0 129.9,323.3 127.3,323.6 123.3,323.9 117.7,324.2 110.1,324.5 100.4,324.8 89.9,325.1 80.3,325.4 74.0,325.7 73.1,326.0 78.1,326.3 88.0,326.6 100.4,327.0 112.7,327.3 123.1,327.6 130.6,327.9 135.5,328.2 138.4,328.5 140.0,328.8 140.9,329.1 141.4,329.4 141.6,329.7 141.8,330.0 141.9,330.3 142.0,330.6 142.0,330.9 142.0,331.2 142.0,331.5 142.0,331.9 142.0,332.2 142.0,332.5 142.0,332.8 142.0,333.1 142.0,333.4 142.0,333.7 142.0,334.0 142.0,334.3 142.0,334.6 142.0,334.9 142.0,335.2 141.9,335.5 141.8,335.8 141.7,336.1 141.5,336.4 141.4,336.7 141.3,337.1 141.2,337.4 141.3,337.7 141.4,338.0 141.6,338.3 141.7,338.6 141.8,338.9 141.9,339.2 142.0,339.5" fill="#2a8" opacity="0.5" stroke="#2a8" stroke-width="1"/>
<line x1="73.6" y1="325.7705684932378" x2="210.4" y2="325.7705684932378" stroke="#114" stroke-width="2"/>
<circle cx="142.0" cy="326.352000091031" r="2.4" fill="#114"/>
<text x="142.0" y="313.92566899461264" text-anchor="middle" font-size="11">1.01</text>
<text x="142.0" y="376" text-anchor="middle" font-size="12">zaxpy</text>
<polygon points="306.6,336.3 306.9,336.1 307.4,335.8 308.0,335.6 308.8,335.3 309.9,335.0 311.2,334.8 312.6,334.5 314.2,334.3 315.8,334.0 317.3,333.7 318.6,333.5 319.5,333.2 319.9,332.9 319.9,332.7 319.3,332.4 318.3,332.2 317.1,331.9 315.7,331.6 314.2,331.4 312.8,331.1 311.5,330.9 310.4,330.6 309.5,330.3 308.8,330.1 308.3,329.8 308.1,329.5 308.3,329.3 308.8,329.0 309.9,328.8 311.6,328.5 314.2,328.2 317.9,328.0 322.6,327.7 328.5,327.5 335.3,327.2 342.9,326.9 350.8,326.7 358.3,326.4 365.1,326.1 370.3,325.9 373.7,325.6 374.9,325.4 373.9,325.1 370.8,324.8 366.2,324.6 360.4,324.3 354.1,324.0 347.7,323.8 341.7,323.5 336.2,323.3 331.6,323.0 327.7,322.7 324.5,322.5 322.0,322.2 319.9,322.0 318.3,321.7 316.9,321.4 315.8,321.2 314.8,320.9 313.9,320.6 313.1,320.4 312.3,320.1 311.6,319.9 310.8,319.6 310.1,319.3 309.3,319.1 308.7,318.8 308.1,318.6 307.6,318.3 307.2,318.0 306.8,317.8 305.2,317.8 304.8,318.0 304.4,318.3 303.9,318.6 303.3,318.8 302.7,319.1 301.9,319.3 301.2,319.6 300.4,319.9 299.7,320.1 298.9,320.4 298.1,320.6 297.2,320.9 296.2,321.2 295.1,321.4 293.7,321.7 292.1,322.0 290.0,322.2 287.5,322.5 284.3,322.7 280.4,323.0 275.8,323.3 270.3,323.5 264.3,323.8 257.9,324.0 251.6,324.3 245.8,324.6 241.2,324.8 238.1,325.1 237.1,325.4 238.3,325.6 241.7,325.9 246.9,326.1 253.7,326.4 261.2,326.7 269.1,326.9 276.7,327.2 283.5,327.5 289.4,327.7 294.1,328.0 297.8,328.2 300.4,328.5 302.1,328.8 303.2,329.0 303.7,329.3 303.9,329.5 303.7,329.8 303.2,330.1 302.5,330.3 301.6,330.6 300.5,330.9 299.2,331.1 297.8,331.4 296.3,331.6 294.9,331.9 293.7,332.2 292.7,332.4 292.1,332.7 292.1,332.9 292.5,333.2 293.4,333.5 294.7,333.7 296.2,334.0 297.8,334.3 299.4,334.5 300.8,334.8 302.1,335.0 303.2,335.3 304.0,335.6 304.6,335.8 305.1,336.1 305.4,336.3" fill="#d33" opacity="0.5" stroke="#d33" stroke-width="1"/>
<line x1="237.4" y1="325.48839880229036" x2="374.6" y2="325.48839880229036" stroke="#114" stroke-width="2"/>
<circle cx="306.0" cy="332.94782036696216" r="2.4" fill="#114"/>
<text x="306.0" y="313.62019031565904" text-anchor="middle" font-size="11">1.02</text>
<text x="306.0" y="376" text-anchor="middle" font-size="12">zdotc</text>
<polygon points="470.0,339.9 470.0,339.6 470.1,339.3 470.2,339.1 470.3,338.8 470.6,338.5 470.8,338.3 470.9,338.0 470.8,337.7 470.6,337.4 470.4,337.2 470.2,336.9 470.1,336.6 470.0,336.4 470.0,336.1 470.0,335.8 470.0,335.5 470.0,335.3 470.0,335.0 470.0,334.7 470.0,334.5 470.0,334.2 470.0,333.9 470.0,333.6 470.0,333.4 470.0,333.1 470.0,332.8 470.0,332.6 470.0,332.3 470.0,332.0 470.0,331.7 470.0,331.5 470.0,331.2 470.0,330.9 470.0,330.7 470.0,330.4 470.0,330.1 470.0,329.8 470.1,329.6 470.3,329.3 470.8,329.0 472.0,328.8 474.1,328.5 477.4,328.2 482.0,327.9 487.8,327.7 495.2,327.4 504.3,327.1 515.1,326.9 526.3,326.6 535.2,326.3 538.9,326.0 536.4,325.8 529.3,325.5 520.6,325.2 512.0,325.0 503.7,324.7 495.7,324.4 488.8,324.2 483.6,323.9 480.2,323.6 477.9,323.3 476.0,323.1 474.4,322.8 473.1,322.5 472.1,322.3 471.3,322.0 470.7,321.7 470.3,321.4 470.1,321.2 470.0,320.9 470.0,320.6 470.0,320.6 470.0,320.9 469.9,321.2 469.7,321.4 469.3,321.7 468.7,322.0 467.9,322.3 466.9,322.5 465.6,322.8 464.0,323.1 462.1,323.3 459.8,323.6 456.4,323.9 451.2,324.2 444.3,324.4 436.3,324.7 428.0,325.0 419.4,325.2 410.7,325.5 403.6,325.8 401.1,326.0 404.8,326.3 413.7,326.6 424.9,326.9 435.7,327.1 444.8,327.4 452.2,327.7 458.0,327.9 462.6,328.2 465.9,328.5 468.0,328.8 469.2,329.0 469.7,329.3 469.9,329.6 470.0,329.8 470.0,330.1 470.0,330.4 470.0,330.7 470.0,330.9 470.0,331.2 470.0,331.5 470.0,331.7 470.0,332.0 470.0,332.3 470.0,332.6 470.0,332.8 470.0,333.1 470.0,333.4 470.0,333.6 470.0,333.9 470.0,334.2 470.0,334.5 470.0,334.7 470.0,335.0 470.0,335.3 470.0,335.5 470.0,335.8 470.0,336.1 470.0,336.4 469.9,336.6 469.8,336.9 469.6,337.2 469.4,337.4 469.2,337.7 469.1,338.0 469.2,338.3 469.4,338.5 469.7,338.8 469.8,339.1 469.9,339.3 470.0,339.6 470.0,339.9" fill="#2a8" opacity="0.5" stroke="#2a8" stroke-width="1"/>
<line x1="401.1" y1="325.9994124263355" x2="538.9" y2="325.9994124263355" stroke="#114" stroke-width="2"/>
<circle cx="470.0" cy="327.0266346089279" r="2.4" fill="#114"/>
<text x="470.0" y="316.5388374711201" text-anchor="middle" font-size="11">1.00</text>
<text x="470.0" y="376" text-anchor="middle" font-size="12">zscal</text>
<polygon points="640.9,215.5 642.8,213.2 645.0,210.9 647.4,208.6 650.0,206.3 652.8,204.0 655.6,201.7 658.5,199.3 661.2,197.0 663.7,194.7 666.0,192.4 667.9,190.1 669.5,187.8 670.8,185.5 671.6,183.2 672.2,180.9 672.3,178.6 672.1,176.2 671.5,173.9 670.7,171.6 669.5,169.3 668.1,167.0 666.3,164.7 664.4,162.4 662.3,160.1 660.1,157.8 657.9,155.5 655.7,153.1 653.8,150.8 652.0,148.5 650.7,146.2 649.8,143.9 649.5,141.6 649.9,139.3 651.0,137.0 653.0,134.7 655.9,132.4 659.6,130.0 664.2,127.7 669.4,125.4 675.2,123.1 681.1,120.8 687.0,118.5 692.4,116.2 697.0,113.9 700.4,111.6 702.4,109.3 702.9,106.9 701.7,104.6 698.9,102.3 694.8,100.0 689.6,97.7 683.6,95.4 677.1,93.1 670.7,90.8 664.4,88.5 658.7,86.2 653.6,83.8 649.2,81.5 645.6,79.2 642.7,76.9 640.5,74.6 638.8,72.3 637.6,70.0 636.7,67.7 636.1,65.4 635.6,63.1 635.3,60.8 635.0,58.4 634.8,56.1 634.7,53.8 634.5,51.5 633.5,51.5 633.3,53.8 633.2,56.1 633.0,58.4 632.7,60.8 632.4,63.1 631.9,65.4 631.3,67.7 630.4,70.0 629.2,72.3 627.5,74.6 625.3,76.9 622.4,79.2 618.8,81.5 614.4,83.8 609.3,86.2 603.6,88.5 597.3,90.8 590.9,93.1 584.4,95.4 578.4,97.7 573.2,100.0 569.1,102.3 566.3,104.6 565.1,106.9 565.6,109.3 567.6,111.6 571.0,113.9 575.6,116.2 581.0,118.5 586.9,120.8 592.8,123.1 598.6,125.4 603.8,127.7 608.4,130.0 612.1,132.4 615.0,134.7 617.0,137.0 618.1,139.3 618.5,141.6 618.2,143.9 617.3,146.2 616.0,148.5 614.2,150.8 612.3,153.1 610.1,155.5 607.9,157.8 605.7,160.1 603.6,162.4 601.7,164.7 599.9,167.0 598.5,169.3 597.3,171.6 596.5,173.9 595.9,176.2 595.7,178.6 595.8,180.9 596.4,183.2 597.2,185.5 598.5,187.8 600.1,190.1 602.0,192.4 604.3,194.7 606.8,197.0 609.5,199.3 612.4,201.7 615.2,204.0 618.0,206.3 620.6,208.6 623.0,210.9 625.2,213.2 627.1,215.5" fill="#2a8" opacity="0.5" stroke="#2a8" stroke-width="1"/>
<line x1="568.1" y1="111.95624390470314" x2="699.9" y2="111.95624390470314" stroke="#114" stroke-width="2"/>
<circle cx="634.0" cy="193.42518724271568" r="2.4" fill="#114"/>
<text x="634.0" y="61.433962264150935" text-anchor="middle" font-size="11">7.69</text>
<text x="634.0" y="376" text-anchor="middle" font-size="12">dznrm2</text>
<polygon points="818.6,320.1 823.0,319.7 827.8,319.3 832.9,318.9 838.2,318.5 843.5,318.1 848.5,317.7 853.2,317.3 857.4,316.8 860.9,316.4 863.6,316.0 865.5,315.6 866.5,315.2 866.9,314.8 866.6,314.4 865.8,314.0 864.8,313.6 863.7,313.2 862.7,312.8 862.0,312.4 861.6,311.9 861.6,311.5 861.9,311.1 862.6,310.7 863.3,310.3 864.0,309.9 864.5,309.5 864.5,309.1 863.8,308.7 862.4,308.3 860.2,307.9 857.1,307.5 853.2,307.1 848.7,306.6 843.8,306.2 838.5,305.8 833.1,305.4 827.9,305.0 823.0,304.6 818.4,304.2 814.4,303.8 811.0,303.4 808.2,303.0 806.0,302.6 804.3,302.2 803.1,301.7 802.4,301.3 802.1,300.9 802.2,300.5 802.7,300.1 803.4,299.7 804.5,299.3 805.7,298.9 807.2,298.5 808.9,298.1 810.7,297.7 812.5,297.3 814.3,296.8 815.9,296.4 817.3,296.0 818.5,295.6 819.3,295.2 819.6,294.8 819.6,294.4 819.1,294.0 818.2,293.6 816.9,293.2 815.4,292.8 813.6,292.4 811.8,291.9 809.9,291.5 808.0,291.1 788.0,291.1 786.1,291.5 784.2,291.9 782.4,292.4 780.6,292.8 779.1,293.2 777.8,293.6 776.9,294.0 776.4,294.4 776.4,294.8 776.7,295.2 777.5,295.6 778.7,296.0 780.1,296.4 781.7,296.8 783.5,297.3 785.3,297.7 787.1,298.1 788.8,298.5 790.3,298.9 791.5,299.3 792.6,299.7 793.3,300.1 793.8,300.5 793.9,300.9 793.6,301.3 792.9,301.7 791.7,302.2 790.0,302.6 787.8,303.0 785.0,303.4 781.6,303.8 777.6,304.2 773.0,304.6 768.1,305.0 762.9,305.4 757.5,305.8 752.2,306.2 747.3,306.6 742.8,307.1 738.9,307.5 735.8,307.9 733.6,308.3 732.2,308.7 731.5,309.1 731.5,309.5 732.0,309.9 732.7,310.3 733.4,310.7 734.1,311.1 734.4,311.5 734.4,311.9 734.0,312.4 733.3,312.8 732.3,313.2 731.2,313.6 730.2,314.0 729.4,314.4 729.1,314.8 729.5,315.2 730.5,315.6 732.4,316.0 735.1,316.4 738.6,316.8 742.8,317.3 747.5,317.7 752.5,318.1 757.8,318.5 763.1,318.9 768.2,319.3 773.0,319.7 777.4,320.1" fill="#2a8" opacity="0.5" stroke="#2a8" stroke-width="1"/>
<line x1="732.4" y1="310.1716402093751" x2="863.6" y2="310.1716402093751" stroke="#114" stroke-width="2"/>
<circle cx="798.0" cy="316.5668436665015" r="2.4" fill="#114"/>
<text x="798.0" y="287.98880261116574" text-anchor="middle" font-size="11">1.50</text>
<text x="798.0" y="376" text-anchor="middle" font-size="12">dzasum</text>
<text x="450.0" y="428" text-anchor="middle" font-size="11" fill="#666">violin = ratio distribution over sizes · line = median · dark dot = worst size · green = every size ≥ gate</text>
</svg>
