<svg xmlns="http://www.w3.org/2000/svg" width="900" height="460" font-family="sans-serif">
<rect width="900" height="460" fill="white"/>
<text x="450.0" y="28" text-anchor="middle" font-size="18" font-weight="bold">LAPACK: PureBLAS / OpenBLAS (AVX-512, 1 thread, Float64)</text>
<line x1="62" y1="400.0" x2="768" y2="400.0" stroke="#eee"/>
<text x="54" y="404.0" text-anchor="end" font-size="11" fill="#666">0.5×</text>
<line x1="62" y1="335.0800381679108" x2="768" y2="335.0800381679108" stroke="#eee"/>
<text x="54" y="339.0800381679108" text-anchor="end" font-size="11" fill="#666">0.7×</text>
<line x1="62" y1="266.26210543299567" x2="768" y2="266.26210543299567" stroke="#eee"/>
<text x="54" y="270.26210543299567" text-anchor="end" font-size="11" fill="#666">1.0×</text>
<line x1="62" y1="188.03045218589847" x2="768" y2="188.03045218589847" stroke="#eee"/>
<text x="54" y="192.03045218589847" text-anchor="end" font-size="11" fill="#666">1.5×</text>
<line x1="62" y1="132.52421086599128" x2="768" y2="132.52421086599128" stroke="#eee"/>
<text x="54" y="136.52421086599128" text-anchor="end" font-size="11" fill="#666">2.0×</text>
<line x1="62" y1="54.29255761889408" x2="768" y2="54.29255761889408" stroke="#eee"/>
<text x="54" y="58.29255761889408" text-anchor="end" font-size="11" fill="#666">3.0×</text>
<line x1="62.0" y1="50" x2="62.0" y2="400" stroke="#f4f4f4"/>
<text x="62.0" y="418" text-anchor="middle" font-size="11" fill="#444">8</text>
<line x1="238.5" y1="50" x2="238.5" y2="400" stroke="#f4f4f4"/>
<text x="238.5" y="418" text-anchor="middle" font-size="11" fill="#444">32</text>
<line x1="415.0" y1="50" x2="415.0" y2="400" stroke="#f4f4f4"/>
<text x="415.0" y="418" text-anchor="middle" font-size="11" fill="#444">128</text>
<line x1="503.25" y1="50" x2="503.25" y2="400" stroke="#f4f4f4"/>
<text x="503.25" y="418" text-anchor="middle" font-size="11" fill="#444">256</text>
<line x1="591.5" y1="50" x2="591.5" y2="400" stroke="#f4f4f4"/>
<text x="591.5" y="418" text-anchor="middle" font-size="11" fill="#444">512</text>
<line x1="679.75" y1="50" x2="679.75" y2="400" stroke="#f4f4f4"/>
<text x="679.75" y="418" text-anchor="middle" font-size="11" fill="#444">1024</text>
<line x1="768.0" y1="50" x2="768.0" y2="400" stroke="#f4f4f4"/>
<text x="768.0" y="418" text-anchor="middle" font-size="11" fill="#444">2048</text>
<line x1="62" y1="266.26210543299567" x2="768" y2="266.26210543299567" stroke="#888"/>
<line x1="62" y1="274.13842341030374" x2="768" y2="274.13842341030374" stroke="#d33" stroke-width="1.5" stroke-dasharray="6 4"/>
<text x="66" y="269.13842341030374" font-size="11" fill="#d33">0.96× gate</text>
<polygon points="62.0,254.9 238.5,188.9 415.0,201.8 503.2,192.5 591.5,206.1 679.8,229.0 768.0,252.1 768.0,253.1 679.8,231.1 591.5,215.3 503.2,198.9 415.0,209.0 238.5,191.6 62.0,260.1" fill="#1f77b4" opacity="0.14" stroke="none"/>
<polyline points="62.0,257.7 238.5,190.0 415.0,207.6 503.2,196.2 591.5,211.7 679.8,230.0 768.0,252.6" fill="none" stroke="#1f77b4" stroke-width="2"/>
<circle cx="62.0" cy="257.7" r="3" fill="#1f77b4"/>
<circle cx="238.5" cy="190.0" r="3" fill="#1f77b4"/>
<circle cx="415.0" cy="207.6" r="3" fill="#1f77b4"/>
<circle cx="503.2" cy="196.2" r="3" fill="#1f77b4"/>
<circle cx="591.5" cy="211.7" r="3" fill="#1f77b4"/>
<circle cx="679.8" cy="230.0" r="3" fill="#1f77b4"/>
<circle cx="768.0" cy="252.6" r="3" fill="#1f77b4"/>
<line x1="782" y1="56" x2="802" y2="56" stroke="#1f77b4" stroke-width="3"/>
<text x="806" y="60" font-size="12">potrf</text>
<polygon points="62.0,72.9 238.5,193.1 415.0,193.4 503.2,212.1 591.5,168.8 679.8,213.2 768.0,235.5 768.0,237.6 679.8,214.5 591.5,172.4 503.2,215.5 415.0,194.9 238.5,196.2 62.0,89.8" fill="#d62728" opacity="0.14" stroke="none"/>
<polyline points="62.0,77.0 238.5,195.2 415.0,194.4 503.2,213.9 591.5,170.9 679.8,213.6 768.0,237.1" fill="none" stroke="#d62728" stroke-width="2"/>
<circle cx="62.0" cy="77.0" r="3" fill="#d62728"/>
<circle cx="238.5" cy="195.2" r="3" fill="#d62728"/>
<circle cx="415.0" cy="194.4" r="3" fill="#d62728"/>
<circle cx="503.2" cy="213.9" r="3" fill="#d62728"/>
<circle cx="591.5" cy="170.9" r="3" fill="#d62728"/>
<circle cx="679.8" cy="213.6" r="3" fill="#d62728"/>
<circle cx="768.0" cy="237.1" r="3" fill="#d62728"/>
<line x1="782" y1="74" x2="802" y2="74" stroke="#d62728" stroke-width="3"/>
<text x="806" y="78" font-size="12">geqrf</text>
<polygon points="62.0,125.4 238.5,166.4 415.0,209.2 503.2,240.2 591.5,240.0 679.8,236.7 768.0,259.5 768.0,261.2 679.8,241.9 591.5,244.6 503.2,252.0 415.0,221.6 238.5,170.0 62.0,140.8" fill="#2ca02c" opacity="0.14" stroke="none"/>
<polyline points="62.0,139.6 238.5,168.3 415.0,209.9 503.2,242.1 591.5,243.9 679.8,240.4 768.0,261.0" fill="none" stroke="#2ca02c" stroke-width="2"/>
<circle cx="62.0" cy="139.6" r="3" fill="#2ca02c"/>
<circle cx="238.5" cy="168.3" r="3" fill="#2ca02c"/>
<circle cx="415.0" cy="209.9" r="3" fill="#2ca02c"/>
<circle cx="503.2" cy="242.1" r="3" fill="#2ca02c"/>
<circle cx="591.5" cy="243.9" r="3" fill="#2ca02c"/>
<circle cx="679.8" cy="240.4" r="3" fill="#2ca02c"/>
<circle cx="768.0" cy="261.0" r="3" fill="#2ca02c"/>
<line x1="782" y1="92" x2="802" y2="92" stroke="#2ca02c" stroke-width="3"/>
<text x="806" y="96" font-size="12">getrf</text>
<polygon points="62.0,172.7 238.5,208.4 415.0,257.3 503.2,214.0 591.5,206.9 679.8,216.9 768.0,242.6 768.0,245.6 679.8,220.2 591.5,208.4 503.2,215.1 415.0,258.7 238.5,214.4 62.0,173.8" fill="#9467bd" opacity="0.14" stroke="none"/>
<polyline points="62.0,173.5 238.5,213.9 415.0,257.7 503.2,214.6 591.5,208.1 679.8,218.5 768.0,244.1" fill="none" stroke="#9467bd" stroke-width="2"/>
<circle cx="62.0" cy="173.5" r="3" fill="#9467bd"/>
<circle cx="238.5" cy="213.9" r="3" fill="#9467bd"/>
<circle cx="415.0" cy="257.7" r="3" fill="#9467bd"/>
<circle cx="503.2" cy="214.6" r="3" fill="#9467bd"/>
<circle cx="591.5" cy="208.1" r="3" fill="#9467bd"/>
<circle cx="679.8" cy="218.5" r="3" fill="#9467bd"/>
<circle cx="768.0" cy="244.1" r="3" fill="#9467bd"/>
<line x1="782" y1="110" x2="802" y2="110" stroke="#9467bd" stroke-width="3"/>
<text x="806" y="114" font-size="12">gesvd</text>
<text x="415.0" y="450" text-anchor="middle" font-size="11" fill="#666">matrix size n (log) · y = median ratio (log) · dashed = the 0.96× gate</text>
</svg>
