<svg xmlns="http://www.w3.org/2000/svg" width="900" height="460" font-family="sans-serif">
<rect width="900" height="460" fill="white"/>
<text x="450.0" y="28" text-anchor="middle" font-size="18" font-weight="bold">BLAS-3: PureBLAS / OpenBLAS (AVX2, 1 thread, Float64)</text>
<line x1="62" y1="400.0" x2="768" y2="400.0" stroke="#eee"/>
<text x="54" y="404.0" text-anchor="end" font-size="11" fill="#666">0.5×</text>
<line x1="62" y1="322.4992466540823" x2="768" y2="322.4992466540823" stroke="#eee"/>
<text x="54" y="326.4992466540823" text-anchor="end" font-size="11" fill="#666">0.7×</text>
<line x1="62" y1="240.3451374995024" x2="768" y2="240.3451374995024" stroke="#eee"/>
<text x="54" y="244.3451374995024" text-anchor="end" font-size="11" fill="#666">1.0×</text>
<line x1="62" y1="146.9530298789191" x2="768" y2="146.9530298789191" stroke="#eee"/>
<text x="54" y="150.9530298789191" text-anchor="end" font-size="11" fill="#666">1.5×</text>
<line x1="62" y1="80.69027499900488" x2="768" y2="80.69027499900488" stroke="#eee"/>
<text x="54" y="84.69027499900488" text-anchor="end" font-size="11" fill="#666">2.0×</text>
<line x1="62.0" y1="50" x2="62.0" y2="400" stroke="#f4f4f4"/>
<text x="62.0" y="418" text-anchor="middle" font-size="11" fill="#444">8</text>
<line x1="238.5" y1="50" x2="238.5" y2="400" stroke="#f4f4f4"/>
<text x="238.5" y="418" text-anchor="middle" font-size="11" fill="#444">32</text>
<line x1="415.0" y1="50" x2="415.0" y2="400" stroke="#f4f4f4"/>
<text x="415.0" y="418" text-anchor="middle" font-size="11" fill="#444">128</text>
<line x1="503.25" y1="50" x2="503.25" y2="400" stroke="#f4f4f4"/>
<text x="503.25" y="418" text-anchor="middle" font-size="11" fill="#444">256</text>
<line x1="591.5" y1="50" x2="591.5" y2="400" stroke="#f4f4f4"/>
<text x="591.5" y="418" text-anchor="middle" font-size="11" fill="#444">512</text>
<line x1="679.75" y1="50" x2="679.75" y2="400" stroke="#f4f4f4"/>
<text x="679.75" y="418" text-anchor="middle" font-size="11" fill="#444">1024</text>
<line x1="768.0" y1="50" x2="768.0" y2="400" stroke="#f4f4f4"/>
<text x="768.0" y="418" text-anchor="middle" font-size="11" fill="#444">2048</text>
<line x1="62" y1="240.3451374995024" x2="768" y2="240.3451374995024" stroke="#888"/>
<line x1="62" y1="249.747801327497" x2="768" y2="249.747801327497" stroke="#d33" stroke-width="1.5" stroke-dasharray="6 4"/>
<text x="66" y="244.747801327497" font-size="11" fill="#d33">0.96× gate</text>
<polygon points="62.0,81.5 238.5,229.9 415.0,224.9 503.2,235.4 591.5,227.9 679.8,219.0 768.0,197.7 768.0,198.7 679.8,220.1 591.5,228.3 503.2,235.7 415.0,225.3 238.5,231.2 62.0,82.7" fill="#1f77b4" opacity="0.14" stroke="none"/>
<polyline points="62.0,82.2 238.5,231.0 415.0,225.0 503.2,235.6 591.5,228.1 679.8,219.5 768.0,198.4" fill="none" stroke="#1f77b4" stroke-width="2"/>
<circle cx="62.0" cy="82.2" r="3" fill="#1f77b4"/>
<circle cx="238.5" cy="231.0" r="3" fill="#1f77b4"/>
<circle cx="415.0" cy="225.0" r="3" fill="#1f77b4"/>
<circle cx="503.2" cy="235.6" r="3" fill="#1f77b4"/>
<circle cx="591.5" cy="228.1" r="3" fill="#1f77b4"/>
<circle cx="679.8" cy="219.5" r="3" fill="#1f77b4"/>
<circle cx="768.0" cy="198.4" r="3" fill="#1f77b4"/>
<line x1="782" y1="56" x2="802" y2="56" stroke="#1f77b4" stroke-width="3"/>
<text x="806" y="60" font-size="12">gemm</text>
<polygon points="62.0,174.0 238.5,253.4 415.0,217.3 503.2,201.7 591.5,193.3 679.8,190.9 768.0,186.1 768.0,186.2 679.8,192.6 591.5,193.6 503.2,202.5 415.0,217.6 238.5,254.2 62.0,214.1" fill="#d62728" opacity="0.14" stroke="none"/>
<polyline points="62.0,182.1 238.5,253.9 415.0,217.5 503.2,202.1 591.5,193.4 679.8,191.6 768.0,186.1" fill="none" stroke="#d62728" stroke-width="2"/>
<circle cx="62.0" cy="182.1" r="3" fill="#d62728"/>
<circle cx="238.5" cy="253.9" r="3" fill="#d62728"/>
<circle cx="415.0" cy="217.5" r="3" fill="#d62728"/>
<circle cx="503.2" cy="202.1" r="3" fill="#d62728"/>
<circle cx="591.5" cy="193.4" r="3" fill="#d62728"/>
<circle cx="679.8" cy="191.6" r="3" fill="#d62728"/>
<circle cx="768.0" cy="186.1" r="3" fill="#d62728"/>
<line x1="782" y1="74" x2="802" y2="74" stroke="#d62728" stroke-width="3"/>
<text x="806" y="78" font-size="12">zgemm</text>
<polygon points="62.0,213.9 238.5,252.2 415.0,246.4 503.2,246.4 591.5,233.6 679.8,230.6 768.0,229.5 768.0,231.4 679.8,231.0 591.5,235.7 503.2,246.9 415.0,247.8 238.5,256.7 62.0,216.5" fill="#2ca02c" opacity="0.14" stroke="none"/>
<polyline points="62.0,216.1 238.5,256.3 415.0,247.3 503.2,246.5 591.5,235.1 679.8,230.8 768.0,230.9" fill="none" stroke="#2ca02c" stroke-width="2"/>
<circle cx="62.0" cy="216.1" r="3" fill="#2ca02c"/>
<circle cx="238.5" cy="256.3" r="3" fill="#2ca02c"/>
<circle cx="415.0" cy="247.3" r="3" fill="#2ca02c"/>
<circle cx="503.2" cy="246.5" r="3" fill="#2ca02c"/>
<circle cx="591.5" cy="235.1" r="3" fill="#2ca02c"/>
<circle cx="679.8" cy="230.8" r="3" fill="#2ca02c"/>
<circle cx="768.0" cy="230.9" r="3" fill="#2ca02c"/>
<line x1="782" y1="92" x2="802" y2="92" stroke="#2ca02c" stroke-width="3"/>
<text x="806" y="96" font-size="12">symm</text>
<polygon points="62.0,145.5 238.5,194.9 415.0,238.5 503.2,237.6 591.5,230.5 679.8,230.1 768.0,234.3 768.0,235.3 679.8,230.7 591.5,232.3 503.2,238.5 415.0,239.6 238.5,204.0 62.0,166.1" fill="#9467bd" opacity="0.14" stroke="none"/>
<polyline points="62.0,147.3 238.5,196.9 415.0,239.2 503.2,238.0 591.5,231.6 679.8,230.4 768.0,234.9" fill="none" stroke="#9467bd" stroke-width="2"/>
<circle cx="62.0" cy="147.3" r="3" fill="#9467bd"/>
<circle cx="238.5" cy="196.9" r="3" fill="#9467bd"/>
<circle cx="415.0" cy="239.2" r="3" fill="#9467bd"/>
<circle cx="503.2" cy="238.0" r="3" fill="#9467bd"/>
<circle cx="591.5" cy="231.6" r="3" fill="#9467bd"/>
<circle cx="679.8" cy="230.4" r="3" fill="#9467bd"/>
<circle cx="768.0" cy="234.9" r="3" fill="#9467bd"/>
<line x1="782" y1="110" x2="802" y2="110" stroke="#9467bd" stroke-width="3"/>
<text x="806" y="114" font-size="12">syrk</text>
<polygon points="62.0,131.0 238.5,223.0 415.0,249.8 503.2,247.7 591.5,240.8 679.8,233.6 768.0,235.4 768.0,237.0 679.8,234.4 591.5,241.1 503.2,248.3 415.0,251.7 238.5,233.9 62.0,134.4" fill="#ff7f0e" opacity="0.14" stroke="none"/>
<polyline points="62.0,132.0 238.5,224.6 415.0,250.3 503.2,248.1 591.5,241.1 679.8,234.0 768.0,235.5" fill="none" stroke="#ff7f0e" stroke-width="2"/>
<circle cx="62.0" cy="132.0" r="3" fill="#ff7f0e"/>
<circle cx="238.5" cy="224.6" r="3" fill="#ff7f0e"/>
<circle cx="415.0" cy="250.3" r="3" fill="#ff7f0e"/>
<circle cx="503.2" cy="248.1" r="3" fill="#ff7f0e"/>
<circle cx="591.5" cy="241.1" r="3" fill="#ff7f0e"/>
<circle cx="679.8" cy="234.0" r="3" fill="#ff7f0e"/>
<circle cx="768.0" cy="235.5" r="3" fill="#ff7f0e"/>
<line x1="782" y1="128" x2="802" y2="128" stroke="#ff7f0e" stroke-width="3"/>
<text x="806" y="132" font-size="12">syr2k</text>
<polygon points="62.0,295.5 238.5,225.1 415.0,198.6 503.2,198.1 591.5,211.0 679.8,222.8 768.0,227.5 768.0,229.8 679.8,223.5 591.5,211.3 503.2,198.6 415.0,200.9 238.5,230.0 62.0,298.6" fill="#17becf" opacity="0.14" stroke="none"/>
<polyline points="62.0,296.3 238.5,227.3 415.0,200.7 503.2,198.3 591.5,211.2 679.8,222.8 768.0,227.7" fill="none" stroke="#17becf" stroke-width="2"/>
<circle cx="62.0" cy="296.3" r="3" fill="#17becf"/>
<circle cx="238.5" cy="227.3" r="3" fill="#17becf"/>
<circle cx="415.0" cy="200.7" r="3" fill="#17becf"/>
<circle cx="503.2" cy="198.3" r="3" fill="#17becf"/>
<circle cx="591.5" cy="211.2" r="3" fill="#17becf"/>
<circle cx="679.8" cy="222.8" r="3" fill="#17becf"/>
<circle cx="768.0" cy="227.7" r="3" fill="#17becf"/>
<line x1="782" y1="146" x2="802" y2="146" stroke="#17becf" stroke-width="3"/>
<text x="806" y="150" font-size="12">trmm</text>
<polygon points="62.0,225.3 238.5,258.0 415.0,251.3 503.2,243.3 591.5,230.5 679.8,232.2 768.0,225.9 768.0,229.3 679.8,234.6 591.5,232.2 503.2,244.1 415.0,264.3 238.5,271.3 62.0,225.7" fill="#8c564b" opacity="0.14" stroke="none"/>
<polyline points="62.0,225.6 238.5,269.5 415.0,261.0 503.2,243.7 591.5,231.1 679.8,232.8 768.0,228.0" fill="none" stroke="#8c564b" stroke-width="2"/>
<circle cx="62.0" cy="225.6" r="3" fill="#8c564b"/>
<circle cx="238.5" cy="269.5" r="3" fill="#8c564b"/>
<circle cx="415.0" cy="261.0" r="3" fill="#8c564b"/>
<circle cx="503.2" cy="243.7" r="3" fill="#8c564b"/>
<circle cx="591.5" cy="231.1" r="3" fill="#8c564b"/>
<circle cx="679.8" cy="232.8" r="3" fill="#8c564b"/>
<circle cx="768.0" cy="228.0" r="3" fill="#8c564b"/>
<line x1="782" y1="164" x2="802" y2="164" stroke="#8c564b" stroke-width="3"/>
<text x="806" y="168" font-size="12">trsm</text>
<text x="415.0" y="450" text-anchor="middle" font-size="11" fill="#666">matrix size n (log) · y = median ratio (log) · dashed = the 0.96× gate</text>
</svg>
