<svg xmlns="http://www.w3.org/2000/svg" width="900" height="460" font-family="sans-serif">
<rect width="900" height="460" fill="white"/>
<text x="450.0" y="28" text-anchor="middle" font-size="18" font-weight="bold">Complex LAPACK: PureBLAS / OpenBLAS (AVX-512, 1 thread, ComplexF64)</text>
<line x1="62" y1="400.0" x2="768" y2="400.0" stroke="#eee"/>
<text x="54" y="404.0" text-anchor="end" font-size="11" fill="#666">0.5×</text>
<line x1="62" y1="314.30085931862817" x2="768" y2="314.30085931862817" stroke="#eee"/>
<text x="54" y="318.30085931862817" text-anchor="end" font-size="11" fill="#666">0.7×</text>
<line x1="62" y1="223.45610937708486" x2="768" y2="223.45610937708486" stroke="#eee"/>
<text x="54" y="227.45610937708486" text-anchor="end" font-size="11" fill="#666">1.0×</text>
<line x1="62" y1="120.18455363126218" x2="768" y2="120.18455363126218" stroke="#eee"/>
<text x="54" y="124.18455363126218" text-anchor="end" font-size="11" fill="#666">1.5×</text>
<line x1="62.0" y1="50" x2="62.0" y2="400" stroke="#f4f4f4"/>
<text x="62.0" y="418" text-anchor="middle" font-size="11" fill="#444">8</text>
<line x1="238.5" y1="50" x2="238.5" y2="400" stroke="#f4f4f4"/>
<text x="238.5" y="418" text-anchor="middle" font-size="11" fill="#444">32</text>
<line x1="415.0" y1="50" x2="415.0" y2="400" stroke="#f4f4f4"/>
<text x="415.0" y="418" text-anchor="middle" font-size="11" fill="#444">128</text>
<line x1="503.25" y1="50" x2="503.25" y2="400" stroke="#f4f4f4"/>
<text x="503.25" y="418" text-anchor="middle" font-size="11" fill="#444">256</text>
<line x1="591.5" y1="50" x2="591.5" y2="400" stroke="#f4f4f4"/>
<text x="591.5" y="418" text-anchor="middle" font-size="11" fill="#444">512</text>
<line x1="679.75" y1="50" x2="679.75" y2="400" stroke="#f4f4f4"/>
<text x="679.75" y="418" text-anchor="middle" font-size="11" fill="#444">1024</text>
<line x1="768.0" y1="50" x2="768.0" y2="400" stroke="#f4f4f4"/>
<text x="768.0" y="418" text-anchor="middle" font-size="11" fill="#444">2048</text>
<line x1="62" y1="223.45610937708486" x2="768" y2="223.45610937708486" stroke="#888"/>
<line x1="62" y1="233.85343037573804" x2="768" y2="233.85343037573804" stroke="#d33" stroke-width="1.5" stroke-dasharray="6 4"/>
<text x="66" y="228.85343037573804" font-size="11" fill="#d33">0.96× gate</text>
<polygon points="62.0,126.8 238.5,160.8 415.0,173.7 503.2,171.0 591.5,173.6 679.8,187.4 768.0,197.7 768.0,203.9 679.8,189.6 591.5,176.5 503.2,179.6 415.0,192.8 238.5,165.6 62.0,133.3" fill="#1f77b4" opacity="0.14" stroke="none"/>
<polyline points="62.0,128.1 238.5,162.0 415.0,189.7 503.2,172.1 591.5,175.6 679.8,187.8 768.0,202.1" fill="none" stroke="#1f77b4" stroke-width="2"/>
<circle cx="62.0" cy="128.1" r="3" fill="#1f77b4"/>
<circle cx="238.5" cy="162.0" r="3" fill="#1f77b4"/>
<circle cx="415.0" cy="189.7" r="3" fill="#1f77b4"/>
<circle cx="503.2" cy="172.1" r="3" fill="#1f77b4"/>
<circle cx="591.5" cy="175.6" r="3" fill="#1f77b4"/>
<circle cx="679.8" cy="187.8" r="3" fill="#1f77b4"/>
<circle cx="768.0" cy="202.1" r="3" fill="#1f77b4"/>
<line x1="782" y1="56" x2="802" y2="56" stroke="#1f77b4" stroke-width="3"/>
<text x="806" y="60" font-size="12">zpotrf</text>
<polygon points="62.0,233.4 238.5,351.4 415.0,334.1 503.2,257.8 591.5,229.6 679.8,200.3 768.0,193.9 768.0,199.7 679.8,201.2 591.5,229.9 503.2,258.7 415.0,335.2 238.5,354.9 62.0,238.5" fill="#d62728" opacity="0.14" stroke="none"/>
<polyline points="62.0,236.6 238.5,352.1 415.0,335.0 503.2,258.2 591.5,229.7 679.8,200.8 768.0,197.6" fill="none" stroke="#d62728" stroke-width="2"/>
<circle cx="62.0" cy="236.6" r="3" fill="#d62728"/>
<circle cx="238.5" cy="352.1" r="3" fill="#d62728"/>
<circle cx="415.0" cy="335.0" r="3" fill="#d62728"/>
<circle cx="503.2" cy="258.2" r="3" fill="#d62728"/>
<circle cx="591.5" cy="229.7" r="3" fill="#d62728"/>
<circle cx="679.8" cy="200.8" r="3" fill="#d62728"/>
<circle cx="768.0" cy="197.6" r="3" fill="#d62728"/>
<line x1="782" y1="74" x2="802" y2="74" stroke="#d62728" stroke-width="3"/>
<text x="806" y="78" font-size="12">zgeqrf</text>
<polygon points="62.0,197.8 238.5,222.2 415.0,251.8 503.2,242.3 591.5,230.9 679.8,250.9 768.0,228.7 768.0,229.2 679.8,251.6 591.5,232.7 503.2,248.1 415.0,257.1 238.5,225.2 62.0,200.3" fill="#2ca02c" opacity="0.14" stroke="none"/>
<polyline points="62.0,198.8 238.5,223.1 415.0,254.1 503.2,244.9 591.5,231.1 679.8,251.3 768.0,229.0" fill="none" stroke="#2ca02c" stroke-width="2"/>
<circle cx="62.0" cy="198.8" r="3" fill="#2ca02c"/>
<circle cx="238.5" cy="223.1" r="3" fill="#2ca02c"/>
<circle cx="415.0" cy="254.1" r="3" fill="#2ca02c"/>
<circle cx="503.2" cy="244.9" r="3" fill="#2ca02c"/>
<circle cx="591.5" cy="231.1" r="3" fill="#2ca02c"/>
<circle cx="679.8" cy="251.3" r="3" fill="#2ca02c"/>
<circle cx="768.0" cy="229.0" r="3" fill="#2ca02c"/>
<line x1="782" y1="92" x2="802" y2="92" stroke="#2ca02c" stroke-width="3"/>
<text x="806" y="96" font-size="12">zgetrf</text>
<polygon points="62.0,84.5 238.5,231.2 415.0,400.0 503.2,400.0 591.5,400.0 679.8,400.0 768.0,400.0 768.0,400.0 679.8,400.0 591.5,400.0 503.2,400.0 415.0,400.0 238.5,232.2 62.0,86.0" fill="#9467bd" opacity="0.14" stroke="none"/>
<polyline points="62.0,85.6 238.5,232.0 415.0,400.0 503.2,400.0 591.5,400.0 679.8,400.0 768.0,400.0" fill="none" stroke="#9467bd" stroke-width="2"/>
<circle cx="62.0" cy="85.6" r="3" fill="#9467bd"/>
<circle cx="238.5" cy="232.0" r="3" fill="#9467bd"/>
<circle cx="415.0" cy="400.0" r="3" fill="#9467bd"/>
<circle cx="503.2" cy="400.0" r="3" fill="#9467bd"/>
<circle cx="591.5" cy="400.0" r="3" fill="#9467bd"/>
<circle cx="679.8" cy="400.0" r="3" fill="#9467bd"/>
<circle cx="768.0" cy="400.0" r="3" fill="#9467bd"/>
<line x1="782" y1="110" x2="802" y2="110" stroke="#9467bd" stroke-width="3"/>
<text x="806" y="114" font-size="12">zgesvd</text>
<text x="415.0" y="450" text-anchor="middle" font-size="11" fill="#666">matrix size n (log) · y = median ratio (log) · dashed = the 0.96× gate</text>
</svg>
