<svg xmlns="http://www.w3.org/2000/svg" width="900" height="460" font-family="sans-serif">
<rect width="900" height="460" fill="white"/>
<text x="450.0" y="28" text-anchor="middle" font-size="18" font-weight="bold">Complex BLAS-3: PureBLAS / OpenBLAS (AVX-512 (Zen4), 1 thread, ComplexF64)</text>
<line x1="62" y1="400.0" x2="768" y2="400.0" stroke="#eee"/>
<text x="54" y="404.0" text-anchor="end" font-size="11" fill="#666">0.5×</text>
<line x1="62" y1="303.7688780356323" x2="768" y2="303.7688780356323" stroke="#eee"/>
<text x="54" y="307.7688780356323" text-anchor="end" font-size="11" fill="#666">0.7×</text>
<line x1="62" y1="201.75977803835113" x2="768" y2="201.75977803835113" stroke="#eee"/>
<text x="54" y="205.75977803835113" text-anchor="end" font-size="11" fill="#666">1.0×</text>
<line x1="62" y1="85.79668205614797" x2="768" y2="85.79668205614797" stroke="#eee"/>
<text x="54" y="89.79668205614797" text-anchor="end" font-size="11" fill="#666">1.5×</text>
<line x1="62.0" y1="50" x2="62.0" y2="400" stroke="#f4f4f4"/>
<text x="62.0" y="418" text-anchor="middle" font-size="11" fill="#444">8</text>
<line x1="238.5" y1="50" x2="238.5" y2="400" stroke="#f4f4f4"/>
<text x="238.5" y="418" text-anchor="middle" font-size="11" fill="#444">32</text>
<line x1="415.0" y1="50" x2="415.0" y2="400" stroke="#f4f4f4"/>
<text x="415.0" y="418" text-anchor="middle" font-size="11" fill="#444">128</text>
<line x1="503.25" y1="50" x2="503.25" y2="400" stroke="#f4f4f4"/>
<text x="503.25" y="418" text-anchor="middle" font-size="11" fill="#444">256</text>
<line x1="591.5" y1="50" x2="591.5" y2="400" stroke="#f4f4f4"/>
<text x="591.5" y="418" text-anchor="middle" font-size="11" fill="#444">512</text>
<line x1="679.75" y1="50" x2="679.75" y2="400" stroke="#f4f4f4"/>
<text x="679.75" y="418" text-anchor="middle" font-size="11" fill="#444">1024</text>
<line x1="768.0" y1="50" x2="768.0" y2="400" stroke="#f4f4f4"/>
<text x="768.0" y="418" text-anchor="middle" font-size="11" fill="#444">2048</text>
<line x1="62" y1="201.75977803835113" x2="768" y2="201.75977803835113" stroke="#888"/>
<line x1="62" y1="213.4348760284709" x2="768" y2="213.4348760284709" stroke="#d33" stroke-width="1.5" stroke-dasharray="6 4"/>
<text x="66" y="208.4348760284709" font-size="11" fill="#d33">0.96× gate</text>
<polygon points="62.0,83.2 238.5,122.6 415.0,146.2 503.2,126.3 591.5,139.4 679.8,156.6 768.0,157.4 768.0,166.8 679.8,161.0 591.5,165.1 503.2,143.4 415.0,161.9 238.5,135.1 62.0,137.7" fill="#1f77b4" opacity="0.14" stroke="none"/>
<polyline points="62.0,123.6 238.5,130.0 415.0,154.3 503.2,137.6 591.5,155.2 679.8,158.7 768.0,164.0" fill="none" stroke="#1f77b4" stroke-width="2"/>
<circle cx="62.0" cy="123.6" r="3" fill="#1f77b4"/>
<circle cx="238.5" cy="130.0" r="3" fill="#1f77b4"/>
<circle cx="415.0" cy="154.3" r="3" fill="#1f77b4"/>
<circle cx="503.2" cy="137.6" r="3" fill="#1f77b4"/>
<circle cx="591.5" cy="155.2" r="3" fill="#1f77b4"/>
<circle cx="679.8" cy="158.7" r="3" fill="#1f77b4"/>
<circle cx="768.0" cy="164.0" r="3" fill="#1f77b4"/>
<line x1="782" y1="56" x2="802" y2="56" stroke="#1f77b4" stroke-width="3"/>
<text x="806" y="60" font-size="12">zgemm</text>
<polygon points="62.0,233.7 238.5,176.9 415.0,147.5 503.2,135.4 591.5,158.1 679.8,162.9 768.0,161.4 768.0,169.3 679.8,166.7 591.5,159.9 503.2,150.9 415.0,163.7 238.5,185.8 62.0,250.9" fill="#d62728" opacity="0.14" stroke="none"/>
<polyline points="62.0,243.8 238.5,178.1 415.0,154.9 503.2,146.1 591.5,158.7 679.8,165.4 768.0,167.1" fill="none" stroke="#d62728" stroke-width="2"/>
<circle cx="62.0" cy="243.8" r="3" fill="#d62728"/>
<circle cx="238.5" cy="178.1" r="3" fill="#d62728"/>
<circle cx="415.0" cy="154.9" r="3" fill="#d62728"/>
<circle cx="503.2" cy="146.1" r="3" fill="#d62728"/>
<circle cx="591.5" cy="158.7" r="3" fill="#d62728"/>
<circle cx="679.8" cy="165.4" r="3" fill="#d62728"/>
<circle cx="768.0" cy="167.1" r="3" fill="#d62728"/>
<line x1="782" y1="74" x2="802" y2="74" stroke="#d62728" stroke-width="3"/>
<text x="806" y="78" font-size="12">zhemm</text>
<polygon points="62.0,57.1 238.5,262.7 415.0,154.9 503.2,133.9 591.5,138.8 679.8,152.8 768.0,159.4 768.0,167.8 679.8,158.6 591.5,150.0 503.2,150.0 415.0,173.9 238.5,281.4 62.0,123.4" fill="#2ca02c" opacity="0.14" stroke="none"/>
<polyline points="62.0,102.3 238.5,271.3 415.0,169.9 503.2,147.1 591.5,147.2 679.8,156.4 768.0,163.8" fill="none" stroke="#2ca02c" stroke-width="2"/>
<circle cx="62.0" cy="102.3" r="3" fill="#2ca02c"/>
<circle cx="238.5" cy="271.3" r="3" fill="#2ca02c"/>
<circle cx="415.0" cy="169.9" r="3" fill="#2ca02c"/>
<circle cx="503.2" cy="147.1" r="3" fill="#2ca02c"/>
<circle cx="591.5" cy="147.2" r="3" fill="#2ca02c"/>
<circle cx="679.8" cy="156.4" r="3" fill="#2ca02c"/>
<circle cx="768.0" cy="163.8" r="3" fill="#2ca02c"/>
<line x1="782" y1="92" x2="802" y2="92" stroke="#2ca02c" stroke-width="3"/>
<text x="806" y="96" font-size="12">zherk</text>
<polygon points="62.0,176.7 238.5,256.1 415.0,180.0 503.2,148.3 591.5,149.5 679.8,160.3 768.0,161.8 768.0,170.0 679.8,163.3 591.5,153.9 503.2,159.2 415.0,199.6 238.5,277.1 62.0,205.3" fill="#9467bd" opacity="0.14" stroke="none"/>
<polyline points="62.0,186.5 238.5,272.3 415.0,190.3 503.2,154.6 591.5,152.6 679.8,161.1 768.0,167.5" fill="none" stroke="#9467bd" stroke-width="2"/>
<circle cx="62.0" cy="186.5" r="3" fill="#9467bd"/>
<circle cx="238.5" cy="272.3" r="3" fill="#9467bd"/>
<circle cx="415.0" cy="190.3" r="3" fill="#9467bd"/>
<circle cx="503.2" cy="154.6" r="3" fill="#9467bd"/>
<circle cx="591.5" cy="152.6" r="3" fill="#9467bd"/>
<circle cx="679.8" cy="161.1" r="3" fill="#9467bd"/>
<circle cx="768.0" cy="167.5" r="3" fill="#9467bd"/>
<line x1="782" y1="110" x2="802" y2="110" stroke="#9467bd" stroke-width="3"/>
<text x="806" y="114" font-size="12">zher2k</text>
<polygon points="62.0,180.7 238.5,253.3 415.0,174.0 503.2,135.6 591.5,154.8 679.8,162.1 768.0,162.6 768.0,167.9 679.8,165.3 591.5,168.6 503.2,163.6 415.0,178.0 238.5,262.2 62.0,204.5" fill="#ff7f0e" opacity="0.14" stroke="none"/>
<polyline points="62.0,183.9 238.5,258.3 415.0,175.7 503.2,148.4 591.5,162.0 679.8,164.1 768.0,165.2" fill="none" stroke="#ff7f0e" stroke-width="2"/>
<circle cx="62.0" cy="183.9" r="3" fill="#ff7f0e"/>
<circle cx="238.5" cy="258.3" r="3" fill="#ff7f0e"/>
<circle cx="415.0" cy="175.7" r="3" fill="#ff7f0e"/>
<circle cx="503.2" cy="148.4" r="3" fill="#ff7f0e"/>
<circle cx="591.5" cy="162.0" r="3" fill="#ff7f0e"/>
<circle cx="679.8" cy="164.1" r="3" fill="#ff7f0e"/>
<circle cx="768.0" cy="165.2" r="3" fill="#ff7f0e"/>
<line x1="782" y1="128" x2="802" y2="128" stroke="#ff7f0e" stroke-width="3"/>
<text x="806" y="132" font-size="12">zsyr2k</text>
<polygon points="62.0,147.8 238.5,185.6 415.0,129.4 503.2,149.8 591.5,166.3 679.8,169.5 768.0,167.9 768.0,176.3 679.8,176.0 591.5,177.1 503.2,165.3 415.0,157.3 238.5,195.3 62.0,165.2" fill="#17becf" opacity="0.14" stroke="none"/>
<polyline points="62.0,158.5 238.5,190.6 415.0,132.2 503.2,158.2 591.5,172.1 679.8,174.4 768.0,172.1" fill="none" stroke="#17becf" stroke-width="2"/>
<circle cx="62.0" cy="158.5" r="3" fill="#17becf"/>
<circle cx="238.5" cy="190.6" r="3" fill="#17becf"/>
<circle cx="415.0" cy="132.2" r="3" fill="#17becf"/>
<circle cx="503.2" cy="158.2" r="3" fill="#17becf"/>
<circle cx="591.5" cy="172.1" r="3" fill="#17becf"/>
<circle cx="679.8" cy="174.4" r="3" fill="#17becf"/>
<circle cx="768.0" cy="172.1" r="3" fill="#17becf"/>
<line x1="782" y1="146" x2="802" y2="146" stroke="#17becf" stroke-width="3"/>
<text x="806" y="150" font-size="12">ztrmm</text>
<polygon points="62.0,183.7 238.5,207.0 415.0,195.3 503.2,146.4 591.5,154.5 679.8,158.0 768.0,164.8 768.0,168.1 679.8,162.0 591.5,157.2 503.2,159.9 415.0,208.3 238.5,217.0 62.0,189.9" fill="#8c564b" opacity="0.14" stroke="none"/>
<polyline points="62.0,184.9 238.5,212.3 415.0,203.7 503.2,150.1 591.5,155.1 679.8,160.2 768.0,165.7" fill="none" stroke="#8c564b" stroke-width="2"/>
<circle cx="62.0" cy="184.9" r="3" fill="#8c564b"/>
<circle cx="238.5" cy="212.3" r="3" fill="#8c564b"/>
<circle cx="415.0" cy="203.7" r="3" fill="#8c564b"/>
<circle cx="503.2" cy="150.1" r="3" fill="#8c564b"/>
<circle cx="591.5" cy="155.1" r="3" fill="#8c564b"/>
<circle cx="679.8" cy="160.2" r="3" fill="#8c564b"/>
<circle cx="768.0" cy="165.7" r="3" fill="#8c564b"/>
<line x1="782" y1="164" x2="802" y2="164" stroke="#8c564b" stroke-width="3"/>
<text x="806" y="168" font-size="12">ztrsm</text>
<polygon points="62.0,120.5 238.5,134.8 415.0,113.1 503.2,146.1 591.5,163.8 679.8,169.5 768.0,169.7 768.0,175.6 679.8,179.6 591.5,180.9 503.2,155.5 415.0,124.3 238.5,144.0 62.0,161.5" fill="#e377c2" opacity="0.14" stroke="none"/>
<polyline points="62.0,142.3 238.5,140.5 415.0,120.2 503.2,149.8 591.5,178.0 679.8,174.1 768.0,170.8" fill="none" stroke="#e377c2" stroke-width="2"/>
<circle cx="62.0" cy="142.3" r="3" fill="#e377c2"/>
<circle cx="238.5" cy="140.5" r="3" fill="#e377c2"/>
<circle cx="415.0" cy="120.2" r="3" fill="#e377c2"/>
<circle cx="503.2" cy="149.8" r="3" fill="#e377c2"/>
<circle cx="591.5" cy="178.0" r="3" fill="#e377c2"/>
<circle cx="679.8" cy="174.1" r="3" fill="#e377c2"/>
<circle cx="768.0" cy="170.8" r="3" fill="#e377c2"/>
<line x1="782" y1="182" x2="802" y2="182" stroke="#e377c2" stroke-width="3"/>
<text x="806" y="186" font-size="12">ztrmmR</text>
<polygon points="62.0,343.0 238.5,248.3 415.0,174.7 503.2,141.1 591.5,149.1 679.8,158.5 768.0,161.6 768.0,169.3 679.8,166.9 591.5,153.7 503.2,159.9 415.0,200.4 238.5,288.5 62.0,364.0" fill="#1f77b4" opacity="0.14" stroke="none"/>
<polyline points="62.0,357.7 238.5,275.0 415.0,182.6 503.2,153.8 591.5,151.2 679.8,162.5 768.0,164.3" fill="none" stroke="#1f77b4" stroke-width="2"/>
<circle cx="62.0" cy="357.7" r="3" fill="#1f77b4"/>
<circle cx="238.5" cy="275.0" r="3" fill="#1f77b4"/>
<circle cx="415.0" cy="182.6" r="3" fill="#1f77b4"/>
<circle cx="503.2" cy="153.8" r="3" fill="#1f77b4"/>
<circle cx="591.5" cy="151.2" r="3" fill="#1f77b4"/>
<circle cx="679.8" cy="162.5" r="3" fill="#1f77b4"/>
<circle cx="768.0" cy="164.3" r="3" fill="#1f77b4"/>
<line x1="782" y1="200" x2="802" y2="200" stroke="#1f77b4" stroke-width="3"/>
<text x="806" y="204" font-size="12">ztrsmR</text>
<text x="415.0" y="450" text-anchor="middle" font-size="11" fill="#666">matrix size n (log) · y = median ratio (log) · dashed = the 0.96× gate</text>
</svg>
