<svg xmlns="http://www.w3.org/2000/svg" width="900" height="460" font-family="sans-serif">
<rect width="900" height="460" fill="white"/>
<text x="450.0" y="28" text-anchor="middle" font-size="18" font-weight="bold">BLAS-3: PureBLAS / OpenBLAS (AVX-512, 1 thread, Float64)</text>
<line x1="62" y1="400.0" x2="768" y2="400.0" stroke="#eee"/>
<text x="54" y="404.0" text-anchor="end" font-size="11" fill="#666">0.5×</text>
<line x1="62" y1="323.9570586810201" x2="768" y2="323.9570586810201" stroke="#eee"/>
<text x="54" y="327.9570586810201" text-anchor="end" font-size="11" fill="#666">0.7×</text>
<line x1="62" y1="243.3482925485055" x2="768" y2="243.3482925485055" stroke="#eee"/>
<text x="54" y="247.3482925485055" text-anchor="end" font-size="11" fill="#666">1.0×</text>
<line x1="62" y1="151.71291801544032" x2="768" y2="151.71291801544032" stroke="#eee"/>
<text x="54" y="155.71291801544032" text-anchor="end" font-size="11" fill="#666">1.5×</text>
<line x1="62" y1="86.69658509701097" x2="768" y2="86.69658509701097" stroke="#eee"/>
<text x="54" y="90.69658509701097" text-anchor="end" font-size="11" fill="#666">2.0×</text>
<line x1="62.0" y1="50" x2="62.0" y2="400" stroke="#f4f4f4"/>
<text x="62.0" y="418" text-anchor="middle" font-size="11" fill="#444">8</text>
<line x1="238.5" y1="50" x2="238.5" y2="400" stroke="#f4f4f4"/>
<text x="238.5" y="418" text-anchor="middle" font-size="11" fill="#444">32</text>
<line x1="415.0" y1="50" x2="415.0" y2="400" stroke="#f4f4f4"/>
<text x="415.0" y="418" text-anchor="middle" font-size="11" fill="#444">128</text>
<line x1="503.25" y1="50" x2="503.25" y2="400" stroke="#f4f4f4"/>
<text x="503.25" y="418" text-anchor="middle" font-size="11" fill="#444">256</text>
<line x1="591.5" y1="50" x2="591.5" y2="400" stroke="#f4f4f4"/>
<text x="591.5" y="418" text-anchor="middle" font-size="11" fill="#444">512</text>
<line x1="679.75" y1="50" x2="679.75" y2="400" stroke="#f4f4f4"/>
<text x="679.75" y="418" text-anchor="middle" font-size="11" fill="#444">1024</text>
<line x1="768.0" y1="50" x2="768.0" y2="400" stroke="#f4f4f4"/>
<text x="768.0" y="418" text-anchor="middle" font-size="11" fill="#444">2048</text>
<line x1="62" y1="243.3482925485055" x2="768" y2="243.3482925485055" stroke="#888"/>
<line x1="62" y1="252.5740894968644" x2="768" y2="252.5740894968644" stroke="#d33" stroke-width="1.5" stroke-dasharray="6 4"/>
<text x="66" y="247.5740894968644" font-size="11" fill="#d33">0.96× gate</text>
<polyline points="62.0,219.6 238.5,286.1 415.0,200.5 503.2,238.2 591.5,231.0 679.8,233.2 768.0,246.3" fill="none" stroke="#1f77b4" stroke-width="2"/>
<circle cx="62.0" cy="219.6" r="3" fill="#1f77b4"/>
<circle cx="238.5" cy="286.1" r="3" fill="#1f77b4"/>
<circle cx="415.0" cy="200.5" r="3" fill="#1f77b4"/>
<circle cx="503.2" cy="238.2" r="3" fill="#1f77b4"/>
<circle cx="591.5" cy="231.0" r="3" fill="#1f77b4"/>
<circle cx="679.8" cy="233.2" r="3" fill="#1f77b4"/>
<circle cx="768.0" cy="246.3" r="3" fill="#1f77b4"/>
<line x1="782" y1="56" x2="802" y2="56" stroke="#1f77b4" stroke-width="3"/>
<text x="806" y="60" font-size="12">gemm</text>
<polyline points="62.0,125.1 238.5,195.8 415.0,205.9 503.2,217.5 591.5,220.6 679.8,220.1 768.0,220.2" fill="none" stroke="#d62728" stroke-width="2"/>
<circle cx="62.0" cy="125.1" r="3" fill="#d62728"/>
<circle cx="238.5" cy="195.8" r="3" fill="#d62728"/>
<circle cx="415.0" cy="205.9" r="3" fill="#d62728"/>
<circle cx="503.2" cy="217.5" r="3" fill="#d62728"/>
<circle cx="591.5" cy="220.6" r="3" fill="#d62728"/>
<circle cx="679.8" cy="220.1" r="3" fill="#d62728"/>
<circle cx="768.0" cy="220.2" r="3" fill="#d62728"/>
<line x1="782" y1="74" x2="802" y2="74" stroke="#d62728" stroke-width="3"/>
<text x="806" y="78" font-size="12">zgemm</text>
<polyline points="62.0,211.9 238.5,173.9 415.0,209.8 503.2,266.1 591.5,228.8 679.8,234.0 768.0,244.4" fill="none" stroke="#2ca02c" stroke-width="2"/>
<circle cx="62.0" cy="211.9" r="3" fill="#2ca02c"/>
<circle cx="238.5" cy="173.9" r="3" fill="#2ca02c"/>
<circle cx="415.0" cy="209.8" r="3" fill="#2ca02c"/>
<circle cx="503.2" cy="266.1" r="3" fill="#2ca02c"/>
<circle cx="591.5" cy="228.8" r="3" fill="#2ca02c"/>
<circle cx="679.8" cy="234.0" r="3" fill="#2ca02c"/>
<circle cx="768.0" cy="244.4" r="3" fill="#2ca02c"/>
<line x1="782" y1="92" x2="802" y2="92" stroke="#2ca02c" stroke-width="3"/>
<text x="806" y="96" font-size="12">symm</text>
<polyline points="62.0,161.5 238.5,194.4 415.0,208.7 503.2,240.7 591.5,213.0 679.8,233.4 768.0,248.6" fill="none" stroke="#9467bd" stroke-width="2"/>
<circle cx="62.0" cy="161.5" r="3" fill="#9467bd"/>
<circle cx="238.5" cy="194.4" r="3" fill="#9467bd"/>
<circle cx="415.0" cy="208.7" r="3" fill="#9467bd"/>
<circle cx="503.2" cy="240.7" r="3" fill="#9467bd"/>
<circle cx="591.5" cy="213.0" r="3" fill="#9467bd"/>
<circle cx="679.8" cy="233.4" r="3" fill="#9467bd"/>
<circle cx="768.0" cy="248.6" r="3" fill="#9467bd"/>
<line x1="782" y1="110" x2="802" y2="110" stroke="#9467bd" stroke-width="3"/>
<text x="806" y="114" font-size="12">syrk</text>
<polyline points="62.0,143.3 238.5,167.3 415.0,190.9 503.2,225.9 591.5,225.9 679.8,238.5 768.0,249.8" fill="none" stroke="#ff7f0e" stroke-width="2"/>
<circle cx="62.0" cy="143.3" r="3" fill="#ff7f0e"/>
<circle cx="238.5" cy="167.3" r="3" fill="#ff7f0e"/>
<circle cx="415.0" cy="190.9" r="3" fill="#ff7f0e"/>
<circle cx="503.2" cy="225.9" r="3" fill="#ff7f0e"/>
<circle cx="591.5" cy="225.9" r="3" fill="#ff7f0e"/>
<circle cx="679.8" cy="238.5" r="3" fill="#ff7f0e"/>
<circle cx="768.0" cy="249.8" r="3" fill="#ff7f0e"/>
<line x1="782" y1="128" x2="802" y2="128" stroke="#ff7f0e" stroke-width="3"/>
<text x="806" y="132" font-size="12">syr2k</text>
<polyline points="62.0,203.3 238.5,207.7 415.0,192.9 503.2,219.9 591.5,233.4 679.8,240.7 768.0,249.0" fill="none" stroke="#17becf" stroke-width="2"/>
<circle cx="62.0" cy="203.3" r="3" fill="#17becf"/>
<circle cx="238.5" cy="207.7" r="3" fill="#17becf"/>
<circle cx="415.0" cy="192.9" r="3" fill="#17becf"/>
<circle cx="503.2" cy="219.9" r="3" fill="#17becf"/>
<circle cx="591.5" cy="233.4" r="3" fill="#17becf"/>
<circle cx="679.8" cy="240.7" r="3" fill="#17becf"/>
<circle cx="768.0" cy="249.0" r="3" fill="#17becf"/>
<line x1="782" y1="146" x2="802" y2="146" stroke="#17becf" stroke-width="3"/>
<text x="806" y="150" font-size="12">trmm</text>
<polyline points="62.0,160.9 238.5,96.4 415.0,81.6 503.2,85.6 591.5,145.9 679.8,196.1 768.0,237.8" fill="none" stroke="#8c564b" stroke-width="2"/>
<circle cx="62.0" cy="160.9" r="3" fill="#8c564b"/>
<circle cx="238.5" cy="96.4" r="3" fill="#8c564b"/>
<circle cx="415.0" cy="81.6" r="3" fill="#8c564b"/>
<circle cx="503.2" cy="85.6" r="3" fill="#8c564b"/>
<circle cx="591.5" cy="145.9" r="3" fill="#8c564b"/>
<circle cx="679.8" cy="196.1" r="3" fill="#8c564b"/>
<circle cx="768.0" cy="237.8" r="3" fill="#8c564b"/>
<line x1="782" y1="164" x2="802" y2="164" stroke="#8c564b" stroke-width="3"/>
<text x="806" y="168" font-size="12">trsm</text>
<text x="415.0" y="450" text-anchor="middle" font-size="11" fill="#666">matrix size n (log) · y = median ratio (log) · dashed = the 0.96× gate</text>
</svg>
