<svg xmlns="http://www.w3.org/2000/svg" width="900" height="440" font-family="sans-serif">
<rect width="900" height="440" fill="white"/>
<text x="450.0" y="28" text-anchor="middle" font-size="18" font-weight="bold">BLAS-2: PureBLAS / OpenBLAS (AVX2, 1 thread, Float64)</text>
<line x1="60" y1="358.0" x2="880" y2="358.0" stroke="#eee"/>
<text x="52" y="362.0" text-anchor="end" font-size="11" fill="#666">0×</text>
<line x1="60" y1="293.66768887694514" x2="880" y2="293.66768887694514" stroke="#eee"/>
<text x="52" y="297.66768887694514" text-anchor="end" font-size="11" fill="#666">0.5×</text>
<line x1="60" y1="229.33537775389027" x2="880" y2="229.33537775389027" stroke="#eee"/>
<text x="52" y="233.33537775389027" text-anchor="end" font-size="11" fill="#666">1×</text>
<line x1="60" y1="165.0030666308354" x2="880" y2="165.0030666308354" stroke="#eee"/>
<text x="52" y="169.0030666308354" text-anchor="end" font-size="11" fill="#666">1.5×</text>
<line x1="60" y1="229.33537775389027" x2="880" y2="229.33537775389027" stroke="#888" stroke-width="1"/>
<line x1="60" y1="234.48196264373465" x2="880" y2="234.48196264373465" stroke="#d33" stroke-width="1.5" stroke-dasharray="6 4"/>
<text x="880" y="229.48196264373465" text-anchor="end" font-size="11" fill="#d33">0.96× gate</text>
<polygon points="107.3,251.6 108.1,249.9 109.3,248.1 110.9,246.3 113.0,244.6 115.5,242.8 118.5,241.0 122.0,239.3 125.7,237.5 129.6,235.7 133.5,234.0 137.0,232.2 140.0,230.4 142.2,228.7 143.5,226.9 143.8,225.1 143.1,223.4 141.3,221.6 138.8,219.8 135.6,218.1 131.9,216.3 128.1,214.5 124.3,212.8 120.8,211.0 117.6,209.2 114.7,207.5 112.4,205.7 110.5,204.0 109.1,202.2 108.0,200.4 107.2,198.7 106.6,196.9 106.2,195.1 106.0,193.4 105.9,191.6 105.9,189.8 106.0,188.1 106.1,186.3 106.3,184.5 106.6,182.8 107.0,181.0 107.5,179.2 108.1,177.5 108.7,175.7 109.4,173.9 110.0,172.2 110.6,170.4 111.1,168.6 111.4,166.9 111.5,165.1 111.5,163.3 111.3,161.6 111.0,159.8 110.6,158.0 110.1,156.3 109.5,154.5 109.0,152.7 108.5,151.0 108.1,149.2 107.7,147.4 107.4,145.7 107.2,143.9 107.0,142.1 106.8,140.4 106.6,138.6 106.4,136.8 106.3,135.1 106.2,133.3 106.0,131.5 105.9,129.8 105.8,128.0 105.8,126.2 105.3,126.2 105.3,128.0 105.2,129.8 105.1,131.5 104.9,133.3 104.8,135.1 104.7,136.8 104.5,138.6 104.3,140.4 104.1,142.1 103.9,143.9 103.7,145.7 103.4,147.4 103.0,149.2 102.6,151.0 102.1,152.7 101.6,154.5 101.1,156.3 100.6,158.0 100.1,159.8 99.8,161.6 99.6,163.3 99.6,165.1 99.7,166.9 100.0,168.6 100.5,170.4 101.1,172.2 101.7,173.9 102.4,175.7 103.0,177.5 103.6,179.2 104.1,181.0 104.5,182.8 104.8,184.5 105.0,186.3 105.2,188.1 105.2,189.8 105.2,191.6 105.1,193.4 104.9,195.1 104.5,196.9 104.0,198.7 103.2,200.4 102.1,202.2 100.6,204.0 98.7,205.7 96.4,207.5 93.6,209.2 90.3,211.0 86.8,212.8 83.0,214.5 79.2,216.3 75.6,218.1 72.3,219.8 69.8,221.6 68.0,223.4 67.3,225.1 67.6,226.9 68.9,228.7 71.1,230.4 74.1,232.2 77.6,234.0 81.5,235.7 85.4,237.5 89.1,239.3 92.6,241.0 95.6,242.8 98.1,244.6 100.2,246.3 101.8,248.1 103.0,249.9 103.8,251.6" fill="#2a8" opacity="0.5" stroke="#2a8" stroke-width="1"/>
<line x1="67.3" y1="224.84694437297605" x2="143.8" y2="224.84694437297605" stroke="#114" stroke-width="2"/>
<circle cx="105.55555555555556" cy="231.0871007579959" r="2.4" fill="#114"/>
<text x="105.55555555555556" y="132.57998899765357" text-anchor="middle" font-size="11">1.03</text>
<text x="105.55555555555556" y="376" text-anchor="middle" font-size="12">gemvN</text>
<polygon points="196.7,239.7 196.7,239.0 196.8,238.3 196.9,237.5 197.0,236.8 197.2,236.0 197.5,235.3 197.8,234.6 198.2,233.8 198.9,233.1 200.0,232.4 201.8,231.6 204.9,230.9 209.4,230.1 215.4,229.4 222.1,228.7 228.5,227.9 233.0,227.2 234.9,226.4 234.3,225.7 231.9,225.0 228.6,224.2 225.4,223.5 222.8,222.8 221.0,222.0 220.2,221.3 220.1,220.5 220.2,219.8 219.8,219.1 218.6,218.3 216.5,217.6 213.6,216.9 210.6,216.1 207.8,215.4 205.3,214.6 203.4,213.9 201.8,213.2 200.5,212.4 199.5,211.7 198.6,211.0 198.0,210.2 197.5,209.5 197.1,208.7 196.9,208.0 196.8,207.3 196.7,206.5 196.7,205.8 196.7,205.1 196.7,204.3 196.7,203.6 196.7,202.8 196.7,202.1 196.7,201.4 196.7,200.6 196.7,199.9 196.7,199.2 196.7,198.4 196.7,197.7 196.7,196.9 196.8,196.2 196.9,195.5 197.0,194.7 197.2,194.0 197.2,193.3 197.3,192.5 197.2,191.8 197.1,191.0 197.0,190.3 196.9,189.6 196.8,188.8 196.7,188.1 196.7,187.3 196.6,187.3 196.6,188.1 196.6,188.8 196.5,189.6 196.4,190.3 196.2,191.0 196.1,191.8 196.1,192.5 196.1,193.3 196.2,194.0 196.3,194.7 196.4,195.5 196.5,196.2 196.6,196.9 196.6,197.7 196.7,198.4 196.7,199.2 196.7,199.9 196.7,200.6 196.7,201.4 196.7,202.1 196.7,202.8 196.7,203.6 196.7,204.3 196.7,205.1 196.7,205.8 196.6,206.5 196.6,207.3 196.4,208.0 196.2,208.7 195.9,209.5 195.4,210.2 194.7,211.0 193.9,211.7 192.9,212.4 191.6,213.2 190.0,213.9 188.0,214.6 185.6,215.4 182.7,216.1 179.7,216.9 176.9,217.6 174.7,218.3 173.5,219.1 173.2,219.8 173.3,220.5 173.1,221.3 172.3,222.0 170.6,222.8 167.9,223.5 164.7,224.2 161.5,225.0 159.0,225.7 158.4,226.4 160.3,227.2 164.9,227.9 171.2,228.7 178.0,229.4 184.0,230.1 188.5,230.9 191.5,231.6 193.4,232.4 194.5,233.1 195.1,233.8 195.6,234.6 195.9,235.3 196.1,236.0 196.3,236.8 196.5,237.5 196.6,238.3 196.6,239.0 196.6,239.7" fill="#2a8" opacity="0.5" stroke="#2a8" stroke-width="1"/>
<line x1="165.8" y1="224.00738157586278" x2="227.6" y2="224.00738157586278" stroke="#114" stroke-width="2"/>
<circle cx="196.66666666666669" cy="227.54065849850346" r="2.4" fill="#114"/>
<text x="196.66666666666669" y="186.62597368892114" text-anchor="middle" font-size="11">1.04</text>
<text x="196.66666666666669" y="376" text-anchor="middle" font-size="12">gemvT</text>
<polygon points="289.5,241.0 290.2,240.2 291.2,239.4 292.5,238.5 294.1,237.7 296.0,236.9 298.3,236.1 301.0,235.3 304.0,234.5 307.2,233.6 310.6,232.8 313.9,232.0 317.1,231.2 320.0,230.4 322.5,229.5 324.4,228.7 325.6,227.9 326.0,227.1 325.8,226.3 324.7,225.4 323.1,224.6 320.8,223.8 318.2,223.0 315.2,222.2 312.1,221.3 308.9,220.5 305.8,219.7 302.9,218.9 300.3,218.1 297.9,217.3 295.8,216.4 294.0,215.6 292.5,214.8 291.3,214.0 290.4,213.2 289.7,212.3 289.1,211.5 288.7,210.7 288.4,209.9 288.3,209.1 288.2,208.2 288.1,207.4 288.1,206.6 288.2,205.8 288.3,205.0 288.5,204.2 288.7,203.3 289.0,202.5 289.4,201.7 289.8,200.9 290.3,200.1 290.9,199.2 291.4,198.4 292.0,197.6 292.6,196.8 293.2,196.0 293.7,195.1 294.1,194.3 294.4,193.5 294.5,192.7 294.5,191.9 294.4,191.0 294.1,190.2 293.7,189.4 293.2,188.6 292.6,187.8 292.0,187.0 291.3,186.1 290.7,185.3 290.2,184.5 289.7,183.7 289.2,182.9 286.3,182.9 285.9,183.7 285.4,184.5 284.8,185.3 284.2,186.1 283.6,187.0 283.0,187.8 282.4,188.6 281.9,189.4 281.4,190.2 281.2,191.0 281.0,191.9 281.0,192.7 281.2,193.5 281.5,194.3 281.9,195.1 282.4,196.0 282.9,196.8 283.5,197.6 284.1,198.4 284.7,199.2 285.2,200.1 285.7,200.9 286.1,201.7 286.5,202.5 286.8,203.3 287.1,204.2 287.2,205.0 287.4,205.8 287.4,206.6 287.4,207.4 287.4,208.2 287.3,209.1 287.1,209.9 286.8,210.7 286.4,211.5 285.9,212.3 285.2,213.2 284.2,214.0 283.0,214.8 281.5,215.6 279.8,216.4 277.7,217.3 275.3,218.1 272.6,218.9 269.7,219.7 266.6,220.5 263.5,221.3 260.4,222.2 257.4,223.0 254.7,223.8 252.5,224.6 250.8,225.4 249.8,226.3 249.5,227.1 250.0,227.9 251.2,228.7 253.1,229.5 255.5,230.4 258.4,231.2 261.6,232.0 265.0,232.8 268.3,233.6 271.6,234.5 274.6,235.3 277.2,236.1 279.5,236.9 281.5,237.7 283.1,238.5 284.3,239.4 285.3,240.2 286.1,241.0" fill="#2a8" opacity="0.5" stroke="#2a8" stroke-width="1"/>
<line x1="249.7" y1="226.40423570312268" x2="325.9" y2="226.40423570312268" stroke="#114" stroke-width="2"/>
<circle cx="287.77777777777777" cy="230.1706804574465" r="2.4" fill="#114"/>
<text x="287.77777777777777" y="182.69343852225066" text-anchor="middle" font-size="11">1.02</text>
<text x="287.77777777777777" y="376" text-anchor="middle" font-size="12">ger</text>
<polygon points="384.2,240.9 385.7,239.8 387.6,238.7 389.9,237.6 392.4,236.5 395.1,235.4 398.1,234.3 401.2,233.3 404.3,232.2 407.3,231.1 410.0,230.0 412.5,228.9 414.5,227.8 416.0,226.7 416.9,225.6 417.2,224.5 416.8,223.4 416.0,222.3 414.6,221.2 412.7,220.1 410.6,219.0 408.2,217.9 405.7,216.8 403.1,215.7 400.6,214.6 398.1,213.5 395.9,212.4 393.8,211.3 392.0,210.3 390.4,209.2 389.1,208.1 388.1,207.0 387.3,205.9 386.8,204.8 386.6,203.7 386.5,202.6 386.7,201.5 386.9,200.4 387.2,199.3 387.6,198.2 387.9,197.1 388.2,196.0 388.4,194.9 388.5,193.8 388.5,192.7 388.4,191.6 388.3,190.5 388.2,189.4 388.0,188.3 387.9,187.3 387.8,186.2 387.8,185.1 387.9,184.0 388.0,182.9 388.2,181.8 388.4,180.7 388.5,179.6 388.6,178.5 388.6,177.4 388.4,176.3 388.2,175.2 387.8,174.1 387.2,173.0 386.6,171.9 385.9,170.8 385.1,169.7 384.3,168.6 383.5,167.5 382.7,166.4 382.0,165.3 381.4,164.3 380.9,163.2 376.9,163.2 376.4,164.3 375.7,165.3 375.0,166.4 374.3,167.5 373.5,168.6 372.7,169.7 371.9,170.8 371.2,171.9 370.5,173.0 370.0,174.1 369.6,175.2 369.3,176.3 369.2,177.4 369.2,178.5 369.3,179.6 369.4,180.7 369.6,181.8 369.7,182.9 369.9,184.0 369.9,185.1 369.9,186.2 369.9,187.3 369.8,188.3 369.6,189.4 369.5,190.5 369.3,191.6 369.3,192.7 369.3,193.8 369.4,194.9 369.6,196.0 369.9,197.1 370.2,198.2 370.5,199.3 370.9,200.4 371.1,201.5 371.2,202.6 371.2,203.7 370.9,204.8 370.4,205.9 369.7,207.0 368.7,208.1 367.4,209.2 365.8,210.3 364.0,211.3 361.9,212.4 359.6,213.5 357.2,214.6 354.7,215.7 352.1,216.8 349.6,217.9 347.2,219.0 345.0,220.1 343.2,221.2 341.8,222.3 340.9,223.4 340.6,224.5 340.9,225.6 341.8,226.7 343.3,227.8 345.3,228.9 347.7,230.0 350.5,231.1 353.5,232.2 356.6,233.3 359.7,234.3 362.7,235.4 365.4,236.5 367.9,237.6 370.1,238.7 372.0,239.8 373.6,240.9" fill="#2a8" opacity="0.5" stroke="#2a8" stroke-width="1"/>
<line x1="341.7" y1="222.39051437691464" x2="416.0" y2="222.39051437691464" stroke="#114" stroke-width="2"/>
<circle cx="378.8888888888889" cy="227.93816654967142" r="2.4" fill="#114"/>
<text x="378.8888888888889" y="164.88989068713562" text-anchor="middle" font-size="11">1.05</text>
<text x="378.8888888888889" y="376" text-anchor="middle" font-size="12">symv</text>
<polygon points="471.6,244.2 472.2,242.7 473.1,241.2 474.3,239.6 475.7,238.1 477.6,236.6 479.8,235.1 482.4,233.6 485.4,232.0 488.6,230.5 492.1,229.0 495.6,227.5 498.9,226.0 502.0,224.4 504.6,222.9 506.6,221.4 507.8,219.9 508.3,218.4 507.9,216.8 506.9,215.3 505.2,213.8 503.1,212.3 500.7,210.8 498.3,209.2 495.8,207.7 493.6,206.2 491.6,204.7 489.9,203.2 488.6,201.6 487.5,200.1 486.8,198.6 486.2,197.1 485.8,195.6 485.5,194.0 485.2,192.5 485.0,191.0 484.8,189.5 484.5,188.0 484.1,186.5 483.6,184.9 483.0,183.4 482.3,181.9 481.5,180.4 480.7,178.9 480.0,177.3 479.2,175.8 478.6,174.3 478.1,172.8 477.8,171.3 477.7,169.7 477.8,168.2 478.1,166.7 478.5,165.2 478.9,163.7 479.4,162.1 479.7,160.6 480.0,159.1 480.1,157.6 480.0,156.1 479.6,154.5 479.1,153.0 478.4,151.5 477.6,150.0 476.7,148.5 475.7,146.9 474.8,145.4 473.9,143.9 473.2,142.4 472.5,140.9 471.9,139.3 471.4,137.8 471.0,136.3 469.0,136.3 468.6,137.8 468.1,139.3 467.5,140.9 466.8,142.4 466.1,143.9 465.2,145.4 464.3,146.9 463.3,148.5 462.4,150.0 461.6,151.5 460.9,153.0 460.4,154.5 460.0,156.1 459.9,157.6 460.0,159.1 460.3,160.6 460.6,162.1 461.1,163.7 461.5,165.2 461.9,166.7 462.2,168.2 462.3,169.7 462.2,171.3 461.9,172.8 461.4,174.3 460.8,175.8 460.0,177.3 459.3,178.9 458.5,180.4 457.7,181.9 457.0,183.4 456.4,184.9 455.9,186.5 455.5,188.0 455.2,189.5 455.0,191.0 454.8,192.5 454.5,194.0 454.2,195.6 453.8,197.1 453.2,198.6 452.5,200.1 451.4,201.6 450.1,203.2 448.4,204.7 446.4,206.2 444.2,207.7 441.7,209.2 439.3,210.8 436.9,212.3 434.8,213.8 433.1,215.3 432.1,216.8 431.7,218.4 432.2,219.9 433.4,221.4 435.4,222.9 438.0,224.4 441.1,226.0 444.4,227.5 447.9,229.0 451.4,230.5 454.6,232.0 457.6,233.6 460.2,235.1 462.4,236.6 464.3,238.1 465.7,239.6 466.9,241.2 467.8,242.7 468.4,244.2" fill="#2a8" opacity="0.5" stroke="#2a8" stroke-width="1"/>
<line x1="435.2" y1="213.51312785020724" x2="504.8" y2="213.51312785020724" stroke="#114" stroke-width="2"/>
<circle cx="470.0" cy="221.0141897524471" r="2.4" fill="#114"/>
<text x="470.0" y="140.95476731973307" text-anchor="middle" font-size="11">1.12</text>
<text x="470.0" y="376" text-anchor="middle" font-size="12">trmv</text>
<polygon points="568.7,235.4 570.6,234.1 572.7,232.8 575.0,231.5 577.6,230.3 580.3,229.0 583.1,227.7 586.0,226.4 588.8,225.1 591.4,223.8 593.8,222.5 595.9,221.2 597.5,219.9 598.7,218.6 599.3,217.3 599.4,216.0 598.9,214.7 597.9,213.4 596.5,212.2 594.7,210.9 592.6,209.6 590.3,208.3 587.9,207.0 585.5,205.7 583.3,204.4 581.1,203.1 579.3,201.8 577.7,200.5 576.3,199.2 575.3,197.9 574.6,196.6 574.2,195.3 573.9,194.0 573.9,192.8 574.0,191.5 574.3,190.2 574.6,188.9 574.9,187.6 575.2,186.3 575.6,185.0 575.8,183.7 576.1,182.4 576.3,181.1 576.5,179.8 576.6,178.5 576.7,177.2 576.8,175.9 576.9,174.7 577.0,173.4 577.1,172.1 577.2,170.8 577.2,169.5 577.3,168.2 577.3,166.9 577.3,165.6 577.3,164.3 577.2,163.0 577.1,161.7 576.9,160.4 576.6,159.1 576.2,157.8 575.7,156.5 575.1,155.3 574.4,154.0 573.6,152.7 572.7,151.4 571.8,150.1 570.8,148.8 569.7,147.5 568.7,146.2 567.7,144.9 566.7,143.6 555.5,143.6 554.5,144.9 553.5,146.2 552.5,147.5 551.5,148.8 550.4,150.1 549.5,151.4 548.6,152.7 547.8,154.0 547.1,155.3 546.5,156.5 546.0,157.8 545.7,159.1 545.4,160.4 545.2,161.7 545.0,163.0 545.0,164.3 544.9,165.6 544.9,166.9 545.0,168.2 545.0,169.5 545.1,170.8 545.1,172.1 545.2,173.4 545.3,174.7 545.4,175.9 545.5,177.2 545.6,178.5 545.8,179.8 545.9,181.1 546.1,182.4 546.4,183.7 546.7,185.0 547.0,186.3 547.3,187.6 547.6,188.9 547.9,190.2 548.2,191.5 548.3,192.8 548.3,194.0 548.1,195.3 547.6,196.6 546.9,197.9 545.9,199.2 544.6,200.5 543.0,201.8 541.1,203.1 539.0,204.4 536.7,205.7 534.3,207.0 531.9,208.3 529.6,209.6 527.5,210.9 525.7,212.2 524.3,213.4 523.3,214.7 522.8,216.0 522.9,217.3 523.5,218.6 524.7,219.9 526.3,221.2 528.4,222.5 530.8,223.8 533.4,225.1 536.2,226.4 539.1,227.7 541.9,229.0 544.7,230.3 547.2,231.5 549.5,232.8 551.6,234.1 553.5,235.4" fill="#2a8" opacity="0.5" stroke="#2a8" stroke-width="1"/>
<line x1="528.6" y1="210.19106090780122" x2="593.6" y2="210.19106090780122" stroke="#114" stroke-width="2"/>
<circle cx="561.1111111111111" cy="219.43730145945062" r="2.4" fill="#114"/>
<text x="561.1111111111111" y="146.71022595860808" text-anchor="middle" font-size="11">1.15</text>
<text x="561.1111111111111" y="376" text-anchor="middle" font-size="12">trsv</text>
<polygon points="665.7,254.3 668.1,251.4 670.6,248.5 673.2,245.6 675.8,242.7 678.3,239.9 680.7,237.0 683.0,234.1 685.0,231.2 686.8,228.4 688.2,225.5 689.3,222.6 690.0,219.7 690.4,216.9 690.5,214.0 690.2,211.1 689.7,208.2 688.9,205.3 687.9,202.5 686.7,199.6 685.4,196.7 683.9,193.8 682.2,191.0 680.5,188.1 678.8,185.2 677.0,182.3 675.2,179.5 673.4,176.6 671.7,173.7 670.2,170.8 668.7,167.9 667.4,165.1 666.3,162.2 665.5,159.3 664.8,156.4 664.3,153.6 663.9,150.7 663.7,147.8 663.7,144.9 663.7,142.1 663.7,139.2 663.8,136.3 663.8,133.4 663.7,130.6 663.5,127.7 663.3,124.8 663.0,121.9 662.6,119.0 662.2,116.2 661.8,113.3 661.5,110.4 661.1,107.5 660.9,104.7 660.8,101.8 660.7,98.9 660.8,96.0 661.0,93.2 661.3,90.3 661.6,87.4 662.0,84.5 662.3,81.6 662.6,78.8 662.8,75.9 662.9,73.0 662.8,70.1 662.6,67.3 662.2,64.4 661.7,61.5 661.1,58.6 660.4,55.8 659.6,52.9 658.8,50.0 645.6,50.0 644.8,52.9 644.0,55.8 643.3,58.6 642.7,61.5 642.2,64.4 641.9,67.3 641.6,70.1 641.6,73.0 641.7,75.9 641.8,78.8 642.1,81.6 642.4,84.5 642.8,87.4 643.1,90.3 643.4,93.2 643.6,96.0 643.7,98.9 643.7,101.8 643.5,104.7 643.3,107.5 643.0,110.4 642.6,113.3 642.2,116.2 641.8,119.0 641.4,121.9 641.1,124.8 640.9,127.7 640.8,130.6 640.7,133.4 640.7,136.3 640.7,139.2 640.8,142.1 640.8,144.9 640.7,147.8 640.5,150.7 640.2,153.6 639.7,156.4 639.0,159.3 638.1,162.2 637.0,165.1 635.7,167.9 634.3,170.8 632.7,173.7 631.0,176.6 629.3,179.5 627.5,182.3 625.7,185.2 623.9,188.1 622.2,191.0 620.6,193.8 619.1,196.7 617.7,199.6 616.5,202.5 615.5,205.3 614.7,208.2 614.2,211.1 614.0,214.0 614.0,216.9 614.4,219.7 615.2,222.6 616.2,225.5 617.7,228.4 619.4,231.2 621.4,234.1 623.7,237.0 626.1,239.9 628.7,242.7 631.3,245.6 633.9,248.5 636.4,251.4 638.7,254.3" fill="#2a8" opacity="0.5" stroke="#2a8" stroke-width="1"/>
<line x1="618.5" y1="197.91004098538215" x2="685.9" y2="197.91004098538215" stroke="#114" stroke-width="2"/>
<circle cx="652.2222222222223" cy="230.69992493277778" r="2.4" fill="#114"/>
<text x="652.2222222222223" y="61.433962264150935" text-anchor="middle" font-size="11">1.24</text>
<text x="652.2222222222223" y="376" text-anchor="middle" font-size="12">spmv</text>
<polygon points="743.3,268.7 743.4,267.5 743.4,266.4 743.5,265.3 743.5,264.1 743.7,263.0 743.7,261.9 743.8,260.7 743.8,259.6 743.7,258.5 743.6,257.4 743.5,256.2 743.4,255.1 743.4,254.0 743.4,252.8 743.4,251.7 743.4,250.6 743.5,249.4 743.6,248.3 743.7,247.2 743.8,246.0 743.8,244.9 743.7,243.8 743.6,242.7 743.5,241.5 743.4,240.4 743.4,239.3 743.3,238.1 743.3,237.0 743.3,235.9 743.4,234.7 743.4,233.6 743.5,232.5 743.7,231.3 744.1,230.2 744.8,229.1 746.3,228.0 748.8,226.8 752.7,225.7 758.4,224.6 765.3,223.4 772.5,222.3 778.5,221.2 781.6,220.0 781.1,218.9 777.4,217.8 771.7,216.7 765.6,215.5 760.1,214.4 755.8,213.3 752.8,212.1 751.2,211.0 750.8,209.9 751.0,208.7 751.2,207.6 751.0,206.5 750.1,205.3 748.7,204.2 747.3,203.1 746.0,202.0 745.1,200.8 744.6,199.7 744.4,198.6 744.4,197.4 744.3,196.3 744.2,195.2 744.0,194.0 743.7,192.9 743.6,191.8 743.4,190.6 743.4,189.5 743.3,188.4 743.3,188.4 743.3,189.5 743.2,190.6 743.1,191.8 742.9,192.9 742.7,194.0 742.5,195.2 742.4,196.3 742.3,197.4 742.2,198.6 742.0,199.7 741.5,200.8 740.7,202.0 739.4,203.1 737.9,204.2 736.6,205.3 735.7,206.5 735.5,207.6 735.7,208.7 735.9,209.9 735.4,211.0 733.9,212.1 730.9,213.3 726.5,214.4 721.0,215.5 714.9,216.7 709.3,217.8 705.6,218.9 705.1,220.0 708.2,221.2 714.1,222.3 721.4,223.4 728.3,224.6 733.9,225.7 737.9,226.8 740.4,228.0 741.8,229.1 742.6,230.2 743.0,231.3 743.2,232.5 743.3,233.6 743.3,234.7 743.3,235.9 743.3,237.0 743.3,238.1 743.3,239.3 743.3,240.4 743.2,241.5 743.1,242.7 743.0,243.8 742.9,244.9 742.9,246.0 742.9,247.2 743.0,248.3 743.1,249.4 743.2,250.6 743.3,251.7 743.3,252.8 743.3,254.0 743.3,255.1 743.2,256.2 743.1,257.4 743.0,258.5 742.9,259.6 742.9,260.7 742.9,261.9 743.0,263.0 743.1,264.1 743.2,265.3 743.3,266.4 743.3,267.5 743.3,268.7" fill="#2a8" opacity="0.5" stroke="#2a8" stroke-width="1"/>
<line x1="705.2" y1="219.13742701599114" x2="781.5" y2="219.13742701599114" stroke="#114" stroke-width="2"/>
<circle cx="743.3333333333334" cy="221.4402159286465" r="2.4" fill="#114"/>
<text x="743.3333333333334" y="190.36407967952863" text-anchor="middle" font-size="11">1.08</text>
<text x="743.3333333333334" y="376" text-anchor="middle" font-size="12">gbmvN</text>
<polygon points="834.5,170.8 834.5,169.5 834.6,168.2 834.6,166.9 834.7,165.6 834.8,164.3 834.9,163.0 834.9,161.7 834.9,160.4 834.9,159.1 835.0,157.8 835.3,156.5 836.2,155.2 837.8,153.9 840.7,152.6 845.0,151.3 850.8,150.0 857.5,148.8 864.1,147.5 869.5,146.2 872.5,144.9 872.7,143.6 870.4,142.3 866.5,141.0 861.9,139.7 857.5,138.4 853.7,137.1 850.7,135.8 848.3,134.5 846.3,133.2 844.7,131.9 843.2,130.6 842.0,129.3 841.2,128.0 840.8,126.8 840.8,125.5 841.1,124.2 841.4,122.9 841.5,121.6 841.3,120.3 840.7,119.0 839.8,117.7 838.8,116.4 837.8,115.1 836.9,113.8 836.1,112.5 835.6,111.2 835.2,109.9 834.9,108.6 834.7,107.3 834.6,106.0 834.5,104.8 834.5,103.5 834.5,102.2 834.4,100.9 834.5,99.6 834.5,98.3 834.5,97.0 834.5,95.7 834.6,94.4 834.6,93.1 834.7,91.8 834.8,90.5 834.9,89.2 834.9,87.9 834.9,86.6 834.8,85.3 834.7,84.0 834.6,82.8 834.6,81.5 834.5,80.2 834.5,78.9 834.4,78.9 834.4,80.2 834.3,81.5 834.3,82.8 834.2,84.0 834.1,85.3 834.0,86.6 834.0,87.9 834.0,89.2 834.1,90.5 834.2,91.8 834.3,93.1 834.3,94.4 834.4,95.7 834.4,97.0 834.4,98.3 834.4,99.6 834.4,100.9 834.4,102.2 834.4,103.5 834.4,104.8 834.3,106.0 834.2,107.3 834.0,108.6 833.7,109.9 833.3,111.2 832.8,112.5 832.0,113.8 831.1,115.1 830.1,116.4 829.1,117.7 828.2,119.0 827.6,120.3 827.4,121.6 827.5,122.9 827.8,124.2 828.1,125.5 828.1,126.8 827.7,128.0 826.9,129.3 825.7,130.6 824.2,131.9 822.6,133.2 820.6,134.5 818.2,135.8 815.2,137.1 811.4,138.4 807.0,139.7 802.4,141.0 798.5,142.3 796.2,143.6 796.4,144.9 799.4,146.2 804.7,147.5 811.4,148.8 818.1,150.0 823.9,151.3 828.2,152.6 831.1,153.9 832.7,155.2 833.6,156.5 833.9,157.8 834.0,159.1 834.0,160.4 834.0,161.7 834.0,163.0 834.1,164.3 834.2,165.6 834.3,166.9 834.3,168.2 834.4,169.5 834.4,170.8" fill="#2a8" opacity="0.5" stroke="#2a8" stroke-width="1"/>
<line x1="797.3" y1="142.80882797091652" x2="871.6" y2="142.80882797091652" stroke="#114" stroke-width="2"/>
<circle cx="834.4444444444445" cy="145.43236314944932" r="2.4" fill="#114"/>
<text x="834.4444444444445" y="81.97087825290794" text-anchor="middle" font-size="11">1.67</text>
<text x="834.4444444444445" y="376" text-anchor="middle" font-size="12">sbmv</text>
<text x="450.0" y="428" text-anchor="middle" font-size="11" fill="#666">violin = ratio distribution over sizes · line = median · dark dot = worst size · green = every size ≥ gate</text>
</svg>
