<svg xmlns="http://www.w3.org/2000/svg" width="900" height="440" font-family="sans-serif">
<rect width="900" height="440" fill="white"/>
<text x="450.0" y="28" text-anchor="middle" font-size="18" font-weight="bold">Complex BLAS-1: PureBLAS / OpenBLAS (AVX2, 1 thread, ComplexF64)</text>
<line x1="60" y1="358.0" x2="880" y2="358.0" stroke="#eee"/>
<text x="52" y="362.0" text-anchor="end" font-size="11" fill="#666">0×</text>
<line x1="60" y1="339.71932478546876" x2="880" y2="339.71932478546876" stroke="#eee"/>
<text x="52" y="343.71932478546876" text-anchor="end" font-size="11" fill="#666">0.5×</text>
<line x1="60" y1="321.4386495709375" x2="880" y2="321.4386495709375" stroke="#eee"/>
<text x="52" y="325.4386495709375" text-anchor="end" font-size="11" fill="#666">1×</text>
<line x1="60" y1="303.15797435640627" x2="880" y2="303.15797435640627" stroke="#eee"/>
<text x="52" y="307.15797435640627" text-anchor="end" font-size="11" fill="#666">1.5×</text>
<line x1="60" y1="321.4386495709375" x2="880" y2="321.4386495709375" stroke="#888" stroke-width="1"/>
<line x1="60" y1="322.90110358810006" x2="880" y2="322.90110358810006" stroke="#d33" stroke-width="1.5" stroke-dasharray="6 4"/>
<text x="880" y="317.90110358810006" text-anchor="end" font-size="11" fill="#d33">0.96× gate</text>
<polygon points="142.2,329.3 142.3,329.0 142.4,328.8 142.5,328.6 142.6,328.4 142.7,328.1 142.8,327.9 142.8,327.7 142.8,327.5 142.8,327.3 142.7,327.0 142.5,326.8 142.4,326.6 142.3,326.4 142.2,326.1 142.2,325.9 142.2,325.7 142.2,325.5 142.4,325.2 142.7,325.0 143.3,324.8 144.1,324.6 145.4,324.4 147.2,324.1 149.8,323.9 153.3,323.7 157.8,323.5 163.3,323.2 169.9,323.0 177.3,322.8 185.1,322.6 192.9,322.4 200.1,322.1 205.8,321.9 209.6,321.7 210.9,321.5 209.6,321.2 205.9,321.0 200.3,320.8 193.5,320.6 186.4,320.3 179.4,320.1 173.3,319.9 168.3,319.7 164.3,319.5 161.3,319.2 159.1,319.0 157.5,318.8 156.2,318.6 155.3,318.3 154.6,318.1 154.1,317.9 153.8,317.7 153.7,317.4 153.8,317.2 154.1,317.0 154.6,316.8 155.2,316.6 155.9,316.3 156.4,316.1 156.6,315.9 156.5,315.7 155.9,315.4 154.7,315.2 153.2,315.0 151.4,314.8 149.6,314.6 147.8,314.3 146.2,314.1 144.9,313.9 143.9,313.7 143.2,313.4 140.8,313.4 140.1,313.7 139.1,313.9 137.8,314.1 136.2,314.3 134.4,314.6 132.6,314.8 130.8,315.0 129.3,315.2 128.1,315.4 127.5,315.7 127.4,315.9 127.6,316.1 128.1,316.3 128.8,316.6 129.4,316.8 129.9,317.0 130.2,317.2 130.3,317.4 130.2,317.7 129.9,317.9 129.4,318.1 128.7,318.3 127.8,318.6 126.5,318.8 124.9,319.0 122.7,319.2 119.7,319.5 115.7,319.7 110.7,319.9 104.6,320.1 97.6,320.3 90.5,320.6 83.7,320.8 78.1,321.0 74.4,321.2 73.1,321.5 74.4,321.7 78.2,321.9 83.9,322.1 91.1,322.4 98.9,322.6 106.7,322.8 114.1,323.0 120.7,323.2 126.2,323.5 130.7,323.7 134.2,323.9 136.8,324.1 138.6,324.4 139.9,324.6 140.7,324.8 141.3,325.0 141.6,325.2 141.8,325.5 141.8,325.7 141.8,325.9 141.8,326.1 141.7,326.4 141.6,326.6 141.5,326.8 141.3,327.0 141.2,327.3 141.2,327.5 141.2,327.7 141.2,327.9 141.3,328.1 141.4,328.4 141.5,328.6 141.6,328.8 141.7,329.0 141.8,329.3" fill="#2a8" opacity="0.5" stroke="#2a8" stroke-width="1"/>
<line x1="74.5" y1="321.2304283534404" x2="209.5" y2="321.2304283534404" stroke="#114" stroke-width="2"/>
<circle cx="142.0" cy="322.2907472601888" r="2.4" fill="#114"/>
<text x="142.0" y="309.0273763618641" text-anchor="middle" font-size="11">1.01</text>
<text x="142.0" y="376" text-anchor="middle" font-size="12">zaxpy</text>
<polygon points="306.3,334.4 306.6,333.9 307.1,333.5 308.0,333.0 309.2,332.5 311.0,332.1 313.1,331.6 315.5,331.1 317.7,330.7 319.5,330.2 320.4,329.7 320.2,329.3 318.9,328.8 316.9,328.3 314.4,327.9 312.0,327.4 310.1,326.9 308.7,326.5 308.0,326.0 308.2,325.5 309.5,325.1 312.1,324.6 316.4,324.1 322.7,323.7 331.1,323.2 341.2,322.7 351.9,322.3 362.0,321.8 369.9,321.3 374.4,320.9 374.9,320.4 371.5,319.9 365.1,319.5 356.7,319.0 347.8,318.5 339.4,318.1 332.2,317.6 326.6,317.1 322.3,316.7 319.2,316.2 316.8,315.7 314.8,315.3 313.1,314.8 311.5,314.3 310.0,313.9 308.8,313.4 307.9,312.9 307.2,312.5 306.7,312.0 306.4,311.5 306.2,311.1 306.1,310.6 306.1,310.1 306.0,309.7 306.0,309.2 306.0,308.7 306.0,308.3 306.1,307.8 306.2,307.3 306.3,306.9 306.4,306.4 306.5,305.9 306.6,305.5 306.7,305.0 306.8,304.5 306.7,304.1 306.6,303.6 306.5,303.1 306.4,302.7 306.3,302.2 306.2,301.7 306.1,301.3 305.9,301.3 305.8,301.7 305.7,302.2 305.6,302.7 305.5,303.1 305.4,303.6 305.3,304.1 305.2,304.5 305.3,305.0 305.4,305.5 305.5,305.9 305.6,306.4 305.7,306.9 305.8,307.3 305.9,307.8 306.0,308.3 306.0,308.7 306.0,309.2 306.0,309.7 305.9,310.1 305.9,310.6 305.8,311.1 305.6,311.5 305.3,312.0 304.8,312.5 304.1,312.9 303.2,313.4 302.0,313.9 300.5,314.3 298.9,314.8 297.2,315.3 295.2,315.7 292.8,316.2 289.7,316.7 285.4,317.1 279.8,317.6 272.6,318.1 264.2,318.5 255.3,319.0 246.9,319.5 240.5,319.9 237.1,320.4 237.6,320.9 242.1,321.3 250.0,321.8 260.1,322.3 270.8,322.7 280.9,323.2 289.3,323.7 295.6,324.1 299.9,324.6 302.5,325.1 303.8,325.5 304.0,326.0 303.3,326.5 301.9,326.9 300.0,327.4 297.6,327.9 295.1,328.3 293.1,328.8 291.8,329.3 291.6,329.7 292.5,330.2 294.3,330.7 296.5,331.1 298.9,331.6 301.0,332.1 302.8,332.5 304.0,333.0 304.9,333.5 305.4,333.9 305.7,334.4" fill="#d33" opacity="0.5" stroke="#d33" stroke-width="1"/>
<line x1="238.1" y1="320.94253691372603" x2="373.9" y2="320.94253691372603" stroke="#114" stroke-width="2"/>
<circle cx="306.0" cy="329.4997488851167" r="2.4" fill="#114"/>
<text x="306.0" y="298.5336739860793" text-anchor="middle" font-size="11">1.01</text>
<text x="306.0" y="376" text-anchor="middle" font-size="12">zdotc</text>
<polygon points="470.3,323.6 470.5,323.5 470.9,323.4 471.5,323.2 472.4,323.1 473.9,323.0 476.0,322.9 478.9,322.8 483.0,322.6 488.4,322.5 495.1,322.4 503.1,322.3 511.9,322.2 520.8,322.0 528.8,321.9 534.9,321.8 538.4,321.7 538.9,321.6 536.4,321.4 531.5,321.3 525.0,321.2 518.0,321.1 511.1,321.0 505.0,320.8 500.2,320.7 496.7,320.6 494.5,320.5 493.5,320.4 493.4,320.2 493.8,320.1 494.2,320.0 494.3,319.9 493.7,319.8 492.3,319.6 490.3,319.5 487.8,319.4 485.1,319.3 482.5,319.2 480.1,319.0 478.0,318.9 476.4,318.8 475.1,318.7 474.1,318.6 473.4,318.4 472.8,318.3 472.3,318.2 471.9,318.1 471.6,318.0 471.4,317.8 471.2,317.7 471.2,317.6 471.1,317.5 471.1,317.4 471.1,317.2 471.1,317.1 471.1,317.0 471.2,316.9 471.2,316.8 471.3,316.6 471.4,316.5 471.5,316.4 471.6,316.3 471.6,316.2 471.5,316.0 471.4,315.9 471.2,315.8 470.9,315.7 470.7,315.6 470.5,315.4 470.4,315.3 470.2,315.2 470.1,315.1 469.9,315.1 469.8,315.2 469.6,315.3 469.5,315.4 469.3,315.6 469.1,315.7 468.8,315.8 468.6,315.9 468.5,316.0 468.4,316.2 468.4,316.3 468.5,316.4 468.6,316.5 468.7,316.6 468.8,316.8 468.8,316.9 468.9,317.0 468.9,317.1 468.9,317.2 468.9,317.4 468.9,317.5 468.8,317.6 468.8,317.7 468.6,317.8 468.4,318.0 468.1,318.1 467.7,318.2 467.2,318.3 466.6,318.4 465.9,318.6 464.9,318.7 463.6,318.8 462.0,318.9 459.9,319.0 457.5,319.2 454.9,319.3 452.2,319.4 449.7,319.5 447.7,319.6 446.3,319.8 445.7,319.9 445.8,320.0 446.2,320.1 446.6,320.2 446.5,320.4 445.5,320.5 443.3,320.6 439.8,320.7 435.0,320.8 428.9,321.0 422.0,321.1 415.0,321.2 408.5,321.3 403.6,321.4 401.1,321.6 401.6,321.7 405.1,321.8 411.2,321.9 419.2,322.0 428.1,322.2 436.9,322.3 444.9,322.4 451.6,322.5 457.0,322.6 461.1,322.8 464.0,322.9 466.1,323.0 467.6,323.1 468.5,323.2 469.1,323.4 469.5,323.5 469.7,323.6" fill="#2a8" opacity="0.5" stroke="#2a8" stroke-width="1"/>
<line x1="403.2" y1="321.4608890386771" x2="536.8" y2="321.4608890386771" stroke="#114" stroke-width="2"/>
<circle cx="470.0" cy="321.7798831863767" r="2.4" fill="#114"/>
<text x="470.0" y="309.9671306510903" text-anchor="middle" font-size="11">1.00</text>
<text x="470.0" y="376" text-anchor="middle" font-size="12">zscal</text>
<polygon points="634.7,213.3 634.8,211.0 635.0,208.7 635.3,206.5 635.5,204.2 635.8,201.9 636.2,199.6 636.7,197.4 637.3,195.1 638.1,192.8 639.0,190.5 640.1,188.3 641.4,186.0 642.9,183.7 644.6,181.4 646.4,179.2 648.5,176.9 650.6,174.6 652.9,172.3 655.3,170.1 657.7,167.8 660.2,165.5 662.6,163.2 665.1,161.0 667.5,158.7 669.9,156.4 672.2,154.1 674.4,151.9 676.4,149.6 678.1,147.3 679.5,145.0 680.5,142.8 681.1,140.5 681.2,138.2 680.9,135.9 680.0,133.7 678.6,131.4 676.9,129.1 674.7,126.8 672.3,124.6 669.8,122.3 667.2,120.0 664.7,117.7 662.3,115.5 660.2,113.2 658.4,110.9 657.2,108.6 656.5,106.4 656.4,104.1 657.1,101.8 658.5,99.5 660.8,97.3 663.8,95.0 667.6,92.7 672.0,90.4 676.9,88.1 682.1,85.9 687.3,83.6 692.2,81.3 696.5,79.0 699.9,76.8 702.1,74.5 702.9,72.2 702.2,69.9 700.1,67.7 696.6,65.4 692.0,63.1 686.5,60.8 680.5,58.6 674.2,56.3 668.0,54.0 662.0,51.7 606.0,51.7 600.0,54.0 593.8,56.3 587.5,58.6 581.5,60.8 576.0,63.1 571.4,65.4 567.9,67.7 565.8,69.9 565.1,72.2 565.9,74.5 568.1,76.8 571.5,79.0 575.8,81.3 580.7,83.6 585.9,85.9 591.1,88.1 596.0,90.4 600.4,92.7 604.2,95.0 607.2,97.3 609.5,99.5 610.9,101.8 611.6,104.1 611.5,106.4 610.8,108.6 609.6,110.9 607.8,113.2 605.7,115.5 603.3,117.7 600.8,120.0 598.2,122.3 595.7,124.6 593.3,126.8 591.1,129.1 589.4,131.4 588.0,133.7 587.1,135.9 586.8,138.2 586.9,140.5 587.5,142.8 588.5,145.0 589.9,147.3 591.6,149.6 593.6,151.9 595.8,154.1 598.1,156.4 600.5,158.7 602.9,161.0 605.4,163.2 607.8,165.5 610.3,167.8 612.7,170.1 615.1,172.3 617.4,174.6 619.5,176.9 621.6,179.2 623.4,181.4 625.1,183.7 626.6,186.0 627.9,188.3 629.0,190.5 629.9,192.8 630.7,195.1 631.3,197.4 631.8,199.6 632.2,201.9 632.5,204.2 632.7,206.5 633.0,208.7 633.2,211.0 633.3,213.3" fill="#2a8" opacity="0.5" stroke="#2a8" stroke-width="1"/>
<line x1="610.3" y1="100.61923565222253" x2="657.7" y2="100.61923565222253" stroke="#114" stroke-width="2"/>
<circle cx="634.0" cy="160.13714138687862" r="2.4" fill="#114"/>
<text x="634.0" y="61.43396226415098" text-anchor="middle" font-size="11">7.04</text>
<text x="634.0" y="376" text-anchor="middle" font-size="12">dznrm2</text>
<polygon points="820.5,310.8 825.1,310.4 830.0,310.0 835.2,309.6 840.4,309.2 845.5,308.8 850.4,308.4 854.8,308.0 858.7,307.6 861.8,307.2 864.2,306.8 865.8,306.4 866.7,305.9 866.9,305.5 866.5,305.1 865.6,304.7 864.3,304.3 862.8,303.9 861.2,303.5 859.4,303.1 857.5,302.7 855.5,302.3 853.4,301.9 851.2,301.5 848.8,301.1 846.2,300.7 843.5,300.2 840.6,299.8 837.7,299.4 834.6,299.0 831.7,298.6 828.8,298.2 826.0,297.8 823.5,297.4 821.2,297.0 819.1,296.6 817.3,296.2 815.6,295.8 814.1,295.4 812.7,294.9 811.5,294.5 810.3,294.1 809.2,293.7 808.1,293.3 807.2,292.9 806.4,292.5 805.7,292.1 805.2,291.7 805.0,291.3 804.9,290.9 805.2,290.5 805.7,290.1 806.4,289.7 807.4,289.2 808.5,288.8 809.8,288.4 811.2,288.0 812.5,287.6 813.8,287.2 814.9,286.8 815.8,286.4 816.3,286.0 816.6,285.6 816.5,285.2 816.0,284.8 815.2,284.4 814.1,284.0 812.8,283.5 811.4,283.1 809.8,282.7 808.3,282.3 806.7,281.9 789.3,281.9 787.7,282.3 786.2,282.7 784.6,283.1 783.2,283.5 781.9,284.0 780.8,284.4 780.0,284.8 779.5,285.2 779.4,285.6 779.7,286.0 780.2,286.4 781.1,286.8 782.2,287.2 783.5,287.6 784.8,288.0 786.2,288.4 787.5,288.8 788.6,289.2 789.6,289.7 790.3,290.1 790.8,290.5 791.1,290.9 791.0,291.3 790.8,291.7 790.3,292.1 789.6,292.5 788.8,292.9 787.9,293.3 786.8,293.7 785.7,294.1 784.5,294.5 783.3,294.9 781.9,295.4 780.4,295.8 778.7,296.2 776.9,296.6 774.8,297.0 772.5,297.4 770.0,297.8 767.2,298.2 764.3,298.6 761.4,299.0 758.3,299.4 755.4,299.8 752.5,300.2 749.8,300.7 747.2,301.1 744.8,301.5 742.6,301.9 740.5,302.3 738.5,302.7 736.6,303.1 734.8,303.5 733.2,303.9 731.7,304.3 730.4,304.7 729.5,305.1 729.1,305.5 729.3,305.9 730.2,306.4 731.8,306.8 734.2,307.2 737.3,307.6 741.2,308.0 745.6,308.4 750.5,308.8 755.6,309.2 760.8,309.6 766.0,310.0 770.9,310.4 775.5,310.8" fill="#2a8" opacity="0.5" stroke="#2a8" stroke-width="1"/>
<line x1="738.1" y1="302.7634426843281" x2="857.9" y2="302.7634426843281" stroke="#114" stroke-width="2"/>
<circle cx="798.0" cy="307.1262697030743" r="2.4" fill="#114"/>
<text x="798.0" y="278.7727775537674" text-anchor="middle" font-size="11">1.51</text>
<text x="798.0" y="376" text-anchor="middle" font-size="12">dzasum</text>
<text x="450.0" y="428" text-anchor="middle" font-size="11" fill="#666">violin = ratio distribution over sizes · line = median · dark dot = worst size · green = every size ≥ gate</text>
</svg>
