<svg xmlns="http://www.w3.org/2000/svg" width="900" height="460" font-family="sans-serif">
<rect width="900" height="460" fill="white"/>
<text x="450.0" y="28" text-anchor="middle" font-size="18" font-weight="bold">LAPACK: PureBLAS / OpenBLAS (AVX-512, 1 thread, Float64)</text>
<line x1="62" y1="400.0" x2="768" y2="400.0" stroke="#eee"/>
<text x="54" y="404.0" text-anchor="end" font-size="11" fill="#666">0.5×</text>
<line x1="62" y1="345.2552705755422" x2="768" y2="345.2552705755422" stroke="#eee"/>
<text x="54" y="349.2552705755422" text-anchor="end" font-size="11" fill="#666">0.7×</text>
<line x1="62" y1="287.2235188491992" x2="768" y2="287.2235188491992" stroke="#eee"/>
<text x="54" y="291.2235188491992" text-anchor="end" font-size="11" fill="#666">1.0×</text>
<line x1="62" y1="221.25350641269438" x2="768" y2="221.25350641269438" stroke="#eee"/>
<text x="54" y="225.25350641269438" text-anchor="end" font-size="11" fill="#666">1.5×</text>
<line x1="62" y1="174.44703769839828" x2="768" y2="174.44703769839828" stroke="#eee"/>
<text x="54" y="178.44703769839828" text-anchor="end" font-size="11" fill="#666">2.0×</text>
<line x1="62" y1="108.4770252618935" x2="768" y2="108.4770252618935" stroke="#eee"/>
<text x="54" y="112.4770252618935" text-anchor="end" font-size="11" fill="#666">3.0×</text>
<line x1="62" y1="61.67055654759746" x2="768" y2="61.67055654759746" stroke="#eee"/>
<text x="54" y="65.67055654759746" text-anchor="end" font-size="11" fill="#666">4.0×</text>
<line x1="62.0" y1="50" x2="62.0" y2="400" stroke="#f4f4f4"/>
<text x="62.0" y="418" text-anchor="middle" font-size="11" fill="#444">8</text>
<line x1="238.5" y1="50" x2="238.5" y2="400" stroke="#f4f4f4"/>
<text x="238.5" y="418" text-anchor="middle" font-size="11" fill="#444">32</text>
<line x1="415.0" y1="50" x2="415.0" y2="400" stroke="#f4f4f4"/>
<text x="415.0" y="418" text-anchor="middle" font-size="11" fill="#444">128</text>
<line x1="503.25" y1="50" x2="503.25" y2="400" stroke="#f4f4f4"/>
<text x="503.25" y="418" text-anchor="middle" font-size="11" fill="#444">256</text>
<line x1="591.5" y1="50" x2="591.5" y2="400" stroke="#f4f4f4"/>
<text x="591.5" y="418" text-anchor="middle" font-size="11" fill="#444">512</text>
<line x1="679.75" y1="50" x2="679.75" y2="400" stroke="#f4f4f4"/>
<text x="679.75" y="418" text-anchor="middle" font-size="11" fill="#444">1024</text>
<line x1="768.0" y1="50" x2="768.0" y2="400" stroke="#f4f4f4"/>
<text x="768.0" y="418" text-anchor="middle" font-size="11" fill="#444">2048</text>
<line x1="62" y1="287.2235188491992" x2="768" y2="287.2235188491992" stroke="#888"/>
<line x1="62" y1="293.8653418626501" x2="768" y2="293.8653418626501" stroke="#d33" stroke-width="1.5" stroke-dasharray="6 4"/>
<text x="66" y="288.8653418626501" font-size="11" fill="#d33">0.96× gate</text>
<polygon points="62.0,221.6 238.5,240.8 415.0,223.2 503.2,218.6 591.5,234.7 679.8,257.4 768.0,262.0 768.0,263.5 679.8,260.2 591.5,243.7 503.2,243.5 415.0,229.1 238.5,245.3 62.0,226.2" fill="#1f77b4" opacity="0.14" stroke="none"/>
<polyline points="62.0,224.6 238.5,242.5 415.0,225.6 503.2,241.4 591.5,239.5 679.8,258.2 768.0,262.9" fill="none" stroke="#1f77b4" stroke-width="2"/>
<circle cx="62.0" cy="224.6" r="3" fill="#1f77b4"/>
<circle cx="238.5" cy="242.5" r="3" fill="#1f77b4"/>
<circle cx="415.0" cy="225.6" r="3" fill="#1f77b4"/>
<circle cx="503.2" cy="241.4" r="3" fill="#1f77b4"/>
<circle cx="591.5" cy="239.5" r="3" fill="#1f77b4"/>
<circle cx="679.8" cy="258.2" r="3" fill="#1f77b4"/>
<circle cx="768.0" cy="262.9" r="3" fill="#1f77b4"/>
<line x1="782" y1="56" x2="802" y2="56" stroke="#1f77b4" stroke-width="3"/>
<text x="806" y="60" font-size="12">potrf</text>
<polygon points="62.0,56.9 238.5,203.6 415.0,227.7 503.2,233.8 591.5,215.4 679.8,237.4 768.0,259.7 768.0,263.0 679.8,240.0 591.5,218.7 503.2,252.6 415.0,231.3 238.5,226.5 62.0,101.5" fill="#d62728" opacity="0.14" stroke="none"/>
<polyline points="62.0,72.7 238.5,224.9 415.0,229.5 503.2,251.0 591.5,217.5 679.8,238.3 768.0,260.6" fill="none" stroke="#d62728" stroke-width="2"/>
<circle cx="62.0" cy="72.7" r="3" fill="#d62728"/>
<circle cx="238.5" cy="224.9" r="3" fill="#d62728"/>
<circle cx="415.0" cy="229.5" r="3" fill="#d62728"/>
<circle cx="503.2" cy="251.0" r="3" fill="#d62728"/>
<circle cx="591.5" cy="217.5" r="3" fill="#d62728"/>
<circle cx="679.8" cy="238.3" r="3" fill="#d62728"/>
<circle cx="768.0" cy="260.6" r="3" fill="#d62728"/>
<line x1="782" y1="74" x2="802" y2="74" stroke="#d62728" stroke-width="3"/>
<text x="806" y="78" font-size="12">geqrf</text>
<polygon points="62.0,180.4 238.5,206.6 415.0,238.6 503.2,263.2 591.5,262.9 679.8,269.2 768.0,280.9 768.0,281.7 679.8,272.1 591.5,271.5 503.2,282.1 415.0,249.1 238.5,208.2 62.0,186.2" fill="#2ca02c" opacity="0.14" stroke="none"/>
<polyline points="62.0,185.5 238.5,207.6 415.0,244.3 503.2,276.5 591.5,264.3 679.8,270.7 768.0,281.4" fill="none" stroke="#2ca02c" stroke-width="2"/>
<circle cx="62.0" cy="185.5" r="3" fill="#2ca02c"/>
<circle cx="238.5" cy="207.6" r="3" fill="#2ca02c"/>
<circle cx="415.0" cy="244.3" r="3" fill="#2ca02c"/>
<circle cx="503.2" cy="276.5" r="3" fill="#2ca02c"/>
<circle cx="591.5" cy="264.3" r="3" fill="#2ca02c"/>
<circle cx="679.8" cy="270.7" r="3" fill="#2ca02c"/>
<circle cx="768.0" cy="281.4" r="3" fill="#2ca02c"/>
<line x1="782" y1="92" x2="802" y2="92" stroke="#2ca02c" stroke-width="3"/>
<text x="806" y="96" font-size="12">getrf</text>
<polygon points="62.0,204.6 238.5,243.6 415.0,265.2 503.2,246.7 591.5,235.9 679.8,241.5 768.0,267.6 768.0,269.2 679.8,245.2 591.5,239.7 503.2,250.1 415.0,281.6 238.5,247.5 62.0,207.2" fill="#9467bd" opacity="0.14" stroke="none"/>
<polyline points="62.0,206.7 238.5,244.5 415.0,275.1 503.2,249.3 591.5,238.1 679.8,243.0 768.0,268.5" fill="none" stroke="#9467bd" stroke-width="2"/>
<circle cx="62.0" cy="206.7" r="3" fill="#9467bd"/>
<circle cx="238.5" cy="244.5" r="3" fill="#9467bd"/>
<circle cx="415.0" cy="275.1" r="3" fill="#9467bd"/>
<circle cx="503.2" cy="249.3" r="3" fill="#9467bd"/>
<circle cx="591.5" cy="238.1" r="3" fill="#9467bd"/>
<circle cx="679.8" cy="243.0" r="3" fill="#9467bd"/>
<circle cx="768.0" cy="268.5" r="3" fill="#9467bd"/>
<line x1="782" y1="110" x2="802" y2="110" stroke="#9467bd" stroke-width="3"/>
<text x="806" y="114" font-size="12">gesvd</text>
<text x="415.0" y="450" text-anchor="middle" font-size="11" fill="#666">matrix size n (log) · y = median ratio (log) · dashed = the 0.96× gate</text>
</svg>
