<svg xmlns="http://www.w3.org/2000/svg" width="900" height="440" font-family="sans-serif">
<rect width="900" height="440" fill="white"/>
<text x="450.0" y="28" text-anchor="middle" font-size="18" font-weight="bold">Complex BLAS-2: PureBLAS / OpenBLAS (AVX2, 1 thread, ComplexF64)</text>
<line x1="60" y1="358.0" x2="880" y2="358.0" stroke="#eee"/>
<text x="52" y="362.0" text-anchor="end" font-size="11" fill="#666">0×</text>
<line x1="60" y1="280.9726219409622" x2="880" y2="280.9726219409622" stroke="#eee"/>
<text x="52" y="284.9726219409622" text-anchor="end" font-size="11" fill="#666">0.5×</text>
<line x1="60" y1="203.94524388192434" x2="880" y2="203.94524388192434" stroke="#eee"/>
<text x="52" y="207.94524388192434" text-anchor="end" font-size="11" fill="#666">1×</text>
<line x1="60" y1="126.91786582288647" x2="880" y2="126.91786582288647" stroke="#eee"/>
<text x="52" y="130.91786582288648" text-anchor="end" font-size="11" fill="#666">1.5×</text>
<line x1="60" y1="203.94524388192434" x2="880" y2="203.94524388192434" stroke="#888" stroke-width="1"/>
<line x1="60" y1="210.10743412664735" x2="880" y2="210.10743412664735" stroke="#d33" stroke-width="1.5" stroke-dasharray="6 4"/>
<text x="880" y="205.10743412664735" text-anchor="end" font-size="11" fill="#d33">0.96× gate</text>
<polygon points="131.9,262.3 133.1,261.2 134.5,260.1 136.3,259.0 138.4,257.9 140.8,256.7 143.5,255.6 146.5,254.5 149.9,253.4 153.4,252.3 157.1,251.1 160.8,250.0 164.6,248.9 168.2,247.8 171.6,246.7 174.8,245.6 177.6,244.4 180.0,243.3 182.0,242.2 183.6,241.1 184.7,240.0 185.4,238.8 185.7,237.7 185.6,236.6 185.0,235.5 184.1,234.4 182.7,233.2 180.9,232.1 178.6,231.0 176.0,229.9 173.0,228.8 169.7,227.6 166.2,226.5 162.5,225.4 158.8,224.3 155.1,223.2 151.7,222.0 148.5,220.9 145.7,219.8 143.4,218.7 141.6,217.6 140.3,216.5 139.6,215.3 139.5,214.2 139.9,213.1 140.8,212.0 142.2,210.9 143.9,209.7 145.9,208.6 148.0,207.5 150.2,206.4 152.3,205.3 154.2,204.1 155.8,203.0 157.1,201.9 157.9,200.8 158.2,199.7 158.1,198.5 157.5,197.4 156.5,196.3 155.1,195.2 153.3,194.1 151.4,192.9 149.2,191.8 147.0,190.7 144.8,189.6 142.7,188.5 140.6,187.4 138.7,186.2 136.9,185.1 135.3,184.0 133.9,182.9 122.7,182.9 121.4,184.0 119.8,185.1 118.0,186.2 116.1,187.4 114.0,188.5 111.8,189.6 109.6,190.7 107.4,191.8 105.3,192.9 103.3,194.1 101.6,195.2 100.2,196.3 99.2,197.4 98.6,198.5 98.4,199.7 98.8,200.8 99.6,201.9 100.8,203.0 102.5,204.1 104.4,205.3 106.5,206.4 108.7,207.5 110.8,208.6 112.8,209.7 114.5,210.9 115.8,212.0 116.7,213.1 117.2,214.2 117.0,215.3 116.3,216.5 115.1,217.6 113.3,218.7 110.9,219.8 108.1,220.9 105.0,222.0 101.5,223.2 97.9,224.3 94.2,225.4 90.5,226.5 87.0,227.6 83.7,228.8 80.7,229.9 78.1,231.0 75.8,232.1 74.0,233.2 72.6,234.4 71.6,235.5 71.1,236.6 70.9,237.7 71.2,238.8 71.9,240.0 73.1,241.1 74.7,242.2 76.7,243.3 79.1,244.4 81.9,245.6 85.0,246.7 88.5,247.8 92.1,248.9 95.8,250.0 99.6,251.1 103.3,252.3 106.8,253.4 110.1,254.5 113.2,255.6 115.9,256.7 118.3,257.9 120.4,259.0 122.1,260.1 123.6,261.2 124.7,262.3" fill="#d33" opacity="0.5" stroke="#d33" stroke-width="1"/>
<line x1="77.6" y1="231.22036626258893" x2="179.1" y2="231.22036626258893" stroke="#114" stroke-width="2"/>
<circle cx="128.33333333333331" cy="246.24900291480046" r="2.4" fill="#114"/>
<text x="128.33333333333331" y="184.813561056941" text-anchor="middle" font-size="11">0.82</text>
<text x="128.33333333333331" y="376" text-anchor="middle" font-size="12">zgemvN</text>
<polygon points="273.4,235.2 275.5,234.4 277.8,233.6 280.2,232.8 282.6,232.0 284.9,231.2 286.9,230.3 288.6,229.5 289.9,228.7 290.7,227.9 291.1,227.1 291.2,226.3 291.0,225.5 290.8,224.6 290.7,223.8 291.0,223.0 291.7,222.2 292.9,221.4 294.7,220.6 297.0,219.7 299.8,218.9 303.0,218.1 306.3,217.3 309.6,216.5 312.7,215.7 315.4,214.9 317.8,214.0 319.6,213.2 321.0,212.4 321.8,211.6 322.3,210.8 322.4,210.0 322.2,209.1 321.9,208.3 321.3,207.5 320.6,206.7 319.9,205.9 319.0,205.1 318.0,204.3 316.9,203.4 315.8,202.6 314.7,201.8 313.6,201.0 312.8,200.2 312.1,199.4 311.6,198.6 311.5,197.7 311.6,196.9 311.9,196.1 312.3,195.3 312.7,194.5 312.9,193.7 312.8,192.8 312.3,192.0 311.2,191.2 309.6,190.4 307.3,189.6 304.5,188.8 301.3,188.0 297.7,187.1 293.8,186.3 290.0,185.5 286.2,184.7 282.7,183.9 279.5,183.1 276.6,182.2 274.2,181.4 272.1,180.6 270.4,179.8 269.0,179.0 268.0,178.2 267.1,177.4 262.9,177.4 262.0,178.2 261.0,179.0 259.6,179.8 257.9,180.6 255.8,181.4 253.4,182.2 250.5,183.1 247.3,183.9 243.8,184.7 240.0,185.5 236.2,186.3 232.3,187.1 228.7,188.0 225.5,188.8 222.7,189.6 220.4,190.4 218.8,191.2 217.7,192.0 217.2,192.8 217.1,193.7 217.3,194.5 217.7,195.3 218.1,196.1 218.4,196.9 218.5,197.7 218.4,198.6 217.9,199.4 217.2,200.2 216.4,201.0 215.3,201.8 214.2,202.6 213.1,203.4 212.0,204.3 211.0,205.1 210.1,205.9 209.4,206.7 208.7,207.5 208.1,208.3 207.8,209.1 207.6,210.0 207.7,210.8 208.2,211.6 209.0,212.4 210.4,213.2 212.2,214.0 214.6,214.9 217.3,215.7 220.4,216.5 223.7,217.3 227.0,218.1 230.2,218.9 233.0,219.7 235.3,220.6 237.1,221.4 238.3,222.2 239.0,223.0 239.3,223.8 239.2,224.6 239.0,225.5 238.8,226.3 238.9,227.1 239.3,227.9 240.1,228.7 241.4,229.5 243.1,230.3 245.1,231.2 247.4,232.0 249.8,232.8 252.2,233.6 254.5,234.4 256.6,235.2" fill="#d33" opacity="0.5" stroke="#d33" stroke-width="1"/>
<line x1="209.9" y1="206.08351095828502" x2="320.1" y2="206.08351095828502" stroke="#114" stroke-width="2"/>
<circle cx="265.0" cy="228.0712310521405" r="2.4" fill="#114"/>
<text x="265.0" y="177.20353112566843" text-anchor="middle" font-size="11">0.99</text>
<text x="265.0" y="376" text-anchor="middle" font-size="12">zgemvC</text>
<polygon points="411.3,221.6 414.0,220.4 417.3,219.2 421.0,218.0 425.1,216.8 429.5,215.6 434.2,214.3 439.0,213.1 443.6,211.9 448.0,210.7 451.8,209.5 455.0,208.3 457.4,207.1 458.7,205.9 459.1,204.6 458.4,203.4 456.7,202.2 454.1,201.0 450.8,199.8 447.0,198.6 442.9,197.4 438.6,196.2 434.5,194.9 430.6,193.7 427.1,192.5 424.1,191.3 421.6,190.1 419.7,188.9 418.4,187.7 417.5,186.5 416.9,185.2 416.6,184.0 416.5,182.8 416.4,181.6 416.3,180.4 416.0,179.2 415.6,178.0 415.0,176.8 414.2,175.5 413.2,174.3 412.2,173.1 411.2,171.9 410.2,170.7 409.3,169.5 408.6,168.3 408.1,167.0 408.0,165.8 408.1,164.6 408.4,163.4 409.0,162.2 409.8,161.0 410.7,159.8 411.7,158.6 412.6,157.3 413.4,156.1 414.1,154.9 414.5,153.7 414.6,152.5 414.5,151.3 414.0,150.1 413.4,148.9 412.5,147.6 411.4,146.4 410.3,145.2 409.1,144.0 407.9,142.8 406.8,141.6 405.8,140.4 405.0,139.2 404.2,137.9 403.6,136.7 403.1,135.5 400.2,135.5 399.7,136.7 399.1,137.9 398.4,139.2 397.5,140.4 396.5,141.6 395.4,142.8 394.3,144.0 393.1,145.2 391.9,146.4 390.9,147.6 390.0,148.9 389.3,150.1 388.8,151.3 388.7,152.5 388.8,153.7 389.2,154.9 389.9,156.1 390.7,157.3 391.6,158.6 392.6,159.8 393.5,161.0 394.3,162.2 394.9,163.4 395.3,164.6 395.4,165.8 395.2,167.0 394.7,168.3 394.0,169.5 393.2,170.7 392.2,171.9 391.1,173.1 390.1,174.3 389.2,175.5 388.4,176.8 387.7,178.0 387.3,179.2 387.1,180.4 386.9,181.6 386.8,182.8 386.7,184.0 386.4,185.2 385.9,186.5 385.0,187.7 383.6,188.9 381.7,190.1 379.2,191.3 376.2,192.5 372.7,193.7 368.8,194.9 364.7,196.2 360.4,197.4 356.3,198.6 352.5,199.8 349.2,201.0 346.6,202.2 345.0,203.4 344.3,204.6 344.6,205.9 346.0,207.1 348.3,208.3 351.5,209.5 355.4,210.7 359.7,211.9 364.4,213.1 369.1,214.3 373.8,215.6 378.3,216.8 382.4,218.0 386.1,219.2 389.3,220.4 392.1,221.6" fill="#d33" opacity="0.5" stroke="#d33" stroke-width="1"/>
<line x1="345.4" y1="203.07223488595483" x2="458.0" y2="203.07223488595483" stroke="#114" stroke-width="2"/>
<circle cx="401.66666666666663" cy="210.45605926016867" r="2.4" fill="#114"/>
<text x="401.66666666666663" y="138.09758198918271" text-anchor="middle" font-size="11">1.01</text>
<text x="401.66666666666663" y="376" text-anchor="middle" font-size="12">zgeru</text>
<polygon points="560.8,179.1 564.4,177.4 568.2,175.6 572.0,173.9 575.8,172.1 579.5,170.4 582.9,168.7 586.1,166.9 588.8,165.2 591.1,163.4 592.9,161.7 594.1,159.9 594.8,158.2 595.0,156.4 594.7,154.7 593.9,152.9 592.8,151.2 591.4,149.5 589.7,147.7 588.0,146.0 586.1,144.2 584.3,142.5 582.5,140.7 580.7,139.0 579.2,137.2 577.7,135.5 576.4,133.7 575.2,132.0 574.2,130.2 573.3,128.5 572.4,126.8 571.7,125.0 571.0,123.3 570.3,121.5 569.7,119.8 569.2,118.0 568.8,116.3 568.5,114.5 568.4,112.8 568.5,111.0 568.8,109.3 569.5,107.6 570.4,105.8 571.7,104.1 573.2,102.3 575.1,100.6 577.2,98.8 579.5,97.1 582.0,95.3 584.5,93.6 586.9,91.8 589.3,90.1 591.4,88.4 593.2,86.6 594.5,84.9 595.4,83.1 595.7,81.4 595.5,79.6 594.6,77.9 593.1,76.1 591.0,74.4 588.5,72.6 585.4,70.9 582.0,69.2 578.3,67.4 574.5,65.7 570.6,63.9 566.7,62.2 563.0,60.4 559.4,58.7 556.1,56.9 553.2,55.2 523.5,55.2 520.5,56.9 517.2,58.7 513.7,60.4 510.0,62.2 506.1,63.9 502.2,65.7 498.3,67.4 494.7,69.2 491.2,70.9 488.2,72.6 485.6,74.4 483.6,76.1 482.1,77.9 481.2,79.6 480.9,81.4 481.3,83.1 482.1,84.9 483.5,86.6 485.3,88.4 487.4,90.1 489.7,91.8 492.2,93.6 494.7,95.3 497.1,97.1 499.5,98.8 501.6,100.6 503.4,102.3 505.0,104.1 506.3,105.8 507.2,107.6 507.8,109.3 508.2,111.0 508.3,112.8 508.2,114.5 507.9,116.3 507.5,118.0 507.0,119.8 506.4,121.5 505.7,123.3 505.0,125.0 504.2,126.8 503.4,128.5 502.5,130.2 501.4,132.0 500.3,133.7 499.0,135.5 497.5,137.2 495.9,139.0 494.2,140.7 492.4,142.5 490.5,144.2 488.7,146.0 486.9,147.7 485.3,149.5 483.9,151.2 482.7,152.9 482.0,154.7 481.7,156.4 481.8,158.2 482.5,159.9 483.8,161.7 485.6,163.4 487.9,165.2 490.6,166.9 493.8,168.7 497.2,170.4 500.9,172.1 504.7,173.9 508.5,175.6 512.2,177.4 515.8,179.1" fill="#2a8" opacity="0.5" stroke="#2a8" stroke-width="1"/>
<line x1="506.5" y1="121.14873285952265" x2="570.2" y2="121.14873285952265" stroke="#114" stroke-width="2"/>
<circle cx="538.3333333333333" cy="163.05983040619222" r="2.4" fill="#114"/>
<text x="538.3333333333333" y="61.433962264150935" text-anchor="middle" font-size="11">1.54</text>
<text x="538.3333333333333" y="376" text-anchor="middle" font-size="12">zhemv</text>
<polygon points="687.0,254.0 689.8,251.2 692.9,248.5 696.4,245.7 700.1,243.0 704.1,240.2 708.2,237.5 712.2,234.7 716.2,232.0 720.0,229.2 723.5,226.5 726.5,223.7 729.0,221.0 730.8,218.3 732.0,215.5 732.4,212.8 732.1,210.0 731.0,207.3 729.2,204.5 726.8,201.8 723.8,199.0 720.4,196.3 716.7,193.5 712.8,190.8 708.8,188.1 704.9,185.3 701.1,182.6 697.7,179.8 694.6,177.1 691.9,174.3 689.7,171.6 688.0,168.8 686.7,166.1 685.9,163.3 685.5,160.6 685.4,157.9 685.6,155.1 686.1,152.4 686.6,149.6 687.2,146.9 687.8,144.1 688.3,141.4 688.7,138.6 688.9,135.9 689.0,133.1 688.9,130.4 688.7,127.7 688.3,124.9 687.9,122.2 687.6,119.4 687.2,116.7 686.9,113.9 686.8,111.2 686.8,108.4 686.9,105.7 687.1,102.9 687.5,100.2 687.8,97.4 688.2,94.7 688.6,92.0 688.8,89.2 688.9,86.5 688.8,83.7 688.5,81.0 688.0,78.2 687.4,75.5 686.5,72.7 685.6,70.0 684.5,67.2 683.4,64.5 682.3,61.8 681.2,59.0 668.8,59.0 667.7,61.8 666.6,64.5 665.5,67.2 664.4,70.0 663.5,72.7 662.6,75.5 662.0,78.2 661.5,81.0 661.2,83.7 661.1,86.5 661.2,89.2 661.4,92.0 661.8,94.7 662.2,97.4 662.5,100.2 662.9,102.9 663.1,105.7 663.2,108.4 663.2,111.2 663.1,113.9 662.8,116.7 662.4,119.4 662.1,122.2 661.7,124.9 661.3,127.7 661.1,130.4 661.0,133.1 661.1,135.9 661.3,138.6 661.7,141.4 662.2,144.1 662.8,146.9 663.4,149.6 663.9,152.4 664.4,155.1 664.6,157.9 664.5,160.6 664.1,163.3 663.3,166.1 662.0,168.8 660.3,171.6 658.1,174.3 655.4,177.1 652.3,179.8 648.9,182.6 645.1,185.3 641.2,188.1 637.2,190.8 633.3,193.5 629.6,196.3 626.2,199.0 623.2,201.8 620.8,204.5 619.0,207.3 617.9,210.0 617.6,212.8 618.0,215.5 619.2,218.3 621.0,221.0 623.5,223.7 626.5,226.5 630.0,229.2 633.8,232.0 637.8,234.7 641.8,237.5 645.9,240.2 649.9,243.0 653.6,245.7 657.1,248.5 660.2,251.2 663.0,254.0" fill="#d33" opacity="0.5" stroke="#d33" stroke-width="1"/>
<line x1="620.1" y1="205.44979664296727" x2="729.9" y2="205.44979664296727" stroke="#114" stroke-width="2"/>
<circle cx="675.0" cy="227.6939701670475" r="2.4" fill="#114"/>
<text x="675.0" y="72.12432686036" text-anchor="middle" font-size="11">0.99</text>
<text x="675.0" y="376" text-anchor="middle" font-size="12">ztrmv</text>
<polygon points="811.7,266.3 811.8,265.2 811.9,264.1 812.0,263.0 812.2,261.9 812.4,260.8 812.5,259.7 812.5,258.6 812.5,257.5 812.4,256.4 812.2,255.3 812.1,254.2 811.9,253.1 811.8,252.1 811.7,251.0 811.7,249.9 811.7,248.8 811.7,247.7 811.8,246.6 811.9,245.5 812.0,244.4 812.3,243.3 812.7,242.2 813.3,241.1 814.1,240.0 815.5,238.9 817.4,237.8 820.0,236.7 823.2,235.6 827.0,234.5 831.1,233.4 835.3,232.3 839.5,231.2 843.8,230.1 848.1,229.0 852.3,227.9 856.3,226.8 860.1,225.7 863.5,224.7 866.4,223.6 868.4,222.5 869.1,221.4 867.7,220.3 864.0,219.2 858.0,218.1 850.6,217.0 842.7,215.9 835.6,214.8 830.0,213.7 826.3,212.6 824.1,211.5 823.1,210.4 822.6,209.3 822.4,208.2 822.3,207.1 822.1,206.0 821.9,204.9 821.6,203.8 820.9,202.7 820.0,201.6 818.8,200.5 817.5,199.4 816.2,198.3 815.0,197.2 814.1,196.2 813.4,195.1 812.8,194.0 812.4,192.9 812.1,191.8 811.9,190.7 811.8,189.6 811.7,188.5 811.6,188.5 811.5,189.6 811.4,190.7 811.2,191.8 810.9,192.9 810.5,194.0 810.0,195.1 809.2,196.2 808.3,197.2 807.1,198.3 805.8,199.4 804.5,200.5 803.3,201.6 802.4,202.7 801.8,203.8 801.4,204.9 801.2,206.0 801.1,207.1 800.9,208.2 800.7,209.3 800.3,210.4 799.2,211.5 797.1,212.6 793.3,213.7 787.7,214.8 780.6,215.9 772.8,217.0 765.3,218.1 759.3,219.2 755.6,220.3 754.3,221.4 754.9,222.5 756.9,223.6 759.8,224.7 763.2,225.7 767.0,226.8 771.0,227.9 775.3,229.0 779.5,230.1 783.8,231.2 788.1,232.3 792.3,233.4 796.4,234.5 800.1,235.6 803.4,236.7 805.9,237.8 807.9,238.9 809.2,240.0 810.1,241.1 810.7,242.2 811.0,243.3 811.3,244.4 811.5,245.5 811.6,246.6 811.6,247.7 811.6,248.8 811.6,249.9 811.6,251.0 811.5,252.1 811.4,253.1 811.3,254.2 811.1,255.3 810.9,256.4 810.8,257.5 810.8,258.6 810.8,259.7 811.0,260.8 811.1,261.9 811.3,263.0 811.4,264.1 811.5,265.2 811.6,266.3" fill="#d33" opacity="0.5" stroke="#d33" stroke-width="1"/>
<line x1="754.3" y1="221.3091660376314" x2="869.1" y2="221.3091660376314" stroke="#114" stroke-width="2"/>
<circle cx="811.6666666666666" cy="232.51219894361088" r="2.4" fill="#114"/>
<text x="811.6666666666666" y="190.2605850004688" text-anchor="middle" font-size="11">0.89</text>
<text x="811.6666666666666" y="376" text-anchor="middle" font-size="12">ztrsv</text>
<text x="450.0" y="428" text-anchor="middle" font-size="11" fill="#666">violin = ratio distribution over sizes · line = median · dark dot = worst size · green = every size ≥ gate</text>
</svg>
