<svg xmlns="http://www.w3.org/2000/svg" width="900" height="440" font-family="sans-serif">
<rect width="900" height="440" fill="white"/>
<text x="450.0" y="28" text-anchor="middle" font-size="18" font-weight="bold">Complex BLAS-2: PureBLAS / OpenBLAS (AVX-512 native (Zen5), 1 thread, ComplexF64)</text>
<line x1="60" y1="358.0" x2="880" y2="358.0" stroke="#eee"/>
<text x="52" y="362.0" text-anchor="end" font-size="11" fill="#666">0×</text>
<line x1="60" y1="299.0785931656735" x2="880" y2="299.0785931656735" stroke="#eee"/>
<text x="52" y="303.0785931656735" text-anchor="end" font-size="11" fill="#666">0.5×</text>
<line x1="60" y1="240.15718633134708" x2="880" y2="240.15718633134708" stroke="#eee"/>
<text x="52" y="244.15718633134708" text-anchor="end" font-size="11" fill="#666">1×</text>
<line x1="60" y1="181.23577949702056" x2="880" y2="181.23577949702056" stroke="#eee"/>
<text x="52" y="185.23577949702056" text-anchor="end" font-size="11" fill="#666">1.5×</text>
<line x1="60" y1="240.15718633134708" x2="880" y2="240.15718633134708" stroke="#888" stroke-width="1"/>
<line x1="60" y1="244.87089887809316" x2="880" y2="244.87089887809316" stroke="#d33" stroke-width="1.5" stroke-dasharray="6 4"/>
<text x="880" y="239.87089887809316" text-anchor="end" font-size="11" fill="#d33">0.96× gate</text>
<polygon points="109.9,250.7 112.1,249.9 114.6,249.1 117.3,248.4 120.2,247.6 123.1,246.8 126.0,246.0 128.7,245.3 131.0,244.5 133.0,243.7 134.5,243.0 135.3,242.2 135.4,241.4 134.9,240.6 133.8,239.9 132.0,239.1 129.8,238.3 127.2,237.6 124.3,236.8 121.4,236.0 118.4,235.2 115.6,234.5 113.0,233.7 110.7,232.9 108.7,232.2 107.1,231.4 105.8,230.6 104.8,229.8 104.2,229.1 103.8,228.3 103.7,227.5 103.8,226.8 104.2,226.0 104.7,225.2 105.5,224.4 106.4,223.7 107.4,222.9 108.5,222.1 109.7,221.4 110.9,220.6 112.2,219.8 113.5,219.0 114.7,218.3 115.9,217.5 117.0,216.7 118.0,216.0 118.9,215.2 119.7,214.4 120.2,213.6 120.6,212.9 120.8,212.1 120.8,211.3 120.6,210.6 120.1,209.8 119.4,209.0 118.5,208.2 117.5,207.5 116.3,206.7 115.0,205.9 113.7,205.2 112.4,204.4 111.0,203.6 109.8,202.8 108.6,202.1 107.4,201.3 106.4,200.5 105.5,199.8 104.7,199.0 104.0,198.2 103.4,197.4 102.9,196.7 102.4,195.9 99.6,195.9 99.1,196.7 98.6,197.4 98.0,198.2 97.3,199.0 96.5,199.8 95.6,200.5 94.6,201.3 93.4,202.1 92.2,202.8 91.0,203.6 89.6,204.4 88.3,205.2 87.0,205.9 85.7,206.7 84.5,207.5 83.5,208.2 82.6,209.0 81.9,209.8 81.4,210.6 81.2,211.3 81.2,212.1 81.4,212.9 81.8,213.6 82.3,214.4 83.1,215.2 84.0,216.0 85.0,216.7 86.1,217.5 87.3,218.3 88.5,219.0 89.8,219.8 91.1,220.6 92.3,221.4 93.5,222.1 94.6,222.9 95.6,223.7 96.5,224.4 97.3,225.2 97.8,226.0 98.2,226.8 98.3,227.5 98.2,228.3 97.8,229.1 97.2,229.8 96.2,230.6 94.9,231.4 93.3,232.2 91.3,232.9 89.0,233.7 86.4,234.5 83.6,235.2 80.6,236.0 77.7,236.8 74.8,237.6 72.2,238.3 70.0,239.1 68.2,239.9 67.1,240.6 66.6,241.4 66.7,242.2 67.5,243.0 69.0,243.7 71.0,244.5 73.3,245.3 76.0,246.0 78.9,246.8 81.8,247.6 84.7,248.4 87.4,249.1 89.9,249.9 92.1,250.7" fill="#2a8" opacity="0.5" stroke="#2a8" stroke-width="1"/>
<line x1="69.5" y1="239.30418053030883" x2="132.5" y2="239.30418053030883" stroke="#114" stroke-width="2"/>
<circle cx="101.0" cy="244.8040319994361" r="2.4" fill="#114"/>
<text x="101.0" y="195.38929783979168" text-anchor="middle" font-size="11">1.01</text>
<text x="101.0" y="376" text-anchor="middle" font-size="12">zgemvN</text>
<polygon points="189.4,261.3 190.7,260.5 192.1,259.7 193.4,259.0 194.6,258.2 195.7,257.5 196.5,256.7 197.0,255.9 197.2,255.2 197.1,254.4 196.8,253.7 196.3,252.9 195.7,252.1 195.1,251.4 194.7,250.6 194.4,249.9 194.4,249.1 194.7,248.3 195.4,247.6 196.3,246.8 197.4,246.1 198.7,245.3 200.1,244.5 201.4,243.8 202.8,243.0 204.0,242.3 205.2,241.5 206.2,240.7 207.0,240.0 207.8,239.2 208.5,238.5 209.0,237.7 209.4,236.9 209.7,236.2 209.8,235.4 209.7,234.7 209.4,233.9 208.8,233.1 208.0,232.4 207.1,231.6 206.0,230.9 204.8,230.1 203.7,229.3 202.7,228.6 201.9,227.8 201.4,227.1 201.3,226.3 201.6,225.5 202.2,224.8 203.3,224.0 204.7,223.3 206.3,222.5 208.2,221.7 210.1,221.0 212.0,220.2 213.8,219.5 215.3,218.7 216.5,218.0 217.2,217.2 217.4,216.4 217.1,215.7 216.1,214.9 214.6,214.2 212.6,213.4 210.1,212.6 207.4,211.9 204.4,211.1 201.4,210.4 198.5,209.6 195.7,208.8 193.2,208.1 191.0,207.3 175.0,207.3 172.8,208.1 170.3,208.8 167.5,209.6 164.6,210.4 161.6,211.1 158.6,211.9 155.9,212.6 153.4,213.4 151.4,214.2 149.9,214.9 148.9,215.7 148.6,216.4 148.8,217.2 149.5,218.0 150.7,218.7 152.2,219.5 154.0,220.2 155.9,221.0 157.8,221.7 159.7,222.5 161.3,223.3 162.7,224.0 163.8,224.8 164.4,225.5 164.7,226.3 164.6,227.1 164.1,227.8 163.3,228.6 162.3,229.3 161.2,230.1 160.0,230.9 158.9,231.6 158.0,232.4 157.2,233.1 156.6,233.9 156.3,234.7 156.2,235.4 156.3,236.2 156.6,236.9 157.0,237.7 157.5,238.5 158.2,239.2 159.0,240.0 159.8,240.7 160.8,241.5 162.0,242.3 163.2,243.0 164.6,243.8 165.9,244.5 167.3,245.3 168.6,246.1 169.7,246.8 170.6,247.6 171.3,248.3 171.6,249.1 171.6,249.9 171.3,250.6 170.9,251.4 170.3,252.1 169.7,252.9 169.2,253.7 168.9,254.4 168.8,255.2 169.0,255.9 169.5,256.7 170.3,257.5 171.4,258.2 172.6,259.0 173.9,259.7 175.3,260.5 176.6,261.3" fill="#d33" opacity="0.5" stroke="#d33" stroke-width="1"/>
<line x1="160.1" y1="230.8212804216249" x2="205.9" y2="230.8212804216249" stroke="#114" stroke-width="2"/>
<circle cx="183.0" cy="255.61767696848977" r="2.4" fill="#114"/>
<text x="183.0" y="206.72345683877793" text-anchor="middle" font-size="11">1.08</text>
<text x="183.0" y="376" text-anchor="middle" font-size="12">zgemvT</text>
<polygon points="269.8,257.1 270.9,256.4 271.9,255.7 273.0,255.1 274.1,254.4 275.0,253.7 275.8,253.1 276.4,252.4 276.8,251.7 277.0,251.1 277.1,250.4 277.0,249.8 276.7,249.1 276.5,248.4 276.3,247.8 276.3,247.1 276.4,246.4 276.7,245.8 277.2,245.1 278.0,244.5 278.9,243.8 279.9,243.1 280.9,242.5 281.9,241.8 282.8,241.1 283.6,240.5 284.1,239.8 284.4,239.2 284.4,238.5 284.3,237.8 284.1,237.2 283.8,236.5 283.4,235.8 283.1,235.2 282.8,234.5 282.7,233.8 282.6,233.2 282.5,232.5 282.5,231.9 282.5,231.2 282.4,230.5 282.2,229.9 281.9,229.2 281.5,228.5 281.0,227.9 280.5,227.2 280.1,226.6 279.8,225.9 279.7,225.2 280.0,224.6 280.7,223.9 281.8,223.2 283.3,222.6 285.3,221.9 287.6,221.3 290.0,220.6 292.5,219.9 294.9,219.3 296.9,218.6 298.4,217.9 299.3,217.3 299.4,216.6 298.8,215.9 297.5,215.3 295.5,214.6 293.0,214.0 290.1,213.3 286.9,212.6 283.8,212.0 280.7,211.3 277.8,210.6 275.2,210.0 254.8,210.0 252.2,210.6 249.3,211.3 246.2,212.0 243.1,212.6 239.9,213.3 237.0,214.0 234.5,214.6 232.5,215.3 231.2,215.9 230.6,216.6 230.7,217.3 231.6,217.9 233.1,218.6 235.1,219.3 237.5,219.9 240.0,220.6 242.4,221.3 244.7,221.9 246.7,222.6 248.2,223.2 249.3,223.9 250.0,224.6 250.3,225.2 250.2,225.9 249.9,226.6 249.5,227.2 249.0,227.9 248.5,228.5 248.1,229.2 247.8,229.9 247.6,230.5 247.5,231.2 247.5,231.9 247.5,232.5 247.4,233.2 247.3,233.8 247.2,234.5 246.9,235.2 246.6,235.8 246.2,236.5 245.9,237.2 245.7,237.8 245.6,238.5 245.6,239.2 245.9,239.8 246.4,240.5 247.2,241.1 248.1,241.8 249.1,242.5 250.1,243.1 251.1,243.8 252.0,244.5 252.8,245.1 253.3,245.8 253.6,246.4 253.7,247.1 253.7,247.8 253.5,248.4 253.3,249.1 253.0,249.8 252.9,250.4 253.0,251.1 253.2,251.7 253.6,252.4 254.2,253.1 255.0,253.7 255.9,254.4 257.0,255.1 258.1,255.7 259.1,256.4 260.2,257.1" fill="#d33" opacity="0.5" stroke="#d33" stroke-width="1"/>
<line x1="248.6" y1="228.3298507089179" x2="281.4" y2="228.3298507089179" stroke="#114" stroke-width="2"/>
<circle cx="265.0" cy="251.68798270502697" r="2.4" fill="#114"/>
<text x="265.0" y="208.7271507651396" text-anchor="middle" font-size="11">1.10</text>
<text x="265.0" y="376" text-anchor="middle" font-size="12">zgemvC</text>
<polygon points="347.1,255.6 347.1,255.1 347.2,254.6 347.3,254.0 347.4,253.5 347.5,252.9 347.6,252.4 347.7,251.9 347.9,251.3 348.0,250.8 348.0,250.3 348.1,249.7 348.2,249.2 348.4,248.6 348.6,248.1 348.9,247.6 349.5,247.0 350.4,246.5 351.6,245.9 353.3,245.4 355.3,244.9 357.5,244.3 359.9,243.8 362.1,243.3 363.9,242.7 365.3,242.2 366.2,241.6 366.5,241.1 366.6,240.6 366.5,240.0 366.3,239.5 366.3,238.9 366.5,238.4 366.9,237.9 367.5,237.3 368.5,236.8 369.8,236.3 371.6,235.7 373.6,235.2 375.9,234.6 378.1,234.1 379.9,233.6 381.1,233.0 381.4,232.5 380.8,231.9 379.1,231.4 376.7,230.9 373.8,230.3 370.7,229.8 367.8,229.3 365.4,228.7 363.9,228.2 363.4,227.6 363.9,227.1 365.3,226.6 367.4,226.0 369.7,225.5 371.8,224.9 373.2,224.4 373.6,223.9 372.8,223.3 371.0,222.8 368.3,222.2 365.0,221.7 361.6,221.2 358.2,220.6 355.3,220.1 352.8,219.6 350.9,219.0 349.5,218.5 348.6,217.9 347.9,217.4 346.1,217.4 345.4,217.9 344.5,218.5 343.1,219.0 341.2,219.6 338.7,220.1 335.8,220.6 332.4,221.2 329.0,221.7 325.7,222.2 323.0,222.8 321.2,223.3 320.4,223.9 320.8,224.4 322.2,224.9 324.3,225.5 326.6,226.0 328.7,226.6 330.1,227.1 330.6,227.6 330.1,228.2 328.6,228.7 326.2,229.3 323.3,229.8 320.2,230.3 317.3,230.9 314.9,231.4 313.2,231.9 312.6,232.5 312.9,233.0 314.1,233.6 315.9,234.1 318.1,234.6 320.4,235.2 322.4,235.7 324.2,236.3 325.5,236.8 326.5,237.3 327.1,237.9 327.5,238.4 327.7,238.9 327.7,239.5 327.5,240.0 327.4,240.6 327.5,241.1 327.8,241.6 328.7,242.2 330.1,242.7 331.9,243.3 334.1,243.8 336.5,244.3 338.7,244.9 340.7,245.4 342.4,245.9 343.6,246.5 344.5,247.0 345.1,247.6 345.4,248.1 345.6,248.6 345.8,249.2 345.9,249.7 346.0,250.3 346.0,250.8 346.1,251.3 346.3,251.9 346.4,252.4 346.5,252.9 346.6,253.5 346.7,254.0 346.8,254.6 346.9,255.1 346.9,255.6" fill="#2a8" opacity="0.5" stroke="#2a8" stroke-width="1"/>
<line x1="312.5" y1="232.62186172687043" x2="381.5" y2="232.62186172687043" stroke="#114" stroke-width="2"/>
<circle cx="347.0" cy="242.1569597222428" r="2.4" fill="#114"/>
<text x="347.0" y="215.29294142317693" text-anchor="middle" font-size="11">1.06</text>
<text x="347.0" y="376" text-anchor="middle" font-size="12">zgeru</text>
<polygon points="446.9,247.7 449.5,244.9 452.1,242.1 454.6,239.3 456.9,236.6 458.9,233.8 460.6,231.0 461.9,228.2 462.9,225.4 463.4,222.6 463.4,219.9 463.1,217.1 462.5,214.3 461.6,211.5 460.4,208.7 459.0,205.9 457.5,203.2 455.8,200.4 454.2,197.6 452.5,194.8 450.9,192.0 449.3,189.2 447.9,186.4 446.6,183.7 445.5,180.9 444.7,178.1 444.2,175.3 443.9,172.5 443.9,169.7 444.3,167.0 444.9,164.2 445.7,161.4 446.7,158.6 447.8,155.8 449.0,153.0 450.1,150.2 451.2,147.5 452.1,144.7 452.7,141.9 453.2,139.1 453.4,136.3 453.3,133.5 453.0,130.8 452.6,128.0 452.0,125.2 451.4,122.4 450.7,119.6 450.1,116.8 449.7,114.0 449.4,111.3 449.4,108.5 449.6,105.7 450.1,102.9 450.8,100.1 451.8,97.3 452.9,94.6 454.2,91.8 455.4,89.0 456.6,86.2 457.7,83.4 458.5,80.6 459.0,77.8 459.1,75.1 458.8,72.3 458.1,69.5 456.9,66.7 455.4,63.9 453.6,61.1 451.5,58.4 449.2,55.6 446.9,52.8 444.5,50.0 413.5,50.0 411.1,52.8 408.8,55.6 406.5,58.4 404.4,61.1 402.6,63.9 401.1,66.7 399.9,69.5 399.2,72.3 398.9,75.1 399.0,77.8 399.5,80.6 400.3,83.4 401.4,86.2 402.6,89.0 403.8,91.8 405.1,94.6 406.2,97.3 407.2,100.1 407.9,102.9 408.4,105.7 408.6,108.5 408.6,111.3 408.3,114.0 407.9,116.8 407.3,119.6 406.6,122.4 406.0,125.2 405.4,128.0 405.0,130.8 404.7,133.5 404.6,136.3 404.8,139.1 405.3,141.9 405.9,144.7 406.8,147.5 407.9,150.2 409.0,153.0 410.2,155.8 411.3,158.6 412.3,161.4 413.1,164.2 413.7,167.0 414.1,169.7 414.1,172.5 413.8,175.3 413.3,178.1 412.5,180.9 411.4,183.7 410.1,186.4 408.7,189.2 407.1,192.0 405.5,194.8 403.8,197.6 402.2,200.4 400.5,203.2 399.0,205.9 397.6,208.7 396.4,211.5 395.5,214.3 394.9,217.1 394.6,219.9 394.6,222.6 395.1,225.4 396.1,228.2 397.4,231.0 399.1,233.8 401.1,236.6 403.4,239.3 405.9,242.1 408.5,244.9 411.1,247.7" fill="#2a8" opacity="0.5" stroke="#2a8" stroke-width="1"/>
<line x1="405.3" y1="142.0559657927609" x2="452.7" y2="142.0559657927609" stroke="#114" stroke-width="2"/>
<circle cx="429.0" cy="228.17780410787265" r="2.4" fill="#114"/>
<text x="429.0" y="61.433962264150935" text-anchor="middle" font-size="11">1.83</text>
<text x="429.0" y="376" text-anchor="middle" font-size="12">zhemv</text>
<polygon points="514.9,256.8 516.2,255.5 517.7,254.1 519.5,252.7 521.6,251.4 523.9,250.0 526.5,248.6 529.3,247.3 532.1,245.9 534.9,244.6 537.6,243.2 540.1,241.8 542.2,240.5 543.8,239.1 544.9,237.8 545.4,236.4 545.3,235.0 544.6,233.7 543.4,232.3 541.7,231.0 539.6,229.6 537.3,228.2 534.8,226.9 532.3,225.5 530.0,224.2 527.8,222.8 525.9,221.4 524.3,220.1 523.0,218.7 521.9,217.4 521.2,216.0 520.7,214.6 520.4,213.3 520.1,211.9 520.0,210.6 519.8,209.2 519.6,207.8 519.4,206.5 519.1,205.1 518.7,203.7 518.3,202.4 517.9,201.0 517.4,199.7 517.1,198.3 516.8,196.9 516.6,195.6 516.6,194.2 516.7,192.9 517.1,191.5 517.7,190.1 518.4,188.8 519.4,187.4 520.5,186.1 521.7,184.7 523.0,183.3 524.2,182.0 525.4,180.6 526.4,179.3 527.2,177.9 527.7,176.5 527.9,175.2 527.8,173.8 527.4,172.5 526.7,171.1 525.7,169.7 524.5,168.4 523.1,167.0 521.7,165.7 520.2,164.3 518.8,162.9 517.4,161.6 516.2,160.2 505.8,160.2 504.6,161.6 503.2,162.9 501.8,164.3 500.3,165.7 498.9,167.0 497.5,168.4 496.3,169.7 495.3,171.1 494.6,172.5 494.2,173.8 494.1,175.2 494.3,176.5 494.8,177.9 495.6,179.3 496.6,180.6 497.8,182.0 499.0,183.3 500.3,184.7 501.5,186.1 502.6,187.4 503.6,188.8 504.3,190.1 504.9,191.5 505.3,192.9 505.4,194.2 505.4,195.6 505.2,196.9 504.9,198.3 504.6,199.7 504.1,201.0 503.7,202.4 503.3,203.7 502.9,205.1 502.6,206.5 502.4,207.8 502.2,209.2 502.0,210.6 501.9,211.9 501.6,213.3 501.3,214.6 500.8,216.0 500.1,217.4 499.0,218.7 497.7,220.1 496.1,221.4 494.2,222.8 492.0,224.2 489.7,225.5 487.2,226.9 484.7,228.2 482.4,229.6 480.3,231.0 478.6,232.3 477.4,233.7 476.7,235.0 476.6,236.4 477.1,237.8 478.2,239.1 479.8,240.5 481.9,241.8 484.4,243.2 487.1,244.6 489.9,245.9 492.7,247.3 495.5,248.6 498.1,250.0 500.4,251.4 502.5,252.7 504.3,254.1 505.8,255.5 507.1,256.8" fill="#2a8" opacity="0.5" stroke="#2a8" stroke-width="1"/>
<line x1="480.4" y1="230.8853862044139" x2="541.6" y2="230.8853862044139" stroke="#114" stroke-width="2"/>
<circle cx="511.0" cy="239.54582872826657" r="2.4" fill="#114"/>
<text x="511.0" y="163.74771099994683" text-anchor="middle" font-size="11">1.08</text>
<text x="511.0" y="376" text-anchor="middle" font-size="12">ztrmv</text>
<polygon points="600.3,256.6 602.2,255.8 604.3,254.9 606.6,254.0 609.1,253.1 611.8,252.2 614.4,251.4 617.0,250.5 619.4,249.6 621.5,248.7 623.4,247.9 624.9,247.0 626.0,246.1 626.8,245.2 627.3,244.4 627.4,243.5 627.4,242.6 627.3,241.7 627.1,240.9 626.9,240.0 626.7,239.1 626.5,238.2 626.3,237.4 626.0,236.5 625.7,235.6 625.2,234.7 624.5,233.9 623.7,233.0 622.7,232.1 621.5,231.2 620.2,230.4 618.8,229.5 617.5,228.6 616.2,227.7 615.0,226.9 614.0,226.0 613.2,225.1 612.6,224.2 612.1,223.4 611.8,222.5 611.5,221.6 611.3,220.7 611.0,219.8 610.7,219.0 610.4,218.1 610.0,217.2 609.7,216.3 609.5,215.5 609.4,214.6 609.5,213.7 609.9,212.8 610.6,212.0 611.5,211.1 612.8,210.2 614.2,209.3 615.8,208.5 617.4,207.6 618.9,206.7 620.2,205.8 621.2,205.0 621.7,204.1 621.8,203.2 621.4,202.3 620.4,201.5 619.0,200.6 617.2,199.7 615.1,198.8 612.7,198.0 610.3,197.1 607.9,196.2 605.5,195.3 603.3,194.5 582.7,194.5 580.5,195.3 578.1,196.2 575.7,197.1 573.3,198.0 570.9,198.8 568.8,199.7 567.0,200.6 565.6,201.5 564.6,202.3 564.2,203.2 564.3,204.1 564.8,205.0 565.8,205.8 567.1,206.7 568.6,207.6 570.2,208.5 571.8,209.3 573.2,210.2 574.5,211.1 575.4,212.0 576.1,212.8 576.5,213.7 576.6,214.6 576.5,215.5 576.3,216.3 576.0,217.2 575.6,218.1 575.3,219.0 575.0,219.8 574.7,220.7 574.5,221.6 574.2,222.5 573.9,223.4 573.4,224.2 572.8,225.1 572.0,226.0 571.0,226.9 569.8,227.7 568.5,228.6 567.2,229.5 565.8,230.4 564.5,231.2 563.3,232.1 562.3,233.0 561.5,233.9 560.8,234.7 560.3,235.6 560.0,236.5 559.7,237.4 559.5,238.2 559.3,239.1 559.1,240.0 558.9,240.9 558.7,241.7 558.6,242.6 558.6,243.5 558.7,244.4 559.2,245.2 560.0,246.1 561.1,247.0 562.6,247.9 564.5,248.7 566.6,249.6 569.0,250.5 571.6,251.4 574.2,252.2 576.9,253.1 579.4,254.0 581.7,254.9 583.8,255.8 585.7,256.6" fill="#d33" opacity="0.5" stroke="#d33" stroke-width="1"/>
<line x1="564.2" y1="231.48088286694414" x2="621.8" y2="231.48088286694414" stroke="#114" stroke-width="2"/>
<circle cx="593.0" cy="247.75814732171145" r="2.4" fill="#114"/>
<text x="593.0" y="194.66113289705717" text-anchor="middle" font-size="11">1.07</text>
<text x="593.0" y="376" text-anchor="middle" font-size="12">ztrsv</text>
<polygon points="678.8,261.5 679.6,260.2 680.5,258.9 681.4,257.6 682.3,256.4 683.2,255.1 684.0,253.8 684.8,252.5 685.4,251.2 685.9,249.9 686.3,248.7 686.6,247.4 686.7,246.1 686.9,244.8 686.9,243.5 686.9,242.2 686.8,241.0 686.7,239.7 686.5,238.4 686.2,237.1 685.8,235.8 685.3,234.5 684.7,233.3 684.0,232.0 683.2,230.7 682.3,229.4 681.4,228.1 680.5,226.8 679.7,225.6 678.9,224.3 678.2,223.0 677.6,221.7 677.1,220.4 676.8,219.1 676.7,217.9 676.7,216.6 676.9,215.3 677.3,214.0 678.0,212.7 678.9,211.4 680.0,210.2 681.5,208.9 683.2,207.6 685.2,206.3 687.4,205.0 689.9,203.7 692.5,202.5 695.2,201.2 697.9,199.9 700.5,198.6 702.9,197.3 705.1,196.0 706.8,194.8 708.1,193.5 709.0,192.2 709.4,190.9 709.4,189.6 708.9,188.3 708.1,187.1 706.8,185.8 705.3,184.5 703.6,183.2 701.6,181.9 699.4,180.6 697.2,179.4 694.9,178.1 692.6,176.8 690.3,175.5 688.1,174.2 686.1,172.9 684.2,171.7 682.5,170.4 667.5,170.4 665.8,171.7 663.9,172.9 661.9,174.2 659.7,175.5 657.4,176.8 655.1,178.1 652.8,179.4 650.6,180.6 648.4,181.9 646.4,183.2 644.7,184.5 643.2,185.8 641.9,187.1 641.1,188.3 640.6,189.6 640.6,190.9 641.0,192.2 641.9,193.5 643.2,194.8 644.9,196.0 647.1,197.3 649.5,198.6 652.1,199.9 654.8,201.2 657.5,202.5 660.1,203.7 662.6,205.0 664.8,206.3 666.8,207.6 668.5,208.9 670.0,210.2 671.1,211.4 672.0,212.7 672.7,214.0 673.1,215.3 673.3,216.6 673.3,217.9 673.2,219.1 672.9,220.4 672.4,221.7 671.8,223.0 671.1,224.3 670.3,225.6 669.5,226.8 668.6,228.1 667.7,229.4 666.8,230.7 666.0,232.0 665.3,233.3 664.7,234.5 664.2,235.8 663.8,237.1 663.5,238.4 663.3,239.7 663.2,241.0 663.1,242.2 663.1,243.5 663.1,244.8 663.3,246.1 663.4,247.4 663.7,248.7 664.1,249.9 664.6,251.2 665.2,252.5 666.0,253.8 666.8,255.1 667.7,256.4 668.6,257.6 669.5,258.9 670.4,260.2 671.2,261.5" fill="#d33" opacity="0.5" stroke="#d33" stroke-width="1"/>
<line x1="641.5" y1="193.0083648681761" x2="708.5" y2="193.0083648681761" stroke="#114" stroke-width="2"/>
<circle cx="675.0" cy="249.8698964301353" r="2.4" fill="#114"/>
<text x="675.0" y="173.3870318651961" text-anchor="middle" font-size="11">1.40</text>
<text x="675.0" y="376" text-anchor="middle" font-size="12">zhpmv</text>
<polygon points="757.3,221.2 757.5,220.6 757.7,220.0 758.1,219.4 758.5,218.8 759.1,218.2 760.0,217.6 761.0,217.0 762.4,216.4 764.0,215.8 766.0,215.2 768.3,214.6 770.9,214.0 773.8,213.4 776.7,212.8 779.7,212.2 782.6,211.6 785.3,211.0 787.6,210.4 789.4,209.8 790.7,209.2 791.4,208.6 791.4,208.0 790.9,207.4 789.9,206.8 788.4,206.2 786.6,205.6 784.4,205.0 782.0,204.4 779.5,203.8 776.9,203.2 774.4,202.6 772.0,202.0 769.9,201.4 768.1,200.8 766.8,200.2 765.9,199.6 765.5,199.0 765.5,198.4 765.9,197.8 766.5,197.2 767.1,196.6 767.7,196.0 768.1,195.4 768.3,194.8 768.2,194.1 767.8,193.5 767.3,192.9 766.6,192.3 765.9,191.7 765.3,191.1 764.7,190.5 764.2,189.9 763.9,189.3 763.7,188.7 763.7,188.1 763.7,187.5 763.7,186.9 763.8,186.3 763.8,185.7 763.8,185.1 763.6,184.5 763.3,183.9 762.9,183.3 762.3,182.7 761.6,182.1 760.9,181.5 760.2,180.9 759.5,180.3 758.9,179.7 758.3,179.1 757.9,178.5 756.1,178.5 755.7,179.1 755.1,179.7 754.5,180.3 753.8,180.9 753.1,181.5 752.4,182.1 751.7,182.7 751.1,183.3 750.7,183.9 750.4,184.5 750.2,185.1 750.2,185.7 750.2,186.3 750.3,186.9 750.3,187.5 750.3,188.1 750.3,188.7 750.1,189.3 749.8,189.9 749.3,190.5 748.7,191.1 748.1,191.7 747.4,192.3 746.7,192.9 746.2,193.5 745.8,194.1 745.7,194.8 745.9,195.4 746.3,196.0 746.9,196.6 747.5,197.2 748.1,197.8 748.5,198.4 748.5,199.0 748.1,199.6 747.2,200.2 745.9,200.8 744.1,201.4 742.0,202.0 739.6,202.6 737.1,203.2 734.5,203.8 732.0,204.4 729.6,205.0 727.4,205.6 725.6,206.2 724.1,206.8 723.1,207.4 722.6,208.0 722.6,208.6 723.3,209.2 724.6,209.8 726.4,210.4 728.7,211.0 731.4,211.6 734.3,212.2 737.3,212.8 740.2,213.4 743.1,214.0 745.7,214.6 748.0,215.2 750.0,215.8 751.6,216.4 753.0,217.0 754.0,217.6 754.9,218.2 755.5,218.8 755.9,219.4 756.3,220.0 756.5,220.6 756.7,221.2" fill="#2a8" opacity="0.5" stroke="#2a8" stroke-width="1"/>
<line x1="725.3" y1="206.23296789174717" x2="788.7" y2="206.23296789174717" stroke="#114" stroke-width="2"/>
<circle cx="757.0" cy="211.7366533015313" r="2.4" fill="#114"/>
<text x="757.0" y="176.8573629000899" text-anchor="middle" font-size="11">1.29</text>
<text x="757.0" y="376" text-anchor="middle" font-size="12">zgbmvN</text>
<polygon points="839.0,234.2 839.0,234.0 839.1,233.8 839.1,233.6 839.2,233.5 839.3,233.3 839.3,233.1 839.4,232.9 839.5,232.8 839.6,232.6 839.8,232.4 839.9,232.2 840.2,232.1 840.6,231.9 841.3,231.7 842.3,231.5 844.0,231.3 846.3,231.2 849.5,231.0 853.4,230.8 857.9,230.6 862.7,230.5 867.1,230.3 870.6,230.1 872.8,229.9 873.4,229.8 872.5,229.6 870.2,229.4 867.2,229.2 863.9,229.1 860.7,228.9 858.0,228.7 855.8,228.5 854.1,228.4 852.8,228.2 851.5,228.0 850.2,227.8 848.9,227.6 847.4,227.5 846.0,227.3 844.5,227.1 843.3,226.9 842.3,226.8 841.5,226.6 841.0,226.4 840.8,226.2 840.7,226.1 840.9,225.9 841.2,225.7 841.7,225.5 842.3,225.4 842.9,225.2 843.6,225.0 844.1,224.8 844.6,224.7 844.8,224.5 844.8,224.3 844.7,224.1 844.4,223.9 844.0,223.8 843.6,223.6 843.0,223.4 842.4,223.2 841.8,223.1 841.2,222.9 840.7,222.7 840.2,222.5 839.8,222.4 839.5,222.2 839.3,222.0 839.2,221.8 839.1,221.7 838.9,221.7 838.8,221.8 838.7,222.0 838.5,222.2 838.2,222.4 837.8,222.5 837.3,222.7 836.8,222.9 836.2,223.1 835.6,223.2 835.0,223.4 834.4,223.6 834.0,223.8 833.6,223.9 833.3,224.1 833.2,224.3 833.2,224.5 833.4,224.7 833.9,224.8 834.4,225.0 835.1,225.2 835.7,225.4 836.3,225.5 836.8,225.7 837.1,225.9 837.3,226.1 837.2,226.2 837.0,226.4 836.5,226.6 835.7,226.8 834.7,226.9 833.5,227.1 832.0,227.3 830.6,227.5 829.1,227.6 827.8,227.8 826.5,228.0 825.2,228.2 823.9,228.4 822.2,228.5 820.0,228.7 817.3,228.9 814.1,229.1 810.8,229.2 807.8,229.4 805.5,229.6 804.6,229.8 805.2,229.9 807.4,230.1 810.9,230.3 815.3,230.5 820.1,230.6 824.6,230.8 828.5,231.0 831.7,231.2 834.0,231.3 835.7,231.5 836.7,231.7 837.4,231.9 837.8,232.1 838.1,232.2 838.2,232.4 838.4,232.6 838.5,232.8 838.6,232.9 838.7,233.1 838.7,233.3 838.8,233.5 838.9,233.6 838.9,233.8 839.0,234.0 839.0,234.2" fill="#2a8" opacity="0.5" stroke="#2a8" stroke-width="1"/>
<line x1="805.2" y1="229.6290868093262" x2="872.8" y2="229.6290868093262" stroke="#114" stroke-width="2"/>
<circle cx="839.0" cy="230.0551492141697" r="2.4" fill="#114"/>
<text x="839.0" y="217.05956342053966" text-anchor="middle" font-size="11">1.09</text>
<text x="839.0" y="376" text-anchor="middle" font-size="12">zhbmv</text>
<text x="450.0" y="428" text-anchor="middle" font-size="11" fill="#666">violin = ratio distribution over sizes · line = median · dark dot = worst size · green = every size ≥ gate</text>
</svg>
