<svg xmlns="http://www.w3.org/2000/svg" width="962" height="420" font-family="sans-serif">
<rect width="962" height="420" fill="white"/>
<text x="481.0" y="26" text-anchor="middle" font-size="17" font-weight="bold">Complex BLAS-1 — PureBLAS / AOCL (PB/AOCL ratio)</text>
<line x1="46" y1="42" x2="68" y2="42" stroke="#888888" stroke-width="3"/>
<text x="73" y="46" font-size="12">AVX2</text>
<line x1="127" y1="42" x2="149" y2="42" stroke="#888888" stroke-width="3"/>
<text x="154" y="46" font-size="12">Zen5</text>
<line x1="208" y1="42" x2="230" y2="42" stroke="#888888" stroke-width="3"/>
<text x="235" y="46" font-size="12">AVX-512</text>
<rect x="46" y="60" width="210" height="138" fill="none" stroke="#e2e2e2"/>
<line x1="46" y1="124.06970095340145" x2="256" y2="124.06970095340145" stroke="#d33" stroke-dasharray="4 3"/>
<text x="42" y="201.0" text-anchor="end" font-size="9" fill="#999">0.5×</text>
<text x="42" y="127.06970095340145" text-anchor="end" font-size="9" fill="#999">1.0×</text>
<text x="42" y="63.1984729557023" text-anchor="end" font-size="9" fill="#999">1.82×</text>
<polygon points="46.0,68.2 46.0,68.8" fill="#888888" opacity="0.11"/>
<polyline points="46.0,68.5" fill="none" stroke="#888888" stroke-width="1.6"/>
<circle cx="46.0" cy="68.5" r="2" fill="#888888"/>
<polygon points="46.0,108.3 46.0,109.4" fill="#888888" opacity="0.11"/>
<polyline points="46.0,108.9" fill="none" stroke="#888888" stroke-width="1.6"/>
<circle cx="46.0" cy="108.9" r="2" fill="#888888"/>
<polygon points="46.0,113.6 46.0,118.6" fill="#888888" opacity="0.11"/>
<polyline points="46.0,116.2" fill="none" stroke="#888888" stroke-width="1.6"/>
<circle cx="46.0" cy="116.2" r="2" fill="#888888"/>
<text x="151.0" y="55" text-anchor="middle" font-size="12" font-weight="bold">zaxpy</text>
<line x1="46.0" y1="60" x2="46.0" y2="198" stroke="#f4f4f4"/>
<text x="46.0" y="209" text-anchor="middle" font-size="8" fill="#999">1000</text>
<rect x="276" y="60" width="210" height="138" fill="none" stroke="#e2e2e2"/>
<line x1="276" y1="115.76276119065531" x2="486" y2="115.76276119065531" stroke="#d33" stroke-dasharray="4 3"/>
<text x="272" y="201.0" text-anchor="end" font-size="9" fill="#999">0.5×</text>
<text x="272" y="118.76276119065531" text-anchor="end" font-size="9" fill="#999">1.0×</text>
<text x="272" y="63.0" text-anchor="end" font-size="9" fill="#999">1.6×</text>
<polygon points="276.0,81.4 276.0,83.2" fill="#888888" opacity="0.11"/>
<polyline points="276.0,83.1" fill="none" stroke="#888888" stroke-width="1.6"/>
<circle cx="276.0" cy="83.1" r="2" fill="#888888"/>
<polygon points="276.0,109.8 276.0,110.2" fill="#888888" opacity="0.11"/>
<polyline points="276.0,110.0" fill="none" stroke="#888888" stroke-width="1.6"/>
<circle cx="276.0" cy="110.0" r="2" fill="#888888"/>
<polygon points="276.0,113.3 276.0,114.8" fill="#888888" opacity="0.11"/>
<polyline points="276.0,113.9" fill="none" stroke="#888888" stroke-width="1.6"/>
<circle cx="276.0" cy="113.9" r="2" fill="#888888"/>
<text x="381.0" y="55" text-anchor="middle" font-size="12" font-weight="bold">zdotc</text>
<line x1="276.0" y1="60" x2="276.0" y2="198" stroke="#f4f4f4"/>
<text x="276.0" y="209" text-anchor="middle" font-size="8" fill="#999">1000</text>
<rect x="506" y="60" width="210" height="138" fill="none" stroke="#e2e2e2"/>
<line x1="506" y1="142.2851122447688" x2="716" y2="142.2851122447688" stroke="#d33" stroke-dasharray="4 3"/>
<text x="502" y="201.0" text-anchor="end" font-size="9" fill="#999">0.5×</text>
<text x="502" y="145.2851122447688" text-anchor="end" font-size="9" fill="#999">1.0×</text>
<text x="502" y="63.10092356183904" text-anchor="end" font-size="9" fill="#999">2.78×</text>
<polygon points="506.0,66.2 506.0,67.4" fill="#888888" opacity="0.11"/>
<polyline points="506.0,67.0" fill="none" stroke="#888888" stroke-width="1.6"/>
<circle cx="506.0" cy="67.0" r="2" fill="#888888"/>
<polygon points="506.0,89.7 506.0,91.9" fill="#888888" opacity="0.11"/>
<polyline points="506.0,90.9" fill="none" stroke="#888888" stroke-width="1.6"/>
<circle cx="506.0" cy="90.9" r="2" fill="#888888"/>
<polygon points="506.0,134.0 506.0,134.4" fill="#888888" opacity="0.11"/>
<polyline points="506.0,134.1" fill="none" stroke="#888888" stroke-width="1.6"/>
<circle cx="506.0" cy="134.1" r="2" fill="#888888"/>
<text x="611.0" y="55" text-anchor="middle" font-size="12" font-weight="bold">zscal</text>
<line x1="506.0" y1="60" x2="506.0" y2="198" stroke="#f4f4f4"/>
<text x="506.0" y="209" text-anchor="middle" font-size="8" fill="#999">1000</text>
<rect x="736" y="60" width="210" height="138" fill="none" stroke="#e2e2e2"/>
<line x1="736" y1="157.85528944407244" x2="946" y2="157.85528944407244" stroke="#d33" stroke-dasharray="4 3"/>
<text x="732" y="201.0" text-anchor="end" font-size="9" fill="#999">0.5×</text>
<text x="732" y="160.85528944407244" text-anchor="end" font-size="9" fill="#999">1.0×</text>
<polygon points="736.0,96.7 736.0,96.8" fill="#888888" opacity="0.11"/>
<polyline points="736.0,96.7" fill="none" stroke="#888888" stroke-width="1.6"/>
<circle cx="736.0" cy="96.7" r="2" fill="#888888"/>
<polygon points="736.0,64.5 736.0,68.2" fill="#888888" opacity="0.11"/>
<polyline points="736.0,65.3" fill="none" stroke="#888888" stroke-width="1.6"/>
<circle cx="736.0" cy="65.3" r="2" fill="#888888"/>
<polygon points="736.0,70.3 736.0,71.8" fill="#888888" opacity="0.11"/>
<polyline points="736.0,70.9" fill="none" stroke="#888888" stroke-width="1.6"/>
<circle cx="736.0" cy="70.9" r="2" fill="#888888"/>
<text x="841.0" y="55" text-anchor="middle" font-size="12" font-weight="bold">dznrm2</text>
<line x1="736.0" y1="60" x2="736.0" y2="198" stroke="#f4f4f4"/>
<text x="736.0" y="209" text-anchor="middle" font-size="8" fill="#999">1000</text>
<rect x="46" y="232" width="210" height="138" fill="none" stroke="#e2e2e2"/>
<line x1="46" y1="345.48670883177937" x2="256" y2="345.48670883177937" stroke="#d33" stroke-dasharray="4 3"/>
<text x="42" y="373.0" text-anchor="end" font-size="9" fill="#999">0.5×</text>
<text x="42" y="348.48670883177937" text-anchor="end" font-size="9" fill="#999">1.0×</text>
<text x="42" y="235.0059420822382" text-anchor="end" font-size="9" fill="#999">24.75×</text>
<polygon points="46.0,248.2 46.0,248.4" fill="#888888" opacity="0.11"/>
<polyline points="46.0,248.3" fill="none" stroke="#888888" stroke-width="1.6"/>
<circle cx="46.0" cy="248.3" r="2" fill="#888888"/>
<polygon points="46.0,234.7 46.0,235.2" fill="#888888" opacity="0.11"/>
<polyline points="46.0,234.8" fill="none" stroke="#888888" stroke-width="1.6"/>
<circle cx="46.0" cy="234.8" r="2" fill="#888888"/>
<polygon points="46.0,240.2 46.0,240.5" fill="#888888" opacity="0.11"/>
<polyline points="46.0,240.4" fill="none" stroke="#888888" stroke-width="1.6"/>
<circle cx="46.0" cy="240.4" r="2" fill="#888888"/>
<text x="151.0" y="227" text-anchor="middle" font-size="12" font-weight="bold">dzasum</text>
<line x1="46.0" y1="232" x2="46.0" y2="370" stroke="#f4f4f4"/>
<text x="46.0" y="381" text-anchor="middle" font-size="8" fill="#999">1000</text>
<rect x="276" y="232" width="210" height="138" fill="none" stroke="#e2e2e2"/>
<line x1="276" y1="287.7627611906553" x2="486" y2="287.7627611906553" stroke="#d33" stroke-dasharray="4 3"/>
<text x="272" y="373.0" text-anchor="end" font-size="9" fill="#999">0.5×</text>
<text x="272" y="290.7627611906553" text-anchor="end" font-size="9" fill="#999">1.0×</text>
<text x="272" y="235.0" text-anchor="end" font-size="9" fill="#999">1.6×</text>
<polygon points="276.0,253.9 276.0,254.7" fill="#888888" opacity="0.11"/>
<polyline points="276.0,254.4" fill="none" stroke="#888888" stroke-width="1.6"/>
<circle cx="276.0" cy="254.4" r="2" fill="#888888"/>
<polygon points="276.0,281.7 276.0,282.2" fill="#888888" opacity="0.11"/>
<polyline points="276.0,282.0" fill="none" stroke="#888888" stroke-width="1.6"/>
<circle cx="276.0" cy="282.0" r="2" fill="#888888"/>
<polygon points="276.0,284.0 276.0,286.2" fill="#888888" opacity="0.11"/>
<polyline points="276.0,284.6" fill="none" stroke="#888888" stroke-width="1.6"/>
<circle cx="276.0" cy="284.6" r="2" fill="#888888"/>
<text x="381.0" y="227" text-anchor="middle" font-size="12" font-weight="bold">zdotu</text>
<line x1="276.0" y1="232" x2="276.0" y2="370" stroke="#f4f4f4"/>
<text x="276.0" y="381" text-anchor="middle" font-size="8" fill="#999">1000</text>
<rect x="506" y="232" width="210" height="138" fill="none" stroke="#e2e2e2"/>
<line x1="506" y1="338.54170428905945" x2="716" y2="338.54170428905945" stroke="#d33" stroke-dasharray="4 3"/>
<text x="502" y="373.0" text-anchor="end" font-size="9" fill="#999">0.5×</text>
<text x="502" y="341.54170428905945" text-anchor="end" font-size="9" fill="#999">1.0×</text>
<polygon points="506.0,263.9 506.0,264.8" fill="#888888" opacity="0.11"/>
<polyline points="506.0,264.4" fill="none" stroke="#888888" stroke-width="1.6"/>
<circle cx="506.0" cy="264.4" r="2" fill="#888888"/>
<polygon points="506.0,235.5 506.0,236.7" fill="#888888" opacity="0.11"/>
<polyline points="506.0,235.8" fill="none" stroke="#888888" stroke-width="1.6"/>
<circle cx="506.0" cy="235.8" r="2" fill="#888888"/>
<polygon points="506.0,244.2 506.0,245.9" fill="#888888" opacity="0.11"/>
<polyline points="506.0,245.1" fill="none" stroke="#888888" stroke-width="1.6"/>
<circle cx="506.0" cy="245.1" r="2" fill="#888888"/>
<text x="611.0" y="227" text-anchor="middle" font-size="12" font-weight="bold">izamax</text>
<line x1="506.0" y1="232" x2="506.0" y2="370" stroke="#f4f4f4"/>
<text x="506.0" y="381" text-anchor="middle" font-size="8" fill="#999">1000</text>
</svg>
