<svg xmlns="http://www.w3.org/2000/svg" width="900" height="440" font-family="sans-serif">
<rect width="900" height="440" fill="white"/>
<text x="450.0" y="28" text-anchor="middle" font-size="18" font-weight="bold">Complex BLAS-2: PureBLAS / OpenBLAS (AVX-512, 1 thread, ComplexF64)</text>
<line x1="60" y1="358.0" x2="880" y2="358.0" stroke="#eee"/>
<text x="52" y="362.0" text-anchor="end" font-size="11" fill="#666">0×</text>
<line x1="60" y1="293.24158017915676" x2="880" y2="293.24158017915676" stroke="#eee"/>
<text x="52" y="297.24158017915676" text-anchor="end" font-size="11" fill="#666">0.5×</text>
<line x1="60" y1="228.48316035831348" x2="880" y2="228.48316035831348" stroke="#eee"/>
<text x="52" y="232.48316035831348" text-anchor="end" font-size="11" fill="#666">1×</text>
<line x1="60" y1="163.7247405374702" x2="880" y2="163.7247405374702" stroke="#eee"/>
<text x="52" y="167.7247405374702" text-anchor="end" font-size="11" fill="#666">1.5×</text>
<line x1="60" y1="228.48316035831348" x2="880" y2="228.48316035831348" stroke="#888" stroke-width="1"/>
<line x1="60" y1="233.66383394398093" x2="880" y2="233.66383394398093" stroke="#d33" stroke-width="1.5" stroke-dasharray="6 4"/>
<text x="880" y="228.66383394398093" text-anchor="end" font-size="11" fill="#d33">0.96× gate</text>
<polygon points="128.6,262.2 128.7,261.2 128.9,260.2 129.0,259.2 129.2,258.2 129.4,257.2 129.6,256.1 129.9,255.1 130.2,254.1 130.6,253.1 131.2,252.1 132.0,251.1 133.0,250.0 134.3,249.0 135.8,248.0 137.7,247.0 139.9,246.0 142.4,244.9 145.3,243.9 148.3,242.9 151.6,241.9 155.2,240.9 158.8,239.9 162.6,238.8 166.4,237.8 170.1,236.8 173.6,235.8 176.9,234.8 179.7,233.8 182.1,232.7 183.9,231.7 185.1,230.7 185.7,229.7 185.7,228.7 185.0,227.7 183.5,226.6 181.3,225.6 178.4,224.6 174.7,223.6 170.4,222.6 165.6,221.6 160.5,220.5 155.4,219.5 150.6,218.5 146.2,217.5 142.4,216.5 139.3,215.5 137.0,214.4 135.4,213.4 134.6,212.4 134.4,211.4 134.9,210.4 135.7,209.4 136.9,208.3 138.3,207.3 139.7,206.3 140.9,205.3 141.9,204.3 142.5,203.3 142.6,202.2 142.2,201.2 141.4,200.2 140.3,199.2 138.9,198.2 137.3,197.2 135.8,196.1 134.2,195.1 132.9,194.1 131.7,193.1 130.7,192.1 130.0,191.1 129.4,190.0 127.2,190.0 126.7,191.1 125.9,192.1 125.0,193.1 123.8,194.1 122.4,195.1 120.9,196.1 119.3,197.2 117.8,198.2 116.4,199.2 115.2,200.2 114.4,201.2 114.1,202.2 114.2,203.3 114.8,204.3 115.8,205.3 117.0,206.3 118.4,207.3 119.8,208.3 121.0,209.4 121.8,210.4 122.2,211.4 122.1,212.4 121.2,213.4 119.7,214.4 117.4,215.5 114.3,216.5 110.5,217.5 106.1,218.5 101.2,219.5 96.2,220.5 91.1,221.6 86.3,222.6 82.0,223.6 78.3,224.6 75.3,225.6 73.1,226.6 71.7,227.7 71.0,228.7 70.9,229.7 71.5,230.7 72.8,231.7 74.6,232.7 76.9,233.8 79.8,234.8 83.0,235.8 86.6,236.8 90.3,237.8 94.1,238.8 97.8,239.9 101.5,240.9 105.0,241.9 108.3,242.9 111.4,243.9 114.2,244.9 116.7,246.0 118.9,247.0 120.8,248.0 122.4,249.0 123.7,250.0 124.7,251.1 125.4,252.1 126.0,253.1 126.5,254.1 126.8,255.1 127.1,256.1 127.3,257.2 127.5,258.2 127.7,259.2 127.8,260.2 127.9,261.2 128.1,262.2" fill="#d33" opacity="0.5" stroke="#d33" stroke-width="1"/>
<line x1="71.1" y1="228.36081453573178" x2="185.5" y2="228.36081453573178" stroke="#114" stroke-width="2"/>
<circle cx="128.33333333333331" cy="237.11321067270583" r="2.4" fill="#114"/>
<text x="128.33333333333331" y="191.23191537893965" text-anchor="middle" font-size="11">1.00</text>
<text x="128.33333333333331" y="376" text-anchor="middle" font-size="12">zgemvN</text>
<polygon points="267.7,252.1 268.5,251.1 269.4,250.0 270.5,249.0 271.8,247.9 273.3,246.8 274.9,245.8 276.7,244.7 278.7,243.7 280.8,242.6 283.1,241.5 285.5,240.5 287.9,239.4 290.4,238.4 292.9,237.3 295.5,236.2 298.1,235.2 300.7,234.1 303.3,233.1 305.8,232.0 308.4,230.9 310.9,229.9 313.3,228.8 315.5,227.7 317.6,226.7 319.4,225.6 320.8,224.6 321.8,223.5 322.4,222.4 322.4,221.4 321.9,220.3 320.9,219.3 319.4,218.2 317.5,217.1 315.1,216.1 312.5,215.0 309.7,214.0 306.8,212.9 303.9,211.8 301.0,210.8 298.2,209.7 295.7,208.7 293.4,207.6 291.4,206.5 289.8,205.5 288.6,204.4 287.8,203.4 287.4,202.3 287.5,201.2 288.1,200.2 289.1,199.1 290.4,198.1 291.9,197.0 293.7,195.9 295.5,194.9 297.2,193.8 298.8,192.7 300.0,191.7 300.8,190.6 301.0,189.6 300.7,188.5 299.8,187.4 298.3,186.4 296.3,185.3 293.9,184.3 291.2,183.2 288.3,182.1 285.2,181.1 282.3,180.0 279.4,179.0 276.8,177.9 274.5,176.8 255.5,176.8 253.2,177.9 250.6,179.0 247.7,180.0 244.8,181.1 241.7,182.1 238.8,183.2 236.1,184.3 233.7,185.3 231.7,186.4 230.2,187.4 229.3,188.5 229.0,189.6 229.2,190.6 230.0,191.7 231.2,192.7 232.8,193.8 234.5,194.9 236.3,195.9 238.1,197.0 239.6,198.1 240.9,199.1 241.9,200.2 242.5,201.2 242.6,202.3 242.2,203.4 241.4,204.4 240.2,205.5 238.6,206.5 236.6,207.6 234.3,208.7 231.8,209.7 229.0,210.8 226.1,211.8 223.2,212.9 220.3,214.0 217.5,215.0 214.9,216.1 212.5,217.1 210.6,218.2 209.1,219.3 208.1,220.3 207.6,221.4 207.6,222.4 208.2,223.5 209.2,224.6 210.6,225.6 212.4,226.7 214.5,227.7 216.7,228.8 219.1,229.9 221.6,230.9 224.2,232.0 226.7,233.1 229.3,234.1 231.9,235.2 234.5,236.2 237.1,237.3 239.6,238.4 242.1,239.4 244.5,240.5 246.9,241.5 249.2,242.6 251.3,243.7 253.3,244.7 255.1,245.8 256.7,246.8 258.2,247.9 259.5,249.0 260.6,250.0 261.5,251.1 262.3,252.1" fill="#d33" opacity="0.5" stroke="#d33" stroke-width="1"/>
<line x1="210.6" y1="218.18191265102897" x2="319.4" y2="218.18191265102897" stroke="#114" stroke-width="2"/>
<circle cx="265.0" cy="235.70404039761732" r="2.4" fill="#114"/>
<text x="265.0" y="178.33518362313603" text-anchor="middle" font-size="11">1.08</text>
<text x="265.0" y="376" text-anchor="middle" font-size="12">zgemvC</text>
<polygon points="401.8,263.3 401.9,261.7 402.0,260.2 402.1,258.6 402.3,257.1 402.4,255.5 402.5,254.0 402.6,252.4 402.6,250.9 402.6,249.3 402.6,247.8 402.7,246.2 403.0,244.7 403.3,243.1 403.8,241.6 404.4,240.0 405.1,238.5 405.9,236.9 406.9,235.4 408.0,233.9 409.4,232.3 411.1,230.8 413.2,229.2 415.6,227.7 418.5,226.1 421.7,224.6 425.2,223.0 429.0,221.5 433.3,219.9 438.0,218.4 443.0,216.8 448.1,215.3 452.9,213.7 456.6,212.2 458.8,210.6 459.1,209.1 457.3,207.5 453.7,206.0 448.8,204.4 443.2,202.9 437.4,201.3 431.9,199.8 427.1,198.3 423.1,196.7 420.0,195.2 417.7,193.6 416.2,192.1 415.3,190.5 414.8,189.0 414.5,187.4 414.3,185.9 414.1,184.3 413.6,182.8 412.9,181.2 412.0,179.7 410.9,178.1 409.7,176.6 408.5,175.0 407.3,173.5 406.3,171.9 405.5,170.4 404.8,168.8 404.2,167.3 403.7,165.7 403.3,164.2 403.0,162.7 402.7,161.1 402.4,159.6 402.2,158.0 402.0,156.5 401.9,154.9 401.8,153.4 401.5,153.4 401.4,154.9 401.3,156.5 401.1,158.0 400.9,159.6 400.7,161.1 400.3,162.7 400.0,164.2 399.6,165.7 399.1,167.3 398.6,168.8 397.9,170.4 397.0,171.9 396.0,173.5 394.9,175.0 393.7,176.6 392.4,178.1 391.3,179.7 390.4,181.2 389.7,182.8 389.3,184.3 389.0,185.9 388.8,187.4 388.6,189.0 388.1,190.5 387.1,192.1 385.6,193.6 383.4,195.2 380.2,196.7 376.2,198.3 371.4,199.8 365.9,201.3 360.1,202.9 354.5,204.4 349.6,206.0 346.0,207.5 344.3,209.1 344.5,210.6 346.7,212.2 350.5,213.7 355.2,215.3 360.3,216.8 365.4,218.4 370.1,219.9 374.3,221.5 378.2,223.0 381.7,224.6 384.9,226.1 387.7,227.7 390.2,229.2 392.3,230.8 394.0,232.3 395.3,233.9 396.5,235.4 397.4,236.9 398.2,238.5 398.9,240.0 399.5,241.6 400.0,243.1 400.4,244.7 400.6,246.2 400.7,247.8 400.7,249.3 400.8,250.9 400.8,252.4 400.8,254.0 400.9,255.5 401.1,257.1 401.2,258.6 401.4,260.2 401.5,261.7 401.5,263.3" fill="#2a8" opacity="0.5" stroke="#2a8" stroke-width="1"/>
<line x1="344.1" y1="209.5539895984175" x2="459.2" y2="209.5539895984175" stroke="#114" stroke-width="2"/>
<circle cx="401.66666666666663" cy="221.81294034222225" r="2.4" fill="#114"/>
<text x="401.66666666666663" y="158.20860419496978" text-anchor="middle" font-size="11">1.15</text>
<text x="401.66666666666663" y="376" text-anchor="middle" font-size="12">zgeru</text>
<polygon points="560.7,255.1 564.8,252.2 569.1,249.3 573.5,246.4 577.8,243.5 582.0,240.6 585.8,237.7 589.1,234.8 591.8,232.0 593.9,229.1 595.2,226.2 595.7,223.3 595.6,220.4 594.7,217.5 593.3,214.6 591.5,211.7 589.3,208.9 587.0,206.0 584.6,203.1 582.3,200.2 580.1,197.3 578.2,194.4 576.6,191.5 575.4,188.6 574.6,185.7 574.1,182.9 573.9,180.0 574.0,177.1 574.5,174.2 575.1,171.3 575.9,168.4 576.8,165.5 577.7,162.6 578.6,159.8 579.5,156.9 580.3,154.0 581.0,151.1 581.6,148.2 582.0,145.3 582.4,142.4 582.8,139.5 583.1,136.6 583.4,133.8 583.7,130.9 584.0,128.0 584.4,125.1 584.9,122.2 585.3,119.3 585.7,116.4 586.0,113.5 586.1,110.7 586.0,107.8 585.6,104.9 584.9,102.0 583.8,99.1 582.4,96.2 580.6,93.3 578.4,90.4 576.0,87.5 573.3,84.7 570.4,81.8 567.4,78.9 564.3,76.0 561.3,73.1 558.4,70.2 555.7,67.3 553.1,64.4 550.8,61.6 548.7,58.7 546.8,55.8 545.2,52.9 543.8,50.0 532.8,50.0 531.5,52.9 529.9,55.8 528.0,58.7 525.9,61.6 523.6,64.4 521.0,67.3 518.3,70.2 515.3,73.1 512.3,76.0 509.3,78.9 506.3,81.8 503.4,84.7 500.7,87.5 498.2,90.4 496.1,93.3 494.3,96.2 492.8,99.1 491.8,102.0 491.1,104.9 490.7,107.8 490.6,110.7 490.7,113.5 491.0,116.4 491.4,119.3 491.8,122.2 492.2,125.1 492.6,128.0 493.0,130.9 493.3,133.8 493.6,136.6 493.9,139.5 494.2,142.4 494.6,145.3 495.1,148.2 495.7,151.1 496.4,154.0 497.2,156.9 498.0,159.8 499.0,162.6 499.9,165.5 500.8,168.4 501.6,171.3 502.2,174.2 502.6,177.1 502.8,180.0 502.6,182.9 502.1,185.7 501.2,188.6 500.0,191.5 498.4,194.4 496.5,197.3 494.4,200.2 492.1,203.1 489.7,206.0 487.3,208.9 485.2,211.7 483.3,214.6 481.9,217.5 481.1,220.4 480.9,223.3 481.5,226.2 482.8,229.1 484.8,232.0 487.6,234.8 490.9,237.7 494.7,240.6 498.9,243.5 503.2,246.4 507.6,249.3 511.9,252.2 515.9,255.1" fill="#2a8" opacity="0.5" stroke="#2a8" stroke-width="1"/>
<line x1="497.7" y1="158.83365439326536" x2="578.9" y2="158.83365439326536" stroke="#114" stroke-width="2"/>
<circle cx="538.3333333333333" cy="231.0749039153509" r="2.4" fill="#114"/>
<text x="538.3333333333333" y="61.433962264150935" text-anchor="middle" font-size="11">1.54</text>
<text x="538.3333333333333" y="376" text-anchor="middle" font-size="12">zhemv</text>
<polygon points="675.7,280.8 676.0,278.1 676.5,275.4 677.1,272.6 677.9,269.9 679.0,267.2 680.5,264.4 682.4,261.7 684.9,258.9 688.0,256.2 691.7,253.5 696.0,250.7 700.8,248.0 705.9,245.2 711.1,242.5 716.1,239.8 720.7,237.0 724.5,234.3 727.5,231.5 729.6,228.8 731.0,226.1 731.8,223.3 732.2,220.6 732.4,217.9 732.4,215.1 732.3,212.4 732.0,209.6 731.4,206.9 730.3,204.2 728.7,201.4 726.5,198.7 723.8,195.9 720.6,193.2 717.1,190.5 713.7,187.7 710.3,185.0 707.3,182.3 704.7,179.5 702.4,176.8 700.7,174.0 699.2,171.3 698.2,168.6 697.3,165.8 696.7,163.1 696.3,160.3 696.1,157.6 696.0,154.9 695.9,152.1 695.9,149.4 695.9,146.7 695.7,143.9 695.3,141.2 694.7,138.4 693.7,135.7 692.5,133.0 691.0,130.2 689.4,127.5 687.7,124.7 686.0,122.0 684.3,119.3 682.8,116.5 681.5,113.8 680.3,111.1 679.3,108.3 678.4,105.6 677.7,102.8 677.1,100.1 676.7,97.4 676.3,94.6 676.0,91.9 675.7,89.1 675.5,86.4 674.5,86.4 674.3,89.1 674.0,91.9 673.7,94.6 673.3,97.4 672.9,100.1 672.3,102.8 671.6,105.6 670.7,108.3 669.7,111.1 668.5,113.8 667.2,116.5 665.7,119.3 664.0,122.0 662.3,124.7 660.6,127.5 659.0,130.2 657.5,133.0 656.3,135.7 655.3,138.4 654.7,141.2 654.3,143.9 654.1,146.7 654.1,149.4 654.1,152.1 654.0,154.9 653.9,157.6 653.7,160.3 653.3,163.1 652.7,165.8 651.8,168.6 650.8,171.3 649.3,174.0 647.6,176.8 645.3,179.5 642.7,182.3 639.7,185.0 636.3,187.7 632.9,190.5 629.4,193.2 626.2,195.9 623.5,198.7 621.3,201.4 619.7,204.2 618.6,206.9 618.0,209.6 617.7,212.4 617.6,215.1 617.6,217.9 617.8,220.6 618.2,223.3 619.0,226.1 620.4,228.8 622.5,231.5 625.5,234.3 629.3,237.0 633.9,239.8 638.9,242.5 644.1,245.2 649.2,248.0 654.0,250.7 658.3,253.5 662.0,256.2 665.1,258.9 667.6,261.7 669.5,264.4 671.0,267.2 672.1,269.9 672.9,272.6 673.5,275.4 674.0,278.1 674.3,280.8" fill="#2a8" opacity="0.5" stroke="#2a8" stroke-width="1"/>
<line x1="619.7" y1="203.98837444109583" x2="730.3" y2="203.98837444109583" stroke="#114" stroke-width="2"/>
<circle cx="675.0" cy="233.63147977500543" r="2.4" fill="#114"/>
<text x="675.0" y="99.43095195358029" text-anchor="middle" font-size="11">1.19</text>
<text x="675.0" y="376" text-anchor="middle" font-size="12">ztrmv</text>
<polygon points="812.5,274.7 812.8,272.9 813.3,271.1 813.7,269.3 814.3,267.5 814.9,265.8 815.5,264.0 816.1,262.2 816.7,260.4 817.4,258.6 818.2,256.9 819.1,255.1 820.2,253.3 821.6,251.5 823.4,249.7 825.6,248.0 828.3,246.2 831.3,244.4 834.6,242.6 838.0,240.8 841.3,239.1 844.3,237.3 846.7,235.5 848.5,233.7 849.7,231.9 850.2,230.1 850.2,228.4 849.9,226.6 849.5,224.8 849.1,223.0 849.0,221.2 849.3,219.5 849.9,217.7 851.1,215.9 852.7,214.1 854.7,212.3 857.0,210.6 859.4,208.8 861.8,207.0 864.1,205.2 866.1,203.4 867.7,201.7 868.7,199.9 869.1,198.1 868.8,196.3 867.8,194.5 866.1,192.8 863.9,191.0 861.2,189.2 857.9,187.4 854.3,185.6 850.5,183.8 846.4,182.1 842.3,180.3 838.2,178.5 834.3,176.7 830.8,174.9 827.6,173.2 824.9,171.4 822.6,169.6 820.7,167.8 819.2,166.0 818.0,164.3 817.0,162.5 816.1,160.7 815.4,158.9 814.7,157.1 814.1,155.4 813.6,153.6 813.1,151.8 812.7,150.0 812.4,148.2 810.9,148.2 810.6,150.0 810.2,151.8 809.8,153.6 809.2,155.4 808.6,157.1 808.0,158.9 807.2,160.7 806.4,162.5 805.4,164.3 804.1,166.0 802.6,167.8 800.8,169.6 798.5,171.4 795.7,173.2 792.6,174.9 789.0,176.7 785.1,178.5 781.1,180.3 776.9,182.1 772.9,183.8 769.0,185.6 765.4,187.4 762.2,189.2 759.4,191.0 757.2,192.8 755.6,194.5 754.6,196.3 754.3,198.1 754.6,199.9 755.6,201.7 757.2,203.4 759.2,205.2 761.5,207.0 763.9,208.8 766.4,210.6 768.6,212.3 770.6,214.1 772.2,215.9 773.4,217.7 774.1,219.5 774.3,221.2 774.2,223.0 773.8,224.8 773.4,226.6 773.1,228.4 773.1,230.1 773.6,231.9 774.8,233.7 776.6,235.5 779.1,237.3 782.0,239.1 785.3,240.8 788.7,242.6 792.0,244.4 795.0,246.2 797.7,248.0 799.9,249.7 801.7,251.5 803.1,253.3 804.3,255.1 805.1,256.9 805.9,258.6 806.6,260.4 807.2,262.2 807.9,264.0 808.5,265.8 809.1,267.5 809.6,269.3 810.1,271.1 810.5,272.9 810.8,274.7" fill="#d33" opacity="0.5" stroke="#d33" stroke-width="1"/>
<line x1="759.1" y1="205.13738129305543" x2="864.2" y2="205.13738129305543" stroke="#114" stroke-width="2"/>
<circle cx="811.6666666666666" cy="238.9274444171424" r="2.4" fill="#114"/>
<text x="811.6666666666666" y="154.67565524709738" text-anchor="middle" font-size="11">1.18</text>
<text x="811.6666666666666" y="376" text-anchor="middle" font-size="12">ztrsv</text>
<text x="450.0" y="428" text-anchor="middle" font-size="11" fill="#666">violin = ratio distribution over sizes · line = median · dark dot = worst size · green = every size ≥ gate</text>
</svg>
