<svg xmlns="http://www.w3.org/2000/svg" width="900" height="460" font-family="sans-serif">
<rect width="900" height="460" fill="white"/>
<text x="450.0" y="28" text-anchor="middle" font-size="18" font-weight="bold">BLAS-3: PureBLAS / OpenBLAS (AVX2, 1 thread, Float64)</text>
<line x1="62" y1="400.0" x2="768" y2="400.0" stroke="#eee"/>
<text x="54" y="404.0" text-anchor="end" font-size="11" fill="#666">0.5×</text>
<line x1="62" y1="321.9898684349339" x2="768" y2="321.9898684349339" stroke="#eee"/>
<text x="54" y="325.9898684349339" text-anchor="end" font-size="11" fill="#666">0.7×</text>
<line x1="62" y1="239.29579660889328" x2="768" y2="239.29579660889328" stroke="#eee"/>
<text x="54" y="243.29579660889328" text-anchor="end" font-size="11" fill="#666">1.0×</text>
<line x1="62" y1="145.28986391683023" x2="768" y2="145.28986391683023" stroke="#eee"/>
<text x="54" y="149.28986391683023" text-anchor="end" font-size="11" fill="#666">1.5×</text>
<line x1="62" y1="78.59159321778658" x2="768" y2="78.59159321778658" stroke="#eee"/>
<text x="54" y="82.59159321778658" text-anchor="end" font-size="11" fill="#666">2.0×</text>
<line x1="62.0" y1="50" x2="62.0" y2="400" stroke="#f4f4f4"/>
<text x="62.0" y="418" text-anchor="middle" font-size="11" fill="#444">8</text>
<line x1="238.5" y1="50" x2="238.5" y2="400" stroke="#f4f4f4"/>
<text x="238.5" y="418" text-anchor="middle" font-size="11" fill="#444">32</text>
<line x1="415.0" y1="50" x2="415.0" y2="400" stroke="#f4f4f4"/>
<text x="415.0" y="418" text-anchor="middle" font-size="11" fill="#444">128</text>
<line x1="503.25" y1="50" x2="503.25" y2="400" stroke="#f4f4f4"/>
<text x="503.25" y="418" text-anchor="middle" font-size="11" fill="#444">256</text>
<line x1="591.5" y1="50" x2="591.5" y2="400" stroke="#f4f4f4"/>
<text x="591.5" y="418" text-anchor="middle" font-size="11" fill="#444">512</text>
<line x1="679.75" y1="50" x2="679.75" y2="400" stroke="#f4f4f4"/>
<text x="679.75" y="418" text-anchor="middle" font-size="11" fill="#444">1024</text>
<line x1="768.0" y1="50" x2="768.0" y2="400" stroke="#f4f4f4"/>
<text x="768.0" y="418" text-anchor="middle" font-size="11" fill="#444">2048</text>
<line x1="62" y1="239.29579660889328" x2="768" y2="239.29579660889328" stroke="#888"/>
<line x1="62" y1="248.76025999301055" x2="768" y2="248.76025999301055" stroke="#d33" stroke-width="1.5" stroke-dasharray="6 4"/>
<text x="66" y="243.76025999301055" font-size="11" fill="#d33">0.96× gate</text>
<polygon points="62.0,81.5 238.5,228.0 415.0,225.8 503.2,232.2 591.5,228.0 679.8,218.1 768.0,199.6 768.0,200.1 679.8,218.3 591.5,230.6 503.2,232.3 415.0,231.8 238.5,229.0 62.0,106.5" fill="#1f77b4" opacity="0.14" stroke="none"/>
<polyline points="62.0,82.4 238.5,228.5 415.0,226.6 503.2,232.3 591.5,229.2 679.8,218.2 768.0,199.7" fill="none" stroke="#1f77b4" stroke-width="2"/>
<circle cx="62.0" cy="82.4" r="3" fill="#1f77b4"/>
<circle cx="238.5" cy="228.5" r="3" fill="#1f77b4"/>
<circle cx="415.0" cy="226.6" r="3" fill="#1f77b4"/>
<circle cx="503.2" cy="232.3" r="3" fill="#1f77b4"/>
<circle cx="591.5" cy="229.2" r="3" fill="#1f77b4"/>
<circle cx="679.8" cy="218.2" r="3" fill="#1f77b4"/>
<circle cx="768.0" cy="199.7" r="3" fill="#1f77b4"/>
<line x1="782" y1="56" x2="802" y2="56" stroke="#1f77b4" stroke-width="3"/>
<text x="806" y="60" font-size="12">gemm</text>
<polygon points="62.0,176.3 238.5,251.7 415.0,220.6 503.2,200.1 591.5,191.7 679.8,191.8 768.0,184.6 768.0,185.2 679.8,192.4 591.5,194.4 503.2,201.7 415.0,220.7 238.5,253.0 62.0,209.8" fill="#d62728" opacity="0.14" stroke="none"/>
<polyline points="62.0,177.8 238.5,252.3 415.0,220.7 503.2,201.2 591.5,192.9 679.8,191.9 768.0,185.1" fill="none" stroke="#d62728" stroke-width="2"/>
<circle cx="62.0" cy="177.8" r="3" fill="#d62728"/>
<circle cx="238.5" cy="252.3" r="3" fill="#d62728"/>
<circle cx="415.0" cy="220.7" r="3" fill="#d62728"/>
<circle cx="503.2" cy="201.2" r="3" fill="#d62728"/>
<circle cx="591.5" cy="192.9" r="3" fill="#d62728"/>
<circle cx="679.8" cy="191.9" r="3" fill="#d62728"/>
<circle cx="768.0" cy="185.1" r="3" fill="#d62728"/>
<line x1="782" y1="74" x2="802" y2="74" stroke="#d62728" stroke-width="3"/>
<text x="806" y="78" font-size="12">zgemm</text>
<polygon points="62.0,211.4 238.5,251.3 415.0,243.0 503.2,245.7 591.5,234.5 679.8,229.7 768.0,229.0 768.0,229.5 679.8,230.9 591.5,235.9 503.2,246.0 415.0,243.3 238.5,252.8 62.0,212.9" fill="#2ca02c" opacity="0.14" stroke="none"/>
<polyline points="62.0,212.5 238.5,251.4 415.0,243.1 503.2,245.8 591.5,235.4 679.8,230.7 768.0,229.2" fill="none" stroke="#2ca02c" stroke-width="2"/>
<circle cx="62.0" cy="212.5" r="3" fill="#2ca02c"/>
<circle cx="238.5" cy="251.4" r="3" fill="#2ca02c"/>
<circle cx="415.0" cy="243.1" r="3" fill="#2ca02c"/>
<circle cx="503.2" cy="245.8" r="3" fill="#2ca02c"/>
<circle cx="591.5" cy="235.4" r="3" fill="#2ca02c"/>
<circle cx="679.8" cy="230.7" r="3" fill="#2ca02c"/>
<circle cx="768.0" cy="229.2" r="3" fill="#2ca02c"/>
<line x1="782" y1="92" x2="802" y2="92" stroke="#2ca02c" stroke-width="3"/>
<text x="806" y="96" font-size="12">symm</text>
<polygon points="62.0,145.0 238.5,180.2 415.0,238.4 503.2,238.5 591.5,232.8 679.8,231.9 768.0,231.6 768.0,231.8 679.8,233.9 591.5,233.5 503.2,239.2 415.0,239.3 238.5,189.9 62.0,148.4" fill="#9467bd" opacity="0.14" stroke="none"/>
<polyline points="62.0,147.2 238.5,184.8 415.0,238.8 503.2,238.7 591.5,233.3 679.8,232.8 768.0,231.7" fill="none" stroke="#9467bd" stroke-width="2"/>
<circle cx="62.0" cy="147.2" r="3" fill="#9467bd"/>
<circle cx="238.5" cy="184.8" r="3" fill="#9467bd"/>
<circle cx="415.0" cy="238.8" r="3" fill="#9467bd"/>
<circle cx="503.2" cy="238.7" r="3" fill="#9467bd"/>
<circle cx="591.5" cy="233.3" r="3" fill="#9467bd"/>
<circle cx="679.8" cy="232.8" r="3" fill="#9467bd"/>
<circle cx="768.0" cy="231.7" r="3" fill="#9467bd"/>
<line x1="782" y1="110" x2="802" y2="110" stroke="#9467bd" stroke-width="3"/>
<text x="806" y="114" font-size="12">syrk</text>
<polygon points="62.0,125.1 238.5,220.9 415.0,248.1 503.2,247.7 591.5,240.7 679.8,233.7 768.0,233.6 768.0,234.3 679.8,235.8 591.5,241.5 503.2,249.2 415.0,251.1 238.5,230.1 62.0,125.9" fill="#ff7f0e" opacity="0.14" stroke="none"/>
<polyline points="62.0,125.5 238.5,221.8 415.0,250.0 503.2,247.8 591.5,241.3 679.8,233.9 768.0,233.9" fill="none" stroke="#ff7f0e" stroke-width="2"/>
<circle cx="62.0" cy="125.5" r="3" fill="#ff7f0e"/>
<circle cx="238.5" cy="221.8" r="3" fill="#ff7f0e"/>
<circle cx="415.0" cy="250.0" r="3" fill="#ff7f0e"/>
<circle cx="503.2" cy="247.8" r="3" fill="#ff7f0e"/>
<circle cx="591.5" cy="241.3" r="3" fill="#ff7f0e"/>
<circle cx="679.8" cy="233.9" r="3" fill="#ff7f0e"/>
<circle cx="768.0" cy="233.9" r="3" fill="#ff7f0e"/>
<line x1="782" y1="128" x2="802" y2="128" stroke="#ff7f0e" stroke-width="3"/>
<text x="806" y="132" font-size="12">syr2k</text>
<polygon points="62.0,262.6 238.5,205.8 415.0,207.2 503.2,202.2 591.5,210.0 679.8,220.5 768.0,225.0 768.0,228.1 679.8,222.2 591.5,210.9 503.2,204.4 415.0,208.2 238.5,219.4 62.0,267.7" fill="#17becf" opacity="0.14" stroke="none"/>
<polyline points="62.0,265.3 238.5,213.3 415.0,207.9 503.2,202.6 591.5,210.6 679.8,222.0 768.0,227.0" fill="none" stroke="#17becf" stroke-width="2"/>
<circle cx="62.0" cy="265.3" r="3" fill="#17becf"/>
<circle cx="238.5" cy="213.3" r="3" fill="#17becf"/>
<circle cx="415.0" cy="207.9" r="3" fill="#17becf"/>
<circle cx="503.2" cy="202.6" r="3" fill="#17becf"/>
<circle cx="591.5" cy="210.6" r="3" fill="#17becf"/>
<circle cx="679.8" cy="222.0" r="3" fill="#17becf"/>
<circle cx="768.0" cy="227.0" r="3" fill="#17becf"/>
<line x1="782" y1="146" x2="802" y2="146" stroke="#17becf" stroke-width="3"/>
<text x="806" y="150" font-size="12">trmm</text>
<polygon points="62.0,230.0 238.5,260.3 415.0,244.4 503.2,240.5 591.5,232.6 679.8,232.8 768.0,226.8 768.0,227.4 679.8,237.6 591.5,236.8 503.2,241.0 415.0,245.2 238.5,275.3 62.0,265.8" fill="#8c564b" opacity="0.14" stroke="none"/>
<polyline points="62.0,236.2 238.5,273.1 415.0,244.9 503.2,240.7 591.5,236.2 679.8,235.2 768.0,227.3" fill="none" stroke="#8c564b" stroke-width="2"/>
<circle cx="62.0" cy="236.2" r="3" fill="#8c564b"/>
<circle cx="238.5" cy="273.1" r="3" fill="#8c564b"/>
<circle cx="415.0" cy="244.9" r="3" fill="#8c564b"/>
<circle cx="503.2" cy="240.7" r="3" fill="#8c564b"/>
<circle cx="591.5" cy="236.2" r="3" fill="#8c564b"/>
<circle cx="679.8" cy="235.2" r="3" fill="#8c564b"/>
<circle cx="768.0" cy="227.3" r="3" fill="#8c564b"/>
<line x1="782" y1="164" x2="802" y2="164" stroke="#8c564b" stroke-width="3"/>
<text x="806" y="168" font-size="12">trsm</text>
<text x="415.0" y="450" text-anchor="middle" font-size="11" fill="#666">matrix size n (log) · y = median ratio (log) · dashed = the 0.96× gate</text>
</svg>
