<svg xmlns="http://www.w3.org/2000/svg" width="962" height="592" font-family="sans-serif">
<rect width="962" height="592" fill="white"/>
<text x="481.0" y="26" text-anchor="middle" font-size="17" font-weight="bold">BLAS-2 — PureBLAS / AOCL (PB/AOCL ratio)</text>
<line x1="46" y1="42" x2="68" y2="42" stroke="#d62728" stroke-width="3"/>
<text x="73" y="46" font-size="12">Zen3 · AVX2</text>
<line x1="176" y1="42" x2="198" y2="42" stroke="#2ca02c" stroke-width="3"/>
<text x="203" y="46" font-size="12">Zen5 · AVX-512</text>
<line x1="327" y1="42" x2="349" y2="42" stroke="#1f77b4" stroke-width="3"/>
<text x="354" y="46" font-size="12">Zen4 · AVX-512</text>
<rect x="46" y="60" width="210" height="138" fill="none" stroke="#e2e2e2"/>
<line x1="46" y1="131.90949399138373" x2="256" y2="131.90949399138373" stroke="#d33" stroke-dasharray="4 3"/>
<text x="42" y="201.0" text-anchor="end" font-size="9" fill="#999">0.5×</text>
<text x="42" y="134.90949399138373" text-anchor="end" font-size="9" fill="#999">1.0×</text>
<polygon points="46.0,67.3 98.5,118.1 151.0,123.5 203.5,128.4 256.0,129.9 256.0,131.6 203.5,129.2 151.0,131.2 98.5,120.2 46.0,70.1" fill="#d62728" opacity="0.11"/>
<polyline points="46.0,68.4 98.5,119.3 151.0,128.0 203.5,128.7 256.0,130.2" fill="none" stroke="#d62728" stroke-width="1.6"/>
<circle cx="46.0" cy="68.4" r="2" fill="#d62728"/>
<circle cx="98.5" cy="119.3" r="2" fill="#d62728"/>
<circle cx="151.0" cy="128.0" r="2" fill="#d62728"/>
<circle cx="203.5" cy="128.7" r="2" fill="#d62728"/>
<circle cx="256.0" cy="130.2" r="2" fill="#d62728"/>
<polygon points="46.0,85.6 98.5,115.4 151.0,115.6 203.5,129.2 256.0,131.0 256.0,134.0 203.5,131.2 151.0,119.0 98.5,121.5 46.0,89.1" fill="#2ca02c" opacity="0.11"/>
<polyline points="46.0,87.4 98.5,120.8 151.0,116.7 203.5,130.7 256.0,131.9" fill="none" stroke="#2ca02c" stroke-width="1.6"/>
<circle cx="46.0" cy="87.4" r="2" fill="#2ca02c"/>
<circle cx="98.5" cy="120.8" r="2" fill="#2ca02c"/>
<circle cx="151.0" cy="116.7" r="2" fill="#2ca02c"/>
<circle cx="203.5" cy="130.7" r="2" fill="#2ca02c"/>
<circle cx="256.0" cy="131.9" r="2" fill="#2ca02c"/>
<polygon points="46.0,82.1 98.5,124.7 151.0,129.9 203.5,127.7 256.0,131.6 256.0,141.1 203.5,132.1 151.0,131.4 98.5,125.5 46.0,88.4" fill="#1f77b4" opacity="0.11"/>
<polyline points="46.0,84.5 98.5,125.1 151.0,130.9 203.5,129.6 256.0,133.5" fill="none" stroke="#1f77b4" stroke-width="1.6"/>
<circle cx="46.0" cy="84.5" r="2" fill="#1f77b4"/>
<circle cx="98.5" cy="125.1" r="2" fill="#1f77b4"/>
<circle cx="151.0" cy="130.9" r="2" fill="#1f77b4"/>
<circle cx="203.5" cy="129.6" r="2" fill="#1f77b4"/>
<circle cx="256.0" cy="133.5" r="2" fill="#1f77b4"/>
<text x="151.0" y="55" text-anchor="middle" font-size="12" font-weight="bold">gemvN</text>
<line x1="46.0" y1="60" x2="46.0" y2="198" stroke="#f4f4f4"/>
<text x="46.0" y="209" text-anchor="middle" font-size="8" fill="#999">64</text>
<line x1="98.5" y1="60" x2="98.5" y2="198" stroke="#f4f4f4"/>
<text x="98.5" y="209" text-anchor="middle" font-size="8" fill="#999">128</text>
<line x1="151.0" y1="60" x2="151.0" y2="198" stroke="#f4f4f4"/>
<text x="151.0" y="209" text-anchor="middle" font-size="8" fill="#999">256</text>
<line x1="203.5" y1="60" x2="203.5" y2="198" stroke="#f4f4f4"/>
<text x="203.5" y="209" text-anchor="middle" font-size="8" fill="#999">512</text>
<line x1="256.0" y1="60" x2="256.0" y2="198" stroke="#f4f4f4"/>
<text x="256.0" y="209" text-anchor="middle" font-size="8" fill="#999">1k</text>
<rect x="276" y="60" width="210" height="138" fill="none" stroke="#e2e2e2"/>
<line x1="276" y1="115.76276119065531" x2="486" y2="115.76276119065531" stroke="#d33" stroke-dasharray="4 3"/>
<text x="272" y="201.0" text-anchor="end" font-size="9" fill="#999">0.5×</text>
<text x="272" y="118.76276119065531" text-anchor="end" font-size="9" fill="#999">1.0×</text>
<text x="272" y="63.0" text-anchor="end" font-size="9" fill="#999">1.6×</text>
<polygon points="276.0,97.0 328.5,106.0 381.0,110.5 433.5,109.9 486.0,120.6 486.0,122.3 433.5,110.9 381.0,114.0 328.5,109.5 276.0,100.1" fill="#d62728" opacity="0.11"/>
<polyline points="276.0,97.7 328.5,106.8 381.0,112.0 433.5,110.4 486.0,121.2" fill="none" stroke="#d62728" stroke-width="1.6"/>
<circle cx="276.0" cy="97.7" r="2" fill="#d62728"/>
<circle cx="328.5" cy="106.8" r="2" fill="#d62728"/>
<circle cx="381.0" cy="112.0" r="2" fill="#d62728"/>
<circle cx="433.5" cy="110.4" r="2" fill="#d62728"/>
<circle cx="486.0" cy="121.2" r="2" fill="#d62728"/>
<polygon points="276.0,108.3 328.5,133.8 381.0,130.5 433.5,110.5 486.0,85.9 486.0,109.6 433.5,118.0 381.0,152.6 328.5,138.4 276.0,119.0" fill="#2ca02c" opacity="0.11"/>
<polyline points="276.0,112.7 328.5,135.1 381.0,143.7 433.5,115.2 486.0,99.7" fill="none" stroke="#2ca02c" stroke-width="1.6"/>
<circle cx="276.0" cy="112.7" r="2" fill="#2ca02c"/>
<circle cx="328.5" cy="135.1" r="2" fill="#2ca02c"/>
<circle cx="381.0" cy="143.7" r="2" fill="#2ca02c"/>
<circle cx="433.5" cy="115.2" r="2" fill="#2ca02c"/>
<circle cx="486.0" cy="99.7" r="2" fill="#2ca02c"/>
<polygon points="276.0,110.7 328.5,111.0 381.0,118.7 433.5,104.7 486.0,114.9 486.0,122.8 433.5,111.8 381.0,120.3 328.5,113.0 276.0,113.0" fill="#1f77b4" opacity="0.11"/>
<polyline points="276.0,112.3 328.5,112.4 381.0,119.7 433.5,110.0 486.0,120.2" fill="none" stroke="#1f77b4" stroke-width="1.6"/>
<circle cx="276.0" cy="112.3" r="2" fill="#1f77b4"/>
<circle cx="328.5" cy="112.4" r="2" fill="#1f77b4"/>
<circle cx="381.0" cy="119.7" r="2" fill="#1f77b4"/>
<circle cx="433.5" cy="110.0" r="2" fill="#1f77b4"/>
<circle cx="486.0" cy="120.2" r="2" fill="#1f77b4"/>
<text x="381.0" y="55" text-anchor="middle" font-size="12" font-weight="bold">gemvT</text>
<line x1="276.0" y1="60" x2="276.0" y2="198" stroke="#f4f4f4"/>
<text x="276.0" y="209" text-anchor="middle" font-size="8" fill="#999">64</text>
<line x1="328.5" y1="60" x2="328.5" y2="198" stroke="#f4f4f4"/>
<text x="328.5" y="209" text-anchor="middle" font-size="8" fill="#999">128</text>
<line x1="381.0" y1="60" x2="381.0" y2="198" stroke="#f4f4f4"/>
<text x="381.0" y="209" text-anchor="middle" font-size="8" fill="#999">256</text>
<line x1="433.5" y1="60" x2="433.5" y2="198" stroke="#f4f4f4"/>
<text x="433.5" y="209" text-anchor="middle" font-size="8" fill="#999">512</text>
<line x1="486.0" y1="60" x2="486.0" y2="198" stroke="#f4f4f4"/>
<text x="486.0" y="209" text-anchor="middle" font-size="8" fill="#999">1k</text>
<rect x="506" y="60" width="210" height="138" fill="none" stroke="#e2e2e2"/>
<line x1="506" y1="131.06736201193075" x2="716" y2="131.06736201193075" stroke="#d33" stroke-dasharray="4 3"/>
<text x="502" y="201.0" text-anchor="end" font-size="9" fill="#999">0.5×</text>
<text x="502" y="134.06736201193075" text-anchor="end" font-size="9" fill="#999">1.0×</text>
<polygon points="506.0,67.4 558.5,86.8 611.0,94.3 663.5,97.3 716.0,98.4 716.0,99.1 663.5,99.7 611.0,97.6 558.5,87.5 506.0,69.2" fill="#d62728" opacity="0.11"/>
<polyline points="506.0,68.0 558.5,87.4 611.0,95.5 663.5,98.1 716.0,98.6" fill="none" stroke="#d62728" stroke-width="1.6"/>
<circle cx="506.0" cy="68.0" r="2" fill="#d62728"/>
<circle cx="558.5" cy="87.4" r="2" fill="#d62728"/>
<circle cx="611.0" cy="95.5" r="2" fill="#d62728"/>
<circle cx="663.5" cy="98.1" r="2" fill="#d62728"/>
<circle cx="716.0" cy="98.6" r="2" fill="#d62728"/>
<polygon points="506.0,89.6 558.5,120.7 611.0,125.4 663.5,125.9 716.0,126.8 716.0,129.6 663.5,128.9 611.0,127.0 558.5,123.6 506.0,133.5" fill="#2ca02c" opacity="0.11"/>
<polyline points="506.0,109.9 558.5,122.3 611.0,126.3 663.5,127.5 716.0,128.4" fill="none" stroke="#2ca02c" stroke-width="1.6"/>
<circle cx="506.0" cy="109.9" r="2" fill="#2ca02c"/>
<circle cx="558.5" cy="122.3" r="2" fill="#2ca02c"/>
<circle cx="611.0" cy="126.3" r="2" fill="#2ca02c"/>
<circle cx="663.5" cy="127.5" r="2" fill="#2ca02c"/>
<circle cx="716.0" cy="128.4" r="2" fill="#2ca02c"/>
<polygon points="506.0,103.9 558.5,104.6 611.0,122.2 663.5,121.5 716.0,134.1 716.0,151.9 663.5,139.8 611.0,129.3 558.5,125.6 506.0,107.6" fill="#1f77b4" opacity="0.11"/>
<polyline points="506.0,105.8 558.5,120.8 611.0,127.8 663.5,134.1 716.0,136.1" fill="none" stroke="#1f77b4" stroke-width="1.6"/>
<circle cx="506.0" cy="105.8" r="2" fill="#1f77b4"/>
<circle cx="558.5" cy="120.8" r="2" fill="#1f77b4"/>
<circle cx="611.0" cy="127.8" r="2" fill="#1f77b4"/>
<circle cx="663.5" cy="134.1" r="2" fill="#1f77b4"/>
<circle cx="716.0" cy="136.1" r="2" fill="#1f77b4"/>
<text x="611.0" y="55" text-anchor="middle" font-size="12" font-weight="bold">ger</text>
<line x1="506.0" y1="60" x2="506.0" y2="198" stroke="#f4f4f4"/>
<text x="506.0" y="209" text-anchor="middle" font-size="8" fill="#999">64</text>
<line x1="558.5" y1="60" x2="558.5" y2="198" stroke="#f4f4f4"/>
<text x="558.5" y="209" text-anchor="middle" font-size="8" fill="#999">128</text>
<line x1="611.0" y1="60" x2="611.0" y2="198" stroke="#f4f4f4"/>
<text x="611.0" y="209" text-anchor="middle" font-size="8" fill="#999">256</text>
<line x1="663.5" y1="60" x2="663.5" y2="198" stroke="#f4f4f4"/>
<text x="663.5" y="209" text-anchor="middle" font-size="8" fill="#999">512</text>
<line x1="716.0" y1="60" x2="716.0" y2="198" stroke="#f4f4f4"/>
<text x="716.0" y="209" text-anchor="middle" font-size="8" fill="#999">1k</text>
<rect x="736" y="60" width="210" height="138" fill="none" stroke="#e2e2e2"/>
<line x1="736" y1="119.97342181452707" x2="946" y2="119.97342181452707" stroke="#d33" stroke-dasharray="4 3"/>
<text x="732" y="201.0" text-anchor="end" font-size="9" fill="#999">0.5×</text>
<text x="732" y="122.97342181452707" text-anchor="end" font-size="9" fill="#999">1.0×</text>
<text x="732" y="63.24136507374006" text-anchor="end" font-size="9" fill="#999">1.7×</text>
<polygon points="736.0,68.7 788.5,83.7 841.0,95.2 893.5,105.5 946.0,110.9 946.0,119.2 893.5,111.4 841.0,107.6 788.5,85.9 736.0,69.6" fill="#d62728" opacity="0.11"/>
<polyline points="736.0,69.4 788.5,84.3 841.0,102.8 893.5,108.8 946.0,115.5" fill="none" stroke="#d62728" stroke-width="1.6"/>
<circle cx="736.0" cy="69.4" r="2" fill="#d62728"/>
<circle cx="788.5" cy="84.3" r="2" fill="#d62728"/>
<circle cx="841.0" cy="102.8" r="2" fill="#d62728"/>
<circle cx="893.5" cy="108.8" r="2" fill="#d62728"/>
<circle cx="946.0" cy="115.5" r="2" fill="#d62728"/>
<polygon points="736.0,83.1 788.5,88.6 841.0,89.2 893.5,97.0 946.0,88.5 946.0,113.3 893.5,101.6 841.0,93.0 788.5,99.4 736.0,86.5" fill="#2ca02c" opacity="0.11"/>
<polyline points="736.0,86.1 788.5,91.4 841.0,92.6 893.5,99.0 946.0,105.8" fill="none" stroke="#2ca02c" stroke-width="1.6"/>
<circle cx="736.0" cy="86.1" r="2" fill="#2ca02c"/>
<circle cx="788.5" cy="91.4" r="2" fill="#2ca02c"/>
<circle cx="841.0" cy="92.6" r="2" fill="#2ca02c"/>
<circle cx="893.5" cy="99.0" r="2" fill="#2ca02c"/>
<circle cx="946.0" cy="105.8" r="2" fill="#2ca02c"/>
<polygon points="736.0,77.8 788.5,82.3 841.0,83.3 893.5,92.3 946.0,101.9 946.0,108.0 893.5,97.1 841.0,86.8 788.5,85.9 736.0,81.7" fill="#1f77b4" opacity="0.11"/>
<polyline points="736.0,81.4 788.5,83.5 841.0,85.6 893.5,95.4 946.0,104.0" fill="none" stroke="#1f77b4" stroke-width="1.6"/>
<circle cx="736.0" cy="81.4" r="2" fill="#1f77b4"/>
<circle cx="788.5" cy="83.5" r="2" fill="#1f77b4"/>
<circle cx="841.0" cy="85.6" r="2" fill="#1f77b4"/>
<circle cx="893.5" cy="95.4" r="2" fill="#1f77b4"/>
<circle cx="946.0" cy="104.0" r="2" fill="#1f77b4"/>
<text x="841.0" y="55" text-anchor="middle" font-size="12" font-weight="bold">symv</text>
<line x1="736.0" y1="60" x2="736.0" y2="198" stroke="#f4f4f4"/>
<text x="736.0" y="209" text-anchor="middle" font-size="8" fill="#999">64</text>
<line x1="788.5" y1="60" x2="788.5" y2="198" stroke="#f4f4f4"/>
<text x="788.5" y="209" text-anchor="middle" font-size="8" fill="#999">128</text>
<line x1="841.0" y1="60" x2="841.0" y2="198" stroke="#f4f4f4"/>
<text x="841.0" y="209" text-anchor="middle" font-size="8" fill="#999">256</text>
<line x1="893.5" y1="60" x2="893.5" y2="198" stroke="#f4f4f4"/>
<text x="893.5" y="209" text-anchor="middle" font-size="8" fill="#999">512</text>
<line x1="946.0" y1="60" x2="946.0" y2="198" stroke="#f4f4f4"/>
<text x="946.0" y="209" text-anchor="middle" font-size="8" fill="#999">1k</text>
<rect x="46" y="232" width="210" height="138" fill="none" stroke="#e2e2e2"/>
<line x1="46" y1="288.12113631131155" x2="256" y2="288.12113631131155" stroke="#d33" stroke-dasharray="4 3"/>
<text x="42" y="373.0" text-anchor="end" font-size="9" fill="#999">0.5×</text>
<text x="42" y="291.12113631131155" text-anchor="end" font-size="9" fill="#999">1.0×</text>
<polygon points="46.0,241.1 98.5,277.7 151.0,279.7 203.5,292.7 256.0,290.9 256.0,292.0 203.5,294.0 151.0,290.5 98.5,279.0 46.0,242.2" fill="#d62728" opacity="0.11"/>
<polyline points="46.0,242.0 98.5,278.3 151.0,284.1 203.5,293.2 256.0,291.5" fill="none" stroke="#d62728" stroke-width="1.6"/>
<circle cx="46.0" cy="242.0" r="2" fill="#d62728"/>
<circle cx="98.5" cy="278.3" r="2" fill="#d62728"/>
<circle cx="151.0" cy="284.1" r="2" fill="#d62728"/>
<circle cx="203.5" cy="293.2" r="2" fill="#d62728"/>
<circle cx="256.0" cy="291.5" r="2" fill="#d62728"/>
<polygon points="46.0,258.6 98.5,301.4 151.0,285.0 203.5,285.9 256.0,285.5 256.0,293.4 203.5,287.9 151.0,288.5 98.5,308.2 46.0,275.0" fill="#2ca02c" opacity="0.11"/>
<polyline points="46.0,273.6 98.5,304.2 151.0,286.0 203.5,287.4 256.0,287.7" fill="none" stroke="#2ca02c" stroke-width="1.6"/>
<circle cx="46.0" cy="273.6" r="2" fill="#2ca02c"/>
<circle cx="98.5" cy="304.2" r="2" fill="#2ca02c"/>
<circle cx="151.0" cy="286.0" r="2" fill="#2ca02c"/>
<circle cx="203.5" cy="287.4" r="2" fill="#2ca02c"/>
<circle cx="256.0" cy="287.7" r="2" fill="#2ca02c"/>
<polygon points="46.0,252.9 98.5,286.3 151.0,290.7 203.5,290.4 256.0,294.0 256.0,296.9 203.5,295.3 151.0,294.4 98.5,295.7 46.0,255.4" fill="#1f77b4" opacity="0.11"/>
<polyline points="46.0,253.7 98.5,287.5 151.0,292.4 203.5,293.0 256.0,296.0" fill="none" stroke="#1f77b4" stroke-width="1.6"/>
<circle cx="46.0" cy="253.7" r="2" fill="#1f77b4"/>
<circle cx="98.5" cy="287.5" r="2" fill="#1f77b4"/>
<circle cx="151.0" cy="292.4" r="2" fill="#1f77b4"/>
<circle cx="203.5" cy="293.0" r="2" fill="#1f77b4"/>
<circle cx="256.0" cy="296.0" r="2" fill="#1f77b4"/>
<text x="151.0" y="227" text-anchor="middle" font-size="12" font-weight="bold">trmv</text>
<line x1="46.0" y1="232" x2="46.0" y2="370" stroke="#f4f4f4"/>
<text x="46.0" y="381" text-anchor="middle" font-size="8" fill="#999">64</text>
<line x1="98.5" y1="232" x2="98.5" y2="370" stroke="#f4f4f4"/>
<text x="98.5" y="381" text-anchor="middle" font-size="8" fill="#999">128</text>
<line x1="151.0" y1="232" x2="151.0" y2="370" stroke="#f4f4f4"/>
<text x="151.0" y="381" text-anchor="middle" font-size="8" fill="#999">256</text>
<line x1="203.5" y1="232" x2="203.5" y2="370" stroke="#f4f4f4"/>
<text x="203.5" y="381" text-anchor="middle" font-size="8" fill="#999">512</text>
<line x1="256.0" y1="232" x2="256.0" y2="370" stroke="#f4f4f4"/>
<text x="256.0" y="381" text-anchor="middle" font-size="8" fill="#999">1k</text>
<rect x="276" y="232" width="210" height="138" fill="none" stroke="#e2e2e2"/>
<line x1="276" y1="287.7627611906553" x2="486" y2="287.7627611906553" stroke="#d33" stroke-dasharray="4 3"/>
<text x="272" y="373.0" text-anchor="end" font-size="9" fill="#999">0.5×</text>
<text x="272" y="290.7627611906553" text-anchor="end" font-size="9" fill="#999">1.0×</text>
<text x="272" y="235.0" text-anchor="end" font-size="9" fill="#999">1.6×</text>
<polygon points="276.0,248.9 328.5,268.9 381.0,283.0 433.5,293.3 486.0,292.3 486.0,293.3 433.5,296.3 381.0,288.9 328.5,269.4 276.0,249.2" fill="#d62728" opacity="0.11"/>
<polyline points="276.0,249.1 328.5,269.1 381.0,287.0 433.5,294.4 486.0,292.5" fill="none" stroke="#d62728" stroke-width="1.6"/>
<circle cx="276.0" cy="249.1" r="2" fill="#d62728"/>
<circle cx="328.5" cy="269.1" r="2" fill="#d62728"/>
<circle cx="381.0" cy="287.0" r="2" fill="#d62728"/>
<circle cx="433.5" cy="294.4" r="2" fill="#d62728"/>
<circle cx="486.0" cy="292.5" r="2" fill="#d62728"/>
<polygon points="276.0,245.0 328.5,270.8 381.0,286.2 433.5,292.4 486.0,294.4 486.0,300.1 433.5,294.8 381.0,287.2 328.5,274.9 276.0,250.9" fill="#2ca02c" opacity="0.11"/>
<polyline points="276.0,250.7 328.5,271.9 381.0,286.9 433.5,293.2 486.0,294.8" fill="none" stroke="#2ca02c" stroke-width="1.6"/>
<circle cx="276.0" cy="250.7" r="2" fill="#2ca02c"/>
<circle cx="328.5" cy="271.9" r="2" fill="#2ca02c"/>
<circle cx="381.0" cy="286.9" r="2" fill="#2ca02c"/>
<circle cx="433.5" cy="293.2" r="2" fill="#2ca02c"/>
<circle cx="486.0" cy="294.8" r="2" fill="#2ca02c"/>
<polygon points="276.0,264.4 328.5,283.3 381.0,297.8 433.5,297.2 486.0,274.5 486.0,300.2 433.5,304.0 381.0,303.6 328.5,284.9 276.0,265.9" fill="#1f77b4" opacity="0.11"/>
<polyline points="276.0,265.4 328.5,283.8 381.0,301.0 433.5,299.8 486.0,293.8" fill="none" stroke="#1f77b4" stroke-width="1.6"/>
<circle cx="276.0" cy="265.4" r="2" fill="#1f77b4"/>
<circle cx="328.5" cy="283.8" r="2" fill="#1f77b4"/>
<circle cx="381.0" cy="301.0" r="2" fill="#1f77b4"/>
<circle cx="433.5" cy="299.8" r="2" fill="#1f77b4"/>
<circle cx="486.0" cy="293.8" r="2" fill="#1f77b4"/>
<text x="381.0" y="227" text-anchor="middle" font-size="12" font-weight="bold">trsv</text>
<line x1="276.0" y1="232" x2="276.0" y2="370" stroke="#f4f4f4"/>
<text x="276.0" y="381" text-anchor="middle" font-size="8" fill="#999">64</text>
<line x1="328.5" y1="232" x2="328.5" y2="370" stroke="#f4f4f4"/>
<text x="328.5" y="381" text-anchor="middle" font-size="8" fill="#999">128</text>
<line x1="381.0" y1="232" x2="381.0" y2="370" stroke="#f4f4f4"/>
<text x="381.0" y="381" text-anchor="middle" font-size="8" fill="#999">256</text>
<line x1="433.5" y1="232" x2="433.5" y2="370" stroke="#f4f4f4"/>
<text x="433.5" y="381" text-anchor="middle" font-size="8" fill="#999">512</text>
<line x1="486.0" y1="232" x2="486.0" y2="370" stroke="#f4f4f4"/>
<text x="486.0" y="381" text-anchor="middle" font-size="8" fill="#999">1k</text>
<rect x="506" y="232" width="210" height="138" fill="none" stroke="#e2e2e2"/>
<line x1="506" y1="335.69479335046174" x2="716" y2="335.69479335046174" stroke="#d33" stroke-dasharray="4 3"/>
<text x="502" y="373.0" text-anchor="end" font-size="9" fill="#999">0.5×</text>
<text x="502" y="338.69479335046174" text-anchor="end" font-size="9" fill="#999">1.0×</text>
<polygon points="506.0,291.9 558.5,255.5 611.0,242.5 663.5,246.0 716.0,243.0 716.0,243.3 663.5,246.5 611.0,246.0 558.5,256.0 506.0,293.5" fill="#d62728" opacity="0.11"/>
<polyline points="506.0,292.4 558.5,255.7 611.0,243.6 663.5,246.2 716.0,243.1" fill="none" stroke="#d62728" stroke-width="1.6"/>
<circle cx="506.0" cy="292.4" r="2" fill="#d62728"/>
<circle cx="558.5" cy="255.7" r="2" fill="#d62728"/>
<circle cx="611.0" cy="243.6" r="2" fill="#d62728"/>
<circle cx="663.5" cy="246.2" r="2" fill="#d62728"/>
<circle cx="716.0" cy="243.1" r="2" fill="#d62728"/>
<polygon points="506.0,299.3 558.5,254.2 611.0,241.6 663.5,235.9 716.0,236.4 716.0,239.4 663.5,237.6 611.0,242.3 558.5,260.3 506.0,302.7" fill="#2ca02c" opacity="0.11"/>
<polyline points="506.0,301.2 558.5,257.9 611.0,241.8 663.5,236.7 716.0,236.7" fill="none" stroke="#2ca02c" stroke-width="1.6"/>
<circle cx="506.0" cy="301.2" r="2" fill="#2ca02c"/>
<circle cx="558.5" cy="257.9" r="2" fill="#2ca02c"/>
<circle cx="611.0" cy="241.8" r="2" fill="#2ca02c"/>
<circle cx="663.5" cy="236.7" r="2" fill="#2ca02c"/>
<circle cx="716.0" cy="236.7" r="2" fill="#2ca02c"/>
<polygon points="506.0,294.1 558.5,253.3 611.0,239.0 663.5,235.8 716.0,238.1 716.0,240.6 663.5,238.6 611.0,240.7 558.5,254.3 506.0,295.9" fill="#1f77b4" opacity="0.11"/>
<polyline points="506.0,294.8 558.5,253.6 611.0,239.2 663.5,237.1 716.0,239.1" fill="none" stroke="#1f77b4" stroke-width="1.6"/>
<circle cx="506.0" cy="294.8" r="2" fill="#1f77b4"/>
<circle cx="558.5" cy="253.6" r="2" fill="#1f77b4"/>
<circle cx="611.0" cy="239.2" r="2" fill="#1f77b4"/>
<circle cx="663.5" cy="237.1" r="2" fill="#1f77b4"/>
<circle cx="716.0" cy="239.1" r="2" fill="#1f77b4"/>
<text x="611.0" y="227" text-anchor="middle" font-size="12" font-weight="bold">spmv</text>
<line x1="506.0" y1="232" x2="506.0" y2="370" stroke="#f4f4f4"/>
<text x="506.0" y="381" text-anchor="middle" font-size="8" fill="#999">64</text>
<line x1="558.5" y1="232" x2="558.5" y2="370" stroke="#f4f4f4"/>
<text x="558.5" y="381" text-anchor="middle" font-size="8" fill="#999">128</text>
<line x1="611.0" y1="232" x2="611.0" y2="370" stroke="#f4f4f4"/>
<text x="611.0" y="381" text-anchor="middle" font-size="8" fill="#999">256</text>
<line x1="663.5" y1="232" x2="663.5" y2="370" stroke="#f4f4f4"/>
<text x="663.5" y="381" text-anchor="middle" font-size="8" fill="#999">512</text>
<line x1="716.0" y1="232" x2="716.0" y2="370" stroke="#f4f4f4"/>
<text x="716.0" y="381" text-anchor="middle" font-size="8" fill="#999">1k</text>
<rect x="736" y="232" width="210" height="138" fill="none" stroke="#e2e2e2"/>
<line x1="736" y1="291.5433807575068" x2="946" y2="291.5433807575068" stroke="#d33" stroke-dasharray="4 3"/>
<text x="732" y="373.0" text-anchor="end" font-size="9" fill="#999">0.5×</text>
<text x="732" y="294.5433807575068" text-anchor="end" font-size="9" fill="#999">1.0×</text>
<text x="732" y="235.14989614855494" text-anchor="end" font-size="9" fill="#999">1.69×</text>
<polygon points="736.0,269.2 788.5,267.9 841.0,267.5 893.5,273.4 946.0,273.6 946.0,276.0 893.5,275.7 841.0,278.6 788.5,283.5 736.0,272.7" fill="#d62728" opacity="0.11"/>
<polyline points="736.0,269.5 788.5,271.5 841.0,272.7 893.5,273.6 946.0,273.9" fill="none" stroke="#d62728" stroke-width="1.6"/>
<circle cx="736.0" cy="269.5" r="2" fill="#d62728"/>
<circle cx="788.5" cy="271.5" r="2" fill="#d62728"/>
<circle cx="841.0" cy="272.7" r="2" fill="#d62728"/>
<circle cx="893.5" cy="273.6" r="2" fill="#d62728"/>
<circle cx="946.0" cy="273.9" r="2" fill="#d62728"/>
<polygon points="736.0,254.1 788.5,259.2 841.0,261.3 893.5,263.8 946.0,262.9 946.0,265.6 893.5,265.2 841.0,263.3 788.5,263.4 736.0,261.1" fill="#2ca02c" opacity="0.11"/>
<polyline points="736.0,260.0 788.5,261.5 841.0,262.4 893.5,264.7 946.0,265.3" fill="none" stroke="#2ca02c" stroke-width="1.6"/>
<circle cx="736.0" cy="260.0" r="2" fill="#2ca02c"/>
<circle cx="788.5" cy="261.5" r="2" fill="#2ca02c"/>
<circle cx="841.0" cy="262.4" r="2" fill="#2ca02c"/>
<circle cx="893.5" cy="264.7" r="2" fill="#2ca02c"/>
<circle cx="946.0" cy="265.3" r="2" fill="#2ca02c"/>
<polygon points="736.0,244.6 788.5,242.5 841.0,240.7 893.5,247.4 946.0,249.3 946.0,250.6 893.5,250.3 841.0,249.3 788.5,250.2 736.0,245.6" fill="#1f77b4" opacity="0.11"/>
<polyline points="736.0,245.2 788.5,249.9 841.0,246.6 893.5,250.0 946.0,250.1" fill="none" stroke="#1f77b4" stroke-width="1.6"/>
<circle cx="736.0" cy="245.2" r="2" fill="#1f77b4"/>
<circle cx="788.5" cy="249.9" r="2" fill="#1f77b4"/>
<circle cx="841.0" cy="246.6" r="2" fill="#1f77b4"/>
<circle cx="893.5" cy="250.0" r="2" fill="#1f77b4"/>
<circle cx="946.0" cy="250.1" r="2" fill="#1f77b4"/>
<text x="841.0" y="227" text-anchor="middle" font-size="12" font-weight="bold">gbmvN</text>
<line x1="736.0" y1="232" x2="736.0" y2="370" stroke="#f4f4f4"/>
<text x="736.0" y="381" text-anchor="middle" font-size="8" fill="#999">64</text>
<line x1="788.5" y1="232" x2="788.5" y2="370" stroke="#f4f4f4"/>
<text x="788.5" y="381" text-anchor="middle" font-size="8" fill="#999">128</text>
<line x1="841.0" y1="232" x2="841.0" y2="370" stroke="#f4f4f4"/>
<text x="841.0" y="381" text-anchor="middle" font-size="8" fill="#999">256</text>
<line x1="893.5" y1="232" x2="893.5" y2="370" stroke="#f4f4f4"/>
<text x="893.5" y="381" text-anchor="middle" font-size="8" fill="#999">512</text>
<line x1="946.0" y1="232" x2="946.0" y2="370" stroke="#f4f4f4"/>
<text x="946.0" y="381" text-anchor="middle" font-size="8" fill="#999">1k</text>
<rect x="46" y="404" width="210" height="138" fill="none" stroke="#e2e2e2"/>
<line x1="46" y1="459.7627611906553" x2="256" y2="459.7627611906553" stroke="#d33" stroke-dasharray="4 3"/>
<text x="42" y="545.0" text-anchor="end" font-size="9" fill="#999">0.5×</text>
<text x="42" y="462.7627611906553" text-anchor="end" font-size="9" fill="#999">1.0×</text>
<text x="42" y="407.0" text-anchor="end" font-size="9" fill="#999">1.6×</text>
<polygon points="46.0,420.0 98.5,419.9 151.0,421.8 203.5,423.9 256.0,424.0 256.0,424.9 203.5,425.5 151.0,426.2 98.5,424.4 46.0,422.1" fill="#d62728" opacity="0.11"/>
<polyline points="46.0,420.5 98.5,422.1 151.0,423.0 203.5,424.0 256.0,424.2" fill="none" stroke="#d62728" stroke-width="1.6"/>
<circle cx="46.0" cy="420.5" r="2" fill="#d62728"/>
<circle cx="98.5" cy="422.1" r="2" fill="#d62728"/>
<circle cx="151.0" cy="423.0" r="2" fill="#d62728"/>
<circle cx="203.5" cy="424.0" r="2" fill="#d62728"/>
<circle cx="256.0" cy="424.2" r="2" fill="#d62728"/>
<polygon points="46.0,440.2 98.5,440.2 151.0,442.3 203.5,440.9 256.0,442.3 256.0,443.6 203.5,443.5 151.0,445.8 98.5,442.1 46.0,445.1" fill="#2ca02c" opacity="0.11"/>
<polyline points="46.0,443.7 98.5,441.1 151.0,444.9 203.5,443.1 256.0,443.3" fill="none" stroke="#2ca02c" stroke-width="1.6"/>
<circle cx="46.0" cy="443.7" r="2" fill="#2ca02c"/>
<circle cx="98.5" cy="441.1" r="2" fill="#2ca02c"/>
<circle cx="151.0" cy="444.9" r="2" fill="#2ca02c"/>
<circle cx="203.5" cy="443.1" r="2" fill="#2ca02c"/>
<circle cx="256.0" cy="443.3" r="2" fill="#2ca02c"/>
<polygon points="46.0,444.8 98.5,445.1 151.0,444.8 203.5,446.4 256.0,446.6 256.0,447.7 203.5,447.6 151.0,447.3 98.5,450.7 46.0,446.7" fill="#1f77b4" opacity="0.11"/>
<polyline points="46.0,445.2 98.5,445.9 151.0,446.7 203.5,446.9 256.0,447.0" fill="none" stroke="#1f77b4" stroke-width="1.6"/>
<circle cx="46.0" cy="445.2" r="2" fill="#1f77b4"/>
<circle cx="98.5" cy="445.9" r="2" fill="#1f77b4"/>
<circle cx="151.0" cy="446.7" r="2" fill="#1f77b4"/>
<circle cx="203.5" cy="446.9" r="2" fill="#1f77b4"/>
<circle cx="256.0" cy="447.0" r="2" fill="#1f77b4"/>
<text x="151.0" y="399" text-anchor="middle" font-size="12" font-weight="bold">sbmv</text>
<line x1="46.0" y1="404" x2="46.0" y2="542" stroke="#f4f4f4"/>
<text x="46.0" y="553" text-anchor="middle" font-size="8" fill="#999">64</text>
<line x1="98.5" y1="404" x2="98.5" y2="542" stroke="#f4f4f4"/>
<text x="98.5" y="553" text-anchor="middle" font-size="8" fill="#999">128</text>
<line x1="151.0" y1="404" x2="151.0" y2="542" stroke="#f4f4f4"/>
<text x="151.0" y="553" text-anchor="middle" font-size="8" fill="#999">256</text>
<line x1="203.5" y1="404" x2="203.5" y2="542" stroke="#f4f4f4"/>
<text x="203.5" y="553" text-anchor="middle" font-size="8" fill="#999">512</text>
<line x1="256.0" y1="404" x2="256.0" y2="542" stroke="#f4f4f4"/>
<text x="256.0" y="553" text-anchor="middle" font-size="8" fill="#999">1k</text>
</svg>
