<svg xmlns="http://www.w3.org/2000/svg" width="962" height="248" font-family="sans-serif">
<rect width="962" height="248" fill="white"/>
<text x="481.0" y="26" text-anchor="middle" font-size="17" font-weight="bold">Complex LAPACK — PureBLAS / OpenBLAS (PB/OpenBLAS ratio)</text>
<line x1="46" y1="42" x2="68" y2="42" stroke="#d62728" stroke-width="3"/>
<text x="73" y="46" font-size="12">Zen3 · AVX2</text>
<line x1="176" y1="42" x2="198" y2="42" stroke="#2ca02c" stroke-width="3"/>
<text x="203" y="46" font-size="12">Zen5 · AVX-512</text>
<line x1="327" y1="42" x2="349" y2="42" stroke="#1f77b4" stroke-width="3"/>
<text x="354" y="46" font-size="12">Zen4 · AVX-512</text>
<rect x="46" y="60" width="210" height="138" fill="none" stroke="#e2e2e2"/>
<line x1="46" y1="134.8555343021091" x2="256" y2="134.8555343021091" stroke="#d33" stroke-dasharray="4 3"/>
<text x="42" y="201.0" text-anchor="end" font-size="9" fill="#999">0.5×</text>
<text x="42" y="137.8555343021091" text-anchor="end" font-size="9" fill="#999">1.0×</text>
<text x="42" y="63.17506109043829" text-anchor="end" font-size="9" fill="#999">2.27×</text>
<polygon points="46.0,91.3 98.5,115.7 151.0,131.5 177.2,134.0 203.5,130.3 229.8,127.8 256.0,127.5 256.0,128.3 229.8,128.5 203.5,131.2 177.2,134.7 151.0,131.9 98.5,116.1 46.0,92.5" fill="#d62728" opacity="0.11"/>
<polyline points="46.0,91.8 98.5,115.9 151.0,131.8 177.2,134.5 203.5,130.7 229.8,128.1 256.0,127.8" fill="none" stroke="#d62728" stroke-width="1.6"/>
<circle cx="46.0" cy="91.8" r="2" fill="#d62728"/>
<circle cx="98.5" cy="115.9" r="2" fill="#d62728"/>
<circle cx="151.0" cy="131.8" r="2" fill="#d62728"/>
<circle cx="177.2" cy="134.5" r="2" fill="#d62728"/>
<circle cx="203.5" cy="130.7" r="2" fill="#d62728"/>
<circle cx="229.8" cy="128.1" r="2" fill="#d62728"/>
<circle cx="256.0" cy="127.8" r="2" fill="#d62728"/>
<polygon points="46.0,91.7 98.5,121.5 151.0,67.5 177.2,67.0 203.5,103.9 229.8,113.7 256.0,119.0 256.0,119.6 229.8,115.6 203.5,119.9 177.2,129.3 151.0,128.6 98.5,135.5 46.0,95.5" fill="#2ca02c" opacity="0.11"/>
<polyline points="46.0,94.9 98.5,132.6 151.0,114.1 177.2,113.8 203.5,105.7 229.8,115.0 256.0,119.2" fill="none" stroke="#2ca02c" stroke-width="1.6"/>
<circle cx="46.0" cy="94.9" r="2" fill="#2ca02c"/>
<circle cx="98.5" cy="132.6" r="2" fill="#2ca02c"/>
<circle cx="151.0" cy="114.1" r="2" fill="#2ca02c"/>
<circle cx="177.2" cy="113.8" r="2" fill="#2ca02c"/>
<circle cx="203.5" cy="105.7" r="2" fill="#2ca02c"/>
<circle cx="229.8" cy="115.0" r="2" fill="#2ca02c"/>
<circle cx="256.0" cy="119.2" r="2" fill="#2ca02c"/>
<polygon points="46.0,84.7 98.5,114.3 151.0,115.6 177.2,119.3 203.5,116.1 229.8,120.7 256.0,124.2 256.0,125.2 229.8,121.6 203.5,117.9 177.2,121.4 151.0,118.5 98.5,116.4 46.0,87.3" fill="#1f77b4" opacity="0.11"/>
<polyline points="46.0,86.8 98.5,114.8 151.0,116.6 177.2,120.2 203.5,117.0 229.8,121.1 256.0,124.8" fill="none" stroke="#1f77b4" stroke-width="1.6"/>
<circle cx="46.0" cy="86.8" r="2" fill="#1f77b4"/>
<circle cx="98.5" cy="114.8" r="2" fill="#1f77b4"/>
<circle cx="151.0" cy="116.6" r="2" fill="#1f77b4"/>
<circle cx="177.2" cy="120.2" r="2" fill="#1f77b4"/>
<circle cx="203.5" cy="117.0" r="2" fill="#1f77b4"/>
<circle cx="229.8" cy="121.1" r="2" fill="#1f77b4"/>
<circle cx="256.0" cy="124.8" r="2" fill="#1f77b4"/>
<text x="151.0" y="55" text-anchor="middle" font-size="12" font-weight="bold">zpotrf</text>
<line x1="46.0" y1="60" x2="46.0" y2="198" stroke="#f4f4f4"/>
<text x="46.0" y="209" text-anchor="middle" font-size="8" fill="#999">8</text>
<line x1="98.5" y1="60" x2="98.5" y2="198" stroke="#f4f4f4"/>
<text x="98.5" y="209" text-anchor="middle" font-size="8" fill="#999">32</text>
<line x1="151.0" y1="60" x2="151.0" y2="198" stroke="#f4f4f4"/>
<text x="151.0" y="209" text-anchor="middle" font-size="8" fill="#999">128</text>
<line x1="177.2" y1="60" x2="177.2" y2="198" stroke="#f4f4f4"/>
<text x="177.2" y="209" text-anchor="middle" font-size="8" fill="#999">256</text>
<line x1="203.5" y1="60" x2="203.5" y2="198" stroke="#f4f4f4"/>
<text x="203.5" y="209" text-anchor="middle" font-size="8" fill="#999">512</text>
<line x1="229.8" y1="60" x2="229.8" y2="198" stroke="#f4f4f4"/>
<text x="229.8" y="209" text-anchor="middle" font-size="8" fill="#999">1k</text>
<line x1="256.0" y1="60" x2="256.0" y2="198" stroke="#f4f4f4"/>
<text x="256.0" y="209" text-anchor="middle" font-size="8" fill="#999">2k</text>
<rect x="276" y="60" width="210" height="138" fill="none" stroke="#e2e2e2"/>
<line x1="276" y1="115.34205439353485" x2="486" y2="115.34205439353485" stroke="#d33" stroke-dasharray="4 3"/>
<text x="272" y="199.9588475039082" text-anchor="end" font-size="9" fill="#999">0.5×</text>
<text x="272" y="118.34205439353485" text-anchor="end" font-size="9" fill="#999">1.0×</text>
<text x="272" y="63.0" text-anchor="end" font-size="9" fill="#999">1.6×</text>
<polygon points="276.0,102.8 328.5,164.8 381.0,168.9 407.2,151.0 433.5,140.0 459.8,143.8 486.0,143.8 486.0,146.0 459.8,144.9 433.5,141.3 407.2,154.0 381.0,170.6 328.5,168.8 276.0,105.4" fill="#d62728" opacity="0.11"/>
<polyline points="276.0,104.4 328.5,168.4 381.0,169.7 407.2,152.3 433.5,140.9 459.8,144.2 486.0,144.7" fill="none" stroke="#d62728" stroke-width="1.6"/>
<circle cx="276.0" cy="104.4" r="2" fill="#d62728"/>
<circle cx="328.5" cy="168.4" r="2" fill="#d62728"/>
<circle cx="381.0" cy="169.7" r="2" fill="#d62728"/>
<circle cx="407.2" cy="152.3" r="2" fill="#d62728"/>
<circle cx="433.5" cy="140.9" r="2" fill="#d62728"/>
<circle cx="459.8" cy="144.2" r="2" fill="#d62728"/>
<circle cx="486.0" cy="144.7" r="2" fill="#d62728"/>
<polygon points="276.0,107.9 328.5,170.1 381.0,166.4 407.2,126.9 433.5,119.6 459.8,115.5 486.0,109.1 486.0,112.7 459.8,118.1 433.5,123.8 407.2,160.8 381.0,189.5 328.5,181.3 276.0,128.0" fill="#2ca02c" opacity="0.11"/>
<polyline points="276.0,119.4 328.5,177.3 381.0,188.6 407.2,129.7 433.5,122.2 459.8,117.7 486.0,111.0" fill="none" stroke="#2ca02c" stroke-width="1.6"/>
<circle cx="276.0" cy="119.4" r="2" fill="#2ca02c"/>
<circle cx="328.5" cy="177.3" r="2" fill="#2ca02c"/>
<circle cx="381.0" cy="188.6" r="2" fill="#2ca02c"/>
<circle cx="407.2" cy="129.7" r="2" fill="#2ca02c"/>
<circle cx="433.5" cy="122.2" r="2" fill="#2ca02c"/>
<circle cx="459.8" cy="117.7" r="2" fill="#2ca02c"/>
<circle cx="486.0" cy="111.0" r="2" fill="#2ca02c"/>
<polygon points="276.0,124.0 328.5,173.8 381.0,171.3 407.2,133.8 433.5,118.3 459.8,107.6 486.0,101.3 486.0,103.5 459.8,112.3 433.5,119.1 407.2,135.8 381.0,173.3 328.5,178.9 276.0,129.8" fill="#1f77b4" opacity="0.11"/>
<polyline points="276.0,127.3 328.5,177.4 381.0,172.5 407.2,134.7 433.5,118.7 459.8,111.6 486.0,102.2" fill="none" stroke="#1f77b4" stroke-width="1.6"/>
<circle cx="276.0" cy="127.3" r="2" fill="#1f77b4"/>
<circle cx="328.5" cy="177.4" r="2" fill="#1f77b4"/>
<circle cx="381.0" cy="172.5" r="2" fill="#1f77b4"/>
<circle cx="407.2" cy="134.7" r="2" fill="#1f77b4"/>
<circle cx="433.5" cy="118.7" r="2" fill="#1f77b4"/>
<circle cx="459.8" cy="111.6" r="2" fill="#1f77b4"/>
<circle cx="486.0" cy="102.2" r="2" fill="#1f77b4"/>
<text x="381.0" y="55" text-anchor="middle" font-size="12" font-weight="bold">zgeqrf</text>
<line x1="276.0" y1="60" x2="276.0" y2="198" stroke="#f4f4f4"/>
<text x="276.0" y="209" text-anchor="middle" font-size="8" fill="#999">8</text>
<line x1="328.5" y1="60" x2="328.5" y2="198" stroke="#f4f4f4"/>
<text x="328.5" y="209" text-anchor="middle" font-size="8" fill="#999">32</text>
<line x1="381.0" y1="60" x2="381.0" y2="198" stroke="#f4f4f4"/>
<text x="381.0" y="209" text-anchor="middle" font-size="8" fill="#999">128</text>
<line x1="407.2" y1="60" x2="407.2" y2="198" stroke="#f4f4f4"/>
<text x="407.2" y="209" text-anchor="middle" font-size="8" fill="#999">256</text>
<line x1="433.5" y1="60" x2="433.5" y2="198" stroke="#f4f4f4"/>
<text x="433.5" y="209" text-anchor="middle" font-size="8" fill="#999">512</text>
<line x1="459.8" y1="60" x2="459.8" y2="198" stroke="#f4f4f4"/>
<text x="459.8" y="209" text-anchor="middle" font-size="8" fill="#999">1k</text>
<line x1="486.0" y1="60" x2="486.0" y2="198" stroke="#f4f4f4"/>
<text x="486.0" y="209" text-anchor="middle" font-size="8" fill="#999">2k</text>
<rect x="506" y="60" width="210" height="138" fill="none" stroke="#e2e2e2"/>
<line x1="506" y1="130.7688488955809" x2="716" y2="130.7688488955809" stroke="#d33" stroke-dasharray="4 3"/>
<text x="502" y="201.0" text-anchor="end" font-size="9" fill="#999">0.5×</text>
<text x="502" y="133.7688488955809" text-anchor="end" font-size="9" fill="#999">1.0×</text>
<text x="502" y="63.20096414684085" text-anchor="end" font-size="9" fill="#999">2.07×</text>
<polygon points="506.0,105.0 558.5,125.1 611.0,147.1 637.2,149.0 663.5,139.5 689.8,149.3 716.0,151.4 716.0,152.3 689.8,150.0 663.5,140.5 637.2,150.8 611.0,148.3 558.5,125.7 506.0,105.6" fill="#d62728" opacity="0.11"/>
<polyline points="506.0,105.2 558.5,125.5 611.0,147.7 637.2,149.7 663.5,139.9 689.8,149.6 716.0,151.9" fill="none" stroke="#d62728" stroke-width="1.6"/>
<circle cx="506.0" cy="105.2" r="2" fill="#d62728"/>
<circle cx="558.5" cy="125.5" r="2" fill="#d62728"/>
<circle cx="611.0" cy="147.7" r="2" fill="#d62728"/>
<circle cx="637.2" cy="149.7" r="2" fill="#d62728"/>
<circle cx="663.5" cy="139.9" r="2" fill="#d62728"/>
<circle cx="689.8" cy="149.6" r="2" fill="#d62728"/>
<circle cx="716.0" cy="151.9" r="2" fill="#d62728"/>
<polygon points="506.0,118.5 558.5,108.3 611.0,122.8 637.2,67.5 663.5,118.8 689.8,131.1 716.0,125.5 716.0,127.2 689.8,133.1 663.5,126.6 637.2,130.1 611.0,130.9 558.5,125.9 506.0,129.1" fill="#2ca02c" opacity="0.11"/>
<polyline points="506.0,120.6 558.5,123.0 611.0,130.0 637.2,129.5 663.5,123.4 689.8,132.1 716.0,126.2" fill="none" stroke="#2ca02c" stroke-width="1.6"/>
<circle cx="506.0" cy="120.6" r="2" fill="#2ca02c"/>
<circle cx="558.5" cy="123.0" r="2" fill="#2ca02c"/>
<circle cx="611.0" cy="130.0" r="2" fill="#2ca02c"/>
<circle cx="637.2" cy="129.5" r="2" fill="#2ca02c"/>
<circle cx="663.5" cy="123.4" r="2" fill="#2ca02c"/>
<circle cx="689.8" cy="132.1" r="2" fill="#2ca02c"/>
<circle cx="716.0" cy="126.2" r="2" fill="#2ca02c"/>
<polygon points="506.0,121.3 558.5,127.3 611.0,136.4 637.2,135.6 663.5,132.6 689.8,140.5 716.0,132.2 716.0,132.9 689.8,142.7 663.5,133.5 637.2,137.9 611.0,137.2 558.5,128.6 506.0,122.5" fill="#1f77b4" opacity="0.11"/>
<polyline points="506.0,121.7 558.5,127.7 611.0,136.7 637.2,136.2 663.5,133.2 689.8,142.2 716.0,132.4" fill="none" stroke="#1f77b4" stroke-width="1.6"/>
<circle cx="506.0" cy="121.7" r="2" fill="#1f77b4"/>
<circle cx="558.5" cy="127.7" r="2" fill="#1f77b4"/>
<circle cx="611.0" cy="136.7" r="2" fill="#1f77b4"/>
<circle cx="637.2" cy="136.2" r="2" fill="#1f77b4"/>
<circle cx="663.5" cy="133.2" r="2" fill="#1f77b4"/>
<circle cx="689.8" cy="142.2" r="2" fill="#1f77b4"/>
<circle cx="716.0" cy="132.4" r="2" fill="#1f77b4"/>
<text x="611.0" y="55" text-anchor="middle" font-size="12" font-weight="bold">zgetrf</text>
<line x1="506.0" y1="60" x2="506.0" y2="198" stroke="#f4f4f4"/>
<text x="506.0" y="209" text-anchor="middle" font-size="8" fill="#999">8</text>
<line x1="558.5" y1="60" x2="558.5" y2="198" stroke="#f4f4f4"/>
<text x="558.5" y="209" text-anchor="middle" font-size="8" fill="#999">32</text>
<line x1="611.0" y1="60" x2="611.0" y2="198" stroke="#f4f4f4"/>
<text x="611.0" y="209" text-anchor="middle" font-size="8" fill="#999">128</text>
<line x1="637.2" y1="60" x2="637.2" y2="198" stroke="#f4f4f4"/>
<text x="637.2" y="209" text-anchor="middle" font-size="8" fill="#999">256</text>
<line x1="663.5" y1="60" x2="663.5" y2="198" stroke="#f4f4f4"/>
<text x="663.5" y="209" text-anchor="middle" font-size="8" fill="#999">512</text>
<line x1="689.8" y1="60" x2="689.8" y2="198" stroke="#f4f4f4"/>
<text x="689.8" y="209" text-anchor="middle" font-size="8" fill="#999">1k</text>
<line x1="716.0" y1="60" x2="716.0" y2="198" stroke="#f4f4f4"/>
<text x="716.0" y="209" text-anchor="middle" font-size="8" fill="#999">2k</text>
<rect x="736" y="60" width="210" height="138" fill="none" stroke="#e2e2e2"/>
<line x1="736" y1="83.24714188751773" x2="946" y2="83.24714188751773" stroke="#d33" stroke-dasharray="4 3"/>
<text x="732" y="86.24714188751773" text-anchor="end" font-size="9" fill="#999">1.0×</text>
<text x="732" y="63.08587678285382" text-anchor="end" font-size="9" fill="#999">1.91×</text>
<polygon points="736.0,63.9 796.0,85.4 856.0,127.1 886.0,160.4 916.0,171.7 946.0,179.2 946.0,183.0 916.0,176.1 886.0,162.9 856.0,131.3 796.0,86.2 736.0,67.6" fill="#d62728" opacity="0.11"/>
<polyline points="736.0,64.0 796.0,85.9 856.0,129.2 886.0,160.9 916.0,173.3 946.0,181.9" fill="none" stroke="#d62728" stroke-width="1.6"/>
<circle cx="736.0" cy="64.0" r="2" fill="#d62728"/>
<circle cx="796.0" cy="85.9" r="2" fill="#d62728"/>
<circle cx="856.0" cy="129.2" r="2" fill="#d62728"/>
<circle cx="886.0" cy="160.9" r="2" fill="#d62728"/>
<circle cx="916.0" cy="173.3" r="2" fill="#d62728"/>
<circle cx="946.0" cy="181.9" r="2" fill="#d62728"/>
<polygon points="736.0,62.8 796.0,83.2 856.0,134.1 886.0,160.6 916.0,172.6 946.0,179.6 946.0,181.3 916.0,174.1 886.0,164.1 856.0,136.7 796.0,85.2 736.0,73.4" fill="#2ca02c" opacity="0.11"/>
<polyline points="736.0,63.5 796.0,84.7 856.0,135.2 886.0,161.3 916.0,173.4 946.0,180.4" fill="none" stroke="#2ca02c" stroke-width="1.6"/>
<circle cx="736.0" cy="63.5" r="2" fill="#2ca02c"/>
<circle cx="796.0" cy="84.7" r="2" fill="#2ca02c"/>
<circle cx="856.0" cy="135.2" r="2" fill="#2ca02c"/>
<circle cx="886.0" cy="161.3" r="2" fill="#2ca02c"/>
<circle cx="916.0" cy="173.4" r="2" fill="#2ca02c"/>
<circle cx="946.0" cy="180.4" r="2" fill="#2ca02c"/>
<polygon points="736.0,64.7 796.0,83.5 856.0,143.7 886.0,176.1 916.0,186.0 946.0,185.5 946.0,195.4 916.0,187.0 886.0,177.5 856.0,146.0 796.0,84.6 736.0,68.6" fill="#1f77b4" opacity="0.11"/>
<polyline points="736.0,65.0 796.0,84.5 856.0,145.9 886.0,177.2 916.0,186.7 946.0,189.3" fill="none" stroke="#1f77b4" stroke-width="1.6"/>
<circle cx="736.0" cy="65.0" r="2" fill="#1f77b4"/>
<circle cx="796.0" cy="84.5" r="2" fill="#1f77b4"/>
<circle cx="856.0" cy="145.9" r="2" fill="#1f77b4"/>
<circle cx="886.0" cy="177.2" r="2" fill="#1f77b4"/>
<circle cx="916.0" cy="186.7" r="2" fill="#1f77b4"/>
<circle cx="946.0" cy="189.3" r="2" fill="#1f77b4"/>
<text x="841.0" y="55" text-anchor="middle" font-size="12" font-weight="bold">zgesvd</text>
<line x1="736.0" y1="60" x2="736.0" y2="198" stroke="#f4f4f4"/>
<text x="736.0" y="209" text-anchor="middle" font-size="8" fill="#999">8</text>
<line x1="796.0" y1="60" x2="796.0" y2="198" stroke="#f4f4f4"/>
<text x="796.0" y="209" text-anchor="middle" font-size="8" fill="#999">32</text>
<line x1="856.0" y1="60" x2="856.0" y2="198" stroke="#f4f4f4"/>
<text x="856.0" y="209" text-anchor="middle" font-size="8" fill="#999">128</text>
<line x1="886.0" y1="60" x2="886.0" y2="198" stroke="#f4f4f4"/>
<text x="886.0" y="209" text-anchor="middle" font-size="8" fill="#999">256</text>
<line x1="916.0" y1="60" x2="916.0" y2="198" stroke="#f4f4f4"/>
<text x="916.0" y="209" text-anchor="middle" font-size="8" fill="#999">512</text>
<line x1="946.0" y1="60" x2="946.0" y2="198" stroke="#f4f4f4"/>
<text x="946.0" y="209" text-anchor="middle" font-size="8" fill="#999">1k</text>
</svg>
