<svg xmlns="http://www.w3.org/2000/svg" width="962" height="592" font-family="sans-serif">
<rect width="962" height="592" fill="white"/>
<text x="481.0" y="26" text-anchor="middle" font-size="17" font-weight="bold">Complex BLAS-3 — PureBLAS / AOCL (PB/AOCL ratio)</text>
<line x1="46" y1="42" x2="68" y2="42" stroke="#888888" stroke-width="3"/>
<text x="73" y="46" font-size="12">AVX2</text>
<line x1="127" y1="42" x2="149" y2="42" stroke="#888888" stroke-width="3"/>
<text x="154" y="46" font-size="12">Zen5</text>
<line x1="208" y1="42" x2="230" y2="42" stroke="#888888" stroke-width="3"/>
<text x="235" y="46" font-size="12">AVX-512</text>
<rect x="46" y="60" width="210" height="138" fill="none" stroke="#e2e2e2"/>
<line x1="46" y1="143.11945298698896" x2="256" y2="143.11945298698896" stroke="#d33" stroke-dasharray="4 3"/>
<text x="42" y="201.0" text-anchor="end" font-size="9" fill="#999">0.5×</text>
<text x="42" y="146.11945298698896" text-anchor="end" font-size="9" fill="#999">1.0×</text>
<polygon points="46.0,66.1 106.0,152.4 166.0,135.1 196.0,129.8 226.0,125.4 256.0,126.1 256.0,131.9 226.0,126.4 196.0,130.2 166.0,136.3 106.0,156.9 46.0,75.8" fill="#888888" opacity="0.11"/>
<polyline points="46.0,75.6 106.0,154.0 166.0,135.8 196.0,130.2 226.0,125.5 256.0,127.5" fill="none" stroke="#888888" stroke-width="1.6"/>
<circle cx="46.0" cy="75.6" r="2" fill="#888888"/>
<circle cx="106.0" cy="154.0" r="2" fill="#888888"/>
<circle cx="166.0" cy="135.8" r="2" fill="#888888"/>
<circle cx="196.0" cy="130.2" r="2" fill="#888888"/>
<circle cx="226.0" cy="125.5" r="2" fill="#888888"/>
<circle cx="256.0" cy="127.5" r="2" fill="#888888"/>
<polygon points="46.0,76.7 106.0,138.0 166.0,146.4 196.0,140.6 226.0,142.9 256.0,142.3 256.0,142.5 226.0,143.4 196.0,141.3 166.0,146.9 106.0,141.8 46.0,106.8" fill="#888888" opacity="0.11"/>
<polyline points="46.0,79.7 106.0,140.7 166.0,146.6 196.0,141.2 226.0,143.3 256.0,142.5" fill="none" stroke="#888888" stroke-width="1.6"/>
<circle cx="46.0" cy="79.7" r="2" fill="#888888"/>
<circle cx="106.0" cy="140.7" r="2" fill="#888888"/>
<circle cx="166.0" cy="146.6" r="2" fill="#888888"/>
<circle cx="196.0" cy="141.2" r="2" fill="#888888"/>
<circle cx="226.0" cy="143.3" r="2" fill="#888888"/>
<circle cx="256.0" cy="142.5" r="2" fill="#888888"/>
<polygon points="46.0,89.0 106.0,145.2 166.0,143.1 196.0,142.3 226.0,138.0 256.0,141.7 256.0,148.8 226.0,142.2 196.0,142.6 166.0,143.5 106.0,186.8 46.0,90.3" fill="#888888" opacity="0.11"/>
<polyline points="46.0,89.8 106.0,181.1 166.0,143.4 196.0,142.4 226.0,142.0 256.0,144.7" fill="none" stroke="#888888" stroke-width="1.6"/>
<circle cx="46.0" cy="89.8" r="2" fill="#888888"/>
<circle cx="106.0" cy="181.1" r="2" fill="#888888"/>
<circle cx="166.0" cy="143.4" r="2" fill="#888888"/>
<circle cx="196.0" cy="142.4" r="2" fill="#888888"/>
<circle cx="226.0" cy="142.0" r="2" fill="#888888"/>
<circle cx="256.0" cy="144.7" r="2" fill="#888888"/>
<text x="151.0" y="55" text-anchor="middle" font-size="12" font-weight="bold">zgemm</text>
<line x1="46.0" y1="60" x2="46.0" y2="198" stroke="#f4f4f4"/>
<text x="46.0" y="209" text-anchor="middle" font-size="8" fill="#999">8</text>
<line x1="106.0" y1="60" x2="106.0" y2="198" stroke="#f4f4f4"/>
<text x="106.0" y="209" text-anchor="middle" font-size="8" fill="#999">32</text>
<line x1="166.0" y1="60" x2="166.0" y2="198" stroke="#f4f4f4"/>
<text x="166.0" y="209" text-anchor="middle" font-size="8" fill="#999">128</text>
<line x1="196.0" y1="60" x2="196.0" y2="198" stroke="#f4f4f4"/>
<text x="196.0" y="209" text-anchor="middle" font-size="8" fill="#999">256</text>
<line x1="226.0" y1="60" x2="226.0" y2="198" stroke="#f4f4f4"/>
<text x="226.0" y="209" text-anchor="middle" font-size="8" fill="#999">512</text>
<line x1="256.0" y1="60" x2="256.0" y2="198" stroke="#f4f4f4"/>
<text x="256.0" y="209" text-anchor="middle" font-size="8" fill="#999">1k</text>
<rect x="276" y="60" width="210" height="138" fill="none" stroke="#e2e2e2"/>
<line x1="276" y1="174.61293567433754" x2="486" y2="174.61293567433754" stroke="#d33" stroke-dasharray="4 3"/>
<text x="272" y="201.0" text-anchor="end" font-size="9" fill="#999">0.5×</text>
<text x="272" y="177.61293567433754" text-anchor="end" font-size="9" fill="#999">1.0×</text>
<text x="272" y="63.001695786345614" text-anchor="end" font-size="9" fill="#999">29.87×</text>
<polygon points="276.0,87.5 336.0,159.8 396.0,168.7 426.0,169.1 456.0,168.0 486.0,167.2 486.0,167.3 456.0,168.3 426.0,169.1 396.0,169.7 336.0,160.1 276.0,92.0" fill="#888888" opacity="0.11"/>
<polyline points="276.0,88.0 336.0,159.9 396.0,169.1 426.0,169.1 456.0,168.0 486.0,167.3" fill="none" stroke="#888888" stroke-width="1.6"/>
<circle cx="276.0" cy="88.0" r="2" fill="#888888"/>
<circle cx="336.0" cy="159.9" r="2" fill="#888888"/>
<circle cx="396.0" cy="169.1" r="2" fill="#888888"/>
<circle cx="426.0" cy="169.1" r="2" fill="#888888"/>
<circle cx="456.0" cy="168.0" r="2" fill="#888888"/>
<circle cx="486.0" cy="167.3" r="2" fill="#888888"/>
<polygon points="276.0,86.0 336.0,159.7 396.0,175.1 426.0,174.3 456.0,175.0 486.0,174.7 486.0,174.8 456.0,175.1 426.0,174.4 396.0,176.2 336.0,161.0 276.0,89.5" fill="#888888" opacity="0.11"/>
<polyline points="276.0,86.7 336.0,160.4 396.0,175.4 426.0,174.3 456.0,175.0 486.0,174.7" fill="none" stroke="#888888" stroke-width="1.6"/>
<circle cx="276.0" cy="86.7" r="2" fill="#888888"/>
<circle cx="336.0" cy="160.4" r="2" fill="#888888"/>
<circle cx="396.0" cy="175.4" r="2" fill="#888888"/>
<circle cx="426.0" cy="174.3" r="2" fill="#888888"/>
<circle cx="456.0" cy="175.0" r="2" fill="#888888"/>
<circle cx="486.0" cy="174.7" r="2" fill="#888888"/>
<polygon points="276.0,62.6 336.0,158.0 396.0,174.9 426.0,174.3 456.0,173.2 486.0,174.0 486.0,174.6 456.0,174.4 426.0,174.6 396.0,175.6 336.0,162.5 276.0,87.4" fill="#888888" opacity="0.11"/>
<polyline points="276.0,74.8 336.0,160.5 396.0,175.0 426.0,174.4 456.0,174.3 486.0,174.1" fill="none" stroke="#888888" stroke-width="1.6"/>
<circle cx="276.0" cy="74.8" r="2" fill="#888888"/>
<circle cx="336.0" cy="160.5" r="2" fill="#888888"/>
<circle cx="396.0" cy="175.0" r="2" fill="#888888"/>
<circle cx="426.0" cy="174.4" r="2" fill="#888888"/>
<circle cx="456.0" cy="174.3" r="2" fill="#888888"/>
<circle cx="486.0" cy="174.1" r="2" fill="#888888"/>
<text x="381.0" y="55" text-anchor="middle" font-size="12" font-weight="bold">zhemm</text>
<line x1="276.0" y1="60" x2="276.0" y2="198" stroke="#f4f4f4"/>
<text x="276.0" y="209" text-anchor="middle" font-size="8" fill="#999">8</text>
<line x1="336.0" y1="60" x2="336.0" y2="198" stroke="#f4f4f4"/>
<text x="336.0" y="209" text-anchor="middle" font-size="8" fill="#999">32</text>
<line x1="396.0" y1="60" x2="396.0" y2="198" stroke="#f4f4f4"/>
<text x="396.0" y="209" text-anchor="middle" font-size="8" fill="#999">128</text>
<line x1="426.0" y1="60" x2="426.0" y2="198" stroke="#f4f4f4"/>
<text x="426.0" y="209" text-anchor="middle" font-size="8" fill="#999">256</text>
<line x1="456.0" y1="60" x2="456.0" y2="198" stroke="#f4f4f4"/>
<text x="456.0" y="209" text-anchor="middle" font-size="8" fill="#999">512</text>
<line x1="486.0" y1="60" x2="486.0" y2="198" stroke="#f4f4f4"/>
<text x="486.0" y="209" text-anchor="middle" font-size="8" fill="#999">1k</text>
<rect x="506" y="60" width="210" height="138" fill="none" stroke="#e2e2e2"/>
<line x1="506" y1="175.23628385645463" x2="716" y2="175.23628385645463" stroke="#d33" stroke-dasharray="4 3"/>
<text x="502" y="201.0" text-anchor="end" font-size="9" fill="#999">0.5×</text>
<text x="502" y="178.23628385645463" text-anchor="end" font-size="9" fill="#999">1.0×</text>
<text x="502" y="63.001616119310576" text-anchor="end" font-size="9" fill="#999">33.41×</text>
<polygon points="506.0,85.3 566.0,164.2 626.0,172.4 656.0,170.9 686.0,168.9 716.0,168.4 716.0,168.4 686.0,169.4 656.0,170.9 626.0,172.4 566.0,164.7 506.0,85.9" fill="#888888" opacity="0.11"/>
<polyline points="506.0,85.7 566.0,164.3 626.0,172.4 656.0,170.9 686.0,168.9 716.0,168.4" fill="none" stroke="#888888" stroke-width="1.6"/>
<circle cx="506.0" cy="85.7" r="2" fill="#888888"/>
<circle cx="566.0" cy="164.3" r="2" fill="#888888"/>
<circle cx="626.0" cy="172.4" r="2" fill="#888888"/>
<circle cx="656.0" cy="170.9" r="2" fill="#888888"/>
<circle cx="686.0" cy="168.9" r="2" fill="#888888"/>
<circle cx="716.0" cy="168.4" r="2" fill="#888888"/>
<polygon points="506.0,87.0 566.0,162.3 626.0,176.0 656.0,175.7 686.0,176.1 716.0,175.3 716.0,175.4 686.0,177.0 656.0,175.9 626.0,176.2 566.0,162.9 506.0,87.7" fill="#888888" opacity="0.11"/>
<polyline points="506.0,87.5 566.0,162.5 626.0,176.1 656.0,175.8 686.0,176.8 716.0,175.3" fill="none" stroke="#888888" stroke-width="1.6"/>
<circle cx="506.0" cy="87.5" r="2" fill="#888888"/>
<circle cx="566.0" cy="162.5" r="2" fill="#888888"/>
<circle cx="626.0" cy="176.1" r="2" fill="#888888"/>
<circle cx="656.0" cy="175.8" r="2" fill="#888888"/>
<circle cx="686.0" cy="176.8" r="2" fill="#888888"/>
<circle cx="716.0" cy="175.3" r="2" fill="#888888"/>
<polygon points="506.0,62.5 566.0,158.3 626.0,175.6 656.0,176.0 686.0,175.7 716.0,176.2 716.0,185.5 686.0,177.1 656.0,179.5 626.0,175.9 566.0,168.2 506.0,86.3" fill="#888888" opacity="0.11"/>
<polyline points="506.0,69.6 566.0,162.1 626.0,175.7 656.0,176.1 686.0,175.8 716.0,176.6" fill="none" stroke="#888888" stroke-width="1.6"/>
<circle cx="506.0" cy="69.6" r="2" fill="#888888"/>
<circle cx="566.0" cy="162.1" r="2" fill="#888888"/>
<circle cx="626.0" cy="175.7" r="2" fill="#888888"/>
<circle cx="656.0" cy="176.1" r="2" fill="#888888"/>
<circle cx="686.0" cy="175.8" r="2" fill="#888888"/>
<circle cx="716.0" cy="176.6" r="2" fill="#888888"/>
<text x="611.0" y="55" text-anchor="middle" font-size="12" font-weight="bold">zsymm</text>
<line x1="506.0" y1="60" x2="506.0" y2="198" stroke="#f4f4f4"/>
<text x="506.0" y="209" text-anchor="middle" font-size="8" fill="#999">8</text>
<line x1="566.0" y1="60" x2="566.0" y2="198" stroke="#f4f4f4"/>
<text x="566.0" y="209" text-anchor="middle" font-size="8" fill="#999">32</text>
<line x1="626.0" y1="60" x2="626.0" y2="198" stroke="#f4f4f4"/>
<text x="626.0" y="209" text-anchor="middle" font-size="8" fill="#999">128</text>
<line x1="656.0" y1="60" x2="656.0" y2="198" stroke="#f4f4f4"/>
<text x="656.0" y="209" text-anchor="middle" font-size="8" fill="#999">256</text>
<line x1="686.0" y1="60" x2="686.0" y2="198" stroke="#f4f4f4"/>
<text x="686.0" y="209" text-anchor="middle" font-size="8" fill="#999">512</text>
<line x1="716.0" y1="60" x2="716.0" y2="198" stroke="#f4f4f4"/>
<text x="716.0" y="209" text-anchor="middle" font-size="8" fill="#999">1k</text>
<rect x="736" y="60" width="210" height="138" fill="none" stroke="#e2e2e2"/>
<line x1="736" y1="175.55667988085145" x2="946" y2="175.55667988085145" stroke="#d33" stroke-dasharray="4 3"/>
<text x="732" y="201.0" text-anchor="end" font-size="9" fill="#999">0.5×</text>
<text x="732" y="178.55667988085145" text-anchor="end" font-size="9" fill="#999">1.0×</text>
<polygon points="736.0,109.2 796.0,167.9 856.0,174.1 886.0,170.4 916.0,168.8 946.0,168.6 946.0,168.7 916.0,168.9 886.0,170.7 856.0,174.3 796.0,169.6 736.0,117.4" fill="#888888" opacity="0.11"/>
<polyline points="736.0,109.4 796.0,168.7 856.0,174.2 886.0,170.6 916.0,168.8 946.0,168.7" fill="none" stroke="#888888" stroke-width="1.6"/>
<circle cx="736.0" cy="109.4" r="2" fill="#888888"/>
<circle cx="796.0" cy="168.7" r="2" fill="#888888"/>
<circle cx="856.0" cy="174.2" r="2" fill="#888888"/>
<circle cx="886.0" cy="170.6" r="2" fill="#888888"/>
<circle cx="916.0" cy="168.8" r="2" fill="#888888"/>
<circle cx="946.0" cy="168.7" r="2" fill="#888888"/>
<polygon points="736.0,113.3 796.0,174.4 856.0,175.5 886.0,176.6 916.0,176.1 946.0,175.6 946.0,175.9 916.0,176.5 886.0,176.8 856.0,175.7 796.0,174.9 736.0,115.3" fill="#888888" opacity="0.11"/>
<polyline points="736.0,114.6 796.0,174.8 856.0,175.6 886.0,176.7 916.0,176.4 946.0,175.7" fill="none" stroke="#888888" stroke-width="1.6"/>
<circle cx="736.0" cy="114.6" r="2" fill="#888888"/>
<circle cx="796.0" cy="174.8" r="2" fill="#888888"/>
<circle cx="856.0" cy="175.6" r="2" fill="#888888"/>
<circle cx="886.0" cy="176.7" r="2" fill="#888888"/>
<circle cx="916.0" cy="176.4" r="2" fill="#888888"/>
<circle cx="946.0" cy="175.7" r="2" fill="#888888"/>
<polygon points="736.0,62.5 796.0,161.7 856.0,174.1 886.0,176.0 916.0,175.6 946.0,168.9 946.0,175.5 916.0,179.2 886.0,177.9 856.0,175.0 796.0,172.8 736.0,105.3" fill="#888888" opacity="0.11"/>
<polyline points="736.0,104.4 796.0,171.9 856.0,174.7 886.0,176.2 916.0,176.3 946.0,174.7" fill="none" stroke="#888888" stroke-width="1.6"/>
<circle cx="736.0" cy="104.4" r="2" fill="#888888"/>
<circle cx="796.0" cy="171.9" r="2" fill="#888888"/>
<circle cx="856.0" cy="174.7" r="2" fill="#888888"/>
<circle cx="886.0" cy="176.2" r="2" fill="#888888"/>
<circle cx="916.0" cy="176.3" r="2" fill="#888888"/>
<circle cx="946.0" cy="174.7" r="2" fill="#888888"/>
<text x="841.0" y="55" text-anchor="middle" font-size="12" font-weight="bold">zsyrk</text>
<line x1="736.0" y1="60" x2="736.0" y2="198" stroke="#f4f4f4"/>
<text x="736.0" y="209" text-anchor="middle" font-size="8" fill="#999">8</text>
<line x1="796.0" y1="60" x2="796.0" y2="198" stroke="#f4f4f4"/>
<text x="796.0" y="209" text-anchor="middle" font-size="8" fill="#999">32</text>
<line x1="856.0" y1="60" x2="856.0" y2="198" stroke="#f4f4f4"/>
<text x="856.0" y="209" text-anchor="middle" font-size="8" fill="#999">128</text>
<line x1="886.0" y1="60" x2="886.0" y2="198" stroke="#f4f4f4"/>
<text x="886.0" y="209" text-anchor="middle" font-size="8" fill="#999">256</text>
<line x1="916.0" y1="60" x2="916.0" y2="198" stroke="#f4f4f4"/>
<text x="916.0" y="209" text-anchor="middle" font-size="8" fill="#999">512</text>
<line x1="946.0" y1="60" x2="946.0" y2="198" stroke="#f4f4f4"/>
<text x="946.0" y="209" text-anchor="middle" font-size="8" fill="#999">1k</text>
<rect x="46" y="232" width="210" height="138" fill="none" stroke="#e2e2e2"/>
<line x1="46" y1="349.59321850973606" x2="256" y2="349.59321850973606" stroke="#d33" stroke-dasharray="4 3"/>
<text x="42" y="373.0" text-anchor="end" font-size="9" fill="#999">0.5×</text>
<text x="42" y="352.59321850973606" text-anchor="end" font-size="9" fill="#999">1.0×</text>
<text x="42" y="235.0022253582051" text-anchor="end" font-size="9" fill="#999">54.28×</text>
<polygon points="46.0,263.8 106.0,325.5 166.0,344.3 196.0,344.5 226.0,343.0 256.0,343.2 256.0,343.4 226.0,343.2 196.0,344.6 166.0,344.5 106.0,328.5 46.0,270.1" fill="#888888" opacity="0.11"/>
<polyline points="46.0,263.9 106.0,327.2 166.0,344.5 196.0,344.6 226.0,343.0 256.0,343.3" fill="none" stroke="#888888" stroke-width="1.6"/>
<circle cx="46.0" cy="263.9" r="2" fill="#888888"/>
<circle cx="106.0" cy="327.2" r="2" fill="#888888"/>
<circle cx="166.0" cy="344.5" r="2" fill="#888888"/>
<circle cx="196.0" cy="344.6" r="2" fill="#888888"/>
<circle cx="226.0" cy="343.0" r="2" fill="#888888"/>
<circle cx="256.0" cy="343.3" r="2" fill="#888888"/>
<polygon points="46.0,259.7 106.0,333.2 166.0,346.7 196.0,349.4 226.0,348.1 256.0,349.4 256.0,349.7 226.0,349.9 196.0,349.5 166.0,347.6 106.0,335.0 46.0,259.8" fill="#888888" opacity="0.11"/>
<polyline points="46.0,259.7 106.0,333.4 166.0,347.1 196.0,349.4 226.0,348.1 256.0,349.5" fill="none" stroke="#888888" stroke-width="1.6"/>
<circle cx="46.0" cy="259.7" r="2" fill="#888888"/>
<circle cx="106.0" cy="333.4" r="2" fill="#888888"/>
<circle cx="166.0" cy="347.1" r="2" fill="#888888"/>
<circle cx="196.0" cy="349.4" r="2" fill="#888888"/>
<circle cx="226.0" cy="348.1" r="2" fill="#888888"/>
<circle cx="256.0" cy="349.5" r="2" fill="#888888"/>
<polygon points="46.0,234.3 106.0,329.4 166.0,322.9 196.0,348.0 226.0,347.7 256.0,349.6 256.0,350.2 226.0,349.3 196.0,349.6 166.0,347.2 106.0,335.3 46.0,259.5" fill="#888888" opacity="0.11"/>
<polyline points="46.0,235.8 106.0,330.6 166.0,347.0 196.0,349.5 226.0,349.2 256.0,350.1" fill="none" stroke="#888888" stroke-width="1.6"/>
<circle cx="46.0" cy="235.8" r="2" fill="#888888"/>
<circle cx="106.0" cy="330.6" r="2" fill="#888888"/>
<circle cx="166.0" cy="347.0" r="2" fill="#888888"/>
<circle cx="196.0" cy="349.5" r="2" fill="#888888"/>
<circle cx="226.0" cy="349.2" r="2" fill="#888888"/>
<circle cx="256.0" cy="350.1" r="2" fill="#888888"/>
<text x="151.0" y="227" text-anchor="middle" font-size="12" font-weight="bold">zherk</text>
<line x1="46.0" y1="232" x2="46.0" y2="370" stroke="#f4f4f4"/>
<text x="46.0" y="381" text-anchor="middle" font-size="8" fill="#999">8</text>
<line x1="106.0" y1="232" x2="106.0" y2="370" stroke="#f4f4f4"/>
<text x="106.0" y="381" text-anchor="middle" font-size="8" fill="#999">32</text>
<line x1="166.0" y1="232" x2="166.0" y2="370" stroke="#f4f4f4"/>
<text x="166.0" y="381" text-anchor="middle" font-size="8" fill="#999">128</text>
<line x1="196.0" y1="232" x2="196.0" y2="370" stroke="#f4f4f4"/>
<text x="196.0" y="381" text-anchor="middle" font-size="8" fill="#999">256</text>
<line x1="226.0" y1="232" x2="226.0" y2="370" stroke="#f4f4f4"/>
<text x="226.0" y="381" text-anchor="middle" font-size="8" fill="#999">512</text>
<line x1="256.0" y1="232" x2="256.0" y2="370" stroke="#f4f4f4"/>
<text x="256.0" y="381" text-anchor="middle" font-size="8" fill="#999">1k</text>
<rect x="276" y="232" width="210" height="138" fill="none" stroke="#e2e2e2"/>
<line x1="276" y1="349.5317240344888" x2="486" y2="349.5317240344888" stroke="#d33" stroke-dasharray="4 3"/>
<text x="272" y="373.0" text-anchor="end" font-size="9" fill="#999">0.5×</text>
<text x="272" y="352.5317240344888" text-anchor="end" font-size="9" fill="#999">1.0×</text>
<text x="272" y="235.00275631478917" text-anchor="end" font-size="9" fill="#999">53.52×</text>
<polygon points="276.0,262.8 336.0,323.2 396.0,343.5 426.0,344.2 456.0,342.8 486.0,343.0 486.0,343.2 456.0,343.1 426.0,344.3 396.0,343.6 336.0,325.2 276.0,263.5" fill="#888888" opacity="0.11"/>
<polyline points="276.0,263.1 336.0,324.2 396.0,343.6 426.0,344.3 456.0,342.8 486.0,343.1" fill="none" stroke="#888888" stroke-width="1.6"/>
<circle cx="276.0" cy="263.1" r="2" fill="#888888"/>
<circle cx="336.0" cy="324.2" r="2" fill="#888888"/>
<circle cx="396.0" cy="343.6" r="2" fill="#888888"/>
<circle cx="426.0" cy="344.3" r="2" fill="#888888"/>
<circle cx="456.0" cy="342.8" r="2" fill="#888888"/>
<circle cx="486.0" cy="343.1" r="2" fill="#888888"/>
<polygon points="276.0,258.6 336.0,331.1 396.0,346.6 426.0,348.6 456.0,349.2 486.0,348.8 486.0,349.1 456.0,349.8 426.0,349.1 396.0,346.9 336.0,333.8 276.0,260.1" fill="#888888" opacity="0.11"/>
<polyline points="276.0,258.8 336.0,331.6 396.0,346.7 426.0,349.1 456.0,349.3 486.0,348.9" fill="none" stroke="#888888" stroke-width="1.6"/>
<circle cx="276.0" cy="258.8" r="2" fill="#888888"/>
<circle cx="336.0" cy="331.6" r="2" fill="#888888"/>
<circle cx="396.0" cy="346.7" r="2" fill="#888888"/>
<circle cx="426.0" cy="349.1" r="2" fill="#888888"/>
<circle cx="456.0" cy="349.3" r="2" fill="#888888"/>
<circle cx="486.0" cy="348.9" r="2" fill="#888888"/>
<polygon points="276.0,234.3 336.0,327.1 396.0,337.4 426.0,349.1 456.0,348.2 486.0,349.8 486.0,350.0 456.0,349.4 426.0,349.6 396.0,346.6 336.0,332.4 276.0,242.9" fill="#888888" opacity="0.11"/>
<polyline points="276.0,242.5 336.0,329.7 396.0,346.1 426.0,349.2 456.0,349.2 486.0,349.9" fill="none" stroke="#888888" stroke-width="1.6"/>
<circle cx="276.0" cy="242.5" r="2" fill="#888888"/>
<circle cx="336.0" cy="329.7" r="2" fill="#888888"/>
<circle cx="396.0" cy="346.1" r="2" fill="#888888"/>
<circle cx="426.0" cy="349.2" r="2" fill="#888888"/>
<circle cx="456.0" cy="349.2" r="2" fill="#888888"/>
<circle cx="486.0" cy="349.9" r="2" fill="#888888"/>
<text x="381.0" y="227" text-anchor="middle" font-size="12" font-weight="bold">zher2k</text>
<line x1="276.0" y1="232" x2="276.0" y2="370" stroke="#f4f4f4"/>
<text x="276.0" y="381" text-anchor="middle" font-size="8" fill="#999">8</text>
<line x1="336.0" y1="232" x2="336.0" y2="370" stroke="#f4f4f4"/>
<text x="336.0" y="381" text-anchor="middle" font-size="8" fill="#999">32</text>
<line x1="396.0" y1="232" x2="396.0" y2="370" stroke="#f4f4f4"/>
<text x="396.0" y="381" text-anchor="middle" font-size="8" fill="#999">128</text>
<line x1="426.0" y1="232" x2="426.0" y2="370" stroke="#f4f4f4"/>
<text x="426.0" y="381" text-anchor="middle" font-size="8" fill="#999">256</text>
<line x1="456.0" y1="232" x2="456.0" y2="370" stroke="#f4f4f4"/>
<text x="456.0" y="381" text-anchor="middle" font-size="8" fill="#999">512</text>
<line x1="486.0" y1="232" x2="486.0" y2="370" stroke="#f4f4f4"/>
<text x="486.0" y="381" text-anchor="middle" font-size="8" fill="#999">1k</text>
<rect x="506" y="232" width="210" height="138" fill="none" stroke="#e2e2e2"/>
<line x1="506" y1="349.29256338727373" x2="716" y2="349.29256338727373" stroke="#d33" stroke-dasharray="4 3"/>
<text x="502" y="373.0" text-anchor="end" font-size="9" fill="#999">0.5×</text>
<text x="502" y="352.29256338727373" text-anchor="end" font-size="9" fill="#999">1.0×</text>
<text x="502" y="235.0015346932542" text-anchor="end" font-size="9" fill="#999">50.71×</text>
<polygon points="506.0,263.2 566.0,330.6 626.0,348.3 656.0,345.6 686.0,344.2 716.0,344.0 716.0,344.2 686.0,344.4 656.0,345.6 626.0,348.4 566.0,332.1 506.0,264.3" fill="#888888" opacity="0.11"/>
<polyline points="506.0,263.7 566.0,330.9 626.0,348.3 656.0,345.6 686.0,344.3 716.0,344.0" fill="none" stroke="#888888" stroke-width="1.6"/>
<circle cx="506.0" cy="263.7" r="2" fill="#888888"/>
<circle cx="566.0" cy="330.9" r="2" fill="#888888"/>
<circle cx="626.0" cy="348.3" r="2" fill="#888888"/>
<circle cx="656.0" cy="345.6" r="2" fill="#888888"/>
<circle cx="686.0" cy="344.3" r="2" fill="#888888"/>
<circle cx="716.0" cy="344.0" r="2" fill="#888888"/>
<polygon points="506.0,259.5 566.0,336.2 626.0,349.3 656.0,350.3 686.0,350.3 716.0,349.7 716.0,349.8 686.0,350.4 656.0,350.5 626.0,349.4 566.0,338.6 506.0,263.3" fill="#888888" opacity="0.11"/>
<polyline points="506.0,260.0 566.0,337.4 626.0,349.3 656.0,350.4 686.0,350.3 716.0,349.8" fill="none" stroke="#888888" stroke-width="1.6"/>
<circle cx="506.0" cy="260.0" r="2" fill="#888888"/>
<circle cx="566.0" cy="337.4" r="2" fill="#888888"/>
<circle cx="626.0" cy="349.3" r="2" fill="#888888"/>
<circle cx="656.0" cy="350.4" r="2" fill="#888888"/>
<circle cx="686.0" cy="350.3" r="2" fill="#888888"/>
<circle cx="716.0" cy="349.8" r="2" fill="#888888"/>
<polygon points="506.0,234.3 566.0,332.2 626.0,348.0 656.0,349.7 686.0,349.9 716.0,348.9 716.0,349.4 686.0,351.1 656.0,350.3 626.0,348.5 566.0,338.1 506.0,242.9" fill="#888888" opacity="0.11"/>
<polyline points="506.0,241.7 566.0,335.7 626.0,348.2 656.0,349.8 686.0,350.0 716.0,349.3" fill="none" stroke="#888888" stroke-width="1.6"/>
<circle cx="506.0" cy="241.7" r="2" fill="#888888"/>
<circle cx="566.0" cy="335.7" r="2" fill="#888888"/>
<circle cx="626.0" cy="348.2" r="2" fill="#888888"/>
<circle cx="656.0" cy="349.8" r="2" fill="#888888"/>
<circle cx="686.0" cy="350.0" r="2" fill="#888888"/>
<circle cx="716.0" cy="349.3" r="2" fill="#888888"/>
<text x="611.0" y="227" text-anchor="middle" font-size="12" font-weight="bold">zsyr2k</text>
<line x1="506.0" y1="232" x2="506.0" y2="370" stroke="#f4f4f4"/>
<text x="506.0" y="381" text-anchor="middle" font-size="8" fill="#999">8</text>
<line x1="566.0" y1="232" x2="566.0" y2="370" stroke="#f4f4f4"/>
<text x="566.0" y="381" text-anchor="middle" font-size="8" fill="#999">32</text>
<line x1="626.0" y1="232" x2="626.0" y2="370" stroke="#f4f4f4"/>
<text x="626.0" y="381" text-anchor="middle" font-size="8" fill="#999">128</text>
<line x1="656.0" y1="232" x2="656.0" y2="370" stroke="#f4f4f4"/>
<text x="656.0" y="381" text-anchor="middle" font-size="8" fill="#999">256</text>
<line x1="686.0" y1="232" x2="686.0" y2="370" stroke="#f4f4f4"/>
<text x="686.0" y="381" text-anchor="middle" font-size="8" fill="#999">512</text>
<line x1="716.0" y1="232" x2="716.0" y2="370" stroke="#f4f4f4"/>
<text x="716.0" y="381" text-anchor="middle" font-size="8" fill="#999">1k</text>
<rect x="736" y="232" width="210" height="138" fill="none" stroke="#e2e2e2"/>
<line x1="736" y1="348.37184985168466" x2="946" y2="348.37184985168466" stroke="#d33" stroke-dasharray="4 3"/>
<text x="732" y="373.0" text-anchor="end" font-size="9" fill="#999">0.5×</text>
<text x="732" y="351.37184985168466" text-anchor="end" font-size="9" fill="#999">1.0×</text>
<polygon points="736.0,265.1 796.0,336.1 856.0,349.3 886.0,349.6 916.0,347.3 946.0,345.9 946.0,346.0 916.0,347.5 886.0,349.7 856.0,350.2 796.0,337.3 736.0,273.0" fill="#888888" opacity="0.11"/>
<polyline points="736.0,265.5 796.0,336.2 856.0,349.4 886.0,349.6 916.0,347.4 946.0,346.0" fill="none" stroke="#888888" stroke-width="1.6"/>
<circle cx="736.0" cy="265.5" r="2" fill="#888888"/>
<circle cx="796.0" cy="336.2" r="2" fill="#888888"/>
<circle cx="856.0" cy="349.4" r="2" fill="#888888"/>
<circle cx="886.0" cy="349.6" r="2" fill="#888888"/>
<circle cx="916.0" cy="347.4" r="2" fill="#888888"/>
<circle cx="946.0" cy="346.0" r="2" fill="#888888"/>
<polygon points="736.0,261.3 796.0,337.0 856.0,349.2 886.0,349.7 916.0,349.3 946.0,349.3 946.0,349.4 916.0,349.4 886.0,350.2 856.0,349.4 796.0,337.9 736.0,261.7" fill="#888888" opacity="0.11"/>
<polyline points="736.0,261.5 796.0,337.4 856.0,349.3 886.0,349.7 916.0,349.3 946.0,349.3" fill="none" stroke="#888888" stroke-width="1.6"/>
<circle cx="736.0" cy="261.5" r="2" fill="#888888"/>
<circle cx="796.0" cy="337.4" r="2" fill="#888888"/>
<circle cx="856.0" cy="349.3" r="2" fill="#888888"/>
<circle cx="886.0" cy="349.7" r="2" fill="#888888"/>
<circle cx="916.0" cy="349.3" r="2" fill="#888888"/>
<circle cx="946.0" cy="349.3" r="2" fill="#888888"/>
<polygon points="736.0,234.4 796.0,330.7 856.0,348.4 886.0,319.2 916.0,348.7 946.0,348.3 946.0,349.0 916.0,351.6 886.0,350.0 856.0,350.6 796.0,341.6 736.0,260.0" fill="#888888" opacity="0.11"/>
<polyline points="736.0,238.2 796.0,331.1 856.0,348.8 886.0,348.8 916.0,348.8 946.0,348.7" fill="none" stroke="#888888" stroke-width="1.6"/>
<circle cx="736.0" cy="238.2" r="2" fill="#888888"/>
<circle cx="796.0" cy="331.1" r="2" fill="#888888"/>
<circle cx="856.0" cy="348.8" r="2" fill="#888888"/>
<circle cx="886.0" cy="348.8" r="2" fill="#888888"/>
<circle cx="916.0" cy="348.8" r="2" fill="#888888"/>
<circle cx="946.0" cy="348.7" r="2" fill="#888888"/>
<text x="841.0" y="227" text-anchor="middle" font-size="12" font-weight="bold">ztrmm</text>
<line x1="736.0" y1="232" x2="736.0" y2="370" stroke="#f4f4f4"/>
<text x="736.0" y="381" text-anchor="middle" font-size="8" fill="#999">8</text>
<line x1="796.0" y1="232" x2="796.0" y2="370" stroke="#f4f4f4"/>
<text x="796.0" y="381" text-anchor="middle" font-size="8" fill="#999">32</text>
<line x1="856.0" y1="232" x2="856.0" y2="370" stroke="#f4f4f4"/>
<text x="856.0" y="381" text-anchor="middle" font-size="8" fill="#999">128</text>
<line x1="886.0" y1="232" x2="886.0" y2="370" stroke="#f4f4f4"/>
<text x="886.0" y="381" text-anchor="middle" font-size="8" fill="#999">256</text>
<line x1="916.0" y1="232" x2="916.0" y2="370" stroke="#f4f4f4"/>
<text x="916.0" y="381" text-anchor="middle" font-size="8" fill="#999">512</text>
<line x1="946.0" y1="232" x2="946.0" y2="370" stroke="#f4f4f4"/>
<text x="946.0" y="381" text-anchor="middle" font-size="8" fill="#999">1k</text>
<rect x="46" y="404" width="210" height="138" fill="none" stroke="#e2e2e2"/>
<line x1="46" y1="469.99788712263137" x2="256" y2="469.99788712263137" stroke="#d33" stroke-dasharray="4 3"/>
<text x="42" y="544.3669424414518" text-anchor="end" font-size="9" fill="#999">0.33×</text>
<text x="42" y="472.99788712263137" text-anchor="end" font-size="9" fill="#999">1.0×</text>
<polygon points="46.0,456.9 106.0,488.8 166.0,494.7 196.0,480.3 226.0,470.2 256.0,465.9 256.0,466.0 226.0,470.4 196.0,481.8 166.0,495.7 106.0,491.9 46.0,460.6" fill="#888888" opacity="0.11"/>
<polyline points="46.0,459.7 106.0,491.3 166.0,495.4 196.0,481.1 226.0,470.3 256.0,466.0" fill="none" stroke="#888888" stroke-width="1.6"/>
<circle cx="46.0" cy="459.7" r="2" fill="#888888"/>
<circle cx="106.0" cy="491.3" r="2" fill="#888888"/>
<circle cx="166.0" cy="495.4" r="2" fill="#888888"/>
<circle cx="196.0" cy="481.1" r="2" fill="#888888"/>
<circle cx="226.0" cy="470.3" r="2" fill="#888888"/>
<circle cx="256.0" cy="466.0" r="2" fill="#888888"/>
<polygon points="46.0,454.5 106.0,496.2 166.0,482.6 196.0,481.6 226.0,472.6 256.0,470.0 256.0,470.2 226.0,473.9 196.0,482.0 166.0,482.9 106.0,499.6 46.0,468.0" fill="#888888" opacity="0.11"/>
<polyline points="46.0,463.1 106.0,498.7 166.0,482.8 196.0,481.6 226.0,473.6 256.0,470.0" fill="none" stroke="#888888" stroke-width="1.6"/>
<circle cx="46.0" cy="463.1" r="2" fill="#888888"/>
<circle cx="106.0" cy="498.7" r="2" fill="#888888"/>
<circle cx="166.0" cy="482.8" r="2" fill="#888888"/>
<circle cx="196.0" cy="481.6" r="2" fill="#888888"/>
<circle cx="226.0" cy="473.6" r="2" fill="#888888"/>
<circle cx="256.0" cy="470.0" r="2" fill="#888888"/>
<polygon points="46.0,466.4 106.0,484.4 166.0,482.8 196.0,409.0 226.0,468.3 256.0,466.2 256.0,467.1 226.0,469.9 196.0,463.3 166.0,537.3 106.0,506.2 46.0,476.6" fill="#888888" opacity="0.11"/>
<polyline points="46.0,475.5 106.0,505.1 166.0,483.1 196.0,462.9 226.0,469.7 256.0,466.7" fill="none" stroke="#888888" stroke-width="1.6"/>
<circle cx="46.0" cy="475.5" r="2" fill="#888888"/>
<circle cx="106.0" cy="505.1" r="2" fill="#888888"/>
<circle cx="166.0" cy="483.1" r="2" fill="#888888"/>
<circle cx="196.0" cy="462.9" r="2" fill="#888888"/>
<circle cx="226.0" cy="469.7" r="2" fill="#888888"/>
<circle cx="256.0" cy="466.7" r="2" fill="#888888"/>
<text x="151.0" y="399" text-anchor="middle" font-size="12" font-weight="bold">ztrsm</text>
<line x1="46.0" y1="404" x2="46.0" y2="542" stroke="#f4f4f4"/>
<text x="46.0" y="553" text-anchor="middle" font-size="8" fill="#999">8</text>
<line x1="106.0" y1="404" x2="106.0" y2="542" stroke="#f4f4f4"/>
<text x="106.0" y="553" text-anchor="middle" font-size="8" fill="#999">32</text>
<line x1="166.0" y1="404" x2="166.0" y2="542" stroke="#f4f4f4"/>
<text x="166.0" y="553" text-anchor="middle" font-size="8" fill="#999">128</text>
<line x1="196.0" y1="404" x2="196.0" y2="542" stroke="#f4f4f4"/>
<text x="196.0" y="553" text-anchor="middle" font-size="8" fill="#999">256</text>
<line x1="226.0" y1="404" x2="226.0" y2="542" stroke="#f4f4f4"/>
<text x="226.0" y="553" text-anchor="middle" font-size="8" fill="#999">512</text>
<line x1="256.0" y1="404" x2="256.0" y2="542" stroke="#f4f4f4"/>
<text x="256.0" y="553" text-anchor="middle" font-size="8" fill="#999">1k</text>
<rect x="276" y="404" width="210" height="138" fill="none" stroke="#e2e2e2"/>
<line x1="276" y1="520.6981637048036" x2="486" y2="520.6981637048036" stroke="#d33" stroke-dasharray="4 3"/>
<text x="272" y="545.0" text-anchor="end" font-size="9" fill="#999">0.5×</text>
<text x="272" y="523.6981637048036" text-anchor="end" font-size="9" fill="#999">1.0×</text>
<polygon points="276.0,439.5 336.0,510.6 396.0,520.8 426.0,520.4 456.0,518.2 486.0,516.9 486.0,517.0 456.0,518.3 426.0,520.5 396.0,520.9 336.0,512.8 276.0,440.2" fill="#888888" opacity="0.11"/>
<polyline points="276.0,439.7 336.0,512.5 396.0,520.9 426.0,520.4 456.0,518.2 486.0,516.9" fill="none" stroke="#888888" stroke-width="1.6"/>
<circle cx="276.0" cy="439.7" r="2" fill="#888888"/>
<circle cx="336.0" cy="512.5" r="2" fill="#888888"/>
<circle cx="396.0" cy="520.9" r="2" fill="#888888"/>
<circle cx="426.0" cy="520.4" r="2" fill="#888888"/>
<circle cx="456.0" cy="518.2" r="2" fill="#888888"/>
<circle cx="486.0" cy="516.9" r="2" fill="#888888"/>
<polygon points="276.0,431.5 336.0,507.4 396.0,520.3 426.0,520.1 456.0,521.2 486.0,521.3 486.0,521.5 456.0,521.4 426.0,520.5 396.0,522.0 336.0,511.2 276.0,439.2" fill="#888888" opacity="0.11"/>
<polyline points="276.0,433.1 336.0,508.6 396.0,520.7 426.0,520.4 456.0,521.2 486.0,521.3" fill="none" stroke="#888888" stroke-width="1.6"/>
<circle cx="276.0" cy="433.1" r="2" fill="#888888"/>
<circle cx="336.0" cy="508.6" r="2" fill="#888888"/>
<circle cx="396.0" cy="520.7" r="2" fill="#888888"/>
<circle cx="426.0" cy="520.4" r="2" fill="#888888"/>
<circle cx="456.0" cy="521.2" r="2" fill="#888888"/>
<circle cx="486.0" cy="521.3" r="2" fill="#888888"/>
<polygon points="276.0,406.4 336.0,501.0 396.0,515.3 426.0,491.4 456.0,521.1 486.0,521.1 486.0,521.5 456.0,524.4 426.0,521.2 396.0,520.4 336.0,506.1 276.0,431.6" fill="#888888" opacity="0.11"/>
<polyline points="276.0,414.5 336.0,501.1 396.0,520.2 426.0,520.9 456.0,521.4 486.0,521.3" fill="none" stroke="#888888" stroke-width="1.6"/>
<circle cx="276.0" cy="414.5" r="2" fill="#888888"/>
<circle cx="336.0" cy="501.1" r="2" fill="#888888"/>
<circle cx="396.0" cy="520.2" r="2" fill="#888888"/>
<circle cx="426.0" cy="520.9" r="2" fill="#888888"/>
<circle cx="456.0" cy="521.4" r="2" fill="#888888"/>
<circle cx="486.0" cy="521.3" r="2" fill="#888888"/>
<text x="381.0" y="399" text-anchor="middle" font-size="12" font-weight="bold">ztrmmR</text>
<line x1="276.0" y1="404" x2="276.0" y2="542" stroke="#f4f4f4"/>
<text x="276.0" y="553" text-anchor="middle" font-size="8" fill="#999">8</text>
<line x1="336.0" y1="404" x2="336.0" y2="542" stroke="#f4f4f4"/>
<text x="336.0" y="553" text-anchor="middle" font-size="8" fill="#999">32</text>
<line x1="396.0" y1="404" x2="396.0" y2="542" stroke="#f4f4f4"/>
<text x="396.0" y="553" text-anchor="middle" font-size="8" fill="#999">128</text>
<line x1="426.0" y1="404" x2="426.0" y2="542" stroke="#f4f4f4"/>
<text x="426.0" y="553" text-anchor="middle" font-size="8" fill="#999">256</text>
<line x1="456.0" y1="404" x2="456.0" y2="542" stroke="#f4f4f4"/>
<text x="456.0" y="553" text-anchor="middle" font-size="8" fill="#999">512</text>
<line x1="486.0" y1="404" x2="486.0" y2="542" stroke="#f4f4f4"/>
<text x="486.0" y="553" text-anchor="middle" font-size="8" fill="#999">1k</text>
<rect x="506" y="404" width="210" height="138" fill="none" stroke="#e2e2e2"/>
<line x1="506" y1="495.414088021726" x2="716" y2="495.414088021726" stroke="#d33" stroke-dasharray="4 3"/>
<text x="502" y="545.0" text-anchor="end" font-size="9" fill="#999">0.5×</text>
<text x="502" y="498.414088021726" text-anchor="end" font-size="9" fill="#999">1.0×</text>
<polygon points="506.0,462.4 566.0,492.5 626.0,504.8 656.0,477.1 686.0,469.2 716.0,456.6 716.0,457.3 686.0,469.4 656.0,477.9 626.0,505.7 566.0,493.9 506.0,462.8" fill="#888888" opacity="0.11"/>
<polyline points="506.0,462.5 566.0,493.7 626.0,505.2 656.0,477.5 686.0,469.3 716.0,456.9" fill="none" stroke="#888888" stroke-width="1.6"/>
<circle cx="506.0" cy="462.5" r="2" fill="#888888"/>
<circle cx="566.0" cy="493.7" r="2" fill="#888888"/>
<circle cx="626.0" cy="505.2" r="2" fill="#888888"/>
<circle cx="656.0" cy="477.5" r="2" fill="#888888"/>
<circle cx="686.0" cy="469.3" r="2" fill="#888888"/>
<circle cx="716.0" cy="456.9" r="2" fill="#888888"/>
<polygon points="506.0,467.2 566.0,490.9 626.0,494.9 656.0,495.1 686.0,494.7 716.0,495.2 716.0,495.4 686.0,495.1 656.0,495.3 626.0,495.3 566.0,495.0 506.0,471.6" fill="#888888" opacity="0.11"/>
<polyline points="506.0,470.6 566.0,491.9 626.0,495.2 656.0,495.3 686.0,494.8 716.0,495.3" fill="none" stroke="#888888" stroke-width="1.6"/>
<circle cx="506.0" cy="470.6" r="2" fill="#888888"/>
<circle cx="566.0" cy="491.9" r="2" fill="#888888"/>
<circle cx="626.0" cy="495.2" r="2" fill="#888888"/>
<circle cx="656.0" cy="495.3" r="2" fill="#888888"/>
<circle cx="686.0" cy="494.8" r="2" fill="#888888"/>
<circle cx="716.0" cy="495.3" r="2" fill="#888888"/>
<polygon points="506.0,470.7 566.0,497.5 626.0,497.1 656.0,409.2 686.0,495.8 716.0,499.1 716.0,509.1 686.0,502.8 656.0,475.3 626.0,502.8 566.0,520.4 506.0,478.8" fill="#888888" opacity="0.11"/>
<polyline points="506.0,471.6 566.0,497.7 626.0,497.5 656.0,410.2 686.0,496.2 716.0,499.6" fill="none" stroke="#888888" stroke-width="1.6"/>
<circle cx="506.0" cy="471.6" r="2" fill="#888888"/>
<circle cx="566.0" cy="497.7" r="2" fill="#888888"/>
<circle cx="626.0" cy="497.5" r="2" fill="#888888"/>
<circle cx="656.0" cy="410.2" r="2" fill="#888888"/>
<circle cx="686.0" cy="496.2" r="2" fill="#888888"/>
<circle cx="716.0" cy="499.6" r="2" fill="#888888"/>
<text x="611.0" y="399" text-anchor="middle" font-size="12" font-weight="bold">ztrsmR</text>
<line x1="506.0" y1="404" x2="506.0" y2="542" stroke="#f4f4f4"/>
<text x="506.0" y="553" text-anchor="middle" font-size="8" fill="#999">8</text>
<line x1="566.0" y1="404" x2="566.0" y2="542" stroke="#f4f4f4"/>
<text x="566.0" y="553" text-anchor="middle" font-size="8" fill="#999">32</text>
<line x1="626.0" y1="404" x2="626.0" y2="542" stroke="#f4f4f4"/>
<text x="626.0" y="553" text-anchor="middle" font-size="8" fill="#999">128</text>
<line x1="656.0" y1="404" x2="656.0" y2="542" stroke="#f4f4f4"/>
<text x="656.0" y="553" text-anchor="middle" font-size="8" fill="#999">256</text>
<line x1="686.0" y1="404" x2="686.0" y2="542" stroke="#f4f4f4"/>
<text x="686.0" y="553" text-anchor="middle" font-size="8" fill="#999">512</text>
<line x1="716.0" y1="404" x2="716.0" y2="542" stroke="#f4f4f4"/>
<text x="716.0" y="553" text-anchor="middle" font-size="8" fill="#999">1k</text>
</svg>
