<svg xmlns="http://www.w3.org/2000/svg" width="900" height="440" font-family="sans-serif">
<rect width="900" height="440" fill="white"/>
<text x="450.0" y="28" text-anchor="middle" font-size="18" font-weight="bold">Complex BLAS-2: PureBLAS / OpenBLAS (AVX2, 1 thread, ComplexF64)</text>
<line x1="60" y1="358.0" x2="880" y2="358.0" stroke="#eee"/>
<text x="52" y="362.0" text-anchor="end" font-size="11" fill="#666">0×</text>
<line x1="60" y1="280.6530648064128" x2="880" y2="280.6530648064128" stroke="#eee"/>
<text x="52" y="284.6530648064128" text-anchor="end" font-size="11" fill="#666">0.5×</text>
<line x1="60" y1="203.3061296128256" x2="880" y2="203.3061296128256" stroke="#eee"/>
<text x="52" y="207.3061296128256" text-anchor="end" font-size="11" fill="#666">1×</text>
<line x1="60" y1="125.95919441923837" x2="880" y2="125.95919441923837" stroke="#eee"/>
<text x="52" y="129.95919441923837" text-anchor="end" font-size="11" fill="#666">1.5×</text>
<line x1="60" y1="203.3061296128256" x2="880" y2="203.3061296128256" stroke="#888" stroke-width="1"/>
<line x1="60" y1="209.49388442831258" x2="880" y2="209.49388442831258" stroke="#d33" stroke-width="1.5" stroke-dasharray="6 4"/>
<text x="880" y="204.49388442831258" text-anchor="end" font-size="11" fill="#d33">0.96× gate</text>
<polygon points="101.0,208.8 101.0,208.3 101.1,207.8 101.1,207.3 101.1,206.9 101.2,206.4 101.2,205.9 101.2,205.4 101.2,204.9 101.2,204.4 101.2,203.9 101.2,203.5 101.2,203.0 101.3,202.5 101.3,202.0 101.3,201.5 101.3,201.0 101.3,200.6 101.4,200.1 101.5,199.6 101.7,199.1 102.0,198.6 102.6,198.1 103.6,197.6 105.0,197.2 107.2,196.7 110.1,196.2 113.8,195.7 118.3,195.2 123.1,194.7 127.8,194.2 131.8,193.8 134.5,193.3 135.4,192.8 134.5,192.3 131.9,191.8 128.0,191.3 123.6,190.8 119.3,190.4 115.6,189.9 112.9,189.4 111.2,188.9 110.4,188.4 110.6,187.9 111.4,187.5 112.6,187.0 114.0,186.5 115.3,186.0 116.2,185.5 116.6,185.0 116.2,184.5 115.1,184.1 113.5,183.6 111.6,183.1 109.8,182.6 108.3,182.1 107.4,181.6 107.2,181.1 107.6,180.7 108.5,180.2 109.4,179.7 110.2,179.2 110.6,178.7 110.5,178.2 109.7,177.7 108.5,177.3 107.0,176.8 105.5,176.3 104.2,175.8 103.1,175.3 102.3,174.8 101.7,174.4 100.3,174.4 99.7,174.8 98.9,175.3 97.8,175.8 96.5,176.3 95.0,176.8 93.5,177.3 92.3,177.7 91.5,178.2 91.4,178.7 91.8,179.2 92.6,179.7 93.5,180.2 94.4,180.7 94.8,181.1 94.6,181.6 93.7,182.1 92.2,182.6 90.4,183.1 88.5,183.6 86.9,184.1 85.8,184.5 85.4,185.0 85.8,185.5 86.7,186.0 88.0,186.5 89.4,187.0 90.6,187.5 91.4,187.9 91.6,188.4 90.8,188.9 89.1,189.4 86.4,189.9 82.7,190.4 78.4,190.8 74.0,191.3 70.1,191.8 67.5,192.3 66.6,192.8 67.5,193.3 70.2,193.8 74.2,194.2 78.9,194.7 83.7,195.2 88.2,195.7 91.9,196.2 94.8,196.7 97.0,197.2 98.4,197.6 99.4,198.1 100.0,198.6 100.3,199.1 100.5,199.6 100.6,200.1 100.7,200.6 100.7,201.0 100.7,201.5 100.7,202.0 100.7,202.5 100.8,203.0 100.8,203.5 100.8,203.9 100.8,204.4 100.8,204.9 100.8,205.4 100.8,205.9 100.8,206.4 100.9,206.9 100.9,207.3 100.9,207.8 101.0,208.3 101.0,208.8" fill="#2a8" opacity="0.5" stroke="#2a8" stroke-width="1"/>
<line x1="70.0" y1="191.83245200311566" x2="132.0" y2="191.83245200311566" stroke="#114" stroke-width="2"/>
<circle cx="101.0" cy="193.77793060472362" r="2.4" fill="#114"/>
<text x="101.0" y="171.93449918903232" text-anchor="middle" font-size="11">1.07</text>
<text x="101.0" y="376" text-anchor="middle" font-size="12">zgemvN</text>
<polygon points="189.7,191.0 191.7,190.4 194.0,189.9 196.6,189.3 199.4,188.7 202.4,188.1 205.3,187.6 208.1,187.0 210.7,186.4 212.9,185.9 214.8,185.3 216.1,184.7 217.0,184.2 217.4,183.6 217.4,183.0 217.2,182.5 216.8,181.9 216.3,181.3 215.7,180.7 215.0,180.2 214.3,179.6 213.5,179.0 212.4,178.5 211.2,177.9 209.7,177.3 208.0,176.8 206.1,176.2 204.2,175.6 202.2,175.0 200.5,174.5 199.0,173.9 197.7,173.3 196.8,172.8 196.3,172.2 195.9,171.6 195.8,171.1 195.7,170.5 195.5,169.9 195.2,169.4 194.7,168.8 194.1,168.2 193.2,167.6 192.1,167.1 191.0,166.5 189.9,165.9 188.7,165.4 187.8,164.8 186.9,164.2 186.3,163.7 186.0,163.1 185.9,162.5 186.0,162.0 186.4,161.4 187.0,160.8 187.8,160.2 188.8,159.7 189.8,159.1 190.9,158.5 191.9,158.0 192.8,157.4 193.4,156.8 193.8,156.3 194.0,155.7 193.8,155.1 193.3,154.5 192.6,154.0 191.6,153.4 190.6,152.8 189.5,152.3 188.4,151.7 187.3,151.1 186.4,150.6 179.6,150.6 178.7,151.1 177.6,151.7 176.5,152.3 175.4,152.8 174.4,153.4 173.4,154.0 172.7,154.5 172.2,155.1 172.0,155.7 172.2,156.3 172.6,156.8 173.2,157.4 174.1,158.0 175.1,158.5 176.2,159.1 177.2,159.7 178.2,160.2 179.0,160.8 179.6,161.4 180.0,162.0 180.1,162.5 180.0,163.1 179.7,163.7 179.1,164.2 178.2,164.8 177.3,165.4 176.1,165.9 175.0,166.5 173.9,167.1 172.8,167.6 171.9,168.2 171.3,168.8 170.8,169.4 170.5,169.9 170.3,170.5 170.2,171.1 170.1,171.6 169.7,172.2 169.2,172.8 168.3,173.3 167.0,173.9 165.5,174.5 163.8,175.0 161.8,175.6 159.9,176.2 158.0,176.8 156.3,177.3 154.8,177.9 153.6,178.5 152.5,179.0 151.7,179.6 151.0,180.2 150.3,180.7 149.7,181.3 149.2,181.9 148.8,182.5 148.6,183.0 148.6,183.6 149.0,184.2 149.9,184.7 151.2,185.3 153.1,185.9 155.3,186.4 157.9,187.0 160.7,187.6 163.6,188.1 166.6,188.7 169.4,189.3 172.0,189.9 174.3,190.4 176.3,191.0" fill="#2a8" opacity="0.5" stroke="#2a8" stroke-width="1"/>
<line x1="154.3" y1="178.10259018312277" x2="211.7" y2="178.10259018312277" stroke="#114" stroke-width="2"/>
<circle cx="183.0" cy="186.58979475086662" r="2.4" fill="#114"/>
<text x="183.0" y="148.72351585361713" text-anchor="middle" font-size="11">1.16</text>
<text x="183.0" y="376" text-anchor="middle" font-size="12">zgemvT</text>
<polygon points="269.5,190.9 271.1,190.5 273.1,190.0 275.3,189.5 277.8,189.0 280.4,188.5 283.1,188.0 285.7,187.5 288.0,187.0 290.1,186.6 291.8,186.1 293.1,185.6 294.1,185.1 294.8,184.6 295.4,184.1 295.9,183.6 296.4,183.1 297.0,182.7 297.6,182.2 298.2,181.7 298.8,181.2 299.2,180.7 299.4,180.2 299.4,179.7 299.1,179.2 298.5,178.8 297.7,178.3 296.7,177.8 295.5,177.3 294.2,176.8 292.8,176.3 291.3,175.8 289.6,175.3 287.8,174.8 285.8,174.4 283.7,173.9 281.5,173.4 279.3,172.9 277.1,172.4 274.9,171.9 273.0,171.4 271.3,170.9 269.8,170.5 268.6,170.0 267.6,169.5 267.0,169.0 266.5,168.5 266.3,168.0 266.4,167.5 266.6,167.0 267.0,166.6 267.7,166.1 268.5,165.6 269.5,165.1 270.6,164.6 271.8,164.1 273.0,163.6 274.2,163.1 275.3,162.7 276.1,162.2 276.6,161.7 276.8,161.2 276.6,160.7 276.1,160.2 275.3,159.7 274.2,159.2 273.0,158.8 271.7,158.3 270.5,157.8 269.4,157.3 268.3,156.8 267.5,156.3 262.5,156.3 261.7,156.8 260.6,157.3 259.5,157.8 258.3,158.3 257.0,158.8 255.8,159.2 254.7,159.7 253.9,160.2 253.4,160.7 253.2,161.2 253.4,161.7 253.9,162.2 254.7,162.7 255.8,163.1 257.0,163.6 258.2,164.1 259.4,164.6 260.5,165.1 261.5,165.6 262.3,166.1 263.0,166.6 263.4,167.0 263.6,167.5 263.7,168.0 263.5,168.5 263.0,169.0 262.4,169.5 261.4,170.0 260.2,170.5 258.7,170.9 257.0,171.4 255.1,171.9 252.9,172.4 250.7,172.9 248.5,173.4 246.3,173.9 244.2,174.4 242.2,174.8 240.4,175.3 238.7,175.8 237.2,176.3 235.8,176.8 234.5,177.3 233.3,177.8 232.3,178.3 231.5,178.8 230.9,179.2 230.6,179.7 230.6,180.2 230.8,180.7 231.2,181.2 231.8,181.7 232.4,182.2 233.0,182.7 233.6,183.1 234.1,183.6 234.6,184.1 235.2,184.6 235.9,185.1 236.9,185.6 238.2,186.1 239.9,186.6 242.0,187.0 244.3,187.5 246.9,188.0 249.6,188.5 252.2,189.0 254.7,189.5 256.9,190.0 258.9,190.5 260.5,190.9" fill="#2a8" opacity="0.5" stroke="#2a8" stroke-width="1"/>
<line x1="230.6" y1="179.96671359211288" x2="299.4" y2="179.96671359211288" stroke="#114" stroke-width="2"/>
<circle cx="265.0" cy="186.56039158406873" r="2.4" fill="#114"/>
<text x="265.0" y="153.91613596084653" text-anchor="middle" font-size="11">1.15</text>
<text x="265.0" y="376" text-anchor="middle" font-size="12">zgemvC</text>
<polygon points="353.3,217.0 355.3,215.9 357.7,214.8 360.5,213.7 363.5,212.6 366.7,211.5 370.0,210.5 373.1,209.4 376.0,208.3 378.3,207.2 380.1,206.1 381.2,205.0 381.4,203.9 380.9,202.8 379.7,201.8 377.9,200.7 375.5,199.6 372.8,198.5 369.9,197.4 366.9,196.3 364.1,195.2 361.4,194.1 358.9,193.1 356.8,192.0 355.1,190.9 353.7,189.8 352.7,188.7 352.1,187.6 351.9,186.5 351.9,185.4 352.2,184.4 352.7,183.3 353.2,182.2 353.8,181.1 354.3,180.0 354.7,178.9 354.9,177.8 354.9,176.7 354.7,175.7 354.3,174.6 353.8,173.5 353.1,172.4 352.3,171.3 351.5,170.2 350.9,169.1 350.3,168.0 349.9,167.0 349.6,165.9 349.6,164.8 349.7,163.7 350.1,162.6 350.6,161.5 351.2,160.4 351.9,159.3 352.7,158.2 353.4,157.2 354.0,156.1 354.5,155.0 354.8,153.9 354.8,152.8 354.7,151.7 354.3,150.6 353.7,149.5 353.0,148.5 352.3,147.4 351.5,146.3 350.7,145.2 349.9,144.1 349.3,143.0 348.7,141.9 348.3,140.8 347.9,139.8 346.1,139.8 345.7,140.8 345.3,141.9 344.7,143.0 344.1,144.1 343.3,145.2 342.5,146.3 341.7,147.4 341.0,148.5 340.3,149.5 339.7,150.6 339.3,151.7 339.2,152.8 339.2,153.9 339.5,155.0 340.0,156.1 340.6,157.2 341.3,158.2 342.1,159.3 342.8,160.4 343.4,161.5 343.9,162.6 344.3,163.7 344.4,164.8 344.4,165.9 344.1,167.0 343.7,168.0 343.1,169.1 342.5,170.2 341.7,171.3 340.9,172.4 340.2,173.5 339.7,174.6 339.3,175.7 339.1,176.7 339.1,177.8 339.3,178.9 339.7,180.0 340.2,181.1 340.8,182.2 341.3,183.3 341.8,184.4 342.1,185.4 342.1,186.5 341.9,187.6 341.3,188.7 340.3,189.8 338.9,190.9 337.2,192.0 335.1,193.1 332.6,194.1 329.9,195.2 327.1,196.3 324.1,197.4 321.2,198.5 318.5,199.6 316.1,200.7 314.3,201.8 313.1,202.8 312.6,203.9 312.8,205.0 313.9,206.1 315.7,207.2 318.0,208.3 320.9,209.4 324.0,210.5 327.3,211.5 330.5,212.6 333.5,213.7 336.3,214.8 338.7,215.9 340.7,217.0" fill="#2a8" opacity="0.5" stroke="#2a8" stroke-width="1"/>
<line x1="313.0" y1="202.9430781083875" x2="381.0" y2="202.9430781083875" stroke="#114" stroke-width="2"/>
<circle cx="347.0" cy="207.0450058333864" r="2.4" fill="#114"/>
<text x="347.0" y="141.48198166331522" text-anchor="middle" font-size="11">1.00</text>
<text x="347.0" y="376" text-anchor="middle" font-size="12">zgeru</text>
<polygon points="441.7,175.9 444.0,174.3 446.4,172.7 449.0,171.1 451.5,169.5 453.9,167.9 456.2,166.3 458.3,164.7 460.1,163.1 461.5,161.5 462.4,159.9 463.0,158.3 463.1,156.7 462.7,155.1 461.9,153.5 460.7,151.8 459.3,150.2 457.5,148.6 455.6,147.0 453.5,145.4 451.5,143.8 449.4,142.2 447.5,140.6 445.6,139.0 444.0,137.4 442.7,135.8 441.6,134.2 440.7,132.6 440.1,131.0 439.8,129.4 439.6,127.8 439.7,126.2 439.8,124.6 440.1,123.0 440.5,121.4 440.9,119.8 441.3,118.1 441.7,116.5 442.1,114.9 442.5,113.3 443.0,111.7 443.5,110.1 444.0,108.5 444.7,106.9 445.5,105.3 446.4,103.7 447.5,102.1 448.7,100.5 450.1,98.9 451.5,97.3 453.1,95.7 454.6,94.1 456.2,92.5 457.8,90.9 459.3,89.3 460.6,87.7 461.7,86.0 462.6,84.4 463.2,82.8 463.4,81.2 463.3,79.6 462.8,78.0 461.8,76.4 460.5,74.8 458.8,73.2 456.8,71.6 454.5,70.0 452.1,68.4 449.6,66.8 447.1,65.2 444.6,63.6 442.2,62.0 415.8,62.0 413.4,63.6 410.9,65.2 408.4,66.8 405.9,68.4 403.5,70.0 401.2,71.6 399.2,73.2 397.5,74.8 396.2,76.4 395.2,78.0 394.7,79.6 394.6,81.2 394.8,82.8 395.4,84.4 396.3,86.0 397.4,87.7 398.7,89.3 400.2,90.9 401.8,92.5 403.4,94.1 404.9,95.7 406.5,97.3 407.9,98.9 409.3,100.5 410.5,102.1 411.6,103.7 412.5,105.3 413.3,106.9 414.0,108.5 414.5,110.1 415.0,111.7 415.5,113.3 415.9,114.9 416.3,116.5 416.7,118.1 417.1,119.8 417.5,121.4 417.9,123.0 418.2,124.6 418.3,126.2 418.4,127.8 418.2,129.4 417.9,131.0 417.3,132.6 416.4,134.2 415.3,135.8 414.0,137.4 412.4,139.0 410.5,140.6 408.6,142.2 406.5,143.8 404.5,145.4 402.4,147.0 400.5,148.6 398.7,150.2 397.3,151.8 396.1,153.5 395.3,155.1 394.9,156.7 395.0,158.3 395.6,159.9 396.5,161.5 397.9,163.1 399.7,164.7 401.8,166.3 404.1,167.9 406.5,169.5 409.0,171.1 411.6,172.7 414.0,174.3 416.3,175.9" fill="#2a8" opacity="0.5" stroke="#2a8" stroke-width="1"/>
<line x1="416.4" y1="116.78456780551205" x2="441.6" y2="116.78456780551205" stroke="#114" stroke-width="2"/>
<circle cx="429.0" cy="163.01802671741223" r="2.4" fill="#114"/>
<text x="429.0" y="67.2521673807401" text-anchor="middle" font-size="11">1.56</text>
<text x="429.0" y="376" text-anchor="middle" font-size="12">zhemv</text>
<polygon points="517.3,208.6 519.2,206.6 521.4,204.5 523.9,202.5 526.7,200.5 529.6,198.5 532.7,196.4 535.7,194.4 538.6,192.4 541.1,190.4 543.2,188.4 544.7,186.3 545.4,184.3 545.4,182.3 544.7,180.3 543.2,178.2 541.1,176.2 538.5,174.2 535.5,172.2 532.4,170.1 529.2,168.1 526.2,166.1 523.5,164.1 521.1,162.1 519.1,160.0 517.5,158.0 516.4,156.0 515.7,154.0 515.3,151.9 515.2,149.9 515.4,147.9 515.7,145.9 516.2,143.9 516.8,141.8 517.3,139.8 517.8,137.8 518.1,135.8 518.3,133.7 518.3,131.7 518.2,129.7 517.9,127.7 517.4,125.6 516.9,123.6 516.2,121.6 515.5,119.6 514.9,117.6 514.3,115.5 513.7,113.5 513.3,111.5 513.1,109.5 512.9,107.4 512.9,105.4 513.1,103.4 513.4,101.4 513.9,99.4 514.4,97.3 515.0,95.3 515.7,93.3 516.4,91.3 517.0,89.2 517.6,87.2 518.0,85.2 518.3,83.2 518.4,81.2 518.3,79.1 518.0,77.1 517.6,75.1 517.0,73.1 516.3,71.0 515.6,69.0 514.9,67.0 514.2,65.0 507.8,65.0 507.1,67.0 506.4,69.0 505.7,71.0 505.0,73.1 504.4,75.1 504.0,77.1 503.7,79.1 503.6,81.2 503.7,83.2 504.0,85.2 504.4,87.2 505.0,89.2 505.6,91.3 506.3,93.3 507.0,95.3 507.6,97.3 508.1,99.4 508.6,101.4 508.9,103.4 509.1,105.4 509.1,107.4 508.9,109.5 508.7,111.5 508.3,113.5 507.7,115.5 507.1,117.6 506.5,119.6 505.8,121.6 505.1,123.6 504.6,125.6 504.1,127.7 503.8,129.7 503.7,131.7 503.7,133.7 503.9,135.8 504.2,137.8 504.7,139.8 505.2,141.8 505.8,143.9 506.3,145.9 506.6,147.9 506.8,149.9 506.7,151.9 506.3,154.0 505.6,156.0 504.5,158.0 502.9,160.0 500.9,162.1 498.5,164.1 495.8,166.1 492.8,168.1 489.6,170.1 486.5,172.2 483.5,174.2 480.9,176.2 478.8,178.2 477.3,180.3 476.6,182.3 476.6,184.3 477.3,186.3 478.8,188.4 480.9,190.4 483.4,192.4 486.3,194.4 489.3,196.4 492.4,198.5 495.3,200.5 498.1,202.5 500.6,204.5 502.8,206.6 504.7,208.6" fill="#2a8" opacity="0.5" stroke="#2a8" stroke-width="1"/>
<line x1="477.7" y1="179.69594751958581" x2="544.3" y2="179.69594751958581" stroke="#114" stroke-width="2"/>
<circle cx="511.0" cy="192.73245577846953" r="2.4" fill="#114"/>
<text x="511.0" y="73.11823864444318" text-anchor="middle" font-size="11">1.15</text>
<text x="511.0" y="376" text-anchor="middle" font-size="12">ztrmv</text>
<polygon points="595.4,216.2 596.1,214.6 597.0,213.1 598.0,211.5 599.1,210.0 600.2,208.4 601.3,206.9 602.4,205.3 603.5,203.8 604.6,202.3 605.8,200.7 607.2,199.2 608.9,197.6 610.8,196.1 613.1,194.5 615.7,193.0 618.5,191.5 621.2,189.9 623.7,188.4 625.7,186.8 627.0,185.3 627.4,183.7 626.9,182.2 625.4,180.7 623.0,179.1 620.0,177.6 616.7,176.0 613.2,174.5 609.8,172.9 606.8,171.4 604.2,169.8 602.3,168.3 600.9,166.8 600.0,165.2 599.7,163.7 599.6,162.1 599.9,160.6 600.2,159.0 600.6,157.5 600.9,156.0 601.1,154.4 601.0,152.9 600.8,151.3 600.4,149.8 599.8,148.2 599.1,146.7 598.3,145.2 597.5,143.6 596.9,142.1 596.3,140.5 595.9,139.0 595.7,137.4 595.7,135.9 596.0,134.4 596.5,132.8 597.1,131.3 598.0,129.7 598.8,128.2 599.7,126.6 600.5,125.1 601.1,123.5 601.5,122.0 601.6,120.5 601.5,118.9 601.0,117.4 600.4,115.8 599.5,114.3 598.6,112.7 597.6,111.2 596.7,109.7 595.9,108.1 595.2,106.6 590.8,106.6 590.1,108.1 589.3,109.7 588.4,111.2 587.4,112.7 586.5,114.3 585.6,115.8 585.0,117.4 584.5,118.9 584.4,120.5 584.5,122.0 584.9,123.5 585.5,125.1 586.3,126.6 587.2,128.2 588.0,129.7 588.9,131.3 589.5,132.8 590.0,134.4 590.3,135.9 590.3,137.4 590.1,139.0 589.7,140.5 589.1,142.1 588.5,143.6 587.7,145.2 586.9,146.7 586.2,148.2 585.6,149.8 585.2,151.3 585.0,152.9 584.9,154.4 585.1,156.0 585.4,157.5 585.8,159.0 586.1,160.6 586.4,162.1 586.3,163.7 586.0,165.2 585.1,166.8 583.7,168.3 581.8,169.8 579.2,171.4 576.2,172.9 572.8,174.5 569.3,176.0 566.0,177.6 563.0,179.1 560.6,180.7 559.1,182.2 558.6,183.7 559.0,185.3 560.3,186.8 562.3,188.4 564.8,189.9 567.5,191.5 570.3,193.0 572.9,194.5 575.2,196.1 577.1,197.6 578.8,199.2 580.2,200.7 581.4,202.3 582.5,203.8 583.6,205.3 584.7,206.9 585.8,208.4 586.9,210.0 588.0,211.5 589.0,213.1 589.9,214.6 590.6,216.2" fill="#2a8" opacity="0.5" stroke="#2a8" stroke-width="1"/>
<line x1="559.0" y1="182.34172688066644" x2="627.0" y2="182.34172688066644" stroke="#114" stroke-width="2"/>
<circle cx="593.0" cy="202.2051155894114" r="2.4" fill="#114"/>
<text x="593.0" y="111.425000051832" text-anchor="middle" font-size="11">1.14</text>
<text x="593.0" y="376" text-anchor="middle" font-size="12">ztrsv</text>
<polygon points="682.0,175.9 684.0,174.2 686.5,172.5 689.2,170.8 692.1,169.1 695.3,167.4 698.4,165.7 701.4,164.0 704.1,162.3 706.4,160.6 708.1,158.9 709.1,157.2 709.4,155.5 709.1,153.8 708.1,152.1 706.5,150.5 704.5,148.8 702.3,147.1 700.0,145.4 697.7,143.7 695.5,142.0 693.5,140.3 691.7,138.6 690.2,136.9 688.8,135.2 687.6,133.5 686.6,131.8 685.5,130.1 684.6,128.4 683.6,126.7 682.8,125.0 681.9,123.3 681.2,121.6 680.6,119.9 680.1,118.2 679.9,116.6 679.8,114.9 679.8,113.2 680.1,111.5 680.5,109.8 681.1,108.1 681.7,106.4 682.3,104.7 682.8,103.0 683.3,101.3 683.7,99.6 683.9,97.9 683.9,96.2 683.8,94.5 683.6,92.8 683.3,91.1 683.0,89.4 682.7,87.7 682.4,86.0 682.3,84.4 682.3,82.7 682.4,81.0 682.6,79.3 682.9,77.6 683.2,75.9 683.5,74.2 683.7,72.5 683.9,70.8 683.8,69.1 683.6,67.4 683.3,65.7 682.8,64.0 682.1,62.3 681.4,60.6 680.6,58.9 679.8,57.2 679.0,55.5 671.0,55.5 670.2,57.2 669.4,58.9 668.6,60.6 667.9,62.3 667.2,64.0 666.7,65.7 666.4,67.4 666.2,69.1 666.1,70.8 666.3,72.5 666.5,74.2 666.8,75.9 667.1,77.6 667.4,79.3 667.6,81.0 667.7,82.7 667.7,84.4 667.6,86.0 667.3,87.7 667.0,89.4 666.7,91.1 666.4,92.8 666.2,94.5 666.1,96.2 666.1,97.9 666.3,99.6 666.7,101.3 667.2,103.0 667.7,104.7 668.3,106.4 668.9,108.1 669.5,109.8 669.9,111.5 670.2,113.2 670.2,114.9 670.1,116.6 669.9,118.2 669.4,119.9 668.8,121.6 668.1,123.3 667.2,125.0 666.4,126.7 665.4,128.4 664.5,130.1 663.4,131.8 662.4,133.5 661.2,135.2 659.8,136.9 658.3,138.6 656.5,140.3 654.5,142.0 652.3,143.7 650.0,145.4 647.7,147.1 645.5,148.8 643.5,150.5 641.9,152.1 640.9,153.8 640.6,155.5 640.9,157.2 641.9,158.9 643.6,160.6 645.9,162.3 648.6,164.0 651.6,165.7 654.7,167.4 657.9,169.1 660.8,170.8 663.5,172.5 666.0,174.2 668.0,175.9" fill="#2a8" opacity="0.5" stroke="#2a8" stroke-width="1"/>
<line x1="641.3" y1="153.16419616746128" x2="708.7" y2="153.16419616746128" stroke="#114" stroke-width="2"/>
<circle cx="675.0" cy="158.07359252428444" r="2.4" fill="#114"/>
<text x="675.0" y="61.433962264150935" text-anchor="middle" font-size="11">1.32</text>
<text x="675.0" y="376" text-anchor="middle" font-size="12">zhpmv</text>
<polygon points="757.7,155.3 758.1,154.4 758.7,153.5 759.6,152.6 760.7,151.7 762.2,150.9 764.0,150.0 766.1,149.1 768.5,148.2 771.1,147.3 773.8,146.4 776.5,145.5 779.1,144.6 781.5,143.7 783.8,142.8 785.9,142.0 787.7,141.1 789.2,140.2 790.3,139.3 791.1,138.4 791.4,137.5 791.4,136.6 791.0,135.7 790.4,134.8 789.6,133.9 788.8,133.0 788.0,132.2 787.3,131.3 786.5,130.4 785.8,129.5 784.9,128.6 784.0,127.7 782.8,126.8 781.3,125.9 779.7,125.0 777.9,124.1 775.9,123.2 773.9,122.4 771.8,121.5 769.8,120.6 767.9,119.7 766.2,118.8 764.7,117.9 763.4,117.0 762.4,116.1 761.7,115.2 761.2,114.3 760.8,113.5 760.6,112.6 760.6,111.7 760.6,110.8 760.7,109.9 760.9,109.0 761.2,108.1 761.5,107.2 761.9,106.3 762.4,105.4 762.9,104.5 763.3,103.7 763.6,102.8 763.8,101.9 763.9,101.0 763.7,100.1 763.3,99.2 762.8,98.3 762.1,97.4 761.3,96.5 760.5,95.6 759.8,94.8 759.1,93.9 758.5,93.0 758.0,92.1 756.0,92.1 755.5,93.0 754.9,93.9 754.2,94.8 753.5,95.6 752.7,96.5 751.9,97.4 751.2,98.3 750.7,99.2 750.3,100.1 750.1,101.0 750.2,101.9 750.4,102.8 750.7,103.7 751.1,104.5 751.6,105.4 752.1,106.3 752.5,107.2 752.8,108.1 753.1,109.0 753.3,109.9 753.4,110.8 753.4,111.7 753.4,112.6 753.2,113.5 752.8,114.3 752.3,115.2 751.6,116.1 750.6,117.0 749.3,117.9 747.8,118.8 746.1,119.7 744.2,120.6 742.2,121.5 740.1,122.4 738.1,123.2 736.1,124.1 734.3,125.0 732.7,125.9 731.2,126.8 730.0,127.7 729.1,128.6 728.2,129.5 727.5,130.4 726.7,131.3 726.0,132.2 725.2,133.0 724.4,133.9 723.6,134.8 723.0,135.7 722.6,136.6 722.6,137.5 722.9,138.4 723.7,139.3 724.8,140.2 726.3,141.1 728.1,142.0 730.2,142.8 732.5,143.7 734.9,144.6 737.5,145.5 740.2,146.4 742.9,147.3 745.5,148.2 747.9,149.1 750.0,150.0 751.8,150.9 753.3,151.7 754.4,152.6 755.3,153.5 755.9,154.4 756.3,155.3" fill="#2a8" opacity="0.5" stroke="#2a8" stroke-width="1"/>
<line x1="725.4" y1="132.762335435228" x2="788.6" y2="132.762335435228" stroke="#114" stroke-width="2"/>
<circle cx="757.0" cy="144.2825089149772" r="2.4" fill="#114"/>
<text x="757.0" y="92.44977262528477" text-anchor="middle" font-size="11">1.46</text>
<text x="757.0" y="376" text-anchor="middle" font-size="12">zgbmvN</text>
<polygon points="839.0,169.2 839.0,168.7 839.0,168.2 839.0,167.7 839.0,167.2 839.1,166.7 839.1,166.2 839.2,165.7 839.2,165.2 839.1,164.7 839.1,164.2 839.0,163.7 839.0,163.2 839.0,162.7 839.0,162.2 839.1,161.7 839.1,161.2 839.2,160.7 839.2,160.2 839.1,159.7 839.1,159.2 839.0,158.7 839.0,158.2 839.0,157.7 839.0,157.2 839.1,156.7 839.1,156.2 839.2,155.7 839.2,155.2 839.1,154.7 839.1,154.2 839.0,153.7 839.0,153.2 839.0,152.7 839.0,152.2 839.1,151.7 839.2,151.2 839.5,150.7 840.1,150.2 841.8,149.7 845.7,149.2 852.6,148.7 861.7,148.2 869.9,147.7 873.4,147.2 871.0,146.7 864.5,146.2 857.1,145.7 851.0,145.2 846.8,144.7 844.4,144.2 843.1,143.7 842.6,143.2 842.3,142.7 842.2,142.2 842.2,141.7 842.6,141.2 843.2,140.7 843.6,140.2 843.3,139.7 842.4,139.2 841.2,138.7 840.2,138.2 839.6,137.7 839.3,137.2 839.2,136.7 839.1,136.2 839.0,135.7 839.0,135.2 839.0,134.7 839.0,134.2 839.0,133.7 839.0,133.7 839.0,134.2 839.0,134.7 839.0,135.2 839.0,135.7 838.9,136.2 838.8,136.7 838.7,137.2 838.4,137.7 837.8,138.2 836.8,138.7 835.6,139.2 834.7,139.7 834.4,140.2 834.8,140.7 835.4,141.2 835.8,141.7 835.8,142.2 835.7,142.7 835.4,143.2 834.9,143.7 833.6,144.2 831.2,144.7 827.0,145.2 820.9,145.7 813.5,146.2 807.0,146.7 804.6,147.2 808.1,147.7 816.3,148.2 825.4,148.7 832.3,149.2 836.2,149.7 837.9,150.2 838.5,150.7 838.8,151.2 838.9,151.7 839.0,152.2 839.0,152.7 839.0,153.2 839.0,153.7 838.9,154.2 838.9,154.7 838.8,155.2 838.8,155.7 838.9,156.2 838.9,156.7 839.0,157.2 839.0,157.7 839.0,158.2 839.0,158.7 838.9,159.2 838.9,159.7 838.8,160.2 838.8,160.7 838.9,161.2 838.9,161.7 839.0,162.2 839.0,162.7 839.0,163.2 839.0,163.7 838.9,164.2 838.9,164.7 838.8,165.2 838.8,165.7 838.9,166.2 838.9,166.7 839.0,167.2 839.0,167.7 839.0,168.2 839.0,168.7 839.0,169.2" fill="#2a8" opacity="0.5" stroke="#2a8" stroke-width="1"/>
<line x1="805.9" y1="146.857866103403" x2="872.1" y2="146.857866103403" stroke="#114" stroke-width="2"/>
<circle cx="839.0" cy="147.90118296005704" r="2.4" fill="#114"/>
<text x="839.0" y="131.42813215485745" text-anchor="middle" font-size="11">1.36</text>
<text x="839.0" y="376" text-anchor="middle" font-size="12">zhbmv</text>
<text x="450.0" y="428" text-anchor="middle" font-size="11" fill="#666">violin = ratio distribution over sizes · line = median · dark dot = worst size · green = every size ≥ gate</text>
</svg>
