<svg xmlns="http://www.w3.org/2000/svg" width="900" height="460" font-family="sans-serif">
<rect width="900" height="460" fill="white"/>
<text x="450.0" y="28" text-anchor="middle" font-size="18" font-weight="bold">Complex BLAS-3: PureBLAS / OpenBLAS (AVX2, 1 thread, ComplexF64)</text>
<line x1="62" y1="400.0" x2="768" y2="400.0" stroke="#eee"/>
<text x="54" y="404.0" text-anchor="end" font-size="11" fill="#666">0.5×</text>
<line x1="62" y1="303.7688780356323" x2="768" y2="303.7688780356323" stroke="#eee"/>
<text x="54" y="307.7688780356323" text-anchor="end" font-size="11" fill="#666">0.7×</text>
<line x1="62" y1="201.75977803835113" x2="768" y2="201.75977803835113" stroke="#eee"/>
<text x="54" y="205.75977803835113" text-anchor="end" font-size="11" fill="#666">1.0×</text>
<line x1="62" y1="85.79668205614797" x2="768" y2="85.79668205614797" stroke="#eee"/>
<text x="54" y="89.79668205614797" text-anchor="end" font-size="11" fill="#666">1.5×</text>
<line x1="62.0" y1="50" x2="62.0" y2="400" stroke="#f4f4f4"/>
<text x="62.0" y="418" text-anchor="middle" font-size="11" fill="#444">8</text>
<line x1="238.5" y1="50" x2="238.5" y2="400" stroke="#f4f4f4"/>
<text x="238.5" y="418" text-anchor="middle" font-size="11" fill="#444">32</text>
<line x1="415.0" y1="50" x2="415.0" y2="400" stroke="#f4f4f4"/>
<text x="415.0" y="418" text-anchor="middle" font-size="11" fill="#444">128</text>
<line x1="503.25" y1="50" x2="503.25" y2="400" stroke="#f4f4f4"/>
<text x="503.25" y="418" text-anchor="middle" font-size="11" fill="#444">256</text>
<line x1="591.5" y1="50" x2="591.5" y2="400" stroke="#f4f4f4"/>
<text x="591.5" y="418" text-anchor="middle" font-size="11" fill="#444">512</text>
<line x1="679.75" y1="50" x2="679.75" y2="400" stroke="#f4f4f4"/>
<text x="679.75" y="418" text-anchor="middle" font-size="11" fill="#444">1024</text>
<line x1="768.0" y1="50" x2="768.0" y2="400" stroke="#f4f4f4"/>
<text x="768.0" y="418" text-anchor="middle" font-size="11" fill="#444">2048</text>
<line x1="62" y1="201.75977803835113" x2="768" y2="201.75977803835113" stroke="#888"/>
<line x1="62" y1="213.4348760284709" x2="768" y2="213.4348760284709" stroke="#d33" stroke-width="1.5" stroke-dasharray="6 4"/>
<text x="66" y="208.4348760284709" font-size="11" fill="#d33">0.96× gate</text>
<polygon points="62.0,149.7 238.5,204.1 415.0,211.6 503.2,214.8 591.5,210.6 679.8,206.8 768.0,206.6 768.0,209.1 679.8,210.4 591.5,211.6 503.2,216.5 415.0,213.7 238.5,216.9 62.0,197.7" fill="#1f77b4" opacity="0.14" stroke="none"/>
<polyline points="62.0,155.6 238.5,209.7 415.0,212.4 503.2,215.6 591.5,211.4 679.8,208.7 768.0,208.3" fill="none" stroke="#1f77b4" stroke-width="2"/>
<circle cx="62.0" cy="155.6" r="3" fill="#1f77b4"/>
<circle cx="238.5" cy="209.7" r="3" fill="#1f77b4"/>
<circle cx="415.0" cy="212.4" r="3" fill="#1f77b4"/>
<circle cx="503.2" cy="215.6" r="3" fill="#1f77b4"/>
<circle cx="591.5" cy="211.4" r="3" fill="#1f77b4"/>
<circle cx="679.8" cy="208.7" r="3" fill="#1f77b4"/>
<circle cx="768.0" cy="208.3" r="3" fill="#1f77b4"/>
<line x1="782" y1="56" x2="802" y2="56" stroke="#1f77b4" stroke-width="3"/>
<text x="806" y="60" font-size="12">zgemm</text>
<polygon points="62.0,342.5 238.5,228.9 415.0,224.9 503.2,227.5 591.5,226.8 679.8,212.0 768.0,209.9 768.0,212.9 679.8,214.8 591.5,227.3 503.2,228.4 415.0,231.2 238.5,239.9 62.0,358.3" fill="#d62728" opacity="0.14" stroke="none"/>
<polyline points="62.0,351.9 238.5,235.6 415.0,226.6 503.2,228.2 591.5,227.2 679.8,212.9 768.0,212.2" fill="none" stroke="#d62728" stroke-width="2"/>
<circle cx="62.0" cy="351.9" r="3" fill="#d62728"/>
<circle cx="238.5" cy="235.6" r="3" fill="#d62728"/>
<circle cx="415.0" cy="226.6" r="3" fill="#d62728"/>
<circle cx="503.2" cy="228.2" r="3" fill="#d62728"/>
<circle cx="591.5" cy="227.2" r="3" fill="#d62728"/>
<circle cx="679.8" cy="212.9" r="3" fill="#d62728"/>
<circle cx="768.0" cy="212.2" r="3" fill="#d62728"/>
<line x1="782" y1="74" x2="802" y2="74" stroke="#d62728" stroke-width="3"/>
<text x="806" y="78" font-size="12">zhemm</text>
<polygon points="62.0,196.7 238.5,161.7 415.0,202.4 503.2,208.3 591.5,213.4 679.8,217.4 768.0,217.7 768.0,221.9 679.8,219.0 591.5,218.2 503.2,209.2 415.0,204.5 238.5,175.5 62.0,201.4" fill="#2ca02c" opacity="0.14" stroke="none"/>
<polyline points="62.0,199.0 238.5,167.9 415.0,203.4 503.2,208.7 591.5,217.0 679.8,218.2 768.0,220.2" fill="none" stroke="#2ca02c" stroke-width="2"/>
<circle cx="62.0" cy="199.0" r="3" fill="#2ca02c"/>
<circle cx="238.5" cy="167.9" r="3" fill="#2ca02c"/>
<circle cx="415.0" cy="203.4" r="3" fill="#2ca02c"/>
<circle cx="503.2" cy="208.7" r="3" fill="#2ca02c"/>
<circle cx="591.5" cy="217.0" r="3" fill="#2ca02c"/>
<circle cx="679.8" cy="218.2" r="3" fill="#2ca02c"/>
<circle cx="768.0" cy="220.2" r="3" fill="#2ca02c"/>
<line x1="782" y1="92" x2="802" y2="92" stroke="#2ca02c" stroke-width="3"/>
<text x="806" y="96" font-size="12">zherk</text>
<polygon points="62.0,265.4 238.5,201.2 415.0,214.2 503.2,216.8 591.5,231.8 679.8,220.0 768.0,217.1 768.0,219.8 679.8,224.8 591.5,233.7 503.2,217.9 415.0,218.2 238.5,209.8 62.0,268.6" fill="#9467bd" opacity="0.14" stroke="none"/>
<polyline points="62.0,267.9 238.5,208.0 415.0,216.9 503.2,217.0 591.5,232.6 679.8,222.6 768.0,218.6" fill="none" stroke="#9467bd" stroke-width="2"/>
<circle cx="62.0" cy="267.9" r="3" fill="#9467bd"/>
<circle cx="238.5" cy="208.0" r="3" fill="#9467bd"/>
<circle cx="415.0" cy="216.9" r="3" fill="#9467bd"/>
<circle cx="503.2" cy="217.0" r="3" fill="#9467bd"/>
<circle cx="591.5" cy="232.6" r="3" fill="#9467bd"/>
<circle cx="679.8" cy="222.6" r="3" fill="#9467bd"/>
<circle cx="768.0" cy="218.6" r="3" fill="#9467bd"/>
<line x1="782" y1="110" x2="802" y2="110" stroke="#9467bd" stroke-width="3"/>
<text x="806" y="114" font-size="12">zher2k</text>
<polygon points="62.0,257.7 238.5,197.6 415.0,215.3 503.2,219.2 591.5,232.1 679.8,221.9 768.0,213.3 768.0,215.8 679.8,227.8 591.5,233.8 503.2,219.8 415.0,219.6 238.5,208.4 62.0,260.8" fill="#ff7f0e" opacity="0.14" stroke="none"/>
<polyline points="62.0,258.4 238.5,200.6 415.0,216.7 503.2,219.5 591.5,233.1 679.8,225.2 768.0,214.8" fill="none" stroke="#ff7f0e" stroke-width="2"/>
<circle cx="62.0" cy="258.4" r="3" fill="#ff7f0e"/>
<circle cx="238.5" cy="200.6" r="3" fill="#ff7f0e"/>
<circle cx="415.0" cy="216.7" r="3" fill="#ff7f0e"/>
<circle cx="503.2" cy="219.5" r="3" fill="#ff7f0e"/>
<circle cx="591.5" cy="233.1" r="3" fill="#ff7f0e"/>
<circle cx="679.8" cy="225.2" r="3" fill="#ff7f0e"/>
<circle cx="768.0" cy="214.8" r="3" fill="#ff7f0e"/>
<line x1="782" y1="128" x2="802" y2="128" stroke="#ff7f0e" stroke-width="3"/>
<text x="806" y="132" font-size="12">zsyr2k</text>
<polygon points="62.0,201.6 238.5,250.7 415.0,216.3 503.2,213.9 591.5,216.1 679.8,208.8 768.0,208.1 768.0,212.1 679.8,216.0 591.5,223.6 503.2,215.7 415.0,218.5 238.5,255.7 62.0,207.1" fill="#17becf" opacity="0.14" stroke="none"/>
<polyline points="62.0,204.5 238.5,251.5 415.0,217.7 503.2,214.8 591.5,220.0 679.8,211.5 768.0,209.5" fill="none" stroke="#17becf" stroke-width="2"/>
<circle cx="62.0" cy="204.5" r="3" fill="#17becf"/>
<circle cx="238.5" cy="251.5" r="3" fill="#17becf"/>
<circle cx="415.0" cy="217.7" r="3" fill="#17becf"/>
<circle cx="503.2" cy="214.8" r="3" fill="#17becf"/>
<circle cx="591.5" cy="220.0" r="3" fill="#17becf"/>
<circle cx="679.8" cy="211.5" r="3" fill="#17becf"/>
<circle cx="768.0" cy="209.5" r="3" fill="#17becf"/>
<line x1="782" y1="146" x2="802" y2="146" stroke="#17becf" stroke-width="3"/>
<text x="806" y="150" font-size="12">ztrmm</text>
<polygon points="62.0,387.1 238.5,337.9 415.0,296.5 503.2,209.8 591.5,195.3 679.8,195.2 768.0,200.0 768.0,203.3 679.8,198.2 591.5,196.0 503.2,210.9 415.0,297.4 238.5,338.7 62.0,393.9" fill="#8c564b" opacity="0.14" stroke="none"/>
<polyline points="62.0,389.5 238.5,338.3 415.0,297.1 503.2,210.7 591.5,195.5 679.8,197.0 768.0,202.3" fill="none" stroke="#8c564b" stroke-width="2"/>
<circle cx="62.0" cy="389.5" r="3" fill="#8c564b"/>
<circle cx="238.5" cy="338.3" r="3" fill="#8c564b"/>
<circle cx="415.0" cy="297.1" r="3" fill="#8c564b"/>
<circle cx="503.2" cy="210.7" r="3" fill="#8c564b"/>
<circle cx="591.5" cy="195.5" r="3" fill="#8c564b"/>
<circle cx="679.8" cy="197.0" r="3" fill="#8c564b"/>
<circle cx="768.0" cy="202.3" r="3" fill="#8c564b"/>
<line x1="782" y1="164" x2="802" y2="164" stroke="#8c564b" stroke-width="3"/>
<text x="806" y="168" font-size="12">ztrsm</text>
<polygon points="62.0,178.9 238.5,264.0 415.0,210.2 503.2,214.5 591.5,219.6 679.8,213.3 768.0,209.8 768.0,212.7 679.8,220.7 591.5,221.4 503.2,216.4 415.0,215.2 238.5,277.2 62.0,188.8" fill="#e377c2" opacity="0.14" stroke="none"/>
<polyline points="62.0,185.6 238.5,269.2 415.0,212.5 503.2,215.6 591.5,220.0 679.8,213.7 768.0,211.6" fill="none" stroke="#e377c2" stroke-width="2"/>
<circle cx="62.0" cy="185.6" r="3" fill="#e377c2"/>
<circle cx="238.5" cy="269.2" r="3" fill="#e377c2"/>
<circle cx="415.0" cy="212.5" r="3" fill="#e377c2"/>
<circle cx="503.2" cy="215.6" r="3" fill="#e377c2"/>
<circle cx="591.5" cy="220.0" r="3" fill="#e377c2"/>
<circle cx="679.8" cy="213.7" r="3" fill="#e377c2"/>
<circle cx="768.0" cy="211.6" r="3" fill="#e377c2"/>
<line x1="782" y1="182" x2="802" y2="182" stroke="#e377c2" stroke-width="3"/>
<text x="806" y="186" font-size="12">ztrmmR</text>
<polygon points="62.0,400.0 238.5,394.6 415.0,322.5 503.2,231.2 591.5,206.4 679.8,201.6 768.0,202.3 768.0,204.6 679.8,204.1 591.5,207.0 503.2,233.2 415.0,325.9 238.5,400.0 62.0,400.0" fill="#1f77b4" opacity="0.14" stroke="none"/>
<polyline points="62.0,400.0 238.5,396.4 415.0,324.0 503.2,232.0 591.5,206.7 679.8,202.8 768.0,202.9" fill="none" stroke="#1f77b4" stroke-width="2"/>
<circle cx="62.0" cy="400.0" r="3" fill="#1f77b4"/>
<circle cx="238.5" cy="396.4" r="3" fill="#1f77b4"/>
<circle cx="415.0" cy="324.0" r="3" fill="#1f77b4"/>
<circle cx="503.2" cy="232.0" r="3" fill="#1f77b4"/>
<circle cx="591.5" cy="206.7" r="3" fill="#1f77b4"/>
<circle cx="679.8" cy="202.8" r="3" fill="#1f77b4"/>
<circle cx="768.0" cy="202.9" r="3" fill="#1f77b4"/>
<line x1="782" y1="200" x2="802" y2="200" stroke="#1f77b4" stroke-width="3"/>
<text x="806" y="204" font-size="12">ztrsmR</text>
<text x="415.0" y="450" text-anchor="middle" font-size="11" fill="#666">matrix size n (log) · y = median ratio (log) · dashed = the 0.96× gate</text>
</svg>
