<svg xmlns="http://www.w3.org/2000/svg" width="900" height="440" font-family="sans-serif">
<rect width="900" height="440" fill="white"/>
<text x="450.0" y="28" text-anchor="middle" font-size="18" font-weight="bold">Complex BLAS-1: PureBLAS / OpenBLAS (AVX-512, 1 thread, ComplexF64)</text>
<line x1="60" y1="358.0" x2="880" y2="358.0" stroke="#eee"/>
<text x="52" y="362.0" text-anchor="end" font-size="11" fill="#666">0×</text>
<line x1="60" y1="347.5071825502503" x2="880" y2="347.5071825502503" stroke="#eee"/>
<text x="52" y="351.5071825502503" text-anchor="end" font-size="11" fill="#666">0.5×</text>
<line x1="60" y1="337.0143651005006" x2="880" y2="337.0143651005006" stroke="#eee"/>
<text x="52" y="341.0143651005006" text-anchor="end" font-size="11" fill="#666">1×</text>
<line x1="60" y1="326.5215476507509" x2="880" y2="326.5215476507509" stroke="#eee"/>
<text x="52" y="330.5215476507509" text-anchor="end" font-size="11" fill="#666">1.5×</text>
<line x1="60" y1="337.0143651005006" x2="880" y2="337.0143651005006" stroke="#888" stroke-width="1"/>
<line x1="60" y1="337.8537904964806" x2="880" y2="337.8537904964806" stroke="#d33" stroke-width="1.5" stroke-dasharray="6 4"/>
<text x="880" y="332.8537904964806" text-anchor="end" font-size="11" fill="#d33">0.96× gate</text>
<polygon points="142.0,350.2 142.0,349.8 142.1,349.3 142.2,348.8 142.3,348.4 142.5,347.9 142.7,347.5 142.8,347.0 142.8,346.6 142.7,346.1 142.6,345.6 142.7,345.2 142.9,344.7 143.1,344.3 143.3,343.8 143.3,343.4 143.4,342.9 143.4,342.4 143.6,342.0 144.0,341.5 144.7,341.1 145.8,340.6 147.4,340.2 150.0,339.7 154.3,339.3 161.4,338.8 171.8,338.3 184.7,337.9 197.8,337.4 207.4,337.0 210.9,336.5 207.7,336.1 199.4,335.6 188.4,335.1 177.1,334.7 166.9,334.2 158.6,333.8 152.4,333.3 148.3,332.9 145.8,332.4 144.4,331.9 143.6,331.5 143.1,331.0 142.7,330.6 142.6,330.1 142.6,329.7 142.7,329.2 142.8,328.7 142.8,328.3 142.8,327.8 142.8,327.4 143.0,326.9 143.2,326.5 143.5,326.0 143.5,325.5 143.4,325.1 143.0,324.6 142.6,324.2 142.3,323.7 142.2,323.3 142.2,322.8 142.3,322.4 142.5,321.9 142.7,321.4 142.8,321.0 142.7,320.5 142.5,320.1 142.3,319.6 142.2,319.2 142.1,318.7 142.0,318.2 142.0,317.8 142.0,317.8 142.0,318.2 141.9,318.7 141.8,319.2 141.7,319.6 141.5,320.1 141.3,320.5 141.2,321.0 141.3,321.4 141.5,321.9 141.7,322.4 141.8,322.8 141.8,323.3 141.7,323.7 141.4,324.2 141.0,324.6 140.6,325.1 140.5,325.5 140.5,326.0 140.8,326.5 141.0,326.9 141.2,327.4 141.2,327.8 141.2,328.3 141.2,328.7 141.3,329.2 141.4,329.7 141.4,330.1 141.3,330.6 140.9,331.0 140.4,331.5 139.6,331.9 138.2,332.4 135.7,332.9 131.6,333.3 125.4,333.8 117.1,334.2 106.9,334.7 95.6,335.1 84.6,335.6 76.3,336.1 73.1,336.5 76.6,337.0 86.2,337.4 99.3,337.9 112.2,338.3 122.6,338.8 129.7,339.3 134.0,339.7 136.6,340.2 138.2,340.6 139.3,341.1 140.0,341.5 140.4,342.0 140.6,342.4 140.6,342.9 140.7,343.4 140.7,343.8 140.9,344.3 141.1,344.7 141.3,345.2 141.4,345.6 141.3,346.1 141.2,346.6 141.2,347.0 141.3,347.5 141.5,347.9 141.7,348.4 141.8,348.8 141.9,349.3 142.0,349.8 142.0,350.2" fill="#2a8" opacity="0.5" stroke="#2a8" stroke-width="1"/>
<line x1="73.1" y1="336.4903691195185" x2="210.9" y2="336.4903691195185" stroke="#114" stroke-width="2"/>
<circle cx="142.0" cy="337.14482002194273" r="2.4" fill="#114"/>
<text x="142.0" y="314.95643650887206" text-anchor="middle" font-size="11">1.02</text>
<text x="142.0" y="376" text-anchor="middle" font-size="12">zaxpy</text>
<polygon points="306.3,342.6 306.5,342.4 306.7,342.1 307.0,341.9 307.3,341.7 307.6,341.5 307.9,341.3 308.2,341.1 308.6,340.9 309.0,340.7 309.6,340.5 310.4,340.3 311.4,340.1 312.6,339.9 314.2,339.7 316.1,339.5 318.3,339.3 320.9,339.0 323.8,338.8 327.1,338.6 330.8,338.4 335.0,338.2 339.6,338.0 344.5,337.8 349.7,337.6 354.9,337.4 359.9,337.2 364.3,337.0 368.1,336.8 370.9,336.6 372.8,336.4 373.9,336.2 374.5,336.0 374.7,335.7 374.8,335.5 374.8,335.3 374.9,335.1 374.9,334.9 374.7,334.7 374.4,334.5 373.9,334.3 373.1,334.1 372.0,333.9 370.5,333.7 368.6,333.5 366.1,333.3 362.9,333.1 359.1,332.9 354.6,332.6 349.8,332.4 344.8,332.2 339.8,332.0 335.2,331.8 330.9,331.6 327.0,331.4 323.6,331.2 320.5,331.0 317.8,330.8 315.4,330.6 313.4,330.4 311.7,330.2 310.5,330.0 309.5,329.8 308.8,329.6 308.3,329.3 307.9,329.1 307.6,328.9 307.2,328.7 307.0,328.5 306.7,328.3 306.5,328.1 306.3,327.9 305.7,327.9 305.5,328.1 305.3,328.3 305.0,328.5 304.8,328.7 304.4,328.9 304.1,329.1 303.7,329.3 303.2,329.6 302.5,329.8 301.5,330.0 300.3,330.2 298.6,330.4 296.6,330.6 294.2,330.8 291.5,331.0 288.4,331.2 285.0,331.4 281.1,331.6 276.8,331.8 272.2,332.0 267.2,332.2 262.2,332.4 257.4,332.6 252.9,332.9 249.1,333.1 245.9,333.3 243.4,333.5 241.5,333.7 240.0,333.9 238.9,334.1 238.1,334.3 237.6,334.5 237.3,334.7 237.1,334.9 237.1,335.1 237.2,335.3 237.2,335.5 237.3,335.7 237.5,336.0 238.1,336.2 239.2,336.4 241.1,336.6 243.9,336.8 247.7,337.0 252.1,337.2 257.1,337.4 262.3,337.6 267.5,337.8 272.4,338.0 277.0,338.2 281.2,338.4 284.9,338.6 288.2,338.8 291.1,339.0 293.7,339.3 295.9,339.5 297.8,339.7 299.4,339.9 300.6,340.1 301.6,340.3 302.4,340.5 303.0,340.7 303.4,340.9 303.8,341.1 304.1,341.3 304.4,341.5 304.7,341.7 305.0,341.9 305.3,342.1 305.5,342.4 305.7,342.6" fill="#2a8" opacity="0.5" stroke="#2a8" stroke-width="1"/>
<line x1="237.1" y1="335.04505761984615" x2="374.9" y2="335.04505761984615" stroke="#114" stroke-width="2"/>
<circle cx="306.0" cy="336.73683310436536" r="2.4" fill="#114"/>
<text x="306.0" y="323.3542483761607" text-anchor="middle" font-size="11">1.09</text>
<text x="306.0" y="376" text-anchor="middle" font-size="12">zdotc</text>
<polygon points="470.1,345.4 470.1,345.1 470.2,344.8 470.3,344.6 470.5,344.3 470.7,344.0 470.8,343.8 470.9,343.5 470.9,343.2 470.9,343.0 470.9,342.7 471.0,342.4 471.3,342.2 471.6,341.9 472.0,341.6 472.3,341.4 472.5,341.1 472.5,340.8 472.4,340.6 472.5,340.3 472.8,340.0 473.6,339.8 474.8,339.5 476.5,339.2 478.7,338.9 481.5,338.7 485.2,338.4 490.3,338.1 497.1,337.9 505.8,337.6 515.8,337.3 525.8,337.1 534.1,336.8 538.8,336.5 538.9,336.3 534.4,336.0 526.6,335.7 517.1,335.5 507.7,335.2 499.8,334.9 493.8,334.7 489.5,334.4 486.6,334.1 484.4,333.9 482.4,333.6 480.3,333.3 478.2,333.0 476.3,332.8 474.7,332.5 473.6,332.2 473.2,332.0 473.2,331.7 473.6,331.4 474.2,331.2 474.6,330.9 474.8,330.6 474.5,330.4 474.0,330.1 473.2,329.8 472.4,329.6 471.7,329.3 471.3,329.0 471.1,328.8 471.0,328.5 470.9,328.2 470.8,328.0 470.7,327.7 470.5,327.4 470.3,327.1 470.2,326.9 470.1,326.6 470.1,326.3 469.9,326.3 469.9,326.6 469.8,326.9 469.7,327.1 469.5,327.4 469.3,327.7 469.2,328.0 469.1,328.2 469.0,328.5 468.9,328.8 468.7,329.0 468.3,329.3 467.6,329.6 466.8,329.8 466.0,330.1 465.5,330.4 465.2,330.6 465.4,330.9 465.8,331.2 466.4,331.4 466.8,331.7 466.8,332.0 466.4,332.2 465.3,332.5 463.7,332.8 461.8,333.0 459.7,333.3 457.6,333.6 455.6,333.9 453.4,334.1 450.5,334.4 446.2,334.7 440.2,334.9 432.3,335.2 422.9,335.5 413.4,335.7 405.6,336.0 401.1,336.3 401.2,336.5 405.9,336.8 414.2,337.1 424.2,337.3 434.2,337.6 442.9,337.9 449.7,338.1 454.8,338.4 458.5,338.7 461.3,338.9 463.5,339.2 465.2,339.5 466.4,339.8 467.2,340.0 467.5,340.3 467.6,340.6 467.5,340.8 467.5,341.1 467.7,341.4 468.0,341.6 468.4,341.9 468.7,342.2 469.0,342.4 469.1,342.7 469.1,343.0 469.1,343.2 469.1,343.5 469.2,343.8 469.3,344.0 469.5,344.3 469.7,344.6 469.8,344.8 469.9,345.1 469.9,345.4" fill="#2a8" opacity="0.5" stroke="#2a8" stroke-width="1"/>
<line x1="400.8" y1="336.31846022398315" x2="539.2" y2="336.31846022398315" stroke="#114" stroke-width="2"/>
<circle cx="470.0" cy="336.8563541641094" r="2.4" fill="#114"/>
<text x="470.0" y="322.2196584763269" text-anchor="middle" font-size="11">1.03</text>
<text x="470.0" y="376" text-anchor="middle" font-size="12">zscal</text>
<polygon points="642.3,322.3 645.7,318.5 649.9,314.7 655.1,310.8 660.9,307.0 667.4,303.2 674.1,299.3 680.8,295.5 687.0,291.6 692.4,287.8 696.8,284.0 700.0,280.1 702.0,276.3 702.9,272.5 702.9,268.6 702.3,264.8 701.3,261.0 700.1,257.1 699.0,253.3 697.9,249.5 696.9,245.6 695.8,241.8 694.6,237.9 693.1,234.1 691.4,230.3 689.3,226.4 686.9,222.6 684.3,218.8 681.4,214.9 678.5,211.1 675.6,207.3 672.7,203.4 669.9,199.6 667.2,195.8 664.7,191.9 662.2,188.1 659.9,184.2 657.7,180.4 655.6,176.6 653.7,172.7 652.0,168.9 650.5,165.1 649.4,161.2 648.4,157.4 647.7,153.6 647.1,149.7 646.7,145.9 646.3,142.1 645.8,138.2 645.2,134.4 644.5,130.5 643.8,126.7 642.9,122.9 642.1,119.0 641.3,115.2 640.6,111.4 640.0,107.5 639.5,103.7 639.1,99.9 638.8,96.0 638.6,92.2 638.5,88.4 638.3,84.5 638.2,80.7 637.9,76.8 637.7,73.0 637.3,69.2 637.0,65.3 636.6,61.5 636.2,57.7 635.8,53.8 635.4,50.0 632.6,50.0 632.2,53.8 631.8,57.7 631.4,61.5 631.0,65.3 630.7,69.2 630.3,73.0 630.1,76.8 629.8,80.7 629.7,84.5 629.5,88.4 629.4,92.2 629.2,96.0 628.9,99.9 628.5,103.7 628.0,107.5 627.4,111.4 626.7,115.2 625.9,119.0 625.1,122.9 624.2,126.7 623.5,130.5 622.8,134.4 622.2,138.2 621.7,142.1 621.3,145.9 620.9,149.7 620.3,153.6 619.6,157.4 618.6,161.2 617.5,165.1 616.0,168.9 614.3,172.7 612.4,176.6 610.3,180.4 608.1,184.2 605.8,188.1 603.3,191.9 600.8,195.8 598.1,199.6 595.3,203.4 592.4,207.3 589.5,211.1 586.6,214.9 583.7,218.8 581.1,222.6 578.7,226.4 576.6,230.3 574.9,234.1 573.4,237.9 572.2,241.8 571.1,245.6 570.1,249.5 569.0,253.3 567.9,257.1 566.7,261.0 565.7,264.8 565.1,268.6 565.1,272.5 566.0,276.3 568.0,280.1 571.2,284.0 575.6,287.8 581.0,291.6 587.2,295.5 593.9,299.3 600.6,303.2 607.1,307.0 612.9,310.8 618.1,314.7 622.3,318.5 625.7,322.3" fill="#2a8" opacity="0.5" stroke="#2a8" stroke-width="1"/>
<line x1="571.3" y1="245.084988423112" x2="696.7" y2="245.084988423112" stroke="#114" stroke-width="2"/>
<circle cx="634.0" cy="281.63256339103543" r="2.4" fill="#114"/>
<text x="634.0" y="61.433962264150935" text-anchor="middle" font-size="11">5.38</text>
<text x="634.0" y="376" text-anchor="middle" font-size="12">dznrm2</text>
<polygon points="798.1,345.5 798.2,345.3 798.3,345.0 798.5,344.8 798.7,344.6 798.9,344.3 799.0,344.1 799.0,343.8 799.0,343.6 798.9,343.3 798.7,343.1 798.6,342.9 798.5,342.6 798.5,342.4 798.6,342.1 798.7,341.9 799.0,341.7 799.3,341.4 799.7,341.2 800.1,340.9 800.8,340.7 801.7,340.5 803.1,340.2 805.1,340.0 807.7,339.7 810.9,339.5 814.7,339.2 819.2,339.0 824.4,338.8 830.6,338.5 837.6,338.3 845.2,338.0 852.9,337.8 859.7,337.6 864.6,337.3 866.9,337.1 866.4,336.8 863.7,336.6 859.7,336.4 855.3,336.1 850.9,335.9 846.8,335.6 842.5,335.4 837.9,335.1 832.9,334.9 827.7,334.7 822.7,334.4 818.2,334.2 814.3,333.9 811.1,333.7 808.7,333.5 807.1,333.2 806.0,333.0 805.4,332.7 805.1,332.5 804.9,332.3 804.7,332.0 804.4,331.8 804.0,331.5 803.5,331.3 802.9,331.0 802.3,330.8 801.8,330.6 801.3,330.3 800.7,330.1 800.2,329.8 799.7,329.6 799.2,329.4 798.8,329.1 798.5,328.9 798.3,328.6 798.1,328.4 797.9,328.4 797.7,328.6 797.5,328.9 797.2,329.1 796.8,329.4 796.3,329.6 795.8,329.8 795.3,330.1 794.7,330.3 794.2,330.6 793.7,330.8 793.1,331.0 792.5,331.3 792.0,331.5 791.6,331.8 791.3,332.0 791.1,332.3 790.9,332.5 790.6,332.7 790.0,333.0 788.9,333.2 787.3,333.5 784.9,333.7 781.7,333.9 777.8,334.2 773.3,334.4 768.3,334.7 763.1,334.9 758.1,335.1 753.5,335.4 749.2,335.6 745.1,335.9 740.7,336.1 736.3,336.4 732.3,336.6 729.6,336.8 729.1,337.1 731.4,337.3 736.3,337.6 743.1,337.8 750.8,338.0 758.4,338.3 765.4,338.5 771.6,338.8 776.8,339.0 781.3,339.2 785.1,339.5 788.3,339.7 790.9,340.0 792.9,340.2 794.3,340.5 795.2,340.7 795.9,340.9 796.3,341.2 796.7,341.4 797.0,341.7 797.3,341.9 797.4,342.1 797.5,342.4 797.5,342.6 797.4,342.9 797.3,343.1 797.1,343.3 797.0,343.6 797.0,343.8 797.0,344.1 797.1,344.3 797.3,344.6 797.5,344.8 797.7,345.0 797.8,345.3 797.9,345.5" fill="#2a8" opacity="0.5" stroke="#2a8" stroke-width="1"/>
<line x1="729.3" y1="336.87738853312544" x2="866.7" y2="336.87738853312544" stroke="#114" stroke-width="2"/>
<circle cx="798.0" cy="337.7570950412558" r="2.4" fill="#114"/>
<text x="798.0" y="324.0858294989566" text-anchor="middle" font-size="11">1.01</text>
<text x="798.0" y="376" text-anchor="middle" font-size="12">dzasum</text>
<text x="450.0" y="428" text-anchor="middle" font-size="11" fill="#666">violin = ratio distribution over sizes · line = median · dark dot = worst size · green = every size ≥ gate</text>
</svg>
