<svg xmlns="http://www.w3.org/2000/svg" width="962" height="248" font-family="sans-serif">
<rect width="962" height="248" fill="white"/>
<text x="481.0" y="26" text-anchor="middle" font-size="17" font-weight="bold">Complex LAPACK — PureBLAS / AOCL (PB/AOCL ratio)</text>
<line x1="46" y1="42" x2="68" y2="42" stroke="#d62728" stroke-width="3"/>
<text x="73" y="46" font-size="12">Zen3 · AVX2</text>
<line x1="176" y1="42" x2="198" y2="42" stroke="#2ca02c" stroke-width="3"/>
<text x="203" y="46" font-size="12">Zen5 · AVX-512</text>
<line x1="327" y1="42" x2="349" y2="42" stroke="#1f77b4" stroke-width="3"/>
<text x="354" y="46" font-size="12">Zen4 · AVX-512</text>
<rect x="46" y="60" width="210" height="138" fill="none" stroke="#e2e2e2"/>
<line x1="46" y1="181.68789226442655" x2="256" y2="181.68789226442655" stroke="#d33" stroke-dasharray="4 3"/>
<text x="42" y="201.0" text-anchor="end" font-size="9" fill="#999">0.5×</text>
<text x="42" y="184.68789226442655" text-anchor="end" font-size="9" fill="#999">1.0×</text>
<polygon points="46.0,62.3 98.5,122.1 151.0,165.0 177.2,173.2 203.5,175.8 229.8,176.9 256.0,177.4 256.0,177.5 229.8,177.3 203.5,175.9 177.2,173.4 151.0,165.1 98.5,122.2 46.0,63.2" fill="#d62728" opacity="0.11"/>
<polyline points="46.0,62.8 98.5,122.1 151.0,165.1 177.2,173.3 203.5,175.9 229.8,177.0 256.0,177.5" fill="none" stroke="#d62728" stroke-width="1.6"/>
<circle cx="46.0" cy="62.8" r="2" fill="#d62728"/>
<circle cx="98.5" cy="122.1" r="2" fill="#d62728"/>
<circle cx="151.0" cy="165.1" r="2" fill="#d62728"/>
<circle cx="177.2" cy="173.3" r="2" fill="#d62728"/>
<circle cx="203.5" cy="175.9" r="2" fill="#d62728"/>
<circle cx="229.8" cy="177.0" r="2" fill="#d62728"/>
<circle cx="256.0" cy="177.5" r="2" fill="#d62728"/>
<polygon points="46.0,62.0 98.5,122.6 151.0,165.9 177.2,174.6 203.5,178.5 229.8,180.6 256.0,181.7 256.0,181.7 229.8,180.7 203.5,178.9 177.2,175.0 151.0,166.4 98.5,124.9 46.0,64.7" fill="#2ca02c" opacity="0.11"/>
<polyline points="46.0,62.5 98.5,124.3 151.0,166.3 177.2,174.9 203.5,178.7 229.8,180.7 256.0,181.7" fill="none" stroke="#2ca02c" stroke-width="1.6"/>
<circle cx="46.0" cy="62.5" r="2" fill="#2ca02c"/>
<circle cx="98.5" cy="124.3" r="2" fill="#2ca02c"/>
<circle cx="151.0" cy="166.3" r="2" fill="#2ca02c"/>
<circle cx="177.2" cy="174.9" r="2" fill="#2ca02c"/>
<circle cx="203.5" cy="178.7" r="2" fill="#2ca02c"/>
<circle cx="229.8" cy="180.7" r="2" fill="#2ca02c"/>
<circle cx="256.0" cy="181.7" r="2" fill="#2ca02c"/>
<polygon points="46.0,61.8 98.5,124.8 151.0,167.1 177.2,172.0 203.5,175.4 229.8,180.2 256.0,181.8 256.0,182.0 229.8,180.3 203.5,175.6 177.2,172.3 151.0,167.2 98.5,125.1 46.0,64.3" fill="#1f77b4" opacity="0.11"/>
<polyline points="46.0,63.9 98.5,125.0 151.0,167.1 177.2,172.1 203.5,175.5 229.8,180.3 256.0,181.8" fill="none" stroke="#1f77b4" stroke-width="1.6"/>
<circle cx="46.0" cy="63.9" r="2" fill="#1f77b4"/>
<circle cx="98.5" cy="125.0" r="2" fill="#1f77b4"/>
<circle cx="151.0" cy="167.1" r="2" fill="#1f77b4"/>
<circle cx="177.2" cy="172.1" r="2" fill="#1f77b4"/>
<circle cx="203.5" cy="175.5" r="2" fill="#1f77b4"/>
<circle cx="229.8" cy="180.3" r="2" fill="#1f77b4"/>
<circle cx="256.0" cy="181.8" r="2" fill="#1f77b4"/>
<text x="151.0" y="55" text-anchor="middle" font-size="12" font-weight="bold">zpotrf</text>
<line x1="46.0" y1="60" x2="46.0" y2="198" stroke="#f4f4f4"/>
<text x="46.0" y="209" text-anchor="middle" font-size="8" fill="#999">8</text>
<line x1="98.5" y1="60" x2="98.5" y2="198" stroke="#f4f4f4"/>
<text x="98.5" y="209" text-anchor="middle" font-size="8" fill="#999">32</text>
<line x1="151.0" y1="60" x2="151.0" y2="198" stroke="#f4f4f4"/>
<text x="151.0" y="209" text-anchor="middle" font-size="8" fill="#999">128</text>
<line x1="177.2" y1="60" x2="177.2" y2="198" stroke="#f4f4f4"/>
<text x="177.2" y="209" text-anchor="middle" font-size="8" fill="#999">256</text>
<line x1="203.5" y1="60" x2="203.5" y2="198" stroke="#f4f4f4"/>
<text x="203.5" y="209" text-anchor="middle" font-size="8" fill="#999">512</text>
<line x1="229.8" y1="60" x2="229.8" y2="198" stroke="#f4f4f4"/>
<text x="229.8" y="209" text-anchor="middle" font-size="8" fill="#999">1k</text>
<line x1="256.0" y1="60" x2="256.0" y2="198" stroke="#f4f4f4"/>
<text x="256.0" y="209" text-anchor="middle" font-size="8" fill="#999">2k</text>
<rect x="276" y="60" width="210" height="138" fill="none" stroke="#e2e2e2"/>
<line x1="276" y1="135.3541714711647" x2="486" y2="135.3541714711647" stroke="#d33" stroke-dasharray="4 3"/>
<text x="272" y="201.0" text-anchor="end" font-size="9" fill="#999">0.5×</text>
<text x="272" y="138.3541714711647" text-anchor="end" font-size="9" fill="#999">1.0×</text>
<text x="272" y="63.07682264988853" text-anchor="end" font-size="9" fill="#999">2.3×</text>
<polygon points="276.0,67.0 328.5,83.1 381.0,100.8 407.2,109.1 433.5,100.1 459.8,107.1 486.0,108.5 486.0,109.0 459.8,107.5 433.5,100.7 407.2,109.9 381.0,101.4 328.5,93.9 276.0,69.3" fill="#d62728" opacity="0.11"/>
<polyline points="276.0,68.1 328.5,93.6 381.0,101.1 407.2,109.5 433.5,100.3 459.8,107.3 486.0,108.8" fill="none" stroke="#d62728" stroke-width="1.6"/>
<circle cx="276.0" cy="68.1" r="2" fill="#d62728"/>
<circle cx="328.5" cy="93.6" r="2" fill="#d62728"/>
<circle cx="381.0" cy="101.1" r="2" fill="#d62728"/>
<circle cx="407.2" cy="109.5" r="2" fill="#d62728"/>
<circle cx="433.5" cy="100.3" r="2" fill="#d62728"/>
<circle cx="459.8" cy="107.3" r="2" fill="#d62728"/>
<circle cx="486.0" cy="108.8" r="2" fill="#d62728"/>
<polygon points="276.0,91.7 328.5,126.4 381.0,125.7 407.2,114.4 433.5,123.5 459.8,140.1 486.0,135.8 486.0,136.3 459.8,140.5 433.5,126.0 407.2,115.2 381.0,126.4 328.5,129.7 276.0,95.9" fill="#2ca02c" opacity="0.11"/>
<polyline points="276.0,94.8 328.5,128.6 381.0,126.0 407.2,114.7 433.5,124.4 459.8,140.2 486.0,136.0" fill="none" stroke="#2ca02c" stroke-width="1.6"/>
<circle cx="276.0" cy="94.8" r="2" fill="#2ca02c"/>
<circle cx="328.5" cy="128.6" r="2" fill="#2ca02c"/>
<circle cx="381.0" cy="126.0" r="2" fill="#2ca02c"/>
<circle cx="407.2" cy="114.7" r="2" fill="#2ca02c"/>
<circle cx="433.5" cy="124.4" r="2" fill="#2ca02c"/>
<circle cx="459.8" cy="140.2" r="2" fill="#2ca02c"/>
<circle cx="486.0" cy="136.0" r="2" fill="#2ca02c"/>
<polygon points="276.0,85.6 328.5,128.0 381.0,120.7 407.2,95.9 433.5,110.1 459.8,129.7 486.0,128.3 486.0,130.4 459.8,131.8 433.5,110.8 407.2,97.4 381.0,122.0 328.5,130.2 276.0,93.9" fill="#1f77b4" opacity="0.11"/>
<polyline points="276.0,92.7 328.5,129.9 381.0,121.3 407.2,96.7 433.5,110.6 459.8,131.6 486.0,129.3" fill="none" stroke="#1f77b4" stroke-width="1.6"/>
<circle cx="276.0" cy="92.7" r="2" fill="#1f77b4"/>
<circle cx="328.5" cy="129.9" r="2" fill="#1f77b4"/>
<circle cx="381.0" cy="121.3" r="2" fill="#1f77b4"/>
<circle cx="407.2" cy="96.7" r="2" fill="#1f77b4"/>
<circle cx="433.5" cy="110.6" r="2" fill="#1f77b4"/>
<circle cx="459.8" cy="131.6" r="2" fill="#1f77b4"/>
<circle cx="486.0" cy="129.3" r="2" fill="#1f77b4"/>
<text x="381.0" y="55" text-anchor="middle" font-size="12" font-weight="bold">zgeqrf</text>
<line x1="276.0" y1="60" x2="276.0" y2="198" stroke="#f4f4f4"/>
<text x="276.0" y="209" text-anchor="middle" font-size="8" fill="#999">8</text>
<line x1="328.5" y1="60" x2="328.5" y2="198" stroke="#f4f4f4"/>
<text x="328.5" y="209" text-anchor="middle" font-size="8" fill="#999">32</text>
<line x1="381.0" y1="60" x2="381.0" y2="198" stroke="#f4f4f4"/>
<text x="381.0" y="209" text-anchor="middle" font-size="8" fill="#999">128</text>
<line x1="407.2" y1="60" x2="407.2" y2="198" stroke="#f4f4f4"/>
<text x="407.2" y="209" text-anchor="middle" font-size="8" fill="#999">256</text>
<line x1="433.5" y1="60" x2="433.5" y2="198" stroke="#f4f4f4"/>
<text x="433.5" y="209" text-anchor="middle" font-size="8" fill="#999">512</text>
<line x1="459.8" y1="60" x2="459.8" y2="198" stroke="#f4f4f4"/>
<text x="459.8" y="209" text-anchor="middle" font-size="8" fill="#999">1k</text>
<line x1="486.0" y1="60" x2="486.0" y2="198" stroke="#f4f4f4"/>
<text x="486.0" y="209" text-anchor="middle" font-size="8" fill="#999">2k</text>
<rect x="506" y="60" width="210" height="138" fill="none" stroke="#e2e2e2"/>
<line x1="506" y1="125.82002602402703" x2="716" y2="125.82002602402703" stroke="#d33" stroke-dasharray="4 3"/>
<text x="502" y="201.0" text-anchor="end" font-size="9" fill="#999">0.5×</text>
<text x="502" y="128.82002602402702" text-anchor="end" font-size="9" fill="#999">1.0×</text>
<text x="502" y="63.08336618880619" text-anchor="end" font-size="9" fill="#999">1.88×</text>
<polygon points="506.0,100.6 558.5,112.3 611.0,87.1 637.2,77.5 663.5,90.2 689.8,99.8 716.0,104.0 716.0,104.9 689.8,102.0 663.5,94.5 637.2,80.1 611.0,92.1 558.5,113.3 506.0,101.7" fill="#d62728" opacity="0.11"/>
<polyline points="506.0,101.1 558.5,112.6 611.0,90.5 637.2,78.6 663.5,93.3 689.8,100.1 716.0,104.3" fill="none" stroke="#d62728" stroke-width="1.6"/>
<circle cx="506.0" cy="101.1" r="2" fill="#d62728"/>
<circle cx="558.5" cy="112.6" r="2" fill="#d62728"/>
<circle cx="611.0" cy="90.5" r="2" fill="#d62728"/>
<circle cx="637.2" cy="78.6" r="2" fill="#d62728"/>
<circle cx="663.5" cy="93.3" r="2" fill="#d62728"/>
<circle cx="689.8" cy="100.1" r="2" fill="#d62728"/>
<circle cx="716.0" cy="104.3" r="2" fill="#d62728"/>
<polygon points="506.0,102.0 558.5,127.8 611.0,109.0 637.2,72.3 663.5,91.8 689.8,111.7 716.0,117.8 716.0,118.3 689.8,112.5 663.5,95.6 637.2,73.2 611.0,109.7 558.5,133.2 506.0,104.1" fill="#2ca02c" opacity="0.11"/>
<polyline points="506.0,103.4 558.5,129.6 611.0,109.3 637.2,72.8 663.5,95.3 689.8,112.1 716.0,118.0" fill="none" stroke="#2ca02c" stroke-width="1.6"/>
<circle cx="506.0" cy="103.4" r="2" fill="#2ca02c"/>
<circle cx="558.5" cy="129.6" r="2" fill="#2ca02c"/>
<circle cx="611.0" cy="109.3" r="2" fill="#2ca02c"/>
<circle cx="637.2" cy="72.8" r="2" fill="#2ca02c"/>
<circle cx="663.5" cy="95.3" r="2" fill="#2ca02c"/>
<circle cx="689.8" cy="112.1" r="2" fill="#2ca02c"/>
<circle cx="716.0" cy="118.0" r="2" fill="#2ca02c"/>
<polygon points="506.0,105.8 558.5,128.6 611.0,88.6 637.2,68.0 663.5,76.7 689.8,101.8 716.0,106.2 716.0,117.4 689.8,108.1 663.5,87.0 637.2,71.7 611.0,96.5 558.5,130.1 506.0,106.9" fill="#1f77b4" opacity="0.11"/>
<polyline points="506.0,106.0 558.5,129.5 611.0,94.4 637.2,69.7 663.5,80.3 689.8,103.2 716.0,115.3" fill="none" stroke="#1f77b4" stroke-width="1.6"/>
<circle cx="506.0" cy="106.0" r="2" fill="#1f77b4"/>
<circle cx="558.5" cy="129.5" r="2" fill="#1f77b4"/>
<circle cx="611.0" cy="94.4" r="2" fill="#1f77b4"/>
<circle cx="637.2" cy="69.7" r="2" fill="#1f77b4"/>
<circle cx="663.5" cy="80.3" r="2" fill="#1f77b4"/>
<circle cx="689.8" cy="103.2" r="2" fill="#1f77b4"/>
<circle cx="716.0" cy="115.3" r="2" fill="#1f77b4"/>
<text x="611.0" y="55" text-anchor="middle" font-size="12" font-weight="bold">zgetrf</text>
<line x1="506.0" y1="60" x2="506.0" y2="198" stroke="#f4f4f4"/>
<text x="506.0" y="209" text-anchor="middle" font-size="8" fill="#999">8</text>
<line x1="558.5" y1="60" x2="558.5" y2="198" stroke="#f4f4f4"/>
<text x="558.5" y="209" text-anchor="middle" font-size="8" fill="#999">32</text>
<line x1="611.0" y1="60" x2="611.0" y2="198" stroke="#f4f4f4"/>
<text x="611.0" y="209" text-anchor="middle" font-size="8" fill="#999">128</text>
<line x1="637.2" y1="60" x2="637.2" y2="198" stroke="#f4f4f4"/>
<text x="637.2" y="209" text-anchor="middle" font-size="8" fill="#999">256</text>
<line x1="663.5" y1="60" x2="663.5" y2="198" stroke="#f4f4f4"/>
<text x="663.5" y="209" text-anchor="middle" font-size="8" fill="#999">512</text>
<line x1="689.8" y1="60" x2="689.8" y2="198" stroke="#f4f4f4"/>
<text x="689.8" y="209" text-anchor="middle" font-size="8" fill="#999">1k</text>
<line x1="716.0" y1="60" x2="716.0" y2="198" stroke="#f4f4f4"/>
<text x="716.0" y="209" text-anchor="middle" font-size="8" fill="#999">2k</text>
<rect x="736" y="60" width="210" height="138" fill="none" stroke="#e2e2e2"/>
<line x1="736" y1="140.37726380902106" x2="946" y2="140.37726380902106" stroke="#d33" stroke-dasharray="4 3"/>
<text x="732" y="201.0" text-anchor="end" font-size="9" fill="#999">0.5×</text>
<text x="732" y="143.37726380902106" text-anchor="end" font-size="9" fill="#999">1.0×</text>
<polygon points="736.0,66.4 788.5,120.4 841.0,126.0 867.2,115.5 893.5,120.6 919.8,129.2 946.0,140.0 946.0,141.4 919.8,130.2 893.5,121.2 867.2,117.4 841.0,126.5 788.5,124.3 736.0,67.5" fill="#d62728" opacity="0.11"/>
<polyline points="736.0,67.3 788.5,124.2 841.0,126.3 867.2,116.4 893.5,120.9 919.8,129.7 946.0,140.2" fill="none" stroke="#d62728" stroke-width="1.6"/>
<circle cx="736.0" cy="67.3" r="2" fill="#d62728"/>
<circle cx="788.5" cy="124.2" r="2" fill="#d62728"/>
<circle cx="841.0" cy="126.3" r="2" fill="#d62728"/>
<circle cx="867.2" cy="116.4" r="2" fill="#d62728"/>
<circle cx="893.5" cy="120.9" r="2" fill="#d62728"/>
<circle cx="919.8" cy="129.7" r="2" fill="#d62728"/>
<circle cx="946.0" cy="140.2" r="2" fill="#d62728"/>
<polygon points="736.0,77.0 788.5,128.9 841.0,142.8 867.2,122.6 893.5,123.9 919.8,134.9 946.0,136.6 946.0,137.7 919.8,136.0 893.5,126.7 867.2,123.9 841.0,143.2 788.5,137.8 736.0,78.7" fill="#2ca02c" opacity="0.11"/>
<polyline points="736.0,78.2 788.5,137.3 841.0,143.0 867.2,123.1 893.5,126.4 919.8,135.6 946.0,137.1" fill="none" stroke="#2ca02c" stroke-width="1.6"/>
<circle cx="736.0" cy="78.2" r="2" fill="#2ca02c"/>
<circle cx="788.5" cy="137.3" r="2" fill="#2ca02c"/>
<circle cx="841.0" cy="143.0" r="2" fill="#2ca02c"/>
<circle cx="867.2" cy="123.1" r="2" fill="#2ca02c"/>
<circle cx="893.5" cy="126.4" r="2" fill="#2ca02c"/>
<circle cx="919.8" cy="135.6" r="2" fill="#2ca02c"/>
<circle cx="946.0" cy="137.1" r="2" fill="#2ca02c"/>
<polygon points="736.0,72.8 788.5,123.0 841.0,142.2 867.2,113.2 893.5,122.2 919.8,131.4 946.0,140.1 946.0,140.3 919.8,133.6 893.5,122.7 867.2,115.2 841.0,142.5 788.5,140.8 736.0,73.5" fill="#1f77b4" opacity="0.11"/>
<polyline points="736.0,73.4 788.5,140.4 841.0,142.3 867.2,114.9 893.5,122.4 919.8,133.1 946.0,140.2" fill="none" stroke="#1f77b4" stroke-width="1.6"/>
<circle cx="736.0" cy="73.4" r="2" fill="#1f77b4"/>
<circle cx="788.5" cy="140.4" r="2" fill="#1f77b4"/>
<circle cx="841.0" cy="142.3" r="2" fill="#1f77b4"/>
<circle cx="867.2" cy="114.9" r="2" fill="#1f77b4"/>
<circle cx="893.5" cy="122.4" r="2" fill="#1f77b4"/>
<circle cx="919.8" cy="133.1" r="2" fill="#1f77b4"/>
<circle cx="946.0" cy="140.2" r="2" fill="#1f77b4"/>
<text x="841.0" y="55" text-anchor="middle" font-size="12" font-weight="bold">zgesvd</text>
<line x1="736.0" y1="60" x2="736.0" y2="198" stroke="#f4f4f4"/>
<text x="736.0" y="209" text-anchor="middle" font-size="8" fill="#999">8</text>
<line x1="788.5" y1="60" x2="788.5" y2="198" stroke="#f4f4f4"/>
<text x="788.5" y="209" text-anchor="middle" font-size="8" fill="#999">32</text>
<line x1="841.0" y1="60" x2="841.0" y2="198" stroke="#f4f4f4"/>
<text x="841.0" y="209" text-anchor="middle" font-size="8" fill="#999">128</text>
<line x1="867.2" y1="60" x2="867.2" y2="198" stroke="#f4f4f4"/>
<text x="867.2" y="209" text-anchor="middle" font-size="8" fill="#999">256</text>
<line x1="893.5" y1="60" x2="893.5" y2="198" stroke="#f4f4f4"/>
<text x="893.5" y="209" text-anchor="middle" font-size="8" fill="#999">512</text>
<line x1="919.8" y1="60" x2="919.8" y2="198" stroke="#f4f4f4"/>
<text x="919.8" y="209" text-anchor="middle" font-size="8" fill="#999">1k</text>
<line x1="946.0" y1="60" x2="946.0" y2="198" stroke="#f4f4f4"/>
<text x="946.0" y="209" text-anchor="middle" font-size="8" fill="#999">2k</text>
</svg>
