<svg xmlns="http://www.w3.org/2000/svg" width="962" height="420" font-family="sans-serif">
<rect width="962" height="420" fill="white"/>
<text x="481.0" y="26" text-anchor="middle" font-size="17" font-weight="bold">BLAS-3 — PureBLAS / AOCL (PB/AOCL ratio)</text>
<line x1="46" y1="42" x2="68" y2="42" stroke="#d62728" stroke-width="3"/>
<text x="73" y="46" font-size="12">Zen3 · AVX2</text>
<line x1="176" y1="42" x2="198" y2="42" stroke="#2ca02c" stroke-width="3"/>
<text x="203" y="46" font-size="12">Zen5 · AVX-512</text>
<line x1="327" y1="42" x2="349" y2="42" stroke="#1f77b4" stroke-width="3"/>
<text x="354" y="46" font-size="12">Zen4 · AVX-512</text>
<rect x="46" y="60" width="210" height="138" fill="none" stroke="#e2e2e2"/>
<line x1="46" y1="126.22731769753183" x2="256" y2="126.22731769753183" stroke="#d33" stroke-dasharray="4 3"/>
<text x="42" y="201.0" text-anchor="end" font-size="9" fill="#999">0.5×</text>
<text x="42" y="129.22731769753182" text-anchor="end" font-size="9" fill="#999">1.0×</text>
<polygon points="46.0,80.5 92.7,123.2 139.3,126.9 162.7,125.5 186.0,124.1 209.3,119.5 232.7,111.8 256.0,100.3 256.0,100.7 232.7,112.2 209.3,119.7 186.0,124.3 162.7,126.4 139.3,128.1 92.7,126.2 46.0,81.6" fill="#d62728" opacity="0.11"/>
<polyline points="46.0,81.2 92.7,123.8 139.3,127.2 162.7,125.8 186.0,124.3 209.3,119.6 232.7,112.0 256.0,100.5" fill="none" stroke="#d62728" stroke-width="1.6"/>
<circle cx="46.0" cy="81.2" r="2" fill="#d62728"/>
<circle cx="92.7" cy="123.8" r="2" fill="#d62728"/>
<circle cx="139.3" cy="127.2" r="2" fill="#d62728"/>
<circle cx="162.7" cy="125.8" r="2" fill="#d62728"/>
<circle cx="186.0" cy="124.3" r="2" fill="#d62728"/>
<circle cx="209.3" cy="119.6" r="2" fill="#d62728"/>
<circle cx="232.7" cy="112.0" r="2" fill="#d62728"/>
<circle cx="256.0" cy="100.5" r="2" fill="#d62728"/>
<polygon points="46.0,68.0 92.7,115.9 139.3,126.2 162.7,126.4 186.0,126.1 209.3,119.8 232.7,110.3 256.0,98.1 256.0,98.6 232.7,111.4 209.3,121.0 186.0,126.8 162.7,128.2 139.3,127.8 92.7,118.9 46.0,72.3" fill="#2ca02c" opacity="0.11"/>
<polyline points="46.0,70.6 92.7,117.3 139.3,126.9 162.7,126.7 186.0,126.4 209.3,120.6 232.7,110.8 256.0,98.4" fill="none" stroke="#2ca02c" stroke-width="1.6"/>
<circle cx="46.0" cy="70.6" r="2" fill="#2ca02c"/>
<circle cx="92.7" cy="117.3" r="2" fill="#2ca02c"/>
<circle cx="139.3" cy="126.9" r="2" fill="#2ca02c"/>
<circle cx="162.7" cy="126.7" r="2" fill="#2ca02c"/>
<circle cx="186.0" cy="126.4" r="2" fill="#2ca02c"/>
<circle cx="209.3" cy="120.6" r="2" fill="#2ca02c"/>
<circle cx="232.7" cy="110.8" r="2" fill="#2ca02c"/>
<circle cx="256.0" cy="98.4" r="2" fill="#2ca02c"/>
<polygon points="46.0,74.6 92.7,108.8 139.3,127.8 162.7,127.0 186.0,117.0 209.3,111.0 232.7,90.8 256.0,101.6 256.0,102.5 232.7,98.9 209.3,113.8 186.0,119.5 162.7,127.7 139.3,129.3 92.7,111.4 46.0,91.3" fill="#1f77b4" opacity="0.11"/>
<polyline points="46.0,80.9 92.7,110.0 139.3,129.0 162.7,127.3 186.0,118.5 209.3,112.7 232.7,93.3 256.0,102.0" fill="none" stroke="#1f77b4" stroke-width="1.6"/>
<circle cx="46.0" cy="80.9" r="2" fill="#1f77b4"/>
<circle cx="92.7" cy="110.0" r="2" fill="#1f77b4"/>
<circle cx="139.3" cy="129.0" r="2" fill="#1f77b4"/>
<circle cx="162.7" cy="127.3" r="2" fill="#1f77b4"/>
<circle cx="186.0" cy="118.5" r="2" fill="#1f77b4"/>
<circle cx="209.3" cy="112.7" r="2" fill="#1f77b4"/>
<circle cx="232.7" cy="93.3" r="2" fill="#1f77b4"/>
<circle cx="256.0" cy="102.0" r="2" fill="#1f77b4"/>
<text x="151.0" y="55" text-anchor="middle" font-size="12" font-weight="bold">gemm</text>
<line x1="46.0" y1="60" x2="46.0" y2="198" stroke="#f4f4f4"/>
<text x="46.0" y="209" text-anchor="middle" font-size="8" fill="#999">8</text>
<line x1="92.7" y1="60" x2="92.7" y2="198" stroke="#f4f4f4"/>
<text x="92.7" y="209" text-anchor="middle" font-size="8" fill="#999">32</text>
<line x1="139.3" y1="60" x2="139.3" y2="198" stroke="#f4f4f4"/>
<text x="139.3" y="209" text-anchor="middle" font-size="8" fill="#999">128</text>
<line x1="162.7" y1="60" x2="162.7" y2="198" stroke="#f4f4f4"/>
<text x="162.7" y="209" text-anchor="middle" font-size="8" fill="#999">256</text>
<line x1="186.0" y1="60" x2="186.0" y2="198" stroke="#f4f4f4"/>
<text x="186.0" y="209" text-anchor="middle" font-size="8" fill="#999">512</text>
<line x1="209.3" y1="60" x2="209.3" y2="198" stroke="#f4f4f4"/>
<text x="209.3" y="209" text-anchor="middle" font-size="8" fill="#999">1k</text>
<line x1="232.7" y1="60" x2="232.7" y2="198" stroke="#f4f4f4"/>
<text x="232.7" y="209" text-anchor="middle" font-size="8" fill="#999">2k</text>
<line x1="256.0" y1="60" x2="256.0" y2="198" stroke="#f4f4f4"/>
<text x="256.0" y="209" text-anchor="middle" font-size="8" fill="#999">4k</text>
<rect x="276" y="60" width="210" height="138" fill="none" stroke="#e2e2e2"/>
<line x1="276" y1="175.06226505250044" x2="486" y2="175.06226505250044" stroke="#d33" stroke-dasharray="4 3"/>
<text x="272" y="201.0" text-anchor="end" font-size="9" fill="#999">0.5×</text>
<text x="272" y="178.06226505250044" text-anchor="end" font-size="9" fill="#999">1.0×</text>
<text x="272" y="63.003382093365055" text-anchor="end" font-size="9" fill="#999">32.36×</text>
<polygon points="276.0,71.2 322.7,146.7 369.3,173.0 392.7,177.6 416.0,176.3 439.3,175.8 462.7,175.3 486.0,174.8 486.0,174.9 462.7,175.5 439.3,175.9 416.0,176.3 392.7,177.8 369.3,174.3 322.7,150.0 276.0,72.0" fill="#d62728" opacity="0.11"/>
<polyline points="276.0,71.3 322.7,147.3 369.3,173.9 392.7,177.7 416.0,176.3 439.3,175.8 462.7,175.4 486.0,174.9" fill="none" stroke="#d62728" stroke-width="1.6"/>
<circle cx="276.0" cy="71.3" r="2" fill="#d62728"/>
<circle cx="322.7" cy="147.3" r="2" fill="#d62728"/>
<circle cx="369.3" cy="173.9" r="2" fill="#d62728"/>
<circle cx="392.7" cy="177.7" r="2" fill="#d62728"/>
<circle cx="416.0" cy="176.3" r="2" fill="#d62728"/>
<circle cx="439.3" cy="175.8" r="2" fill="#d62728"/>
<circle cx="462.7" cy="175.4" r="2" fill="#d62728"/>
<circle cx="486.0" cy="174.9" r="2" fill="#d62728"/>
<polygon points="276.0,62.5 322.7,141.2 369.3,170.3 392.7,174.3 416.0,175.0 439.3,175.6 462.7,175.7 486.0,175.3 486.0,175.3 462.7,175.8 439.3,175.8 416.0,175.2 392.7,174.6 369.3,170.5 322.7,142.0 276.0,67.6" fill="#2ca02c" opacity="0.11"/>
<polyline points="276.0,63.0 322.7,141.6 369.3,170.4 392.7,174.4 416.0,175.0 439.3,175.8 462.7,175.7 486.0,175.3" fill="none" stroke="#2ca02c" stroke-width="1.6"/>
<circle cx="276.0" cy="63.0" r="2" fill="#2ca02c"/>
<circle cx="322.7" cy="141.6" r="2" fill="#2ca02c"/>
<circle cx="369.3" cy="170.4" r="2" fill="#2ca02c"/>
<circle cx="392.7" cy="174.4" r="2" fill="#2ca02c"/>
<circle cx="416.0" cy="175.0" r="2" fill="#2ca02c"/>
<circle cx="439.3" cy="175.8" r="2" fill="#2ca02c"/>
<circle cx="462.7" cy="175.7" r="2" fill="#2ca02c"/>
<circle cx="486.0" cy="175.3" r="2" fill="#2ca02c"/>
<polygon points="276.0,64.2 322.7,138.4 369.3,170.2 392.7,176.0 416.0,175.9 439.3,176.1 462.7,176.3 486.0,176.1 486.0,176.7 462.7,176.3 439.3,176.2 416.0,176.0 392.7,176.2 369.3,170.6 322.7,140.5 276.0,67.1" fill="#1f77b4" opacity="0.11"/>
<polyline points="276.0,64.5 322.7,138.7 369.3,170.5 392.7,176.1 416.0,175.9 439.3,176.1 462.7,176.3 486.0,176.4" fill="none" stroke="#1f77b4" stroke-width="1.6"/>
<circle cx="276.0" cy="64.5" r="2" fill="#1f77b4"/>
<circle cx="322.7" cy="138.7" r="2" fill="#1f77b4"/>
<circle cx="369.3" cy="170.5" r="2" fill="#1f77b4"/>
<circle cx="392.7" cy="176.1" r="2" fill="#1f77b4"/>
<circle cx="416.0" cy="175.9" r="2" fill="#1f77b4"/>
<circle cx="439.3" cy="176.1" r="2" fill="#1f77b4"/>
<circle cx="462.7" cy="176.3" r="2" fill="#1f77b4"/>
<circle cx="486.0" cy="176.4" r="2" fill="#1f77b4"/>
<text x="381.0" y="55" text-anchor="middle" font-size="12" font-weight="bold">symm</text>
<line x1="276.0" y1="60" x2="276.0" y2="198" stroke="#f4f4f4"/>
<text x="276.0" y="209" text-anchor="middle" font-size="8" fill="#999">8</text>
<line x1="322.7" y1="60" x2="322.7" y2="198" stroke="#f4f4f4"/>
<text x="322.7" y="209" text-anchor="middle" font-size="8" fill="#999">32</text>
<line x1="369.3" y1="60" x2="369.3" y2="198" stroke="#f4f4f4"/>
<text x="369.3" y="209" text-anchor="middle" font-size="8" fill="#999">128</text>
<line x1="392.7" y1="60" x2="392.7" y2="198" stroke="#f4f4f4"/>
<text x="392.7" y="209" text-anchor="middle" font-size="8" fill="#999">256</text>
<line x1="416.0" y1="60" x2="416.0" y2="198" stroke="#f4f4f4"/>
<text x="416.0" y="209" text-anchor="middle" font-size="8" fill="#999">512</text>
<line x1="439.3" y1="60" x2="439.3" y2="198" stroke="#f4f4f4"/>
<text x="439.3" y="209" text-anchor="middle" font-size="8" fill="#999">1k</text>
<line x1="462.7" y1="60" x2="462.7" y2="198" stroke="#f4f4f4"/>
<text x="462.7" y="209" text-anchor="middle" font-size="8" fill="#999">2k</text>
<line x1="486.0" y1="60" x2="486.0" y2="198" stroke="#f4f4f4"/>
<text x="486.0" y="209" text-anchor="middle" font-size="8" fill="#999">4k</text>
<rect x="506" y="60" width="210" height="138" fill="none" stroke="#e2e2e2"/>
<line x1="506" y1="167.84611557201086" x2="716" y2="167.84611557201086" stroke="#d33" stroke-dasharray="4 3"/>
<text x="502" y="201.0" text-anchor="end" font-size="9" fill="#999">0.5×</text>
<text x="502" y="170.84611557201086" text-anchor="end" font-size="9" fill="#999">1.0×</text>
<text x="502" y="63.000080371011364" text-anchor="end" font-size="9" fill="#999">11.93×</text>
<polygon points="506.0,68.3 552.7,161.2 599.3,166.4 622.7,168.3 646.0,167.5 669.3,168.4 692.7,169.4 716.0,169.0 716.0,169.2 692.7,169.6 669.3,168.5 646.0,167.8 622.7,169.5 599.3,171.4 552.7,165.5 506.0,69.8" fill="#d62728" opacity="0.11"/>
<polyline points="506.0,68.7 552.7,163.4 599.3,168.8 622.7,168.5 646.0,167.6 669.3,168.5 692.7,169.5 716.0,169.1" fill="none" stroke="#d62728" stroke-width="1.6"/>
<circle cx="506.0" cy="68.7" r="2" fill="#d62728"/>
<circle cx="552.7" cy="163.4" r="2" fill="#d62728"/>
<circle cx="599.3" cy="168.8" r="2" fill="#d62728"/>
<circle cx="622.7" cy="168.5" r="2" fill="#d62728"/>
<circle cx="646.0" cy="167.6" r="2" fill="#d62728"/>
<circle cx="669.3" cy="168.5" r="2" fill="#d62728"/>
<circle cx="692.7" cy="169.5" r="2" fill="#d62728"/>
<circle cx="716.0" cy="169.1" r="2" fill="#d62728"/>
<polygon points="506.0,79.8 552.7,165.0 599.3,173.0 622.7,165.0 646.0,165.7 669.3,167.0 692.7,168.6 716.0,169.8 716.0,170.0 692.7,168.8 669.3,167.2 646.0,165.8 622.7,165.5 599.3,173.9 552.7,165.7 506.0,82.6" fill="#2ca02c" opacity="0.11"/>
<polyline points="506.0,80.1 552.7,165.4 599.3,173.3 622.7,165.2 646.0,165.8 669.3,167.1 692.7,168.7 716.0,169.9" fill="none" stroke="#2ca02c" stroke-width="1.6"/>
<circle cx="506.0" cy="80.1" r="2" fill="#2ca02c"/>
<circle cx="552.7" cy="165.4" r="2" fill="#2ca02c"/>
<circle cx="599.3" cy="173.3" r="2" fill="#2ca02c"/>
<circle cx="622.7" cy="165.2" r="2" fill="#2ca02c"/>
<circle cx="646.0" cy="165.8" r="2" fill="#2ca02c"/>
<circle cx="669.3" cy="167.1" r="2" fill="#2ca02c"/>
<circle cx="692.7" cy="168.7" r="2" fill="#2ca02c"/>
<circle cx="716.0" cy="169.9" r="2" fill="#2ca02c"/>
<polygon points="506.0,63.3 552.7,152.4 599.3,171.6 622.7,165.3 646.0,165.2 669.3,166.6 692.7,169.4 716.0,169.4 716.0,170.8 692.7,170.1 669.3,166.8 646.0,165.4 622.7,165.8 599.3,171.9 552.7,153.4 506.0,65.3" fill="#1f77b4" opacity="0.11"/>
<polyline points="506.0,63.9 552.7,152.9 599.3,171.7 622.7,165.4 646.0,165.2 669.3,166.7 692.7,169.6 716.0,170.2" fill="none" stroke="#1f77b4" stroke-width="1.6"/>
<circle cx="506.0" cy="63.9" r="2" fill="#1f77b4"/>
<circle cx="552.7" cy="152.9" r="2" fill="#1f77b4"/>
<circle cx="599.3" cy="171.7" r="2" fill="#1f77b4"/>
<circle cx="622.7" cy="165.4" r="2" fill="#1f77b4"/>
<circle cx="646.0" cy="165.2" r="2" fill="#1f77b4"/>
<circle cx="669.3" cy="166.7" r="2" fill="#1f77b4"/>
<circle cx="692.7" cy="169.6" r="2" fill="#1f77b4"/>
<circle cx="716.0" cy="170.2" r="2" fill="#1f77b4"/>
<text x="611.0" y="55" text-anchor="middle" font-size="12" font-weight="bold">syrk</text>
<line x1="506.0" y1="60" x2="506.0" y2="198" stroke="#f4f4f4"/>
<text x="506.0" y="209" text-anchor="middle" font-size="8" fill="#999">8</text>
<line x1="552.7" y1="60" x2="552.7" y2="198" stroke="#f4f4f4"/>
<text x="552.7" y="209" text-anchor="middle" font-size="8" fill="#999">32</text>
<line x1="599.3" y1="60" x2="599.3" y2="198" stroke="#f4f4f4"/>
<text x="599.3" y="209" text-anchor="middle" font-size="8" fill="#999">128</text>
<line x1="622.7" y1="60" x2="622.7" y2="198" stroke="#f4f4f4"/>
<text x="622.7" y="209" text-anchor="middle" font-size="8" fill="#999">256</text>
<line x1="646.0" y1="60" x2="646.0" y2="198" stroke="#f4f4f4"/>
<text x="646.0" y="209" text-anchor="middle" font-size="8" fill="#999">512</text>
<line x1="669.3" y1="60" x2="669.3" y2="198" stroke="#f4f4f4"/>
<text x="669.3" y="209" text-anchor="middle" font-size="8" fill="#999">1k</text>
<line x1="692.7" y1="60" x2="692.7" y2="198" stroke="#f4f4f4"/>
<text x="692.7" y="209" text-anchor="middle" font-size="8" fill="#999">2k</text>
<line x1="716.0" y1="60" x2="716.0" y2="198" stroke="#f4f4f4"/>
<text x="716.0" y="209" text-anchor="middle" font-size="8" fill="#999">4k</text>
<rect x="736" y="60" width="210" height="138" fill="none" stroke="#e2e2e2"/>
<line x1="736" y1="176.71101814341807" x2="946" y2="176.71101814341807" stroke="#d33" stroke-dasharray="4 3"/>
<text x="732" y="201.0" text-anchor="end" font-size="9" fill="#999">0.5×</text>
<text x="732" y="179.71101814341807" text-anchor="end" font-size="9" fill="#999">1.0×</text>
<text x="732" y="63.00049951140327" text-anchor="end" font-size="9" fill="#999">44.7×</text>
<polygon points="736.0,68.4 782.7,136.5 829.3,173.6 852.7,176.6 876.0,176.1 899.3,177.1 922.7,177.8 946.0,177.4 946.0,177.5 922.7,177.9 899.3,177.2 876.0,176.3 852.7,176.8 829.3,176.1 782.7,139.9 736.0,69.6" fill="#d62728" opacity="0.11"/>
<polyline points="736.0,68.8 782.7,136.9 829.3,174.3 852.7,176.7 876.0,176.2 899.3,177.2 922.7,177.8 946.0,177.5" fill="none" stroke="#d62728" stroke-width="1.6"/>
<circle cx="736.0" cy="68.8" r="2" fill="#d62728"/>
<circle cx="782.7" cy="136.9" r="2" fill="#d62728"/>
<circle cx="829.3" cy="174.3" r="2" fill="#d62728"/>
<circle cx="852.7" cy="176.7" r="2" fill="#d62728"/>
<circle cx="876.0" cy="176.2" r="2" fill="#d62728"/>
<circle cx="899.3" cy="177.2" r="2" fill="#d62728"/>
<circle cx="922.7" cy="177.8" r="2" fill="#d62728"/>
<circle cx="946.0" cy="177.5" r="2" fill="#d62728"/>
<polygon points="736.0,62.4 782.7,131.4 829.3,165.9 852.7,171.2 876.0,175.1 899.3,175.8 922.7,177.3 946.0,178.0 946.0,178.1 922.7,177.5 899.3,176.0 876.0,175.2 852.7,171.6 829.3,166.5 782.7,133.0 736.0,67.2" fill="#2ca02c" opacity="0.11"/>
<polyline points="736.0,63.9 782.7,131.9 829.3,166.2 852.7,171.4 876.0,175.1 899.3,175.9 922.7,177.4 946.0,178.0" fill="none" stroke="#2ca02c" stroke-width="1.6"/>
<circle cx="736.0" cy="63.9" r="2" fill="#2ca02c"/>
<circle cx="782.7" cy="131.9" r="2" fill="#2ca02c"/>
<circle cx="829.3" cy="166.2" r="2" fill="#2ca02c"/>
<circle cx="852.7" cy="171.4" r="2" fill="#2ca02c"/>
<circle cx="876.0" cy="175.1" r="2" fill="#2ca02c"/>
<circle cx="899.3" cy="175.9" r="2" fill="#2ca02c"/>
<circle cx="922.7" cy="177.4" r="2" fill="#2ca02c"/>
<circle cx="946.0" cy="178.0" r="2" fill="#2ca02c"/>
<polygon points="736.0,62.7 782.7,134.2 829.3,165.4 852.7,171.3 876.0,174.5 899.3,175.4 922.7,177.4 946.0,177.3 946.0,177.7 922.7,177.4 899.3,175.5 876.0,174.6 852.7,172.0 829.3,165.7 782.7,135.0 736.0,68.7" fill="#1f77b4" opacity="0.11"/>
<polyline points="736.0,63.4 782.7,134.4 829.3,165.5 852.7,171.6 876.0,174.6 899.3,175.5 922.7,177.4 946.0,177.6" fill="none" stroke="#1f77b4" stroke-width="1.6"/>
<circle cx="736.0" cy="63.4" r="2" fill="#1f77b4"/>
<circle cx="782.7" cy="134.4" r="2" fill="#1f77b4"/>
<circle cx="829.3" cy="165.5" r="2" fill="#1f77b4"/>
<circle cx="852.7" cy="171.6" r="2" fill="#1f77b4"/>
<circle cx="876.0" cy="174.6" r="2" fill="#1f77b4"/>
<circle cx="899.3" cy="175.5" r="2" fill="#1f77b4"/>
<circle cx="922.7" cy="177.4" r="2" fill="#1f77b4"/>
<circle cx="946.0" cy="177.6" r="2" fill="#1f77b4"/>
<text x="841.0" y="55" text-anchor="middle" font-size="12" font-weight="bold">syr2k</text>
<line x1="736.0" y1="60" x2="736.0" y2="198" stroke="#f4f4f4"/>
<text x="736.0" y="209" text-anchor="middle" font-size="8" fill="#999">8</text>
<line x1="782.7" y1="60" x2="782.7" y2="198" stroke="#f4f4f4"/>
<text x="782.7" y="209" text-anchor="middle" font-size="8" fill="#999">32</text>
<line x1="829.3" y1="60" x2="829.3" y2="198" stroke="#f4f4f4"/>
<text x="829.3" y="209" text-anchor="middle" font-size="8" fill="#999">128</text>
<line x1="852.7" y1="60" x2="852.7" y2="198" stroke="#f4f4f4"/>
<text x="852.7" y="209" text-anchor="middle" font-size="8" fill="#999">256</text>
<line x1="876.0" y1="60" x2="876.0" y2="198" stroke="#f4f4f4"/>
<text x="876.0" y="209" text-anchor="middle" font-size="8" fill="#999">512</text>
<line x1="899.3" y1="60" x2="899.3" y2="198" stroke="#f4f4f4"/>
<text x="899.3" y="209" text-anchor="middle" font-size="8" fill="#999">1k</text>
<line x1="922.7" y1="60" x2="922.7" y2="198" stroke="#f4f4f4"/>
<text x="922.7" y="209" text-anchor="middle" font-size="8" fill="#999">2k</text>
<line x1="946.0" y1="60" x2="946.0" y2="198" stroke="#f4f4f4"/>
<text x="946.0" y="209" text-anchor="middle" font-size="8" fill="#999">4k</text>
<rect x="46" y="232" width="210" height="138" fill="none" stroke="#e2e2e2"/>
<line x1="46" y1="347.8426887221866" x2="256" y2="347.8426887221866" stroke="#d33" stroke-dasharray="4 3"/>
<text x="42" y="373.0" text-anchor="end" font-size="9" fill="#999">0.5×</text>
<text x="42" y="350.8426887221866" text-anchor="end" font-size="9" fill="#999">1.0×</text>
<text x="42" y="235.00317859253448" text-anchor="end" font-size="9" fill="#999">37.48×</text>
<polygon points="46.0,250.6 92.7,312.3 139.3,347.1 162.7,349.5 186.0,349.4 209.3,349.4 232.7,349.1 256.0,348.2 256.0,348.3 232.7,349.2 209.3,349.4 186.0,349.6 162.7,349.7 139.3,348.7 92.7,318.7 46.0,251.3" fill="#d62728" opacity="0.11"/>
<polyline points="46.0,250.7 92.7,313.9 139.3,347.4 162.7,349.6 186.0,349.5 209.3,349.4 232.7,349.1 256.0,348.2" fill="none" stroke="#d62728" stroke-width="1.6"/>
<circle cx="46.0" cy="250.7" r="2" fill="#d62728"/>
<circle cx="92.7" cy="313.9" r="2" fill="#d62728"/>
<circle cx="139.3" cy="347.4" r="2" fill="#d62728"/>
<circle cx="162.7" cy="349.6" r="2" fill="#d62728"/>
<circle cx="186.0" cy="349.5" r="2" fill="#d62728"/>
<circle cx="209.3" cy="349.4" r="2" fill="#d62728"/>
<circle cx="232.7" cy="349.1" r="2" fill="#d62728"/>
<circle cx="256.0" cy="348.2" r="2" fill="#d62728"/>
<polygon points="46.0,234.5 92.7,311.4 139.3,341.5 162.7,345.1 186.0,348.5 209.3,348.8 232.7,349.1 256.0,348.8 256.0,348.9 232.7,349.3 209.3,349.1 186.0,349.0 162.7,345.5 139.3,342.2 92.7,313.0 46.0,238.3" fill="#2ca02c" opacity="0.11"/>
<polyline points="46.0,235.0 92.7,311.9 139.3,341.9 162.7,345.3 186.0,348.7 209.3,349.0 232.7,349.2 256.0,348.8" fill="none" stroke="#2ca02c" stroke-width="1.6"/>
<circle cx="46.0" cy="235.0" r="2" fill="#2ca02c"/>
<circle cx="92.7" cy="311.9" r="2" fill="#2ca02c"/>
<circle cx="139.3" cy="341.9" r="2" fill="#2ca02c"/>
<circle cx="162.7" cy="345.3" r="2" fill="#2ca02c"/>
<circle cx="186.0" cy="348.7" r="2" fill="#2ca02c"/>
<circle cx="209.3" cy="349.0" r="2" fill="#2ca02c"/>
<circle cx="232.7" cy="349.2" r="2" fill="#2ca02c"/>
<circle cx="256.0" cy="348.8" r="2" fill="#2ca02c"/>
<polygon points="46.0,236.7 92.7,313.3 139.3,341.9 162.7,345.5 186.0,349.2 209.3,349.4 232.7,350.0 256.0,350.2 256.0,350.8 232.7,350.6 209.3,349.5 186.0,349.5 162.7,345.7 139.3,342.1 92.7,314.6 46.0,239.7" fill="#1f77b4" opacity="0.11"/>
<polyline points="46.0,237.2 92.7,313.6 139.3,342.0 162.7,345.6 186.0,349.4 209.3,349.5 232.7,350.3 256.0,350.4" fill="none" stroke="#1f77b4" stroke-width="1.6"/>
<circle cx="46.0" cy="237.2" r="2" fill="#1f77b4"/>
<circle cx="92.7" cy="313.6" r="2" fill="#1f77b4"/>
<circle cx="139.3" cy="342.0" r="2" fill="#1f77b4"/>
<circle cx="162.7" cy="345.6" r="2" fill="#1f77b4"/>
<circle cx="186.0" cy="349.4" r="2" fill="#1f77b4"/>
<circle cx="209.3" cy="349.5" r="2" fill="#1f77b4"/>
<circle cx="232.7" cy="350.3" r="2" fill="#1f77b4"/>
<circle cx="256.0" cy="350.4" r="2" fill="#1f77b4"/>
<text x="151.0" y="227" text-anchor="middle" font-size="12" font-weight="bold">trmm</text>
<line x1="46.0" y1="232" x2="46.0" y2="370" stroke="#f4f4f4"/>
<text x="46.0" y="381" text-anchor="middle" font-size="8" fill="#999">8</text>
<line x1="92.7" y1="232" x2="92.7" y2="370" stroke="#f4f4f4"/>
<text x="92.7" y="381" text-anchor="middle" font-size="8" fill="#999">32</text>
<line x1="139.3" y1="232" x2="139.3" y2="370" stroke="#f4f4f4"/>
<text x="139.3" y="381" text-anchor="middle" font-size="8" fill="#999">128</text>
<line x1="162.7" y1="232" x2="162.7" y2="370" stroke="#f4f4f4"/>
<text x="162.7" y="381" text-anchor="middle" font-size="8" fill="#999">256</text>
<line x1="186.0" y1="232" x2="186.0" y2="370" stroke="#f4f4f4"/>
<text x="186.0" y="381" text-anchor="middle" font-size="8" fill="#999">512</text>
<line x1="209.3" y1="232" x2="209.3" y2="370" stroke="#f4f4f4"/>
<text x="209.3" y="381" text-anchor="middle" font-size="8" fill="#999">1k</text>
<line x1="232.7" y1="232" x2="232.7" y2="370" stroke="#f4f4f4"/>
<text x="232.7" y="381" text-anchor="middle" font-size="8" fill="#999">2k</text>
<line x1="256.0" y1="232" x2="256.0" y2="370" stroke="#f4f4f4"/>
<text x="256.0" y="381" text-anchor="middle" font-size="8" fill="#999">4k</text>
<rect x="276" y="232" width="210" height="138" fill="none" stroke="#e2e2e2"/>
<line x1="276" y1="290.8789646399569" x2="486" y2="290.8789646399569" stroke="#d33" stroke-dasharray="4 3"/>
<text x="272" y="373.0" text-anchor="end" font-size="9" fill="#999">0.5×</text>
<text x="272" y="293.8789646399569" text-anchor="end" font-size="9" fill="#999">1.0×</text>
<polygon points="276.0,259.6 322.7,273.5 369.3,293.5 392.7,293.2 416.0,284.1 439.3,285.8 462.7,284.2 486.0,281.2 486.0,292.3 462.7,284.6 439.3,286.4 416.0,285.0 392.7,294.9 369.3,295.2 322.7,321.0 276.0,262.8" fill="#d62728" opacity="0.11"/>
<polyline points="276.0,261.0 322.7,293.9 369.3,294.3 392.7,294.0 416.0,284.4 439.3,286.2 462.7,284.4 486.0,283.4" fill="none" stroke="#d62728" stroke-width="1.6"/>
<circle cx="276.0" cy="261.0" r="2" fill="#d62728"/>
<circle cx="322.7" cy="293.9" r="2" fill="#d62728"/>
<circle cx="369.3" cy="294.3" r="2" fill="#d62728"/>
<circle cx="392.7" cy="294.0" r="2" fill="#d62728"/>
<circle cx="416.0" cy="284.4" r="2" fill="#d62728"/>
<circle cx="439.3" cy="286.2" r="2" fill="#d62728"/>
<circle cx="462.7" cy="284.4" r="2" fill="#d62728"/>
<circle cx="486.0" cy="283.4" r="2" fill="#d62728"/>
<polygon points="276.0,240.8 322.7,295.8 369.3,276.8 392.7,284.8 416.0,293.4 439.3,290.9 462.7,288.1 486.0,281.7 486.0,285.8 462.7,288.6 439.3,292.2 416.0,294.7 392.7,287.4 369.3,282.2 322.7,307.0 276.0,249.9" fill="#2ca02c" opacity="0.11"/>
<polyline points="276.0,243.1 322.7,299.1 369.3,279.8 392.7,285.5 416.0,294.5 439.3,291.5 462.7,288.3 486.0,282.8" fill="none" stroke="#2ca02c" stroke-width="1.6"/>
<circle cx="276.0" cy="243.1" r="2" fill="#2ca02c"/>
<circle cx="322.7" cy="299.1" r="2" fill="#2ca02c"/>
<circle cx="369.3" cy="279.8" r="2" fill="#2ca02c"/>
<circle cx="392.7" cy="285.5" r="2" fill="#2ca02c"/>
<circle cx="416.0" cy="294.5" r="2" fill="#2ca02c"/>
<circle cx="439.3" cy="291.5" r="2" fill="#2ca02c"/>
<circle cx="462.7" cy="288.3" r="2" fill="#2ca02c"/>
<circle cx="486.0" cy="282.8" r="2" fill="#2ca02c"/>
<polygon points="276.0,248.3 322.7,297.2 369.3,298.5 392.7,295.7 416.0,300.7 439.3,294.8 462.7,287.7 486.0,275.7 486.0,297.7 462.7,288.9 439.3,296.0 416.0,301.5 392.7,296.1 369.3,299.3 322.7,301.2 276.0,262.8" fill="#1f77b4" opacity="0.11"/>
<polyline points="276.0,260.9 322.7,298.5 369.3,299.0 392.7,295.9 416.0,300.9 439.3,295.4 462.7,288.1 486.0,294.7" fill="none" stroke="#1f77b4" stroke-width="1.6"/>
<circle cx="276.0" cy="260.9" r="2" fill="#1f77b4"/>
<circle cx="322.7" cy="298.5" r="2" fill="#1f77b4"/>
<circle cx="369.3" cy="299.0" r="2" fill="#1f77b4"/>
<circle cx="392.7" cy="295.9" r="2" fill="#1f77b4"/>
<circle cx="416.0" cy="300.9" r="2" fill="#1f77b4"/>
<circle cx="439.3" cy="295.4" r="2" fill="#1f77b4"/>
<circle cx="462.7" cy="288.1" r="2" fill="#1f77b4"/>
<circle cx="486.0" cy="294.7" r="2" fill="#1f77b4"/>
<text x="381.0" y="227" text-anchor="middle" font-size="12" font-weight="bold">trsm</text>
<line x1="276.0" y1="232" x2="276.0" y2="370" stroke="#f4f4f4"/>
<text x="276.0" y="381" text-anchor="middle" font-size="8" fill="#999">8</text>
<line x1="322.7" y1="232" x2="322.7" y2="370" stroke="#f4f4f4"/>
<text x="322.7" y="381" text-anchor="middle" font-size="8" fill="#999">32</text>
<line x1="369.3" y1="232" x2="369.3" y2="370" stroke="#f4f4f4"/>
<text x="369.3" y="381" text-anchor="middle" font-size="8" fill="#999">128</text>
<line x1="392.7" y1="232" x2="392.7" y2="370" stroke="#f4f4f4"/>
<text x="392.7" y="381" text-anchor="middle" font-size="8" fill="#999">256</text>
<line x1="416.0" y1="232" x2="416.0" y2="370" stroke="#f4f4f4"/>
<text x="416.0" y="381" text-anchor="middle" font-size="8" fill="#999">512</text>
<line x1="439.3" y1="232" x2="439.3" y2="370" stroke="#f4f4f4"/>
<text x="439.3" y="381" text-anchor="middle" font-size="8" fill="#999">1k</text>
<line x1="462.7" y1="232" x2="462.7" y2="370" stroke="#f4f4f4"/>
<text x="462.7" y="381" text-anchor="middle" font-size="8" fill="#999">2k</text>
<line x1="486.0" y1="232" x2="486.0" y2="370" stroke="#f4f4f4"/>
<text x="486.0" y="381" text-anchor="middle" font-size="8" fill="#999">4k</text>
<rect x="506" y="232" width="210" height="138" fill="none" stroke="#e2e2e2"/>
<line x1="506" y1="321.48080464881014" x2="716" y2="321.48080464881014" stroke="#d33" stroke-dasharray="4 3"/>
<text x="502" y="373.0" text-anchor="end" font-size="9" fill="#999">0.5×</text>
<text x="502" y="324.48080464881014" text-anchor="end" font-size="9" fill="#999">1.0×</text>
<text x="502" y="235.01219229499128" text-anchor="end" font-size="9" fill="#999">3.59×</text>
<polygon points="506.0,253.2 552.7,315.5 599.3,332.4 622.7,325.4 646.0,302.2 669.3,292.6 692.7,325.9 716.0,324.2 716.0,324.3 692.7,326.0 669.3,293.1 646.0,303.9 622.7,327.5 599.3,334.3 552.7,327.4 506.0,265.1" fill="#d62728" opacity="0.11"/>
<polyline points="506.0,255.0 552.7,324.0 599.3,332.8 622.7,326.9 646.0,303.1 669.3,292.7 692.7,325.9 716.0,324.3" fill="none" stroke="#d62728" stroke-width="1.6"/>
<circle cx="506.0" cy="255.0" r="2" fill="#d62728"/>
<circle cx="552.7" cy="324.0" r="2" fill="#d62728"/>
<circle cx="599.3" cy="332.8" r="2" fill="#d62728"/>
<circle cx="622.7" cy="326.9" r="2" fill="#d62728"/>
<circle cx="646.0" cy="303.1" r="2" fill="#d62728"/>
<circle cx="669.3" cy="292.7" r="2" fill="#d62728"/>
<circle cx="692.7" cy="325.9" r="2" fill="#d62728"/>
<circle cx="716.0" cy="324.3" r="2" fill="#d62728"/>
<polygon points="506.0,237.4 552.7,314.7 599.3,316.0 622.7,320.7 646.0,325.5 669.3,324.2 692.7,322.6 716.0,322.2 716.0,322.5 692.7,323.0 669.3,324.6 646.0,326.6 622.7,321.6 599.3,317.4 552.7,318.4 506.0,243.1" fill="#2ca02c" opacity="0.11"/>
<polyline points="506.0,239.2 552.7,315.7 599.3,316.6 622.7,321.0 646.0,326.3 669.3,324.5 692.7,322.9 716.0,322.4" fill="none" stroke="#2ca02c" stroke-width="1.6"/>
<circle cx="506.0" cy="239.2" r="2" fill="#2ca02c"/>
<circle cx="552.7" cy="315.7" r="2" fill="#2ca02c"/>
<circle cx="599.3" cy="316.6" r="2" fill="#2ca02c"/>
<circle cx="622.7" cy="321.0" r="2" fill="#2ca02c"/>
<circle cx="646.0" cy="326.3" r="2" fill="#2ca02c"/>
<circle cx="669.3" cy="324.5" r="2" fill="#2ca02c"/>
<circle cx="692.7" cy="322.9" r="2" fill="#2ca02c"/>
<circle cx="716.0" cy="322.4" r="2" fill="#2ca02c"/>
<polygon points="506.0,249.0 552.7,311.0 599.3,317.9 622.7,321.9 646.0,272.2 669.3,290.5 692.7,324.0 716.0,322.6 716.0,324.8 692.7,324.9 669.3,293.7 646.0,284.6 622.7,322.8 599.3,318.6 552.7,314.9 506.0,258.8" fill="#1f77b4" opacity="0.11"/>
<polyline points="506.0,257.3 552.7,313.4 599.3,318.2 622.7,322.6 646.0,272.9 669.3,292.8 692.7,324.4 716.0,323.9" fill="none" stroke="#1f77b4" stroke-width="1.6"/>
<circle cx="506.0" cy="257.3" r="2" fill="#1f77b4"/>
<circle cx="552.7" cy="313.4" r="2" fill="#1f77b4"/>
<circle cx="599.3" cy="318.2" r="2" fill="#1f77b4"/>
<circle cx="622.7" cy="322.6" r="2" fill="#1f77b4"/>
<circle cx="646.0" cy="272.9" r="2" fill="#1f77b4"/>
<circle cx="669.3" cy="292.8" r="2" fill="#1f77b4"/>
<circle cx="692.7" cy="324.4" r="2" fill="#1f77b4"/>
<circle cx="716.0" cy="323.9" r="2" fill="#1f77b4"/>
<text x="611.0" y="227" text-anchor="middle" font-size="12" font-weight="bold">trsmR</text>
<line x1="506.0" y1="232" x2="506.0" y2="370" stroke="#f4f4f4"/>
<text x="506.0" y="381" text-anchor="middle" font-size="8" fill="#999">8</text>
<line x1="552.7" y1="232" x2="552.7" y2="370" stroke="#f4f4f4"/>
<text x="552.7" y="381" text-anchor="middle" font-size="8" fill="#999">32</text>
<line x1="599.3" y1="232" x2="599.3" y2="370" stroke="#f4f4f4"/>
<text x="599.3" y="381" text-anchor="middle" font-size="8" fill="#999">128</text>
<line x1="622.7" y1="232" x2="622.7" y2="370" stroke="#f4f4f4"/>
<text x="622.7" y="381" text-anchor="middle" font-size="8" fill="#999">256</text>
<line x1="646.0" y1="232" x2="646.0" y2="370" stroke="#f4f4f4"/>
<text x="646.0" y="381" text-anchor="middle" font-size="8" fill="#999">512</text>
<line x1="669.3" y1="232" x2="669.3" y2="370" stroke="#f4f4f4"/>
<text x="669.3" y="381" text-anchor="middle" font-size="8" fill="#999">1k</text>
<line x1="692.7" y1="232" x2="692.7" y2="370" stroke="#f4f4f4"/>
<text x="692.7" y="381" text-anchor="middle" font-size="8" fill="#999">2k</text>
<line x1="716.0" y1="232" x2="716.0" y2="370" stroke="#f4f4f4"/>
<text x="716.0" y="381" text-anchor="middle" font-size="8" fill="#999">4k</text>
</svg>
