<svg xmlns="http://www.w3.org/2000/svg" width="962" height="592" font-family="sans-serif">
<rect width="962" height="592" fill="white"/>
<text x="481.0" y="26" text-anchor="middle" font-size="17" font-weight="bold">Complex BLAS-3 — PureBLAS / OpenBLAS (PB/OpenBLAS ratio)</text>
<line x1="46" y1="42" x2="68" y2="42" stroke="#d62728" stroke-width="3"/>
<text x="73" y="46" font-size="12">Zen3 · AVX2</text>
<line x1="176" y1="42" x2="198" y2="42" stroke="#2ca02c" stroke-width="3"/>
<text x="203" y="46" font-size="12">Zen5 · AVX-512</text>
<line x1="327" y1="42" x2="349" y2="42" stroke="#1f77b4" stroke-width="3"/>
<text x="354" y="46" font-size="12">Zen4 · AVX-512</text>
<rect x="46" y="60" width="210" height="138" fill="none" stroke="#e2e2e2"/>
<line x1="46" y1="142.3554554265366" x2="256" y2="142.3554554265366" stroke="#d33" stroke-dasharray="4 3"/>
<text x="42" y="201.0" text-anchor="end" font-size="9" fill="#999">0.5×</text>
<text x="42" y="145.3554554265366" text-anchor="end" font-size="9" fill="#999">1.0×</text>
<polygon points="46.0,94.0 98.5,139.4 151.0,124.3 177.2,123.3 203.5,121.9 229.8,122.3 256.0,118.7 256.0,122.2 229.8,124.0 203.5,123.1 177.2,124.7 151.0,125.8 98.5,144.3 46.0,96.5" fill="#d62728" opacity="0.11"/>
<polyline points="46.0,95.2 98.5,141.5 151.0,125.6 177.2,124.6 203.5,122.8 229.8,123.5 256.0,122.0" fill="none" stroke="#d62728" stroke-width="1.6"/>
<circle cx="46.0" cy="95.2" r="2" fill="#d62728"/>
<circle cx="98.5" cy="141.5" r="2" fill="#d62728"/>
<circle cx="151.0" cy="125.6" r="2" fill="#d62728"/>
<circle cx="177.2" cy="124.6" r="2" fill="#d62728"/>
<circle cx="203.5" cy="122.8" r="2" fill="#d62728"/>
<circle cx="229.8" cy="123.5" r="2" fill="#d62728"/>
<circle cx="256.0" cy="122.0" r="2" fill="#d62728"/>
<polygon points="46.0,66.2 98.5,104.0 151.0,122.5 177.2,124.2 203.5,127.1 229.8,128.2 256.0,129.6 256.0,129.8 229.8,128.6 203.5,127.4 177.2,124.5 151.0,123.4 98.5,109.2 46.0,76.2" fill="#2ca02c" opacity="0.11"/>
<polyline points="46.0,68.8 98.5,106.8 151.0,122.9 177.2,124.3 203.5,127.2 229.8,128.4 256.0,129.7" fill="none" stroke="#2ca02c" stroke-width="1.6"/>
<circle cx="46.0" cy="68.8" r="2" fill="#2ca02c"/>
<circle cx="98.5" cy="106.8" r="2" fill="#2ca02c"/>
<circle cx="151.0" cy="122.9" r="2" fill="#2ca02c"/>
<circle cx="177.2" cy="124.3" r="2" fill="#2ca02c"/>
<circle cx="203.5" cy="127.2" r="2" fill="#2ca02c"/>
<circle cx="229.8" cy="128.4" r="2" fill="#2ca02c"/>
<circle cx="256.0" cy="129.7" r="2" fill="#2ca02c"/>
<polygon points="46.0,85.9 98.5,113.9 151.0,129.9 177.2,131.8 203.5,133.5 229.8,133.3 256.0,133.6 256.0,134.7 229.8,134.4 203.5,134.4 177.2,132.2 151.0,130.2 98.5,115.4 46.0,88.8" fill="#1f77b4" opacity="0.11"/>
<polyline points="46.0,86.9 98.5,114.4 151.0,130.0 177.2,132.0 203.5,133.9 229.8,134.0 256.0,134.5" fill="none" stroke="#1f77b4" stroke-width="1.6"/>
<circle cx="46.0" cy="86.9" r="2" fill="#1f77b4"/>
<circle cx="98.5" cy="114.4" r="2" fill="#1f77b4"/>
<circle cx="151.0" cy="130.0" r="2" fill="#1f77b4"/>
<circle cx="177.2" cy="132.0" r="2" fill="#1f77b4"/>
<circle cx="203.5" cy="133.9" r="2" fill="#1f77b4"/>
<circle cx="229.8" cy="134.0" r="2" fill="#1f77b4"/>
<circle cx="256.0" cy="134.5" r="2" fill="#1f77b4"/>
<text x="151.0" y="55" text-anchor="middle" font-size="12" font-weight="bold">zgemm</text>
<line x1="46.0" y1="60" x2="46.0" y2="198" stroke="#f4f4f4"/>
<text x="46.0" y="209" text-anchor="middle" font-size="8" fill="#999">8</text>
<line x1="98.5" y1="60" x2="98.5" y2="198" stroke="#f4f4f4"/>
<text x="98.5" y="209" text-anchor="middle" font-size="8" fill="#999">32</text>
<line x1="151.0" y1="60" x2="151.0" y2="198" stroke="#f4f4f4"/>
<text x="151.0" y="209" text-anchor="middle" font-size="8" fill="#999">128</text>
<line x1="177.2" y1="60" x2="177.2" y2="198" stroke="#f4f4f4"/>
<text x="177.2" y="209" text-anchor="middle" font-size="8" fill="#999">256</text>
<line x1="203.5" y1="60" x2="203.5" y2="198" stroke="#f4f4f4"/>
<text x="203.5" y="209" text-anchor="middle" font-size="8" fill="#999">512</text>
<line x1="229.8" y1="60" x2="229.8" y2="198" stroke="#f4f4f4"/>
<text x="229.8" y="209" text-anchor="middle" font-size="8" fill="#999">1k</text>
<line x1="256.0" y1="60" x2="256.0" y2="198" stroke="#f4f4f4"/>
<text x="256.0" y="209" text-anchor="middle" font-size="8" fill="#999">2k</text>
<rect x="276" y="60" width="210" height="138" fill="none" stroke="#e2e2e2"/>
<line x1="276" y1="115.76276119065531" x2="486" y2="115.76276119065531" stroke="#d33" stroke-dasharray="4 3"/>
<text x="272" y="201.0" text-anchor="end" font-size="9" fill="#999">0.5×</text>
<text x="272" y="118.76276119065531" text-anchor="end" font-size="9" fill="#999">1.0×</text>
<text x="272" y="63.0" text-anchor="end" font-size="9" fill="#999">1.6×</text>
<polygon points="276.0,104.8 328.5,123.3 381.0,96.2 407.2,93.2 433.5,92.1 459.8,89.2 486.0,88.2 486.0,94.9 459.8,91.0 433.5,94.4 407.2,95.5 381.0,98.3 328.5,125.8 276.0,107.5" fill="#d62728" opacity="0.11"/>
<polyline points="276.0,106.1 328.5,124.4 381.0,97.5 407.2,94.6 433.5,93.4 459.8,90.6 486.0,89.8" fill="none" stroke="#d62728" stroke-width="1.6"/>
<circle cx="276.0" cy="106.1" r="2" fill="#d62728"/>
<circle cx="328.5" cy="124.4" r="2" fill="#d62728"/>
<circle cx="381.0" cy="97.5" r="2" fill="#d62728"/>
<circle cx="407.2" cy="94.6" r="2" fill="#d62728"/>
<circle cx="433.5" cy="93.4" r="2" fill="#d62728"/>
<circle cx="459.8" cy="90.6" r="2" fill="#d62728"/>
<circle cx="486.0" cy="89.8" r="2" fill="#d62728"/>
<polygon points="276.0,72.5 328.5,81.8 381.0,93.7 407.2,90.4 433.5,93.9 459.8,94.5 486.0,96.4 486.0,96.6 459.8,95.1 433.5,94.6 407.2,90.9 381.0,96.0 328.5,86.9 276.0,80.9" fill="#2ca02c" opacity="0.11"/>
<polyline points="276.0,75.6 328.5,85.3 381.0,94.9 407.2,90.7 433.5,94.3 459.8,94.7 486.0,96.6" fill="none" stroke="#2ca02c" stroke-width="1.6"/>
<circle cx="276.0" cy="75.6" r="2" fill="#2ca02c"/>
<circle cx="328.5" cy="85.3" r="2" fill="#2ca02c"/>
<circle cx="381.0" cy="94.9" r="2" fill="#2ca02c"/>
<circle cx="407.2" cy="90.7" r="2" fill="#2ca02c"/>
<circle cx="433.5" cy="94.3" r="2" fill="#2ca02c"/>
<circle cx="459.8" cy="94.7" r="2" fill="#2ca02c"/>
<circle cx="486.0" cy="96.6" r="2" fill="#2ca02c"/>
<polygon points="276.0,99.7 328.5,93.4 381.0,106.2 407.2,103.6 433.5,103.7 459.8,102.4 486.0,103.3 486.0,103.5 459.8,104.9 433.5,105.2 407.2,104.6 381.0,107.3 328.5,95.2 276.0,102.7" fill="#1f77b4" opacity="0.11"/>
<polyline points="276.0,100.9 328.5,94.3 381.0,107.0 407.2,104.4 433.5,104.4 459.8,103.9 486.0,103.4" fill="none" stroke="#1f77b4" stroke-width="1.6"/>
<circle cx="276.0" cy="100.9" r="2" fill="#1f77b4"/>
<circle cx="328.5" cy="94.3" r="2" fill="#1f77b4"/>
<circle cx="381.0" cy="107.0" r="2" fill="#1f77b4"/>
<circle cx="407.2" cy="104.4" r="2" fill="#1f77b4"/>
<circle cx="433.5" cy="104.4" r="2" fill="#1f77b4"/>
<circle cx="459.8" cy="103.9" r="2" fill="#1f77b4"/>
<circle cx="486.0" cy="103.4" r="2" fill="#1f77b4"/>
<text x="381.0" y="55" text-anchor="middle" font-size="12" font-weight="bold">zhemm</text>
<line x1="276.0" y1="60" x2="276.0" y2="198" stroke="#f4f4f4"/>
<text x="276.0" y="209" text-anchor="middle" font-size="8" fill="#999">8</text>
<line x1="328.5" y1="60" x2="328.5" y2="198" stroke="#f4f4f4"/>
<text x="328.5" y="209" text-anchor="middle" font-size="8" fill="#999">32</text>
<line x1="381.0" y1="60" x2="381.0" y2="198" stroke="#f4f4f4"/>
<text x="381.0" y="209" text-anchor="middle" font-size="8" fill="#999">128</text>
<line x1="407.2" y1="60" x2="407.2" y2="198" stroke="#f4f4f4"/>
<text x="407.2" y="209" text-anchor="middle" font-size="8" fill="#999">256</text>
<line x1="433.5" y1="60" x2="433.5" y2="198" stroke="#f4f4f4"/>
<text x="433.5" y="209" text-anchor="middle" font-size="8" fill="#999">512</text>
<line x1="459.8" y1="60" x2="459.8" y2="198" stroke="#f4f4f4"/>
<text x="459.8" y="209" text-anchor="middle" font-size="8" fill="#999">1k</text>
<line x1="486.0" y1="60" x2="486.0" y2="198" stroke="#f4f4f4"/>
<text x="486.0" y="209" text-anchor="middle" font-size="8" fill="#999">2k</text>
<rect x="506" y="60" width="210" height="138" fill="none" stroke="#e2e2e2"/>
<line x1="506" y1="117.63295964217369" x2="716" y2="117.63295964217369" stroke="#d33" stroke-dasharray="4 3"/>
<text x="502" y="201.0" text-anchor="end" font-size="9" fill="#999">0.5×</text>
<text x="502" y="120.63295964217369" text-anchor="end" font-size="9" fill="#999">1.0×</text>
<text x="502" y="63.275339287445725" text-anchor="end" font-size="9" fill="#999">1.64×</text>
<polygon points="506.0,103.1 558.5,127.0 611.0,100.5 637.2,97.5 663.5,92.0 689.8,90.2 716.0,88.1 716.0,89.9 689.8,91.8 663.5,93.2 637.2,97.8 611.0,101.0 558.5,131.6 506.0,104.8" fill="#d62728" opacity="0.11"/>
<polyline points="506.0,104.0 558.5,128.7 611.0,100.8 637.2,97.6 663.5,92.4 689.8,91.0 716.0,88.4" fill="none" stroke="#d62728" stroke-width="1.6"/>
<circle cx="506.0" cy="104.0" r="2" fill="#d62728"/>
<circle cx="558.5" cy="128.7" r="2" fill="#d62728"/>
<circle cx="611.0" cy="100.8" r="2" fill="#d62728"/>
<circle cx="637.2" cy="97.6" r="2" fill="#d62728"/>
<circle cx="663.5" cy="92.4" r="2" fill="#d62728"/>
<circle cx="689.8" cy="91.0" r="2" fill="#d62728"/>
<circle cx="716.0" cy="88.4" r="2" fill="#d62728"/>
<polygon points="506.0,68.9 558.5,85.5 611.0,95.4 637.2,94.5 663.5,99.6 689.8,98.2 716.0,99.6 716.0,100.1 689.8,99.4 663.5,101.1 637.2,95.5 611.0,96.5 558.5,89.1 506.0,95.4" fill="#2ca02c" opacity="0.11"/>
<polyline points="506.0,74.6 558.5,87.3 611.0,95.9 637.2,95.2 663.5,100.7 689.8,99.1 716.0,99.8" fill="none" stroke="#2ca02c" stroke-width="1.6"/>
<circle cx="506.0" cy="74.6" r="2" fill="#2ca02c"/>
<circle cx="558.5" cy="87.3" r="2" fill="#2ca02c"/>
<circle cx="611.0" cy="95.9" r="2" fill="#2ca02c"/>
<circle cx="637.2" cy="95.2" r="2" fill="#2ca02c"/>
<circle cx="663.5" cy="100.7" r="2" fill="#2ca02c"/>
<circle cx="689.8" cy="99.1" r="2" fill="#2ca02c"/>
<circle cx="716.0" cy="99.8" r="2" fill="#2ca02c"/>
<polygon points="506.0,96.5 558.5,97.0 611.0,106.8 637.2,110.1 663.5,110.0 689.8,106.7 716.0,107.1 716.0,109.2 689.8,108.9 663.5,111.6 637.2,110.7 611.0,107.5 558.5,98.5 506.0,98.4" fill="#1f77b4" opacity="0.11"/>
<polyline points="506.0,97.3 558.5,97.8 611.0,107.2 637.2,110.4 663.5,111.0 689.8,108.0 716.0,107.4" fill="none" stroke="#1f77b4" stroke-width="1.6"/>
<circle cx="506.0" cy="97.3" r="2" fill="#1f77b4"/>
<circle cx="558.5" cy="97.8" r="2" fill="#1f77b4"/>
<circle cx="611.0" cy="107.2" r="2" fill="#1f77b4"/>
<circle cx="637.2" cy="110.4" r="2" fill="#1f77b4"/>
<circle cx="663.5" cy="111.0" r="2" fill="#1f77b4"/>
<circle cx="689.8" cy="108.0" r="2" fill="#1f77b4"/>
<circle cx="716.0" cy="107.4" r="2" fill="#1f77b4"/>
<text x="611.0" y="55" text-anchor="middle" font-size="12" font-weight="bold">zsymm</text>
<line x1="506.0" y1="60" x2="506.0" y2="198" stroke="#f4f4f4"/>
<text x="506.0" y="209" text-anchor="middle" font-size="8" fill="#999">8</text>
<line x1="558.5" y1="60" x2="558.5" y2="198" stroke="#f4f4f4"/>
<text x="558.5" y="209" text-anchor="middle" font-size="8" fill="#999">32</text>
<line x1="611.0" y1="60" x2="611.0" y2="198" stroke="#f4f4f4"/>
<text x="611.0" y="209" text-anchor="middle" font-size="8" fill="#999">128</text>
<line x1="637.2" y1="60" x2="637.2" y2="198" stroke="#f4f4f4"/>
<text x="637.2" y="209" text-anchor="middle" font-size="8" fill="#999">256</text>
<line x1="663.5" y1="60" x2="663.5" y2="198" stroke="#f4f4f4"/>
<text x="663.5" y="209" text-anchor="middle" font-size="8" fill="#999">512</text>
<line x1="689.8" y1="60" x2="689.8" y2="198" stroke="#f4f4f4"/>
<text x="689.8" y="209" text-anchor="middle" font-size="8" fill="#999">1k</text>
<line x1="716.0" y1="60" x2="716.0" y2="198" stroke="#f4f4f4"/>
<text x="716.0" y="209" text-anchor="middle" font-size="8" fill="#999">2k</text>
<rect x="736" y="60" width="210" height="138" fill="none" stroke="#e2e2e2"/>
<line x1="736" y1="135.72521153002043" x2="946" y2="135.72521153002043" stroke="#d33" stroke-dasharray="4 3"/>
<text x="732" y="201.0" text-anchor="end" font-size="9" fill="#999">0.5×</text>
<text x="732" y="138.72521153002043" text-anchor="end" font-size="9" fill="#999">1.0×</text>
<text x="732" y="63.115846100516734" text-anchor="end" font-size="9" fill="#999">2.32×</text>
<polygon points="736.0,91.4 788.5,123.1 841.0,135.5 867.2,125.8 893.5,119.7 919.8,117.5 946.0,114.3 946.0,114.6 919.8,118.5 893.5,120.7 867.2,127.4 841.0,137.0 788.5,124.2 736.0,92.8" fill="#d62728" opacity="0.11"/>
<polyline points="736.0,92.0 788.5,123.6 841.0,136.0 867.2,126.0 893.5,119.9 919.8,117.9 946.0,114.5" fill="none" stroke="#d62728" stroke-width="1.6"/>
<circle cx="736.0" cy="92.0" r="2" fill="#d62728"/>
<circle cx="788.5" cy="123.6" r="2" fill="#d62728"/>
<circle cx="841.0" cy="136.0" r="2" fill="#d62728"/>
<circle cx="867.2" cy="126.0" r="2" fill="#d62728"/>
<circle cx="893.5" cy="119.9" r="2" fill="#d62728"/>
<circle cx="919.8" cy="117.9" r="2" fill="#d62728"/>
<circle cx="946.0" cy="114.5" r="2" fill="#d62728"/>
<polygon points="736.0,66.9 788.5,121.4 841.0,118.7 867.2,118.6 893.5,118.4 919.8,119.4 946.0,120.1 946.0,120.7 919.8,121.1 893.5,122.5 867.2,119.5 841.0,120.8 788.5,126.1 736.0,72.7" fill="#2ca02c" opacity="0.11"/>
<polyline points="736.0,67.9 788.5,122.5 841.0,119.8 867.2,118.9 893.5,121.5 919.8,120.2 946.0,120.4" fill="none" stroke="#2ca02c" stroke-width="1.6"/>
<circle cx="736.0" cy="67.9" r="2" fill="#2ca02c"/>
<circle cx="788.5" cy="122.5" r="2" fill="#2ca02c"/>
<circle cx="841.0" cy="119.8" r="2" fill="#2ca02c"/>
<circle cx="867.2" cy="118.9" r="2" fill="#2ca02c"/>
<circle cx="893.5" cy="121.5" r="2" fill="#2ca02c"/>
<circle cx="919.8" cy="120.2" r="2" fill="#2ca02c"/>
<circle cx="946.0" cy="120.4" r="2" fill="#2ca02c"/>
<polygon points="736.0,72.5 788.5,119.3 841.0,120.5 867.2,124.3 893.5,125.0 919.8,124.8 946.0,126.3 946.0,127.3 919.8,125.9 893.5,126.7 867.2,124.9 841.0,121.8 788.5,122.9 736.0,75.0" fill="#1f77b4" opacity="0.11"/>
<polyline points="736.0,73.7 788.5,122.1 841.0,121.3 867.2,124.6 893.5,125.6 919.8,125.4 946.0,126.9" fill="none" stroke="#1f77b4" stroke-width="1.6"/>
<circle cx="736.0" cy="73.7" r="2" fill="#1f77b4"/>
<circle cx="788.5" cy="122.1" r="2" fill="#1f77b4"/>
<circle cx="841.0" cy="121.3" r="2" fill="#1f77b4"/>
<circle cx="867.2" cy="124.6" r="2" fill="#1f77b4"/>
<circle cx="893.5" cy="125.6" r="2" fill="#1f77b4"/>
<circle cx="919.8" cy="125.4" r="2" fill="#1f77b4"/>
<circle cx="946.0" cy="126.9" r="2" fill="#1f77b4"/>
<text x="841.0" y="55" text-anchor="middle" font-size="12" font-weight="bold">zsyrk</text>
<line x1="736.0" y1="60" x2="736.0" y2="198" stroke="#f4f4f4"/>
<text x="736.0" y="209" text-anchor="middle" font-size="8" fill="#999">8</text>
<line x1="788.5" y1="60" x2="788.5" y2="198" stroke="#f4f4f4"/>
<text x="788.5" y="209" text-anchor="middle" font-size="8" fill="#999">32</text>
<line x1="841.0" y1="60" x2="841.0" y2="198" stroke="#f4f4f4"/>
<text x="841.0" y="209" text-anchor="middle" font-size="8" fill="#999">128</text>
<line x1="867.2" y1="60" x2="867.2" y2="198" stroke="#f4f4f4"/>
<text x="867.2" y="209" text-anchor="middle" font-size="8" fill="#999">256</text>
<line x1="893.5" y1="60" x2="893.5" y2="198" stroke="#f4f4f4"/>
<text x="893.5" y="209" text-anchor="middle" font-size="8" fill="#999">512</text>
<line x1="919.8" y1="60" x2="919.8" y2="198" stroke="#f4f4f4"/>
<text x="919.8" y="209" text-anchor="middle" font-size="8" fill="#999">1k</text>
<line x1="946.0" y1="60" x2="946.0" y2="198" stroke="#f4f4f4"/>
<text x="946.0" y="209" text-anchor="middle" font-size="8" fill="#999">2k</text>
<rect x="46" y="232" width="210" height="138" fill="none" stroke="#e2e2e2"/>
<line x1="46" y1="306.2630230263686" x2="256" y2="306.2630230263686" stroke="#d33" stroke-dasharray="4 3"/>
<text x="42" y="373.0" text-anchor="end" font-size="9" fill="#999">0.5×</text>
<text x="42" y="309.2630230263686" text-anchor="end" font-size="9" fill="#999">1.0×</text>
<text x="42" y="235.10513111800543" text-anchor="end" font-size="9" fill="#999">2.24×</text>
<polygon points="46.0,258.4 98.5,294.1 151.0,305.5 177.2,298.5 203.5,292.3 229.8,290.9 256.0,285.9 256.0,286.3 229.8,291.5 203.5,292.9 177.2,298.9 151.0,307.9 98.5,295.9 46.0,259.8" fill="#d62728" opacity="0.11"/>
<polyline points="46.0,259.1 98.5,294.9 151.0,306.1 177.2,298.7 203.5,292.6 229.8,291.2 256.0,286.1" fill="none" stroke="#d62728" stroke-width="1.6"/>
<circle cx="46.0" cy="259.1" r="2" fill="#d62728"/>
<circle cx="98.5" cy="294.9" r="2" fill="#d62728"/>
<circle cx="151.0" cy="306.1" r="2" fill="#d62728"/>
<circle cx="177.2" cy="298.7" r="2" fill="#d62728"/>
<circle cx="203.5" cy="292.6" r="2" fill="#d62728"/>
<circle cx="229.8" cy="291.2" r="2" fill="#d62728"/>
<circle cx="256.0" cy="286.1" r="2" fill="#d62728"/>
<polygon points="46.0,239.1 98.5,291.5 151.0,289.3 177.2,288.6 203.5,288.2 229.8,289.5 256.0,291.0 256.0,291.6 229.8,291.1 203.5,293.0 177.2,289.7 151.0,291.4 98.5,298.2 46.0,243.1" fill="#2ca02c" opacity="0.11"/>
<polyline points="46.0,239.9 98.5,293.3 151.0,290.2 177.2,289.1 203.5,291.8 229.8,290.5 256.0,291.4" fill="none" stroke="#2ca02c" stroke-width="1.6"/>
<circle cx="46.0" cy="239.9" r="2" fill="#2ca02c"/>
<circle cx="98.5" cy="293.3" r="2" fill="#2ca02c"/>
<circle cx="151.0" cy="290.2" r="2" fill="#2ca02c"/>
<circle cx="177.2" cy="289.1" r="2" fill="#2ca02c"/>
<circle cx="203.5" cy="291.8" r="2" fill="#2ca02c"/>
<circle cx="229.8" cy="290.5" r="2" fill="#2ca02c"/>
<circle cx="256.0" cy="291.4" r="2" fill="#2ca02c"/>
<polygon points="46.0,245.4 98.5,291.1 151.0,290.1 177.2,294.7 203.5,295.3 229.8,295.4 256.0,297.0 256.0,297.6 229.8,296.2 203.5,296.9 177.2,295.4 151.0,292.5 98.5,294.1 46.0,248.7" fill="#1f77b4" opacity="0.11"/>
<polyline points="46.0,246.8 98.5,293.0 151.0,291.7 177.2,295.1 203.5,295.8 229.8,295.9 256.0,297.3" fill="none" stroke="#1f77b4" stroke-width="1.6"/>
<circle cx="46.0" cy="246.8" r="2" fill="#1f77b4"/>
<circle cx="98.5" cy="293.0" r="2" fill="#1f77b4"/>
<circle cx="151.0" cy="291.7" r="2" fill="#1f77b4"/>
<circle cx="177.2" cy="295.1" r="2" fill="#1f77b4"/>
<circle cx="203.5" cy="295.8" r="2" fill="#1f77b4"/>
<circle cx="229.8" cy="295.9" r="2" fill="#1f77b4"/>
<circle cx="256.0" cy="297.3" r="2" fill="#1f77b4"/>
<text x="151.0" y="227" text-anchor="middle" font-size="12" font-weight="bold">zherk</text>
<line x1="46.0" y1="232" x2="46.0" y2="370" stroke="#f4f4f4"/>
<text x="46.0" y="381" text-anchor="middle" font-size="8" fill="#999">8</text>
<line x1="98.5" y1="232" x2="98.5" y2="370" stroke="#f4f4f4"/>
<text x="98.5" y="381" text-anchor="middle" font-size="8" fill="#999">32</text>
<line x1="151.0" y1="232" x2="151.0" y2="370" stroke="#f4f4f4"/>
<text x="151.0" y="381" text-anchor="middle" font-size="8" fill="#999">128</text>
<line x1="177.2" y1="232" x2="177.2" y2="370" stroke="#f4f4f4"/>
<text x="177.2" y="381" text-anchor="middle" font-size="8" fill="#999">256</text>
<line x1="203.5" y1="232" x2="203.5" y2="370" stroke="#f4f4f4"/>
<text x="203.5" y="381" text-anchor="middle" font-size="8" fill="#999">512</text>
<line x1="229.8" y1="232" x2="229.8" y2="370" stroke="#f4f4f4"/>
<text x="229.8" y="381" text-anchor="middle" font-size="8" fill="#999">1k</text>
<line x1="256.0" y1="232" x2="256.0" y2="370" stroke="#f4f4f4"/>
<text x="256.0" y="381" text-anchor="middle" font-size="8" fill="#999">2k</text>
<rect x="276" y="232" width="210" height="138" fill="none" stroke="#e2e2e2"/>
<line x1="276" y1="294.36396494503794" x2="486" y2="294.36396494503794" stroke="#d33" stroke-dasharray="4 3"/>
<text x="272" y="373.0" text-anchor="end" font-size="9" fill="#999">0.5×</text>
<text x="272" y="297.36396494503794" text-anchor="end" font-size="9" fill="#999">1.0×</text>
<text x="272" y="235.0588294522589" text-anchor="end" font-size="9" fill="#999">1.77×</text>
<polygon points="276.0,269.1 328.5,291.0 381.0,297.6 407.2,286.9 433.5,279.6 459.8,276.5 486.0,265.9 486.0,271.4 459.8,277.4 433.5,281.3 407.2,289.6 381.0,300.2 328.5,296.2 276.0,270.5" fill="#d62728" opacity="0.11"/>
<polyline points="276.0,269.7 328.5,292.8 381.0,298.6 407.2,287.4 433.5,279.9 459.8,276.8 486.0,270.7" fill="none" stroke="#d62728" stroke-width="1.6"/>
<circle cx="276.0" cy="269.7" r="2" fill="#d62728"/>
<circle cx="328.5" cy="292.8" r="2" fill="#d62728"/>
<circle cx="381.0" cy="298.6" r="2" fill="#d62728"/>
<circle cx="407.2" cy="287.4" r="2" fill="#d62728"/>
<circle cx="433.5" cy="279.9" r="2" fill="#d62728"/>
<circle cx="459.8" cy="276.8" r="2" fill="#d62728"/>
<circle cx="486.0" cy="270.7" r="2" fill="#d62728"/>
<polygon points="276.0,240.4 328.5,287.1 381.0,273.2 407.2,273.1 433.5,274.8 459.8,275.0 486.0,275.8 486.0,277.2 459.8,275.9 433.5,277.1 407.2,274.5 381.0,275.3 328.5,291.4 276.0,245.7" fill="#2ca02c" opacity="0.11"/>
<polyline points="276.0,243.0 328.5,289.3 381.0,274.2 407.2,273.5 433.5,276.0 459.8,275.4 486.0,276.7" fill="none" stroke="#2ca02c" stroke-width="1.6"/>
<circle cx="276.0" cy="243.0" r="2" fill="#2ca02c"/>
<circle cx="328.5" cy="289.3" r="2" fill="#2ca02c"/>
<circle cx="381.0" cy="274.2" r="2" fill="#2ca02c"/>
<circle cx="407.2" cy="273.5" r="2" fill="#2ca02c"/>
<circle cx="433.5" cy="276.0" r="2" fill="#2ca02c"/>
<circle cx="459.8" cy="275.4" r="2" fill="#2ca02c"/>
<circle cx="486.0" cy="276.7" r="2" fill="#2ca02c"/>
<polygon points="276.0,253.9 328.5,289.9 381.0,277.4 407.2,283.0 433.5,282.0 459.8,282.2 486.0,282.1 486.0,284.0 459.8,283.6 433.5,284.8 407.2,283.9 381.0,278.2 328.5,291.8 276.0,257.6" fill="#1f77b4" opacity="0.11"/>
<polyline points="276.0,255.8 328.5,290.9 381.0,277.7 407.2,283.4 433.5,283.1 459.8,283.3 486.0,283.5" fill="none" stroke="#1f77b4" stroke-width="1.6"/>
<circle cx="276.0" cy="255.8" r="2" fill="#1f77b4"/>
<circle cx="328.5" cy="290.9" r="2" fill="#1f77b4"/>
<circle cx="381.0" cy="277.7" r="2" fill="#1f77b4"/>
<circle cx="407.2" cy="283.4" r="2" fill="#1f77b4"/>
<circle cx="433.5" cy="283.1" r="2" fill="#1f77b4"/>
<circle cx="459.8" cy="283.3" r="2" fill="#1f77b4"/>
<circle cx="486.0" cy="283.5" r="2" fill="#1f77b4"/>
<text x="381.0" y="227" text-anchor="middle" font-size="12" font-weight="bold">zher2k</text>
<line x1="276.0" y1="232" x2="276.0" y2="370" stroke="#f4f4f4"/>
<text x="276.0" y="381" text-anchor="middle" font-size="8" fill="#999">8</text>
<line x1="328.5" y1="232" x2="328.5" y2="370" stroke="#f4f4f4"/>
<text x="328.5" y="381" text-anchor="middle" font-size="8" fill="#999">32</text>
<line x1="381.0" y1="232" x2="381.0" y2="370" stroke="#f4f4f4"/>
<text x="381.0" y="381" text-anchor="middle" font-size="8" fill="#999">128</text>
<line x1="407.2" y1="232" x2="407.2" y2="370" stroke="#f4f4f4"/>
<text x="407.2" y="381" text-anchor="middle" font-size="8" fill="#999">256</text>
<line x1="433.5" y1="232" x2="433.5" y2="370" stroke="#f4f4f4"/>
<text x="433.5" y="381" text-anchor="middle" font-size="8" fill="#999">512</text>
<line x1="459.8" y1="232" x2="459.8" y2="370" stroke="#f4f4f4"/>
<text x="459.8" y="381" text-anchor="middle" font-size="8" fill="#999">1k</text>
<line x1="486.0" y1="232" x2="486.0" y2="370" stroke="#f4f4f4"/>
<text x="486.0" y="381" text-anchor="middle" font-size="8" fill="#999">2k</text>
<rect x="506" y="232" width="210" height="138" fill="none" stroke="#e2e2e2"/>
<line x1="506" y1="294.5512836526468" x2="716" y2="294.5512836526468" stroke="#d33" stroke-dasharray="4 3"/>
<text x="502" y="373.0" text-anchor="end" font-size="9" fill="#999">0.5×</text>
<text x="502" y="297.5512836526468" text-anchor="end" font-size="9" fill="#999">1.0×</text>
<polygon points="506.0,268.2 558.5,290.9 611.0,298.5 637.2,288.1 663.5,280.7 689.8,277.1 716.0,270.4 716.0,271.4 689.8,277.9 663.5,281.4 637.2,288.5 611.0,299.5 558.5,295.4 506.0,271.6" fill="#d62728" opacity="0.11"/>
<polyline points="506.0,268.8 558.5,292.3 611.0,299.0 637.2,288.3 663.5,281.0 689.8,277.6 716.0,271.0" fill="none" stroke="#d62728" stroke-width="1.6"/>
<circle cx="506.0" cy="268.8" r="2" fill="#d62728"/>
<circle cx="558.5" cy="292.3" r="2" fill="#d62728"/>
<circle cx="611.0" cy="299.0" r="2" fill="#d62728"/>
<circle cx="637.2" cy="288.3" r="2" fill="#d62728"/>
<circle cx="663.5" cy="281.0" r="2" fill="#d62728"/>
<circle cx="689.8" cy="277.6" r="2" fill="#d62728"/>
<circle cx="716.0" cy="271.0" r="2" fill="#d62728"/>
<polygon points="506.0,240.4 558.5,286.7 611.0,273.6 637.2,272.9 663.5,274.6 689.8,274.4 716.0,275.9 716.0,276.6 689.8,275.8 663.5,277.5 637.2,274.3 611.0,275.4 558.5,291.0 506.0,243.1" fill="#2ca02c" opacity="0.11"/>
<polyline points="506.0,241.6 558.5,289.6 611.0,274.5 637.2,273.6 663.5,276.1 689.8,275.4 716.0,276.3" fill="none" stroke="#2ca02c" stroke-width="1.6"/>
<circle cx="506.0" cy="241.6" r="2" fill="#2ca02c"/>
<circle cx="558.5" cy="289.6" r="2" fill="#2ca02c"/>
<circle cx="611.0" cy="274.5" r="2" fill="#2ca02c"/>
<circle cx="637.2" cy="273.6" r="2" fill="#2ca02c"/>
<circle cx="663.5" cy="276.1" r="2" fill="#2ca02c"/>
<circle cx="689.8" cy="275.4" r="2" fill="#2ca02c"/>
<circle cx="716.0" cy="276.3" r="2" fill="#2ca02c"/>
<polygon points="506.0,250.9 558.5,290.4 611.0,276.7 637.2,282.8 663.5,281.9 689.8,282.0 716.0,282.5 716.0,284.0 689.8,283.8 663.5,284.5 637.2,284.4 611.0,278.2 558.5,292.4 506.0,254.1" fill="#1f77b4" opacity="0.11"/>
<polyline points="506.0,251.9 558.5,291.6 611.0,277.4 637.2,283.7 663.5,282.6 689.8,283.2 716.0,283.3" fill="none" stroke="#1f77b4" stroke-width="1.6"/>
<circle cx="506.0" cy="251.9" r="2" fill="#1f77b4"/>
<circle cx="558.5" cy="291.6" r="2" fill="#1f77b4"/>
<circle cx="611.0" cy="277.4" r="2" fill="#1f77b4"/>
<circle cx="637.2" cy="283.7" r="2" fill="#1f77b4"/>
<circle cx="663.5" cy="282.6" r="2" fill="#1f77b4"/>
<circle cx="689.8" cy="283.2" r="2" fill="#1f77b4"/>
<circle cx="716.0" cy="283.3" r="2" fill="#1f77b4"/>
<text x="611.0" y="227" text-anchor="middle" font-size="12" font-weight="bold">zsyr2k</text>
<line x1="506.0" y1="232" x2="506.0" y2="370" stroke="#f4f4f4"/>
<text x="506.0" y="381" text-anchor="middle" font-size="8" fill="#999">8</text>
<line x1="558.5" y1="232" x2="558.5" y2="370" stroke="#f4f4f4"/>
<text x="558.5" y="381" text-anchor="middle" font-size="8" fill="#999">32</text>
<line x1="611.0" y1="232" x2="611.0" y2="370" stroke="#f4f4f4"/>
<text x="611.0" y="381" text-anchor="middle" font-size="8" fill="#999">128</text>
<line x1="637.2" y1="232" x2="637.2" y2="370" stroke="#f4f4f4"/>
<text x="637.2" y="381" text-anchor="middle" font-size="8" fill="#999">256</text>
<line x1="663.5" y1="232" x2="663.5" y2="370" stroke="#f4f4f4"/>
<text x="663.5" y="381" text-anchor="middle" font-size="8" fill="#999">512</text>
<line x1="689.8" y1="232" x2="689.8" y2="370" stroke="#f4f4f4"/>
<text x="689.8" y="381" text-anchor="middle" font-size="8" fill="#999">1k</text>
<line x1="716.0" y1="232" x2="716.0" y2="370" stroke="#f4f4f4"/>
<text x="716.0" y="381" text-anchor="middle" font-size="8" fill="#999">2k</text>
<rect x="736" y="232" width="210" height="138" fill="none" stroke="#e2e2e2"/>
<line x1="736" y1="288.3918217128783" x2="946" y2="288.3918217128783" stroke="#d33" stroke-dasharray="4 3"/>
<text x="732" y="373.0" text-anchor="end" font-size="9" fill="#999">0.5×</text>
<text x="732" y="291.3918217128783" text-anchor="end" font-size="9" fill="#999">1.0×</text>
<text x="732" y="235.3220505647638" text-anchor="end" font-size="9" fill="#999">1.61×</text>
<polygon points="736.0,284.3 788.5,309.8 841.0,300.0 867.2,284.4 893.5,278.0 919.8,271.6 946.0,267.4 946.0,269.3 919.8,272.0 893.5,278.3 867.2,285.7 841.0,300.4 788.5,312.9 736.0,285.9" fill="#d62728" opacity="0.11"/>
<polyline points="736.0,284.9 788.5,310.9 841.0,300.3 867.2,285.4 893.5,278.2 919.8,271.7 946.0,268.6" fill="none" stroke="#d62728" stroke-width="1.6"/>
<circle cx="736.0" cy="284.9" r="2" fill="#d62728"/>
<circle cx="788.5" cy="310.9" r="2" fill="#d62728"/>
<circle cx="841.0" cy="300.3" r="2" fill="#d62728"/>
<circle cx="867.2" cy="285.4" r="2" fill="#d62728"/>
<circle cx="893.5" cy="278.2" r="2" fill="#d62728"/>
<circle cx="919.8" cy="271.7" r="2" fill="#d62728"/>
<circle cx="946.0" cy="268.6" r="2" fill="#d62728"/>
<polygon points="736.0,241.1 788.5,285.7 841.0,281.2 867.2,275.4 893.5,270.6 919.8,271.7 946.0,271.8 946.0,272.4 919.8,272.2 893.5,271.1 867.2,275.8 841.0,283.6 788.5,294.9 736.0,253.1" fill="#2ca02c" opacity="0.11"/>
<polyline points="736.0,249.7 788.5,289.2 841.0,282.9 867.2,275.6 893.5,270.7 919.8,272.0 946.0,272.1" fill="none" stroke="#2ca02c" stroke-width="1.6"/>
<circle cx="736.0" cy="249.7" r="2" fill="#2ca02c"/>
<circle cx="788.5" cy="289.2" r="2" fill="#2ca02c"/>
<circle cx="841.0" cy="282.9" r="2" fill="#2ca02c"/>
<circle cx="867.2" cy="275.6" r="2" fill="#2ca02c"/>
<circle cx="893.5" cy="270.7" r="2" fill="#2ca02c"/>
<circle cx="919.8" cy="272.0" r="2" fill="#2ca02c"/>
<circle cx="946.0" cy="272.1" r="2" fill="#2ca02c"/>
<polygon points="736.0,270.8 788.5,285.2 841.0,281.2 867.2,282.2 893.5,279.9 919.8,279.6 946.0,278.4 946.0,279.9 919.8,280.7 893.5,281.1 867.2,284.1 841.0,286.2 788.5,288.3 736.0,273.9" fill="#1f77b4" opacity="0.11"/>
<polyline points="736.0,272.4 788.5,287.1 841.0,285.2 867.2,283.6 893.5,280.6 919.8,280.2 946.0,278.6" fill="none" stroke="#1f77b4" stroke-width="1.6"/>
<circle cx="736.0" cy="272.4" r="2" fill="#1f77b4"/>
<circle cx="788.5" cy="287.1" r="2" fill="#1f77b4"/>
<circle cx="841.0" cy="285.2" r="2" fill="#1f77b4"/>
<circle cx="867.2" cy="283.6" r="2" fill="#1f77b4"/>
<circle cx="893.5" cy="280.6" r="2" fill="#1f77b4"/>
<circle cx="919.8" cy="280.2" r="2" fill="#1f77b4"/>
<circle cx="946.0" cy="278.6" r="2" fill="#1f77b4"/>
<text x="841.0" y="227" text-anchor="middle" font-size="12" font-weight="bold">ztrmm</text>
<line x1="736.0" y1="232" x2="736.0" y2="370" stroke="#f4f4f4"/>
<text x="736.0" y="381" text-anchor="middle" font-size="8" fill="#999">8</text>
<line x1="788.5" y1="232" x2="788.5" y2="370" stroke="#f4f4f4"/>
<text x="788.5" y="381" text-anchor="middle" font-size="8" fill="#999">32</text>
<line x1="841.0" y1="232" x2="841.0" y2="370" stroke="#f4f4f4"/>
<text x="841.0" y="381" text-anchor="middle" font-size="8" fill="#999">128</text>
<line x1="867.2" y1="232" x2="867.2" y2="370" stroke="#f4f4f4"/>
<text x="867.2" y="381" text-anchor="middle" font-size="8" fill="#999">256</text>
<line x1="893.5" y1="232" x2="893.5" y2="370" stroke="#f4f4f4"/>
<text x="893.5" y="381" text-anchor="middle" font-size="8" fill="#999">512</text>
<line x1="919.8" y1="232" x2="919.8" y2="370" stroke="#f4f4f4"/>
<text x="919.8" y="381" text-anchor="middle" font-size="8" fill="#999">1k</text>
<line x1="946.0" y1="232" x2="946.0" y2="370" stroke="#f4f4f4"/>
<text x="946.0" y="381" text-anchor="middle" font-size="8" fill="#999">2k</text>
<rect x="46" y="404" width="210" height="138" fill="none" stroke="#e2e2e2"/>
<line x1="46" y1="459.7627611906553" x2="256" y2="459.7627611906553" stroke="#d33" stroke-dasharray="4 3"/>
<text x="42" y="545.0" text-anchor="end" font-size="9" fill="#999">0.5×</text>
<text x="42" y="462.7627611906553" text-anchor="end" font-size="9" fill="#999">1.0×</text>
<text x="42" y="407.0" text-anchor="end" font-size="9" fill="#999">1.6×</text>
<polygon points="46.0,425.1 98.5,449.5 151.0,471.2 177.2,454.9 203.5,441.8 229.8,437.5 256.0,436.1 256.0,437.3 229.8,438.3 203.5,442.2 177.2,455.3 151.0,472.5 98.5,453.5 46.0,427.4" fill="#d62728" opacity="0.11"/>
<polyline points="46.0,426.1 98.5,451.7 151.0,472.1 177.2,455.2 203.5,442.0 229.8,437.7 256.0,436.5" fill="none" stroke="#d62728" stroke-width="1.6"/>
<circle cx="46.0" cy="426.1" r="2" fill="#d62728"/>
<circle cx="98.5" cy="451.7" r="2" fill="#d62728"/>
<circle cx="151.0" cy="472.1" r="2" fill="#d62728"/>
<circle cx="177.2" cy="455.2" r="2" fill="#d62728"/>
<circle cx="203.5" cy="442.0" r="2" fill="#d62728"/>
<circle cx="229.8" cy="437.7" r="2" fill="#d62728"/>
<circle cx="256.0" cy="436.5" r="2" fill="#d62728"/>
<polygon points="46.0,420.1 98.5,443.0 151.0,427.2 177.2,438.0 203.5,434.9 229.8,438.2 256.0,441.9 256.0,442.9 229.8,438.9 203.5,435.7 177.2,438.7 151.0,429.7 98.5,455.0 46.0,426.8" fill="#2ca02c" opacity="0.11"/>
<polyline points="46.0,422.9 98.5,450.4 151.0,427.6 177.2,438.2 203.5,435.2 229.8,438.5 256.0,442.4" fill="none" stroke="#2ca02c" stroke-width="1.6"/>
<circle cx="46.0" cy="422.9" r="2" fill="#2ca02c"/>
<circle cx="98.5" cy="450.4" r="2" fill="#2ca02c"/>
<circle cx="151.0" cy="427.6" r="2" fill="#2ca02c"/>
<circle cx="177.2" cy="438.2" r="2" fill="#2ca02c"/>
<circle cx="203.5" cy="435.2" r="2" fill="#2ca02c"/>
<circle cx="229.8" cy="438.5" r="2" fill="#2ca02c"/>
<circle cx="256.0" cy="442.4" r="2" fill="#2ca02c"/>
<polygon points="46.0,437.0 98.5,457.9 151.0,448.7 177.2,438.3 203.5,441.1 229.8,443.8 256.0,447.6 256.0,449.4 229.8,446.6 203.5,444.7 177.2,446.3 151.0,453.7 98.5,459.9 46.0,440.7" fill="#1f77b4" opacity="0.11"/>
<polyline points="46.0,438.4 98.5,458.5 151.0,451.3 177.2,444.9 203.5,442.7 229.8,445.3 256.0,448.8" fill="none" stroke="#1f77b4" stroke-width="1.6"/>
<circle cx="46.0" cy="438.4" r="2" fill="#1f77b4"/>
<circle cx="98.5" cy="458.5" r="2" fill="#1f77b4"/>
<circle cx="151.0" cy="451.3" r="2" fill="#1f77b4"/>
<circle cx="177.2" cy="444.9" r="2" fill="#1f77b4"/>
<circle cx="203.5" cy="442.7" r="2" fill="#1f77b4"/>
<circle cx="229.8" cy="445.3" r="2" fill="#1f77b4"/>
<circle cx="256.0" cy="448.8" r="2" fill="#1f77b4"/>
<text x="151.0" y="399" text-anchor="middle" font-size="12" font-weight="bold">ztrsm</text>
<line x1="46.0" y1="404" x2="46.0" y2="542" stroke="#f4f4f4"/>
<text x="46.0" y="553" text-anchor="middle" font-size="8" fill="#999">8</text>
<line x1="98.5" y1="404" x2="98.5" y2="542" stroke="#f4f4f4"/>
<text x="98.5" y="553" text-anchor="middle" font-size="8" fill="#999">32</text>
<line x1="151.0" y1="404" x2="151.0" y2="542" stroke="#f4f4f4"/>
<text x="151.0" y="553" text-anchor="middle" font-size="8" fill="#999">128</text>
<line x1="177.2" y1="404" x2="177.2" y2="542" stroke="#f4f4f4"/>
<text x="177.2" y="553" text-anchor="middle" font-size="8" fill="#999">256</text>
<line x1="203.5" y1="404" x2="203.5" y2="542" stroke="#f4f4f4"/>
<text x="203.5" y="553" text-anchor="middle" font-size="8" fill="#999">512</text>
<line x1="229.8" y1="404" x2="229.8" y2="542" stroke="#f4f4f4"/>
<text x="229.8" y="553" text-anchor="middle" font-size="8" fill="#999">1k</text>
<line x1="256.0" y1="404" x2="256.0" y2="542" stroke="#f4f4f4"/>
<text x="256.0" y="553" text-anchor="middle" font-size="8" fill="#999">2k</text>
<rect x="276" y="404" width="210" height="138" fill="none" stroke="#e2e2e2"/>
<line x1="276" y1="459.7627611906553" x2="486" y2="459.7627611906553" stroke="#d33" stroke-dasharray="4 3"/>
<text x="272" y="545.0" text-anchor="end" font-size="9" fill="#999">0.5×</text>
<text x="272" y="462.7627611906553" text-anchor="end" font-size="9" fill="#999">1.0×</text>
<text x="272" y="407.0" text-anchor="end" font-size="9" fill="#999">1.6×</text>
<polygon points="276.0,452.8 328.5,484.1 381.0,462.2 407.2,452.8 433.5,444.6 459.8,439.8 486.0,436.5 486.0,437.6 459.8,441.2 433.5,445.9 407.2,453.8 381.0,463.3 328.5,498.9 276.0,456.1" fill="#d62728" opacity="0.11"/>
<polyline points="276.0,454.6 328.5,488.3 381.0,462.9 407.2,453.1 433.5,445.6 459.8,440.4 486.0,437.3" fill="none" stroke="#d62728" stroke-width="1.6"/>
<circle cx="276.0" cy="454.6" r="2" fill="#d62728"/>
<circle cx="328.5" cy="488.3" r="2" fill="#d62728"/>
<circle cx="381.0" cy="462.9" r="2" fill="#d62728"/>
<circle cx="407.2" cy="453.1" r="2" fill="#d62728"/>
<circle cx="433.5" cy="445.6" r="2" fill="#d62728"/>
<circle cx="459.8" cy="440.4" r="2" fill="#d62728"/>
<circle cx="486.0" cy="437.3" r="2" fill="#d62728"/>
<polygon points="276.0,418.0 328.5,449.6 381.0,448.9 407.2,441.5 433.5,440.7 459.8,442.2 486.0,442.6 486.0,443.1 459.8,442.8 433.5,441.7 407.2,442.3 381.0,452.1 328.5,461.1 276.0,424.6" fill="#2ca02c" opacity="0.11"/>
<polyline points="276.0,420.9 328.5,456.9 381.0,450.4 407.2,442.0 433.5,441.1 459.8,442.5 486.0,442.8" fill="none" stroke="#2ca02c" stroke-width="1.6"/>
<circle cx="276.0" cy="420.9" r="2" fill="#2ca02c"/>
<circle cx="328.5" cy="456.9" r="2" fill="#2ca02c"/>
<circle cx="381.0" cy="450.4" r="2" fill="#2ca02c"/>
<circle cx="407.2" cy="442.0" r="2" fill="#2ca02c"/>
<circle cx="433.5" cy="441.1" r="2" fill="#2ca02c"/>
<circle cx="459.8" cy="442.5" r="2" fill="#2ca02c"/>
<circle cx="486.0" cy="442.8" r="2" fill="#2ca02c"/>
<polygon points="276.0,434.4 328.5,440.5 381.0,442.9 407.2,450.3 433.5,451.5 459.8,450.4 486.0,446.3 486.0,448.4 459.8,452.3 433.5,452.5 407.2,451.2 381.0,449.9 328.5,442.8 276.0,441.3" fill="#1f77b4" opacity="0.11"/>
<polyline points="276.0,437.0 328.5,441.9 381.0,448.7 407.2,450.8 433.5,451.9 459.8,451.5 486.0,446.9" fill="none" stroke="#1f77b4" stroke-width="1.6"/>
<circle cx="276.0" cy="437.0" r="2" fill="#1f77b4"/>
<circle cx="328.5" cy="441.9" r="2" fill="#1f77b4"/>
<circle cx="381.0" cy="448.7" r="2" fill="#1f77b4"/>
<circle cx="407.2" cy="450.8" r="2" fill="#1f77b4"/>
<circle cx="433.5" cy="451.9" r="2" fill="#1f77b4"/>
<circle cx="459.8" cy="451.5" r="2" fill="#1f77b4"/>
<circle cx="486.0" cy="446.9" r="2" fill="#1f77b4"/>
<text x="381.0" y="399" text-anchor="middle" font-size="12" font-weight="bold">ztrmmR</text>
<line x1="276.0" y1="404" x2="276.0" y2="542" stroke="#f4f4f4"/>
<text x="276.0" y="553" text-anchor="middle" font-size="8" fill="#999">8</text>
<line x1="328.5" y1="404" x2="328.5" y2="542" stroke="#f4f4f4"/>
<text x="328.5" y="553" text-anchor="middle" font-size="8" fill="#999">32</text>
<line x1="381.0" y1="404" x2="381.0" y2="542" stroke="#f4f4f4"/>
<text x="381.0" y="553" text-anchor="middle" font-size="8" fill="#999">128</text>
<line x1="407.2" y1="404" x2="407.2" y2="542" stroke="#f4f4f4"/>
<text x="407.2" y="553" text-anchor="middle" font-size="8" fill="#999">256</text>
<line x1="433.5" y1="404" x2="433.5" y2="542" stroke="#f4f4f4"/>
<text x="433.5" y="553" text-anchor="middle" font-size="8" fill="#999">512</text>
<line x1="459.8" y1="404" x2="459.8" y2="542" stroke="#f4f4f4"/>
<text x="459.8" y="553" text-anchor="middle" font-size="8" fill="#999">1k</text>
<line x1="486.0" y1="404" x2="486.0" y2="542" stroke="#f4f4f4"/>
<text x="486.0" y="553" text-anchor="middle" font-size="8" fill="#999">2k</text>
<rect x="506" y="404" width="210" height="138" fill="none" stroke="#e2e2e2"/>
<line x1="506" y1="473.2876676284232" x2="716" y2="473.2876676284232" stroke="#d33" stroke-dasharray="4 3"/>
<text x="502" y="545.0" text-anchor="end" font-size="9" fill="#999">0.5×</text>
<text x="502" y="476.2876676284232" text-anchor="end" font-size="9" fill="#999">1.0×</text>
<text x="502" y="407.0809155727806" text-anchor="end" font-size="9" fill="#999">2.01×</text>
<polygon points="506.0,424.2 558.5,430.2 611.0,459.5 637.2,457.0 663.5,455.7 689.8,457.7 716.0,454.2 716.0,455.4 689.8,458.7 663.5,456.5 637.2,457.3 611.0,459.8 558.5,434.7 506.0,427.1" fill="#d62728" opacity="0.11"/>
<polyline points="506.0,426.1 558.5,431.7 611.0,459.7 637.2,457.1 663.5,456.0 689.8,458.5 716.0,455.0" fill="none" stroke="#d62728" stroke-width="1.6"/>
<circle cx="506.0" cy="426.1" r="2" fill="#d62728"/>
<circle cx="558.5" cy="431.7" r="2" fill="#d62728"/>
<circle cx="611.0" cy="459.7" r="2" fill="#d62728"/>
<circle cx="637.2" cy="457.1" r="2" fill="#d62728"/>
<circle cx="663.5" cy="456.0" r="2" fill="#d62728"/>
<circle cx="689.8" cy="458.5" r="2" fill="#d62728"/>
<circle cx="716.0" cy="455.0" r="2" fill="#d62728"/>
<polygon points="506.0,411.6 558.5,418.7 611.0,424.0 637.2,436.9 663.5,445.8 689.8,452.5 716.0,457.9 716.0,458.2 689.8,453.2 663.5,446.1 637.2,437.4 611.0,424.9 558.5,423.3 506.0,416.4" fill="#2ca02c" opacity="0.11"/>
<polyline points="506.0,414.0 558.5,420.2 611.0,424.2 637.2,437.1 663.5,445.9 689.8,452.8 716.0,458.2" fill="none" stroke="#2ca02c" stroke-width="1.6"/>
<circle cx="506.0" cy="414.0" r="2" fill="#2ca02c"/>
<circle cx="558.5" cy="420.2" r="2" fill="#2ca02c"/>
<circle cx="611.0" cy="424.2" r="2" fill="#2ca02c"/>
<circle cx="637.2" cy="437.1" r="2" fill="#2ca02c"/>
<circle cx="663.5" cy="445.9" r="2" fill="#2ca02c"/>
<circle cx="689.8" cy="452.8" r="2" fill="#2ca02c"/>
<circle cx="716.0" cy="458.2" r="2" fill="#2ca02c"/>
<polygon points="506.0,414.6 558.5,426.8 611.0,430.9 637.2,444.4 663.5,447.9 689.8,461.5 716.0,464.1 716.0,465.5 689.8,462.8 663.5,454.1 637.2,445.6 611.0,433.8 558.5,428.0 506.0,420.6" fill="#1f77b4" opacity="0.11"/>
<polyline points="506.0,417.3 558.5,427.4 611.0,432.2 637.2,445.0 663.5,453.4 689.8,462.1 716.0,464.5" fill="none" stroke="#1f77b4" stroke-width="1.6"/>
<circle cx="506.0" cy="417.3" r="2" fill="#1f77b4"/>
<circle cx="558.5" cy="427.4" r="2" fill="#1f77b4"/>
<circle cx="611.0" cy="432.2" r="2" fill="#1f77b4"/>
<circle cx="637.2" cy="445.0" r="2" fill="#1f77b4"/>
<circle cx="663.5" cy="453.4" r="2" fill="#1f77b4"/>
<circle cx="689.8" cy="462.1" r="2" fill="#1f77b4"/>
<circle cx="716.0" cy="464.5" r="2" fill="#1f77b4"/>
<text x="611.0" y="399" text-anchor="middle" font-size="12" font-weight="bold">ztrsmR</text>
<line x1="506.0" y1="404" x2="506.0" y2="542" stroke="#f4f4f4"/>
<text x="506.0" y="553" text-anchor="middle" font-size="8" fill="#999">8</text>
<line x1="558.5" y1="404" x2="558.5" y2="542" stroke="#f4f4f4"/>
<text x="558.5" y="553" text-anchor="middle" font-size="8" fill="#999">32</text>
<line x1="611.0" y1="404" x2="611.0" y2="542" stroke="#f4f4f4"/>
<text x="611.0" y="553" text-anchor="middle" font-size="8" fill="#999">128</text>
<line x1="637.2" y1="404" x2="637.2" y2="542" stroke="#f4f4f4"/>
<text x="637.2" y="553" text-anchor="middle" font-size="8" fill="#999">256</text>
<line x1="663.5" y1="404" x2="663.5" y2="542" stroke="#f4f4f4"/>
<text x="663.5" y="553" text-anchor="middle" font-size="8" fill="#999">512</text>
<line x1="689.8" y1="404" x2="689.8" y2="542" stroke="#f4f4f4"/>
<text x="689.8" y="553" text-anchor="middle" font-size="8" fill="#999">1k</text>
<line x1="716.0" y1="404" x2="716.0" y2="542" stroke="#f4f4f4"/>
<text x="716.0" y="553" text-anchor="middle" font-size="8" fill="#999">2k</text>
</svg>
