<svg xmlns="http://www.w3.org/2000/svg" width="900" height="460" font-family="sans-serif">
<rect width="900" height="460" fill="white"/>
<text x="450.0" y="28" text-anchor="middle" font-size="18" font-weight="bold">BLAS-3: PureBLAS / OpenBLAS (AVX-512 native (Zen5), 1 thread, Float64)</text>
<line x1="62" y1="400.0" x2="768" y2="400.0" stroke="#eee"/>
<text x="54" y="404.0" text-anchor="end" font-size="11" fill="#666">0.5×</text>
<line x1="62" y1="328.67042614166036" x2="768" y2="328.67042614166036" stroke="#eee"/>
<text x="54" y="332.67042614166036" text-anchor="end" font-size="11" fill="#666">0.7×</text>
<line x1="62" y1="253.05803085884247" x2="768" y2="253.05803085884247" stroke="#eee"/>
<text x="54" y="257.05803085884247" text-anchor="end" font-size="11" fill="#666">1.0×</text>
<line x1="62" y1="167.10248912914003" x2="768" y2="167.10248912914003" stroke="#eee"/>
<text x="54" y="171.10248912914003" text-anchor="end" font-size="11" fill="#666">1.5×</text>
<line x1="62" y1="106.11606171768494" x2="768" y2="106.11606171768494" stroke="#eee"/>
<text x="54" y="110.11606171768494" text-anchor="end" font-size="11" fill="#666">2.0×</text>
<line x1="62.0" y1="50" x2="62.0" y2="400" stroke="#f4f4f4"/>
<text x="62.0" y="418" text-anchor="middle" font-size="11" fill="#444">8</text>
<line x1="238.5" y1="50" x2="238.5" y2="400" stroke="#f4f4f4"/>
<text x="238.5" y="418" text-anchor="middle" font-size="11" fill="#444">32</text>
<line x1="415.0" y1="50" x2="415.0" y2="400" stroke="#f4f4f4"/>
<text x="415.0" y="418" text-anchor="middle" font-size="11" fill="#444">128</text>
<line x1="503.25" y1="50" x2="503.25" y2="400" stroke="#f4f4f4"/>
<text x="503.25" y="418" text-anchor="middle" font-size="11" fill="#444">256</text>
<line x1="591.5" y1="50" x2="591.5" y2="400" stroke="#f4f4f4"/>
<text x="591.5" y="418" text-anchor="middle" font-size="11" fill="#444">512</text>
<line x1="679.75" y1="50" x2="679.75" y2="400" stroke="#f4f4f4"/>
<text x="679.75" y="418" text-anchor="middle" font-size="11" fill="#444">1024</text>
<line x1="768.0" y1="50" x2="768.0" y2="400" stroke="#f4f4f4"/>
<text x="768.0" y="418" text-anchor="middle" font-size="11" fill="#444">2048</text>
<line x1="62" y1="253.05803085884247" x2="768" y2="253.05803085884247" stroke="#888"/>
<line x1="62" y1="261.71198549836083" x2="768" y2="261.71198549836083" stroke="#d33" stroke-width="1.5" stroke-dasharray="6 4"/>
<text x="66" y="256.71198549836083" font-size="11" fill="#d33">0.96× gate</text>
<polygon points="62.0,109.0 238.5,264.2 415.0,190.2 503.2,212.4 591.5,224.9 679.8,228.0 768.0,214.4 768.0,215.1 679.8,229.0 591.5,225.3 503.2,216.5 415.0,192.5 238.5,271.5 62.0,189.0" fill="#1f77b4" opacity="0.14" stroke="none"/>
<polyline points="62.0,143.1 238.5,266.8 415.0,192.0 503.2,213.4 591.5,225.1 679.8,228.3 768.0,214.7" fill="none" stroke="#1f77b4" stroke-width="2"/>
<circle cx="62.0" cy="143.1" r="3" fill="#1f77b4"/>
<circle cx="238.5" cy="266.8" r="3" fill="#1f77b4"/>
<circle cx="415.0" cy="192.0" r="3" fill="#1f77b4"/>
<circle cx="503.2" cy="213.4" r="3" fill="#1f77b4"/>
<circle cx="591.5" cy="225.1" r="3" fill="#1f77b4"/>
<circle cx="679.8" cy="228.3" r="3" fill="#1f77b4"/>
<circle cx="768.0" cy="214.7" r="3" fill="#1f77b4"/>
<line x1="782" y1="56" x2="802" y2="56" stroke="#1f77b4" stroke-width="3"/>
<text x="806" y="60" font-size="12">gemm</text>
<polygon points="62.0,76.4 238.5,160.5 415.0,198.1 503.2,205.3 591.5,212.6 679.8,216.3 768.0,218.2 768.0,218.3 679.8,216.7 591.5,212.9 503.2,205.8 415.0,199.1 238.5,162.1 62.0,96.7" fill="#d62728" opacity="0.14" stroke="none"/>
<polyline points="62.0,79.6 238.5,161.4 415.0,198.4 503.2,205.6 591.5,212.7 679.8,216.6 768.0,218.3" fill="none" stroke="#d62728" stroke-width="2"/>
<circle cx="62.0" cy="79.6" r="3" fill="#d62728"/>
<circle cx="238.5" cy="161.4" r="3" fill="#d62728"/>
<circle cx="415.0" cy="198.4" r="3" fill="#d62728"/>
<circle cx="503.2" cy="205.6" r="3" fill="#d62728"/>
<circle cx="591.5" cy="212.7" r="3" fill="#d62728"/>
<circle cx="679.8" cy="216.6" r="3" fill="#d62728"/>
<circle cx="768.0" cy="218.3" r="3" fill="#d62728"/>
<line x1="782" y1="74" x2="802" y2="74" stroke="#d62728" stroke-width="3"/>
<text x="806" y="78" font-size="12">zgemm</text>
<polygon points="62.0,124.7 238.5,192.2 415.0,194.6 503.2,220.2 591.5,225.3 679.8,231.5 768.0,232.9 768.0,233.3 679.8,232.8 591.5,225.8 503.2,221.9 415.0,205.0 238.5,203.0 62.0,143.6" fill="#2ca02c" opacity="0.14" stroke="none"/>
<polyline points="62.0,128.4 238.5,194.3 415.0,202.8 503.2,220.8 591.5,225.5 679.8,231.7 768.0,233.1" fill="none" stroke="#2ca02c" stroke-width="2"/>
<circle cx="62.0" cy="128.4" r="3" fill="#2ca02c"/>
<circle cx="238.5" cy="194.3" r="3" fill="#2ca02c"/>
<circle cx="415.0" cy="202.8" r="3" fill="#2ca02c"/>
<circle cx="503.2" cy="220.8" r="3" fill="#2ca02c"/>
<circle cx="591.5" cy="225.5" r="3" fill="#2ca02c"/>
<circle cx="679.8" cy="231.7" r="3" fill="#2ca02c"/>
<circle cx="768.0" cy="233.1" r="3" fill="#2ca02c"/>
<line x1="782" y1="92" x2="802" y2="92" stroke="#2ca02c" stroke-width="3"/>
<text x="806" y="96" font-size="12">symm</text>
<polygon points="62.0,172.5 238.5,214.2 415.0,209.9 503.2,201.5 591.5,207.4 679.8,218.1 768.0,231.8 768.0,233.7 679.8,218.3 591.5,207.8 503.2,201.9 415.0,210.8 238.5,221.8 62.0,191.1" fill="#9467bd" opacity="0.14" stroke="none"/>
<polyline points="62.0,182.7 238.5,217.8 415.0,210.2 503.2,201.7 591.5,207.6 679.8,218.2 768.0,232.7" fill="none" stroke="#9467bd" stroke-width="2"/>
<circle cx="62.0" cy="182.7" r="3" fill="#9467bd"/>
<circle cx="238.5" cy="217.8" r="3" fill="#9467bd"/>
<circle cx="415.0" cy="210.2" r="3" fill="#9467bd"/>
<circle cx="503.2" cy="201.7" r="3" fill="#9467bd"/>
<circle cx="591.5" cy="207.6" r="3" fill="#9467bd"/>
<circle cx="679.8" cy="218.2" r="3" fill="#9467bd"/>
<circle cx="768.0" cy="232.7" r="3" fill="#9467bd"/>
<line x1="782" y1="110" x2="802" y2="110" stroke="#9467bd" stroke-width="3"/>
<text x="806" y="114" font-size="12">syrk</text>
<polygon points="62.0,175.2 238.5,197.1 415.0,172.5 503.2,181.1 591.5,210.9 679.8,228.0 768.0,242.4 768.0,243.6 679.8,231.0 591.5,212.4 503.2,196.8 415.0,186.4 238.5,206.1 62.0,183.9" fill="#ff7f0e" opacity="0.14" stroke="none"/>
<polyline points="62.0,177.5 238.5,199.4 415.0,178.1 503.2,185.8 591.5,211.9 679.8,228.1 768.0,242.8" fill="none" stroke="#ff7f0e" stroke-width="2"/>
<circle cx="62.0" cy="177.5" r="3" fill="#ff7f0e"/>
<circle cx="238.5" cy="199.4" r="3" fill="#ff7f0e"/>
<circle cx="415.0" cy="178.1" r="3" fill="#ff7f0e"/>
<circle cx="503.2" cy="185.8" r="3" fill="#ff7f0e"/>
<circle cx="591.5" cy="211.9" r="3" fill="#ff7f0e"/>
<circle cx="679.8" cy="228.1" r="3" fill="#ff7f0e"/>
<circle cx="768.0" cy="242.8" r="3" fill="#ff7f0e"/>
<line x1="782" y1="128" x2="802" y2="128" stroke="#ff7f0e" stroke-width="3"/>
<text x="806" y="132" font-size="12">syr2k</text>
<polygon points="62.0,168.8 238.5,226.0 415.0,181.5 503.2,206.1 591.5,228.3 679.8,235.6 768.0,239.3 768.0,239.6 679.8,237.0 591.5,230.3 503.2,206.8 415.0,195.9 238.5,228.8 62.0,170.8" fill="#17becf" opacity="0.14" stroke="none"/>
<polyline points="62.0,169.6 238.5,226.9 415.0,184.1 503.2,206.2 591.5,229.7 679.8,236.3 768.0,239.4" fill="none" stroke="#17becf" stroke-width="2"/>
<circle cx="62.0" cy="169.6" r="3" fill="#17becf"/>
<circle cx="238.5" cy="226.9" r="3" fill="#17becf"/>
<circle cx="415.0" cy="184.1" r="3" fill="#17becf"/>
<circle cx="503.2" cy="206.2" r="3" fill="#17becf"/>
<circle cx="591.5" cy="229.7" r="3" fill="#17becf"/>
<circle cx="679.8" cy="236.3" r="3" fill="#17becf"/>
<circle cx="768.0" cy="239.4" r="3" fill="#17becf"/>
<line x1="782" y1="146" x2="802" y2="146" stroke="#17becf" stroke-width="3"/>
<text x="806" y="150" font-size="12">trmm</text>
<polygon points="62.0,118.5 238.5,98.6 415.0,101.6 503.2,119.1 591.5,175.9 679.8,199.6 768.0,220.0 768.0,220.5 679.8,200.0 591.5,176.1 503.2,120.4 415.0,103.5 238.5,103.0 62.0,120.5" fill="#8c564b" opacity="0.14" stroke="none"/>
<polyline points="62.0,119.4 238.5,99.3 415.0,102.2 503.2,119.6 591.5,176.0 679.8,199.9 768.0,220.3" fill="none" stroke="#8c564b" stroke-width="2"/>
<circle cx="62.0" cy="119.4" r="3" fill="#8c564b"/>
<circle cx="238.5" cy="99.3" r="3" fill="#8c564b"/>
<circle cx="415.0" cy="102.2" r="3" fill="#8c564b"/>
<circle cx="503.2" cy="119.6" r="3" fill="#8c564b"/>
<circle cx="591.5" cy="176.0" r="3" fill="#8c564b"/>
<circle cx="679.8" cy="199.9" r="3" fill="#8c564b"/>
<circle cx="768.0" cy="220.3" r="3" fill="#8c564b"/>
<line x1="782" y1="164" x2="802" y2="164" stroke="#8c564b" stroke-width="3"/>
<text x="806" y="168" font-size="12">trsm</text>
<text x="415.0" y="450" text-anchor="middle" font-size="11" fill="#666">matrix size n (log) · y = median ratio (log) · dashed = the 0.96× gate</text>
</svg>
