<svg xmlns="http://www.w3.org/2000/svg" width="962" height="592" font-family="sans-serif">
<rect width="962" height="592" fill="white"/>
<text x="481.0" y="26" text-anchor="middle" font-size="17" font-weight="bold">Complex BLAS-2 — PureBLAS / AOCL (PB/AOCL ratio)</text>
<line x1="46" y1="42" x2="68" y2="42" stroke="#d62728" stroke-width="3"/>
<text x="73" y="46" font-size="12">Zen3 · AVX2</text>
<line x1="176" y1="42" x2="198" y2="42" stroke="#2ca02c" stroke-width="3"/>
<text x="203" y="46" font-size="12">Zen5 · AVX-512</text>
<line x1="327" y1="42" x2="349" y2="42" stroke="#1f77b4" stroke-width="3"/>
<text x="354" y="46" font-size="12">Zen4 · AVX-512</text>
<rect x="46" y="60" width="210" height="138" fill="none" stroke="#e2e2e2"/>
<line x1="46" y1="115.80383134673377" x2="256" y2="115.80383134673377" stroke="#d33" stroke-dasharray="4 3"/>
<text x="42" y="201.0" text-anchor="end" font-size="9" fill="#999">0.5×</text>
<text x="42" y="118.80383134673377" text-anchor="end" font-size="9" fill="#999">1.0×</text>
<text x="42" y="63.068918675053865" text-anchor="end" font-size="9" fill="#999">1.6×</text>
<polygon points="46.0,69.1 81.0,80.4 116.0,94.4 151.0,100.1 186.0,104.2 221.0,100.7 256.0,113.1 256.0,116.0 221.0,113.7 186.0,106.4 151.0,105.2 116.0,102.3 81.0,87.0 46.0,70.6" fill="#d62728" opacity="0.11"/>
<polyline points="46.0,69.6 81.0,84.0 116.0,96.9 151.0,101.5 186.0,105.5 221.0,106.9 256.0,114.2" fill="none" stroke="#d62728" stroke-width="1.6"/>
<circle cx="46.0" cy="69.6" r="2" fill="#d62728"/>
<circle cx="81.0" cy="84.0" r="2" fill="#d62728"/>
<circle cx="116.0" cy="96.9" r="2" fill="#d62728"/>
<circle cx="151.0" cy="101.5" r="2" fill="#d62728"/>
<circle cx="186.0" cy="105.5" r="2" fill="#d62728"/>
<circle cx="221.0" cy="106.9" r="2" fill="#d62728"/>
<circle cx="256.0" cy="114.2" r="2" fill="#d62728"/>
<polygon points="46.0,109.1 81.0,109.8 116.0,103.4 151.0,91.1 186.0,115.5 221.0,107.8 256.0,95.5 256.0,97.9 221.0,110.1 186.0,123.7 151.0,120.9 116.0,109.5 81.0,110.7 46.0,111.6" fill="#2ca02c" opacity="0.11"/>
<polyline points="46.0,110.5 81.0,110.4 116.0,104.6 151.0,103.2 186.0,119.6 221.0,109.2 256.0,96.5" fill="none" stroke="#2ca02c" stroke-width="1.6"/>
<circle cx="46.0" cy="110.5" r="2" fill="#2ca02c"/>
<circle cx="81.0" cy="110.4" r="2" fill="#2ca02c"/>
<circle cx="116.0" cy="104.6" r="2" fill="#2ca02c"/>
<circle cx="151.0" cy="103.2" r="2" fill="#2ca02c"/>
<circle cx="186.0" cy="119.6" r="2" fill="#2ca02c"/>
<circle cx="221.0" cy="109.2" r="2" fill="#2ca02c"/>
<circle cx="256.0" cy="96.5" r="2" fill="#2ca02c"/>
<polygon points="46.0,112.8 81.0,102.3 116.0,97.9 151.0,116.9 186.0,123.2 221.0,115.4 256.0,113.3 256.0,116.0 221.0,119.2 186.0,133.5 151.0,124.9 116.0,109.4 81.0,117.6 46.0,115.4" fill="#1f77b4" opacity="0.11"/>
<polyline points="46.0,113.9 81.0,112.2 116.0,103.8 151.0,123.2 186.0,129.9 221.0,117.9 256.0,114.7" fill="none" stroke="#1f77b4" stroke-width="1.6"/>
<circle cx="46.0" cy="113.9" r="2" fill="#1f77b4"/>
<circle cx="81.0" cy="112.2" r="2" fill="#1f77b4"/>
<circle cx="116.0" cy="103.8" r="2" fill="#1f77b4"/>
<circle cx="151.0" cy="123.2" r="2" fill="#1f77b4"/>
<circle cx="186.0" cy="129.9" r="2" fill="#1f77b4"/>
<circle cx="221.0" cy="117.9" r="2" fill="#1f77b4"/>
<circle cx="256.0" cy="114.7" r="2" fill="#1f77b4"/>
<text x="151.0" y="55" text-anchor="middle" font-size="12" font-weight="bold">zgemvN</text>
<line x1="46.0" y1="60" x2="46.0" y2="198" stroke="#f4f4f4"/>
<text x="46.0" y="209" text-anchor="middle" font-size="8" fill="#999">64</text>
<line x1="81.0" y1="60" x2="81.0" y2="198" stroke="#f4f4f4"/>
<text x="81.0" y="209" text-anchor="middle" font-size="8" fill="#999">128</text>
<line x1="116.0" y1="60" x2="116.0" y2="198" stroke="#f4f4f4"/>
<text x="116.0" y="209" text-anchor="middle" font-size="8" fill="#999">256</text>
<line x1="151.0" y1="60" x2="151.0" y2="198" stroke="#f4f4f4"/>
<text x="151.0" y="209" text-anchor="middle" font-size="8" fill="#999">512</text>
<line x1="186.0" y1="60" x2="186.0" y2="198" stroke="#f4f4f4"/>
<text x="186.0" y="209" text-anchor="middle" font-size="8" fill="#999">1k</text>
<line x1="221.0" y1="60" x2="221.0" y2="198" stroke="#f4f4f4"/>
<text x="221.0" y="209" text-anchor="middle" font-size="8" fill="#999">2k</text>
<line x1="256.0" y1="60" x2="256.0" y2="198" stroke="#f4f4f4"/>
<text x="256.0" y="209" text-anchor="middle" font-size="8" fill="#999">4k</text>
<rect x="276" y="60" width="210" height="138" fill="none" stroke="#e2e2e2"/>
<line x1="276" y1="115.76276119065531" x2="486" y2="115.76276119065531" stroke="#d33" stroke-dasharray="4 3"/>
<text x="272" y="201.0" text-anchor="end" font-size="9" fill="#999">0.5×</text>
<text x="272" y="118.76276119065531" text-anchor="end" font-size="9" fill="#999">1.0×</text>
<text x="272" y="63.0" text-anchor="end" font-size="9" fill="#999">1.6×</text>
<polygon points="276.0,91.6 311.0,95.9 346.0,107.1 381.0,116.0 416.0,119.0 451.0,116.1 486.0,113.8 486.0,115.4 451.0,130.7 416.0,122.9 381.0,118.8 346.0,114.2 311.0,101.9 276.0,93.3" fill="#d62728" opacity="0.11"/>
<polyline points="276.0,92.7 311.0,100.2 346.0,111.7 381.0,117.1 416.0,121.2 451.0,121.5 486.0,114.8" fill="none" stroke="#d62728" stroke-width="1.6"/>
<circle cx="276.0" cy="92.7" r="2" fill="#d62728"/>
<circle cx="311.0" cy="100.2" r="2" fill="#d62728"/>
<circle cx="346.0" cy="111.7" r="2" fill="#d62728"/>
<circle cx="381.0" cy="117.1" r="2" fill="#d62728"/>
<circle cx="416.0" cy="121.2" r="2" fill="#d62728"/>
<circle cx="451.0" cy="121.5" r="2" fill="#d62728"/>
<circle cx="486.0" cy="114.8" r="2" fill="#d62728"/>
<polygon points="276.0,118.2 311.0,116.6 346.0,110.3 381.0,95.1 416.0,119.3 451.0,108.7 486.0,96.1 486.0,101.5 451.0,115.4 416.0,124.1 381.0,118.7 346.0,117.8 311.0,117.3 276.0,120.0" fill="#2ca02c" opacity="0.11"/>
<polyline points="276.0,119.4 311.0,117.0 346.0,112.7 381.0,106.6 416.0,120.9 451.0,111.4 486.0,99.4" fill="none" stroke="#2ca02c" stroke-width="1.6"/>
<circle cx="276.0" cy="119.4" r="2" fill="#2ca02c"/>
<circle cx="311.0" cy="117.0" r="2" fill="#2ca02c"/>
<circle cx="346.0" cy="112.7" r="2" fill="#2ca02c"/>
<circle cx="381.0" cy="106.6" r="2" fill="#2ca02c"/>
<circle cx="416.0" cy="120.9" r="2" fill="#2ca02c"/>
<circle cx="451.0" cy="111.4" r="2" fill="#2ca02c"/>
<circle cx="486.0" cy="99.4" r="2" fill="#2ca02c"/>
<polygon points="276.0,112.6 311.0,113.3 346.0,95.6 381.0,117.4 416.0,119.2 451.0,114.4 486.0,111.2 486.0,112.4 451.0,117.4 416.0,130.3 381.0,123.3 346.0,102.4 311.0,115.1 276.0,114.3" fill="#1f77b4" opacity="0.11"/>
<polyline points="276.0,113.5 311.0,114.2 346.0,97.6 381.0,119.6 416.0,125.1 451.0,115.7 486.0,111.7" fill="none" stroke="#1f77b4" stroke-width="1.6"/>
<circle cx="276.0" cy="113.5" r="2" fill="#1f77b4"/>
<circle cx="311.0" cy="114.2" r="2" fill="#1f77b4"/>
<circle cx="346.0" cy="97.6" r="2" fill="#1f77b4"/>
<circle cx="381.0" cy="119.6" r="2" fill="#1f77b4"/>
<circle cx="416.0" cy="125.1" r="2" fill="#1f77b4"/>
<circle cx="451.0" cy="115.7" r="2" fill="#1f77b4"/>
<circle cx="486.0" cy="111.7" r="2" fill="#1f77b4"/>
<text x="381.0" y="55" text-anchor="middle" font-size="12" font-weight="bold">zgemvT</text>
<line x1="276.0" y1="60" x2="276.0" y2="198" stroke="#f4f4f4"/>
<text x="276.0" y="209" text-anchor="middle" font-size="8" fill="#999">64</text>
<line x1="311.0" y1="60" x2="311.0" y2="198" stroke="#f4f4f4"/>
<text x="311.0" y="209" text-anchor="middle" font-size="8" fill="#999">128</text>
<line x1="346.0" y1="60" x2="346.0" y2="198" stroke="#f4f4f4"/>
<text x="346.0" y="209" text-anchor="middle" font-size="8" fill="#999">256</text>
<line x1="381.0" y1="60" x2="381.0" y2="198" stroke="#f4f4f4"/>
<text x="381.0" y="209" text-anchor="middle" font-size="8" fill="#999">512</text>
<line x1="416.0" y1="60" x2="416.0" y2="198" stroke="#f4f4f4"/>
<text x="416.0" y="209" text-anchor="middle" font-size="8" fill="#999">1k</text>
<line x1="451.0" y1="60" x2="451.0" y2="198" stroke="#f4f4f4"/>
<text x="451.0" y="209" text-anchor="middle" font-size="8" fill="#999">2k</text>
<line x1="486.0" y1="60" x2="486.0" y2="198" stroke="#f4f4f4"/>
<text x="486.0" y="209" text-anchor="middle" font-size="8" fill="#999">4k</text>
<rect x="506" y="60" width="210" height="138" fill="none" stroke="#e2e2e2"/>
<line x1="506" y1="115.76276119065531" x2="716" y2="115.76276119065531" stroke="#d33" stroke-dasharray="4 3"/>
<text x="502" y="201.0" text-anchor="end" font-size="9" fill="#999">0.5×</text>
<text x="502" y="118.76276119065531" text-anchor="end" font-size="9" fill="#999">1.0×</text>
<text x="502" y="63.0" text-anchor="end" font-size="9" fill="#999">1.6×</text>
<polygon points="506.0,85.3 541.0,95.2 576.0,107.1 611.0,116.1 646.0,119.2 681.0,119.7 716.0,112.7 716.0,117.0 681.0,123.1 646.0,123.5 611.0,120.5 576.0,112.2 541.0,101.2 506.0,86.6" fill="#d62728" opacity="0.11"/>
<polyline points="506.0,85.8 541.0,99.6 576.0,110.1 611.0,118.2 646.0,120.9 681.0,122.6 716.0,116.4" fill="none" stroke="#d62728" stroke-width="1.6"/>
<circle cx="506.0" cy="85.8" r="2" fill="#d62728"/>
<circle cx="541.0" cy="99.6" r="2" fill="#d62728"/>
<circle cx="576.0" cy="110.1" r="2" fill="#d62728"/>
<circle cx="611.0" cy="118.2" r="2" fill="#d62728"/>
<circle cx="646.0" cy="120.9" r="2" fill="#d62728"/>
<circle cx="681.0" cy="122.6" r="2" fill="#d62728"/>
<circle cx="716.0" cy="116.4" r="2" fill="#d62728"/>
<polygon points="506.0,115.1 541.0,114.4 576.0,110.1 611.0,90.1 646.0,119.1 681.0,108.1 716.0,96.0 716.0,103.3 681.0,112.8 646.0,133.0 611.0,111.4 576.0,115.6 541.0,115.5 506.0,116.3" fill="#2ca02c" opacity="0.11"/>
<polyline points="506.0,115.5 541.0,114.9 576.0,112.8 611.0,103.1 646.0,125.5 681.0,112.1 716.0,97.8" fill="none" stroke="#2ca02c" stroke-width="1.6"/>
<circle cx="506.0" cy="115.5" r="2" fill="#2ca02c"/>
<circle cx="541.0" cy="114.9" r="2" fill="#2ca02c"/>
<circle cx="576.0" cy="112.8" r="2" fill="#2ca02c"/>
<circle cx="611.0" cy="103.1" r="2" fill="#2ca02c"/>
<circle cx="646.0" cy="125.5" r="2" fill="#2ca02c"/>
<circle cx="681.0" cy="112.1" r="2" fill="#2ca02c"/>
<circle cx="716.0" cy="97.8" r="2" fill="#2ca02c"/>
<polygon points="506.0,103.9 541.0,108.2 576.0,90.4 611.0,117.4 646.0,117.2 681.0,113.3 716.0,109.7 716.0,112.2 681.0,116.2 646.0,129.3 611.0,124.3 576.0,103.2 541.0,112.3 506.0,107.6" fill="#1f77b4" opacity="0.11"/>
<polyline points="506.0,106.8 541.0,111.2 576.0,97.8 611.0,120.8 646.0,124.9 681.0,115.1 716.0,111.5" fill="none" stroke="#1f77b4" stroke-width="1.6"/>
<circle cx="506.0" cy="106.8" r="2" fill="#1f77b4"/>
<circle cx="541.0" cy="111.2" r="2" fill="#1f77b4"/>
<circle cx="576.0" cy="97.8" r="2" fill="#1f77b4"/>
<circle cx="611.0" cy="120.8" r="2" fill="#1f77b4"/>
<circle cx="646.0" cy="124.9" r="2" fill="#1f77b4"/>
<circle cx="681.0" cy="115.1" r="2" fill="#1f77b4"/>
<circle cx="716.0" cy="111.5" r="2" fill="#1f77b4"/>
<text x="611.0" y="55" text-anchor="middle" font-size="12" font-weight="bold">zgemvC</text>
<line x1="506.0" y1="60" x2="506.0" y2="198" stroke="#f4f4f4"/>
<text x="506.0" y="209" text-anchor="middle" font-size="8" fill="#999">64</text>
<line x1="541.0" y1="60" x2="541.0" y2="198" stroke="#f4f4f4"/>
<text x="541.0" y="209" text-anchor="middle" font-size="8" fill="#999">128</text>
<line x1="576.0" y1="60" x2="576.0" y2="198" stroke="#f4f4f4"/>
<text x="576.0" y="209" text-anchor="middle" font-size="8" fill="#999">256</text>
<line x1="611.0" y1="60" x2="611.0" y2="198" stroke="#f4f4f4"/>
<text x="611.0" y="209" text-anchor="middle" font-size="8" fill="#999">512</text>
<line x1="646.0" y1="60" x2="646.0" y2="198" stroke="#f4f4f4"/>
<text x="646.0" y="209" text-anchor="middle" font-size="8" fill="#999">1k</text>
<line x1="681.0" y1="60" x2="681.0" y2="198" stroke="#f4f4f4"/>
<text x="681.0" y="209" text-anchor="middle" font-size="8" fill="#999">2k</text>
<line x1="716.0" y1="60" x2="716.0" y2="198" stroke="#f4f4f4"/>
<text x="716.0" y="209" text-anchor="middle" font-size="8" fill="#999">4k</text>
<rect x="736" y="60" width="210" height="138" fill="none" stroke="#e2e2e2"/>
<line x1="736" y1="119.3716124140152" x2="946" y2="119.3716124140152" stroke="#d33" stroke-dasharray="4 3"/>
<text x="732" y="201.0" text-anchor="end" font-size="9" fill="#999">0.5×</text>
<text x="732" y="122.3716124140152" text-anchor="end" font-size="9" fill="#999">1.0×</text>
<polygon points="736.0,68.7 771.0,71.3 806.0,76.7 841.0,80.8 876.0,82.8 911.0,113.5 946.0,117.6 946.0,119.9 911.0,115.6 876.0,96.8 841.0,85.5 806.0,80.1 771.0,73.6 736.0,71.0" fill="#d62728" opacity="0.11"/>
<polyline points="736.0,69.9 771.0,72.7 806.0,78.2 841.0,82.0 876.0,87.4 911.0,114.7 946.0,118.7" fill="none" stroke="#d62728" stroke-width="1.6"/>
<circle cx="736.0" cy="69.9" r="2" fill="#d62728"/>
<circle cx="771.0" cy="72.7" r="2" fill="#d62728"/>
<circle cx="806.0" cy="78.2" r="2" fill="#d62728"/>
<circle cx="841.0" cy="82.0" r="2" fill="#d62728"/>
<circle cx="876.0" cy="87.4" r="2" fill="#d62728"/>
<circle cx="911.0" cy="114.7" r="2" fill="#d62728"/>
<circle cx="946.0" cy="118.7" r="2" fill="#d62728"/>
<polygon points="736.0,108.7 771.0,108.2 806.0,114.8 841.0,114.9 876.0,116.4 911.0,122.7 946.0,123.8 946.0,127.1 911.0,126.5 876.0,123.2 841.0,119.2 806.0,118.2 771.0,110.4 736.0,113.1" fill="#2ca02c" opacity="0.11"/>
<polyline points="736.0,110.7 771.0,109.3 806.0,116.0 841.0,116.9 876.0,121.2 911.0,125.3 946.0,125.3" fill="none" stroke="#2ca02c" stroke-width="1.6"/>
<circle cx="736.0" cy="110.7" r="2" fill="#2ca02c"/>
<circle cx="771.0" cy="109.3" r="2" fill="#2ca02c"/>
<circle cx="806.0" cy="116.0" r="2" fill="#2ca02c"/>
<circle cx="841.0" cy="116.9" r="2" fill="#2ca02c"/>
<circle cx="876.0" cy="121.2" r="2" fill="#2ca02c"/>
<circle cx="911.0" cy="125.3" r="2" fill="#2ca02c"/>
<circle cx="946.0" cy="125.3" r="2" fill="#2ca02c"/>
<polygon points="736.0,98.3 771.0,104.1 806.0,78.2 841.0,72.4 876.0,113.9 911.0,120.0 946.0,121.5 946.0,122.3 911.0,123.9 876.0,150.6 841.0,163.9 806.0,116.3 771.0,114.0 736.0,104.3" fill="#1f77b4" opacity="0.11"/>
<polyline points="736.0,99.8 771.0,106.6 806.0,108.9 841.0,111.9 876.0,132.1 911.0,122.3 946.0,121.9" fill="none" stroke="#1f77b4" stroke-width="1.6"/>
<circle cx="736.0" cy="99.8" r="2" fill="#1f77b4"/>
<circle cx="771.0" cy="106.6" r="2" fill="#1f77b4"/>
<circle cx="806.0" cy="108.9" r="2" fill="#1f77b4"/>
<circle cx="841.0" cy="111.9" r="2" fill="#1f77b4"/>
<circle cx="876.0" cy="132.1" r="2" fill="#1f77b4"/>
<circle cx="911.0" cy="122.3" r="2" fill="#1f77b4"/>
<circle cx="946.0" cy="121.9" r="2" fill="#1f77b4"/>
<text x="841.0" y="55" text-anchor="middle" font-size="12" font-weight="bold">zgeru</text>
<line x1="736.0" y1="60" x2="736.0" y2="198" stroke="#f4f4f4"/>
<text x="736.0" y="209" text-anchor="middle" font-size="8" fill="#999">64</text>
<line x1="771.0" y1="60" x2="771.0" y2="198" stroke="#f4f4f4"/>
<text x="771.0" y="209" text-anchor="middle" font-size="8" fill="#999">128</text>
<line x1="806.0" y1="60" x2="806.0" y2="198" stroke="#f4f4f4"/>
<text x="806.0" y="209" text-anchor="middle" font-size="8" fill="#999">256</text>
<line x1="841.0" y1="60" x2="841.0" y2="198" stroke="#f4f4f4"/>
<text x="841.0" y="209" text-anchor="middle" font-size="8" fill="#999">512</text>
<line x1="876.0" y1="60" x2="876.0" y2="198" stroke="#f4f4f4"/>
<text x="876.0" y="209" text-anchor="middle" font-size="8" fill="#999">1k</text>
<line x1="911.0" y1="60" x2="911.0" y2="198" stroke="#f4f4f4"/>
<text x="911.0" y="209" text-anchor="middle" font-size="8" fill="#999">2k</text>
<line x1="946.0" y1="60" x2="946.0" y2="198" stroke="#f4f4f4"/>
<text x="946.0" y="209" text-anchor="middle" font-size="8" fill="#999">4k</text>
<rect x="46" y="232" width="210" height="138" fill="none" stroke="#e2e2e2"/>
<line x1="46" y1="319.67315166575565" x2="256" y2="319.67315166575565" stroke="#d33" stroke-dasharray="4 3"/>
<text x="42" y="373.0" text-anchor="end" font-size="9" fill="#999">0.5×</text>
<text x="42" y="322.67315166575565" text-anchor="end" font-size="9" fill="#999">1.0×</text>
<polygon points="46.0,300.1 81.0,306.9 116.0,315.5 151.0,317.1 186.0,319.3 221.0,324.1 256.0,323.4 256.0,328.3 221.0,325.8 186.0,321.3 151.0,319.6 116.0,318.5 81.0,308.1 46.0,301.2" fill="#d62728" opacity="0.11"/>
<polyline points="46.0,300.6 81.0,307.3 116.0,316.5 151.0,318.8 186.0,320.2 221.0,325.1 256.0,325.8" fill="none" stroke="#d62728" stroke-width="1.6"/>
<circle cx="46.0" cy="300.6" r="2" fill="#d62728"/>
<circle cx="81.0" cy="307.3" r="2" fill="#d62728"/>
<circle cx="116.0" cy="316.5" r="2" fill="#d62728"/>
<circle cx="151.0" cy="318.8" r="2" fill="#d62728"/>
<circle cx="186.0" cy="320.2" r="2" fill="#d62728"/>
<circle cx="221.0" cy="325.1" r="2" fill="#d62728"/>
<circle cx="256.0" cy="325.8" r="2" fill="#d62728"/>
<polygon points="46.0,275.6 81.0,265.4 116.0,255.8 151.0,253.9 186.0,252.3 221.0,249.1 256.0,249.0 256.0,253.0 221.0,250.3 186.0,254.8 151.0,256.3 116.0,259.1 81.0,266.0 46.0,276.5" fill="#2ca02c" opacity="0.11"/>
<polyline points="46.0,276.2 81.0,265.7 116.0,257.9 151.0,255.3 186.0,253.5 221.0,250.0 256.0,252.3" fill="none" stroke="#2ca02c" stroke-width="1.6"/>
<circle cx="46.0" cy="276.2" r="2" fill="#2ca02c"/>
<circle cx="81.0" cy="265.7" r="2" fill="#2ca02c"/>
<circle cx="116.0" cy="257.9" r="2" fill="#2ca02c"/>
<circle cx="151.0" cy="255.3" r="2" fill="#2ca02c"/>
<circle cx="186.0" cy="253.5" r="2" fill="#2ca02c"/>
<circle cx="221.0" cy="250.0" r="2" fill="#2ca02c"/>
<circle cx="256.0" cy="252.3" r="2" fill="#2ca02c"/>
<polygon points="46.0,272.5 81.0,256.9 116.0,243.1 151.0,239.0 186.0,237.6 221.0,259.4 256.0,254.1 256.0,263.2 221.0,264.3 186.0,241.2 151.0,240.1 116.0,251.8 81.0,258.5 46.0,273.6" fill="#1f77b4" opacity="0.11"/>
<polyline points="46.0,273.0 81.0,257.9 116.0,246.1 151.0,239.6 186.0,238.9 221.0,263.7 256.0,262.9" fill="none" stroke="#1f77b4" stroke-width="1.6"/>
<circle cx="46.0" cy="273.0" r="2" fill="#1f77b4"/>
<circle cx="81.0" cy="257.9" r="2" fill="#1f77b4"/>
<circle cx="116.0" cy="246.1" r="2" fill="#1f77b4"/>
<circle cx="151.0" cy="239.6" r="2" fill="#1f77b4"/>
<circle cx="186.0" cy="238.9" r="2" fill="#1f77b4"/>
<circle cx="221.0" cy="263.7" r="2" fill="#1f77b4"/>
<circle cx="256.0" cy="262.9" r="2" fill="#1f77b4"/>
<text x="151.0" y="227" text-anchor="middle" font-size="12" font-weight="bold">zhemv</text>
<line x1="46.0" y1="232" x2="46.0" y2="370" stroke="#f4f4f4"/>
<text x="46.0" y="381" text-anchor="middle" font-size="8" fill="#999">64</text>
<line x1="81.0" y1="232" x2="81.0" y2="370" stroke="#f4f4f4"/>
<text x="81.0" y="381" text-anchor="middle" font-size="8" fill="#999">128</text>
<line x1="116.0" y1="232" x2="116.0" y2="370" stroke="#f4f4f4"/>
<text x="116.0" y="381" text-anchor="middle" font-size="8" fill="#999">256</text>
<line x1="151.0" y1="232" x2="151.0" y2="370" stroke="#f4f4f4"/>
<text x="151.0" y="381" text-anchor="middle" font-size="8" fill="#999">512</text>
<line x1="186.0" y1="232" x2="186.0" y2="370" stroke="#f4f4f4"/>
<text x="186.0" y="381" text-anchor="middle" font-size="8" fill="#999">1k</text>
<line x1="221.0" y1="232" x2="221.0" y2="370" stroke="#f4f4f4"/>
<text x="221.0" y="381" text-anchor="middle" font-size="8" fill="#999">2k</text>
<line x1="256.0" y1="232" x2="256.0" y2="370" stroke="#f4f4f4"/>
<text x="256.0" y="381" text-anchor="middle" font-size="8" fill="#999">4k</text>
<rect x="276" y="232" width="210" height="138" fill="none" stroke="#e2e2e2"/>
<line x1="276" y1="307.88740548559633" x2="486" y2="307.88740548559633" stroke="#d33" stroke-dasharray="4 3"/>
<text x="272" y="373.0" text-anchor="end" font-size="9" fill="#999">0.5×</text>
<text x="272" y="310.88740548559633" text-anchor="end" font-size="9" fill="#999">1.0×</text>
<text x="272" y="235.08954582438196" text-anchor="end" font-size="9" fill="#999">2.33×</text>
<polygon points="276.0,238.9 311.0,246.0 346.0,275.1 381.0,263.0 416.0,258.3 451.0,249.7 486.0,270.8 486.0,274.0 451.0,253.3 416.0,260.7 381.0,267.9 346.0,279.9 311.0,248.6 276.0,244.5" fill="#d62728" opacity="0.11"/>
<polyline points="276.0,239.9 311.0,247.7 346.0,278.3 381.0,265.3 416.0,259.8 451.0,252.5 486.0,271.3" fill="none" stroke="#d62728" stroke-width="1.6"/>
<circle cx="276.0" cy="239.9" r="2" fill="#d62728"/>
<circle cx="311.0" cy="247.7" r="2" fill="#d62728"/>
<circle cx="346.0" cy="278.3" r="2" fill="#d62728"/>
<circle cx="381.0" cy="265.3" r="2" fill="#d62728"/>
<circle cx="416.0" cy="259.8" r="2" fill="#d62728"/>
<circle cx="451.0" cy="252.5" r="2" fill="#d62728"/>
<circle cx="486.0" cy="271.3" r="2" fill="#d62728"/>
<polygon points="276.0,260.9 311.0,263.7 346.0,279.8 381.0,297.0 416.0,298.1 451.0,274.6 486.0,273.3 486.0,276.4 451.0,280.3 416.0,308.0 381.0,305.2 346.0,284.0 311.0,266.0 276.0,267.7" fill="#2ca02c" opacity="0.11"/>
<polyline points="276.0,262.6 311.0,264.6 346.0,282.3 381.0,301.3 416.0,300.2 451.0,277.6 486.0,275.3" fill="none" stroke="#2ca02c" stroke-width="1.6"/>
<circle cx="276.0" cy="262.6" r="2" fill="#2ca02c"/>
<circle cx="311.0" cy="264.6" r="2" fill="#2ca02c"/>
<circle cx="346.0" cy="282.3" r="2" fill="#2ca02c"/>
<circle cx="381.0" cy="301.3" r="2" fill="#2ca02c"/>
<circle cx="416.0" cy="300.2" r="2" fill="#2ca02c"/>
<circle cx="451.0" cy="277.6" r="2" fill="#2ca02c"/>
<circle cx="486.0" cy="275.3" r="2" fill="#2ca02c"/>
<polygon points="276.0,256.7 311.0,266.8 346.0,281.8 381.0,291.9 416.0,290.3 451.0,266.6 486.0,265.6 486.0,268.6 451.0,271.1 416.0,325.4 381.0,301.6 346.0,289.6 311.0,275.7 276.0,262.9" fill="#1f77b4" opacity="0.11"/>
<polyline points="276.0,257.6 311.0,268.4 346.0,286.2 381.0,299.6 416.0,305.4 451.0,269.8 486.0,267.2" fill="none" stroke="#1f77b4" stroke-width="1.6"/>
<circle cx="276.0" cy="257.6" r="2" fill="#1f77b4"/>
<circle cx="311.0" cy="268.4" r="2" fill="#1f77b4"/>
<circle cx="346.0" cy="286.2" r="2" fill="#1f77b4"/>
<circle cx="381.0" cy="299.6" r="2" fill="#1f77b4"/>
<circle cx="416.0" cy="305.4" r="2" fill="#1f77b4"/>
<circle cx="451.0" cy="269.8" r="2" fill="#1f77b4"/>
<circle cx="486.0" cy="267.2" r="2" fill="#1f77b4"/>
<text x="381.0" y="227" text-anchor="middle" font-size="12" font-weight="bold">ztrmv</text>
<line x1="276.0" y1="232" x2="276.0" y2="370" stroke="#f4f4f4"/>
<text x="276.0" y="381" text-anchor="middle" font-size="8" fill="#999">64</text>
<line x1="311.0" y1="232" x2="311.0" y2="370" stroke="#f4f4f4"/>
<text x="311.0" y="381" text-anchor="middle" font-size="8" fill="#999">128</text>
<line x1="346.0" y1="232" x2="346.0" y2="370" stroke="#f4f4f4"/>
<text x="346.0" y="381" text-anchor="middle" font-size="8" fill="#999">256</text>
<line x1="381.0" y1="232" x2="381.0" y2="370" stroke="#f4f4f4"/>
<text x="381.0" y="381" text-anchor="middle" font-size="8" fill="#999">512</text>
<line x1="416.0" y1="232" x2="416.0" y2="370" stroke="#f4f4f4"/>
<text x="416.0" y="381" text-anchor="middle" font-size="8" fill="#999">1k</text>
<line x1="451.0" y1="232" x2="451.0" y2="370" stroke="#f4f4f4"/>
<text x="451.0" y="381" text-anchor="middle" font-size="8" fill="#999">2k</text>
<line x1="486.0" y1="232" x2="486.0" y2="370" stroke="#f4f4f4"/>
<text x="486.0" y="381" text-anchor="middle" font-size="8" fill="#999">4k</text>
<rect x="506" y="232" width="210" height="138" fill="none" stroke="#e2e2e2"/>
<line x1="506" y1="291.01784845627003" x2="716" y2="291.01784845627003" stroke="#d33" stroke-dasharray="4 3"/>
<text x="502" y="373.0" text-anchor="end" font-size="9" fill="#999">0.5×</text>
<text x="502" y="294.01784845627003" text-anchor="end" font-size="9" fill="#999">1.0×</text>
<polygon points="506.0,240.8 541.0,255.0 576.0,282.2 611.0,266.9 646.0,267.3 681.0,280.8 716.0,287.9 716.0,290.5 681.0,284.2 646.0,270.1 611.0,271.3 576.0,285.2 541.0,261.7 506.0,241.6" fill="#d62728" opacity="0.11"/>
<polyline points="506.0,241.2 541.0,257.1 576.0,283.7 611.0,268.3 646.0,268.8 681.0,282.6 716.0,288.9" fill="none" stroke="#d62728" stroke-width="1.6"/>
<circle cx="506.0" cy="241.2" r="2" fill="#d62728"/>
<circle cx="541.0" cy="257.1" r="2" fill="#d62728"/>
<circle cx="576.0" cy="283.7" r="2" fill="#d62728"/>
<circle cx="611.0" cy="268.3" r="2" fill="#d62728"/>
<circle cx="646.0" cy="268.8" r="2" fill="#d62728"/>
<circle cx="681.0" cy="282.6" r="2" fill="#d62728"/>
<circle cx="716.0" cy="288.9" r="2" fill="#d62728"/>
<polygon points="506.0,252.4 541.0,251.7 576.0,254.5 611.0,270.3 646.0,278.9 681.0,273.2 716.0,275.4 716.0,279.4 681.0,280.7 646.0,287.6 611.0,272.3 576.0,257.9 541.0,253.4 506.0,253.7" fill="#2ca02c" opacity="0.11"/>
<polyline points="506.0,252.8 541.0,252.6 576.0,256.4 611.0,271.4 646.0,282.2 681.0,276.1 716.0,276.4" fill="none" stroke="#2ca02c" stroke-width="1.6"/>
<circle cx="506.0" cy="252.8" r="2" fill="#2ca02c"/>
<circle cx="541.0" cy="252.6" r="2" fill="#2ca02c"/>
<circle cx="576.0" cy="256.4" r="2" fill="#2ca02c"/>
<circle cx="611.0" cy="271.4" r="2" fill="#2ca02c"/>
<circle cx="646.0" cy="282.2" r="2" fill="#2ca02c"/>
<circle cx="681.0" cy="276.1" r="2" fill="#2ca02c"/>
<circle cx="716.0" cy="276.4" r="2" fill="#2ca02c"/>
<polygon points="506.0,242.6 541.0,248.0 576.0,250.3 611.0,265.5 646.0,277.8 681.0,286.0 716.0,279.8 716.0,285.5 681.0,287.8 646.0,297.3 611.0,273.8 576.0,257.1 541.0,252.4 506.0,245.8" fill="#1f77b4" opacity="0.11"/>
<polyline points="506.0,244.4 541.0,251.2 576.0,253.3 611.0,269.5 646.0,287.1 681.0,287.4 716.0,283.6" fill="none" stroke="#1f77b4" stroke-width="1.6"/>
<circle cx="506.0" cy="244.4" r="2" fill="#1f77b4"/>
<circle cx="541.0" cy="251.2" r="2" fill="#1f77b4"/>
<circle cx="576.0" cy="253.3" r="2" fill="#1f77b4"/>
<circle cx="611.0" cy="269.5" r="2" fill="#1f77b4"/>
<circle cx="646.0" cy="287.1" r="2" fill="#1f77b4"/>
<circle cx="681.0" cy="287.4" r="2" fill="#1f77b4"/>
<circle cx="716.0" cy="283.6" r="2" fill="#1f77b4"/>
<text x="611.0" y="227" text-anchor="middle" font-size="12" font-weight="bold">ztrsv</text>
<line x1="506.0" y1="232" x2="506.0" y2="370" stroke="#f4f4f4"/>
<text x="506.0" y="381" text-anchor="middle" font-size="8" fill="#999">64</text>
<line x1="541.0" y1="232" x2="541.0" y2="370" stroke="#f4f4f4"/>
<text x="541.0" y="381" text-anchor="middle" font-size="8" fill="#999">128</text>
<line x1="576.0" y1="232" x2="576.0" y2="370" stroke="#f4f4f4"/>
<text x="576.0" y="381" text-anchor="middle" font-size="8" fill="#999">256</text>
<line x1="611.0" y1="232" x2="611.0" y2="370" stroke="#f4f4f4"/>
<text x="611.0" y="381" text-anchor="middle" font-size="8" fill="#999">512</text>
<line x1="646.0" y1="232" x2="646.0" y2="370" stroke="#f4f4f4"/>
<text x="646.0" y="381" text-anchor="middle" font-size="8" fill="#999">1k</text>
<line x1="681.0" y1="232" x2="681.0" y2="370" stroke="#f4f4f4"/>
<text x="681.0" y="381" text-anchor="middle" font-size="8" fill="#999">2k</text>
<line x1="716.0" y1="232" x2="716.0" y2="370" stroke="#f4f4f4"/>
<text x="716.0" y="381" text-anchor="middle" font-size="8" fill="#999">4k</text>
<rect x="736" y="232" width="210" height="138" fill="none" stroke="#e2e2e2"/>
<line x1="736" y1="339.9230179413843" x2="946" y2="339.9230179413843" stroke="#d33" stroke-dasharray="4 3"/>
<text x="732" y="373.0" text-anchor="end" font-size="9" fill="#999">0.5×</text>
<text x="732" y="342.9230179413843" text-anchor="end" font-size="9" fill="#999">1.0×</text>
<polygon points="736.0,235.3 771.0,260.5 806.0,254.1 841.0,250.9 876.0,251.3 911.0,260.3 946.0,268.4 946.0,268.8 911.0,266.6 876.0,251.8 841.0,251.5 806.0,254.9 771.0,260.9 736.0,272.6" fill="#d62728" opacity="0.11"/>
<polyline points="736.0,271.9 771.0,260.7 806.0,254.3 841.0,251.0 876.0,251.5 911.0,260.7 946.0,268.4" fill="none" stroke="#d62728" stroke-width="1.6"/>
<circle cx="736.0" cy="271.9" r="2" fill="#d62728"/>
<circle cx="771.0" cy="260.7" r="2" fill="#d62728"/>
<circle cx="806.0" cy="254.3" r="2" fill="#d62728"/>
<circle cx="841.0" cy="251.0" r="2" fill="#d62728"/>
<circle cx="876.0" cy="251.5" r="2" fill="#d62728"/>
<circle cx="911.0" cy="260.7" r="2" fill="#d62728"/>
<circle cx="946.0" cy="268.4" r="2" fill="#d62728"/>
<polygon points="736.0,272.0 771.0,255.9 806.0,246.2 841.0,241.0 876.0,238.6 911.0,256.9 946.0,261.4 946.0,263.2 911.0,258.1 876.0,239.3 841.0,241.4 806.0,247.1 771.0,256.3 736.0,274.2" fill="#2ca02c" opacity="0.11"/>
<polyline points="736.0,272.3 771.0,256.1 806.0,246.8 841.0,241.2 876.0,238.9 911.0,257.7 946.0,261.6" fill="none" stroke="#2ca02c" stroke-width="1.6"/>
<circle cx="736.0" cy="272.3" r="2" fill="#2ca02c"/>
<circle cx="771.0" cy="256.1" r="2" fill="#2ca02c"/>
<circle cx="806.0" cy="246.8" r="2" fill="#2ca02c"/>
<circle cx="841.0" cy="241.2" r="2" fill="#2ca02c"/>
<circle cx="876.0" cy="238.9" r="2" fill="#2ca02c"/>
<circle cx="911.0" cy="257.7" r="2" fill="#2ca02c"/>
<circle cx="946.0" cy="261.6" r="2" fill="#2ca02c"/>
<polygon points="736.0,273.2 771.0,259.2 806.0,249.1 841.0,244.4 876.0,249.9 911.0,276.4 946.0,281.3 946.0,281.5 911.0,277.2 876.0,250.8 841.0,245.5 806.0,273.1 771.0,260.8 736.0,274.2" fill="#1f77b4" opacity="0.11"/>
<polyline points="736.0,273.6 771.0,259.3 806.0,249.7 841.0,244.7 876.0,250.1 911.0,276.6 946.0,281.4" fill="none" stroke="#1f77b4" stroke-width="1.6"/>
<circle cx="736.0" cy="273.6" r="2" fill="#1f77b4"/>
<circle cx="771.0" cy="259.3" r="2" fill="#1f77b4"/>
<circle cx="806.0" cy="249.7" r="2" fill="#1f77b4"/>
<circle cx="841.0" cy="244.7" r="2" fill="#1f77b4"/>
<circle cx="876.0" cy="250.1" r="2" fill="#1f77b4"/>
<circle cx="911.0" cy="276.6" r="2" fill="#1f77b4"/>
<circle cx="946.0" cy="281.4" r="2" fill="#1f77b4"/>
<text x="841.0" y="227" text-anchor="middle" font-size="12" font-weight="bold">zhpmv</text>
<line x1="736.0" y1="232" x2="736.0" y2="370" stroke="#f4f4f4"/>
<text x="736.0" y="381" text-anchor="middle" font-size="8" fill="#999">64</text>
<line x1="771.0" y1="232" x2="771.0" y2="370" stroke="#f4f4f4"/>
<text x="771.0" y="381" text-anchor="middle" font-size="8" fill="#999">128</text>
<line x1="806.0" y1="232" x2="806.0" y2="370" stroke="#f4f4f4"/>
<text x="806.0" y="381" text-anchor="middle" font-size="8" fill="#999">256</text>
<line x1="841.0" y1="232" x2="841.0" y2="370" stroke="#f4f4f4"/>
<text x="841.0" y="381" text-anchor="middle" font-size="8" fill="#999">512</text>
<line x1="876.0" y1="232" x2="876.0" y2="370" stroke="#f4f4f4"/>
<text x="876.0" y="381" text-anchor="middle" font-size="8" fill="#999">1k</text>
<line x1="911.0" y1="232" x2="911.0" y2="370" stroke="#f4f4f4"/>
<text x="911.0" y="381" text-anchor="middle" font-size="8" fill="#999">2k</text>
<line x1="946.0" y1="232" x2="946.0" y2="370" stroke="#f4f4f4"/>
<text x="946.0" y="381" text-anchor="middle" font-size="8" fill="#999">4k</text>
<rect x="46" y="404" width="210" height="138" fill="none" stroke="#e2e2e2"/>
<line x1="46" y1="485.48567813862394" x2="256" y2="485.48567813862394" stroke="#d33" stroke-dasharray="4 3"/>
<text x="42" y="545.0" text-anchor="end" font-size="9" fill="#999">0.5×</text>
<text x="42" y="488.48567813862394" text-anchor="end" font-size="9" fill="#999">1.0×</text>
<polygon points="46.0,421.3 81.0,422.4 116.0,423.7 151.0,424.1 186.0,427.0 221.0,427.3 256.0,427.4 256.0,429.1 221.0,429.3 186.0,430.2 151.0,426.2 116.0,425.8 81.0,429.6 46.0,429.4" fill="#d62728" opacity="0.11"/>
<polyline points="46.0,422.4 81.0,425.3 116.0,424.5 151.0,424.8 186.0,428.9 221.0,428.3 256.0,428.3" fill="none" stroke="#d62728" stroke-width="1.6"/>
<circle cx="46.0" cy="422.4" r="2" fill="#d62728"/>
<circle cx="81.0" cy="425.3" r="2" fill="#d62728"/>
<circle cx="116.0" cy="424.5" r="2" fill="#d62728"/>
<circle cx="151.0" cy="424.8" r="2" fill="#d62728"/>
<circle cx="186.0" cy="428.9" r="2" fill="#d62728"/>
<circle cx="221.0" cy="428.3" r="2" fill="#d62728"/>
<circle cx="256.0" cy="428.3" r="2" fill="#d62728"/>
<polygon points="46.0,412.3 81.0,410.3 116.0,412.6 151.0,413.2 186.0,413.4 221.0,414.5 256.0,415.2 256.0,416.1 221.0,415.9 186.0,414.8 151.0,414.1 116.0,414.7 81.0,416.7 46.0,418.7" fill="#2ca02c" opacity="0.11"/>
<polyline points="46.0,413.0 81.0,413.5 116.0,413.8 151.0,413.7 186.0,413.9 221.0,415.1 256.0,415.6" fill="none" stroke="#2ca02c" stroke-width="1.6"/>
<circle cx="46.0" cy="413.0" r="2" fill="#2ca02c"/>
<circle cx="81.0" cy="413.5" r="2" fill="#2ca02c"/>
<circle cx="116.0" cy="413.8" r="2" fill="#2ca02c"/>
<circle cx="151.0" cy="413.7" r="2" fill="#2ca02c"/>
<circle cx="186.0" cy="413.9" r="2" fill="#2ca02c"/>
<circle cx="221.0" cy="415.1" r="2" fill="#2ca02c"/>
<circle cx="256.0" cy="415.6" r="2" fill="#2ca02c"/>
<polygon points="46.0,429.3 81.0,429.5 116.0,431.2 151.0,432.5 186.0,432.8 221.0,434.4 256.0,434.6 256.0,436.1 221.0,436.2 186.0,434.9 151.0,434.8 116.0,433.9 81.0,436.4 46.0,439.3" fill="#1f77b4" opacity="0.11"/>
<polyline points="46.0,430.1 81.0,431.9 116.0,432.6 151.0,433.5 186.0,433.9 221.0,435.3 256.0,435.3" fill="none" stroke="#1f77b4" stroke-width="1.6"/>
<circle cx="46.0" cy="430.1" r="2" fill="#1f77b4"/>
<circle cx="81.0" cy="431.9" r="2" fill="#1f77b4"/>
<circle cx="116.0" cy="432.6" r="2" fill="#1f77b4"/>
<circle cx="151.0" cy="433.5" r="2" fill="#1f77b4"/>
<circle cx="186.0" cy="433.9" r="2" fill="#1f77b4"/>
<circle cx="221.0" cy="435.3" r="2" fill="#1f77b4"/>
<circle cx="256.0" cy="435.3" r="2" fill="#1f77b4"/>
<text x="151.0" y="399" text-anchor="middle" font-size="12" font-weight="bold">zgbmvN</text>
<line x1="46.0" y1="404" x2="46.0" y2="542" stroke="#f4f4f4"/>
<text x="46.0" y="553" text-anchor="middle" font-size="8" fill="#999">64</text>
<line x1="81.0" y1="404" x2="81.0" y2="542" stroke="#f4f4f4"/>
<text x="81.0" y="553" text-anchor="middle" font-size="8" fill="#999">128</text>
<line x1="116.0" y1="404" x2="116.0" y2="542" stroke="#f4f4f4"/>
<text x="116.0" y="553" text-anchor="middle" font-size="8" fill="#999">256</text>
<line x1="151.0" y1="404" x2="151.0" y2="542" stroke="#f4f4f4"/>
<text x="151.0" y="553" text-anchor="middle" font-size="8" fill="#999">512</text>
<line x1="186.0" y1="404" x2="186.0" y2="542" stroke="#f4f4f4"/>
<text x="186.0" y="553" text-anchor="middle" font-size="8" fill="#999">1k</text>
<line x1="221.0" y1="404" x2="221.0" y2="542" stroke="#f4f4f4"/>
<text x="221.0" y="553" text-anchor="middle" font-size="8" fill="#999">2k</text>
<line x1="256.0" y1="404" x2="256.0" y2="542" stroke="#f4f4f4"/>
<text x="256.0" y="553" text-anchor="middle" font-size="8" fill="#999">4k</text>
<rect x="276" y="404" width="210" height="138" fill="none" stroke="#e2e2e2"/>
<line x1="276" y1="489.3955201613749" x2="486" y2="489.3955201613749" stroke="#d33" stroke-dasharray="4 3"/>
<text x="272" y="545.0" text-anchor="end" font-size="9" fill="#999">0.5×</text>
<text x="272" y="492.3955201613749" text-anchor="end" font-size="9" fill="#999">1.0×</text>
<text x="272" y="407.0221132369018" text-anchor="end" font-size="9" fill="#999">3.08×</text>
<polygon points="276.0,414.7 311.0,411.7 346.0,410.0 381.0,410.1 416.0,409.8 451.0,410.2 486.0,410.3 486.0,410.9 451.0,410.9 416.0,410.5 381.0,411.0 346.0,411.7 311.0,414.2 276.0,418.3" fill="#d62728" opacity="0.11"/>
<polyline points="276.0,415.3 311.0,412.7 346.0,410.8 381.0,410.4 416.0,410.1 451.0,410.6 486.0,410.5" fill="none" stroke="#d62728" stroke-width="1.6"/>
<circle cx="276.0" cy="415.3" r="2" fill="#d62728"/>
<circle cx="311.0" cy="412.7" r="2" fill="#d62728"/>
<circle cx="346.0" cy="410.8" r="2" fill="#d62728"/>
<circle cx="381.0" cy="410.4" r="2" fill="#d62728"/>
<circle cx="416.0" cy="410.1" r="2" fill="#d62728"/>
<circle cx="451.0" cy="410.6" r="2" fill="#d62728"/>
<circle cx="486.0" cy="410.5" r="2" fill="#d62728"/>
<polygon points="276.0,426.6 311.0,423.4 346.0,422.9 381.0,421.7 416.0,421.8 451.0,421.9 486.0,422.1 486.0,422.5 451.0,422.4 416.0,422.3 381.0,422.7 346.0,423.8 311.0,425.1 276.0,429.4" fill="#2ca02c" opacity="0.11"/>
<polyline points="276.0,427.1 311.0,424.6 346.0,423.2 381.0,422.2 416.0,422.0 451.0,422.0 486.0,422.2" fill="none" stroke="#2ca02c" stroke-width="1.6"/>
<circle cx="276.0" cy="427.1" r="2" fill="#2ca02c"/>
<circle cx="311.0" cy="424.6" r="2" fill="#2ca02c"/>
<circle cx="346.0" cy="423.2" r="2" fill="#2ca02c"/>
<circle cx="381.0" cy="422.2" r="2" fill="#2ca02c"/>
<circle cx="416.0" cy="422.0" r="2" fill="#2ca02c"/>
<circle cx="451.0" cy="422.0" r="2" fill="#2ca02c"/>
<circle cx="486.0" cy="422.2" r="2" fill="#2ca02c"/>
<polygon points="276.0,424.3 311.0,420.8 346.0,420.7 381.0,419.9 416.0,419.9 451.0,420.0 486.0,420.3 486.0,423.0 451.0,421.0 416.0,421.5 381.0,421.9 346.0,424.0 311.0,424.2 276.0,427.8" fill="#1f77b4" opacity="0.11"/>
<polyline points="276.0,425.0 311.0,422.0 346.0,421.3 381.0,420.4 416.0,420.4 451.0,420.3 486.0,420.6" fill="none" stroke="#1f77b4" stroke-width="1.6"/>
<circle cx="276.0" cy="425.0" r="2" fill="#1f77b4"/>
<circle cx="311.0" cy="422.0" r="2" fill="#1f77b4"/>
<circle cx="346.0" cy="421.3" r="2" fill="#1f77b4"/>
<circle cx="381.0" cy="420.4" r="2" fill="#1f77b4"/>
<circle cx="416.0" cy="420.4" r="2" fill="#1f77b4"/>
<circle cx="451.0" cy="420.3" r="2" fill="#1f77b4"/>
<circle cx="486.0" cy="420.6" r="2" fill="#1f77b4"/>
<text x="381.0" y="399" text-anchor="middle" font-size="12" font-weight="bold">zhbmv</text>
<line x1="276.0" y1="404" x2="276.0" y2="542" stroke="#f4f4f4"/>
<text x="276.0" y="553" text-anchor="middle" font-size="8" fill="#999">64</text>
<line x1="311.0" y1="404" x2="311.0" y2="542" stroke="#f4f4f4"/>
<text x="311.0" y="553" text-anchor="middle" font-size="8" fill="#999">128</text>
<line x1="346.0" y1="404" x2="346.0" y2="542" stroke="#f4f4f4"/>
<text x="346.0" y="553" text-anchor="middle" font-size="8" fill="#999">256</text>
<line x1="381.0" y1="404" x2="381.0" y2="542" stroke="#f4f4f4"/>
<text x="381.0" y="553" text-anchor="middle" font-size="8" fill="#999">512</text>
<line x1="416.0" y1="404" x2="416.0" y2="542" stroke="#f4f4f4"/>
<text x="416.0" y="553" text-anchor="middle" font-size="8" fill="#999">1k</text>
<line x1="451.0" y1="404" x2="451.0" y2="542" stroke="#f4f4f4"/>
<text x="451.0" y="553" text-anchor="middle" font-size="8" fill="#999">2k</text>
<line x1="486.0" y1="404" x2="486.0" y2="542" stroke="#f4f4f4"/>
<text x="486.0" y="553" text-anchor="middle" font-size="8" fill="#999">4k</text>
</svg>
