<svg xmlns="http://www.w3.org/2000/svg" width="962" height="592" font-family="sans-serif">
<rect width="962" height="592" fill="white"/>
<text x="481.0" y="26" text-anchor="middle" font-size="17" font-weight="bold">Complex BLAS-3 — PureBLAS / AOCL (PB/AOCL ratio)</text>
<line x1="46" y1="42" x2="68" y2="42" stroke="#d62728" stroke-width="3"/>
<text x="73" y="46" font-size="12">Zen3 · AVX2</text>
<line x1="176" y1="42" x2="198" y2="42" stroke="#2ca02c" stroke-width="3"/>
<text x="203" y="46" font-size="12">Zen5 · AVX-512</text>
<line x1="327" y1="42" x2="349" y2="42" stroke="#1f77b4" stroke-width="3"/>
<text x="354" y="46" font-size="12">Zen4 · AVX-512</text>
<rect x="46" y="60" width="210" height="138" fill="none" stroke="#e2e2e2"/>
<line x1="46" y1="140.4460982090432" x2="256" y2="140.4460982090432" stroke="#d33" stroke-dasharray="4 3"/>
<text x="42" y="201.0" text-anchor="end" font-size="9" fill="#999">0.5×</text>
<text x="42" y="143.4460982090432" text-anchor="end" font-size="9" fill="#999">1.0×</text>
<text x="42" y="63.15479085339126" text-anchor="end" font-size="9" fill="#999">2.63×</text>
<polygon points="46.0,71.2 106.0,150.9 166.0,125.0 196.0,121.2 226.0,120.2 256.0,121.0 256.0,121.2 226.0,120.5 196.0,121.6 166.0,125.3 106.0,153.9 46.0,86.5" fill="#d62728" opacity="0.11"/>
<polyline points="46.0,73.5 106.0,151.6 166.0,125.1 196.0,121.5 226.0,120.2 256.0,121.0" fill="none" stroke="#d62728" stroke-width="1.6"/>
<circle cx="46.0" cy="73.5" r="2" fill="#d62728"/>
<circle cx="106.0" cy="151.6" r="2" fill="#d62728"/>
<circle cx="166.0" cy="125.1" r="2" fill="#d62728"/>
<circle cx="196.0" cy="121.5" r="2" fill="#d62728"/>
<circle cx="226.0" cy="120.2" r="2" fill="#d62728"/>
<circle cx="256.0" cy="121.0" r="2" fill="#d62728"/>
<polygon points="46.0,66.4 106.0,137.0 166.0,143.6 196.0,138.8 226.0,139.6 256.0,138.6 256.0,138.9 226.0,139.8 196.0,139.1 166.0,143.8 106.0,140.5 46.0,71.3" fill="#2ca02c" opacity="0.11"/>
<polyline points="46.0,70.4 106.0,137.3 166.0,143.7 196.0,139.0 226.0,139.6 256.0,138.8" fill="none" stroke="#2ca02c" stroke-width="1.6"/>
<circle cx="46.0" cy="70.4" r="2" fill="#2ca02c"/>
<circle cx="106.0" cy="137.3" r="2" fill="#2ca02c"/>
<circle cx="166.0" cy="143.7" r="2" fill="#2ca02c"/>
<circle cx="196.0" cy="139.0" r="2" fill="#2ca02c"/>
<circle cx="226.0" cy="139.6" r="2" fill="#2ca02c"/>
<circle cx="256.0" cy="138.8" r="2" fill="#2ca02c"/>
<polygon points="46.0,83.9 106.0,135.7 166.0,142.5 196.0,137.0 226.0,139.6 256.0,139.5 256.0,139.9 226.0,140.1 196.0,138.6 166.0,143.9 106.0,140.5 46.0,89.8" fill="#1f77b4" opacity="0.11"/>
<polyline points="46.0,84.4 106.0,137.4 166.0,143.0 196.0,137.4 226.0,140.0 256.0,139.8" fill="none" stroke="#1f77b4" stroke-width="1.6"/>
<circle cx="46.0" cy="84.4" r="2" fill="#1f77b4"/>
<circle cx="106.0" cy="137.4" r="2" fill="#1f77b4"/>
<circle cx="166.0" cy="143.0" r="2" fill="#1f77b4"/>
<circle cx="196.0" cy="137.4" r="2" fill="#1f77b4"/>
<circle cx="226.0" cy="140.0" r="2" fill="#1f77b4"/>
<circle cx="256.0" cy="139.8" r="2" fill="#1f77b4"/>
<text x="151.0" y="55" text-anchor="middle" font-size="12" font-weight="bold">zgemm</text>
<line x1="46.0" y1="60" x2="46.0" y2="198" stroke="#f4f4f4"/>
<text x="46.0" y="209" text-anchor="middle" font-size="8" fill="#999">8</text>
<line x1="106.0" y1="60" x2="106.0" y2="198" stroke="#f4f4f4"/>
<text x="106.0" y="209" text-anchor="middle" font-size="8" fill="#999">32</text>
<line x1="166.0" y1="60" x2="166.0" y2="198" stroke="#f4f4f4"/>
<text x="166.0" y="209" text-anchor="middle" font-size="8" fill="#999">128</text>
<line x1="196.0" y1="60" x2="196.0" y2="198" stroke="#f4f4f4"/>
<text x="196.0" y="209" text-anchor="middle" font-size="8" fill="#999">256</text>
<line x1="226.0" y1="60" x2="226.0" y2="198" stroke="#f4f4f4"/>
<text x="226.0" y="209" text-anchor="middle" font-size="8" fill="#999">512</text>
<line x1="256.0" y1="60" x2="256.0" y2="198" stroke="#f4f4f4"/>
<text x="256.0" y="209" text-anchor="middle" font-size="8" fill="#999">1k</text>
<rect x="276" y="60" width="210" height="138" fill="none" stroke="#e2e2e2"/>
<line x1="276" y1="170.04361234862972" x2="486" y2="170.04361234862972" stroke="#d33" stroke-dasharray="4 3"/>
<text x="272" y="201.0" text-anchor="end" font-size="9" fill="#999">0.5×</text>
<text x="272" y="173.04361234862972" text-anchor="end" font-size="9" fill="#999">1.0×</text>
<polygon points="276.0,63.1 336.0,153.5 396.0,159.3 426.0,161.0 456.0,155.1 486.0,160.7 486.0,161.0 456.0,160.9 426.0,161.1 396.0,159.7 336.0,154.3 276.0,65.5" fill="#d62728" opacity="0.11"/>
<polyline points="276.0,63.5 336.0,153.9 396.0,159.7 426.0,161.0 456.0,160.9 486.0,160.9" fill="none" stroke="#d62728" stroke-width="1.6"/>
<circle cx="276.0" cy="63.5" r="2" fill="#d62728"/>
<circle cx="336.0" cy="153.9" r="2" fill="#d62728"/>
<circle cx="396.0" cy="159.7" r="2" fill="#d62728"/>
<circle cx="426.0" cy="161.0" r="2" fill="#d62728"/>
<circle cx="456.0" cy="160.9" r="2" fill="#d62728"/>
<circle cx="486.0" cy="160.9" r="2" fill="#d62728"/>
<polygon points="276.0,64.9 336.0,151.6 396.0,170.7 426.0,169.6 456.0,170.1 486.0,169.7 486.0,169.8 456.0,170.3 426.0,169.7 396.0,171.0 336.0,152.7 276.0,71.2" fill="#2ca02c" opacity="0.11"/>
<polyline points="276.0,65.1 336.0,151.9 396.0,170.8 426.0,169.7 456.0,170.1 486.0,169.7" fill="none" stroke="#2ca02c" stroke-width="1.6"/>
<circle cx="276.0" cy="65.1" r="2" fill="#2ca02c"/>
<circle cx="336.0" cy="151.9" r="2" fill="#2ca02c"/>
<circle cx="396.0" cy="170.8" r="2" fill="#2ca02c"/>
<circle cx="426.0" cy="169.7" r="2" fill="#2ca02c"/>
<circle cx="456.0" cy="170.1" r="2" fill="#2ca02c"/>
<circle cx="486.0" cy="169.7" r="2" fill="#2ca02c"/>
<polygon points="276.0,65.9 336.0,152.9 396.0,170.7 426.0,170.0 456.0,170.1 486.0,170.1 486.0,170.2 456.0,170.1 426.0,170.1 396.0,171.5 336.0,153.2 276.0,68.0" fill="#1f77b4" opacity="0.11"/>
<polyline points="276.0,66.3 336.0,153.1 396.0,170.8 426.0,170.0 456.0,170.1 486.0,170.2" fill="none" stroke="#1f77b4" stroke-width="1.6"/>
<circle cx="276.0" cy="66.3" r="2" fill="#1f77b4"/>
<circle cx="336.0" cy="153.1" r="2" fill="#1f77b4"/>
<circle cx="396.0" cy="170.8" r="2" fill="#1f77b4"/>
<circle cx="426.0" cy="170.0" r="2" fill="#1f77b4"/>
<circle cx="456.0" cy="170.1" r="2" fill="#1f77b4"/>
<circle cx="486.0" cy="170.2" r="2" fill="#1f77b4"/>
<text x="381.0" y="55" text-anchor="middle" font-size="12" font-weight="bold">zhemm</text>
<line x1="276.0" y1="60" x2="276.0" y2="198" stroke="#f4f4f4"/>
<text x="276.0" y="209" text-anchor="middle" font-size="8" fill="#999">8</text>
<line x1="336.0" y1="60" x2="336.0" y2="198" stroke="#f4f4f4"/>
<text x="336.0" y="209" text-anchor="middle" font-size="8" fill="#999">32</text>
<line x1="396.0" y1="60" x2="396.0" y2="198" stroke="#f4f4f4"/>
<text x="396.0" y="209" text-anchor="middle" font-size="8" fill="#999">128</text>
<line x1="426.0" y1="60" x2="426.0" y2="198" stroke="#f4f4f4"/>
<text x="426.0" y="209" text-anchor="middle" font-size="8" fill="#999">256</text>
<line x1="456.0" y1="60" x2="456.0" y2="198" stroke="#f4f4f4"/>
<text x="456.0" y="209" text-anchor="middle" font-size="8" fill="#999">512</text>
<line x1="486.0" y1="60" x2="486.0" y2="198" stroke="#f4f4f4"/>
<text x="486.0" y="209" text-anchor="middle" font-size="8" fill="#999">1k</text>
<rect x="506" y="60" width="210" height="138" fill="none" stroke="#e2e2e2"/>
<line x1="506" y1="170.5879058334427" x2="716" y2="170.5879058334427" stroke="#d33" stroke-dasharray="4 3"/>
<text x="502" y="201.0" text-anchor="end" font-size="9" fill="#999">0.5×</text>
<text x="502" y="173.5879058334427" text-anchor="end" font-size="9" fill="#999">1.0×</text>
<text x="502" y="63.01126103585031" text-anchor="end" font-size="9" fill="#999">16.38×</text>
<polygon points="506.0,63.0 566.0,158.1 626.0,162.7 656.0,162.9 686.0,161.8 716.0,161.8 716.0,162.0 686.0,162.0 656.0,163.0 626.0,162.8 566.0,158.6 506.0,63.8" fill="#d62728" opacity="0.11"/>
<polyline points="506.0,63.2 566.0,158.2 626.0,162.7 656.0,163.0 686.0,161.8 716.0,161.9" fill="none" stroke="#d62728" stroke-width="1.6"/>
<circle cx="506.0" cy="63.2" r="2" fill="#d62728"/>
<circle cx="566.0" cy="158.2" r="2" fill="#d62728"/>
<circle cx="626.0" cy="162.7" r="2" fill="#d62728"/>
<circle cx="656.0" cy="163.0" r="2" fill="#d62728"/>
<circle cx="686.0" cy="161.8" r="2" fill="#d62728"/>
<circle cx="716.0" cy="161.9" r="2" fill="#d62728"/>
<polygon points="506.0,64.9 566.0,153.6 626.0,171.4 656.0,171.2 686.0,171.5 716.0,170.3 716.0,170.4 686.0,172.6 656.0,171.7 626.0,171.7 566.0,155.0 506.0,76.7" fill="#2ca02c" opacity="0.11"/>
<polyline points="506.0,67.1 566.0,154.5 626.0,171.6 656.0,171.3 686.0,172.6 716.0,170.3" fill="none" stroke="#2ca02c" stroke-width="1.6"/>
<circle cx="506.0" cy="67.1" r="2" fill="#2ca02c"/>
<circle cx="566.0" cy="154.5" r="2" fill="#2ca02c"/>
<circle cx="626.0" cy="171.6" r="2" fill="#2ca02c"/>
<circle cx="656.0" cy="171.3" r="2" fill="#2ca02c"/>
<circle cx="686.0" cy="172.6" r="2" fill="#2ca02c"/>
<circle cx="716.0" cy="170.3" r="2" fill="#2ca02c"/>
<polygon points="506.0,64.2 566.0,155.5 626.0,171.3 656.0,172.4 686.0,172.5 716.0,171.3 716.0,171.7 686.0,172.6 656.0,172.6 626.0,171.4 566.0,155.9 506.0,65.8" fill="#1f77b4" opacity="0.11"/>
<polyline points="506.0,64.6 566.0,155.7 626.0,171.4 656.0,172.5 686.0,172.5 716.0,171.7" fill="none" stroke="#1f77b4" stroke-width="1.6"/>
<circle cx="506.0" cy="64.6" r="2" fill="#1f77b4"/>
<circle cx="566.0" cy="155.7" r="2" fill="#1f77b4"/>
<circle cx="626.0" cy="171.4" r="2" fill="#1f77b4"/>
<circle cx="656.0" cy="172.5" r="2" fill="#1f77b4"/>
<circle cx="686.0" cy="172.5" r="2" fill="#1f77b4"/>
<circle cx="716.0" cy="171.7" r="2" fill="#1f77b4"/>
<text x="611.0" y="55" text-anchor="middle" font-size="12" font-weight="bold">zsymm</text>
<line x1="506.0" y1="60" x2="506.0" y2="198" stroke="#f4f4f4"/>
<text x="506.0" y="209" text-anchor="middle" font-size="8" fill="#999">8</text>
<line x1="566.0" y1="60" x2="566.0" y2="198" stroke="#f4f4f4"/>
<text x="566.0" y="209" text-anchor="middle" font-size="8" fill="#999">32</text>
<line x1="626.0" y1="60" x2="626.0" y2="198" stroke="#f4f4f4"/>
<text x="626.0" y="209" text-anchor="middle" font-size="8" fill="#999">128</text>
<line x1="656.0" y1="60" x2="656.0" y2="198" stroke="#f4f4f4"/>
<text x="656.0" y="209" text-anchor="middle" font-size="8" fill="#999">256</text>
<line x1="686.0" y1="60" x2="686.0" y2="198" stroke="#f4f4f4"/>
<text x="686.0" y="209" text-anchor="middle" font-size="8" fill="#999">512</text>
<line x1="716.0" y1="60" x2="716.0" y2="198" stroke="#f4f4f4"/>
<text x="716.0" y="209" text-anchor="middle" font-size="8" fill="#999">1k</text>
<rect x="736" y="60" width="210" height="138" fill="none" stroke="#e2e2e2"/>
<line x1="736" y1="165.33684549295356" x2="946" y2="165.33684549295356" stroke="#d33" stroke-dasharray="4 3"/>
<text x="732" y="201.0" text-anchor="end" font-size="9" fill="#999">0.5×</text>
<text x="732" y="168.33684549295356" text-anchor="end" font-size="9" fill="#999">1.0×</text>
<polygon points="736.0,69.2 796.0,152.8 856.0,163.0 886.0,157.6 916.0,155.2 946.0,155.2 946.0,155.8 916.0,155.5 886.0,158.0 856.0,163.5 796.0,154.2 736.0,80.7" fill="#d62728" opacity="0.11"/>
<polyline points="736.0,69.7 796.0,153.5 856.0,163.4 886.0,157.9 916.0,155.3 946.0,155.4" fill="none" stroke="#d62728" stroke-width="1.6"/>
<circle cx="736.0" cy="69.7" r="2" fill="#d62728"/>
<circle cx="796.0" cy="153.5" r="2" fill="#d62728"/>
<circle cx="856.0" cy="163.4" r="2" fill="#d62728"/>
<circle cx="886.0" cy="157.9" r="2" fill="#d62728"/>
<circle cx="916.0" cy="155.3" r="2" fill="#d62728"/>
<circle cx="946.0" cy="155.4" r="2" fill="#d62728"/>
<polygon points="736.0,77.0 796.0,164.7 856.0,164.8 886.0,167.5 916.0,166.4 946.0,166.0 946.0,166.3 916.0,167.4 886.0,167.9 856.0,166.3 796.0,167.0 736.0,78.9" fill="#2ca02c" opacity="0.11"/>
<polyline points="736.0,78.3 796.0,164.9 856.0,165.3 886.0,167.6 916.0,167.1 946.0,166.2" fill="none" stroke="#2ca02c" stroke-width="1.6"/>
<circle cx="736.0" cy="78.3" r="2" fill="#2ca02c"/>
<circle cx="796.0" cy="164.9" r="2" fill="#2ca02c"/>
<circle cx="856.0" cy="165.3" r="2" fill="#2ca02c"/>
<circle cx="886.0" cy="167.6" r="2" fill="#2ca02c"/>
<circle cx="916.0" cy="167.1" r="2" fill="#2ca02c"/>
<circle cx="946.0" cy="166.2" r="2" fill="#2ca02c"/>
<polygon points="736.0,63.6 796.0,156.9 856.0,163.7 886.0,166.9 916.0,166.5 946.0,165.8 946.0,165.9 916.0,166.6 886.0,167.0 856.0,164.3 796.0,157.6 736.0,66.2" fill="#1f77b4" opacity="0.11"/>
<polyline points="736.0,63.8 796.0,157.3 856.0,163.8 886.0,167.0 916.0,166.6 946.0,165.9" fill="none" stroke="#1f77b4" stroke-width="1.6"/>
<circle cx="736.0" cy="63.8" r="2" fill="#1f77b4"/>
<circle cx="796.0" cy="157.3" r="2" fill="#1f77b4"/>
<circle cx="856.0" cy="163.8" r="2" fill="#1f77b4"/>
<circle cx="886.0" cy="167.0" r="2" fill="#1f77b4"/>
<circle cx="916.0" cy="166.6" r="2" fill="#1f77b4"/>
<circle cx="946.0" cy="165.9" r="2" fill="#1f77b4"/>
<text x="841.0" y="55" text-anchor="middle" font-size="12" font-weight="bold">zsyrk</text>
<line x1="736.0" y1="60" x2="736.0" y2="198" stroke="#f4f4f4"/>
<text x="736.0" y="209" text-anchor="middle" font-size="8" fill="#999">8</text>
<line x1="796.0" y1="60" x2="796.0" y2="198" stroke="#f4f4f4"/>
<text x="796.0" y="209" text-anchor="middle" font-size="8" fill="#999">32</text>
<line x1="856.0" y1="60" x2="856.0" y2="198" stroke="#f4f4f4"/>
<text x="856.0" y="209" text-anchor="middle" font-size="8" fill="#999">128</text>
<line x1="886.0" y1="60" x2="886.0" y2="198" stroke="#f4f4f4"/>
<text x="886.0" y="209" text-anchor="middle" font-size="8" fill="#999">256</text>
<line x1="916.0" y1="60" x2="916.0" y2="198" stroke="#f4f4f4"/>
<text x="916.0" y="209" text-anchor="middle" font-size="8" fill="#999">512</text>
<line x1="946.0" y1="60" x2="946.0" y2="198" stroke="#f4f4f4"/>
<text x="946.0" y="209" text-anchor="middle" font-size="8" fill="#999">1k</text>
<rect x="46" y="232" width="210" height="138" fill="none" stroke="#e2e2e2"/>
<line x1="46" y1="345.03634391067015" x2="256" y2="345.03634391067015" stroke="#d33" stroke-dasharray="4 3"/>
<text x="42" y="373.0" text-anchor="end" font-size="9" fill="#999">0.5×</text>
<text x="42" y="348.03634391067015" text-anchor="end" font-size="9" fill="#999">1.0×</text>
<text x="42" y="235.00225470650167" text-anchor="end" font-size="9" fill="#999">23.07×</text>
<polygon points="46.0,239.1 106.0,315.1 166.0,337.4 196.0,337.8 226.0,336.7 256.0,337.4 256.0,337.6 226.0,337.4 196.0,338.5 166.0,338.0 106.0,318.7 46.0,240.1" fill="#d62728" opacity="0.11"/>
<polyline points="46.0,239.4 106.0,315.7 166.0,337.8 196.0,338.0 226.0,337.2 256.0,337.5" fill="none" stroke="#d62728" stroke-width="1.6"/>
<circle cx="46.0" cy="239.4" r="2" fill="#d62728"/>
<circle cx="106.0" cy="315.7" r="2" fill="#d62728"/>
<circle cx="166.0" cy="337.8" r="2" fill="#d62728"/>
<circle cx="196.0" cy="338.0" r="2" fill="#d62728"/>
<circle cx="226.0" cy="337.2" r="2" fill="#d62728"/>
<circle cx="256.0" cy="337.5" r="2" fill="#d62728"/>
<polygon points="46.0,235.9 106.0,323.7 166.0,341.8 196.0,345.1 226.0,343.5 256.0,344.5 256.0,345.2 226.0,345.7 196.0,345.2 166.0,342.3 106.0,324.9 46.0,236.8" fill="#2ca02c" opacity="0.11"/>
<polyline points="46.0,236.0 106.0,324.4 166.0,341.9 196.0,345.2 226.0,343.8 256.0,344.8" fill="none" stroke="#2ca02c" stroke-width="1.6"/>
<circle cx="46.0" cy="236.0" r="2" fill="#2ca02c"/>
<circle cx="106.0" cy="324.4" r="2" fill="#2ca02c"/>
<circle cx="166.0" cy="341.9" r="2" fill="#2ca02c"/>
<circle cx="196.0" cy="345.2" r="2" fill="#2ca02c"/>
<circle cx="226.0" cy="343.8" r="2" fill="#2ca02c"/>
<circle cx="256.0" cy="344.8" r="2" fill="#2ca02c"/>
<polygon points="46.0,234.8 106.0,322.1 166.0,338.3 196.0,344.6 226.0,343.9 256.0,345.4 256.0,345.5 226.0,344.0 196.0,344.7 166.0,339.7 106.0,323.0 46.0,236.8" fill="#1f77b4" opacity="0.11"/>
<polyline points="46.0,235.0 106.0,322.4 166.0,339.0 196.0,344.7 226.0,343.9 256.0,345.4" fill="none" stroke="#1f77b4" stroke-width="1.6"/>
<circle cx="46.0" cy="235.0" r="2" fill="#1f77b4"/>
<circle cx="106.0" cy="322.4" r="2" fill="#1f77b4"/>
<circle cx="166.0" cy="339.0" r="2" fill="#1f77b4"/>
<circle cx="196.0" cy="344.7" r="2" fill="#1f77b4"/>
<circle cx="226.0" cy="343.9" r="2" fill="#1f77b4"/>
<circle cx="256.0" cy="345.4" r="2" fill="#1f77b4"/>
<text x="151.0" y="227" text-anchor="middle" font-size="12" font-weight="bold">zherk</text>
<line x1="46.0" y1="232" x2="46.0" y2="370" stroke="#f4f4f4"/>
<text x="46.0" y="381" text-anchor="middle" font-size="8" fill="#999">8</text>
<line x1="106.0" y1="232" x2="106.0" y2="370" stroke="#f4f4f4"/>
<text x="106.0" y="381" text-anchor="middle" font-size="8" fill="#999">32</text>
<line x1="166.0" y1="232" x2="166.0" y2="370" stroke="#f4f4f4"/>
<text x="166.0" y="381" text-anchor="middle" font-size="8" fill="#999">128</text>
<line x1="196.0" y1="232" x2="196.0" y2="370" stroke="#f4f4f4"/>
<text x="196.0" y="381" text-anchor="middle" font-size="8" fill="#999">256</text>
<line x1="226.0" y1="232" x2="226.0" y2="370" stroke="#f4f4f4"/>
<text x="226.0" y="381" text-anchor="middle" font-size="8" fill="#999">512</text>
<line x1="256.0" y1="232" x2="256.0" y2="370" stroke="#f4f4f4"/>
<text x="256.0" y="381" text-anchor="middle" font-size="8" fill="#999">1k</text>
<rect x="276" y="232" width="210" height="138" fill="none" stroke="#e2e2e2"/>
<line x1="276" y1="345.2073516763078" x2="486" y2="345.2073516763078" stroke="#d33" stroke-dasharray="4 3"/>
<text x="272" y="373.0" text-anchor="end" font-size="9" fill="#999">0.5×</text>
<text x="272" y="348.2073516763078" text-anchor="end" font-size="9" fill="#999">1.0×</text>
<polygon points="276.0,240.1 336.0,315.9 396.0,337.9 426.0,338.4 456.0,336.9 486.0,337.3 486.0,337.4 456.0,337.6 426.0,338.5 396.0,338.2 336.0,316.5 276.0,248.8" fill="#d62728" opacity="0.11"/>
<polyline points="276.0,240.3 336.0,316.2 396.0,338.0 426.0,338.5 456.0,337.4 486.0,337.3" fill="none" stroke="#d62728" stroke-width="1.6"/>
<circle cx="276.0" cy="240.3" r="2" fill="#d62728"/>
<circle cx="336.0" cy="316.2" r="2" fill="#d62728"/>
<circle cx="396.0" cy="338.0" r="2" fill="#d62728"/>
<circle cx="426.0" cy="338.5" r="2" fill="#d62728"/>
<circle cx="456.0" cy="337.4" r="2" fill="#d62728"/>
<circle cx="486.0" cy="337.3" r="2" fill="#d62728"/>
<polygon points="276.0,234.8 336.0,322.8 396.0,341.6 426.0,345.3 456.0,345.4 486.0,345.0 486.0,345.2 456.0,346.0 426.0,346.6 396.0,342.2 336.0,325.5 276.0,238.0" fill="#2ca02c" opacity="0.11"/>
<polyline points="276.0,234.9 336.0,323.0 396.0,341.8 426.0,345.4 456.0,345.5 486.0,345.2" fill="none" stroke="#2ca02c" stroke-width="1.6"/>
<circle cx="276.0" cy="234.9" r="2" fill="#2ca02c"/>
<circle cx="336.0" cy="323.0" r="2" fill="#2ca02c"/>
<circle cx="396.0" cy="341.8" r="2" fill="#2ca02c"/>
<circle cx="426.0" cy="345.4" r="2" fill="#2ca02c"/>
<circle cx="456.0" cy="345.5" r="2" fill="#2ca02c"/>
<circle cx="486.0" cy="345.2" r="2" fill="#2ca02c"/>
<polygon points="276.0,235.1 336.0,322.2 396.0,338.8 426.0,344.8 456.0,344.4 486.0,345.4 486.0,345.5 456.0,344.6 426.0,344.9 396.0,339.0 336.0,322.5 276.0,236.7" fill="#1f77b4" opacity="0.11"/>
<polyline points="276.0,235.6 336.0,322.3 396.0,338.8 426.0,344.8 456.0,344.5 486.0,345.4" fill="none" stroke="#1f77b4" stroke-width="1.6"/>
<circle cx="276.0" cy="235.6" r="2" fill="#1f77b4"/>
<circle cx="336.0" cy="322.3" r="2" fill="#1f77b4"/>
<circle cx="396.0" cy="338.8" r="2" fill="#1f77b4"/>
<circle cx="426.0" cy="344.8" r="2" fill="#1f77b4"/>
<circle cx="456.0" cy="344.5" r="2" fill="#1f77b4"/>
<circle cx="486.0" cy="345.4" r="2" fill="#1f77b4"/>
<text x="381.0" y="227" text-anchor="middle" font-size="12" font-weight="bold">zher2k</text>
<line x1="276.0" y1="232" x2="276.0" y2="370" stroke="#f4f4f4"/>
<text x="276.0" y="381" text-anchor="middle" font-size="8" fill="#999">8</text>
<line x1="336.0" y1="232" x2="336.0" y2="370" stroke="#f4f4f4"/>
<text x="336.0" y="381" text-anchor="middle" font-size="8" fill="#999">32</text>
<line x1="396.0" y1="232" x2="396.0" y2="370" stroke="#f4f4f4"/>
<text x="396.0" y="381" text-anchor="middle" font-size="8" fill="#999">128</text>
<line x1="426.0" y1="232" x2="426.0" y2="370" stroke="#f4f4f4"/>
<text x="426.0" y="381" text-anchor="middle" font-size="8" fill="#999">256</text>
<line x1="456.0" y1="232" x2="456.0" y2="370" stroke="#f4f4f4"/>
<text x="456.0" y="381" text-anchor="middle" font-size="8" fill="#999">512</text>
<line x1="486.0" y1="232" x2="486.0" y2="370" stroke="#f4f4f4"/>
<text x="486.0" y="381" text-anchor="middle" font-size="8" fill="#999">1k</text>
<rect x="506" y="232" width="210" height="138" fill="none" stroke="#e2e2e2"/>
<line x1="506" y1="344.789372199623" x2="716" y2="344.789372199623" stroke="#d33" stroke-dasharray="4 3"/>
<text x="502" y="373.0" text-anchor="end" font-size="9" fill="#999">0.5×</text>
<text x="502" y="347.789372199623" text-anchor="end" font-size="9" fill="#999">1.0×</text>
<text x="502" y="235.00239551271503" text-anchor="end" font-size="9" fill="#999">22.22×</text>
<polygon points="506.0,239.9 566.0,322.9 626.0,343.3 656.0,340.0 686.0,338.5 716.0,338.1 716.0,338.3 686.0,339.3 656.0,340.2 626.0,343.7 566.0,325.4 506.0,241.1" fill="#d62728" opacity="0.11"/>
<polyline points="506.0,240.1 566.0,323.5 626.0,343.5 656.0,340.2 686.0,339.0 716.0,338.3" fill="none" stroke="#d62728" stroke-width="1.6"/>
<circle cx="506.0" cy="240.1" r="2" fill="#d62728"/>
<circle cx="566.0" cy="323.5" r="2" fill="#d62728"/>
<circle cx="626.0" cy="343.5" r="2" fill="#d62728"/>
<circle cx="656.0" cy="340.2" r="2" fill="#d62728"/>
<circle cx="686.0" cy="339.0" r="2" fill="#d62728"/>
<circle cx="716.0" cy="338.3" r="2" fill="#d62728"/>
<polygon points="506.0,234.8 566.0,329.0 626.0,343.8 656.0,346.5 686.0,346.3 716.0,344.9 716.0,345.2 686.0,346.8 656.0,346.7 626.0,345.6 566.0,331.2 506.0,236.4" fill="#2ca02c" opacity="0.11"/>
<polyline points="506.0,235.5 566.0,329.9 626.0,344.2 656.0,346.6 686.0,346.6 716.0,345.0" fill="none" stroke="#2ca02c" stroke-width="1.6"/>
<circle cx="506.0" cy="235.5" r="2" fill="#2ca02c"/>
<circle cx="566.0" cy="329.9" r="2" fill="#2ca02c"/>
<circle cx="626.0" cy="344.2" r="2" fill="#2ca02c"/>
<circle cx="656.0" cy="346.6" r="2" fill="#2ca02c"/>
<circle cx="686.0" cy="346.6" r="2" fill="#2ca02c"/>
<circle cx="716.0" cy="345.0" r="2" fill="#2ca02c"/>
<polygon points="506.0,234.9 566.0,327.3 626.0,343.0 656.0,345.9 686.0,345.5 716.0,345.1 716.0,345.1 686.0,345.8 656.0,345.9 626.0,343.2 566.0,327.5 506.0,236.4" fill="#1f77b4" opacity="0.11"/>
<polyline points="506.0,235.2 566.0,327.3 626.0,343.1 656.0,345.9 686.0,345.6 716.0,345.1" fill="none" stroke="#1f77b4" stroke-width="1.6"/>
<circle cx="506.0" cy="235.2" r="2" fill="#1f77b4"/>
<circle cx="566.0" cy="327.3" r="2" fill="#1f77b4"/>
<circle cx="626.0" cy="343.1" r="2" fill="#1f77b4"/>
<circle cx="656.0" cy="345.9" r="2" fill="#1f77b4"/>
<circle cx="686.0" cy="345.6" r="2" fill="#1f77b4"/>
<circle cx="716.0" cy="345.1" r="2" fill="#1f77b4"/>
<text x="611.0" y="227" text-anchor="middle" font-size="12" font-weight="bold">zsyr2k</text>
<line x1="506.0" y1="232" x2="506.0" y2="370" stroke="#f4f4f4"/>
<text x="506.0" y="381" text-anchor="middle" font-size="8" fill="#999">8</text>
<line x1="566.0" y1="232" x2="566.0" y2="370" stroke="#f4f4f4"/>
<text x="566.0" y="381" text-anchor="middle" font-size="8" fill="#999">32</text>
<line x1="626.0" y1="232" x2="626.0" y2="370" stroke="#f4f4f4"/>
<text x="626.0" y="381" text-anchor="middle" font-size="8" fill="#999">128</text>
<line x1="656.0" y1="232" x2="656.0" y2="370" stroke="#f4f4f4"/>
<text x="656.0" y="381" text-anchor="middle" font-size="8" fill="#999">256</text>
<line x1="686.0" y1="232" x2="686.0" y2="370" stroke="#f4f4f4"/>
<text x="686.0" y="381" text-anchor="middle" font-size="8" fill="#999">512</text>
<line x1="716.0" y1="232" x2="716.0" y2="370" stroke="#f4f4f4"/>
<text x="716.0" y="381" text-anchor="middle" font-size="8" fill="#999">1k</text>
<rect x="736" y="232" width="210" height="138" fill="none" stroke="#e2e2e2"/>
<line x1="736" y1="343.3795284350828" x2="946" y2="343.3795284350828" stroke="#d33" stroke-dasharray="4 3"/>
<text x="732" y="373.0" text-anchor="end" font-size="9" fill="#999">0.5×</text>
<text x="732" y="346.3795284350828" text-anchor="end" font-size="9" fill="#999">1.0×</text>
<polygon points="736.0,240.3 796.0,328.3 856.0,344.4 886.0,343.2 916.0,339.7 946.0,337.8 946.0,338.0 916.0,339.8 886.0,343.8 856.0,345.6 796.0,330.1 736.0,241.5" fill="#d62728" opacity="0.11"/>
<polyline points="736.0,240.6 796.0,328.5 856.0,344.6 886.0,343.3 916.0,339.7 946.0,337.9" fill="none" stroke="#d62728" stroke-width="1.6"/>
<circle cx="736.0" cy="240.6" r="2" fill="#d62728"/>
<circle cx="796.0" cy="328.5" r="2" fill="#d62728"/>
<circle cx="856.0" cy="344.6" r="2" fill="#d62728"/>
<circle cx="886.0" cy="343.3" r="2" fill="#d62728"/>
<circle cx="916.0" cy="339.7" r="2" fill="#d62728"/>
<circle cx="946.0" cy="337.9" r="2" fill="#d62728"/>
<polygon points="736.0,235.0 796.0,328.0 856.0,344.2 886.0,345.0 916.0,344.4 946.0,344.3 946.0,344.4 916.0,344.6 886.0,345.4 856.0,344.8 796.0,329.8 736.0,236.2" fill="#2ca02c" opacity="0.11"/>
<polyline points="736.0,235.2 796.0,328.3 856.0,344.6 886.0,345.1 916.0,344.5 946.0,344.4" fill="none" stroke="#2ca02c" stroke-width="1.6"/>
<circle cx="736.0" cy="235.2" r="2" fill="#2ca02c"/>
<circle cx="796.0" cy="328.3" r="2" fill="#2ca02c"/>
<circle cx="856.0" cy="344.6" r="2" fill="#2ca02c"/>
<circle cx="886.0" cy="345.1" r="2" fill="#2ca02c"/>
<circle cx="916.0" cy="344.5" r="2" fill="#2ca02c"/>
<circle cx="946.0" cy="344.4" r="2" fill="#2ca02c"/>
<polygon points="736.0,235.6 796.0,325.4 856.0,342.8 886.0,345.8 916.0,344.8 946.0,344.3 946.0,344.4 916.0,344.9 886.0,346.0 856.0,344.2 796.0,325.8 736.0,237.4" fill="#1f77b4" opacity="0.11"/>
<polyline points="736.0,236.1 796.0,325.6 856.0,343.1 886.0,345.9 916.0,344.9 946.0,344.3" fill="none" stroke="#1f77b4" stroke-width="1.6"/>
<circle cx="736.0" cy="236.1" r="2" fill="#1f77b4"/>
<circle cx="796.0" cy="325.6" r="2" fill="#1f77b4"/>
<circle cx="856.0" cy="343.1" r="2" fill="#1f77b4"/>
<circle cx="886.0" cy="345.9" r="2" fill="#1f77b4"/>
<circle cx="916.0" cy="344.9" r="2" fill="#1f77b4"/>
<circle cx="946.0" cy="344.3" r="2" fill="#1f77b4"/>
<text x="841.0" y="227" text-anchor="middle" font-size="12" font-weight="bold">ztrmm</text>
<line x1="736.0" y1="232" x2="736.0" y2="370" stroke="#f4f4f4"/>
<text x="736.0" y="381" text-anchor="middle" font-size="8" fill="#999">8</text>
<line x1="796.0" y1="232" x2="796.0" y2="370" stroke="#f4f4f4"/>
<text x="796.0" y="381" text-anchor="middle" font-size="8" fill="#999">32</text>
<line x1="856.0" y1="232" x2="856.0" y2="370" stroke="#f4f4f4"/>
<text x="856.0" y="381" text-anchor="middle" font-size="8" fill="#999">128</text>
<line x1="886.0" y1="232" x2="886.0" y2="370" stroke="#f4f4f4"/>
<text x="886.0" y="381" text-anchor="middle" font-size="8" fill="#999">256</text>
<line x1="916.0" y1="232" x2="916.0" y2="370" stroke="#f4f4f4"/>
<text x="916.0" y="381" text-anchor="middle" font-size="8" fill="#999">512</text>
<line x1="946.0" y1="232" x2="946.0" y2="370" stroke="#f4f4f4"/>
<text x="946.0" y="381" text-anchor="middle" font-size="8" fill="#999">1k</text>
<rect x="46" y="404" width="210" height="138" fill="none" stroke="#e2e2e2"/>
<line x1="46" y1="463.1812057786718" x2="256" y2="463.1812057786718" stroke="#d33" stroke-dasharray="4 3"/>
<text x="42" y="545.0" text-anchor="end" font-size="9" fill="#999">0.5×</text>
<text x="42" y="466.1812057786718" text-anchor="end" font-size="9" fill="#999">1.0×</text>
<text x="42" y="407.18839387188524" text-anchor="end" font-size="9" fill="#999">1.68×</text>
<polygon points="46.0,412.8 106.0,494.3 166.0,510.5 196.0,474.3 226.0,451.9 256.0,449.7 256.0,450.0 226.0,456.5 196.0,477.0 166.0,510.9 106.0,501.4 46.0,442.0" fill="#d62728" opacity="0.11"/>
<polyline points="46.0,441.1 106.0,500.9 166.0,510.7 196.0,475.4 226.0,453.0 256.0,449.9" fill="none" stroke="#d62728" stroke-width="1.6"/>
<circle cx="46.0" cy="441.1" r="2" fill="#d62728"/>
<circle cx="106.0" cy="500.9" r="2" fill="#d62728"/>
<circle cx="166.0" cy="510.7" r="2" fill="#d62728"/>
<circle cx="196.0" cy="475.4" r="2" fill="#d62728"/>
<circle cx="226.0" cy="453.0" r="2" fill="#d62728"/>
<circle cx="256.0" cy="449.9" r="2" fill="#d62728"/>
<polygon points="46.0,457.3 106.0,508.6 166.0,486.2 196.0,483.9 226.0,469.3 256.0,463.5 256.0,464.2 226.0,469.7 196.0,484.1 166.0,487.8 106.0,513.9 46.0,460.2" fill="#2ca02c" opacity="0.11"/>
<polyline points="46.0,459.0 106.0,512.3 166.0,487.5 196.0,484.0 226.0,469.5 256.0,464.0" fill="none" stroke="#2ca02c" stroke-width="1.6"/>
<circle cx="46.0" cy="459.0" r="2" fill="#2ca02c"/>
<circle cx="106.0" cy="512.3" r="2" fill="#2ca02c"/>
<circle cx="166.0" cy="487.5" r="2" fill="#2ca02c"/>
<circle cx="196.0" cy="484.0" r="2" fill="#2ca02c"/>
<circle cx="226.0" cy="469.5" r="2" fill="#2ca02c"/>
<circle cx="256.0" cy="464.0" r="2" fill="#2ca02c"/>
<polygon points="46.0,448.3 106.0,513.4 166.0,505.6 196.0,431.8 226.0,461.4 256.0,457.6 256.0,458.7 226.0,466.8 196.0,441.2 166.0,509.8 106.0,516.0 46.0,474.9" fill="#1f77b4" opacity="0.11"/>
<polyline points="46.0,469.5 106.0,514.9 166.0,508.9 196.0,437.0 226.0,463.1 256.0,458.4" fill="none" stroke="#1f77b4" stroke-width="1.6"/>
<circle cx="46.0" cy="469.5" r="2" fill="#1f77b4"/>
<circle cx="106.0" cy="514.9" r="2" fill="#1f77b4"/>
<circle cx="166.0" cy="508.9" r="2" fill="#1f77b4"/>
<circle cx="196.0" cy="437.0" r="2" fill="#1f77b4"/>
<circle cx="226.0" cy="463.1" r="2" fill="#1f77b4"/>
<circle cx="256.0" cy="458.4" r="2" fill="#1f77b4"/>
<text x="151.0" y="399" text-anchor="middle" font-size="12" font-weight="bold">ztrsm</text>
<line x1="46.0" y1="404" x2="46.0" y2="542" stroke="#f4f4f4"/>
<text x="46.0" y="553" text-anchor="middle" font-size="8" fill="#999">8</text>
<line x1="106.0" y1="404" x2="106.0" y2="542" stroke="#f4f4f4"/>
<text x="106.0" y="553" text-anchor="middle" font-size="8" fill="#999">32</text>
<line x1="166.0" y1="404" x2="166.0" y2="542" stroke="#f4f4f4"/>
<text x="166.0" y="553" text-anchor="middle" font-size="8" fill="#999">128</text>
<line x1="196.0" y1="404" x2="196.0" y2="542" stroke="#f4f4f4"/>
<text x="196.0" y="553" text-anchor="middle" font-size="8" fill="#999">256</text>
<line x1="226.0" y1="404" x2="226.0" y2="542" stroke="#f4f4f4"/>
<text x="226.0" y="553" text-anchor="middle" font-size="8" fill="#999">512</text>
<line x1="256.0" y1="404" x2="256.0" y2="542" stroke="#f4f4f4"/>
<text x="256.0" y="553" text-anchor="middle" font-size="8" fill="#999">1k</text>
<rect x="276" y="404" width="210" height="138" fill="none" stroke="#e2e2e2"/>
<line x1="276" y1="516.1455118427449" x2="486" y2="516.1455118427449" stroke="#d33" stroke-dasharray="4 3"/>
<text x="272" y="545.0" text-anchor="end" font-size="9" fill="#999">0.5×</text>
<text x="272" y="519.1455118427449" text-anchor="end" font-size="9" fill="#999">1.0×</text>
<polygon points="276.0,417.5 336.0,503.9 396.0,516.3 426.0,514.0 456.0,511.9 486.0,510.3 486.0,510.4 456.0,511.9 426.0,514.1 396.0,518.2 336.0,506.9 276.0,419.0" fill="#d62728" opacity="0.11"/>
<polyline points="276.0,417.7 336.0,504.2 396.0,517.7 426.0,514.0 456.0,511.9 486.0,510.4" fill="none" stroke="#d62728" stroke-width="1.6"/>
<circle cx="276.0" cy="417.7" r="2" fill="#d62728"/>
<circle cx="336.0" cy="504.2" r="2" fill="#d62728"/>
<circle cx="396.0" cy="517.7" r="2" fill="#d62728"/>
<circle cx="426.0" cy="514.0" r="2" fill="#d62728"/>
<circle cx="456.0" cy="511.9" r="2" fill="#d62728"/>
<circle cx="486.0" cy="510.4" r="2" fill="#d62728"/>
<polygon points="276.0,406.9 336.0,499.6 396.0,516.4 426.0,515.5 456.0,516.6 486.0,516.8 486.0,516.9 456.0,516.9 426.0,515.8 396.0,516.8 336.0,503.9 276.0,412.1" fill="#2ca02c" opacity="0.11"/>
<polyline points="276.0,408.0 336.0,500.3 396.0,516.6 426.0,515.8 456.0,516.8 486.0,516.9" fill="none" stroke="#2ca02c" stroke-width="1.6"/>
<circle cx="276.0" cy="408.0" r="2" fill="#2ca02c"/>
<circle cx="336.0" cy="500.3" r="2" fill="#2ca02c"/>
<circle cx="396.0" cy="516.6" r="2" fill="#2ca02c"/>
<circle cx="426.0" cy="515.8" r="2" fill="#2ca02c"/>
<circle cx="456.0" cy="516.8" r="2" fill="#2ca02c"/>
<circle cx="486.0" cy="516.9" r="2" fill="#2ca02c"/>
<polygon points="276.0,408.7 336.0,494.4 396.0,515.5 426.0,516.5 456.0,517.1 486.0,517.0 486.0,517.1 456.0,517.2 426.0,516.9 396.0,516.0 336.0,495.0 276.0,410.4" fill="#1f77b4" opacity="0.11"/>
<polyline points="276.0,409.1 336.0,494.6 396.0,515.6 426.0,516.9 456.0,517.2 486.0,517.0" fill="none" stroke="#1f77b4" stroke-width="1.6"/>
<circle cx="276.0" cy="409.1" r="2" fill="#1f77b4"/>
<circle cx="336.0" cy="494.6" r="2" fill="#1f77b4"/>
<circle cx="396.0" cy="515.6" r="2" fill="#1f77b4"/>
<circle cx="426.0" cy="516.9" r="2" fill="#1f77b4"/>
<circle cx="456.0" cy="517.2" r="2" fill="#1f77b4"/>
<circle cx="486.0" cy="517.0" r="2" fill="#1f77b4"/>
<text x="381.0" y="399" text-anchor="middle" font-size="12" font-weight="bold">ztrmmR</text>
<line x1="276.0" y1="404" x2="276.0" y2="542" stroke="#f4f4f4"/>
<text x="276.0" y="553" text-anchor="middle" font-size="8" fill="#999">8</text>
<line x1="336.0" y1="404" x2="336.0" y2="542" stroke="#f4f4f4"/>
<text x="336.0" y="553" text-anchor="middle" font-size="8" fill="#999">32</text>
<line x1="396.0" y1="404" x2="396.0" y2="542" stroke="#f4f4f4"/>
<text x="396.0" y="553" text-anchor="middle" font-size="8" fill="#999">128</text>
<line x1="426.0" y1="404" x2="426.0" y2="542" stroke="#f4f4f4"/>
<text x="426.0" y="553" text-anchor="middle" font-size="8" fill="#999">256</text>
<line x1="456.0" y1="404" x2="456.0" y2="542" stroke="#f4f4f4"/>
<text x="456.0" y="553" text-anchor="middle" font-size="8" fill="#999">512</text>
<line x1="486.0" y1="404" x2="486.0" y2="542" stroke="#f4f4f4"/>
<text x="486.0" y="553" text-anchor="middle" font-size="8" fill="#999">1k</text>
<rect x="506" y="404" width="210" height="138" fill="none" stroke="#e2e2e2"/>
<line x1="506" y1="475.2008937299442" x2="716" y2="475.2008937299442" stroke="#d33" stroke-dasharray="4 3"/>
<text x="502" y="545.0" text-anchor="end" font-size="9" fill="#999">0.5×</text>
<text x="502" y="478.2008937299442" text-anchor="end" font-size="9" fill="#999">1.0×</text>
<text x="502" y="407.1598476683181" text-anchor="end" font-size="9" fill="#999">2.09×</text>
<polygon points="506.0,426.5 566.0,466.5 626.0,481.7 656.0,442.9 686.0,432.8 716.0,415.9 716.0,416.6 686.0,433.4 656.0,443.8 626.0,483.1 566.0,471.5 506.0,427.5" fill="#d62728" opacity="0.11"/>
<polyline points="506.0,427.1 566.0,467.8 626.0,482.6 656.0,443.4 686.0,433.3 716.0,416.4" fill="none" stroke="#d62728" stroke-width="1.6"/>
<circle cx="506.0" cy="427.1" r="2" fill="#d62728"/>
<circle cx="566.0" cy="467.8" r="2" fill="#d62728"/>
<circle cx="626.0" cy="482.6" r="2" fill="#d62728"/>
<circle cx="656.0" cy="443.4" r="2" fill="#d62728"/>
<circle cx="686.0" cy="433.3" r="2" fill="#d62728"/>
<circle cx="716.0" cy="416.4" r="2" fill="#d62728"/>
<polygon points="506.0,429.5 566.0,464.1 626.0,474.2 656.0,474.9 686.0,474.7 716.0,475.5 716.0,476.1 686.0,475.1 656.0,475.3 626.0,474.8 566.0,469.6 506.0,434.9" fill="#2ca02c" opacity="0.11"/>
<polyline points="506.0,432.0 566.0,468.6 626.0,474.7 656.0,475.1 686.0,474.9 716.0,476.1" fill="none" stroke="#2ca02c" stroke-width="1.6"/>
<circle cx="506.0" cy="432.0" r="2" fill="#2ca02c"/>
<circle cx="566.0" cy="468.6" r="2" fill="#2ca02c"/>
<circle cx="626.0" cy="474.7" r="2" fill="#2ca02c"/>
<circle cx="656.0" cy="475.1" r="2" fill="#2ca02c"/>
<circle cx="686.0" cy="474.9" r="2" fill="#2ca02c"/>
<circle cx="716.0" cy="476.1" r="2" fill="#2ca02c"/>
<polygon points="506.0,439.5 566.0,480.2 626.0,479.7 656.0,411.4 686.0,476.9 716.0,479.0 716.0,479.1 686.0,477.4 656.0,413.5 626.0,479.9 566.0,480.7 506.0,440.4" fill="#1f77b4" opacity="0.11"/>
<polyline points="506.0,439.8 566.0,480.4 626.0,479.7 656.0,412.1 686.0,477.3 716.0,479.1" fill="none" stroke="#1f77b4" stroke-width="1.6"/>
<circle cx="506.0" cy="439.8" r="2" fill="#1f77b4"/>
<circle cx="566.0" cy="480.4" r="2" fill="#1f77b4"/>
<circle cx="626.0" cy="479.7" r="2" fill="#1f77b4"/>
<circle cx="656.0" cy="412.1" r="2" fill="#1f77b4"/>
<circle cx="686.0" cy="477.3" r="2" fill="#1f77b4"/>
<circle cx="716.0" cy="479.1" r="2" fill="#1f77b4"/>
<text x="611.0" y="399" text-anchor="middle" font-size="12" font-weight="bold">ztrsmR</text>
<line x1="506.0" y1="404" x2="506.0" y2="542" stroke="#f4f4f4"/>
<text x="506.0" y="553" text-anchor="middle" font-size="8" fill="#999">8</text>
<line x1="566.0" y1="404" x2="566.0" y2="542" stroke="#f4f4f4"/>
<text x="566.0" y="553" text-anchor="middle" font-size="8" fill="#999">32</text>
<line x1="626.0" y1="404" x2="626.0" y2="542" stroke="#f4f4f4"/>
<text x="626.0" y="553" text-anchor="middle" font-size="8" fill="#999">128</text>
<line x1="656.0" y1="404" x2="656.0" y2="542" stroke="#f4f4f4"/>
<text x="656.0" y="553" text-anchor="middle" font-size="8" fill="#999">256</text>
<line x1="686.0" y1="404" x2="686.0" y2="542" stroke="#f4f4f4"/>
<text x="686.0" y="553" text-anchor="middle" font-size="8" fill="#999">512</text>
<line x1="716.0" y1="404" x2="716.0" y2="542" stroke="#f4f4f4"/>
<text x="716.0" y="553" text-anchor="middle" font-size="8" fill="#999">1k</text>
</svg>
