<svg xmlns="http://www.w3.org/2000/svg" width="900" height="440" font-family="sans-serif">
<rect width="900" height="440" fill="white"/>
<text x="450.0" y="28" text-anchor="middle" font-size="18" font-weight="bold">BLAS-2: PureBLAS / OpenBLAS (AVX2, 1 thread, Float64)</text>
<line x1="60" y1="358.0" x2="880" y2="358.0" stroke="#eee"/>
<text x="52" y="362.0" text-anchor="end" font-size="11" fill="#666">0×</text>
<line x1="60" y1="294.3230818792914" x2="880" y2="294.3230818792914" stroke="#eee"/>
<text x="52" y="298.3230818792914" text-anchor="end" font-size="11" fill="#666">0.5×</text>
<line x1="60" y1="230.64616375858282" x2="880" y2="230.64616375858282" stroke="#eee"/>
<text x="52" y="234.64616375858282" text-anchor="end" font-size="11" fill="#666">1×</text>
<line x1="60" y1="166.96924563787422" x2="880" y2="166.96924563787422" stroke="#eee"/>
<text x="52" y="170.96924563787422" text-anchor="end" font-size="11" fill="#666">1.5×</text>
<line x1="60" y1="230.64616375858282" x2="880" y2="230.64616375858282" stroke="#888" stroke-width="1"/>
<line x1="60" y1="235.74031720823953" x2="880" y2="235.74031720823953" stroke="#d33" stroke-width="1.5" stroke-dasharray="6 4"/>
<text x="880" y="230.74031720823953" text-anchor="end" font-size="11" fill="#d33">0.96× gate</text>
<polygon points="111.0,247.1 112.6,245.7 114.5,244.4 116.8,243.1 119.3,241.8 122.0,240.4 125.0,239.1 128.0,237.8 131.0,236.5 134.0,235.1 136.7,233.8 139.1,232.5 141.1,231.2 142.6,229.8 143.5,228.5 143.8,227.2 143.5,225.9 142.7,224.6 141.3,223.2 139.4,221.9 137.2,220.6 134.7,219.3 131.9,217.9 129.1,216.6 126.3,215.3 123.5,214.0 120.8,212.6 118.4,211.3 116.2,210.0 114.2,208.7 112.5,207.3 111.0,206.0 109.8,204.7 108.8,203.4 108.0,202.0 107.3,200.7 106.9,199.4 106.5,198.1 106.2,196.8 106.1,195.4 106.0,194.1 106.0,192.8 106.0,191.5 106.1,190.1 106.3,188.8 106.5,187.5 106.8,186.2 107.1,184.8 107.6,183.5 108.1,182.2 108.7,180.9 109.3,179.5 109.9,178.2 110.6,176.9 111.2,175.6 111.8,174.2 112.3,172.9 112.6,171.6 112.9,170.3 112.9,169.0 112.9,167.6 112.6,166.3 112.3,165.0 111.8,163.7 111.2,162.3 110.5,161.0 109.9,159.7 109.2,158.4 108.6,157.0 108.0,155.7 107.5,154.4 107.1,153.1 104.0,153.1 103.6,154.4 103.1,155.7 102.5,157.0 101.9,158.4 101.2,159.7 100.6,161.0 99.9,162.3 99.3,163.7 98.9,165.0 98.5,166.3 98.2,167.6 98.2,169.0 98.2,170.3 98.5,171.6 98.8,172.9 99.3,174.2 99.9,175.6 100.5,176.9 101.2,178.2 101.8,179.5 102.5,180.9 103.0,182.2 103.5,183.5 104.0,184.8 104.3,186.2 104.6,187.5 104.9,188.8 105.0,190.1 105.1,191.5 105.1,192.8 105.1,194.1 105.0,195.4 104.9,196.8 104.6,198.1 104.3,199.4 103.8,200.7 103.2,202.0 102.4,203.4 101.4,204.7 100.1,206.0 98.7,207.3 96.9,208.7 95.0,210.0 92.7,211.3 90.3,212.6 87.6,214.0 84.9,215.3 82.0,216.6 79.2,217.9 76.4,219.3 73.9,220.6 71.7,221.9 69.8,223.2 68.4,224.6 67.6,225.9 67.3,227.2 67.6,228.5 68.5,229.8 70.0,231.2 72.0,232.5 74.4,233.8 77.1,235.1 80.1,236.5 83.1,237.8 86.2,239.1 89.1,240.4 91.8,241.8 94.3,243.1 96.6,244.4 98.5,245.7 100.1,247.1" fill="#2a8" opacity="0.5" stroke="#2a8" stroke-width="1"/>
<line x1="67.6" y1="225.83520375324787" x2="143.5" y2="225.83520375324787" stroke="#114" stroke-width="2"/>
<circle cx="105.55555555555556" cy="234.92303286614955" r="2.4" fill="#114"/>
<text x="105.55555555555556" y="156.36879982264477" text-anchor="middle" font-size="11">1.04</text>
<text x="105.55555555555556" y="376" text-anchor="middle" font-size="12">gemvN</text>
<polygon points="196.9,237.7 197.0,237.4 197.2,237.1 197.4,236.7 197.6,236.4 197.8,236.0 198.1,235.7 198.4,235.3 198.8,235.0 199.1,234.7 199.4,234.3 199.8,234.0 200.3,233.6 200.8,233.3 201.6,232.9 202.7,232.6 204.2,232.2 206.2,231.9 208.8,231.6 211.9,231.2 215.5,230.9 219.4,230.5 223.3,230.2 227.0,229.8 230.2,229.5 232.6,229.2 234.1,228.8 234.9,228.5 234.9,228.1 234.6,227.8 234.0,227.4 233.5,227.1 233.3,226.8 233.4,226.4 233.8,226.1 234.3,225.7 234.7,225.4 234.8,225.0 234.5,224.7 233.7,224.4 232.3,224.0 230.6,223.7 228.6,223.3 226.7,223.0 225.1,222.6 223.8,222.3 223.1,221.9 222.8,221.6 222.8,221.3 222.9,220.9 222.9,220.6 222.6,220.2 221.9,219.9 220.6,219.5 218.8,219.2 216.5,218.9 213.9,218.5 211.3,218.2 208.6,217.8 206.2,217.5 204.1,217.1 202.4,216.8 201.0,216.5 199.9,216.1 199.0,215.8 198.4,215.4 198.0,215.1 197.6,214.7 197.4,214.4 197.2,214.1 197.0,213.7 196.9,213.4 196.4,213.4 196.3,213.7 196.2,214.1 196.0,214.4 195.7,214.7 195.4,215.1 194.9,215.4 194.3,215.8 193.5,216.1 192.4,216.5 191.0,216.8 189.2,217.1 187.1,217.5 184.7,217.8 182.1,218.2 179.4,218.5 176.8,218.9 174.6,219.2 172.7,219.5 171.4,219.9 170.7,220.2 170.4,220.6 170.4,220.9 170.5,221.3 170.6,221.6 170.3,221.9 169.5,222.3 168.3,222.6 166.6,223.0 164.7,223.3 162.8,223.7 161.0,224.0 159.6,224.4 158.8,224.7 158.5,225.0 158.6,225.4 159.1,225.7 159.5,226.1 159.9,226.4 160.0,226.8 159.8,227.1 159.3,227.4 158.8,227.8 158.4,228.1 158.5,228.5 159.2,228.8 160.8,229.2 163.2,229.5 166.3,229.8 170.0,230.2 174.0,230.5 177.8,230.9 181.4,231.2 184.5,231.6 187.1,231.9 189.1,232.2 190.6,232.6 191.7,232.9 192.5,233.3 193.1,233.6 193.5,234.0 193.9,234.3 194.2,234.7 194.6,235.0 194.9,235.3 195.2,235.7 195.5,236.0 195.7,236.4 196.0,236.7 196.2,237.1 196.3,237.4 196.4,237.7" fill="#2a8" opacity="0.5" stroke="#2a8" stroke-width="1"/>
<line x1="158.5" y1="224.9306896210193" x2="234.8" y2="224.9306896210193" stroke="#114" stroke-width="2"/>
<circle cx="196.66666666666669" cy="229.0877270403904" r="2.4" fill="#114"/>
<text x="196.66666666666669" y="209.92818740777622" text-anchor="middle" font-size="11">1.04</text>
<text x="196.66666666666669" y="376" text-anchor="middle" font-size="12">gemvT</text>
<polygon points="292.2,240.3 293.7,239.6 295.4,238.8 297.5,238.1 299.9,237.3 302.5,236.6 305.4,235.8 308.4,235.1 311.4,234.3 314.4,233.6 317.2,232.8 319.8,232.1 322.0,231.3 323.7,230.6 325.0,229.8 325.8,229.1 326.0,228.3 325.7,227.6 324.9,226.8 323.6,226.0 321.9,225.3 319.8,224.5 317.4,223.8 314.7,223.0 311.9,222.3 309.1,221.5 306.2,220.8 303.5,220.0 301.0,219.3 298.7,218.5 296.6,217.8 294.8,217.0 293.3,216.3 292.1,215.5 291.1,214.8 290.3,214.0 289.7,213.3 289.2,212.5 288.8,211.8 288.6,211.0 288.4,210.2 288.3,209.5 288.2,208.7 288.2,208.0 288.3,207.2 288.4,206.5 288.6,205.7 288.8,205.0 289.1,204.2 289.5,203.5 290.0,202.7 290.5,202.0 291.1,201.2 291.7,200.5 292.3,199.7 293.0,199.0 293.6,198.2 294.1,197.5 294.5,196.7 294.8,195.9 295.0,195.2 295.0,194.4 294.8,193.7 294.5,192.9 294.1,192.2 293.5,191.4 292.9,190.7 292.3,189.9 291.6,189.2 291.0,188.4 290.4,187.7 289.9,186.9 285.7,186.9 285.2,187.7 284.6,188.4 283.9,189.2 283.3,189.9 282.6,190.7 282.0,191.4 281.5,192.2 281.1,192.9 280.7,193.7 280.6,194.4 280.6,195.2 280.7,195.9 281.0,196.7 281.5,197.5 282.0,198.2 282.6,199.0 283.2,199.7 283.9,200.5 284.5,201.2 285.1,202.0 285.6,202.7 286.0,203.5 286.4,204.2 286.7,205.0 287.0,205.7 287.2,206.5 287.3,207.2 287.3,208.0 287.3,208.7 287.3,209.5 287.2,210.2 287.0,211.0 286.7,211.8 286.4,212.5 285.9,213.3 285.3,214.0 284.5,214.8 283.5,215.5 282.2,216.3 280.7,217.0 278.9,217.8 276.9,218.5 274.6,219.3 272.0,220.0 269.3,220.8 266.5,221.5 263.6,222.3 260.8,223.0 258.2,223.8 255.8,224.5 253.7,225.3 251.9,226.0 250.6,226.8 249.8,227.6 249.5,228.3 249.7,229.1 250.5,229.8 251.8,230.6 253.6,231.3 255.8,232.1 258.4,232.8 261.2,233.6 264.2,234.3 267.2,235.1 270.2,235.8 273.0,236.6 275.7,237.3 278.0,238.1 280.1,238.8 281.9,239.6 283.3,240.3" fill="#2a8" opacity="0.5" stroke="#2a8" stroke-width="1"/>
<line x1="250.9" y1="226.60600012322595" x2="324.6" y2="226.60600012322595" stroke="#114" stroke-width="2"/>
<circle cx="287.77777777777777" cy="231.7713258363968" r="2.4" fill="#114"/>
<text x="287.77777777777777" y="186.29474124119795" text-anchor="middle" font-size="11">1.03</text>
<text x="287.77777777777777" y="376" text-anchor="middle" font-size="12">ger</text>
<polygon points="387.4,239.1 389.9,237.9 392.7,236.7 395.8,235.5 399.2,234.3 402.7,233.0 406.2,231.8 409.4,230.6 412.3,229.4 414.6,228.2 416.2,227.0 417.1,225.8 417.2,224.6 416.4,223.4 415.0,222.2 412.9,221.0 410.4,219.8 407.5,218.6 404.5,217.4 401.4,216.2 398.4,215.0 395.6,213.8 393.1,212.6 390.9,211.4 389.2,210.2 387.8,209.0 386.7,207.8 386.1,206.6 385.7,205.4 385.7,204.2 385.8,203.0 386.1,201.8 386.5,200.6 386.9,199.4 387.3,198.2 387.6,197.0 387.9,195.8 388.0,194.6 388.1,193.4 388.1,192.2 388.1,191.0 388.1,189.8 388.1,188.6 388.0,187.4 388.1,186.2 388.1,185.0 388.1,183.8 388.1,182.6 388.0,181.4 387.9,180.2 387.6,179.0 387.2,177.8 386.8,176.6 386.2,175.4 385.5,174.2 384.9,173.0 384.2,171.8 383.5,170.6 382.8,169.4 382.2,168.2 381.7,167.0 381.3,165.8 380.9,164.6 380.6,163.4 380.4,162.2 380.2,161.0 380.0,159.8 379.8,158.6 379.7,157.4 379.5,156.2 379.4,155.0 379.3,153.8 378.5,153.8 378.4,155.0 378.2,156.2 378.1,157.4 378.0,158.6 377.8,159.8 377.6,161.0 377.4,162.2 377.2,163.4 376.9,164.6 376.5,165.8 376.0,167.0 375.5,168.2 375.0,169.4 374.3,170.6 373.6,171.8 372.9,173.0 372.2,174.2 371.6,175.4 371.0,176.6 370.5,177.8 370.2,179.0 369.9,180.2 369.8,181.4 369.7,182.6 369.7,183.8 369.7,185.0 369.7,186.2 369.7,187.4 369.7,188.6 369.7,189.8 369.7,191.0 369.6,192.2 369.7,193.4 369.8,194.6 369.9,195.8 370.2,197.0 370.5,198.2 370.9,199.4 371.3,200.6 371.7,201.8 372.0,203.0 372.1,204.2 372.0,205.4 371.7,206.6 371.0,207.8 370.0,209.0 368.6,210.2 366.8,211.4 364.7,212.6 362.2,213.8 359.4,215.0 356.4,216.2 353.3,217.4 350.3,218.6 347.4,219.8 344.8,221.0 342.8,222.2 341.3,223.4 340.6,224.6 340.7,225.8 341.6,227.0 343.2,228.2 345.5,229.4 348.4,230.6 351.6,231.8 355.1,233.0 358.6,234.3 361.9,235.5 365.1,236.7 367.9,237.9 370.4,239.1" fill="#2a8" opacity="0.5" stroke="#2a8" stroke-width="1"/>
<line x1="341.4" y1="223.32295971092032" x2="416.3" y2="223.32295971092032" stroke="#114" stroke-width="2"/>
<circle cx="378.8888888888889" cy="228.77231839620643" r="2.4" fill="#114"/>
<text x="378.8888888888889" y="156.2238509172368" text-anchor="middle" font-size="11">1.06</text>
<text x="378.8888888888889" y="376" text-anchor="middle" font-size="12">symv</text>
<polygon points="473.4,239.6 474.6,238.2 476.1,236.9 477.9,235.6 480.1,234.3 482.7,233.0 485.5,231.6 488.6,230.3 491.9,229.0 495.2,227.7 498.4,226.4 501.4,225.0 504.0,223.7 506.1,222.4 507.5,221.1 508.2,219.8 508.3,218.4 507.6,217.1 506.3,215.8 504.5,214.5 502.3,213.1 500.0,211.8 497.5,210.5 495.1,209.2 492.8,207.9 490.8,206.5 489.2,205.2 487.8,203.9 486.8,202.6 486.0,201.3 485.6,199.9 485.3,198.6 485.2,197.3 485.1,196.0 485.1,194.6 485.1,193.3 485.0,192.0 484.9,190.7 484.6,189.4 484.1,188.0 483.5,186.7 482.7,185.4 481.9,184.1 480.9,182.8 479.9,181.4 478.9,180.1 478.0,178.8 477.2,177.5 476.5,176.2 476.0,174.8 475.7,173.5 475.6,172.2 475.8,170.9 476.1,169.5 476.5,168.2 477.0,166.9 477.6,165.6 478.2,164.3 478.7,162.9 479.0,161.6 479.2,160.3 479.2,159.0 479.0,157.7 478.7,156.3 478.1,155.0 477.4,153.7 476.6,152.4 475.8,151.1 475.0,149.7 474.1,148.4 473.4,147.1 472.7,145.8 467.3,145.8 466.6,147.1 465.9,148.4 465.0,149.7 464.2,151.1 463.4,152.4 462.6,153.7 461.9,155.0 461.3,156.3 461.0,157.7 460.8,159.0 460.8,160.3 461.0,161.6 461.3,162.9 461.8,164.3 462.4,165.6 463.0,166.9 463.5,168.2 463.9,169.5 464.2,170.9 464.4,172.2 464.3,173.5 464.0,174.8 463.5,176.2 462.8,177.5 462.0,178.8 461.1,180.1 460.1,181.4 459.1,182.8 458.1,184.1 457.3,185.4 456.5,186.7 455.9,188.0 455.4,189.4 455.1,190.7 455.0,192.0 454.9,193.3 454.9,194.6 454.9,196.0 454.8,197.3 454.7,198.6 454.4,199.9 454.0,201.3 453.2,202.6 452.2,203.9 450.8,205.2 449.2,206.5 447.2,207.9 444.9,209.2 442.5,210.5 440.0,211.8 437.7,213.1 435.5,214.5 433.7,215.8 432.4,217.1 431.7,218.4 431.8,219.8 432.5,221.1 433.9,222.4 436.0,223.7 438.6,225.0 441.6,226.4 444.8,227.7 448.1,229.0 451.4,230.3 454.5,231.6 457.3,233.0 459.9,234.3 462.1,235.6 463.9,236.9 465.4,238.2 466.6,239.6" fill="#2a8" opacity="0.5" stroke="#2a8" stroke-width="1"/>
<line x1="433.2" y1="216.2410127393287" x2="506.8" y2="216.2410127393287" stroke="#114" stroke-width="2"/>
<circle cx="470.0" cy="220.60458377344463" r="2.4" fill="#114"/>
<text x="470.0" y="149.0494263322929" text-anchor="middle" font-size="11">1.11</text>
<text x="470.0" y="376" text-anchor="middle" font-size="12">trmv</text>
<polygon points="567.7,237.1 569.7,235.6 572.1,234.0 574.9,232.5 577.9,231.0 581.2,229.5 584.6,227.9 588.0,226.4 591.2,224.9 594.0,223.4 596.4,221.8 598.1,220.3 599.1,218.8 599.4,217.3 598.9,215.7 597.7,214.2 595.9,212.7 593.7,211.2 591.2,209.6 588.5,208.1 585.9,206.6 583.4,205.1 581.1,203.5 579.1,202.0 577.5,200.5 576.3,199.0 575.5,197.5 574.9,195.9 574.7,194.4 574.6,192.9 574.7,191.4 575.0,189.8 575.3,188.3 575.6,186.8 576.0,185.3 576.3,183.7 576.6,182.2 576.9,180.7 577.0,179.2 577.2,177.6 577.2,176.1 577.2,174.6 577.1,173.1 576.9,171.5 576.7,170.0 576.5,168.5 576.2,167.0 575.9,165.5 575.7,163.9 575.4,162.4 575.1,160.9 574.8,159.4 574.4,157.8 573.9,156.3 573.3,154.8 572.6,153.3 571.8,151.7 570.9,150.2 569.9,148.7 568.9,147.2 567.9,145.6 566.9,144.1 566.0,142.6 565.2,141.1 564.4,139.5 563.8,138.0 563.2,136.5 562.8,135.0 562.4,133.5 562.1,131.9 561.9,130.4 561.7,128.9 560.6,128.9 560.4,130.4 560.1,131.9 559.8,133.5 559.5,135.0 559.0,136.5 558.5,138.0 557.8,139.5 557.1,141.1 556.2,142.6 555.3,144.1 554.3,145.6 553.3,147.2 552.3,148.7 551.3,150.2 550.4,151.7 549.6,153.3 548.9,154.8 548.3,156.3 547.8,157.8 547.4,159.4 547.1,160.9 546.8,162.4 546.5,163.9 546.3,165.5 546.0,167.0 545.8,168.5 545.5,170.0 545.3,171.5 545.2,173.1 545.1,174.6 545.0,176.1 545.1,177.6 545.2,179.2 545.4,180.7 545.6,182.2 545.9,183.7 546.2,185.3 546.6,186.8 546.9,188.3 547.2,189.8 547.5,191.4 547.6,192.9 547.6,194.4 547.3,195.9 546.8,197.5 545.9,199.0 544.7,200.5 543.1,202.0 541.1,203.5 538.9,205.1 536.4,206.6 533.7,208.1 531.0,209.6 528.5,211.2 526.3,212.7 524.5,214.2 523.3,215.7 522.8,217.3 523.1,218.8 524.1,220.3 525.8,221.8 528.2,223.4 531.0,224.9 534.2,226.4 537.6,227.9 541.0,229.5 544.3,231.0 547.4,232.5 550.1,234.0 552.5,235.6 554.5,237.1" fill="#2a8" opacity="0.5" stroke="#2a8" stroke-width="1"/>
<line x1="529.0" y1="210.8660289042185" x2="593.2" y2="210.8660289042185" stroke="#114" stroke-width="2"/>
<circle cx="561.1111111111111" cy="219.71844919461583" r="2.4" fill="#114"/>
<text x="561.1111111111111" y="133.55445638105277" text-anchor="middle" font-size="11">1.16</text>
<text x="561.1111111111111" y="376" text-anchor="middle" font-size="12">trsv</text>
<polygon points="664.4,256.7 666.8,253.8 669.3,250.9 671.9,248.0 674.6,245.1 677.2,242.1 679.8,239.2 682.2,236.3 684.4,233.4 686.3,230.5 687.9,227.6 689.1,224.7 689.9,221.8 690.4,218.9 690.5,215.9 690.3,213.0 689.7,210.1 688.9,207.2 687.8,204.3 686.5,201.4 685.1,198.5 683.5,195.6 681.7,192.7 679.9,189.7 678.1,186.8 676.2,183.9 674.4,181.0 672.6,178.1 670.9,175.2 669.3,172.3 667.9,169.4 666.7,166.5 665.7,163.5 664.9,160.6 664.4,157.7 664.0,154.8 663.8,151.9 663.8,149.0 663.8,146.1 663.9,143.2 664.0,140.2 664.1,137.3 664.1,134.4 664.0,131.5 663.9,128.6 663.6,125.7 663.2,122.8 662.8,119.9 662.4,117.0 662.0,114.0 661.6,111.1 661.4,108.2 661.2,105.3 661.1,102.4 661.2,99.5 661.3,96.6 661.5,93.7 661.8,90.8 662.1,87.8 662.3,84.9 662.5,82.0 662.6,79.1 662.5,76.2 662.4,73.3 662.0,70.4 661.6,67.5 661.0,64.6 660.3,61.6 659.5,58.7 658.7,55.8 657.9,52.9 657.1,50.0 647.3,50.0 646.5,52.9 645.7,55.8 644.9,58.7 644.1,61.6 643.5,64.6 642.9,67.5 642.4,70.4 642.1,73.3 641.9,76.2 641.9,79.1 642.0,82.0 642.1,84.9 642.4,87.8 642.7,90.8 642.9,93.7 643.1,96.6 643.3,99.5 643.3,102.4 643.3,105.3 643.1,108.2 642.8,111.1 642.4,114.0 642.0,117.0 641.6,119.9 641.2,122.8 640.9,125.7 640.6,128.6 640.4,131.5 640.3,134.4 640.3,137.3 640.4,140.2 640.5,143.2 640.6,146.1 640.7,149.0 640.6,151.9 640.4,154.8 640.1,157.7 639.5,160.6 638.7,163.5 637.7,166.5 636.5,169.4 635.1,172.3 633.5,175.2 631.8,178.1 630.1,181.0 628.2,183.9 626.3,186.8 624.5,189.7 622.7,192.7 621.0,195.6 619.4,198.5 617.9,201.4 616.6,204.3 615.6,207.2 614.7,210.1 614.2,213.0 614.0,215.9 614.1,218.9 614.5,221.8 615.4,224.7 616.6,227.6 618.1,230.5 620.0,233.4 622.2,236.3 624.6,239.2 627.2,242.1 629.9,245.1 632.5,248.0 635.2,250.9 637.7,253.8 640.0,256.7" fill="#2a8" opacity="0.5" stroke="#2a8" stroke-width="1"/>
<line x1="618.4" y1="200.43200684772154" x2="686.1" y2="200.43200684772154" stroke="#114" stroke-width="2"/>
<circle cx="652.2222222222223" cy="232.69924315730512" r="2.4" fill="#114"/>
<text x="652.2222222222223" y="61.43396226415098" text-anchor="middle" font-size="11">1.24</text>
<text x="652.2222222222223" y="376" text-anchor="middle" font-size="12">spmv</text>
<polygon points="743.4,241.4 743.4,240.8 743.5,240.2 743.6,239.6 743.7,239.0 743.8,238.4 743.9,237.8 744.0,237.2 744.0,236.6 744.0,236.0 744.1,235.3 744.1,234.7 744.2,234.1 744.3,233.5 744.4,232.9 744.5,232.3 744.7,231.7 744.9,231.1 745.2,230.5 745.8,229.9 746.6,229.3 747.7,228.7 749.2,228.1 750.9,227.5 753.0,226.9 755.2,226.3 757.7,225.6 760.4,225.0 763.3,224.4 766.6,223.8 770.1,223.2 773.6,222.6 776.9,222.0 779.6,221.4 781.2,220.8 781.6,220.2 780.7,219.6 778.7,219.0 775.9,218.4 772.6,217.8 769.0,217.2 765.3,216.6 761.7,215.9 758.3,215.3 755.4,214.7 753.1,214.1 751.7,213.5 751.0,212.9 750.9,212.3 751.2,211.7 751.6,211.1 751.8,210.5 751.7,209.9 751.3,209.3 750.5,208.7 749.4,208.1 748.3,207.5 747.3,206.8 746.5,206.2 745.9,205.6 745.4,205.0 745.2,204.4 744.9,203.8 744.7,203.2 744.5,202.6 744.3,202.0 744.1,201.4 743.9,200.8 743.7,200.2 743.6,199.6 743.5,199.0 743.4,198.4 743.3,198.4 743.2,199.0 743.1,199.6 743.0,200.2 742.8,200.8 742.6,201.4 742.4,202.0 742.2,202.6 742.0,203.2 741.7,203.8 741.5,204.4 741.2,205.0 740.8,205.6 740.2,206.2 739.4,206.8 738.3,207.5 737.2,208.1 736.2,208.7 735.4,209.3 734.9,209.9 734.9,210.5 735.1,211.1 735.5,211.7 735.8,212.3 735.7,212.9 735.0,213.5 733.5,214.1 731.3,214.7 728.3,215.3 725.0,215.9 721.3,216.6 717.6,217.2 714.1,217.8 710.8,218.4 708.0,219.0 706.0,219.6 705.1,220.2 705.4,220.8 707.1,221.4 709.7,222.0 713.0,222.6 716.6,223.2 720.1,223.8 723.4,224.4 726.3,225.0 729.0,225.6 731.4,226.3 733.7,226.9 735.7,227.5 737.5,228.1 739.0,228.7 740.1,229.3 740.9,229.9 741.4,230.5 741.8,231.1 742.0,231.7 742.2,232.3 742.3,232.9 742.4,233.5 742.5,234.1 742.5,234.7 742.6,235.3 742.6,236.0 742.7,236.6 742.7,237.2 742.8,237.8 742.9,238.4 743.0,239.0 743.1,239.6 743.2,240.2 743.2,240.8 743.3,241.4" fill="#2a8" opacity="0.5" stroke="#2a8" stroke-width="1"/>
<line x1="705.1" y1="220.21360072055447" x2="781.6" y2="220.21360072055447" stroke="#114" stroke-width="2"/>
<circle cx="743.3333333333334" cy="223.58639822805236" r="2.4" fill="#114"/>
<text x="743.3333333333334" y="196.73130732018558" text-anchor="middle" font-size="11">1.08</text>
<text x="743.3333333333334" y="376" text-anchor="middle" font-size="12">gbmvN</text>
<polygon points="834.9,161.2 835.1,160.5 835.5,159.8 836.0,159.1 836.7,158.4 837.6,157.7 838.8,156.9 840.4,156.2 842.4,155.5 844.9,154.8 847.8,154.1 851.0,153.4 854.6,152.7 858.3,152.0 862.0,151.3 865.5,150.6 868.4,149.9 870.7,149.2 872.2,148.5 872.7,147.8 872.3,147.1 871.1,146.4 869.2,145.7 866.7,145.0 863.9,144.3 861.0,143.5 858.1,142.8 855.4,142.1 852.9,141.4 850.8,140.7 849.0,140.0 847.6,139.3 846.4,138.6 845.4,137.9 844.6,137.2 843.9,136.5 843.2,135.8 842.7,135.1 842.1,134.4 841.7,133.7 841.3,133.0 841.0,132.3 840.8,131.6 840.7,130.9 840.8,130.1 840.9,129.4 841.1,128.7 841.3,128.0 841.5,127.3 841.6,126.6 841.7,125.9 841.6,125.2 841.5,124.5 841.3,123.8 841.0,123.1 840.6,122.4 840.2,121.7 839.8,121.0 839.4,120.3 838.9,119.6 838.4,118.9 838.0,118.2 837.5,117.5 837.1,116.7 836.7,116.0 836.3,115.3 835.9,114.6 835.6,113.9 835.4,113.2 835.1,112.5 835.0,111.8 834.8,111.1 834.1,111.1 833.9,111.8 833.8,112.5 833.5,113.2 833.3,113.9 833.0,114.6 832.6,115.3 832.2,116.0 831.8,116.7 831.4,117.5 830.9,118.2 830.4,118.9 830.0,119.6 829.5,120.3 829.1,121.0 828.7,121.7 828.3,122.4 827.9,123.1 827.6,123.8 827.4,124.5 827.3,125.2 827.2,125.9 827.3,126.6 827.4,127.3 827.6,128.0 827.8,128.7 828.0,129.4 828.1,130.1 828.1,130.9 828.1,131.6 827.9,132.3 827.6,133.0 827.2,133.7 826.7,134.4 826.2,135.1 825.6,135.8 825.0,136.5 824.3,137.2 823.5,137.9 822.5,138.6 821.3,139.3 819.8,140.0 818.1,140.7 815.9,141.4 813.5,142.1 810.8,142.8 807.9,143.5 805.0,144.3 802.2,145.0 799.7,145.7 797.8,146.4 796.5,147.1 796.2,147.8 796.7,148.5 798.2,149.2 800.5,149.9 803.4,150.6 806.9,151.3 810.5,152.0 814.3,152.7 817.8,153.4 821.1,154.1 824.0,154.8 826.5,155.5 828.5,156.2 830.1,156.9 831.3,157.7 832.2,158.4 832.9,159.1 833.4,159.8 833.7,160.5 834.0,161.2" fill="#2a8" opacity="0.5" stroke="#2a8" stroke-width="1"/>
<line x1="797.1" y1="146.68103142156363" x2="871.8" y2="146.68103142156363" stroke="#114" stroke-width="2"/>
<circle cx="834.4444444444445" cy="149.40124599462507" r="2.4" fill="#114"/>
<text x="834.4444444444445" y="110.15459074374444" text-anchor="middle" font-size="11">1.66</text>
<text x="834.4444444444445" y="376" text-anchor="middle" font-size="12">sbmv</text>
<text x="450.0" y="428" text-anchor="middle" font-size="11" fill="#666">violin = ratio distribution over sizes · line = median · dark dot = worst size · green = every size ≥ gate</text>
</svg>
