<svg xmlns="http://www.w3.org/2000/svg" width="900" height="440" font-family="sans-serif">
<rect width="900" height="440" fill="white"/>
<text x="450.0" y="28" text-anchor="middle" font-size="18" font-weight="bold">BLAS-2: PureBLAS / OpenBLAS (AVX2, 1 thread, Float64)</text>
<line x1="60" y1="358.0" x2="880" y2="358.0" stroke="#eee"/>
<text x="52" y="362.0" text-anchor="end" font-size="11" fill="#666">0×</text>
<line x1="60" y1="299.2205339396478" x2="880" y2="299.2205339396478" stroke="#eee"/>
<text x="52" y="303.2205339396478" text-anchor="end" font-size="11" fill="#666">0.5×</text>
<line x1="60" y1="240.44106787929556" x2="880" y2="240.44106787929556" stroke="#eee"/>
<text x="52" y="244.44106787929556" text-anchor="end" font-size="11" fill="#666">1×</text>
<line x1="60" y1="181.66160181894332" x2="880" y2="181.66160181894332" stroke="#eee"/>
<text x="52" y="185.66160181894332" text-anchor="end" font-size="11" fill="#666">1.5×</text>
<line x1="60" y1="240.44106787929556" x2="880" y2="240.44106787929556" stroke="#888" stroke-width="1"/>
<line x1="60" y1="245.14342516412376" x2="880" y2="245.14342516412376" stroke="#d33" stroke-width="1.5" stroke-dasharray="6 4"/>
<text x="880" y="240.14342516412376" text-anchor="end" font-size="11" fill="#d33">0.96× gate</text>
<polygon points="109.5,257.3 111.5,255.5 114.1,253.7 117.4,251.8 121.2,250.0 125.4,248.2 129.8,246.4 134.1,244.6 138.0,242.8 141.0,241.0 143.0,239.2 143.8,237.4 143.4,235.5 141.8,233.7 139.1,231.9 135.7,230.1 131.8,228.3 127.8,226.5 123.7,224.7 119.9,222.9 116.6,221.1 113.7,219.3 111.4,217.4 109.6,215.6 108.2,213.8 107.3,212.0 106.7,210.2 106.3,208.4 106.1,206.6 106.0,204.8 106.1,203.0 106.3,201.1 106.6,199.3 107.1,197.5 107.6,195.7 108.3,193.9 109.1,192.1 109.9,190.3 110.7,188.5 111.3,186.7 111.8,184.9 112.0,183.0 112.0,181.2 111.7,179.4 111.2,177.6 110.5,175.8 109.8,174.0 109.0,172.2 108.3,170.4 107.7,168.6 107.2,166.8 106.8,164.9 106.5,163.1 106.3,161.3 106.1,159.5 106.0,157.7 105.9,155.9 105.9,154.1 105.9,152.3 105.9,150.5 105.9,148.6 105.9,146.8 105.9,145.0 105.9,143.2 105.9,141.4 105.9,139.6 105.9,137.8 105.9,136.0 105.8,134.2 105.8,132.4 105.7,130.5 105.7,128.7 105.4,128.7 105.4,130.5 105.3,132.4 105.3,134.2 105.2,136.0 105.2,137.8 105.2,139.6 105.2,141.4 105.2,143.2 105.2,145.0 105.2,146.8 105.2,148.6 105.2,150.5 105.2,152.3 105.2,154.1 105.2,155.9 105.1,157.7 105.0,159.5 104.8,161.3 104.6,163.1 104.3,164.9 103.9,166.8 103.4,168.6 102.8,170.4 102.1,172.2 101.3,174.0 100.6,175.8 99.9,177.6 99.4,179.4 99.1,181.2 99.1,183.0 99.3,184.9 99.8,186.7 100.5,188.5 101.2,190.3 102.0,192.1 102.8,193.9 103.5,195.7 104.1,197.5 104.5,199.3 104.8,201.1 105.0,203.0 105.1,204.8 105.0,206.6 104.8,208.4 104.4,210.2 103.8,212.0 102.9,213.8 101.5,215.6 99.7,217.4 97.4,219.3 94.6,221.1 91.2,222.9 87.4,224.7 83.4,226.5 79.3,228.3 75.4,230.1 72.0,231.9 69.4,233.7 67.7,235.5 67.3,237.4 68.1,239.2 70.1,241.0 73.2,242.8 77.0,244.6 81.3,246.4 85.7,248.2 89.9,250.0 93.8,251.8 97.0,253.7 99.6,255.5 101.6,257.3" fill="#2a8" opacity="0.5" stroke="#2a8" stroke-width="1"/>
<line x1="67.5" y1="236.07447217602083" x2="143.6" y2="236.07447217602083" stroke="#114" stroke-width="2"/>
<circle cx="105.55555555555556" cy="242.52793657440336" r="2.4" fill="#114"/>
<text x="105.55555555555556" y="135.36266929410834" text-anchor="middle" font-size="11">1.04</text>
<text x="105.55555555555556" y="376" text-anchor="middle" font-size="12">gemvN</text>
<polygon points="197.0,245.7 197.2,245.4 197.4,245.0 197.7,244.7 198.0,244.3 198.3,243.9 198.7,243.6 199.0,243.2 199.4,242.9 200.0,242.5 200.7,242.2 201.7,241.8 203.2,241.5 205.3,241.1 208.0,240.8 211.5,240.4 215.5,240.1 219.9,239.7 224.3,239.4 228.3,239.0 231.6,238.6 233.9,238.3 234.9,237.9 234.8,237.6 233.7,237.2 232.0,236.9 230.0,236.5 228.1,236.2 226.6,235.8 225.6,235.5 225.1,235.1 225.0,234.8 225.1,234.4 225.3,234.1 225.3,233.7 225.3,233.4 225.1,233.0 225.1,232.6 225.1,232.3 225.3,231.9 225.6,231.6 226.0,231.2 226.3,230.9 226.2,230.5 225.6,230.2 224.4,229.8 222.7,229.5 220.4,229.1 217.8,228.8 215.1,228.4 212.4,228.1 210.0,227.7 207.8,227.3 205.9,227.0 204.3,226.6 203.1,226.3 202.0,225.9 201.2,225.6 200.4,225.2 199.8,224.9 199.3,224.5 198.9,224.2 198.6,223.8 198.3,223.5 198.0,223.1 197.8,222.8 197.6,222.4 197.4,222.0 197.2,221.7 197.1,221.3 197.0,221.0 196.9,220.6 196.5,220.6 196.4,221.0 196.3,221.3 196.1,221.7 196.0,222.0 195.8,222.4 195.6,222.8 195.3,223.1 195.1,223.5 194.8,223.8 194.4,224.2 194.0,224.5 193.5,224.9 192.9,225.2 192.2,225.6 191.3,225.9 190.3,226.3 189.0,226.6 187.4,227.0 185.6,227.3 183.4,227.7 180.9,228.1 178.2,228.4 175.5,228.8 172.9,229.1 170.7,229.5 168.9,229.8 167.7,230.2 167.2,230.5 167.1,230.9 167.3,231.2 167.7,231.6 168.0,231.9 168.3,232.3 168.3,232.6 168.2,233.0 168.1,233.4 168.0,233.7 168.1,234.1 168.2,234.4 168.3,234.8 168.2,235.1 167.7,235.5 166.7,235.8 165.2,236.2 163.3,236.5 161.4,236.9 159.6,237.2 158.5,237.6 158.4,237.9 159.4,238.3 161.7,238.6 165.0,239.0 169.0,239.4 173.5,239.7 177.8,240.1 181.9,240.4 185.3,240.8 188.1,241.1 190.2,241.5 191.6,241.8 192.7,242.2 193.4,242.5 193.9,242.9 194.3,243.2 194.7,243.6 195.0,243.9 195.3,244.3 195.6,244.7 195.9,245.0 196.1,245.4 196.3,245.7" fill="#2a8" opacity="0.5" stroke="#2a8" stroke-width="1"/>
<line x1="168.2" y1="234.2751661833927" x2="225.2" y2="234.2751661833927" stroke="#114" stroke-width="2"/>
<circle cx="196.66666666666669" cy="238.39952964281116" r="2.4" fill="#114"/>
<text x="196.66666666666669" y="217.251624367171" text-anchor="middle" font-size="11">1.05</text>
<text x="196.66666666666669" y="376" text-anchor="middle" font-size="12">gemvT</text>
<polygon points="293.8,248.9 295.7,248.2 297.8,247.4 300.4,246.7 303.2,246.0 306.2,245.3 309.5,244.5 312.7,243.8 315.9,243.1 318.8,242.4 321.4,241.6 323.5,240.9 325.0,240.2 325.9,239.5 326.0,238.8 325.6,238.0 324.4,237.3 322.7,236.6 320.5,235.9 318.0,235.1 315.1,234.4 312.1,233.7 309.1,233.0 306.2,232.3 303.4,231.5 300.8,230.8 298.4,230.1 296.4,229.4 294.6,228.6 293.1,227.9 291.9,227.2 291.0,226.5 290.2,225.8 289.7,225.0 289.2,224.3 288.9,223.6 288.7,222.9 288.5,222.1 288.4,221.4 288.4,220.7 288.4,220.0 288.4,219.2 288.4,218.5 288.5,217.8 288.7,217.1 288.9,216.4 289.2,215.6 289.5,214.9 289.9,214.2 290.4,213.5 290.9,212.7 291.5,212.0 292.0,211.3 292.6,210.6 293.1,209.9 293.6,209.1 293.9,208.4 294.2,207.7 294.3,207.0 294.3,206.2 294.1,205.5 293.9,204.8 293.5,204.1 293.0,203.4 292.5,202.6 291.9,201.9 291.3,201.2 290.8,200.5 290.3,199.7 289.8,199.0 289.4,198.3 289.0,197.6 286.5,197.6 286.2,198.3 285.8,199.0 285.3,199.7 284.8,200.5 284.2,201.2 283.6,201.9 283.1,202.6 282.5,203.4 282.1,204.1 281.7,204.8 281.4,205.5 281.3,206.2 281.3,207.0 281.4,207.7 281.6,208.4 282.0,209.1 282.5,209.9 283.0,210.6 283.5,211.3 284.1,212.0 284.7,212.7 285.2,213.5 285.6,214.2 286.0,214.9 286.4,215.6 286.7,216.4 286.9,217.1 287.0,217.8 287.1,218.5 287.2,219.2 287.2,220.0 287.2,220.7 287.1,221.4 287.0,222.1 286.9,222.9 286.6,223.6 286.3,224.3 285.9,225.0 285.3,225.8 284.6,226.5 283.6,227.2 282.4,227.9 280.9,228.6 279.2,229.4 277.1,230.1 274.8,230.8 272.2,231.5 269.4,232.3 266.4,233.0 263.4,233.7 260.4,234.4 257.6,235.1 255.0,235.9 252.8,236.6 251.1,237.3 250.0,238.0 249.5,238.8 249.7,239.5 250.6,240.2 252.1,240.9 254.2,241.6 256.8,242.4 259.7,243.1 262.9,243.8 266.1,244.5 269.3,245.3 272.4,246.0 275.2,246.7 277.7,247.4 279.9,248.2 281.7,248.9" fill="#2a8" opacity="0.5" stroke="#2a8" stroke-width="1"/>
<line x1="249.7" y1="238.36712652931803" x2="325.9" y2="238.36712652931803" stroke="#114" stroke-width="2"/>
<circle cx="287.77777777777777" cy="241.7830663527347" r="2.4" fill="#114"/>
<text x="287.77777777777777" y="196.72452222746415" text-anchor="middle" font-size="11">1.02</text>
<text x="287.77777777777777" y="376" text-anchor="middle" font-size="12">ger</text>
<polygon points="381.1,254.6 382.0,253.5 383.1,252.4 384.4,251.4 386.2,250.3 388.2,249.2 390.6,248.1 393.3,247.0 396.2,246.0 399.4,244.9 402.6,243.8 405.9,242.7 408.9,241.6 411.6,240.6 413.9,239.5 415.6,238.4 416.7,237.3 417.2,236.2 416.9,235.2 416.0,234.1 414.5,233.0 412.5,231.9 410.2,230.8 407.7,229.7 405.0,228.7 402.4,227.6 399.8,226.5 397.3,225.4 395.1,224.3 393.2,223.3 391.5,222.2 390.2,221.1 389.1,220.0 388.3,218.9 387.8,217.9 387.5,216.8 387.5,215.7 387.5,214.6 387.7,213.5 387.9,212.5 388.0,211.4 388.2,210.3 388.2,209.2 388.2,208.1 388.0,207.1 387.8,206.0 387.6,204.9 387.3,203.8 387.1,202.7 386.9,201.6 386.8,200.6 386.8,199.5 387.0,198.4 387.2,197.3 387.5,196.2 387.8,195.2 388.1,194.1 388.3,193.0 388.3,191.9 388.3,190.8 388.0,189.8 387.6,188.7 387.0,187.6 386.3,186.5 385.5,185.4 384.7,184.4 383.9,183.3 383.1,182.2 382.3,181.1 381.6,180.0 381.0,179.0 380.5,177.9 377.3,177.9 376.8,179.0 376.2,180.0 375.5,181.1 374.7,182.2 373.9,183.3 373.1,184.4 372.2,185.4 371.5,186.5 370.8,187.6 370.2,188.7 369.8,189.8 369.5,190.8 369.4,191.9 369.5,193.0 369.7,194.1 370.0,195.2 370.3,196.2 370.6,197.3 370.8,198.4 370.9,199.5 371.0,200.6 370.9,201.6 370.7,202.7 370.5,203.8 370.2,204.9 370.0,206.0 369.7,207.1 369.6,208.1 369.6,209.2 369.6,210.3 369.7,211.4 369.9,212.5 370.1,213.5 370.3,214.6 370.3,215.7 370.2,216.8 370.0,217.9 369.4,218.9 368.7,220.0 367.6,221.1 366.2,222.2 364.6,223.3 362.6,224.3 360.4,225.4 358.0,226.5 355.4,227.6 352.8,228.7 350.1,229.7 347.5,230.8 345.2,231.9 343.3,233.0 341.8,234.1 340.9,235.2 340.6,236.2 341.0,237.3 342.1,238.4 343.9,239.5 346.2,240.6 348.9,241.6 351.9,242.7 355.1,243.8 358.4,244.9 361.5,246.0 364.5,247.0 367.2,248.1 369.6,249.2 371.6,250.3 373.3,251.4 374.7,252.4 375.8,253.5 376.7,254.6" fill="#2a8" opacity="0.5" stroke="#2a8" stroke-width="1"/>
<line x1="342.0" y1="233.92285497301606" x2="415.8" y2="233.92285497301606" stroke="#114" stroke-width="2"/>
<circle cx="378.8888888888889" cy="239.31072030921564" r="2.4" fill="#114"/>
<text x="378.8888888888889" y="179.48838400495217" text-anchor="middle" font-size="11">1.06</text>
<text x="378.8888888888889" y="376" text-anchor="middle" font-size="12">symv</text>
<polygon points="471.2,255.5 472.1,253.4 473.6,251.2 475.7,249.1 478.7,246.9 482.7,244.8 487.4,242.7 492.6,240.5 497.8,238.4 502.5,236.3 506.1,234.1 508.0,232.0 508.3,229.9 506.9,227.7 504.2,225.6 500.8,223.4 497.3,221.3 494.1,219.2 491.5,217.0 489.4,214.9 487.9,212.8 486.9,210.6 486.1,208.5 485.3,206.4 484.6,204.2 483.7,202.1 482.7,200.0 481.4,197.8 480.1,195.7 478.8,193.5 477.8,191.4 477.0,189.3 476.8,187.1 476.9,185.0 477.5,182.9 478.2,180.7 478.9,178.6 479.4,176.5 479.4,174.3 479.0,172.2 478.1,170.0 476.9,167.9 475.5,165.8 474.2,163.6 473.0,161.5 472.0,159.4 471.3,157.2 470.7,155.1 470.4,153.0 470.2,150.8 470.1,148.7 470.1,146.6 470.0,144.4 470.0,142.3 470.0,140.1 470.0,138.0 470.1,135.9 470.1,133.7 470.2,131.6 470.2,129.5 470.3,127.3 470.4,125.2 470.4,123.1 470.5,120.9 470.5,118.8 470.5,116.6 470.4,114.5 470.4,112.4 470.3,110.2 470.2,108.1 470.2,106.0 470.1,103.8 469.9,103.8 469.8,106.0 469.8,108.1 469.7,110.2 469.6,112.4 469.6,114.5 469.5,116.6 469.5,118.8 469.5,120.9 469.6,123.1 469.6,125.2 469.7,127.3 469.8,129.5 469.8,131.6 469.9,133.7 469.9,135.9 470.0,138.0 470.0,140.1 470.0,142.3 470.0,144.4 469.9,146.6 469.9,148.7 469.8,150.8 469.6,153.0 469.3,155.1 468.7,157.2 468.0,159.4 467.0,161.5 465.8,163.6 464.5,165.8 463.1,167.9 461.9,170.0 461.0,172.2 460.6,174.3 460.6,176.5 461.1,178.6 461.8,180.7 462.5,182.9 463.1,185.0 463.2,187.1 463.0,189.3 462.2,191.4 461.2,193.5 459.9,195.7 458.6,197.8 457.3,200.0 456.3,202.1 455.4,204.2 454.7,206.4 453.9,208.5 453.1,210.6 452.1,212.8 450.6,214.9 448.5,217.0 445.9,219.2 442.7,221.3 439.2,223.4 435.8,225.6 433.1,227.7 431.7,229.9 432.0,232.0 433.9,234.1 437.5,236.3 442.2,238.4 447.4,240.5 452.6,242.7 457.3,244.8 461.3,246.9 464.3,249.1 466.4,251.2 467.9,253.4 468.8,255.5" fill="#2a8" opacity="0.5" stroke="#2a8" stroke-width="1"/>
<line x1="433.0" y1="227.91092339392594" x2="507.0" y2="227.91092339392594" stroke="#114" stroke-width="2"/>
<circle cx="470.0" cy="232.88407373180172" r="2.4" fill="#114"/>
<text x="470.0" y="112.69976529456315" text-anchor="middle" font-size="11">1.11</text>
<text x="470.0" y="376" text-anchor="middle" font-size="12">trmv</text>
<polygon points="567.5,248.9 569.3,247.6 571.4,246.2 573.9,244.8 576.6,243.5 579.6,242.1 582.7,240.7 585.9,239.4 589.0,238.0 591.9,236.6 594.5,235.3 596.6,233.9 598.2,232.5 599.1,231.2 599.4,229.8 599.0,228.4 597.9,227.1 596.3,225.7 594.1,224.3 591.7,223.0 589.0,221.6 586.2,220.2 583.4,218.9 580.8,217.5 578.4,216.1 576.4,214.8 574.7,213.4 573.3,212.0 572.4,210.7 571.8,209.3 571.5,207.9 571.5,206.6 571.7,205.2 572.1,203.8 572.6,202.5 573.2,201.1 573.8,199.7 574.5,198.4 575.2,197.0 575.8,195.6 576.3,194.3 576.8,192.9 577.3,191.5 577.7,190.2 578.0,188.8 578.2,187.4 578.4,186.1 578.5,184.7 578.6,183.3 578.5,182.0 578.4,180.6 578.2,179.2 577.9,177.9 577.5,176.5 577.0,175.1 576.4,173.8 575.7,172.4 574.9,171.0 574.0,169.7 573.0,168.3 571.9,166.9 570.8,165.6 569.7,164.2 568.6,162.8 567.5,161.5 566.5,160.1 565.6,158.7 564.8,157.4 564.1,156.0 563.4,154.6 562.9,153.3 562.5,151.9 559.7,151.9 559.3,153.3 558.8,154.6 558.2,156.0 557.4,157.4 556.6,158.7 555.7,160.1 554.7,161.5 553.7,162.8 552.5,164.2 551.4,165.6 550.3,166.9 549.3,168.3 548.2,169.7 547.3,171.0 546.5,172.4 545.8,173.8 545.2,175.1 544.7,176.5 544.3,177.9 544.0,179.2 543.8,180.6 543.7,182.0 543.6,183.3 543.7,184.7 543.8,186.1 544.0,187.4 544.2,188.8 544.6,190.2 544.9,191.5 545.4,192.9 545.9,194.3 546.5,195.6 547.1,197.0 547.7,198.4 548.4,199.7 549.0,201.1 549.6,202.5 550.2,203.8 550.5,205.2 550.8,206.6 550.7,207.9 550.5,209.3 549.8,210.7 548.9,212.0 547.6,213.4 545.8,214.8 543.8,216.1 541.4,217.5 538.8,218.9 536.1,220.2 533.3,221.6 530.6,223.0 528.1,224.3 526.0,225.7 524.3,227.1 523.3,228.4 522.8,229.8 523.1,231.2 524.0,232.5 525.6,233.9 527.7,235.3 530.3,236.6 533.2,238.0 536.3,239.4 539.5,240.7 542.6,242.1 545.6,243.5 548.3,244.8 550.8,246.2 552.9,247.6 554.8,248.9" fill="#2a8" opacity="0.5" stroke="#2a8" stroke-width="1"/>
<line x1="528.4" y1="224.12952662839294" x2="593.8" y2="224.12952662839294" stroke="#114" stroke-width="2"/>
<circle cx="561.1111111111111" cy="231.33148192672874" r="2.4" fill="#114"/>
<text x="561.1111111111111" y="155.48940448154468" text-anchor="middle" font-size="11">1.14</text>
<text x="561.1111111111111" y="376" text-anchor="middle" font-size="12">trsv</text>
<polygon points="666.7,261.7 669.2,259.0 671.8,256.3 674.5,253.6 677.2,250.9 679.8,248.2 682.2,245.5 684.4,242.8 686.3,240.1 687.9,237.4 689.1,234.7 689.9,232.0 690.4,229.3 690.5,226.6 690.3,223.9 689.7,221.2 688.9,218.5 687.9,215.7 686.6,213.0 685.2,210.3 683.7,207.6 682.0,204.9 680.2,202.2 678.4,199.5 676.6,196.8 674.8,194.1 673.0,191.4 671.2,188.7 669.6,186.0 668.2,183.3 666.9,180.6 665.8,177.9 664.9,175.2 664.2,172.5 663.8,169.8 663.5,167.1 663.4,164.4 663.3,161.7 663.4,159.0 663.4,156.3 663.5,153.6 663.5,150.9 663.5,148.2 663.3,145.5 663.1,142.8 662.9,140.1 662.6,137.4 662.3,134.7 662.1,132.0 661.8,129.3 661.7,126.6 661.6,123.9 661.6,121.2 661.8,118.5 662.0,115.8 662.2,113.0 662.5,110.3 662.7,107.6 662.9,104.9 663.1,102.2 663.1,99.5 663.0,96.8 662.8,94.1 662.4,91.4 661.9,88.7 661.2,86.0 660.5,83.3 659.7,80.6 658.9,77.9 658.1,75.2 657.2,72.5 656.5,69.8 648.0,69.8 647.2,72.5 646.4,75.2 645.5,77.9 644.7,80.6 643.9,83.3 643.2,86.0 642.6,88.7 642.1,91.4 641.7,94.1 641.4,96.8 641.3,99.5 641.4,102.2 641.5,104.9 641.7,107.6 642.0,110.3 642.2,113.0 642.5,115.8 642.7,118.5 642.8,121.2 642.8,123.9 642.8,126.6 642.6,129.3 642.4,132.0 642.1,134.7 641.8,137.4 641.5,140.1 641.3,142.8 641.1,145.5 641.0,148.2 640.9,150.9 641.0,153.6 641.0,156.3 641.1,159.0 641.1,161.7 641.1,164.4 641.0,167.1 640.7,169.8 640.2,172.5 639.5,175.2 638.6,177.9 637.6,180.6 636.3,183.3 634.8,186.0 633.2,188.7 631.5,191.4 629.7,194.1 627.9,196.8 626.0,199.5 624.2,202.2 622.5,204.9 620.8,207.6 619.2,210.3 617.8,213.0 616.6,215.7 615.5,218.5 614.7,221.2 614.2,223.9 614.0,226.6 614.1,229.3 614.5,232.0 615.4,234.7 616.6,237.4 618.1,240.1 620.0,242.8 622.2,245.5 624.7,248.2 627.3,250.9 629.9,253.6 632.6,256.3 635.2,259.0 637.8,261.7" fill="#2a8" opacity="0.5" stroke="#2a8" stroke-width="1"/>
<line x1="618.4" y1="211.933863263372" x2="686.1" y2="211.933863263372" stroke="#114" stroke-width="2"/>
<circle cx="652.2222222222223" cy="241.22246222405866" r="2.4" fill="#114"/>
<text x="652.2222222222223" y="82.5662018627367" text-anchor="middle" font-size="11">1.24</text>
<text x="652.2222222222223" y="376" text-anchor="middle" font-size="12">spmv</text>
<polygon points="743.3,299.4 743.3,297.9 743.4,296.5 743.4,295.0 743.5,293.6 743.6,292.1 743.7,290.7 743.8,289.2 743.7,287.8 743.6,286.4 743.5,284.9 743.4,283.5 743.4,282.0 743.3,280.6 743.3,279.1 743.3,277.7 743.3,276.2 743.3,274.8 743.3,273.3 743.3,271.9 743.3,270.4 743.3,269.0 743.3,267.5 743.3,266.1 743.3,264.7 743.3,263.2 743.3,261.8 743.3,260.3 743.3,258.9 743.3,257.4 743.3,256.0 743.3,254.5 743.3,253.1 743.4,251.6 743.4,250.2 743.5,248.7 743.7,247.3 743.8,245.9 743.9,244.4 744.1,243.0 744.8,241.5 746.8,240.1 750.7,238.6 756.9,237.2 765.2,235.7 773.8,234.3 780.1,232.8 781.6,231.4 778.2,229.9 771.7,228.5 764.7,227.1 758.9,225.6 754.8,224.2 752.3,222.7 750.9,221.3 749.8,219.8 748.6,218.4 747.3,216.9 746.1,215.5 745.1,214.0 744.4,212.6 744.0,211.1 743.8,209.7 743.8,208.2 743.8,206.8 743.7,205.4 743.6,203.9 743.5,202.5 743.4,201.0 743.4,199.6 743.3,198.1 743.3,196.7 743.3,196.7 743.3,198.1 743.3,199.6 743.3,201.0 743.2,202.5 743.1,203.9 742.9,205.4 742.9,206.8 742.9,208.2 742.9,209.7 742.7,211.1 742.3,212.6 741.6,214.0 740.6,215.5 739.4,216.9 738.1,218.4 736.8,219.8 735.7,221.3 734.3,222.7 731.9,224.2 727.8,225.6 722.0,227.1 715.0,228.5 708.5,229.9 705.1,231.4 706.6,232.8 712.8,234.3 721.5,235.7 729.7,237.2 736.0,238.6 739.9,240.1 741.8,241.5 742.6,243.0 742.8,244.4 742.9,245.9 743.0,247.3 743.1,248.7 743.2,250.2 743.3,251.6 743.3,253.1 743.3,254.5 743.3,256.0 743.3,257.4 743.3,258.9 743.3,260.3 743.3,261.8 743.3,263.2 743.3,264.7 743.3,266.1 743.3,267.5 743.3,269.0 743.3,270.4 743.3,271.9 743.3,273.3 743.3,274.8 743.3,276.2 743.3,277.7 743.3,279.1 743.3,280.6 743.3,282.0 743.3,283.5 743.2,284.9 743.1,286.4 742.9,287.8 742.9,289.2 742.9,290.7 743.1,292.1 743.2,293.6 743.3,295.0 743.3,296.5 743.3,297.9 743.3,299.4" fill="#2a8" opacity="0.5" stroke="#2a8" stroke-width="1"/>
<line x1="705.3" y1="231.1526916099461" x2="781.3" y2="231.1526916099461" stroke="#114" stroke-width="2"/>
<circle cx="743.3333333333334" cy="233.3715265568476" r="2.4" fill="#114"/>
<text x="743.3333333333334" y="200.80469188559223" text-anchor="middle" font-size="11">1.08</text>
<text x="743.3333333333334" y="376" text-anchor="middle" font-size="12">gbmvN</text>
<polygon points="834.4,194.5 834.5,192.5 834.5,190.5 834.5,188.6 834.6,186.6 834.8,184.6 835.0,182.6 835.2,180.6 835.7,178.6 836.8,176.6 839.3,174.7 843.9,172.7 851.0,170.7 859.8,168.7 867.9,166.7 872.7,164.7 872.7,162.8 868.7,160.8 862.6,158.8 856.6,156.8 851.6,154.8 847.9,152.8 845.5,150.8 844.3,148.9 843.9,146.9 843.7,144.9 843.2,142.9 842.0,140.9 840.2,138.9 838.4,137.0 836.7,135.0 835.6,133.0 834.9,131.0 834.6,129.0 834.5,127.0 834.5,125.1 834.4,123.1 834.4,121.1 834.4,119.1 834.4,117.1 834.4,115.1 834.4,113.1 834.4,111.2 834.4,109.2 834.4,107.2 834.4,105.2 834.4,103.2 834.4,101.2 834.4,99.3 834.4,97.3 834.4,95.3 834.4,93.3 834.4,91.3 834.4,89.3 834.4,87.3 834.4,85.4 834.4,83.4 834.4,81.4 834.5,79.4 834.5,77.4 834.5,75.4 834.6,73.5 834.7,71.5 834.9,69.5 834.9,67.5 834.9,65.5 834.8,63.5 834.6,61.5 834.5,59.6 834.5,57.6 834.5,55.6 834.4,53.6 834.4,53.6 834.4,55.6 834.4,57.6 834.3,59.6 834.3,61.5 834.1,63.5 834.0,65.5 834.0,67.5 834.0,69.5 834.1,71.5 834.3,73.5 834.4,75.4 834.4,77.4 834.4,79.4 834.4,81.4 834.4,83.4 834.4,85.4 834.4,87.3 834.4,89.3 834.4,91.3 834.4,93.3 834.4,95.3 834.4,97.3 834.4,99.3 834.4,101.2 834.4,103.2 834.4,105.2 834.4,107.2 834.4,109.2 834.4,111.2 834.4,113.1 834.4,115.1 834.4,117.1 834.4,119.1 834.4,121.1 834.4,123.1 834.4,125.1 834.4,127.0 834.3,129.0 834.0,131.0 833.3,133.0 832.2,135.0 830.5,137.0 828.6,138.9 826.9,140.9 825.7,142.9 825.1,144.9 825.0,146.9 824.6,148.9 823.3,150.8 821.0,152.8 817.3,154.8 812.3,156.8 806.2,158.8 800.2,160.8 796.2,162.8 796.2,164.7 801.0,166.7 809.1,168.7 817.8,170.7 825.0,172.7 829.6,174.7 832.1,176.6 833.2,178.6 833.7,180.6 833.9,182.6 834.1,184.6 834.2,186.6 834.3,188.6 834.4,190.5 834.4,192.5 834.4,194.5" fill="#2a8" opacity="0.5" stroke="#2a8" stroke-width="1"/>
<line x1="796.2" y1="162.7363503278524" x2="872.7" y2="162.7363503278524" stroke="#114" stroke-width="2"/>
<circle cx="834.4444444444445" cy="165.4143047086095" r="2.4" fill="#114"/>
<text x="834.4444444444445" y="61.433962264150935" text-anchor="middle" font-size="11">1.66</text>
<text x="834.4444444444445" y="376" text-anchor="middle" font-size="12">sbmv</text>
<text x="450.0" y="428" text-anchor="middle" font-size="11" fill="#666">violin = ratio distribution over sizes · line = median · dark dot = worst size · green = every size ≥ gate</text>
</svg>
