<svg xmlns="http://www.w3.org/2000/svg" width="900" height="460" font-family="sans-serif">
<rect width="900" height="460" fill="white"/>
<text x="450.0" y="28" text-anchor="middle" font-size="18" font-weight="bold">LAPACK: PureBLAS / OpenBLAS (AVX2, 1 thread, Float64)</text>
<line x1="62" y1="400.0" x2="768" y2="400.0" stroke="#eee"/>
<text x="54" y="404.0" text-anchor="end" font-size="11" fill="#666">0.5×</text>
<line x1="62" y1="344.56965127539087" x2="768" y2="344.56965127539087" stroke="#eee"/>
<text x="54" y="348.56965127539087" text-anchor="end" font-size="11" fill="#666">0.7×</text>
<line x1="62" y1="285.811113803215" x2="768" y2="285.811113803215" stroke="#eee"/>
<text x="54" y="289.811113803215" text-anchor="end" font-size="11" fill="#666">1.0×</text>
<line x1="62" y1="219.01489737898004" x2="768" y2="219.01489737898004" stroke="#eee"/>
<text x="54" y="223.01489737898004" text-anchor="end" font-size="11" fill="#666">1.5×</text>
<line x1="62" y1="171.62222760642987" x2="768" y2="171.62222760642987" stroke="#eee"/>
<text x="54" y="175.62222760642987" text-anchor="end" font-size="11" fill="#666">2.0×</text>
<line x1="62" y1="104.82601118219495" x2="768" y2="104.82601118219495" stroke="#eee"/>
<text x="54" y="108.82601118219495" text-anchor="end" font-size="11" fill="#666">3.0×</text>
<line x1="62" y1="57.433341409644825" x2="768" y2="57.433341409644825" stroke="#eee"/>
<text x="54" y="61.433341409644825" text-anchor="end" font-size="11" fill="#666">4.0×</text>
<line x1="62.0" y1="50" x2="62.0" y2="400" stroke="#f4f4f4"/>
<text x="62.0" y="418" text-anchor="middle" font-size="11" fill="#444">8</text>
<line x1="238.5" y1="50" x2="238.5" y2="400" stroke="#f4f4f4"/>
<text x="238.5" y="418" text-anchor="middle" font-size="11" fill="#444">32</text>
<line x1="415.0" y1="50" x2="415.0" y2="400" stroke="#f4f4f4"/>
<text x="415.0" y="418" text-anchor="middle" font-size="11" fill="#444">128</text>
<line x1="503.25" y1="50" x2="503.25" y2="400" stroke="#f4f4f4"/>
<text x="503.25" y="418" text-anchor="middle" font-size="11" fill="#444">256</text>
<line x1="591.5" y1="50" x2="591.5" y2="400" stroke="#f4f4f4"/>
<text x="591.5" y="418" text-anchor="middle" font-size="11" fill="#444">512</text>
<line x1="679.75" y1="50" x2="679.75" y2="400" stroke="#f4f4f4"/>
<text x="679.75" y="418" text-anchor="middle" font-size="11" fill="#444">1024</text>
<line x1="768.0" y1="50" x2="768.0" y2="400" stroke="#f4f4f4"/>
<text x="768.0" y="418" text-anchor="middle" font-size="11" fill="#444">2048</text>
<line x1="62" y1="285.811113803215" x2="768" y2="285.811113803215" stroke="#888"/>
<line x1="62" y1="292.53611856026174" x2="768" y2="292.53611856026174" stroke="#d33" stroke-width="1.5" stroke-dasharray="6 4"/>
<text x="66" y="287.53611856026174" font-size="11" fill="#d33">0.96× gate</text>
<polyline points="62.0,237.2 238.5,222.8 415.0,321.8 503.2,319.2 591.5,315.7 679.8,347.5 768.0,313.0" fill="none" stroke="#1f77b4" stroke-width="2"/>
<circle cx="62.0" cy="237.2" r="3" fill="#1f77b4"/>
<circle cx="238.5" cy="222.8" r="3" fill="#1f77b4"/>
<circle cx="415.0" cy="321.8" r="3" fill="#1f77b4"/>
<circle cx="503.2" cy="319.2" r="3" fill="#1f77b4"/>
<circle cx="591.5" cy="315.7" r="3" fill="#1f77b4"/>
<circle cx="679.8" cy="347.5" r="3" fill="#1f77b4"/>
<circle cx="768.0" cy="313.0" r="3" fill="#1f77b4"/>
<line x1="782" y1="56" x2="802" y2="56" stroke="#1f77b4" stroke-width="3"/>
<text x="806" y="60" font-size="12">potrf</text>
<polyline points="62.0,73.0 238.5,204.7 415.0,243.7 503.2,276.2 591.5,259.4 679.8,261.4 768.0,263.1" fill="none" stroke="#d62728" stroke-width="2"/>
<circle cx="62.0" cy="73.0" r="3" fill="#d62728"/>
<circle cx="238.5" cy="204.7" r="3" fill="#d62728"/>
<circle cx="415.0" cy="243.7" r="3" fill="#d62728"/>
<circle cx="503.2" cy="276.2" r="3" fill="#d62728"/>
<circle cx="591.5" cy="259.4" r="3" fill="#d62728"/>
<circle cx="679.8" cy="261.4" r="3" fill="#d62728"/>
<circle cx="768.0" cy="263.1" r="3" fill="#d62728"/>
<line x1="782" y1="74" x2="802" y2="74" stroke="#d62728" stroke-width="3"/>
<text x="806" y="78" font-size="12">geqrf</text>
<polyline points="62.0,145.8 238.5,138.5 415.0,288.3 503.2,301.0 591.5,291.8 679.8,287.4 768.0,286.0" fill="none" stroke="#2ca02c" stroke-width="2"/>
<circle cx="62.0" cy="145.8" r="3" fill="#2ca02c"/>
<circle cx="238.5" cy="138.5" r="3" fill="#2ca02c"/>
<circle cx="415.0" cy="288.3" r="3" fill="#2ca02c"/>
<circle cx="503.2" cy="301.0" r="3" fill="#2ca02c"/>
<circle cx="591.5" cy="291.8" r="3" fill="#2ca02c"/>
<circle cx="679.8" cy="287.4" r="3" fill="#2ca02c"/>
<circle cx="768.0" cy="286.0" r="3" fill="#2ca02c"/>
<line x1="782" y1="92" x2="802" y2="92" stroke="#2ca02c" stroke-width="3"/>
<text x="806" y="96" font-size="12">getrf</text>
<polyline points="62.0,199.9 238.5,258.5 415.0,270.3 503.2,267.1 591.5,256.0 679.8,261.5 768.0,273.4" fill="none" stroke="#9467bd" stroke-width="2"/>
<circle cx="62.0" cy="199.9" r="3" fill="#9467bd"/>
<circle cx="238.5" cy="258.5" r="3" fill="#9467bd"/>
<circle cx="415.0" cy="270.3" r="3" fill="#9467bd"/>
<circle cx="503.2" cy="267.1" r="3" fill="#9467bd"/>
<circle cx="591.5" cy="256.0" r="3" fill="#9467bd"/>
<circle cx="679.8" cy="261.5" r="3" fill="#9467bd"/>
<circle cx="768.0" cy="273.4" r="3" fill="#9467bd"/>
<line x1="782" y1="110" x2="802" y2="110" stroke="#9467bd" stroke-width="3"/>
<text x="806" y="114" font-size="12">gesvd</text>
<text x="415.0" y="450" text-anchor="middle" font-size="11" fill="#666">matrix size n (log) · y = median ratio (log) · dashed = the 0.96× gate</text>
</svg>
