<svg xmlns="http://www.w3.org/2000/svg" width="900" height="460" font-family="sans-serif">
<rect width="900" height="460" fill="white"/>
<text x="450.0" y="28" text-anchor="middle" font-size="18" font-weight="bold">BLAS-3: PureBLAS / OpenBLAS (AVX-512, 1 thread, Float64)</text>
<line x1="62" y1="400.0" x2="768" y2="400.0" stroke="#eee"/>
<text x="54" y="404.0" text-anchor="end" font-size="11" fill="#666">0.5×</text>
<line x1="62" y1="326.4808312761972" x2="768" y2="326.4808312761972" stroke="#eee"/>
<text x="54" y="330.4808312761972" text-anchor="end" font-size="11" fill="#666">0.7×</text>
<line x1="62" y1="248.54737190283214" x2="768" y2="248.54737190283214" stroke="#eee"/>
<text x="54" y="252.54737190283214" text-anchor="end" font-size="11" fill="#666">1.0×</text>
<line x1="62" y1="159.9532638303216" x2="768" y2="159.9532638303216" stroke="#eee"/>
<text x="54" y="163.9532638303216" text-anchor="end" font-size="11" fill="#666">1.5×</text>
<line x1="62" y1="97.09474380566431" x2="768" y2="97.09474380566431" stroke="#eee"/>
<text x="54" y="101.09474380566431" text-anchor="end" font-size="11" fill="#666">2.0×</text>
<line x1="62.0" y1="50" x2="62.0" y2="400" stroke="#f4f4f4"/>
<text x="62.0" y="418" text-anchor="middle" font-size="11" fill="#444">8</text>
<line x1="238.5" y1="50" x2="238.5" y2="400" stroke="#f4f4f4"/>
<text x="238.5" y="418" text-anchor="middle" font-size="11" fill="#444">32</text>
<line x1="415.0" y1="50" x2="415.0" y2="400" stroke="#f4f4f4"/>
<text x="415.0" y="418" text-anchor="middle" font-size="11" fill="#444">128</text>
<line x1="503.25" y1="50" x2="503.25" y2="400" stroke="#f4f4f4"/>
<text x="503.25" y="418" text-anchor="middle" font-size="11" fill="#444">256</text>
<line x1="591.5" y1="50" x2="591.5" y2="400" stroke="#f4f4f4"/>
<text x="591.5" y="418" text-anchor="middle" font-size="11" fill="#444">512</text>
<line x1="679.75" y1="50" x2="679.75" y2="400" stroke="#f4f4f4"/>
<text x="679.75" y="418" text-anchor="middle" font-size="11" fill="#444">1024</text>
<line x1="768.0" y1="50" x2="768.0" y2="400" stroke="#f4f4f4"/>
<text x="768.0" y="418" text-anchor="middle" font-size="11" fill="#444">2048</text>
<line x1="62" y1="248.54737190283214" x2="768" y2="248.54737190283214" stroke="#888"/>
<line x1="62" y1="257.4669758883325" x2="768" y2="257.4669758883325" stroke="#d33" stroke-width="1.5" stroke-dasharray="6 4"/>
<text x="66" y="252.4669758883325" font-size="11" fill="#d33">0.96× gate</text>
<polygon points="62.0,232.9 238.5,275.5 415.0,198.5 503.2,201.4 591.5,232.1 679.8,241.4 768.0,249.4 768.0,251.2 679.8,245.1 591.5,247.6 503.2,236.8 415.0,213.4 238.5,289.0 62.0,246.8" fill="#1f77b4" opacity="0.14" stroke="none"/>
<polyline points="62.0,236.6 238.5,281.6 415.0,210.9 503.2,222.4 591.5,242.7 679.8,242.5 768.0,250.6" fill="none" stroke="#1f77b4" stroke-width="2"/>
<circle cx="62.0" cy="236.6" r="3" fill="#1f77b4"/>
<circle cx="238.5" cy="281.6" r="3" fill="#1f77b4"/>
<circle cx="415.0" cy="210.9" r="3" fill="#1f77b4"/>
<circle cx="503.2" cy="222.4" r="3" fill="#1f77b4"/>
<circle cx="591.5" cy="242.7" r="3" fill="#1f77b4"/>
<circle cx="679.8" cy="242.5" r="3" fill="#1f77b4"/>
<circle cx="768.0" cy="250.6" r="3" fill="#1f77b4"/>
<line x1="782" y1="56" x2="802" y2="56" stroke="#1f77b4" stroke-width="3"/>
<text x="806" y="60" font-size="12">gemm</text>
<polygon points="62.0,123.4 238.5,196.9 415.0,211.9 503.2,183.7 591.5,213.2 679.8,219.3 768.0,223.5 768.0,225.4 679.8,222.1 591.5,217.5 503.2,216.2 415.0,218.0 238.5,225.6 62.0,147.4" fill="#d62728" opacity="0.14" stroke="none"/>
<polyline points="62.0,137.7 238.5,198.6 415.0,216.9 503.2,210.4 591.5,214.9 679.8,221.4 768.0,223.9" fill="none" stroke="#d62728" stroke-width="2"/>
<circle cx="62.0" cy="137.7" r="3" fill="#d62728"/>
<circle cx="238.5" cy="198.6" r="3" fill="#d62728"/>
<circle cx="415.0" cy="216.9" r="3" fill="#d62728"/>
<circle cx="503.2" cy="210.4" r="3" fill="#d62728"/>
<circle cx="591.5" cy="214.9" r="3" fill="#d62728"/>
<circle cx="679.8" cy="221.4" r="3" fill="#d62728"/>
<circle cx="768.0" cy="223.9" r="3" fill="#d62728"/>
<line x1="782" y1="74" x2="802" y2="74" stroke="#d62728" stroke-width="3"/>
<text x="806" y="78" font-size="12">zgemm</text>
<polygon points="62.0,207.9 238.5,177.5 415.0,206.3 503.2,261.9 591.5,230.7 679.8,240.2 768.0,247.9 768.0,249.8 679.8,243.4 591.5,240.0 503.2,269.8 415.0,219.3 238.5,197.5 62.0,216.2" fill="#2ca02c" opacity="0.14" stroke="none"/>
<polyline points="62.0,213.8 238.5,189.9 415.0,216.2 503.2,265.9 591.5,235.7 679.8,242.1 768.0,248.6" fill="none" stroke="#2ca02c" stroke-width="2"/>
<circle cx="62.0" cy="213.8" r="3" fill="#2ca02c"/>
<circle cx="238.5" cy="189.9" r="3" fill="#2ca02c"/>
<circle cx="415.0" cy="216.2" r="3" fill="#2ca02c"/>
<circle cx="503.2" cy="265.9" r="3" fill="#2ca02c"/>
<circle cx="591.5" cy="235.7" r="3" fill="#2ca02c"/>
<circle cx="679.8" cy="242.1" r="3" fill="#2ca02c"/>
<circle cx="768.0" cy="248.6" r="3" fill="#2ca02c"/>
<line x1="782" y1="92" x2="802" y2="92" stroke="#2ca02c" stroke-width="3"/>
<text x="806" y="96" font-size="12">symm</text>
<polygon points="62.0,166.7 238.5,186.9 415.0,189.1 503.2,229.5 591.5,213.7 679.8,235.7 768.0,254.4 768.0,256.3 679.8,241.5 591.5,221.6 503.2,237.2 415.0,208.9 238.5,213.2 62.0,194.0" fill="#9467bd" opacity="0.14" stroke="none"/>
<polyline points="62.0,177.4 238.5,198.9 415.0,198.5 503.2,235.4 591.5,216.4 679.8,238.1 768.0,254.7" fill="none" stroke="#9467bd" stroke-width="2"/>
<circle cx="62.0" cy="177.4" r="3" fill="#9467bd"/>
<circle cx="238.5" cy="198.9" r="3" fill="#9467bd"/>
<circle cx="415.0" cy="198.5" r="3" fill="#9467bd"/>
<circle cx="503.2" cy="235.4" r="3" fill="#9467bd"/>
<circle cx="591.5" cy="216.4" r="3" fill="#9467bd"/>
<circle cx="679.8" cy="238.1" r="3" fill="#9467bd"/>
<circle cx="768.0" cy="254.7" r="3" fill="#9467bd"/>
<line x1="782" y1="110" x2="802" y2="110" stroke="#9467bd" stroke-width="3"/>
<text x="806" y="114" font-size="12">syrk</text>
<polygon points="62.0,157.0 238.5,188.4 415.0,197.8 503.2,229.1 591.5,233.9 679.8,240.4 768.0,251.8 768.0,255.0 679.8,249.6 591.5,242.6 503.2,238.9 415.0,203.9 238.5,217.6 62.0,184.9" fill="#ff7f0e" opacity="0.14" stroke="none"/>
<polyline points="62.0,169.0 238.5,196.1 415.0,199.6 503.2,234.0 591.5,240.3 679.8,243.4 768.0,254.3" fill="none" stroke="#ff7f0e" stroke-width="2"/>
<circle cx="62.0" cy="169.0" r="3" fill="#ff7f0e"/>
<circle cx="238.5" cy="196.1" r="3" fill="#ff7f0e"/>
<circle cx="415.0" cy="199.6" r="3" fill="#ff7f0e"/>
<circle cx="503.2" cy="234.0" r="3" fill="#ff7f0e"/>
<circle cx="591.5" cy="240.3" r="3" fill="#ff7f0e"/>
<circle cx="679.8" cy="243.4" r="3" fill="#ff7f0e"/>
<circle cx="768.0" cy="254.3" r="3" fill="#ff7f0e"/>
<line x1="782" y1="128" x2="802" y2="128" stroke="#ff7f0e" stroke-width="3"/>
<text x="806" y="132" font-size="12">syr2k</text>
<polygon points="62.0,195.5 238.5,220.8 415.0,194.6 503.2,213.8 591.5,223.5 679.8,240.3 768.0,252.5 768.0,255.0 679.8,247.5 591.5,239.8 503.2,239.3 415.0,207.0 238.5,239.7 62.0,210.3" fill="#17becf" opacity="0.14" stroke="none"/>
<polyline points="62.0,199.9 238.5,231.8 415.0,200.4 503.2,223.9 591.5,233.6 679.8,243.5 768.0,254.0" fill="none" stroke="#17becf" stroke-width="2"/>
<circle cx="62.0" cy="199.9" r="3" fill="#17becf"/>
<circle cx="238.5" cy="231.8" r="3" fill="#17becf"/>
<circle cx="415.0" cy="200.4" r="3" fill="#17becf"/>
<circle cx="503.2" cy="223.9" r="3" fill="#17becf"/>
<circle cx="591.5" cy="233.6" r="3" fill="#17becf"/>
<circle cx="679.8" cy="243.5" r="3" fill="#17becf"/>
<circle cx="768.0" cy="254.0" r="3" fill="#17becf"/>
<line x1="782" y1="146" x2="802" y2="146" stroke="#17becf" stroke-width="3"/>
<text x="806" y="150" font-size="12">trmm</text>
<polygon points="62.0,149.9 238.5,93.0 415.0,78.7 503.2,80.8 591.5,170.9 679.8,190.1 768.0,231.7 768.0,237.3 679.8,202.3 591.5,183.1 503.2,102.9 415.0,84.0 238.5,114.6 62.0,172.0" fill="#8c564b" opacity="0.14" stroke="none"/>
<polyline points="62.0,160.7 238.5,110.6 415.0,80.5 503.2,96.9 591.5,178.7 679.8,193.8 768.0,235.2" fill="none" stroke="#8c564b" stroke-width="2"/>
<circle cx="62.0" cy="160.7" r="3" fill="#8c564b"/>
<circle cx="238.5" cy="110.6" r="3" fill="#8c564b"/>
<circle cx="415.0" cy="80.5" r="3" fill="#8c564b"/>
<circle cx="503.2" cy="96.9" r="3" fill="#8c564b"/>
<circle cx="591.5" cy="178.7" r="3" fill="#8c564b"/>
<circle cx="679.8" cy="193.8" r="3" fill="#8c564b"/>
<circle cx="768.0" cy="235.2" r="3" fill="#8c564b"/>
<line x1="782" y1="164" x2="802" y2="164" stroke="#8c564b" stroke-width="3"/>
<text x="806" y="168" font-size="12">trsm</text>
<text x="415.0" y="450" text-anchor="middle" font-size="11" fill="#666">matrix size n (log) · y = median ratio (log) · dashed = the 0.96× gate</text>
</svg>
