<svg xmlns="http://www.w3.org/2000/svg" width="900" height="440" font-family="sans-serif">
<rect width="900" height="440" fill="white"/>
<text x="450.0" y="28" text-anchor="middle" font-size="18" font-weight="bold">Complex BLAS-2: PureBLAS / OpenBLAS (AVX-512 (Zen4), 1 thread, ComplexF64)</text>
<line x1="60" y1="358.0" x2="880" y2="358.0" stroke="#eee"/>
<text x="52" y="362.0" text-anchor="end" font-size="11" fill="#666">0×</text>
<line x1="60" y1="290.75212298564765" x2="880" y2="290.75212298564765" stroke="#eee"/>
<text x="52" y="294.75212298564765" text-anchor="end" font-size="11" fill="#666">0.5×</text>
<line x1="60" y1="223.5042459712953" x2="880" y2="223.5042459712953" stroke="#eee"/>
<text x="52" y="227.5042459712953" text-anchor="end" font-size="11" fill="#666">1×</text>
<line x1="60" y1="156.25636895694294" x2="880" y2="156.25636895694294" stroke="#eee"/>
<text x="52" y="160.25636895694294" text-anchor="end" font-size="11" fill="#666">1.5×</text>
<line x1="60" y1="223.5042459712953" x2="880" y2="223.5042459712953" stroke="#888" stroke-width="1"/>
<line x1="60" y1="228.88407613244345" x2="880" y2="228.88407613244345" stroke="#d33" stroke-width="1.5" stroke-dasharray="6 4"/>
<text x="880" y="223.88407613244345" text-anchor="end" font-size="11" fill="#d33">0.96× gate</text>
<polygon points="128.7,256.7 128.8,255.6 129.0,254.5 129.2,253.4 129.5,252.3 129.8,251.2 130.3,250.0 130.9,248.9 131.7,247.8 132.7,246.7 134.1,245.6 135.9,244.5 138.2,243.4 140.9,242.3 144.0,241.1 147.6,240.0 151.5,238.9 155.6,237.8 159.7,236.7 163.8,235.6 167.8,234.5 171.4,233.4 174.7,232.2 177.5,231.1 179.9,230.0 181.9,228.9 183.5,227.8 184.7,226.7 185.5,225.6 185.7,224.4 185.5,223.3 184.7,222.2 183.2,221.1 181.2,220.0 178.5,218.9 175.3,217.8 171.7,216.7 167.8,215.5 163.8,214.4 159.7,213.3 155.7,212.2 151.9,211.1 148.3,210.0 145.1,208.9 142.2,207.8 139.7,206.6 137.6,205.5 135.9,204.4 134.6,203.3 133.7,202.2 133.1,201.1 133.0,200.0 133.2,198.8 133.9,197.7 134.8,196.6 136.1,195.5 137.6,194.4 139.2,193.3 140.8,192.2 142.2,191.1 143.3,189.9 144.0,188.8 144.1,187.7 143.7,186.6 142.8,185.5 141.5,184.4 139.9,183.3 138.1,182.2 136.3,181.0 134.7,179.9 133.2,178.8 131.9,177.7 124.8,177.7 123.5,178.8 122.0,179.9 120.3,181.0 118.5,182.2 116.8,183.3 115.2,184.4 113.9,185.5 113.0,186.6 112.6,187.7 112.7,188.8 113.4,189.9 114.5,191.1 115.9,192.2 117.5,193.3 119.1,194.4 120.6,195.5 121.8,196.6 122.8,197.7 123.4,198.8 123.7,200.0 123.5,201.1 123.0,202.2 122.1,203.3 120.7,204.4 119.0,205.5 116.9,206.6 114.4,207.8 111.6,208.9 108.3,210.0 104.8,211.1 101.0,212.2 97.0,213.3 92.9,214.4 88.8,215.5 84.9,216.7 81.3,217.8 78.2,218.9 75.5,220.0 73.4,221.1 72.0,222.2 71.2,223.3 70.9,224.4 71.2,225.6 71.9,226.7 73.1,227.8 74.7,228.9 76.7,230.0 79.2,231.1 82.0,232.2 85.3,233.4 88.9,234.5 92.8,235.6 96.9,236.7 101.1,237.8 105.2,238.9 109.1,240.0 112.6,241.1 115.8,242.3 118.5,243.4 120.7,244.5 122.5,245.6 123.9,246.7 125.0,247.8 125.8,248.9 126.4,250.0 126.9,251.2 127.2,252.3 127.5,253.4 127.7,254.5 127.8,255.6 127.9,256.7" fill="#d33" opacity="0.5" stroke="#d33" stroke-width="1"/>
<line x1="71.6" y1="222.66997631325518" x2="185.1" y2="222.66997631325518" stroke="#114" stroke-width="2"/>
<circle cx="128.33333333333331" cy="233.5296228277569" r="2.4" fill="#114"/>
<text x="128.33333333333331" y="179.56575649911446" text-anchor="middle" font-size="11">1.01</text>
<text x="128.33333333333331" y="376" text-anchor="middle" font-size="12">zgemvN</text>
<polygon points="266.1,248.8 266.4,247.6 266.9,246.4 267.5,245.2 268.2,244.0 269.1,242.8 270.2,241.6 271.4,240.4 272.9,239.2 274.5,238.0 276.5,236.8 278.7,235.6 281.1,234.4 283.8,233.2 286.8,232.0 289.9,230.8 293.3,229.6 296.8,228.4 300.4,227.2 304.0,226.1 307.5,224.9 310.9,223.7 314.0,222.5 316.8,221.3 319.1,220.1 320.8,218.9 322.0,217.7 322.4,216.5 322.1,215.3 321.1,214.1 319.3,212.9 316.9,211.7 313.9,210.5 310.5,209.3 306.8,208.1 302.9,206.9 299.0,205.7 295.2,204.5 291.7,203.3 288.5,202.1 285.8,200.9 283.5,199.7 281.9,198.5 280.8,197.3 280.3,196.2 280.4,195.0 281.0,193.8 282.2,192.6 283.8,191.4 285.8,190.2 287.9,189.0 290.1,187.8 292.2,186.6 294.0,185.4 295.4,184.2 296.3,183.0 296.5,181.8 296.1,180.6 295.0,179.4 293.4,178.2 291.2,177.0 288.6,175.8 285.9,174.6 283.0,173.4 280.2,172.2 277.5,171.0 275.1,169.8 272.9,168.6 271.1,167.4 269.6,166.2 268.4,165.1 267.4,163.9 262.6,163.9 261.6,165.1 260.4,166.2 258.9,167.4 257.1,168.6 254.9,169.8 252.5,171.0 249.8,172.2 247.0,173.4 244.1,174.6 241.4,175.8 238.8,177.0 236.6,178.2 235.0,179.4 233.9,180.6 233.5,181.8 233.7,183.0 234.6,184.2 236.0,185.4 237.8,186.6 239.9,187.8 242.1,189.0 244.2,190.2 246.2,191.4 247.8,192.6 249.0,193.8 249.6,195.0 249.7,196.2 249.2,197.3 248.1,198.5 246.5,199.7 244.2,200.9 241.5,202.1 238.3,203.3 234.8,204.5 231.0,205.7 227.1,206.9 223.2,208.1 219.5,209.3 216.1,210.5 213.1,211.7 210.7,212.9 208.9,214.1 207.9,215.3 207.6,216.5 208.0,217.7 209.2,218.9 210.9,220.1 213.2,221.3 216.0,222.5 219.1,223.7 222.5,224.9 226.0,226.1 229.6,227.2 233.2,228.4 236.7,229.6 240.1,230.8 243.2,232.0 246.2,233.2 248.9,234.4 251.3,235.6 253.5,236.8 255.5,238.0 257.1,239.2 258.6,240.4 259.8,241.6 260.9,242.8 261.8,244.0 262.5,245.2 263.1,246.4 263.6,247.6 263.9,248.8" fill="#2a8" opacity="0.5" stroke="#2a8" stroke-width="1"/>
<line x1="211.3" y1="212.5575309434354" x2="318.7" y2="212.5575309434354" stroke="#114" stroke-width="2"/>
<circle cx="265.0" cy="227.62680184299785" r="2.4" fill="#114"/>
<text x="265.0" y="166.2907716141376" text-anchor="middle" font-size="11">1.08</text>
<text x="265.0" y="376" text-anchor="middle" font-size="12">zgemvC</text>
<polygon points="401.9,253.3 402.1,251.6 402.4,249.9 402.8,248.3 403.2,246.6 403.6,244.9 404.1,243.3 404.5,241.6 405.0,239.9 405.3,238.3 405.7,236.6 406.0,234.9 406.4,233.3 406.9,231.6 407.7,229.9 408.7,228.3 410.0,226.6 411.8,224.9 414.0,223.3 416.5,221.6 419.4,219.9 422.8,218.3 426.5,216.6 430.8,214.9 435.8,213.3 441.1,211.6 446.7,209.9 451.9,208.3 456.0,206.6 458.6,204.9 459.1,203.3 457.3,201.6 453.6,200.0 448.3,198.3 442.0,196.6 435.6,195.0 429.4,193.3 423.9,191.6 419.3,190.0 415.7,188.3 412.9,186.6 411.0,185.0 409.9,183.3 409.4,181.6 409.4,180.0 409.7,178.3 410.1,176.6 410.5,175.0 410.7,173.3 410.6,171.6 410.1,170.0 409.4,168.3 408.5,166.6 407.6,165.0 406.7,163.3 405.9,161.6 405.3,160.0 404.7,158.3 404.2,156.6 403.7,155.0 403.4,153.3 403.1,151.6 402.9,150.0 402.8,148.3 402.6,146.6 402.5,145.0 402.4,143.3 402.2,141.6 402.1,140.0 402.0,138.3 401.9,136.6 401.8,135.0 401.5,135.0 401.5,136.6 401.4,138.3 401.2,140.0 401.1,141.6 401.0,143.3 400.8,145.0 400.7,146.6 400.6,148.3 400.4,150.0 400.2,151.6 399.9,153.3 399.6,155.0 399.2,156.6 398.6,158.3 398.1,160.0 397.4,161.6 396.6,163.3 395.8,165.0 394.8,166.6 394.0,168.3 393.2,170.0 392.8,171.6 392.6,173.3 392.8,175.0 393.2,176.6 393.7,178.3 394.0,180.0 394.0,181.6 393.4,183.3 392.3,185.0 390.4,186.6 387.6,188.3 384.0,190.0 379.4,191.6 373.9,193.3 367.7,195.0 361.3,196.6 355.1,198.3 349.8,200.0 346.0,201.6 344.3,203.3 344.7,204.9 347.3,206.6 351.5,208.3 356.7,209.9 362.2,211.6 367.6,213.3 372.5,214.9 376.8,216.6 380.6,218.3 383.9,219.9 386.8,221.6 389.4,223.3 391.5,224.9 393.3,226.6 394.7,228.3 395.7,229.9 396.4,231.6 396.9,233.3 397.3,234.9 397.7,236.6 398.0,238.3 398.4,239.9 398.8,241.6 399.2,243.3 399.7,244.9 400.2,246.6 400.6,248.3 400.9,249.9 401.2,251.6 401.4,253.3" fill="#2a8" opacity="0.5" stroke="#2a8" stroke-width="1"/>
<line x1="344.2" y1="203.76705953800757" x2="459.2" y2="203.76705953800757" stroke="#114" stroke-width="2"/>
<circle cx="401.66666666666663" cy="216.70599977362278" r="2.4" fill="#114"/>
<text x="401.66666666666663" y="140.64513144373626" text-anchor="middle" font-size="11">1.15</text>
<text x="401.66666666666663" y="376" text-anchor="middle" font-size="12">zgeru</text>
<polygon points="564.6,247.3 568.6,244.6 572.7,241.8 576.8,239.0 580.7,236.2 584.4,233.4 587.8,230.7 590.6,227.9 592.9,225.1 594.5,222.3 595.5,219.6 595.7,216.8 595.3,214.0 594.2,211.2 592.6,208.4 590.4,205.7 587.9,202.9 585.1,200.1 582.2,197.3 579.3,194.5 576.4,191.8 573.7,189.0 571.4,186.2 569.3,183.4 567.7,180.6 566.6,177.9 566.0,175.1 565.8,172.3 566.1,169.5 566.7,166.7 567.8,164.0 569.1,161.2 570.7,158.4 572.4,155.6 574.2,152.8 575.9,150.1 577.6,147.3 579.2,144.5 580.6,141.7 581.8,138.9 582.9,136.2 583.8,133.4 584.5,130.6 585.1,127.8 585.6,125.0 586.0,122.3 586.4,119.5 586.7,116.7 587.1,113.9 587.3,111.1 587.5,108.4 587.6,105.6 587.6,102.8 587.3,100.0 586.8,97.3 586.1,94.5 585.0,91.7 583.7,88.9 582.0,86.1 579.9,83.4 577.6,80.6 575.0,77.8 572.3,75.0 569.4,72.2 566.4,69.5 563.4,66.7 560.4,63.9 557.6,61.1 554.9,58.3 552.4,55.6 550.1,52.8 548.1,50.0 528.6,50.0 526.5,52.8 524.3,55.6 521.8,58.3 519.1,61.1 516.2,63.9 513.3,66.7 510.3,69.5 507.3,72.2 504.4,75.0 501.6,77.8 499.0,80.6 496.7,83.4 494.7,86.1 493.0,88.9 491.6,91.7 490.6,94.5 489.8,97.3 489.4,100.0 489.1,102.8 489.1,105.6 489.1,108.4 489.3,111.1 489.6,113.9 489.9,116.7 490.3,119.5 490.6,122.3 491.1,125.0 491.6,127.8 492.2,130.6 492.9,133.4 493.8,136.2 494.8,138.9 496.1,141.7 497.5,144.5 499.0,147.3 500.7,150.1 502.5,152.8 504.2,155.6 506.0,158.4 507.5,161.2 508.9,164.0 509.9,166.7 510.6,169.5 510.9,172.3 510.7,175.1 510.1,177.9 508.9,180.6 507.3,183.4 505.3,186.2 502.9,189.0 500.3,191.8 497.4,194.5 494.5,197.3 491.5,200.1 488.7,202.9 486.2,205.7 484.1,208.4 482.4,211.2 481.4,214.0 480.9,216.8 481.2,219.6 482.1,222.3 483.8,225.1 486.0,227.9 488.9,230.7 492.2,233.4 495.9,236.2 499.9,239.0 504.0,241.8 508.0,244.6 512.0,247.3" fill="#2a8" opacity="0.5" stroke="#2a8" stroke-width="1"/>
<line x1="498.2" y1="145.88188682908248" x2="578.4" y2="145.88188682908248" stroke="#114" stroke-width="2"/>
<circle cx="538.3333333333333" cy="225.64056731333832" r="2.4" fill="#114"/>
<text x="538.3333333333333" y="61.433962264150935" text-anchor="middle" font-size="11">1.58</text>
<text x="538.3333333333333" y="376" text-anchor="middle" font-size="12">zhemv</text>
<polygon points="680.6,255.1 682.5,252.9 684.8,250.8 687.6,248.7 690.8,246.5 694.4,244.4 698.3,242.2 702.5,240.1 706.8,237.9 711.1,235.8 715.2,233.7 719.0,231.5 722.4,229.4 725.3,227.2 727.6,225.1 729.4,222.9 730.7,220.8 731.6,218.7 732.1,216.5 732.3,214.4 732.4,212.2 732.4,210.1 732.3,207.9 732.2,205.8 732.0,203.7 731.7,201.5 731.2,199.4 730.5,197.2 729.5,195.1 728.1,192.9 726.3,190.8 724.2,188.7 721.9,186.5 719.3,184.4 716.7,182.2 714.2,180.1 711.8,177.9 709.7,175.8 708.0,173.7 706.6,171.5 705.6,169.4 704.9,167.2 704.4,165.1 704.1,162.9 703.9,160.8 703.8,158.7 703.6,156.5 703.3,154.4 703.0,152.2 702.5,150.1 702.1,147.9 701.6,145.8 701.0,143.7 700.4,141.5 699.8,139.4 699.0,137.2 698.0,135.1 696.9,132.9 695.6,130.8 694.1,128.7 692.5,126.5 690.7,124.4 688.8,122.2 686.9,120.1 685.1,117.9 683.4,115.8 681.8,113.7 680.4,111.5 679.3,109.4 678.3,107.2 677.5,105.1 676.8,102.9 673.2,102.9 672.5,105.1 671.7,107.2 670.7,109.4 669.6,111.5 668.2,113.7 666.6,115.8 664.9,117.9 663.1,120.1 661.2,122.2 659.3,124.4 657.5,126.5 655.9,128.7 654.4,130.8 653.1,132.9 652.0,135.1 651.0,137.2 650.2,139.4 649.6,141.5 649.0,143.7 648.4,145.8 647.9,147.9 647.5,150.1 647.0,152.2 646.7,154.4 646.4,156.5 646.2,158.7 646.1,160.8 645.9,162.9 645.6,165.1 645.1,167.2 644.4,169.4 643.4,171.5 642.0,173.7 640.3,175.8 638.2,177.9 635.8,180.1 633.3,182.2 630.7,184.4 628.1,186.5 625.8,188.7 623.7,190.8 621.9,192.9 620.5,195.1 619.5,197.2 618.8,199.4 618.3,201.5 618.0,203.7 617.8,205.8 617.7,207.9 617.6,210.1 617.6,212.2 617.7,214.4 617.9,216.5 618.4,218.7 619.3,220.8 620.6,222.9 622.4,225.1 624.7,227.2 627.6,229.4 631.0,231.5 634.8,233.7 638.9,235.8 643.2,237.9 647.5,240.1 651.7,242.2 655.6,244.4 659.2,246.5 662.4,248.7 665.2,250.8 667.5,252.9 669.4,255.1" fill="#2a8" opacity="0.5" stroke="#2a8" stroke-width="1"/>
<line x1="620.1" y1="195.8525253036041" x2="729.9" y2="195.8525253036041" stroke="#114" stroke-width="2"/>
<circle cx="675.0" cy="228.7403863822861" r="2.4" fill="#114"/>
<text x="675.0" y="111.87782164082257" text-anchor="middle" font-size="11">1.21</text>
<text x="675.0" y="376" text-anchor="middle" font-size="12">ztrmv</text>
<polygon points="813.6,257.2 814.4,256.1 815.4,255.0 816.8,253.9 818.5,252.8 820.5,251.7 822.9,250.6 825.6,249.5 828.5,248.4 831.6,247.3 834.8,246.1 838.0,245.0 841.0,243.9 844.0,242.8 846.7,241.7 849.1,240.6 851.3,239.5 853.2,238.4 855.0,237.3 856.6,236.2 858.1,235.1 859.6,234.0 861.2,232.9 862.7,231.8 864.2,230.7 865.7,229.6 867.0,228.5 868.1,227.4 868.8,226.3 869.1,225.2 868.8,224.1 867.9,223.0 866.4,221.9 864.4,220.7 861.8,219.6 858.8,218.5 855.5,217.4 852.0,216.3 848.4,215.2 844.7,214.1 841.2,213.0 837.8,211.9 834.7,210.8 831.9,209.7 829.5,208.6 827.5,207.5 826.0,206.4 824.9,205.3 824.3,204.2 824.1,203.1 824.4,202.0 824.9,200.9 825.7,199.8 826.6,198.7 827.5,197.6 828.3,196.4 828.9,195.3 829.1,194.2 829.0,193.1 828.4,192.0 827.5,190.9 826.2,189.8 824.7,188.7 823.0,187.6 821.3,186.5 819.7,185.4 818.1,184.3 816.7,183.2 815.6,182.1 814.6,181.0 813.8,179.9 813.2,178.8 810.2,178.8 809.6,179.9 808.8,181.0 807.8,182.1 806.6,183.2 805.2,184.3 803.7,185.4 802.0,186.5 800.3,187.6 798.6,188.7 797.1,189.8 795.9,190.9 794.9,192.0 794.4,193.1 794.2,194.2 794.5,195.3 795.0,196.4 795.8,197.6 796.7,198.7 797.6,199.8 798.4,200.9 799.0,202.0 799.2,203.1 799.0,204.2 798.4,205.3 797.3,206.4 795.8,207.5 793.8,208.6 791.4,209.7 788.6,210.8 785.5,211.9 782.2,213.0 778.6,214.1 775.0,215.2 771.3,216.3 767.8,217.4 764.5,218.5 761.5,219.6 759.0,220.7 756.9,221.9 755.4,223.0 754.6,224.1 754.3,225.2 754.5,226.3 755.2,227.4 756.3,228.5 757.6,229.6 759.1,230.7 760.6,231.8 762.2,232.9 763.7,234.0 765.2,235.1 766.8,236.2 768.4,237.3 770.1,238.4 772.1,239.5 774.2,240.6 776.7,241.7 779.4,242.8 782.3,243.9 785.4,245.0 788.6,246.1 791.8,247.3 794.9,248.4 797.8,249.5 800.4,250.6 802.8,251.7 804.8,252.8 806.5,253.9 807.9,255.0 809.0,256.1 809.8,257.2" fill="#d33" opacity="0.5" stroke="#d33" stroke-width="1"/>
<line x1="754.3" y1="224.9806783099103" x2="869.1" y2="224.9806783099103" stroke="#114" stroke-width="2"/>
<circle cx="811.6666666666666" cy="242.9050283478928" r="2.4" fill="#114"/>
<text x="811.6666666666666" y="180.57987869613848" text-anchor="middle" font-size="11">0.99</text>
<text x="811.6666666666666" y="376" text-anchor="middle" font-size="12">ztrsv</text>
<text x="450.0" y="428" text-anchor="middle" font-size="11" fill="#666">violin = ratio distribution over sizes · line = median · dark dot = worst size · green = every size ≥ gate</text>
</svg>
