<svg xmlns="http://www.w3.org/2000/svg" width="900" height="440" font-family="sans-serif">
<rect width="900" height="440" fill="white"/>
<text x="450.0" y="28" text-anchor="middle" font-size="18" font-weight="bold">BLAS-1: PureBLAS / OpenBLAS (AVX2, 1 thread, Float64)</text>
<line x1="60" y1="358.0" x2="880" y2="358.0" stroke="#eee"/>
<text x="52" y="362.0" text-anchor="end" font-size="11" fill="#666">0×</text>
<line x1="60" y1="344.0441726997866" x2="880" y2="344.0441726997866" stroke="#eee"/>
<text x="52" y="348.0441726997866" text-anchor="end" font-size="11" fill="#666">0.5×</text>
<line x1="60" y1="330.0883453995732" x2="880" y2="330.0883453995732" stroke="#eee"/>
<text x="52" y="334.0883453995732" text-anchor="end" font-size="11" fill="#666">1×</text>
<line x1="60" y1="316.1325180993598" x2="880" y2="316.1325180993598" stroke="#eee"/>
<text x="52" y="320.1325180993598" text-anchor="end" font-size="11" fill="#666">1.5×</text>
<line x1="60" y1="330.0883453995732" x2="880" y2="330.0883453995732" stroke="#888" stroke-width="1"/>
<line x1="60" y1="331.2048115835903" x2="880" y2="331.2048115835903" stroke="#d33" stroke-width="1.5" stroke-dasharray="6 4"/>
<text x="880" y="326.2048115835903" text-anchor="end" font-size="11" fill="#d33">0.96× gate</text>
<polygon points="128.7,332.5 129.2,332.3 130.1,332.1 131.7,331.9 134.4,331.6 138.5,331.4 144.3,331.2 151.7,331.0 160.2,330.7 169.0,330.5 176.8,330.3 182.7,330.1 185.7,329.9 185.7,329.6 183.1,329.4 178.6,329.2 172.9,329.0 166.7,328.7 160.5,328.5 154.5,328.3 149.0,328.1 144.1,327.9 140.1,327.6 136.9,327.4 134.5,327.2 132.9,327.0 131.9,326.7 131.4,326.5 131.1,326.3 131.1,326.1 131.1,325.9 131.1,325.6 131.0,325.4 130.8,325.2 130.5,325.0 130.2,324.7 129.7,324.5 129.3,324.3 129.0,324.1 128.8,323.9 128.6,323.6 128.5,323.4 128.5,323.2 128.6,323.0 128.7,322.8 128.8,322.5 128.9,322.3 128.9,322.1 128.9,321.9 128.9,321.6 128.9,321.4 128.8,321.2 128.8,321.0 128.8,320.8 128.8,320.5 129.0,320.3 129.1,320.1 129.3,319.9 129.5,319.6 129.6,319.4 129.7,319.2 129.7,319.0 129.7,318.8 129.6,318.5 129.4,318.3 129.3,318.1 129.1,317.9 128.9,317.6 128.7,317.4 128.6,317.2 128.5,317.0 128.4,316.8 128.3,316.8 128.2,317.0 128.1,317.2 128.0,317.4 127.8,317.6 127.6,317.9 127.4,318.1 127.2,318.3 127.1,318.5 127.0,318.8 126.9,319.0 126.9,319.2 127.0,319.4 127.2,319.6 127.3,319.9 127.5,320.1 127.7,320.3 127.8,320.5 127.9,320.8 127.9,321.0 127.9,321.2 127.8,321.4 127.8,321.6 127.7,321.9 127.7,322.1 127.8,322.3 127.9,322.5 128.0,322.8 128.1,323.0 128.1,323.2 128.1,323.4 128.1,323.6 127.9,323.9 127.7,324.1 127.3,324.3 126.9,324.5 126.5,324.7 126.1,325.0 125.8,325.2 125.6,325.4 125.6,325.6 125.6,325.9 125.6,326.1 125.5,326.3 125.3,326.5 124.7,326.7 123.7,327.0 122.1,327.2 119.8,327.4 116.6,327.6 112.5,327.9 107.7,328.1 102.2,328.3 96.2,328.5 89.9,328.7 83.7,329.0 78.1,329.2 73.5,329.4 70.9,329.6 71.0,329.9 74.0,330.1 79.8,330.3 87.7,330.5 96.5,330.7 105.0,331.0 112.4,331.2 118.1,331.4 122.3,331.6 125.0,331.9 126.6,332.1 127.5,332.3 127.9,332.5" fill="#2a8" opacity="0.5" stroke="#2a8" stroke-width="1"/>
<line x1="70.6" y1="329.77310355049184" x2="186.0" y2="329.77310355049184" stroke="#114" stroke-width="2"/>
<circle cx="128.33333333333331" cy="330.06192531041734" r="2.4" fill="#114"/>
<text x="128.33333333333331" y="312.3287114787083" text-anchor="middle" font-size="11">1.01</text>
<text x="128.33333333333331" y="376" text-anchor="middle" font-size="12">axpy</text>
<polygon points="266.0,331.8 266.8,331.6 268.1,331.5 270.1,331.4 273.1,331.2 277.3,331.1 282.6,331.0 289.1,330.8 296.4,330.7 304.0,330.6 311.1,330.4 316.9,330.3 320.9,330.2 322.4,330.0 321.4,329.9 318.3,329.8 313.5,329.6 307.9,329.5 302.1,329.4 296.9,329.2 292.5,329.1 289.1,329.0 286.6,328.8 284.8,328.7 283.4,328.6 282.3,328.4 281.0,328.3 279.6,328.2 278.1,328.0 276.4,327.9 274.6,327.8 273.0,327.6 271.4,327.5 270.1,327.4 269.1,327.3 268.3,327.1 267.7,327.0 267.2,326.9 266.9,326.7 266.6,326.6 266.4,326.5 266.3,326.3 266.2,326.2 266.1,326.1 266.1,325.9 266.1,325.8 266.1,325.7 266.2,325.5 266.3,325.4 266.4,325.3 266.5,325.1 266.6,325.0 266.6,324.9 266.6,324.7 266.6,324.6 266.6,324.5 266.6,324.3 266.6,324.2 266.7,324.1 266.7,323.9 266.8,323.8 266.9,323.7 267.0,323.5 267.0,323.4 266.8,323.3 266.7,323.1 266.4,323.0 266.2,322.9 265.9,322.8 265.6,322.6 265.4,322.5 265.3,322.4 264.7,322.4 264.6,322.5 264.4,322.6 264.1,322.8 263.8,322.9 263.6,323.0 263.3,323.1 263.2,323.3 263.0,323.4 263.0,323.5 263.1,323.7 263.2,323.8 263.3,323.9 263.3,324.1 263.4,324.2 263.4,324.3 263.4,324.5 263.4,324.6 263.4,324.7 263.4,324.9 263.4,325.0 263.5,325.1 263.6,325.3 263.7,325.4 263.8,325.5 263.9,325.7 263.9,325.8 263.9,325.9 263.9,326.1 263.8,326.2 263.7,326.3 263.6,326.5 263.4,326.6 263.1,326.7 262.8,326.9 262.3,327.0 261.7,327.1 260.9,327.3 259.9,327.4 258.6,327.5 257.0,327.6 255.4,327.8 253.6,327.9 251.9,328.0 250.4,328.2 249.0,328.3 247.7,328.4 246.6,328.6 245.2,328.7 243.4,328.8 240.9,329.0 237.5,329.1 233.1,329.2 227.9,329.4 222.1,329.5 216.5,329.6 211.7,329.8 208.6,329.9 207.6,330.0 209.1,330.2 213.1,330.3 218.9,330.4 226.0,330.6 233.6,330.7 240.9,330.8 247.4,331.0 252.7,331.1 256.9,331.2 259.9,331.4 261.9,331.5 263.2,331.6 264.0,331.8" fill="#2a8" opacity="0.5" stroke="#2a8" stroke-width="1"/>
<line x1="208.0" y1="329.936231295601" x2="322.0" y2="329.936231295601" stroke="#114" stroke-width="2"/>
<circle cx="265.0" cy="330.22123955651625" r="2.4" fill="#114"/>
<text x="265.0" y="317.3079729903029" text-anchor="middle" font-size="11">1.01</text>
<text x="265.0" y="376" text-anchor="middle" font-size="12">dot</text>
<polygon points="402.5,258.4 402.9,255.5 403.4,252.6 404.1,249.6 404.9,246.7 405.7,243.7 406.7,240.8 407.8,237.9 409.0,234.9 410.3,232.0 411.7,229.1 413.4,226.1 415.2,223.2 417.3,220.3 419.7,217.3 422.1,214.4 424.5,211.5 426.7,208.5 428.7,205.6 430.3,202.7 431.3,199.7 431.8,196.8 431.6,193.8 430.8,190.9 429.4,188.0 427.5,185.0 425.2,182.1 422.9,179.2 420.7,176.2 419.0,173.3 418.3,170.4 418.7,167.4 420.7,164.5 424.2,161.6 429.1,158.6 435.1,155.7 441.7,152.7 448.1,149.8 453.6,146.9 457.4,143.9 459.1,141.0 458.2,138.1 454.9,135.1 449.5,132.2 442.7,129.3 435.3,126.3 427.9,123.4 421.2,120.5 415.5,117.5 411.0,114.6 407.7,111.6 405.4,108.7 403.8,105.8 402.9,102.8 402.3,99.9 402.0,97.0 401.9,94.0 401.9,91.1 401.9,88.2 402.0,85.2 402.1,82.3 402.2,79.4 402.3,76.4 402.4,73.5 402.4,70.5 402.4,67.6 402.4,64.7 402.4,61.7 402.3,58.8 402.2,55.9 402.1,52.9 402.0,50.0 401.4,50.0 401.3,52.9 401.1,55.9 401.0,58.8 401.0,61.7 400.9,64.7 400.9,67.6 400.9,70.5 401.0,73.5 401.1,76.4 401.2,79.4 401.3,82.3 401.4,85.2 401.4,88.2 401.5,91.1 401.4,94.0 401.3,97.0 401.0,99.9 400.5,102.8 399.5,105.8 398.0,108.7 395.6,111.6 392.3,114.6 387.8,117.5 382.1,120.5 375.4,123.4 368.0,126.3 360.6,129.3 353.8,132.2 348.5,135.1 345.1,138.1 344.3,141.0 345.9,143.9 349.7,146.9 355.2,149.8 361.7,152.7 368.3,155.7 374.3,158.6 379.2,161.6 382.7,164.5 384.6,167.4 385.1,170.4 384.3,173.3 382.7,176.2 380.5,179.2 378.1,182.1 375.8,185.0 373.9,188.0 372.5,190.9 371.7,193.8 371.5,196.8 372.0,199.7 373.1,202.7 374.6,205.6 376.6,208.5 378.9,211.5 381.3,214.4 383.7,217.3 386.0,220.3 388.1,223.2 390.0,226.1 391.6,229.1 393.1,232.0 394.3,234.9 395.5,237.9 396.6,240.8 397.6,243.7 398.5,246.7 399.3,249.6 399.9,252.6 400.5,255.5 400.9,258.4" fill="#2a8" opacity="0.5" stroke="#2a8" stroke-width="1"/>
<line x1="350.7" y1="147.425685706097" x2="452.7" y2="147.425685706097" stroke="#114" stroke-width="2"/>
<circle cx="401.66666666666663" cy="202.04257626275026" r="2.4" fill="#114"/>
<text x="401.66666666666663" y="61.433962264150935" text-anchor="middle" font-size="11">7.54</text>
<text x="401.66666666666663" y="376" text-anchor="middle" font-size="12">nrm2</text>
<polygon points="540.9,326.3 541.8,326.0 542.9,325.6 544.3,325.2 546.0,324.9 548.1,324.5 550.6,324.1 553.5,323.8 556.8,323.4 560.5,323.0 564.5,322.7 568.8,322.3 573.1,321.9 577.4,321.6 581.6,321.2 585.3,320.9 588.6,320.5 591.3,320.1 593.3,319.8 594.7,319.4 595.5,319.0 595.7,318.7 595.6,318.3 595.2,317.9 594.6,317.6 594.0,317.2 593.4,316.8 592.8,316.5 592.2,316.1 591.4,315.7 590.4,315.4 589.1,315.0 587.4,314.7 585.2,314.3 582.5,313.9 579.3,313.6 575.8,313.2 572.1,312.8 568.3,312.5 564.5,312.1 561.1,311.7 558.0,311.4 555.4,311.0 553.5,310.6 552.3,310.3 551.8,309.9 552.2,309.5 553.2,309.2 554.9,308.8 557.2,308.5 560.0,308.1 563.1,307.7 566.3,307.4 569.4,307.0 572.2,306.6 574.5,306.3 576.1,305.9 577.0,305.5 577.0,305.2 576.2,304.8 574.6,304.4 572.3,304.1 569.4,303.7 566.1,303.3 562.7,303.0 559.2,302.6 555.8,302.3 552.6,301.9 549.8,301.5 547.3,301.2 545.2,300.8 543.5,300.4 533.1,300.4 531.4,300.8 529.3,301.2 526.9,301.5 524.0,301.9 520.9,302.3 517.5,302.6 514.0,303.0 510.5,303.3 507.3,303.7 504.4,304.1 502.1,304.4 500.4,304.8 499.6,305.2 499.7,305.5 500.5,305.9 502.2,306.3 504.5,306.6 507.3,307.0 510.4,307.4 513.6,307.7 516.7,308.1 519.4,308.5 521.7,308.8 523.5,309.2 524.5,309.5 524.8,309.9 524.4,310.3 523.2,310.6 521.2,311.0 518.7,311.4 515.6,311.7 512.1,312.1 508.4,312.5 504.6,312.8 500.8,313.2 497.3,313.6 494.2,313.9 491.5,314.3 489.3,314.7 487.6,315.0 486.3,315.4 485.3,315.7 484.5,316.1 483.9,316.5 483.2,316.8 482.6,317.2 482.0,317.6 481.5,317.9 481.1,318.3 480.9,318.7 481.2,319.0 482.0,319.4 483.4,319.8 485.4,320.1 488.1,320.5 491.4,320.9 495.1,321.2 499.2,321.6 503.5,321.9 507.9,322.3 512.1,322.7 516.1,323.0 519.8,323.4 523.2,323.8 526.1,324.1 528.5,324.5 530.6,324.9 532.4,325.2 533.7,325.6 534.9,326.0 535.7,326.3" fill="#2a8" opacity="0.5" stroke="#2a8" stroke-width="1"/>
<line x1="489.0" y1="314.70509180811706" x2="587.6" y2="314.70509180811706" stroke="#114" stroke-width="2"/>
<circle cx="538.3333333333333" cy="320.1233883140758" r="2.4" fill="#114"/>
<text x="538.3333333333333" y="296.9823537104586" text-anchor="middle" font-size="11">1.55</text>
<text x="538.3333333333333" y="376" text-anchor="middle" font-size="12">asum</text>
<polygon points="675.2,331.3 675.5,331.2 676.2,331.1 677.4,330.9 679.6,330.8 683.0,330.7 688.1,330.6 694.8,330.4 702.9,330.3 711.6,330.2 720.0,330.1 726.7,329.9 731.0,329.8 732.4,329.7 731.0,329.6 727.6,329.4 723.1,329.3 718.1,329.2 713.3,329.1 708.7,328.9 704.3,328.8 700.0,328.7 696.0,328.6 692.3,328.4 689.1,328.3 686.4,328.2 684.3,328.1 682.7,327.9 681.3,327.8 680.1,327.7 679.2,327.6 678.4,327.4 677.9,327.3 677.6,327.2 677.5,327.1 677.5,327.0 677.4,326.8 677.3,326.7 677.2,326.6 677.1,326.5 677.0,326.3 676.9,326.2 676.9,326.1 676.8,326.0 676.8,325.8 676.6,325.7 676.4,325.6 676.1,325.5 675.8,325.3 675.5,325.2 675.3,325.1 675.2,325.0 675.1,324.8 675.0,324.7 675.0,324.6 675.0,324.5 675.0,324.3 675.1,324.2 675.1,324.1 675.2,324.0 675.3,323.8 675.5,323.7 675.6,323.6 675.7,323.5 675.7,323.3 675.7,323.2 675.6,323.1 675.4,323.0 675.3,322.8 675.2,322.7 675.1,322.6 675.0,322.5 675.0,322.5 674.9,322.6 674.8,322.7 674.7,322.8 674.6,323.0 674.4,323.1 674.3,323.2 674.3,323.3 674.3,323.5 674.4,323.6 674.5,323.7 674.7,323.8 674.8,324.0 674.9,324.1 674.9,324.2 675.0,324.3 675.0,324.5 675.0,324.6 675.0,324.7 674.9,324.8 674.8,325.0 674.7,325.1 674.5,325.2 674.2,325.3 673.9,325.5 673.6,325.6 673.4,325.7 673.2,325.8 673.2,326.0 673.1,326.1 673.1,326.2 673.0,326.3 672.9,326.5 672.8,326.6 672.7,326.7 672.6,326.8 672.5,327.0 672.5,327.1 672.4,327.2 672.1,327.3 671.6,327.4 670.8,327.6 669.9,327.7 668.7,327.8 667.3,327.9 665.7,328.1 663.6,328.2 660.9,328.3 657.7,328.4 654.0,328.6 650.0,328.7 645.7,328.8 641.3,328.9 636.7,329.1 631.9,329.2 626.9,329.3 622.4,329.4 619.0,329.6 617.6,329.7 619.0,329.8 623.3,329.9 630.0,330.1 638.4,330.2 647.1,330.3 655.2,330.4 661.9,330.6 667.0,330.7 670.4,330.8 672.6,330.9 673.8,331.1 674.5,331.2 674.8,331.3" fill="#2a8" opacity="0.5" stroke="#2a8" stroke-width="1"/>
<line x1="619.3" y1="329.5501365096235" x2="730.7" y2="329.5501365096235" stroke="#114" stroke-width="2"/>
<circle cx="675.0" cy="329.9230769128105" r="2.4" fill="#114"/>
<text x="675.0" y="317.3708243754469" text-anchor="middle" font-size="11">1.02</text>
<text x="675.0" y="376" text-anchor="middle" font-size="12">scal</text>
<polygon points="811.7,353.1 811.8,351.6 812.2,350.1 812.9,348.5 814.5,347.0 817.3,345.5 821.3,344.0 826.6,342.4 832.6,340.9 838.5,339.4 844.1,337.9 849.2,336.3 854.1,334.8 859.0,333.3 863.6,331.7 867.2,330.2 869.1,328.7 868.8,327.2 866.6,325.6 862.8,324.1 857.8,322.6 852.0,321.1 845.7,319.5 839.3,318.0 833.2,316.5 827.9,314.9 823.2,313.4 819.4,311.9 816.5,310.4 814.4,308.8 813.0,307.3 812.3,305.8 811.9,304.3 811.7,302.7 811.7,301.2 811.7,299.7 811.7,298.1 811.7,296.6 811.7,295.1 811.7,293.6 811.7,292.0 811.7,290.5 811.7,289.0 811.7,287.5 811.7,285.9 811.7,284.4 811.7,282.9 811.7,281.3 811.7,279.8 811.7,278.3 811.7,276.8 811.7,275.2 811.7,273.7 811.7,272.2 811.7,270.7 811.7,269.1 811.7,267.6 811.7,266.1 811.7,264.5 811.8,263.0 811.9,261.5 812.1,260.0 812.3,258.4 812.5,256.9 812.6,255.4 812.5,253.9 812.4,252.3 812.1,250.8 811.9,249.3 811.8,247.7 811.7,246.2 811.7,244.7 811.7,244.7 811.6,246.2 811.5,247.7 811.4,249.3 811.2,250.8 811.0,252.3 810.8,253.9 810.7,255.4 810.8,256.9 811.0,258.4 811.3,260.0 811.4,261.5 811.6,263.0 811.6,264.5 811.7,266.1 811.7,267.6 811.7,269.1 811.7,270.7 811.7,272.2 811.7,273.7 811.7,275.2 811.7,276.8 811.7,278.3 811.7,279.8 811.7,281.3 811.7,282.9 811.7,284.4 811.7,285.9 811.7,287.5 811.7,289.0 811.7,290.5 811.7,292.0 811.7,293.6 811.7,295.1 811.7,296.6 811.7,298.1 811.7,299.7 811.6,301.2 811.6,302.7 811.4,304.3 811.1,305.8 810.3,307.3 809.0,308.8 806.8,310.4 803.9,311.9 800.1,313.4 795.5,314.9 790.1,316.5 784.0,318.0 777.6,319.5 771.3,321.1 765.5,322.6 760.5,324.1 756.7,325.6 754.5,327.2 754.3,328.7 756.1,330.2 759.7,331.7 764.3,333.3 769.2,334.8 774.2,336.3 779.3,337.9 784.8,339.4 790.8,340.9 796.7,342.4 802.0,344.0 806.1,345.5 808.8,347.0 810.4,348.5 811.2,350.1 811.5,351.6 811.6,353.1" fill="#d33" opacity="0.5" stroke="#d33" stroke-width="1"/>
<line x1="754.3" y1="328.7577383790848" x2="869.0" y2="328.7577383790848" stroke="#114" stroke-width="2"/>
<circle cx="811.6666666666666" cy="331.6941634872624" r="2.4" fill="#114"/>
<text x="811.6666666666666" y="249.22883849690012" text-anchor="middle" font-size="11">1.05</text>
<text x="811.6666666666666" y="376" text-anchor="middle" font-size="12">iamax</text>
<text x="450.0" y="428" text-anchor="middle" font-size="11" fill="#666">violin = ratio distribution over sizes · line = median · dark dot = worst size · green = every size ≥ gate</text>
</svg>
