<svg xmlns="http://www.w3.org/2000/svg" width="962" height="420" font-family="sans-serif">
<rect width="962" height="420" fill="white"/>
<text x="481.0" y="26" text-anchor="middle" font-size="17" font-weight="bold">BLAS-1 — PureBLAS / OpenBLAS (PB/OpenBLAS ratio)</text>
<line x1="46" y1="42" x2="68" y2="42" stroke="#d62728" stroke-width="3"/>
<text x="73" y="46" font-size="12">Zen3 · AVX2</text>
<line x1="176" y1="42" x2="198" y2="42" stroke="#2ca02c" stroke-width="3"/>
<text x="203" y="46" font-size="12">Zen5 · AVX-512</text>
<line x1="327" y1="42" x2="349" y2="42" stroke="#1f77b4" stroke-width="3"/>
<text x="354" y="46" font-size="12">Zen4 · AVX-512</text>
<rect x="46" y="60" width="210" height="138" fill="none" stroke="#e2e2e2"/>
<line x1="46" y1="115.76276119065531" x2="256" y2="115.76276119065531" stroke="#d33" stroke-dasharray="4 3"/>
<text x="42" y="201.0" text-anchor="end" font-size="9" fill="#999">0.5×</text>
<text x="42" y="118.76276119065531" text-anchor="end" font-size="9" fill="#999">1.0×</text>
<text x="42" y="63.0" text-anchor="end" font-size="9" fill="#999">1.6×</text>
<polygon points="46.0,107.2 79.4,114.2 116.0,115.5 149.4,113.7 186.0,115.4 219.4,115.0 256.0,113.8 256.0,117.3 219.4,117.3 186.0,116.8 149.4,116.3 116.0,115.6 79.4,115.1 46.0,131.7" fill="#d62728" opacity="0.11"/>
<polyline points="46.0,123.2 79.4,114.5 116.0,115.5 149.4,114.9 186.0,116.0 219.4,116.6 256.0,115.6" fill="none" stroke="#d62728" stroke-width="1.6"/>
<circle cx="46.0" cy="123.2" r="2" fill="#d62728"/>
<circle cx="79.4" cy="114.5" r="2" fill="#d62728"/>
<circle cx="116.0" cy="115.5" r="2" fill="#d62728"/>
<circle cx="149.4" cy="114.9" r="2" fill="#d62728"/>
<circle cx="186.0" cy="116.0" r="2" fill="#d62728"/>
<circle cx="219.4" cy="116.6" r="2" fill="#d62728"/>
<circle cx="256.0" cy="115.6" r="2" fill="#d62728"/>
<polygon points="46.0,109.2 79.4,108.9 116.0,115.6 149.4,116.6 186.0,114.4 219.4,111.8 256.0,111.4 256.0,124.9 219.4,115.5 186.0,116.2 149.4,117.4 116.0,117.5 79.4,110.2 46.0,109.8" fill="#2ca02c" opacity="0.11"/>
<polyline points="46.0,109.5 79.4,109.5 116.0,116.4 149.4,117.0 186.0,115.6 219.4,113.9 256.0,117.2" fill="none" stroke="#2ca02c" stroke-width="1.6"/>
<circle cx="46.0" cy="109.5" r="2" fill="#2ca02c"/>
<circle cx="79.4" cy="109.5" r="2" fill="#2ca02c"/>
<circle cx="116.0" cy="116.4" r="2" fill="#2ca02c"/>
<circle cx="149.4" cy="117.0" r="2" fill="#2ca02c"/>
<circle cx="186.0" cy="115.6" r="2" fill="#2ca02c"/>
<circle cx="219.4" cy="113.9" r="2" fill="#2ca02c"/>
<circle cx="256.0" cy="117.2" r="2" fill="#2ca02c"/>
<polygon points="46.0,102.4 79.4,109.1 116.0,111.4 149.4,114.1 186.0,113.8 219.4,108.6 256.0,114.0 256.0,122.5 219.4,120.7 186.0,118.8 149.4,117.9 116.0,117.6 79.4,115.9 46.0,110.6" fill="#1f77b4" opacity="0.11"/>
<polyline points="46.0,103.8 79.4,114.5 116.0,116.2 149.4,115.9 186.0,116.0 219.4,115.9 256.0,117.6" fill="none" stroke="#1f77b4" stroke-width="1.6"/>
<circle cx="46.0" cy="103.8" r="2" fill="#1f77b4"/>
<circle cx="79.4" cy="114.5" r="2" fill="#1f77b4"/>
<circle cx="116.0" cy="116.2" r="2" fill="#1f77b4"/>
<circle cx="149.4" cy="115.9" r="2" fill="#1f77b4"/>
<circle cx="186.0" cy="116.0" r="2" fill="#1f77b4"/>
<circle cx="219.4" cy="115.9" r="2" fill="#1f77b4"/>
<circle cx="256.0" cy="117.6" r="2" fill="#1f77b4"/>
<text x="151.0" y="55" text-anchor="middle" font-size="12" font-weight="bold">axpy</text>
<line x1="46.0" y1="60" x2="46.0" y2="198" stroke="#f4f4f4"/>
<text x="46.0" y="209" text-anchor="middle" font-size="8" fill="#999">1000</text>
<line x1="79.4" y1="60" x2="79.4" y2="198" stroke="#f4f4f4"/>
<text x="79.4" y="209" text-anchor="middle" font-size="8" fill="#999">2k</text>
<line x1="116.0" y1="60" x2="116.0" y2="198" stroke="#f4f4f4"/>
<text x="116.0" y="209" text-anchor="middle" font-size="8" fill="#999">9k</text>
<line x1="149.4" y1="60" x2="149.4" y2="198" stroke="#f4f4f4"/>
<text x="149.4" y="209" text-anchor="middle" font-size="8" fill="#999">29k</text>
<line x1="186.0" y1="60" x2="186.0" y2="198" stroke="#f4f4f4"/>
<text x="186.0" y="209" text-anchor="middle" font-size="8" fill="#999">97k</text>
<line x1="219.4" y1="60" x2="219.4" y2="198" stroke="#f4f4f4"/>
<text x="219.4" y="209" text-anchor="middle" font-size="8" fill="#999">292k</text>
<line x1="256.0" y1="60" x2="256.0" y2="198" stroke="#f4f4f4"/>
<text x="256.0" y="209" text-anchor="middle" font-size="8" fill="#999">976k</text>
<rect x="276" y="60" width="210" height="138" fill="none" stroke="#e2e2e2"/>
<line x1="276" y1="115.76276119065531" x2="486" y2="115.76276119065531" stroke="#d33" stroke-dasharray="4 3"/>
<text x="272" y="201.0" text-anchor="end" font-size="9" fill="#999">0.5×</text>
<text x="272" y="118.76276119065531" text-anchor="end" font-size="9" fill="#999">1.0×</text>
<text x="272" y="63.0" text-anchor="end" font-size="9" fill="#999">1.6×</text>
<polygon points="276.0,106.6 309.4,115.2 346.0,115.7 379.4,114.5 416.0,115.6 449.4,114.9 486.0,112.2 486.0,118.3 449.4,117.3 416.0,116.8 379.4,117.6 346.0,115.8 309.4,115.4 276.0,113.2" fill="#d62728" opacity="0.11"/>
<polyline points="276.0,110.4 309.4,115.3 346.0,115.7 379.4,115.7 416.0,116.5 449.4,116.5 486.0,115.9" fill="none" stroke="#d62728" stroke-width="1.6"/>
<circle cx="276.0" cy="110.4" r="2" fill="#d62728"/>
<circle cx="309.4" cy="115.3" r="2" fill="#d62728"/>
<circle cx="346.0" cy="115.7" r="2" fill="#d62728"/>
<circle cx="379.4" cy="115.7" r="2" fill="#d62728"/>
<circle cx="416.0" cy="116.5" r="2" fill="#d62728"/>
<circle cx="449.4" cy="116.5" r="2" fill="#d62728"/>
<circle cx="486.0" cy="115.9" r="2" fill="#d62728"/>
<polygon points="276.0,112.7 309.4,115.0 346.0,116.2 379.4,113.6 416.0,115.1 449.4,111.8 486.0,109.8 486.0,126.1 449.4,117.0 416.0,116.5 379.4,120.5 346.0,117.7 309.4,115.4 276.0,112.9" fill="#2ca02c" opacity="0.11"/>
<polyline points="276.0,112.8 309.4,115.2 346.0,117.0 379.4,117.9 416.0,116.1 449.4,115.6 486.0,117.7" fill="none" stroke="#2ca02c" stroke-width="1.6"/>
<circle cx="276.0" cy="112.8" r="2" fill="#2ca02c"/>
<circle cx="309.4" cy="115.2" r="2" fill="#2ca02c"/>
<circle cx="346.0" cy="117.0" r="2" fill="#2ca02c"/>
<circle cx="379.4" cy="117.9" r="2" fill="#2ca02c"/>
<circle cx="416.0" cy="116.1" r="2" fill="#2ca02c"/>
<circle cx="449.4" cy="115.6" r="2" fill="#2ca02c"/>
<circle cx="486.0" cy="117.7" r="2" fill="#2ca02c"/>
<polygon points="276.0,112.4 309.4,114.2 346.0,112.6 379.4,112.7 416.0,111.6 449.4,110.5 486.0,112.1 486.0,122.1 449.4,119.3 416.0,118.2 379.4,117.3 346.0,117.8 309.4,117.7 276.0,116.2" fill="#1f77b4" opacity="0.11"/>
<polyline points="276.0,113.9 309.4,115.5 346.0,115.9 379.4,115.4 416.0,115.8 449.4,116.2 486.0,116.0" fill="none" stroke="#1f77b4" stroke-width="1.6"/>
<circle cx="276.0" cy="113.9" r="2" fill="#1f77b4"/>
<circle cx="309.4" cy="115.5" r="2" fill="#1f77b4"/>
<circle cx="346.0" cy="115.9" r="2" fill="#1f77b4"/>
<circle cx="379.4" cy="115.4" r="2" fill="#1f77b4"/>
<circle cx="416.0" cy="115.8" r="2" fill="#1f77b4"/>
<circle cx="449.4" cy="116.2" r="2" fill="#1f77b4"/>
<circle cx="486.0" cy="116.0" r="2" fill="#1f77b4"/>
<text x="381.0" y="55" text-anchor="middle" font-size="12" font-weight="bold">dot</text>
<line x1="276.0" y1="60" x2="276.0" y2="198" stroke="#f4f4f4"/>
<text x="276.0" y="209" text-anchor="middle" font-size="8" fill="#999">1000</text>
<line x1="309.4" y1="60" x2="309.4" y2="198" stroke="#f4f4f4"/>
<text x="309.4" y="209" text-anchor="middle" font-size="8" fill="#999">2k</text>
<line x1="346.0" y1="60" x2="346.0" y2="198" stroke="#f4f4f4"/>
<text x="346.0" y="209" text-anchor="middle" font-size="8" fill="#999">9k</text>
<line x1="379.4" y1="60" x2="379.4" y2="198" stroke="#f4f4f4"/>
<text x="379.4" y="209" text-anchor="middle" font-size="8" fill="#999">29k</text>
<line x1="416.0" y1="60" x2="416.0" y2="198" stroke="#f4f4f4"/>
<text x="416.0" y="209" text-anchor="middle" font-size="8" fill="#999">97k</text>
<line x1="449.4" y1="60" x2="449.4" y2="198" stroke="#f4f4f4"/>
<text x="449.4" y="209" text-anchor="middle" font-size="8" fill="#999">292k</text>
<line x1="486.0" y1="60" x2="486.0" y2="198" stroke="#f4f4f4"/>
<text x="486.0" y="209" text-anchor="middle" font-size="8" fill="#999">976k</text>
<rect x="506" y="60" width="210" height="138" fill="none" stroke="#e2e2e2"/>
<line x1="506" y1="170.24930997802818" x2="716" y2="170.24930997802818" stroke="#d33" stroke-dasharray="4 3"/>
<text x="502" y="201.0" text-anchor="end" font-size="9" fill="#999">0.5×</text>
<text x="502" y="173.24930997802818" text-anchor="end" font-size="9" fill="#999">1.0×</text>
<text x="502" y="63.00434758419125" text-anchor="end" font-size="9" fill="#999">15.7×</text>
<polygon points="506.0,89.6 539.4,87.8 576.0,87.4 609.4,87.1 646.0,95.8 679.4,96.2 716.0,96.7 716.0,101.7 679.4,97.8 646.0,97.2 609.4,87.8 576.0,87.8 539.4,88.0 506.0,89.9" fill="#d62728" opacity="0.11"/>
<polyline points="506.0,89.8 539.4,88.0 576.0,87.7 609.4,87.4 646.0,96.5 679.4,96.7 716.0,98.3" fill="none" stroke="#d62728" stroke-width="1.6"/>
<circle cx="506.0" cy="89.8" r="2" fill="#d62728"/>
<circle cx="539.4" cy="88.0" r="2" fill="#d62728"/>
<circle cx="576.0" cy="87.7" r="2" fill="#d62728"/>
<circle cx="609.4" cy="87.4" r="2" fill="#d62728"/>
<circle cx="646.0" cy="96.5" r="2" fill="#d62728"/>
<circle cx="679.4" cy="96.7" r="2" fill="#d62728"/>
<circle cx="716.0" cy="98.3" r="2" fill="#d62728"/>
<polygon points="506.0,68.2 539.4,63.1 576.0,74.0 609.4,73.1 646.0,67.7 679.4,93.3 716.0,91.3 716.0,95.0 679.4,94.4 646.0,77.6 609.4,73.7 576.0,74.9 539.4,63.5 506.0,69.0" fill="#2ca02c" opacity="0.11"/>
<polyline points="506.0,68.4 539.4,63.4 576.0,74.5 609.4,73.4 646.0,74.1 679.4,93.8 716.0,92.5" fill="none" stroke="#2ca02c" stroke-width="1.6"/>
<circle cx="506.0" cy="68.4" r="2" fill="#2ca02c"/>
<circle cx="539.4" cy="63.4" r="2" fill="#2ca02c"/>
<circle cx="576.0" cy="74.5" r="2" fill="#2ca02c"/>
<circle cx="609.4" cy="73.4" r="2" fill="#2ca02c"/>
<circle cx="646.0" cy="74.1" r="2" fill="#2ca02c"/>
<circle cx="679.4" cy="93.8" r="2" fill="#2ca02c"/>
<circle cx="716.0" cy="92.5" r="2" fill="#2ca02c"/>
<polygon points="506.0,70.0 539.4,68.7 576.0,87.6 609.4,87.8 646.0,89.4 679.4,101.0 716.0,102.6 716.0,109.1 679.4,108.1 646.0,99.3 609.4,91.3 576.0,90.0 539.4,71.1 506.0,74.2" fill="#1f77b4" opacity="0.11"/>
<polyline points="506.0,71.1 539.4,70.1 576.0,88.4 609.4,88.4 646.0,94.1 679.4,102.1 716.0,105.2" fill="none" stroke="#1f77b4" stroke-width="1.6"/>
<circle cx="506.0" cy="71.1" r="2" fill="#1f77b4"/>
<circle cx="539.4" cy="70.1" r="2" fill="#1f77b4"/>
<circle cx="576.0" cy="88.4" r="2" fill="#1f77b4"/>
<circle cx="609.4" cy="88.4" r="2" fill="#1f77b4"/>
<circle cx="646.0" cy="94.1" r="2" fill="#1f77b4"/>
<circle cx="679.4" cy="102.1" r="2" fill="#1f77b4"/>
<circle cx="716.0" cy="105.2" r="2" fill="#1f77b4"/>
<text x="611.0" y="55" text-anchor="middle" font-size="12" font-weight="bold">nrm2</text>
<line x1="506.0" y1="60" x2="506.0" y2="198" stroke="#f4f4f4"/>
<text x="506.0" y="209" text-anchor="middle" font-size="8" fill="#999">1000</text>
<line x1="539.4" y1="60" x2="539.4" y2="198" stroke="#f4f4f4"/>
<text x="539.4" y="209" text-anchor="middle" font-size="8" fill="#999">2k</text>
<line x1="576.0" y1="60" x2="576.0" y2="198" stroke="#f4f4f4"/>
<text x="576.0" y="209" text-anchor="middle" font-size="8" fill="#999">9k</text>
<line x1="609.4" y1="60" x2="609.4" y2="198" stroke="#f4f4f4"/>
<text x="609.4" y="209" text-anchor="middle" font-size="8" fill="#999">29k</text>
<line x1="646.0" y1="60" x2="646.0" y2="198" stroke="#f4f4f4"/>
<text x="646.0" y="209" text-anchor="middle" font-size="8" fill="#999">97k</text>
<line x1="679.4" y1="60" x2="679.4" y2="198" stroke="#f4f4f4"/>
<text x="679.4" y="209" text-anchor="middle" font-size="8" fill="#999">292k</text>
<line x1="716.0" y1="60" x2="716.0" y2="198" stroke="#f4f4f4"/>
<text x="716.0" y="209" text-anchor="middle" font-size="8" fill="#999">976k</text>
<rect x="736" y="60" width="210" height="138" fill="none" stroke="#e2e2e2"/>
<line x1="736" y1="136.78689930922954" x2="946" y2="136.78689930922954" stroke="#d33" stroke-dasharray="4 3"/>
<text x="732" y="201.0" text-anchor="end" font-size="9" fill="#999">0.5×</text>
<text x="732" y="139.78689930922954" text-anchor="end" font-size="9" fill="#999">1.0×</text>
<polygon points="736.0,66.8 769.4,80.8 806.0,97.2 839.4,97.4 876.0,109.5 909.4,111.4 946.0,111.1 946.0,118.6 909.4,112.6 876.0,110.9 839.4,98.4 806.0,97.7 769.4,81.4 736.0,79.7" fill="#d62728" opacity="0.11"/>
<polyline points="736.0,68.9 769.4,81.0 806.0,97.6 839.4,97.9 876.0,110.1 909.4,111.9 946.0,112.2" fill="none" stroke="#d62728" stroke-width="1.6"/>
<circle cx="736.0" cy="68.9" r="2" fill="#d62728"/>
<circle cx="769.4" cy="81.0" r="2" fill="#d62728"/>
<circle cx="806.0" cy="97.6" r="2" fill="#d62728"/>
<circle cx="839.4" cy="97.9" r="2" fill="#d62728"/>
<circle cx="876.0" cy="110.1" r="2" fill="#d62728"/>
<circle cx="909.4" cy="111.9" r="2" fill="#d62728"/>
<circle cx="946.0" cy="112.2" r="2" fill="#d62728"/>
<polygon points="736.0,110.3 769.4,128.4 806.0,136.5 839.4,136.7 876.0,131.8 909.4,136.1 946.0,133.9 946.0,138.5 909.4,136.9 876.0,138.7 839.4,137.0 806.0,138.2 769.4,128.7 736.0,111.0" fill="#2ca02c" opacity="0.11"/>
<polyline points="736.0,110.5 769.4,128.5 806.0,138.1 839.4,136.9 876.0,135.9 909.4,136.6 946.0,136.6" fill="none" stroke="#2ca02c" stroke-width="1.6"/>
<circle cx="736.0" cy="110.5" r="2" fill="#2ca02c"/>
<circle cx="769.4" cy="128.5" r="2" fill="#2ca02c"/>
<circle cx="806.0" cy="138.1" r="2" fill="#2ca02c"/>
<circle cx="839.4" cy="136.9" r="2" fill="#2ca02c"/>
<circle cx="876.0" cy="135.9" r="2" fill="#2ca02c"/>
<circle cx="909.4" cy="136.6" r="2" fill="#2ca02c"/>
<circle cx="946.0" cy="136.6" r="2" fill="#2ca02c"/>
<polygon points="736.0,105.7 769.4,118.7 806.0,133.6 839.4,134.0 876.0,134.5 909.4,126.7 946.0,132.6 946.0,147.2 909.4,141.6 876.0,138.2 839.4,139.6 806.0,137.9 769.4,126.0 736.0,108.4" fill="#1f77b4" opacity="0.11"/>
<polyline points="736.0,106.8 769.4,124.8 806.0,136.4 839.4,136.7 876.0,136.5 909.4,137.2 946.0,138.2" fill="none" stroke="#1f77b4" stroke-width="1.6"/>
<circle cx="736.0" cy="106.8" r="2" fill="#1f77b4"/>
<circle cx="769.4" cy="124.8" r="2" fill="#1f77b4"/>
<circle cx="806.0" cy="136.4" r="2" fill="#1f77b4"/>
<circle cx="839.4" cy="136.7" r="2" fill="#1f77b4"/>
<circle cx="876.0" cy="136.5" r="2" fill="#1f77b4"/>
<circle cx="909.4" cy="137.2" r="2" fill="#1f77b4"/>
<circle cx="946.0" cy="138.2" r="2" fill="#1f77b4"/>
<text x="841.0" y="55" text-anchor="middle" font-size="12" font-weight="bold">asum</text>
<line x1="736.0" y1="60" x2="736.0" y2="198" stroke="#f4f4f4"/>
<text x="736.0" y="209" text-anchor="middle" font-size="8" fill="#999">1000</text>
<line x1="769.4" y1="60" x2="769.4" y2="198" stroke="#f4f4f4"/>
<text x="769.4" y="209" text-anchor="middle" font-size="8" fill="#999">2k</text>
<line x1="806.0" y1="60" x2="806.0" y2="198" stroke="#f4f4f4"/>
<text x="806.0" y="209" text-anchor="middle" font-size="8" fill="#999">9k</text>
<line x1="839.4" y1="60" x2="839.4" y2="198" stroke="#f4f4f4"/>
<text x="839.4" y="209" text-anchor="middle" font-size="8" fill="#999">29k</text>
<line x1="876.0" y1="60" x2="876.0" y2="198" stroke="#f4f4f4"/>
<text x="876.0" y="209" text-anchor="middle" font-size="8" fill="#999">97k</text>
<line x1="909.4" y1="60" x2="909.4" y2="198" stroke="#f4f4f4"/>
<text x="909.4" y="209" text-anchor="middle" font-size="8" fill="#999">292k</text>
<line x1="946.0" y1="60" x2="946.0" y2="198" stroke="#f4f4f4"/>
<text x="946.0" y="209" text-anchor="middle" font-size="8" fill="#999">976k</text>
<rect x="46" y="232" width="210" height="138" fill="none" stroke="#e2e2e2"/>
<line x1="46" y1="287.7627611906553" x2="256" y2="287.7627611906553" stroke="#d33" stroke-dasharray="4 3"/>
<text x="42" y="373.0" text-anchor="end" font-size="9" fill="#999">0.5×</text>
<text x="42" y="290.7627611906553" text-anchor="end" font-size="9" fill="#999">1.0×</text>
<text x="42" y="235.0" text-anchor="end" font-size="9" fill="#999">1.6×</text>
<polygon points="46.0,282.5 79.4,285.6 116.0,286.7 149.4,286.1 186.0,287.9 219.4,286.9 256.0,286.6 256.0,288.5 219.4,288.7 186.0,288.8 149.4,286.7 116.0,287.2 79.4,286.1 46.0,312.8" fill="#d62728" opacity="0.11"/>
<polyline points="46.0,287.9 79.4,285.6 116.0,287.0 149.4,286.5 186.0,288.4 219.4,287.7 256.0,287.4" fill="none" stroke="#d62728" stroke-width="1.6"/>
<circle cx="46.0" cy="287.9" r="2" fill="#d62728"/>
<circle cx="79.4" cy="285.6" r="2" fill="#d62728"/>
<circle cx="116.0" cy="287.0" r="2" fill="#d62728"/>
<circle cx="149.4" cy="286.5" r="2" fill="#d62728"/>
<circle cx="186.0" cy="288.4" r="2" fill="#d62728"/>
<circle cx="219.4" cy="287.7" r="2" fill="#d62728"/>
<circle cx="256.0" cy="287.4" r="2" fill="#d62728"/>
<polygon points="46.0,277.4 79.4,258.1 116.0,281.2 149.4,283.2 186.0,282.6 219.4,286.8 256.0,284.3 256.0,289.8 219.4,288.1 186.0,286.8 149.4,284.3 116.0,282.0 79.4,263.6 46.0,282.0" fill="#2ca02c" opacity="0.11"/>
<polyline points="46.0,279.1 79.4,261.3 116.0,281.6 149.4,283.5 186.0,284.7 219.4,287.6 256.0,287.8" fill="none" stroke="#2ca02c" stroke-width="1.6"/>
<circle cx="46.0" cy="279.1" r="2" fill="#2ca02c"/>
<circle cx="79.4" cy="261.3" r="2" fill="#2ca02c"/>
<circle cx="116.0" cy="281.6" r="2" fill="#2ca02c"/>
<circle cx="149.4" cy="283.5" r="2" fill="#2ca02c"/>
<circle cx="186.0" cy="284.7" r="2" fill="#2ca02c"/>
<circle cx="219.4" cy="287.6" r="2" fill="#2ca02c"/>
<circle cx="256.0" cy="287.8" r="2" fill="#2ca02c"/>
<polygon points="46.0,270.8 79.4,279.5 116.0,280.7 149.4,281.6 186.0,280.9 219.4,278.5 256.0,255.2 256.0,298.0 219.4,295.2 186.0,286.2 149.4,290.8 116.0,288.2 79.4,284.4 46.0,275.3" fill="#1f77b4" opacity="0.11"/>
<polyline points="46.0,272.3 79.4,281.7 116.0,283.3 149.4,284.3 186.0,284.0 219.4,282.8 256.0,286.4" fill="none" stroke="#1f77b4" stroke-width="1.6"/>
<circle cx="46.0" cy="272.3" r="2" fill="#1f77b4"/>
<circle cx="79.4" cy="281.7" r="2" fill="#1f77b4"/>
<circle cx="116.0" cy="283.3" r="2" fill="#1f77b4"/>
<circle cx="149.4" cy="284.3" r="2" fill="#1f77b4"/>
<circle cx="186.0" cy="284.0" r="2" fill="#1f77b4"/>
<circle cx="219.4" cy="282.8" r="2" fill="#1f77b4"/>
<circle cx="256.0" cy="286.4" r="2" fill="#1f77b4"/>
<text x="151.0" y="227" text-anchor="middle" font-size="12" font-weight="bold">scal</text>
<line x1="46.0" y1="232" x2="46.0" y2="370" stroke="#f4f4f4"/>
<text x="46.0" y="381" text-anchor="middle" font-size="8" fill="#999">1000</text>
<line x1="79.4" y1="232" x2="79.4" y2="370" stroke="#f4f4f4"/>
<text x="79.4" y="381" text-anchor="middle" font-size="8" fill="#999">2k</text>
<line x1="116.0" y1="232" x2="116.0" y2="370" stroke="#f4f4f4"/>
<text x="116.0" y="381" text-anchor="middle" font-size="8" fill="#999">9k</text>
<line x1="149.4" y1="232" x2="149.4" y2="370" stroke="#f4f4f4"/>
<text x="149.4" y="381" text-anchor="middle" font-size="8" fill="#999">29k</text>
<line x1="186.0" y1="232" x2="186.0" y2="370" stroke="#f4f4f4"/>
<text x="186.0" y="381" text-anchor="middle" font-size="8" fill="#999">97k</text>
<line x1="219.4" y1="232" x2="219.4" y2="370" stroke="#f4f4f4"/>
<text x="219.4" y="381" text-anchor="middle" font-size="8" fill="#999">292k</text>
<line x1="256.0" y1="232" x2="256.0" y2="370" stroke="#f4f4f4"/>
<text x="256.0" y="381" text-anchor="middle" font-size="8" fill="#999">976k</text>
<rect x="276" y="232" width="210" height="138" fill="none" stroke="#e2e2e2"/>
<line x1="276" y1="308.26407207078915" x2="486" y2="308.26407207078915" stroke="#d33" stroke-dasharray="4 3"/>
<text x="272" y="373.0" text-anchor="end" font-size="9" fill="#999">0.5×</text>
<text x="272" y="311.26407207078915" text-anchor="end" font-size="9" fill="#999">1.0×</text>
<text x="272" y="235.16461642841819" text-anchor="end" font-size="9" fill="#999">2.35×</text>
<polygon points="276.0,288.5 309.4,289.6 346.0,281.4 379.4,280.0 416.0,273.8 449.4,275.0 486.0,272.0 486.0,319.7 449.4,322.7 416.0,323.7 379.4,333.9 346.0,335.2 309.4,351.5 276.0,349.9" fill="#d62728" opacity="0.11"/>
<polyline points="276.0,307.4 309.4,312.9 346.0,305.1 379.4,302.9 416.0,294.8 449.4,296.2 486.0,292.0" fill="none" stroke="#d62728" stroke-width="1.6"/>
<circle cx="276.0" cy="307.4" r="2" fill="#d62728"/>
<circle cx="309.4" cy="312.9" r="2" fill="#d62728"/>
<circle cx="346.0" cy="305.1" r="2" fill="#d62728"/>
<circle cx="379.4" cy="302.9" r="2" fill="#d62728"/>
<circle cx="416.0" cy="294.8" r="2" fill="#d62728"/>
<circle cx="449.4" cy="296.2" r="2" fill="#d62728"/>
<circle cx="486.0" cy="292.0" r="2" fill="#d62728"/>
<polygon points="276.0,248.1 309.4,238.9 346.0,240.4 379.4,242.5 416.0,239.4 449.4,239.0 486.0,241.4 486.0,287.9 449.4,295.8 416.0,304.3 379.4,310.8 346.0,308.8 309.4,307.8 276.0,308.7" fill="#2ca02c" opacity="0.11"/>
<polyline points="276.0,277.1 309.4,264.8 346.0,266.8 379.4,270.1 416.0,265.2 449.4,260.0 486.0,258.3" fill="none" stroke="#2ca02c" stroke-width="1.6"/>
<circle cx="276.0" cy="277.1" r="2" fill="#2ca02c"/>
<circle cx="309.4" cy="264.8" r="2" fill="#2ca02c"/>
<circle cx="346.0" cy="266.8" r="2" fill="#2ca02c"/>
<circle cx="379.4" cy="270.1" r="2" fill="#2ca02c"/>
<circle cx="416.0" cy="265.2" r="2" fill="#2ca02c"/>
<circle cx="449.4" cy="260.0" r="2" fill="#2ca02c"/>
<circle cx="486.0" cy="258.3" r="2" fill="#2ca02c"/>
<polygon points="276.0,276.9 309.4,272.8 346.0,265.1 379.4,266.8 416.0,261.4 449.4,258.5 486.0,259.3 486.0,302.2 449.4,304.6 416.0,301.2 379.4,309.7 346.0,311.6 309.4,322.1 276.0,323.4" fill="#1f77b4" opacity="0.11"/>
<polyline points="276.0,291.8 309.4,291.2 346.0,281.5 379.4,284.6 416.0,281.6 449.4,277.1 486.0,277.3" fill="none" stroke="#1f77b4" stroke-width="1.6"/>
<circle cx="276.0" cy="291.8" r="2" fill="#1f77b4"/>
<circle cx="309.4" cy="291.2" r="2" fill="#1f77b4"/>
<circle cx="346.0" cy="281.5" r="2" fill="#1f77b4"/>
<circle cx="379.4" cy="284.6" r="2" fill="#1f77b4"/>
<circle cx="416.0" cy="281.6" r="2" fill="#1f77b4"/>
<circle cx="449.4" cy="277.1" r="2" fill="#1f77b4"/>
<circle cx="486.0" cy="277.3" r="2" fill="#1f77b4"/>
<text x="381.0" y="227" text-anchor="middle" font-size="12" font-weight="bold">iamax</text>
<line x1="276.0" y1="232" x2="276.0" y2="370" stroke="#f4f4f4"/>
<text x="276.0" y="381" text-anchor="middle" font-size="8" fill="#999">1000</text>
<line x1="309.4" y1="232" x2="309.4" y2="370" stroke="#f4f4f4"/>
<text x="309.4" y="381" text-anchor="middle" font-size="8" fill="#999">2k</text>
<line x1="346.0" y1="232" x2="346.0" y2="370" stroke="#f4f4f4"/>
<text x="346.0" y="381" text-anchor="middle" font-size="8" fill="#999">9k</text>
<line x1="379.4" y1="232" x2="379.4" y2="370" stroke="#f4f4f4"/>
<text x="379.4" y="381" text-anchor="middle" font-size="8" fill="#999">29k</text>
<line x1="416.0" y1="232" x2="416.0" y2="370" stroke="#f4f4f4"/>
<text x="416.0" y="381" text-anchor="middle" font-size="8" fill="#999">97k</text>
<line x1="449.4" y1="232" x2="449.4" y2="370" stroke="#f4f4f4"/>
<text x="449.4" y="381" text-anchor="middle" font-size="8" fill="#999">292k</text>
<line x1="486.0" y1="232" x2="486.0" y2="370" stroke="#f4f4f4"/>
<text x="486.0" y="381" text-anchor="middle" font-size="8" fill="#999">976k</text>
</svg>
