<svg xmlns="http://www.w3.org/2000/svg" width="900" height="440" font-family="sans-serif">
<rect width="900" height="440" fill="white"/>
<text x="450.0" y="28" text-anchor="middle" font-size="18" font-weight="bold">Complex BLAS-1: PureBLAS / OpenBLAS (AVX2, 1 thread, ComplexF64)</text>
<line x1="60" y1="358.0" x2="880" y2="358.0" stroke="#eee"/>
<text x="52" y="362.0" text-anchor="end" font-size="11" fill="#666">0×</text>
<line x1="60" y1="339.74570070828486" x2="880" y2="339.74570070828486" stroke="#eee"/>
<text x="52" y="343.74570070828486" text-anchor="end" font-size="11" fill="#666">0.5×</text>
<line x1="60" y1="321.4914014165698" x2="880" y2="321.4914014165698" stroke="#eee"/>
<text x="52" y="325.4914014165698" text-anchor="end" font-size="11" fill="#666">1×</text>
<line x1="60" y1="303.23710212485463" x2="880" y2="303.23710212485463" stroke="#eee"/>
<text x="52" y="307.23710212485463" text-anchor="end" font-size="11" fill="#666">1.5×</text>
<line x1="60" y1="321.4914014165698" x2="880" y2="321.4914014165698" stroke="#888" stroke-width="1"/>
<line x1="60" y1="322.95174535990697" x2="880" y2="322.95174535990697" stroke="#d33" stroke-width="1.5" stroke-dasharray="6 4"/>
<text x="880" y="317.95174535990697" text-anchor="end" font-size="11" fill="#d33">0.96× gate</text>
<polygon points="142.0,346.6 142.0,346.1 142.1,345.6 142.2,345.1 142.4,344.6 142.5,344.1 142.7,343.6 142.8,343.1 142.7,342.6 142.5,342.1 142.4,341.6 142.2,341.1 142.1,340.6 142.0,340.1 142.0,339.6 142.0,339.1 142.0,338.6 142.0,338.1 142.0,337.6 142.0,337.1 142.0,336.6 142.0,336.1 142.0,335.6 142.0,335.1 142.0,334.6 142.0,334.1 142.0,333.6 142.0,333.1 142.0,332.6 142.0,332.1 142.0,331.6 142.0,331.1 142.0,330.6 142.0,330.1 142.0,329.6 142.0,329.1 142.0,328.6 142.0,328.1 142.0,327.6 142.0,327.1 142.0,326.6 142.1,326.1 142.3,325.6 143.1,325.1 145.0,324.6 149.3,324.1 157.3,323.6 169.6,323.1 185.0,322.6 199.8,322.1 209.5,321.6 210.9,321.1 204.1,320.6 192.2,320.1 179.4,319.6 169.0,319.1 162.1,318.6 158.6,318.1 157.6,317.6 158.2,317.1 159.4,316.6 160.5,316.1 160.4,315.6 158.8,315.1 155.8,314.6 152.0,314.1 148.3,313.6 145.4,313.1 143.6,312.6 142.7,312.1 142.2,311.6 142.1,311.1 141.9,311.1 141.8,311.6 141.3,312.1 140.4,312.6 138.6,313.1 135.7,313.6 132.0,314.1 128.2,314.6 125.2,315.1 123.6,315.6 123.5,316.1 124.6,316.6 125.8,317.1 126.4,317.6 125.4,318.1 121.9,318.6 115.0,319.1 104.6,319.6 91.8,320.1 79.9,320.6 73.1,321.1 74.5,321.6 84.2,322.1 99.0,322.6 114.4,323.1 126.7,323.6 134.7,324.1 139.0,324.6 140.9,325.1 141.7,325.6 141.9,326.1 142.0,326.6 142.0,327.1 142.0,327.6 142.0,328.1 142.0,328.6 142.0,329.1 142.0,329.6 142.0,330.1 142.0,330.6 142.0,331.1 142.0,331.6 142.0,332.1 142.0,332.6 142.0,333.1 142.0,333.6 142.0,334.1 142.0,334.6 142.0,335.1 142.0,335.6 142.0,336.1 142.0,336.6 142.0,337.1 142.0,337.6 142.0,338.1 142.0,338.6 142.0,339.1 142.0,339.6 142.0,340.1 141.9,340.6 141.8,341.1 141.6,341.6 141.5,342.1 141.3,342.6 141.2,343.1 141.3,343.6 141.5,344.1 141.6,344.6 141.8,345.1 141.9,345.6 142.0,346.1 142.0,346.6" fill="#2a8" opacity="0.5" stroke="#2a8" stroke-width="1"/>
<line x1="73.5" y1="321.0173176913521" x2="210.5" y2="321.0173176913521" stroke="#114" stroke-width="2"/>
<circle cx="142.0" cy="321.8160368354104" r="2.4" fill="#114"/>
<text x="142.0" y="308.5718453994262" text-anchor="middle" font-size="11">1.01</text>
<text x="142.0" y="376" text-anchor="middle" font-size="12">zaxpy</text>
<polygon points="306.1,335.4 306.2,334.8 306.5,334.1 307.1,333.5 308.3,332.9 310.2,332.2 312.9,331.6 316.0,331.0 318.8,330.3 320.4,329.7 320.1,329.0 318.3,328.4 315.4,327.8 312.6,327.1 310.6,326.5 310.1,325.9 311.8,325.2 316.2,324.6 324.1,324.0 335.3,323.3 348.8,322.7 361.9,322.1 371.5,321.4 374.9,320.8 371.4,320.2 362.6,319.5 351.3,318.9 340.4,318.3 331.6,317.6 325.4,317.0 321.3,316.4 318.4,315.7 315.9,315.1 313.7,314.4 311.5,313.8 309.6,313.2 308.1,312.5 307.1,311.9 306.5,311.3 306.2,310.6 306.1,310.0 306.0,309.4 306.0,308.7 306.0,308.1 306.0,307.5 306.0,306.8 306.0,306.2 306.0,305.6 306.0,304.9 306.0,304.3 306.0,303.7 306.0,303.0 306.0,302.4 306.0,301.8 306.0,301.1 306.0,300.5 306.0,299.9 306.0,299.2 306.1,298.6 306.1,297.9 306.2,297.3 306.4,296.7 306.6,296.0 306.7,295.4 306.8,294.8 306.7,294.1 306.6,293.5 306.4,292.9 306.3,292.2 306.1,291.6 306.1,291.0 306.0,290.3 306.0,290.3 305.9,291.0 305.9,291.6 305.7,292.2 305.6,292.9 305.4,293.5 305.3,294.1 305.2,294.8 305.3,295.4 305.4,296.0 305.6,296.7 305.8,297.3 305.9,297.9 305.9,298.6 306.0,299.2 306.0,299.9 306.0,300.5 306.0,301.1 306.0,301.8 306.0,302.4 306.0,303.0 306.0,303.7 306.0,304.3 306.0,304.9 306.0,305.6 306.0,306.2 306.0,306.8 306.0,307.5 306.0,308.1 306.0,308.7 306.0,309.4 305.9,310.0 305.8,310.6 305.5,311.3 304.9,311.9 303.9,312.5 302.4,313.2 300.5,313.8 298.3,314.4 296.1,315.1 293.6,315.7 290.7,316.4 286.6,317.0 280.4,317.6 271.6,318.3 260.7,318.9 249.4,319.5 240.6,320.2 237.1,320.8 240.5,321.4 250.1,322.1 263.2,322.7 276.7,323.3 287.9,324.0 295.8,324.6 300.2,325.2 301.9,325.9 301.4,326.5 299.4,327.1 296.6,327.8 293.7,328.4 291.9,329.0 291.6,329.7 293.2,330.3 296.0,331.0 299.1,331.6 301.8,332.2 303.7,332.9 304.9,333.5 305.5,334.1 305.8,334.8 305.9,335.4" fill="#d33" opacity="0.5" stroke="#d33" stroke-width="1"/>
<line x1="237.9" y1="321.11121077173146" x2="374.1" y2="321.11121077173146" stroke="#114" stroke-width="2"/>
<circle cx="306.0" cy="329.4205036831918" r="2.4" fill="#114"/>
<text x="306.0" y="288.750928535337" text-anchor="middle" font-size="11">1.01</text>
<text x="306.0" y="376" text-anchor="middle" font-size="12">zdotc</text>
<polygon points="470.7,323.1 471.1,323.0 471.8,322.9 472.8,322.8 474.2,322.7 476.2,322.7 478.9,322.6 482.5,322.5 487.0,322.4 492.6,322.3 499.1,322.2 506.4,322.1 514.0,322.0 521.4,321.9 528.1,321.8 533.5,321.7 537.1,321.6 538.9,321.5 538.7,321.4 537.0,321.3 534.0,321.2 530.3,321.1 526.2,321.1 522.2,321.0 518.4,320.9 515.0,320.8 512.1,320.7 509.5,320.6 507.4,320.5 505.6,320.4 504.0,320.3 502.4,320.2 500.8,320.1 499.0,320.0 496.8,319.9 494.4,319.8 491.8,319.7 488.9,319.6 486.1,319.5 483.4,319.5 481.0,319.4 478.8,319.3 477.0,319.2 475.6,319.1 474.4,319.0 473.6,318.9 473.0,318.8 472.6,318.7 472.5,318.6 472.4,318.5 472.6,318.4 472.9,318.3 473.3,318.2 473.7,318.1 474.2,318.0 474.7,318.0 475.1,317.9 475.5,317.8 475.6,317.7 475.6,317.6 475.4,317.5 475.0,317.4 474.5,317.3 473.9,317.2 473.3,317.1 472.7,317.0 472.1,316.9 471.6,316.8 471.1,316.7 470.8,316.6 470.5,316.5 470.3,316.4 469.7,316.4 469.5,316.5 469.2,316.6 468.9,316.7 468.4,316.8 467.9,316.9 467.3,317.0 466.7,317.1 466.1,317.2 465.5,317.3 465.0,317.4 464.6,317.5 464.4,317.6 464.4,317.7 464.5,317.8 464.9,317.9 465.3,318.0 465.8,318.0 466.3,318.1 466.7,318.2 467.1,318.3 467.4,318.4 467.6,318.5 467.5,318.6 467.4,318.7 467.0,318.8 466.4,318.9 465.6,319.0 464.4,319.1 463.0,319.2 461.2,319.3 459.0,319.4 456.6,319.5 453.9,319.5 451.1,319.6 448.2,319.7 445.6,319.8 443.2,319.9 441.0,320.0 439.2,320.1 437.6,320.2 436.0,320.3 434.4,320.4 432.6,320.5 430.5,320.6 427.9,320.7 425.0,320.8 421.6,320.9 417.8,321.0 413.8,321.1 409.7,321.1 406.0,321.2 403.0,321.3 401.3,321.4 401.1,321.5 402.9,321.6 406.5,321.7 411.9,321.8 418.6,321.9 426.0,322.0 433.6,322.1 440.9,322.2 447.4,322.3 453.0,322.4 457.5,322.5 461.1,322.6 463.8,322.7 465.8,322.7 467.2,322.8 468.2,322.9 468.9,323.0 469.3,323.1" fill="#2a8" opacity="0.5" stroke="#2a8" stroke-width="1"/>
<line x1="405.7" y1="321.24929234670014" x2="534.3" y2="321.24929234670014" stroke="#114" stroke-width="2"/>
<circle cx="470.0" cy="321.71960410025076" r="2.4" fill="#114"/>
<text x="470.0" y="311.1537172807311" text-anchor="middle" font-size="11">1.01</text>
<text x="470.0" y="376" text-anchor="middle" font-size="12">zscal</text>
<polygon points="634.4,247.9 634.5,245.1 634.6,242.3 634.7,239.6 634.8,236.8 634.9,234.0 634.9,231.2 634.9,228.4 634.9,225.6 635.0,222.8 635.0,220.0 635.0,217.3 635.1,214.5 635.2,211.7 635.5,208.9 636.0,206.1 636.6,203.3 637.4,200.5 638.6,197.7 640.0,195.0 641.7,192.2 643.8,189.4 646.1,186.6 648.7,183.8 651.5,181.0 654.3,178.2 657.2,175.4 659.9,172.7 662.5,169.9 664.8,167.1 666.8,164.3 668.4,161.5 669.6,158.7 670.4,155.9 670.8,153.1 670.9,150.4 670.5,147.6 669.8,144.8 668.7,142.0 667.3,139.2 665.5,136.4 663.5,133.6 661.3,130.8 659.0,128.1 656.6,125.3 654.3,122.5 652.3,119.7 650.5,116.9 649.3,114.1 648.6,111.3 648.8,108.5 649.8,105.8 651.7,103.0 654.7,100.2 658.7,97.4 663.6,94.6 669.3,91.8 675.5,89.0 681.9,86.2 688.2,83.5 693.8,80.7 698.3,77.9 701.5,75.1 702.9,72.3 702.5,69.5 700.2,66.7 696.3,63.9 691.1,61.2 684.8,58.4 678.1,55.6 671.1,52.8 664.4,50.0 603.6,50.0 596.9,52.8 589.9,55.6 583.2,58.4 576.9,61.2 571.7,63.9 567.8,66.7 565.5,69.5 565.1,72.3 566.5,75.1 569.7,77.9 574.2,80.7 579.8,83.5 586.1,86.2 592.5,89.0 598.7,91.8 604.4,94.6 609.3,97.4 613.3,100.2 616.3,103.0 618.2,105.8 619.2,108.5 619.4,111.3 618.7,114.1 617.5,116.9 615.7,119.7 613.7,122.5 611.4,125.3 609.0,128.1 606.7,130.8 604.5,133.6 602.5,136.4 600.7,139.2 599.3,142.0 598.2,144.8 597.5,147.6 597.1,150.4 597.2,153.1 597.6,155.9 598.4,158.7 599.6,161.5 601.2,164.3 603.2,167.1 605.5,169.9 608.1,172.7 610.8,175.4 613.7,178.2 616.5,181.0 619.3,183.8 621.9,186.6 624.2,189.4 626.3,192.2 628.0,195.0 629.4,197.7 630.6,200.5 631.4,203.3 632.0,206.1 632.5,208.9 632.8,211.7 632.9,214.5 633.0,217.3 633.0,220.0 633.0,222.8 633.1,225.6 633.1,228.4 633.1,231.2 633.1,234.0 633.2,236.8 633.3,239.6 633.4,242.3 633.5,245.1 633.6,247.9" fill="#2a8" opacity="0.5" stroke="#2a8" stroke-width="1"/>
<line x1="566.3" y1="74.81787456252526" x2="701.7" y2="74.81787456252526" stroke="#114" stroke-width="2"/>
<circle cx="634.0" cy="159.6155006714883" r="2.4" fill="#114"/>
<text x="634.0" y="61.433962264150935" text-anchor="middle" font-size="11">7.76</text>
<text x="634.0" y="376" text-anchor="middle" font-size="12">dznrm2</text>
<polygon points="798.5,322.5 798.6,321.9 798.8,321.3 798.9,320.7 799.2,320.1 799.4,319.6 799.8,319.0 800.3,318.4 801.0,317.8 802.0,317.2 803.5,316.6 805.5,316.0 808.2,315.4 811.8,314.9 816.1,314.3 821.2,313.7 827.0,313.1 833.3,312.5 839.7,311.9 845.9,311.3 851.5,310.8 856.1,310.2 859.5,309.6 861.7,309.0 862.7,308.4 862.6,307.8 862.0,307.2 861.1,306.6 860.5,306.1 860.3,305.5 860.9,304.9 862.1,304.3 863.7,303.7 865.4,303.1 866.6,302.5 866.9,302.0 865.8,301.4 863.3,300.8 859.2,300.2 853.7,299.6 847.2,299.0 840.1,298.4 832.9,297.9 826.0,297.3 819.7,296.7 814.3,296.1 809.9,295.5 806.5,294.9 804.0,294.3 802.4,293.7 801.5,293.2 801.2,292.6 801.5,292.0 802.2,291.4 803.5,290.8 805.2,290.2 807.2,289.6 809.4,289.1 811.8,288.5 814.2,287.9 816.3,287.3 818.0,286.7 819.1,286.1 819.5,285.5 819.2,285.0 818.2,284.4 816.5,283.8 814.5,283.2 812.1,282.6 809.7,282.0 807.4,281.4 805.3,280.8 790.7,280.8 788.6,281.4 786.3,282.0 783.9,282.6 781.5,283.2 779.5,283.8 777.8,284.4 776.8,285.0 776.5,285.5 776.9,286.1 778.0,286.7 779.7,287.3 781.8,287.9 784.2,288.5 786.6,289.1 788.8,289.6 790.8,290.2 792.5,290.8 793.8,291.4 794.5,292.0 794.8,292.6 794.5,293.2 793.6,293.7 792.0,294.3 789.5,294.9 786.1,295.5 781.7,296.1 776.3,296.7 770.0,297.3 763.1,297.9 755.9,298.4 748.8,299.0 742.3,299.6 736.8,300.2 732.7,300.8 730.2,301.4 729.1,302.0 729.4,302.5 730.6,303.1 732.3,303.7 733.9,304.3 735.1,304.9 735.7,305.5 735.5,306.1 734.9,306.6 734.0,307.2 733.4,307.8 733.3,308.4 734.3,309.0 736.5,309.6 739.9,310.2 744.5,310.8 750.1,311.3 756.3,311.9 762.7,312.5 769.0,313.1 774.8,313.7 779.9,314.3 784.2,314.9 787.8,315.4 790.5,316.0 792.5,316.6 794.0,317.2 795.0,317.8 795.7,318.4 796.2,319.0 796.6,319.6 796.8,320.1 797.1,320.7 797.2,321.3 797.4,321.9 797.5,322.5" fill="#2a8" opacity="0.5" stroke="#2a8" stroke-width="1"/>
<line x1="729.1" y1="302.14102817365904" x2="866.9" y2="302.14102817365904" stroke="#114" stroke-width="2"/>
<circle cx="798.0" cy="309.85562157364114" r="2.4" fill="#114"/>
<text x="798.0" y="278.93511144188386" text-anchor="middle" font-size="11">1.53</text>
<text x="798.0" y="376" text-anchor="middle" font-size="12">dzasum</text>
<text x="450.0" y="428" text-anchor="middle" font-size="11" fill="#666">violin = ratio distribution over sizes · line = median · dark dot = worst size · green = every size ≥ gate</text>
</svg>
