<svg xmlns="http://www.w3.org/2000/svg" width="962" height="248" font-family="sans-serif">
<rect width="962" height="248" fill="white"/>
<text x="481.0" y="26" text-anchor="middle" font-size="17" font-weight="bold">LAPACK — PureBLAS / OpenBLAS (PB/OpenBLAS ratio)</text>
<line x1="46" y1="42" x2="68" y2="42" stroke="#d62728" stroke-width="3"/>
<text x="73" y="46" font-size="12">Zen3 · AVX2</text>
<line x1="176" y1="42" x2="198" y2="42" stroke="#2ca02c" stroke-width="3"/>
<text x="203" y="46" font-size="12">Zen5 · AVX-512</text>
<line x1="327" y1="42" x2="349" y2="42" stroke="#1f77b4" stroke-width="3"/>
<text x="354" y="46" font-size="12">Zen4 · AVX-512</text>
<rect x="46" y="60" width="210" height="138" fill="none" stroke="#e2e2e2"/>
<line x1="46" y1="133.46794810699691" x2="256" y2="133.46794810699691" stroke="#d33" stroke-dasharray="4 3"/>
<text x="42" y="201.0" text-anchor="end" font-size="9" fill="#999">0.5×</text>
<text x="42" y="136.46794810699691" text-anchor="end" font-size="9" fill="#999">1.0×</text>
<text x="42" y="63.0625116838922" text-anchor="end" font-size="9" fill="#999">2.2×</text>
<polygon points="46.0,98.7 92.7,80.6 139.3,92.5 162.7,111.4 186.0,120.4 209.3,126.7 232.7,127.1 256.0,130.4 256.0,130.8 232.7,128.2 209.3,127.6 186.0,120.9 162.7,113.4 139.3,94.3 92.7,88.6 46.0,102.1" fill="#d62728" opacity="0.11"/>
<polyline points="46.0,102.0 92.7,82.3 139.3,93.6 162.7,112.0 186.0,120.7 209.3,126.8 232.7,127.6 256.0,130.5" fill="none" stroke="#d62728" stroke-width="1.6"/>
<circle cx="46.0" cy="102.0" r="2" fill="#d62728"/>
<circle cx="92.7" cy="82.3" r="2" fill="#d62728"/>
<circle cx="139.3" cy="93.6" r="2" fill="#d62728"/>
<circle cx="162.7" cy="112.0" r="2" fill="#d62728"/>
<circle cx="186.0" cy="120.7" r="2" fill="#d62728"/>
<circle cx="209.3" cy="126.8" r="2" fill="#d62728"/>
<circle cx="232.7" cy="127.6" r="2" fill="#d62728"/>
<circle cx="256.0" cy="130.5" r="2" fill="#d62728"/>
<polygon points="46.0,99.9 92.7,80.7 139.3,74.5 162.7,83.2 186.0,89.6 209.3,97.6 232.7,110.1 256.0,116.5 256.0,116.7 232.7,111.0 209.3,98.6 186.0,90.2 162.7,84.3 139.3,76.4 92.7,84.7 46.0,100.8" fill="#2ca02c" opacity="0.11"/>
<polyline points="46.0,100.1 92.7,82.1 139.3,75.3 162.7,83.8 186.0,90.0 209.3,98.1 232.7,110.3 256.0,116.6" fill="none" stroke="#2ca02c" stroke-width="1.6"/>
<circle cx="46.0" cy="100.1" r="2" fill="#2ca02c"/>
<circle cx="92.7" cy="82.1" r="2" fill="#2ca02c"/>
<circle cx="139.3" cy="75.3" r="2" fill="#2ca02c"/>
<circle cx="162.7" cy="83.8" r="2" fill="#2ca02c"/>
<circle cx="186.0" cy="90.0" r="2" fill="#2ca02c"/>
<circle cx="209.3" cy="98.1" r="2" fill="#2ca02c"/>
<circle cx="232.7" cy="110.3" r="2" fill="#2ca02c"/>
<circle cx="256.0" cy="116.6" r="2" fill="#2ca02c"/>
<polygon points="46.0,94.4 92.7,67.2 139.3,72.5 162.7,85.6 186.0,93.0 209.3,105.9 232.7,119.5 256.0,123.6 256.0,125.3 232.7,120.1 209.3,107.5 186.0,93.6 162.7,87.3 139.3,74.6 92.7,74.7 46.0,95.0" fill="#1f77b4" opacity="0.11"/>
<polyline points="46.0,94.7 92.7,70.1 139.3,73.5 162.7,85.9 186.0,93.4 209.3,106.2 232.7,119.9 256.0,123.8" fill="none" stroke="#1f77b4" stroke-width="1.6"/>
<circle cx="46.0" cy="94.7" r="2" fill="#1f77b4"/>
<circle cx="92.7" cy="70.1" r="2" fill="#1f77b4"/>
<circle cx="139.3" cy="73.5" r="2" fill="#1f77b4"/>
<circle cx="162.7" cy="85.9" r="2" fill="#1f77b4"/>
<circle cx="186.0" cy="93.4" r="2" fill="#1f77b4"/>
<circle cx="209.3" cy="106.2" r="2" fill="#1f77b4"/>
<circle cx="232.7" cy="119.9" r="2" fill="#1f77b4"/>
<circle cx="256.0" cy="123.8" r="2" fill="#1f77b4"/>
<text x="151.0" y="55" text-anchor="middle" font-size="12" font-weight="bold">potrf</text>
<line x1="46.0" y1="60" x2="46.0" y2="198" stroke="#f4f4f4"/>
<text x="46.0" y="209" text-anchor="middle" font-size="8" fill="#999">8</text>
<line x1="92.7" y1="60" x2="92.7" y2="198" stroke="#f4f4f4"/>
<text x="92.7" y="209" text-anchor="middle" font-size="8" fill="#999">32</text>
<line x1="139.3" y1="60" x2="139.3" y2="198" stroke="#f4f4f4"/>
<text x="139.3" y="209" text-anchor="middle" font-size="8" fill="#999">128</text>
<line x1="162.7" y1="60" x2="162.7" y2="198" stroke="#f4f4f4"/>
<text x="162.7" y="209" text-anchor="middle" font-size="8" fill="#999">256</text>
<line x1="186.0" y1="60" x2="186.0" y2="198" stroke="#f4f4f4"/>
<text x="186.0" y="209" text-anchor="middle" font-size="8" fill="#999">512</text>
<line x1="209.3" y1="60" x2="209.3" y2="198" stroke="#f4f4f4"/>
<text x="209.3" y="209" text-anchor="middle" font-size="8" fill="#999">1k</text>
<line x1="232.7" y1="60" x2="232.7" y2="198" stroke="#f4f4f4"/>
<text x="232.7" y="209" text-anchor="middle" font-size="8" fill="#999">2k</text>
<line x1="256.0" y1="60" x2="256.0" y2="198" stroke="#f4f4f4"/>
<text x="256.0" y="209" text-anchor="middle" font-size="8" fill="#999">4k</text>
<rect x="276" y="60" width="210" height="138" fill="none" stroke="#e2e2e2"/>
<line x1="276" y1="144.9202122770736" x2="486" y2="144.9202122770736" stroke="#d33" stroke-dasharray="4 3"/>
<text x="272" y="201.0" text-anchor="end" font-size="9" fill="#999">0.5×</text>
<text x="272" y="147.9202122770736" text-anchor="end" font-size="9" fill="#999">1.0×</text>
<text x="272" y="63.02876328607278" text-anchor="end" font-size="9" fill="#999">3.03×</text>
<polygon points="276.0,65.9 322.7,105.1 369.3,125.1 392.7,135.7 416.0,125.6 439.3,128.6 462.7,128.1 486.0,128.2 486.0,129.1 462.7,129.0 439.3,130.2 416.0,128.4 392.7,137.9 369.3,125.7 322.7,109.2 276.0,68.3" fill="#d62728" opacity="0.11"/>
<polyline points="276.0,67.5 322.7,108.9 369.3,125.3 392.7,137.1 416.0,127.8 439.3,129.1 462.7,128.5 486.0,128.8" fill="none" stroke="#d62728" stroke-width="1.6"/>
<circle cx="276.0" cy="67.5" r="2" fill="#d62728"/>
<circle cx="322.7" cy="108.9" r="2" fill="#d62728"/>
<circle cx="369.3" cy="125.3" r="2" fill="#d62728"/>
<circle cx="392.7" cy="137.1" r="2" fill="#d62728"/>
<circle cx="416.0" cy="127.8" r="2" fill="#d62728"/>
<circle cx="439.3" cy="129.1" r="2" fill="#d62728"/>
<circle cx="462.7" cy="128.5" r="2" fill="#d62728"/>
<circle cx="486.0" cy="128.8" r="2" fill="#d62728"/>
<polygon points="276.0,80.9 322.7,114.6 369.3,120.9 392.7,123.6 416.0,120.0 439.3,131.1 462.7,144.7 486.0,148.1 486.0,148.4 462.7,145.9 439.3,132.5 416.0,120.4 392.7,124.3 369.3,121.7 322.7,116.3 276.0,84.3" fill="#2ca02c" opacity="0.11"/>
<polyline points="276.0,83.3 322.7,115.4 369.3,121.3 392.7,123.9 416.0,120.3 439.3,131.5 462.7,145.2 486.0,148.3" fill="none" stroke="#2ca02c" stroke-width="1.6"/>
<circle cx="276.0" cy="83.3" r="2" fill="#2ca02c"/>
<circle cx="322.7" cy="115.4" r="2" fill="#2ca02c"/>
<circle cx="369.3" cy="121.3" r="2" fill="#2ca02c"/>
<circle cx="392.7" cy="123.9" r="2" fill="#2ca02c"/>
<circle cx="416.0" cy="120.3" r="2" fill="#2ca02c"/>
<circle cx="439.3" cy="131.5" r="2" fill="#2ca02c"/>
<circle cx="462.7" cy="145.2" r="2" fill="#2ca02c"/>
<circle cx="486.0" cy="148.3" r="2" fill="#2ca02c"/>
<polygon points="276.0,69.7 322.7,117.3 369.3,116.9 392.7,121.6 416.0,106.7 439.3,121.9 462.7,131.2 486.0,129.3 486.0,130.3 462.7,131.9 439.3,122.7 416.0,108.2 392.7,123.8 369.3,117.1 322.7,118.7 276.0,78.8" fill="#1f77b4" opacity="0.11"/>
<polyline points="276.0,78.0 322.7,118.4 369.3,117.0 392.7,122.6 416.0,107.2 439.3,122.4 462.7,131.6 486.0,129.8" fill="none" stroke="#1f77b4" stroke-width="1.6"/>
<circle cx="276.0" cy="78.0" r="2" fill="#1f77b4"/>
<circle cx="322.7" cy="118.4" r="2" fill="#1f77b4"/>
<circle cx="369.3" cy="117.0" r="2" fill="#1f77b4"/>
<circle cx="392.7" cy="122.6" r="2" fill="#1f77b4"/>
<circle cx="416.0" cy="107.2" r="2" fill="#1f77b4"/>
<circle cx="439.3" cy="122.4" r="2" fill="#1f77b4"/>
<circle cx="462.7" cy="131.6" r="2" fill="#1f77b4"/>
<circle cx="486.0" cy="129.8" r="2" fill="#1f77b4"/>
<text x="381.0" y="55" text-anchor="middle" font-size="12" font-weight="bold">geqrf</text>
<line x1="276.0" y1="60" x2="276.0" y2="198" stroke="#f4f4f4"/>
<text x="276.0" y="209" text-anchor="middle" font-size="8" fill="#999">8</text>
<line x1="322.7" y1="60" x2="322.7" y2="198" stroke="#f4f4f4"/>
<text x="322.7" y="209" text-anchor="middle" font-size="8" fill="#999">32</text>
<line x1="369.3" y1="60" x2="369.3" y2="198" stroke="#f4f4f4"/>
<text x="369.3" y="209" text-anchor="middle" font-size="8" fill="#999">128</text>
<line x1="392.7" y1="60" x2="392.7" y2="198" stroke="#f4f4f4"/>
<text x="392.7" y="209" text-anchor="middle" font-size="8" fill="#999">256</text>
<line x1="416.0" y1="60" x2="416.0" y2="198" stroke="#f4f4f4"/>
<text x="416.0" y="209" text-anchor="middle" font-size="8" fill="#999">512</text>
<line x1="439.3" y1="60" x2="439.3" y2="198" stroke="#f4f4f4"/>
<text x="439.3" y="209" text-anchor="middle" font-size="8" fill="#999">1k</text>
<line x1="462.7" y1="60" x2="462.7" y2="198" stroke="#f4f4f4"/>
<text x="462.7" y="209" text-anchor="middle" font-size="8" fill="#999">2k</text>
<line x1="486.0" y1="60" x2="486.0" y2="198" stroke="#f4f4f4"/>
<text x="486.0" y="209" text-anchor="middle" font-size="8" fill="#999">4k</text>
<rect x="506" y="60" width="210" height="138" fill="none" stroke="#e2e2e2"/>
<line x1="506" y1="124.4675499724308" x2="716" y2="124.4675499724308" stroke="#d33" stroke-dasharray="4 3"/>
<text x="502" y="201.0" text-anchor="end" font-size="9" fill="#999">0.5×</text>
<text x="502" y="127.4675499724308" text-anchor="end" font-size="9" fill="#999">1.0×</text>
<polygon points="506.0,68.2 558.5,94.4 611.0,112.6 637.2,89.4 663.5,90.0 689.8,100.3 716.0,104.0 716.0,111.4 689.8,103.5 663.5,93.2 637.2,98.7 611.0,113.3 558.5,98.1 506.0,69.1" fill="#d62728" opacity="0.11"/>
<polyline points="506.0,68.6 558.5,97.3 611.0,113.1 637.2,98.4 663.5,91.7 689.8,101.1 716.0,106.8" fill="none" stroke="#d62728" stroke-width="1.6"/>
<circle cx="506.0" cy="68.6" r="2" fill="#d62728"/>
<circle cx="558.5" cy="97.3" r="2" fill="#d62728"/>
<circle cx="611.0" cy="113.1" r="2" fill="#d62728"/>
<circle cx="637.2" cy="98.4" r="2" fill="#d62728"/>
<circle cx="663.5" cy="91.7" r="2" fill="#d62728"/>
<circle cx="689.8" cy="101.1" r="2" fill="#d62728"/>
<circle cx="716.0" cy="106.8" r="2" fill="#d62728"/>
<polygon points="506.0,76.2 558.5,96.5 611.0,124.2 637.2,98.4 663.5,100.7 689.8,107.7 716.0,115.8 716.0,121.3 689.8,109.7 663.5,102.0 637.2,99.0 611.0,124.7 558.5,100.8 506.0,77.9" fill="#2ca02c" opacity="0.11"/>
<polyline points="506.0,77.2 558.5,100.3 611.0,124.5 637.2,98.7 663.5,101.7 689.8,109.2 716.0,118.1" fill="none" stroke="#2ca02c" stroke-width="1.6"/>
<circle cx="506.0" cy="77.2" r="2" fill="#2ca02c"/>
<circle cx="558.5" cy="100.3" r="2" fill="#2ca02c"/>
<circle cx="611.0" cy="124.5" r="2" fill="#2ca02c"/>
<circle cx="637.2" cy="98.7" r="2" fill="#2ca02c"/>
<circle cx="663.5" cy="101.7" r="2" fill="#2ca02c"/>
<circle cx="689.8" cy="109.2" r="2" fill="#2ca02c"/>
<circle cx="716.0" cy="118.1" r="2" fill="#2ca02c"/>
<polygon points="506.0,72.6 558.5,84.1 611.0,108.5 637.2,94.3 663.5,89.0 689.8,94.1 716.0,96.2 716.0,115.9 689.8,97.6 663.5,92.7 637.2,95.6 611.0,121.3 558.5,96.5 506.0,73.5" fill="#1f77b4" opacity="0.11"/>
<polyline points="506.0,72.8 558.5,96.2 611.0,121.1 637.2,95.0 663.5,92.1 689.8,95.9 716.0,106.3" fill="none" stroke="#1f77b4" stroke-width="1.6"/>
<circle cx="506.0" cy="72.8" r="2" fill="#1f77b4"/>
<circle cx="558.5" cy="96.2" r="2" fill="#1f77b4"/>
<circle cx="611.0" cy="121.1" r="2" fill="#1f77b4"/>
<circle cx="637.2" cy="95.0" r="2" fill="#1f77b4"/>
<circle cx="663.5" cy="92.1" r="2" fill="#1f77b4"/>
<circle cx="689.8" cy="95.9" r="2" fill="#1f77b4"/>
<circle cx="716.0" cy="106.3" r="2" fill="#1f77b4"/>
<text x="611.0" y="55" text-anchor="middle" font-size="12" font-weight="bold">gesvd</text>
<line x1="506.0" y1="60" x2="506.0" y2="198" stroke="#f4f4f4"/>
<text x="506.0" y="209" text-anchor="middle" font-size="8" fill="#999">8</text>
<line x1="558.5" y1="60" x2="558.5" y2="198" stroke="#f4f4f4"/>
<text x="558.5" y="209" text-anchor="middle" font-size="8" fill="#999">32</text>
<line x1="611.0" y1="60" x2="611.0" y2="198" stroke="#f4f4f4"/>
<text x="611.0" y="209" text-anchor="middle" font-size="8" fill="#999">128</text>
<line x1="637.2" y1="60" x2="637.2" y2="198" stroke="#f4f4f4"/>
<text x="637.2" y="209" text-anchor="middle" font-size="8" fill="#999">256</text>
<line x1="663.5" y1="60" x2="663.5" y2="198" stroke="#f4f4f4"/>
<text x="663.5" y="209" text-anchor="middle" font-size="8" fill="#999">512</text>
<line x1="689.8" y1="60" x2="689.8" y2="198" stroke="#f4f4f4"/>
<text x="689.8" y="209" text-anchor="middle" font-size="8" fill="#999">1k</text>
<line x1="716.0" y1="60" x2="716.0" y2="198" stroke="#f4f4f4"/>
<text x="716.0" y="209" text-anchor="middle" font-size="8" fill="#999">2k</text>
<rect x="736" y="60" width="210" height="138" fill="none" stroke="#e2e2e2"/>
<line x1="736" y1="155.65447791468182" x2="946" y2="155.65447791468182" stroke="#d33" stroke-dasharray="4 3"/>
<text x="732" y="201.0" text-anchor="end" font-size="9" fill="#999">0.5×</text>
<text x="732" y="158.65447791468182" text-anchor="end" font-size="9" fill="#999">1.0×</text>
<polygon points="736.0,110.4 782.7,102.8 829.3,136.3 852.7,149.5 876.0,150.6 899.3,150.2 922.7,150.8 946.0,152.1 946.0,152.6 922.7,152.6 899.3,150.4 876.0,150.9 852.7,149.9 829.3,136.7 782.7,105.4 736.0,123.6" fill="#d62728" opacity="0.11"/>
<polyline points="736.0,115.3 782.7,103.7 829.3,136.5 852.7,149.7 876.0,150.7 899.3,150.3 922.7,152.5 946.0,152.5" fill="none" stroke="#d62728" stroke-width="1.6"/>
<circle cx="736.0" cy="115.3" r="2" fill="#d62728"/>
<circle cx="782.7" cy="103.7" r="2" fill="#d62728"/>
<circle cx="829.3" cy="136.5" r="2" fill="#d62728"/>
<circle cx="852.7" cy="149.7" r="2" fill="#d62728"/>
<circle cx="876.0" cy="150.7" r="2" fill="#d62728"/>
<circle cx="899.3" cy="150.3" r="2" fill="#d62728"/>
<circle cx="922.7" cy="152.5" r="2" fill="#d62728"/>
<circle cx="946.0" cy="152.5" r="2" fill="#d62728"/>
<polygon points="736.0,121.8 782.7,117.8 829.3,64.7 852.7,135.5 876.0,127.9 899.3,141.5 922.7,145.4 946.0,147.9 946.0,148.1 922.7,146.2 899.3,143.9 876.0,149.3 852.7,152.3 829.3,148.9 782.7,136.1 736.0,129.2" fill="#2ca02c" opacity="0.11"/>
<polyline points="736.0,125.3 782.7,118.8 829.3,130.6 852.7,138.6 876.0,146.2 899.3,143.1 922.7,146.0 946.0,147.9" fill="none" stroke="#2ca02c" stroke-width="1.6"/>
<circle cx="736.0" cy="125.3" r="2" fill="#2ca02c"/>
<circle cx="782.7" cy="118.8" r="2" fill="#2ca02c"/>
<circle cx="829.3" cy="130.6" r="2" fill="#2ca02c"/>
<circle cx="852.7" cy="138.6" r="2" fill="#2ca02c"/>
<circle cx="876.0" cy="146.2" r="2" fill="#2ca02c"/>
<circle cx="899.3" cy="143.1" r="2" fill="#2ca02c"/>
<circle cx="922.7" cy="146.0" r="2" fill="#2ca02c"/>
<circle cx="946.0" cy="147.9" r="2" fill="#2ca02c"/>
<polygon points="736.0,119.8 782.7,116.3 829.3,129.4 852.7,138.9 876.0,140.5 899.3,144.8 922.7,150.0 946.0,153.9 946.0,154.8 922.7,150.4 899.3,145.6 876.0,141.7 852.7,140.2 829.3,130.4 782.7,118.8 736.0,124.3" fill="#1f77b4" opacity="0.11"/>
<polyline points="736.0,121.3 782.7,116.9 829.3,129.9 852.7,139.4 876.0,141.2 899.3,145.1 922.7,150.2 946.0,154.0" fill="none" stroke="#1f77b4" stroke-width="1.6"/>
<circle cx="736.0" cy="121.3" r="2" fill="#1f77b4"/>
<circle cx="782.7" cy="116.9" r="2" fill="#1f77b4"/>
<circle cx="829.3" cy="129.9" r="2" fill="#1f77b4"/>
<circle cx="852.7" cy="139.4" r="2" fill="#1f77b4"/>
<circle cx="876.0" cy="141.2" r="2" fill="#1f77b4"/>
<circle cx="899.3" cy="145.1" r="2" fill="#1f77b4"/>
<circle cx="922.7" cy="150.2" r="2" fill="#1f77b4"/>
<circle cx="946.0" cy="154.0" r="2" fill="#1f77b4"/>
<text x="841.0" y="55" text-anchor="middle" font-size="12" font-weight="bold">getrf</text>
<line x1="736.0" y1="60" x2="736.0" y2="198" stroke="#f4f4f4"/>
<text x="736.0" y="209" text-anchor="middle" font-size="8" fill="#999">8</text>
<line x1="782.7" y1="60" x2="782.7" y2="198" stroke="#f4f4f4"/>
<text x="782.7" y="209" text-anchor="middle" font-size="8" fill="#999">32</text>
<line x1="829.3" y1="60" x2="829.3" y2="198" stroke="#f4f4f4"/>
<text x="829.3" y="209" text-anchor="middle" font-size="8" fill="#999">128</text>
<line x1="852.7" y1="60" x2="852.7" y2="198" stroke="#f4f4f4"/>
<text x="852.7" y="209" text-anchor="middle" font-size="8" fill="#999">256</text>
<line x1="876.0" y1="60" x2="876.0" y2="198" stroke="#f4f4f4"/>
<text x="876.0" y="209" text-anchor="middle" font-size="8" fill="#999">512</text>
<line x1="899.3" y1="60" x2="899.3" y2="198" stroke="#f4f4f4"/>
<text x="899.3" y="209" text-anchor="middle" font-size="8" fill="#999">1k</text>
<line x1="922.7" y1="60" x2="922.7" y2="198" stroke="#f4f4f4"/>
<text x="922.7" y="209" text-anchor="middle" font-size="8" fill="#999">2k</text>
<line x1="946.0" y1="60" x2="946.0" y2="198" stroke="#f4f4f4"/>
<text x="946.0" y="209" text-anchor="middle" font-size="8" fill="#999">4k</text>
</svg>
