<svg xmlns="http://www.w3.org/2000/svg" width="900" height="440" font-family="sans-serif">
<rect width="900" height="440" fill="white"/>
<text x="450.0" y="28" text-anchor="middle" font-size="18" font-weight="bold">BLAS-2: PureBLAS / OpenBLAS (AVX-512, 1 thread, Float64)</text>
<line x1="60" y1="358.0" x2="880" y2="358.0" stroke="#eee"/>
<text x="52" y="362.0" text-anchor="end" font-size="11" fill="#666">0×</text>
<line x1="60" y1="299.2598932588499" x2="880" y2="299.2598932588499" stroke="#eee"/>
<text x="52" y="303.2598932588499" text-anchor="end" font-size="11" fill="#666">0.5×</text>
<line x1="60" y1="240.5197865176998" x2="880" y2="240.5197865176998" stroke="#eee"/>
<text x="52" y="244.5197865176998" text-anchor="end" font-size="11" fill="#666">1×</text>
<line x1="60" y1="181.77967977654976" x2="880" y2="181.77967977654976" stroke="#eee"/>
<text x="52" y="185.77967977654976" text-anchor="end" font-size="11" fill="#666">1.5×</text>
<line x1="60" y1="240.5197865176998" x2="880" y2="240.5197865176998" stroke="#888" stroke-width="1"/>
<line x1="60" y1="245.21899505699184" x2="880" y2="245.21899505699184" stroke="#d33" stroke-width="1.5" stroke-dasharray="6 4"/>
<text x="880" y="240.21899505699184" text-anchor="end" font-size="11" fill="#d33">0.96× gate</text>
<polygon points="111.7,267.0 114.1,263.9 117.0,260.9 120.3,257.8 124.0,254.7 127.9,251.7 131.9,248.6 135.5,245.6 138.8,242.5 141.3,239.5 143.0,236.4 143.8,233.4 143.8,230.3 142.9,227.2 141.4,224.2 139.5,221.1 137.2,218.1 134.7,215.0 132.3,212.0 129.8,208.9 127.4,205.9 125.1,202.8 123.0,199.7 120.9,196.7 118.9,193.6 117.0,190.6 115.3,187.5 113.7,184.5 112.4,181.4 111.3,178.4 110.3,175.3 109.6,172.2 109.0,169.2 108.6,166.1 108.3,163.1 108.1,160.0 108.0,157.0 107.9,153.9 108.0,150.8 108.1,147.8 108.3,144.7 108.6,141.7 108.9,138.6 109.3,135.6 109.7,132.5 110.2,129.5 110.5,126.4 110.9,123.3 111.1,120.3 111.1,117.2 111.1,114.2 110.9,111.1 110.6,108.1 110.2,105.0 109.8,102.0 109.2,98.9 108.7,95.8 108.2,92.8 107.8,89.7 107.4,86.7 107.0,83.6 106.8,80.6 106.6,77.5 106.4,74.4 106.3,71.4 106.2,68.3 106.1,65.3 106.1,62.2 106.0,59.2 105.9,56.1 105.9,53.1 105.8,50.0 105.3,50.0 105.2,53.1 105.2,56.1 105.1,59.2 105.1,62.2 105.0,65.3 104.9,68.3 104.8,71.4 104.7,74.4 104.5,77.5 104.3,80.6 104.1,83.6 103.7,86.7 103.3,89.7 102.9,92.8 102.4,95.8 101.9,98.9 101.4,102.0 100.9,105.0 100.5,108.1 100.2,111.1 100.0,114.2 100.0,117.2 100.0,120.3 100.3,123.3 100.6,126.4 100.9,129.5 101.4,132.5 101.8,135.6 102.2,138.6 102.5,141.7 102.8,144.7 103.0,147.8 103.1,150.8 103.2,153.9 103.1,157.0 103.0,160.0 102.8,163.1 102.5,166.1 102.1,169.2 101.5,172.2 100.8,175.3 99.9,178.4 98.7,181.4 97.4,184.5 95.8,187.5 94.1,190.6 92.2,193.6 90.3,196.7 88.2,199.7 86.0,202.8 83.7,205.9 81.3,208.9 78.9,212.0 76.4,215.0 73.9,218.1 71.7,221.1 69.7,224.2 68.2,227.2 67.3,230.3 67.3,233.4 68.1,236.4 69.8,239.5 72.4,242.5 75.6,245.6 79.2,248.6 83.2,251.7 87.1,254.7 90.8,257.8 94.1,260.9 97.0,263.9 99.4,267.0" fill="#2a8" opacity="0.5" stroke="#2a8" stroke-width="1"/>
<line x1="67.4" y1="229.89207432799995" x2="143.7" y2="229.89207432799995" stroke="#114" stroke-width="2"/>
<circle cx="105.55555555555556" cy="243.11836537250903" r="2.4" fill="#114"/>
<text x="105.55555555555556" y="61.43396226415098" text-anchor="middle" font-size="11">1.09</text>
<text x="105.55555555555556" y="376" text-anchor="middle" font-size="12">gemvN</text>
<polygon points="196.9,262.2 196.9,261.2 197.0,260.2 197.1,259.1 197.2,258.1 197.3,257.1 197.4,256.1 197.5,255.1 197.7,254.0 197.9,253.0 198.3,252.0 198.9,251.0 199.7,249.9 200.8,248.9 202.3,247.9 204.2,246.9 206.5,245.8 209.2,244.8 212.3,243.8 215.6,242.8 219.1,241.7 222.6,240.7 226.0,239.7 229.1,238.7 231.7,237.6 233.6,236.6 234.7,235.6 234.9,234.6 234.3,233.5 233.0,232.5 231.1,231.5 228.8,230.5 226.4,229.4 223.9,228.4 221.6,227.4 219.3,226.4 217.3,225.3 215.4,224.3 213.6,223.3 211.9,222.3 210.5,221.3 209.3,220.2 208.5,219.2 208.0,218.2 208.0,217.2 208.4,216.1 209.1,215.1 210.1,214.1 211.3,213.1 212.4,212.0 213.4,211.0 214.1,210.0 214.4,209.0 214.1,207.9 213.4,206.9 212.2,205.9 210.6,204.9 208.8,203.8 206.9,202.8 205.0,201.8 203.2,200.8 201.7,199.7 200.5,198.7 199.5,197.7 198.8,196.7 198.2,195.6 197.8,194.6 197.5,193.6 197.3,192.6 197.1,191.5 197.0,190.5 196.9,189.5 196.4,189.5 196.4,190.5 196.2,191.5 196.1,192.6 195.8,193.6 195.5,194.6 195.1,195.6 194.6,196.7 193.8,197.7 192.8,198.7 191.6,199.7 190.1,200.8 188.4,201.8 186.5,202.8 184.6,203.8 182.7,204.9 181.2,205.9 179.9,206.9 179.2,207.9 179.0,209.0 179.2,210.0 179.9,211.0 180.9,212.0 182.1,213.1 183.2,214.1 184.2,215.1 185.0,216.1 185.3,217.2 185.3,218.2 184.8,219.2 184.0,220.2 182.8,221.3 181.4,222.3 179.8,223.3 178.0,224.3 176.1,225.3 174.0,226.4 171.8,227.4 169.4,228.4 166.9,229.4 164.5,230.5 162.2,231.5 160.3,232.5 159.0,233.5 158.4,234.6 158.7,235.6 159.8,236.6 161.7,237.6 164.3,238.7 167.3,239.7 170.7,240.7 174.3,241.7 177.8,242.8 181.1,243.8 184.1,244.8 186.8,245.8 189.1,246.9 191.0,247.9 192.5,248.9 193.7,249.9 194.5,251.0 195.0,252.0 195.4,253.0 195.7,254.0 195.8,255.1 196.0,256.1 196.1,257.1 196.2,258.1 196.2,259.1 196.3,260.2 196.4,261.2 196.5,262.2" fill="#2a8" opacity="0.5" stroke="#2a8" stroke-width="1"/>
<line x1="160.8" y1="232.23899887912185" x2="232.5" y2="232.23899887912185" stroke="#114" stroke-width="2"/>
<circle cx="196.66666666666669" cy="240.91823419667494" r="2.4" fill="#114"/>
<text x="196.66666666666669" y="190.7246937372431" text-anchor="middle" font-size="11">1.07</text>
<text x="196.66666666666669" y="376" text-anchor="middle" font-size="12">gemvT</text>
<polygon points="287.9,250.9 288.0,250.3 288.1,249.6 288.2,249.0 288.4,248.4 288.5,247.7 288.7,247.1 288.8,246.5 289.0,245.9 289.3,245.2 289.6,244.6 290.2,244.0 291.0,243.3 292.2,242.7 293.9,242.1 296.1,241.5 298.7,240.8 301.7,240.2 304.9,239.6 308.0,238.9 310.8,238.3 313.1,237.7 315.0,237.1 316.6,236.4 317.9,235.8 319.2,235.2 320.5,234.6 321.9,233.9 323.4,233.3 324.6,232.7 325.6,232.0 326.0,231.4 326.0,230.8 325.5,230.2 324.6,229.5 323.5,228.9 322.3,228.3 321.1,227.6 319.9,227.0 318.6,226.4 317.1,225.8 315.4,225.1 313.3,224.5 310.9,223.9 308.4,223.3 305.7,222.6 303.3,222.0 301.1,221.4 299.4,220.7 298.0,220.1 296.9,219.5 296.0,218.9 295.2,218.2 294.4,217.6 293.6,217.0 292.7,216.3 291.8,215.7 291.1,215.1 290.4,214.5 289.9,213.8 289.6,213.2 289.3,212.6 289.1,211.9 288.9,211.3 288.8,210.7 288.7,210.1 288.5,209.4 288.4,208.8 288.2,208.2 288.1,207.6 288.0,206.9 287.9,206.3 287.6,206.3 287.6,206.9 287.5,207.6 287.3,208.2 287.2,208.8 287.0,209.4 286.9,210.1 286.7,210.7 286.6,211.3 286.5,211.9 286.3,212.6 286.0,213.2 285.6,213.8 285.1,214.5 284.5,215.1 283.7,215.7 282.9,216.3 282.0,217.0 281.1,217.6 280.3,218.2 279.5,218.9 278.6,219.5 277.6,220.1 276.2,220.7 274.4,221.4 272.3,222.0 269.8,222.6 267.2,223.3 264.6,223.9 262.3,224.5 260.2,225.1 258.4,225.8 257.0,226.4 255.7,227.0 254.5,227.6 253.3,228.3 252.1,228.9 251.0,229.5 250.1,230.2 249.6,230.8 249.5,231.4 250.0,232.0 250.9,232.7 252.2,233.3 253.6,233.9 255.0,234.6 256.4,235.2 257.7,235.8 259.0,236.4 260.5,237.1 262.4,237.7 264.8,238.3 267.6,238.9 270.7,239.6 273.8,240.2 276.8,240.8 279.5,241.5 281.7,242.1 283.3,242.7 284.6,243.3 285.4,244.0 285.9,244.6 286.3,245.2 286.5,245.9 286.7,246.5 286.9,247.1 287.0,247.7 287.2,248.4 287.3,249.0 287.5,249.6 287.6,250.3 287.6,250.9" fill="#2a8" opacity="0.5" stroke="#2a8" stroke-width="1"/>
<line x1="249.5" y1="230.91248959151983" x2="326.0" y2="230.91248959151983" stroke="#114" stroke-width="2"/>
<circle cx="287.77777777777777" cy="237.99162528973125" r="2.4" fill="#114"/>
<text x="287.77777777777777" y="204.80265039870494" text-anchor="middle" font-size="11">1.08</text>
<text x="287.77777777777777" y="376" text-anchor="middle" font-size="12">ger</text>
<polygon points="379.0,248.3 379.1,247.0 379.2,245.6 379.3,244.3 379.5,243.0 379.7,241.7 379.9,240.4 380.2,239.1 380.6,237.8 381.1,236.4 381.9,235.1 382.9,233.8 384.4,232.5 386.3,231.2 388.7,229.9 391.6,228.6 394.9,227.2 398.5,225.9 402.3,224.6 406.1,223.3 409.7,222.0 412.6,220.7 414.8,219.4 416.1,218.0 416.5,216.7 416.5,215.4 416.2,214.1 416.1,212.8 416.2,211.5 416.6,210.2 417.0,208.9 417.2,207.5 416.6,206.2 415.3,204.9 413.0,203.6 410.0,202.3 406.6,201.0 403.0,199.7 399.6,198.3 396.7,197.0 394.3,195.7 392.5,194.4 391.2,193.1 390.2,191.8 389.5,190.5 388.9,189.1 388.1,187.8 387.2,186.5 386.1,185.2 384.9,183.9 383.7,182.6 382.5,181.3 381.5,180.0 380.6,178.6 380.0,177.3 379.6,176.0 379.3,174.7 379.2,173.4 379.2,172.1 379.2,170.8 379.3,169.4 379.4,168.1 379.5,166.8 379.6,165.5 379.6,164.2 379.6,162.9 379.5,161.6 379.4,160.2 379.3,158.9 379.2,157.6 379.1,156.3 379.0,155.0 378.8,155.0 378.7,156.3 378.6,157.6 378.5,158.9 378.4,160.2 378.2,161.6 378.2,162.9 378.1,164.2 378.2,165.5 378.2,166.8 378.4,168.1 378.5,169.4 378.6,170.8 378.6,172.1 378.6,173.4 378.5,174.7 378.2,176.0 377.8,177.3 377.2,178.6 376.3,180.0 375.3,181.3 374.1,182.6 372.8,183.9 371.6,185.2 370.6,186.5 369.7,187.8 368.9,189.1 368.3,190.5 367.5,191.8 366.6,193.1 365.3,194.4 363.5,195.7 361.1,197.0 358.2,198.3 354.8,199.7 351.2,201.0 347.8,202.3 344.8,203.6 342.5,204.9 341.1,206.2 340.6,207.5 340.7,208.9 341.1,210.2 341.5,211.5 341.7,212.8 341.5,214.1 341.3,215.4 341.2,216.7 341.7,218.0 343.0,219.4 345.2,220.7 348.1,222.0 351.6,223.3 355.5,224.6 359.3,225.9 362.9,227.2 366.2,228.6 369.1,229.9 371.5,231.2 373.4,232.5 374.8,233.8 375.9,235.1 376.7,236.4 377.2,237.8 377.6,239.1 377.9,240.4 378.1,241.7 378.3,243.0 378.5,244.3 378.6,245.6 378.7,247.0 378.8,248.3" fill="#2a8" opacity="0.5" stroke="#2a8" stroke-width="1"/>
<line x1="341.2" y1="210.25568208852945" x2="416.6" y2="210.25568208852945" stroke="#114" stroke-width="2"/>
<circle cx="378.8888888888889" cy="224.3730266254045" r="2.4" fill="#114"/>
<text x="378.8888888888889" y="158.20510543968481" text-anchor="middle" font-size="11">1.26</text>
<text x="378.8888888888889" y="376" text-anchor="middle" font-size="12">symv</text>
<polygon points="470.4,253.7 470.6,252.4 470.9,251.2 471.4,249.9 472.1,248.7 472.9,247.5 474.1,246.2 475.6,245.0 477.5,243.7 479.6,242.5 482.0,241.2 484.4,240.0 486.9,238.7 489.0,237.5 490.8,236.2 492.1,235.0 492.9,233.7 493.2,232.5 493.2,231.2 493.1,230.0 493.0,228.7 493.2,227.5 493.8,226.2 494.8,225.0 496.3,223.7 498.2,222.5 500.4,221.2 502.6,220.0 504.7,218.7 506.5,217.5 507.7,216.2 508.3,215.0 508.0,213.8 507.0,212.5 505.2,211.3 502.9,210.0 500.0,208.8 496.9,207.5 493.7,206.3 490.6,205.0 487.8,203.8 485.4,202.5 483.4,201.3 481.8,200.0 480.8,198.8 480.2,197.5 479.9,196.3 479.9,195.0 480.1,193.8 480.3,192.5 480.4,191.3 480.3,190.0 479.9,188.8 479.3,187.5 478.4,186.3 477.4,185.0 476.3,183.8 475.1,182.5 474.1,181.3 473.2,180.1 472.5,178.8 471.9,177.6 471.5,176.3 471.2,175.1 471.0,173.8 470.8,172.6 470.7,171.3 470.6,170.1 470.5,168.8 470.4,167.6 470.3,166.3 470.2,165.1 469.8,165.1 469.7,166.3 469.6,167.6 469.5,168.8 469.4,170.1 469.3,171.3 469.2,172.6 469.0,173.8 468.8,175.1 468.5,176.3 468.1,177.6 467.5,178.8 466.8,180.1 465.9,181.3 464.9,182.5 463.7,183.8 462.6,185.0 461.6,186.3 460.7,187.5 460.1,188.8 459.7,190.0 459.6,191.3 459.7,192.5 459.9,193.8 460.1,195.0 460.1,196.3 459.8,197.5 459.2,198.8 458.2,200.0 456.6,201.3 454.6,202.5 452.2,203.8 449.4,205.0 446.3,206.3 443.1,207.5 440.0,208.8 437.1,210.0 434.8,211.3 433.0,212.5 432.0,213.8 431.7,215.0 432.3,216.2 433.5,217.5 435.3,218.7 437.4,220.0 439.6,221.2 441.8,222.5 443.7,223.7 445.2,225.0 446.2,226.2 446.8,227.5 447.0,228.7 446.9,230.0 446.8,231.2 446.8,232.5 447.1,233.7 447.9,235.0 449.2,236.2 451.0,237.5 453.1,238.7 455.6,240.0 458.0,241.2 460.4,242.5 462.5,243.7 464.4,245.0 465.9,246.2 467.1,247.5 467.9,248.7 468.6,249.9 469.1,251.2 469.4,252.4 469.6,253.7" fill="#2a8" opacity="0.5" stroke="#2a8" stroke-width="1"/>
<line x1="432.1" y1="215.92794868291318" x2="507.9" y2="215.92794868291318" stroke="#114" stroke-width="2"/>
<circle cx="470.0" cy="234.31684022015745" r="2.4" fill="#114"/>
<text x="470.0" y="167.84029751076156" text-anchor="middle" font-size="11">1.21</text>
<text x="470.0" y="376" text-anchor="middle" font-size="12">trmv</text>
<polygon points="561.3,259.8 561.4,259.0 561.5,258.1 561.6,257.2 561.7,256.3 561.8,255.4 561.9,254.6 561.9,253.7 561.9,252.8 561.8,251.9 561.7,251.0 561.6,250.2 561.5,249.3 561.4,248.4 561.3,247.5 561.3,246.6 561.4,245.8 561.7,244.9 562.1,244.0 562.7,243.1 563.8,242.2 565.4,241.4 567.5,240.5 570.2,239.6 573.5,238.7 577.1,237.8 580.8,237.0 584.4,236.1 587.5,235.2 589.9,234.3 591.4,233.4 592.2,232.6 592.4,231.7 592.2,230.8 591.8,229.9 591.5,229.0 591.4,228.2 591.5,227.3 591.8,226.4 592.3,225.5 592.8,224.7 593.4,223.8 594.1,222.9 594.9,222.0 595.8,221.1 596.8,220.3 597.8,219.4 598.7,218.5 599.3,217.6 599.4,216.7 598.8,215.9 597.4,215.0 595.2,214.1 592.4,213.2 589.1,212.3 585.6,211.5 582.0,210.6 578.7,209.7 575.6,208.8 573.0,207.9 570.8,207.1 569.0,206.2 567.6,205.3 566.4,204.4 565.3,203.5 564.4,202.7 563.6,201.8 562.9,200.9 562.4,200.0 562.0,199.1 561.7,198.3 561.4,197.4 560.8,197.4 560.6,198.3 560.3,199.1 559.8,200.0 559.3,200.9 558.6,201.8 557.8,202.7 556.9,203.5 555.9,204.4 554.6,205.3 553.2,206.2 551.4,207.1 549.2,207.9 546.6,208.8 543.6,209.7 540.2,210.6 536.6,211.5 533.1,212.3 529.8,213.2 527.0,214.1 524.8,215.0 523.5,215.9 522.8,216.7 522.9,217.6 523.5,218.5 524.4,219.4 525.4,220.3 526.4,221.1 527.3,222.0 528.1,222.9 528.8,223.8 529.4,224.7 530.0,225.5 530.4,226.4 530.7,227.3 530.9,228.2 530.7,229.0 530.4,229.9 530.0,230.8 529.8,231.7 530.0,232.6 530.8,233.4 532.4,234.3 534.8,235.2 537.8,236.1 541.4,237.0 545.1,237.8 548.8,238.7 552.0,239.6 554.7,240.5 556.8,241.4 558.4,242.2 559.5,243.1 560.2,244.0 560.6,244.9 560.8,245.8 560.9,246.6 560.9,247.5 560.8,248.4 560.7,249.3 560.6,250.2 560.5,251.0 560.4,251.9 560.3,252.8 560.3,253.7 560.3,254.6 560.4,255.4 560.5,256.3 560.6,257.2 560.8,258.1 560.9,259.0 560.9,259.8" fill="#2a8" opacity="0.5" stroke="#2a8" stroke-width="1"/>
<line x1="527.8" y1="222.56721212159684" x2="594.4" y2="222.56721212159684" stroke="#114" stroke-width="2"/>
<circle cx="561.1111111111111" cy="233.96593431754178" r="2.4" fill="#114"/>
<text x="561.1111111111111" y="197.61925441375425" text-anchor="middle" font-size="11">1.15</text>
<text x="561.1111111111111" y="376" text-anchor="middle" font-size="12">trsv</text>
<polygon points="653.1,257.0 653.5,254.8 654.1,252.7 654.9,250.5 655.8,248.4 656.9,246.2 658.1,244.0 659.3,241.9 660.5,239.7 661.5,237.6 662.2,235.4 662.6,233.2 662.7,231.1 662.4,228.9 661.9,226.8 661.3,224.6 660.8,222.5 660.5,220.3 660.5,218.1 660.8,216.0 661.4,213.8 662.2,211.7 663.2,209.5 664.4,207.3 665.7,205.2 667.1,203.0 668.7,200.9 670.5,198.7 672.6,196.5 675.1,194.4 677.7,192.2 680.6,190.1 683.4,187.9 686.1,185.8 688.2,183.6 689.8,181.4 690.5,179.3 690.3,177.1 689.1,175.0 687.0,172.8 684.3,170.6 681.2,168.5 677.8,166.3 674.5,164.2 671.4,162.0 668.6,159.9 666.1,157.7 663.9,155.5 662.1,153.4 660.6,151.2 659.3,149.1 658.2,146.9 657.2,144.7 656.4,142.6 655.8,140.4 655.2,138.3 654.7,136.1 654.2,134.0 653.9,131.8 653.6,129.6 653.3,127.5 653.2,125.3 653.1,123.2 653.0,121.0 652.9,118.8 652.8,116.7 652.8,114.5 652.7,112.4 652.6,110.2 652.5,108.1 652.4,105.9 652.4,103.7 652.1,103.7 652.0,105.9 651.9,108.1 651.8,110.2 651.8,112.4 651.7,114.5 651.6,116.7 651.5,118.8 651.5,121.0 651.4,123.2 651.3,125.3 651.1,127.5 650.9,129.6 650.6,131.8 650.2,134.0 649.8,136.1 649.3,138.3 648.7,140.4 648.0,142.6 647.2,144.7 646.3,146.9 645.2,149.1 643.9,151.2 642.3,153.4 640.5,155.5 638.4,157.7 635.9,159.9 633.1,162.0 629.9,164.2 626.6,166.3 623.3,168.5 620.1,170.6 617.4,172.8 615.4,175.0 614.2,177.1 614.0,179.3 614.7,181.4 616.2,183.6 618.4,185.8 621.0,187.9 623.9,190.1 626.7,192.2 629.4,194.4 631.8,196.5 633.9,198.7 635.8,200.9 637.4,203.0 638.8,205.2 640.0,207.3 641.2,209.5 642.2,211.7 643.1,213.8 643.7,216.0 644.0,218.1 643.9,220.3 643.6,222.5 643.1,224.6 642.5,226.8 642.0,228.9 641.8,231.1 641.8,233.2 642.2,235.4 643.0,237.6 644.0,239.7 645.1,241.9 646.4,244.0 647.5,246.2 648.6,248.4 649.5,250.5 650.3,252.7 650.9,254.8 651.4,257.0" fill="#2a8" opacity="0.5" stroke="#2a8" stroke-width="1"/>
<line x1="615.0" y1="182.09678736289735" x2="689.4" y2="182.09678736289735" stroke="#114" stroke-width="2"/>
<circle cx="652.2222222222223" cy="231.64378827882777" r="2.4" fill="#114"/>
<text x="652.2222222222223" y="112.75765170005491" text-anchor="middle" font-size="11">1.50</text>
<text x="652.2222222222223" y="376" text-anchor="middle" font-size="12">spmv</text>
<polygon points="743.4,245.7 743.4,243.5 743.6,241.3 743.8,239.1 744.2,236.9 744.8,234.7 745.6,232.5 746.6,230.3 747.7,228.1 748.8,225.9 749.9,223.7 751.0,221.4 752.4,219.2 754.3,217.0 756.8,214.8 760.1,212.6 764.0,210.4 768.3,208.2 772.7,206.0 776.7,203.8 779.8,201.6 781.5,199.4 781.6,197.2 780.1,195.0 777.4,192.8 774.0,190.6 770.3,188.4 766.6,186.2 762.9,184.0 759.1,181.7 755.6,179.5 752.5,177.3 750.1,175.1 748.5,172.9 747.5,170.7 747.1,168.5 746.9,166.3 746.7,164.1 746.4,161.9 746.0,159.7 745.6,157.5 745.1,155.3 744.7,153.1 744.4,150.9 744.2,148.7 744.0,146.5 743.8,144.3 743.7,142.0 743.6,139.8 743.5,137.6 743.4,135.4 743.4,133.2 743.3,131.0 743.3,128.8 743.3,126.6 743.3,124.4 743.3,122.2 743.4,120.0 743.4,117.8 743.4,115.6 743.5,113.4 743.6,111.2 743.8,109.0 743.9,106.8 743.9,104.5 743.9,102.3 743.8,100.1 743.7,97.9 743.5,95.7 743.5,93.5 743.4,91.3 743.4,89.1 743.3,89.1 743.3,91.3 743.2,93.5 743.1,95.7 743.0,97.9 742.9,100.1 742.8,102.3 742.8,104.5 742.8,106.8 742.9,109.0 743.0,111.2 743.1,113.4 743.2,115.6 743.3,117.8 743.3,120.0 743.3,122.2 743.3,124.4 743.3,126.6 743.3,128.8 743.3,131.0 743.3,133.2 743.3,135.4 743.2,137.6 743.1,139.8 743.0,142.0 742.8,144.3 742.6,146.5 742.5,148.7 742.2,150.9 741.9,153.1 741.5,155.3 741.1,157.5 740.6,159.7 740.2,161.9 740.0,164.1 739.8,166.3 739.6,168.5 739.1,170.7 738.2,172.9 736.6,175.1 734.2,177.3 731.1,179.5 727.5,181.7 723.8,184.0 720.0,186.2 716.3,188.4 712.7,190.6 709.3,192.8 706.6,195.0 705.1,197.2 705.2,199.4 706.9,201.6 710.0,203.8 714.0,206.0 718.4,208.2 722.7,210.4 726.6,212.6 729.9,214.8 732.4,217.0 734.2,219.2 735.6,221.4 736.8,223.7 737.9,225.9 739.0,228.1 740.1,230.3 741.1,232.5 741.9,234.7 742.5,236.9 742.9,239.1 743.1,241.3 743.2,243.5 743.3,245.7" fill="#2a8" opacity="0.5" stroke="#2a8" stroke-width="1"/>
<line x1="704.9" y1="197.74025897523777" x2="781.7" y2="197.74025897523777" stroke="#114" stroke-width="2"/>
<circle cx="743.3333333333334" cy="210.90958091448192" r="2.4" fill="#114"/>
<text x="743.3333333333334" y="98.45461150384205" text-anchor="middle" font-size="11">1.36</text>
<text x="743.3333333333334" y="376" text-anchor="middle" font-size="12">gbmvN</text>
<polygon points="835.7,235.1 836.2,234.5 836.8,233.9 837.5,233.2 838.4,232.6 839.4,232.0 840.6,231.3 841.9,230.7 843.3,230.1 844.8,229.4 846.4,228.8 848.0,228.2 849.6,227.5 851.2,226.9 852.7,226.3 854.2,225.6 855.6,225.0 856.8,224.4 857.9,223.8 858.8,223.1 859.6,222.5 860.4,221.9 861.1,221.2 861.8,220.6 862.6,220.0 863.6,219.3 864.8,218.7 866.1,218.1 867.6,217.4 869.1,216.8 870.5,216.2 871.7,215.5 872.4,214.9 872.7,214.3 872.4,213.6 871.5,213.0 870.1,212.4 868.2,211.7 865.9,211.1 863.5,210.5 861.1,209.8 858.9,209.2 856.9,208.6 855.2,208.0 853.9,207.3 852.9,206.7 852.3,206.1 851.9,205.4 851.7,204.8 851.6,204.2 851.6,203.5 851.5,202.9 851.2,202.3 850.9,201.6 850.3,201.0 849.6,200.4 848.7,199.7 847.7,199.1 846.6,198.5 845.4,197.8 844.2,197.2 843.0,196.6 841.8,195.9 840.7,195.3 839.7,194.7 838.8,194.0 838.0,193.4 837.3,192.8 836.7,192.2 836.2,191.5 835.7,190.9 835.4,190.3 833.5,190.3 833.2,190.9 832.7,191.5 832.2,192.2 831.6,192.8 830.9,193.4 830.1,194.0 829.2,194.7 828.2,195.3 827.1,195.9 825.9,196.6 824.7,197.2 823.5,197.8 822.3,198.5 821.2,199.1 820.1,199.7 819.3,200.4 818.5,201.0 818.0,201.6 817.6,202.3 817.4,202.9 817.3,203.5 817.3,204.2 817.2,204.8 817.0,205.4 816.6,206.1 816.0,206.7 815.0,207.3 813.7,208.0 812.0,208.6 810.0,209.2 807.7,209.8 805.3,210.5 802.9,211.1 800.7,211.7 798.8,212.4 797.4,213.0 796.5,213.6 796.2,214.3 796.5,214.9 797.2,215.5 798.4,216.2 799.8,216.8 801.3,217.4 802.7,218.1 804.1,218.7 805.3,219.3 806.3,220.0 807.1,220.6 807.8,221.2 808.5,221.9 809.3,222.5 810.1,223.1 811.0,223.8 812.1,224.4 813.3,225.0 814.7,225.6 816.2,226.3 817.7,226.9 819.3,227.5 820.9,228.2 822.5,228.8 824.1,229.4 825.6,230.1 827.0,230.7 828.3,231.3 829.4,232.0 830.5,232.6 831.3,233.2 832.1,233.9 832.7,234.5 833.2,235.1" fill="#2a8" opacity="0.5" stroke="#2a8" stroke-width="1"/>
<line x1="796.3" y1="213.89823417732777" x2="872.6" y2="213.89823417732777" stroke="#114" stroke-width="2"/>
<circle cx="834.4444444444445" cy="220.30984859157215" r="2.4" fill="#114"/>
<text x="834.4444444444445" y="188.78690635503975" text-anchor="middle" font-size="11">1.23</text>
<text x="834.4444444444445" y="376" text-anchor="middle" font-size="12">sbmv</text>
<text x="450.0" y="428" text-anchor="middle" font-size="11" fill="#666">violin = ratio distribution over sizes · line = median · dark dot = worst size · green = every size ≥ gate</text>
</svg>
