<svg xmlns="http://www.w3.org/2000/svg" width="900" height="440" font-family="sans-serif">
<rect width="900" height="440" fill="white"/>
<text x="450.0" y="28" text-anchor="middle" font-size="18" font-weight="bold">BLAS-2: PureBLAS / OpenBLAS (AVX-512, 1 thread, Float64)</text>
<line x1="60" y1="358.0" x2="880" y2="358.0" stroke="#eee"/>
<text x="52" y="362.0" text-anchor="end" font-size="11" fill="#666">0×</text>
<line x1="60" y1="298.2601449732982" x2="880" y2="298.2601449732982" stroke="#eee"/>
<text x="52" y="302.2601449732982" text-anchor="end" font-size="11" fill="#666">0.5×</text>
<line x1="60" y1="238.52028994659645" x2="880" y2="238.52028994659645" stroke="#eee"/>
<text x="52" y="242.52028994659645" text-anchor="end" font-size="11" fill="#666">1×</text>
<line x1="60" y1="178.7804349198947" x2="880" y2="178.7804349198947" stroke="#eee"/>
<text x="52" y="182.7804349198947" text-anchor="end" font-size="11" fill="#666">1.5×</text>
<line x1="60" y1="238.52028994659645" x2="880" y2="238.52028994659645" stroke="#888" stroke-width="1"/>
<line x1="60" y1="243.2994783487326" x2="880" y2="243.2994783487326" stroke="#d33" stroke-width="1.5" stroke-dasharray="6 4"/>
<text x="880" y="238.2994783487326" text-anchor="end" font-size="11" fill="#d33">0.96× gate</text>
<polygon points="109.7,272.9 111.3,269.7 113.2,266.6 115.5,263.5 118.2,260.3 121.3,257.2 124.6,254.1 128.0,250.9 131.4,247.8 134.6,244.6 137.6,241.5 140.0,238.4 142.0,235.2 143.2,232.1 143.8,228.9 143.8,225.8 143.1,222.7 141.9,219.5 140.2,216.4 138.2,213.2 136.0,210.1 133.7,207.0 131.3,203.8 128.9,200.7 126.5,197.5 124.2,194.4 122.0,191.3 119.8,188.1 117.8,185.0 115.9,181.8 114.2,178.7 112.7,175.6 111.3,172.4 110.2,169.3 109.4,166.2 108.7,163.0 108.2,159.9 107.9,156.7 107.8,153.6 107.8,150.5 107.9,147.3 108.0,144.2 108.3,141.0 108.6,137.9 108.9,134.8 109.2,131.6 109.5,128.5 109.8,125.3 110.1,122.2 110.4,119.1 110.6,115.9 110.8,112.8 111.0,109.6 111.0,106.5 111.0,103.4 111.0,100.2 110.8,97.1 110.6,93.9 110.4,90.8 110.0,87.7 109.7,84.5 109.4,81.4 109.0,78.3 108.7,75.1 108.3,72.0 108.0,68.8 107.7,65.7 107.4,62.6 107.1,59.4 106.8,56.3 106.6,53.1 106.4,50.0 104.7,50.0 104.5,53.1 104.3,56.3 104.0,59.4 103.7,62.6 103.4,65.7 103.1,68.8 102.8,72.0 102.5,75.1 102.1,78.3 101.7,81.4 101.4,84.5 101.1,87.7 100.8,90.8 100.5,93.9 100.3,97.1 100.2,100.2 100.1,103.4 100.1,106.5 100.2,109.6 100.3,112.8 100.5,115.9 100.7,119.1 101.0,122.2 101.3,125.3 101.6,128.5 101.9,131.6 102.3,134.8 102.6,137.9 102.8,141.0 103.1,144.2 103.2,147.3 103.3,150.5 103.3,153.6 103.2,156.7 102.9,159.9 102.4,163.0 101.8,166.2 100.9,169.3 99.8,172.4 98.5,175.6 96.9,178.7 95.2,181.8 93.3,185.0 91.3,188.1 89.2,191.3 86.9,194.4 84.6,197.5 82.2,200.7 79.8,203.8 77.4,207.0 75.1,210.1 72.9,213.2 70.9,216.4 69.3,219.5 68.0,222.7 67.4,225.8 67.3,228.9 67.9,232.1 69.2,235.2 71.1,238.4 73.5,241.5 76.5,244.6 79.7,247.8 83.1,250.9 86.6,254.1 89.8,257.2 92.9,260.3 95.6,263.5 97.9,266.6 99.8,269.7 101.4,272.9" fill="#2a8" opacity="0.5" stroke="#2a8" stroke-width="1"/>
<line x1="68.1" y1="222.6006884875402" x2="143.1" y2="222.6006884875402" stroke="#114" stroke-width="2"/>
<circle cx="105.55555555555556" cy="242.05808875493335" r="2.4" fill="#114"/>
<text x="105.55555555555556" y="61.43396226415098" text-anchor="middle" font-size="11">1.13</text>
<text x="105.55555555555556" y="376" text-anchor="middle" font-size="12">gemvN</text>
<polygon points="197.4,256.8 197.7,255.8 198.2,254.7 198.7,253.6 199.4,252.5 200.3,251.4 201.3,250.4 202.6,249.3 204.1,248.2 205.9,247.1 207.9,246.0 210.2,245.0 212.7,243.9 215.4,242.8 218.2,241.7 221.1,240.6 223.9,239.6 226.5,238.5 228.9,237.4 231.0,236.3 232.7,235.2 234.0,234.2 234.7,233.1 234.9,232.0 234.6,230.9 233.8,229.8 232.5,228.7 230.8,227.7 228.8,226.6 226.5,225.5 224.1,224.4 221.7,223.3 219.4,222.3 217.2,221.2 215.2,220.1 213.6,219.0 212.3,217.9 211.4,216.9 210.8,215.8 210.6,214.7 210.6,213.6 210.9,212.5 211.4,211.5 211.9,210.4 212.4,209.3 212.7,208.2 212.9,207.1 212.8,206.1 212.4,205.0 211.8,203.9 211.0,202.8 210.0,201.7 208.8,200.7 207.6,199.6 206.4,198.5 205.3,197.4 204.2,196.3 203.2,195.3 202.3,194.2 201.5,193.1 200.8,192.0 200.1,190.9 199.6,189.9 199.1,188.8 198.7,187.7 198.3,186.6 198.0,185.5 197.7,184.5 197.5,183.4 197.3,182.3 197.1,181.2 197.0,180.1 196.3,180.1 196.2,181.2 196.1,182.3 195.9,183.4 195.6,184.5 195.4,185.5 195.0,186.6 194.7,187.7 194.2,188.8 193.7,189.9 193.2,190.9 192.6,192.0 191.8,193.1 191.0,194.2 190.1,195.3 189.1,196.3 188.1,197.4 186.9,198.5 185.7,199.6 184.5,200.7 183.4,201.7 182.4,202.8 181.5,203.9 180.9,205.0 180.6,206.1 180.5,207.1 180.6,208.2 181.0,209.3 181.4,210.4 182.0,211.5 182.4,212.5 182.7,213.6 182.8,214.7 182.5,215.8 182.0,216.9 181.0,217.9 179.7,219.0 178.1,220.1 176.1,221.2 174.0,222.3 171.6,223.3 169.2,224.4 166.8,225.5 164.6,226.6 162.6,227.7 160.9,228.7 159.6,229.8 158.7,230.9 158.4,232.0 158.6,233.1 159.4,234.2 160.6,235.2 162.3,236.3 164.4,237.4 166.8,238.5 169.5,239.6 172.3,240.6 175.1,241.7 177.9,242.8 180.6,243.9 183.1,245.0 185.4,246.0 187.4,247.1 189.2,248.2 190.7,249.3 192.0,250.4 193.1,251.4 193.9,252.5 194.6,253.6 195.2,254.7 195.6,255.8 195.9,256.8" fill="#2a8" opacity="0.5" stroke="#2a8" stroke-width="1"/>
<line x1="161.1" y1="228.55983064902188" x2="232.2" y2="228.55983064902188" stroke="#114" stroke-width="2"/>
<circle cx="196.66666666666669" cy="238.8168864444761" r="2.4" fill="#114"/>
<text x="196.66666666666669" y="181.75692906453435" text-anchor="middle" font-size="11">1.08</text>
<text x="196.66666666666669" y="376" text-anchor="middle" font-size="12">gemvT</text>
<polygon points="288.1,251.1 288.3,250.1 288.6,249.2 289.1,248.3 289.8,247.4 290.7,246.5 291.8,245.6 293.0,244.7 294.5,243.8 296.2,242.9 298.2,242.0 300.4,241.1 303.1,240.2 306.0,239.3 309.3,238.4 312.8,237.5 316.1,236.6 319.1,235.7 321.6,234.8 323.4,233.9 324.6,233.0 325.3,232.1 325.7,231.2 326.0,230.3 326.0,229.4 325.9,228.5 325.5,227.6 324.7,226.6 323.6,225.7 322.1,224.8 320.5,223.9 318.6,223.0 316.7,222.1 314.6,221.2 312.2,220.3 309.7,219.4 306.9,218.5 304.1,217.6 301.4,216.7 298.9,215.8 296.7,214.9 294.9,214.0 293.6,213.1 292.6,212.2 291.9,211.3 291.5,210.4 291.2,209.5 291.0,208.6 290.9,207.7 290.8,206.8 290.6,205.9 290.4,205.0 290.2,204.1 289.9,203.1 289.5,202.2 289.2,201.3 288.9,200.4 288.6,199.5 288.4,198.6 288.4,197.7 288.4,196.8 288.4,195.9 288.5,195.0 288.5,194.1 288.5,193.2 288.5,192.3 288.4,191.4 288.3,190.5 288.2,189.6 288.1,188.7 288.0,187.8 287.9,186.9 287.7,186.9 287.6,187.8 287.5,188.7 287.4,189.6 287.3,190.5 287.2,191.4 287.1,192.3 287.0,193.2 287.1,194.1 287.1,195.0 287.2,195.9 287.2,196.8 287.2,197.7 287.1,198.6 286.9,199.5 286.7,200.4 286.4,201.3 286.0,202.2 285.7,203.1 285.4,204.1 285.1,205.0 284.9,205.9 284.8,206.8 284.7,207.7 284.5,208.6 284.3,209.5 284.1,210.4 283.6,211.3 283.0,212.2 282.0,213.1 280.6,214.0 278.9,214.9 276.7,215.8 274.2,216.7 271.4,217.6 268.6,218.5 265.9,219.4 263.3,220.3 261.0,221.2 258.9,222.1 256.9,223.0 255.1,223.9 253.4,224.8 252.0,225.7 250.8,226.6 250.1,227.6 249.6,228.5 249.5,229.4 249.6,230.3 249.8,231.2 250.2,232.1 251.0,233.0 252.2,233.9 254.0,234.8 256.4,235.7 259.5,236.6 262.8,237.5 266.2,238.4 269.5,239.3 272.5,240.2 275.1,241.1 277.4,242.0 279.3,242.9 281.0,243.8 282.5,244.7 283.8,245.6 284.9,246.5 285.7,247.4 286.4,248.3 286.9,249.2 287.3,250.1 287.5,251.1" fill="#2a8" opacity="0.5" stroke="#2a8" stroke-width="1"/>
<line x1="249.7" y1="228.41171105060866" x2="325.9" y2="228.41171105060866" stroke="#114" stroke-width="2"/>
<circle cx="287.77777777777777" cy="235.30857744070937" r="2.4" fill="#114"/>
<text x="287.77777777777777" y="187.28316064513538" text-anchor="middle" font-size="11">1.08</text>
<text x="287.77777777777777" y="376" text-anchor="middle" font-size="12">ger</text>
<polygon points="379.1,259.6 379.1,257.9 379.3,256.3 379.4,254.6 379.6,253.0 379.8,251.3 380.1,249.7 380.4,248.0 380.9,246.4 381.5,244.7 382.3,243.1 383.4,241.4 384.8,239.8 386.5,238.1 388.6,236.5 391.0,234.8 393.9,233.2 397.2,231.6 400.7,229.9 404.3,228.3 407.8,226.6 411.0,225.0 413.6,223.3 415.5,221.7 416.7,220.0 417.2,218.4 416.9,216.7 416.2,215.1 415.2,213.4 413.9,211.8 412.6,210.1 411.3,208.5 410.1,206.8 409.0,205.2 408.0,203.5 407.1,201.9 406.2,200.2 405.4,198.6 404.5,196.9 403.5,195.3 402.4,193.6 401.0,192.0 399.4,190.3 397.6,188.7 395.7,187.0 393.6,185.4 391.6,183.7 389.7,182.1 387.9,180.5 386.5,178.8 385.3,177.2 384.4,175.5 383.7,173.9 383.3,172.2 382.9,170.6 382.7,168.9 382.5,167.3 382.3,165.6 382.0,164.0 381.8,162.3 381.5,160.7 381.2,159.0 380.9,157.4 380.6,155.7 380.3,154.1 380.1,152.4 379.8,150.8 379.6,149.1 379.4,147.5 379.3,145.8 379.2,144.2 379.1,142.5 378.7,142.5 378.6,144.2 378.5,145.8 378.3,147.5 378.2,149.1 377.9,150.8 377.7,152.4 377.4,154.1 377.2,155.7 376.8,157.4 376.5,159.0 376.2,160.7 376.0,162.3 375.7,164.0 375.5,165.6 375.3,167.3 375.1,168.9 374.8,170.6 374.5,172.2 374.0,173.9 373.4,175.5 372.5,177.2 371.3,178.8 369.8,180.5 368.1,182.1 366.2,183.7 364.2,185.4 362.1,187.0 360.1,188.7 358.3,190.3 356.8,192.0 355.4,193.6 354.3,195.3 353.3,196.9 352.4,198.6 351.6,200.2 350.7,201.9 349.8,203.5 348.8,205.2 347.7,206.8 346.5,208.5 345.2,210.1 343.9,211.8 342.6,213.4 341.5,215.1 340.8,216.7 340.6,218.4 341.1,220.0 342.2,221.7 344.2,223.3 346.8,225.0 350.0,226.6 353.5,228.3 357.1,229.9 360.6,231.6 363.8,233.2 366.7,234.8 369.2,236.5 371.3,238.1 373.0,239.8 374.4,241.4 375.4,243.1 376.2,244.7 376.9,246.4 377.3,248.0 377.7,249.7 378.0,251.3 378.2,253.0 378.4,254.6 378.5,256.3 378.6,257.9 378.7,259.6" fill="#2a8" opacity="0.5" stroke="#2a8" stroke-width="1"/>
<line x1="344.1" y1="211.40212275091363" x2="413.6" y2="211.40212275091363" stroke="#114" stroke-width="2"/>
<circle cx="378.8888888888889" cy="224.40804100107718" r="2.4" fill="#114"/>
<text x="378.8888888888889" y="148.0580578518094" text-anchor="middle" font-size="11">1.23</text>
<text x="378.8888888888889" y="376" text-anchor="middle" font-size="12">symv</text>
<polygon points="470.7,253.5 471.0,252.2 471.5,250.9 472.1,249.6 472.9,248.3 473.9,247.0 475.2,245.8 476.6,244.5 478.2,243.2 479.9,241.9 481.6,240.6 483.4,239.3 485.2,238.0 486.8,236.7 488.3,235.5 489.6,234.2 490.8,232.9 491.8,231.6 492.8,230.3 493.8,229.0 494.8,227.7 496.0,226.5 497.4,225.2 499.0,223.9 500.7,222.6 502.4,221.3 504.2,220.0 505.7,218.7 507.0,217.4 507.9,216.2 508.3,214.9 508.2,213.6 507.5,212.3 506.4,211.0 504.8,209.7 502.8,208.4 500.6,207.2 498.4,205.9 496.1,204.6 494.1,203.3 492.3,202.0 490.9,200.7 489.7,199.4 488.9,198.1 488.3,196.9 487.8,195.6 487.4,194.3 486.8,193.0 486.2,191.7 485.4,190.4 484.3,189.1 483.2,187.9 481.9,186.6 480.5,185.3 479.1,184.0 477.7,182.7 476.5,181.4 475.3,180.1 474.3,178.8 473.5,177.6 472.8,176.3 472.3,175.0 471.8,173.7 471.5,172.4 471.3,171.1 471.0,169.8 470.9,168.6 470.7,167.3 470.6,166.0 470.4,164.7 470.3,163.4 470.2,162.1 469.8,162.1 469.7,163.4 469.6,164.7 469.4,166.0 469.3,167.3 469.1,168.6 469.0,169.8 468.7,171.1 468.5,172.4 468.2,173.7 467.7,175.0 467.2,176.3 466.5,177.6 465.7,178.8 464.7,180.1 463.5,181.4 462.3,182.7 460.9,184.0 459.5,185.3 458.1,186.6 456.8,187.9 455.7,189.1 454.6,190.4 453.8,191.7 453.2,193.0 452.6,194.3 452.2,195.6 451.7,196.9 451.1,198.1 450.3,199.4 449.1,200.7 447.7,202.0 445.9,203.3 443.9,204.6 441.6,205.9 439.4,207.2 437.2,208.4 435.2,209.7 433.6,211.0 432.5,212.3 431.8,213.6 431.7,214.9 432.1,216.2 433.0,217.4 434.3,218.7 435.8,220.0 437.6,221.3 439.3,222.6 441.0,223.9 442.6,225.2 444.0,226.5 445.2,227.7 446.2,229.0 447.2,230.3 448.2,231.6 449.2,232.9 450.4,234.2 451.7,235.5 453.2,236.7 454.8,238.0 456.6,239.3 458.4,240.6 460.1,241.9 461.8,243.2 463.4,244.5 464.8,245.8 466.1,247.0 467.1,248.3 467.9,249.6 468.5,250.9 469.0,252.2 469.3,253.5" fill="#2a8" opacity="0.5" stroke="#2a8" stroke-width="1"/>
<line x1="431.7" y1="214.84737349330817" x2="508.3" y2="214.84737349330817" stroke="#114" stroke-width="2"/>
<circle cx="470.0" cy="231.07210589796634" r="2.4" fill="#114"/>
<text x="470.0" y="165.15082330968625" text-anchor="middle" font-size="11">1.20</text>
<text x="470.0" y="376" text-anchor="middle" font-size="12">trmv</text>
<polygon points="561.4,253.4 561.5,252.6 561.6,251.8 561.7,250.9 561.9,250.1 562.0,249.3 562.2,248.5 562.3,247.7 562.6,246.9 562.8,246.1 563.2,245.3 563.7,244.5 564.4,243.7 565.3,242.9 566.4,242.0 567.9,241.2 569.6,240.4 571.6,239.6 573.9,238.8 576.5,238.0 579.3,237.2 582.2,236.4 585.0,235.6 587.7,234.8 590.1,234.0 592.1,233.1 593.7,232.3 594.8,231.5 595.5,230.7 595.8,229.9 595.7,229.1 595.4,228.3 594.9,227.5 594.4,226.7 593.9,225.9 593.6,225.1 593.4,224.2 593.4,223.4 593.5,222.6 593.9,221.8 594.5,221.0 595.2,220.2 596.1,219.4 597.0,218.6 597.9,217.8 598.7,217.0 599.3,216.2 599.4,215.3 599.0,214.5 598.1,213.7 596.6,212.9 594.6,212.1 592.1,211.3 589.4,210.5 586.5,209.7 583.6,208.9 580.8,208.1 578.2,207.3 575.7,206.4 573.5,205.6 571.6,204.8 569.8,204.0 568.3,203.2 567.1,202.4 565.9,201.6 565.0,200.8 564.2,200.0 563.5,199.2 562.9,198.4 562.4,197.5 562.0,196.7 561.8,195.9 560.5,195.9 560.2,196.7 559.8,197.5 559.3,198.4 558.8,199.2 558.1,200.0 557.2,200.8 556.3,201.6 555.2,202.4 553.9,203.2 552.4,204.0 550.7,204.8 548.7,205.6 546.5,206.4 544.1,207.3 541.4,208.1 538.6,208.9 535.7,209.7 532.8,210.5 530.1,211.3 527.7,212.1 525.6,212.9 524.1,213.7 523.2,214.5 522.8,215.3 523.0,216.2 523.5,217.0 524.3,217.8 525.2,218.6 526.1,219.4 527.0,220.2 527.7,221.0 528.3,221.8 528.7,222.6 528.9,223.4 528.8,224.2 528.6,225.1 528.3,225.9 527.8,226.7 527.3,227.5 526.8,228.3 526.5,229.1 526.4,229.9 526.7,230.7 527.4,231.5 528.5,232.3 530.1,233.1 532.1,234.0 534.5,234.8 537.2,235.6 540.0,236.4 542.9,237.2 545.7,238.0 548.3,238.8 550.6,239.6 552.6,240.4 554.4,241.2 555.8,242.0 556.9,242.9 557.8,243.7 558.5,244.5 559.0,245.3 559.4,246.1 559.7,246.9 559.9,247.7 560.1,248.5 560.2,249.3 560.4,250.1 560.5,250.9 560.6,251.8 560.8,252.6 560.8,253.4" fill="#2a8" opacity="0.5" stroke="#2a8" stroke-width="1"/>
<line x1="528.4" y1="221.93875656438973" x2="593.9" y2="221.93875656438973" stroke="#114" stroke-width="2"/>
<circle cx="561.1111111111111" cy="234.34360497667979" r="2.4" fill="#114"/>
<text x="561.1111111111111" y="195.67775287483312" text-anchor="middle" font-size="11">1.14</text>
<text x="561.1111111111111" y="376" text-anchor="middle" font-size="12">trsv</text>
<polygon points="654.6,248.3 655.6,246.2 656.7,244.2 658.1,242.1 659.6,240.0 661.2,237.9 662.8,235.9 664.3,233.8 665.6,231.7 666.7,229.7 667.4,227.6 667.9,225.5 668.0,223.5 668.0,221.4 667.9,219.3 667.7,217.2 667.7,215.2 667.9,213.1 668.3,211.0 669.0,209.0 669.9,206.9 671.2,204.8 672.7,202.8 674.4,200.7 676.3,198.6 678.2,196.5 680.2,194.5 682.2,192.4 684.2,190.3 685.9,188.3 687.5,186.2 688.7,184.1 689.7,182.1 690.3,180.0 690.5,177.9 690.3,175.8 689.8,173.8 688.9,171.7 687.7,169.6 686.2,167.6 684.5,165.5 682.6,163.4 680.7,161.4 678.7,159.3 676.7,157.2 674.7,155.1 672.8,153.1 671.0,151.0 669.4,148.9 667.8,146.9 666.3,144.8 664.9,142.7 663.7,140.7 662.5,138.6 661.5,136.5 660.5,134.4 659.7,132.4 658.9,130.3 658.2,128.2 657.5,126.2 656.9,124.1 656.4,122.0 655.8,120.0 655.3,117.9 654.9,115.8 654.4,113.8 654.1,111.7 653.7,109.6 653.4,107.5 653.1,105.5 652.9,103.4 652.7,101.3 651.7,101.3 651.6,103.4 651.3,105.5 651.1,107.5 650.7,109.6 650.4,111.7 650.0,113.8 649.6,115.8 649.1,117.9 648.6,120.0 648.1,122.0 647.5,124.1 646.9,126.2 646.3,128.2 645.6,130.3 644.8,132.4 643.9,134.4 643.0,136.5 641.9,138.6 640.8,140.7 639.5,142.7 638.2,144.8 636.7,146.9 635.1,148.9 633.4,151.0 631.6,153.1 629.7,155.1 627.8,157.2 625.8,159.3 623.8,161.4 621.8,163.4 620.0,165.5 618.3,167.6 616.8,169.6 615.6,171.7 614.7,173.8 614.1,175.8 614.0,177.9 614.2,180.0 614.8,182.1 615.7,184.1 617.0,186.2 618.5,188.3 620.3,190.3 622.2,192.4 624.2,194.5 626.2,196.5 628.2,198.6 630.1,200.7 631.8,202.8 633.3,204.8 634.5,206.9 635.5,209.0 636.2,211.0 636.6,213.1 636.7,215.2 636.7,217.2 636.6,219.3 636.5,221.4 636.4,223.5 636.6,225.5 637.0,227.6 637.8,229.7 638.8,231.7 640.1,233.8 641.7,235.9 643.3,237.9 644.9,240.0 646.4,242.1 647.7,244.2 648.9,246.2 649.8,248.3" fill="#2a8" opacity="0.5" stroke="#2a8" stroke-width="1"/>
<line x1="614.2" y1="180.3142090601878" x2="690.2" y2="180.3142090601878" stroke="#114" stroke-width="2"/>
<circle cx="652.2222222222223" cy="228.44066365699314" r="2.4" fill="#114"/>
<text x="652.2222222222223" y="109.7455855306101" text-anchor="middle" font-size="11">1.49</text>
<text x="652.2222222222223" y="376" text-anchor="middle" font-size="12">spmv</text>
<polygon points="743.5,248.1 743.6,246.6 743.8,245.0 744.0,243.5 744.2,242.0 744.5,240.5 744.8,239.0 745.1,237.4 745.5,235.9 745.7,234.4 746.0,232.9 746.2,231.4 746.4,229.8 746.6,228.3 746.8,226.8 747.3,225.3 747.9,223.7 748.9,222.2 750.2,220.7 751.9,219.2 754.0,217.7 756.3,216.1 759.0,214.6 761.9,213.1 765.0,211.6 768.1,210.1 771.2,208.5 774.1,207.0 776.6,205.5 778.7,204.0 780.2,202.4 781.1,200.9 781.6,199.4 781.6,197.9 781.4,196.4 781.0,194.8 780.5,193.3 779.8,191.8 778.9,190.3 777.5,188.8 775.8,187.2 773.8,185.7 771.6,184.2 769.3,182.7 767.0,181.2 764.9,179.6 762.9,178.1 761.1,176.6 759.3,175.1 757.7,173.5 756.2,172.0 754.7,170.5 753.5,169.0 752.3,167.5 751.4,165.9 750.5,164.4 749.8,162.9 749.1,161.4 748.4,159.9 747.7,158.3 747.1,156.8 746.5,155.3 746.0,153.8 745.5,152.2 745.1,150.7 744.7,149.2 744.4,147.7 744.1,146.2 743.9,144.6 743.7,143.1 743.6,141.6 743.5,140.1 743.2,140.1 743.1,141.6 742.9,143.1 742.8,144.6 742.5,146.2 742.3,147.7 742.0,149.2 741.6,150.7 741.2,152.2 740.7,153.8 740.1,155.3 739.5,156.8 738.9,158.3 738.3,159.9 737.6,161.4 736.9,162.9 736.1,164.4 735.3,165.9 734.3,167.5 733.2,169.0 731.9,170.5 730.5,172.0 729.0,173.5 727.3,175.1 725.6,176.6 723.7,178.1 721.8,179.6 719.6,181.2 717.4,182.7 715.1,184.2 712.8,185.7 710.8,187.2 709.1,188.8 707.8,190.3 706.8,191.8 706.2,193.3 705.6,194.8 705.3,196.4 705.1,197.9 705.1,199.4 705.5,200.9 706.4,202.4 708.0,204.0 710.0,205.5 712.6,207.0 715.5,208.5 718.6,210.1 721.7,211.6 724.8,213.1 727.7,214.6 730.3,216.1 732.7,217.7 734.8,219.2 736.5,220.7 737.8,222.2 738.8,223.7 739.4,225.3 739.8,226.8 740.1,228.3 740.3,229.8 740.5,231.4 740.7,232.9 740.9,234.4 741.2,235.9 741.5,237.4 741.9,239.0 742.2,240.5 742.5,242.0 742.7,243.5 742.9,245.0 743.0,246.6 743.2,248.1" fill="#2a8" opacity="0.5" stroke="#2a8" stroke-width="1"/>
<line x1="705.7" y1="194.8187282576241" x2="781.0" y2="194.8187282576241" stroke="#114" stroke-width="2"/>
<circle cx="743.3333333333334" cy="204.6762425316917" r="2.4" fill="#114"/>
<text x="743.3333333333334" y="144.72512528484788" text-anchor="middle" font-size="11">1.37</text>
<text x="743.3333333333334" y="376" text-anchor="middle" font-size="12">gbmvN</text>
<polygon points="834.5,276.9 834.6,275.2 834.6,273.5 834.7,271.8 834.8,270.1 834.9,268.3 835.0,266.6 835.1,264.9 835.1,263.2 835.1,261.5 835.2,259.8 835.3,258.1 835.4,256.4 835.5,254.7 835.7,253.0 835.8,251.3 835.9,249.6 836.0,247.9 835.9,246.2 835.9,244.5 836.0,242.7 836.2,241.0 836.7,239.3 837.7,237.6 839.3,235.9 841.8,234.2 845.3,232.5 849.8,230.8 855.1,229.1 860.6,227.4 865.7,225.7 869.7,224.0 872.1,222.3 872.7,220.6 871.8,218.9 869.9,217.1 867.4,215.4 864.7,213.7 862.3,212.0 860.1,210.3 858.3,208.6 856.6,206.9 855.0,205.2 853.3,203.5 851.6,201.8 849.7,200.1 847.7,198.4 845.8,196.7 843.9,195.0 842.2,193.3 840.8,191.5 839.6,189.8 838.8,188.1 838.3,186.4 838.0,184.7 837.8,183.0 837.6,181.3 837.3,179.6 836.9,177.9 836.6,176.2 836.2,174.5 836.0,172.8 835.9,171.1 835.8,169.4 835.7,167.7 835.6,165.9 835.4,164.2 835.2,162.5 835.0,160.8 834.8,159.1 834.6,157.4 834.6,155.7 834.3,155.7 834.2,157.4 834.1,159.1 833.9,160.8 833.7,162.5 833.5,164.2 833.3,165.9 833.2,167.7 833.1,169.4 833.0,171.1 832.9,172.8 832.6,174.5 832.3,176.2 832.0,177.9 831.6,179.6 831.3,181.3 831.1,183.0 830.9,184.7 830.6,186.4 830.1,188.1 829.3,189.8 828.1,191.5 826.7,193.3 825.0,195.0 823.1,196.7 821.2,198.4 819.2,200.1 817.3,201.8 815.6,203.5 813.9,205.2 812.3,206.9 810.6,208.6 808.8,210.3 806.6,212.0 804.2,213.7 801.5,215.4 799.0,217.1 797.1,218.9 796.2,220.6 796.8,222.3 799.2,224.0 803.2,225.7 808.3,227.4 813.8,229.1 819.1,230.8 823.6,232.5 827.1,234.2 829.6,235.9 831.2,237.6 832.2,239.3 832.7,241.0 832.9,242.7 833.0,244.5 832.9,246.2 832.9,247.9 833.0,249.6 833.0,251.3 833.2,253.0 833.4,254.7 833.5,256.4 833.6,258.1 833.7,259.8 833.8,261.5 833.8,263.2 833.8,264.9 833.9,266.6 834.0,268.3 834.1,270.1 834.2,271.8 834.3,273.5 834.3,275.2 834.4,276.9" fill="#2a8" opacity="0.5" stroke="#2a8" stroke-width="1"/>
<line x1="799.1" y1="217.0459611459973" x2="869.7" y2="217.0459611459973" stroke="#114" stroke-width="2"/>
<circle cx="834.4444444444445" cy="223.56803678535235" r="2.4" fill="#114"/>
<text x="834.4444444444445" y="161.62784978766774" text-anchor="middle" font-size="11">1.18</text>
<text x="834.4444444444445" y="376" text-anchor="middle" font-size="12">sbmv</text>
<text x="450.0" y="428" text-anchor="middle" font-size="11" fill="#666">violin = ratio distribution over sizes · line = median · dark dot = worst size · green = every size ≥ gate</text>
</svg>
