<svg xmlns="http://www.w3.org/2000/svg" width="962" height="248" font-family="sans-serif">
<rect width="962" height="248" fill="white"/>
<text x="481.0" y="26" text-anchor="middle" font-size="17" font-weight="bold">LAPACK — PureBLAS / OpenBLAS (PB/OpenBLAS ratio)</text>
<line x1="46" y1="42" x2="68" y2="42" stroke="#d62728" stroke-width="3"/>
<text x="73" y="46" font-size="12">Zen3 · AVX2</text>
<line x1="176" y1="42" x2="198" y2="42" stroke="#2ca02c" stroke-width="3"/>
<text x="203" y="46" font-size="12">Zen5 · AVX-512</text>
<line x1="327" y1="42" x2="349" y2="42" stroke="#1f77b4" stroke-width="3"/>
<text x="354" y="46" font-size="12">Zen4 · AVX-512</text>
<rect x="46" y="60" width="210" height="138" fill="none" stroke="#e2e2e2"/>
<line x1="46" y1="133.46794810699691" x2="256" y2="133.46794810699691" stroke="#d33" stroke-dasharray="4 3"/>
<text x="42" y="201.0" text-anchor="end" font-size="9" fill="#999">0.5×</text>
<text x="42" y="136.46794810699691" text-anchor="end" font-size="9" fill="#999">1.0×</text>
<text x="42" y="63.0625116838922" text-anchor="end" font-size="9" fill="#999">2.2×</text>
<polygon points="46.0,98.7 92.7,80.6 139.3,92.5 162.7,111.4 186.0,120.4 209.3,126.7 232.7,127.1 256.0,130.4 256.0,130.8 232.7,128.2 209.3,127.6 186.0,120.9 162.7,113.4 139.3,94.3 92.7,88.6 46.0,102.1" fill="#d62728" opacity="0.11"/>
<polyline points="46.0,102.0 92.7,82.3 139.3,93.6 162.7,112.0 186.0,120.7 209.3,126.8 232.7,127.6 256.0,130.5" fill="none" stroke="#d62728" stroke-width="1.6"/>
<circle cx="46.0" cy="102.0" r="2" fill="#d62728"/>
<circle cx="92.7" cy="82.3" r="2" fill="#d62728"/>
<circle cx="139.3" cy="93.6" r="2" fill="#d62728"/>
<circle cx="162.7" cy="112.0" r="2" fill="#d62728"/>
<circle cx="186.0" cy="120.7" r="2" fill="#d62728"/>
<circle cx="209.3" cy="126.8" r="2" fill="#d62728"/>
<circle cx="232.7" cy="127.6" r="2" fill="#d62728"/>
<circle cx="256.0" cy="130.5" r="2" fill="#d62728"/>
<polygon points="46.0,99.9 92.7,80.7 139.3,74.5 162.7,83.2 186.0,89.6 209.3,97.6 232.7,110.1 256.0,116.5 256.0,116.7 232.7,111.0 209.3,98.6 186.0,90.2 162.7,84.3 139.3,76.4 92.7,84.7 46.0,100.8" fill="#2ca02c" opacity="0.11"/>
<polyline points="46.0,100.1 92.7,82.1 139.3,75.3 162.7,83.8 186.0,90.0 209.3,98.1 232.7,110.3 256.0,116.6" fill="none" stroke="#2ca02c" stroke-width="1.6"/>
<circle cx="46.0" cy="100.1" r="2" fill="#2ca02c"/>
<circle cx="92.7" cy="82.1" r="2" fill="#2ca02c"/>
<circle cx="139.3" cy="75.3" r="2" fill="#2ca02c"/>
<circle cx="162.7" cy="83.8" r="2" fill="#2ca02c"/>
<circle cx="186.0" cy="90.0" r="2" fill="#2ca02c"/>
<circle cx="209.3" cy="98.1" r="2" fill="#2ca02c"/>
<circle cx="232.7" cy="110.3" r="2" fill="#2ca02c"/>
<circle cx="256.0" cy="116.6" r="2" fill="#2ca02c"/>
<polygon points="46.0,94.4 92.7,67.2 139.3,72.5 162.7,85.6 186.0,93.0 209.3,105.9 232.7,119.5 256.0,123.6 256.0,125.3 232.7,120.1 209.3,107.5 186.0,93.6 162.7,87.3 139.3,74.6 92.7,74.7 46.0,95.0" fill="#1f77b4" opacity="0.11"/>
<polyline points="46.0,94.7 92.7,70.1 139.3,73.5 162.7,85.9 186.0,93.4 209.3,106.2 232.7,119.9 256.0,123.8" fill="none" stroke="#1f77b4" stroke-width="1.6"/>
<circle cx="46.0" cy="94.7" r="2" fill="#1f77b4"/>
<circle cx="92.7" cy="70.1" r="2" fill="#1f77b4"/>
<circle cx="139.3" cy="73.5" r="2" fill="#1f77b4"/>
<circle cx="162.7" cy="85.9" r="2" fill="#1f77b4"/>
<circle cx="186.0" cy="93.4" r="2" fill="#1f77b4"/>
<circle cx="209.3" cy="106.2" r="2" fill="#1f77b4"/>
<circle cx="232.7" cy="119.9" r="2" fill="#1f77b4"/>
<circle cx="256.0" cy="123.8" r="2" fill="#1f77b4"/>
<text x="151.0" y="55" text-anchor="middle" font-size="12" font-weight="bold">potrf</text>
<line x1="46.0" y1="60" x2="46.0" y2="198" stroke="#f4f4f4"/>
<text x="46.0" y="209" text-anchor="middle" font-size="8" fill="#999">8</text>
<line x1="92.7" y1="60" x2="92.7" y2="198" stroke="#f4f4f4"/>
<text x="92.7" y="209" text-anchor="middle" font-size="8" fill="#999">32</text>
<line x1="139.3" y1="60" x2="139.3" y2="198" stroke="#f4f4f4"/>
<text x="139.3" y="209" text-anchor="middle" font-size="8" fill="#999">128</text>
<line x1="162.7" y1="60" x2="162.7" y2="198" stroke="#f4f4f4"/>
<text x="162.7" y="209" text-anchor="middle" font-size="8" fill="#999">256</text>
<line x1="186.0" y1="60" x2="186.0" y2="198" stroke="#f4f4f4"/>
<text x="186.0" y="209" text-anchor="middle" font-size="8" fill="#999">512</text>
<line x1="209.3" y1="60" x2="209.3" y2="198" stroke="#f4f4f4"/>
<text x="209.3" y="209" text-anchor="middle" font-size="8" fill="#999">1k</text>
<line x1="232.7" y1="60" x2="232.7" y2="198" stroke="#f4f4f4"/>
<text x="232.7" y="209" text-anchor="middle" font-size="8" fill="#999">2k</text>
<line x1="256.0" y1="60" x2="256.0" y2="198" stroke="#f4f4f4"/>
<text x="256.0" y="209" text-anchor="middle" font-size="8" fill="#999">4k</text>
<rect x="276" y="60" width="210" height="138" fill="none" stroke="#e2e2e2"/>
<line x1="276" y1="124.4675499724308" x2="486" y2="124.4675499724308" stroke="#d33" stroke-dasharray="4 3"/>
<text x="272" y="201.0" text-anchor="end" font-size="9" fill="#999">0.5×</text>
<text x="272" y="127.4675499724308" text-anchor="end" font-size="9" fill="#999">1.0×</text>
<polygon points="276.0,68.2 328.5,94.4 381.0,112.6 407.2,89.4 433.5,90.0 459.8,100.3 486.0,104.0 486.0,111.4 459.8,103.5 433.5,93.2 407.2,98.7 381.0,113.3 328.5,98.1 276.0,69.1" fill="#d62728" opacity="0.11"/>
<polyline points="276.0,68.6 328.5,97.3 381.0,113.1 407.2,98.4 433.5,91.7 459.8,101.1 486.0,106.8" fill="none" stroke="#d62728" stroke-width="1.6"/>
<circle cx="276.0" cy="68.6" r="2" fill="#d62728"/>
<circle cx="328.5" cy="97.3" r="2" fill="#d62728"/>
<circle cx="381.0" cy="113.1" r="2" fill="#d62728"/>
<circle cx="407.2" cy="98.4" r="2" fill="#d62728"/>
<circle cx="433.5" cy="91.7" r="2" fill="#d62728"/>
<circle cx="459.8" cy="101.1" r="2" fill="#d62728"/>
<circle cx="486.0" cy="106.8" r="2" fill="#d62728"/>
<polygon points="276.0,76.2 328.5,96.5 381.0,124.2 407.2,98.4 433.5,100.7 459.8,107.7 486.0,115.8 486.0,121.3 459.8,109.7 433.5,102.0 407.2,99.0 381.0,124.7 328.5,100.8 276.0,77.9" fill="#2ca02c" opacity="0.11"/>
<polyline points="276.0,77.2 328.5,100.3 381.0,124.5 407.2,98.7 433.5,101.7 459.8,109.2 486.0,118.1" fill="none" stroke="#2ca02c" stroke-width="1.6"/>
<circle cx="276.0" cy="77.2" r="2" fill="#2ca02c"/>
<circle cx="328.5" cy="100.3" r="2" fill="#2ca02c"/>
<circle cx="381.0" cy="124.5" r="2" fill="#2ca02c"/>
<circle cx="407.2" cy="98.7" r="2" fill="#2ca02c"/>
<circle cx="433.5" cy="101.7" r="2" fill="#2ca02c"/>
<circle cx="459.8" cy="109.2" r="2" fill="#2ca02c"/>
<circle cx="486.0" cy="118.1" r="2" fill="#2ca02c"/>
<polygon points="276.0,72.6 328.5,84.1 381.0,108.5 407.2,94.3 433.5,89.0 459.8,94.1 486.0,96.2 486.0,115.9 459.8,97.6 433.5,92.7 407.2,95.6 381.0,121.3 328.5,96.5 276.0,73.5" fill="#1f77b4" opacity="0.11"/>
<polyline points="276.0,72.8 328.5,96.2 381.0,121.1 407.2,95.0 433.5,92.1 459.8,95.9 486.0,106.3" fill="none" stroke="#1f77b4" stroke-width="1.6"/>
<circle cx="276.0" cy="72.8" r="2" fill="#1f77b4"/>
<circle cx="328.5" cy="96.2" r="2" fill="#1f77b4"/>
<circle cx="381.0" cy="121.1" r="2" fill="#1f77b4"/>
<circle cx="407.2" cy="95.0" r="2" fill="#1f77b4"/>
<circle cx="433.5" cy="92.1" r="2" fill="#1f77b4"/>
<circle cx="459.8" cy="95.9" r="2" fill="#1f77b4"/>
<circle cx="486.0" cy="106.3" r="2" fill="#1f77b4"/>
<text x="381.0" y="55" text-anchor="middle" font-size="12" font-weight="bold">gesvd</text>
<line x1="276.0" y1="60" x2="276.0" y2="198" stroke="#f4f4f4"/>
<text x="276.0" y="209" text-anchor="middle" font-size="8" fill="#999">8</text>
<line x1="328.5" y1="60" x2="328.5" y2="198" stroke="#f4f4f4"/>
<text x="328.5" y="209" text-anchor="middle" font-size="8" fill="#999">32</text>
<line x1="381.0" y1="60" x2="381.0" y2="198" stroke="#f4f4f4"/>
<text x="381.0" y="209" text-anchor="middle" font-size="8" fill="#999">128</text>
<line x1="407.2" y1="60" x2="407.2" y2="198" stroke="#f4f4f4"/>
<text x="407.2" y="209" text-anchor="middle" font-size="8" fill="#999">256</text>
<line x1="433.5" y1="60" x2="433.5" y2="198" stroke="#f4f4f4"/>
<text x="433.5" y="209" text-anchor="middle" font-size="8" fill="#999">512</text>
<line x1="459.8" y1="60" x2="459.8" y2="198" stroke="#f4f4f4"/>
<text x="459.8" y="209" text-anchor="middle" font-size="8" fill="#999">1k</text>
<line x1="486.0" y1="60" x2="486.0" y2="198" stroke="#f4f4f4"/>
<text x="486.0" y="209" text-anchor="middle" font-size="8" fill="#999">2k</text>
<rect x="506" y="60" width="210" height="138" fill="none" stroke="#e2e2e2"/>
<line x1="506" y1="143.6850755295242" x2="716" y2="143.6850755295242" stroke="#d33" stroke-dasharray="4 3"/>
<text x="502" y="201.0" text-anchor="end" font-size="9" fill="#999">0.5×</text>
<text x="502" y="146.6850755295242" text-anchor="end" font-size="9" fill="#999">1.0×</text>
<polygon points="506.0,82.5 552.7,66.0 599.3,111.3 622.7,132.9 646.0,135.4 669.3,136.0 692.7,137.4 716.0,139.1 716.0,140.1 692.7,140.0 669.3,136.2 646.0,136.1 622.7,133.5 599.3,112.2 552.7,69.8 506.0,102.5" fill="#d62728" opacity="0.11"/>
<polyline points="506.0,91.5 552.7,67.6 599.3,111.6 622.7,133.2 646.0,135.7 669.3,136.1 692.7,138.0 716.0,139.9" fill="none" stroke="#d62728" stroke-width="1.6"/>
<circle cx="506.0" cy="91.5" r="2" fill="#d62728"/>
<circle cx="552.7" cy="67.6" r="2" fill="#d62728"/>
<circle cx="599.3" cy="111.6" r="2" fill="#d62728"/>
<circle cx="622.7" cy="133.2" r="2" fill="#d62728"/>
<circle cx="646.0" cy="135.7" r="2" fill="#d62728"/>
<circle cx="669.3" cy="136.1" r="2" fill="#d62728"/>
<circle cx="692.7" cy="138.0" r="2" fill="#d62728"/>
<circle cx="716.0" cy="139.9" r="2" fill="#d62728"/>
<polygon points="506.0,103.7 552.7,90.2 599.3,107.4 622.7,114.8 646.0,123.9 669.3,125.8 692.7,130.3 716.0,133.2 716.0,133.7 692.7,131.6 669.3,127.0 646.0,124.6 622.7,116.5 599.3,109.0 552.7,93.6 506.0,108.9" fill="#2ca02c" opacity="0.11"/>
<polyline points="506.0,104.5 552.7,92.0 599.3,107.8 622.7,115.3 646.0,124.1 669.3,126.4 692.7,130.6 716.0,133.5" fill="none" stroke="#2ca02c" stroke-width="1.6"/>
<circle cx="506.0" cy="104.5" r="2" fill="#2ca02c"/>
<circle cx="552.7" cy="92.0" r="2" fill="#2ca02c"/>
<circle cx="599.3" cy="107.8" r="2" fill="#2ca02c"/>
<circle cx="622.7" cy="115.3" r="2" fill="#2ca02c"/>
<circle cx="646.0" cy="124.1" r="2" fill="#2ca02c"/>
<circle cx="669.3" cy="126.4" r="2" fill="#2ca02c"/>
<circle cx="692.7" cy="130.6" r="2" fill="#2ca02c"/>
<circle cx="716.0" cy="133.5" r="2" fill="#2ca02c"/>
<polygon points="506.0,96.2 552.7,85.5 599.3,104.4 622.7,113.9 646.0,122.9 669.3,129.0 692.7,136.1 716.0,141.8 716.0,142.9 692.7,137.1 669.3,129.8 646.0,123.8 622.7,116.7 599.3,105.3 552.7,87.4 506.0,102.0" fill="#1f77b4" opacity="0.11"/>
<polyline points="506.0,99.1 552.7,86.1 599.3,104.9 622.7,114.8 646.0,123.3 669.3,129.6 692.7,136.5 716.0,142.2" fill="none" stroke="#1f77b4" stroke-width="1.6"/>
<circle cx="506.0" cy="99.1" r="2" fill="#1f77b4"/>
<circle cx="552.7" cy="86.1" r="2" fill="#1f77b4"/>
<circle cx="599.3" cy="104.9" r="2" fill="#1f77b4"/>
<circle cx="622.7" cy="114.8" r="2" fill="#1f77b4"/>
<circle cx="646.0" cy="123.3" r="2" fill="#1f77b4"/>
<circle cx="669.3" cy="129.6" r="2" fill="#1f77b4"/>
<circle cx="692.7" cy="136.5" r="2" fill="#1f77b4"/>
<circle cx="716.0" cy="142.2" r="2" fill="#1f77b4"/>
<text x="611.0" y="55" text-anchor="middle" font-size="12" font-weight="bold">getrf</text>
<line x1="506.0" y1="60" x2="506.0" y2="198" stroke="#f4f4f4"/>
<text x="506.0" y="209" text-anchor="middle" font-size="8" fill="#999">8</text>
<line x1="552.7" y1="60" x2="552.7" y2="198" stroke="#f4f4f4"/>
<text x="552.7" y="209" text-anchor="middle" font-size="8" fill="#999">32</text>
<line x1="599.3" y1="60" x2="599.3" y2="198" stroke="#f4f4f4"/>
<text x="599.3" y="209" text-anchor="middle" font-size="8" fill="#999">128</text>
<line x1="622.7" y1="60" x2="622.7" y2="198" stroke="#f4f4f4"/>
<text x="622.7" y="209" text-anchor="middle" font-size="8" fill="#999">256</text>
<line x1="646.0" y1="60" x2="646.0" y2="198" stroke="#f4f4f4"/>
<text x="646.0" y="209" text-anchor="middle" font-size="8" fill="#999">512</text>
<line x1="669.3" y1="60" x2="669.3" y2="198" stroke="#f4f4f4"/>
<text x="669.3" y="209" text-anchor="middle" font-size="8" fill="#999">1k</text>
<line x1="692.7" y1="60" x2="692.7" y2="198" stroke="#f4f4f4"/>
<text x="692.7" y="209" text-anchor="middle" font-size="8" fill="#999">2k</text>
<line x1="716.0" y1="60" x2="716.0" y2="198" stroke="#f4f4f4"/>
<text x="716.0" y="209" text-anchor="middle" font-size="8" fill="#999">4k</text>
<rect x="736" y="60" width="210" height="138" fill="none" stroke="#e2e2e2"/>
<line x1="736" y1="157.17878051051306" x2="946" y2="157.17878051051306" stroke="#d33" stroke-dasharray="4 3"/>
<text x="732" y="201.0" text-anchor="end" font-size="9" fill="#999">0.5×</text>
<text x="732" y="160.17878051051306" text-anchor="end" font-size="9" fill="#999">1.0×</text>
<polygon points="736.0,95.8 782.7,116.9 829.3,131.4 852.7,143.5 876.0,138.2 899.3,141.7 922.7,144.7 946.0,144.8 946.0,146.5 922.7,144.9 899.3,141.8 876.0,138.5 852.7,143.9 829.3,132.1 782.7,129.3 736.0,97.9" fill="#d62728" opacity="0.11"/>
<polyline points="736.0,97.4 782.7,129.0 829.3,131.9 852.7,143.7 876.0,138.4 899.3,141.7 922.7,144.8 946.0,144.8" fill="none" stroke="#d62728" stroke-width="1.6"/>
<circle cx="736.0" cy="97.4" r="2" fill="#d62728"/>
<circle cx="782.7" cy="129.0" r="2" fill="#d62728"/>
<circle cx="829.3" cy="131.9" r="2" fill="#d62728"/>
<circle cx="852.7" cy="143.7" r="2" fill="#d62728"/>
<circle cx="876.0" cy="138.4" r="2" fill="#d62728"/>
<circle cx="899.3" cy="141.7" r="2" fill="#d62728"/>
<circle cx="922.7" cy="144.8" r="2" fill="#d62728"/>
<circle cx="946.0" cy="144.8" r="2" fill="#d62728"/>
<polygon points="736.0,105.2 782.7,128.2 829.3,128.5 852.7,131.5 876.0,131.6 899.3,143.6 922.7,154.8 946.0,157.0 946.0,157.4 922.7,155.3 899.3,144.5 876.0,132.0 852.7,131.9 829.3,129.0 782.7,135.4 736.0,111.4" fill="#2ca02c" opacity="0.11"/>
<polyline points="736.0,110.3 782.7,134.6 829.3,128.8 852.7,131.7 876.0,131.8 899.3,143.9 922.7,155.0 946.0,157.1" fill="none" stroke="#2ca02c" stroke-width="1.6"/>
<circle cx="736.0" cy="110.3" r="2" fill="#2ca02c"/>
<circle cx="782.7" cy="134.6" r="2" fill="#2ca02c"/>
<circle cx="829.3" cy="128.8" r="2" fill="#2ca02c"/>
<circle cx="852.7" cy="131.7" r="2" fill="#2ca02c"/>
<circle cx="876.0" cy="131.8" r="2" fill="#2ca02c"/>
<circle cx="899.3" cy="143.9" r="2" fill="#2ca02c"/>
<circle cx="922.7" cy="155.0" r="2" fill="#2ca02c"/>
<circle cx="946.0" cy="157.1" r="2" fill="#2ca02c"/>
<polygon points="736.0,64.5 782.7,130.6 829.3,124.4 852.7,130.5 876.0,121.5 899.3,136.7 922.7,140.6 946.0,149.7 946.0,151.0 922.7,145.8 899.3,137.4 876.0,122.7 852.7,131.5 829.3,124.9 782.7,136.4 736.0,105.0" fill="#1f77b4" opacity="0.11"/>
<polyline points="736.0,103.9 782.7,136.1 829.3,124.6 852.7,131.0 876.0,121.8 899.3,137.0 922.7,144.6 946.0,150.2" fill="none" stroke="#1f77b4" stroke-width="1.6"/>
<circle cx="736.0" cy="103.9" r="2" fill="#1f77b4"/>
<circle cx="782.7" cy="136.1" r="2" fill="#1f77b4"/>
<circle cx="829.3" cy="124.6" r="2" fill="#1f77b4"/>
<circle cx="852.7" cy="131.0" r="2" fill="#1f77b4"/>
<circle cx="876.0" cy="121.8" r="2" fill="#1f77b4"/>
<circle cx="899.3" cy="137.0" r="2" fill="#1f77b4"/>
<circle cx="922.7" cy="144.6" r="2" fill="#1f77b4"/>
<circle cx="946.0" cy="150.2" r="2" fill="#1f77b4"/>
<text x="841.0" y="55" text-anchor="middle" font-size="12" font-weight="bold">geqrf</text>
<line x1="736.0" y1="60" x2="736.0" y2="198" stroke="#f4f4f4"/>
<text x="736.0" y="209" text-anchor="middle" font-size="8" fill="#999">8</text>
<line x1="782.7" y1="60" x2="782.7" y2="198" stroke="#f4f4f4"/>
<text x="782.7" y="209" text-anchor="middle" font-size="8" fill="#999">32</text>
<line x1="829.3" y1="60" x2="829.3" y2="198" stroke="#f4f4f4"/>
<text x="829.3" y="209" text-anchor="middle" font-size="8" fill="#999">128</text>
<line x1="852.7" y1="60" x2="852.7" y2="198" stroke="#f4f4f4"/>
<text x="852.7" y="209" text-anchor="middle" font-size="8" fill="#999">256</text>
<line x1="876.0" y1="60" x2="876.0" y2="198" stroke="#f4f4f4"/>
<text x="876.0" y="209" text-anchor="middle" font-size="8" fill="#999">512</text>
<line x1="899.3" y1="60" x2="899.3" y2="198" stroke="#f4f4f4"/>
<text x="899.3" y="209" text-anchor="middle" font-size="8" fill="#999">1k</text>
<line x1="922.7" y1="60" x2="922.7" y2="198" stroke="#f4f4f4"/>
<text x="922.7" y="209" text-anchor="middle" font-size="8" fill="#999">2k</text>
<line x1="946.0" y1="60" x2="946.0" y2="198" stroke="#f4f4f4"/>
<text x="946.0" y="209" text-anchor="middle" font-size="8" fill="#999">4k</text>
</svg>
