<svg xmlns="http://www.w3.org/2000/svg" width="900" height="460" font-family="sans-serif">
<rect width="900" height="460" fill="white"/>
<text x="450.0" y="28" text-anchor="middle" font-size="18" font-weight="bold">Complex LAPACK: PureBLAS / OpenBLAS (AVX2, 1 thread, ComplexF64)</text>
<line x1="62" y1="400.0" x2="768" y2="400.0" stroke="#eee"/>
<text x="54" y="404.0" text-anchor="end" font-size="11" fill="#666">0.5×</text>
<line x1="62" y1="314.1867913034102" x2="768" y2="314.1867913034102" stroke="#eee"/>
<text x="54" y="318.1867913034102" text-anchor="end" font-size="11" fill="#666">0.7×</text>
<line x1="62" y1="223.2211243930804" x2="768" y2="223.2211243930804" stroke="#eee"/>
<text x="54" y="227.2211243930804" text-anchor="end" font-size="11" fill="#666">1.0×</text>
<line x1="62" y1="119.81211124338252" x2="768" y2="119.81211124338252" stroke="#eee"/>
<text x="54" y="123.81211124338252" text-anchor="end" font-size="11" fill="#666">1.5×</text>
<line x1="62.0" y1="50" x2="62.0" y2="400" stroke="#f4f4f4"/>
<text x="62.0" y="418" text-anchor="middle" font-size="11" fill="#444">8</text>
<line x1="238.5" y1="50" x2="238.5" y2="400" stroke="#f4f4f4"/>
<text x="238.5" y="418" text-anchor="middle" font-size="11" fill="#444">32</text>
<line x1="415.0" y1="50" x2="415.0" y2="400" stroke="#f4f4f4"/>
<text x="415.0" y="418" text-anchor="middle" font-size="11" fill="#444">128</text>
<line x1="503.25" y1="50" x2="503.25" y2="400" stroke="#f4f4f4"/>
<text x="503.25" y="418" text-anchor="middle" font-size="11" fill="#444">256</text>
<line x1="591.5" y1="50" x2="591.5" y2="400" stroke="#f4f4f4"/>
<text x="591.5" y="418" text-anchor="middle" font-size="11" fill="#444">512</text>
<line x1="679.75" y1="50" x2="679.75" y2="400" stroke="#f4f4f4"/>
<text x="679.75" y="418" text-anchor="middle" font-size="11" fill="#444">1024</text>
<line x1="768.0" y1="50" x2="768.0" y2="400" stroke="#f4f4f4"/>
<text x="768.0" y="418" text-anchor="middle" font-size="11" fill="#444">2048</text>
<line x1="62" y1="223.2211243930804" x2="768" y2="223.2211243930804" stroke="#888"/>
<line x1="62" y1="233.6322845243138" x2="768" y2="233.6322845243138" stroke="#d33" stroke-width="1.5" stroke-dasharray="6 4"/>
<text x="66" y="228.6322845243138" font-size="11" fill="#d33">0.96× gate</text>
<polygon points="62.0,106.1 238.5,176.1 415.0,216.1 503.2,222.2 591.5,218.5 679.8,207.0 768.0,208.4 768.0,209.0 679.8,210.1 591.5,218.9 503.2,222.6 415.0,217.4 238.5,177.1 62.0,117.5" fill="#1f77b4" opacity="0.14" stroke="none"/>
<polyline points="62.0,109.8 238.5,176.4 415.0,216.8 503.2,222.5 591.5,218.8 679.8,207.6 768.0,208.8" fill="none" stroke="#1f77b4" stroke-width="2"/>
<circle cx="62.0" cy="109.8" r="3" fill="#1f77b4"/>
<circle cx="238.5" cy="176.4" r="3" fill="#1f77b4"/>
<circle cx="415.0" cy="216.8" r="3" fill="#1f77b4"/>
<circle cx="503.2" cy="222.5" r="3" fill="#1f77b4"/>
<circle cx="591.5" cy="218.8" r="3" fill="#1f77b4"/>
<circle cx="679.8" cy="207.6" r="3" fill="#1f77b4"/>
<circle cx="768.0" cy="208.8" r="3" fill="#1f77b4"/>
<line x1="782" y1="56" x2="802" y2="56" stroke="#1f77b4" stroke-width="3"/>
<text x="806" y="60" font-size="12">zpotrf</text>
<polygon points="62.0,198.3 238.5,336.1 415.0,342.1 503.2,310.7 591.5,284.6 679.8,289.0 768.0,295.3 768.0,295.9 679.8,290.6 591.5,285.5 503.2,312.1 415.0,344.4 238.5,338.5 62.0,202.2" fill="#d62728" opacity="0.14" stroke="none"/>
<polyline points="62.0,200.8 238.5,338.2 415.0,343.6 503.2,311.3 591.5,285.1 679.8,289.5 768.0,295.7" fill="none" stroke="#d62728" stroke-width="2"/>
<circle cx="62.0" cy="200.8" r="3" fill="#d62728"/>
<circle cx="238.5" cy="338.2" r="3" fill="#d62728"/>
<circle cx="415.0" cy="343.6" r="3" fill="#d62728"/>
<circle cx="503.2" cy="311.3" r="3" fill="#d62728"/>
<circle cx="591.5" cy="285.1" r="3" fill="#d62728"/>
<circle cx="679.8" cy="289.5" r="3" fill="#d62728"/>
<circle cx="768.0" cy="295.7" r="3" fill="#d62728"/>
<line x1="782" y1="74" x2="802" y2="74" stroke="#d62728" stroke-width="3"/>
<text x="806" y="78" font-size="12">zgeqrf</text>
<polygon points="62.0,156.2 238.5,210.0 415.0,277.0 503.2,282.1 591.5,256.7 679.8,275.4 768.0,281.1 768.0,283.3 679.8,277.2 591.5,257.0 503.2,282.6 415.0,278.1 238.5,210.7 62.0,157.4" fill="#2ca02c" opacity="0.14" stroke="none"/>
<polyline points="62.0,156.7 238.5,210.1 415.0,277.5 503.2,282.4 591.5,256.9 679.8,276.7 768.0,282.1" fill="none" stroke="#2ca02c" stroke-width="2"/>
<circle cx="62.0" cy="156.7" r="3" fill="#2ca02c"/>
<circle cx="238.5" cy="210.1" r="3" fill="#2ca02c"/>
<circle cx="415.0" cy="277.5" r="3" fill="#2ca02c"/>
<circle cx="503.2" cy="282.4" r="3" fill="#2ca02c"/>
<circle cx="591.5" cy="256.9" r="3" fill="#2ca02c"/>
<circle cx="679.8" cy="276.7" r="3" fill="#2ca02c"/>
<circle cx="768.0" cy="282.1" r="3" fill="#2ca02c"/>
<line x1="782" y1="92" x2="802" y2="92" stroke="#2ca02c" stroke-width="3"/>
<text x="806" y="96" font-size="12">zgetrf</text>
<polygon points="62.0,85.2 238.5,242.2 415.0,400.0 503.2,400.0 591.5,400.0 679.8,400.0 768.0,400.0 768.0,400.0 679.8,400.0 591.5,400.0 503.2,400.0 415.0,400.0 238.5,244.2 62.0,85.7" fill="#9467bd" opacity="0.14" stroke="none"/>
<polyline points="62.0,85.6 238.5,242.4 415.0,400.0 503.2,400.0 591.5,400.0 679.8,400.0 768.0,400.0" fill="none" stroke="#9467bd" stroke-width="2"/>
<circle cx="62.0" cy="85.6" r="3" fill="#9467bd"/>
<circle cx="238.5" cy="242.4" r="3" fill="#9467bd"/>
<circle cx="415.0" cy="400.0" r="3" fill="#9467bd"/>
<circle cx="503.2" cy="400.0" r="3" fill="#9467bd"/>
<circle cx="591.5" cy="400.0" r="3" fill="#9467bd"/>
<circle cx="679.8" cy="400.0" r="3" fill="#9467bd"/>
<circle cx="768.0" cy="400.0" r="3" fill="#9467bd"/>
<line x1="782" y1="110" x2="802" y2="110" stroke="#9467bd" stroke-width="3"/>
<text x="806" y="114" font-size="12">zgesvd</text>
<text x="415.0" y="450" text-anchor="middle" font-size="11" fill="#666">matrix size n (log) · y = median ratio (log) · dashed = the 0.96× gate</text>
</svg>
