<svg xmlns="http://www.w3.org/2000/svg" width="900" height="460" font-family="sans-serif">
<rect width="900" height="460" fill="white"/>
<text x="450.0" y="28" text-anchor="middle" font-size="18" font-weight="bold">LAPACK: PureBLAS / OpenBLAS (AVX2, 1 thread, Float64)</text>
<line x1="62" y1="400.0" x2="768" y2="400.0" stroke="#eee"/>
<text x="54" y="404.0" text-anchor="end" font-size="11" fill="#666">0.5×</text>
<line x1="62" y1="337.09651219469197" x2="768" y2="337.09651219469197" stroke="#eee"/>
<text x="54" y="341.09651219469197" text-anchor="end" font-size="11" fill="#666">0.7×</text>
<line x1="62" y1="270.4161280660999" x2="768" y2="270.4161280660999" stroke="#eee"/>
<text x="54" y="274.4161280660999" text-anchor="end" font-size="11" fill="#666">1.0×</text>
<line x1="62" y1="194.61442228651566" x2="768" y2="194.61442228651566" stroke="#eee"/>
<text x="54" y="198.61442228651566" text-anchor="end" font-size="11" fill="#666">1.5×</text>
<line x1="62" y1="140.8322561321998" x2="768" y2="140.8322561321998" stroke="#eee"/>
<text x="54" y="144.8322561321998" text-anchor="end" font-size="11" fill="#666">2.0×</text>
<line x1="62" y1="65.0305503526155" x2="768" y2="65.0305503526155" stroke="#eee"/>
<text x="54" y="69.0305503526155" text-anchor="end" font-size="11" fill="#666">3.0×</text>
<line x1="62.0" y1="50" x2="62.0" y2="400" stroke="#f4f4f4"/>
<text x="62.0" y="418" text-anchor="middle" font-size="11" fill="#444">8</text>
<line x1="238.5" y1="50" x2="238.5" y2="400" stroke="#f4f4f4"/>
<text x="238.5" y="418" text-anchor="middle" font-size="11" fill="#444">32</text>
<line x1="415.0" y1="50" x2="415.0" y2="400" stroke="#f4f4f4"/>
<text x="415.0" y="418" text-anchor="middle" font-size="11" fill="#444">128</text>
<line x1="503.25" y1="50" x2="503.25" y2="400" stroke="#f4f4f4"/>
<text x="503.25" y="418" text-anchor="middle" font-size="11" fill="#444">256</text>
<line x1="591.5" y1="50" x2="591.5" y2="400" stroke="#f4f4f4"/>
<text x="591.5" y="418" text-anchor="middle" font-size="11" fill="#444">512</text>
<line x1="679.75" y1="50" x2="679.75" y2="400" stroke="#f4f4f4"/>
<text x="679.75" y="418" text-anchor="middle" font-size="11" fill="#444">1024</text>
<line x1="768.0" y1="50" x2="768.0" y2="400" stroke="#f4f4f4"/>
<text x="768.0" y="418" text-anchor="middle" font-size="11" fill="#444">2048</text>
<line x1="62" y1="270.4161280660999" x2="768" y2="270.4161280660999" stroke="#888"/>
<line x1="62" y1="278.04780032613246" x2="768" y2="278.04780032613246" stroke="#d33" stroke-width="1.5" stroke-dasharray="6 4"/>
<text x="66" y="273.04780032613246" font-size="11" fill="#d33">0.96× gate</text>
<polygon points="62.0,190.0 238.5,191.0 415.0,266.7 503.2,259.6 591.5,256.4 679.8,258.8 768.0,261.0 768.0,262.4 679.8,259.1 591.5,257.2 503.2,259.9 415.0,267.2 238.5,192.0 62.0,194.6" fill="#1f77b4" opacity="0.14" stroke="none"/>
<polyline points="62.0,192.8 238.5,191.1 415.0,266.8 503.2,259.8 591.5,256.6 679.8,259.0 768.0,261.7" fill="none" stroke="#1f77b4" stroke-width="2"/>
<circle cx="62.0" cy="192.8" r="3" fill="#1f77b4"/>
<circle cx="238.5" cy="191.1" r="3" fill="#1f77b4"/>
<circle cx="415.0" cy="266.8" r="3" fill="#1f77b4"/>
<circle cx="503.2" cy="259.8" r="3" fill="#1f77b4"/>
<circle cx="591.5" cy="256.6" r="3" fill="#1f77b4"/>
<circle cx="679.8" cy="259.0" r="3" fill="#1f77b4"/>
<circle cx="768.0" cy="261.7" r="3" fill="#1f77b4"/>
<line x1="782" y1="56" x2="802" y2="56" stroke="#1f77b4" stroke-width="3"/>
<text x="806" y="60" font-size="12">potrf</text>
<polygon points="62.0,75.6 238.5,181.3 415.0,221.6 503.2,252.7 591.5,229.7 679.8,234.7 768.0,235.0 768.0,241.2 679.8,235.1 591.5,230.5 503.2,253.7 415.0,221.8 238.5,181.9 62.0,76.6" fill="#d62728" opacity="0.14" stroke="none"/>
<polyline points="62.0,76.1 238.5,181.7 415.0,221.7 503.2,253.3 591.5,229.8 679.8,234.9 768.0,235.4" fill="none" stroke="#d62728" stroke-width="2"/>
<circle cx="62.0" cy="76.1" r="3" fill="#d62728"/>
<circle cx="238.5" cy="181.7" r="3" fill="#d62728"/>
<circle cx="415.0" cy="221.7" r="3" fill="#d62728"/>
<circle cx="503.2" cy="253.3" r="3" fill="#d62728"/>
<circle cx="591.5" cy="229.8" r="3" fill="#d62728"/>
<circle cx="679.8" cy="234.9" r="3" fill="#d62728"/>
<circle cx="768.0" cy="235.4" r="3" fill="#d62728"/>
<line x1="782" y1="74" x2="802" y2="74" stroke="#d62728" stroke-width="3"/>
<text x="806" y="78" font-size="12">geqrf</text>
<polygon points="62.0,118.4 238.5,122.9 415.0,234.0 503.2,272.7 591.5,263.4 679.8,261.6 768.0,265.4 768.0,268.9 679.8,261.8 591.5,264.0 503.2,273.0 415.0,234.2 238.5,124.6 62.0,119.5" fill="#2ca02c" opacity="0.14" stroke="none"/>
<polyline points="62.0,118.5 238.5,123.4 415.0,234.1 503.2,272.8 591.5,263.7 679.8,261.7 768.0,265.8" fill="none" stroke="#2ca02c" stroke-width="2"/>
<circle cx="62.0" cy="118.5" r="3" fill="#2ca02c"/>
<circle cx="238.5" cy="123.4" r="3" fill="#2ca02c"/>
<circle cx="415.0" cy="234.1" r="3" fill="#2ca02c"/>
<circle cx="503.2" cy="272.8" r="3" fill="#2ca02c"/>
<circle cx="591.5" cy="263.7" r="3" fill="#2ca02c"/>
<circle cx="679.8" cy="261.7" r="3" fill="#2ca02c"/>
<circle cx="768.0" cy="265.8" r="3" fill="#2ca02c"/>
<line x1="782" y1="92" x2="802" y2="92" stroke="#2ca02c" stroke-width="3"/>
<text x="806" y="96" font-size="12">getrf</text>
<polygon points="62.0,173.4 238.5,233.1 415.0,253.6 503.2,227.4 591.5,219.7 679.8,233.1 768.0,246.3 768.0,247.3 679.8,233.6 591.5,220.4 503.2,228.1 415.0,253.9 238.5,234.3 62.0,174.8" fill="#9467bd" opacity="0.14" stroke="none"/>
<polyline points="62.0,174.2 238.5,233.8 415.0,253.7 503.2,227.8 591.5,219.8 679.8,233.4 768.0,246.8" fill="none" stroke="#9467bd" stroke-width="2"/>
<circle cx="62.0" cy="174.2" r="3" fill="#9467bd"/>
<circle cx="238.5" cy="233.8" r="3" fill="#9467bd"/>
<circle cx="415.0" cy="253.7" r="3" fill="#9467bd"/>
<circle cx="503.2" cy="227.8" r="3" fill="#9467bd"/>
<circle cx="591.5" cy="219.8" r="3" fill="#9467bd"/>
<circle cx="679.8" cy="233.4" r="3" fill="#9467bd"/>
<circle cx="768.0" cy="246.8" r="3" fill="#9467bd"/>
<line x1="782" y1="110" x2="802" y2="110" stroke="#9467bd" stroke-width="3"/>
<text x="806" y="114" font-size="12">gesvd</text>
<text x="415.0" y="450" text-anchor="middle" font-size="11" fill="#666">matrix size n (log) · y = median ratio (log) · dashed = the 0.96× gate</text>
</svg>
