<svg xmlns="http://www.w3.org/2000/svg" width="900" height="460" font-family="sans-serif">
<rect width="900" height="460" fill="white"/>
<text x="450.0" y="28" text-anchor="middle" font-size="18" font-weight="bold">LAPACK: PureBLAS / OpenBLAS (AVX-512, 1 thread, Float64)</text>
<line x1="62" y1="400.0" x2="768" y2="400.0" stroke="#eee"/>
<text x="54" y="404.0" text-anchor="end" font-size="11" fill="#666">0.5×</text>
<line x1="62" y1="332.7534479073968" x2="768" y2="332.7534479073968" stroke="#eee"/>
<text x="54" y="336.7534479073968" text-anchor="end" font-size="11" fill="#666">0.7×</text>
<line x1="62" y1="261.4692301111337" x2="768" y2="261.4692301111337" stroke="#eee"/>
<text x="54" y="265.4692301111337" text-anchor="end" font-size="11" fill="#666">1.0×</text>
<line x1="62" y1="180.4339245301154" x2="768" y2="180.4339245301154" stroke="#eee"/>
<text x="54" y="184.4339245301154" text-anchor="end" font-size="11" fill="#666">1.5×</text>
<line x1="62" y1="122.9384602222674" x2="768" y2="122.9384602222674" stroke="#eee"/>
<text x="54" y="126.9384602222674" text-anchor="end" font-size="11" fill="#666">2.0×</text>
<line x1="62.0" y1="50" x2="62.0" y2="400" stroke="#f4f4f4"/>
<text x="62.0" y="418" text-anchor="middle" font-size="11" fill="#444">8</text>
<line x1="238.5" y1="50" x2="238.5" y2="400" stroke="#f4f4f4"/>
<text x="238.5" y="418" text-anchor="middle" font-size="11" fill="#444">32</text>
<line x1="415.0" y1="50" x2="415.0" y2="400" stroke="#f4f4f4"/>
<text x="415.0" y="418" text-anchor="middle" font-size="11" fill="#444">128</text>
<line x1="503.25" y1="50" x2="503.25" y2="400" stroke="#f4f4f4"/>
<text x="503.25" y="418" text-anchor="middle" font-size="11" fill="#444">256</text>
<line x1="591.5" y1="50" x2="591.5" y2="400" stroke="#f4f4f4"/>
<text x="591.5" y="418" text-anchor="middle" font-size="11" fill="#444">512</text>
<line x1="679.75" y1="50" x2="679.75" y2="400" stroke="#f4f4f4"/>
<text x="679.75" y="418" text-anchor="middle" font-size="11" fill="#444">1024</text>
<line x1="768.0" y1="50" x2="768.0" y2="400" stroke="#f4f4f4"/>
<text x="768.0" y="418" text-anchor="middle" font-size="11" fill="#444">2048</text>
<line x1="62" y1="261.4692301111337" x2="768" y2="261.4692301111337" stroke="#888"/>
<line x1="62" y1="269.62781819732004" x2="768" y2="269.62781819732004" stroke="#d33" stroke-width="1.5" stroke-dasharray="6 4"/>
<text x="66" y="264.62781819732004" font-size="11" fill="#d33">0.96× gate</text>
<polygon points="62.0,143.2 238.5,194.8 415.0,189.5 503.2,194.2 591.5,198.2 679.8,222.8 768.0,238.2 768.0,238.7 679.8,224.7 591.5,209.7 503.2,201.6 415.0,197.2 238.5,198.3 62.0,151.1" fill="#1f77b4" opacity="0.14" stroke="none"/>
<polyline points="62.0,145.0 238.5,196.6 415.0,196.6 503.2,198.2 591.5,208.0 679.8,223.2 768.0,238.6" fill="none" stroke="#1f77b4" stroke-width="2"/>
<circle cx="62.0" cy="145.0" r="3" fill="#1f77b4"/>
<circle cx="238.5" cy="196.6" r="3" fill="#1f77b4"/>
<circle cx="415.0" cy="196.6" r="3" fill="#1f77b4"/>
<circle cx="503.2" cy="198.2" r="3" fill="#1f77b4"/>
<circle cx="591.5" cy="208.0" r="3" fill="#1f77b4"/>
<circle cx="679.8" cy="223.2" r="3" fill="#1f77b4"/>
<circle cx="768.0" cy="238.6" r="3" fill="#1f77b4"/>
<line x1="782" y1="56" x2="802" y2="56" stroke="#1f77b4" stroke-width="3"/>
<text x="806" y="60" font-size="12">potrf</text>
<polygon points="62.0,58.2 238.5,190.7 415.0,185.6 503.2,193.3 591.5,161.9 679.8,200.7 768.0,218.9 768.0,227.9 679.8,201.4 591.5,164.1 503.2,196.8 415.0,190.3 238.5,192.3 62.0,79.7" fill="#d62728" opacity="0.14" stroke="none"/>
<polyline points="62.0,77.9 238.5,192.1 415.0,186.6 503.2,194.0 591.5,162.1 679.8,201.2 768.0,227.8" fill="none" stroke="#d62728" stroke-width="2"/>
<circle cx="62.0" cy="77.9" r="3" fill="#d62728"/>
<circle cx="238.5" cy="192.1" r="3" fill="#d62728"/>
<circle cx="415.0" cy="186.6" r="3" fill="#d62728"/>
<circle cx="503.2" cy="194.0" r="3" fill="#d62728"/>
<circle cx="591.5" cy="162.1" r="3" fill="#d62728"/>
<circle cx="679.8" cy="201.2" r="3" fill="#d62728"/>
<circle cx="768.0" cy="227.8" r="3" fill="#d62728"/>
<line x1="782" y1="74" x2="802" y2="74" stroke="#d62728" stroke-width="3"/>
<text x="806" y="78" font-size="12">geqrf</text>
<polygon points="62.0,137.4 238.5,159.7 415.0,209.6 503.2,225.2 591.5,234.9 679.8,235.5 768.0,251.0 768.0,252.5 679.8,235.9 591.5,235.5 503.2,241.0 415.0,213.4 238.5,163.0 62.0,140.8" fill="#2ca02c" opacity="0.14" stroke="none"/>
<polyline points="62.0,138.3 238.5,161.3 415.0,212.2 503.2,237.0 591.5,235.2 679.8,235.7 768.0,251.8" fill="none" stroke="#2ca02c" stroke-width="2"/>
<circle cx="62.0" cy="138.3" r="3" fill="#2ca02c"/>
<circle cx="238.5" cy="161.3" r="3" fill="#2ca02c"/>
<circle cx="415.0" cy="212.2" r="3" fill="#2ca02c"/>
<circle cx="503.2" cy="237.0" r="3" fill="#2ca02c"/>
<circle cx="591.5" cy="235.2" r="3" fill="#2ca02c"/>
<circle cx="679.8" cy="235.7" r="3" fill="#2ca02c"/>
<circle cx="768.0" cy="251.8" r="3" fill="#2ca02c"/>
<line x1="782" y1="92" x2="802" y2="92" stroke="#2ca02c" stroke-width="3"/>
<text x="806" y="96" font-size="12">getrf</text>
<polygon points="62.0,161.7 238.5,196.6 415.0,252.8 503.2,204.8 591.5,197.4 679.8,207.5 768.0,231.0 768.0,236.7 679.8,210.5 591.5,198.5 503.2,206.4 415.0,253.0 238.5,209.2 62.0,162.2" fill="#9467bd" opacity="0.14" stroke="none"/>
<polyline points="62.0,162.0 238.5,209.0 415.0,252.9 503.2,205.8 591.5,197.6 679.8,209.9 768.0,233.9" fill="none" stroke="#9467bd" stroke-width="2"/>
<circle cx="62.0" cy="162.0" r="3" fill="#9467bd"/>
<circle cx="238.5" cy="209.0" r="3" fill="#9467bd"/>
<circle cx="415.0" cy="252.9" r="3" fill="#9467bd"/>
<circle cx="503.2" cy="205.8" r="3" fill="#9467bd"/>
<circle cx="591.5" cy="197.6" r="3" fill="#9467bd"/>
<circle cx="679.8" cy="209.9" r="3" fill="#9467bd"/>
<circle cx="768.0" cy="233.9" r="3" fill="#9467bd"/>
<line x1="782" y1="110" x2="802" y2="110" stroke="#9467bd" stroke-width="3"/>
<text x="806" y="114" font-size="12">gesvd</text>
<text x="415.0" y="450" text-anchor="middle" font-size="11" fill="#666">matrix size n (log) · y = median ratio (log) · dashed = the 0.96× gate</text>
</svg>
