<svg xmlns="http://www.w3.org/2000/svg" width="900" height="440" font-family="sans-serif">
<rect width="900" height="440" fill="white"/>
<text x="450.0" y="28" text-anchor="middle" font-size="18" font-weight="bold">Complex BLAS-2: PureBLAS / OpenBLAS (AVX-512, 1 thread, ComplexF64)</text>
<line x1="60" y1="358.0" x2="880" y2="358.0" stroke="#eee"/>
<text x="52" y="362.0" text-anchor="end" font-size="11" fill="#666">0×</text>
<line x1="60" y1="291.44483512675765" x2="880" y2="291.44483512675765" stroke="#eee"/>
<text x="52" y="295.44483512675765" text-anchor="end" font-size="11" fill="#666">0.5×</text>
<line x1="60" y1="224.88967025351525" x2="880" y2="224.88967025351525" stroke="#eee"/>
<text x="52" y="228.88967025351525" text-anchor="end" font-size="11" fill="#666">1×</text>
<line x1="60" y1="158.33450538027284" x2="880" y2="158.33450538027284" stroke="#eee"/>
<text x="52" y="162.33450538027284" text-anchor="end" font-size="11" fill="#666">1.5×</text>
<line x1="60" y1="224.88967025351525" x2="880" y2="224.88967025351525" stroke="#888" stroke-width="1"/>
<line x1="60" y1="230.21408344337462" x2="880" y2="230.21408344337462" stroke="#d33" stroke-width="1.5" stroke-dasharray="6 4"/>
<text x="880" y="225.21408344337462" text-anchor="end" font-size="11" fill="#d33">0.96× gate</text>
<polygon points="128.8,255.0 129.0,253.9 129.2,252.9 129.5,251.8 129.9,250.7 130.4,249.7 131.0,248.6 131.9,247.6 132.9,246.5 134.1,245.4 135.5,244.4 137.1,243.3 138.9,242.3 141.0,241.2 143.2,240.1 145.6,239.1 148.1,238.0 150.8,236.9 153.7,235.9 156.8,234.8 160.1,233.8 163.5,232.7 167.2,231.6 170.8,230.6 174.5,229.5 177.9,228.5 181.0,227.4 183.4,226.3 185.0,225.3 185.7,224.2 185.4,223.2 183.9,222.1 181.4,221.0 178.0,220.0 173.8,218.9 169.1,217.9 164.1,216.8 159.1,215.7 154.2,214.7 149.7,213.6 145.6,212.6 142.2,211.5 139.3,210.4 137.0,209.4 135.2,208.3 133.9,207.2 133.0,206.2 132.3,205.1 132.0,204.1 131.9,203.0 132.1,201.9 132.5,200.9 133.2,199.8 134.0,198.8 135.1,197.7 136.4,196.6 137.8,195.6 139.1,194.5 140.4,193.5 141.5,192.4 142.3,191.3 142.6,190.3 142.5,189.2 142.0,188.2 141.0,187.1 139.8,186.0 138.3,185.0 136.7,183.9 135.2,182.9 133.7,181.8 132.5,180.7 131.4,179.7 125.3,179.7 124.2,180.7 122.9,181.8 121.5,182.9 119.9,183.9 118.4,185.0 116.9,186.0 115.6,187.1 114.7,188.2 114.2,189.2 114.1,190.3 114.4,191.3 115.2,192.4 116.2,193.5 117.5,194.5 118.9,195.6 120.3,196.6 121.5,197.7 122.6,198.8 123.5,199.8 124.1,200.9 124.6,201.9 124.7,203.0 124.6,204.1 124.3,205.1 123.7,206.2 122.8,207.2 121.4,208.3 119.7,209.4 117.4,210.4 114.5,211.5 111.0,212.6 107.0,213.6 102.5,214.7 97.6,215.7 92.6,216.8 87.5,217.9 82.8,218.9 78.6,220.0 75.2,221.0 72.7,222.1 71.3,223.2 70.9,224.2 71.6,225.3 73.3,226.3 75.7,227.4 78.8,228.5 82.2,229.5 85.8,230.6 89.5,231.6 93.1,232.7 96.6,233.8 99.9,234.8 102.9,235.9 105.8,236.9 108.5,238.0 111.1,239.1 113.5,240.1 115.7,241.2 117.7,242.3 119.6,243.3 121.2,244.4 122.6,245.4 123.8,246.5 124.8,247.6 125.6,248.6 126.3,249.7 126.8,250.7 127.2,251.8 127.5,252.9 127.7,253.9 127.9,255.0" fill="#d33" opacity="0.5" stroke="#d33" stroke-width="1"/>
<line x1="71.1" y1="223.4769933448995" x2="185.6" y2="223.4769933448995" stroke="#114" stroke-width="2"/>
<circle cx="128.33333333333331" cy="234.7281029235669" r="2.4" fill="#114"/>
<text x="128.33333333333331" y="181.17233092702958" text-anchor="middle" font-size="11">1.01</text>
<text x="128.33333333333331" y="376" text-anchor="middle" font-size="12">zgemvN</text>
<polygon points="266.9,242.1 267.6,241.1 268.4,240.2 269.3,239.2 270.6,238.2 272.1,237.2 273.9,236.2 276.1,235.3 278.7,234.3 281.6,233.3 284.9,232.3 288.6,231.4 292.5,230.4 296.6,229.4 300.8,228.4 305.0,227.4 308.9,226.5 312.6,225.5 315.8,224.5 318.5,223.5 320.5,222.5 321.8,221.6 322.4,220.6 322.3,219.6 321.5,218.6 320.2,217.6 318.3,216.7 316.1,215.7 313.6,214.7 310.8,213.7 308.0,212.8 305.2,211.8 302.3,210.8 299.6,209.8 296.9,208.8 294.3,207.9 291.8,206.9 289.5,205.9 287.3,204.9 285.3,203.9 283.6,203.0 282.2,202.0 281.1,201.0 280.3,200.0 279.9,199.0 279.9,198.1 280.2,197.1 280.9,196.1 281.8,195.1 283.0,194.1 284.3,193.2 285.6,192.2 287.0,191.2 288.3,190.2 289.5,189.3 290.5,188.3 291.2,187.3 291.5,186.3 291.6,185.3 291.2,184.4 290.5,183.4 289.5,182.4 288.2,181.4 286.5,180.4 284.7,179.5 282.7,178.5 280.6,177.5 278.6,176.5 276.5,175.5 274.6,174.6 272.9,173.6 271.3,172.6 258.7,172.6 257.1,173.6 255.4,174.6 253.5,175.5 251.4,176.5 249.4,177.5 247.3,178.5 245.3,179.5 243.5,180.4 241.8,181.4 240.5,182.4 239.5,183.4 238.8,184.4 238.4,185.3 238.5,186.3 238.8,187.3 239.5,188.3 240.5,189.3 241.7,190.2 243.0,191.2 244.4,192.2 245.7,193.2 247.0,194.1 248.2,195.1 249.1,196.1 249.8,197.1 250.1,198.1 250.1,199.0 249.7,200.0 248.9,201.0 247.8,202.0 246.4,203.0 244.7,203.9 242.7,204.9 240.5,205.9 238.2,206.9 235.7,207.9 233.1,208.8 230.4,209.8 227.7,210.8 224.8,211.8 222.0,212.8 219.2,213.7 216.4,214.7 213.9,215.7 211.7,216.7 209.8,217.6 208.5,218.6 207.7,219.6 207.6,220.6 208.2,221.6 209.5,222.5 211.5,223.5 214.2,224.5 217.4,225.5 221.1,226.5 225.0,227.4 229.2,228.4 233.4,229.4 237.5,230.4 241.4,231.4 245.1,232.3 248.4,233.3 251.3,234.3 253.9,235.3 256.1,236.2 257.9,237.2 259.4,238.2 260.7,239.2 261.6,240.2 262.4,241.1 263.1,242.1" fill="#2a8" opacity="0.5" stroke="#2a8" stroke-width="1"/>
<line x1="212.9" y1="216.13015737896725" x2="317.1" y2="216.13015737896725" stroke="#114" stroke-width="2"/>
<circle cx="265.0" cy="224.44670227057892" r="2.4" fill="#114"/>
<text x="265.0" y="173.55128349425274" text-anchor="middle" font-size="11">1.07</text>
<text x="265.0" y="376" text-anchor="middle" font-size="12">zgemvC</text>
<polygon points="401.8,258.4 401.9,257.0 402.0,255.6 402.1,254.3 402.2,252.9 402.4,251.5 402.5,250.1 402.5,248.8 402.5,247.4 402.4,246.0 402.3,244.7 402.2,243.3 402.1,241.9 402.1,240.5 402.2,239.2 402.3,237.8 402.6,236.4 403.0,235.0 403.5,233.7 404.2,232.3 405.2,230.9 406.5,229.5 408.1,228.2 410.1,226.8 412.4,225.4 414.8,224.0 417.3,222.7 419.6,221.3 421.9,219.9 424.1,218.6 426.5,217.2 429.3,215.8 432.9,214.4 437.3,213.1 442.3,211.7 447.6,210.3 452.6,208.9 456.5,207.6 458.8,206.2 459.1,204.8 457.4,203.4 453.9,202.1 449.1,200.7 443.5,199.3 437.6,197.9 431.8,196.6 426.5,195.2 421.8,193.8 418.0,192.5 415.0,191.1 412.9,189.7 411.5,188.3 410.8,187.0 410.7,185.6 410.9,184.2 411.3,182.8 411.8,181.5 412.1,180.1 412.3,178.7 412.1,177.3 411.6,176.0 410.8,174.6 409.8,173.2 408.6,171.8 407.3,170.5 406.1,169.1 404.9,167.7 404.0,166.4 403.2,165.0 402.6,163.6 402.3,162.2 402.0,160.9 401.3,160.9 401.1,162.2 400.7,163.6 400.1,165.0 399.4,166.4 398.4,167.7 397.3,169.1 396.0,170.5 394.8,171.8 393.5,173.2 392.5,174.6 391.7,176.0 391.2,177.3 391.1,178.7 391.2,180.1 391.6,181.5 392.0,182.8 392.4,184.2 392.7,185.6 392.5,187.0 391.8,188.3 390.5,189.7 388.3,191.1 385.3,192.5 381.5,193.8 376.9,195.2 371.6,196.6 365.8,197.9 359.9,199.3 354.2,200.7 349.4,202.1 346.0,203.4 344.3,204.8 344.6,206.2 346.8,207.6 350.8,208.9 355.7,210.3 361.0,211.7 366.1,213.1 370.4,214.4 374.0,215.8 376.8,217.2 379.2,218.6 381.4,219.9 383.7,221.3 386.1,222.7 388.5,224.0 391.0,225.4 393.2,226.8 395.2,228.2 396.8,229.5 398.1,230.9 399.1,232.3 399.8,233.7 400.4,235.0 400.8,236.4 401.0,237.8 401.2,239.2 401.2,240.5 401.2,241.9 401.1,243.3 401.0,244.7 400.9,246.0 400.9,247.4 400.9,248.8 400.9,250.1 401.0,251.5 401.1,252.9 401.2,254.3 401.3,255.6 401.5,257.0 401.5,258.4" fill="#2a8" opacity="0.5" stroke="#2a8" stroke-width="1"/>
<line x1="344.2" y1="205.58572648124303" x2="459.1" y2="205.58572648124303" stroke="#114" stroke-width="2"/>
<circle cx="401.66666666666663" cy="219.00439419848414" r="2.4" fill="#114"/>
<text x="401.66666666666663" y="164.5131232057834" text-anchor="middle" font-size="11">1.15</text>
<text x="401.66666666666663" y="376" text-anchor="middle" font-size="12">zgeru</text>
<polygon points="560.8,247.9 564.7,245.1 568.7,242.3 572.8,239.5 576.9,236.7 580.9,234.0 584.6,231.2 587.9,228.4 590.8,225.6 593.0,222.8 594.6,220.0 595.5,217.2 595.7,214.4 595.2,211.7 594.1,208.9 592.3,206.1 590.1,203.3 587.4,200.5 584.5,197.7 581.5,194.9 578.5,192.1 575.6,189.4 573.0,186.6 570.8,183.8 569.0,181.0 567.7,178.2 567.0,175.4 566.9,172.6 567.2,169.8 568.1,167.1 569.4,164.3 571.0,161.5 572.8,158.7 574.8,155.9 576.7,153.1 578.6,150.3 580.3,147.5 581.7,144.8 582.9,142.0 583.8,139.2 584.3,136.4 584.7,133.6 584.8,130.8 584.7,128.0 584.5,125.3 584.3,122.5 584.0,119.7 583.7,116.9 583.4,114.1 583.2,111.3 582.9,108.5 582.6,105.7 582.2,103.0 581.7,100.2 581.1,97.4 580.3,94.6 579.2,91.8 578.0,89.0 576.4,86.2 574.6,83.4 572.6,80.7 570.4,77.9 568.0,75.1 565.5,72.3 562.9,69.5 560.3,66.7 557.7,63.9 555.2,61.1 552.9,58.4 550.7,55.6 548.7,52.8 546.9,50.0 529.8,50.0 528.0,52.8 526.0,55.6 523.8,58.4 521.4,61.1 519.0,63.9 516.4,66.7 513.8,69.5 511.2,72.3 508.7,75.1 506.3,77.9 504.1,80.7 502.0,83.4 500.2,86.2 498.7,89.0 497.4,91.8 496.4,94.6 495.6,97.4 494.9,100.2 494.4,103.0 494.1,105.7 493.8,108.5 493.5,111.3 493.2,114.1 492.9,116.9 492.7,119.7 492.4,122.5 492.1,125.3 491.9,128.0 491.9,130.8 492.0,133.6 492.3,136.4 492.9,139.2 493.8,142.0 495.0,144.8 496.4,147.5 498.1,150.3 499.9,153.1 501.9,155.9 503.8,158.7 505.7,161.5 507.3,164.3 508.6,167.1 509.4,169.8 509.8,172.6 509.7,175.4 508.9,178.2 507.7,181.0 505.9,183.8 503.7,186.6 501.1,189.4 498.2,192.1 495.2,194.9 492.1,197.7 489.3,200.5 486.6,203.3 484.4,206.1 482.6,208.9 481.4,211.7 480.9,214.4 481.1,217.2 482.0,220.0 483.6,222.8 485.9,225.6 488.8,228.4 492.1,231.2 495.8,234.0 499.8,236.7 503.9,239.5 508.0,242.3 512.0,245.1 515.8,247.9" fill="#2a8" opacity="0.5" stroke="#2a8" stroke-width="1"/>
<line x1="495.7" y1="146.17841618348413" x2="581.0" y2="146.17841618348413" stroke="#114" stroke-width="2"/>
<circle cx="538.3333333333333" cy="226.395545756862" r="2.4" fill="#114"/>
<text x="538.3333333333333" y="61.433962264150935" text-anchor="middle" font-size="11">1.59</text>
<text x="538.3333333333333" y="376" text-anchor="middle" font-size="12">zhemv</text>
<polygon points="682.0,254.6 684.2,252.6 686.9,250.6 689.9,248.5 693.4,246.5 697.3,244.5 701.4,242.5 705.8,240.4 710.1,238.4 714.4,236.4 718.4,234.4 722.1,232.3 725.2,230.3 727.8,228.3 729.8,226.3 731.2,224.2 732.0,222.2 732.4,220.2 732.4,218.2 732.2,216.1 731.8,214.1 731.3,212.1 730.9,210.1 730.5,208.0 730.1,206.0 729.7,204.0 729.3,202.0 728.7,199.9 727.9,197.9 726.8,195.9 725.4,193.9 723.6,191.8 721.6,189.8 719.3,187.8 716.8,185.8 714.4,183.7 711.9,181.7 709.7,179.7 707.7,177.7 706.0,175.6 704.6,173.6 703.5,171.6 702.7,169.6 702.1,167.5 701.7,165.5 701.3,163.5 701.0,161.5 700.8,159.4 700.5,157.4 700.2,155.4 700.0,153.4 699.8,151.3 699.6,149.3 699.5,147.3 699.4,145.3 699.2,143.2 698.9,141.2 698.5,139.2 697.9,137.2 697.0,135.1 695.9,133.1 694.5,131.1 692.9,129.1 691.2,127.0 689.3,125.0 687.4,123.0 685.6,121.0 683.8,118.9 682.2,116.9 680.7,114.9 679.5,112.9 678.4,110.8 671.6,110.8 670.5,112.9 669.3,114.9 667.8,116.9 666.2,118.9 664.4,121.0 662.6,123.0 660.7,125.0 658.8,127.0 657.1,129.1 655.5,131.1 654.1,133.1 653.0,135.1 652.1,137.2 651.5,139.2 651.1,141.2 650.8,143.2 650.6,145.3 650.5,147.3 650.4,149.3 650.2,151.3 650.0,153.4 649.8,155.4 649.5,157.4 649.2,159.4 649.0,161.5 648.7,163.5 648.3,165.5 647.9,167.5 647.3,169.6 646.5,171.6 645.4,173.6 644.0,175.6 642.3,177.7 640.3,179.7 638.1,181.7 635.6,183.7 633.2,185.8 630.7,187.8 628.4,189.8 626.4,191.8 624.6,193.9 623.2,195.9 622.1,197.9 621.3,199.9 620.7,202.0 620.3,204.0 619.9,206.0 619.5,208.0 619.1,210.1 618.7,212.1 618.2,214.1 617.8,216.1 617.6,218.2 617.6,220.2 618.0,222.2 618.8,224.2 620.2,226.3 622.2,228.3 624.8,230.3 627.9,232.3 631.6,234.4 635.6,236.4 639.9,238.4 644.2,240.4 648.6,242.5 652.7,244.5 656.6,246.5 660.1,248.5 663.1,250.6 665.8,252.6 668.0,254.6" fill="#d33" opacity="0.5" stroke="#d33" stroke-width="1"/>
<line x1="623.1" y1="196.09429640472118" x2="726.9" y2="196.09429640472118" stroke="#114" stroke-width="2"/>
<circle cx="675.0" cy="230.77979996007525" r="2.4" fill="#114"/>
<text x="675.0" y="118.96535656802838" text-anchor="middle" font-size="11">1.22</text>
<text x="675.0" y="376" text-anchor="middle" font-size="12">ztrmv</text>
<polygon points="812.5,261.7 812.8,260.5 813.3,259.4 814.0,258.2 814.9,257.1 816.2,255.9 817.7,254.8 819.7,253.6 822.1,252.5 825.0,251.3 828.3,250.2 832.0,249.0 835.9,247.9 840.1,246.7 844.2,245.6 848.1,244.4 851.8,243.3 855.1,242.1 857.9,241.0 860.3,239.8 862.3,238.7 863.9,237.5 865.3,236.4 866.3,235.2 867.2,234.1 868.0,232.9 868.5,231.8 868.9,230.6 869.1,229.5 868.9,228.3 868.5,227.1 867.7,226.0 866.5,224.8 864.8,223.7 862.8,222.5 860.3,221.4 857.5,220.2 854.5,219.1 851.3,217.9 847.9,216.8 844.6,215.6 841.2,214.5 838.0,213.3 835.1,212.2 832.3,211.0 829.9,209.9 827.9,208.7 826.3,207.6 825.2,206.4 824.5,205.3 824.2,204.1 824.4,203.0 824.8,201.8 825.4,200.7 826.1,199.5 826.7,198.4 827.2,197.2 827.5,196.1 827.5,194.9 827.1,193.8 826.4,192.6 825.5,191.5 824.3,190.3 822.9,189.2 821.5,188.0 820.0,186.9 818.5,185.7 817.2,184.6 816.0,183.4 815.0,182.3 814.1,181.1 813.4,180.0 809.9,180.0 809.2,181.1 808.4,182.3 807.3,183.4 806.1,184.6 804.8,185.7 803.4,186.9 801.9,188.0 800.4,189.2 799.0,190.3 797.8,191.5 796.9,192.6 796.2,193.8 795.9,194.9 795.8,196.1 796.1,197.2 796.6,198.4 797.3,199.5 798.0,200.7 798.6,201.8 799.0,203.0 799.1,204.1 798.8,205.3 798.1,206.4 797.0,207.6 795.4,208.7 793.4,209.9 791.0,211.0 788.3,212.2 785.3,213.3 782.1,214.5 778.8,215.6 775.4,216.8 772.1,217.9 768.8,219.1 765.8,220.2 763.0,221.4 760.6,222.5 758.5,223.7 756.9,224.8 755.7,226.0 754.8,227.1 754.4,228.3 754.3,229.5 754.4,230.6 754.8,231.8 755.4,232.9 756.1,234.1 757.0,235.2 758.1,236.4 759.4,237.5 761.0,238.7 763.0,239.8 765.4,241.0 768.2,242.1 771.5,243.3 775.2,244.4 779.2,245.6 783.3,246.7 787.4,247.9 791.3,249.0 795.0,250.2 798.3,251.3 801.2,252.5 803.6,253.6 805.6,254.8 807.2,255.9 808.4,257.1 809.3,258.2 810.0,259.4 810.5,260.5 810.9,261.7" fill="#d33" opacity="0.5" stroke="#d33" stroke-width="1"/>
<line x1="754.6" y1="227.62862493152554" x2="868.7" y2="227.62862493152554" stroke="#114" stroke-width="2"/>
<circle cx="811.6666666666666" cy="243.15670602163794" r="2.4" fill="#114"/>
<text x="811.6666666666666" y="182.09583478609548" text-anchor="middle" font-size="11">0.98</text>
<text x="811.6666666666666" y="376" text-anchor="middle" font-size="12">ztrsv</text>
<text x="450.0" y="428" text-anchor="middle" font-size="11" fill="#666">violin = ratio distribution over sizes · line = median · dark dot = worst size · green = every size ≥ gate</text>
</svg>
