<svg xmlns="http://www.w3.org/2000/svg" width="900" height="440" font-family="sans-serif">
<rect width="900" height="440" fill="white"/>
<text x="450.0" y="28" text-anchor="middle" font-size="18" font-weight="bold">BLAS-2: PureBLAS / OpenBLAS (AVX-512 native (Zen5), 1 thread, Float64)</text>
<line x1="60" y1="358.0" x2="880" y2="358.0" stroke="#eee"/>
<text x="52" y="362.0" text-anchor="end" font-size="11" fill="#666">0×</text>
<line x1="60" y1="282.2985342645484" x2="880" y2="282.2985342645484" stroke="#eee"/>
<text x="52" y="286.2985342645484" text-anchor="end" font-size="11" fill="#666">0.5×</text>
<line x1="60" y1="206.5970685290967" x2="880" y2="206.5970685290967" stroke="#eee"/>
<text x="52" y="210.5970685290967" text-anchor="end" font-size="11" fill="#666">1×</text>
<line x1="60" y1="130.89560279364508" x2="880" y2="130.89560279364508" stroke="#eee"/>
<text x="52" y="134.89560279364508" text-anchor="end" font-size="11" fill="#666">1.5×</text>
<line x1="60" y1="206.5970685290967" x2="880" y2="206.5970685290967" stroke="#888" stroke-width="1"/>
<line x1="60" y1="212.65318578793284" x2="880" y2="212.65318578793284" stroke="#d33" stroke-width="1.5" stroke-dasharray="6 4"/>
<text x="880" y="207.65318578793284" text-anchor="end" font-size="11" fill="#d33">0.96× gate</text>
<polygon points="107.2,259.6 108.0,256.6 109.0,253.7 110.3,250.7 111.8,247.8 113.6,244.8 115.6,241.9 117.8,238.9 120.3,236.0 122.9,233.0 125.8,230.0 128.8,227.1 131.9,224.1 135.0,221.2 137.8,218.2 140.3,215.3 142.2,212.3 143.4,209.4 143.8,206.4 143.3,203.5 142.0,200.5 139.9,197.6 137.1,194.6 133.9,191.7 130.4,188.7 126.7,185.8 123.1,182.8 119.7,179.9 116.6,176.9 114.0,174.0 111.8,171.0 110.0,168.1 108.7,165.1 107.7,162.2 107.1,159.2 106.8,156.3 106.8,153.3 106.9,150.4 107.3,147.4 107.9,144.5 108.6,141.5 109.4,138.5 110.3,135.6 111.1,132.6 111.9,129.7 112.5,126.7 112.8,123.8 112.8,120.8 112.6,117.9 112.1,114.9 111.5,112.0 110.7,109.0 109.9,106.1 109.2,103.1 108.6,100.2 108.1,97.2 107.7,94.3 107.4,91.3 107.2,88.4 107.1,85.4 107.0,82.5 106.9,79.5 106.8,76.6 106.7,73.6 106.6,70.7 106.5,67.7 106.4,64.8 106.3,61.8 106.1,58.9 106.0,55.9 105.9,53.0 105.8,50.0 105.3,50.0 105.2,53.0 105.1,55.9 105.0,58.9 104.8,61.8 104.7,64.8 104.6,67.7 104.5,70.7 104.4,73.6 104.3,76.6 104.2,79.5 104.1,82.5 104.1,85.4 103.9,88.4 103.7,91.3 103.5,94.3 103.1,97.2 102.5,100.2 101.9,103.1 101.2,106.1 100.4,109.0 99.7,112.0 99.0,114.9 98.5,117.9 98.3,120.8 98.3,123.8 98.7,126.7 99.2,129.7 100.0,132.6 100.8,135.6 101.7,138.5 102.5,141.5 103.2,144.5 103.8,147.4 104.2,150.4 104.3,153.3 104.3,156.3 104.0,159.2 103.4,162.2 102.4,165.1 101.1,168.1 99.4,171.0 97.1,174.0 94.5,176.9 91.4,179.9 88.0,182.8 84.4,185.8 80.7,188.7 77.2,191.7 74.0,194.6 71.2,197.6 69.1,200.5 67.8,203.5 67.3,206.4 67.7,209.4 68.9,212.3 70.8,215.3 73.3,218.2 76.1,221.2 79.2,224.1 82.3,227.1 85.3,230.0 88.2,233.0 90.9,236.0 93.3,238.9 95.6,241.9 97.6,244.8 99.3,247.8 100.8,250.7 102.1,253.7 103.1,256.6 103.9,259.6" fill="#d33" opacity="0.5" stroke="#d33" stroke-width="1"/>
<line x1="67.4" y1="208.22161299765398" x2="143.7" y2="208.22161299765398" stroke="#114" stroke-width="2"/>
<circle cx="105.55555555555556" cy="232.2754330176356" r="2.4" fill="#114"/>
<text x="105.55555555555556" y="61.43396226415098" text-anchor="middle" font-size="11">0.99</text>
<text x="105.55555555555556" y="376" text-anchor="middle" font-size="12">gemvN</text>
<polygon points="202.5,211.4 204.7,210.4 207.4,209.5 210.5,208.6 213.9,207.7 217.6,206.8 221.4,205.9 225.0,204.9 228.3,204.0 231.1,203.1 233.2,202.2 234.5,201.3 234.9,200.3 234.6,199.4 233.7,198.5 232.1,197.6 230.2,196.7 228.0,195.7 225.7,194.8 223.4,193.9 221.2,193.0 219.1,192.1 217.1,191.2 215.3,190.2 213.7,189.3 212.4,188.4 211.4,187.5 210.8,186.6 210.7,185.6 211.0,184.7 212.0,183.8 213.4,182.9 215.2,182.0 217.3,181.0 219.5,180.1 221.6,179.2 223.5,178.3 224.9,177.4 225.7,176.5 225.9,175.5 225.4,174.6 224.2,173.7 222.4,172.8 220.2,171.9 217.8,170.9 215.1,170.0 212.4,169.1 209.9,168.2 207.5,167.3 205.3,166.3 203.4,165.4 201.9,164.5 200.6,163.6 199.5,162.7 198.8,161.8 198.2,160.8 197.8,159.9 197.5,159.0 197.4,158.1 197.3,157.2 197.3,156.2 197.3,155.3 197.3,154.4 197.3,153.5 197.3,152.6 197.3,151.6 197.3,150.7 197.2,149.8 197.1,148.9 197.1,148.0 197.0,147.1 196.9,146.1 196.4,146.1 196.3,147.1 196.3,148.0 196.2,148.9 196.1,149.8 196.1,150.7 196.0,151.6 196.0,152.6 196.0,153.5 196.0,154.4 196.0,155.3 196.0,156.2 196.0,157.2 195.9,158.1 195.8,159.0 195.5,159.9 195.1,160.8 194.6,161.8 193.8,162.7 192.8,163.6 191.5,164.5 189.9,165.4 188.0,166.3 185.9,167.3 183.5,168.2 180.9,169.1 178.2,170.0 175.6,170.9 173.1,171.9 170.9,172.8 169.2,173.7 168.0,174.6 167.4,175.5 167.6,176.5 168.4,177.4 169.8,178.3 171.7,179.2 173.8,180.1 176.1,181.0 178.2,182.0 180.0,182.9 181.4,183.8 182.3,184.7 182.7,185.6 182.5,186.6 182.0,187.5 181.0,188.4 179.7,189.3 178.1,190.2 176.3,191.2 174.3,192.1 172.1,193.0 169.9,193.9 167.6,194.8 165.3,195.7 163.1,196.7 161.2,197.6 159.7,198.5 158.7,199.4 158.4,200.3 158.9,201.3 160.2,202.2 162.2,203.1 165.0,204.0 168.3,204.9 172.0,205.9 175.7,206.8 179.4,207.7 182.9,208.6 186.0,209.5 188.6,210.4 190.8,211.4" fill="#2a8" opacity="0.5" stroke="#2a8" stroke-width="1"/>
<line x1="172.3" y1="192.91592836497784" x2="221.0" y2="192.91592836497784" stroke="#114" stroke-width="2"/>
<circle cx="196.66666666666669" cy="203.12193103776303" r="2.4" fill="#114"/>
<text x="196.66666666666669" y="146.69115315843868" text-anchor="middle" font-size="11">1.09</text>
<text x="196.66666666666669" y="376" text-anchor="middle" font-size="12">gemvT</text>
<polygon points="288.5,265.6 288.8,264.0 289.2,262.3 289.7,260.7 290.4,259.1 291.2,257.4 292.2,255.8 293.3,254.2 294.5,252.6 295.8,250.9 297.2,249.3 298.5,247.7 299.8,246.0 300.9,244.4 301.8,242.8 302.5,241.2 302.9,239.5 303.1,237.9 303.0,236.3 302.7,234.6 302.2,233.0 301.6,231.4 301.0,229.7 300.4,228.1 300.0,226.5 299.9,224.9 300.1,223.2 300.8,221.6 302.1,220.0 303.9,218.3 306.3,216.7 309.1,215.1 312.4,213.5 315.8,211.8 319.1,210.2 322.0,208.6 324.3,206.9 325.7,205.3 326.0,203.7 325.3,202.0 323.5,200.4 320.8,198.8 317.5,197.2 313.8,195.5 310.1,193.9 306.6,192.3 303.6,190.6 301.1,189.0 299.1,187.4 297.6,185.8 296.6,184.1 295.9,182.5 295.5,180.9 295.3,179.2 295.2,177.6 295.1,176.0 295.0,174.3 294.9,172.7 294.8,171.1 294.6,169.5 294.3,167.8 293.9,166.2 293.4,164.6 292.8,162.9 292.2,161.3 291.5,159.7 290.9,158.1 290.3,156.4 289.7,154.8 289.3,153.2 288.9,151.5 288.6,149.9 287.0,149.9 286.7,151.5 286.3,153.2 285.8,154.8 285.3,156.4 284.7,158.1 284.0,159.7 283.4,161.3 282.7,162.9 282.2,164.6 281.7,166.2 281.3,167.8 281.0,169.5 280.7,171.1 280.6,172.7 280.5,174.3 280.5,176.0 280.4,177.6 280.3,179.2 280.0,180.9 279.6,182.5 279.0,184.1 277.9,185.8 276.5,187.4 274.5,189.0 272.0,190.6 268.9,192.3 265.4,193.9 261.8,195.5 258.1,197.2 254.8,198.8 252.1,200.4 250.3,202.0 249.5,203.7 249.9,205.3 251.3,206.9 253.6,208.6 256.5,210.2 259.8,211.8 263.2,213.5 266.4,215.1 269.3,216.7 271.6,218.3 273.5,220.0 274.7,221.6 275.4,223.2 275.7,224.9 275.6,226.5 275.2,228.1 274.6,229.7 274.0,231.4 273.4,233.0 272.9,234.6 272.5,236.3 272.4,237.9 272.6,239.5 273.0,241.2 273.7,242.8 274.7,244.4 275.8,246.0 277.0,247.7 278.4,249.3 279.7,250.9 281.0,252.6 282.2,254.2 283.4,255.8 284.3,257.4 285.1,259.1 285.8,260.7 286.4,262.3 286.8,264.0 287.1,265.6" fill="#d33" opacity="0.5" stroke="#d33" stroke-width="1"/>
<line x1="249.5" y1="204.49581166530055" x2="326.0" y2="204.49581166530055" stroke="#114" stroke-width="2"/>
<circle cx="287.77777777777777" cy="244.383728778195" r="2.4" fill="#114"/>
<text x="287.77777777777777" y="155.34817095116273" text-anchor="middle" font-size="11">1.01</text>
<text x="287.77777777777777" y="376" text-anchor="middle" font-size="12">ger</text>
<polygon points="379.2,227.1 379.3,226.0 379.5,224.9 379.7,223.8 379.9,222.7 380.2,221.6 380.4,220.5 380.7,219.4 380.9,218.3 381.1,217.2 381.2,216.1 381.2,215.0 381.2,213.9 381.1,212.8 381.1,211.7 381.0,210.6 381.1,209.5 381.3,208.3 381.7,207.2 382.3,206.1 383.1,205.0 384.1,203.9 385.2,202.8 386.4,201.7 387.6,200.6 388.9,199.5 390.4,198.4 392.0,197.3 393.8,196.2 396.0,195.1 398.6,194.0 401.5,192.9 404.7,191.8 407.9,190.7 410.9,189.6 413.5,188.5 415.5,187.4 416.7,186.3 417.2,185.2 416.9,184.1 416.0,183.0 414.8,181.9 413.4,180.8 412.0,179.6 410.6,178.5 409.2,177.4 407.9,176.3 406.4,175.2 404.7,174.1 402.9,173.0 400.9,171.9 398.9,170.8 397.0,169.7 395.5,168.6 394.4,167.5 393.7,166.4 393.5,165.3 393.5,164.2 393.6,163.1 393.5,162.0 393.2,160.9 392.5,159.8 391.5,158.7 390.1,157.6 388.5,156.5 386.8,155.4 385.2,154.3 383.6,153.2 382.4,152.1 381.3,151.0 380.5,149.8 379.9,148.7 377.8,148.7 377.3,149.8 376.5,151.0 375.4,152.1 374.1,153.2 372.6,154.3 371.0,155.4 369.3,156.5 367.7,157.6 366.3,158.7 365.2,159.8 364.6,160.9 364.3,162.0 364.2,163.1 364.3,164.2 364.3,165.3 364.1,166.4 363.4,167.5 362.3,168.6 360.7,169.7 358.9,170.8 356.9,171.9 354.9,173.0 353.1,174.1 351.4,175.2 349.9,176.3 348.6,177.4 347.2,178.5 345.8,179.6 344.4,180.8 342.9,181.9 341.7,183.0 340.9,184.1 340.6,185.2 341.1,186.3 342.3,187.4 344.3,188.5 346.9,189.6 349.9,190.7 353.1,191.8 356.2,192.9 359.2,194.0 361.7,195.1 364.0,196.2 365.8,197.3 367.4,198.4 368.8,199.5 370.1,200.6 371.4,201.7 372.6,202.8 373.7,203.9 374.6,205.0 375.4,206.1 376.0,207.2 376.4,208.3 376.7,209.5 376.7,210.6 376.7,211.7 376.7,212.8 376.6,213.9 376.6,215.0 376.6,216.1 376.7,217.2 376.9,218.3 377.1,219.4 377.3,220.5 377.6,221.6 377.9,222.7 378.1,223.8 378.3,224.9 378.5,226.0 378.6,227.1" fill="#2a8" opacity="0.5" stroke="#2a8" stroke-width="1"/>
<line x1="341.7" y1="183.02300878742008" x2="416.1" y2="183.02300878742008" stroke="#114" stroke-width="2"/>
<circle cx="378.8888888888889" cy="199.15349813862326" r="2.4" fill="#114"/>
<text x="378.8888888888889" y="150.5720462690004" text-anchor="middle" font-size="11">1.16</text>
<text x="378.8888888888889" y="376" text-anchor="middle" font-size="12">symv</text>
<polygon points="470.3,230.6 470.4,229.2 470.5,227.8 470.7,226.5 470.9,225.1 471.3,223.7 471.8,222.4 472.6,221.0 473.6,219.6 475.0,218.3 476.9,216.9 479.3,215.5 482.3,214.2 485.7,212.8 489.6,211.4 493.6,210.1 497.7,208.7 501.4,207.3 504.5,206.0 506.8,204.6 508.1,203.2 508.3,201.9 507.5,200.5 505.8,199.1 503.5,197.8 500.9,196.4 498.2,195.0 495.7,193.7 493.6,192.3 492.0,190.9 490.8,189.6 490.2,188.2 489.9,186.8 489.8,185.5 489.8,184.1 489.7,182.7 489.5,181.4 488.9,180.0 488.1,178.6 487.0,177.3 485.6,175.9 484.1,174.5 482.5,173.2 480.9,171.8 479.5,170.4 478.2,169.1 477.1,167.7 476.2,166.3 475.5,165.0 475.2,163.6 475.0,162.2 475.1,160.9 475.3,159.5 475.7,158.1 476.1,156.8 476.5,155.4 476.9,154.0 477.2,152.7 477.3,151.3 477.2,149.9 476.9,148.6 476.4,147.2 475.8,145.8 475.1,144.5 474.3,143.1 473.6,141.8 472.8,140.4 472.2,139.0 471.6,137.7 471.2,136.3 470.8,134.9 470.6,133.6 469.4,133.6 469.2,134.9 468.8,136.3 468.4,137.7 467.8,139.0 467.2,140.4 466.4,141.8 465.7,143.1 464.9,144.5 464.2,145.8 463.6,147.2 463.1,148.6 462.8,149.9 462.7,151.3 462.8,152.7 463.1,154.0 463.5,155.4 463.9,156.8 464.3,158.1 464.7,159.5 464.9,160.9 465.0,162.2 464.8,163.6 464.5,165.0 463.8,166.3 462.9,167.7 461.8,169.1 460.5,170.4 459.1,171.8 457.5,173.2 455.9,174.5 454.4,175.9 453.0,177.3 451.9,178.6 451.1,180.0 450.5,181.4 450.3,182.7 450.2,184.1 450.2,185.5 450.1,186.8 449.8,188.2 449.2,189.6 448.0,190.9 446.4,192.3 444.3,193.7 441.8,195.0 439.1,196.4 436.5,197.8 434.2,199.1 432.5,200.5 431.7,201.9 431.9,203.2 433.2,204.6 435.5,206.0 438.6,207.3 442.3,208.7 446.4,210.1 450.4,211.4 454.3,212.8 457.7,214.2 460.7,215.5 463.1,216.9 465.0,218.3 466.4,219.6 467.4,221.0 468.2,222.4 468.7,223.7 469.1,225.1 469.3,226.5 469.5,227.8 469.6,229.2 469.7,230.6" fill="#2a8" opacity="0.5" stroke="#2a8" stroke-width="1"/>
<line x1="437.7" y1="197.11383962815282" x2="502.3" y2="197.11383962815282" stroke="#114" stroke-width="2"/>
<circle cx="470.0" cy="203.8458769630779" r="2.4" fill="#114"/>
<text x="470.0" y="137.18490503121407" text-anchor="middle" font-size="11">1.06</text>
<text x="470.0" y="376" text-anchor="middle" font-size="12">trmv</text>
<polygon points="564.7,216.3 566.0,215.6 567.6,214.8 569.6,214.1 572.0,213.4 574.8,212.7 577.8,211.9 581.1,211.2 584.5,210.5 587.9,209.7 591.1,209.0 594.0,208.3 596.4,207.5 598.1,206.8 599.1,206.1 599.4,205.4 598.8,204.6 597.6,203.9 595.8,203.2 593.6,202.4 591.1,201.7 588.6,201.0 586.2,200.2 584.0,199.5 582.1,198.8 580.7,198.1 579.6,197.3 579.0,196.6 578.8,195.9 578.9,195.1 579.3,194.4 579.8,193.7 580.4,192.9 581.0,192.2 581.6,191.5 582.0,190.8 582.3,190.0 582.5,189.3 582.5,188.6 582.3,187.8 582.0,187.1 581.5,186.4 581.0,185.6 580.4,184.9 579.8,184.2 579.1,183.5 578.5,182.7 577.9,182.0 577.3,181.3 576.7,180.5 576.1,179.8 575.5,179.1 574.9,178.3 574.2,177.6 573.4,176.9 572.6,176.2 571.6,175.4 570.6,174.7 569.6,174.0 568.5,173.2 567.5,172.5 566.5,171.8 565.6,171.0 564.7,170.3 564.0,169.6 563.4,168.9 562.9,168.1 562.5,167.4 562.2,166.7 561.9,165.9 561.7,165.2 561.6,164.5 560.7,164.5 560.5,165.2 560.3,165.9 560.0,166.7 559.7,167.4 559.3,168.1 558.8,168.9 558.2,169.6 557.5,170.3 556.7,171.0 555.7,171.8 554.7,172.5 553.7,173.2 552.6,174.0 551.6,174.7 550.6,175.4 549.6,176.2 548.8,176.9 548.0,177.6 547.3,178.3 546.7,179.1 546.1,179.8 545.5,180.5 545.0,181.3 544.4,182.0 543.7,182.7 543.1,183.5 542.5,184.2 541.8,184.9 541.2,185.6 540.7,186.4 540.2,187.1 539.9,187.8 539.7,188.6 539.7,189.3 539.9,190.0 540.2,190.8 540.6,191.5 541.2,192.2 541.8,192.9 542.4,193.7 542.9,194.4 543.3,195.1 543.4,195.9 543.2,196.6 542.6,197.3 541.6,198.1 540.1,198.8 538.3,199.5 536.1,200.2 533.6,201.0 531.1,201.7 528.6,202.4 526.4,203.2 524.6,203.9 523.4,204.6 522.8,205.4 523.1,206.1 524.1,206.8 525.8,207.5 528.2,208.3 531.1,209.0 534.3,209.7 537.7,210.5 541.1,211.2 544.4,211.9 547.5,212.7 550.2,213.4 552.6,214.1 554.6,214.8 556.2,215.6 557.6,216.3" fill="#2a8" opacity="0.5" stroke="#2a8" stroke-width="1"/>
<line x1="537.0" y1="199.94773115000407" x2="585.2" y2="199.94773115000407" stroke="#114" stroke-width="2"/>
<circle cx="561.1111111111111" cy="207.97990707397042" r="2.4" fill="#114"/>
<text x="561.1111111111111" y="163.73933799556022" text-anchor="middle" font-size="11">1.04</text>
<text x="561.1111111111111" y="376" text-anchor="middle" font-size="12">trsv</text>
<polygon points="656.8,184.1 658.2,182.5 659.7,180.8 661.3,179.2 663.0,177.5 664.5,175.9 665.8,174.2 666.8,172.6 667.5,170.9 667.9,169.3 668.0,167.6 668.0,166.0 668.1,164.4 668.3,162.7 668.8,161.1 669.6,159.4 671.0,157.8 672.7,156.1 674.8,154.5 677.2,152.8 679.7,151.2 682.1,149.5 684.3,147.9 686.2,146.2 687.8,144.6 689.0,142.9 689.8,141.3 690.2,139.6 690.4,138.0 690.5,136.3 690.4,134.7 690.3,133.0 690.1,131.4 689.8,129.7 689.4,128.1 688.6,126.4 687.5,124.8 686.0,123.1 684.1,121.5 681.8,119.8 679.3,118.2 676.7,116.5 674.0,114.9 671.6,113.2 669.4,111.6 667.7,110.0 666.3,108.3 665.3,106.7 664.7,105.0 664.3,103.4 664.1,101.7 664.0,100.1 663.9,98.4 663.7,96.8 663.5,95.1 663.1,93.5 662.6,91.8 661.9,90.2 661.1,88.5 660.2,86.9 659.3,85.2 658.4,83.6 657.5,81.9 656.6,80.3 655.8,78.6 655.1,77.0 654.5,75.3 654.0,73.7 653.6,72.0 653.2,70.4 653.0,68.7 652.8,67.1 651.7,67.1 651.5,68.7 651.2,70.4 650.9,72.0 650.5,73.7 649.9,75.3 649.3,77.0 648.6,78.6 647.8,80.3 647.0,81.9 646.1,83.6 645.1,85.2 644.2,86.9 643.3,88.5 642.5,90.2 641.9,91.8 641.3,93.5 641.0,95.1 640.7,96.8 640.6,98.4 640.5,100.1 640.4,101.7 640.2,103.4 639.8,105.0 639.1,106.7 638.2,108.3 636.8,110.0 635.0,111.6 632.9,113.2 630.4,114.9 627.8,116.5 625.1,118.2 622.6,119.8 620.3,121.5 618.4,123.1 616.9,124.8 615.8,126.4 615.1,128.1 614.6,129.7 614.3,131.4 614.1,133.0 614.0,134.7 614.0,136.3 614.0,138.0 614.2,139.6 614.7,141.3 615.5,142.9 616.6,144.6 618.2,146.2 620.1,147.9 622.4,149.5 624.8,151.2 627.3,152.8 629.6,154.5 631.7,156.1 633.5,157.8 634.8,159.4 635.7,161.1 636.2,162.7 636.4,164.4 636.4,166.0 636.4,167.6 636.6,169.3 637.0,170.9 637.7,172.6 638.7,174.2 640.0,175.9 641.5,177.5 643.1,179.2 644.7,180.8 646.2,182.5 647.6,184.1" fill="#2a8" opacity="0.5" stroke="#2a8" stroke-width="1"/>
<line x1="614.0" y1="135.5850900946685" x2="690.5" y2="135.5850900946685" stroke="#114" stroke-width="2"/>
<circle cx="652.2222222222223" cy="170.79672201856408" r="2.4" fill="#114"/>
<text x="652.2222222222223" y="72.6614176340293" text-anchor="middle" font-size="11">1.47</text>
<text x="652.2222222222223" y="376" text-anchor="middle" font-size="12">spmv</text>
<polygon points="743.6,184.7 743.9,183.6 744.6,182.5 745.7,181.4 747.7,180.3 750.6,179.2 754.7,178.1 759.9,177.0 765.9,175.9 771.9,174.8 777.1,173.7 780.6,172.6 781.6,171.5 780.1,170.4 776.5,169.3 771.6,168.2 766.5,167.1 761.9,165.9 758.4,164.8 756.0,163.7 754.5,162.6 753.5,161.5 752.6,160.4 751.6,159.3 750.5,158.2 749.4,157.1 748.5,156.0 747.9,154.9 747.6,153.8 747.4,152.7 747.3,151.6 747.0,150.5 746.6,149.4 746.0,148.3 745.3,147.2 744.7,146.1 744.2,144.9 743.8,143.8 743.6,142.7 743.5,141.6 743.4,140.5 743.4,139.4 743.3,138.3 743.3,137.2 743.3,136.1 743.3,135.0 743.3,133.9 743.3,132.8 743.3,131.7 743.3,130.6 743.3,129.5 743.3,128.4 743.3,127.3 743.3,126.2 743.3,125.0 743.4,123.9 743.4,122.8 743.4,121.7 743.5,120.6 743.6,119.5 743.8,118.4 743.9,117.3 744.1,116.2 744.1,115.1 744.2,114.0 744.1,112.9 744.0,111.8 743.8,110.7 743.7,109.6 743.5,108.5 743.5,107.4 743.4,106.3 743.3,106.3 743.2,107.4 743.1,108.5 743.0,109.6 742.8,110.7 742.7,111.8 742.6,112.9 742.5,114.0 742.5,115.1 742.6,116.2 742.7,117.3 742.9,118.4 743.0,119.5 743.2,120.6 743.2,121.7 743.3,122.8 743.3,123.9 743.3,125.0 743.3,126.2 743.3,127.3 743.3,128.4 743.3,129.5 743.3,130.6 743.3,131.7 743.3,132.8 743.3,133.9 743.3,135.0 743.3,136.1 743.3,137.2 743.3,138.3 743.3,139.4 743.3,140.5 743.2,141.6 743.1,142.7 742.8,143.8 742.4,144.9 741.9,146.1 741.3,147.2 740.7,148.3 740.1,149.4 739.6,150.5 739.4,151.6 739.2,152.7 739.1,153.8 738.7,154.9 738.1,156.0 737.2,157.1 736.2,158.2 735.1,159.3 734.1,160.4 733.2,161.5 732.2,162.6 730.6,163.7 728.3,164.8 724.7,165.9 720.2,167.1 715.1,168.2 710.2,169.3 706.6,170.4 705.1,171.5 706.1,172.6 709.6,173.7 714.8,174.8 720.8,175.9 726.8,177.0 732.0,178.1 736.1,179.2 739.0,180.3 740.9,181.4 742.1,182.5 742.7,183.6 743.1,184.7" fill="#2a8" opacity="0.5" stroke="#2a8" stroke-width="1"/>
<line x1="705.7" y1="170.77262410602202" x2="780.9" y2="170.77262410602202" stroke="#114" stroke-width="2"/>
<circle cx="743.3333333333334" cy="173.71031708933768" r="2.4" fill="#114"/>
<text x="743.3333333333334" y="108.09204909278772" text-anchor="middle" font-size="11">1.24</text>
<text x="743.3333333333334" y="376" text-anchor="middle" font-size="12">gbmvN</text>
<polygon points="834.6,201.9 834.7,201.1 834.7,200.3 834.8,199.5 834.9,198.7 834.9,197.9 835.1,197.1 835.2,196.3 835.5,195.5 835.8,194.6 836.4,193.8 837.3,193.0 838.6,192.2 840.4,191.4 842.7,190.6 845.6,189.8 849.1,189.0 853.0,188.2 857.2,187.4 861.3,186.6 865.2,185.8 868.4,185.0 870.9,184.2 872.3,183.4 872.7,182.5 872.1,181.7 870.5,180.9 868.3,180.1 865.6,179.3 862.6,178.5 859.6,177.7 856.7,176.9 854.0,176.1 851.6,175.3 849.6,174.5 847.9,173.7 846.6,172.9 845.6,172.1 844.8,171.3 844.1,170.4 843.5,169.6 842.9,168.8 842.2,168.0 841.4,167.2 840.5,166.4 839.7,165.6 838.9,164.8 838.3,164.0 837.8,163.2 837.6,162.4 837.6,161.6 837.8,160.8 838.3,160.0 839.0,159.2 839.7,158.3 840.5,157.5 841.1,156.7 841.7,155.9 842.0,155.1 842.1,154.3 841.9,153.5 841.4,152.7 840.7,151.9 839.9,151.1 839.1,150.3 838.2,149.5 837.4,148.7 836.7,147.9 836.1,147.1 835.6,146.2 835.2,145.4 835.0,144.6 833.9,144.6 833.6,145.4 833.3,146.2 832.8,147.1 832.2,147.9 831.5,148.7 830.7,149.5 829.8,150.3 828.9,151.1 828.1,151.9 827.5,152.7 827.0,153.5 826.8,154.3 826.9,155.1 827.2,155.9 827.7,156.7 828.4,157.5 829.2,158.3 829.9,159.2 830.6,160.0 831.0,160.8 831.3,161.6 831.3,162.4 831.1,163.2 830.6,164.0 830.0,164.8 829.2,165.6 828.4,166.4 827.5,167.2 826.7,168.0 826.0,168.8 825.4,169.6 824.8,170.4 824.1,171.3 823.3,172.1 822.3,172.9 821.0,173.7 819.3,174.5 817.3,175.3 814.9,176.1 812.2,176.9 809.3,177.7 806.3,178.5 803.3,179.3 800.6,180.1 798.3,180.9 796.8,181.7 796.2,182.5 796.6,183.4 798.0,184.2 800.5,185.0 803.7,185.8 807.6,186.6 811.7,187.4 815.9,188.2 819.8,189.0 823.3,189.8 826.2,190.6 828.5,191.4 830.3,192.2 831.6,193.0 832.5,193.8 833.1,194.6 833.4,195.5 833.7,196.3 833.8,197.1 833.9,197.9 834.0,198.7 834.1,199.5 834.2,200.3 834.2,201.1 834.3,201.9" fill="#2a8" opacity="0.5" stroke="#2a8" stroke-width="1"/>
<line x1="796.8" y1="181.733746204112" x2="872.1" y2="181.733746204112" stroke="#114" stroke-width="2"/>
<circle cx="834.4444444444445" cy="184.97445592443796" r="2.4" fill="#114"/>
<text x="834.4444444444445" y="144.42125369116724" text-anchor="middle" font-size="11">1.16</text>
<text x="834.4444444444445" y="376" text-anchor="middle" font-size="12">sbmv</text>
<text x="450.0" y="428" text-anchor="middle" font-size="11" fill="#666">violin = ratio distribution over sizes · line = median · dark dot = worst size · green = every size ≥ gate</text>
</svg>
