<svg xmlns="http://www.w3.org/2000/svg" width="900" height="460" font-family="sans-serif">
<rect width="900" height="460" fill="white"/>
<text x="450.0" y="28" text-anchor="middle" font-size="18" font-weight="bold">BLAS-3: PureBLAS / OpenBLAS (AVX2, 1 thread, Float64)</text>
<line x1="62" y1="400.0" x2="768" y2="400.0" stroke="#eee"/>
<text x="54" y="404.0" text-anchor="end" font-size="11" fill="#666">0.5×</text>
<line x1="62" y1="321.96236462245173" x2="768" y2="321.96236462245173" stroke="#eee"/>
<text x="54" y="325.96236462245173" text-anchor="end" font-size="11" fill="#666">0.7×</text>
<line x1="62" y1="239.23913758029673" x2="768" y2="239.23913758029673" stroke="#eee"/>
<text x="54" y="243.23913758029673" text-anchor="end" font-size="11" fill="#666">1.0×</text>
<line x1="62" y1="145.20006148117739" x2="768" y2="145.20006148117739" stroke="#eee"/>
<text x="54" y="149.20006148117739" text-anchor="end" font-size="11" fill="#666">1.5×</text>
<line x1="62" y1="78.47827516059348" x2="768" y2="78.47827516059348" stroke="#eee"/>
<text x="54" y="82.47827516059348" text-anchor="end" font-size="11" fill="#666">2.0×</text>
<line x1="62.0" y1="50" x2="62.0" y2="400" stroke="#f4f4f4"/>
<text x="62.0" y="418" text-anchor="middle" font-size="11" fill="#444">8</text>
<line x1="238.5" y1="50" x2="238.5" y2="400" stroke="#f4f4f4"/>
<text x="238.5" y="418" text-anchor="middle" font-size="11" fill="#444">32</text>
<line x1="415.0" y1="50" x2="415.0" y2="400" stroke="#f4f4f4"/>
<text x="415.0" y="418" text-anchor="middle" font-size="11" fill="#444">128</text>
<line x1="503.25" y1="50" x2="503.25" y2="400" stroke="#f4f4f4"/>
<text x="503.25" y="418" text-anchor="middle" font-size="11" fill="#444">256</text>
<line x1="591.5" y1="50" x2="591.5" y2="400" stroke="#f4f4f4"/>
<text x="591.5" y="418" text-anchor="middle" font-size="11" fill="#444">512</text>
<line x1="679.75" y1="50" x2="679.75" y2="400" stroke="#f4f4f4"/>
<text x="679.75" y="418" text-anchor="middle" font-size="11" fill="#444">1024</text>
<line x1="768.0" y1="50" x2="768.0" y2="400" stroke="#f4f4f4"/>
<text x="768.0" y="418" text-anchor="middle" font-size="11" fill="#444">2048</text>
<line x1="62" y1="239.23913758029673" x2="768" y2="239.23913758029673" stroke="#888"/>
<line x1="62" y1="248.70693782362625" x2="768" y2="248.70693782362625" stroke="#d33" stroke-width="1.5" stroke-dasharray="6 4"/>
<text x="66" y="243.70693782362625" font-size="11" fill="#d33">0.96× gate</text>
<polygon points="62.0,79.9 238.5,209.7 415.0,210.5 503.2,229.8 591.5,219.9 679.8,229.6 768.0,224.4 768.0,227.4 679.8,230.8 591.5,222.2 503.2,232.4 415.0,215.7 238.5,220.1 62.0,82.9" fill="#1f77b4" opacity="0.14" stroke="none"/>
<polyline points="62.0,82.4 238.5,214.3 415.0,213.9 503.2,231.0 591.5,221.4 679.8,229.9 768.0,225.5" fill="none" stroke="#1f77b4" stroke-width="2"/>
<circle cx="62.0" cy="82.4" r="3" fill="#1f77b4"/>
<circle cx="238.5" cy="214.3" r="3" fill="#1f77b4"/>
<circle cx="415.0" cy="213.9" r="3" fill="#1f77b4"/>
<circle cx="503.2" cy="231.0" r="3" fill="#1f77b4"/>
<circle cx="591.5" cy="221.4" r="3" fill="#1f77b4"/>
<circle cx="679.8" cy="229.9" r="3" fill="#1f77b4"/>
<circle cx="768.0" cy="225.5" r="3" fill="#1f77b4"/>
<line x1="782" y1="56" x2="802" y2="56" stroke="#1f77b4" stroke-width="3"/>
<text x="806" y="60" font-size="12">gemm</text>
<polygon points="62.0,193.9 238.5,242.7 415.0,244.0 503.2,246.9 591.5,249.4 679.8,241.7 768.0,243.4 768.0,247.0 679.8,247.6 591.5,250.7 503.2,247.8 415.0,248.5 238.5,251.8 62.0,200.3" fill="#d62728" opacity="0.14" stroke="none"/>
<polyline points="62.0,199.0 238.5,249.0 415.0,247.1 503.2,247.4 591.5,250.2 679.8,244.3 768.0,245.6" fill="none" stroke="#d62728" stroke-width="2"/>
<circle cx="62.0" cy="199.0" r="3" fill="#d62728"/>
<circle cx="238.5" cy="249.0" r="3" fill="#d62728"/>
<circle cx="415.0" cy="247.1" r="3" fill="#d62728"/>
<circle cx="503.2" cy="247.4" r="3" fill="#d62728"/>
<circle cx="591.5" cy="250.2" r="3" fill="#d62728"/>
<circle cx="679.8" cy="244.3" r="3" fill="#d62728"/>
<circle cx="768.0" cy="245.6" r="3" fill="#d62728"/>
<line x1="782" y1="74" x2="802" y2="74" stroke="#d62728" stroke-width="3"/>
<text x="806" y="78" font-size="12">zgemm</text>
<polygon points="62.0,202.4 238.5,220.4 415.0,239.5 503.2,242.6 591.5,232.4 679.8,226.2 768.0,226.5 768.0,228.0 679.8,227.5 591.5,233.1 503.2,243.5 415.0,240.8 238.5,233.5 62.0,205.1" fill="#2ca02c" opacity="0.14" stroke="none"/>
<polyline points="62.0,204.8 238.5,229.4 415.0,239.7 503.2,242.9 591.5,232.6 679.8,226.9 768.0,227.2" fill="none" stroke="#2ca02c" stroke-width="2"/>
<circle cx="62.0" cy="204.8" r="3" fill="#2ca02c"/>
<circle cx="238.5" cy="229.4" r="3" fill="#2ca02c"/>
<circle cx="415.0" cy="239.7" r="3" fill="#2ca02c"/>
<circle cx="503.2" cy="242.9" r="3" fill="#2ca02c"/>
<circle cx="591.5" cy="232.6" r="3" fill="#2ca02c"/>
<circle cx="679.8" cy="226.9" r="3" fill="#2ca02c"/>
<circle cx="768.0" cy="227.2" r="3" fill="#2ca02c"/>
<line x1="782" y1="92" x2="802" y2="92" stroke="#2ca02c" stroke-width="3"/>
<text x="806" y="96" font-size="12">symm</text>
<polygon points="62.0,154.9 238.5,175.7 415.0,208.4 503.2,226.8 591.5,229.3 679.8,229.2 768.0,230.8 768.0,232.1 679.8,234.2 591.5,231.0 503.2,229.5 415.0,226.7 238.5,182.5 62.0,157.0" fill="#9467bd" opacity="0.14" stroke="none"/>
<polyline points="62.0,155.9 238.5,180.4 415.0,222.9 503.2,228.9 591.5,230.3 679.8,231.0 768.0,231.5" fill="none" stroke="#9467bd" stroke-width="2"/>
<circle cx="62.0" cy="155.9" r="3" fill="#9467bd"/>
<circle cx="238.5" cy="180.4" r="3" fill="#9467bd"/>
<circle cx="415.0" cy="222.9" r="3" fill="#9467bd"/>
<circle cx="503.2" cy="228.9" r="3" fill="#9467bd"/>
<circle cx="591.5" cy="230.3" r="3" fill="#9467bd"/>
<circle cx="679.8" cy="231.0" r="3" fill="#9467bd"/>
<circle cx="768.0" cy="231.5" r="3" fill="#9467bd"/>
<line x1="782" y1="110" x2="802" y2="110" stroke="#9467bd" stroke-width="3"/>
<text x="806" y="114" font-size="12">syrk</text>
<polygon points="62.0,142.8 238.5,208.8 415.0,234.9 503.2,242.9 591.5,234.8 679.8,230.5 768.0,231.8 768.0,233.5 679.8,234.0 591.5,238.2 503.2,246.4 415.0,240.2 238.5,221.1 62.0,144.8" fill="#ff7f0e" opacity="0.14" stroke="none"/>
<polyline points="62.0,143.7 238.5,219.9 415.0,236.9 503.2,245.4 591.5,237.4 679.8,233.2 768.0,232.7" fill="none" stroke="#ff7f0e" stroke-width="2"/>
<circle cx="62.0" cy="143.7" r="3" fill="#ff7f0e"/>
<circle cx="238.5" cy="219.9" r="3" fill="#ff7f0e"/>
<circle cx="415.0" cy="236.9" r="3" fill="#ff7f0e"/>
<circle cx="503.2" cy="245.4" r="3" fill="#ff7f0e"/>
<circle cx="591.5" cy="237.4" r="3" fill="#ff7f0e"/>
<circle cx="679.8" cy="233.2" r="3" fill="#ff7f0e"/>
<circle cx="768.0" cy="232.7" r="3" fill="#ff7f0e"/>
<line x1="782" y1="128" x2="802" y2="128" stroke="#ff7f0e" stroke-width="3"/>
<text x="806" y="132" font-size="12">syr2k</text>
<polygon points="62.0,291.0 238.5,185.2 415.0,189.5 503.2,197.4 591.5,206.9 679.8,217.7 768.0,226.1 768.0,228.3 679.8,219.8 591.5,211.3 503.2,199.9 415.0,193.8 238.5,192.8 62.0,292.1" fill="#17becf" opacity="0.14" stroke="none"/>
<polyline points="62.0,291.4 238.5,190.2 415.0,191.3 503.2,199.0 591.5,208.0 679.8,219.3 768.0,227.7" fill="none" stroke="#17becf" stroke-width="2"/>
<circle cx="62.0" cy="291.4" r="3" fill="#17becf"/>
<circle cx="238.5" cy="190.2" r="3" fill="#17becf"/>
<circle cx="415.0" cy="191.3" r="3" fill="#17becf"/>
<circle cx="503.2" cy="199.0" r="3" fill="#17becf"/>
<circle cx="591.5" cy="208.0" r="3" fill="#17becf"/>
<circle cx="679.8" cy="219.3" r="3" fill="#17becf"/>
<circle cx="768.0" cy="227.7" r="3" fill="#17becf"/>
<line x1="782" y1="146" x2="802" y2="146" stroke="#17becf" stroke-width="3"/>
<text x="806" y="150" font-size="12">trmm</text>
<polygon points="62.0,215.4 238.5,234.3 415.0,243.9 503.2,244.5 591.5,234.6 679.8,230.2 768.0,226.3 768.0,229.6 679.8,231.4 591.5,235.6 503.2,249.7 415.0,246.5 238.5,243.0 62.0,217.5" fill="#8c564b" opacity="0.14" stroke="none"/>
<polyline points="62.0,216.5 238.5,238.8 415.0,245.0 503.2,247.4 591.5,235.1 679.8,230.6 768.0,228.3" fill="none" stroke="#8c564b" stroke-width="2"/>
<circle cx="62.0" cy="216.5" r="3" fill="#8c564b"/>
<circle cx="238.5" cy="238.8" r="3" fill="#8c564b"/>
<circle cx="415.0" cy="245.0" r="3" fill="#8c564b"/>
<circle cx="503.2" cy="247.4" r="3" fill="#8c564b"/>
<circle cx="591.5" cy="235.1" r="3" fill="#8c564b"/>
<circle cx="679.8" cy="230.6" r="3" fill="#8c564b"/>
<circle cx="768.0" cy="228.3" r="3" fill="#8c564b"/>
<line x1="782" y1="164" x2="802" y2="164" stroke="#8c564b" stroke-width="3"/>
<text x="806" y="168" font-size="12">trsm</text>
<text x="415.0" y="450" text-anchor="middle" font-size="11" fill="#666">matrix size n (log) · y = median ratio (log) · dashed = the 0.96× gate</text>
</svg>
