<svg xmlns="http://www.w3.org/2000/svg" width="900" height="460" font-family="sans-serif">
<rect width="900" height="460" fill="white"/>
<text x="450.0" y="28" text-anchor="middle" font-size="18" font-weight="bold">Complex BLAS-3: PureBLAS / OpenBLAS (AVX2, 1 thread, ComplexF64)</text>
<line x1="62" y1="400.0" x2="768" y2="400.0" stroke="#eee"/>
<text x="54" y="404.0" text-anchor="end" font-size="11" fill="#666">0.5×</text>
<line x1="62" y1="303.7688780356323" x2="768" y2="303.7688780356323" stroke="#eee"/>
<text x="54" y="307.7688780356323" text-anchor="end" font-size="11" fill="#666">0.7×</text>
<line x1="62" y1="201.75977803835113" x2="768" y2="201.75977803835113" stroke="#eee"/>
<text x="54" y="205.75977803835113" text-anchor="end" font-size="11" fill="#666">1.0×</text>
<line x1="62" y1="85.79668205614797" x2="768" y2="85.79668205614797" stroke="#eee"/>
<text x="54" y="89.79668205614797" text-anchor="end" font-size="11" fill="#666">1.5×</text>
<line x1="62.0" y1="50" x2="62.0" y2="400" stroke="#f4f4f4"/>
<text x="62.0" y="418" text-anchor="middle" font-size="11" fill="#444">8</text>
<line x1="238.5" y1="50" x2="238.5" y2="400" stroke="#f4f4f4"/>
<text x="238.5" y="418" text-anchor="middle" font-size="11" fill="#444">32</text>
<line x1="415.0" y1="50" x2="415.0" y2="400" stroke="#f4f4f4"/>
<text x="415.0" y="418" text-anchor="middle" font-size="11" fill="#444">128</text>
<line x1="503.25" y1="50" x2="503.25" y2="400" stroke="#f4f4f4"/>
<text x="503.25" y="418" text-anchor="middle" font-size="11" fill="#444">256</text>
<line x1="591.5" y1="50" x2="591.5" y2="400" stroke="#f4f4f4"/>
<text x="591.5" y="418" text-anchor="middle" font-size="11" fill="#444">512</text>
<line x1="679.75" y1="50" x2="679.75" y2="400" stroke="#f4f4f4"/>
<text x="679.75" y="418" text-anchor="middle" font-size="11" fill="#444">1024</text>
<line x1="768.0" y1="50" x2="768.0" y2="400" stroke="#f4f4f4"/>
<text x="768.0" y="418" text-anchor="middle" font-size="11" fill="#444">2048</text>
<line x1="62" y1="201.75977803835113" x2="768" y2="201.75977803835113" stroke="#888"/>
<line x1="62" y1="213.4348760284709" x2="768" y2="213.4348760284709" stroke="#d33" stroke-width="1.5" stroke-dasharray="6 4"/>
<text x="66" y="208.4348760284709" font-size="11" fill="#d33">0.96× gate</text>
<polygon points="62.0,149.8 238.5,215.9 415.0,208.6 503.2,216.9 591.5,220.7 679.8,214.4 768.0,213.0 768.0,216.4 679.8,216.8 591.5,221.3 503.2,217.9 415.0,214.9 238.5,224.6 62.0,217.4" fill="#1f77b4" opacity="0.14" stroke="none"/>
<polyline points="62.0,180.9 238.5,218.1 415.0,210.9 503.2,217.6 591.5,221.1 679.8,216.2 768.0,215.4" fill="none" stroke="#1f77b4" stroke-width="2"/>
<circle cx="62.0" cy="180.9" r="3" fill="#1f77b4"/>
<circle cx="238.5" cy="218.1" r="3" fill="#1f77b4"/>
<circle cx="415.0" cy="210.9" r="3" fill="#1f77b4"/>
<circle cx="503.2" cy="217.6" r="3" fill="#1f77b4"/>
<circle cx="591.5" cy="221.1" r="3" fill="#1f77b4"/>
<circle cx="679.8" cy="216.2" r="3" fill="#1f77b4"/>
<circle cx="768.0" cy="215.4" r="3" fill="#1f77b4"/>
<line x1="782" y1="56" x2="802" y2="56" stroke="#1f77b4" stroke-width="3"/>
<text x="806" y="60" font-size="12">zgemm</text>
<polygon points="62.0,355.1 238.5,235.8 415.0,231.5 503.2,238.4 591.5,234.5 679.8,223.8 768.0,220.7 768.0,221.7 679.8,224.6 591.5,235.1 503.2,240.0 415.0,233.8 238.5,245.4 62.0,363.7" fill="#d62728" opacity="0.14" stroke="none"/>
<polyline points="62.0,358.4 238.5,240.2 415.0,233.2 503.2,239.3 591.5,234.8 679.8,224.3 768.0,220.9" fill="none" stroke="#d62728" stroke-width="2"/>
<circle cx="62.0" cy="358.4" r="3" fill="#d62728"/>
<circle cx="238.5" cy="240.2" r="3" fill="#d62728"/>
<circle cx="415.0" cy="233.2" r="3" fill="#d62728"/>
<circle cx="503.2" cy="239.3" r="3" fill="#d62728"/>
<circle cx="591.5" cy="234.8" r="3" fill="#d62728"/>
<circle cx="679.8" cy="224.3" r="3" fill="#d62728"/>
<circle cx="768.0" cy="220.9" r="3" fill="#d62728"/>
<line x1="782" y1="74" x2="802" y2="74" stroke="#d62728" stroke-width="3"/>
<text x="806" y="78" font-size="12">zhemm</text>
<polygon points="62.0,204.1 238.5,293.5 415.0,305.7 503.2,281.0 591.5,261.6 679.8,243.2 768.0,233.0 768.0,234.1 679.8,244.7 591.5,262.7 503.2,282.1 415.0,308.5 238.5,299.4 62.0,213.4" fill="#2ca02c" opacity="0.14" stroke="none"/>
<polyline points="62.0,212.3 238.5,296.7 415.0,306.7 503.2,282.0 591.5,262.5 679.8,243.9 768.0,233.8" fill="none" stroke="#2ca02c" stroke-width="2"/>
<circle cx="62.0" cy="212.3" r="3" fill="#2ca02c"/>
<circle cx="238.5" cy="296.7" r="3" fill="#2ca02c"/>
<circle cx="415.0" cy="306.7" r="3" fill="#2ca02c"/>
<circle cx="503.2" cy="282.0" r="3" fill="#2ca02c"/>
<circle cx="591.5" cy="262.5" r="3" fill="#2ca02c"/>
<circle cx="679.8" cy="243.9" r="3" fill="#2ca02c"/>
<circle cx="768.0" cy="233.8" r="3" fill="#2ca02c"/>
<line x1="782" y1="92" x2="802" y2="92" stroke="#2ca02c" stroke-width="3"/>
<text x="806" y="96" font-size="12">zherk</text>
<polygon points="62.0,355.4 238.5,354.9 415.0,393.8 503.2,306.5 591.5,275.7 679.8,246.7 768.0,234.5 768.0,236.3 679.8,247.5 591.5,276.8 503.2,307.9 415.0,396.6 238.5,363.8 62.0,362.8" fill="#9467bd" opacity="0.14" stroke="none"/>
<polyline points="62.0,359.4 238.5,359.6 415.0,394.6 503.2,307.4 591.5,276.5 679.8,247.1 768.0,235.5" fill="none" stroke="#9467bd" stroke-width="2"/>
<circle cx="62.0" cy="359.4" r="3" fill="#9467bd"/>
<circle cx="238.5" cy="359.6" r="3" fill="#9467bd"/>
<circle cx="415.0" cy="394.6" r="3" fill="#9467bd"/>
<circle cx="503.2" cy="307.4" r="3" fill="#9467bd"/>
<circle cx="591.5" cy="276.5" r="3" fill="#9467bd"/>
<circle cx="679.8" cy="247.1" r="3" fill="#9467bd"/>
<circle cx="768.0" cy="235.5" r="3" fill="#9467bd"/>
<line x1="782" y1="110" x2="802" y2="110" stroke="#9467bd" stroke-width="3"/>
<text x="806" y="114" font-size="12">ztrmm</text>
<polygon points="62.0,392.0 238.5,390.4 415.0,400.0 503.2,292.0 591.5,250.1 679.8,228.5 768.0,221.4 768.0,222.2 679.8,229.5 591.5,251.7 503.2,292.9 415.0,400.0 238.5,393.6 62.0,396.9" fill="#ff7f0e" opacity="0.14" stroke="none"/>
<polyline points="62.0,394.3 238.5,392.1 415.0,400.0 503.2,292.4 591.5,250.8 679.8,228.8 768.0,221.6" fill="none" stroke="#ff7f0e" stroke-width="2"/>
<circle cx="62.0" cy="394.3" r="3" fill="#ff7f0e"/>
<circle cx="238.5" cy="392.1" r="3" fill="#ff7f0e"/>
<circle cx="415.0" cy="400.0" r="3" fill="#ff7f0e"/>
<circle cx="503.2" cy="292.4" r="3" fill="#ff7f0e"/>
<circle cx="591.5" cy="250.8" r="3" fill="#ff7f0e"/>
<circle cx="679.8" cy="228.8" r="3" fill="#ff7f0e"/>
<circle cx="768.0" cy="221.6" r="3" fill="#ff7f0e"/>
<line x1="782" y1="128" x2="802" y2="128" stroke="#ff7f0e" stroke-width="3"/>
<text x="806" y="132" font-size="12">ztrsm</text>
<text x="415.0" y="450" text-anchor="middle" font-size="11" fill="#666">matrix size n (log) · y = median ratio (log) · dashed = the 0.96× gate</text>
</svg>
