<svg xmlns="http://www.w3.org/2000/svg" width="900" height="440" font-family="sans-serif">
<rect width="900" height="440" fill="white"/>
<text x="450.0" y="28" text-anchor="middle" font-size="18" font-weight="bold">BLAS-1: PureBLAS / OpenBLAS (AVX-512 (Zen4), 1 thread, Float64)</text>
<line x1="60" y1="358.0" x2="880" y2="358.0" stroke="#eee"/>
<text x="52" y="362.0" text-anchor="end" font-size="11" fill="#666">0×</text>
<line x1="60" y1="346.8934269167848" x2="880" y2="346.8934269167848" stroke="#eee"/>
<text x="52" y="350.8934269167848" text-anchor="end" font-size="11" fill="#666">0.5×</text>
<line x1="60" y1="335.7868538335696" x2="880" y2="335.7868538335696" stroke="#eee"/>
<text x="52" y="339.7868538335696" text-anchor="end" font-size="11" fill="#666">1×</text>
<line x1="60" y1="324.68028075035437" x2="880" y2="324.68028075035437" stroke="#eee"/>
<text x="52" y="328.68028075035437" text-anchor="end" font-size="11" fill="#666">1.5×</text>
<line x1="60" y1="335.7868538335696" x2="880" y2="335.7868538335696" stroke="#888" stroke-width="1"/>
<line x1="60" y1="336.6753796802268" x2="880" y2="336.6753796802268" stroke="#d33" stroke-width="1.5" stroke-dasharray="6 4"/>
<text x="880" y="331.6753796802268" text-anchor="end" font-size="11" fill="#d33">0.96× gate</text>
<polygon points="128.5,342.1 128.6,341.8 128.7,341.6 128.9,341.4 129.1,341.2 129.3,341.0 129.6,340.8 129.8,340.6 130.1,340.3 130.5,340.1 130.9,339.9 131.3,339.7 131.9,339.5 132.7,339.3 133.6,339.0 134.7,338.8 136.0,338.6 137.4,338.4 139.0,338.2 140.6,338.0 142.3,337.8 144.2,337.5 146.5,337.3 149.6,337.1 153.6,336.9 158.7,336.7 164.5,336.5 170.8,336.3 176.7,336.0 181.5,335.8 184.6,335.6 185.7,335.4 184.8,335.2 182.3,335.0 178.8,334.7 175.1,334.5 171.8,334.3 169.3,334.1 167.6,333.9 166.5,333.7 165.6,333.5 164.5,333.2 162.7,333.0 160.2,332.8 156.9,332.6 153.2,332.4 149.4,332.2 145.8,331.9 142.6,331.7 140.0,331.5 138.0,331.3 136.5,331.1 135.4,330.9 134.6,330.7 134.1,330.4 133.6,330.2 133.2,330.0 132.7,329.8 132.2,329.6 131.7,329.4 131.1,329.1 130.7,328.9 130.3,328.7 129.9,328.5 129.7,328.3 129.5,328.1 129.3,327.9 129.0,327.6 128.9,327.4 128.7,327.2 128.6,327.0 128.5,326.8 128.2,326.8 128.1,327.0 128.0,327.2 127.8,327.4 127.6,327.6 127.4,327.9 127.2,328.1 127.0,328.3 126.7,328.5 126.4,328.7 126.0,328.9 125.5,329.1 125.0,329.4 124.5,329.6 123.9,329.8 123.5,330.0 123.0,330.2 122.6,330.4 122.0,330.7 121.3,330.9 120.2,331.1 118.7,331.3 116.7,331.5 114.1,331.7 110.9,331.9 107.3,332.2 103.5,332.4 99.8,332.6 96.5,332.8 93.9,333.0 92.2,333.2 91.0,333.5 90.2,333.7 89.1,333.9 87.4,334.1 84.9,334.3 81.5,334.5 77.8,334.7 74.3,335.0 71.8,335.2 70.9,335.4 72.0,335.6 75.2,335.8 80.0,336.0 85.9,336.3 92.1,336.5 98.0,336.7 103.0,336.9 107.0,337.1 110.1,337.3 112.5,337.5 114.4,337.8 116.1,338.0 117.7,338.2 119.2,338.4 120.7,338.6 122.0,338.8 123.1,339.0 124.0,339.3 124.7,339.5 125.3,339.7 125.8,339.9 126.2,340.1 126.5,340.3 126.8,340.6 127.1,340.8 127.3,341.0 127.6,341.2 127.8,341.4 128.0,341.6 128.1,341.8 128.2,342.1" fill="#2a8" opacity="0.5" stroke="#2a8" stroke-width="1"/>
<line x1="72.5" y1="335.1083189061819" x2="184.2" y2="335.1083189061819" stroke="#114" stroke-width="2"/>
<circle cx="128.33333333333331" cy="335.7221334220558" r="2.4" fill="#114"/>
<text x="128.33333333333331" y="322.29188415985936" text-anchor="middle" font-size="11">1.03</text>
<text x="128.33333333333331" y="376" text-anchor="middle" font-size="12">axpy</text>
<polygon points="265.0,342.5 265.1,342.2 265.2,341.8 265.3,341.5 265.6,341.1 266.1,340.8 266.7,340.4 267.6,340.1 268.7,339.7 270.1,339.3 271.9,339.0 274.1,338.6 277.0,338.3 280.8,337.9 285.7,337.6 292.1,337.2 299.8,336.9 308.2,336.5 315.8,336.2 321.0,335.8 322.4,335.5 319.6,335.1 313.5,334.8 305.5,334.4 297.3,334.1 289.8,333.7 283.5,333.3 278.7,333.0 275.0,332.6 272.3,332.3 270.4,331.9 269.1,331.6 268.3,331.2 267.7,330.9 267.1,330.5 266.6,330.2 266.1,329.8 265.7,329.5 265.5,329.1 265.4,328.8 265.5,328.4 265.7,328.1 265.9,327.7 266.1,327.3 266.3,327.0 266.4,326.6 266.4,326.3 266.4,325.9 266.3,325.6 266.1,325.2 265.9,324.9 265.6,324.5 265.4,324.2 265.2,323.8 265.1,323.5 265.1,323.1 265.0,322.8 265.0,322.4 265.1,322.1 265.1,321.7 265.2,321.4 265.4,321.0 265.5,320.6 265.6,320.3 265.7,319.9 265.6,319.6 265.5,319.2 265.4,318.9 265.2,318.5 265.1,318.2 265.1,317.8 265.0,317.5 265.0,317.5 264.9,317.8 264.9,318.2 264.8,318.5 264.6,318.9 264.5,319.2 264.4,319.6 264.3,319.9 264.4,320.3 264.5,320.6 264.6,321.0 264.8,321.4 264.9,321.7 264.9,322.1 265.0,322.4 265.0,322.8 264.9,323.1 264.9,323.5 264.8,323.8 264.6,324.2 264.4,324.5 264.1,324.9 263.9,325.2 263.7,325.6 263.6,325.9 263.6,326.3 263.6,326.6 263.7,327.0 263.9,327.3 264.1,327.7 264.3,328.1 264.5,328.4 264.6,328.8 264.5,329.1 264.3,329.5 263.9,329.8 263.4,330.2 262.9,330.5 262.3,330.9 261.7,331.2 260.9,331.6 259.6,331.9 257.7,332.3 255.0,332.6 251.3,333.0 246.5,333.3 240.2,333.7 232.7,334.1 224.5,334.4 216.5,334.8 210.4,335.1 207.6,335.5 209.0,335.8 214.2,336.2 221.8,336.5 230.2,336.9 237.9,337.2 244.3,337.6 249.2,337.9 253.0,338.3 255.9,338.6 258.1,339.0 259.9,339.3 261.3,339.7 262.4,340.1 263.3,340.4 263.9,340.8 264.4,341.1 264.7,341.5 264.8,341.8 264.9,342.2 265.0,342.5" fill="#2a8" opacity="0.5" stroke="#2a8" stroke-width="1"/>
<line x1="207.6" y1="335.5753583329313" x2="322.4" y2="335.5753583329313" stroke="#114" stroke-width="2"/>
<circle cx="265.0" cy="335.9568273770858" r="2.4" fill="#114"/>
<text x="265.0" y="313.92936871954277" text-anchor="middle" font-size="11">1.01</text>
<text x="265.0" y="376" text-anchor="middle" font-size="12">dot</text>
<polygon points="407.2,323.4 409.3,319.5 411.8,315.7 414.9,311.8 418.4,308.0 422.3,304.1 426.4,300.3 430.6,296.4 434.8,292.6 438.8,288.7 442.5,284.9 445.7,281.0 448.6,277.2 451.1,273.3 453.2,269.5 455.0,265.6 456.6,261.8 457.8,257.9 458.6,254.1 459.1,250.2 459.0,246.4 458.4,242.5 457.2,238.7 455.4,234.8 453.1,231.0 450.5,227.1 447.6,223.3 444.5,219.4 441.5,215.6 438.5,211.7 435.7,207.9 433.0,204.0 430.6,200.2 428.4,196.3 426.4,192.5 424.6,188.6 422.9,184.8 421.4,180.9 420.0,177.1 418.7,173.2 417.6,169.4 416.5,165.5 415.4,161.7 414.4,157.8 413.5,154.0 412.7,150.1 411.9,146.3 411.1,142.4 410.5,138.6 409.9,134.7 409.3,130.9 408.9,127.0 408.5,123.2 408.3,119.3 408.2,115.5 408.1,111.6 408.2,107.8 408.3,103.9 408.5,100.1 408.6,96.2 408.7,92.4 408.7,88.5 408.6,84.7 408.3,80.8 407.9,77.0 407.4,73.1 406.8,69.3 406.1,65.4 405.5,61.6 404.8,57.7 404.2,53.9 403.7,50.0 399.6,50.0 399.1,53.9 398.5,57.7 397.9,61.6 397.2,65.4 396.5,69.3 395.9,73.1 395.4,77.0 395.0,80.8 394.8,84.7 394.6,88.5 394.6,92.4 394.7,96.2 394.8,100.1 395.0,103.9 395.1,107.8 395.2,111.6 395.2,115.5 395.0,119.3 394.8,123.2 394.5,127.0 394.0,130.9 393.5,134.7 392.9,138.6 392.2,142.4 391.5,146.3 390.7,150.1 389.8,154.0 388.9,157.8 387.9,161.7 386.9,165.5 385.8,169.4 384.6,173.2 383.3,177.1 381.9,180.9 380.4,184.8 378.8,188.6 376.9,192.5 374.9,196.3 372.7,200.2 370.3,204.0 367.7,207.9 364.8,211.7 361.8,215.6 358.8,219.4 355.7,223.3 352.8,227.1 350.2,231.0 347.9,234.8 346.2,238.7 345.0,242.5 344.3,246.4 344.3,250.2 344.7,254.1 345.6,257.9 346.8,261.8 348.3,265.6 350.1,269.5 352.2,273.3 354.7,277.2 357.6,281.0 360.9,284.9 364.5,288.7 368.5,292.6 372.7,296.4 376.9,300.3 381.0,304.1 384.9,308.0 388.4,311.8 391.5,315.7 394.1,319.5 396.2,323.4" fill="#2a8" opacity="0.5" stroke="#2a8" stroke-width="1"/>
<line x1="345.0" y1="242.36702789224287" x2="458.3" y2="242.36702789224287" stroke="#114" stroke-width="2"/>
<circle cx="401.66666666666663" cy="282.08890398665596" r="2.4" fill="#114"/>
<text x="401.66666666666663" y="61.43396226415098" text-anchor="middle" font-size="11">5.21</text>
<text x="401.66666666666663" y="376" text-anchor="middle" font-size="12">nrm2</text>
<polygon points="538.9,342.0 539.3,341.7 539.8,341.4 540.5,341.1 541.3,340.8 542.2,340.5 543.2,340.2 544.3,339.9 545.5,339.7 546.7,339.4 548.1,339.1 549.8,338.8 552.1,338.5 555.1,338.2 559.0,337.9 563.9,337.6 569.6,337.3 575.8,337.1 582.0,336.8 587.6,336.5 592.1,336.2 594.9,335.9 595.7,335.6 594.7,335.3 592.1,335.0 588.2,334.7 583.6,334.5 578.7,334.2 573.8,333.9 569.3,333.6 565.1,333.3 561.4,333.0 558.1,332.7 555.0,332.4 552.4,332.1 550.0,331.9 548.0,331.6 546.4,331.3 545.3,331.0 544.7,330.7 544.5,330.4 544.7,330.1 545.2,329.8 545.8,329.6 546.3,329.3 546.7,329.0 546.9,328.7 546.9,328.4 546.6,328.1 546.1,327.8 545.5,327.5 544.7,327.2 543.9,327.0 543.0,326.7 542.2,326.4 541.5,326.1 540.9,325.8 540.4,325.5 540.1,325.2 539.9,324.9 539.8,324.6 539.7,324.4 539.6,324.1 539.5,323.8 539.4,323.5 539.3,323.2 539.1,322.9 539.0,322.6 538.8,322.3 538.7,322.0 538.6,321.8 538.5,321.5 538.2,321.5 538.1,321.8 538.0,322.0 537.8,322.3 537.7,322.6 537.5,322.9 537.4,323.2 537.3,323.5 537.1,323.8 537.1,324.1 537.0,324.4 536.9,324.6 536.7,324.9 536.5,325.2 536.2,325.5 535.8,325.8 535.2,326.1 534.5,326.4 533.7,326.7 532.8,327.0 531.9,327.2 531.2,327.5 530.5,327.8 530.0,328.1 529.8,328.4 529.8,328.7 530.0,329.0 530.4,329.3 530.9,329.6 531.5,329.8 531.9,330.1 532.1,330.4 532.0,330.7 531.3,331.0 530.2,331.3 528.7,331.6 526.7,331.9 524.3,332.1 521.6,332.4 518.6,332.7 515.3,333.0 511.5,333.3 507.4,333.6 502.8,333.9 498.0,334.2 493.1,334.5 488.5,334.7 484.6,335.0 482.0,335.3 480.9,335.6 481.8,335.9 484.6,336.2 489.0,336.5 494.7,336.8 500.9,337.1 507.1,337.3 512.8,337.6 517.6,337.9 521.6,338.2 524.6,338.5 526.8,338.8 528.6,339.1 530.0,339.4 531.2,339.7 532.3,339.9 533.4,340.2 534.5,340.5 535.4,340.8 536.2,341.1 536.9,341.4 537.4,341.7 537.7,342.0" fill="#2a8" opacity="0.5" stroke="#2a8" stroke-width="1"/>
<line x1="481.3" y1="335.44571275370924" x2="595.4" y2="335.44571275370924" stroke="#114" stroke-width="2"/>
<circle cx="538.3333333333333" cy="336.46030536056645" r="2.4" fill="#114"/>
<text x="538.3333333333333" y="317.4878712236394" text-anchor="middle" font-size="11">1.02</text>
<text x="538.3333333333333" y="376" text-anchor="middle" font-size="12">asum</text>
<polygon points="675.0,344.6 675.0,344.2 675.1,343.8 675.2,343.3 675.3,342.9 675.5,342.5 675.6,342.1 675.7,341.7 675.6,341.3 675.5,340.9 675.3,340.5 675.2,340.1 675.1,339.7 675.1,339.3 675.3,338.9 675.6,338.5 676.3,338.1 677.4,337.7 679.2,337.3 681.8,336.9 685.4,336.5 690.3,336.1 696.9,335.7 705.3,335.3 715.0,334.9 724.4,334.5 730.9,334.1 732.4,333.7 728.1,333.3 719.5,332.9 709.1,332.5 699.7,332.1 692.7,331.7 688.5,331.3 686.2,330.9 684.9,330.5 683.8,330.1 682.5,329.7 681.2,329.3 679.9,328.9 678.8,328.5 677.9,328.1 677.1,327.7 676.5,327.3 676.1,326.9 675.9,326.5 675.8,326.1 675.8,325.7 675.8,325.3 675.8,324.9 675.7,324.5 675.7,324.1 675.8,323.7 675.7,323.3 675.6,322.8 675.4,322.4 675.3,322.0 675.2,321.6 675.1,321.2 675.1,320.8 675.2,320.4 675.3,320.0 675.5,319.6 675.6,319.2 675.7,318.8 675.6,318.4 675.5,318.0 675.3,317.6 675.2,317.2 675.1,316.8 675.0,316.4 675.0,316.0 675.0,316.0 675.0,316.4 674.9,316.8 674.8,317.2 674.7,317.6 674.5,318.0 674.4,318.4 674.3,318.8 674.4,319.2 674.5,319.6 674.7,320.0 674.8,320.4 674.9,320.8 674.9,321.2 674.8,321.6 674.7,322.0 674.6,322.4 674.4,322.8 674.3,323.3 674.2,323.7 674.3,324.1 674.3,324.5 674.2,324.9 674.2,325.3 674.2,325.7 674.2,326.1 674.1,326.5 673.9,326.9 673.5,327.3 672.9,327.7 672.1,328.1 671.2,328.5 670.1,328.9 668.8,329.3 667.5,329.7 666.2,330.1 665.1,330.5 663.8,330.9 661.5,331.3 657.3,331.7 650.3,332.1 640.9,332.5 630.5,332.9 621.9,333.3 617.6,333.7 619.1,334.1 625.6,334.5 635.0,334.9 644.7,335.3 653.1,335.7 659.7,336.1 664.6,336.5 668.2,336.9 670.8,337.3 672.6,337.7 673.7,338.1 674.4,338.5 674.7,338.9 674.9,339.3 674.9,339.7 674.8,340.1 674.7,340.5 674.5,340.9 674.4,341.3 674.3,341.7 674.4,342.1 674.5,342.5 674.7,342.9 674.8,343.3 674.9,343.8 675.0,344.2 675.0,344.6" fill="#2a8" opacity="0.5" stroke="#2a8" stroke-width="1"/>
<line x1="617.5" y1="333.75030659225234" x2="732.5" y2="333.75030659225234" stroke="#114" stroke-width="2"/>
<circle cx="675.0" cy="334.04787991781103" r="2.4" fill="#114"/>
<text x="675.0" y="312.81440496103085" text-anchor="middle" font-size="11">1.09</text>
<text x="675.0" y="376" text-anchor="middle" font-size="12">scal</text>
<polygon points="815.5,346.3 816.7,345.8 818.3,345.3 820.1,344.8 822.3,344.3 824.8,343.8 827.5,343.2 830.5,342.7 833.8,342.2 837.3,341.7 840.9,341.2 844.5,340.7 848.2,340.2 851.7,339.7 855.1,339.2 858.3,338.7 861.2,338.2 863.6,337.7 865.7,337.2 867.2,336.6 868.3,336.1 868.9,335.6 869.1,335.1 868.8,334.6 868.0,334.1 867.0,333.6 865.7,333.1 864.2,332.6 862.7,332.1 861.2,331.6 859.8,331.1 858.6,330.6 857.6,330.0 857.0,329.5 856.6,329.0 856.6,328.5 856.7,328.0 857.0,327.5 857.2,327.0 857.4,326.5 857.5,326.0 857.3,325.5 856.8,325.0 856.1,324.5 855.1,324.0 853.9,323.4 852.5,322.9 851.1,322.4 849.7,321.9 848.2,321.4 846.8,320.9 845.3,320.4 843.9,319.9 842.4,319.4 840.8,318.9 839.2,318.4 837.5,317.9 835.7,317.3 833.8,316.8 831.8,316.3 829.9,315.8 827.9,315.3 825.9,314.8 824.0,314.3 822.2,313.8 820.5,313.3 819.0,312.8 817.6,312.3 816.4,311.8 815.3,311.3 814.5,310.7 813.8,310.2 809.6,310.2 808.9,310.7 808.0,311.3 807.0,311.8 805.7,312.3 804.4,312.8 802.8,313.3 801.1,313.8 799.3,314.3 797.4,314.8 795.5,315.3 793.5,315.8 791.5,316.3 789.5,316.8 787.6,317.3 785.8,317.9 784.1,318.4 782.5,318.9 780.9,319.4 779.5,319.9 778.0,320.4 776.6,320.9 775.1,321.4 773.7,321.9 772.2,322.4 770.8,322.9 769.5,323.4 768.3,324.0 767.3,324.5 766.5,325.0 766.0,325.5 765.8,326.0 765.9,326.5 766.1,327.0 766.4,327.5 766.6,328.0 766.8,328.5 766.7,329.0 766.4,329.5 765.7,330.0 764.8,330.6 763.6,331.1 762.2,331.6 760.6,332.1 759.1,332.6 757.6,333.1 756.3,333.6 755.3,334.1 754.6,334.6 754.3,335.1 754.4,335.6 755.0,336.1 756.1,336.6 757.7,337.2 759.7,337.7 762.2,338.2 765.0,338.7 768.2,339.2 771.6,339.7 775.2,340.2 778.8,340.7 782.5,341.2 786.1,341.7 789.5,342.2 792.8,342.7 795.8,343.2 798.6,343.8 801.0,344.3 803.2,344.8 805.0,345.3 806.6,345.8 807.9,346.3" fill="#2a8" opacity="0.5" stroke="#2a8" stroke-width="1"/>
<line x1="763.4" y1="331.11250352714865" x2="859.9" y2="331.11250352714865" stroke="#114" stroke-width="2"/>
<circle cx="811.6666666666666" cy="334.02342789073236" r="2.4" fill="#114"/>
<text x="811.6666666666666" y="307.76336727393" text-anchor="middle" font-size="11">1.21</text>
<text x="811.6666666666666" y="376" text-anchor="middle" font-size="12">iamax</text>
<text x="450.0" y="428" text-anchor="middle" font-size="11" fill="#666">violin = ratio distribution over sizes · line = median · dark dot = worst size · green = every size ≥ gate</text>
</svg>
