<svg xmlns="http://www.w3.org/2000/svg" width="900" height="440" font-family="sans-serif">
<rect width="900" height="440" fill="white"/>
<text x="450.0" y="28" text-anchor="middle" font-size="18" font-weight="bold">Complex BLAS-2: PureBLAS / OpenBLAS (AVX2, 1 thread, ComplexF64)</text>
<line x1="60" y1="358.0" x2="880" y2="358.0" stroke="#eee"/>
<text x="52" y="362.0" text-anchor="end" font-size="11" fill="#666">0×</text>
<line x1="60" y1="279.3092605699452" x2="880" y2="279.3092605699452" stroke="#eee"/>
<text x="52" y="283.3092605699452" text-anchor="end" font-size="11" fill="#666">0.5×</text>
<line x1="60" y1="200.6185211398903" x2="880" y2="200.6185211398903" stroke="#eee"/>
<text x="52" y="204.6185211398903" text-anchor="end" font-size="11" fill="#666">1×</text>
<line x1="60" y1="121.92778170983551" x2="880" y2="121.92778170983551" stroke="#eee"/>
<text x="52" y="125.92778170983551" text-anchor="end" font-size="11" fill="#666">1.5×</text>
<line x1="60" y1="200.6185211398903" x2="880" y2="200.6185211398903" stroke="#888" stroke-width="1"/>
<line x1="60" y1="206.91378029429472" x2="880" y2="206.91378029429472" stroke="#d33" stroke-width="1.5" stroke-dasharray="6 4"/>
<text x="880" y="201.91378029429472" text-anchor="end" font-size="11" fill="#d33">0.96× gate</text>
<polygon points="131.9,262.3 133.0,261.1 134.3,259.8 135.9,258.6 137.7,257.3 139.8,256.1 142.2,254.9 144.9,253.6 147.8,252.4 150.9,251.1 154.2,249.9 157.6,248.7 161.0,247.4 164.4,246.2 167.7,245.0 170.8,243.7 173.7,242.5 176.3,241.2 178.6,240.0 180.6,238.8 182.3,237.5 183.7,236.3 184.7,235.1 185.4,233.8 185.7,232.6 185.6,231.3 185.1,230.1 184.0,228.9 182.5,227.6 180.4,226.4 177.8,225.1 174.7,223.9 171.3,222.7 167.7,221.4 164.0,220.2 160.4,219.0 157.0,217.7 154.0,216.5 151.4,215.2 149.3,214.0 147.7,212.8 146.7,211.5 146.2,210.3 146.1,209.0 146.3,207.8 146.8,206.6 147.4,205.3 148.1,204.1 148.8,202.9 149.5,201.6 150.1,200.4 150.5,199.1 150.9,197.9 151.1,196.7 151.3,195.4 151.3,194.2 151.3,193.0 151.2,191.7 151.0,190.5 150.6,189.2 150.1,188.0 149.3,186.8 148.4,185.5 147.3,184.3 145.9,183.0 144.4,181.8 142.7,180.6 141.0,179.3 139.3,178.1 137.6,176.9 136.0,175.6 134.5,174.4 122.1,174.4 120.7,175.6 119.1,176.9 117.4,178.1 115.7,179.3 113.9,180.6 112.3,181.8 110.8,183.0 109.4,184.3 108.3,185.5 107.3,186.8 106.6,188.0 106.1,189.2 105.7,190.5 105.5,191.7 105.4,193.0 105.3,194.2 105.4,195.4 105.6,196.7 105.8,197.9 106.2,199.1 106.6,200.4 107.2,201.6 107.8,202.9 108.5,204.1 109.2,205.3 109.9,206.6 110.4,207.8 110.6,209.0 110.5,210.3 110.0,211.5 108.9,212.8 107.4,214.0 105.3,215.2 102.7,216.5 99.6,217.7 96.2,219.0 92.6,220.2 88.9,221.4 85.3,222.7 81.9,223.9 78.9,225.1 76.3,226.4 74.2,227.6 72.6,228.9 71.6,230.1 71.0,231.3 70.9,232.6 71.2,233.8 71.9,235.1 73.0,236.3 74.3,237.5 76.0,238.8 78.0,240.0 80.4,241.2 83.0,242.5 85.8,243.7 89.0,245.0 92.2,246.2 95.6,247.4 99.1,248.7 102.5,249.9 105.8,251.1 108.9,252.4 111.8,253.6 114.5,254.9 116.9,256.1 119.0,257.3 120.8,258.6 122.4,259.8 123.7,261.1 124.8,262.3" fill="#d33" opacity="0.5" stroke="#d33" stroke-width="1"/>
<line x1="76.6" y1="226.23668637520913" x2="180.1" y2="226.23668637520913" stroke="#114" stroke-width="2"/>
<circle cx="128.33333333333331" cy="243.17359980615223" r="2.4" fill="#114"/>
<text x="128.33333333333331" y="177.1410197999355" text-anchor="middle" font-size="11">0.84</text>
<text x="128.33333333333331" y="376" text-anchor="middle" font-size="12">zgemvN</text>
<polygon points="266.2,238.2 266.7,237.3 267.3,236.4 268.2,235.6 269.2,234.7 270.5,233.8 272.0,232.9 273.8,232.1 275.6,231.2 277.6,230.3 279.5,229.4 281.3,228.6 282.9,227.7 284.1,226.8 284.9,225.9 285.4,225.1 285.5,224.2 285.3,223.3 285.1,222.4 285.0,221.6 285.2,220.7 285.8,219.8 287.1,218.9 289.2,218.1 291.9,217.2 295.3,216.3 299.2,215.4 303.5,214.6 307.8,213.7 311.9,212.8 315.5,211.9 318.5,211.1 320.8,210.2 322.0,209.3 322.4,208.4 321.9,207.6 320.5,206.7 318.4,205.8 315.9,204.9 313.0,204.1 309.9,203.2 306.7,202.3 303.7,201.4 300.9,200.6 298.5,199.7 296.4,198.8 294.7,197.9 293.5,197.1 292.7,196.2 292.3,195.3 292.3,194.4 292.6,193.6 293.1,192.7 293.6,191.8 294.2,190.9 294.6,190.1 294.9,189.2 294.8,188.3 294.3,187.4 293.4,186.6 292.0,185.7 290.3,184.8 288.2,184.0 285.8,183.1 283.3,182.2 280.7,181.3 278.1,180.5 275.7,179.6 273.5,178.7 271.6,177.8 270.0,177.0 268.7,176.1 261.3,176.1 260.0,177.0 258.4,177.8 256.5,178.7 254.3,179.6 251.9,180.5 249.3,181.3 246.7,182.2 244.2,183.1 241.8,184.0 239.7,184.8 238.0,185.7 236.6,186.6 235.7,187.4 235.2,188.3 235.1,189.2 235.4,190.1 235.8,190.9 236.4,191.8 236.9,192.7 237.4,193.6 237.7,194.4 237.7,195.3 237.3,196.2 236.5,197.1 235.3,197.9 233.6,198.8 231.5,199.7 229.1,200.6 226.3,201.4 223.3,202.3 220.1,203.2 217.0,204.1 214.1,204.9 211.6,205.8 209.5,206.7 208.1,207.6 207.6,208.4 208.0,209.3 209.2,210.2 211.5,211.1 214.5,211.9 218.1,212.8 222.2,213.7 226.5,214.6 230.8,215.4 234.7,216.3 238.1,217.2 240.8,218.1 242.9,218.9 244.2,219.8 244.8,220.7 245.0,221.6 244.9,222.4 244.7,223.3 244.5,224.2 244.6,225.1 245.1,225.9 245.9,226.8 247.1,227.7 248.7,228.6 250.5,229.4 252.4,230.3 254.4,231.2 256.2,232.1 258.0,232.9 259.5,233.8 260.8,234.7 261.8,235.6 262.7,236.4 263.3,237.3 263.8,238.2" fill="#d33" opacity="0.5" stroke="#d33" stroke-width="1"/>
<line x1="209.1" y1="206.9336893267088" x2="320.9" y2="206.9336893267088" stroke="#114" stroke-width="2"/>
<circle cx="265.0" cy="225.391321705447" r="2.4" fill="#114"/>
<text x="265.0" y="176.34215989667746" text-anchor="middle" font-size="11">0.96</text>
<text x="265.0" y="376" text-anchor="middle" font-size="12">zgemvC</text>
<polygon points="405.3,219.4 406.6,218.3 408.4,217.1 410.5,216.0 413.2,214.8 416.3,213.7 419.9,212.5 424.0,211.4 428.5,210.2 433.3,209.1 438.2,208.0 443.0,206.8 447.5,205.7 451.6,204.5 454.9,203.4 457.3,202.2 458.8,201.1 459.1,199.9 458.3,198.8 456.5,197.6 453.7,196.5 450.3,195.3 446.3,194.2 442.0,193.0 437.6,191.9 433.4,190.8 429.4,189.6 425.8,188.5 422.7,187.3 420.2,186.2 418.2,185.0 416.7,183.9 415.6,182.7 414.9,181.6 414.5,180.4 414.2,179.3 414.0,178.1 413.9,177.0 413.7,175.8 413.4,174.7 412.9,173.5 412.4,172.4 411.8,171.3 411.0,170.1 410.3,169.0 409.6,167.8 408.9,166.7 408.4,165.5 408.1,164.4 407.9,163.2 408.0,162.1 408.2,160.9 408.7,159.8 409.3,158.6 410.0,157.5 410.8,156.3 411.6,155.2 412.3,154.1 412.9,152.9 413.3,151.8 413.5,150.6 413.5,149.5 413.3,148.3 412.8,147.2 412.1,146.0 411.2,144.9 410.3,143.7 409.2,142.6 408.2,141.4 407.2,140.3 406.2,139.1 405.3,138.0 398.0,138.0 397.1,139.1 396.2,140.3 395.1,141.4 394.1,142.6 393.1,143.7 392.1,144.9 391.2,146.0 390.6,147.2 390.1,148.3 389.8,149.5 389.8,150.6 390.0,151.8 390.4,152.9 391.0,154.1 391.7,155.2 392.5,156.3 393.3,157.5 394.0,158.6 394.6,159.8 395.1,160.9 395.4,162.1 395.4,163.2 395.3,164.4 394.9,165.5 394.4,166.7 393.8,167.8 393.0,169.0 392.3,170.1 391.6,171.3 390.9,172.4 390.4,173.5 390.0,174.7 389.7,175.8 389.5,177.0 389.3,178.1 389.1,179.3 388.9,180.4 388.4,181.6 387.7,182.7 386.7,183.9 385.1,185.0 383.1,186.2 380.6,187.3 377.5,188.5 373.9,189.6 370.0,190.8 365.7,191.9 361.3,193.0 357.0,194.2 353.1,195.3 349.6,196.5 346.9,197.6 345.0,198.8 344.3,199.9 344.6,201.1 346.0,202.2 348.4,203.4 351.8,204.5 355.8,205.7 360.3,206.8 365.2,208.0 370.0,209.1 374.8,210.2 379.3,211.4 383.4,212.5 387.0,213.7 390.2,214.8 392.8,216.0 395.0,217.1 396.7,218.3 398.0,219.4" fill="#2a8" opacity="0.5" stroke="#2a8" stroke-width="1"/>
<line x1="345.0" y1="198.8220229796553" x2="458.3" y2="198.8220229796553" stroke="#114" stroke-width="2"/>
<circle cx="401.66666666666663" cy="205.2825813431063" r="2.4" fill="#114"/>
<text x="401.66666666666663" y="140.127782376249" text-anchor="middle" font-size="11">1.01</text>
<text x="401.66666666666663" y="376" text-anchor="middle" font-size="12">zgeru</text>
<polygon points="538.8,217.3 539.0,214.9 539.1,212.6 539.2,210.3 539.3,207.9 539.4,205.6 539.5,203.2 539.7,200.9 539.9,198.6 540.2,196.2 540.6,193.9 541.3,191.5 542.2,189.2 543.5,186.8 545.3,184.5 547.6,182.2 550.5,179.8 553.9,177.5 557.9,175.1 562.2,172.8 566.8,170.5 571.4,168.1 575.8,165.8 579.8,163.4 583.2,161.1 585.8,158.8 587.5,156.4 588.2,154.1 588.1,151.7 587.3,149.4 585.8,147.1 584.0,144.7 581.8,142.4 579.6,140.0 577.4,137.7 575.3,135.4 573.4,133.0 571.8,130.7 570.5,128.3 569.5,126.0 568.8,123.7 568.3,121.3 568.0,119.0 567.9,116.6 567.9,114.3 568.2,112.0 568.7,109.6 569.5,107.3 570.8,104.9 572.5,102.6 574.8,100.2 577.5,97.9 580.7,95.6 584.1,93.2 587.5,90.9 590.6,88.5 593.2,86.2 595.0,83.9 595.7,81.5 595.3,79.2 593.7,76.8 590.9,74.5 587.2,72.2 582.6,69.8 577.5,67.5 572.1,65.1 566.7,62.8 561.6,60.5 557.0,58.1 552.9,55.8 549.4,53.4 546.5,51.1 530.2,51.1 527.3,53.4 523.8,55.8 519.7,58.1 515.0,60.5 509.9,62.8 504.6,65.1 499.2,67.5 494.1,69.8 489.5,72.2 485.7,74.5 482.9,76.8 481.3,79.2 480.9,81.5 481.7,83.9 483.5,86.2 486.1,88.5 489.2,90.9 492.6,93.2 496.0,95.6 499.1,97.9 501.9,100.2 504.1,102.6 505.9,104.9 507.1,107.3 508.0,109.6 508.5,112.0 508.7,114.3 508.8,116.6 508.7,119.0 508.4,121.3 507.9,123.7 507.1,126.0 506.1,128.3 504.8,130.7 503.2,133.0 501.4,135.4 499.3,137.7 497.1,140.0 494.8,142.4 492.7,144.7 490.8,147.1 489.4,149.4 488.5,151.7 488.4,154.1 489.2,156.4 490.9,158.8 493.5,161.1 496.8,163.4 500.8,165.8 505.3,168.1 509.9,170.5 514.5,172.8 518.8,175.1 522.8,177.5 526.2,179.8 529.1,182.2 531.4,184.5 533.1,186.8 534.5,189.2 535.4,191.5 536.0,193.9 536.5,196.2 536.8,198.6 537.0,200.9 537.1,203.2 537.2,205.6 537.4,207.9 537.5,210.3 537.6,212.6 537.7,214.9 537.8,217.3" fill="#2a8" opacity="0.5" stroke="#2a8" stroke-width="1"/>
<line x1="508.7" y1="114.34615701261619" x2="567.9" y2="114.34615701261619" stroke="#114" stroke-width="2"/>
<circle cx="538.3333333333333" cy="158.77188282446457" r="2.4" fill="#114"/>
<text x="538.3333333333333" y="61.433962264150935" text-anchor="middle" font-size="11">1.55</text>
<text x="538.3333333333333" y="376" text-anchor="middle" font-size="12">zhemv</text>
<polygon points="680.9,266.1 682.7,263.1 684.8,260.0 687.3,257.0 690.1,253.9 693.3,250.9 696.9,247.9 700.6,244.8 704.6,241.8 708.6,238.7 712.6,235.7 716.6,232.6 720.3,229.6 723.6,226.5 726.6,223.5 729.0,220.5 730.8,217.4 731.9,214.4 732.4,211.3 732.1,208.3 731.2,205.2 729.5,202.2 727.2,199.2 724.3,196.1 721.0,193.1 717.3,190.0 713.3,187.0 709.3,183.9 705.3,180.9 701.5,177.8 697.9,174.8 694.8,171.8 692.0,168.7 689.8,165.7 688.1,162.6 686.9,159.6 686.2,156.5 685.9,153.5 686.0,150.4 686.3,147.4 686.9,144.4 687.5,141.3 688.3,138.3 688.9,135.2 689.5,132.2 689.9,129.1 690.2,126.1 690.3,123.1 690.2,120.0 690.1,117.0 689.8,113.9 689.5,110.9 689.3,107.8 689.1,104.8 688.9,101.7 688.9,98.7 689.0,95.7 689.2,92.6 689.3,89.6 689.5,86.5 689.6,83.5 689.6,80.4 689.5,77.4 689.2,74.4 688.7,71.3 688.0,68.3 687.1,65.2 686.1,62.2 684.9,59.1 683.8,56.1 682.6,53.0 681.4,50.0 668.6,50.0 667.4,53.0 666.2,56.1 665.1,59.1 663.9,62.2 662.9,65.2 662.0,68.3 661.3,71.3 660.8,74.4 660.5,77.4 660.4,80.4 660.4,83.5 660.5,86.5 660.7,89.6 660.8,92.6 661.0,95.7 661.1,98.7 661.1,101.7 660.9,104.8 660.7,107.8 660.5,110.9 660.2,113.9 659.9,117.0 659.8,120.0 659.7,123.1 659.8,126.1 660.1,129.1 660.5,132.2 661.1,135.2 661.7,138.3 662.5,141.3 663.1,144.4 663.7,147.4 664.0,150.4 664.1,153.5 663.8,156.5 663.1,159.6 661.9,162.6 660.2,165.7 658.0,168.7 655.2,171.8 652.1,174.8 648.5,177.8 644.7,180.9 640.7,183.9 636.7,187.0 632.7,190.0 629.0,193.1 625.7,196.1 622.8,199.2 620.5,202.2 618.8,205.2 617.9,208.3 617.6,211.3 618.1,214.4 619.2,217.4 621.0,220.5 623.4,223.5 626.4,226.5 629.7,229.6 633.4,232.6 637.4,235.7 641.4,238.7 645.4,241.8 649.4,244.8 653.1,247.9 656.7,250.9 659.9,253.9 662.7,257.0 665.2,260.0 667.3,263.1 669.1,266.1" fill="#d33" opacity="0.5" stroke="#d33" stroke-width="1"/>
<line x1="620.6" y1="201.97406569700476" x2="729.4" y2="201.97406569700476" stroke="#114" stroke-width="2"/>
<circle cx="675.0" cy="230.15157075789656" r="2.4" fill="#114"/>
<text x="675.0" y="64.29220367684115" text-anchor="middle" font-size="11">0.99</text>
<text x="675.0" y="376" text-anchor="middle" font-size="12">ztrmv</text>
<polygon points="812.2,241.6 812.6,240.4 813.4,239.2 814.7,238.0 816.6,236.8 819.2,235.6 822.6,234.4 826.5,233.2 831.0,232.0 835.5,230.8 839.8,229.6 843.5,228.4 846.3,227.2 848.0,226.0 848.9,224.8 849.5,223.6 850.5,222.4 852.4,221.2 855.5,220.0 859.4,218.8 863.6,217.6 867.1,216.4 869.1,215.2 868.9,214.0 866.7,212.8 862.9,211.6 858.2,210.4 853.7,209.2 850.0,208.0 847.5,206.8 846.3,205.6 845.9,204.4 845.7,203.2 844.9,202.0 843.0,200.8 839.7,199.6 835.3,198.5 830.3,197.3 825.4,196.1 821.0,194.9 817.6,193.7 815.1,192.5 813.5,191.3 812.6,190.1 812.1,188.9 811.8,187.7 811.7,186.5 811.7,185.3 811.7,184.1 811.7,182.9 811.7,181.7 811.7,180.5 811.7,179.3 811.7,178.1 811.7,176.9 811.7,175.7 811.7,174.5 811.8,173.3 811.9,172.1 812.0,170.9 812.2,169.7 812.4,168.5 812.6,167.3 812.7,166.1 812.7,164.9 812.7,163.7 812.5,162.5 812.4,161.3 812.2,160.1 812.0,158.9 811.9,157.7 811.8,156.5 811.5,156.5 811.5,157.7 811.3,158.9 811.2,160.1 811.0,161.3 810.8,162.5 810.7,163.7 810.6,164.9 810.7,166.1 810.8,167.3 810.9,168.5 811.1,169.7 811.3,170.9 811.4,172.1 811.5,173.3 811.6,174.5 811.6,175.7 811.7,176.9 811.7,178.1 811.7,179.3 811.7,180.5 811.7,181.7 811.7,182.9 811.7,184.1 811.6,185.3 811.6,186.5 811.5,187.7 811.2,188.9 810.7,190.1 809.8,191.3 808.2,192.5 805.8,193.7 802.3,194.9 798.0,196.1 793.0,197.3 788.0,198.5 783.6,199.6 780.4,200.8 778.5,202.0 777.7,203.2 777.4,204.4 777.0,205.6 775.8,206.8 773.3,208.0 769.6,209.2 765.1,210.4 760.5,211.6 756.6,212.8 754.4,214.0 754.3,215.2 756.2,216.4 759.7,217.6 763.9,218.8 767.9,220.0 770.9,221.2 772.8,222.4 773.8,223.6 774.4,224.8 775.3,226.0 777.1,227.2 779.8,228.4 783.5,229.6 787.8,230.8 792.4,232.0 796.8,233.2 800.8,234.4 804.1,235.6 806.7,236.8 808.6,238.0 809.9,239.2 810.7,240.4 811.2,241.6" fill="#d33" opacity="0.5" stroke="#d33" stroke-width="1"/>
<line x1="754.3" y1="215.24062559819205" x2="869.1" y2="215.24062559819205" stroke="#114" stroke-width="2"/>
<circle cx="811.6666666666666" cy="228.80999742413923" r="2.4" fill="#114"/>
<text x="811.6666666666666" y="158.96570085745293" text-anchor="middle" font-size="11">0.91</text>
<text x="811.6666666666666" y="376" text-anchor="middle" font-size="12">ztrsv</text>
<text x="450.0" y="428" text-anchor="middle" font-size="11" fill="#666">violin = ratio distribution over sizes · line = median · dark dot = worst size · green = every size ≥ gate</text>
</svg>
