<svg xmlns="http://www.w3.org/2000/svg" width="900" height="440" font-family="sans-serif">
<rect width="900" height="440" fill="white"/>
<text x="450.0" y="28" text-anchor="middle" font-size="18" font-weight="bold">BLAS-1: PureBLAS / OpenBLAS (AVX-512 native (Zen5), 1 thread, Float64)</text>
<line x1="60" y1="358.0" x2="880" y2="358.0" stroke="#eee"/>
<text x="52" y="362.0" text-anchor="end" font-size="11" fill="#666">0×</text>
<line x1="60" y1="348.1763412514716" x2="880" y2="348.1763412514716" stroke="#eee"/>
<text x="52" y="352.1763412514716" text-anchor="end" font-size="11" fill="#666">0.5×</text>
<line x1="60" y1="338.3526825029433" x2="880" y2="338.3526825029433" stroke="#eee"/>
<text x="52" y="342.3526825029433" text-anchor="end" font-size="11" fill="#666">1×</text>
<line x1="60" y1="328.52902375441494" x2="880" y2="328.52902375441494" stroke="#eee"/>
<text x="52" y="332.52902375441494" text-anchor="end" font-size="11" fill="#666">1.5×</text>
<line x1="60" y1="338.3526825029433" x2="880" y2="338.3526825029433" stroke="#888" stroke-width="1"/>
<line x1="60" y1="339.13857520282556" x2="880" y2="339.13857520282556" stroke="#d33" stroke-width="1.5" stroke-dasharray="6 4"/>
<text x="880" y="334.13857520282556" text-anchor="end" font-size="11" fill="#d33">0.96× gate</text>
<polygon points="129.4,340.6 129.9,340.5 130.5,340.5 131.3,340.4 132.1,340.4 133.0,340.3 133.8,340.2 134.6,340.2 135.3,340.1 135.8,340.1 136.2,340.0 136.5,340.0 136.6,339.9 136.7,339.8 136.8,339.8 136.8,339.7 136.9,339.7 137.1,339.6 137.1,339.6 137.2,339.5 137.2,339.4 137.0,339.4 136.8,339.3 136.6,339.3 136.3,339.2 136.2,339.2 136.5,339.1 137.2,339.0 138.6,339.0 140.9,338.9 144.3,338.9 148.9,338.8 154.5,338.8 160.9,338.7 167.6,338.6 174.1,338.6 179.6,338.5 183.7,338.5 185.7,338.4 185.6,338.3 183.4,338.3 179.4,338.2 174.1,338.2 168.1,338.1 162.3,338.1 157.0,338.0 152.9,337.9 150.2,337.9 149.2,337.8 149.9,337.8 152.1,337.7 155.8,337.7 160.4,337.6 165.3,337.5 170.1,337.5 173.9,337.4 176.3,337.4 176.9,337.3 175.6,337.3 172.5,337.2 167.9,337.1 162.4,337.1 156.5,337.0 150.7,337.0 145.4,336.9 140.9,336.9 137.2,336.8 134.4,336.7 132.3,336.7 130.9,336.6 129.9,336.6 129.3,336.5 127.4,336.5 126.8,336.6 125.8,336.6 124.3,336.7 122.3,336.7 119.4,336.8 115.8,336.9 111.2,336.9 106.0,337.0 100.2,337.0 94.3,337.1 88.7,337.1 84.2,337.2 81.0,337.3 79.7,337.3 80.3,337.4 82.8,337.4 86.6,337.5 91.3,337.5 96.3,337.6 100.9,337.7 104.5,337.7 106.8,337.8 107.5,337.8 106.5,337.9 103.8,337.9 99.6,338.0 94.4,338.1 88.5,338.1 82.6,338.2 77.3,338.2 73.3,338.3 71.0,338.3 70.9,338.4 73.0,338.5 77.1,338.5 82.6,338.6 89.1,338.6 95.8,338.7 102.2,338.8 107.8,338.8 112.3,338.9 115.7,338.9 118.1,339.0 119.5,339.0 120.2,339.1 120.4,339.2 120.3,339.2 120.1,339.3 119.8,339.3 119.6,339.4 119.5,339.4 119.5,339.5 119.5,339.6 119.6,339.6 119.7,339.7 119.8,339.7 119.9,339.8 120.0,339.8 120.1,339.9 120.2,340.0 120.5,340.0 120.8,340.1 121.4,340.1 122.0,340.2 122.8,340.2 123.7,340.3 124.6,340.4 125.4,340.4 126.2,340.5 126.8,340.5 127.3,340.6" fill="#d33" opacity="0.5" stroke="#d33" stroke-width="1"/>
<line x1="74.9" y1="338.26578508110964" x2="181.8" y2="338.26578508110964" stroke="#114" stroke-width="2"/>
<circle cx="128.33333333333331" cy="339.5476660201706" r="2.4" fill="#114"/>
<text x="128.33333333333331" y="330.93700650531844" text-anchor="middle" font-size="11">1.00</text>
<text x="128.33333333333331" y="376" text-anchor="middle" font-size="12">axpy</text>
<polygon points="265.1,339.8 265.3,339.7 265.7,339.7 266.4,339.6 267.5,339.6 269.0,339.5 270.8,339.4 272.5,339.4 273.9,339.3 274.7,339.3 274.9,339.2 274.5,339.2 273.8,339.1 273.1,339.0 272.4,339.0 272.1,338.9 272.5,338.9 273.9,338.8 277.0,338.8 282.4,338.7 290.1,338.6 299.7,338.6 309.7,338.5 317.9,338.5 322.4,338.4 322.2,338.3 317.9,338.3 311.1,338.2 304.1,338.2 298.6,338.1 295.1,338.1 293.4,338.0 292.4,337.9 291.1,337.9 288.8,337.8 285.6,337.8 281.9,337.7 278.4,337.7 275.5,337.6 273.4,337.5 271.9,337.5 270.9,337.4 270.2,337.4 269.7,337.3 269.3,337.2 268.9,337.2 268.4,337.1 267.9,337.1 267.3,337.0 266.8,337.0 266.3,336.9 266.0,336.8 265.7,336.8 265.5,336.7 265.4,336.7 265.3,336.6 265.3,336.6 265.4,336.5 265.5,336.4 265.6,336.4 265.7,336.3 265.8,336.3 265.8,336.2 265.8,336.2 265.8,336.1 265.7,336.0 265.5,336.0 265.3,335.9 265.2,335.9 265.1,335.8 265.1,335.7 265.0,335.7 265.0,335.7 264.9,335.7 264.9,335.8 264.8,335.9 264.7,335.9 264.5,336.0 264.3,336.0 264.2,336.1 264.2,336.2 264.2,336.2 264.2,336.3 264.3,336.3 264.4,336.4 264.5,336.4 264.6,336.5 264.7,336.6 264.7,336.6 264.6,336.7 264.5,336.7 264.3,336.8 264.0,336.8 263.7,336.9 263.2,337.0 262.7,337.0 262.1,337.1 261.6,337.1 261.1,337.2 260.7,337.2 260.3,337.3 259.8,337.4 259.1,337.4 258.1,337.5 256.6,337.5 254.5,337.6 251.6,337.7 248.1,337.7 244.4,337.8 241.2,337.8 238.9,337.9 237.6,337.9 236.6,338.0 234.9,338.1 231.4,338.1 225.9,338.2 218.9,338.2 212.1,338.3 207.8,338.3 207.6,338.4 212.1,338.5 220.3,338.5 230.3,338.6 239.9,338.6 247.6,338.7 253.0,338.8 256.1,338.8 257.5,338.9 257.9,338.9 257.6,339.0 256.9,339.0 256.2,339.1 255.5,339.2 255.1,339.2 255.3,339.3 256.1,339.3 257.5,339.4 259.2,339.4 261.0,339.5 262.5,339.6 263.6,339.6 264.3,339.7 264.7,339.7 264.9,339.8" fill="#d33" opacity="0.5" stroke="#d33" stroke-width="1"/>
<line x1="207.3" y1="338.3601943069462" x2="322.7" y2="338.3601943069462" stroke="#114" stroke-width="2"/>
<circle cx="265.0" cy="339.1788585032849" r="2.4" fill="#114"/>
<text x="265.0" y="330.117807935484" text-anchor="middle" font-size="11">1.00</text>
<text x="265.0" y="376" text-anchor="middle" font-size="12">dot</text>
<polygon points="414.5,251.2 417.5,248.4 420.8,245.5 424.3,242.7 427.8,239.8 431.2,237.0 434.3,234.2 437.0,231.3 439.0,228.5 440.3,225.7 440.8,222.8 440.5,220.0 439.4,217.2 437.6,214.3 435.2,211.5 432.4,208.7 429.3,205.8 426.1,203.0 422.9,200.2 420.0,197.3 417.4,194.5 415.2,191.7 413.5,188.8 412.4,186.0 411.9,183.2 412.0,180.3 412.8,177.5 414.3,174.7 416.4,171.8 419.2,169.0 422.6,166.2 426.5,163.3 430.8,160.5 435.3,157.7 440.0,154.8 444.5,152.0 448.7,149.2 452.3,146.3 455.3,143.5 457.4,140.7 458.7,137.8 459.1,135.0 458.7,132.2 457.7,129.3 456.2,126.5 454.5,123.7 452.5,120.8 450.6,118.0 448.7,115.2 446.8,112.3 445.2,109.5 443.6,106.7 442.0,103.8 440.5,101.0 439.1,98.2 437.7,95.3 436.4,92.5 435.2,89.7 434.1,86.8 433.1,84.0 432.1,81.2 431.2,78.3 430.3,75.5 429.2,72.7 428.0,69.8 426.5,67.0 424.8,64.2 422.9,61.3 420.8,58.5 418.6,55.7 416.3,52.8 414.1,50.0 389.3,50.0 387.0,52.8 384.7,55.7 382.5,58.5 380.4,61.3 378.5,64.2 376.8,67.0 375.4,69.8 374.1,72.7 373.1,75.5 372.1,78.3 371.2,81.2 370.2,84.0 369.2,86.8 368.1,89.7 366.9,92.5 365.6,95.3 364.2,98.2 362.8,101.0 361.3,103.8 359.8,106.7 358.2,109.5 356.5,112.3 354.7,115.2 352.8,118.0 350.8,120.8 348.9,123.7 347.1,126.5 345.6,129.3 344.6,132.2 344.3,135.0 344.7,137.8 345.9,140.7 348.1,143.5 351.0,146.3 354.7,149.2 358.8,152.0 363.4,154.8 368.0,157.7 372.5,160.5 376.8,163.3 380.7,166.2 384.1,169.0 386.9,171.8 389.0,174.7 390.5,177.5 391.3,180.3 391.4,183.2 390.9,186.0 389.8,188.8 388.1,191.7 386.0,194.5 383.3,197.3 380.4,200.2 377.2,203.0 374.0,205.8 370.9,208.7 368.1,211.5 365.7,214.3 363.9,217.2 362.8,220.0 362.5,222.8 363.0,225.7 364.3,228.5 366.4,231.3 369.0,234.2 372.1,237.0 375.5,239.8 379.0,242.7 382.5,245.5 385.8,248.4 388.9,251.2" fill="#2a8" opacity="0.5" stroke="#2a8" stroke-width="1"/>
<line x1="344.5" y1="137.05275109265114" x2="458.9" y2="137.05275109265114" stroke="#114" stroke-width="2"/>
<circle cx="401.66666666666663" cy="227.83622600895225" r="2.4" fill="#114"/>
<text x="401.66666666666663" y="61.433962264150935" text-anchor="middle" font-size="11">11.25</text>
<text x="401.66666666666663" y="376" text-anchor="middle" font-size="12">nrm2</text>
<polygon points="540.7,340.4 541.9,340.2 543.7,340.1 546.1,339.9 549.3,339.8 553.2,339.6 557.9,339.5 563.4,339.4 569.3,339.2 575.4,339.1 581.4,338.9 586.8,338.8 591.2,338.6 594.2,338.5 595.7,338.3 595.6,338.2 593.9,338.0 590.9,337.9 587.0,337.7 582.4,337.6 577.7,337.4 573.2,337.3 569.1,337.1 565.5,337.0 562.4,336.8 559.9,336.7 557.7,336.5 555.7,336.4 553.9,336.2 552.1,336.1 550.3,335.9 548.5,335.8 546.8,335.6 545.2,335.5 543.7,335.3 542.4,335.2 541.3,335.0 540.5,334.9 539.8,334.7 539.3,334.6 539.0,334.4 538.8,334.3 538.7,334.1 538.7,334.0 538.7,333.8 538.8,333.7 538.9,333.5 539.2,333.4 539.5,333.2 539.9,333.1 540.5,332.9 541.2,332.8 542.1,332.6 543.1,332.5 544.2,332.3 545.4,332.2 546.6,332.0 547.7,331.9 548.7,331.7 549.4,331.6 549.8,331.4 549.8,331.3 549.5,331.1 548.8,331.0 547.9,330.8 546.7,330.7 545.5,330.5 544.2,330.4 543.0,330.2 541.9,330.1 541.0,329.9 540.3,329.8 536.4,329.8 535.7,329.9 534.8,330.1 533.7,330.2 532.5,330.4 531.2,330.5 530.0,330.7 528.8,330.8 527.9,331.0 527.2,331.1 526.8,331.3 526.9,331.4 527.3,331.6 528.0,331.7 529.0,331.9 530.1,332.0 531.3,332.2 532.5,332.3 533.6,332.5 534.6,332.6 535.5,332.8 536.2,332.9 536.7,333.1 537.2,333.2 537.5,333.4 537.7,333.5 537.9,333.7 538.0,333.8 538.0,334.0 538.0,334.1 537.9,334.3 537.7,334.4 537.3,334.6 536.9,334.7 536.2,334.9 535.3,335.0 534.3,335.2 533.0,335.3 531.5,335.5 529.9,335.6 528.1,335.8 526.4,335.9 524.6,336.1 522.8,336.2 520.9,336.4 519.0,336.5 516.8,336.7 514.2,336.8 511.2,337.0 507.6,337.1 503.4,337.3 498.9,337.4 494.2,337.6 489.7,337.7 485.7,337.9 482.7,338.0 481.1,338.2 480.9,338.3 482.4,338.5 485.5,338.6 489.9,338.8 495.3,338.9 501.3,339.1 507.4,339.2 513.3,339.4 518.7,339.5 523.5,339.6 527.4,339.8 530.6,339.9 533.0,340.1 534.7,340.2 536.0,340.4" fill="#2a8" opacity="0.5" stroke="#2a8" stroke-width="1"/>
<line x1="480.9" y1="338.1814447281131" x2="595.7" y2="338.1814447281131" stroke="#114" stroke-width="2"/>
<circle cx="538.3333333333333" cy="338.62020214280517" r="2.4" fill="#114"/>
<text x="538.3333333333333" y="324.8322393764246" text-anchor="middle" font-size="11">1.01</text>
<text x="538.3333333333333" y="376" text-anchor="middle" font-size="12">asum</text>
<polygon points="678.2,340.0 679.7,339.9 681.6,339.7 684.0,339.6 687.0,339.5 690.6,339.4 694.6,339.2 699.1,339.1 703.9,339.0 708.8,338.8 713.6,338.7 718.3,338.6 722.5,338.5 726.1,338.3 729.0,338.2 731.1,338.1 732.2,337.9 732.4,337.8 731.6,337.7 729.8,337.5 727.2,337.4 723.9,337.3 720.1,337.2 715.8,337.0 711.4,336.9 706.9,336.8 702.5,336.6 698.4,336.5 694.5,336.4 691.0,336.3 687.9,336.1 685.2,336.0 682.9,335.9 681.0,335.7 679.4,335.6 678.2,335.5 677.2,335.4 676.5,335.2 676.1,335.1 675.7,335.0 675.5,334.8 675.4,334.7 675.4,334.6 675.5,334.4 675.7,334.3 675.9,334.2 676.2,334.1 676.6,333.9 677.0,333.8 677.6,333.7 678.2,333.5 678.9,333.4 679.7,333.3 680.5,333.2 681.4,333.0 682.3,332.9 683.3,332.8 684.2,332.6 685.0,332.5 685.7,332.4 686.1,332.3 686.3,332.1 686.2,332.0 685.7,331.9 685.0,331.7 684.1,331.6 683.0,331.5 681.8,331.4 680.6,331.2 679.4,331.1 678.4,331.0 677.5,330.8 672.5,330.8 671.6,331.0 670.6,331.1 669.4,331.2 668.2,331.4 667.0,331.5 665.9,331.6 665.0,331.7 664.3,331.9 663.8,332.0 663.7,332.1 663.9,332.3 664.3,332.4 665.0,332.5 665.8,332.6 666.7,332.8 667.7,332.9 668.6,333.0 669.5,333.2 670.3,333.3 671.1,333.4 671.8,333.5 672.4,333.7 673.0,333.8 673.4,333.9 673.8,334.1 674.1,334.2 674.3,334.3 674.5,334.4 674.6,334.6 674.6,334.7 674.5,334.8 674.3,335.0 673.9,335.1 673.5,335.2 672.8,335.4 671.8,335.5 670.6,335.6 669.0,335.7 667.1,335.9 664.8,336.0 662.1,336.1 659.0,336.3 655.5,336.4 651.6,336.5 647.5,336.6 643.1,336.8 638.6,336.9 634.2,337.0 629.9,337.2 626.1,337.3 622.8,337.4 620.2,337.5 618.4,337.7 617.6,337.8 617.8,337.9 618.9,338.1 621.0,338.2 623.9,338.3 627.5,338.5 631.7,338.6 636.4,338.7 641.2,338.8 646.1,339.0 650.9,339.1 655.4,339.2 659.4,339.4 663.0,339.5 666.0,339.6 668.4,339.7 670.3,339.9 671.8,340.0" fill="#2a8" opacity="0.5" stroke="#2a8" stroke-width="1"/>
<line x1="618.9" y1="337.63786635376806" x2="731.1" y2="337.63786635376806" stroke="#114" stroke-width="2"/>
<circle cx="675.0" cy="338.65938213305935" r="2.4" fill="#114"/>
<text x="675.0" y="325.7535680277694" text-anchor="middle" font-size="11">1.04</text>
<text x="675.0" y="376" text-anchor="middle" font-size="12">scal</text>
<polygon points="813.7,345.5 814.7,345.0 816.0,344.5 817.6,344.0 819.6,343.5 822.0,342.9 824.7,342.4 827.8,341.9 831.1,341.4 834.5,340.9 838.0,340.3 841.4,339.8 844.7,339.3 847.7,338.8 850.4,338.3 852.8,337.7 854.9,337.2 856.7,336.7 858.1,336.2 859.3,335.7 860.1,335.1 860.8,334.6 861.2,334.1 861.4,333.6 861.6,333.1 861.6,332.5 861.6,332.0 861.6,331.5 861.7,331.0 861.8,330.5 862.1,329.9 862.4,329.4 862.9,328.9 863.5,328.4 864.2,327.9 864.9,327.3 865.6,326.8 866.4,326.3 867.0,325.8 867.6,325.3 868.1,324.7 868.5,324.2 868.8,323.7 869.0,323.2 869.1,322.6 869.0,322.1 868.9,321.6 868.7,321.1 868.3,320.6 867.8,320.0 867.2,319.5 866.4,319.0 865.4,318.5 864.3,318.0 862.9,317.4 861.4,316.9 859.6,316.4 857.4,315.9 855.0,315.4 852.1,314.8 848.9,314.3 845.4,313.8 841.6,313.3 837.7,312.8 833.7,312.2 829.9,311.7 826.4,311.2 823.2,310.7 820.4,310.2 818.1,309.6 816.3,309.1 814.9,308.6 808.5,308.6 807.0,309.1 805.2,309.6 802.9,310.2 800.2,310.7 797.0,311.2 793.4,311.7 789.6,312.2 785.7,312.8 781.7,313.3 777.9,313.8 774.4,314.3 771.2,314.8 768.4,315.4 765.9,315.9 763.8,316.4 762.0,316.9 760.4,317.4 759.1,318.0 757.9,318.5 757.0,319.0 756.2,319.5 755.5,320.0 755.0,320.6 754.7,321.1 754.4,321.6 754.3,322.1 754.3,322.6 754.3,323.2 754.5,323.7 754.8,324.2 755.2,324.7 755.7,325.3 756.3,325.8 757.0,326.3 757.7,326.8 758.4,327.3 759.2,327.9 759.8,328.4 760.4,328.9 760.9,329.4 761.3,329.9 761.5,330.5 761.7,331.0 761.7,331.5 761.7,332.0 761.7,332.5 761.8,333.1 761.9,333.6 762.1,334.1 762.6,334.6 763.2,335.1 764.1,335.7 765.2,336.2 766.7,336.7 768.4,337.2 770.5,337.7 772.9,338.3 775.7,338.8 778.7,339.3 781.9,339.8 785.3,340.3 788.8,340.9 792.3,341.4 795.5,341.9 798.6,342.4 801.4,342.9 803.7,343.5 805.7,344.0 807.4,344.5 808.6,345.0 809.6,345.5" fill="#2a8" opacity="0.5" stroke="#2a8" stroke-width="1"/>
<line x1="756.6" y1="326.021590809874" x2="866.7" y2="326.021590809874" stroke="#114" stroke-width="2"/>
<circle cx="811.6666666666666" cy="330.6632031833453" r="2.4" fill="#114"/>
<text x="811.6666666666666" y="306.20540195757803" text-anchor="middle" font-size="11">1.63</text>
<text x="811.6666666666666" y="376" text-anchor="middle" font-size="12">iamax</text>
<text x="450.0" y="428" text-anchor="middle" font-size="11" fill="#666">violin = ratio distribution over sizes · line = median · dark dot = worst size · green = every size ≥ gate</text>
</svg>
