<svg xmlns="http://www.w3.org/2000/svg" width="900" height="440" font-family="sans-serif">
<rect width="900" height="440" fill="white"/>
<text x="450.0" y="28" text-anchor="middle" font-size="18" font-weight="bold">BLAS-2: PureBLAS / OpenBLAS (AVX-512 native (Zen5), 1 thread, Float64)</text>
<line x1="60" y1="358.0" x2="880" y2="358.0" stroke="#eee"/>
<text x="52" y="362.0" text-anchor="end" font-size="11" fill="#666">0×</text>
<line x1="60" y1="283.05648509852006" x2="880" y2="283.05648509852006" stroke="#eee"/>
<text x="52" y="287.05648509852006" text-anchor="end" font-size="11" fill="#666">0.5×</text>
<line x1="60" y1="208.11297019704003" x2="880" y2="208.11297019704003" stroke="#eee"/>
<text x="52" y="212.11297019704003" text-anchor="end" font-size="11" fill="#666">1×</text>
<line x1="60" y1="133.16945529556003" x2="880" y2="133.16945529556003" stroke="#eee"/>
<text x="52" y="137.16945529556003" text-anchor="end" font-size="11" fill="#666">1.5×</text>
<line x1="60" y1="208.11297019704003" x2="880" y2="208.11297019704003" stroke="#888" stroke-width="1"/>
<line x1="60" y1="214.10845138915843" x2="880" y2="214.10845138915843" stroke="#d33" stroke-width="1.5" stroke-dasharray="6 4"/>
<text x="880" y="209.10845138915843" text-anchor="end" font-size="11" fill="#d33">0.96× gate</text>
<polygon points="108.9,255.6 110.4,252.7 112.4,249.8 114.8,246.9 117.7,244.0 121.0,241.1 124.6,238.3 128.4,235.4 132.1,232.5 135.6,229.6 138.7,226.7 141.2,223.8 142.9,220.9 143.8,218.0 143.8,215.1 142.9,212.2 141.2,209.3 138.7,206.4 135.7,203.5 132.3,200.6 128.8,197.7 125.2,194.8 121.8,191.9 118.6,189.0 115.8,186.1 113.4,183.2 111.3,180.3 109.7,177.4 108.5,174.5 107.5,171.6 106.8,168.7 106.4,165.8 106.1,163.0 105.9,160.1 105.9,157.2 105.9,154.3 106.0,151.4 106.1,148.5 106.4,145.6 106.7,142.7 107.0,139.8 107.4,136.9 107.8,134.0 108.2,131.1 108.5,128.2 108.8,125.3 109.0,122.4 109.1,119.5 109.1,116.6 109.0,113.7 108.9,110.8 108.9,107.9 108.9,105.0 109.0,102.1 109.2,99.2 109.5,96.3 109.8,93.4 110.0,90.5 110.2,87.7 110.3,84.8 110.3,81.9 110.1,79.0 109.7,76.1 109.3,73.2 108.8,70.3 108.2,67.4 107.7,64.5 107.2,61.6 106.8,58.7 106.5,55.8 106.2,52.9 106.0,50.0 105.1,50.0 104.9,52.9 104.6,55.8 104.3,58.7 103.9,61.6 103.4,64.5 102.9,67.4 102.3,70.3 101.8,73.2 101.4,76.1 101.0,79.0 100.8,81.9 100.8,84.8 100.9,87.7 101.1,90.5 101.4,93.4 101.7,96.3 101.9,99.2 102.1,102.1 102.2,105.0 102.2,107.9 102.2,110.8 102.1,113.7 102.1,116.6 102.0,119.5 102.1,122.4 102.3,125.3 102.6,128.2 102.9,131.1 103.3,134.0 103.7,136.9 104.1,139.8 104.5,142.7 104.8,145.6 105.0,148.5 105.1,151.4 105.2,154.3 105.2,157.2 105.2,160.1 105.0,163.0 104.7,165.8 104.3,168.7 103.6,171.6 102.7,174.5 101.4,177.4 99.8,180.3 97.8,183.2 95.3,186.1 92.5,189.0 89.3,191.9 85.9,194.8 82.3,197.7 78.8,200.6 75.4,203.5 72.4,206.4 69.9,209.3 68.2,212.2 67.3,215.1 67.3,218.0 68.2,220.9 69.9,223.8 72.4,226.7 75.5,229.6 79.0,232.5 82.7,235.4 86.5,238.3 90.1,241.1 93.4,244.0 96.3,246.9 98.7,249.8 100.7,252.7 102.2,255.6" fill="#d33" opacity="0.5" stroke="#d33" stroke-width="1"/>
<line x1="67.8" y1="213.22800760088458" x2="143.3" y2="213.22800760088458" stroke="#114" stroke-width="2"/>
<circle cx="105.55555555555556" cy="229.4380730265464" r="2.4" fill="#114"/>
<text x="105.55555555555556" y="61.43396226415098" text-anchor="middle" font-size="11">0.97</text>
<text x="105.55555555555556" y="376" text-anchor="middle" font-size="12">gemvN</text>
<polygon points="205.0,207.7 207.3,207.0 209.8,206.4 212.6,205.8 215.7,205.2 218.8,204.5 221.9,203.9 225.0,203.3 227.8,202.6 230.2,202.0 232.2,201.4 233.7,200.8 234.6,200.1 234.9,199.5 234.7,198.9 233.9,198.3 232.6,197.6 230.9,197.0 228.9,196.4 226.5,195.8 224.0,195.1 221.4,194.5 218.7,193.9 216.1,193.3 213.6,192.6 211.2,192.0 209.0,191.4 207.2,190.8 205.5,190.1 204.3,189.5 203.3,188.9 202.6,188.3 202.2,187.6 202.1,187.0 202.3,186.4 202.6,185.8 203.1,185.1 203.6,184.5 204.3,183.9 204.9,183.3 205.5,182.6 206.1,182.0 206.6,181.4 207.1,180.8 207.5,180.1 207.9,179.5 208.4,178.9 208.8,178.3 209.4,177.6 209.9,177.0 210.5,176.4 211.1,175.8 211.7,175.1 212.3,174.5 212.7,173.9 213.0,173.3 213.2,172.6 213.2,172.0 212.9,171.4 212.5,170.8 211.8,170.1 211.0,169.5 210.0,168.9 208.8,168.3 207.6,167.6 206.4,167.0 205.1,166.4 203.9,165.8 202.7,165.1 201.7,164.5 200.7,163.9 199.9,163.3 193.4,163.3 192.6,163.9 191.6,164.5 190.6,165.1 189.4,165.8 188.2,166.4 187.0,167.0 185.7,167.6 184.5,168.3 183.4,168.9 182.4,169.5 181.5,170.1 180.9,170.8 180.4,171.4 180.2,172.0 180.1,172.6 180.3,173.3 180.6,173.9 181.1,174.5 181.6,175.1 182.2,175.8 182.8,176.4 183.4,177.0 184.0,177.6 184.5,178.3 184.9,178.9 185.4,179.5 185.8,180.1 186.3,180.8 186.7,181.4 187.3,182.0 187.8,182.6 188.4,183.3 189.1,183.9 189.7,184.5 190.3,185.1 190.7,185.8 191.1,186.4 191.2,187.0 191.1,187.6 190.7,188.3 190.1,188.9 189.1,189.5 187.8,190.1 186.2,190.8 184.3,191.4 182.1,192.0 179.8,192.6 177.2,193.3 174.6,193.9 171.9,194.5 169.3,195.1 166.8,195.8 164.5,196.4 162.4,197.0 160.7,197.6 159.4,198.3 158.7,198.9 158.4,199.5 158.7,200.1 159.6,200.8 161.1,201.4 163.1,202.0 165.6,202.6 168.4,203.3 171.4,203.9 174.5,204.5 177.7,205.2 180.7,205.8 183.5,206.4 186.1,207.0 188.3,207.7" fill="#2a8" opacity="0.5" stroke="#2a8" stroke-width="1"/>
<line x1="165.2" y1="196.2039042649028" x2="228.2" y2="196.2039042649028" stroke="#114" stroke-width="2"/>
<circle cx="196.66666666666669" cy="201.3571525087102" r="2.4" fill="#114"/>
<text x="196.66666666666669" y="161.78879275510826" text-anchor="middle" font-size="11">1.08</text>
<text x="196.66666666666669" y="376" text-anchor="middle" font-size="12">gemvT</text>
<polygon points="289.6,268.3 290.5,266.2 291.7,264.0 293.2,261.9 294.9,259.7 296.8,257.6 298.6,255.4 300.4,253.2 301.8,251.1 303.0,248.9 303.8,246.8 304.1,244.6 303.9,242.5 303.4,240.3 302.4,238.2 301.1,236.0 299.6,233.9 298.2,231.7 297.0,229.6 296.3,227.4 296.5,225.3 297.6,223.1 299.9,221.0 303.3,218.8 307.5,216.7 312.3,214.5 317.1,212.3 321.3,210.2 324.4,208.0 326.0,205.9 326.0,203.7 324.2,201.6 321.0,199.4 316.9,197.3 312.3,195.1 307.7,193.0 303.6,190.8 300.2,188.7 297.6,186.5 295.9,184.4 294.9,182.2 294.4,180.1 294.3,177.9 294.3,175.8 294.3,173.6 294.3,171.5 294.1,169.3 293.8,167.1 293.2,165.0 292.6,162.8 291.9,160.7 291.2,158.5 290.5,156.4 289.9,154.2 289.5,152.1 289.2,149.9 289.1,147.8 289.1,145.6 289.3,143.5 289.6,141.3 289.9,139.2 290.2,137.0 290.4,134.9 290.5,132.7 290.5,130.6 290.4,128.4 290.1,126.3 289.8,124.1 289.4,121.9 289.0,119.8 288.7,117.6 288.4,115.5 287.2,115.5 286.9,117.6 286.6,119.8 286.2,121.9 285.8,124.1 285.4,126.3 285.2,128.4 285.0,130.6 285.0,132.7 285.1,134.9 285.4,137.0 285.7,139.2 286.0,141.3 286.3,143.5 286.4,145.6 286.5,147.8 286.4,149.9 286.1,152.1 285.7,154.2 285.1,156.4 284.4,158.5 283.7,160.7 283.0,162.8 282.3,165.0 281.8,167.1 281.4,169.3 281.3,171.5 281.2,173.6 281.3,175.8 281.3,177.9 281.2,180.1 280.7,182.2 279.7,184.4 277.9,186.5 275.4,188.7 272.0,190.8 267.8,193.0 263.3,195.1 258.7,197.3 254.5,199.4 251.4,201.6 249.6,203.7 249.5,205.9 251.1,208.0 254.3,210.2 258.5,212.3 263.3,214.5 268.1,216.7 272.3,218.8 275.7,221.0 277.9,223.1 279.1,225.3 279.2,227.4 278.6,229.6 277.4,231.7 275.9,233.9 274.5,236.0 273.2,238.2 272.2,240.3 271.6,242.5 271.5,244.6 271.8,246.8 272.6,248.9 273.7,251.1 275.2,253.2 276.9,255.4 278.8,257.6 280.6,259.7 282.3,261.9 283.8,264.0 285.0,266.2 286.0,268.3" fill="#d33" opacity="0.5" stroke="#d33" stroke-width="1"/>
<line x1="250.1" y1="207.00672892178892" x2="325.4" y2="207.00672892178892" stroke="#114" stroke-width="2"/>
<circle cx="287.77777777777777" cy="250.68813478445566" r="2.4" fill="#114"/>
<text x="287.77777777777777" y="124.52038602978979" text-anchor="middle" font-size="11">1.01</text>
<text x="287.77777777777777" y="376" text-anchor="middle" font-size="12">ger</text>
<polygon points="379.7,222.2 380.0,221.1 380.4,220.1 380.9,219.1 381.3,218.1 381.7,217.1 382.1,216.1 382.3,215.1 382.4,214.0 382.3,213.0 382.2,212.0 382.0,211.0 381.9,210.0 381.9,209.0 382.3,208.0 383.0,206.9 384.1,205.9 385.8,204.9 387.9,203.9 390.3,202.9 393.0,201.9 395.8,200.9 398.2,199.9 400.1,198.8 401.3,197.8 401.6,196.8 401.1,195.8 399.8,194.8 398.1,193.8 396.3,192.8 394.8,191.7 393.9,190.7 394.0,189.7 395.1,188.7 397.4,187.7 400.6,186.7 404.3,185.7 408.2,184.6 411.8,183.6 414.7,182.6 416.5,181.6 417.2,180.6 416.7,179.6 415.3,178.6 413.3,177.5 411.0,176.5 408.8,175.5 406.7,174.5 404.7,173.5 402.9,172.5 401.1,171.5 399.2,170.4 397.3,169.4 395.5,168.4 393.9,167.4 392.7,166.4 392.0,165.4 391.8,164.4 391.9,163.3 392.4,162.3 392.8,161.3 393.0,160.3 392.8,159.3 392.2,158.3 391.0,157.3 389.6,156.2 387.8,155.2 386.1,154.2 384.4,153.2 382.9,152.2 381.7,151.2 380.8,150.2 377.0,150.2 376.1,151.2 374.9,152.2 373.4,153.2 371.7,154.2 369.9,155.2 368.2,156.2 366.7,157.3 365.6,158.3 365.0,159.3 364.8,160.3 365.0,161.3 365.4,162.3 365.8,163.3 366.0,164.4 365.8,165.4 365.1,166.4 363.9,167.4 362.3,168.4 360.5,169.4 358.6,170.4 356.7,171.5 354.9,172.5 353.1,173.5 351.1,174.5 349.0,175.5 346.8,176.5 344.5,177.5 342.5,178.6 341.1,179.6 340.6,180.6 341.3,181.6 343.1,182.6 346.0,183.6 349.6,184.6 353.5,185.7 357.2,186.7 360.4,187.7 362.6,188.7 363.8,189.7 363.9,190.7 363.0,191.7 361.5,192.8 359.7,193.8 358.0,194.8 356.7,195.8 356.1,196.8 356.5,197.8 357.7,198.8 359.6,199.9 362.0,200.9 364.7,201.9 367.4,202.9 369.9,203.9 372.0,204.9 373.6,205.9 374.8,206.9 375.5,208.0 375.8,209.0 375.9,210.0 375.8,211.0 375.6,212.0 375.5,213.0 375.4,214.0 375.5,215.1 375.7,216.1 376.0,217.1 376.5,218.1 376.9,219.1 377.3,220.1 377.7,221.1 378.1,222.2" fill="#2a8" opacity="0.5" stroke="#2a8" stroke-width="1"/>
<line x1="340.7" y1="180.83599924322525" x2="417.1" y2="180.83599924322525" stroke="#114" stroke-width="2"/>
<circle cx="378.8888888888889" cy="197.81853158453538" r="2.4" fill="#114"/>
<text x="378.8888888888889" y="151.36498128641153" text-anchor="middle" font-size="11">1.18</text>
<text x="378.8888888888889" y="376" text-anchor="middle" font-size="12">symv</text>
<polygon points="470.9,252.7 471.3,250.9 471.8,249.1 472.5,247.3 473.2,245.4 474.0,243.6 475.0,241.8 476.0,240.0 477.1,238.2 478.4,236.4 480.1,234.6 482.1,232.7 484.6,230.9 487.5,229.1 490.7,227.3 494.0,225.5 497.1,223.7 499.9,221.8 502.1,220.0 503.7,218.2 504.7,216.4 505.5,214.6 506.1,212.8 506.8,211.0 507.4,209.1 508.0,207.3 508.3,205.5 508.0,203.7 507.2,201.9 505.7,200.1 503.9,198.3 502.0,196.4 500.5,194.6 499.6,192.8 499.5,191.0 500.1,189.2 501.2,187.4 502.3,185.5 503.1,183.7 503.1,181.9 502.2,180.1 500.4,178.3 497.8,176.5 494.7,174.7 491.4,172.8 488.4,171.0 485.7,169.2 483.5,167.4 481.9,165.6 480.7,163.8 479.7,161.9 479.1,160.1 478.5,158.3 478.2,156.5 477.9,154.7 477.9,152.9 478.0,151.1 478.2,149.2 478.6,147.4 478.9,145.6 479.1,143.8 479.2,142.0 478.9,140.2 478.4,138.3 477.7,136.5 476.8,134.7 475.7,132.9 474.6,131.1 473.6,129.3 472.7,127.5 471.9,125.6 471.3,123.8 468.7,123.8 468.1,125.6 467.3,127.5 466.4,129.3 465.4,131.1 464.3,132.9 463.2,134.7 462.3,136.5 461.6,138.3 461.1,140.2 460.8,142.0 460.9,143.8 461.1,145.6 461.4,147.4 461.8,149.2 462.0,151.1 462.1,152.9 462.1,154.7 461.8,156.5 461.5,158.3 460.9,160.1 460.3,161.9 459.3,163.8 458.1,165.6 456.5,167.4 454.3,169.2 451.6,171.0 448.6,172.8 445.3,174.7 442.2,176.5 439.6,178.3 437.8,180.1 436.9,181.9 436.9,183.7 437.7,185.5 438.8,187.4 439.9,189.2 440.5,191.0 440.4,192.8 439.5,194.6 438.0,196.4 436.1,198.3 434.3,200.1 432.8,201.9 432.0,203.7 431.7,205.5 432.0,207.3 432.6,209.1 433.2,211.0 433.9,212.8 434.5,214.6 435.3,216.4 436.3,218.2 437.9,220.0 440.1,221.8 442.9,223.7 446.0,225.5 449.3,227.3 452.5,229.1 455.4,230.9 457.9,232.7 459.9,234.6 461.6,236.4 462.9,238.2 464.0,240.0 465.0,241.8 466.0,243.6 466.8,245.4 467.5,247.3 468.2,249.1 468.7,250.9 469.1,252.7" fill="#d33" opacity="0.5" stroke="#d33" stroke-width="1"/>
<line x1="433.4" y1="201.05165862154902" x2="506.6" y2="201.05165862154902" stroke="#114" stroke-width="2"/>
<circle cx="470.0" cy="219.94542512449027" r="2.4" fill="#114"/>
<text x="470.0" y="130.53928663209933" text-anchor="middle" font-size="11">1.05</text>
<text x="470.0" y="376" text-anchor="middle" font-size="12">trmv</text>
<polygon points="564.7,231.4 566.0,230.4 567.7,229.4 569.7,228.5 572.0,227.5 574.5,226.5 577.2,225.6 579.9,224.6 582.5,223.7 584.9,222.7 586.9,221.7 588.6,220.8 589.9,219.8 590.8,218.8 591.4,217.9 591.8,216.9 592.1,215.9 592.4,215.0 592.8,214.0 593.5,213.1 594.4,212.1 595.5,211.1 596.8,210.2 597.9,209.2 598.9,208.2 599.4,207.3 599.3,206.3 598.6,205.3 597.3,204.4 595.3,203.4 592.9,202.5 590.2,201.5 587.6,200.5 585.2,199.6 583.4,198.6 582.2,197.6 581.9,196.7 582.3,195.7 583.4,194.8 585.0,193.8 587.0,192.8 589.1,191.9 591.1,190.9 592.7,189.9 593.8,189.0 594.3,188.0 594.2,187.0 593.5,186.1 592.3,185.1 590.7,184.2 588.8,183.2 586.9,182.2 585.0,181.3 583.3,180.3 581.7,179.3 580.4,178.4 579.3,177.4 578.4,176.4 577.5,175.5 576.8,174.5 576.1,173.6 575.3,172.6 574.4,171.6 573.5,170.7 572.4,169.7 571.2,168.7 570.0,167.8 568.7,166.8 567.4,165.8 566.2,164.9 565.2,163.9 564.2,163.0 558.0,163.0 557.0,163.9 556.0,164.9 554.8,165.8 553.5,166.8 552.3,167.8 551.0,168.7 549.8,169.7 548.8,170.7 547.8,171.6 546.9,172.6 546.2,173.6 545.4,174.5 544.7,175.5 543.9,176.4 542.9,177.4 541.8,178.4 540.5,179.3 538.9,180.3 537.2,181.3 535.3,182.2 533.4,183.2 531.6,184.2 530.0,185.1 528.7,186.1 528.0,187.0 527.9,188.0 528.4,189.0 529.5,189.9 531.2,190.9 533.1,191.9 535.2,192.8 537.2,193.8 538.8,194.8 539.9,195.7 540.4,196.7 540.0,197.6 538.8,198.6 537.0,199.6 534.6,200.5 532.0,201.5 529.4,202.5 526.9,203.4 525.0,204.4 523.6,205.3 522.9,206.3 522.8,207.3 523.4,208.2 524.3,209.2 525.5,210.2 526.7,211.1 527.8,212.1 528.7,213.1 529.4,214.0 529.9,215.0 530.2,215.9 530.4,216.9 530.8,217.9 531.4,218.8 532.3,219.8 533.6,220.8 535.3,221.7 537.4,222.7 539.8,223.7 542.4,224.6 545.1,225.6 547.7,226.5 550.2,227.5 552.5,228.5 554.5,229.4 556.2,230.4 557.5,231.4" fill="#d33" opacity="0.5" stroke="#d33" stroke-width="1"/>
<line x1="526.6" y1="203.55186198449226" x2="595.6" y2="203.55186198449226" stroke="#114" stroke-width="2"/>
<circle cx="561.1111111111111" cy="220.16633330434342" r="2.4" fill="#114"/>
<text x="561.1111111111111" y="163.81821266274287" text-anchor="middle" font-size="11">1.03</text>
<text x="561.1111111111111" y="376" text-anchor="middle" font-size="12">trsv</text>
<polygon points="656.5,226.2 657.8,223.9 659.4,221.6 661.1,219.3 662.7,217.0 664.2,214.8 665.5,212.5 666.4,210.2 666.8,207.9 666.9,205.6 666.6,203.3 666.0,201.0 665.3,198.7 664.8,196.4 664.4,194.2 664.3,191.9 664.5,189.6 665.0,187.3 665.7,185.0 666.5,182.7 667.1,180.4 667.7,178.1 667.9,175.9 668.0,173.6 668.0,171.3 668.0,169.0 668.1,166.7 668.6,164.4 669.4,162.1 670.7,159.8 672.4,157.5 674.5,155.3 676.7,153.0 679.0,150.7 681.3,148.4 683.5,146.1 685.4,143.8 687.1,141.5 688.4,139.2 689.5,136.9 690.2,134.7 690.5,132.4 690.3,130.1 689.7,127.8 688.4,125.5 686.6,123.2 684.4,120.9 681.8,118.6 679.0,116.3 676.3,114.1 673.9,111.8 671.8,109.5 670.2,107.2 669.2,104.9 668.6,102.6 668.3,100.3 668.1,98.0 667.8,95.8 667.4,93.5 666.7,91.2 665.7,88.9 664.3,86.6 662.8,84.3 661.1,82.0 659.5,79.7 658.0,77.4 656.6,75.2 655.5,72.9 654.5,70.6 653.8,68.3 653.3,66.0 652.9,63.7 651.5,63.7 651.1,66.0 650.6,68.3 649.9,70.6 649.0,72.9 647.8,75.2 646.5,77.4 644.9,79.7 643.3,82.0 641.7,84.3 640.1,86.6 638.8,88.9 637.7,91.2 637.0,93.5 636.6,95.8 636.4,98.0 636.2,100.3 635.9,102.6 635.3,104.9 634.2,107.2 632.7,109.5 630.6,111.8 628.1,114.1 625.4,116.3 622.6,118.6 620.0,120.9 617.8,123.2 616.0,125.5 614.8,127.8 614.1,130.1 614.0,132.4 614.3,134.7 615.0,136.9 616.0,139.2 617.4,141.5 619.0,143.8 621.0,146.1 623.1,148.4 625.4,150.7 627.7,153.0 630.0,155.3 632.0,157.5 633.7,159.8 635.0,162.1 635.8,164.4 636.3,166.7 636.4,169.0 636.4,171.3 636.4,173.6 636.5,175.9 636.8,178.1 637.3,180.4 638.0,182.7 638.7,185.0 639.4,187.3 639.9,189.6 640.1,191.9 640.1,194.2 639.7,196.4 639.1,198.7 638.4,201.0 637.9,203.3 637.6,205.6 637.6,207.9 638.1,210.2 639.0,212.5 640.2,214.8 641.7,217.0 643.4,219.3 645.0,221.6 646.6,223.9 648.0,226.2" fill="#2a8" opacity="0.5" stroke="#2a8" stroke-width="1"/>
<line x1="616.0" y1="139.18459131645244" x2="688.5" y2="139.18459131645244" stroke="#114" stroke-width="2"/>
<circle cx="652.2222222222223" cy="209.03453519859414" r="2.4" fill="#114"/>
<text x="652.2222222222223" y="73.67773896702528" text-anchor="middle" font-size="11">1.46</text>
<text x="652.2222222222223" y="376" text-anchor="middle" font-size="12">spmv</text>
<polygon points="743.3,185.4 743.4,184.3 743.5,183.2 743.9,182.0 744.9,180.9 747.1,179.8 751.0,178.7 757.1,177.5 764.9,176.4 773.0,175.3 779.2,174.2 781.6,173.0 779.7,171.9 774.5,170.8 768.0,169.7 762.0,168.5 757.4,167.4 754.1,166.3 751.7,165.2 750.0,164.0 748.9,162.9 748.6,161.8 749.0,160.7 749.7,159.5 750.4,158.4 750.5,157.3 750.0,156.2 749.0,155.0 747.8,153.9 746.8,152.8 746.0,151.7 745.5,150.5 745.0,149.4 744.6,148.3 744.2,147.2 743.9,146.0 743.6,144.9 743.5,143.8 743.4,142.6 743.4,141.5 743.3,140.4 743.3,139.3 743.3,138.1 743.3,137.0 743.3,135.9 743.3,134.8 743.3,133.6 743.3,132.5 743.4,131.4 743.4,130.3 743.4,129.1 743.5,128.0 743.5,126.9 743.5,125.8 743.5,124.6 743.5,123.5 743.6,122.4 743.6,121.3 743.7,120.1 743.7,119.0 743.7,117.9 743.7,116.8 743.7,115.6 743.6,114.5 743.6,113.4 743.5,112.3 743.5,111.1 743.4,110.0 743.4,108.9 743.4,107.8 743.3,106.6 743.3,105.5 743.3,105.5 743.3,106.6 743.3,107.8 743.3,108.9 743.2,110.0 743.2,111.1 743.1,112.3 743.1,113.4 743.0,114.5 743.0,115.6 742.9,116.8 742.9,117.9 742.9,119.0 743.0,120.1 743.1,121.3 743.1,122.4 743.1,123.5 743.1,124.6 743.1,125.8 743.2,126.9 743.2,128.0 743.2,129.1 743.3,130.3 743.3,131.4 743.3,132.5 743.3,133.6 743.3,134.8 743.3,135.9 743.3,137.0 743.3,138.1 743.3,139.3 743.3,140.4 743.3,141.5 743.3,142.6 743.2,143.8 743.0,144.9 742.8,146.0 742.4,147.2 742.1,148.3 741.6,149.4 741.2,150.5 740.6,151.7 739.9,152.8 738.9,153.9 737.7,155.0 736.7,156.2 736.1,157.3 736.3,158.4 736.9,159.5 737.7,160.7 738.1,161.8 737.8,162.9 736.7,164.0 735.0,165.2 732.6,166.3 729.3,167.4 724.6,168.5 718.6,169.7 712.1,170.8 707.0,171.9 705.1,173.0 707.5,174.2 713.7,175.3 721.8,176.4 729.6,177.5 735.7,178.7 739.6,179.8 741.7,180.9 742.7,182.0 743.1,183.2 743.3,184.3 743.3,185.4" fill="#2a8" opacity="0.5" stroke="#2a8" stroke-width="1"/>
<line x1="705.8" y1="172.30446275969163" x2="780.8" y2="172.30446275969163" stroke="#114" stroke-width="2"/>
<circle cx="743.3333333333334" cy="174.1815273063437" r="2.4" fill="#114"/>
<text x="743.3333333333334" y="107.49045304551652" text-anchor="middle" font-size="11">1.24</text>
<text x="743.3333333333334" y="376" text-anchor="middle" font-size="12">gbmvN</text>
<polygon points="834.7,193.8 834.9,193.1 835.0,192.4 835.3,191.7 835.5,191.0 835.8,190.2 836.2,189.5 836.6,188.8 837.1,188.1 837.7,187.4 838.5,186.7 839.5,186.0 840.7,185.2 842.4,184.5 844.4,183.8 846.9,183.1 849.8,182.4 853.1,181.7 856.7,180.9 860.3,180.2 863.9,179.5 867.1,178.8 869.8,178.1 871.7,177.4 872.7,176.7 872.7,175.9 871.8,175.2 870.0,174.5 867.6,173.8 864.7,173.1 861.5,172.4 858.4,171.7 855.4,170.9 852.7,170.2 850.4,169.5 848.5,168.8 847.1,168.1 846.0,167.4 845.3,166.6 844.9,165.9 844.6,165.2 844.4,164.5 844.1,163.8 843.7,163.1 843.1,162.4 842.3,161.6 841.3,160.9 840.3,160.2 839.2,159.5 838.3,158.8 837.5,158.1 836.9,157.3 836.6,156.6 836.5,155.9 836.8,155.2 837.3,154.5 838.1,153.8 839.1,153.1 840.2,152.3 841.4,151.6 842.5,150.9 843.4,150.2 844.0,149.5 844.2,148.8 843.9,148.0 843.3,147.3 842.4,146.6 841.3,145.9 840.1,145.2 838.9,144.5 837.8,143.8 836.9,143.0 832.0,143.0 831.1,143.8 830.0,144.5 828.8,145.2 827.6,145.9 826.5,146.6 825.6,147.3 825.0,148.0 824.7,148.8 824.9,149.5 825.5,150.2 826.4,150.9 827.5,151.6 828.6,152.3 829.8,153.1 830.8,153.8 831.6,154.5 832.1,155.2 832.4,155.9 832.3,156.6 832.0,157.3 831.4,158.1 830.6,158.8 829.7,159.5 828.6,160.2 827.6,160.9 826.6,161.6 825.8,162.4 825.2,163.1 824.8,163.8 824.5,164.5 824.3,165.2 824.0,165.9 823.6,166.6 822.9,167.4 821.8,168.1 820.4,168.8 818.5,169.5 816.2,170.2 813.5,170.9 810.5,171.7 807.4,172.4 804.2,173.1 801.3,173.8 798.9,174.5 797.1,175.2 796.2,175.9 796.2,176.7 797.2,177.4 799.1,178.1 801.8,178.8 805.0,179.5 808.5,180.2 812.2,180.9 815.8,181.7 819.1,182.4 822.0,183.1 824.5,183.8 826.5,184.5 828.2,185.2 829.4,186.0 830.4,186.7 831.2,187.4 831.8,188.1 832.3,188.8 832.7,189.5 833.1,190.2 833.4,191.0 833.6,191.7 833.9,192.4 834.0,193.1 834.2,193.8" fill="#2a8" opacity="0.5" stroke="#2a8" stroke-width="1"/>
<line x1="797.7" y1="174.96196743403442" x2="871.2" y2="174.96196743403442" stroke="#114" stroke-width="2"/>
<circle cx="834.4444444444445" cy="179.46874021797115" r="2.4" fill="#114"/>
<text x="834.4444444444445" y="142.19603046066158" text-anchor="middle" font-size="11">1.22</text>
<text x="834.4444444444445" y="376" text-anchor="middle" font-size="12">sbmv</text>
<text x="450.0" y="428" text-anchor="middle" font-size="11" fill="#666">violin = ratio distribution over sizes · line = median · dark dot = worst size · green = every size ≥ gate</text>
</svg>
