<svg xmlns="http://www.w3.org/2000/svg" width="900" height="440" font-family="sans-serif">
<rect width="900" height="440" fill="white"/>
<text x="450.0" y="28" text-anchor="middle" font-size="18" font-weight="bold">BLAS-1: PureBLAS / OpenBLAS (AVX2, 1 thread, Float64)</text>
<line x1="60" y1="358.0" x2="880" y2="358.0" stroke="#eee"/>
<text x="52" y="362.0" text-anchor="end" font-size="11" fill="#666">0×</text>
<line x1="60" y1="339.8227959902331" x2="880" y2="339.8227959902331" stroke="#eee"/>
<text x="52" y="343.8227959902331" text-anchor="end" font-size="11" fill="#666">0.5×</text>
<line x1="60" y1="321.64559198046624" x2="880" y2="321.64559198046624" stroke="#eee"/>
<text x="52" y="325.64559198046624" text-anchor="end" font-size="11" fill="#666">1×</text>
<line x1="60" y1="303.4683879706994" x2="880" y2="303.4683879706994" stroke="#eee"/>
<text x="52" y="307.4683879706994" text-anchor="end" font-size="11" fill="#666">1.5×</text>
<line x1="60" y1="321.64559198046624" x2="880" y2="321.64559198046624" stroke="#888" stroke-width="1"/>
<line x1="60" y1="323.0997683012476" x2="880" y2="323.0997683012476" stroke="#d33" stroke-width="1.5" stroke-dasharray="6 4"/>
<text x="880" y="318.0997683012476" text-anchor="end" font-size="11" fill="#d33">0.96× gate</text>
<polygon points="128.7,323.9 129.1,323.8 129.8,323.6 131.2,323.4 133.6,323.2 137.3,323.0 142.7,322.8 149.8,322.6 158.3,322.4 167.4,322.2 175.8,322.0 182.3,321.8 185.7,321.6 185.7,321.4 182.7,321.2 177.6,321.0 171.6,320.8 165.8,320.6 160.8,320.4 156.7,320.2 153.2,320.0 149.9,319.8 146.8,319.6 143.7,319.4 140.8,319.2 138.0,319.0 135.7,318.8 133.7,318.6 132.2,318.4 131.1,318.2 130.3,318.0 129.8,317.8 129.5,317.6 129.3,317.4 129.2,317.2 129.2,317.0 129.3,316.8 129.4,316.6 129.6,316.4 129.8,316.2 130.0,316.0 130.2,315.8 130.2,315.6 130.1,315.4 129.9,315.2 129.6,315.0 129.2,314.8 129.0,314.7 128.8,314.5 128.7,314.3 128.7,314.1 128.7,313.9 128.9,313.7 129.1,313.5 129.3,313.3 129.5,313.1 129.6,312.9 129.6,312.7 129.6,312.5 129.5,312.3 129.4,312.1 129.3,311.9 129.2,311.7 129.1,311.5 129.1,311.3 129.0,311.1 128.9,310.9 128.8,310.7 128.6,310.5 128.5,310.3 128.5,310.1 128.4,309.9 128.3,309.9 128.2,310.1 128.1,310.3 128.0,310.5 127.9,310.7 127.8,310.9 127.7,311.1 127.6,311.3 127.5,311.5 127.5,311.7 127.4,311.9 127.3,312.1 127.2,312.3 127.1,312.5 127.0,312.7 127.1,312.9 127.2,313.1 127.4,313.3 127.6,313.5 127.8,313.7 127.9,313.9 128.0,314.1 128.0,314.3 127.9,314.5 127.7,314.7 127.4,314.8 127.1,315.0 126.8,315.2 126.6,315.4 126.5,315.6 126.5,315.8 126.6,316.0 126.9,316.2 127.1,316.4 127.3,316.6 127.4,316.8 127.4,317.0 127.4,317.2 127.3,317.4 127.2,317.6 126.9,317.8 126.3,318.0 125.6,318.2 124.4,318.4 122.9,318.6 121.0,318.8 118.6,319.0 115.9,319.2 112.9,319.4 109.8,319.6 106.7,319.8 103.5,320.0 100.0,320.2 95.9,320.4 90.9,320.6 85.1,320.8 79.1,321.0 74.0,321.2 70.9,321.4 70.9,321.6 74.4,321.8 80.8,322.0 89.3,322.2 98.3,322.4 106.8,322.6 114.0,322.8 119.3,323.0 123.1,323.2 125.4,323.4 126.8,323.6 127.6,323.8 128.0,323.9" fill="#2a8" opacity="0.5" stroke="#2a8" stroke-width="1"/>
<line x1="70.7" y1="321.41819546659997" x2="186.0" y2="321.41819546659997" stroke="#114" stroke-width="2"/>
<circle cx="128.33333333333331" cy="321.71326114013664" r="2.4" fill="#114"/>
<text x="128.33333333333331" y="305.31981875775165" text-anchor="middle" font-size="11">1.01</text>
<text x="128.33333333333331" y="376" text-anchor="middle" font-size="12">axpy</text>
<polygon points="265.0,327.0 265.2,326.3 265.8,325.7 267.7,325.0 272.8,324.3 282.8,323.7 297.7,323.0 313.2,322.4 322.4,321.7 320.4,321.0 308.8,320.4 293.9,319.7 281.3,319.0 273.2,318.4 268.9,317.7 267.1,317.0 266.4,316.4 266.3,315.7 266.4,315.0 266.4,314.4 266.4,313.7 266.4,313.0 266.2,312.4 266.0,311.7 265.7,311.0 265.4,310.4 265.2,309.7 265.1,309.0 265.0,308.4 265.0,307.7 265.0,307.0 265.0,306.4 265.0,305.7 265.0,305.0 265.0,304.4 265.0,303.7 265.0,303.1 265.0,302.4 265.0,301.7 265.0,301.1 265.0,300.4 265.0,299.7 265.0,299.1 265.0,298.4 265.0,297.7 265.0,297.1 265.0,296.4 265.0,295.7 265.0,295.1 265.0,294.4 265.0,293.7 265.0,293.1 265.0,292.4 265.0,291.7 265.0,291.1 265.0,290.4 265.0,289.7 265.0,289.1 265.0,288.4 265.0,287.7 265.1,287.1 265.2,286.4 265.3,285.8 265.4,285.1 265.5,284.4 265.4,283.8 265.3,283.1 265.2,282.4 265.1,281.8 265.0,281.1 265.0,280.4 265.0,279.8 265.0,279.8 265.0,280.4 265.0,281.1 264.9,281.8 264.8,282.4 264.7,283.1 264.6,283.8 264.5,284.4 264.6,285.1 264.7,285.8 264.8,286.4 264.9,287.1 265.0,287.7 265.0,288.4 265.0,289.1 265.0,289.7 265.0,290.4 265.0,291.1 265.0,291.7 265.0,292.4 265.0,293.1 265.0,293.7 265.0,294.4 265.0,295.1 265.0,295.7 265.0,296.4 265.0,297.1 265.0,297.7 265.0,298.4 265.0,299.1 265.0,299.7 265.0,300.4 265.0,301.1 265.0,301.7 265.0,302.4 265.0,303.1 265.0,303.7 265.0,304.4 265.0,305.0 265.0,305.7 265.0,306.4 265.0,307.0 265.0,307.7 265.0,308.4 264.9,309.0 264.8,309.7 264.6,310.4 264.3,311.0 264.0,311.7 263.8,312.4 263.6,313.0 263.6,313.7 263.6,314.4 263.6,315.0 263.7,315.7 263.6,316.4 262.9,317.0 261.1,317.7 256.8,318.4 248.7,319.0 236.1,319.7 221.2,320.4 209.6,321.0 207.6,321.7 216.8,322.4 232.3,323.0 247.2,323.7 257.2,324.3 262.3,325.0 264.2,325.7 264.8,326.3 265.0,327.0" fill="#2a8" opacity="0.5" stroke="#2a8" stroke-width="1"/>
<line x1="207.1" y1="321.55966279417856" x2="322.9" y2="321.55966279417856" stroke="#114" stroke-width="2"/>
<circle cx="265.0" cy="321.6984897649327" r="2.4" fill="#114"/>
<text x="265.0" y="278.3937861260905" text-anchor="middle" font-size="11">1.00</text>
<text x="265.0" y="376" text-anchor="middle" font-size="12">dot</text>
<polygon points="403.2,215.7 403.6,213.4 404.0,211.0 404.4,208.7 404.9,206.4 405.4,204.1 406.0,201.8 406.6,199.5 407.2,197.2 407.9,194.9 408.5,192.5 409.2,190.2 409.9,187.9 410.5,185.6 411.2,183.3 411.9,181.0 412.5,178.7 413.2,176.4 413.9,174.0 414.6,171.7 415.3,169.4 416.1,167.1 417.0,164.8 417.9,162.5 418.9,160.2 419.9,157.9 421.0,155.5 422.1,153.2 423.2,150.9 424.3,148.6 425.3,146.3 426.2,144.0 427.0,141.7 427.6,139.4 428.1,137.0 428.3,134.7 428.2,132.4 427.9,130.1 427.4,127.8 426.6,125.5 425.6,123.2 424.5,120.9 423.4,118.5 422.3,116.2 421.3,113.9 420.6,111.6 420.3,109.3 420.4,107.0 421.2,104.7 422.6,102.4 424.7,100.0 427.4,97.7 430.8,95.4 434.6,93.1 438.8,90.8 443.2,88.5 447.4,86.2 451.3,83.9 454.6,81.5 457.1,79.2 458.6,76.9 459.1,74.6 458.4,72.3 456.5,70.0 453.7,67.7 450.0,65.4 445.6,63.0 440.8,60.7 435.7,58.4 430.7,56.1 425.9,53.8 421.5,51.5 381.8,51.5 377.4,53.8 372.6,56.1 367.6,58.4 362.6,60.7 357.7,63.0 353.4,65.4 349.6,67.7 346.8,70.0 345.0,72.3 344.3,74.6 344.7,76.9 346.2,79.2 348.7,81.5 352.1,83.9 355.9,86.2 360.2,88.5 364.5,90.8 368.7,93.1 372.6,95.4 375.9,97.7 378.7,100.0 380.8,102.4 382.2,104.7 382.9,107.0 383.1,109.3 382.8,111.6 382.0,113.9 381.1,116.2 379.9,118.5 378.8,120.9 377.7,123.2 376.7,125.5 376.0,127.8 375.4,130.1 375.1,132.4 375.1,134.7 375.3,137.0 375.7,139.4 376.3,141.7 377.1,144.0 378.0,146.3 379.0,148.6 380.1,150.9 381.2,153.2 382.3,155.5 383.4,157.9 384.4,160.2 385.4,162.5 386.3,164.8 387.2,167.1 388.0,169.4 388.7,171.7 389.4,174.0 390.1,176.4 390.8,178.7 391.5,181.0 392.1,183.3 392.8,185.6 393.5,187.9 394.1,190.2 394.8,192.5 395.5,194.9 396.1,197.2 396.7,199.5 397.3,201.8 397.9,204.1 398.4,206.4 398.9,208.7 399.4,211.0 399.8,213.4 400.1,215.7" fill="#2a8" opacity="0.5" stroke="#2a8" stroke-width="1"/>
<line x1="352.2" y1="83.9375035915808" x2="451.2" y2="83.9375035915808" stroke="#114" stroke-width="2"/>
<circle cx="401.66666666666663" cy="144.54359138858996" r="2.4" fill="#114"/>
<text x="401.66666666666663" y="61.433962264150935" text-anchor="middle" font-size="11">7.54</text>
<text x="401.66666666666663" y="376" text-anchor="middle" font-size="12">nrm2</text>
<polygon points="542.0,316.1 543.1,315.7 544.6,315.2 546.5,314.7 548.6,314.2 551.2,313.7 554.2,313.2 557.6,312.7 561.3,312.2 565.3,311.8 569.5,311.3 573.7,310.8 577.8,310.3 581.8,309.8 585.4,309.3 588.6,308.8 591.2,308.4 593.2,307.9 594.6,307.4 595.4,306.9 595.7,306.4 595.6,305.9 595.0,305.4 594.2,304.9 593.1,304.5 591.9,304.0 590.5,303.5 588.9,303.0 587.2,302.5 585.3,302.0 583.1,301.5 580.6,301.1 577.9,300.6 575.0,300.1 571.8,299.6 568.5,299.1 565.2,298.6 561.9,298.1 558.8,297.6 555.9,297.2 553.4,296.7 551.3,296.2 549.6,295.7 548.4,295.2 547.8,294.7 547.7,294.2 548.0,293.7 548.9,293.3 550.2,292.8 551.8,292.3 553.8,291.8 556.0,291.3 558.4,290.8 560.7,290.3 563.1,289.9 565.2,289.4 567.1,288.9 568.5,288.4 569.6,287.9 570.1,287.4 570.1,286.9 569.5,286.4 568.5,286.0 567.0,285.5 565.0,285.0 562.8,284.5 560.4,284.0 557.9,283.5 555.3,283.0 552.9,282.6 550.5,282.1 548.4,281.6 528.3,281.6 526.1,282.1 523.8,282.6 521.3,283.0 518.8,283.5 516.3,284.0 513.8,284.5 511.6,285.0 509.7,285.5 508.2,286.0 507.1,286.4 506.6,286.9 506.6,287.4 507.1,287.9 508.1,288.4 509.6,288.9 511.5,289.4 513.6,289.9 515.9,290.3 518.3,290.8 520.7,291.3 522.9,291.8 524.8,292.3 526.5,292.8 527.8,293.3 528.6,293.7 529.0,294.2 528.9,294.7 528.2,295.2 527.1,295.7 525.4,296.2 523.3,296.7 520.7,297.2 517.8,297.6 514.7,298.1 511.4,298.6 508.1,299.1 504.8,299.6 501.7,300.1 498.7,300.6 496.0,301.1 493.6,301.5 491.4,302.0 489.5,302.5 487.7,303.0 486.2,303.5 484.8,304.0 483.5,304.5 482.5,304.9 481.6,305.4 481.1,305.9 480.9,306.4 481.2,306.9 482.0,307.4 483.5,307.9 485.5,308.4 488.1,308.8 491.3,309.3 494.9,309.8 498.8,310.3 503.0,310.8 507.2,311.3 511.4,311.8 515.4,312.2 519.1,312.7 522.4,313.2 525.4,313.7 528.0,314.2 530.2,314.7 532.0,315.2 533.5,315.7 534.7,316.1" fill="#2a8" opacity="0.5" stroke="#2a8" stroke-width="1"/>
<line x1="492.4" y1="301.78153605319096" x2="584.2" y2="301.78153605319096" stroke="#114" stroke-width="2"/>
<circle cx="538.3333333333333" cy="308.20602048934506" r="2.4" fill="#114"/>
<text x="538.3333333333333" y="278.98056060869015" text-anchor="middle" font-size="11">1.55</text>
<text x="538.3333333333333" y="376" text-anchor="middle" font-size="12">asum</text>
<polygon points="675.0,324.3 675.0,324.1 675.1,324.0 675.2,323.9 675.4,323.7 675.5,323.6 675.7,323.4 675.8,323.3 675.8,323.2 675.7,323.0 675.8,322.9 676.1,322.7 677.0,322.6 678.9,322.5 682.4,322.3 688.0,322.2 696.0,322.0 705.7,321.9 715.8,321.8 724.7,321.6 730.5,321.5 732.4,321.4 730.6,321.2 726.0,321.1 720.0,320.9 713.7,320.8 708.0,320.7 703.4,320.5 699.9,320.4 697.5,320.2 695.8,320.1 694.2,320.0 692.4,319.8 690.0,319.7 687.3,319.5 684.6,319.4 682.2,319.3 680.2,319.1 678.6,319.0 677.4,318.9 676.6,318.7 676.0,318.6 675.7,318.4 675.6,318.3 675.7,318.2 675.8,318.0 676.0,317.9 676.1,317.7 676.1,317.6 676.1,317.5 676.0,317.3 675.9,317.2 675.7,317.0 675.5,316.9 675.3,316.8 675.2,316.6 675.1,316.5 675.1,316.4 675.1,316.2 675.2,316.1 675.3,315.9 675.5,315.8 675.6,315.7 675.7,315.5 675.8,315.4 675.7,315.2 675.5,315.1 675.4,315.0 675.2,314.8 675.1,314.7 675.0,314.5 675.0,314.4 675.0,314.4 675.0,314.5 674.9,314.7 674.8,314.8 674.6,315.0 674.5,315.1 674.3,315.2 674.2,315.4 674.3,315.5 674.4,315.7 674.5,315.8 674.7,315.9 674.8,316.1 674.9,316.2 674.9,316.4 674.9,316.5 674.8,316.6 674.7,316.8 674.5,316.9 674.3,317.0 674.1,317.2 674.0,317.3 673.9,317.5 673.9,317.6 673.9,317.7 674.0,317.9 674.2,318.0 674.3,318.2 674.4,318.3 674.3,318.4 674.0,318.6 673.4,318.7 672.6,318.9 671.4,319.0 669.8,319.1 667.8,319.3 665.4,319.4 662.7,319.5 660.0,319.7 657.6,319.8 655.8,320.0 654.2,320.1 652.5,320.2 650.1,320.4 646.6,320.5 642.0,320.7 636.3,320.8 630.0,320.9 624.0,321.1 619.4,321.2 617.6,321.4 619.5,321.5 625.3,321.6 634.2,321.8 644.3,321.9 654.0,322.0 662.0,322.2 667.6,322.3 671.1,322.5 673.0,322.6 673.9,322.7 674.2,322.9 674.3,323.0 674.2,323.2 674.2,323.3 674.3,323.4 674.5,323.6 674.6,323.7 674.8,323.9 674.9,324.0 675.0,324.1 675.0,324.3" fill="#2a8" opacity="0.5" stroke="#2a8" stroke-width="1"/>
<line x1="619.8" y1="321.19930909558036" x2="730.2" y2="321.19930909558036" stroke="#114" stroke-width="2"/>
<circle cx="675.0" cy="321.6126249224023" r="2.4" fill="#114"/>
<text x="675.0" y="309.4229548149756" text-anchor="middle" font-size="11">1.01</text>
<text x="675.0" y="376" text-anchor="middle" font-size="12">scal</text>
<polygon points="812.3,345.4 812.9,344.2 813.8,343.0 815.2,341.8 817.1,340.7 819.5,339.5 822.4,338.3 825.8,337.1 829.5,335.9 833.2,334.8 836.6,333.6 839.7,332.4 842.2,331.2 843.9,330.0 845.1,328.9 846.0,327.7 846.8,326.5 847.9,325.3 849.5,324.2 851.6,323.0 854.3,321.8 857.4,320.6 860.6,319.4 863.7,318.3 866.3,317.1 868.1,315.9 869.1,314.7 869.0,313.6 868.2,312.4 866.7,311.2 864.7,310.0 862.3,308.8 859.4,307.7 856.0,306.5 851.8,305.3 846.9,304.1 841.5,303.0 835.9,301.8 830.5,300.6 825.6,299.4 821.5,298.2 818.2,297.1 815.8,295.9 814.2,294.7 813.1,293.5 812.4,292.4 812.0,291.2 811.8,290.0 811.7,288.8 811.7,287.6 811.7,286.5 811.7,285.3 811.7,284.1 811.7,282.9 811.7,281.8 811.7,280.6 811.7,279.4 811.8,278.2 811.9,277.0 812.0,275.9 812.2,274.7 812.4,273.5 812.6,272.3 812.7,271.2 812.8,270.0 812.7,268.8 812.6,267.6 812.4,266.4 812.2,265.3 812.1,264.1 811.9,262.9 811.8,261.7 811.5,261.7 811.4,262.9 811.3,264.1 811.1,265.3 810.9,266.4 810.7,267.6 810.6,268.8 810.6,270.0 810.6,271.2 810.7,272.3 810.9,273.5 811.1,274.7 811.3,275.9 811.4,277.0 811.5,278.2 811.6,279.4 811.6,280.6 811.7,281.8 811.7,282.9 811.7,284.1 811.7,285.3 811.7,286.5 811.6,287.6 811.6,288.8 811.5,290.0 811.3,291.2 810.9,292.4 810.3,293.5 809.2,294.7 807.5,295.9 805.1,297.1 801.9,298.2 797.7,299.4 792.9,300.6 787.5,301.8 781.8,303.0 776.4,304.1 771.5,305.3 767.4,306.5 763.9,307.7 761.0,308.8 758.7,310.0 756.7,311.2 755.2,312.4 754.3,313.6 754.3,314.7 755.2,315.9 757.0,317.1 759.7,318.3 762.7,319.4 766.0,320.6 769.0,321.8 771.7,323.0 773.9,324.2 775.4,325.3 776.5,326.5 777.3,327.7 778.2,328.9 779.4,330.0 781.2,331.2 783.6,332.4 786.7,333.6 790.2,334.8 793.9,335.9 797.5,337.1 800.9,338.3 803.8,339.5 806.3,340.7 808.1,341.8 809.5,343.0 810.4,344.2 811.0,345.4" fill="#2a8" opacity="0.5" stroke="#2a8" stroke-width="1"/>
<line x1="755.0" y1="315.69935908717355" x2="868.4" y2="315.69935908717355" stroke="#114" stroke-width="2"/>
<circle cx="811.6666666666666" cy="321.14936303676325" r="2.4" fill="#114"/>
<text x="811.6666666666666" y="263.8787182978849" text-anchor="middle" font-size="11">1.16</text>
<text x="811.6666666666666" y="376" text-anchor="middle" font-size="12">iamax</text>
<text x="450.0" y="428" text-anchor="middle" font-size="11" fill="#666">violin = ratio distribution over sizes · line = median · dark dot = worst size · green = every size ≥ gate</text>
</svg>
