<svg xmlns="http://www.w3.org/2000/svg" width="900" height="440" font-family="sans-serif">
<rect width="900" height="440" fill="white"/>
<text x="450.0" y="28" text-anchor="middle" font-size="18" font-weight="bold">Complex BLAS-2: PureBLAS / OpenBLAS (AVX-512 native (Zen5), 1 thread, ComplexF64)</text>
<line x1="60" y1="358.0" x2="880" y2="358.0" stroke="#eee"/>
<text x="52" y="362.0" text-anchor="end" font-size="11" fill="#666">0×</text>
<line x1="60" y1="303.5528948828013" x2="880" y2="303.5528948828013" stroke="#eee"/>
<text x="52" y="307.5528948828013" text-anchor="end" font-size="11" fill="#666">0.5×</text>
<line x1="60" y1="249.10578976560257" x2="880" y2="249.10578976560257" stroke="#eee"/>
<text x="52" y="253.10578976560257" text-anchor="end" font-size="11" fill="#666">1×</text>
<line x1="60" y1="194.6586846484038" x2="880" y2="194.6586846484038" stroke="#eee"/>
<text x="52" y="198.6586846484038" text-anchor="end" font-size="11" fill="#666">1.5×</text>
<line x1="60" y1="249.10578976560257" x2="880" y2="249.10578976560257" stroke="#888" stroke-width="1"/>
<line x1="60" y1="253.46155817497845" x2="880" y2="253.46155817497845" stroke="#d33" stroke-width="1.5" stroke-dasharray="6 4"/>
<text x="880" y="248.46155817497845" text-anchor="end" font-size="11" fill="#d33">0.96× gate</text>
<polygon points="107.8,268.2 109.4,267.5 111.1,266.8 113.1,266.1 115.1,265.3 117.3,264.6 119.5,263.9 121.7,263.2 124.0,262.4 126.1,261.7 128.1,261.0 129.9,260.3 131.6,259.5 132.9,258.8 134.0,258.1 134.8,257.4 135.3,256.6 135.4,255.9 135.2,255.2 134.6,254.5 133.6,253.7 132.2,253.0 130.5,252.3 128.6,251.6 126.4,250.9 124.1,250.1 121.8,249.4 119.5,248.7 117.4,248.0 115.5,247.2 113.9,246.5 112.6,245.8 111.7,245.1 111.1,244.3 110.9,243.6 110.9,242.9 111.2,242.2 111.6,241.4 112.0,240.7 112.5,240.0 113.0,239.3 113.3,238.5 113.5,237.8 113.6,237.1 113.6,236.4 113.5,235.6 113.4,234.9 113.4,234.2 113.5,233.5 113.9,232.8 114.4,232.0 115.2,231.3 116.2,230.6 117.3,229.9 118.6,229.1 120.0,228.4 121.3,227.7 122.4,227.0 123.2,226.2 123.7,225.5 123.8,224.8 123.4,224.1 122.7,223.3 121.5,222.6 120.1,221.9 118.3,221.2 116.4,220.4 114.5,219.7 112.5,219.0 110.7,218.3 108.9,217.5 107.4,216.8 94.6,216.8 93.1,217.5 91.3,218.3 89.5,219.0 87.5,219.7 85.6,220.4 83.7,221.2 81.9,221.9 80.5,222.6 79.3,223.3 78.6,224.1 78.2,224.8 78.3,225.5 78.8,226.2 79.6,227.0 80.7,227.7 82.0,228.4 83.4,229.1 84.7,229.9 85.8,230.6 86.8,231.3 87.6,232.0 88.1,232.8 88.5,233.5 88.6,234.2 88.6,234.9 88.5,235.6 88.4,236.4 88.4,237.1 88.5,237.8 88.7,238.5 89.0,239.3 89.5,240.0 90.0,240.7 90.4,241.4 90.8,242.2 91.1,242.9 91.1,243.6 90.9,244.3 90.3,245.1 89.4,245.8 88.1,246.5 86.5,247.2 84.6,248.0 82.5,248.7 80.2,249.4 77.9,250.1 75.6,250.9 73.4,251.6 71.5,252.3 69.8,253.0 68.4,253.7 67.4,254.5 66.8,255.2 66.6,255.9 66.7,256.6 67.2,257.4 68.0,258.1 69.1,258.8 70.4,259.5 72.1,260.3 73.9,261.0 75.9,261.7 78.0,262.4 80.3,263.2 82.5,263.9 84.7,264.6 86.9,265.3 88.9,266.1 90.9,266.8 92.6,267.5 94.2,268.2" fill="#d33" opacity="0.5" stroke="#d33" stroke-width="1"/>
<line x1="71.9" y1="252.1536368957208" x2="130.1" y2="252.1536368957208" stroke="#114" stroke-width="2"/>
<circle cx="101.0" cy="262.7561010536816" r="2.4" fill="#114"/>
<text x="101.0" y="215.97533334005814" text-anchor="middle" font-size="11">0.97</text>
<text x="101.0" y="376" text-anchor="middle" font-size="12">zgemvN</text>
<polygon points="189.3,272.8 190.7,272.1 192.1,271.3 193.6,270.6 194.9,269.8 196.0,269.1 197.0,268.3 197.6,267.5 198.0,266.8 198.2,266.0 198.2,265.3 198.1,264.5 198.0,263.8 198.1,263.0 198.4,262.3 198.9,261.5 199.8,260.7 200.9,260.0 202.2,259.2 203.6,258.5 205.0,257.7 206.3,257.0 207.4,256.2 208.1,255.5 208.5,254.7 208.6,254.0 208.4,253.2 208.0,252.4 207.4,251.7 206.8,250.9 206.2,250.2 205.7,249.4 205.3,248.7 205.0,247.9 204.6,247.2 204.3,246.4 203.9,245.6 203.4,244.9 202.9,244.1 202.3,243.4 201.7,242.6 201.2,241.9 200.9,241.1 201.0,240.4 201.4,239.6 202.3,238.8 203.6,238.1 205.3,237.3 207.3,236.6 209.5,235.8 211.6,235.1 213.7,234.3 215.3,233.6 216.6,232.8 217.3,232.1 217.4,231.3 217.0,230.5 216.1,229.8 214.7,229.0 213.0,228.3 210.9,227.5 208.7,226.8 206.3,226.0 203.9,225.3 201.5,224.5 199.1,223.7 196.8,223.0 194.6,222.2 192.6,221.5 190.8,220.7 189.2,220.0 187.8,219.2 178.2,219.2 176.8,220.0 175.2,220.7 173.4,221.5 171.4,222.2 169.2,223.0 166.9,223.7 164.5,224.5 162.1,225.3 159.7,226.0 157.3,226.8 155.1,227.5 153.0,228.3 151.3,229.0 149.9,229.8 149.0,230.5 148.6,231.3 148.7,232.1 149.4,232.8 150.7,233.6 152.3,234.3 154.4,235.1 156.5,235.8 158.7,236.6 160.7,237.3 162.4,238.1 163.7,238.8 164.6,239.6 165.0,240.4 165.1,241.1 164.8,241.9 164.3,242.6 163.7,243.4 163.1,244.1 162.6,244.9 162.1,245.6 161.7,246.4 161.4,247.2 161.0,247.9 160.7,248.7 160.3,249.4 159.8,250.2 159.2,250.9 158.6,251.7 158.0,252.4 157.6,253.2 157.4,254.0 157.5,254.7 157.9,255.5 158.6,256.2 159.7,257.0 161.0,257.7 162.4,258.5 163.8,259.2 165.1,260.0 166.2,260.7 167.1,261.5 167.6,262.3 167.9,263.0 168.0,263.8 167.9,264.5 167.8,265.3 167.8,266.0 168.0,266.8 168.4,267.5 169.0,268.3 170.0,269.1 171.1,269.8 172.4,270.6 173.9,271.3 175.3,272.1 176.7,272.8" fill="#d33" opacity="0.5" stroke="#d33" stroke-width="1"/>
<line x1="163.0" y1="244.25526281818134" x2="203.0" y2="244.25526281818134" stroke="#114" stroke-width="2"/>
<circle cx="183.0" cy="267.19326623980356" r="2.4" fill="#114"/>
<text x="183.0" y="218.5806847889264" text-anchor="middle" font-size="11">1.04</text>
<text x="183.0" y="376" text-anchor="middle" font-size="12">zgemvT</text>
<polygon points="271.7,269.1 273.3,268.4 275.1,267.7 277.0,267.0 278.9,266.3 280.7,265.7 282.3,265.0 283.7,264.3 284.8,263.6 285.6,262.9 286.2,262.2 286.7,261.5 287.1,260.8 287.5,260.2 288.1,259.5 288.8,258.8 289.8,258.1 290.9,257.4 292.1,256.7 293.4,256.0 294.6,255.4 295.7,254.7 296.5,254.0 297.0,253.3 297.3,252.6 297.4,251.9 297.3,251.2 297.1,250.6 296.8,249.9 296.6,249.2 296.3,248.5 296.1,247.8 295.8,247.1 295.5,246.4 295.0,245.8 294.5,245.1 293.9,244.4 293.2,243.7 292.6,243.0 292.1,242.3 291.7,241.6 291.7,240.9 292.0,240.3 292.6,239.6 293.5,238.9 294.6,238.2 295.8,237.5 296.9,236.8 298.0,236.1 298.8,235.5 299.3,234.8 299.4,234.1 299.2,233.4 298.7,232.7 297.9,232.0 297.0,231.3 295.9,230.7 294.8,230.0 293.8,229.3 292.7,228.6 291.7,227.9 290.6,227.2 289.5,226.5 288.2,225.9 286.7,225.2 285.1,224.5 283.2,223.8 281.2,223.1 279.1,222.4 277.0,221.7 275.0,221.1 273.1,220.4 256.9,220.4 255.0,221.1 253.0,221.7 250.9,222.4 248.8,223.1 246.8,223.8 244.9,224.5 243.3,225.2 241.8,225.9 240.5,226.5 239.4,227.2 238.3,227.9 237.3,228.6 236.2,229.3 235.2,230.0 234.1,230.7 233.0,231.3 232.1,232.0 231.3,232.7 230.8,233.4 230.6,234.1 230.7,234.8 231.2,235.5 232.0,236.1 233.1,236.8 234.2,237.5 235.4,238.2 236.5,238.9 237.4,239.6 238.0,240.3 238.3,240.9 238.3,241.6 237.9,242.3 237.4,243.0 236.8,243.7 236.1,244.4 235.5,245.1 235.0,245.8 234.5,246.4 234.2,247.1 233.9,247.8 233.7,248.5 233.4,249.2 233.2,249.9 232.9,250.6 232.7,251.2 232.6,251.9 232.7,252.6 233.0,253.3 233.5,254.0 234.3,254.7 235.4,255.4 236.6,256.0 237.9,256.7 239.1,257.4 240.2,258.1 241.2,258.8 241.9,259.5 242.5,260.2 242.9,260.8 243.3,261.5 243.8,262.2 244.4,262.9 245.2,263.6 246.3,264.3 247.7,265.0 249.3,265.7 251.1,266.3 253.0,267.0 254.9,267.7 256.7,268.4 258.3,269.1" fill="#d33" opacity="0.5" stroke="#d33" stroke-width="1"/>
<line x1="235.9" y1="244.61400071975112" x2="294.1" y2="244.61400071975112" stroke="#114" stroke-width="2"/>
<circle cx="265.0" cy="263.1513242155628" r="2.4" fill="#114"/>
<text x="265.0" y="219.25547217899543" text-anchor="middle" font-size="11">1.04</text>
<text x="265.0" y="376" text-anchor="middle" font-size="12">zgemvC</text>
<polygon points="351.0,250.7 352.0,250.4 353.1,250.1 354.2,249.8 355.2,249.5 356.1,249.1 356.8,248.8 357.3,248.5 357.5,248.2 357.6,247.9 357.6,247.5 357.7,247.2 357.8,246.9 358.3,246.6 359.1,246.3 360.4,245.9 362.2,245.6 364.5,245.3 367.1,245.0 370.1,244.7 373.1,244.3 375.9,244.0 378.4,243.7 380.2,243.4 381.3,243.0 381.4,242.7 380.7,242.4 379.1,242.1 376.9,241.8 374.0,241.4 370.9,241.1 367.7,240.8 364.5,240.5 361.6,240.2 358.9,239.8 356.7,239.5 354.8,239.2 353.3,238.9 352.2,238.6 351.4,238.2 350.9,237.9 350.7,237.6 350.7,237.3 351.0,237.0 351.6,236.6 352.3,236.3 353.3,236.0 354.5,235.7 355.9,235.3 357.3,235.0 358.8,234.7 360.2,234.4 361.4,234.1 362.5,233.7 363.2,233.4 363.6,233.1 363.6,232.8 363.2,232.5 362.5,232.1 361.4,231.8 360.1,231.5 358.6,231.2 357.0,230.9 355.5,230.5 354.0,230.2 352.6,229.9 351.4,229.6 350.4,229.3 349.5,228.9 348.9,228.6 348.3,228.3 347.9,228.0 346.1,228.0 345.7,228.3 345.1,228.6 344.5,228.9 343.6,229.3 342.6,229.6 341.4,229.9 340.0,230.2 338.5,230.5 337.0,230.9 335.4,231.2 333.9,231.5 332.6,231.8 331.5,232.1 330.8,232.5 330.4,232.8 330.4,233.1 330.8,233.4 331.5,233.7 332.6,234.1 333.8,234.4 335.2,234.7 336.7,235.0 338.1,235.3 339.5,235.7 340.7,236.0 341.7,236.3 342.4,236.6 343.0,237.0 343.3,237.3 343.3,237.6 343.1,237.9 342.6,238.2 341.8,238.6 340.7,238.9 339.2,239.2 337.3,239.5 335.1,239.8 332.4,240.2 329.5,240.5 326.3,240.8 323.1,241.1 320.0,241.4 317.1,241.8 314.9,242.1 313.3,242.4 312.6,242.7 312.7,243.0 313.8,243.4 315.6,243.7 318.1,244.0 320.9,244.3 323.9,244.7 326.9,245.0 329.5,245.3 331.8,245.6 333.6,245.9 334.9,246.3 335.7,246.6 336.2,246.9 336.3,247.2 336.4,247.5 336.4,247.9 336.5,248.2 336.7,248.5 337.2,248.8 337.9,249.1 338.8,249.5 339.8,249.8 340.9,250.1 342.0,250.4 343.0,250.7" fill="#2a8" opacity="0.5" stroke="#2a8" stroke-width="1"/>
<line x1="312.7" y1="242.61152606662688" x2="381.3" y2="242.61152606662688" stroke="#114" stroke-width="2"/>
<circle cx="347.0" cy="248.36467807611194" r="2.4" fill="#114"/>
<text x="347.0" y="224.35176348837058" text-anchor="middle" font-size="11">1.06</text>
<text x="347.0" y="376" text-anchor="middle" font-size="12">zgeru</text>
<polygon points="433.0,235.8 434.3,233.2 435.8,230.6 437.7,228.0 439.8,225.3 442.1,222.7 444.7,220.1 447.4,217.5 450.2,214.9 453.0,212.3 455.7,209.6 458.1,207.0 460.1,204.4 461.8,201.8 462.9,199.2 463.4,196.6 463.4,193.9 462.9,191.3 461.8,188.7 460.4,186.1 458.7,183.5 456.9,180.9 455.0,178.2 453.2,175.6 451.5,173.0 450.1,170.4 448.8,167.8 447.8,165.1 447.0,162.5 446.3,159.9 445.6,157.3 445.0,154.7 444.3,152.1 443.7,149.4 443.0,146.8 442.3,144.2 441.7,141.6 441.1,139.0 440.8,136.4 440.7,133.7 440.9,131.1 441.3,128.5 441.9,125.9 442.8,123.3 443.9,120.7 445.1,118.0 446.3,115.4 447.6,112.8 448.9,110.2 450.1,107.6 451.3,105.0 452.3,102.3 453.2,99.7 454.0,97.1 454.7,94.5 455.1,91.9 455.4,89.3 455.4,86.6 455.1,84.0 454.5,81.4 453.6,78.8 452.5,76.2 451.0,73.6 449.4,70.9 447.6,68.3 445.6,65.7 443.7,63.1 441.7,60.5 439.8,57.9 438.0,55.2 436.4,52.6 434.9,50.0 423.1,50.0 421.6,52.6 420.0,55.2 418.2,57.9 416.3,60.5 414.3,63.1 412.4,65.7 410.4,68.3 408.6,70.9 407.0,73.6 405.5,76.2 404.4,78.8 403.5,81.4 402.9,84.0 402.6,86.6 402.6,89.3 402.9,91.9 403.3,94.5 404.0,97.1 404.8,99.7 405.7,102.3 406.7,105.0 407.9,107.6 409.1,110.2 410.4,112.8 411.7,115.4 412.9,118.0 414.1,120.7 415.2,123.3 416.1,125.9 416.7,128.5 417.1,131.1 417.3,133.7 417.2,136.4 416.9,139.0 416.3,141.6 415.7,144.2 415.0,146.8 414.3,149.4 413.7,152.1 413.0,154.7 412.4,157.3 411.7,159.9 411.0,162.5 410.2,165.1 409.2,167.8 407.9,170.4 406.5,173.0 404.8,175.6 403.0,178.2 401.1,180.9 399.3,183.5 397.6,186.1 396.2,188.7 395.1,191.3 394.6,193.9 394.6,196.6 395.1,199.2 396.2,201.8 397.9,204.4 399.9,207.0 402.3,209.6 405.0,212.3 407.8,214.9 410.6,217.5 413.3,220.1 415.9,222.7 418.2,225.3 420.3,228.0 422.2,230.6 423.7,233.2 425.0,235.8" fill="#2a8" opacity="0.5" stroke="#2a8" stroke-width="1"/>
<line x1="413.2" y1="154.02735139355667" x2="444.8" y2="154.02735139355667" stroke="#114" stroke-width="2"/>
<circle cx="429.0" cy="207.00563157323833" r="2.4" fill="#114"/>
<text x="429.0" y="61.433962264150935" text-anchor="middle" font-size="11">1.87</text>
<text x="429.0" y="376" text-anchor="middle" font-size="12">zhemv</text>
<polygon points="521.1,260.4 523.2,259.1 525.5,257.8 527.9,256.5 530.4,255.2 533.0,253.9 535.5,252.6 537.8,251.3 540.0,250.0 541.9,248.7 543.4,247.4 544.6,246.1 545.2,244.8 545.4,243.5 545.2,242.2 544.4,240.9 543.2,239.6 541.6,238.3 539.7,237.0 537.5,235.8 535.2,234.5 532.8,233.2 530.4,231.9 528.2,230.6 526.2,229.3 524.4,228.0 523.0,226.7 521.9,225.4 521.1,224.1 520.7,222.8 520.5,221.5 520.6,220.2 520.8,218.9 521.2,217.6 521.5,216.3 521.9,215.0 522.2,213.7 522.4,212.4 522.4,211.1 522.4,209.8 522.2,208.5 521.9,207.2 521.6,206.0 521.2,204.7 520.9,203.4 520.7,202.1 520.6,200.8 520.7,199.5 520.9,198.2 521.2,196.9 521.8,195.6 522.4,194.3 523.1,193.0 523.9,191.7 524.7,190.4 525.5,189.1 526.2,187.8 526.8,186.5 527.2,185.2 527.4,183.9 527.5,182.6 527.3,181.3 526.9,180.0 526.3,178.7 525.4,177.4 524.5,176.2 523.3,174.9 522.1,173.6 520.9,172.3 519.6,171.0 518.4,169.7 517.2,168.4 504.8,168.4 503.6,169.7 502.4,171.0 501.1,172.3 499.9,173.6 498.7,174.9 497.5,176.2 496.6,177.4 495.7,178.7 495.1,180.0 494.7,181.3 494.5,182.6 494.6,183.9 494.8,185.2 495.2,186.5 495.8,187.8 496.5,189.1 497.3,190.4 498.1,191.7 498.9,193.0 499.6,194.3 500.2,195.6 500.8,196.9 501.1,198.2 501.3,199.5 501.4,200.8 501.3,202.1 501.1,203.4 500.8,204.7 500.4,206.0 500.1,207.2 499.8,208.5 499.6,209.8 499.6,211.1 499.6,212.4 499.8,213.7 500.1,215.0 500.5,216.3 500.8,217.6 501.2,218.9 501.4,220.2 501.5,221.5 501.3,222.8 500.9,224.1 500.1,225.4 499.0,226.7 497.6,228.0 495.8,229.3 493.8,230.6 491.6,231.9 489.2,233.2 486.8,234.5 484.5,235.8 482.3,237.0 480.4,238.3 478.8,239.6 477.6,240.9 476.8,242.2 476.6,243.5 476.8,244.8 477.4,246.1 478.6,247.4 480.1,248.7 482.0,250.0 484.2,251.3 486.5,252.6 489.0,253.9 491.6,255.2 494.1,256.5 496.5,257.8 498.8,259.1 500.9,260.4" fill="#2a8" opacity="0.5" stroke="#2a8" stroke-width="1"/>
<line x1="482.3" y1="237.0783066209768" x2="539.7" y2="237.0783066209768" stroke="#114" stroke-width="2"/>
<circle cx="511.0" cy="251.14025335552003" r="2.4" fill="#114"/>
<text x="511.0" y="171.45547030129083" text-anchor="middle" font-size="11">1.11</text>
<text x="511.0" y="376" text-anchor="middle" font-size="12">ztrmv</text>
<polygon points="600.2,263.9 602.0,263.1 603.9,262.3 606.1,261.5 608.4,260.7 610.7,259.9 613.0,259.2 615.2,258.4 617.2,257.6 618.9,256.8 620.3,256.0 621.3,255.2 621.8,254.4 622.0,253.6 621.7,252.9 621.0,252.1 620.0,251.3 618.6,250.5 617.1,249.7 615.6,248.9 614.1,248.1 612.7,247.3 611.7,246.5 611.0,245.8 610.8,245.0 611.2,244.2 612.0,243.4 613.3,242.6 615.1,241.8 617.1,241.0 619.3,240.2 621.4,239.5 623.4,238.7 625.0,237.9 626.3,237.1 627.0,236.3 627.2,235.5 626.9,234.7 626.3,233.9 625.3,233.2 624.2,232.4 623.1,231.6 622.0,230.8 621.1,230.0 620.5,229.2 620.1,228.4 620.0,227.6 620.2,226.8 620.5,226.1 621.0,225.3 621.7,224.5 622.4,223.7 623.3,222.9 624.1,222.1 625.0,221.3 625.9,220.5 626.6,219.8 627.1,219.0 627.4,218.2 627.4,217.4 627.0,216.6 626.2,215.8 624.9,215.0 623.2,214.2 621.2,213.5 618.8,212.7 616.2,211.9 613.4,211.1 610.7,210.3 608.0,209.5 605.4,208.7 603.1,207.9 582.9,207.9 580.6,208.7 578.0,209.5 575.3,210.3 572.6,211.1 569.8,211.9 567.2,212.7 564.8,213.5 562.8,214.2 561.1,215.0 559.8,215.8 559.0,216.6 558.6,217.4 558.6,218.2 558.9,219.0 559.4,219.8 560.1,220.5 561.0,221.3 561.9,222.1 562.7,222.9 563.6,223.7 564.3,224.5 565.0,225.3 565.5,226.1 565.8,226.8 566.0,227.6 565.9,228.4 565.5,229.2 564.9,230.0 564.0,230.8 562.9,231.6 561.8,232.4 560.7,233.2 559.7,233.9 559.1,234.7 558.8,235.5 559.0,236.3 559.7,237.1 561.0,237.9 562.6,238.7 564.6,239.5 566.7,240.2 568.9,241.0 570.9,241.8 572.7,242.6 574.0,243.4 574.8,244.2 575.2,245.0 575.0,245.8 574.3,246.5 573.3,247.3 571.9,248.1 570.4,248.9 568.9,249.7 567.4,250.5 566.0,251.3 565.0,252.1 564.3,252.9 564.0,253.6 564.2,254.4 564.7,255.2 565.7,256.0 567.1,256.8 568.8,257.6 570.8,258.4 573.0,259.2 575.3,259.9 577.6,260.7 579.9,261.5 582.1,262.3 584.0,263.1 585.8,263.9" fill="#d33" opacity="0.5" stroke="#d33" stroke-width="1"/>
<line x1="558.8" y1="235.46045800474838" x2="627.2" y2="235.46045800474838" stroke="#114" stroke-width="2"/>
<circle cx="593.0" cy="257.260856618498" r="2.4" fill="#114"/>
<text x="593.0" y="207.52429763085772" text-anchor="middle" font-size="11">1.13</text>
<text x="593.0" y="376" text-anchor="middle" font-size="12">ztrsv</text>
<polygon points="679.6,244.7 680.6,243.8 681.6,242.9 682.7,242.0 683.6,241.1 684.4,240.2 685.0,239.3 685.4,238.4 685.5,237.5 685.5,236.6 685.2,235.7 684.9,234.8 684.6,233.9 684.4,233.1 684.2,232.2 684.2,231.3 684.4,230.4 684.7,229.5 685.0,228.6 685.3,227.7 685.5,226.8 685.5,225.9 685.4,225.0 685.0,224.1 684.4,223.2 683.6,222.3 682.7,221.4 681.8,220.5 680.9,219.6 680.1,218.7 679.6,217.9 679.3,217.0 679.4,216.1 679.9,215.2 680.8,214.3 682.2,213.4 684.0,212.5 686.3,211.6 689.0,210.7 691.9,209.8 695.1,208.9 698.2,208.0 701.3,207.1 704.0,206.2 706.3,205.3 708.0,204.4 709.1,203.5 709.4,202.7 709.2,201.8 708.4,200.9 707.1,200.0 705.4,199.1 703.6,198.2 701.7,197.3 699.8,196.4 697.9,195.5 696.2,194.6 694.7,193.7 693.3,192.8 691.9,191.9 690.7,191.0 689.4,190.1 688.2,189.2 686.9,188.3 685.6,187.5 684.3,186.6 683.0,185.7 681.7,184.8 680.5,183.9 679.4,183.0 678.5,182.1 677.7,181.2 672.3,181.2 671.5,182.1 670.6,183.0 669.5,183.9 668.3,184.8 667.0,185.7 665.7,186.6 664.4,187.5 663.1,188.3 661.8,189.2 660.6,190.1 659.3,191.0 658.1,191.9 656.7,192.8 655.3,193.7 653.8,194.6 652.1,195.5 650.2,196.4 648.3,197.3 646.4,198.2 644.6,199.1 642.9,200.0 641.6,200.9 640.8,201.8 640.6,202.7 640.9,203.5 642.0,204.4 643.7,205.3 646.0,206.2 648.7,207.1 651.8,208.0 654.9,208.9 658.1,209.8 661.0,210.7 663.7,211.6 666.0,212.5 667.8,213.4 669.2,214.3 670.1,215.2 670.6,216.1 670.7,217.0 670.4,217.9 669.9,218.7 669.1,219.6 668.2,220.5 667.3,221.4 666.4,222.3 665.6,223.2 665.0,224.1 664.6,225.0 664.5,225.9 664.5,226.8 664.7,227.7 665.0,228.6 665.3,229.5 665.6,230.4 665.8,231.3 665.8,232.2 665.6,233.1 665.4,233.9 665.1,234.8 664.8,235.7 664.5,236.6 664.5,237.5 664.6,238.4 665.0,239.3 665.6,240.2 666.4,241.1 667.3,242.0 668.4,242.9 669.4,243.8 670.4,244.7" fill="#2a8" opacity="0.5" stroke="#2a8" stroke-width="1"/>
<line x1="641.0" y1="203.5948794001757" x2="709.0" y2="203.5948794001757" stroke="#114" stroke-width="2"/>
<circle cx="675.0" cy="238.19455788582627" r="2.4" fill="#114"/>
<text x="675.0" y="181.51130195051473" text-anchor="middle" font-size="11">1.42</text>
<text x="675.0" y="376" text-anchor="middle" font-size="12">zhpmv</text>
<polygon points="757.7,233.0 758.1,232.4 758.7,231.9 759.5,231.3 760.5,230.8 761.8,230.2 763.5,229.7 765.4,229.1 767.7,228.6 770.3,228.0 773.1,227.4 776.0,226.9 779.0,226.3 781.8,225.8 784.4,225.2 786.6,224.7 788.5,224.1 789.9,223.6 790.9,223.0 791.4,222.4 791.4,221.9 791.1,221.3 790.4,220.8 789.3,220.2 787.9,219.7 786.3,219.1 784.5,218.6 782.5,218.0 780.4,217.5 778.3,216.9 776.1,216.3 773.9,215.8 771.9,215.2 770.0,214.7 768.4,214.1 767.0,213.6 765.9,213.0 765.2,212.5 764.8,211.9 764.6,211.3 764.7,210.8 765.1,210.2 765.5,209.7 765.9,209.1 766.3,208.6 766.6,208.0 766.7,207.5 766.6,206.9 766.3,206.3 765.9,205.8 765.3,205.2 764.7,204.7 764.2,204.1 763.8,203.6 763.6,203.0 763.5,202.5 763.7,201.9 764.0,201.4 764.4,200.8 764.7,200.2 765.0,199.7 765.0,199.1 764.9,198.6 764.5,198.0 763.9,197.5 763.1,196.9 762.3,196.4 761.4,195.8 760.5,195.2 759.7,194.7 759.0,194.1 758.5,193.6 755.5,193.6 755.0,194.1 754.3,194.7 753.5,195.2 752.6,195.8 751.7,196.4 750.9,196.9 750.1,197.5 749.5,198.0 749.1,198.6 749.0,199.1 749.0,199.7 749.3,200.2 749.6,200.8 750.0,201.4 750.3,201.9 750.5,202.5 750.4,203.0 750.2,203.6 749.8,204.1 749.3,204.7 748.7,205.2 748.1,205.8 747.7,206.3 747.4,206.9 747.3,207.5 747.4,208.0 747.7,208.6 748.1,209.1 748.5,209.7 748.9,210.2 749.3,210.8 749.4,211.3 749.2,211.9 748.8,212.5 748.1,213.0 747.0,213.6 745.6,214.1 744.0,214.7 742.1,215.2 740.1,215.8 737.9,216.3 735.7,216.9 733.6,217.5 731.5,218.0 729.5,218.6 727.7,219.1 726.1,219.7 724.7,220.2 723.6,220.8 722.9,221.3 722.6,221.9 722.6,222.4 723.1,223.0 724.1,223.6 725.5,224.1 727.4,224.7 729.6,225.2 732.2,225.8 735.0,226.3 738.0,226.9 740.9,227.4 743.7,228.0 746.3,228.6 748.6,229.1 750.5,229.7 752.2,230.2 753.5,230.8 754.5,231.3 755.3,231.9 755.9,232.4 756.3,233.0" fill="#2a8" opacity="0.5" stroke="#2a8" stroke-width="1"/>
<line x1="725.1" y1="220.0472882759613" x2="788.9" y2="220.0472882759613" stroke="#114" stroke-width="2"/>
<circle cx="757.0" cy="225.3712006306634" r="2.4" fill="#114"/>
<text x="757.0" y="191.57072387264125" text-anchor="middle" font-size="11">1.27</text>
<text x="757.0" y="376" text-anchor="middle" font-size="12">zgbmvN</text>
<polygon points="839.0,244.6 839.0,244.5 839.1,244.3 839.1,244.2 839.1,244.1 839.2,243.9 839.2,243.8 839.3,243.7 839.4,243.5 839.5,243.4 839.7,243.2 840.0,243.1 840.6,243.0 841.5,242.8 842.8,242.7 844.6,242.5 847.1,242.4 850.2,242.3 853.9,242.1 857.9,242.0 862.0,241.9 865.9,241.7 869.3,241.6 871.8,241.4 873.2,241.3 873.4,241.2 872.7,241.0 871.0,240.9 868.6,240.8 865.9,240.6 862.9,240.5 860.0,240.3 857.2,240.2 854.7,240.1 852.4,239.9 850.6,239.8 849.0,239.7 847.9,239.5 847.0,239.4 846.4,239.2 846.0,239.1 845.6,239.0 845.3,238.8 844.9,238.7 844.5,238.6 843.9,238.4 843.4,238.3 842.8,238.1 842.3,238.0 841.8,237.9 841.5,237.7 841.4,237.6 841.4,237.5 841.7,237.3 842.1,237.2 842.7,237.0 843.4,236.9 844.2,236.8 845.0,236.6 845.7,236.5 846.2,236.4 846.4,236.2 846.3,236.1 845.9,235.9 845.2,235.8 844.3,235.7 843.3,235.5 842.3,235.4 841.5,235.2 840.7,235.1 840.1,235.0 839.7,234.8 838.3,234.8 837.9,235.0 837.3,235.1 836.5,235.2 835.7,235.4 834.7,235.5 833.7,235.7 832.8,235.8 832.1,235.9 831.7,236.1 831.6,236.2 831.8,236.4 832.3,236.5 833.0,236.6 833.8,236.8 834.6,236.9 835.3,237.0 835.9,237.2 836.3,237.3 836.6,237.5 836.6,237.6 836.5,237.7 836.2,237.9 835.7,238.0 835.2,238.1 834.6,238.3 834.1,238.4 833.5,238.6 833.1,238.7 832.7,238.8 832.4,239.0 832.0,239.1 831.6,239.2 831.0,239.4 830.1,239.5 829.0,239.7 827.4,239.8 825.6,239.9 823.3,240.1 820.8,240.2 818.0,240.3 815.1,240.5 812.1,240.6 809.4,240.8 807.0,240.9 805.3,241.0 804.6,241.2 804.8,241.3 806.2,241.4 808.7,241.6 812.1,241.7 816.0,241.9 820.1,242.0 824.1,242.1 827.8,242.3 830.9,242.4 833.4,242.5 835.2,242.7 836.5,242.8 837.4,243.0 838.0,243.1 838.3,243.2 838.5,243.4 838.6,243.5 838.7,243.7 838.8,243.8 838.8,243.9 838.9,244.1 838.9,244.2 838.9,244.3 839.0,244.5 839.0,244.6" fill="#2a8" opacity="0.5" stroke="#2a8" stroke-width="1"/>
<line x1="806.5" y1="240.93496157646226" x2="871.5" y2="240.93496157646226" stroke="#114" stroke-width="2"/>
<circle cx="839.0" cy="241.55724773339833" r="2.4" fill="#114"/>
<text x="839.0" y="229.9571383007244" text-anchor="middle" font-size="11">1.08</text>
<text x="839.0" y="376" text-anchor="middle" font-size="12">zhbmv</text>
<text x="450.0" y="428" text-anchor="middle" font-size="11" fill="#666">violin = ratio distribution over sizes · line = median · dark dot = worst size · green = every size ≥ gate</text>
</svg>
