<svg xmlns="http://www.w3.org/2000/svg" width="900" height="460" font-family="sans-serif">
<rect width="900" height="460" fill="white"/>
<text x="450.0" y="28" text-anchor="middle" font-size="18" font-weight="bold">BLAS-3: PureBLAS / OpenBLAS (AVX-512 native (Zen5), 1 thread, Float64)</text>
<line x1="62" y1="400.0" x2="768" y2="400.0" stroke="#eee"/>
<text x="54" y="404.0" text-anchor="end" font-size="11" fill="#666">0.5×</text>
<line x1="62" y1="330.2539587752999" x2="768" y2="330.2539587752999" stroke="#eee"/>
<text x="54" y="334.2539587752999" text-anchor="end" font-size="11" fill="#666">0.7×</text>
<line x1="62" y1="256.32017572807155" x2="768" y2="256.32017572807155" stroke="#eee"/>
<text x="54" y="260.32017572807155" text-anchor="end" font-size="11" fill="#666">1.0×</text>
<line x1="62" y1="172.27286641878806" x2="768" y2="172.27286641878806" stroke="#eee"/>
<text x="54" y="176.27286641878806" text-anchor="end" font-size="11" fill="#666">1.5×</text>
<line x1="62" y1="112.6403514561431" x2="768" y2="112.6403514561431" stroke="#eee"/>
<text x="54" y="116.6403514561431" text-anchor="end" font-size="11" fill="#666">2.0×</text>
<line x1="62.0" y1="50" x2="62.0" y2="400" stroke="#f4f4f4"/>
<text x="62.0" y="418" text-anchor="middle" font-size="11" fill="#444">8</text>
<line x1="238.5" y1="50" x2="238.5" y2="400" stroke="#f4f4f4"/>
<text x="238.5" y="418" text-anchor="middle" font-size="11" fill="#444">32</text>
<line x1="415.0" y1="50" x2="415.0" y2="400" stroke="#f4f4f4"/>
<text x="415.0" y="418" text-anchor="middle" font-size="11" fill="#444">128</text>
<line x1="503.25" y1="50" x2="503.25" y2="400" stroke="#f4f4f4"/>
<text x="503.25" y="418" text-anchor="middle" font-size="11" fill="#444">256</text>
<line x1="591.5" y1="50" x2="591.5" y2="400" stroke="#f4f4f4"/>
<text x="591.5" y="418" text-anchor="middle" font-size="11" fill="#444">512</text>
<line x1="679.75" y1="50" x2="679.75" y2="400" stroke="#f4f4f4"/>
<text x="679.75" y="418" text-anchor="middle" font-size="11" fill="#444">1024</text>
<line x1="768.0" y1="50" x2="768.0" y2="400" stroke="#f4f4f4"/>
<text x="768.0" y="418" text-anchor="middle" font-size="11" fill="#444">2048</text>
<line x1="62" y1="256.32017572807155" x2="768" y2="256.32017572807155" stroke="#888"/>
<line x1="62" y1="264.7820106220139" x2="768" y2="264.7820106220139" stroke="#d33" stroke-width="1.5" stroke-dasharray="6 4"/>
<text x="66" y="259.7820106220139" font-size="11" fill="#d33">0.96× gate</text>
<polygon points="62.0,200.8 238.5,271.6 415.0,195.9 503.2,208.5 591.5,232.5 679.8,228.4 768.0,211.9 768.0,213.1 679.8,230.9 591.5,234.8 503.2,210.9 415.0,199.5 238.5,278.2 62.0,215.0" fill="#1f77b4" opacity="0.14" stroke="none"/>
<polyline points="62.0,207.2 238.5,273.0 415.0,198.6 503.2,209.7 591.5,232.8 679.8,230.2 768.0,212.4" fill="none" stroke="#1f77b4" stroke-width="2"/>
<circle cx="62.0" cy="207.2" r="3" fill="#1f77b4"/>
<circle cx="238.5" cy="273.0" r="3" fill="#1f77b4"/>
<circle cx="415.0" cy="198.6" r="3" fill="#1f77b4"/>
<circle cx="503.2" cy="209.7" r="3" fill="#1f77b4"/>
<circle cx="591.5" cy="232.8" r="3" fill="#1f77b4"/>
<circle cx="679.8" cy="230.2" r="3" fill="#1f77b4"/>
<circle cx="768.0" cy="212.4" r="3" fill="#1f77b4"/>
<line x1="782" y1="56" x2="802" y2="56" stroke="#1f77b4" stroke-width="3"/>
<text x="806" y="60" font-size="12">gemm</text>
<polygon points="62.0,139.5 238.5,153.8 415.0,206.0 503.2,207.6 591.5,217.5 679.8,219.8 768.0,222.4 768.0,222.8 679.8,220.3 591.5,218.4 503.2,208.4 415.0,210.7 238.5,175.9 62.0,188.2" fill="#d62728" opacity="0.14" stroke="none"/>
<polyline points="62.0,145.6 238.5,168.6 415.0,208.7 503.2,208.0 591.5,217.7 679.8,220.1 768.0,222.7" fill="none" stroke="#d62728" stroke-width="2"/>
<circle cx="62.0" cy="145.6" r="3" fill="#d62728"/>
<circle cx="238.5" cy="168.6" r="3" fill="#d62728"/>
<circle cx="415.0" cy="208.7" r="3" fill="#d62728"/>
<circle cx="503.2" cy="208.0" r="3" fill="#d62728"/>
<circle cx="591.5" cy="217.7" r="3" fill="#d62728"/>
<circle cx="679.8" cy="220.1" r="3" fill="#d62728"/>
<circle cx="768.0" cy="222.7" r="3" fill="#d62728"/>
<line x1="782" y1="74" x2="802" y2="74" stroke="#d62728" stroke-width="3"/>
<text x="806" y="78" font-size="12">zgemm</text>
<polygon points="62.0,160.7 238.5,188.6 415.0,204.3 503.2,226.4 591.5,231.0 679.8,234.0 768.0,235.7 768.0,236.6 679.8,235.9 591.5,233.3 503.2,231.0 415.0,213.1 238.5,198.5 62.0,166.8" fill="#2ca02c" opacity="0.14" stroke="none"/>
<polyline points="62.0,164.5 238.5,193.8 415.0,208.9 503.2,228.6 591.5,231.6 679.8,234.5 768.0,235.9" fill="none" stroke="#2ca02c" stroke-width="2"/>
<circle cx="62.0" cy="164.5" r="3" fill="#2ca02c"/>
<circle cx="238.5" cy="193.8" r="3" fill="#2ca02c"/>
<circle cx="415.0" cy="208.9" r="3" fill="#2ca02c"/>
<circle cx="503.2" cy="228.6" r="3" fill="#2ca02c"/>
<circle cx="591.5" cy="231.6" r="3" fill="#2ca02c"/>
<circle cx="679.8" cy="234.5" r="3" fill="#2ca02c"/>
<circle cx="768.0" cy="235.9" r="3" fill="#2ca02c"/>
<line x1="782" y1="92" x2="802" y2="92" stroke="#2ca02c" stroke-width="3"/>
<text x="806" y="96" font-size="12">symm</text>
<polygon points="62.0,205.6 238.5,194.9 415.0,210.1 503.2,202.6 591.5,211.2 679.8,223.5 768.0,232.6 768.0,233.9 679.8,227.4 591.5,212.4 503.2,203.5 415.0,214.5 238.5,202.9 62.0,278.6" fill="#9467bd" opacity="0.14" stroke="none"/>
<polyline points="62.0,232.1 238.5,195.9 415.0,212.1 503.2,203.2 591.5,211.6 679.8,225.6 768.0,233.6" fill="none" stroke="#9467bd" stroke-width="2"/>
<circle cx="62.0" cy="232.1" r="3" fill="#9467bd"/>
<circle cx="238.5" cy="195.9" r="3" fill="#9467bd"/>
<circle cx="415.0" cy="212.1" r="3" fill="#9467bd"/>
<circle cx="503.2" cy="203.2" r="3" fill="#9467bd"/>
<circle cx="591.5" cy="211.6" r="3" fill="#9467bd"/>
<circle cx="679.8" cy="225.6" r="3" fill="#9467bd"/>
<circle cx="768.0" cy="233.6" r="3" fill="#9467bd"/>
<line x1="782" y1="110" x2="802" y2="110" stroke="#9467bd" stroke-width="3"/>
<text x="806" y="114" font-size="12">syrk</text>
<polygon points="62.0,162.7 238.5,199.7 415.0,177.0 503.2,180.0 591.5,219.1 679.8,232.9 768.0,236.8 768.0,239.6 679.8,234.0 591.5,220.2 503.2,180.4 415.0,184.0 238.5,205.4 62.0,170.9" fill="#ff7f0e" opacity="0.14" stroke="none"/>
<polyline points="62.0,164.5 238.5,204.6 415.0,179.0 503.2,180.2 591.5,219.5 679.8,233.3 768.0,237.7" fill="none" stroke="#ff7f0e" stroke-width="2"/>
<circle cx="62.0" cy="164.5" r="3" fill="#ff7f0e"/>
<circle cx="238.5" cy="204.6" r="3" fill="#ff7f0e"/>
<circle cx="415.0" cy="179.0" r="3" fill="#ff7f0e"/>
<circle cx="503.2" cy="180.2" r="3" fill="#ff7f0e"/>
<circle cx="591.5" cy="219.5" r="3" fill="#ff7f0e"/>
<circle cx="679.8" cy="233.3" r="3" fill="#ff7f0e"/>
<circle cx="768.0" cy="237.7" r="3" fill="#ff7f0e"/>
<line x1="782" y1="128" x2="802" y2="128" stroke="#ff7f0e" stroke-width="3"/>
<text x="806" y="132" font-size="12">syr2k</text>
<polygon points="62.0,174.1 238.5,206.9 415.0,192.6 503.2,200.0 591.5,228.9 679.8,245.5 768.0,239.4 768.0,240.1 679.8,247.6 591.5,234.5 503.2,206.8 415.0,202.1 238.5,210.0 62.0,184.7" fill="#17becf" opacity="0.14" stroke="none"/>
<polyline points="62.0,176.0 238.5,207.9 415.0,198.9 503.2,205.0 591.5,233.5 679.8,246.7 768.0,239.9" fill="none" stroke="#17becf" stroke-width="2"/>
<circle cx="62.0" cy="176.0" r="3" fill="#17becf"/>
<circle cx="238.5" cy="207.9" r="3" fill="#17becf"/>
<circle cx="415.0" cy="198.9" r="3" fill="#17becf"/>
<circle cx="503.2" cy="205.0" r="3" fill="#17becf"/>
<circle cx="591.5" cy="233.5" r="3" fill="#17becf"/>
<circle cx="679.8" cy="246.7" r="3" fill="#17becf"/>
<circle cx="768.0" cy="239.9" r="3" fill="#17becf"/>
<line x1="782" y1="146" x2="802" y2="146" stroke="#17becf" stroke-width="3"/>
<text x="806" y="150" font-size="12">trmm</text>
<polygon points="62.0,139.4 238.5,78.0 415.0,99.3 503.2,115.9 591.5,179.8 679.8,205.1 768.0,220.3 768.0,221.1 679.8,205.9 591.5,182.0 503.2,120.5 415.0,103.4 238.5,86.2 62.0,141.8" fill="#8c564b" opacity="0.14" stroke="none"/>
<polyline points="62.0,141.0 238.5,79.0 415.0,100.3 503.2,118.9 591.5,180.8 679.8,205.6 768.0,220.7" fill="none" stroke="#8c564b" stroke-width="2"/>
<circle cx="62.0" cy="141.0" r="3" fill="#8c564b"/>
<circle cx="238.5" cy="79.0" r="3" fill="#8c564b"/>
<circle cx="415.0" cy="100.3" r="3" fill="#8c564b"/>
<circle cx="503.2" cy="118.9" r="3" fill="#8c564b"/>
<circle cx="591.5" cy="180.8" r="3" fill="#8c564b"/>
<circle cx="679.8" cy="205.6" r="3" fill="#8c564b"/>
<circle cx="768.0" cy="220.7" r="3" fill="#8c564b"/>
<line x1="782" y1="164" x2="802" y2="164" stroke="#8c564b" stroke-width="3"/>
<text x="806" y="168" font-size="12">trsm</text>
<text x="415.0" y="450" text-anchor="middle" font-size="11" fill="#666">matrix size n (log) · y = median ratio (log) · dashed = the 0.96× gate</text>
</svg>
