<svg xmlns="http://www.w3.org/2000/svg" width="900" height="460" font-family="sans-serif">
<rect width="900" height="460" fill="white"/>
<text x="450.0" y="28" text-anchor="middle" font-size="18" font-weight="bold">Complex BLAS-3: PureBLAS / OpenBLAS (AVX2, 1 thread, ComplexF64)</text>
<line x1="62" y1="400.0" x2="768" y2="400.0" stroke="#eee"/>
<text x="54" y="404.0" text-anchor="end" font-size="11" fill="#666">0.5×</text>
<line x1="62" y1="312.85236261469845" x2="768" y2="312.85236261469845" stroke="#eee"/>
<text x="54" y="316.85236261469845" text-anchor="end" font-size="11" fill="#666">0.7×</text>
<line x1="62" y1="220.47214429140223" x2="768" y2="220.47214429140223" stroke="#eee"/>
<text x="54" y="224.47214429140223" text-anchor="end" font-size="11" fill="#666">1.0×</text>
<line x1="62" y1="115.455080866994" x2="768" y2="115.455080866994" stroke="#eee"/>
<text x="54" y="119.455080866994" text-anchor="end" font-size="11" fill="#666">1.5×</text>
<line x1="62.0" y1="50" x2="62.0" y2="400" stroke="#f4f4f4"/>
<text x="62.0" y="418" text-anchor="middle" font-size="11" fill="#444">8</text>
<line x1="238.5" y1="50" x2="238.5" y2="400" stroke="#f4f4f4"/>
<text x="238.5" y="418" text-anchor="middle" font-size="11" fill="#444">32</text>
<line x1="415.0" y1="50" x2="415.0" y2="400" stroke="#f4f4f4"/>
<text x="415.0" y="418" text-anchor="middle" font-size="11" fill="#444">128</text>
<line x1="503.25" y1="50" x2="503.25" y2="400" stroke="#f4f4f4"/>
<text x="503.25" y="418" text-anchor="middle" font-size="11" fill="#444">256</text>
<line x1="591.5" y1="50" x2="591.5" y2="400" stroke="#f4f4f4"/>
<text x="591.5" y="418" text-anchor="middle" font-size="11" fill="#444">512</text>
<line x1="679.75" y1="50" x2="679.75" y2="400" stroke="#f4f4f4"/>
<text x="679.75" y="418" text-anchor="middle" font-size="11" fill="#444">1024</text>
<line x1="768.0" y1="50" x2="768.0" y2="400" stroke="#f4f4f4"/>
<text x="768.0" y="418" text-anchor="middle" font-size="11" fill="#444">2048</text>
<line x1="62" y1="220.47214429140223" x2="768" y2="220.47214429140223" stroke="#888"/>
<line x1="62" y1="231.0452020019583" x2="768" y2="231.0452020019583" stroke="#d33" stroke-width="1.5" stroke-dasharray="6 4"/>
<text x="66" y="226.0452020019583" font-size="11" fill="#d33">0.96× gate</text>
<polygon points="62.0,144.2 238.5,235.4 415.0,200.6 503.2,181.2 591.5,168.5 679.8,167.7 768.0,160.9 768.0,161.9 679.8,169.4 591.5,170.0 503.2,181.4 415.0,201.0 238.5,236.7 62.0,145.6" fill="#1f77b4" opacity="0.14" stroke="none"/>
<polyline points="62.0,145.0 238.5,236.3 415.0,200.8 503.2,181.3 591.5,168.8 679.8,168.5 768.0,161.0" fill="none" stroke="#1f77b4" stroke-width="2"/>
<circle cx="62.0" cy="145.0" r="3" fill="#1f77b4"/>
<circle cx="238.5" cy="236.3" r="3" fill="#1f77b4"/>
<circle cx="415.0" cy="200.8" r="3" fill="#1f77b4"/>
<circle cx="503.2" cy="181.3" r="3" fill="#1f77b4"/>
<circle cx="591.5" cy="168.8" r="3" fill="#1f77b4"/>
<circle cx="679.8" cy="168.5" r="3" fill="#1f77b4"/>
<circle cx="768.0" cy="161.0" r="3" fill="#1f77b4"/>
<line x1="782" y1="56" x2="802" y2="56" stroke="#1f77b4" stroke-width="3"/>
<text x="806" y="60" font-size="12">zgemm</text>
<polygon points="62.0,380.6 238.5,258.6 415.0,249.9 503.2,242.5 591.5,236.5 679.8,230.3 768.0,229.2 768.0,230.2 679.8,230.4 591.5,236.7 503.2,242.6 415.0,250.4 238.5,261.0 62.0,394.1" fill="#d62728" opacity="0.14" stroke="none"/>
<polyline points="62.0,381.3 238.5,259.2 415.0,250.2 503.2,242.6 591.5,236.7 679.8,230.4 768.0,229.2" fill="none" stroke="#d62728" stroke-width="2"/>
<circle cx="62.0" cy="381.3" r="3" fill="#d62728"/>
<circle cx="238.5" cy="259.2" r="3" fill="#d62728"/>
<circle cx="415.0" cy="250.2" r="3" fill="#d62728"/>
<circle cx="503.2" cy="242.6" r="3" fill="#d62728"/>
<circle cx="591.5" cy="236.7" r="3" fill="#d62728"/>
<circle cx="679.8" cy="230.4" r="3" fill="#d62728"/>
<circle cx="768.0" cy="229.2" r="3" fill="#d62728"/>
<line x1="782" y1="74" x2="802" y2="74" stroke="#d62728" stroke-width="3"/>
<text x="806" y="78" font-size="12">zhemm</text>
<polygon points="62.0,372.8 238.5,260.4 415.0,222.0 503.2,194.7 591.5,174.6 679.8,170.0 768.0,162.6 768.0,163.8 679.8,171.9 591.5,176.4 503.2,195.3 415.0,222.5 238.5,264.8 62.0,378.0" fill="#2ca02c" opacity="0.14" stroke="none"/>
<polyline points="62.0,375.8 238.5,261.5 415.0,222.3 503.2,195.1 591.5,174.8 679.8,171.8 768.0,162.8" fill="none" stroke="#2ca02c" stroke-width="2"/>
<circle cx="62.0" cy="375.8" r="3" fill="#2ca02c"/>
<circle cx="238.5" cy="261.5" r="3" fill="#2ca02c"/>
<circle cx="415.0" cy="222.3" r="3" fill="#2ca02c"/>
<circle cx="503.2" cy="195.1" r="3" fill="#2ca02c"/>
<circle cx="591.5" cy="174.8" r="3" fill="#2ca02c"/>
<circle cx="679.8" cy="171.8" r="3" fill="#2ca02c"/>
<circle cx="768.0" cy="162.8" r="3" fill="#2ca02c"/>
<line x1="782" y1="92" x2="802" y2="92" stroke="#2ca02c" stroke-width="3"/>
<text x="806" y="96" font-size="12">zsymm</text>
<polygon points="62.0,201.8 238.5,185.6 415.0,220.1 503.2,228.0 591.5,230.9 679.8,244.2 768.0,242.6 768.0,243.0 679.8,244.4 591.5,231.9 503.2,229.2 415.0,220.6 238.5,190.9 62.0,234.3" fill="#9467bd" opacity="0.14" stroke="none"/>
<polyline points="62.0,205.2 238.5,187.0 415.0,220.4 503.2,228.4 591.5,231.2 679.8,244.3 768.0,242.7" fill="none" stroke="#9467bd" stroke-width="2"/>
<circle cx="62.0" cy="205.2" r="3" fill="#9467bd"/>
<circle cx="238.5" cy="187.0" r="3" fill="#9467bd"/>
<circle cx="415.0" cy="220.4" r="3" fill="#9467bd"/>
<circle cx="503.2" cy="228.4" r="3" fill="#9467bd"/>
<circle cx="591.5" cy="231.2" r="3" fill="#9467bd"/>
<circle cx="679.8" cy="244.3" r="3" fill="#9467bd"/>
<circle cx="768.0" cy="242.7" r="3" fill="#9467bd"/>
<line x1="782" y1="110" x2="802" y2="110" stroke="#9467bd" stroke-width="3"/>
<text x="806" y="114" font-size="12">zsyrk</text>
<polygon points="62.0,208.8 238.5,190.0 415.0,219.0 503.2,225.4 591.5,228.4 679.8,242.5 768.0,241.2 768.0,241.4 679.8,242.6 591.5,229.0 503.2,225.8 415.0,219.4 238.5,195.0 62.0,233.3" fill="#ff7f0e" opacity="0.14" stroke="none"/>
<polyline points="62.0,232.3 238.5,191.1 415.0,219.3 503.2,225.8 591.5,228.6 679.8,242.5 768.0,241.4" fill="none" stroke="#ff7f0e" stroke-width="2"/>
<circle cx="62.0" cy="232.3" r="3" fill="#ff7f0e"/>
<circle cx="238.5" cy="191.1" r="3" fill="#ff7f0e"/>
<circle cx="415.0" cy="219.3" r="3" fill="#ff7f0e"/>
<circle cx="503.2" cy="225.8" r="3" fill="#ff7f0e"/>
<circle cx="591.5" cy="228.6" r="3" fill="#ff7f0e"/>
<circle cx="679.8" cy="242.5" r="3" fill="#ff7f0e"/>
<circle cx="768.0" cy="241.4" r="3" fill="#ff7f0e"/>
<line x1="782" y1="128" x2="802" y2="128" stroke="#ff7f0e" stroke-width="3"/>
<text x="806" y="132" font-size="12">zherk</text>
<polygon points="62.0,306.9 238.5,220.0 415.0,232.1 503.2,238.6 591.5,250.6 679.8,246.3 768.0,241.7 768.0,241.8 679.8,246.4 591.5,251.1 503.2,238.9 415.0,232.8 238.5,225.3 62.0,308.2" fill="#17becf" opacity="0.14" stroke="none"/>
<polyline points="62.0,307.7 238.5,222.9 415.0,232.3 503.2,238.9 591.5,250.7 679.8,246.4 768.0,241.7" fill="none" stroke="#17becf" stroke-width="2"/>
<circle cx="62.0" cy="307.7" r="3" fill="#17becf"/>
<circle cx="238.5" cy="222.9" r="3" fill="#17becf"/>
<circle cx="415.0" cy="232.3" r="3" fill="#17becf"/>
<circle cx="503.2" cy="238.9" r="3" fill="#17becf"/>
<circle cx="591.5" cy="250.7" r="3" fill="#17becf"/>
<circle cx="679.8" cy="246.4" r="3" fill="#17becf"/>
<circle cx="768.0" cy="241.7" r="3" fill="#17becf"/>
<line x1="782" y1="146" x2="802" y2="146" stroke="#17becf" stroke-width="3"/>
<text x="806" y="150" font-size="12">zher2k</text>
<polygon points="62.0,265.7 238.5,217.4 415.0,232.9 503.2,239.1 591.5,253.3 679.8,247.6 768.0,243.5 768.0,244.3 679.8,247.8 591.5,253.7 503.2,240.0 415.0,233.2 238.5,222.5 62.0,292.5" fill="#8c564b" opacity="0.14" stroke="none"/>
<polyline points="62.0,269.4 238.5,219.6 415.0,233.1 503.2,239.8 591.5,253.4 679.8,247.8 768.0,243.9" fill="none" stroke="#8c564b" stroke-width="2"/>
<circle cx="62.0" cy="269.4" r="3" fill="#8c564b"/>
<circle cx="238.5" cy="219.6" r="3" fill="#8c564b"/>
<circle cx="415.0" cy="233.1" r="3" fill="#8c564b"/>
<circle cx="503.2" cy="239.8" r="3" fill="#8c564b"/>
<circle cx="591.5" cy="253.4" r="3" fill="#8c564b"/>
<circle cx="679.8" cy="247.8" r="3" fill="#8c564b"/>
<circle cx="768.0" cy="243.9" r="3" fill="#8c564b"/>
<line x1="782" y1="164" x2="802" y2="164" stroke="#8c564b" stroke-width="3"/>
<text x="806" y="168" font-size="12">zsyr2k</text>
<polygon points="62.0,232.9 238.5,261.3 415.0,241.6 503.2,227.2 591.5,212.9 679.8,198.3 768.0,188.4 768.0,190.0 679.8,198.6 591.5,213.4 503.2,227.3 415.0,242.4 238.5,266.5 62.0,233.6" fill="#e377c2" opacity="0.14" stroke="none"/>
<polyline points="62.0,233.4 238.5,264.8 415.0,242.1 503.2,227.2 591.5,213.3 679.8,198.5 768.0,189.2" fill="none" stroke="#e377c2" stroke-width="2"/>
<circle cx="62.0" cy="233.4" r="3" fill="#e377c2"/>
<circle cx="238.5" cy="264.8" r="3" fill="#e377c2"/>
<circle cx="415.0" cy="242.1" r="3" fill="#e377c2"/>
<circle cx="503.2" cy="227.2" r="3" fill="#e377c2"/>
<circle cx="591.5" cy="213.3" r="3" fill="#e377c2"/>
<circle cx="679.8" cy="198.5" r="3" fill="#e377c2"/>
<circle cx="768.0" cy="189.2" r="3" fill="#e377c2"/>
<line x1="782" y1="182" x2="802" y2="182" stroke="#e377c2" stroke-width="3"/>
<text x="806" y="186" font-size="12">ztrmm</text>
<polygon points="62.0,154.6 238.5,209.5 415.0,251.1 503.2,221.8 591.5,194.6 679.8,184.4 768.0,179.8 768.0,179.8 679.8,185.2 591.5,194.8 503.2,222.0 415.0,252.1 238.5,211.5 62.0,156.4" fill="#1f77b4" opacity="0.14" stroke="none"/>
<polyline points="62.0,155.6 238.5,210.9 415.0,252.0 503.2,221.8 591.5,194.8 679.8,184.8 768.0,179.8" fill="none" stroke="#1f77b4" stroke-width="2"/>
<circle cx="62.0" cy="155.6" r="3" fill="#1f77b4"/>
<circle cx="238.5" cy="210.9" r="3" fill="#1f77b4"/>
<circle cx="415.0" cy="252.0" r="3" fill="#1f77b4"/>
<circle cx="503.2" cy="221.8" r="3" fill="#1f77b4"/>
<circle cx="591.5" cy="194.8" r="3" fill="#1f77b4"/>
<circle cx="679.8" cy="184.8" r="3" fill="#1f77b4"/>
<circle cx="768.0" cy="179.8" r="3" fill="#1f77b4"/>
<line x1="782" y1="200" x2="802" y2="200" stroke="#1f77b4" stroke-width="3"/>
<text x="806" y="204" font-size="12">ztrsm</text>
<polygon points="62.0,215.4 238.5,268.7 415.0,240.8 503.2,222.4 591.5,203.7 679.8,192.6 768.0,182.5 768.0,183.7 679.8,193.2 591.5,204.0 503.2,222.6 415.0,241.3 238.5,276.8 62.0,215.9" fill="#d62728" opacity="0.14" stroke="none"/>
<polyline points="62.0,215.6 238.5,272.5 415.0,241.0 503.2,222.4 591.5,203.8 679.8,192.8 768.0,183.3" fill="none" stroke="#d62728" stroke-width="2"/>
<circle cx="62.0" cy="215.6" r="3" fill="#d62728"/>
<circle cx="238.5" cy="272.5" r="3" fill="#d62728"/>
<circle cx="415.0" cy="241.0" r="3" fill="#d62728"/>
<circle cx="503.2" cy="222.4" r="3" fill="#d62728"/>
<circle cx="591.5" cy="203.8" r="3" fill="#d62728"/>
<circle cx="679.8" cy="192.8" r="3" fill="#d62728"/>
<circle cx="768.0" cy="183.3" r="3" fill="#d62728"/>
<line x1="782" y1="218" x2="802" y2="218" stroke="#d62728" stroke-width="3"/>
<text x="806" y="222" font-size="12">ztrmmR</text>
<polygon points="62.0,83.7 238.5,99.7 415.0,205.0 503.2,191.6 591.5,188.7 679.8,189.9 768.0,179.4 768.0,179.7 679.8,191.4 591.5,188.8 503.2,191.8 415.0,205.3 238.5,104.2 62.0,87.1" fill="#2ca02c" opacity="0.14" stroke="none"/>
<polyline points="62.0,86.2 238.5,101.8 415.0,205.1 503.2,191.7 591.5,188.8 679.8,190.2 768.0,179.5" fill="none" stroke="#2ca02c" stroke-width="2"/>
<circle cx="62.0" cy="86.2" r="3" fill="#2ca02c"/>
<circle cx="238.5" cy="101.8" r="3" fill="#2ca02c"/>
<circle cx="415.0" cy="205.1" r="3" fill="#2ca02c"/>
<circle cx="503.2" cy="191.7" r="3" fill="#2ca02c"/>
<circle cx="591.5" cy="188.8" r="3" fill="#2ca02c"/>
<circle cx="679.8" cy="190.2" r="3" fill="#2ca02c"/>
<circle cx="768.0" cy="179.5" r="3" fill="#2ca02c"/>
<line x1="782" y1="236" x2="802" y2="236" stroke="#2ca02c" stroke-width="3"/>
<text x="806" y="240" font-size="12">ztrsmR</text>
<text x="415.0" y="450" text-anchor="middle" font-size="11" fill="#666">matrix size n (log) · y = median ratio (log) · dashed = the 0.96× gate</text>
</svg>
