<svg xmlns="http://www.w3.org/2000/svg" width="900" height="440" font-family="sans-serif">
<rect width="900" height="440" fill="white"/>
<text x="450.0" y="28" text-anchor="middle" font-size="18" font-weight="bold">BLAS-1: PureBLAS / OpenBLAS (AVX-512, 1 thread, Float64)</text>
<line x1="60" y1="358.0" x2="880" y2="358.0" stroke="#eee"/>
<text x="52" y="362.0" text-anchor="end" font-size="11" fill="#666">0×</text>
<line x1="60" y1="346.64983442495225" x2="880" y2="346.64983442495225" stroke="#eee"/>
<text x="52" y="350.64983442495225" text-anchor="end" font-size="11" fill="#666">0.5×</text>
<line x1="60" y1="335.2996688499045" x2="880" y2="335.2996688499045" stroke="#eee"/>
<text x="52" y="339.2996688499045" text-anchor="end" font-size="11" fill="#666">1×</text>
<line x1="60" y1="323.94950327485674" x2="880" y2="323.94950327485674" stroke="#eee"/>
<text x="52" y="327.94950327485674" text-anchor="end" font-size="11" fill="#666">1.5×</text>
<line x1="60" y1="335.2996688499045" x2="880" y2="335.2996688499045" stroke="#888" stroke-width="1"/>
<line x1="60" y1="336.2076820959083" x2="880" y2="336.2076820959083" stroke="#d33" stroke-width="1.5" stroke-dasharray="6 4"/>
<text x="880" y="331.2076820959083" text-anchor="end" font-size="11" fill="#d33">0.96× gate</text>
<polygon points="128.4,338.1 128.5,337.9 128.7,337.8 129.0,337.7 129.3,337.6 129.8,337.5 130.4,337.4 130.9,337.2 131.4,337.1 131.7,337.0 132.0,336.9 132.4,336.8 133.0,336.7 134.0,336.6 135.6,336.4 138.1,336.3 141.7,336.2 146.5,336.1 152.6,336.0 159.6,335.9 167.0,335.7 174.1,335.6 180.0,335.5 184.0,335.4 185.7,335.3 185.1,335.2 182.4,335.0 178.2,334.9 172.9,334.8 167.0,334.7 160.8,334.6 154.7,334.5 148.8,334.4 143.5,334.2 139.0,334.1 135.6,334.0 133.1,333.9 131.6,333.8 130.8,333.7 130.7,333.5 131.2,333.4 132.2,333.3 133.9,333.2 136.0,333.1 138.2,333.0 140.1,332.8 141.3,332.7 141.6,332.6 140.8,332.5 139.2,332.4 137.2,332.3 135.0,332.2 133.1,332.0 131.6,331.9 130.5,331.8 129.8,331.7 129.4,331.6 129.2,331.5 129.0,331.3 129.0,331.2 129.0,331.1 129.0,331.0 129.0,330.9 129.0,330.8 128.9,330.6 128.8,330.5 128.7,330.4 128.6,330.3 128.5,330.2 128.4,330.1 128.4,330.0 128.4,329.8 128.3,329.8 128.3,330.0 128.2,330.1 128.1,330.2 128.0,330.3 127.9,330.4 127.8,330.5 127.7,330.6 127.7,330.8 127.7,330.9 127.7,331.0 127.7,331.1 127.7,331.2 127.6,331.3 127.5,331.5 127.3,331.6 126.8,331.7 126.2,331.8 125.1,331.9 123.6,332.0 121.7,332.2 119.5,332.3 117.4,332.4 115.8,332.5 115.1,332.6 115.3,332.7 116.6,332.8 118.5,333.0 120.7,333.1 122.8,333.2 124.4,333.3 125.5,333.4 126.0,333.5 125.9,333.7 125.1,333.8 123.5,333.9 121.1,334.0 117.7,334.1 113.2,334.2 107.9,334.4 102.0,334.5 95.8,334.6 89.7,334.7 83.8,334.8 78.5,334.9 74.3,335.0 71.6,335.2 70.9,335.3 72.6,335.4 76.7,335.5 82.6,335.6 89.6,335.7 97.1,335.9 104.1,336.0 110.2,336.1 115.0,336.2 118.6,336.3 121.1,336.4 122.7,336.6 123.7,336.7 124.3,336.8 124.6,336.9 124.9,337.0 125.3,337.1 125.8,337.2 126.3,337.4 126.8,337.5 127.3,337.6 127.7,337.7 128.0,337.8 128.1,337.9 128.2,338.1" fill="#2a8" opacity="0.5" stroke="#2a8" stroke-width="1"/>
<line x1="71.6" y1="335.1641327363774" x2="185.1" y2="335.1641327363774" stroke="#114" stroke-width="2"/>
<circle cx="128.33333333333331" cy="335.72501599888176" r="2.4" fill="#114"/>
<text x="128.33333333333331" y="324.66865275044603" text-anchor="middle" font-size="11">1.01</text>
<text x="128.33333333333331" y="376" text-anchor="middle" font-size="12">axpy</text>
<polygon points="265.0,339.4 265.0,339.3 265.0,339.3 265.1,339.2 265.2,339.1 265.3,339.0 265.5,338.9 265.6,338.8 265.6,338.7 265.5,338.7 265.4,338.6 265.2,338.5 265.2,338.4 265.2,338.3 265.3,338.2 265.3,338.1 265.3,338.1 265.3,338.0 265.3,337.9 265.3,337.8 265.4,337.7 265.4,337.6 265.5,337.5 265.5,337.4 265.6,337.4 265.6,337.3 265.7,337.2 265.7,337.1 265.7,337.0 265.6,336.9 265.5,336.8 265.6,336.8 265.8,336.7 266.1,336.6 266.5,336.5 266.7,336.4 266.9,336.3 267.0,336.2 267.2,336.2 267.6,336.1 268.3,336.0 269.6,335.9 271.9,335.8 275.8,335.7 282.4,335.6 292.1,335.6 304.3,335.5 315.8,335.4 322.4,335.3 321.8,335.2 315.1,335.1 306.2,335.0 298.6,335.0 293.5,334.9 289.9,334.8 286.5,334.7 282.7,334.6 278.7,334.5 275.2,334.4 272.3,334.4 270.3,334.3 269.0,334.2 268.1,334.1 267.5,334.0 266.8,333.9 266.2,333.8 265.6,333.8 265.3,333.7 265.1,333.6 265.0,333.5 265.0,333.4 265.0,333.3 265.0,333.3 265.0,333.4 265.0,333.5 264.9,333.6 264.7,333.7 264.4,333.8 263.8,333.8 263.2,333.9 262.5,334.0 261.9,334.1 261.0,334.2 259.7,334.3 257.7,334.4 254.8,334.4 251.3,334.5 247.3,334.6 243.5,334.7 240.1,334.8 236.5,334.9 231.4,335.0 223.8,335.0 214.9,335.1 208.2,335.2 207.6,335.3 214.2,335.4 225.7,335.5 237.9,335.6 247.6,335.6 254.2,335.7 258.1,335.8 260.4,335.9 261.7,336.0 262.4,336.1 262.8,336.2 263.0,336.2 263.1,336.3 263.3,336.4 263.5,336.5 263.9,336.6 264.2,336.7 264.4,336.8 264.5,336.8 264.4,336.9 264.3,337.0 264.3,337.1 264.3,337.2 264.4,337.3 264.4,337.4 264.5,337.4 264.5,337.5 264.6,337.6 264.6,337.7 264.7,337.8 264.7,337.9 264.7,338.0 264.7,338.1 264.7,338.1 264.7,338.2 264.8,338.3 264.8,338.4 264.8,338.5 264.6,338.6 264.5,338.7 264.4,338.7 264.4,338.8 264.5,338.9 264.7,339.0 264.8,339.1 264.9,339.2 265.0,339.3 265.0,339.3 265.0,339.4" fill="#2a8" opacity="0.5" stroke="#2a8" stroke-width="1"/>
<line x1="207.2" y1="335.2440413246283" x2="322.8" y2="335.2440413246283" stroke="#114" stroke-width="2"/>
<circle cx="265.0" cy="335.3632584383162" r="2.4" fill="#114"/>
<text x="265.0" y="327.95278469180937" text-anchor="middle" font-size="11">1.00</text>
<text x="265.0" y="376" text-anchor="middle" font-size="12">dot</text>
<polygon points="406.2,293.4 407.8,290.0 409.8,286.5 412.3,283.1 415.1,279.7 418.3,276.2 421.9,272.8 425.7,269.4 429.6,266.0 433.5,262.5 437.1,259.1 440.5,255.7 443.3,252.2 445.6,248.8 447.2,245.4 448.3,242.0 448.9,238.5 449.1,235.1 449.0,231.7 448.9,228.3 448.9,224.8 449.2,221.4 449.8,218.0 450.7,214.5 452.1,211.1 453.6,207.7 455.3,204.3 456.9,200.8 458.1,197.4 458.9,194.0 459.1,190.5 458.4,187.1 456.8,183.7 454.4,180.3 451.1,176.8 447.2,173.4 442.7,170.0 437.9,166.6 433.1,163.1 428.3,159.7 423.9,156.3 419.9,152.8 416.5,149.4 413.7,146.0 411.6,142.6 410.2,139.1 409.4,135.7 409.1,132.3 409.5,128.8 410.4,125.4 411.8,122.0 413.6,118.6 415.9,115.1 418.4,111.7 421.3,108.3 424.2,104.8 427.2,101.4 430.1,98.0 432.8,94.6 435.1,91.1 436.9,87.7 438.0,84.3 438.5,80.9 438.3,77.4 437.4,74.0 435.7,70.6 433.5,67.1 430.9,63.7 427.9,60.3 424.7,56.9 421.5,53.4 418.3,50.0 385.0,50.0 381.9,53.4 378.6,56.9 375.5,60.3 372.5,63.7 369.8,67.1 367.6,70.6 366.0,74.0 365.0,77.4 364.8,80.9 365.3,84.3 366.5,87.7 368.2,91.1 370.5,94.6 373.2,98.0 376.1,101.4 379.1,104.8 382.1,108.3 384.9,111.7 387.5,115.1 389.7,118.6 391.5,122.0 392.9,125.4 393.8,128.8 394.2,132.3 394.0,135.7 393.2,139.1 391.7,142.6 389.6,146.0 386.8,149.4 383.4,152.8 379.4,156.3 375.0,159.7 370.3,163.1 365.4,166.6 360.6,170.0 356.2,173.4 352.2,176.8 348.9,180.3 346.5,183.7 344.9,187.1 344.3,190.5 344.4,194.0 345.2,197.4 346.5,200.8 348.1,204.3 349.7,207.7 351.3,211.1 352.6,214.5 353.6,218.0 354.2,221.4 354.4,224.8 354.4,228.3 354.3,231.7 354.3,235.1 354.5,238.5 355.0,242.0 356.1,245.4 357.8,248.8 360.0,252.2 362.9,255.7 366.2,259.1 369.9,262.5 373.7,266.0 377.7,269.4 381.5,272.8 385.0,276.2 388.2,279.7 391.1,283.1 393.5,286.5 395.5,290.0 397.1,293.4" fill="#2a8" opacity="0.5" stroke="#2a8" stroke-width="1"/>
<line x1="346.6" y1="183.50753761068714" x2="456.7" y2="183.50753761068714" stroke="#114" stroke-width="2"/>
<circle cx="401.66666666666663" cy="247.96823350035982" r="2.4" fill="#114"/>
<text x="401.66666666666663" y="61.43396226415098" text-anchor="middle" font-size="11">7.69</text>
<text x="401.66666666666663" y="376" text-anchor="middle" font-size="12">nrm2</text>
<polygon points="540.4,338.2 541.5,338.0 543.0,337.8 545.1,337.6 547.8,337.4 551.3,337.2 555.5,337.0 560.4,336.8 565.9,336.7 571.8,336.5 577.7,336.3 583.4,336.1 588.3,335.9 592.2,335.7 594.7,335.5 595.7,335.3 595.2,335.1 593.2,334.9 590.1,334.7 586.1,334.5 581.6,334.3 577.0,334.1 572.6,333.9 568.6,333.7 565.1,333.5 562.2,333.3 559.7,333.1 557.6,332.9 555.8,332.7 554.2,332.5 552.7,332.4 551.1,332.2 549.5,332.0 548.0,331.8 546.4,331.6 544.9,331.4 543.6,331.2 542.4,331.0 541.4,330.8 540.6,330.6 539.9,330.4 539.5,330.2 539.2,330.0 539.0,329.8 539.0,329.6 539.1,329.4 539.3,329.2 539.6,329.0 540.1,328.8 540.7,328.6 541.5,328.4 542.4,328.3 543.4,328.1 544.5,327.9 545.7,327.7 546.8,327.5 547.8,327.3 548.7,327.1 549.4,326.9 549.7,326.7 549.8,326.5 549.4,326.3 548.8,326.1 548.0,325.9 546.9,325.7 545.7,325.5 544.5,325.3 543.4,325.1 542.3,324.9 541.3,324.7 540.6,324.5 539.9,324.3 536.7,324.3 536.1,324.5 535.3,324.7 534.4,324.9 533.3,325.1 532.1,325.3 530.9,325.5 529.8,325.7 528.7,325.9 527.8,326.1 527.2,326.3 526.9,326.5 526.9,326.7 527.3,326.9 527.9,327.1 528.8,327.3 529.9,327.5 531.0,327.7 532.2,327.9 533.3,328.1 534.3,328.3 535.2,328.4 536.0,328.6 536.6,328.8 537.0,329.0 537.4,329.2 537.6,329.4 537.7,329.6 537.6,329.8 537.5,330.0 537.2,330.2 536.7,330.4 536.1,330.6 535.3,330.8 534.3,331.0 533.1,331.2 531.7,331.4 530.3,331.6 528.7,331.8 527.1,332.0 525.6,332.2 524.0,332.4 522.4,332.5 520.8,332.7 519.0,332.9 517.0,333.1 514.5,333.3 511.6,333.5 508.1,333.7 504.1,333.9 499.6,334.1 495.0,334.3 490.6,334.5 486.6,334.7 483.4,334.9 481.5,335.1 480.9,335.3 481.9,335.5 484.5,335.7 488.4,335.9 493.3,336.1 498.9,336.3 504.9,336.5 510.7,336.7 516.3,336.8 521.2,337.0 525.4,337.2 528.9,337.4 531.6,337.6 533.7,337.8 535.2,338.0 536.3,338.2" fill="#2a8" opacity="0.5" stroke="#2a8" stroke-width="1"/>
<line x1="481.4" y1="335.1047713224012" x2="595.3" y2="335.1047713224012" stroke="#114" stroke-width="2"/>
<circle cx="538.3333333333333" cy="335.7261618116684" r="2.4" fill="#114"/>
<text x="538.3333333333333" y="319.7221221376316" text-anchor="middle" font-size="11">1.01</text>
<text x="538.3333333333333" y="376" text-anchor="middle" font-size="12">asum</text>
<polygon points="675.0,338.4 675.1,338.3 675.1,338.1 675.2,338.0 675.5,337.9 675.8,337.7 676.2,337.6 676.8,337.5 677.5,337.3 678.1,337.2 678.7,337.0 679.0,336.9 679.2,336.8 679.2,336.6 679.2,336.5 679.4,336.4 679.8,336.2 680.7,336.1 682.2,336.0 684.5,335.8 688.2,335.7 693.4,335.6 700.4,335.4 708.9,335.3 717.7,335.1 725.6,335.0 730.8,334.9 732.4,334.7 730.2,334.6 725.0,334.5 718.3,334.3 711.5,334.2 705.8,334.1 701.2,333.9 697.6,333.8 694.4,333.6 691.3,333.5 688.5,333.4 685.9,333.2 684.1,333.1 683.2,333.0 683.2,332.8 684.0,332.7 685.3,332.6 686.6,332.4 687.5,332.3 687.7,332.2 687.0,332.0 685.7,331.9 684.0,331.7 682.3,331.6 680.7,331.5 679.4,331.3 678.3,331.2 677.4,331.1 676.8,330.9 676.4,330.8 676.1,330.7 675.9,330.5 675.8,330.4 675.8,330.2 675.7,330.1 675.7,330.0 675.6,329.8 675.5,329.7 675.4,329.6 675.3,329.4 675.2,329.3 675.1,329.2 675.1,329.0 675.0,328.9 675.0,328.7 675.0,328.7 675.0,328.9 674.9,329.0 674.9,329.2 674.8,329.3 674.7,329.4 674.6,329.6 674.5,329.7 674.4,329.8 674.3,330.0 674.3,330.1 674.2,330.2 674.2,330.4 674.1,330.5 673.9,330.7 673.6,330.8 673.2,330.9 672.6,331.1 671.7,331.2 670.6,331.3 669.3,331.5 667.7,331.6 666.0,331.7 664.3,331.9 663.0,332.0 662.3,332.2 662.5,332.3 663.4,332.4 664.7,332.6 666.0,332.7 666.8,332.8 666.8,333.0 665.9,333.1 664.1,333.2 661.5,333.4 658.7,333.5 655.6,333.6 652.4,333.8 648.8,333.9 644.2,334.1 638.5,334.2 631.7,334.3 625.0,334.5 619.8,334.6 617.6,334.7 619.2,334.9 624.4,335.0 632.3,335.1 641.1,335.3 649.6,335.4 656.6,335.6 661.8,335.7 665.5,335.8 667.8,336.0 669.3,336.1 670.2,336.2 670.6,336.4 670.8,336.5 670.8,336.6 670.8,336.8 671.0,336.9 671.3,337.0 671.9,337.2 672.5,337.3 673.2,337.5 673.8,337.6 674.2,337.7 674.5,337.9 674.8,338.0 674.9,338.1 674.9,338.3 675.0,338.4" fill="#2a8" opacity="0.5" stroke="#2a8" stroke-width="1"/>
<line x1="618.8" y1="334.64099689108946" x2="731.2" y2="334.64099689108946" stroke="#114" stroke-width="2"/>
<circle cx="675.0" cy="335.00266202361075" r="2.4" fill="#114"/>
<text x="675.0" y="323.720496458" text-anchor="middle" font-size="11">1.03</text>
<text x="675.0" y="376" text-anchor="middle" font-size="12">scal</text>
<polygon points="812.4,342.5 812.8,342.1 813.4,341.7 814.2,341.3 815.1,340.9 816.3,340.5 817.6,340.1 819.1,339.7 820.7,339.3 822.4,338.9 824.3,338.5 826.2,338.1 828.2,337.7 830.3,337.3 832.6,336.9 834.8,336.5 837.1,336.1 839.2,335.7 841.1,335.3 842.8,334.9 844.1,334.5 845.2,334.1 846.1,333.7 846.8,333.3 847.4,332.9 848.0,332.5 848.7,332.1 849.6,331.7 850.6,331.3 851.9,330.9 853.3,330.5 854.9,330.1 856.6,329.7 858.5,329.3 860.3,328.9 862.2,328.5 864.0,328.1 865.6,327.7 867.0,327.3 868.0,326.9 868.7,326.5 869.1,326.1 869.0,325.7 868.5,325.3 867.6,324.9 866.3,324.5 864.8,324.1 862.8,323.7 860.6,323.3 857.9,322.9 854.9,322.5 851.6,322.1 848.1,321.7 844.4,321.3 840.7,320.9 837.1,320.5 833.8,320.1 830.7,319.7 827.8,319.3 825.3,318.9 823.0,318.5 821.0,318.1 819.2,317.7 817.6,317.3 816.3,316.9 815.2,316.5 814.3,316.1 813.6,315.7 813.0,315.3 812.6,314.9 812.3,314.5 812.0,314.1 811.3,314.1 811.1,314.5 810.8,314.9 810.3,315.3 809.8,315.7 809.1,316.1 808.1,316.5 807.0,316.9 805.7,317.3 804.2,317.7 802.4,318.1 800.3,318.5 798.0,318.9 795.5,319.3 792.7,319.7 789.5,320.1 786.2,320.5 782.6,320.9 779.0,321.3 775.3,321.7 771.7,322.1 768.4,322.5 765.4,322.9 762.8,323.3 760.5,323.7 758.6,324.1 757.0,324.5 755.7,324.9 754.9,325.3 754.4,325.7 754.3,326.1 754.6,326.5 755.3,326.9 756.4,327.3 757.7,327.7 759.4,328.1 761.1,328.5 763.0,328.9 764.9,329.3 766.7,329.7 768.4,330.1 770.1,330.5 771.5,330.9 772.7,331.3 773.8,331.7 774.6,332.1 775.3,332.5 775.9,332.9 776.6,333.3 777.3,333.7 778.1,334.1 779.2,334.5 780.6,334.9 782.2,335.3 784.1,335.7 786.2,336.1 788.5,336.5 790.8,336.9 793.0,337.3 795.1,337.7 797.2,338.1 799.1,338.5 800.9,338.9 802.6,339.3 804.2,339.7 805.7,340.1 807.0,340.5 808.2,340.9 809.2,341.3 809.9,341.7 810.5,342.1 810.9,342.5" fill="#2a8" opacity="0.5" stroke="#2a8" stroke-width="1"/>
<line x1="757.0" y1="327.5325963455215" x2="866.3" y2="327.5325963455215" stroke="#114" stroke-width="2"/>
<circle cx="811.6666666666666" cy="330.98651839004583" r="2.4" fill="#114"/>
<text x="811.6666666666666" y="310.92365504573195" text-anchor="middle" font-size="11">1.34</text>
<text x="811.6666666666666" y="376" text-anchor="middle" font-size="12">iamax</text>
<text x="450.0" y="428" text-anchor="middle" font-size="11" fill="#666">violin = ratio distribution over sizes · line = median · dark dot = worst size · green = every size ≥ gate</text>
</svg>
