<svg xmlns="http://www.w3.org/2000/svg" width="900" height="460" font-family="sans-serif">
<rect width="900" height="460" fill="white"/>
<text x="450.0" y="28" text-anchor="middle" font-size="18" font-weight="bold">LAPACK: PureBLAS / OpenBLAS (AVX-512, 1 thread, Float64)</text>
<line x1="62" y1="400.0" x2="768" y2="400.0" stroke="#eee"/>
<text x="54" y="404.0" text-anchor="end" font-size="11" fill="#666">0.5×</text>
<line x1="62" y1="339.09994460223356" x2="768" y2="339.09994460223356" stroke="#eee"/>
<text x="54" y="343.09994460223356" text-anchor="end" font-size="11" fill="#666">0.7×</text>
<line x1="62" y1="274.5432844064704" x2="768" y2="274.5432844064704" stroke="#eee"/>
<text x="54" y="278.5432844064704" text-anchor="end" font-size="11" fill="#666">1.0×</text>
<line x1="62" y1="201.15581032061647" x2="768" y2="201.15581032061647" stroke="#eee"/>
<text x="54" y="205.15581032061647" text-anchor="end" font-size="11" fill="#666">1.5×</text>
<line x1="62" y1="149.08656881294075" x2="768" y2="149.08656881294075" stroke="#eee"/>
<text x="54" y="153.08656881294075" text-anchor="end" font-size="11" fill="#666">2.0×</text>
<line x1="62" y1="75.69909472708679" x2="768" y2="75.69909472708679" stroke="#eee"/>
<text x="54" y="79.69909472708679" text-anchor="end" font-size="11" fill="#666">3.0×</text>
<line x1="62.0" y1="50" x2="62.0" y2="400" stroke="#f4f4f4"/>
<text x="62.0" y="418" text-anchor="middle" font-size="11" fill="#444">8</text>
<line x1="238.5" y1="50" x2="238.5" y2="400" stroke="#f4f4f4"/>
<text x="238.5" y="418" text-anchor="middle" font-size="11" fill="#444">32</text>
<line x1="415.0" y1="50" x2="415.0" y2="400" stroke="#f4f4f4"/>
<text x="415.0" y="418" text-anchor="middle" font-size="11" fill="#444">128</text>
<line x1="503.25" y1="50" x2="503.25" y2="400" stroke="#f4f4f4"/>
<text x="503.25" y="418" text-anchor="middle" font-size="11" fill="#444">256</text>
<line x1="591.5" y1="50" x2="591.5" y2="400" stroke="#f4f4f4"/>
<text x="591.5" y="418" text-anchor="middle" font-size="11" fill="#444">512</text>
<line x1="679.75" y1="50" x2="679.75" y2="400" stroke="#f4f4f4"/>
<text x="679.75" y="418" text-anchor="middle" font-size="11" fill="#444">1024</text>
<line x1="768.0" y1="50" x2="768.0" y2="400" stroke="#f4f4f4"/>
<text x="768.0" y="418" text-anchor="middle" font-size="11" fill="#444">2048</text>
<line x1="62" y1="274.5432844064704" x2="768" y2="274.5432844064704" stroke="#888"/>
<line x1="62" y1="281.9318932043177" x2="768" y2="281.9318932043177" stroke="#d33" stroke-width="1.5" stroke-dasharray="6 4"/>
<text x="66" y="276.9318932043177" font-size="11" fill="#d33">0.96× gate</text>
<polygon points="62.0,199.4 238.5,205.7 415.0,192.7 503.2,212.6 591.5,214.2 679.8,233.9 768.0,246.2 768.0,250.8 679.8,243.7 591.5,226.4 503.2,221.5 415.0,204.3 238.5,210.3 62.0,224.6" fill="#1f77b4" opacity="0.14" stroke="none"/>
<polyline points="62.0,213.9 238.5,209.5 415.0,198.9 503.2,215.7 591.5,225.2 679.8,238.1 768.0,248.9" fill="none" stroke="#1f77b4" stroke-width="2"/>
<circle cx="62.0" cy="213.9" r="3" fill="#1f77b4"/>
<circle cx="238.5" cy="209.5" r="3" fill="#1f77b4"/>
<circle cx="415.0" cy="198.9" r="3" fill="#1f77b4"/>
<circle cx="503.2" cy="215.7" r="3" fill="#1f77b4"/>
<circle cx="591.5" cy="225.2" r="3" fill="#1f77b4"/>
<circle cx="679.8" cy="238.1" r="3" fill="#1f77b4"/>
<circle cx="768.0" cy="248.9" r="3" fill="#1f77b4"/>
<line x1="782" y1="56" x2="802" y2="56" stroke="#1f77b4" stroke-width="3"/>
<text x="806" y="60" font-size="12">potrf</text>
<polygon points="62.0,67.1 238.5,178.2 415.0,187.7 503.2,212.8 591.5,186.6 679.8,217.7 768.0,231.9 768.0,250.4 679.8,227.2 591.5,193.3 503.2,225.8 415.0,214.5 238.5,201.9 62.0,77.4" fill="#d62728" opacity="0.14" stroke="none"/>
<polyline points="62.0,75.3 238.5,193.9 415.0,208.0 503.2,220.6 591.5,190.2 679.8,220.7 768.0,241.3" fill="none" stroke="#d62728" stroke-width="2"/>
<circle cx="62.0" cy="75.3" r="3" fill="#d62728"/>
<circle cx="238.5" cy="193.9" r="3" fill="#d62728"/>
<circle cx="415.0" cy="208.0" r="3" fill="#d62728"/>
<circle cx="503.2" cy="220.6" r="3" fill="#d62728"/>
<circle cx="591.5" cy="190.2" r="3" fill="#d62728"/>
<circle cx="679.8" cy="220.7" r="3" fill="#d62728"/>
<circle cx="768.0" cy="241.3" r="3" fill="#d62728"/>
<line x1="782" y1="74" x2="802" y2="74" stroke="#d62728" stroke-width="3"/>
<text x="806" y="78" font-size="12">geqrf</text>
<polygon points="62.0,154.3 238.5,200.7 415.0,232.4 503.2,257.6 591.5,250.2 679.8,247.5 768.0,262.5 768.0,265.0 679.8,253.5 591.5,260.1 503.2,263.3 415.0,237.6 238.5,215.6 62.0,167.8" fill="#2ca02c" opacity="0.14" stroke="none"/>
<polyline points="62.0,157.0 238.5,207.5 415.0,235.4 503.2,261.4 591.5,254.6 679.8,251.7 768.0,263.7" fill="none" stroke="#2ca02c" stroke-width="2"/>
<circle cx="62.0" cy="157.0" r="3" fill="#2ca02c"/>
<circle cx="238.5" cy="207.5" r="3" fill="#2ca02c"/>
<circle cx="415.0" cy="235.4" r="3" fill="#2ca02c"/>
<circle cx="503.2" cy="261.4" r="3" fill="#2ca02c"/>
<circle cx="591.5" cy="254.6" r="3" fill="#2ca02c"/>
<circle cx="679.8" cy="251.7" r="3" fill="#2ca02c"/>
<circle cx="768.0" cy="263.7" r="3" fill="#2ca02c"/>
<line x1="782" y1="92" x2="802" y2="92" stroke="#2ca02c" stroke-width="3"/>
<text x="806" y="96" font-size="12">getrf</text>
<polygon points="62.0,168.3 238.5,222.2 415.0,268.6 503.2,228.4 591.5,216.0 679.8,221.2 768.0,256.3 768.0,258.8 679.8,228.2 591.5,227.6 503.2,236.4 415.0,272.4 238.5,229.3 62.0,183.3" fill="#9467bd" opacity="0.14" stroke="none"/>
<polyline points="62.0,174.7 238.5,226.9 415.0,270.3 503.2,232.4 591.5,220.3 679.8,225.8 768.0,257.9" fill="none" stroke="#9467bd" stroke-width="2"/>
<circle cx="62.0" cy="174.7" r="3" fill="#9467bd"/>
<circle cx="238.5" cy="226.9" r="3" fill="#9467bd"/>
<circle cx="415.0" cy="270.3" r="3" fill="#9467bd"/>
<circle cx="503.2" cy="232.4" r="3" fill="#9467bd"/>
<circle cx="591.5" cy="220.3" r="3" fill="#9467bd"/>
<circle cx="679.8" cy="225.8" r="3" fill="#9467bd"/>
<circle cx="768.0" cy="257.9" r="3" fill="#9467bd"/>
<line x1="782" y1="110" x2="802" y2="110" stroke="#9467bd" stroke-width="3"/>
<text x="806" y="114" font-size="12">gesvd</text>
<text x="415.0" y="450" text-anchor="middle" font-size="11" fill="#666">matrix size n (log) · y = median ratio (log) · dashed = the 0.96× gate</text>
</svg>
