<svg xmlns="http://www.w3.org/2000/svg" width="900" height="460" font-family="sans-serif">
<rect width="900" height="460" fill="white"/>
<text x="450.0" y="28" text-anchor="middle" font-size="18" font-weight="bold">LAPACK: PureBLAS / OpenBLAS (AVX2, 1 thread, Float64)</text>
<line x1="62" y1="400.0" x2="768" y2="400.0" stroke="#eee"/>
<text x="54" y="404.0" text-anchor="end" font-size="11" fill="#666">0.5×</text>
<line x1="62" y1="341.9358648053356" x2="768" y2="341.9358648053356" stroke="#eee"/>
<text x="54" y="345.9358648053356" text-anchor="end" font-size="11" fill="#666">0.7×</text>
<line x1="62" y1="280.3854011671649" x2="768" y2="280.3854011671649" stroke="#eee"/>
<text x="54" y="284.3854011671649" text-anchor="end" font-size="11" fill="#666">1.0×</text>
<line x1="62" y1="210.4153463111519" x2="768" y2="210.4153463111519" stroke="#eee"/>
<text x="54" y="214.4153463111519" text-anchor="end" font-size="11" fill="#666">1.5×</text>
<line x1="62" y1="160.77080233432991" x2="768" y2="160.77080233432991" stroke="#eee"/>
<text x="54" y="164.77080233432991" text-anchor="end" font-size="11" fill="#666">2.0×</text>
<line x1="62" y1="90.80074747831685" x2="768" y2="90.80074747831685" stroke="#eee"/>
<text x="54" y="94.80074747831685" text-anchor="end" font-size="11" fill="#666">3.0×</text>
<line x1="62.0" y1="50" x2="62.0" y2="400" stroke="#f4f4f4"/>
<text x="62.0" y="418" text-anchor="middle" font-size="11" fill="#444">8</text>
<line x1="238.5" y1="50" x2="238.5" y2="400" stroke="#f4f4f4"/>
<text x="238.5" y="418" text-anchor="middle" font-size="11" fill="#444">32</text>
<line x1="415.0" y1="50" x2="415.0" y2="400" stroke="#f4f4f4"/>
<text x="415.0" y="418" text-anchor="middle" font-size="11" fill="#444">128</text>
<line x1="503.25" y1="50" x2="503.25" y2="400" stroke="#f4f4f4"/>
<text x="503.25" y="418" text-anchor="middle" font-size="11" fill="#444">256</text>
<line x1="591.5" y1="50" x2="591.5" y2="400" stroke="#f4f4f4"/>
<text x="591.5" y="418" text-anchor="middle" font-size="11" fill="#444">512</text>
<line x1="679.75" y1="50" x2="679.75" y2="400" stroke="#f4f4f4"/>
<text x="679.75" y="418" text-anchor="middle" font-size="11" fill="#444">1024</text>
<line x1="768.0" y1="50" x2="768.0" y2="400" stroke="#f4f4f4"/>
<text x="768.0" y="418" text-anchor="middle" font-size="11" fill="#444">2048</text>
<line x1="62" y1="280.3854011671649" x2="768" y2="280.3854011671649" stroke="#888"/>
<line x1="62" y1="287.4299461570933" x2="768" y2="287.4299461570933" stroke="#d33" stroke-width="1.5" stroke-dasharray="6 4"/>
<text x="66" y="282.4299461570933" font-size="11" fill="#d33">0.96× gate</text>
<polygon points="62.0,226.3 238.5,198.9 415.0,269.3 503.2,270.3 591.5,267.9 679.8,269.8 768.0,270.7 768.0,272.5 679.8,270.4 591.5,269.3 503.2,272.0 415.0,275.0 238.5,204.6 62.0,228.4" fill="#1f77b4" opacity="0.14" stroke="none"/>
<polyline points="62.0,227.7 238.5,200.1 415.0,272.3 503.2,271.1 591.5,268.7 679.8,270.1 768.0,271.4" fill="none" stroke="#1f77b4" stroke-width="2"/>
<circle cx="62.0" cy="227.7" r="3" fill="#1f77b4"/>
<circle cx="238.5" cy="200.1" r="3" fill="#1f77b4"/>
<circle cx="415.0" cy="272.3" r="3" fill="#1f77b4"/>
<circle cx="503.2" cy="271.1" r="3" fill="#1f77b4"/>
<circle cx="591.5" cy="268.7" r="3" fill="#1f77b4"/>
<circle cx="679.8" cy="270.1" r="3" fill="#1f77b4"/>
<circle cx="768.0" cy="271.4" r="3" fill="#1f77b4"/>
<line x1="782" y1="56" x2="802" y2="56" stroke="#1f77b4" stroke-width="3"/>
<text x="806" y="60" font-size="12">potrf</text>
<polygon points="62.0,50.0 238.5,201.0 415.0,234.6 503.2,256.8 591.5,239.2 679.8,244.3 768.0,244.4 768.0,249.6 679.8,245.2 591.5,240.4 503.2,259.3 415.0,236.3 238.5,201.5 62.0,85.5" fill="#d62728" opacity="0.14" stroke="none"/>
<polyline points="62.0,74.1 238.5,201.3 415.0,235.1 503.2,258.0 591.5,239.5 679.8,244.9 768.0,246.0" fill="none" stroke="#d62728" stroke-width="2"/>
<circle cx="62.0" cy="74.1" r="3" fill="#d62728"/>
<circle cx="238.5" cy="201.3" r="3" fill="#d62728"/>
<circle cx="415.0" cy="235.1" r="3" fill="#d62728"/>
<circle cx="503.2" cy="258.0" r="3" fill="#d62728"/>
<circle cx="591.5" cy="239.5" r="3" fill="#d62728"/>
<circle cx="679.8" cy="244.9" r="3" fill="#d62728"/>
<circle cx="768.0" cy="246.0" r="3" fill="#d62728"/>
<line x1="782" y1="74" x2="802" y2="74" stroke="#d62728" stroke-width="3"/>
<text x="806" y="78" font-size="12">geqrf</text>
<polygon points="62.0,135.0 238.5,138.9 415.0,241.4 503.2,275.3 591.5,276.2 679.8,270.2 768.0,272.5 768.0,275.4 679.8,271.1 591.5,276.6 503.2,277.4 415.0,243.3 238.5,139.8 62.0,139.1" fill="#2ca02c" opacity="0.14" stroke="none"/>
<polyline points="62.0,137.5 238.5,139.1 415.0,242.4 503.2,276.8 591.5,276.4 679.8,270.6 768.0,273.6" fill="none" stroke="#2ca02c" stroke-width="2"/>
<circle cx="62.0" cy="137.5" r="3" fill="#2ca02c"/>
<circle cx="238.5" cy="139.1" r="3" fill="#2ca02c"/>
<circle cx="415.0" cy="242.4" r="3" fill="#2ca02c"/>
<circle cx="503.2" cy="276.8" r="3" fill="#2ca02c"/>
<circle cx="591.5" cy="276.4" r="3" fill="#2ca02c"/>
<circle cx="679.8" cy="270.6" r="3" fill="#2ca02c"/>
<circle cx="768.0" cy="273.6" r="3" fill="#2ca02c"/>
<line x1="782" y1="92" x2="802" y2="92" stroke="#2ca02c" stroke-width="3"/>
<text x="806" y="96" font-size="12">getrf</text>
<polygon points="62.0,187.4 238.5,244.2 415.0,263.9 503.2,239.8 591.5,229.0 679.8,239.5 768.0,246.9 768.0,252.9 679.8,244.5 591.5,232.3 503.2,240.4 415.0,264.2 238.5,244.7 62.0,190.1" fill="#9467bd" opacity="0.14" stroke="none"/>
<polyline points="62.0,189.6 238.5,244.4 415.0,264.1 503.2,240.4 591.5,231.2 679.8,241.4 768.0,249.7" fill="none" stroke="#9467bd" stroke-width="2"/>
<circle cx="62.0" cy="189.6" r="3" fill="#9467bd"/>
<circle cx="238.5" cy="244.4" r="3" fill="#9467bd"/>
<circle cx="415.0" cy="264.1" r="3" fill="#9467bd"/>
<circle cx="503.2" cy="240.4" r="3" fill="#9467bd"/>
<circle cx="591.5" cy="231.2" r="3" fill="#9467bd"/>
<circle cx="679.8" cy="241.4" r="3" fill="#9467bd"/>
<circle cx="768.0" cy="249.7" r="3" fill="#9467bd"/>
<line x1="782" y1="110" x2="802" y2="110" stroke="#9467bd" stroke-width="3"/>
<text x="806" y="114" font-size="12">gesvd</text>
<text x="415.0" y="450" text-anchor="middle" font-size="11" fill="#666">matrix size n (log) · y = median ratio (log) · dashed = the 0.96× gate</text>
</svg>
