<svg xmlns="http://www.w3.org/2000/svg" width="962" height="420" font-family="sans-serif">
<rect width="962" height="420" fill="white"/>
<text x="481.0" y="26" text-anchor="middle" font-size="17" font-weight="bold">Complex BLAS-1 — PureBLAS / OpenBLAS (PB/OpenBLAS ratio)</text>
<line x1="46" y1="42" x2="68" y2="42" stroke="#d62728" stroke-width="3"/>
<text x="73" y="46" font-size="12">Zen3 · AVX2</text>
<line x1="176" y1="42" x2="198" y2="42" stroke="#2ca02c" stroke-width="3"/>
<text x="203" y="46" font-size="12">Zen5 · AVX-512</text>
<line x1="327" y1="42" x2="349" y2="42" stroke="#1f77b4" stroke-width="3"/>
<text x="354" y="46" font-size="12">Zen4 · AVX-512</text>
<rect x="46" y="60" width="210" height="138" fill="none" stroke="#e2e2e2"/>
<line x1="46" y1="115.76276119065531" x2="256" y2="115.76276119065531" stroke="#d33" stroke-dasharray="4 3"/>
<text x="42" y="201.0" text-anchor="end" font-size="9" fill="#999">0.5×</text>
<text x="42" y="118.76276119065531" text-anchor="end" font-size="9" fill="#999">1.0×</text>
<text x="42" y="63.0" text-anchor="end" font-size="9" fill="#999">1.6×</text>
<polygon points="46.0,106.5 79.4,115.1 116.0,113.2 149.4,114.4 186.0,112.8 219.4,115.3 256.0,118.0 256.0,126.0 219.4,118.2 186.0,115.9 149.4,115.9 116.0,118.2 79.4,116.0 46.0,107.4" fill="#d62728" opacity="0.11"/>
<polyline points="46.0,106.9 79.4,115.6 116.0,116.6 149.4,114.8 186.0,114.3 219.4,116.7 256.0,119.4" fill="none" stroke="#d62728" stroke-width="1.6"/>
<circle cx="46.0" cy="106.9" r="2" fill="#d62728"/>
<circle cx="79.4" cy="115.6" r="2" fill="#d62728"/>
<circle cx="116.0" cy="116.6" r="2" fill="#d62728"/>
<circle cx="149.4" cy="114.8" r="2" fill="#d62728"/>
<circle cx="186.0" cy="114.3" r="2" fill="#d62728"/>
<circle cx="219.4" cy="116.7" r="2" fill="#d62728"/>
<circle cx="256.0" cy="119.4" r="2" fill="#d62728"/>
<polygon points="46.0,83.8 79.4,129.4 116.0,131.2 149.4,110.7 186.0,116.2 219.4,104.9 256.0,112.0 256.0,125.4 219.4,109.7 186.0,117.5 149.4,117.8 116.0,134.4 79.4,132.4 46.0,84.5" fill="#2ca02c" opacity="0.11"/>
<polyline points="46.0,84.1 79.4,131.2 116.0,132.9 149.4,114.0 186.0,116.8 219.4,107.2 256.0,114.7" fill="none" stroke="#2ca02c" stroke-width="1.6"/>
<circle cx="46.0" cy="84.1" r="2" fill="#2ca02c"/>
<circle cx="79.4" cy="131.2" r="2" fill="#2ca02c"/>
<circle cx="116.0" cy="132.9" r="2" fill="#2ca02c"/>
<circle cx="149.4" cy="114.0" r="2" fill="#2ca02c"/>
<circle cx="186.0" cy="116.8" r="2" fill="#2ca02c"/>
<circle cx="219.4" cy="107.2" r="2" fill="#2ca02c"/>
<circle cx="256.0" cy="114.7" r="2" fill="#2ca02c"/>
<polygon points="46.0,96.1 79.4,114.2 116.0,115.5 149.4,112.7 186.0,121.6 219.4,120.6 256.0,115.9 256.0,118.0 219.4,122.1 186.0,124.1 149.4,115.3 116.0,116.1 79.4,114.5 46.0,106.7" fill="#1f77b4" opacity="0.11"/>
<polyline points="46.0,97.4 79.4,114.3 116.0,115.6 149.4,113.8 186.0,122.1 219.4,121.2 256.0,116.9" fill="none" stroke="#1f77b4" stroke-width="1.6"/>
<circle cx="46.0" cy="97.4" r="2" fill="#1f77b4"/>
<circle cx="79.4" cy="114.3" r="2" fill="#1f77b4"/>
<circle cx="116.0" cy="115.6" r="2" fill="#1f77b4"/>
<circle cx="149.4" cy="113.8" r="2" fill="#1f77b4"/>
<circle cx="186.0" cy="122.1" r="2" fill="#1f77b4"/>
<circle cx="219.4" cy="121.2" r="2" fill="#1f77b4"/>
<circle cx="256.0" cy="116.9" r="2" fill="#1f77b4"/>
<text x="151.0" y="55" text-anchor="middle" font-size="12" font-weight="bold">zaxpy</text>
<line x1="46.0" y1="60" x2="46.0" y2="198" stroke="#f4f4f4"/>
<text x="46.0" y="209" text-anchor="middle" font-size="8" fill="#999">1000</text>
<line x1="79.4" y1="60" x2="79.4" y2="198" stroke="#f4f4f4"/>
<text x="79.4" y="209" text-anchor="middle" font-size="8" fill="#999">2k</text>
<line x1="116.0" y1="60" x2="116.0" y2="198" stroke="#f4f4f4"/>
<text x="116.0" y="209" text-anchor="middle" font-size="8" fill="#999">9k</text>
<line x1="149.4" y1="60" x2="149.4" y2="198" stroke="#f4f4f4"/>
<text x="149.4" y="209" text-anchor="middle" font-size="8" fill="#999">29k</text>
<line x1="186.0" y1="60" x2="186.0" y2="198" stroke="#f4f4f4"/>
<text x="186.0" y="209" text-anchor="middle" font-size="8" fill="#999">97k</text>
<line x1="219.4" y1="60" x2="219.4" y2="198" stroke="#f4f4f4"/>
<text x="219.4" y="209" text-anchor="middle" font-size="8" fill="#999">292k</text>
<line x1="256.0" y1="60" x2="256.0" y2="198" stroke="#f4f4f4"/>
<text x="256.0" y="209" text-anchor="middle" font-size="8" fill="#999">976k</text>
<rect x="276" y="60" width="210" height="138" fill="none" stroke="#e2e2e2"/>
<line x1="276" y1="115.76276119065531" x2="486" y2="115.76276119065531" stroke="#d33" stroke-dasharray="4 3"/>
<text x="272" y="201.0" text-anchor="end" font-size="9" fill="#999">0.5×</text>
<text x="272" y="118.76276119065531" text-anchor="end" font-size="9" fill="#999">1.0×</text>
<text x="272" y="63.0" text-anchor="end" font-size="9" fill="#999">1.6×</text>
<polygon points="276.0,117.8 309.4,114.6 346.0,114.4 379.4,109.0 416.0,111.3 449.4,110.0 486.0,111.3 486.0,116.2 449.4,113.3 416.0,114.7 379.4,109.8 346.0,117.4 309.4,115.1 276.0,118.7" fill="#d62728" opacity="0.11"/>
<polyline points="276.0,118.3 309.4,114.9 346.0,115.5 379.4,109.3 416.0,112.0 449.4,111.7 486.0,114.1" fill="none" stroke="#d62728" stroke-width="1.6"/>
<circle cx="276.0" cy="118.3" r="2" fill="#d62728"/>
<circle cx="309.4" cy="114.9" r="2" fill="#d62728"/>
<circle cx="346.0" cy="115.5" r="2" fill="#d62728"/>
<circle cx="379.4" cy="109.3" r="2" fill="#d62728"/>
<circle cx="416.0" cy="112.0" r="2" fill="#d62728"/>
<circle cx="449.4" cy="111.7" r="2" fill="#d62728"/>
<circle cx="486.0" cy="114.1" r="2" fill="#d62728"/>
<polygon points="276.0,103.4 309.4,104.0 346.0,90.6 379.4,106.6 416.0,116.7 449.4,118.8 486.0,99.9 486.0,114.5 449.4,132.7 416.0,119.5 379.4,114.3 346.0,107.6 309.4,111.0 276.0,109.7" fill="#2ca02c" opacity="0.11"/>
<polyline points="276.0,106.7 309.4,107.1 346.0,101.9 379.4,110.0 416.0,117.2 449.4,123.4 486.0,103.1" fill="none" stroke="#2ca02c" stroke-width="1.6"/>
<circle cx="276.0" cy="106.7" r="2" fill="#2ca02c"/>
<circle cx="309.4" cy="107.1" r="2" fill="#2ca02c"/>
<circle cx="346.0" cy="101.9" r="2" fill="#2ca02c"/>
<circle cx="379.4" cy="110.0" r="2" fill="#2ca02c"/>
<circle cx="416.0" cy="117.2" r="2" fill="#2ca02c"/>
<circle cx="449.4" cy="123.4" r="2" fill="#2ca02c"/>
<circle cx="486.0" cy="103.1" r="2" fill="#2ca02c"/>
<polygon points="276.0,94.3 309.4,113.4 346.0,113.7 379.4,105.1 416.0,90.1 449.4,89.2 486.0,96.6 486.0,100.8 449.4,91.5 416.0,93.0 379.4,110.5 346.0,115.3 309.4,114.5 276.0,110.7" fill="#1f77b4" opacity="0.11"/>
<polyline points="276.0,98.3 309.4,114.3 346.0,113.8 379.4,107.0 416.0,91.4 449.4,90.7 486.0,99.0" fill="none" stroke="#1f77b4" stroke-width="1.6"/>
<circle cx="276.0" cy="98.3" r="2" fill="#1f77b4"/>
<circle cx="309.4" cy="114.3" r="2" fill="#1f77b4"/>
<circle cx="346.0" cy="113.8" r="2" fill="#1f77b4"/>
<circle cx="379.4" cy="107.0" r="2" fill="#1f77b4"/>
<circle cx="416.0" cy="91.4" r="2" fill="#1f77b4"/>
<circle cx="449.4" cy="90.7" r="2" fill="#1f77b4"/>
<circle cx="486.0" cy="99.0" r="2" fill="#1f77b4"/>
<text x="381.0" y="55" text-anchor="middle" font-size="12" font-weight="bold">zdotc</text>
<line x1="276.0" y1="60" x2="276.0" y2="198" stroke="#f4f4f4"/>
<text x="276.0" y="209" text-anchor="middle" font-size="8" fill="#999">1000</text>
<line x1="309.4" y1="60" x2="309.4" y2="198" stroke="#f4f4f4"/>
<text x="309.4" y="209" text-anchor="middle" font-size="8" fill="#999">2k</text>
<line x1="346.0" y1="60" x2="346.0" y2="198" stroke="#f4f4f4"/>
<text x="346.0" y="209" text-anchor="middle" font-size="8" fill="#999">9k</text>
<line x1="379.4" y1="60" x2="379.4" y2="198" stroke="#f4f4f4"/>
<text x="379.4" y="209" text-anchor="middle" font-size="8" fill="#999">29k</text>
<line x1="416.0" y1="60" x2="416.0" y2="198" stroke="#f4f4f4"/>
<text x="416.0" y="209" text-anchor="middle" font-size="8" fill="#999">97k</text>
<line x1="449.4" y1="60" x2="449.4" y2="198" stroke="#f4f4f4"/>
<text x="449.4" y="209" text-anchor="middle" font-size="8" fill="#999">292k</text>
<line x1="486.0" y1="60" x2="486.0" y2="198" stroke="#f4f4f4"/>
<text x="486.0" y="209" text-anchor="middle" font-size="8" fill="#999">976k</text>
<rect x="506" y="60" width="210" height="138" fill="none" stroke="#e2e2e2"/>
<line x1="506" y1="115.76276119065531" x2="716" y2="115.76276119065531" stroke="#d33" stroke-dasharray="4 3"/>
<text x="502" y="201.0" text-anchor="end" font-size="9" fill="#999">0.5×</text>
<text x="502" y="118.76276119065531" text-anchor="end" font-size="9" fill="#999">1.0×</text>
<text x="502" y="63.0" text-anchor="end" font-size="9" fill="#999">1.6×</text>
<polygon points="506.0,110.8 539.4,116.5 576.0,115.9 609.4,114.2 646.0,116.9 679.4,115.0 716.0,115.4 716.0,119.3 679.4,118.8 646.0,120.6 609.4,116.6 576.0,116.1 539.4,116.8 506.0,111.6" fill="#d62728" opacity="0.11"/>
<polyline points="506.0,110.9 539.4,116.6 576.0,116.1 609.4,115.5 646.0,117.5 679.4,117.5 716.0,117.1" fill="none" stroke="#d62728" stroke-width="1.6"/>
<circle cx="506.0" cy="110.9" r="2" fill="#d62728"/>
<circle cx="539.4" cy="116.6" r="2" fill="#d62728"/>
<circle cx="576.0" cy="116.1" r="2" fill="#d62728"/>
<circle cx="609.4" cy="115.5" r="2" fill="#d62728"/>
<circle cx="646.0" cy="117.5" r="2" fill="#d62728"/>
<circle cx="679.4" cy="117.5" r="2" fill="#d62728"/>
<circle cx="716.0" cy="117.1" r="2" fill="#d62728"/>
<polygon points="506.0,110.6 539.4,108.9 576.0,115.4 609.4,115.6 646.0,115.4 679.4,114.6 716.0,112.1 716.0,132.5 679.4,117.3 646.0,116.4 609.4,117.6 576.0,115.8 539.4,113.4 506.0,112.7" fill="#2ca02c" opacity="0.11"/>
<polyline points="506.0,111.8 539.4,113.1 576.0,115.6 609.4,115.7 646.0,116.0 679.4,116.3 716.0,118.9" fill="none" stroke="#2ca02c" stroke-width="1.6"/>
<circle cx="506.0" cy="111.8" r="2" fill="#2ca02c"/>
<circle cx="539.4" cy="113.1" r="2" fill="#2ca02c"/>
<circle cx="576.0" cy="115.6" r="2" fill="#2ca02c"/>
<circle cx="609.4" cy="115.7" r="2" fill="#2ca02c"/>
<circle cx="646.0" cy="116.0" r="2" fill="#2ca02c"/>
<circle cx="679.4" cy="116.3" r="2" fill="#2ca02c"/>
<circle cx="716.0" cy="118.9" r="2" fill="#2ca02c"/>
<polygon points="506.0,111.8 539.4,115.2 576.0,115.5 609.4,115.5 646.0,116.3 679.4,115.7 716.0,114.5 716.0,121.2 679.4,118.2 646.0,118.6 609.4,115.8 576.0,115.7 539.4,115.4 506.0,113.1" fill="#1f77b4" opacity="0.11"/>
<polyline points="506.0,112.8 539.4,115.3 576.0,115.6 609.4,115.6 646.0,117.5 679.4,116.7 716.0,117.1" fill="none" stroke="#1f77b4" stroke-width="1.6"/>
<circle cx="506.0" cy="112.8" r="2" fill="#1f77b4"/>
<circle cx="539.4" cy="115.3" r="2" fill="#1f77b4"/>
<circle cx="576.0" cy="115.6" r="2" fill="#1f77b4"/>
<circle cx="609.4" cy="115.6" r="2" fill="#1f77b4"/>
<circle cx="646.0" cy="117.5" r="2" fill="#1f77b4"/>
<circle cx="679.4" cy="116.7" r="2" fill="#1f77b4"/>
<circle cx="716.0" cy="117.1" r="2" fill="#1f77b4"/>
<text x="611.0" y="55" text-anchor="middle" font-size="12" font-weight="bold">zscal</text>
<line x1="506.0" y1="60" x2="506.0" y2="198" stroke="#f4f4f4"/>
<text x="506.0" y="209" text-anchor="middle" font-size="8" fill="#999">1000</text>
<line x1="539.4" y1="60" x2="539.4" y2="198" stroke="#f4f4f4"/>
<text x="539.4" y="209" text-anchor="middle" font-size="8" fill="#999">2k</text>
<line x1="576.0" y1="60" x2="576.0" y2="198" stroke="#f4f4f4"/>
<text x="576.0" y="209" text-anchor="middle" font-size="8" fill="#999">9k</text>
<line x1="609.4" y1="60" x2="609.4" y2="198" stroke="#f4f4f4"/>
<text x="609.4" y="209" text-anchor="middle" font-size="8" fill="#999">29k</text>
<line x1="646.0" y1="60" x2="646.0" y2="198" stroke="#f4f4f4"/>
<text x="646.0" y="209" text-anchor="middle" font-size="8" fill="#999">97k</text>
<line x1="679.4" y1="60" x2="679.4" y2="198" stroke="#f4f4f4"/>
<text x="679.4" y="209" text-anchor="middle" font-size="8" fill="#999">292k</text>
<line x1="716.0" y1="60" x2="716.0" y2="198" stroke="#f4f4f4"/>
<text x="716.0" y="209" text-anchor="middle" font-size="8" fill="#999">976k</text>
<rect x="736" y="60" width="210" height="138" fill="none" stroke="#e2e2e2"/>
<line x1="736" y1="170.6560073871346" x2="946" y2="170.6560073871346" stroke="#d33" stroke-dasharray="4 3"/>
<text x="732" y="201.0" text-anchor="end" font-size="9" fill="#999">0.5×</text>
<text x="732" y="173.6560073871346" text-anchor="end" font-size="9" fill="#999">1.0×</text>
<polygon points="736.0,89.4 769.4,89.4 806.0,88.9 839.4,91.5 876.0,97.9 909.4,98.5 946.0,101.7 946.0,104.0 909.4,105.2 876.0,101.1 839.4,95.7 806.0,89.1 769.4,89.5 736.0,89.5" fill="#d62728" opacity="0.11"/>
<polyline points="736.0,89.4 769.4,89.5 806.0,88.9 839.4,93.6 876.0,98.4 909.4,99.1 946.0,102.6" fill="none" stroke="#d62728" stroke-width="1.6"/>
<circle cx="736.0" cy="89.4" r="2" fill="#d62728"/>
<circle cx="769.4" cy="89.5" r="2" fill="#d62728"/>
<circle cx="806.0" cy="88.9" r="2" fill="#d62728"/>
<circle cx="839.4" cy="93.6" r="2" fill="#d62728"/>
<circle cx="876.0" cy="98.4" r="2" fill="#d62728"/>
<circle cx="909.4" cy="99.1" r="2" fill="#d62728"/>
<circle cx="946.0" cy="102.6" r="2" fill="#d62728"/>
<polygon points="736.0,65.6 769.4,63.0 806.0,75.0 839.4,65.5 876.0,88.9 909.4,96.9 946.0,103.2 946.0,107.6 909.4,100.1 876.0,91.6 839.4,67.5 806.0,75.5 769.4,63.6 736.0,66.2" fill="#2ca02c" opacity="0.11"/>
<polyline points="736.0,65.9 769.4,63.2 806.0,75.2 839.4,66.4 876.0,91.0 909.4,99.5 946.0,106.1" fill="none" stroke="#2ca02c" stroke-width="1.6"/>
<circle cx="736.0" cy="65.9" r="2" fill="#2ca02c"/>
<circle cx="769.4" cy="63.2" r="2" fill="#2ca02c"/>
<circle cx="806.0" cy="75.2" r="2" fill="#2ca02c"/>
<circle cx="839.4" cy="66.4" r="2" fill="#2ca02c"/>
<circle cx="876.0" cy="91.0" r="2" fill="#2ca02c"/>
<circle cx="909.4" cy="99.5" r="2" fill="#2ca02c"/>
<circle cx="946.0" cy="106.1" r="2" fill="#2ca02c"/>
<polygon points="736.0,70.0 769.4,88.3 806.0,88.7 839.4,88.7 876.0,95.3 909.4,96.3 946.0,103.2 946.0,106.0 909.4,96.9 876.0,96.1 839.4,89.2 806.0,88.8 769.4,88.4 736.0,71.2" fill="#1f77b4" opacity="0.11"/>
<polyline points="736.0,70.5 769.4,88.4 806.0,88.7 839.4,88.8 876.0,95.7 909.4,96.5 946.0,105.5" fill="none" stroke="#1f77b4" stroke-width="1.6"/>
<circle cx="736.0" cy="70.5" r="2" fill="#1f77b4"/>
<circle cx="769.4" cy="88.4" r="2" fill="#1f77b4"/>
<circle cx="806.0" cy="88.7" r="2" fill="#1f77b4"/>
<circle cx="839.4" cy="88.8" r="2" fill="#1f77b4"/>
<circle cx="876.0" cy="95.7" r="2" fill="#1f77b4"/>
<circle cx="909.4" cy="96.5" r="2" fill="#1f77b4"/>
<circle cx="946.0" cy="105.5" r="2" fill="#1f77b4"/>
<text x="841.0" y="55" text-anchor="middle" font-size="12" font-weight="bold">dznrm2</text>
<line x1="736.0" y1="60" x2="736.0" y2="198" stroke="#f4f4f4"/>
<text x="736.0" y="209" text-anchor="middle" font-size="8" fill="#999">1000</text>
<line x1="769.4" y1="60" x2="769.4" y2="198" stroke="#f4f4f4"/>
<text x="769.4" y="209" text-anchor="middle" font-size="8" fill="#999">2k</text>
<line x1="806.0" y1="60" x2="806.0" y2="198" stroke="#f4f4f4"/>
<text x="806.0" y="209" text-anchor="middle" font-size="8" fill="#999">9k</text>
<line x1="839.4" y1="60" x2="839.4" y2="198" stroke="#f4f4f4"/>
<text x="839.4" y="209" text-anchor="middle" font-size="8" fill="#999">29k</text>
<line x1="876.0" y1="60" x2="876.0" y2="198" stroke="#f4f4f4"/>
<text x="876.0" y="209" text-anchor="middle" font-size="8" fill="#999">97k</text>
<line x1="909.4" y1="60" x2="909.4" y2="198" stroke="#f4f4f4"/>
<text x="909.4" y="209" text-anchor="middle" font-size="8" fill="#999">292k</text>
<line x1="946.0" y1="60" x2="946.0" y2="198" stroke="#f4f4f4"/>
<text x="946.0" y="209" text-anchor="middle" font-size="8" fill="#999">976k</text>
<rect x="46" y="232" width="210" height="138" fill="none" stroke="#e2e2e2"/>
<line x1="46" y1="304.26060970259766" x2="256" y2="304.26060970259766" stroke="#d33" stroke-dasharray="4 3"/>
<text x="42" y="373.0" text-anchor="end" font-size="9" fill="#999">0.5×</text>
<text x="42" y="307.26060970259766" text-anchor="end" font-size="9" fill="#999">1.0×</text>
<text x="42" y="235.10434514853065" text-anchor="end" font-size="9" fill="#999">2.14×</text>
<polygon points="46.0,239.3 79.4,261.6 116.0,262.0 149.4,266.0 186.0,276.8 219.4,276.6 256.0,278.3 256.0,281.9 219.4,288.7 186.0,279.7 149.4,273.0 116.0,262.2 79.4,261.8 46.0,239.6" fill="#d62728" opacity="0.11"/>
<polyline points="46.0,239.4 79.4,261.7 116.0,262.0 149.4,269.6 186.0,277.3 219.4,277.5 256.0,280.1" fill="none" stroke="#d62728" stroke-width="1.6"/>
<circle cx="46.0" cy="239.4" r="2" fill="#d62728"/>
<circle cx="79.4" cy="261.7" r="2" fill="#d62728"/>
<circle cx="116.0" cy="262.0" r="2" fill="#d62728"/>
<circle cx="149.4" cy="269.6" r="2" fill="#d62728"/>
<circle cx="186.0" cy="277.3" r="2" fill="#d62728"/>
<circle cx="219.4" cy="277.5" r="2" fill="#d62728"/>
<circle cx="256.0" cy="280.1" r="2" fill="#d62728"/>
<polygon points="46.0,296.6 79.4,301.3 116.0,296.0 149.4,303.1 186.0,299.0 219.4,300.3 256.0,282.0 256.0,308.1 219.4,305.5 186.0,302.3 149.4,309.8 116.0,297.2 79.4,302.1 46.0,297.7" fill="#2ca02c" opacity="0.11"/>
<polyline points="46.0,297.2 79.4,301.8 116.0,297.0 149.4,306.3 186.0,300.0 219.4,302.9 256.0,288.2" fill="none" stroke="#2ca02c" stroke-width="1.6"/>
<circle cx="46.0" cy="297.2" r="2" fill="#2ca02c"/>
<circle cx="79.4" cy="301.8" r="2" fill="#2ca02c"/>
<circle cx="116.0" cy="297.0" r="2" fill="#2ca02c"/>
<circle cx="149.4" cy="306.3" r="2" fill="#2ca02c"/>
<circle cx="186.0" cy="300.0" r="2" fill="#2ca02c"/>
<circle cx="219.4" cy="302.9" r="2" fill="#2ca02c"/>
<circle cx="256.0" cy="288.2" r="2" fill="#2ca02c"/>
<polygon points="46.0,306.2 79.4,303.6 116.0,303.9 149.4,303.9 186.0,303.2 219.4,301.9 256.0,301.5 256.0,304.4 219.4,303.0 186.0,303.9 149.4,304.2 116.0,304.1 79.4,303.9 46.0,309.0" fill="#1f77b4" opacity="0.11"/>
<polyline points="46.0,308.0 79.4,303.8 116.0,304.0 149.4,304.1 186.0,303.5 219.4,302.7 256.0,302.6" fill="none" stroke="#1f77b4" stroke-width="1.6"/>
<circle cx="46.0" cy="308.0" r="2" fill="#1f77b4"/>
<circle cx="79.4" cy="303.8" r="2" fill="#1f77b4"/>
<circle cx="116.0" cy="304.0" r="2" fill="#1f77b4"/>
<circle cx="149.4" cy="304.1" r="2" fill="#1f77b4"/>
<circle cx="186.0" cy="303.5" r="2" fill="#1f77b4"/>
<circle cx="219.4" cy="302.7" r="2" fill="#1f77b4"/>
<circle cx="256.0" cy="302.6" r="2" fill="#1f77b4"/>
<text x="151.0" y="227" text-anchor="middle" font-size="12" font-weight="bold">dzasum</text>
<line x1="46.0" y1="232" x2="46.0" y2="370" stroke="#f4f4f4"/>
<text x="46.0" y="381" text-anchor="middle" font-size="8" fill="#999">1000</text>
<line x1="79.4" y1="232" x2="79.4" y2="370" stroke="#f4f4f4"/>
<text x="79.4" y="381" text-anchor="middle" font-size="8" fill="#999">2k</text>
<line x1="116.0" y1="232" x2="116.0" y2="370" stroke="#f4f4f4"/>
<text x="116.0" y="381" text-anchor="middle" font-size="8" fill="#999">9k</text>
<line x1="149.4" y1="232" x2="149.4" y2="370" stroke="#f4f4f4"/>
<text x="149.4" y="381" text-anchor="middle" font-size="8" fill="#999">29k</text>
<line x1="186.0" y1="232" x2="186.0" y2="370" stroke="#f4f4f4"/>
<text x="186.0" y="381" text-anchor="middle" font-size="8" fill="#999">97k</text>
<line x1="219.4" y1="232" x2="219.4" y2="370" stroke="#f4f4f4"/>
<text x="219.4" y="381" text-anchor="middle" font-size="8" fill="#999">292k</text>
<line x1="256.0" y1="232" x2="256.0" y2="370" stroke="#f4f4f4"/>
<text x="256.0" y="381" text-anchor="middle" font-size="8" fill="#999">976k</text>
<rect x="276" y="232" width="210" height="138" fill="none" stroke="#e2e2e2"/>
<line x1="276" y1="287.7627611906553" x2="486" y2="287.7627611906553" stroke="#d33" stroke-dasharray="4 3"/>
<text x="272" y="373.0" text-anchor="end" font-size="9" fill="#999">0.5×</text>
<text x="272" y="290.7627611906553" text-anchor="end" font-size="9" fill="#999">1.0×</text>
<text x="272" y="235.0" text-anchor="end" font-size="9" fill="#999">1.6×</text>
<polygon points="276.0,291.8 309.4,286.7 346.0,285.3 379.4,281.0 416.0,283.6 449.4,277.8 486.0,282.8 486.0,289.9 449.4,283.7 416.0,285.3 379.4,285.8 346.0,287.7 309.4,287.0 276.0,292.7" fill="#d62728" opacity="0.11"/>
<polyline points="276.0,292.2 309.4,286.9 346.0,287.4 379.4,282.5 416.0,284.7 449.4,280.7 486.0,287.0" fill="none" stroke="#d62728" stroke-width="1.6"/>
<circle cx="276.0" cy="292.2" r="2" fill="#d62728"/>
<circle cx="309.4" cy="286.9" r="2" fill="#d62728"/>
<circle cx="346.0" cy="287.4" r="2" fill="#d62728"/>
<circle cx="379.4" cy="282.5" r="2" fill="#d62728"/>
<circle cx="416.0" cy="284.7" r="2" fill="#d62728"/>
<circle cx="449.4" cy="280.7" r="2" fill="#d62728"/>
<circle cx="486.0" cy="287.0" r="2" fill="#d62728"/>
<polygon points="276.0,275.0 309.4,276.5 346.0,249.9 379.4,250.5 416.0,286.7 449.4,290.6 486.0,266.7 486.0,279.7 449.4,304.6 416.0,291.1 379.4,305.1 346.0,273.2 309.4,282.7 276.0,281.7" fill="#2ca02c" opacity="0.11"/>
<polyline points="276.0,278.9 309.4,278.3 346.0,252.7 379.4,276.1 416.0,289.3 449.4,296.9 486.0,276.7" fill="none" stroke="#2ca02c" stroke-width="1.6"/>
<circle cx="276.0" cy="278.9" r="2" fill="#2ca02c"/>
<circle cx="309.4" cy="278.3" r="2" fill="#2ca02c"/>
<circle cx="346.0" cy="252.7" r="2" fill="#2ca02c"/>
<circle cx="379.4" cy="276.1" r="2" fill="#2ca02c"/>
<circle cx="416.0" cy="289.3" r="2" fill="#2ca02c"/>
<circle cx="449.4" cy="296.9" r="2" fill="#2ca02c"/>
<circle cx="486.0" cy="276.7" r="2" fill="#2ca02c"/>
<polygon points="276.0,265.8 309.4,285.5 346.0,285.7 379.4,276.1 416.0,260.4 449.4,259.6 486.0,270.8 486.0,273.7 449.4,264.4 416.0,264.0 379.4,282.8 346.0,287.2 309.4,286.6 276.0,282.0" fill="#1f77b4" opacity="0.11"/>
<polyline points="276.0,279.6 309.4,286.4 346.0,286.9 379.4,279.2 416.0,262.1 449.4,262.2 486.0,272.2" fill="none" stroke="#1f77b4" stroke-width="1.6"/>
<circle cx="276.0" cy="279.6" r="2" fill="#1f77b4"/>
<circle cx="309.4" cy="286.4" r="2" fill="#1f77b4"/>
<circle cx="346.0" cy="286.9" r="2" fill="#1f77b4"/>
<circle cx="379.4" cy="279.2" r="2" fill="#1f77b4"/>
<circle cx="416.0" cy="262.1" r="2" fill="#1f77b4"/>
<circle cx="449.4" cy="262.2" r="2" fill="#1f77b4"/>
<circle cx="486.0" cy="272.2" r="2" fill="#1f77b4"/>
<text x="381.0" y="227" text-anchor="middle" font-size="12" font-weight="bold">zdotu</text>
<line x1="276.0" y1="232" x2="276.0" y2="370" stroke="#f4f4f4"/>
<text x="276.0" y="381" text-anchor="middle" font-size="8" fill="#999">1000</text>
<line x1="309.4" y1="232" x2="309.4" y2="370" stroke="#f4f4f4"/>
<text x="309.4" y="381" text-anchor="middle" font-size="8" fill="#999">2k</text>
<line x1="346.0" y1="232" x2="346.0" y2="370" stroke="#f4f4f4"/>
<text x="346.0" y="381" text-anchor="middle" font-size="8" fill="#999">9k</text>
<line x1="379.4" y1="232" x2="379.4" y2="370" stroke="#f4f4f4"/>
<text x="379.4" y="381" text-anchor="middle" font-size="8" fill="#999">29k</text>
<line x1="416.0" y1="232" x2="416.0" y2="370" stroke="#f4f4f4"/>
<text x="416.0" y="381" text-anchor="middle" font-size="8" fill="#999">97k</text>
<line x1="449.4" y1="232" x2="449.4" y2="370" stroke="#f4f4f4"/>
<text x="449.4" y="381" text-anchor="middle" font-size="8" fill="#999">292k</text>
<line x1="486.0" y1="232" x2="486.0" y2="370" stroke="#f4f4f4"/>
<text x="486.0" y="381" text-anchor="middle" font-size="8" fill="#999">976k</text>
<rect x="506" y="232" width="210" height="138" fill="none" stroke="#e2e2e2"/>
<line x1="506" y1="310.3186713476275" x2="716" y2="310.3186713476275" stroke="#d33" stroke-dasharray="4 3"/>
<text x="502" y="373.0" text-anchor="end" font-size="9" fill="#999">0.5×</text>
<text x="502" y="313.3186713476275" text-anchor="end" font-size="9" fill="#999">1.0×</text>
<text x="502" y="235.1158319629844" text-anchor="end" font-size="9" fill="#999">2.48×</text>
<polygon points="506.0,276.8 539.4,277.3 576.0,277.5 609.4,280.5 646.0,278.0 679.4,277.5 716.0,278.4 716.0,318.9 679.4,321.4 646.0,326.5 609.4,324.7 576.0,326.0 539.4,324.9 506.0,325.3" fill="#d62728" opacity="0.11"/>
<polyline points="506.0,295.5 539.4,294.9 576.0,297.4 609.4,300.5 646.0,300.6 679.4,294.4 716.0,295.2" fill="none" stroke="#d62728" stroke-width="1.6"/>
<circle cx="506.0" cy="295.5" r="2" fill="#d62728"/>
<circle cx="539.4" cy="294.9" r="2" fill="#d62728"/>
<circle cx="576.0" cy="297.4" r="2" fill="#d62728"/>
<circle cx="609.4" cy="300.5" r="2" fill="#d62728"/>
<circle cx="646.0" cy="300.6" r="2" fill="#d62728"/>
<circle cx="679.4" cy="294.4" r="2" fill="#d62728"/>
<circle cx="716.0" cy="295.2" r="2" fill="#d62728"/>
<polygon points="506.0,242.9 539.4,240.8 576.0,240.7 609.4,239.0 646.0,238.6 679.4,243.2 716.0,252.9 716.0,284.9 679.4,277.8 646.0,279.5 609.4,283.6 576.0,281.1 539.4,283.7 506.0,286.7" fill="#2ca02c" opacity="0.11"/>
<polyline points="506.0,261.9 539.4,257.8 576.0,260.0 609.4,258.0 646.0,254.0 679.4,256.9 716.0,266.4" fill="none" stroke="#2ca02c" stroke-width="1.6"/>
<circle cx="506.0" cy="261.9" r="2" fill="#2ca02c"/>
<circle cx="539.4" cy="257.8" r="2" fill="#2ca02c"/>
<circle cx="576.0" cy="260.0" r="2" fill="#2ca02c"/>
<circle cx="609.4" cy="258.0" r="2" fill="#2ca02c"/>
<circle cx="646.0" cy="254.0" r="2" fill="#2ca02c"/>
<circle cx="679.4" cy="256.9" r="2" fill="#2ca02c"/>
<circle cx="716.0" cy="266.4" r="2" fill="#2ca02c"/>
<polygon points="506.0,252.4 539.4,248.7 576.0,251.2 609.4,249.6 646.0,248.5 679.4,248.3 716.0,253.7 716.0,290.3 679.4,293.9 646.0,289.8 609.4,292.7 576.0,288.1 539.4,290.6 506.0,295.7" fill="#1f77b4" opacity="0.11"/>
<polyline points="506.0,271.3 539.4,265.6 576.0,263.8 609.4,268.5 646.0,263.0 679.4,264.9 716.0,273.0" fill="none" stroke="#1f77b4" stroke-width="1.6"/>
<circle cx="506.0" cy="271.3" r="2" fill="#1f77b4"/>
<circle cx="539.4" cy="265.6" r="2" fill="#1f77b4"/>
<circle cx="576.0" cy="263.8" r="2" fill="#1f77b4"/>
<circle cx="609.4" cy="268.5" r="2" fill="#1f77b4"/>
<circle cx="646.0" cy="263.0" r="2" fill="#1f77b4"/>
<circle cx="679.4" cy="264.9" r="2" fill="#1f77b4"/>
<circle cx="716.0" cy="273.0" r="2" fill="#1f77b4"/>
<text x="611.0" y="227" text-anchor="middle" font-size="12" font-weight="bold">izamax</text>
<line x1="506.0" y1="232" x2="506.0" y2="370" stroke="#f4f4f4"/>
<text x="506.0" y="381" text-anchor="middle" font-size="8" fill="#999">1000</text>
<line x1="539.4" y1="232" x2="539.4" y2="370" stroke="#f4f4f4"/>
<text x="539.4" y="381" text-anchor="middle" font-size="8" fill="#999">2k</text>
<line x1="576.0" y1="232" x2="576.0" y2="370" stroke="#f4f4f4"/>
<text x="576.0" y="381" text-anchor="middle" font-size="8" fill="#999">9k</text>
<line x1="609.4" y1="232" x2="609.4" y2="370" stroke="#f4f4f4"/>
<text x="609.4" y="381" text-anchor="middle" font-size="8" fill="#999">29k</text>
<line x1="646.0" y1="232" x2="646.0" y2="370" stroke="#f4f4f4"/>
<text x="646.0" y="381" text-anchor="middle" font-size="8" fill="#999">97k</text>
<line x1="679.4" y1="232" x2="679.4" y2="370" stroke="#f4f4f4"/>
<text x="679.4" y="381" text-anchor="middle" font-size="8" fill="#999">292k</text>
<line x1="716.0" y1="232" x2="716.0" y2="370" stroke="#f4f4f4"/>
<text x="716.0" y="381" text-anchor="middle" font-size="8" fill="#999">976k</text>
</svg>
