<svg xmlns="http://www.w3.org/2000/svg" width="900" height="460" font-family="sans-serif">
<rect width="900" height="460" fill="white"/>
<text x="450.0" y="28" text-anchor="middle" font-size="18" font-weight="bold">BLAS-3: PureBLAS / OpenBLAS (AVX2, 1 thread, Float64)</text>
<line x1="62" y1="400.0" x2="768" y2="400.0" stroke="#eee"/>
<text x="54" y="404.0" text-anchor="end" font-size="11" fill="#666">0.5×</text>
<line x1="62" y1="322.4441415334551" x2="768" y2="322.4441415334551" stroke="#eee"/>
<text x="54" y="326.4441415334551" text-anchor="end" font-size="11" fill="#666">0.7×</text>
<line x1="62" y1="240.23161859707906" x2="768" y2="240.23161859707906" stroke="#eee"/>
<text x="54" y="244.23161859707906" text-anchor="end" font-size="11" fill="#666">1.0×</text>
<line x1="62" y1="146.77310667545498" x2="768" y2="146.77310667545498" stroke="#eee"/>
<text x="54" y="150.77310667545498" text-anchor="end" font-size="11" fill="#666">1.5×</text>
<line x1="62" y1="80.46323719415813" x2="768" y2="80.46323719415813" stroke="#eee"/>
<text x="54" y="84.46323719415813" text-anchor="end" font-size="11" fill="#666">2.0×</text>
<line x1="62.0" y1="50" x2="62.0" y2="400" stroke="#f4f4f4"/>
<text x="62.0" y="418" text-anchor="middle" font-size="11" fill="#444">8</text>
<line x1="238.5" y1="50" x2="238.5" y2="400" stroke="#f4f4f4"/>
<text x="238.5" y="418" text-anchor="middle" font-size="11" fill="#444">32</text>
<line x1="415.0" y1="50" x2="415.0" y2="400" stroke="#f4f4f4"/>
<text x="415.0" y="418" text-anchor="middle" font-size="11" fill="#444">128</text>
<line x1="503.25" y1="50" x2="503.25" y2="400" stroke="#f4f4f4"/>
<text x="503.25" y="418" text-anchor="middle" font-size="11" fill="#444">256</text>
<line x1="591.5" y1="50" x2="591.5" y2="400" stroke="#f4f4f4"/>
<text x="591.5" y="418" text-anchor="middle" font-size="11" fill="#444">512</text>
<line x1="679.75" y1="50" x2="679.75" y2="400" stroke="#f4f4f4"/>
<text x="679.75" y="418" text-anchor="middle" font-size="11" fill="#444">1024</text>
<line x1="768.0" y1="50" x2="768.0" y2="400" stroke="#f4f4f4"/>
<text x="768.0" y="418" text-anchor="middle" font-size="11" fill="#444">2048</text>
<line x1="62" y1="240.23161859707906" x2="768" y2="240.23161859707906" stroke="#888"/>
<line x1="62" y1="249.64096797201464" x2="768" y2="249.64096797201464" stroke="#d33" stroke-width="1.5" stroke-dasharray="6 4"/>
<text x="66" y="244.64096797201464" font-size="11" fill="#d33">0.96× gate</text>
<polyline points="62.0,82.2 238.5,216.3 415.0,210.6 503.2,236.1 591.5,229.1 679.8,229.9 768.0,228.9" fill="none" stroke="#1f77b4" stroke-width="2"/>
<circle cx="62.0" cy="82.2" r="3" fill="#1f77b4"/>
<circle cx="238.5" cy="216.3" r="3" fill="#1f77b4"/>
<circle cx="415.0" cy="210.6" r="3" fill="#1f77b4"/>
<circle cx="503.2" cy="236.1" r="3" fill="#1f77b4"/>
<circle cx="591.5" cy="229.1" r="3" fill="#1f77b4"/>
<circle cx="679.8" cy="229.9" r="3" fill="#1f77b4"/>
<circle cx="768.0" cy="228.9" r="3" fill="#1f77b4"/>
<line x1="782" y1="56" x2="802" y2="56" stroke="#1f77b4" stroke-width="3"/>
<text x="806" y="60" font-size="12">gemm</text>
<polyline points="62.0,201.1 238.5,257.6 415.0,248.1 503.2,254.5 591.5,256.9 679.8,250.0 768.0,246.5" fill="none" stroke="#d62728" stroke-width="2"/>
<circle cx="62.0" cy="201.1" r="3" fill="#d62728"/>
<circle cx="238.5" cy="257.6" r="3" fill="#d62728"/>
<circle cx="415.0" cy="248.1" r="3" fill="#d62728"/>
<circle cx="503.2" cy="254.5" r="3" fill="#d62728"/>
<circle cx="591.5" cy="256.9" r="3" fill="#d62728"/>
<circle cx="679.8" cy="250.0" r="3" fill="#d62728"/>
<circle cx="768.0" cy="246.5" r="3" fill="#d62728"/>
<line x1="782" y1="74" x2="802" y2="74" stroke="#d62728" stroke-width="3"/>
<text x="806" y="78" font-size="12">zgemm</text>
<polyline points="62.0,188.6 238.5,226.6 415.0,236.7 503.2,239.6 591.5,232.0 679.8,226.1 768.0,226.1" fill="none" stroke="#2ca02c" stroke-width="2"/>
<circle cx="62.0" cy="188.6" r="3" fill="#2ca02c"/>
<circle cx="238.5" cy="226.6" r="3" fill="#2ca02c"/>
<circle cx="415.0" cy="236.7" r="3" fill="#2ca02c"/>
<circle cx="503.2" cy="239.6" r="3" fill="#2ca02c"/>
<circle cx="591.5" cy="232.0" r="3" fill="#2ca02c"/>
<circle cx="679.8" cy="226.1" r="3" fill="#2ca02c"/>
<circle cx="768.0" cy="226.1" r="3" fill="#2ca02c"/>
<line x1="782" y1="92" x2="802" y2="92" stroke="#2ca02c" stroke-width="3"/>
<text x="806" y="96" font-size="12">symm</text>
<polyline points="62.0,129.7 238.5,181.1 415.0,233.7 503.2,231.3 591.5,230.1 679.8,233.3 768.0,232.7" fill="none" stroke="#9467bd" stroke-width="2"/>
<circle cx="62.0" cy="129.7" r="3" fill="#9467bd"/>
<circle cx="238.5" cy="181.1" r="3" fill="#9467bd"/>
<circle cx="415.0" cy="233.7" r="3" fill="#9467bd"/>
<circle cx="503.2" cy="231.3" r="3" fill="#9467bd"/>
<circle cx="591.5" cy="230.1" r="3" fill="#9467bd"/>
<circle cx="679.8" cy="233.3" r="3" fill="#9467bd"/>
<circle cx="768.0" cy="232.7" r="3" fill="#9467bd"/>
<line x1="782" y1="110" x2="802" y2="110" stroke="#9467bd" stroke-width="3"/>
<text x="806" y="114" font-size="12">syrk</text>
<polyline points="62.0,113.4 238.5,209.8 415.0,239.8 503.2,249.2 591.5,237.7 679.8,237.4 768.0,235.1" fill="none" stroke="#ff7f0e" stroke-width="2"/>
<circle cx="62.0" cy="113.4" r="3" fill="#ff7f0e"/>
<circle cx="238.5" cy="209.8" r="3" fill="#ff7f0e"/>
<circle cx="415.0" cy="239.8" r="3" fill="#ff7f0e"/>
<circle cx="503.2" cy="249.2" r="3" fill="#ff7f0e"/>
<circle cx="591.5" cy="237.7" r="3" fill="#ff7f0e"/>
<circle cx="679.8" cy="237.4" r="3" fill="#ff7f0e"/>
<circle cx="768.0" cy="235.1" r="3" fill="#ff7f0e"/>
<line x1="782" y1="128" x2="802" y2="128" stroke="#ff7f0e" stroke-width="3"/>
<text x="806" y="132" font-size="12">syr2k</text>
<polyline points="62.0,284.1 238.5,190.1 415.0,198.8 503.2,207.6 591.5,204.7 679.8,218.5 768.0,225.2" fill="none" stroke="#17becf" stroke-width="2"/>
<circle cx="62.0" cy="284.1" r="3" fill="#17becf"/>
<circle cx="238.5" cy="190.1" r="3" fill="#17becf"/>
<circle cx="415.0" cy="198.8" r="3" fill="#17becf"/>
<circle cx="503.2" cy="207.6" r="3" fill="#17becf"/>
<circle cx="591.5" cy="204.7" r="3" fill="#17becf"/>
<circle cx="679.8" cy="218.5" r="3" fill="#17becf"/>
<circle cx="768.0" cy="225.2" r="3" fill="#17becf"/>
<line x1="782" y1="146" x2="802" y2="146" stroke="#17becf" stroke-width="3"/>
<text x="806" y="150" font-size="12">trmm</text>
<polyline points="62.0,230.2 238.5,240.0 415.0,244.4 503.2,241.7 591.5,233.5 679.8,230.6 768.0,231.2" fill="none" stroke="#8c564b" stroke-width="2"/>
<circle cx="62.0" cy="230.2" r="3" fill="#8c564b"/>
<circle cx="238.5" cy="240.0" r="3" fill="#8c564b"/>
<circle cx="415.0" cy="244.4" r="3" fill="#8c564b"/>
<circle cx="503.2" cy="241.7" r="3" fill="#8c564b"/>
<circle cx="591.5" cy="233.5" r="3" fill="#8c564b"/>
<circle cx="679.8" cy="230.6" r="3" fill="#8c564b"/>
<circle cx="768.0" cy="231.2" r="3" fill="#8c564b"/>
<line x1="782" y1="164" x2="802" y2="164" stroke="#8c564b" stroke-width="3"/>
<text x="806" y="168" font-size="12">trsm</text>
<text x="415.0" y="450" text-anchor="middle" font-size="11" fill="#666">matrix size n (log) · y = median ratio (log) · dashed = the 0.96× gate</text>
</svg>
