<svg xmlns="http://www.w3.org/2000/svg" width="900" height="460" font-family="sans-serif">
<rect width="900" height="460" fill="white"/>
<text x="450.0" y="28" text-anchor="middle" font-size="18" font-weight="bold">Complex BLAS-3: PureBLAS / OpenBLAS (AVX-512, 1 thread, ComplexF64)</text>
<line x1="62" y1="400.0" x2="768" y2="400.0" stroke="#eee"/>
<text x="54" y="404.0" text-anchor="end" font-size="11" fill="#666">0.5×</text>
<line x1="62" y1="314.74232661015407" x2="768" y2="314.74232661015407" stroke="#eee"/>
<text x="54" y="318.74232661015407" text-anchor="end" font-size="11" fill="#666">0.7×</text>
<line x1="62" y1="224.3655508558335" x2="768" y2="224.3655508558335" stroke="#eee"/>
<text x="54" y="228.3655508558335" text-anchor="end" font-size="11" fill="#666">1.0×</text>
<line x1="62" y1="121.62598427167914" x2="768" y2="121.62598427167914" stroke="#eee"/>
<text x="54" y="125.62598427167914" text-anchor="end" font-size="11" fill="#666">1.5×</text>
<line x1="62.0" y1="50" x2="62.0" y2="400" stroke="#f4f4f4"/>
<text x="62.0" y="418" text-anchor="middle" font-size="11" fill="#444">8</text>
<line x1="238.5" y1="50" x2="238.5" y2="400" stroke="#f4f4f4"/>
<text x="238.5" y="418" text-anchor="middle" font-size="11" fill="#444">32</text>
<line x1="415.0" y1="50" x2="415.0" y2="400" stroke="#f4f4f4"/>
<text x="415.0" y="418" text-anchor="middle" font-size="11" fill="#444">128</text>
<line x1="503.25" y1="50" x2="503.25" y2="400" stroke="#f4f4f4"/>
<text x="503.25" y="418" text-anchor="middle" font-size="11" fill="#444">256</text>
<line x1="591.5" y1="50" x2="591.5" y2="400" stroke="#f4f4f4"/>
<text x="591.5" y="418" text-anchor="middle" font-size="11" fill="#444">512</text>
<line x1="679.75" y1="50" x2="679.75" y2="400" stroke="#f4f4f4"/>
<text x="679.75" y="418" text-anchor="middle" font-size="11" fill="#444">1024</text>
<line x1="768.0" y1="50" x2="768.0" y2="400" stroke="#f4f4f4"/>
<text x="768.0" y="418" text-anchor="middle" font-size="11" fill="#444">2048</text>
<line x1="62" y1="224.3655508558335" x2="768" y2="224.3655508558335" stroke="#888"/>
<line x1="62" y1="234.70931149082483" x2="768" y2="234.70931149082483" stroke="#d33" stroke-width="1.5" stroke-dasharray="6 4"/>
<text x="66" y="229.70931149082483" font-size="11" fill="#d33">0.96× gate</text>
<polygon points="62.0,84.2 238.5,131.7 415.0,183.4 503.2,188.8 591.5,195.6 679.8,190.7 768.0,188.0 768.0,195.1 679.8,191.1 591.5,195.9 503.2,189.8 415.0,185.3 238.5,134.7 62.0,89.3" fill="#1f77b4" opacity="0.14" stroke="none"/>
<polyline points="62.0,85.4 238.5,132.3 415.0,183.8 503.2,189.2 591.5,195.7 679.8,190.9 768.0,191.9" fill="none" stroke="#1f77b4" stroke-width="2"/>
<circle cx="62.0" cy="85.4" r="3" fill="#1f77b4"/>
<circle cx="238.5" cy="132.3" r="3" fill="#1f77b4"/>
<circle cx="415.0" cy="183.8" r="3" fill="#1f77b4"/>
<circle cx="503.2" cy="189.2" r="3" fill="#1f77b4"/>
<circle cx="591.5" cy="195.7" r="3" fill="#1f77b4"/>
<circle cx="679.8" cy="190.9" r="3" fill="#1f77b4"/>
<circle cx="768.0" cy="191.9" r="3" fill="#1f77b4"/>
<line x1="782" y1="56" x2="802" y2="56" stroke="#1f77b4" stroke-width="3"/>
<text x="806" y="60" font-size="12">zgemm</text>
<polygon points="62.0,186.5 238.5,172.7 415.0,193.8 503.2,195.2 591.5,196.8 679.8,191.2 768.0,195.1 768.0,195.2 679.8,192.9 591.5,197.6 503.2,197.3 415.0,200.4 238.5,175.7 62.0,229.7" fill="#d62728" opacity="0.14" stroke="none"/>
<polyline points="62.0,198.0 238.5,173.9 415.0,196.7 503.2,195.6 591.5,197.2 679.8,191.6 768.0,195.1" fill="none" stroke="#d62728" stroke-width="2"/>
<circle cx="62.0" cy="198.0" r="3" fill="#d62728"/>
<circle cx="238.5" cy="173.9" r="3" fill="#d62728"/>
<circle cx="415.0" cy="196.7" r="3" fill="#d62728"/>
<circle cx="503.2" cy="195.6" r="3" fill="#d62728"/>
<circle cx="591.5" cy="197.2" r="3" fill="#d62728"/>
<circle cx="679.8" cy="191.6" r="3" fill="#d62728"/>
<circle cx="768.0" cy="195.1" r="3" fill="#d62728"/>
<line x1="782" y1="74" x2="802" y2="74" stroke="#d62728" stroke-width="3"/>
<text x="806" y="78" font-size="12">zhemm</text>
<polygon points="62.0,177.0 238.5,174.8 415.0,201.4 503.2,206.9 591.5,207.6 679.8,198.1 768.0,198.3 768.0,199.9 679.8,199.7 591.5,208.5 503.2,209.5 415.0,203.2 238.5,177.0 62.0,204.2" fill="#2ca02c" opacity="0.14" stroke="none"/>
<polyline points="62.0,185.0 238.5,175.9 415.0,202.5 503.2,207.9 591.5,207.8 679.8,198.3 768.0,199.8" fill="none" stroke="#2ca02c" stroke-width="2"/>
<circle cx="62.0" cy="185.0" r="3" fill="#2ca02c"/>
<circle cx="238.5" cy="175.9" r="3" fill="#2ca02c"/>
<circle cx="415.0" cy="202.5" r="3" fill="#2ca02c"/>
<circle cx="503.2" cy="207.9" r="3" fill="#2ca02c"/>
<circle cx="591.5" cy="207.8" r="3" fill="#2ca02c"/>
<circle cx="679.8" cy="198.3" r="3" fill="#2ca02c"/>
<circle cx="768.0" cy="199.8" r="3" fill="#2ca02c"/>
<line x1="782" y1="92" x2="802" y2="92" stroke="#2ca02c" stroke-width="3"/>
<text x="806" y="96" font-size="12">zsymm</text>
<polygon points="62.0,145.6 238.5,279.4 415.0,214.1 503.2,188.9 591.5,192.3 679.8,189.2 768.0,196.7 768.0,197.0 679.8,189.8 591.5,193.0 503.2,192.9 415.0,223.9 238.5,281.0 62.0,173.4" fill="#9467bd" opacity="0.14" stroke="none"/>
<polyline points="62.0,162.7 238.5,280.6 415.0,219.9 503.2,190.4 591.5,192.7 679.8,189.4 768.0,196.9" fill="none" stroke="#9467bd" stroke-width="2"/>
<circle cx="62.0" cy="162.7" r="3" fill="#9467bd"/>
<circle cx="238.5" cy="280.6" r="3" fill="#9467bd"/>
<circle cx="415.0" cy="219.9" r="3" fill="#9467bd"/>
<circle cx="503.2" cy="190.4" r="3" fill="#9467bd"/>
<circle cx="591.5" cy="192.7" r="3" fill="#9467bd"/>
<circle cx="679.8" cy="189.4" r="3" fill="#9467bd"/>
<circle cx="768.0" cy="196.9" r="3" fill="#9467bd"/>
<line x1="782" y1="110" x2="802" y2="110" stroke="#9467bd" stroke-width="3"/>
<text x="806" y="114" font-size="12">zsyrk</text>
<polygon points="62.0,151.6 238.5,278.5 415.0,210.9 503.2,192.1 591.5,198.7 679.8,195.8 768.0,197.1 768.0,197.2 679.8,196.3 591.5,199.5 503.2,199.1 415.0,218.6 238.5,281.1 62.0,167.1" fill="#ff7f0e" opacity="0.14" stroke="none"/>
<polyline points="62.0,154.3 238.5,280.1 415.0,212.1 503.2,194.6 591.5,199.2 679.8,196.0 768.0,197.1" fill="none" stroke="#ff7f0e" stroke-width="2"/>
<circle cx="62.0" cy="154.3" r="3" fill="#ff7f0e"/>
<circle cx="238.5" cy="280.1" r="3" fill="#ff7f0e"/>
<circle cx="415.0" cy="212.1" r="3" fill="#ff7f0e"/>
<circle cx="503.2" cy="194.6" r="3" fill="#ff7f0e"/>
<circle cx="591.5" cy="199.2" r="3" fill="#ff7f0e"/>
<circle cx="679.8" cy="196.0" r="3" fill="#ff7f0e"/>
<circle cx="768.0" cy="197.1" r="3" fill="#ff7f0e"/>
<line x1="782" y1="128" x2="802" y2="128" stroke="#ff7f0e" stroke-width="3"/>
<text x="806" y="132" font-size="12">zherk</text>
<polygon points="62.0,124.3 238.5,284.4 415.0,219.8 503.2,198.4 591.5,197.4 679.8,197.4 768.0,199.4 768.0,201.9 679.8,198.2 591.5,198.1 503.2,200.5 415.0,221.5 238.5,286.2 62.0,132.1" fill="#17becf" opacity="0.14" stroke="none"/>
<polyline points="62.0,127.8 238.5,285.0 415.0,220.6 503.2,199.3 591.5,197.5 679.8,197.7 768.0,201.2" fill="none" stroke="#17becf" stroke-width="2"/>
<circle cx="62.0" cy="127.8" r="3" fill="#17becf"/>
<circle cx="238.5" cy="285.0" r="3" fill="#17becf"/>
<circle cx="415.0" cy="220.6" r="3" fill="#17becf"/>
<circle cx="503.2" cy="199.3" r="3" fill="#17becf"/>
<circle cx="591.5" cy="197.5" r="3" fill="#17becf"/>
<circle cx="679.8" cy="197.7" r="3" fill="#17becf"/>
<circle cx="768.0" cy="201.2" r="3" fill="#17becf"/>
<line x1="782" y1="146" x2="802" y2="146" stroke="#17becf" stroke-width="3"/>
<text x="806" y="150" font-size="12">zher2k</text>
<polygon points="62.0,117.1 238.5,283.9 415.0,221.8 503.2,192.0 591.5,191.8 679.8,190.8 768.0,194.4 768.0,196.5 679.8,192.2 591.5,192.8 503.2,194.8 415.0,223.8 238.5,284.9 62.0,120.7" fill="#8c564b" opacity="0.14" stroke="none"/>
<polyline points="62.0,117.9 238.5,284.3 415.0,223.0 503.2,193.2 591.5,192.5 679.8,191.3 768.0,195.7" fill="none" stroke="#8c564b" stroke-width="2"/>
<circle cx="62.0" cy="117.9" r="3" fill="#8c564b"/>
<circle cx="238.5" cy="284.3" r="3" fill="#8c564b"/>
<circle cx="415.0" cy="223.0" r="3" fill="#8c564b"/>
<circle cx="503.2" cy="193.2" r="3" fill="#8c564b"/>
<circle cx="591.5" cy="192.5" r="3" fill="#8c564b"/>
<circle cx="679.8" cy="191.3" r="3" fill="#8c564b"/>
<circle cx="768.0" cy="195.7" r="3" fill="#8c564b"/>
<line x1="782" y1="164" x2="802" y2="164" stroke="#8c564b" stroke-width="3"/>
<text x="806" y="168" font-size="12">zsyr2k</text>
<polygon points="62.0,205.0 238.5,214.8 415.0,206.5 503.2,210.3 591.5,208.0 679.8,201.5 768.0,197.7 768.0,199.2 679.8,202.0 591.5,208.7 503.2,215.9 415.0,215.6 238.5,216.3 62.0,237.5" fill="#e377c2" opacity="0.14" stroke="none"/>
<polyline points="62.0,229.7 238.5,215.8 415.0,211.8 503.2,211.9 591.5,208.6 679.8,201.8 768.0,198.1" fill="none" stroke="#e377c2" stroke-width="2"/>
<circle cx="62.0" cy="229.7" r="3" fill="#e377c2"/>
<circle cx="238.5" cy="215.8" r="3" fill="#e377c2"/>
<circle cx="415.0" cy="211.8" r="3" fill="#e377c2"/>
<circle cx="503.2" cy="211.9" r="3" fill="#e377c2"/>
<circle cx="591.5" cy="208.6" r="3" fill="#e377c2"/>
<circle cx="679.8" cy="201.8" r="3" fill="#e377c2"/>
<circle cx="768.0" cy="198.1" r="3" fill="#e377c2"/>
<line x1="782" y1="182" x2="802" y2="182" stroke="#e377c2" stroke-width="3"/>
<text x="806" y="186" font-size="12">ztrmm</text>
<polygon points="62.0,195.6 238.5,230.1 415.0,202.5 503.2,194.5 591.5,187.7 679.8,190.3 768.0,193.8 768.0,196.7 679.8,190.9 591.5,188.2 503.2,197.7 415.0,204.6 238.5,230.9 62.0,222.7" fill="#1f77b4" opacity="0.14" stroke="none"/>
<polyline points="62.0,217.9 238.5,230.5 415.0,203.8 503.2,196.7 591.5,187.9 679.8,190.7 768.0,194.9" fill="none" stroke="#1f77b4" stroke-width="2"/>
<circle cx="62.0" cy="217.9" r="3" fill="#1f77b4"/>
<circle cx="238.5" cy="230.5" r="3" fill="#1f77b4"/>
<circle cx="415.0" cy="203.8" r="3" fill="#1f77b4"/>
<circle cx="503.2" cy="196.7" r="3" fill="#1f77b4"/>
<circle cx="591.5" cy="187.9" r="3" fill="#1f77b4"/>
<circle cx="679.8" cy="190.7" r="3" fill="#1f77b4"/>
<circle cx="768.0" cy="194.9" r="3" fill="#1f77b4"/>
<line x1="782" y1="200" x2="802" y2="200" stroke="#1f77b4" stroke-width="3"/>
<text x="806" y="204" font-size="12">ztrsm</text>
<polygon points="62.0,191.1 238.5,171.8 415.0,192.7 503.2,201.9 591.5,206.9 679.8,206.3 768.0,201.5 768.0,201.6 679.8,207.1 591.5,208.1 503.2,210.0 415.0,196.7 238.5,179.4 62.0,208.9" fill="#d62728" opacity="0.14" stroke="none"/>
<polyline points="62.0,193.1 238.5,172.5 415.0,193.8 503.2,207.0 591.5,207.3 679.8,206.9 768.0,201.6" fill="none" stroke="#d62728" stroke-width="2"/>
<circle cx="62.0" cy="193.1" r="3" fill="#d62728"/>
<circle cx="238.5" cy="172.5" r="3" fill="#d62728"/>
<circle cx="415.0" cy="193.8" r="3" fill="#d62728"/>
<circle cx="503.2" cy="207.0" r="3" fill="#d62728"/>
<circle cx="591.5" cy="207.3" r="3" fill="#d62728"/>
<circle cx="679.8" cy="206.9" r="3" fill="#d62728"/>
<circle cx="768.0" cy="201.6" r="3" fill="#d62728"/>
<line x1="782" y1="218" x2="802" y2="218" stroke="#d62728" stroke-width="3"/>
<text x="806" y="222" font-size="12">ztrmmR</text>
<polygon points="62.0,104.6 238.5,125.7 415.0,133.6 503.2,163.9 591.5,178.1 679.8,192.2 768.0,197.7 768.0,199.1 679.8,192.5 591.5,178.7 503.2,166.5 415.0,144.9 238.5,128.0 62.0,121.9" fill="#2ca02c" opacity="0.14" stroke="none"/>
<polyline points="62.0,112.1 238.5,127.4 415.0,140.5 503.2,165.2 591.5,178.5 679.8,192.4 768.0,198.9" fill="none" stroke="#2ca02c" stroke-width="2"/>
<circle cx="62.0" cy="112.1" r="3" fill="#2ca02c"/>
<circle cx="238.5" cy="127.4" r="3" fill="#2ca02c"/>
<circle cx="415.0" cy="140.5" r="3" fill="#2ca02c"/>
<circle cx="503.2" cy="165.2" r="3" fill="#2ca02c"/>
<circle cx="591.5" cy="178.5" r="3" fill="#2ca02c"/>
<circle cx="679.8" cy="192.4" r="3" fill="#2ca02c"/>
<circle cx="768.0" cy="198.9" r="3" fill="#2ca02c"/>
<line x1="782" y1="236" x2="802" y2="236" stroke="#2ca02c" stroke-width="3"/>
<text x="806" y="240" font-size="12">ztrsmR</text>
<text x="415.0" y="450" text-anchor="middle" font-size="11" fill="#666">matrix size n (log) · y = median ratio (log) · dashed = the 0.96× gate</text>
</svg>
