<svg xmlns="http://www.w3.org/2000/svg" width="962" height="420" font-family="sans-serif">
<rect width="962" height="420" fill="white"/>
<text x="481.0" y="26" text-anchor="middle" font-size="17" font-weight="bold">Complex BLAS-1 — PureBLAS / AOCL (PB/AOCL ratio)</text>
<line x1="46" y1="42" x2="68" y2="42" stroke="#d62728" stroke-width="3"/>
<text x="73" y="46" font-size="12">Zen3 · AVX2</text>
<line x1="176" y1="42" x2="198" y2="42" stroke="#2ca02c" stroke-width="3"/>
<text x="203" y="46" font-size="12">Zen5 · AVX-512</text>
<line x1="327" y1="42" x2="349" y2="42" stroke="#1f77b4" stroke-width="3"/>
<text x="354" y="46" font-size="12">Zen4 · AVX-512</text>
<rect x="46" y="60" width="210" height="138" fill="none" stroke="#e2e2e2"/>
<line x1="46" y1="124.11987072142533" x2="256" y2="124.11987072142533" stroke="#d33" stroke-dasharray="4 3"/>
<text x="42" y="201.0" text-anchor="end" font-size="9" fill="#999">0.5×</text>
<text x="42" y="127.11987072142533" text-anchor="end" font-size="9" fill="#999">1.0×</text>
<text x="42" y="63.29198631537084" text-anchor="end" font-size="9" fill="#999">1.82×</text>
<polygon points="46.0,68.2 79.4,89.6 116.0,91.8 149.4,101.1 186.0,101.9 219.4,103.6 256.0,106.4 256.0,120.4 219.4,108.1 186.0,106.2 149.4,102.4 116.0,97.0 79.4,91.0 46.0,68.8" fill="#d62728" opacity="0.11"/>
<polyline points="46.0,68.4 79.4,90.4 116.0,93.1 149.4,101.5 186.0,102.8 219.4,105.2 256.0,117.9" fill="none" stroke="#d62728" stroke-width="1.6"/>
<circle cx="46.0" cy="68.4" r="2" fill="#d62728"/>
<circle cx="79.4" cy="90.4" r="2" fill="#d62728"/>
<circle cx="116.0" cy="93.1" r="2" fill="#d62728"/>
<circle cx="149.4" cy="101.5" r="2" fill="#d62728"/>
<circle cx="186.0" cy="102.8" r="2" fill="#d62728"/>
<circle cx="219.4" cy="105.2" r="2" fill="#d62728"/>
<circle cx="256.0" cy="117.9" r="2" fill="#d62728"/>
<polygon points="46.0,108.2 79.4,125.1 116.0,124.9 149.4,112.8 186.0,123.1 219.4,123.1 256.0,117.2 256.0,128.7 219.4,128.2 186.0,125.3 149.4,128.2 116.0,128.1 79.4,125.9 46.0,108.9" fill="#2ca02c" opacity="0.11"/>
<polyline points="46.0,108.5 79.4,125.5 116.0,125.8 149.4,121.6 186.0,124.3 219.4,126.2 256.0,124.8" fill="none" stroke="#2ca02c" stroke-width="1.6"/>
<circle cx="46.0" cy="108.5" r="2" fill="#2ca02c"/>
<circle cx="79.4" cy="125.5" r="2" fill="#2ca02c"/>
<circle cx="116.0" cy="125.8" r="2" fill="#2ca02c"/>
<circle cx="149.4" cy="121.6" r="2" fill="#2ca02c"/>
<circle cx="186.0" cy="124.3" r="2" fill="#2ca02c"/>
<circle cx="219.4" cy="126.2" r="2" fill="#2ca02c"/>
<circle cx="256.0" cy="124.8" r="2" fill="#2ca02c"/>
<polygon points="46.0,115.6 79.4,123.1 116.0,122.7 149.4,122.6 186.0,125.6 219.4,125.2 256.0,121.4 256.0,126.2 219.4,126.5 186.0,126.8 149.4,125.6 116.0,123.6 79.4,123.3 46.0,118.8" fill="#1f77b4" opacity="0.11"/>
<polyline points="46.0,118.0 79.4,123.2 116.0,123.3 149.4,124.3 186.0,125.9 219.4,125.8 256.0,124.5" fill="none" stroke="#1f77b4" stroke-width="1.6"/>
<circle cx="46.0" cy="118.0" r="2" fill="#1f77b4"/>
<circle cx="79.4" cy="123.2" r="2" fill="#1f77b4"/>
<circle cx="116.0" cy="123.3" r="2" fill="#1f77b4"/>
<circle cx="149.4" cy="124.3" r="2" fill="#1f77b4"/>
<circle cx="186.0" cy="125.9" r="2" fill="#1f77b4"/>
<circle cx="219.4" cy="125.8" r="2" fill="#1f77b4"/>
<circle cx="256.0" cy="124.5" r="2" fill="#1f77b4"/>
<text x="151.0" y="55" text-anchor="middle" font-size="12" font-weight="bold">zaxpy</text>
<line x1="46.0" y1="60" x2="46.0" y2="198" stroke="#f4f4f4"/>
<text x="46.0" y="209" text-anchor="middle" font-size="8" fill="#999">1000</text>
<line x1="79.4" y1="60" x2="79.4" y2="198" stroke="#f4f4f4"/>
<text x="79.4" y="209" text-anchor="middle" font-size="8" fill="#999">2k</text>
<line x1="116.0" y1="60" x2="116.0" y2="198" stroke="#f4f4f4"/>
<text x="116.0" y="209" text-anchor="middle" font-size="8" fill="#999">9k</text>
<line x1="149.4" y1="60" x2="149.4" y2="198" stroke="#f4f4f4"/>
<text x="149.4" y="209" text-anchor="middle" font-size="8" fill="#999">29k</text>
<line x1="186.0" y1="60" x2="186.0" y2="198" stroke="#f4f4f4"/>
<text x="186.0" y="209" text-anchor="middle" font-size="8" fill="#999">97k</text>
<line x1="219.4" y1="60" x2="219.4" y2="198" stroke="#f4f4f4"/>
<text x="219.4" y="209" text-anchor="middle" font-size="8" fill="#999">292k</text>
<line x1="256.0" y1="60" x2="256.0" y2="198" stroke="#f4f4f4"/>
<text x="256.0" y="209" text-anchor="middle" font-size="8" fill="#999">976k</text>
<rect x="276" y="60" width="210" height="138" fill="none" stroke="#e2e2e2"/>
<line x1="276" y1="115.76276119065531" x2="486" y2="115.76276119065531" stroke="#d33" stroke-dasharray="4 3"/>
<text x="272" y="201.0" text-anchor="end" font-size="9" fill="#999">0.5×</text>
<text x="272" y="118.76276119065531" text-anchor="end" font-size="9" fill="#999">1.0×</text>
<text x="272" y="63.0" text-anchor="end" font-size="9" fill="#999">1.6×</text>
<polygon points="276.0,79.7 309.4,110.1 346.0,111.2 379.4,114.2 416.0,113.9 449.4,113.3 486.0,112.7 486.0,118.5 449.4,117.3 416.0,116.7 379.4,115.2 346.0,114.3 309.4,110.7 276.0,83.1" fill="#d62728" opacity="0.11"/>
<polyline points="276.0,81.4 309.4,110.5 346.0,113.8 379.4,114.8 416.0,116.2 449.4,115.5 486.0,115.2" fill="none" stroke="#d62728" stroke-width="1.6"/>
<circle cx="276.0" cy="81.4" r="2" fill="#d62728"/>
<circle cx="309.4" cy="110.5" r="2" fill="#d62728"/>
<circle cx="346.0" cy="113.8" r="2" fill="#d62728"/>
<circle cx="379.4" cy="114.8" r="2" fill="#d62728"/>
<circle cx="416.0" cy="116.2" r="2" fill="#d62728"/>
<circle cx="449.4" cy="115.5" r="2" fill="#d62728"/>
<circle cx="486.0" cy="115.2" r="2" fill="#d62728"/>
<polygon points="276.0,109.6 309.4,108.3 346.0,106.9 379.4,99.2 416.0,114.0 449.4,111.4 486.0,106.1 486.0,118.0 449.4,121.0 416.0,116.1 379.4,125.8 346.0,111.9 309.4,110.2 276.0,110.4" fill="#2ca02c" opacity="0.11"/>
<polyline points="276.0,110.1 309.4,109.4 346.0,110.1 379.4,108.6 416.0,115.0 449.4,116.7 486.0,114.2" fill="none" stroke="#2ca02c" stroke-width="1.6"/>
<circle cx="276.0" cy="110.1" r="2" fill="#2ca02c"/>
<circle cx="309.4" cy="109.4" r="2" fill="#2ca02c"/>
<circle cx="346.0" cy="110.1" r="2" fill="#2ca02c"/>
<circle cx="379.4" cy="108.6" r="2" fill="#2ca02c"/>
<circle cx="416.0" cy="115.0" r="2" fill="#2ca02c"/>
<circle cx="449.4" cy="116.7" r="2" fill="#2ca02c"/>
<circle cx="486.0" cy="114.2" r="2" fill="#2ca02c"/>
<polygon points="276.0,113.6 309.4,111.9 346.0,114.3 379.4,111.6 416.0,114.9 449.4,114.7 486.0,110.1 486.0,114.8 449.4,116.0 416.0,115.7 379.4,115.4 346.0,114.5 309.4,112.1 276.0,114.5" fill="#1f77b4" opacity="0.11"/>
<polyline points="276.0,114.1 309.4,112.0 346.0,114.4 379.4,113.1 416.0,115.4 449.4,115.2 486.0,111.7" fill="none" stroke="#1f77b4" stroke-width="1.6"/>
<circle cx="276.0" cy="114.1" r="2" fill="#1f77b4"/>
<circle cx="309.4" cy="112.0" r="2" fill="#1f77b4"/>
<circle cx="346.0" cy="114.4" r="2" fill="#1f77b4"/>
<circle cx="379.4" cy="113.1" r="2" fill="#1f77b4"/>
<circle cx="416.0" cy="115.4" r="2" fill="#1f77b4"/>
<circle cx="449.4" cy="115.2" r="2" fill="#1f77b4"/>
<circle cx="486.0" cy="111.7" r="2" fill="#1f77b4"/>
<text x="381.0" y="55" text-anchor="middle" font-size="12" font-weight="bold">zdotc</text>
<line x1="276.0" y1="60" x2="276.0" y2="198" stroke="#f4f4f4"/>
<text x="276.0" y="209" text-anchor="middle" font-size="8" fill="#999">1000</text>
<line x1="309.4" y1="60" x2="309.4" y2="198" stroke="#f4f4f4"/>
<text x="309.4" y="209" text-anchor="middle" font-size="8" fill="#999">2k</text>
<line x1="346.0" y1="60" x2="346.0" y2="198" stroke="#f4f4f4"/>
<text x="346.0" y="209" text-anchor="middle" font-size="8" fill="#999">9k</text>
<line x1="379.4" y1="60" x2="379.4" y2="198" stroke="#f4f4f4"/>
<text x="379.4" y="209" text-anchor="middle" font-size="8" fill="#999">29k</text>
<line x1="416.0" y1="60" x2="416.0" y2="198" stroke="#f4f4f4"/>
<text x="416.0" y="209" text-anchor="middle" font-size="8" fill="#999">97k</text>
<line x1="449.4" y1="60" x2="449.4" y2="198" stroke="#f4f4f4"/>
<text x="449.4" y="209" text-anchor="middle" font-size="8" fill="#999">292k</text>
<line x1="486.0" y1="60" x2="486.0" y2="198" stroke="#f4f4f4"/>
<text x="486.0" y="209" text-anchor="middle" font-size="8" fill="#999">976k</text>
<rect x="506" y="60" width="210" height="138" fill="none" stroke="#e2e2e2"/>
<line x1="506" y1="142.00831376176365" x2="716" y2="142.00831376176365" stroke="#d33" stroke-dasharray="4 3"/>
<text x="502" y="201.0" text-anchor="end" font-size="9" fill="#999">0.5×</text>
<text x="502" y="145.00831376176365" text-anchor="end" font-size="9" fill="#999">1.0×</text>
<polygon points="506.0,66.2 539.4,82.1 576.0,82.1 609.4,82.8 646.0,102.1 679.4,102.6 716.0,103.3 716.0,112.8 679.4,108.6 646.0,107.6 609.4,96.3 576.0,82.5 539.4,82.7 506.0,66.9" fill="#d62728" opacity="0.11"/>
<polyline points="506.0,66.6 539.4,82.3 576.0,82.3 609.4,90.8 646.0,102.5 679.4,103.8 716.0,106.3" fill="none" stroke="#d62728" stroke-width="1.6"/>
<circle cx="506.0" cy="66.6" r="2" fill="#d62728"/>
<circle cx="539.4" cy="82.3" r="2" fill="#d62728"/>
<circle cx="576.0" cy="82.3" r="2" fill="#d62728"/>
<circle cx="609.4" cy="90.8" r="2" fill="#d62728"/>
<circle cx="646.0" cy="102.5" r="2" fill="#d62728"/>
<circle cx="679.4" cy="103.8" r="2" fill="#d62728"/>
<circle cx="716.0" cy="106.3" r="2" fill="#d62728"/>
<polygon points="506.0,88.8 539.4,94.2 576.0,119.5 609.4,119.1 646.0,139.1 679.4,141.0 716.0,132.9 716.0,150.3 679.4,143.4 646.0,141.2 609.4,119.5 576.0,119.9 539.4,97.5 506.0,91.0" fill="#2ca02c" opacity="0.11"/>
<polyline points="506.0,89.9 539.4,96.0 576.0,119.6 609.4,119.3 646.0,140.4 679.4,142.2 716.0,139.3" fill="none" stroke="#2ca02c" stroke-width="1.6"/>
<circle cx="506.0" cy="89.9" r="2" fill="#2ca02c"/>
<circle cx="539.4" cy="96.0" r="2" fill="#2ca02c"/>
<circle cx="576.0" cy="119.6" r="2" fill="#2ca02c"/>
<circle cx="609.4" cy="119.3" r="2" fill="#2ca02c"/>
<circle cx="646.0" cy="140.4" r="2" fill="#2ca02c"/>
<circle cx="679.4" cy="142.2" r="2" fill="#2ca02c"/>
<circle cx="716.0" cy="139.3" r="2" fill="#2ca02c"/>
<polygon points="506.0,133.6 539.4,134.5 576.0,134.5 609.4,134.3 646.0,144.1 679.4,144.8 716.0,140.1 716.0,146.0 679.4,148.9 646.0,146.0 609.4,134.5 576.0,134.7 539.4,134.7 506.0,134.0" fill="#1f77b4" opacity="0.11"/>
<polyline points="506.0,133.7 539.4,134.6 576.0,134.6 609.4,134.3 646.0,145.3 679.4,147.2 716.0,144.0" fill="none" stroke="#1f77b4" stroke-width="1.6"/>
<circle cx="506.0" cy="133.7" r="2" fill="#1f77b4"/>
<circle cx="539.4" cy="134.6" r="2" fill="#1f77b4"/>
<circle cx="576.0" cy="134.6" r="2" fill="#1f77b4"/>
<circle cx="609.4" cy="134.3" r="2" fill="#1f77b4"/>
<circle cx="646.0" cy="145.3" r="2" fill="#1f77b4"/>
<circle cx="679.4" cy="147.2" r="2" fill="#1f77b4"/>
<circle cx="716.0" cy="144.0" r="2" fill="#1f77b4"/>
<text x="611.0" y="55" text-anchor="middle" font-size="12" font-weight="bold">zscal</text>
<line x1="506.0" y1="60" x2="506.0" y2="198" stroke="#f4f4f4"/>
<text x="506.0" y="209" text-anchor="middle" font-size="8" fill="#999">1000</text>
<line x1="539.4" y1="60" x2="539.4" y2="198" stroke="#f4f4f4"/>
<text x="539.4" y="209" text-anchor="middle" font-size="8" fill="#999">2k</text>
<line x1="576.0" y1="60" x2="576.0" y2="198" stroke="#f4f4f4"/>
<text x="576.0" y="209" text-anchor="middle" font-size="8" fill="#999">9k</text>
<line x1="609.4" y1="60" x2="609.4" y2="198" stroke="#f4f4f4"/>
<text x="609.4" y="209" text-anchor="middle" font-size="8" fill="#999">29k</text>
<line x1="646.0" y1="60" x2="646.0" y2="198" stroke="#f4f4f4"/>
<text x="646.0" y="209" text-anchor="middle" font-size="8" fill="#999">97k</text>
<line x1="679.4" y1="60" x2="679.4" y2="198" stroke="#f4f4f4"/>
<text x="679.4" y="209" text-anchor="middle" font-size="8" fill="#999">292k</text>
<line x1="716.0" y1="60" x2="716.0" y2="198" stroke="#f4f4f4"/>
<text x="716.0" y="209" text-anchor="middle" font-size="8" fill="#999">976k</text>
<rect x="736" y="60" width="210" height="138" fill="none" stroke="#e2e2e2"/>
<line x1="736" y1="157.84645935860883" x2="946" y2="157.84645935860883" stroke="#d33" stroke-dasharray="4 3"/>
<text x="732" y="201.0" text-anchor="end" font-size="9" fill="#999">0.5×</text>
<text x="732" y="160.84645935860883" text-anchor="end" font-size="9" fill="#999">1.0×</text>
<text x="732" y="63.04734762000374" text-anchor="end" font-size="9" fill="#999">5.41×</text>
<polygon points="736.0,96.5 769.4,101.7 806.0,103.8 839.4,104.3 876.0,117.5 909.4,117.6 946.0,121.5 946.0,123.6 909.4,126.2 876.0,123.1 839.4,113.8 806.0,103.9 769.4,101.9 736.0,96.9" fill="#d62728" opacity="0.11"/>
<polyline points="736.0,96.7 769.4,101.7 806.0,103.8 839.4,109.3 876.0,118.3 909.4,118.8 946.0,122.4" fill="none" stroke="#d62728" stroke-width="1.6"/>
<circle cx="736.0" cy="96.7" r="2" fill="#d62728"/>
<circle cx="769.4" cy="101.7" r="2" fill="#d62728"/>
<circle cx="806.0" cy="103.8" r="2" fill="#d62728"/>
<circle cx="839.4" cy="109.3" r="2" fill="#d62728"/>
<circle cx="876.0" cy="118.3" r="2" fill="#d62728"/>
<circle cx="909.4" cy="118.8" r="2" fill="#d62728"/>
<circle cx="946.0" cy="122.4" r="2" fill="#d62728"/>
<polygon points="736.0,64.5 769.4,67.6 806.0,89.1 839.4,76.0 876.0,109.1 909.4,122.3 946.0,119.0 946.0,132.2 909.4,125.8 876.0,113.0 839.4,78.6 806.0,89.4 769.4,68.4 736.0,68.5" fill="#2ca02c" opacity="0.11"/>
<polyline points="736.0,66.1 769.4,67.9 806.0,89.3 839.4,77.3 876.0,111.8 909.4,124.6 946.0,128.2" fill="none" stroke="#2ca02c" stroke-width="1.6"/>
<circle cx="736.0" cy="66.1" r="2" fill="#2ca02c"/>
<circle cx="769.4" cy="67.9" r="2" fill="#2ca02c"/>
<circle cx="806.0" cy="89.3" r="2" fill="#2ca02c"/>
<circle cx="839.4" cy="77.3" r="2" fill="#2ca02c"/>
<circle cx="876.0" cy="111.8" r="2" fill="#2ca02c"/>
<circle cx="909.4" cy="124.6" r="2" fill="#2ca02c"/>
<circle cx="946.0" cy="128.2" r="2" fill="#2ca02c"/>
<polygon points="736.0,70.3 769.4,100.3 806.0,103.6 839.4,104.2 876.0,113.2 909.4,115.1 946.0,123.4 946.0,129.7 909.4,115.6 876.0,114.3 839.4,104.6 806.0,103.8 769.4,100.4 736.0,71.4" fill="#1f77b4" opacity="0.11"/>
<polyline points="736.0,70.9 769.4,100.3 806.0,103.7 839.4,104.4 876.0,113.8 909.4,115.2 946.0,128.2" fill="none" stroke="#1f77b4" stroke-width="1.6"/>
<circle cx="736.0" cy="70.9" r="2" fill="#1f77b4"/>
<circle cx="769.4" cy="100.3" r="2" fill="#1f77b4"/>
<circle cx="806.0" cy="103.7" r="2" fill="#1f77b4"/>
<circle cx="839.4" cy="104.4" r="2" fill="#1f77b4"/>
<circle cx="876.0" cy="113.8" r="2" fill="#1f77b4"/>
<circle cx="909.4" cy="115.2" r="2" fill="#1f77b4"/>
<circle cx="946.0" cy="128.2" r="2" fill="#1f77b4"/>
<text x="841.0" y="55" text-anchor="middle" font-size="12" font-weight="bold">dznrm2</text>
<line x1="736.0" y1="60" x2="736.0" y2="198" stroke="#f4f4f4"/>
<text x="736.0" y="209" text-anchor="middle" font-size="8" fill="#999">1000</text>
<line x1="769.4" y1="60" x2="769.4" y2="198" stroke="#f4f4f4"/>
<text x="769.4" y="209" text-anchor="middle" font-size="8" fill="#999">2k</text>
<line x1="806.0" y1="60" x2="806.0" y2="198" stroke="#f4f4f4"/>
<text x="806.0" y="209" text-anchor="middle" font-size="8" fill="#999">9k</text>
<line x1="839.4" y1="60" x2="839.4" y2="198" stroke="#f4f4f4"/>
<text x="839.4" y="209" text-anchor="middle" font-size="8" fill="#999">29k</text>
<line x1="876.0" y1="60" x2="876.0" y2="198" stroke="#f4f4f4"/>
<text x="876.0" y="209" text-anchor="middle" font-size="8" fill="#999">97k</text>
<line x1="909.4" y1="60" x2="909.4" y2="198" stroke="#f4f4f4"/>
<text x="909.4" y="209" text-anchor="middle" font-size="8" fill="#999">292k</text>
<line x1="946.0" y1="60" x2="946.0" y2="198" stroke="#f4f4f4"/>
<text x="946.0" y="209" text-anchor="middle" font-size="8" fill="#999">976k</text>
<rect x="46" y="232" width="210" height="138" fill="none" stroke="#e2e2e2"/>
<line x1="46" y1="345.6359994176726" x2="256" y2="345.6359994176726" stroke="#d33" stroke-dasharray="4 3"/>
<text x="42" y="373.0" text-anchor="end" font-size="9" fill="#999">0.5×</text>
<text x="42" y="348.6359994176726" text-anchor="end" font-size="9" fill="#999">1.0×</text>
<text x="42" y="235.0043998524342" text-anchor="end" font-size="9" fill="#999">25.35×</text>
<polygon points="46.0,249.7 79.4,259.0 116.0,258.5 149.4,258.9 186.0,266.3 219.4,266.7 256.0,270.8 256.0,272.4 219.4,272.6 186.0,270.0 149.4,265.2 116.0,258.6 79.4,259.1 46.0,250.1" fill="#d62728" opacity="0.11"/>
<polyline points="46.0,249.9 79.4,259.0 116.0,258.5 149.4,262.7 186.0,266.9 219.4,267.6 256.0,271.5" fill="none" stroke="#d62728" stroke-width="1.6"/>
<circle cx="46.0" cy="249.9" r="2" fill="#d62728"/>
<circle cx="79.4" cy="259.0" r="2" fill="#d62728"/>
<circle cx="116.0" cy="258.5" r="2" fill="#d62728"/>
<circle cx="149.4" cy="262.7" r="2" fill="#d62728"/>
<circle cx="186.0" cy="266.9" r="2" fill="#d62728"/>
<circle cx="219.4" cy="267.6" r="2" fill="#d62728"/>
<circle cx="256.0" cy="271.5" r="2" fill="#d62728"/>
<polygon points="46.0,235.7 79.4,234.7 116.0,245.9 149.4,237.9 186.0,259.1 219.4,266.5 256.0,272.8 256.0,277.2 219.4,268.9 186.0,261.4 149.4,239.7 116.0,246.2 79.4,235.4 46.0,236.1" fill="#2ca02c" opacity="0.11"/>
<polyline points="46.0,236.0 79.4,234.9 116.0,246.0 149.4,238.6 186.0,260.7 219.4,268.5 256.0,275.4" fill="none" stroke="#2ca02c" stroke-width="1.6"/>
<circle cx="46.0" cy="236.0" r="2" fill="#2ca02c"/>
<circle cx="79.4" cy="234.9" r="2" fill="#2ca02c"/>
<circle cx="116.0" cy="246.0" r="2" fill="#2ca02c"/>
<circle cx="149.4" cy="238.6" r="2" fill="#2ca02c"/>
<circle cx="186.0" cy="260.7" r="2" fill="#2ca02c"/>
<circle cx="219.4" cy="268.5" r="2" fill="#2ca02c"/>
<circle cx="256.0" cy="275.4" r="2" fill="#2ca02c"/>
<polygon points="46.0,241.1 79.4,258.2 116.0,258.4 149.4,258.4 186.0,264.0 219.4,265.1 256.0,273.5 256.0,274.0 219.4,265.8 186.0,264.9 149.4,258.6 116.0,258.5 79.4,258.4 46.0,242.0" fill="#1f77b4" opacity="0.11"/>
<polyline points="46.0,241.7 79.4,258.3 116.0,258.4 149.4,258.4 186.0,264.5 219.4,265.3 256.0,273.8" fill="none" stroke="#1f77b4" stroke-width="1.6"/>
<circle cx="46.0" cy="241.7" r="2" fill="#1f77b4"/>
<circle cx="79.4" cy="258.3" r="2" fill="#1f77b4"/>
<circle cx="116.0" cy="258.4" r="2" fill="#1f77b4"/>
<circle cx="149.4" cy="258.4" r="2" fill="#1f77b4"/>
<circle cx="186.0" cy="264.5" r="2" fill="#1f77b4"/>
<circle cx="219.4" cy="265.3" r="2" fill="#1f77b4"/>
<circle cx="256.0" cy="273.8" r="2" fill="#1f77b4"/>
<text x="151.0" y="227" text-anchor="middle" font-size="12" font-weight="bold">dzasum</text>
<line x1="46.0" y1="232" x2="46.0" y2="370" stroke="#f4f4f4"/>
<text x="46.0" y="381" text-anchor="middle" font-size="8" fill="#999">1000</text>
<line x1="79.4" y1="232" x2="79.4" y2="370" stroke="#f4f4f4"/>
<text x="79.4" y="381" text-anchor="middle" font-size="8" fill="#999">2k</text>
<line x1="116.0" y1="232" x2="116.0" y2="370" stroke="#f4f4f4"/>
<text x="116.0" y="381" text-anchor="middle" font-size="8" fill="#999">9k</text>
<line x1="149.4" y1="232" x2="149.4" y2="370" stroke="#f4f4f4"/>
<text x="149.4" y="381" text-anchor="middle" font-size="8" fill="#999">29k</text>
<line x1="186.0" y1="232" x2="186.0" y2="370" stroke="#f4f4f4"/>
<text x="186.0" y="381" text-anchor="middle" font-size="8" fill="#999">97k</text>
<line x1="219.4" y1="232" x2="219.4" y2="370" stroke="#f4f4f4"/>
<text x="219.4" y="381" text-anchor="middle" font-size="8" fill="#999">292k</text>
<line x1="256.0" y1="232" x2="256.0" y2="370" stroke="#f4f4f4"/>
<text x="256.0" y="381" text-anchor="middle" font-size="8" fill="#999">976k</text>
<rect x="276" y="232" width="210" height="138" fill="none" stroke="#e2e2e2"/>
<line x1="276" y1="287.7627611906553" x2="486" y2="287.7627611906553" stroke="#d33" stroke-dasharray="4 3"/>
<text x="272" y="373.0" text-anchor="end" font-size="9" fill="#999">0.5×</text>
<text x="272" y="290.7627611906553" text-anchor="end" font-size="9" fill="#999">1.0×</text>
<text x="272" y="235.0" text-anchor="end" font-size="9" fill="#999">1.6×</text>
<polygon points="276.0,253.0 309.4,282.0 346.0,283.1 379.4,286.4 416.0,286.4 449.4,285.6 486.0,281.7 486.0,289.8 449.4,290.0 416.0,289.1 379.4,287.6 346.0,286.2 309.4,282.7 276.0,254.4" fill="#d62728" opacity="0.11"/>
<polyline points="276.0,253.6 309.4,282.4 346.0,285.6 379.4,287.1 416.0,288.3 449.4,287.8 486.0,287.3" fill="none" stroke="#d62728" stroke-width="1.6"/>
<circle cx="276.0" cy="253.6" r="2" fill="#d62728"/>
<circle cx="309.4" cy="282.4" r="2" fill="#d62728"/>
<circle cx="346.0" cy="285.6" r="2" fill="#d62728"/>
<circle cx="379.4" cy="287.1" r="2" fill="#d62728"/>
<circle cx="416.0" cy="288.3" r="2" fill="#d62728"/>
<circle cx="449.4" cy="287.8" r="2" fill="#d62728"/>
<circle cx="486.0" cy="287.3" r="2" fill="#d62728"/>
<polygon points="276.0,281.9 309.4,281.1 346.0,276.4 379.4,272.8 416.0,286.2 449.4,285.8 486.0,283.8 486.0,295.0 449.4,290.6 416.0,288.2 379.4,293.7 346.0,284.1 309.4,282.7 276.0,282.5" fill="#2ca02c" opacity="0.11"/>
<polyline points="276.0,282.2 309.4,281.6 346.0,281.6 379.4,285.9 416.0,287.0 449.4,288.3 486.0,287.4" fill="none" stroke="#2ca02c" stroke-width="1.6"/>
<circle cx="276.0" cy="282.2" r="2" fill="#2ca02c"/>
<circle cx="309.4" cy="281.6" r="2" fill="#2ca02c"/>
<circle cx="346.0" cy="281.6" r="2" fill="#2ca02c"/>
<circle cx="379.4" cy="285.9" r="2" fill="#2ca02c"/>
<circle cx="416.0" cy="287.0" r="2" fill="#2ca02c"/>
<circle cx="449.4" cy="288.3" r="2" fill="#2ca02c"/>
<circle cx="486.0" cy="287.4" r="2" fill="#2ca02c"/>
<polygon points="276.0,284.4 309.4,283.9 346.0,286.3 379.4,283.4 416.0,286.9 449.4,286.2 486.0,282.7 486.0,289.0 449.4,287.6 416.0,287.7 379.4,288.5 346.0,286.5 309.4,284.0 276.0,285.8" fill="#1f77b4" opacity="0.11"/>
<polyline points="276.0,285.1 309.4,284.0 346.0,286.4 379.4,285.7 416.0,287.4 449.4,287.1 486.0,286.1" fill="none" stroke="#1f77b4" stroke-width="1.6"/>
<circle cx="276.0" cy="285.1" r="2" fill="#1f77b4"/>
<circle cx="309.4" cy="284.0" r="2" fill="#1f77b4"/>
<circle cx="346.0" cy="286.4" r="2" fill="#1f77b4"/>
<circle cx="379.4" cy="285.7" r="2" fill="#1f77b4"/>
<circle cx="416.0" cy="287.4" r="2" fill="#1f77b4"/>
<circle cx="449.4" cy="287.1" r="2" fill="#1f77b4"/>
<circle cx="486.0" cy="286.1" r="2" fill="#1f77b4"/>
<text x="381.0" y="227" text-anchor="middle" font-size="12" font-weight="bold">zdotu</text>
<line x1="276.0" y1="232" x2="276.0" y2="370" stroke="#f4f4f4"/>
<text x="276.0" y="381" text-anchor="middle" font-size="8" fill="#999">1000</text>
<line x1="309.4" y1="232" x2="309.4" y2="370" stroke="#f4f4f4"/>
<text x="309.4" y="381" text-anchor="middle" font-size="8" fill="#999">2k</text>
<line x1="346.0" y1="232" x2="346.0" y2="370" stroke="#f4f4f4"/>
<text x="346.0" y="381" text-anchor="middle" font-size="8" fill="#999">9k</text>
<line x1="379.4" y1="232" x2="379.4" y2="370" stroke="#f4f4f4"/>
<text x="379.4" y="381" text-anchor="middle" font-size="8" fill="#999">29k</text>
<line x1="416.0" y1="232" x2="416.0" y2="370" stroke="#f4f4f4"/>
<text x="416.0" y="381" text-anchor="middle" font-size="8" fill="#999">97k</text>
<line x1="449.4" y1="232" x2="449.4" y2="370" stroke="#f4f4f4"/>
<text x="449.4" y="381" text-anchor="middle" font-size="8" fill="#999">292k</text>
<line x1="486.0" y1="232" x2="486.0" y2="370" stroke="#f4f4f4"/>
<text x="486.0" y="381" text-anchor="middle" font-size="8" fill="#999">976k</text>
<rect x="506" y="232" width="210" height="138" fill="none" stroke="#e2e2e2"/>
<line x1="506" y1="339.0673000412469" x2="716" y2="339.0673000412469" stroke="#d33" stroke-dasharray="4 3"/>
<text x="502" y="373.0" text-anchor="end" font-size="9" fill="#999">0.5×</text>
<text x="502" y="342.0673000412469" text-anchor="end" font-size="9" fill="#999">1.0×</text>
<text x="502" y="235.01718868105587" text-anchor="end" font-size="9" fill="#999">11.01×</text>
<polygon points="506.0,265.7 539.4,265.8 576.0,265.7 609.4,266.3 646.0,266.4 679.4,266.7 716.0,267.6 716.0,268.7 679.4,267.1 646.0,267.0 609.4,267.2 576.0,266.0 539.4,266.1 506.0,266.7" fill="#d62728" opacity="0.11"/>
<polyline points="506.0,266.3 539.4,266.0 576.0,265.8 609.4,266.8 646.0,266.7 679.4,266.9 716.0,268.0" fill="none" stroke="#d62728" stroke-width="1.6"/>
<circle cx="506.0" cy="266.3" r="2" fill="#d62728"/>
<circle cx="539.4" cy="266.0" r="2" fill="#d62728"/>
<circle cx="576.0" cy="265.8" r="2" fill="#d62728"/>
<circle cx="609.4" cy="266.8" r="2" fill="#d62728"/>
<circle cx="646.0" cy="266.7" r="2" fill="#d62728"/>
<circle cx="679.4" cy="266.9" r="2" fill="#d62728"/>
<circle cx="716.0" cy="268.0" r="2" fill="#d62728"/>
<polygon points="506.0,237.8 539.4,236.0 576.0,235.4 609.4,236.2 646.0,236.9 679.4,237.6 716.0,242.6 716.0,248.1 679.4,238.7 646.0,237.5 609.4,236.6 576.0,236.4 539.4,237.1 506.0,239.2" fill="#2ca02c" opacity="0.11"/>
<polyline points="506.0,238.7 539.4,236.7 576.0,235.6 609.4,236.4 646.0,237.2 679.4,238.2 716.0,247.2" fill="none" stroke="#2ca02c" stroke-width="1.6"/>
<circle cx="506.0" cy="238.7" r="2" fill="#2ca02c"/>
<circle cx="539.4" cy="236.7" r="2" fill="#2ca02c"/>
<circle cx="576.0" cy="235.6" r="2" fill="#2ca02c"/>
<circle cx="609.4" cy="236.4" r="2" fill="#2ca02c"/>
<circle cx="646.0" cy="237.2" r="2" fill="#2ca02c"/>
<circle cx="679.4" cy="238.2" r="2" fill="#2ca02c"/>
<circle cx="716.0" cy="247.2" r="2" fill="#2ca02c"/>
<polygon points="506.0,246.6 539.4,244.8 576.0,243.5 609.4,243.5 646.0,244.5 679.4,244.6 716.0,245.8 716.0,246.2 679.4,245.1 646.0,244.9 609.4,245.7 576.0,245.4 539.4,246.7 506.0,248.1" fill="#1f77b4" opacity="0.11"/>
<polyline points="506.0,247.4 539.4,245.7 576.0,244.4 609.4,244.5 646.0,244.6 679.4,244.9 716.0,246.0" fill="none" stroke="#1f77b4" stroke-width="1.6"/>
<circle cx="506.0" cy="247.4" r="2" fill="#1f77b4"/>
<circle cx="539.4" cy="245.7" r="2" fill="#1f77b4"/>
<circle cx="576.0" cy="244.4" r="2" fill="#1f77b4"/>
<circle cx="609.4" cy="244.5" r="2" fill="#1f77b4"/>
<circle cx="646.0" cy="244.6" r="2" fill="#1f77b4"/>
<circle cx="679.4" cy="244.9" r="2" fill="#1f77b4"/>
<circle cx="716.0" cy="246.0" r="2" fill="#1f77b4"/>
<text x="611.0" y="227" text-anchor="middle" font-size="12" font-weight="bold">izamax</text>
<line x1="506.0" y1="232" x2="506.0" y2="370" stroke="#f4f4f4"/>
<text x="506.0" y="381" text-anchor="middle" font-size="8" fill="#999">1000</text>
<line x1="539.4" y1="232" x2="539.4" y2="370" stroke="#f4f4f4"/>
<text x="539.4" y="381" text-anchor="middle" font-size="8" fill="#999">2k</text>
<line x1="576.0" y1="232" x2="576.0" y2="370" stroke="#f4f4f4"/>
<text x="576.0" y="381" text-anchor="middle" font-size="8" fill="#999">9k</text>
<line x1="609.4" y1="232" x2="609.4" y2="370" stroke="#f4f4f4"/>
<text x="609.4" y="381" text-anchor="middle" font-size="8" fill="#999">29k</text>
<line x1="646.0" y1="232" x2="646.0" y2="370" stroke="#f4f4f4"/>
<text x="646.0" y="381" text-anchor="middle" font-size="8" fill="#999">97k</text>
<line x1="679.4" y1="232" x2="679.4" y2="370" stroke="#f4f4f4"/>
<text x="679.4" y="381" text-anchor="middle" font-size="8" fill="#999">292k</text>
<line x1="716.0" y1="232" x2="716.0" y2="370" stroke="#f4f4f4"/>
<text x="716.0" y="381" text-anchor="middle" font-size="8" fill="#999">976k</text>
</svg>
