<svg xmlns="http://www.w3.org/2000/svg" width="900" height="440" font-family="sans-serif">
<rect width="900" height="440" fill="white"/>
<text x="450.0" y="28" text-anchor="middle" font-size="18" font-weight="bold">Complex BLAS-1: PureBLAS / OpenBLAS (AVX-512, 1 thread, ComplexF64)</text>
<line x1="60" y1="358.0" x2="880" y2="358.0" stroke="#eee"/>
<text x="52" y="362.0" text-anchor="end" font-size="11" fill="#666">0×</text>
<line x1="60" y1="346.54552243703955" x2="880" y2="346.54552243703955" stroke="#eee"/>
<text x="52" y="350.54552243703955" text-anchor="end" font-size="11" fill="#666">0.5×</text>
<line x1="60" y1="335.09104487407916" x2="880" y2="335.09104487407916" stroke="#eee"/>
<text x="52" y="339.09104487407916" text-anchor="end" font-size="11" fill="#666">1×</text>
<line x1="60" y1="323.6365673111187" x2="880" y2="323.6365673111187" stroke="#eee"/>
<text x="52" y="327.6365673111187" text-anchor="end" font-size="11" fill="#666">1.5×</text>
<line x1="60" y1="335.09104487407916" x2="880" y2="335.09104487407916" stroke="#888" stroke-width="1"/>
<line x1="60" y1="336.00740307911593" x2="880" y2="336.00740307911593" stroke="#d33" stroke-width="1.5" stroke-dasharray="6 4"/>
<text x="880" y="331.00740307911593" text-anchor="end" font-size="11" fill="#d33">0.96× gate</text>
<polygon points="118.6,343.7 118.6,343.5 118.6,343.3 118.7,343.1 118.7,342.9 118.8,342.6 118.9,342.4 119.0,342.2 119.0,342.0 119.0,341.8 119.0,341.6 118.9,341.4 118.9,341.2 118.8,341.0 118.8,340.8 118.8,340.6 118.8,340.4 118.9,340.2 118.8,340.0 118.8,339.8 118.7,339.6 118.7,339.4 118.6,339.2 118.6,339.0 118.6,338.8 118.7,338.6 118.8,338.3 118.8,338.1 119.0,337.9 119.2,337.7 119.6,337.5 120.4,337.3 122.0,337.1 124.6,336.9 128.6,336.7 134.0,336.5 140.5,336.3 147.3,336.1 153.7,335.9 159.1,335.7 163.3,335.5 166.3,335.3 167.8,335.1 167.0,334.9 163.2,334.7 156.2,334.5 147.3,334.3 138.2,334.1 130.5,333.8 125.2,333.6 122.1,333.4 120.7,333.2 120.4,333.0 120.9,332.8 121.9,332.6 123.1,332.4 124.4,332.2 125.4,332.0 126.0,331.8 126.1,331.6 126.0,331.4 125.8,331.2 125.5,331.0 124.9,330.8 124.0,330.6 122.7,330.4 121.4,330.2 120.3,330.0 119.5,329.8 119.0,329.5 118.7,329.3 118.6,329.1 118.5,329.1 118.4,329.3 118.2,329.5 117.7,329.8 116.9,330.0 115.7,330.2 114.4,330.4 113.2,330.6 112.2,330.8 111.7,331.0 111.3,331.2 111.1,331.4 111.0,331.6 111.2,331.8 111.7,332.0 112.7,332.2 114.0,332.4 115.3,332.6 116.2,332.8 116.7,333.0 116.4,333.2 115.1,333.4 112.0,333.6 106.6,333.8 99.0,334.1 89.8,334.3 80.9,334.5 74.0,334.7 70.1,334.9 69.4,335.1 70.9,335.3 73.9,335.5 78.1,335.7 83.5,335.9 89.9,336.1 96.7,336.3 103.1,336.5 108.5,336.7 112.5,336.9 115.2,337.1 116.7,337.3 117.5,337.5 117.9,337.7 118.2,337.9 118.3,338.1 118.4,338.3 118.5,338.6 118.5,338.8 118.5,339.0 118.5,339.2 118.5,339.4 118.4,339.6 118.3,339.8 118.3,340.0 118.3,340.2 118.3,340.4 118.3,340.6 118.3,340.8 118.3,341.0 118.3,341.2 118.2,341.4 118.2,341.6 118.1,341.8 118.1,342.0 118.2,342.2 118.3,342.4 118.3,342.6 118.4,342.9 118.5,343.1 118.5,343.3 118.6,343.5 118.6,343.7" fill="#2a8" opacity="0.5" stroke="#2a8" stroke-width="1"/>
<line x1="69.4" y1="334.96932646030587" x2="167.7" y2="334.96932646030587" stroke="#114" stroke-width="2"/>
<circle cx="118.57142857142857" cy="335.97537355608836" r="2.4" fill="#114"/>
<text x="118.57142857142857" y="324.581365414882" text-anchor="middle" font-size="11">1.01</text>
<text x="118.57142857142857" y="376" text-anchor="middle" font-size="12">zaxpy</text>
<polygon points="242.6,335.9 244.9,335.8 247.7,335.7 250.9,335.6 254.6,335.5 258.6,335.4 262.8,335.3 267.1,335.2 271.2,335.1 275.0,335.0 278.4,334.9 281.1,334.9 283.1,334.8 284.4,334.7 284.9,334.6 284.7,334.5 284.0,334.4 282.7,334.3 281.1,334.2 279.3,334.1 277.4,334.0 275.4,333.9 273.3,333.8 271.3,333.7 269.2,333.6 267.2,333.5 265.1,333.4 263.1,333.3 261.1,333.2 259.1,333.1 257.3,333.0 255.6,332.9 254.1,332.8 253.0,332.7 252.1,332.6 251.6,332.5 251.5,332.4 251.8,332.3 252.5,332.2 253.5,332.2 254.9,332.1 256.6,332.0 258.6,331.9 260.8,331.8 263.3,331.7 265.8,331.6 268.4,331.5 271.0,331.4 273.3,331.3 275.4,331.2 277.1,331.1 278.3,331.0 278.8,330.9 278.7,330.8 277.8,330.7 276.3,330.6 274.1,330.5 271.4,330.4 268.3,330.3 264.9,330.2 261.4,330.1 257.8,330.0 254.4,329.9 251.2,329.8 248.3,329.7 245.8,329.6 243.6,329.5 241.7,329.5 240.2,329.4 239.0,329.3 238.1,329.2 237.4,329.1 234.0,329.1 233.3,329.2 232.4,329.3 231.2,329.4 229.7,329.5 227.9,329.5 225.7,329.6 223.1,329.7 220.2,329.8 217.0,329.9 213.6,330.0 210.0,330.1 206.5,330.2 203.1,330.3 200.0,330.4 197.3,330.5 195.1,330.6 193.6,330.7 192.8,330.8 192.6,330.9 193.2,331.0 194.3,331.1 196.0,331.2 198.1,331.3 200.5,331.4 203.0,331.5 205.6,331.6 208.2,331.7 210.6,331.8 212.8,331.9 214.8,332.0 216.5,332.1 217.9,332.2 219.0,332.2 219.6,332.3 219.9,332.4 219.8,332.5 219.3,332.6 218.5,332.7 217.3,332.8 215.8,332.9 214.2,333.0 212.3,333.1 210.4,333.2 208.3,333.3 206.3,333.4 204.2,333.5 202.2,333.6 200.2,333.7 198.1,333.8 196.1,333.9 194.1,334.0 192.1,334.1 190.3,334.2 188.7,334.3 187.5,334.4 186.7,334.5 186.5,334.6 187.0,334.7 188.3,334.8 190.3,334.9 193.0,334.9 196.4,335.0 200.2,335.1 204.4,335.2 208.6,335.3 212.9,335.4 216.9,335.5 220.5,335.6 223.8,335.7 226.6,335.8 228.9,335.9" fill="#2a8" opacity="0.5" stroke="#2a8" stroke-width="1"/>
<line x1="208.4" y1="333.3067083499856" x2="263.1" y2="333.3067083499856" stroke="#114" stroke-width="2"/>
<circle cx="235.71428571428572" cy="334.8881147771533" r="2.4" fill="#114"/>
<text x="235.71428571428572" y="323.76401892164773" text-anchor="middle" font-size="11">1.08</text>
<text x="235.71428571428572" y="376" text-anchor="middle" font-size="12">zdotc</text>
<polygon points="352.9,342.8 352.9,342.6 352.9,342.4 352.9,342.1 352.9,341.9 352.9,341.7 353.0,341.5 353.1,341.3 353.1,341.1 352.9,340.9 352.9,340.7 352.9,340.5 352.9,340.3 352.9,340.1 352.9,339.9 352.9,339.7 352.9,339.5 352.9,339.3 352.9,339.1 352.9,338.9 353.0,338.7 353.2,338.5 353.3,338.3 353.3,338.1 353.2,337.9 353.3,337.7 353.6,337.5 354.1,337.3 354.6,337.1 355.4,336.9 356.1,336.6 356.4,336.4 356.8,336.2 358.3,336.0 362.9,335.8 373.2,335.6 388.6,335.4 401.4,335.2 402.1,335.0 391.1,334.8 376.9,334.6 365.6,334.4 358.9,334.2 356.2,334.0 355.4,333.8 354.9,333.6 354.4,333.4 353.9,333.2 353.4,333.0 353.2,332.8 353.3,332.6 353.3,332.4 353.3,332.2 353.2,332.0 353.2,331.8 353.1,331.6 353.0,331.4 352.9,331.2 352.9,330.9 352.9,330.7 352.9,330.5 352.9,330.3 352.9,330.1 353.1,329.9 353.1,329.7 353.0,329.5 352.9,329.3 352.9,329.1 352.9,328.9 352.9,328.7 352.9,328.5 352.9,328.3 352.9,328.3 352.9,328.5 352.9,328.7 352.9,328.9 352.8,329.1 352.8,329.3 352.7,329.5 352.6,329.7 352.7,329.9 352.8,330.1 352.8,330.3 352.9,330.5 352.9,330.7 352.9,330.9 352.8,331.2 352.7,331.4 352.6,331.6 352.5,331.8 352.5,332.0 352.4,332.2 352.4,332.4 352.5,332.6 352.5,332.8 352.3,333.0 351.9,333.2 351.3,333.4 350.8,333.6 350.4,333.8 349.5,334.0 346.8,334.2 340.2,334.4 328.8,334.6 314.6,334.8 303.7,335.0 304.4,335.2 317.2,335.4 332.5,335.6 342.8,335.8 347.4,336.0 348.9,336.2 349.3,336.4 349.6,336.6 350.3,336.9 351.1,337.1 351.6,337.3 352.1,337.5 352.4,337.7 352.5,337.9 352.4,338.1 352.4,338.3 352.6,338.5 352.7,338.7 352.8,338.9 352.9,339.1 352.9,339.3 352.9,339.5 352.9,339.7 352.9,339.9 352.9,340.1 352.9,340.3 352.9,340.5 352.8,340.7 352.8,340.9 352.7,341.1 352.6,341.3 352.7,341.5 352.8,341.7 352.8,341.9 352.9,342.1 352.9,342.4 352.9,342.6 352.9,342.8" fill="#2a8" opacity="0.5" stroke="#2a8" stroke-width="1"/>
<line x1="302.2" y1="335.12361784397166" x2="403.5" y2="335.12361784397166" stroke="#114" stroke-width="2"/>
<circle cx="352.85714285714283" cy="335.26966505799976" r="2.4" fill="#114"/>
<text x="352.85714285714283" y="323.73750903079684" text-anchor="middle" font-size="11">1.00</text>
<text x="352.85714285714283" y="376" text-anchor="middle" font-size="12">zscal</text>
<polygon points="476.1,294.9 478.3,291.4 480.9,288.0 484.0,284.6 487.5,281.1 491.3,277.7 495.2,274.2 499.1,270.8 502.8,267.3 506.0,263.9 508.6,260.4 510.5,257.0 511.6,253.5 511.8,250.1 511.3,246.6 510.1,243.2 508.3,239.7 506.2,236.3 504.0,232.8 501.9,229.4 500.1,225.9 498.9,222.5 498.4,219.0 498.7,215.6 499.8,212.1 501.8,208.7 504.5,205.2 507.6,201.8 510.9,198.3 514.1,194.9 516.7,191.4 518.5,188.0 519.2,184.5 518.6,181.1 516.8,177.6 513.8,174.2 509.9,170.7 505.2,167.3 500.3,163.8 495.3,160.4 490.5,156.9 486.2,153.5 482.4,150.0 479.3,146.6 476.9,143.1 475.0,139.7 473.7,136.2 472.9,132.8 472.4,129.3 472.1,125.9 472.2,122.4 472.5,119.0 472.9,115.5 473.6,112.1 474.5,108.6 475.6,105.2 476.9,101.7 478.3,98.3 479.9,94.8 481.4,91.4 482.8,87.9 484.0,84.5 484.9,81.0 485.5,77.6 485.5,74.1 485.2,70.7 484.4,67.2 483.2,63.8 481.8,60.3 480.2,56.9 478.6,53.4 477.0,50.0 463.0,50.0 461.4,53.4 459.8,56.9 458.2,60.3 456.8,63.8 455.6,67.2 454.8,70.7 454.5,74.1 454.5,77.6 455.1,81.0 456.0,84.5 457.2,87.9 458.6,91.4 460.1,94.8 461.7,98.3 463.1,101.7 464.4,105.2 465.5,108.6 466.4,112.1 467.1,115.5 467.5,119.0 467.8,122.4 467.9,125.9 467.6,129.3 467.1,132.8 466.3,136.2 465.0,139.7 463.1,143.1 460.7,146.6 457.6,150.0 453.8,153.5 449.5,156.9 444.7,160.4 439.7,163.8 434.8,167.3 430.1,170.7 426.2,174.2 423.2,177.6 421.4,181.1 420.8,184.5 421.5,188.0 423.3,191.4 425.9,194.9 429.1,198.3 432.4,201.8 435.5,205.2 438.2,208.7 440.2,212.1 441.3,215.6 441.6,219.0 441.1,222.5 439.9,225.9 438.1,229.4 436.0,232.8 433.8,236.3 431.7,239.7 429.9,243.2 428.7,246.6 428.2,250.1 428.4,253.5 429.5,257.0 431.4,260.4 434.0,263.9 437.2,267.3 440.9,270.8 444.8,274.2 448.7,277.7 452.5,281.1 456.0,284.6 459.1,288.0 461.7,291.4 463.9,294.9" fill="#2a8" opacity="0.5" stroke="#2a8" stroke-width="1"/>
<line x1="421.3" y1="187.56799328996658" x2="518.7" y2="187.56799328996658" stroke="#114" stroke-width="2"/>
<circle cx="470.0" cy="261.3063776824225" r="2.4" fill="#114"/>
<text x="470.0" y="61.433962264150935" text-anchor="middle" font-size="11">7.44</text>
<text x="470.0" y="376" text-anchor="middle" font-size="12">dznrm2</text>
<polygon points="587.2,336.6 587.2,336.6 587.2,336.5 587.3,336.5 587.4,336.4 587.6,336.4 587.9,336.3 588.2,336.3 588.8,336.2 589.5,336.2 590.5,336.1 592.0,336.1 594.0,336.0 596.6,336.0 599.9,335.9 603.7,335.8 607.7,335.8 611.9,335.7 615.8,335.7 619.5,335.6 622.7,335.6 625.2,335.5 626.7,335.5 627.3,335.4 627.3,335.4 627.3,335.3 627.9,335.3 629.6,335.2 632.1,335.2 634.7,335.1 636.3,335.1 636.2,335.0 633.9,334.9 629.8,334.9 624.9,334.8 619.9,334.8 615.6,334.7 612.0,334.7 609.0,334.6 606.3,334.6 604.0,334.5 601.9,334.5 600.0,334.4 598.1,334.4 596.3,334.3 594.4,334.3 592.6,334.2 590.9,334.1 589.6,334.1 588.6,334.0 588.0,334.0 587.8,333.9 587.8,333.9 587.9,333.8 588.2,333.8 588.4,333.7 588.5,333.7 588.4,333.6 588.2,333.6 588.0,333.5 587.8,333.5 587.7,333.4 587.7,333.4 587.6,333.3 587.6,333.2 587.5,333.2 587.4,333.1 587.3,333.1 587.3,333.0 587.2,333.0 587.2,332.9 587.2,332.9 587.1,332.9 587.1,332.9 587.1,333.0 587.0,333.0 587.0,333.1 586.9,333.1 586.8,333.2 586.7,333.2 586.6,333.3 586.6,333.4 586.6,333.4 586.5,333.5 586.3,333.5 586.1,333.6 585.9,333.6 585.8,333.7 585.9,333.7 586.1,333.8 586.3,333.8 586.5,333.9 586.5,333.9 586.2,334.0 585.7,334.0 584.7,334.1 583.4,334.1 581.7,334.2 579.9,334.3 578.0,334.3 576.2,334.4 574.3,334.4 572.4,334.5 570.3,334.5 568.0,334.6 565.3,334.6 562.3,334.7 558.7,334.7 554.3,334.8 549.4,334.8 544.5,334.9 540.4,334.9 538.1,335.0 537.9,335.1 539.6,335.1 542.2,335.2 544.7,335.2 546.3,335.3 547.0,335.3 547.0,335.4 547.0,335.4 547.6,335.5 549.1,335.5 551.5,335.6 554.8,335.6 558.5,335.7 562.4,335.7 566.5,335.8 570.6,335.8 574.4,335.9 577.7,336.0 580.3,336.0 582.3,336.1 583.7,336.1 584.8,336.2 585.5,336.2 586.0,336.3 586.4,336.3 586.7,336.4 586.9,336.4 587.0,336.5 587.1,336.5 587.1,336.6 587.1,336.6" fill="#2a8" opacity="0.5" stroke="#2a8" stroke-width="1"/>
<line x1="540.3" y1="335.11976218093065" x2="634.0" y2="335.11976218093065" stroke="#114" stroke-width="2"/>
<circle cx="587.1428571428571" cy="335.4812948014199" r="2.4" fill="#114"/>
<text x="587.1428571428571" y="327.2772598715597" text-anchor="middle" font-size="11">1.00</text>
<text x="587.1428571428571" y="376" text-anchor="middle" font-size="12">dzasum</text>
<polygon points="706.4,336.3 707.5,336.2 709.0,336.1 711.1,336.0 713.7,335.9 716.9,335.7 720.8,335.6 725.2,335.5 730.0,335.4 735.0,335.3 739.9,335.2 744.4,335.1 748.2,335.0 751.0,334.9 752.8,334.8 753.5,334.7 753.1,334.5 752.0,334.4 750.3,334.3 748.5,334.2 746.7,334.1 745.1,334.0 744.0,333.9 743.2,333.8 742.8,333.7 742.5,333.6 742.1,333.5 741.5,333.4 740.6,333.2 739.3,333.1 737.6,333.0 735.8,332.9 733.9,332.8 732.3,332.7 731.1,332.6 730.5,332.5 730.7,332.4 731.7,332.3 733.4,332.2 735.7,332.0 738.4,331.9 741.3,331.8 743.9,331.7 746.2,331.6 747.8,331.5 748.6,331.4 748.6,331.3 747.7,331.2 746.1,331.1 743.9,331.0 741.3,330.9 738.4,330.7 735.4,330.6 732.5,330.5 729.7,330.4 727.1,330.3 724.8,330.2 722.8,330.1 721.0,330.0 719.4,329.9 717.9,329.8 716.6,329.7 715.3,329.5 714.0,329.4 712.8,329.3 711.6,329.2 710.4,329.1 709.3,329.0 708.3,328.9 707.4,328.8 706.6,328.7 706.0,328.6 702.6,328.6 702.0,328.7 701.2,328.8 700.3,328.9 699.3,329.0 698.2,329.1 697.0,329.2 695.8,329.3 694.5,329.4 693.3,329.5 692.0,329.7 690.6,329.8 689.2,329.9 687.6,330.0 685.8,330.1 683.8,330.2 681.5,330.3 678.9,330.4 676.1,330.5 673.2,330.6 670.2,330.7 667.3,330.9 664.6,331.0 662.4,331.1 660.9,331.2 660.0,331.3 660.0,331.4 660.8,331.5 662.4,331.6 664.6,331.7 667.3,331.8 670.1,331.9 672.8,332.0 675.1,332.2 676.9,332.3 677.9,332.4 678.1,332.5 677.5,332.6 676.3,332.7 674.7,332.8 672.8,332.9 671.0,333.0 669.3,333.1 668.0,333.2 667.1,333.4 666.5,333.5 666.1,333.6 665.8,333.7 665.3,333.8 664.6,333.9 663.4,334.0 661.9,334.1 660.1,334.2 658.2,334.3 656.6,334.4 655.4,334.5 655.1,334.7 655.8,334.8 657.5,334.9 660.4,335.0 664.2,335.1 668.7,335.2 673.6,335.3 678.6,335.4 683.4,335.5 687.8,335.6 691.7,335.7 694.9,335.9 697.5,336.0 699.5,336.1 701.1,336.2 702.2,336.3" fill="#2a8" opacity="0.5" stroke="#2a8" stroke-width="1"/>
<line x1="668.8" y1="333.1780906072684" x2="739.8" y2="333.1780906072684" stroke="#114" stroke-width="2"/>
<circle cx="704.2857142857142" cy="334.9169305161079" r="2.4" fill="#114"/>
<text x="704.2857142857142" y="323.3516996440764" text-anchor="middle" font-size="11">1.08</text>
<text x="704.2857142857142" y="376" text-anchor="middle" font-size="12">zdotu</text>
<polygon points="823.2,336.6 824.1,336.2 825.3,335.7 826.8,335.3 828.6,334.9 830.8,334.4 833.2,334.0 835.7,333.6 838.4,333.1 841.0,332.7 843.4,332.2 845.6,331.8 847.6,331.4 849.2,330.9 850.6,330.5 851.8,330.1 852.7,329.6 853.4,329.2 854.0,328.8 854.5,328.3 854.9,327.9 855.4,327.5 855.9,327.0 856.4,326.6 857.0,326.1 857.7,325.7 858.5,325.3 859.3,324.8 860.2,324.4 861.0,324.0 861.8,323.5 862.5,323.1 863.2,322.7 863.8,322.2 864.3,321.8 864.7,321.4 865.1,320.9 865.5,320.5 866.0,320.1 866.5,319.6 867.1,319.2 867.8,318.7 868.5,318.3 869.3,317.9 869.9,317.4 870.4,317.0 870.6,316.6 870.5,316.1 870.0,315.7 869.0,315.3 867.5,314.8 865.5,314.4 863.0,314.0 860.0,313.5 856.8,313.1 853.3,312.7 849.7,312.2 846.1,311.8 842.6,311.3 839.3,310.9 836.3,310.5 833.6,310.0 831.3,309.6 829.2,309.2 827.5,308.7 826.1,308.3 824.9,307.9 824.0,307.4 823.3,307.0 822.7,306.6 822.3,306.1 822.0,305.7 820.8,305.7 820.6,306.1 820.1,306.6 819.6,307.0 818.9,307.4 817.9,307.9 816.8,308.3 815.3,308.7 813.6,309.2 811.6,309.6 809.2,310.0 806.5,310.5 803.5,310.9 800.3,311.3 796.8,311.8 793.2,312.2 789.6,312.7 786.1,313.1 782.8,313.5 779.9,314.0 777.4,314.4 775.4,314.8 773.9,315.3 772.9,315.7 772.3,316.1 772.2,316.6 772.5,317.0 772.9,317.4 773.6,317.9 774.3,318.3 775.1,318.7 775.7,319.2 776.4,319.6 776.9,320.1 777.3,320.5 777.8,320.9 778.2,321.4 778.6,321.8 779.1,322.2 779.7,322.7 780.3,323.1 781.1,323.5 781.9,324.0 782.7,324.4 783.5,324.8 784.4,325.3 785.1,325.7 785.8,326.1 786.5,326.6 787.0,327.0 787.5,327.5 787.9,327.9 788.4,328.3 788.9,328.8 789.5,329.2 790.2,329.6 791.1,330.1 792.2,330.5 793.6,330.9 795.3,331.4 797.2,331.8 799.5,332.2 801.9,332.7 804.5,333.1 807.1,333.6 809.7,334.0 812.1,334.4 814.2,334.9 816.0,335.3 817.6,335.7 818.7,336.2 819.6,336.6" fill="#2a8" opacity="0.5" stroke="#2a8" stroke-width="1"/>
<line x1="777.7" y1="320.8770629435573" x2="865.2" y2="320.8770629435573" stroke="#114" stroke-width="2"/>
<circle cx="821.4285714285714" cy="323.12311391807657" r="2.4" fill="#114"/>
<text x="821.4285714285714" y="302.71818475044284" text-anchor="middle" font-size="11">1.62</text>
<text x="821.4285714285714" y="376" text-anchor="middle" font-size="12">izamax</text>
<text x="450.0" y="428" text-anchor="middle" font-size="11" fill="#666">violin = ratio distribution over sizes · line = median · dark dot = worst size · green = every size ≥ gate</text>
</svg>
