<svg xmlns="http://www.w3.org/2000/svg" width="962" height="592" font-family="sans-serif">
<rect width="962" height="592" fill="white"/>
<text x="481.0" y="26" text-anchor="middle" font-size="17" font-weight="bold">Complex BLAS-3 — PureBLAS / AOCL (PB/AOCL ratio)</text>
<line x1="46" y1="42" x2="68" y2="42" stroke="#888888" stroke-width="3"/>
<text x="73" y="46" font-size="12">AVX2</text>
<line x1="127" y1="42" x2="149" y2="42" stroke="#888888" stroke-width="3"/>
<text x="154" y="46" font-size="12">Zen5</text>
<line x1="208" y1="42" x2="230" y2="42" stroke="#888888" stroke-width="3"/>
<text x="235" y="46" font-size="12">AVX-512</text>
<rect x="46" y="60" width="210" height="138" fill="none" stroke="#e2e2e2"/>
<line x1="46" y1="140.6469519534914" x2="256" y2="140.6469519534914" stroke="#d33" stroke-dasharray="4 3"/>
<text x="42" y="201.0" text-anchor="end" font-size="9" fill="#999">0.5×</text>
<text x="42" y="143.6469519534914" text-anchor="end" font-size="9" fill="#999">1.0×</text>
<text x="42" y="63.00900459597909" text-anchor="end" font-size="9" fill="#999">2.65×</text>
<polygon points="46.0,71.6 106.0,151.1 166.0,125.3 196.0,121.4 226.0,120.5 256.0,121.2 256.0,121.5 226.0,120.7 196.0,121.9 166.0,125.5 106.0,154.1 46.0,86.9" fill="#888888" opacity="0.11"/>
<polyline points="46.0,73.9 106.0,151.7 166.0,125.3 196.0,121.8 226.0,120.5 256.0,121.3" fill="none" stroke="#888888" stroke-width="1.6"/>
<circle cx="46.0" cy="73.9" r="2" fill="#888888"/>
<circle cx="106.0" cy="151.7" r="2" fill="#888888"/>
<circle cx="166.0" cy="125.3" r="2" fill="#888888"/>
<circle cx="196.0" cy="121.8" r="2" fill="#888888"/>
<circle cx="226.0" cy="120.5" r="2" fill="#888888"/>
<circle cx="256.0" cy="121.3" r="2" fill="#888888"/>
<polygon points="46.0,66.4 106.0,132.0 166.0,144.3 196.0,138.7 226.0,140.9 256.0,140.1 256.0,140.4 226.0,141.1 196.0,139.4 166.0,144.8 106.0,140.3 46.0,75.2" fill="#888888" opacity="0.11"/>
<polyline points="46.0,68.1 106.0,138.6 166.0,144.4 196.0,139.2 226.0,141.0 256.0,140.2" fill="none" stroke="#888888" stroke-width="1.6"/>
<circle cx="46.0" cy="68.1" r="2" fill="#888888"/>
<circle cx="106.0" cy="138.6" r="2" fill="#888888"/>
<circle cx="166.0" cy="144.4" r="2" fill="#888888"/>
<circle cx="196.0" cy="139.2" r="2" fill="#888888"/>
<circle cx="226.0" cy="141.0" r="2" fill="#888888"/>
<circle cx="256.0" cy="140.2" r="2" fill="#888888"/>
<polygon points="46.0,69.6 106.0,135.3 166.0,142.6 196.0,138.9 226.0,140.2 256.0,140.4 256.0,140.6 226.0,140.4 196.0,139.0 166.0,143.2 106.0,142.5 46.0,86.7" fill="#888888" opacity="0.11"/>
<polyline points="46.0,86.4 106.0,137.8 166.0,143.0 196.0,138.9 226.0,140.4 256.0,140.6" fill="none" stroke="#888888" stroke-width="1.6"/>
<circle cx="46.0" cy="86.4" r="2" fill="#888888"/>
<circle cx="106.0" cy="137.8" r="2" fill="#888888"/>
<circle cx="166.0" cy="143.0" r="2" fill="#888888"/>
<circle cx="196.0" cy="138.9" r="2" fill="#888888"/>
<circle cx="226.0" cy="140.4" r="2" fill="#888888"/>
<circle cx="256.0" cy="140.6" r="2" fill="#888888"/>
<text x="151.0" y="55" text-anchor="middle" font-size="12" font-weight="bold">zgemm</text>
<line x1="46.0" y1="60" x2="46.0" y2="198" stroke="#f4f4f4"/>
<text x="46.0" y="209" text-anchor="middle" font-size="8" fill="#999">8</text>
<line x1="106.0" y1="60" x2="106.0" y2="198" stroke="#f4f4f4"/>
<text x="106.0" y="209" text-anchor="middle" font-size="8" fill="#999">32</text>
<line x1="166.0" y1="60" x2="166.0" y2="198" stroke="#f4f4f4"/>
<text x="166.0" y="209" text-anchor="middle" font-size="8" fill="#999">128</text>
<line x1="196.0" y1="60" x2="196.0" y2="198" stroke="#f4f4f4"/>
<text x="196.0" y="209" text-anchor="middle" font-size="8" fill="#999">256</text>
<line x1="226.0" y1="60" x2="226.0" y2="198" stroke="#f4f4f4"/>
<text x="226.0" y="209" text-anchor="middle" font-size="8" fill="#999">512</text>
<line x1="256.0" y1="60" x2="256.0" y2="198" stroke="#f4f4f4"/>
<text x="256.0" y="209" text-anchor="middle" font-size="8" fill="#999">1k</text>
<rect x="276" y="60" width="210" height="138" fill="none" stroke="#e2e2e2"/>
<line x1="276" y1="170.04361234862972" x2="486" y2="170.04361234862972" stroke="#d33" stroke-dasharray="4 3"/>
<text x="272" y="201.0" text-anchor="end" font-size="9" fill="#999">0.5×</text>
<text x="272" y="173.04361234862972" text-anchor="end" font-size="9" fill="#999">1.0×</text>
<polygon points="276.0,63.1 336.0,153.5 396.0,159.3 426.0,161.0 456.0,155.1 486.0,160.7 486.0,161.0 456.0,160.9 426.0,161.1 396.0,159.7 336.0,154.3 276.0,65.5" fill="#888888" opacity="0.11"/>
<polyline points="276.0,63.5 336.0,153.9 396.0,159.7 426.0,161.0 456.0,160.9 486.0,160.9" fill="none" stroke="#888888" stroke-width="1.6"/>
<circle cx="276.0" cy="63.5" r="2" fill="#888888"/>
<circle cx="336.0" cy="153.9" r="2" fill="#888888"/>
<circle cx="396.0" cy="159.7" r="2" fill="#888888"/>
<circle cx="426.0" cy="161.0" r="2" fill="#888888"/>
<circle cx="456.0" cy="160.9" r="2" fill="#888888"/>
<circle cx="486.0" cy="160.9" r="2" fill="#888888"/>
<polygon points="276.0,64.5 336.0,150.7 396.0,170.8 426.0,169.7 456.0,170.4 486.0,169.8 486.0,169.9 456.0,170.6 426.0,169.8 396.0,171.1 336.0,152.7 276.0,68.4" fill="#888888" opacity="0.11"/>
<polyline points="276.0,65.2 336.0,151.6 396.0,170.9 426.0,169.7 456.0,170.5 486.0,169.9" fill="none" stroke="#888888" stroke-width="1.6"/>
<circle cx="276.0" cy="65.2" r="2" fill="#888888"/>
<circle cx="336.0" cy="151.6" r="2" fill="#888888"/>
<circle cx="396.0" cy="170.9" r="2" fill="#888888"/>
<circle cx="426.0" cy="169.7" r="2" fill="#888888"/>
<circle cx="456.0" cy="170.5" r="2" fill="#888888"/>
<circle cx="486.0" cy="169.9" r="2" fill="#888888"/>
<polygon points="276.0,66.3 336.0,151.8 396.0,170.7 426.0,170.0 456.0,170.1 486.0,170.3 486.0,170.4 456.0,170.2 426.0,170.1 396.0,171.1 336.0,152.2 276.0,68.2" fill="#888888" opacity="0.11"/>
<polyline points="276.0,66.8 336.0,152.1 396.0,170.7 426.0,170.1 456.0,170.2 486.0,170.3" fill="none" stroke="#888888" stroke-width="1.6"/>
<circle cx="276.0" cy="66.8" r="2" fill="#888888"/>
<circle cx="336.0" cy="152.1" r="2" fill="#888888"/>
<circle cx="396.0" cy="170.7" r="2" fill="#888888"/>
<circle cx="426.0" cy="170.1" r="2" fill="#888888"/>
<circle cx="456.0" cy="170.2" r="2" fill="#888888"/>
<circle cx="486.0" cy="170.3" r="2" fill="#888888"/>
<text x="381.0" y="55" text-anchor="middle" font-size="12" font-weight="bold">zhemm</text>
<line x1="276.0" y1="60" x2="276.0" y2="198" stroke="#f4f4f4"/>
<text x="276.0" y="209" text-anchor="middle" font-size="8" fill="#999">8</text>
<line x1="336.0" y1="60" x2="336.0" y2="198" stroke="#f4f4f4"/>
<text x="336.0" y="209" text-anchor="middle" font-size="8" fill="#999">32</text>
<line x1="396.0" y1="60" x2="396.0" y2="198" stroke="#f4f4f4"/>
<text x="396.0" y="209" text-anchor="middle" font-size="8" fill="#999">128</text>
<line x1="426.0" y1="60" x2="426.0" y2="198" stroke="#f4f4f4"/>
<text x="426.0" y="209" text-anchor="middle" font-size="8" fill="#999">256</text>
<line x1="456.0" y1="60" x2="456.0" y2="198" stroke="#f4f4f4"/>
<text x="456.0" y="209" text-anchor="middle" font-size="8" fill="#999">512</text>
<line x1="486.0" y1="60" x2="486.0" y2="198" stroke="#f4f4f4"/>
<text x="486.0" y="209" text-anchor="middle" font-size="8" fill="#999">1k</text>
<rect x="506" y="60" width="210" height="138" fill="none" stroke="#e2e2e2"/>
<line x1="506" y1="170.5879058334427" x2="716" y2="170.5879058334427" stroke="#d33" stroke-dasharray="4 3"/>
<text x="502" y="201.0" text-anchor="end" font-size="9" fill="#999">0.5×</text>
<text x="502" y="173.5879058334427" text-anchor="end" font-size="9" fill="#999">1.0×</text>
<text x="502" y="63.01126103585031" text-anchor="end" font-size="9" fill="#999">16.38×</text>
<polygon points="506.0,63.0 566.0,158.1 626.0,162.7 656.0,162.9 686.0,161.8 716.0,161.8 716.0,162.0 686.0,162.0 656.0,163.0 626.0,162.8 566.0,158.6 506.0,63.8" fill="#888888" opacity="0.11"/>
<polyline points="506.0,63.2 566.0,158.2 626.0,162.7 656.0,163.0 686.0,161.8 716.0,161.9" fill="none" stroke="#888888" stroke-width="1.6"/>
<circle cx="506.0" cy="63.2" r="2" fill="#888888"/>
<circle cx="566.0" cy="158.2" r="2" fill="#888888"/>
<circle cx="626.0" cy="162.7" r="2" fill="#888888"/>
<circle cx="656.0" cy="163.0" r="2" fill="#888888"/>
<circle cx="686.0" cy="161.8" r="2" fill="#888888"/>
<circle cx="716.0" cy="161.9" r="2" fill="#888888"/>
<polygon points="506.0,64.6 566.0,154.5 626.0,171.4 656.0,171.2 686.0,172.6 716.0,171.1 716.0,171.5 686.0,172.7 656.0,171.5 626.0,171.6 566.0,155.9 506.0,67.9" fill="#888888" opacity="0.11"/>
<polyline points="506.0,66.8 566.0,155.3 626.0,171.4 656.0,171.3 686.0,172.7 716.0,171.2" fill="none" stroke="#888888" stroke-width="1.6"/>
<circle cx="506.0" cy="66.8" r="2" fill="#888888"/>
<circle cx="566.0" cy="155.3" r="2" fill="#888888"/>
<circle cx="626.0" cy="171.4" r="2" fill="#888888"/>
<circle cx="656.0" cy="171.3" r="2" fill="#888888"/>
<circle cx="686.0" cy="172.7" r="2" fill="#888888"/>
<circle cx="716.0" cy="171.2" r="2" fill="#888888"/>
<polygon points="506.0,64.2 566.0,154.1 626.0,171.4 656.0,172.5 686.0,172.4 716.0,171.7 716.0,171.8 686.0,172.5 656.0,172.6 626.0,171.6 566.0,154.8 506.0,64.7" fill="#888888" opacity="0.11"/>
<polyline points="506.0,64.6 566.0,154.7 626.0,171.6 656.0,172.6 686.0,172.5 716.0,171.8" fill="none" stroke="#888888" stroke-width="1.6"/>
<circle cx="506.0" cy="64.6" r="2" fill="#888888"/>
<circle cx="566.0" cy="154.7" r="2" fill="#888888"/>
<circle cx="626.0" cy="171.6" r="2" fill="#888888"/>
<circle cx="656.0" cy="172.6" r="2" fill="#888888"/>
<circle cx="686.0" cy="172.5" r="2" fill="#888888"/>
<circle cx="716.0" cy="171.8" r="2" fill="#888888"/>
<text x="611.0" y="55" text-anchor="middle" font-size="12" font-weight="bold">zsymm</text>
<line x1="506.0" y1="60" x2="506.0" y2="198" stroke="#f4f4f4"/>
<text x="506.0" y="209" text-anchor="middle" font-size="8" fill="#999">8</text>
<line x1="566.0" y1="60" x2="566.0" y2="198" stroke="#f4f4f4"/>
<text x="566.0" y="209" text-anchor="middle" font-size="8" fill="#999">32</text>
<line x1="626.0" y1="60" x2="626.0" y2="198" stroke="#f4f4f4"/>
<text x="626.0" y="209" text-anchor="middle" font-size="8" fill="#999">128</text>
<line x1="656.0" y1="60" x2="656.0" y2="198" stroke="#f4f4f4"/>
<text x="656.0" y="209" text-anchor="middle" font-size="8" fill="#999">256</text>
<line x1="686.0" y1="60" x2="686.0" y2="198" stroke="#f4f4f4"/>
<text x="686.0" y="209" text-anchor="middle" font-size="8" fill="#999">512</text>
<line x1="716.0" y1="60" x2="716.0" y2="198" stroke="#f4f4f4"/>
<text x="716.0" y="209" text-anchor="middle" font-size="8" fill="#999">1k</text>
<rect x="736" y="60" width="210" height="138" fill="none" stroke="#e2e2e2"/>
<line x1="736" y1="165.46593270106985" x2="946" y2="165.46593270106985" stroke="#d33" stroke-dasharray="4 3"/>
<text x="732" y="201.0" text-anchor="end" font-size="9" fill="#999">0.5×</text>
<text x="732" y="168.46593270106985" text-anchor="end" font-size="9" fill="#999">1.0×</text>
<polygon points="736.0,69.7 796.0,153.0 856.0,163.2 886.0,157.8 916.0,155.4 946.0,155.3 946.0,156.0 916.0,155.7 886.0,158.1 856.0,163.6 796.0,154.4 736.0,81.2" fill="#888888" opacity="0.11"/>
<polyline points="736.0,70.2 796.0,153.7 856.0,163.5 886.0,158.0 916.0,155.4 946.0,155.5" fill="none" stroke="#888888" stroke-width="1.6"/>
<circle cx="736.0" cy="70.2" r="2" fill="#888888"/>
<circle cx="796.0" cy="153.7" r="2" fill="#888888"/>
<circle cx="856.0" cy="163.5" r="2" fill="#888888"/>
<circle cx="886.0" cy="158.0" r="2" fill="#888888"/>
<circle cx="916.0" cy="155.4" r="2" fill="#888888"/>
<circle cx="946.0" cy="155.5" r="2" fill="#888888"/>
<polygon points="736.0,78.5 796.0,164.6 856.0,164.9 886.0,167.1 916.0,167.0 946.0,165.6 946.0,166.4 916.0,168.3 886.0,167.5 856.0,165.3 796.0,165.4 736.0,83.3" fill="#888888" opacity="0.11"/>
<polyline points="736.0,79.2 796.0,165.1 856.0,165.2 886.0,167.2 916.0,167.6 946.0,165.9" fill="none" stroke="#888888" stroke-width="1.6"/>
<circle cx="736.0" cy="79.2" r="2" fill="#888888"/>
<circle cx="796.0" cy="165.1" r="2" fill="#888888"/>
<circle cx="856.0" cy="165.2" r="2" fill="#888888"/>
<circle cx="886.0" cy="167.2" r="2" fill="#888888"/>
<circle cx="916.0" cy="167.6" r="2" fill="#888888"/>
<circle cx="946.0" cy="165.9" r="2" fill="#888888"/>
<polygon points="736.0,63.6 796.0,157.5 856.0,163.7 886.0,167.6 916.0,167.3 946.0,166.4 946.0,166.7 916.0,168.0 886.0,168.0 856.0,163.9 796.0,158.2 736.0,66.4" fill="#888888" opacity="0.11"/>
<polyline points="736.0,63.7 796.0,157.9 856.0,163.7 886.0,167.7 916.0,167.8 946.0,166.6" fill="none" stroke="#888888" stroke-width="1.6"/>
<circle cx="736.0" cy="63.7" r="2" fill="#888888"/>
<circle cx="796.0" cy="157.9" r="2" fill="#888888"/>
<circle cx="856.0" cy="163.7" r="2" fill="#888888"/>
<circle cx="886.0" cy="167.7" r="2" fill="#888888"/>
<circle cx="916.0" cy="167.8" r="2" fill="#888888"/>
<circle cx="946.0" cy="166.6" r="2" fill="#888888"/>
<text x="841.0" y="55" text-anchor="middle" font-size="12" font-weight="bold">zsyrk</text>
<line x1="736.0" y1="60" x2="736.0" y2="198" stroke="#f4f4f4"/>
<text x="736.0" y="209" text-anchor="middle" font-size="8" fill="#999">8</text>
<line x1="796.0" y1="60" x2="796.0" y2="198" stroke="#f4f4f4"/>
<text x="796.0" y="209" text-anchor="middle" font-size="8" fill="#999">32</text>
<line x1="856.0" y1="60" x2="856.0" y2="198" stroke="#f4f4f4"/>
<text x="856.0" y="209" text-anchor="middle" font-size="8" fill="#999">128</text>
<line x1="886.0" y1="60" x2="886.0" y2="198" stroke="#f4f4f4"/>
<text x="886.0" y="209" text-anchor="middle" font-size="8" fill="#999">256</text>
<line x1="916.0" y1="60" x2="916.0" y2="198" stroke="#f4f4f4"/>
<text x="916.0" y="209" text-anchor="middle" font-size="8" fill="#999">512</text>
<line x1="946.0" y1="60" x2="946.0" y2="198" stroke="#f4f4f4"/>
<text x="946.0" y="209" text-anchor="middle" font-size="8" fill="#999">1k</text>
<rect x="46" y="232" width="210" height="138" fill="none" stroke="#e2e2e2"/>
<line x1="46" y1="345.0457235783847" x2="256" y2="345.0457235783847" stroke="#d33" stroke-dasharray="4 3"/>
<text x="42" y="373.0" text-anchor="end" font-size="9" fill="#999">0.5×</text>
<text x="42" y="348.0457235783847" text-anchor="end" font-size="9" fill="#999">1.0×</text>
<text x="42" y="235.0073195382844" text-anchor="end" font-size="9" fill="#999">23.1×</text>
<polygon points="46.0,239.2 106.0,315.1 166.0,337.4 196.0,337.8 226.0,336.7 256.0,337.4 256.0,337.6 226.0,337.4 196.0,338.5 166.0,338.1 106.0,318.7 46.0,240.2" fill="#888888" opacity="0.11"/>
<polyline points="46.0,239.4 106.0,315.7 166.0,337.8 196.0,338.0 226.0,337.2 256.0,337.5" fill="none" stroke="#888888" stroke-width="1.6"/>
<circle cx="46.0" cy="239.4" r="2" fill="#888888"/>
<circle cx="106.0" cy="315.7" r="2" fill="#888888"/>
<circle cx="166.0" cy="337.8" r="2" fill="#888888"/>
<circle cx="196.0" cy="338.0" r="2" fill="#888888"/>
<circle cx="226.0" cy="337.2" r="2" fill="#888888"/>
<circle cx="256.0" cy="337.5" r="2" fill="#888888"/>
<polygon points="46.0,235.1 106.0,324.7 166.0,341.7 196.0,345.2 226.0,344.1 256.0,344.4 256.0,344.7 226.0,345.3 196.0,345.3 166.0,342.2 106.0,327.5 46.0,239.9" fill="#888888" opacity="0.11"/>
<polyline points="46.0,236.5 106.0,325.1 166.0,341.9 196.0,345.3 226.0,344.3 256.0,344.6" fill="none" stroke="#888888" stroke-width="1.6"/>
<circle cx="46.0" cy="236.5" r="2" fill="#888888"/>
<circle cx="106.0" cy="325.1" r="2" fill="#888888"/>
<circle cx="166.0" cy="341.9" r="2" fill="#888888"/>
<circle cx="196.0" cy="345.3" r="2" fill="#888888"/>
<circle cx="226.0" cy="344.3" r="2" fill="#888888"/>
<circle cx="256.0" cy="344.6" r="2" fill="#888888"/>
<polygon points="46.0,234.8 106.0,322.3 166.0,338.8 196.0,344.9 226.0,344.5 256.0,345.7 256.0,345.8 226.0,344.9 196.0,344.9 166.0,339.3 106.0,323.4 46.0,235.3" fill="#888888" opacity="0.11"/>
<polyline points="46.0,235.1 106.0,322.8 166.0,339.1 196.0,344.9 226.0,344.8 256.0,345.8" fill="none" stroke="#888888" stroke-width="1.6"/>
<circle cx="46.0" cy="235.1" r="2" fill="#888888"/>
<circle cx="106.0" cy="322.8" r="2" fill="#888888"/>
<circle cx="166.0" cy="339.1" r="2" fill="#888888"/>
<circle cx="196.0" cy="344.9" r="2" fill="#888888"/>
<circle cx="226.0" cy="344.8" r="2" fill="#888888"/>
<circle cx="256.0" cy="345.8" r="2" fill="#888888"/>
<text x="151.0" y="227" text-anchor="middle" font-size="12" font-weight="bold">zherk</text>
<line x1="46.0" y1="232" x2="46.0" y2="370" stroke="#f4f4f4"/>
<text x="46.0" y="381" text-anchor="middle" font-size="8" fill="#999">8</text>
<line x1="106.0" y1="232" x2="106.0" y2="370" stroke="#f4f4f4"/>
<text x="106.0" y="381" text-anchor="middle" font-size="8" fill="#999">32</text>
<line x1="166.0" y1="232" x2="166.0" y2="370" stroke="#f4f4f4"/>
<text x="166.0" y="381" text-anchor="middle" font-size="8" fill="#999">128</text>
<line x1="196.0" y1="232" x2="196.0" y2="370" stroke="#f4f4f4"/>
<text x="196.0" y="381" text-anchor="middle" font-size="8" fill="#999">256</text>
<line x1="226.0" y1="232" x2="226.0" y2="370" stroke="#f4f4f4"/>
<text x="226.0" y="381" text-anchor="middle" font-size="8" fill="#999">512</text>
<line x1="256.0" y1="232" x2="256.0" y2="370" stroke="#f4f4f4"/>
<text x="256.0" y="381" text-anchor="middle" font-size="8" fill="#999">1k</text>
<rect x="276" y="232" width="210" height="138" fill="none" stroke="#e2e2e2"/>
<line x1="276" y1="345.1365241191782" x2="486" y2="345.1365241191782" stroke="#d33" stroke-dasharray="4 3"/>
<text x="272" y="373.0" text-anchor="end" font-size="9" fill="#999">0.5×</text>
<text x="272" y="348.1365241191782" text-anchor="end" font-size="9" fill="#999">1.0×</text>
<text x="272" y="235.0006215503044" text-anchor="end" font-size="9" fill="#999">23.43×</text>
<polygon points="276.0,239.7 336.0,315.7 396.0,337.8 426.0,338.3 456.0,336.9 486.0,337.2 486.0,337.3 456.0,337.5 426.0,338.4 396.0,338.1 336.0,316.3 276.0,248.4" fill="#888888" opacity="0.11"/>
<polyline points="276.0,239.9 336.0,316.1 396.0,337.9 426.0,338.4 456.0,337.3 486.0,337.2" fill="none" stroke="#888888" stroke-width="1.6"/>
<circle cx="276.0" cy="239.9" r="2" fill="#888888"/>
<circle cx="336.0" cy="316.1" r="2" fill="#888888"/>
<circle cx="396.0" cy="337.9" r="2" fill="#888888"/>
<circle cx="426.0" cy="338.4" r="2" fill="#888888"/>
<circle cx="456.0" cy="337.3" r="2" fill="#888888"/>
<circle cx="486.0" cy="337.2" r="2" fill="#888888"/>
<polygon points="276.0,234.8 336.0,323.1 396.0,341.4 426.0,345.0 456.0,345.5 486.0,344.5 486.0,344.7 456.0,346.4 426.0,345.2 396.0,341.9 336.0,326.2 276.0,236.0" fill="#888888" opacity="0.11"/>
<polyline points="276.0,234.9 336.0,326.0 396.0,341.6 426.0,345.1 456.0,345.7 486.0,344.5" fill="none" stroke="#888888" stroke-width="1.6"/>
<circle cx="276.0" cy="234.9" r="2" fill="#888888"/>
<circle cx="336.0" cy="326.0" r="2" fill="#888888"/>
<circle cx="396.0" cy="341.6" r="2" fill="#888888"/>
<circle cx="426.0" cy="345.1" r="2" fill="#888888"/>
<circle cx="456.0" cy="345.7" r="2" fill="#888888"/>
<circle cx="486.0" cy="344.5" r="2" fill="#888888"/>
<polygon points="276.0,235.0 336.0,321.3 396.0,338.2 426.0,344.8 456.0,344.9 486.0,345.7 486.0,345.8 456.0,345.0 426.0,344.9 396.0,338.6 336.0,321.8 276.0,236.4" fill="#888888" opacity="0.11"/>
<polyline points="276.0,235.4 336.0,321.4 396.0,338.5 426.0,344.8 456.0,345.0 486.0,345.8" fill="none" stroke="#888888" stroke-width="1.6"/>
<circle cx="276.0" cy="235.4" r="2" fill="#888888"/>
<circle cx="336.0" cy="321.4" r="2" fill="#888888"/>
<circle cx="396.0" cy="338.5" r="2" fill="#888888"/>
<circle cx="426.0" cy="344.8" r="2" fill="#888888"/>
<circle cx="456.0" cy="345.0" r="2" fill="#888888"/>
<circle cx="486.0" cy="345.8" r="2" fill="#888888"/>
<text x="381.0" y="227" text-anchor="middle" font-size="12" font-weight="bold">zher2k</text>
<line x1="276.0" y1="232" x2="276.0" y2="370" stroke="#f4f4f4"/>
<text x="276.0" y="381" text-anchor="middle" font-size="8" fill="#999">8</text>
<line x1="336.0" y1="232" x2="336.0" y2="370" stroke="#f4f4f4"/>
<text x="336.0" y="381" text-anchor="middle" font-size="8" fill="#999">32</text>
<line x1="396.0" y1="232" x2="396.0" y2="370" stroke="#f4f4f4"/>
<text x="396.0" y="381" text-anchor="middle" font-size="8" fill="#999">128</text>
<line x1="426.0" y1="232" x2="426.0" y2="370" stroke="#f4f4f4"/>
<text x="426.0" y="381" text-anchor="middle" font-size="8" fill="#999">256</text>
<line x1="456.0" y1="232" x2="456.0" y2="370" stroke="#f4f4f4"/>
<text x="456.0" y="381" text-anchor="middle" font-size="8" fill="#999">512</text>
<line x1="486.0" y1="232" x2="486.0" y2="370" stroke="#f4f4f4"/>
<text x="486.0" y="381" text-anchor="middle" font-size="8" fill="#999">1k</text>
<rect x="506" y="232" width="210" height="138" fill="none" stroke="#e2e2e2"/>
<line x1="506" y1="344.8084323266152" x2="716" y2="344.8084323266152" stroke="#d33" stroke-dasharray="4 3"/>
<text x="502" y="373.0" text-anchor="end" font-size="9" fill="#999">0.5×</text>
<text x="502" y="347.8084323266152" text-anchor="end" font-size="9" fill="#999">1.0×</text>
<polygon points="506.0,240.0 566.0,322.9 626.0,343.3 656.0,340.1 686.0,338.5 716.0,338.2 716.0,338.3 686.0,339.3 656.0,340.3 626.0,343.7 566.0,325.4 506.0,241.2" fill="#888888" opacity="0.11"/>
<polyline points="506.0,240.2 566.0,323.5 626.0,343.5 656.0,340.2 686.0,339.0 716.0,338.3" fill="none" stroke="#888888" stroke-width="1.6"/>
<circle cx="506.0" cy="240.2" r="2" fill="#888888"/>
<circle cx="566.0" cy="323.5" r="2" fill="#888888"/>
<circle cx="626.0" cy="343.5" r="2" fill="#888888"/>
<circle cx="656.0" cy="340.2" r="2" fill="#888888"/>
<circle cx="686.0" cy="339.0" r="2" fill="#888888"/>
<circle cx="716.0" cy="338.3" r="2" fill="#888888"/>
<polygon points="506.0,234.8 566.0,328.7 626.0,344.3 656.0,346.3 686.0,346.9 716.0,345.2 716.0,345.5 686.0,347.1 656.0,346.5 626.0,344.7 566.0,332.1 506.0,240.3" fill="#888888" opacity="0.11"/>
<polyline points="506.0,235.7 566.0,331.6 626.0,344.3 656.0,346.4 686.0,347.0 716.0,345.4" fill="none" stroke="#888888" stroke-width="1.6"/>
<circle cx="506.0" cy="235.7" r="2" fill="#888888"/>
<circle cx="566.0" cy="331.6" r="2" fill="#888888"/>
<circle cx="626.0" cy="344.3" r="2" fill="#888888"/>
<circle cx="656.0" cy="346.4" r="2" fill="#888888"/>
<circle cx="686.0" cy="347.0" r="2" fill="#888888"/>
<circle cx="716.0" cy="345.4" r="2" fill="#888888"/>
<polygon points="506.0,235.2 566.0,327.2 626.0,342.7 656.0,346.2 686.0,346.1 716.0,345.6 716.0,345.7 686.0,346.2 656.0,346.3 626.0,342.8 566.0,327.7 506.0,236.8" fill="#888888" opacity="0.11"/>
<polyline points="506.0,235.5 566.0,327.4 626.0,342.8 656.0,346.2 686.0,346.1 716.0,345.6" fill="none" stroke="#888888" stroke-width="1.6"/>
<circle cx="506.0" cy="235.5" r="2" fill="#888888"/>
<circle cx="566.0" cy="327.4" r="2" fill="#888888"/>
<circle cx="626.0" cy="342.8" r="2" fill="#888888"/>
<circle cx="656.0" cy="346.2" r="2" fill="#888888"/>
<circle cx="686.0" cy="346.1" r="2" fill="#888888"/>
<circle cx="716.0" cy="345.6" r="2" fill="#888888"/>
<text x="611.0" y="227" text-anchor="middle" font-size="12" font-weight="bold">zsyr2k</text>
<line x1="506.0" y1="232" x2="506.0" y2="370" stroke="#f4f4f4"/>
<text x="506.0" y="381" text-anchor="middle" font-size="8" fill="#999">8</text>
<line x1="566.0" y1="232" x2="566.0" y2="370" stroke="#f4f4f4"/>
<text x="566.0" y="381" text-anchor="middle" font-size="8" fill="#999">32</text>
<line x1="626.0" y1="232" x2="626.0" y2="370" stroke="#f4f4f4"/>
<text x="626.0" y="381" text-anchor="middle" font-size="8" fill="#999">128</text>
<line x1="656.0" y1="232" x2="656.0" y2="370" stroke="#f4f4f4"/>
<text x="656.0" y="381" text-anchor="middle" font-size="8" fill="#999">256</text>
<line x1="686.0" y1="232" x2="686.0" y2="370" stroke="#f4f4f4"/>
<text x="686.0" y="381" text-anchor="middle" font-size="8" fill="#999">512</text>
<line x1="716.0" y1="232" x2="716.0" y2="370" stroke="#f4f4f4"/>
<text x="716.0" y="381" text-anchor="middle" font-size="8" fill="#999">1k</text>
<rect x="736" y="232" width="210" height="138" fill="none" stroke="#e2e2e2"/>
<line x1="736" y1="343.59634651558935" x2="946" y2="343.59634651558935" stroke="#d33" stroke-dasharray="4 3"/>
<text x="732" y="373.0" text-anchor="end" font-size="9" fill="#999">0.5×</text>
<text x="732" y="346.59634651558935" text-anchor="end" font-size="9" fill="#999">1.0×</text>
<text x="732" y="235.00107984561498" text-anchor="end" font-size="9" fill="#999">18.72×</text>
<polygon points="736.0,241.4 796.0,328.6 856.0,344.6 886.0,343.5 916.0,340.0 946.0,338.1 946.0,338.2 916.0,340.0 886.0,344.0 856.0,345.8 796.0,330.4 736.0,242.5" fill="#888888" opacity="0.11"/>
<polyline points="736.0,241.7 796.0,328.8 856.0,344.8 886.0,343.5 916.0,340.0 946.0,338.2" fill="none" stroke="#888888" stroke-width="1.6"/>
<circle cx="736.0" cy="241.7" r="2" fill="#888888"/>
<circle cx="796.0" cy="328.8" r="2" fill="#888888"/>
<circle cx="856.0" cy="344.8" r="2" fill="#888888"/>
<circle cx="886.0" cy="343.5" r="2" fill="#888888"/>
<circle cx="916.0" cy="340.0" r="2" fill="#888888"/>
<circle cx="946.0" cy="338.2" r="2" fill="#888888"/>
<polygon points="736.0,234.9 796.0,329.3 856.0,344.2 886.0,345.2 916.0,344.7 946.0,344.8 946.0,344.8 916.0,344.8 886.0,345.3 856.0,344.6 796.0,332.4 736.0,236.3" fill="#888888" opacity="0.11"/>
<polyline points="736.0,236.0 796.0,330.9 856.0,344.4 886.0,345.2 916.0,344.7 946.0,344.8" fill="none" stroke="#888888" stroke-width="1.6"/>
<circle cx="736.0" cy="236.0" r="2" fill="#888888"/>
<circle cx="796.0" cy="330.9" r="2" fill="#888888"/>
<circle cx="856.0" cy="344.4" r="2" fill="#888888"/>
<circle cx="886.0" cy="345.2" r="2" fill="#888888"/>
<circle cx="916.0" cy="344.7" r="2" fill="#888888"/>
<circle cx="946.0" cy="344.8" r="2" fill="#888888"/>
<polygon points="736.0,237.3 796.0,325.8 856.0,344.8 886.0,345.9 916.0,345.1 946.0,344.6 946.0,345.3 916.0,345.2 886.0,346.0 856.0,345.0 796.0,326.3 736.0,238.2" fill="#888888" opacity="0.11"/>
<polyline points="736.0,237.6 796.0,326.0 856.0,345.0 886.0,346.0 916.0,345.2 946.0,344.7" fill="none" stroke="#888888" stroke-width="1.6"/>
<circle cx="736.0" cy="237.6" r="2" fill="#888888"/>
<circle cx="796.0" cy="326.0" r="2" fill="#888888"/>
<circle cx="856.0" cy="345.0" r="2" fill="#888888"/>
<circle cx="886.0" cy="346.0" r="2" fill="#888888"/>
<circle cx="916.0" cy="345.2" r="2" fill="#888888"/>
<circle cx="946.0" cy="344.7" r="2" fill="#888888"/>
<text x="841.0" y="227" text-anchor="middle" font-size="12" font-weight="bold">ztrmm</text>
<line x1="736.0" y1="232" x2="736.0" y2="370" stroke="#f4f4f4"/>
<text x="736.0" y="381" text-anchor="middle" font-size="8" fill="#999">8</text>
<line x1="796.0" y1="232" x2="796.0" y2="370" stroke="#f4f4f4"/>
<text x="796.0" y="381" text-anchor="middle" font-size="8" fill="#999">32</text>
<line x1="856.0" y1="232" x2="856.0" y2="370" stroke="#f4f4f4"/>
<text x="856.0" y="381" text-anchor="middle" font-size="8" fill="#999">128</text>
<line x1="886.0" y1="232" x2="886.0" y2="370" stroke="#f4f4f4"/>
<text x="886.0" y="381" text-anchor="middle" font-size="8" fill="#999">256</text>
<line x1="916.0" y1="232" x2="916.0" y2="370" stroke="#f4f4f4"/>
<text x="916.0" y="381" text-anchor="middle" font-size="8" fill="#999">512</text>
<line x1="946.0" y1="232" x2="946.0" y2="370" stroke="#f4f4f4"/>
<text x="946.0" y="381" text-anchor="middle" font-size="8" fill="#999">1k</text>
<rect x="46" y="404" width="210" height="138" fill="none" stroke="#e2e2e2"/>
<line x1="46" y1="463.1812057786718" x2="256" y2="463.1812057786718" stroke="#d33" stroke-dasharray="4 3"/>
<text x="42" y="545.0" text-anchor="end" font-size="9" fill="#999">0.5×</text>
<text x="42" y="466.1812057786718" text-anchor="end" font-size="9" fill="#999">1.0×</text>
<text x="42" y="407.18839387188524" text-anchor="end" font-size="9" fill="#999">1.68×</text>
<polygon points="46.0,412.8 106.0,494.3 166.0,510.5 196.0,474.3 226.0,451.9 256.0,449.7 256.0,450.0 226.0,456.5 196.0,477.0 166.0,510.9 106.0,501.4 46.0,442.0" fill="#888888" opacity="0.11"/>
<polyline points="46.0,441.1 106.0,500.9 166.0,510.7 196.0,475.4 226.0,453.0 256.0,449.9" fill="none" stroke="#888888" stroke-width="1.6"/>
<circle cx="46.0" cy="441.1" r="2" fill="#888888"/>
<circle cx="106.0" cy="500.9" r="2" fill="#888888"/>
<circle cx="166.0" cy="510.7" r="2" fill="#888888"/>
<circle cx="196.0" cy="475.4" r="2" fill="#888888"/>
<circle cx="226.0" cy="453.0" r="2" fill="#888888"/>
<circle cx="256.0" cy="449.9" r="2" fill="#888888"/>
<polygon points="46.0,458.8 106.0,510.0 166.0,485.9 196.0,483.7 226.0,468.9 256.0,463.4 256.0,463.7 226.0,469.8 196.0,484.0 166.0,487.5 106.0,517.4 46.0,466.4" fill="#888888" opacity="0.11"/>
<polyline points="46.0,461.2 106.0,512.6 166.0,487.2 196.0,483.8 226.0,469.6 256.0,463.7" fill="none" stroke="#888888" stroke-width="1.6"/>
<circle cx="46.0" cy="461.2" r="2" fill="#888888"/>
<circle cx="106.0" cy="512.6" r="2" fill="#888888"/>
<circle cx="166.0" cy="487.2" r="2" fill="#888888"/>
<circle cx="196.0" cy="483.8" r="2" fill="#888888"/>
<circle cx="226.0" cy="469.6" r="2" fill="#888888"/>
<circle cx="256.0" cy="463.7" r="2" fill="#888888"/>
<polygon points="46.0,473.5 106.0,513.5 166.0,507.0 196.0,428.7 226.0,465.3 256.0,457.9 256.0,460.0 226.0,467.4 196.0,437.7 166.0,509.1 106.0,516.5 46.0,475.6" fill="#888888" opacity="0.11"/>
<polyline points="46.0,475.2 106.0,514.8 166.0,508.8 196.0,434.2 226.0,466.8 256.0,458.9" fill="none" stroke="#888888" stroke-width="1.6"/>
<circle cx="46.0" cy="475.2" r="2" fill="#888888"/>
<circle cx="106.0" cy="514.8" r="2" fill="#888888"/>
<circle cx="166.0" cy="508.8" r="2" fill="#888888"/>
<circle cx="196.0" cy="434.2" r="2" fill="#888888"/>
<circle cx="226.0" cy="466.8" r="2" fill="#888888"/>
<circle cx="256.0" cy="458.9" r="2" fill="#888888"/>
<text x="151.0" y="399" text-anchor="middle" font-size="12" font-weight="bold">ztrsm</text>
<line x1="46.0" y1="404" x2="46.0" y2="542" stroke="#f4f4f4"/>
<text x="46.0" y="553" text-anchor="middle" font-size="8" fill="#999">8</text>
<line x1="106.0" y1="404" x2="106.0" y2="542" stroke="#f4f4f4"/>
<text x="106.0" y="553" text-anchor="middle" font-size="8" fill="#999">32</text>
<line x1="166.0" y1="404" x2="166.0" y2="542" stroke="#f4f4f4"/>
<text x="166.0" y="553" text-anchor="middle" font-size="8" fill="#999">128</text>
<line x1="196.0" y1="404" x2="196.0" y2="542" stroke="#f4f4f4"/>
<text x="196.0" y="553" text-anchor="middle" font-size="8" fill="#999">256</text>
<line x1="226.0" y1="404" x2="226.0" y2="542" stroke="#f4f4f4"/>
<text x="226.0" y="553" text-anchor="middle" font-size="8" fill="#999">512</text>
<line x1="256.0" y1="404" x2="256.0" y2="542" stroke="#f4f4f4"/>
<text x="256.0" y="553" text-anchor="middle" font-size="8" fill="#999">1k</text>
<rect x="276" y="404" width="210" height="138" fill="none" stroke="#e2e2e2"/>
<line x1="276" y1="516.0717130243326" x2="486" y2="516.0717130243326" stroke="#d33" stroke-dasharray="4 3"/>
<text x="272" y="545.0" text-anchor="end" font-size="9" fill="#999">0.5×</text>
<text x="272" y="519.0717130243326" text-anchor="end" font-size="9" fill="#999">1.0×</text>
<polygon points="276.0,417.2 336.0,503.8 396.0,516.3 426.0,513.9 456.0,511.8 486.0,510.2 486.0,510.3 456.0,511.8 426.0,514.0 396.0,518.1 336.0,506.8 276.0,418.7" fill="#888888" opacity="0.11"/>
<polyline points="276.0,417.4 336.0,504.1 396.0,517.6 426.0,514.0 456.0,511.8 486.0,510.3" fill="none" stroke="#888888" stroke-width="1.6"/>
<circle cx="276.0" cy="417.4" r="2" fill="#888888"/>
<circle cx="336.0" cy="504.1" r="2" fill="#888888"/>
<circle cx="396.0" cy="517.6" r="2" fill="#888888"/>
<circle cx="426.0" cy="514.0" r="2" fill="#888888"/>
<circle cx="456.0" cy="511.8" r="2" fill="#888888"/>
<circle cx="486.0" cy="510.3" r="2" fill="#888888"/>
<polygon points="276.0,406.9 336.0,499.1 396.0,515.7 426.0,515.4 456.0,516.6 486.0,516.6 486.0,516.8 456.0,516.7 426.0,515.7 396.0,516.7 336.0,504.2 276.0,415.2" fill="#888888" opacity="0.11"/>
<polyline points="276.0,408.9 336.0,503.5 396.0,516.3 426.0,515.7 456.0,516.6 486.0,516.6" fill="none" stroke="#888888" stroke-width="1.6"/>
<circle cx="276.0" cy="408.9" r="2" fill="#888888"/>
<circle cx="336.0" cy="503.5" r="2" fill="#888888"/>
<circle cx="396.0" cy="516.3" r="2" fill="#888888"/>
<circle cx="426.0" cy="515.7" r="2" fill="#888888"/>
<circle cx="456.0" cy="516.6" r="2" fill="#888888"/>
<circle cx="486.0" cy="516.6" r="2" fill="#888888"/>
<polygon points="276.0,408.3 336.0,494.3 396.0,515.2 426.0,516.8 456.0,517.0 486.0,516.7 486.0,516.8 456.0,517.2 426.0,516.9 396.0,515.4 336.0,494.7 276.0,410.3" fill="#888888" opacity="0.11"/>
<polyline points="276.0,408.7 336.0,494.5 396.0,515.4 426.0,516.8 456.0,517.1 486.0,516.8" fill="none" stroke="#888888" stroke-width="1.6"/>
<circle cx="276.0" cy="408.7" r="2" fill="#888888"/>
<circle cx="336.0" cy="494.5" r="2" fill="#888888"/>
<circle cx="396.0" cy="515.4" r="2" fill="#888888"/>
<circle cx="426.0" cy="516.8" r="2" fill="#888888"/>
<circle cx="456.0" cy="517.1" r="2" fill="#888888"/>
<circle cx="486.0" cy="516.8" r="2" fill="#888888"/>
<text x="381.0" y="399" text-anchor="middle" font-size="12" font-weight="bold">ztrmmR</text>
<line x1="276.0" y1="404" x2="276.0" y2="542" stroke="#f4f4f4"/>
<text x="276.0" y="553" text-anchor="middle" font-size="8" fill="#999">8</text>
<line x1="336.0" y1="404" x2="336.0" y2="542" stroke="#f4f4f4"/>
<text x="336.0" y="553" text-anchor="middle" font-size="8" fill="#999">32</text>
<line x1="396.0" y1="404" x2="396.0" y2="542" stroke="#f4f4f4"/>
<text x="396.0" y="553" text-anchor="middle" font-size="8" fill="#999">128</text>
<line x1="426.0" y1="404" x2="426.0" y2="542" stroke="#f4f4f4"/>
<text x="426.0" y="553" text-anchor="middle" font-size="8" fill="#999">256</text>
<line x1="456.0" y1="404" x2="456.0" y2="542" stroke="#f4f4f4"/>
<text x="456.0" y="553" text-anchor="middle" font-size="8" fill="#999">512</text>
<line x1="486.0" y1="404" x2="486.0" y2="542" stroke="#f4f4f4"/>
<text x="486.0" y="553" text-anchor="middle" font-size="8" fill="#999">1k</text>
<rect x="506" y="404" width="210" height="138" fill="none" stroke="#e2e2e2"/>
<line x1="506" y1="475.60777701773486" x2="716" y2="475.60777701773486" stroke="#d33" stroke-dasharray="4 3"/>
<text x="502" y="545.0" text-anchor="end" font-size="9" fill="#999">0.5×</text>
<text x="502" y="478.60777701773486" text-anchor="end" font-size="9" fill="#999">1.0×</text>
<text x="502" y="407.087219626527" text-anchor="end" font-size="9" fill="#999">2.11×</text>
<polygon points="506.0,427.2 566.0,466.9 626.0,482.1 656.0,443.5 686.0,433.4 716.0,416.7 716.0,417.4 686.0,434.1 656.0,444.4 626.0,483.5 566.0,472.0 506.0,428.2" fill="#888888" opacity="0.11"/>
<polyline points="506.0,427.8 566.0,468.2 626.0,483.0 656.0,444.0 686.0,433.9 716.0,417.1" fill="none" stroke="#888888" stroke-width="1.6"/>
<circle cx="506.0" cy="427.8" r="2" fill="#888888"/>
<circle cx="566.0" cy="468.2" r="2" fill="#888888"/>
<circle cx="626.0" cy="483.0" r="2" fill="#888888"/>
<circle cx="656.0" cy="444.0" r="2" fill="#888888"/>
<circle cx="686.0" cy="433.9" r="2" fill="#888888"/>
<circle cx="716.0" cy="417.1" r="2" fill="#888888"/>
<polygon points="506.0,434.0 566.0,465.3 626.0,474.9 656.0,475.0 686.0,474.3 716.0,476.0 716.0,476.4 686.0,474.6 656.0,475.4 626.0,476.3 566.0,468.7 506.0,435.1" fill="#888888" opacity="0.11"/>
<polyline points="506.0,434.3 566.0,466.5 626.0,475.3 656.0,475.1 686.0,474.5 716.0,476.1" fill="none" stroke="#888888" stroke-width="1.6"/>
<circle cx="506.0" cy="434.3" r="2" fill="#888888"/>
<circle cx="566.0" cy="466.5" r="2" fill="#888888"/>
<circle cx="626.0" cy="475.3" r="2" fill="#888888"/>
<circle cx="656.0" cy="475.1" r="2" fill="#888888"/>
<circle cx="686.0" cy="474.5" r="2" fill="#888888"/>
<circle cx="716.0" cy="476.1" r="2" fill="#888888"/>
<polygon points="506.0,438.3 566.0,480.5 626.0,479.7 656.0,411.4 686.0,477.3 716.0,479.4 716.0,479.5 686.0,477.7 656.0,414.5 626.0,480.6 566.0,482.0 506.0,439.7" fill="#888888" opacity="0.11"/>
<polyline points="506.0,439.5 566.0,481.2 626.0,480.0 656.0,412.7 686.0,477.6 716.0,479.4" fill="none" stroke="#888888" stroke-width="1.6"/>
<circle cx="506.0" cy="439.5" r="2" fill="#888888"/>
<circle cx="566.0" cy="481.2" r="2" fill="#888888"/>
<circle cx="626.0" cy="480.0" r="2" fill="#888888"/>
<circle cx="656.0" cy="412.7" r="2" fill="#888888"/>
<circle cx="686.0" cy="477.6" r="2" fill="#888888"/>
<circle cx="716.0" cy="479.4" r="2" fill="#888888"/>
<text x="611.0" y="399" text-anchor="middle" font-size="12" font-weight="bold">ztrsmR</text>
<line x1="506.0" y1="404" x2="506.0" y2="542" stroke="#f4f4f4"/>
<text x="506.0" y="553" text-anchor="middle" font-size="8" fill="#999">8</text>
<line x1="566.0" y1="404" x2="566.0" y2="542" stroke="#f4f4f4"/>
<text x="566.0" y="553" text-anchor="middle" font-size="8" fill="#999">32</text>
<line x1="626.0" y1="404" x2="626.0" y2="542" stroke="#f4f4f4"/>
<text x="626.0" y="553" text-anchor="middle" font-size="8" fill="#999">128</text>
<line x1="656.0" y1="404" x2="656.0" y2="542" stroke="#f4f4f4"/>
<text x="656.0" y="553" text-anchor="middle" font-size="8" fill="#999">256</text>
<line x1="686.0" y1="404" x2="686.0" y2="542" stroke="#f4f4f4"/>
<text x="686.0" y="553" text-anchor="middle" font-size="8" fill="#999">512</text>
<line x1="716.0" y1="404" x2="716.0" y2="542" stroke="#f4f4f4"/>
<text x="716.0" y="553" text-anchor="middle" font-size="8" fill="#999">1k</text>
</svg>
