<svg xmlns="http://www.w3.org/2000/svg" width="962" height="592" font-family="sans-serif">
<rect width="962" height="592" fill="white"/>
<text x="481.0" y="26" text-anchor="middle" font-size="17" font-weight="bold">Complex BLAS-3 — PureBLAS / OpenBLAS (PB/OpenBLAS ratio)</text>
<line x1="46" y1="42" x2="68" y2="42" stroke="#d62728" stroke-width="3"/>
<text x="73" y="46" font-size="12">Zen3 · AVX2</text>
<line x1="176" y1="42" x2="198" y2="42" stroke="#2ca02c" stroke-width="3"/>
<text x="203" y="46" font-size="12">Zen5 · AVX-512</text>
<line x1="327" y1="42" x2="349" y2="42" stroke="#1f77b4" stroke-width="3"/>
<text x="354" y="46" font-size="12">Zen4 · AVX-512</text>
<rect x="46" y="60" width="210" height="138" fill="none" stroke="#e2e2e2"/>
<line x1="46" y1="141.65356514492075" x2="256" y2="141.65356514492075" stroke="#bbb"/>
<line x1="46" y1="144.97201455855296" x2="256" y2="144.97201455855296" stroke="#d33" stroke-dasharray="4 3"/>
<text x="42" y="201.0" text-anchor="end" font-size="9" fill="#999">0.5×</text>
<text x="42" y="144.65356514492075" text-anchor="end" font-size="9" fill="#999">1.0×</text>
<text x="42" y="63.01316208975944" text-anchor="end" font-size="9" fill="#999">2.73×</text>
<polygon points="46.0,92.9 92.7,139.1 139.3,130.4 162.7,127.3 186.0,122.5 209.3,122.6 232.7,119.5 256.0,142.8 256.0,143.4 232.7,120.4 209.3,123.7 186.0,123.9 162.7,128.7 139.3,132.3 92.7,141.8 46.0,94.9" fill="#d62728" opacity="0.11"/>
<polyline points="46.0,93.7 92.7,140.0 139.3,131.9 162.7,128.4 186.0,123.0 209.3,123.0 232.7,120.3 256.0,143.1" fill="none" stroke="#d62728" stroke-width="1.6"/>
<circle cx="46.0" cy="93.7" r="2" fill="#d62728"/>
<circle cx="92.7" cy="140.0" r="2" fill="#d62728"/>
<circle cx="139.3" cy="131.9" r="2" fill="#d62728"/>
<circle cx="162.7" cy="128.4" r="2" fill="#d62728"/>
<circle cx="186.0" cy="123.0" r="2" fill="#d62728"/>
<circle cx="209.3" cy="123.0" r="2" fill="#d62728"/>
<circle cx="232.7" cy="120.3" r="2" fill="#d62728"/>
<circle cx="256.0" cy="143.1" r="2" fill="#d62728"/>
<polygon points="46.0,66.3 92.7,104.8 139.3,119.7 162.7,123.3 186.0,125.7 209.3,126.4 232.7,128.0 256.0,128.3 256.0,128.4 232.7,128.2 209.3,126.9 186.0,126.6 162.7,123.7 139.3,121.4 92.7,106.2 46.0,77.5" fill="#2ca02c" opacity="0.11"/>
<polyline points="46.0,70.9 92.7,105.8 139.3,120.4 162.7,123.5 186.0,126.2 209.3,126.6 232.7,128.1 256.0,128.4" fill="none" stroke="#2ca02c" stroke-width="1.6"/>
<circle cx="46.0" cy="70.9" r="2" fill="#2ca02c"/>
<circle cx="92.7" cy="105.8" r="2" fill="#2ca02c"/>
<circle cx="139.3" cy="120.4" r="2" fill="#2ca02c"/>
<circle cx="162.7" cy="123.5" r="2" fill="#2ca02c"/>
<circle cx="186.0" cy="126.2" r="2" fill="#2ca02c"/>
<circle cx="209.3" cy="126.6" r="2" fill="#2ca02c"/>
<circle cx="232.7" cy="128.1" r="2" fill="#2ca02c"/>
<circle cx="256.0" cy="128.4" r="2" fill="#2ca02c"/>
<polygon points="46.0,90.1 92.7,111.2 139.3,126.5 162.7,127.5 186.0,132.0 209.3,131.1 232.7,129.2 256.0,122.7 256.0,129.5 232.7,132.4 209.3,132.2 186.0,132.5 162.7,131.2 139.3,128.9 92.7,114.5 46.0,100.6" fill="#1f77b4" opacity="0.11"/>
<polyline points="46.0,96.4 92.7,112.8 139.3,128.2 162.7,128.1 186.0,132.2 209.3,131.8 232.7,130.5 256.0,126.0" fill="none" stroke="#1f77b4" stroke-width="1.6"/>
<circle cx="46.0" cy="96.4" r="2" fill="#1f77b4"/>
<circle cx="92.7" cy="112.8" r="2" fill="#1f77b4"/>
<circle cx="139.3" cy="128.2" r="2" fill="#1f77b4"/>
<circle cx="162.7" cy="128.1" r="2" fill="#1f77b4"/>
<circle cx="186.0" cy="132.2" r="2" fill="#1f77b4"/>
<circle cx="209.3" cy="131.8" r="2" fill="#1f77b4"/>
<circle cx="232.7" cy="130.5" r="2" fill="#1f77b4"/>
<circle cx="256.0" cy="126.0" r="2" fill="#1f77b4"/>
<text x="151.0" y="55" text-anchor="middle" font-size="12" font-weight="bold">zgemm</text>
<text x="46" y="210" font-size="9" fill="#999">n=8</text>
<text x="256" y="210" text-anchor="end" font-size="9" fill="#999">4096</text>
<rect x="276" y="60" width="210" height="138" fill="none" stroke="#e2e2e2"/>
<line x1="276" y1="115.76276119065531" x2="486" y2="115.76276119065531" stroke="#bbb"/>
<line x1="276" y1="120.6060155617169" x2="486" y2="120.6060155617169" stroke="#d33" stroke-dasharray="4 3"/>
<text x="272" y="201.0" text-anchor="end" font-size="9" fill="#999">0.5×</text>
<text x="272" y="118.76276119065531" text-anchor="end" font-size="9" fill="#999">1.0×</text>
<text x="272" y="63.0" text-anchor="end" font-size="9" fill="#999">1.6×</text>
<polygon points="276.0,103.9 322.7,122.6 369.3,105.7 392.7,98.9 416.0,91.9 439.3,89.4 462.7,84.5 486.0,117.4 486.0,118.2 462.7,86.0 439.3,91.1 416.0,93.7 392.7,100.9 369.3,108.5 322.7,125.7 276.0,105.5" fill="#d62728" opacity="0.11"/>
<polyline points="276.0,104.9 322.7,123.9 369.3,107.0 392.7,100.6 416.0,93.3 439.3,90.0 462.7,85.4 486.0,117.8" fill="none" stroke="#d62728" stroke-width="1.6"/>
<circle cx="276.0" cy="104.9" r="2" fill="#d62728"/>
<circle cx="322.7" cy="123.9" r="2" fill="#d62728"/>
<circle cx="369.3" cy="107.0" r="2" fill="#d62728"/>
<circle cx="392.7" cy="100.6" r="2" fill="#d62728"/>
<circle cx="416.0" cy="93.3" r="2" fill="#d62728"/>
<circle cx="439.3" cy="90.0" r="2" fill="#d62728"/>
<circle cx="462.7" cy="85.4" r="2" fill="#d62728"/>
<circle cx="486.0" cy="117.8" r="2" fill="#d62728"/>
<polygon points="276.0,73.4 322.7,84.3 369.3,93.9 392.7,90.0 416.0,93.3 439.3,94.9 462.7,96.9 486.0,94.8 486.0,98.0 462.7,97.0 439.3,95.2 416.0,95.9 392.7,90.7 369.3,96.5 322.7,85.3 276.0,90.9" fill="#2ca02c" opacity="0.11"/>
<polyline points="276.0,75.6 322.7,84.7 369.3,94.5 392.7,90.4 416.0,95.6 439.3,95.0 462.7,97.0 486.0,96.4" fill="none" stroke="#2ca02c" stroke-width="1.6"/>
<circle cx="276.0" cy="75.6" r="2" fill="#2ca02c"/>
<circle cx="322.7" cy="84.7" r="2" fill="#2ca02c"/>
<circle cx="369.3" cy="94.5" r="2" fill="#2ca02c"/>
<circle cx="392.7" cy="90.4" r="2" fill="#2ca02c"/>
<circle cx="416.0" cy="95.6" r="2" fill="#2ca02c"/>
<circle cx="439.3" cy="95.0" r="2" fill="#2ca02c"/>
<circle cx="462.7" cy="97.0" r="2" fill="#2ca02c"/>
<circle cx="486.0" cy="96.4" r="2" fill="#2ca02c"/>
<polygon points="276.0,94.8 322.7,85.5 369.3,103.8 392.7,99.9 416.0,102.4 439.3,101.0 462.7,101.9 486.0,88.8 486.0,98.7 462.7,103.7 439.3,102.2 416.0,103.3 392.7,105.2 369.3,107.0 322.7,90.4 276.0,107.4" fill="#1f77b4" opacity="0.11"/>
<polyline points="276.0,98.8 322.7,89.2 369.3,104.9 392.7,100.7 416.0,102.7 439.3,101.7 462.7,103.5 486.0,93.7" fill="none" stroke="#1f77b4" stroke-width="1.6"/>
<circle cx="276.0" cy="98.8" r="2" fill="#1f77b4"/>
<circle cx="322.7" cy="89.2" r="2" fill="#1f77b4"/>
<circle cx="369.3" cy="104.9" r="2" fill="#1f77b4"/>
<circle cx="392.7" cy="100.7" r="2" fill="#1f77b4"/>
<circle cx="416.0" cy="102.7" r="2" fill="#1f77b4"/>
<circle cx="439.3" cy="101.7" r="2" fill="#1f77b4"/>
<circle cx="462.7" cy="103.5" r="2" fill="#1f77b4"/>
<circle cx="486.0" cy="93.7" r="2" fill="#1f77b4"/>
<text x="381.0" y="55" text-anchor="middle" font-size="12" font-weight="bold">zhemm</text>
<text x="276" y="210" font-size="9" fill="#999">n=8</text>
<text x="486" y="210" text-anchor="end" font-size="9" fill="#999">4096</text>
<rect x="506" y="60" width="210" height="138" fill="none" stroke="#e2e2e2"/>
<line x1="506" y1="116.87956758954307" x2="716" y2="116.87956758954307" stroke="#bbb"/>
<line x1="506" y1="121.65704911181555" x2="716" y2="121.65704911181555" stroke="#d33" stroke-dasharray="4 3"/>
<text x="502" y="201.0" text-anchor="end" font-size="9" fill="#999">0.5×</text>
<text x="502" y="119.87956758954307" text-anchor="end" font-size="9" fill="#999">1.0×</text>
<polygon points="506.0,165.3 552.7,147.6 599.3,107.2 622.7,101.2 646.0,92.5 669.3,90.7 692.7,86.9 716.0,118.9 716.0,120.2 692.7,87.9 669.3,91.8 646.0,94.3 622.7,102.7 599.3,109.8 552.7,152.0 506.0,168.9" fill="#d62728" opacity="0.11"/>
<polyline points="506.0,167.9 552.7,150.0 599.3,108.5 622.7,102.5 646.0,94.1 669.3,91.6 692.7,87.3 716.0,119.6" fill="none" stroke="#d62728" stroke-width="1.6"/>
<circle cx="506.0" cy="167.9" r="2" fill="#d62728"/>
<circle cx="552.7" cy="150.0" r="2" fill="#d62728"/>
<circle cx="599.3" cy="108.5" r="2" fill="#d62728"/>
<circle cx="622.7" cy="102.5" r="2" fill="#d62728"/>
<circle cx="646.0" cy="94.1" r="2" fill="#d62728"/>
<circle cx="669.3" cy="91.6" r="2" fill="#d62728"/>
<circle cx="692.7" cy="87.3" r="2" fill="#d62728"/>
<circle cx="716.0" cy="119.6" r="2" fill="#d62728"/>
<polygon points="506.0,69.0 552.7,86.3 599.3,92.6 622.7,93.4 646.0,97.7 669.3,96.2 692.7,98.5 716.0,97.0 716.0,97.6 692.7,99.8 669.3,98.7 646.0,103.0 622.7,94.9 599.3,94.6 552.7,87.3 506.0,98.1" fill="#2ca02c" opacity="0.11"/>
<polyline points="506.0,73.6 552.7,86.7 599.3,93.2 622.7,94.4 646.0,102.5 669.3,97.6 692.7,98.5 716.0,97.3" fill="none" stroke="#2ca02c" stroke-width="1.6"/>
<circle cx="506.0" cy="73.6" r="2" fill="#2ca02c"/>
<circle cx="552.7" cy="86.7" r="2" fill="#2ca02c"/>
<circle cx="599.3" cy="93.2" r="2" fill="#2ca02c"/>
<circle cx="622.7" cy="94.4" r="2" fill="#2ca02c"/>
<circle cx="646.0" cy="102.5" r="2" fill="#2ca02c"/>
<circle cx="669.3" cy="97.6" r="2" fill="#2ca02c"/>
<circle cx="692.7" cy="98.5" r="2" fill="#2ca02c"/>
<circle cx="716.0" cy="97.3" r="2" fill="#2ca02c"/>
<polygon points="506.0,94.2 552.7,92.3 599.3,103.4 622.7,105.1 646.0,108.3 669.3,104.9 692.7,104.5 716.0,91.4 716.0,93.4 692.7,106.9 669.3,106.2 646.0,109.4 622.7,110.3 599.3,107.6 552.7,95.8 506.0,108.4" fill="#1f77b4" opacity="0.11"/>
<polyline points="506.0,96.3 552.7,94.2 599.3,105.1 622.7,105.6 646.0,109.1 669.3,105.7 692.7,106.3 716.0,92.4" fill="none" stroke="#1f77b4" stroke-width="1.6"/>
<circle cx="506.0" cy="96.3" r="2" fill="#1f77b4"/>
<circle cx="552.7" cy="94.2" r="2" fill="#1f77b4"/>
<circle cx="599.3" cy="105.1" r="2" fill="#1f77b4"/>
<circle cx="622.7" cy="105.6" r="2" fill="#1f77b4"/>
<circle cx="646.0" cy="109.1" r="2" fill="#1f77b4"/>
<circle cx="669.3" cy="105.7" r="2" fill="#1f77b4"/>
<circle cx="692.7" cy="106.3" r="2" fill="#1f77b4"/>
<circle cx="716.0" cy="92.4" r="2" fill="#1f77b4"/>
<text x="611.0" y="55" text-anchor="middle" font-size="12" font-weight="bold">zsymm</text>
<text x="506" y="210" font-size="9" fill="#999">n=8</text>
<text x="716" y="210" text-anchor="end" font-size="9" fill="#999">4096</text>
<rect x="736" y="60" width="210" height="138" fill="none" stroke="#e2e2e2"/>
<line x1="736" y1="136.64851811129043" x2="946" y2="136.64851811129043" stroke="#bbb"/>
<line x1="736" y1="140.26173320861972" x2="946" y2="140.26173320861972" stroke="#d33" stroke-dasharray="4 3"/>
<text x="732" y="201.0" text-anchor="end" font-size="9" fill="#999">0.5×</text>
<text x="732" y="139.64851811129043" text-anchor="end" font-size="9" fill="#999">1.0×</text>
<polygon points="736.0,113.0 782.7,124.1 829.3,137.4 852.7,125.6 876.0,119.6 899.3,118.3 922.7,116.3 946.0,140.9 946.0,142.1 922.7,116.6 899.3,118.7 876.0,120.5 852.7,127.0 829.3,138.7 782.7,126.9 736.0,115.1" fill="#d62728" opacity="0.11"/>
<polyline points="736.0,113.9 782.7,125.0 829.3,138.2 852.7,125.8 876.0,119.8 899.3,118.4 922.7,116.4 946.0,141.5" fill="none" stroke="#d62728" stroke-width="1.6"/>
<circle cx="736.0" cy="113.9" r="2" fill="#d62728"/>
<circle cx="782.7" cy="125.0" r="2" fill="#d62728"/>
<circle cx="829.3" cy="138.2" r="2" fill="#d62728"/>
<circle cx="852.7" cy="125.8" r="2" fill="#d62728"/>
<circle cx="876.0" cy="119.8" r="2" fill="#d62728"/>
<circle cx="899.3" cy="118.4" r="2" fill="#d62728"/>
<circle cx="922.7" cy="116.4" r="2" fill="#d62728"/>
<circle cx="946.0" cy="141.5" r="2" fill="#d62728"/>
<polygon points="736.0,66.8 782.7,127.9 829.3,126.9 852.7,119.0 876.0,119.6 899.3,119.7 922.7,120.9 946.0,120.2 946.0,121.2 922.7,121.2 899.3,122.8 876.0,128.3 852.7,120.4 829.3,131.7 782.7,130.2 736.0,73.8" fill="#2ca02c" opacity="0.11"/>
<polyline points="736.0,68.6 782.7,129.3 829.3,128.5 852.7,119.5 876.0,126.9 899.3,120.3 922.7,121.0 946.0,120.7" fill="none" stroke="#2ca02c" stroke-width="1.6"/>
<circle cx="736.0" cy="68.6" r="2" fill="#2ca02c"/>
<circle cx="782.7" cy="129.3" r="2" fill="#2ca02c"/>
<circle cx="829.3" cy="128.5" r="2" fill="#2ca02c"/>
<circle cx="852.7" cy="119.5" r="2" fill="#2ca02c"/>
<circle cx="876.0" cy="126.9" r="2" fill="#2ca02c"/>
<circle cx="899.3" cy="120.3" r="2" fill="#2ca02c"/>
<circle cx="922.7" cy="121.0" r="2" fill="#2ca02c"/>
<circle cx="946.0" cy="120.7" r="2" fill="#2ca02c"/>
<polygon points="736.0,78.4 782.7,117.5 829.3,130.3 852.7,122.2 876.0,124.1 899.3,125.6 922.7,125.9 946.0,115.9 946.0,116.1 922.7,126.5 899.3,126.4 876.0,125.6 852.7,126.6 829.3,134.3 782.7,122.2 736.0,101.5" fill="#1f77b4" opacity="0.11"/>
<polyline points="736.0,90.0 782.7,121.1 829.3,131.2 852.7,122.8 876.0,125.0 899.3,126.0 922.7,126.4 946.0,116.0" fill="none" stroke="#1f77b4" stroke-width="1.6"/>
<circle cx="736.0" cy="90.0" r="2" fill="#1f77b4"/>
<circle cx="782.7" cy="121.1" r="2" fill="#1f77b4"/>
<circle cx="829.3" cy="131.2" r="2" fill="#1f77b4"/>
<circle cx="852.7" cy="122.8" r="2" fill="#1f77b4"/>
<circle cx="876.0" cy="125.0" r="2" fill="#1f77b4"/>
<circle cx="899.3" cy="126.0" r="2" fill="#1f77b4"/>
<circle cx="922.7" cy="126.4" r="2" fill="#1f77b4"/>
<circle cx="946.0" cy="116.0" r="2" fill="#1f77b4"/>
<text x="841.0" y="55" text-anchor="middle" font-size="12" font-weight="bold">zsyrk</text>
<text x="736" y="210" font-size="9" fill="#999">n=8</text>
<text x="946" y="210" text-anchor="end" font-size="9" fill="#999">4096</text>
<rect x="46" y="232" width="210" height="138" fill="none" stroke="#e2e2e2"/>
<line x1="46" y1="308.7769427251844" x2="256" y2="308.7769427251844" stroke="#bbb"/>
<line x1="46" y1="312.38259442323624" x2="256" y2="312.38259442323624" stroke="#d33" stroke-dasharray="4 3"/>
<text x="42" y="373.0" text-anchor="end" font-size="9" fill="#999">0.5×</text>
<text x="42" y="311.7769427251844" text-anchor="end" font-size="9" fill="#999">1.0×</text>
<polygon points="46.0,283.1 92.7,298.6 139.3,309.0 162.7,300.1 186.0,293.9 209.3,294.2 232.7,290.5 256.0,313.6 256.0,314.3 232.7,290.6 209.3,295.0 186.0,295.9 162.7,302.1 139.3,310.9 92.7,301.1 46.0,284.6" fill="#d62728" opacity="0.11"/>
<polyline points="46.0,283.6 92.7,299.2 139.3,309.6 162.7,300.3 186.0,294.5 209.3,294.4 232.7,290.5 256.0,314.0" fill="none" stroke="#d62728" stroke-width="1.6"/>
<circle cx="46.0" cy="283.6" r="2" fill="#d62728"/>
<circle cx="92.7" cy="299.2" r="2" fill="#d62728"/>
<circle cx="139.3" cy="309.6" r="2" fill="#d62728"/>
<circle cx="162.7" cy="300.3" r="2" fill="#d62728"/>
<circle cx="186.0" cy="294.5" r="2" fill="#d62728"/>
<circle cx="209.3" cy="294.4" r="2" fill="#d62728"/>
<circle cx="232.7" cy="290.5" r="2" fill="#d62728"/>
<circle cx="256.0" cy="314.0" r="2" fill="#d62728"/>
<polygon points="46.0,238.8 92.7,299.9 139.3,299.1 162.7,291.5 186.0,291.0 209.3,292.1 232.7,293.3 256.0,292.6 256.0,293.4 232.7,293.7 209.3,295.4 186.0,300.2 162.7,292.7 139.3,305.1 92.7,301.8 46.0,248.3" fill="#2ca02c" opacity="0.11"/>
<polyline points="46.0,240.2 92.7,301.0 139.3,301.3 162.7,291.9 186.0,299.0 209.3,293.6 232.7,293.5 256.0,293.0" fill="none" stroke="#2ca02c" stroke-width="1.6"/>
<circle cx="46.0" cy="240.2" r="2" fill="#2ca02c"/>
<circle cx="92.7" cy="301.0" r="2" fill="#2ca02c"/>
<circle cx="139.3" cy="301.3" r="2" fill="#2ca02c"/>
<circle cx="162.7" cy="291.9" r="2" fill="#2ca02c"/>
<circle cx="186.0" cy="299.0" r="2" fill="#2ca02c"/>
<circle cx="209.3" cy="293.6" r="2" fill="#2ca02c"/>
<circle cx="232.7" cy="293.5" r="2" fill="#2ca02c"/>
<circle cx="256.0" cy="293.0" r="2" fill="#2ca02c"/>
<polygon points="46.0,253.1 92.7,290.8 139.3,302.8 162.7,294.8 186.0,296.5 209.3,297.3 232.7,297.8 256.0,288.5 256.0,288.8 232.7,299.2 209.3,298.3 186.0,297.9 162.7,297.5 139.3,306.5 92.7,295.3 46.0,272.8" fill="#1f77b4" opacity="0.11"/>
<polyline points="46.0,262.7 92.7,294.4 139.3,303.8 162.7,295.5 186.0,297.2 209.3,297.8 232.7,299.0 256.0,288.7" fill="none" stroke="#1f77b4" stroke-width="1.6"/>
<circle cx="46.0" cy="262.7" r="2" fill="#1f77b4"/>
<circle cx="92.7" cy="294.4" r="2" fill="#1f77b4"/>
<circle cx="139.3" cy="303.8" r="2" fill="#1f77b4"/>
<circle cx="162.7" cy="295.5" r="2" fill="#1f77b4"/>
<circle cx="186.0" cy="297.2" r="2" fill="#1f77b4"/>
<circle cx="209.3" cy="297.8" r="2" fill="#1f77b4"/>
<circle cx="232.7" cy="299.0" r="2" fill="#1f77b4"/>
<circle cx="256.0" cy="288.7" r="2" fill="#1f77b4"/>
<text x="151.0" y="227" text-anchor="middle" font-size="12" font-weight="bold">zherk</text>
<text x="46" y="382" font-size="9" fill="#999">n=8</text>
<text x="256" y="382" text-anchor="end" font-size="9" fill="#999">4096</text>
<rect x="276" y="232" width="210" height="138" fill="none" stroke="#e2e2e2"/>
<line x1="276" y1="300.3827760774865" x2="486" y2="300.3827760774865" stroke="#bbb"/>
<line x1="276" y1="304.48279121595164" x2="486" y2="304.48279121595164" stroke="#d33" stroke-dasharray="4 3"/>
<text x="272" y="373.0" text-anchor="end" font-size="9" fill="#999">0.5×</text>
<text x="272" y="303.3827760774865" text-anchor="end" font-size="9" fill="#999">1.0×</text>
<polygon points="276.0,256.0 322.7,297.9 369.3,303.9 392.7,291.9 416.0,284.8 439.3,284.2 462.7,278.6 486.0,305.1 486.0,305.5 462.7,279.7 439.3,285.1 416.0,286.4 392.7,294.1 369.3,306.1 322.7,303.3 276.0,258.2" fill="#d62728" opacity="0.11"/>
<polyline points="276.0,257.1 322.7,299.7 369.3,304.2 392.7,292.0 416.0,285.1 439.3,284.6 462.7,279.0 486.0,305.3" fill="none" stroke="#d62728" stroke-width="1.6"/>
<circle cx="276.0" cy="257.1" r="2" fill="#d62728"/>
<circle cx="322.7" cy="299.7" r="2" fill="#d62728"/>
<circle cx="369.3" cy="304.2" r="2" fill="#d62728"/>
<circle cx="392.7" cy="292.0" r="2" fill="#d62728"/>
<circle cx="416.0" cy="285.1" r="2" fill="#d62728"/>
<circle cx="439.3" cy="284.6" r="2" fill="#d62728"/>
<circle cx="462.7" cy="279.0" r="2" fill="#d62728"/>
<circle cx="486.0" cy="305.3" r="2" fill="#d62728"/>
<polygon points="276.0,239.7 322.7,297.4 369.3,290.1 392.7,280.4 416.0,281.8 439.3,281.6 462.7,282.7 486.0,285.2 486.0,285.3 462.7,283.2 439.3,283.6 416.0,285.6 392.7,282.5 369.3,295.1 322.7,298.6 276.0,251.5" fill="#2ca02c" opacity="0.11"/>
<polyline points="276.0,249.6 322.7,298.1 369.3,292.0 392.7,281.5 416.0,283.9 439.3,283.1 462.7,283.1 486.0,285.3" fill="none" stroke="#2ca02c" stroke-width="1.6"/>
<circle cx="276.0" cy="249.6" r="2" fill="#2ca02c"/>
<circle cx="322.7" cy="298.1" r="2" fill="#2ca02c"/>
<circle cx="369.3" cy="292.0" r="2" fill="#2ca02c"/>
<circle cx="392.7" cy="281.5" r="2" fill="#2ca02c"/>
<circle cx="416.0" cy="283.9" r="2" fill="#2ca02c"/>
<circle cx="439.3" cy="283.1" r="2" fill="#2ca02c"/>
<circle cx="462.7" cy="283.1" r="2" fill="#2ca02c"/>
<circle cx="486.0" cy="285.3" r="2" fill="#2ca02c"/>
<polygon points="276.0,267.1 322.7,294.2 369.3,296.3 392.7,286.8 416.0,286.0 439.3,288.4 462.7,286.5 486.0,278.5 486.0,278.6 462.7,290.0 439.3,289.1 416.0,287.4 392.7,291.1 369.3,299.7 322.7,297.7 276.0,279.3" fill="#1f77b4" opacity="0.11"/>
<polyline points="276.0,276.2 322.7,295.3 369.3,298.4 392.7,287.4 416.0,286.8 439.3,288.7 462.7,289.0 486.0,278.5" fill="none" stroke="#1f77b4" stroke-width="1.6"/>
<circle cx="276.0" cy="276.2" r="2" fill="#1f77b4"/>
<circle cx="322.7" cy="295.3" r="2" fill="#1f77b4"/>
<circle cx="369.3" cy="298.4" r="2" fill="#1f77b4"/>
<circle cx="392.7" cy="287.4" r="2" fill="#1f77b4"/>
<circle cx="416.0" cy="286.8" r="2" fill="#1f77b4"/>
<circle cx="439.3" cy="288.7" r="2" fill="#1f77b4"/>
<circle cx="462.7" cy="289.0" r="2" fill="#1f77b4"/>
<circle cx="486.0" cy="278.5" r="2" fill="#1f77b4"/>
<text x="381.0" y="227" text-anchor="middle" font-size="12" font-weight="bold">zher2k</text>
<text x="276" y="382" font-size="9" fill="#999">n=8</text>
<text x="486" y="382" text-anchor="end" font-size="9" fill="#999">4096</text>
<rect x="506" y="232" width="210" height="138" fill="none" stroke="#e2e2e2"/>
<line x1="506" y1="294.58736962579326" x2="716" y2="294.58736962579326" stroke="#bbb"/>
<line x1="506" y1="299.0286976297635" x2="716" y2="299.0286976297635" stroke="#d33" stroke-dasharray="4 3"/>
<text x="502" y="373.0" text-anchor="end" font-size="9" fill="#999">0.5×</text>
<text x="502" y="297.58736962579326" text-anchor="end" font-size="9" fill="#999">1.0×</text>
<polygon points="506.0,242.9 552.7,290.5 599.3,299.4 622.7,286.6 646.0,278.9 669.3,277.4 692.7,270.9 716.0,298.7 716.0,299.8 692.7,271.9 669.3,277.8 646.0,279.7 622.7,288.4 599.3,300.8 552.7,295.3 506.0,245.7" fill="#d62728" opacity="0.11"/>
<polyline points="506.0,244.6 552.7,292.4 599.3,300.1 622.7,286.9 646.0,279.2 669.3,277.6 692.7,271.1 716.0,299.2" fill="none" stroke="#d62728" stroke-width="1.6"/>
<circle cx="506.0" cy="244.6" r="2" fill="#d62728"/>
<circle cx="552.7" cy="292.4" r="2" fill="#d62728"/>
<circle cx="599.3" cy="300.1" r="2" fill="#d62728"/>
<circle cx="622.7" cy="286.9" r="2" fill="#d62728"/>
<circle cx="646.0" cy="279.2" r="2" fill="#d62728"/>
<circle cx="669.3" cy="277.6" r="2" fill="#d62728"/>
<circle cx="692.7" cy="271.1" r="2" fill="#d62728"/>
<circle cx="716.0" cy="299.2" r="2" fill="#d62728"/>
<polygon points="506.0,240.4 552.7,288.9 599.3,284.1 622.7,273.4 646.0,274.8 669.3,273.9 692.7,274.9 716.0,276.9 716.0,277.2 692.7,275.6 669.3,276.3 646.0,278.2 622.7,275.4 599.3,288.5 552.7,291.1 506.0,246.8" fill="#2ca02c" opacity="0.11"/>
<polyline points="506.0,241.6 552.7,290.0 599.3,285.5 622.7,274.4 646.0,276.9 669.3,274.8 692.7,275.3 716.0,277.0" fill="none" stroke="#2ca02c" stroke-width="1.6"/>
<circle cx="506.0" cy="241.6" r="2" fill="#2ca02c"/>
<circle cx="552.7" cy="290.0" r="2" fill="#2ca02c"/>
<circle cx="599.3" cy="285.5" r="2" fill="#2ca02c"/>
<circle cx="622.7" cy="274.4" r="2" fill="#2ca02c"/>
<circle cx="646.0" cy="276.9" r="2" fill="#2ca02c"/>
<circle cx="669.3" cy="274.8" r="2" fill="#2ca02c"/>
<circle cx="692.7" cy="275.3" r="2" fill="#2ca02c"/>
<circle cx="716.0" cy="277.0" r="2" fill="#2ca02c"/>
<polygon points="506.0,256.9 552.7,286.7 599.3,290.0 622.7,279.7 646.0,279.2 669.3,281.3 692.7,281.1 716.0,270.3 716.0,270.5 692.7,283.2 669.3,282.3 646.0,280.8 622.7,283.1 599.3,293.3 552.7,290.5 506.0,269.2" fill="#1f77b4" opacity="0.11"/>
<polyline points="506.0,266.0 552.7,289.1 599.3,292.4 622.7,280.8 646.0,280.1 669.3,282.0 692.7,282.1 716.0,270.4" fill="none" stroke="#1f77b4" stroke-width="1.6"/>
<circle cx="506.0" cy="266.0" r="2" fill="#1f77b4"/>
<circle cx="552.7" cy="289.1" r="2" fill="#1f77b4"/>
<circle cx="599.3" cy="292.4" r="2" fill="#1f77b4"/>
<circle cx="622.7" cy="280.8" r="2" fill="#1f77b4"/>
<circle cx="646.0" cy="280.1" r="2" fill="#1f77b4"/>
<circle cx="669.3" cy="282.0" r="2" fill="#1f77b4"/>
<circle cx="692.7" cy="282.1" r="2" fill="#1f77b4"/>
<circle cx="716.0" cy="270.4" r="2" fill="#1f77b4"/>
<text x="611.0" y="227" text-anchor="middle" font-size="12" font-weight="bold">zsyr2k</text>
<text x="506" y="382" font-size="9" fill="#999">n=8</text>
<text x="716" y="382" text-anchor="end" font-size="9" fill="#999">4096</text>
<rect x="736" y="232" width="210" height="138" fill="none" stroke="#e2e2e2"/>
<line x1="736" y1="287.7627611906553" x2="946" y2="287.7627611906553" stroke="#bbb"/>
<line x1="736" y1="292.6060155617169" x2="946" y2="292.6060155617169" stroke="#d33" stroke-dasharray="4 3"/>
<text x="732" y="373.0" text-anchor="end" font-size="9" fill="#999">0.5×</text>
<text x="732" y="290.7627611906553" text-anchor="end" font-size="9" fill="#999">1.0×</text>
<text x="732" y="235.0" text-anchor="end" font-size="9" fill="#999">1.6×</text>
<polygon points="736.0,293.3 782.7,310.2 829.3,295.9 852.7,288.6 876.0,282.6 899.3,275.2 922.7,270.2 946.0,291.9 946.0,292.5 922.7,271.5 899.3,276.5 876.0,283.5 852.7,289.8 829.3,296.7 782.7,311.9 736.0,295.3" fill="#d62728" opacity="0.11"/>
<polyline points="736.0,294.2 782.7,310.9 829.3,296.3 852.7,289.1 876.0,283.4 899.3,276.4 922.7,271.1 946.0,292.2" fill="none" stroke="#d62728" stroke-width="1.6"/>
<circle cx="736.0" cy="294.2" r="2" fill="#d62728"/>
<circle cx="782.7" cy="310.9" r="2" fill="#d62728"/>
<circle cx="829.3" cy="296.3" r="2" fill="#d62728"/>
<circle cx="852.7" cy="289.1" r="2" fill="#d62728"/>
<circle cx="876.0" cy="283.4" r="2" fill="#d62728"/>
<circle cx="899.3" cy="276.4" r="2" fill="#d62728"/>
<circle cx="922.7" cy="271.1" r="2" fill="#d62728"/>
<circle cx="946.0" cy="292.2" r="2" fill="#d62728"/>
<polygon points="736.0,242.4 782.7,292.7 829.3,279.7 852.7,274.5 876.0,269.7 899.3,271.2 922.7,270.6 946.0,268.7 946.0,270.2 922.7,270.9 899.3,272.0 876.0,270.6 852.7,275.2 829.3,282.4 782.7,293.9 736.0,260.9" fill="#2ca02c" opacity="0.11"/>
<polyline points="736.0,258.5 782.7,293.3 829.3,281.7 852.7,274.8 876.0,270.1 899.3,271.6 922.7,270.8 946.0,269.5" fill="none" stroke="#2ca02c" stroke-width="1.6"/>
<circle cx="736.0" cy="258.5" r="2" fill="#2ca02c"/>
<circle cx="782.7" cy="293.3" r="2" fill="#2ca02c"/>
<circle cx="829.3" cy="281.7" r="2" fill="#2ca02c"/>
<circle cx="852.7" cy="274.8" r="2" fill="#2ca02c"/>
<circle cx="876.0" cy="270.1" r="2" fill="#2ca02c"/>
<circle cx="899.3" cy="271.6" r="2" fill="#2ca02c"/>
<circle cx="922.7" cy="270.8" r="2" fill="#2ca02c"/>
<circle cx="946.0" cy="269.5" r="2" fill="#2ca02c"/>
<polygon points="736.0,276.6 782.7,282.6 829.3,275.1 852.7,277.8 876.0,278.1 899.3,276.5 922.7,274.4 946.0,271.5 946.0,273.0 922.7,278.9 899.3,277.8 876.0,280.3 852.7,287.1 829.3,284.1 782.7,285.8 736.0,287.6" fill="#1f77b4" opacity="0.11"/>
<polyline points="736.0,279.0 782.7,284.2 829.3,280.3 852.7,281.7 876.0,280.1 899.3,277.3 922.7,276.2 946.0,272.3" fill="none" stroke="#1f77b4" stroke-width="1.6"/>
<circle cx="736.0" cy="279.0" r="2" fill="#1f77b4"/>
<circle cx="782.7" cy="284.2" r="2" fill="#1f77b4"/>
<circle cx="829.3" cy="280.3" r="2" fill="#1f77b4"/>
<circle cx="852.7" cy="281.7" r="2" fill="#1f77b4"/>
<circle cx="876.0" cy="280.1" r="2" fill="#1f77b4"/>
<circle cx="899.3" cy="277.3" r="2" fill="#1f77b4"/>
<circle cx="922.7" cy="276.2" r="2" fill="#1f77b4"/>
<circle cx="946.0" cy="272.3" r="2" fill="#1f77b4"/>
<text x="841.0" y="227" text-anchor="middle" font-size="12" font-weight="bold">ztrmm</text>
<text x="736" y="382" font-size="9" fill="#999">n=8</text>
<text x="946" y="382" text-anchor="end" font-size="9" fill="#999">4096</text>
<rect x="46" y="404" width="210" height="138" fill="none" stroke="#e2e2e2"/>
<line x1="46" y1="459.7627611906553" x2="256" y2="459.7627611906553" stroke="#bbb"/>
<line x1="46" y1="464.6060155617169" x2="256" y2="464.6060155617169" stroke="#d33" stroke-dasharray="4 3"/>
<text x="42" y="545.0" text-anchor="end" font-size="9" fill="#999">0.5×</text>
<text x="42" y="462.7627611906553" text-anchor="end" font-size="9" fill="#999">1.0×</text>
<text x="42" y="407.0" text-anchor="end" font-size="9" fill="#999">1.6×</text>
<polygon points="46.0,429.2 92.7,454.7 139.3,472.2 162.7,457.7 186.0,446.1 209.3,441.2 232.7,438.8 256.0,459.3 256.0,460.1 232.7,439.6 209.3,442.1 186.0,446.9 162.7,458.2 139.3,473.3 92.7,455.7 46.0,430.5" fill="#d62728" opacity="0.11"/>
<polyline points="46.0,429.7 92.7,455.2 139.3,472.9 162.7,458.0 186.0,446.7 209.3,442.0 232.7,439.2 256.0,459.7" fill="none" stroke="#d62728" stroke-width="1.6"/>
<circle cx="46.0" cy="429.7" r="2" fill="#d62728"/>
<circle cx="92.7" cy="455.2" r="2" fill="#d62728"/>
<circle cx="139.3" cy="472.9" r="2" fill="#d62728"/>
<circle cx="162.7" cy="458.0" r="2" fill="#d62728"/>
<circle cx="186.0" cy="446.7" r="2" fill="#d62728"/>
<circle cx="209.3" cy="442.0" r="2" fill="#d62728"/>
<circle cx="232.7" cy="439.2" r="2" fill="#d62728"/>
<circle cx="256.0" cy="459.7" r="2" fill="#d62728"/>
<polygon points="46.0,416.7 92.7,454.8 139.3,429.4 162.7,437.9 186.0,435.0 209.3,439.0 232.7,442.4 256.0,441.3 256.0,441.6 232.7,443.5 209.3,439.3 186.0,435.7 162.7,438.5 139.3,431.1 92.7,456.2 46.0,427.5" fill="#2ca02c" opacity="0.11"/>
<polyline points="46.0,424.5 92.7,455.5 139.3,430.0 162.7,438.2 186.0,435.5 209.3,439.2 232.7,443.0 256.0,441.5" fill="none" stroke="#2ca02c" stroke-width="1.6"/>
<circle cx="46.0" cy="424.5" r="2" fill="#2ca02c"/>
<circle cx="92.7" cy="455.5" r="2" fill="#2ca02c"/>
<circle cx="139.3" cy="430.0" r="2" fill="#2ca02c"/>
<circle cx="162.7" cy="438.2" r="2" fill="#2ca02c"/>
<circle cx="186.0" cy="435.5" r="2" fill="#2ca02c"/>
<circle cx="209.3" cy="439.2" r="2" fill="#2ca02c"/>
<circle cx="232.7" cy="443.0" r="2" fill="#2ca02c"/>
<circle cx="256.0" cy="441.5" r="2" fill="#2ca02c"/>
<polygon points="46.0,443.9 92.7,460.2 139.3,446.7 162.7,443.6 186.0,443.7 209.3,443.5 232.7,445.3 256.0,434.6 256.0,442.3 232.7,447.2 209.3,445.6 186.0,444.3 162.7,446.8 139.3,451.3 92.7,464.0 46.0,454.9" fill="#1f77b4" opacity="0.11"/>
<polyline points="46.0,452.8 92.7,463.2 139.3,449.6 162.7,445.5 186.0,444.1 209.3,444.9 232.7,446.5 256.0,438.4" fill="none" stroke="#1f77b4" stroke-width="1.6"/>
<circle cx="46.0" cy="452.8" r="2" fill="#1f77b4"/>
<circle cx="92.7" cy="463.2" r="2" fill="#1f77b4"/>
<circle cx="139.3" cy="449.6" r="2" fill="#1f77b4"/>
<circle cx="162.7" cy="445.5" r="2" fill="#1f77b4"/>
<circle cx="186.0" cy="444.1" r="2" fill="#1f77b4"/>
<circle cx="209.3" cy="444.9" r="2" fill="#1f77b4"/>
<circle cx="232.7" cy="446.5" r="2" fill="#1f77b4"/>
<circle cx="256.0" cy="438.4" r="2" fill="#1f77b4"/>
<text x="151.0" y="399" text-anchor="middle" font-size="12" font-weight="bold">ztrsm</text>
<text x="46" y="554" font-size="9" fill="#999">n=8</text>
<text x="256" y="554" text-anchor="end" font-size="9" fill="#999">4096</text>
<rect x="276" y="404" width="210" height="138" fill="none" stroke="#e2e2e2"/>
<line x1="276" y1="459.7627611906553" x2="486" y2="459.7627611906553" stroke="#bbb"/>
<line x1="276" y1="464.6060155617169" x2="486" y2="464.6060155617169" stroke="#d33" stroke-dasharray="4 3"/>
<text x="272" y="545.0" text-anchor="end" font-size="9" fill="#999">0.5×</text>
<text x="272" y="462.7627611906553" text-anchor="end" font-size="9" fill="#999">1.0×</text>
<text x="272" y="407.0" text-anchor="end" font-size="9" fill="#999">1.6×</text>
<polygon points="276.0,457.4 322.7,488.5 369.3,461.2 392.7,454.4 416.0,447.5 439.3,442.5 462.7,438.0 486.0,464.9 486.0,465.1 462.7,439.0 439.3,443.8 416.0,448.2 392.7,455.5 369.3,461.9 322.7,491.6 276.0,460.1" fill="#d62728" opacity="0.11"/>
<polyline points="276.0,458.4 322.7,489.3 369.3,461.7 392.7,455.1 416.0,448.0 439.3,443.5 462.7,438.3 486.0,465.0" fill="none" stroke="#d62728" stroke-width="1.6"/>
<circle cx="276.0" cy="458.4" r="2" fill="#d62728"/>
<circle cx="322.7" cy="489.3" r="2" fill="#d62728"/>
<circle cx="369.3" cy="461.7" r="2" fill="#d62728"/>
<circle cx="392.7" cy="455.1" r="2" fill="#d62728"/>
<circle cx="416.0" cy="448.0" r="2" fill="#d62728"/>
<circle cx="439.3" cy="443.5" r="2" fill="#d62728"/>
<circle cx="462.7" cy="438.3" r="2" fill="#d62728"/>
<circle cx="486.0" cy="465.0" r="2" fill="#d62728"/>
<polygon points="276.0,420.0 322.7,465.0 369.3,449.8 392.7,441.4 416.0,440.4 439.3,442.2 462.7,442.3 486.0,439.2 486.0,441.7 462.7,442.8 439.3,442.7 416.0,441.8 392.7,442.5 369.3,453.8 322.7,467.5 276.0,430.2" fill="#2ca02c" opacity="0.11"/>
<polyline points="276.0,426.2 322.7,466.1 369.3,450.7 392.7,441.9 416.0,441.1 439.3,442.3 462.7,442.4 486.0,440.5" fill="none" stroke="#2ca02c" stroke-width="1.6"/>
<circle cx="276.0" cy="426.2" r="2" fill="#2ca02c"/>
<circle cx="322.7" cy="466.1" r="2" fill="#2ca02c"/>
<circle cx="369.3" cy="450.7" r="2" fill="#2ca02c"/>
<circle cx="392.7" cy="441.9" r="2" fill="#2ca02c"/>
<circle cx="416.0" cy="441.1" r="2" fill="#2ca02c"/>
<circle cx="439.3" cy="442.3" r="2" fill="#2ca02c"/>
<circle cx="462.7" cy="442.4" r="2" fill="#2ca02c"/>
<circle cx="486.0" cy="440.5" r="2" fill="#2ca02c"/>
<polygon points="276.0,441.1 322.7,436.0 369.3,442.3 392.7,446.0 416.0,451.2 439.3,451.8 462.7,448.4 486.0,439.6 486.0,442.5 462.7,449.4 439.3,453.9 416.0,451.8 392.7,453.4 369.3,449.1 322.7,441.3 276.0,454.8" fill="#1f77b4" opacity="0.11"/>
<polyline points="276.0,445.3 322.7,437.5 369.3,445.3 392.7,451.8 416.0,451.6 439.3,453.3 462.7,448.9 486.0,441.0" fill="none" stroke="#1f77b4" stroke-width="1.6"/>
<circle cx="276.0" cy="445.3" r="2" fill="#1f77b4"/>
<circle cx="322.7" cy="437.5" r="2" fill="#1f77b4"/>
<circle cx="369.3" cy="445.3" r="2" fill="#1f77b4"/>
<circle cx="392.7" cy="451.8" r="2" fill="#1f77b4"/>
<circle cx="416.0" cy="451.6" r="2" fill="#1f77b4"/>
<circle cx="439.3" cy="453.3" r="2" fill="#1f77b4"/>
<circle cx="462.7" cy="448.9" r="2" fill="#1f77b4"/>
<circle cx="486.0" cy="441.0" r="2" fill="#1f77b4"/>
<text x="381.0" y="399" text-anchor="middle" font-size="12" font-weight="bold">ztrmmR</text>
<text x="276" y="554" font-size="9" fill="#999">n=8</text>
<text x="486" y="554" text-anchor="end" font-size="9" fill="#999">4096</text>
<rect x="506" y="404" width="210" height="138" fill="none" stroke="#e2e2e2"/>
<line x1="506" y1="473.55422285763666" x2="716" y2="473.55422285763666" stroke="#bbb"/>
<line x1="506" y1="477.58524717368886" x2="716" y2="477.58524717368886" stroke="#d33" stroke-dasharray="4 3"/>
<text x="502" y="545.0" text-anchor="end" font-size="9" fill="#999">0.5×</text>
<text x="502" y="476.55422285763666" text-anchor="end" font-size="9" fill="#999">1.0×</text>
<text x="502" y="407.12588653135145" text-anchor="end" font-size="9" fill="#999">2.02×</text>
<polygon points="506.0,421.4 552.7,428.3 599.3,464.8 622.7,462.5 646.0,460.0 669.3,460.2 692.7,455.8 716.0,475.1 716.0,475.6 692.7,456.4 669.3,461.1 646.0,460.7 622.7,462.9 599.3,465.3 552.7,430.2 506.0,423.3" fill="#d62728" opacity="0.11"/>
<polyline points="506.0,421.8 552.7,429.3 599.3,465.1 622.7,462.7 646.0,460.6 669.3,461.0 692.7,456.0 716.0,475.3" fill="none" stroke="#d62728" stroke-width="1.6"/>
<circle cx="506.0" cy="421.8" r="2" fill="#d62728"/>
<circle cx="552.7" cy="429.3" r="2" fill="#d62728"/>
<circle cx="599.3" cy="465.1" r="2" fill="#d62728"/>
<circle cx="622.7" cy="462.7" r="2" fill="#d62728"/>
<circle cx="646.0" cy="460.6" r="2" fill="#d62728"/>
<circle cx="669.3" cy="461.0" r="2" fill="#d62728"/>
<circle cx="692.7" cy="456.0" r="2" fill="#d62728"/>
<circle cx="716.0" cy="475.3" r="2" fill="#d62728"/>
<polygon points="506.0,411.6 552.7,420.5 599.3,425.0 622.7,438.1 646.0,446.3 669.3,452.9 692.7,458.5 716.0,459.0 716.0,459.1 692.7,459.0 669.3,453.3 646.0,446.9 622.7,438.6 599.3,426.0 552.7,423.0 506.0,414.8" fill="#2ca02c" opacity="0.11"/>
<polyline points="506.0,413.5 552.7,421.8 599.3,425.6 622.7,438.4 646.0,446.6 669.3,453.1 692.7,458.8 716.0,459.1" fill="none" stroke="#2ca02c" stroke-width="1.6"/>
<circle cx="506.0" cy="413.5" r="2" fill="#2ca02c"/>
<circle cx="552.7" cy="421.8" r="2" fill="#2ca02c"/>
<circle cx="599.3" cy="425.6" r="2" fill="#2ca02c"/>
<circle cx="622.7" cy="438.4" r="2" fill="#2ca02c"/>
<circle cx="646.0" cy="446.6" r="2" fill="#2ca02c"/>
<circle cx="669.3" cy="453.1" r="2" fill="#2ca02c"/>
<circle cx="692.7" cy="458.8" r="2" fill="#2ca02c"/>
<circle cx="716.0" cy="459.1" r="2" fill="#2ca02c"/>
<polygon points="506.0,424.2 552.7,433.2 599.3,434.2 622.7,445.4 646.0,455.4 669.3,460.9 692.7,463.3 716.0,452.3 716.0,462.7 692.7,464.2 669.3,462.8 646.0,456.5 622.7,449.6 599.3,438.3 552.7,437.1 506.0,436.9" fill="#1f77b4" opacity="0.11"/>
<polyline points="506.0,433.5 552.7,435.4 599.3,436.8 622.7,447.1 646.0,455.6 669.3,462.0 692.7,463.7 716.0,457.4" fill="none" stroke="#1f77b4" stroke-width="1.6"/>
<circle cx="506.0" cy="433.5" r="2" fill="#1f77b4"/>
<circle cx="552.7" cy="435.4" r="2" fill="#1f77b4"/>
<circle cx="599.3" cy="436.8" r="2" fill="#1f77b4"/>
<circle cx="622.7" cy="447.1" r="2" fill="#1f77b4"/>
<circle cx="646.0" cy="455.6" r="2" fill="#1f77b4"/>
<circle cx="669.3" cy="462.0" r="2" fill="#1f77b4"/>
<circle cx="692.7" cy="463.7" r="2" fill="#1f77b4"/>
<circle cx="716.0" cy="457.4" r="2" fill="#1f77b4"/>
<text x="611.0" y="399" text-anchor="middle" font-size="12" font-weight="bold">ztrsmR</text>
<text x="506" y="554" font-size="9" fill="#999">n=8</text>
<text x="716" y="554" text-anchor="end" font-size="9" fill="#999">4096</text>
</svg>
