<svg xmlns="http://www.w3.org/2000/svg" width="900" height="460" font-family="sans-serif">
<rect width="900" height="460" fill="white"/>
<text x="450.0" y="28" text-anchor="middle" font-size="18" font-weight="bold">LAPACK: PureBLAS / OpenBLAS (AVX-512, 1 thread, Float64)</text>
<line x1="62" y1="400.0" x2="768" y2="400.0" stroke="#eee"/>
<text x="54" y="404.0" text-anchor="end" font-size="11" fill="#666">0.5×</text>
<line x1="62" y1="336.06317626744857" x2="768" y2="336.06317626744857" stroke="#eee"/>
<text x="54" y="340.06317626744857" text-anchor="end" font-size="11" fill="#666">0.7×</text>
<line x1="62" y1="268.287411914858" x2="768" y2="268.287411914858" stroke="#eee"/>
<text x="54" y="272.287411914858" text-anchor="end" font-size="11" fill="#666">1.0×</text>
<line x1="62" y1="191.24048701211788" x2="768" y2="191.24048701211788" stroke="#eee"/>
<text x="54" y="195.24048701211788" text-anchor="end" font-size="11" fill="#666">1.5×</text>
<line x1="62" y1="136.57482382971614" x2="768" y2="136.57482382971614" stroke="#eee"/>
<text x="54" y="140.57482382971614" text-anchor="end" font-size="11" fill="#666">2.0×</text>
<line x1="62" y1="59.52789892697592" x2="768" y2="59.52789892697592" stroke="#eee"/>
<text x="54" y="63.52789892697592" text-anchor="end" font-size="11" fill="#666">3.0×</text>
<line x1="62.0" y1="50" x2="62.0" y2="400" stroke="#f4f4f4"/>
<text x="62.0" y="418" text-anchor="middle" font-size="11" fill="#444">8</text>
<line x1="238.5" y1="50" x2="238.5" y2="400" stroke="#f4f4f4"/>
<text x="238.5" y="418" text-anchor="middle" font-size="11" fill="#444">32</text>
<line x1="415.0" y1="50" x2="415.0" y2="400" stroke="#f4f4f4"/>
<text x="415.0" y="418" text-anchor="middle" font-size="11" fill="#444">128</text>
<line x1="503.25" y1="50" x2="503.25" y2="400" stroke="#f4f4f4"/>
<text x="503.25" y="418" text-anchor="middle" font-size="11" fill="#444">256</text>
<line x1="591.5" y1="50" x2="591.5" y2="400" stroke="#f4f4f4"/>
<text x="591.5" y="418" text-anchor="middle" font-size="11" fill="#444">512</text>
<line x1="679.75" y1="50" x2="679.75" y2="400" stroke="#f4f4f4"/>
<text x="679.75" y="418" text-anchor="middle" font-size="11" fill="#444">1024</text>
<line x1="768.0" y1="50" x2="768.0" y2="400" stroke="#f4f4f4"/>
<text x="768.0" y="418" text-anchor="middle" font-size="11" fill="#444">2048</text>
<line x1="62" y1="268.287411914858" x2="768" y2="268.287411914858" stroke="#888"/>
<line x1="62" y1="276.04445212198516" x2="768" y2="276.04445212198516" stroke="#d33" stroke-width="1.5" stroke-dasharray="6 4"/>
<text x="66" y="271.04445212198516" font-size="11" fill="#d33">0.96× gate</text>
<polygon points="62.0,199.0 238.5,206.1 415.0,193.1 503.2,202.0 591.5,206.2 679.8,238.2 768.0,252.6 768.0,253.5 679.8,239.1 591.5,217.2 503.2,208.4 415.0,206.3 238.5,211.0 62.0,221.0" fill="#1f77b4" opacity="0.14" stroke="none"/>
<polyline points="62.0,205.3 238.5,208.8 415.0,200.9 503.2,203.4 591.5,207.1 679.8,238.4 768.0,253.0" fill="none" stroke="#1f77b4" stroke-width="2"/>
<circle cx="62.0" cy="205.3" r="3" fill="#1f77b4"/>
<circle cx="238.5" cy="208.8" r="3" fill="#1f77b4"/>
<circle cx="415.0" cy="200.9" r="3" fill="#1f77b4"/>
<circle cx="503.2" cy="203.4" r="3" fill="#1f77b4"/>
<circle cx="591.5" cy="207.1" r="3" fill="#1f77b4"/>
<circle cx="679.8" cy="238.4" r="3" fill="#1f77b4"/>
<circle cx="768.0" cy="253.0" r="3" fill="#1f77b4"/>
<line x1="782" y1="56" x2="802" y2="56" stroke="#1f77b4" stroke-width="3"/>
<text x="806" y="60" font-size="12">potrf</text>
<polygon points="62.0,70.7 238.5,200.9 415.0,195.8 503.2,215.5 591.5,179.1 679.8,211.4 768.0,237.3 768.0,238.6 679.8,215.4 591.5,179.3 503.2,218.3 415.0,198.6 238.5,202.8 62.0,83.8" fill="#d62728" opacity="0.14" stroke="none"/>
<polyline points="62.0,76.6 238.5,201.8 415.0,197.3 503.2,217.4 591.5,179.2 679.8,212.6 768.0,238.0" fill="none" stroke="#d62728" stroke-width="2"/>
<circle cx="62.0" cy="76.6" r="3" fill="#d62728"/>
<circle cx="238.5" cy="201.8" r="3" fill="#d62728"/>
<circle cx="415.0" cy="197.3" r="3" fill="#d62728"/>
<circle cx="503.2" cy="217.4" r="3" fill="#d62728"/>
<circle cx="591.5" cy="179.2" r="3" fill="#d62728"/>
<circle cx="679.8" cy="212.6" r="3" fill="#d62728"/>
<circle cx="768.0" cy="238.0" r="3" fill="#d62728"/>
<line x1="782" y1="74" x2="802" y2="74" stroke="#d62728" stroke-width="3"/>
<text x="806" y="78" font-size="12">geqrf</text>
<polygon points="62.0,144.8 238.5,172.6 415.0,212.2 503.2,238.2 591.5,242.8 679.8,246.8 768.0,262.8 768.0,263.0 679.8,247.2 591.5,244.9 503.2,242.6 415.0,218.6 238.5,176.3 62.0,150.6" fill="#2ca02c" opacity="0.14" stroke="none"/>
<polyline points="62.0,147.4 238.5,175.4 415.0,217.3 503.2,239.6 591.5,244.3 679.8,247.0 768.0,262.9" fill="none" stroke="#2ca02c" stroke-width="2"/>
<circle cx="62.0" cy="147.4" r="3" fill="#2ca02c"/>
<circle cx="238.5" cy="175.4" r="3" fill="#2ca02c"/>
<circle cx="415.0" cy="217.3" r="3" fill="#2ca02c"/>
<circle cx="503.2" cy="239.6" r="3" fill="#2ca02c"/>
<circle cx="591.5" cy="244.3" r="3" fill="#2ca02c"/>
<circle cx="679.8" cy="247.0" r="3" fill="#2ca02c"/>
<circle cx="768.0" cy="262.9" r="3" fill="#2ca02c"/>
<line x1="782" y1="92" x2="802" y2="92" stroke="#2ca02c" stroke-width="3"/>
<text x="806" y="96" font-size="12">getrf</text>
<polygon points="62.0,172.7 238.5,200.0 415.0,261.1 503.2,216.5 591.5,211.0 679.8,217.2 768.0,246.4 768.0,249.1 679.8,217.7 591.5,211.3 503.2,219.2 415.0,261.3 238.5,221.4 62.0,173.8" fill="#9467bd" opacity="0.14" stroke="none"/>
<polyline points="62.0,173.3 238.5,220.8 415.0,261.2 503.2,217.7 591.5,211.2 679.8,217.3 768.0,247.7" fill="none" stroke="#9467bd" stroke-width="2"/>
<circle cx="62.0" cy="173.3" r="3" fill="#9467bd"/>
<circle cx="238.5" cy="220.8" r="3" fill="#9467bd"/>
<circle cx="415.0" cy="261.2" r="3" fill="#9467bd"/>
<circle cx="503.2" cy="217.7" r="3" fill="#9467bd"/>
<circle cx="591.5" cy="211.2" r="3" fill="#9467bd"/>
<circle cx="679.8" cy="217.3" r="3" fill="#9467bd"/>
<circle cx="768.0" cy="247.7" r="3" fill="#9467bd"/>
<line x1="782" y1="110" x2="802" y2="110" stroke="#9467bd" stroke-width="3"/>
<text x="806" y="114" font-size="12">gesvd</text>
<text x="415.0" y="450" text-anchor="middle" font-size="11" fill="#666">matrix size n (log) · y = median ratio (log) · dashed = the 0.96× gate</text>
</svg>
