<svg xmlns="http://www.w3.org/2000/svg" width="900" height="440" font-family="sans-serif">
<rect width="900" height="440" fill="white"/>
<text x="450.0" y="28" text-anchor="middle" font-size="18" font-weight="bold">BLAS-1: PureBLAS / OpenBLAS (AVX2, 1 thread, Float64)</text>
<line x1="60" y1="358.0" x2="880" y2="358.0" stroke="#eee"/>
<text x="52" y="362.0" text-anchor="end" font-size="11" fill="#666">0×</text>
<line x1="60" y1="339.84172854309986" x2="880" y2="339.84172854309986" stroke="#eee"/>
<text x="52" y="343.84172854309986" text-anchor="end" font-size="11" fill="#666">0.5×</text>
<line x1="60" y1="321.68345708619967" x2="880" y2="321.68345708619967" stroke="#eee"/>
<text x="52" y="325.68345708619967" text-anchor="end" font-size="11" fill="#666">1×</text>
<line x1="60" y1="303.5251856292995" x2="880" y2="303.5251856292995" stroke="#eee"/>
<text x="52" y="307.5251856292995" text-anchor="end" font-size="11" fill="#666">1.5×</text>
<line x1="60" y1="321.68345708619967" x2="880" y2="321.68345708619967" stroke="#888" stroke-width="1"/>
<line x1="60" y1="323.1361188027517" x2="880" y2="323.1361188027517" stroke="#d33" stroke-width="1.5" stroke-dasharray="6 4"/>
<text x="880" y="318.1361188027517" text-anchor="end" font-size="11" fill="#d33">0.96× gate</text>
<polygon points="128.7,324.6 129.2,324.3 130.4,324.0 132.8,323.6 136.9,323.3 143.2,323.0 151.7,322.6 161.6,322.3 171.5,322.0 179.6,321.7 184.5,321.3 185.7,321.0 183.5,320.7 178.6,320.3 172.0,320.0 164.6,319.7 157.1,319.3 150.2,319.0 144.5,318.7 140.0,318.4 136.9,318.0 134.9,317.7 133.8,317.4 133.1,317.0 132.5,316.7 132.1,316.4 131.5,316.1 130.9,315.7 130.3,315.4 129.7,315.1 129.2,314.7 128.9,314.4 128.6,314.1 128.5,313.8 128.5,313.4 128.6,313.1 128.8,312.8 129.1,312.4 129.3,312.1 129.5,311.8 129.7,311.4 129.7,311.1 129.6,310.8 129.4,310.5 129.3,310.1 129.2,309.8 129.1,309.5 129.0,309.1 128.8,308.8 128.7,308.5 128.5,308.2 128.4,307.8 128.4,307.5 128.4,307.2 128.3,306.8 128.3,306.5 128.3,306.2 128.4,305.8 128.4,305.5 128.5,305.2 128.6,304.9 128.7,304.5 128.8,304.2 128.9,303.9 129.0,303.5 128.9,303.2 128.8,302.9 128.7,302.6 128.6,302.2 128.5,301.9 128.4,301.6 128.4,301.2 128.3,301.2 128.3,301.6 128.2,301.9 128.1,302.2 128.0,302.6 127.9,302.9 127.8,303.2 127.7,303.5 127.7,303.9 127.8,304.2 128.0,304.5 128.1,304.9 128.2,305.2 128.3,305.5 128.3,305.8 128.3,306.2 128.3,306.5 128.3,306.8 128.3,307.2 128.3,307.5 128.2,307.8 128.1,308.2 128.0,308.5 127.9,308.8 127.7,309.1 127.6,309.5 127.5,309.8 127.4,310.1 127.2,310.5 127.1,310.8 127.0,311.1 127.0,311.4 127.1,311.8 127.3,312.1 127.6,312.4 127.9,312.8 128.0,313.1 128.1,313.4 128.1,313.8 128.0,314.1 127.8,314.4 127.5,314.7 127.0,315.1 126.4,315.4 125.8,315.7 125.2,316.1 124.6,316.4 124.1,316.7 123.6,317.0 122.9,317.4 121.7,317.7 119.8,318.0 116.7,318.4 112.2,318.7 106.4,319.0 99.6,319.3 92.1,319.7 84.7,320.0 78.1,320.3 73.2,320.7 70.9,321.0 72.2,321.3 77.1,321.7 85.2,322.0 95.0,322.3 104.9,322.6 113.4,323.0 119.8,323.3 123.9,323.6 126.3,324.0 127.5,324.3 128.0,324.6" fill="#2a8" opacity="0.5" stroke="#2a8" stroke-width="1"/>
<line x1="71.6" y1="320.84511656309456" x2="185.1" y2="320.84511656309456" stroke="#114" stroke-width="2"/>
<circle cx="128.33333333333331" cy="321.5890984913328" r="2.4" fill="#114"/>
<text x="128.33333333333331" y="297.5609961964461" text-anchor="middle" font-size="11">1.02</text>
<text x="128.33333333333331" y="376" text-anchor="middle" font-size="12">axpy</text>
<polygon points="265.7,325.1 266.6,324.7 268.2,324.4 271.0,324.1 275.5,323.7 281.8,323.4 290.0,323.0 299.4,322.7 308.8,322.4 316.6,322.0 321.4,321.7 322.4,321.4 319.8,321.0 314.5,320.7 307.6,320.3 300.4,320.0 293.5,319.7 287.4,319.3 282.0,319.0 277.5,318.7 273.8,318.3 271.0,318.0 268.9,317.6 267.5,317.3 266.6,317.0 266.0,316.6 265.8,316.3 265.7,316.0 265.7,315.6 265.8,315.3 266.0,314.9 266.2,314.6 266.3,314.3 266.4,313.9 266.4,313.6 266.3,313.3 266.1,312.9 265.9,312.6 265.7,312.3 265.5,311.9 265.4,311.6 265.2,311.2 265.1,310.9 265.1,310.6 265.0,310.2 265.0,309.9 265.0,309.6 265.0,309.2 265.0,308.9 265.0,308.5 265.0,308.2 265.0,307.9 265.1,307.5 265.1,307.2 265.2,306.9 265.4,306.5 265.6,306.2 265.8,305.8 266.0,305.5 266.2,305.2 266.3,304.8 266.3,304.5 266.3,304.2 266.2,303.8 266.1,303.5 265.9,303.1 265.7,302.8 265.5,302.5 265.3,302.1 265.2,301.8 265.1,301.5 265.1,301.1 264.9,301.1 264.9,301.5 264.8,301.8 264.7,302.1 264.5,302.5 264.3,302.8 264.1,303.1 263.9,303.5 263.8,303.8 263.7,304.2 263.7,304.5 263.7,304.8 263.8,305.2 264.0,305.5 264.2,305.8 264.4,306.2 264.6,306.5 264.8,306.9 264.9,307.2 264.9,307.5 265.0,307.9 265.0,308.2 265.0,308.5 265.0,308.9 265.0,309.2 265.0,309.6 265.0,309.9 265.0,310.2 264.9,310.6 264.9,310.9 264.8,311.2 264.6,311.6 264.5,311.9 264.3,312.3 264.1,312.6 263.9,312.9 263.7,313.3 263.6,313.6 263.6,313.9 263.7,314.3 263.8,314.6 264.0,314.9 264.2,315.3 264.3,315.6 264.3,316.0 264.2,316.3 264.0,316.6 263.4,317.0 262.5,317.3 261.1,317.6 259.0,318.0 256.2,318.3 252.5,318.7 248.0,319.0 242.6,319.3 236.5,319.7 229.6,320.0 222.4,320.3 215.5,320.7 210.2,321.0 207.6,321.4 208.6,321.7 213.4,322.0 221.2,322.4 230.6,322.7 240.0,323.0 248.2,323.4 254.5,323.7 259.0,324.1 261.8,324.4 263.4,324.7 264.3,325.1" fill="#2a8" opacity="0.5" stroke="#2a8" stroke-width="1"/>
<line x1="207.6" y1="321.5116751479421" x2="322.4" y2="321.5116751479421" stroke="#114" stroke-width="2"/>
<circle cx="265.0" cy="321.7847081712593" r="2.4" fill="#114"/>
<text x="265.0" y="297.4931289626835" text-anchor="middle" font-size="11">1.00</text>
<text x="265.0" y="376" text-anchor="middle" font-size="12">dot</text>
<polygon points="405.1,208.7 405.8,206.5 406.7,204.3 407.7,202.1 408.9,199.9 410.1,197.7 411.5,195.5 412.9,193.3 414.5,191.1 416.1,188.9 417.7,186.7 419.4,184.5 421.0,182.3 422.6,180.1 424.1,177.9 425.5,175.7 426.7,173.5 427.8,171.3 428.7,169.1 429.4,166.9 429.8,164.6 430.1,162.4 430.2,160.2 430.2,158.0 429.9,155.8 429.6,153.6 429.1,151.4 428.5,149.2 427.9,147.0 427.2,144.8 426.4,142.6 425.6,140.4 424.7,138.2 423.7,136.0 422.8,133.8 421.8,131.6 420.8,129.4 419.8,127.2 418.9,125.0 418.1,122.8 417.5,120.6 417.0,118.4 416.8,116.2 417.0,113.9 417.4,111.7 418.3,109.5 419.7,107.3 421.5,105.1 423.7,102.9 426.4,100.7 429.5,98.5 432.9,96.3 436.6,94.1 440.4,91.9 444.2,89.7 447.8,87.5 451.2,85.3 454.1,83.1 456.4,80.9 458.1,78.7 459.0,76.5 459.1,74.3 458.3,72.1 456.7,69.9 454.4,67.7 451.4,65.5 447.9,63.3 443.9,61.0 439.7,58.8 435.4,56.6 431.1,54.4 426.9,52.2 376.4,52.2 372.2,54.4 367.9,56.6 363.6,58.8 359.4,61.0 355.5,63.3 351.9,65.5 348.9,67.7 346.6,69.9 345.0,72.1 344.3,74.3 344.3,76.5 345.2,78.7 346.9,80.9 349.3,83.1 352.2,85.3 355.5,87.5 359.2,89.7 362.9,91.9 366.7,94.1 370.4,96.3 373.8,98.5 376.9,100.7 379.6,102.9 381.9,105.1 383.7,107.3 385.0,109.5 385.9,111.7 386.4,113.9 386.5,116.2 386.3,118.4 385.9,120.6 385.2,122.8 384.4,125.0 383.5,127.2 382.5,129.4 381.6,131.6 380.6,133.8 379.6,136.0 378.7,138.2 377.8,140.4 376.9,142.6 376.2,144.8 375.4,147.0 374.8,149.2 374.2,151.4 373.7,153.6 373.4,155.8 373.2,158.0 373.1,160.2 373.2,162.4 373.5,164.6 374.0,166.9 374.6,169.1 375.5,171.3 376.6,173.5 377.8,175.7 379.2,177.9 380.7,180.1 382.3,182.3 383.9,184.5 385.6,186.7 387.2,188.9 388.9,191.1 390.4,193.3 391.9,195.5 393.2,197.7 394.5,199.9 395.6,202.1 396.6,204.3 397.5,206.5 398.3,208.7" fill="#2a8" opacity="0.5" stroke="#2a8" stroke-width="1"/>
<line x1="353.0" y1="85.8677759054153" x2="450.3" y2="85.8677759054153" stroke="#114" stroke-width="2"/>
<circle cx="401.66666666666663" cy="165.12931009361978" r="2.4" fill="#114"/>
<text x="401.66666666666663" y="61.433962264150935" text-anchor="middle" font-size="11">7.49</text>
<text x="401.66666666666663" y="376" text-anchor="middle" font-size="12">nrm2</text>
<polygon points="551.0,313.5 553.7,313.1 556.7,312.7 559.9,312.2 563.3,311.8 566.8,311.3 570.4,310.9 573.9,310.4 577.3,310.0 580.4,309.6 583.3,309.1 585.7,308.7 587.8,308.2 589.5,307.8 590.9,307.4 591.9,306.9 592.6,306.5 593.2,306.0 593.7,305.6 594.1,305.1 594.4,304.7 594.8,304.3 595.2,303.8 595.5,303.4 595.7,302.9 595.7,302.5 595.5,302.0 595.0,301.6 594.2,301.2 593.0,300.7 591.3,300.3 589.3,299.8 587.0,299.4 584.3,299.0 581.5,298.5 578.6,298.1 575.6,297.6 572.7,297.2 569.9,296.7 567.4,296.3 565.1,295.9 563.2,295.4 561.6,295.0 560.4,294.5 559.6,294.1 559.3,293.6 559.5,293.2 560.1,292.8 561.1,292.3 562.5,291.9 564.3,291.4 566.3,291.0 568.4,290.6 570.6,290.1 572.8,289.7 574.7,289.2 576.4,288.8 577.6,288.3 578.4,287.9 578.6,287.5 578.3,287.0 577.4,286.6 575.9,286.1 574.0,285.7 571.6,285.2 569.0,284.8 566.1,284.4 563.1,283.9 560.0,283.5 557.1,283.0 554.3,282.6 551.7,282.1 525.0,282.1 522.4,282.6 519.6,283.0 516.6,283.5 513.6,283.9 510.6,284.4 507.7,284.8 505.0,285.2 502.7,285.7 500.7,286.1 499.3,286.6 498.4,287.0 498.0,287.5 498.3,287.9 499.0,288.3 500.3,288.8 501.9,289.2 503.9,289.7 506.0,290.1 508.2,290.6 510.4,291.0 512.4,291.4 514.1,291.9 515.5,292.3 516.6,292.8 517.2,293.2 517.3,293.6 517.0,294.1 516.3,294.5 515.1,295.0 513.5,295.4 511.6,295.9 509.3,296.3 506.7,296.7 504.0,297.2 501.0,297.6 498.1,298.1 495.1,298.5 492.3,299.0 489.7,299.4 487.3,299.8 485.3,300.3 483.7,300.7 482.5,301.2 481.6,301.6 481.1,302.0 480.9,302.5 481.0,302.9 481.2,303.4 481.5,303.8 481.9,304.3 482.2,304.7 482.6,305.1 483.0,305.6 483.5,306.0 484.0,306.5 484.8,306.9 485.8,307.4 487.1,307.8 488.8,308.2 490.9,308.7 493.4,309.1 496.2,309.6 499.4,310.0 502.7,310.4 506.3,310.9 509.8,311.3 513.4,311.8 516.8,312.2 520.0,312.7 523.0,313.1 525.7,313.5" fill="#2a8" opacity="0.5" stroke="#2a8" stroke-width="1"/>
<line x1="482.7" y1="301.07091393987685" x2="594.0" y2="301.07091393987685" stroke="#114" stroke-width="2"/>
<circle cx="538.3333333333333" cy="308.77434691316853" r="2.4" fill="#114"/>
<text x="538.3333333333333" y="279.24546694448" text-anchor="middle" font-size="11">1.57</text>
<text x="538.3333333333333" y="376" text-anchor="middle" font-size="12">asum</text>
<polygon points="675.2,324.6 675.3,324.4 675.5,324.2 675.8,324.0 676.3,323.8 677.1,323.6 678.3,323.3 680.2,323.1 682.8,322.9 686.4,322.7 691.1,322.5 696.9,322.3 703.5,322.1 710.5,321.9 717.4,321.7 723.7,321.5 728.5,321.3 731.5,321.0 732.4,320.8 731.1,320.6 727.8,320.4 722.9,320.2 717.1,320.0 711.0,319.8 704.9,319.6 699.4,319.4 694.7,319.2 690.7,319.0 687.6,318.8 685.2,318.5 683.3,318.3 681.9,318.1 680.7,317.9 679.8,317.7 679.0,317.5 678.3,317.3 677.7,317.1 677.2,316.9 676.7,316.7 676.3,316.5 676.1,316.2 675.9,316.0 675.8,315.8 675.8,315.6 675.9,315.4 676.0,315.2 676.3,315.0 676.5,314.8 676.8,314.6 677.1,314.4 677.4,314.2 677.6,314.0 677.8,313.7 678.0,313.5 678.1,313.3 678.3,313.1 678.3,312.9 678.4,312.7 678.4,312.5 678.3,312.3 678.2,312.1 678.0,311.9 677.8,311.7 677.5,311.4 677.1,311.2 676.8,311.0 676.4,310.8 676.1,310.6 675.8,310.4 675.6,310.2 675.4,310.0 675.3,309.8 674.7,309.8 674.6,310.0 674.4,310.2 674.2,310.4 673.9,310.6 673.6,310.8 673.2,311.0 672.9,311.2 672.5,311.4 672.2,311.7 672.0,311.9 671.8,312.1 671.7,312.3 671.6,312.5 671.6,312.7 671.7,312.9 671.7,313.1 671.9,313.3 672.0,313.5 672.2,313.7 672.4,314.0 672.6,314.2 672.9,314.4 673.2,314.6 673.5,314.8 673.7,315.0 674.0,315.2 674.1,315.4 674.2,315.6 674.2,315.8 674.1,316.0 673.9,316.2 673.7,316.5 673.3,316.7 672.8,316.9 672.3,317.1 671.7,317.3 671.0,317.5 670.2,317.7 669.3,317.9 668.1,318.1 666.7,318.3 664.8,318.5 662.4,318.8 659.3,319.0 655.3,319.2 650.6,319.4 645.1,319.6 639.0,319.8 632.9,320.0 627.1,320.2 622.2,320.4 618.9,320.6 617.6,320.8 618.5,321.0 621.5,321.3 626.3,321.5 632.6,321.7 639.5,321.9 646.5,322.1 653.1,322.3 658.9,322.5 663.6,322.7 667.2,322.9 669.8,323.1 671.7,323.3 672.9,323.6 673.7,323.8 674.2,324.0 674.5,324.2 674.7,324.4 674.8,324.6" fill="#2a8" opacity="0.5" stroke="#2a8" stroke-width="1"/>
<line x1="618.1" y1="320.71341806896527" x2="731.9" y2="320.71341806896527" stroke="#114" stroke-width="2"/>
<circle cx="675.0" cy="321.3970801495616" r="2.4" fill="#114"/>
<text x="675.0" y="305.2698647683704" text-anchor="middle" font-size="11">1.03</text>
<text x="675.0" y="376" text-anchor="middle" font-size="12">scal</text>
<polygon points="813.7,343.9 814.5,343.2 815.4,342.5 816.5,341.7 817.8,341.0 819.1,340.3 820.6,339.5 822.1,338.8 823.6,338.1 825.3,337.3 827.0,336.6 829.0,335.9 831.2,335.1 833.7,334.4 836.4,333.7 839.4,332.9 842.7,332.2 846.1,331.5 849.4,330.8 852.5,330.0 855.3,329.3 857.6,328.6 859.3,327.8 860.4,327.1 861.0,326.4 861.1,325.6 861.0,324.9 860.7,324.2 860.5,323.4 860.5,322.7 860.7,322.0 861.3,321.2 862.2,320.5 863.3,319.8 864.4,319.0 865.5,318.3 866.5,317.6 867.3,316.9 868.0,316.1 868.4,315.4 868.8,314.7 869.0,313.9 869.1,313.2 869.0,312.5 868.7,311.7 868.1,311.0 867.0,310.3 865.4,309.5 863.2,308.8 860.3,308.1 857.0,307.3 853.1,306.6 848.9,305.9 844.5,305.1 840.1,304.4 835.8,303.7 831.8,303.0 828.2,302.2 825.1,301.5 822.4,300.8 820.2,300.0 818.4,299.3 816.9,298.6 815.8,297.8 815.0,297.1 814.3,296.4 813.7,295.6 813.3,294.9 812.9,294.2 812.7,293.4 812.4,292.7 812.2,292.0 811.1,292.0 810.9,292.7 810.7,293.4 810.4,294.2 810.0,294.9 809.6,295.6 809.1,296.4 808.4,297.1 807.5,297.8 806.4,298.6 805.0,299.3 803.2,300.0 801.0,300.8 798.3,301.5 795.1,302.2 791.5,303.0 787.5,303.7 783.2,304.4 778.8,305.1 774.4,305.9 770.2,306.6 766.4,307.3 763.0,308.1 760.2,308.8 758.0,309.5 756.3,310.3 755.3,311.0 754.6,311.7 754.3,312.5 754.3,313.2 754.4,313.9 754.6,314.7 754.9,315.4 755.4,316.1 756.0,316.9 756.8,317.6 757.8,318.3 758.9,319.0 760.1,319.8 761.1,320.5 762.0,321.2 762.6,322.0 762.9,322.7 762.8,323.4 762.6,324.2 762.3,324.9 762.2,325.6 762.3,326.4 762.9,327.1 764.0,327.8 765.8,328.6 768.1,329.3 770.8,330.0 774.0,330.8 777.3,331.5 780.6,332.2 783.9,332.9 786.9,333.7 789.7,334.4 792.1,335.1 794.3,335.9 796.3,336.6 798.1,337.3 799.7,338.1 801.3,338.8 802.8,339.5 804.2,340.3 805.6,341.0 806.8,341.7 807.9,342.5 808.8,343.2 809.6,343.9" fill="#d33" opacity="0.5" stroke="#d33" stroke-width="1"/>
<line x1="757.3" y1="317.9392099666698" x2="866.1" y2="317.9392099666698" stroke="#114" stroke-width="2"/>
<circle cx="811.6666666666666" cy="326.25561351331385" r="2.4" fill="#114"/>
<text x="811.6666666666666" y="291.06098251553726" text-anchor="middle" font-size="11">1.10</text>
<text x="811.6666666666666" y="376" text-anchor="middle" font-size="12">iamax</text>
<text x="450.0" y="428" text-anchor="middle" font-size="11" fill="#666">violin = ratio distribution over sizes · line = median · dark dot = worst size · green = every size ≥ gate</text>
</svg>
