<svg xmlns="http://www.w3.org/2000/svg" width="900" height="440" font-family="sans-serif">
<rect width="900" height="440" fill="white"/>
<text x="450.0" y="28" text-anchor="middle" font-size="18" font-weight="bold">BLAS-2: PureBLAS / OpenBLAS (AVX-512 native (Zen5), 1 thread, Float64)</text>
<line x1="60" y1="358.0" x2="880" y2="358.0" stroke="#eee"/>
<text x="52" y="362.0" text-anchor="end" font-size="11" fill="#666">0×</text>
<line x1="60" y1="280.6361289605509" x2="880" y2="280.6361289605509" stroke="#eee"/>
<text x="52" y="284.6361289605509" text-anchor="end" font-size="11" fill="#666">0.5×</text>
<line x1="60" y1="203.27225792110178" x2="880" y2="203.27225792110178" stroke="#eee"/>
<text x="52" y="207.27225792110178" text-anchor="end" font-size="11" fill="#666">1×</text>
<line x1="60" y1="125.90838688165269" x2="880" y2="125.90838688165269" stroke="#eee"/>
<text x="52" y="129.9083868816527" text-anchor="end" font-size="11" fill="#666">1.5×</text>
<line x1="60" y1="203.27225792110178" x2="880" y2="203.27225792110178" stroke="#888" stroke-width="1"/>
<line x1="60" y1="209.46136760425773" x2="880" y2="209.46136760425773" stroke="#d33" stroke-width="1.5" stroke-dasharray="6 4"/>
<text x="880" y="204.46136760425773" text-anchor="end" font-size="11" fill="#d33">0.96× gate</text>
<polygon points="106.4,261.4 106.9,258.4 107.6,255.4 108.5,252.4 109.7,249.5 111.3,246.5 113.1,243.5 115.1,240.5 117.4,237.6 119.9,234.6 122.6,231.6 125.4,228.6 128.4,225.6 131.5,222.7 134.6,219.7 137.5,216.7 140.2,213.7 142.2,210.8 143.5,207.8 143.8,204.8 143.2,201.8 141.5,198.9 139.0,195.9 135.7,192.9 132.0,189.9 128.0,186.9 123.9,184.0 120.1,181.0 116.6,178.0 113.7,175.0 111.2,172.1 109.4,169.1 108.0,166.1 107.1,163.1 106.5,160.1 106.1,157.2 105.9,154.2 105.9,151.2 106.0,148.2 106.2,145.3 106.5,142.3 106.9,139.3 107.5,136.3 108.3,133.4 109.1,130.4 109.9,127.4 110.6,124.4 111.2,121.4 111.5,118.5 111.6,115.5 111.4,112.5 111.0,109.5 110.5,106.6 109.9,103.6 109.4,100.6 109.0,97.6 108.7,94.7 108.5,91.7 108.5,88.7 108.5,85.7 108.5,82.7 108.5,79.8 108.4,76.8 108.3,73.8 108.0,70.8 107.7,67.9 107.3,64.9 107.0,61.9 106.6,58.9 106.3,56.0 106.1,53.0 105.9,50.0 105.2,50.0 105.0,53.0 104.8,56.0 104.5,58.9 104.1,61.9 103.8,64.9 103.4,67.9 103.1,70.8 102.8,73.8 102.7,76.8 102.6,79.8 102.6,82.7 102.6,85.7 102.6,88.7 102.6,91.7 102.4,94.7 102.1,97.6 101.7,100.6 101.2,103.6 100.6,106.6 100.1,109.5 99.7,112.5 99.5,115.5 99.6,118.5 99.9,121.4 100.5,124.4 101.2,127.4 102.1,130.4 102.9,133.4 103.6,136.3 104.2,139.3 104.6,142.3 104.9,145.3 105.1,148.2 105.2,151.2 105.2,154.2 105.0,157.2 104.6,160.1 104.0,163.1 103.1,166.1 101.7,169.1 99.9,172.1 97.5,175.0 94.5,178.0 91.0,181.0 87.2,184.0 83.2,186.9 79.1,189.9 75.4,192.9 72.2,195.9 69.6,198.9 68.0,201.8 67.3,204.8 67.6,207.8 68.9,210.8 70.9,213.7 73.6,216.7 76.5,219.7 79.6,222.7 82.7,225.6 85.7,228.6 88.5,231.6 91.2,234.6 93.7,237.6 96.0,240.5 98.0,243.5 99.8,246.5 101.4,249.5 102.6,252.4 103.5,255.4 104.2,258.4 104.7,261.4" fill="#d33" opacity="0.5" stroke="#d33" stroke-width="1"/>
<line x1="67.6" y1="207.72611607704627" x2="143.5" y2="207.72611607704627" stroke="#114" stroke-width="2"/>
<circle cx="105.55555555555556" cy="229.81727586967676" r="2.4" fill="#114"/>
<text x="105.55555555555556" y="61.433962264150935" text-anchor="middle" font-size="11">0.97</text>
<text x="105.55555555555556" y="376" text-anchor="middle" font-size="12">gemvN</text>
<polygon points="207.2,206.1 209.5,205.6 212.1,205.0 214.9,204.5 217.8,204.0 220.7,203.4 223.6,202.9 226.4,202.4 228.9,201.8 231.0,201.3 232.7,200.8 233.9,200.2 234.7,199.7 234.9,199.2 234.7,198.6 234.1,198.1 233.1,197.6 231.9,197.0 230.5,196.5 229.0,196.0 227.5,195.4 226.0,194.9 224.5,194.4 223.0,193.8 221.6,193.3 220.3,192.8 219.0,192.2 217.7,191.7 216.4,191.2 215.2,190.6 213.9,190.1 212.7,189.5 211.6,189.0 210.5,188.5 209.5,187.9 208.5,187.4 207.6,186.9 206.9,186.3 206.2,185.8 205.7,185.3 205.3,184.7 205.1,184.2 205.1,183.7 205.3,183.1 205.7,182.6 206.5,182.1 207.5,181.5 208.8,181.0 210.4,180.5 212.3,179.9 214.4,179.4 216.7,178.9 219.0,178.3 221.3,177.8 223.5,177.3 225.4,176.7 227.0,176.2 228.1,175.7 228.8,175.1 228.9,174.6 228.4,174.1 227.4,173.5 225.8,173.0 223.9,172.5 221.7,171.9 219.2,171.4 216.6,170.9 214.0,170.3 211.4,169.8 209.0,169.2 206.8,168.7 204.9,168.2 188.4,168.2 186.5,168.7 184.3,169.2 181.9,169.8 179.4,170.3 176.8,170.9 174.2,171.4 171.7,171.9 169.4,172.5 167.5,173.0 166.0,173.5 165.0,174.1 164.5,174.6 164.6,175.1 165.2,175.7 166.3,176.2 167.9,176.7 169.9,177.3 172.0,177.8 174.3,178.3 176.7,178.9 178.9,179.4 181.0,179.9 182.9,180.5 184.5,181.0 185.9,181.5 186.9,182.1 187.6,182.6 188.0,183.1 188.2,183.7 188.2,184.2 188.0,184.7 187.6,185.3 187.1,185.8 186.4,186.3 185.7,186.9 184.8,187.4 183.9,187.9 182.8,188.5 181.7,189.0 180.6,189.5 179.4,190.1 178.2,190.6 176.9,191.2 175.6,191.7 174.4,192.2 173.0,192.8 171.7,193.3 170.3,193.8 168.8,194.4 167.4,194.9 165.8,195.4 164.3,196.0 162.8,196.5 161.4,197.0 160.2,197.6 159.2,198.1 158.6,198.6 158.4,199.2 158.6,199.7 159.4,200.2 160.6,200.8 162.3,201.3 164.5,201.8 166.9,202.4 169.7,202.9 172.6,203.4 175.5,204.0 178.4,204.5 181.2,205.0 183.8,205.6 186.2,206.1" fill="#2a8" opacity="0.5" stroke="#2a8" stroke-width="1"/>
<line x1="174.0" y1="192.36579524522233" x2="219.3" y2="192.36579524522233" stroke="#114" stroke-width="2"/>
<circle cx="196.66666666666669" cy="201.60951740890826" r="2.4" fill="#114"/>
<text x="196.66666666666669" y="166.10088414281853" text-anchor="middle" font-size="11">1.07</text>
<text x="196.66666666666669" y="376" text-anchor="middle" font-size="12">gemvT</text>
<polygon points="290.3,264.2 291.4,262.3 292.7,260.5 294.2,258.6 295.6,256.8 296.8,254.9 297.8,253.0 298.3,251.2 298.5,249.3 298.3,247.5 297.9,245.6 297.5,243.8 297.2,241.9 297.2,240.0 297.5,238.2 297.9,236.3 298.3,234.5 298.5,232.6 298.5,230.8 298.0,228.9 297.3,227.0 296.4,225.2 295.5,223.3 295.0,221.5 295.2,219.6 296.1,217.8 298.0,215.9 301.0,214.0 304.8,212.2 309.4,210.3 314.2,208.5 318.8,206.6 322.6,204.8 325.1,202.9 326.0,201.0 325.2,199.2 322.7,197.3 319.0,195.5 314.5,193.6 309.9,191.8 305.5,189.9 301.9,188.0 299.1,186.2 297.2,184.3 296.1,182.5 295.5,180.6 295.2,178.8 295.1,176.9 295.0,175.0 294.8,173.2 294.5,171.3 294.2,169.5 293.8,167.6 293.4,165.8 293.0,163.9 292.6,162.0 292.1,160.2 291.6,158.3 291.0,156.5 290.5,154.6 290.0,152.8 289.6,150.9 289.2,149.0 288.9,147.2 288.6,145.3 288.4,143.5 288.3,141.6 288.2,139.8 288.1,137.9 288.0,136.0 287.9,134.2 287.9,132.3 287.7,132.3 287.6,134.2 287.6,136.0 287.5,137.9 287.4,139.8 287.3,141.6 287.1,143.5 286.9,145.3 286.7,147.2 286.4,149.0 286.0,150.9 285.6,152.8 285.0,154.6 284.5,156.5 284.0,158.3 283.5,160.2 283.0,162.0 282.6,163.9 282.2,165.8 281.8,167.6 281.4,169.5 281.1,171.3 280.8,173.2 280.6,175.0 280.5,176.9 280.3,178.8 280.1,180.6 279.5,182.5 278.3,184.3 276.4,186.2 273.7,188.0 270.0,189.9 265.7,191.8 261.0,193.6 256.6,195.5 252.8,197.3 250.4,199.2 249.5,201.0 250.4,202.9 252.9,204.8 256.8,206.6 261.4,208.5 266.2,210.3 270.7,212.2 274.6,214.0 277.5,215.9 279.5,217.8 280.4,219.6 280.5,221.5 280.0,223.3 279.2,225.2 278.3,227.0 277.5,228.9 277.1,230.8 277.0,232.6 277.3,234.5 277.7,236.3 278.1,238.2 278.3,240.0 278.3,241.9 278.1,243.8 277.7,245.6 277.3,247.5 277.1,249.3 277.2,251.2 277.8,253.0 278.7,254.9 280.0,256.8 281.4,258.6 282.8,260.5 284.1,262.3 285.2,264.2" fill="#d33" opacity="0.5" stroke="#d33" stroke-width="1"/>
<line x1="249.6" y1="201.65228204017131" x2="325.9" y2="201.65228204017131" stroke="#114" stroke-width="2"/>
<circle cx="287.77777777777777" cy="250.82782554120797" r="2.4" fill="#114"/>
<text x="287.77777777777777" y="139.34020382592266" text-anchor="middle" font-size="11">1.01</text>
<text x="287.77777777777777" y="376" text-anchor="middle" font-size="12">ger</text>
<polygon points="384.4,201.0 386.2,200.3 388.3,199.6 390.6,198.9 393.2,198.1 395.8,197.4 398.5,196.7 401.2,196.0 403.7,195.3 406.0,194.5 408.1,193.8 410.0,193.1 411.7,192.4 413.1,191.7 414.4,191.0 415.5,190.2 416.3,189.5 416.9,188.8 417.2,188.1 417.1,187.4 416.7,186.7 416.0,185.9 415.0,185.2 413.8,184.5 412.5,183.8 411.2,183.1 409.9,182.4 408.8,181.6 407.8,180.9 407.1,180.2 406.6,179.5 406.5,178.8 406.7,178.0 407.2,177.3 408.1,176.6 409.2,175.9 410.5,175.2 411.8,174.5 413.0,173.7 413.7,173.0 413.9,172.3 413.5,171.6 412.3,170.9 410.4,170.2 407.9,169.4 405.0,168.7 401.8,168.0 398.5,167.3 395.5,166.6 392.8,165.9 390.6,165.1 389.1,164.4 388.2,163.7 388.0,163.0 388.3,162.3 389.2,161.5 390.4,160.8 391.8,160.1 393.2,159.4 394.4,158.7 395.4,158.0 395.9,157.2 396.0,156.5 395.5,155.8 394.5,155.1 393.2,154.4 391.5,153.7 389.8,152.9 387.9,152.2 386.2,151.5 384.6,150.8 383.2,150.1 374.6,150.1 373.2,150.8 371.6,151.5 369.8,152.2 368.0,152.9 366.2,153.7 364.6,154.4 363.3,155.1 362.3,155.8 361.8,156.5 361.9,157.2 362.4,158.0 363.3,158.7 364.6,159.4 366.0,160.1 367.4,160.8 368.6,161.5 369.4,162.3 369.8,163.0 369.6,163.7 368.7,164.4 367.2,165.1 365.0,165.9 362.3,166.6 359.3,167.3 356.0,168.0 352.8,168.7 349.9,169.4 347.4,170.2 345.5,170.9 344.3,171.6 343.8,172.3 344.1,173.0 344.8,173.7 345.9,174.5 347.3,175.2 348.6,175.9 349.7,176.6 350.6,177.3 351.1,178.0 351.3,178.8 351.2,179.5 350.7,180.2 350.0,180.9 349.0,181.6 347.9,182.4 346.6,183.1 345.3,183.8 344.0,184.5 342.8,185.2 341.8,185.9 341.1,186.7 340.7,187.4 340.6,188.1 340.9,188.8 341.5,189.5 342.3,190.2 343.4,191.0 344.7,191.7 346.1,192.4 347.8,193.1 349.6,193.8 351.7,194.5 354.1,195.3 356.6,196.0 359.2,196.7 361.9,197.4 364.6,198.1 367.2,198.9 369.5,199.6 371.6,200.3 373.4,201.0" fill="#2a8" opacity="0.5" stroke="#2a8" stroke-width="1"/>
<line x1="350.5" y1="180.37001773509766" x2="407.2" y2="180.37001773509766" stroke="#114" stroke-width="2"/>
<circle cx="378.8888888888889" cy="194.276706716585" r="2.4" fill="#114"/>
<text x="378.8888888888889" y="149.24867685859869" text-anchor="middle" font-size="11">1.15</text>
<text x="378.8888888888889" y="376" text-anchor="middle" font-size="12">symv</text>
<polygon points="475.0,212.0 477.4,210.9 480.5,209.9 484.2,208.8 488.6,207.8 493.2,206.7 497.9,205.7 502.1,204.6 505.4,203.6 507.6,202.5 508.3,201.5 507.4,200.4 505.2,199.4 501.8,198.3 497.8,197.3 493.4,196.2 489.1,195.2 485.3,194.1 482.1,193.1 479.8,192.0 478.3,191.0 477.6,189.9 477.7,188.9 478.4,187.8 479.5,186.8 481.1,185.7 482.7,184.7 484.3,183.6 485.6,182.6 486.6,181.5 487.1,180.5 487.1,179.4 486.5,178.4 485.6,177.3 484.4,176.3 483.1,175.2 481.8,174.2 480.6,173.1 479.6,172.1 478.9,171.0 478.4,170.0 478.1,168.9 478.0,167.9 478.0,166.8 478.0,165.8 478.0,164.7 477.8,163.7 477.5,162.6 477.0,161.6 476.4,160.5 475.6,159.5 474.7,158.4 473.9,157.4 473.1,156.3 472.4,155.3 471.9,154.2 471.5,153.2 471.2,152.1 471.1,151.1 471.0,150.0 471.0,149.0 471.0,147.9 471.0,146.9 471.0,145.8 471.0,144.8 470.9,143.7 470.8,142.7 470.7,141.6 470.6,140.6 470.4,139.5 470.3,138.5 470.2,137.4 469.8,137.4 469.7,138.5 469.6,139.5 469.4,140.6 469.3,141.6 469.2,142.7 469.1,143.7 469.0,144.8 469.0,145.8 469.0,146.9 469.0,147.9 469.0,149.0 469.0,150.0 468.9,151.1 468.8,152.1 468.5,153.2 468.1,154.2 467.6,155.3 466.9,156.3 466.1,157.4 465.3,158.4 464.4,159.5 463.6,160.5 463.0,161.6 462.5,162.6 462.2,163.7 462.0,164.7 462.0,165.8 462.0,166.8 462.0,167.9 461.9,168.9 461.6,170.0 461.1,171.0 460.4,172.1 459.4,173.1 458.2,174.2 456.9,175.2 455.6,176.3 454.4,177.3 453.5,178.4 452.9,179.4 452.9,180.5 453.4,181.5 454.4,182.6 455.7,183.6 457.3,184.7 458.9,185.7 460.5,186.8 461.6,187.8 462.3,188.9 462.4,189.9 461.7,191.0 460.2,192.0 457.9,193.1 454.7,194.1 450.9,195.2 446.6,196.2 442.2,197.3 438.2,198.3 434.8,199.4 432.6,200.4 431.7,201.5 432.4,202.5 434.6,203.6 437.9,204.6 442.1,205.7 446.8,206.7 451.4,207.8 455.8,208.8 459.5,209.9 462.6,210.9 465.0,212.0" fill="#2a8" opacity="0.5" stroke="#2a8" stroke-width="1"/>
<line x1="433.7" y1="199.81588137384216" x2="506.3" y2="199.81588137384216" stroke="#114" stroke-width="2"/>
<circle cx="470.0" cy="203.2095409112943" r="2.4" fill="#114"/>
<text x="470.0" y="138.8674798692169" text-anchor="middle" font-size="11">1.02</text>
<text x="470.0" y="376" text-anchor="middle" font-size="12">trmv</text>
<polygon points="565.7,214.7 567.2,214.1 569.0,213.4 570.9,212.7 572.9,212.0 574.8,211.4 576.4,210.7 577.8,210.0 578.9,209.3 579.7,208.7 580.3,208.0 580.8,207.3 581.4,206.6 582.3,205.9 583.5,205.3 584.9,204.6 586.6,203.9 588.3,203.2 589.8,202.6 590.9,201.9 591.4,201.2 591.2,200.5 590.3,199.8 588.9,199.2 587.2,198.5 585.4,197.8 583.9,197.1 582.8,196.5 582.3,195.8 582.5,195.1 583.4,194.4 585.0,193.7 587.0,193.1 589.4,192.4 591.9,191.7 594.2,191.0 596.2,190.4 597.8,189.7 598.9,189.0 599.4,188.3 599.3,187.6 598.8,187.0 597.8,186.3 596.5,185.6 594.9,184.9 593.0,184.3 591.1,183.6 589.0,182.9 586.8,182.2 584.6,181.5 582.4,180.9 580.2,180.2 578.2,179.5 576.2,178.8 574.4,178.2 572.9,177.5 571.5,176.8 570.5,176.1 569.7,175.4 569.1,174.8 568.7,174.1 568.5,173.4 568.2,172.7 567.9,172.1 567.5,171.4 567.0,170.7 566.4,170.0 565.7,169.3 564.9,168.7 564.2,168.0 563.5,167.3 562.9,166.6 559.3,166.6 558.7,167.3 558.0,168.0 557.3,168.7 556.6,169.3 555.9,170.0 555.3,170.7 554.7,171.4 554.3,172.1 554.0,172.7 553.8,173.4 553.5,174.1 553.1,174.8 552.5,175.4 551.7,176.1 550.7,176.8 549.4,177.5 547.8,178.2 546.0,178.8 544.1,179.5 542.0,180.2 539.8,180.9 537.6,181.5 535.4,182.2 533.3,182.9 531.2,183.6 529.2,184.3 527.4,184.9 525.7,185.6 524.4,186.3 523.4,187.0 522.9,187.6 522.8,188.3 523.3,189.0 524.4,189.7 526.0,190.4 528.0,191.0 530.4,191.7 532.8,192.4 535.2,193.1 537.2,193.7 538.8,194.4 539.7,195.1 539.9,195.8 539.4,196.5 538.3,197.1 536.8,197.8 535.0,198.5 533.3,199.2 531.9,199.8 531.1,200.5 530.8,201.2 531.3,201.9 532.4,202.6 533.9,203.2 535.6,203.9 537.3,204.6 538.8,205.3 539.9,205.9 540.8,206.6 541.4,207.3 542.0,208.0 542.5,208.7 543.3,209.3 544.4,210.0 545.8,210.7 547.5,211.4 549.4,212.0 551.3,212.7 553.2,213.4 555.0,214.1 556.6,214.7" fill="#d33" opacity="0.5" stroke="#d33" stroke-width="1"/>
<line x1="528.0" y1="191.0155916931385" x2="594.2" y2="191.0155916931385" stroke="#114" stroke-width="2"/>
<circle cx="561.1111111111111" cy="209.5431346298118" r="2.4" fill="#114"/>
<text x="561.1111111111111" y="165.54143866107702" text-anchor="middle" font-size="11">1.08</text>
<text x="561.1111111111111" y="376" text-anchor="middle" font-size="12">trsv</text>
<polygon points="657.5,179.5 659.1,178.0 660.8,176.5 662.5,175.0 664.2,173.5 665.7,171.9 666.9,170.4 667.7,168.9 668.2,167.4 668.4,165.9 668.3,164.4 668.1,162.9 668.0,161.4 668.2,159.9 668.6,158.4 669.4,156.9 670.5,155.3 672.0,153.8 673.6,152.3 675.4,150.8 677.1,149.3 678.6,147.8 680.0,146.3 681.2,144.8 682.1,143.3 682.8,141.8 683.4,140.3 683.9,138.7 684.4,137.2 685.0,135.7 685.8,134.2 686.6,132.7 687.6,131.2 688.6,129.7 689.5,128.2 690.2,126.7 690.5,125.2 690.3,123.7 689.4,122.1 687.8,120.6 685.6,119.1 682.6,117.6 679.2,116.1 675.6,114.6 671.8,113.1 668.2,111.6 665.0,110.1 662.3,108.6 660.1,107.1 658.5,105.5 657.5,104.0 657.1,102.5 657.2,101.0 657.6,99.5 658.5,98.0 659.6,96.5 660.8,95.0 662.2,93.5 663.4,92.0 664.5,90.5 665.4,88.9 665.8,87.4 665.9,85.9 665.5,84.4 664.7,82.9 663.6,81.4 662.2,79.9 660.7,78.4 659.2,76.9 657.7,75.4 656.5,73.9 655.4,72.3 649.1,72.3 648.0,73.9 646.7,75.4 645.3,76.9 643.8,78.4 642.3,79.9 640.9,81.4 639.8,82.9 639.0,84.4 638.6,85.9 638.6,87.4 639.1,88.9 639.9,90.5 641.0,92.0 642.3,93.5 643.6,95.0 644.9,96.5 646.0,98.0 646.8,99.5 647.3,101.0 647.3,102.5 646.9,104.0 645.9,105.5 644.4,107.1 642.2,108.6 639.4,110.1 636.2,111.6 632.6,113.1 628.9,114.6 625.2,116.1 621.8,117.6 618.9,119.1 616.6,120.6 615.0,122.1 614.2,123.7 614.0,125.2 614.3,126.7 615.0,128.2 615.9,129.7 616.9,131.2 617.8,132.7 618.7,134.2 619.4,135.7 620.0,137.2 620.5,138.7 621.1,140.3 621.7,141.8 622.4,143.3 623.3,144.8 624.4,146.3 625.8,147.8 627.4,149.3 629.1,150.8 630.8,152.3 632.5,153.8 633.9,155.3 635.1,156.9 635.9,158.4 636.3,159.9 636.4,161.4 636.3,162.9 636.1,164.4 636.1,165.9 636.2,167.4 636.7,168.9 637.6,170.4 638.8,171.9 640.3,173.5 642.0,175.0 643.7,176.5 645.4,178.0 646.9,179.5" fill="#2a8" opacity="0.5" stroke="#2a8" stroke-width="1"/>
<line x1="617.0" y1="131.36123783346693" x2="687.5" y2="131.36123783346693" stroke="#114" stroke-width="2"/>
<circle cx="652.2222222222223" cy="168.1491682736558" r="2.4" fill="#114"/>
<text x="652.2222222222223" y="76.96672174572502" text-anchor="middle" font-size="11">1.46</text>
<text x="652.2222222222223" y="376" text-anchor="middle" font-size="12">spmv</text>
<polygon points="743.3,182.2 743.4,181.4 743.4,180.7 743.4,180.0 743.5,179.3 743.5,178.5 743.6,177.8 743.8,177.1 744.0,176.4 744.4,175.6 745.1,174.9 746.2,174.2 748.0,173.5 750.5,172.7 754.0,172.0 758.4,171.3 763.6,170.6 769.2,169.8 774.6,169.1 778.9,168.4 781.4,167.7 781.6,166.9 779.3,166.2 775.1,165.5 769.7,164.8 764.3,164.0 759.5,163.3 755.7,162.6 753.1,161.9 751.2,161.1 750.0,160.4 749.2,159.7 748.8,159.0 748.8,158.2 749.1,157.5 749.6,156.8 749.9,156.1 750.0,155.3 749.7,154.6 749.1,153.9 748.2,153.2 747.2,152.4 746.4,151.7 745.8,151.0 745.6,150.3 745.6,149.5 745.9,148.8 746.3,148.1 746.7,147.4 747.1,146.6 747.2,145.9 747.2,145.2 746.9,144.5 746.3,143.7 745.7,143.0 745.0,142.3 744.5,141.6 744.0,140.8 743.7,140.1 743.6,139.4 743.5,138.7 743.5,137.9 743.5,137.2 743.5,136.5 743.5,135.8 743.5,135.0 743.5,134.3 743.4,133.6 743.4,132.9 743.4,132.1 743.4,131.4 743.3,130.7 743.3,130.7 743.3,131.4 743.3,132.1 743.3,132.9 743.2,133.6 743.2,134.3 743.2,135.0 743.1,135.8 743.1,136.5 743.2,137.2 743.2,137.9 743.2,138.7 743.1,139.4 742.9,140.1 742.6,140.8 742.2,141.6 741.6,142.3 741.0,143.0 740.3,143.7 739.8,144.5 739.5,145.2 739.4,145.9 739.6,146.6 740.0,147.4 740.4,148.1 740.8,148.8 741.0,149.5 741.1,150.3 740.8,151.0 740.3,151.7 739.4,152.4 738.5,153.2 737.6,153.9 736.9,154.6 736.6,155.3 736.7,156.1 737.1,156.8 737.6,157.5 737.8,158.2 737.8,159.0 737.4,159.7 736.6,160.4 735.4,161.1 733.6,161.9 730.9,162.6 727.2,163.3 722.4,164.0 716.9,164.8 711.6,165.5 707.3,166.2 705.1,166.9 705.2,167.7 707.8,168.4 712.1,169.1 717.5,169.8 723.1,170.6 728.3,171.3 732.7,172.0 736.2,172.7 738.7,173.5 740.5,174.2 741.6,174.9 742.3,175.6 742.7,176.4 742.9,177.1 743.0,177.8 743.1,178.5 743.2,179.3 743.2,180.0 743.3,180.7 743.3,181.4 743.3,182.2" fill="#2a8" opacity="0.5" stroke="#2a8" stroke-width="1"/>
<line x1="705.9" y1="166.59410968696992" x2="780.8" y2="166.59410968696992" stroke="#114" stroke-width="2"/>
<circle cx="743.3333333333334" cy="168.9676270451498" r="2.4" fill="#114"/>
<text x="743.3333333333334" y="129.92371708468823" text-anchor="middle" font-size="11">1.24</text>
<text x="743.3333333333334" y="376" text-anchor="middle" font-size="12">gbmvN</text>
<polygon points="834.8,194.6 835.0,193.9 835.1,193.2 835.4,192.4 835.7,191.7 836.1,191.0 836.6,190.3 837.4,189.6 838.5,188.8 839.9,188.1 841.8,187.4 844.1,186.7 847.0,185.9 850.4,185.2 854.2,184.5 858.2,183.8 862.1,183.0 865.8,182.3 868.8,181.6 871.1,180.9 872.4,180.2 872.7,179.4 872.1,178.7 870.6,178.0 868.5,177.3 865.9,176.5 863.1,175.8 860.3,175.1 857.6,174.4 855.1,173.6 852.8,172.9 850.9,172.2 849.3,171.5 847.9,170.8 846.9,170.0 846.0,169.3 845.3,168.6 844.7,167.9 844.1,167.1 843.5,166.4 842.8,165.7 842.0,165.0 841.1,164.2 840.2,163.5 839.3,162.8 838.4,162.1 837.6,161.4 836.9,160.6 836.3,159.9 836.0,159.2 835.8,158.5 835.8,157.7 836.0,157.0 836.4,156.3 836.9,155.6 837.7,154.8 838.6,154.1 839.6,153.4 840.7,152.7 841.7,152.0 842.6,151.2 843.3,150.5 843.7,149.8 843.8,149.1 843.5,148.3 842.9,147.6 842.0,146.9 841.0,146.2 839.9,145.4 838.8,144.7 837.8,144.0 836.9,143.3 832.0,143.3 831.1,144.0 830.1,144.7 829.0,145.4 827.9,146.2 826.9,146.9 826.0,147.6 825.4,148.3 825.1,149.1 825.2,149.8 825.6,150.5 826.3,151.2 827.2,152.0 828.2,152.7 829.3,153.4 830.3,154.1 831.2,154.8 832.0,155.6 832.5,156.3 832.9,157.0 833.1,157.7 833.1,158.5 832.9,159.2 832.6,159.9 832.0,160.6 831.3,161.4 830.5,162.1 829.6,162.8 828.7,163.5 827.8,164.2 826.9,165.0 826.1,165.7 825.4,166.4 824.8,167.1 824.2,167.9 823.6,168.6 822.9,169.3 822.0,170.0 820.9,170.8 819.6,171.5 818.0,172.2 816.1,172.9 813.8,173.6 811.3,174.4 808.6,175.1 805.8,175.8 803.0,176.5 800.4,177.3 798.3,178.0 796.8,178.7 796.2,179.4 796.5,180.2 797.8,180.9 800.1,181.6 803.1,182.3 806.7,183.0 810.7,183.8 814.7,184.5 818.4,185.2 821.8,185.9 824.8,186.7 827.1,187.4 829.0,188.1 830.4,188.8 831.5,189.6 832.2,190.3 832.8,191.0 833.2,191.7 833.5,192.4 833.8,193.2 833.9,193.9 834.1,194.6" fill="#2a8" opacity="0.5" stroke="#2a8" stroke-width="1"/>
<line x1="797.9" y1="178.15771864030134" x2="871.0" y2="178.15771864030134" stroke="#114" stroke-width="2"/>
<circle cx="834.4444444444445" cy="181.47470887924527" r="2.4" fill="#114"/>
<text x="834.4444444444445" y="142.49159665449756" text-anchor="middle" font-size="11">1.16</text>
<text x="834.4444444444445" y="376" text-anchor="middle" font-size="12">sbmv</text>
<text x="450.0" y="428" text-anchor="middle" font-size="11" fill="#666">violin = ratio distribution over sizes · line = median · dark dot = worst size · green = every size ≥ gate</text>
</svg>
