<svg xmlns="http://www.w3.org/2000/svg" width="962" height="420" font-family="sans-serif">
<rect width="962" height="420" fill="white"/>
<text x="481.0" y="26" text-anchor="middle" font-size="17" font-weight="bold">Complex BLAS-1 — PureBLAS / OpenBLAS (PB/OpenBLAS ratio)</text>
<line x1="46" y1="42" x2="68" y2="42" stroke="#d62728" stroke-width="3"/>
<text x="73" y="46" font-size="12">Zen3 · AVX2</text>
<line x1="176" y1="42" x2="198" y2="42" stroke="#2ca02c" stroke-width="3"/>
<text x="203" y="46" font-size="12">Zen5 · AVX-512</text>
<line x1="327" y1="42" x2="349" y2="42" stroke="#1f77b4" stroke-width="3"/>
<text x="354" y="46" font-size="12">Zen4 · AVX-512</text>
<rect x="46" y="60" width="210" height="138" fill="none" stroke="#e2e2e2"/>
<line x1="46" y1="143.69973308593285" x2="256" y2="143.69973308593285" stroke="#d33" stroke-dasharray="4 3"/>
<text x="42" y="201.0" text-anchor="end" font-size="9" fill="#999">0.5×</text>
<text x="42" y="146.69973308593285" text-anchor="end" font-size="9" fill="#999">1.0×</text>
<text x="42" y="63.021981751090884" text-anchor="end" font-size="9" fill="#999">2.91×</text>
<polygon points="46.0,131.5 79.4,143.2 116.0,142.6 149.4,142.7 186.0,142.8 219.4,143.4 256.0,145.2 256.0,148.6 219.4,146.5 186.0,144.6 149.4,144.6 116.0,146.7 79.4,143.9 46.0,132.7" fill="#d62728" opacity="0.11"/>
<polyline points="46.0,132.0 79.4,143.5 116.0,144.7 149.4,143.5 186.0,143.4 219.4,144.6 256.0,146.5" fill="none" stroke="#d62728" stroke-width="1.6"/>
<circle cx="46.0" cy="132.0" r="2" fill="#d62728"/>
<circle cx="79.4" cy="143.5" r="2" fill="#d62728"/>
<circle cx="116.0" cy="144.7" r="2" fill="#d62728"/>
<circle cx="149.4" cy="143.5" r="2" fill="#d62728"/>
<circle cx="186.0" cy="143.4" r="2" fill="#d62728"/>
<circle cx="219.4" cy="144.6" r="2" fill="#d62728"/>
<circle cx="256.0" cy="146.5" r="2" fill="#d62728"/>
<polygon points="46.0,66.0 79.4,140.8 116.0,145.6 149.4,138.2 186.0,137.6 219.4,139.2 256.0,137.8 256.0,152.2 219.4,154.7 186.0,166.2 149.4,147.8 116.0,148.2 79.4,150.3 46.0,135.6" fill="#2ca02c" opacity="0.11"/>
<polyline points="46.0,135.0 79.4,147.2 116.0,147.1 149.4,142.5 186.0,143.9 219.4,144.4 256.0,144.1" fill="none" stroke="#2ca02c" stroke-width="1.6"/>
<circle cx="46.0" cy="135.0" r="2" fill="#2ca02c"/>
<circle cx="79.4" cy="147.2" r="2" fill="#2ca02c"/>
<circle cx="116.0" cy="147.1" r="2" fill="#2ca02c"/>
<circle cx="149.4" cy="142.5" r="2" fill="#2ca02c"/>
<circle cx="186.0" cy="143.9" r="2" fill="#2ca02c"/>
<circle cx="219.4" cy="144.4" r="2" fill="#2ca02c"/>
<circle cx="256.0" cy="144.1" r="2" fill="#2ca02c"/>
<polygon points="46.0,130.4 79.4,142.4 116.0,142.9 149.4,140.8 186.0,146.7 219.4,145.9 256.0,142.3 256.0,149.6 219.4,147.9 186.0,148.1 149.4,143.2 116.0,146.7 79.4,142.8 46.0,138.2" fill="#1f77b4" opacity="0.11"/>
<polyline points="46.0,132.9 79.4,142.6 116.0,143.5 149.4,142.0 186.0,147.6 219.4,146.9 256.0,145.0" fill="none" stroke="#1f77b4" stroke-width="1.6"/>
<circle cx="46.0" cy="132.9" r="2" fill="#1f77b4"/>
<circle cx="79.4" cy="142.6" r="2" fill="#1f77b4"/>
<circle cx="116.0" cy="143.5" r="2" fill="#1f77b4"/>
<circle cx="149.4" cy="142.0" r="2" fill="#1f77b4"/>
<circle cx="186.0" cy="147.6" r="2" fill="#1f77b4"/>
<circle cx="219.4" cy="146.9" r="2" fill="#1f77b4"/>
<circle cx="256.0" cy="145.0" r="2" fill="#1f77b4"/>
<text x="151.0" y="55" text-anchor="middle" font-size="12" font-weight="bold">zaxpy</text>
<line x1="46.0" y1="60" x2="46.0" y2="198" stroke="#f4f4f4"/>
<text x="46.0" y="209" text-anchor="middle" font-size="8" fill="#999">1000</text>
<line x1="79.4" y1="60" x2="79.4" y2="198" stroke="#f4f4f4"/>
<text x="79.4" y="209" text-anchor="middle" font-size="8" fill="#999">2k</text>
<line x1="116.0" y1="60" x2="116.0" y2="198" stroke="#f4f4f4"/>
<text x="116.0" y="209" text-anchor="middle" font-size="8" fill="#999">9k</text>
<line x1="149.4" y1="60" x2="149.4" y2="198" stroke="#f4f4f4"/>
<text x="149.4" y="209" text-anchor="middle" font-size="8" fill="#999">29k</text>
<line x1="186.0" y1="60" x2="186.0" y2="198" stroke="#f4f4f4"/>
<text x="186.0" y="209" text-anchor="middle" font-size="8" fill="#999">97k</text>
<line x1="219.4" y1="60" x2="219.4" y2="198" stroke="#f4f4f4"/>
<text x="219.4" y="209" text-anchor="middle" font-size="8" fill="#999">292k</text>
<line x1="256.0" y1="60" x2="256.0" y2="198" stroke="#f4f4f4"/>
<text x="256.0" y="209" text-anchor="middle" font-size="8" fill="#999">976k</text>
<rect x="276" y="60" width="210" height="138" fill="none" stroke="#e2e2e2"/>
<line x1="276" y1="125.20944765693147" x2="486" y2="125.20944765693147" stroke="#d33" stroke-dasharray="4 3"/>
<text x="272" y="201.0" text-anchor="end" font-size="9" fill="#999">0.5×</text>
<text x="272" y="128.20944765693147" text-anchor="end" font-size="9" fill="#999">1.0×</text>
<text x="272" y="63.03987533588294" text-anchor="end" font-size="9" fill="#999">1.86×</text>
<polygon points="276.0,149.6 309.4,124.8 346.0,124.7 379.4,119.9 416.0,121.7 449.4,120.1 486.0,123.7 486.0,128.0 449.4,124.1 416.0,123.9 379.4,121.9 346.0,127.3 309.4,125.4 276.0,150.9" fill="#d62728" opacity="0.11"/>
<polyline points="276.0,150.7 309.4,125.2 346.0,125.1 379.4,120.6 416.0,122.3 449.4,121.9 486.0,125.6" fill="none" stroke="#d62728" stroke-width="1.6"/>
<circle cx="276.0" cy="150.7" r="2" fill="#d62728"/>
<circle cx="309.4" cy="125.2" r="2" fill="#d62728"/>
<circle cx="346.0" cy="125.1" r="2" fill="#d62728"/>
<circle cx="379.4" cy="120.6" r="2" fill="#d62728"/>
<circle cx="416.0" cy="122.3" r="2" fill="#d62728"/>
<circle cx="449.4" cy="121.9" r="2" fill="#d62728"/>
<circle cx="486.0" cy="125.6" r="2" fill="#d62728"/>
<polygon points="276.0,115.9 309.4,117.3 346.0,68.1 379.4,118.5 416.0,118.5 449.4,116.0 486.0,104.5 486.0,118.0 449.4,140.6 416.0,135.8 379.4,133.8 346.0,121.8 309.4,122.3 276.0,125.8" fill="#2ca02c" opacity="0.11"/>
<polyline points="276.0,122.9 309.4,121.5 346.0,120.5 379.4,124.4 416.0,125.9 449.4,126.8 486.0,112.6" fill="none" stroke="#2ca02c" stroke-width="1.6"/>
<circle cx="276.0" cy="122.9" r="2" fill="#2ca02c"/>
<circle cx="309.4" cy="121.5" r="2" fill="#2ca02c"/>
<circle cx="346.0" cy="120.5" r="2" fill="#2ca02c"/>
<circle cx="379.4" cy="124.4" r="2" fill="#2ca02c"/>
<circle cx="416.0" cy="125.9" r="2" fill="#2ca02c"/>
<circle cx="449.4" cy="126.8" r="2" fill="#2ca02c"/>
<circle cx="486.0" cy="112.6" r="2" fill="#2ca02c"/>
<polygon points="276.0,110.6 309.4,124.0 346.0,124.5 379.4,115.2 416.0,104.2 449.4,101.9 486.0,106.4 486.0,113.4 449.4,106.8 416.0,107.1 379.4,119.2 346.0,125.3 309.4,125.0 276.0,123.1" fill="#1f77b4" opacity="0.11"/>
<polyline points="276.0,113.6 309.4,124.3 346.0,125.0 379.4,116.9 416.0,105.8 449.4,104.9 486.0,109.2" fill="none" stroke="#1f77b4" stroke-width="1.6"/>
<circle cx="276.0" cy="113.6" r="2" fill="#1f77b4"/>
<circle cx="309.4" cy="124.3" r="2" fill="#1f77b4"/>
<circle cx="346.0" cy="125.0" r="2" fill="#1f77b4"/>
<circle cx="379.4" cy="116.9" r="2" fill="#1f77b4"/>
<circle cx="416.0" cy="105.8" r="2" fill="#1f77b4"/>
<circle cx="449.4" cy="104.9" r="2" fill="#1f77b4"/>
<circle cx="486.0" cy="109.2" r="2" fill="#1f77b4"/>
<text x="381.0" y="55" text-anchor="middle" font-size="12" font-weight="bold">zdotc</text>
<line x1="276.0" y1="60" x2="276.0" y2="198" stroke="#f4f4f4"/>
<text x="276.0" y="209" text-anchor="middle" font-size="8" fill="#999">1000</text>
<line x1="309.4" y1="60" x2="309.4" y2="198" stroke="#f4f4f4"/>
<text x="309.4" y="209" text-anchor="middle" font-size="8" fill="#999">2k</text>
<line x1="346.0" y1="60" x2="346.0" y2="198" stroke="#f4f4f4"/>
<text x="346.0" y="209" text-anchor="middle" font-size="8" fill="#999">9k</text>
<line x1="379.4" y1="60" x2="379.4" y2="198" stroke="#f4f4f4"/>
<text x="379.4" y="209" text-anchor="middle" font-size="8" fill="#999">29k</text>
<line x1="416.0" y1="60" x2="416.0" y2="198" stroke="#f4f4f4"/>
<text x="416.0" y="209" text-anchor="middle" font-size="8" fill="#999">97k</text>
<line x1="449.4" y1="60" x2="449.4" y2="198" stroke="#f4f4f4"/>
<text x="449.4" y="209" text-anchor="middle" font-size="8" fill="#999">292k</text>
<line x1="486.0" y1="60" x2="486.0" y2="198" stroke="#f4f4f4"/>
<text x="486.0" y="209" text-anchor="middle" font-size="8" fill="#999">976k</text>
<rect x="506" y="60" width="210" height="138" fill="none" stroke="#e2e2e2"/>
<line x1="506" y1="115.76276119065531" x2="716" y2="115.76276119065531" stroke="#d33" stroke-dasharray="4 3"/>
<text x="502" y="201.0" text-anchor="end" font-size="9" fill="#999">0.5×</text>
<text x="502" y="118.76276119065531" text-anchor="end" font-size="9" fill="#999">1.0×</text>
<text x="502" y="63.0" text-anchor="end" font-size="9" fill="#999">1.6×</text>
<polygon points="506.0,110.8 539.4,116.1 576.0,123.6 609.4,115.6 646.0,116.8 679.4,116.1 716.0,115.7 716.0,118.8 679.4,118.7 646.0,118.1 609.4,120.9 576.0,124.7 539.4,116.4 506.0,111.7" fill="#d62728" opacity="0.11"/>
<polyline points="506.0,111.1 539.4,116.3 576.0,124.3 609.4,118.4 646.0,117.3 679.4,117.4 716.0,116.9" fill="none" stroke="#d62728" stroke-width="1.6"/>
<circle cx="506.0" cy="111.1" r="2" fill="#d62728"/>
<circle cx="539.4" cy="116.3" r="2" fill="#d62728"/>
<circle cx="576.0" cy="124.3" r="2" fill="#d62728"/>
<circle cx="609.4" cy="118.4" r="2" fill="#d62728"/>
<circle cx="646.0" cy="117.3" r="2" fill="#d62728"/>
<circle cx="679.4" cy="117.4" r="2" fill="#d62728"/>
<circle cx="716.0" cy="116.9" r="2" fill="#d62728"/>
<polygon points="506.0,110.6 539.4,109.6 576.0,114.6 609.4,111.4 646.0,113.4 679.4,111.7 716.0,112.7 716.0,129.2 679.4,119.2 646.0,125.3 609.4,115.8 576.0,116.4 539.4,114.8 506.0,114.8" fill="#2ca02c" opacity="0.11"/>
<polyline points="506.0,112.3 539.4,112.3 576.0,115.7 609.4,115.5 646.0,116.3 679.4,115.8 716.0,118.7" fill="none" stroke="#2ca02c" stroke-width="1.6"/>
<circle cx="506.0" cy="112.3" r="2" fill="#2ca02c"/>
<circle cx="539.4" cy="112.3" r="2" fill="#2ca02c"/>
<circle cx="576.0" cy="115.7" r="2" fill="#2ca02c"/>
<circle cx="609.4" cy="115.5" r="2" fill="#2ca02c"/>
<circle cx="646.0" cy="116.3" r="2" fill="#2ca02c"/>
<circle cx="679.4" cy="115.8" r="2" fill="#2ca02c"/>
<circle cx="716.0" cy="118.7" r="2" fill="#2ca02c"/>
<polygon points="506.0,112.2 539.4,114.2 576.0,115.1 609.4,115.0 646.0,116.3 679.4,114.3 716.0,109.1 716.0,123.5 679.4,118.2 646.0,119.1 609.4,115.8 576.0,115.7 539.4,114.7 506.0,113.3" fill="#1f77b4" opacity="0.11"/>
<polyline points="506.0,112.8 539.4,114.5 576.0,115.4 609.4,115.5 646.0,118.0 679.4,116.4 716.0,116.6" fill="none" stroke="#1f77b4" stroke-width="1.6"/>
<circle cx="506.0" cy="112.8" r="2" fill="#1f77b4"/>
<circle cx="539.4" cy="114.5" r="2" fill="#1f77b4"/>
<circle cx="576.0" cy="115.4" r="2" fill="#1f77b4"/>
<circle cx="609.4" cy="115.5" r="2" fill="#1f77b4"/>
<circle cx="646.0" cy="118.0" r="2" fill="#1f77b4"/>
<circle cx="679.4" cy="116.4" r="2" fill="#1f77b4"/>
<circle cx="716.0" cy="116.6" r="2" fill="#1f77b4"/>
<text x="611.0" y="55" text-anchor="middle" font-size="12" font-weight="bold">zscal</text>
<line x1="506.0" y1="60" x2="506.0" y2="198" stroke="#f4f4f4"/>
<text x="506.0" y="209" text-anchor="middle" font-size="8" fill="#999">1000</text>
<line x1="539.4" y1="60" x2="539.4" y2="198" stroke="#f4f4f4"/>
<text x="539.4" y="209" text-anchor="middle" font-size="8" fill="#999">2k</text>
<line x1="576.0" y1="60" x2="576.0" y2="198" stroke="#f4f4f4"/>
<text x="576.0" y="209" text-anchor="middle" font-size="8" fill="#999">9k</text>
<line x1="609.4" y1="60" x2="609.4" y2="198" stroke="#f4f4f4"/>
<text x="609.4" y="209" text-anchor="middle" font-size="8" fill="#999">29k</text>
<line x1="646.0" y1="60" x2="646.0" y2="198" stroke="#f4f4f4"/>
<text x="646.0" y="209" text-anchor="middle" font-size="8" fill="#999">97k</text>
<line x1="679.4" y1="60" x2="679.4" y2="198" stroke="#f4f4f4"/>
<text x="679.4" y="209" text-anchor="middle" font-size="8" fill="#999">292k</text>
<line x1="716.0" y1="60" x2="716.0" y2="198" stroke="#f4f4f4"/>
<text x="716.0" y="209" text-anchor="middle" font-size="8" fill="#999">976k</text>
<rect x="736" y="60" width="210" height="138" fill="none" stroke="#e2e2e2"/>
<line x1="736" y1="175.0922767460285" x2="946" y2="175.0922767460285" stroke="#d33" stroke-dasharray="4 3"/>
<text x="732" y="201.0" text-anchor="end" font-size="9" fill="#999">0.5×</text>
<text x="732" y="178.0922767460285" text-anchor="end" font-size="9" fill="#999">1.0×</text>
<text x="732" y="63.00061429764237" text-anchor="end" font-size="9" fill="#999">32.54×</text>
<polygon points="736.0,106.9 769.4,107.0 806.0,106.6 839.4,106.9 876.0,114.5 909.4,114.9 946.0,117.9 946.0,119.3 909.4,120.1 876.0,117.3 839.4,110.8 806.0,106.7 769.4,107.1 736.0,107.1" fill="#d62728" opacity="0.11"/>
<polyline points="736.0,107.0 769.4,107.1 806.0,106.6 839.4,107.6 876.0,114.9 909.4,115.4 946.0,118.6" fill="none" stroke="#d62728" stroke-width="1.6"/>
<circle cx="736.0" cy="107.0" r="2" fill="#d62728"/>
<circle cx="769.4" cy="107.1" r="2" fill="#d62728"/>
<circle cx="806.0" cy="106.6" r="2" fill="#d62728"/>
<circle cx="839.4" cy="107.6" r="2" fill="#d62728"/>
<circle cx="876.0" cy="114.9" r="2" fill="#d62728"/>
<circle cx="909.4" cy="115.4" r="2" fill="#d62728"/>
<circle cx="946.0" cy="118.6" r="2" fill="#d62728"/>
<polygon points="736.0,64.8 769.4,62.5 806.0,73.3 839.4,66.1 876.0,88.9 909.4,114.6 946.0,119.9 946.0,125.8 909.4,116.7 876.0,117.4 839.4,108.2 806.0,108.7 769.4,104.8 736.0,105.5" fill="#2ca02c" opacity="0.11"/>
<polyline points="736.0,65.9 769.4,63.4 806.0,77.9 839.4,74.8 876.0,114.3 909.4,115.6 946.0,122.6" fill="none" stroke="#2ca02c" stroke-width="1.6"/>
<circle cx="736.0" cy="65.9" r="2" fill="#2ca02c"/>
<circle cx="769.4" cy="63.4" r="2" fill="#2ca02c"/>
<circle cx="806.0" cy="77.9" r="2" fill="#2ca02c"/>
<circle cx="839.4" cy="74.8" r="2" fill="#2ca02c"/>
<circle cx="876.0" cy="114.3" r="2" fill="#2ca02c"/>
<circle cx="909.4" cy="115.6" r="2" fill="#2ca02c"/>
<circle cx="946.0" cy="122.6" r="2" fill="#2ca02c"/>
<polygon points="736.0,90.7 769.4,106.1 806.0,106.4 839.4,106.4 876.0,111.9 909.4,113.0 946.0,119.7 946.0,122.4 909.4,114.0 876.0,112.8 839.4,107.1 806.0,106.6 769.4,106.4 736.0,91.9" fill="#1f77b4" opacity="0.11"/>
<polyline points="736.0,91.2 769.4,106.2 806.0,106.5 839.4,106.5 876.0,112.3 909.4,113.2 946.0,121.2" fill="none" stroke="#1f77b4" stroke-width="1.6"/>
<circle cx="736.0" cy="91.2" r="2" fill="#1f77b4"/>
<circle cx="769.4" cy="106.2" r="2" fill="#1f77b4"/>
<circle cx="806.0" cy="106.5" r="2" fill="#1f77b4"/>
<circle cx="839.4" cy="106.5" r="2" fill="#1f77b4"/>
<circle cx="876.0" cy="112.3" r="2" fill="#1f77b4"/>
<circle cx="909.4" cy="113.2" r="2" fill="#1f77b4"/>
<circle cx="946.0" cy="121.2" r="2" fill="#1f77b4"/>
<text x="841.0" y="55" text-anchor="middle" font-size="12" font-weight="bold">dznrm2</text>
<line x1="736.0" y1="60" x2="736.0" y2="198" stroke="#f4f4f4"/>
<text x="736.0" y="209" text-anchor="middle" font-size="8" fill="#999">1000</text>
<line x1="769.4" y1="60" x2="769.4" y2="198" stroke="#f4f4f4"/>
<text x="769.4" y="209" text-anchor="middle" font-size="8" fill="#999">2k</text>
<line x1="806.0" y1="60" x2="806.0" y2="198" stroke="#f4f4f4"/>
<text x="806.0" y="209" text-anchor="middle" font-size="8" fill="#999">9k</text>
<line x1="839.4" y1="60" x2="839.4" y2="198" stroke="#f4f4f4"/>
<text x="839.4" y="209" text-anchor="middle" font-size="8" fill="#999">29k</text>
<line x1="876.0" y1="60" x2="876.0" y2="198" stroke="#f4f4f4"/>
<text x="876.0" y="209" text-anchor="middle" font-size="8" fill="#999">97k</text>
<line x1="909.4" y1="60" x2="909.4" y2="198" stroke="#f4f4f4"/>
<text x="909.4" y="209" text-anchor="middle" font-size="8" fill="#999">292k</text>
<line x1="946.0" y1="60" x2="946.0" y2="198" stroke="#f4f4f4"/>
<text x="946.0" y="209" text-anchor="middle" font-size="8" fill="#999">976k</text>
<rect x="46" y="232" width="210" height="138" fill="none" stroke="#e2e2e2"/>
<line x1="46" y1="304.4964326065097" x2="256" y2="304.4964326065097" stroke="#d33" stroke-dasharray="4 3"/>
<text x="42" y="373.0" text-anchor="end" font-size="9" fill="#999">0.5×</text>
<text x="42" y="307.4964326065097" text-anchor="end" font-size="9" fill="#999">1.0×</text>
<text x="42" y="235.15844178523315" text-anchor="end" font-size="9" fill="#999">2.15×</text>
<polygon points="46.0,239.3 79.4,261.9 116.0,262.3 149.4,262.1 186.0,277.1 219.4,277.1 256.0,277.8 256.0,282.3 219.4,288.5 186.0,280.3 149.4,269.3 116.0,263.7 79.4,262.2 46.0,239.7" fill="#d62728" opacity="0.11"/>
<polyline points="46.0,239.6 79.4,262.0 116.0,262.7 149.4,264.2 186.0,277.9 219.4,278.2 256.0,280.7" fill="none" stroke="#d62728" stroke-width="1.6"/>
<circle cx="46.0" cy="239.6" r="2" fill="#d62728"/>
<circle cx="79.4" cy="262.0" r="2" fill="#d62728"/>
<circle cx="116.0" cy="262.7" r="2" fill="#d62728"/>
<circle cx="149.4" cy="264.2" r="2" fill="#d62728"/>
<circle cx="186.0" cy="277.9" r="2" fill="#d62728"/>
<circle cx="219.4" cy="278.2" r="2" fill="#d62728"/>
<circle cx="256.0" cy="280.7" r="2" fill="#d62728"/>
<polygon points="46.0,296.8 79.4,301.4 116.0,296.6 149.4,299.5 186.0,262.2 219.4,299.3 256.0,284.3 256.0,305.0 219.4,308.5 186.0,311.6 149.4,308.9 116.0,306.9 79.4,303.9 46.0,302.6" fill="#2ca02c" opacity="0.11"/>
<polyline points="46.0,297.7 79.4,302.2 116.0,302.1 149.4,304.8 186.0,302.6 219.4,303.3 256.0,290.2" fill="none" stroke="#2ca02c" stroke-width="1.6"/>
<circle cx="46.0" cy="297.7" r="2" fill="#2ca02c"/>
<circle cx="79.4" cy="302.2" r="2" fill="#2ca02c"/>
<circle cx="116.0" cy="302.1" r="2" fill="#2ca02c"/>
<circle cx="149.4" cy="304.8" r="2" fill="#2ca02c"/>
<circle cx="186.0" cy="302.6" r="2" fill="#2ca02c"/>
<circle cx="219.4" cy="303.3" r="2" fill="#2ca02c"/>
<circle cx="256.0" cy="290.2" r="2" fill="#2ca02c"/>
<polygon points="46.0,306.2 79.4,303.9 116.0,304.2 149.4,303.9 186.0,303.2 219.4,302.2 256.0,299.7 256.0,307.3 219.4,303.9 186.0,304.6 149.4,304.6 116.0,304.7 79.4,304.3 46.0,308.8" fill="#1f77b4" opacity="0.11"/>
<polyline points="46.0,307.7 79.4,304.0 116.0,304.3 149.4,304.4 186.0,303.5 219.4,303.1 256.0,303.0" fill="none" stroke="#1f77b4" stroke-width="1.6"/>
<circle cx="46.0" cy="307.7" r="2" fill="#1f77b4"/>
<circle cx="79.4" cy="304.0" r="2" fill="#1f77b4"/>
<circle cx="116.0" cy="304.3" r="2" fill="#1f77b4"/>
<circle cx="149.4" cy="304.4" r="2" fill="#1f77b4"/>
<circle cx="186.0" cy="303.5" r="2" fill="#1f77b4"/>
<circle cx="219.4" cy="303.1" r="2" fill="#1f77b4"/>
<circle cx="256.0" cy="303.0" r="2" fill="#1f77b4"/>
<text x="151.0" y="227" text-anchor="middle" font-size="12" font-weight="bold">dzasum</text>
<line x1="46.0" y1="232" x2="46.0" y2="370" stroke="#f4f4f4"/>
<text x="46.0" y="381" text-anchor="middle" font-size="8" fill="#999">1000</text>
<line x1="79.4" y1="232" x2="79.4" y2="370" stroke="#f4f4f4"/>
<text x="79.4" y="381" text-anchor="middle" font-size="8" fill="#999">2k</text>
<line x1="116.0" y1="232" x2="116.0" y2="370" stroke="#f4f4f4"/>
<text x="116.0" y="381" text-anchor="middle" font-size="8" fill="#999">9k</text>
<line x1="149.4" y1="232" x2="149.4" y2="370" stroke="#f4f4f4"/>
<text x="149.4" y="381" text-anchor="middle" font-size="8" fill="#999">29k</text>
<line x1="186.0" y1="232" x2="186.0" y2="370" stroke="#f4f4f4"/>
<text x="186.0" y="381" text-anchor="middle" font-size="8" fill="#999">97k</text>
<line x1="219.4" y1="232" x2="219.4" y2="370" stroke="#f4f4f4"/>
<text x="219.4" y="381" text-anchor="middle" font-size="8" fill="#999">292k</text>
<line x1="256.0" y1="232" x2="256.0" y2="370" stroke="#f4f4f4"/>
<text x="256.0" y="381" text-anchor="middle" font-size="8" fill="#999">976k</text>
<rect x="276" y="232" width="210" height="138" fill="none" stroke="#e2e2e2"/>
<line x1="276" y1="314.00897256747055" x2="486" y2="314.00897256747055" stroke="#d33" stroke-dasharray="4 3"/>
<text x="272" y="373.0" text-anchor="end" font-size="9" fill="#999">0.5×</text>
<text x="272" y="317.00897256747055" text-anchor="end" font-size="9" fill="#999">1.0×</text>
<text x="272" y="235.00069145012532" text-anchor="end" font-size="9" fill="#999">2.76×</text>
<polygon points="276.0,332.5 309.4,313.9 346.0,312.9 379.4,308.9 416.0,310.0 449.4,310.0 486.0,313.6 486.0,316.1 449.4,313.1 416.0,312.2 379.4,311.0 346.0,314.6 309.4,314.2 276.0,333.4" fill="#d62728" opacity="0.11"/>
<polyline points="276.0,332.8 309.4,314.0 346.0,313.9 379.4,309.8 416.0,311.3 449.4,311.2 486.0,314.0" fill="none" stroke="#d62728" stroke-width="1.6"/>
<circle cx="276.0" cy="332.8" r="2" fill="#d62728"/>
<circle cx="309.4" cy="314.0" r="2" fill="#d62728"/>
<circle cx="346.0" cy="313.9" r="2" fill="#d62728"/>
<circle cx="379.4" cy="309.8" r="2" fill="#d62728"/>
<circle cx="416.0" cy="311.3" r="2" fill="#d62728"/>
<circle cx="449.4" cy="311.2" r="2" fill="#d62728"/>
<circle cx="486.0" cy="314.0" r="2" fill="#d62728"/>
<polygon points="276.0,304.0 309.4,294.0 346.0,238.2 379.4,296.8 416.0,302.6 449.4,304.7 486.0,300.8 486.0,314.7 449.4,322.2 416.0,332.0 379.4,315.0 346.0,310.4 309.4,311.8 276.0,313.5" fill="#2ca02c" opacity="0.11"/>
<polyline points="276.0,312.1 309.4,310.7 346.0,303.2 379.4,312.0 416.0,314.6 449.4,314.3 486.0,309.2" fill="none" stroke="#2ca02c" stroke-width="1.6"/>
<circle cx="276.0" cy="312.1" r="2" fill="#2ca02c"/>
<circle cx="309.4" cy="310.7" r="2" fill="#2ca02c"/>
<circle cx="346.0" cy="303.2" r="2" fill="#2ca02c"/>
<circle cx="379.4" cy="312.0" r="2" fill="#2ca02c"/>
<circle cx="416.0" cy="314.6" r="2" fill="#2ca02c"/>
<circle cx="449.4" cy="314.3" r="2" fill="#2ca02c"/>
<circle cx="486.0" cy="309.2" r="2" fill="#2ca02c"/>
<polygon points="276.0,301.1 309.4,313.1 346.0,313.5 379.4,305.9 416.0,297.1 449.4,297.0 486.0,298.5 486.0,302.2 449.4,299.6 416.0,299.9 379.4,311.1 346.0,313.7 309.4,313.3 276.0,311.9" fill="#1f77b4" opacity="0.11"/>
<polyline points="276.0,302.4 309.4,313.2 346.0,313.6 379.4,307.7 416.0,298.4 449.4,298.2 486.0,300.2" fill="none" stroke="#1f77b4" stroke-width="1.6"/>
<circle cx="276.0" cy="302.4" r="2" fill="#1f77b4"/>
<circle cx="309.4" cy="313.2" r="2" fill="#1f77b4"/>
<circle cx="346.0" cy="313.6" r="2" fill="#1f77b4"/>
<circle cx="379.4" cy="307.7" r="2" fill="#1f77b4"/>
<circle cx="416.0" cy="298.4" r="2" fill="#1f77b4"/>
<circle cx="449.4" cy="298.2" r="2" fill="#1f77b4"/>
<circle cx="486.0" cy="300.2" r="2" fill="#1f77b4"/>
<text x="381.0" y="227" text-anchor="middle" font-size="12" font-weight="bold">zdotu</text>
<line x1="276.0" y1="232" x2="276.0" y2="370" stroke="#f4f4f4"/>
<text x="276.0" y="381" text-anchor="middle" font-size="8" fill="#999">1000</text>
<line x1="309.4" y1="232" x2="309.4" y2="370" stroke="#f4f4f4"/>
<text x="309.4" y="381" text-anchor="middle" font-size="8" fill="#999">2k</text>
<line x1="346.0" y1="232" x2="346.0" y2="370" stroke="#f4f4f4"/>
<text x="346.0" y="381" text-anchor="middle" font-size="8" fill="#999">9k</text>
<line x1="379.4" y1="232" x2="379.4" y2="370" stroke="#f4f4f4"/>
<text x="379.4" y="381" text-anchor="middle" font-size="8" fill="#999">29k</text>
<line x1="416.0" y1="232" x2="416.0" y2="370" stroke="#f4f4f4"/>
<text x="416.0" y="381" text-anchor="middle" font-size="8" fill="#999">97k</text>
<line x1="449.4" y1="232" x2="449.4" y2="370" stroke="#f4f4f4"/>
<text x="449.4" y="381" text-anchor="middle" font-size="8" fill="#999">292k</text>
<line x1="486.0" y1="232" x2="486.0" y2="370" stroke="#f4f4f4"/>
<text x="486.0" y="381" text-anchor="middle" font-size="8" fill="#999">976k</text>
<rect x="506" y="232" width="210" height="138" fill="none" stroke="#e2e2e2"/>
<line x1="506" y1="310.51156780852637" x2="716" y2="310.51156780852637" stroke="#d33" stroke-dasharray="4 3"/>
<text x="502" y="373.0" text-anchor="end" font-size="9" fill="#999">0.5×</text>
<text x="502" y="313.51156780852637" text-anchor="end" font-size="9" fill="#999">1.0×</text>
<polygon points="506.0,277.7 539.4,276.6 576.0,277.1 609.4,278.6 646.0,276.0 679.4,278.5 716.0,278.9 716.0,322.7 679.4,318.3 646.0,320.2 609.4,324.0 576.0,327.3 539.4,321.3 506.0,324.5" fill="#d62728" opacity="0.11"/>
<polyline points="506.0,297.4 539.4,294.7 576.0,296.6 609.4,297.5 646.0,293.2 679.4,295.4 716.0,300.5" fill="none" stroke="#d62728" stroke-width="1.6"/>
<circle cx="506.0" cy="297.4" r="2" fill="#d62728"/>
<circle cx="539.4" cy="294.7" r="2" fill="#d62728"/>
<circle cx="576.0" cy="296.6" r="2" fill="#d62728"/>
<circle cx="609.4" cy="297.5" r="2" fill="#d62728"/>
<circle cx="646.0" cy="293.2" r="2" fill="#d62728"/>
<circle cx="679.4" cy="295.4" r="2" fill="#d62728"/>
<circle cx="716.0" cy="300.5" r="2" fill="#d62728"/>
<polygon points="506.0,242.4 539.4,243.8 576.0,247.3 609.4,244.5 646.0,238.6 679.4,249.9 716.0,263.0 716.0,278.4 679.4,290.7 646.0,272.8 609.4,280.1 576.0,272.8 539.4,274.2 506.0,277.9" fill="#2ca02c" opacity="0.11"/>
<polyline points="506.0,258.2 539.4,255.3 576.0,258.4 609.4,260.5 646.0,258.2 679.4,265.5 716.0,270.7" fill="none" stroke="#2ca02c" stroke-width="1.6"/>
<circle cx="506.0" cy="258.2" r="2" fill="#2ca02c"/>
<circle cx="539.4" cy="255.3" r="2" fill="#2ca02c"/>
<circle cx="576.0" cy="258.4" r="2" fill="#2ca02c"/>
<circle cx="609.4" cy="260.5" r="2" fill="#2ca02c"/>
<circle cx="646.0" cy="258.2" r="2" fill="#2ca02c"/>
<circle cx="679.4" cy="265.5" r="2" fill="#2ca02c"/>
<circle cx="716.0" cy="270.7" r="2" fill="#2ca02c"/>
<polygon points="506.0,252.2 539.4,250.2 576.0,249.5 609.4,246.9 646.0,246.7 679.4,248.1 716.0,255.9 716.0,294.2 679.4,291.6 646.0,291.4 609.4,289.7 576.0,292.4 539.4,290.8 506.0,295.0" fill="#1f77b4" opacity="0.11"/>
<polyline points="506.0,269.1 539.4,268.4 576.0,268.5 609.4,264.5 646.0,268.5 679.4,266.0 716.0,273.9" fill="none" stroke="#1f77b4" stroke-width="1.6"/>
<circle cx="506.0" cy="269.1" r="2" fill="#1f77b4"/>
<circle cx="539.4" cy="268.4" r="2" fill="#1f77b4"/>
<circle cx="576.0" cy="268.5" r="2" fill="#1f77b4"/>
<circle cx="609.4" cy="264.5" r="2" fill="#1f77b4"/>
<circle cx="646.0" cy="268.5" r="2" fill="#1f77b4"/>
<circle cx="679.4" cy="266.0" r="2" fill="#1f77b4"/>
<circle cx="716.0" cy="273.9" r="2" fill="#1f77b4"/>
<text x="611.0" y="227" text-anchor="middle" font-size="12" font-weight="bold">izamax</text>
<line x1="506.0" y1="232" x2="506.0" y2="370" stroke="#f4f4f4"/>
<text x="506.0" y="381" text-anchor="middle" font-size="8" fill="#999">1000</text>
<line x1="539.4" y1="232" x2="539.4" y2="370" stroke="#f4f4f4"/>
<text x="539.4" y="381" text-anchor="middle" font-size="8" fill="#999">2k</text>
<line x1="576.0" y1="232" x2="576.0" y2="370" stroke="#f4f4f4"/>
<text x="576.0" y="381" text-anchor="middle" font-size="8" fill="#999">9k</text>
<line x1="609.4" y1="232" x2="609.4" y2="370" stroke="#f4f4f4"/>
<text x="609.4" y="381" text-anchor="middle" font-size="8" fill="#999">29k</text>
<line x1="646.0" y1="232" x2="646.0" y2="370" stroke="#f4f4f4"/>
<text x="646.0" y="381" text-anchor="middle" font-size="8" fill="#999">97k</text>
<line x1="679.4" y1="232" x2="679.4" y2="370" stroke="#f4f4f4"/>
<text x="679.4" y="381" text-anchor="middle" font-size="8" fill="#999">292k</text>
<line x1="716.0" y1="232" x2="716.0" y2="370" stroke="#f4f4f4"/>
<text x="716.0" y="381" text-anchor="middle" font-size="8" fill="#999">976k</text>
</svg>
