<svg xmlns="http://www.w3.org/2000/svg" width="900" height="440" font-family="sans-serif">
<rect width="900" height="440" fill="white"/>
<text x="450.0" y="28" text-anchor="middle" font-size="18" font-weight="bold">BLAS-2: PureBLAS / OpenBLAS (AVX2, 1 thread, Float64)</text>
<line x1="60" y1="358.0" x2="880" y2="358.0" stroke="#eee"/>
<text x="52" y="362.0" text-anchor="end" font-size="11" fill="#666">0×</text>
<line x1="60" y1="295.9438520912942" x2="880" y2="295.9438520912942" stroke="#eee"/>
<text x="52" y="299.9438520912942" text-anchor="end" font-size="11" fill="#666">0.5×</text>
<line x1="60" y1="233.88770418258838" x2="880" y2="233.88770418258838" stroke="#eee"/>
<text x="52" y="237.88770418258838" text-anchor="end" font-size="11" fill="#666">1×</text>
<line x1="60" y1="171.8315562738826" x2="880" y2="171.8315562738826" stroke="#eee"/>
<text x="52" y="175.8315562738826" text-anchor="end" font-size="11" fill="#666">1.5×</text>
<line x1="60" y1="233.88770418258838" x2="880" y2="233.88770418258838" stroke="#888" stroke-width="1"/>
<line x1="60" y1="238.85219601528485" x2="880" y2="238.85219601528485" stroke="#d33" stroke-width="1.5" stroke-dasharray="6 4"/>
<text x="880" y="233.85219601528485" text-anchor="end" font-size="11" fill="#d33">0.96× gate</text>
<polygon points="105.8,265.3 106.0,264.4 106.1,263.5 106.3,262.6 106.6,261.7 106.8,260.8 107.0,259.9 107.2,259.0 107.5,258.1 107.7,257.2 108.0,256.3 108.4,255.3 109.0,254.4 109.8,253.5 111.0,252.6 112.6,251.7 114.6,250.8 117.0,249.9 119.7,249.0 122.7,248.1 125.8,247.2 128.9,246.3 131.7,245.4 134.1,244.5 136.1,243.6 137.7,242.7 138.9,241.8 139.9,240.9 140.7,240.0 141.5,239.1 142.3,238.2 143.0,237.2 143.5,236.3 143.8,235.4 143.8,234.5 143.4,233.6 142.7,232.7 141.7,231.8 140.7,230.9 139.7,230.0 138.7,229.1 137.9,228.2 137.2,227.3 136.5,226.4 135.7,225.5 134.7,224.6 133.7,223.7 132.4,222.8 131.0,221.9 129.5,221.0 127.8,220.1 126.0,219.1 124.0,218.2 121.9,217.3 119.7,216.4 117.6,215.5 115.5,214.6 113.7,213.7 112.1,212.8 110.8,211.9 109.8,211.0 109.0,210.1 108.5,209.2 108.1,208.3 107.7,207.4 107.4,206.5 107.2,205.6 106.9,204.7 106.6,203.8 106.4,202.9 106.1,202.0 106.0,201.0 105.2,201.0 105.0,202.0 104.8,202.9 104.5,203.8 104.2,204.7 104.0,205.6 103.7,206.5 103.4,207.4 103.1,208.3 102.7,209.2 102.1,210.1 101.4,211.0 100.3,211.9 99.0,212.8 97.5,213.7 95.6,214.6 93.5,215.5 91.4,216.4 89.2,217.3 87.1,218.2 85.1,219.1 83.3,220.1 81.6,221.0 80.1,221.9 78.7,222.8 77.5,223.7 76.4,224.6 75.5,225.5 74.7,226.4 73.9,227.3 73.2,228.2 72.4,229.1 71.4,230.0 70.4,230.9 69.4,231.8 68.5,232.7 67.7,233.6 67.3,234.5 67.3,235.4 67.6,236.3 68.1,237.2 68.8,238.2 69.6,239.1 70.4,240.0 71.2,240.9 72.2,241.8 73.4,242.7 75.0,243.6 77.0,244.5 79.4,245.4 82.2,246.3 85.3,247.2 88.4,248.1 91.4,249.0 94.2,249.9 96.6,250.8 98.5,251.7 100.1,252.6 101.3,253.5 102.1,254.4 102.7,255.3 103.1,256.3 103.4,257.2 103.6,258.1 103.9,259.0 104.1,259.9 104.3,260.8 104.6,261.7 104.8,262.6 105.0,263.5 105.1,264.4 105.3,265.3" fill="#d33" opacity="0.5" stroke="#d33" stroke-width="1"/>
<line x1="67.5" y1="233.94722281876514" x2="143.6" y2="233.94722281876514" stroke="#114" stroke-width="2"/>
<circle cx="105.55555555555556" cy="243.41021136626915" r="2.4" fill="#114"/>
<text x="105.55555555555556" y="201.46571154505148" text-anchor="middle" font-size="11">1.00</text>
<text x="105.55555555555556" y="376" text-anchor="middle" font-size="12">gemvN</text>
<polygon points="196.8,243.5 196.8,243.1 196.9,242.6 197.0,242.2 197.1,241.8 197.2,241.4 197.3,240.9 197.4,240.5 197.4,240.1 197.5,239.7 197.6,239.2 197.8,238.8 198.0,238.4 198.3,238.0 198.7,237.6 199.2,237.1 200.0,236.7 201.1,236.3 202.6,235.9 204.6,235.4 207.4,235.0 210.8,234.6 214.8,234.2 219.2,233.7 223.7,233.3 227.8,232.9 231.3,232.5 233.7,232.0 234.9,231.6 234.8,231.2 233.4,230.8 231.0,230.3 227.9,229.9 224.3,229.5 220.9,229.1 217.7,228.6 215.1,228.2 213.2,227.8 212.0,227.4 211.5,227.0 211.7,226.5 212.3,226.1 213.2,225.7 214.2,225.3 215.1,224.8 215.9,224.4 216.2,224.0 216.1,223.6 215.4,223.1 214.3,222.7 212.8,222.3 211.1,221.9 209.3,221.4 207.5,221.0 205.8,220.6 204.2,220.2 202.9,219.7 201.7,219.3 200.8,218.9 200.0,218.5 199.4,218.1 199.0,217.6 198.6,217.2 198.3,216.8 198.1,216.4 197.8,215.9 197.6,215.5 197.4,215.1 197.2,214.7 197.1,214.2 196.9,213.8 196.8,213.4 196.5,213.4 196.4,213.8 196.3,214.2 196.1,214.7 195.9,215.1 195.7,215.5 195.5,215.9 195.3,216.4 195.0,216.8 194.7,217.2 194.4,217.6 193.9,218.1 193.3,218.5 192.6,218.9 191.6,219.3 190.5,219.7 189.1,220.2 187.6,220.6 185.9,221.0 184.0,221.4 182.2,221.9 180.5,222.3 179.0,222.7 177.9,223.1 177.3,223.6 177.1,224.0 177.5,224.4 178.2,224.8 179.2,225.3 180.2,225.7 181.1,226.1 181.7,226.5 181.8,227.0 181.4,227.4 180.2,227.8 178.3,228.2 175.7,228.6 172.5,229.1 169.0,229.5 165.5,229.9 162.3,230.3 159.9,230.8 158.5,231.2 158.4,231.6 159.6,232.0 162.0,232.5 165.5,232.9 169.7,233.3 174.1,233.7 178.5,234.2 182.6,234.6 186.0,235.0 188.7,235.4 190.8,235.9 192.3,236.3 193.3,236.7 194.1,237.1 194.6,237.6 195.0,238.0 195.3,238.4 195.5,238.8 195.7,239.2 195.8,239.7 195.9,240.1 196.0,240.5 196.1,240.9 196.1,241.4 196.2,241.8 196.3,242.2 196.4,242.6 196.5,243.1 196.5,243.5" fill="#2a8" opacity="0.5" stroke="#2a8" stroke-width="1"/>
<line x1="163.8" y1="230.14281594519224" x2="229.6" y2="230.14281594519224" stroke="#114" stroke-width="2"/>
<circle cx="196.66666666666669" cy="232.55011766406767" r="2.4" fill="#114"/>
<text x="196.66666666666669" y="210.50195689353887" text-anchor="middle" font-size="11">1.03</text>
<text x="196.66666666666669" y="376" text-anchor="middle" font-size="12">gemvT</text>
<polygon points="292.9,243.3 294.7,242.5 296.9,241.7 299.5,240.9 302.5,240.1 305.8,239.2 309.3,238.4 312.9,237.6 316.3,236.8 319.5,236.0 322.2,235.2 324.3,234.4 325.6,233.6 326.0,232.8 325.7,231.9 324.4,231.1 322.5,230.3 319.9,229.5 316.9,228.7 313.6,227.9 310.2,227.1 306.9,226.3 303.7,225.5 300.8,224.6 298.2,223.8 296.0,223.0 294.1,222.2 292.6,221.4 291.3,220.6 290.4,219.8 289.7,219.0 289.1,218.2 288.7,217.3 288.5,216.5 288.3,215.7 288.1,214.9 288.1,214.1 288.0,213.3 288.1,212.5 288.1,211.7 288.2,210.9 288.4,210.0 288.6,209.2 288.9,208.4 289.2,207.6 289.7,206.8 290.1,206.0 290.7,205.2 291.3,204.4 291.9,203.6 292.4,202.7 292.9,201.9 293.4,201.1 293.7,200.3 293.9,199.5 294.0,198.7 293.9,197.9 293.6,197.1 293.2,196.2 292.8,195.4 292.3,194.6 291.7,193.8 291.1,193.0 290.6,192.2 290.1,191.4 289.7,190.6 289.3,189.8 288.9,188.9 288.7,188.1 288.5,187.3 288.3,186.5 288.1,185.7 287.4,185.7 287.3,186.5 287.1,187.3 286.9,188.1 286.6,188.9 286.3,189.8 285.9,190.6 285.5,191.4 285.0,192.2 284.4,193.0 283.9,193.8 283.3,194.6 282.8,195.4 282.3,196.2 282.0,197.1 281.7,197.9 281.6,198.7 281.6,199.5 281.8,200.3 282.2,201.1 282.6,201.9 283.1,202.7 283.7,203.6 284.3,204.4 284.9,205.2 285.4,206.0 285.9,206.8 286.3,207.6 286.7,208.4 287.0,209.2 287.2,210.0 287.3,210.9 287.4,211.7 287.5,212.5 287.5,213.3 287.5,214.1 287.4,214.9 287.3,215.7 287.1,216.5 286.8,217.3 286.4,218.2 285.9,219.0 285.2,219.8 284.2,220.6 283.0,221.4 281.5,222.2 279.6,223.0 277.4,223.8 274.8,224.6 271.8,225.5 268.7,226.3 265.3,227.1 261.9,227.9 258.6,228.7 255.6,229.5 253.1,230.3 251.1,231.1 249.9,231.9 249.5,232.8 250.0,233.6 251.3,234.4 253.3,235.2 256.0,236.0 259.2,236.8 262.7,237.6 266.2,238.4 269.7,239.2 273.0,240.1 276.0,240.9 278.6,241.7 280.8,242.5 282.6,243.3" fill="#2a8" opacity="0.5" stroke="#2a8" stroke-width="1"/>
<line x1="249.6" y1="232.27719591580438" x2="325.9" y2="232.27719591580438" stroke="#114" stroke-width="2"/>
<circle cx="287.77777777777777" cy="235.7665895827838" r="2.4" fill="#114"/>
<text x="287.77777777777777" y="185.47828042398845" text-anchor="middle" font-size="11">1.01</text>
<text x="287.77777777777777" y="376" text-anchor="middle" font-size="12">ger</text>
<polygon points="381.7,247.4 382.7,246.4 384.0,245.4 385.5,244.3 387.4,243.3 389.6,242.3 392.0,241.3 394.8,240.2 397.7,239.2 400.8,238.2 404.0,237.1 407.0,236.1 409.8,235.1 412.3,234.1 414.4,233.0 415.9,232.0 416.8,231.0 417.2,229.9 416.9,228.9 416.0,227.9 414.6,226.8 412.8,225.8 410.7,224.8 408.3,223.8 405.8,222.7 403.3,221.7 400.8,220.7 398.4,219.6 396.2,218.6 394.2,217.6 392.4,216.6 390.8,215.5 389.5,214.5 388.4,213.5 387.6,212.4 387.0,211.4 386.6,210.4 386.4,209.3 386.4,208.3 386.6,207.3 386.9,206.3 387.2,205.2 387.6,204.2 388.0,203.2 388.3,202.1 388.6,201.1 388.7,200.1 388.8,199.0 388.8,198.0 388.7,197.0 388.6,196.0 388.5,194.9 388.4,193.9 388.3,192.9 388.3,191.8 388.3,190.8 388.4,189.8 388.5,188.8 388.5,187.7 388.6,186.7 388.5,185.7 388.4,184.6 388.1,183.6 387.7,182.6 387.2,181.5 386.6,180.5 385.9,179.5 385.1,178.5 384.3,177.4 383.6,176.4 382.8,175.4 382.1,174.3 375.7,174.3 375.0,175.4 374.2,176.4 373.4,177.4 372.6,178.5 371.9,179.5 371.2,180.5 370.6,181.5 370.0,182.6 369.7,183.6 369.4,184.6 369.3,185.7 369.2,186.7 369.2,187.7 369.3,188.8 369.4,189.8 369.4,190.8 369.5,191.8 369.4,192.9 369.4,193.9 369.3,194.9 369.1,196.0 369.0,197.0 369.0,198.0 369.0,199.0 369.0,200.1 369.2,201.1 369.5,202.1 369.8,203.2 370.1,204.2 370.5,205.2 370.9,206.3 371.2,207.3 371.3,208.3 371.4,209.3 371.2,210.4 370.8,211.4 370.2,212.4 369.4,213.5 368.3,214.5 367.0,215.5 365.4,216.6 363.6,217.6 361.6,218.6 359.3,219.6 357.0,220.7 354.5,221.7 352.0,222.7 349.5,223.8 347.1,224.8 345.0,225.8 343.2,226.8 341.8,227.9 340.9,228.9 340.6,229.9 340.9,231.0 341.9,232.0 343.4,233.0 345.5,234.1 348.0,235.1 350.8,236.1 353.8,237.1 356.9,238.2 360.0,239.2 363.0,240.2 365.7,241.3 368.2,242.3 370.4,243.3 372.2,244.3 373.8,245.4 375.0,246.4 376.0,247.4" fill="#2a8" opacity="0.5" stroke="#2a8" stroke-width="1"/>
<line x1="342.7" y1="227.16591392313376" x2="415.1" y2="227.16591392313376" stroke="#114" stroke-width="2"/>
<circle cx="378.8888888888889" cy="232.76920385011945" r="2.4" fill="#114"/>
<text x="378.8888888888889" y="175.61313988840314" text-anchor="middle" font-size="11">1.05</text>
<text x="378.8888888888889" y="376" text-anchor="middle" font-size="12">symv</text>
<polygon points="476.3,243.3 478.2,242.0 480.5,240.6 483.0,239.2 485.9,237.8 489.0,236.4 492.3,235.1 495.6,233.7 498.7,232.3 501.6,230.9 504.1,229.5 506.1,228.1 507.5,226.8 508.2,225.4 508.3,224.0 507.7,222.6 506.5,221.2 504.9,219.9 502.9,218.5 500.6,217.1 498.1,215.7 495.7,214.3 493.3,213.0 491.1,211.6 489.0,210.2 487.2,208.8 485.6,207.4 484.4,206.1 483.3,204.7 482.5,203.3 481.9,201.9 481.5,200.5 481.1,199.2 480.9,197.8 480.6,196.4 480.3,195.0 480.0,193.6 479.6,192.3 479.1,190.9 478.5,189.5 477.9,188.1 477.3,186.7 476.7,185.4 476.1,184.0 475.7,182.6 475.4,181.2 475.2,179.8 475.2,178.5 475.4,177.1 475.7,175.7 476.2,174.3 476.7,172.9 477.4,171.6 477.9,170.2 478.5,168.8 478.9,167.4 479.2,166.0 479.3,164.7 479.3,163.3 479.0,161.9 478.6,160.5 478.0,159.1 477.3,157.8 476.5,156.4 475.7,155.0 474.9,153.6 474.1,152.2 473.4,150.9 472.7,149.5 472.2,148.1 471.7,146.7 471.3,145.3 468.7,145.3 468.3,146.7 467.8,148.1 467.3,149.5 466.6,150.9 465.9,152.2 465.1,153.6 464.3,155.0 463.5,156.4 462.7,157.8 462.0,159.1 461.4,160.5 461.0,161.9 460.7,163.3 460.7,164.7 460.8,166.0 461.1,167.4 461.5,168.8 462.1,170.2 462.6,171.6 463.3,172.9 463.8,174.3 464.3,175.7 464.6,177.1 464.8,178.5 464.8,179.8 464.6,181.2 464.3,182.6 463.9,184.0 463.3,185.4 462.7,186.7 462.1,188.1 461.5,189.5 460.9,190.9 460.4,192.3 460.0,193.6 459.7,195.0 459.4,196.4 459.1,197.8 458.9,199.2 458.5,200.5 458.1,201.9 457.5,203.3 456.7,204.7 455.6,206.1 454.4,207.4 452.8,208.8 451.0,210.2 448.9,211.6 446.7,213.0 444.3,214.3 441.9,215.7 439.4,217.1 437.1,218.5 435.1,219.9 433.5,221.2 432.3,222.6 431.7,224.0 431.8,225.4 432.5,226.8 433.9,228.1 435.9,229.5 438.4,230.9 441.3,232.3 444.4,233.7 447.7,235.1 451.0,236.4 454.1,237.8 457.0,239.2 459.5,240.6 461.8,242.0 463.7,243.3" fill="#2a8" opacity="0.5" stroke="#2a8" stroke-width="1"/>
<line x1="432.3" y1="222.69016434666273" x2="507.7" y2="222.69016434666273" stroke="#114" stroke-width="2"/>
<circle cx="470.0" cy="228.29634362896874" r="2.4" fill="#114"/>
<text x="470.0" y="149.02544199504615" text-anchor="middle" font-size="11">1.09</text>
<text x="470.0" y="376" text-anchor="middle" font-size="12">trmv</text>
<polygon points="568.8,242.3 571.0,240.8 573.5,239.3 576.4,237.8 579.6,236.3 583.0,234.8 586.3,233.2 589.6,231.7 592.7,230.2 595.3,228.7 597.3,227.2 598.7,225.7 599.4,224.1 599.3,222.6 598.5,221.1 597.1,219.6 595.1,218.1 592.9,216.6 590.4,215.0 587.9,213.5 585.5,212.0 583.3,210.5 581.3,209.0 579.7,207.5 578.5,205.9 577.5,204.4 576.7,202.9 576.2,201.4 575.8,199.9 575.5,198.3 575.2,196.8 575.1,195.3 574.9,193.8 574.8,192.3 574.7,190.8 574.6,189.2 574.5,187.7 574.5,186.2 574.4,184.7 574.3,183.2 574.2,181.7 574.0,180.1 573.9,178.6 573.7,177.1 573.5,175.6 573.3,174.1 573.1,172.6 573.0,171.0 573.0,169.5 572.9,168.0 572.9,166.5 572.9,165.0 572.8,163.5 572.6,161.9 572.2,160.4 571.8,158.9 571.2,157.4 570.5,155.9 569.6,154.3 568.7,152.8 567.8,151.3 566.9,149.8 566.0,148.3 565.2,146.8 564.4,145.2 563.8,143.7 563.2,142.2 562.8,140.7 562.4,139.2 562.1,137.7 561.8,136.1 561.7,134.6 560.6,134.6 560.4,136.1 560.1,137.7 559.8,139.2 559.5,140.7 559.0,142.2 558.4,143.7 557.8,145.2 557.1,146.8 556.2,148.3 555.3,149.8 554.4,151.3 553.5,152.8 552.6,154.3 551.8,155.9 551.0,157.4 550.5,158.9 550.0,160.4 549.7,161.9 549.5,163.5 549.4,165.0 549.3,166.5 549.3,168.0 549.2,169.5 549.2,171.0 549.1,172.6 548.9,174.1 548.7,175.6 548.6,177.1 548.4,178.6 548.2,180.1 548.0,181.7 547.9,183.2 547.8,184.7 547.8,186.2 547.7,187.7 547.6,189.2 547.5,190.8 547.4,192.3 547.3,193.8 547.2,195.3 547.0,196.8 546.7,198.3 546.5,199.9 546.1,201.4 545.5,202.9 544.8,204.4 543.8,205.9 542.5,207.5 540.9,209.0 539.0,210.5 536.7,212.0 534.3,213.5 531.8,215.0 529.4,216.6 527.1,218.1 525.1,219.6 523.7,221.1 522.9,222.6 522.8,224.1 523.5,225.7 524.9,227.2 527.0,228.7 529.6,230.2 532.6,231.7 535.9,233.2 539.3,234.8 542.6,236.3 545.8,237.8 548.7,239.3 551.3,240.8 553.5,242.3" fill="#2a8" opacity="0.5" stroke="#2a8" stroke-width="1"/>
<line x1="525.9" y1="218.94937469167274" x2="596.3" y2="218.94937469167274" stroke="#114" stroke-width="2"/>
<circle cx="561.1111111111111" cy="226.80409572601644" r="2.4" fill="#114"/>
<text x="561.1111111111111" y="139.24986297401188" text-anchor="middle" font-size="11">1.12</text>
<text x="561.1111111111111" y="376" text-anchor="middle" font-size="12">trsv</text>
<polygon points="667.1,256.3 669.6,253.4 672.2,250.5 674.9,247.6 677.6,244.7 680.1,241.8 682.5,238.9 684.7,236.0 686.6,233.1 688.1,230.2 689.3,227.3 690.1,224.4 690.5,221.5 690.5,218.6 690.2,215.6 689.5,212.7 688.6,209.8 687.5,206.9 686.2,204.0 684.7,201.1 683.1,198.2 681.4,195.3 679.7,192.4 678.0,189.5 676.2,186.6 674.5,183.7 672.8,180.8 671.2,177.9 669.7,175.0 668.4,172.1 667.1,169.2 666.1,166.2 665.2,163.3 664.6,160.4 664.1,157.5 663.7,154.6 663.6,151.7 663.5,148.8 663.6,145.9 663.6,143.0 663.7,140.1 663.7,137.2 663.7,134.3 663.7,131.4 663.5,128.5 663.3,125.6 663.0,122.7 662.7,119.7 662.4,116.8 662.0,113.9 661.8,111.0 661.6,108.1 661.5,105.2 661.5,102.3 661.6,99.4 661.7,96.5 662.0,93.6 662.2,90.7 662.4,87.8 662.6,84.9 662.8,82.0 662.8,79.1 662.7,76.2 662.5,73.2 662.1,70.3 661.6,67.4 661.0,64.5 660.3,61.6 659.6,58.7 658.8,55.8 658.0,52.9 657.2,50.0 647.2,50.0 646.4,52.9 645.6,55.8 644.8,58.7 644.1,61.6 643.4,64.5 642.8,67.4 642.3,70.3 642.0,73.2 641.8,76.2 641.7,79.1 641.7,82.0 641.8,84.9 642.0,87.8 642.2,90.7 642.5,93.6 642.7,96.5 642.9,99.4 642.9,102.3 642.9,105.2 642.8,108.1 642.7,111.0 642.4,113.9 642.1,116.8 641.8,119.7 641.4,122.7 641.2,125.6 640.9,128.5 640.8,131.4 640.7,134.3 640.7,137.2 640.7,140.1 640.8,143.0 640.9,145.9 640.9,148.8 640.9,151.7 640.7,154.6 640.4,157.5 639.9,160.4 639.2,163.3 638.4,166.2 637.3,169.2 636.1,172.1 634.7,175.0 633.2,177.9 631.6,180.8 629.9,183.7 628.2,186.6 626.5,189.5 624.7,192.4 623.0,195.3 621.3,198.2 619.7,201.1 618.3,204.0 616.9,206.9 615.8,209.8 614.9,212.7 614.3,215.6 614.0,218.6 614.0,221.5 614.4,224.4 615.2,227.3 616.3,230.2 617.9,233.1 619.7,236.0 621.9,238.9 624.3,241.8 626.9,244.7 629.5,247.6 632.2,250.5 634.8,253.4 637.3,256.3" fill="#2a8" opacity="0.5" stroke="#2a8" stroke-width="1"/>
<line x1="617.9" y1="204.7904462703388" x2="686.5" y2="204.7904462703388" stroke="#114" stroke-width="2"/>
<circle cx="652.2222222222223" cy="234.66953686966656" r="2.4" fill="#114"/>
<text x="652.2222222222223" y="61.43396226415098" text-anchor="middle" font-size="11">1.23</text>
<text x="652.2222222222223" y="376" text-anchor="middle" font-size="12">spmv</text>
<polygon points="743.5,239.0 743.6,238.5 743.6,238.1 743.7,237.6 743.8,237.2 743.9,236.7 744.1,236.3 744.2,235.8 744.4,235.4 744.6,234.9 745.0,234.5 745.5,234.0 746.3,233.6 747.3,233.1 748.7,232.7 750.4,232.2 752.6,231.8 755.2,231.3 758.1,230.9 761.4,230.4 764.8,230.0 768.3,229.5 771.7,229.1 774.8,228.6 777.5,228.2 779.5,227.7 780.9,227.3 781.6,226.8 781.6,226.4 780.9,225.9 779.7,225.5 778.1,225.0 776.2,224.6 774.1,224.1 772.0,223.7 769.8,223.2 767.7,222.8 765.6,222.3 763.7,221.9 761.8,221.4 760.1,221.0 758.4,220.5 756.8,220.0 755.2,219.6 753.8,219.1 752.5,218.7 751.3,218.2 750.4,217.8 749.7,217.3 749.3,216.9 749.2,216.4 749.3,216.0 749.7,215.5 750.1,215.1 750.7,214.6 751.2,214.2 751.6,213.7 751.8,213.3 751.8,212.8 751.5,212.4 750.9,211.9 750.2,211.5 749.3,211.0 748.3,210.6 747.3,210.1 746.4,209.7 745.7,209.2 745.0,208.8 744.5,208.3 744.1,207.9 743.9,207.4 743.7,207.0 743.0,207.0 742.8,207.4 742.5,207.9 742.1,208.3 741.6,208.8 741.0,209.2 740.2,209.7 739.3,210.1 738.4,210.6 737.4,211.0 736.5,211.5 735.8,211.9 735.2,212.4 734.9,212.8 734.9,213.3 735.1,213.7 735.5,214.2 736.0,214.6 736.5,215.1 737.0,215.5 737.3,216.0 737.5,216.4 737.3,216.9 736.9,217.3 736.2,217.8 735.3,218.2 734.2,218.7 732.9,219.1 731.4,219.6 729.9,220.0 728.3,220.5 726.6,221.0 724.8,221.4 723.0,221.9 721.1,222.3 719.0,222.8 716.9,223.2 714.7,223.7 712.5,224.1 710.4,224.6 708.5,225.0 706.9,225.5 705.7,225.9 705.1,226.4 705.1,226.8 705.7,227.3 707.1,227.7 709.2,228.2 711.9,228.6 715.0,229.1 718.3,229.5 721.8,230.0 725.3,230.4 728.5,230.9 731.5,231.3 734.1,231.8 736.2,232.2 738.0,232.7 739.4,233.1 740.4,233.6 741.1,234.0 741.7,234.5 742.0,234.9 742.3,235.4 742.5,235.8 742.6,236.3 742.7,236.7 742.8,237.2 742.9,237.6 743.0,238.1 743.1,238.5 743.2,239.0" fill="#2a8" opacity="0.5" stroke="#2a8" stroke-width="1"/>
<line x1="706.6" y1="225.57974679354726" x2="780.1" y2="225.57974679354726" stroke="#114" stroke-width="2"/>
<circle cx="743.3333333333334" cy="228.09888557583932" r="2.4" fill="#114"/>
<text x="743.3333333333334" y="204.26445648449248" text-anchor="middle" font-size="11">1.07</text>
<text x="743.3333333333334" y="376" text-anchor="middle" font-size="12">gbmvN</text>
<polygon points="834.5,188.1 834.5,186.9 834.6,185.7 834.7,184.5 834.8,183.3 834.8,182.1 834.9,180.9 835.0,179.7 835.0,178.5 835.0,177.3 835.0,176.1 835.0,174.9 835.1,173.7 835.2,172.5 835.3,171.3 835.4,170.1 835.4,168.9 835.4,167.7 835.6,166.5 835.9,165.3 836.6,164.1 838.0,162.9 840.4,161.7 844.0,160.5 848.7,159.3 854.3,158.1 860.3,156.9 865.9,155.7 870.3,154.5 872.6,153.3 872.7,152.1 870.7,150.9 867.1,149.7 862.7,148.5 858.3,147.3 854.2,146.2 850.9,145.0 848.2,143.8 846.3,142.6 844.8,141.4 843.8,140.2 843.1,139.0 842.6,137.8 842.5,136.6 842.5,135.4 842.6,134.2 842.7,133.0 842.6,131.8 842.1,130.6 841.4,129.4 840.5,128.2 839.5,127.0 838.5,125.8 837.6,124.6 836.9,123.4 836.2,122.2 835.7,121.0 835.4,119.8 835.1,118.6 834.9,117.4 834.9,116.2 834.9,115.0 834.9,113.8 834.9,112.6 834.9,111.4 834.9,110.2 834.8,109.0 834.8,107.8 834.7,106.6 834.6,105.4 834.5,104.2 834.5,103.0 834.4,103.0 834.4,104.2 834.3,105.4 834.2,106.6 834.1,107.8 834.0,109.0 834.0,110.2 834.0,111.4 834.0,112.6 834.0,113.8 834.0,115.0 834.0,116.2 834.0,117.4 833.8,118.6 833.5,119.8 833.1,121.0 832.6,122.2 832.0,123.4 831.3,124.6 830.4,125.8 829.4,127.0 828.4,128.2 827.5,129.4 826.8,130.6 826.3,131.8 826.2,133.0 826.2,134.2 826.4,135.4 826.4,136.6 826.3,137.8 825.8,139.0 825.1,140.2 824.1,141.4 822.6,142.6 820.6,143.8 818.0,145.0 814.7,146.2 810.6,147.3 806.2,148.5 801.8,149.7 798.2,150.9 796.2,152.1 796.3,153.3 798.6,154.5 802.9,155.7 808.5,156.9 814.6,158.1 820.2,159.3 824.9,160.5 828.5,161.7 830.8,162.9 832.3,164.1 833.0,165.3 833.3,166.5 833.4,167.7 833.5,168.9 833.5,170.1 833.6,171.3 833.7,172.5 833.8,173.7 833.9,174.9 833.9,176.1 833.9,177.3 833.9,178.5 833.9,179.7 834.0,180.9 834.0,182.1 834.1,183.3 834.2,184.5 834.3,185.7 834.4,186.9 834.4,188.1" fill="#2a8" opacity="0.5" stroke="#2a8" stroke-width="1"/>
<line x1="797.0" y1="151.51507332774167" x2="871.9" y2="151.51507332774167" stroke="#114" stroke-width="2"/>
<circle cx="834.4444444444445" cy="154.44722704935884" r="2.4" fill="#114"/>
<text x="834.4444444444445" y="105.46931865949408" text-anchor="middle" font-size="11">1.66</text>
<text x="834.4444444444445" y="376" text-anchor="middle" font-size="12">sbmv</text>
<text x="450.0" y="428" text-anchor="middle" font-size="11" fill="#666">violin = ratio distribution over sizes · line = median · dark dot = worst size · green = every size ≥ gate</text>
</svg>
