<svg xmlns="http://www.w3.org/2000/svg" width="900" height="460" font-family="sans-serif">
<rect width="900" height="460" fill="white"/>
<text x="450.0" y="28" text-anchor="middle" font-size="18" font-weight="bold">Complex LAPACK: PureBLAS / OpenBLAS (AVX-512 native (Zen5), 1 thread, ComplexF64)</text>
<line x1="62" y1="400.0" x2="768" y2="400.0" stroke="#eee"/>
<text x="54" y="404.0" text-anchor="end" font-size="11" fill="#666">0.5×</text>
<line x1="62" y1="309.0737547859205" x2="768" y2="309.0737547859205" stroke="#eee"/>
<text x="54" y="313.0737547859205" text-anchor="end" font-size="11" fill="#666">0.7×</text>
<line x1="62" y1="212.68805075292804" x2="768" y2="212.68805075292804" stroke="#eee"/>
<text x="54" y="216.68805075292804" text-anchor="end" font-size="11" fill="#666">1.0×</text>
<line x1="62" y1="103.11758450640653" x2="768" y2="103.11758450640653" stroke="#eee"/>
<text x="54" y="107.11758450640653" text-anchor="end" font-size="11" fill="#666">1.5×</text>
<line x1="62.0" y1="50" x2="62.0" y2="400" stroke="#f4f4f4"/>
<text x="62.0" y="418" text-anchor="middle" font-size="11" fill="#444">8</text>
<line x1="238.5" y1="50" x2="238.5" y2="400" stroke="#f4f4f4"/>
<text x="238.5" y="418" text-anchor="middle" font-size="11" fill="#444">32</text>
<line x1="415.0" y1="50" x2="415.0" y2="400" stroke="#f4f4f4"/>
<text x="415.0" y="418" text-anchor="middle" font-size="11" fill="#444">128</text>
<line x1="503.25" y1="50" x2="503.25" y2="400" stroke="#f4f4f4"/>
<text x="503.25" y="418" text-anchor="middle" font-size="11" fill="#444">256</text>
<line x1="591.5" y1="50" x2="591.5" y2="400" stroke="#f4f4f4"/>
<text x="591.5" y="418" text-anchor="middle" font-size="11" fill="#444">512</text>
<line x1="679.75" y1="50" x2="679.75" y2="400" stroke="#f4f4f4"/>
<text x="679.75" y="418" text-anchor="middle" font-size="11" fill="#444">1024</text>
<line x1="768.0" y1="50" x2="768.0" y2="400" stroke="#f4f4f4"/>
<text x="768.0" y="418" text-anchor="middle" font-size="11" fill="#444">2048</text>
<line x1="62" y1="212.68805075292804" x2="768" y2="212.68805075292804" stroke="#888"/>
<line x1="62" y1="223.71954244790288" x2="768" y2="223.71954244790288" stroke="#d33" stroke-width="1.5" stroke-dasharray="6 4"/>
<text x="66" y="218.71954244790288" font-size="11" fill="#d33">0.96× gate</text>
<polygon points="62.0,83.8 238.5,200.7 415.0,160.8 503.2,154.5 591.5,138.3 679.8,151.1 768.0,162.5 768.0,162.7 679.8,151.3 591.5,138.6 503.2,155.7 415.0,162.5 238.5,222.3 62.0,90.9" fill="#1f77b4" opacity="0.14" stroke="none"/>
<polyline points="62.0,87.8 238.5,203.3 415.0,161.4 503.2,155.1 591.5,138.4 679.8,151.2 768.0,162.6" fill="none" stroke="#1f77b4" stroke-width="2"/>
<circle cx="62.0" cy="87.8" r="3" fill="#1f77b4"/>
<circle cx="238.5" cy="203.3" r="3" fill="#1f77b4"/>
<circle cx="415.0" cy="161.4" r="3" fill="#1f77b4"/>
<circle cx="503.2" cy="155.1" r="3" fill="#1f77b4"/>
<circle cx="591.5" cy="138.4" r="3" fill="#1f77b4"/>
<circle cx="679.8" cy="151.2" r="3" fill="#1f77b4"/>
<circle cx="768.0" cy="162.6" r="3" fill="#1f77b4"/>
<line x1="782" y1="56" x2="802" y2="56" stroke="#1f77b4" stroke-width="3"/>
<text x="806" y="60" font-size="12">zpotrf</text>
<polygon points="62.0,229.1 238.5,362.2 415.0,363.3 503.2,264.4 591.5,227.1 679.8,213.2 768.0,205.0 768.0,205.1 679.8,214.8 591.5,227.2 503.2,264.6 415.0,363.8 238.5,366.2 62.0,232.9" fill="#d62728" opacity="0.14" stroke="none"/>
<polyline points="62.0,231.3 238.5,364.9 415.0,363.4 503.2,264.5 591.5,227.2 679.8,213.6 768.0,205.1" fill="none" stroke="#d62728" stroke-width="2"/>
<circle cx="62.0" cy="231.3" r="3" fill="#d62728"/>
<circle cx="238.5" cy="364.9" r="3" fill="#d62728"/>
<circle cx="415.0" cy="363.4" r="3" fill="#d62728"/>
<circle cx="503.2" cy="264.5" r="3" fill="#d62728"/>
<circle cx="591.5" cy="227.2" r="3" fill="#d62728"/>
<circle cx="679.8" cy="213.6" r="3" fill="#d62728"/>
<circle cx="768.0" cy="205.1" r="3" fill="#d62728"/>
<line x1="782" y1="74" x2="802" y2="74" stroke="#d62728" stroke-width="3"/>
<text x="806" y="78" font-size="12">zgeqrf</text>
<polygon points="62.0,186.4 238.5,181.9 415.0,208.1 503.2,215.1 591.5,195.7 679.8,221.3 768.0,207.4 768.0,208.3 679.8,221.5 591.5,195.8 503.2,215.6 415.0,208.4 238.5,182.9 62.0,186.8" fill="#2ca02c" opacity="0.14" stroke="none"/>
<polyline points="62.0,186.5 238.5,182.7 415.0,208.2 503.2,215.2 591.5,195.8 679.8,221.4 768.0,208.0" fill="none" stroke="#2ca02c" stroke-width="2"/>
<circle cx="62.0" cy="186.5" r="3" fill="#2ca02c"/>
<circle cx="238.5" cy="182.7" r="3" fill="#2ca02c"/>
<circle cx="415.0" cy="208.2" r="3" fill="#2ca02c"/>
<circle cx="503.2" cy="215.2" r="3" fill="#2ca02c"/>
<circle cx="591.5" cy="195.8" r="3" fill="#2ca02c"/>
<circle cx="679.8" cy="221.4" r="3" fill="#2ca02c"/>
<circle cx="768.0" cy="208.0" r="3" fill="#2ca02c"/>
<line x1="782" y1="92" x2="802" y2="92" stroke="#2ca02c" stroke-width="3"/>
<text x="806" y="96" font-size="12">zgetrf</text>
<polygon points="62.0,89.7 238.5,225.1 415.0,400.0 503.2,400.0 591.5,400.0 679.8,400.0 768.0,400.0 768.0,400.0 679.8,400.0 591.5,400.0 503.2,400.0 415.0,400.0 238.5,230.8 62.0,95.4" fill="#9467bd" opacity="0.14" stroke="none"/>
<polyline points="62.0,92.1 238.5,230.6 415.0,400.0 503.2,400.0 591.5,400.0 679.8,400.0 768.0,400.0" fill="none" stroke="#9467bd" stroke-width="2"/>
<circle cx="62.0" cy="92.1" r="3" fill="#9467bd"/>
<circle cx="238.5" cy="230.6" r="3" fill="#9467bd"/>
<circle cx="415.0" cy="400.0" r="3" fill="#9467bd"/>
<circle cx="503.2" cy="400.0" r="3" fill="#9467bd"/>
<circle cx="591.5" cy="400.0" r="3" fill="#9467bd"/>
<circle cx="679.8" cy="400.0" r="3" fill="#9467bd"/>
<circle cx="768.0" cy="400.0" r="3" fill="#9467bd"/>
<line x1="782" y1="110" x2="802" y2="110" stroke="#9467bd" stroke-width="3"/>
<text x="806" y="114" font-size="12">zgesvd</text>
<text x="415.0" y="450" text-anchor="middle" font-size="11" fill="#666">matrix size n (log) · y = median ratio (log) · dashed = the 0.96× gate</text>
</svg>
