<svg xmlns="http://www.w3.org/2000/svg" width="900" height="440" font-family="sans-serif">
<rect width="900" height="440" fill="white"/>
<text x="450.0" y="28" text-anchor="middle" font-size="18" font-weight="bold">BLAS-2: PureBLAS / OpenBLAS (AVX-512, 1 thread, Float64)</text>
<line x1="60" y1="358.0" x2="880" y2="358.0" stroke="#eee"/>
<text x="52" y="362.0" text-anchor="end" font-size="11" fill="#666">0×</text>
<line x1="60" y1="288.24467744129794" x2="880" y2="288.24467744129794" stroke="#eee"/>
<text x="52" y="292.24467744129794" text-anchor="end" font-size="11" fill="#666">0.5×</text>
<line x1="60" y1="218.48935488259588" x2="880" y2="218.48935488259588" stroke="#eee"/>
<text x="52" y="222.48935488259588" text-anchor="end" font-size="11" fill="#666">1×</text>
<line x1="60" y1="148.7340323238938" x2="880" y2="148.7340323238938" stroke="#eee"/>
<text x="52" y="152.7340323238938" text-anchor="end" font-size="11" fill="#666">1.5×</text>
<line x1="60" y1="218.48935488259588" x2="880" y2="218.48935488259588" stroke="#888" stroke-width="1"/>
<line x1="60" y1="224.06978068729208" x2="880" y2="224.06978068729208" stroke="#d33" stroke-width="1.5" stroke-dasharray="6 4"/>
<text x="880" y="219.06978068729208" text-anchor="end" font-size="11" fill="#d33">0.96× gate</text>
<polygon points="113.3,246.4 115.6,243.7 118.4,240.9 121.6,238.1 125.0,235.4 128.6,232.6 132.1,229.8 135.4,227.1 138.4,224.3 140.8,221.5 142.6,218.8 143.6,216.0 143.8,213.2 143.3,210.5 142.1,207.7 140.4,204.9 138.3,202.2 135.9,199.4 133.4,196.6 131.0,193.9 128.8,191.1 126.8,188.3 125.0,185.6 123.5,182.8 122.1,180.0 121.0,177.3 120.0,174.5 119.0,171.7 118.0,169.0 117.0,166.2 116.0,163.4 114.8,160.7 113.7,157.9 112.5,155.1 111.4,152.4 110.3,149.6 109.3,146.8 108.5,144.1 107.8,141.3 107.3,138.5 106.9,135.8 106.6,133.0 106.4,130.2 106.3,127.5 106.3,124.7 106.3,121.9 106.5,119.2 106.6,116.4 106.9,113.6 107.1,110.9 107.5,108.1 107.9,105.3 108.3,102.6 108.8,99.8 109.4,97.0 110.0,94.3 110.7,91.5 111.3,88.7 112.0,86.0 112.5,83.2 113.0,80.4 113.3,77.7 113.4,74.9 113.3,72.1 113.1,69.4 112.7,66.6 112.2,63.8 111.5,61.1 110.7,58.3 110.0,55.5 109.2,52.8 108.5,50.0 102.6,50.0 101.9,52.8 101.1,55.5 100.4,58.3 99.6,61.1 99.0,63.8 98.4,66.6 98.0,69.4 97.8,72.1 97.7,74.9 97.9,77.7 98.2,80.4 98.6,83.2 99.2,86.0 99.8,88.7 100.4,91.5 101.1,94.3 101.7,97.0 102.3,99.8 102.8,102.6 103.3,105.3 103.7,108.1 104.0,110.9 104.3,113.6 104.5,116.4 104.7,119.2 104.8,121.9 104.8,124.7 104.8,127.5 104.7,130.2 104.5,133.0 104.3,135.8 103.8,138.5 103.3,141.3 102.6,144.1 101.8,146.8 100.8,149.6 99.7,152.4 98.6,155.1 97.4,157.9 96.3,160.7 95.1,163.4 94.1,166.2 93.1,169.0 92.1,171.7 91.1,174.5 90.1,177.3 89.0,180.0 87.7,182.8 86.1,185.6 84.3,188.3 82.3,191.1 80.1,193.9 77.7,196.6 75.2,199.4 72.9,202.2 70.7,204.9 69.0,207.7 67.8,210.5 67.3,213.2 67.5,216.0 68.5,218.8 70.3,221.5 72.7,224.3 75.7,227.1 79.0,229.8 82.5,232.6 86.1,235.4 89.5,238.1 92.7,240.9 95.5,243.7 97.9,246.4" fill="#d33" opacity="0.5" stroke="#d33" stroke-width="1"/>
<line x1="68.1" y1="209.7397728170815" x2="143.0" y2="209.7397728170815" stroke="#114" stroke-width="2"/>
<circle cx="105.55555555555556" cy="224.3170712949833" r="2.4" fill="#114"/>
<text x="105.55555555555556" y="61.433962264150935" text-anchor="middle" font-size="11">1.06</text>
<text x="105.55555555555556" y="376" text-anchor="middle" font-size="12">gemvN</text>
<polygon points="199.3,233.3 200.1,232.5 201.1,231.7 202.3,230.8 203.7,230.0 205.2,229.2 206.9,228.3 208.7,227.5 210.5,226.7 212.3,225.8 214.1,225.0 215.8,224.2 217.4,223.3 218.8,222.5 220.1,221.7 221.2,220.8 222.3,220.0 223.3,219.2 224.3,218.3 225.3,217.5 226.5,216.6 227.7,215.8 229.1,215.0 230.6,214.1 232.0,213.3 233.3,212.5 234.3,211.6 234.9,210.8 234.9,210.0 234.4,209.1 233.2,208.3 231.5,207.5 229.2,206.6 226.6,205.8 223.6,205.0 220.6,204.1 217.5,203.3 214.5,202.5 211.8,201.6 209.3,200.8 207.1,200.0 205.2,199.1 203.7,198.3 202.5,197.5 201.7,196.6 201.2,195.8 201.0,195.0 201.2,194.1 201.7,193.3 202.6,192.5 203.8,191.6 205.3,190.8 207.1,189.9 209.1,189.1 211.3,188.3 213.4,187.4 215.4,186.6 217.2,185.8 218.6,184.9 219.4,184.1 219.8,183.3 219.5,182.4 218.6,181.6 217.3,180.8 215.5,179.9 213.4,179.1 211.2,178.3 208.9,177.4 206.7,176.6 204.7,175.8 203.0,174.9 201.4,174.1 191.9,174.1 190.4,174.9 188.6,175.8 186.6,176.6 184.4,177.4 182.1,178.3 179.9,179.1 177.8,179.9 176.0,180.8 174.7,181.6 173.8,182.4 173.6,183.3 173.9,184.1 174.8,184.9 176.2,185.8 177.9,186.6 179.9,187.4 182.1,188.3 184.2,189.1 186.2,189.9 188.0,190.8 189.5,191.6 190.7,192.5 191.6,193.3 192.1,194.1 192.3,195.0 192.1,195.8 191.6,196.6 190.8,197.5 189.6,198.3 188.1,199.1 186.2,200.0 184.0,200.8 181.6,201.6 178.8,202.5 175.8,203.3 172.8,204.1 169.7,205.0 166.8,205.8 164.1,206.6 161.9,207.5 160.1,208.3 158.9,209.1 158.4,210.0 158.4,210.8 159.0,211.6 160.0,212.5 161.3,213.3 162.7,214.1 164.2,215.0 165.6,215.8 166.9,216.6 168.0,217.5 169.1,218.3 170.1,219.2 171.0,220.0 172.1,220.8 173.2,221.7 174.5,222.5 175.9,223.3 177.5,224.2 179.2,225.0 181.0,225.8 182.8,226.7 184.7,227.5 186.4,228.3 188.1,229.2 189.6,230.0 191.0,230.8 192.2,231.7 193.2,232.5 194.1,233.3" fill="#2a8" opacity="0.5" stroke="#2a8" stroke-width="1"/>
<line x1="158.7" y1="209.46250067978934" x2="234.7" y2="209.46250067978934" stroke="#114" stroke-width="2"/>
<circle cx="196.66666666666669" cy="223.3586703578329" r="2.4" fill="#114"/>
<text x="196.66666666666669" y="174.05168294977491" text-anchor="middle" font-size="11">1.06</text>
<text x="196.66666666666669" y="376" text-anchor="middle" font-size="12">gemvT</text>
<polygon points="292.0,220.2 293.6,219.7 295.6,219.2 297.8,218.7 300.2,218.2 302.5,217.7 304.7,217.2 306.6,216.7 308.2,216.1 309.3,215.6 310.0,215.1 310.4,214.6 310.5,214.1 310.5,213.6 310.5,213.1 310.5,212.6 310.5,212.1 310.8,211.5 311.1,211.0 311.7,210.5 312.6,210.0 313.7,209.5 315.1,209.0 316.8,208.5 318.7,208.0 320.7,207.5 322.6,206.9 324.2,206.4 325.5,205.9 326.0,205.4 325.9,204.9 324.9,204.4 323.2,203.9 320.7,203.4 317.7,202.9 314.3,202.3 310.8,201.8 307.4,201.3 304.3,200.8 301.6,200.3 299.4,199.8 297.8,199.3 296.6,198.8 295.9,198.3 295.5,197.7 295.2,197.2 295.1,196.7 295.0,196.2 295.0,195.7 295.0,195.2 295.1,194.7 295.2,194.2 295.4,193.7 295.7,193.2 296.0,192.6 296.3,192.1 296.5,191.6 296.5,191.1 296.4,190.6 296.1,190.1 295.6,189.6 295.0,189.1 294.2,188.6 293.3,188.0 292.4,187.5 291.6,187.0 290.8,186.5 290.1,186.0 289.5,185.5 289.0,185.0 288.6,184.5 288.3,184.0 287.2,184.0 286.9,184.5 286.6,185.0 286.1,185.5 285.5,186.0 284.8,186.5 284.0,187.0 283.1,187.5 282.2,188.0 281.4,188.6 280.6,189.1 279.9,189.6 279.4,190.1 279.1,190.6 279.0,191.1 279.1,191.6 279.3,192.1 279.6,192.6 279.9,193.2 280.1,193.7 280.3,194.2 280.5,194.7 280.5,195.2 280.5,195.7 280.5,196.2 280.4,196.7 280.3,197.2 280.1,197.7 279.6,198.3 278.9,198.8 277.8,199.3 276.1,199.8 274.0,200.3 271.3,200.8 268.2,201.3 264.8,201.8 261.3,202.3 257.9,202.9 254.9,203.4 252.4,203.9 250.6,204.4 249.7,204.9 249.5,205.4 250.1,205.9 251.3,206.4 253.0,206.9 254.9,207.5 256.9,208.0 258.7,208.5 260.4,209.0 261.9,209.5 263.0,210.0 263.8,210.5 264.4,211.0 264.8,211.5 265.0,212.1 265.1,212.6 265.1,213.1 265.1,213.6 265.1,214.1 265.2,214.6 265.6,215.1 266.3,215.6 267.4,216.1 268.9,216.7 270.8,217.2 273.0,217.7 275.4,218.2 277.7,218.7 280.0,219.2 281.9,219.7 283.6,220.2" fill="#2a8" opacity="0.5" stroke="#2a8" stroke-width="1"/>
<line x1="250.0" y1="205.83878156362343" x2="325.6" y2="205.83878156362343" stroke="#114" stroke-width="2"/>
<circle cx="287.77777777777777" cy="216.26069505193206" r="2.4" fill="#114"/>
<text x="287.77777777777777" y="181.6893639903022" text-anchor="middle" font-size="11">1.09</text>
<text x="287.77777777777777" y="376" text-anchor="middle" font-size="12">ger</text>
<polygon points="382.5,206.8 383.9,206.2 385.5,205.5 387.4,204.8 389.5,204.1 391.7,203.4 394.0,202.8 396.3,202.1 398.4,201.4 400.4,200.7 402.0,200.0 403.3,199.4 404.3,198.7 405.0,198.0 405.3,197.3 405.5,196.6 405.4,196.0 405.4,195.3 405.3,194.6 405.3,193.9 405.6,193.2 406.2,192.5 407.1,191.9 408.3,191.2 409.8,190.5 411.4,189.8 413.1,189.1 414.6,188.5 415.8,187.8 416.7,187.1 417.2,186.4 417.1,185.7 416.7,185.1 416.0,184.4 415.0,183.7 413.9,183.0 412.8,182.3 411.7,181.7 410.6,181.0 409.6,180.3 408.7,179.6 407.8,178.9 406.8,178.2 405.8,177.6 404.7,176.9 403.6,176.2 402.4,175.5 401.1,174.8 399.9,174.2 398.8,173.5 397.8,172.8 397.0,172.1 396.4,171.4 396.0,170.8 395.9,170.1 396.0,169.4 396.2,168.7 396.5,168.0 396.6,167.4 396.6,166.7 396.2,166.0 395.5,165.3 394.4,164.6 393.0,164.0 391.4,163.3 389.6,162.6 387.8,161.9 386.1,161.2 384.5,160.5 383.1,159.9 382.0,159.2 381.1,158.5 376.7,158.5 375.8,159.2 374.7,159.9 373.3,160.5 371.7,161.2 370.0,161.9 368.2,162.6 366.4,163.3 364.7,164.0 363.3,164.6 362.3,165.3 361.6,166.0 361.2,166.7 361.2,167.4 361.3,168.0 361.6,168.7 361.8,169.4 361.9,170.1 361.8,170.8 361.4,171.4 360.8,172.1 360.0,172.8 359.0,173.5 357.8,174.2 356.6,174.8 355.4,175.5 354.2,176.2 353.0,176.9 352.0,177.6 351.0,178.2 350.0,178.9 349.1,179.6 348.1,180.3 347.2,181.0 346.1,181.7 345.0,182.3 343.9,183.0 342.8,183.7 341.8,184.4 341.0,185.1 340.6,185.7 340.6,186.4 341.1,187.1 341.9,187.8 343.2,188.5 344.7,189.1 346.3,189.8 348.0,190.5 349.4,191.2 350.7,191.9 351.6,192.5 352.1,193.2 352.4,193.9 352.5,194.6 352.4,195.3 352.3,196.0 352.3,196.6 352.4,197.3 352.8,198.0 353.5,198.7 354.5,199.4 355.8,200.0 357.4,200.7 359.3,201.4 361.5,202.1 363.7,202.8 366.1,203.4 368.3,204.1 370.4,204.8 372.3,205.5 373.9,206.2 375.2,206.8" fill="#2a8" opacity="0.5" stroke="#2a8" stroke-width="1"/>
<line x1="340.8" y1="185.3334011202798" x2="416.9" y2="185.3334011202798" stroke="#114" stroke-width="2"/>
<circle cx="378.8888888888889" cy="200.55407815612247" r="2.4" fill="#114"/>
<text x="378.8888888888889" y="157.40755630249748" text-anchor="middle" font-size="11">1.24</text>
<text x="378.8888888888889" y="376" text-anchor="middle" font-size="12">symv</text>
<polygon points="473.3,222.2 474.7,221.2 476.5,220.1 478.7,219.1 481.1,218.1 483.7,217.1 486.4,216.1 488.8,215.0 490.9,214.0 492.5,213.0 493.5,212.0 493.9,210.9 493.7,209.9 493.3,208.9 492.7,207.9 492.4,206.9 492.5,205.8 493.1,204.8 494.5,203.8 496.4,202.8 498.8,201.7 501.4,200.7 503.9,199.7 506.1,198.7 507.6,197.7 508.3,196.6 508.0,195.6 506.7,194.6 504.6,193.6 501.9,192.5 498.9,191.5 495.7,190.5 492.9,189.5 490.4,188.5 488.6,187.4 487.4,186.4 486.8,185.4 486.7,184.4 486.8,183.3 487.1,182.3 487.2,181.3 487.0,180.3 486.5,179.3 485.6,178.2 484.5,177.2 483.1,176.2 481.7,175.2 480.3,174.1 479.0,173.1 477.9,172.1 477.1,171.1 476.6,170.1 476.3,169.0 476.3,168.0 476.5,167.0 476.8,166.0 477.2,164.9 477.6,163.9 477.9,162.9 478.1,161.9 478.2,160.9 478.0,159.8 477.5,158.8 476.9,157.8 476.1,156.8 475.3,155.7 474.4,154.7 473.5,153.7 472.7,152.7 472.0,151.7 471.4,150.6 471.0,149.6 469.0,149.6 468.6,150.6 468.0,151.7 467.3,152.7 466.5,153.7 465.6,154.7 464.7,155.7 463.9,156.8 463.1,157.8 462.5,158.8 462.0,159.8 461.8,160.9 461.9,161.9 462.1,162.9 462.4,163.9 462.8,164.9 463.2,166.0 463.5,167.0 463.7,168.0 463.7,169.0 463.4,170.1 462.9,171.1 462.1,172.1 461.0,173.1 459.7,174.1 458.3,175.2 456.9,176.2 455.5,177.2 454.4,178.2 453.5,179.3 453.0,180.3 452.8,181.3 452.9,182.3 453.2,183.3 453.3,184.4 453.2,185.4 452.6,186.4 451.4,187.4 449.6,188.5 447.1,189.5 444.3,190.5 441.1,191.5 438.1,192.5 435.4,193.6 433.3,194.6 432.0,195.6 431.7,196.6 432.4,197.7 433.9,198.7 436.1,199.7 438.6,200.7 441.2,201.7 443.6,202.8 445.5,203.8 446.9,204.8 447.5,205.8 447.6,206.9 447.3,207.9 446.7,208.9 446.3,209.9 446.1,210.9 446.5,212.0 447.5,213.0 449.1,214.0 451.2,215.0 453.6,216.1 456.3,217.1 458.9,218.1 461.3,219.1 463.5,220.1 465.3,221.2 466.7,222.2" fill="#2a8" opacity="0.5" stroke="#2a8" stroke-width="1"/>
<line x1="431.8" y1="196.16650970165412" x2="508.2" y2="196.16650970165412" stroke="#114" stroke-width="2"/>
<circle cx="470.0" cy="212.23039542325603" r="2.4" fill="#114"/>
<text x="470.0" y="150.86431170257595" text-anchor="middle" font-size="11">1.16</text>
<text x="470.0" y="376" text-anchor="middle" font-size="12">trmv</text>
<polygon points="563.5,223.4 564.5,222.9 565.7,222.3 567.1,221.8 568.8,221.2 570.8,220.7 572.9,220.1 575.2,219.6 577.5,219.1 579.7,218.5 581.7,218.0 583.5,217.4 585.0,216.9 586.0,216.3 586.5,215.8 586.5,215.2 585.9,214.7 584.9,214.1 583.6,213.6 581.9,213.1 580.1,212.5 578.3,212.0 576.7,211.4 575.4,210.9 574.6,210.3 574.2,209.8 574.4,209.2 575.1,208.7 576.2,208.1 577.6,207.6 579.2,207.1 580.9,206.5 582.5,206.0 584.1,205.4 585.5,204.9 586.9,204.3 588.1,203.8 589.3,203.2 590.5,202.7 591.6,202.1 592.8,201.6 593.9,201.1 595.0,200.5 596.0,200.0 597.0,199.4 597.8,198.9 598.4,198.3 598.9,197.8 599.3,197.2 599.4,196.7 599.2,196.1 598.7,195.6 597.9,195.1 596.6,194.5 594.9,194.0 592.7,193.4 590.2,192.9 587.3,192.3 584.3,191.8 581.1,191.2 578.0,190.7 575.1,190.1 572.4,189.6 570.0,189.1 567.9,188.5 566.2,188.0 564.8,187.4 563.8,186.9 563.0,186.3 562.4,185.8 561.9,185.2 561.6,184.7 560.6,184.7 560.3,185.2 559.9,185.8 559.3,186.3 558.5,186.9 557.4,187.4 556.0,188.0 554.3,188.5 552.2,189.1 549.8,189.6 547.1,190.1 544.2,190.7 541.1,191.2 538.0,191.8 534.9,192.3 532.1,192.9 529.5,193.4 527.4,194.0 525.6,194.5 524.3,195.1 523.5,195.6 523.0,196.1 522.8,196.7 523.0,197.2 523.3,197.8 523.8,198.3 524.5,198.9 525.3,199.4 526.2,200.0 527.2,200.5 528.3,201.1 529.4,201.6 530.6,202.1 531.8,202.7 532.9,203.2 534.1,203.8 535.4,204.3 536.7,204.9 538.1,205.4 539.7,206.0 541.3,206.5 543.0,207.1 544.6,207.6 546.0,208.1 547.1,208.7 547.8,209.2 548.0,209.8 547.6,210.3 546.8,210.9 545.5,211.4 543.9,212.0 542.1,212.5 540.3,213.1 538.7,213.6 537.3,214.1 536.3,214.7 535.8,215.2 535.7,215.8 536.2,216.3 537.2,216.9 538.7,217.4 540.5,218.0 542.5,218.5 544.8,219.1 547.0,219.6 549.3,220.1 551.4,220.7 553.4,221.2 555.1,221.8 556.6,222.3 557.8,222.9 558.7,223.4" fill="#2a8" opacity="0.5" stroke="#2a8" stroke-width="1"/>
<line x1="527.8" y1="200.79147889785884" x2="594.5" y2="200.79147889785884" stroke="#114" stroke-width="2"/>
<circle cx="561.1111111111111" cy="217.20757457734828" r="2.4" fill="#114"/>
<text x="561.1111111111111" y="182.66594093107253" text-anchor="middle" font-size="11">1.13</text>
<text x="561.1111111111111" y="376" text-anchor="middle" font-size="12">trsv</text>
<polygon points="657.7,219.4 659.0,217.7 660.3,216.0 661.6,214.3 662.8,212.6 663.8,210.9 664.5,209.2 664.8,207.5 664.9,205.9 664.6,204.2 664.1,202.5 663.5,200.8 662.8,199.1 662.1,197.4 661.6,195.7 661.4,194.0 661.4,192.3 661.7,190.6 662.2,188.9 662.9,187.2 663.6,185.5 664.2,183.8 664.7,182.1 665.0,180.4 665.0,178.7 664.7,177.0 664.2,175.3 663.6,173.6 663.0,171.9 662.5,170.2 662.1,168.5 662.1,166.8 662.4,165.1 663.1,163.4 664.2,161.7 665.6,160.0 667.4,158.3 669.5,156.6 671.7,154.9 674.0,153.2 676.4,151.5 678.7,149.8 681.0,148.1 683.1,146.4 685.1,144.7 686.9,143.0 688.3,141.3 689.5,139.6 690.2,137.9 690.5,136.2 690.2,134.5 689.5,132.8 688.2,131.1 686.5,129.4 684.5,127.7 682.3,126.0 680.0,124.3 677.7,122.6 675.5,120.9 673.3,119.2 671.3,117.5 669.5,115.8 667.7,114.1 666.0,112.4 664.4,110.7 662.9,109.0 661.3,107.3 659.9,105.7 658.6,104.0 657.3,102.3 656.2,100.6 655.3,98.9 649.1,98.9 648.2,100.6 647.1,102.3 645.9,104.0 644.5,105.7 643.1,107.3 641.6,109.0 640.0,110.7 638.4,112.4 636.7,114.1 635.0,115.8 633.1,117.5 631.1,119.2 629.0,120.9 626.7,122.6 624.4,124.3 622.1,126.0 619.9,127.7 617.9,129.4 616.2,131.1 615.0,132.8 614.2,134.5 614.0,136.2 614.2,137.9 615.0,139.6 616.1,141.3 617.6,143.0 619.4,144.7 621.3,146.4 623.5,148.1 625.7,149.8 628.1,151.5 630.4,153.2 632.7,154.9 635.0,156.6 637.0,158.3 638.8,160.0 640.3,161.7 641.4,163.4 642.1,165.1 642.4,166.8 642.3,168.5 642.0,170.2 641.4,171.9 640.8,173.6 640.2,175.3 639.7,177.0 639.5,178.7 639.5,180.4 639.7,182.1 640.2,183.8 640.9,185.5 641.6,187.2 642.2,188.9 642.7,190.6 643.0,192.3 643.0,194.0 642.8,195.7 642.3,197.4 641.7,199.1 641.0,200.8 640.3,202.5 639.8,204.2 639.6,205.9 639.6,207.5 640.0,209.2 640.7,210.9 641.6,212.6 642.8,214.3 644.1,216.0 645.4,217.7 646.7,219.4" fill="#2a8" opacity="0.5" stroke="#2a8" stroke-width="1"/>
<line x1="617.8" y1="143.23417193571174" x2="686.6" y2="143.23417193571174" stroke="#114" stroke-width="2"/>
<circle cx="652.2222222222223" cy="207.09833972315639" r="2.4" fill="#114"/>
<text x="652.2222222222223" y="104.75107900520233" text-anchor="middle" font-size="11">1.54</text>
<text x="652.2222222222223" y="376" text-anchor="middle" font-size="12">spmv</text>
<polygon points="743.4,181.7 743.5,181.0 743.6,180.3 743.8,179.6 744.0,178.8 744.3,178.1 744.7,177.4 745.1,176.7 745.7,176.0 746.3,175.2 747.0,174.5 747.8,173.8 748.7,173.1 749.8,172.4 751.0,171.6 752.3,170.9 754.0,170.2 756.0,169.5 758.4,168.8 761.2,168.0 764.6,167.3 768.3,166.6 772.1,165.9 775.6,165.2 778.7,164.4 780.7,163.7 781.6,163.0 781.2,162.3 779.8,161.6 777.4,160.8 774.6,160.1 771.5,159.4 768.4,158.7 765.4,158.0 762.5,157.2 759.7,156.5 757.2,155.8 754.9,155.1 753.1,154.4 751.7,153.6 750.8,152.9 750.3,152.2 750.3,151.5 750.5,150.8 751.0,150.0 751.6,149.3 752.3,148.6 753.2,147.9 754.0,147.2 754.8,146.4 755.5,145.7 755.9,145.0 756.0,144.3 755.6,143.6 754.8,142.8 753.5,142.1 752.0,141.4 750.3,140.7 748.7,140.0 747.3,139.2 746.1,138.5 745.2,137.8 744.6,137.1 744.2,136.4 743.9,135.6 743.7,134.9 743.6,134.2 743.5,133.5 743.5,132.8 743.4,132.0 743.4,131.3 743.4,130.6 743.3,130.6 743.3,131.3 743.2,132.0 743.2,132.8 743.1,133.5 743.0,134.2 742.9,134.9 742.8,135.6 742.5,136.4 742.1,137.1 741.5,137.8 740.6,138.5 739.4,139.2 737.9,140.0 736.3,140.7 734.7,141.4 733.1,142.1 731.9,142.8 731.0,143.6 730.7,144.3 730.8,145.0 731.2,145.7 731.9,146.4 732.7,147.2 733.5,147.9 734.3,148.6 735.1,149.3 735.7,150.0 736.1,150.8 736.4,151.5 736.3,152.2 735.9,152.9 735.0,153.6 733.6,154.4 731.7,155.1 729.5,155.8 727.0,156.5 724.2,157.2 721.3,158.0 718.2,158.7 715.1,159.4 712.1,160.1 709.2,160.8 706.9,161.6 705.4,162.3 705.1,163.0 705.9,163.7 708.0,164.4 711.0,165.2 714.6,165.9 718.4,166.6 722.1,167.3 725.4,168.0 728.3,168.8 730.7,169.5 732.7,170.2 734.3,170.9 735.7,171.6 736.9,172.4 737.9,173.1 738.9,173.8 739.7,174.5 740.4,175.2 741.0,176.0 741.6,176.7 742.0,177.4 742.4,178.1 742.7,178.8 742.9,179.6 743.0,180.3 743.2,181.0 743.2,181.7" fill="#2a8" opacity="0.5" stroke="#2a8" stroke-width="1"/>
<line x1="705.5" y1="162.2638463935299" x2="781.2" y2="162.2638463935299" stroke="#114" stroke-width="2"/>
<circle cx="743.3333333333334" cy="166.96953696670585" r="2.4" fill="#114"/>
<text x="743.3333333333334" y="129.7695519691748" text-anchor="middle" font-size="11">1.40</text>
<text x="743.3333333333334" y="376" text-anchor="middle" font-size="12">gbmvN</text>
<polygon points="834.5,217.5 834.5,216.8 834.6,216.1 834.6,215.5 834.7,214.8 834.8,214.1 834.8,213.4 835.0,212.8 835.1,212.1 835.3,211.4 835.5,210.8 835.7,210.1 836.0,209.4 836.5,208.7 837.2,208.1 838.3,207.4 840.0,206.7 842.6,206.1 846.1,205.4 850.6,204.7 855.8,204.0 861.3,203.4 866.3,202.7 870.2,202.0 872.5,201.4 872.7,200.7 871.1,200.0 868.0,199.4 864.1,198.7 860.2,198.0 856.7,197.3 854.2,196.7 852.7,196.0 852.2,195.3 852.2,194.7 852.6,194.0 853.1,193.3 853.4,192.6 853.4,192.0 853.0,191.3 852.4,190.6 851.4,190.0 850.3,189.3 849.0,188.6 847.6,187.9 846.3,187.3 845.1,186.6 844.1,185.9 843.5,185.3 843.2,184.6 843.1,183.9 843.3,183.2 843.6,182.6 843.8,181.9 843.9,181.2 843.6,180.6 843.1,179.9 842.3,179.2 841.3,178.5 840.2,177.9 839.1,177.2 838.1,176.5 837.2,175.9 836.4,175.2 835.8,174.5 835.4,173.8 835.1,173.2 834.9,172.5 834.7,171.8 834.6,171.2 834.5,170.5 834.5,169.8 834.4,169.8 834.3,170.5 834.3,171.2 834.2,171.8 834.0,172.5 833.8,173.2 833.5,173.8 833.0,174.5 832.5,175.2 831.7,175.9 830.8,176.5 829.8,177.2 828.7,177.9 827.6,178.5 826.6,179.2 825.8,179.9 825.3,180.6 825.0,181.2 825.1,181.9 825.3,182.6 825.5,183.2 825.7,183.9 825.7,184.6 825.4,185.3 824.8,185.9 823.8,186.6 822.6,187.3 821.3,187.9 819.9,188.6 818.6,189.3 817.5,190.0 816.5,190.6 815.9,191.3 815.5,192.0 815.5,192.6 815.8,193.3 816.3,194.0 816.7,194.7 816.7,195.3 816.2,196.0 814.7,196.7 812.1,197.3 808.7,198.0 804.8,198.7 800.9,199.4 797.8,200.0 796.2,200.7 796.4,201.4 798.6,202.0 802.6,202.7 807.6,203.4 813.1,204.0 818.3,204.7 822.8,205.4 826.3,206.1 828.9,206.7 830.6,207.4 831.7,208.1 832.4,208.7 832.9,209.4 833.2,210.1 833.4,210.8 833.6,211.4 833.8,212.1 833.9,212.8 834.0,213.4 834.1,214.1 834.2,214.8 834.3,215.5 834.3,216.1 834.4,216.8 834.4,217.5" fill="#2a8" opacity="0.5" stroke="#2a8" stroke-width="1"/>
<line x1="805.6" y1="198.53642587806272" x2="863.3" y2="198.53642587806272" stroke="#114" stroke-width="2"/>
<circle cx="834.4444444444445" cy="202.03304824371008" r="2.4" fill="#114"/>
<text x="834.4444444444445" y="168.65514729559828" text-anchor="middle" font-size="11">1.14</text>
<text x="834.4444444444445" y="376" text-anchor="middle" font-size="12">sbmv</text>
<text x="450.0" y="428" text-anchor="middle" font-size="11" fill="#666">violin = ratio distribution over sizes · line = median · dark dot = worst size · green = every size ≥ gate</text>
</svg>
