<svg xmlns="http://www.w3.org/2000/svg" width="900" height="440" font-family="sans-serif">
<rect width="900" height="440" fill="white"/>
<text x="450.0" y="28" text-anchor="middle" font-size="18" font-weight="bold">Complex BLAS-1: PureBLAS / OpenBLAS (AVX-512, 1 thread, ComplexF64)</text>
<line x1="60" y1="358.0" x2="880" y2="358.0" stroke="#eee"/>
<text x="52" y="362.0" text-anchor="end" font-size="11" fill="#666">0×</text>
<line x1="60" y1="346.3008841438375" x2="880" y2="346.3008841438375" stroke="#eee"/>
<text x="52" y="350.3008841438375" text-anchor="end" font-size="11" fill="#666">0.5×</text>
<line x1="60" y1="334.601768287675" x2="880" y2="334.601768287675" stroke="#eee"/>
<text x="52" y="338.601768287675" text-anchor="end" font-size="11" fill="#666">1×</text>
<line x1="60" y1="322.9026524315125" x2="880" y2="322.9026524315125" stroke="#eee"/>
<text x="52" y="326.9026524315125" text-anchor="end" font-size="11" fill="#666">1.5×</text>
<line x1="60" y1="334.601768287675" x2="880" y2="334.601768287675" stroke="#888" stroke-width="1"/>
<line x1="60" y1="335.537697556168" x2="880" y2="335.537697556168" stroke="#d33" stroke-width="1.5" stroke-dasharray="6 4"/>
<text x="880" y="330.537697556168" text-anchor="end" font-size="11" fill="#d33">0.96× gate</text>
<polygon points="118.7,338.3 118.7,338.2 118.8,338.1 118.9,337.9 119.1,337.8 119.3,337.7 119.6,337.5 120.0,337.4 120.6,337.3 121.4,337.1 122.6,337.0 124.1,336.9 126.3,336.7 129.2,336.6 132.8,336.5 137.2,336.3 142.3,336.2 147.8,336.0 153.3,335.9 158.3,335.8 162.6,335.6 165.6,335.5 167.3,335.4 167.8,335.2 167.2,335.1 165.9,335.0 164.3,334.8 162.4,334.7 160.5,334.6 158.4,334.4 156.0,334.3 153.1,334.2 149.7,334.0 145.8,333.9 141.6,333.8 137.3,333.6 133.3,333.5 129.7,333.4 126.7,333.2 124.3,333.1 122.5,332.9 121.4,332.8 120.7,332.7 120.3,332.5 120.3,332.4 120.6,332.3 121.1,332.1 121.9,332.0 122.7,331.9 123.7,331.7 124.6,331.6 125.4,331.5 126.1,331.3 126.5,331.2 126.7,331.1 126.7,330.9 126.6,330.8 126.4,330.7 126.2,330.5 125.9,330.4 125.6,330.3 125.2,330.1 124.8,330.0 124.2,329.8 123.4,329.7 122.6,329.6 121.8,329.4 121.0,329.3 120.3,329.2 119.8,329.0 119.4,328.9 119.1,328.8 118.1,328.8 117.8,328.9 117.4,329.0 116.8,329.2 116.1,329.3 115.3,329.4 114.5,329.6 113.7,329.7 113.0,329.8 112.4,330.0 111.9,330.1 111.5,330.3 111.2,330.4 111.0,330.5 110.8,330.7 110.6,330.8 110.4,330.9 110.4,331.1 110.6,331.2 111.1,331.3 111.7,331.5 112.6,331.6 113.5,331.7 114.4,331.9 115.3,332.0 116.0,332.1 116.5,332.3 116.8,332.4 116.8,332.5 116.5,332.7 115.8,332.8 114.6,332.9 112.9,333.1 110.5,333.2 107.5,333.4 103.9,333.5 99.8,333.6 95.6,333.8 91.4,333.9 87.5,334.0 84.0,334.2 81.1,334.3 78.7,334.4 76.6,334.6 74.7,334.7 72.9,334.8 71.2,335.0 70.0,335.1 69.4,335.2 69.8,335.4 71.5,335.5 74.6,335.6 78.8,335.8 83.9,335.9 89.4,336.0 94.8,336.2 99.9,336.3 104.3,336.5 108.0,336.6 110.8,336.7 113.0,336.9 114.6,337.0 115.7,337.1 116.5,337.3 117.1,337.4 117.5,337.5 117.8,337.7 118.0,337.8 118.2,337.9 118.3,338.1 118.4,338.2 118.5,338.3" fill="#d33" opacity="0.5" stroke="#d33" stroke-width="1"/>
<line x1="70.5" y1="335.045952696701" x2="166.7" y2="335.045952696701" stroke="#114" stroke-width="2"/>
<circle cx="118.57142857142857" cy="335.73538188407395" r="2.4" fill="#114"/>
<text x="118.57142857142857" y="323.7342439273051" text-anchor="middle" font-size="11">0.98</text>
<text x="118.57142857142857" y="376" text-anchor="middle" font-size="12">zaxpy</text>
<polygon points="243.1,335.4 245.5,335.3 248.3,335.2 251.5,335.1 255.1,335.0 259.0,334.9 263.0,334.9 267.0,334.8 270.9,334.7 274.4,334.6 277.4,334.5 279.8,334.4 281.6,334.3 282.6,334.2 283.1,334.1 283.0,334.0 282.4,333.9 281.5,333.8 280.5,333.7 279.4,333.6 278.2,333.5 277.1,333.4 276.0,333.3 274.8,333.2 273.6,333.1 272.3,333.0 270.9,332.9 269.2,332.9 267.4,332.8 265.4,332.7 263.3,332.6 261.1,332.5 259.0,332.4 257.0,332.3 255.2,332.2 253.6,332.1 252.5,332.0 251.8,331.9 251.5,331.8 251.8,331.7 252.5,331.6 253.8,331.5 255.6,331.4 257.8,331.3 260.5,331.2 263.4,331.1 266.5,331.0 269.8,331.0 273.0,330.9 276.0,330.8 278.8,330.7 281.2,330.6 283.1,330.5 284.4,330.4 284.9,330.3 284.7,330.2 283.8,330.1 282.1,330.0 279.7,329.9 276.7,329.8 273.3,329.7 269.5,329.6 265.5,329.5 261.5,329.4 257.6,329.3 253.9,329.2 250.6,329.1 247.6,329.1 245.0,329.0 242.8,328.9 241.0,328.8 239.6,328.7 231.8,328.7 230.4,328.8 228.6,328.9 226.4,329.0 223.9,329.1 220.9,329.1 217.5,329.2 213.8,329.3 209.9,329.4 205.9,329.5 201.9,329.6 198.1,329.7 194.7,329.8 191.7,329.9 189.3,330.0 187.6,330.1 186.7,330.2 186.5,330.3 187.1,330.4 188.3,330.5 190.2,330.6 192.6,330.7 195.4,330.8 198.5,330.9 201.7,331.0 204.9,331.0 208.0,331.1 211.0,331.2 213.6,331.3 215.8,331.4 217.6,331.5 218.9,331.6 219.7,331.7 219.9,331.8 219.7,331.9 218.9,332.0 217.8,332.1 216.3,332.2 214.5,332.3 212.4,332.4 210.3,332.5 208.1,332.6 206.0,332.7 204.0,332.8 202.2,332.9 200.6,332.9 199.1,333.0 197.8,333.1 196.6,333.2 195.5,333.3 194.4,333.4 193.2,333.5 192.1,333.6 190.9,333.7 189.9,333.8 189.0,333.9 188.5,334.0 188.3,334.1 188.8,334.2 189.9,334.3 191.6,334.4 194.0,334.5 197.1,334.6 200.6,334.7 204.4,334.8 208.4,334.9 212.5,334.9 216.3,335.0 219.9,335.1 223.2,335.2 225.9,335.3 228.3,335.4" fill="#2a8" opacity="0.5" stroke="#2a8" stroke-width="1"/>
<line x1="205.5" y1="332.68813993072064" x2="265.9" y2="332.68813993072064" stroke="#114" stroke-width="2"/>
<circle cx="235.71428571428572" cy="334.35147645391294" r="2.4" fill="#114"/>
<text x="235.71428571428572" y="323.3637601247245" text-anchor="middle" font-size="11">1.08</text>
<text x="235.71428571428572" y="376" text-anchor="middle" font-size="12">zdotc</text>
<polygon points="352.9,340.0 352.9,339.9 352.9,339.8 352.9,339.7 353.0,339.6 353.0,339.5 353.1,339.4 353.1,339.3 353.1,339.2 353.1,339.1 353.0,339.0 352.9,338.9 352.9,338.8 352.9,338.7 352.9,338.6 352.9,338.5 352.9,338.4 352.9,338.3 352.9,338.2 352.9,338.1 352.9,338.0 352.9,337.9 352.9,337.8 352.9,337.7 352.9,337.6 353.0,337.5 353.1,337.4 353.4,337.3 353.8,337.2 354.2,337.1 354.5,337.0 354.6,336.9 354.6,336.8 354.5,336.7 354.6,336.6 354.6,336.5 354.8,336.4 354.9,336.3 355.3,336.2 356.0,336.1 357.0,336.0 358.2,335.9 359.3,335.8 360.2,335.7 361.0,335.6 361.9,335.5 362.8,335.4 363.7,335.3 364.9,335.2 366.9,335.1 370.7,335.0 376.5,334.9 384.1,334.8 392.2,334.7 398.7,334.6 402.1,334.5 401.1,334.4 395.9,334.3 388.0,334.2 379.4,334.1 372.4,334.0 367.7,333.9 364.9,333.8 362.8,333.7 360.5,333.6 358.0,333.5 355.8,333.4 354.3,333.3 353.4,333.2 353.1,333.1 352.9,333.0 352.9,332.9 352.8,332.9 352.8,333.0 352.7,333.1 352.3,333.2 351.4,333.3 349.9,333.4 347.7,333.5 345.2,333.6 342.9,333.7 340.8,333.8 338.0,333.9 333.3,334.0 326.3,334.1 317.7,334.2 309.8,334.3 304.6,334.4 303.7,334.5 307.0,334.6 313.6,334.7 321.6,334.8 329.2,334.9 335.0,335.0 338.8,335.1 340.8,335.2 342.0,335.3 342.9,335.4 343.8,335.5 344.7,335.6 345.5,335.7 346.4,335.8 347.5,335.9 348.7,336.0 349.7,336.1 350.4,336.2 350.8,336.3 351.0,336.4 351.1,336.5 351.2,336.6 351.2,336.7 351.1,336.8 351.1,336.9 351.2,337.0 351.5,337.1 351.9,337.2 352.3,337.3 352.6,337.4 352.7,337.5 352.8,337.6 352.8,337.7 352.9,337.8 352.9,337.9 352.9,338.0 352.9,338.1 352.9,338.2 352.9,338.3 352.9,338.4 352.9,338.5 352.9,338.6 352.8,338.7 352.8,338.8 352.8,338.9 352.7,339.0 352.6,339.1 352.6,339.2 352.6,339.3 352.6,339.4 352.7,339.5 352.8,339.6 352.8,339.7 352.8,339.8 352.9,339.9 352.9,340.0" fill="#d33" opacity="0.5" stroke="#d33" stroke-width="1"/>
<line x1="304.4" y1="334.5628354734813" x2="401.3" y2="334.5628354734813" stroke="#114" stroke-width="2"/>
<circle cx="352.85714285714283" cy="335.7746655378365" r="2.4" fill="#114"/>
<text x="352.85714285714283" y="327.6515075242981" text-anchor="middle" font-size="11">1.00</text>
<text x="352.85714285714283" y="376" text-anchor="middle" font-size="12">zscal</text>
<polygon points="473.8,303.0 475.2,299.5 476.9,295.9 479.0,292.3 481.5,288.8 484.2,285.2 487.2,281.6 490.4,278.1 493.6,274.5 496.7,270.9 499.7,267.4 502.3,263.8 504.5,260.3 506.3,256.7 507.5,253.1 508.1,249.6 508.2,246.0 507.9,242.4 507.1,238.9 505.9,235.3 504.6,231.7 503.2,228.2 501.9,224.6 500.9,221.1 500.4,217.5 500.5,213.9 501.4,210.4 502.9,206.8 505.2,203.2 507.9,199.7 511.0,196.1 514.0,192.5 516.5,189.0 518.4,185.4 519.2,181.9 518.8,178.3 517.2,174.7 514.4,171.2 510.5,167.6 506.0,164.0 501.0,160.5 495.9,156.9 491.0,153.3 486.5,149.8 482.7,146.2 479.4,142.7 476.9,139.1 474.9,135.5 473.6,132.0 472.7,128.4 472.2,124.8 472.0,121.3 472.1,117.7 472.5,114.1 473.1,110.6 474.0,107.0 475.1,103.5 476.4,99.9 477.8,96.3 479.4,92.8 481.1,89.2 482.7,85.6 484.1,82.1 485.2,78.5 485.9,74.9 486.2,71.4 485.9,67.8 485.2,64.3 484.1,60.7 482.7,57.1 481.0,53.6 479.3,50.0 460.7,50.0 459.0,53.6 457.3,57.1 455.9,60.7 454.8,64.3 454.1,67.8 453.8,71.4 454.1,74.9 454.8,78.5 455.9,82.1 457.3,85.6 458.9,89.2 460.6,92.8 462.2,96.3 463.6,99.9 464.9,103.5 466.0,107.0 466.9,110.6 467.5,114.1 467.9,117.7 468.0,121.3 467.8,124.8 467.3,128.4 466.4,132.0 465.1,135.5 463.1,139.1 460.6,142.7 457.3,146.2 453.5,149.8 449.0,153.3 444.1,156.9 439.0,160.5 434.0,164.0 429.5,167.6 425.6,171.2 422.8,174.7 421.2,178.3 420.8,181.9 421.6,185.4 423.5,189.0 426.0,192.5 429.0,196.1 432.1,199.7 434.8,203.2 437.1,206.8 438.6,210.4 439.5,213.9 439.6,217.5 439.1,221.1 438.1,224.6 436.8,228.2 435.4,231.7 434.1,235.3 432.9,238.9 432.1,242.4 431.8,246.0 431.9,249.6 432.5,253.1 433.7,256.7 435.5,260.3 437.7,263.8 440.3,267.4 443.3,270.9 446.4,274.5 449.6,278.1 452.8,281.6 455.8,285.2 458.5,288.8 461.0,292.3 463.1,295.9 464.8,299.5 466.2,303.0" fill="#2a8" opacity="0.5" stroke="#2a8" stroke-width="1"/>
<line x1="421.8" y1="185.8909803597877" x2="518.2" y2="185.8909803597877" stroke="#114" stroke-width="2"/>
<circle cx="470.0" cy="262.5297626731615" r="2.4" fill="#114"/>
<text x="470.0" y="61.433962264150935" text-anchor="middle" font-size="11">7.36</text>
<text x="470.0" y="376" text-anchor="middle" font-size="12">dznrm2</text>
<polygon points="587.2,336.3 587.3,336.2 587.5,336.1 587.8,336.0 588.6,336.0 589.7,335.9 591.4,335.8 593.6,335.7 596.3,335.7 599.3,335.6 602.6,335.5 606.3,335.4 610.3,335.4 614.8,335.3 619.6,335.2 624.6,335.2 629.4,335.1 633.3,335.0 635.8,334.9 636.3,334.9 634.9,334.8 632.0,334.7 628.5,334.6 625.2,334.6 622.4,334.5 620.0,334.4 617.9,334.3 615.9,334.3 613.7,334.2 611.4,334.1 609.2,334.0 607.2,334.0 605.5,333.9 604.0,333.8 602.7,333.7 601.4,333.7 600.0,333.6 598.3,333.5 596.5,333.4 594.7,333.4 593.1,333.3 591.8,333.2 590.6,333.2 589.7,333.1 589.1,333.0 588.7,332.9 588.4,332.9 588.2,332.8 588.1,332.7 587.9,332.6 587.7,332.6 587.5,332.5 587.3,332.4 587.2,332.3 587.2,332.3 587.2,332.2 587.2,332.1 587.2,332.0 587.2,332.0 587.2,331.9 587.3,331.8 587.4,331.7 587.5,331.7 587.5,331.6 587.5,331.5 587.5,331.4 587.4,331.4 587.3,331.3 587.2,331.2 587.2,331.1 587.2,331.1 587.2,331.0 587.1,331.0 587.1,331.1 587.1,331.1 587.0,331.2 587.0,331.3 586.9,331.4 586.8,331.4 586.7,331.5 586.8,331.6 586.8,331.7 586.9,331.7 587.0,331.8 587.1,331.9 587.1,332.0 587.1,332.0 587.1,332.1 587.1,332.2 587.1,332.3 587.0,332.3 586.9,332.4 586.8,332.5 586.6,332.6 586.4,332.6 586.2,332.7 586.1,332.8 585.9,332.9 585.6,332.9 585.2,333.0 584.5,333.1 583.7,333.2 582.5,333.2 581.2,333.3 579.5,333.4 577.8,333.4 576.0,333.5 574.3,333.6 572.8,333.7 571.5,333.7 570.3,333.8 568.8,333.9 567.1,334.0 565.1,334.0 562.9,334.1 560.6,334.2 558.4,334.3 556.3,334.3 554.3,334.4 551.9,334.5 549.1,334.6 545.8,334.6 542.3,334.7 539.4,334.8 537.9,334.9 538.5,334.9 540.9,335.0 544.9,335.1 549.7,335.2 554.7,335.2 559.5,335.3 564.0,335.4 568.0,335.4 571.7,335.5 575.0,335.6 578.0,335.7 580.7,335.7 582.9,335.8 584.5,335.9 585.7,336.0 586.4,336.0 586.8,336.1 587.0,336.2 587.1,336.3" fill="#2a8" opacity="0.5" stroke="#2a8" stroke-width="1"/>
<line x1="540.9" y1="334.74012267887116" x2="633.4" y2="334.74012267887116" stroke="#114" stroke-width="2"/>
<circle cx="587.1428571428571" cy="335.12947338347385" r="2.4" fill="#114"/>
<text x="587.1428571428571" y="325.54654094451064" text-anchor="middle" font-size="11">0.99</text>
<text x="587.1428571428571" y="376" text-anchor="middle" font-size="12">dzasum</text>
<polygon points="708.6,335.6 710.2,335.5 712.2,335.4 714.7,335.3 717.5,335.2 720.8,335.1 724.3,335.0 728.1,334.9 731.9,334.8 735.7,334.7 739.3,334.6 742.5,334.5 745.4,334.4 747.7,334.3 749.6,334.2 751.0,334.1 752.1,334.1 752.8,334.0 753.3,333.9 753.5,333.8 753.5,333.7 753.2,333.6 752.6,333.5 751.6,333.4 750.2,333.3 748.3,333.2 745.8,333.1 742.9,333.0 739.7,332.9 736.3,332.8 732.9,332.7 729.6,332.6 726.6,332.5 724.1,332.4 722.1,332.3 720.6,332.2 719.8,332.1 719.5,332.0 719.8,332.0 720.6,331.9 721.7,331.8 723.2,331.7 725.0,331.6 727.0,331.5 729.1,331.4 731.3,331.3 733.6,331.2 735.7,331.1 737.7,331.0 739.4,330.9 740.9,330.8 741.9,330.7 742.6,330.6 742.8,330.5 742.6,330.4 742.0,330.3 740.9,330.2 739.5,330.1 737.7,330.0 735.6,329.9 733.2,329.9 730.5,329.8 727.8,329.7 724.9,329.6 722.0,329.5 719.3,329.4 716.6,329.3 714.3,329.2 712.2,329.1 710.3,329.0 708.8,328.9 707.6,328.8 700.9,328.8 699.7,328.9 698.2,329.0 696.4,329.1 694.3,329.2 691.9,329.3 689.3,329.4 686.5,329.5 683.7,329.6 680.8,329.7 678.0,329.8 675.4,329.9 673.0,329.9 670.9,330.0 669.1,330.1 667.6,330.2 666.6,330.3 666.0,330.4 665.8,330.5 666.0,330.6 666.7,330.7 667.7,330.8 669.1,330.9 670.9,331.0 672.9,331.1 675.0,331.2 677.2,331.3 679.4,331.4 681.6,331.5 683.6,331.6 685.4,331.7 686.9,331.8 688.0,331.9 688.8,332.0 689.0,332.0 688.8,332.1 687.9,332.2 686.5,332.3 684.5,332.4 682.0,332.5 679.0,332.6 675.7,332.7 672.2,332.8 668.8,332.9 665.6,333.0 662.8,333.1 660.3,333.2 658.4,333.3 656.9,333.4 655.9,333.5 655.3,333.6 655.1,333.7 655.1,333.8 655.3,333.9 655.8,334.0 656.5,334.1 657.6,334.1 659.0,334.2 660.9,334.3 663.2,334.4 666.0,334.5 669.3,334.6 672.9,334.7 676.6,334.8 680.5,334.9 684.2,335.0 687.8,335.1 691.1,335.2 693.9,335.3 696.4,335.4 698.4,335.5 700.0,335.6" fill="#2a8" opacity="0.5" stroke="#2a8" stroke-width="1"/>
<line x1="663.4" y1="333.07705078574816" x2="745.2" y2="333.07705078574816" stroke="#114" stroke-width="2"/>
<circle cx="704.2857142857142" cy="334.4340388623871" r="2.4" fill="#114"/>
<text x="704.2857142857142" y="323.4984446872669" text-anchor="middle" font-size="11">1.07</text>
<text x="704.2857142857142" y="376" text-anchor="middle" font-size="12">zdotu</text>
<polygon points="823.3,335.3 824.2,334.9 825.3,334.5 826.8,334.1 828.7,333.7 830.8,333.3 833.3,332.9 836.0,332.5 838.9,332.1 841.7,331.7 844.5,331.2 847.0,330.8 849.2,330.4 851.1,330.0 852.5,329.6 853.5,329.2 854.2,328.8 854.7,328.4 855.1,328.0 855.4,327.5 855.7,327.1 856.2,326.7 856.8,326.3 857.5,325.9 858.3,325.5 859.0,325.1 859.7,324.7 860.4,324.3 860.9,323.9 861.3,323.4 861.6,323.0 862.0,322.6 862.5,322.2 863.2,321.8 864.0,321.4 865.0,321.0 866.2,320.6 867.3,320.2 868.5,319.7 869.5,319.3 870.2,318.9 870.6,318.5 870.6,318.1 870.3,317.7 869.6,317.3 868.7,316.9 867.5,316.5 866.2,316.1 864.8,315.6 863.5,315.2 862.1,314.8 860.9,314.4 859.6,314.0 858.3,313.6 856.9,313.2 855.3,312.8 853.3,312.4 851.0,311.9 848.4,311.5 845.5,311.1 842.5,310.7 839.3,310.3 836.3,309.9 833.5,309.5 830.9,309.1 828.7,308.7 826.9,308.3 825.4,307.8 824.2,307.4 823.4,307.0 822.7,306.6 822.3,306.2 820.6,306.2 820.1,306.6 819.5,307.0 818.6,307.4 817.5,307.8 816.0,308.3 814.1,308.7 811.9,309.1 809.4,309.5 806.5,309.9 803.5,310.3 800.4,310.7 797.3,311.1 794.4,311.5 791.8,311.9 789.5,312.4 787.6,312.8 785.9,313.2 784.5,313.6 783.2,314.0 782.0,314.4 780.7,314.8 779.4,315.2 778.0,315.6 776.6,316.1 775.3,316.5 774.2,316.9 773.2,317.3 772.6,317.7 772.2,318.1 772.3,318.5 772.7,318.9 773.4,319.3 774.4,319.7 775.5,320.2 776.7,320.6 777.8,321.0 778.9,321.4 779.7,321.8 780.3,322.2 780.8,322.6 781.2,323.0 781.6,323.4 782.0,323.9 782.5,324.3 783.1,324.7 783.8,325.1 784.6,325.5 785.4,325.9 786.1,326.3 786.7,326.7 787.1,327.1 787.5,327.5 787.8,328.0 788.1,328.4 788.6,328.8 789.3,329.2 790.4,329.6 791.8,330.0 793.6,330.4 795.9,330.8 798.4,331.2 801.1,331.7 804.0,332.1 806.8,332.5 809.5,332.9 812.0,333.3 814.2,333.7 816.0,334.1 817.5,334.5 818.7,334.9 819.6,335.3" fill="#2a8" opacity="0.5" stroke="#2a8" stroke-width="1"/>
<line x1="775.3" y1="320.0876017899581" x2="867.5" y2="320.0876017899581" stroke="#114" stroke-width="2"/>
<circle cx="821.4285714285714" cy="323.080185332059" r="2.4" fill="#114"/>
<text x="821.4285714285714" y="303.05781739599877" text-anchor="middle" font-size="11">1.62</text>
<text x="821.4285714285714" y="376" text-anchor="middle" font-size="12">izamax</text>
<text x="450.0" y="428" text-anchor="middle" font-size="11" fill="#666">violin = ratio distribution over sizes · line = median · dark dot = worst size · green = every size ≥ gate</text>
</svg>
