<svg xmlns="http://www.w3.org/2000/svg" width="962" height="420" font-family="sans-serif">
<rect width="962" height="420" fill="white"/>
<text x="481.0" y="26" text-anchor="middle" font-size="17" font-weight="bold">BLAS-3 — PureBLAS / OpenBLAS (PB/OpenBLAS ratio)</text>
<line x1="46" y1="42" x2="68" y2="42" stroke="#d62728" stroke-width="3"/>
<text x="73" y="46" font-size="12">Zen3 · AVX2</text>
<line x1="176" y1="42" x2="198" y2="42" stroke="#2ca02c" stroke-width="3"/>
<text x="203" y="46" font-size="12">Zen5 · AVX-512</text>
<line x1="327" y1="42" x2="349" y2="42" stroke="#1f77b4" stroke-width="3"/>
<text x="354" y="46" font-size="12">Zen4 · AVX-512</text>
<rect x="46" y="60" width="210" height="138" fill="none" stroke="#e2e2e2"/>
<line x1="46" y1="131.8073969741336" x2="256" y2="131.8073969741336" stroke="#d33" stroke-dasharray="4 3"/>
<text x="42" y="201.0" text-anchor="end" font-size="9" fill="#999">0.5×</text>
<text x="42" y="134.8073969741336" text-anchor="end" font-size="9" fill="#999">1.0×</text>
<text x="42" y="63.05036144046242" text-anchor="end" font-size="9" fill="#999">2.12×</text>
<polygon points="46.0,67.3 92.7,98.3 139.3,124.6 162.7,127.5 186.0,123.6 209.3,119.6 232.7,112.3 256.0,102.3 256.0,103.2 232.7,114.9 209.3,121.3 186.0,125.2 162.7,128.1 139.3,125.9 92.7,99.5 46.0,69.6" fill="#d62728" opacity="0.11"/>
<polyline points="46.0,68.4 92.7,98.8 139.3,125.4 162.7,127.8 186.0,124.4 209.3,120.9 232.7,113.5 256.0,102.6" fill="none" stroke="#d62728" stroke-width="1.6"/>
<circle cx="46.0" cy="68.4" r="2" fill="#d62728"/>
<circle cx="92.7" cy="98.8" r="2" fill="#d62728"/>
<circle cx="139.3" cy="125.4" r="2" fill="#d62728"/>
<circle cx="162.7" cy="127.8" r="2" fill="#d62728"/>
<circle cx="186.0" cy="124.4" r="2" fill="#d62728"/>
<circle cx="209.3" cy="120.9" r="2" fill="#d62728"/>
<circle cx="232.7" cy="113.5" r="2" fill="#d62728"/>
<circle cx="256.0" cy="102.6" r="2" fill="#d62728"/>
<polygon points="46.0,115.7 92.7,124.9 139.3,102.6 162.7,113.0 186.0,119.2 209.3,119.4 232.7,113.0 256.0,103.6 256.0,103.8 232.7,114.0 209.3,119.9 186.0,121.2 162.7,114.1 139.3,104.9 92.7,133.5 46.0,132.8" fill="#2ca02c" opacity="0.11"/>
<polyline points="46.0,119.1 92.7,130.5 139.3,104.4 162.7,113.1 186.0,119.8 209.3,119.6 232.7,113.7 256.0,103.6" fill="none" stroke="#2ca02c" stroke-width="1.6"/>
<circle cx="46.0" cy="119.1" r="2" fill="#2ca02c"/>
<circle cx="92.7" cy="130.5" r="2" fill="#2ca02c"/>
<circle cx="139.3" cy="104.4" r="2" fill="#2ca02c"/>
<circle cx="162.7" cy="113.1" r="2" fill="#2ca02c"/>
<circle cx="186.0" cy="119.8" r="2" fill="#2ca02c"/>
<circle cx="209.3" cy="119.6" r="2" fill="#2ca02c"/>
<circle cx="232.7" cy="113.7" r="2" fill="#2ca02c"/>
<circle cx="256.0" cy="103.6" r="2" fill="#2ca02c"/>
<polygon points="46.0,102.4 92.7,126.1 139.3,113.5 162.7,122.8 186.0,130.7 209.3,128.8 232.7,121.2 256.0,109.7 256.0,111.4 232.7,121.7 209.3,129.1 186.0,131.2 162.7,123.9 139.3,114.1 92.7,129.9 46.0,121.4" fill="#1f77b4" opacity="0.11"/>
<polyline points="46.0,120.2 92.7,128.3 139.3,113.9 162.7,123.1 186.0,131.0 209.3,128.9 232.7,121.4 256.0,109.8" fill="none" stroke="#1f77b4" stroke-width="1.6"/>
<circle cx="46.0" cy="120.2" r="2" fill="#1f77b4"/>
<circle cx="92.7" cy="128.3" r="2" fill="#1f77b4"/>
<circle cx="139.3" cy="113.9" r="2" fill="#1f77b4"/>
<circle cx="162.7" cy="123.1" r="2" fill="#1f77b4"/>
<circle cx="186.0" cy="131.0" r="2" fill="#1f77b4"/>
<circle cx="209.3" cy="128.9" r="2" fill="#1f77b4"/>
<circle cx="232.7" cy="121.4" r="2" fill="#1f77b4"/>
<circle cx="256.0" cy="109.8" r="2" fill="#1f77b4"/>
<text x="151.0" y="55" text-anchor="middle" font-size="12" font-weight="bold">gemm</text>
<line x1="46.0" y1="60" x2="46.0" y2="198" stroke="#f4f4f4"/>
<text x="46.0" y="209" text-anchor="middle" font-size="8" fill="#999">8</text>
<line x1="92.7" y1="60" x2="92.7" y2="198" stroke="#f4f4f4"/>
<text x="92.7" y="209" text-anchor="middle" font-size="8" fill="#999">32</text>
<line x1="139.3" y1="60" x2="139.3" y2="198" stroke="#f4f4f4"/>
<text x="139.3" y="209" text-anchor="middle" font-size="8" fill="#999">128</text>
<line x1="162.7" y1="60" x2="162.7" y2="198" stroke="#f4f4f4"/>
<text x="162.7" y="209" text-anchor="middle" font-size="8" fill="#999">256</text>
<line x1="186.0" y1="60" x2="186.0" y2="198" stroke="#f4f4f4"/>
<text x="186.0" y="209" text-anchor="middle" font-size="8" fill="#999">512</text>
<line x1="209.3" y1="60" x2="209.3" y2="198" stroke="#f4f4f4"/>
<text x="209.3" y="209" text-anchor="middle" font-size="8" fill="#999">1k</text>
<line x1="232.7" y1="60" x2="232.7" y2="198" stroke="#f4f4f4"/>
<text x="232.7" y="209" text-anchor="middle" font-size="8" fill="#999">2k</text>
<line x1="256.0" y1="60" x2="256.0" y2="198" stroke="#f4f4f4"/>
<text x="256.0" y="209" text-anchor="middle" font-size="8" fill="#999">4k</text>
<rect x="276" y="60" width="210" height="138" fill="none" stroke="#e2e2e2"/>
<line x1="276" y1="117.07674641812719" x2="486" y2="117.07674641812719" stroke="#d33" stroke-dasharray="4 3"/>
<text x="272" y="201.0" text-anchor="end" font-size="9" fill="#999">0.5×</text>
<text x="272" y="120.07674641812719" text-anchor="end" font-size="9" fill="#999">1.0×</text>
<text x="272" y="63.036213695672906" text-anchor="end" font-size="9" fill="#999">1.63×</text>
<polygon points="276.0,98.0 322.7,92.7 369.3,116.5 392.7,119.3 416.0,114.3 439.3,108.5 462.7,109.1 486.0,106.7 486.0,107.8 462.7,111.2 439.3,110.7 416.0,115.5 392.7,121.4 369.3,120.9 322.7,102.3 276.0,99.0" fill="#d62728" opacity="0.11"/>
<polyline points="276.0,98.5 322.7,95.8 369.3,118.7 392.7,121.0 416.0,114.8 439.3,110.5 462.7,109.9 486.0,107.3" fill="none" stroke="#d62728" stroke-width="1.6"/>
<circle cx="276.0" cy="98.5" r="2" fill="#d62728"/>
<circle cx="322.7" cy="95.8" r="2" fill="#d62728"/>
<circle cx="369.3" cy="118.7" r="2" fill="#d62728"/>
<circle cx="392.7" cy="121.0" r="2" fill="#d62728"/>
<circle cx="416.0" cy="114.8" r="2" fill="#d62728"/>
<circle cx="439.3" cy="110.5" r="2" fill="#d62728"/>
<circle cx="462.7" cy="109.9" r="2" fill="#d62728"/>
<circle cx="486.0" cy="107.3" r="2" fill="#d62728"/>
<polygon points="276.0,69.6 322.7,85.5 369.3,91.2 392.7,99.7 416.0,101.4 439.3,105.2 462.7,105.3 486.0,105.8 486.0,106.5 462.7,105.8 439.3,106.0 416.0,102.3 392.7,101.1 369.3,92.4 322.7,89.9 276.0,77.8" fill="#2ca02c" opacity="0.11"/>
<polyline points="276.0,72.9 322.7,88.6 369.3,91.8 392.7,100.9 416.0,101.9 439.3,105.8 462.7,105.5 486.0,106.2" fill="none" stroke="#2ca02c" stroke-width="1.6"/>
<circle cx="276.0" cy="72.9" r="2" fill="#2ca02c"/>
<circle cx="322.7" cy="88.6" r="2" fill="#2ca02c"/>
<circle cx="369.3" cy="91.8" r="2" fill="#2ca02c"/>
<circle cx="392.7" cy="100.9" r="2" fill="#2ca02c"/>
<circle cx="416.0" cy="101.9" r="2" fill="#2ca02c"/>
<circle cx="439.3" cy="105.8" r="2" fill="#2ca02c"/>
<circle cx="462.7" cy="105.5" r="2" fill="#2ca02c"/>
<circle cx="486.0" cy="106.2" r="2" fill="#2ca02c"/>
<polygon points="276.0,69.0 322.7,75.5 369.3,102.5 392.7,117.2 416.0,115.5 439.3,115.4 462.7,117.6 486.0,116.7 486.0,118.8 462.7,119.0 439.3,115.8 416.0,116.3 392.7,117.9 369.3,103.1 322.7,78.1 276.0,86.1" fill="#1f77b4" opacity="0.11"/>
<polyline points="276.0,84.7 322.7,76.6 369.3,102.8 392.7,117.5 416.0,115.9 439.3,115.6 462.7,118.0 486.0,118.2" fill="none" stroke="#1f77b4" stroke-width="1.6"/>
<circle cx="276.0" cy="84.7" r="2" fill="#1f77b4"/>
<circle cx="322.7" cy="76.6" r="2" fill="#1f77b4"/>
<circle cx="369.3" cy="102.8" r="2" fill="#1f77b4"/>
<circle cx="392.7" cy="117.5" r="2" fill="#1f77b4"/>
<circle cx="416.0" cy="115.9" r="2" fill="#1f77b4"/>
<circle cx="439.3" cy="115.6" r="2" fill="#1f77b4"/>
<circle cx="462.7" cy="118.0" r="2" fill="#1f77b4"/>
<circle cx="486.0" cy="118.2" r="2" fill="#1f77b4"/>
<text x="381.0" y="55" text-anchor="middle" font-size="12" font-weight="bold">symm</text>
<line x1="276.0" y1="60" x2="276.0" y2="198" stroke="#f4f4f4"/>
<text x="276.0" y="209" text-anchor="middle" font-size="8" fill="#999">8</text>
<line x1="322.7" y1="60" x2="322.7" y2="198" stroke="#f4f4f4"/>
<text x="322.7" y="209" text-anchor="middle" font-size="8" fill="#999">32</text>
<line x1="369.3" y1="60" x2="369.3" y2="198" stroke="#f4f4f4"/>
<text x="369.3" y="209" text-anchor="middle" font-size="8" fill="#999">128</text>
<line x1="392.7" y1="60" x2="392.7" y2="198" stroke="#f4f4f4"/>
<text x="392.7" y="209" text-anchor="middle" font-size="8" fill="#999">256</text>
<line x1="416.0" y1="60" x2="416.0" y2="198" stroke="#f4f4f4"/>
<text x="416.0" y="209" text-anchor="middle" font-size="8" fill="#999">512</text>
<line x1="439.3" y1="60" x2="439.3" y2="198" stroke="#f4f4f4"/>
<text x="439.3" y="209" text-anchor="middle" font-size="8" fill="#999">1k</text>
<line x1="462.7" y1="60" x2="462.7" y2="198" stroke="#f4f4f4"/>
<text x="462.7" y="209" text-anchor="middle" font-size="8" fill="#999">2k</text>
<line x1="486.0" y1="60" x2="486.0" y2="198" stroke="#f4f4f4"/>
<text x="486.0" y="209" text-anchor="middle" font-size="8" fill="#999">4k</text>
<rect x="506" y="60" width="210" height="138" fill="none" stroke="#e2e2e2"/>
<line x1="506" y1="122.57190861398381" x2="716" y2="122.57190861398381" stroke="#d33" stroke-dasharray="4 3"/>
<text x="502" y="201.0" text-anchor="end" font-size="9" fill="#999">0.5×</text>
<text x="502" y="125.57190861398381" text-anchor="end" font-size="9" fill="#999">1.0×</text>
<polygon points="506.0,74.2 552.7,88.6 599.3,124.5 622.7,125.3 646.0,122.8 669.3,119.8 692.7,119.6 716.0,116.8 716.0,117.3 692.7,121.3 669.3,120.2 646.0,123.3 622.7,126.2 599.3,134.3 552.7,99.0 506.0,77.4" fill="#d62728" opacity="0.11"/>
<polyline points="506.0,76.4 552.7,91.0 599.3,127.4 622.7,125.7 646.0,123.0 669.3,120.0 692.7,120.3 716.0,116.9" fill="none" stroke="#d62728" stroke-width="1.6"/>
<circle cx="506.0" cy="76.4" r="2" fill="#d62728"/>
<circle cx="552.7" cy="91.0" r="2" fill="#d62728"/>
<circle cx="599.3" cy="127.4" r="2" fill="#d62728"/>
<circle cx="622.7" cy="125.7" r="2" fill="#d62728"/>
<circle cx="646.0" cy="123.0" r="2" fill="#d62728"/>
<circle cx="669.3" cy="120.0" r="2" fill="#d62728"/>
<circle cx="692.7" cy="120.3" r="2" fill="#d62728"/>
<circle cx="716.0" cy="116.9" r="2" fill="#d62728"/>
<polygon points="506.0,68.4 552.7,79.8 599.3,77.5 622.7,84.4 646.0,101.0 669.3,110.6 692.7,120.7 716.0,119.1 716.0,120.6 692.7,122.4 669.3,112.5 646.0,102.6 622.7,86.1 599.3,84.3 552.7,83.8 506.0,95.9" fill="#2ca02c" opacity="0.11"/>
<polyline points="506.0,73.7 552.7,81.7 599.3,78.8 622.7,84.9 646.0,101.6 669.3,111.4 692.7,121.9 716.0,119.3" fill="none" stroke="#2ca02c" stroke-width="1.6"/>
<circle cx="506.0" cy="73.7" r="2" fill="#2ca02c"/>
<circle cx="552.7" cy="81.7" r="2" fill="#2ca02c"/>
<circle cx="599.3" cy="78.8" r="2" fill="#2ca02c"/>
<circle cx="622.7" cy="84.9" r="2" fill="#2ca02c"/>
<circle cx="646.0" cy="101.6" r="2" fill="#2ca02c"/>
<circle cx="669.3" cy="111.4" r="2" fill="#2ca02c"/>
<circle cx="692.7" cy="121.9" r="2" fill="#2ca02c"/>
<circle cx="716.0" cy="119.3" r="2" fill="#2ca02c"/>
<polygon points="506.0,68.4 552.7,91.6 599.3,97.4 622.7,101.2 646.0,115.9 669.3,123.0 692.7,125.6 716.0,120.5 716.0,127.0 692.7,126.3 669.3,123.4 646.0,116.6 622.7,104.9 599.3,98.2 552.7,93.5 506.0,92.5" fill="#1f77b4" opacity="0.11"/>
<polyline points="506.0,79.5 552.7,92.4 599.3,97.7 622.7,102.2 646.0,116.4 669.3,123.2 692.7,126.1 716.0,126.3" fill="none" stroke="#1f77b4" stroke-width="1.6"/>
<circle cx="506.0" cy="79.5" r="2" fill="#1f77b4"/>
<circle cx="552.7" cy="92.4" r="2" fill="#1f77b4"/>
<circle cx="599.3" cy="97.7" r="2" fill="#1f77b4"/>
<circle cx="622.7" cy="102.2" r="2" fill="#1f77b4"/>
<circle cx="646.0" cy="116.4" r="2" fill="#1f77b4"/>
<circle cx="669.3" cy="123.2" r="2" fill="#1f77b4"/>
<circle cx="692.7" cy="126.1" r="2" fill="#1f77b4"/>
<circle cx="716.0" cy="126.3" r="2" fill="#1f77b4"/>
<text x="611.0" y="55" text-anchor="middle" font-size="12" font-weight="bold">syr2k</text>
<line x1="506.0" y1="60" x2="506.0" y2="198" stroke="#f4f4f4"/>
<text x="506.0" y="209" text-anchor="middle" font-size="8" fill="#999">8</text>
<line x1="552.7" y1="60" x2="552.7" y2="198" stroke="#f4f4f4"/>
<text x="552.7" y="209" text-anchor="middle" font-size="8" fill="#999">32</text>
<line x1="599.3" y1="60" x2="599.3" y2="198" stroke="#f4f4f4"/>
<text x="599.3" y="209" text-anchor="middle" font-size="8" fill="#999">128</text>
<line x1="622.7" y1="60" x2="622.7" y2="198" stroke="#f4f4f4"/>
<text x="622.7" y="209" text-anchor="middle" font-size="8" fill="#999">256</text>
<line x1="646.0" y1="60" x2="646.0" y2="198" stroke="#f4f4f4"/>
<text x="646.0" y="209" text-anchor="middle" font-size="8" fill="#999">512</text>
<line x1="669.3" y1="60" x2="669.3" y2="198" stroke="#f4f4f4"/>
<text x="669.3" y="209" text-anchor="middle" font-size="8" fill="#999">1k</text>
<line x1="692.7" y1="60" x2="692.7" y2="198" stroke="#f4f4f4"/>
<text x="692.7" y="209" text-anchor="middle" font-size="8" fill="#999">2k</text>
<line x1="716.0" y1="60" x2="716.0" y2="198" stroke="#f4f4f4"/>
<text x="716.0" y="209" text-anchor="middle" font-size="8" fill="#999">4k</text>
<rect x="736" y="60" width="210" height="138" fill="none" stroke="#e2e2e2"/>
<line x1="736" y1="117.35250226460946" x2="946" y2="117.35250226460946" stroke="#d33" stroke-dasharray="4 3"/>
<text x="732" y="201.0" text-anchor="end" font-size="9" fill="#999">0.5×</text>
<text x="732" y="120.35250226460946" text-anchor="end" font-size="9" fill="#999">1.0×</text>
<polygon points="736.0,135.9 782.7,93.8 829.3,98.3 852.7,93.1 876.0,101.3 899.3,105.8 922.7,108.5 946.0,106.9 946.0,108.0 922.7,110.4 899.3,107.7 876.0,104.0 852.7,95.8 829.3,102.3 782.7,120.0 736.0,137.6" fill="#d62728" opacity="0.11"/>
<polyline points="736.0,137.0 782.7,105.4 829.3,99.9 852.7,95.5 876.0,102.9 899.3,107.4 922.7,109.8 946.0,107.1" fill="none" stroke="#d62728" stroke-width="1.6"/>
<circle cx="736.0" cy="137.0" r="2" fill="#d62728"/>
<circle cx="782.7" cy="105.4" r="2" fill="#d62728"/>
<circle cx="829.3" cy="99.9" r="2" fill="#d62728"/>
<circle cx="852.7" cy="95.5" r="2" fill="#d62728"/>
<circle cx="876.0" cy="102.9" r="2" fill="#d62728"/>
<circle cx="899.3" cy="107.4" r="2" fill="#d62728"/>
<circle cx="922.7" cy="109.8" r="2" fill="#d62728"/>
<circle cx="946.0" cy="107.1" r="2" fill="#d62728"/>
<polygon points="736.0,69.0 782.7,100.7 829.3,87.5 852.7,91.1 876.0,105.1 899.3,105.7 922.7,109.6 946.0,109.6 946.0,110.0 922.7,109.9 899.3,106.5 876.0,106.7 852.7,93.0 829.3,88.8 782.7,109.1 736.0,80.2" fill="#2ca02c" opacity="0.11"/>
<polyline points="736.0,72.6 782.7,104.5 829.3,88.4 852.7,91.5 876.0,106.1 899.3,106.0 922.7,109.7 946.0,109.9" fill="none" stroke="#2ca02c" stroke-width="1.6"/>
<circle cx="736.0" cy="72.6" r="2" fill="#2ca02c"/>
<circle cx="782.7" cy="104.5" r="2" fill="#2ca02c"/>
<circle cx="829.3" cy="88.4" r="2" fill="#2ca02c"/>
<circle cx="852.7" cy="91.5" r="2" fill="#2ca02c"/>
<circle cx="876.0" cy="106.1" r="2" fill="#2ca02c"/>
<circle cx="899.3" cy="106.0" r="2" fill="#2ca02c"/>
<circle cx="922.7" cy="109.7" r="2" fill="#2ca02c"/>
<circle cx="946.0" cy="109.9" r="2" fill="#2ca02c"/>
<polygon points="736.0,72.5 782.7,104.2 829.3,100.1 852.7,104.0 876.0,115.8 899.3,118.4 922.7,120.2 946.0,119.6 946.0,123.1 922.7,121.7 899.3,119.1 876.0,117.8 852.7,104.9 829.3,102.0 782.7,112.2 736.0,87.2" fill="#1f77b4" opacity="0.11"/>
<polyline points="736.0,84.7 782.7,106.4 829.3,101.2 852.7,104.4 876.0,116.9 899.3,118.7 922.7,120.6 946.0,121.5" fill="none" stroke="#1f77b4" stroke-width="1.6"/>
<circle cx="736.0" cy="84.7" r="2" fill="#1f77b4"/>
<circle cx="782.7" cy="106.4" r="2" fill="#1f77b4"/>
<circle cx="829.3" cy="101.2" r="2" fill="#1f77b4"/>
<circle cx="852.7" cy="104.4" r="2" fill="#1f77b4"/>
<circle cx="876.0" cy="116.9" r="2" fill="#1f77b4"/>
<circle cx="899.3" cy="118.7" r="2" fill="#1f77b4"/>
<circle cx="922.7" cy="120.6" r="2" fill="#1f77b4"/>
<circle cx="946.0" cy="121.5" r="2" fill="#1f77b4"/>
<text x="841.0" y="55" text-anchor="middle" font-size="12" font-weight="bold">trmm</text>
<line x1="736.0" y1="60" x2="736.0" y2="198" stroke="#f4f4f4"/>
<text x="736.0" y="209" text-anchor="middle" font-size="8" fill="#999">8</text>
<line x1="782.7" y1="60" x2="782.7" y2="198" stroke="#f4f4f4"/>
<text x="782.7" y="209" text-anchor="middle" font-size="8" fill="#999">32</text>
<line x1="829.3" y1="60" x2="829.3" y2="198" stroke="#f4f4f4"/>
<text x="829.3" y="209" text-anchor="middle" font-size="8" fill="#999">128</text>
<line x1="852.7" y1="60" x2="852.7" y2="198" stroke="#f4f4f4"/>
<text x="852.7" y="209" text-anchor="middle" font-size="8" fill="#999">256</text>
<line x1="876.0" y1="60" x2="876.0" y2="198" stroke="#f4f4f4"/>
<text x="876.0" y="209" text-anchor="middle" font-size="8" fill="#999">512</text>
<line x1="899.3" y1="60" x2="899.3" y2="198" stroke="#f4f4f4"/>
<text x="899.3" y="209" text-anchor="middle" font-size="8" fill="#999">1k</text>
<line x1="922.7" y1="60" x2="922.7" y2="198" stroke="#f4f4f4"/>
<text x="922.7" y="209" text-anchor="middle" font-size="8" fill="#999">2k</text>
<line x1="946.0" y1="60" x2="946.0" y2="198" stroke="#f4f4f4"/>
<text x="946.0" y="209" text-anchor="middle" font-size="8" fill="#999">4k</text>
<rect x="46" y="232" width="210" height="138" fill="none" stroke="#e2e2e2"/>
<line x1="46" y1="307.1143969062192" x2="256" y2="307.1143969062192" stroke="#d33" stroke-dasharray="4 3"/>
<text x="42" y="373.0" text-anchor="end" font-size="9" fill="#999">0.5×</text>
<text x="42" y="310.1143969062192" text-anchor="end" font-size="9" fill="#999">1.0×</text>
<polygon points="46.0,294.0 92.7,308.4 139.3,306.2 162.7,305.4 186.0,302.6 209.3,302.6 232.7,299.6 256.0,296.1 256.0,305.9 232.7,302.2 209.3,303.9 186.0,304.2 162.7,308.2 139.3,313.7 92.7,322.7 46.0,295.3" fill="#d62728" opacity="0.11"/>
<polyline points="46.0,294.5 92.7,317.6 139.3,310.1 162.7,307.4 186.0,302.9 209.3,303.0 232.7,301.1 256.0,297.1" fill="none" stroke="#d62728" stroke-width="1.6"/>
<circle cx="46.0" cy="294.5" r="2" fill="#d62728"/>
<circle cx="92.7" cy="317.6" r="2" fill="#d62728"/>
<circle cx="139.3" cy="310.1" r="2" fill="#d62728"/>
<circle cx="162.7" cy="307.4" r="2" fill="#d62728"/>
<circle cx="186.0" cy="302.9" r="2" fill="#d62728"/>
<circle cx="209.3" cy="303.0" r="2" fill="#d62728"/>
<circle cx="232.7" cy="301.1" r="2" fill="#d62728"/>
<circle cx="256.0" cy="297.1" r="2" fill="#d62728"/>
<polygon points="46.0,249.8 92.7,239.0 139.3,240.3 162.7,246.1 186.0,273.6 209.3,284.2 232.7,293.3 256.0,295.1 256.0,301.6 232.7,294.5 209.3,287.0 186.0,273.9 162.7,246.7 139.3,241.4 92.7,245.1 46.0,264.1" fill="#2ca02c" opacity="0.11"/>
<polyline points="46.0,252.5 92.7,241.2 139.3,240.7 162.7,246.4 186.0,273.8 209.3,284.5 232.7,293.9 256.0,296.2" fill="none" stroke="#2ca02c" stroke-width="1.6"/>
<circle cx="46.0" cy="252.5" r="2" fill="#2ca02c"/>
<circle cx="92.7" cy="241.2" r="2" fill="#2ca02c"/>
<circle cx="139.3" cy="240.7" r="2" fill="#2ca02c"/>
<circle cx="162.7" cy="246.4" r="2" fill="#2ca02c"/>
<circle cx="186.0" cy="273.8" r="2" fill="#2ca02c"/>
<circle cx="209.3" cy="284.5" r="2" fill="#2ca02c"/>
<circle cx="232.7" cy="293.9" r="2" fill="#2ca02c"/>
<circle cx="256.0" cy="296.2" r="2" fill="#2ca02c"/>
<polygon points="46.0,268.8 92.7,248.4 139.3,241.4 162.7,244.2 186.0,278.7 209.3,290.2 232.7,300.7 256.0,301.5 256.0,314.8 232.7,304.5 209.3,290.9 186.0,280.2 162.7,245.7 139.3,242.1 92.7,250.1 46.0,272.6" fill="#1f77b4" opacity="0.11"/>
<polyline points="46.0,270.0 92.7,249.1 139.3,241.8 162.7,245.0 186.0,279.8 209.3,290.5 232.7,303.0 256.0,308.1" fill="none" stroke="#1f77b4" stroke-width="1.6"/>
<circle cx="46.0" cy="270.0" r="2" fill="#1f77b4"/>
<circle cx="92.7" cy="249.1" r="2" fill="#1f77b4"/>
<circle cx="139.3" cy="241.8" r="2" fill="#1f77b4"/>
<circle cx="162.7" cy="245.0" r="2" fill="#1f77b4"/>
<circle cx="186.0" cy="279.8" r="2" fill="#1f77b4"/>
<circle cx="209.3" cy="290.5" r="2" fill="#1f77b4"/>
<circle cx="232.7" cy="303.0" r="2" fill="#1f77b4"/>
<circle cx="256.0" cy="308.1" r="2" fill="#1f77b4"/>
<text x="151.0" y="227" text-anchor="middle" font-size="12" font-weight="bold">trsm</text>
<line x1="46.0" y1="232" x2="46.0" y2="370" stroke="#f4f4f4"/>
<text x="46.0" y="381" text-anchor="middle" font-size="8" fill="#999">8</text>
<line x1="92.7" y1="232" x2="92.7" y2="370" stroke="#f4f4f4"/>
<text x="92.7" y="381" text-anchor="middle" font-size="8" fill="#999">32</text>
<line x1="139.3" y1="232" x2="139.3" y2="370" stroke="#f4f4f4"/>
<text x="139.3" y="381" text-anchor="middle" font-size="8" fill="#999">128</text>
<line x1="162.7" y1="232" x2="162.7" y2="370" stroke="#f4f4f4"/>
<text x="162.7" y="381" text-anchor="middle" font-size="8" fill="#999">256</text>
<line x1="186.0" y1="232" x2="186.0" y2="370" stroke="#f4f4f4"/>
<text x="186.0" y="381" text-anchor="middle" font-size="8" fill="#999">512</text>
<line x1="209.3" y1="232" x2="209.3" y2="370" stroke="#f4f4f4"/>
<text x="209.3" y="381" text-anchor="middle" font-size="8" fill="#999">1k</text>
<line x1="232.7" y1="232" x2="232.7" y2="370" stroke="#f4f4f4"/>
<text x="232.7" y="381" text-anchor="middle" font-size="8" fill="#999">2k</text>
<line x1="256.0" y1="232" x2="256.0" y2="370" stroke="#f4f4f4"/>
<text x="256.0" y="381" text-anchor="middle" font-size="8" fill="#999">4k</text>
<rect x="276" y="232" width="210" height="138" fill="none" stroke="#e2e2e2"/>
<line x1="276" y1="287.7627611906553" x2="486" y2="287.7627611906553" stroke="#d33" stroke-dasharray="4 3"/>
<text x="272" y="373.0" text-anchor="end" font-size="9" fill="#999">0.5×</text>
<text x="272" y="290.7627611906553" text-anchor="end" font-size="9" fill="#999">1.0×</text>
<text x="272" y="235.0" text-anchor="end" font-size="9" fill="#999">1.6×</text>
<polygon points="276.0,290.8 322.7,309.1 369.3,294.0 392.7,285.1 416.0,305.6 439.3,295.0 462.7,288.0 486.0,283.9 486.0,285.1 462.7,289.0 439.3,295.5 416.0,306.0 392.7,286.1 369.3,302.9 322.7,316.5 276.0,292.5" fill="#d62728" opacity="0.11"/>
<polyline points="276.0,291.3 322.7,313.8 369.3,300.2 392.7,285.5 416.0,305.8 439.3,295.3 462.7,288.5 486.0,284.5" fill="none" stroke="#d62728" stroke-width="1.6"/>
<circle cx="276.0" cy="291.3" r="2" fill="#d62728"/>
<circle cx="322.7" cy="313.8" r="2" fill="#d62728"/>
<circle cx="369.3" cy="300.2" r="2" fill="#d62728"/>
<circle cx="392.7" cy="285.5" r="2" fill="#d62728"/>
<circle cx="416.0" cy="305.8" r="2" fill="#d62728"/>
<circle cx="439.3" cy="295.3" r="2" fill="#d62728"/>
<circle cx="462.7" cy="288.5" r="2" fill="#d62728"/>
<circle cx="486.0" cy="284.5" r="2" fill="#d62728"/>
<text x="381.0" y="227" text-anchor="middle" font-size="12" font-weight="bold">trsmR</text>
<line x1="276.0" y1="232" x2="276.0" y2="370" stroke="#f4f4f4"/>
<text x="276.0" y="381" text-anchor="middle" font-size="8" fill="#999">8</text>
<line x1="322.7" y1="232" x2="322.7" y2="370" stroke="#f4f4f4"/>
<text x="322.7" y="381" text-anchor="middle" font-size="8" fill="#999">32</text>
<line x1="369.3" y1="232" x2="369.3" y2="370" stroke="#f4f4f4"/>
<text x="369.3" y="381" text-anchor="middle" font-size="8" fill="#999">128</text>
<line x1="392.7" y1="232" x2="392.7" y2="370" stroke="#f4f4f4"/>
<text x="392.7" y="381" text-anchor="middle" font-size="8" fill="#999">256</text>
<line x1="416.0" y1="232" x2="416.0" y2="370" stroke="#f4f4f4"/>
<text x="416.0" y="381" text-anchor="middle" font-size="8" fill="#999">512</text>
<line x1="439.3" y1="232" x2="439.3" y2="370" stroke="#f4f4f4"/>
<text x="439.3" y="381" text-anchor="middle" font-size="8" fill="#999">1k</text>
<line x1="462.7" y1="232" x2="462.7" y2="370" stroke="#f4f4f4"/>
<text x="462.7" y="381" text-anchor="middle" font-size="8" fill="#999">2k</text>
<line x1="486.0" y1="232" x2="486.0" y2="370" stroke="#f4f4f4"/>
<text x="486.0" y="381" text-anchor="middle" font-size="8" fill="#999">4k</text>
<rect x="506" y="232" width="210" height="138" fill="none" stroke="#e2e2e2"/>
<line x1="506" y1="292.9667989230512" x2="716" y2="292.9667989230512" stroke="#d33" stroke-dasharray="4 3"/>
<text x="502" y="373.0" text-anchor="end" font-size="9" fill="#999">0.5×</text>
<text x="502" y="295.9667989230512" text-anchor="end" font-size="9" fill="#999">1.0×</text>
<text x="502" y="235.05109752439915" text-anchor="end" font-size="9" fill="#999">1.73×</text>
<polygon points="506.0,253.0 552.7,269.5 599.3,291.7 622.7,291.3 646.0,289.9 669.3,289.4 692.7,290.2 716.0,286.5 716.0,295.9 692.7,291.6 669.3,289.6 646.0,290.4 622.7,292.5 599.3,292.7 552.7,274.3 506.0,256.5" fill="#d62728" opacity="0.11"/>
<polyline points="506.0,255.3 552.7,270.8 599.3,292.3 622.7,291.8 646.0,290.1 669.3,289.5 692.7,290.8 716.0,287.9" fill="none" stroke="#d62728" stroke-width="1.6"/>
<circle cx="506.0" cy="255.3" r="2" fill="#d62728"/>
<circle cx="552.7" cy="270.8" r="2" fill="#d62728"/>
<circle cx="599.3" cy="292.3" r="2" fill="#d62728"/>
<circle cx="622.7" cy="291.8" r="2" fill="#d62728"/>
<circle cx="646.0" cy="290.1" r="2" fill="#d62728"/>
<circle cx="669.3" cy="289.5" r="2" fill="#d62728"/>
<circle cx="692.7" cy="290.8" r="2" fill="#d62728"/>
<circle cx="716.0" cy="287.9" r="2" fill="#d62728"/>
<polygon points="506.0,240.6 552.7,261.3 599.3,268.4 622.7,264.5 646.0,269.4 669.3,275.7 692.7,284.2 716.0,288.0 716.0,288.5 692.7,286.6 669.3,278.0 646.0,270.2 622.7,265.9 599.3,273.0 552.7,266.2 506.0,252.4" fill="#2ca02c" opacity="0.11"/>
<polyline points="506.0,242.6 552.7,263.1 599.3,269.2 622.7,265.7 646.0,269.7 669.3,276.3 692.7,285.7 716.0,288.2" fill="none" stroke="#2ca02c" stroke-width="1.6"/>
<circle cx="506.0" cy="242.6" r="2" fill="#2ca02c"/>
<circle cx="552.7" cy="263.1" r="2" fill="#2ca02c"/>
<circle cx="599.3" cy="269.2" r="2" fill="#2ca02c"/>
<circle cx="622.7" cy="265.7" r="2" fill="#2ca02c"/>
<circle cx="646.0" cy="269.7" r="2" fill="#2ca02c"/>
<circle cx="669.3" cy="276.3" r="2" fill="#2ca02c"/>
<circle cx="692.7" cy="285.7" r="2" fill="#2ca02c"/>
<circle cx="716.0" cy="288.2" r="2" fill="#2ca02c"/>
<polygon points="506.0,253.1 552.7,264.3 599.3,275.9 622.7,279.5 646.0,283.0 669.3,290.1 692.7,297.4 716.0,299.3 716.0,301.8 692.7,298.4 669.3,291.1 646.0,283.3 622.7,281.3 599.3,276.7 552.7,266.0 506.0,256.2" fill="#1f77b4" opacity="0.11"/>
<polyline points="506.0,254.3 552.7,264.8 599.3,276.3 622.7,279.8 646.0,283.1 669.3,290.5 692.7,298.0 716.0,300.3" fill="none" stroke="#1f77b4" stroke-width="1.6"/>
<circle cx="506.0" cy="254.3" r="2" fill="#1f77b4"/>
<circle cx="552.7" cy="264.8" r="2" fill="#1f77b4"/>
<circle cx="599.3" cy="276.3" r="2" fill="#1f77b4"/>
<circle cx="622.7" cy="279.8" r="2" fill="#1f77b4"/>
<circle cx="646.0" cy="283.1" r="2" fill="#1f77b4"/>
<circle cx="669.3" cy="290.5" r="2" fill="#1f77b4"/>
<circle cx="692.7" cy="298.0" r="2" fill="#1f77b4"/>
<circle cx="716.0" cy="300.3" r="2" fill="#1f77b4"/>
<text x="611.0" y="227" text-anchor="middle" font-size="12" font-weight="bold">syrk</text>
<line x1="506.0" y1="232" x2="506.0" y2="370" stroke="#f4f4f4"/>
<text x="506.0" y="381" text-anchor="middle" font-size="8" fill="#999">8</text>
<line x1="552.7" y1="232" x2="552.7" y2="370" stroke="#f4f4f4"/>
<text x="552.7" y="381" text-anchor="middle" font-size="8" fill="#999">32</text>
<line x1="599.3" y1="232" x2="599.3" y2="370" stroke="#f4f4f4"/>
<text x="599.3" y="381" text-anchor="middle" font-size="8" fill="#999">128</text>
<line x1="622.7" y1="232" x2="622.7" y2="370" stroke="#f4f4f4"/>
<text x="622.7" y="381" text-anchor="middle" font-size="8" fill="#999">256</text>
<line x1="646.0" y1="232" x2="646.0" y2="370" stroke="#f4f4f4"/>
<text x="646.0" y="381" text-anchor="middle" font-size="8" fill="#999">512</text>
<line x1="669.3" y1="232" x2="669.3" y2="370" stroke="#f4f4f4"/>
<text x="669.3" y="381" text-anchor="middle" font-size="8" fill="#999">1k</text>
<line x1="692.7" y1="232" x2="692.7" y2="370" stroke="#f4f4f4"/>
<text x="692.7" y="381" text-anchor="middle" font-size="8" fill="#999">2k</text>
<line x1="716.0" y1="232" x2="716.0" y2="370" stroke="#f4f4f4"/>
<text x="716.0" y="381" text-anchor="middle" font-size="8" fill="#999">4k</text>
</svg>
