<svg xmlns="http://www.w3.org/2000/svg" width="900" height="440" font-family="sans-serif">
<rect width="900" height="440" fill="white"/>
<text x="450.0" y="28" text-anchor="middle" font-size="18" font-weight="bold">BLAS-1: PureBLAS / OpenBLAS (AVX-512, 1 thread, Float64)</text>
<line x1="60" y1="358.0" x2="880" y2="358.0" stroke="#eee"/>
<text x="52" y="362.0" text-anchor="end" font-size="11" fill="#666">0×</text>
<line x1="60" y1="348.9056135890667" x2="880" y2="348.9056135890667" stroke="#eee"/>
<text x="52" y="352.9056135890667" text-anchor="end" font-size="11" fill="#666">0.5×</text>
<line x1="60" y1="339.8112271781335" x2="880" y2="339.8112271781335" stroke="#eee"/>
<text x="52" y="343.8112271781335" text-anchor="end" font-size="11" fill="#666">1×</text>
<line x1="60" y1="330.71684076720015" x2="880" y2="330.71684076720015" stroke="#eee"/>
<text x="52" y="334.71684076720015" text-anchor="end" font-size="11" fill="#666">1.5×</text>
<line x1="60" y1="339.8112271781335" x2="880" y2="339.8112271781335" stroke="#888" stroke-width="1"/>
<line x1="60" y1="340.5387780910081" x2="880" y2="340.5387780910081" stroke="#d33" stroke-width="1.5" stroke-dasharray="6 4"/>
<text x="880" y="335.5387780910081" text-anchor="end" font-size="11" fill="#d33">0.96× gate</text>
<polygon points="128.5,346.5 128.6,346.2 128.7,346.0 129.0,345.8 129.3,345.5 129.6,345.3 130.0,345.1 130.3,344.9 130.6,344.6 130.9,344.4 131.1,344.2 131.3,343.9 131.5,343.7 131.7,343.5 131.9,343.2 132.3,343.0 132.9,342.8 133.7,342.5 134.7,342.3 136.1,342.1 138.1,341.9 140.8,341.6 144.5,341.4 149.4,341.2 155.4,340.9 162.3,340.7 169.5,340.5 176.2,340.2 181.5,340.0 184.8,339.8 185.7,339.5 184.5,339.3 181.6,339.1 177.8,338.9 173.8,338.6 170.1,338.4 166.7,338.2 163.7,337.9 160.9,337.7 158.2,337.5 155.6,337.2 153.1,337.0 150.8,336.8 148.7,336.5 146.8,336.3 145.1,336.1 143.3,335.9 141.5,335.6 139.7,335.4 137.9,335.2 136.1,334.9 134.4,334.7 133.0,334.5 131.8,334.2 131.0,334.0 130.4,333.8 130.1,333.5 130.1,333.3 130.2,333.1 130.3,332.9 130.5,332.6 130.5,332.4 130.5,332.2 130.3,331.9 130.1,331.7 129.8,331.5 129.5,331.2 129.2,331.0 128.9,330.8 128.7,330.5 128.6,330.3 128.5,330.1 128.2,330.1 128.1,330.3 127.9,330.5 127.7,330.8 127.5,331.0 127.2,331.2 126.9,331.5 126.6,331.7 126.3,331.9 126.2,332.2 126.1,332.4 126.2,332.6 126.3,332.9 126.5,333.1 126.6,333.3 126.5,333.5 126.3,333.8 125.7,334.0 124.8,334.2 123.7,334.5 122.2,334.7 120.6,334.9 118.8,335.2 117.0,335.4 115.1,335.6 113.4,335.9 111.6,336.1 109.8,336.3 108.0,336.5 105.9,336.8 103.6,337.0 101.1,337.2 98.5,337.5 95.7,337.7 92.9,337.9 89.9,338.2 86.6,338.4 82.8,338.6 78.8,338.9 75.0,339.1 72.2,339.3 70.9,339.5 71.9,339.8 75.2,340.0 80.5,340.2 87.2,340.5 94.3,340.7 101.2,340.9 107.3,341.2 112.1,341.4 115.9,341.6 118.6,341.9 120.6,342.1 122.0,342.3 123.0,342.5 123.8,342.8 124.3,343.0 124.7,343.2 125.0,343.5 125.2,343.7 125.4,343.9 125.5,344.2 125.8,344.4 126.0,344.6 126.3,344.9 126.7,345.1 127.1,345.3 127.4,345.5 127.7,345.8 127.9,346.0 128.1,346.2 128.2,346.5" fill="#2a8" opacity="0.5" stroke="#2a8" stroke-width="1"/>
<line x1="71.8" y1="339.3603862433954" x2="184.9" y2="339.3603862433954" stroke="#114" stroke-width="2"/>
<circle cx="128.33333333333331" cy="339.83306000956827" r="2.4" fill="#114"/>
<text x="128.33333333333331" y="325.69919941212476" text-anchor="middle" font-size="11">1.02</text>
<text x="128.33333333333331" y="376" text-anchor="middle" font-size="12">axpy</text>
<polygon points="265.0,348.4 265.1,348.1 265.2,347.8 265.4,347.6 265.6,347.3 265.9,347.0 266.2,346.7 266.4,346.4 266.5,346.1 266.5,345.9 266.5,345.6 266.5,345.3 266.5,345.0 266.6,344.7 266.6,344.4 266.7,344.1 266.8,343.9 267.1,343.6 267.5,343.3 268.3,343.0 269.5,342.7 271.3,342.4 273.7,342.2 277.1,341.9 281.9,341.6 288.2,341.3 295.9,341.0 304.5,340.7 312.7,340.5 319.2,340.2 322.4,339.9 321.9,339.6 317.9,339.3 311.8,339.0 304.9,338.7 298.5,338.5 292.9,338.2 288.4,337.9 284.4,337.6 280.9,337.3 277.8,337.0 275.0,336.8 272.9,336.5 271.3,336.2 270.2,335.9 269.6,335.6 269.0,335.3 268.5,335.0 267.9,334.8 267.3,334.5 266.6,334.2 266.1,333.9 265.7,333.6 265.6,333.3 265.5,333.1 265.6,332.8 265.7,332.5 265.9,332.2 266.0,331.9 266.2,331.6 266.3,331.4 266.4,331.1 266.5,330.8 266.5,330.5 266.4,330.2 266.1,329.9 265.9,329.6 265.6,329.4 265.4,329.1 265.2,328.8 265.1,328.5 265.0,328.2 265.0,328.2 264.9,328.5 264.8,328.8 264.6,329.1 264.4,329.4 264.1,329.6 263.9,329.9 263.6,330.2 263.5,330.5 263.5,330.8 263.6,331.1 263.7,331.4 263.8,331.6 264.0,331.9 264.1,332.2 264.3,332.5 264.4,332.8 264.5,333.1 264.4,333.3 264.3,333.6 263.9,333.9 263.4,334.2 262.7,334.5 262.1,334.8 261.5,335.0 261.0,335.3 260.4,335.6 259.8,335.9 258.7,336.2 257.1,336.5 255.0,336.8 252.2,337.0 249.1,337.3 245.6,337.6 241.6,337.9 237.1,338.2 231.5,338.5 225.1,338.7 218.2,339.0 212.1,339.3 208.1,339.6 207.6,339.9 210.8,340.2 217.3,340.5 225.5,340.7 234.1,341.0 241.8,341.3 248.1,341.6 252.9,341.9 256.3,342.2 258.7,342.4 260.5,342.7 261.7,343.0 262.5,343.3 262.9,343.6 263.2,343.9 263.3,344.1 263.4,344.4 263.4,344.7 263.5,345.0 263.5,345.3 263.5,345.6 263.5,345.9 263.5,346.1 263.6,346.4 263.8,346.7 264.1,347.0 264.4,347.3 264.6,347.6 264.8,347.8 264.9,348.1 265.0,348.4" fill="#2a8" opacity="0.5" stroke="#2a8" stroke-width="1"/>
<line x1="207.4" y1="339.7441981682291" x2="322.6" y2="339.7441981682291" stroke="#114" stroke-width="2"/>
<circle cx="265.0" cy="339.94320578455324" r="2.4" fill="#114"/>
<text x="265.0" y="324.2091060605033" text-anchor="middle" font-size="11">1.00</text>
<text x="265.0" y="376" text-anchor="middle" font-size="12">dot</text>
<polygon points="403.4,342.3 404.3,338.2 405.7,334.1 407.7,330.0 410.2,325.8 413.4,321.7 417.3,317.6 421.8,313.5 426.8,309.4 432.1,305.2 437.5,301.1 442.7,297.0 447.5,292.9 451.6,288.8 454.9,284.7 457.2,280.5 458.6,276.4 459.1,272.3 458.7,268.2 457.6,264.1 455.9,260.0 453.8,255.8 451.4,251.7 448.9,247.6 446.6,243.5 444.4,239.4 442.5,235.3 440.8,231.1 439.4,227.0 438.1,222.9 436.8,218.8 435.4,214.7 433.7,210.6 431.8,206.4 429.7,202.3 427.4,198.2 425.0,194.1 422.6,190.0 420.3,185.9 418.1,181.7 416.2,177.6 414.5,173.5 413.0,169.4 411.8,165.3 410.9,161.2 410.3,157.0 410.0,152.9 409.8,148.8 409.9,144.7 410.0,140.6 410.1,136.5 410.2,132.3 410.2,128.2 410.0,124.1 409.7,120.0 409.2,115.9 408.6,111.8 407.9,107.6 407.2,103.5 406.5,99.4 405.9,95.3 405.3,91.2 404.8,87.1 404.4,82.9 404.1,78.8 403.8,74.7 403.5,70.6 403.3,66.5 403.1,62.4 402.9,58.2 402.7,54.1 402.5,50.0 400.9,50.0 400.7,54.1 400.5,58.2 400.3,62.4 400.0,66.5 399.8,70.6 399.5,74.7 399.2,78.8 398.9,82.9 398.5,87.1 398.0,91.2 397.4,95.3 396.8,99.4 396.1,103.5 395.4,107.6 394.7,111.8 394.1,115.9 393.7,120.0 393.3,124.1 393.1,128.2 393.1,132.3 393.2,136.5 393.3,140.6 393.5,144.7 393.5,148.8 393.4,152.9 393.0,157.0 392.4,161.2 391.5,165.3 390.3,169.4 388.9,173.5 387.1,177.6 385.2,181.7 383.0,185.9 380.7,190.0 378.3,194.1 375.9,198.2 373.6,202.3 371.5,206.4 369.6,210.6 368.0,214.7 366.5,218.8 365.2,222.9 363.9,227.0 362.5,231.1 360.8,235.3 358.9,239.4 356.8,243.5 354.4,247.6 351.9,251.7 349.6,255.8 347.4,260.0 345.7,264.1 344.6,268.2 344.3,272.3 344.7,276.4 346.1,280.5 348.5,284.7 351.7,288.8 355.8,292.9 360.6,297.0 365.8,301.1 371.2,305.2 376.5,309.4 381.6,313.5 386.1,317.6 389.9,321.7 393.1,325.8 395.7,330.0 397.6,334.1 399.0,338.2 400.0,342.3" fill="#2a8" opacity="0.5" stroke="#2a8" stroke-width="1"/>
<line x1="351.2" y1="253.0311024264203" x2="452.2" y2="253.0311024264203" stroke="#114" stroke-width="2"/>
<circle cx="401.66666666666663" cy="292.0887252685405" r="2.4" fill="#114"/>
<text x="401.66666666666663" y="61.433962264150935" text-anchor="middle" font-size="11">5.77</text>
<text x="401.66666666666663" y="376" text-anchor="middle" font-size="12">nrm2</text>
<polygon points="538.4,349.5 538.5,349.1 538.6,348.8 538.7,348.5 538.9,348.2 539.0,347.9 539.1,347.6 539.1,347.2 539.1,346.9 539.1,346.6 539.1,346.3 539.2,346.0 539.3,345.6 539.5,345.3 539.8,345.0 540.2,344.7 540.6,344.4 541.0,344.0 541.4,343.7 542.0,343.4 542.8,343.1 544.3,342.8 546.6,342.4 550.1,342.1 555.0,341.8 561.2,341.5 568.7,341.2 576.6,340.9 584.2,340.5 590.4,340.2 594.4,339.9 595.7,339.6 594.6,339.3 591.4,338.9 587.0,338.6 582.1,338.3 577.4,338.0 573.0,337.7 568.9,337.3 565.0,337.0 561.2,336.7 557.5,336.4 554.0,336.1 551.0,335.8 548.7,335.4 547.3,335.1 546.7,334.8 547.0,334.5 547.7,334.2 548.5,333.8 549.2,333.5 549.5,333.2 549.3,332.9 548.7,332.6 547.6,332.2 546.4,331.9 545.0,331.6 543.8,331.3 542.7,331.0 541.8,330.6 541.1,330.3 540.6,330.0 540.3,329.7 540.0,329.4 539.8,329.1 539.6,328.7 539.3,328.4 539.1,328.1 538.9,327.8 538.7,327.5 538.5,327.1 538.5,326.8 538.2,326.8 538.1,327.1 538.0,327.5 537.8,327.8 537.6,328.1 537.4,328.4 537.1,328.7 536.9,329.1 536.6,329.4 536.4,329.7 536.0,330.0 535.6,330.3 534.9,330.6 534.0,331.0 532.9,331.3 531.6,331.6 530.3,331.9 529.0,332.2 528.0,332.6 527.4,332.9 527.2,333.2 527.5,333.5 528.2,333.8 529.0,334.2 529.7,334.5 529.9,334.8 529.4,335.1 528.0,335.4 525.7,335.8 522.7,336.1 519.2,336.4 515.5,336.7 511.7,337.0 507.8,337.3 503.7,337.7 499.3,338.0 494.5,338.3 489.7,338.6 485.3,338.9 482.1,339.3 480.9,339.6 482.3,339.9 486.3,340.2 492.5,340.5 500.1,340.9 508.0,341.2 515.4,341.5 521.7,341.8 526.6,342.1 530.1,342.4 532.4,342.8 533.8,343.1 534.7,343.4 535.3,343.7 535.7,344.0 536.1,344.4 536.4,344.7 536.8,345.0 537.1,345.3 537.4,345.6 537.5,346.0 537.6,346.3 537.6,346.6 537.5,346.9 537.5,347.2 537.6,347.6 537.7,347.9 537.8,348.2 537.9,348.5 538.1,348.8 538.2,349.1 538.2,349.5" fill="#2a8" opacity="0.5" stroke="#2a8" stroke-width="1"/>
<line x1="481.4" y1="339.3681307778187" x2="595.2" y2="339.3681307778187" stroke="#114" stroke-width="2"/>
<circle cx="538.3333333333333" cy="339.89704012544445" r="2.4" fill="#114"/>
<text x="538.3333333333333" y="323.0413384654688" text-anchor="middle" font-size="11">1.02</text>
<text x="538.3333333333333" y="376" text-anchor="middle" font-size="12">asum</text>
<polygon points="675.0,345.7 675.1,345.4 675.2,345.2 675.3,344.9 675.5,344.7 675.6,344.4 675.8,344.2 675.9,343.9 676.0,343.6 676.1,343.4 676.1,343.1 676.1,342.9 676.1,342.6 676.1,342.4 676.2,342.1 676.3,341.9 676.6,341.6 677.0,341.3 677.8,341.1 678.9,340.8 680.9,340.6 683.9,340.3 688.2,340.1 694.1,339.8 701.3,339.5 709.6,339.3 718.0,339.0 725.3,338.8 730.4,338.5 732.4,338.3 731.1,338.0 727.1,337.8 721.3,337.5 714.9,337.2 709.1,337.0 704.2,336.7 700.4,336.5 697.3,336.2 694.3,336.0 691.2,335.7 687.9,335.4 684.7,335.2 681.8,334.9 679.6,334.7 678.0,334.4 677.0,334.2 676.7,333.9 676.7,333.7 677.1,333.4 677.6,333.1 678.0,332.9 678.2,332.6 678.2,332.4 677.9,332.1 677.4,331.9 676.9,331.6 676.3,331.4 675.9,331.1 675.7,330.8 675.6,330.6 675.7,330.3 676.0,330.1 676.2,329.8 676.4,329.6 676.5,329.3 676.4,329.0 676.1,328.8 675.8,328.5 675.6,328.3 675.3,328.0 675.2,327.8 675.1,327.5 674.9,327.5 674.8,327.8 674.7,328.0 674.4,328.3 674.2,328.5 673.9,328.8 673.6,329.0 673.5,329.3 673.6,329.6 673.8,329.8 674.0,330.1 674.3,330.3 674.4,330.6 674.3,330.8 674.1,331.1 673.7,331.4 673.1,331.6 672.6,331.9 672.1,332.1 671.8,332.4 671.8,332.6 672.0,332.9 672.4,333.1 672.9,333.4 673.3,333.7 673.3,333.9 673.0,334.2 672.0,334.4 670.4,334.7 668.2,334.9 665.3,335.2 662.1,335.4 658.8,335.7 655.7,336.0 652.7,336.2 649.6,336.5 645.8,336.7 640.9,337.0 635.1,337.2 628.7,337.5 622.9,337.8 618.9,338.0 617.6,338.3 619.6,338.5 624.7,338.8 632.0,339.0 640.4,339.3 648.7,339.5 655.9,339.8 661.8,340.1 666.1,340.3 669.1,340.6 671.1,340.8 672.2,341.1 673.0,341.3 673.4,341.6 673.7,341.9 673.8,342.1 673.9,342.4 673.9,342.6 673.9,342.9 673.9,343.1 673.9,343.4 674.0,343.6 674.1,343.9 674.2,344.2 674.4,344.4 674.5,344.7 674.7,344.9 674.8,345.2 674.9,345.4 675.0,345.7" fill="#2a8" opacity="0.5" stroke="#2a8" stroke-width="1"/>
<line x1="618.5" y1="338.04794944318513" x2="731.5" y2="338.04794944318513" stroke="#114" stroke-width="2"/>
<circle cx="675.0" cy="339.0171296278438" r="2.4" fill="#114"/>
<text x="675.0" y="323.297281646806" text-anchor="middle" font-size="11">1.10</text>
<text x="675.0" y="376" text-anchor="middle" font-size="12">scal</text>
<polygon points="812.8,349.9 813.3,349.4 814.0,348.9 814.9,348.3 816.0,347.8 817.3,347.3 818.9,346.8 820.6,346.3 822.6,345.8 824.8,345.3 827.2,344.8 829.9,344.2 832.9,343.7 836.1,343.2 839.5,342.7 842.9,342.2 846.3,341.7 849.4,341.2 852.2,340.7 854.4,340.1 856.0,339.6 857.0,339.1 857.5,338.6 857.5,338.1 857.3,337.6 857.1,337.1 857.2,336.5 857.5,336.0 858.4,335.5 859.7,335.0 861.4,334.5 863.4,334.0 865.3,333.5 867.1,333.0 868.4,332.4 869.1,331.9 868.9,331.4 867.9,330.9 866.1,330.4 863.5,329.9 860.4,329.4 857.1,328.9 853.6,328.3 850.1,327.8 847.0,327.3 844.0,326.8 841.5,326.3 839.1,325.8 837.0,325.3 835.0,324.7 833.1,324.2 831.1,323.7 829.0,323.2 826.9,322.7 824.8,322.2 822.7,321.7 820.7,321.2 818.9,320.6 817.4,320.1 816.1,319.6 815.1,319.1 814.4,318.6 813.9,318.1 813.5,317.6 813.3,317.1 813.1,316.5 812.9,316.0 812.7,315.5 812.5,315.0 812.3,314.5 812.2,314.0 812.0,313.5 811.3,313.5 811.2,314.0 811.0,314.5 810.8,315.0 810.7,315.5 810.5,316.0 810.3,316.5 810.1,317.1 809.8,317.6 809.4,318.1 808.9,318.6 808.2,319.1 807.2,319.6 806.0,320.1 804.4,320.6 802.6,321.2 800.7,321.7 798.6,322.2 796.4,322.7 794.3,323.2 792.3,323.7 790.3,324.2 788.3,324.7 786.3,325.3 784.2,325.8 781.9,326.3 779.3,326.8 776.4,327.3 773.2,327.8 769.8,328.3 766.3,328.9 762.9,329.4 759.8,329.9 757.3,330.4 755.4,330.9 754.4,331.4 754.3,331.9 754.9,332.4 756.2,333.0 758.0,333.5 760.0,334.0 761.9,334.5 763.6,335.0 765.0,335.5 765.8,336.0 766.2,336.5 766.2,337.1 766.0,337.6 765.8,338.1 765.8,338.6 766.3,339.1 767.3,339.6 768.9,340.1 771.1,340.7 773.9,341.2 777.0,341.7 780.4,342.2 783.8,342.7 787.2,343.2 790.4,343.7 793.4,344.2 796.1,344.8 798.6,345.3 800.8,345.8 802.7,346.3 804.5,346.8 806.0,347.3 807.3,347.8 808.4,348.3 809.3,348.9 810.0,349.4 810.5,349.9" fill="#2a8" opacity="0.5" stroke="#2a8" stroke-width="1"/>
<line x1="758.0" y1="333.4628853102122" x2="865.4" y2="333.4628853102122" stroke="#114" stroke-width="2"/>
<circle cx="811.6666666666666" cy="338.68933089299924" r="2.4" fill="#114"/>
<text x="811.6666666666666" y="311.0167117697813" text-anchor="middle" font-size="11">1.35</text>
<text x="811.6666666666666" y="376" text-anchor="middle" font-size="12">iamax</text>
<text x="450.0" y="428" text-anchor="middle" font-size="11" fill="#666">violin = ratio distribution over sizes · line = median · dark dot = worst size · green = every size ≥ gate</text>
</svg>
