<svg xmlns="http://www.w3.org/2000/svg" width="962" height="592" font-family="sans-serif">
<rect width="962" height="592" fill="white"/>
<text x="481.0" y="26" text-anchor="middle" font-size="17" font-weight="bold">Complex BLAS-3 — PureBLAS / OpenBLAS (PB/OpenBLAS ratio)</text>
<line x1="46" y1="42" x2="68" y2="42" stroke="#d62728" stroke-width="3"/>
<text x="73" y="46" font-size="12">Zen3 · AVX2</text>
<line x1="176" y1="42" x2="198" y2="42" stroke="#2ca02c" stroke-width="3"/>
<text x="203" y="46" font-size="12">Zen5 · AVX-512</text>
<line x1="327" y1="42" x2="349" y2="42" stroke="#1f77b4" stroke-width="3"/>
<text x="354" y="46" font-size="12">Zen4 · AVX-512</text>
<rect x="46" y="60" width="210" height="138" fill="none" stroke="#e2e2e2"/>
<line x1="46" y1="140.45921244532065" x2="256" y2="140.45921244532065" stroke="#d33" stroke-dasharray="4 3"/>
<text x="42" y="201.0" text-anchor="end" font-size="9" fill="#999">0.5×</text>
<text x="42" y="143.45921244532065" text-anchor="end" font-size="9" fill="#999">1.0×</text>
<polygon points="46.0,91.0 98.5,138.2 151.0,119.7 177.2,119.2 203.5,117.9 229.8,120.7 256.0,118.7 256.0,120.1 229.8,121.8 203.5,119.7 177.2,120.7 151.0,120.8 98.5,142.0 46.0,92.7" fill="#d62728" opacity="0.11"/>
<polyline points="46.0,91.7 98.5,140.0 151.0,120.6 177.2,119.6 203.5,119.0 229.8,121.0 256.0,119.6" fill="none" stroke="#d62728" stroke-width="1.6"/>
<circle cx="46.0" cy="91.7" r="2" fill="#d62728"/>
<circle cx="98.5" cy="140.0" r="2" fill="#d62728"/>
<circle cx="151.0" cy="120.6" r="2" fill="#d62728"/>
<circle cx="177.2" cy="119.6" r="2" fill="#d62728"/>
<circle cx="203.5" cy="119.0" r="2" fill="#d62728"/>
<circle cx="229.8" cy="121.0" r="2" fill="#d62728"/>
<circle cx="256.0" cy="119.6" r="2" fill="#d62728"/>
<polygon points="46.0,66.4 98.5,103.0 151.0,120.0 177.2,121.5 203.5,124.7 229.8,125.4 256.0,126.3 256.0,126.6 229.8,125.6 203.5,124.8 177.2,122.1 151.0,120.6 98.5,106.2 46.0,71.2" fill="#2ca02c" opacity="0.11"/>
<polyline points="46.0,68.1 98.5,105.0 151.0,120.3 177.2,121.9 203.5,124.8 229.8,125.5 256.0,126.4" fill="none" stroke="#2ca02c" stroke-width="1.6"/>
<circle cx="46.0" cy="68.1" r="2" fill="#2ca02c"/>
<circle cx="98.5" cy="105.0" r="2" fill="#2ca02c"/>
<circle cx="151.0" cy="120.3" r="2" fill="#2ca02c"/>
<circle cx="177.2" cy="121.9" r="2" fill="#2ca02c"/>
<circle cx="203.5" cy="124.8" r="2" fill="#2ca02c"/>
<circle cx="229.8" cy="125.5" r="2" fill="#2ca02c"/>
<circle cx="256.0" cy="126.4" r="2" fill="#2ca02c"/>
<polygon points="46.0,81.5 98.5,109.7 151.0,127.1 177.2,129.5 203.5,131.9 229.8,131.7 256.0,130.6 256.0,131.2 229.8,132.4 203.5,132.4 177.2,130.5 151.0,128.1 98.5,111.3 46.0,83.9" fill="#1f77b4" opacity="0.11"/>
<polyline points="46.0,82.2 98.5,110.6 151.0,127.7 177.2,130.0 203.5,132.3 229.8,132.3 256.0,130.9" fill="none" stroke="#1f77b4" stroke-width="1.6"/>
<circle cx="46.0" cy="82.2" r="2" fill="#1f77b4"/>
<circle cx="98.5" cy="110.6" r="2" fill="#1f77b4"/>
<circle cx="151.0" cy="127.7" r="2" fill="#1f77b4"/>
<circle cx="177.2" cy="130.0" r="2" fill="#1f77b4"/>
<circle cx="203.5" cy="132.3" r="2" fill="#1f77b4"/>
<circle cx="229.8" cy="132.3" r="2" fill="#1f77b4"/>
<circle cx="256.0" cy="130.9" r="2" fill="#1f77b4"/>
<text x="151.0" y="55" text-anchor="middle" font-size="12" font-weight="bold">zgemm</text>
<line x1="46.0" y1="60" x2="46.0" y2="198" stroke="#f4f4f4"/>
<text x="46.0" y="209" text-anchor="middle" font-size="8" fill="#999">8</text>
<line x1="98.5" y1="60" x2="98.5" y2="198" stroke="#f4f4f4"/>
<text x="98.5" y="209" text-anchor="middle" font-size="8" fill="#999">32</text>
<line x1="151.0" y1="60" x2="151.0" y2="198" stroke="#f4f4f4"/>
<text x="151.0" y="209" text-anchor="middle" font-size="8" fill="#999">128</text>
<line x1="177.2" y1="60" x2="177.2" y2="198" stroke="#f4f4f4"/>
<text x="177.2" y="209" text-anchor="middle" font-size="8" fill="#999">256</text>
<line x1="203.5" y1="60" x2="203.5" y2="198" stroke="#f4f4f4"/>
<text x="203.5" y="209" text-anchor="middle" font-size="8" fill="#999">512</text>
<line x1="229.8" y1="60" x2="229.8" y2="198" stroke="#f4f4f4"/>
<text x="229.8" y="209" text-anchor="middle" font-size="8" fill="#999">1k</text>
<line x1="256.0" y1="60" x2="256.0" y2="198" stroke="#f4f4f4"/>
<text x="256.0" y="209" text-anchor="middle" font-size="8" fill="#999">2k</text>
<rect x="276" y="60" width="210" height="138" fill="none" stroke="#e2e2e2"/>
<line x1="276" y1="115.76276119065531" x2="486" y2="115.76276119065531" stroke="#d33" stroke-dasharray="4 3"/>
<text x="272" y="201.0" text-anchor="end" font-size="9" fill="#999">0.5×</text>
<text x="272" y="118.76276119065531" text-anchor="end" font-size="9" fill="#999">1.0×</text>
<text x="272" y="63.0" text-anchor="end" font-size="9" fill="#999">1.6×</text>
<polygon points="276.0,102.8 328.5,122.2 381.0,94.3 407.2,91.0 433.5,88.7 459.8,88.5 486.0,86.4 486.0,87.2 459.8,90.0 433.5,90.6 407.2,93.8 381.0,96.5 328.5,125.0 276.0,106.5" fill="#d62728" opacity="0.11"/>
<polyline points="276.0,104.1 328.5,123.9 381.0,95.8 407.2,92.7 433.5,89.3 459.8,89.4 486.0,86.8" fill="none" stroke="#d62728" stroke-width="1.6"/>
<circle cx="276.0" cy="104.1" r="2" fill="#d62728"/>
<circle cx="328.5" cy="123.9" r="2" fill="#d62728"/>
<circle cx="381.0" cy="95.8" r="2" fill="#d62728"/>
<circle cx="407.2" cy="92.7" r="2" fill="#d62728"/>
<circle cx="433.5" cy="89.3" r="2" fill="#d62728"/>
<circle cx="459.8" cy="89.4" r="2" fill="#d62728"/>
<circle cx="486.0" cy="86.8" r="2" fill="#d62728"/>
<polygon points="276.0,75.5 328.5,83.8 381.0,94.0 407.2,90.6 433.5,93.8 459.8,94.1 486.0,95.6 486.0,95.7 459.8,94.6 433.5,94.4 407.2,91.1 381.0,96.2 328.5,87.8 276.0,82.4" fill="#2ca02c" opacity="0.11"/>
<polyline points="276.0,78.3 328.5,85.3 381.0,95.1 407.2,90.9 433.5,94.2 459.8,94.3 486.0,95.7" fill="none" stroke="#2ca02c" stroke-width="1.6"/>
<circle cx="276.0" cy="78.3" r="2" fill="#2ca02c"/>
<circle cx="328.5" cy="85.3" r="2" fill="#2ca02c"/>
<circle cx="381.0" cy="95.1" r="2" fill="#2ca02c"/>
<circle cx="407.2" cy="90.9" r="2" fill="#2ca02c"/>
<circle cx="433.5" cy="94.2" r="2" fill="#2ca02c"/>
<circle cx="459.8" cy="94.3" r="2" fill="#2ca02c"/>
<circle cx="486.0" cy="95.7" r="2" fill="#2ca02c"/>
<polygon points="276.0,97.8 328.5,92.0 381.0,105.9 407.2,104.3 433.5,104.8 459.8,104.0 486.0,100.7 486.0,106.0 459.8,105.0 433.5,105.4 407.2,104.7 381.0,107.4 328.5,93.3 276.0,102.2" fill="#1f77b4" opacity="0.11"/>
<polyline points="276.0,100.5 328.5,92.6 381.0,107.1 407.2,104.6 433.5,105.2 459.8,104.8 486.0,104.2" fill="none" stroke="#1f77b4" stroke-width="1.6"/>
<circle cx="276.0" cy="100.5" r="2" fill="#1f77b4"/>
<circle cx="328.5" cy="92.6" r="2" fill="#1f77b4"/>
<circle cx="381.0" cy="107.1" r="2" fill="#1f77b4"/>
<circle cx="407.2" cy="104.6" r="2" fill="#1f77b4"/>
<circle cx="433.5" cy="105.2" r="2" fill="#1f77b4"/>
<circle cx="459.8" cy="104.8" r="2" fill="#1f77b4"/>
<circle cx="486.0" cy="104.2" r="2" fill="#1f77b4"/>
<text x="381.0" y="55" text-anchor="middle" font-size="12" font-weight="bold">zhemm</text>
<line x1="276.0" y1="60" x2="276.0" y2="198" stroke="#f4f4f4"/>
<text x="276.0" y="209" text-anchor="middle" font-size="8" fill="#999">8</text>
<line x1="328.5" y1="60" x2="328.5" y2="198" stroke="#f4f4f4"/>
<text x="328.5" y="209" text-anchor="middle" font-size="8" fill="#999">32</text>
<line x1="381.0" y1="60" x2="381.0" y2="198" stroke="#f4f4f4"/>
<text x="381.0" y="209" text-anchor="middle" font-size="8" fill="#999">128</text>
<line x1="407.2" y1="60" x2="407.2" y2="198" stroke="#f4f4f4"/>
<text x="407.2" y="209" text-anchor="middle" font-size="8" fill="#999">256</text>
<line x1="433.5" y1="60" x2="433.5" y2="198" stroke="#f4f4f4"/>
<text x="433.5" y="209" text-anchor="middle" font-size="8" fill="#999">512</text>
<line x1="459.8" y1="60" x2="459.8" y2="198" stroke="#f4f4f4"/>
<text x="459.8" y="209" text-anchor="middle" font-size="8" fill="#999">1k</text>
<line x1="486.0" y1="60" x2="486.0" y2="198" stroke="#f4f4f4"/>
<text x="486.0" y="209" text-anchor="middle" font-size="8" fill="#999">2k</text>
<rect x="506" y="60" width="210" height="138" fill="none" stroke="#e2e2e2"/>
<line x1="506" y1="117.11497528464277" x2="716" y2="117.11497528464277" stroke="#d33" stroke-dasharray="4 3"/>
<text x="502" y="201.0" text-anchor="end" font-size="9" fill="#999">0.5×</text>
<text x="502" y="120.11497528464277" text-anchor="end" font-size="9" fill="#999">1.0×</text>
<text x="502" y="63.101389018428264" text-anchor="end" font-size="9" fill="#999">1.63×</text>
<polygon points="506.0,101.6 558.5,126.0 611.0,97.8 637.2,93.9 663.5,89.9 689.8,90.2 716.0,86.8 716.0,90.1 689.8,91.7 663.5,91.3 637.2,95.9 611.0,99.0 558.5,130.0 506.0,103.6" fill="#d62728" opacity="0.11"/>
<polyline points="506.0,102.8 558.5,128.1 611.0,98.0 637.2,94.9 663.5,90.2 689.8,90.9 716.0,88.8" fill="none" stroke="#d62728" stroke-width="1.6"/>
<circle cx="506.0" cy="102.8" r="2" fill="#d62728"/>
<circle cx="558.5" cy="128.1" r="2" fill="#d62728"/>
<circle cx="611.0" cy="98.0" r="2" fill="#d62728"/>
<circle cx="637.2" cy="94.9" r="2" fill="#d62728"/>
<circle cx="663.5" cy="90.2" r="2" fill="#d62728"/>
<circle cx="689.8" cy="90.9" r="2" fill="#d62728"/>
<circle cx="716.0" cy="88.8" r="2" fill="#d62728"/>
<polygon points="506.0,69.0 558.5,85.8 611.0,94.6 637.2,94.4 663.5,99.3 689.8,97.5 716.0,98.1 716.0,98.4 689.8,98.1 663.5,99.9 637.2,95.0 611.0,95.4 558.5,88.7 506.0,80.5" fill="#2ca02c" opacity="0.11"/>
<polyline points="506.0,71.1 558.5,86.9 611.0,95.0 637.2,94.8 663.5,99.7 689.8,98.0 716.0,98.2" fill="none" stroke="#2ca02c" stroke-width="1.6"/>
<circle cx="506.0" cy="71.1" r="2" fill="#2ca02c"/>
<circle cx="558.5" cy="86.9" r="2" fill="#2ca02c"/>
<circle cx="611.0" cy="95.0" r="2" fill="#2ca02c"/>
<circle cx="637.2" cy="94.8" r="2" fill="#2ca02c"/>
<circle cx="663.5" cy="99.7" r="2" fill="#2ca02c"/>
<circle cx="689.8" cy="98.0" r="2" fill="#2ca02c"/>
<circle cx="716.0" cy="98.2" r="2" fill="#2ca02c"/>
<polygon points="506.0,94.0 558.5,97.1 611.0,106.1 637.2,109.9 663.5,110.8 689.8,106.3 716.0,105.5 716.0,107.1 689.8,108.8 663.5,111.2 637.2,110.4 611.0,106.8 558.5,98.7 506.0,96.4" fill="#1f77b4" opacity="0.11"/>
<polyline points="506.0,95.2 558.5,98.0 611.0,106.4 637.2,110.3 663.5,111.0 689.8,108.4 716.0,106.0" fill="none" stroke="#1f77b4" stroke-width="1.6"/>
<circle cx="506.0" cy="95.2" r="2" fill="#1f77b4"/>
<circle cx="558.5" cy="98.0" r="2" fill="#1f77b4"/>
<circle cx="611.0" cy="106.4" r="2" fill="#1f77b4"/>
<circle cx="637.2" cy="110.3" r="2" fill="#1f77b4"/>
<circle cx="663.5" cy="111.0" r="2" fill="#1f77b4"/>
<circle cx="689.8" cy="108.4" r="2" fill="#1f77b4"/>
<circle cx="716.0" cy="106.0" r="2" fill="#1f77b4"/>
<text x="611.0" y="55" text-anchor="middle" font-size="12" font-weight="bold">zsymm</text>
<line x1="506.0" y1="60" x2="506.0" y2="198" stroke="#f4f4f4"/>
<text x="506.0" y="209" text-anchor="middle" font-size="8" fill="#999">8</text>
<line x1="558.5" y1="60" x2="558.5" y2="198" stroke="#f4f4f4"/>
<text x="558.5" y="209" text-anchor="middle" font-size="8" fill="#999">32</text>
<line x1="611.0" y1="60" x2="611.0" y2="198" stroke="#f4f4f4"/>
<text x="611.0" y="209" text-anchor="middle" font-size="8" fill="#999">128</text>
<line x1="637.2" y1="60" x2="637.2" y2="198" stroke="#f4f4f4"/>
<text x="637.2" y="209" text-anchor="middle" font-size="8" fill="#999">256</text>
<line x1="663.5" y1="60" x2="663.5" y2="198" stroke="#f4f4f4"/>
<text x="663.5" y="209" text-anchor="middle" font-size="8" fill="#999">512</text>
<line x1="689.8" y1="60" x2="689.8" y2="198" stroke="#f4f4f4"/>
<text x="689.8" y="209" text-anchor="middle" font-size="8" fill="#999">1k</text>
<line x1="716.0" y1="60" x2="716.0" y2="198" stroke="#f4f4f4"/>
<text x="716.0" y="209" text-anchor="middle" font-size="8" fill="#999">2k</text>
<rect x="736" y="60" width="210" height="138" fill="none" stroke="#e2e2e2"/>
<line x1="736" y1="136.34001040707568" x2="946" y2="136.34001040707568" stroke="#d33" stroke-dasharray="4 3"/>
<text x="732" y="201.0" text-anchor="end" font-size="9" fill="#999">0.5×</text>
<text x="732" y="139.34001040707568" text-anchor="end" font-size="9" fill="#999">1.0×</text>
<polygon points="736.0,92.1 788.5,123.5 841.0,135.6 867.2,125.1 893.5,118.7 919.8,117.3 946.0,115.7 946.0,117.8 919.8,118.9 893.5,119.2 867.2,125.3 841.0,136.1 788.5,125.0 736.0,94.3" fill="#d62728" opacity="0.11"/>
<polyline points="736.0,92.8 788.5,124.1 841.0,135.9 867.2,125.2 893.5,118.8 919.8,117.9 946.0,116.7" fill="none" stroke="#d62728" stroke-width="1.6"/>
<circle cx="736.0" cy="92.8" r="2" fill="#d62728"/>
<circle cx="788.5" cy="124.1" r="2" fill="#d62728"/>
<circle cx="841.0" cy="135.9" r="2" fill="#d62728"/>
<circle cx="867.2" cy="125.2" r="2" fill="#d62728"/>
<circle cx="893.5" cy="118.8" r="2" fill="#d62728"/>
<circle cx="919.8" cy="117.9" r="2" fill="#d62728"/>
<circle cx="946.0" cy="116.7" r="2" fill="#d62728"/>
<polygon points="736.0,66.8 788.5,121.3 841.0,118.7 867.2,118.3 893.5,118.2 919.8,119.7 946.0,120.7 946.0,121.4 919.8,120.7 893.5,120.4 867.2,118.6 841.0,120.8 788.5,127.2 736.0,73.4" fill="#2ca02c" opacity="0.11"/>
<polyline points="736.0,69.7 788.5,122.6 841.0,120.2 867.2,118.4 893.5,119.8 919.8,119.9 946.0,120.8" fill="none" stroke="#2ca02c" stroke-width="1.6"/>
<circle cx="736.0" cy="69.7" r="2" fill="#2ca02c"/>
<circle cx="788.5" cy="122.6" r="2" fill="#2ca02c"/>
<circle cx="841.0" cy="120.2" r="2" fill="#2ca02c"/>
<circle cx="867.2" cy="118.4" r="2" fill="#2ca02c"/>
<circle cx="893.5" cy="119.8" r="2" fill="#2ca02c"/>
<circle cx="919.8" cy="119.9" r="2" fill="#2ca02c"/>
<circle cx="946.0" cy="120.8" r="2" fill="#2ca02c"/>
<polygon points="736.0,74.0 788.5,121.5 841.0,121.0 867.2,125.1 893.5,125.2 919.8,126.9 946.0,125.5 946.0,125.9 919.8,127.3 893.5,125.9 867.2,125.6 841.0,122.7 788.5,124.3 736.0,77.1" fill="#1f77b4" opacity="0.11"/>
<polyline points="736.0,75.2 788.5,123.4 841.0,121.8 867.2,125.3 893.5,125.5 919.8,127.0 946.0,125.7" fill="none" stroke="#1f77b4" stroke-width="1.6"/>
<circle cx="736.0" cy="75.2" r="2" fill="#1f77b4"/>
<circle cx="788.5" cy="123.4" r="2" fill="#1f77b4"/>
<circle cx="841.0" cy="121.8" r="2" fill="#1f77b4"/>
<circle cx="867.2" cy="125.3" r="2" fill="#1f77b4"/>
<circle cx="893.5" cy="125.5" r="2" fill="#1f77b4"/>
<circle cx="919.8" cy="127.0" r="2" fill="#1f77b4"/>
<circle cx="946.0" cy="125.7" r="2" fill="#1f77b4"/>
<text x="841.0" y="55" text-anchor="middle" font-size="12" font-weight="bold">zsyrk</text>
<line x1="736.0" y1="60" x2="736.0" y2="198" stroke="#f4f4f4"/>
<text x="736.0" y="209" text-anchor="middle" font-size="8" fill="#999">8</text>
<line x1="788.5" y1="60" x2="788.5" y2="198" stroke="#f4f4f4"/>
<text x="788.5" y="209" text-anchor="middle" font-size="8" fill="#999">32</text>
<line x1="841.0" y1="60" x2="841.0" y2="198" stroke="#f4f4f4"/>
<text x="841.0" y="209" text-anchor="middle" font-size="8" fill="#999">128</text>
<line x1="867.2" y1="60" x2="867.2" y2="198" stroke="#f4f4f4"/>
<text x="867.2" y="209" text-anchor="middle" font-size="8" fill="#999">256</text>
<line x1="893.5" y1="60" x2="893.5" y2="198" stroke="#f4f4f4"/>
<text x="893.5" y="209" text-anchor="middle" font-size="8" fill="#999">512</text>
<line x1="919.8" y1="60" x2="919.8" y2="198" stroke="#f4f4f4"/>
<text x="919.8" y="209" text-anchor="middle" font-size="8" fill="#999">1k</text>
<line x1="946.0" y1="60" x2="946.0" y2="198" stroke="#f4f4f4"/>
<text x="946.0" y="209" text-anchor="middle" font-size="8" fill="#999">2k</text>
<rect x="46" y="232" width="210" height="138" fill="none" stroke="#e2e2e2"/>
<line x1="46" y1="306.93988467546694" x2="256" y2="306.93988467546694" stroke="#d33" stroke-dasharray="4 3"/>
<text x="42" y="373.0" text-anchor="end" font-size="9" fill="#999">0.5×</text>
<text x="42" y="309.93988467546694" text-anchor="end" font-size="9" fill="#999">1.0×</text>
<polygon points="46.0,258.7 98.5,294.9 151.0,306.3 177.2,299.4 203.5,292.7 229.8,292.5 256.0,288.0 256.0,289.5 229.8,293.5 203.5,294.3 177.2,302.0 151.0,306.7 98.5,296.6 46.0,260.6" fill="#d62728" opacity="0.11"/>
<polyline points="46.0,259.6 98.5,295.5 151.0,306.5 177.2,299.5 203.5,293.7 229.8,293.0 256.0,289.1" fill="none" stroke="#d62728" stroke-width="1.6"/>
<circle cx="46.0" cy="259.6" r="2" fill="#d62728"/>
<circle cx="98.5" cy="295.5" r="2" fill="#d62728"/>
<circle cx="151.0" cy="306.5" r="2" fill="#d62728"/>
<circle cx="177.2" cy="299.5" r="2" fill="#d62728"/>
<circle cx="203.5" cy="293.7" r="2" fill="#d62728"/>
<circle cx="229.8" cy="293.0" r="2" fill="#d62728"/>
<circle cx="256.0" cy="289.1" r="2" fill="#d62728"/>
<polygon points="46.0,239.0 98.5,293.0 151.0,290.0 177.2,288.4 203.5,288.5 229.8,289.9 256.0,291.2 256.0,291.6 229.8,290.6 203.5,290.7 177.2,288.8 151.0,291.9 98.5,297.9 46.0,242.4" fill="#2ca02c" opacity="0.11"/>
<polyline points="46.0,240.8 98.5,294.1 151.0,290.9 177.2,288.6 203.5,290.0 229.8,290.3 256.0,291.4" fill="none" stroke="#2ca02c" stroke-width="1.6"/>
<circle cx="46.0" cy="240.8" r="2" fill="#2ca02c"/>
<circle cx="98.5" cy="294.1" r="2" fill="#2ca02c"/>
<circle cx="151.0" cy="290.9" r="2" fill="#2ca02c"/>
<circle cx="177.2" cy="288.6" r="2" fill="#2ca02c"/>
<circle cx="203.5" cy="290.0" r="2" fill="#2ca02c"/>
<circle cx="229.8" cy="290.3" r="2" fill="#2ca02c"/>
<circle cx="256.0" cy="291.4" r="2" fill="#2ca02c"/>
<polygon points="46.0,248.3 98.5,291.8 151.0,291.4 177.2,295.5 203.5,295.9 229.8,297.6 256.0,295.8 256.0,296.3 229.8,297.9 203.5,296.6 177.2,296.1 151.0,293.4 98.5,294.6 46.0,249.7" fill="#1f77b4" opacity="0.11"/>
<polyline points="46.0,248.7 98.5,293.5 151.0,292.5 177.2,295.9 203.5,296.2 229.8,297.8 256.0,296.2" fill="none" stroke="#1f77b4" stroke-width="1.6"/>
<circle cx="46.0" cy="248.7" r="2" fill="#1f77b4"/>
<circle cx="98.5" cy="293.5" r="2" fill="#1f77b4"/>
<circle cx="151.0" cy="292.5" r="2" fill="#1f77b4"/>
<circle cx="177.2" cy="295.9" r="2" fill="#1f77b4"/>
<circle cx="203.5" cy="296.2" r="2" fill="#1f77b4"/>
<circle cx="229.8" cy="297.8" r="2" fill="#1f77b4"/>
<circle cx="256.0" cy="296.2" r="2" fill="#1f77b4"/>
<text x="151.0" y="227" text-anchor="middle" font-size="12" font-weight="bold">zherk</text>
<line x1="46.0" y1="232" x2="46.0" y2="370" stroke="#f4f4f4"/>
<text x="46.0" y="381" text-anchor="middle" font-size="8" fill="#999">8</text>
<line x1="98.5" y1="232" x2="98.5" y2="370" stroke="#f4f4f4"/>
<text x="98.5" y="381" text-anchor="middle" font-size="8" fill="#999">32</text>
<line x1="151.0" y1="232" x2="151.0" y2="370" stroke="#f4f4f4"/>
<text x="151.0" y="381" text-anchor="middle" font-size="8" fill="#999">128</text>
<line x1="177.2" y1="232" x2="177.2" y2="370" stroke="#f4f4f4"/>
<text x="177.2" y="381" text-anchor="middle" font-size="8" fill="#999">256</text>
<line x1="203.5" y1="232" x2="203.5" y2="370" stroke="#f4f4f4"/>
<text x="203.5" y="381" text-anchor="middle" font-size="8" fill="#999">512</text>
<line x1="229.8" y1="232" x2="229.8" y2="370" stroke="#f4f4f4"/>
<text x="229.8" y="381" text-anchor="middle" font-size="8" fill="#999">1k</text>
<line x1="256.0" y1="232" x2="256.0" y2="370" stroke="#f4f4f4"/>
<text x="256.0" y="381" text-anchor="middle" font-size="8" fill="#999">2k</text>
<rect x="276" y="232" width="210" height="138" fill="none" stroke="#e2e2e2"/>
<line x1="276" y1="294.27149978467213" x2="486" y2="294.27149978467213" stroke="#d33" stroke-dasharray="4 3"/>
<text x="272" y="373.0" text-anchor="end" font-size="9" fill="#999">0.5×</text>
<text x="272" y="297.27149978467213" text-anchor="end" font-size="9" fill="#999">1.0×</text>
<polygon points="276.0,270.4 328.5,294.6 381.0,298.8 407.2,286.8 433.5,278.1 459.8,277.1 486.0,271.3 486.0,272.6 459.8,278.4 433.5,280.1 407.2,290.3 381.0,301.3 328.5,299.4 276.0,272.4" fill="#d62728" opacity="0.11"/>
<polyline points="276.0,270.7 328.5,296.2 381.0,300.5 407.2,289.5 433.5,278.6 459.8,277.8 486.0,272.0" fill="none" stroke="#d62728" stroke-width="1.6"/>
<circle cx="276.0" cy="270.7" r="2" fill="#d62728"/>
<circle cx="328.5" cy="296.2" r="2" fill="#d62728"/>
<circle cx="381.0" cy="300.5" r="2" fill="#d62728"/>
<circle cx="407.2" cy="289.5" r="2" fill="#d62728"/>
<circle cx="433.5" cy="278.6" r="2" fill="#d62728"/>
<circle cx="459.8" cy="277.8" r="2" fill="#d62728"/>
<circle cx="486.0" cy="272.0" r="2" fill="#d62728"/>
<polygon points="276.0,240.4 328.5,285.2 381.0,273.8 407.2,272.0 433.5,272.6 459.8,274.2 486.0,275.8 486.0,275.9 459.8,274.8 433.5,273.9 407.2,272.9 381.0,275.7 328.5,291.4 276.0,244.9" fill="#2ca02c" opacity="0.11"/>
<polyline points="276.0,242.2 328.5,288.6 381.0,274.4 407.2,272.4 433.5,273.1 459.8,274.5 486.0,275.9" fill="none" stroke="#2ca02c" stroke-width="1.6"/>
<circle cx="276.0" cy="242.2" r="2" fill="#2ca02c"/>
<circle cx="328.5" cy="288.6" r="2" fill="#2ca02c"/>
<circle cx="381.0" cy="274.4" r="2" fill="#2ca02c"/>
<circle cx="407.2" cy="272.4" r="2" fill="#2ca02c"/>
<circle cx="433.5" cy="273.1" r="2" fill="#2ca02c"/>
<circle cx="459.8" cy="274.5" r="2" fill="#2ca02c"/>
<circle cx="486.0" cy="275.9" r="2" fill="#2ca02c"/>
<polygon points="276.0,254.0 328.5,290.9 381.0,276.6 407.2,282.4 433.5,281.6 459.8,283.0 486.0,280.8 486.0,281.6 459.8,283.8 433.5,284.6 407.2,283.9 381.0,278.2 328.5,293.5 276.0,258.0" fill="#1f77b4" opacity="0.11"/>
<polyline points="276.0,254.7 328.5,292.1 381.0,277.4 407.2,283.0 433.5,283.1 459.8,283.4 486.0,281.3" fill="none" stroke="#1f77b4" stroke-width="1.6"/>
<circle cx="276.0" cy="254.7" r="2" fill="#1f77b4"/>
<circle cx="328.5" cy="292.1" r="2" fill="#1f77b4"/>
<circle cx="381.0" cy="277.4" r="2" fill="#1f77b4"/>
<circle cx="407.2" cy="283.0" r="2" fill="#1f77b4"/>
<circle cx="433.5" cy="283.1" r="2" fill="#1f77b4"/>
<circle cx="459.8" cy="283.4" r="2" fill="#1f77b4"/>
<circle cx="486.0" cy="281.3" r="2" fill="#1f77b4"/>
<text x="381.0" y="227" text-anchor="middle" font-size="12" font-weight="bold">zher2k</text>
<line x1="276.0" y1="232" x2="276.0" y2="370" stroke="#f4f4f4"/>
<text x="276.0" y="381" text-anchor="middle" font-size="8" fill="#999">8</text>
<line x1="328.5" y1="232" x2="328.5" y2="370" stroke="#f4f4f4"/>
<text x="328.5" y="381" text-anchor="middle" font-size="8" fill="#999">32</text>
<line x1="381.0" y1="232" x2="381.0" y2="370" stroke="#f4f4f4"/>
<text x="381.0" y="381" text-anchor="middle" font-size="8" fill="#999">128</text>
<line x1="407.2" y1="232" x2="407.2" y2="370" stroke="#f4f4f4"/>
<text x="407.2" y="381" text-anchor="middle" font-size="8" fill="#999">256</text>
<line x1="433.5" y1="232" x2="433.5" y2="370" stroke="#f4f4f4"/>
<text x="433.5" y="381" text-anchor="middle" font-size="8" fill="#999">512</text>
<line x1="459.8" y1="232" x2="459.8" y2="370" stroke="#f4f4f4"/>
<text x="459.8" y="381" text-anchor="middle" font-size="8" fill="#999">1k</text>
<line x1="486.0" y1="232" x2="486.0" y2="370" stroke="#f4f4f4"/>
<text x="486.0" y="381" text-anchor="middle" font-size="8" fill="#999">2k</text>
<rect x="506" y="232" width="210" height="138" fill="none" stroke="#e2e2e2"/>
<line x1="506" y1="294.6573123792675" x2="716" y2="294.6573123792675" stroke="#d33" stroke-dasharray="4 3"/>
<text x="502" y="373.0" text-anchor="end" font-size="9" fill="#999">0.5×</text>
<text x="502" y="297.6573123792675" text-anchor="end" font-size="9" fill="#999">1.0×</text>
<polygon points="506.0,267.1 558.5,293.5 611.0,299.9 637.2,287.7 663.5,278.9 689.8,277.3 716.0,270.9 716.0,274.9 689.8,278.1 663.5,280.4 637.2,290.1 611.0,301.0 558.5,297.6 506.0,268.5" fill="#d62728" opacity="0.11"/>
<polyline points="506.0,267.5 558.5,294.8 611.0,300.2 637.2,288.3 663.5,279.6 689.8,277.8 716.0,271.1" fill="none" stroke="#d62728" stroke-width="1.6"/>
<circle cx="506.0" cy="267.5" r="2" fill="#d62728"/>
<circle cx="558.5" cy="294.8" r="2" fill="#d62728"/>
<circle cx="611.0" cy="300.2" r="2" fill="#d62728"/>
<circle cx="637.2" cy="288.3" r="2" fill="#d62728"/>
<circle cx="663.5" cy="279.6" r="2" fill="#d62728"/>
<circle cx="689.8" cy="277.8" r="2" fill="#d62728"/>
<circle cx="716.0" cy="271.1" r="2" fill="#d62728"/>
<polygon points="506.0,240.4 558.5,286.3 611.0,273.3 637.2,272.8 663.5,273.3 689.8,274.4 716.0,276.0 716.0,276.4 689.8,275.3 663.5,274.5 637.2,273.8 611.0,275.4 558.5,291.0 506.0,243.6" fill="#2ca02c" opacity="0.11"/>
<polyline points="506.0,241.9 558.5,289.1 611.0,274.3 637.2,273.1 663.5,273.8 689.8,274.8 716.0,276.2" fill="none" stroke="#2ca02c" stroke-width="1.6"/>
<circle cx="506.0" cy="241.9" r="2" fill="#2ca02c"/>
<circle cx="558.5" cy="289.1" r="2" fill="#2ca02c"/>
<circle cx="611.0" cy="274.3" r="2" fill="#2ca02c"/>
<circle cx="637.2" cy="273.1" r="2" fill="#2ca02c"/>
<circle cx="663.5" cy="273.8" r="2" fill="#2ca02c"/>
<circle cx="689.8" cy="274.8" r="2" fill="#2ca02c"/>
<circle cx="716.0" cy="276.2" r="2" fill="#2ca02c"/>
<polygon points="506.0,251.4 558.5,291.3 611.0,277.7 637.2,283.0 663.5,281.6 689.8,283.5 716.0,281.5 716.0,281.8 689.8,284.3 663.5,282.2 637.2,283.7 611.0,278.0 558.5,293.2 506.0,253.1" fill="#1f77b4" opacity="0.11"/>
<polyline points="506.0,252.2 558.5,292.5 611.0,277.8 637.2,283.2 663.5,281.8 689.8,284.1 716.0,281.6" fill="none" stroke="#1f77b4" stroke-width="1.6"/>
<circle cx="506.0" cy="252.2" r="2" fill="#1f77b4"/>
<circle cx="558.5" cy="292.5" r="2" fill="#1f77b4"/>
<circle cx="611.0" cy="277.8" r="2" fill="#1f77b4"/>
<circle cx="637.2" cy="283.2" r="2" fill="#1f77b4"/>
<circle cx="663.5" cy="281.8" r="2" fill="#1f77b4"/>
<circle cx="689.8" cy="284.1" r="2" fill="#1f77b4"/>
<circle cx="716.0" cy="281.6" r="2" fill="#1f77b4"/>
<text x="611.0" y="227" text-anchor="middle" font-size="12" font-weight="bold">zsyr2k</text>
<line x1="506.0" y1="232" x2="506.0" y2="370" stroke="#f4f4f4"/>
<text x="506.0" y="381" text-anchor="middle" font-size="8" fill="#999">8</text>
<line x1="558.5" y1="232" x2="558.5" y2="370" stroke="#f4f4f4"/>
<text x="558.5" y="381" text-anchor="middle" font-size="8" fill="#999">32</text>
<line x1="611.0" y1="232" x2="611.0" y2="370" stroke="#f4f4f4"/>
<text x="611.0" y="381" text-anchor="middle" font-size="8" fill="#999">128</text>
<line x1="637.2" y1="232" x2="637.2" y2="370" stroke="#f4f4f4"/>
<text x="637.2" y="381" text-anchor="middle" font-size="8" fill="#999">256</text>
<line x1="663.5" y1="232" x2="663.5" y2="370" stroke="#f4f4f4"/>
<text x="663.5" y="381" text-anchor="middle" font-size="8" fill="#999">512</text>
<line x1="689.8" y1="232" x2="689.8" y2="370" stroke="#f4f4f4"/>
<text x="689.8" y="381" text-anchor="middle" font-size="8" fill="#999">1k</text>
<line x1="716.0" y1="232" x2="716.0" y2="370" stroke="#f4f4f4"/>
<text x="716.0" y="381" text-anchor="middle" font-size="8" fill="#999">2k</text>
<rect x="736" y="232" width="210" height="138" fill="none" stroke="#e2e2e2"/>
<line x1="736" y1="287.7627611906553" x2="946" y2="287.7627611906553" stroke="#d33" stroke-dasharray="4 3"/>
<text x="732" y="373.0" text-anchor="end" font-size="9" fill="#999">0.5×</text>
<text x="732" y="290.7627611906553" text-anchor="end" font-size="9" fill="#999">1.0×</text>
<text x="732" y="235.0" text-anchor="end" font-size="9" fill="#999">1.6×</text>
<polygon points="736.0,286.8 788.5,306.9 841.0,299.2 867.2,277.5 893.5,272.7 919.8,268.1 946.0,265.5 946.0,267.0 919.8,269.0 893.5,273.1 867.2,280.7 841.0,300.4 788.5,309.3 736.0,288.5" fill="#d62728" opacity="0.11"/>
<polyline points="736.0,287.2 788.5,308.1 841.0,300.2 867.2,278.9 893.5,272.9 919.8,268.5 946.0,265.8" fill="none" stroke="#d62728" stroke-width="1.6"/>
<circle cx="736.0" cy="287.2" r="2" fill="#d62728"/>
<circle cx="788.5" cy="308.1" r="2" fill="#d62728"/>
<circle cx="841.0" cy="300.2" r="2" fill="#d62728"/>
<circle cx="867.2" cy="278.9" r="2" fill="#d62728"/>
<circle cx="893.5" cy="272.9" r="2" fill="#d62728"/>
<circle cx="919.8" cy="268.5" r="2" fill="#d62728"/>
<circle cx="946.0" cy="265.8" r="2" fill="#d62728"/>
<polygon points="736.0,249.2 788.5,287.4 841.0,281.7 867.2,274.7 893.5,269.9 919.8,270.3 946.0,270.4 946.0,270.5 919.8,270.9 893.5,270.2 867.2,275.3 841.0,283.3 788.5,296.5 736.0,259.4" fill="#2ca02c" opacity="0.11"/>
<polyline points="736.0,251.4 788.5,290.5 841.0,282.6 867.2,275.0 893.5,270.1 919.8,270.7 946.0,270.5" fill="none" stroke="#2ca02c" stroke-width="1.6"/>
<circle cx="736.0" cy="251.4" r="2" fill="#2ca02c"/>
<circle cx="788.5" cy="290.5" r="2" fill="#2ca02c"/>
<circle cx="841.0" cy="282.6" r="2" fill="#2ca02c"/>
<circle cx="867.2" cy="275.0" r="2" fill="#2ca02c"/>
<circle cx="893.5" cy="270.1" r="2" fill="#2ca02c"/>
<circle cx="919.8" cy="270.7" r="2" fill="#2ca02c"/>
<circle cx="946.0" cy="270.5" r="2" fill="#2ca02c"/>
<polygon points="736.0,268.9 788.5,285.8 841.0,284.6 867.2,282.6 893.5,280.5 919.8,279.1 946.0,277.1 946.0,279.0 919.8,280.5 893.5,280.9 867.2,283.2 841.0,285.8 788.5,287.2 736.0,272.0" fill="#1f77b4" opacity="0.11"/>
<polyline points="736.0,270.1 788.5,286.7 841.0,285.5 867.2,282.8 893.5,280.7 919.8,279.6 946.0,278.2" fill="none" stroke="#1f77b4" stroke-width="1.6"/>
<circle cx="736.0" cy="270.1" r="2" fill="#1f77b4"/>
<circle cx="788.5" cy="286.7" r="2" fill="#1f77b4"/>
<circle cx="841.0" cy="285.5" r="2" fill="#1f77b4"/>
<circle cx="867.2" cy="282.8" r="2" fill="#1f77b4"/>
<circle cx="893.5" cy="280.7" r="2" fill="#1f77b4"/>
<circle cx="919.8" cy="279.6" r="2" fill="#1f77b4"/>
<circle cx="946.0" cy="278.2" r="2" fill="#1f77b4"/>
<text x="841.0" y="227" text-anchor="middle" font-size="12" font-weight="bold">ztrmm</text>
<line x1="736.0" y1="232" x2="736.0" y2="370" stroke="#f4f4f4"/>
<text x="736.0" y="381" text-anchor="middle" font-size="8" fill="#999">8</text>
<line x1="788.5" y1="232" x2="788.5" y2="370" stroke="#f4f4f4"/>
<text x="788.5" y="381" text-anchor="middle" font-size="8" fill="#999">32</text>
<line x1="841.0" y1="232" x2="841.0" y2="370" stroke="#f4f4f4"/>
<text x="841.0" y="381" text-anchor="middle" font-size="8" fill="#999">128</text>
<line x1="867.2" y1="232" x2="867.2" y2="370" stroke="#f4f4f4"/>
<text x="867.2" y="381" text-anchor="middle" font-size="8" fill="#999">256</text>
<line x1="893.5" y1="232" x2="893.5" y2="370" stroke="#f4f4f4"/>
<text x="893.5" y="381" text-anchor="middle" font-size="8" fill="#999">512</text>
<line x1="919.8" y1="232" x2="919.8" y2="370" stroke="#f4f4f4"/>
<text x="919.8" y="381" text-anchor="middle" font-size="8" fill="#999">1k</text>
<line x1="946.0" y1="232" x2="946.0" y2="370" stroke="#f4f4f4"/>
<text x="946.0" y="381" text-anchor="middle" font-size="8" fill="#999">2k</text>
<rect x="46" y="404" width="210" height="138" fill="none" stroke="#e2e2e2"/>
<line x1="46" y1="459.7627611906553" x2="256" y2="459.7627611906553" stroke="#d33" stroke-dasharray="4 3"/>
<text x="42" y="545.0" text-anchor="end" font-size="9" fill="#999">0.5×</text>
<text x="42" y="462.7627611906553" text-anchor="end" font-size="9" fill="#999">1.0×</text>
<text x="42" y="407.0" text-anchor="end" font-size="9" fill="#999">1.6×</text>
<polygon points="46.0,425.6 98.5,453.7 151.0,473.1 177.2,452.9 203.5,439.2 229.8,436.3 256.0,435.3 256.0,436.9 229.8,437.3 203.5,440.5 177.2,453.6 151.0,474.6 98.5,455.9 46.0,428.3" fill="#d62728" opacity="0.11"/>
<polyline points="46.0,427.0 98.5,454.3 151.0,473.8 177.2,453.4 203.5,440.3 229.8,436.6 256.0,436.4" fill="none" stroke="#d62728" stroke-width="1.6"/>
<circle cx="46.0" cy="427.0" r="2" fill="#d62728"/>
<circle cx="98.5" cy="454.3" r="2" fill="#d62728"/>
<circle cx="151.0" cy="473.8" r="2" fill="#d62728"/>
<circle cx="177.2" cy="453.4" r="2" fill="#d62728"/>
<circle cx="203.5" cy="440.3" r="2" fill="#d62728"/>
<circle cx="229.8" cy="436.6" r="2" fill="#d62728"/>
<circle cx="256.0" cy="436.4" r="2" fill="#d62728"/>
<polygon points="46.0,421.6 98.5,444.6 151.0,427.0 177.2,438.4 203.5,435.0 229.8,438.5 256.0,441.8 256.0,442.3 229.8,439.3 203.5,435.4 177.2,438.7 151.0,428.2 98.5,455.7 46.0,428.3" fill="#2ca02c" opacity="0.11"/>
<polyline points="46.0,425.4 98.5,452.5 151.0,427.5 177.2,438.5 203.5,435.1 229.8,438.9 256.0,442.2" fill="none" stroke="#2ca02c" stroke-width="1.6"/>
<circle cx="46.0" cy="425.4" r="2" fill="#2ca02c"/>
<circle cx="98.5" cy="452.5" r="2" fill="#2ca02c"/>
<circle cx="151.0" cy="427.5" r="2" fill="#2ca02c"/>
<circle cx="177.2" cy="438.5" r="2" fill="#2ca02c"/>
<circle cx="203.5" cy="435.1" r="2" fill="#2ca02c"/>
<circle cx="229.8" cy="438.9" r="2" fill="#2ca02c"/>
<circle cx="256.0" cy="442.2" r="2" fill="#2ca02c"/>
<polygon points="46.0,437.4 98.5,454.8 151.0,444.7 177.2,445.1 203.5,443.4 229.8,445.9 256.0,444.9 256.0,447.5 229.8,446.6 203.5,443.8 177.2,445.7 151.0,448.1 98.5,456.9 46.0,439.7" fill="#1f77b4" opacity="0.11"/>
<polyline points="46.0,438.1 98.5,456.2 151.0,447.7 177.2,445.5 203.5,443.5 229.8,446.2 256.0,446.0" fill="none" stroke="#1f77b4" stroke-width="1.6"/>
<circle cx="46.0" cy="438.1" r="2" fill="#1f77b4"/>
<circle cx="98.5" cy="456.2" r="2" fill="#1f77b4"/>
<circle cx="151.0" cy="447.7" r="2" fill="#1f77b4"/>
<circle cx="177.2" cy="445.5" r="2" fill="#1f77b4"/>
<circle cx="203.5" cy="443.5" r="2" fill="#1f77b4"/>
<circle cx="229.8" cy="446.2" r="2" fill="#1f77b4"/>
<circle cx="256.0" cy="446.0" r="2" fill="#1f77b4"/>
<text x="151.0" y="399" text-anchor="middle" font-size="12" font-weight="bold">ztrsm</text>
<line x1="46.0" y1="404" x2="46.0" y2="542" stroke="#f4f4f4"/>
<text x="46.0" y="553" text-anchor="middle" font-size="8" fill="#999">8</text>
<line x1="98.5" y1="404" x2="98.5" y2="542" stroke="#f4f4f4"/>
<text x="98.5" y="553" text-anchor="middle" font-size="8" fill="#999">32</text>
<line x1="151.0" y1="404" x2="151.0" y2="542" stroke="#f4f4f4"/>
<text x="151.0" y="553" text-anchor="middle" font-size="8" fill="#999">128</text>
<line x1="177.2" y1="404" x2="177.2" y2="542" stroke="#f4f4f4"/>
<text x="177.2" y="553" text-anchor="middle" font-size="8" fill="#999">256</text>
<line x1="203.5" y1="404" x2="203.5" y2="542" stroke="#f4f4f4"/>
<text x="203.5" y="553" text-anchor="middle" font-size="8" fill="#999">512</text>
<line x1="229.8" y1="404" x2="229.8" y2="542" stroke="#f4f4f4"/>
<text x="229.8" y="553" text-anchor="middle" font-size="8" fill="#999">1k</text>
<line x1="256.0" y1="404" x2="256.0" y2="542" stroke="#f4f4f4"/>
<text x="256.0" y="553" text-anchor="middle" font-size="8" fill="#999">2k</text>
<rect x="276" y="404" width="210" height="138" fill="none" stroke="#e2e2e2"/>
<line x1="276" y1="459.7627611906553" x2="486" y2="459.7627611906553" stroke="#d33" stroke-dasharray="4 3"/>
<text x="272" y="545.0" text-anchor="end" font-size="9" fill="#999">0.5×</text>
<text x="272" y="462.7627611906553" text-anchor="end" font-size="9" fill="#999">1.0×</text>
<text x="272" y="407.0" text-anchor="end" font-size="9" fill="#999">1.6×</text>
<polygon points="276.0,454.5 328.5,483.2 381.0,460.9 407.2,452.4 433.5,443.3 459.8,439.1 486.0,436.6 486.0,443.1 459.8,440.8 433.5,445.0 407.2,452.6 381.0,461.7 328.5,486.4 276.0,457.6" fill="#d62728" opacity="0.11"/>
<polyline points="276.0,456.0 328.5,484.2 381.0,461.4 407.2,452.5 433.5,444.7 459.8,439.9 486.0,437.3" fill="none" stroke="#d62728" stroke-width="1.6"/>
<circle cx="276.0" cy="456.0" r="2" fill="#d62728"/>
<circle cx="328.5" cy="484.2" r="2" fill="#d62728"/>
<circle cx="381.0" cy="461.4" r="2" fill="#d62728"/>
<circle cx="407.2" cy="452.5" r="2" fill="#d62728"/>
<circle cx="433.5" cy="444.7" r="2" fill="#d62728"/>
<circle cx="459.8" cy="439.9" r="2" fill="#d62728"/>
<circle cx="486.0" cy="437.3" r="2" fill="#d62728"/>
<polygon points="276.0,418.8 328.5,455.3 381.0,449.6 407.2,441.8 433.5,440.5 459.8,441.9 486.0,441.8 486.0,442.0 459.8,442.6 433.5,441.3 407.2,442.3 381.0,453.1 328.5,462.6 276.0,426.9" fill="#2ca02c" opacity="0.11"/>
<polyline points="276.0,422.1 328.5,458.3 381.0,450.6 407.2,442.0 433.5,440.8 459.8,442.2 486.0,441.9" fill="none" stroke="#2ca02c" stroke-width="1.6"/>
<circle cx="276.0" cy="422.1" r="2" fill="#2ca02c"/>
<circle cx="328.5" cy="458.3" r="2" fill="#2ca02c"/>
<circle cx="381.0" cy="450.6" r="2" fill="#2ca02c"/>
<circle cx="407.2" cy="442.0" r="2" fill="#2ca02c"/>
<circle cx="433.5" cy="440.8" r="2" fill="#2ca02c"/>
<circle cx="459.8" cy="442.2" r="2" fill="#2ca02c"/>
<circle cx="486.0" cy="441.9" r="2" fill="#2ca02c"/>
<polygon points="276.0,432.5 328.5,442.5 381.0,448.5 407.2,450.5 433.5,451.3 459.8,451.3 486.0,448.0 486.0,451.8 459.8,452.1 433.5,451.7 407.2,451.2 381.0,449.1 328.5,444.2 276.0,436.0" fill="#1f77b4" opacity="0.11"/>
<polyline points="276.0,434.4 328.5,443.4 381.0,448.9 407.2,450.8 433.5,451.5 459.8,451.7 486.0,450.7" fill="none" stroke="#1f77b4" stroke-width="1.6"/>
<circle cx="276.0" cy="434.4" r="2" fill="#1f77b4"/>
<circle cx="328.5" cy="443.4" r="2" fill="#1f77b4"/>
<circle cx="381.0" cy="448.9" r="2" fill="#1f77b4"/>
<circle cx="407.2" cy="450.8" r="2" fill="#1f77b4"/>
<circle cx="433.5" cy="451.5" r="2" fill="#1f77b4"/>
<circle cx="459.8" cy="451.7" r="2" fill="#1f77b4"/>
<circle cx="486.0" cy="450.7" r="2" fill="#1f77b4"/>
<text x="381.0" y="399" text-anchor="middle" font-size="12" font-weight="bold">ztrmmR</text>
<line x1="276.0" y1="404" x2="276.0" y2="542" stroke="#f4f4f4"/>
<text x="276.0" y="553" text-anchor="middle" font-size="8" fill="#999">8</text>
<line x1="328.5" y1="404" x2="328.5" y2="542" stroke="#f4f4f4"/>
<text x="328.5" y="553" text-anchor="middle" font-size="8" fill="#999">32</text>
<line x1="381.0" y1="404" x2="381.0" y2="542" stroke="#f4f4f4"/>
<text x="381.0" y="553" text-anchor="middle" font-size="8" fill="#999">128</text>
<line x1="407.2" y1="404" x2="407.2" y2="542" stroke="#f4f4f4"/>
<text x="407.2" y="553" text-anchor="middle" font-size="8" fill="#999">256</text>
<line x1="433.5" y1="404" x2="433.5" y2="542" stroke="#f4f4f4"/>
<text x="433.5" y="553" text-anchor="middle" font-size="8" fill="#999">512</text>
<line x1="459.8" y1="404" x2="459.8" y2="542" stroke="#f4f4f4"/>
<text x="459.8" y="553" text-anchor="middle" font-size="8" fill="#999">1k</text>
<line x1="486.0" y1="404" x2="486.0" y2="542" stroke="#f4f4f4"/>
<text x="486.0" y="553" text-anchor="middle" font-size="8" fill="#999">2k</text>
<rect x="506" y="404" width="210" height="138" fill="none" stroke="#e2e2e2"/>
<line x1="506" y1="472.5776829216771" x2="716" y2="472.5776829216771" stroke="#d33" stroke-dasharray="4 3"/>
<text x="502" y="545.0" text-anchor="end" font-size="9" fill="#999">0.5×</text>
<text x="502" y="475.5776829216771" text-anchor="end" font-size="9" fill="#999">1.0×</text>
<text x="502" y="407.16195956822764" text-anchor="end" font-size="9" fill="#999">1.98×</text>
<polygon points="506.0,419.5 558.5,427.9 611.0,460.0 637.2,457.9 663.5,456.8 689.8,457.5 716.0,453.7 716.0,454.5 689.8,458.0 663.5,457.0 637.2,458.3 611.0,460.6 558.5,432.1 506.0,421.9" fill="#d62728" opacity="0.11"/>
<polyline points="506.0,420.4 558.5,429.3 611.0,460.2 637.2,458.1 663.5,456.9 689.8,457.8 716.0,454.1" fill="none" stroke="#d62728" stroke-width="1.6"/>
<circle cx="506.0" cy="420.4" r="2" fill="#d62728"/>
<circle cx="558.5" cy="429.3" r="2" fill="#d62728"/>
<circle cx="611.0" cy="460.2" r="2" fill="#d62728"/>
<circle cx="637.2" cy="458.1" r="2" fill="#d62728"/>
<circle cx="663.5" cy="456.9" r="2" fill="#d62728"/>
<circle cx="689.8" cy="457.8" r="2" fill="#d62728"/>
<circle cx="716.0" cy="454.1" r="2" fill="#d62728"/>
<polygon points="506.0,411.7 558.5,417.3 611.0,422.8 637.2,436.2 663.5,444.8 689.8,451.5 716.0,456.6 716.0,456.9 689.8,452.1 663.5,445.1 637.2,436.5 611.0,423.6 558.5,422.2 506.0,423.6" fill="#2ca02c" opacity="0.11"/>
<polyline points="506.0,417.3 558.5,420.0 611.0,423.2 637.2,436.3 663.5,444.9 689.8,451.8 716.0,456.7" fill="none" stroke="#2ca02c" stroke-width="1.6"/>
<circle cx="506.0" cy="417.3" r="2" fill="#2ca02c"/>
<circle cx="558.5" cy="420.0" r="2" fill="#2ca02c"/>
<circle cx="611.0" cy="423.2" r="2" fill="#2ca02c"/>
<circle cx="637.2" cy="436.3" r="2" fill="#2ca02c"/>
<circle cx="663.5" cy="444.9" r="2" fill="#2ca02c"/>
<circle cx="689.8" cy="451.8" r="2" fill="#2ca02c"/>
<circle cx="716.0" cy="456.7" r="2" fill="#2ca02c"/>
<polygon points="506.0,413.7 558.5,422.8 611.0,431.7 637.2,444.7 663.5,453.3 689.8,461.4 716.0,461.0 716.0,464.4 689.8,462.1 663.5,453.9 637.2,445.1 611.0,432.1 558.5,423.8 506.0,416.1" fill="#1f77b4" opacity="0.11"/>
<polyline points="506.0,414.6 558.5,423.1 611.0,431.8 637.2,445.0 663.5,453.6 689.8,462.0 716.0,463.2" fill="none" stroke="#1f77b4" stroke-width="1.6"/>
<circle cx="506.0" cy="414.6" r="2" fill="#1f77b4"/>
<circle cx="558.5" cy="423.1" r="2" fill="#1f77b4"/>
<circle cx="611.0" cy="431.8" r="2" fill="#1f77b4"/>
<circle cx="637.2" cy="445.0" r="2" fill="#1f77b4"/>
<circle cx="663.5" cy="453.6" r="2" fill="#1f77b4"/>
<circle cx="689.8" cy="462.0" r="2" fill="#1f77b4"/>
<circle cx="716.0" cy="463.2" r="2" fill="#1f77b4"/>
<text x="611.0" y="399" text-anchor="middle" font-size="12" font-weight="bold">ztrsmR</text>
<line x1="506.0" y1="404" x2="506.0" y2="542" stroke="#f4f4f4"/>
<text x="506.0" y="553" text-anchor="middle" font-size="8" fill="#999">8</text>
<line x1="558.5" y1="404" x2="558.5" y2="542" stroke="#f4f4f4"/>
<text x="558.5" y="553" text-anchor="middle" font-size="8" fill="#999">32</text>
<line x1="611.0" y1="404" x2="611.0" y2="542" stroke="#f4f4f4"/>
<text x="611.0" y="553" text-anchor="middle" font-size="8" fill="#999">128</text>
<line x1="637.2" y1="404" x2="637.2" y2="542" stroke="#f4f4f4"/>
<text x="637.2" y="553" text-anchor="middle" font-size="8" fill="#999">256</text>
<line x1="663.5" y1="404" x2="663.5" y2="542" stroke="#f4f4f4"/>
<text x="663.5" y="553" text-anchor="middle" font-size="8" fill="#999">512</text>
<line x1="689.8" y1="404" x2="689.8" y2="542" stroke="#f4f4f4"/>
<text x="689.8" y="553" text-anchor="middle" font-size="8" fill="#999">1k</text>
<line x1="716.0" y1="404" x2="716.0" y2="542" stroke="#f4f4f4"/>
<text x="716.0" y="553" text-anchor="middle" font-size="8" fill="#999">2k</text>
</svg>
