<svg xmlns="http://www.w3.org/2000/svg" width="900" height="440" font-family="sans-serif">
<rect width="900" height="440" fill="white"/>
<text x="450.0" y="28" text-anchor="middle" font-size="18" font-weight="bold">Complex BLAS-2: PureBLAS / OpenBLAS (AVX-512, 1 thread, ComplexF64)</text>
<line x1="60" y1="358.0" x2="880" y2="358.0" stroke="#eee"/>
<text x="52" y="362.0" text-anchor="end" font-size="11" fill="#666">0×</text>
<line x1="60" y1="289.52079057468865" x2="880" y2="289.52079057468865" stroke="#eee"/>
<text x="52" y="293.52079057468865" text-anchor="end" font-size="11" fill="#666">0.5×</text>
<line x1="60" y1="221.04158114937727" x2="880" y2="221.04158114937727" stroke="#eee"/>
<text x="52" y="225.04158114937727" text-anchor="end" font-size="11" fill="#666">1×</text>
<line x1="60" y1="152.56237172406588" x2="880" y2="152.56237172406588" stroke="#eee"/>
<text x="52" y="156.56237172406588" text-anchor="end" font-size="11" fill="#666">1.5×</text>
<line x1="60" y1="221.04158114937727" x2="880" y2="221.04158114937727" stroke="#888" stroke-width="1"/>
<line x1="60" y1="226.5199179034022" x2="880" y2="226.5199179034022" stroke="#d33" stroke-width="1.5" stroke-dasharray="6 4"/>
<text x="880" y="221.5199179034022" text-anchor="end" font-size="11" fill="#d33">0.96× gate</text>
<polygon points="110.0,217.1 111.9,216.5 114.0,216.0 116.3,215.4 118.6,214.8 121.0,214.3 123.2,213.7 125.4,213.1 127.4,212.6 129.3,212.0 130.8,211.5 132.2,210.9 133.3,210.3 134.1,209.8 134.8,209.2 135.2,208.6 135.4,208.1 135.4,207.5 135.3,206.9 135.1,206.4 134.7,205.8 134.1,205.2 133.5,204.7 132.7,204.1 131.8,203.5 130.8,203.0 129.7,202.4 128.7,201.8 127.6,201.3 126.7,200.7 125.9,200.1 125.2,199.6 124.8,199.0 124.7,198.4 124.7,197.9 125.0,197.3 125.4,196.7 125.8,196.2 126.2,195.6 126.5,195.0 126.6,194.5 126.5,193.9 126.1,193.3 125.5,192.8 124.6,192.2 123.7,191.6 122.7,191.1 121.8,190.5 121.1,189.9 120.6,189.4 120.5,188.8 120.8,188.2 121.5,187.7 122.5,187.1 123.8,186.5 125.3,186.0 126.8,185.4 128.2,184.8 129.4,184.3 130.3,183.7 130.8,183.1 130.9,182.6 130.4,182.0 129.4,181.4 128.0,180.9 126.2,180.3 124.0,179.7 121.7,179.2 119.2,178.6 116.7,178.0 114.3,177.5 112.0,176.9 90.0,176.9 87.7,177.5 85.3,178.0 82.8,178.6 80.3,179.2 78.0,179.7 75.8,180.3 74.0,180.9 72.6,181.4 71.6,182.0 71.1,182.6 71.2,183.1 71.7,183.7 72.6,184.3 73.8,184.8 75.2,185.4 76.7,186.0 78.2,186.5 79.5,187.1 80.5,187.7 81.2,188.2 81.5,188.8 81.4,189.4 80.9,189.9 80.2,190.5 79.3,191.1 78.3,191.6 77.4,192.2 76.5,192.8 75.9,193.3 75.5,193.9 75.4,194.5 75.5,195.0 75.8,195.6 76.2,196.2 76.6,196.7 77.0,197.3 77.3,197.9 77.3,198.4 77.2,199.0 76.8,199.6 76.1,200.1 75.3,200.7 74.4,201.3 73.3,201.8 72.3,202.4 71.2,203.0 70.2,203.5 69.3,204.1 68.5,204.7 67.9,205.2 67.3,205.8 66.9,206.4 66.7,206.9 66.6,207.5 66.6,208.1 66.8,208.6 67.2,209.2 67.9,209.8 68.7,210.3 69.8,210.9 71.2,211.5 72.7,212.0 74.6,212.6 76.6,213.1 78.8,213.7 81.0,214.3 83.4,214.8 85.7,215.4 88.0,216.0 90.1,216.5 92.0,217.1" fill="#2a8" opacity="0.5" stroke="#2a8" stroke-width="1"/>
<line x1="77.2" y1="197.75635232720006" x2="124.8" y2="197.75635232720006" stroke="#114" stroke-width="2"/>
<circle cx="101.0" cy="212.6452069844123" r="2.4" fill="#114"/>
<text x="101.0" y="175.00973141059973" text-anchor="middle" font-size="11">1.17</text>
<text x="101.0" y="376" text-anchor="middle" font-size="12">zgemvN</text>
<polygon points="186.5,246.3 187.5,245.1 188.7,244.0 190.1,242.9 191.4,241.7 192.8,240.6 194.0,239.5 195.0,238.3 195.7,237.2 196.1,236.0 196.2,234.9 196.0,233.8 195.7,232.6 195.3,231.5 194.9,230.4 194.8,229.2 195.0,228.1 195.7,227.0 196.9,225.8 198.6,224.7 200.8,223.5 203.3,222.4 206.0,221.3 208.8,220.1 211.5,219.0 213.9,217.9 215.7,216.7 216.9,215.6 217.4,214.5 217.2,213.3 216.3,212.2 214.8,211.0 212.9,209.9 210.8,208.8 208.6,207.6 206.5,206.5 204.7,205.4 203.3,204.2 202.4,203.1 201.8,202.0 201.7,200.8 201.8,199.7 202.1,198.5 202.4,197.4 202.8,196.3 203.0,195.1 203.2,194.0 203.2,192.9 202.9,191.7 202.5,190.6 201.9,189.5 201.2,188.3 200.3,187.2 199.4,186.0 198.5,184.9 197.7,183.8 197.1,182.6 196.7,181.5 196.5,180.4 196.6,179.2 196.7,178.1 196.9,177.0 197.0,175.8 197.0,174.7 196.8,173.6 196.2,172.4 195.4,171.3 194.3,170.1 193.0,169.0 191.6,167.9 190.2,166.7 188.8,165.6 177.2,165.6 175.8,166.7 174.4,167.9 173.0,169.0 171.7,170.1 170.6,171.3 169.8,172.4 169.2,173.6 169.0,174.7 169.0,175.8 169.1,177.0 169.3,178.1 169.4,179.2 169.5,180.4 169.3,181.5 168.9,182.6 168.3,183.8 167.5,184.9 166.6,186.0 165.7,187.2 164.8,188.3 164.1,189.5 163.5,190.6 163.1,191.7 162.8,192.9 162.8,194.0 163.0,195.1 163.2,196.3 163.6,197.4 163.9,198.5 164.2,199.7 164.3,200.8 164.2,202.0 163.6,203.1 162.7,204.2 161.3,205.4 159.5,206.5 157.4,207.6 155.2,208.8 153.1,209.9 151.2,211.0 149.7,212.2 148.8,213.3 148.6,214.5 149.1,215.6 150.3,216.7 152.1,217.9 154.5,219.0 157.2,220.1 160.0,221.3 162.7,222.4 165.2,223.5 167.4,224.7 169.1,225.8 170.3,227.0 171.0,228.1 171.2,229.2 171.1,230.4 170.7,231.5 170.3,232.6 170.0,233.8 169.8,234.9 169.9,236.0 170.3,237.2 171.0,238.3 172.0,239.5 173.2,240.6 174.6,241.7 175.9,242.9 177.3,244.0 178.5,245.1 179.5,246.3" fill="#d33" opacity="0.5" stroke="#d33" stroke-width="1"/>
<line x1="149.8" y1="212.05180508180044" x2="216.2" y2="212.05180508180044" stroke="#114" stroke-width="2"/>
<circle cx="183.0" cy="235.37250293651167" r="2.4" fill="#114"/>
<text x="183.0" y="167.62534794446765" text-anchor="middle" font-size="11">1.07</text>
<text x="183.0" y="376" text-anchor="middle" font-size="12">zgemvT</text>
<polygon points="265.3,246.5 265.5,245.5 265.6,244.5 265.9,243.5 266.3,242.6 266.8,241.6 267.4,240.6 268.1,239.7 269.1,238.7 270.2,237.7 271.4,236.7 272.8,235.8 274.2,234.8 275.5,233.8 276.7,232.8 277.6,231.9 278.3,230.9 278.6,229.9 278.7,229.0 278.6,228.0 278.4,227.0 278.3,226.0 278.5,225.1 279.0,224.1 280.0,223.1 281.6,222.2 283.6,221.2 285.9,220.2 288.6,219.2 291.2,218.3 293.8,217.3 296.0,216.3 297.8,215.4 299.0,214.4 299.4,213.4 299.2,212.4 298.3,211.5 296.8,210.5 294.9,209.5 292.7,208.6 290.4,207.6 288.3,206.6 286.5,205.6 285.0,204.7 283.8,203.7 283.1,202.7 282.6,201.7 282.3,200.8 282.0,199.8 281.9,198.8 281.8,197.9 281.7,196.9 281.8,195.9 282.1,194.9 282.7,194.0 283.7,193.0 284.9,192.0 286.3,191.1 287.8,190.1 289.1,189.1 290.1,188.1 290.7,187.2 290.6,186.2 289.9,185.2 288.5,184.3 286.6,183.3 284.2,182.3 281.6,181.3 278.9,180.4 276.3,179.4 273.9,178.4 271.7,177.5 258.3,177.5 256.1,178.4 253.7,179.4 251.1,180.4 248.4,181.3 245.8,182.3 243.4,183.3 241.5,184.3 240.1,185.2 239.4,186.2 239.3,187.2 239.9,188.1 240.9,189.1 242.2,190.1 243.7,191.1 245.1,192.0 246.3,193.0 247.3,194.0 247.9,194.9 248.2,195.9 248.3,196.9 248.2,197.9 248.1,198.8 248.0,199.8 247.7,200.8 247.4,201.7 246.9,202.7 246.2,203.7 245.0,204.7 243.5,205.6 241.7,206.6 239.6,207.6 237.3,208.6 235.1,209.5 233.2,210.5 231.7,211.5 230.8,212.4 230.6,213.4 231.0,214.4 232.2,215.4 234.0,216.3 236.2,217.3 238.8,218.3 241.4,219.2 244.1,220.2 246.4,221.2 248.4,222.2 250.0,223.1 251.0,224.1 251.5,225.1 251.7,226.0 251.6,227.0 251.4,228.0 251.3,229.0 251.4,229.9 251.7,230.9 252.4,231.9 253.3,232.8 254.5,233.8 255.8,234.8 257.2,235.8 258.6,236.7 259.8,237.7 260.9,238.7 261.9,239.7 262.6,240.6 263.2,241.6 263.7,242.6 264.1,243.5 264.4,244.5 264.5,245.5 264.7,246.5" fill="#d33" opacity="0.5" stroke="#d33" stroke-width="1"/>
<line x1="233.6" y1="210.27385059289028" x2="296.4" y2="210.27385059289028" stroke="#114" stroke-width="2"/>
<circle cx="265.0" cy="229.94559802959236" r="2.4" fill="#114"/>
<text x="265.0" y="178.35121931692012" text-anchor="middle" font-size="11">1.08</text>
<text x="265.0" y="376" text-anchor="middle" font-size="12">zgemvC</text>
<polygon points="347.2,234.3 347.3,233.0 347.4,231.8 347.5,230.6 347.7,229.3 347.9,228.1 348.2,226.8 348.5,225.6 349.0,224.3 349.5,223.1 350.3,221.9 351.4,220.6 352.7,219.4 354.5,218.1 356.7,216.9 359.4,215.6 362.3,214.4 365.5,213.2 368.8,211.9 372.0,210.7 374.9,209.4 377.4,208.2 379.3,206.9 380.7,205.7 381.3,204.5 381.4,203.2 381.0,202.0 380.1,200.7 378.8,199.5 377.4,198.2 375.7,197.0 374.0,195.8 372.3,194.5 370.5,193.3 368.6,192.0 366.6,190.8 364.6,189.6 362.4,188.3 360.1,187.1 357.9,185.8 355.7,184.6 353.7,183.3 352.0,182.1 350.6,180.9 349.5,179.6 348.7,178.4 348.1,177.1 347.7,175.9 347.5,174.6 347.5,173.4 347.6,172.2 347.8,170.9 348.2,169.7 348.8,168.4 349.6,167.2 350.6,165.9 351.7,164.7 352.9,163.5 354.1,162.2 355.2,161.0 356.0,159.7 356.5,158.5 356.6,157.2 356.3,156.0 355.6,154.8 354.6,153.5 353.4,152.3 352.2,151.0 351.0,149.8 350.0,148.5 349.1,147.3 348.4,146.1 345.6,146.1 344.9,147.3 344.0,148.5 343.0,149.8 341.8,151.0 340.6,152.3 339.4,153.5 338.4,154.8 337.7,156.0 337.4,157.2 337.5,158.5 338.0,159.7 338.8,161.0 339.9,162.2 341.1,163.5 342.3,164.7 343.4,165.9 344.4,167.2 345.2,168.4 345.8,169.7 346.2,170.9 346.4,172.2 346.5,173.4 346.5,174.6 346.3,175.9 345.9,177.1 345.3,178.4 344.5,179.6 343.4,180.9 342.0,182.1 340.3,183.3 338.3,184.6 336.1,185.8 333.9,187.1 331.6,188.3 329.4,189.6 327.4,190.8 325.4,192.0 323.5,193.3 321.7,194.5 320.0,195.8 318.3,197.0 316.6,198.2 315.2,199.5 313.9,200.7 313.0,202.0 312.6,203.2 312.7,204.5 313.3,205.7 314.7,206.9 316.6,208.2 319.1,209.4 322.0,210.7 325.2,211.9 328.5,213.2 331.7,214.4 334.6,215.6 337.3,216.9 339.5,218.1 341.3,219.4 342.6,220.6 343.7,221.9 344.5,223.1 345.0,224.3 345.5,225.6 345.8,226.8 346.1,228.1 346.3,229.3 346.5,230.6 346.6,231.8 346.7,233.0 346.8,234.3" fill="#2a8" opacity="0.5" stroke="#2a8" stroke-width="1"/>
<line x1="314.0" y1="200.61402398282158" x2="380.0" y2="200.61402398282158" stroke="#114" stroke-width="2"/>
<circle cx="347.0" cy="210.6595956061903" r="2.4" fill="#114"/>
<text x="347.0" y="148.82162390729997" text-anchor="middle" font-size="11">1.15</text>
<text x="347.0" y="376" text-anchor="middle" font-size="12">zgeru</text>
<polygon points="439.3,241.1 441.2,238.4 443.3,235.7 445.5,233.0 447.8,230.4 450.1,227.7 452.4,225.0 454.6,222.3 456.7,219.6 458.6,216.9 460.2,214.2 461.6,211.5 462.6,208.8 463.2,206.1 463.4,203.4 463.2,200.7 462.5,198.1 461.4,195.4 459.8,192.7 457.9,190.0 455.8,187.3 453.5,184.6 451.1,181.9 448.8,179.2 446.6,176.5 444.7,173.8 443.1,171.1 441.9,168.4 441.0,165.7 440.6,163.1 440.6,160.4 441.0,157.7 441.6,155.0 442.5,152.3 443.7,149.6 444.9,146.9 446.1,144.2 447.4,141.5 448.6,138.8 449.7,136.1 450.6,133.4 451.4,130.8 452.1,128.1 452.7,125.4 453.1,122.7 453.4,120.0 453.7,117.3 453.9,114.6 454.2,111.9 454.4,109.2 454.7,106.5 455.0,103.8 455.4,101.1 455.8,98.5 456.3,95.8 456.7,93.1 457.2,90.4 457.5,87.7 457.7,85.0 457.7,82.3 457.5,79.6 457.0,76.9 456.2,74.2 455.2,71.5 453.8,68.8 452.1,66.2 450.3,63.5 448.3,60.8 446.2,58.1 444.0,55.4 441.9,52.7 440.0,50.0 418.0,50.0 416.1,52.7 414.0,55.4 411.8,58.1 409.7,60.8 407.7,63.5 405.9,66.2 404.2,68.8 402.8,71.5 401.8,74.2 401.0,76.9 400.5,79.6 400.3,82.3 400.3,85.0 400.5,87.7 400.8,90.4 401.3,93.1 401.7,95.8 402.2,98.5 402.6,101.1 403.0,103.8 403.3,106.5 403.6,109.2 403.8,111.9 404.1,114.6 404.3,117.3 404.6,120.0 404.9,122.7 405.3,125.4 405.9,128.1 406.6,130.8 407.4,133.4 408.3,136.1 409.4,138.8 410.6,141.5 411.9,144.2 413.1,146.9 414.3,149.6 415.5,152.3 416.4,155.0 417.0,157.7 417.4,160.4 417.4,163.1 417.0,165.7 416.1,168.4 414.9,171.1 413.3,173.8 411.4,176.5 409.2,179.2 406.9,181.9 404.5,184.6 402.2,187.3 400.1,190.0 398.2,192.7 396.6,195.4 395.5,198.1 394.8,200.7 394.6,203.4 394.8,206.1 395.4,208.8 396.4,211.5 397.8,214.2 399.4,216.9 401.3,219.6 403.4,222.3 405.6,225.0 407.9,227.7 410.2,230.4 412.5,233.0 414.7,235.7 416.8,238.4 418.7,241.1" fill="#2a8" opacity="0.5" stroke="#2a8" stroke-width="1"/>
<line x1="409.0" y1="137.72358314052195" x2="449.0" y2="137.72358314052195" stroke="#114" stroke-width="2"/>
<circle cx="429.0" cy="222.2100930459797" r="2.4" fill="#114"/>
<text x="429.0" y="61.43396226415098" text-anchor="middle" font-size="11">1.61</text>
<text x="429.0" y="376" text-anchor="middle" font-size="12">zhemv</text>
<polygon points="517.4,239.3 519.2,237.4 521.2,235.4 523.3,233.4 525.5,231.4 527.6,229.5 529.5,227.5 531.1,225.5 532.3,223.6 533.3,221.6 533.9,219.6 534.3,217.6 534.7,215.7 535.0,213.7 535.6,211.7 536.3,209.7 537.3,207.8 538.6,205.8 540.0,203.8 541.5,201.8 542.9,199.9 544.1,197.9 545.0,195.9 545.4,194.0 545.3,192.0 544.7,190.0 543.5,188.0 541.8,186.1 539.7,184.1 537.3,182.1 534.7,180.1 532.1,178.2 529.6,176.2 527.3,174.2 525.3,172.3 523.7,170.3 522.5,168.3 521.8,166.3 521.5,164.4 521.4,162.4 521.7,160.4 522.1,158.4 522.6,156.5 523.0,154.5 523.3,152.5 523.5,150.5 523.6,148.6 523.5,146.6 523.2,144.6 522.9,142.7 522.6,140.7 522.4,138.7 522.2,136.7 522.2,134.8 522.2,132.8 522.4,130.8 522.5,128.8 522.6,126.9 522.7,124.9 522.6,122.9 522.3,120.9 521.8,119.0 521.1,117.0 520.2,115.0 519.2,113.1 518.1,111.1 517.0,109.1 515.9,107.1 514.9,105.2 514.0,103.2 513.3,101.2 512.7,99.2 509.3,99.2 508.7,101.2 508.0,103.2 507.1,105.2 506.1,107.1 505.0,109.1 503.9,111.1 502.8,113.1 501.8,115.0 500.9,117.0 500.2,119.0 499.7,120.9 499.4,122.9 499.3,124.9 499.4,126.9 499.5,128.8 499.6,130.8 499.8,132.8 499.8,134.8 499.8,136.7 499.6,138.7 499.4,140.7 499.1,142.7 498.8,144.6 498.5,146.6 498.4,148.6 498.5,150.5 498.7,152.5 499.0,154.5 499.4,156.5 499.9,158.4 500.3,160.4 500.6,162.4 500.5,164.4 500.2,166.3 499.5,168.3 498.3,170.3 496.7,172.3 494.7,174.2 492.4,176.2 489.9,178.2 487.3,180.1 484.7,182.1 482.3,184.1 480.2,186.1 478.5,188.0 477.3,190.0 476.7,192.0 476.6,194.0 477.0,195.9 477.9,197.9 479.1,199.9 480.5,201.8 482.0,203.8 483.4,205.8 484.7,207.8 485.7,209.7 486.4,211.7 487.0,213.7 487.3,215.7 487.7,217.6 488.1,219.6 488.7,221.6 489.7,223.6 490.9,225.5 492.5,227.5 494.4,229.5 496.5,231.4 498.7,233.4 500.8,235.4 502.8,237.4 504.6,239.3" fill="#2a8" opacity="0.5" stroke="#2a8" stroke-width="1"/>
<line x1="476.7" y1="191.79811711022703" x2="545.3" y2="191.79811711022703" stroke="#114" stroke-width="2"/>
<circle cx="511.0" cy="224.3149164485229" r="2.4" fill="#114"/>
<text x="511.0" y="107.02303619956834" text-anchor="middle" font-size="11">1.21</text>
<text x="511.0" y="376" text-anchor="middle" font-size="12">ztrmv</text>
<polygon points="597.1,244.2 598.6,242.9 600.5,241.6 602.7,240.4 605.3,239.1 608.0,237.8 611.0,236.6 613.9,235.3 616.7,234.0 619.0,232.7 620.9,231.5 622.1,230.2 622.5,228.9 622.1,227.7 621.0,226.4 619.2,225.1 616.9,223.9 614.3,222.6 611.5,221.3 608.9,220.1 606.5,218.8 604.6,217.5 603.2,216.3 602.4,215.0 602.1,213.7 602.5,212.4 603.4,211.2 604.7,209.9 606.4,208.6 608.3,207.4 610.4,206.1 612.5,204.8 614.6,203.6 616.6,202.3 618.4,201.0 620.0,199.8 621.4,198.5 622.6,197.2 623.7,196.0 624.7,194.7 625.4,193.4 626.1,192.2 626.7,190.9 627.1,189.6 627.3,188.3 627.4,187.1 627.4,185.8 627.2,184.5 626.9,183.3 626.4,182.0 625.9,180.7 625.2,179.5 624.5,178.2 623.7,176.9 622.8,175.7 621.9,174.4 620.9,173.1 619.8,171.9 618.6,170.6 617.3,169.3 615.8,168.1 614.2,166.8 612.3,165.5 610.4,164.2 608.4,163.0 606.4,161.7 604.3,160.4 602.4,159.2 600.7,157.9 599.1,156.6 597.7,155.4 596.5,154.1 589.5,154.1 588.3,155.4 586.9,156.6 585.3,157.9 583.6,159.2 581.7,160.4 579.6,161.7 577.6,163.0 575.6,164.2 573.7,165.5 571.8,166.8 570.2,168.1 568.7,169.3 567.4,170.6 566.2,171.9 565.1,173.1 564.1,174.4 563.2,175.7 562.3,176.9 561.5,178.2 560.8,179.5 560.1,180.7 559.6,182.0 559.1,183.3 558.8,184.5 558.6,185.8 558.6,187.1 558.7,188.3 558.9,189.6 559.3,190.9 559.9,192.2 560.6,193.4 561.3,194.7 562.3,196.0 563.4,197.2 564.6,198.5 566.0,199.8 567.6,201.0 569.4,202.3 571.4,203.6 573.5,204.8 575.6,206.1 577.7,207.4 579.6,208.6 581.3,209.9 582.6,211.2 583.5,212.4 583.9,213.7 583.6,215.0 582.8,216.3 581.4,217.5 579.5,218.8 577.1,220.1 574.5,221.3 571.7,222.6 569.1,223.9 566.8,225.1 565.0,226.4 563.9,227.7 563.5,228.9 563.9,230.2 565.1,231.5 567.0,232.7 569.3,234.0 572.1,235.3 575.0,236.6 578.0,237.8 580.7,239.1 583.3,240.4 585.5,241.6 587.4,242.9 588.9,244.2" fill="#d33" opacity="0.5" stroke="#d33" stroke-width="1"/>
<line x1="559.8" y1="191.879785342054" x2="626.2" y2="191.879785342054" stroke="#114" stroke-width="2"/>
<circle cx="593.0" cy="229.29553578268627" r="2.4" fill="#114"/>
<text x="593.0" y="157.0358029722331" text-anchor="middle" font-size="11">1.21</text>
<text x="593.0" y="376" text-anchor="middle" font-size="12">ztrsv</text>
<polygon points="684.8,216.0 687.3,214.5 690.0,213.0 693.0,211.5 695.9,210.0 698.7,208.6 701.2,207.1 703.2,205.6 704.7,204.1 705.6,202.7 705.8,201.2 705.3,199.7 704.4,198.2 703.0,196.8 701.3,195.3 699.7,193.8 698.1,192.3 696.7,190.8 695.8,189.4 695.2,187.9 695.0,186.4 695.2,184.9 695.7,183.5 696.3,182.0 697.0,180.5 697.8,179.0 698.4,177.6 699.0,176.1 699.4,174.6 699.7,173.1 700.0,171.7 700.3,170.2 700.6,168.7 700.8,167.2 701.2,165.7 701.6,164.3 702.1,162.8 702.7,161.3 703.4,159.8 704.2,158.4 705.0,156.9 705.8,155.4 706.7,153.9 707.4,152.5 708.1,151.0 708.7,149.5 709.1,148.0 709.4,146.5 709.4,145.1 709.3,143.6 709.0,142.1 708.4,140.6 707.5,139.2 706.3,137.7 704.8,136.2 703.0,134.7 700.9,133.3 698.6,131.8 696.2,130.3 693.8,128.8 691.3,127.4 689.0,125.9 686.8,124.4 684.8,122.9 683.0,121.4 681.5,120.0 680.1,118.5 679.0,117.0 678.1,115.5 677.4,114.1 676.8,112.6 676.3,111.1 673.7,111.1 673.2,112.6 672.6,114.1 671.9,115.5 671.0,117.0 669.9,118.5 668.5,120.0 667.0,121.4 665.2,122.9 663.2,124.4 661.0,125.9 658.7,127.4 656.2,128.8 653.8,130.3 651.4,131.8 649.1,133.3 647.0,134.7 645.2,136.2 643.7,137.7 642.5,139.2 641.6,140.6 641.0,142.1 640.7,143.6 640.6,145.1 640.6,146.5 640.9,148.0 641.3,149.5 641.9,151.0 642.6,152.5 643.3,153.9 644.2,155.4 645.0,156.9 645.8,158.4 646.6,159.8 647.3,161.3 647.9,162.8 648.4,164.3 648.8,165.7 649.2,167.2 649.4,168.7 649.7,170.2 650.0,171.7 650.3,173.1 650.6,174.6 651.0,176.1 651.6,177.6 652.2,179.0 653.0,180.5 653.7,182.0 654.3,183.5 654.8,184.9 655.0,186.4 654.8,187.9 654.2,189.4 653.3,190.8 651.9,192.3 650.3,193.8 648.7,195.3 647.0,196.8 645.6,198.2 644.7,199.7 644.2,201.2 644.4,202.7 645.3,204.1 646.8,205.6 648.8,207.1 651.3,208.6 654.1,210.0 657.0,211.5 660.0,213.0 662.7,214.5 665.2,216.0" fill="#2a8" opacity="0.5" stroke="#2a8" stroke-width="1"/>
<line x1="648.6" y1="164.90964842794727" x2="701.4" y2="164.90964842794727" stroke="#114" stroke-width="2"/>
<circle cx="675.0" cy="205.37244590344372" r="2.4" fill="#114"/>
<text x="675.0" y="115.47360538702334" text-anchor="middle" font-size="11">1.41</text>
<text x="675.0" y="376" text-anchor="middle" font-size="12">zhpmv</text>
<polygon points="757.0,218.8 757.1,217.7 757.1,216.7 757.2,215.6 757.3,214.6 757.4,213.5 757.5,212.4 757.6,211.4 757.7,210.3 757.7,209.2 757.8,208.2 757.8,207.1 757.7,206.1 757.7,205.0 757.6,203.9 757.6,202.9 757.6,201.8 757.7,200.7 757.8,199.7 758.1,198.6 758.5,197.5 759.1,196.5 759.9,195.4 761.0,194.4 762.3,193.3 763.9,192.2 765.9,191.2 768.3,190.1 771.3,189.0 774.7,188.0 778.6,186.9 782.7,185.9 786.4,184.8 789.4,183.7 791.1,182.7 791.4,181.6 790.3,180.5 788.1,179.5 785.1,178.4 781.7,177.4 778.3,176.3 775.2,175.2 772.7,174.2 770.7,173.1 769.4,172.0 768.7,171.0 768.4,169.9 768.3,168.9 768.2,167.8 768.1,166.7 767.7,165.7 767.3,164.6 766.9,163.5 766.6,162.5 766.5,161.4 766.5,160.4 766.6,159.3 766.6,158.2 766.6,157.2 766.3,156.1 765.6,155.0 764.7,154.0 763.6,152.9 762.3,151.9 761.1,150.8 760.0,149.7 759.1,148.7 758.4,147.6 757.9,146.5 757.5,145.5 757.3,144.4 757.1,143.3 756.9,143.3 756.7,144.4 756.5,145.5 756.1,146.5 755.6,147.6 754.9,148.7 754.0,149.7 752.9,150.8 751.7,151.9 750.4,152.9 749.3,154.0 748.4,155.0 747.7,156.1 747.4,157.2 747.4,158.2 747.4,159.3 747.5,160.4 747.5,161.4 747.4,162.5 747.1,163.5 746.7,164.6 746.3,165.7 745.9,166.7 745.8,167.8 745.7,168.9 745.6,169.9 745.3,171.0 744.6,172.0 743.3,173.1 741.3,174.2 738.8,175.2 735.7,176.3 732.3,177.4 728.9,178.4 725.9,179.5 723.7,180.5 722.6,181.6 722.9,182.7 724.6,183.7 727.6,184.8 731.3,185.9 735.4,186.9 739.3,188.0 742.7,189.0 745.7,190.1 748.1,191.2 750.1,192.2 751.7,193.3 753.0,194.4 754.1,195.4 754.9,196.5 755.5,197.5 755.9,198.6 756.2,199.7 756.3,200.7 756.4,201.8 756.4,202.9 756.4,203.9 756.3,205.0 756.3,206.1 756.2,207.1 756.2,208.2 756.3,209.2 756.3,210.3 756.4,211.4 756.5,212.4 756.6,213.5 756.7,214.6 756.8,215.6 756.9,216.7 756.9,217.7 757.0,218.8" fill="#2a8" opacity="0.5" stroke="#2a8" stroke-width="1"/>
<line x1="724.3" y1="180.18319267181656" x2="789.7" y2="180.18319267181656" stroke="#114" stroke-width="2"/>
<circle cx="757.0" cy="185.17114573475698" r="2.4" fill="#114"/>
<text x="757.0" y="144.87145607271427" text-anchor="middle" font-size="11">1.30</text>
<text x="757.0" y="376" text-anchor="middle" font-size="12">zgbmvN</text>
<polygon points="839.0,229.3 839.0,228.9 839.0,228.4 839.1,228.0 839.2,227.6 839.3,227.1 839.4,226.7 839.5,226.3 839.6,225.8 839.6,225.4 839.5,225.0 839.4,224.5 839.3,224.1 839.2,223.7 839.2,223.3 839.2,222.8 839.2,222.4 839.2,222.0 839.2,221.5 839.2,221.1 839.2,220.7 839.2,220.2 839.4,219.8 839.7,219.4 840.2,219.0 840.9,218.5 841.8,218.1 842.7,217.7 843.5,217.2 844.1,216.8 844.6,216.4 845.2,215.9 846.3,215.5 848.4,215.1 851.7,214.7 856.2,214.2 861.3,213.8 866.2,213.4 870.2,212.9 872.7,212.5 873.4,212.1 872.4,211.6 869.7,211.2 865.9,210.8 861.5,210.4 857.2,209.9 853.7,209.5 851.4,209.1 850.6,208.6 850.9,208.2 851.6,207.8 852.0,207.3 851.4,206.9 849.8,206.5 847.4,206.0 845.0,205.6 842.9,205.2 841.3,204.8 840.3,204.3 839.8,203.9 839.5,203.5 839.4,203.0 839.5,202.6 839.5,202.2 839.5,201.7 839.4,201.3 839.3,200.9 839.2,200.5 839.1,200.0 839.0,199.6 839.0,199.2 839.0,198.7 839.0,198.7 839.0,199.2 839.0,199.6 838.9,200.0 838.8,200.5 838.7,200.9 838.6,201.3 838.5,201.7 838.5,202.2 838.5,202.6 838.6,203.0 838.5,203.5 838.2,203.9 837.7,204.3 836.7,204.8 835.1,205.2 833.0,205.6 830.6,206.0 828.2,206.5 826.6,206.9 826.0,207.3 826.4,207.8 827.1,208.2 827.4,208.6 826.6,209.1 824.3,209.5 820.8,209.9 816.5,210.4 812.1,210.8 808.3,211.2 805.6,211.6 804.6,212.1 805.3,212.5 807.8,212.9 811.8,213.4 816.7,213.8 821.8,214.2 826.3,214.7 829.6,215.1 831.7,215.5 832.8,215.9 833.4,216.4 833.9,216.8 834.5,217.2 835.3,217.7 836.2,218.1 837.1,218.5 837.8,219.0 838.3,219.4 838.6,219.8 838.8,220.2 838.8,220.7 838.8,221.1 838.8,221.5 838.8,222.0 838.8,222.4 838.8,222.8 838.8,223.3 838.8,223.7 838.7,224.1 838.6,224.5 838.5,225.0 838.4,225.4 838.4,225.8 838.5,226.3 838.6,226.7 838.7,227.1 838.8,227.6 838.9,228.0 839.0,228.4 839.0,228.9 839.0,229.3" fill="#2a8" opacity="0.5" stroke="#2a8" stroke-width="1"/>
<line x1="804.8" y1="211.87263162905506" x2="873.2" y2="211.87263162905506" stroke="#114" stroke-width="2"/>
<circle cx="839.0" cy="213.92354633679992" r="2.4" fill="#114"/>
<text x="839.0" y="195.91005116791186" text-anchor="middle" font-size="11">1.07</text>
<text x="839.0" y="376" text-anchor="middle" font-size="12">zhbmv</text>
<text x="450.0" y="428" text-anchor="middle" font-size="11" fill="#666">violin = ratio distribution over sizes · line = median · dark dot = worst size · green = every size ≥ gate</text>
</svg>
