<svg xmlns="http://www.w3.org/2000/svg" width="962" height="420" font-family="sans-serif">
<rect width="962" height="420" fill="white"/>
<text x="481.0" y="26" text-anchor="middle" font-size="17" font-weight="bold">Complex BLAS-1 — PureBLAS / AOCL (PB/AOCL ratio)</text>
<line x1="46" y1="42" x2="68" y2="42" stroke="#d62728" stroke-width="3"/>
<text x="73" y="46" font-size="12">Zen3 · AVX2</text>
<line x1="176" y1="42" x2="198" y2="42" stroke="#2ca02c" stroke-width="3"/>
<text x="203" y="46" font-size="12">Zen5 · AVX-512</text>
<line x1="327" y1="42" x2="349" y2="42" stroke="#1f77b4" stroke-width="3"/>
<text x="354" y="46" font-size="12">Zen4 · AVX-512</text>
<rect x="46" y="60" width="210" height="138" fill="none" stroke="#e2e2e2"/>
<line x1="46" y1="124.0645630940444" x2="256" y2="124.0645630940444" stroke="#d33" stroke-dasharray="4 3"/>
<text x="42" y="201.0" text-anchor="end" font-size="9" fill="#999">0.5×</text>
<text x="42" y="127.0645630940444" text-anchor="end" font-size="9" fill="#999">1.0×</text>
<text x="42" y="63.18889630209381" text-anchor="end" font-size="9" fill="#999">1.82×</text>
<polygon points="46.0,68.2 79.4,89.2 116.0,91.6 149.4,101.7 186.0,102.0 219.4,104.2 256.0,115.6 256.0,119.7 219.4,108.7 186.0,105.9 149.4,103.6 116.0,96.2 79.4,90.6 46.0,68.7" fill="#d62728" opacity="0.11"/>
<polyline points="46.0,68.4 79.4,90.0 116.0,93.3 149.4,102.4 186.0,103.3 219.4,105.6 256.0,118.6" fill="none" stroke="#d62728" stroke-width="1.6"/>
<circle cx="46.0" cy="68.4" r="2" fill="#d62728"/>
<circle cx="79.4" cy="90.0" r="2" fill="#d62728"/>
<circle cx="116.0" cy="93.3" r="2" fill="#d62728"/>
<circle cx="149.4" cy="102.4" r="2" fill="#d62728"/>
<circle cx="186.0" cy="103.3" r="2" fill="#d62728"/>
<circle cx="219.4" cy="105.6" r="2" fill="#d62728"/>
<circle cx="256.0" cy="118.6" r="2" fill="#d62728"/>
<polygon points="46.0,111.0 79.4,123.7 116.0,125.3 149.4,115.8 186.0,122.8 219.4,123.4 256.0,122.8 256.0,128.7 219.4,128.0 186.0,125.2 149.4,128.9 116.0,130.4 79.4,126.2 46.0,111.3" fill="#2ca02c" opacity="0.11"/>
<polyline points="46.0,111.1 79.4,124.5 116.0,126.5 149.4,122.6 186.0,123.9 219.4,125.8 256.0,126.0" fill="none" stroke="#2ca02c" stroke-width="1.6"/>
<circle cx="46.0" cy="111.1" r="2" fill="#2ca02c"/>
<circle cx="79.4" cy="124.5" r="2" fill="#2ca02c"/>
<circle cx="116.0" cy="126.5" r="2" fill="#2ca02c"/>
<circle cx="149.4" cy="122.6" r="2" fill="#2ca02c"/>
<circle cx="186.0" cy="123.9" r="2" fill="#2ca02c"/>
<circle cx="219.4" cy="125.8" r="2" fill="#2ca02c"/>
<circle cx="256.0" cy="126.0" r="2" fill="#2ca02c"/>
<polygon points="46.0,115.9 79.4,122.9 116.0,115.9 149.4,121.7 186.0,125.6 219.4,124.7 256.0,122.2 256.0,124.5 219.4,126.5 186.0,126.1 149.4,124.1 116.0,124.4 79.4,123.2 46.0,118.5" fill="#1f77b4" opacity="0.11"/>
<polyline points="46.0,117.4 79.4,123.1 116.0,123.2 149.4,122.9 186.0,125.8 219.4,125.6 256.0,123.7" fill="none" stroke="#1f77b4" stroke-width="1.6"/>
<circle cx="46.0" cy="117.4" r="2" fill="#1f77b4"/>
<circle cx="79.4" cy="123.1" r="2" fill="#1f77b4"/>
<circle cx="116.0" cy="123.2" r="2" fill="#1f77b4"/>
<circle cx="149.4" cy="122.9" r="2" fill="#1f77b4"/>
<circle cx="186.0" cy="125.8" r="2" fill="#1f77b4"/>
<circle cx="219.4" cy="125.6" r="2" fill="#1f77b4"/>
<circle cx="256.0" cy="123.7" r="2" fill="#1f77b4"/>
<text x="151.0" y="55" text-anchor="middle" font-size="12" font-weight="bold">zaxpy</text>
<line x1="46.0" y1="60" x2="46.0" y2="198" stroke="#f4f4f4"/>
<text x="46.0" y="209" text-anchor="middle" font-size="8" fill="#999">1000</text>
<line x1="79.4" y1="60" x2="79.4" y2="198" stroke="#f4f4f4"/>
<text x="79.4" y="209" text-anchor="middle" font-size="8" fill="#999">2k</text>
<line x1="116.0" y1="60" x2="116.0" y2="198" stroke="#f4f4f4"/>
<text x="116.0" y="209" text-anchor="middle" font-size="8" fill="#999">9k</text>
<line x1="149.4" y1="60" x2="149.4" y2="198" stroke="#f4f4f4"/>
<text x="149.4" y="209" text-anchor="middle" font-size="8" fill="#999">29k</text>
<line x1="186.0" y1="60" x2="186.0" y2="198" stroke="#f4f4f4"/>
<text x="186.0" y="209" text-anchor="middle" font-size="8" fill="#999">97k</text>
<line x1="219.4" y1="60" x2="219.4" y2="198" stroke="#f4f4f4"/>
<text x="219.4" y="209" text-anchor="middle" font-size="8" fill="#999">292k</text>
<line x1="256.0" y1="60" x2="256.0" y2="198" stroke="#f4f4f4"/>
<text x="256.0" y="209" text-anchor="middle" font-size="8" fill="#999">976k</text>
<rect x="276" y="60" width="210" height="138" fill="none" stroke="#e2e2e2"/>
<line x1="276" y1="115.76276119065531" x2="486" y2="115.76276119065531" stroke="#d33" stroke-dasharray="4 3"/>
<text x="272" y="201.0" text-anchor="end" font-size="9" fill="#999">0.5×</text>
<text x="272" y="118.76276119065531" text-anchor="end" font-size="9" fill="#999">1.0×</text>
<text x="272" y="63.0" text-anchor="end" font-size="9" fill="#999">1.6×</text>
<polygon points="276.0,82.3 309.4,110.3 346.0,111.3 379.4,113.3 416.0,114.8 449.4,113.8 486.0,113.2 486.0,118.5 449.4,118.3 416.0,117.0 379.4,114.6 346.0,114.1 309.4,110.9 276.0,83.6" fill="#d62728" opacity="0.11"/>
<polyline points="276.0,83.2 309.4,110.6 346.0,112.7 379.4,114.0 416.0,116.4 449.4,115.6 486.0,114.3" fill="none" stroke="#d62728" stroke-width="1.6"/>
<circle cx="276.0" cy="83.2" r="2" fill="#d62728"/>
<circle cx="309.4" cy="110.6" r="2" fill="#d62728"/>
<circle cx="346.0" cy="112.7" r="2" fill="#d62728"/>
<circle cx="379.4" cy="114.0" r="2" fill="#d62728"/>
<circle cx="416.0" cy="116.4" r="2" fill="#d62728"/>
<circle cx="449.4" cy="115.6" r="2" fill="#d62728"/>
<circle cx="486.0" cy="114.3" r="2" fill="#d62728"/>
<polygon points="276.0,110.1 309.4,108.2 346.0,102.2 379.4,98.1 416.0,112.9 449.4,115.0 486.0,105.8 486.0,123.2 449.4,122.7 416.0,117.2 379.4,119.2 346.0,110.7 309.4,109.7 276.0,110.5" fill="#2ca02c" opacity="0.11"/>
<polyline points="276.0,110.3 309.4,108.6 346.0,107.6 379.4,109.4 416.0,115.4 449.4,118.9 486.0,115.5" fill="none" stroke="#2ca02c" stroke-width="1.6"/>
<circle cx="276.0" cy="110.3" r="2" fill="#2ca02c"/>
<circle cx="309.4" cy="108.6" r="2" fill="#2ca02c"/>
<circle cx="346.0" cy="107.6" r="2" fill="#2ca02c"/>
<circle cx="379.4" cy="109.4" r="2" fill="#2ca02c"/>
<circle cx="416.0" cy="115.4" r="2" fill="#2ca02c"/>
<circle cx="449.4" cy="118.9" r="2" fill="#2ca02c"/>
<circle cx="486.0" cy="115.5" r="2" fill="#2ca02c"/>
<polygon points="276.0,113.5 309.4,111.9 346.0,114.3 379.4,112.4 416.0,114.8 449.4,113.6 486.0,112.0 486.0,115.2 449.4,115.2 416.0,115.6 379.4,115.2 346.0,114.6 309.4,112.2 276.0,115.0" fill="#1f77b4" opacity="0.11"/>
<polyline points="276.0,114.4 309.4,112.1 346.0,114.5 379.4,113.7 416.0,115.2 449.4,114.7 486.0,113.5" fill="none" stroke="#1f77b4" stroke-width="1.6"/>
<circle cx="276.0" cy="114.4" r="2" fill="#1f77b4"/>
<circle cx="309.4" cy="112.1" r="2" fill="#1f77b4"/>
<circle cx="346.0" cy="114.5" r="2" fill="#1f77b4"/>
<circle cx="379.4" cy="113.7" r="2" fill="#1f77b4"/>
<circle cx="416.0" cy="115.2" r="2" fill="#1f77b4"/>
<circle cx="449.4" cy="114.7" r="2" fill="#1f77b4"/>
<circle cx="486.0" cy="113.5" r="2" fill="#1f77b4"/>
<text x="381.0" y="55" text-anchor="middle" font-size="12" font-weight="bold">zdotc</text>
<line x1="276.0" y1="60" x2="276.0" y2="198" stroke="#f4f4f4"/>
<text x="276.0" y="209" text-anchor="middle" font-size="8" fill="#999">1000</text>
<line x1="309.4" y1="60" x2="309.4" y2="198" stroke="#f4f4f4"/>
<text x="309.4" y="209" text-anchor="middle" font-size="8" fill="#999">2k</text>
<line x1="346.0" y1="60" x2="346.0" y2="198" stroke="#f4f4f4"/>
<text x="346.0" y="209" text-anchor="middle" font-size="8" fill="#999">9k</text>
<line x1="379.4" y1="60" x2="379.4" y2="198" stroke="#f4f4f4"/>
<text x="379.4" y="209" text-anchor="middle" font-size="8" fill="#999">29k</text>
<line x1="416.0" y1="60" x2="416.0" y2="198" stroke="#f4f4f4"/>
<text x="416.0" y="209" text-anchor="middle" font-size="8" fill="#999">97k</text>
<line x1="449.4" y1="60" x2="449.4" y2="198" stroke="#f4f4f4"/>
<text x="449.4" y="209" text-anchor="middle" font-size="8" fill="#999">292k</text>
<line x1="486.0" y1="60" x2="486.0" y2="198" stroke="#f4f4f4"/>
<text x="486.0" y="209" text-anchor="middle" font-size="8" fill="#999">976k</text>
<rect x="506" y="60" width="210" height="138" fill="none" stroke="#e2e2e2"/>
<line x1="506" y1="142.30798306399095" x2="716" y2="142.30798306399095" stroke="#d33" stroke-dasharray="4 3"/>
<text x="502" y="201.0" text-anchor="end" font-size="9" fill="#999">0.5×</text>
<text x="502" y="145.30798306399095" text-anchor="end" font-size="9" fill="#999">1.0×</text>
<polygon points="506.0,66.2 539.4,82.4 576.0,82.4 609.4,88.9 646.0,101.5 679.4,102.1 716.0,105.5 716.0,107.7 679.4,108.8 646.0,106.9 609.4,94.1 576.0,82.8 539.4,82.9 506.0,67.1" fill="#d62728" opacity="0.11"/>
<polyline points="506.0,66.4 539.4,82.6 576.0,82.6 609.4,92.1 646.0,101.8 679.4,102.8 716.0,106.4" fill="none" stroke="#d62728" stroke-width="1.6"/>
<circle cx="506.0" cy="66.4" r="2" fill="#d62728"/>
<circle cx="539.4" cy="82.6" r="2" fill="#d62728"/>
<circle cx="576.0" cy="82.6" r="2" fill="#d62728"/>
<circle cx="609.4" cy="92.1" r="2" fill="#d62728"/>
<circle cx="646.0" cy="101.8" r="2" fill="#d62728"/>
<circle cx="679.4" cy="102.8" r="2" fill="#d62728"/>
<circle cx="716.0" cy="106.4" r="2" fill="#d62728"/>
<polygon points="506.0,91.3 539.4,96.5 576.0,123.0 609.4,122.4 646.0,139.6 679.4,139.7 716.0,133.3 716.0,169.3 679.4,143.4 646.0,142.0 609.4,122.7 576.0,123.3 539.4,98.9 506.0,92.9" fill="#2ca02c" opacity="0.11"/>
<polyline points="506.0,92.1 539.4,98.1 576.0,123.2 609.4,122.5 646.0,140.7 679.4,142.0 716.0,144.0" fill="none" stroke="#2ca02c" stroke-width="1.6"/>
<circle cx="506.0" cy="92.1" r="2" fill="#2ca02c"/>
<circle cx="539.4" cy="98.1" r="2" fill="#2ca02c"/>
<circle cx="576.0" cy="123.2" r="2" fill="#2ca02c"/>
<circle cx="609.4" cy="122.5" r="2" fill="#2ca02c"/>
<circle cx="646.0" cy="140.7" r="2" fill="#2ca02c"/>
<circle cx="679.4" cy="142.0" r="2" fill="#2ca02c"/>
<circle cx="716.0" cy="144.0" r="2" fill="#2ca02c"/>
<polygon points="506.0,134.0 539.4,134.9 576.0,134.9 609.4,134.5 646.0,144.1 679.4,145.5 716.0,142.5 716.0,148.0 679.4,147.2 646.0,146.7 609.4,135.0 576.0,135.0 539.4,135.1 506.0,134.4" fill="#1f77b4" opacity="0.11"/>
<polyline points="506.0,134.1 539.4,135.0 576.0,134.9 609.4,134.7 646.0,145.3 679.4,145.8 716.0,144.0" fill="none" stroke="#1f77b4" stroke-width="1.6"/>
<circle cx="506.0" cy="134.1" r="2" fill="#1f77b4"/>
<circle cx="539.4" cy="135.0" r="2" fill="#1f77b4"/>
<circle cx="576.0" cy="134.9" r="2" fill="#1f77b4"/>
<circle cx="609.4" cy="134.7" r="2" fill="#1f77b4"/>
<circle cx="646.0" cy="145.3" r="2" fill="#1f77b4"/>
<circle cx="679.4" cy="145.8" r="2" fill="#1f77b4"/>
<circle cx="716.0" cy="144.0" r="2" fill="#1f77b4"/>
<text x="611.0" y="55" text-anchor="middle" font-size="12" font-weight="bold">zscal</text>
<line x1="506.0" y1="60" x2="506.0" y2="198" stroke="#f4f4f4"/>
<text x="506.0" y="209" text-anchor="middle" font-size="8" fill="#999">1000</text>
<line x1="539.4" y1="60" x2="539.4" y2="198" stroke="#f4f4f4"/>
<text x="539.4" y="209" text-anchor="middle" font-size="8" fill="#999">2k</text>
<line x1="576.0" y1="60" x2="576.0" y2="198" stroke="#f4f4f4"/>
<text x="576.0" y="209" text-anchor="middle" font-size="8" fill="#999">9k</text>
<line x1="609.4" y1="60" x2="609.4" y2="198" stroke="#f4f4f4"/>
<text x="609.4" y="209" text-anchor="middle" font-size="8" fill="#999">29k</text>
<line x1="646.0" y1="60" x2="646.0" y2="198" stroke="#f4f4f4"/>
<text x="646.0" y="209" text-anchor="middle" font-size="8" fill="#999">97k</text>
<line x1="679.4" y1="60" x2="679.4" y2="198" stroke="#f4f4f4"/>
<text x="679.4" y="209" text-anchor="middle" font-size="8" fill="#999">292k</text>
<line x1="716.0" y1="60" x2="716.0" y2="198" stroke="#f4f4f4"/>
<text x="716.0" y="209" text-anchor="middle" font-size="8" fill="#999">976k</text>
<rect x="736" y="60" width="210" height="138" fill="none" stroke="#e2e2e2"/>
<line x1="736" y1="157.79167701085314" x2="946" y2="157.79167701085314" stroke="#d33" stroke-dasharray="4 3"/>
<text x="732" y="201.0" text-anchor="end" font-size="9" fill="#999">0.5×</text>
<text x="732" y="160.79167701085314" text-anchor="end" font-size="9" fill="#999">1.0×</text>
<polygon points="736.0,96.5 769.4,101.7 806.0,103.7 839.4,108.3 876.0,117.0 909.4,117.8 946.0,120.8 946.0,122.9 909.4,126.2 876.0,121.8 839.4,111.6 806.0,103.8 769.4,101.8 736.0,96.6" fill="#d62728" opacity="0.11"/>
<polyline points="736.0,96.5 769.4,101.7 806.0,103.8 839.4,109.9 876.0,117.6 909.4,118.7 946.0,121.8" fill="none" stroke="#d62728" stroke-width="1.6"/>
<circle cx="736.0" cy="96.5" r="2" fill="#d62728"/>
<circle cx="769.4" cy="101.7" r="2" fill="#d62728"/>
<circle cx="806.0" cy="103.8" r="2" fill="#d62728"/>
<circle cx="839.4" cy="109.9" r="2" fill="#d62728"/>
<circle cx="876.0" cy="117.6" r="2" fill="#d62728"/>
<circle cx="909.4" cy="118.7" r="2" fill="#d62728"/>
<circle cx="946.0" cy="121.8" r="2" fill="#d62728"/>
<polygon points="736.0,64.5 769.4,68.6 806.0,89.2 839.4,74.4 876.0,108.2 909.4,117.5 946.0,118.0 946.0,133.8 909.4,126.4 876.0,115.1 839.4,78.6 806.0,90.0 769.4,70.1 736.0,69.1" fill="#2ca02c" opacity="0.11"/>
<polyline points="736.0,66.1 769.4,69.4 806.0,89.6 839.4,76.2 876.0,111.2 909.4,125.6 946.0,130.1" fill="none" stroke="#2ca02c" stroke-width="1.6"/>
<circle cx="736.0" cy="66.1" r="2" fill="#2ca02c"/>
<circle cx="769.4" cy="69.4" r="2" fill="#2ca02c"/>
<circle cx="806.0" cy="89.6" r="2" fill="#2ca02c"/>
<circle cx="839.4" cy="76.2" r="2" fill="#2ca02c"/>
<circle cx="876.0" cy="111.2" r="2" fill="#2ca02c"/>
<circle cx="909.4" cy="125.6" r="2" fill="#2ca02c"/>
<circle cx="946.0" cy="130.1" r="2" fill="#2ca02c"/>
<polygon points="736.0,70.2 769.4,100.4 806.0,103.5 839.4,104.2 876.0,113.4 909.4,115.0 946.0,127.1 946.0,129.3 909.4,115.7 876.0,114.1 839.4,105.0 806.0,103.8 769.4,100.6 736.0,71.3" fill="#1f77b4" opacity="0.11"/>
<polyline points="736.0,70.8 769.4,100.4 806.0,103.6 839.4,104.3 876.0,113.7 909.4,115.3 946.0,128.6" fill="none" stroke="#1f77b4" stroke-width="1.6"/>
<circle cx="736.0" cy="70.8" r="2" fill="#1f77b4"/>
<circle cx="769.4" cy="100.4" r="2" fill="#1f77b4"/>
<circle cx="806.0" cy="103.6" r="2" fill="#1f77b4"/>
<circle cx="839.4" cy="104.3" r="2" fill="#1f77b4"/>
<circle cx="876.0" cy="113.7" r="2" fill="#1f77b4"/>
<circle cx="909.4" cy="115.3" r="2" fill="#1f77b4"/>
<circle cx="946.0" cy="128.6" r="2" fill="#1f77b4"/>
<text x="841.0" y="55" text-anchor="middle" font-size="12" font-weight="bold">dznrm2</text>
<line x1="736.0" y1="60" x2="736.0" y2="198" stroke="#f4f4f4"/>
<text x="736.0" y="209" text-anchor="middle" font-size="8" fill="#999">1000</text>
<line x1="769.4" y1="60" x2="769.4" y2="198" stroke="#f4f4f4"/>
<text x="769.4" y="209" text-anchor="middle" font-size="8" fill="#999">2k</text>
<line x1="806.0" y1="60" x2="806.0" y2="198" stroke="#f4f4f4"/>
<text x="806.0" y="209" text-anchor="middle" font-size="8" fill="#999">9k</text>
<line x1="839.4" y1="60" x2="839.4" y2="198" stroke="#f4f4f4"/>
<text x="839.4" y="209" text-anchor="middle" font-size="8" fill="#999">29k</text>
<line x1="876.0" y1="60" x2="876.0" y2="198" stroke="#f4f4f4"/>
<text x="876.0" y="209" text-anchor="middle" font-size="8" fill="#999">97k</text>
<line x1="909.4" y1="60" x2="909.4" y2="198" stroke="#f4f4f4"/>
<text x="909.4" y="209" text-anchor="middle" font-size="8" fill="#999">292k</text>
<line x1="946.0" y1="60" x2="946.0" y2="198" stroke="#f4f4f4"/>
<text x="946.0" y="209" text-anchor="middle" font-size="8" fill="#999">976k</text>
<rect x="46" y="232" width="210" height="138" fill="none" stroke="#e2e2e2"/>
<line x1="46" y1="345.5461803672652" x2="256" y2="345.5461803672652" stroke="#d33" stroke-dasharray="4 3"/>
<text x="42" y="373.0" text-anchor="end" font-size="9" fill="#999">0.5×</text>
<text x="42" y="348.5461803672652" text-anchor="end" font-size="9" fill="#999">1.0×</text>
<text x="42" y="235.00027328698624" text-anchor="end" font-size="9" fill="#999">24.99×</text>
<polygon points="46.0,248.5 79.4,255.8 116.0,258.1 149.4,261.1 186.0,266.2 219.4,267.0 256.0,269.7 256.0,272.7 219.4,273.0 186.0,269.4 149.4,264.1 116.0,258.2 79.4,258.6 46.0,248.7" fill="#d62728" opacity="0.11"/>
<polyline points="46.0,248.6 79.4,258.6 116.0,258.1 149.4,262.6 186.0,266.7 219.4,267.3 256.0,270.6" fill="none" stroke="#d62728" stroke-width="1.6"/>
<circle cx="46.0" cy="248.6" r="2" fill="#d62728"/>
<circle cx="79.4" cy="258.6" r="2" fill="#d62728"/>
<circle cx="116.0" cy="258.1" r="2" fill="#d62728"/>
<circle cx="149.4" cy="262.6" r="2" fill="#d62728"/>
<circle cx="186.0" cy="266.7" r="2" fill="#d62728"/>
<circle cx="219.4" cy="267.3" r="2" fill="#d62728"/>
<circle cx="256.0" cy="270.6" r="2" fill="#d62728"/>
<polygon points="46.0,235.7 79.4,234.7 116.0,245.4 149.4,238.7 186.0,255.4 219.4,259.8 256.0,264.9 256.0,276.0 219.4,268.3 186.0,256.9 149.4,240.4 116.0,245.7 79.4,235.2 46.0,236.0" fill="#2ca02c" opacity="0.11"/>
<polyline points="46.0,235.9 79.4,234.9 116.0,245.6 149.4,239.5 186.0,256.1 219.4,261.7 256.0,274.9" fill="none" stroke="#2ca02c" stroke-width="1.6"/>
<circle cx="46.0" cy="235.9" r="2" fill="#2ca02c"/>
<circle cx="79.4" cy="234.9" r="2" fill="#2ca02c"/>
<circle cx="116.0" cy="245.6" r="2" fill="#2ca02c"/>
<circle cx="149.4" cy="239.5" r="2" fill="#2ca02c"/>
<circle cx="186.0" cy="256.1" r="2" fill="#2ca02c"/>
<circle cx="219.4" cy="261.7" r="2" fill="#2ca02c"/>
<circle cx="256.0" cy="274.9" r="2" fill="#2ca02c"/>
<polygon points="46.0,240.6 79.4,257.8 116.0,258.0 149.4,257.9 186.0,263.9 219.4,264.9 256.0,272.1 256.0,274.5 219.4,265.3 186.0,264.5 149.4,258.3 116.0,258.1 79.4,257.9 46.0,241.5" fill="#1f77b4" opacity="0.11"/>
<polyline points="46.0,241.2 79.4,257.9 116.0,258.0 149.4,258.0 186.0,264.1 219.4,265.0 256.0,273.7" fill="none" stroke="#1f77b4" stroke-width="1.6"/>
<circle cx="46.0" cy="241.2" r="2" fill="#1f77b4"/>
<circle cx="79.4" cy="257.9" r="2" fill="#1f77b4"/>
<circle cx="116.0" cy="258.0" r="2" fill="#1f77b4"/>
<circle cx="149.4" cy="258.0" r="2" fill="#1f77b4"/>
<circle cx="186.0" cy="264.1" r="2" fill="#1f77b4"/>
<circle cx="219.4" cy="265.0" r="2" fill="#1f77b4"/>
<circle cx="256.0" cy="273.7" r="2" fill="#1f77b4"/>
<text x="151.0" y="227" text-anchor="middle" font-size="12" font-weight="bold">dzasum</text>
<line x1="46.0" y1="232" x2="46.0" y2="370" stroke="#f4f4f4"/>
<text x="46.0" y="381" text-anchor="middle" font-size="8" fill="#999">1000</text>
<line x1="79.4" y1="232" x2="79.4" y2="370" stroke="#f4f4f4"/>
<text x="79.4" y="381" text-anchor="middle" font-size="8" fill="#999">2k</text>
<line x1="116.0" y1="232" x2="116.0" y2="370" stroke="#f4f4f4"/>
<text x="116.0" y="381" text-anchor="middle" font-size="8" fill="#999">9k</text>
<line x1="149.4" y1="232" x2="149.4" y2="370" stroke="#f4f4f4"/>
<text x="149.4" y="381" text-anchor="middle" font-size="8" fill="#999">29k</text>
<line x1="186.0" y1="232" x2="186.0" y2="370" stroke="#f4f4f4"/>
<text x="186.0" y="381" text-anchor="middle" font-size="8" fill="#999">97k</text>
<line x1="219.4" y1="232" x2="219.4" y2="370" stroke="#f4f4f4"/>
<text x="219.4" y="381" text-anchor="middle" font-size="8" fill="#999">292k</text>
<line x1="256.0" y1="232" x2="256.0" y2="370" stroke="#f4f4f4"/>
<text x="256.0" y="381" text-anchor="middle" font-size="8" fill="#999">976k</text>
<rect x="276" y="232" width="210" height="138" fill="none" stroke="#e2e2e2"/>
<line x1="276" y1="287.7627611906553" x2="486" y2="287.7627611906553" stroke="#d33" stroke-dasharray="4 3"/>
<text x="272" y="373.0" text-anchor="end" font-size="9" fill="#999">0.5×</text>
<text x="272" y="290.7627611906553" text-anchor="end" font-size="9" fill="#999">1.0×</text>
<text x="272" y="235.0" text-anchor="end" font-size="9" fill="#999">1.6×</text>
<polygon points="276.0,253.2 309.4,282.3 346.0,283.3 379.4,286.0 416.0,287.5 449.4,286.1 486.0,285.2 486.0,288.6 449.4,290.6 416.0,290.9 379.4,287.1 346.0,286.2 309.4,282.8 276.0,254.5" fill="#d62728" opacity="0.11"/>
<polyline points="276.0,254.0 309.4,282.6 346.0,284.6 379.4,286.6 416.0,288.8 449.4,288.4 486.0,286.5" fill="none" stroke="#d62728" stroke-width="1.6"/>
<circle cx="276.0" cy="254.0" r="2" fill="#d62728"/>
<circle cx="309.4" cy="282.6" r="2" fill="#d62728"/>
<circle cx="346.0" cy="284.6" r="2" fill="#d62728"/>
<circle cx="379.4" cy="286.6" r="2" fill="#d62728"/>
<circle cx="416.0" cy="288.8" r="2" fill="#d62728"/>
<circle cx="449.4" cy="288.4" r="2" fill="#d62728"/>
<circle cx="486.0" cy="286.5" r="2" fill="#d62728"/>
<polygon points="276.0,282.7 309.4,278.6 346.0,274.9 379.4,274.1 416.0,285.8 449.4,284.7 486.0,284.8 486.0,289.4 449.4,290.6 416.0,289.3 379.4,280.7 346.0,282.7 309.4,280.4 276.0,283.3" fill="#2ca02c" opacity="0.11"/>
<polyline points="276.0,282.8 309.4,279.5 346.0,279.9 379.4,278.3 416.0,287.8 449.4,287.1 486.0,286.9" fill="none" stroke="#2ca02c" stroke-width="1.6"/>
<circle cx="276.0" cy="282.8" r="2" fill="#2ca02c"/>
<circle cx="309.4" cy="279.5" r="2" fill="#2ca02c"/>
<circle cx="346.0" cy="279.9" r="2" fill="#2ca02c"/>
<circle cx="379.4" cy="278.3" r="2" fill="#2ca02c"/>
<circle cx="416.0" cy="287.8" r="2" fill="#2ca02c"/>
<circle cx="449.4" cy="287.1" r="2" fill="#2ca02c"/>
<circle cx="486.0" cy="286.9" r="2" fill="#2ca02c"/>
<polygon points="276.0,284.6 309.4,283.9 346.0,286.3 379.4,283.9 416.0,287.1 449.4,285.5 486.0,283.8 486.0,288.2 449.4,287.7 416.0,287.8 379.4,287.3 346.0,286.6 309.4,284.2 276.0,285.6" fill="#1f77b4" opacity="0.11"/>
<polyline points="276.0,285.2 309.4,284.1 346.0,286.4 379.4,285.8 416.0,287.4 449.4,286.8 486.0,285.2" fill="none" stroke="#1f77b4" stroke-width="1.6"/>
<circle cx="276.0" cy="285.2" r="2" fill="#1f77b4"/>
<circle cx="309.4" cy="284.1" r="2" fill="#1f77b4"/>
<circle cx="346.0" cy="286.4" r="2" fill="#1f77b4"/>
<circle cx="379.4" cy="285.8" r="2" fill="#1f77b4"/>
<circle cx="416.0" cy="287.4" r="2" fill="#1f77b4"/>
<circle cx="449.4" cy="286.8" r="2" fill="#1f77b4"/>
<circle cx="486.0" cy="285.2" r="2" fill="#1f77b4"/>
<text x="381.0" y="227" text-anchor="middle" font-size="12" font-weight="bold">zdotu</text>
<line x1="276.0" y1="232" x2="276.0" y2="370" stroke="#f4f4f4"/>
<text x="276.0" y="381" text-anchor="middle" font-size="8" fill="#999">1000</text>
<line x1="309.4" y1="232" x2="309.4" y2="370" stroke="#f4f4f4"/>
<text x="309.4" y="381" text-anchor="middle" font-size="8" fill="#999">2k</text>
<line x1="346.0" y1="232" x2="346.0" y2="370" stroke="#f4f4f4"/>
<text x="346.0" y="381" text-anchor="middle" font-size="8" fill="#999">9k</text>
<line x1="379.4" y1="232" x2="379.4" y2="370" stroke="#f4f4f4"/>
<text x="379.4" y="381" text-anchor="middle" font-size="8" fill="#999">29k</text>
<line x1="416.0" y1="232" x2="416.0" y2="370" stroke="#f4f4f4"/>
<text x="416.0" y="381" text-anchor="middle" font-size="8" fill="#999">97k</text>
<line x1="449.4" y1="232" x2="449.4" y2="370" stroke="#f4f4f4"/>
<text x="449.4" y="381" text-anchor="middle" font-size="8" fill="#999">292k</text>
<line x1="486.0" y1="232" x2="486.0" y2="370" stroke="#f4f4f4"/>
<text x="486.0" y="381" text-anchor="middle" font-size="8" fill="#999">976k</text>
<rect x="506" y="232" width="210" height="138" fill="none" stroke="#e2e2e2"/>
<line x1="506" y1="338.93144984355" x2="716" y2="338.93144984355" stroke="#d33" stroke-dasharray="4 3"/>
<text x="502" y="373.0" text-anchor="end" font-size="9" fill="#999">0.5×</text>
<text x="502" y="341.93144984355" text-anchor="end" font-size="9" fill="#999">1.0×</text>
<polygon points="506.0,265.5 539.4,265.3 576.0,265.3 609.4,265.8 646.0,266.1 679.4,266.2 716.0,267.4 716.0,267.8 679.4,266.5 646.0,266.5 609.4,267.1 576.0,265.6 539.4,265.7 506.0,266.5" fill="#d62728" opacity="0.11"/>
<polyline points="506.0,266.0 539.4,265.5 576.0,265.4 609.4,266.3 646.0,266.2 679.4,266.4 716.0,267.6" fill="none" stroke="#d62728" stroke-width="1.6"/>
<circle cx="506.0" cy="266.0" r="2" fill="#d62728"/>
<circle cx="539.4" cy="265.5" r="2" fill="#d62728"/>
<circle cx="576.0" cy="265.4" r="2" fill="#d62728"/>
<circle cx="609.4" cy="266.3" r="2" fill="#d62728"/>
<circle cx="646.0" cy="266.2" r="2" fill="#d62728"/>
<circle cx="679.4" cy="266.4" r="2" fill="#d62728"/>
<circle cx="716.0" cy="267.6" r="2" fill="#d62728"/>
<polygon points="506.0,237.1 539.4,236.3 576.0,235.6 609.4,235.4 646.0,235.6 679.4,236.1 716.0,243.1 716.0,246.0 679.4,237.7 646.0,236.0 609.4,235.8 576.0,235.9 539.4,236.6 506.0,238.6" fill="#2ca02c" opacity="0.11"/>
<polyline points="506.0,237.9 539.4,236.5 576.0,235.8 609.4,235.6 646.0,235.8 679.4,236.5 716.0,244.9" fill="none" stroke="#2ca02c" stroke-width="1.6"/>
<circle cx="506.0" cy="237.9" r="2" fill="#2ca02c"/>
<circle cx="539.4" cy="236.5" r="2" fill="#2ca02c"/>
<circle cx="576.0" cy="235.8" r="2" fill="#2ca02c"/>
<circle cx="609.4" cy="235.6" r="2" fill="#2ca02c"/>
<circle cx="646.0" cy="235.8" r="2" fill="#2ca02c"/>
<circle cx="679.4" cy="236.5" r="2" fill="#2ca02c"/>
<circle cx="716.0" cy="244.9" r="2" fill="#2ca02c"/>
<polygon points="506.0,246.2 539.4,244.2 576.0,243.0 609.4,243.4 646.0,243.9 679.4,244.1 716.0,245.3 716.0,246.4 679.4,244.8 646.0,244.3 609.4,244.8 576.0,245.2 539.4,246.1 506.0,247.7" fill="#1f77b4" opacity="0.11"/>
<polyline points="506.0,246.9 539.4,245.1 576.0,244.1 609.4,244.0 646.0,244.1 679.4,244.5 716.0,245.6" fill="none" stroke="#1f77b4" stroke-width="1.6"/>
<circle cx="506.0" cy="246.9" r="2" fill="#1f77b4"/>
<circle cx="539.4" cy="245.1" r="2" fill="#1f77b4"/>
<circle cx="576.0" cy="244.1" r="2" fill="#1f77b4"/>
<circle cx="609.4" cy="244.0" r="2" fill="#1f77b4"/>
<circle cx="646.0" cy="244.1" r="2" fill="#1f77b4"/>
<circle cx="679.4" cy="244.5" r="2" fill="#1f77b4"/>
<circle cx="716.0" cy="245.6" r="2" fill="#1f77b4"/>
<text x="611.0" y="227" text-anchor="middle" font-size="12" font-weight="bold">izamax</text>
<line x1="506.0" y1="232" x2="506.0" y2="370" stroke="#f4f4f4"/>
<text x="506.0" y="381" text-anchor="middle" font-size="8" fill="#999">1000</text>
<line x1="539.4" y1="232" x2="539.4" y2="370" stroke="#f4f4f4"/>
<text x="539.4" y="381" text-anchor="middle" font-size="8" fill="#999">2k</text>
<line x1="576.0" y1="232" x2="576.0" y2="370" stroke="#f4f4f4"/>
<text x="576.0" y="381" text-anchor="middle" font-size="8" fill="#999">9k</text>
<line x1="609.4" y1="232" x2="609.4" y2="370" stroke="#f4f4f4"/>
<text x="609.4" y="381" text-anchor="middle" font-size="8" fill="#999">29k</text>
<line x1="646.0" y1="232" x2="646.0" y2="370" stroke="#f4f4f4"/>
<text x="646.0" y="381" text-anchor="middle" font-size="8" fill="#999">97k</text>
<line x1="679.4" y1="232" x2="679.4" y2="370" stroke="#f4f4f4"/>
<text x="679.4" y="381" text-anchor="middle" font-size="8" fill="#999">292k</text>
<line x1="716.0" y1="232" x2="716.0" y2="370" stroke="#f4f4f4"/>
<text x="716.0" y="381" text-anchor="middle" font-size="8" fill="#999">976k</text>
</svg>
