<svg xmlns="http://www.w3.org/2000/svg" width="900" height="440" font-family="sans-serif">
<rect width="900" height="440" fill="white"/>
<text x="450.0" y="28" text-anchor="middle" font-size="18" font-weight="bold">BLAS-1: PureBLAS / OpenBLAS (AVX-512, 1 thread, Float64)</text>
<line x1="60" y1="358.0" x2="880" y2="358.0" stroke="#eee"/>
<text x="52" y="362.0" text-anchor="end" font-size="11" fill="#666">0×</text>
<line x1="60" y1="347.9641763674918" x2="880" y2="347.9641763674918" stroke="#eee"/>
<text x="52" y="351.9641763674918" text-anchor="end" font-size="11" fill="#666">0.5×</text>
<line x1="60" y1="337.92835273498355" x2="880" y2="337.92835273498355" stroke="#eee"/>
<text x="52" y="341.92835273498355" text-anchor="end" font-size="11" fill="#666">1×</text>
<line x1="60" y1="327.89252910247535" x2="880" y2="327.89252910247535" stroke="#eee"/>
<text x="52" y="331.89252910247535" text-anchor="end" font-size="11" fill="#666">1.5×</text>
<line x1="60" y1="337.92835273498355" x2="880" y2="337.92835273498355" stroke="#888" stroke-width="1"/>
<line x1="60" y1="338.73121862558423" x2="880" y2="338.73121862558423" stroke="#d33" stroke-width="1.5" stroke-dasharray="6 4"/>
<text x="880" y="333.73121862558423" text-anchor="end" font-size="11" fill="#d33">0.96× gate</text>
<polygon points="128.5,344.3 128.6,344.1 128.7,343.9 128.9,343.8 129.2,343.6 129.5,343.4 129.8,343.2 130.2,343.0 130.5,342.8 130.7,342.6 131.0,342.4 131.1,342.2 131.2,342.0 131.4,341.8 131.5,341.6 131.7,341.4 132.0,341.2 132.4,341.0 133.0,340.8 133.7,340.6 134.7,340.4 135.9,340.2 137.4,340.0 139.2,339.8 141.4,339.6 144.2,339.4 147.8,339.3 152.5,339.1 158.2,338.9 164.6,338.7 171.3,338.5 177.4,338.3 182.2,338.1 185.0,337.9 185.7,337.7 184.4,337.5 181.5,337.3 177.6,337.1 173.4,336.9 169.3,336.7 165.5,336.5 162.1,336.3 159.0,336.1 156.1,335.9 153.3,335.7 150.5,335.5 147.8,335.3 145.1,335.1 142.5,334.9 140.2,334.7 138.1,334.6 136.5,334.4 135.2,334.2 134.3,334.0 133.7,333.8 133.2,333.6 132.8,333.4 132.4,333.2 132.0,333.0 131.6,332.8 131.2,332.6 130.8,332.4 130.4,332.2 130.1,332.0 129.8,331.8 129.5,331.6 129.3,331.4 129.0,331.2 128.8,331.0 128.7,330.8 128.5,330.6 128.4,330.4 128.2,330.4 128.1,330.6 128.0,330.8 127.8,331.0 127.6,331.2 127.4,331.4 127.1,331.6 126.8,331.8 126.5,332.0 126.2,332.2 125.9,332.4 125.5,332.6 125.1,332.8 124.7,333.0 124.3,333.2 123.9,333.4 123.5,333.6 123.0,333.8 122.3,334.0 121.4,334.2 120.2,334.4 118.5,334.6 116.5,334.7 114.1,334.9 111.6,335.1 108.9,335.3 106.1,335.5 103.4,335.7 100.6,335.9 97.7,336.1 94.6,336.3 91.2,336.5 87.4,336.7 83.3,336.9 79.1,337.1 75.2,337.3 72.3,337.5 70.9,337.7 71.6,337.9 74.5,338.1 79.3,338.3 85.4,338.5 92.1,338.7 98.5,338.9 104.2,339.1 108.8,339.3 112.5,339.4 115.3,339.6 117.5,339.8 119.3,340.0 120.8,340.2 122.0,340.4 122.9,340.6 123.7,340.8 124.2,341.0 124.6,341.2 124.9,341.4 125.1,341.6 125.3,341.8 125.4,342.0 125.6,342.2 125.7,342.4 125.9,342.6 126.2,342.8 126.5,343.0 126.9,343.2 127.2,343.4 127.5,343.6 127.8,343.8 128.0,343.9 128.1,344.1 128.2,344.3" fill="#2a8" opacity="0.5" stroke="#2a8" stroke-width="1"/>
<line x1="71.2" y1="337.6064614544662" x2="185.4" y2="337.6064614544662" stroke="#114" stroke-width="2"/>
<circle cx="128.33333333333331" cy="338.0140321981031" r="2.4" fill="#114"/>
<text x="128.33333333333331" y="325.82125041779165" text-anchor="middle" font-size="11">1.02</text>
<text x="128.33333333333331" y="376" text-anchor="middle" font-size="12">axpy</text>
<polygon points="265.1,346.4 265.2,346.2 265.3,345.9 265.5,345.6 265.7,345.4 266.0,345.1 266.3,344.9 266.6,344.6 266.9,344.3 267.1,344.1 267.4,343.8 267.6,343.6 267.9,343.3 268.2,343.0 268.6,342.8 269.1,342.5 269.5,342.3 269.8,342.0 270.1,341.7 270.4,341.5 270.7,341.2 271.3,340.9 272.3,340.7 273.9,340.4 276.3,340.2 279.7,339.9 284.1,339.6 289.8,339.4 296.5,339.1 303.8,338.9 311.1,338.6 317.2,338.3 321.2,338.1 322.4,337.8 320.5,337.6 315.7,337.3 309.1,337.0 301.5,336.8 294.1,336.5 287.5,336.3 282.2,336.0 278.2,335.7 275.6,335.5 274.0,335.2 273.1,335.0 272.7,334.7 272.5,334.4 272.3,334.2 271.9,333.9 271.4,333.7 270.7,333.4 270.0,333.1 269.2,332.9 268.6,332.6 267.9,332.4 267.4,332.1 266.9,331.8 266.6,331.6 266.4,331.3 266.3,331.0 266.3,330.8 266.3,330.5 266.3,330.3 266.3,330.0 266.2,329.7 266.0,329.5 265.8,329.2 265.6,329.0 265.4,328.7 265.3,328.4 265.1,328.2 265.1,327.9 264.9,327.9 264.9,328.2 264.7,328.4 264.6,328.7 264.4,329.0 264.2,329.2 264.0,329.5 263.8,329.7 263.7,330.0 263.7,330.3 263.7,330.5 263.7,330.8 263.7,331.0 263.6,331.3 263.4,331.6 263.1,331.8 262.6,332.1 262.1,332.4 261.4,332.6 260.8,332.9 260.0,333.1 259.3,333.4 258.6,333.7 258.1,333.9 257.7,334.2 257.5,334.4 257.3,334.7 256.9,335.0 256.0,335.2 254.4,335.5 251.8,335.7 247.8,336.0 242.5,336.3 235.9,336.5 228.5,336.8 220.9,337.0 214.3,337.3 209.5,337.6 207.6,337.8 208.8,338.1 212.8,338.3 218.9,338.6 226.2,338.9 233.5,339.1 240.2,339.4 245.9,339.6 250.3,339.9 253.7,340.2 256.1,340.4 257.7,340.7 258.7,340.9 259.3,341.2 259.6,341.5 259.9,341.7 260.2,342.0 260.5,342.3 260.9,342.5 261.4,342.8 261.8,343.0 262.1,343.3 262.4,343.6 262.6,343.8 262.9,344.1 263.1,344.3 263.4,344.6 263.7,344.9 264.0,345.1 264.3,345.4 264.5,345.6 264.7,345.9 264.8,346.2 264.9,346.4" fill="#2a8" opacity="0.5" stroke="#2a8" stroke-width="1"/>
<line x1="207.6" y1="337.8285007043805" x2="322.4" y2="337.8285007043805" stroke="#114" stroke-width="2"/>
<circle cx="265.0" cy="338.255740704447" r="2.4" fill="#114"/>
<text x="265.0" y="323.74393291528133" text-anchor="middle" font-size="11">1.00</text>
<text x="265.0" y="376" text-anchor="middle" font-size="12">dot</text>
<polygon points="406.2,320.8 408.2,316.9 410.8,313.1 414.0,309.3 417.9,305.5 422.3,301.7 427.2,297.9 432.4,294.1 437.6,290.3 442.7,286.4 447.4,282.6 451.5,278.8 454.9,275.0 457.3,271.2 458.7,267.4 459.1,263.6 458.4,259.7 456.9,255.9 454.5,252.1 451.5,248.3 448.1,244.5 444.5,240.7 440.9,236.9 437.5,233.0 434.3,229.2 431.5,225.4 429.1,221.6 427.1,217.8 425.4,214.0 424.0,210.2 422.7,206.4 421.6,202.5 420.4,198.7 419.3,194.9 418.1,191.1 416.8,187.3 415.5,183.5 414.3,179.7 413.0,175.8 411.9,172.0 410.8,168.2 409.8,164.4 409.0,160.6 408.2,156.8 407.4,153.0 406.8,149.2 406.3,145.3 405.8,141.5 405.5,137.7 405.3,133.9 405.2,130.1 405.2,126.3 405.2,122.5 405.3,118.6 405.5,114.8 405.6,111.0 405.6,107.2 405.7,103.4 405.7,99.6 405.6,95.8 405.5,91.9 405.3,88.1 405.1,84.3 404.8,80.5 404.6,76.7 404.3,72.9 404.0,69.1 403.7,65.3 403.4,61.4 403.1,57.6 402.8,53.8 402.6,50.0 400.7,50.0 400.5,53.8 400.2,57.6 399.9,61.4 399.6,65.3 399.3,69.1 399.0,72.9 398.8,76.7 398.5,80.5 398.3,84.3 398.1,88.1 397.9,91.9 397.8,95.8 397.7,99.6 397.7,103.4 397.7,107.2 397.8,111.0 397.9,114.8 398.0,118.6 398.1,122.5 398.2,126.3 398.2,130.1 398.0,133.9 397.8,137.7 397.5,141.5 397.1,145.3 396.5,149.2 395.9,153.0 395.2,156.8 394.4,160.6 393.5,164.4 392.5,168.2 391.4,172.0 390.3,175.8 389.1,179.7 387.8,183.5 386.5,187.3 385.3,191.1 384.1,194.9 382.9,198.7 381.8,202.5 380.6,206.4 379.4,210.2 377.9,214.0 376.2,217.8 374.2,221.6 371.8,225.4 369.0,229.2 365.9,233.0 362.4,236.9 358.8,240.7 355.2,244.5 351.8,248.3 348.8,252.1 346.5,255.9 344.9,259.7 344.3,263.6 344.6,267.4 346.1,271.2 348.5,275.0 351.8,278.8 355.9,282.6 360.6,286.4 365.7,290.3 371.0,294.1 376.1,297.9 381.0,301.7 385.5,305.5 389.3,309.3 392.6,313.1 395.2,316.9 397.2,320.8" fill="#2a8" opacity="0.5" stroke="#2a8" stroke-width="1"/>
<line x1="347.1" y1="254.7268250621403" x2="456.2" y2="254.7268250621403" stroke="#114" stroke-width="2"/>
<circle cx="401.66666666666663" cy="280.76723006598854" r="2.4" fill="#114"/>
<text x="401.66666666666663" y="61.43396226415098" text-anchor="middle" font-size="11">5.15</text>
<text x="401.66666666666663" y="376" text-anchor="middle" font-size="12">nrm2</text>
<polygon points="538.4,347.0 538.5,346.6 538.7,346.3 538.9,345.9 539.2,345.6 539.6,345.2 540.0,344.9 540.4,344.5 540.6,344.2 540.6,343.8 540.5,343.4 540.3,343.1 540.0,342.7 539.9,342.4 540.2,342.0 541.1,341.7 542.7,341.3 545.2,341.0 548.8,340.6 553.5,340.3 559.4,339.9 566.4,339.6 574.1,339.2 581.9,338.9 588.8,338.5 593.6,338.1 595.7,337.8 595.0,337.4 592.2,337.1 588.1,336.7 583.9,336.4 580.2,336.0 577.1,335.7 574.2,335.3 571.2,335.0 567.8,334.6 563.9,334.3 560.0,333.9 556.3,333.6 553.1,333.2 550.7,332.8 548.8,332.5 547.4,332.1 546.3,331.8 545.3,331.4 544.4,331.1 543.5,330.7 542.6,330.4 541.8,330.0 541.1,329.7 540.5,329.3 540.1,329.0 539.9,328.6 539.8,328.3 539.9,327.9 540.0,327.5 540.1,327.2 540.0,326.8 539.9,326.5 539.7,326.1 539.5,325.8 539.4,325.4 539.3,325.1 539.3,324.7 539.2,324.4 539.2,324.0 539.0,323.7 538.9,323.3 538.7,323.0 538.6,322.6 538.5,322.2 538.4,321.9 538.3,321.9 538.2,322.2 538.1,322.6 538.0,323.0 537.8,323.3 537.6,323.7 537.5,324.0 537.4,324.4 537.4,324.7 537.4,325.1 537.3,325.4 537.2,325.8 537.0,326.1 536.8,326.5 536.7,326.8 536.6,327.2 536.7,327.5 536.8,327.9 536.8,328.3 536.8,328.6 536.6,329.0 536.2,329.3 535.6,329.7 534.8,330.0 534.0,330.4 533.2,330.7 532.3,331.1 531.4,331.4 530.4,331.8 529.3,332.1 527.9,332.5 526.0,332.8 523.5,333.2 520.4,333.6 516.7,333.9 512.7,334.3 508.9,334.6 505.4,335.0 502.4,335.3 499.6,335.7 496.4,336.0 492.7,336.4 488.5,336.7 484.5,337.1 481.6,337.4 480.9,337.8 483.1,338.1 487.9,338.5 494.7,338.9 502.5,339.2 510.3,339.6 517.3,339.9 523.2,340.3 527.9,340.6 531.5,341.0 534.0,341.3 535.6,341.7 536.4,342.0 536.7,342.4 536.7,342.7 536.4,343.1 536.2,343.4 536.0,343.8 536.1,344.2 536.3,344.5 536.6,344.9 537.0,345.2 537.4,345.6 537.7,345.9 538.0,346.3 538.1,346.6 538.2,347.0" fill="#2a8" opacity="0.5" stroke="#2a8" stroke-width="1"/>
<line x1="481.7" y1="337.4243682415799" x2="595.0" y2="337.4243682415799" stroke="#114" stroke-width="2"/>
<circle cx="538.3333333333333" cy="338.1857405190186" r="2.4" fill="#114"/>
<text x="538.3333333333333" y="318.3553367080579" text-anchor="middle" font-size="11">1.03</text>
<text x="538.3333333333333" y="376" text-anchor="middle" font-size="12">asum</text>
<polygon points="675.1,345.7 675.2,345.3 675.3,345.0 675.4,344.7 675.6,344.4 675.8,344.1 675.9,343.8 675.9,343.5 675.9,343.2 675.8,342.8 675.8,342.5 675.8,342.2 675.9,341.9 676.1,341.6 676.6,341.3 677.2,341.0 678.2,340.6 679.6,340.3 681.6,340.0 684.6,339.7 688.6,339.4 693.6,339.1 699.4,338.8 705.7,338.5 711.8,338.1 717.5,337.8 722.3,337.5 726.2,337.2 729.3,336.9 731.4,336.6 732.4,336.3 732.3,335.9 730.9,335.6 728.5,335.3 725.3,335.0 721.6,334.7 717.7,334.4 713.8,334.1 709.8,333.8 705.6,333.4 701.1,333.1 696.6,332.8 692.1,332.5 688.1,332.2 684.6,331.9 681.9,331.6 680.0,331.3 678.6,330.9 677.8,330.6 677.4,330.3 677.3,330.0 677.3,329.7 677.4,329.4 677.4,329.1 677.4,328.7 677.4,328.4 677.3,328.1 677.3,327.8 677.3,327.5 677.5,327.2 677.7,326.9 677.8,326.6 677.9,326.2 677.9,325.9 677.7,325.6 677.3,325.3 676.8,325.0 676.4,324.7 675.9,324.4 675.6,324.0 675.3,323.7 675.2,323.4 674.8,323.4 674.7,323.7 674.4,324.0 674.1,324.4 673.6,324.7 673.2,325.0 672.7,325.3 672.3,325.6 672.1,325.9 672.1,326.2 672.2,326.6 672.3,326.9 672.5,327.2 672.7,327.5 672.7,327.8 672.7,328.1 672.6,328.4 672.6,328.7 672.6,329.1 672.6,329.4 672.7,329.7 672.7,330.0 672.6,330.3 672.2,330.6 671.4,330.9 670.0,331.3 668.1,331.6 665.4,331.9 661.9,332.2 657.9,332.5 653.4,332.8 648.9,333.1 644.4,333.4 640.2,333.8 636.2,334.1 632.3,334.4 628.4,334.7 624.7,335.0 621.5,335.3 619.1,335.6 617.7,335.9 617.6,336.3 618.6,336.6 620.7,336.9 623.8,337.2 627.7,337.5 632.5,337.8 638.2,338.1 644.3,338.5 650.6,338.8 656.4,339.1 661.4,339.4 665.4,339.7 668.4,340.0 670.4,340.3 671.8,340.6 672.8,341.0 673.4,341.3 673.9,341.6 674.1,341.9 674.2,342.2 674.2,342.5 674.2,342.8 674.1,343.2 674.1,343.5 674.1,343.8 674.2,344.1 674.4,344.4 674.6,344.7 674.7,345.0 674.8,345.3 674.9,345.7" fill="#2a8" opacity="0.5" stroke="#2a8" stroke-width="1"/>
<line x1="617.9" y1="335.88238880878805" x2="732.1" y2="335.88238880878805" stroke="#114" stroke-width="2"/>
<circle cx="675.0" cy="337.5536684284077" r="2.4" fill="#114"/>
<text x="675.0" y="319.6069193937946" text-anchor="middle" font-size="11">1.10</text>
<text x="675.0" y="376" text-anchor="middle" font-size="12">scal</text>
<polygon points="812.3,350.4 812.8,349.7 813.5,349.0 814.5,348.3 815.9,347.6 817.7,346.9 820.0,346.2 822.7,345.5 825.8,344.8 829.3,344.1 833.1,343.4 837.0,342.7 841.1,342.1 845.2,341.4 849.2,340.7 853.2,340.0 857.1,339.3 860.6,338.6 863.8,337.9 866.3,337.2 868.0,336.5 869.0,335.8 869.1,335.1 868.4,334.4 867.0,333.7 865.2,333.0 863.2,332.3 861.2,331.6 859.4,330.9 857.8,330.2 856.5,329.5 855.4,328.8 854.3,328.2 853.1,327.5 851.6,326.8 849.9,326.1 848.0,325.4 845.8,324.7 843.4,324.0 840.8,323.3 837.9,322.6 834.8,321.9 831.5,321.2 828.1,320.5 824.9,319.8 821.9,319.1 819.4,318.4 817.4,317.7 815.8,317.0 814.7,316.3 813.9,315.6 813.3,314.9 812.8,314.3 812.5,313.6 812.3,312.9 812.1,312.2 812.0,311.5 812.0,310.8 812.1,310.1 812.2,309.4 812.3,308.7 812.5,308.0 812.6,307.3 812.8,306.6 812.8,305.9 812.8,305.2 812.7,304.5 812.5,303.8 812.3,303.1 812.2,302.4 812.0,301.7 811.9,301.0 811.4,301.0 811.3,301.7 811.2,302.4 811.0,303.1 810.8,303.8 810.7,304.5 810.6,305.2 810.5,305.9 810.6,306.6 810.7,307.3 810.8,308.0 811.0,308.7 811.2,309.4 811.3,310.1 811.3,310.8 811.3,311.5 811.2,312.2 811.1,312.9 810.8,313.6 810.5,314.3 810.1,314.9 809.5,315.6 808.7,316.3 807.5,317.0 806.0,317.7 803.9,318.4 801.4,319.1 798.5,319.8 795.2,320.5 791.8,321.2 788.5,321.9 785.4,322.6 782.5,323.3 779.9,324.0 777.5,324.7 775.4,325.4 773.4,326.1 771.7,326.8 770.3,327.5 769.0,328.2 767.9,328.8 766.8,329.5 765.5,330.2 764.0,330.9 762.1,331.6 760.1,332.3 758.1,333.0 756.3,333.7 755.0,334.4 754.3,335.1 754.4,335.8 755.3,336.5 757.1,337.2 759.6,337.9 762.7,338.6 766.3,339.3 770.1,340.0 774.1,340.7 778.2,341.4 782.3,342.1 786.3,342.7 790.2,343.4 794.0,344.1 797.5,344.8 800.6,345.5 803.4,346.2 805.6,346.9 807.4,347.6 808.8,348.3 809.8,349.0 810.5,349.7 811.0,350.4" fill="#2a8" opacity="0.5" stroke="#2a8" stroke-width="1"/>
<line x1="756.9" y1="333.45700604259196" x2="866.4" y2="333.45700604259196" stroke="#114" stroke-width="2"/>
<circle cx="811.6666666666666" cy="337.89902918589183" r="2.4" fill="#114"/>
<text x="811.6666666666666" y="299.85490510386893" text-anchor="middle" font-size="11">1.22</text>
<text x="811.6666666666666" y="376" text-anchor="middle" font-size="12">iamax</text>
<text x="450.0" y="428" text-anchor="middle" font-size="11" fill="#666">violin = ratio distribution over sizes · line = median · dark dot = worst size · green = every size ≥ gate</text>
</svg>
