<svg xmlns="http://www.w3.org/2000/svg" width="900" height="460" font-family="sans-serif">
<rect width="900" height="460" fill="white"/>
<text x="450.0" y="28" text-anchor="middle" font-size="18" font-weight="bold">LAPACK: PureBLAS / OpenBLAS (AVX-512 native (Zen5), 1 thread, Float64)</text>
<line x1="62" y1="400.0" x2="768" y2="400.0" stroke="#eee"/>
<text x="54" y="404.0" text-anchor="end" font-size="11" fill="#666">0.5×</text>
<line x1="62" y1="337.72751865679555" x2="768" y2="337.72751865679555" stroke="#eee"/>
<text x="54" y="341.72751865679555" text-anchor="end" font-size="11" fill="#666">0.7×</text>
<line x1="62" y1="271.7160283328033" x2="768" y2="271.7160283328033" stroke="#eee"/>
<text x="54" y="275.7160283328033" text-anchor="end" font-size="11" fill="#666">1.0×</text>
<line x1="62" y1="196.67471546391803" x2="768" y2="196.67471546391803" stroke="#eee"/>
<text x="54" y="200.67471546391803" text-anchor="end" font-size="11" fill="#666">1.5×</text>
<line x1="62" y1="143.43205666560667" x2="768" y2="143.43205666560667" stroke="#eee"/>
<text x="54" y="147.43205666560667" text-anchor="end" font-size="11" fill="#666">2.0×</text>
<line x1="62" y1="68.39074379672135" x2="768" y2="68.39074379672135" stroke="#eee"/>
<text x="54" y="72.39074379672135" text-anchor="end" font-size="11" fill="#666">3.0×</text>
<line x1="62.0" y1="50" x2="62.0" y2="400" stroke="#f4f4f4"/>
<text x="62.0" y="418" text-anchor="middle" font-size="11" fill="#444">8</text>
<line x1="238.5" y1="50" x2="238.5" y2="400" stroke="#f4f4f4"/>
<text x="238.5" y="418" text-anchor="middle" font-size="11" fill="#444">32</text>
<line x1="415.0" y1="50" x2="415.0" y2="400" stroke="#f4f4f4"/>
<text x="415.0" y="418" text-anchor="middle" font-size="11" fill="#444">128</text>
<line x1="503.25" y1="50" x2="503.25" y2="400" stroke="#f4f4f4"/>
<text x="503.25" y="418" text-anchor="middle" font-size="11" fill="#444">256</text>
<line x1="591.5" y1="50" x2="591.5" y2="400" stroke="#f4f4f4"/>
<text x="591.5" y="418" text-anchor="middle" font-size="11" fill="#444">512</text>
<line x1="679.75" y1="50" x2="679.75" y2="400" stroke="#f4f4f4"/>
<text x="679.75" y="418" text-anchor="middle" font-size="11" fill="#444">1024</text>
<line x1="768.0" y1="50" x2="768.0" y2="400" stroke="#f4f4f4"/>
<text x="768.0" y="418" text-anchor="middle" font-size="11" fill="#444">2048</text>
<line x1="62" y1="271.7160283328033" x2="768" y2="271.7160283328033" stroke="#888"/>
<line x1="62" y1="279.271144670728" x2="768" y2="279.271144670728" stroke="#d33" stroke-width="1.5" stroke-dasharray="6 4"/>
<text x="66" y="274.271144670728" font-size="11" fill="#d33">0.96× gate</text>
<polygon points="62.0,190.8 238.5,210.5 415.0,194.3 503.2,192.9 591.5,199.0 679.8,214.4 768.0,234.3 768.0,235.3 679.8,215.2 591.5,201.8 503.2,195.6 415.0,202.5 238.5,219.7 62.0,199.3" fill="#1f77b4" opacity="0.14" stroke="none"/>
<polyline points="62.0,194.7 238.5,212.5 415.0,196.7 503.2,194.6 591.5,199.8 679.8,215.0 768.0,234.9" fill="none" stroke="#1f77b4" stroke-width="2"/>
<circle cx="62.0" cy="194.7" r="3" fill="#1f77b4"/>
<circle cx="238.5" cy="212.5" r="3" fill="#1f77b4"/>
<circle cx="415.0" cy="196.7" r="3" fill="#1f77b4"/>
<circle cx="503.2" cy="194.6" r="3" fill="#1f77b4"/>
<circle cx="591.5" cy="199.8" r="3" fill="#1f77b4"/>
<circle cx="679.8" cy="215.0" r="3" fill="#1f77b4"/>
<circle cx="768.0" cy="234.9" r="3" fill="#1f77b4"/>
<line x1="782" y1="56" x2="802" y2="56" stroke="#1f77b4" stroke-width="3"/>
<text x="806" y="60" font-size="12">potrf</text>
<polygon points="62.0,71.9 238.5,197.0 415.0,217.2 503.2,219.8 591.5,213.7 679.8,243.7 768.0,277.4 768.0,278.4 679.8,247.1 591.5,214.0 503.2,220.9 415.0,217.9 238.5,198.5 62.0,79.6" fill="#d62728" opacity="0.14" stroke="none"/>
<polyline points="62.0,75.9 238.5,198.2 415.0,217.5 503.2,220.6 591.5,213.8 679.8,244.8 768.0,277.7" fill="none" stroke="#d62728" stroke-width="2"/>
<circle cx="62.0" cy="75.9" r="3" fill="#d62728"/>
<circle cx="238.5" cy="198.2" r="3" fill="#d62728"/>
<circle cx="415.0" cy="217.5" r="3" fill="#d62728"/>
<circle cx="503.2" cy="220.6" r="3" fill="#d62728"/>
<circle cx="591.5" cy="213.8" r="3" fill="#d62728"/>
<circle cx="679.8" cy="244.8" r="3" fill="#d62728"/>
<circle cx="768.0" cy="277.7" r="3" fill="#d62728"/>
<line x1="782" y1="74" x2="802" y2="74" stroke="#d62728" stroke-width="3"/>
<text x="806" y="78" font-size="12">geqrf</text>
<polygon points="62.0,152.9 238.5,176.9 415.0,219.8 503.2,235.7 591.5,243.7 679.8,239.6 768.0,246.9 768.0,247.3 679.8,241.3 591.5,244.2 503.2,238.2 415.0,220.9 238.5,180.1 62.0,154.4" fill="#2ca02c" opacity="0.14" stroke="none"/>
<polyline points="62.0,153.7 238.5,179.4 415.0,220.7 503.2,236.9 591.5,244.2 679.8,240.3 768.0,247.0" fill="none" stroke="#2ca02c" stroke-width="2"/>
<circle cx="62.0" cy="153.7" r="3" fill="#2ca02c"/>
<circle cx="238.5" cy="179.4" r="3" fill="#2ca02c"/>
<circle cx="415.0" cy="220.7" r="3" fill="#2ca02c"/>
<circle cx="503.2" cy="236.9" r="3" fill="#2ca02c"/>
<circle cx="591.5" cy="244.2" r="3" fill="#2ca02c"/>
<circle cx="679.8" cy="240.3" r="3" fill="#2ca02c"/>
<circle cx="768.0" cy="247.0" r="3" fill="#2ca02c"/>
<line x1="782" y1="92" x2="802" y2="92" stroke="#2ca02c" stroke-width="3"/>
<text x="806" y="96" font-size="12">getrf</text>
<polygon points="62.0,185.3 238.5,225.4 415.0,270.1 503.2,229.5 591.5,233.0 679.8,240.5 768.0,259.5 768.0,264.7 679.8,247.4 591.5,237.8 503.2,230.0 415.0,271.7 238.5,226.0 62.0,189.0" fill="#9467bd" opacity="0.14" stroke="none"/>
<polyline points="62.0,186.6 238.5,225.7 415.0,271.2 503.2,229.8 591.5,234.3 679.8,244.5 768.0,262.4" fill="none" stroke="#9467bd" stroke-width="2"/>
<circle cx="62.0" cy="186.6" r="3" fill="#9467bd"/>
<circle cx="238.5" cy="225.7" r="3" fill="#9467bd"/>
<circle cx="415.0" cy="271.2" r="3" fill="#9467bd"/>
<circle cx="503.2" cy="229.8" r="3" fill="#9467bd"/>
<circle cx="591.5" cy="234.3" r="3" fill="#9467bd"/>
<circle cx="679.8" cy="244.5" r="3" fill="#9467bd"/>
<circle cx="768.0" cy="262.4" r="3" fill="#9467bd"/>
<line x1="782" y1="110" x2="802" y2="110" stroke="#9467bd" stroke-width="3"/>
<text x="806" y="114" font-size="12">gesvd</text>
<text x="415.0" y="450" text-anchor="middle" font-size="11" fill="#666">matrix size n (log) · y = median ratio (log) · dashed = the 0.96× gate</text>
</svg>
