<svg xmlns="http://www.w3.org/2000/svg" width="900" height="460" font-family="sans-serif">
<rect width="900" height="460" fill="white"/>
<text x="450.0" y="28" text-anchor="middle" font-size="18" font-weight="bold">BLAS-3: PureBLAS / OpenBLAS (AVX2, 1 thread, Float64)</text>
<line x1="62" y1="400.0" x2="768" y2="400.0" stroke="#eee"/>
<text x="54" y="404.0" text-anchor="end" font-size="11" fill="#666">0.5×</text>
<line x1="62" y1="316.9601280760532" x2="768" y2="316.9601280760532" stroke="#eee"/>
<text x="54" y="320.9601280760532" text-anchor="end" font-size="11" fill="#666">0.7×</text>
<line x1="62" y1="228.93431661364627" x2="768" y2="228.93431661364627" stroke="#eee"/>
<text x="54" y="232.93431661364627" text-anchor="end" font-size="11" fill="#666">1.0×</text>
<line x1="62" y1="128.8673066723913" x2="768" y2="128.8673066723913" stroke="#eee"/>
<text x="54" y="132.8673066723913" text-anchor="end" font-size="11" fill="#666">1.5×</text>
<line x1="62" y1="57.868633227292555" x2="768" y2="57.868633227292555" stroke="#eee"/>
<text x="54" y="61.868633227292555" text-anchor="end" font-size="11" fill="#666">2.0×</text>
<line x1="62.0" y1="50" x2="62.0" y2="400" stroke="#f4f4f4"/>
<text x="62.0" y="418" text-anchor="middle" font-size="11" fill="#444">8</text>
<line x1="238.5" y1="50" x2="238.5" y2="400" stroke="#f4f4f4"/>
<text x="238.5" y="418" text-anchor="middle" font-size="11" fill="#444">32</text>
<line x1="415.0" y1="50" x2="415.0" y2="400" stroke="#f4f4f4"/>
<text x="415.0" y="418" text-anchor="middle" font-size="11" fill="#444">128</text>
<line x1="503.25" y1="50" x2="503.25" y2="400" stroke="#f4f4f4"/>
<text x="503.25" y="418" text-anchor="middle" font-size="11" fill="#444">256</text>
<line x1="591.5" y1="50" x2="591.5" y2="400" stroke="#f4f4f4"/>
<text x="591.5" y="418" text-anchor="middle" font-size="11" fill="#444">512</text>
<line x1="679.75" y1="50" x2="679.75" y2="400" stroke="#f4f4f4"/>
<text x="679.75" y="418" text-anchor="middle" font-size="11" fill="#444">1024</text>
<line x1="768.0" y1="50" x2="768.0" y2="400" stroke="#f4f4f4"/>
<text x="768.0" y="418" text-anchor="middle" font-size="11" fill="#444">2048</text>
<line x1="62" y1="228.93431661364627" x2="768" y2="228.93431661364627" stroke="#888"/>
<line x1="62" y1="239.00900577873838" x2="768" y2="239.00900577873838" stroke="#d33" stroke-width="1.5" stroke-dasharray="6 4"/>
<text x="66" y="234.00900577873838" font-size="11" fill="#d33">0.96× gate</text>
<polygon points="62.0,92.3 238.5,216.9 415.0,211.9 503.2,224.6 591.5,217.2 679.8,203.4 768.0,185.6 768.0,186.7 679.8,205.7 591.5,217.3 503.2,225.0 415.0,212.7 238.5,217.9 62.0,96.8" fill="#1f77b4" opacity="0.14" stroke="none"/>
<polyline points="62.0,94.8 238.5,217.1 415.0,212.6 503.2,224.7 591.5,217.2 679.8,205.5 768.0,186.1" fill="none" stroke="#1f77b4" stroke-width="2"/>
<circle cx="62.0" cy="94.8" r="3" fill="#1f77b4"/>
<circle cx="238.5" cy="217.1" r="3" fill="#1f77b4"/>
<circle cx="415.0" cy="212.6" r="3" fill="#1f77b4"/>
<circle cx="503.2" cy="224.7" r="3" fill="#1f77b4"/>
<circle cx="591.5" cy="217.2" r="3" fill="#1f77b4"/>
<circle cx="679.8" cy="205.5" r="3" fill="#1f77b4"/>
<circle cx="768.0" cy="186.1" r="3" fill="#1f77b4"/>
<line x1="782" y1="56" x2="802" y2="56" stroke="#1f77b4" stroke-width="3"/>
<text x="806" y="60" font-size="12">gemm</text>
<polygon points="62.0,83.1 238.5,226.7 415.0,200.2 503.2,182.8 591.5,175.9 679.8,172.0 768.0,165.5 768.0,165.7 679.8,173.1 591.5,176.1 503.2,183.0 415.0,200.8 238.5,228.7 62.0,86.5" fill="#d62728" opacity="0.14" stroke="none"/>
<polyline points="62.0,84.5 238.5,227.2 415.0,200.6 503.2,182.8 591.5,175.9 679.8,172.6 768.0,165.5" fill="none" stroke="#d62728" stroke-width="2"/>
<circle cx="62.0" cy="84.5" r="3" fill="#d62728"/>
<circle cx="238.5" cy="227.2" r="3" fill="#d62728"/>
<circle cx="415.0" cy="200.6" r="3" fill="#d62728"/>
<circle cx="503.2" cy="182.8" r="3" fill="#d62728"/>
<circle cx="591.5" cy="175.9" r="3" fill="#d62728"/>
<circle cx="679.8" cy="172.6" r="3" fill="#d62728"/>
<circle cx="768.0" cy="165.5" r="3" fill="#d62728"/>
<line x1="782" y1="74" x2="802" y2="74" stroke="#d62728" stroke-width="3"/>
<text x="806" y="78" font-size="12">zgemm</text>
<polygon points="62.0,175.9 238.5,233.3 415.0,237.2 503.2,229.8 591.5,220.7 679.8,214.2 768.0,214.4 768.0,215.2 679.8,216.5 591.5,221.8 503.2,230.9 415.0,240.6 238.5,238.5 62.0,181.4" fill="#2ca02c" opacity="0.14" stroke="none"/>
<polyline points="62.0,179.8 238.5,237.8 415.0,238.1 503.2,230.0 591.5,221.6 679.8,216.4 768.0,215.1" fill="none" stroke="#2ca02c" stroke-width="2"/>
<circle cx="62.0" cy="179.8" r="3" fill="#2ca02c"/>
<circle cx="238.5" cy="237.8" r="3" fill="#2ca02c"/>
<circle cx="415.0" cy="238.1" r="3" fill="#2ca02c"/>
<circle cx="503.2" cy="230.0" r="3" fill="#2ca02c"/>
<circle cx="591.5" cy="221.6" r="3" fill="#2ca02c"/>
<circle cx="679.8" cy="216.4" r="3" fill="#2ca02c"/>
<circle cx="768.0" cy="215.1" r="3" fill="#2ca02c"/>
<line x1="782" y1="92" x2="802" y2="92" stroke="#2ca02c" stroke-width="3"/>
<text x="806" y="96" font-size="12">symm</text>
<polygon points="62.0,121.1 238.5,169.6 415.0,220.6 503.2,219.6 591.5,215.7 679.8,217.2 768.0,218.8 768.0,219.7 679.8,217.5 591.5,216.6 503.2,221.5 415.0,222.8 238.5,179.8 62.0,122.9" fill="#9467bd" opacity="0.14" stroke="none"/>
<polyline points="62.0,122.3 238.5,177.1 415.0,221.2 503.2,220.1 591.5,216.1 679.8,217.3 768.0,219.3" fill="none" stroke="#9467bd" stroke-width="2"/>
<circle cx="62.0" cy="122.3" r="3" fill="#9467bd"/>
<circle cx="238.5" cy="177.1" r="3" fill="#9467bd"/>
<circle cx="415.0" cy="221.2" r="3" fill="#9467bd"/>
<circle cx="503.2" cy="220.1" r="3" fill="#9467bd"/>
<circle cx="591.5" cy="216.1" r="3" fill="#9467bd"/>
<circle cx="679.8" cy="217.3" r="3" fill="#9467bd"/>
<circle cx="768.0" cy="219.3" r="3" fill="#9467bd"/>
<line x1="782" y1="110" x2="802" y2="110" stroke="#9467bd" stroke-width="3"/>
<text x="806" y="114" font-size="12">syrk</text>
<polygon points="62.0,104.7 238.5,208.5 415.0,232.2 503.2,233.4 591.5,226.0 679.8,221.2 768.0,222.9 768.0,223.0 679.8,222.7 591.5,226.7 503.2,234.2 415.0,235.6 238.5,210.0 62.0,105.5" fill="#ff7f0e" opacity="0.14" stroke="none"/>
<polyline points="62.0,105.2 238.5,209.0 415.0,233.9 503.2,233.6 591.5,226.5 679.8,221.5 768.0,222.9" fill="none" stroke="#ff7f0e" stroke-width="2"/>
<circle cx="62.0" cy="105.2" r="3" fill="#ff7f0e"/>
<circle cx="238.5" cy="209.0" r="3" fill="#ff7f0e"/>
<circle cx="415.0" cy="233.9" r="3" fill="#ff7f0e"/>
<circle cx="503.2" cy="233.6" r="3" fill="#ff7f0e"/>
<circle cx="591.5" cy="226.5" r="3" fill="#ff7f0e"/>
<circle cx="679.8" cy="221.5" r="3" fill="#ff7f0e"/>
<circle cx="768.0" cy="222.9" r="3" fill="#ff7f0e"/>
<line x1="782" y1="128" x2="802" y2="128" stroke="#ff7f0e" stroke-width="3"/>
<text x="806" y="132" font-size="12">syr2k</text>
<polygon points="62.0,286.7 238.5,203.5 415.0,192.9 503.2,193.3 591.5,195.9 679.8,209.3 768.0,213.7 768.0,215.4 679.8,209.6 591.5,198.9 503.2,194.8 415.0,194.4 238.5,210.1 62.0,287.6" fill="#17becf" opacity="0.14" stroke="none"/>
<polyline points="62.0,287.1 238.5,208.2 415.0,193.6 503.2,194.0 591.5,197.4 679.8,209.4 768.0,215.3" fill="none" stroke="#17becf" stroke-width="2"/>
<circle cx="62.0" cy="287.1" r="3" fill="#17becf"/>
<circle cx="238.5" cy="208.2" r="3" fill="#17becf"/>
<circle cx="415.0" cy="193.6" r="3" fill="#17becf"/>
<circle cx="503.2" cy="194.0" r="3" fill="#17becf"/>
<circle cx="591.5" cy="197.4" r="3" fill="#17becf"/>
<circle cx="679.8" cy="209.4" r="3" fill="#17becf"/>
<circle cx="768.0" cy="215.3" r="3" fill="#17becf"/>
<line x1="782" y1="146" x2="802" y2="146" stroke="#17becf" stroke-width="3"/>
<text x="806" y="150" font-size="12">trmm</text>
<polygon points="62.0,218.5 238.5,252.2 415.0,239.2 503.2,231.8 591.5,217.7 679.8,216.3 768.0,213.2 768.0,213.9 679.8,216.8 591.5,221.5 503.2,232.2 415.0,239.5 238.5,260.8 62.0,254.3" fill="#8c564b" opacity="0.14" stroke="none"/>
<polyline points="62.0,244.6 238.5,259.3 415.0,239.4 503.2,231.9 591.5,221.1 679.8,216.6 768.0,213.8" fill="none" stroke="#8c564b" stroke-width="2"/>
<circle cx="62.0" cy="244.6" r="3" fill="#8c564b"/>
<circle cx="238.5" cy="259.3" r="3" fill="#8c564b"/>
<circle cx="415.0" cy="239.4" r="3" fill="#8c564b"/>
<circle cx="503.2" cy="231.9" r="3" fill="#8c564b"/>
<circle cx="591.5" cy="221.1" r="3" fill="#8c564b"/>
<circle cx="679.8" cy="216.6" r="3" fill="#8c564b"/>
<circle cx="768.0" cy="213.8" r="3" fill="#8c564b"/>
<line x1="782" y1="164" x2="802" y2="164" stroke="#8c564b" stroke-width="3"/>
<text x="806" y="168" font-size="12">trsm</text>
<text x="415.0" y="450" text-anchor="middle" font-size="11" fill="#666">matrix size n (log) · y = median ratio (log) · dashed = the 0.96× gate</text>
</svg>
