<svg xmlns="http://www.w3.org/2000/svg" width="900" height="440" font-family="sans-serif">
<rect width="900" height="440" fill="white"/>
<text x="450.0" y="28" text-anchor="middle" font-size="18" font-weight="bold">BLAS-2: PureBLAS / OpenBLAS (AVX2, 1 thread, Float64)</text>
<line x1="60" y1="358.0" x2="880" y2="358.0" stroke="#eee"/>
<text x="52" y="362.0" text-anchor="end" font-size="11" fill="#666">0×</text>
<line x1="60" y1="295.80453995188935" x2="880" y2="295.80453995188935" stroke="#eee"/>
<text x="52" y="299.80453995188935" text-anchor="end" font-size="11" fill="#666">0.5×</text>
<line x1="60" y1="233.60907990377868" x2="880" y2="233.60907990377868" stroke="#eee"/>
<text x="52" y="237.60907990377868" text-anchor="end" font-size="11" fill="#666">1×</text>
<line x1="60" y1="171.413619855668" x2="880" y2="171.413619855668" stroke="#eee"/>
<text x="52" y="175.413619855668" text-anchor="end" font-size="11" fill="#666">1.5×</text>
<line x1="60" y1="233.60907990377868" x2="880" y2="233.60907990377868" stroke="#888" stroke-width="1"/>
<line x1="60" y1="238.58471670762754" x2="880" y2="238.58471670762754" stroke="#d33" stroke-width="1.5" stroke-dasharray="6 4"/>
<text x="880" y="233.58471670762754" text-anchor="end" font-size="11" fill="#d33">0.96× gate</text>
<polygon points="109.1,252.3 110.3,250.9 111.8,249.6 113.7,248.2 115.8,246.8 118.3,245.5 121.0,244.1 124.0,242.8 127.1,241.4 130.2,240.1 133.3,238.7 136.2,237.4 138.8,236.0 140.9,234.7 142.5,233.3 143.5,232.0 143.8,230.6 143.5,229.3 142.6,227.9 141.1,226.6 139.1,225.2 136.7,223.8 134.0,222.5 131.1,221.1 128.2,219.8 125.3,218.4 122.6,217.1 120.0,215.7 117.6,214.4 115.4,213.0 113.6,211.7 111.9,210.3 110.6,209.0 109.4,207.6 108.5,206.3 107.8,204.9 107.2,203.6 106.8,202.2 106.4,200.8 106.2,199.5 106.0,198.1 105.9,196.8 105.9,195.4 105.9,194.1 106.0,192.7 106.1,191.4 106.4,190.0 106.6,188.7 107.0,187.3 107.4,186.0 107.9,184.6 108.5,183.3 109.1,181.9 109.8,180.6 110.4,179.2 111.1,177.8 111.7,176.5 112.2,175.1 112.6,173.8 112.9,172.4 113.0,171.1 112.9,169.7 112.6,168.4 112.2,167.0 111.7,165.7 111.1,164.3 110.5,163.0 109.8,161.6 109.1,160.3 108.5,158.9 107.9,157.5 107.4,156.2 103.7,156.2 103.2,157.5 102.6,158.9 102.0,160.3 101.3,161.6 100.7,163.0 100.0,164.3 99.4,165.7 98.9,167.0 98.5,168.4 98.2,169.7 98.1,171.1 98.2,172.4 98.5,173.8 98.9,175.1 99.4,176.5 100.0,177.8 100.7,179.2 101.4,180.6 102.0,181.9 102.7,183.3 103.2,184.6 103.7,186.0 104.1,187.3 104.5,188.7 104.8,190.0 105.0,191.4 105.1,192.7 105.2,194.1 105.2,195.4 105.2,196.8 105.1,198.1 104.9,199.5 104.7,200.8 104.4,202.2 103.9,203.6 103.3,204.9 102.6,206.3 101.7,207.6 100.5,209.0 99.2,210.3 97.6,211.7 95.7,213.0 93.5,214.4 91.1,215.7 88.5,217.1 85.8,218.4 82.9,219.8 80.0,221.1 77.1,222.5 74.4,223.8 72.0,225.2 70.0,226.6 68.5,227.9 67.6,229.3 67.3,230.6 67.6,232.0 68.6,233.3 70.2,234.7 72.3,236.0 74.9,237.4 77.8,238.7 80.9,240.1 84.0,241.4 87.1,242.8 90.1,244.1 92.8,245.5 95.3,246.8 97.4,248.2 99.3,249.6 100.8,250.9 102.0,252.3" fill="#2a8" opacity="0.5" stroke="#2a8" stroke-width="1"/>
<line x1="67.5" y1="229.5298291383276" x2="143.6" y2="229.5298291383276" stroke="#114" stroke-width="2"/>
<circle cx="105.55555555555556" cy="236.27326661407008" r="2.4" fill="#114"/>
<text x="105.55555555555556" y="159.693891014246" text-anchor="middle" font-size="11">1.03</text>
<text x="105.55555555555556" y="376" text-anchor="middle" font-size="12">gemvN</text>
<polygon points="196.9,238.9 197.2,238.4 197.5,237.9 198.0,237.3 198.9,236.8 200.1,236.3 201.8,235.8 204.2,235.2 207.3,234.7 211.1,234.2 215.6,233.7 220.4,233.1 225.1,232.6 229.3,232.1 232.5,231.6 234.4,231.0 234.9,230.5 234.3,230.0 232.9,229.5 231.0,228.9 229.0,228.4 227.1,227.9 225.5,227.4 224.3,226.8 223.6,226.3 223.2,225.8 223.2,225.2 223.3,224.7 223.5,224.2 223.3,223.7 222.7,223.1 221.5,222.6 219.7,222.1 217.5,221.6 215.0,221.0 212.5,220.5 210.2,220.0 208.2,219.5 206.6,218.9 205.4,218.4 204.4,217.9 203.7,217.4 203.1,216.8 202.6,216.3 202.0,215.8 201.5,215.3 200.9,214.7 200.3,214.2 199.6,213.7 199.0,213.1 198.4,212.6 197.9,212.1 197.5,211.6 197.2,211.0 197.0,210.5 196.9,210.0 196.8,209.5 196.8,208.9 196.9,208.4 197.0,207.9 197.1,207.4 197.2,206.8 197.3,206.3 197.3,205.8 197.3,205.3 197.3,204.7 197.2,204.2 197.1,203.7 197.0,203.2 196.9,202.6 196.8,202.1 196.8,201.6 196.6,201.6 196.5,202.1 196.4,202.6 196.3,203.2 196.2,203.7 196.1,204.2 196.0,204.7 196.0,205.3 196.0,205.8 196.1,206.3 196.2,206.8 196.3,207.4 196.4,207.9 196.4,208.4 196.5,208.9 196.5,209.5 196.5,210.0 196.3,210.5 196.1,211.0 195.8,211.6 195.4,212.1 194.9,212.6 194.3,213.1 193.7,213.7 193.0,214.2 192.4,214.7 191.8,215.3 191.3,215.8 190.8,216.3 190.3,216.8 189.7,217.4 188.9,217.9 188.0,218.4 186.7,218.9 185.1,219.5 183.1,220.0 180.8,220.5 178.3,221.0 175.8,221.6 173.6,222.1 171.8,222.6 170.6,223.1 170.0,223.7 169.9,224.2 170.0,224.7 170.1,225.2 170.1,225.8 169.7,226.3 169.0,226.8 167.8,227.4 166.3,227.9 164.4,228.4 162.3,228.9 160.4,229.5 159.0,230.0 158.4,230.5 159.0,231.0 160.9,231.6 164.0,232.1 168.2,232.6 172.9,233.1 177.7,233.7 182.2,234.2 186.0,234.7 189.2,235.2 191.5,235.8 193.3,236.3 194.5,236.8 195.3,237.3 195.8,237.9 196.2,238.4 196.4,238.9" fill="#2a8" opacity="0.5" stroke="#2a8" stroke-width="1"/>
<line x1="167.6" y1="227.4506420345868" x2="225.8" y2="227.4506420345868" stroke="#114" stroke-width="2"/>
<circle cx="196.66666666666669" cy="231.82606384437943" r="2.4" fill="#114"/>
<text x="196.66666666666669" y="199.3880594218671" text-anchor="middle" font-size="11">1.05</text>
<text x="196.66666666666669" y="376" text-anchor="middle" font-size="12">gemvT</text>
<polygon points="293.5,242.7 295.1,241.9 297.1,241.2 299.3,240.5 301.8,239.7 304.5,239.0 307.4,238.2 310.4,237.5 313.4,236.8 316.3,236.0 318.9,235.3 321.3,234.5 323.3,233.8 324.7,233.1 325.7,232.3 326.0,231.6 325.8,230.8 325.1,230.1 323.8,229.4 322.0,228.6 319.9,227.9 317.5,227.1 314.8,226.4 312.1,225.6 309.3,224.9 306.5,224.2 303.9,223.4 301.4,222.7 299.2,221.9 297.1,221.2 295.4,220.5 293.8,219.7 292.5,219.0 291.5,218.2 290.6,217.5 289.9,216.8 289.4,216.0 289.0,215.3 288.7,214.5 288.4,213.8 288.3,213.1 288.2,212.3 288.1,211.6 288.1,210.8 288.1,210.1 288.2,209.4 288.3,208.6 288.5,207.9 288.7,207.1 289.0,206.4 289.3,205.7 289.8,204.9 290.3,204.2 290.9,203.4 291.5,202.7 292.1,202.0 292.8,201.2 293.4,200.5 294.0,199.7 294.5,199.0 294.8,198.3 295.0,197.5 295.0,196.8 294.9,196.0 294.6,195.3 294.2,194.6 293.7,193.8 293.1,193.1 292.4,192.3 291.8,191.6 291.1,190.9 290.5,190.1 285.0,190.1 284.4,190.9 283.8,191.6 283.1,192.3 282.5,193.1 281.9,193.8 281.3,194.6 280.9,195.3 280.6,196.0 280.5,196.8 280.6,197.5 280.8,198.3 281.1,199.0 281.6,199.7 282.1,200.5 282.8,201.2 283.4,202.0 284.1,202.7 284.7,203.4 285.3,204.2 285.8,204.9 286.2,205.7 286.6,206.4 286.9,207.1 287.1,207.9 287.3,208.6 287.4,209.4 287.5,210.1 287.5,210.8 287.5,211.6 287.4,212.3 287.3,213.1 287.1,213.8 286.9,214.5 286.6,215.3 286.2,216.0 285.6,216.8 284.9,217.5 284.1,218.2 283.0,219.0 281.7,219.7 280.2,220.5 278.4,221.2 276.4,221.9 274.1,222.7 271.7,223.4 269.0,224.2 266.3,224.9 263.5,225.6 260.7,226.4 258.1,227.1 255.6,227.9 253.5,228.6 251.8,229.4 250.5,230.1 249.7,230.8 249.5,231.6 249.9,232.3 250.8,233.1 252.3,233.8 254.2,234.5 256.6,235.3 259.3,236.0 262.2,236.8 265.1,237.5 268.1,238.2 271.0,239.0 273.8,239.7 276.3,240.5 278.5,241.2 280.4,241.9 282.1,242.7" fill="#2a8" opacity="0.5" stroke="#2a8" stroke-width="1"/>
<line x1="249.7" y1="230.80079533828393" x2="325.8" y2="230.80079533828393" stroke="#114" stroke-width="2"/>
<circle cx="287.77777777777777" cy="235.59246159307224" r="2.4" fill="#114"/>
<text x="287.77777777777777" y="189.4035677065761" text-anchor="middle" font-size="11">1.02</text>
<text x="287.77777777777777" y="376" text-anchor="middle" font-size="12">ger</text>
<polygon points="380.8,249.8 381.5,248.7 382.5,247.5 383.8,246.3 385.4,245.1 387.4,244.0 389.7,242.8 392.3,241.6 395.2,240.5 398.4,239.3 401.7,238.1 405.0,236.9 408.2,235.8 411.0,234.6 413.5,233.4 415.3,232.3 416.6,231.1 417.2,229.9 417.0,228.7 416.3,227.6 414.9,226.4 413.1,225.2 411.0,224.1 408.6,222.9 406.1,221.7 403.7,220.5 401.3,219.4 399.1,218.2 397.0,217.0 395.2,215.8 393.6,214.7 392.3,213.5 391.2,212.3 390.4,211.2 389.8,210.0 389.4,208.8 389.2,207.6 389.1,206.5 389.1,205.3 389.2,204.1 389.2,203.0 389.3,201.8 389.2,200.6 389.1,199.4 388.8,198.3 388.6,197.1 388.3,195.9 388.0,194.8 387.7,193.6 387.6,192.4 387.5,191.2 387.6,190.1 387.8,188.9 388.0,187.7 388.2,186.6 388.5,185.4 388.6,184.2 388.7,183.0 388.6,181.9 388.3,180.7 387.8,179.5 387.2,178.3 386.5,177.2 385.7,176.0 384.8,174.8 383.9,173.7 383.1,172.5 382.3,171.3 381.6,170.1 381.0,169.0 380.5,167.8 380.1,166.6 377.7,166.6 377.3,167.8 376.8,169.0 376.2,170.1 375.5,171.3 374.7,172.5 373.8,173.7 373.0,174.8 372.1,176.0 371.3,177.2 370.5,178.3 369.9,179.5 369.5,180.7 369.2,181.9 369.1,183.0 369.1,184.2 369.3,185.4 369.5,186.6 369.8,187.7 370.0,188.9 370.2,190.1 370.2,191.2 370.2,192.4 370.0,193.6 369.8,194.8 369.5,195.9 369.2,197.1 368.9,198.3 368.7,199.4 368.6,200.6 368.5,201.8 368.5,203.0 368.6,204.1 368.7,205.3 368.7,206.5 368.6,207.6 368.4,208.8 368.0,210.0 367.4,211.2 366.6,212.3 365.5,213.5 364.2,214.7 362.6,215.8 360.8,217.0 358.7,218.2 356.5,219.4 354.1,220.5 351.6,221.7 349.2,222.9 346.8,224.1 344.7,225.2 342.9,226.4 341.5,227.6 340.7,228.7 340.6,229.9 341.2,231.1 342.4,232.3 344.3,233.4 346.7,234.6 349.6,235.8 352.8,236.9 356.1,238.1 359.4,239.3 362.5,240.5 365.5,241.6 368.1,242.8 370.4,244.0 372.4,245.1 374.0,246.3 375.2,247.5 376.2,248.7 377.0,249.8" fill="#2a8" opacity="0.5" stroke="#2a8" stroke-width="1"/>
<line x1="342.6" y1="226.6180948312203" x2="415.2" y2="226.6180948312203" stroke="#114" stroke-width="2"/>
<circle cx="378.8888888888889" cy="233.00968323353757" r="2.4" fill="#114"/>
<text x="378.8888888888889" y="168.8833255740533" text-anchor="middle" font-size="11">1.06</text>
<text x="378.8888888888889" y="376" text-anchor="middle" font-size="12">symv</text>
<polygon points="475.9,242.1 477.6,240.8 479.6,239.5 482.0,238.3 484.7,237.0 487.6,235.7 490.7,234.4 493.9,233.1 497.0,231.8 500.0,230.5 502.7,229.3 505.0,228.0 506.7,226.7 507.8,225.4 508.3,224.1 508.0,222.8 507.2,221.5 505.7,220.2 503.9,219.0 501.7,217.7 499.3,216.4 496.9,215.1 494.5,213.8 492.4,212.5 490.6,211.2 489.0,210.0 487.8,208.7 487.0,207.4 486.4,206.1 486.1,204.8 486.1,203.5 486.1,202.2 486.3,200.9 486.4,199.7 486.5,198.4 486.6,197.1 486.5,195.8 486.3,194.5 485.9,193.2 485.4,191.9 484.8,190.6 484.0,189.4 483.1,188.1 482.1,186.8 481.2,185.5 480.2,184.2 479.3,182.9 478.6,181.6 478.0,180.4 477.6,179.1 477.3,177.8 477.3,176.5 477.4,175.2 477.8,173.9 478.2,172.6 478.7,171.3 479.2,170.1 479.6,168.8 480.0,167.5 480.2,166.2 480.3,164.9 480.1,163.6 479.8,162.3 479.3,161.1 478.6,159.8 477.9,158.5 477.0,157.2 476.1,155.9 475.2,154.6 474.4,153.3 473.6,152.0 472.9,150.8 467.1,150.8 466.4,152.0 465.6,153.3 464.8,154.6 463.9,155.9 463.0,157.2 462.1,158.5 461.4,159.8 460.7,161.1 460.2,162.3 459.9,163.6 459.7,164.9 459.8,166.2 460.0,167.5 460.4,168.8 460.8,170.1 461.3,171.3 461.8,172.6 462.2,173.9 462.6,175.2 462.7,176.5 462.7,177.8 462.4,179.1 462.0,180.4 461.4,181.6 460.7,182.9 459.8,184.2 458.8,185.5 457.9,186.8 456.9,188.1 456.0,189.4 455.2,190.6 454.6,191.9 454.1,193.2 453.7,194.5 453.5,195.8 453.4,197.1 453.5,198.4 453.6,199.7 453.7,200.9 453.9,202.2 453.9,203.5 453.9,204.8 453.6,206.1 453.0,207.4 452.2,208.7 451.0,210.0 449.4,211.2 447.6,212.5 445.5,213.8 443.1,215.1 440.7,216.4 438.3,217.7 436.1,219.0 434.3,220.2 432.8,221.5 432.0,222.8 431.7,224.1 432.2,225.4 433.3,226.7 435.0,228.0 437.3,229.3 440.0,230.5 443.0,231.8 446.1,233.1 449.3,234.4 452.4,235.7 455.3,237.0 458.0,238.3 460.4,239.5 462.4,240.8 464.1,242.1" fill="#2a8" opacity="0.5" stroke="#2a8" stroke-width="1"/>
<line x1="434.0" y1="220.43818433161545" x2="506.0" y2="220.43818433161545" stroke="#114" stroke-width="2"/>
<circle cx="470.0" cy="225.6462943459043" r="2.4" fill="#114"/>
<text x="470.0" y="153.80197435962765" text-anchor="middle" font-size="11">1.11</text>
<text x="470.0" y="376" text-anchor="middle" font-size="12">trmv</text>
<polygon points="564.4,246.0 565.4,244.6 566.7,243.2 568.3,241.9 570.1,240.5 572.2,239.1 574.6,237.8 577.2,236.4 580.0,235.0 583.0,233.7 586.0,232.3 588.9,230.9 591.6,229.5 594.1,228.2 596.2,226.8 597.8,225.4 598.9,224.1 599.4,222.7 599.3,221.3 598.6,220.0 597.3,218.6 595.7,217.2 593.6,215.9 591.3,214.5 588.8,213.1 586.3,211.8 583.9,210.4 581.7,209.0 579.7,207.6 578.0,206.3 576.6,204.9 575.6,203.5 574.9,202.2 574.5,200.8 574.3,199.4 574.4,198.1 574.6,196.7 575.0,195.3 575.4,194.0 575.9,192.6 576.3,191.2 576.7,189.8 577.0,188.5 577.3,187.1 577.4,185.7 577.5,184.4 577.5,183.0 577.4,181.6 577.2,180.3 577.0,178.9 576.7,177.5 576.4,176.2 576.1,174.8 575.8,173.4 575.6,172.1 575.4,170.7 575.2,169.3 575.1,167.9 574.9,166.6 574.8,165.2 574.6,163.8 574.3,162.5 574.0,161.1 573.5,159.7 573.0,158.4 572.3,157.0 571.5,155.6 570.6,154.3 569.6,152.9 568.6,151.5 567.6,150.1 566.7,148.8 555.5,148.8 554.6,150.1 553.6,151.5 552.6,152.9 551.6,154.3 550.8,155.6 550.0,157.0 549.3,158.4 548.7,159.7 548.2,161.1 547.9,162.5 547.6,163.8 547.4,165.2 547.3,166.6 547.2,167.9 547.0,169.3 546.8,170.7 546.6,172.1 546.4,173.4 546.1,174.8 545.8,176.2 545.5,177.5 545.3,178.9 545.0,180.3 544.9,181.6 544.8,183.0 544.7,184.4 544.8,185.7 545.0,187.1 545.2,188.5 545.5,189.8 545.9,191.2 546.4,192.6 546.8,194.0 547.2,195.3 547.6,196.7 547.8,198.1 547.9,199.4 547.8,200.8 547.4,202.2 546.6,203.5 545.6,204.9 544.2,206.3 542.5,207.6 540.5,209.0 538.3,210.4 535.9,211.8 533.4,213.1 530.9,214.5 528.6,215.9 526.6,217.2 524.9,218.6 523.7,220.0 523.0,221.3 522.8,222.7 523.3,224.1 524.4,225.4 526.0,226.8 528.1,228.2 530.6,229.5 533.3,230.9 536.3,232.3 539.2,233.7 542.2,235.0 545.0,236.4 547.6,237.8 550.0,239.1 552.1,240.5 553.9,241.9 555.5,243.2 556.8,244.6 557.8,246.0" fill="#2a8" opacity="0.5" stroke="#2a8" stroke-width="1"/>
<line x1="529.1" y1="215.57121063742252" x2="593.1" y2="215.57121063742252" stroke="#114" stroke-width="2"/>
<circle cx="561.1111111111111" cy="225.08799366615554" r="2.4" fill="#114"/>
<text x="561.1111111111111" y="152.38567012425094" text-anchor="middle" font-size="11">1.15</text>
<text x="561.1111111111111" y="376" text-anchor="middle" font-size="12">trsv</text>
<polygon points="664.9,258.1 667.4,255.2 670.0,252.2 672.8,249.3 675.6,246.4 678.3,243.4 680.9,240.5 683.3,237.6 685.5,234.7 687.3,231.7 688.7,228.8 689.7,225.9 690.3,222.9 690.5,220.0 690.3,217.1 689.8,214.1 688.9,211.2 687.9,208.3 686.5,205.3 685.1,202.4 683.4,199.5 681.7,196.6 679.9,193.6 678.0,190.7 676.2,187.8 674.4,184.8 672.6,181.9 671.0,179.0 669.5,176.0 668.2,173.1 667.0,170.2 666.1,167.2 665.4,164.3 664.9,161.4 664.5,158.4 664.4,155.5 664.3,152.6 664.3,149.7 664.3,146.7 664.3,143.8 664.2,140.9 664.0,137.9 663.7,135.0 663.4,132.1 662.9,129.1 662.4,126.2 661.8,123.3 661.3,120.3 660.8,117.4 660.4,114.5 660.1,111.6 660.0,108.6 660.0,105.7 660.1,102.8 660.3,99.8 660.6,96.9 661.0,94.0 661.4,91.0 661.7,88.1 661.9,85.2 662.0,82.2 662.0,79.3 661.8,76.4 661.5,73.4 661.0,70.5 660.4,67.6 659.8,64.7 659.0,61.7 658.2,58.8 657.4,55.9 656.6,52.9 655.9,50.0 648.6,50.0 647.8,52.9 647.1,55.9 646.3,58.8 645.5,61.7 644.7,64.7 644.0,67.6 643.4,70.5 642.9,73.4 642.6,76.4 642.4,79.3 642.4,82.2 642.5,85.2 642.8,88.1 643.1,91.0 643.4,94.0 643.8,96.9 644.1,99.8 644.3,102.8 644.5,105.7 644.5,108.6 644.3,111.6 644.0,114.5 643.6,117.4 643.2,120.3 642.6,123.3 642.1,126.2 641.6,129.1 641.1,132.1 640.7,135.0 640.4,137.9 640.3,140.9 640.2,143.8 640.2,146.7 640.2,149.7 640.2,152.6 640.1,155.5 639.9,158.4 639.6,161.4 639.1,164.3 638.3,167.2 637.4,170.2 636.3,173.1 634.9,176.0 633.4,179.0 631.8,181.9 630.1,184.8 628.3,187.8 626.4,190.7 624.6,193.6 622.8,196.6 621.0,199.5 619.4,202.4 617.9,205.3 616.6,208.3 615.5,211.2 614.7,214.1 614.1,217.1 614.0,220.0 614.2,222.9 614.7,225.9 615.8,228.8 617.2,231.7 619.0,234.7 621.1,237.6 623.5,240.5 626.1,243.4 628.9,246.4 631.7,249.3 634.4,252.2 637.1,255.2 639.5,258.1" fill="#2a8" opacity="0.5" stroke="#2a8" stroke-width="1"/>
<line x1="618.1" y1="205.0208125340991" x2="686.4" y2="205.0208125340991" stroke="#114" stroke-width="2"/>
<circle cx="652.2222222222223" cy="234.56464183167563" r="2.4" fill="#114"/>
<text x="652.2222222222223" y="61.43396226415098" text-anchor="middle" font-size="11">1.23</text>
<text x="652.2222222222223" y="376" text-anchor="middle" font-size="12">spmv</text>
<polygon points="743.3,310.6 743.3,309.0 743.4,307.4 743.4,305.7 743.5,304.1 743.6,302.5 743.7,300.9 743.8,299.2 743.7,297.6 743.6,296.0 743.5,294.4 743.4,292.7 743.4,291.1 743.3,289.5 743.3,287.9 743.3,286.2 743.3,284.6 743.3,283.0 743.3,281.4 743.3,279.7 743.3,278.1 743.3,276.5 743.3,274.9 743.3,273.2 743.3,271.6 743.3,270.0 743.3,268.4 743.3,266.8 743.3,265.1 743.3,263.5 743.3,261.9 743.3,260.3 743.3,258.6 743.3,257.0 743.3,255.4 743.3,253.8 743.3,252.1 743.3,250.5 743.3,248.9 743.4,247.3 743.4,245.6 743.5,244.0 743.8,242.4 744.1,240.8 744.5,239.1 744.9,237.5 745.4,235.9 746.4,234.3 748.8,232.6 753.6,231.0 761.1,229.4 770.1,227.8 777.8,226.2 781.6,224.5 780.4,222.9 775.4,221.3 769.0,219.7 763.3,218.0 759.3,216.4 756.6,214.8 754.4,213.2 752.2,211.5 749.9,209.9 747.8,208.3 746.2,206.7 745.0,205.0 744.2,203.4 743.8,201.8 743.5,200.2 743.4,198.5 743.3,196.9 743.3,195.3 743.3,195.3 743.3,196.9 743.3,198.5 743.2,200.2 742.9,201.8 742.4,203.4 741.7,205.0 740.5,206.7 738.9,208.3 736.8,209.9 734.4,211.5 732.2,213.2 730.1,214.8 727.4,216.4 723.3,218.0 717.6,219.7 711.3,221.3 706.3,222.9 705.1,224.5 708.9,226.2 716.6,227.8 725.6,229.4 733.0,231.0 737.8,232.6 740.3,234.3 741.3,235.9 741.8,237.5 742.2,239.1 742.6,240.8 742.9,242.4 743.1,244.0 743.2,245.6 743.3,247.3 743.3,248.9 743.3,250.5 743.3,252.1 743.3,253.8 743.3,255.4 743.3,257.0 743.3,258.6 743.3,260.3 743.3,261.9 743.3,263.5 743.3,265.1 743.3,266.8 743.3,268.4 743.3,270.0 743.3,271.6 743.3,273.2 743.3,274.9 743.3,276.5 743.3,278.1 743.3,279.7 743.3,281.4 743.3,283.0 743.3,284.6 743.3,286.2 743.3,287.9 743.3,289.5 743.3,291.1 743.3,292.7 743.2,294.4 743.1,296.0 742.9,297.6 742.9,299.2 742.9,300.9 743.1,302.5 743.2,304.1 743.3,305.7 743.3,307.4 743.3,309.0 743.3,310.6" fill="#2a8" opacity="0.5" stroke="#2a8" stroke-width="1"/>
<line x1="705.0" y1="223.86626806761237" x2="781.7" y2="223.86626806761237" stroke="#114" stroke-width="2"/>
<circle cx="743.3333333333334" cy="226.52619039916212" r="2.4" fill="#114"/>
<text x="743.3333333333334" y="200.65254552290332" text-anchor="middle" font-size="11">1.08</text>
<text x="743.3333333333334" y="376" text-anchor="middle" font-size="12">gbmvN</text>
<polygon points="834.6,174.6 834.6,173.7 834.7,172.8 834.7,171.9 834.8,171.1 834.9,170.2 835.0,169.3 835.1,168.4 835.2,167.6 835.4,166.7 835.7,165.8 836.3,164.9 837.2,164.1 838.5,163.2 840.4,162.3 843.0,161.4 846.2,160.6 850.2,159.7 854.7,158.8 859.4,157.9 864.0,157.1 868.0,156.2 870.9,155.3 872.6,154.4 872.7,153.6 871.4,152.7 868.9,151.8 865.6,150.9 861.9,150.1 858.2,149.2 854.9,148.3 852.1,147.4 849.9,146.6 848.3,145.7 847.2,144.8 846.4,143.9 845.7,143.1 845.1,142.2 844.4,141.3 843.6,140.4 842.8,139.6 842.0,138.7 841.3,137.8 840.8,136.9 840.6,136.1 840.6,135.2 840.8,134.3 841.2,133.4 841.6,132.6 842.0,131.7 842.2,130.8 842.3,129.9 842.1,129.1 841.7,128.2 841.2,127.3 840.4,126.5 839.6,125.6 838.8,124.7 838.0,123.8 837.2,123.0 836.6,122.1 836.1,121.2 835.8,120.3 835.5,119.5 835.3,118.6 835.1,117.7 835.0,116.8 834.9,116.0 834.8,115.1 834.7,114.2 834.6,113.3 834.6,112.5 834.3,112.5 834.3,113.3 834.2,114.2 834.1,115.1 834.0,116.0 833.9,116.8 833.8,117.7 833.6,118.6 833.4,119.5 833.1,120.3 832.7,121.2 832.3,122.1 831.6,123.0 830.9,123.8 830.1,124.7 829.3,125.6 828.5,126.5 827.7,127.3 827.2,128.2 826.8,129.1 826.6,129.9 826.7,130.8 826.9,131.7 827.3,132.6 827.7,133.4 828.1,134.3 828.3,135.2 828.3,136.1 828.0,136.9 827.6,137.8 826.9,138.7 826.1,139.6 825.3,140.4 824.5,141.3 823.8,142.2 823.2,143.1 822.5,143.9 821.7,144.8 820.6,145.7 819.0,146.6 816.8,147.4 814.0,148.3 810.6,149.2 807.0,150.1 803.3,150.9 799.9,151.8 797.5,152.7 796.2,153.6 796.3,154.4 798.0,155.3 800.9,156.2 804.9,157.1 809.5,157.9 814.2,158.8 818.7,159.7 822.6,160.6 825.9,161.4 828.5,162.3 830.4,163.2 831.7,164.1 832.6,164.9 833.2,165.8 833.5,166.7 833.7,167.6 833.8,168.4 833.9,169.3 834.0,170.2 834.1,171.1 834.1,171.9 834.2,172.8 834.3,173.7 834.3,174.6" fill="#2a8" opacity="0.5" stroke="#2a8" stroke-width="1"/>
<line x1="796.7" y1="153.08891010472047" x2="872.2" y2="153.08891010472047" stroke="#114" stroke-width="2"/>
<circle cx="834.4444444444445" cy="154.78850817999245" r="2.4" fill="#114"/>
<text x="834.4444444444445" y="112.6653097292847" text-anchor="middle" font-size="11">1.65</text>
<text x="834.4444444444445" y="376" text-anchor="middle" font-size="12">sbmv</text>
<text x="450.0" y="428" text-anchor="middle" font-size="11" fill="#666">violin = ratio distribution over sizes · line = median · dark dot = worst size · green = every size ≥ gate</text>
</svg>
