<svg xmlns="http://www.w3.org/2000/svg" width="900" height="440" font-family="sans-serif">
<rect width="900" height="440" fill="white"/>
<text x="450.0" y="28" text-anchor="middle" font-size="18" font-weight="bold">Complex BLAS-2: PureBLAS / OpenBLAS (AVX2, 1 thread, ComplexF64)</text>
<line x1="60" y1="358.0" x2="880" y2="358.0" stroke="#eee"/>
<text x="52" y="362.0" text-anchor="end" font-size="11" fill="#666">0×</text>
<line x1="60" y1="286.66976403037387" x2="880" y2="286.66976403037387" stroke="#eee"/>
<text x="52" y="290.66976403037387" text-anchor="end" font-size="11" fill="#666">0.5×</text>
<line x1="60" y1="215.33952806074777" x2="880" y2="215.33952806074777" stroke="#eee"/>
<text x="52" y="219.33952806074777" text-anchor="end" font-size="11" fill="#666">1×</text>
<line x1="60" y1="144.00929209112164" x2="880" y2="144.00929209112164" stroke="#eee"/>
<text x="52" y="148.00929209112164" text-anchor="end" font-size="11" fill="#666">1.5×</text>
<line x1="60" y1="215.33952806074777" x2="880" y2="215.33952806074777" stroke="#888" stroke-width="1"/>
<line x1="60" y1="221.04594693831785" x2="880" y2="221.04594693831785" stroke="#d33" stroke-width="1.5" stroke-dasharray="6 4"/>
<text x="880" y="216.04594693831785" text-anchor="end" font-size="11" fill="#d33">0.96× gate</text>
<polygon points="128.7,227.4 128.9,226.7 129.1,226.0 129.4,225.2 129.7,224.5 130.0,223.8 130.3,223.1 130.6,222.4 130.9,221.7 131.2,221.0 131.5,220.2 131.8,219.5 132.2,218.8 132.8,218.1 133.6,217.4 134.8,216.7 136.5,216.0 138.9,215.2 142.1,214.5 146.0,213.8 150.8,213.1 156.2,212.4 162.1,211.7 168.0,211.0 173.6,210.2 178.5,209.5 182.3,208.8 184.7,208.1 185.7,207.4 185.4,206.7 183.8,206.0 181.2,205.3 178.1,204.5 174.6,203.8 171.2,203.1 167.9,202.4 165.1,201.7 162.7,201.0 160.8,200.3 159.4,199.5 158.6,198.8 158.4,198.1 158.8,197.4 159.7,196.7 161.1,196.0 162.9,195.3 164.7,194.5 166.4,193.8 167.4,193.1 167.7,192.4 167.0,191.7 165.1,191.0 162.3,190.3 158.7,189.5 154.5,188.8 150.2,188.1 145.9,187.4 142.1,186.7 138.7,186.0 136.0,185.3 133.9,184.6 132.4,183.8 131.3,183.1 130.5,182.4 130.1,181.7 129.7,181.0 129.4,180.3 129.2,179.6 129.0,178.8 128.9,178.1 128.7,177.4 128.6,176.7 128.1,176.7 127.9,177.4 127.8,178.1 127.6,178.8 127.5,179.6 127.2,180.3 127.0,181.0 126.6,181.7 126.1,182.4 125.4,183.1 124.3,183.8 122.8,184.6 120.7,185.3 118.0,186.0 114.6,186.7 110.7,187.4 106.5,188.1 102.1,188.8 98.0,189.5 94.4,190.3 91.5,191.0 89.7,191.7 89.0,192.4 89.2,193.1 90.3,193.8 91.9,194.5 93.8,195.3 95.5,196.0 97.0,196.7 97.9,197.4 98.3,198.1 98.0,198.8 97.2,199.5 95.9,200.3 94.0,201.0 91.6,201.7 88.7,202.4 85.5,203.1 82.1,203.8 78.6,204.5 75.5,205.3 72.9,206.0 71.3,206.7 70.9,207.4 71.9,208.1 74.4,208.8 78.2,209.5 83.1,210.2 88.7,211.0 94.6,211.7 100.5,212.4 105.9,213.1 110.6,213.8 114.6,214.5 117.7,215.2 120.1,216.0 121.9,216.7 123.1,217.4 123.9,218.1 124.5,218.8 124.9,219.5 125.2,220.2 125.5,221.0 125.7,221.7 126.0,222.4 126.3,223.1 126.7,223.8 127.0,224.5 127.3,225.2 127.6,226.0 127.8,226.7 128.0,227.4" fill="#2a8" opacity="0.5" stroke="#2a8" stroke-width="1"/>
<line x1="81.5" y1="203.93385316701657" x2="175.1" y2="203.93385316701657" stroke="#114" stroke-width="2"/>
<circle cx="128.33333333333331" cy="209.42574979184016" r="2.4" fill="#114"/>
<text x="128.33333333333331" y="175.83349218066098" text-anchor="middle" font-size="11">1.08</text>
<text x="128.33333333333331" y="376" text-anchor="middle" font-size="12">zgemvN</text>
<polygon points="269.9,247.8 271.4,247.0 273.1,246.2 274.9,245.4 276.9,244.7 278.9,243.9 280.9,243.1 282.6,242.3 284.1,241.5 285.2,240.7 285.9,239.9 286.2,239.1 286.2,238.3 285.9,237.5 285.6,236.7 285.4,235.9 285.4,235.1 285.9,234.3 286.8,233.5 288.5,232.7 290.7,231.9 293.6,231.1 297.0,230.4 300.7,229.6 304.6,228.8 308.5,228.0 312.2,227.2 315.5,226.4 318.2,225.6 320.3,224.8 321.7,224.0 322.4,223.2 322.4,222.4 321.9,221.6 320.8,220.8 319.4,220.0 317.8,219.2 315.9,218.4 313.9,217.6 311.9,216.9 310.0,216.1 308.0,215.3 306.2,214.5 304.4,213.7 302.7,212.9 301.1,212.1 299.7,211.3 298.4,210.5 297.1,209.7 296.1,208.9 295.1,208.1 294.3,207.3 293.6,206.5 293.0,205.7 292.5,204.9 292.0,204.1 291.6,203.4 291.0,202.6 290.4,201.8 289.6,201.0 288.5,200.2 287.2,199.4 285.7,198.6 284.0,197.8 282.1,197.0 280.1,196.2 278.0,195.4 276.0,194.6 274.1,193.8 272.4,193.0 270.8,192.2 269.5,191.4 260.5,191.4 259.2,192.2 257.6,193.0 255.9,193.8 254.0,194.6 252.0,195.4 249.9,196.2 247.9,197.0 246.0,197.8 244.3,198.6 242.8,199.4 241.5,200.2 240.4,201.0 239.6,201.8 239.0,202.6 238.4,203.4 238.0,204.1 237.5,204.9 237.0,205.7 236.4,206.5 235.7,207.3 234.9,208.1 233.9,208.9 232.9,209.7 231.6,210.5 230.3,211.3 228.9,212.1 227.3,212.9 225.6,213.7 223.8,214.5 222.0,215.3 220.0,216.1 218.1,216.9 216.1,217.6 214.1,218.4 212.2,219.2 210.6,220.0 209.2,220.8 208.1,221.6 207.6,222.4 207.6,223.2 208.3,224.0 209.7,224.8 211.8,225.6 214.5,226.4 217.8,227.2 221.5,228.0 225.4,228.8 229.3,229.6 233.0,230.4 236.4,231.1 239.3,231.9 241.5,232.7 243.2,233.5 244.1,234.3 244.6,235.1 244.6,235.9 244.4,236.7 244.1,237.5 243.8,238.3 243.8,239.1 244.1,239.9 244.8,240.7 245.9,241.5 247.4,242.3 249.1,243.1 251.1,243.9 253.1,244.7 255.1,245.4 256.9,246.2 258.6,247.0 260.1,247.8" fill="#d33" opacity="0.5" stroke="#d33" stroke-width="1"/>
<line x1="209.1" y1="220.855792930076" x2="320.9" y2="220.855792930076" stroke="#114" stroke-width="2"/>
<circle cx="265.0" cy="239.70223180378795" r="2.4" fill="#114"/>
<text x="265.0" y="191.1236540584789" text-anchor="middle" font-size="11">0.96</text>
<text x="265.0" y="376" text-anchor="middle" font-size="12">zgemvC</text>
<polygon points="408.0,233.8 410.2,232.5 412.9,231.2 416.2,229.9 420.0,228.7 424.4,227.4 429.1,226.1 434.2,224.8 439.3,223.5 444.3,222.2 448.9,221.0 452.8,219.7 456.0,218.4 458.1,217.1 459.1,215.8 458.8,214.6 457.5,213.3 455.0,212.0 451.7,210.7 447.7,209.4 443.3,208.1 438.7,206.9 434.1,205.6 429.7,204.3 425.8,203.0 422.3,201.7 419.5,200.5 417.3,199.2 415.6,197.9 414.6,196.6 413.9,195.3 413.7,194.0 413.7,192.8 413.9,191.5 414.2,190.2 414.4,188.9 414.4,187.6 414.3,186.4 414.1,185.1 413.6,183.8 413.1,182.5 412.4,181.2 411.7,180.0 411.0,178.7 410.5,177.4 410.1,176.1 409.9,174.8 410.0,173.5 410.2,172.3 410.7,171.0 411.3,169.7 411.9,168.4 412.6,167.1 413.2,165.9 413.7,164.6 413.9,163.3 413.9,162.0 413.7,160.7 413.2,159.4 412.5,158.2 411.7,156.9 410.7,155.6 409.6,154.3 408.5,153.0 407.5,151.8 406.5,150.5 405.6,149.2 404.8,147.9 404.1,146.6 403.5,145.4 403.1,144.1 402.7,142.8 400.6,142.8 400.3,144.1 399.8,145.4 399.2,146.6 398.6,147.9 397.8,149.2 396.9,150.5 395.9,151.8 394.8,153.0 393.7,154.3 392.7,155.6 391.7,156.9 390.8,158.2 390.1,159.4 389.6,160.7 389.4,162.0 389.4,163.3 389.7,164.6 390.1,165.9 390.7,167.1 391.4,168.4 392.1,169.7 392.6,171.0 393.1,172.3 393.4,173.5 393.4,174.8 393.2,176.1 392.8,177.4 392.3,178.7 391.6,180.0 390.9,181.2 390.3,182.5 389.7,183.8 389.2,185.1 389.0,186.4 388.9,187.6 389.0,188.9 389.2,190.2 389.4,191.5 389.6,192.8 389.6,194.0 389.4,195.3 388.8,196.6 387.7,197.9 386.1,199.2 383.8,200.5 381.0,201.7 377.6,203.0 373.6,204.3 369.3,205.6 364.7,206.9 360.0,208.1 355.6,209.4 351.6,210.7 348.3,212.0 345.9,213.3 344.5,214.6 344.3,215.8 345.2,217.1 347.4,218.4 350.5,219.7 354.5,221.0 359.1,222.2 364.1,223.5 369.2,224.8 374.2,226.1 379.0,227.4 383.3,228.7 387.1,229.9 390.4,231.2 393.2,232.5 395.4,233.8" fill="#2a8" opacity="0.5" stroke="#2a8" stroke-width="1"/>
<line x1="344.9" y1="213.99411018371475" x2="458.4" y2="213.99411018371475" stroke="#114" stroke-width="2"/>
<circle cx="401.66666666666663" cy="220.45123816292661" r="2.4" fill="#114"/>
<text x="401.66666666666663" y="145.82263445120623" text-anchor="middle" font-size="11">1.01</text>
<text x="401.66666666666663" y="376" text-anchor="middle" font-size="12">zgeru</text>
<polygon points="550.1,199.8 552.7,198.1 555.8,196.4 559.1,194.7 562.7,193.1 566.4,191.4 570.3,189.7 574.3,188.0 578.1,186.3 581.7,184.7 585.1,183.0 588.0,181.3 590.4,179.6 592.3,177.9 593.6,176.3 594.3,174.6 594.4,172.9 594.0,171.2 593.0,169.5 591.7,167.9 589.9,166.2 588.0,164.5 585.9,162.8 583.7,161.1 581.5,159.5 579.4,157.8 577.4,156.1 575.7,154.4 574.1,152.7 572.8,151.1 571.8,149.4 570.9,147.7 570.2,146.0 569.7,144.3 569.3,142.7 569.1,141.0 568.9,139.3 568.9,137.6 569.0,135.9 569.2,134.3 569.5,132.6 570.1,130.9 570.9,129.2 572.0,127.5 573.3,125.9 574.9,124.2 576.8,122.5 579.0,120.8 581.3,119.1 583.7,117.5 586.2,115.8 588.6,114.1 590.8,112.4 592.7,110.8 594.2,109.1 595.3,107.4 595.7,105.7 595.6,104.0 594.8,102.4 593.4,100.7 591.3,99.0 588.7,97.3 585.7,95.6 582.2,94.0 578.4,92.3 574.5,90.6 570.5,88.9 566.6,87.2 562.7,85.6 559.1,83.9 555.8,82.2 552.8,80.5 523.8,80.5 520.8,82.2 517.5,83.9 513.9,85.6 510.1,87.2 506.2,88.9 502.2,90.6 498.2,92.3 494.5,94.0 491.0,95.6 487.9,97.3 485.3,99.0 483.3,100.7 481.9,102.4 481.1,104.0 480.9,105.7 481.4,107.4 482.4,109.1 484.0,110.8 485.9,112.4 488.1,114.1 490.5,115.8 492.9,117.5 495.4,119.1 497.7,120.8 499.9,122.5 501.8,124.2 503.4,125.9 504.7,127.5 505.8,129.2 506.6,130.9 507.1,132.6 507.5,134.3 507.7,135.9 507.8,137.6 507.7,139.3 507.6,141.0 507.3,142.7 507.0,144.3 506.5,146.0 505.8,147.7 504.9,149.4 503.8,151.1 502.5,152.7 501.0,154.4 499.2,156.1 497.3,157.8 495.2,159.5 493.0,161.1 490.8,162.8 488.7,164.5 486.7,166.2 485.0,167.9 483.6,169.5 482.7,171.2 482.2,172.9 482.3,174.6 483.0,176.3 484.3,177.9 486.2,179.6 488.7,181.3 491.6,183.0 494.9,184.7 498.6,186.3 502.4,188.0 506.3,189.7 510.2,191.4 514.0,193.1 517.6,194.7 520.9,196.4 523.9,198.1 526.6,199.8" fill="#2a8" opacity="0.5" stroke="#2a8" stroke-width="1"/>
<line x1="507.8" y1="138.4895398714923" x2="568.9" y2="138.4895398714923" stroke="#114" stroke-width="2"/>
<circle cx="538.3333333333333" cy="179.06452601762928" r="2.4" fill="#114"/>
<text x="538.3333333333333" y="86.28694874389848" text-anchor="middle" font-size="11">1.54</text>
<text x="538.3333333333333" y="376" text-anchor="middle" font-size="12">zhemv</text>
<polygon points="675.8,245.7 676.3,242.9 676.9,240.2 677.8,237.4 679.0,234.7 680.6,231.9 682.7,229.1 685.5,226.4 689.0,223.6 693.2,220.9 698.1,218.1 703.6,215.4 709.5,212.6 715.4,209.9 721.1,207.1 726.0,204.3 729.7,201.6 731.9,198.8 732.4,196.1 731.1,193.3 728.1,190.6 723.8,187.8 718.5,185.1 712.7,182.3 706.9,179.5 701.6,176.8 697.0,174.0 693.3,171.3 690.7,168.5 688.9,165.8 688.0,163.0 687.6,160.2 687.5,157.5 687.6,154.7 687.5,152.0 687.3,149.2 686.9,146.5 686.1,143.7 685.2,141.0 684.1,138.2 683.0,135.4 682.1,132.7 681.3,129.9 680.9,127.2 680.9,124.4 681.2,121.7 681.8,118.9 682.7,116.1 683.7,113.4 684.7,110.6 685.5,107.9 686.1,105.1 686.3,102.4 686.1,99.6 685.5,96.9 684.6,94.1 683.5,91.3 682.3,88.6 681.1,85.8 679.9,83.1 678.9,80.3 678.0,77.6 677.3,74.8 676.8,72.0 676.4,69.3 676.1,66.5 675.9,63.8 675.7,61.0 675.6,58.3 675.5,55.5 675.4,52.8 675.3,50.0 674.7,50.0 674.6,52.8 674.5,55.5 674.4,58.3 674.3,61.0 674.1,63.8 673.9,66.5 673.6,69.3 673.2,72.0 672.7,74.8 672.0,77.6 671.1,80.3 670.1,83.1 668.9,85.8 667.7,88.6 666.5,91.3 665.4,94.1 664.5,96.9 663.9,99.6 663.7,102.4 663.9,105.1 664.5,107.9 665.3,110.6 666.3,113.4 667.3,116.1 668.2,118.9 668.8,121.7 669.1,124.4 669.1,127.2 668.7,129.9 667.9,132.7 667.0,135.4 665.9,138.2 664.8,141.0 663.9,143.7 663.1,146.5 662.7,149.2 662.5,152.0 662.4,154.7 662.5,157.5 662.4,160.2 662.0,163.0 661.1,165.8 659.3,168.5 656.7,171.3 653.0,174.0 648.4,176.8 643.1,179.5 637.3,182.3 631.5,185.1 626.2,187.8 621.9,190.6 618.9,193.3 617.6,196.1 618.1,198.8 620.3,201.6 624.0,204.3 628.9,207.1 634.6,209.9 640.5,212.6 646.4,215.4 651.9,218.1 656.8,220.9 661.0,223.6 664.5,226.4 667.3,229.1 669.4,231.9 671.0,234.7 672.2,237.4 673.1,240.2 673.7,242.9 674.2,245.7" fill="#2a8" opacity="0.5" stroke="#2a8" stroke-width="1"/>
<line x1="618.2" y1="194.39683737728035" x2="731.8" y2="194.39683737728035" stroke="#114" stroke-width="2"/>
<circle cx="675.0" cy="208.0219887072987" r="2.4" fill="#114"/>
<text x="675.0" y="61.433962264150935" text-anchor="middle" font-size="11">1.15</text>
<text x="675.0" y="376" text-anchor="middle" font-size="12">ztrmv</text>
<polygon points="812.1,242.8 812.4,240.3 812.8,237.7 813.5,235.2 814.4,232.7 815.6,230.2 817.3,227.6 819.5,225.1 822.3,222.6 825.9,220.0 830.2,217.5 835.4,215.0 841.4,212.5 847.9,209.9 854.5,207.4 860.6,204.9 865.5,202.4 868.5,199.8 869.1,197.3 867.1,194.8 862.8,192.2 856.8,189.7 849.9,187.2 843.1,184.7 837.2,182.1 832.6,179.6 829.6,177.1 827.9,174.6 827.3,172.0 827.2,169.5 827.3,167.0 827.2,164.5 826.6,161.9 825.6,159.4 824.3,156.9 822.9,154.3 821.6,151.8 820.6,149.3 820.1,146.8 819.9,144.2 820.1,141.7 820.3,139.2 820.5,136.7 820.4,134.1 820.1,131.6 819.4,129.1 818.5,126.5 817.5,124.0 816.6,121.5 815.7,119.0 815.0,116.4 814.4,113.9 813.9,111.4 813.5,108.9 813.2,106.3 812.9,103.8 812.7,101.3 812.5,98.8 812.3,96.2 812.3,93.7 812.3,91.2 812.3,88.6 812.3,86.1 812.4,83.6 812.4,81.1 812.3,78.5 812.3,76.0 812.2,73.5 812.1,71.0 812.0,68.4 811.9,65.9 811.8,63.4 811.5,63.4 811.4,65.9 811.3,68.4 811.2,71.0 811.1,73.5 811.1,76.0 811.0,78.5 811.0,81.1 811.0,83.6 811.0,86.1 811.0,88.6 811.1,91.2 811.1,93.7 811.0,96.2 810.9,98.8 810.7,101.3 810.4,103.8 810.2,106.3 809.8,108.9 809.4,111.4 809.0,113.9 808.4,116.4 807.6,119.0 806.8,121.5 805.8,124.0 804.8,126.5 803.9,129.1 803.3,131.6 802.9,134.1 802.9,136.7 803.0,139.2 803.3,141.7 803.4,144.2 803.2,146.8 802.7,149.3 801.7,151.8 800.4,154.3 799.0,156.9 797.7,159.4 796.7,161.9 796.2,164.5 796.0,167.0 796.1,169.5 796.1,172.0 795.4,174.6 793.8,177.1 790.7,179.6 786.1,182.1 780.2,184.7 773.4,187.2 766.6,189.7 760.6,192.2 756.2,194.8 754.3,197.3 754.9,199.8 757.9,202.4 762.8,204.9 768.9,207.4 775.5,209.9 782.0,212.5 787.9,215.0 793.1,217.5 797.5,220.0 801.0,222.6 803.8,225.1 806.0,227.6 807.7,230.2 808.9,232.7 809.8,235.2 810.5,237.7 810.9,240.3 811.2,242.8" fill="#2a8" opacity="0.5" stroke="#2a8" stroke-width="1"/>
<line x1="755.5" y1="195.40701188052705" x2="867.8" y2="195.40701188052705" stroke="#114" stroke-width="2"/>
<circle cx="811.6666666666666" cy="211.15355312015" r="2.4" fill="#114"/>
<text x="811.6666666666666" y="74.96681660847534" text-anchor="middle" font-size="11">1.14</text>
<text x="811.6666666666666" y="376" text-anchor="middle" font-size="12">ztrsv</text>
<text x="450.0" y="428" text-anchor="middle" font-size="11" fill="#666">violin = ratio distribution over sizes · line = median · dark dot = worst size · green = every size ≥ gate</text>
</svg>
