<svg xmlns="http://www.w3.org/2000/svg" width="962" height="248" font-family="sans-serif">
<rect width="962" height="248" fill="white"/>
<text x="481.0" y="26" text-anchor="middle" font-size="17" font-weight="bold">LAPACK — PureBLAS / OpenBLAS (PB/OpenBLAS ratio)</text>
<line x1="46" y1="42" x2="68" y2="42" stroke="#d62728" stroke-width="3"/>
<text x="73" y="46" font-size="12">Zen3 · AVX2</text>
<line x1="176" y1="42" x2="198" y2="42" stroke="#2ca02c" stroke-width="3"/>
<text x="203" y="46" font-size="12">Zen5 · AVX-512</text>
<line x1="327" y1="42" x2="349" y2="42" stroke="#1f77b4" stroke-width="3"/>
<text x="354" y="46" font-size="12">Zen4 · AVX-512</text>
<rect x="46" y="60" width="210" height="138" fill="none" stroke="#e2e2e2"/>
<line x1="46" y1="133.47624178835713" x2="256" y2="133.47624178835713" stroke="#d33" stroke-dasharray="4 3"/>
<text x="42" y="201.0" text-anchor="end" font-size="9" fill="#999">0.5×</text>
<text x="42" y="136.47624178835713" text-anchor="end" font-size="9" fill="#999">1.0×</text>
<text x="42" y="63.080239457024575" text-anchor="end" font-size="9" fill="#999">2.2×</text>
<polygon points="46.0,100.5 92.7,80.7 139.3,91.7 162.7,110.5 186.0,120.0 209.3,125.6 232.7,126.9 256.0,130.4 256.0,130.7 232.7,127.8 209.3,126.1 186.0,120.4 162.7,111.4 139.3,92.8 92.7,88.8 46.0,101.2" fill="#d62728" opacity="0.11"/>
<polyline points="46.0,101.0 92.7,83.8 139.3,92.3 162.7,111.0 186.0,120.2 209.3,125.8 232.7,127.6 256.0,130.5" fill="none" stroke="#d62728" stroke-width="1.6"/>
<circle cx="46.0" cy="101.0" r="2" fill="#d62728"/>
<circle cx="92.7" cy="83.8" r="2" fill="#d62728"/>
<circle cx="139.3" cy="92.3" r="2" fill="#d62728"/>
<circle cx="162.7" cy="111.0" r="2" fill="#d62728"/>
<circle cx="186.0" cy="120.2" r="2" fill="#d62728"/>
<circle cx="209.3" cy="125.8" r="2" fill="#d62728"/>
<circle cx="232.7" cy="127.6" r="2" fill="#d62728"/>
<circle cx="256.0" cy="130.5" r="2" fill="#d62728"/>
<polygon points="46.0,100.0 92.7,79.5 139.3,73.9 162.7,82.8 186.0,88.3 209.3,96.7 232.7,111.0 256.0,118.0 256.0,119.0 232.7,112.2 209.3,98.0 186.0,89.4 162.7,84.0 139.3,75.5 92.7,92.1 46.0,100.6" fill="#2ca02c" opacity="0.11"/>
<polyline points="46.0,100.2 92.7,82.8 139.3,74.3 162.7,83.5 186.0,89.1 209.3,97.2 232.7,111.6 256.0,118.1" fill="none" stroke="#2ca02c" stroke-width="1.6"/>
<circle cx="46.0" cy="100.2" r="2" fill="#2ca02c"/>
<circle cx="92.7" cy="82.8" r="2" fill="#2ca02c"/>
<circle cx="139.3" cy="74.3" r="2" fill="#2ca02c"/>
<circle cx="162.7" cy="83.5" r="2" fill="#2ca02c"/>
<circle cx="186.0" cy="89.1" r="2" fill="#2ca02c"/>
<circle cx="209.3" cy="97.2" r="2" fill="#2ca02c"/>
<circle cx="232.7" cy="111.6" r="2" fill="#2ca02c"/>
<circle cx="256.0" cy="118.1" r="2" fill="#2ca02c"/>
<polygon points="46.0,70.6 92.7,67.2 139.3,71.0 162.7,84.6 186.0,92.2 209.3,108.0 232.7,118.6 256.0,125.3 256.0,126.0 232.7,119.5 209.3,112.3 186.0,94.5 162.7,86.7 139.3,72.9 92.7,79.6 46.0,109.1" fill="#1f77b4" opacity="0.11"/>
<polyline points="46.0,94.7 92.7,70.8 139.3,72.0 162.7,86.0 186.0,92.7 209.3,109.4 232.7,118.9 256.0,125.6" fill="none" stroke="#1f77b4" stroke-width="1.6"/>
<circle cx="46.0" cy="94.7" r="2" fill="#1f77b4"/>
<circle cx="92.7" cy="70.8" r="2" fill="#1f77b4"/>
<circle cx="139.3" cy="72.0" r="2" fill="#1f77b4"/>
<circle cx="162.7" cy="86.0" r="2" fill="#1f77b4"/>
<circle cx="186.0" cy="92.7" r="2" fill="#1f77b4"/>
<circle cx="209.3" cy="109.4" r="2" fill="#1f77b4"/>
<circle cx="232.7" cy="118.9" r="2" fill="#1f77b4"/>
<circle cx="256.0" cy="125.6" r="2" fill="#1f77b4"/>
<text x="151.0" y="55" text-anchor="middle" font-size="12" font-weight="bold">potrf</text>
<line x1="46.0" y1="60" x2="46.0" y2="198" stroke="#f4f4f4"/>
<text x="46.0" y="209" text-anchor="middle" font-size="8" fill="#999">8</text>
<line x1="92.7" y1="60" x2="92.7" y2="198" stroke="#f4f4f4"/>
<text x="92.7" y="209" text-anchor="middle" font-size="8" fill="#999">32</text>
<line x1="139.3" y1="60" x2="139.3" y2="198" stroke="#f4f4f4"/>
<text x="139.3" y="209" text-anchor="middle" font-size="8" fill="#999">128</text>
<line x1="162.7" y1="60" x2="162.7" y2="198" stroke="#f4f4f4"/>
<text x="162.7" y="209" text-anchor="middle" font-size="8" fill="#999">256</text>
<line x1="186.0" y1="60" x2="186.0" y2="198" stroke="#f4f4f4"/>
<text x="186.0" y="209" text-anchor="middle" font-size="8" fill="#999">512</text>
<line x1="209.3" y1="60" x2="209.3" y2="198" stroke="#f4f4f4"/>
<text x="209.3" y="209" text-anchor="middle" font-size="8" fill="#999">1k</text>
<line x1="232.7" y1="60" x2="232.7" y2="198" stroke="#f4f4f4"/>
<text x="232.7" y="209" text-anchor="middle" font-size="8" fill="#999">2k</text>
<line x1="256.0" y1="60" x2="256.0" y2="198" stroke="#f4f4f4"/>
<text x="256.0" y="209" text-anchor="middle" font-size="8" fill="#999">4k</text>
<rect x="276" y="60" width="210" height="138" fill="none" stroke="#e2e2e2"/>
<line x1="276" y1="155.66793064527985" x2="486" y2="155.66793064527985" stroke="#d33" stroke-dasharray="4 3"/>
<text x="272" y="201.0" text-anchor="end" font-size="9" fill="#999">0.5×</text>
<text x="272" y="158.66793064527985" text-anchor="end" font-size="9" fill="#999">1.0×</text>
<polygon points="276.0,81.2 322.7,105.2 369.3,123.2 392.7,131.0 416.0,126.7 439.3,131.8 462.7,139.5 486.0,140.1 486.0,140.4 462.7,140.0 439.3,132.5 416.0,127.2 392.7,132.1 369.3,123.9 322.7,117.3 276.0,98.5" fill="#d62728" opacity="0.11"/>
<polyline points="276.0,97.9 322.7,116.9 369.3,123.8 392.7,131.7 416.0,126.9 439.3,132.1 462.7,139.8 486.0,140.2" fill="none" stroke="#d62728" stroke-width="1.6"/>
<circle cx="276.0" cy="97.9" r="2" fill="#d62728"/>
<circle cx="322.7" cy="116.9" r="2" fill="#d62728"/>
<circle cx="369.3" cy="123.8" r="2" fill="#d62728"/>
<circle cx="392.7" cy="131.7" r="2" fill="#d62728"/>
<circle cx="416.0" cy="126.9" r="2" fill="#d62728"/>
<circle cx="439.3" cy="132.1" r="2" fill="#d62728"/>
<circle cx="462.7" cy="139.8" r="2" fill="#d62728"/>
<circle cx="486.0" cy="140.2" r="2" fill="#d62728"/>
<polygon points="276.0,91.3 322.7,115.5 369.3,120.7 392.7,124.7 416.0,122.8 439.3,128.6 462.7,132.4 486.0,135.2 486.0,135.8 462.7,132.8 439.3,129.3 416.0,123.8 392.7,126.0 369.3,121.8 322.7,122.0 276.0,110.2" fill="#2ca02c" opacity="0.11"/>
<polyline points="276.0,108.9 322.7,121.1 369.3,121.4 392.7,125.4 416.0,123.6 439.3,129.1 462.7,132.7 486.0,135.7" fill="none" stroke="#2ca02c" stroke-width="1.6"/>
<circle cx="276.0" cy="108.9" r="2" fill="#2ca02c"/>
<circle cx="322.7" cy="121.1" r="2" fill="#2ca02c"/>
<circle cx="369.3" cy="121.4" r="2" fill="#2ca02c"/>
<circle cx="392.7" cy="125.4" r="2" fill="#2ca02c"/>
<circle cx="416.0" cy="123.6" r="2" fill="#2ca02c"/>
<circle cx="439.3" cy="129.1" r="2" fill="#2ca02c"/>
<circle cx="462.7" cy="132.7" r="2" fill="#2ca02c"/>
<circle cx="486.0" cy="135.7" r="2" fill="#2ca02c"/>
<polygon points="276.0,64.7 322.7,110.2 369.3,115.9 392.7,123.2 416.0,111.7 439.3,120.4 462.7,125.2 486.0,127.0 486.0,129.5 462.7,126.6 439.3,120.8 416.0,112.5 392.7,124.2 369.3,116.6 322.7,123.1 276.0,104.2" fill="#1f77b4" opacity="0.11"/>
<polyline points="276.0,103.5 322.7,122.5 369.3,116.3 392.7,123.8 416.0,111.9 439.3,120.6 462.7,126.1 486.0,128.7" fill="none" stroke="#1f77b4" stroke-width="1.6"/>
<circle cx="276.0" cy="103.5" r="2" fill="#1f77b4"/>
<circle cx="322.7" cy="122.5" r="2" fill="#1f77b4"/>
<circle cx="369.3" cy="116.3" r="2" fill="#1f77b4"/>
<circle cx="392.7" cy="123.8" r="2" fill="#1f77b4"/>
<circle cx="416.0" cy="111.9" r="2" fill="#1f77b4"/>
<circle cx="439.3" cy="120.6" r="2" fill="#1f77b4"/>
<circle cx="462.7" cy="126.1" r="2" fill="#1f77b4"/>
<circle cx="486.0" cy="128.7" r="2" fill="#1f77b4"/>
<text x="381.0" y="55" text-anchor="middle" font-size="12" font-weight="bold">geqrf</text>
<line x1="276.0" y1="60" x2="276.0" y2="198" stroke="#f4f4f4"/>
<text x="276.0" y="209" text-anchor="middle" font-size="8" fill="#999">8</text>
<line x1="322.7" y1="60" x2="322.7" y2="198" stroke="#f4f4f4"/>
<text x="322.7" y="209" text-anchor="middle" font-size="8" fill="#999">32</text>
<line x1="369.3" y1="60" x2="369.3" y2="198" stroke="#f4f4f4"/>
<text x="369.3" y="209" text-anchor="middle" font-size="8" fill="#999">128</text>
<line x1="392.7" y1="60" x2="392.7" y2="198" stroke="#f4f4f4"/>
<text x="392.7" y="209" text-anchor="middle" font-size="8" fill="#999">256</text>
<line x1="416.0" y1="60" x2="416.0" y2="198" stroke="#f4f4f4"/>
<text x="416.0" y="209" text-anchor="middle" font-size="8" fill="#999">512</text>
<line x1="439.3" y1="60" x2="439.3" y2="198" stroke="#f4f4f4"/>
<text x="439.3" y="209" text-anchor="middle" font-size="8" fill="#999">1k</text>
<line x1="462.7" y1="60" x2="462.7" y2="198" stroke="#f4f4f4"/>
<text x="462.7" y="209" text-anchor="middle" font-size="8" fill="#999">2k</text>
<line x1="486.0" y1="60" x2="486.0" y2="198" stroke="#f4f4f4"/>
<text x="486.0" y="209" text-anchor="middle" font-size="8" fill="#999">4k</text>
<rect x="506" y="60" width="210" height="138" fill="none" stroke="#e2e2e2"/>
<line x1="506" y1="139.98403218652643" x2="716" y2="139.98403218652643" stroke="#d33" stroke-dasharray="4 3"/>
<text x="502" y="201.0" text-anchor="end" font-size="9" fill="#999">0.5×</text>
<text x="502" y="142.98403218652643" text-anchor="end" font-size="9" fill="#999">1.0×</text>
<text x="502" y="63.00834622133887" text-anchor="end" font-size="9" fill="#999">2.6×</text>
<polygon points="506.0,82.6 552.7,66.4 599.3,107.0 622.7,128.3 646.0,131.6 669.3,131.3 692.7,133.3 716.0,133.5 716.0,136.9 692.7,134.7 669.3,132.7 646.0,133.3 622.7,129.1 599.3,107.6 552.7,71.6 506.0,83.4" fill="#d62728" opacity="0.11"/>
<polyline points="506.0,83.0 552.7,69.8 599.3,107.2 622.7,128.6 646.0,132.9 669.3,132.6 692.7,134.5 716.0,133.9" fill="none" stroke="#d62728" stroke-width="1.6"/>
<circle cx="506.0" cy="83.0" r="2" fill="#d62728"/>
<circle cx="552.7" cy="69.8" r="2" fill="#d62728"/>
<circle cx="599.3" cy="107.2" r="2" fill="#d62728"/>
<circle cx="622.7" cy="128.6" r="2" fill="#d62728"/>
<circle cx="646.0" cy="132.9" r="2" fill="#d62728"/>
<circle cx="669.3" cy="132.6" r="2" fill="#d62728"/>
<circle cx="692.7" cy="134.5" r="2" fill="#d62728"/>
<circle cx="716.0" cy="133.9" r="2" fill="#d62728"/>
<polygon points="506.0,96.6 552.7,89.0 599.3,106.1 622.7,117.0 646.0,118.9 669.3,121.6 692.7,126.6 716.0,129.2 716.0,130.3 692.7,128.1 669.3,123.6 646.0,120.0 622.7,118.0 599.3,106.8 552.7,91.0 506.0,98.0" fill="#2ca02c" opacity="0.11"/>
<polyline points="506.0,97.4 552.7,90.3 599.3,106.5 622.7,117.5 646.0,119.8 669.3,122.6 692.7,127.6 716.0,129.8" fill="none" stroke="#2ca02c" stroke-width="1.6"/>
<circle cx="506.0" cy="97.4" r="2" fill="#2ca02c"/>
<circle cx="552.7" cy="90.3" r="2" fill="#2ca02c"/>
<circle cx="599.3" cy="106.5" r="2" fill="#2ca02c"/>
<circle cx="622.7" cy="117.5" r="2" fill="#2ca02c"/>
<circle cx="646.0" cy="119.8" r="2" fill="#2ca02c"/>
<circle cx="669.3" cy="122.6" r="2" fill="#2ca02c"/>
<circle cx="692.7" cy="127.6" r="2" fill="#2ca02c"/>
<circle cx="716.0" cy="129.8" r="2" fill="#2ca02c"/>
<polygon points="506.0,91.0 552.7,85.0 599.3,104.8 622.7,116.5 646.0,119.4 669.3,124.7 692.7,132.2 716.0,138.5 716.0,156.8 692.7,133.3 669.3,127.0 646.0,121.6 622.7,118.8 599.3,106.7 552.7,87.4 506.0,92.5" fill="#1f77b4" opacity="0.11"/>
<polyline points="506.0,91.9 552.7,85.4 599.3,105.4 622.7,117.4 646.0,119.8 669.3,126.0 692.7,132.8 716.0,139.1" fill="none" stroke="#1f77b4" stroke-width="1.6"/>
<circle cx="506.0" cy="91.9" r="2" fill="#1f77b4"/>
<circle cx="552.7" cy="85.4" r="2" fill="#1f77b4"/>
<circle cx="599.3" cy="105.4" r="2" fill="#1f77b4"/>
<circle cx="622.7" cy="117.4" r="2" fill="#1f77b4"/>
<circle cx="646.0" cy="119.8" r="2" fill="#1f77b4"/>
<circle cx="669.3" cy="126.0" r="2" fill="#1f77b4"/>
<circle cx="692.7" cy="132.8" r="2" fill="#1f77b4"/>
<circle cx="716.0" cy="139.1" r="2" fill="#1f77b4"/>
<text x="611.0" y="55" text-anchor="middle" font-size="12" font-weight="bold">getrf</text>
<line x1="506.0" y1="60" x2="506.0" y2="198" stroke="#f4f4f4"/>
<text x="506.0" y="209" text-anchor="middle" font-size="8" fill="#999">8</text>
<line x1="552.7" y1="60" x2="552.7" y2="198" stroke="#f4f4f4"/>
<text x="552.7" y="209" text-anchor="middle" font-size="8" fill="#999">32</text>
<line x1="599.3" y1="60" x2="599.3" y2="198" stroke="#f4f4f4"/>
<text x="599.3" y="209" text-anchor="middle" font-size="8" fill="#999">128</text>
<line x1="622.7" y1="60" x2="622.7" y2="198" stroke="#f4f4f4"/>
<text x="622.7" y="209" text-anchor="middle" font-size="8" fill="#999">256</text>
<line x1="646.0" y1="60" x2="646.0" y2="198" stroke="#f4f4f4"/>
<text x="646.0" y="209" text-anchor="middle" font-size="8" fill="#999">512</text>
<line x1="669.3" y1="60" x2="669.3" y2="198" stroke="#f4f4f4"/>
<text x="669.3" y="209" text-anchor="middle" font-size="8" fill="#999">1k</text>
<line x1="692.7" y1="60" x2="692.7" y2="198" stroke="#f4f4f4"/>
<text x="692.7" y="209" text-anchor="middle" font-size="8" fill="#999">2k</text>
<line x1="716.0" y1="60" x2="716.0" y2="198" stroke="#f4f4f4"/>
<text x="716.0" y="209" text-anchor="middle" font-size="8" fill="#999">4k</text>
<rect x="736" y="60" width="210" height="138" fill="none" stroke="#e2e2e2"/>
<line x1="736" y1="124.29986732194365" x2="946" y2="124.29986732194365" stroke="#d33" stroke-dasharray="4 3"/>
<text x="732" y="201.0" text-anchor="end" font-size="9" fill="#999">0.5×</text>
<text x="732" y="127.29986732194365" text-anchor="end" font-size="9" fill="#999">1.0×</text>
<text x="732" y="63.04487475228618" text-anchor="end" font-size="9" fill="#999">1.83×</text>
<polygon points="736.0,68.2 788.5,87.9 841.0,95.8 867.2,98.1 893.5,89.8 919.8,95.3 946.0,103.7 946.0,113.0 919.8,101.7 893.5,92.2 867.2,98.9 841.0,101.2 788.5,100.9 736.0,69.9" fill="#d62728" opacity="0.11"/>
<polyline points="736.0,69.5 788.5,96.6 841.0,101.0 867.2,98.7 893.5,92.0 919.8,99.9 946.0,109.2" fill="none" stroke="#d62728" stroke-width="1.6"/>
<circle cx="736.0" cy="69.5" r="2" fill="#d62728"/>
<circle cx="788.5" cy="96.6" r="2" fill="#d62728"/>
<circle cx="841.0" cy="101.0" r="2" fill="#d62728"/>
<circle cx="867.2" cy="98.7" r="2" fill="#d62728"/>
<circle cx="893.5" cy="92.0" r="2" fill="#d62728"/>
<circle cx="919.8" cy="99.9" r="2" fill="#d62728"/>
<circle cx="946.0" cy="109.2" r="2" fill="#d62728"/>
<polygon points="736.0,72.6 788.5,94.7 841.0,105.1 867.2,98.2 893.5,98.4 919.8,94.5 946.0,114.6 946.0,120.8 919.8,110.0 893.5,100.4 867.2,99.0 841.0,113.4 788.5,98.8 736.0,78.0" fill="#2ca02c" opacity="0.11"/>
<polyline points="736.0,76.5 788.5,98.0 841.0,110.2 867.2,98.5 893.5,99.8 919.8,108.6 946.0,116.8" fill="none" stroke="#2ca02c" stroke-width="1.6"/>
<circle cx="736.0" cy="76.5" r="2" fill="#2ca02c"/>
<circle cx="788.5" cy="98.0" r="2" fill="#2ca02c"/>
<circle cx="841.0" cy="110.2" r="2" fill="#2ca02c"/>
<circle cx="867.2" cy="98.5" r="2" fill="#2ca02c"/>
<circle cx="893.5" cy="99.8" r="2" fill="#2ca02c"/>
<circle cx="919.8" cy="108.6" r="2" fill="#2ca02c"/>
<circle cx="946.0" cy="116.8" r="2" fill="#2ca02c"/>
<polygon points="736.0,70.2 788.5,84.3 841.0,106.8 867.2,94.8 893.5,88.1 919.8,92.9 946.0,86.7 946.0,107.9 919.8,98.7 893.5,92.4 867.2,95.9 841.0,111.0 788.5,97.3 736.0,79.6" fill="#1f77b4" opacity="0.11"/>
<polyline points="736.0,71.7 788.5,96.9 841.0,110.1 867.2,95.3 893.5,91.0 919.8,97.2 946.0,104.3" fill="none" stroke="#1f77b4" stroke-width="1.6"/>
<circle cx="736.0" cy="71.7" r="2" fill="#1f77b4"/>
<circle cx="788.5" cy="96.9" r="2" fill="#1f77b4"/>
<circle cx="841.0" cy="110.1" r="2" fill="#1f77b4"/>
<circle cx="867.2" cy="95.3" r="2" fill="#1f77b4"/>
<circle cx="893.5" cy="91.0" r="2" fill="#1f77b4"/>
<circle cx="919.8" cy="97.2" r="2" fill="#1f77b4"/>
<circle cx="946.0" cy="104.3" r="2" fill="#1f77b4"/>
<text x="841.0" y="55" text-anchor="middle" font-size="12" font-weight="bold">gesvd</text>
<line x1="736.0" y1="60" x2="736.0" y2="198" stroke="#f4f4f4"/>
<text x="736.0" y="209" text-anchor="middle" font-size="8" fill="#999">8</text>
<line x1="788.5" y1="60" x2="788.5" y2="198" stroke="#f4f4f4"/>
<text x="788.5" y="209" text-anchor="middle" font-size="8" fill="#999">32</text>
<line x1="841.0" y1="60" x2="841.0" y2="198" stroke="#f4f4f4"/>
<text x="841.0" y="209" text-anchor="middle" font-size="8" fill="#999">128</text>
<line x1="867.2" y1="60" x2="867.2" y2="198" stroke="#f4f4f4"/>
<text x="867.2" y="209" text-anchor="middle" font-size="8" fill="#999">256</text>
<line x1="893.5" y1="60" x2="893.5" y2="198" stroke="#f4f4f4"/>
<text x="893.5" y="209" text-anchor="middle" font-size="8" fill="#999">512</text>
<line x1="919.8" y1="60" x2="919.8" y2="198" stroke="#f4f4f4"/>
<text x="919.8" y="209" text-anchor="middle" font-size="8" fill="#999">1k</text>
<line x1="946.0" y1="60" x2="946.0" y2="198" stroke="#f4f4f4"/>
<text x="946.0" y="209" text-anchor="middle" font-size="8" fill="#999">2k</text>
</svg>
