<svg xmlns="http://www.w3.org/2000/svg" width="900" height="440" font-family="sans-serif">
<rect width="900" height="440" fill="white"/>
<text x="450.0" y="28" text-anchor="middle" font-size="18" font-weight="bold">BLAS-2: PureBLAS / OpenBLAS (AVX-512 (Zen4), 1 thread, Float64)</text>
<line x1="60" y1="358.0" x2="880" y2="358.0" stroke="#eee"/>
<text x="52" y="362.0" text-anchor="end" font-size="11" fill="#666">0×</text>
<line x1="60" y1="314.63243314238235" x2="880" y2="314.63243314238235" stroke="#eee"/>
<text x="52" y="318.63243314238235" text-anchor="end" font-size="11" fill="#666">0.5×</text>
<line x1="60" y1="271.26486628476476" x2="880" y2="271.26486628476476" stroke="#eee"/>
<text x="52" y="275.26486628476476" text-anchor="end" font-size="11" fill="#666">1×</text>
<line x1="60" y1="227.89729942714712" x2="880" y2="227.89729942714712" stroke="#eee"/>
<text x="52" y="231.89729942714712" text-anchor="end" font-size="11" fill="#666">1.5×</text>
<line x1="60" y1="271.26486628476476" x2="880" y2="271.26486628476476" stroke="#888" stroke-width="1"/>
<line x1="60" y1="274.7342716333742" x2="880" y2="274.7342716333742" stroke="#d33" stroke-width="1.5" stroke-dasharray="6 4"/>
<text x="880" y="269.7342716333742" text-anchor="end" font-size="11" fill="#d33">0.96× gate</text>
<polygon points="107.2,300.7 108.0,298.5 109.0,296.4 110.3,294.2 112.0,292.1 114.1,289.9 116.6,287.8 119.5,285.6 122.7,283.5 126.2,281.4 129.7,279.2 133.2,277.1 136.4,274.9 139.2,272.8 141.4,270.6 143.0,268.5 143.8,266.3 143.8,264.2 143.2,262.0 141.9,259.9 140.3,257.7 138.2,255.6 136.1,253.5 133.8,251.3 131.5,249.2 129.3,247.0 127.2,244.9 125.1,242.7 123.1,240.6 121.2,238.4 119.3,236.3 117.5,234.1 115.7,232.0 114.2,229.9 112.7,227.7 111.5,225.6 110.4,223.4 109.6,221.3 108.9,219.1 108.4,217.0 108.1,214.8 108.0,212.7 108.0,210.5 108.1,208.4 108.3,206.2 108.6,204.1 109.0,202.0 109.4,199.8 109.9,197.7 110.3,195.5 110.7,193.4 111.1,191.2 111.3,189.1 111.5,186.9 111.6,184.8 111.6,182.6 111.5,180.5 111.3,178.4 111.0,176.2 110.7,174.1 110.3,171.9 109.8,169.8 109.4,167.6 108.9,165.5 108.4,163.3 108.0,161.2 107.5,159.0 107.1,156.9 106.8,154.7 106.5,152.6 106.3,150.5 106.1,148.3 105.0,148.3 104.8,150.5 104.6,152.6 104.3,154.7 104.0,156.9 103.6,159.0 103.1,161.2 102.7,163.3 102.2,165.5 101.7,167.6 101.3,169.8 100.8,171.9 100.4,174.1 100.1,176.2 99.8,178.4 99.6,180.5 99.5,182.6 99.5,184.8 99.6,186.9 99.8,189.1 100.0,191.2 100.4,193.4 100.8,195.5 101.2,197.7 101.7,199.8 102.1,202.0 102.5,204.1 102.8,206.2 103.0,208.4 103.1,210.5 103.1,212.7 103.0,214.8 102.7,217.0 102.2,219.1 101.5,221.3 100.7,223.4 99.6,225.6 98.4,227.7 97.0,229.9 95.4,232.0 93.6,234.1 91.8,236.3 89.9,238.4 88.0,240.6 86.0,242.7 83.9,244.9 81.8,247.0 79.6,249.2 77.3,251.3 75.1,253.5 72.9,255.6 70.9,257.7 69.2,259.9 67.9,262.0 67.3,264.2 67.3,266.3 68.1,268.5 69.7,270.6 71.9,272.8 74.7,274.9 77.9,277.1 81.4,279.2 85.0,281.4 88.4,283.5 91.6,285.6 94.5,287.8 97.0,289.9 99.1,292.1 100.8,294.2 102.1,296.4 103.1,298.5 103.9,300.7" fill="#d33" opacity="0.5" stroke="#d33" stroke-width="1"/>
<line x1="67.7" y1="262.6892408449081" x2="143.4" y2="262.6892408449081" stroke="#114" stroke-width="2"/>
<circle cx="105.55555555555556" cy="275.38333181266796" r="2.4" fill="#114"/>
<text x="105.55555555555556" y="157.1931207890871" text-anchor="middle" font-size="11">1.10</text>
<text x="105.55555555555556" y="376" text-anchor="middle" font-size="12">gemvN</text>
<polygon points="197.8,281.2 198.4,280.4 199.2,279.6 200.3,278.9 201.6,278.1 203.4,277.3 205.4,276.5 207.9,275.7 210.8,274.9 213.9,274.1 217.3,273.4 220.7,272.6 224.2,271.8 227.4,271.0 230.2,270.2 232.4,269.4 234.0,268.6 234.8,267.9 234.9,267.1 234.3,266.3 233.1,265.5 231.5,264.7 229.6,263.9 227.5,263.2 225.5,262.4 223.5,261.6 221.7,260.8 220.0,260.0 218.5,259.2 217.1,258.4 215.9,257.7 214.8,256.9 213.9,256.1 213.3,255.3 212.9,254.5 212.7,253.7 212.9,252.9 213.3,252.2 213.9,251.4 214.6,250.6 215.3,249.8 215.8,249.0 216.1,248.2 216.0,247.4 215.5,246.7 214.5,245.9 213.1,245.1 211.3,244.3 209.3,243.5 207.3,242.7 205.3,241.9 203.5,241.2 201.9,240.4 200.6,239.6 199.5,238.8 198.7,238.0 198.1,237.2 197.8,236.5 197.5,235.7 197.4,234.9 197.3,234.1 197.3,233.3 197.3,232.5 197.3,231.7 197.3,231.0 197.3,230.2 197.2,229.4 197.2,228.6 197.1,227.8 197.0,227.0 196.9,226.2 196.9,225.5 196.5,225.5 196.4,226.2 196.3,227.0 196.2,227.8 196.1,228.6 196.1,229.4 196.0,230.2 196.0,231.0 196.0,231.7 196.0,232.5 196.0,233.3 196.0,234.1 196.0,234.9 195.8,235.7 195.6,236.5 195.2,237.2 194.6,238.0 193.8,238.8 192.8,239.6 191.4,240.4 189.8,241.2 188.0,241.9 186.0,242.7 184.0,243.5 182.0,244.3 180.3,245.1 178.8,245.9 177.8,246.7 177.3,247.4 177.2,248.2 177.5,249.0 178.1,249.8 178.8,250.6 179.5,251.4 180.1,252.2 180.5,252.9 180.6,253.7 180.5,254.5 180.1,255.3 179.4,256.1 178.5,256.9 177.4,257.7 176.2,258.4 174.8,259.2 173.3,260.0 171.6,260.8 169.8,261.6 167.9,262.4 165.8,263.2 163.8,263.9 161.8,264.7 160.2,265.5 159.0,266.3 158.4,267.1 158.5,267.9 159.3,268.6 160.9,269.4 163.2,270.2 166.0,271.0 169.2,271.8 172.6,272.6 176.1,273.4 179.4,274.1 182.6,274.9 185.4,275.7 187.9,276.5 190.0,277.3 191.7,278.1 193.1,278.9 194.1,279.6 194.9,280.4 195.5,281.2" fill="#2a8" opacity="0.5" stroke="#2a8" stroke-width="1"/>
<line x1="162.4" y1="264.47274321764996" x2="230.9" y2="264.47274321764996" stroke="#114" stroke-width="2"/>
<circle cx="196.66666666666669" cy="270.36428068495036" r="2.4" fill="#114"/>
<text x="196.66666666666669" y="224.99459145430285" text-anchor="middle" font-size="11">1.08</text>
<text x="196.66666666666669" y="376" text-anchor="middle" font-size="12">gemvT</text>
<polygon points="287.9,278.7 288.0,278.1 288.1,277.5 288.3,276.9 288.7,276.3 289.2,275.7 289.9,275.1 291.0,274.6 292.5,274.0 294.4,273.4 296.8,272.8 299.4,272.2 302.3,271.6 305.2,271.0 307.9,270.4 310.4,269.9 312.6,269.3 314.5,268.7 316.2,268.1 317.9,267.5 319.5,266.9 321.2,266.3 322.9,265.8 324.5,265.2 325.6,264.6 326.0,264.0 325.7,263.4 324.5,262.8 322.6,262.2 320.1,261.6 317.5,261.1 314.9,260.5 312.6,259.9 310.6,259.3 308.7,258.7 306.9,258.1 305.0,257.5 302.9,257.0 300.7,256.4 298.5,255.8 296.4,255.2 294.6,254.6 293.0,254.0 291.8,253.4 290.9,252.9 290.2,252.3 289.8,251.7 289.5,251.1 289.3,250.5 289.2,249.9 289.1,249.3 289.0,248.7 288.8,248.2 288.6,247.6 288.5,247.0 288.3,246.4 288.2,245.8 288.1,245.2 288.1,244.6 288.1,244.1 288.2,243.5 288.3,242.9 288.4,242.3 288.4,241.7 288.5,241.1 288.4,240.5 288.3,240.0 288.2,239.4 288.1,238.8 288.0,238.2 287.9,237.6 287.9,237.0 287.7,237.0 287.6,237.6 287.6,238.2 287.4,238.8 287.3,239.4 287.2,240.0 287.1,240.5 287.1,241.1 287.1,241.7 287.2,242.3 287.3,242.9 287.4,243.5 287.5,244.1 287.5,244.6 287.5,245.2 287.4,245.8 287.3,246.4 287.1,247.0 286.9,247.6 286.7,248.2 286.6,248.7 286.4,249.3 286.3,249.9 286.2,250.5 286.1,251.1 285.8,251.7 285.3,252.3 284.7,252.9 283.8,253.4 282.5,254.0 281.0,254.6 279.1,255.2 277.1,255.8 274.9,256.4 272.7,257.0 270.6,257.5 268.7,258.1 266.8,258.7 265.0,259.3 262.9,259.9 260.6,260.5 258.1,261.1 255.4,261.6 253.0,262.2 251.0,262.8 249.8,263.4 249.5,264.0 250.0,264.6 251.1,265.2 252.6,265.8 254.3,266.3 256.0,266.9 257.7,267.5 259.3,268.1 261.1,268.7 263.0,269.3 265.2,269.9 267.6,270.4 270.4,271.0 273.3,271.6 276.1,272.2 278.8,272.8 281.1,273.4 283.0,274.0 284.5,274.6 285.6,275.1 286.4,275.7 286.9,276.3 287.2,276.9 287.5,277.5 287.6,278.1 287.7,278.7" fill="#2a8" opacity="0.5" stroke="#2a8" stroke-width="1"/>
<line x1="249.5" y1="263.9603227531045" x2="326.0" y2="263.9603227531045" stroke="#114" stroke-width="2"/>
<circle cx="287.77777777777777" cy="269.7600195784936" r="2.4" fill="#114"/>
<text x="287.77777777777777" y="235.18980627604304" text-anchor="middle" font-size="11">1.08</text>
<text x="287.77777777777777" y="376" text-anchor="middle" font-size="12">ger</text>
<polygon points="379.0,281.9 379.1,280.8 379.2,279.7 379.4,278.6 379.6,277.5 379.9,276.4 380.2,275.4 380.5,274.3 380.8,273.2 381.1,272.1 381.5,271.0 382.0,269.9 382.7,268.8 383.8,267.8 385.2,266.7 387.1,265.6 389.6,264.5 392.8,263.4 396.5,262.3 400.7,261.2 405.0,260.1 409.2,259.1 412.9,258.0 415.5,256.9 417.0,255.8 417.2,254.7 416.4,253.6 414.9,252.5 413.3,251.5 411.8,250.4 410.6,249.3 409.7,248.2 409.0,247.1 408.1,246.0 407.2,244.9 406.0,243.8 404.8,242.8 403.5,241.7 402.2,240.6 400.9,239.5 399.6,238.4 398.1,237.3 396.4,236.2 394.4,235.2 392.2,234.1 389.9,233.0 387.6,231.9 385.5,230.8 383.7,229.7 382.4,228.6 381.4,227.5 380.9,226.5 380.6,225.4 380.5,224.3 380.4,223.2 380.4,222.1 380.3,221.0 380.1,219.9 380.0,218.9 379.8,217.8 379.7,216.7 379.7,215.6 379.7,214.5 379.6,213.4 379.6,212.3 379.6,211.3 379.5,210.2 379.4,209.1 379.3,208.0 379.1,206.9 379.1,205.8 379.0,204.7 378.8,204.7 378.7,205.8 378.6,206.9 378.5,208.0 378.4,209.1 378.3,210.2 378.2,211.3 378.2,212.3 378.1,213.4 378.1,214.5 378.1,215.6 378.1,216.7 378.0,217.8 377.8,218.9 377.6,219.9 377.5,221.0 377.4,222.1 377.4,223.2 377.3,224.3 377.2,225.4 376.9,226.5 376.4,227.5 375.4,228.6 374.1,229.7 372.3,230.8 370.2,231.9 367.9,233.0 365.5,234.1 363.3,235.2 361.3,236.2 359.6,237.3 358.2,238.4 356.8,239.5 355.6,240.6 354.3,241.7 353.0,242.8 351.7,243.8 350.6,244.9 349.6,246.0 348.8,247.1 348.0,248.2 347.1,249.3 345.9,250.4 344.5,251.5 342.8,252.5 341.4,253.6 340.6,254.7 340.8,255.8 342.3,256.9 344.9,258.0 348.5,259.1 352.7,260.1 357.1,261.2 361.3,262.3 365.0,263.4 368.1,264.5 370.7,265.6 372.6,266.7 374.0,267.8 375.0,268.8 375.8,269.9 376.3,271.0 376.7,272.1 377.0,273.2 377.3,274.3 377.6,275.4 377.9,276.4 378.2,277.5 378.4,278.6 378.6,279.7 378.7,280.8 378.8,281.9" fill="#2a8" opacity="0.5" stroke="#2a8" stroke-width="1"/>
<line x1="345.9" y1="250.43898589937066" x2="411.9" y2="250.43898589937066" stroke="#114" stroke-width="2"/>
<circle cx="378.8888888888889" cy="257.65028990296094" r="2.4" fill="#114"/>
<text x="378.8888888888889" y="206.33696101849958" text-anchor="middle" font-size="11">1.24</text>
<text x="378.8888888888889" y="376" text-anchor="middle" font-size="12">symv</text>
<polygon points="470.1,307.2 470.1,305.6 470.2,304.0 470.3,302.4 470.5,300.8 470.6,299.2 470.7,297.6 470.7,296.0 470.7,294.4 470.6,292.8 470.5,291.2 470.4,289.5 470.3,287.9 470.4,286.3 470.6,284.7 471.0,283.1 471.7,281.5 472.9,279.9 474.5,278.3 476.8,276.7 479.8,275.1 483.4,273.5 487.4,271.9 491.6,270.3 495.5,268.7 498.8,267.1 501.4,265.5 503.2,263.9 504.4,262.3 505.4,260.7 506.4,259.1 507.4,257.5 508.1,255.9 508.3,254.3 507.6,252.7 505.9,251.1 503.3,249.5 500.1,247.9 496.8,246.3 493.7,244.7 491.3,243.1 489.4,241.5 488.1,239.9 487.2,238.3 486.4,236.6 485.5,235.0 484.1,233.4 482.4,231.8 480.3,230.2 478.2,228.6 476.2,227.0 474.4,225.4 473.1,223.8 472.1,222.2 471.5,220.6 471.1,219.0 470.9,217.4 470.9,215.8 470.9,214.2 471.0,212.6 471.0,211.0 471.1,209.4 471.1,207.8 471.0,206.2 470.9,204.6 470.8,203.0 470.7,201.4 470.5,199.8 470.4,198.2 470.2,196.6 470.1,195.0 470.1,193.4 469.9,193.4 469.9,195.0 469.8,196.6 469.6,198.2 469.5,199.8 469.3,201.4 469.2,203.0 469.1,204.6 469.0,206.2 468.9,207.8 468.9,209.4 469.0,211.0 469.0,212.6 469.1,214.2 469.1,215.8 469.1,217.4 468.9,219.0 468.5,220.6 467.9,222.2 466.9,223.8 465.6,225.4 463.8,227.0 461.8,228.6 459.7,230.2 457.6,231.8 455.9,233.4 454.5,235.0 453.6,236.6 452.8,238.3 451.9,239.9 450.6,241.5 448.7,243.1 446.3,244.7 443.2,246.3 439.9,247.9 436.7,249.5 434.1,251.1 432.4,252.7 431.7,254.3 431.9,255.9 432.6,257.5 433.6,259.1 434.6,260.7 435.6,262.3 436.8,263.9 438.6,265.5 441.2,267.1 444.5,268.7 448.4,270.3 452.6,271.9 456.6,273.5 460.2,275.1 463.2,276.7 465.5,278.3 467.1,279.9 468.3,281.5 469.0,283.1 469.4,284.7 469.6,286.3 469.7,287.9 469.6,289.5 469.5,291.2 469.4,292.8 469.3,294.4 469.3,296.0 469.3,297.6 469.4,299.2 469.5,300.8 469.7,302.4 469.8,304.0 469.9,305.6 469.9,307.2" fill="#2a8" opacity="0.5" stroke="#2a8" stroke-width="1"/>
<line x1="431.7" y1="254.21259732109095" x2="508.3" y2="254.21259732109095" stroke="#114" stroke-width="2"/>
<circle cx="470.0" cy="267.6670422372688" r="2.4" fill="#114"/>
<text x="470.0" y="198.51972051752264" text-anchor="middle" font-size="11">1.20</text>
<text x="470.0" y="376" text-anchor="middle" font-size="12">trmv</text>
<polygon points="561.4,281.3 561.6,280.5 561.9,279.7 562.4,278.9 562.9,278.0 563.6,277.2 564.5,276.4 565.5,275.6 566.7,274.8 568.1,274.0 569.7,273.2 571.6,272.4 573.8,271.6 576.2,270.8 578.9,270.0 581.8,269.2 584.8,268.3 587.9,267.5 590.7,266.7 593.2,265.9 595.4,265.1 597.0,264.3 598.2,263.5 599.0,262.7 599.3,261.9 599.4,261.1 599.1,260.3 598.4,259.4 597.4,258.6 596.1,257.8 594.3,257.0 592.3,256.2 590.0,255.4 587.7,254.6 585.5,253.8 583.4,253.0 581.4,252.2 579.6,251.4 577.9,250.6 576.3,249.7 574.7,248.9 573.2,248.1 571.7,247.3 570.4,246.5 569.2,245.7 568.2,244.9 567.4,244.1 566.6,243.3 566.0,242.5 565.5,241.7 565.0,240.8 564.5,240.0 564.1,239.2 563.7,238.4 563.3,237.6 563.0,236.8 562.6,236.0 562.4,235.2 562.2,234.4 562.0,233.6 561.9,232.8 561.9,232.0 561.9,231.1 561.9,230.3 561.8,229.5 561.8,228.7 561.7,227.9 561.6,227.1 561.5,226.3 561.4,225.5 561.3,224.7 561.2,223.9 561.0,223.9 560.9,224.7 560.8,225.5 560.7,226.3 560.6,227.1 560.5,227.9 560.4,228.7 560.4,229.5 560.4,230.3 560.4,231.1 560.3,232.0 560.3,232.8 560.2,233.6 560.1,234.4 559.9,235.2 559.6,236.0 559.3,236.8 558.9,237.6 558.5,238.4 558.1,239.2 557.7,240.0 557.2,240.8 556.7,241.7 556.2,242.5 555.6,243.3 554.8,244.1 554.0,244.9 553.0,245.7 551.8,246.5 550.5,247.3 549.0,248.1 547.5,248.9 545.9,249.7 544.3,250.6 542.6,251.4 540.8,252.2 538.8,253.0 536.7,253.8 534.5,254.6 532.2,255.4 530.0,256.2 527.9,257.0 526.2,257.8 524.8,258.6 523.8,259.4 523.1,260.3 522.8,261.1 522.9,261.9 523.2,262.7 524.0,263.5 525.2,264.3 526.8,265.1 529.0,265.9 531.5,266.7 534.4,267.5 537.4,268.3 540.4,269.2 543.3,270.0 546.0,270.8 548.5,271.6 550.6,272.4 552.5,273.2 554.1,274.0 555.5,274.8 556.7,275.6 557.7,276.4 558.6,277.2 559.3,278.0 559.9,278.9 560.3,279.7 560.6,280.5 560.8,281.3" fill="#2a8" opacity="0.5" stroke="#2a8" stroke-width="1"/>
<line x1="523.2" y1="260.16826875007155" x2="599.0" y2="260.16826875007155" stroke="#114" stroke-width="2"/>
<circle cx="561.1111111111111" cy="266.4595717510882" r="2.4" fill="#114"/>
<text x="561.1111111111111" y="223.5644004083069" text-anchor="middle" font-size="11">1.13</text>
<text x="561.1111111111111" y="376" text-anchor="middle" font-size="12">trsv</text>
<polygon points="652.3,358.0 652.3,353.7 652.4,349.3 652.5,345.0 652.7,340.6 652.7,336.3 652.7,332.0 652.7,327.6 652.5,323.3 652.4,319.0 652.3,314.6 652.3,310.3 652.2,305.9 652.2,301.6 652.3,297.3 652.5,292.9 653.0,288.6 654.0,284.3 655.8,279.9 658.5,275.6 661.4,271.2 664.0,266.9 665.8,262.6 666.9,258.2 668.1,253.9 670.2,249.5 673.6,245.2 678.4,240.9 683.8,236.5 688.3,232.2 690.5,227.9 689.4,223.5 685.4,219.2 679.8,214.8 674.0,210.5 669.0,206.2 664.9,201.8 661.8,197.5 659.4,193.2 657.5,188.8 656.0,184.5 654.9,180.1 654.1,175.8 653.5,171.5 653.1,167.1 652.8,162.8 652.5,158.5 652.4,154.1 652.3,149.8 652.2,145.4 652.2,141.1 652.2,136.8 652.2,132.4 652.2,128.1 652.2,123.7 652.2,119.4 652.2,115.1 652.2,110.7 652.2,106.4 652.2,102.1 652.2,97.7 652.2,93.4 652.3,89.0 652.3,84.7 652.5,80.4 652.6,76.0 652.7,71.7 652.8,67.4 652.7,63.0 652.6,58.7 652.5,54.3 652.3,50.0 652.1,50.0 652.0,54.3 651.9,58.7 651.7,63.0 651.7,67.4 651.7,71.7 651.8,76.0 652.0,80.4 652.1,84.7 652.2,89.0 652.2,93.4 652.2,97.7 652.2,102.1 652.2,106.4 652.2,110.7 652.2,115.1 652.2,119.4 652.2,123.7 652.2,128.1 652.2,132.4 652.2,136.8 652.2,141.1 652.2,145.4 652.2,149.8 652.1,154.1 651.9,158.5 651.7,162.8 651.4,167.1 650.9,171.5 650.4,175.8 649.6,180.1 648.5,184.5 647.0,188.8 645.0,193.2 642.6,197.5 639.5,201.8 635.5,206.2 630.5,210.5 624.6,214.8 619.0,219.2 615.0,223.5 614.0,227.9 616.1,232.2 620.7,236.5 626.0,240.9 630.8,245.2 634.3,249.5 636.4,253.9 637.5,258.2 638.6,262.6 640.4,266.9 643.0,271.2 646.0,275.6 648.6,279.9 650.4,284.3 651.5,288.6 652.0,292.9 652.1,297.3 652.2,301.6 652.2,305.9 652.2,310.3 652.1,314.6 652.0,319.0 651.9,323.3 651.8,327.6 651.7,332.0 651.7,336.3 651.8,340.6 651.9,345.0 652.0,349.3 652.1,353.7 652.2,358.0" fill="#2a8" opacity="0.5" stroke="#2a8" stroke-width="1"/>
<line x1="614.1" y1="228.69564602551964" x2="690.3" y2="228.69564602551964" stroke="#114" stroke-width="2"/>
<circle cx="652.2222222222223" cy="264.66767976779204" r="2.4" fill="#114"/>
<text x="652.2222222222223" y="61.433962264150935" text-anchor="middle" font-size="11">1.49</text>
<text x="652.2222222222223" y="376" text-anchor="middle" font-size="12">spmv</text>
<polygon points="743.4,320.4 743.4,318.4 743.5,316.4 743.6,314.5 743.7,312.5 743.8,310.6 743.9,308.6 743.9,306.6 743.9,304.7 743.8,302.7 743.7,300.8 743.6,298.8 743.5,296.9 743.5,294.9 743.5,292.9 743.6,291.0 743.7,289.0 743.9,287.1 744.0,285.1 744.0,283.1 744.1,281.2 744.1,279.2 744.2,277.3 744.4,275.3 744.6,273.3 744.9,271.4 745.3,269.4 745.7,267.5 746.2,265.5 746.8,263.5 747.8,261.6 749.2,259.6 751.2,257.7 753.8,255.7 756.9,253.7 760.4,251.8 764.0,249.8 767.7,247.9 771.3,245.9 774.9,243.9 778.1,242.0 780.5,240.0 781.6,238.1 781.0,236.1 778.8,234.1 775.2,232.2 771.0,230.2 766.6,228.3 762.5,226.3 758.9,224.3 755.9,222.4 753.5,220.4 751.7,218.5 750.3,216.5 749.2,214.6 748.3,212.6 747.6,210.6 747.0,208.7 746.4,206.7 745.9,204.8 745.5,202.8 745.1,200.8 744.9,198.9 744.7,196.9 744.5,195.0 744.3,193.0 744.1,191.0 743.8,189.1 743.6,187.1 743.5,185.2 743.4,183.2 743.4,181.2 743.3,181.2 743.3,183.2 743.2,185.2 743.0,187.1 742.8,189.1 742.6,191.0 742.4,193.0 742.1,195.0 741.9,196.9 741.8,198.9 741.5,200.8 741.2,202.8 740.8,204.8 740.3,206.7 739.7,208.7 739.0,210.6 738.3,212.6 737.5,214.6 736.4,216.5 735.0,218.5 733.1,220.4 730.7,222.4 727.8,224.3 724.2,226.3 720.1,228.3 715.7,230.2 711.4,232.2 707.9,234.1 705.6,236.1 705.1,238.1 706.1,240.0 708.5,242.0 711.7,243.9 715.3,245.9 719.0,247.9 722.7,249.8 726.3,251.8 729.7,253.7 732.8,255.7 735.4,257.7 737.4,259.6 738.9,261.6 739.8,263.5 740.5,265.5 741.0,267.5 741.4,269.4 741.8,271.4 742.1,273.3 742.3,275.3 742.4,277.3 742.5,279.2 742.6,281.2 742.6,283.1 742.7,285.1 742.8,287.1 742.9,289.0 743.0,291.0 743.1,292.9 743.2,294.9 743.2,296.9 743.1,298.8 743.0,300.8 742.9,302.7 742.8,304.7 742.8,306.6 742.8,308.6 742.9,310.6 743.0,312.5 743.1,314.5 743.2,316.4 743.3,318.4 743.3,320.4" fill="#2a8" opacity="0.5" stroke="#2a8" stroke-width="1"/>
<line x1="705.0" y1="237.82784723952096" x2="781.6" y2="237.82784723952096" stroke="#114" stroke-width="2"/>
<circle cx="743.3333333333334" cy="244.18081407308733" r="2.4" fill="#114"/>
<text x="743.3333333333334" y="188.84457343137674" text-anchor="middle" font-size="11">1.39</text>
<text x="743.3333333333334" y="376" text-anchor="middle" font-size="12">gbmvN</text>
<polygon points="834.5,302.3 834.5,300.8 834.6,299.2 834.7,297.6 834.8,296.1 835.0,294.5 835.1,293.0 835.3,291.4 835.4,289.9 835.4,288.3 835.5,286.7 835.5,285.2 835.6,283.6 835.6,282.1 835.5,280.5 835.6,278.9 835.7,277.4 835.9,275.8 836.5,274.3 837.4,272.7 839.0,271.2 841.3,269.6 844.6,268.0 848.7,266.5 853.4,264.9 858.2,263.4 862.8,261.8 866.8,260.3 869.8,258.7 871.8,257.1 872.7,255.6 872.4,254.0 871.0,252.5 868.5,250.9 865.1,249.4 861.4,247.8 857.7,246.2 854.2,244.7 851.0,243.1 848.1,241.6 845.4,240.0 843.0,238.5 840.9,236.9 839.1,235.3 837.8,233.8 837.0,232.2 836.7,230.7 836.7,229.1 836.9,227.6 837.2,226.0 837.4,224.4 837.5,222.9 837.4,221.3 837.1,219.8 836.8,218.2 836.4,216.7 836.0,215.1 835.6,213.5 835.4,212.0 835.3,210.4 835.4,208.9 835.4,207.3 835.4,205.8 835.4,204.2 835.4,202.6 835.2,201.1 835.1,199.5 834.9,198.0 834.7,196.4 834.6,194.9 834.5,193.3 834.5,191.7 834.4,191.7 834.3,193.3 834.3,194.9 834.2,196.4 834.0,198.0 833.8,199.5 833.7,201.1 833.5,202.6 833.5,204.2 833.5,205.8 833.5,207.3 833.5,208.9 833.5,210.4 833.5,212.0 833.2,213.5 832.9,215.1 832.5,216.7 832.1,218.2 831.7,219.8 831.5,221.3 831.4,222.9 831.5,224.4 831.7,226.0 832.0,227.6 832.2,229.1 832.2,230.7 831.9,232.2 831.1,233.8 829.8,235.3 828.0,236.9 825.9,238.5 823.5,240.0 820.8,241.6 817.9,243.1 814.7,244.7 811.2,246.2 807.5,247.8 803.8,249.4 800.4,250.9 797.9,252.5 796.4,254.0 796.2,255.6 797.1,257.1 799.1,258.7 802.1,260.3 806.1,261.8 810.7,263.4 815.5,264.9 820.2,266.5 824.3,268.0 827.6,269.6 829.9,271.2 831.5,272.7 832.4,274.3 833.0,275.8 833.2,277.4 833.3,278.9 833.4,280.5 833.3,282.1 833.3,283.6 833.3,285.2 833.4,286.7 833.4,288.3 833.5,289.9 833.6,291.4 833.8,293.0 833.9,294.5 834.1,296.1 834.2,297.6 834.3,299.2 834.4,300.8 834.4,302.3" fill="#2a8" opacity="0.5" stroke="#2a8" stroke-width="1"/>
<line x1="796.8" y1="253.4851293446691" x2="872.1" y2="253.4851293446691" stroke="#114" stroke-width="2"/>
<circle cx="834.4444444444445" cy="261.2853189029548" r="2.4" fill="#114"/>
<text x="834.4444444444445" y="196.58602412609415" text-anchor="middle" font-size="11">1.20</text>
<text x="834.4444444444445" y="376" text-anchor="middle" font-size="12">sbmv</text>
<text x="450.0" y="428" text-anchor="middle" font-size="11" fill="#666">violin = ratio distribution over sizes · line = median · dark dot = worst size · green = every size ≥ gate</text>
</svg>
