<svg xmlns="http://www.w3.org/2000/svg" width="962" height="248" font-family="sans-serif">
<rect width="962" height="248" fill="white"/>
<text x="481.0" y="26" text-anchor="middle" font-size="17" font-weight="bold">Complex LAPACK — PureBLAS / OpenBLAS (PB/OpenBLAS ratio)</text>
<line x1="46" y1="42" x2="68" y2="42" stroke="#d62728" stroke-width="3"/>
<text x="73" y="46" font-size="12">Zen3 · AVX2</text>
<line x1="176" y1="42" x2="198" y2="42" stroke="#2ca02c" stroke-width="3"/>
<text x="203" y="46" font-size="12">Zen5 · AVX-512</text>
<line x1="327" y1="42" x2="349" y2="42" stroke="#1f77b4" stroke-width="3"/>
<text x="354" y="46" font-size="12">Zen4 · AVX-512</text>
<rect x="46" y="60" width="210" height="138" fill="none" stroke="#e2e2e2"/>
<line x1="46" y1="145.32271289764142" x2="256" y2="145.32271289764142" stroke="#d33" stroke-dasharray="4 3"/>
<text x="42" y="201.0" text-anchor="end" font-size="9" fill="#999">0.5×</text>
<text x="42" y="148.32271289764142" text-anchor="end" font-size="9" fill="#999">1.0×</text>
<text x="42" y="63.07829063670489" text-anchor="end" font-size="9" fill="#999">3.07×</text>
<polygon points="46.0,109.0 98.5,129.3 151.0,142.5 177.2,144.6 203.5,141.6 229.8,139.4 256.0,139.2 256.0,139.8 229.8,140.0 203.5,142.3 177.2,145.2 151.0,142.9 98.5,129.7 46.0,110.0" fill="#d62728" opacity="0.11"/>
<polyline points="46.0,109.4 98.5,129.5 151.0,142.7 177.2,145.0 203.5,141.8 229.8,139.7 256.0,139.4" fill="none" stroke="#d62728" stroke-width="1.6"/>
<circle cx="46.0" cy="109.4" r="2" fill="#d62728"/>
<circle cx="98.5" cy="129.5" r="2" fill="#d62728"/>
<circle cx="151.0" cy="142.7" r="2" fill="#d62728"/>
<circle cx="177.2" cy="145.0" r="2" fill="#d62728"/>
<circle cx="203.5" cy="141.8" r="2" fill="#d62728"/>
<circle cx="229.8" cy="139.7" r="2" fill="#d62728"/>
<circle cx="256.0" cy="139.4" r="2" fill="#d62728"/>
<polygon points="46.0,111.0 98.5,121.0 151.0,65.8 177.2,125.3 203.5,119.5 229.8,127.3 256.0,131.2 256.0,131.8 229.8,128.7 203.5,133.4 177.2,140.8 151.0,140.4 98.5,145.4 46.0,113.4" fill="#2ca02c" opacity="0.11"/>
<polyline points="46.0,111.7 98.5,143.2 151.0,128.1 177.2,127.8 203.5,119.9 229.8,128.3 256.0,131.4" fill="none" stroke="#2ca02c" stroke-width="1.6"/>
<circle cx="46.0" cy="111.7" r="2" fill="#2ca02c"/>
<circle cx="98.5" cy="143.2" r="2" fill="#2ca02c"/>
<circle cx="151.0" cy="128.1" r="2" fill="#2ca02c"/>
<circle cx="177.2" cy="127.8" r="2" fill="#2ca02c"/>
<circle cx="203.5" cy="119.9" r="2" fill="#2ca02c"/>
<circle cx="229.8" cy="128.3" r="2" fill="#2ca02c"/>
<circle cx="256.0" cy="131.4" r="2" fill="#2ca02c"/>
<polygon points="46.0,103.4 98.5,128.2 151.0,129.2 177.2,132.3 203.5,129.6 229.8,133.5 256.0,136.4 256.0,137.3 229.8,134.3 203.5,131.1 177.2,134.1 151.0,131.7 98.5,129.9 46.0,105.6" fill="#1f77b4" opacity="0.11"/>
<polyline points="46.0,105.2 98.5,128.6 151.0,130.1 177.2,133.1 203.5,130.5 229.8,133.8 256.0,136.9" fill="none" stroke="#1f77b4" stroke-width="1.6"/>
<circle cx="46.0" cy="105.2" r="2" fill="#1f77b4"/>
<circle cx="98.5" cy="128.6" r="2" fill="#1f77b4"/>
<circle cx="151.0" cy="130.1" r="2" fill="#1f77b4"/>
<circle cx="177.2" cy="133.1" r="2" fill="#1f77b4"/>
<circle cx="203.5" cy="130.5" r="2" fill="#1f77b4"/>
<circle cx="229.8" cy="133.8" r="2" fill="#1f77b4"/>
<circle cx="256.0" cy="136.9" r="2" fill="#1f77b4"/>
<text x="151.0" y="55" text-anchor="middle" font-size="12" font-weight="bold">zpotrf</text>
<line x1="46.0" y1="60" x2="46.0" y2="198" stroke="#f4f4f4"/>
<text x="46.0" y="209" text-anchor="middle" font-size="8" fill="#999">8</text>
<line x1="98.5" y1="60" x2="98.5" y2="198" stroke="#f4f4f4"/>
<text x="98.5" y="209" text-anchor="middle" font-size="8" fill="#999">32</text>
<line x1="151.0" y1="60" x2="151.0" y2="198" stroke="#f4f4f4"/>
<text x="151.0" y="209" text-anchor="middle" font-size="8" fill="#999">128</text>
<line x1="177.2" y1="60" x2="177.2" y2="198" stroke="#f4f4f4"/>
<text x="177.2" y="209" text-anchor="middle" font-size="8" fill="#999">256</text>
<line x1="203.5" y1="60" x2="203.5" y2="198" stroke="#f4f4f4"/>
<text x="203.5" y="209" text-anchor="middle" font-size="8" fill="#999">512</text>
<line x1="229.8" y1="60" x2="229.8" y2="198" stroke="#f4f4f4"/>
<text x="229.8" y="209" text-anchor="middle" font-size="8" fill="#999">1k</text>
<line x1="256.0" y1="60" x2="256.0" y2="198" stroke="#f4f4f4"/>
<text x="256.0" y="209" text-anchor="middle" font-size="8" fill="#999">2k</text>
<rect x="276" y="60" width="210" height="138" fill="none" stroke="#e2e2e2"/>
<line x1="276" y1="115.4392994579177" x2="486" y2="115.4392994579177" stroke="#d33" stroke-dasharray="4 3"/>
<text x="272" y="200.19950665704715" text-anchor="end" font-size="9" fill="#999">0.5×</text>
<text x="272" y="118.4392994579177" text-anchor="end" font-size="9" fill="#999">1.0×</text>
<text x="272" y="63.0" text-anchor="end" font-size="9" fill="#999">1.6×</text>
<polygon points="276.0,102.8 328.5,165.0 381.0,169.0 407.2,151.2 433.5,140.2 459.8,144.0 486.0,144.0 486.0,146.2 459.8,145.0 433.5,141.4 407.2,154.2 381.0,170.8 328.5,169.0 276.0,105.4" fill="#d62728" opacity="0.11"/>
<polyline points="276.0,104.4 328.5,168.6 381.0,169.9 407.2,152.4 433.5,141.1 459.8,144.4 486.0,144.8" fill="none" stroke="#d62728" stroke-width="1.6"/>
<circle cx="276.0" cy="104.4" r="2" fill="#d62728"/>
<circle cx="328.5" cy="168.6" r="2" fill="#d62728"/>
<circle cx="381.0" cy="169.9" r="2" fill="#d62728"/>
<circle cx="407.2" cy="152.4" r="2" fill="#d62728"/>
<circle cx="433.5" cy="141.1" r="2" fill="#d62728"/>
<circle cx="459.8" cy="144.4" r="2" fill="#d62728"/>
<circle cx="486.0" cy="144.8" r="2" fill="#d62728"/>
<polygon points="276.0,116.4 328.5,174.9 381.0,166.1 407.2,126.3 433.5,121.1 459.8,115.1 486.0,112.5 486.0,113.8 459.8,117.7 433.5,124.0 407.2,153.1 381.0,189.4 328.5,184.0 276.0,129.4" fill="#2ca02c" opacity="0.11"/>
<polyline points="276.0,122.1 328.5,179.8 381.0,184.3 407.2,134.3 433.5,123.0 459.8,116.0 486.0,113.4" fill="none" stroke="#2ca02c" stroke-width="1.6"/>
<circle cx="276.0" cy="122.1" r="2" fill="#2ca02c"/>
<circle cx="328.5" cy="179.8" r="2" fill="#2ca02c"/>
<circle cx="381.0" cy="184.3" r="2" fill="#2ca02c"/>
<circle cx="407.2" cy="134.3" r="2" fill="#2ca02c"/>
<circle cx="433.5" cy="123.0" r="2" fill="#2ca02c"/>
<circle cx="459.8" cy="116.0" r="2" fill="#2ca02c"/>
<circle cx="486.0" cy="113.4" r="2" fill="#2ca02c"/>
<polygon points="276.0,124.1 328.5,174.0 381.0,171.5 407.2,134.0 433.5,118.4 459.8,107.7 486.0,101.4 486.0,103.6 459.8,112.4 433.5,119.2 407.2,135.9 381.0,173.5 328.5,179.2 276.0,129.9" fill="#1f77b4" opacity="0.11"/>
<polyline points="276.0,127.4 328.5,177.7 381.0,172.7 407.2,134.9 433.5,118.8 459.8,111.7 486.0,102.2" fill="none" stroke="#1f77b4" stroke-width="1.6"/>
<circle cx="276.0" cy="127.4" r="2" fill="#1f77b4"/>
<circle cx="328.5" cy="177.7" r="2" fill="#1f77b4"/>
<circle cx="381.0" cy="172.7" r="2" fill="#1f77b4"/>
<circle cx="407.2" cy="134.9" r="2" fill="#1f77b4"/>
<circle cx="433.5" cy="118.8" r="2" fill="#1f77b4"/>
<circle cx="459.8" cy="111.7" r="2" fill="#1f77b4"/>
<circle cx="486.0" cy="102.2" r="2" fill="#1f77b4"/>
<text x="381.0" y="55" text-anchor="middle" font-size="12" font-weight="bold">zgeqrf</text>
<line x1="276.0" y1="60" x2="276.0" y2="198" stroke="#f4f4f4"/>
<text x="276.0" y="209" text-anchor="middle" font-size="8" fill="#999">8</text>
<line x1="328.5" y1="60" x2="328.5" y2="198" stroke="#f4f4f4"/>
<text x="328.5" y="209" text-anchor="middle" font-size="8" fill="#999">32</text>
<line x1="381.0" y1="60" x2="381.0" y2="198" stroke="#f4f4f4"/>
<text x="381.0" y="209" text-anchor="middle" font-size="8" fill="#999">128</text>
<line x1="407.2" y1="60" x2="407.2" y2="198" stroke="#f4f4f4"/>
<text x="407.2" y="209" text-anchor="middle" font-size="8" fill="#999">256</text>
<line x1="433.5" y1="60" x2="433.5" y2="198" stroke="#f4f4f4"/>
<text x="433.5" y="209" text-anchor="middle" font-size="8" fill="#999">512</text>
<line x1="459.8" y1="60" x2="459.8" y2="198" stroke="#f4f4f4"/>
<text x="459.8" y="209" text-anchor="middle" font-size="8" fill="#999">1k</text>
<line x1="486.0" y1="60" x2="486.0" y2="198" stroke="#f4f4f4"/>
<text x="486.0" y="209" text-anchor="middle" font-size="8" fill="#999">2k</text>
<rect x="506" y="60" width="210" height="138" fill="none" stroke="#e2e2e2"/>
<line x1="506" y1="115.76276119065531" x2="716" y2="115.76276119065531" stroke="#d33" stroke-dasharray="4 3"/>
<text x="502" y="201.0" text-anchor="end" font-size="9" fill="#999">0.5×</text>
<text x="502" y="118.76276119065531" text-anchor="end" font-size="9" fill="#999">1.0×</text>
<text x="502" y="63.0" text-anchor="end" font-size="9" fill="#999">1.6×</text>
<polygon points="506.0,84.2 558.5,108.8 611.0,135.7 637.2,138.1 663.5,126.4 689.8,138.4 716.0,141.0 716.0,142.1 689.8,139.2 663.5,127.7 637.2,140.3 611.0,137.2 558.5,109.6 506.0,85.0" fill="#d62728" opacity="0.11"/>
<polyline points="506.0,84.5 558.5,109.3 611.0,136.5 637.2,139.0 663.5,126.9 689.8,138.9 716.0,141.6" fill="none" stroke="#d62728" stroke-width="1.6"/>
<circle cx="506.0" cy="84.5" r="2" fill="#d62728"/>
<circle cx="558.5" cy="109.3" r="2" fill="#d62728"/>
<circle cx="611.0" cy="136.5" r="2" fill="#d62728"/>
<circle cx="637.2" cy="139.0" r="2" fill="#d62728"/>
<circle cx="663.5" cy="126.9" r="2" fill="#d62728"/>
<circle cx="689.8" cy="138.9" r="2" fill="#d62728"/>
<circle cx="716.0" cy="141.6" r="2" fill="#d62728"/>
<polygon points="506.0,102.2 558.5,89.5 611.0,115.0 637.2,90.6 663.5,100.9 689.8,115.7 716.0,111.0 716.0,111.6 689.8,117.7 663.5,110.4 637.2,119.3 611.0,126.0 558.5,110.9 506.0,113.8" fill="#2ca02c" opacity="0.11"/>
<polyline points="506.0,103.6 558.5,108.9 611.0,116.1 637.2,114.7 663.5,106.3 689.8,117.1 716.0,111.5" fill="none" stroke="#2ca02c" stroke-width="1.6"/>
<circle cx="506.0" cy="103.6" r="2" fill="#2ca02c"/>
<circle cx="558.5" cy="108.9" r="2" fill="#2ca02c"/>
<circle cx="611.0" cy="116.1" r="2" fill="#2ca02c"/>
<circle cx="637.2" cy="114.7" r="2" fill="#2ca02c"/>
<circle cx="663.5" cy="106.3" r="2" fill="#2ca02c"/>
<circle cx="689.8" cy="117.1" r="2" fill="#2ca02c"/>
<circle cx="716.0" cy="111.5" r="2" fill="#2ca02c"/>
<polygon points="506.0,104.2 558.5,111.5 611.0,122.6 637.2,121.7 663.5,118.0 689.8,127.6 716.0,117.6 716.0,118.3 689.8,130.4 663.5,119.1 637.2,124.5 611.0,123.7 558.5,113.1 506.0,105.7" fill="#1f77b4" opacity="0.11"/>
<polyline points="506.0,104.7 558.5,112.1 611.0,123.1 637.2,122.4 663.5,118.8 689.8,129.7 716.0,117.8" fill="none" stroke="#1f77b4" stroke-width="1.6"/>
<circle cx="506.0" cy="104.7" r="2" fill="#1f77b4"/>
<circle cx="558.5" cy="112.1" r="2" fill="#1f77b4"/>
<circle cx="611.0" cy="123.1" r="2" fill="#1f77b4"/>
<circle cx="637.2" cy="122.4" r="2" fill="#1f77b4"/>
<circle cx="663.5" cy="118.8" r="2" fill="#1f77b4"/>
<circle cx="689.8" cy="129.7" r="2" fill="#1f77b4"/>
<circle cx="716.0" cy="117.8" r="2" fill="#1f77b4"/>
<text x="611.0" y="55" text-anchor="middle" font-size="12" font-weight="bold">zgetrf</text>
<line x1="506.0" y1="60" x2="506.0" y2="198" stroke="#f4f4f4"/>
<text x="506.0" y="209" text-anchor="middle" font-size="8" fill="#999">8</text>
<line x1="558.5" y1="60" x2="558.5" y2="198" stroke="#f4f4f4"/>
<text x="558.5" y="209" text-anchor="middle" font-size="8" fill="#999">32</text>
<line x1="611.0" y1="60" x2="611.0" y2="198" stroke="#f4f4f4"/>
<text x="611.0" y="209" text-anchor="middle" font-size="8" fill="#999">128</text>
<line x1="637.2" y1="60" x2="637.2" y2="198" stroke="#f4f4f4"/>
<text x="637.2" y="209" text-anchor="middle" font-size="8" fill="#999">256</text>
<line x1="663.5" y1="60" x2="663.5" y2="198" stroke="#f4f4f4"/>
<text x="663.5" y="209" text-anchor="middle" font-size="8" fill="#999">512</text>
<line x1="689.8" y1="60" x2="689.8" y2="198" stroke="#f4f4f4"/>
<text x="689.8" y="209" text-anchor="middle" font-size="8" fill="#999">1k</text>
<line x1="716.0" y1="60" x2="716.0" y2="198" stroke="#f4f4f4"/>
<text x="716.0" y="209" text-anchor="middle" font-size="8" fill="#999">2k</text>
<rect x="736" y="60" width="210" height="138" fill="none" stroke="#e2e2e2"/>
<line x1="736" y1="83.1191213201436" x2="946" y2="83.1191213201436" stroke="#d33" stroke-dasharray="4 3"/>
<text x="732" y="86.1191213201436" text-anchor="end" font-size="9" fill="#999">1.0×</text>
<polygon points="736.0,63.7 796.0,85.3 856.0,127.1 886.0,160.3 916.0,171.7 946.0,179.2 946.0,183.0 916.0,176.1 886.0,162.9 856.0,131.2 796.0,86.1 736.0,67.5" fill="#d62728" opacity="0.11"/>
<polyline points="736.0,63.9 796.0,85.8 856.0,129.1 886.0,160.8 916.0,173.2 946.0,181.9" fill="none" stroke="#d62728" stroke-width="1.6"/>
<circle cx="736.0" cy="63.9" r="2" fill="#d62728"/>
<circle cx="796.0" cy="85.8" r="2" fill="#d62728"/>
<circle cx="856.0" cy="129.1" r="2" fill="#d62728"/>
<circle cx="886.0" cy="160.8" r="2" fill="#d62728"/>
<circle cx="916.0" cy="173.2" r="2" fill="#d62728"/>
<circle cx="946.0" cy="181.9" r="2" fill="#d62728"/>
<polygon points="736.0,62.8 796.0,83.5 856.0,134.6 886.0,160.8 916.0,172.0 946.0,179.0 946.0,180.7 916.0,173.5 886.0,164.1 856.0,137.0 796.0,85.4 736.0,74.4" fill="#2ca02c" opacity="0.11"/>
<polyline points="736.0,63.7 796.0,84.9 856.0,136.3 886.0,161.2 916.0,172.8 946.0,179.7" fill="none" stroke="#2ca02c" stroke-width="1.6"/>
<circle cx="736.0" cy="63.7" r="2" fill="#2ca02c"/>
<circle cx="796.0" cy="84.9" r="2" fill="#2ca02c"/>
<circle cx="856.0" cy="136.3" r="2" fill="#2ca02c"/>
<circle cx="886.0" cy="161.2" r="2" fill="#2ca02c"/>
<circle cx="916.0" cy="172.8" r="2" fill="#2ca02c"/>
<circle cx="946.0" cy="179.7" r="2" fill="#2ca02c"/>
<polygon points="736.0,64.6 796.0,83.4 856.0,143.7 886.0,176.1 916.0,186.0 946.0,185.5 946.0,195.4 916.0,187.0 886.0,177.5 856.0,146.0 796.0,84.4 736.0,68.5" fill="#1f77b4" opacity="0.11"/>
<polyline points="736.0,64.8 796.0,84.4 856.0,145.8 886.0,177.2 916.0,186.7 946.0,189.2" fill="none" stroke="#1f77b4" stroke-width="1.6"/>
<circle cx="736.0" cy="64.8" r="2" fill="#1f77b4"/>
<circle cx="796.0" cy="84.4" r="2" fill="#1f77b4"/>
<circle cx="856.0" cy="145.8" r="2" fill="#1f77b4"/>
<circle cx="886.0" cy="177.2" r="2" fill="#1f77b4"/>
<circle cx="916.0" cy="186.7" r="2" fill="#1f77b4"/>
<circle cx="946.0" cy="189.2" r="2" fill="#1f77b4"/>
<text x="841.0" y="55" text-anchor="middle" font-size="12" font-weight="bold">zgesvd</text>
<line x1="736.0" y1="60" x2="736.0" y2="198" stroke="#f4f4f4"/>
<text x="736.0" y="209" text-anchor="middle" font-size="8" fill="#999">8</text>
<line x1="796.0" y1="60" x2="796.0" y2="198" stroke="#f4f4f4"/>
<text x="796.0" y="209" text-anchor="middle" font-size="8" fill="#999">32</text>
<line x1="856.0" y1="60" x2="856.0" y2="198" stroke="#f4f4f4"/>
<text x="856.0" y="209" text-anchor="middle" font-size="8" fill="#999">128</text>
<line x1="886.0" y1="60" x2="886.0" y2="198" stroke="#f4f4f4"/>
<text x="886.0" y="209" text-anchor="middle" font-size="8" fill="#999">256</text>
<line x1="916.0" y1="60" x2="916.0" y2="198" stroke="#f4f4f4"/>
<text x="916.0" y="209" text-anchor="middle" font-size="8" fill="#999">512</text>
<line x1="946.0" y1="60" x2="946.0" y2="198" stroke="#f4f4f4"/>
<text x="946.0" y="209" text-anchor="middle" font-size="8" fill="#999">1k</text>
</svg>
