<svg xmlns="http://www.w3.org/2000/svg" width="962" height="592" font-family="sans-serif">
<rect width="962" height="592" fill="white"/>
<text x="481.0" y="26" text-anchor="middle" font-size="17" font-weight="bold">Complex BLAS-3 — PureBLAS / OpenBLAS (PB/OpenBLAS ratio)</text>
<line x1="46" y1="42" x2="68" y2="42" stroke="#d62728" stroke-width="3"/>
<text x="73" y="46" font-size="12">Zen3 · AVX2</text>
<line x1="176" y1="42" x2="198" y2="42" stroke="#2ca02c" stroke-width="3"/>
<text x="203" y="46" font-size="12">Zen5 · AVX-512</text>
<line x1="327" y1="42" x2="349" y2="42" stroke="#1f77b4" stroke-width="3"/>
<text x="354" y="46" font-size="12">Zen4 · AVX-512</text>
<rect x="46" y="60" width="210" height="138" fill="none" stroke="#e2e2e2"/>
<line x1="46" y1="140.51691728738544" x2="256" y2="140.51691728738544" stroke="#d33" stroke-dasharray="4 3"/>
<text x="42" y="201.0" text-anchor="end" font-size="9" fill="#999">0.5×</text>
<text x="42" y="143.51691728738544" text-anchor="end" font-size="9" fill="#999">1.0×</text>
<text x="42" y="63.00967963897" text-anchor="end" font-size="9" fill="#999">2.64×</text>
<polygon points="46.0,90.1 98.5,137.9 151.0,130.7 177.2,125.5 203.5,120.6 229.8,120.0 256.0,116.9 256.0,118.0 229.8,121.0 203.5,121.9 177.2,127.1 151.0,132.7 98.5,141.5 46.0,92.2" fill="#d62728" opacity="0.11"/>
<polyline points="46.0,91.2 98.5,139.0 151.0,131.8 177.2,125.8 203.5,120.8 229.8,120.3 256.0,117.4" fill="none" stroke="#d62728" stroke-width="1.6"/>
<circle cx="46.0" cy="91.2" r="2" fill="#d62728"/>
<circle cx="98.5" cy="139.0" r="2" fill="#d62728"/>
<circle cx="151.0" cy="131.8" r="2" fill="#d62728"/>
<circle cx="177.2" cy="125.8" r="2" fill="#d62728"/>
<circle cx="203.5" cy="120.8" r="2" fill="#d62728"/>
<circle cx="229.8" cy="120.3" r="2" fill="#d62728"/>
<circle cx="256.0" cy="117.4" r="2" fill="#d62728"/>
<polygon points="46.0,66.4 98.5,101.9 151.0,118.5 177.2,121.4 203.5,123.9 229.8,124.4 256.0,125.5 256.0,125.8 229.8,125.0 203.5,124.7 177.2,122.2 151.0,119.2 98.5,104.1 46.0,89.6" fill="#2ca02c" opacity="0.11"/>
<polyline points="46.0,72.0 98.5,103.2 151.0,118.9 177.2,121.8 203.5,124.2 229.8,124.6 256.0,125.6" fill="none" stroke="#2ca02c" stroke-width="1.6"/>
<circle cx="46.0" cy="72.0" r="2" fill="#2ca02c"/>
<circle cx="98.5" cy="103.2" r="2" fill="#2ca02c"/>
<circle cx="151.0" cy="118.9" r="2" fill="#2ca02c"/>
<circle cx="177.2" cy="121.8" r="2" fill="#2ca02c"/>
<circle cx="203.5" cy="124.2" r="2" fill="#2ca02c"/>
<circle cx="229.8" cy="124.6" r="2" fill="#2ca02c"/>
<circle cx="256.0" cy="125.6" r="2" fill="#2ca02c"/>
<polygon points="46.0,81.7 98.5,110.8 151.0,127.8 177.2,129.9 203.5,132.3 229.8,132.5 256.0,130.2 256.0,132.2 229.8,132.9 203.5,132.7 177.2,130.1 151.0,128.1 98.5,112.1 46.0,84.8" fill="#1f77b4" opacity="0.11"/>
<polyline points="46.0,82.8 98.5,111.4 151.0,127.9 177.2,130.0 203.5,132.6 229.8,132.7 256.0,131.4" fill="none" stroke="#1f77b4" stroke-width="1.6"/>
<circle cx="46.0" cy="82.8" r="2" fill="#1f77b4"/>
<circle cx="98.5" cy="111.4" r="2" fill="#1f77b4"/>
<circle cx="151.0" cy="127.9" r="2" fill="#1f77b4"/>
<circle cx="177.2" cy="130.0" r="2" fill="#1f77b4"/>
<circle cx="203.5" cy="132.6" r="2" fill="#1f77b4"/>
<circle cx="229.8" cy="132.7" r="2" fill="#1f77b4"/>
<circle cx="256.0" cy="131.4" r="2" fill="#1f77b4"/>
<text x="151.0" y="55" text-anchor="middle" font-size="12" font-weight="bold">zgemm</text>
<line x1="46.0" y1="60" x2="46.0" y2="198" stroke="#f4f4f4"/>
<text x="46.0" y="209" text-anchor="middle" font-size="8" fill="#999">8</text>
<line x1="98.5" y1="60" x2="98.5" y2="198" stroke="#f4f4f4"/>
<text x="98.5" y="209" text-anchor="middle" font-size="8" fill="#999">32</text>
<line x1="151.0" y1="60" x2="151.0" y2="198" stroke="#f4f4f4"/>
<text x="151.0" y="209" text-anchor="middle" font-size="8" fill="#999">128</text>
<line x1="177.2" y1="60" x2="177.2" y2="198" stroke="#f4f4f4"/>
<text x="177.2" y="209" text-anchor="middle" font-size="8" fill="#999">256</text>
<line x1="203.5" y1="60" x2="203.5" y2="198" stroke="#f4f4f4"/>
<text x="203.5" y="209" text-anchor="middle" font-size="8" fill="#999">512</text>
<line x1="229.8" y1="60" x2="229.8" y2="198" stroke="#f4f4f4"/>
<text x="229.8" y="209" text-anchor="middle" font-size="8" fill="#999">1k</text>
<line x1="256.0" y1="60" x2="256.0" y2="198" stroke="#f4f4f4"/>
<text x="256.0" y="209" text-anchor="middle" font-size="8" fill="#999">2k</text>
<rect x="276" y="60" width="210" height="138" fill="none" stroke="#e2e2e2"/>
<line x1="276" y1="115.76276119065531" x2="486" y2="115.76276119065531" stroke="#d33" stroke-dasharray="4 3"/>
<text x="272" y="201.0" text-anchor="end" font-size="9" fill="#999">0.5×</text>
<text x="272" y="118.76276119065531" text-anchor="end" font-size="9" fill="#999">1.0×</text>
<text x="272" y="63.0" text-anchor="end" font-size="9" fill="#999">1.6×</text>
<polygon points="276.0,105.2 328.5,122.3 381.0,106.6 407.2,98.9 433.5,91.4 459.8,88.6 486.0,85.6 486.0,87.0 459.8,90.7 433.5,93.3 407.2,100.8 381.0,109.4 328.5,125.5 276.0,106.8" fill="#d62728" opacity="0.11"/>
<polyline points="276.0,105.8 328.5,123.3 381.0,107.7 407.2,98.9 433.5,91.9 459.8,89.6 486.0,86.7" fill="none" stroke="#d62728" stroke-width="1.6"/>
<circle cx="276.0" cy="105.8" r="2" fill="#d62728"/>
<circle cx="328.5" cy="123.3" r="2" fill="#d62728"/>
<circle cx="381.0" cy="107.7" r="2" fill="#d62728"/>
<circle cx="407.2" cy="98.9" r="2" fill="#d62728"/>
<circle cx="433.5" cy="91.9" r="2" fill="#d62728"/>
<circle cx="459.8" cy="89.6" r="2" fill="#d62728"/>
<circle cx="486.0" cy="86.7" r="2" fill="#d62728"/>
<polygon points="276.0,75.2 328.5,82.8 381.0,92.8 407.2,89.7 433.5,93.2 459.8,94.6 486.0,96.0 486.0,96.3 459.8,95.5 433.5,96.1 407.2,90.4 381.0,94.7 328.5,84.2 276.0,85.4" fill="#2ca02c" opacity="0.11"/>
<polyline points="276.0,78.3 328.5,83.5 381.0,94.0 407.2,90.1 433.5,95.4 459.8,95.1 486.0,96.2" fill="none" stroke="#2ca02c" stroke-width="1.6"/>
<circle cx="276.0" cy="78.3" r="2" fill="#2ca02c"/>
<circle cx="328.5" cy="83.5" r="2" fill="#2ca02c"/>
<circle cx="381.0" cy="94.0" r="2" fill="#2ca02c"/>
<circle cx="407.2" cy="90.1" r="2" fill="#2ca02c"/>
<circle cx="433.5" cy="95.4" r="2" fill="#2ca02c"/>
<circle cx="459.8" cy="95.1" r="2" fill="#2ca02c"/>
<circle cx="486.0" cy="96.2" r="2" fill="#2ca02c"/>
<polygon points="276.0,99.5 328.5,96.8 381.0,106.5 407.2,104.5 433.5,105.1 459.8,104.6 486.0,101.8 486.0,105.3 459.8,105.5 433.5,105.7 407.2,104.8 381.0,107.2 328.5,98.2 276.0,103.1" fill="#1f77b4" opacity="0.11"/>
<polyline points="276.0,100.6 328.5,97.2 381.0,107.0 407.2,104.7 433.5,105.5 459.8,105.2 486.0,102.8" fill="none" stroke="#1f77b4" stroke-width="1.6"/>
<circle cx="276.0" cy="100.6" r="2" fill="#1f77b4"/>
<circle cx="328.5" cy="97.2" r="2" fill="#1f77b4"/>
<circle cx="381.0" cy="107.0" r="2" fill="#1f77b4"/>
<circle cx="407.2" cy="104.7" r="2" fill="#1f77b4"/>
<circle cx="433.5" cy="105.5" r="2" fill="#1f77b4"/>
<circle cx="459.8" cy="105.2" r="2" fill="#1f77b4"/>
<circle cx="486.0" cy="102.8" r="2" fill="#1f77b4"/>
<text x="381.0" y="55" text-anchor="middle" font-size="12" font-weight="bold">zhemm</text>
<line x1="276.0" y1="60" x2="276.0" y2="198" stroke="#f4f4f4"/>
<text x="276.0" y="209" text-anchor="middle" font-size="8" fill="#999">8</text>
<line x1="328.5" y1="60" x2="328.5" y2="198" stroke="#f4f4f4"/>
<text x="328.5" y="209" text-anchor="middle" font-size="8" fill="#999">32</text>
<line x1="381.0" y1="60" x2="381.0" y2="198" stroke="#f4f4f4"/>
<text x="381.0" y="209" text-anchor="middle" font-size="8" fill="#999">128</text>
<line x1="407.2" y1="60" x2="407.2" y2="198" stroke="#f4f4f4"/>
<text x="407.2" y="209" text-anchor="middle" font-size="8" fill="#999">256</text>
<line x1="433.5" y1="60" x2="433.5" y2="198" stroke="#f4f4f4"/>
<text x="433.5" y="209" text-anchor="middle" font-size="8" fill="#999">512</text>
<line x1="459.8" y1="60" x2="459.8" y2="198" stroke="#f4f4f4"/>
<text x="459.8" y="209" text-anchor="middle" font-size="8" fill="#999">1k</text>
<line x1="486.0" y1="60" x2="486.0" y2="198" stroke="#f4f4f4"/>
<text x="486.0" y="209" text-anchor="middle" font-size="8" fill="#999">2k</text>
<rect x="506" y="60" width="210" height="138" fill="none" stroke="#e2e2e2"/>
<line x1="506" y1="117.82265784133743" x2="716" y2="117.82265784133743" stroke="#d33" stroke-dasharray="4 3"/>
<text x="502" y="201.0" text-anchor="end" font-size="9" fill="#999">0.5×</text>
<text x="502" y="120.82265784133743" text-anchor="end" font-size="9" fill="#999">1.0×</text>
<polygon points="506.0,102.0 558.5,126.8 611.0,108.7 637.2,101.6 663.5,93.2 689.8,90.9 716.0,90.0 716.0,90.9 689.8,93.2 663.5,94.6 637.2,103.4 611.0,111.3 558.5,130.4 506.0,103.7" fill="#d62728" opacity="0.11"/>
<polyline points="506.0,102.8 558.5,128.7 611.0,109.0 637.2,101.7 663.5,94.3 689.8,92.1 716.0,90.4" fill="none" stroke="#d62728" stroke-width="1.6"/>
<circle cx="506.0" cy="102.8" r="2" fill="#d62728"/>
<circle cx="558.5" cy="128.7" r="2" fill="#d62728"/>
<circle cx="611.0" cy="109.0" r="2" fill="#d62728"/>
<circle cx="637.2" cy="101.7" r="2" fill="#d62728"/>
<circle cx="663.5" cy="94.3" r="2" fill="#d62728"/>
<circle cx="689.8" cy="92.1" r="2" fill="#d62728"/>
<circle cx="716.0" cy="90.4" r="2" fill="#d62728"/>
<polygon points="506.0,68.9 558.5,85.6 611.0,94.6 637.2,94.9 663.5,97.8 689.8,96.8 716.0,97.4 716.0,97.7 689.8,99.7 663.5,103.6 637.2,96.0 611.0,95.5 558.5,87.1 506.0,111.0" fill="#2ca02c" opacity="0.11"/>
<polyline points="506.0,79.6 558.5,86.4 611.0,95.0 637.2,95.4 663.5,98.4 689.8,97.2 716.0,97.6" fill="none" stroke="#2ca02c" stroke-width="1.6"/>
<circle cx="506.0" cy="79.6" r="2" fill="#2ca02c"/>
<circle cx="558.5" cy="86.4" r="2" fill="#2ca02c"/>
<circle cx="611.0" cy="95.0" r="2" fill="#2ca02c"/>
<circle cx="637.2" cy="95.4" r="2" fill="#2ca02c"/>
<circle cx="663.5" cy="98.4" r="2" fill="#2ca02c"/>
<circle cx="689.8" cy="97.2" r="2" fill="#2ca02c"/>
<circle cx="716.0" cy="97.6" r="2" fill="#2ca02c"/>
<polygon points="506.0,94.2 558.5,98.2 611.0,107.4 637.2,109.4 663.5,112.1 689.8,109.1 716.0,105.9 716.0,108.8 689.8,110.2 663.5,112.4 637.2,110.7 611.0,107.9 558.5,99.2 506.0,97.2" fill="#1f77b4" opacity="0.11"/>
<polyline points="506.0,96.4 558.5,98.8 611.0,107.6 637.2,110.5 663.5,112.3 689.8,109.9 716.0,107.6" fill="none" stroke="#1f77b4" stroke-width="1.6"/>
<circle cx="506.0" cy="96.4" r="2" fill="#1f77b4"/>
<circle cx="558.5" cy="98.8" r="2" fill="#1f77b4"/>
<circle cx="611.0" cy="107.6" r="2" fill="#1f77b4"/>
<circle cx="637.2" cy="110.5" r="2" fill="#1f77b4"/>
<circle cx="663.5" cy="112.3" r="2" fill="#1f77b4"/>
<circle cx="689.8" cy="109.9" r="2" fill="#1f77b4"/>
<circle cx="716.0" cy="107.6" r="2" fill="#1f77b4"/>
<text x="611.0" y="55" text-anchor="middle" font-size="12" font-weight="bold">zsymm</text>
<line x1="506.0" y1="60" x2="506.0" y2="198" stroke="#f4f4f4"/>
<text x="506.0" y="209" text-anchor="middle" font-size="8" fill="#999">8</text>
<line x1="558.5" y1="60" x2="558.5" y2="198" stroke="#f4f4f4"/>
<text x="558.5" y="209" text-anchor="middle" font-size="8" fill="#999">32</text>
<line x1="611.0" y1="60" x2="611.0" y2="198" stroke="#f4f4f4"/>
<text x="611.0" y="209" text-anchor="middle" font-size="8" fill="#999">128</text>
<line x1="637.2" y1="60" x2="637.2" y2="198" stroke="#f4f4f4"/>
<text x="637.2" y="209" text-anchor="middle" font-size="8" fill="#999">256</text>
<line x1="663.5" y1="60" x2="663.5" y2="198" stroke="#f4f4f4"/>
<text x="663.5" y="209" text-anchor="middle" font-size="8" fill="#999">512</text>
<line x1="689.8" y1="60" x2="689.8" y2="198" stroke="#f4f4f4"/>
<text x="689.8" y="209" text-anchor="middle" font-size="8" fill="#999">1k</text>
<line x1="716.0" y1="60" x2="716.0" y2="198" stroke="#f4f4f4"/>
<text x="716.0" y="209" text-anchor="middle" font-size="8" fill="#999">2k</text>
<rect x="736" y="60" width="210" height="138" fill="none" stroke="#e2e2e2"/>
<line x1="736" y1="135.64278631612603" x2="946" y2="135.64278631612603" stroke="#d33" stroke-dasharray="4 3"/>
<text x="732" y="201.0" text-anchor="end" font-size="9" fill="#999">0.5×</text>
<text x="732" y="138.64278631612603" text-anchor="end" font-size="9" fill="#999">1.0×</text>
<polygon points="736.0,111.5 788.5,121.7 841.0,134.9 867.2,124.9 893.5,117.7 919.8,116.6 946.0,115.1 946.0,115.4 919.8,117.0 893.5,118.3 867.2,125.1 841.0,135.5 788.5,123.5 736.0,113.0" fill="#d62728" opacity="0.11"/>
<polyline points="736.0,112.1 788.5,123.0 841.0,135.2 867.2,125.0 893.5,118.1 919.8,116.8 946.0,115.2" fill="none" stroke="#d62728" stroke-width="1.6"/>
<circle cx="736.0" cy="112.1" r="2" fill="#d62728"/>
<circle cx="788.5" cy="123.0" r="2" fill="#d62728"/>
<circle cx="841.0" cy="135.2" r="2" fill="#d62728"/>
<circle cx="867.2" cy="125.0" r="2" fill="#d62728"/>
<circle cx="893.5" cy="118.1" r="2" fill="#d62728"/>
<circle cx="919.8" cy="116.8" r="2" fill="#d62728"/>
<circle cx="946.0" cy="115.2" r="2" fill="#d62728"/>
<polygon points="736.0,66.9 788.5,129.0 841.0,125.5 867.2,117.7 893.5,116.9 919.8,119.0 946.0,120.1 946.0,120.4 919.8,119.5 893.5,126.5 867.2,118.6 841.0,128.0 788.5,130.8 736.0,86.8" fill="#2ca02c" opacity="0.11"/>
<polyline points="736.0,69.6 788.5,129.9 841.0,126.7 867.2,118.0 893.5,118.9 919.8,119.2 946.0,120.3" fill="none" stroke="#2ca02c" stroke-width="1.6"/>
<circle cx="736.0" cy="69.6" r="2" fill="#2ca02c"/>
<circle cx="788.5" cy="129.9" r="2" fill="#2ca02c"/>
<circle cx="841.0" cy="126.7" r="2" fill="#2ca02c"/>
<circle cx="867.2" cy="118.0" r="2" fill="#2ca02c"/>
<circle cx="893.5" cy="118.9" r="2" fill="#2ca02c"/>
<circle cx="919.8" cy="119.2" r="2" fill="#2ca02c"/>
<circle cx="946.0" cy="120.3" r="2" fill="#2ca02c"/>
<polygon points="736.0,71.9 788.5,121.1 841.0,130.3 867.2,123.9 893.5,122.6 919.8,125.3 946.0,124.2 946.0,125.6 919.8,125.7 893.5,123.2 867.2,124.5 841.0,131.1 788.5,123.5 736.0,75.9" fill="#1f77b4" opacity="0.11"/>
<polyline points="736.0,73.2 788.5,122.9 841.0,130.8 867.2,124.1 893.5,123.0 919.8,125.5 946.0,125.3" fill="none" stroke="#1f77b4" stroke-width="1.6"/>
<circle cx="736.0" cy="73.2" r="2" fill="#1f77b4"/>
<circle cx="788.5" cy="122.9" r="2" fill="#1f77b4"/>
<circle cx="841.0" cy="130.8" r="2" fill="#1f77b4"/>
<circle cx="867.2" cy="124.1" r="2" fill="#1f77b4"/>
<circle cx="893.5" cy="123.0" r="2" fill="#1f77b4"/>
<circle cx="919.8" cy="125.5" r="2" fill="#1f77b4"/>
<circle cx="946.0" cy="125.3" r="2" fill="#1f77b4"/>
<text x="841.0" y="55" text-anchor="middle" font-size="12" font-weight="bold">zsyrk</text>
<line x1="736.0" y1="60" x2="736.0" y2="198" stroke="#f4f4f4"/>
<text x="736.0" y="209" text-anchor="middle" font-size="8" fill="#999">8</text>
<line x1="788.5" y1="60" x2="788.5" y2="198" stroke="#f4f4f4"/>
<text x="788.5" y="209" text-anchor="middle" font-size="8" fill="#999">32</text>
<line x1="841.0" y1="60" x2="841.0" y2="198" stroke="#f4f4f4"/>
<text x="841.0" y="209" text-anchor="middle" font-size="8" fill="#999">128</text>
<line x1="867.2" y1="60" x2="867.2" y2="198" stroke="#f4f4f4"/>
<text x="867.2" y="209" text-anchor="middle" font-size="8" fill="#999">256</text>
<line x1="893.5" y1="60" x2="893.5" y2="198" stroke="#f4f4f4"/>
<text x="893.5" y="209" text-anchor="middle" font-size="8" fill="#999">512</text>
<line x1="919.8" y1="60" x2="919.8" y2="198" stroke="#f4f4f4"/>
<text x="919.8" y="209" text-anchor="middle" font-size="8" fill="#999">1k</text>
<line x1="946.0" y1="60" x2="946.0" y2="198" stroke="#f4f4f4"/>
<text x="946.0" y="209" text-anchor="middle" font-size="8" fill="#999">2k</text>
<rect x="46" y="232" width="210" height="138" fill="none" stroke="#e2e2e2"/>
<line x1="46" y1="306.23455519828934" x2="256" y2="306.23455519828934" stroke="#d33" stroke-dasharray="4 3"/>
<text x="42" y="373.0" text-anchor="end" font-size="9" fill="#999">0.5×</text>
<text x="42" y="309.23455519828934" text-anchor="end" font-size="9" fill="#999">1.0×</text>
<text x="42" y="235.04354100804503" text-anchor="end" font-size="9" fill="#999">2.24×</text>
<polygon points="46.0,278.1 98.5,293.2 151.0,305.2 177.2,297.5 203.5,290.6 229.8,290.3 256.0,286.8 256.0,287.1 229.8,290.6 203.5,291.3 177.2,297.9 151.0,305.7 98.5,295.0 46.0,279.4" fill="#d62728" opacity="0.11"/>
<polyline points="46.0,278.7 98.5,294.8 151.0,305.5 177.2,297.7 203.5,290.9 229.8,290.5 256.0,286.8" fill="none" stroke="#d62728" stroke-width="1.6"/>
<circle cx="46.0" cy="278.7" r="2" fill="#d62728"/>
<circle cx="98.5" cy="294.8" r="2" fill="#d62728"/>
<circle cx="151.0" cy="305.5" r="2" fill="#d62728"/>
<circle cx="177.2" cy="297.7" r="2" fill="#d62728"/>
<circle cx="203.5" cy="290.9" r="2" fill="#d62728"/>
<circle cx="229.8" cy="290.5" r="2" fill="#d62728"/>
<circle cx="256.0" cy="286.8" r="2" fill="#d62728"/>
<polygon points="46.0,239.1 98.5,298.8 151.0,296.1 177.2,288.0 203.5,286.7 229.8,288.6 256.0,289.5 256.0,289.9 229.8,289.0 203.5,296.9 177.2,289.3 151.0,299.7 98.5,301.9 46.0,253.3" fill="#2ca02c" opacity="0.11"/>
<polyline points="46.0,242.0 98.5,300.5 151.0,297.7 177.2,288.3 203.5,289.2 229.8,288.8 256.0,289.6" fill="none" stroke="#2ca02c" stroke-width="1.6"/>
<circle cx="46.0" cy="242.0" r="2" fill="#2ca02c"/>
<circle cx="98.5" cy="300.5" r="2" fill="#2ca02c"/>
<circle cx="151.0" cy="297.7" r="2" fill="#2ca02c"/>
<circle cx="177.2" cy="288.3" r="2" fill="#2ca02c"/>
<circle cx="203.5" cy="289.2" r="2" fill="#2ca02c"/>
<circle cx="229.8" cy="288.8" r="2" fill="#2ca02c"/>
<circle cx="256.0" cy="289.6" r="2" fill="#2ca02c"/>
<polygon points="46.0,245.0 98.5,292.1 151.0,300.9 177.2,294.2 203.5,293.0 229.8,295.9 256.0,295.0 256.0,296.1 229.8,296.5 203.5,293.6 177.2,294.8 151.0,302.1 98.5,294.4 46.0,248.8" fill="#1f77b4" opacity="0.11"/>
<polyline points="46.0,246.5 98.5,293.9 151.0,301.6 177.2,294.6 203.5,293.4 229.8,296.1 256.0,295.8" fill="none" stroke="#1f77b4" stroke-width="1.6"/>
<circle cx="46.0" cy="246.5" r="2" fill="#1f77b4"/>
<circle cx="98.5" cy="293.9" r="2" fill="#1f77b4"/>
<circle cx="151.0" cy="301.6" r="2" fill="#1f77b4"/>
<circle cx="177.2" cy="294.6" r="2" fill="#1f77b4"/>
<circle cx="203.5" cy="293.4" r="2" fill="#1f77b4"/>
<circle cx="229.8" cy="296.1" r="2" fill="#1f77b4"/>
<circle cx="256.0" cy="295.8" r="2" fill="#1f77b4"/>
<text x="151.0" y="227" text-anchor="middle" font-size="12" font-weight="bold">zherk</text>
<line x1="46.0" y1="232" x2="46.0" y2="370" stroke="#f4f4f4"/>
<text x="46.0" y="381" text-anchor="middle" font-size="8" fill="#999">8</text>
<line x1="98.5" y1="232" x2="98.5" y2="370" stroke="#f4f4f4"/>
<text x="98.5" y="381" text-anchor="middle" font-size="8" fill="#999">32</text>
<line x1="151.0" y1="232" x2="151.0" y2="370" stroke="#f4f4f4"/>
<text x="151.0" y="381" text-anchor="middle" font-size="8" fill="#999">128</text>
<line x1="177.2" y1="232" x2="177.2" y2="370" stroke="#f4f4f4"/>
<text x="177.2" y="381" text-anchor="middle" font-size="8" fill="#999">256</text>
<line x1="203.5" y1="232" x2="203.5" y2="370" stroke="#f4f4f4"/>
<text x="203.5" y="381" text-anchor="middle" font-size="8" fill="#999">512</text>
<line x1="229.8" y1="232" x2="229.8" y2="370" stroke="#f4f4f4"/>
<text x="229.8" y="381" text-anchor="middle" font-size="8" fill="#999">1k</text>
<line x1="256.0" y1="232" x2="256.0" y2="370" stroke="#f4f4f4"/>
<text x="256.0" y="381" text-anchor="middle" font-size="8" fill="#999">2k</text>
<rect x="276" y="232" width="210" height="138" fill="none" stroke="#e2e2e2"/>
<line x1="276" y1="294.7245218572055" x2="486" y2="294.7245218572055" stroke="#d33" stroke-dasharray="4 3"/>
<text x="272" y="373.0" text-anchor="end" font-size="9" fill="#999">0.5×</text>
<text x="272" y="297.7245218572055" text-anchor="end" font-size="9" fill="#999">1.0×</text>
<text x="272" y="235.10456477039347" text-anchor="end" font-size="9" fill="#999">1.78×</text>
<polygon points="276.0,250.6 328.5,293.1 381.0,298.0 407.2,286.0 433.5,277.6 459.8,276.4 486.0,271.1 486.0,274.7 459.8,276.8 433.5,278.6 407.2,286.3 381.0,298.7 328.5,298.2 276.0,251.9" fill="#d62728" opacity="0.11"/>
<polyline points="276.0,251.0 328.5,294.4 381.0,298.2 407.2,286.1 433.5,277.9 459.8,276.6 486.0,271.6" fill="none" stroke="#d62728" stroke-width="1.6"/>
<circle cx="276.0" cy="251.0" r="2" fill="#d62728"/>
<circle cx="328.5" cy="294.4" r="2" fill="#d62728"/>
<circle cx="381.0" cy="298.2" r="2" fill="#d62728"/>
<circle cx="407.2" cy="286.1" r="2" fill="#d62728"/>
<circle cx="433.5" cy="277.9" r="2" fill="#d62728"/>
<circle cx="459.8" cy="276.6" r="2" fill="#d62728"/>
<circle cx="486.0" cy="271.6" r="2" fill="#d62728"/>
<polygon points="276.0,240.4 328.5,291.9 381.0,284.6 407.2,273.3 433.5,273.9 459.8,273.8 486.0,275.0 486.0,275.3 459.8,274.4 433.5,277.1 407.2,275.2 381.0,286.7 328.5,295.5 276.0,253.4" fill="#2ca02c" opacity="0.11"/>
<polyline points="276.0,248.2 328.5,294.3 381.0,285.5 407.2,273.9 433.5,274.9 459.8,274.0 486.0,275.1" fill="none" stroke="#2ca02c" stroke-width="1.6"/>
<circle cx="276.0" cy="248.2" r="2" fill="#2ca02c"/>
<circle cx="328.5" cy="294.3" r="2" fill="#2ca02c"/>
<circle cx="381.0" cy="285.5" r="2" fill="#2ca02c"/>
<circle cx="407.2" cy="273.9" r="2" fill="#2ca02c"/>
<circle cx="433.5" cy="274.9" r="2" fill="#2ca02c"/>
<circle cx="459.8" cy="274.0" r="2" fill="#2ca02c"/>
<circle cx="486.0" cy="275.1" r="2" fill="#2ca02c"/>
<polygon points="276.0,252.8 328.5,291.0 381.0,290.7 407.2,283.1 433.5,280.4 459.8,282.8 486.0,281.8 486.0,284.0 459.8,283.5 433.5,280.8 407.2,283.5 381.0,291.9 328.5,292.9 276.0,254.9" fill="#1f77b4" opacity="0.11"/>
<polyline points="276.0,254.1 328.5,292.2 381.0,291.2 407.2,283.3 433.5,280.7 459.8,283.1 486.0,283.4" fill="none" stroke="#1f77b4" stroke-width="1.6"/>
<circle cx="276.0" cy="254.1" r="2" fill="#1f77b4"/>
<circle cx="328.5" cy="292.2" r="2" fill="#1f77b4"/>
<circle cx="381.0" cy="291.2" r="2" fill="#1f77b4"/>
<circle cx="407.2" cy="283.3" r="2" fill="#1f77b4"/>
<circle cx="433.5" cy="280.7" r="2" fill="#1f77b4"/>
<circle cx="459.8" cy="283.1" r="2" fill="#1f77b4"/>
<circle cx="486.0" cy="283.4" r="2" fill="#1f77b4"/>
<text x="381.0" y="227" text-anchor="middle" font-size="12" font-weight="bold">zher2k</text>
<line x1="276.0" y1="232" x2="276.0" y2="370" stroke="#f4f4f4"/>
<text x="276.0" y="381" text-anchor="middle" font-size="8" fill="#999">8</text>
<line x1="328.5" y1="232" x2="328.5" y2="370" stroke="#f4f4f4"/>
<text x="328.5" y="381" text-anchor="middle" font-size="8" fill="#999">32</text>
<line x1="381.0" y1="232" x2="381.0" y2="370" stroke="#f4f4f4"/>
<text x="381.0" y="381" text-anchor="middle" font-size="8" fill="#999">128</text>
<line x1="407.2" y1="232" x2="407.2" y2="370" stroke="#f4f4f4"/>
<text x="407.2" y="381" text-anchor="middle" font-size="8" fill="#999">256</text>
<line x1="433.5" y1="232" x2="433.5" y2="370" stroke="#f4f4f4"/>
<text x="433.5" y="381" text-anchor="middle" font-size="8" fill="#999">512</text>
<line x1="459.8" y1="232" x2="459.8" y2="370" stroke="#f4f4f4"/>
<text x="459.8" y="381" text-anchor="middle" font-size="8" fill="#999">1k</text>
<line x1="486.0" y1="232" x2="486.0" y2="370" stroke="#f4f4f4"/>
<text x="486.0" y="381" text-anchor="middle" font-size="8" fill="#999">2k</text>
<rect x="506" y="232" width="210" height="138" fill="none" stroke="#e2e2e2"/>
<line x1="506" y1="297.64523187463277" x2="716" y2="297.64523187463277" stroke="#d33" stroke-dasharray="4 3"/>
<text x="502" y="373.0" text-anchor="end" font-size="9" fill="#999">0.5×</text>
<text x="502" y="300.64523187463277" text-anchor="end" font-size="9" fill="#999">1.0×</text>
<polygon points="506.0,251.0 558.5,296.0 611.0,301.6 637.2,290.0 663.5,281.9 689.8,280.0 716.0,274.9 716.0,275.9 689.8,280.6 663.5,282.7 637.2,290.4 611.0,302.2 558.5,300.6 506.0,252.2" fill="#d62728" opacity="0.11"/>
<polyline points="506.0,251.5 558.5,297.7 611.0,301.8 637.2,290.2 663.5,282.2 689.8,280.4 716.0,275.4" fill="none" stroke="#d62728" stroke-width="1.6"/>
<circle cx="506.0" cy="251.5" r="2" fill="#d62728"/>
<circle cx="558.5" cy="297.7" r="2" fill="#d62728"/>
<circle cx="611.0" cy="301.8" r="2" fill="#d62728"/>
<circle cx="637.2" cy="290.2" r="2" fill="#d62728"/>
<circle cx="663.5" cy="282.2" r="2" fill="#d62728"/>
<circle cx="689.8" cy="280.4" r="2" fill="#d62728"/>
<circle cx="716.0" cy="275.4" r="2" fill="#d62728"/>
<polygon points="506.0,240.0 558.5,294.7 611.0,287.5 637.2,277.1 663.5,277.4 689.8,278.1 716.0,279.7 716.0,279.9 689.8,278.9 663.5,281.7 637.2,279.3 611.0,289.6 558.5,297.4 506.0,260.6" fill="#2ca02c" opacity="0.11"/>
<polyline points="506.0,249.5 558.5,296.1 611.0,288.6 637.2,277.8 663.5,278.9 689.8,278.4 716.0,279.8" fill="none" stroke="#2ca02c" stroke-width="1.6"/>
<circle cx="506.0" cy="249.5" r="2" fill="#2ca02c"/>
<circle cx="558.5" cy="296.1" r="2" fill="#2ca02c"/>
<circle cx="611.0" cy="288.6" r="2" fill="#2ca02c"/>
<circle cx="637.2" cy="277.8" r="2" fill="#2ca02c"/>
<circle cx="663.5" cy="278.9" r="2" fill="#2ca02c"/>
<circle cx="689.8" cy="278.4" r="2" fill="#2ca02c"/>
<circle cx="716.0" cy="279.8" r="2" fill="#2ca02c"/>
<polygon points="506.0,253.3 558.5,294.0 611.0,293.7 637.2,286.6 663.5,283.7 689.8,285.9 716.0,284.2 716.0,287.1 689.8,286.8 663.5,284.2 637.2,287.0 611.0,294.6 558.5,295.7 506.0,255.5" fill="#1f77b4" opacity="0.11"/>
<polyline points="506.0,254.1 558.5,295.2 611.0,294.1 637.2,286.8 663.5,284.0 689.8,286.2 716.0,285.9" fill="none" stroke="#1f77b4" stroke-width="1.6"/>
<circle cx="506.0" cy="254.1" r="2" fill="#1f77b4"/>
<circle cx="558.5" cy="295.2" r="2" fill="#1f77b4"/>
<circle cx="611.0" cy="294.1" r="2" fill="#1f77b4"/>
<circle cx="637.2" cy="286.8" r="2" fill="#1f77b4"/>
<circle cx="663.5" cy="284.0" r="2" fill="#1f77b4"/>
<circle cx="689.8" cy="286.2" r="2" fill="#1f77b4"/>
<circle cx="716.0" cy="285.9" r="2" fill="#1f77b4"/>
<text x="611.0" y="227" text-anchor="middle" font-size="12" font-weight="bold">zsyr2k</text>
<line x1="506.0" y1="232" x2="506.0" y2="370" stroke="#f4f4f4"/>
<text x="506.0" y="381" text-anchor="middle" font-size="8" fill="#999">8</text>
<line x1="558.5" y1="232" x2="558.5" y2="370" stroke="#f4f4f4"/>
<text x="558.5" y="381" text-anchor="middle" font-size="8" fill="#999">32</text>
<line x1="611.0" y1="232" x2="611.0" y2="370" stroke="#f4f4f4"/>
<text x="611.0" y="381" text-anchor="middle" font-size="8" fill="#999">128</text>
<line x1="637.2" y1="232" x2="637.2" y2="370" stroke="#f4f4f4"/>
<text x="637.2" y="381" text-anchor="middle" font-size="8" fill="#999">256</text>
<line x1="663.5" y1="232" x2="663.5" y2="370" stroke="#f4f4f4"/>
<text x="663.5" y="381" text-anchor="middle" font-size="8" fill="#999">512</text>
<line x1="689.8" y1="232" x2="689.8" y2="370" stroke="#f4f4f4"/>
<text x="689.8" y="381" text-anchor="middle" font-size="8" fill="#999">1k</text>
<line x1="716.0" y1="232" x2="716.0" y2="370" stroke="#f4f4f4"/>
<text x="716.0" y="381" text-anchor="middle" font-size="8" fill="#999">2k</text>
<rect x="736" y="232" width="210" height="138" fill="none" stroke="#e2e2e2"/>
<line x1="736" y1="287.7627611906553" x2="946" y2="287.7627611906553" stroke="#d33" stroke-dasharray="4 3"/>
<text x="732" y="373.0" text-anchor="end" font-size="9" fill="#999">0.5×</text>
<text x="732" y="290.7627611906553" text-anchor="end" font-size="9" fill="#999">1.0×</text>
<text x="732" y="235.0" text-anchor="end" font-size="9" fill="#999">1.6×</text>
<polygon points="736.0,287.6 788.5,309.0 841.0,297.5 867.2,289.3 893.5,282.5 919.8,276.0 946.0,271.1 946.0,272.9 919.8,276.5 893.5,282.9 867.2,289.9 841.0,297.8 788.5,311.9 736.0,289.0" fill="#d62728" opacity="0.11"/>
<polyline points="736.0,288.3 788.5,310.7 841.0,297.7 867.2,289.7 893.5,282.6 919.8,276.1 946.0,272.3" fill="none" stroke="#d62728" stroke-width="1.6"/>
<circle cx="736.0" cy="288.3" r="2" fill="#d62728"/>
<circle cx="788.5" cy="310.7" r="2" fill="#d62728"/>
<circle cx="841.0" cy="297.7" r="2" fill="#d62728"/>
<circle cx="867.2" cy="289.7" r="2" fill="#d62728"/>
<circle cx="893.5" cy="282.6" r="2" fill="#d62728"/>
<circle cx="919.8" cy="276.1" r="2" fill="#d62728"/>
<circle cx="946.0" cy="272.3" r="2" fill="#d62728"/>
<polygon points="736.0,248.8 788.5,291.7 841.0,277.0 867.2,273.6 893.5,268.6 919.8,270.3 946.0,269.6 946.0,270.0 919.8,271.5 893.5,269.4 867.2,274.5 841.0,280.8 788.5,295.2 736.0,283.3" fill="#2ca02c" opacity="0.11"/>
<polyline points="736.0,273.4 788.5,292.6 841.0,280.0 867.2,274.2 893.5,269.1 919.8,270.7 946.0,269.8" fill="none" stroke="#2ca02c" stroke-width="1.6"/>
<circle cx="736.0" cy="273.4" r="2" fill="#2ca02c"/>
<circle cx="788.5" cy="292.6" r="2" fill="#2ca02c"/>
<circle cx="841.0" cy="280.0" r="2" fill="#2ca02c"/>
<circle cx="867.2" cy="274.2" r="2" fill="#2ca02c"/>
<circle cx="893.5" cy="269.1" r="2" fill="#2ca02c"/>
<circle cx="919.8" cy="270.7" r="2" fill="#2ca02c"/>
<circle cx="946.0" cy="269.8" r="2" fill="#2ca02c"/>
<polygon points="736.0,271.2 788.5,286.0 841.0,284.3 867.2,282.5 893.5,280.5 919.8,278.8 946.0,276.7 946.0,280.7 919.8,280.3 893.5,280.7 867.2,282.9 841.0,285.0 788.5,287.6 736.0,273.8" fill="#1f77b4" opacity="0.11"/>
<polyline points="736.0,272.3 788.5,286.7 841.0,284.7 867.2,282.7 893.5,280.6 919.8,279.6 946.0,277.5" fill="none" stroke="#1f77b4" stroke-width="1.6"/>
<circle cx="736.0" cy="272.3" r="2" fill="#1f77b4"/>
<circle cx="788.5" cy="286.7" r="2" fill="#1f77b4"/>
<circle cx="841.0" cy="284.7" r="2" fill="#1f77b4"/>
<circle cx="867.2" cy="282.7" r="2" fill="#1f77b4"/>
<circle cx="893.5" cy="280.6" r="2" fill="#1f77b4"/>
<circle cx="919.8" cy="279.6" r="2" fill="#1f77b4"/>
<circle cx="946.0" cy="277.5" r="2" fill="#1f77b4"/>
<text x="841.0" y="227" text-anchor="middle" font-size="12" font-weight="bold">ztrmm</text>
<line x1="736.0" y1="232" x2="736.0" y2="370" stroke="#f4f4f4"/>
<text x="736.0" y="381" text-anchor="middle" font-size="8" fill="#999">8</text>
<line x1="788.5" y1="232" x2="788.5" y2="370" stroke="#f4f4f4"/>
<text x="788.5" y="381" text-anchor="middle" font-size="8" fill="#999">32</text>
<line x1="841.0" y1="232" x2="841.0" y2="370" stroke="#f4f4f4"/>
<text x="841.0" y="381" text-anchor="middle" font-size="8" fill="#999">128</text>
<line x1="867.2" y1="232" x2="867.2" y2="370" stroke="#f4f4f4"/>
<text x="867.2" y="381" text-anchor="middle" font-size="8" fill="#999">256</text>
<line x1="893.5" y1="232" x2="893.5" y2="370" stroke="#f4f4f4"/>
<text x="893.5" y="381" text-anchor="middle" font-size="8" fill="#999">512</text>
<line x1="919.8" y1="232" x2="919.8" y2="370" stroke="#f4f4f4"/>
<text x="919.8" y="381" text-anchor="middle" font-size="8" fill="#999">1k</text>
<line x1="946.0" y1="232" x2="946.0" y2="370" stroke="#f4f4f4"/>
<text x="946.0" y="381" text-anchor="middle" font-size="8" fill="#999">2k</text>
<rect x="46" y="404" width="210" height="138" fill="none" stroke="#e2e2e2"/>
<line x1="46" y1="459.7627611906553" x2="256" y2="459.7627611906553" stroke="#d33" stroke-dasharray="4 3"/>
<text x="42" y="545.0" text-anchor="end" font-size="9" fill="#999">0.5×</text>
<text x="42" y="462.7627611906553" text-anchor="end" font-size="9" fill="#999">1.0×</text>
<text x="42" y="407.0" text-anchor="end" font-size="9" fill="#999">1.6×</text>
<polygon points="46.0,428.5 98.5,454.1 151.0,470.4 177.2,457.1 203.5,446.7 229.8,443.0 256.0,438.6 256.0,440.1 229.8,444.1 203.5,447.0 177.2,457.9 151.0,473.1 98.5,455.8 46.0,430.3" fill="#d62728" opacity="0.11"/>
<polyline points="46.0,429.5 98.5,455.2 151.0,472.7 177.2,457.7 203.5,446.8 229.8,443.1 256.0,439.4" fill="none" stroke="#d62728" stroke-width="1.6"/>
<circle cx="46.0" cy="429.5" r="2" fill="#d62728"/>
<circle cx="98.5" cy="455.2" r="2" fill="#d62728"/>
<circle cx="151.0" cy="472.7" r="2" fill="#d62728"/>
<circle cx="177.2" cy="457.7" r="2" fill="#d62728"/>
<circle cx="203.5" cy="446.8" r="2" fill="#d62728"/>
<circle cx="229.8" cy="443.1" r="2" fill="#d62728"/>
<circle cx="256.0" cy="439.4" r="2" fill="#d62728"/>
<polygon points="46.0,421.0 98.5,456.1 151.0,430.3 177.2,436.3 203.5,433.8 229.8,438.4 256.0,441.7 256.0,442.0 229.8,439.4 203.5,435.1 177.2,437.8 151.0,432.1 98.5,458.2 46.0,434.1" fill="#2ca02c" opacity="0.11"/>
<polyline points="46.0,422.9 98.5,457.1 151.0,431.4 177.2,437.4 203.5,434.6 229.8,438.9 256.0,441.8" fill="none" stroke="#2ca02c" stroke-width="1.6"/>
<circle cx="46.0" cy="422.9" r="2" fill="#2ca02c"/>
<circle cx="98.5" cy="457.1" r="2" fill="#2ca02c"/>
<circle cx="151.0" cy="431.4" r="2" fill="#2ca02c"/>
<circle cx="177.2" cy="437.4" r="2" fill="#2ca02c"/>
<circle cx="203.5" cy="434.6" r="2" fill="#2ca02c"/>
<circle cx="229.8" cy="438.9" r="2" fill="#2ca02c"/>
<circle cx="256.0" cy="441.8" r="2" fill="#2ca02c"/>
<polygon points="46.0,439.4 98.5,458.1 151.0,447.3 177.2,444.7 203.5,442.8 229.8,445.9 256.0,444.9 256.0,448.9 229.8,447.5 203.5,443.9 177.2,445.3 151.0,448.5 98.5,460.1 46.0,441.8" fill="#1f77b4" opacity="0.11"/>
<polyline points="46.0,440.4 98.5,459.1 151.0,448.3 177.2,445.2 203.5,443.8 229.8,446.6 256.0,446.4" fill="none" stroke="#1f77b4" stroke-width="1.6"/>
<circle cx="46.0" cy="440.4" r="2" fill="#1f77b4"/>
<circle cx="98.5" cy="459.1" r="2" fill="#1f77b4"/>
<circle cx="151.0" cy="448.3" r="2" fill="#1f77b4"/>
<circle cx="177.2" cy="445.2" r="2" fill="#1f77b4"/>
<circle cx="203.5" cy="443.8" r="2" fill="#1f77b4"/>
<circle cx="229.8" cy="446.6" r="2" fill="#1f77b4"/>
<circle cx="256.0" cy="446.4" r="2" fill="#1f77b4"/>
<text x="151.0" y="399" text-anchor="middle" font-size="12" font-weight="bold">ztrsm</text>
<line x1="46.0" y1="404" x2="46.0" y2="542" stroke="#f4f4f4"/>
<text x="46.0" y="553" text-anchor="middle" font-size="8" fill="#999">8</text>
<line x1="98.5" y1="404" x2="98.5" y2="542" stroke="#f4f4f4"/>
<text x="98.5" y="553" text-anchor="middle" font-size="8" fill="#999">32</text>
<line x1="151.0" y1="404" x2="151.0" y2="542" stroke="#f4f4f4"/>
<text x="151.0" y="553" text-anchor="middle" font-size="8" fill="#999">128</text>
<line x1="177.2" y1="404" x2="177.2" y2="542" stroke="#f4f4f4"/>
<text x="177.2" y="553" text-anchor="middle" font-size="8" fill="#999">256</text>
<line x1="203.5" y1="404" x2="203.5" y2="542" stroke="#f4f4f4"/>
<text x="203.5" y="553" text-anchor="middle" font-size="8" fill="#999">512</text>
<line x1="229.8" y1="404" x2="229.8" y2="542" stroke="#f4f4f4"/>
<text x="229.8" y="553" text-anchor="middle" font-size="8" fill="#999">1k</text>
<line x1="256.0" y1="404" x2="256.0" y2="542" stroke="#f4f4f4"/>
<text x="256.0" y="553" text-anchor="middle" font-size="8" fill="#999">2k</text>
<rect x="276" y="404" width="210" height="138" fill="none" stroke="#e2e2e2"/>
<line x1="276" y1="459.7627611906553" x2="486" y2="459.7627611906553" stroke="#d33" stroke-dasharray="4 3"/>
<text x="272" y="545.0" text-anchor="end" font-size="9" fill="#999">0.5×</text>
<text x="272" y="462.7627611906553" text-anchor="end" font-size="9" fill="#999">1.0×</text>
<text x="272" y="407.0" text-anchor="end" font-size="9" fill="#999">1.6×</text>
<polygon points="276.0,456.4 328.5,487.1 381.0,458.1 407.2,452.2 433.5,445.4 459.8,441.5 486.0,436.1 486.0,438.2 459.8,442.9 433.5,446.7 407.2,452.7 381.0,458.6 328.5,493.4 276.0,458.8" fill="#d62728" opacity="0.11"/>
<polyline points="276.0,458.0 328.5,487.9 381.0,458.3 407.2,452.4 433.5,446.0 459.8,441.7 486.0,437.7" fill="none" stroke="#d62728" stroke-width="1.6"/>
<circle cx="276.0" cy="458.0" r="2" fill="#d62728"/>
<circle cx="328.5" cy="487.9" r="2" fill="#d62728"/>
<circle cx="381.0" cy="458.3" r="2" fill="#d62728"/>
<circle cx="407.2" cy="452.4" r="2" fill="#d62728"/>
<circle cx="433.5" cy="446.0" r="2" fill="#d62728"/>
<circle cx="459.8" cy="441.7" r="2" fill="#d62728"/>
<circle cx="486.0" cy="437.7" r="2" fill="#d62728"/>
<polygon points="276.0,426.1 328.5,467.0 381.0,449.4 407.2,440.5 433.5,440.0 459.8,441.9 486.0,441.3 486.0,441.9 459.8,442.7 433.5,441.6 407.2,441.4 381.0,451.6 328.5,472.3 276.0,439.4" fill="#2ca02c" opacity="0.11"/>
<polyline points="276.0,432.8 328.5,470.4 381.0,450.3 407.2,441.1 433.5,440.6 459.8,442.2 486.0,441.3" fill="none" stroke="#2ca02c" stroke-width="1.6"/>
<circle cx="276.0" cy="432.8" r="2" fill="#2ca02c"/>
<circle cx="328.5" cy="470.4" r="2" fill="#2ca02c"/>
<circle cx="381.0" cy="450.3" r="2" fill="#2ca02c"/>
<circle cx="407.2" cy="441.1" r="2" fill="#2ca02c"/>
<circle cx="433.5" cy="440.6" r="2" fill="#2ca02c"/>
<circle cx="459.8" cy="442.2" r="2" fill="#2ca02c"/>
<circle cx="486.0" cy="441.3" r="2" fill="#2ca02c"/>
<polygon points="276.0,433.8 328.5,442.7 381.0,448.0 407.2,450.0 433.5,451.2 459.8,450.7 486.0,446.7 486.0,449.6 459.8,451.7 433.5,451.6 407.2,450.5 381.0,448.5 328.5,444.4 276.0,437.0" fill="#1f77b4" opacity="0.11"/>
<polyline points="276.0,435.3 328.5,443.5 381.0,448.2 407.2,450.2 433.5,451.5 459.8,451.2 486.0,447.5" fill="none" stroke="#1f77b4" stroke-width="1.6"/>
<circle cx="276.0" cy="435.3" r="2" fill="#1f77b4"/>
<circle cx="328.5" cy="443.5" r="2" fill="#1f77b4"/>
<circle cx="381.0" cy="448.2" r="2" fill="#1f77b4"/>
<circle cx="407.2" cy="450.2" r="2" fill="#1f77b4"/>
<circle cx="433.5" cy="451.5" r="2" fill="#1f77b4"/>
<circle cx="459.8" cy="451.2" r="2" fill="#1f77b4"/>
<circle cx="486.0" cy="447.5" r="2" fill="#1f77b4"/>
<text x="381.0" y="399" text-anchor="middle" font-size="12" font-weight="bold">ztrmmR</text>
<line x1="276.0" y1="404" x2="276.0" y2="542" stroke="#f4f4f4"/>
<text x="276.0" y="553" text-anchor="middle" font-size="8" fill="#999">8</text>
<line x1="328.5" y1="404" x2="328.5" y2="542" stroke="#f4f4f4"/>
<text x="328.5" y="553" text-anchor="middle" font-size="8" fill="#999">32</text>
<line x1="381.0" y1="404" x2="381.0" y2="542" stroke="#f4f4f4"/>
<text x="381.0" y="553" text-anchor="middle" font-size="8" fill="#999">128</text>
<line x1="407.2" y1="404" x2="407.2" y2="542" stroke="#f4f4f4"/>
<text x="407.2" y="553" text-anchor="middle" font-size="8" fill="#999">256</text>
<line x1="433.5" y1="404" x2="433.5" y2="542" stroke="#f4f4f4"/>
<text x="433.5" y="553" text-anchor="middle" font-size="8" fill="#999">512</text>
<line x1="459.8" y1="404" x2="459.8" y2="542" stroke="#f4f4f4"/>
<text x="459.8" y="553" text-anchor="middle" font-size="8" fill="#999">1k</text>
<line x1="486.0" y1="404" x2="486.0" y2="542" stroke="#f4f4f4"/>
<text x="486.0" y="553" text-anchor="middle" font-size="8" fill="#999">2k</text>
<rect x="506" y="404" width="210" height="138" fill="none" stroke="#e2e2e2"/>
<line x1="506" y1="474.3004255489646" x2="716" y2="474.3004255489646" stroke="#d33" stroke-dasharray="4 3"/>
<text x="502" y="545.0" text-anchor="end" font-size="9" fill="#999">0.5×</text>
<text x="502" y="477.3004255489646" text-anchor="end" font-size="9" fill="#999">1.0×</text>
<text x="502" y="407.1891275688772" text-anchor="end" font-size="9" fill="#999">2.05×</text>
<polygon points="506.0,419.6 558.5,430.0 611.0,465.6 637.2,462.0 663.5,459.8 689.8,460.8 716.0,455.9 716.0,456.9 689.8,461.8 663.5,460.5 637.2,462.3 611.0,465.9 558.5,434.6 506.0,421.9" fill="#d62728" opacity="0.11"/>
<polyline points="506.0,420.3 558.5,431.9 611.0,465.8 637.2,462.2 663.5,460.1 689.8,460.8 716.0,456.6" fill="none" stroke="#d62728" stroke-width="1.6"/>
<circle cx="506.0" cy="420.3" r="2" fill="#d62728"/>
<circle cx="558.5" cy="431.9" r="2" fill="#d62728"/>
<circle cx="611.0" cy="465.8" r="2" fill="#d62728"/>
<circle cx="637.2" cy="462.2" r="2" fill="#d62728"/>
<circle cx="663.5" cy="460.1" r="2" fill="#d62728"/>
<circle cx="689.8" cy="460.8" r="2" fill="#d62728"/>
<circle cx="716.0" cy="456.6" r="2" fill="#d62728"/>
<polygon points="506.0,411.5 558.5,425.2 611.0,426.6 637.2,439.3 663.5,447.0 689.8,453.9 716.0,459.0 716.0,459.3 689.8,454.2 663.5,448.1 637.2,439.7 611.0,427.4 558.5,427.2 506.0,418.9" fill="#2ca02c" opacity="0.11"/>
<polyline points="506.0,414.6 558.5,426.3 611.0,426.9 637.2,439.5 663.5,447.5 689.8,454.0 716.0,459.1" fill="none" stroke="#2ca02c" stroke-width="1.6"/>
<circle cx="506.0" cy="414.6" r="2" fill="#2ca02c"/>
<circle cx="558.5" cy="426.3" r="2" fill="#2ca02c"/>
<circle cx="611.0" cy="426.9" r="2" fill="#2ca02c"/>
<circle cx="637.2" cy="439.5" r="2" fill="#2ca02c"/>
<circle cx="663.5" cy="447.5" r="2" fill="#2ca02c"/>
<circle cx="689.8" cy="454.0" r="2" fill="#2ca02c"/>
<circle cx="716.0" cy="459.1" r="2" fill="#2ca02c"/>
<polygon points="506.0,412.9 558.5,428.6 611.0,434.7 637.2,447.5 663.5,455.8 689.8,463.3 716.0,462.3 716.0,464.6 689.8,464.3 663.5,456.4 637.2,447.7 611.0,435.0 558.5,430.2 506.0,415.8" fill="#1f77b4" opacity="0.11"/>
<polyline points="506.0,413.8 558.5,429.6 611.0,434.9 637.2,447.7 663.5,456.1 689.8,464.0 716.0,463.8" fill="none" stroke="#1f77b4" stroke-width="1.6"/>
<circle cx="506.0" cy="413.8" r="2" fill="#1f77b4"/>
<circle cx="558.5" cy="429.6" r="2" fill="#1f77b4"/>
<circle cx="611.0" cy="434.9" r="2" fill="#1f77b4"/>
<circle cx="637.2" cy="447.7" r="2" fill="#1f77b4"/>
<circle cx="663.5" cy="456.1" r="2" fill="#1f77b4"/>
<circle cx="689.8" cy="464.0" r="2" fill="#1f77b4"/>
<circle cx="716.0" cy="463.8" r="2" fill="#1f77b4"/>
<text x="611.0" y="399" text-anchor="middle" font-size="12" font-weight="bold">ztrsmR</text>
<line x1="506.0" y1="404" x2="506.0" y2="542" stroke="#f4f4f4"/>
<text x="506.0" y="553" text-anchor="middle" font-size="8" fill="#999">8</text>
<line x1="558.5" y1="404" x2="558.5" y2="542" stroke="#f4f4f4"/>
<text x="558.5" y="553" text-anchor="middle" font-size="8" fill="#999">32</text>
<line x1="611.0" y1="404" x2="611.0" y2="542" stroke="#f4f4f4"/>
<text x="611.0" y="553" text-anchor="middle" font-size="8" fill="#999">128</text>
<line x1="637.2" y1="404" x2="637.2" y2="542" stroke="#f4f4f4"/>
<text x="637.2" y="553" text-anchor="middle" font-size="8" fill="#999">256</text>
<line x1="663.5" y1="404" x2="663.5" y2="542" stroke="#f4f4f4"/>
<text x="663.5" y="553" text-anchor="middle" font-size="8" fill="#999">512</text>
<line x1="689.8" y1="404" x2="689.8" y2="542" stroke="#f4f4f4"/>
<text x="689.8" y="553" text-anchor="middle" font-size="8" fill="#999">1k</text>
<line x1="716.0" y1="404" x2="716.0" y2="542" stroke="#f4f4f4"/>
<text x="716.0" y="553" text-anchor="middle" font-size="8" fill="#999">2k</text>
</svg>
