<svg xmlns="http://www.w3.org/2000/svg" width="900" height="440" font-family="sans-serif">
<rect width="900" height="440" fill="white"/>
<text x="450.0" y="28" text-anchor="middle" font-size="18" font-weight="bold">Complex BLAS-1: PureBLAS / OpenBLAS (AVX-512 (Zen4), 1 thread, ComplexF64)</text>
<line x1="60" y1="358.0" x2="880" y2="358.0" stroke="#eee"/>
<text x="52" y="362.0" text-anchor="end" font-size="11" fill="#666">0×</text>
<line x1="60" y1="346.68891414919597" x2="880" y2="346.68891414919597" stroke="#eee"/>
<text x="52" y="350.68891414919597" text-anchor="end" font-size="11" fill="#666">0.5×</text>
<line x1="60" y1="335.37782829839193" x2="880" y2="335.37782829839193" stroke="#eee"/>
<text x="52" y="339.37782829839193" text-anchor="end" font-size="11" fill="#666">1×</text>
<line x1="60" y1="324.0667424475879" x2="880" y2="324.0667424475879" stroke="#eee"/>
<text x="52" y="328.0667424475879" text-anchor="end" font-size="11" fill="#666">1.5×</text>
<line x1="60" y1="335.37782829839193" x2="880" y2="335.37782829839193" stroke="#888" stroke-width="1"/>
<line x1="60" y1="336.2827151664563" x2="880" y2="336.2827151664563" stroke="#d33" stroke-width="1.5" stroke-dasharray="6 4"/>
<text x="880" y="331.2827151664563" text-anchor="end" font-size="11" fill="#d33">0.96× gate</text>
<polygon points="142.0,341.2 142.0,340.8 142.1,340.5 142.3,340.2 142.5,339.9 142.9,339.6 143.3,339.2 143.7,338.9 143.8,338.6 144.0,338.3 144.5,337.9 145.9,337.6 148.5,337.3 153.2,337.0 160.3,336.7 170.1,336.3 181.9,336.0 194.1,335.7 204.3,335.4 210.3,335.0 210.9,334.7 206.1,334.4 197.3,334.1 186.5,333.8 175.6,333.4 166.2,333.1 159.1,332.8 154.1,332.5 150.7,332.1 148.3,331.8 146.4,331.5 145.0,331.2 144.0,330.8 143.5,330.5 143.3,330.2 143.4,329.9 143.6,329.6 143.9,329.2 144.3,328.9 144.6,328.6 144.5,328.3 144.0,327.9 143.4,327.6 142.8,327.3 142.4,327.0 142.2,326.7 142.1,326.3 142.0,326.0 142.0,325.7 142.0,325.4 142.0,325.0 142.0,324.7 142.0,324.4 142.0,324.1 142.0,323.8 142.0,323.4 142.0,323.1 142.0,322.8 142.0,322.5 142.1,322.1 142.2,321.8 142.4,321.5 142.6,321.2 142.7,320.9 142.8,320.5 142.8,320.2 142.6,319.9 142.4,319.6 142.2,319.2 142.1,318.9 142.0,318.6 142.0,318.3 142.0,318.3 142.0,318.6 141.9,318.9 141.8,319.2 141.6,319.6 141.4,319.9 141.2,320.2 141.2,320.5 141.3,320.9 141.4,321.2 141.6,321.5 141.8,321.8 141.9,322.1 142.0,322.5 142.0,322.8 142.0,323.1 142.0,323.4 142.0,323.8 142.0,324.1 142.0,324.4 142.0,324.7 142.0,325.0 142.0,325.4 142.0,325.7 142.0,326.0 141.9,326.3 141.8,326.7 141.6,327.0 141.2,327.3 140.6,327.6 140.0,327.9 139.5,328.3 139.4,328.6 139.7,328.9 140.1,329.2 140.4,329.6 140.6,329.9 140.7,330.2 140.5,330.5 140.0,330.8 139.0,331.2 137.6,331.5 135.7,331.8 133.3,332.1 129.9,332.5 124.9,332.8 117.8,333.1 108.4,333.4 97.5,333.8 86.7,334.1 77.9,334.4 73.1,334.7 73.7,335.0 79.7,335.4 89.9,335.7 102.1,336.0 113.9,336.3 123.7,336.7 130.8,337.0 135.5,337.3 138.1,337.6 139.5,337.9 140.0,338.3 140.2,338.6 140.3,338.9 140.7,339.2 141.1,339.6 141.5,339.9 141.7,340.2 141.9,340.5 142.0,340.8 142.0,341.2" fill="#2a8" opacity="0.5" stroke="#2a8" stroke-width="1"/>
<line x1="73.1" y1="334.7184324033485" x2="210.9" y2="334.7184324033485" stroke="#114" stroke-width="2"/>
<circle cx="142.0" cy="335.2511130457044" r="2.4" fill="#114"/>
<text x="142.0" y="314.528060887272" text-anchor="middle" font-size="11">1.03</text>
<text x="142.0" y="376" text-anchor="middle" font-size="12">zaxpy</text>
<polygon points="306.2,342.1 306.4,341.8 306.7,341.6 307.1,341.3 307.5,341.1 307.9,340.8 308.4,340.6 308.6,340.3 308.8,340.1 308.7,339.8 308.5,339.6 308.2,339.3 308.0,339.1 307.9,338.8 308.0,338.6 308.4,338.3 309.3,338.0 310.6,337.8 312.4,337.5 315.0,337.3 318.5,337.0 322.9,336.8 328.4,336.5 334.8,336.3 341.8,336.0 349.2,335.8 356.4,335.5 362.7,335.3 367.8,335.0 371.5,334.8 373.7,334.5 374.7,334.3 374.9,334.0 374.6,333.8 374.0,333.5 373.6,333.2 373.3,333.0 373.2,332.7 373.3,332.5 373.2,332.2 372.7,332.0 371.4,331.7 369.1,331.5 365.7,331.2 361.4,331.0 356.6,330.7 351.5,330.5 346.4,330.2 341.4,330.0 336.4,329.7 331.5,329.5 326.9,329.2 322.5,328.9 318.7,328.7 315.6,328.4 313.2,328.2 311.6,327.9 310.5,327.7 309.7,327.4 309.3,327.2 308.9,326.9 308.7,326.7 308.4,326.4 308.2,326.2 308.0,325.9 307.7,325.7 307.4,325.4 307.1,325.2 306.8,324.9 306.5,324.6 306.3,324.4 306.2,324.1 305.8,324.1 305.7,324.4 305.5,324.6 305.2,324.9 304.9,325.2 304.6,325.4 304.3,325.7 304.0,325.9 303.8,326.2 303.6,326.4 303.3,326.7 303.1,326.9 302.7,327.2 302.3,327.4 301.5,327.7 300.4,327.9 298.8,328.2 296.4,328.4 293.3,328.7 289.5,328.9 285.1,329.2 280.5,329.5 275.6,329.7 270.6,330.0 265.6,330.2 260.5,330.5 255.4,330.7 250.6,331.0 246.3,331.2 242.9,331.5 240.6,331.7 239.3,332.0 238.8,332.2 238.7,332.5 238.8,332.7 238.7,333.0 238.4,333.2 238.0,333.5 237.4,333.8 237.1,334.0 237.3,334.3 238.3,334.5 240.5,334.8 244.2,335.0 249.3,335.3 255.6,335.5 262.8,335.8 270.2,336.0 277.2,336.3 283.6,336.5 289.1,336.8 293.5,337.0 297.0,337.3 299.6,337.5 301.4,337.8 302.7,338.0 303.6,338.3 304.0,338.6 304.1,338.8 304.0,339.1 303.8,339.3 303.5,339.6 303.3,339.8 303.2,340.1 303.4,340.3 303.6,340.6 304.1,340.8 304.5,341.1 304.9,341.3 305.3,341.6 305.6,341.8 305.8,342.1" fill="#2a8" opacity="0.5" stroke="#2a8" stroke-width="1"/>
<line x1="238.7" y1="333.0673348290987" x2="373.3" y2="333.0673348290987" stroke="#114" stroke-width="2"/>
<circle cx="306.0" cy="334.8557438017782" r="2.4" fill="#114"/>
<text x="306.0" y="319.91782584411976" text-anchor="middle" font-size="11">1.10</text>
<text x="306.0" y="376" text-anchor="middle" font-size="12">zdotc</text>
<polygon points="470.0,342.7 470.1,342.4 470.2,342.2 470.3,342.0 470.5,341.7 470.7,341.5 470.9,341.3 470.9,341.1 470.9,340.8 470.7,340.6 470.6,340.4 470.4,340.1 470.4,339.9 470.5,339.7 470.6,339.4 470.9,339.2 471.1,339.0 471.4,338.8 471.7,338.5 471.9,338.3 472.3,338.1 472.9,337.8 473.7,337.6 475.2,337.4 477.5,337.1 480.9,336.9 485.8,336.7 492.3,336.5 500.5,336.2 510.2,336.0 520.5,335.8 529.9,335.5 536.6,335.3 538.9,335.1 536.4,334.8 530.2,334.6 522.4,334.4 515.0,334.2 509.3,333.9 505.5,333.7 502.6,333.5 499.7,333.2 496.2,333.0 491.7,332.8 486.9,332.6 482.2,332.3 478.2,332.1 475.3,331.9 473.4,331.6 472.2,331.4 471.7,331.2 471.5,330.9 471.7,330.7 471.9,330.5 472.3,330.3 472.6,330.0 472.8,329.8 472.8,329.6 472.7,329.3 472.4,329.1 472.2,328.9 471.9,328.6 471.6,328.4 471.4,328.2 471.2,328.0 471.0,327.7 470.8,327.5 470.5,327.3 470.3,327.0 470.2,326.8 470.1,326.6 470.0,326.3 470.0,326.3 469.9,326.6 469.8,326.8 469.7,327.0 469.5,327.3 469.2,327.5 469.0,327.7 468.8,328.0 468.6,328.2 468.4,328.4 468.1,328.6 467.8,328.9 467.6,329.1 467.3,329.3 467.2,329.6 467.2,329.8 467.4,330.0 467.7,330.3 468.1,330.5 468.3,330.7 468.5,330.9 468.3,331.2 467.8,331.4 466.6,331.6 464.7,331.9 461.8,332.1 457.8,332.3 453.1,332.6 448.3,332.8 443.8,333.0 440.3,333.2 437.4,333.5 434.5,333.7 430.7,333.9 425.0,334.2 417.6,334.4 409.8,334.6 403.6,334.8 401.1,335.1 403.4,335.3 410.1,335.5 419.5,335.8 429.8,336.0 439.5,336.2 447.7,336.5 454.2,336.7 459.1,336.9 462.5,337.1 464.8,337.4 466.3,337.6 467.1,337.8 467.7,338.1 468.1,338.3 468.3,338.5 468.6,338.8 468.9,339.0 469.1,339.2 469.4,339.4 469.5,339.7 469.6,339.9 469.6,340.1 469.4,340.4 469.3,340.6 469.1,340.8 469.1,341.1 469.1,341.3 469.3,341.5 469.5,341.7 469.7,342.0 469.8,342.2 469.9,342.4 470.0,342.7" fill="#2a8" opacity="0.5" stroke="#2a8" stroke-width="1"/>
<line x1="402.4" y1="334.9199158536756" x2="537.6" y2="334.9199158536756" stroke="#114" stroke-width="2"/>
<circle cx="470.0" cy="335.27884798630663" r="2.4" fill="#114"/>
<text x="470.0" y="321.962429412668" text-anchor="middle" font-size="11">1.02</text>
<text x="470.0" y="376" text-anchor="middle" font-size="12">zscal</text>
<polygon points="639.1,327.1 641.5,323.2 644.9,319.3 649.1,315.4 654.3,311.5 660.3,307.6 667.0,303.7 674.1,299.8 681.1,295.9 687.7,292.0 693.4,288.1 697.9,284.2 701.0,280.3 702.6,276.4 702.9,272.5 702.0,268.6 700.4,264.7 698.2,260.8 696.0,256.9 693.8,253.0 692.0,249.1 690.5,245.1 689.5,241.2 688.8,237.3 688.3,233.4 687.9,229.5 687.5,225.6 687.0,221.7 686.3,217.8 685.3,213.9 684.1,210.0 682.5,206.1 680.8,202.2 678.9,198.3 676.8,194.4 674.6,190.5 672.2,186.6 669.6,182.7 667.0,178.8 664.2,174.9 661.3,171.0 658.3,167.1 655.4,163.2 652.6,159.3 650.0,155.4 647.6,151.5 645.5,147.6 643.7,143.7 642.3,139.8 641.1,135.9 640.2,132.0 639.6,128.1 639.1,124.2 638.9,120.3 638.7,116.4 638.7,112.4 638.7,108.5 638.7,104.6 638.8,100.7 638.9,96.8 638.9,92.9 638.8,89.0 638.7,85.1 638.5,81.2 638.3,77.3 637.9,73.4 637.5,69.5 637.1,65.6 636.6,61.7 636.2,57.8 635.8,53.9 635.4,50.0 632.6,50.0 632.2,53.9 631.8,57.8 631.4,61.7 630.9,65.6 630.5,69.5 630.1,73.4 629.7,77.3 629.5,81.2 629.3,85.1 629.2,89.0 629.1,92.9 629.1,96.8 629.2,100.7 629.3,104.6 629.3,108.5 629.3,112.4 629.3,116.4 629.1,120.3 628.9,124.2 628.4,128.1 627.8,132.0 626.9,135.9 625.7,139.8 624.3,143.7 622.5,147.6 620.4,151.5 618.0,155.4 615.4,159.3 612.6,163.2 609.7,167.1 606.7,171.0 603.8,174.9 601.0,178.8 598.4,182.7 595.8,186.6 593.4,190.5 591.2,194.4 589.1,198.3 587.2,202.2 585.5,206.1 583.9,210.0 582.7,213.9 581.7,217.8 581.0,221.7 580.5,225.6 580.1,229.5 579.7,233.4 579.2,237.3 578.5,241.2 577.5,245.1 576.0,249.1 574.2,253.0 572.0,256.9 569.8,260.8 567.6,264.7 566.0,268.6 565.1,272.5 565.4,276.4 567.0,280.3 570.1,284.2 574.6,288.1 580.3,292.0 586.9,295.9 593.9,299.8 601.0,303.7 607.7,307.6 613.7,311.5 618.9,315.4 623.1,319.3 626.5,323.2 628.9,327.1" fill="#2a8" opacity="0.5" stroke="#2a8" stroke-width="1"/>
<line x1="578.8" y1="239.79841447984026" x2="689.2" y2="239.79841447984026" stroke="#114" stroke-width="2"/>
<circle cx="634.0" cy="283.34761694434883" r="2.4" fill="#114"/>
<text x="634.0" y="61.433962264150935" text-anchor="middle" font-size="11">5.23</text>
<text x="634.0" y="376" text-anchor="middle" font-size="12">dznrm2</text>
<polygon points="798.2,341.8 798.4,341.5 798.6,341.3 799.0,341.1 799.6,340.8 800.2,340.6 800.9,340.4 801.7,340.1 802.3,339.9 802.9,339.7 803.5,339.4 804.1,339.2 805.0,339.0 806.3,338.7 808.5,338.5 811.5,338.2 815.5,338.0 820.4,337.8 826.0,337.5 832.0,337.3 838.4,337.1 844.9,336.8 851.4,336.6 857.4,336.4 862.4,336.1 865.7,335.9 866.9,335.7 865.7,335.4 862.4,335.2 857.6,335.0 852.3,334.7 847.2,334.5 842.9,334.2 839.6,334.0 837.0,333.8 834.6,333.5 832.0,333.3 828.7,333.1 824.7,332.8 820.3,332.6 815.9,332.4 811.9,332.1 808.7,331.9 806.4,331.7 804.9,331.4 803.9,331.2 803.3,330.9 802.7,330.7 802.2,330.5 801.6,330.2 800.9,330.0 800.3,329.8 799.8,329.5 799.5,329.3 799.4,329.1 799.3,328.8 799.3,328.6 799.3,328.4 799.2,328.1 799.2,327.9 799.2,327.7 799.2,327.4 799.2,327.2 799.2,326.9 799.2,326.7 799.1,326.5 798.9,326.2 798.7,326.0 798.5,325.8 798.3,325.5 798.2,325.3 798.1,325.1 797.9,325.1 797.8,325.3 797.7,325.5 797.5,325.8 797.3,326.0 797.1,326.2 796.9,326.5 796.8,326.7 796.8,326.9 796.8,327.2 796.8,327.4 796.8,327.7 796.8,327.9 796.8,328.1 796.7,328.4 796.7,328.6 796.7,328.8 796.6,329.1 796.5,329.3 796.2,329.5 795.7,329.8 795.1,330.0 794.4,330.2 793.8,330.5 793.3,330.7 792.7,330.9 792.1,331.2 791.1,331.4 789.6,331.7 787.3,331.9 784.1,332.1 780.1,332.4 775.7,332.6 771.3,332.8 767.3,333.1 764.0,333.3 761.4,333.5 759.0,333.8 756.4,334.0 753.1,334.2 748.8,334.5 743.7,334.7 738.4,335.0 733.6,335.2 730.3,335.4 729.1,335.7 730.3,335.9 733.6,336.1 738.6,336.4 744.6,336.6 751.1,336.8 757.6,337.1 764.0,337.3 770.0,337.5 775.6,337.8 780.5,338.0 784.5,338.2 787.5,338.5 789.7,338.7 791.0,339.0 791.9,339.2 792.5,339.4 793.1,339.7 793.7,339.9 794.3,340.1 795.1,340.4 795.8,340.6 796.4,340.8 797.0,341.1 797.4,341.3 797.6,341.5 797.8,341.8" fill="#d33" opacity="0.5" stroke="#d33" stroke-width="1"/>
<line x1="729.9" y1="335.4732238679575" x2="866.1" y2="335.4732238679575" stroke="#114" stroke-width="2"/>
<circle cx="798.0" cy="336.73367102479915" r="2.4" fill="#114"/>
<text x="798.0" y="320.7183701326099" text-anchor="middle" font-size="11">1.00</text>
<text x="798.0" y="376" text-anchor="middle" font-size="12">dzasum</text>
<text x="450.0" y="428" text-anchor="middle" font-size="11" fill="#666">violin = ratio distribution over sizes · line = median · dark dot = worst size · green = every size ≥ gate</text>
</svg>
