<svg xmlns="http://www.w3.org/2000/svg" width="962" height="420" font-family="sans-serif">
<rect width="962" height="420" fill="white"/>
<text x="481.0" y="26" text-anchor="middle" font-size="17" font-weight="bold">BLAS-3 — PureBLAS / AOCL (PB/AOCL ratio)</text>
<line x1="46" y1="42" x2="68" y2="42" stroke="#d62728" stroke-width="3"/>
<text x="73" y="46" font-size="12">Zen3 · AVX2</text>
<line x1="176" y1="42" x2="198" y2="42" stroke="#2ca02c" stroke-width="3"/>
<text x="203" y="46" font-size="12">Zen5 · AVX-512</text>
<line x1="327" y1="42" x2="349" y2="42" stroke="#1f77b4" stroke-width="3"/>
<text x="354" y="46" font-size="12">Zen4 · AVX-512</text>
<rect x="46" y="60" width="210" height="138" fill="none" stroke="#e2e2e2"/>
<line x1="46" y1="126.22731769753183" x2="256" y2="126.22731769753183" stroke="#d33" stroke-dasharray="4 3"/>
<text x="42" y="201.0" text-anchor="end" font-size="9" fill="#999">0.5×</text>
<text x="42" y="129.22731769753182" text-anchor="end" font-size="9" fill="#999">1.0×</text>
<polygon points="46.0,81.3 92.7,123.6 139.3,125.1 162.7,125.8 186.0,123.5 209.3,118.5 232.7,110.9 256.0,99.2 256.0,100.4 232.7,111.2 209.3,118.7 186.0,123.7 162.7,126.3 139.3,128.1 92.7,127.1 46.0,83.5" fill="#d62728" opacity="0.11"/>
<polyline points="46.0,81.7 92.7,124.1 139.3,127.1 162.7,126.1 186.0,123.5 209.3,118.6 232.7,111.1 256.0,99.3" fill="none" stroke="#d62728" stroke-width="1.6"/>
<circle cx="46.0" cy="81.7" r="2" fill="#d62728"/>
<circle cx="92.7" cy="124.1" r="2" fill="#d62728"/>
<circle cx="139.3" cy="127.1" r="2" fill="#d62728"/>
<circle cx="162.7" cy="126.1" r="2" fill="#d62728"/>
<circle cx="186.0" cy="123.5" r="2" fill="#d62728"/>
<circle cx="209.3" cy="118.6" r="2" fill="#d62728"/>
<circle cx="232.7" cy="111.1" r="2" fill="#d62728"/>
<circle cx="256.0" cy="99.3" r="2" fill="#d62728"/>
<polygon points="46.0,68.0 92.7,115.9 139.3,126.2 162.7,126.4 186.0,126.1 209.3,119.8 232.7,110.3 256.0,98.1 256.0,98.6 232.7,111.4 209.3,121.0 186.0,126.8 162.7,128.2 139.3,127.8 92.7,118.9 46.0,72.3" fill="#2ca02c" opacity="0.11"/>
<polyline points="46.0,70.6 92.7,117.3 139.3,126.9 162.7,126.7 186.0,126.4 209.3,120.6 232.7,110.8 256.0,98.4" fill="none" stroke="#2ca02c" stroke-width="1.6"/>
<circle cx="46.0" cy="70.6" r="2" fill="#2ca02c"/>
<circle cx="92.7" cy="117.3" r="2" fill="#2ca02c"/>
<circle cx="139.3" cy="126.9" r="2" fill="#2ca02c"/>
<circle cx="162.7" cy="126.7" r="2" fill="#2ca02c"/>
<circle cx="186.0" cy="126.4" r="2" fill="#2ca02c"/>
<circle cx="209.3" cy="120.6" r="2" fill="#2ca02c"/>
<circle cx="232.7" cy="110.8" r="2" fill="#2ca02c"/>
<circle cx="256.0" cy="98.4" r="2" fill="#2ca02c"/>
<polygon points="46.0,80.7 92.7,109.5 139.3,128.3 162.7,127.2 186.0,118.9 209.3,112.2 232.7,97.2 256.0,101.9 256.0,102.2 232.7,102.8 209.3,114.4 186.0,120.6 162.7,129.0 139.3,129.5 92.7,111.5 46.0,111.3" fill="#1f77b4" opacity="0.11"/>
<polyline points="46.0,81.4 92.7,110.4 139.3,129.2 162.7,127.5 186.0,119.6 209.3,113.4 232.7,99.7 256.0,102.0" fill="none" stroke="#1f77b4" stroke-width="1.6"/>
<circle cx="46.0" cy="81.4" r="2" fill="#1f77b4"/>
<circle cx="92.7" cy="110.4" r="2" fill="#1f77b4"/>
<circle cx="139.3" cy="129.2" r="2" fill="#1f77b4"/>
<circle cx="162.7" cy="127.5" r="2" fill="#1f77b4"/>
<circle cx="186.0" cy="119.6" r="2" fill="#1f77b4"/>
<circle cx="209.3" cy="113.4" r="2" fill="#1f77b4"/>
<circle cx="232.7" cy="99.7" r="2" fill="#1f77b4"/>
<circle cx="256.0" cy="102.0" r="2" fill="#1f77b4"/>
<text x="151.0" y="55" text-anchor="middle" font-size="12" font-weight="bold">gemm</text>
<line x1="46.0" y1="60" x2="46.0" y2="198" stroke="#f4f4f4"/>
<text x="46.0" y="209" text-anchor="middle" font-size="8" fill="#999">8</text>
<line x1="92.7" y1="60" x2="92.7" y2="198" stroke="#f4f4f4"/>
<text x="92.7" y="209" text-anchor="middle" font-size="8" fill="#999">32</text>
<line x1="139.3" y1="60" x2="139.3" y2="198" stroke="#f4f4f4"/>
<text x="139.3" y="209" text-anchor="middle" font-size="8" fill="#999">128</text>
<line x1="162.7" y1="60" x2="162.7" y2="198" stroke="#f4f4f4"/>
<text x="162.7" y="209" text-anchor="middle" font-size="8" fill="#999">256</text>
<line x1="186.0" y1="60" x2="186.0" y2="198" stroke="#f4f4f4"/>
<text x="186.0" y="209" text-anchor="middle" font-size="8" fill="#999">512</text>
<line x1="209.3" y1="60" x2="209.3" y2="198" stroke="#f4f4f4"/>
<text x="209.3" y="209" text-anchor="middle" font-size="8" fill="#999">1k</text>
<line x1="232.7" y1="60" x2="232.7" y2="198" stroke="#f4f4f4"/>
<text x="232.7" y="209" text-anchor="middle" font-size="8" fill="#999">2k</text>
<line x1="256.0" y1="60" x2="256.0" y2="198" stroke="#f4f4f4"/>
<text x="256.0" y="209" text-anchor="middle" font-size="8" fill="#999">4k</text>
<rect x="276" y="60" width="210" height="138" fill="none" stroke="#e2e2e2"/>
<line x1="276" y1="175.06226505250044" x2="486" y2="175.06226505250044" stroke="#d33" stroke-dasharray="4 3"/>
<text x="272" y="201.0" text-anchor="end" font-size="9" fill="#999">0.5×</text>
<text x="272" y="178.06226505250044" text-anchor="end" font-size="9" fill="#999">1.0×</text>
<text x="272" y="63.003382093365055" text-anchor="end" font-size="9" fill="#999">32.36×</text>
<polygon points="276.0,70.9 322.7,145.8 369.3,173.6 392.7,177.8 416.0,176.2 439.3,175.7 462.7,175.3 486.0,174.0 486.0,175.1 462.7,175.4 439.3,175.8 416.0,176.3 392.7,178.1 369.3,174.2 322.7,149.5 276.0,72.4" fill="#d62728" opacity="0.11"/>
<polyline points="276.0,71.2 322.7,146.4 369.3,174.0 392.7,177.9 416.0,176.3 439.3,175.8 462.7,175.4 486.0,174.9" fill="none" stroke="#d62728" stroke-width="1.6"/>
<circle cx="276.0" cy="71.2" r="2" fill="#d62728"/>
<circle cx="322.7" cy="146.4" r="2" fill="#d62728"/>
<circle cx="369.3" cy="174.0" r="2" fill="#d62728"/>
<circle cx="392.7" cy="177.9" r="2" fill="#d62728"/>
<circle cx="416.0" cy="176.3" r="2" fill="#d62728"/>
<circle cx="439.3" cy="175.8" r="2" fill="#d62728"/>
<circle cx="462.7" cy="175.4" r="2" fill="#d62728"/>
<circle cx="486.0" cy="174.9" r="2" fill="#d62728"/>
<polygon points="276.0,62.5 322.7,141.2 369.3,170.3 392.7,174.3 416.0,175.0 439.3,175.6 462.7,175.7 486.0,175.3 486.0,175.3 462.7,175.8 439.3,175.8 416.0,175.2 392.7,174.6 369.3,170.5 322.7,142.0 276.0,67.6" fill="#2ca02c" opacity="0.11"/>
<polyline points="276.0,63.0 322.7,141.6 369.3,170.4 392.7,174.4 416.0,175.0 439.3,175.8 462.7,175.7 486.0,175.3" fill="none" stroke="#2ca02c" stroke-width="1.6"/>
<circle cx="276.0" cy="63.0" r="2" fill="#2ca02c"/>
<circle cx="322.7" cy="141.6" r="2" fill="#2ca02c"/>
<circle cx="369.3" cy="170.4" r="2" fill="#2ca02c"/>
<circle cx="392.7" cy="174.4" r="2" fill="#2ca02c"/>
<circle cx="416.0" cy="175.0" r="2" fill="#2ca02c"/>
<circle cx="439.3" cy="175.8" r="2" fill="#2ca02c"/>
<circle cx="462.7" cy="175.7" r="2" fill="#2ca02c"/>
<circle cx="486.0" cy="175.3" r="2" fill="#2ca02c"/>
<polygon points="276.0,64.0 322.7,138.0 369.3,170.6 392.7,177.3 416.0,176.0 439.3,176.1 462.7,176.4 486.0,176.3 486.0,176.7 462.7,176.6 439.3,176.3 416.0,176.0 392.7,177.6 369.3,170.8 322.7,139.8 276.0,68.2" fill="#1f77b4" opacity="0.11"/>
<polyline points="276.0,64.2 322.7,138.5 369.3,170.7 392.7,177.4 416.0,176.0 439.3,176.2 462.7,176.6 486.0,176.5" fill="none" stroke="#1f77b4" stroke-width="1.6"/>
<circle cx="276.0" cy="64.2" r="2" fill="#1f77b4"/>
<circle cx="322.7" cy="138.5" r="2" fill="#1f77b4"/>
<circle cx="369.3" cy="170.7" r="2" fill="#1f77b4"/>
<circle cx="392.7" cy="177.4" r="2" fill="#1f77b4"/>
<circle cx="416.0" cy="176.0" r="2" fill="#1f77b4"/>
<circle cx="439.3" cy="176.2" r="2" fill="#1f77b4"/>
<circle cx="462.7" cy="176.6" r="2" fill="#1f77b4"/>
<circle cx="486.0" cy="176.5" r="2" fill="#1f77b4"/>
<text x="381.0" y="55" text-anchor="middle" font-size="12" font-weight="bold">symm</text>
<line x1="276.0" y1="60" x2="276.0" y2="198" stroke="#f4f4f4"/>
<text x="276.0" y="209" text-anchor="middle" font-size="8" fill="#999">8</text>
<line x1="322.7" y1="60" x2="322.7" y2="198" stroke="#f4f4f4"/>
<text x="322.7" y="209" text-anchor="middle" font-size="8" fill="#999">32</text>
<line x1="369.3" y1="60" x2="369.3" y2="198" stroke="#f4f4f4"/>
<text x="369.3" y="209" text-anchor="middle" font-size="8" fill="#999">128</text>
<line x1="392.7" y1="60" x2="392.7" y2="198" stroke="#f4f4f4"/>
<text x="392.7" y="209" text-anchor="middle" font-size="8" fill="#999">256</text>
<line x1="416.0" y1="60" x2="416.0" y2="198" stroke="#f4f4f4"/>
<text x="416.0" y="209" text-anchor="middle" font-size="8" fill="#999">512</text>
<line x1="439.3" y1="60" x2="439.3" y2="198" stroke="#f4f4f4"/>
<text x="439.3" y="209" text-anchor="middle" font-size="8" fill="#999">1k</text>
<line x1="462.7" y1="60" x2="462.7" y2="198" stroke="#f4f4f4"/>
<text x="462.7" y="209" text-anchor="middle" font-size="8" fill="#999">2k</text>
<line x1="486.0" y1="60" x2="486.0" y2="198" stroke="#f4f4f4"/>
<text x="486.0" y="209" text-anchor="middle" font-size="8" fill="#999">4k</text>
<rect x="506" y="60" width="210" height="138" fill="none" stroke="#e2e2e2"/>
<line x1="506" y1="167.46668868940156" x2="716" y2="167.46668868940156" stroke="#d33" stroke-dasharray="4 3"/>
<text x="502" y="201.0" text-anchor="end" font-size="9" fill="#999">0.5×</text>
<text x="502" y="170.46668868940156" text-anchor="end" font-size="9" fill="#999">1.0×</text>
<polygon points="506.0,65.8 552.7,160.3 599.3,167.3 622.7,168.1 646.0,167.3 669.3,168.0 692.7,168.8 716.0,168.4 716.0,168.6 692.7,169.0 669.3,168.1 646.0,167.5 622.7,169.7 599.3,171.5 552.7,164.7 506.0,66.8" fill="#d62728" opacity="0.11"/>
<polyline points="506.0,66.2 552.7,162.0 599.3,169.3 622.7,168.5 646.0,167.4 669.3,168.0 692.7,168.9 716.0,168.5" fill="none" stroke="#d62728" stroke-width="1.6"/>
<circle cx="506.0" cy="66.2" r="2" fill="#d62728"/>
<circle cx="552.7" cy="162.0" r="2" fill="#d62728"/>
<circle cx="599.3" cy="169.3" r="2" fill="#d62728"/>
<circle cx="622.7" cy="168.5" r="2" fill="#d62728"/>
<circle cx="646.0" cy="167.4" r="2" fill="#d62728"/>
<circle cx="669.3" cy="168.0" r="2" fill="#d62728"/>
<circle cx="692.7" cy="168.9" r="2" fill="#d62728"/>
<circle cx="716.0" cy="168.5" r="2" fill="#d62728"/>
<polygon points="506.0,78.3 552.7,164.6 599.3,172.7 622.7,164.6 646.0,165.3 669.3,166.6 692.7,168.3 716.0,169.4 716.0,169.6 692.7,168.4 669.3,166.9 646.0,165.4 622.7,165.0 599.3,173.6 552.7,165.3 506.0,81.1" fill="#2ca02c" opacity="0.11"/>
<polyline points="506.0,78.6 552.7,165.0 599.3,173.0 622.7,164.8 646.0,165.4 669.3,166.7 692.7,168.3 716.0,169.6" fill="none" stroke="#2ca02c" stroke-width="1.6"/>
<circle cx="506.0" cy="78.6" r="2" fill="#2ca02c"/>
<circle cx="552.7" cy="165.0" r="2" fill="#2ca02c"/>
<circle cx="599.3" cy="173.0" r="2" fill="#2ca02c"/>
<circle cx="622.7" cy="164.8" r="2" fill="#2ca02c"/>
<circle cx="646.0" cy="165.4" r="2" fill="#2ca02c"/>
<circle cx="669.3" cy="166.7" r="2" fill="#2ca02c"/>
<circle cx="692.7" cy="168.3" r="2" fill="#2ca02c"/>
<circle cx="716.0" cy="169.6" r="2" fill="#2ca02c"/>
<polygon points="506.0,63.4 552.7,151.7 599.3,171.3 622.7,165.1 646.0,164.8 669.3,166.5 692.7,169.1 716.0,169.9 716.0,170.4 692.7,169.3 669.3,166.7 646.0,165.0 622.7,165.9 599.3,171.8 552.7,152.9 506.0,66.3" fill="#1f77b4" opacity="0.11"/>
<polyline points="506.0,64.6 552.7,152.5 599.3,171.5 622.7,165.3 646.0,164.9 669.3,166.6 692.7,169.2 716.0,170.1" fill="none" stroke="#1f77b4" stroke-width="1.6"/>
<circle cx="506.0" cy="64.6" r="2" fill="#1f77b4"/>
<circle cx="552.7" cy="152.5" r="2" fill="#1f77b4"/>
<circle cx="599.3" cy="171.5" r="2" fill="#1f77b4"/>
<circle cx="622.7" cy="165.3" r="2" fill="#1f77b4"/>
<circle cx="646.0" cy="164.9" r="2" fill="#1f77b4"/>
<circle cx="669.3" cy="166.6" r="2" fill="#1f77b4"/>
<circle cx="692.7" cy="169.2" r="2" fill="#1f77b4"/>
<circle cx="716.0" cy="170.1" r="2" fill="#1f77b4"/>
<text x="611.0" y="55" text-anchor="middle" font-size="12" font-weight="bold">syrk</text>
<line x1="506.0" y1="60" x2="506.0" y2="198" stroke="#f4f4f4"/>
<text x="506.0" y="209" text-anchor="middle" font-size="8" fill="#999">8</text>
<line x1="552.7" y1="60" x2="552.7" y2="198" stroke="#f4f4f4"/>
<text x="552.7" y="209" text-anchor="middle" font-size="8" fill="#999">32</text>
<line x1="599.3" y1="60" x2="599.3" y2="198" stroke="#f4f4f4"/>
<text x="599.3" y="209" text-anchor="middle" font-size="8" fill="#999">128</text>
<line x1="622.7" y1="60" x2="622.7" y2="198" stroke="#f4f4f4"/>
<text x="622.7" y="209" text-anchor="middle" font-size="8" fill="#999">256</text>
<line x1="646.0" y1="60" x2="646.0" y2="198" stroke="#f4f4f4"/>
<text x="646.0" y="209" text-anchor="middle" font-size="8" fill="#999">512</text>
<line x1="669.3" y1="60" x2="669.3" y2="198" stroke="#f4f4f4"/>
<text x="669.3" y="209" text-anchor="middle" font-size="8" fill="#999">1k</text>
<line x1="692.7" y1="60" x2="692.7" y2="198" stroke="#f4f4f4"/>
<text x="692.7" y="209" text-anchor="middle" font-size="8" fill="#999">2k</text>
<line x1="716.0" y1="60" x2="716.0" y2="198" stroke="#f4f4f4"/>
<text x="716.0" y="209" text-anchor="middle" font-size="8" fill="#999">4k</text>
<rect x="736" y="60" width="210" height="138" fill="none" stroke="#e2e2e2"/>
<line x1="736" y1="176.747352729995" x2="946" y2="176.747352729995" stroke="#d33" stroke-dasharray="4 3"/>
<text x="732" y="201.0" text-anchor="end" font-size="9" fill="#999">0.5×</text>
<text x="732" y="179.747352729995" text-anchor="end" font-size="9" fill="#999">1.0×</text>
<polygon points="736.0,68.7 782.7,136.4 829.3,173.9 852.7,176.9 876.0,176.2 899.3,177.1 922.7,177.7 946.0,177.3 946.0,177.6 922.7,177.8 899.3,177.2 876.0,176.3 852.7,177.5 829.3,176.2 782.7,139.6 736.0,71.1" fill="#d62728" opacity="0.11"/>
<polyline points="736.0,69.0 782.7,136.8 829.3,174.6 852.7,177.0 876.0,176.2 899.3,177.1 922.7,177.8 946.0,177.3" fill="none" stroke="#d62728" stroke-width="1.6"/>
<circle cx="736.0" cy="69.0" r="2" fill="#d62728"/>
<circle cx="782.7" cy="136.8" r="2" fill="#d62728"/>
<circle cx="829.3" cy="174.6" r="2" fill="#d62728"/>
<circle cx="852.7" cy="177.0" r="2" fill="#d62728"/>
<circle cx="876.0" cy="176.2" r="2" fill="#d62728"/>
<circle cx="899.3" cy="177.1" r="2" fill="#d62728"/>
<circle cx="922.7" cy="177.8" r="2" fill="#d62728"/>
<circle cx="946.0" cy="177.3" r="2" fill="#d62728"/>
<polygon points="736.0,62.6 782.7,131.5 829.3,166.0 852.7,171.3 876.0,175.1 899.3,175.9 922.7,177.3 946.0,178.0 946.0,178.1 922.7,177.5 899.3,176.0 876.0,175.3 852.7,171.6 829.3,166.6 782.7,133.1 736.0,67.4" fill="#2ca02c" opacity="0.11"/>
<polyline points="736.0,64.1 782.7,132.1 829.3,166.2 852.7,171.4 876.0,175.2 899.3,176.0 922.7,177.5 946.0,178.0" fill="none" stroke="#2ca02c" stroke-width="1.6"/>
<circle cx="736.0" cy="64.1" r="2" fill="#2ca02c"/>
<circle cx="782.7" cy="132.1" r="2" fill="#2ca02c"/>
<circle cx="829.3" cy="166.2" r="2" fill="#2ca02c"/>
<circle cx="852.7" cy="171.4" r="2" fill="#2ca02c"/>
<circle cx="876.0" cy="175.2" r="2" fill="#2ca02c"/>
<circle cx="899.3" cy="176.0" r="2" fill="#2ca02c"/>
<circle cx="922.7" cy="177.5" r="2" fill="#2ca02c"/>
<circle cx="946.0" cy="178.0" r="2" fill="#2ca02c"/>
<polygon points="736.0,62.4 782.7,134.3 829.3,165.6 852.7,171.6 876.0,174.6 899.3,175.5 922.7,177.3 946.0,177.9 946.0,178.1 922.7,177.5 899.3,175.6 876.0,174.8 852.7,172.6 829.3,165.8 782.7,136.1 736.0,65.9" fill="#1f77b4" opacity="0.11"/>
<polyline points="736.0,62.6 782.7,134.7 829.3,165.7 852.7,171.9 876.0,174.8 899.3,175.5 922.7,177.4 946.0,178.0" fill="none" stroke="#1f77b4" stroke-width="1.6"/>
<circle cx="736.0" cy="62.6" r="2" fill="#1f77b4"/>
<circle cx="782.7" cy="134.7" r="2" fill="#1f77b4"/>
<circle cx="829.3" cy="165.7" r="2" fill="#1f77b4"/>
<circle cx="852.7" cy="171.9" r="2" fill="#1f77b4"/>
<circle cx="876.0" cy="174.8" r="2" fill="#1f77b4"/>
<circle cx="899.3" cy="175.5" r="2" fill="#1f77b4"/>
<circle cx="922.7" cy="177.4" r="2" fill="#1f77b4"/>
<circle cx="946.0" cy="178.0" r="2" fill="#1f77b4"/>
<text x="841.0" y="55" text-anchor="middle" font-size="12" font-weight="bold">syr2k</text>
<line x1="736.0" y1="60" x2="736.0" y2="198" stroke="#f4f4f4"/>
<text x="736.0" y="209" text-anchor="middle" font-size="8" fill="#999">8</text>
<line x1="782.7" y1="60" x2="782.7" y2="198" stroke="#f4f4f4"/>
<text x="782.7" y="209" text-anchor="middle" font-size="8" fill="#999">32</text>
<line x1="829.3" y1="60" x2="829.3" y2="198" stroke="#f4f4f4"/>
<text x="829.3" y="209" text-anchor="middle" font-size="8" fill="#999">128</text>
<line x1="852.7" y1="60" x2="852.7" y2="198" stroke="#f4f4f4"/>
<text x="852.7" y="209" text-anchor="middle" font-size="8" fill="#999">256</text>
<line x1="876.0" y1="60" x2="876.0" y2="198" stroke="#f4f4f4"/>
<text x="876.0" y="209" text-anchor="middle" font-size="8" fill="#999">512</text>
<line x1="899.3" y1="60" x2="899.3" y2="198" stroke="#f4f4f4"/>
<text x="899.3" y="209" text-anchor="middle" font-size="8" fill="#999">1k</text>
<line x1="922.7" y1="60" x2="922.7" y2="198" stroke="#f4f4f4"/>
<text x="922.7" y="209" text-anchor="middle" font-size="8" fill="#999">2k</text>
<line x1="946.0" y1="60" x2="946.0" y2="198" stroke="#f4f4f4"/>
<text x="946.0" y="209" text-anchor="middle" font-size="8" fill="#999">4k</text>
<rect x="46" y="232" width="210" height="138" fill="none" stroke="#e2e2e2"/>
<line x1="46" y1="347.8426887221866" x2="256" y2="347.8426887221866" stroke="#d33" stroke-dasharray="4 3"/>
<text x="42" y="373.0" text-anchor="end" font-size="9" fill="#999">0.5×</text>
<text x="42" y="350.8426887221866" text-anchor="end" font-size="9" fill="#999">1.0×</text>
<text x="42" y="235.00317859253448" text-anchor="end" font-size="9" fill="#999">37.48×</text>
<polygon points="46.0,250.2 92.7,312.2 139.3,346.0 162.7,350.6 186.0,349.2 209.3,349.4 232.7,348.1 256.0,348.1 256.0,348.3 232.7,349.2 209.3,349.5 186.0,349.6 162.7,351.4 139.3,347.9 92.7,318.7 46.0,251.3" fill="#d62728" opacity="0.11"/>
<polyline points="46.0,250.4 92.7,313.4 139.3,347.3 162.7,351.1 186.0,349.4 209.3,349.5 232.7,349.1 256.0,348.2" fill="none" stroke="#d62728" stroke-width="1.6"/>
<circle cx="46.0" cy="250.4" r="2" fill="#d62728"/>
<circle cx="92.7" cy="313.4" r="2" fill="#d62728"/>
<circle cx="139.3" cy="347.3" r="2" fill="#d62728"/>
<circle cx="162.7" cy="351.1" r="2" fill="#d62728"/>
<circle cx="186.0" cy="349.4" r="2" fill="#d62728"/>
<circle cx="209.3" cy="349.5" r="2" fill="#d62728"/>
<circle cx="232.7" cy="349.1" r="2" fill="#d62728"/>
<circle cx="256.0" cy="348.2" r="2" fill="#d62728"/>
<polygon points="46.0,234.5 92.7,311.4 139.3,341.5 162.7,345.1 186.0,348.5 209.3,348.8 232.7,349.1 256.0,348.8 256.0,348.9 232.7,349.3 209.3,349.1 186.0,349.0 162.7,345.5 139.3,342.2 92.7,313.0 46.0,238.3" fill="#2ca02c" opacity="0.11"/>
<polyline points="46.0,235.0 92.7,311.9 139.3,341.9 162.7,345.3 186.0,348.7 209.3,349.0 232.7,349.2 256.0,348.8" fill="none" stroke="#2ca02c" stroke-width="1.6"/>
<circle cx="46.0" cy="235.0" r="2" fill="#2ca02c"/>
<circle cx="92.7" cy="311.9" r="2" fill="#2ca02c"/>
<circle cx="139.3" cy="341.9" r="2" fill="#2ca02c"/>
<circle cx="162.7" cy="345.3" r="2" fill="#2ca02c"/>
<circle cx="186.0" cy="348.7" r="2" fill="#2ca02c"/>
<circle cx="209.3" cy="349.0" r="2" fill="#2ca02c"/>
<circle cx="232.7" cy="349.2" r="2" fill="#2ca02c"/>
<circle cx="256.0" cy="348.8" r="2" fill="#2ca02c"/>
<polygon points="46.0,236.9 92.7,313.2 139.3,341.9 162.7,345.1 186.0,349.1 209.3,349.5 232.7,350.2 256.0,349.6 256.0,350.3 232.7,350.7 209.3,349.8 186.0,349.5 162.7,345.8 139.3,342.2 92.7,318.4 46.0,238.8" fill="#1f77b4" opacity="0.11"/>
<polyline points="46.0,237.2 92.7,315.1 139.3,342.0 162.7,345.6 186.0,349.4 209.3,349.7 232.7,350.3 256.0,349.9" fill="none" stroke="#1f77b4" stroke-width="1.6"/>
<circle cx="46.0" cy="237.2" r="2" fill="#1f77b4"/>
<circle cx="92.7" cy="315.1" r="2" fill="#1f77b4"/>
<circle cx="139.3" cy="342.0" r="2" fill="#1f77b4"/>
<circle cx="162.7" cy="345.6" r="2" fill="#1f77b4"/>
<circle cx="186.0" cy="349.4" r="2" fill="#1f77b4"/>
<circle cx="209.3" cy="349.7" r="2" fill="#1f77b4"/>
<circle cx="232.7" cy="350.3" r="2" fill="#1f77b4"/>
<circle cx="256.0" cy="349.9" r="2" fill="#1f77b4"/>
<text x="151.0" y="227" text-anchor="middle" font-size="12" font-weight="bold">trmm</text>
<line x1="46.0" y1="232" x2="46.0" y2="370" stroke="#f4f4f4"/>
<text x="46.0" y="381" text-anchor="middle" font-size="8" fill="#999">8</text>
<line x1="92.7" y1="232" x2="92.7" y2="370" stroke="#f4f4f4"/>
<text x="92.7" y="381" text-anchor="middle" font-size="8" fill="#999">32</text>
<line x1="139.3" y1="232" x2="139.3" y2="370" stroke="#f4f4f4"/>
<text x="139.3" y="381" text-anchor="middle" font-size="8" fill="#999">128</text>
<line x1="162.7" y1="232" x2="162.7" y2="370" stroke="#f4f4f4"/>
<text x="162.7" y="381" text-anchor="middle" font-size="8" fill="#999">256</text>
<line x1="186.0" y1="232" x2="186.0" y2="370" stroke="#f4f4f4"/>
<text x="186.0" y="381" text-anchor="middle" font-size="8" fill="#999">512</text>
<line x1="209.3" y1="232" x2="209.3" y2="370" stroke="#f4f4f4"/>
<text x="209.3" y="381" text-anchor="middle" font-size="8" fill="#999">1k</text>
<line x1="232.7" y1="232" x2="232.7" y2="370" stroke="#f4f4f4"/>
<text x="232.7" y="381" text-anchor="middle" font-size="8" fill="#999">2k</text>
<line x1="256.0" y1="232" x2="256.0" y2="370" stroke="#f4f4f4"/>
<text x="256.0" y="381" text-anchor="middle" font-size="8" fill="#999">4k</text>
<rect x="276" y="232" width="210" height="138" fill="none" stroke="#e2e2e2"/>
<line x1="276" y1="290.8789646399569" x2="486" y2="290.8789646399569" stroke="#d33" stroke-dasharray="4 3"/>
<text x="272" y="373.0" text-anchor="end" font-size="9" fill="#999">0.5×</text>
<text x="272" y="293.8789646399569" text-anchor="end" font-size="9" fill="#999">1.0×</text>
<polygon points="276.0,262.9 322.7,269.9 369.3,293.2 392.7,292.9 416.0,282.9 439.3,284.8 462.7,283.6 486.0,281.0 486.0,292.4 462.7,284.5 439.3,285.4 416.0,283.8 392.7,293.9 369.3,295.5 322.7,314.7 276.0,266.2" fill="#d62728" opacity="0.11"/>
<polyline points="276.0,264.8 322.7,292.1 369.3,294.6 392.7,293.5 416.0,283.3 439.3,285.0 462.7,284.0 486.0,281.2" fill="none" stroke="#d62728" stroke-width="1.6"/>
<circle cx="276.0" cy="264.8" r="2" fill="#d62728"/>
<circle cx="322.7" cy="292.1" r="2" fill="#d62728"/>
<circle cx="369.3" cy="294.6" r="2" fill="#d62728"/>
<circle cx="392.7" cy="293.5" r="2" fill="#d62728"/>
<circle cx="416.0" cy="283.3" r="2" fill="#d62728"/>
<circle cx="439.3" cy="285.0" r="2" fill="#d62728"/>
<circle cx="462.7" cy="284.0" r="2" fill="#d62728"/>
<circle cx="486.0" cy="281.2" r="2" fill="#d62728"/>
<polygon points="276.0,240.8 322.7,295.8 369.3,276.8 392.7,284.8 416.0,293.4 439.3,290.9 462.7,288.1 486.0,281.7 486.0,285.8 462.7,288.6 439.3,292.2 416.0,294.7 392.7,287.4 369.3,282.2 322.7,307.0 276.0,249.9" fill="#2ca02c" opacity="0.11"/>
<polyline points="276.0,243.1 322.7,299.1 369.3,279.8 392.7,285.5 416.0,294.5 439.3,291.5 462.7,288.3 486.0,282.8" fill="none" stroke="#2ca02c" stroke-width="1.6"/>
<circle cx="276.0" cy="243.1" r="2" fill="#2ca02c"/>
<circle cx="322.7" cy="299.1" r="2" fill="#2ca02c"/>
<circle cx="369.3" cy="279.8" r="2" fill="#2ca02c"/>
<circle cx="392.7" cy="285.5" r="2" fill="#2ca02c"/>
<circle cx="416.0" cy="294.5" r="2" fill="#2ca02c"/>
<circle cx="439.3" cy="291.5" r="2" fill="#2ca02c"/>
<circle cx="462.7" cy="288.3" r="2" fill="#2ca02c"/>
<circle cx="486.0" cy="282.8" r="2" fill="#2ca02c"/>
<polygon points="276.0,252.1 322.7,295.1 369.3,295.8 392.7,295.3 416.0,300.6 439.3,296.1 462.7,288.0 486.0,282.9 486.0,287.7 462.7,292.6 439.3,297.1 416.0,302.0 392.7,296.9 369.3,297.3 322.7,312.8 276.0,264.9" fill="#1f77b4" opacity="0.11"/>
<polyline points="276.0,262.9 322.7,300.6 369.3,297.0 392.7,296.4 416.0,300.9 439.3,296.7 462.7,291.6 486.0,286.5" fill="none" stroke="#1f77b4" stroke-width="1.6"/>
<circle cx="276.0" cy="262.9" r="2" fill="#1f77b4"/>
<circle cx="322.7" cy="300.6" r="2" fill="#1f77b4"/>
<circle cx="369.3" cy="297.0" r="2" fill="#1f77b4"/>
<circle cx="392.7" cy="296.4" r="2" fill="#1f77b4"/>
<circle cx="416.0" cy="300.9" r="2" fill="#1f77b4"/>
<circle cx="439.3" cy="296.7" r="2" fill="#1f77b4"/>
<circle cx="462.7" cy="291.6" r="2" fill="#1f77b4"/>
<circle cx="486.0" cy="286.5" r="2" fill="#1f77b4"/>
<text x="381.0" y="227" text-anchor="middle" font-size="12" font-weight="bold">trsm</text>
<line x1="276.0" y1="232" x2="276.0" y2="370" stroke="#f4f4f4"/>
<text x="276.0" y="381" text-anchor="middle" font-size="8" fill="#999">8</text>
<line x1="322.7" y1="232" x2="322.7" y2="370" stroke="#f4f4f4"/>
<text x="322.7" y="381" text-anchor="middle" font-size="8" fill="#999">32</text>
<line x1="369.3" y1="232" x2="369.3" y2="370" stroke="#f4f4f4"/>
<text x="369.3" y="381" text-anchor="middle" font-size="8" fill="#999">128</text>
<line x1="392.7" y1="232" x2="392.7" y2="370" stroke="#f4f4f4"/>
<text x="392.7" y="381" text-anchor="middle" font-size="8" fill="#999">256</text>
<line x1="416.0" y1="232" x2="416.0" y2="370" stroke="#f4f4f4"/>
<text x="416.0" y="381" text-anchor="middle" font-size="8" fill="#999">512</text>
<line x1="439.3" y1="232" x2="439.3" y2="370" stroke="#f4f4f4"/>
<text x="439.3" y="381" text-anchor="middle" font-size="8" fill="#999">1k</text>
<line x1="462.7" y1="232" x2="462.7" y2="370" stroke="#f4f4f4"/>
<text x="462.7" y="381" text-anchor="middle" font-size="8" fill="#999">2k</text>
<line x1="486.0" y1="232" x2="486.0" y2="370" stroke="#f4f4f4"/>
<text x="486.0" y="381" text-anchor="middle" font-size="8" fill="#999">4k</text>
<rect x="506" y="232" width="210" height="138" fill="none" stroke="#e2e2e2"/>
<line x1="506" y1="321.8220918300184" x2="716" y2="321.8220918300184" stroke="#d33" stroke-dasharray="4 3"/>
<text x="502" y="373.0" text-anchor="end" font-size="9" fill="#999">0.5×</text>
<text x="502" y="324.8220918300184" text-anchor="end" font-size="9" fill="#999">1.0×</text>
<text x="502" y="235.02143633099456" text-anchor="end" font-size="9" fill="#999">3.64×</text>
<polygon points="506.0,254.2 552.7,317.5 599.3,342.3 622.7,326.4 646.0,302.4 669.3,293.0 692.7,325.9 716.0,324.2 716.0,324.6 692.7,326.4 669.3,293.4 646.0,303.5 622.7,327.5 599.3,343.6 552.7,326.4 506.0,256.9" fill="#d62728" opacity="0.11"/>
<polyline points="506.0,255.4 552.7,324.1 599.3,342.6 622.7,327.0 646.0,302.9 669.3,293.3 692.7,326.1 716.0,324.4" fill="none" stroke="#d62728" stroke-width="1.6"/>
<circle cx="506.0" cy="255.4" r="2" fill="#d62728"/>
<circle cx="552.7" cy="324.1" r="2" fill="#d62728"/>
<circle cx="599.3" cy="342.6" r="2" fill="#d62728"/>
<circle cx="622.7" cy="327.0" r="2" fill="#d62728"/>
<circle cx="646.0" cy="302.9" r="2" fill="#d62728"/>
<circle cx="669.3" cy="293.3" r="2" fill="#d62728"/>
<circle cx="692.7" cy="326.1" r="2" fill="#d62728"/>
<circle cx="716.0" cy="324.4" r="2" fill="#d62728"/>
<polygon points="506.0,237.3 552.7,314.0 599.3,320.9 622.7,321.2 646.0,326.9 669.3,324.7 692.7,323.3 716.0,322.7 716.0,322.9 692.7,323.6 669.3,325.1 646.0,327.2 622.7,321.7 599.3,321.6 552.7,317.3 506.0,242.1" fill="#2ca02c" opacity="0.11"/>
<polyline points="506.0,239.5 552.7,315.2 599.3,321.2 622.7,321.5 646.0,327.0 669.3,324.8 692.7,323.5 716.0,322.8" fill="none" stroke="#2ca02c" stroke-width="1.6"/>
<circle cx="506.0" cy="239.5" r="2" fill="#2ca02c"/>
<circle cx="552.7" cy="315.2" r="2" fill="#2ca02c"/>
<circle cx="599.3" cy="321.2" r="2" fill="#2ca02c"/>
<circle cx="622.7" cy="321.5" r="2" fill="#2ca02c"/>
<circle cx="646.0" cy="327.0" r="2" fill="#2ca02c"/>
<circle cx="669.3" cy="324.8" r="2" fill="#2ca02c"/>
<circle cx="692.7" cy="323.5" r="2" fill="#2ca02c"/>
<circle cx="716.0" cy="322.8" r="2" fill="#2ca02c"/>
<polygon points="506.0,257.0 552.7,303.5 599.3,324.9 622.7,320.6 646.0,273.6 669.3,288.8 692.7,324.4 716.0,323.9 716.0,324.0 692.7,324.7 669.3,294.5 646.0,284.8 622.7,322.8 599.3,326.1 552.7,322.3 506.0,259.4" fill="#1f77b4" opacity="0.11"/>
<polyline points="506.0,258.1 552.7,310.6 599.3,325.4 622.7,321.0 646.0,274.2 669.3,291.7 692.7,324.5 716.0,323.9" fill="none" stroke="#1f77b4" stroke-width="1.6"/>
<circle cx="506.0" cy="258.1" r="2" fill="#1f77b4"/>
<circle cx="552.7" cy="310.6" r="2" fill="#1f77b4"/>
<circle cx="599.3" cy="325.4" r="2" fill="#1f77b4"/>
<circle cx="622.7" cy="321.0" r="2" fill="#1f77b4"/>
<circle cx="646.0" cy="274.2" r="2" fill="#1f77b4"/>
<circle cx="669.3" cy="291.7" r="2" fill="#1f77b4"/>
<circle cx="692.7" cy="324.5" r="2" fill="#1f77b4"/>
<circle cx="716.0" cy="323.9" r="2" fill="#1f77b4"/>
<text x="611.0" y="227" text-anchor="middle" font-size="12" font-weight="bold">trsmR</text>
<line x1="506.0" y1="232" x2="506.0" y2="370" stroke="#f4f4f4"/>
<text x="506.0" y="381" text-anchor="middle" font-size="8" fill="#999">8</text>
<line x1="552.7" y1="232" x2="552.7" y2="370" stroke="#f4f4f4"/>
<text x="552.7" y="381" text-anchor="middle" font-size="8" fill="#999">32</text>
<line x1="599.3" y1="232" x2="599.3" y2="370" stroke="#f4f4f4"/>
<text x="599.3" y="381" text-anchor="middle" font-size="8" fill="#999">128</text>
<line x1="622.7" y1="232" x2="622.7" y2="370" stroke="#f4f4f4"/>
<text x="622.7" y="381" text-anchor="middle" font-size="8" fill="#999">256</text>
<line x1="646.0" y1="232" x2="646.0" y2="370" stroke="#f4f4f4"/>
<text x="646.0" y="381" text-anchor="middle" font-size="8" fill="#999">512</text>
<line x1="669.3" y1="232" x2="669.3" y2="370" stroke="#f4f4f4"/>
<text x="669.3" y="381" text-anchor="middle" font-size="8" fill="#999">1k</text>
<line x1="692.7" y1="232" x2="692.7" y2="370" stroke="#f4f4f4"/>
<text x="692.7" y="381" text-anchor="middle" font-size="8" fill="#999">2k</text>
<line x1="716.0" y1="232" x2="716.0" y2="370" stroke="#f4f4f4"/>
<text x="716.0" y="381" text-anchor="middle" font-size="8" fill="#999">4k</text>
</svg>
