<svg xmlns="http://www.w3.org/2000/svg" width="900" height="440" font-family="sans-serif">
<rect width="900" height="440" fill="white"/>
<text x="450.0" y="28" text-anchor="middle" font-size="18" font-weight="bold">BLAS-2: PureBLAS / OpenBLAS (AVX2, 1 thread, Float64)</text>
<line x1="60" y1="358.0" x2="880" y2="358.0" stroke="#eee"/>
<text x="52" y="362.0" text-anchor="end" font-size="11" fill="#666">0×</text>
<line x1="60" y1="295.09331249273356" x2="880" y2="295.09331249273356" stroke="#eee"/>
<text x="52" y="299.09331249273356" text-anchor="end" font-size="11" fill="#666">0.5×</text>
<line x1="60" y1="232.18662498546715" x2="880" y2="232.18662498546715" stroke="#eee"/>
<text x="52" y="236.18662498546715" text-anchor="end" font-size="11" fill="#666">1×</text>
<line x1="60" y1="169.27993747820074" x2="880" y2="169.27993747820074" stroke="#eee"/>
<text x="52" y="173.27993747820074" text-anchor="end" font-size="11" fill="#666">1.5×</text>
<line x1="60" y1="232.18662498546715" x2="880" y2="232.18662498546715" stroke="#888" stroke-width="1"/>
<line x1="60" y1="237.21915998604848" x2="880" y2="237.21915998604848" stroke="#d33" stroke-width="1.5" stroke-dasharray="6 4"/>
<text x="880" y="232.21915998604848" text-anchor="end" font-size="11" fill="#d33">0.96× gate</text>
<polygon points="106.5,255.3 107.0,254.6 107.6,253.9 108.3,253.2 109.2,252.5 110.3,251.8 111.5,251.1 112.9,250.4 114.4,249.7 116.0,249.0 117.6,248.2 119.4,247.5 121.3,246.8 123.3,246.1 125.5,245.4 127.8,244.7 130.2,244.0 132.6,243.3 135.0,242.6 137.3,241.9 139.3,241.2 141.0,240.4 142.2,239.7 143.1,239.0 143.6,238.3 143.8,237.6 143.8,236.9 143.7,236.2 143.5,235.5 143.2,234.8 142.9,234.1 142.5,233.4 142.0,232.6 141.5,231.9 140.9,231.2 140.3,230.5 139.7,229.8 139.2,229.1 138.8,228.4 138.4,227.7 137.9,227.0 137.3,226.3 136.6,225.5 135.6,224.8 134.4,224.1 133.0,223.4 131.4,222.7 129.7,222.0 128.1,221.3 126.5,220.6 124.9,219.9 123.4,219.2 122.0,218.5 120.6,217.7 119.2,217.0 117.8,216.3 116.4,215.6 115.1,214.9 113.8,214.2 112.6,213.5 111.5,212.8 110.5,212.1 109.7,211.4 108.9,210.7 108.3,209.9 107.7,209.2 107.3,208.5 106.9,207.8 106.6,207.1 106.3,206.4 106.1,205.7 105.9,205.0 105.2,205.0 105.0,205.7 104.8,206.4 104.5,207.1 104.2,207.8 103.8,208.5 103.4,209.2 102.8,209.9 102.2,210.7 101.4,211.4 100.6,212.1 99.6,212.8 98.5,213.5 97.3,214.2 96.0,214.9 94.7,215.6 93.3,216.3 91.9,217.0 90.5,217.7 89.1,218.5 87.7,219.2 86.2,219.9 84.7,220.6 83.0,221.3 81.4,222.0 79.7,222.7 78.1,223.4 76.7,224.1 75.5,224.8 74.5,225.5 73.8,226.3 73.2,227.0 72.8,227.7 72.3,228.4 71.9,229.1 71.4,229.8 70.8,230.5 70.2,231.2 69.6,231.9 69.1,232.6 68.6,233.4 68.2,234.1 67.9,234.8 67.6,235.5 67.4,236.2 67.3,236.9 67.3,237.6 67.5,238.3 68.0,239.0 68.9,239.7 70.1,240.4 71.8,241.2 73.8,241.9 76.1,242.6 78.5,243.3 80.9,244.0 83.3,244.7 85.6,245.4 87.8,246.1 89.8,246.8 91.7,247.5 93.5,248.2 95.1,249.0 96.7,249.7 98.2,250.4 99.6,251.1 100.8,251.8 101.9,252.5 102.8,253.2 103.5,253.9 104.1,254.6 104.6,255.3" fill="#d33" opacity="0.5" stroke="#d33" stroke-width="1"/>
<line x1="68.8" y1="233.15209560916423" x2="142.4" y2="233.15209560916423" stroke="#114" stroke-width="2"/>
<circle cx="105.55555555555556" cy="240.3477162567953" r="2.4" fill="#114"/>
<text x="105.55555555555556" y="204.0588511345099" text-anchor="middle" font-size="11">0.99</text>
<text x="105.55555555555556" y="376" text-anchor="middle" font-size="12">gemvN</text>
<polygon points="196.8,241.1 196.8,240.6 196.9,240.2 197.0,239.7 197.2,239.2 197.3,238.8 197.4,238.3 197.4,237.8 197.4,237.4 197.4,236.9 197.4,236.4 197.4,236.0 197.6,235.5 198.1,235.0 199.0,234.5 200.5,234.1 202.7,233.6 205.7,233.1 209.7,232.7 214.3,232.2 219.4,231.7 224.4,231.3 228.9,230.8 232.3,230.3 234.3,229.9 234.9,229.4 234.3,228.9 232.7,228.4 230.6,228.0 228.3,227.5 226.2,227.0 224.5,226.6 223.2,226.1 222.4,225.6 222.1,225.2 222.3,224.7 222.9,224.2 223.8,223.8 224.9,223.3 225.9,222.8 226.6,222.3 226.8,221.9 226.3,221.4 225.1,220.9 223.3,220.5 221.0,220.0 218.4,219.5 215.9,219.1 213.4,218.6 211.0,218.1 208.9,217.7 206.8,217.2 204.9,216.7 203.2,216.2 201.7,215.8 200.3,215.3 199.3,214.8 198.5,214.4 197.9,213.9 197.6,213.4 197.4,213.0 197.4,212.5 197.4,212.0 197.4,211.6 197.4,211.1 197.4,210.6 197.3,210.1 197.2,209.7 197.0,209.2 196.9,208.7 196.8,208.3 196.8,207.8 196.6,207.8 196.5,208.3 196.4,208.7 196.3,209.2 196.2,209.7 196.1,210.1 196.0,210.6 195.9,211.1 195.9,211.6 195.9,212.0 195.9,212.5 195.9,213.0 195.7,213.4 195.4,213.9 194.9,214.4 194.1,214.8 193.0,215.3 191.7,215.8 190.1,216.2 188.4,216.7 186.5,217.2 184.5,217.7 182.3,218.1 180.0,218.6 177.5,219.1 174.9,219.5 172.3,220.0 170.1,220.5 168.2,220.9 167.0,221.4 166.5,221.9 166.7,222.3 167.5,222.8 168.5,223.3 169.6,223.8 170.5,224.2 171.1,224.7 171.2,225.2 170.9,225.6 170.1,226.1 168.8,226.6 167.1,227.0 165.0,227.5 162.7,228.0 160.6,228.4 159.0,228.9 158.4,229.4 159.0,229.9 161.1,230.3 164.5,230.8 168.9,231.3 173.9,231.7 179.0,232.2 183.7,232.7 187.6,233.1 190.7,233.6 192.9,234.1 194.3,234.5 195.2,235.0 195.7,235.5 195.9,236.0 196.0,236.4 195.9,236.9 195.9,237.4 195.9,237.8 196.0,238.3 196.1,238.8 196.2,239.2 196.3,239.7 196.4,240.2 196.5,240.6 196.6,241.1" fill="#2a8" opacity="0.5" stroke="#2a8" stroke-width="1"/>
<line x1="170.6" y1="225.86101761878356" x2="222.7" y2="225.86101761878356" stroke="#114" stroke-width="2"/>
<circle cx="196.66666666666669" cy="230.3428456783962" r="2.4" fill="#114"/>
<text x="196.66666666666669" y="205.22383185848867" text-anchor="middle" font-size="11">1.05</text>
<text x="196.66666666666669" y="376" text-anchor="middle" font-size="12">gemvT</text>
<polygon points="291.9,242.3 293.3,241.6 295.0,240.8 297.0,240.0 299.4,239.2 302.1,238.4 305.0,237.7 308.2,236.9 311.3,236.1 314.5,235.3 317.5,234.5 320.2,233.8 322.5,233.0 324.3,232.2 325.5,231.4 326.0,230.7 326.0,229.9 325.2,229.1 323.9,228.3 322.1,227.5 319.8,226.8 317.2,226.0 314.3,225.2 311.3,224.4 308.3,223.7 305.3,222.9 302.5,222.1 299.9,221.3 297.6,220.5 295.6,219.8 293.9,219.0 292.4,218.2 291.2,217.4 290.3,216.7 289.6,215.9 289.1,215.1 288.7,214.3 288.4,213.5 288.2,212.8 288.2,212.0 288.1,211.2 288.1,210.4 288.2,209.6 288.3,208.9 288.5,208.1 288.7,207.3 289.0,206.5 289.4,205.8 289.8,205.0 290.2,204.2 290.8,203.4 291.4,202.6 292.0,201.9 292.6,201.1 293.2,200.3 293.7,199.5 294.2,198.8 294.5,198.0 294.7,197.2 294.8,196.4 294.7,195.6 294.5,194.9 294.1,194.1 293.7,193.3 293.1,192.5 292.5,191.8 291.9,191.0 291.2,190.2 290.7,189.4 290.1,188.6 289.6,187.9 289.2,187.1 286.4,187.1 285.9,187.9 285.4,188.6 284.9,189.4 284.3,190.2 283.7,191.0 283.0,191.8 282.4,192.5 281.9,193.3 281.4,194.1 281.1,194.9 280.8,195.6 280.8,196.4 280.8,197.2 281.1,198.0 281.4,198.8 281.9,199.5 282.4,200.3 283.0,201.1 283.6,201.9 284.2,202.6 284.8,203.4 285.3,204.2 285.8,205.0 286.2,205.8 286.5,206.5 286.8,207.3 287.1,208.1 287.2,208.9 287.3,209.6 287.4,210.4 287.4,211.2 287.4,212.0 287.3,212.8 287.1,213.5 286.9,214.3 286.5,215.1 286.0,215.9 285.2,216.7 284.3,217.4 283.1,218.2 281.7,219.0 280.0,219.8 277.9,220.5 275.6,221.3 273.0,222.1 270.2,222.9 267.3,223.7 264.3,224.4 261.3,225.2 258.4,226.0 255.8,226.8 253.5,227.5 251.6,228.3 250.3,229.1 249.6,229.9 249.5,230.7 250.1,231.4 251.3,232.2 253.1,233.0 255.4,233.8 258.1,234.5 261.1,235.3 264.2,236.1 267.4,236.9 270.5,237.7 273.4,238.4 276.1,239.2 278.5,240.0 280.6,240.8 282.3,241.6 283.7,242.3" fill="#2a8" opacity="0.5" stroke="#2a8" stroke-width="1"/>
<line x1="249.8" y1="229.63839109304553" x2="325.8" y2="229.63839109304553" stroke="#114" stroke-width="2"/>
<circle cx="287.77777777777777" cy="233.38391158712722" r="2.4" fill="#114"/>
<text x="287.77777777777777" y="186.63236692634783" text-anchor="middle" font-size="11">1.02</text>
<text x="287.77777777777777" y="376" text-anchor="middle" font-size="12">ger</text>
<polygon points="386.4,242.6 388.5,241.5 391.0,240.3 393.8,239.1 396.9,238.0 400.2,236.8 403.5,235.7 406.7,234.5 409.7,233.4 412.4,232.2 414.5,231.1 416.1,229.9 417.0,228.7 417.2,227.6 416.6,226.4 415.5,225.3 413.7,224.1 411.5,223.0 409.0,221.8 406.3,220.7 403.6,219.5 400.8,218.3 398.2,217.2 395.9,216.0 393.7,214.9 391.9,213.7 390.4,212.6 389.1,211.4 388.2,210.3 387.6,209.1 387.2,208.0 387.0,206.8 387.0,205.6 387.1,204.5 387.3,203.3 387.5,202.2 387.8,201.0 388.0,199.9 388.1,198.7 388.1,197.6 388.0,196.4 387.9,195.2 387.6,194.1 387.4,192.9 387.2,191.8 387.0,190.6 386.9,189.5 386.9,188.3 387.0,187.2 387.1,186.0 387.3,184.9 387.6,183.7 387.8,182.5 388.0,181.4 388.1,180.2 388.1,179.1 387.9,177.9 387.6,176.8 387.2,175.6 386.6,174.5 386.0,173.3 385.3,172.1 384.5,171.0 383.7,169.8 383.0,168.7 382.3,167.5 381.7,166.4 381.1,165.2 380.7,164.1 380.3,162.9 379.9,161.7 379.7,160.6 378.1,160.6 377.8,161.7 377.5,162.9 377.1,164.1 376.6,165.2 376.1,166.4 375.5,167.5 374.8,168.7 374.0,169.8 373.3,171.0 372.5,172.1 371.8,173.3 371.1,174.5 370.6,175.6 370.2,176.8 369.9,177.9 369.7,179.1 369.7,180.2 369.8,181.4 370.0,182.5 370.2,183.7 370.5,184.9 370.7,186.0 370.8,187.2 370.9,188.3 370.9,189.5 370.8,190.6 370.6,191.8 370.4,192.9 370.1,194.1 369.9,195.2 369.8,196.4 369.7,197.6 369.7,198.7 369.8,199.9 370.0,201.0 370.2,202.2 370.5,203.3 370.7,204.5 370.8,205.6 370.8,206.8 370.6,208.0 370.2,209.1 369.6,210.3 368.6,211.4 367.4,212.6 365.9,213.7 364.0,214.9 361.9,216.0 359.5,217.2 356.9,218.3 354.2,219.5 351.5,220.7 348.8,221.8 346.2,223.0 344.1,224.1 342.3,225.3 341.2,226.4 340.6,227.6 340.8,228.7 341.7,229.9 343.2,231.1 345.4,232.2 348.0,233.4 351.1,234.5 354.3,235.7 357.6,236.8 360.9,238.0 363.9,239.1 366.7,240.3 369.2,241.5 371.4,242.6" fill="#2a8" opacity="0.5" stroke="#2a8" stroke-width="1"/>
<line x1="341.5" y1="225.98482494365643" x2="416.2" y2="225.98482494365643" stroke="#114" stroke-width="2"/>
<circle cx="378.8888888888889" cy="230.61817315621806" r="2.4" fill="#114"/>
<text x="378.8888888888889" y="162.73438107100787" text-anchor="middle" font-size="11">1.05</text>
<text x="378.8888888888889" y="376" text-anchor="middle" font-size="12">symv</text>
<polygon points="473.2,244.9 474.3,243.5 475.8,242.2 477.5,240.8 479.5,239.4 481.9,238.1 484.6,236.7 487.5,235.3 490.6,234.0 493.8,232.6 497.0,231.2 500.0,229.9 502.7,228.5 505.0,227.1 506.7,225.8 507.8,224.4 508.3,223.0 508.0,221.7 507.1,220.3 505.6,218.9 503.7,217.6 501.3,216.2 498.8,214.9 496.1,213.5 493.4,212.1 490.9,210.8 488.5,209.4 486.3,208.0 484.5,206.7 483.0,205.3 481.8,203.9 480.8,202.6 480.2,201.2 479.8,199.8 479.5,198.5 479.4,197.1 479.3,195.7 479.2,194.4 479.1,193.0 479.0,191.6 478.7,190.3 478.4,188.9 477.9,187.5 477.4,186.2 476.9,184.8 476.3,183.4 475.8,182.1 475.4,180.7 475.1,179.3 475.0,178.0 475.0,176.6 475.2,175.2 475.5,173.9 476.0,172.5 476.5,171.1 477.1,169.8 477.7,168.4 478.2,167.0 478.7,165.7 479.0,164.3 479.1,162.9 479.0,161.6 478.8,160.2 478.4,158.8 477.8,157.5 477.1,156.1 476.3,154.7 475.5,153.4 474.7,152.0 473.9,150.6 473.2,149.3 472.5,147.9 467.5,147.9 466.8,149.3 466.1,150.6 465.3,152.0 464.5,153.4 463.7,154.7 462.9,156.1 462.2,157.5 461.6,158.8 461.2,160.2 461.0,161.6 460.9,162.9 461.0,164.3 461.3,165.7 461.8,167.0 462.3,168.4 462.9,169.8 463.5,171.1 464.0,172.5 464.5,173.9 464.8,175.2 465.0,176.6 465.0,178.0 464.9,179.3 464.6,180.7 464.2,182.1 463.7,183.4 463.1,184.8 462.6,186.2 462.1,187.5 461.6,188.9 461.3,190.3 461.0,191.6 460.9,193.0 460.8,194.4 460.7,195.7 460.6,197.1 460.5,198.5 460.2,199.8 459.8,201.2 459.2,202.6 458.2,203.9 457.0,205.3 455.5,206.7 453.7,208.0 451.5,209.4 449.1,210.8 446.6,212.1 443.9,213.5 441.2,214.9 438.7,216.2 436.3,217.6 434.4,218.9 432.9,220.3 432.0,221.7 431.7,223.0 432.2,224.4 433.3,225.8 435.0,227.1 437.3,228.5 440.0,229.9 443.0,231.2 446.2,232.6 449.4,234.0 452.5,235.3 455.4,236.7 458.1,238.1 460.5,239.4 462.5,240.8 464.2,242.2 465.7,243.5 466.8,244.9" fill="#2a8" opacity="0.5" stroke="#2a8" stroke-width="1"/>
<line x1="432.4" y1="220.902047051428" x2="507.6" y2="220.902047051428" stroke="#114" stroke-width="2"/>
<circle cx="470.0" cy="225.70466268329386" r="2.4" fill="#114"/>
<text x="470.0" y="151.5010906837744" text-anchor="middle" font-size="11">1.09</text>
<text x="470.0" y="376" text-anchor="middle" font-size="12">trmv</text>
<polygon points="563.6,248.2 564.8,246.2 566.4,244.3 568.5,242.3 571.0,240.4 574.1,238.4 577.7,236.4 581.6,234.5 585.6,232.5 589.6,230.5 593.2,228.6 596.2,226.6 598.3,224.7 599.4,222.7 599.3,220.7 598.2,218.8 596.2,216.8 593.5,214.9 590.4,212.9 587.2,210.9 584.2,209.0 581.5,207.0 579.3,205.1 577.6,203.1 576.3,201.1 575.5,199.2 575.0,197.2 574.7,195.3 574.7,193.3 574.7,191.3 574.7,189.4 574.8,187.4 574.8,185.5 574.7,183.5 574.5,181.5 574.1,179.6 573.7,177.6 573.2,175.7 572.7,173.7 572.3,171.7 572.0,169.8 571.8,167.8 571.8,165.9 571.9,163.9 571.9,161.9 571.9,160.0 571.7,158.0 571.2,156.0 570.5,154.1 569.6,152.1 568.5,150.2 567.4,148.2 566.2,146.2 565.1,144.3 564.2,142.3 563.4,140.4 562.8,138.4 562.3,136.4 562.0,134.5 561.8,132.5 561.7,130.6 561.7,128.6 561.7,126.6 561.7,124.7 561.6,122.7 561.6,120.8 561.6,118.8 561.5,116.8 561.5,114.9 561.4,112.9 561.4,111.0 561.3,109.0 560.9,109.0 560.9,111.0 560.8,112.9 560.7,114.9 560.7,116.8 560.6,118.8 560.6,120.8 560.6,122.7 560.6,124.7 560.6,126.6 560.5,128.6 560.5,130.6 560.4,132.5 560.2,134.5 559.9,136.4 559.5,138.4 558.9,140.4 558.1,142.3 557.1,144.3 556.0,146.2 554.9,148.2 553.7,150.2 552.6,152.1 551.7,154.1 551.0,156.0 550.5,158.0 550.3,160.0 550.3,161.9 550.3,163.9 550.4,165.9 550.4,167.8 550.3,169.8 550.0,171.7 549.6,173.7 549.1,175.7 548.5,177.6 548.1,179.6 547.8,181.5 547.5,183.5 547.4,185.5 547.4,187.4 547.5,189.4 547.6,191.3 547.6,193.3 547.5,195.3 547.2,197.2 546.7,199.2 545.9,201.1 544.6,203.1 542.9,205.1 540.7,207.0 538.0,209.0 535.0,210.9 531.8,212.9 528.8,214.9 526.1,216.8 524.0,218.8 522.9,220.7 522.8,222.7 523.9,224.7 526.0,226.6 529.0,228.6 532.6,230.5 536.6,232.5 540.6,234.5 544.5,236.4 548.1,238.4 551.2,240.4 553.8,242.3 555.8,244.3 557.4,246.2 558.6,248.2" fill="#2a8" opacity="0.5" stroke="#2a8" stroke-width="1"/>
<line x1="524.9" y1="217.84866707083617" x2="597.3" y2="217.84866707083617" stroke="#114" stroke-width="2"/>
<circle cx="561.1111111111111" cy="226.37583369826586" r="2.4" fill="#114"/>
<text x="561.1111111111111" y="116.66830490006423" text-anchor="middle" font-size="11">1.11</text>
<text x="561.1111111111111" y="376" text-anchor="middle" font-size="12">trsv</text>
<polygon points="664.3,258.3 666.6,255.4 669.1,252.4 671.7,249.5 674.4,246.5 677.1,243.6 679.7,240.7 682.2,237.7 684.4,234.8 686.3,231.9 687.9,228.9 689.1,226.0 690.0,223.1 690.4,220.1 690.5,217.2 690.2,214.3 689.6,211.3 688.6,208.4 687.4,205.5 686.0,202.5 684.4,199.6 682.7,196.7 680.8,193.7 678.9,190.8 676.9,187.9 675.0,184.9 673.1,182.0 671.3,179.1 669.6,176.1 668.1,173.2 666.8,170.3 665.7,167.3 664.8,164.4 664.2,161.5 663.7,158.5 663.5,155.6 663.5,152.7 663.5,149.7 663.6,146.8 663.8,143.9 663.9,140.9 664.0,138.0 664.0,135.1 663.8,132.1 663.6,129.2 663.3,126.3 662.9,123.3 662.5,120.4 662.1,117.5 661.7,114.5 661.4,111.6 661.2,108.7 661.1,105.7 661.2,102.8 661.3,99.9 661.5,96.9 661.8,94.0 662.1,91.1 662.4,88.1 662.6,85.2 662.8,82.3 662.8,79.3 662.6,76.4 662.3,73.5 661.9,70.5 661.3,67.6 660.6,64.7 659.9,61.7 659.1,58.8 658.2,55.9 657.4,52.9 656.6,50.0 647.8,50.0 647.0,52.9 646.2,55.9 645.4,58.8 644.6,61.7 643.8,64.7 643.1,67.6 642.5,70.5 642.1,73.5 641.8,76.4 641.7,79.3 641.7,82.3 641.8,85.2 642.0,88.1 642.3,91.1 642.6,94.0 642.9,96.9 643.1,99.9 643.3,102.8 643.3,105.7 643.2,108.7 643.0,111.6 642.7,114.5 642.3,117.5 641.9,120.4 641.5,123.3 641.1,126.3 640.8,129.2 640.6,132.1 640.5,135.1 640.5,138.0 640.5,140.9 640.7,143.9 640.8,146.8 640.9,149.7 641.0,152.7 640.9,155.6 640.7,158.5 640.3,161.5 639.6,164.4 638.8,167.3 637.7,170.3 636.4,173.2 634.8,176.1 633.2,179.1 631.4,182.0 629.5,184.9 627.5,187.9 625.5,190.8 623.6,193.7 621.8,196.7 620.0,199.6 618.4,202.5 617.0,205.5 615.8,208.4 614.9,211.3 614.3,214.3 614.0,217.2 614.0,220.1 614.5,223.1 615.3,226.0 616.5,228.9 618.1,231.9 620.0,234.8 622.3,237.7 624.7,240.7 627.3,243.6 630.0,246.5 632.7,249.5 635.3,252.4 637.9,255.4 640.2,258.3" fill="#2a8" opacity="0.5" stroke="#2a8" stroke-width="1"/>
<line x1="617.6" y1="204.2378150466319" x2="686.9" y2="204.2378150466319" stroke="#114" stroke-width="2"/>
<circle cx="652.2222222222223" cy="233.88650337145575" r="2.4" fill="#114"/>
<text x="652.2222222222223" y="61.43396226415098" text-anchor="middle" font-size="11">1.22</text>
<text x="652.2222222222223" y="376" text-anchor="middle" font-size="12">spmv</text>
<polygon points="743.3,267.7 743.3,266.2 743.4,264.6 743.4,263.1 743.5,261.6 743.6,260.1 743.7,258.6 743.8,257.0 743.7,255.5 743.6,254.0 743.5,252.5 743.4,251.0 743.4,249.4 743.3,247.9 743.3,246.4 743.3,244.9 743.3,243.3 743.3,241.8 743.4,240.3 743.5,238.8 743.7,237.3 744.2,235.7 745.1,234.2 746.8,232.7 749.5,231.2 753.8,229.6 759.9,228.1 767.3,226.6 774.6,225.1 779.9,223.6 781.6,222.0 779.3,220.5 774.0,219.0 767.6,217.5 762.0,216.0 758.1,214.4 755.8,212.9 754.0,211.4 752.2,209.9 750.0,208.3 748.0,206.8 746.3,205.3 745.1,203.8 744.3,202.3 743.9,200.7 743.6,199.2 743.4,197.7 743.4,196.2 743.3,194.6 743.3,193.1 743.3,191.6 743.3,190.1 743.3,188.6 743.3,187.0 743.3,185.5 743.3,184.0 743.3,182.5 743.4,181.0 743.4,179.4 743.5,177.9 743.7,176.4 743.9,174.9 744.1,173.3 744.2,171.8 744.2,170.3 744.0,168.8 743.8,167.3 743.6,165.7 743.4,164.2 743.4,162.7 743.3,161.2 743.3,159.6 743.3,159.6 743.3,161.2 743.3,162.7 743.2,164.2 743.1,165.7 742.9,167.3 742.7,168.8 742.5,170.3 742.5,171.8 742.6,173.3 742.8,174.9 743.0,176.4 743.2,177.9 743.3,179.4 743.3,181.0 743.3,182.5 743.3,184.0 743.3,185.5 743.3,187.0 743.3,188.6 743.3,190.1 743.3,191.6 743.3,193.1 743.3,194.6 743.3,196.2 743.2,197.7 743.1,199.2 742.8,200.7 742.3,202.3 741.5,203.8 740.3,205.3 738.7,206.8 736.6,208.3 734.5,209.9 732.6,211.4 730.9,212.9 728.5,214.4 724.7,216.0 719.1,217.5 712.7,219.0 707.4,220.5 705.1,222.0 706.8,223.6 712.1,225.1 719.4,226.6 726.8,228.1 732.8,229.6 737.1,231.2 739.9,232.7 741.5,234.2 742.5,235.7 743.0,237.3 743.2,238.8 743.3,240.3 743.3,241.8 743.3,243.3 743.3,244.9 743.3,246.4 743.3,247.9 743.3,249.4 743.2,251.0 743.2,252.5 743.0,254.0 742.9,255.5 742.9,257.0 742.9,258.6 743.0,260.1 743.2,261.6 743.2,263.1 743.3,264.6 743.3,266.2 743.3,267.7" fill="#2a8" opacity="0.5" stroke="#2a8" stroke-width="1"/>
<line x1="705.2" y1="221.82090664241252" x2="781.5" y2="221.82090664241252" stroke="#114" stroke-width="2"/>
<circle cx="743.3333333333334" cy="225.01852736362085" r="2.4" fill="#114"/>
<text x="743.3333333333334" y="164.3083068254972" text-anchor="middle" font-size="11">1.08</text>
<text x="743.3333333333334" y="376" text-anchor="middle" font-size="12">gbmvN</text>
<polygon points="834.8,164.2 835.0,163.3 835.4,162.3 836.1,161.3 837.0,160.4 838.5,159.4 840.5,158.4 843.1,157.5 846.5,156.5 850.6,155.5 855.2,154.6 860.0,153.6 864.7,152.6 868.6,151.7 871.4,150.7 872.7,149.7 872.5,148.8 870.8,147.8 867.9,146.8 864.4,145.9 860.6,144.9 857.0,143.9 853.9,143.0 851.3,142.0 849.3,141.0 847.8,140.1 846.6,139.1 845.5,138.1 844.6,137.2 843.8,136.2 843.0,135.2 842.3,134.3 841.8,133.3 841.5,132.3 841.4,131.4 841.5,130.4 841.8,129.4 842.2,128.5 842.6,127.5 842.9,126.5 842.8,125.6 842.5,124.6 841.8,123.6 840.9,122.7 839.8,121.7 838.7,120.7 837.7,119.8 836.7,118.8 836.0,117.8 835.4,116.9 835.1,115.9 834.8,114.9 834.6,114.0 834.6,113.0 834.5,112.0 834.5,111.1 834.5,110.1 834.6,109.1 834.6,108.2 834.7,107.2 834.7,106.2 834.8,105.3 834.9,104.3 834.9,103.3 834.9,102.4 834.9,101.4 834.9,100.4 834.8,99.5 834.7,98.5 834.7,97.5 834.6,96.6 834.5,95.6 834.3,95.6 834.3,96.6 834.2,97.5 834.2,98.5 834.1,99.5 834.0,100.4 834.0,101.4 834.0,102.4 834.0,103.3 834.0,104.3 834.1,105.3 834.2,106.2 834.2,107.2 834.3,108.2 834.3,109.1 834.4,110.1 834.4,111.1 834.4,112.0 834.3,113.0 834.2,114.0 834.1,114.9 833.8,115.9 833.4,116.9 832.9,117.8 832.2,118.8 831.2,119.8 830.2,120.7 829.0,121.7 828.0,122.7 827.0,123.6 826.4,124.6 826.0,125.6 826.0,126.5 826.3,127.5 826.6,128.5 827.1,129.4 827.4,130.4 827.5,131.4 827.4,132.3 827.1,133.3 826.6,134.3 825.9,135.2 825.1,136.2 824.2,137.2 823.3,138.1 822.3,139.1 821.1,140.1 819.6,141.0 817.6,142.0 815.0,143.0 811.9,143.9 808.3,144.9 804.5,145.9 800.9,146.8 798.1,147.8 796.4,148.8 796.2,149.7 797.5,150.7 800.3,151.7 804.2,152.6 808.8,153.6 813.7,154.6 818.3,155.5 822.4,156.5 825.8,157.5 828.4,158.4 830.4,159.4 831.9,160.4 832.8,161.3 833.5,162.3 833.9,163.3 834.1,164.2" fill="#2a8" opacity="0.5" stroke="#2a8" stroke-width="1"/>
<line x1="797.3" y1="148.15621971331294" x2="871.5" y2="148.15621971331294" stroke="#114" stroke-width="2"/>
<circle cx="834.4444444444445" cy="151.11712457643912" r="2.4" fill="#114"/>
<text x="834.4444444444445" y="96.44739385597438" text-anchor="middle" font-size="11">1.67</text>
<text x="834.4444444444445" y="376" text-anchor="middle" font-size="12">sbmv</text>
<text x="450.0" y="428" text-anchor="middle" font-size="11" fill="#666">violin = ratio distribution over sizes · line = median · dark dot = worst size · green = every size ≥ gate</text>
</svg>
