<svg xmlns="http://www.w3.org/2000/svg" width="900" height="440" font-family="sans-serif">
<rect width="900" height="440" fill="white"/>
<text x="450.0" y="28" text-anchor="middle" font-size="18" font-weight="bold">BLAS-1: PureBLAS / OpenBLAS (AVX2, 1 thread, Float64)</text>
<line x1="60" y1="358.0" x2="880" y2="358.0" stroke="#eee"/>
<text x="52" y="362.0" text-anchor="end" font-size="11" fill="#666">0×</text>
<line x1="60" y1="339.87824173822713" x2="880" y2="339.87824173822713" stroke="#eee"/>
<text x="52" y="343.87824173822713" text-anchor="end" font-size="11" fill="#666">0.5×</text>
<line x1="60" y1="321.7564834764542" x2="880" y2="321.7564834764542" stroke="#eee"/>
<text x="52" y="325.7564834764542" text-anchor="end" font-size="11" fill="#666">1×</text>
<line x1="60" y1="303.6347252146814" x2="880" y2="303.6347252146814" stroke="#eee"/>
<text x="52" y="307.6347252146814" text-anchor="end" font-size="11" fill="#666">1.5×</text>
<line x1="60" y1="321.7564834764542" x2="880" y2="321.7564834764542" stroke="#888" stroke-width="1"/>
<line x1="60" y1="323.2062241373961" x2="880" y2="323.2062241373961" stroke="#d33" stroke-width="1.5" stroke-dasharray="6 4"/>
<text x="880" y="318.2062241373961" text-anchor="end" font-size="11" fill="#d33">0.96× gate</text>
<polygon points="128.3,328.7 128.4,327.8 128.7,327.0 129.9,326.2 133.2,325.3 140.5,324.5 152.8,323.6 168.2,322.8 181.1,321.9 185.7,321.1 180.2,320.3 167.8,319.4 154.4,318.6 144.0,317.7 137.8,316.9 134.7,316.0 133.2,315.2 132.2,314.4 131.4,313.5 130.7,312.7 130.1,311.8 129.7,311.0 129.2,310.1 128.9,309.3 128.6,308.5 128.4,307.6 128.4,306.8 128.3,305.9 128.3,305.1 128.3,304.2 128.3,303.4 128.3,302.6 128.3,301.7 128.3,300.9 128.3,300.0 128.3,299.2 128.3,298.4 128.3,297.5 128.3,296.7 128.3,295.8 128.3,295.0 128.3,294.1 128.3,293.3 128.3,292.5 128.3,291.6 128.3,290.8 128.3,289.9 128.3,289.1 128.3,288.2 128.3,287.4 128.3,286.6 128.3,285.7 128.3,284.9 128.3,284.0 128.3,283.2 128.3,282.3 128.3,281.5 128.3,280.7 128.3,279.8 128.4,279.0 128.4,278.1 128.5,277.3 128.6,276.4 128.8,275.6 128.8,274.8 128.8,273.9 128.7,273.1 128.5,272.2 128.4,271.4 128.4,270.5 128.3,269.7 128.3,268.9 128.3,268.9 128.3,269.7 128.3,270.5 128.3,271.4 128.2,272.2 128.0,273.1 127.9,273.9 127.8,274.8 127.9,275.6 128.0,276.4 128.2,277.3 128.3,278.1 128.3,279.0 128.3,279.8 128.3,280.7 128.3,281.5 128.3,282.3 128.3,283.2 128.3,284.0 128.3,284.9 128.3,285.7 128.3,286.6 128.3,287.4 128.3,288.2 128.3,289.1 128.3,289.9 128.3,290.8 128.3,291.6 128.3,292.5 128.3,293.3 128.3,294.1 128.3,295.0 128.3,295.8 128.3,296.7 128.3,297.5 128.3,298.4 128.3,299.2 128.3,300.0 128.3,300.9 128.3,301.7 128.3,302.6 128.3,303.4 128.3,304.2 128.3,305.1 128.3,305.9 128.3,306.8 128.2,307.6 128.1,308.5 127.8,309.3 127.4,310.1 127.0,311.0 126.5,311.8 126.0,312.7 125.3,313.5 124.5,314.4 123.5,315.2 121.9,316.0 118.8,316.9 112.7,317.7 102.3,318.6 88.9,319.4 76.5,320.3 70.9,321.1 75.6,321.9 88.5,322.8 103.9,323.6 116.2,324.5 123.5,325.3 126.8,326.2 127.9,327.0 128.3,327.8 128.3,328.7" fill="#2a8" opacity="0.5" stroke="#2a8" stroke-width="1"/>
<line x1="71.3" y1="321.379651298878" x2="185.4" y2="321.379651298878" stroke="#114" stroke-width="2"/>
<circle cx="128.33333333333331" cy="321.6907356438182" r="2.4" fill="#114"/>
<text x="128.33333333333331" y="268.7099774760586" text-anchor="middle" font-size="11">1.01</text>
<text x="128.33333333333331" y="376" text-anchor="middle" font-size="12">axpy</text>
<polygon points="267.3,323.9 269.2,323.7 272.2,323.4 276.5,323.2 282.3,323.0 289.5,322.8 297.6,322.5 305.9,322.3 313.4,322.1 319.1,321.9 322.2,321.6 322.4,321.4 319.8,321.2 315.0,321.0 308.8,320.7 302.2,320.5 295.7,320.3 290.0,320.1 285.0,319.8 280.9,319.6 277.6,319.4 274.9,319.2 272.7,318.9 271.0,318.7 269.6,318.5 268.5,318.3 267.7,318.0 267.1,317.8 266.7,317.6 266.3,317.4 266.1,317.1 265.9,316.9 265.8,316.7 265.6,316.5 265.5,316.2 265.4,316.0 265.3,315.8 265.2,315.6 265.1,315.3 265.1,315.1 265.0,314.9 265.0,314.7 265.0,314.4 265.1,314.2 265.1,314.0 265.2,313.8 265.3,313.5 265.4,313.3 265.6,313.1 265.7,312.9 265.8,312.6 265.9,312.4 266.0,312.2 266.0,312.0 266.0,311.8 266.0,311.5 266.0,311.3 266.0,311.1 266.1,310.9 266.2,310.6 266.3,310.4 266.5,310.2 266.6,310.0 266.6,309.7 266.6,309.5 266.4,309.3 266.2,309.1 266.0,308.8 265.7,308.6 265.5,308.4 265.3,308.2 265.2,307.9 264.8,307.9 264.7,308.2 264.5,308.4 264.3,308.6 264.0,308.8 263.8,309.1 263.6,309.3 263.4,309.5 263.4,309.7 263.4,310.0 263.5,310.2 263.7,310.4 263.8,310.6 263.9,310.9 264.0,311.1 264.0,311.3 264.0,311.5 264.0,311.8 264.0,312.0 264.0,312.2 264.1,312.4 264.2,312.6 264.3,312.9 264.4,313.1 264.6,313.3 264.7,313.5 264.8,313.8 264.9,314.0 264.9,314.2 265.0,314.4 265.0,314.7 265.0,314.9 264.9,315.1 264.9,315.3 264.8,315.6 264.7,315.8 264.6,316.0 264.5,316.2 264.4,316.5 264.2,316.7 264.1,316.9 263.9,317.1 263.7,317.4 263.3,317.6 262.9,317.8 262.3,318.0 261.5,318.3 260.4,318.5 259.0,318.7 257.3,318.9 255.1,319.2 252.4,319.4 249.1,319.6 245.0,319.8 240.0,320.1 234.3,320.3 227.8,320.5 221.2,320.7 215.0,321.0 210.2,321.2 207.6,321.4 207.8,321.6 210.9,321.9 216.6,322.1 224.1,322.3 232.4,322.5 240.5,322.8 247.7,323.0 253.5,323.2 257.8,323.4 260.8,323.7 262.7,323.9" fill="#2a8" opacity="0.5" stroke="#2a8" stroke-width="1"/>
<line x1="207.3" y1="321.493313799388" x2="322.7" y2="321.493313799388" stroke="#114" stroke-width="2"/>
<circle cx="265.0" cy="321.91698074027397" r="2.4" fill="#114"/>
<text x="265.0" y="303.5331849489463" text-anchor="middle" font-size="11">1.01</text>
<text x="265.0" y="376" text-anchor="middle" font-size="12">dot</text>
<polygon points="403.0,218.9 403.4,216.5 403.8,214.2 404.2,211.8 404.7,209.4 405.3,207.1 405.9,204.7 406.6,202.4 407.3,200.0 408.1,197.6 409.0,195.3 409.9,192.9 410.9,190.5 412.0,188.2 413.1,185.8 414.3,183.4 415.6,181.1 416.9,178.7 418.3,176.4 419.8,174.0 421.3,171.6 422.9,169.3 424.5,166.9 426.1,164.5 427.6,162.2 429.0,159.8 430.3,157.5 431.4,155.1 432.3,152.7 432.9,150.4 433.2,148.0 433.2,145.6 432.8,143.3 432.1,140.9 431.1,138.6 429.8,136.2 428.3,133.8 426.6,131.5 424.8,129.1 423.0,126.7 421.3,124.4 419.8,122.0 418.5,119.7 417.6,117.3 417.0,114.9 417.0,112.6 417.6,110.2 418.7,107.8 420.4,105.5 422.7,103.1 425.5,100.8 428.9,98.4 432.7,96.0 436.8,93.7 441.0,91.3 445.2,88.9 449.1,86.6 452.7,84.2 455.6,81.9 457.7,79.5 458.9,77.1 459.1,74.8 458.2,72.4 456.3,70.0 453.5,67.7 449.9,65.3 445.7,63.0 441.0,60.6 436.2,58.2 431.3,55.9 426.6,53.5 422.3,51.1 381.1,51.1 376.7,53.5 372.0,55.9 367.2,58.2 362.3,60.6 357.7,63.0 353.4,65.3 349.8,67.7 347.0,70.0 345.1,72.4 344.3,74.8 344.4,77.1 345.6,79.5 347.8,81.9 350.7,84.2 354.2,86.6 358.2,88.9 362.3,91.3 366.6,93.7 370.6,96.0 374.4,98.4 377.8,100.8 380.7,103.1 383.0,105.5 384.7,107.8 385.8,110.2 386.3,112.6 386.3,114.9 385.8,117.3 384.8,119.7 383.6,122.0 382.0,124.4 380.3,126.7 378.5,129.1 376.8,131.5 375.1,133.8 373.5,136.2 372.3,138.6 371.2,140.9 370.5,143.3 370.2,145.6 370.1,148.0 370.4,150.4 371.0,152.7 371.9,155.1 373.0,157.5 374.3,159.8 375.7,162.2 377.3,164.5 378.9,166.9 380.4,169.3 382.0,171.6 383.5,174.0 385.0,176.4 386.4,178.7 387.8,181.1 389.0,183.4 390.2,185.8 391.3,188.2 392.4,190.5 393.4,192.9 394.3,195.3 395.2,197.6 396.0,200.0 396.8,202.4 397.5,204.7 398.1,207.1 398.6,209.4 399.1,211.8 399.6,214.2 400.0,216.5 400.3,218.9" fill="#2a8" opacity="0.5" stroke="#2a8" stroke-width="1"/>
<line x1="355.6" y1="87.45012517926773" x2="447.7" y2="87.45012517926773" stroke="#114" stroke-width="2"/>
<circle cx="401.66666666666663" cy="154.3530066514732" r="2.4" fill="#114"/>
<text x="401.66666666666663" y="61.433962264150935" text-anchor="middle" font-size="11">7.46</text>
<text x="401.66666666666663" y="376" text-anchor="middle" font-size="12">nrm2</text>
<polygon points="542.4,315.8 543.6,315.4 545.2,315.0 547.1,314.5 549.3,314.1 551.9,313.7 554.8,313.2 558.0,312.8 561.5,312.4 565.2,311.9 569.0,311.5 572.7,311.0 576.3,310.6 579.6,310.2 582.6,309.7 585.1,309.3 587.2,308.9 588.8,308.4 589.9,308.0 590.7,307.6 591.1,307.1 591.4,306.7 591.7,306.3 592.0,305.8 592.4,305.4 592.9,305.0 593.6,304.5 594.3,304.1 594.9,303.6 595.5,303.2 595.7,302.8 595.6,302.3 594.9,301.9 593.7,301.5 591.9,301.0 589.6,300.6 586.7,300.2 583.4,299.7 579.8,299.3 576.1,298.9 572.4,298.4 568.8,298.0 565.5,297.6 562.6,297.1 560.2,296.7 558.4,296.2 557.1,295.8 556.5,295.4 556.6,294.9 557.3,294.5 558.6,294.1 560.5,293.6 562.8,293.2 565.4,292.8 568.3,292.3 571.2,291.9 573.9,291.5 576.4,291.0 578.4,290.6 579.7,290.2 580.4,289.7 580.3,289.3 579.4,288.8 577.8,288.4 575.6,288.0 572.7,287.5 569.5,287.1 566.0,286.7 562.5,286.2 559.0,285.8 555.6,285.4 552.5,284.9 524.2,284.9 521.1,285.4 517.7,285.8 514.2,286.2 510.6,286.7 507.2,287.1 503.9,287.5 501.1,288.0 498.8,288.4 497.2,288.8 496.3,289.3 496.3,289.7 496.9,290.2 498.3,290.6 500.3,291.0 502.8,291.5 505.5,291.9 508.4,292.3 511.3,292.8 513.9,293.2 516.2,293.6 518.1,294.1 519.4,294.5 520.1,294.9 520.1,295.4 519.5,295.8 518.3,296.2 516.5,296.7 514.1,297.1 511.2,297.6 507.9,298.0 504.3,298.4 500.6,298.9 496.9,299.3 493.3,299.7 490.0,300.2 487.1,300.6 484.7,301.0 482.9,301.5 481.7,301.9 481.1,302.3 480.9,302.8 481.2,303.2 481.7,303.6 482.4,304.1 483.1,304.5 483.8,305.0 484.3,305.4 484.7,305.8 485.0,306.3 485.2,306.7 485.5,307.1 486.0,307.6 486.8,308.0 487.9,308.4 489.5,308.9 491.5,309.3 494.1,309.7 497.0,310.2 500.4,310.6 504.0,311.0 507.7,311.5 511.5,311.9 515.2,312.4 518.6,312.8 521.9,313.2 524.8,313.7 527.4,314.1 529.6,314.5 531.5,315.0 533.0,315.4 534.3,315.8" fill="#2a8" opacity="0.5" stroke="#2a8" stroke-width="1"/>
<line x1="482.1" y1="301.7640827658099" x2="594.6" y2="301.7640827658099" stroke="#114" stroke-width="2"/>
<circle cx="538.3333333333333" cy="308.88651305395604" r="2.4" fill="#114"/>
<text x="538.3333333333333" y="281.979742413852" text-anchor="middle" font-size="11">1.55</text>
<text x="538.3333333333333" y="376" text-anchor="middle" font-size="12">asum</text>
<polygon points="675.6,323.2 676.3,323.0 677.7,322.9 680.0,322.7 683.6,322.5 688.9,322.3 695.8,322.2 704.0,322.0 712.7,321.8 720.9,321.6 727.4,321.4 731.3,321.3 732.4,321.1 730.7,320.9 726.7,320.7 721.4,320.5 715.3,320.4 709.0,320.2 703.0,320.0 697.5,319.8 692.7,319.7 688.7,319.5 685.5,319.3 683.0,319.1 681.3,318.9 680.0,318.8 679.2,318.6 678.6,318.4 678.2,318.2 677.9,318.0 677.8,317.9 677.7,317.7 677.6,317.5 677.5,317.3 677.4,317.2 677.2,317.0 677.0,316.8 676.8,316.6 676.6,316.4 676.5,316.3 676.3,316.1 676.2,315.9 676.1,315.7 676.0,315.6 675.9,315.4 675.8,315.2 675.8,315.0 675.9,314.8 676.0,314.7 676.1,314.5 676.2,314.3 676.3,314.1 676.2,313.9 676.1,313.8 675.9,313.6 675.6,313.4 675.5,313.2 675.3,313.1 675.3,312.9 675.3,312.7 675.4,312.5 675.5,312.3 675.5,312.2 675.6,312.0 675.6,311.8 675.6,311.6 675.5,311.4 675.4,311.3 675.3,311.1 675.2,310.9 675.1,310.7 675.1,310.6 674.9,310.6 674.9,310.7 674.8,310.9 674.7,311.1 674.6,311.3 674.5,311.4 674.4,311.6 674.4,311.8 674.4,312.0 674.5,312.2 674.5,312.3 674.6,312.5 674.7,312.7 674.7,312.9 674.7,313.1 674.5,313.2 674.4,313.4 674.1,313.6 673.9,313.8 673.8,313.9 673.7,314.1 673.8,314.3 673.9,314.5 674.0,314.7 674.1,314.8 674.2,315.0 674.2,315.2 674.1,315.4 674.0,315.6 673.9,315.7 673.8,315.9 673.7,316.1 673.5,316.3 673.4,316.4 673.2,316.6 673.0,316.8 672.8,317.0 672.6,317.2 672.5,317.3 672.4,317.5 672.3,317.7 672.2,317.9 672.1,318.0 671.8,318.2 671.4,318.4 670.8,318.6 670.0,318.8 668.7,318.9 667.0,319.1 664.5,319.3 661.3,319.5 657.3,319.7 652.5,319.8 647.0,320.0 641.0,320.2 634.7,320.4 628.6,320.5 623.3,320.7 619.3,320.9 617.6,321.1 618.7,321.3 622.6,321.4 629.1,321.6 637.3,321.8 646.0,322.0 654.2,322.2 661.1,322.3 666.4,322.5 670.0,322.7 672.3,322.9 673.7,323.0 674.4,323.2" fill="#2a8" opacity="0.5" stroke="#2a8" stroke-width="1"/>
<line x1="617.9" y1="321.0187505726911" x2="732.1" y2="321.0187505726911" stroke="#114" stroke-width="2"/>
<circle cx="675.0" cy="321.39766824720965" r="2.4" fill="#114"/>
<text x="675.0" y="305.8412807597478" text-anchor="middle" font-size="11">1.02</text>
<text x="675.0" y="376" text-anchor="middle" font-size="12">scal</text>
<polygon points="812.5,345.2 813.0,344.3 813.6,343.4 814.6,342.5 815.8,341.6 817.4,340.6 819.2,339.7 821.5,338.8 824.0,337.9 826.8,337.0 829.9,336.1 833.2,335.2 836.7,334.3 840.4,333.4 844.4,332.5 848.4,331.6 852.5,330.7 856.5,329.8 860.1,328.9 863.2,328.0 865.7,327.1 867.5,326.2 868.6,325.3 869.0,324.4 869.1,323.5 868.8,322.6 868.5,321.7 868.2,320.8 867.9,319.9 867.8,318.9 867.6,318.0 867.4,317.1 867.1,316.2 866.4,315.3 865.5,314.4 864.3,313.5 862.6,312.6 860.7,311.7 858.4,310.8 856.0,309.9 853.5,309.0 850.9,308.1 848.5,307.2 846.1,306.3 843.8,305.4 841.4,304.5 838.9,303.6 836.3,302.7 833.4,301.8 830.5,300.9 827.5,300.0 824.6,299.1 821.9,298.2 819.5,297.2 817.5,296.3 815.9,295.4 814.7,294.5 813.8,293.6 813.3,292.7 813.0,291.8 812.9,290.9 812.9,290.0 812.9,289.1 812.9,288.2 812.9,287.3 812.9,286.4 812.8,285.5 812.7,284.6 812.5,283.7 812.3,282.8 812.1,281.9 812.0,281.0 811.3,281.0 811.2,281.9 811.0,282.8 810.8,283.7 810.7,284.6 810.5,285.5 810.4,286.4 810.4,287.3 810.4,288.2 810.4,289.1 810.5,290.0 810.5,290.9 810.3,291.8 810.0,292.7 809.5,293.6 808.6,294.5 807.4,295.4 805.8,296.3 803.8,297.2 801.4,298.2 798.7,299.1 795.8,300.0 792.8,300.9 789.9,301.8 787.1,302.7 784.4,303.6 781.9,304.5 779.6,305.4 777.2,306.3 774.8,307.2 772.4,308.1 769.9,309.0 767.4,309.9 764.9,310.8 762.7,311.7 760.7,312.6 759.1,313.5 757.8,314.4 756.9,315.3 756.3,316.2 755.9,317.1 755.7,318.0 755.6,318.9 755.4,319.9 755.1,320.8 754.8,321.7 754.5,322.6 754.3,323.5 754.3,324.4 754.8,325.3 755.8,326.2 757.6,327.1 760.1,328.0 763.2,328.9 766.9,329.8 770.8,330.7 774.9,331.6 779.0,332.5 782.9,333.4 786.6,334.3 790.2,335.2 793.5,336.1 796.5,337.0 799.3,337.9 801.9,338.8 804.1,339.7 806.0,340.6 807.5,341.6 808.8,342.5 809.7,343.4 810.4,344.3 810.9,345.2" fill="#d33" opacity="0.5" stroke="#d33" stroke-width="1"/>
<line x1="755.5" y1="319.0442512313691" x2="867.8" y2="319.0442512313691" stroke="#114" stroke-width="2"/>
<circle cx="811.6666666666666" cy="324.9619886110136" r="2.4" fill="#114"/>
<text x="811.6666666666666" y="281.24152690054746" text-anchor="middle" font-size="11">1.07</text>
<text x="811.6666666666666" y="376" text-anchor="middle" font-size="12">iamax</text>
<text x="450.0" y="428" text-anchor="middle" font-size="11" fill="#666">violin = ratio distribution over sizes · line = median · dark dot = worst size · green = every size ≥ gate</text>
</svg>
