<svg xmlns="http://www.w3.org/2000/svg" width="900" height="440" font-family="sans-serif">
<rect width="900" height="440" fill="white"/>
<text x="450.0" y="28" text-anchor="middle" font-size="18" font-weight="bold">BLAS-2: PureBLAS / OpenBLAS (AVX-512, 1 thread, Float64)</text>
<line x1="60" y1="358.0" x2="880" y2="358.0" stroke="#eee"/>
<text x="52" y="362.0" text-anchor="end" font-size="11" fill="#666">0×</text>
<line x1="60" y1="295.09780519052345" x2="880" y2="295.09780519052345" stroke="#eee"/>
<text x="52" y="299.09780519052345" text-anchor="end" font-size="11" fill="#666">0.5×</text>
<line x1="60" y1="232.1956103810469" x2="880" y2="232.1956103810469" stroke="#eee"/>
<text x="52" y="236.1956103810469" text-anchor="end" font-size="11" fill="#666">1×</text>
<line x1="60" y1="169.29341557157034" x2="880" y2="169.29341557157034" stroke="#eee"/>
<text x="52" y="173.29341557157034" text-anchor="end" font-size="11" fill="#666">1.5×</text>
<line x1="60" y1="232.1956103810469" x2="880" y2="232.1956103810469" stroke="#888" stroke-width="1"/>
<line x1="60" y1="237.22778596580503" x2="880" y2="237.22778596580503" stroke="#d33" stroke-width="1.5" stroke-dasharray="6 4"/>
<text x="880" y="232.22778596580503" text-anchor="end" font-size="11" fill="#d33">0.96× gate</text>
<polygon points="108.0,271.3 109.0,268.2 110.4,265.1 112.0,262.0 114.1,258.9 116.5,255.7 119.3,252.6 122.4,249.5 125.7,246.4 129.1,243.3 132.5,240.2 135.6,237.0 138.4,233.9 140.7,230.8 142.4,227.7 143.5,224.6 143.8,221.5 143.5,218.3 142.6,215.2 141.1,212.1 139.3,209.0 137.2,205.9 134.9,202.8 132.5,199.6 130.0,196.5 127.6,193.4 125.3,190.3 123.0,187.2 120.9,184.0 118.8,180.9 116.9,177.8 115.2,174.7 113.6,171.6 112.2,168.5 111.0,165.3 110.0,162.2 109.1,159.1 108.5,156.0 108.0,152.9 107.7,149.8 107.5,146.6 107.4,143.5 107.3,140.4 107.3,137.3 107.4,134.2 107.6,131.1 107.8,127.9 108.0,124.8 108.3,121.7 108.6,118.6 109.0,115.5 109.5,112.3 109.9,109.2 110.4,106.1 110.9,103.0 111.3,99.9 111.6,96.8 111.9,93.6 112.0,90.5 112.0,87.4 111.9,84.3 111.6,81.2 111.2,78.1 110.8,74.9 110.2,71.8 109.7,68.7 109.1,65.6 108.5,62.5 108.0,59.4 107.5,56.2 107.1,53.1 106.8,50.0 104.4,50.0 104.0,53.1 103.6,56.2 103.1,59.4 102.6,62.5 102.0,65.6 101.4,68.7 100.9,71.8 100.3,74.9 99.9,78.1 99.5,81.2 99.2,84.3 99.1,87.4 99.1,90.5 99.3,93.6 99.5,96.8 99.8,99.9 100.3,103.0 100.7,106.1 101.2,109.2 101.6,112.3 102.1,115.5 102.5,118.6 102.8,121.7 103.1,124.8 103.4,127.9 103.5,131.1 103.7,134.2 103.8,137.3 103.8,140.4 103.8,143.5 103.6,146.6 103.4,149.8 103.1,152.9 102.6,156.0 102.0,159.1 101.2,162.2 100.1,165.3 98.9,168.5 97.5,171.6 96.0,174.7 94.2,177.8 92.3,180.9 90.3,184.0 88.1,187.2 85.8,190.3 83.5,193.4 81.1,196.5 78.6,199.6 76.2,202.8 73.9,205.9 71.8,209.0 70.0,212.1 68.5,215.2 67.6,218.3 67.3,221.5 67.6,224.6 68.7,227.7 70.4,230.8 72.7,233.9 75.5,237.0 78.7,240.2 82.0,243.3 85.4,246.4 88.7,249.5 91.8,252.6 94.6,255.7 97.0,258.9 99.1,262.0 100.7,265.1 102.1,268.2 103.1,271.3" fill="#2a8" opacity="0.5" stroke="#2a8" stroke-width="1"/>
<line x1="67.4" y1="219.5534436931721" x2="143.7" y2="219.5534436931721" stroke="#114" stroke-width="2"/>
<circle cx="105.55555555555556" cy="236.62646578770276" r="2.4" fill="#114"/>
<text x="105.55555555555556" y="61.43396226415098" text-anchor="middle" font-size="11">1.10</text>
<text x="105.55555555555556" y="376" text-anchor="middle" font-size="12">gemvN</text>
<polygon points="199.4,244.5 200.3,243.6 201.4,242.8 202.8,241.9 204.4,241.0 206.3,240.1 208.4,239.2 210.8,238.3 213.3,237.4 216.1,236.5 218.9,235.7 221.7,234.8 224.4,233.9 227.0,233.0 229.3,232.1 231.3,231.2 232.9,230.3 234.1,229.4 234.7,228.6 234.9,227.7 234.7,226.8 234.0,225.9 232.9,225.0 231.5,224.1 229.9,223.2 228.1,222.4 226.2,221.5 224.3,220.6 222.3,219.7 220.3,218.8 218.4,217.9 216.5,217.0 214.7,216.1 213.0,215.3 211.3,214.4 209.8,213.5 208.5,212.6 207.4,211.7 206.5,210.8 205.8,209.9 205.5,209.0 205.5,208.2 205.7,207.3 206.3,206.4 207.1,205.5 208.2,204.6 209.4,203.7 210.7,202.8 212.1,201.9 213.4,201.1 214.6,200.2 215.5,199.3 216.1,198.4 216.4,197.5 216.3,196.6 215.8,195.7 214.9,194.8 213.8,194.0 212.4,193.1 210.8,192.2 209.1,191.3 207.4,190.4 205.8,189.5 204.3,188.6 202.9,187.8 201.6,186.9 200.6,186.0 199.7,185.1 199.0,184.2 198.4,183.3 197.9,182.4 197.6,181.5 195.7,181.5 195.4,182.4 194.9,183.3 194.4,184.2 193.6,185.1 192.8,186.0 191.7,186.9 190.5,187.8 189.1,188.6 187.5,189.5 185.9,190.4 184.2,191.3 182.5,192.2 181.0,193.1 179.5,194.0 178.4,194.8 177.5,195.7 177.1,196.6 177.0,197.5 177.2,198.4 177.9,199.3 178.8,200.2 179.9,201.1 181.2,201.9 182.6,202.8 183.9,203.7 185.2,204.6 186.2,205.5 187.1,206.4 187.6,207.3 187.9,208.2 187.8,209.0 187.5,209.9 186.9,210.8 186.0,211.7 184.8,212.6 183.5,213.5 182.0,214.4 180.4,215.3 178.6,216.1 176.8,217.0 174.9,217.9 173.0,218.8 171.0,219.7 169.1,220.6 167.1,221.5 165.2,222.4 163.4,223.2 161.8,224.1 160.4,225.0 159.4,225.9 158.7,226.8 158.4,227.7 158.6,228.6 159.3,229.4 160.4,230.3 162.0,231.2 164.0,232.1 166.3,233.0 168.9,233.9 171.7,234.8 174.5,235.7 177.3,236.5 180.0,237.4 182.6,238.3 184.9,239.2 187.1,240.1 189.0,241.0 190.6,241.9 191.9,242.8 193.1,243.6 194.0,244.5" fill="#2a8" opacity="0.5" stroke="#2a8" stroke-width="1"/>
<line x1="161.0" y1="224.61341059704435" x2="232.3" y2="224.61341059704435" stroke="#114" stroke-width="2"/>
<circle cx="196.66666666666669" cy="233.20609531197786" r="2.4" fill="#114"/>
<text x="196.66666666666669" y="181.84068485653555" text-anchor="middle" font-size="11">1.06</text>
<text x="196.66666666666669" y="376" text-anchor="middle" font-size="12">gemvT</text>
<polygon points="288.0,238.6 288.2,238.0 288.5,237.5 288.8,236.9 289.3,236.4 290.0,235.8 291.0,235.3 292.2,234.7 293.7,234.1 295.5,233.6 297.4,233.0 299.5,232.5 301.5,231.9 303.4,231.4 305.0,230.8 306.2,230.3 307.1,229.7 307.7,229.2 308.1,228.6 308.6,228.1 309.3,227.5 310.4,227.0 311.9,226.4 313.8,225.8 316.0,225.3 318.4,224.7 320.8,224.2 322.9,223.6 324.6,223.1 325.6,222.5 326.0,222.0 325.8,221.4 324.9,220.9 323.6,220.3 321.8,219.8 319.9,219.2 317.7,218.6 315.5,218.1 313.3,217.5 311.1,217.0 309.0,216.4 307.0,215.9 305.1,215.3 303.5,214.8 302.1,214.2 300.8,213.7 299.7,213.1 298.7,212.6 297.7,212.0 296.8,211.5 295.9,210.9 295.0,210.3 294.2,209.8 293.5,209.2 292.9,208.7 292.3,208.1 291.8,207.6 291.4,207.0 291.0,206.5 290.6,205.9 290.3,205.4 290.0,204.8 289.7,204.3 289.4,203.7 289.1,203.2 288.9,202.6 288.7,202.0 288.5,201.5 288.3,200.9 288.2,200.4 288.1,199.8 288.0,199.3 287.6,199.3 287.5,199.8 287.4,200.4 287.3,200.9 287.1,201.5 286.9,202.0 286.7,202.6 286.4,203.2 286.2,203.7 285.9,204.3 285.6,204.8 285.3,205.4 284.9,205.9 284.6,206.5 284.2,207.0 283.7,207.6 283.2,208.1 282.7,208.7 282.0,209.2 281.3,209.8 280.5,210.3 279.7,210.9 278.8,211.5 277.8,212.0 276.9,212.6 275.8,213.1 274.7,213.7 273.5,214.2 272.1,214.8 270.4,215.3 268.6,215.9 266.6,216.4 264.5,217.0 262.3,217.5 260.0,218.1 257.8,218.6 255.7,219.2 253.7,219.8 252.0,220.3 250.6,220.9 249.8,221.4 249.5,222.0 249.9,222.5 251.0,223.1 252.6,223.6 254.8,224.2 257.1,224.7 259.5,225.3 261.8,225.8 263.7,226.4 265.2,227.0 266.2,227.5 266.9,228.1 267.4,228.6 267.9,229.2 268.5,229.7 269.3,230.3 270.6,230.8 272.2,231.4 274.0,231.9 276.1,232.5 278.1,233.0 280.1,233.6 281.9,234.1 283.4,234.7 284.6,235.3 285.5,235.8 286.2,236.4 286.7,236.9 287.1,237.5 287.3,238.0 287.5,238.6" fill="#2a8" opacity="0.5" stroke="#2a8" stroke-width="1"/>
<line x1="249.5" y1="221.81179536915056" x2="326.0" y2="221.81179536915056" stroke="#114" stroke-width="2"/>
<circle cx="287.77777777777777" cy="230.2965981704588" r="2.4" fill="#114"/>
<text x="287.77777777777777" y="197.28204372389078" text-anchor="middle" font-size="11">1.08</text>
<text x="287.77777777777777" y="376" text-anchor="middle" font-size="12">ger</text>
<polygon points="379.2,232.3 379.4,231.0 379.8,229.7 380.3,228.4 381.2,227.0 382.3,225.7 383.9,224.4 386.0,223.1 388.6,221.8 391.7,220.4 395.3,219.1 399.1,217.8 403.1,216.5 406.8,215.2 410.2,213.8 413.1,212.5 415.2,211.2 416.5,209.9 417.1,208.5 417.2,207.2 416.8,205.9 416.3,204.6 415.8,203.3 415.4,201.9 414.9,200.6 414.5,199.3 413.8,198.0 412.8,196.6 411.4,195.3 409.7,194.0 407.8,192.7 405.8,191.4 403.9,190.0 402.2,188.7 400.8,187.4 399.6,186.1 398.5,184.7 397.3,183.4 395.9,182.1 394.2,180.8 392.3,179.5 390.2,178.1 388.1,176.8 386.0,175.5 384.1,174.2 382.6,172.8 381.4,171.5 380.5,170.2 379.8,168.9 379.4,167.6 379.2,166.2 379.1,164.9 379.1,163.6 379.1,162.3 379.2,161.0 379.3,159.6 379.4,158.3 379.6,157.0 379.8,155.7 379.9,154.3 380.1,153.0 380.1,151.7 380.2,150.4 380.1,149.1 380.0,147.7 379.9,146.4 379.7,145.1 379.5,143.8 379.4,142.4 379.2,141.1 379.1,139.8 379.0,138.5 378.7,138.5 378.7,139.8 378.5,141.1 378.4,142.4 378.2,143.8 378.1,145.1 377.9,146.4 377.8,147.7 377.7,149.1 377.6,150.4 377.6,151.7 377.7,153.0 377.8,154.3 378.0,155.7 378.2,157.0 378.3,158.3 378.5,159.6 378.6,161.0 378.7,162.3 378.7,163.6 378.7,164.9 378.6,166.2 378.3,167.6 377.9,168.9 377.3,170.2 376.4,171.5 375.2,172.8 373.6,174.2 371.8,175.5 369.7,176.8 367.6,178.1 365.5,179.5 363.5,180.8 361.9,182.1 360.5,183.4 359.3,184.7 358.2,186.1 357.0,187.4 355.5,188.7 353.9,190.0 352.0,191.4 350.0,192.7 348.1,194.0 346.4,195.3 345.0,196.6 344.0,198.0 343.3,199.3 342.8,200.6 342.4,201.9 342.0,203.3 341.5,204.6 341.0,205.9 340.6,207.2 340.7,208.5 341.3,209.9 342.6,211.2 344.7,212.5 347.5,213.8 350.9,215.2 354.7,216.5 358.6,217.8 362.5,219.1 366.0,220.4 369.2,221.8 371.8,223.1 373.9,224.4 375.5,225.7 376.6,227.0 377.5,228.4 378.0,229.7 378.4,231.0 378.6,232.3" fill="#2a8" opacity="0.5" stroke="#2a8" stroke-width="1"/>
<line x1="342.7" y1="201.03540653707702" x2="415.1" y2="201.03540653707702" stroke="#114" stroke-width="2"/>
<circle cx="378.8888888888889" cy="215.88719271750583" r="2.4" fill="#114"/>
<text x="378.8888888888889" y="141.76318029865158" text-anchor="middle" font-size="11">1.25</text>
<text x="378.8888888888889" y="376" text-anchor="middle" font-size="12">symv</text>
<polygon points="470.2,249.0 470.3,247.4 470.5,245.8 470.8,244.2 471.1,242.6 471.6,241.0 472.3,239.5 473.1,237.9 474.1,236.3 475.5,234.7 477.4,233.1 479.7,231.5 482.4,230.0 485.4,228.4 488.6,226.8 491.6,225.2 494.2,223.6 496.3,222.1 497.9,220.5 499.1,218.9 500.1,217.3 501.1,215.7 502.2,214.1 503.5,212.6 504.9,211.0 506.3,209.4 507.4,207.8 508.1,206.2 508.3,204.7 507.7,203.1 506.3,201.5 504.2,199.9 501.4,198.3 498.2,196.7 494.8,195.2 491.6,193.6 488.9,192.0 486.8,190.4 485.3,188.8 484.2,187.3 483.5,185.7 482.9,184.1 482.2,182.5 481.2,180.9 480.1,179.3 478.8,177.8 477.4,176.2 476.1,174.6 474.8,173.0 473.6,171.4 472.7,169.9 471.9,168.3 471.2,166.7 470.8,165.1 470.5,163.5 470.3,161.9 470.2,160.4 470.2,158.8 470.2,157.2 470.3,155.6 470.4,154.0 470.5,152.4 470.6,150.9 470.7,149.3 470.7,147.7 470.7,146.1 470.6,144.5 470.5,143.0 470.4,141.4 470.3,139.8 470.2,138.2 470.1,136.6 469.9,136.6 469.8,138.2 469.7,139.8 469.6,141.4 469.5,143.0 469.4,144.5 469.3,146.1 469.3,147.7 469.3,149.3 469.4,150.9 469.5,152.4 469.6,154.0 469.7,155.6 469.8,157.2 469.8,158.8 469.8,160.4 469.7,161.9 469.5,163.5 469.2,165.1 468.8,166.7 468.1,168.3 467.3,169.9 466.4,171.4 465.2,173.0 463.9,174.6 462.6,176.2 461.2,177.8 459.9,179.3 458.8,180.9 457.8,182.5 457.1,184.1 456.5,185.7 455.8,187.3 454.7,188.8 453.2,190.4 451.1,192.0 448.4,193.6 445.2,195.2 441.8,196.7 438.6,198.3 435.8,199.9 433.7,201.5 432.3,203.1 431.7,204.7 431.9,206.2 432.6,207.8 433.7,209.4 435.1,211.0 436.5,212.6 437.8,214.1 438.9,215.7 439.9,217.3 440.9,218.9 442.1,220.5 443.7,222.1 445.8,223.6 448.4,225.2 451.4,226.8 454.6,228.4 457.6,230.0 460.3,231.5 462.6,233.1 464.5,234.7 465.9,236.3 466.9,237.9 467.7,239.5 468.4,241.0 468.9,242.6 469.2,244.2 469.5,245.8 469.7,247.4 469.8,249.0" fill="#2a8" opacity="0.5" stroke="#2a8" stroke-width="1"/>
<line x1="431.8" y1="206.0603609675411" x2="508.2" y2="206.0603609675411" stroke="#114" stroke-width="2"/>
<circle cx="470.0" cy="223.88390361961245" r="2.4" fill="#114"/>
<text x="470.0" y="141.70259924418127" text-anchor="middle" font-size="11">1.21</text>
<text x="470.0" y="376" text-anchor="middle" font-size="12">trmv</text>
<polygon points="561.4,242.9 561.5,242.1 561.6,241.3 561.8,240.6 562.0,239.8 562.2,239.0 562.5,238.2 562.9,237.4 563.4,236.6 564.1,235.8 565.0,235.0 566.3,234.2 567.8,233.4 569.6,232.7 571.7,231.9 574.1,231.1 576.5,230.3 578.8,229.5 581.1,228.7 583.0,227.9 584.6,227.1 585.9,226.3 586.8,225.5 587.5,224.8 588.0,224.0 588.5,223.2 589.0,222.4 589.7,221.6 590.6,220.8 591.7,220.0 592.9,219.2 594.1,218.4 595.3,217.6 596.4,216.8 597.2,216.1 597.7,215.3 598.0,214.5 598.0,213.7 598.0,212.9 597.9,212.1 597.8,211.3 597.9,210.5 598.2,209.7 598.6,208.9 599.0,208.2 599.3,207.4 599.4,206.6 599.1,205.8 598.3,205.0 596.9,204.2 594.9,203.4 592.2,202.6 589.2,201.8 585.8,201.0 582.3,200.3 579.0,199.5 575.8,198.7 573.0,197.9 570.6,197.1 568.7,196.3 567.1,195.5 565.9,194.7 564.9,193.9 564.2,193.1 563.6,192.3 563.1,191.6 562.6,190.8 562.3,190.0 562.0,189.2 561.8,188.4 561.6,187.6 561.4,186.8 560.8,186.8 560.6,187.6 560.4,188.4 560.2,189.2 559.9,190.0 559.6,190.8 559.2,191.6 558.7,192.3 558.1,193.1 557.3,193.9 556.3,194.7 555.1,195.5 553.5,196.3 551.6,197.1 549.2,197.9 546.4,198.7 543.3,199.5 539.9,200.3 536.4,201.0 533.0,201.8 530.0,202.6 527.4,203.4 525.3,204.2 523.9,205.0 523.1,205.8 522.8,206.6 522.9,207.4 523.3,208.2 523.7,208.9 524.0,209.7 524.3,210.5 524.4,211.3 524.3,212.1 524.3,212.9 524.2,213.7 524.2,214.5 524.5,215.3 525.0,216.1 525.9,216.8 526.9,217.6 528.1,218.4 529.3,219.2 530.5,220.0 531.6,220.8 532.5,221.6 533.2,222.4 533.8,223.2 534.2,224.0 534.7,224.8 535.4,225.5 536.3,226.3 537.6,227.1 539.2,227.9 541.2,228.7 543.4,229.5 545.8,230.3 548.2,231.1 550.5,231.9 552.6,232.7 554.4,233.4 556.0,234.2 557.2,235.0 558.1,235.8 558.8,236.6 559.3,237.4 559.7,238.2 560.0,239.0 560.3,239.8 560.4,240.6 560.6,241.3 560.7,242.1 560.8,242.9" fill="#2a8" opacity="0.5" stroke="#2a8" stroke-width="1"/>
<line x1="524.2" y1="213.8314412959784" x2="598.0" y2="213.8314412959784" stroke="#114" stroke-width="2"/>
<circle cx="561.1111111111111" cy="227.5806948340244" r="2.4" fill="#114"/>
<text x="561.1111111111111" y="186.44964788014215" text-anchor="middle" font-size="11">1.15</text>
<text x="561.1111111111111" y="376" text-anchor="middle" font-size="12">trsv</text>
<polygon points="655.7,237.6 656.8,235.7 658.1,233.8 659.6,231.9 661.1,230.1 662.5,228.2 663.8,226.3 664.9,224.4 665.7,222.5 666.2,220.6 666.4,218.7 666.3,216.8 666.1,214.9 665.8,213.0 665.5,211.1 665.3,209.2 665.2,207.3 665.3,205.4 665.6,203.5 666.0,201.6 666.4,199.7 667.0,197.8 667.5,195.9 668.1,194.0 668.8,192.1 669.7,190.2 670.7,188.3 672.0,186.5 673.5,184.6 675.4,182.7 677.4,180.8 679.6,178.9 681.9,177.0 684.1,175.1 686.2,173.2 688.0,171.3 689.3,169.4 690.2,167.5 690.5,165.6 690.2,163.7 689.2,161.8 687.7,159.9 685.7,158.0 683.3,156.1 680.6,154.2 677.8,152.3 675.0,150.4 672.3,148.5 669.8,146.6 667.5,144.7 665.4,142.8 663.7,141.0 662.1,139.1 660.8,137.2 659.6,135.3 658.6,133.4 657.7,131.5 656.9,129.6 656.3,127.7 655.7,125.8 655.2,123.9 654.7,122.0 654.4,120.1 654.0,118.2 653.8,116.3 653.5,114.4 653.3,112.5 653.1,110.6 652.9,108.7 652.8,106.8 652.6,104.9 652.5,103.0 651.9,103.0 651.8,104.9 651.7,106.8 651.5,108.7 651.4,110.6 651.2,112.5 650.9,114.4 650.7,116.3 650.4,118.2 650.1,120.1 649.7,122.0 649.3,123.9 648.8,125.8 648.2,127.7 647.5,129.6 646.8,131.5 645.9,133.4 644.9,135.3 643.7,137.2 642.3,139.1 640.8,141.0 639.0,142.8 637.0,144.7 634.7,146.6 632.2,148.5 629.4,150.4 626.6,152.3 623.8,154.2 621.1,156.1 618.7,158.0 616.7,159.9 615.2,161.8 614.3,163.7 614.0,165.6 614.3,167.5 615.1,169.4 616.5,171.3 618.3,173.2 620.3,175.1 622.6,177.0 624.8,178.9 627.0,180.8 629.1,182.7 630.9,184.6 632.4,186.5 633.7,188.3 634.8,190.2 635.6,192.1 636.3,194.0 636.9,195.9 637.5,197.8 638.0,199.7 638.5,201.6 638.9,203.5 639.1,205.4 639.2,207.3 639.2,209.2 639.0,211.1 638.7,213.0 638.4,214.9 638.1,216.8 638.1,218.7 638.3,220.6 638.8,222.5 639.6,224.4 640.6,226.3 642.0,228.2 643.4,230.1 644.9,231.9 646.3,233.8 647.6,235.7 648.8,237.6" fill="#2a8" opacity="0.5" stroke="#2a8" stroke-width="1"/>
<line x1="616.3" y1="171.09738972850926" x2="688.1" y2="171.09738972850926" stroke="#114" stroke-width="2"/>
<circle cx="652.2222222222223" cy="222.332827560207" r="2.4" fill="#114"/>
<text x="652.2222222222223" y="110.26498946195065" text-anchor="middle" font-size="11">1.49</text>
<text x="652.2222222222223" y="376" text-anchor="middle" font-size="12">spmv</text>
<polygon points="743.4,258.6 743.4,256.8 743.5,254.9 743.6,253.0 743.8,251.2 743.9,249.3 743.9,247.4 744.0,245.6 743.9,243.7 743.9,241.8 743.8,240.0 743.7,238.1 743.6,236.2 743.6,234.4 743.6,232.5 743.7,230.6 743.9,228.8 744.2,226.9 744.6,225.0 745.1,223.2 745.8,221.3 746.6,219.4 747.8,217.6 749.5,215.7 751.5,213.8 754.0,212.0 756.9,210.1 759.8,208.2 762.7,206.4 765.3,204.5 767.6,202.6 769.9,200.8 772.3,198.9 774.9,197.0 777.4,195.2 779.7,193.3 781.2,191.4 781.6,189.6 780.8,187.7 778.7,185.8 775.9,184.0 772.8,182.1 769.7,180.2 767.2,178.4 765.2,176.5 763.6,174.7 762.2,172.8 760.6,170.9 758.9,169.1 756.9,167.2 754.6,165.3 752.4,163.5 750.3,161.6 748.5,159.7 747.1,157.9 746.1,156.0 745.5,154.1 745.2,152.3 745.1,150.4 745.1,148.5 745.1,146.7 745.1,144.8 745.1,142.9 744.9,141.1 744.7,139.2 744.4,137.3 744.2,135.5 743.9,133.6 743.7,131.7 743.6,129.9 743.5,128.0 743.4,126.1 743.3,126.1 743.2,128.0 743.1,129.9 742.9,131.7 742.7,133.6 742.5,135.5 742.2,137.3 742.0,139.2 741.8,141.1 741.6,142.9 741.5,144.8 741.5,146.7 741.6,148.5 741.6,150.4 741.5,152.3 741.1,154.1 740.5,156.0 739.5,157.9 738.1,159.7 736.3,161.6 734.3,163.5 732.0,165.3 729.8,167.2 727.8,169.1 726.0,170.9 724.5,172.8 723.1,174.7 721.5,176.5 719.5,178.4 716.9,180.2 713.9,182.1 710.8,184.0 707.9,185.8 705.9,187.7 705.1,189.6 705.5,191.4 707.0,193.3 709.3,195.2 711.8,197.0 714.4,198.9 716.7,200.8 719.0,202.6 721.4,204.5 724.0,206.4 726.8,208.2 729.8,210.1 732.6,212.0 735.1,213.8 737.2,215.7 738.8,217.6 740.0,219.4 740.9,221.3 741.6,223.2 742.1,225.0 742.5,226.9 742.8,228.8 743.0,230.6 743.1,232.5 743.1,234.4 743.1,236.2 743.0,238.1 742.9,240.0 742.8,241.8 742.7,243.7 742.7,245.6 742.7,247.4 742.8,249.3 742.9,251.2 743.0,253.0 743.1,254.9 743.2,256.8 743.3,258.6" fill="#2a8" opacity="0.5" stroke="#2a8" stroke-width="1"/>
<line x1="705.1" y1="189.19726354650024" x2="781.5" y2="189.19726354650024" stroke="#114" stroke-width="2"/>
<circle cx="743.3333333333334" cy="204.24640785963885" r="2.4" fill="#114"/>
<text x="743.3333333333334" y="133.15510263795667" text-anchor="middle" font-size="11">1.34</text>
<text x="743.3333333333334" y="376" text-anchor="middle" font-size="12">gbmvN</text>
<polygon points="834.4,274.8 834.4,272.2 834.5,269.5 834.5,266.8 834.6,264.1 834.7,261.5 834.9,258.8 834.9,256.1 834.9,253.4 834.8,250.8 834.7,248.1 834.7,245.4 834.8,242.7 834.9,240.1 835.0,237.4 834.9,234.7 835.1,232.0 835.6,229.4 836.9,226.7 839.5,224.0 843.2,221.3 847.8,218.7 852.6,216.0 857.9,213.3 863.8,210.7 869.5,208.0 872.7,205.3 871.5,202.6 866.3,200.0 859.3,197.3 852.7,194.6 847.6,191.9 843.7,189.3 840.8,186.6 838.5,183.9 836.8,181.2 835.8,178.6 835.3,175.9 834.9,173.2 834.7,170.5 834.6,167.9 834.5,165.2 834.5,162.5 834.4,159.8 834.4,157.2 834.4,154.5 834.4,151.8 834.4,149.1 834.4,146.5 834.4,143.8 834.4,141.1 834.4,138.4 834.4,135.8 834.4,133.1 834.4,130.4 834.4,127.7 834.4,125.1 834.4,122.4 834.4,119.7 834.5,117.0 834.5,114.4 834.6,111.7 834.7,109.0 834.9,106.3 834.9,103.7 834.9,101.0 834.7,98.3 834.6,95.6 834.5,93.0 834.5,90.3 834.4,87.6 834.4,84.9 834.4,84.9 834.4,87.6 834.4,90.3 834.4,93.0 834.3,95.6 834.1,98.3 834.0,101.0 833.9,103.7 834.0,106.3 834.2,109.0 834.3,111.7 834.4,114.4 834.4,117.0 834.4,119.7 834.4,122.4 834.4,125.1 834.4,127.7 834.4,130.4 834.4,133.1 834.4,135.8 834.4,138.4 834.4,141.1 834.4,143.8 834.4,146.5 834.4,149.1 834.4,151.8 834.4,154.5 834.4,157.2 834.4,159.8 834.4,162.5 834.4,165.2 834.3,167.9 834.2,170.5 834.0,173.2 833.6,175.9 833.1,178.6 832.1,181.2 830.4,183.9 828.1,186.6 825.1,189.3 821.3,191.9 816.2,194.6 809.6,197.3 802.6,200.0 797.4,202.6 796.2,205.3 799.4,208.0 805.1,210.7 811.0,213.3 816.3,216.0 821.1,218.7 825.6,221.3 829.4,224.0 831.9,226.7 833.3,229.4 833.8,232.0 833.9,234.7 833.9,237.4 834.0,240.1 834.1,242.7 834.2,245.4 834.2,248.1 834.1,250.8 834.0,253.4 833.9,256.1 834.0,258.8 834.1,261.5 834.3,264.1 834.4,266.8 834.4,269.5 834.4,272.2 834.4,274.8" fill="#2a8" opacity="0.5" stroke="#2a8" stroke-width="1"/>
<line x1="796.0" y1="204.81079345998506" x2="872.8" y2="204.81079345998506" stroke="#114" stroke-width="2"/>
<circle cx="834.4444444444445" cy="215.7354124692954" r="2.4" fill="#114"/>
<text x="834.4444444444445" y="97.5261775398007" text-anchor="middle" font-size="11">1.22</text>
<text x="834.4444444444445" y="376" text-anchor="middle" font-size="12">sbmv</text>
<text x="450.0" y="428" text-anchor="middle" font-size="11" fill="#666">violin = ratio distribution over sizes · line = median · dark dot = worst size · green = every size ≥ gate</text>
</svg>
