<svg xmlns="http://www.w3.org/2000/svg" width="962" height="420" font-family="sans-serif">
<rect width="962" height="420" fill="white"/>
<text x="481.0" y="26" text-anchor="middle" font-size="17" font-weight="bold">BLAS-3 — PureBLAS / OpenBLAS (PB/OpenBLAS ratio)</text>
<line x1="46" y1="42" x2="68" y2="42" stroke="#d62728" stroke-width="3"/>
<text x="73" y="46" font-size="12">Zen3 · AVX2</text>
<line x1="176" y1="42" x2="198" y2="42" stroke="#2ca02c" stroke-width="3"/>
<text x="203" y="46" font-size="12">Zen5 · AVX-512</text>
<line x1="327" y1="42" x2="349" y2="42" stroke="#1f77b4" stroke-width="3"/>
<text x="354" y="46" font-size="12">Zen4 · AVX-512</text>
<rect x="46" y="60" width="210" height="138" fill="none" stroke="#e2e2e2"/>
<line x1="46" y1="132.09394611394407" x2="256" y2="132.09394611394407" stroke="#d33" stroke-dasharray="4 3"/>
<text x="42" y="201.0" text-anchor="end" font-size="9" fill="#999">0.5×</text>
<text x="42" y="135.09394611394407" text-anchor="end" font-size="9" fill="#999">1.0×</text>
<text x="42" y="63.20010114484403" text-anchor="end" font-size="9" fill="#999">2.13×</text>
<polygon points="46.0,67.3 92.7,100.2 139.3,115.0 162.7,124.9 186.0,122.0 209.3,117.5 232.7,110.5 256.0,100.8 256.0,102.1 232.7,111.4 209.3,119.0 186.0,123.9 162.7,125.7 139.3,116.8 92.7,102.2 46.0,69.1" fill="#d62728" opacity="0.11"/>
<polyline points="46.0,68.2 92.7,100.9 139.3,115.9 162.7,125.3 186.0,122.2 209.3,117.9 232.7,110.8 256.0,101.7" fill="none" stroke="#d62728" stroke-width="1.6"/>
<circle cx="46.0" cy="68.2" r="2" fill="#d62728"/>
<circle cx="92.7" cy="100.9" r="2" fill="#d62728"/>
<circle cx="139.3" cy="115.9" r="2" fill="#d62728"/>
<circle cx="162.7" cy="125.3" r="2" fill="#d62728"/>
<circle cx="186.0" cy="122.2" r="2" fill="#d62728"/>
<circle cx="209.3" cy="117.9" r="2" fill="#d62728"/>
<circle cx="232.7" cy="110.8" r="2" fill="#d62728"/>
<circle cx="256.0" cy="101.7" r="2" fill="#d62728"/>
<polygon points="46.0,113.2 92.7,128.7 139.3,104.3 162.7,113.2 186.0,116.6 209.3,113.0 232.7,106.1 256.0,95.8 256.0,96.1 232.7,106.7 209.3,113.6 186.0,117.0 162.7,115.6 139.3,105.8 92.7,133.3 46.0,126.2" fill="#2ca02c" opacity="0.11"/>
<polyline points="46.0,118.4 92.7,131.6 139.3,105.1 162.7,113.7 186.0,116.7 209.3,113.2 232.7,106.5 256.0,95.9" fill="none" stroke="#2ca02c" stroke-width="1.6"/>
<circle cx="46.0" cy="118.4" r="2" fill="#2ca02c"/>
<circle cx="92.7" cy="131.6" r="2" fill="#2ca02c"/>
<circle cx="139.3" cy="105.1" r="2" fill="#2ca02c"/>
<circle cx="162.7" cy="113.7" r="2" fill="#2ca02c"/>
<circle cx="186.0" cy="116.7" r="2" fill="#2ca02c"/>
<circle cx="209.3" cy="113.2" r="2" fill="#2ca02c"/>
<circle cx="232.7" cy="106.5" r="2" fill="#2ca02c"/>
<circle cx="256.0" cy="95.9" r="2" fill="#2ca02c"/>
<polygon points="46.0,118.4 92.7,125.4 139.3,112.2 162.7,122.9 186.0,127.7 209.3,125.4 232.7,117.9 256.0,108.2 256.0,108.8 232.7,118.6 209.3,125.8 186.0,128.2 162.7,126.6 139.3,114.7 92.7,129.0 46.0,123.0" fill="#1f77b4" opacity="0.11"/>
<polyline points="46.0,121.3 92.7,128.0 139.3,113.8 162.7,123.5 186.0,127.9 209.3,125.5 232.7,118.3 256.0,108.4" fill="none" stroke="#1f77b4" stroke-width="1.6"/>
<circle cx="46.0" cy="121.3" r="2" fill="#1f77b4"/>
<circle cx="92.7" cy="128.0" r="2" fill="#1f77b4"/>
<circle cx="139.3" cy="113.8" r="2" fill="#1f77b4"/>
<circle cx="162.7" cy="123.5" r="2" fill="#1f77b4"/>
<circle cx="186.0" cy="127.9" r="2" fill="#1f77b4"/>
<circle cx="209.3" cy="125.5" r="2" fill="#1f77b4"/>
<circle cx="232.7" cy="118.3" r="2" fill="#1f77b4"/>
<circle cx="256.0" cy="108.4" r="2" fill="#1f77b4"/>
<text x="151.0" y="55" text-anchor="middle" font-size="12" font-weight="bold">gemm</text>
<line x1="46.0" y1="60" x2="46.0" y2="198" stroke="#f4f4f4"/>
<text x="46.0" y="209" text-anchor="middle" font-size="8" fill="#999">8</text>
<line x1="92.7" y1="60" x2="92.7" y2="198" stroke="#f4f4f4"/>
<text x="92.7" y="209" text-anchor="middle" font-size="8" fill="#999">32</text>
<line x1="139.3" y1="60" x2="139.3" y2="198" stroke="#f4f4f4"/>
<text x="139.3" y="209" text-anchor="middle" font-size="8" fill="#999">128</text>
<line x1="162.7" y1="60" x2="162.7" y2="198" stroke="#f4f4f4"/>
<text x="162.7" y="209" text-anchor="middle" font-size="8" fill="#999">256</text>
<line x1="186.0" y1="60" x2="186.0" y2="198" stroke="#f4f4f4"/>
<text x="186.0" y="209" text-anchor="middle" font-size="8" fill="#999">512</text>
<line x1="209.3" y1="60" x2="209.3" y2="198" stroke="#f4f4f4"/>
<text x="209.3" y="209" text-anchor="middle" font-size="8" fill="#999">1k</text>
<line x1="232.7" y1="60" x2="232.7" y2="198" stroke="#f4f4f4"/>
<text x="232.7" y="209" text-anchor="middle" font-size="8" fill="#999">2k</text>
<line x1="256.0" y1="60" x2="256.0" y2="198" stroke="#f4f4f4"/>
<text x="256.0" y="209" text-anchor="middle" font-size="8" fill="#999">4k</text>
<rect x="276" y="60" width="210" height="138" fill="none" stroke="#e2e2e2"/>
<line x1="276" y1="118.60999811219315" x2="486" y2="118.60999811219315" stroke="#d33" stroke-dasharray="4 3"/>
<text x="272" y="201.0" text-anchor="end" font-size="9" fill="#999">0.5×</text>
<text x="272" y="121.60999811219315" text-anchor="end" font-size="9" fill="#999">1.0×</text>
<polygon points="276.0,102.8 322.7,94.5 369.3,107.9 392.7,119.5 416.0,112.7 439.3,111.7 462.7,109.6 486.0,108.1 486.0,109.9 462.7,113.0 439.3,113.9 416.0,116.7 392.7,122.2 369.3,110.7 322.7,103.7 276.0,107.5" fill="#d62728" opacity="0.11"/>
<polyline points="276.0,104.2 322.7,98.3 369.3,108.8 392.7,121.8 416.0,114.6 439.3,112.9 462.7,111.4 486.0,109.3" fill="none" stroke="#d62728" stroke-width="1.6"/>
<circle cx="276.0" cy="104.2" r="2" fill="#d62728"/>
<circle cx="322.7" cy="98.3" r="2" fill="#d62728"/>
<circle cx="369.3" cy="108.8" r="2" fill="#d62728"/>
<circle cx="392.7" cy="121.8" r="2" fill="#d62728"/>
<circle cx="416.0" cy="114.6" r="2" fill="#d62728"/>
<circle cx="439.3" cy="112.9" r="2" fill="#d62728"/>
<circle cx="462.7" cy="111.4" r="2" fill="#d62728"/>
<circle cx="486.0" cy="109.3" r="2" fill="#d62728"/>
<polygon points="276.0,68.8 322.7,83.7 369.3,93.6 392.7,102.1 416.0,103.4 439.3,104.5 462.7,105.0 486.0,105.6 486.0,105.6 462.7,105.6 439.3,105.3 416.0,103.9 392.7,102.6 369.3,94.9 322.7,86.0 276.0,77.8" fill="#2ca02c" opacity="0.11"/>
<polyline points="276.0,72.5 322.7,85.2 369.3,94.3 392.7,102.3 416.0,103.7 439.3,105.0 462.7,105.4 486.0,105.6" fill="none" stroke="#2ca02c" stroke-width="1.6"/>
<circle cx="276.0" cy="72.5" r="2" fill="#2ca02c"/>
<circle cx="322.7" cy="85.2" r="2" fill="#2ca02c"/>
<circle cx="369.3" cy="94.3" r="2" fill="#2ca02c"/>
<circle cx="392.7" cy="102.3" r="2" fill="#2ca02c"/>
<circle cx="416.0" cy="103.7" r="2" fill="#2ca02c"/>
<circle cx="439.3" cy="105.0" r="2" fill="#2ca02c"/>
<circle cx="462.7" cy="105.4" r="2" fill="#2ca02c"/>
<circle cx="486.0" cy="105.6" r="2" fill="#2ca02c"/>
<polygon points="276.0,83.3 322.7,76.2 369.3,103.8 392.7,118.6 416.0,116.8 439.3,117.5 462.7,120.0 486.0,119.8 486.0,121.7 462.7,120.8 439.3,118.4 416.0,117.6 392.7,119.8 369.3,105.6 322.7,82.1 276.0,86.2" fill="#1f77b4" opacity="0.11"/>
<polyline points="276.0,84.5 322.7,80.1 369.3,105.0 392.7,119.2 416.0,117.2 439.3,117.8 462.7,120.5 486.0,120.0" fill="none" stroke="#1f77b4" stroke-width="1.6"/>
<circle cx="276.0" cy="84.5" r="2" fill="#1f77b4"/>
<circle cx="322.7" cy="80.1" r="2" fill="#1f77b4"/>
<circle cx="369.3" cy="105.0" r="2" fill="#1f77b4"/>
<circle cx="392.7" cy="119.2" r="2" fill="#1f77b4"/>
<circle cx="416.0" cy="117.2" r="2" fill="#1f77b4"/>
<circle cx="439.3" cy="117.8" r="2" fill="#1f77b4"/>
<circle cx="462.7" cy="120.5" r="2" fill="#1f77b4"/>
<circle cx="486.0" cy="120.0" r="2" fill="#1f77b4"/>
<text x="381.0" y="55" text-anchor="middle" font-size="12" font-weight="bold">symm</text>
<line x1="276.0" y1="60" x2="276.0" y2="198" stroke="#f4f4f4"/>
<text x="276.0" y="209" text-anchor="middle" font-size="8" fill="#999">8</text>
<line x1="322.7" y1="60" x2="322.7" y2="198" stroke="#f4f4f4"/>
<text x="322.7" y="209" text-anchor="middle" font-size="8" fill="#999">32</text>
<line x1="369.3" y1="60" x2="369.3" y2="198" stroke="#f4f4f4"/>
<text x="369.3" y="209" text-anchor="middle" font-size="8" fill="#999">128</text>
<line x1="392.7" y1="60" x2="392.7" y2="198" stroke="#f4f4f4"/>
<text x="392.7" y="209" text-anchor="middle" font-size="8" fill="#999">256</text>
<line x1="416.0" y1="60" x2="416.0" y2="198" stroke="#f4f4f4"/>
<text x="416.0" y="209" text-anchor="middle" font-size="8" fill="#999">512</text>
<line x1="439.3" y1="60" x2="439.3" y2="198" stroke="#f4f4f4"/>
<text x="439.3" y="209" text-anchor="middle" font-size="8" fill="#999">1k</text>
<line x1="462.7" y1="60" x2="462.7" y2="198" stroke="#f4f4f4"/>
<text x="462.7" y="209" text-anchor="middle" font-size="8" fill="#999">2k</text>
<line x1="486.0" y1="60" x2="486.0" y2="198" stroke="#f4f4f4"/>
<text x="486.0" y="209" text-anchor="middle" font-size="8" fill="#999">4k</text>
<rect x="506" y="60" width="210" height="138" fill="none" stroke="#e2e2e2"/>
<line x1="506" y1="120.9843729695672" x2="716" y2="120.9843729695672" stroke="#d33" stroke-dasharray="4 3"/>
<text x="502" y="201.0" text-anchor="end" font-size="9" fill="#999">0.5×</text>
<text x="502" y="123.9843729695672" text-anchor="end" font-size="9" fill="#999">1.0×</text>
<text x="502" y="63.08256863549215" text-anchor="end" font-size="9" fill="#999">1.73×</text>
<polygon points="506.0,71.8 552.7,98.9 599.3,117.8 622.7,118.5 646.0,116.2 669.3,115.9 692.7,118.5 716.0,114.6 716.0,118.6 692.7,119.2 669.3,117.1 646.0,117.2 622.7,122.2 599.3,126.4 552.7,114.9 506.0,77.3" fill="#d62728" opacity="0.11"/>
<polyline points="506.0,74.7 552.7,107.1 599.3,118.9 622.7,119.2 646.0,116.6 669.3,116.6 692.7,118.6 716.0,114.9" fill="none" stroke="#d62728" stroke-width="1.6"/>
<circle cx="506.0" cy="74.7" r="2" fill="#d62728"/>
<circle cx="552.7" cy="107.1" r="2" fill="#d62728"/>
<circle cx="599.3" cy="118.9" r="2" fill="#d62728"/>
<circle cx="622.7" cy="119.2" r="2" fill="#d62728"/>
<circle cx="646.0" cy="116.6" r="2" fill="#d62728"/>
<circle cx="669.3" cy="116.6" r="2" fill="#d62728"/>
<circle cx="692.7" cy="118.6" r="2" fill="#d62728"/>
<circle cx="716.0" cy="114.9" r="2" fill="#d62728"/>
<polygon points="506.0,68.6 552.7,88.5 599.3,95.4 622.7,93.5 646.0,97.3 669.3,103.6 692.7,108.9 716.0,113.1 716.0,113.4 692.7,109.2 669.3,104.4 646.0,97.7 622.7,95.2 599.3,98.7 552.7,90.5 506.0,74.4" fill="#2ca02c" opacity="0.11"/>
<polyline points="506.0,70.3 552.7,89.2 599.3,96.6 622.7,93.8 646.0,97.6 669.3,104.0 692.7,109.1 716.0,113.3" fill="none" stroke="#2ca02c" stroke-width="1.6"/>
<circle cx="506.0" cy="70.3" r="2" fill="#2ca02c"/>
<circle cx="552.7" cy="89.2" r="2" fill="#2ca02c"/>
<circle cx="599.3" cy="96.6" r="2" fill="#2ca02c"/>
<circle cx="622.7" cy="93.8" r="2" fill="#2ca02c"/>
<circle cx="646.0" cy="97.6" r="2" fill="#2ca02c"/>
<circle cx="669.3" cy="104.0" r="2" fill="#2ca02c"/>
<circle cx="692.7" cy="109.1" r="2" fill="#2ca02c"/>
<circle cx="716.0" cy="113.3" r="2" fill="#2ca02c"/>
<polygon points="506.0,83.2 552.7,90.4 599.3,103.5 622.7,107.0 646.0,110.7 669.3,118.6 692.7,124.2 716.0,127.6 716.0,130.9 692.7,124.6 669.3,120.1 646.0,111.4 622.7,110.1 599.3,105.2 552.7,95.0 506.0,88.4" fill="#1f77b4" opacity="0.11"/>
<polyline points="506.0,84.0 552.7,92.8 599.3,104.3 622.7,107.8 646.0,111.2 669.3,119.1 692.7,124.4 716.0,129.1" fill="none" stroke="#1f77b4" stroke-width="1.6"/>
<circle cx="506.0" cy="84.0" r="2" fill="#1f77b4"/>
<circle cx="552.7" cy="92.8" r="2" fill="#1f77b4"/>
<circle cx="599.3" cy="104.3" r="2" fill="#1f77b4"/>
<circle cx="622.7" cy="107.8" r="2" fill="#1f77b4"/>
<circle cx="646.0" cy="111.2" r="2" fill="#1f77b4"/>
<circle cx="669.3" cy="119.1" r="2" fill="#1f77b4"/>
<circle cx="692.7" cy="124.4" r="2" fill="#1f77b4"/>
<circle cx="716.0" cy="129.1" r="2" fill="#1f77b4"/>
<text x="611.0" y="55" text-anchor="middle" font-size="12" font-weight="bold">syrk</text>
<line x1="506.0" y1="60" x2="506.0" y2="198" stroke="#f4f4f4"/>
<text x="506.0" y="209" text-anchor="middle" font-size="8" fill="#999">8</text>
<line x1="552.7" y1="60" x2="552.7" y2="198" stroke="#f4f4f4"/>
<text x="552.7" y="209" text-anchor="middle" font-size="8" fill="#999">32</text>
<line x1="599.3" y1="60" x2="599.3" y2="198" stroke="#f4f4f4"/>
<text x="599.3" y="209" text-anchor="middle" font-size="8" fill="#999">128</text>
<line x1="622.7" y1="60" x2="622.7" y2="198" stroke="#f4f4f4"/>
<text x="622.7" y="209" text-anchor="middle" font-size="8" fill="#999">256</text>
<line x1="646.0" y1="60" x2="646.0" y2="198" stroke="#f4f4f4"/>
<text x="646.0" y="209" text-anchor="middle" font-size="8" fill="#999">512</text>
<line x1="669.3" y1="60" x2="669.3" y2="198" stroke="#f4f4f4"/>
<text x="669.3" y="209" text-anchor="middle" font-size="8" fill="#999">1k</text>
<line x1="692.7" y1="60" x2="692.7" y2="198" stroke="#f4f4f4"/>
<text x="692.7" y="209" text-anchor="middle" font-size="8" fill="#999">2k</text>
<line x1="716.0" y1="60" x2="716.0" y2="198" stroke="#f4f4f4"/>
<text x="716.0" y="209" text-anchor="middle" font-size="8" fill="#999">4k</text>
<rect x="736" y="60" width="210" height="138" fill="none" stroke="#e2e2e2"/>
<line x1="736" y1="125.57357155310937" x2="946" y2="125.57357155310937" stroke="#d33" stroke-dasharray="4 3"/>
<text x="732" y="201.0" text-anchor="end" font-size="9" fill="#999">0.5×</text>
<text x="732" y="128.5735715531094" text-anchor="end" font-size="9" fill="#999">1.0×</text>
<text x="732" y="63.16973489797263" text-anchor="end" font-size="9" fill="#999">1.87×</text>
<polygon points="736.0,69.5 782.7,93.7 829.3,128.1 852.7,129.0 876.0,125.6 899.3,122.4 922.7,121.8 946.0,119.6 946.0,119.9 922.7,123.7 899.3,123.8 876.0,126.6 852.7,129.7 829.3,137.3 782.7,105.0 736.0,76.0" fill="#d62728" opacity="0.11"/>
<polyline points="736.0,72.3 782.7,96.0 829.3,129.4 852.7,129.3 876.0,126.3 899.3,122.9 922.7,122.7 946.0,119.6" fill="none" stroke="#d62728" stroke-width="1.6"/>
<circle cx="736.0" cy="72.3" r="2" fill="#d62728"/>
<circle cx="782.7" cy="96.0" r="2" fill="#d62728"/>
<circle cx="829.3" cy="129.4" r="2" fill="#d62728"/>
<circle cx="852.7" cy="129.3" r="2" fill="#d62728"/>
<circle cx="876.0" cy="126.3" r="2" fill="#d62728"/>
<circle cx="899.3" cy="122.9" r="2" fill="#d62728"/>
<circle cx="922.7" cy="122.7" r="2" fill="#d62728"/>
<circle cx="946.0" cy="119.6" r="2" fill="#d62728"/>
<polygon points="736.0,68.0 782.7,87.2 829.3,80.1 852.7,88.3 876.0,104.1 899.3,112.8 922.7,117.2 946.0,118.8 946.0,119.4 922.7,117.7 899.3,114.6 876.0,105.4 852.7,90.0 829.3,84.5 782.7,91.0 736.0,81.1" fill="#2ca02c" opacity="0.11"/>
<polyline points="736.0,73.4 782.7,88.9 829.3,82.0 852.7,88.8 876.0,104.7 899.3,113.4 922.7,117.4 946.0,119.0" fill="none" stroke="#2ca02c" stroke-width="1.6"/>
<circle cx="736.0" cy="73.4" r="2" fill="#2ca02c"/>
<circle cx="782.7" cy="88.9" r="2" fill="#2ca02c"/>
<circle cx="829.3" cy="82.0" r="2" fill="#2ca02c"/>
<circle cx="852.7" cy="88.8" r="2" fill="#2ca02c"/>
<circle cx="876.0" cy="104.7" r="2" fill="#2ca02c"/>
<circle cx="899.3" cy="113.4" r="2" fill="#2ca02c"/>
<circle cx="922.7" cy="117.4" r="2" fill="#2ca02c"/>
<circle cx="946.0" cy="119.0" r="2" fill="#2ca02c"/>
<polygon points="736.0,71.9 782.7,98.5 829.3,99.5 852.7,104.5 876.0,118.3 899.3,125.5 922.7,128.9 946.0,131.4 946.0,141.0 922.7,130.1 899.3,126.7 876.0,120.2 852.7,108.1 829.3,102.6 782.7,103.2 736.0,86.3" fill="#1f77b4" opacity="0.11"/>
<polyline points="736.0,84.1 782.7,100.1 829.3,100.9 852.7,105.3 876.0,118.9 899.3,126.1 922.7,129.8 946.0,131.6" fill="none" stroke="#1f77b4" stroke-width="1.6"/>
<circle cx="736.0" cy="84.1" r="2" fill="#1f77b4"/>
<circle cx="782.7" cy="100.1" r="2" fill="#1f77b4"/>
<circle cx="829.3" cy="100.9" r="2" fill="#1f77b4"/>
<circle cx="852.7" cy="105.3" r="2" fill="#1f77b4"/>
<circle cx="876.0" cy="118.9" r="2" fill="#1f77b4"/>
<circle cx="899.3" cy="126.1" r="2" fill="#1f77b4"/>
<circle cx="922.7" cy="129.8" r="2" fill="#1f77b4"/>
<circle cx="946.0" cy="131.6" r="2" fill="#1f77b4"/>
<text x="841.0" y="55" text-anchor="middle" font-size="12" font-weight="bold">syr2k</text>
<line x1="736.0" y1="60" x2="736.0" y2="198" stroke="#f4f4f4"/>
<text x="736.0" y="209" text-anchor="middle" font-size="8" fill="#999">8</text>
<line x1="782.7" y1="60" x2="782.7" y2="198" stroke="#f4f4f4"/>
<text x="782.7" y="209" text-anchor="middle" font-size="8" fill="#999">32</text>
<line x1="829.3" y1="60" x2="829.3" y2="198" stroke="#f4f4f4"/>
<text x="829.3" y="209" text-anchor="middle" font-size="8" fill="#999">128</text>
<line x1="852.7" y1="60" x2="852.7" y2="198" stroke="#f4f4f4"/>
<text x="852.7" y="209" text-anchor="middle" font-size="8" fill="#999">256</text>
<line x1="876.0" y1="60" x2="876.0" y2="198" stroke="#f4f4f4"/>
<text x="876.0" y="209" text-anchor="middle" font-size="8" fill="#999">512</text>
<line x1="899.3" y1="60" x2="899.3" y2="198" stroke="#f4f4f4"/>
<text x="899.3" y="209" text-anchor="middle" font-size="8" fill="#999">1k</text>
<line x1="922.7" y1="60" x2="922.7" y2="198" stroke="#f4f4f4"/>
<text x="922.7" y="209" text-anchor="middle" font-size="8" fill="#999">2k</text>
<line x1="946.0" y1="60" x2="946.0" y2="198" stroke="#f4f4f4"/>
<text x="946.0" y="209" text-anchor="middle" font-size="8" fill="#999">4k</text>
<rect x="46" y="232" width="210" height="138" fill="none" stroke="#e2e2e2"/>
<line x1="46" y1="302.8589126598184" x2="256" y2="302.8589126598184" stroke="#d33" stroke-dasharray="4 3"/>
<text x="42" y="373.0" text-anchor="end" font-size="9" fill="#999">0.5×</text>
<text x="42" y="305.8589126598184" text-anchor="end" font-size="9" fill="#999">1.0×</text>
<polygon points="46.0,316.6 92.7,281.0 139.3,283.4 162.7,287.8 186.0,291.7 209.3,295.9 232.7,298.0 256.0,296.5 256.0,297.6 232.7,299.2 209.3,296.5 186.0,292.3 162.7,291.1 139.3,288.2 92.7,307.6 46.0,323.8" fill="#d62728" opacity="0.11"/>
<polyline points="46.0,321.3 92.7,294.0 139.3,287.5 162.7,289.3 186.0,292.1 209.3,296.3 232.7,298.7 256.0,296.8" fill="none" stroke="#d62728" stroke-width="1.6"/>
<circle cx="46.0" cy="321.3" r="2" fill="#d62728"/>
<circle cx="92.7" cy="294.0" r="2" fill="#d62728"/>
<circle cx="139.3" cy="287.5" r="2" fill="#d62728"/>
<circle cx="162.7" cy="289.3" r="2" fill="#d62728"/>
<circle cx="186.0" cy="292.1" r="2" fill="#d62728"/>
<circle cx="209.3" cy="296.3" r="2" fill="#d62728"/>
<circle cx="232.7" cy="298.7" r="2" fill="#d62728"/>
<circle cx="256.0" cy="296.8" r="2" fill="#d62728"/>
<polygon points="46.0,258.8 92.7,277.6 139.3,278.3 162.7,280.3 186.0,292.2 209.3,292.3 232.7,293.3 256.0,293.3 256.0,293.6 232.7,293.8 209.3,293.5 186.0,293.6 162.7,282.7 139.3,279.3 92.7,283.3 46.0,264.8" fill="#2ca02c" opacity="0.11"/>
<polyline points="46.0,261.4 92.7,279.2 139.3,278.9 162.7,281.5 186.0,292.8 209.3,293.2 232.7,293.6 256.0,293.4" fill="none" stroke="#2ca02c" stroke-width="1.6"/>
<circle cx="46.0" cy="261.4" r="2" fill="#2ca02c"/>
<circle cx="92.7" cy="279.2" r="2" fill="#2ca02c"/>
<circle cx="139.3" cy="278.9" r="2" fill="#2ca02c"/>
<circle cx="162.7" cy="281.5" r="2" fill="#2ca02c"/>
<circle cx="186.0" cy="292.8" r="2" fill="#2ca02c"/>
<circle cx="209.3" cy="293.2" r="2" fill="#2ca02c"/>
<circle cx="232.7" cy="293.6" r="2" fill="#2ca02c"/>
<circle cx="256.0" cy="293.4" r="2" fill="#2ca02c"/>
<polygon points="46.0,239.5 92.7,289.5 139.3,283.7 162.7,290.6 186.0,301.9 209.3,305.7 232.7,307.6 256.0,307.0 256.0,309.6 232.7,308.9 209.3,307.2 186.0,305.8 162.7,292.8 139.3,289.1 92.7,299.9 46.0,277.3" fill="#1f77b4" opacity="0.11"/>
<polyline points="46.0,275.7 92.7,296.6 139.3,287.2 162.7,291.7 186.0,302.9 209.3,306.2 232.7,308.4 256.0,308.4" fill="none" stroke="#1f77b4" stroke-width="1.6"/>
<circle cx="46.0" cy="275.7" r="2" fill="#1f77b4"/>
<circle cx="92.7" cy="296.6" r="2" fill="#1f77b4"/>
<circle cx="139.3" cy="287.2" r="2" fill="#1f77b4"/>
<circle cx="162.7" cy="291.7" r="2" fill="#1f77b4"/>
<circle cx="186.0" cy="302.9" r="2" fill="#1f77b4"/>
<circle cx="209.3" cy="306.2" r="2" fill="#1f77b4"/>
<circle cx="232.7" cy="308.4" r="2" fill="#1f77b4"/>
<circle cx="256.0" cy="308.4" r="2" fill="#1f77b4"/>
<text x="151.0" y="227" text-anchor="middle" font-size="12" font-weight="bold">trmm</text>
<line x1="46.0" y1="232" x2="46.0" y2="370" stroke="#f4f4f4"/>
<text x="46.0" y="381" text-anchor="middle" font-size="8" fill="#999">8</text>
<line x1="92.7" y1="232" x2="92.7" y2="370" stroke="#f4f4f4"/>
<text x="92.7" y="381" text-anchor="middle" font-size="8" fill="#999">32</text>
<line x1="139.3" y1="232" x2="139.3" y2="370" stroke="#f4f4f4"/>
<text x="139.3" y="381" text-anchor="middle" font-size="8" fill="#999">128</text>
<line x1="162.7" y1="232" x2="162.7" y2="370" stroke="#f4f4f4"/>
<text x="162.7" y="381" text-anchor="middle" font-size="8" fill="#999">256</text>
<line x1="186.0" y1="232" x2="186.0" y2="370" stroke="#f4f4f4"/>
<text x="186.0" y="381" text-anchor="middle" font-size="8" fill="#999">512</text>
<line x1="209.3" y1="232" x2="209.3" y2="370" stroke="#f4f4f4"/>
<text x="209.3" y="381" text-anchor="middle" font-size="8" fill="#999">1k</text>
<line x1="232.7" y1="232" x2="232.7" y2="370" stroke="#f4f4f4"/>
<text x="232.7" y="381" text-anchor="middle" font-size="8" fill="#999">2k</text>
<line x1="256.0" y1="232" x2="256.0" y2="370" stroke="#f4f4f4"/>
<text x="256.0" y="381" text-anchor="middle" font-size="8" fill="#999">4k</text>
<rect x="276" y="232" width="210" height="138" fill="none" stroke="#e2e2e2"/>
<line x1="276" y1="315.9349589078293" x2="486" y2="315.9349589078293" stroke="#d33" stroke-dasharray="4 3"/>
<text x="272" y="373.0" text-anchor="end" font-size="9" fill="#999">0.5×</text>
<text x="272" y="318.9349589078293" text-anchor="end" font-size="9" fill="#999">1.0×</text>
<text x="272" y="235.08545074378608" text-anchor="end" font-size="9" fill="#999">2.93×</text>
<polygon points="276.0,310.8 322.7,269.8 369.3,295.2 392.7,309.2 416.0,305.9 439.3,309.2 462.7,307.5 486.0,304.5 486.0,314.2 462.7,309.2 439.3,310.1 416.0,308.6 392.7,310.4 369.3,298.1 322.7,291.7 276.0,312.0" fill="#d62728" opacity="0.11"/>
<polyline points="276.0,311.4 322.7,277.3 369.3,297.5 392.7,310.1 416.0,306.4 439.3,309.9 462.7,308.2 486.0,311.1" fill="none" stroke="#d62728" stroke-width="1.6"/>
<circle cx="276.0" cy="311.4" r="2" fill="#d62728"/>
<circle cx="322.7" cy="277.3" r="2" fill="#d62728"/>
<circle cx="369.3" cy="297.5" r="2" fill="#d62728"/>
<circle cx="392.7" cy="310.1" r="2" fill="#d62728"/>
<circle cx="416.0" cy="306.4" r="2" fill="#d62728"/>
<circle cx="439.3" cy="309.9" r="2" fill="#d62728"/>
<circle cx="462.7" cy="308.2" r="2" fill="#d62728"/>
<circle cx="486.0" cy="311.1" r="2" fill="#d62728"/>
<polygon points="276.0,270.4 322.7,246.0 369.3,248.1 392.7,255.4 416.0,278.0 439.3,289.2 462.7,295.9 486.0,295.9 486.0,302.4 462.7,296.3 439.3,289.6 416.0,278.5 392.7,256.5 369.3,250.0 322.7,248.9 276.0,280.6" fill="#2ca02c" opacity="0.11"/>
<polyline points="276.0,275.7 322.7,246.9 369.3,248.7 392.7,255.8 416.0,278.4 439.3,289.5 462.7,296.1 486.0,295.9" fill="none" stroke="#2ca02c" stroke-width="1.6"/>
<circle cx="276.0" cy="275.7" r="2" fill="#2ca02c"/>
<circle cx="322.7" cy="246.9" r="2" fill="#2ca02c"/>
<circle cx="369.3" cy="248.7" r="2" fill="#2ca02c"/>
<circle cx="392.7" cy="255.8" r="2" fill="#2ca02c"/>
<circle cx="416.0" cy="278.4" r="2" fill="#2ca02c"/>
<circle cx="439.3" cy="289.5" r="2" fill="#2ca02c"/>
<circle cx="462.7" cy="296.1" r="2" fill="#2ca02c"/>
<circle cx="486.0" cy="295.9" r="2" fill="#2ca02c"/>
<polygon points="276.0,284.3 322.7,246.3 369.3,238.0 392.7,242.3 416.0,273.7 439.3,292.7 462.7,305.6 486.0,305.3 486.0,309.4 462.7,315.3 439.3,304.7 416.0,277.2 392.7,248.2 369.3,242.8 322.7,296.0 276.0,286.0" fill="#1f77b4" opacity="0.11"/>
<polyline points="276.0,284.8 322.7,270.9 369.3,240.0 392.7,244.5 416.0,275.7 439.3,293.8 462.7,306.2 486.0,307.0" fill="none" stroke="#1f77b4" stroke-width="1.6"/>
<circle cx="276.0" cy="284.8" r="2" fill="#1f77b4"/>
<circle cx="322.7" cy="270.9" r="2" fill="#1f77b4"/>
<circle cx="369.3" cy="240.0" r="2" fill="#1f77b4"/>
<circle cx="392.7" cy="244.5" r="2" fill="#1f77b4"/>
<circle cx="416.0" cy="275.7" r="2" fill="#1f77b4"/>
<circle cx="439.3" cy="293.8" r="2" fill="#1f77b4"/>
<circle cx="462.7" cy="306.2" r="2" fill="#1f77b4"/>
<circle cx="486.0" cy="307.0" r="2" fill="#1f77b4"/>
<text x="381.0" y="227" text-anchor="middle" font-size="12" font-weight="bold">trsm</text>
<line x1="276.0" y1="232" x2="276.0" y2="370" stroke="#f4f4f4"/>
<text x="276.0" y="381" text-anchor="middle" font-size="8" fill="#999">8</text>
<line x1="322.7" y1="232" x2="322.7" y2="370" stroke="#f4f4f4"/>
<text x="322.7" y="381" text-anchor="middle" font-size="8" fill="#999">32</text>
<line x1="369.3" y1="232" x2="369.3" y2="370" stroke="#f4f4f4"/>
<text x="369.3" y="381" text-anchor="middle" font-size="8" fill="#999">128</text>
<line x1="392.7" y1="232" x2="392.7" y2="370" stroke="#f4f4f4"/>
<text x="392.7" y="381" text-anchor="middle" font-size="8" fill="#999">256</text>
<line x1="416.0" y1="232" x2="416.0" y2="370" stroke="#f4f4f4"/>
<text x="416.0" y="381" text-anchor="middle" font-size="8" fill="#999">512</text>
<line x1="439.3" y1="232" x2="439.3" y2="370" stroke="#f4f4f4"/>
<text x="439.3" y="381" text-anchor="middle" font-size="8" fill="#999">1k</text>
<line x1="462.7" y1="232" x2="462.7" y2="370" stroke="#f4f4f4"/>
<text x="462.7" y="381" text-anchor="middle" font-size="8" fill="#999">2k</text>
<line x1="486.0" y1="232" x2="486.0" y2="370" stroke="#f4f4f4"/>
<text x="486.0" y="381" text-anchor="middle" font-size="8" fill="#999">4k</text>
<rect x="506" y="232" width="210" height="138" fill="none" stroke="#e2e2e2"/>
<line x1="506" y1="315.7975659342889" x2="716" y2="315.7975659342889" stroke="#d33" stroke-dasharray="4 3"/>
<text x="502" y="373.0" text-anchor="end" font-size="9" fill="#999">0.5×</text>
<text x="502" y="318.7975659342889" text-anchor="end" font-size="9" fill="#999">1.0×</text>
<text x="502" y="235.00231734018433" text-anchor="end" font-size="9" fill="#999">2.92×</text>
<polygon points="506.0,281.5 552.7,286.7 599.3,310.1 622.7,309.7 646.0,320.3 669.3,317.1 692.7,314.5 716.0,313.0 716.0,313.5 692.7,315.3 669.3,317.5 646.0,321.1 622.7,310.9 599.3,311.5 552.7,296.3 506.0,284.7" fill="#d62728" opacity="0.11"/>
<polyline points="506.0,282.8 552.7,290.8 599.3,310.8 622.7,310.4 646.0,320.6 669.3,317.3 692.7,314.9 716.0,313.3" fill="none" stroke="#d62728" stroke-width="1.6"/>
<circle cx="506.0" cy="282.8" r="2" fill="#d62728"/>
<circle cx="552.7" cy="290.8" r="2" fill="#d62728"/>
<circle cx="599.3" cy="310.8" r="2" fill="#d62728"/>
<circle cx="622.7" cy="310.4" r="2" fill="#d62728"/>
<circle cx="646.0" cy="320.6" r="2" fill="#d62728"/>
<circle cx="669.3" cy="317.3" r="2" fill="#d62728"/>
<circle cx="692.7" cy="314.9" r="2" fill="#d62728"/>
<circle cx="716.0" cy="313.3" r="2" fill="#d62728"/>
<polygon points="506.0,238.0 552.7,253.1 599.3,262.2 622.7,267.5 646.0,290.2 669.3,297.5 692.7,302.2 716.0,304.9 716.0,305.1 692.7,302.5 669.3,297.8 646.0,290.9 622.7,268.4 599.3,264.1 552.7,257.9 506.0,248.1" fill="#2ca02c" opacity="0.11"/>
<polyline points="506.0,241.3 552.7,255.9 599.3,262.6 622.7,267.9 646.0,290.7 669.3,297.7 692.7,302.4 716.0,305.0" fill="none" stroke="#2ca02c" stroke-width="1.6"/>
<circle cx="506.0" cy="241.3" r="2" fill="#2ca02c"/>
<circle cx="552.7" cy="255.9" r="2" fill="#2ca02c"/>
<circle cx="599.3" cy="262.6" r="2" fill="#2ca02c"/>
<circle cx="622.7" cy="267.9" r="2" fill="#2ca02c"/>
<circle cx="646.0" cy="290.7" r="2" fill="#2ca02c"/>
<circle cx="669.3" cy="297.7" r="2" fill="#2ca02c"/>
<circle cx="692.7" cy="302.4" r="2" fill="#2ca02c"/>
<circle cx="716.0" cy="305.0" r="2" fill="#2ca02c"/>
<polygon points="506.0,248.7 552.7,247.2 599.3,257.8 622.7,261.7 646.0,288.3 669.3,301.7 692.7,309.1 716.0,313.4 716.0,314.1 692.7,309.5 669.3,302.6 646.0,290.1 622.7,264.0 599.3,260.5 552.7,257.9 506.0,252.7" fill="#1f77b4" opacity="0.11"/>
<polyline points="506.0,250.1 552.7,251.1 599.3,258.5 622.7,263.0 646.0,288.7 669.3,302.0 692.7,309.3 716.0,313.8" fill="none" stroke="#1f77b4" stroke-width="1.6"/>
<circle cx="506.0" cy="250.1" r="2" fill="#1f77b4"/>
<circle cx="552.7" cy="251.1" r="2" fill="#1f77b4"/>
<circle cx="599.3" cy="258.5" r="2" fill="#1f77b4"/>
<circle cx="622.7" cy="263.0" r="2" fill="#1f77b4"/>
<circle cx="646.0" cy="288.7" r="2" fill="#1f77b4"/>
<circle cx="669.3" cy="302.0" r="2" fill="#1f77b4"/>
<circle cx="692.7" cy="309.3" r="2" fill="#1f77b4"/>
<circle cx="716.0" cy="313.8" r="2" fill="#1f77b4"/>
<text x="611.0" y="227" text-anchor="middle" font-size="12" font-weight="bold">trsmR</text>
<line x1="506.0" y1="232" x2="506.0" y2="370" stroke="#f4f4f4"/>
<text x="506.0" y="381" text-anchor="middle" font-size="8" fill="#999">8</text>
<line x1="552.7" y1="232" x2="552.7" y2="370" stroke="#f4f4f4"/>
<text x="552.7" y="381" text-anchor="middle" font-size="8" fill="#999">32</text>
<line x1="599.3" y1="232" x2="599.3" y2="370" stroke="#f4f4f4"/>
<text x="599.3" y="381" text-anchor="middle" font-size="8" fill="#999">128</text>
<line x1="622.7" y1="232" x2="622.7" y2="370" stroke="#f4f4f4"/>
<text x="622.7" y="381" text-anchor="middle" font-size="8" fill="#999">256</text>
<line x1="646.0" y1="232" x2="646.0" y2="370" stroke="#f4f4f4"/>
<text x="646.0" y="381" text-anchor="middle" font-size="8" fill="#999">512</text>
<line x1="669.3" y1="232" x2="669.3" y2="370" stroke="#f4f4f4"/>
<text x="669.3" y="381" text-anchor="middle" font-size="8" fill="#999">1k</text>
<line x1="692.7" y1="232" x2="692.7" y2="370" stroke="#f4f4f4"/>
<text x="692.7" y="381" text-anchor="middle" font-size="8" fill="#999">2k</text>
<line x1="716.0" y1="232" x2="716.0" y2="370" stroke="#f4f4f4"/>
<text x="716.0" y="381" text-anchor="middle" font-size="8" fill="#999">4k</text>
</svg>
