<svg xmlns="http://www.w3.org/2000/svg" width="962" height="420" font-family="sans-serif">
<rect width="962" height="420" fill="white"/>
<text x="481.0" y="26" text-anchor="middle" font-size="17" font-weight="bold">BLAS-1 — PureBLAS / AOCL (PB/AOCL ratio)</text>
<line x1="46" y1="42" x2="68" y2="42" stroke="#d62728" stroke-width="3"/>
<text x="73" y="46" font-size="12">Zen3 · AVX2</text>
<line x1="176" y1="42" x2="198" y2="42" stroke="#2ca02c" stroke-width="3"/>
<text x="203" y="46" font-size="12">Zen5 · AVX-512</text>
<line x1="327" y1="42" x2="349" y2="42" stroke="#1f77b4" stroke-width="3"/>
<text x="354" y="46" font-size="12">Zen4 · AVX-512</text>
<rect x="46" y="60" width="210" height="138" fill="none" stroke="#e2e2e2"/>
<line x1="46" y1="123.64069108785492" x2="256" y2="123.64069108785492" stroke="#d33" stroke-dasharray="4 3"/>
<text x="42" y="201.0" text-anchor="end" font-size="9" fill="#999">0.5×</text>
<text x="42" y="126.64069108785492" text-anchor="end" font-size="9" fill="#999">1.0×</text>
<polygon points="46.0,68.3 79.4,95.3 116.0,94.7 149.4,98.1 186.0,106.7 219.4,107.4 256.0,107.6 256.0,112.0 219.4,112.7 186.0,108.4 149.4,103.4 116.0,95.0 79.4,95.7 46.0,68.7" fill="#d62728" opacity="0.11"/>
<polyline points="46.0,68.5 79.4,95.5 116.0,94.9 149.4,100.8 186.0,107.3 219.4,109.6 256.0,108.8" fill="none" stroke="#d62728" stroke-width="1.6"/>
<circle cx="46.0" cy="68.5" r="2" fill="#d62728"/>
<circle cx="79.4" cy="95.5" r="2" fill="#d62728"/>
<circle cx="116.0" cy="94.9" r="2" fill="#d62728"/>
<circle cx="149.4" cy="100.8" r="2" fill="#d62728"/>
<circle cx="186.0" cy="107.3" r="2" fill="#d62728"/>
<circle cx="219.4" cy="109.6" r="2" fill="#d62728"/>
<circle cx="256.0" cy="108.8" r="2" fill="#d62728"/>
<polygon points="46.0,119.4 79.4,117.1 116.0,122.9 149.4,123.4 186.0,123.3 219.4,125.0 256.0,112.4 256.0,131.9 219.4,129.3 186.0,124.3 149.4,124.7 116.0,124.2 79.4,118.0 46.0,119.9" fill="#2ca02c" opacity="0.11"/>
<polyline points="46.0,119.7 79.4,117.6 116.0,123.4 149.4,124.2 186.0,123.8 219.4,127.2 256.0,123.2" fill="none" stroke="#2ca02c" stroke-width="1.6"/>
<circle cx="46.0" cy="119.7" r="2" fill="#2ca02c"/>
<circle cx="79.4" cy="117.6" r="2" fill="#2ca02c"/>
<circle cx="116.0" cy="123.4" r="2" fill="#2ca02c"/>
<circle cx="149.4" cy="124.2" r="2" fill="#2ca02c"/>
<circle cx="186.0" cy="123.8" r="2" fill="#2ca02c"/>
<circle cx="219.4" cy="127.2" r="2" fill="#2ca02c"/>
<circle cx="256.0" cy="123.2" r="2" fill="#2ca02c"/>
<polygon points="46.0,113.8 79.4,120.8 116.0,122.6 149.4,122.1 186.0,121.9 219.4,122.6 256.0,117.4 256.0,126.2 219.4,123.7 186.0,125.8 149.4,126.0 116.0,123.1 79.4,121.2 46.0,114.6" fill="#1f77b4" opacity="0.11"/>
<polyline points="46.0,114.2 79.4,121.0 116.0,122.9 149.4,122.9 186.0,123.1 219.4,123.1 256.0,123.4" fill="none" stroke="#1f77b4" stroke-width="1.6"/>
<circle cx="46.0" cy="114.2" r="2" fill="#1f77b4"/>
<circle cx="79.4" cy="121.0" r="2" fill="#1f77b4"/>
<circle cx="116.0" cy="122.9" r="2" fill="#1f77b4"/>
<circle cx="149.4" cy="122.9" r="2" fill="#1f77b4"/>
<circle cx="186.0" cy="123.1" r="2" fill="#1f77b4"/>
<circle cx="219.4" cy="123.1" r="2" fill="#1f77b4"/>
<circle cx="256.0" cy="123.4" r="2" fill="#1f77b4"/>
<text x="151.0" y="55" text-anchor="middle" font-size="12" font-weight="bold">axpy</text>
<line x1="46.0" y1="60" x2="46.0" y2="198" stroke="#f4f4f4"/>
<text x="46.0" y="209" text-anchor="middle" font-size="8" fill="#999">1000</text>
<line x1="79.4" y1="60" x2="79.4" y2="198" stroke="#f4f4f4"/>
<text x="79.4" y="209" text-anchor="middle" font-size="8" fill="#999">2k</text>
<line x1="116.0" y1="60" x2="116.0" y2="198" stroke="#f4f4f4"/>
<text x="116.0" y="209" text-anchor="middle" font-size="8" fill="#999">9k</text>
<line x1="149.4" y1="60" x2="149.4" y2="198" stroke="#f4f4f4"/>
<text x="149.4" y="209" text-anchor="middle" font-size="8" fill="#999">29k</text>
<line x1="186.0" y1="60" x2="186.0" y2="198" stroke="#f4f4f4"/>
<text x="186.0" y="209" text-anchor="middle" font-size="8" fill="#999">97k</text>
<line x1="219.4" y1="60" x2="219.4" y2="198" stroke="#f4f4f4"/>
<text x="219.4" y="209" text-anchor="middle" font-size="8" fill="#999">292k</text>
<line x1="256.0" y1="60" x2="256.0" y2="198" stroke="#f4f4f4"/>
<text x="256.0" y="209" text-anchor="middle" font-size="8" fill="#999">976k</text>
<rect x="276" y="60" width="210" height="138" fill="none" stroke="#e2e2e2"/>
<line x1="276" y1="115.76276119065531" x2="486" y2="115.76276119065531" stroke="#d33" stroke-dasharray="4 3"/>
<text x="272" y="201.0" text-anchor="end" font-size="9" fill="#999">0.5×</text>
<text x="272" y="118.76276119065531" text-anchor="end" font-size="9" fill="#999">1.0×</text>
<text x="272" y="63.0" text-anchor="end" font-size="9" fill="#999">1.6×</text>
<polygon points="276.0,107.7 309.4,108.2 346.0,113.3 379.4,112.9 416.0,115.3 449.4,114.4 486.0,110.8 486.0,117.9 449.4,116.5 416.0,115.8 379.4,114.3 346.0,113.6 309.4,108.8 276.0,108.8" fill="#d62728" opacity="0.11"/>
<polyline points="276.0,108.3 309.4,108.5 346.0,113.5 379.4,113.5 416.0,115.5 449.4,115.5 486.0,115.6" fill="none" stroke="#d62728" stroke-width="1.6"/>
<circle cx="276.0" cy="108.3" r="2" fill="#d62728"/>
<circle cx="309.4" cy="108.5" r="2" fill="#d62728"/>
<circle cx="346.0" cy="113.5" r="2" fill="#d62728"/>
<circle cx="379.4" cy="113.5" r="2" fill="#d62728"/>
<circle cx="416.0" cy="115.5" r="2" fill="#d62728"/>
<circle cx="449.4" cy="115.5" r="2" fill="#d62728"/>
<circle cx="486.0" cy="115.6" r="2" fill="#d62728"/>
<polygon points="276.0,112.2 309.4,111.0 346.0,109.3 379.4,111.5 416.0,113.5 449.4,112.7 486.0,104.2 486.0,128.5 449.4,120.1 416.0,115.0 379.4,114.1 346.0,111.2 309.4,113.2 276.0,112.8" fill="#2ca02c" opacity="0.11"/>
<polyline points="276.0,112.7 309.4,111.9 346.0,110.1 379.4,113.0 416.0,114.6 449.4,117.3 486.0,115.2" fill="none" stroke="#2ca02c" stroke-width="1.6"/>
<circle cx="276.0" cy="112.7" r="2" fill="#2ca02c"/>
<circle cx="309.4" cy="111.9" r="2" fill="#2ca02c"/>
<circle cx="346.0" cy="110.1" r="2" fill="#2ca02c"/>
<circle cx="379.4" cy="113.0" r="2" fill="#2ca02c"/>
<circle cx="416.0" cy="114.6" r="2" fill="#2ca02c"/>
<circle cx="449.4" cy="117.3" r="2" fill="#2ca02c"/>
<circle cx="486.0" cy="115.2" r="2" fill="#2ca02c"/>
<polygon points="276.0,106.5 309.4,111.9 346.0,113.2 379.4,114.1 416.0,115.3 449.4,115.3 486.0,113.7 486.0,117.5 449.4,116.3 416.0,115.9 379.4,115.5 346.0,113.5 309.4,112.4 276.0,109.9" fill="#1f77b4" opacity="0.11"/>
<polyline points="276.0,109.5 309.4,112.2 346.0,113.4 379.4,114.9 416.0,115.5 449.4,115.9 486.0,116.1" fill="none" stroke="#1f77b4" stroke-width="1.6"/>
<circle cx="276.0" cy="109.5" r="2" fill="#1f77b4"/>
<circle cx="309.4" cy="112.2" r="2" fill="#1f77b4"/>
<circle cx="346.0" cy="113.4" r="2" fill="#1f77b4"/>
<circle cx="379.4" cy="114.9" r="2" fill="#1f77b4"/>
<circle cx="416.0" cy="115.5" r="2" fill="#1f77b4"/>
<circle cx="449.4" cy="115.9" r="2" fill="#1f77b4"/>
<circle cx="486.0" cy="116.1" r="2" fill="#1f77b4"/>
<text x="381.0" y="55" text-anchor="middle" font-size="12" font-weight="bold">dot</text>
<line x1="276.0" y1="60" x2="276.0" y2="198" stroke="#f4f4f4"/>
<text x="276.0" y="209" text-anchor="middle" font-size="8" fill="#999">1000</text>
<line x1="309.4" y1="60" x2="309.4" y2="198" stroke="#f4f4f4"/>
<text x="309.4" y="209" text-anchor="middle" font-size="8" fill="#999">2k</text>
<line x1="346.0" y1="60" x2="346.0" y2="198" stroke="#f4f4f4"/>
<text x="346.0" y="209" text-anchor="middle" font-size="8" fill="#999">9k</text>
<line x1="379.4" y1="60" x2="379.4" y2="198" stroke="#f4f4f4"/>
<text x="379.4" y="209" text-anchor="middle" font-size="8" fill="#999">29k</text>
<line x1="416.0" y1="60" x2="416.0" y2="198" stroke="#f4f4f4"/>
<text x="416.0" y="209" text-anchor="middle" font-size="8" fill="#999">97k</text>
<line x1="449.4" y1="60" x2="449.4" y2="198" stroke="#f4f4f4"/>
<text x="449.4" y="209" text-anchor="middle" font-size="8" fill="#999">292k</text>
<line x1="486.0" y1="60" x2="486.0" y2="198" stroke="#f4f4f4"/>
<text x="486.0" y="209" text-anchor="middle" font-size="8" fill="#999">976k</text>
<rect x="506" y="60" width="210" height="138" fill="none" stroke="#e2e2e2"/>
<line x1="506" y1="157.64316451979857" x2="716" y2="157.64316451979857" stroke="#d33" stroke-dasharray="4 3"/>
<text x="502" y="201.0" text-anchor="end" font-size="9" fill="#999">0.5×</text>
<text x="502" y="160.64316451979857" text-anchor="end" font-size="9" fill="#999">1.0×</text>
<polygon points="506.0,90.2 539.4,99.0 576.0,102.3 609.4,103.3 646.0,117.1 679.4,118.9 716.0,124.5 716.0,130.7 679.4,135.0 646.0,120.0 609.4,103.8 576.0,102.7 539.4,99.4 506.0,91.1" fill="#d62728" opacity="0.11"/>
<polyline points="506.0,90.9 539.4,99.1 576.0,102.6 609.4,103.5 646.0,117.9 679.4,122.2 716.0,127.5" fill="none" stroke="#d62728" stroke-width="1.6"/>
<circle cx="506.0" cy="90.9" r="2" fill="#d62728"/>
<circle cx="539.4" cy="99.1" r="2" fill="#d62728"/>
<circle cx="576.0" cy="102.6" r="2" fill="#d62728"/>
<circle cx="609.4" cy="103.5" r="2" fill="#d62728"/>
<circle cx="646.0" cy="117.9" r="2" fill="#d62728"/>
<circle cx="679.4" cy="122.2" r="2" fill="#d62728"/>
<circle cx="716.0" cy="127.5" r="2" fill="#d62728"/>
<polygon points="506.0,64.5 539.4,68.2 576.0,88.7 609.4,88.8 646.0,79.2 679.4,119.1 716.0,113.9 716.0,123.5 679.4,121.1 646.0,94.8 609.4,89.4 576.0,92.0 539.4,69.9 506.0,67.0" fill="#2ca02c" opacity="0.11"/>
<polyline points="506.0,65.8 539.4,68.5 576.0,90.8 609.4,89.0 646.0,86.2 679.4,119.5 716.0,116.7" fill="none" stroke="#2ca02c" stroke-width="1.6"/>
<circle cx="506.0" cy="65.8" r="2" fill="#2ca02c"/>
<circle cx="539.4" cy="68.5" r="2" fill="#2ca02c"/>
<circle cx="576.0" cy="90.8" r="2" fill="#2ca02c"/>
<circle cx="609.4" cy="89.0" r="2" fill="#2ca02c"/>
<circle cx="646.0" cy="86.2" r="2" fill="#2ca02c"/>
<circle cx="679.4" cy="119.5" r="2" fill="#2ca02c"/>
<circle cx="716.0" cy="116.7" r="2" fill="#2ca02c"/>
<polygon points="506.0,65.3 539.4,71.8 576.0,103.4 609.4,104.9 646.0,108.5 679.4,115.0 716.0,116.7 716.0,118.1 679.4,115.4 646.0,111.0 609.4,105.3 576.0,103.7 539.4,73.2 506.0,68.4" fill="#1f77b4" opacity="0.11"/>
<polyline points="506.0,66.8 539.4,72.6 576.0,103.7 609.4,105.3 646.0,109.7 679.4,115.1 716.0,117.1" fill="none" stroke="#1f77b4" stroke-width="1.6"/>
<circle cx="506.0" cy="66.8" r="2" fill="#1f77b4"/>
<circle cx="539.4" cy="72.6" r="2" fill="#1f77b4"/>
<circle cx="576.0" cy="103.7" r="2" fill="#1f77b4"/>
<circle cx="609.4" cy="105.3" r="2" fill="#1f77b4"/>
<circle cx="646.0" cy="109.7" r="2" fill="#1f77b4"/>
<circle cx="679.4" cy="115.1" r="2" fill="#1f77b4"/>
<circle cx="716.0" cy="117.1" r="2" fill="#1f77b4"/>
<text x="611.0" y="55" text-anchor="middle" font-size="12" font-weight="bold">nrm2</text>
<line x1="506.0" y1="60" x2="506.0" y2="198" stroke="#f4f4f4"/>
<text x="506.0" y="209" text-anchor="middle" font-size="8" fill="#999">1000</text>
<line x1="539.4" y1="60" x2="539.4" y2="198" stroke="#f4f4f4"/>
<text x="539.4" y="209" text-anchor="middle" font-size="8" fill="#999">2k</text>
<line x1="576.0" y1="60" x2="576.0" y2="198" stroke="#f4f4f4"/>
<text x="576.0" y="209" text-anchor="middle" font-size="8" fill="#999">9k</text>
<line x1="609.4" y1="60" x2="609.4" y2="198" stroke="#f4f4f4"/>
<text x="609.4" y="209" text-anchor="middle" font-size="8" fill="#999">29k</text>
<line x1="646.0" y1="60" x2="646.0" y2="198" stroke="#f4f4f4"/>
<text x="646.0" y="209" text-anchor="middle" font-size="8" fill="#999">97k</text>
<line x1="679.4" y1="60" x2="679.4" y2="198" stroke="#f4f4f4"/>
<text x="679.4" y="209" text-anchor="middle" font-size="8" fill="#999">292k</text>
<line x1="716.0" y1="60" x2="716.0" y2="198" stroke="#f4f4f4"/>
<text x="716.0" y="209" text-anchor="middle" font-size="8" fill="#999">976k</text>
<rect x="736" y="60" width="210" height="138" fill="none" stroke="#e2e2e2"/>
<line x1="736" y1="173.56024302309305" x2="946" y2="173.56024302309305" stroke="#d33" stroke-dasharray="4 3"/>
<text x="732" y="201.0" text-anchor="end" font-size="9" fill="#999">0.5×</text>
<text x="732" y="176.56024302309305" text-anchor="end" font-size="9" fill="#999">1.0×</text>
<polygon points="736.0,78.2 769.4,77.1 806.0,86.2 839.4,86.0 876.0,93.8 909.4,94.0 946.0,94.6 946.0,97.6 909.4,97.0 876.0,95.5 839.4,86.5 806.0,86.5 769.4,77.7 736.0,78.7" fill="#d62728" opacity="0.11"/>
<polyline points="736.0,78.4 769.4,77.4 806.0,86.5 839.4,86.3 876.0,94.4 909.4,94.4 946.0,94.9" fill="none" stroke="#d62728" stroke-width="1.6"/>
<circle cx="736.0" cy="78.4" r="2" fill="#d62728"/>
<circle cx="769.4" cy="77.4" r="2" fill="#d62728"/>
<circle cx="806.0" cy="86.5" r="2" fill="#d62728"/>
<circle cx="839.4" cy="86.3" r="2" fill="#d62728"/>
<circle cx="876.0" cy="94.4" r="2" fill="#d62728"/>
<circle cx="909.4" cy="94.4" r="2" fill="#d62728"/>
<circle cx="946.0" cy="94.9" r="2" fill="#d62728"/>
<polygon points="736.0,64.3 769.4,62.7 806.0,74.3 839.4,73.2 876.0,65.6 909.4,90.9 946.0,89.0 946.0,93.1 909.4,92.1 876.0,79.4 839.4,73.5 806.0,74.6 769.4,62.9 736.0,65.1" fill="#2ca02c" opacity="0.11"/>
<polyline points="736.0,64.5 769.4,62.8 806.0,74.5 839.4,73.3 876.0,72.9 909.4,91.6 946.0,90.4" fill="none" stroke="#2ca02c" stroke-width="1.6"/>
<circle cx="736.0" cy="64.5" r="2" fill="#2ca02c"/>
<circle cx="769.4" cy="62.8" r="2" fill="#2ca02c"/>
<circle cx="806.0" cy="74.5" r="2" fill="#2ca02c"/>
<circle cx="839.4" cy="73.3" r="2" fill="#2ca02c"/>
<circle cx="876.0" cy="72.9" r="2" fill="#2ca02c"/>
<circle cx="909.4" cy="91.6" r="2" fill="#2ca02c"/>
<circle cx="946.0" cy="90.4" r="2" fill="#2ca02c"/>
<polygon points="736.0,69.7 769.4,68.7 806.0,86.0 839.4,85.9 876.0,88.1 909.4,91.8 946.0,93.0 946.0,94.1 909.4,92.3 876.0,90.2 839.4,86.3 806.0,86.3 769.4,69.4 736.0,70.5" fill="#1f77b4" opacity="0.11"/>
<polyline points="736.0,69.9 769.4,69.0 806.0,86.2 839.4,86.2 876.0,89.5 909.4,92.0 946.0,93.3" fill="none" stroke="#1f77b4" stroke-width="1.6"/>
<circle cx="736.0" cy="69.9" r="2" fill="#1f77b4"/>
<circle cx="769.4" cy="69.0" r="2" fill="#1f77b4"/>
<circle cx="806.0" cy="86.2" r="2" fill="#1f77b4"/>
<circle cx="839.4" cy="86.2" r="2" fill="#1f77b4"/>
<circle cx="876.0" cy="89.5" r="2" fill="#1f77b4"/>
<circle cx="909.4" cy="92.0" r="2" fill="#1f77b4"/>
<circle cx="946.0" cy="93.3" r="2" fill="#1f77b4"/>
<text x="841.0" y="55" text-anchor="middle" font-size="12" font-weight="bold">asum</text>
<line x1="736.0" y1="60" x2="736.0" y2="198" stroke="#f4f4f4"/>
<text x="736.0" y="209" text-anchor="middle" font-size="8" fill="#999">1000</text>
<line x1="769.4" y1="60" x2="769.4" y2="198" stroke="#f4f4f4"/>
<text x="769.4" y="209" text-anchor="middle" font-size="8" fill="#999">2k</text>
<line x1="806.0" y1="60" x2="806.0" y2="198" stroke="#f4f4f4"/>
<text x="806.0" y="209" text-anchor="middle" font-size="8" fill="#999">9k</text>
<line x1="839.4" y1="60" x2="839.4" y2="198" stroke="#f4f4f4"/>
<text x="839.4" y="209" text-anchor="middle" font-size="8" fill="#999">29k</text>
<line x1="876.0" y1="60" x2="876.0" y2="198" stroke="#f4f4f4"/>
<text x="876.0" y="209" text-anchor="middle" font-size="8" fill="#999">97k</text>
<line x1="909.4" y1="60" x2="909.4" y2="198" stroke="#f4f4f4"/>
<text x="909.4" y="209" text-anchor="middle" font-size="8" fill="#999">292k</text>
<line x1="946.0" y1="60" x2="946.0" y2="198" stroke="#f4f4f4"/>
<text x="946.0" y="209" text-anchor="middle" font-size="8" fill="#999">976k</text>
<rect x="46" y="232" width="210" height="138" fill="none" stroke="#e2e2e2"/>
<line x1="46" y1="304.67276345714174" x2="256" y2="304.67276345714174" stroke="#d33" stroke-dasharray="4 3"/>
<text x="42" y="373.0" text-anchor="end" font-size="9" fill="#999">0.5×</text>
<text x="42" y="307.67276345714174" text-anchor="end" font-size="9" fill="#999">1.0×</text>
<text x="42" y="235.09215810620003" text-anchor="end" font-size="9" fill="#999">2.16×</text>
<polygon points="46.0,239.7 79.4,239.3 116.0,254.8 149.4,254.9 186.0,269.2 219.4,274.6 256.0,276.5 256.0,279.6 219.4,283.3 186.0,271.3 149.4,256.0 116.0,255.8 79.4,240.2 46.0,240.4" fill="#d62728" opacity="0.11"/>
<polyline points="46.0,240.2 79.4,239.9 116.0,255.5 149.4,255.7 186.0,270.6 219.4,275.2 256.0,277.3" fill="none" stroke="#d62728" stroke-width="1.6"/>
<circle cx="46.0" cy="240.2" r="2" fill="#d62728"/>
<circle cx="79.4" cy="239.9" r="2" fill="#d62728"/>
<circle cx="116.0" cy="255.5" r="2" fill="#d62728"/>
<circle cx="149.4" cy="255.7" r="2" fill="#d62728"/>
<circle cx="186.0" cy="270.6" r="2" fill="#d62728"/>
<circle cx="219.4" cy="275.2" r="2" fill="#d62728"/>
<circle cx="256.0" cy="277.3" r="2" fill="#d62728"/>
<polygon points="46.0,301.5 79.4,302.2 116.0,301.9 149.4,304.0 186.0,296.8 219.4,301.7 256.0,301.3 256.0,310.3 219.4,303.5 186.0,299.8 149.4,304.4 116.0,302.6 79.4,302.9 46.0,303.8" fill="#2ca02c" opacity="0.11"/>
<polyline points="46.0,302.4 79.4,302.6 116.0,302.4 149.4,304.2 186.0,298.4 219.4,302.8 256.0,304.8" fill="none" stroke="#2ca02c" stroke-width="1.6"/>
<circle cx="46.0" cy="302.4" r="2" fill="#2ca02c"/>
<circle cx="79.4" cy="302.6" r="2" fill="#2ca02c"/>
<circle cx="116.0" cy="302.4" r="2" fill="#2ca02c"/>
<circle cx="149.4" cy="304.2" r="2" fill="#2ca02c"/>
<circle cx="186.0" cy="298.4" r="2" fill="#2ca02c"/>
<circle cx="219.4" cy="302.8" r="2" fill="#2ca02c"/>
<circle cx="256.0" cy="304.8" r="2" fill="#2ca02c"/>
<polygon points="46.0,301.9 79.4,303.4 116.0,303.7 149.4,282.1 186.0,294.9 219.4,302.2 256.0,312.7 256.0,314.9 219.4,308.2 186.0,297.4 149.4,282.8 116.0,303.9 79.4,303.9 46.0,302.6" fill="#1f77b4" opacity="0.11"/>
<polyline points="46.0,302.5 79.4,303.8 116.0,303.8 149.4,282.6 186.0,295.6 219.4,305.9 256.0,314.0" fill="none" stroke="#1f77b4" stroke-width="1.6"/>
<circle cx="46.0" cy="302.5" r="2" fill="#1f77b4"/>
<circle cx="79.4" cy="303.8" r="2" fill="#1f77b4"/>
<circle cx="116.0" cy="303.8" r="2" fill="#1f77b4"/>
<circle cx="149.4" cy="282.6" r="2" fill="#1f77b4"/>
<circle cx="186.0" cy="295.6" r="2" fill="#1f77b4"/>
<circle cx="219.4" cy="305.9" r="2" fill="#1f77b4"/>
<circle cx="256.0" cy="314.0" r="2" fill="#1f77b4"/>
<text x="151.0" y="227" text-anchor="middle" font-size="12" font-weight="bold">scal</text>
<line x1="46.0" y1="232" x2="46.0" y2="370" stroke="#f4f4f4"/>
<text x="46.0" y="381" text-anchor="middle" font-size="8" fill="#999">1000</text>
<line x1="79.4" y1="232" x2="79.4" y2="370" stroke="#f4f4f4"/>
<text x="79.4" y="381" text-anchor="middle" font-size="8" fill="#999">2k</text>
<line x1="116.0" y1="232" x2="116.0" y2="370" stroke="#f4f4f4"/>
<text x="116.0" y="381" text-anchor="middle" font-size="8" fill="#999">9k</text>
<line x1="149.4" y1="232" x2="149.4" y2="370" stroke="#f4f4f4"/>
<text x="149.4" y="381" text-anchor="middle" font-size="8" fill="#999">29k</text>
<line x1="186.0" y1="232" x2="186.0" y2="370" stroke="#f4f4f4"/>
<text x="186.0" y="381" text-anchor="middle" font-size="8" fill="#999">97k</text>
<line x1="219.4" y1="232" x2="219.4" y2="370" stroke="#f4f4f4"/>
<text x="219.4" y="381" text-anchor="middle" font-size="8" fill="#999">292k</text>
<line x1="256.0" y1="232" x2="256.0" y2="370" stroke="#f4f4f4"/>
<text x="256.0" y="381" text-anchor="middle" font-size="8" fill="#999">976k</text>
<rect x="276" y="232" width="210" height="138" fill="none" stroke="#e2e2e2"/>
<line x1="276" y1="287.7627611906553" x2="486" y2="287.7627611906553" stroke="#d33" stroke-dasharray="4 3"/>
<text x="272" y="373.0" text-anchor="end" font-size="9" fill="#999">0.5×</text>
<text x="272" y="290.7627611906553" text-anchor="end" font-size="9" fill="#999">1.0×</text>
<text x="272" y="235.0" text-anchor="end" font-size="9" fill="#999">1.6×</text>
<polygon points="276.0,272.9 309.4,275.3 346.0,284.2 379.4,283.5 416.0,285.3 449.4,278.8 486.0,270.4 486.0,286.5 449.4,294.1 416.0,287.4 379.4,286.3 346.0,291.4 309.4,282.8 276.0,277.9" fill="#d62728" opacity="0.11"/>
<polyline points="276.0,275.2 309.4,278.4 346.0,286.8 379.4,284.8 416.0,286.3 449.4,285.4 486.0,283.1" fill="none" stroke="#d62728" stroke-width="1.6"/>
<circle cx="276.0" cy="275.2" r="2" fill="#d62728"/>
<circle cx="309.4" cy="278.4" r="2" fill="#d62728"/>
<circle cx="346.0" cy="286.8" r="2" fill="#d62728"/>
<circle cx="379.4" cy="284.8" r="2" fill="#d62728"/>
<circle cx="416.0" cy="286.3" r="2" fill="#d62728"/>
<circle cx="449.4" cy="285.4" r="2" fill="#d62728"/>
<circle cx="486.0" cy="283.1" r="2" fill="#d62728"/>
<polygon points="276.0,299.2 309.4,286.1 346.0,277.6 379.4,274.3 416.0,274.3 449.4,286.9 486.0,281.5 486.0,299.3 449.4,288.9 416.0,285.0 379.4,276.2 346.0,280.4 309.4,294.8 276.0,310.1" fill="#2ca02c" opacity="0.11"/>
<polyline points="276.0,305.8 309.4,291.5 346.0,278.6 379.4,275.1 416.0,278.2 449.4,287.9 486.0,287.7" fill="none" stroke="#2ca02c" stroke-width="1.6"/>
<circle cx="276.0" cy="305.8" r="2" fill="#2ca02c"/>
<circle cx="309.4" cy="291.5" r="2" fill="#2ca02c"/>
<circle cx="346.0" cy="278.6" r="2" fill="#2ca02c"/>
<circle cx="379.4" cy="275.1" r="2" fill="#2ca02c"/>
<circle cx="416.0" cy="278.2" r="2" fill="#2ca02c"/>
<circle cx="449.4" cy="287.9" r="2" fill="#2ca02c"/>
<circle cx="486.0" cy="287.7" r="2" fill="#2ca02c"/>
<polygon points="276.0,301.4 309.4,291.3 346.0,294.6 379.4,291.4 416.0,293.6 449.4,284.1 486.0,283.6 486.0,286.3 449.4,285.3 416.0,297.5 379.4,293.3 346.0,297.2 309.4,298.1 276.0,312.4" fill="#1f77b4" opacity="0.11"/>
<polyline points="276.0,306.9 309.4,294.2 346.0,295.4 379.4,292.3 416.0,295.3 449.4,284.6 486.0,285.3" fill="none" stroke="#1f77b4" stroke-width="1.6"/>
<circle cx="276.0" cy="306.9" r="2" fill="#1f77b4"/>
<circle cx="309.4" cy="294.2" r="2" fill="#1f77b4"/>
<circle cx="346.0" cy="295.4" r="2" fill="#1f77b4"/>
<circle cx="379.4" cy="292.3" r="2" fill="#1f77b4"/>
<circle cx="416.0" cy="295.3" r="2" fill="#1f77b4"/>
<circle cx="449.4" cy="284.6" r="2" fill="#1f77b4"/>
<circle cx="486.0" cy="285.3" r="2" fill="#1f77b4"/>
<text x="381.0" y="227" text-anchor="middle" font-size="12" font-weight="bold">iamax</text>
<line x1="276.0" y1="232" x2="276.0" y2="370" stroke="#f4f4f4"/>
<text x="276.0" y="381" text-anchor="middle" font-size="8" fill="#999">1000</text>
<line x1="309.4" y1="232" x2="309.4" y2="370" stroke="#f4f4f4"/>
<text x="309.4" y="381" text-anchor="middle" font-size="8" fill="#999">2k</text>
<line x1="346.0" y1="232" x2="346.0" y2="370" stroke="#f4f4f4"/>
<text x="346.0" y="381" text-anchor="middle" font-size="8" fill="#999">9k</text>
<line x1="379.4" y1="232" x2="379.4" y2="370" stroke="#f4f4f4"/>
<text x="379.4" y="381" text-anchor="middle" font-size="8" fill="#999">29k</text>
<line x1="416.0" y1="232" x2="416.0" y2="370" stroke="#f4f4f4"/>
<text x="416.0" y="381" text-anchor="middle" font-size="8" fill="#999">97k</text>
<line x1="449.4" y1="232" x2="449.4" y2="370" stroke="#f4f4f4"/>
<text x="449.4" y="381" text-anchor="middle" font-size="8" fill="#999">292k</text>
<line x1="486.0" y1="232" x2="486.0" y2="370" stroke="#f4f4f4"/>
<text x="486.0" y="381" text-anchor="middle" font-size="8" fill="#999">976k</text>
</svg>
