<svg xmlns="http://www.w3.org/2000/svg" width="900" height="460" font-family="sans-serif">
<rect width="900" height="460" fill="white"/>
<text x="450.0" y="28" text-anchor="middle" font-size="18" font-weight="bold">Complex BLAS-3: PureBLAS / OpenBLAS (Zen5, 1 thread, ComplexF64)</text>
<line x1="62" y1="400.0" x2="768" y2="400.0" stroke="#eee"/>
<text x="54" y="404.0" text-anchor="end" font-size="11" fill="#666">0.5×</text>
<line x1="62" y1="333.1270902400095" x2="768" y2="333.1270902400095" stroke="#eee"/>
<text x="54" y="337.1270902400095" text-anchor="end" font-size="11" fill="#666">0.7×</text>
<line x1="62" y1="262.2389492772352" x2="768" y2="262.2389492772352" stroke="#eee"/>
<text x="54" y="266.2389492772352" text-anchor="end" font-size="11" fill="#666">1.0×</text>
<line x1="62" y1="181.65390054447266" x2="768" y2="181.65390054447266" stroke="#eee"/>
<text x="54" y="185.65390054447266" text-anchor="end" font-size="11" fill="#666">1.5×</text>
<line x1="62" y1="124.47789855447036" x2="768" y2="124.47789855447036" stroke="#eee"/>
<text x="54" y="128.47789855447036" text-anchor="end" font-size="11" fill="#666">2.0×</text>
<line x1="62.0" y1="50" x2="62.0" y2="400" stroke="#f4f4f4"/>
<text x="62.0" y="418" text-anchor="middle" font-size="11" fill="#444">8</text>
<line x1="238.5" y1="50" x2="238.5" y2="400" stroke="#f4f4f4"/>
<text x="238.5" y="418" text-anchor="middle" font-size="11" fill="#444">32</text>
<line x1="415.0" y1="50" x2="415.0" y2="400" stroke="#f4f4f4"/>
<text x="415.0" y="418" text-anchor="middle" font-size="11" fill="#444">128</text>
<line x1="503.25" y1="50" x2="503.25" y2="400" stroke="#f4f4f4"/>
<text x="503.25" y="418" text-anchor="middle" font-size="11" fill="#444">256</text>
<line x1="591.5" y1="50" x2="591.5" y2="400" stroke="#f4f4f4"/>
<text x="591.5" y="418" text-anchor="middle" font-size="11" fill="#444">512</text>
<line x1="679.75" y1="50" x2="679.75" y2="400" stroke="#f4f4f4"/>
<text x="679.75" y="418" text-anchor="middle" font-size="11" fill="#444">1024</text>
<line x1="768.0" y1="50" x2="768.0" y2="400" stroke="#f4f4f4"/>
<text x="768.0" y="418" text-anchor="middle" font-size="11" fill="#444">2048</text>
<line x1="62" y1="262.2389492772352" x2="768" y2="262.2389492772352" stroke="#888"/>
<line x1="62" y1="270.35220576219456" x2="768" y2="270.35220576219456" stroke="#d33" stroke-width="1.5" stroke-dasharray="6 4"/>
<text x="66" y="265.35220576219456" font-size="11" fill="#d33">0.96× gate</text>
<polygon points="62.0,72.0 238.5,174.9 415.0,212.6 503.2,215.4 591.5,224.4 679.8,227.0 768.0,229.6 768.0,229.6 679.8,227.2 591.5,224.6 503.2,215.6 415.0,213.1 238.5,177.9 62.0,96.1" fill="#1f77b4" opacity="0.14" stroke="none"/>
<polyline points="62.0,77.8 238.5,177.1 415.0,212.8 503.2,215.5 591.5,224.4 679.8,227.2 768.0,229.6" fill="none" stroke="#1f77b4" stroke-width="2"/>
<circle cx="62.0" cy="77.8" r="3" fill="#1f77b4"/>
<circle cx="238.5" cy="177.1" r="3" fill="#1f77b4"/>
<circle cx="415.0" cy="212.8" r="3" fill="#1f77b4"/>
<circle cx="503.2" cy="215.5" r="3" fill="#1f77b4"/>
<circle cx="591.5" cy="224.4" r="3" fill="#1f77b4"/>
<circle cx="679.8" cy="227.2" r="3" fill="#1f77b4"/>
<circle cx="768.0" cy="229.6" r="3" fill="#1f77b4"/>
<line x1="782" y1="56" x2="802" y2="56" stroke="#1f77b4" stroke-width="3"/>
<text x="806" y="60" font-size="12">zgemm</text>
<polygon points="62.0,193.9 238.5,214.1 415.0,228.3 503.2,219.0 591.5,226.0 679.8,226.9 768.0,229.3 768.0,229.5 679.8,227.0 591.5,226.3 503.2,219.1 415.0,229.6 238.5,216.0 62.0,201.2" fill="#d62728" opacity="0.14" stroke="none"/>
<polyline points="62.0,195.9 238.5,214.4 415.0,228.7 503.2,219.0 591.5,226.2 679.8,226.9 768.0,229.4" fill="none" stroke="#d62728" stroke-width="2"/>
<circle cx="62.0" cy="195.9" r="3" fill="#d62728"/>
<circle cx="238.5" cy="214.4" r="3" fill="#d62728"/>
<circle cx="415.0" cy="228.7" r="3" fill="#d62728"/>
<circle cx="503.2" cy="219.0" r="3" fill="#d62728"/>
<circle cx="591.5" cy="226.2" r="3" fill="#d62728"/>
<circle cx="679.8" cy="226.9" r="3" fill="#d62728"/>
<circle cx="768.0" cy="229.4" r="3" fill="#d62728"/>
<line x1="782" y1="74" x2="802" y2="74" stroke="#d62728" stroke-width="3"/>
<text x="806" y="78" font-size="12">zhemm</text>
<polygon points="62.0,190.5 238.5,205.0 415.0,223.2 503.2,222.3 591.5,231.6 679.8,227.2 768.0,230.0 768.0,230.1 679.8,227.3 591.5,233.1 503.2,222.9 415.0,224.1 238.5,210.2 62.0,191.1" fill="#2ca02c" opacity="0.14" stroke="none"/>
<polyline points="62.0,190.8 238.5,207.2 415.0,223.8 503.2,222.4 591.5,233.0 679.8,227.2 768.0,230.1" fill="none" stroke="#2ca02c" stroke-width="2"/>
<circle cx="62.0" cy="190.8" r="3" fill="#2ca02c"/>
<circle cx="238.5" cy="207.2" r="3" fill="#2ca02c"/>
<circle cx="415.0" cy="223.8" r="3" fill="#2ca02c"/>
<circle cx="503.2" cy="222.4" r="3" fill="#2ca02c"/>
<circle cx="591.5" cy="233.0" r="3" fill="#2ca02c"/>
<circle cx="679.8" cy="227.2" r="3" fill="#2ca02c"/>
<circle cx="768.0" cy="230.1" r="3" fill="#2ca02c"/>
<line x1="782" y1="92" x2="802" y2="92" stroke="#2ca02c" stroke-width="3"/>
<text x="806" y="96" font-size="12">zsymm</text>
<polygon points="62.0,112.3 238.5,230.6 415.0,236.0 503.2,221.1 591.5,224.3 679.8,222.9 768.0,226.7 768.0,226.8 679.8,224.3 591.5,226.3 503.2,221.3 415.0,237.2 238.5,232.0 62.0,116.8" fill="#9467bd" opacity="0.14" stroke="none"/>
<polyline points="62.0,113.0 238.5,231.0 415.0,236.9 503.2,221.2 591.5,225.8 679.8,224.1 768.0,226.7" fill="none" stroke="#9467bd" stroke-width="2"/>
<circle cx="62.0" cy="113.0" r="3" fill="#9467bd"/>
<circle cx="238.5" cy="231.0" r="3" fill="#9467bd"/>
<circle cx="415.0" cy="236.9" r="3" fill="#9467bd"/>
<circle cx="503.2" cy="221.2" r="3" fill="#9467bd"/>
<circle cx="591.5" cy="225.8" r="3" fill="#9467bd"/>
<circle cx="679.8" cy="224.1" r="3" fill="#9467bd"/>
<circle cx="768.0" cy="226.7" r="3" fill="#9467bd"/>
<line x1="782" y1="110" x2="802" y2="110" stroke="#9467bd" stroke-width="3"/>
<text x="806" y="114" font-size="12">zsyrk</text>
<polygon points="62.0,113.0 238.5,232.1 415.0,238.6 503.2,222.4 591.5,225.8 679.8,225.2 768.0,228.0 768.0,228.0 679.8,225.9 591.5,229.4 503.2,223.1 415.0,239.5 238.5,237.2 62.0,117.2" fill="#ff7f0e" opacity="0.14" stroke="none"/>
<polyline points="62.0,115.5 238.5,232.5 415.0,239.2 503.2,222.5 591.5,228.3 679.8,225.8 768.0,228.0" fill="none" stroke="#ff7f0e" stroke-width="2"/>
<circle cx="62.0" cy="115.5" r="3" fill="#ff7f0e"/>
<circle cx="238.5" cy="232.5" r="3" fill="#ff7f0e"/>
<circle cx="415.0" cy="239.2" r="3" fill="#ff7f0e"/>
<circle cx="503.2" cy="222.5" r="3" fill="#ff7f0e"/>
<circle cx="591.5" cy="228.3" r="3" fill="#ff7f0e"/>
<circle cx="679.8" cy="225.8" r="3" fill="#ff7f0e"/>
<circle cx="768.0" cy="228.0" r="3" fill="#ff7f0e"/>
<line x1="782" y1="128" x2="802" y2="128" stroke="#ff7f0e" stroke-width="3"/>
<text x="806" y="132" font-size="12">zherk</text>
<polygon points="62.0,169.2 238.5,248.9 415.0,241.6 503.2,221.6 591.5,224.7 679.8,224.9 768.0,228.5 768.0,228.5 679.8,225.4 591.5,225.8 503.2,222.3 415.0,243.1 238.5,253.2 62.0,171.3" fill="#17becf" opacity="0.14" stroke="none"/>
<polyline points="62.0,169.6 238.5,250.8 415.0,242.1 503.2,221.9 591.5,225.3 679.8,225.3 768.0,228.5" fill="none" stroke="#17becf" stroke-width="2"/>
<circle cx="62.0" cy="169.6" r="3" fill="#17becf"/>
<circle cx="238.5" cy="250.8" r="3" fill="#17becf"/>
<circle cx="415.0" cy="242.1" r="3" fill="#17becf"/>
<circle cx="503.2" cy="221.9" r="3" fill="#17becf"/>
<circle cx="591.5" cy="225.3" r="3" fill="#17becf"/>
<circle cx="679.8" cy="225.3" r="3" fill="#17becf"/>
<circle cx="768.0" cy="228.5" r="3" fill="#17becf"/>
<line x1="782" y1="146" x2="802" y2="146" stroke="#17becf" stroke-width="3"/>
<text x="806" y="150" font-size="12">zher2k</text>
<polygon points="62.0,158.5 238.5,247.7 415.0,240.5 503.2,220.4 591.5,223.8 679.8,224.1 768.0,228.0 768.0,228.1 679.8,224.6 591.5,224.5 503.2,221.5 415.0,242.4 238.5,254.4 62.0,164.2" fill="#8c564b" opacity="0.14" stroke="none"/>
<polyline points="62.0,162.7 238.5,253.8 415.0,241.4 503.2,220.7 591.5,224.2 679.8,224.5 768.0,228.1" fill="none" stroke="#8c564b" stroke-width="2"/>
<circle cx="62.0" cy="162.7" r="3" fill="#8c564b"/>
<circle cx="238.5" cy="253.8" r="3" fill="#8c564b"/>
<circle cx="415.0" cy="241.4" r="3" fill="#8c564b"/>
<circle cx="503.2" cy="220.7" r="3" fill="#8c564b"/>
<circle cx="591.5" cy="224.2" r="3" fill="#8c564b"/>
<circle cx="679.8" cy="224.5" r="3" fill="#8c564b"/>
<circle cx="768.0" cy="228.1" r="3" fill="#8c564b"/>
<line x1="782" y1="164" x2="802" y2="164" stroke="#8c564b" stroke-width="3"/>
<text x="806" y="168" font-size="12">zsyr2k</text>
<polygon points="62.0,185.6 238.5,261.3 415.0,249.2 503.2,240.5 591.5,231.8 679.8,232.8 768.0,232.4 768.0,232.5 679.8,233.2 591.5,231.9 503.2,240.7 415.0,252.4 238.5,270.3 62.0,204.0" fill="#e377c2" opacity="0.14" stroke="none"/>
<polyline points="62.0,195.0 238.5,269.7 415.0,250.9 503.2,240.6 591.5,231.9 679.8,232.9 768.0,232.4" fill="none" stroke="#e377c2" stroke-width="2"/>
<circle cx="62.0" cy="195.0" r="3" fill="#e377c2"/>
<circle cx="238.5" cy="269.7" r="3" fill="#e377c2"/>
<circle cx="415.0" cy="250.9" r="3" fill="#e377c2"/>
<circle cx="503.2" cy="240.6" r="3" fill="#e377c2"/>
<circle cx="591.5" cy="231.9" r="3" fill="#e377c2"/>
<circle cx="679.8" cy="232.9" r="3" fill="#e377c2"/>
<circle cx="768.0" cy="232.4" r="3" fill="#e377c2"/>
<line x1="782" y1="182" x2="802" y2="182" stroke="#e377c2" stroke-width="3"/>
<text x="806" y="186" font-size="12">ztrmm</text>
<polygon points="62.0,198.7 238.5,242.9 415.0,212.7 503.2,226.8 591.5,221.7 679.8,227.1 768.0,233.5 768.0,233.6 679.8,227.7 591.5,222.0 503.2,227.1 415.0,213.0 238.5,257.5 62.0,199.6" fill="#1f77b4" opacity="0.14" stroke="none"/>
<polyline points="62.0,199.1 238.5,255.4 415.0,212.8 503.2,226.9 591.5,221.8 679.8,227.6 768.0,233.5" fill="none" stroke="#1f77b4" stroke-width="2"/>
<circle cx="62.0" cy="199.1" r="3" fill="#1f77b4"/>
<circle cx="238.5" cy="255.4" r="3" fill="#1f77b4"/>
<circle cx="415.0" cy="212.8" r="3" fill="#1f77b4"/>
<circle cx="503.2" cy="226.9" r="3" fill="#1f77b4"/>
<circle cx="591.5" cy="221.8" r="3" fill="#1f77b4"/>
<circle cx="679.8" cy="227.6" r="3" fill="#1f77b4"/>
<circle cx="768.0" cy="233.5" r="3" fill="#1f77b4"/>
<line x1="782" y1="200" x2="802" y2="200" stroke="#1f77b4" stroke-width="3"/>
<text x="806" y="204" font-size="12">ztrsm</text>
<polygon points="62.0,180.9 238.5,241.2 415.0,247.2 503.2,231.5 591.5,230.7 679.8,232.9 768.0,233.5 768.0,233.6 679.8,234.0 591.5,231.1 503.2,232.0 415.0,250.7 238.5,258.3 62.0,195.6" fill="#d62728" opacity="0.14" stroke="none"/>
<polyline points="62.0,189.2 238.5,256.3 415.0,247.5 503.2,231.9 591.5,230.9 679.8,233.1 768.0,233.5" fill="none" stroke="#d62728" stroke-width="2"/>
<circle cx="62.0" cy="189.2" r="3" fill="#d62728"/>
<circle cx="238.5" cy="256.3" r="3" fill="#d62728"/>
<circle cx="415.0" cy="247.5" r="3" fill="#d62728"/>
<circle cx="503.2" cy="231.9" r="3" fill="#d62728"/>
<circle cx="591.5" cy="230.9" r="3" fill="#d62728"/>
<circle cx="679.8" cy="233.1" r="3" fill="#d62728"/>
<circle cx="768.0" cy="233.5" r="3" fill="#d62728"/>
<line x1="782" y1="218" x2="802" y2="218" stroke="#d62728" stroke-width="3"/>
<text x="806" y="222" font-size="12">ztrmmR</text>
<polygon points="62.0,128.0 238.5,158.4 415.0,167.1 503.2,190.1 591.5,206.9 679.8,220.2 768.0,232.1 768.0,232.4 679.8,220.9 591.5,207.0 503.2,190.2 415.0,167.4 238.5,165.7 62.0,145.1" fill="#2ca02c" opacity="0.14" stroke="none"/>
<polyline points="62.0,141.6 238.5,162.7 415.0,167.2 503.2,190.1 591.5,207.0 679.8,220.4 768.0,232.3" fill="none" stroke="#2ca02c" stroke-width="2"/>
<circle cx="62.0" cy="141.6" r="3" fill="#2ca02c"/>
<circle cx="238.5" cy="162.7" r="3" fill="#2ca02c"/>
<circle cx="415.0" cy="167.2" r="3" fill="#2ca02c"/>
<circle cx="503.2" cy="190.1" r="3" fill="#2ca02c"/>
<circle cx="591.5" cy="207.0" r="3" fill="#2ca02c"/>
<circle cx="679.8" cy="220.4" r="3" fill="#2ca02c"/>
<circle cx="768.0" cy="232.3" r="3" fill="#2ca02c"/>
<line x1="782" y1="236" x2="802" y2="236" stroke="#2ca02c" stroke-width="3"/>
<text x="806" y="240" font-size="12">ztrsmR</text>
<text x="415.0" y="450" text-anchor="middle" font-size="11" fill="#666">matrix size n (log) · y = median ratio (log) · dashed = the 0.96× gate</text>
</svg>
