<svg xmlns="http://www.w3.org/2000/svg" width="900" height="440" font-family="sans-serif">
<rect width="900" height="440" fill="white"/>
<text x="450.0" y="28" text-anchor="middle" font-size="18" font-weight="bold">Complex BLAS-2: PureBLAS / OpenBLAS (AVX-512 native (Zen5), 1 thread, ComplexF64)</text>
<line x1="60" y1="358.0" x2="880" y2="358.0" stroke="#eee"/>
<text x="52" y="362.0" text-anchor="end" font-size="11" fill="#666">0×</text>
<line x1="60" y1="302.01836930153587" x2="880" y2="302.01836930153587" stroke="#eee"/>
<text x="52" y="306.01836930153587" text-anchor="end" font-size="11" fill="#666">0.5×</text>
<line x1="60" y1="246.03673860307168" x2="880" y2="246.03673860307168" stroke="#eee"/>
<text x="52" y="250.03673860307168" text-anchor="end" font-size="11" fill="#666">1×</text>
<line x1="60" y1="190.05510790460752" x2="880" y2="190.05510790460752" stroke="#eee"/>
<text x="52" y="194.05510790460752" text-anchor="end" font-size="11" fill="#666">1.5×</text>
<line x1="60" y1="246.03673860307168" x2="880" y2="246.03673860307168" stroke="#888" stroke-width="1"/>
<line x1="60" y1="250.51526905894883" x2="880" y2="250.51526905894883" stroke="#d33" stroke-width="1.5" stroke-dasharray="6 4"/>
<text x="880" y="245.51526905894883" text-anchor="end" font-size="11" fill="#d33">0.96× gate</text>
<polygon points="129.2,283.7 129.7,283.1 130.3,282.5 131.2,281.9 132.3,281.3 133.6,280.7 135.1,280.1 136.8,279.5 138.6,278.9 140.4,278.3 142.1,277.7 143.5,277.0 144.7,276.4 145.6,275.8 146.0,275.2 146.1,274.6 145.8,274.0 145.4,273.4 144.8,272.8 144.3,272.2 143.9,271.6 143.8,271.0 144.0,270.4 144.7,269.7 145.9,269.1 147.7,268.5 150.1,267.9 153.3,267.3 157.1,266.7 161.3,266.1 165.9,265.5 170.5,264.9 174.7,264.3 178.4,263.7 181.3,263.0 183.4,262.4 184.8,261.8 185.5,261.2 185.7,260.6 185.6,260.0 185.1,259.4 184.2,258.8 182.6,258.2 180.2,257.6 176.9,257.0 172.8,256.4 167.9,255.7 162.5,255.1 157.1,254.5 151.9,253.9 147.2,253.3 143.2,252.7 140.0,252.1 137.5,251.5 135.6,250.9 134.1,250.3 133.1,249.7 132.3,249.1 131.7,248.4 131.2,247.8 130.8,247.2 130.5,246.6 130.2,246.0 130.0,245.4 129.8,244.8 129.6,244.2 129.4,243.6 129.2,243.0 129.0,242.4 128.9,241.7 128.7,241.1 128.6,240.5 128.1,240.5 128.0,241.1 127.8,241.7 127.7,242.4 127.5,243.0 127.3,243.6 127.1,244.2 126.9,244.8 126.7,245.4 126.5,246.0 126.2,246.6 125.9,247.2 125.5,247.8 125.0,248.4 124.4,249.1 123.6,249.7 122.5,250.3 121.1,250.9 119.2,251.5 116.7,252.1 113.5,252.7 109.5,253.3 104.8,253.9 99.6,254.5 94.2,255.1 88.8,255.7 83.9,256.4 79.7,257.0 76.4,257.6 74.1,258.2 72.5,258.8 71.5,259.4 71.1,260.0 70.9,260.6 71.2,261.2 71.9,261.8 73.3,262.4 75.4,263.0 78.3,263.7 82.0,264.3 86.2,264.9 90.8,265.5 95.3,266.1 99.6,266.7 103.4,267.3 106.5,267.9 109.0,268.5 110.8,269.1 112.0,269.7 112.6,270.4 112.9,271.0 112.7,271.6 112.4,272.2 111.9,272.8 111.3,273.4 110.8,274.0 110.6,274.6 110.7,275.2 111.1,275.8 111.9,276.4 113.1,277.0 114.6,277.7 116.3,278.3 118.1,278.9 119.9,279.5 121.5,280.1 123.1,280.7 124.4,281.3 125.5,281.9 126.3,282.5 127.0,283.1 127.5,283.7" fill="#d33" opacity="0.5" stroke="#d33" stroke-width="1"/>
<line x1="72.3" y1="262.0532900970553" x2="184.4" y2="262.0532900970553" stroke="#114" stroke-width="2"/>
<circle cx="128.33333333333331" cy="275.7940297606739" r="2.4" fill="#114"/>
<text x="128.33333333333331" y="238.89340705728765" text-anchor="middle" font-size="11">0.86</text>
<text x="128.33333333333331" y="376" text-anchor="middle" font-size="12">zgemvN</text>
<polygon points="276.5,268.1 278.7,267.3 281.0,266.6 283.3,265.8 285.5,265.0 287.7,264.3 289.6,263.5 291.3,262.7 292.8,262.0 294.0,261.2 295.1,260.4 296.0,259.7 296.9,258.9 297.9,258.1 299.0,257.4 300.3,256.6 301.9,255.9 303.8,255.1 305.8,254.3 308.1,253.6 310.3,252.8 312.5,252.0 314.5,251.3 316.2,250.5 317.6,249.7 318.5,249.0 318.9,248.2 318.9,247.4 318.5,246.7 317.7,245.9 316.6,245.1 315.3,244.4 313.8,243.6 312.4,242.9 311.0,242.1 309.7,241.3 308.6,240.6 307.7,239.8 307.2,239.0 307.0,238.3 307.1,237.5 307.7,236.7 308.6,236.0 309.9,235.2 311.4,234.4 313.1,233.7 315.0,232.9 316.8,232.2 318.6,231.4 320.1,230.6 321.3,229.9 322.1,229.1 322.4,228.3 322.2,227.6 321.5,226.8 320.4,226.0 318.7,225.3 316.5,224.5 314.0,223.7 311.1,223.0 308.0,222.2 304.6,221.5 301.0,220.7 297.4,219.9 293.8,219.2 290.2,218.4 286.7,217.6 283.5,216.9 280.4,216.1 277.7,215.3 275.3,214.6 273.2,213.8 256.8,213.8 254.7,214.6 252.3,215.3 249.6,216.1 246.5,216.9 243.3,217.6 239.8,218.4 236.2,219.2 232.6,219.9 229.0,220.7 225.4,221.5 222.0,222.2 218.9,223.0 216.0,223.7 213.5,224.5 211.3,225.3 209.6,226.0 208.5,226.8 207.8,227.6 207.6,228.3 207.9,229.1 208.7,229.9 209.9,230.6 211.4,231.4 213.2,232.2 215.0,232.9 216.9,233.7 218.6,234.4 220.1,235.2 221.4,236.0 222.3,236.7 222.9,237.5 223.0,238.3 222.8,239.0 222.3,239.8 221.4,240.6 220.3,241.3 219.0,242.1 217.6,242.9 216.2,243.6 214.7,244.4 213.4,245.1 212.3,245.9 211.5,246.7 211.1,247.4 211.1,248.2 211.5,249.0 212.4,249.7 213.8,250.5 215.5,251.3 217.5,252.0 219.7,252.8 221.9,253.6 224.2,254.3 226.2,255.1 228.1,255.9 229.7,256.6 231.0,257.4 232.1,258.1 233.1,258.9 234.0,259.7 234.9,260.4 236.0,261.2 237.2,262.0 238.7,262.7 240.4,263.5 242.3,264.3 244.5,265.0 246.7,265.8 249.0,266.6 251.3,267.3 253.5,268.1" fill="#d33" opacity="0.5" stroke="#d33" stroke-width="1"/>
<line x1="221.6" y1="240.44607784471032" x2="308.4" y2="240.44607784471032" stroke="#114" stroke-width="2"/>
<circle cx="265.0" cy="261.47637818489994" r="2.4" fill="#114"/>
<text x="265.0" y="213.23975229453583" text-anchor="middle" font-size="11">1.05</text>
<text x="265.0" y="376" text-anchor="middle" font-size="12">zgemvC</text>
<polygon points="407.0,247.5 408.7,247.1 410.7,246.8 413.1,246.5 415.8,246.1 419.0,245.8 422.4,245.4 426.2,245.1 430.1,244.7 434.1,244.4 438.2,244.0 442.1,243.7 445.8,243.4 449.2,243.0 452.2,242.7 454.7,242.3 456.6,242.0 458.0,241.6 458.8,241.3 459.1,241.0 458.8,240.6 458.1,240.3 456.9,239.9 455.4,239.6 453.5,239.2 451.4,238.9 449.0,238.6 446.5,238.2 444.0,237.9 441.3,237.5 438.8,237.2 436.2,236.8 433.8,236.5 431.5,236.2 429.4,235.8 427.5,235.5 425.9,235.1 424.4,234.8 423.3,234.4 422.5,234.1 421.9,233.7 421.7,233.4 421.7,233.1 422.1,232.7 422.7,232.4 423.5,232.0 424.5,231.7 425.5,231.3 426.5,231.0 427.4,230.7 428.2,230.3 428.7,230.0 428.9,229.6 428.7,229.3 428.3,228.9 427.5,228.6 426.4,228.3 425.0,227.9 423.4,227.6 421.7,227.2 419.8,226.9 418.0,226.5 416.1,226.2 414.3,225.8 412.5,225.5 410.9,225.2 409.4,224.8 408.1,224.5 406.9,224.1 405.8,223.8 404.9,223.4 404.2,223.1 399.2,223.1 398.4,223.4 397.5,223.8 396.5,224.1 395.3,224.5 393.9,224.8 392.4,225.2 390.8,225.5 389.1,225.8 387.2,226.2 385.4,226.5 383.5,226.9 381.7,227.2 379.9,227.6 378.3,227.9 377.0,228.3 375.9,228.6 375.1,228.9 374.6,229.3 374.5,229.6 374.7,230.0 375.1,230.3 375.9,230.7 376.8,231.0 377.8,231.3 378.8,231.7 379.8,232.0 380.6,232.4 381.2,232.7 381.6,233.1 381.7,233.4 381.4,233.7 380.9,234.1 380.0,234.4 378.9,234.8 377.5,235.1 375.8,235.5 373.9,235.8 371.8,236.2 369.5,236.5 367.1,236.8 364.6,237.2 362.0,237.5 359.4,237.9 356.8,238.2 354.3,238.6 352.0,238.9 349.8,239.2 348.0,239.6 346.4,239.9 345.2,240.3 344.5,240.6 344.3,241.0 344.5,241.3 345.4,241.6 346.7,242.0 348.7,242.3 351.2,242.7 354.1,243.0 357.5,243.4 361.2,243.7 365.1,244.0 369.2,244.4 373.2,244.7 377.2,245.1 380.9,245.4 384.4,245.8 387.5,246.1 390.3,246.5 392.7,246.8 394.7,247.1 396.3,247.5" fill="#2a8" opacity="0.5" stroke="#2a8" stroke-width="1"/>
<line x1="349.9" y1="239.23081226896574" x2="453.4" y2="239.23081226896574" stroke="#114" stroke-width="2"/>
<circle cx="401.66666666666663" cy="243.20487425540196" r="2.4" fill="#114"/>
<text x="401.66666666666663" y="219.64238593687787" text-anchor="middle" font-size="11">1.06</text>
<text x="401.66666666666663" y="376" text-anchor="middle" font-size="12">zgeru</text>
<polygon points="559.4,223.0 562.8,220.6 566.4,218.2 570.2,215.8 574.0,213.3 577.8,210.9 581.5,208.5 584.9,206.0 587.9,203.6 590.6,201.2 592.8,198.7 594.3,196.3 595.3,193.9 595.7,191.5 595.5,189.0 594.8,186.6 593.5,184.2 591.8,181.7 589.8,179.3 587.6,176.9 585.3,174.5 582.9,172.0 580.5,169.6 578.3,167.2 576.2,164.7 574.4,162.3 572.7,159.9 571.2,157.4 569.9,155.0 568.8,152.6 567.8,150.2 566.9,147.7 566.2,145.3 565.5,142.9 564.9,140.4 564.4,138.0 564.1,135.6 563.8,133.2 563.8,130.7 563.9,128.3 564.2,125.9 564.7,123.4 565.5,121.0 566.4,118.6 567.6,116.2 569.0,113.7 570.6,111.3 572.2,108.9 574.0,106.4 575.9,104.0 577.7,101.6 579.5,99.1 581.2,96.7 582.8,94.3 584.2,91.9 585.2,89.4 586.0,87.0 586.3,84.6 586.3,82.1 585.8,79.7 584.9,77.3 583.5,74.9 581.6,72.4 579.4,70.0 576.9,67.6 574.0,65.1 571.0,62.7 567.9,60.3 564.7,57.8 561.6,55.4 558.5,53.0 555.7,50.6 521.0,50.6 518.1,53.0 515.1,55.4 512.0,57.8 508.8,60.3 505.7,62.7 502.6,65.1 499.8,67.6 497.3,70.0 495.0,72.4 493.2,74.9 491.8,77.3 490.9,79.7 490.4,82.1 490.3,84.6 490.7,87.0 491.4,89.4 492.5,91.9 493.9,94.3 495.4,96.7 497.1,99.1 498.9,101.6 500.8,104.0 502.6,106.4 504.4,108.9 506.1,111.3 507.7,113.7 509.0,116.2 510.2,118.6 511.2,121.0 511.9,123.4 512.5,125.9 512.8,128.3 512.9,130.7 512.8,133.2 512.6,135.6 512.2,138.0 511.8,140.4 511.2,142.9 510.5,145.3 509.7,147.7 508.8,150.2 507.9,152.6 506.7,155.0 505.4,157.4 504.0,159.9 502.3,162.3 500.4,164.7 498.4,167.2 496.1,169.6 493.8,172.0 491.4,174.5 489.1,176.9 486.8,179.3 484.8,181.7 483.2,184.2 481.9,186.6 481.1,189.0 480.9,191.5 481.3,193.9 482.3,196.3 483.9,198.7 486.1,201.2 488.7,203.6 491.8,206.0 495.2,208.5 498.9,210.9 502.6,213.3 506.5,215.8 510.2,218.2 513.9,220.6 517.3,223.0" fill="#2a8" opacity="0.5" stroke="#2a8" stroke-width="1"/>
<line x1="509.8" y1="147.61888413252103" x2="566.9" y2="147.61888413252103" stroke="#114" stroke-width="2"/>
<circle cx="538.3333333333333" cy="202.78151107731193" r="2.4" fill="#114"/>
<text x="538.3333333333333" y="61.43396226415098" text-anchor="middle" font-size="11">1.88</text>
<text x="538.3333333333333" y="376" text-anchor="middle" font-size="12">zhemv</text>
<polygon points="691.5,260.7 694.7,259.3 698.2,257.8 701.9,256.4 705.8,255.0 709.7,253.6 713.7,252.2 717.5,250.8 721.1,249.3 724.4,247.9 727.2,246.5 729.5,245.1 731.1,243.7 732.1,242.3 732.4,240.9 732.0,239.4 731.0,238.0 729.4,236.6 727.2,235.2 724.7,233.8 721.9,232.4 718.8,230.9 715.8,229.5 712.7,228.1 709.9,226.7 707.2,225.3 704.8,223.9 702.7,222.4 701.0,221.0 699.5,219.6 698.4,218.2 697.4,216.8 696.7,215.4 696.1,213.9 695.6,212.5 695.1,211.1 694.6,209.7 694.2,208.3 693.7,206.9 693.3,205.5 692.9,204.0 692.5,202.6 692.2,201.2 692.1,199.8 692.1,198.4 692.2,197.0 692.6,195.5 693.1,194.1 693.8,192.7 694.7,191.3 695.7,189.9 696.8,188.5 698.0,187.0 699.1,185.6 700.1,184.2 701.0,182.8 701.7,181.4 702.1,180.0 702.3,178.5 702.2,177.1 701.8,175.7 701.1,174.3 700.1,172.9 698.8,171.5 697.3,170.1 695.6,168.6 693.8,167.2 692.0,165.8 690.1,164.4 688.2,163.0 686.4,161.6 684.7,160.1 665.3,160.1 663.6,161.6 661.8,163.0 659.9,164.4 658.0,165.8 656.2,167.2 654.4,168.6 652.7,170.1 651.2,171.5 649.9,172.9 648.9,174.3 648.2,175.7 647.8,177.1 647.7,178.5 647.9,180.0 648.3,181.4 649.0,182.8 649.9,184.2 650.9,185.6 652.0,187.0 653.2,188.5 654.3,189.9 655.3,191.3 656.2,192.7 656.9,194.1 657.4,195.5 657.8,197.0 657.9,198.4 657.9,199.8 657.8,201.2 657.5,202.6 657.1,204.0 656.7,205.5 656.3,206.9 655.8,208.3 655.4,209.7 654.9,211.1 654.4,212.5 653.9,213.9 653.3,215.4 652.6,216.8 651.6,218.2 650.5,219.6 649.0,221.0 647.3,222.4 645.2,223.9 642.8,225.3 640.1,226.7 637.3,228.1 634.2,229.5 631.2,230.9 628.1,232.4 625.3,233.8 622.8,235.2 620.6,236.6 619.0,238.0 618.0,239.4 617.6,240.9 617.9,242.3 618.9,243.7 620.5,245.1 622.8,246.5 625.6,247.9 628.9,249.3 632.5,250.8 636.3,252.2 640.3,253.6 644.2,255.0 648.1,256.4 651.8,257.8 655.3,259.3 658.5,260.7" fill="#2a8" opacity="0.5" stroke="#2a8" stroke-width="1"/>
<line x1="623.3" y1="234.88822926784965" x2="726.7" y2="234.88822926784965" stroke="#114" stroke-width="2"/>
<circle cx="675.0" cy="246.86934989309057" r="2.4" fill="#114"/>
<text x="675.0" y="164.05185771794737" text-anchor="middle" font-size="11">1.10</text>
<text x="675.0" y="376" text-anchor="middle" font-size="12">ztrmv</text>
<polygon points="819.5,262.9 821.5,262.0 823.8,261.2 826.5,260.3 829.4,259.5 832.5,258.6 835.9,257.8 839.4,256.9 843.0,256.1 846.6,255.3 849.9,254.4 853.1,253.6 855.9,252.7 858.3,251.9 860.2,251.0 861.6,250.2 862.6,249.3 863.2,248.5 863.4,247.6 863.3,246.8 863.2,246.0 863.0,245.1 862.9,244.3 862.9,243.4 863.2,242.6 863.7,241.7 864.5,240.9 865.4,240.0 866.3,239.2 867.3,238.3 868.1,237.5 868.7,236.7 869.1,235.8 869.0,235.0 868.6,234.1 867.9,233.3 866.8,232.4 865.4,231.6 863.9,230.7 862.2,229.9 860.5,229.1 858.8,228.2 857.3,227.4 855.9,226.5 854.7,225.7 853.8,224.8 853.2,224.0 852.8,223.1 852.7,222.3 853.0,221.4 853.6,220.6 854.5,219.8 855.7,218.9 857.0,218.1 858.5,217.2 859.9,216.4 861.3,215.5 862.4,214.7 863.1,213.8 863.4,213.0 863.1,212.1 862.1,211.3 860.5,210.5 858.4,209.6 855.6,208.8 852.4,207.9 848.8,207.1 845.0,206.2 841.0,205.4 837.2,204.5 833.4,203.7 829.9,202.9 793.5,202.9 789.9,203.7 786.2,204.5 782.3,205.4 778.4,206.2 774.5,207.1 771.0,207.9 767.7,208.8 765.0,209.6 762.8,210.5 761.2,211.3 760.3,212.1 760.0,213.0 760.2,213.8 761.0,214.7 762.1,215.5 763.4,216.4 764.9,217.2 766.3,218.1 767.7,218.9 768.8,219.8 769.7,220.6 770.3,221.4 770.6,222.3 770.5,223.1 770.2,224.0 769.5,224.8 768.6,225.7 767.4,226.5 766.0,227.4 764.5,228.2 762.8,229.1 761.1,229.9 759.5,230.7 757.9,231.6 756.6,232.4 755.5,233.3 754.7,234.1 754.3,235.0 754.3,235.8 754.6,236.7 755.2,237.5 756.0,238.3 757.0,239.2 758.0,240.0 758.9,240.9 759.6,241.7 760.1,242.6 760.4,243.4 760.5,244.3 760.4,245.1 760.2,246.0 760.0,246.8 760.0,247.6 760.2,248.5 760.7,249.3 761.7,250.2 763.1,251.0 765.1,251.9 767.5,252.7 770.3,253.6 773.4,254.4 776.8,255.3 780.3,256.1 783.9,256.9 787.4,257.8 790.8,258.6 794.0,259.5 796.9,260.3 799.5,261.2 801.8,262.0 803.8,262.9" fill="#d33" opacity="0.5" stroke="#d33" stroke-width="1"/>
<line x1="754.7" y1="234.1752277785791" x2="868.7" y2="234.1752277785791" stroke="#114" stroke-width="2"/>
<circle cx="811.6666666666666" cy="252.04638995745097" r="2.4" fill="#114"/>
<text x="811.6666666666666" y="202.8395774897943" text-anchor="middle" font-size="11">1.11</text>
<text x="811.6666666666666" y="376" text-anchor="middle" font-size="12">ztrsv</text>
<text x="450.0" y="428" text-anchor="middle" font-size="11" fill="#666">violin = ratio distribution over sizes · line = median · dark dot = worst size · green = every size ≥ gate</text>
</svg>
