<svg xmlns="http://www.w3.org/2000/svg" width="900" height="460" font-family="sans-serif">
<rect width="900" height="460" fill="white"/>
<text x="450.0" y="28" text-anchor="middle" font-size="18" font-weight="bold">Complex LAPACK: PureBLAS / OpenBLAS (AVX2, 1 thread, ComplexF64)</text>
<line x1="62" y1="400.0" x2="768" y2="400.0" stroke="#eee"/>
<text x="54" y="404.0" text-anchor="end" font-size="11" fill="#666">0.5×</text>
<line x1="62" y1="314.41424818280836" x2="768" y2="314.41424818280836" stroke="#eee"/>
<text x="54" y="318.41424818280836" text-anchor="end" font-size="11" fill="#666">0.7×</text>
<line x1="62" y1="223.6896952809402" x2="768" y2="223.6896952809402" stroke="#eee"/>
<text x="54" y="227.6896952809402" text-anchor="end" font-size="11" fill="#666">1.0×</text>
<line x1="62" y1="120.55477852956999" x2="768" y2="120.55477852956999" stroke="#eee"/>
<text x="54" y="124.55477852956999" text-anchor="end" font-size="11" fill="#666">1.5×</text>
<line x1="62.0" y1="50" x2="62.0" y2="400" stroke="#f4f4f4"/>
<text x="62.0" y="418" text-anchor="middle" font-size="11" fill="#444">8</text>
<line x1="238.5" y1="50" x2="238.5" y2="400" stroke="#f4f4f4"/>
<text x="238.5" y="418" text-anchor="middle" font-size="11" fill="#444">32</text>
<line x1="415.0" y1="50" x2="415.0" y2="400" stroke="#f4f4f4"/>
<text x="415.0" y="418" text-anchor="middle" font-size="11" fill="#444">128</text>
<line x1="503.25" y1="50" x2="503.25" y2="400" stroke="#f4f4f4"/>
<text x="503.25" y="418" text-anchor="middle" font-size="11" fill="#444">256</text>
<line x1="591.5" y1="50" x2="591.5" y2="400" stroke="#f4f4f4"/>
<text x="591.5" y="418" text-anchor="middle" font-size="11" fill="#444">512</text>
<line x1="679.75" y1="50" x2="679.75" y2="400" stroke="#f4f4f4"/>
<text x="679.75" y="418" text-anchor="middle" font-size="11" fill="#444">1024</text>
<line x1="768.0" y1="50" x2="768.0" y2="400" stroke="#f4f4f4"/>
<text x="768.0" y="418" text-anchor="middle" font-size="11" fill="#444">2048</text>
<line x1="62" y1="223.6896952809402" x2="768" y2="223.6896952809402" stroke="#888"/>
<line x1="62" y1="234.07325954400443" x2="768" y2="234.07325954400443" stroke="#d33" stroke-width="1.5" stroke-dasharray="6 4"/>
<text x="66" y="229.07325954400443" font-size="11" fill="#d33">0.96× gate</text>
<polygon points="62.0,74.5 238.5,201.8 415.0,292.2 503.2,249.3 591.5,230.7 679.8,208.6 768.0,196.8 768.0,199.2 679.8,209.7 591.5,231.6 503.2,249.6 415.0,292.4 238.5,202.8 62.0,87.7" fill="#1f77b4" opacity="0.14" stroke="none"/>
<polyline points="62.0,86.5 238.5,202.6 415.0,292.2 503.2,249.4 591.5,231.3 679.8,209.1 768.0,198.4" fill="none" stroke="#1f77b4" stroke-width="2"/>
<circle cx="62.0" cy="86.5" r="3" fill="#1f77b4"/>
<circle cx="238.5" cy="202.6" r="3" fill="#1f77b4"/>
<circle cx="415.0" cy="292.2" r="3" fill="#1f77b4"/>
<circle cx="503.2" cy="249.4" r="3" fill="#1f77b4"/>
<circle cx="591.5" cy="231.3" r="3" fill="#1f77b4"/>
<circle cx="679.8" cy="209.1" r="3" fill="#1f77b4"/>
<circle cx="768.0" cy="198.4" r="3" fill="#1f77b4"/>
<line x1="782" y1="56" x2="802" y2="56" stroke="#1f77b4" stroke-width="3"/>
<text x="806" y="60" font-size="12">zpotrf</text>
<polygon points="62.0,198.6 238.5,335.8 415.0,351.4 503.2,312.6 591.5,296.5 679.8,298.1 768.0,302.5 768.0,302.7 679.8,299.0 591.5,297.0 503.2,314.2 415.0,354.1 238.5,337.7 62.0,203.0" fill="#d62728" opacity="0.14" stroke="none"/>
<polyline points="62.0,201.8 238.5,337.0 415.0,352.6 503.2,313.5 591.5,296.8 679.8,298.6 768.0,302.6" fill="none" stroke="#d62728" stroke-width="2"/>
<circle cx="62.0" cy="201.8" r="3" fill="#d62728"/>
<circle cx="238.5" cy="337.0" r="3" fill="#d62728"/>
<circle cx="415.0" cy="352.6" r="3" fill="#d62728"/>
<circle cx="503.2" cy="313.5" r="3" fill="#d62728"/>
<circle cx="591.5" cy="296.8" r="3" fill="#d62728"/>
<circle cx="679.8" cy="298.6" r="3" fill="#d62728"/>
<circle cx="768.0" cy="302.6" r="3" fill="#d62728"/>
<line x1="782" y1="74" x2="802" y2="74" stroke="#d62728" stroke-width="3"/>
<text x="806" y="78" font-size="12">zgeqrf</text>
<polygon points="62.0,160.5 238.5,213.1 415.0,280.1 503.2,283.2 591.5,260.2 679.8,277.4 768.0,286.2 768.0,287.7 679.8,279.7 591.5,261.6 503.2,285.2 415.0,281.7 238.5,213.4 62.0,160.8" fill="#2ca02c" opacity="0.14" stroke="none"/>
<polyline points="62.0,160.7 238.5,213.4 415.0,280.8 503.2,284.0 591.5,261.4 679.8,278.7 768.0,287.1" fill="none" stroke="#2ca02c" stroke-width="2"/>
<circle cx="62.0" cy="160.7" r="3" fill="#2ca02c"/>
<circle cx="238.5" cy="213.4" r="3" fill="#2ca02c"/>
<circle cx="415.0" cy="280.8" r="3" fill="#2ca02c"/>
<circle cx="503.2" cy="284.0" r="3" fill="#2ca02c"/>
<circle cx="591.5" cy="261.4" r="3" fill="#2ca02c"/>
<circle cx="679.8" cy="278.7" r="3" fill="#2ca02c"/>
<circle cx="768.0" cy="287.1" r="3" fill="#2ca02c"/>
<line x1="782" y1="92" x2="802" y2="92" stroke="#2ca02c" stroke-width="3"/>
<text x="806" y="96" font-size="12">zgetrf</text>
<polygon points="62.0,84.9 238.5,242.3 415.0,400.0 503.2,400.0 591.5,400.0 679.8,400.0 768.0,400.0 768.0,400.0 679.8,400.0 591.5,400.0 503.2,400.0 415.0,400.0 238.5,243.1 62.0,86.1" fill="#9467bd" opacity="0.14" stroke="none"/>
<polyline points="62.0,85.6 238.5,243.0 415.0,400.0 503.2,400.0 591.5,400.0 679.8,400.0 768.0,400.0" fill="none" stroke="#9467bd" stroke-width="2"/>
<circle cx="62.0" cy="85.6" r="3" fill="#9467bd"/>
<circle cx="238.5" cy="243.0" r="3" fill="#9467bd"/>
<circle cx="415.0" cy="400.0" r="3" fill="#9467bd"/>
<circle cx="503.2" cy="400.0" r="3" fill="#9467bd"/>
<circle cx="591.5" cy="400.0" r="3" fill="#9467bd"/>
<circle cx="679.8" cy="400.0" r="3" fill="#9467bd"/>
<circle cx="768.0" cy="400.0" r="3" fill="#9467bd"/>
<line x1="782" y1="110" x2="802" y2="110" stroke="#9467bd" stroke-width="3"/>
<text x="806" y="114" font-size="12">zgesvd</text>
<text x="415.0" y="450" text-anchor="middle" font-size="11" fill="#666">matrix size n (log) · y = median ratio (log) · dashed = the 0.96× gate</text>
</svg>
