<svg xmlns="http://www.w3.org/2000/svg" width="962" height="420" font-family="sans-serif">
<rect width="962" height="420" fill="white"/>
<text x="481.0" y="26" text-anchor="middle" font-size="17" font-weight="bold">BLAS-3 — PureBLAS / OpenBLAS (PB/OpenBLAS ratio)</text>
<line x1="46" y1="42" x2="68" y2="42" stroke="#d62728" stroke-width="3"/>
<text x="73" y="46" font-size="12">Zen3 · AVX2</text>
<line x1="176" y1="42" x2="198" y2="42" stroke="#2ca02c" stroke-width="3"/>
<text x="203" y="46" font-size="12">Zen5 · AVX-512</text>
<line x1="327" y1="42" x2="349" y2="42" stroke="#1f77b4" stroke-width="3"/>
<text x="354" y="46" font-size="12">Zen4 · AVX-512</text>
<rect x="46" y="60" width="210" height="138" fill="none" stroke="#e2e2e2"/>
<line x1="46" y1="132.0549136948163" x2="256" y2="132.0549136948163" stroke="#d33" stroke-dasharray="4 3"/>
<text x="42" y="201.0" text-anchor="end" font-size="9" fill="#999">0.5×</text>
<text x="42" y="135.0549136948163" text-anchor="end" font-size="9" fill="#999">1.0×</text>
<text x="42" y="63.11849007741188" text-anchor="end" font-size="9" fill="#999">2.13×</text>
<polygon points="46.0,67.3 92.7,98.2 139.3,124.5 162.7,128.8 186.0,124.3 209.3,120.4 232.7,113.3 256.0,102.4 256.0,104.7 232.7,114.7 209.3,122.1 186.0,126.2 162.7,130.8 139.3,125.8 92.7,103.1 46.0,68.3" fill="#d62728" opacity="0.11"/>
<polyline points="46.0,67.9 92.7,99.3 139.3,125.1 162.7,130.1 186.0,125.3 209.3,121.0 232.7,114.3 256.0,103.2" fill="none" stroke="#d62728" stroke-width="1.6"/>
<circle cx="46.0" cy="67.9" r="2" fill="#d62728"/>
<circle cx="92.7" cy="99.3" r="2" fill="#d62728"/>
<circle cx="139.3" cy="125.1" r="2" fill="#d62728"/>
<circle cx="162.7" cy="130.1" r="2" fill="#d62728"/>
<circle cx="186.0" cy="125.3" r="2" fill="#d62728"/>
<circle cx="209.3" cy="121.0" r="2" fill="#d62728"/>
<circle cx="232.7" cy="114.3" r="2" fill="#d62728"/>
<circle cx="256.0" cy="103.2" r="2" fill="#d62728"/>
<polygon points="46.0,116.5 92.7,128.0 139.3,104.6 162.7,113.4 186.0,119.5 209.3,119.8 232.7,113.5 256.0,104.4 256.0,104.7 232.7,113.7 209.3,120.4 186.0,120.4 162.7,115.5 139.3,106.0 92.7,132.8 46.0,123.2" fill="#2ca02c" opacity="0.11"/>
<polyline points="46.0,118.8 92.7,130.7 139.3,105.5 162.7,113.9 186.0,119.9 209.3,120.1 232.7,113.6 256.0,104.6" fill="none" stroke="#2ca02c" stroke-width="1.6"/>
<circle cx="46.0" cy="118.8" r="2" fill="#2ca02c"/>
<circle cx="92.7" cy="130.7" r="2" fill="#2ca02c"/>
<circle cx="139.3" cy="105.5" r="2" fill="#2ca02c"/>
<circle cx="162.7" cy="113.9" r="2" fill="#2ca02c"/>
<circle cx="186.0" cy="119.9" r="2" fill="#2ca02c"/>
<circle cx="209.3" cy="120.1" r="2" fill="#2ca02c"/>
<circle cx="232.7" cy="113.6" r="2" fill="#2ca02c"/>
<circle cx="256.0" cy="104.6" r="2" fill="#2ca02c"/>
<polygon points="46.0,114.2 92.7,127.7 139.3,113.7 162.7,123.3 186.0,131.3 209.3,129.2 232.7,120.9 256.0,110.2 256.0,111.2 232.7,121.5 209.3,129.6 186.0,131.6 162.7,124.5 139.3,114.2 92.7,130.5 46.0,121.3" fill="#1f77b4" opacity="0.11"/>
<polyline points="46.0,120.3 92.7,129.7 139.3,114.0 162.7,123.6 186.0,131.4 209.3,129.4 232.7,121.2 256.0,110.5" fill="none" stroke="#1f77b4" stroke-width="1.6"/>
<circle cx="46.0" cy="120.3" r="2" fill="#1f77b4"/>
<circle cx="92.7" cy="129.7" r="2" fill="#1f77b4"/>
<circle cx="139.3" cy="114.0" r="2" fill="#1f77b4"/>
<circle cx="162.7" cy="123.6" r="2" fill="#1f77b4"/>
<circle cx="186.0" cy="131.4" r="2" fill="#1f77b4"/>
<circle cx="209.3" cy="129.4" r="2" fill="#1f77b4"/>
<circle cx="232.7" cy="121.2" r="2" fill="#1f77b4"/>
<circle cx="256.0" cy="110.5" r="2" fill="#1f77b4"/>
<text x="151.0" y="55" text-anchor="middle" font-size="12" font-weight="bold">gemm</text>
<line x1="46.0" y1="60" x2="46.0" y2="198" stroke="#f4f4f4"/>
<text x="46.0" y="209" text-anchor="middle" font-size="8" fill="#999">8</text>
<line x1="92.7" y1="60" x2="92.7" y2="198" stroke="#f4f4f4"/>
<text x="92.7" y="209" text-anchor="middle" font-size="8" fill="#999">32</text>
<line x1="139.3" y1="60" x2="139.3" y2="198" stroke="#f4f4f4"/>
<text x="139.3" y="209" text-anchor="middle" font-size="8" fill="#999">128</text>
<line x1="162.7" y1="60" x2="162.7" y2="198" stroke="#f4f4f4"/>
<text x="162.7" y="209" text-anchor="middle" font-size="8" fill="#999">256</text>
<line x1="186.0" y1="60" x2="186.0" y2="198" stroke="#f4f4f4"/>
<text x="186.0" y="209" text-anchor="middle" font-size="8" fill="#999">512</text>
<line x1="209.3" y1="60" x2="209.3" y2="198" stroke="#f4f4f4"/>
<text x="209.3" y="209" text-anchor="middle" font-size="8" fill="#999">1k</text>
<line x1="232.7" y1="60" x2="232.7" y2="198" stroke="#f4f4f4"/>
<text x="232.7" y="209" text-anchor="middle" font-size="8" fill="#999">2k</text>
<line x1="256.0" y1="60" x2="256.0" y2="198" stroke="#f4f4f4"/>
<text x="256.0" y="209" text-anchor="middle" font-size="8" fill="#999">4k</text>
<rect x="276" y="60" width="210" height="138" fill="none" stroke="#e2e2e2"/>
<line x1="276" y1="116.85437440152357" x2="486" y2="116.85437440152357" stroke="#d33" stroke-dasharray="4 3"/>
<text x="272" y="201.0" text-anchor="end" font-size="9" fill="#999">0.5×</text>
<text x="272" y="119.85437440152357" text-anchor="end" font-size="9" fill="#999">1.0×</text>
<polygon points="276.0,93.5 322.7,87.4 369.3,118.1 392.7,118.0 416.0,112.1 439.3,109.0 462.7,107.0 486.0,106.6 486.0,108.7 462.7,109.5 439.3,111.1 416.0,114.5 392.7,119.8 369.3,123.1 322.7,104.0 276.0,103.3" fill="#d62728" opacity="0.11"/>
<polyline points="276.0,102.9 322.7,96.1 369.3,120.1 392.7,118.2 416.0,112.6 439.3,109.4 462.7,108.3 486.0,106.8" fill="none" stroke="#d62728" stroke-width="1.6"/>
<circle cx="276.0" cy="102.9" r="2" fill="#d62728"/>
<circle cx="322.7" cy="96.1" r="2" fill="#d62728"/>
<circle cx="369.3" cy="120.1" r="2" fill="#d62728"/>
<circle cx="392.7" cy="118.2" r="2" fill="#d62728"/>
<circle cx="416.0" cy="112.6" r="2" fill="#d62728"/>
<circle cx="439.3" cy="109.4" r="2" fill="#d62728"/>
<circle cx="462.7" cy="108.3" r="2" fill="#d62728"/>
<circle cx="486.0" cy="106.8" r="2" fill="#d62728"/>
<polygon points="276.0,69.0 322.7,83.7 369.3,91.1 392.7,99.7 416.0,101.5 439.3,105.3 462.7,106.3 486.0,106.1 486.0,107.2 462.7,107.1 439.3,106.1 416.0,102.0 392.7,101.0 369.3,93.6 322.7,90.0 276.0,92.4" fill="#2ca02c" opacity="0.11"/>
<polyline points="276.0,73.6 322.7,87.6 369.3,91.9 392.7,100.7 416.0,101.7 439.3,105.8 462.7,106.6 486.0,106.6" fill="none" stroke="#2ca02c" stroke-width="1.6"/>
<circle cx="276.0" cy="73.6" r="2" fill="#2ca02c"/>
<circle cx="322.7" cy="87.6" r="2" fill="#2ca02c"/>
<circle cx="369.3" cy="91.9" r="2" fill="#2ca02c"/>
<circle cx="392.7" cy="100.7" r="2" fill="#2ca02c"/>
<circle cx="416.0" cy="101.7" r="2" fill="#2ca02c"/>
<circle cx="439.3" cy="105.8" r="2" fill="#2ca02c"/>
<circle cx="462.7" cy="106.6" r="2" fill="#2ca02c"/>
<circle cx="486.0" cy="106.6" r="2" fill="#2ca02c"/>
<polygon points="276.0,79.6 322.7,77.2 369.3,102.0 392.7,116.4 416.0,115.6 439.3,115.3 462.7,118.0 486.0,116.9 486.0,119.9 462.7,118.3 439.3,115.5 416.0,116.0 392.7,117.0 369.3,102.9 322.7,78.6 276.0,95.6" fill="#1f77b4" opacity="0.11"/>
<polyline points="276.0,94.6 322.7,78.0 369.3,102.6 392.7,116.7 416.0,115.8 439.3,115.4 462.7,118.1 486.0,118.6" fill="none" stroke="#1f77b4" stroke-width="1.6"/>
<circle cx="276.0" cy="94.6" r="2" fill="#1f77b4"/>
<circle cx="322.7" cy="78.0" r="2" fill="#1f77b4"/>
<circle cx="369.3" cy="102.6" r="2" fill="#1f77b4"/>
<circle cx="392.7" cy="116.7" r="2" fill="#1f77b4"/>
<circle cx="416.0" cy="115.8" r="2" fill="#1f77b4"/>
<circle cx="439.3" cy="115.4" r="2" fill="#1f77b4"/>
<circle cx="462.7" cy="118.1" r="2" fill="#1f77b4"/>
<circle cx="486.0" cy="118.6" r="2" fill="#1f77b4"/>
<text x="381.0" y="55" text-anchor="middle" font-size="12" font-weight="bold">symm</text>
<line x1="276.0" y1="60" x2="276.0" y2="198" stroke="#f4f4f4"/>
<text x="276.0" y="209" text-anchor="middle" font-size="8" fill="#999">8</text>
<line x1="322.7" y1="60" x2="322.7" y2="198" stroke="#f4f4f4"/>
<text x="322.7" y="209" text-anchor="middle" font-size="8" fill="#999">32</text>
<line x1="369.3" y1="60" x2="369.3" y2="198" stroke="#f4f4f4"/>
<text x="369.3" y="209" text-anchor="middle" font-size="8" fill="#999">128</text>
<line x1="392.7" y1="60" x2="392.7" y2="198" stroke="#f4f4f4"/>
<text x="392.7" y="209" text-anchor="middle" font-size="8" fill="#999">256</text>
<line x1="416.0" y1="60" x2="416.0" y2="198" stroke="#f4f4f4"/>
<text x="416.0" y="209" text-anchor="middle" font-size="8" fill="#999">512</text>
<line x1="439.3" y1="60" x2="439.3" y2="198" stroke="#f4f4f4"/>
<text x="439.3" y="209" text-anchor="middle" font-size="8" fill="#999">1k</text>
<line x1="462.7" y1="60" x2="462.7" y2="198" stroke="#f4f4f4"/>
<text x="462.7" y="209" text-anchor="middle" font-size="8" fill="#999">2k</text>
<line x1="486.0" y1="60" x2="486.0" y2="198" stroke="#f4f4f4"/>
<text x="486.0" y="209" text-anchor="middle" font-size="8" fill="#999">4k</text>
<rect x="506" y="60" width="210" height="138" fill="none" stroke="#e2e2e2"/>
<line x1="506" y1="120.79526073762271" x2="716" y2="120.79526073762271" stroke="#d33" stroke-dasharray="4 3"/>
<text x="502" y="201.0" text-anchor="end" font-size="9" fill="#999">0.5×</text>
<text x="502" y="123.79526073762271" text-anchor="end" font-size="9" fill="#999">1.0×</text>
<polygon points="506.0,74.7 552.7,86.9 599.3,116.2 622.7,119.0 646.0,116.8 669.3,116.6 692.7,118.7 716.0,115.4 716.0,116.8 692.7,119.3 669.3,117.4 646.0,117.7 622.7,123.5 599.3,124.3 552.7,106.6 506.0,79.5" fill="#d62728" opacity="0.11"/>
<polyline points="506.0,76.6 552.7,98.2 599.3,119.5 622.7,120.2 646.0,117.3 669.3,116.9 692.7,118.9 716.0,115.9" fill="none" stroke="#d62728" stroke-width="1.6"/>
<circle cx="506.0" cy="76.6" r="2" fill="#d62728"/>
<circle cx="552.7" cy="98.2" r="2" fill="#d62728"/>
<circle cx="599.3" cy="119.5" r="2" fill="#d62728"/>
<circle cx="622.7" cy="120.2" r="2" fill="#d62728"/>
<circle cx="646.0" cy="117.3" r="2" fill="#d62728"/>
<circle cx="669.3" cy="116.9" r="2" fill="#d62728"/>
<circle cx="692.7" cy="118.9" r="2" fill="#d62728"/>
<circle cx="716.0" cy="115.9" r="2" fill="#d62728"/>
<polygon points="506.0,68.6 552.7,88.8 599.3,97.0 622.7,93.6 646.0,97.2 669.3,103.5 692.7,112.4 716.0,115.3 716.0,116.1 692.7,114.3 669.3,106.4 646.0,98.0 622.7,94.7 599.3,100.5 552.7,92.8 506.0,79.5" fill="#2ca02c" opacity="0.11"/>
<polyline points="506.0,72.3 552.7,90.1 599.3,97.8 622.7,93.7 646.0,97.5 669.3,104.0 692.7,113.4 716.0,115.8" fill="none" stroke="#2ca02c" stroke-width="1.6"/>
<circle cx="506.0" cy="72.3" r="2" fill="#2ca02c"/>
<circle cx="552.7" cy="90.1" r="2" fill="#2ca02c"/>
<circle cx="599.3" cy="97.8" r="2" fill="#2ca02c"/>
<circle cx="622.7" cy="93.7" r="2" fill="#2ca02c"/>
<circle cx="646.0" cy="97.5" r="2" fill="#2ca02c"/>
<circle cx="669.3" cy="104.0" r="2" fill="#2ca02c"/>
<circle cx="692.7" cy="113.4" r="2" fill="#2ca02c"/>
<circle cx="716.0" cy="115.8" r="2" fill="#2ca02c"/>
<polygon points="506.0,82.8 552.7,93.5 599.3,104.2 622.7,107.1 646.0,110.6 669.3,118.0 692.7,124.1 716.0,126.6 716.0,128.1 692.7,125.5 669.3,118.7 646.0,110.9 622.7,108.9 599.3,104.8 552.7,95.1 506.0,86.2" fill="#1f77b4" opacity="0.11"/>
<polyline points="506.0,84.6 552.7,93.9 599.3,104.5 622.7,107.5 646.0,110.8 669.3,118.2 692.7,124.4 716.0,127.4" fill="none" stroke="#1f77b4" stroke-width="1.6"/>
<circle cx="506.0" cy="84.6" r="2" fill="#1f77b4"/>
<circle cx="552.7" cy="93.9" r="2" fill="#1f77b4"/>
<circle cx="599.3" cy="104.5" r="2" fill="#1f77b4"/>
<circle cx="622.7" cy="107.5" r="2" fill="#1f77b4"/>
<circle cx="646.0" cy="110.8" r="2" fill="#1f77b4"/>
<circle cx="669.3" cy="118.2" r="2" fill="#1f77b4"/>
<circle cx="692.7" cy="124.4" r="2" fill="#1f77b4"/>
<circle cx="716.0" cy="127.4" r="2" fill="#1f77b4"/>
<text x="611.0" y="55" text-anchor="middle" font-size="12" font-weight="bold">syrk</text>
<line x1="506.0" y1="60" x2="506.0" y2="198" stroke="#f4f4f4"/>
<text x="506.0" y="209" text-anchor="middle" font-size="8" fill="#999">8</text>
<line x1="552.7" y1="60" x2="552.7" y2="198" stroke="#f4f4f4"/>
<text x="552.7" y="209" text-anchor="middle" font-size="8" fill="#999">32</text>
<line x1="599.3" y1="60" x2="599.3" y2="198" stroke="#f4f4f4"/>
<text x="599.3" y="209" text-anchor="middle" font-size="8" fill="#999">128</text>
<line x1="622.7" y1="60" x2="622.7" y2="198" stroke="#f4f4f4"/>
<text x="622.7" y="209" text-anchor="middle" font-size="8" fill="#999">256</text>
<line x1="646.0" y1="60" x2="646.0" y2="198" stroke="#f4f4f4"/>
<text x="646.0" y="209" text-anchor="middle" font-size="8" fill="#999">512</text>
<line x1="669.3" y1="60" x2="669.3" y2="198" stroke="#f4f4f4"/>
<text x="669.3" y="209" text-anchor="middle" font-size="8" fill="#999">1k</text>
<line x1="692.7" y1="60" x2="692.7" y2="198" stroke="#f4f4f4"/>
<text x="692.7" y="209" text-anchor="middle" font-size="8" fill="#999">2k</text>
<line x1="716.0" y1="60" x2="716.0" y2="198" stroke="#f4f4f4"/>
<text x="716.0" y="209" text-anchor="middle" font-size="8" fill="#999">4k</text>
<rect x="736" y="60" width="210" height="138" fill="none" stroke="#e2e2e2"/>
<line x1="736" y1="125.08464576375839" x2="946" y2="125.08464576375839" stroke="#d33" stroke-dasharray="4 3"/>
<text x="732" y="201.0" text-anchor="end" font-size="9" fill="#999">0.5×</text>
<text x="732" y="128.08464576375837" text-anchor="end" font-size="9" fill="#999">1.0×</text>
<polygon points="736.0,68.1 782.7,91.0 829.3,132.1 852.7,128.4 876.0,124.9 899.3,122.5 922.7,122.6 946.0,119.2 946.0,120.8 922.7,123.6 899.3,123.0 876.0,126.0 852.7,129.1 829.3,144.4 782.7,105.0 736.0,71.4" fill="#d62728" opacity="0.11"/>
<polyline points="736.0,70.1 782.7,94.3 829.3,135.2 852.7,128.7 876.0,125.5 899.3,122.8 922.7,123.0 946.0,120.0" fill="none" stroke="#d62728" stroke-width="1.6"/>
<circle cx="736.0" cy="70.1" r="2" fill="#d62728"/>
<circle cx="782.7" cy="94.3" r="2" fill="#d62728"/>
<circle cx="829.3" cy="135.2" r="2" fill="#d62728"/>
<circle cx="852.7" cy="128.7" r="2" fill="#d62728"/>
<circle cx="876.0" cy="125.5" r="2" fill="#d62728"/>
<circle cx="899.3" cy="122.8" r="2" fill="#d62728"/>
<circle cx="922.7" cy="123.0" r="2" fill="#d62728"/>
<circle cx="946.0" cy="120.0" r="2" fill="#d62728"/>
<polygon points="736.0,74.9 782.7,84.1 829.3,82.2 852.7,88.2 876.0,104.8 899.3,114.4 922.7,121.1 946.0,122.0 946.0,125.3 922.7,127.2 899.3,117.7 876.0,107.8 852.7,90.1 829.3,88.4 782.7,89.9 736.0,89.1" fill="#2ca02c" opacity="0.11"/>
<polyline points="736.0,79.7 782.7,86.7 829.3,83.3 852.7,88.9 876.0,106.3 899.3,115.4 922.7,125.1 946.0,123.5" fill="none" stroke="#2ca02c" stroke-width="1.6"/>
<circle cx="736.0" cy="79.7" r="2" fill="#2ca02c"/>
<circle cx="782.7" cy="86.7" r="2" fill="#2ca02c"/>
<circle cx="829.3" cy="83.3" r="2" fill="#2ca02c"/>
<circle cx="852.7" cy="88.9" r="2" fill="#2ca02c"/>
<circle cx="876.0" cy="106.3" r="2" fill="#2ca02c"/>
<circle cx="899.3" cy="115.4" r="2" fill="#2ca02c"/>
<circle cx="922.7" cy="125.1" r="2" fill="#2ca02c"/>
<circle cx="946.0" cy="123.5" r="2" fill="#2ca02c"/>
<polygon points="736.0,81.2 782.7,96.4 829.3,100.6 852.7,104.0 876.0,118.6 899.3,125.4 922.7,128.1 946.0,128.8 946.0,130.0 922.7,128.4 899.3,125.7 876.0,119.0 852.7,106.5 829.3,101.2 782.7,97.6 736.0,103.0" fill="#1f77b4" opacity="0.11"/>
<polyline points="736.0,84.4 782.7,97.0 829.3,100.9 852.7,105.0 876.0,118.8 899.3,125.6 922.7,128.2 946.0,129.2" fill="none" stroke="#1f77b4" stroke-width="1.6"/>
<circle cx="736.0" cy="84.4" r="2" fill="#1f77b4"/>
<circle cx="782.7" cy="97.0" r="2" fill="#1f77b4"/>
<circle cx="829.3" cy="100.9" r="2" fill="#1f77b4"/>
<circle cx="852.7" cy="105.0" r="2" fill="#1f77b4"/>
<circle cx="876.0" cy="118.8" r="2" fill="#1f77b4"/>
<circle cx="899.3" cy="125.6" r="2" fill="#1f77b4"/>
<circle cx="922.7" cy="128.2" r="2" fill="#1f77b4"/>
<circle cx="946.0" cy="129.2" r="2" fill="#1f77b4"/>
<text x="841.0" y="55" text-anchor="middle" font-size="12" font-weight="bold">syr2k</text>
<line x1="736.0" y1="60" x2="736.0" y2="198" stroke="#f4f4f4"/>
<text x="736.0" y="209" text-anchor="middle" font-size="8" fill="#999">8</text>
<line x1="782.7" y1="60" x2="782.7" y2="198" stroke="#f4f4f4"/>
<text x="782.7" y="209" text-anchor="middle" font-size="8" fill="#999">32</text>
<line x1="829.3" y1="60" x2="829.3" y2="198" stroke="#f4f4f4"/>
<text x="829.3" y="209" text-anchor="middle" font-size="8" fill="#999">128</text>
<line x1="852.7" y1="60" x2="852.7" y2="198" stroke="#f4f4f4"/>
<text x="852.7" y="209" text-anchor="middle" font-size="8" fill="#999">256</text>
<line x1="876.0" y1="60" x2="876.0" y2="198" stroke="#f4f4f4"/>
<text x="876.0" y="209" text-anchor="middle" font-size="8" fill="#999">512</text>
<line x1="899.3" y1="60" x2="899.3" y2="198" stroke="#f4f4f4"/>
<text x="899.3" y="209" text-anchor="middle" font-size="8" fill="#999">1k</text>
<line x1="922.7" y1="60" x2="922.7" y2="198" stroke="#f4f4f4"/>
<text x="922.7" y="209" text-anchor="middle" font-size="8" fill="#999">2k</text>
<line x1="946.0" y1="60" x2="946.0" y2="198" stroke="#f4f4f4"/>
<text x="946.0" y="209" text-anchor="middle" font-size="8" fill="#999">4k</text>
<rect x="46" y="232" width="210" height="138" fill="none" stroke="#e2e2e2"/>
<line x1="46" y1="291.1945857893609" x2="256" y2="291.1945857893609" stroke="#d33" stroke-dasharray="4 3"/>
<text x="42" y="373.0" text-anchor="end" font-size="9" fill="#999">0.5×</text>
<text x="42" y="294.1945857893609" text-anchor="end" font-size="9" fill="#999">1.0×</text>
<text x="42" y="235.21178830187222" text-anchor="end" font-size="9" fill="#999">1.68×</text>
<polygon points="46.0,312.5 92.7,266.9 139.3,269.4 162.7,274.7 186.0,276.7 209.3,280.6 232.7,282.8 256.0,281.4 256.0,282.5 232.7,284.1 209.3,282.7 186.0,279.0 162.7,277.0 139.3,279.1 92.7,301.7 46.0,313.9" fill="#d62728" opacity="0.11"/>
<polyline points="46.0,312.8 92.7,280.9 139.3,274.7 162.7,276.0 186.0,278.1 209.3,280.8 232.7,283.5 256.0,282.1" fill="none" stroke="#d62728" stroke-width="1.6"/>
<circle cx="46.0" cy="312.8" r="2" fill="#d62728"/>
<circle cx="92.7" cy="280.9" r="2" fill="#d62728"/>
<circle cx="139.3" cy="274.7" r="2" fill="#d62728"/>
<circle cx="162.7" cy="276.0" r="2" fill="#d62728"/>
<circle cx="186.0" cy="278.1" r="2" fill="#d62728"/>
<circle cx="209.3" cy="280.8" r="2" fill="#d62728"/>
<circle cx="232.7" cy="283.5" r="2" fill="#d62728"/>
<circle cx="256.0" cy="282.1" r="2" fill="#d62728"/>
<polygon points="46.0,240.7 92.7,271.8 139.3,263.2 162.7,265.8 186.0,276.8 209.3,279.3 232.7,284.5 256.0,282.6 256.0,284.2 232.7,285.7 209.3,281.6 186.0,279.7 162.7,267.1 139.3,265.0 92.7,284.3 46.0,257.2" fill="#2ca02c" opacity="0.11"/>
<polyline points="46.0,243.3 92.7,276.3 139.3,264.1 162.7,266.0 186.0,278.3 209.3,280.0 232.7,284.8 256.0,283.0" fill="none" stroke="#2ca02c" stroke-width="1.6"/>
<circle cx="46.0" cy="243.3" r="2" fill="#2ca02c"/>
<circle cx="92.7" cy="276.3" r="2" fill="#2ca02c"/>
<circle cx="139.3" cy="264.1" r="2" fill="#2ca02c"/>
<circle cx="162.7" cy="266.0" r="2" fill="#2ca02c"/>
<circle cx="186.0" cy="278.3" r="2" fill="#2ca02c"/>
<circle cx="209.3" cy="280.0" r="2" fill="#2ca02c"/>
<circle cx="232.7" cy="284.8" r="2" fill="#2ca02c"/>
<circle cx="256.0" cy="283.0" r="2" fill="#2ca02c"/>
<polygon points="46.0,262.8 92.7,282.8 139.3,274.9 162.7,278.3 186.0,290.8 209.3,292.3 232.7,294.1 256.0,295.5 256.0,296.0 232.7,295.3 209.3,292.8 186.0,291.6 162.7,279.0 139.3,275.7 92.7,285.4 46.0,270.5" fill="#1f77b4" opacity="0.11"/>
<polyline points="46.0,269.1 92.7,283.5 139.3,275.4 162.7,278.5 186.0,291.3 209.3,292.5 232.7,294.4 256.0,295.8" fill="none" stroke="#1f77b4" stroke-width="1.6"/>
<circle cx="46.0" cy="269.1" r="2" fill="#1f77b4"/>
<circle cx="92.7" cy="283.5" r="2" fill="#1f77b4"/>
<circle cx="139.3" cy="275.4" r="2" fill="#1f77b4"/>
<circle cx="162.7" cy="278.5" r="2" fill="#1f77b4"/>
<circle cx="186.0" cy="291.3" r="2" fill="#1f77b4"/>
<circle cx="209.3" cy="292.5" r="2" fill="#1f77b4"/>
<circle cx="232.7" cy="294.4" r="2" fill="#1f77b4"/>
<circle cx="256.0" cy="295.8" r="2" fill="#1f77b4"/>
<text x="151.0" y="227" text-anchor="middle" font-size="12" font-weight="bold">trmm</text>
<line x1="46.0" y1="232" x2="46.0" y2="370" stroke="#f4f4f4"/>
<text x="46.0" y="381" text-anchor="middle" font-size="8" fill="#999">8</text>
<line x1="92.7" y1="232" x2="92.7" y2="370" stroke="#f4f4f4"/>
<text x="92.7" y="381" text-anchor="middle" font-size="8" fill="#999">32</text>
<line x1="139.3" y1="232" x2="139.3" y2="370" stroke="#f4f4f4"/>
<text x="139.3" y="381" text-anchor="middle" font-size="8" fill="#999">128</text>
<line x1="162.7" y1="232" x2="162.7" y2="370" stroke="#f4f4f4"/>
<text x="162.7" y="381" text-anchor="middle" font-size="8" fill="#999">256</text>
<line x1="186.0" y1="232" x2="186.0" y2="370" stroke="#f4f4f4"/>
<text x="186.0" y="381" text-anchor="middle" font-size="8" fill="#999">512</text>
<line x1="209.3" y1="232" x2="209.3" y2="370" stroke="#f4f4f4"/>
<text x="209.3" y="381" text-anchor="middle" font-size="8" fill="#999">1k</text>
<line x1="232.7" y1="232" x2="232.7" y2="370" stroke="#f4f4f4"/>
<text x="232.7" y="381" text-anchor="middle" font-size="8" fill="#999">2k</text>
<line x1="256.0" y1="232" x2="256.0" y2="370" stroke="#f4f4f4"/>
<text x="256.0" y="381" text-anchor="middle" font-size="8" fill="#999">4k</text>
<rect x="276" y="232" width="210" height="138" fill="none" stroke="#e2e2e2"/>
<line x1="276" y1="307.2861872437063" x2="486" y2="307.2861872437063" stroke="#d33" stroke-dasharray="4 3"/>
<text x="272" y="373.0" text-anchor="end" font-size="9" fill="#999">0.5×</text>
<text x="272" y="310.2861872437063" text-anchor="end" font-size="9" fill="#999">1.0×</text>
<polygon points="276.0,297.2 322.7,307.6 369.3,307.9 392.7,308.8 416.0,301.2 439.3,302.5 462.7,300.0 486.0,296.9 486.0,307.6 462.7,302.4 439.3,304.1 416.0,304.1 392.7,309.4 369.3,312.3 322.7,323.0 276.0,300.0" fill="#d62728" opacity="0.11"/>
<polyline points="276.0,298.3 322.7,312.5 369.3,311.1 392.7,309.1 416.0,302.3 439.3,303.1 462.7,300.9 486.0,305.5" fill="none" stroke="#d62728" stroke-width="1.6"/>
<circle cx="276.0" cy="298.3" r="2" fill="#d62728"/>
<circle cx="322.7" cy="312.5" r="2" fill="#d62728"/>
<circle cx="369.3" cy="311.1" r="2" fill="#d62728"/>
<circle cx="392.7" cy="309.1" r="2" fill="#d62728"/>
<circle cx="416.0" cy="302.3" r="2" fill="#d62728"/>
<circle cx="439.3" cy="303.1" r="2" fill="#d62728"/>
<circle cx="462.7" cy="300.9" r="2" fill="#d62728"/>
<circle cx="486.0" cy="305.5" r="2" fill="#d62728"/>
<polygon points="276.0,249.0 322.7,239.0 369.3,241.1 392.7,246.9 416.0,274.2 439.3,284.2 462.7,294.8 486.0,297.7 486.0,303.1 462.7,299.3 439.3,286.0 416.0,274.8 392.7,249.3 369.3,242.9 322.7,249.0 276.0,266.5" fill="#2ca02c" opacity="0.11"/>
<polyline points="276.0,254.3 322.7,240.8 369.3,241.7 392.7,247.2 416.0,274.6 439.3,285.0 462.7,296.7 486.0,300.9" fill="none" stroke="#2ca02c" stroke-width="1.6"/>
<circle cx="276.0" cy="254.3" r="2" fill="#2ca02c"/>
<circle cx="322.7" cy="240.8" r="2" fill="#2ca02c"/>
<circle cx="369.3" cy="241.7" r="2" fill="#2ca02c"/>
<circle cx="392.7" cy="247.2" r="2" fill="#2ca02c"/>
<circle cx="416.0" cy="274.6" r="2" fill="#2ca02c"/>
<circle cx="439.3" cy="285.0" r="2" fill="#2ca02c"/>
<circle cx="462.7" cy="296.7" r="2" fill="#2ca02c"/>
<circle cx="486.0" cy="300.9" r="2" fill="#2ca02c"/>
<polygon points="276.0,267.1 322.7,247.9 369.3,241.7 392.7,244.4 416.0,279.1 439.3,290.3 462.7,300.0 486.0,302.5 486.0,315.4 462.7,304.0 439.3,290.7 416.0,279.9 392.7,245.9 369.3,242.3 322.7,250.0 276.0,273.9" fill="#1f77b4" opacity="0.11"/>
<polyline points="276.0,269.9 322.7,248.7 369.3,242.0 392.7,245.3 416.0,279.5 439.3,290.4 462.7,301.5 486.0,314.1" fill="none" stroke="#1f77b4" stroke-width="1.6"/>
<circle cx="276.0" cy="269.9" r="2" fill="#1f77b4"/>
<circle cx="322.7" cy="248.7" r="2" fill="#1f77b4"/>
<circle cx="369.3" cy="242.0" r="2" fill="#1f77b4"/>
<circle cx="392.7" cy="245.3" r="2" fill="#1f77b4"/>
<circle cx="416.0" cy="279.5" r="2" fill="#1f77b4"/>
<circle cx="439.3" cy="290.4" r="2" fill="#1f77b4"/>
<circle cx="462.7" cy="301.5" r="2" fill="#1f77b4"/>
<circle cx="486.0" cy="314.1" r="2" fill="#1f77b4"/>
<text x="381.0" y="227" text-anchor="middle" font-size="12" font-weight="bold">trsm</text>
<line x1="276.0" y1="232" x2="276.0" y2="370" stroke="#f4f4f4"/>
<text x="276.0" y="381" text-anchor="middle" font-size="8" fill="#999">8</text>
<line x1="322.7" y1="232" x2="322.7" y2="370" stroke="#f4f4f4"/>
<text x="322.7" y="381" text-anchor="middle" font-size="8" fill="#999">32</text>
<line x1="369.3" y1="232" x2="369.3" y2="370" stroke="#f4f4f4"/>
<text x="369.3" y="381" text-anchor="middle" font-size="8" fill="#999">128</text>
<line x1="392.7" y1="232" x2="392.7" y2="370" stroke="#f4f4f4"/>
<text x="392.7" y="381" text-anchor="middle" font-size="8" fill="#999">256</text>
<line x1="416.0" y1="232" x2="416.0" y2="370" stroke="#f4f4f4"/>
<text x="416.0" y="381" text-anchor="middle" font-size="8" fill="#999">512</text>
<line x1="439.3" y1="232" x2="439.3" y2="370" stroke="#f4f4f4"/>
<text x="439.3" y="381" text-anchor="middle" font-size="8" fill="#999">1k</text>
<line x1="462.7" y1="232" x2="462.7" y2="370" stroke="#f4f4f4"/>
<text x="462.7" y="381" text-anchor="middle" font-size="8" fill="#999">2k</text>
<line x1="486.0" y1="232" x2="486.0" y2="370" stroke="#f4f4f4"/>
<text x="486.0" y="381" text-anchor="middle" font-size="8" fill="#999">4k</text>
</svg>
