<svg xmlns="http://www.w3.org/2000/svg" width="900" height="440" font-family="sans-serif">
<rect width="900" height="440" fill="white"/>
<text x="450.0" y="28" text-anchor="middle" font-size="18" font-weight="bold">Complex BLAS-2: PureBLAS / OpenBLAS (AVX2, 1 thread, ComplexF64)</text>
<line x1="60" y1="358.0" x2="880" y2="358.0" stroke="#eee"/>
<text x="52" y="362.0" text-anchor="end" font-size="11" fill="#666">0×</text>
<line x1="60" y1="279.914563244163" x2="880" y2="279.914563244163" stroke="#eee"/>
<text x="52" y="283.914563244163" text-anchor="end" font-size="11" fill="#666">0.5×</text>
<line x1="60" y1="201.8291264883259" x2="880" y2="201.8291264883259" stroke="#eee"/>
<text x="52" y="205.8291264883259" text-anchor="end" font-size="11" fill="#666">1×</text>
<line x1="60" y1="123.74368973248887" x2="880" y2="123.74368973248887" stroke="#eee"/>
<text x="52" y="127.74368973248887" text-anchor="end" font-size="11" fill="#666">1.5×</text>
<line x1="60" y1="201.8291264883259" x2="880" y2="201.8291264883259" stroke="#888" stroke-width="1"/>
<line x1="60" y1="208.07596142879288" x2="880" y2="208.07596142879288" stroke="#d33" stroke-width="1.5" stroke-dasharray="6 4"/>
<text x="880" y="203.07596142879288" text-anchor="end" font-size="11" fill="#d33">0.96× gate</text>
<polygon points="109.3,198.8 111.3,198.4 113.6,198.1 116.1,197.7 118.7,197.3 121.4,197.0 124.2,196.6 126.8,196.3 129.3,195.9 131.5,195.5 133.3,195.2 134.5,194.8 135.3,194.4 135.4,194.1 135.0,193.7 134.0,193.4 132.5,193.0 130.6,192.6 128.4,192.3 125.9,191.9 123.3,191.5 120.7,191.2 118.2,190.8 115.8,190.5 113.7,190.1 111.8,189.7 110.3,189.4 109.0,189.0 108.1,188.6 107.4,188.3 107.0,187.9 106.7,187.6 106.7,187.2 106.8,186.8 107.0,186.5 107.4,186.1 107.8,185.7 108.2,185.4 108.6,185.0 109.1,184.7 109.5,184.3 110.0,183.9 110.4,183.6 110.9,183.2 111.3,182.9 111.8,182.5 112.3,182.1 112.8,181.8 113.3,181.4 113.9,181.0 114.5,180.7 115.1,180.3 115.7,180.0 116.2,179.6 116.7,179.2 117.2,178.9 117.5,178.5 117.6,178.1 117.6,177.8 117.5,177.4 117.1,177.1 116.5,176.7 115.8,176.3 114.9,176.0 113.8,175.6 112.6,175.2 111.4,174.9 110.1,174.5 108.9,174.2 107.7,173.8 106.6,173.4 105.6,173.1 96.4,173.1 95.4,173.4 94.3,173.8 93.1,174.2 91.9,174.5 90.6,174.9 89.4,175.2 88.2,175.6 87.1,176.0 86.2,176.3 85.5,176.7 84.9,177.1 84.5,177.4 84.4,177.8 84.4,178.1 84.5,178.5 84.8,178.9 85.3,179.2 85.8,179.6 86.3,180.0 86.9,180.3 87.5,180.7 88.1,181.0 88.7,181.4 89.2,181.8 89.7,182.1 90.2,182.5 90.7,182.9 91.1,183.2 91.6,183.6 92.0,183.9 92.5,184.3 92.9,184.7 93.4,185.0 93.8,185.4 94.2,185.7 94.6,186.1 95.0,186.5 95.2,186.8 95.3,187.2 95.3,187.6 95.0,187.9 94.6,188.3 93.9,188.6 93.0,189.0 91.7,189.4 90.2,189.7 88.3,190.1 86.2,190.5 83.8,190.8 81.3,191.2 78.7,191.5 76.1,191.9 73.6,192.3 71.4,192.6 69.5,193.0 68.0,193.4 67.0,193.7 66.6,194.1 66.7,194.4 67.5,194.8 68.7,195.2 70.5,195.5 72.7,195.9 75.2,196.3 77.8,196.6 80.6,197.0 83.3,197.3 85.9,197.7 88.4,198.1 90.7,198.4 92.7,198.8" fill="#2a8" opacity="0.5" stroke="#2a8" stroke-width="1"/>
<line x1="70.7" y1="192.7489506533631" x2="131.3" y2="192.7489506533631" stroke="#114" stroke-width="2"/>
<circle cx="101.0" cy="194.96078702958954" r="2.4" fill="#114"/>
<text x="101.0" y="169.81233544208646" text-anchor="middle" font-size="11">1.06</text>
<text x="101.0" y="376" text-anchor="middle" font-size="12">zgemvN</text>
<polygon points="187.3,237.3 188.5,236.4 189.8,235.5 191.3,234.7 192.8,233.8 194.2,232.9 195.5,232.1 196.6,231.2 197.3,230.3 197.8,229.5 198.0,228.6 197.9,227.7 197.7,226.8 197.4,226.0 197.2,225.1 197.1,224.2 197.2,223.4 197.6,222.5 198.2,221.6 199.2,220.8 200.4,219.9 201.7,219.0 203.3,218.2 204.8,217.3 206.4,216.4 208.0,215.6 209.5,214.7 211.0,213.8 212.3,213.0 213.6,212.1 214.7,211.2 215.7,210.4 216.5,209.5 217.1,208.6 217.4,207.8 217.4,206.9 217.1,206.0 216.3,205.2 215.1,204.3 213.5,203.4 211.6,202.6 209.4,201.7 207.2,200.8 204.9,200.0 202.8,199.1 201.0,198.2 199.6,197.3 198.7,196.5 198.2,195.6 198.1,194.7 198.4,193.9 198.9,193.0 199.6,192.1 200.3,191.3 201.0,190.4 201.7,189.5 202.2,188.7 202.5,187.8 202.7,186.9 202.8,186.1 202.7,185.2 202.4,184.3 202.0,183.5 201.3,182.6 200.4,181.7 199.2,180.9 197.8,180.0 196.2,179.1 194.5,178.3 192.8,177.4 191.1,176.5 189.6,175.7 176.4,175.7 174.9,176.5 173.2,177.4 171.5,178.3 169.8,179.1 168.2,180.0 166.8,180.9 165.6,181.7 164.7,182.6 164.0,183.5 163.6,184.3 163.3,185.2 163.2,186.1 163.3,186.9 163.5,187.8 163.8,188.7 164.3,189.5 165.0,190.4 165.7,191.3 166.4,192.1 167.1,193.0 167.6,193.9 167.9,194.7 167.8,195.6 167.3,196.5 166.4,197.3 165.0,198.2 163.2,199.1 161.1,200.0 158.8,200.8 156.6,201.7 154.4,202.6 152.5,203.4 150.9,204.3 149.7,205.2 148.9,206.0 148.6,206.9 148.6,207.8 148.9,208.6 149.5,209.5 150.3,210.4 151.3,211.2 152.4,212.1 153.7,213.0 155.0,213.8 156.5,214.7 158.0,215.6 159.6,216.4 161.2,217.3 162.7,218.2 164.3,219.0 165.6,219.9 166.8,220.8 167.8,221.6 168.4,222.5 168.8,223.4 168.9,224.2 168.8,225.1 168.6,226.0 168.3,226.8 168.1,227.7 168.0,228.6 168.2,229.5 168.7,230.3 169.4,231.2 170.5,232.1 171.8,232.9 173.2,233.8 174.7,234.7 176.2,235.5 177.5,236.4 178.7,237.3" fill="#d33" opacity="0.5" stroke="#d33" stroke-width="1"/>
<line x1="149.7" y1="205.1145162855049" x2="216.3" y2="205.1145162855049" stroke="#114" stroke-width="2"/>
<circle cx="183.0" cy="229.09921368877224" r="2.4" fill="#114"/>
<text x="183.0" y="175.87208532195882" text-anchor="middle" font-size="11">0.98</text>
<text x="183.0" y="376" text-anchor="middle" font-size="12">zgemvT</text>
<polygon points="268.4,232.5 269.5,231.8 270.9,231.1 272.4,230.4 274.1,229.7 276.0,229.0 277.9,228.3 279.9,227.5 281.7,226.8 283.5,226.1 285.0,225.4 286.2,224.7 287.2,224.0 288.0,223.3 288.5,222.5 288.9,221.8 289.1,221.1 289.4,220.4 289.7,219.7 290.1,219.0 290.6,218.3 291.3,217.6 292.2,216.8 293.2,216.1 294.3,215.4 295.4,214.7 296.5,214.0 297.5,213.3 298.3,212.6 298.9,211.8 299.3,211.1 299.4,210.4 299.4,209.7 299.2,209.0 298.8,208.3 298.4,207.6 297.8,206.9 297.1,206.1 296.2,205.4 295.1,204.7 293.8,204.0 292.3,203.3 290.7,202.6 288.9,201.9 287.1,201.1 285.3,200.4 283.7,199.7 282.5,199.0 281.6,198.3 281.2,197.6 281.3,196.9 282.0,196.2 283.2,195.4 284.8,194.7 286.6,194.0 288.6,193.3 290.6,192.6 292.3,191.9 293.6,191.2 294.5,190.4 294.7,189.7 294.3,189.0 293.2,188.3 291.5,187.6 289.4,186.9 286.9,186.2 284.1,185.5 281.3,184.7 278.6,184.0 276.1,183.3 273.8,182.6 271.8,181.9 258.2,181.9 256.2,182.6 253.9,183.3 251.4,184.0 248.7,184.7 245.9,185.5 243.1,186.2 240.6,186.9 238.5,187.6 236.8,188.3 235.7,189.0 235.3,189.7 235.5,190.4 236.4,191.2 237.7,191.9 239.4,192.6 241.4,193.3 243.4,194.0 245.2,194.7 246.8,195.4 248.0,196.2 248.7,196.9 248.8,197.6 248.4,198.3 247.5,199.0 246.3,199.7 244.7,200.4 242.9,201.1 241.1,201.9 239.3,202.6 237.7,203.3 236.2,204.0 234.9,204.7 233.8,205.4 232.9,206.1 232.2,206.9 231.6,207.6 231.2,208.3 230.8,209.0 230.6,209.7 230.6,210.4 230.7,211.1 231.1,211.8 231.7,212.6 232.5,213.3 233.5,214.0 234.6,214.7 235.7,215.4 236.8,216.1 237.8,216.8 238.7,217.6 239.4,218.3 239.9,219.0 240.3,219.7 240.6,220.4 240.9,221.1 241.1,221.8 241.5,222.5 242.0,223.3 242.8,224.0 243.8,224.7 245.0,225.4 246.5,226.1 248.3,226.8 250.1,227.5 252.1,228.3 254.0,229.0 255.9,229.7 257.6,230.4 259.1,231.1 260.5,231.8 261.6,232.5" fill="#d33" opacity="0.5" stroke="#d33" stroke-width="1"/>
<line x1="231.6" y1="207.5875635640805" x2="298.4" y2="207.5875635640805" stroke="#114" stroke-width="2"/>
<circle cx="265.0" cy="224.49348263465808" r="2.4" fill="#114"/>
<text x="265.0" y="181.03834989552928" text-anchor="middle" font-size="11">0.96</text>
<text x="265.0" y="376" text-anchor="middle" font-size="12">zgemvC</text>
<polygon points="351.5,217.9 352.9,216.9 354.5,215.8 356.3,214.7 358.5,213.7 360.9,212.6 363.5,211.5 366.2,210.5 369.1,209.4 371.9,208.3 374.6,207.3 377.0,206.2 379.0,205.1 380.4,204.1 381.3,203.0 381.4,202.0 380.8,200.9 379.5,199.8 377.6,198.8 375.1,197.7 372.2,196.6 369.1,195.6 366.0,194.5 362.9,193.4 360.1,192.4 357.5,191.3 355.4,190.2 353.7,189.2 352.4,188.1 351.6,187.0 351.1,186.0 351.0,184.9 351.1,183.9 351.5,182.8 352.0,181.7 352.7,180.7 353.3,179.6 353.9,178.5 354.4,177.5 354.7,176.4 354.9,175.3 354.8,174.3 354.6,173.2 354.2,172.1 353.6,171.1 352.9,170.0 352.3,168.9 351.6,167.9 351.0,166.8 350.5,165.8 350.3,164.7 350.1,163.6 350.2,162.6 350.5,161.5 350.9,160.4 351.5,159.4 352.1,158.3 352.8,157.2 353.5,156.2 354.1,155.1 354.5,154.0 354.8,153.0 354.9,151.9 354.8,150.8 354.5,149.8 353.9,148.7 353.3,147.6 352.6,146.6 351.8,145.5 351.0,144.5 350.2,143.4 349.5,142.3 344.5,142.3 343.8,143.4 343.0,144.5 342.2,145.5 341.4,146.6 340.7,147.6 340.1,148.7 339.5,149.8 339.2,150.8 339.1,151.9 339.2,153.0 339.5,154.0 339.9,155.1 340.5,156.2 341.2,157.2 341.9,158.3 342.5,159.4 343.1,160.4 343.5,161.5 343.8,162.6 343.9,163.6 343.7,164.7 343.5,165.8 343.0,166.8 342.4,167.9 341.7,168.9 341.1,170.0 340.4,171.1 339.8,172.1 339.4,173.2 339.2,174.3 339.1,175.3 339.3,176.4 339.6,177.5 340.1,178.5 340.7,179.6 341.3,180.7 342.0,181.7 342.5,182.8 342.9,183.9 343.0,184.9 342.9,186.0 342.4,187.0 341.6,188.1 340.3,189.2 338.6,190.2 336.5,191.3 333.9,192.4 331.1,193.4 328.0,194.5 324.9,195.6 321.8,196.6 318.9,197.7 316.4,198.8 314.5,199.8 313.2,200.9 312.6,202.0 312.7,203.0 313.6,204.1 315.0,205.1 317.0,206.2 319.4,207.3 322.1,208.3 324.9,209.4 327.8,210.5 330.5,211.5 333.1,212.6 335.5,213.7 337.7,214.7 339.5,215.8 341.1,216.9 342.5,217.9" fill="#d33" opacity="0.5" stroke="#d33" stroke-width="1"/>
<line x1="313.7" y1="200.34082548706496" x2="380.3" y2="200.34082548706496" stroke="#114" stroke-width="2"/>
<circle cx="347.0" cy="209.73461724300063" r="2.4" fill="#114"/>
<text x="347.0" y="143.8926945646768" text-anchor="middle" font-size="11">1.01</text>
<text x="347.0" y="376" text-anchor="middle" font-size="12">zgeru</text>
<polygon points="440.0,174.9 442.4,173.2 444.9,171.5 447.7,169.9 450.4,168.2 453.2,166.5 455.8,164.8 458.2,163.1 460.2,161.5 461.8,159.8 462.9,158.1 463.4,156.4 463.4,154.7 462.9,153.1 461.8,151.4 460.2,149.7 458.4,148.0 456.2,146.3 454.0,144.7 451.7,143.0 449.5,141.3 447.5,139.6 445.8,137.9 444.4,136.3 443.3,134.6 442.5,132.9 442.1,131.2 442.0,129.5 442.1,127.9 442.4,126.2 442.7,124.5 443.1,122.8 443.5,121.1 443.8,119.5 444.1,117.8 444.3,116.1 444.5,114.4 444.6,112.8 444.7,111.1 444.9,109.4 445.2,107.7 445.5,106.0 446.0,104.4 446.7,102.7 447.5,101.0 448.4,99.3 449.4,97.6 450.5,96.0 451.7,94.3 452.9,92.6 454.1,90.9 455.2,89.2 456.3,87.6 457.2,85.9 457.8,84.2 458.3,82.5 458.3,80.8 458.1,79.2 457.4,77.5 456.4,75.8 455.0,74.1 453.2,72.4 451.2,70.8 449.0,69.1 446.7,67.4 444.4,65.7 442.1,64.0 440.0,62.4 438.0,60.7 436.3,59.0 434.7,57.3 433.5,55.6 424.5,55.6 423.3,57.3 421.7,59.0 420.0,60.7 418.0,62.4 415.9,64.0 413.6,65.7 411.3,67.4 409.0,69.1 406.8,70.8 404.8,72.4 403.0,74.1 401.6,75.8 400.6,77.5 399.9,79.2 399.7,80.8 399.7,82.5 400.2,84.2 400.8,85.9 401.7,87.6 402.8,89.2 403.9,90.9 405.1,92.6 406.3,94.3 407.5,96.0 408.6,97.6 409.6,99.3 410.5,101.0 411.3,102.7 412.0,104.4 412.5,106.0 412.8,107.7 413.1,109.4 413.3,111.1 413.4,112.8 413.5,114.4 413.7,116.1 413.9,117.8 414.2,119.5 414.5,121.1 414.9,122.8 415.3,124.5 415.6,126.2 415.9,127.9 416.0,129.5 415.9,131.2 415.5,132.9 414.7,134.6 413.6,136.3 412.2,137.9 410.5,139.6 408.5,141.3 406.3,143.0 404.0,144.7 401.8,146.3 399.6,148.0 397.8,149.7 396.2,151.4 395.1,153.1 394.6,154.7 394.6,156.4 395.1,158.1 396.2,159.8 397.8,161.5 399.8,163.1 402.2,164.8 404.8,166.5 407.6,168.2 410.3,169.9 413.1,171.5 415.6,173.2 418.0,174.9" fill="#2a8" opacity="0.5" stroke="#2a8" stroke-width="1"/>
<line x1="414.1" y1="119.24767673284808" x2="443.9" y2="119.24767673284808" stroke="#114" stroke-width="2"/>
<circle cx="429.0" cy="162.6825600204461" r="2.4" fill="#114"/>
<text x="429.0" y="61.433962264150935" text-anchor="middle" font-size="11">1.53</text>
<text x="429.0" y="376" text-anchor="middle" font-size="12">zhemv</text>
<polygon points="516.2,209.9 517.8,207.8 519.7,205.8 521.9,203.7 524.4,201.6 527.1,199.5 530.1,197.4 533.1,195.3 536.1,193.2 538.9,191.2 541.4,189.1 543.4,187.0 544.8,184.9 545.4,182.8 545.3,180.7 544.4,178.6 542.7,176.6 540.4,174.5 537.6,172.4 534.5,170.3 531.3,168.2 528.1,166.1 525.1,164.0 522.4,161.9 520.0,159.9 518.1,157.8 516.7,155.7 515.7,153.6 515.1,151.5 514.9,149.4 514.9,147.3 515.2,145.3 515.7,143.2 516.3,141.1 516.9,139.0 517.5,136.9 518.0,134.8 518.3,132.7 518.5,130.7 518.5,128.6 518.3,126.5 517.9,124.4 517.4,122.3 516.8,120.2 516.1,118.1 515.4,116.1 514.7,114.0 514.2,111.9 513.7,109.8 513.4,107.7 513.3,105.6 513.3,103.5 513.5,101.5 513.8,99.4 514.3,97.3 514.8,95.2 515.5,93.1 516.1,91.0 516.7,88.9 517.3,86.8 517.8,84.8 518.1,82.7 518.3,80.6 518.2,78.5 518.0,76.4 517.7,74.3 517.2,72.2 516.5,70.2 515.8,68.1 515.1,66.0 514.4,63.9 513.8,61.8 508.2,61.8 507.6,63.9 506.9,66.0 506.2,68.1 505.5,70.2 504.8,72.2 504.3,74.3 504.0,76.4 503.8,78.5 503.7,80.6 503.9,82.7 504.2,84.8 504.7,86.8 505.3,88.9 505.9,91.0 506.5,93.1 507.2,95.2 507.7,97.3 508.2,99.4 508.5,101.5 508.7,103.5 508.7,105.6 508.6,107.7 508.3,109.8 507.8,111.9 507.3,114.0 506.6,116.1 505.9,118.1 505.2,120.2 504.6,122.3 504.1,124.4 503.7,126.5 503.5,128.6 503.5,130.7 503.7,132.7 504.0,134.8 504.5,136.9 505.1,139.0 505.7,141.1 506.3,143.2 506.8,145.3 507.1,147.3 507.1,149.4 506.9,151.5 506.3,153.6 505.3,155.7 503.9,157.8 502.0,159.9 499.6,161.9 496.9,164.0 493.9,166.1 490.7,168.2 487.5,170.3 484.4,172.4 481.6,174.5 479.3,176.6 477.6,178.6 476.7,180.7 476.6,182.8 477.2,184.9 478.6,187.0 480.6,189.1 483.1,191.2 485.9,193.2 488.9,195.3 491.9,197.4 494.9,199.5 497.6,201.6 500.1,203.7 502.3,205.8 504.2,207.8 505.8,209.9" fill="#2a8" opacity="0.5" stroke="#2a8" stroke-width="1"/>
<line x1="476.9" y1="179.93487767662148" x2="545.1" y2="179.93487767662148" stroke="#114" stroke-width="2"/>
<circle cx="511.0" cy="193.72167553148185" r="2.4" fill="#114"/>
<text x="511.0" y="70.39948341753825" text-anchor="middle" font-size="11">1.14</text>
<text x="511.0" y="376" text-anchor="middle" font-size="12">ztrmv</text>
<polygon points="596.2,210.7 597.2,209.3 598.3,207.8 599.5,206.4 600.9,204.9 602.4,203.5 603.9,202.0 605.6,200.6 607.4,199.1 609.2,197.7 611.2,196.2 613.4,194.8 615.6,193.3 617.9,191.8 620.1,190.4 622.3,188.9 624.3,187.5 625.9,186.0 627.0,184.6 627.4,183.1 627.2,181.7 626.3,180.2 624.8,178.8 622.6,177.3 620.0,175.9 617.1,174.4 614.1,173.0 611.1,171.5 608.4,170.1 605.9,168.6 603.8,167.1 602.1,165.7 600.9,164.2 600.2,162.8 599.8,161.3 599.9,159.9 600.1,158.4 600.6,157.0 601.1,155.5 601.6,154.1 602.0,152.6 602.2,151.2 602.2,149.7 601.9,148.3 601.4,146.8 600.8,145.4 600.0,143.9 599.2,142.4 598.3,141.0 597.6,139.5 597.0,138.1 596.5,136.6 596.3,135.2 596.3,133.7 596.5,132.3 596.9,130.8 597.6,129.4 598.3,127.9 599.1,126.5 599.9,125.0 600.7,123.6 601.3,122.1 601.7,120.7 601.9,119.2 601.9,117.8 601.6,116.3 601.0,114.8 600.3,113.4 599.5,111.9 598.5,110.5 597.6,109.0 596.7,107.6 589.3,107.6 588.4,109.0 587.5,110.5 586.5,111.9 585.7,113.4 585.0,114.8 584.4,116.3 584.1,117.8 584.1,119.2 584.3,120.7 584.7,122.1 585.3,123.6 586.1,125.0 586.9,126.5 587.7,127.9 588.4,129.4 589.1,130.8 589.5,132.3 589.7,133.7 589.7,135.2 589.5,136.6 589.0,138.1 588.4,139.5 587.7,141.0 586.8,142.4 586.0,143.9 585.2,145.4 584.6,146.8 584.1,148.3 583.8,149.7 583.8,151.2 584.0,152.6 584.4,154.1 584.9,155.5 585.4,157.0 585.9,158.4 586.1,159.9 586.2,161.3 585.8,162.8 585.1,164.2 583.9,165.7 582.2,167.1 580.1,168.6 577.6,170.1 574.9,171.5 571.9,173.0 568.9,174.4 566.0,175.9 563.4,177.3 561.2,178.8 559.7,180.2 558.8,181.7 558.6,183.1 559.0,184.6 560.1,186.0 561.7,187.5 563.7,188.9 565.9,190.4 568.1,191.8 570.4,193.3 572.6,194.8 574.8,196.2 576.8,197.7 578.6,199.1 580.4,200.6 582.1,202.0 583.6,203.5 585.1,204.9 586.5,206.4 587.7,207.8 588.8,209.3 589.8,210.7" fill="#2a8" opacity="0.5" stroke="#2a8" stroke-width="1"/>
<line x1="559.5" y1="180.42326529849444" x2="626.5" y2="180.42326529849444" stroke="#114" stroke-width="2"/>
<circle cx="593.0" cy="197.71268764049952" r="2.4" fill="#114"/>
<text x="593.0" y="111.81442306254604" text-anchor="middle" font-size="11">1.14</text>
<text x="593.0" y="376" text-anchor="middle" font-size="12">ztrsv</text>
<polygon points="686.8,167.8 689.5,166.3 692.4,164.8 695.5,163.3 698.5,161.8 701.4,160.3 704.1,158.7 706.3,157.2 708.0,155.7 709.1,154.2 709.4,152.7 709.1,151.2 708.2,149.7 706.7,148.2 704.8,146.7 702.6,145.2 700.3,143.7 698.0,142.2 695.8,140.6 693.7,139.1 692.0,137.6 690.4,136.1 689.2,134.6 688.1,133.1 687.2,131.6 686.4,130.1 685.6,128.6 684.9,127.1 684.2,125.6 683.5,124.0 682.9,122.5 682.3,121.0 681.8,119.5 681.4,118.0 681.2,116.5 681.1,115.0 681.2,113.5 681.4,112.0 681.8,110.5 682.2,109.0 682.7,107.5 683.1,105.9 683.5,104.4 683.8,102.9 683.9,101.4 683.9,99.9 683.7,98.4 683.4,96.9 683.0,95.4 682.6,93.9 682.2,92.4 681.8,90.9 681.4,89.4 681.2,87.8 681.2,86.3 681.3,84.8 681.5,83.3 681.8,81.8 682.3,80.3 682.7,78.8 683.1,77.3 683.4,75.8 683.7,74.3 683.7,72.8 683.7,71.2 683.4,69.7 683.0,68.2 682.4,66.7 681.7,65.2 681.0,63.7 680.2,62.2 679.4,60.7 670.6,60.7 669.8,62.2 669.0,63.7 668.3,65.2 667.6,66.7 667.0,68.2 666.6,69.7 666.3,71.2 666.3,72.8 666.3,74.3 666.6,75.8 666.9,77.3 667.3,78.8 667.7,80.3 668.2,81.8 668.5,83.3 668.7,84.8 668.8,86.3 668.8,87.8 668.6,89.4 668.2,90.9 667.8,92.4 667.4,93.9 667.0,95.4 666.6,96.9 666.3,98.4 666.1,99.9 666.1,101.4 666.2,102.9 666.5,104.4 666.9,105.9 667.3,107.5 667.8,109.0 668.2,110.5 668.6,112.0 668.8,113.5 668.9,115.0 668.8,116.5 668.6,118.0 668.2,119.5 667.7,121.0 667.1,122.5 666.5,124.0 665.8,125.6 665.1,127.1 664.4,128.6 663.6,130.1 662.8,131.6 661.9,133.1 660.8,134.6 659.6,136.1 658.0,137.6 656.3,139.1 654.2,140.6 652.0,142.2 649.7,143.7 647.4,145.2 645.2,146.7 643.3,148.2 641.8,149.7 640.9,151.2 640.6,152.7 640.9,154.2 642.0,155.7 643.7,157.2 645.9,158.7 648.6,160.3 651.5,161.8 654.5,163.3 657.6,164.8 660.5,166.3 663.2,167.8" fill="#2a8" opacity="0.5" stroke="#2a8" stroke-width="1"/>
<line x1="641.4" y1="150.19889406260558" x2="708.6" y2="150.19889406260558" stroke="#114" stroke-width="2"/>
<circle cx="675.0" cy="155.06149169073092" r="2.4" fill="#114"/>
<text x="675.0" y="65.30613790517287" text-anchor="middle" font-size="11">1.33</text>
<text x="675.0" y="376" text-anchor="middle" font-size="12">zhpmv</text>
<polygon points="758.0,155.2 758.6,154.1 759.5,153.1 760.7,152.0 762.3,150.9 764.3,149.8 766.9,148.7 769.8,147.7 773.1,146.6 776.6,145.5 780.1,144.4 783.4,143.3 786.3,142.2 788.7,141.2 790.3,140.1 791.2,139.0 791.4,137.9 791.0,136.8 790.0,135.8 788.8,134.7 787.3,133.6 785.7,132.5 784.2,131.4 782.8,130.4 781.5,129.3 780.4,128.2 779.3,127.1 778.3,126.0 777.4,124.9 776.4,123.9 775.5,122.8 774.5,121.7 773.4,120.6 772.2,119.5 770.9,118.5 769.5,117.4 768.1,116.3 766.7,115.2 765.4,114.1 764.1,113.1 763.0,112.0 762.0,110.9 761.3,109.8 760.8,108.7 760.6,107.6 760.6,106.6 761.0,105.5 761.6,104.4 762.3,103.3 763.2,102.2 764.1,101.2 764.9,100.1 765.6,99.0 766.0,97.9 766.0,96.8 765.8,95.8 765.4,94.7 764.7,93.6 763.9,92.5 763.1,91.4 762.3,90.3 761.5,89.3 760.9,88.2 760.3,87.1 759.8,86.0 759.3,84.9 758.9,83.9 758.6,82.8 758.2,81.7 758.0,80.6 757.7,79.5 757.5,78.5 756.5,78.5 756.3,79.5 756.0,80.6 755.8,81.7 755.4,82.8 755.1,83.9 754.7,84.9 754.2,86.0 753.7,87.1 753.1,88.2 752.5,89.3 751.7,90.3 750.9,91.4 750.1,92.5 749.3,93.6 748.6,94.7 748.2,95.8 748.0,96.8 748.0,97.9 748.4,99.0 749.1,100.1 749.9,101.2 750.8,102.2 751.7,103.3 752.4,104.4 753.0,105.5 753.4,106.6 753.4,107.6 753.2,108.7 752.7,109.8 752.0,110.9 751.0,112.0 749.9,113.1 748.6,114.1 747.3,115.2 745.9,116.3 744.5,117.4 743.1,118.5 741.8,119.5 740.6,120.6 739.5,121.7 738.5,122.8 737.6,123.9 736.6,124.9 735.7,126.0 734.7,127.1 733.6,128.2 732.5,129.3 731.2,130.4 729.8,131.4 728.3,132.5 726.7,133.6 725.2,134.7 724.0,135.8 723.0,136.8 722.6,137.9 722.8,139.0 723.7,140.1 725.3,141.2 727.7,142.2 730.6,143.3 733.9,144.4 737.4,145.5 740.9,146.6 744.2,147.7 747.1,148.7 749.7,149.8 751.7,150.9 753.3,152.0 754.5,153.1 755.4,154.1 756.0,155.2" fill="#2a8" opacity="0.5" stroke="#2a8" stroke-width="1"/>
<line x1="730.1" y1="131.18314891599374" x2="783.9" y2="131.18314891599374" stroke="#114" stroke-width="2"/>
<circle cx="757.0" cy="143.0214956444517" r="2.4" fill="#114"/>
<text x="757.0" y="80.13307643285191" text-anchor="middle" font-size="11">1.45</text>
<text x="757.0" y="376" text-anchor="middle" font-size="12">zgbmvN</text>
<polygon points="839.0,151.2 839.1,150.7 839.4,150.3 840.1,149.9 841.5,149.4 844.1,149.0 847.9,148.5 853.1,148.1 859.2,147.6 865.3,147.2 870.5,146.8 873.4,146.3 873.4,145.9 870.5,145.4 865.5,145.0 859.8,144.5 854.5,144.1 850.5,143.7 848.0,143.2 846.8,142.8 846.6,142.3 846.8,141.9 846.9,141.4 846.7,141.0 846.2,140.6 845.8,140.1 845.3,139.7 844.9,139.2 844.4,138.8 843.7,138.4 842.9,137.9 842.3,137.5 841.9,137.0 841.6,136.6 841.3,136.1 840.9,135.7 840.4,135.3 839.9,134.8 839.6,134.4 839.4,133.9 839.3,133.5 839.2,133.0 839.2,132.6 839.2,132.2 839.1,131.7 839.1,131.3 839.0,130.8 839.0,130.4 839.0,129.9 839.1,129.5 839.1,129.1 839.1,128.6 839.2,128.2 839.2,127.7 839.2,127.3 839.1,126.8 839.1,126.4 839.1,126.0 839.0,125.5 839.0,125.1 839.1,124.6 839.1,124.2 839.2,123.7 839.2,123.3 839.2,122.9 839.2,122.4 839.1,122.0 839.1,121.5 839.0,121.1 839.0,120.7 839.0,120.2 839.0,119.8 839.0,119.8 839.0,120.2 839.0,120.7 839.0,121.1 838.9,121.5 838.9,122.0 838.8,122.4 838.8,122.9 838.8,123.3 838.8,123.7 838.9,124.2 838.9,124.6 839.0,125.1 839.0,125.5 838.9,126.0 838.9,126.4 838.9,126.8 838.8,127.3 838.8,127.7 838.8,128.2 838.9,128.6 838.9,129.1 838.9,129.5 839.0,129.9 839.0,130.4 839.0,130.8 838.9,131.3 838.9,131.7 838.8,132.2 838.8,132.6 838.8,133.0 838.7,133.5 838.6,133.9 838.4,134.4 838.1,134.8 837.6,135.3 837.1,135.7 836.7,136.1 836.4,136.6 836.1,137.0 835.7,137.5 835.1,137.9 834.3,138.4 833.6,138.8 833.1,139.2 832.7,139.7 832.2,140.1 831.8,140.6 831.3,141.0 831.1,141.4 831.2,141.9 831.4,142.3 831.2,142.8 830.0,143.2 827.5,143.7 823.5,144.1 818.2,144.5 812.5,145.0 807.5,145.4 804.6,145.9 804.6,146.3 807.5,146.8 812.7,147.2 818.8,147.6 824.9,148.1 830.1,148.5 833.9,149.0 836.5,149.4 837.9,149.9 838.6,150.3 838.9,150.7 839.0,151.2" fill="#2a8" opacity="0.5" stroke="#2a8" stroke-width="1"/>
<line x1="805.1" y1="145.74124695199987" x2="872.9" y2="145.74124695199987" stroke="#114" stroke-width="2"/>
<circle cx="839.0" cy="147.46326415485504" r="2.4" fill="#114"/>
<text x="839.0" y="117.05787519192701" text-anchor="middle" font-size="11">1.36</text>
<text x="839.0" y="376" text-anchor="middle" font-size="12">zhbmv</text>
<text x="450.0" y="428" text-anchor="middle" font-size="11" fill="#666">violin = ratio distribution over sizes · line = median · dark dot = worst size · green = every size ≥ gate</text>
</svg>
