<svg xmlns="http://www.w3.org/2000/svg" width="962" height="248" font-family="sans-serif">
<rect width="962" height="248" fill="white"/>
<text x="481.0" y="26" text-anchor="middle" font-size="17" font-weight="bold">LAPACK — PureBLAS / OpenBLAS (PB/OpenBLAS ratio)</text>
<line x1="46" y1="42" x2="68" y2="42" stroke="#d62728" stroke-width="3"/>
<text x="73" y="46" font-size="12">Zen3 · AVX2</text>
<line x1="176" y1="42" x2="198" y2="42" stroke="#2ca02c" stroke-width="3"/>
<text x="203" y="46" font-size="12">Zen5 · AVX-512</text>
<line x1="327" y1="42" x2="349" y2="42" stroke="#1f77b4" stroke-width="3"/>
<text x="354" y="46" font-size="12">Zen4 · AVX-512</text>
<rect x="46" y="60" width="210" height="138" fill="none" stroke="#e2e2e2"/>
<line x1="46" y1="132.64878797948944" x2="256" y2="132.64878797948944" stroke="#d33" stroke-dasharray="4 3"/>
<text x="42" y="201.0" text-anchor="end" font-size="9" fill="#999">0.5×</text>
<text x="42" y="135.64878797948944" text-anchor="end" font-size="9" fill="#999">1.0×</text>
<text x="42" y="63.041545122146545" text-anchor="end" font-size="9" fill="#999">2.16×</text>
<polygon points="46.0,100.7 92.7,79.9 139.3,91.6 162.7,110.2 186.0,119.1 209.3,124.9 232.7,126.0 256.0,129.1 256.0,131.2 232.7,126.9 209.3,125.1 186.0,120.0 162.7,111.3 139.3,95.0 92.7,90.3 46.0,101.4" fill="#d62728" opacity="0.11"/>
<polyline points="46.0,101.0 92.7,84.2 139.3,93.1 162.7,110.7 186.0,119.5 209.3,125.0 232.7,126.2 256.0,129.3" fill="none" stroke="#d62728" stroke-width="1.6"/>
<circle cx="46.0" cy="101.0" r="2" fill="#d62728"/>
<circle cx="92.7" cy="84.2" r="2" fill="#d62728"/>
<circle cx="139.3" cy="93.1" r="2" fill="#d62728"/>
<circle cx="162.7" cy="110.7" r="2" fill="#d62728"/>
<circle cx="186.0" cy="119.5" r="2" fill="#d62728"/>
<circle cx="209.3" cy="125.0" r="2" fill="#d62728"/>
<circle cx="232.7" cy="126.2" r="2" fill="#d62728"/>
<circle cx="256.0" cy="129.3" r="2" fill="#d62728"/>
<polygon points="46.0,97.0 92.7,78.1 139.3,72.1 162.7,81.4 186.0,88.3 209.3,96.6 232.7,109.7 256.0,116.3 256.0,116.5 232.7,110.7 209.3,97.4 186.0,89.1 162.7,82.6 139.3,74.1 92.7,81.3 46.0,98.1" fill="#2ca02c" opacity="0.11"/>
<polyline points="46.0,97.7 92.7,79.5 139.3,72.7 162.7,81.8 186.0,88.6 209.3,97.0 232.7,110.0 256.0,116.3" fill="none" stroke="#2ca02c" stroke-width="1.6"/>
<circle cx="46.0" cy="97.7" r="2" fill="#2ca02c"/>
<circle cx="92.7" cy="79.5" r="2" fill="#2ca02c"/>
<circle cx="139.3" cy="72.7" r="2" fill="#2ca02c"/>
<circle cx="162.7" cy="81.8" r="2" fill="#2ca02c"/>
<circle cx="186.0" cy="88.6" r="2" fill="#2ca02c"/>
<circle cx="209.3" cy="97.0" r="2" fill="#2ca02c"/>
<circle cx="232.7" cy="110.0" r="2" fill="#2ca02c"/>
<circle cx="256.0" cy="116.3" r="2" fill="#2ca02c"/>
<polygon points="46.0,93.6 92.7,67.8 139.3,67.3 162.7,85.0 186.0,91.5 209.3,106.1 232.7,118.4 256.0,124.9 256.0,126.3 232.7,119.3 209.3,109.7 186.0,93.2 162.7,88.0 139.3,76.5 92.7,79.1 46.0,94.3" fill="#1f77b4" opacity="0.11"/>
<polyline points="46.0,94.0 92.7,74.9 139.3,71.2 162.7,86.2 186.0,92.3 209.3,107.2 232.7,118.8 256.0,125.3" fill="none" stroke="#1f77b4" stroke-width="1.6"/>
<circle cx="46.0" cy="94.0" r="2" fill="#1f77b4"/>
<circle cx="92.7" cy="74.9" r="2" fill="#1f77b4"/>
<circle cx="139.3" cy="71.2" r="2" fill="#1f77b4"/>
<circle cx="162.7" cy="86.2" r="2" fill="#1f77b4"/>
<circle cx="186.0" cy="92.3" r="2" fill="#1f77b4"/>
<circle cx="209.3" cy="107.2" r="2" fill="#1f77b4"/>
<circle cx="232.7" cy="118.8" r="2" fill="#1f77b4"/>
<circle cx="256.0" cy="125.3" r="2" fill="#1f77b4"/>
<text x="151.0" y="55" text-anchor="middle" font-size="12" font-weight="bold">potrf</text>
<line x1="46.0" y1="60" x2="46.0" y2="198" stroke="#f4f4f4"/>
<text x="46.0" y="209" text-anchor="middle" font-size="8" fill="#999">8</text>
<line x1="92.7" y1="60" x2="92.7" y2="198" stroke="#f4f4f4"/>
<text x="92.7" y="209" text-anchor="middle" font-size="8" fill="#999">32</text>
<line x1="139.3" y1="60" x2="139.3" y2="198" stroke="#f4f4f4"/>
<text x="139.3" y="209" text-anchor="middle" font-size="8" fill="#999">128</text>
<line x1="162.7" y1="60" x2="162.7" y2="198" stroke="#f4f4f4"/>
<text x="162.7" y="209" text-anchor="middle" font-size="8" fill="#999">256</text>
<line x1="186.0" y1="60" x2="186.0" y2="198" stroke="#f4f4f4"/>
<text x="186.0" y="209" text-anchor="middle" font-size="8" fill="#999">512</text>
<line x1="209.3" y1="60" x2="209.3" y2="198" stroke="#f4f4f4"/>
<text x="209.3" y="209" text-anchor="middle" font-size="8" fill="#999">1k</text>
<line x1="232.7" y1="60" x2="232.7" y2="198" stroke="#f4f4f4"/>
<text x="232.7" y="209" text-anchor="middle" font-size="8" fill="#999">2k</text>
<line x1="256.0" y1="60" x2="256.0" y2="198" stroke="#f4f4f4"/>
<text x="256.0" y="209" text-anchor="middle" font-size="8" fill="#999">4k</text>
<rect x="276" y="60" width="210" height="138" fill="none" stroke="#e2e2e2"/>
<line x1="276" y1="142.68117651794603" x2="486" y2="142.68117651794603" stroke="#d33" stroke-dasharray="4 3"/>
<text x="272" y="201.0" text-anchor="end" font-size="9" fill="#999">0.5×</text>
<text x="272" y="145.68117651794603" text-anchor="end" font-size="9" fill="#999">1.0×</text>
<polygon points="276.0,66.1 322.7,91.8 369.3,85.4 392.7,99.8 416.0,104.4 439.3,111.7 462.7,108.5 486.0,109.5 486.0,112.2 462.7,114.3 439.3,112.3 416.0,106.5 392.7,101.9 369.3,86.2 322.7,92.9 276.0,69.0" fill="#d62728" opacity="0.11"/>
<polyline points="276.0,68.0 322.7,92.6 369.3,85.9 392.7,101.0 416.0,105.7 439.3,111.9 462.7,110.2 486.0,109.8" fill="none" stroke="#d62728" stroke-width="1.6"/>
<circle cx="276.0" cy="68.0" r="2" fill="#d62728"/>
<circle cx="322.7" cy="92.6" r="2" fill="#d62728"/>
<circle cx="369.3" cy="85.9" r="2" fill="#d62728"/>
<circle cx="392.7" cy="101.0" r="2" fill="#d62728"/>
<circle cx="416.0" cy="105.7" r="2" fill="#d62728"/>
<circle cx="439.3" cy="111.9" r="2" fill="#d62728"/>
<circle cx="462.7" cy="110.2" r="2" fill="#d62728"/>
<circle cx="486.0" cy="109.8" r="2" fill="#d62728"/>
<polygon points="276.0,78.0 322.7,92.0 369.3,75.5 392.7,90.1 416.0,95.0 439.3,106.9 462.7,111.2 486.0,115.5 486.0,115.8 462.7,111.4 439.3,107.2 416.0,95.7 392.7,90.9 369.3,75.9 322.7,98.2 276.0,81.9" fill="#2ca02c" opacity="0.11"/>
<polyline points="276.0,81.0 322.7,97.5 369.3,75.7 392.7,90.7 416.0,95.5 439.3,107.0 462.7,111.3 486.0,115.7" fill="none" stroke="#2ca02c" stroke-width="1.6"/>
<circle cx="276.0" cy="81.0" r="2" fill="#2ca02c"/>
<circle cx="322.7" cy="97.5" r="2" fill="#2ca02c"/>
<circle cx="369.3" cy="75.7" r="2" fill="#2ca02c"/>
<circle cx="392.7" cy="90.7" r="2" fill="#2ca02c"/>
<circle cx="416.0" cy="95.5" r="2" fill="#2ca02c"/>
<circle cx="439.3" cy="107.0" r="2" fill="#2ca02c"/>
<circle cx="462.7" cy="111.3" r="2" fill="#2ca02c"/>
<circle cx="486.0" cy="115.7" r="2" fill="#2ca02c"/>
<polygon points="276.0,66.6 322.7,96.7 369.3,70.8 392.7,91.1 416.0,81.4 439.3,94.0 462.7,101.5 486.0,108.7 486.0,110.3 462.7,103.8 439.3,95.3 416.0,81.9 392.7,92.4 369.3,72.2 322.7,99.6 276.0,75.1" fill="#1f77b4" opacity="0.11"/>
<polyline points="276.0,74.0 322.7,99.0 369.3,71.8 392.7,91.9 416.0,81.7 439.3,94.8 462.7,103.1 486.0,109.6" fill="none" stroke="#1f77b4" stroke-width="1.6"/>
<circle cx="276.0" cy="74.0" r="2" fill="#1f77b4"/>
<circle cx="322.7" cy="99.0" r="2" fill="#1f77b4"/>
<circle cx="369.3" cy="71.8" r="2" fill="#1f77b4"/>
<circle cx="392.7" cy="91.9" r="2" fill="#1f77b4"/>
<circle cx="416.0" cy="81.7" r="2" fill="#1f77b4"/>
<circle cx="439.3" cy="94.8" r="2" fill="#1f77b4"/>
<circle cx="462.7" cy="103.1" r="2" fill="#1f77b4"/>
<circle cx="486.0" cy="109.6" r="2" fill="#1f77b4"/>
<text x="381.0" y="55" text-anchor="middle" font-size="12" font-weight="bold">geqrf</text>
<line x1="276.0" y1="60" x2="276.0" y2="198" stroke="#f4f4f4"/>
<text x="276.0" y="209" text-anchor="middle" font-size="8" fill="#999">8</text>
<line x1="322.7" y1="60" x2="322.7" y2="198" stroke="#f4f4f4"/>
<text x="322.7" y="209" text-anchor="middle" font-size="8" fill="#999">32</text>
<line x1="369.3" y1="60" x2="369.3" y2="198" stroke="#f4f4f4"/>
<text x="369.3" y="209" text-anchor="middle" font-size="8" fill="#999">128</text>
<line x1="392.7" y1="60" x2="392.7" y2="198" stroke="#f4f4f4"/>
<text x="392.7" y="209" text-anchor="middle" font-size="8" fill="#999">256</text>
<line x1="416.0" y1="60" x2="416.0" y2="198" stroke="#f4f4f4"/>
<text x="416.0" y="209" text-anchor="middle" font-size="8" fill="#999">512</text>
<line x1="439.3" y1="60" x2="439.3" y2="198" stroke="#f4f4f4"/>
<text x="439.3" y="209" text-anchor="middle" font-size="8" fill="#999">1k</text>
<line x1="462.7" y1="60" x2="462.7" y2="198" stroke="#f4f4f4"/>
<text x="462.7" y="209" text-anchor="middle" font-size="8" fill="#999">2k</text>
<line x1="486.0" y1="60" x2="486.0" y2="198" stroke="#f4f4f4"/>
<text x="486.0" y="209" text-anchor="middle" font-size="8" fill="#999">4k</text>
<rect x="506" y="60" width="210" height="138" fill="none" stroke="#e2e2e2"/>
<line x1="506" y1="139.70286153857893" x2="716" y2="139.70286153857893" stroke="#d33" stroke-dasharray="4 3"/>
<text x="502" y="201.0" text-anchor="end" font-size="9" fill="#999">0.5×</text>
<text x="502" y="142.70286153857893" text-anchor="end" font-size="9" fill="#999">1.0×</text>
<polygon points="506.0,78.5 552.7,66.5 599.3,109.5 622.7,123.0 646.0,127.4 669.3,127.9 692.7,131.3 716.0,133.2 716.0,134.2 692.7,134.3 669.3,129.3 646.0,130.4 622.7,124.3 599.3,110.5 552.7,72.0 506.0,79.9" fill="#d62728" opacity="0.11"/>
<polyline points="506.0,79.5 552.7,70.3 599.3,109.9 622.7,123.7 646.0,128.5 669.3,128.4 692.7,133.0 716.0,133.8" fill="none" stroke="#d62728" stroke-width="1.6"/>
<circle cx="506.0" cy="79.5" r="2" fill="#d62728"/>
<circle cx="552.7" cy="70.3" r="2" fill="#d62728"/>
<circle cx="599.3" cy="109.9" r="2" fill="#d62728"/>
<circle cx="622.7" cy="123.7" r="2" fill="#d62728"/>
<circle cx="646.0" cy="128.5" r="2" fill="#d62728"/>
<circle cx="669.3" cy="128.4" r="2" fill="#d62728"/>
<circle cx="692.7" cy="133.0" r="2" fill="#d62728"/>
<circle cx="716.0" cy="133.8" r="2" fill="#d62728"/>
<polygon points="506.0,95.6 552.7,91.9 599.3,106.2 622.7,117.3 646.0,120.8 669.3,120.1 692.7,125.0 716.0,128.1 716.0,128.4 692.7,125.3 669.3,120.8 646.0,121.1 622.7,118.1 599.3,107.2 552.7,94.2 506.0,97.3" fill="#2ca02c" opacity="0.11"/>
<polyline points="506.0,96.7 552.7,92.7 599.3,106.7 622.7,117.7 646.0,121.0 669.3,120.6 692.7,125.2 716.0,128.2" fill="none" stroke="#2ca02c" stroke-width="1.6"/>
<circle cx="506.0" cy="96.7" r="2" fill="#2ca02c"/>
<circle cx="552.7" cy="92.7" r="2" fill="#2ca02c"/>
<circle cx="599.3" cy="106.7" r="2" fill="#2ca02c"/>
<circle cx="622.7" cy="117.7" r="2" fill="#2ca02c"/>
<circle cx="646.0" cy="121.0" r="2" fill="#2ca02c"/>
<circle cx="669.3" cy="120.6" r="2" fill="#2ca02c"/>
<circle cx="692.7" cy="125.2" r="2" fill="#2ca02c"/>
<circle cx="716.0" cy="128.2" r="2" fill="#2ca02c"/>
<polygon points="506.0,90.3 552.7,85.2 599.3,104.1 622.7,115.2 646.0,119.0 669.3,121.0 692.7,130.2 716.0,136.9 716.0,137.3 692.7,131.0 669.3,122.4 646.0,120.0 622.7,116.8 599.3,105.8 552.7,89.8 506.0,93.0" fill="#1f77b4" opacity="0.11"/>
<polyline points="506.0,91.3 552.7,85.7 599.3,104.6 622.7,115.7 646.0,119.5 669.3,121.5 692.7,130.6 716.0,137.1" fill="none" stroke="#1f77b4" stroke-width="1.6"/>
<circle cx="506.0" cy="91.3" r="2" fill="#1f77b4"/>
<circle cx="552.7" cy="85.7" r="2" fill="#1f77b4"/>
<circle cx="599.3" cy="104.6" r="2" fill="#1f77b4"/>
<circle cx="622.7" cy="115.7" r="2" fill="#1f77b4"/>
<circle cx="646.0" cy="119.5" r="2" fill="#1f77b4"/>
<circle cx="669.3" cy="121.5" r="2" fill="#1f77b4"/>
<circle cx="692.7" cy="130.6" r="2" fill="#1f77b4"/>
<circle cx="716.0" cy="137.1" r="2" fill="#1f77b4"/>
<text x="611.0" y="55" text-anchor="middle" font-size="12" font-weight="bold">getrf</text>
<line x1="506.0" y1="60" x2="506.0" y2="198" stroke="#f4f4f4"/>
<text x="506.0" y="209" text-anchor="middle" font-size="8" fill="#999">8</text>
<line x1="552.7" y1="60" x2="552.7" y2="198" stroke="#f4f4f4"/>
<text x="552.7" y="209" text-anchor="middle" font-size="8" fill="#999">32</text>
<line x1="599.3" y1="60" x2="599.3" y2="198" stroke="#f4f4f4"/>
<text x="599.3" y="209" text-anchor="middle" font-size="8" fill="#999">128</text>
<line x1="622.7" y1="60" x2="622.7" y2="198" stroke="#f4f4f4"/>
<text x="622.7" y="209" text-anchor="middle" font-size="8" fill="#999">256</text>
<line x1="646.0" y1="60" x2="646.0" y2="198" stroke="#f4f4f4"/>
<text x="646.0" y="209" text-anchor="middle" font-size="8" fill="#999">512</text>
<line x1="669.3" y1="60" x2="669.3" y2="198" stroke="#f4f4f4"/>
<text x="669.3" y="209" text-anchor="middle" font-size="8" fill="#999">1k</text>
<line x1="692.7" y1="60" x2="692.7" y2="198" stroke="#f4f4f4"/>
<text x="692.7" y="209" text-anchor="middle" font-size="8" fill="#999">2k</text>
<line x1="716.0" y1="60" x2="716.0" y2="198" stroke="#f4f4f4"/>
<text x="716.0" y="209" text-anchor="middle" font-size="8" fill="#999">4k</text>
<rect x="736" y="60" width="210" height="138" fill="none" stroke="#e2e2e2"/>
<line x1="736" y1="124.04895572417666" x2="946" y2="124.04895572417666" stroke="#d33" stroke-dasharray="4 3"/>
<text x="732" y="201.0" text-anchor="end" font-size="9" fill="#999">0.5×</text>
<text x="732" y="127.04895572417666" text-anchor="end" font-size="9" fill="#999">1.0×</text>
<text x="732" y="63.15980512528735" text-anchor="end" font-size="9" fill="#999">1.82×</text>
<polygon points="736.0,68.2 788.5,93.2 841.0,93.8 867.2,90.5 893.5,82.6 919.8,85.2 946.0,102.5 946.0,106.2 919.8,94.1 893.5,85.2 867.2,91.6 841.0,97.9 788.5,95.1 736.0,69.3" fill="#d62728" opacity="0.11"/>
<polyline points="736.0,68.9 788.5,94.7 841.0,97.7 867.2,91.2 893.5,84.7 919.8,92.9 946.0,104.8" fill="none" stroke="#d62728" stroke-width="1.6"/>
<circle cx="736.0" cy="68.9" r="2" fill="#d62728"/>
<circle cx="788.5" cy="94.7" r="2" fill="#d62728"/>
<circle cx="841.0" cy="97.7" r="2" fill="#d62728"/>
<circle cx="867.2" cy="91.2" r="2" fill="#d62728"/>
<circle cx="893.5" cy="84.7" r="2" fill="#d62728"/>
<circle cx="919.8" cy="92.9" r="2" fill="#d62728"/>
<circle cx="946.0" cy="104.8" r="2" fill="#d62728"/>
<polygon points="736.0,75.9 788.5,95.0 841.0,109.0 867.2,97.9 893.5,91.4 919.8,92.0 946.0,98.8 946.0,105.9 919.8,98.9 893.5,92.9 867.2,98.7 841.0,110.9 788.5,99.2 736.0,77.4" fill="#2ca02c" opacity="0.11"/>
<polyline points="736.0,76.9 788.5,98.8 841.0,110.7 867.2,98.2 893.5,92.5 919.8,98.5 946.0,104.0" fill="none" stroke="#2ca02c" stroke-width="1.6"/>
<circle cx="736.0" cy="76.9" r="2" fill="#2ca02c"/>
<circle cx="788.5" cy="98.8" r="2" fill="#2ca02c"/>
<circle cx="841.0" cy="110.7" r="2" fill="#2ca02c"/>
<circle cx="867.2" cy="98.2" r="2" fill="#2ca02c"/>
<circle cx="893.5" cy="92.5" r="2" fill="#2ca02c"/>
<circle cx="919.8" cy="98.5" r="2" fill="#2ca02c"/>
<circle cx="946.0" cy="104.0" r="2" fill="#2ca02c"/>
<polygon points="736.0,69.8 788.5,93.2 841.0,85.4 867.2,97.7 893.5,82.5 919.8,81.7 946.0,82.7 946.0,99.7 919.8,86.6 893.5,84.1 867.2,99.0 841.0,111.6 788.5,96.5 736.0,73.2" fill="#1f77b4" opacity="0.11"/>
<polyline points="736.0,71.0 788.5,95.7 841.0,106.5 867.2,98.4 893.5,83.2 919.8,84.2 946.0,85.3" fill="none" stroke="#1f77b4" stroke-width="1.6"/>
<circle cx="736.0" cy="71.0" r="2" fill="#1f77b4"/>
<circle cx="788.5" cy="95.7" r="2" fill="#1f77b4"/>
<circle cx="841.0" cy="106.5" r="2" fill="#1f77b4"/>
<circle cx="867.2" cy="98.4" r="2" fill="#1f77b4"/>
<circle cx="893.5" cy="83.2" r="2" fill="#1f77b4"/>
<circle cx="919.8" cy="84.2" r="2" fill="#1f77b4"/>
<circle cx="946.0" cy="85.3" r="2" fill="#1f77b4"/>
<text x="841.0" y="55" text-anchor="middle" font-size="12" font-weight="bold">gesvd</text>
<line x1="736.0" y1="60" x2="736.0" y2="198" stroke="#f4f4f4"/>
<text x="736.0" y="209" text-anchor="middle" font-size="8" fill="#999">8</text>
<line x1="788.5" y1="60" x2="788.5" y2="198" stroke="#f4f4f4"/>
<text x="788.5" y="209" text-anchor="middle" font-size="8" fill="#999">32</text>
<line x1="841.0" y1="60" x2="841.0" y2="198" stroke="#f4f4f4"/>
<text x="841.0" y="209" text-anchor="middle" font-size="8" fill="#999">128</text>
<line x1="867.2" y1="60" x2="867.2" y2="198" stroke="#f4f4f4"/>
<text x="867.2" y="209" text-anchor="middle" font-size="8" fill="#999">256</text>
<line x1="893.5" y1="60" x2="893.5" y2="198" stroke="#f4f4f4"/>
<text x="893.5" y="209" text-anchor="middle" font-size="8" fill="#999">512</text>
<line x1="919.8" y1="60" x2="919.8" y2="198" stroke="#f4f4f4"/>
<text x="919.8" y="209" text-anchor="middle" font-size="8" fill="#999">1k</text>
<line x1="946.0" y1="60" x2="946.0" y2="198" stroke="#f4f4f4"/>
<text x="946.0" y="209" text-anchor="middle" font-size="8" fill="#999">2k</text>
</svg>
