<svg xmlns="http://www.w3.org/2000/svg" width="962" height="420" font-family="sans-serif">
<rect width="962" height="420" fill="white"/>
<text x="481.0" y="26" text-anchor="middle" font-size="17" font-weight="bold">BLAS-3 — PureBLAS / OpenBLAS (PB/OpenBLAS ratio)</text>
<line x1="46" y1="42" x2="68" y2="42" stroke="#d62728" stroke-width="3"/>
<text x="73" y="46" font-size="12">Zen3 · AVX2</text>
<line x1="176" y1="42" x2="198" y2="42" stroke="#2ca02c" stroke-width="3"/>
<text x="203" y="46" font-size="12">Zen5 · AVX-512</text>
<line x1="327" y1="42" x2="349" y2="42" stroke="#1f77b4" stroke-width="3"/>
<text x="354" y="46" font-size="12">Zen4 · AVX-512</text>
<rect x="46" y="60" width="210" height="138" fill="none" stroke="#e2e2e2"/>
<line x1="46" y1="150.66944307670073" x2="256" y2="150.66944307670073" stroke="#d33" stroke-dasharray="4 3"/>
<text x="42" y="201.0" text-anchor="end" font-size="9" fill="#999">0.5×</text>
<text x="42" y="153.66944307670073" text-anchor="end" font-size="9" fill="#999">1.0×</text>
<text x="42" y="63.052037914141444" text-anchor="end" font-size="9" fill="#999">3.77×</text>
<polygon points="46.0,104.5 92.7,126.5 139.3,146.0 162.7,147.7 186.0,144.6 209.3,142.1 232.7,136.8 256.0,129.5 256.0,130.0 232.7,137.7 209.3,143.3 186.0,146.5 162.7,149.5 139.3,147.0 92.7,127.9 46.0,105.2" fill="#d62728" opacity="0.11"/>
<polyline points="46.0,104.9 92.7,127.0 139.3,146.3 162.7,148.9 186.0,145.3 209.3,143.1 232.7,137.4 256.0,129.8" fill="none" stroke="#d62728" stroke-width="1.6"/>
<circle cx="46.0" cy="104.9" r="2" fill="#d62728"/>
<circle cx="92.7" cy="127.0" r="2" fill="#d62728"/>
<circle cx="139.3" cy="146.3" r="2" fill="#d62728"/>
<circle cx="162.7" cy="148.9" r="2" fill="#d62728"/>
<circle cx="186.0" cy="145.3" r="2" fill="#d62728"/>
<circle cx="209.3" cy="143.1" r="2" fill="#d62728"/>
<circle cx="232.7" cy="137.4" r="2" fill="#d62728"/>
<circle cx="256.0" cy="129.8" r="2" fill="#d62728"/>
<polygon points="46.0,133.9 92.7,144.8 139.3,65.3 162.7,124.7 186.0,137.2 209.3,141.1 232.7,133.1 256.0,128.5 256.0,129.2 232.7,136.6 209.3,142.9 186.0,146.9 162.7,147.0 139.3,144.0 92.7,151.4 46.0,143.1" fill="#2ca02c" opacity="0.11"/>
<polyline points="46.0,141.5 92.7,149.8 139.3,131.2 162.7,137.6 186.0,145.9 209.3,142.3 232.7,133.7 256.0,128.8" fill="none" stroke="#2ca02c" stroke-width="1.6"/>
<circle cx="46.0" cy="141.5" r="2" fill="#2ca02c"/>
<circle cx="92.7" cy="149.8" r="2" fill="#2ca02c"/>
<circle cx="139.3" cy="131.2" r="2" fill="#2ca02c"/>
<circle cx="162.7" cy="137.6" r="2" fill="#2ca02c"/>
<circle cx="186.0" cy="145.9" r="2" fill="#2ca02c"/>
<circle cx="209.3" cy="142.3" r="2" fill="#2ca02c"/>
<circle cx="232.7" cy="133.7" r="2" fill="#2ca02c"/>
<circle cx="256.0" cy="128.8" r="2" fill="#2ca02c"/>
<polygon points="46.0,141.5 92.7,145.4 139.3,136.9 162.7,144.1 186.0,149.8 209.3,148.6 232.7,143.1 256.0,135.5 256.0,137.1 232.7,143.7 209.3,149.3 186.0,150.7 162.7,146.1 139.3,138.1 92.7,148.5 46.0,163.5" fill="#1f77b4" opacity="0.11"/>
<polyline points="46.0,142.2 92.7,147.8 139.3,137.7 162.7,144.5 186.0,150.2 209.3,148.9 232.7,143.4 256.0,136.6" fill="none" stroke="#1f77b4" stroke-width="1.6"/>
<circle cx="46.0" cy="142.2" r="2" fill="#1f77b4"/>
<circle cx="92.7" cy="147.8" r="2" fill="#1f77b4"/>
<circle cx="139.3" cy="137.7" r="2" fill="#1f77b4"/>
<circle cx="162.7" cy="144.5" r="2" fill="#1f77b4"/>
<circle cx="186.0" cy="150.2" r="2" fill="#1f77b4"/>
<circle cx="209.3" cy="148.9" r="2" fill="#1f77b4"/>
<circle cx="232.7" cy="143.4" r="2" fill="#1f77b4"/>
<circle cx="256.0" cy="136.6" r="2" fill="#1f77b4"/>
<text x="151.0" y="55" text-anchor="middle" font-size="12" font-weight="bold">gemm</text>
<line x1="46.0" y1="60" x2="46.0" y2="198" stroke="#f4f4f4"/>
<text x="46.0" y="209" text-anchor="middle" font-size="8" fill="#999">8</text>
<line x1="92.7" y1="60" x2="92.7" y2="198" stroke="#f4f4f4"/>
<text x="92.7" y="209" text-anchor="middle" font-size="8" fill="#999">32</text>
<line x1="139.3" y1="60" x2="139.3" y2="198" stroke="#f4f4f4"/>
<text x="139.3" y="209" text-anchor="middle" font-size="8" fill="#999">128</text>
<line x1="162.7" y1="60" x2="162.7" y2="198" stroke="#f4f4f4"/>
<text x="162.7" y="209" text-anchor="middle" font-size="8" fill="#999">256</text>
<line x1="186.0" y1="60" x2="186.0" y2="198" stroke="#f4f4f4"/>
<text x="186.0" y="209" text-anchor="middle" font-size="8" fill="#999">512</text>
<line x1="209.3" y1="60" x2="209.3" y2="198" stroke="#f4f4f4"/>
<text x="209.3" y="209" text-anchor="middle" font-size="8" fill="#999">1k</text>
<line x1="232.7" y1="60" x2="232.7" y2="198" stroke="#f4f4f4"/>
<text x="232.7" y="209" text-anchor="middle" font-size="8" fill="#999">2k</text>
<line x1="256.0" y1="60" x2="256.0" y2="198" stroke="#f4f4f4"/>
<text x="256.0" y="209" text-anchor="middle" font-size="8" fill="#999">4k</text>
<rect x="276" y="60" width="210" height="138" fill="none" stroke="#e2e2e2"/>
<line x1="276" y1="140.780282371998" x2="486" y2="140.780282371998" stroke="#d33" stroke-dasharray="4 3"/>
<text x="272" y="201.0" text-anchor="end" font-size="9" fill="#999">0.5×</text>
<text x="272" y="143.780282371998" text-anchor="end" font-size="9" fill="#999">1.0×</text>
<text x="272" y="63.018871138778664" text-anchor="end" font-size="9" fill="#999">2.66×</text>
<polygon points="276.0,126.2 322.7,122.7 369.3,139.5 392.7,141.1 416.0,136.8 439.3,134.4 462.7,133.9 486.0,133.3 486.0,134.8 462.7,135.4 439.3,136.0 416.0,138.5 392.7,142.4 369.3,142.6 322.7,130.3 276.0,130.4" fill="#d62728" opacity="0.11"/>
<polyline points="276.0,128.0 322.7,126.1 369.3,141.5 392.7,141.6 416.0,137.9 439.3,135.9 462.7,134.9 486.0,134.1" fill="none" stroke="#d62728" stroke-width="1.6"/>
<circle cx="276.0" cy="128.0" r="2" fill="#d62728"/>
<circle cx="322.7" cy="126.1" r="2" fill="#d62728"/>
<circle cx="369.3" cy="141.5" r="2" fill="#d62728"/>
<circle cx="392.7" cy="141.6" r="2" fill="#d62728"/>
<circle cx="416.0" cy="137.9" r="2" fill="#d62728"/>
<circle cx="439.3" cy="135.9" r="2" fill="#d62728"/>
<circle cx="462.7" cy="134.9" r="2" fill="#d62728"/>
<circle cx="486.0" cy="134.1" r="2" fill="#d62728"/>
<polygon points="276.0,107.3 322.7,66.4 369.3,67.5 392.7,128.5 416.0,124.4 439.3,131.7 462.7,133.1 486.0,134.1 486.0,134.8 462.7,133.8 439.3,133.6 416.0,135.6 392.7,138.1 369.3,134.8 322.7,130.5 276.0,122.7" fill="#2ca02c" opacity="0.11"/>
<polyline points="276.0,108.7 322.7,126.4 369.3,123.1 392.7,132.0 416.0,132.8 439.3,133.0 462.7,133.3 486.0,134.6" fill="none" stroke="#2ca02c" stroke-width="1.6"/>
<circle cx="276.0" cy="108.7" r="2" fill="#2ca02c"/>
<circle cx="322.7" cy="126.4" r="2" fill="#2ca02c"/>
<circle cx="369.3" cy="123.1" r="2" fill="#2ca02c"/>
<circle cx="392.7" cy="132.0" r="2" fill="#2ca02c"/>
<circle cx="416.0" cy="132.8" r="2" fill="#2ca02c"/>
<circle cx="439.3" cy="133.0" r="2" fill="#2ca02c"/>
<circle cx="462.7" cy="133.3" r="2" fill="#2ca02c"/>
<circle cx="486.0" cy="134.6" r="2" fill="#2ca02c"/>
<polygon points="276.0,104.2 322.7,109.6 369.3,128.8 392.7,139.9 416.0,139.7 439.3,139.6 462.7,141.2 486.0,141.8 486.0,142.5 462.7,141.8 439.3,140.1 416.0,140.2 392.7,140.7 369.3,131.1 322.7,112.8 276.0,116.3" fill="#1f77b4" opacity="0.11"/>
<polyline points="276.0,114.2 322.7,111.9 369.3,130.7 392.7,140.4 416.0,139.9 439.3,139.8 462.7,141.5 486.0,141.9" fill="none" stroke="#1f77b4" stroke-width="1.6"/>
<circle cx="276.0" cy="114.2" r="2" fill="#1f77b4"/>
<circle cx="322.7" cy="111.9" r="2" fill="#1f77b4"/>
<circle cx="369.3" cy="130.7" r="2" fill="#1f77b4"/>
<circle cx="392.7" cy="140.4" r="2" fill="#1f77b4"/>
<circle cx="416.0" cy="139.9" r="2" fill="#1f77b4"/>
<circle cx="439.3" cy="139.8" r="2" fill="#1f77b4"/>
<circle cx="462.7" cy="141.5" r="2" fill="#1f77b4"/>
<circle cx="486.0" cy="141.9" r="2" fill="#1f77b4"/>
<text x="381.0" y="55" text-anchor="middle" font-size="12" font-weight="bold">symm</text>
<line x1="276.0" y1="60" x2="276.0" y2="198" stroke="#f4f4f4"/>
<text x="276.0" y="209" text-anchor="middle" font-size="8" fill="#999">8</text>
<line x1="322.7" y1="60" x2="322.7" y2="198" stroke="#f4f4f4"/>
<text x="322.7" y="209" text-anchor="middle" font-size="8" fill="#999">32</text>
<line x1="369.3" y1="60" x2="369.3" y2="198" stroke="#f4f4f4"/>
<text x="369.3" y="209" text-anchor="middle" font-size="8" fill="#999">128</text>
<line x1="392.7" y1="60" x2="392.7" y2="198" stroke="#f4f4f4"/>
<text x="392.7" y="209" text-anchor="middle" font-size="8" fill="#999">256</text>
<line x1="416.0" y1="60" x2="416.0" y2="198" stroke="#f4f4f4"/>
<text x="416.0" y="209" text-anchor="middle" font-size="8" fill="#999">512</text>
<line x1="439.3" y1="60" x2="439.3" y2="198" stroke="#f4f4f4"/>
<text x="439.3" y="209" text-anchor="middle" font-size="8" fill="#999">1k</text>
<line x1="462.7" y1="60" x2="462.7" y2="198" stroke="#f4f4f4"/>
<text x="462.7" y="209" text-anchor="middle" font-size="8" fill="#999">2k</text>
<line x1="486.0" y1="60" x2="486.0" y2="198" stroke="#f4f4f4"/>
<text x="486.0" y="209" text-anchor="middle" font-size="8" fill="#999">4k</text>
<rect x="506" y="60" width="210" height="138" fill="none" stroke="#e2e2e2"/>
<line x1="506" y1="146.89846789566613" x2="716" y2="146.89846789566613" stroke="#d33" stroke-dasharray="4 3"/>
<text x="502" y="201.0" text-anchor="end" font-size="9" fill="#999">0.5×</text>
<text x="502" y="149.89846789566613" text-anchor="end" font-size="9" fill="#999">1.0×</text>
<text x="502" y="63.003393047594685" text-anchor="end" font-size="9" fill="#999">3.25×</text>
<polygon points="506.0,116.1 552.7,123.7 599.3,144.8 622.7,145.4 646.0,144.4 669.3,143.9 692.7,144.5 716.0,142.9 716.0,143.6 692.7,145.0 669.3,144.1 646.0,144.6 622.7,147.1 599.3,146.7 552.7,132.6 506.0,118.7" fill="#d62728" opacity="0.11"/>
<polyline points="506.0,117.6 552.7,127.9 599.3,145.5 622.7,145.8 646.0,144.5 669.3,144.0 692.7,144.7 716.0,143.4" fill="none" stroke="#d62728" stroke-width="1.6"/>
<circle cx="506.0" cy="117.6" r="2" fill="#d62728"/>
<circle cx="552.7" cy="127.9" r="2" fill="#d62728"/>
<circle cx="599.3" cy="145.5" r="2" fill="#d62728"/>
<circle cx="622.7" cy="145.8" r="2" fill="#d62728"/>
<circle cx="646.0" cy="144.5" r="2" fill="#d62728"/>
<circle cx="669.3" cy="144.0" r="2" fill="#d62728"/>
<circle cx="692.7" cy="144.7" r="2" fill="#d62728"/>
<circle cx="716.0" cy="143.4" r="2" fill="#d62728"/>
<polygon points="506.0,111.5 552.7,65.7 599.3,128.4 622.7,127.4 646.0,115.7 669.3,134.8 692.7,138.8 716.0,141.8 716.0,142.5 692.7,139.7 669.3,137.2 646.0,139.6 622.7,143.7 599.3,143.5 552.7,137.9 506.0,118.4" fill="#2ca02c" opacity="0.11"/>
<polyline points="506.0,114.7 552.7,135.4 599.3,130.4 622.7,129.0 646.0,136.8 669.3,136.0 692.7,139.5 716.0,142.0" fill="none" stroke="#2ca02c" stroke-width="1.6"/>
<circle cx="506.0" cy="114.7" r="2" fill="#2ca02c"/>
<circle cx="552.7" cy="135.4" r="2" fill="#2ca02c"/>
<circle cx="599.3" cy="130.4" r="2" fill="#2ca02c"/>
<circle cx="622.7" cy="129.0" r="2" fill="#2ca02c"/>
<circle cx="646.0" cy="136.8" r="2" fill="#2ca02c"/>
<circle cx="669.3" cy="136.0" r="2" fill="#2ca02c"/>
<circle cx="692.7" cy="139.5" r="2" fill="#2ca02c"/>
<circle cx="716.0" cy="142.0" r="2" fill="#2ca02c"/>
<polygon points="506.0,110.6 552.7,128.0 599.3,135.6 622.7,137.6 646.0,140.0 669.3,144.8 692.7,149.2 716.0,151.1 716.0,151.7 692.7,149.9 669.3,145.8 646.0,140.5 622.7,140.6 599.3,136.4 552.7,130.4 506.0,114.6" fill="#1f77b4" opacity="0.11"/>
<polyline points="506.0,111.3 552.7,128.9 599.3,136.0 622.7,138.2 646.0,140.3 669.3,145.2 692.7,149.7 716.0,151.5" fill="none" stroke="#1f77b4" stroke-width="1.6"/>
<circle cx="506.0" cy="111.3" r="2" fill="#1f77b4"/>
<circle cx="552.7" cy="128.9" r="2" fill="#1f77b4"/>
<circle cx="599.3" cy="136.0" r="2" fill="#1f77b4"/>
<circle cx="622.7" cy="138.2" r="2" fill="#1f77b4"/>
<circle cx="646.0" cy="140.3" r="2" fill="#1f77b4"/>
<circle cx="669.3" cy="145.2" r="2" fill="#1f77b4"/>
<circle cx="692.7" cy="149.7" r="2" fill="#1f77b4"/>
<circle cx="716.0" cy="151.5" r="2" fill="#1f77b4"/>
<text x="611.0" y="55" text-anchor="middle" font-size="12" font-weight="bold">syrk</text>
<line x1="506.0" y1="60" x2="506.0" y2="198" stroke="#f4f4f4"/>
<text x="506.0" y="209" text-anchor="middle" font-size="8" fill="#999">8</text>
<line x1="552.7" y1="60" x2="552.7" y2="198" stroke="#f4f4f4"/>
<text x="552.7" y="209" text-anchor="middle" font-size="8" fill="#999">32</text>
<line x1="599.3" y1="60" x2="599.3" y2="198" stroke="#f4f4f4"/>
<text x="599.3" y="209" text-anchor="middle" font-size="8" fill="#999">128</text>
<line x1="622.7" y1="60" x2="622.7" y2="198" stroke="#f4f4f4"/>
<text x="622.7" y="209" text-anchor="middle" font-size="8" fill="#999">256</text>
<line x1="646.0" y1="60" x2="646.0" y2="198" stroke="#f4f4f4"/>
<text x="646.0" y="209" text-anchor="middle" font-size="8" fill="#999">512</text>
<line x1="669.3" y1="60" x2="669.3" y2="198" stroke="#f4f4f4"/>
<text x="669.3" y="209" text-anchor="middle" font-size="8" fill="#999">1k</text>
<line x1="692.7" y1="60" x2="692.7" y2="198" stroke="#f4f4f4"/>
<text x="692.7" y="209" text-anchor="middle" font-size="8" fill="#999">2k</text>
<line x1="716.0" y1="60" x2="716.0" y2="198" stroke="#f4f4f4"/>
<text x="716.0" y="209" text-anchor="middle" font-size="8" fill="#999">4k</text>
<rect x="736" y="60" width="210" height="138" fill="none" stroke="#e2e2e2"/>
<line x1="736" y1="153.3516116592645" x2="946" y2="153.3516116592645" stroke="#d33" stroke-dasharray="4 3"/>
<text x="732" y="201.0" text-anchor="end" font-size="9" fill="#999">0.5×</text>
<text x="732" y="156.3516116592645" text-anchor="end" font-size="9" fill="#999">1.0×</text>
<polygon points="736.0,119.7 782.7,133.0 829.3,154.4 852.7,155.0 876.0,153.3 899.3,151.7 922.7,151.5 946.0,149.4 946.0,150.2 922.7,153.2 899.3,152.0 876.0,153.6 852.7,155.4 829.3,159.3 782.7,137.5 736.0,122.4" fill="#d62728" opacity="0.11"/>
<polyline points="736.0,121.1 782.7,134.6 829.3,155.2 852.7,155.1 876.0,153.5 899.3,151.8 922.7,151.7 946.0,149.6" fill="none" stroke="#d62728" stroke-width="1.6"/>
<circle cx="736.0" cy="121.1" r="2" fill="#d62728"/>
<circle cx="782.7" cy="134.6" r="2" fill="#d62728"/>
<circle cx="829.3" cy="155.2" r="2" fill="#d62728"/>
<circle cx="852.7" cy="155.1" r="2" fill="#d62728"/>
<circle cx="876.0" cy="153.5" r="2" fill="#d62728"/>
<circle cx="899.3" cy="151.8" r="2" fill="#d62728"/>
<circle cx="922.7" cy="151.7" r="2" fill="#d62728"/>
<circle cx="946.0" cy="149.6" r="2" fill="#d62728"/>
<polygon points="736.0,122.1 782.7,84.6 829.3,70.2 852.7,65.0 876.0,137.8 899.3,143.7 922.7,147.0 946.0,148.2 946.0,149.5 922.7,147.8 899.3,146.2 876.0,146.0 852.7,146.6 829.3,144.2 782.7,142.5 736.0,135.6" fill="#2ca02c" opacity="0.11"/>
<polyline points="736.0,126.0 782.7,141.2 829.3,126.3 852.7,130.3 876.0,138.9 899.3,145.5 922.7,147.4 946.0,149.0" fill="none" stroke="#2ca02c" stroke-width="1.6"/>
<circle cx="736.0" cy="126.0" r="2" fill="#2ca02c"/>
<circle cx="782.7" cy="141.2" r="2" fill="#2ca02c"/>
<circle cx="829.3" cy="126.3" r="2" fill="#2ca02c"/>
<circle cx="852.7" cy="130.3" r="2" fill="#2ca02c"/>
<circle cx="876.0" cy="138.9" r="2" fill="#2ca02c"/>
<circle cx="899.3" cy="145.5" r="2" fill="#2ca02c"/>
<circle cx="922.7" cy="147.4" r="2" fill="#2ca02c"/>
<circle cx="946.0" cy="149.0" r="2" fill="#2ca02c"/>
<polygon points="736.0,129.4 782.7,134.7 829.3,138.1 852.7,140.5 876.0,149.1 899.3,153.5 922.7,155.1 946.0,155.7 946.0,155.9 922.7,155.9 899.3,153.8 876.0,149.6 852.7,143.6 829.3,140.0 782.7,138.2 736.0,137.8" fill="#1f77b4" opacity="0.11"/>
<polyline points="736.0,133.9 782.7,135.8 829.3,138.7 852.7,141.3 876.0,149.4 899.3,153.7 922.7,155.5 946.0,155.9" fill="none" stroke="#1f77b4" stroke-width="1.6"/>
<circle cx="736.0" cy="133.9" r="2" fill="#1f77b4"/>
<circle cx="782.7" cy="135.8" r="2" fill="#1f77b4"/>
<circle cx="829.3" cy="138.7" r="2" fill="#1f77b4"/>
<circle cx="852.7" cy="141.3" r="2" fill="#1f77b4"/>
<circle cx="876.0" cy="149.4" r="2" fill="#1f77b4"/>
<circle cx="899.3" cy="153.7" r="2" fill="#1f77b4"/>
<circle cx="922.7" cy="155.5" r="2" fill="#1f77b4"/>
<circle cx="946.0" cy="155.9" r="2" fill="#1f77b4"/>
<text x="841.0" y="55" text-anchor="middle" font-size="12" font-weight="bold">syr2k</text>
<line x1="736.0" y1="60" x2="736.0" y2="198" stroke="#f4f4f4"/>
<text x="736.0" y="209" text-anchor="middle" font-size="8" fill="#999">8</text>
<line x1="782.7" y1="60" x2="782.7" y2="198" stroke="#f4f4f4"/>
<text x="782.7" y="209" text-anchor="middle" font-size="8" fill="#999">32</text>
<line x1="829.3" y1="60" x2="829.3" y2="198" stroke="#f4f4f4"/>
<text x="829.3" y="209" text-anchor="middle" font-size="8" fill="#999">128</text>
<line x1="852.7" y1="60" x2="852.7" y2="198" stroke="#f4f4f4"/>
<text x="852.7" y="209" text-anchor="middle" font-size="8" fill="#999">256</text>
<line x1="876.0" y1="60" x2="876.0" y2="198" stroke="#f4f4f4"/>
<text x="876.0" y="209" text-anchor="middle" font-size="8" fill="#999">512</text>
<line x1="899.3" y1="60" x2="899.3" y2="198" stroke="#f4f4f4"/>
<text x="899.3" y="209" text-anchor="middle" font-size="8" fill="#999">1k</text>
<line x1="922.7" y1="60" x2="922.7" y2="198" stroke="#f4f4f4"/>
<text x="922.7" y="209" text-anchor="middle" font-size="8" fill="#999">2k</text>
<line x1="946.0" y1="60" x2="946.0" y2="198" stroke="#f4f4f4"/>
<text x="946.0" y="209" text-anchor="middle" font-size="8" fill="#999">4k</text>
<rect x="46" y="232" width="210" height="138" fill="none" stroke="#e2e2e2"/>
<line x1="46" y1="311.51794329614734" x2="256" y2="311.51794329614734" stroke="#d33" stroke-dasharray="4 3"/>
<text x="42" y="373.0" text-anchor="end" font-size="9" fill="#999">0.5×</text>
<text x="42" y="314.51794329614734" text-anchor="end" font-size="9" fill="#999">1.0×</text>
<polygon points="46.0,326.2 92.7,293.5 139.3,295.9 162.7,295.6 186.0,300.8 209.3,302.9 232.7,304.9 256.0,304.1 256.0,305.1 232.7,306.2 209.3,304.5 186.0,303.4 162.7,301.8 139.3,299.1 92.7,315.9 46.0,328.9" fill="#d62728" opacity="0.11"/>
<polyline points="46.0,327.1 92.7,303.0 139.3,298.1 162.7,299.1 186.0,301.9 209.3,304.3 232.7,306.0 256.0,304.4" fill="none" stroke="#d62728" stroke-width="1.6"/>
<circle cx="46.0" cy="327.1" r="2" fill="#d62728"/>
<circle cx="92.7" cy="303.0" r="2" fill="#d62728"/>
<circle cx="139.3" cy="298.1" r="2" fill="#d62728"/>
<circle cx="162.7" cy="299.1" r="2" fill="#d62728"/>
<circle cx="186.0" cy="301.9" r="2" fill="#d62728"/>
<circle cx="209.3" cy="304.3" r="2" fill="#d62728"/>
<circle cx="232.7" cy="306.0" r="2" fill="#d62728"/>
<circle cx="256.0" cy="304.4" r="2" fill="#d62728"/>
<polygon points="46.0,273.5 92.7,238.5 139.3,258.4 162.7,287.5 186.0,281.3 209.3,302.1 232.7,303.9 256.0,304.6 256.0,305.6 232.7,305.3 209.3,304.5 186.0,307.7 162.7,308.1 139.3,306.9 92.7,304.9 46.0,291.8" fill="#2ca02c" opacity="0.11"/>
<polyline points="46.0,276.1 92.7,303.3 139.3,290.7 162.7,292.7 186.0,306.7 209.3,303.5 232.7,304.8 256.0,305.3" fill="none" stroke="#2ca02c" stroke-width="1.6"/>
<circle cx="46.0" cy="276.1" r="2" fill="#2ca02c"/>
<circle cx="92.7" cy="303.3" r="2" fill="#2ca02c"/>
<circle cx="139.3" cy="290.7" r="2" fill="#2ca02c"/>
<circle cx="162.7" cy="292.7" r="2" fill="#2ca02c"/>
<circle cx="186.0" cy="306.7" r="2" fill="#2ca02c"/>
<circle cx="209.3" cy="303.5" r="2" fill="#2ca02c"/>
<circle cx="232.7" cy="304.8" r="2" fill="#2ca02c"/>
<circle cx="256.0" cy="305.3" r="2" fill="#2ca02c"/>
<polygon points="46.0,275.2 92.7,301.2 139.3,298.6 162.7,301.5 186.0,311.1 209.3,312.1 232.7,314.0 256.0,314.5 256.0,315.7 232.7,314.9 209.3,312.7 186.0,313.0 162.7,302.9 139.3,300.7 92.7,309.2 46.0,297.9" fill="#1f77b4" opacity="0.11"/>
<polyline points="46.0,286.3 92.7,303.1 139.3,299.7 162.7,302.2 186.0,311.7 209.3,312.4 232.7,314.5 256.0,314.6" fill="none" stroke="#1f77b4" stroke-width="1.6"/>
<circle cx="46.0" cy="286.3" r="2" fill="#1f77b4"/>
<circle cx="92.7" cy="303.1" r="2" fill="#1f77b4"/>
<circle cx="139.3" cy="299.7" r="2" fill="#1f77b4"/>
<circle cx="162.7" cy="302.2" r="2" fill="#1f77b4"/>
<circle cx="186.0" cy="311.7" r="2" fill="#1f77b4"/>
<circle cx="209.3" cy="312.4" r="2" fill="#1f77b4"/>
<circle cx="232.7" cy="314.5" r="2" fill="#1f77b4"/>
<circle cx="256.0" cy="314.6" r="2" fill="#1f77b4"/>
<text x="151.0" y="227" text-anchor="middle" font-size="12" font-weight="bold">trmm</text>
<line x1="46.0" y1="232" x2="46.0" y2="370" stroke="#f4f4f4"/>
<text x="46.0" y="381" text-anchor="middle" font-size="8" fill="#999">8</text>
<line x1="92.7" y1="232" x2="92.7" y2="370" stroke="#f4f4f4"/>
<text x="92.7" y="381" text-anchor="middle" font-size="8" fill="#999">32</text>
<line x1="139.3" y1="232" x2="139.3" y2="370" stroke="#f4f4f4"/>
<text x="139.3" y="381" text-anchor="middle" font-size="8" fill="#999">128</text>
<line x1="162.7" y1="232" x2="162.7" y2="370" stroke="#f4f4f4"/>
<text x="162.7" y="381" text-anchor="middle" font-size="8" fill="#999">256</text>
<line x1="186.0" y1="232" x2="186.0" y2="370" stroke="#f4f4f4"/>
<text x="186.0" y="381" text-anchor="middle" font-size="8" fill="#999">512</text>
<line x1="209.3" y1="232" x2="209.3" y2="370" stroke="#f4f4f4"/>
<text x="209.3" y="381" text-anchor="middle" font-size="8" fill="#999">1k</text>
<line x1="232.7" y1="232" x2="232.7" y2="370" stroke="#f4f4f4"/>
<text x="232.7" y="381" text-anchor="middle" font-size="8" fill="#999">2k</text>
<line x1="256.0" y1="232" x2="256.0" y2="370" stroke="#f4f4f4"/>
<text x="256.0" y="381" text-anchor="middle" font-size="8" fill="#999">4k</text>
<rect x="276" y="232" width="210" height="138" fill="none" stroke="#e2e2e2"/>
<line x1="276" y1="333.16164495851444" x2="486" y2="333.16164495851444" stroke="#d33" stroke-dasharray="4 3"/>
<text x="272" y="373.0" text-anchor="end" font-size="9" fill="#999">0.5×</text>
<text x="272" y="336.16164495851444" text-anchor="end" font-size="9" fill="#999">1.0×</text>
<polygon points="276.0,327.0 322.7,301.6 369.3,334.7 392.7,334.6 416.0,330.2 439.3,330.7 462.7,329.3 486.0,327.0 486.0,332.2 462.7,329.9 439.3,331.5 416.0,332.0 392.7,335.0 369.3,336.6 322.7,315.1 276.0,327.9" fill="#d62728" opacity="0.11"/>
<polyline points="276.0,327.4 322.7,306.7 369.3,336.0 392.7,334.7 416.0,331.3 439.3,331.3 462.7,329.6 486.0,329.5" fill="none" stroke="#d62728" stroke-width="1.6"/>
<circle cx="276.0" cy="327.4" r="2" fill="#d62728"/>
<circle cx="322.7" cy="306.7" r="2" fill="#d62728"/>
<circle cx="369.3" cy="336.0" r="2" fill="#d62728"/>
<circle cx="392.7" cy="334.7" r="2" fill="#d62728"/>
<circle cx="416.0" cy="331.3" r="2" fill="#d62728"/>
<circle cx="439.3" cy="331.3" r="2" fill="#d62728"/>
<circle cx="462.7" cy="329.6" r="2" fill="#d62728"/>
<circle cx="486.0" cy="329.5" r="2" fill="#d62728"/>
<polygon points="276.0,301.6 322.7,261.9 369.3,247.8 392.7,236.1 416.0,307.9 439.3,320.0 462.7,324.0 486.0,325.3 486.0,329.2 462.7,325.2 439.3,322.0 416.0,322.1 392.7,324.8 369.3,321.1 322.7,294.8 276.0,308.2" fill="#2ca02c" opacity="0.11"/>
<polyline points="276.0,303.0 322.7,292.4 369.3,293.5 392.7,297.6 416.0,313.0 439.3,320.9 462.7,324.8 486.0,326.9" fill="none" stroke="#2ca02c" stroke-width="1.6"/>
<circle cx="276.0" cy="303.0" r="2" fill="#2ca02c"/>
<circle cx="322.7" cy="292.4" r="2" fill="#2ca02c"/>
<circle cx="369.3" cy="293.5" r="2" fill="#2ca02c"/>
<circle cx="392.7" cy="297.6" r="2" fill="#2ca02c"/>
<circle cx="416.0" cy="313.0" r="2" fill="#2ca02c"/>
<circle cx="439.3" cy="320.9" r="2" fill="#2ca02c"/>
<circle cx="462.7" cy="324.8" r="2" fill="#2ca02c"/>
<circle cx="486.0" cy="326.9" r="2" fill="#2ca02c"/>
<polygon points="276.0,309.8 322.7,297.5 369.3,293.8 392.7,296.2 416.0,316.0 439.3,322.8 462.7,328.7 486.0,329.7 486.0,338.1 462.7,331.6 439.3,323.4 416.0,316.5 392.7,297.3 369.3,295.9 322.7,299.9 276.0,313.8" fill="#1f77b4" opacity="0.11"/>
<polyline points="276.0,312.0 322.7,298.0 369.3,294.4 392.7,296.7 416.0,316.2 439.3,323.1 462.7,330.7 486.0,333.8" fill="none" stroke="#1f77b4" stroke-width="1.6"/>
<circle cx="276.0" cy="312.0" r="2" fill="#1f77b4"/>
<circle cx="322.7" cy="298.0" r="2" fill="#1f77b4"/>
<circle cx="369.3" cy="294.4" r="2" fill="#1f77b4"/>
<circle cx="392.7" cy="296.7" r="2" fill="#1f77b4"/>
<circle cx="416.0" cy="316.2" r="2" fill="#1f77b4"/>
<circle cx="439.3" cy="323.1" r="2" fill="#1f77b4"/>
<circle cx="462.7" cy="330.7" r="2" fill="#1f77b4"/>
<circle cx="486.0" cy="333.8" r="2" fill="#1f77b4"/>
<text x="381.0" y="227" text-anchor="middle" font-size="12" font-weight="bold">trsm</text>
<line x1="276.0" y1="232" x2="276.0" y2="370" stroke="#f4f4f4"/>
<text x="276.0" y="381" text-anchor="middle" font-size="8" fill="#999">8</text>
<line x1="322.7" y1="232" x2="322.7" y2="370" stroke="#f4f4f4"/>
<text x="322.7" y="381" text-anchor="middle" font-size="8" fill="#999">32</text>
<line x1="369.3" y1="232" x2="369.3" y2="370" stroke="#f4f4f4"/>
<text x="369.3" y="381" text-anchor="middle" font-size="8" fill="#999">128</text>
<line x1="392.7" y1="232" x2="392.7" y2="370" stroke="#f4f4f4"/>
<text x="392.7" y="381" text-anchor="middle" font-size="8" fill="#999">256</text>
<line x1="416.0" y1="232" x2="416.0" y2="370" stroke="#f4f4f4"/>
<text x="416.0" y="381" text-anchor="middle" font-size="8" fill="#999">512</text>
<line x1="439.3" y1="232" x2="439.3" y2="370" stroke="#f4f4f4"/>
<text x="439.3" y="381" text-anchor="middle" font-size="8" fill="#999">1k</text>
<line x1="462.7" y1="232" x2="462.7" y2="370" stroke="#f4f4f4"/>
<text x="462.7" y="381" text-anchor="middle" font-size="8" fill="#999">2k</text>
<line x1="486.0" y1="232" x2="486.0" y2="370" stroke="#f4f4f4"/>
<text x="486.0" y="381" text-anchor="middle" font-size="8" fill="#999">4k</text>
<rect x="506" y="232" width="210" height="138" fill="none" stroke="#e2e2e2"/>
<line x1="506" y1="334.5127224769146" x2="716" y2="334.5127224769146" stroke="#d33" stroke-dasharray="4 3"/>
<text x="502" y="373.0" text-anchor="end" font-size="9" fill="#999">0.5×</text>
<text x="502" y="337.5127224769146" text-anchor="end" font-size="9" fill="#999">1.0×</text>
<polygon points="506.0,304.8 552.7,315.3 599.3,333.8 622.7,329.9 646.0,336.8 669.3,334.4 692.7,332.4 716.0,331.4 716.0,332.0 692.7,333.3 669.3,335.4 646.0,337.5 622.7,330.8 599.3,335.1 552.7,322.0 506.0,313.4" fill="#d62728" opacity="0.11"/>
<polyline points="506.0,312.6 552.7,317.8 599.3,334.4 622.7,330.5 646.0,337.4 669.3,335.2 692.7,333.1 716.0,331.9" fill="none" stroke="#d62728" stroke-width="1.6"/>
<circle cx="506.0" cy="312.6" r="2" fill="#d62728"/>
<circle cx="552.7" cy="317.8" r="2" fill="#d62728"/>
<circle cx="599.3" cy="334.4" r="2" fill="#d62728"/>
<circle cx="622.7" cy="330.5" r="2" fill="#d62728"/>
<circle cx="646.0" cy="337.4" r="2" fill="#d62728"/>
<circle cx="669.3" cy="335.2" r="2" fill="#d62728"/>
<circle cx="692.7" cy="333.1" r="2" fill="#d62728"/>
<circle cx="716.0" cy="331.9" r="2" fill="#d62728"/>
<polygon points="506.0,283.1 552.7,255.5 599.3,242.0 622.7,235.9 646.0,310.1 669.3,322.1 692.7,325.9 716.0,328.1 716.0,328.8 692.7,326.7 669.3,323.7 646.0,325.9 622.7,328.3 599.3,326.2 552.7,320.9 506.0,288.7" fill="#2ca02c" opacity="0.11"/>
<polyline points="506.0,285.9 552.7,295.2 599.3,299.6 622.7,302.9 646.0,315.8 669.3,323.1 692.7,326.2 716.0,328.4" fill="none" stroke="#2ca02c" stroke-width="1.6"/>
<circle cx="506.0" cy="285.9" r="2" fill="#2ca02c"/>
<circle cx="552.7" cy="295.2" r="2" fill="#2ca02c"/>
<circle cx="599.3" cy="299.6" r="2" fill="#2ca02c"/>
<circle cx="622.7" cy="302.9" r="2" fill="#2ca02c"/>
<circle cx="646.0" cy="315.8" r="2" fill="#2ca02c"/>
<circle cx="669.3" cy="323.1" r="2" fill="#2ca02c"/>
<circle cx="692.7" cy="326.2" r="2" fill="#2ca02c"/>
<circle cx="716.0" cy="328.4" r="2" fill="#2ca02c"/>
<polygon points="506.0,284.6 552.7,287.9 599.3,296.4 622.7,299.1 646.0,315.9 669.3,324.5 692.7,329.3 716.0,332.1 716.0,332.8 692.7,330.2 669.3,325.2 646.0,317.1 622.7,300.5 599.3,297.6 552.7,294.1 506.0,292.0" fill="#1f77b4" opacity="0.11"/>
<polyline points="506.0,288.4 552.7,289.2 599.3,296.8 622.7,300.0 646.0,316.3 669.3,324.7 692.7,329.7 716.0,332.5" fill="none" stroke="#1f77b4" stroke-width="1.6"/>
<circle cx="506.0" cy="288.4" r="2" fill="#1f77b4"/>
<circle cx="552.7" cy="289.2" r="2" fill="#1f77b4"/>
<circle cx="599.3" cy="296.8" r="2" fill="#1f77b4"/>
<circle cx="622.7" cy="300.0" r="2" fill="#1f77b4"/>
<circle cx="646.0" cy="316.3" r="2" fill="#1f77b4"/>
<circle cx="669.3" cy="324.7" r="2" fill="#1f77b4"/>
<circle cx="692.7" cy="329.7" r="2" fill="#1f77b4"/>
<circle cx="716.0" cy="332.5" r="2" fill="#1f77b4"/>
<text x="611.0" y="227" text-anchor="middle" font-size="12" font-weight="bold">trsmR</text>
<line x1="506.0" y1="232" x2="506.0" y2="370" stroke="#f4f4f4"/>
<text x="506.0" y="381" text-anchor="middle" font-size="8" fill="#999">8</text>
<line x1="552.7" y1="232" x2="552.7" y2="370" stroke="#f4f4f4"/>
<text x="552.7" y="381" text-anchor="middle" font-size="8" fill="#999">32</text>
<line x1="599.3" y1="232" x2="599.3" y2="370" stroke="#f4f4f4"/>
<text x="599.3" y="381" text-anchor="middle" font-size="8" fill="#999">128</text>
<line x1="622.7" y1="232" x2="622.7" y2="370" stroke="#f4f4f4"/>
<text x="622.7" y="381" text-anchor="middle" font-size="8" fill="#999">256</text>
<line x1="646.0" y1="232" x2="646.0" y2="370" stroke="#f4f4f4"/>
<text x="646.0" y="381" text-anchor="middle" font-size="8" fill="#999">512</text>
<line x1="669.3" y1="232" x2="669.3" y2="370" stroke="#f4f4f4"/>
<text x="669.3" y="381" text-anchor="middle" font-size="8" fill="#999">1k</text>
<line x1="692.7" y1="232" x2="692.7" y2="370" stroke="#f4f4f4"/>
<text x="692.7" y="381" text-anchor="middle" font-size="8" fill="#999">2k</text>
<line x1="716.0" y1="232" x2="716.0" y2="370" stroke="#f4f4f4"/>
<text x="716.0" y="381" text-anchor="middle" font-size="8" fill="#999">4k</text>
</svg>
