<svg xmlns="http://www.w3.org/2000/svg" width="900" height="440" font-family="sans-serif">
<rect width="900" height="440" fill="white"/>
<text x="450.0" y="28" text-anchor="middle" font-size="18" font-weight="bold">BLAS-1: PureBLAS / OpenBLAS (AVX2, 1 thread, Float64)</text>
<line x1="60" y1="358.0" x2="880" y2="358.0" stroke="#eee"/>
<text x="52" y="362.0" text-anchor="end" font-size="11" fill="#666">0×</text>
<line x1="60" y1="339.787916699671" x2="880" y2="339.787916699671" stroke="#eee"/>
<text x="52" y="343.787916699671" text-anchor="end" font-size="11" fill="#666">0.5×</text>
<line x1="60" y1="321.5758333993419" x2="880" y2="321.5758333993419" stroke="#eee"/>
<text x="52" y="325.5758333993419" text-anchor="end" font-size="11" fill="#666">1×</text>
<line x1="60" y1="303.3637500990129" x2="880" y2="303.3637500990129" stroke="#eee"/>
<text x="52" y="307.3637500990129" text-anchor="end" font-size="11" fill="#666">1.5×</text>
<line x1="60" y1="321.5758333993419" x2="880" y2="321.5758333993419" stroke="#888" stroke-width="1"/>
<line x1="60" y1="323.0328000633682" x2="880" y2="323.0328000633682" stroke="#d33" stroke-width="1.5" stroke-dasharray="6 4"/>
<text x="880" y="318.0328000633682" text-anchor="end" font-size="11" fill="#d33">0.96× gate</text>
<polygon points="128.3,329.1 128.3,328.9 128.3,328.8 128.3,328.6 128.4,328.4 128.4,328.3 128.6,328.1 128.6,327.9 128.6,327.8 128.5,327.6 128.4,327.4 128.3,327.3 128.3,327.1 128.3,326.9 128.3,326.7 128.3,326.6 128.3,326.4 128.3,326.2 128.3,326.1 128.3,325.9 128.3,325.7 128.4,325.6 128.4,325.4 128.6,325.2 128.6,325.0 128.6,324.9 128.5,324.7 128.4,324.5 128.3,324.4 128.3,324.2 128.3,324.0 128.3,323.9 128.3,323.7 128.3,323.5 128.3,323.4 128.3,323.2 128.3,323.0 128.4,322.8 128.4,322.7 128.6,322.5 129.4,322.3 132.0,322.2 139.4,322.0 154.4,321.8 173.5,321.7 185.7,321.5 183.5,321.3 171.5,321.1 159.1,321.0 149.9,320.8 142.4,320.6 136.4,320.5 134.7,320.3 137.9,320.1 142.0,320.0 142.0,319.8 137.6,319.6 132.8,319.5 130.1,319.3 129.0,319.1 128.8,318.9 128.7,318.8 128.7,318.6 128.7,318.4 128.7,318.3 128.6,318.1 128.4,317.9 128.4,317.8 128.3,317.6 128.3,317.4 128.3,317.3 128.3,317.1 128.3,317.1 128.3,317.3 128.3,317.4 128.3,317.6 128.3,317.8 128.2,317.9 128.1,318.1 128.0,318.3 128.0,318.4 127.9,318.6 127.9,318.8 127.9,318.9 127.6,319.1 126.6,319.3 123.8,319.5 119.0,319.6 114.6,319.8 114.6,320.0 118.8,320.1 121.9,320.3 120.3,320.5 114.3,320.6 106.7,320.8 97.6,321.0 85.2,321.1 73.2,321.3 70.9,321.5 83.1,321.7 102.3,321.8 117.3,322.0 124.7,322.2 127.3,322.3 128.0,322.5 128.2,322.7 128.3,322.8 128.3,323.0 128.3,323.2 128.3,323.4 128.3,323.5 128.3,323.7 128.3,323.9 128.3,324.0 128.3,324.2 128.3,324.4 128.3,324.5 128.2,324.7 128.1,324.9 128.0,325.0 128.1,325.2 128.2,325.4 128.3,325.6 128.3,325.7 128.3,325.9 128.3,326.1 128.3,326.2 128.3,326.4 128.3,326.6 128.3,326.7 128.3,326.9 128.3,327.1 128.3,327.3 128.3,327.4 128.2,327.6 128.1,327.8 128.0,327.9 128.1,328.1 128.2,328.3 128.3,328.4 128.3,328.6 128.3,328.8 128.3,328.9 128.3,329.1" fill="#2a8" opacity="0.5" stroke="#2a8" stroke-width="1"/>
<line x1="73.7" y1="321.3091396500155" x2="183.0" y2="321.3091396500155" stroke="#114" stroke-width="2"/>
<circle cx="128.33333333333331" cy="321.58653407620545" r="2.4" fill="#114"/>
<text x="128.33333333333331" y="312.30433115842146" text-anchor="middle" font-size="11">1.01</text>
<text x="128.33333333333331" y="376" text-anchor="middle" font-size="12">axpy</text>
<polygon points="265.0,336.3 265.0,336.0 265.0,335.8 265.0,335.5 265.0,335.3 265.0,335.0 265.2,334.8 265.3,334.5 265.2,334.3 265.1,334.0 265.0,333.8 265.0,333.5 265.0,333.3 265.0,333.0 265.0,332.8 265.0,332.5 265.0,332.2 265.0,332.0 265.0,331.7 265.0,331.5 265.0,331.2 265.0,331.0 265.0,330.7 265.0,330.5 265.0,330.2 265.0,330.0 265.0,329.7 265.0,329.5 265.0,329.2 265.0,329.0 265.0,328.7 265.0,328.5 265.0,328.2 265.0,328.0 265.0,327.7 265.0,327.5 265.0,327.2 265.0,327.0 265.0,326.7 265.0,326.5 265.0,326.2 265.0,325.9 265.0,325.7 265.0,325.4 265.0,325.2 265.0,324.9 265.0,324.7 265.0,324.4 265.1,324.2 265.4,323.9 266.2,323.7 267.2,323.4 268.1,323.2 269.5,322.9 271.6,322.7 275.3,322.4 287.1,322.2 308.6,321.9 322.4,321.7 313.5,321.4 294.8,321.2 281.5,320.9 273.5,320.7 268.9,320.4 266.6,320.1 265.5,319.9 265.1,319.6 265.0,319.4 265.0,319.1 265.0,318.9 265.0,318.6 265.0,318.4 265.0,318.4 265.0,318.6 265.0,318.9 265.0,319.1 265.0,319.4 264.9,319.6 264.5,319.9 263.4,320.1 261.1,320.4 256.5,320.7 248.5,320.9 235.2,321.2 216.5,321.4 207.6,321.7 221.4,321.9 242.9,322.2 254.7,322.4 258.4,322.7 260.5,322.9 261.9,323.2 262.8,323.4 263.8,323.7 264.6,323.9 264.9,324.2 265.0,324.4 265.0,324.7 265.0,324.9 265.0,325.2 265.0,325.4 265.0,325.7 265.0,325.9 265.0,326.2 265.0,326.5 265.0,326.7 265.0,327.0 265.0,327.2 265.0,327.5 265.0,327.7 265.0,328.0 265.0,328.2 265.0,328.5 265.0,328.7 265.0,329.0 265.0,329.2 265.0,329.5 265.0,329.7 265.0,330.0 265.0,330.2 265.0,330.5 265.0,330.7 265.0,331.0 265.0,331.2 265.0,331.5 265.0,331.7 265.0,332.0 265.0,332.2 265.0,332.5 265.0,332.8 265.0,333.0 265.0,333.3 265.0,333.5 265.0,333.8 264.9,334.0 264.8,334.3 264.7,334.5 264.8,334.8 265.0,335.0 265.0,335.3 265.0,335.5 265.0,335.8 265.0,336.0 265.0,336.3" fill="#2a8" opacity="0.5" stroke="#2a8" stroke-width="1"/>
<line x1="207.8" y1="321.59721866794916" x2="322.2" y2="321.59721866794916" stroke="#114" stroke-width="2"/>
<circle cx="265.0" cy="321.88608060346496" r="2.4" fill="#114"/>
<text x="265.0" y="314.1750120491521" text-anchor="middle" font-size="11">1.00</text>
<text x="265.0" y="376" text-anchor="middle" font-size="12">dot</text>
<polygon points="401.9,203.9 402.0,201.8 402.2,199.7 402.3,197.5 402.4,195.4 402.6,193.3 402.8,191.1 403.0,189.0 403.2,186.9 403.5,184.8 403.8,182.6 404.1,180.5 404.5,178.4 405.1,176.2 405.7,174.1 406.5,172.0 407.4,169.8 408.5,167.7 409.6,165.6 410.8,163.5 411.9,161.3 413.1,159.2 414.4,157.1 415.7,154.9 417.2,152.8 418.9,150.7 421.0,148.6 423.3,146.4 425.9,144.3 428.6,142.2 431.3,140.0 433.8,137.9 435.7,135.8 437.0,133.7 437.4,131.5 436.9,129.4 435.4,127.3 433.1,125.1 430.2,123.0 426.7,120.9 423.1,118.7 419.5,116.6 416.2,114.5 413.4,112.4 411.2,110.2 409.7,108.1 409.0,106.0 409.0,103.8 409.9,101.7 411.6,99.6 414.1,97.5 417.3,95.3 421.2,93.2 425.7,91.1 430.6,88.9 435.8,86.8 441.1,84.7 446.3,82.6 451.0,80.4 454.9,78.3 457.7,76.2 459.1,74.0 458.9,71.9 457.0,69.8 453.6,67.6 448.9,65.5 443.2,63.4 436.9,61.3 430.6,59.1 424.6,57.0 419.2,54.9 414.6,52.7 388.7,52.7 384.1,54.9 378.7,57.0 372.7,59.1 366.4,61.3 360.2,63.4 354.5,65.5 349.7,67.6 346.3,69.8 344.5,71.9 344.3,74.0 345.7,76.2 348.5,78.3 352.4,80.4 357.1,82.6 362.2,84.7 367.5,86.8 372.8,88.9 377.7,91.1 382.1,93.2 386.0,95.3 389.2,97.5 391.7,99.6 393.4,101.7 394.3,103.8 394.4,106.0 393.6,108.1 392.1,110.2 389.9,112.4 387.1,114.5 383.8,116.6 380.2,118.7 376.6,120.9 373.2,123.0 370.2,125.1 367.9,127.3 366.4,129.4 365.9,131.5 366.3,133.7 367.6,135.8 369.6,137.9 372.0,140.0 374.7,142.2 377.5,144.3 380.1,146.4 382.4,148.6 384.4,150.7 386.1,152.8 387.6,154.9 389.0,157.1 390.2,159.2 391.4,161.3 392.6,163.5 393.7,165.6 394.9,167.7 395.9,169.8 396.8,172.0 397.6,174.1 398.3,176.2 398.8,178.4 399.2,180.5 399.6,182.6 399.9,184.8 400.1,186.9 400.3,189.0 400.5,191.1 400.7,193.3 400.9,195.4 401.0,197.5 401.2,199.7 401.3,201.8 401.4,203.9" fill="#2a8" opacity="0.5" stroke="#2a8" stroke-width="1"/>
<line x1="364.7" y1="85.68086297406244" x2="438.6" y2="85.68086297406244" stroke="#114" stroke-width="2"/>
<circle cx="401.66666666666663" cy="146.32266352876775" r="2.4" fill="#114"/>
<text x="401.66666666666663" y="61.433962264150935" text-anchor="middle" font-size="11">7.48</text>
<text x="401.66666666666663" y="376" text-anchor="middle" font-size="12">nrm2</text>
<polygon points="538.8,323.8 538.9,323.3 539.1,322.7 539.4,322.2 539.7,321.6 540.1,321.1 540.6,320.5 541.2,320.0 542.0,319.4 543.0,318.9 544.3,318.3 546.0,317.8 548.0,317.2 550.6,316.7 553.6,316.1 557.2,315.6 561.4,315.0 566.0,314.5 571.0,313.9 576.2,313.4 581.3,312.8 586.0,312.3 590.1,311.7 593.2,311.2 595.1,310.6 595.7,310.1 595.0,309.5 593.0,309.0 590.0,308.4 586.5,307.9 582.8,307.3 579.4,306.8 576.7,306.2 575.0,305.7 574.4,305.1 575.0,304.6 576.4,304.0 578.4,303.5 580.5,302.9 582.3,302.4 583.4,301.8 583.4,301.3 582.2,300.7 579.8,300.2 576.3,299.6 572.1,299.1 567.6,298.5 563.0,298.0 558.8,297.4 555.2,296.9 552.5,296.3 550.9,295.8 550.5,295.2 551.2,294.7 553.0,294.1 555.9,293.6 559.7,293.0 564.0,292.5 568.6,291.9 573.1,291.4 577.1,290.8 580.1,290.3 582.0,289.7 582.4,289.2 581.4,288.6 579.0,288.1 575.5,287.5 571.2,287.0 566.4,286.4 561.5,285.9 556.8,285.3 552.6,284.8 524.1,284.8 519.8,285.3 515.2,285.9 510.3,286.4 505.5,287.0 501.1,287.5 497.6,288.1 495.2,288.6 494.2,289.2 494.7,289.7 496.5,290.3 499.6,290.8 503.6,291.4 508.1,291.9 512.7,292.5 517.0,293.0 520.7,293.6 523.6,294.1 525.5,294.7 526.2,295.2 525.8,295.8 524.1,296.3 521.5,296.9 517.9,297.4 513.7,298.0 509.1,298.5 504.5,299.1 500.3,299.6 496.9,300.2 494.5,300.7 493.3,301.3 493.3,301.8 494.3,302.4 496.1,302.9 498.2,303.5 500.2,304.0 501.7,304.6 502.2,305.1 501.7,305.7 500.0,306.2 497.3,306.8 493.9,307.3 490.2,307.9 486.6,308.4 483.7,309.0 481.7,309.5 480.9,310.1 481.5,310.6 483.5,311.2 486.6,311.7 490.7,312.3 495.4,312.8 500.5,313.4 505.7,313.9 510.6,314.5 515.3,315.0 519.4,315.6 523.0,316.1 526.1,316.7 528.6,317.2 530.7,317.8 532.4,318.3 533.7,318.9 534.7,319.4 535.5,320.0 536.1,320.5 536.6,321.1 537.0,321.6 537.3,322.2 537.5,322.7 537.7,323.3 537.9,323.8" fill="#2a8" opacity="0.5" stroke="#2a8" stroke-width="1"/>
<line x1="493.2" y1="301.4604208501918" x2="583.5" y2="301.4604208501918" stroke="#114" stroke-width="2"/>
<circle cx="538.3333333333333" cy="311.37800644764025" r="2.4" fill="#114"/>
<text x="538.3333333333333" y="282.6230634320165" text-anchor="middle" font-size="11">1.55</text>
<text x="538.3333333333333" y="376" text-anchor="middle" font-size="12">asum</text>
<polygon points="675.1,322.2 675.1,322.1 675.2,322.1 675.4,322.1 675.7,322.0 676.0,322.0 676.6,322.0 677.5,321.9 678.8,321.9 680.6,321.9 683.0,321.8 686.1,321.8 689.9,321.8 694.4,321.7 699.4,321.7 704.9,321.6 710.4,321.6 715.9,321.6 720.9,321.5 725.3,321.5 728.8,321.5 731.2,321.4 732.4,321.4 732.3,321.4 730.8,321.3 728.1,321.3 724.3,321.3 719.8,321.2 715.0,321.2 710.3,321.1 706.0,321.1 702.5,321.1 699.7,321.0 697.6,321.0 695.9,321.0 694.5,320.9 693.0,320.9 691.3,320.9 689.4,320.8 687.3,320.8 685.1,320.8 683.0,320.7 681.2,320.7 679.6,320.6 678.4,320.6 677.5,320.6 677.0,320.5 676.7,320.5 676.8,320.5 677.3,320.4 678.1,320.4 679.2,320.4 680.8,320.3 682.6,320.3 684.6,320.2 686.6,320.2 688.4,320.2 689.7,320.1 690.3,320.1 690.2,320.1 689.4,320.0 688.0,320.0 686.1,320.0 684.1,319.9 682.1,319.9 680.3,319.9 678.8,319.8 677.6,319.8 676.7,319.7 676.0,319.7 675.6,319.7 675.3,319.6 674.7,319.6 674.4,319.7 674.0,319.7 673.3,319.7 672.4,319.8 671.2,319.8 669.7,319.9 667.9,319.9 665.9,319.9 663.9,320.0 662.0,320.0 660.6,320.0 659.8,320.1 659.7,320.1 660.3,320.1 661.6,320.2 663.4,320.2 665.4,320.2 667.4,320.3 669.2,320.3 670.8,320.4 671.9,320.4 672.7,320.4 673.2,320.5 673.3,320.5 673.0,320.5 672.5,320.6 671.6,320.6 670.4,320.6 668.8,320.7 667.0,320.7 664.9,320.8 662.7,320.8 660.6,320.8 658.7,320.9 657.0,320.9 655.5,320.9 654.1,321.0 652.4,321.0 650.3,321.0 647.5,321.1 644.0,321.1 639.7,321.1 635.0,321.2 630.2,321.2 625.7,321.3 621.9,321.3 619.2,321.3 617.7,321.4 617.6,321.4 618.8,321.4 621.2,321.5 624.7,321.5 629.1,321.5 634.1,321.6 639.6,321.6 645.1,321.6 650.6,321.7 655.6,321.7 660.1,321.8 663.9,321.8 667.0,321.8 669.4,321.9 671.2,321.9 672.5,321.9 673.4,322.0 674.0,322.0 674.3,322.0 674.6,322.1 674.8,322.1 674.9,322.1 674.9,322.2" fill="#2a8" opacity="0.5" stroke="#2a8" stroke-width="1"/>
<line x1="621.1" y1="321.2963985071067" x2="728.9" y2="321.2963985071067" stroke="#114" stroke-width="2"/>
<circle cx="675.0" cy="321.52291020971165" r="2.4" fill="#114"/>
<text x="675.0" y="313.9459634567566" text-anchor="middle" font-size="11">1.01</text>
<text x="675.0" y="376" text-anchor="middle" font-size="12">scal</text>
<polygon points="812.7,341.9 813.2,341.3 813.9,340.7 814.8,340.1 816.0,339.5 817.4,338.9 819.1,338.3 821.0,337.7 823.1,337.1 825.5,336.5 828.1,335.9 830.9,335.3 833.8,334.7 836.9,334.1 840.0,333.5 843.2,332.9 846.4,332.3 849.4,331.7 852.3,331.1 854.9,330.5 857.2,329.9 859.2,329.3 860.9,328.6 862.2,328.0 863.2,327.4 863.9,326.8 864.3,326.2 864.6,325.6 864.7,325.0 864.6,324.4 864.4,323.8 864.2,323.2 863.9,322.6 863.6,322.0 863.4,321.4 863.4,320.8 863.5,320.2 863.9,319.6 864.5,319.0 865.3,318.4 866.2,317.8 867.1,317.2 867.9,316.6 868.6,316.0 869.0,315.4 869.1,314.7 868.7,314.1 868.0,313.5 866.7,312.9 865.0,312.3 862.9,311.7 860.4,311.1 857.7,310.5 854.8,309.9 851.7,309.3 848.7,308.7 845.7,308.1 842.9,307.5 840.1,306.9 837.4,306.3 834.8,305.7 832.2,305.1 829.6,304.5 827.1,303.9 824.7,303.3 822.4,302.7 820.2,302.1 818.3,301.5 816.6,300.9 815.2,300.2 814.1,299.6 813.3,299.0 810.0,299.0 809.2,299.6 808.1,300.2 806.7,300.9 805.1,301.5 803.1,302.1 801.0,302.7 798.6,303.3 796.2,303.9 793.7,304.5 791.1,305.1 788.6,305.7 785.9,306.3 783.3,306.9 780.5,307.5 777.6,308.1 774.6,308.7 771.6,309.3 768.6,309.9 765.6,310.5 762.9,311.1 760.4,311.7 758.3,312.3 756.6,312.9 755.4,313.5 754.6,314.1 754.3,314.7 754.3,315.4 754.7,316.0 755.4,316.6 756.2,317.2 757.1,317.8 758.0,318.4 758.8,319.0 759.4,319.6 759.8,320.2 760.0,320.8 760.0,321.4 759.8,322.0 759.5,322.6 759.2,323.2 758.9,323.8 758.7,324.4 758.6,325.0 758.7,325.6 759.0,326.2 759.5,326.8 760.2,327.4 761.2,328.0 762.5,328.6 764.1,329.3 766.1,329.9 768.4,330.5 771.0,331.1 773.9,331.7 777.0,332.3 780.1,332.9 783.3,333.5 786.5,334.1 789.5,334.7 792.5,335.3 795.2,335.9 797.8,336.5 800.2,337.1 802.3,337.7 804.3,338.3 805.9,338.9 807.4,339.5 808.5,340.1 809.4,340.7 810.1,341.3 810.7,341.9" fill="#d33" opacity="0.5" stroke="#d33" stroke-width="1"/>
<line x1="759.6" y1="319.76978463216403" x2="863.8" y2="319.76978463216403" stroke="#114" stroke-width="2"/>
<circle cx="811.6666666666666" cy="324.81343920550427" r="2.4" fill="#114"/>
<text x="811.6666666666666" y="297.2503594791133" text-anchor="middle" font-size="11">1.05</text>
<text x="811.6666666666666" y="376" text-anchor="middle" font-size="12">iamax</text>
<text x="450.0" y="428" text-anchor="middle" font-size="11" fill="#666">violin = ratio distribution over sizes · line = median · dark dot = worst size · green = every size ≥ gate</text>
</svg>
