<svg xmlns="http://www.w3.org/2000/svg" width="900" height="440" font-family="sans-serif">
<rect width="900" height="440" fill="white"/>
<text x="450.0" y="28" text-anchor="middle" font-size="18" font-weight="bold">BLAS-1: PureBLAS / OpenBLAS (AVX2, 1 thread, Float64)</text>
<line x1="60" y1="358.0" x2="880" y2="358.0" stroke="#eee"/>
<text x="52" y="362.0" text-anchor="end" font-size="11" fill="#666">0×</text>
<line x1="60" y1="339.8436269370178" x2="880" y2="339.8436269370178" stroke="#eee"/>
<text x="52" y="343.8436269370178" text-anchor="end" font-size="11" fill="#666">0.5×</text>
<line x1="60" y1="321.6872538740356" x2="880" y2="321.6872538740356" stroke="#eee"/>
<text x="52" y="325.6872538740356" text-anchor="end" font-size="11" fill="#666">1×</text>
<line x1="60" y1="303.5308808110534" x2="880" y2="303.5308808110534" stroke="#eee"/>
<text x="52" y="307.5308808110534" text-anchor="end" font-size="11" fill="#666">1.5×</text>
<line x1="60" y1="321.6872538740356" x2="880" y2="321.6872538740356" stroke="#888" stroke-width="1"/>
<line x1="60" y1="323.1397637190742" x2="880" y2="323.1397637190742" stroke="#d33" stroke-width="1.5" stroke-dasharray="6 4"/>
<text x="880" y="318.1397637190742" text-anchor="end" font-size="11" fill="#d33">0.96× gate</text>
<polygon points="128.3,345.6 128.3,345.0 128.4,344.5 128.4,343.9 128.5,343.4 128.7,342.8 128.8,342.2 128.9,341.7 128.8,341.1 128.7,340.6 128.5,340.0 128.4,339.5 128.4,338.9 128.3,338.4 128.3,337.8 128.3,337.2 128.3,336.7 128.3,336.1 128.3,335.6 128.3,335.0 128.3,334.5 128.3,333.9 128.3,333.3 128.3,332.8 128.3,332.2 128.3,331.7 128.3,331.1 128.3,330.6 128.3,330.0 128.3,329.5 128.3,328.9 128.3,328.3 128.3,327.8 128.3,327.2 128.3,326.7 128.3,326.1 128.4,325.6 128.7,325.0 129.9,324.5 133.1,323.9 140.2,323.3 152.2,322.8 167.1,322.2 180.0,321.7 185.7,321.1 182.7,320.6 173.0,320.0 160.8,319.5 149.4,318.9 141.0,318.3 135.6,317.8 132.6,317.2 130.9,316.7 130.1,316.1 129.8,315.6 129.9,315.0 130.1,314.5 130.2,313.9 130.1,313.3 129.8,312.8 129.6,312.2 129.5,311.7 129.6,311.1 129.7,310.6 129.7,310.0 129.4,309.5 129.0,308.9 128.7,308.3 128.5,307.8 128.4,307.2 128.3,306.7 128.3,306.1 128.3,306.1 128.3,306.7 128.3,307.2 128.2,307.8 128.0,308.3 127.6,308.9 127.3,309.5 127.0,310.0 126.9,310.6 127.0,311.1 127.1,311.7 127.1,312.2 126.8,312.8 126.5,313.3 126.4,313.9 126.6,314.5 126.8,315.0 126.9,315.6 126.6,316.1 125.7,316.7 124.1,317.2 121.0,317.8 115.7,318.3 107.2,318.9 95.9,319.5 83.6,320.0 74.0,320.6 70.9,321.1 76.7,321.7 89.6,322.2 104.5,322.8 116.4,323.3 123.5,323.9 126.8,324.5 127.9,325.0 128.2,325.6 128.3,326.1 128.3,326.7 128.3,327.2 128.3,327.8 128.3,328.3 128.3,328.9 128.3,329.5 128.3,330.0 128.3,330.6 128.3,331.1 128.3,331.7 128.3,332.2 128.3,332.8 128.3,333.3 128.3,333.9 128.3,334.5 128.3,335.0 128.3,335.6 128.3,336.1 128.3,336.7 128.3,337.2 128.3,337.8 128.3,338.4 128.3,338.9 128.3,339.5 128.2,340.0 128.0,340.6 127.8,341.1 127.8,341.7 127.8,342.2 128.0,342.8 128.2,343.4 128.3,343.9 128.3,344.5 128.3,345.0 128.3,345.6" fill="#2a8" opacity="0.5" stroke="#2a8" stroke-width="1"/>
<line x1="70.9" y1="321.1160111823769" x2="185.8" y2="321.1160111823769" stroke="#114" stroke-width="2"/>
<circle cx="128.33333333333331" cy="321.58489272149" r="2.4" fill="#114"/>
<text x="128.33333333333331" y="303.997299259509" text-anchor="middle" font-size="11">1.02</text>
<text x="128.33333333333331" y="376" text-anchor="middle" font-size="12">axpy</text>
<polygon points="265.3,324.1 265.7,323.9 266.4,323.7 267.7,323.5 269.8,323.3 273.1,323.1 277.8,322.9 284.1,322.7 291.9,322.5 300.4,322.3 308.9,322.1 316.0,321.9 320.7,321.7 322.4,321.5 320.9,321.3 316.8,321.1 310.8,320.9 304.0,320.7 297.2,320.5 291.0,320.3 285.7,320.1 281.2,319.9 277.6,319.7 274.7,319.5 272.3,319.3 270.4,319.1 268.9,318.9 267.7,318.7 266.8,318.5 266.2,318.3 265.8,318.1 265.5,317.9 265.4,317.7 265.4,317.5 265.4,317.3 265.6,317.1 265.8,316.9 266.0,316.7 266.2,316.5 266.4,316.3 266.5,316.1 266.6,315.9 266.6,315.7 266.5,315.5 266.3,315.3 266.2,315.1 266.1,314.9 266.0,314.7 265.9,314.5 265.8,314.3 265.7,314.1 265.7,313.9 265.8,313.7 265.8,313.5 266.0,313.3 266.1,313.1 266.2,312.9 266.2,312.7 266.2,312.5 266.1,312.3 266.0,312.1 265.9,311.9 265.8,311.7 265.8,311.5 265.7,311.3 265.6,311.1 265.5,310.9 265.4,310.7 265.3,310.5 265.2,310.3 265.1,310.1 265.1,309.9 264.9,309.9 264.9,310.1 264.8,310.3 264.7,310.5 264.6,310.7 264.5,310.9 264.4,311.1 264.3,311.3 264.2,311.5 264.2,311.7 264.1,311.9 264.0,312.1 263.9,312.3 263.8,312.5 263.8,312.7 263.8,312.9 263.9,313.1 264.0,313.3 264.2,313.5 264.2,313.7 264.3,313.9 264.3,314.1 264.2,314.3 264.1,314.5 264.0,314.7 263.9,314.9 263.8,315.1 263.7,315.3 263.5,315.5 263.4,315.7 263.4,315.9 263.5,316.1 263.6,316.3 263.8,316.5 264.0,316.7 264.2,316.9 264.4,317.1 264.6,317.3 264.6,317.5 264.6,317.7 264.5,317.9 264.2,318.1 263.8,318.3 263.2,318.5 262.3,318.7 261.1,318.9 259.6,319.1 257.7,319.3 255.3,319.5 252.4,319.7 248.8,319.9 244.3,320.1 239.0,320.3 232.8,320.5 226.0,320.7 219.2,320.9 213.2,321.1 209.1,321.3 207.6,321.5 209.3,321.7 214.0,321.9 221.1,322.1 229.6,322.3 238.1,322.5 245.9,322.7 252.2,322.9 256.9,323.1 260.2,323.3 262.3,323.5 263.6,323.7 264.3,323.9 264.7,324.1" fill="#2a8" opacity="0.5" stroke="#2a8" stroke-width="1"/>
<line x1="207.6" y1="321.4874420108077" x2="322.4" y2="321.4874420108077" stroke="#114" stroke-width="2"/>
<circle cx="265.0" cy="321.72651817011854" r="2.4" fill="#114"/>
<text x="265.0" y="305.3016323089824" text-anchor="middle" font-size="11">1.01</text>
<text x="265.0" y="376" text-anchor="middle" font-size="12">dot</text>
<polygon points="401.9,308.8 402.0,305.1 402.1,301.5 402.2,297.8 402.3,294.2 402.4,290.5 402.4,286.9 402.4,283.2 402.4,279.6 402.4,276.0 402.3,272.3 402.2,268.7 402.1,265.0 402.0,261.4 401.9,257.7 401.9,254.1 401.8,250.4 401.8,246.8 401.8,243.2 401.9,239.5 402.0,235.9 402.2,232.2 402.5,228.6 402.8,224.9 403.4,221.3 404.1,217.6 404.9,214.0 405.9,210.4 407.1,206.7 408.4,203.1 409.8,199.4 411.2,195.8 412.7,192.1 414.3,188.5 415.9,184.8 417.5,181.2 419.2,177.6 421.0,173.9 422.9,170.3 424.8,166.6 426.6,163.0 428.3,159.3 429.7,155.7 430.6,152.0 431.1,148.4 430.9,144.8 430.1,141.1 428.7,137.5 426.9,133.8 424.8,130.2 422.6,126.5 420.6,122.9 419.0,119.2 418.2,115.6 418.5,112.0 419.9,108.3 422.7,104.7 426.8,101.0 431.9,97.4 437.8,93.7 444.0,90.1 449.7,86.4 454.5,82.8 457.8,79.2 459.1,75.5 458.2,71.9 455.2,68.2 450.5,64.6 444.5,60.9 437.7,57.3 430.8,53.6 424.3,50.0 379.0,50.0 372.5,53.6 365.6,57.3 358.9,60.9 352.8,64.6 348.1,68.2 345.1,71.9 344.3,75.5 345.6,79.2 348.8,82.8 353.6,86.4 359.4,90.1 365.5,93.7 371.4,97.4 376.5,101.0 380.6,104.7 383.4,108.3 384.9,112.0 385.1,115.6 384.3,119.2 382.8,122.9 380.8,126.5 378.6,130.2 376.4,133.8 374.6,137.5 373.2,141.1 372.4,144.8 372.3,148.4 372.7,152.0 373.6,155.7 375.0,159.3 376.7,163.0 378.5,166.6 380.4,170.3 382.3,173.9 384.1,177.6 385.8,181.2 387.5,184.8 389.1,188.5 390.6,192.1 392.1,195.8 393.6,199.4 395.0,203.1 396.3,206.7 397.4,210.4 398.4,214.0 399.3,217.6 400.0,221.3 400.5,224.9 400.9,228.6 401.2,232.2 401.3,235.9 401.4,239.5 401.5,243.2 401.5,246.8 401.5,250.4 401.5,254.1 401.4,257.7 401.3,261.4 401.2,265.0 401.1,268.7 401.0,272.3 401.0,276.0 400.9,279.6 400.9,283.2 400.9,286.9 401.0,290.5 401.0,294.2 401.1,297.8 401.2,301.5 401.3,305.1 401.4,308.8" fill="#2a8" opacity="0.5" stroke="#2a8" stroke-width="1"/>
<line x1="350.7" y1="84.39188882637072" x2="452.6" y2="84.39188882637072" stroke="#114" stroke-width="2"/>
<circle cx="401.66666666666663" cy="165.46736341937492" r="2.4" fill="#114"/>
<text x="401.66666666666663" y="61.43396226415098" text-anchor="middle" font-size="11">7.53</text>
<text x="401.66666666666663" y="376" text-anchor="middle" font-size="12">nrm2</text>
<polygon points="538.5,348.3 538.6,347.3 538.7,346.4 538.8,345.4 539.0,344.5 539.1,343.6 539.2,342.6 539.3,341.7 539.2,340.7 539.1,339.8 539.0,338.8 538.8,337.9 538.7,337.0 538.6,336.0 538.5,335.1 538.4,334.1 538.4,333.2 538.4,332.2 538.3,331.3 538.3,330.4 538.3,329.4 538.3,328.5 538.3,327.5 538.3,326.6 538.3,325.6 538.4,324.7 538.4,323.8 538.4,322.8 538.6,321.9 538.8,320.9 539.2,320.0 539.8,319.0 540.9,318.1 542.6,317.1 545.0,316.2 548.4,315.3 553.0,314.3 558.7,313.4 565.4,312.4 572.7,311.5 579.9,310.5 586.3,309.6 591.2,308.7 594.4,307.7 595.7,306.8 595.7,305.8 594.6,304.9 592.8,303.9 590.2,303.0 586.6,302.1 581.9,301.1 576.1,300.2 569.7,299.2 563.4,298.3 558.2,297.3 554.8,296.4 553.7,295.5 555.1,294.5 558.5,293.6 563.3,292.6 568.3,291.7 572.4,290.7 574.5,289.8 574.1,288.9 571.2,287.9 566.4,287.0 560.7,286.0 554.8,285.1 549.6,284.1 545.5,283.2 542.6,282.3 540.7,281.3 536.0,281.3 534.1,282.3 531.1,283.2 527.0,284.1 521.9,285.1 516.0,286.0 510.2,287.0 505.4,287.9 502.6,288.9 502.2,289.8 504.3,290.7 508.4,291.7 513.4,292.6 518.1,293.6 521.6,294.5 522.9,295.5 521.9,296.4 518.5,297.3 513.3,298.3 507.0,299.2 500.6,300.2 494.7,301.1 490.0,302.1 486.4,303.0 483.9,303.9 482.0,304.9 481.0,305.8 480.9,306.8 482.3,307.7 485.4,308.7 490.4,309.6 496.8,310.5 504.0,311.5 511.3,312.4 518.0,313.4 523.7,314.3 528.3,315.3 531.7,316.2 534.1,317.1 535.8,318.1 536.8,319.0 537.5,320.0 537.9,320.9 538.1,321.9 538.2,322.8 538.3,323.8 538.3,324.7 538.3,325.6 538.3,326.6 538.3,327.5 538.3,328.5 538.3,329.4 538.3,330.4 538.3,331.3 538.3,332.2 538.3,333.2 538.3,334.1 538.2,335.1 538.1,336.0 538.0,337.0 537.8,337.9 537.7,338.8 537.6,339.8 537.5,340.7 537.4,341.7 537.4,342.6 537.5,343.6 537.7,344.5 537.8,345.4 538.0,346.4 538.1,347.3 538.2,348.3" fill="#2a8" opacity="0.5" stroke="#2a8" stroke-width="1"/>
<line x1="490.9" y1="301.86886376203665" x2="585.8" y2="301.86886376203665" stroke="#114" stroke-width="2"/>
<circle cx="538.3333333333333" cy="308.3578015493072" r="2.4" fill="#114"/>
<text x="538.3333333333333" y="281.8509138123069" text-anchor="middle" font-size="11">1.55</text>
<text x="538.3333333333333" y="376" text-anchor="middle" font-size="12">asum</text>
<polygon points="675.0,346.6 675.0,346.1 675.0,345.6 675.0,345.1 675.1,344.6 675.3,344.0 675.5,343.5 675.5,343.0 675.5,342.5 675.3,342.0 675.1,341.5 675.0,341.0 675.0,340.5 675.0,340.0 675.0,339.5 675.0,338.9 675.0,338.4 675.0,337.9 675.0,337.4 675.0,336.9 675.0,336.4 675.0,335.9 675.0,335.4 675.0,334.9 675.0,334.3 675.0,333.8 675.0,333.3 675.0,332.8 675.0,332.3 675.0,331.8 675.0,331.3 675.0,330.8 675.0,330.3 675.0,329.8 675.0,329.2 675.0,328.7 675.0,328.2 675.0,327.7 675.0,327.2 675.0,326.7 675.0,326.2 675.0,325.7 675.0,325.2 675.1,324.7 675.6,324.1 677.6,323.6 683.1,323.1 694.3,322.6 710.5,322.1 725.8,321.6 732.4,321.1 727.7,320.6 715.4,320.1 701.0,319.6 689.0,319.0 681.3,318.5 677.4,318.0 675.8,317.5 675.4,317.0 675.6,316.5 675.9,316.0 676.2,315.5 676.2,315.0 676.0,314.5 675.8,313.9 675.5,313.4 675.3,312.9 675.1,312.4 675.0,311.9 675.0,311.4 675.0,310.9 675.0,310.4 675.0,310.4 675.0,310.9 675.0,311.4 675.0,311.9 674.9,312.4 674.7,312.9 674.5,313.4 674.2,313.9 674.0,314.5 673.8,315.0 673.8,315.5 674.1,316.0 674.4,316.5 674.6,317.0 674.2,317.5 672.6,318.0 668.7,318.5 661.0,319.0 649.0,319.6 634.6,320.1 622.3,320.6 617.6,321.1 624.2,321.6 639.5,322.1 655.7,322.6 666.9,323.1 672.4,323.6 674.4,324.1 674.9,324.7 675.0,325.2 675.0,325.7 675.0,326.2 675.0,326.7 675.0,327.2 675.0,327.7 675.0,328.2 675.0,328.7 675.0,329.2 675.0,329.8 675.0,330.3 675.0,330.8 675.0,331.3 675.0,331.8 675.0,332.3 675.0,332.8 675.0,333.3 675.0,333.8 675.0,334.3 675.0,334.9 675.0,335.4 675.0,335.9 675.0,336.4 675.0,336.9 675.0,337.4 675.0,337.9 675.0,338.4 675.0,338.9 675.0,339.5 675.0,340.0 675.0,340.5 675.0,341.0 674.9,341.5 674.7,342.0 674.5,342.5 674.5,343.0 674.5,343.5 674.7,344.0 674.9,344.6 675.0,345.1 675.0,345.6 675.0,346.1 675.0,346.6" fill="#2a8" opacity="0.5" stroke="#2a8" stroke-width="1"/>
<line x1="617.6" y1="321.09374065438675" x2="732.4" y2="321.09374065438675" stroke="#114" stroke-width="2"/>
<circle cx="675.0" cy="321.4697142005232" r="2.4" fill="#114"/>
<text x="675.0" y="307.94137536470464" text-anchor="middle" font-size="11">1.02</text>
<text x="675.0" y="376" text-anchor="middle" font-size="12">scal</text>
<polygon points="814.4,341.9 815.4,341.2 816.5,340.6 818.0,339.9 819.6,339.3 821.5,338.6 823.6,337.9 826.0,337.3 828.6,336.6 831.5,336.0 834.6,335.3 837.8,334.7 841.3,334.0 844.8,333.4 848.4,332.7 851.9,332.0 855.3,331.4 858.5,330.7 861.3,330.1 863.7,329.4 865.6,328.8 867.2,328.1 868.2,327.5 868.8,326.8 869.1,326.2 868.9,325.5 868.5,324.8 867.9,324.2 867.1,323.5 866.1,322.9 865.1,322.2 864.2,321.6 863.2,320.9 862.4,320.3 861.7,319.6 861.1,319.0 860.6,318.3 860.3,317.6 860.0,317.0 859.8,316.3 859.6,315.7 859.4,315.0 859.2,314.4 858.9,313.7 858.5,313.1 857.9,312.4 857.0,311.8 856.0,311.1 854.6,310.4 853.0,309.8 851.1,309.1 848.9,308.5 846.5,307.8 844.0,307.2 841.4,306.5 838.7,305.9 836.0,305.2 833.3,304.6 830.8,303.9 828.4,303.2 826.1,302.6 824.0,301.9 822.1,301.3 820.5,300.6 818.9,300.0 817.6,299.3 816.5,298.7 815.5,298.0 814.7,297.3 814.0,296.7 813.4,296.0 813.0,295.4 810.4,295.4 809.9,296.0 809.3,296.7 808.6,297.3 807.8,298.0 806.8,298.7 805.7,299.3 804.4,300.0 802.9,300.6 801.2,301.3 799.3,301.9 797.2,302.6 795.0,303.2 792.6,303.9 790.0,304.6 787.4,305.2 784.7,305.9 782.0,306.5 779.3,307.2 776.8,307.8 774.4,308.5 772.2,309.1 770.3,309.8 768.7,310.4 767.4,311.1 766.3,311.8 765.5,312.4 764.9,313.1 764.4,313.7 764.1,314.4 763.9,315.0 763.7,315.7 763.5,316.3 763.3,317.0 763.1,317.6 762.7,318.3 762.3,319.0 761.7,319.6 760.9,320.3 760.1,320.9 759.2,321.6 758.2,322.2 757.2,322.9 756.3,323.5 755.5,324.2 754.8,324.8 754.4,325.5 754.3,326.2 754.5,326.8 755.1,327.5 756.2,328.1 757.7,328.8 759.7,329.4 762.1,330.1 764.9,330.7 768.0,331.4 771.4,332.0 774.9,332.7 778.5,333.4 782.1,334.0 785.5,334.7 788.8,335.3 791.8,336.0 794.7,336.6 797.3,337.3 799.7,337.9 801.8,338.6 803.7,339.3 805.4,339.9 806.8,340.6 808.0,341.2 808.9,341.9" fill="#d33" opacity="0.5" stroke="#d33" stroke-width="1"/>
<line x1="759.8" y1="321.1105350774044" x2="863.5" y2="321.1105350774044" stroke="#114" stroke-width="2"/>
<circle cx="811.6666666666666" cy="327.5468096638017" r="2.4" fill="#114"/>
<text x="811.6666666666666" y="293.94250306860874" text-anchor="middle" font-size="11">1.02</text>
<text x="811.6666666666666" y="376" text-anchor="middle" font-size="12">iamax</text>
<text x="450.0" y="428" text-anchor="middle" font-size="11" fill="#666">violin = ratio distribution over sizes · line = median · dark dot = worst size · green = every size ≥ gate</text>
</svg>
