<svg xmlns="http://www.w3.org/2000/svg" width="900" height="440" font-family="sans-serif">
<rect width="900" height="440" fill="white"/>
<text x="450.0" y="28" text-anchor="middle" font-size="18" font-weight="bold">BLAS-1: PureBLAS / OpenBLAS (AVX2, 1 thread, Float64)</text>
<line x1="60" y1="358.0" x2="880" y2="358.0" stroke="#eee"/>
<text x="52" y="362.0" text-anchor="end" font-size="11" fill="#666">0×</text>
<line x1="60" y1="339.79160921380515" x2="880" y2="339.79160921380515" stroke="#eee"/>
<text x="52" y="343.79160921380515" text-anchor="end" font-size="11" fill="#666">0.5×</text>
<line x1="60" y1="321.58321842761035" x2="880" y2="321.58321842761035" stroke="#eee"/>
<text x="52" y="325.58321842761035" text-anchor="end" font-size="11" fill="#666">1×</text>
<line x1="60" y1="303.37482764141555" x2="880" y2="303.37482764141555" stroke="#eee"/>
<text x="52" y="307.37482764141555" text-anchor="end" font-size="11" fill="#666">1.5×</text>
<line x1="60" y1="321.58321842761035" x2="880" y2="321.58321842761035" stroke="#888" stroke-width="1"/>
<line x1="60" y1="323.03988969050596" x2="880" y2="323.03988969050596" stroke="#d33" stroke-width="1.5" stroke-dasharray="6 4"/>
<text x="880" y="318.03988969050596" text-anchor="end" font-size="11" fill="#d33">0.96× gate</text>
<polygon points="128.3,326.8 128.4,326.2 128.7,325.6 129.8,325.0 132.7,324.3 139.4,323.7 150.7,323.1 165.5,322.5 179.0,321.9 185.7,321.3 183.2,320.6 173.6,320.0 161.2,319.4 149.7,318.8 141.0,318.2 135.3,317.6 131.9,317.0 130.2,316.3 129.4,315.7 129.3,315.1 129.3,314.5 129.5,313.9 129.6,313.3 129.6,312.7 129.6,312.0 129.4,311.4 129.2,310.8 129.0,310.2 128.8,309.6 128.6,309.0 128.4,308.3 128.4,307.7 128.3,307.1 128.3,306.5 128.3,305.9 128.3,305.3 128.3,304.7 128.3,304.0 128.3,303.4 128.3,302.8 128.3,302.2 128.3,301.6 128.3,301.0 128.3,300.4 128.3,299.7 128.3,299.1 128.3,298.5 128.3,297.9 128.3,297.3 128.3,296.7 128.3,296.0 128.3,295.4 128.3,294.8 128.3,294.2 128.3,293.6 128.3,293.0 128.3,292.4 128.3,291.7 128.3,291.1 128.4,290.5 128.4,289.9 128.5,289.3 128.7,288.7 128.8,288.1 128.8,287.4 128.8,286.8 128.7,286.2 128.5,285.6 128.4,285.0 128.4,284.4 128.3,283.7 128.3,283.1 128.3,283.1 128.3,283.7 128.3,284.4 128.2,285.0 128.1,285.6 128.0,286.2 127.9,286.8 127.8,287.4 127.9,288.1 128.0,288.7 128.2,289.3 128.3,289.9 128.3,290.5 128.3,291.1 128.3,291.7 128.3,292.4 128.3,293.0 128.3,293.6 128.3,294.2 128.3,294.8 128.3,295.4 128.3,296.0 128.3,296.7 128.3,297.3 128.3,297.9 128.3,298.5 128.3,299.1 128.3,299.7 128.3,300.4 128.3,301.0 128.3,301.6 128.3,302.2 128.3,302.8 128.3,303.4 128.3,304.0 128.3,304.7 128.3,305.3 128.3,305.9 128.3,306.5 128.3,307.1 128.3,307.7 128.2,308.3 128.1,309.0 127.9,309.6 127.7,310.2 127.4,310.8 127.2,311.4 127.1,312.0 127.0,312.7 127.1,313.3 127.2,313.9 127.3,314.5 127.4,315.1 127.2,315.7 126.5,316.3 124.7,317.0 121.4,317.6 115.6,318.2 106.9,318.8 95.5,319.4 83.1,320.0 73.5,320.6 70.9,321.3 77.7,321.9 91.2,322.5 105.9,323.1 117.3,323.7 123.9,324.3 126.9,325.0 128.0,325.6 128.3,326.2 128.3,326.8" fill="#2a8" opacity="0.5" stroke="#2a8" stroke-width="1"/>
<line x1="71.0" y1="321.28398242066163" x2="185.7" y2="321.28398242066163" stroke="#114" stroke-width="2"/>
<circle cx="128.33333333333331" cy="321.4858680240256" r="2.4" fill="#114"/>
<text x="128.33333333333331" y="281.4167229868133" text-anchor="middle" font-size="11">1.01</text>
<text x="128.33333333333331" y="376" text-anchor="middle" font-size="12">axpy</text>
<polygon points="265.0,332.0 265.2,330.5 266.1,329.1 269.0,327.7 276.6,326.3 290.4,324.8 308.0,323.4 321.4,322.0 322.4,320.6 311.0,319.1 294.6,317.7 281.1,316.3 273.0,314.9 269.0,313.4 267.2,312.0 266.2,310.6 265.6,309.2 265.3,307.7 265.1,306.3 265.0,304.9 265.0,303.5 265.0,302.0 265.0,300.6 265.0,299.2 265.0,297.8 265.0,296.3 265.0,294.9 265.0,293.5 265.0,292.0 265.0,290.6 265.0,289.2 265.0,287.8 265.0,286.3 265.0,284.9 265.0,283.5 265.0,282.1 265.0,280.6 265.0,279.2 265.0,277.8 265.0,276.4 265.0,274.9 265.0,273.5 265.0,272.1 265.0,270.7 265.0,269.2 265.0,267.8 265.0,266.4 265.0,265.0 265.0,263.5 265.0,262.1 265.0,260.7 265.0,259.3 265.0,257.8 265.0,256.4 265.0,255.0 265.0,253.6 265.0,252.1 265.0,250.7 265.0,249.3 265.0,247.9 265.0,246.4 265.1,245.0 265.3,243.6 265.4,242.2 265.5,240.7 265.4,239.3 265.3,237.9 265.1,236.5 265.1,235.0 265.0,233.6 265.0,232.2 265.0,230.7 265.0,230.7 265.0,232.2 265.0,233.6 264.9,235.0 264.9,236.5 264.7,237.9 264.6,239.3 264.5,240.7 264.6,242.2 264.7,243.6 264.9,245.0 265.0,246.4 265.0,247.9 265.0,249.3 265.0,250.7 265.0,252.1 265.0,253.6 265.0,255.0 265.0,256.4 265.0,257.8 265.0,259.3 265.0,260.7 265.0,262.1 265.0,263.5 265.0,265.0 265.0,266.4 265.0,267.8 265.0,269.2 265.0,270.7 265.0,272.1 265.0,273.5 265.0,274.9 265.0,276.4 265.0,277.8 265.0,279.2 265.0,280.6 265.0,282.1 265.0,283.5 265.0,284.9 265.0,286.3 265.0,287.8 265.0,289.2 265.0,290.6 265.0,292.0 265.0,293.5 265.0,294.9 265.0,296.3 265.0,297.8 265.0,299.2 265.0,300.6 265.0,302.0 265.0,303.5 265.0,304.9 264.9,306.3 264.7,307.7 264.4,309.2 263.8,310.6 262.8,312.0 261.0,313.4 257.0,314.9 248.9,316.3 235.4,317.7 219.0,319.1 207.6,320.6 208.6,322.0 222.0,323.4 239.6,324.8 253.4,326.3 261.0,327.7 263.9,329.1 264.8,330.5 265.0,332.0" fill="#2a8" opacity="0.5" stroke="#2a8" stroke-width="1"/>
<line x1="206.4" y1="321.37464694537715" x2="323.6" y2="321.37464694537715" stroke="#114" stroke-width="2"/>
<circle cx="265.0" cy="321.53326987879217" r="2.4" fill="#114"/>
<text x="265.0" y="234.60290205398329" text-anchor="middle" font-size="11">1.01</text>
<text x="265.0" y="376" text-anchor="middle" font-size="12">dot</text>
<polygon points="403.4,208.7 403.8,206.5 404.3,204.3 404.9,202.1 405.6,199.9 406.3,197.7 407.1,195.5 407.9,193.2 408.7,191.0 409.6,188.8 410.6,186.6 411.5,184.4 412.4,182.2 413.4,180.0 414.4,177.8 415.4,175.6 416.4,173.4 417.4,171.2 418.5,169.0 419.6,166.8 420.7,164.6 421.8,162.4 422.9,160.2 424.0,158.0 425.1,155.8 426.0,153.6 426.9,151.4 427.6,149.2 428.1,147.0 428.5,144.8 428.8,142.6 428.8,140.4 428.7,138.2 428.3,136.0 427.8,133.8 427.2,131.6 426.4,129.4 425.4,127.1 424.4,124.9 423.3,122.7 422.3,120.5 421.2,118.3 420.3,116.1 419.7,113.9 419.3,111.7 419.2,109.5 419.6,107.3 420.5,105.1 421.9,102.9 423.9,100.7 426.5,98.5 429.6,96.3 433.1,94.1 436.9,91.9 440.9,89.7 444.9,87.5 448.7,85.3 452.2,83.1 455.1,80.9 457.3,78.7 458.7,76.5 459.1,74.3 458.5,72.1 456.9,69.9 454.3,67.7 451.0,65.5 447.1,63.3 442.6,61.0 437.9,58.8 433.2,56.6 428.5,54.4 424.1,52.2 379.3,52.2 374.8,54.4 370.2,56.6 365.4,58.8 360.7,61.0 356.3,63.3 352.3,65.5 349.0,67.7 346.5,69.9 344.9,72.1 344.3,74.3 344.7,76.5 346.0,78.7 348.2,80.9 351.1,83.1 354.6,85.3 358.4,87.5 362.5,89.7 366.5,91.9 370.3,94.1 373.8,96.3 376.8,98.5 379.4,100.7 381.4,102.9 382.8,105.1 383.7,107.3 384.1,109.5 384.1,111.7 383.7,113.9 383.0,116.1 382.1,118.3 381.1,120.5 380.0,122.7 378.9,124.9 377.9,127.1 377.0,129.4 376.2,131.6 375.5,133.8 375.0,136.0 374.7,138.2 374.5,140.4 374.6,142.6 374.8,144.8 375.2,147.0 375.7,149.2 376.5,151.4 377.3,153.6 378.3,155.8 379.3,158.0 380.4,160.2 381.5,162.4 382.6,164.6 383.8,166.8 384.9,169.0 385.9,171.2 387.0,173.4 388.0,175.6 389.0,177.8 389.9,180.0 390.9,182.2 391.8,184.4 392.8,186.6 393.7,188.8 394.6,191.0 395.5,193.2 396.3,195.5 397.1,197.7 397.8,199.9 398.4,202.1 399.0,204.3 399.5,206.5 400.0,208.7" fill="#2a8" opacity="0.5" stroke="#2a8" stroke-width="1"/>
<line x1="354.9" y1="85.45559826825124" x2="448.5" y2="85.45559826825124" stroke="#114" stroke-width="2"/>
<circle cx="401.66666666666663" cy="146.5414383556482" r="2.4" fill="#114"/>
<text x="401.66666666666663" y="61.43396226415098" text-anchor="middle" font-size="11">7.48</text>
<text x="401.66666666666663" y="376" text-anchor="middle" font-size="12">nrm2</text>
<polygon points="538.7,323.2 538.8,322.7 538.9,322.1 539.1,321.5 539.2,320.9 539.3,320.3 539.4,319.8 539.5,319.2 539.7,318.6 539.9,318.0 540.2,317.4 540.6,316.8 541.3,316.3 542.2,315.7 543.5,315.1 545.3,314.5 547.6,313.9 550.4,313.4 553.9,312.8 558.0,312.2 562.7,311.6 567.8,311.0 573.1,310.5 578.3,309.9 583.3,309.3 587.6,308.7 591.1,308.1 593.6,307.6 595.1,307.0 595.7,306.4 595.6,305.8 594.8,305.2 593.7,304.7 592.4,304.1 590.9,303.5 589.3,302.9 587.4,302.3 585.2,301.8 582.4,301.2 579.2,300.6 575.4,300.0 571.2,299.4 566.9,298.9 562.6,298.3 558.7,297.7 555.3,297.1 552.6,296.5 550.8,296.0 550.1,295.4 550.3,294.8 551.6,294.2 553.7,293.6 556.5,293.1 559.8,292.5 563.3,291.9 566.8,291.3 569.8,290.7 572.1,290.2 573.4,289.6 573.7,289.0 572.8,288.4 570.8,287.8 568.0,287.3 564.6,286.7 560.8,286.1 556.9,285.5 553.3,284.9 549.9,284.4 547.1,283.8 544.7,283.2 542.9,282.6 541.4,282.0 535.2,282.0 533.8,282.6 531.9,283.2 529.6,283.8 526.7,284.4 523.4,284.9 519.7,285.5 515.9,286.1 512.1,286.7 508.7,287.3 505.8,287.8 503.9,288.4 503.0,289.0 503.3,289.6 504.6,290.2 506.9,290.7 509.9,291.3 513.3,291.9 516.9,292.5 520.2,293.1 523.0,293.6 525.1,294.2 526.3,294.8 526.6,295.4 525.8,296.0 524.1,296.5 521.4,297.1 518.0,297.7 514.0,298.3 509.8,298.9 505.4,299.4 501.3,300.0 497.5,300.6 494.2,301.2 491.5,301.8 489.3,302.3 487.4,302.9 485.7,303.5 484.3,304.1 483.0,304.7 481.9,305.2 481.1,305.8 480.9,306.4 481.5,307.0 483.0,307.6 485.6,308.1 489.1,308.7 493.4,309.3 498.3,309.9 503.6,310.5 508.9,311.0 514.0,311.6 518.6,312.2 522.7,312.8 526.2,313.4 529.1,313.9 531.4,314.5 533.1,315.1 534.4,315.7 535.4,316.3 536.0,316.8 536.5,317.4 536.8,318.0 537.0,318.6 537.1,319.2 537.3,319.8 537.4,320.3 537.5,320.9 537.6,321.5 537.7,322.1 537.8,322.7 537.9,323.2" fill="#2a8" opacity="0.5" stroke="#2a8" stroke-width="1"/>
<line x1="492.2" y1="301.59662895977715" x2="584.4" y2="301.59662895977715" stroke="#114" stroke-width="2"/>
<circle cx="538.3333333333333" cy="307.9332657223014" r="2.4" fill="#114"/>
<text x="538.3333333333333" y="280.07942018566735" text-anchor="middle" font-size="11">1.55</text>
<text x="538.3333333333333" y="376" text-anchor="middle" font-size="12">asum</text>
<polygon points="675.0,324.0 675.1,323.8 675.1,323.7 675.3,323.5 675.5,323.3 675.8,323.2 676.2,323.0 676.7,322.8 677.5,322.7 678.9,322.5 681.4,322.3 685.6,322.2 691.8,322.0 700.2,321.9 710.0,321.7 719.7,321.5 727.7,321.4 732.1,321.2 732.4,321.0 729.0,320.9 723.4,320.7 717.1,320.6 711.2,320.4 706.2,320.2 701.8,320.1 697.7,319.9 693.6,319.7 689.7,319.6 686.1,319.4 683.2,319.3 680.9,319.1 679.3,318.9 678.3,318.8 677.5,318.6 677.0,318.4 676.7,318.3 676.6,318.1 676.7,317.9 676.9,317.8 677.1,317.6 677.2,317.5 677.2,317.3 677.0,317.1 676.8,317.0 676.5,316.8 676.2,316.6 676.0,316.5 675.8,316.3 675.7,316.2 675.7,316.0 675.7,315.8 675.7,315.7 675.7,315.5 675.6,315.3 675.5,315.2 675.3,315.0 675.2,314.9 675.1,314.7 675.1,314.5 675.2,314.4 675.3,314.2 675.4,314.0 675.6,313.9 675.7,313.7 675.7,313.5 675.6,313.4 675.5,313.2 675.4,313.1 675.2,312.9 675.1,312.7 675.1,312.6 675.0,312.4 675.0,312.4 674.9,312.6 674.9,312.7 674.8,312.9 674.6,313.1 674.5,313.2 674.4,313.4 674.3,313.5 674.3,313.7 674.4,313.9 674.6,314.0 674.7,314.2 674.8,314.4 674.9,314.5 674.9,314.7 674.8,314.9 674.7,315.0 674.5,315.2 674.4,315.3 674.3,315.5 674.3,315.7 674.3,315.8 674.3,316.0 674.3,316.2 674.2,316.3 674.0,316.5 673.8,316.6 673.5,316.8 673.2,317.0 673.0,317.1 672.8,317.3 672.8,317.5 672.9,317.6 673.1,317.8 673.3,317.9 673.4,318.1 673.3,318.3 673.0,318.4 672.5,318.6 671.7,318.8 670.7,318.9 669.1,319.1 666.8,319.3 663.9,319.4 660.3,319.6 656.4,319.7 652.3,319.9 648.2,320.1 643.8,320.2 638.8,320.4 632.9,320.6 626.6,320.7 621.0,320.9 617.6,321.0 617.9,321.2 622.3,321.4 630.3,321.5 640.0,321.7 649.8,321.9 658.2,322.0 664.4,322.2 668.6,322.3 671.1,322.5 672.5,322.7 673.3,322.8 673.8,323.0 674.2,323.2 674.5,323.3 674.7,323.5 674.9,323.7 674.9,323.8 675.0,324.0" fill="#2a8" opacity="0.5" stroke="#2a8" stroke-width="1"/>
<line x1="617.7" y1="321.0367637472403" x2="732.3" y2="321.0367637472403" stroke="#114" stroke-width="2"/>
<circle cx="675.0" cy="321.37634176606275" r="2.4" fill="#114"/>
<text x="675.0" y="307.58536065239434" text-anchor="middle" font-size="11">1.02</text>
<text x="675.0" y="376" text-anchor="middle" font-size="12">scal</text>
<polygon points="813.9,342.3 814.6,341.6 815.5,341.0 816.5,340.3 817.6,339.6 818.9,339.0 820.4,338.3 822.2,337.7 824.2,337.0 826.5,336.3 829.2,335.7 832.3,335.0 835.9,334.3 839.7,333.7 843.9,333.0 848.2,332.3 852.5,331.7 856.6,331.0 860.3,330.3 863.5,329.7 866.1,329.0 867.8,328.3 868.8,327.7 869.1,327.0 868.6,326.3 867.6,325.7 866.2,325.0 864.6,324.4 862.9,323.7 861.3,323.0 860.0,322.4 859.1,321.7 858.6,321.0 858.4,320.4 858.7,319.7 859.2,319.0 860.0,318.4 860.8,317.7 861.6,317.0 862.3,316.4 862.7,315.7 862.9,315.0 862.7,314.4 862.2,313.7 861.3,313.0 860.2,312.4 858.8,311.7 857.2,311.0 855.5,310.4 853.8,309.7 852.0,309.1 850.1,308.4 848.2,307.7 846.2,307.1 844.1,306.4 841.9,305.7 839.6,305.1 837.2,304.4 834.7,303.7 832.1,303.1 829.6,302.4 827.2,301.7 824.8,301.1 822.7,300.4 820.8,299.7 819.1,299.1 817.6,298.4 816.3,297.7 815.2,297.1 814.4,296.4 813.7,295.8 813.1,295.1 810.2,295.1 809.7,295.8 809.0,296.4 808.1,297.1 807.0,297.7 805.8,298.4 804.3,299.1 802.6,299.7 800.6,300.4 798.5,301.1 796.2,301.7 793.7,302.4 791.2,303.1 788.7,303.7 786.2,304.4 783.7,305.1 781.4,305.7 779.2,306.4 777.1,307.1 775.1,307.7 773.2,308.4 771.4,309.1 769.5,309.7 767.8,310.4 766.1,311.0 764.6,311.7 763.2,312.4 762.0,313.0 761.2,313.7 760.6,314.4 760.5,315.0 760.6,315.7 761.0,316.4 761.7,317.0 762.5,317.7 763.3,318.4 764.1,319.0 764.6,319.7 764.9,320.4 764.8,321.0 764.2,321.7 763.3,322.4 762.0,323.0 760.4,323.7 758.8,324.4 757.1,325.0 755.7,325.7 754.7,326.3 754.3,327.0 754.5,327.7 755.5,328.3 757.3,329.0 759.8,329.7 763.0,330.3 766.8,331.0 770.9,331.7 775.2,332.3 779.5,333.0 783.6,333.7 787.5,334.3 791.0,335.0 794.1,335.7 796.8,336.3 799.2,337.0 801.2,337.7 802.9,338.3 804.4,339.0 805.7,339.6 806.9,340.3 807.9,341.0 808.7,341.6 809.4,342.3" fill="#d33" opacity="0.5" stroke="#d33" stroke-width="1"/>
<line x1="764.7" y1="319.76274085948796" x2="858.7" y2="319.76274085948796" stroke="#114" stroke-width="2"/>
<circle cx="811.6666666666666" cy="328.67502144221214" r="2.4" fill="#114"/>
<text x="811.6666666666666" y="293.71487266358815" text-anchor="middle" font-size="11">1.05</text>
<text x="811.6666666666666" y="376" text-anchor="middle" font-size="12">iamax</text>
<text x="450.0" y="428" text-anchor="middle" font-size="11" fill="#666">violin = ratio distribution over sizes · line = median · dark dot = worst size · green = every size ≥ gate</text>
</svg>
