<svg xmlns="http://www.w3.org/2000/svg" width="900" height="440" font-family="sans-serif">
<rect width="900" height="440" fill="white"/>
<text x="450.0" y="28" text-anchor="middle" font-size="18" font-weight="bold">BLAS-1: PureBLAS / OpenBLAS (AVX2, 1 thread, Float64)</text>
<line x1="60" y1="358.0" x2="880" y2="358.0" stroke="#eee"/>
<text x="52" y="362.0" text-anchor="end" font-size="11" fill="#666">0×</text>
<line x1="60" y1="344.4018171342813" x2="880" y2="344.4018171342813" stroke="#eee"/>
<text x="52" y="348.4018171342813" text-anchor="end" font-size="11" fill="#666">0.5×</text>
<line x1="60" y1="330.80363426856263" x2="880" y2="330.80363426856263" stroke="#eee"/>
<text x="52" y="334.80363426856263" text-anchor="end" font-size="11" fill="#666">1×</text>
<line x1="60" y1="317.20545140284395" x2="880" y2="317.20545140284395" stroke="#eee"/>
<text x="52" y="321.20545140284395" text-anchor="end" font-size="11" fill="#666">1.5×</text>
<line x1="60" y1="330.80363426856263" x2="880" y2="330.80363426856263" stroke="#888" stroke-width="1"/>
<line x1="60" y1="331.8914888978201" x2="880" y2="331.8914888978201" stroke="#d33" stroke-width="1.5" stroke-dasharray="6 4"/>
<text x="880" y="326.8914888978201" text-anchor="end" font-size="11" fill="#d33">0.96× gate</text>
<polygon points="129.0,332.6 129.7,332.4 131.1,332.2 133.6,332.0 137.5,331.9 143.1,331.7 150.5,331.5 159.3,331.3 168.4,331.1 176.6,331.0 182.7,330.8 185.7,330.6 185.6,330.4 182.7,330.3 178.1,330.1 172.9,329.9 167.6,329.7 162.6,329.6 158.0,329.4 153.6,329.2 149.5,329.0 145.6,328.9 142.1,328.7 139.1,328.5 136.6,328.3 134.7,328.2 133.2,328.0 132.1,327.8 131.3,327.6 130.7,327.5 130.3,327.3 129.9,327.1 129.6,326.9 129.5,326.8 129.4,326.6 129.4,326.4 129.6,326.2 129.7,326.1 129.8,325.9 129.9,325.7 129.9,325.5 129.9,325.4 129.9,325.2 129.8,325.0 129.8,324.8 129.7,324.7 129.7,324.5 129.6,324.3 129.5,324.1 129.5,324.0 129.4,323.8 129.3,323.6 129.2,323.4 129.1,323.3 129.0,323.1 128.8,322.9 128.7,322.7 128.6,322.6 128.6,322.4 128.6,322.2 128.7,322.0 128.8,321.8 128.9,321.7 129.0,321.5 129.0,321.3 128.9,321.1 128.9,321.0 128.7,320.8 128.6,320.6 128.5,320.4 128.4,320.3 128.4,320.1 128.3,320.1 128.2,320.3 128.1,320.4 128.0,320.6 127.9,320.8 127.8,321.0 127.7,321.1 127.7,321.3 127.7,321.5 127.8,321.7 127.9,321.8 128.0,322.0 128.0,322.2 128.1,322.4 128.0,322.6 127.9,322.7 127.8,322.9 127.7,323.1 127.6,323.3 127.5,323.4 127.4,323.6 127.3,323.8 127.2,324.0 127.1,324.1 127.0,324.3 127.0,324.5 126.9,324.7 126.9,324.8 126.8,325.0 126.8,325.2 126.8,325.4 126.8,325.5 126.8,325.7 126.8,325.9 127.0,326.1 127.1,326.2 127.2,326.4 127.3,326.6 127.2,326.8 127.0,326.9 126.8,327.1 126.4,327.3 126.0,327.5 125.4,327.6 124.6,327.8 123.5,328.0 122.0,328.2 120.0,328.3 117.5,328.5 114.5,328.7 111.0,328.9 107.2,329.0 103.1,329.2 98.7,329.4 94.1,329.6 89.1,329.7 83.8,329.9 78.5,330.1 74.0,330.3 71.1,330.4 70.9,330.6 74.0,330.8 80.0,331.0 88.3,331.1 97.4,331.3 106.1,331.5 113.5,331.7 119.2,331.9 123.1,332.0 125.5,332.2 126.9,332.4 127.7,332.6" fill="#2a8" opacity="0.5" stroke="#2a8" stroke-width="1"/>
<line x1="70.8" y1="330.49145088680416" x2="185.9" y2="330.49145088680416" stroke="#114" stroke-width="2"/>
<circle cx="128.33333333333331" cy="330.74742677220905" r="2.4" fill="#114"/>
<text x="128.33333333333331" y="315.3429906234113" text-anchor="middle" font-size="11">1.01</text>
<text x="128.33333333333331" y="376" text-anchor="middle" font-size="12">axpy</text>
<polygon points="265.4,332.9 265.9,332.7 266.8,332.6 268.4,332.4 270.8,332.2 274.5,332.0 279.7,331.9 286.3,331.7 294.1,331.5 302.5,331.4 310.4,331.2 316.9,331.0 321.1,330.8 322.4,330.7 320.8,330.5 316.6,330.3 310.7,330.2 303.8,330.0 296.9,329.8 290.4,329.6 284.8,329.5 280.3,329.3 276.9,329.1 274.4,329.0 272.7,328.8 271.5,328.6 270.7,328.4 270.1,328.3 269.5,328.1 268.9,327.9 268.3,327.8 267.7,327.6 267.1,327.4 266.6,327.3 266.1,327.1 265.7,326.9 265.5,326.7 265.3,326.6 265.1,326.4 265.1,326.2 265.0,326.1 265.0,325.9 265.0,325.7 265.0,325.5 265.0,325.4 265.0,325.2 265.1,325.0 265.1,324.9 265.2,324.7 265.2,324.5 265.3,324.3 265.4,324.2 265.5,324.0 265.6,323.8 265.6,323.7 265.6,323.5 265.7,323.3 265.7,323.1 265.8,323.0 266.0,322.8 266.2,322.6 266.4,322.5 266.6,322.3 266.7,322.1 266.7,321.9 266.5,321.8 266.3,321.6 266.0,321.4 265.7,321.3 265.5,321.1 265.3,320.9 265.2,320.7 264.8,320.7 264.7,320.9 264.5,321.1 264.3,321.3 264.0,321.4 263.7,321.6 263.5,321.8 263.3,321.9 263.3,322.1 263.4,322.3 263.6,322.5 263.8,322.6 264.0,322.8 264.2,323.0 264.3,323.1 264.3,323.3 264.4,323.5 264.4,323.7 264.4,323.8 264.5,324.0 264.6,324.2 264.7,324.3 264.8,324.5 264.8,324.7 264.9,324.9 264.9,325.0 265.0,325.2 265.0,325.4 265.0,325.5 265.0,325.7 265.0,325.9 265.0,326.1 264.9,326.2 264.9,326.4 264.7,326.6 264.5,326.7 264.3,326.9 263.9,327.1 263.4,327.3 262.9,327.4 262.3,327.6 261.7,327.8 261.1,327.9 260.5,328.1 259.9,328.3 259.3,328.4 258.5,328.6 257.3,328.8 255.6,329.0 253.1,329.1 249.7,329.3 245.2,329.5 239.6,329.6 233.1,329.8 226.2,330.0 219.3,330.2 213.4,330.3 209.2,330.5 207.6,330.7 208.9,330.8 213.1,331.0 219.6,331.2 227.5,331.4 235.9,331.5 243.7,331.7 250.3,331.9 255.5,332.0 259.2,332.2 261.6,332.4 263.2,332.6 264.1,332.7 264.6,332.9" fill="#2a8" opacity="0.5" stroke="#2a8" stroke-width="1"/>
<line x1="207.6" y1="330.6982672208118" x2="322.4" y2="330.6982672208118" stroke="#114" stroke-width="2"/>
<circle cx="265.0" cy="330.80993257530577" r="2.4" fill="#114"/>
<text x="265.0" y="315.96814809896836" text-anchor="middle" font-size="11">1.00</text>
<text x="265.0" y="376" text-anchor="middle" font-size="12">dot</text>
<polygon points="402.7,262.3 403.2,259.3 403.8,256.3 404.5,253.3 405.3,250.4 406.2,247.4 407.2,244.4 408.3,241.4 409.5,238.4 410.8,235.4 412.5,232.4 414.4,229.4 416.7,226.4 419.3,223.4 422.2,220.5 425.2,217.5 428.1,214.5 430.7,211.5 432.7,208.5 433.9,205.5 434.1,202.5 433.4,199.5 431.7,196.5 429.3,193.5 426.3,190.6 423.3,187.6 420.4,184.6 418.0,181.6 416.6,178.6 416.3,175.6 417.4,172.6 420.1,169.6 424.4,166.6 429.9,163.6 436.5,160.6 443.4,157.7 449.8,154.7 455.1,151.7 458.3,148.7 459.1,145.7 457.2,142.7 452.9,139.7 446.7,136.7 439.3,133.7 431.7,130.7 424.4,127.8 418.0,124.8 412.9,121.8 409.0,118.8 406.2,115.8 404.3,112.8 403.1,109.8 402.5,106.8 402.1,103.8 401.9,100.8 401.8,97.8 401.8,94.9 401.8,91.9 401.9,88.9 401.9,85.9 402.0,82.9 402.2,79.9 402.3,76.9 402.3,73.9 402.4,70.9 402.4,67.9 402.4,65.0 402.4,62.0 402.3,59.0 402.2,56.0 402.1,53.0 402.0,50.0 401.4,50.0 401.3,53.0 401.1,56.0 401.0,59.0 401.0,62.0 400.9,65.0 400.9,67.9 400.9,70.9 401.0,73.9 401.1,76.9 401.2,79.9 401.3,82.9 401.4,85.9 401.5,88.9 401.5,91.9 401.6,94.9 401.5,97.8 401.5,100.8 401.3,103.8 400.9,106.8 400.2,109.8 399.0,112.8 397.2,115.8 394.4,118.8 390.5,121.8 385.3,124.8 378.9,127.8 371.7,130.7 364.0,133.7 356.7,136.7 350.5,139.7 346.1,142.7 344.3,145.7 345.0,148.7 348.3,151.7 353.5,154.7 360.0,157.7 366.8,160.6 373.4,163.6 379.0,166.6 383.2,169.6 385.9,172.6 387.1,175.6 386.8,178.6 385.3,181.6 383.0,184.6 380.1,187.6 377.0,190.6 374.1,193.5 371.6,196.5 370.0,199.5 369.2,202.5 369.5,205.5 370.7,208.5 372.7,211.5 375.2,214.5 378.2,217.5 381.2,220.5 384.0,223.4 386.7,226.4 388.9,229.4 390.9,232.4 392.5,235.4 393.9,238.4 395.0,241.4 396.1,244.4 397.1,247.4 398.0,250.4 398.8,253.3 399.6,256.3 400.2,259.3 400.6,262.3" fill="#2a8" opacity="0.5" stroke="#2a8" stroke-width="1"/>
<line x1="352.9" y1="154.3808205843498" x2="450.4" y2="154.3808205843498" stroke="#114" stroke-width="2"/>
<circle cx="401.66666666666663" cy="212.36052270679195" r="2.4" fill="#114"/>
<text x="401.66666666666663" y="61.433962264150935" text-anchor="middle" font-size="11">7.49</text>
<text x="401.66666666666663" y="376" text-anchor="middle" font-size="12">nrm2</text>
<polygon points="553.3,324.6 556.3,324.3 559.6,324.0 563.1,323.7 566.9,323.4 570.8,323.1 574.7,322.8 578.5,322.5 582.2,322.2 585.6,321.9 588.6,321.6 591.2,321.3 593.2,321.0 594.7,320.7 595.5,320.4 595.7,320.1 595.4,319.8 594.6,319.5 593.4,319.2 591.8,318.9 590.0,318.6 588.1,318.3 586.0,318.0 584.0,317.7 582.1,317.4 580.2,317.1 578.4,316.8 576.8,316.5 575.3,316.2 573.9,315.9 572.6,315.6 571.4,315.3 570.2,315.0 569.2,314.7 568.1,314.4 567.2,314.1 566.3,313.8 565.6,313.5 565.0,313.2 564.5,312.9 564.2,312.6 564.0,312.3 564.1,312.0 564.2,311.7 564.6,311.4 565.2,311.1 565.9,310.8 566.8,310.5 567.8,310.2 569.1,309.9 570.4,309.6 571.9,309.3 573.5,309.0 575.1,308.7 576.7,308.4 578.1,308.1 579.5,307.8 580.6,307.5 581.3,307.2 581.7,306.9 581.6,306.6 581.1,306.3 580.1,306.0 578.6,305.7 576.7,305.4 574.3,305.1 571.7,304.8 568.8,304.5 565.8,304.2 562.7,303.9 559.7,303.6 556.7,303.3 519.9,303.3 517.0,303.6 513.9,303.9 510.9,304.2 507.8,304.5 505.0,304.8 502.3,305.1 500.0,305.4 498.1,305.7 496.6,306.0 495.6,306.3 495.0,306.6 495.0,306.9 495.3,307.2 496.1,307.5 497.2,307.8 498.5,308.1 500.0,308.4 501.6,308.7 503.2,309.0 504.8,309.3 506.2,309.6 507.6,309.9 508.8,310.2 509.9,310.5 510.8,310.8 511.5,311.1 512.1,311.4 512.4,311.7 512.6,312.0 512.6,312.3 512.5,312.6 512.1,312.9 511.7,313.2 511.1,313.5 510.3,313.8 509.5,314.1 508.5,314.4 507.5,314.7 506.4,315.0 505.3,315.3 504.1,315.6 502.7,315.9 501.4,316.2 499.8,316.5 498.2,316.8 496.5,317.1 494.6,317.4 492.7,317.7 490.6,318.0 488.6,318.3 486.7,318.6 484.8,318.9 483.3,319.2 482.1,319.5 481.2,319.8 480.9,320.1 481.2,320.4 482.0,320.7 483.5,321.0 485.5,321.3 488.0,321.6 491.0,321.9 494.4,322.2 498.1,322.5 502.0,322.8 505.9,323.1 509.8,323.4 513.5,323.7 517.1,324.0 520.4,324.3 523.4,324.6" fill="#2a8" opacity="0.5" stroke="#2a8" stroke-width="1"/>
<line x1="504.7" y1="315.46234144027966" x2="571.9" y2="315.46234144027966" stroke="#114" stroke-width="2"/>
<circle cx="538.3333333333333" cy="321.08049537983726" r="2.4" fill="#114"/>
<text x="538.3333333333333" y="299.4100153439363" text-anchor="middle" font-size="11">1.56</text>
<text x="538.3333333333333" y="376" text-anchor="middle" font-size="12">asum</text>
<polygon points="675.0,338.5 675.1,337.4 675.6,336.4 677.5,335.4 682.6,334.4 693.2,333.3 709.1,332.3 725.0,331.3 732.4,330.3 727.0,329.2 712.6,328.2 697.3,327.2 686.8,326.1 681.4,325.1 679.2,324.1 678.2,323.1 677.4,322.0 676.6,321.0 675.9,320.0 675.4,319.0 675.2,317.9 675.0,316.9 675.0,315.9 675.0,314.9 675.0,313.8 675.0,312.8 675.0,311.8 675.0,310.8 675.0,309.7 675.0,308.7 675.0,307.7 675.0,306.7 675.0,305.6 675.0,304.6 675.0,303.6 675.0,302.6 675.0,301.5 675.0,300.5 675.0,299.5 675.0,298.5 675.0,297.4 675.0,296.4 675.0,295.4 675.0,294.3 675.0,293.3 675.0,292.3 675.0,291.3 675.0,290.2 675.0,289.2 675.0,288.2 675.0,287.2 675.0,286.1 675.0,285.1 675.0,284.1 675.0,283.1 675.0,282.0 675.0,281.0 675.0,280.0 675.0,279.0 675.0,277.9 675.1,276.9 675.1,275.9 675.3,274.9 675.4,273.8 675.5,272.8 675.4,271.8 675.3,270.8 675.2,269.7 675.1,268.7 675.0,267.7 675.0,266.7 675.0,265.6 675.0,265.6 675.0,266.7 675.0,267.7 674.9,268.7 674.8,269.7 674.7,270.8 674.6,271.8 674.5,272.8 674.6,273.8 674.7,274.9 674.9,275.9 674.9,276.9 675.0,277.9 675.0,279.0 675.0,280.0 675.0,281.0 675.0,282.0 675.0,283.1 675.0,284.1 675.0,285.1 675.0,286.1 675.0,287.2 675.0,288.2 675.0,289.2 675.0,290.2 675.0,291.3 675.0,292.3 675.0,293.3 675.0,294.3 675.0,295.4 675.0,296.4 675.0,297.4 675.0,298.5 675.0,299.5 675.0,300.5 675.0,301.5 675.0,302.6 675.0,303.6 675.0,304.6 675.0,305.6 675.0,306.7 675.0,307.7 675.0,308.7 675.0,309.7 675.0,310.8 675.0,311.8 675.0,312.8 675.0,313.8 675.0,314.9 675.0,315.9 675.0,316.9 674.8,317.9 674.6,319.0 674.1,320.0 673.4,321.0 672.6,322.0 671.8,323.1 670.8,324.1 668.6,325.1 663.2,326.1 652.7,327.2 637.4,328.2 623.0,329.2 617.6,330.3 625.0,331.3 640.9,332.3 656.8,333.3 667.4,334.4 672.5,335.4 674.4,336.4 674.9,337.4 675.0,338.5" fill="#2a8" opacity="0.5" stroke="#2a8" stroke-width="1"/>
<line x1="617.6" y1="330.2028060422977" x2="732.4" y2="330.2028060422977" stroke="#114" stroke-width="2"/>
<circle cx="675.0" cy="330.62761124704804" r="2.4" fill="#114"/>
<text x="675.0" y="266.7205580289282" text-anchor="middle" font-size="11">1.02</text>
<text x="675.0" y="376" text-anchor="middle" font-size="12">scal</text>
<polygon points="815.6,346.5 817.1,345.9 819.0,345.4 821.3,344.8 824.0,344.3 827.2,343.7 830.7,343.2 834.6,342.6 838.6,342.1 842.9,341.5 847.1,340.9 851.3,340.4 855.3,339.8 858.9,339.3 862.0,338.7 864.7,338.2 866.7,337.6 868.1,337.1 868.9,336.5 869.0,336.0 868.6,335.4 867.8,334.9 866.5,334.3 865.1,333.8 863.5,333.2 861.9,332.7 860.5,332.1 859.3,331.6 858.6,331.0 858.3,330.4 858.5,329.9 859.2,329.3 860.4,328.8 861.8,328.2 863.5,327.7 865.1,327.1 866.7,326.6 867.9,326.0 868.7,325.5 869.1,324.9 868.8,324.4 867.9,323.8 866.4,323.3 864.3,322.7 861.7,322.2 858.7,321.6 855.4,321.1 852.0,320.5 848.4,319.9 845.0,319.4 841.6,318.8 838.4,318.3 835.4,317.7 832.5,317.2 829.9,316.6 827.5,316.1 825.3,315.5 823.3,315.0 821.5,314.4 820.0,313.9 818.7,313.3 817.7,312.8 816.8,312.2 816.1,311.7 815.4,311.1 814.9,310.6 814.4,310.0 813.9,309.4 813.5,308.9 813.2,308.3 812.8,307.8 812.6,307.2 810.8,307.2 810.5,307.8 810.2,308.3 809.8,308.9 809.4,309.4 808.9,310.0 808.5,310.6 807.9,311.1 807.3,311.7 806.5,312.2 805.7,312.8 804.6,313.3 803.3,313.9 801.8,314.4 800.1,315.0 798.1,315.5 795.9,316.1 793.4,316.6 790.8,317.2 788.0,317.7 785.0,318.3 781.7,318.8 778.4,319.4 774.9,319.9 771.4,320.5 767.9,321.1 764.6,321.6 761.6,322.2 759.0,322.7 756.9,323.3 755.4,323.8 754.5,324.4 754.3,324.9 754.6,325.5 755.4,326.0 756.7,326.6 758.2,327.1 759.9,327.7 761.5,328.2 763.0,328.8 764.1,329.3 764.8,329.9 765.1,330.4 764.8,331.0 764.0,331.6 762.9,332.1 761.5,332.7 759.9,333.2 758.3,333.8 756.8,334.3 755.6,334.9 754.7,335.4 754.3,336.0 754.5,336.5 755.2,337.1 756.6,337.6 758.7,338.2 761.3,338.7 764.5,339.3 768.1,339.8 772.0,340.4 776.2,340.9 780.5,341.5 784.7,342.1 788.8,342.6 792.6,343.2 796.2,343.7 799.3,344.3 802.0,344.8 804.4,345.4 806.3,345.9 807.8,346.5" fill="#d33" opacity="0.5" stroke="#d33" stroke-width="1"/>
<line x1="764.4" y1="329.4968871899384" x2="859.0" y2="329.4968871899384" stroke="#114" stroke-width="2"/>
<circle cx="811.6666666666666" cy="333.37812407225795" r="2.4" fill="#114"/>
<text x="811.6666666666666" y="305.07764255460825" text-anchor="middle" font-size="11">1.05</text>
<text x="811.6666666666666" y="376" text-anchor="middle" font-size="12">iamax</text>
<text x="450.0" y="428" text-anchor="middle" font-size="11" fill="#666">violin = ratio distribution over sizes · line = median · dark dot = worst size · green = every size ≥ gate</text>
</svg>
