<svg xmlns="http://www.w3.org/2000/svg" width="900" height="440" font-family="sans-serif">
<rect width="900" height="440" fill="white"/>
<text x="450.0" y="28" text-anchor="middle" font-size="18" font-weight="bold">BLAS-1: PureBLAS / OpenBLAS (AVX-512 native (Zen5), 1 thread, Float64)</text>
<line x1="60" y1="358.0" x2="880" y2="358.0" stroke="#eee"/>
<text x="52" y="362.0" text-anchor="end" font-size="11" fill="#666">0×</text>
<line x1="60" y1="348.2115334734728" x2="880" y2="348.2115334734728" stroke="#eee"/>
<text x="52" y="352.2115334734728" text-anchor="end" font-size="11" fill="#666">0.5×</text>
<line x1="60" y1="338.42306694694554" x2="880" y2="338.42306694694554" stroke="#eee"/>
<text x="52" y="342.42306694694554" text-anchor="end" font-size="11" fill="#666">1×</text>
<line x1="60" y1="328.63460042041834" x2="880" y2="328.63460042041834" stroke="#eee"/>
<text x="52" y="332.63460042041834" text-anchor="end" font-size="11" fill="#666">1.5×</text>
<line x1="60" y1="338.42306694694554" x2="880" y2="338.42306694694554" stroke="#888" stroke-width="1"/>
<line x1="60" y1="339.20614426906775" x2="880" y2="339.20614426906775" stroke="#d33" stroke-width="1.5" stroke-dasharray="6 4"/>
<text x="880" y="334.20614426906775" text-anchor="end" font-size="11" fill="#d33">0.96× gate</text>
<polygon points="128.5,340.3 128.6,340.2 128.7,340.1 129.0,339.9 129.5,339.8 130.2,339.7 131.2,339.6 132.8,339.5 135.3,339.4 139.0,339.2 144.0,339.1 150.5,339.0 158.3,338.9 166.6,338.8 174.6,338.7 181.0,338.6 184.8,338.4 185.7,338.3 183.8,338.2 179.9,338.1 175.2,338.0 170.8,337.9 167.6,337.7 165.6,337.6 164.7,337.5 164.1,337.4 163.0,337.3 161.1,337.2 158.2,337.0 154.4,336.9 150.2,336.8 146.0,336.7 142.1,336.6 138.9,336.5 136.4,336.3 134.5,336.2 133.2,336.1 132.3,336.0 131.8,335.9 131.4,335.8 131.3,335.6 131.3,335.5 131.4,335.4 131.6,335.3 131.7,335.2 131.8,335.1 131.7,335.0 131.5,334.8 131.1,334.7 130.6,334.6 130.1,334.5 129.7,334.4 129.4,334.3 129.3,334.1 129.2,334.0 129.2,333.9 129.2,333.8 129.2,333.7 129.2,333.6 129.2,333.4 129.2,333.3 129.2,333.2 129.2,333.1 129.2,333.0 129.2,332.9 129.1,332.7 129.0,332.6 128.9,332.5 128.7,332.4 128.6,332.3 128.5,332.2 128.4,332.0 128.2,332.0 128.2,332.2 128.1,332.3 127.9,332.4 127.8,332.5 127.7,332.6 127.6,332.7 127.5,332.9 127.5,333.0 127.5,333.1 127.5,333.2 127.5,333.3 127.5,333.4 127.5,333.6 127.4,333.7 127.4,333.8 127.4,333.9 127.4,334.0 127.4,334.1 127.3,334.3 127.0,334.4 126.6,334.5 126.1,334.6 125.6,334.7 125.2,334.8 124.9,335.0 124.8,335.1 124.9,335.2 125.1,335.3 125.3,335.4 125.4,335.5 125.4,335.6 125.2,335.8 124.9,335.9 124.3,336.0 123.5,336.1 122.2,336.2 120.3,336.3 117.8,336.5 114.5,336.6 110.7,336.7 106.5,336.8 102.3,336.9 98.5,337.0 95.6,337.2 93.6,337.3 92.6,337.4 92.0,337.5 91.0,337.6 89.1,337.7 85.9,337.9 81.5,338.0 76.8,338.1 72.9,338.2 70.9,338.3 71.8,338.4 75.7,338.6 82.1,338.7 90.0,338.8 98.4,338.9 106.1,339.0 112.7,339.1 117.7,339.2 121.3,339.4 123.8,339.5 125.5,339.6 126.5,339.7 127.2,339.8 127.6,339.9 127.9,340.1 128.1,340.2 128.2,340.3" fill="#2a8" opacity="0.5" stroke="#2a8" stroke-width="1"/>
<line x1="74.3" y1="338.15386014962587" x2="182.3" y2="338.15386014962587" stroke="#114" stroke-width="2"/>
<circle cx="128.33333333333331" cy="338.56066022299456" r="2.4" fill="#114"/>
<text x="128.33333333333331" y="326.8756705135341" text-anchor="middle" font-size="11">1.01</text>
<text x="128.33333333333331" y="376" text-anchor="middle" font-size="12">axpy</text>
<polygon points="265.0,342.7 265.0,342.6 265.1,342.4 265.2,342.3 265.3,342.2 265.4,342.0 265.6,341.9 265.6,341.8 265.6,341.7 265.5,341.5 265.3,341.4 265.2,341.3 265.1,341.1 265.0,341.0 265.0,340.9 265.0,340.7 265.0,340.6 265.0,340.5 265.0,340.3 265.0,340.2 265.1,340.1 265.2,339.9 265.5,339.8 266.0,339.7 266.9,339.5 268.2,339.4 270.4,339.3 273.9,339.2 279.4,339.0 287.2,338.9 297.2,338.8 308.0,338.6 317.1,338.5 322.4,338.4 322.4,338.2 317.4,338.1 308.9,338.0 298.9,337.8 289.1,337.7 280.8,337.6 274.7,337.4 270.8,337.3 268.7,337.2 267.8,337.0 267.5,336.9 267.5,336.8 267.6,336.7 267.6,336.5 267.6,336.4 267.5,336.3 267.4,336.1 267.4,336.0 267.5,335.9 267.6,335.7 267.8,335.6 267.7,335.5 267.4,335.3 266.9,335.2 266.3,335.1 265.9,334.9 265.6,334.8 265.5,334.7 265.5,334.5 265.6,334.4 265.6,334.3 265.6,334.2 265.4,334.0 265.3,333.9 265.2,333.8 265.1,333.6 265.0,333.5 265.0,333.4 265.0,333.4 265.0,333.5 264.9,333.6 264.8,333.8 264.7,333.9 264.6,334.0 264.4,334.2 264.4,334.3 264.4,334.4 264.5,334.5 264.5,334.7 264.4,334.8 264.1,334.9 263.7,335.1 263.1,335.2 262.6,335.3 262.3,335.5 262.2,335.6 262.4,335.7 262.5,335.9 262.6,336.0 262.6,336.1 262.5,336.3 262.4,336.4 262.4,336.5 262.4,336.7 262.5,336.8 262.5,336.9 262.2,337.0 261.3,337.2 259.2,337.3 255.3,337.4 249.2,337.6 240.9,337.7 231.1,337.8 221.1,338.0 212.6,338.1 207.6,338.2 207.6,338.4 212.9,338.5 222.0,338.6 232.8,338.8 242.8,338.9 250.6,339.0 256.1,339.2 259.6,339.3 261.8,339.4 263.1,339.5 264.0,339.7 264.5,339.8 264.8,339.9 264.9,340.1 265.0,340.2 265.0,340.3 265.0,340.5 265.0,340.6 265.0,340.7 265.0,340.9 265.0,341.0 264.9,341.1 264.8,341.3 264.7,341.4 264.5,341.5 264.4,341.7 264.4,341.8 264.4,341.9 264.6,342.0 264.7,342.2 264.8,342.3 264.9,342.4 265.0,342.6 265.0,342.7" fill="#2a8" opacity="0.5" stroke="#2a8" stroke-width="1"/>
<line x1="207.0" y1="338.27657539537495" x2="323.0" y2="338.27657539537495" stroke="#114" stroke-width="2"/>
<circle cx="265.0" cy="338.46606625662014" r="2.4" fill="#114"/>
<text x="265.0" y="328.299188185528" text-anchor="middle" font-size="11">1.01</text>
<text x="265.0" y="376" text-anchor="middle" font-size="12">dot</text>
<polygon points="416.6,262.6 419.1,259.6 421.8,256.6 424.6,253.6 427.3,250.6 429.9,247.6 432.3,244.6 434.4,241.6 436.1,238.6 437.3,235.7 438.1,232.7 438.2,229.7 437.8,226.7 436.9,223.7 435.5,220.7 433.7,217.7 431.6,214.7 429.2,211.7 426.8,208.7 424.3,205.7 422.0,202.7 419.9,199.7 418.1,196.7 416.7,193.7 415.8,190.7 415.4,187.7 415.5,184.7 416.2,181.8 417.4,178.8 419.2,175.8 421.6,172.8 424.4,169.8 427.5,166.8 431.0,163.8 434.7,160.8 438.5,157.8 442.2,154.8 445.8,151.8 449.1,148.8 452.1,145.8 454.5,142.8 456.5,139.8 457.9,136.8 458.7,133.8 459.1,130.8 458.9,127.9 458.3,124.9 457.4,121.9 456.2,118.9 454.9,115.9 453.4,112.9 451.9,109.9 450.4,106.9 448.9,103.9 447.5,100.9 446.2,97.9 444.9,94.9 443.7,91.9 442.5,88.9 441.3,85.9 440.0,82.9 438.7,79.9 437.2,76.9 435.7,74.0 433.9,71.0 432.1,68.0 430.0,65.0 427.9,62.0 425.6,59.0 423.3,56.0 421.0,53.0 418.7,50.0 384.6,50.0 382.3,53.0 380.0,56.0 377.7,59.0 375.4,62.0 373.3,65.0 371.3,68.0 369.4,71.0 367.7,74.0 366.1,76.9 364.7,79.9 363.3,82.9 362.1,85.9 360.8,88.9 359.6,91.9 358.4,94.9 357.1,97.9 355.8,100.9 354.4,103.9 352.9,106.9 351.4,109.9 349.9,112.9 348.4,115.9 347.1,118.9 345.9,121.9 345.0,124.9 344.4,127.9 344.3,130.8 344.6,133.8 345.4,136.8 346.9,139.8 348.8,142.8 351.3,145.8 354.2,148.8 357.5,151.8 361.1,154.8 364.8,157.8 368.6,160.8 372.3,163.8 375.8,166.8 379.0,169.8 381.8,172.8 384.1,175.8 385.9,178.8 387.1,181.8 387.8,184.7 388.0,187.7 387.5,190.7 386.6,193.7 385.2,196.7 383.4,199.7 381.3,202.7 379.0,205.7 376.6,208.7 374.1,211.7 371.8,214.7 369.6,217.7 367.8,220.7 366.4,223.7 365.5,226.7 365.1,229.7 365.3,232.7 366.0,235.7 367.2,238.6 368.9,241.6 371.0,244.6 373.4,247.6 376.0,250.6 378.7,253.6 381.5,256.6 384.2,259.6 386.8,262.6" fill="#2a8" opacity="0.5" stroke="#2a8" stroke-width="1"/>
<line x1="345.6" y1="137.25291265151046" x2="457.7" y2="137.25291265151046" stroke="#114" stroke-width="2"/>
<circle cx="401.66666666666663" cy="236.44470948505256" r="2.4" fill="#114"/>
<text x="401.66666666666663" y="61.433962264150935" text-anchor="middle" font-size="11">11.28</text>
<text x="401.66666666666663" y="376" text-anchor="middle" font-size="12">nrm2</text>
<polygon points="538.5,344.6 538.6,344.4 538.7,344.2 538.8,343.9 538.9,343.7 538.9,343.5 539.0,343.3 539.0,343.1 539.0,342.9 539.0,342.6 539.0,342.4 539.0,342.2 539.1,342.0 539.3,341.8 539.6,341.5 540.1,341.3 541.0,341.1 542.3,340.9 544.3,340.7 547.1,340.4 550.9,340.2 555.8,340.0 561.6,339.8 568.3,339.6 575.3,339.3 582.2,339.1 588.1,338.9 592.6,338.7 595.2,338.5 595.7,338.2 594.3,338.0 591.3,337.8 587.2,337.6 582.6,337.4 578.0,337.1 573.7,336.9 569.7,336.7 566.1,336.5 562.7,336.3 559.5,336.1 556.4,335.8 553.5,335.6 550.7,335.4 548.2,335.2 546.1,335.0 544.4,334.7 543.0,334.5 542.1,334.3 541.5,334.1 541.3,333.9 541.3,333.6 541.7,333.4 542.4,333.2 543.3,333.0 544.5,332.8 545.9,332.5 547.3,332.3 548.6,332.1 549.7,331.9 550.3,331.7 550.4,331.4 550.0,331.2 549.1,331.0 547.9,330.8 546.4,330.6 544.8,330.3 543.4,330.1 542.1,329.9 541.0,329.7 540.1,329.5 539.5,329.2 539.1,329.0 537.6,329.0 537.2,329.2 536.5,329.5 535.7,329.7 534.6,329.9 533.3,330.1 531.8,330.3 530.3,330.6 528.8,330.8 527.5,331.0 526.6,331.2 526.2,331.4 526.4,331.7 527.0,331.9 528.0,332.1 529.3,332.3 530.7,332.5 532.1,332.8 533.3,333.0 534.3,333.2 535.0,333.4 535.3,333.6 535.4,333.9 535.1,334.1 534.6,334.3 533.6,334.5 532.3,334.7 530.6,335.0 528.4,335.2 526.0,335.4 523.2,335.6 520.2,335.8 517.1,336.1 513.9,336.3 510.6,336.5 506.9,336.7 503.0,336.9 498.6,337.1 494.0,337.4 489.5,337.6 485.4,337.8 482.4,338.0 480.9,338.2 481.5,338.5 484.0,338.7 488.5,338.9 494.5,339.1 501.3,339.3 508.4,339.6 515.0,339.8 520.9,340.0 525.8,340.2 529.6,340.4 532.4,340.7 534.3,340.9 535.7,341.1 536.5,341.3 537.1,341.5 537.4,341.8 537.5,342.0 537.6,342.2 537.6,342.4 537.6,342.6 537.6,342.9 537.6,343.1 537.7,343.3 537.7,343.5 537.8,343.7 537.9,343.9 538.0,344.2 538.1,344.4 538.1,344.6" fill="#2a8" opacity="0.5" stroke="#2a8" stroke-width="1"/>
<line x1="480.9" y1="338.2469718679442" x2="595.7" y2="338.2469718679442" stroke="#114" stroke-width="2"/>
<circle cx="538.3333333333333" cy="338.7116646399961" r="2.4" fill="#114"/>
<text x="538.3333333333333" y="324.5688908935418" text-anchor="middle" font-size="11">1.01</text>
<text x="538.3333333333333" y="376" text-anchor="middle" font-size="12">asum</text>
<polygon points="676.4,340.4 677.1,340.2 678.0,340.1 679.2,340.0 680.8,339.8 682.9,339.7 685.4,339.6 688.5,339.4 692.3,339.3 696.5,339.1 701.3,339.0 706.4,338.9 711.7,338.7 717.0,338.6 721.8,338.5 726.1,338.3 729.4,338.2 731.5,338.0 732.4,337.9 731.9,337.8 730.2,337.6 727.3,337.5 723.5,337.4 719.1,337.2 714.3,337.1 709.3,336.9 704.5,336.8 700.0,336.7 695.8,336.5 692.2,336.4 689.0,336.3 686.3,336.1 684.0,336.0 682.2,335.8 680.6,335.7 679.4,335.6 678.4,335.4 677.7,335.3 677.1,335.1 676.7,335.0 676.5,334.9 676.4,334.7 676.4,334.6 676.6,334.5 677.0,334.3 677.4,334.2 678.0,334.0 678.8,333.9 679.6,333.8 680.4,333.6 681.3,333.5 682.3,333.4 683.1,333.2 683.9,333.1 684.5,332.9 684.9,332.8 685.1,332.7 685.1,332.5 684.8,332.4 684.3,332.3 683.5,332.1 682.7,332.0 681.7,331.8 680.7,331.7 679.8,331.6 678.9,331.4 678.1,331.3 677.4,331.2 676.8,331.0 676.3,330.9 676.0,330.7 675.7,330.6 674.3,330.6 674.0,330.7 673.7,330.9 673.2,331.0 672.6,331.2 671.9,331.3 671.1,331.4 670.2,331.6 669.3,331.7 668.3,331.8 667.3,332.0 666.5,332.1 665.7,332.3 665.2,332.4 664.9,332.5 664.9,332.7 665.1,332.8 665.5,332.9 666.1,333.1 666.9,333.2 667.7,333.4 668.7,333.5 669.6,333.6 670.4,333.8 671.2,333.9 672.0,334.0 672.6,334.2 673.0,334.3 673.4,334.5 673.6,334.6 673.6,334.7 673.5,334.9 673.3,335.0 672.9,335.1 672.3,335.3 671.6,335.4 670.6,335.6 669.4,335.7 667.8,335.8 666.0,336.0 663.7,336.1 661.0,336.3 657.8,336.4 654.2,336.5 650.0,336.7 645.5,336.8 640.7,336.9 635.7,337.1 630.9,337.2 626.5,337.4 622.7,337.5 619.8,337.6 618.1,337.8 617.6,337.9 618.5,338.0 620.6,338.2 623.9,338.3 628.2,338.5 633.0,338.6 638.3,338.7 643.6,338.9 648.7,339.0 653.5,339.1 657.7,339.3 661.5,339.4 664.6,339.6 667.1,339.7 669.2,339.8 670.8,340.0 672.0,340.1 672.9,340.2 673.6,340.4" fill="#2a8" opacity="0.5" stroke="#2a8" stroke-width="1"/>
<line x1="617.7" y1="337.8316333151451" x2="732.3" y2="337.8316333151451" stroke="#114" stroke-width="2"/>
<circle cx="675.0" cy="338.42151914860193" r="2.4" fill="#114"/>
<text x="675.0" y="325.5791219559787" text-anchor="middle" font-size="11">1.03</text>
<text x="675.0" y="376" text-anchor="middle" font-size="12">scal</text>
<polygon points="817.7,345.1 819.5,344.6 821.6,344.0 824.0,343.5 826.7,343.0 829.7,342.4 832.9,341.9 836.3,341.3 839.9,340.8 843.4,340.3 847.0,339.7 850.3,339.2 853.5,338.7 856.4,338.1 859.0,337.6 861.1,337.0 862.8,336.5 864.0,336.0 864.8,335.4 865.2,334.9 865.3,334.3 865.1,333.8 864.6,333.3 864.1,332.7 863.6,332.2 863.1,331.6 862.8,331.1 862.7,330.6 862.8,330.0 863.1,329.5 863.7,329.0 864.4,328.4 865.2,327.9 866.1,327.3 867.0,326.8 867.8,326.3 868.4,325.7 868.9,325.2 869.1,324.6 869.0,324.1 868.7,323.6 868.3,323.0 867.6,322.5 866.8,322.0 865.9,321.4 865.0,320.9 864.0,320.3 863.0,319.8 862.0,319.3 860.9,318.7 859.7,318.2 858.4,317.6 856.9,317.1 855.1,316.6 853.2,316.0 851.0,315.5 848.6,315.0 846.0,314.4 843.2,313.9 840.3,313.3 837.4,312.8 834.4,312.3 831.5,311.7 828.7,311.2 826.1,310.6 823.7,310.1 821.6,309.6 819.6,309.0 818.0,308.5 816.6,308.0 815.5,307.4 814.5,306.9 808.8,306.9 807.9,307.4 806.7,308.0 805.3,308.5 803.7,309.0 801.8,309.6 799.6,310.1 797.2,310.6 794.6,311.2 791.8,311.7 788.9,312.3 786.0,312.8 783.0,313.3 780.1,313.9 777.3,314.4 774.7,315.0 772.3,315.5 770.1,316.0 768.2,316.6 766.5,317.1 765.0,317.6 763.6,318.2 762.4,318.7 761.3,319.3 760.3,319.8 759.3,320.3 758.3,320.9 757.4,321.4 756.5,322.0 755.7,322.5 755.1,323.0 754.6,323.6 754.3,324.1 754.3,324.6 754.5,325.2 754.9,325.7 755.5,326.3 756.3,326.8 757.2,327.3 758.1,327.9 758.9,328.4 759.7,329.0 760.2,329.5 760.6,330.0 760.7,330.6 760.5,331.1 760.2,331.6 759.8,332.2 759.2,332.7 758.7,333.3 758.3,333.8 758.0,334.3 758.1,334.9 758.5,335.4 759.3,336.0 760.5,336.5 762.2,337.0 764.4,337.6 766.9,338.1 769.8,338.7 773.0,339.2 776.4,339.7 779.9,340.3 783.5,340.8 787.0,341.3 790.4,341.9 793.6,342.4 796.6,343.0 799.4,343.5 801.8,344.0 803.9,344.6 805.6,345.1" fill="#2a8" opacity="0.5" stroke="#2a8" stroke-width="1"/>
<line x1="756.1" y1="326.6510448165286" x2="867.3" y2="326.6510448165286" stroke="#114" stroke-width="2"/>
<circle cx="811.6666666666666" cy="331.9186384670768" r="2.4" fill="#114"/>
<text x="811.6666666666666" y="304.60925400326204" text-anchor="middle" font-size="11">1.60</text>
<text x="811.6666666666666" y="376" text-anchor="middle" font-size="12">iamax</text>
<text x="450.0" y="428" text-anchor="middle" font-size="11" fill="#666">violin = ratio distribution over sizes · line = median · dark dot = worst size · green = every size ≥ gate</text>
</svg>
