<svg xmlns="http://www.w3.org/2000/svg" width="900" height="440" font-family="sans-serif">
<rect width="900" height="440" fill="white"/>
<text x="450.0" y="28" text-anchor="middle" font-size="18" font-weight="bold">Complex BLAS-2: PureBLAS / OpenBLAS (AVX-512 (Zen4), 1 thread, ComplexF64)</text>
<line x1="60" y1="358.0" x2="880" y2="358.0" stroke="#eee"/>
<text x="52" y="362.0" text-anchor="end" font-size="11" fill="#666">0×</text>
<line x1="60" y1="289.7010786864257" x2="880" y2="289.7010786864257" stroke="#eee"/>
<text x="52" y="293.7010786864257" text-anchor="end" font-size="11" fill="#666">0.5×</text>
<line x1="60" y1="221.4021573728515" x2="880" y2="221.4021573728515" stroke="#eee"/>
<text x="52" y="225.4021573728515" text-anchor="end" font-size="11" fill="#666">1×</text>
<line x1="60" y1="153.10323605927724" x2="880" y2="153.10323605927724" stroke="#eee"/>
<text x="52" y="157.10323605927724" text-anchor="end" font-size="11" fill="#666">1.5×</text>
<line x1="60" y1="221.4021573728515" x2="880" y2="221.4021573728515" stroke="#888" stroke-width="1"/>
<line x1="60" y1="226.86607107793742" x2="880" y2="226.86607107793742" stroke="#d33" stroke-width="1.5" stroke-dasharray="6 4"/>
<text x="880" y="221.86607107793742" text-anchor="end" font-size="11" fill="#d33">0.96× gate</text>
<polygon points="132.2,244.0 133.4,243.0 134.8,242.0 136.6,241.0 138.6,240.0 140.8,239.1 143.3,238.1 146.1,237.1 149.0,236.1 152.1,235.1 155.3,234.1 158.6,233.2 162.0,232.2 165.3,231.2 168.6,230.2 171.9,229.2 174.9,228.2 177.8,227.3 180.3,226.3 182.5,225.3 184.1,224.3 185.2,223.3 185.7,222.3 185.5,221.3 184.6,220.4 183.0,219.4 180.6,218.4 177.6,217.4 174.1,216.4 170.1,215.4 165.9,214.5 161.6,213.5 157.2,212.5 153.1,211.5 149.3,210.5 145.8,209.5 142.8,208.6 140.2,207.6 138.1,206.6 136.4,205.6 135.1,204.6 134.1,203.6 133.4,202.7 132.9,201.7 132.6,200.7 132.4,199.7 132.3,198.7 132.3,197.7 132.4,196.7 132.7,195.8 133.0,194.8 133.6,193.8 134.3,192.8 135.1,191.8 136.1,190.8 137.2,189.9 138.3,188.9 139.3,187.9 140.2,186.9 140.9,185.9 141.4,184.9 141.5,184.0 141.3,183.0 140.7,182.0 139.9,181.0 138.8,180.0 137.6,179.0 136.3,178.1 135.0,177.1 133.8,176.1 132.7,175.1 131.7,174.1 125.0,174.1 124.0,175.1 122.9,176.1 121.6,177.1 120.3,178.1 119.1,179.0 117.8,180.0 116.8,181.0 115.9,182.0 115.4,183.0 115.2,184.0 115.3,184.9 115.7,185.9 116.5,186.9 117.4,187.9 118.4,188.9 119.5,189.9 120.6,190.8 121.5,191.8 122.4,192.8 123.1,193.8 123.6,194.8 124.0,195.8 124.3,196.7 124.4,197.7 124.4,198.7 124.3,199.7 124.1,200.7 123.8,201.7 123.3,202.7 122.5,203.6 121.5,204.6 120.2,205.6 118.5,206.6 116.4,207.6 113.9,208.6 110.9,209.5 107.4,210.5 103.6,211.5 99.4,212.5 95.1,213.5 90.8,214.5 86.5,215.4 82.6,216.4 79.0,217.4 76.1,218.4 73.7,219.4 72.1,220.4 71.1,221.3 70.9,222.3 71.4,223.3 72.5,224.3 74.2,225.3 76.4,226.3 78.9,227.3 81.7,228.2 84.8,229.2 88.0,230.2 91.3,231.2 94.7,232.2 98.1,233.2 101.4,234.1 104.6,235.1 107.7,236.1 110.6,237.1 113.3,238.1 115.8,239.1 118.1,240.0 120.1,241.0 121.8,242.0 123.3,243.0 124.5,244.0" fill="#d33" opacity="0.5" stroke="#d33" stroke-width="1"/>
<line x1="71.1" y1="221.39761654325952" x2="185.6" y2="221.39761654325952" stroke="#114" stroke-width="2"/>
<circle cx="128.33333333333331" cy="231.1731193443718" r="2.4" fill="#114"/>
<text x="128.33333333333331" y="175.09930720634128" text-anchor="middle" font-size="11">1.00</text>
<text x="128.33333333333331" y="376" text-anchor="middle" font-size="12">zgemvN</text>
<polygon points="270.0,235.5 271.4,234.5 273.1,233.6 275.1,232.6 277.4,231.7 280.1,230.7 283.1,229.8 286.3,228.8 289.8,227.9 293.5,226.9 297.3,226.0 301.1,225.0 304.8,224.1 308.3,223.1 311.6,222.1 314.5,221.2 317.0,220.2 319.0,219.3 320.6,218.3 321.6,217.4 322.2,216.4 322.4,215.5 322.2,214.5 321.6,213.6 320.7,212.6 319.5,211.7 318.1,210.7 316.5,209.8 314.8,208.8 312.8,207.9 310.6,206.9 308.3,206.0 305.8,205.0 303.2,204.1 300.5,203.1 297.7,202.1 294.9,201.2 292.1,200.2 289.5,199.3 287.1,198.3 284.9,197.4 283.0,196.4 281.5,195.5 280.4,194.5 279.8,193.6 279.7,192.6 279.9,191.7 280.7,190.7 281.8,189.8 283.3,188.8 285.0,187.9 287.0,186.9 289.0,186.0 291.1,185.0 293.0,184.0 294.7,183.1 296.1,182.1 297.1,181.2 297.6,180.2 297.6,179.3 297.1,178.3 296.1,177.4 294.7,176.4 292.8,175.5 290.7,174.5 288.3,173.6 285.7,172.6 283.1,171.7 280.6,170.7 278.2,169.8 275.9,168.8 273.9,167.9 256.1,167.9 254.1,168.8 251.8,169.8 249.4,170.7 246.9,171.7 244.3,172.6 241.7,173.6 239.3,174.5 237.2,175.5 235.3,176.4 233.9,177.4 232.9,178.3 232.4,179.3 232.4,180.2 232.9,181.2 233.9,182.1 235.3,183.1 237.0,184.0 238.9,185.0 241.0,186.0 243.0,186.9 245.0,187.9 246.7,188.8 248.2,189.8 249.3,190.7 250.1,191.7 250.3,192.6 250.2,193.6 249.6,194.5 248.5,195.5 247.0,196.4 245.1,197.4 242.9,198.3 240.5,199.3 237.9,200.2 235.1,201.2 232.3,202.1 229.5,203.1 226.8,204.1 224.2,205.0 221.7,206.0 219.4,206.9 217.2,207.9 215.2,208.8 213.5,209.8 211.9,210.7 210.5,211.7 209.3,212.6 208.4,213.6 207.8,214.5 207.6,215.5 207.8,216.4 208.4,217.4 209.4,218.3 211.0,219.3 213.0,220.2 215.5,221.2 218.4,222.1 221.7,223.1 225.2,224.1 228.9,225.0 232.7,226.0 236.5,226.9 240.2,227.9 243.7,228.8 246.9,229.8 249.9,230.7 252.6,231.7 254.9,232.6 256.9,233.6 258.6,234.5 260.0,235.5" fill="#2a8" opacity="0.5" stroke="#2a8" stroke-width="1"/>
<line x1="215.3" y1="208.76971800790565" x2="314.7" y2="208.76971800790565" stroke="#114" stroke-width="2"/>
<circle cx="265.0" cy="221.80986600040126" r="2.4" fill="#114"/>
<text x="265.0" y="168.6224239537239" text-anchor="middle" font-size="11">1.09</text>
<text x="265.0" y="376" text-anchor="middle" font-size="12">zgemvC</text>
<polygon points="401.8,249.6 401.8,248.0 402.0,246.3 402.1,244.7 402.3,243.1 402.4,241.5 402.5,239.8 402.6,238.2 402.6,236.6 402.6,234.9 402.6,233.3 402.7,231.7 403.1,230.0 403.9,228.4 405.1,226.8 407.0,225.2 409.7,223.5 413.3,221.9 417.8,220.3 423.0,218.6 428.5,217.0 434.0,215.4 439.3,213.7 443.9,212.1 448.0,210.5 451.5,208.9 454.5,207.2 456.9,205.6 458.5,204.0 459.1,202.3 458.2,200.7 455.8,199.1 451.8,197.4 446.5,195.8 440.5,194.2 434.2,192.6 428.2,190.9 422.9,189.3 418.5,187.7 415.3,186.0 413.1,184.4 411.9,182.8 411.6,181.1 411.8,179.5 412.2,177.9 412.8,176.3 413.0,174.6 412.9,173.0 412.3,171.4 411.3,169.7 410.0,168.1 408.6,166.5 407.2,164.9 405.9,163.2 404.8,161.6 403.9,160.0 403.2,158.3 402.7,156.7 402.4,155.1 402.3,153.4 402.3,151.8 402.3,150.2 402.4,148.6 402.5,146.9 402.6,145.3 402.5,143.7 402.4,142.0 402.3,140.4 402.1,138.8 402.0,137.1 401.8,135.5 401.8,133.9 401.6,133.9 401.5,135.5 401.4,137.1 401.2,138.8 401.1,140.4 400.9,142.0 400.8,143.7 400.8,145.3 400.8,146.9 400.9,148.6 401.0,150.2 401.1,151.8 401.1,153.4 400.9,155.1 400.6,156.7 400.2,158.3 399.5,160.0 398.6,161.6 397.5,163.2 396.2,164.9 394.8,166.5 393.3,168.1 392.0,169.7 391.0,171.4 390.4,173.0 390.3,174.6 390.6,176.3 391.1,177.9 391.6,179.5 391.8,181.1 391.4,182.8 390.2,184.4 388.0,186.0 384.8,187.7 380.4,189.3 375.1,190.9 369.1,192.6 362.9,194.2 356.8,195.8 351.6,197.4 347.6,199.1 345.1,200.7 344.3,202.3 344.8,204.0 346.4,205.6 348.8,207.2 351.8,208.9 355.3,210.5 359.4,212.1 364.1,213.7 369.3,215.4 374.8,217.0 380.4,218.6 385.5,220.3 390.0,221.9 393.6,223.5 396.3,225.2 398.2,226.8 399.5,228.4 400.2,230.0 400.6,231.7 400.7,233.3 400.8,234.9 400.7,236.6 400.7,238.2 400.8,239.8 400.9,241.5 401.1,243.1 401.2,244.7 401.4,246.3 401.5,248.0 401.6,249.6" fill="#2a8" opacity="0.5" stroke="#2a8" stroke-width="1"/>
<line x1="344.4" y1="201.73935322040785" x2="458.9" y2="201.73935322040785" stroke="#114" stroke-width="2"/>
<circle cx="401.66666666666663" cy="213.9361958610117" r="2.4" fill="#114"/>
<text x="401.66666666666663" y="139.30468029703218" text-anchor="middle" font-size="11">1.14</text>
<text x="401.66666666666663" y="376" text-anchor="middle" font-size="12">zgeru</text>
<polygon points="549.1,258.4 551.7,255.5 554.7,252.6 558.0,249.6 561.6,246.7 565.4,243.7 569.4,240.8 573.5,237.9 577.6,234.9 581.5,232.0 585.1,229.1 588.4,226.1 591.1,223.2 593.3,220.3 594.8,217.3 595.6,214.4 595.7,211.5 595.2,208.5 594.0,205.6 592.2,202.6 590.0,199.7 587.5,196.8 584.7,193.8 581.9,190.9 579.1,188.0 576.5,185.0 574.2,182.1 572.3,179.2 570.8,176.2 569.9,173.3 569.4,170.4 569.5,167.4 570.0,164.5 570.9,161.6 572.1,158.6 573.6,155.7 575.1,152.7 576.7,149.8 578.1,146.9 579.5,143.9 580.6,141.0 581.5,138.1 582.1,135.1 582.6,132.2 582.8,129.3 582.9,126.3 582.9,123.4 582.9,120.5 582.8,117.5 582.8,114.6 582.8,111.6 582.9,108.7 583.0,105.8 583.1,102.8 583.1,99.9 583.0,97.0 582.8,94.0 582.3,91.1 581.5,88.2 580.4,85.2 579.0,82.3 577.3,79.4 575.3,76.4 572.9,73.5 570.4,70.5 567.6,67.6 564.8,64.7 561.9,61.7 559.0,58.8 556.3,55.9 553.7,52.9 551.2,50.0 525.4,50.0 523.0,52.9 520.4,55.9 517.6,58.8 514.8,61.7 511.9,64.7 509.0,67.6 506.3,70.5 503.7,73.5 501.4,76.4 499.4,79.4 497.6,82.3 496.2,85.2 495.2,88.2 494.4,91.1 493.9,94.0 493.6,97.0 493.6,99.9 493.6,102.8 493.7,105.8 493.8,108.7 493.8,111.6 493.9,114.6 493.9,117.5 493.8,120.5 493.8,123.4 493.8,126.3 493.9,129.3 494.1,132.2 494.5,135.1 495.2,138.1 496.1,141.0 497.2,143.9 498.5,146.9 500.0,149.8 501.6,152.7 503.1,155.7 504.5,158.6 505.7,161.6 506.7,164.5 507.2,167.4 507.2,170.4 506.8,173.3 505.8,176.2 504.4,179.2 502.5,182.1 500.2,185.0 497.6,188.0 494.8,190.9 492.0,193.8 489.2,196.8 486.7,199.7 484.4,202.6 482.7,205.6 481.5,208.5 480.9,211.5 481.1,214.4 481.9,217.3 483.4,220.3 485.5,223.2 488.3,226.1 491.5,229.1 495.2,232.0 499.1,234.9 503.1,237.9 507.2,240.8 511.3,243.7 515.1,246.7 518.7,249.6 522.0,252.6 524.9,255.5 527.5,258.4" fill="#2a8" opacity="0.5" stroke="#2a8" stroke-width="1"/>
<line x1="497.8" y1="145.35640717831703" x2="578.8" y2="145.35640717831703" stroke="#114" stroke-width="2"/>
<circle cx="538.3333333333333" cy="223.49210991483795" r="2.4" fill="#114"/>
<text x="538.3333333333333" y="61.433962264150935" text-anchor="middle" font-size="11">1.56</text>
<text x="538.3333333333333" y="376" text-anchor="middle" font-size="12">zhemv</text>
<polygon points="676.1,270.6 676.6,268.0 677.2,265.4 678.0,262.8 679.2,260.1 680.6,257.5 682.4,254.9 684.8,252.3 687.6,249.6 690.8,247.0 694.6,244.4 698.7,241.8 702.9,239.1 707.1,236.5 711.2,233.9 714.8,231.3 718.0,228.6 720.6,226.0 722.6,223.4 724.3,220.8 725.6,218.2 726.7,215.5 727.9,212.9 729.0,210.3 730.1,207.7 731.1,205.0 732.0,202.4 732.4,199.8 732.3,197.2 731.6,194.5 730.2,191.9 728.2,189.3 725.5,186.7 722.5,184.0 719.2,181.4 715.9,178.8 712.7,176.2 709.8,173.6 707.2,170.9 705.2,168.3 703.6,165.7 702.4,163.1 701.5,160.4 700.9,157.8 700.5,155.2 700.0,152.6 699.5,149.9 698.8,147.3 698.0,144.7 697.0,142.1 695.9,139.4 694.6,136.8 693.4,134.2 692.0,131.6 690.7,129.0 689.4,126.3 688.2,123.7 687.1,121.1 686.0,118.5 685.1,115.8 684.3,113.2 683.6,110.6 682.9,108.0 682.2,105.3 681.6,102.7 680.9,100.1 680.2,97.5 679.4,94.8 678.7,92.2 678.0,89.6 677.4,87.0 676.8,84.4 673.2,84.4 672.6,87.0 672.0,89.6 671.3,92.2 670.6,94.8 669.8,97.5 669.1,100.1 668.4,102.7 667.8,105.3 667.1,108.0 666.4,110.6 665.7,113.2 664.9,115.8 664.0,118.5 662.9,121.1 661.8,123.7 660.6,126.3 659.3,129.0 658.0,131.6 656.6,134.2 655.4,136.8 654.1,139.4 653.0,142.1 652.0,144.7 651.2,147.3 650.5,149.9 650.0,152.6 649.5,155.2 649.1,157.8 648.5,160.4 647.6,163.1 646.4,165.7 644.8,168.3 642.8,170.9 640.2,173.6 637.3,176.2 634.1,178.8 630.8,181.4 627.5,184.0 624.5,186.7 621.8,189.3 619.8,191.9 618.4,194.5 617.7,197.2 617.6,199.8 618.0,202.4 618.9,205.0 619.9,207.7 621.0,210.3 622.1,212.9 623.3,215.5 624.4,218.2 625.7,220.8 627.4,223.4 629.4,226.0 632.0,228.6 635.2,231.3 638.8,233.9 642.9,236.5 647.1,239.1 651.3,241.8 655.4,244.4 659.2,247.0 662.4,249.6 665.2,252.3 667.6,254.9 669.4,257.5 670.8,260.1 672.0,262.8 672.8,265.4 673.4,268.0 673.9,270.6" fill="#d33" opacity="0.5" stroke="#d33" stroke-width="1"/>
<line x1="618.3" y1="194.7463801024707" x2="731.7" y2="194.7463801024707" stroke="#114" stroke-width="2"/>
<circle cx="675.0" cy="229.18256326418705" r="2.4" fill="#114"/>
<text x="675.0" y="96.60053989461083" text-anchor="middle" font-size="11">1.20</text>
<text x="675.0" y="376" text-anchor="middle" font-size="12">ztrmv</text>
<polygon points="812.3,257.8 812.7,256.0 813.1,254.2 813.7,252.4 814.6,250.6 815.7,248.8 817.1,247.0 819.0,245.2 821.3,243.4 824.2,241.5 827.7,239.7 831.6,237.9 835.9,236.1 840.4,234.3 844.8,232.5 848.9,230.7 852.3,228.9 854.9,227.1 856.6,225.2 857.3,223.4 857.2,221.6 856.5,219.8 855.4,218.0 854.3,216.2 853.5,214.4 853.2,212.6 853.5,210.8 854.4,208.9 855.9,207.1 857.8,205.3 860.1,203.5 862.4,201.7 864.6,199.9 866.5,198.1 867.9,196.3 868.8,194.5 869.1,192.6 868.9,190.8 868.3,189.0 867.4,187.2 866.4,185.4 865.3,183.6 864.3,181.8 863.1,180.0 861.9,178.2 860.5,176.4 858.8,174.5 856.8,172.7 854.4,170.9 851.6,169.1 848.5,167.3 845.2,165.5 841.6,163.7 838.0,161.9 834.4,160.1 830.9,158.2 827.6,156.4 824.7,154.6 822.1,152.8 819.9,151.0 818.0,149.2 816.6,147.4 815.5,145.6 814.7,143.8 814.1,141.9 813.6,140.1 813.2,138.3 812.9,136.5 812.7,134.7 812.5,132.9 812.3,131.1 812.1,129.3 811.2,129.3 811.1,131.1 810.9,132.9 810.6,134.7 810.4,136.5 810.1,138.3 809.7,140.1 809.3,141.9 808.7,143.8 807.8,145.6 806.7,147.4 805.3,149.2 803.5,151.0 801.3,152.8 798.7,154.6 795.7,156.4 792.4,158.2 788.9,160.1 785.3,161.9 781.7,163.7 778.2,165.5 774.8,167.3 771.7,169.1 768.9,170.9 766.6,172.7 764.5,174.5 762.9,176.4 761.4,178.2 760.2,180.0 759.1,181.8 758.0,183.6 756.9,185.4 755.9,187.2 755.0,189.0 754.5,190.8 754.3,192.6 754.6,194.5 755.5,196.3 756.9,198.1 758.7,199.9 760.9,201.7 763.3,203.5 765.5,205.3 767.4,207.1 768.9,208.9 769.9,210.8 770.1,212.6 769.8,214.4 769.0,216.2 767.9,218.0 766.9,219.8 766.1,221.6 766.0,223.4 766.7,225.2 768.4,227.1 771.0,228.9 774.5,230.7 778.5,232.5 782.9,234.3 787.4,236.1 791.7,237.9 795.7,239.7 799.1,241.5 802.0,243.4 804.4,245.2 806.2,247.0 807.7,248.8 808.8,250.6 809.6,252.4 810.2,254.2 810.7,256.0 811.0,257.8" fill="#2a8" opacity="0.5" stroke="#2a8" stroke-width="1"/>
<line x1="755.3" y1="196.05271696474952" x2="868.0" y2="196.05271696474952" stroke="#114" stroke-width="2"/>
<circle cx="811.6666666666666" cy="225.74812885986174" r="2.4" fill="#114"/>
<text x="811.6666666666666" y="135.9279143987235" text-anchor="middle" font-size="11">1.19</text>
<text x="811.6666666666666" y="376" text-anchor="middle" font-size="12">ztrsv</text>
<text x="450.0" y="428" text-anchor="middle" font-size="11" fill="#666">violin = ratio distribution over sizes · line = median · dark dot = worst size · green = every size ≥ gate</text>
</svg>
