<svg xmlns="http://www.w3.org/2000/svg" width="900" height="440" font-family="sans-serif">
<rect width="900" height="440" fill="white"/>
<text x="450.0" y="28" text-anchor="middle" font-size="18" font-weight="bold">BLAS-1: PureBLAS / OpenBLAS (AVX-512 native (Zen5), 1 thread, Float64)</text>
<line x1="60" y1="358.0" x2="880" y2="358.0" stroke="#eee"/>
<text x="52" y="362.0" text-anchor="end" font-size="11" fill="#666">0×</text>
<line x1="60" y1="348.2415682788875" x2="880" y2="348.2415682788875" stroke="#eee"/>
<text x="52" y="352.2415682788875" text-anchor="end" font-size="11" fill="#666">0.5×</text>
<line x1="60" y1="338.4831365577749" x2="880" y2="338.4831365577749" stroke="#eee"/>
<text x="52" y="342.4831365577749" text-anchor="end" font-size="11" fill="#666">1×</text>
<line x1="60" y1="328.7247048366624" x2="880" y2="328.7247048366624" stroke="#eee"/>
<text x="52" y="332.7247048366624" text-anchor="end" font-size="11" fill="#666">1.5×</text>
<line x1="60" y1="338.4831365577749" x2="880" y2="338.4831365577749" stroke="#888" stroke-width="1"/>
<line x1="60" y1="339.26381109546395" x2="880" y2="339.26381109546395" stroke="#d33" stroke-width="1.5" stroke-dasharray="6 4"/>
<text x="880" y="334.26381109546395" text-anchor="end" font-size="11" fill="#d33">0.96× gate</text>
<polygon points="128.5,340.7 128.6,340.6 128.7,340.5 128.9,340.4 129.0,340.3 129.2,340.2 129.3,340.1 129.4,340.0 129.6,340.0 129.8,339.9 130.2,339.8 130.9,339.7 132.0,339.6 133.8,339.5 136.3,339.4 139.7,339.3 144.0,339.2 149.4,339.1 155.5,339.1 162.1,339.0 168.8,338.9 175.0,338.8 180.3,338.7 183.9,338.6 185.7,338.5 185.6,338.4 183.8,338.3 180.9,338.2 177.6,338.2 174.5,338.1 172.1,338.0 170.8,337.9 170.5,337.8 171.0,337.7 171.7,337.6 172.2,337.5 172.0,337.4 170.7,337.3 168.3,337.3 164.9,337.2 160.8,337.1 156.5,337.0 152.2,336.9 148.2,336.8 144.7,336.7 141.8,336.6 139.4,336.5 137.5,336.4 135.9,336.4 134.5,336.3 133.5,336.2 132.7,336.1 132.1,336.0 131.8,335.9 131.7,335.8 131.9,335.7 132.1,335.6 132.5,335.5 132.8,335.5 133.0,335.4 133.0,335.3 132.9,335.2 132.7,335.1 132.3,335.0 131.8,334.9 131.2,334.8 130.7,334.7 130.1,334.6 129.7,334.6 129.3,334.5 128.9,334.4 128.7,334.3 127.9,334.3 127.7,334.4 127.4,334.5 127.0,334.6 126.5,334.6 126.0,334.7 125.4,334.8 124.9,334.9 124.4,335.0 124.0,335.1 123.8,335.2 123.6,335.3 123.7,335.4 123.9,335.5 124.2,335.5 124.5,335.6 124.8,335.7 124.9,335.8 124.9,335.9 124.6,336.0 124.0,336.1 123.2,336.2 122.1,336.3 120.8,336.4 119.2,336.4 117.2,336.5 114.8,336.6 111.9,336.7 108.5,336.8 104.5,336.9 100.2,337.0 95.8,337.1 91.8,337.2 88.4,337.3 86.0,337.3 84.7,337.4 84.5,337.5 84.9,337.6 85.7,337.7 86.2,337.8 85.9,337.9 84.6,338.0 82.2,338.1 79.1,338.2 75.7,338.2 72.8,338.3 71.1,338.4 70.9,338.5 72.7,338.6 76.4,338.7 81.6,338.8 87.9,338.9 94.6,339.0 101.2,339.1 107.3,339.1 112.6,339.2 117.0,339.3 120.4,339.4 122.9,339.5 124.7,339.6 125.8,339.7 126.5,339.8 126.9,339.9 127.1,340.0 127.2,340.0 127.3,340.1 127.5,340.2 127.6,340.3 127.8,340.4 127.9,340.5 128.1,340.6 128.2,340.7" fill="#2a8" opacity="0.5" stroke="#2a8" stroke-width="1"/>
<line x1="81.3" y1="338.0950391977972" x2="175.4" y2="338.0950391977972" stroke="#114" stroke-width="2"/>
<circle cx="128.33333333333331" cy="338.7196554262363" r="2.4" fill="#114"/>
<text x="128.33333333333331" y="328.9349852946575" text-anchor="middle" font-size="11">1.02</text>
<text x="128.33333333333331" y="376" text-anchor="middle" font-size="12">axpy</text>
<polygon points="265.0,342.5 265.0,342.3 265.1,342.2 265.2,342.0 265.3,341.8 265.5,341.7 265.6,341.5 265.7,341.3 265.7,341.2 265.7,341.0 265.9,340.8 266.4,340.7 267.0,340.5 267.9,340.3 268.6,340.2 269.4,340.0 270.2,339.8 271.5,339.7 273.9,339.5 278.0,339.3 284.7,339.2 294.0,339.0 305.0,338.8 315.1,338.7 321.5,338.5 322.4,338.3 317.8,338.2 309.3,338.0 299.5,337.8 290.2,337.6 282.8,337.5 277.3,337.3 273.6,337.1 271.1,337.0 269.6,336.8 268.8,336.6 268.6,336.5 268.5,336.3 268.4,336.1 268.2,336.0 267.8,335.8 267.3,335.6 266.9,335.5 266.5,335.3 266.1,335.1 265.8,335.0 265.7,334.8 265.6,334.6 265.7,334.5 265.7,334.3 265.6,334.1 265.5,334.0 265.3,333.8 265.2,333.6 265.1,333.5 265.0,333.3 265.0,333.1 265.0,333.0 265.0,332.8 265.1,332.6 265.2,332.5 265.3,332.3 265.5,332.1 265.6,332.0 265.6,331.8 265.6,331.6 265.4,331.4 265.3,331.3 265.2,331.1 265.1,330.9 265.0,330.8 265.0,330.6 265.0,330.6 265.0,330.8 264.9,330.9 264.8,331.1 264.7,331.3 264.6,331.4 264.4,331.6 264.4,331.8 264.4,332.0 264.5,332.1 264.7,332.3 264.8,332.5 264.9,332.6 265.0,332.8 265.0,333.0 265.0,333.1 265.0,333.3 264.9,333.5 264.8,333.6 264.7,333.8 264.5,334.0 264.4,334.1 264.3,334.3 264.3,334.5 264.4,334.6 264.3,334.8 264.2,335.0 263.9,335.1 263.5,335.3 263.1,335.5 262.7,335.6 262.2,335.8 261.8,336.0 261.6,336.1 261.5,336.3 261.4,336.5 261.2,336.6 260.4,336.8 258.9,337.0 256.4,337.1 252.7,337.3 247.2,337.5 239.8,337.6 230.5,337.8 220.7,338.0 212.2,338.2 207.6,338.3 208.5,338.5 214.9,338.7 225.0,338.8 236.0,339.0 245.3,339.2 252.0,339.3 256.1,339.5 258.5,339.7 259.8,339.8 260.6,340.0 261.4,340.2 262.1,340.3 263.0,340.5 263.6,340.7 264.1,340.8 264.3,341.0 264.3,341.2 264.3,341.3 264.4,341.5 264.5,341.7 264.7,341.8 264.8,342.0 264.9,342.2 265.0,342.3 265.0,342.5" fill="#2a8" opacity="0.5" stroke="#2a8" stroke-width="1"/>
<line x1="207.2" y1="338.3724285611316" x2="322.8" y2="338.3724285611316" stroke="#114" stroke-width="2"/>
<circle cx="265.0" cy="338.6147803514924" r="2.4" fill="#114"/>
<text x="265.0" y="325.79358258730286" text-anchor="middle" font-size="11">1.01</text>
<text x="265.0" y="376" text-anchor="middle" font-size="12">dot</text>
<polygon points="415.8,265.9 418.4,262.8 421.2,259.8 424.0,256.7 426.8,253.7 429.6,250.7 432.1,247.6 434.3,244.6 436.2,241.5 437.5,238.5 438.3,235.5 438.5,232.4 438.1,229.4 437.2,226.3 435.8,223.3 433.9,220.3 431.7,217.2 429.3,214.2 426.8,211.1 424.3,208.1 421.9,205.1 419.8,202.0 418.0,199.0 416.5,195.9 415.5,192.9 415.0,189.9 415.1,186.8 415.6,183.8 416.7,180.7 418.4,177.7 420.5,174.7 423.1,171.6 426.2,168.6 429.5,165.5 433.0,162.5 436.7,159.5 440.4,156.4 444.0,153.4 447.4,150.3 450.5,147.3 453.2,144.3 455.4,141.2 457.1,138.2 458.2,135.1 458.9,132.1 459.1,129.0 458.8,126.0 458.1,123.0 457.2,119.9 455.9,116.9 454.5,113.8 453.0,110.8 451.4,107.8 449.7,104.7 448.1,101.7 446.4,98.6 444.7,95.6 443.1,92.6 441.4,89.5 439.7,86.5 438.0,83.4 436.2,80.4 434.4,77.4 432.5,74.3 430.5,71.3 428.4,68.2 426.3,65.2 424.1,62.2 421.8,59.1 419.6,56.1 417.5,53.0 415.4,50.0 387.9,50.0 385.8,53.0 383.7,56.1 381.5,59.1 379.3,62.2 377.1,65.2 374.9,68.2 372.9,71.3 370.9,74.3 368.9,77.4 367.1,80.4 365.3,83.4 363.6,86.5 361.9,89.5 360.3,92.6 358.6,95.6 356.9,98.6 355.3,101.7 353.6,104.7 351.9,107.8 350.3,110.8 348.8,113.8 347.4,116.9 346.2,119.9 345.2,123.0 344.5,126.0 344.3,129.0 344.4,132.1 345.1,135.1 346.3,138.2 348.0,141.2 350.2,144.3 352.8,147.3 355.9,150.3 359.3,153.4 362.9,156.4 366.6,159.5 370.3,162.5 373.9,165.5 377.2,168.6 380.2,171.6 382.8,174.7 384.9,177.7 386.6,180.7 387.7,183.8 388.3,186.8 388.3,189.9 387.8,192.9 386.8,195.9 385.4,199.0 383.6,202.0 381.4,205.1 379.0,208.1 376.5,211.1 374.0,214.2 371.6,217.2 369.4,220.3 367.5,223.3 366.1,226.3 365.2,229.4 364.8,232.4 365.0,235.5 365.8,238.5 367.2,241.5 369.0,244.6 371.2,247.6 373.8,250.7 376.5,253.7 379.3,256.7 382.2,259.8 384.9,262.8 387.5,265.9" fill="#2a8" opacity="0.5" stroke="#2a8" stroke-width="1"/>
<line x1="346.3" y1="138.2125507861915" x2="457.1" y2="138.2125507861915" stroke="#114" stroke-width="2"/>
<circle cx="401.66666666666663" cy="235.9092526141197" r="2.4" fill="#114"/>
<text x="401.66666666666663" y="61.433962264150935" text-anchor="middle" font-size="11">11.26</text>
<text x="401.66666666666663" y="376" text-anchor="middle" font-size="12">nrm2</text>
<polygon points="538.5,344.3 538.6,344.1 538.7,343.8 538.8,343.6 538.9,343.4 538.9,343.2 539.0,343.0 539.1,342.8 539.1,342.6 539.2,342.3 539.3,342.1 539.4,341.9 539.8,341.7 540.3,341.5 541.1,341.3 542.5,341.0 544.4,340.8 547.1,340.6 550.8,340.4 555.4,340.2 561.0,340.0 567.3,339.8 574.0,339.5 580.7,339.3 586.7,339.1 591.4,338.9 594.5,338.7 595.7,338.5 595.0,338.2 592.6,338.0 588.9,337.8 584.5,337.6 579.8,337.4 575.1,337.2 570.8,337.0 566.9,336.7 563.3,336.5 560.0,336.3 556.9,336.1 554.0,335.9 551.2,335.7 548.6,335.4 546.3,335.2 544.4,335.0 542.8,334.8 541.7,334.6 540.8,334.4 540.3,334.2 540.0,333.9 540.1,333.7 540.4,333.5 541.0,333.3 541.9,333.1 543.1,332.9 544.4,332.7 545.8,332.4 547.2,332.2 548.4,332.0 549.2,331.8 549.7,331.6 549.7,331.4 549.2,331.1 548.3,330.9 547.1,330.7 545.8,330.5 544.4,330.3 543.1,330.1 541.9,329.9 540.9,329.6 540.2,329.4 539.6,329.2 539.1,329.0 537.5,329.0 537.1,329.2 536.5,329.4 535.7,329.6 534.8,329.9 533.6,330.1 532.3,330.3 530.9,330.5 529.6,330.7 528.4,330.9 527.5,331.1 527.0,331.4 527.0,331.6 527.4,331.8 528.3,332.0 529.5,332.2 530.9,332.4 532.3,332.7 533.6,332.9 534.8,333.1 535.6,333.3 536.3,333.5 536.6,333.7 536.6,333.9 536.4,334.2 535.9,334.4 535.0,334.6 533.8,334.8 532.3,335.0 530.3,335.2 528.1,335.4 525.5,335.7 522.7,335.9 519.8,336.1 516.6,336.3 513.3,336.5 509.8,336.7 505.8,337.0 501.5,337.2 496.9,337.4 492.2,337.6 487.8,337.8 484.1,338.0 481.7,338.2 480.9,338.5 482.1,338.7 485.2,338.9 490.0,339.1 496.0,339.3 502.7,339.5 509.4,339.8 515.7,340.0 521.3,340.2 525.9,340.4 529.5,340.6 532.3,340.8 534.2,341.0 535.5,341.3 536.4,341.5 536.9,341.7 537.2,341.9 537.4,342.1 537.5,342.3 537.6,342.6 537.6,342.8 537.7,343.0 537.7,343.2 537.8,343.4 537.9,343.6 538.0,343.8 538.1,344.1 538.1,344.3" fill="#2a8" opacity="0.5" stroke="#2a8" stroke-width="1"/>
<line x1="481.1" y1="338.3540549784474" x2="595.6" y2="338.3540549784474" stroke="#114" stroke-width="2"/>
<circle cx="538.3333333333333" cy="338.87924044943986" r="2.4" fill="#114"/>
<text x="538.3333333333333" y="324.50135736394225" text-anchor="middle" font-size="11">1.01</text>
<text x="538.3333333333333" y="376" text-anchor="middle" font-size="12">asum</text>
<polygon points="675.3,341.6 675.4,341.4 675.6,341.3 675.8,341.1 676.1,341.0 676.5,340.8 677.0,340.7 677.8,340.5 678.7,340.4 680.0,340.2 681.7,340.0 684.0,339.9 686.8,339.7 690.2,339.6 694.3,339.4 699.0,339.3 704.2,339.1 709.7,338.9 715.3,338.8 720.5,338.6 725.2,338.5 728.9,338.3 731.3,338.2 732.4,338.0 732.0,337.9 730.2,337.7 727.2,337.5 723.3,337.4 718.7,337.2 713.8,337.1 708.9,336.9 704.2,336.8 699.8,336.6 695.8,336.4 692.3,336.3 689.2,336.1 686.5,336.0 684.3,335.8 682.4,335.7 680.9,335.5 679.7,335.4 678.7,335.2 678.0,335.0 677.6,334.9 677.4,334.7 677.3,334.6 677.4,334.4 677.6,334.3 678.0,334.1 678.5,334.0 679.1,333.8 679.8,333.6 680.5,333.5 681.3,333.3 682.1,333.2 682.8,333.0 683.4,332.9 683.9,332.7 684.2,332.5 684.4,332.4 684.3,332.2 684.1,332.1 683.6,331.9 683.0,331.8 682.2,331.6 681.3,331.5 680.4,331.3 679.5,331.1 678.6,331.0 677.9,330.8 677.2,330.7 676.6,330.5 673.4,330.5 672.8,330.7 672.1,330.8 671.4,331.0 670.5,331.1 669.6,331.3 668.7,331.5 667.8,331.6 667.0,331.8 666.4,331.9 665.9,332.1 665.7,332.2 665.6,332.4 665.8,332.5 666.1,332.7 666.6,332.9 667.2,333.0 667.9,333.2 668.7,333.3 669.5,333.5 670.2,333.6 670.9,333.8 671.5,334.0 672.0,334.1 672.4,334.3 672.6,334.4 672.7,334.6 672.6,334.7 672.4,334.9 672.0,335.0 671.3,335.2 670.3,335.4 669.1,335.5 667.6,335.7 665.7,335.8 663.5,336.0 660.8,336.1 657.7,336.3 654.2,336.4 650.2,336.6 645.8,336.8 641.1,336.9 636.2,337.1 631.3,337.2 626.7,337.4 622.8,337.5 619.8,337.7 618.0,337.9 617.6,338.0 618.7,338.2 621.1,338.3 624.8,338.5 629.5,338.6 634.7,338.8 640.3,338.9 645.8,339.1 651.0,339.3 655.7,339.4 659.8,339.6 663.2,339.7 666.0,339.9 668.3,340.0 670.0,340.2 671.3,340.4 672.2,340.5 673.0,340.7 673.5,340.8 673.9,341.0 674.2,341.1 674.4,341.3 674.6,341.4 674.7,341.6" fill="#2a8" opacity="0.5" stroke="#2a8" stroke-width="1"/>
<line x1="617.9" y1="337.86721866061265" x2="732.1" y2="337.86721866061265" stroke="#114" stroke-width="2"/>
<circle cx="675.0" cy="338.5302394258122" r="2.4" fill="#114"/>
<text x="675.0" y="325.6187104547842" text-anchor="middle" font-size="11">1.03</text>
<text x="675.0" y="376" text-anchor="middle" font-size="12">scal</text>
<polygon points="814.1,346.4 814.9,345.9 815.9,345.4 817.1,344.8 818.4,344.3 819.8,343.7 821.2,343.2 822.8,342.6 824.4,342.1 826.0,341.5 827.5,341.0 829.1,340.4 830.8,339.9 832.5,339.3 834.2,338.8 836.0,338.2 838.0,337.7 840.0,337.1 842.1,336.6 844.2,336.0 846.4,335.5 848.5,334.9 850.6,334.4 852.7,333.8 854.6,333.3 856.5,332.7 858.2,332.2 859.8,331.7 861.3,331.1 862.8,330.6 864.1,330.0 865.3,329.5 866.4,328.9 867.4,328.4 868.2,327.8 868.8,327.3 869.1,326.7 869.1,326.2 868.8,325.6 868.3,325.1 867.5,324.5 866.6,324.0 865.7,323.4 864.7,322.9 863.9,322.3 863.0,321.8 862.2,321.2 861.4,320.7 860.4,320.1 859.3,319.6 858.0,319.0 856.4,318.5 854.5,318.0 852.4,317.4 850.0,316.9 847.4,316.3 844.7,315.8 841.9,315.2 839.0,314.7 836.2,314.1 833.4,313.6 830.6,313.0 828.0,312.5 825.5,311.9 823.2,311.4 821.1,310.8 819.3,310.3 817.7,309.7 816.3,309.2 815.1,308.6 814.2,308.1 813.5,307.5 809.8,307.5 809.1,308.1 808.2,308.6 807.0,309.2 805.7,309.7 804.1,310.3 802.2,310.8 800.1,311.4 797.8,311.9 795.3,312.5 792.7,313.0 790.0,313.6 787.2,314.1 784.3,314.7 781.5,315.2 778.7,315.8 775.9,316.3 773.4,316.9 771.0,317.4 768.8,318.0 767.0,318.5 765.4,319.0 764.0,319.6 762.9,320.1 762.0,320.7 761.1,321.2 760.3,321.8 759.5,322.3 758.6,322.9 757.6,323.4 756.7,324.0 755.8,324.5 755.1,325.1 754.5,325.6 754.3,326.2 754.3,326.7 754.6,327.3 755.1,327.8 755.9,328.4 756.9,328.9 758.0,329.5 759.2,330.0 760.6,330.6 762.0,331.1 763.5,331.7 765.1,332.2 766.9,332.7 768.7,333.3 770.7,333.8 772.7,334.4 774.8,334.9 777.0,335.5 779.1,336.0 781.3,336.6 783.4,337.1 785.4,337.7 787.3,338.2 789.1,338.8 790.9,339.3 792.6,339.9 794.2,340.4 795.8,341.0 797.4,341.5 799.0,342.1 800.5,342.6 802.1,343.2 803.6,343.7 805.0,344.3 806.3,344.8 807.4,345.4 808.4,345.9 809.2,346.4" fill="#2a8" opacity="0.5" stroke="#2a8" stroke-width="1"/>
<line x1="754.4" y1="325.84856424743344" x2="868.9" y2="325.84856424743344" stroke="#114" stroke-width="2"/>
<circle cx="811.6666666666666" cy="329.95541846479756" r="2.4" fill="#114"/>
<text x="811.6666666666666" y="305.3389050253902" text-anchor="middle" font-size="11">1.65</text>
<text x="811.6666666666666" y="376" text-anchor="middle" font-size="12">iamax</text>
<text x="450.0" y="428" text-anchor="middle" font-size="11" fill="#666">violin = ratio distribution over sizes · line = median · dark dot = worst size · green = every size ≥ gate</text>
</svg>
