<svg xmlns="http://www.w3.org/2000/svg" width="900" height="460" font-family="sans-serif">
<rect width="900" height="460" fill="white"/>
<text x="450.0" y="28" text-anchor="middle" font-size="18" font-weight="bold">BLAS-3: PureBLAS / OpenBLAS (AVX-512, 1 thread, Float64)</text>
<line x1="62" y1="400.0" x2="768" y2="400.0" stroke="#eee"/>
<text x="54" y="404.0" text-anchor="end" font-size="11" fill="#666">0.5×</text>
<line x1="62" y1="325.01298487043243" x2="768" y2="325.01298487043243" stroke="#eee"/>
<text x="54" y="329.01298487043243" text-anchor="end" font-size="11" fill="#666">0.7×</text>
<line x1="62" y1="245.52354560480595" x2="768" y2="245.52354560480595" stroke="#eee"/>
<text x="54" y="249.52354560480595" text-anchor="end" font-size="11" fill="#666">1.0×</text>
<line x1="62" y1="155.16061253925557" x2="768" y2="155.16061253925557" stroke="#eee"/>
<text x="54" y="159.16061253925557" text-anchor="end" font-size="11" fill="#666">1.5×</text>
<line x1="62" y1="91.04709120961186" x2="768" y2="91.04709120961186" stroke="#eee"/>
<text x="54" y="95.04709120961186" text-anchor="end" font-size="11" fill="#666">2.0×</text>
<line x1="62.0" y1="50" x2="62.0" y2="400" stroke="#f4f4f4"/>
<text x="62.0" y="418" text-anchor="middle" font-size="11" fill="#444">8</text>
<line x1="238.5" y1="50" x2="238.5" y2="400" stroke="#f4f4f4"/>
<text x="238.5" y="418" text-anchor="middle" font-size="11" fill="#444">32</text>
<line x1="415.0" y1="50" x2="415.0" y2="400" stroke="#f4f4f4"/>
<text x="415.0" y="418" text-anchor="middle" font-size="11" fill="#444">128</text>
<line x1="503.25" y1="50" x2="503.25" y2="400" stroke="#f4f4f4"/>
<text x="503.25" y="418" text-anchor="middle" font-size="11" fill="#444">256</text>
<line x1="591.5" y1="50" x2="591.5" y2="400" stroke="#f4f4f4"/>
<text x="591.5" y="418" text-anchor="middle" font-size="11" fill="#444">512</text>
<line x1="679.75" y1="50" x2="679.75" y2="400" stroke="#f4f4f4"/>
<text x="679.75" y="418" text-anchor="middle" font-size="11" fill="#444">1024</text>
<line x1="768.0" y1="50" x2="768.0" y2="400" stroke="#f4f4f4"/>
<text x="768.0" y="418" text-anchor="middle" font-size="11" fill="#444">2048</text>
<line x1="62" y1="245.52354560480595" x2="768" y2="245.52354560480595" stroke="#888"/>
<line x1="62" y1="254.62123387605425" x2="768" y2="254.62123387605425" stroke="#d33" stroke-width="1.5" stroke-dasharray="6 4"/>
<text x="66" y="249.62123387605425" font-size="11" fill="#d33">0.96× gate</text>
<polygon points="62.0,208.9 238.5,281.6 415.0,198.4 503.2,227.1 591.5,225.3 679.8,237.6 768.0,248.4 768.0,251.1 679.8,244.5 591.5,249.5 503.2,238.1 415.0,212.1 238.5,296.4 62.0,234.5" fill="#1f77b4" opacity="0.14" stroke="none"/>
<polyline points="62.0,232.0 238.5,287.8 415.0,205.3 503.2,235.5 591.5,242.5 679.8,242.1 768.0,248.9" fill="none" stroke="#1f77b4" stroke-width="2"/>
<circle cx="62.0" cy="232.0" r="3" fill="#1f77b4"/>
<circle cx="238.5" cy="287.8" r="3" fill="#1f77b4"/>
<circle cx="415.0" cy="205.3" r="3" fill="#1f77b4"/>
<circle cx="503.2" cy="235.5" r="3" fill="#1f77b4"/>
<circle cx="591.5" cy="242.5" r="3" fill="#1f77b4"/>
<circle cx="679.8" cy="242.1" r="3" fill="#1f77b4"/>
<circle cx="768.0" cy="248.9" r="3" fill="#1f77b4"/>
<line x1="782" y1="56" x2="802" y2="56" stroke="#1f77b4" stroke-width="3"/>
<text x="806" y="60" font-size="12">gemm</text>
<polygon points="62.0,129.9 238.5,175.7 415.0,198.5 503.2,200.5 591.5,215.6 679.8,218.7 768.0,222.0 768.0,225.3 679.8,223.2 591.5,219.8 503.2,216.1 415.0,217.4 238.5,182.4 62.0,141.6" fill="#d62728" opacity="0.14" stroke="none"/>
<polyline points="62.0,138.5 238.5,177.3 415.0,212.9 503.2,209.9 591.5,216.4 679.8,221.5 768.0,224.0" fill="none" stroke="#d62728" stroke-width="2"/>
<circle cx="62.0" cy="138.5" r="3" fill="#d62728"/>
<circle cx="238.5" cy="177.3" r="3" fill="#d62728"/>
<circle cx="415.0" cy="212.9" r="3" fill="#d62728"/>
<circle cx="503.2" cy="209.9" r="3" fill="#d62728"/>
<circle cx="591.5" cy="216.4" r="3" fill="#d62728"/>
<circle cx="679.8" cy="221.5" r="3" fill="#d62728"/>
<circle cx="768.0" cy="224.0" r="3" fill="#d62728"/>
<line x1="782" y1="74" x2="802" y2="74" stroke="#d62728" stroke-width="3"/>
<text x="806" y="78" font-size="12">zgemm</text>
<polygon points="62.0,202.2 238.5,188.5 415.0,204.6 503.2,255.0 591.5,231.1 679.8,238.1 768.0,244.2 768.0,249.9 679.8,246.8 591.5,251.3 503.2,265.1 415.0,211.5 238.5,212.1 62.0,205.9" fill="#2ca02c" opacity="0.14" stroke="none"/>
<polyline points="62.0,203.8 238.5,206.4 415.0,207.7 503.2,261.6 591.5,246.9 679.8,242.5 768.0,245.8" fill="none" stroke="#2ca02c" stroke-width="2"/>
<circle cx="62.0" cy="203.8" r="3" fill="#2ca02c"/>
<circle cx="238.5" cy="206.4" r="3" fill="#2ca02c"/>
<circle cx="415.0" cy="207.7" r="3" fill="#2ca02c"/>
<circle cx="503.2" cy="261.6" r="3" fill="#2ca02c"/>
<circle cx="591.5" cy="246.9" r="3" fill="#2ca02c"/>
<circle cx="679.8" cy="242.5" r="3" fill="#2ca02c"/>
<circle cx="768.0" cy="245.8" r="3" fill="#2ca02c"/>
<line x1="782" y1="92" x2="802" y2="92" stroke="#2ca02c" stroke-width="3"/>
<text x="806" y="96" font-size="12">symm</text>
<polygon points="62.0,160.2 238.5,185.3 415.0,201.3 503.2,229.9 591.5,220.8 679.8,234.4 768.0,248.8 768.0,253.2 679.8,241.1 591.5,225.3 503.2,245.9 415.0,216.3 238.5,199.0 62.0,183.8" fill="#9467bd" opacity="0.14" stroke="none"/>
<polyline points="62.0,169.2 238.5,191.7 415.0,205.0 503.2,234.0 591.5,222.6 679.8,235.1 768.0,250.5" fill="none" stroke="#9467bd" stroke-width="2"/>
<circle cx="62.0" cy="169.2" r="3" fill="#9467bd"/>
<circle cx="238.5" cy="191.7" r="3" fill="#9467bd"/>
<circle cx="415.0" cy="205.0" r="3" fill="#9467bd"/>
<circle cx="503.2" cy="234.0" r="3" fill="#9467bd"/>
<circle cx="591.5" cy="222.6" r="3" fill="#9467bd"/>
<circle cx="679.8" cy="235.1" r="3" fill="#9467bd"/>
<circle cx="768.0" cy="250.5" r="3" fill="#9467bd"/>
<line x1="782" y1="110" x2="802" y2="110" stroke="#9467bd" stroke-width="3"/>
<text x="806" y="114" font-size="12">syrk</text>
<polygon points="62.0,156.5 238.5,192.5 415.0,184.6 503.2,225.1 591.5,221.7 679.8,239.8 768.0,252.3 768.0,255.7 679.8,249.3 591.5,243.8 503.2,230.4 415.0,200.2 238.5,222.5 62.0,166.4" fill="#ff7f0e" opacity="0.14" stroke="none"/>
<polyline points="62.0,157.0 238.5,199.9 415.0,192.4 503.2,227.8 591.5,238.5 679.8,247.4 768.0,254.4" fill="none" stroke="#ff7f0e" stroke-width="2"/>
<circle cx="62.0" cy="157.0" r="3" fill="#ff7f0e"/>
<circle cx="238.5" cy="199.9" r="3" fill="#ff7f0e"/>
<circle cx="415.0" cy="192.4" r="3" fill="#ff7f0e"/>
<circle cx="503.2" cy="227.8" r="3" fill="#ff7f0e"/>
<circle cx="591.5" cy="238.5" r="3" fill="#ff7f0e"/>
<circle cx="679.8" cy="247.4" r="3" fill="#ff7f0e"/>
<circle cx="768.0" cy="254.4" r="3" fill="#ff7f0e"/>
<line x1="782" y1="128" x2="802" y2="128" stroke="#ff7f0e" stroke-width="3"/>
<text x="806" y="132" font-size="12">syr2k</text>
<polygon points="62.0,203.8 238.5,212.4 415.0,192.6 503.2,228.3 591.5,242.7 679.8,244.4 768.0,245.7 768.0,251.8 679.8,253.5 591.5,297.9 503.2,236.8 415.0,214.5 238.5,236.4 62.0,244.0" fill="#17becf" opacity="0.14" stroke="none"/>
<polyline points="62.0,209.0 238.5,227.0 415.0,199.9 503.2,232.4 591.5,264.9 679.8,246.6 768.0,249.6" fill="none" stroke="#17becf" stroke-width="2"/>
<circle cx="62.0" cy="209.0" r="3" fill="#17becf"/>
<circle cx="238.5" cy="227.0" r="3" fill="#17becf"/>
<circle cx="415.0" cy="199.9" r="3" fill="#17becf"/>
<circle cx="503.2" cy="232.4" r="3" fill="#17becf"/>
<circle cx="591.5" cy="264.9" r="3" fill="#17becf"/>
<circle cx="679.8" cy="246.6" r="3" fill="#17becf"/>
<circle cx="768.0" cy="249.6" r="3" fill="#17becf"/>
<line x1="782" y1="146" x2="802" y2="146" stroke="#17becf" stroke-width="3"/>
<text x="806" y="150" font-size="12">trmm</text>
<polygon points="62.0,150.5 238.5,96.6 415.0,76.8 503.2,85.2 591.5,161.8 679.8,190.1 768.0,234.5 768.0,242.4 679.8,203.0 591.5,175.8 503.2,100.6 415.0,110.8 238.5,105.7 62.0,162.9" fill="#8c564b" opacity="0.14" stroke="none"/>
<polyline points="62.0,159.7 238.5,101.1 415.0,81.1 503.2,97.0 591.5,173.3 679.8,199.2 768.0,238.4" fill="none" stroke="#8c564b" stroke-width="2"/>
<circle cx="62.0" cy="159.7" r="3" fill="#8c564b"/>
<circle cx="238.5" cy="101.1" r="3" fill="#8c564b"/>
<circle cx="415.0" cy="81.1" r="3" fill="#8c564b"/>
<circle cx="503.2" cy="97.0" r="3" fill="#8c564b"/>
<circle cx="591.5" cy="173.3" r="3" fill="#8c564b"/>
<circle cx="679.8" cy="199.2" r="3" fill="#8c564b"/>
<circle cx="768.0" cy="238.4" r="3" fill="#8c564b"/>
<line x1="782" y1="164" x2="802" y2="164" stroke="#8c564b" stroke-width="3"/>
<text x="806" y="168" font-size="12">trsm</text>
<text x="415.0" y="450" text-anchor="middle" font-size="11" fill="#666">matrix size n (log) · y = median ratio (log) · dashed = the 0.96× gate</text>
</svg>
