<svg xmlns="http://www.w3.org/2000/svg" width="900" height="460" font-family="sans-serif">
<rect width="900" height="460" fill="white"/>
<text x="450.0" y="28" text-anchor="middle" font-size="18" font-weight="bold">BLAS-3: PureBLAS / OpenBLAS (AVX-512, 1 thread, Float64)</text>
<line x1="62" y1="400.0" x2="768" y2="400.0" stroke="#eee"/>
<text x="54" y="404.0" text-anchor="end" font-size="11" fill="#666">0.5×</text>
<line x1="62" y1="326.0882701196245" x2="768" y2="326.0882701196245" stroke="#eee"/>
<text x="54" y="330.0882701196245" text-anchor="end" font-size="11" fill="#666">0.7×</text>
<line x1="62" y1="247.73867915121568" x2="768" y2="247.73867915121568" stroke="#eee"/>
<text x="54" y="251.73867915121568" text-anchor="end" font-size="11" fill="#666">1.0×</text>
<line x1="62" y1="158.67151614440456" x2="768" y2="158.67151614440456" stroke="#eee"/>
<text x="54" y="162.67151614440456" text-anchor="end" font-size="11" fill="#666">1.5×</text>
<line x1="62" y1="95.47735830243141" x2="768" y2="95.47735830243141" stroke="#eee"/>
<text x="54" y="99.47735830243141" text-anchor="end" font-size="11" fill="#666">2.0×</text>
<line x1="62.0" y1="50" x2="62.0" y2="400" stroke="#f4f4f4"/>
<text x="62.0" y="418" text-anchor="middle" font-size="11" fill="#444">8</text>
<line x1="238.5" y1="50" x2="238.5" y2="400" stroke="#f4f4f4"/>
<text x="238.5" y="418" text-anchor="middle" font-size="11" fill="#444">32</text>
<line x1="415.0" y1="50" x2="415.0" y2="400" stroke="#f4f4f4"/>
<text x="415.0" y="418" text-anchor="middle" font-size="11" fill="#444">128</text>
<line x1="503.25" y1="50" x2="503.25" y2="400" stroke="#f4f4f4"/>
<text x="503.25" y="418" text-anchor="middle" font-size="11" fill="#444">256</text>
<line x1="591.5" y1="50" x2="591.5" y2="400" stroke="#f4f4f4"/>
<text x="591.5" y="418" text-anchor="middle" font-size="11" fill="#444">512</text>
<line x1="679.75" y1="50" x2="679.75" y2="400" stroke="#f4f4f4"/>
<text x="679.75" y="418" text-anchor="middle" font-size="11" fill="#444">1024</text>
<line x1="768.0" y1="50" x2="768.0" y2="400" stroke="#f4f4f4"/>
<text x="768.0" y="418" text-anchor="middle" font-size="11" fill="#444">2048</text>
<line x1="62" y1="247.73867915121568" x2="768" y2="247.73867915121568" stroke="#888"/>
<line x1="62" y1="256.70591003616966" x2="768" y2="256.70591003616966" stroke="#d33" stroke-width="1.5" stroke-dasharray="6 4"/>
<text x="66" y="251.70591003616966" font-size="11" fill="#d33">0.96× gate</text>
<polygon points="62.0,221.6 238.5,286.5 415.0,189.2 503.2,239.5 591.5,220.1 679.8,233.2 768.0,220.3 768.0,222.8 679.8,238.6 591.5,251.1 503.2,271.8 415.0,212.1 238.5,295.1 62.0,239.1" fill="#1f77b4" opacity="0.14" stroke="none"/>
<polyline points="62.0,234.5 238.5,290.5 415.0,195.6 503.2,250.9 591.5,243.9 679.8,236.8 768.0,221.7" fill="none" stroke="#1f77b4" stroke-width="2"/>
<circle cx="62.0" cy="234.5" r="3" fill="#1f77b4"/>
<circle cx="238.5" cy="290.5" r="3" fill="#1f77b4"/>
<circle cx="415.0" cy="195.6" r="3" fill="#1f77b4"/>
<circle cx="503.2" cy="250.9" r="3" fill="#1f77b4"/>
<circle cx="591.5" cy="243.9" r="3" fill="#1f77b4"/>
<circle cx="679.8" cy="236.8" r="3" fill="#1f77b4"/>
<circle cx="768.0" cy="221.7" r="3" fill="#1f77b4"/>
<line x1="782" y1="56" x2="802" y2="56" stroke="#1f77b4" stroke-width="3"/>
<text x="806" y="60" font-size="12">gemm</text>
<polygon points="62.0,145.2 238.5,157.7 415.0,201.6 503.2,210.5 591.5,220.9 679.8,217.1 768.0,221.4 768.0,224.1 679.8,223.9 591.5,224.0 503.2,219.9 415.0,214.6 238.5,169.7 62.0,170.7" fill="#d62728" opacity="0.14" stroke="none"/>
<polyline points="62.0,160.5 238.5,162.5 415.0,209.7 503.2,215.8 591.5,222.6 679.8,220.9 768.0,223.2" fill="none" stroke="#d62728" stroke-width="2"/>
<circle cx="62.0" cy="160.5" r="3" fill="#d62728"/>
<circle cx="238.5" cy="162.5" r="3" fill="#d62728"/>
<circle cx="415.0" cy="209.7" r="3" fill="#d62728"/>
<circle cx="503.2" cy="215.8" r="3" fill="#d62728"/>
<circle cx="591.5" cy="222.6" r="3" fill="#d62728"/>
<circle cx="679.8" cy="220.9" r="3" fill="#d62728"/>
<circle cx="768.0" cy="223.2" r="3" fill="#d62728"/>
<line x1="782" y1="74" x2="802" y2="74" stroke="#d62728" stroke-width="3"/>
<text x="806" y="78" font-size="12">zgemm</text>
<polygon points="62.0,161.5 238.5,203.9 415.0,213.5 503.2,249.8 591.5,230.6 679.8,239.6 768.0,245.2 768.0,249.2 679.8,247.1 591.5,244.3 503.2,263.4 415.0,220.5 238.5,219.6 62.0,195.5" fill="#2ca02c" opacity="0.14" stroke="none"/>
<polyline points="62.0,191.5 238.5,212.0 415.0,215.4 503.2,253.8 591.5,238.4 679.8,244.7 768.0,247.3" fill="none" stroke="#2ca02c" stroke-width="2"/>
<circle cx="62.0" cy="191.5" r="3" fill="#2ca02c"/>
<circle cx="238.5" cy="212.0" r="3" fill="#2ca02c"/>
<circle cx="415.0" cy="215.4" r="3" fill="#2ca02c"/>
<circle cx="503.2" cy="253.8" r="3" fill="#2ca02c"/>
<circle cx="591.5" cy="238.4" r="3" fill="#2ca02c"/>
<circle cx="679.8" cy="244.7" r="3" fill="#2ca02c"/>
<circle cx="768.0" cy="247.3" r="3" fill="#2ca02c"/>
<line x1="782" y1="92" x2="802" y2="92" stroke="#2ca02c" stroke-width="3"/>
<text x="806" y="96" font-size="12">symm</text>
<polygon points="62.0,148.7 238.5,196.8 415.0,213.3 503.2,230.3 591.5,216.5 679.8,232.7 768.0,249.0 768.0,253.0 679.8,240.5 591.5,237.7 503.2,251.8 415.0,230.7 238.5,219.3 62.0,186.1" fill="#9467bd" opacity="0.14" stroke="none"/>
<polyline points="62.0,169.6 238.5,208.7 415.0,224.0 503.2,244.8 591.5,229.8 679.8,236.9 768.0,250.8" fill="none" stroke="#9467bd" stroke-width="2"/>
<circle cx="62.0" cy="169.6" r="3" fill="#9467bd"/>
<circle cx="238.5" cy="208.7" r="3" fill="#9467bd"/>
<circle cx="415.0" cy="224.0" r="3" fill="#9467bd"/>
<circle cx="503.2" cy="244.8" r="3" fill="#9467bd"/>
<circle cx="591.5" cy="229.8" r="3" fill="#9467bd"/>
<circle cx="679.8" cy="236.9" r="3" fill="#9467bd"/>
<circle cx="768.0" cy="250.8" r="3" fill="#9467bd"/>
<line x1="782" y1="110" x2="802" y2="110" stroke="#9467bd" stroke-width="3"/>
<text x="806" y="114" font-size="12">syrk</text>
<polygon points="62.0,159.5 238.5,188.0 415.0,186.2 503.2,230.8 591.5,226.2 679.8,243.5 768.0,253.5 768.0,256.2 679.8,255.6 591.5,240.9 503.2,238.6 415.0,194.9 238.5,199.4 62.0,166.5" fill="#ff7f0e" opacity="0.14" stroke="none"/>
<polyline points="62.0,162.4 238.5,193.7 415.0,192.4 503.2,234.2 591.5,228.9 679.8,251.8 768.0,254.9" fill="none" stroke="#ff7f0e" stroke-width="2"/>
<circle cx="62.0" cy="162.4" r="3" fill="#ff7f0e"/>
<circle cx="238.5" cy="193.7" r="3" fill="#ff7f0e"/>
<circle cx="415.0" cy="192.4" r="3" fill="#ff7f0e"/>
<circle cx="503.2" cy="234.2" r="3" fill="#ff7f0e"/>
<circle cx="591.5" cy="228.9" r="3" fill="#ff7f0e"/>
<circle cx="679.8" cy="251.8" r="3" fill="#ff7f0e"/>
<circle cx="768.0" cy="254.9" r="3" fill="#ff7f0e"/>
<line x1="782" y1="128" x2="802" y2="128" stroke="#ff7f0e" stroke-width="3"/>
<text x="806" y="132" font-size="12">syr2k</text>
<polygon points="62.0,203.6 238.5,215.4 415.0,191.1 503.2,230.1 591.5,229.7 679.8,241.3 768.0,251.3 768.0,254.0 679.8,253.5 591.5,238.3 503.2,248.6 415.0,201.8 238.5,236.1 62.0,209.3" fill="#17becf" opacity="0.14" stroke="none"/>
<polyline points="62.0,208.6 238.5,224.2 415.0,195.1 503.2,235.6 591.5,235.3 679.8,245.5 768.0,253.1" fill="none" stroke="#17becf" stroke-width="2"/>
<circle cx="62.0" cy="208.6" r="3" fill="#17becf"/>
<circle cx="238.5" cy="224.2" r="3" fill="#17becf"/>
<circle cx="415.0" cy="195.1" r="3" fill="#17becf"/>
<circle cx="503.2" cy="235.6" r="3" fill="#17becf"/>
<circle cx="591.5" cy="235.3" r="3" fill="#17becf"/>
<circle cx="679.8" cy="245.5" r="3" fill="#17becf"/>
<circle cx="768.0" cy="253.1" r="3" fill="#17becf"/>
<line x1="782" y1="146" x2="802" y2="146" stroke="#17becf" stroke-width="3"/>
<text x="806" y="150" font-size="12">trmm</text>
<polygon points="62.0,154.8 238.5,75.2 415.0,73.5 503.2,94.3 591.5,171.6 679.8,193.9 768.0,232.2 768.0,239.2 679.8,207.4 591.5,204.1 503.2,117.5 415.0,97.6 238.5,116.4 62.0,171.9" fill="#8c564b" opacity="0.14" stroke="none"/>
<polyline points="62.0,160.5 238.5,90.0 415.0,80.7 503.2,103.7 591.5,180.0 679.8,203.1 768.0,238.4" fill="none" stroke="#8c564b" stroke-width="2"/>
<circle cx="62.0" cy="160.5" r="3" fill="#8c564b"/>
<circle cx="238.5" cy="90.0" r="3" fill="#8c564b"/>
<circle cx="415.0" cy="80.7" r="3" fill="#8c564b"/>
<circle cx="503.2" cy="103.7" r="3" fill="#8c564b"/>
<circle cx="591.5" cy="180.0" r="3" fill="#8c564b"/>
<circle cx="679.8" cy="203.1" r="3" fill="#8c564b"/>
<circle cx="768.0" cy="238.4" r="3" fill="#8c564b"/>
<line x1="782" y1="164" x2="802" y2="164" stroke="#8c564b" stroke-width="3"/>
<text x="806" y="168" font-size="12">trsm</text>
<text x="415.0" y="450" text-anchor="middle" font-size="11" fill="#666">matrix size n (log) · y = median ratio (log) · dashed = the 0.96× gate</text>
</svg>
