<svg xmlns="http://www.w3.org/2000/svg" width="900" height="460" font-family="sans-serif">
<rect width="900" height="460" fill="white"/>
<text x="450.0" y="28" text-anchor="middle" font-size="18" font-weight="bold">Complex BLAS-3: PureBLAS / OpenBLAS (AVX2, 1 thread, ComplexF64)</text>
<line x1="62" y1="400.0" x2="768" y2="400.0" stroke="#eee"/>
<text x="54" y="404.0" text-anchor="end" font-size="11" fill="#666">0.5×</text>
<line x1="62" y1="303.7688780356323" x2="768" y2="303.7688780356323" stroke="#eee"/>
<text x="54" y="307.7688780356323" text-anchor="end" font-size="11" fill="#666">0.7×</text>
<line x1="62" y1="201.75977803835113" x2="768" y2="201.75977803835113" stroke="#eee"/>
<text x="54" y="205.75977803835113" text-anchor="end" font-size="11" fill="#666">1.0×</text>
<line x1="62" y1="85.79668205614797" x2="768" y2="85.79668205614797" stroke="#eee"/>
<text x="54" y="89.79668205614797" text-anchor="end" font-size="11" fill="#666">1.5×</text>
<line x1="62.0" y1="50" x2="62.0" y2="400" stroke="#f4f4f4"/>
<text x="62.0" y="418" text-anchor="middle" font-size="11" fill="#444">8</text>
<line x1="238.5" y1="50" x2="238.5" y2="400" stroke="#f4f4f4"/>
<text x="238.5" y="418" text-anchor="middle" font-size="11" fill="#444">32</text>
<line x1="415.0" y1="50" x2="415.0" y2="400" stroke="#f4f4f4"/>
<text x="415.0" y="418" text-anchor="middle" font-size="11" fill="#444">128</text>
<line x1="503.25" y1="50" x2="503.25" y2="400" stroke="#f4f4f4"/>
<text x="503.25" y="418" text-anchor="middle" font-size="11" fill="#444">256</text>
<line x1="591.5" y1="50" x2="591.5" y2="400" stroke="#f4f4f4"/>
<text x="591.5" y="418" text-anchor="middle" font-size="11" fill="#444">512</text>
<line x1="679.75" y1="50" x2="679.75" y2="400" stroke="#f4f4f4"/>
<text x="679.75" y="418" text-anchor="middle" font-size="11" fill="#444">1024</text>
<line x1="768.0" y1="50" x2="768.0" y2="400" stroke="#f4f4f4"/>
<text x="768.0" y="418" text-anchor="middle" font-size="11" fill="#444">2048</text>
<line x1="62" y1="201.75977803835113" x2="768" y2="201.75977803835113" stroke="#888"/>
<line x1="62" y1="213.4348760284709" x2="768" y2="213.4348760284709" stroke="#d33" stroke-width="1.5" stroke-dasharray="6 4"/>
<text x="66" y="208.4348760284709" font-size="11" fill="#d33">0.96× gate</text>
<polygon points="62.0,148.4 238.5,207.1 415.0,201.6 503.2,203.6 591.5,206.3 679.8,203.7 768.0,203.5 768.0,206.8 679.8,211.4 591.5,209.0 503.2,205.1 415.0,203.9 238.5,218.2 62.0,214.7" fill="#1f77b4" opacity="0.14" stroke="none"/>
<polyline points="62.0,149.1 238.5,213.7 415.0,202.5 503.2,204.5 591.5,206.8 679.8,206.7 768.0,205.1" fill="none" stroke="#1f77b4" stroke-width="2"/>
<circle cx="62.0" cy="149.1" r="3" fill="#1f77b4"/>
<circle cx="238.5" cy="213.7" r="3" fill="#1f77b4"/>
<circle cx="415.0" cy="202.5" r="3" fill="#1f77b4"/>
<circle cx="503.2" cy="204.5" r="3" fill="#1f77b4"/>
<circle cx="591.5" cy="206.8" r="3" fill="#1f77b4"/>
<circle cx="679.8" cy="206.7" r="3" fill="#1f77b4"/>
<circle cx="768.0" cy="205.1" r="3" fill="#1f77b4"/>
<line x1="782" y1="56" x2="802" y2="56" stroke="#1f77b4" stroke-width="3"/>
<text x="806" y="60" font-size="12">zgemm</text>
<polygon points="62.0,344.4 238.5,223.3 415.0,218.9 503.2,215.8 591.5,220.7 679.8,209.6 768.0,207.3 768.0,210.1 679.8,211.7 591.5,222.5 503.2,217.0 415.0,224.7 238.5,236.8 62.0,356.9" fill="#d62728" opacity="0.14" stroke="none"/>
<polyline points="62.0,347.6 238.5,228.9 415.0,221.5 503.2,216.2 591.5,221.4 679.8,210.3 768.0,209.0" fill="none" stroke="#d62728" stroke-width="2"/>
<circle cx="62.0" cy="347.6" r="3" fill="#d62728"/>
<circle cx="238.5" cy="228.9" r="3" fill="#d62728"/>
<circle cx="415.0" cy="221.5" r="3" fill="#d62728"/>
<circle cx="503.2" cy="216.2" r="3" fill="#d62728"/>
<circle cx="591.5" cy="221.4" r="3" fill="#d62728"/>
<circle cx="679.8" cy="210.3" r="3" fill="#d62728"/>
<circle cx="768.0" cy="209.0" r="3" fill="#d62728"/>
<line x1="782" y1="74" x2="802" y2="74" stroke="#d62728" stroke-width="3"/>
<text x="806" y="78" font-size="12">zhemm</text>
<polygon points="62.0,218.9 238.5,163.5 415.0,188.4 503.2,200.4 591.5,218.7 679.8,220.3 768.0,217.2 768.0,222.5 679.8,222.2 591.5,220.4 503.2,201.8 415.0,195.7 238.5,172.6 62.0,220.7" fill="#2ca02c" opacity="0.14" stroke="none"/>
<polyline points="62.0,219.5 238.5,170.0 415.0,192.1 503.2,201.0 591.5,218.9 679.8,220.7 768.0,219.2" fill="none" stroke="#2ca02c" stroke-width="2"/>
<circle cx="62.0" cy="219.5" r="3" fill="#2ca02c"/>
<circle cx="238.5" cy="170.0" r="3" fill="#2ca02c"/>
<circle cx="415.0" cy="192.1" r="3" fill="#2ca02c"/>
<circle cx="503.2" cy="201.0" r="3" fill="#2ca02c"/>
<circle cx="591.5" cy="218.9" r="3" fill="#2ca02c"/>
<circle cx="679.8" cy="220.7" r="3" fill="#2ca02c"/>
<circle cx="768.0" cy="219.2" r="3" fill="#2ca02c"/>
<line x1="782" y1="92" x2="802" y2="92" stroke="#2ca02c" stroke-width="3"/>
<text x="806" y="96" font-size="12">zherk</text>
<polygon points="62.0,263.2 238.5,198.6 415.0,205.0 503.2,211.3 591.5,231.1 679.8,225.9 768.0,218.7 768.0,220.5 679.8,227.8 591.5,233.7 503.2,212.4 415.0,208.0 238.5,202.8 62.0,266.1" fill="#9467bd" opacity="0.14" stroke="none"/>
<polyline points="62.0,265.2 238.5,199.4 415.0,206.7 503.2,211.9 591.5,232.5 679.8,226.3 768.0,219.5" fill="none" stroke="#9467bd" stroke-width="2"/>
<circle cx="62.0" cy="265.2" r="3" fill="#9467bd"/>
<circle cx="238.5" cy="199.4" r="3" fill="#9467bd"/>
<circle cx="415.0" cy="206.7" r="3" fill="#9467bd"/>
<circle cx="503.2" cy="211.9" r="3" fill="#9467bd"/>
<circle cx="591.5" cy="232.5" r="3" fill="#9467bd"/>
<circle cx="679.8" cy="226.3" r="3" fill="#9467bd"/>
<circle cx="768.0" cy="219.5" r="3" fill="#9467bd"/>
<line x1="782" y1="110" x2="802" y2="110" stroke="#9467bd" stroke-width="3"/>
<text x="806" y="114" font-size="12">zher2k</text>
<polygon points="62.0,259.9 238.5,195.8 415.0,210.8 503.2,214.9 591.5,228.9 679.8,217.9 768.0,213.7 768.0,215.9 679.8,222.3 591.5,231.2 503.2,216.8 415.0,215.0 238.5,211.8 62.0,262.0" fill="#ff7f0e" opacity="0.14" stroke="none"/>
<polyline points="62.0,261.8 238.5,202.5 415.0,212.5 503.2,215.7 591.5,229.9 679.8,218.3 768.0,214.8" fill="none" stroke="#ff7f0e" stroke-width="2"/>
<circle cx="62.0" cy="261.8" r="3" fill="#ff7f0e"/>
<circle cx="238.5" cy="202.5" r="3" fill="#ff7f0e"/>
<circle cx="415.0" cy="212.5" r="3" fill="#ff7f0e"/>
<circle cx="503.2" cy="215.7" r="3" fill="#ff7f0e"/>
<circle cx="591.5" cy="229.9" r="3" fill="#ff7f0e"/>
<circle cx="679.8" cy="218.3" r="3" fill="#ff7f0e"/>
<circle cx="768.0" cy="214.8" r="3" fill="#ff7f0e"/>
<line x1="782" y1="128" x2="802" y2="128" stroke="#ff7f0e" stroke-width="3"/>
<text x="806" y="132" font-size="12">zsyr2k</text>
<polygon points="62.0,196.7 238.5,237.9 415.0,221.1 503.2,216.4 591.5,216.5 679.8,208.4 768.0,209.2 768.0,213.9 679.8,210.6 591.5,220.2 503.2,217.6 415.0,222.2 238.5,252.1 62.0,205.2" fill="#17becf" opacity="0.14" stroke="none"/>
<polyline points="62.0,200.3 238.5,247.4 415.0,221.5 503.2,216.9 591.5,219.4 679.8,209.0 768.0,211.4" fill="none" stroke="#17becf" stroke-width="2"/>
<circle cx="62.0" cy="200.3" r="3" fill="#17becf"/>
<circle cx="238.5" cy="247.4" r="3" fill="#17becf"/>
<circle cx="415.0" cy="221.5" r="3" fill="#17becf"/>
<circle cx="503.2" cy="216.9" r="3" fill="#17becf"/>
<circle cx="591.5" cy="219.4" r="3" fill="#17becf"/>
<circle cx="679.8" cy="209.0" r="3" fill="#17becf"/>
<circle cx="768.0" cy="211.4" r="3" fill="#17becf"/>
<line x1="782" y1="146" x2="802" y2="146" stroke="#17becf" stroke-width="3"/>
<text x="806" y="150" font-size="12">ztrmm</text>
<polygon points="62.0,351.3 238.5,332.7 415.0,298.3 503.2,211.2 591.5,191.5 679.8,193.3 768.0,197.9 768.0,201.1 679.8,196.9 591.5,192.9 503.2,212.9 415.0,299.8 238.5,343.5 62.0,358.3" fill="#8c564b" opacity="0.14" stroke="none"/>
<polyline points="62.0,355.4 238.5,338.7 415.0,298.8 503.2,211.5 591.5,192.0 679.8,195.9 768.0,200.0" fill="none" stroke="#8c564b" stroke-width="2"/>
<circle cx="62.0" cy="355.4" r="3" fill="#8c564b"/>
<circle cx="238.5" cy="338.7" r="3" fill="#8c564b"/>
<circle cx="415.0" cy="298.8" r="3" fill="#8c564b"/>
<circle cx="503.2" cy="211.5" r="3" fill="#8c564b"/>
<circle cx="591.5" cy="192.0" r="3" fill="#8c564b"/>
<circle cx="679.8" cy="195.9" r="3" fill="#8c564b"/>
<circle cx="768.0" cy="200.0" r="3" fill="#8c564b"/>
<line x1="782" y1="164" x2="802" y2="164" stroke="#8c564b" stroke-width="3"/>
<text x="806" y="168" font-size="12">ztrsm</text>
<polygon points="62.0,179.9 238.5,260.8 415.0,206.9 503.2,211.4 591.5,214.1 679.8,209.1 768.0,206.1 768.0,209.4 679.8,210.1 591.5,215.7 503.2,212.0 415.0,209.6 238.5,277.5 62.0,188.4" fill="#e377c2" opacity="0.14" stroke="none"/>
<polyline points="62.0,184.1 238.5,270.6 415.0,208.5 503.2,211.8 591.5,214.8 679.8,209.3 768.0,207.6" fill="none" stroke="#e377c2" stroke-width="2"/>
<circle cx="62.0" cy="184.1" r="3" fill="#e377c2"/>
<circle cx="238.5" cy="270.6" r="3" fill="#e377c2"/>
<circle cx="415.0" cy="208.5" r="3" fill="#e377c2"/>
<circle cx="503.2" cy="211.8" r="3" fill="#e377c2"/>
<circle cx="591.5" cy="214.8" r="3" fill="#e377c2"/>
<circle cx="679.8" cy="209.3" r="3" fill="#e377c2"/>
<circle cx="768.0" cy="207.6" r="3" fill="#e377c2"/>
<line x1="782" y1="182" x2="802" y2="182" stroke="#e377c2" stroke-width="3"/>
<text x="806" y="186" font-size="12">ztrmmR</text>
<polygon points="62.0,400.0 238.5,397.3 415.0,319.0 503.2,228.9 591.5,201.6 679.8,198.5 768.0,200.4 768.0,205.1 679.8,202.7 591.5,202.1 503.2,229.6 415.0,320.5 238.5,400.0 62.0,400.0" fill="#1f77b4" opacity="0.14" stroke="none"/>
<polyline points="62.0,400.0 238.5,399.6 415.0,319.8 503.2,229.3 591.5,201.8 679.8,200.6 768.0,202.2" fill="none" stroke="#1f77b4" stroke-width="2"/>
<circle cx="62.0" cy="400.0" r="3" fill="#1f77b4"/>
<circle cx="238.5" cy="399.6" r="3" fill="#1f77b4"/>
<circle cx="415.0" cy="319.8" r="3" fill="#1f77b4"/>
<circle cx="503.2" cy="229.3" r="3" fill="#1f77b4"/>
<circle cx="591.5" cy="201.8" r="3" fill="#1f77b4"/>
<circle cx="679.8" cy="200.6" r="3" fill="#1f77b4"/>
<circle cx="768.0" cy="202.2" r="3" fill="#1f77b4"/>
<line x1="782" y1="200" x2="802" y2="200" stroke="#1f77b4" stroke-width="3"/>
<text x="806" y="204" font-size="12">ztrsmR</text>
<text x="415.0" y="450" text-anchor="middle" font-size="11" fill="#666">matrix size n (log) · y = median ratio (log) · dashed = the 0.96× gate</text>
</svg>
