<svg xmlns="http://www.w3.org/2000/svg" width="900" height="460" font-family="sans-serif">
<rect width="900" height="460" fill="white"/>
<text x="450.0" y="28" text-anchor="middle" font-size="18" font-weight="bold">LAPACK: PureBLAS / OpenBLAS (AVX2, 1 thread, Float64)</text>
<line x1="62" y1="400.0" x2="768" y2="400.0" stroke="#eee"/>
<text x="54" y="404.0" text-anchor="end" font-size="11" fill="#666">0.5×</text>
<line x1="62" y1="339.54529836235054" x2="768" y2="339.54529836235054" stroke="#eee"/>
<text x="54" y="343.54529836235054" text-anchor="end" font-size="11" fill="#666">0.7×</text>
<line x1="62" y1="275.4607321765352" x2="768" y2="275.4607321765352" stroke="#eee"/>
<text x="54" y="279.4607321765352" text-anchor="end" font-size="11" fill="#666">1.0×</text>
<line x1="62" y1="202.60993063253946" x2="768" y2="202.60993063253946" stroke="#eee"/>
<text x="54" y="206.60993063253946" text-anchor="end" font-size="11" fill="#666">1.5×</text>
<line x1="62" y1="150.9214643530704" x2="768" y2="150.9214643530704" stroke="#eee"/>
<text x="54" y="154.9214643530704" text-anchor="end" font-size="11" fill="#666">2.0×</text>
<line x1="62" y1="78.07066280907463" x2="768" y2="78.07066280907463" stroke="#eee"/>
<text x="54" y="82.07066280907463" text-anchor="end" font-size="11" fill="#666">3.0×</text>
<line x1="62.0" y1="50" x2="62.0" y2="400" stroke="#f4f4f4"/>
<text x="62.0" y="418" text-anchor="middle" font-size="11" fill="#444">8</text>
<line x1="238.5" y1="50" x2="238.5" y2="400" stroke="#f4f4f4"/>
<text x="238.5" y="418" text-anchor="middle" font-size="11" fill="#444">32</text>
<line x1="415.0" y1="50" x2="415.0" y2="400" stroke="#f4f4f4"/>
<text x="415.0" y="418" text-anchor="middle" font-size="11" fill="#444">128</text>
<line x1="503.25" y1="50" x2="503.25" y2="400" stroke="#f4f4f4"/>
<text x="503.25" y="418" text-anchor="middle" font-size="11" fill="#444">256</text>
<line x1="591.5" y1="50" x2="591.5" y2="400" stroke="#f4f4f4"/>
<text x="591.5" y="418" text-anchor="middle" font-size="11" fill="#444">512</text>
<line x1="679.75" y1="50" x2="679.75" y2="400" stroke="#f4f4f4"/>
<text x="679.75" y="418" text-anchor="middle" font-size="11" fill="#444">1024</text>
<line x1="768.0" y1="50" x2="768.0" y2="400" stroke="#f4f4f4"/>
<text x="768.0" y="418" text-anchor="middle" font-size="11" fill="#444">2048</text>
<line x1="62" y1="275.4607321765352" x2="768" y2="275.4607321765352" stroke="#888"/>
<line x1="62" y1="282.79530909068944" x2="768" y2="282.79530909068944" stroke="#d33" stroke-width="1.5" stroke-dasharray="6 4"/>
<text x="66" y="277.79530909068944" font-size="11" fill="#d33">0.96× gate</text>
<polyline points="62.0,219.0 238.5,208.5 415.0,315.1 503.2,313.8 591.5,309.1 679.8,346.0 768.0,308.7" fill="none" stroke="#1f77b4" stroke-width="2"/>
<circle cx="62.0" cy="219.0" r="3" fill="#1f77b4"/>
<circle cx="238.5" cy="208.5" r="3" fill="#1f77b4"/>
<circle cx="415.0" cy="315.1" r="3" fill="#1f77b4"/>
<circle cx="503.2" cy="313.8" r="3" fill="#1f77b4"/>
<circle cx="591.5" cy="309.1" r="3" fill="#1f77b4"/>
<circle cx="679.8" cy="346.0" r="3" fill="#1f77b4"/>
<circle cx="768.0" cy="308.7" r="3" fill="#1f77b4"/>
<line x1="782" y1="56" x2="802" y2="56" stroke="#1f77b4" stroke-width="3"/>
<text x="806" y="60" font-size="12">potrf</text>
<polyline points="62.0,75.1 238.5,187.1 415.0,233.0 503.2,265.2 591.5,244.7 679.8,250.1 768.0,250.6" fill="none" stroke="#d62728" stroke-width="2"/>
<circle cx="62.0" cy="75.1" r="3" fill="#d62728"/>
<circle cx="238.5" cy="187.1" r="3" fill="#d62728"/>
<circle cx="415.0" cy="233.0" r="3" fill="#d62728"/>
<circle cx="503.2" cy="265.2" r="3" fill="#d62728"/>
<circle cx="591.5" cy="244.7" r="3" fill="#d62728"/>
<circle cx="679.8" cy="250.1" r="3" fill="#d62728"/>
<circle cx="768.0" cy="250.6" r="3" fill="#d62728"/>
<line x1="782" y1="74" x2="802" y2="74" stroke="#d62728" stroke-width="3"/>
<text x="806" y="78" font-size="12">geqrf</text>
<polyline points="62.0,128.3 238.5,117.9 415.0,283.4 503.2,297.0 591.5,286.5 679.8,282.2 768.0,273.5" fill="none" stroke="#2ca02c" stroke-width="2"/>
<circle cx="62.0" cy="128.3" r="3" fill="#2ca02c"/>
<circle cx="238.5" cy="117.9" r="3" fill="#2ca02c"/>
<circle cx="415.0" cy="283.4" r="3" fill="#2ca02c"/>
<circle cx="503.2" cy="297.0" r="3" fill="#2ca02c"/>
<circle cx="591.5" cy="286.5" r="3" fill="#2ca02c"/>
<circle cx="679.8" cy="282.2" r="3" fill="#2ca02c"/>
<circle cx="768.0" cy="273.5" r="3" fill="#2ca02c"/>
<line x1="782" y1="92" x2="802" y2="92" stroke="#2ca02c" stroke-width="3"/>
<text x="806" y="96" font-size="12">getrf</text>
<polyline points="62.0,185.7 238.5,253.4 415.0,257.3 503.2,249.4 591.5,238.5 679.8,250.3 768.0,257.2" fill="none" stroke="#9467bd" stroke-width="2"/>
<circle cx="62.0" cy="185.7" r="3" fill="#9467bd"/>
<circle cx="238.5" cy="253.4" r="3" fill="#9467bd"/>
<circle cx="415.0" cy="257.3" r="3" fill="#9467bd"/>
<circle cx="503.2" cy="249.4" r="3" fill="#9467bd"/>
<circle cx="591.5" cy="238.5" r="3" fill="#9467bd"/>
<circle cx="679.8" cy="250.3" r="3" fill="#9467bd"/>
<circle cx="768.0" cy="257.2" r="3" fill="#9467bd"/>
<line x1="782" y1="110" x2="802" y2="110" stroke="#9467bd" stroke-width="3"/>
<text x="806" y="114" font-size="12">gesvd</text>
<text x="415.0" y="450" text-anchor="middle" font-size="11" fill="#666">matrix size n (log) · y = median ratio (log) · dashed = the 0.96× gate</text>
</svg>
