<svg xmlns="http://www.w3.org/2000/svg" width="900" height="460" font-family="sans-serif">
<rect width="900" height="460" fill="white"/>
<text x="450.0" y="28" text-anchor="middle" font-size="18" font-weight="bold">BLAS-3: PureBLAS / OpenBLAS (AVX2, 1 thread, Float64)</text>
<line x1="62" y1="400.0" x2="768" y2="400.0" stroke="#eee"/>
<text x="54" y="404.0" text-anchor="end" font-size="11" fill="#666">0.5×</text>
<line x1="62" y1="322.6584635901588" x2="768" y2="322.6584635901588" stroke="#eee"/>
<text x="54" y="326.6584635901588" text-anchor="end" font-size="11" fill="#666">0.7×</text>
<line x1="62" y1="240.6731311891069" x2="768" y2="240.6731311891069" stroke="#eee"/>
<text x="54" y="244.6731311891069" text-anchor="end" font-size="11" fill="#666">1.0×</text>
<line x1="62" y1="147.4728875774153" x2="768" y2="147.4728875774153" stroke="#eee"/>
<text x="54" y="151.4728875774153" text-anchor="end" font-size="11" fill="#666">1.5×</text>
<line x1="62" y1="81.3462623782138" x2="768" y2="81.3462623782138" stroke="#eee"/>
<text x="54" y="85.3462623782138" text-anchor="end" font-size="11" fill="#666">2.0×</text>
<line x1="62.0" y1="50" x2="62.0" y2="400" stroke="#f4f4f4"/>
<text x="62.0" y="418" text-anchor="middle" font-size="11" fill="#444">8</text>
<line x1="238.5" y1="50" x2="238.5" y2="400" stroke="#f4f4f4"/>
<text x="238.5" y="418" text-anchor="middle" font-size="11" fill="#444">32</text>
<line x1="415.0" y1="50" x2="415.0" y2="400" stroke="#f4f4f4"/>
<text x="415.0" y="418" text-anchor="middle" font-size="11" fill="#444">128</text>
<line x1="503.25" y1="50" x2="503.25" y2="400" stroke="#f4f4f4"/>
<text x="503.25" y="418" text-anchor="middle" font-size="11" fill="#444">256</text>
<line x1="591.5" y1="50" x2="591.5" y2="400" stroke="#f4f4f4"/>
<text x="591.5" y="418" text-anchor="middle" font-size="11" fill="#444">512</text>
<line x1="679.75" y1="50" x2="679.75" y2="400" stroke="#f4f4f4"/>
<text x="679.75" y="418" text-anchor="middle" font-size="11" fill="#444">1024</text>
<line x1="768.0" y1="50" x2="768.0" y2="400" stroke="#f4f4f4"/>
<text x="768.0" y="418" text-anchor="middle" font-size="11" fill="#444">2048</text>
<line x1="62" y1="240.6731311891069" x2="768" y2="240.6731311891069" stroke="#888"/>
<line x1="62" y1="250.05647825873433" x2="768" y2="250.05647825873433" stroke="#d33" stroke-width="1.5" stroke-dasharray="6 4"/>
<text x="66" y="245.05647825873433" font-size="11" fill="#d33">0.96× gate</text>
<polyline points="62.0,82.1 238.5,222.8 415.0,214.9 503.2,237.8 591.5,226.4 679.8,230.9 768.0,228.2" fill="none" stroke="#1f77b4" stroke-width="2"/>
<circle cx="62.0" cy="82.1" r="3" fill="#1f77b4"/>
<circle cx="238.5" cy="222.8" r="3" fill="#1f77b4"/>
<circle cx="415.0" cy="214.9" r="3" fill="#1f77b4"/>
<circle cx="503.2" cy="237.8" r="3" fill="#1f77b4"/>
<circle cx="591.5" cy="226.4" r="3" fill="#1f77b4"/>
<circle cx="679.8" cy="230.9" r="3" fill="#1f77b4"/>
<circle cx="768.0" cy="228.2" r="3" fill="#1f77b4"/>
<line x1="782" y1="56" x2="802" y2="56" stroke="#1f77b4" stroke-width="3"/>
<text x="806" y="60" font-size="12">gemm</text>
<polyline points="62.0,199.3 238.5,256.9 415.0,238.3 503.2,249.5 591.5,244.2 679.8,239.3 768.0,243.7" fill="none" stroke="#d62728" stroke-width="2"/>
<circle cx="62.0" cy="199.3" r="3" fill="#d62728"/>
<circle cx="238.5" cy="256.9" r="3" fill="#d62728"/>
<circle cx="415.0" cy="238.3" r="3" fill="#d62728"/>
<circle cx="503.2" cy="249.5" r="3" fill="#d62728"/>
<circle cx="591.5" cy="244.2" r="3" fill="#d62728"/>
<circle cx="679.8" cy="239.3" r="3" fill="#d62728"/>
<circle cx="768.0" cy="243.7" r="3" fill="#d62728"/>
<line x1="782" y1="74" x2="802" y2="74" stroke="#d62728" stroke-width="3"/>
<text x="806" y="78" font-size="12">zgemm</text>
<polyline points="62.0,191.6 238.5,214.5 415.0,249.0 503.2,264.5 591.5,240.0 679.8,234.2 768.0,228.8" fill="none" stroke="#2ca02c" stroke-width="2"/>
<circle cx="62.0" cy="191.6" r="3" fill="#2ca02c"/>
<circle cx="238.5" cy="214.5" r="3" fill="#2ca02c"/>
<circle cx="415.0" cy="249.0" r="3" fill="#2ca02c"/>
<circle cx="503.2" cy="264.5" r="3" fill="#2ca02c"/>
<circle cx="591.5" cy="240.0" r="3" fill="#2ca02c"/>
<circle cx="679.8" cy="234.2" r="3" fill="#2ca02c"/>
<circle cx="768.0" cy="228.8" r="3" fill="#2ca02c"/>
<line x1="782" y1="92" x2="802" y2="92" stroke="#2ca02c" stroke-width="3"/>
<text x="806" y="96" font-size="12">symm</text>
<polyline points="62.0,142.1 238.5,186.7 415.0,235.6 503.2,232.3 591.5,233.4 679.8,241.5 768.0,238.2" fill="none" stroke="#9467bd" stroke-width="2"/>
<circle cx="62.0" cy="142.1" r="3" fill="#9467bd"/>
<circle cx="238.5" cy="186.7" r="3" fill="#9467bd"/>
<circle cx="415.0" cy="235.6" r="3" fill="#9467bd"/>
<circle cx="503.2" cy="232.3" r="3" fill="#9467bd"/>
<circle cx="591.5" cy="233.4" r="3" fill="#9467bd"/>
<circle cx="679.8" cy="241.5" r="3" fill="#9467bd"/>
<circle cx="768.0" cy="238.2" r="3" fill="#9467bd"/>
<line x1="782" y1="110" x2="802" y2="110" stroke="#9467bd" stroke-width="3"/>
<text x="806" y="114" font-size="12">syrk</text>
<polyline points="62.0,107.7 238.5,219.7 415.0,251.3 503.2,252.2 591.5,245.6 679.8,246.3 768.0,245.6" fill="none" stroke="#ff7f0e" stroke-width="2"/>
<circle cx="62.0" cy="107.7" r="3" fill="#ff7f0e"/>
<circle cx="238.5" cy="219.7" r="3" fill="#ff7f0e"/>
<circle cx="415.0" cy="251.3" r="3" fill="#ff7f0e"/>
<circle cx="503.2" cy="252.2" r="3" fill="#ff7f0e"/>
<circle cx="591.5" cy="245.6" r="3" fill="#ff7f0e"/>
<circle cx="679.8" cy="246.3" r="3" fill="#ff7f0e"/>
<circle cx="768.0" cy="245.6" r="3" fill="#ff7f0e"/>
<line x1="782" y1="128" x2="802" y2="128" stroke="#ff7f0e" stroke-width="3"/>
<text x="806" y="132" font-size="12">syr2k</text>
<polyline points="62.0,272.3 238.5,198.3 415.0,194.6 503.2,198.0 591.5,212.3 679.8,222.7 768.0,227.7" fill="none" stroke="#17becf" stroke-width="2"/>
<circle cx="62.0" cy="272.3" r="3" fill="#17becf"/>
<circle cx="238.5" cy="198.3" r="3" fill="#17becf"/>
<circle cx="415.0" cy="194.6" r="3" fill="#17becf"/>
<circle cx="503.2" cy="198.0" r="3" fill="#17becf"/>
<circle cx="591.5" cy="212.3" r="3" fill="#17becf"/>
<circle cx="679.8" cy="222.7" r="3" fill="#17becf"/>
<circle cx="768.0" cy="227.7" r="3" fill="#17becf"/>
<line x1="782" y1="146" x2="802" y2="146" stroke="#17becf" stroke-width="3"/>
<text x="806" y="150" font-size="12">trmm</text>
<polyline points="62.0,237.5 238.5,242.1 415.0,269.7 503.2,275.4 591.5,259.9 679.8,247.7 768.0,236.4" fill="none" stroke="#8c564b" stroke-width="2"/>
<circle cx="62.0" cy="237.5" r="3" fill="#8c564b"/>
<circle cx="238.5" cy="242.1" r="3" fill="#8c564b"/>
<circle cx="415.0" cy="269.7" r="3" fill="#8c564b"/>
<circle cx="503.2" cy="275.4" r="3" fill="#8c564b"/>
<circle cx="591.5" cy="259.9" r="3" fill="#8c564b"/>
<circle cx="679.8" cy="247.7" r="3" fill="#8c564b"/>
<circle cx="768.0" cy="236.4" r="3" fill="#8c564b"/>
<line x1="782" y1="164" x2="802" y2="164" stroke="#8c564b" stroke-width="3"/>
<text x="806" y="168" font-size="12">trsm</text>
<text x="415.0" y="450" text-anchor="middle" font-size="11" fill="#666">matrix size n (log) · y = median ratio (log) · dashed = the 0.96× gate</text>
</svg>
