<svg xmlns="http://www.w3.org/2000/svg" width="962" height="420" font-family="sans-serif">
<rect width="962" height="420" fill="white"/>
<text x="481.0" y="26" text-anchor="middle" font-size="17" font-weight="bold">BLAS-1 — PureBLAS / OpenBLAS (PB/OpenBLAS ratio)</text>
<line x1="46" y1="42" x2="68" y2="42" stroke="#d62728" stroke-width="3"/>
<text x="73" y="46" font-size="12">Zen3 · AVX2</text>
<line x1="176" y1="42" x2="198" y2="42" stroke="#2ca02c" stroke-width="3"/>
<text x="203" y="46" font-size="12">Zen5 · AVX-512</text>
<line x1="327" y1="42" x2="349" y2="42" stroke="#1f77b4" stroke-width="3"/>
<text x="354" y="46" font-size="12">Zen4 · AVX-512</text>
<rect x="46" y="60" width="210" height="138" fill="none" stroke="#e2e2e2"/>
<line x1="46" y1="120.98037200309057" x2="256" y2="120.98037200309057" stroke="#d33" stroke-dasharray="4 3"/>
<text x="42" y="201.0" text-anchor="end" font-size="9" fill="#999">0.5×</text>
<text x="42" y="123.98037200309057" text-anchor="end" font-size="9" fill="#999">1.0×</text>
<text x="42" y="63.075403816601344" text-anchor="end" font-size="9" fill="#999">1.73×</text>
<polygon points="46.0,115.7 79.4,118.7 116.0,120.7 149.4,119.6 186.0,120.0 219.4,120.0 256.0,118.4 256.0,122.5 219.4,121.5 186.0,121.3 149.4,121.7 116.0,120.8 79.4,120.2 46.0,116.1" fill="#d62728" opacity="0.11"/>
<polyline points="46.0,116.0 79.4,119.0 116.0,120.8 149.4,121.0 186.0,120.9 219.4,121.0 256.0,121.1" fill="none" stroke="#d62728" stroke-width="1.6"/>
<circle cx="46.0" cy="116.0" r="2" fill="#d62728"/>
<circle cx="79.4" cy="119.0" r="2" fill="#d62728"/>
<circle cx="116.0" cy="120.8" r="2" fill="#d62728"/>
<circle cx="149.4" cy="121.0" r="2" fill="#d62728"/>
<circle cx="186.0" cy="120.9" r="2" fill="#d62728"/>
<circle cx="219.4" cy="121.0" r="2" fill="#d62728"/>
<circle cx="256.0" cy="121.1" r="2" fill="#d62728"/>
<polygon points="46.0,104.8 79.4,114.8 116.0,120.8 149.4,118.8 186.0,119.8 219.4,68.6 256.0,113.6 256.0,131.1 219.4,126.2 186.0,127.9 149.4,122.4 116.0,123.1 79.4,119.6 46.0,119.4" fill="#2ca02c" opacity="0.11"/>
<polyline points="46.0,115.1 79.4,115.9 116.0,121.4 149.4,121.4 186.0,120.9 219.4,119.8 256.0,121.0" fill="none" stroke="#2ca02c" stroke-width="1.6"/>
<circle cx="46.0" cy="115.1" r="2" fill="#2ca02c"/>
<circle cx="79.4" cy="115.9" r="2" fill="#2ca02c"/>
<circle cx="116.0" cy="121.4" r="2" fill="#2ca02c"/>
<circle cx="149.4" cy="121.4" r="2" fill="#2ca02c"/>
<circle cx="186.0" cy="120.9" r="2" fill="#2ca02c"/>
<circle cx="219.4" cy="119.8" r="2" fill="#2ca02c"/>
<circle cx="256.0" cy="121.0" r="2" fill="#2ca02c"/>
<polygon points="46.0,109.4 79.4,118.9 116.0,119.6 149.4,120.2 186.0,119.5 219.4,118.1 256.0,116.9 256.0,124.7 219.4,120.5 186.0,121.7 149.4,121.2 116.0,120.6 79.4,119.2 46.0,110.0" fill="#1f77b4" opacity="0.11"/>
<polyline points="46.0,109.8 79.4,119.1 116.0,120.5 149.4,120.8 186.0,120.3 219.4,119.4 256.0,121.7" fill="none" stroke="#1f77b4" stroke-width="1.6"/>
<circle cx="46.0" cy="109.8" r="2" fill="#1f77b4"/>
<circle cx="79.4" cy="119.1" r="2" fill="#1f77b4"/>
<circle cx="116.0" cy="120.5" r="2" fill="#1f77b4"/>
<circle cx="149.4" cy="120.8" r="2" fill="#1f77b4"/>
<circle cx="186.0" cy="120.3" r="2" fill="#1f77b4"/>
<circle cx="219.4" cy="119.4" r="2" fill="#1f77b4"/>
<circle cx="256.0" cy="121.7" r="2" fill="#1f77b4"/>
<text x="151.0" y="55" text-anchor="middle" font-size="12" font-weight="bold">axpy</text>
<line x1="46.0" y1="60" x2="46.0" y2="198" stroke="#f4f4f4"/>
<text x="46.0" y="209" text-anchor="middle" font-size="8" fill="#999">1000</text>
<line x1="79.4" y1="60" x2="79.4" y2="198" stroke="#f4f4f4"/>
<text x="79.4" y="209" text-anchor="middle" font-size="8" fill="#999">2k</text>
<line x1="116.0" y1="60" x2="116.0" y2="198" stroke="#f4f4f4"/>
<text x="116.0" y="209" text-anchor="middle" font-size="8" fill="#999">9k</text>
<line x1="149.4" y1="60" x2="149.4" y2="198" stroke="#f4f4f4"/>
<text x="149.4" y="209" text-anchor="middle" font-size="8" fill="#999">29k</text>
<line x1="186.0" y1="60" x2="186.0" y2="198" stroke="#f4f4f4"/>
<text x="186.0" y="209" text-anchor="middle" font-size="8" fill="#999">97k</text>
<line x1="219.4" y1="60" x2="219.4" y2="198" stroke="#f4f4f4"/>
<text x="219.4" y="209" text-anchor="middle" font-size="8" fill="#999">292k</text>
<line x1="256.0" y1="60" x2="256.0" y2="198" stroke="#f4f4f4"/>
<text x="256.0" y="209" text-anchor="middle" font-size="8" fill="#999">976k</text>
<rect x="276" y="60" width="210" height="138" fill="none" stroke="#e2e2e2"/>
<line x1="276" y1="115.76276119065531" x2="486" y2="115.76276119065531" stroke="#d33" stroke-dasharray="4 3"/>
<text x="272" y="201.0" text-anchor="end" font-size="9" fill="#999">0.5×</text>
<text x="272" y="118.76276119065531" text-anchor="end" font-size="9" fill="#999">1.0×</text>
<text x="272" y="63.0" text-anchor="end" font-size="9" fill="#999">1.6×</text>
<polygon points="276.0,113.4 309.4,115.1 346.0,115.6 379.4,114.5 416.0,115.8 449.4,115.0 486.0,115.6 486.0,117.9 449.4,117.3 416.0,116.6 379.4,117.4 346.0,115.7 309.4,115.5 276.0,115.1" fill="#d62728" opacity="0.11"/>
<polyline points="276.0,114.4 309.4,115.3 346.0,115.7 379.4,115.8 416.0,116.3 449.4,116.6 486.0,116.8" fill="none" stroke="#d62728" stroke-width="1.6"/>
<circle cx="276.0" cy="114.4" r="2" fill="#d62728"/>
<circle cx="309.4" cy="115.3" r="2" fill="#d62728"/>
<circle cx="346.0" cy="115.7" r="2" fill="#d62728"/>
<circle cx="379.4" cy="115.8" r="2" fill="#d62728"/>
<circle cx="416.0" cy="116.3" r="2" fill="#d62728"/>
<circle cx="449.4" cy="116.6" r="2" fill="#d62728"/>
<circle cx="486.0" cy="116.8" r="2" fill="#d62728"/>
<polygon points="276.0,112.7 309.4,114.9 346.0,115.2 379.4,113.3 416.0,108.5 449.4,111.4 486.0,104.1 486.0,135.1 449.4,117.0 416.0,118.3 379.4,119.9 346.0,117.0 309.4,116.4 276.0,115.1" fill="#2ca02c" opacity="0.11"/>
<polyline points="276.0,112.8 309.4,115.3 346.0,116.1 379.4,116.2 416.0,115.8 449.4,114.8 486.0,119.1" fill="none" stroke="#2ca02c" stroke-width="1.6"/>
<circle cx="276.0" cy="112.8" r="2" fill="#2ca02c"/>
<circle cx="309.4" cy="115.3" r="2" fill="#2ca02c"/>
<circle cx="346.0" cy="116.1" r="2" fill="#2ca02c"/>
<circle cx="379.4" cy="116.2" r="2" fill="#2ca02c"/>
<circle cx="416.0" cy="115.8" r="2" fill="#2ca02c"/>
<circle cx="449.4" cy="114.8" r="2" fill="#2ca02c"/>
<circle cx="486.0" cy="119.1" r="2" fill="#2ca02c"/>
<polygon points="276.0,113.0 309.4,115.7 346.0,115.7 379.4,115.5 416.0,114.8 449.4,114.6 486.0,113.6 486.0,120.1 449.4,116.4 416.0,116.4 379.4,116.9 346.0,116.1 309.4,115.9 276.0,114.0" fill="#1f77b4" opacity="0.11"/>
<polyline points="276.0,113.7 309.4,115.8 346.0,115.8 379.4,115.8 416.0,115.4 449.4,115.4 486.0,115.7" fill="none" stroke="#1f77b4" stroke-width="1.6"/>
<circle cx="276.0" cy="113.7" r="2" fill="#1f77b4"/>
<circle cx="309.4" cy="115.8" r="2" fill="#1f77b4"/>
<circle cx="346.0" cy="115.8" r="2" fill="#1f77b4"/>
<circle cx="379.4" cy="115.8" r="2" fill="#1f77b4"/>
<circle cx="416.0" cy="115.4" r="2" fill="#1f77b4"/>
<circle cx="449.4" cy="115.4" r="2" fill="#1f77b4"/>
<circle cx="486.0" cy="115.7" r="2" fill="#1f77b4"/>
<text x="381.0" y="55" text-anchor="middle" font-size="12" font-weight="bold">dot</text>
<line x1="276.0" y1="60" x2="276.0" y2="198" stroke="#f4f4f4"/>
<text x="276.0" y="209" text-anchor="middle" font-size="8" fill="#999">1000</text>
<line x1="309.4" y1="60" x2="309.4" y2="198" stroke="#f4f4f4"/>
<text x="309.4" y="209" text-anchor="middle" font-size="8" fill="#999">2k</text>
<line x1="346.0" y1="60" x2="346.0" y2="198" stroke="#f4f4f4"/>
<text x="346.0" y="209" text-anchor="middle" font-size="8" fill="#999">9k</text>
<line x1="379.4" y1="60" x2="379.4" y2="198" stroke="#f4f4f4"/>
<text x="379.4" y="209" text-anchor="middle" font-size="8" fill="#999">29k</text>
<line x1="416.0" y1="60" x2="416.0" y2="198" stroke="#f4f4f4"/>
<text x="416.0" y="209" text-anchor="middle" font-size="8" fill="#999">97k</text>
<line x1="449.4" y1="60" x2="449.4" y2="198" stroke="#f4f4f4"/>
<text x="449.4" y="209" text-anchor="middle" font-size="8" fill="#999">292k</text>
<line x1="486.0" y1="60" x2="486.0" y2="198" stroke="#f4f4f4"/>
<text x="486.0" y="209" text-anchor="middle" font-size="8" fill="#999">976k</text>
<rect x="506" y="60" width="210" height="138" fill="none" stroke="#e2e2e2"/>
<line x1="506" y1="175.24681897521435" x2="716" y2="175.24681897521435" stroke="#d33" stroke-dasharray="4 3"/>
<text x="502" y="201.0" text-anchor="end" font-size="9" fill="#999">0.5×</text>
<text x="502" y="178.24681897521435" text-anchor="end" font-size="9" fill="#999">1.0×</text>
<polygon points="506.0,108.9 539.4,107.6 576.0,107.3 609.4,107.1 646.0,113.7 679.4,114.4 716.0,114.7 716.0,118.8 679.4,116.6 646.0,115.1 609.4,107.4 576.0,107.6 539.4,107.8 506.0,109.1" fill="#d62728" opacity="0.11"/>
<polyline points="506.0,109.1 539.4,107.8 576.0,107.5 609.4,107.3 646.0,114.6 679.4,114.9 716.0,116.6" fill="none" stroke="#d62728" stroke-width="1.6"/>
<circle cx="506.0" cy="109.1" r="2" fill="#d62728"/>
<circle cx="539.4" cy="107.8" r="2" fill="#d62728"/>
<circle cx="576.0" cy="107.5" r="2" fill="#d62728"/>
<circle cx="609.4" cy="107.3" r="2" fill="#d62728"/>
<circle cx="646.0" cy="114.6" r="2" fill="#d62728"/>
<circle cx="679.4" cy="114.9" r="2" fill="#d62728"/>
<circle cx="716.0" cy="116.6" r="2" fill="#d62728"/>
<polygon points="506.0,66.8 539.4,62.5 576.0,71.9 609.4,71.2 646.0,70.3 679.4,90.5 716.0,109.9 716.0,120.4 679.4,128.7 646.0,124.9 609.4,125.2 576.0,125.3 539.4,123.4 506.0,123.9" fill="#2ca02c" opacity="0.11"/>
<polyline points="506.0,70.8 539.4,65.8 576.0,76.1 609.4,74.6 646.0,73.3 679.4,120.6 716.0,119.3" fill="none" stroke="#2ca02c" stroke-width="1.6"/>
<circle cx="506.0" cy="70.8" r="2" fill="#2ca02c"/>
<circle cx="539.4" cy="65.8" r="2" fill="#2ca02c"/>
<circle cx="576.0" cy="76.1" r="2" fill="#2ca02c"/>
<circle cx="609.4" cy="74.6" r="2" fill="#2ca02c"/>
<circle cx="646.0" cy="73.3" r="2" fill="#2ca02c"/>
<circle cx="679.4" cy="120.6" r="2" fill="#2ca02c"/>
<circle cx="716.0" cy="119.3" r="2" fill="#2ca02c"/>
<polygon points="506.0,92.1 539.4,90.6 576.0,107.0 609.4,106.9 646.0,107.4 679.4,112.6 716.0,113.7 716.0,115.1 679.4,113.4 646.0,111.2 609.4,107.2 576.0,107.2 539.4,91.6 506.0,94.2" fill="#1f77b4" opacity="0.11"/>
<polyline points="506.0,93.0 539.4,91.1 576.0,107.2 609.4,107.1 646.0,109.9 679.4,112.7 716.0,114.1" fill="none" stroke="#1f77b4" stroke-width="1.6"/>
<circle cx="506.0" cy="93.0" r="2" fill="#1f77b4"/>
<circle cx="539.4" cy="91.1" r="2" fill="#1f77b4"/>
<circle cx="576.0" cy="107.2" r="2" fill="#1f77b4"/>
<circle cx="609.4" cy="107.1" r="2" fill="#1f77b4"/>
<circle cx="646.0" cy="109.9" r="2" fill="#1f77b4"/>
<circle cx="679.4" cy="112.7" r="2" fill="#1f77b4"/>
<circle cx="716.0" cy="114.1" r="2" fill="#1f77b4"/>
<text x="611.0" y="55" text-anchor="middle" font-size="12" font-weight="bold">nrm2</text>
<line x1="506.0" y1="60" x2="506.0" y2="198" stroke="#f4f4f4"/>
<text x="506.0" y="209" text-anchor="middle" font-size="8" fill="#999">1000</text>
<line x1="539.4" y1="60" x2="539.4" y2="198" stroke="#f4f4f4"/>
<text x="539.4" y="209" text-anchor="middle" font-size="8" fill="#999">2k</text>
<line x1="576.0" y1="60" x2="576.0" y2="198" stroke="#f4f4f4"/>
<text x="576.0" y="209" text-anchor="middle" font-size="8" fill="#999">9k</text>
<line x1="609.4" y1="60" x2="609.4" y2="198" stroke="#f4f4f4"/>
<text x="609.4" y="209" text-anchor="middle" font-size="8" fill="#999">29k</text>
<line x1="646.0" y1="60" x2="646.0" y2="198" stroke="#f4f4f4"/>
<text x="646.0" y="209" text-anchor="middle" font-size="8" fill="#999">97k</text>
<line x1="679.4" y1="60" x2="679.4" y2="198" stroke="#f4f4f4"/>
<text x="679.4" y="209" text-anchor="middle" font-size="8" fill="#999">292k</text>
<line x1="716.0" y1="60" x2="716.0" y2="198" stroke="#f4f4f4"/>
<text x="716.0" y="209" text-anchor="middle" font-size="8" fill="#999">976k</text>
<rect x="736" y="60" width="210" height="138" fill="none" stroke="#e2e2e2"/>
<line x1="736" y1="130.86832135659836" x2="946" y2="130.86832135659836" stroke="#d33" stroke-dasharray="4 3"/>
<text x="732" y="201.0" text-anchor="end" font-size="9" fill="#999">0.5×</text>
<text x="732" y="133.86832135659836" text-anchor="end" font-size="9" fill="#999">1.0×</text>
<polygon points="736.0,67.5 769.4,68.9 806.0,87.4 839.4,87.7 876.0,99.9 909.4,101.8 946.0,101.9 946.0,112.8 909.4,102.9 876.0,101.8 839.4,89.0 806.0,88.0 769.4,69.6 736.0,68.6" fill="#d62728" opacity="0.11"/>
<polyline points="736.0,68.0 769.4,69.2 806.0,87.8 839.4,88.3 876.0,101.0 909.4,102.7 946.0,106.0" fill="none" stroke="#d62728" stroke-width="1.6"/>
<circle cx="736.0" cy="68.0" r="2" fill="#d62728"/>
<circle cx="769.4" cy="69.2" r="2" fill="#d62728"/>
<circle cx="806.0" cy="87.8" r="2" fill="#d62728"/>
<circle cx="839.4" cy="88.3" r="2" fill="#d62728"/>
<circle cx="876.0" cy="101.0" r="2" fill="#d62728"/>
<circle cx="909.4" cy="102.7" r="2" fill="#d62728"/>
<circle cx="946.0" cy="106.0" r="2" fill="#d62728"/>
<polygon points="736.0,100.3 769.4,121.1 806.0,131.2 839.4,129.9 876.0,128.8 909.4,106.1 946.0,106.9 946.0,135.8 909.4,166.8 876.0,134.0 839.4,131.4 806.0,133.1 769.4,129.3 736.0,125.4" fill="#2ca02c" opacity="0.11"/>
<polyline points="736.0,101.5 769.4,121.4 806.0,132.7 839.4,131.1 876.0,131.3 909.4,131.2 946.0,128.7" fill="none" stroke="#2ca02c" stroke-width="1.6"/>
<circle cx="736.0" cy="101.5" r="2" fill="#2ca02c"/>
<circle cx="769.4" cy="121.4" r="2" fill="#2ca02c"/>
<circle cx="806.0" cy="132.7" r="2" fill="#2ca02c"/>
<circle cx="839.4" cy="131.1" r="2" fill="#2ca02c"/>
<circle cx="876.0" cy="131.3" r="2" fill="#2ca02c"/>
<circle cx="909.4" cy="131.2" r="2" fill="#2ca02c"/>
<circle cx="946.0" cy="128.7" r="2" fill="#2ca02c"/>
<polygon points="736.0,95.0 769.4,115.9 806.0,130.5 839.4,130.6 876.0,130.4 909.4,130.8 946.0,129.1 946.0,131.9 909.4,131.6 876.0,132.0 839.4,130.9 806.0,131.0 769.4,116.4 736.0,95.5" fill="#1f77b4" opacity="0.11"/>
<polyline points="736.0,95.2 769.4,116.1 806.0,130.6 839.4,130.8 876.0,131.0 909.4,131.1 946.0,130.9" fill="none" stroke="#1f77b4" stroke-width="1.6"/>
<circle cx="736.0" cy="95.2" r="2" fill="#1f77b4"/>
<circle cx="769.4" cy="116.1" r="2" fill="#1f77b4"/>
<circle cx="806.0" cy="130.6" r="2" fill="#1f77b4"/>
<circle cx="839.4" cy="130.8" r="2" fill="#1f77b4"/>
<circle cx="876.0" cy="131.0" r="2" fill="#1f77b4"/>
<circle cx="909.4" cy="131.1" r="2" fill="#1f77b4"/>
<circle cx="946.0" cy="130.9" r="2" fill="#1f77b4"/>
<text x="841.0" y="55" text-anchor="middle" font-size="12" font-weight="bold">asum</text>
<line x1="736.0" y1="60" x2="736.0" y2="198" stroke="#f4f4f4"/>
<text x="736.0" y="209" text-anchor="middle" font-size="8" fill="#999">1000</text>
<line x1="769.4" y1="60" x2="769.4" y2="198" stroke="#f4f4f4"/>
<text x="769.4" y="209" text-anchor="middle" font-size="8" fill="#999">2k</text>
<line x1="806.0" y1="60" x2="806.0" y2="198" stroke="#f4f4f4"/>
<text x="806.0" y="209" text-anchor="middle" font-size="8" fill="#999">9k</text>
<line x1="839.4" y1="60" x2="839.4" y2="198" stroke="#f4f4f4"/>
<text x="839.4" y="209" text-anchor="middle" font-size="8" fill="#999">29k</text>
<line x1="876.0" y1="60" x2="876.0" y2="198" stroke="#f4f4f4"/>
<text x="876.0" y="209" text-anchor="middle" font-size="8" fill="#999">97k</text>
<line x1="909.4" y1="60" x2="909.4" y2="198" stroke="#f4f4f4"/>
<text x="909.4" y="209" text-anchor="middle" font-size="8" fill="#999">292k</text>
<line x1="946.0" y1="60" x2="946.0" y2="198" stroke="#f4f4f4"/>
<text x="946.0" y="209" text-anchor="middle" font-size="8" fill="#999">976k</text>
<rect x="46" y="232" width="210" height="138" fill="none" stroke="#e2e2e2"/>
<line x1="46" y1="297.05427032370403" x2="256" y2="297.05427032370403" stroke="#d33" stroke-dasharray="4 3"/>
<text x="42" y="300.05427032370403" text-anchor="end" font-size="9" fill="#999">1.0×</text>
<polygon points="46.0,293.5 79.4,295.5 116.0,296.0 149.4,295.7 186.0,296.4 219.4,296.4 256.0,291.9 256.0,297.1 219.4,297.7 186.0,297.7 149.4,296.1 116.0,296.5 79.4,295.8 46.0,293.7" fill="#d62728" opacity="0.11"/>
<polyline points="46.0,293.6 79.4,295.6 116.0,296.4 149.4,296.0 186.0,297.5 219.4,296.9 256.0,295.4" fill="none" stroke="#d62728" stroke-width="1.6"/>
<circle cx="46.0" cy="293.6" r="2" fill="#d62728"/>
<circle cx="79.4" cy="295.6" r="2" fill="#d62728"/>
<circle cx="116.0" cy="296.4" r="2" fill="#d62728"/>
<circle cx="149.4" cy="296.0" r="2" fill="#d62728"/>
<circle cx="186.0" cy="297.5" r="2" fill="#d62728"/>
<circle cx="219.4" cy="296.9" r="2" fill="#d62728"/>
<circle cx="256.0" cy="295.4" r="2" fill="#d62728"/>
<polygon points="46.0,289.2 79.4,270.9 116.0,292.8 149.4,294.6 186.0,292.8 219.4,238.7 256.0,275.6 256.0,299.5 219.4,363.7 186.0,298.0 149.4,296.7 116.0,296.3 79.4,293.1 46.0,295.9" fill="#2ca02c" opacity="0.11"/>
<polyline points="46.0,291.4 79.4,275.6 116.0,293.4 149.4,294.9 186.0,295.5 219.4,296.9 256.0,293.9" fill="none" stroke="#2ca02c" stroke-width="1.6"/>
<circle cx="46.0" cy="291.4" r="2" fill="#2ca02c"/>
<circle cx="79.4" cy="275.6" r="2" fill="#2ca02c"/>
<circle cx="116.0" cy="293.4" r="2" fill="#2ca02c"/>
<circle cx="149.4" cy="294.9" r="2" fill="#2ca02c"/>
<circle cx="186.0" cy="295.5" r="2" fill="#2ca02c"/>
<circle cx="219.4" cy="296.9" r="2" fill="#2ca02c"/>
<circle cx="256.0" cy="293.9" r="2" fill="#2ca02c"/>
<polygon points="46.0,286.5 79.4,293.2 116.0,297.0 149.4,297.6 186.0,294.6 219.4,296.2 256.0,298.1 256.0,300.5 219.4,300.3 186.0,297.7 149.4,298.0 116.0,297.2 79.4,293.4 46.0,286.9" fill="#1f77b4" opacity="0.11"/>
<polyline points="46.0,286.7 79.4,293.3 116.0,297.1 149.4,298.0 186.0,296.4 219.4,297.6 256.0,299.3" fill="none" stroke="#1f77b4" stroke-width="1.6"/>
<circle cx="46.0" cy="286.7" r="2" fill="#1f77b4"/>
<circle cx="79.4" cy="293.3" r="2" fill="#1f77b4"/>
<circle cx="116.0" cy="297.1" r="2" fill="#1f77b4"/>
<circle cx="149.4" cy="298.0" r="2" fill="#1f77b4"/>
<circle cx="186.0" cy="296.4" r="2" fill="#1f77b4"/>
<circle cx="219.4" cy="297.6" r="2" fill="#1f77b4"/>
<circle cx="256.0" cy="299.3" r="2" fill="#1f77b4"/>
<text x="151.0" y="227" text-anchor="middle" font-size="12" font-weight="bold">scal</text>
<line x1="46.0" y1="232" x2="46.0" y2="370" stroke="#f4f4f4"/>
<text x="46.0" y="381" text-anchor="middle" font-size="8" fill="#999">1000</text>
<line x1="79.4" y1="232" x2="79.4" y2="370" stroke="#f4f4f4"/>
<text x="79.4" y="381" text-anchor="middle" font-size="8" fill="#999">2k</text>
<line x1="116.0" y1="232" x2="116.0" y2="370" stroke="#f4f4f4"/>
<text x="116.0" y="381" text-anchor="middle" font-size="8" fill="#999">9k</text>
<line x1="149.4" y1="232" x2="149.4" y2="370" stroke="#f4f4f4"/>
<text x="149.4" y="381" text-anchor="middle" font-size="8" fill="#999">29k</text>
<line x1="186.0" y1="232" x2="186.0" y2="370" stroke="#f4f4f4"/>
<text x="186.0" y="381" text-anchor="middle" font-size="8" fill="#999">97k</text>
<line x1="219.4" y1="232" x2="219.4" y2="370" stroke="#f4f4f4"/>
<text x="219.4" y="381" text-anchor="middle" font-size="8" fill="#999">292k</text>
<line x1="256.0" y1="232" x2="256.0" y2="370" stroke="#f4f4f4"/>
<text x="256.0" y="381" text-anchor="middle" font-size="8" fill="#999">976k</text>
<rect x="276" y="232" width="210" height="138" fill="none" stroke="#e2e2e2"/>
<line x1="276" y1="323.30996732113266" x2="486" y2="323.30996732113266" stroke="#d33" stroke-dasharray="4 3"/>
<text x="272" y="373.0" text-anchor="end" font-size="9" fill="#999">0.5×</text>
<text x="272" y="326.30996732113266" text-anchor="end" font-size="9" fill="#999">1.0×</text>
<polygon points="276.0,306.5 309.4,308.6 346.0,302.2 379.4,301.3 416.0,299.2 449.4,297.6 486.0,301.2 486.0,334.8 449.4,332.1 416.0,333.9 379.4,342.4 346.0,343.5 309.4,354.5 276.0,353.0" fill="#d62728" opacity="0.11"/>
<polyline points="276.0,322.2 309.4,325.5 346.0,318.9 379.4,318.3 416.0,315.6 449.4,311.2 486.0,315.3" fill="none" stroke="#d62728" stroke-width="1.6"/>
<circle cx="276.0" cy="322.2" r="2" fill="#d62728"/>
<circle cx="309.4" cy="325.5" r="2" fill="#d62728"/>
<circle cx="346.0" cy="318.9" r="2" fill="#d62728"/>
<circle cx="379.4" cy="318.3" r="2" fill="#d62728"/>
<circle cx="416.0" cy="315.6" r="2" fill="#d62728"/>
<circle cx="449.4" cy="311.2" r="2" fill="#d62728"/>
<circle cx="486.0" cy="315.3" r="2" fill="#d62728"/>
<polygon points="276.0,246.6 309.4,237.9 346.0,238.4 379.4,238.3 416.0,237.2 449.4,238.2 486.0,276.5 486.0,305.6 449.4,312.6 416.0,316.7 379.4,313.8 346.0,313.8 309.4,314.1 276.0,316.4" fill="#2ca02c" opacity="0.11"/>
<polyline points="276.0,303.4 309.4,302.2 346.0,302.1 379.4,301.4 416.0,302.0 449.4,291.6 486.0,287.4" fill="none" stroke="#2ca02c" stroke-width="1.6"/>
<circle cx="276.0" cy="303.4" r="2" fill="#2ca02c"/>
<circle cx="309.4" cy="302.2" r="2" fill="#2ca02c"/>
<circle cx="346.0" cy="302.1" r="2" fill="#2ca02c"/>
<circle cx="379.4" cy="301.4" r="2" fill="#2ca02c"/>
<circle cx="416.0" cy="302.0" r="2" fill="#2ca02c"/>
<circle cx="449.4" cy="291.6" r="2" fill="#2ca02c"/>
<circle cx="486.0" cy="287.4" r="2" fill="#2ca02c"/>
<polygon points="276.0,294.5 309.4,292.6 346.0,286.5 379.4,288.3 416.0,282.8 449.4,285.3 486.0,285.3 486.0,324.4 449.4,324.4 416.0,316.2 379.4,320.8 346.0,320.5 309.4,329.8 276.0,332.0" fill="#1f77b4" opacity="0.11"/>
<polyline points="276.0,312.0 309.4,307.6 346.0,300.6 379.4,301.0 416.0,298.4 449.4,298.3 486.0,303.7" fill="none" stroke="#1f77b4" stroke-width="1.6"/>
<circle cx="276.0" cy="312.0" r="2" fill="#1f77b4"/>
<circle cx="309.4" cy="307.6" r="2" fill="#1f77b4"/>
<circle cx="346.0" cy="300.6" r="2" fill="#1f77b4"/>
<circle cx="379.4" cy="301.0" r="2" fill="#1f77b4"/>
<circle cx="416.0" cy="298.4" r="2" fill="#1f77b4"/>
<circle cx="449.4" cy="298.3" r="2" fill="#1f77b4"/>
<circle cx="486.0" cy="303.7" r="2" fill="#1f77b4"/>
<text x="381.0" y="227" text-anchor="middle" font-size="12" font-weight="bold">iamax</text>
<line x1="276.0" y1="232" x2="276.0" y2="370" stroke="#f4f4f4"/>
<text x="276.0" y="381" text-anchor="middle" font-size="8" fill="#999">1000</text>
<line x1="309.4" y1="232" x2="309.4" y2="370" stroke="#f4f4f4"/>
<text x="309.4" y="381" text-anchor="middle" font-size="8" fill="#999">2k</text>
<line x1="346.0" y1="232" x2="346.0" y2="370" stroke="#f4f4f4"/>
<text x="346.0" y="381" text-anchor="middle" font-size="8" fill="#999">9k</text>
<line x1="379.4" y1="232" x2="379.4" y2="370" stroke="#f4f4f4"/>
<text x="379.4" y="381" text-anchor="middle" font-size="8" fill="#999">29k</text>
<line x1="416.0" y1="232" x2="416.0" y2="370" stroke="#f4f4f4"/>
<text x="416.0" y="381" text-anchor="middle" font-size="8" fill="#999">97k</text>
<line x1="449.4" y1="232" x2="449.4" y2="370" stroke="#f4f4f4"/>
<text x="449.4" y="381" text-anchor="middle" font-size="8" fill="#999">292k</text>
<line x1="486.0" y1="232" x2="486.0" y2="370" stroke="#f4f4f4"/>
<text x="486.0" y="381" text-anchor="middle" font-size="8" fill="#999">976k</text>
</svg>
