<svg xmlns="http://www.w3.org/2000/svg" width="962" height="420" font-family="sans-serif">
<rect width="962" height="420" fill="white"/>
<text x="481.0" y="26" text-anchor="middle" font-size="17" font-weight="bold">BLAS-3 — PureBLAS / OpenBLAS (PB/OpenBLAS ratio)</text>
<line x1="46" y1="42" x2="68" y2="42" stroke="#d62728" stroke-width="3"/>
<text x="73" y="46" font-size="12">Zen3 · AVX2</text>
<line x1="176" y1="42" x2="198" y2="42" stroke="#2ca02c" stroke-width="3"/>
<text x="203" y="46" font-size="12">Zen5 · AVX-512</text>
<line x1="327" y1="42" x2="349" y2="42" stroke="#1f77b4" stroke-width="3"/>
<text x="354" y="46" font-size="12">Zen4 · AVX-512</text>
<rect x="46" y="60" width="210" height="138" fill="none" stroke="#e2e2e2"/>
<line x1="46" y1="131.9366417204872" x2="256" y2="131.9366417204872" stroke="#d33" stroke-dasharray="4 3"/>
<text x="42" y="201.0" text-anchor="end" font-size="9" fill="#999">0.5×</text>
<text x="42" y="134.9366417204872" text-anchor="end" font-size="9" fill="#999">1.0×</text>
<polygon points="46.0,67.3 92.7,98.5 139.3,114.6 162.7,123.4 186.0,122.4 209.3,117.7 232.7,110.5 256.0,99.1 256.0,101.7 232.7,112.1 209.3,119.2 186.0,124.0 162.7,124.9 139.3,116.5 92.7,100.8 46.0,74.5" fill="#d62728" opacity="0.11"/>
<polyline points="46.0,67.9 92.7,99.5 139.3,115.8 162.7,124.6 186.0,123.9 209.3,118.6 232.7,111.2 256.0,101.0" fill="none" stroke="#d62728" stroke-width="1.6"/>
<circle cx="46.0" cy="67.9" r="2" fill="#d62728"/>
<circle cx="92.7" cy="99.5" r="2" fill="#d62728"/>
<circle cx="139.3" cy="115.8" r="2" fill="#d62728"/>
<circle cx="162.7" cy="124.6" r="2" fill="#d62728"/>
<circle cx="186.0" cy="123.9" r="2" fill="#d62728"/>
<circle cx="209.3" cy="118.6" r="2" fill="#d62728"/>
<circle cx="232.7" cy="111.2" r="2" fill="#d62728"/>
<circle cx="256.0" cy="101.0" r="2" fill="#d62728"/>
<polygon points="46.0,115.4 92.7,129.8 139.3,104.5 162.7,113.1 186.0,116.1 209.3,112.7 232.7,105.7 256.0,95.2 256.0,95.5 232.7,106.3 209.3,113.4 186.0,116.7 162.7,115.6 139.3,105.6 92.7,133.6 46.0,123.5" fill="#2ca02c" opacity="0.11"/>
<polyline points="46.0,120.9 92.7,131.5 139.3,105.1 162.7,113.8 186.0,116.4 209.3,113.2 232.7,105.9 256.0,95.4" fill="none" stroke="#2ca02c" stroke-width="1.6"/>
<circle cx="46.0" cy="120.9" r="2" fill="#2ca02c"/>
<circle cx="92.7" cy="131.5" r="2" fill="#2ca02c"/>
<circle cx="139.3" cy="105.1" r="2" fill="#2ca02c"/>
<circle cx="162.7" cy="113.8" r="2" fill="#2ca02c"/>
<circle cx="186.0" cy="116.4" r="2" fill="#2ca02c"/>
<circle cx="209.3" cy="113.2" r="2" fill="#2ca02c"/>
<circle cx="232.7" cy="105.9" r="2" fill="#2ca02c"/>
<circle cx="256.0" cy="95.4" r="2" fill="#2ca02c"/>
<polygon points="46.0,119.7 92.7,127.3 139.3,113.4 162.7,123.2 186.0,127.6 209.3,125.1 232.7,117.3 256.0,107.2 256.0,108.0 232.7,117.5 209.3,125.4 186.0,127.9 162.7,126.2 139.3,114.3 92.7,129.7 46.0,121.8" fill="#1f77b4" opacity="0.11"/>
<polyline points="46.0,120.9 92.7,129.0 139.3,113.8 162.7,123.7 186.0,127.7 209.3,125.2 232.7,117.4 256.0,107.7" fill="none" stroke="#1f77b4" stroke-width="1.6"/>
<circle cx="46.0" cy="120.9" r="2" fill="#1f77b4"/>
<circle cx="92.7" cy="129.0" r="2" fill="#1f77b4"/>
<circle cx="139.3" cy="113.8" r="2" fill="#1f77b4"/>
<circle cx="162.7" cy="123.7" r="2" fill="#1f77b4"/>
<circle cx="186.0" cy="127.7" r="2" fill="#1f77b4"/>
<circle cx="209.3" cy="125.2" r="2" fill="#1f77b4"/>
<circle cx="232.7" cy="117.4" r="2" fill="#1f77b4"/>
<circle cx="256.0" cy="107.7" r="2" fill="#1f77b4"/>
<text x="151.0" y="55" text-anchor="middle" font-size="12" font-weight="bold">gemm</text>
<line x1="46.0" y1="60" x2="46.0" y2="198" stroke="#f4f4f4"/>
<text x="46.0" y="209" text-anchor="middle" font-size="8" fill="#999">8</text>
<line x1="92.7" y1="60" x2="92.7" y2="198" stroke="#f4f4f4"/>
<text x="92.7" y="209" text-anchor="middle" font-size="8" fill="#999">32</text>
<line x1="139.3" y1="60" x2="139.3" y2="198" stroke="#f4f4f4"/>
<text x="139.3" y="209" text-anchor="middle" font-size="8" fill="#999">128</text>
<line x1="162.7" y1="60" x2="162.7" y2="198" stroke="#f4f4f4"/>
<text x="162.7" y="209" text-anchor="middle" font-size="8" fill="#999">256</text>
<line x1="186.0" y1="60" x2="186.0" y2="198" stroke="#f4f4f4"/>
<text x="186.0" y="209" text-anchor="middle" font-size="8" fill="#999">512</text>
<line x1="209.3" y1="60" x2="209.3" y2="198" stroke="#f4f4f4"/>
<text x="209.3" y="209" text-anchor="middle" font-size="8" fill="#999">1k</text>
<line x1="232.7" y1="60" x2="232.7" y2="198" stroke="#f4f4f4"/>
<text x="232.7" y="209" text-anchor="middle" font-size="8" fill="#999">2k</text>
<line x1="256.0" y1="60" x2="256.0" y2="198" stroke="#f4f4f4"/>
<text x="256.0" y="209" text-anchor="middle" font-size="8" fill="#999">4k</text>
<rect x="276" y="60" width="210" height="138" fill="none" stroke="#e2e2e2"/>
<line x1="276" y1="117.08126894728494" x2="486" y2="117.08126894728494" stroke="#d33" stroke-dasharray="4 3"/>
<text x="272" y="201.0" text-anchor="end" font-size="9" fill="#999">0.5×</text>
<text x="272" y="120.08126894728494" text-anchor="end" font-size="9" fill="#999">1.0×</text>
<text x="272" y="63.04392402884241" text-anchor="end" font-size="9" fill="#999">1.63×</text>
<polygon points="276.0,86.6 322.7,89.2 369.3,107.1 392.7,118.0 416.0,113.2 439.3,109.7 462.7,108.8 486.0,108.4 486.0,109.3 462.7,111.2 439.3,112.1 416.0,115.3 392.7,120.0 369.3,111.6 322.7,106.6 276.0,99.2" fill="#d62728" opacity="0.11"/>
<polyline points="276.0,98.0 322.7,96.1 369.3,108.8 392.7,119.7 416.0,115.1 439.3,111.7 462.7,110.6 486.0,108.8" fill="none" stroke="#d62728" stroke-width="1.6"/>
<circle cx="276.0" cy="98.0" r="2" fill="#d62728"/>
<circle cx="322.7" cy="96.1" r="2" fill="#d62728"/>
<circle cx="369.3" cy="108.8" r="2" fill="#d62728"/>
<circle cx="392.7" cy="119.7" r="2" fill="#d62728"/>
<circle cx="416.0" cy="115.1" r="2" fill="#d62728"/>
<circle cx="439.3" cy="111.7" r="2" fill="#d62728"/>
<circle cx="462.7" cy="110.6" r="2" fill="#d62728"/>
<circle cx="486.0" cy="108.8" r="2" fill="#d62728"/>
<polygon points="276.0,69.0 322.7,81.2 369.3,91.3 392.7,100.1 416.0,101.5 439.3,103.0 462.7,103.7 486.0,103.7 486.0,103.8 462.7,104.0 439.3,103.6 416.0,102.2 392.7,100.7 369.3,92.5 322.7,84.0 276.0,79.7" fill="#2ca02c" opacity="0.11"/>
<polyline points="276.0,70.5 322.7,83.1 369.3,91.8 392.7,100.4 416.0,101.9 439.3,103.3 462.7,103.8 486.0,103.8" fill="none" stroke="#2ca02c" stroke-width="1.6"/>
<circle cx="276.0" cy="70.5" r="2" fill="#2ca02c"/>
<circle cx="322.7" cy="83.1" r="2" fill="#2ca02c"/>
<circle cx="369.3" cy="91.8" r="2" fill="#2ca02c"/>
<circle cx="392.7" cy="100.4" r="2" fill="#2ca02c"/>
<circle cx="416.0" cy="101.9" r="2" fill="#2ca02c"/>
<circle cx="439.3" cy="103.3" r="2" fill="#2ca02c"/>
<circle cx="462.7" cy="103.8" r="2" fill="#2ca02c"/>
<circle cx="486.0" cy="103.8" r="2" fill="#2ca02c"/>
<polygon points="276.0,79.5 322.7,76.1 369.3,101.9 392.7,117.4 416.0,115.5 439.3,116.1 462.7,117.4 486.0,117.7 486.0,119.2 462.7,118.2 439.3,116.3 416.0,116.0 392.7,118.3 369.3,103.4 322.7,79.1 276.0,91.2" fill="#1f77b4" opacity="0.11"/>
<polyline points="276.0,83.6 322.7,77.5 369.3,102.7 392.7,117.8 416.0,115.8 439.3,116.2 462.7,117.9 486.0,118.5" fill="none" stroke="#1f77b4" stroke-width="1.6"/>
<circle cx="276.0" cy="83.6" r="2" fill="#1f77b4"/>
<circle cx="322.7" cy="77.5" r="2" fill="#1f77b4"/>
<circle cx="369.3" cy="102.7" r="2" fill="#1f77b4"/>
<circle cx="392.7" cy="117.8" r="2" fill="#1f77b4"/>
<circle cx="416.0" cy="115.8" r="2" fill="#1f77b4"/>
<circle cx="439.3" cy="116.2" r="2" fill="#1f77b4"/>
<circle cx="462.7" cy="117.9" r="2" fill="#1f77b4"/>
<circle cx="486.0" cy="118.5" r="2" fill="#1f77b4"/>
<text x="381.0" y="55" text-anchor="middle" font-size="12" font-weight="bold">symm</text>
<line x1="276.0" y1="60" x2="276.0" y2="198" stroke="#f4f4f4"/>
<text x="276.0" y="209" text-anchor="middle" font-size="8" fill="#999">8</text>
<line x1="322.7" y1="60" x2="322.7" y2="198" stroke="#f4f4f4"/>
<text x="322.7" y="209" text-anchor="middle" font-size="8" fill="#999">32</text>
<line x1="369.3" y1="60" x2="369.3" y2="198" stroke="#f4f4f4"/>
<text x="369.3" y="209" text-anchor="middle" font-size="8" fill="#999">128</text>
<line x1="392.7" y1="60" x2="392.7" y2="198" stroke="#f4f4f4"/>
<text x="392.7" y="209" text-anchor="middle" font-size="8" fill="#999">256</text>
<line x1="416.0" y1="60" x2="416.0" y2="198" stroke="#f4f4f4"/>
<text x="416.0" y="209" text-anchor="middle" font-size="8" fill="#999">512</text>
<line x1="439.3" y1="60" x2="439.3" y2="198" stroke="#f4f4f4"/>
<text x="439.3" y="209" text-anchor="middle" font-size="8" fill="#999">1k</text>
<line x1="462.7" y1="60" x2="462.7" y2="198" stroke="#f4f4f4"/>
<text x="462.7" y="209" text-anchor="middle" font-size="8" fill="#999">2k</text>
<line x1="486.0" y1="60" x2="486.0" y2="198" stroke="#f4f4f4"/>
<text x="486.0" y="209" text-anchor="middle" font-size="8" fill="#999">4k</text>
<rect x="506" y="60" width="210" height="138" fill="none" stroke="#e2e2e2"/>
<line x1="506" y1="122.24025266846358" x2="716" y2="122.24025266846358" stroke="#d33" stroke-dasharray="4 3"/>
<text x="502" y="201.0" text-anchor="end" font-size="9" fill="#999">0.5×</text>
<text x="502" y="125.24025266846358" text-anchor="end" font-size="9" fill="#999">1.0×</text>
<polygon points="506.0,83.7 552.7,107.6 599.3,116.0 622.7,120.2 646.0,116.9 669.3,116.7 692.7,118.0 716.0,116.3 716.0,117.5 692.7,119.2 669.3,118.2 646.0,118.4 622.7,123.4 599.3,120.5 552.7,115.4 506.0,88.9" fill="#d62728" opacity="0.11"/>
<polyline points="506.0,85.3 552.7,113.7 599.3,118.9 622.7,120.7 646.0,117.9 669.3,116.8 692.7,118.7 716.0,116.7" fill="none" stroke="#d62728" stroke-width="1.6"/>
<circle cx="506.0" cy="85.3" r="2" fill="#d62728"/>
<circle cx="552.7" cy="113.7" r="2" fill="#d62728"/>
<circle cx="599.3" cy="118.9" r="2" fill="#d62728"/>
<circle cx="622.7" cy="120.7" r="2" fill="#d62728"/>
<circle cx="646.0" cy="117.9" r="2" fill="#d62728"/>
<circle cx="669.3" cy="116.8" r="2" fill="#d62728"/>
<circle cx="692.7" cy="118.7" r="2" fill="#d62728"/>
<circle cx="716.0" cy="116.7" r="2" fill="#d62728"/>
<polygon points="506.0,68.4 552.7,89.1 599.3,96.6 622.7,95.3 646.0,99.0 669.3,104.9 692.7,110.3 716.0,114.9 716.0,115.0 692.7,110.8 669.3,105.9 646.0,99.4 622.7,97.6 599.3,99.5 552.7,91.4 506.0,78.6" fill="#2ca02c" opacity="0.11"/>
<polyline points="506.0,70.0 552.7,90.2 599.3,97.9 622.7,95.7 646.0,99.2 669.3,105.4 692.7,110.7 716.0,114.9" fill="none" stroke="#2ca02c" stroke-width="1.6"/>
<circle cx="506.0" cy="70.0" r="2" fill="#2ca02c"/>
<circle cx="552.7" cy="90.2" r="2" fill="#2ca02c"/>
<circle cx="599.3" cy="97.9" r="2" fill="#2ca02c"/>
<circle cx="622.7" cy="95.7" r="2" fill="#2ca02c"/>
<circle cx="646.0" cy="99.2" r="2" fill="#2ca02c"/>
<circle cx="669.3" cy="105.4" r="2" fill="#2ca02c"/>
<circle cx="692.7" cy="110.7" r="2" fill="#2ca02c"/>
<circle cx="716.0" cy="114.9" r="2" fill="#2ca02c"/>
<polygon points="506.0,85.3 552.7,94.3 599.3,105.7 622.7,109.0 646.0,112.4 669.3,119.4 692.7,125.2 716.0,127.5 716.0,128.3 692.7,126.3 669.3,120.4 646.0,112.6 622.7,111.8 599.3,106.5 552.7,96.9 506.0,87.8" fill="#1f77b4" opacity="0.11"/>
<polyline points="506.0,85.6 552.7,95.6 599.3,106.1 622.7,109.5 646.0,112.5 669.3,119.7 692.7,125.5 716.0,127.7" fill="none" stroke="#1f77b4" stroke-width="1.6"/>
<circle cx="506.0" cy="85.6" r="2" fill="#1f77b4"/>
<circle cx="552.7" cy="95.6" r="2" fill="#1f77b4"/>
<circle cx="599.3" cy="106.1" r="2" fill="#1f77b4"/>
<circle cx="622.7" cy="109.5" r="2" fill="#1f77b4"/>
<circle cx="646.0" cy="112.5" r="2" fill="#1f77b4"/>
<circle cx="669.3" cy="119.7" r="2" fill="#1f77b4"/>
<circle cx="692.7" cy="125.5" r="2" fill="#1f77b4"/>
<circle cx="716.0" cy="127.7" r="2" fill="#1f77b4"/>
<text x="611.0" y="55" text-anchor="middle" font-size="12" font-weight="bold">syrk</text>
<line x1="506.0" y1="60" x2="506.0" y2="198" stroke="#f4f4f4"/>
<text x="506.0" y="209" text-anchor="middle" font-size="8" fill="#999">8</text>
<line x1="552.7" y1="60" x2="552.7" y2="198" stroke="#f4f4f4"/>
<text x="552.7" y="209" text-anchor="middle" font-size="8" fill="#999">32</text>
<line x1="599.3" y1="60" x2="599.3" y2="198" stroke="#f4f4f4"/>
<text x="599.3" y="209" text-anchor="middle" font-size="8" fill="#999">128</text>
<line x1="622.7" y1="60" x2="622.7" y2="198" stroke="#f4f4f4"/>
<text x="622.7" y="209" text-anchor="middle" font-size="8" fill="#999">256</text>
<line x1="646.0" y1="60" x2="646.0" y2="198" stroke="#f4f4f4"/>
<text x="646.0" y="209" text-anchor="middle" font-size="8" fill="#999">512</text>
<line x1="669.3" y1="60" x2="669.3" y2="198" stroke="#f4f4f4"/>
<text x="669.3" y="209" text-anchor="middle" font-size="8" fill="#999">1k</text>
<line x1="692.7" y1="60" x2="692.7" y2="198" stroke="#f4f4f4"/>
<text x="692.7" y="209" text-anchor="middle" font-size="8" fill="#999">2k</text>
<line x1="716.0" y1="60" x2="716.0" y2="198" stroke="#f4f4f4"/>
<text x="716.0" y="209" text-anchor="middle" font-size="8" fill="#999">4k</text>
<rect x="736" y="60" width="210" height="138" fill="none" stroke="#e2e2e2"/>
<line x1="736" y1="123.55880969019918" x2="946" y2="123.55880969019918" stroke="#d33" stroke-dasharray="4 3"/>
<text x="732" y="201.0" text-anchor="end" font-size="9" fill="#999">0.5×</text>
<text x="732" y="126.55880969019918" text-anchor="end" font-size="9" fill="#999">1.0×</text>
<polygon points="736.0,68.3 782.7,87.2 829.3,121.0 852.7,126.5 876.0,122.9 899.3,119.8 922.7,119.1 946.0,117.7 946.0,118.1 922.7,122.0 899.3,120.6 876.0,123.5 852.7,127.6 829.3,128.5 782.7,101.4 736.0,73.3" fill="#d62728" opacity="0.11"/>
<polyline points="736.0,69.7 782.7,91.5 829.3,125.7 852.7,127.1 876.0,123.3 899.3,120.1 922.7,120.9 946.0,118.0" fill="none" stroke="#d62728" stroke-width="1.6"/>
<circle cx="736.0" cy="69.7" r="2" fill="#d62728"/>
<circle cx="782.7" cy="91.5" r="2" fill="#d62728"/>
<circle cx="829.3" cy="125.7" r="2" fill="#d62728"/>
<circle cx="852.7" cy="127.1" r="2" fill="#d62728"/>
<circle cx="876.0" cy="123.3" r="2" fill="#d62728"/>
<circle cx="899.3" cy="120.1" r="2" fill="#d62728"/>
<circle cx="922.7" cy="120.9" r="2" fill="#d62728"/>
<circle cx="946.0" cy="118.0" r="2" fill="#d62728"/>
<polygon points="736.0,73.7 782.7,82.4 829.3,76.8 852.7,85.3 876.0,101.8 899.3,110.3 922.7,115.1 946.0,116.7 946.0,117.0 922.7,115.6 899.3,112.3 876.0,102.6 852.7,87.3 829.3,80.7 782.7,86.7 736.0,79.8" fill="#2ca02c" opacity="0.11"/>
<polyline points="736.0,75.6 782.7,85.2 829.3,78.5 852.7,86.2 876.0,102.1 899.3,111.0 922.7,115.3 946.0,116.8" fill="none" stroke="#2ca02c" stroke-width="1.6"/>
<circle cx="736.0" cy="75.6" r="2" fill="#2ca02c"/>
<circle cx="782.7" cy="85.2" r="2" fill="#2ca02c"/>
<circle cx="829.3" cy="78.5" r="2" fill="#2ca02c"/>
<circle cx="852.7" cy="86.2" r="2" fill="#2ca02c"/>
<circle cx="876.0" cy="102.1" r="2" fill="#2ca02c"/>
<circle cx="899.3" cy="111.0" r="2" fill="#2ca02c"/>
<circle cx="922.7" cy="115.3" r="2" fill="#2ca02c"/>
<circle cx="946.0" cy="116.8" r="2" fill="#2ca02c"/>
<polygon points="736.0,82.7 782.7,93.7 829.3,98.2 852.7,102.3 876.0,116.8 899.3,123.7 922.7,126.1 946.0,126.8 946.0,128.0 922.7,126.3 899.3,123.9 876.0,117.3 852.7,107.0 829.3,99.4 782.7,97.2 736.0,93.8" fill="#1f77b4" opacity="0.11"/>
<polyline points="736.0,83.6 782.7,95.1 829.3,99.0 852.7,103.6 876.0,117.1 899.3,123.8 922.7,126.2 946.0,127.3" fill="none" stroke="#1f77b4" stroke-width="1.6"/>
<circle cx="736.0" cy="83.6" r="2" fill="#1f77b4"/>
<circle cx="782.7" cy="95.1" r="2" fill="#1f77b4"/>
<circle cx="829.3" cy="99.0" r="2" fill="#1f77b4"/>
<circle cx="852.7" cy="103.6" r="2" fill="#1f77b4"/>
<circle cx="876.0" cy="117.1" r="2" fill="#1f77b4"/>
<circle cx="899.3" cy="123.8" r="2" fill="#1f77b4"/>
<circle cx="922.7" cy="126.2" r="2" fill="#1f77b4"/>
<circle cx="946.0" cy="127.3" r="2" fill="#1f77b4"/>
<text x="841.0" y="55" text-anchor="middle" font-size="12" font-weight="bold">syr2k</text>
<line x1="736.0" y1="60" x2="736.0" y2="198" stroke="#f4f4f4"/>
<text x="736.0" y="209" text-anchor="middle" font-size="8" fill="#999">8</text>
<line x1="782.7" y1="60" x2="782.7" y2="198" stroke="#f4f4f4"/>
<text x="782.7" y="209" text-anchor="middle" font-size="8" fill="#999">32</text>
<line x1="829.3" y1="60" x2="829.3" y2="198" stroke="#f4f4f4"/>
<text x="829.3" y="209" text-anchor="middle" font-size="8" fill="#999">128</text>
<line x1="852.7" y1="60" x2="852.7" y2="198" stroke="#f4f4f4"/>
<text x="852.7" y="209" text-anchor="middle" font-size="8" fill="#999">256</text>
<line x1="876.0" y1="60" x2="876.0" y2="198" stroke="#f4f4f4"/>
<text x="876.0" y="209" text-anchor="middle" font-size="8" fill="#999">512</text>
<line x1="899.3" y1="60" x2="899.3" y2="198" stroke="#f4f4f4"/>
<text x="899.3" y="209" text-anchor="middle" font-size="8" fill="#999">1k</text>
<line x1="922.7" y1="60" x2="922.7" y2="198" stroke="#f4f4f4"/>
<text x="922.7" y="209" text-anchor="middle" font-size="8" fill="#999">2k</text>
<line x1="946.0" y1="60" x2="946.0" y2="198" stroke="#f4f4f4"/>
<text x="946.0" y="209" text-anchor="middle" font-size="8" fill="#999">4k</text>
<rect x="46" y="232" width="210" height="138" fill="none" stroke="#e2e2e2"/>
<line x1="46" y1="289.44138149646074" x2="256" y2="289.44138149646074" stroke="#d33" stroke-dasharray="4 3"/>
<text x="42" y="373.0" text-anchor="end" font-size="9" fill="#999">0.5×</text>
<text x="42" y="292.44138149646074" text-anchor="end" font-size="9" fill="#999">1.0×</text>
<polygon points="46.0,310.4 92.7,257.7 139.3,269.0 162.7,269.5 186.0,274.1 209.3,279.4 232.7,282.3 256.0,280.5 256.0,281.7 232.7,284.6 209.3,281.3 186.0,276.4 162.7,271.6 139.3,272.3 92.7,297.0 46.0,314.2" fill="#d62728" opacity="0.11"/>
<polyline points="46.0,311.8 92.7,276.1 139.3,271.6 162.7,270.8 186.0,274.7 209.3,281.1 232.7,283.9 256.0,281.4" fill="none" stroke="#d62728" stroke-width="1.6"/>
<circle cx="46.0" cy="311.8" r="2" fill="#d62728"/>
<circle cx="92.7" cy="276.1" r="2" fill="#d62728"/>
<circle cx="139.3" cy="271.6" r="2" fill="#d62728"/>
<circle cx="162.7" cy="270.8" r="2" fill="#d62728"/>
<circle cx="186.0" cy="274.7" r="2" fill="#d62728"/>
<circle cx="209.3" cy="281.1" r="2" fill="#d62728"/>
<circle cx="232.7" cy="283.9" r="2" fill="#d62728"/>
<circle cx="256.0" cy="281.4" r="2" fill="#d62728"/>
<polygon points="46.0,240.9 92.7,259.6 139.3,260.6 162.7,263.4 186.0,275.8 209.3,276.1 232.7,278.5 256.0,278.0 256.0,278.4 232.7,278.7 209.3,278.0 186.0,277.5 162.7,265.2 139.3,261.7 92.7,264.0 46.0,257.7" fill="#2ca02c" opacity="0.11"/>
<polyline points="46.0,253.0 92.7,261.7 139.3,261.2 162.7,264.1 186.0,276.8 209.3,277.1 232.7,278.6 256.0,278.3" fill="none" stroke="#2ca02c" stroke-width="1.6"/>
<circle cx="46.0" cy="253.0" r="2" fill="#2ca02c"/>
<circle cx="92.7" cy="261.7" r="2" fill="#2ca02c"/>
<circle cx="139.3" cy="261.2" r="2" fill="#2ca02c"/>
<circle cx="162.7" cy="264.1" r="2" fill="#2ca02c"/>
<circle cx="186.0" cy="276.8" r="2" fill="#2ca02c"/>
<circle cx="209.3" cy="277.1" r="2" fill="#2ca02c"/>
<circle cx="232.7" cy="278.6" r="2" fill="#2ca02c"/>
<circle cx="256.0" cy="278.3" r="2" fill="#2ca02c"/>
<polygon points="46.0,254.8 92.7,274.4 139.3,273.0 162.7,276.5 186.0,288.3 209.3,292.4 232.7,293.5 256.0,292.6 256.0,293.4 232.7,293.9 209.3,293.0 186.0,289.8 162.7,277.4 139.3,274.1 92.7,291.8 46.0,258.6" fill="#1f77b4" opacity="0.11"/>
<polyline points="46.0,256.5 92.7,278.3 139.3,273.4 162.7,276.8 186.0,289.4 209.3,292.8 232.7,293.7 256.0,293.0" fill="none" stroke="#1f77b4" stroke-width="1.6"/>
<circle cx="46.0" cy="256.5" r="2" fill="#1f77b4"/>
<circle cx="92.7" cy="278.3" r="2" fill="#1f77b4"/>
<circle cx="139.3" cy="273.4" r="2" fill="#1f77b4"/>
<circle cx="162.7" cy="276.8" r="2" fill="#1f77b4"/>
<circle cx="186.0" cy="289.4" r="2" fill="#1f77b4"/>
<circle cx="209.3" cy="292.8" r="2" fill="#1f77b4"/>
<circle cx="232.7" cy="293.7" r="2" fill="#1f77b4"/>
<circle cx="256.0" cy="293.0" r="2" fill="#1f77b4"/>
<text x="151.0" y="227" text-anchor="middle" font-size="12" font-weight="bold">trmm</text>
<line x1="46.0" y1="232" x2="46.0" y2="370" stroke="#f4f4f4"/>
<text x="46.0" y="381" text-anchor="middle" font-size="8" fill="#999">8</text>
<line x1="92.7" y1="232" x2="92.7" y2="370" stroke="#f4f4f4"/>
<text x="92.7" y="381" text-anchor="middle" font-size="8" fill="#999">32</text>
<line x1="139.3" y1="232" x2="139.3" y2="370" stroke="#f4f4f4"/>
<text x="139.3" y="381" text-anchor="middle" font-size="8" fill="#999">128</text>
<line x1="162.7" y1="232" x2="162.7" y2="370" stroke="#f4f4f4"/>
<text x="162.7" y="381" text-anchor="middle" font-size="8" fill="#999">256</text>
<line x1="186.0" y1="232" x2="186.0" y2="370" stroke="#f4f4f4"/>
<text x="186.0" y="381" text-anchor="middle" font-size="8" fill="#999">512</text>
<line x1="209.3" y1="232" x2="209.3" y2="370" stroke="#f4f4f4"/>
<text x="209.3" y="381" text-anchor="middle" font-size="8" fill="#999">1k</text>
<line x1="232.7" y1="232" x2="232.7" y2="370" stroke="#f4f4f4"/>
<text x="232.7" y="381" text-anchor="middle" font-size="8" fill="#999">2k</text>
<line x1="256.0" y1="232" x2="256.0" y2="370" stroke="#f4f4f4"/>
<text x="256.0" y="381" text-anchor="middle" font-size="8" fill="#999">4k</text>
<rect x="276" y="232" width="210" height="138" fill="none" stroke="#e2e2e2"/>
<line x1="276" y1="323.17576746299005" x2="486" y2="323.17576746299005" stroke="#d33" stroke-dasharray="4 3"/>
<text x="272" y="373.0" text-anchor="end" font-size="9" fill="#999">0.5×</text>
<text x="272" y="326.17576746299005" text-anchor="end" font-size="9" fill="#999">1.0×</text>
<polygon points="276.0,316.1 322.7,283.7 369.3,293.1 392.7,303.4 416.0,306.5 439.3,311.6 462.7,313.1 486.0,312.5 486.0,318.1 462.7,316.0 439.3,312.7 416.0,308.7 392.7,304.9 369.3,296.1 322.7,303.3 276.0,321.4" fill="#d62728" opacity="0.11"/>
<polyline points="276.0,316.5 322.7,291.7 369.3,295.4 392.7,303.7 416.0,306.9 439.3,312.3 462.7,313.8 486.0,313.2" fill="none" stroke="#d62728" stroke-width="1.6"/>
<circle cx="276.0" cy="316.5" r="2" fill="#d62728"/>
<circle cx="322.7" cy="291.7" r="2" fill="#d62728"/>
<circle cx="369.3" cy="295.4" r="2" fill="#d62728"/>
<circle cx="392.7" cy="303.7" r="2" fill="#d62728"/>
<circle cx="416.0" cy="306.9" r="2" fill="#d62728"/>
<circle cx="439.3" cy="312.3" r="2" fill="#d62728"/>
<circle cx="462.7" cy="313.8" r="2" fill="#d62728"/>
<circle cx="486.0" cy="313.2" r="2" fill="#d62728"/>
<polygon points="276.0,284.0 322.7,237.2 369.3,256.6 392.7,269.8 416.0,289.8 439.3,299.9 462.7,305.6 486.0,305.6 486.0,312.4 462.7,305.9 439.3,300.2 416.0,290.1 392.7,271.1 369.3,258.5 322.7,244.4 276.0,291.9" fill="#2ca02c" opacity="0.11"/>
<polyline points="276.0,286.6 322.7,238.9 369.3,257.3 392.7,270.2 416.0,289.9 439.3,300.1 462.7,305.8 486.0,305.7" fill="none" stroke="#2ca02c" stroke-width="1.6"/>
<circle cx="276.0" cy="286.6" r="2" fill="#2ca02c"/>
<circle cx="322.7" cy="238.9" r="2" fill="#2ca02c"/>
<circle cx="369.3" cy="257.3" r="2" fill="#2ca02c"/>
<circle cx="392.7" cy="270.2" r="2" fill="#2ca02c"/>
<circle cx="416.0" cy="289.9" r="2" fill="#2ca02c"/>
<circle cx="439.3" cy="300.1" r="2" fill="#2ca02c"/>
<circle cx="462.7" cy="305.8" r="2" fill="#2ca02c"/>
<circle cx="486.0" cy="305.7" r="2" fill="#2ca02c"/>
<polygon points="276.0,295.5 322.7,253.1 369.3,254.6 392.7,268.2 416.0,291.5 439.3,303.7 462.7,311.6 486.0,313.4 486.0,317.4 462.7,312.3 439.3,304.1 416.0,292.7 392.7,269.8 369.3,255.8 322.7,263.1 276.0,297.0" fill="#1f77b4" opacity="0.11"/>
<polyline points="276.0,296.1 322.7,255.1 369.3,255.1 392.7,269.1 416.0,291.8 439.3,303.9 462.7,312.0 486.0,315.3" fill="none" stroke="#1f77b4" stroke-width="1.6"/>
<circle cx="276.0" cy="296.1" r="2" fill="#1f77b4"/>
<circle cx="322.7" cy="255.1" r="2" fill="#1f77b4"/>
<circle cx="369.3" cy="255.1" r="2" fill="#1f77b4"/>
<circle cx="392.7" cy="269.1" r="2" fill="#1f77b4"/>
<circle cx="416.0" cy="291.8" r="2" fill="#1f77b4"/>
<circle cx="439.3" cy="303.9" r="2" fill="#1f77b4"/>
<circle cx="462.7" cy="312.0" r="2" fill="#1f77b4"/>
<circle cx="486.0" cy="315.3" r="2" fill="#1f77b4"/>
<text x="381.0" y="227" text-anchor="middle" font-size="12" font-weight="bold">trsm</text>
<line x1="276.0" y1="232" x2="276.0" y2="370" stroke="#f4f4f4"/>
<text x="276.0" y="381" text-anchor="middle" font-size="8" fill="#999">8</text>
<line x1="322.7" y1="232" x2="322.7" y2="370" stroke="#f4f4f4"/>
<text x="322.7" y="381" text-anchor="middle" font-size="8" fill="#999">32</text>
<line x1="369.3" y1="232" x2="369.3" y2="370" stroke="#f4f4f4"/>
<text x="369.3" y="381" text-anchor="middle" font-size="8" fill="#999">128</text>
<line x1="392.7" y1="232" x2="392.7" y2="370" stroke="#f4f4f4"/>
<text x="392.7" y="381" text-anchor="middle" font-size="8" fill="#999">256</text>
<line x1="416.0" y1="232" x2="416.0" y2="370" stroke="#f4f4f4"/>
<text x="416.0" y="381" text-anchor="middle" font-size="8" fill="#999">512</text>
<line x1="439.3" y1="232" x2="439.3" y2="370" stroke="#f4f4f4"/>
<text x="439.3" y="381" text-anchor="middle" font-size="8" fill="#999">1k</text>
<line x1="462.7" y1="232" x2="462.7" y2="370" stroke="#f4f4f4"/>
<text x="462.7" y="381" text-anchor="middle" font-size="8" fill="#999">2k</text>
<line x1="486.0" y1="232" x2="486.0" y2="370" stroke="#f4f4f4"/>
<text x="486.0" y="381" text-anchor="middle" font-size="8" fill="#999">4k</text>
<rect x="506" y="232" width="210" height="138" fill="none" stroke="#e2e2e2"/>
<line x1="506" y1="315.00771472047313" x2="716" y2="315.00771472047313" stroke="#d33" stroke-dasharray="4 3"/>
<text x="502" y="373.0" text-anchor="end" font-size="9" fill="#999">0.5×</text>
<text x="502" y="318.00771472047313" text-anchor="end" font-size="9" fill="#999">1.0×</text>
<polygon points="506.0,281.5 552.7,281.3 599.3,309.0 622.7,308.6 646.0,319.9 669.3,316.5 692.7,313.2 716.0,311.3 716.0,312.1 692.7,314.9 669.3,317.2 646.0,320.9 622.7,310.0 599.3,310.5 552.7,294.9 506.0,298.0" fill="#d62728" opacity="0.11"/>
<polyline points="506.0,282.5 552.7,289.0 599.3,310.0 622.7,309.3 646.0,320.6 669.3,317.0 692.7,314.1 716.0,311.7" fill="none" stroke="#d62728" stroke-width="1.6"/>
<circle cx="506.0" cy="282.5" r="2" fill="#d62728"/>
<circle cx="552.7" cy="289.0" r="2" fill="#d62728"/>
<circle cx="599.3" cy="310.0" r="2" fill="#d62728"/>
<circle cx="622.7" cy="309.3" r="2" fill="#d62728"/>
<circle cx="646.0" cy="320.6" r="2" fill="#d62728"/>
<circle cx="669.3" cy="317.0" r="2" fill="#d62728"/>
<circle cx="692.7" cy="314.1" r="2" fill="#d62728"/>
<circle cx="716.0" cy="311.7" r="2" fill="#d62728"/>
<polygon points="506.0,238.1 552.7,252.1 599.3,260.5 622.7,265.5 646.0,288.2 669.3,295.9 692.7,300.9 716.0,303.5 716.0,303.9 692.7,301.3 669.3,296.5 646.0,288.9 622.7,266.2 599.3,262.0 552.7,257.1 506.0,247.0" fill="#2ca02c" opacity="0.11"/>
<polyline points="506.0,241.2 552.7,253.3 599.3,260.9 622.7,265.8 646.0,288.7 669.3,296.3 692.7,301.1 716.0,303.7" fill="none" stroke="#2ca02c" stroke-width="1.6"/>
<circle cx="506.0" cy="241.2" r="2" fill="#2ca02c"/>
<circle cx="552.7" cy="253.3" r="2" fill="#2ca02c"/>
<circle cx="599.3" cy="260.9" r="2" fill="#2ca02c"/>
<circle cx="622.7" cy="265.8" r="2" fill="#2ca02c"/>
<circle cx="646.0" cy="288.7" r="2" fill="#2ca02c"/>
<circle cx="669.3" cy="296.3" r="2" fill="#2ca02c"/>
<circle cx="692.7" cy="301.1" r="2" fill="#2ca02c"/>
<circle cx="716.0" cy="303.7" r="2" fill="#2ca02c"/>
<polygon points="506.0,247.9 552.7,244.8 599.3,256.3 622.7,261.2 646.0,287.0 669.3,300.2 692.7,307.3 716.0,312.1 716.0,312.4 692.7,307.8 669.3,300.5 646.0,287.6 622.7,262.9 599.3,258.1 552.7,257.2 506.0,251.8" fill="#1f77b4" opacity="0.11"/>
<polyline points="506.0,249.5 552.7,248.0 599.3,257.0 622.7,261.9 646.0,287.2 669.3,300.4 692.7,307.6 716.0,312.3" fill="none" stroke="#1f77b4" stroke-width="1.6"/>
<circle cx="506.0" cy="249.5" r="2" fill="#1f77b4"/>
<circle cx="552.7" cy="248.0" r="2" fill="#1f77b4"/>
<circle cx="599.3" cy="257.0" r="2" fill="#1f77b4"/>
<circle cx="622.7" cy="261.9" r="2" fill="#1f77b4"/>
<circle cx="646.0" cy="287.2" r="2" fill="#1f77b4"/>
<circle cx="669.3" cy="300.4" r="2" fill="#1f77b4"/>
<circle cx="692.7" cy="307.6" r="2" fill="#1f77b4"/>
<circle cx="716.0" cy="312.3" r="2" fill="#1f77b4"/>
<text x="611.0" y="227" text-anchor="middle" font-size="12" font-weight="bold">trsmR</text>
<line x1="506.0" y1="232" x2="506.0" y2="370" stroke="#f4f4f4"/>
<text x="506.0" y="381" text-anchor="middle" font-size="8" fill="#999">8</text>
<line x1="552.7" y1="232" x2="552.7" y2="370" stroke="#f4f4f4"/>
<text x="552.7" y="381" text-anchor="middle" font-size="8" fill="#999">32</text>
<line x1="599.3" y1="232" x2="599.3" y2="370" stroke="#f4f4f4"/>
<text x="599.3" y="381" text-anchor="middle" font-size="8" fill="#999">128</text>
<line x1="622.7" y1="232" x2="622.7" y2="370" stroke="#f4f4f4"/>
<text x="622.7" y="381" text-anchor="middle" font-size="8" fill="#999">256</text>
<line x1="646.0" y1="232" x2="646.0" y2="370" stroke="#f4f4f4"/>
<text x="646.0" y="381" text-anchor="middle" font-size="8" fill="#999">512</text>
<line x1="669.3" y1="232" x2="669.3" y2="370" stroke="#f4f4f4"/>
<text x="669.3" y="381" text-anchor="middle" font-size="8" fill="#999">1k</text>
<line x1="692.7" y1="232" x2="692.7" y2="370" stroke="#f4f4f4"/>
<text x="692.7" y="381" text-anchor="middle" font-size="8" fill="#999">2k</text>
<line x1="716.0" y1="232" x2="716.0" y2="370" stroke="#f4f4f4"/>
<text x="716.0" y="381" text-anchor="middle" font-size="8" fill="#999">4k</text>
</svg>
