<svg xmlns="http://www.w3.org/2000/svg" width="900" height="440" font-family="sans-serif">
<rect width="900" height="440" fill="white"/>
<text x="450.0" y="28" text-anchor="middle" font-size="18" font-weight="bold">BLAS-1: PureBLAS / OpenBLAS (Zen5, 1 thread, Float64)</text>
<line x1="60" y1="358.0" x2="880" y2="358.0" stroke="#eee"/>
<text x="52" y="362.0" text-anchor="end" font-size="11" fill="#666">0×</text>
<line x1="60" y1="348.1956720573941" x2="880" y2="348.1956720573941" stroke="#eee"/>
<text x="52" y="352.1956720573941" text-anchor="end" font-size="11" fill="#666">0.5×</text>
<line x1="60" y1="338.39134411478824" x2="880" y2="338.39134411478824" stroke="#eee"/>
<text x="52" y="342.39134411478824" text-anchor="end" font-size="11" fill="#666">1×</text>
<line x1="60" y1="328.5870161721824" x2="880" y2="328.5870161721824" stroke="#eee"/>
<text x="52" y="332.5870161721824" text-anchor="end" font-size="11" fill="#666">1.5×</text>
<line x1="60" y1="338.39134411478824" x2="880" y2="338.39134411478824" stroke="#888" stroke-width="1"/>
<line x1="60" y1="339.17569035019676" x2="880" y2="339.17569035019676" stroke="#d33" stroke-width="1.5" stroke-dasharray="6 4"/>
<text x="880" y="334.17569035019676" text-anchor="end" font-size="11" fill="#d33">0.96× gate</text>
<polygon points="128.4,339.9 128.4,339.8 128.4,339.8 128.5,339.7 128.5,339.7 128.6,339.6 128.7,339.6 128.7,339.5 128.8,339.5 128.9,339.4 128.9,339.4 129.1,339.3 129.2,339.3 129.5,339.2 129.8,339.2 130.2,339.1 130.8,339.1 131.6,339.0 132.7,339.0 134.0,338.9 135.8,338.9 138.1,338.8 141.3,338.8 145.7,338.7 151.2,338.7 157.9,338.6 165.2,338.6 172.6,338.6 179.1,338.5 183.7,338.5 185.7,338.4 184.8,338.4 180.9,338.3 174.8,338.3 167.3,338.2 159.3,338.2 151.7,338.1 145.2,338.1 139.9,338.0 136.0,338.0 133.4,337.9 131.8,337.9 131.1,337.8 131.3,337.8 132.4,337.7 134.4,337.7 137.3,337.6 141.0,337.6 145.1,337.5 149.2,337.5 152.5,337.4 154.5,337.4 154.9,337.3 153.6,337.3 151.0,337.3 147.4,337.2 143.6,337.2 139.9,337.1 136.7,337.1 134.1,337.0 132.2,337.0 130.9,336.9 130.0,336.9 129.5,336.8 129.1,336.8 128.9,336.7 128.7,336.7 128.6,336.6 128.5,336.6 128.4,336.5 128.4,336.5 128.4,336.4 128.3,336.4 128.3,336.5 128.2,336.5 128.2,336.6 128.1,336.6 128.0,336.7 127.8,336.7 127.6,336.8 127.2,336.8 126.6,336.9 125.8,336.9 124.5,337.0 122.6,337.0 120.0,337.1 116.8,337.1 113.1,337.2 109.2,337.2 105.7,337.3 103.0,337.3 101.8,337.3 102.2,337.4 104.2,337.4 107.5,337.5 111.5,337.5 115.7,337.6 119.3,337.6 122.2,337.7 124.2,337.7 125.3,337.8 125.5,337.8 124.9,337.9 123.3,337.9 120.7,338.0 116.8,338.0 111.5,338.1 104.9,338.1 97.4,338.2 89.4,338.2 81.9,338.3 75.7,338.3 71.9,338.4 70.9,338.4 72.9,338.5 77.5,338.5 84.0,338.6 91.4,338.6 98.8,338.6 105.5,338.7 111.0,338.7 115.3,338.8 118.6,338.8 120.9,338.9 122.7,338.9 124.0,339.0 125.0,339.0 125.8,339.1 126.4,339.1 126.9,339.2 127.2,339.2 127.4,339.3 127.6,339.3 127.7,339.4 127.8,339.4 127.9,339.5 127.9,339.5 128.0,339.6 128.1,339.6 128.1,339.7 128.2,339.7 128.2,339.8 128.3,339.8 128.3,339.9" fill="#2a8" opacity="0.5" stroke="#2a8" stroke-width="1"/>
<line x1="73.6" y1="338.3332231772415" x2="183.0" y2="338.3332231772415" stroke="#114" stroke-width="2"/>
<circle cx="128.33333333333331" cy="338.60165080167747" r="2.4" fill="#114"/>
<text x="128.33333333333331" y="330.793922168226" text-anchor="middle" font-size="11">1.00</text>
<text x="128.33333333333331" y="376" text-anchor="middle" font-size="12">axpy</text>
<polygon points="265.0,340.1 265.1,340.1 265.1,340.0 265.2,340.0 265.3,339.9 265.5,339.9 265.7,339.9 266.1,339.8 266.5,339.8 267.0,339.7 267.6,339.7 268.3,339.6 269.2,339.6 270.0,339.5 270.8,339.5 271.4,339.5 271.7,339.4 271.7,339.4 271.4,339.3 271.0,339.3 270.6,339.2 270.5,339.2 270.9,339.2 271.9,339.1 273.2,339.1 274.9,339.0 276.5,339.0 278.0,338.9 279.3,338.9 280.6,338.8 282.2,338.8 284.8,338.8 288.6,338.7 294.0,338.7 300.7,338.6 308.0,338.6 314.9,338.5 320.0,338.5 322.4,338.5 321.6,338.4 317.8,338.4 311.7,338.3 304.3,338.3 296.8,338.2 290.2,338.2 285.3,338.1 282.4,338.1 281.4,338.1 281.9,338.0 283.0,338.0 284.0,337.9 284.2,337.9 283.4,337.8 281.5,337.8 279.1,337.8 276.5,337.7 274.0,337.7 272.0,337.6 270.3,337.6 269.1,337.5 268.1,337.5 267.4,337.4 266.8,337.4 266.4,337.4 266.0,337.3 265.8,337.3 265.5,337.2 265.3,337.2 265.2,337.1 265.1,337.1 265.1,337.0 265.0,337.0 265.0,337.0 264.9,337.0 264.9,337.1 264.8,337.1 264.7,337.2 264.5,337.2 264.2,337.3 264.0,337.3 263.6,337.4 263.2,337.4 262.6,337.4 261.9,337.5 260.9,337.5 259.7,337.6 258.0,337.6 256.0,337.7 253.5,337.7 250.9,337.8 248.5,337.8 246.6,337.8 245.8,337.9 246.0,337.9 247.0,338.0 248.1,338.0 248.6,338.1 247.6,338.1 244.7,338.1 239.8,338.2 233.2,338.2 225.7,338.3 218.3,338.3 212.2,338.4 208.4,338.4 207.6,338.5 210.0,338.5 215.1,338.5 222.0,338.6 229.3,338.6 236.0,338.7 241.4,338.7 245.2,338.8 247.8,338.8 249.4,338.8 250.7,338.9 252.0,338.9 253.5,339.0 255.1,339.0 256.8,339.1 258.1,339.1 259.1,339.2 259.5,339.2 259.4,339.2 259.0,339.3 258.6,339.3 258.3,339.4 258.3,339.4 258.6,339.5 259.2,339.5 260.0,339.5 260.8,339.6 261.7,339.6 262.4,339.7 263.0,339.7 263.5,339.8 263.9,339.8 264.3,339.9 264.5,339.9 264.7,339.9 264.8,340.0 264.9,340.0 264.9,340.1 265.0,340.1" fill="#d33" opacity="0.5" stroke="#d33" stroke-width="1"/>
<line x1="207.5" y1="338.44145929985837" x2="322.5" y2="338.44145929985837" stroke="#114" stroke-width="2"/>
<circle cx="265.0" cy="339.2226855259334" r="2.4" fill="#114"/>
<text x="265.0" y="331.3380494525832" text-anchor="middle" font-size="11">1.00</text>
<text x="265.0" y="376" text-anchor="middle" font-size="12">dot</text>
<polygon points="406.7,261.8 408.5,258.8 410.8,255.8 413.5,252.8 416.6,249.8 420.0,246.9 423.7,243.9 427.4,240.9 431.1,237.9 434.3,234.9 437.0,231.9 438.9,229.0 440.0,226.0 440.0,223.0 439.1,220.0 437.3,217.0 434.8,214.1 431.6,211.1 428.1,208.1 424.5,205.1 420.9,202.1 417.6,199.1 414.7,196.2 412.2,193.2 410.4,190.2 409.3,187.2 408.8,184.2 409.0,181.2 410.0,178.3 411.7,175.3 414.2,172.3 417.3,169.3 421.2,166.3 425.6,163.3 430.4,160.4 435.6,157.4 440.7,154.4 445.6,151.4 450.1,148.4 453.8,145.4 456.6,142.5 458.3,139.5 459.1,136.5 458.8,133.5 457.7,130.5 455.8,127.6 453.5,124.6 451.0,121.6 448.4,118.6 445.8,115.6 443.4,112.6 441.2,109.7 439.2,106.7 437.4,103.7 435.8,100.7 434.4,97.7 433.1,94.7 432.0,91.8 431.0,88.8 430.2,85.8 429.4,82.8 428.7,79.8 428.0,76.8 427.1,73.9 426.1,70.9 424.8,67.9 423.2,64.9 421.4,61.9 419.4,58.9 417.2,56.0 415.0,53.0 412.8,50.0 390.5,50.0 388.3,53.0 386.1,56.0 384.0,58.9 381.9,61.9 380.1,64.9 378.6,67.9 377.3,70.9 376.2,73.9 375.4,76.8 374.6,79.8 373.9,82.8 373.2,85.8 372.3,88.8 371.4,91.8 370.3,94.7 369.0,97.7 367.5,100.7 365.9,103.7 364.1,106.7 362.1,109.7 359.9,112.6 357.5,115.6 355.0,118.6 352.3,121.6 349.8,124.6 347.5,127.6 345.7,130.5 344.5,133.5 344.3,136.5 345.0,139.5 346.8,142.5 349.6,145.4 353.3,148.4 357.7,151.4 362.6,154.4 367.8,157.4 372.9,160.4 377.7,163.3 382.2,166.3 386.0,169.3 389.2,172.3 391.6,175.3 393.3,178.3 394.3,181.2 394.5,184.2 394.1,187.2 392.9,190.2 391.1,193.2 388.7,196.2 385.8,199.1 382.4,202.1 378.9,205.1 375.2,208.1 371.7,211.1 368.6,214.1 366.0,217.0 364.2,220.0 363.3,223.0 363.4,226.0 364.4,229.0 366.3,231.9 369.0,234.9 372.3,237.9 375.9,240.9 379.6,243.9 383.3,246.9 386.8,249.8 389.9,252.8 392.6,255.8 394.8,258.8 396.7,261.8" fill="#2a8" opacity="0.5" stroke="#2a8" stroke-width="1"/>
<line x1="344.7" y1="138.56772969186426" x2="458.7" y2="138.56772969186426" stroke="#114" stroke-width="2"/>
<circle cx="401.66666666666663" cy="227.43659001504864" r="2.4" fill="#114"/>
<text x="401.66666666666663" y="61.433962264150935" text-anchor="middle" font-size="11">11.19</text>
<text x="401.66666666666663" y="376" text-anchor="middle" font-size="12">nrm2</text>
<polygon points="539.6,341.0 540.3,340.8 541.3,340.7 542.6,340.5 544.4,340.4 546.8,340.2 549.9,340.1 553.7,339.9 558.2,339.8 563.3,339.6 569.0,339.5 574.9,339.3 580.7,339.2 586.0,339.0 590.4,338.9 593.7,338.7 595.5,338.6 595.7,338.4 594.4,338.3 591.8,338.1 588.0,338.0 583.6,337.8 578.9,337.7 574.2,337.5 569.9,337.3 566.1,337.2 563.0,337.0 560.4,336.9 558.3,336.7 556.6,336.6 555.1,336.4 553.6,336.3 552.2,336.1 550.6,336.0 549.0,335.8 547.4,335.7 545.8,335.5 544.3,335.4 543.0,335.2 541.8,335.1 540.9,334.9 540.1,334.8 539.6,334.6 539.2,334.5 538.9,334.3 538.7,334.2 538.6,334.0 538.6,333.9 538.7,333.7 538.8,333.6 539.1,333.4 539.5,333.2 540.0,333.1 540.6,332.9 541.5,332.8 542.5,332.6 543.7,332.5 545.0,332.3 546.3,332.2 547.6,332.0 548.8,331.9 549.7,331.7 550.3,331.6 550.6,331.4 550.4,331.3 549.8,331.1 549.0,331.0 547.8,330.8 546.5,330.7 545.2,330.5 543.8,330.4 542.6,330.2 534.0,330.2 532.8,330.4 531.5,330.5 530.2,330.7 528.9,330.8 527.7,331.0 526.8,331.1 526.3,331.3 526.1,331.4 526.3,331.6 527.0,331.7 527.9,331.9 529.1,332.0 530.4,332.2 531.7,332.3 533.0,332.5 534.2,332.6 535.2,332.8 536.0,332.9 536.7,333.1 537.2,333.2 537.6,333.4 537.8,333.6 538.0,333.7 538.0,333.9 538.0,334.0 538.0,334.2 537.8,334.3 537.5,334.5 537.1,334.6 536.5,334.8 535.8,334.9 534.8,335.1 533.7,335.2 532.3,335.4 530.9,335.5 529.3,335.7 527.6,335.8 526.0,336.0 524.5,336.1 523.0,336.3 521.6,336.4 520.0,336.6 518.3,336.7 516.3,336.9 513.7,337.0 510.5,337.2 506.8,337.3 502.5,337.5 497.8,337.7 493.1,337.8 488.6,338.0 484.9,338.1 482.2,338.3 480.9,338.4 481.2,338.6 483.0,338.7 486.2,338.9 490.7,339.0 496.0,339.2 501.8,339.3 507.7,339.5 513.3,339.6 518.5,339.8 523.0,339.9 526.8,340.1 529.8,340.2 532.3,340.4 534.1,340.5 535.4,340.7 536.4,340.8 537.0,341.0" fill="#2a8" opacity="0.5" stroke="#2a8" stroke-width="1"/>
<line x1="481.3" y1="338.3510894369592" x2="595.4" y2="338.3510894369592" stroke="#114" stroke-width="2"/>
<circle cx="538.3333333333333" cy="338.7671089294758" r="2.4" fill="#114"/>
<text x="538.3333333333333" y="325.28474199909647" text-anchor="middle" font-size="11">1.00</text>
<text x="538.3333333333333" y="376" text-anchor="middle" font-size="12">asum</text>
<polygon points="680.0,339.5 682.2,339.3 685.1,339.2 688.7,339.1 692.9,339.0 697.9,338.9 703.3,338.8 709.0,338.6 714.7,338.5 720.0,338.4 724.8,338.3 728.6,338.2 731.2,338.0 732.4,337.9 732.2,337.8 730.7,337.7 728.0,337.6 724.3,337.5 719.9,337.3 715.0,337.2 710.1,337.1 705.3,337.0 700.8,336.9 696.6,336.7 692.9,336.6 689.7,336.5 686.9,336.4 684.5,336.3 682.4,336.1 680.7,336.0 679.3,335.9 678.1,335.8 677.3,335.7 676.6,335.6 676.1,335.4 675.7,335.3 675.5,335.2 675.3,335.1 675.3,335.0 675.3,334.8 675.4,334.7 675.6,334.6 675.8,334.5 676.1,334.4 676.5,334.2 677.1,334.1 677.7,334.0 678.4,333.9 679.2,333.8 680.1,333.7 681.1,333.5 682.0,333.4 683.0,333.3 683.8,333.2 684.5,333.1 685.0,332.9 685.3,332.8 685.3,332.7 685.0,332.6 684.5,332.5 683.7,332.4 682.7,332.2 681.6,332.1 680.5,332.0 679.5,331.9 678.5,331.8 677.7,331.6 677.0,331.5 676.4,331.4 676.0,331.3 675.7,331.2 675.4,331.0 674.6,331.0 674.3,331.2 674.0,331.3 673.6,331.4 673.0,331.5 672.3,331.6 671.5,331.8 670.5,331.9 669.5,332.0 668.4,332.1 667.3,332.2 666.3,332.4 665.5,332.5 665.0,332.6 664.7,332.7 664.7,332.8 665.0,332.9 665.5,333.1 666.2,333.2 667.0,333.3 668.0,333.4 668.9,333.5 669.9,333.7 670.8,333.8 671.6,333.9 672.3,334.0 672.9,334.1 673.5,334.2 673.9,334.4 674.2,334.5 674.4,334.6 674.6,334.7 674.7,334.8 674.7,335.0 674.7,335.1 674.5,335.2 674.3,335.3 673.9,335.4 673.4,335.6 672.7,335.7 671.9,335.8 670.7,335.9 669.3,336.0 667.6,336.1 665.5,336.3 663.1,336.4 660.3,336.5 657.1,336.6 653.4,336.7 649.2,336.9 644.7,337.0 639.9,337.1 635.0,337.2 630.1,337.3 625.7,337.5 622.0,337.6 619.3,337.7 617.8,337.8 617.6,337.9 618.8,338.0 621.4,338.2 625.2,338.3 630.0,338.4 635.3,338.5 641.0,338.6 646.7,338.8 652.1,338.9 657.1,339.0 661.3,339.1 664.9,339.2 667.8,339.3 670.0,339.5" fill="#2a8" opacity="0.5" stroke="#2a8" stroke-width="1"/>
<line x1="618.9" y1="337.7113976786005" x2="731.1" y2="337.7113976786005" stroke="#114" stroke-width="2"/>
<circle cx="675.0" cy="338.40002572389545" r="2.4" fill="#114"/>
<text x="675.0" y="325.89280840229424" text-anchor="middle" font-size="11">1.03</text>
<text x="675.0" y="376" text-anchor="middle" font-size="12">scal</text>
<polygon points="814.1,345.3 815.1,344.8 816.4,344.3 818.1,343.8 820.2,343.3 822.6,342.8 825.3,342.2 828.3,341.7 831.6,341.2 835.0,340.7 838.5,340.2 841.9,339.7 845.4,339.2 848.7,338.7 851.9,338.1 854.9,337.6 857.7,337.1 860.3,336.6 862.6,336.1 864.6,335.6 866.3,335.1 867.6,334.5 868.5,334.0 869.0,333.5 869.1,333.0 868.8,332.5 868.3,332.0 867.6,331.5 866.7,331.0 865.7,330.4 864.8,329.9 863.9,329.4 863.2,328.9 862.6,328.4 862.3,327.9 862.1,327.4 862.2,326.9 862.4,326.3 862.8,325.8 863.2,325.3 863.6,324.8 863.9,324.3 864.2,323.8 864.3,323.3 864.3,322.7 864.1,322.2 863.8,321.7 863.4,321.2 863.0,320.7 862.4,320.2 861.9,319.7 861.2,319.2 860.6,318.6 859.8,318.1 859.0,317.6 858.1,317.1 857.0,316.6 855.7,316.1 854.1,315.6 852.2,315.1 849.8,314.5 847.1,314.0 843.9,313.5 840.5,313.0 836.9,312.5 833.2,312.0 829.6,311.5 826.2,311.0 823.1,310.4 820.4,309.9 818.1,309.4 816.3,308.9 807.0,308.9 805.2,309.4 803.0,309.9 800.3,310.4 797.2,311.0 793.8,311.5 790.1,312.0 786.5,312.5 782.8,313.0 779.4,313.5 776.3,314.0 773.5,314.5 771.2,315.1 769.2,315.6 767.6,316.1 766.3,316.6 765.2,317.1 764.3,317.6 763.5,318.1 762.8,318.6 762.1,319.2 761.5,319.7 760.9,320.2 760.4,320.7 759.9,321.2 759.5,321.7 759.2,322.2 759.1,322.7 759.0,323.3 759.2,323.8 759.4,324.3 759.8,324.8 760.2,325.3 760.6,325.8 760.9,326.3 761.1,326.9 761.2,327.4 761.1,327.9 760.7,328.4 760.2,328.9 759.4,329.4 758.6,329.9 757.6,330.4 756.7,331.0 755.8,331.5 755.0,332.0 754.5,332.5 754.3,333.0 754.4,333.5 754.9,334.0 755.8,334.5 757.0,335.1 758.7,335.6 760.7,336.1 763.0,336.6 765.6,337.1 768.4,337.6 771.4,338.1 774.6,338.7 778.0,339.2 781.4,339.7 784.9,340.2 788.4,340.7 791.8,341.2 795.0,341.7 798.0,342.2 800.8,342.8 803.2,343.3 805.2,343.8 806.9,344.3 808.2,344.8 809.3,345.3" fill="#2a8" opacity="0.5" stroke="#2a8" stroke-width="1"/>
<line x1="761.1" y1="326.6465858191202" x2="862.3" y2="326.6465858191202" stroke="#114" stroke-width="2"/>
<circle cx="811.6666666666666" cy="329.5469857129597" r="2.4" fill="#114"/>
<text x="811.6666666666666" y="306.45581993675944" text-anchor="middle" font-size="11">1.60</text>
<text x="811.6666666666666" y="376" text-anchor="middle" font-size="12">iamax</text>
<text x="450.0" y="428" text-anchor="middle" font-size="11" fill="#666">violin = ratio distribution over sizes · line = median · dark dot = worst size · green = every size ≥ gate</text>
</svg>
