<svg xmlns="http://www.w3.org/2000/svg" width="900" height="440" font-family="sans-serif">
<rect width="900" height="440" fill="white"/>
<text x="450.0" y="28" text-anchor="middle" font-size="18" font-weight="bold">Complex BLAS-1: PureBLAS / OpenBLAS (AVX2, 1 thread, ComplexF64)</text>
<line x1="60" y1="358.0" x2="880" y2="358.0" stroke="#eee"/>
<text x="52" y="362.0" text-anchor="end" font-size="11" fill="#666">0×</text>
<line x1="60" y1="339.6870133678376" x2="880" y2="339.6870133678376" stroke="#eee"/>
<text x="52" y="343.6870133678376" text-anchor="end" font-size="11" fill="#666">0.5×</text>
<line x1="60" y1="321.3740267356752" x2="880" y2="321.3740267356752" stroke="#eee"/>
<text x="52" y="325.3740267356752" text-anchor="end" font-size="11" fill="#666">1×</text>
<line x1="60" y1="303.0610401035128" x2="880" y2="303.0610401035128" stroke="#eee"/>
<text x="52" y="307.0610401035128" text-anchor="end" font-size="11" fill="#666">1.5×</text>
<line x1="60" y1="321.3740267356752" x2="880" y2="321.3740267356752" stroke="#888" stroke-width="1"/>
<line x1="60" y1="322.83906566624825" x2="880" y2="322.83906566624825" stroke="#d33" stroke-width="1.5" stroke-dasharray="6 4"/>
<text x="880" y="317.83906566624825" text-anchor="end" font-size="11" fill="#d33">0.96× gate</text>
<polygon points="118.6,327.1 118.7,326.9 118.7,326.8 118.8,326.6 118.9,326.4 118.9,326.2 119.0,326.0 119.0,325.8 119.0,325.6 119.0,325.4 118.9,325.2 118.9,325.1 118.9,324.9 119.0,324.7 119.3,324.5 119.7,324.3 120.4,324.1 121.6,323.9 123.2,323.7 125.4,323.6 128.4,323.4 132.1,323.2 136.5,323.0 141.5,322.8 147.0,322.6 152.7,322.4 158.1,322.2 162.8,322.1 166.1,321.9 167.8,321.7 167.3,321.5 164.8,321.3 160.5,321.1 154.8,320.9 148.5,320.7 142.1,320.5 136.3,320.4 131.3,320.2 127.4,320.0 124.4,319.8 122.3,319.6 120.9,319.4 120.0,319.2 119.4,319.0 119.0,318.9 118.8,318.7 118.7,318.5 118.7,318.3 118.6,318.1 118.7,317.9 118.8,317.7 118.9,317.5 119.1,317.4 119.5,317.2 120.1,317.0 120.8,316.8 121.9,316.6 123.1,316.4 124.4,316.2 125.8,316.0 127.0,315.8 127.9,315.7 128.3,315.5 128.1,315.3 127.4,315.1 126.3,314.9 125.0,314.7 123.5,314.5 122.2,314.3 121.1,314.2 120.2,314.0 119.6,313.8 117.6,313.8 117.0,314.0 116.1,314.2 114.9,314.3 113.6,314.5 112.2,314.7 110.8,314.9 109.7,315.1 109.0,315.3 108.8,315.5 109.2,315.7 110.1,315.8 111.3,316.0 112.7,316.2 114.1,316.4 115.3,316.6 116.3,316.8 117.1,317.0 117.6,317.2 118.0,317.4 118.2,317.5 118.4,317.7 118.5,317.9 118.5,318.1 118.5,318.3 118.4,318.5 118.3,318.7 118.1,318.9 117.8,319.0 117.2,319.2 116.2,319.4 114.8,319.6 112.7,319.8 109.7,320.0 105.8,320.2 100.8,320.4 95.0,320.5 88.7,320.7 82.3,320.9 76.6,321.1 72.3,321.3 69.8,321.5 69.4,321.7 71.0,321.9 74.4,322.1 79.1,322.2 84.5,322.4 90.1,322.6 95.6,322.8 100.7,323.0 105.1,323.2 108.8,323.4 111.7,323.6 114.0,323.7 115.6,323.9 116.7,324.1 117.4,324.3 117.9,324.5 118.1,324.7 118.2,324.9 118.2,325.1 118.2,325.2 118.2,325.4 118.1,325.6 118.1,325.8 118.2,326.0 118.2,326.2 118.3,326.4 118.3,326.6 118.4,326.8 118.5,326.9 118.5,327.1" fill="#2a8" opacity="0.5" stroke="#2a8" stroke-width="1"/>
<line x1="69.9" y1="321.476482207016" x2="167.3" y2="321.476482207016" stroke="#114" stroke-width="2"/>
<circle cx="118.57142857142857" cy="322.5084127326153" r="2.4" fill="#114"/>
<text x="118.57142857142857" y="309.1315255734266" text-anchor="middle" font-size="11">1.00</text>
<text x="118.57142857142857" y="376" text-anchor="middle" font-size="12">zaxpy</text>
<polygon points="240.0,330.6 241.0,330.5 242.1,330.3 243.2,330.1 244.3,329.9 245.1,329.8 245.8,329.6 246.1,329.4 246.2,329.2 245.9,329.1 245.4,328.9 244.6,328.7 243.6,328.5 242.6,328.4 241.5,328.2 240.4,328.0 239.5,327.8 238.6,327.6 237.9,327.5 237.3,327.3 236.9,327.1 236.5,326.9 236.3,326.8 236.1,326.6 235.9,326.4 235.9,326.2 235.8,326.1 235.8,325.9 235.8,325.7 235.8,325.5 235.8,325.4 235.9,325.2 236.0,325.0 236.1,324.8 236.3,324.7 236.6,324.5 237.1,324.3 237.8,324.1 238.7,324.0 239.9,323.8 241.5,323.6 243.5,323.4 246.0,323.2 248.9,323.1 252.2,322.9 256.0,322.7 260.0,322.5 264.2,322.4 268.4,322.2 272.4,322.0 276.2,321.8 279.4,321.7 282.0,321.5 283.8,321.3 284.8,321.1 284.9,321.0 284.2,320.8 282.8,320.6 280.6,320.4 277.9,320.3 274.6,320.1 271.0,319.9 267.1,319.7 263.2,319.6 259.2,319.4 255.5,319.2 251.9,319.0 248.7,318.8 245.9,318.7 243.5,318.5 241.5,318.3 239.9,318.1 231.5,318.1 229.9,318.3 227.9,318.5 225.5,318.7 222.7,318.8 219.5,319.0 216.0,319.2 212.2,319.4 208.3,319.6 204.3,319.7 200.4,319.9 196.8,320.1 193.6,320.3 190.8,320.4 188.6,320.6 187.2,320.8 186.5,321.0 186.7,321.1 187.7,321.3 189.5,321.5 192.0,321.7 195.3,321.8 199.0,322.0 203.0,322.2 207.2,322.4 211.4,322.5 215.5,322.7 219.2,322.9 222.5,323.1 225.5,323.2 227.9,323.4 229.9,323.6 231.5,323.8 232.7,324.0 233.6,324.1 234.3,324.3 234.8,324.5 235.1,324.7 235.3,324.8 235.5,325.0 235.6,325.2 235.6,325.4 235.6,325.5 235.7,325.7 235.6,325.9 235.6,326.1 235.6,326.2 235.5,326.4 235.4,326.6 235.2,326.8 234.9,326.9 234.6,327.1 234.1,327.3 233.5,327.5 232.8,327.6 232.0,327.8 231.0,328.0 229.9,328.2 228.8,328.4 227.8,328.5 226.8,328.7 226.0,328.9 225.5,329.1 225.2,329.2 225.3,329.4 225.7,329.6 226.3,329.8 227.2,329.9 228.2,330.1 229.3,330.3 230.4,330.5 231.5,330.6" fill="#d33" opacity="0.5" stroke="#d33" stroke-width="1"/>
<line x1="187.6" y1="321.30233973921656" x2="283.8" y2="321.30233973921656" stroke="#114" stroke-width="2"/>
<circle cx="235.71428571428572" cy="329.3511496758978" r="2.4" fill="#114"/>
<text x="235.71428571428572" y="313.41075229304397" text-anchor="middle" font-size="11">1.00</text>
<text x="235.71428571428572" y="376" text-anchor="middle" font-size="12">zdotc</text>
<polygon points="353.1,323.6 353.2,323.5 353.4,323.5 353.7,323.4 354.2,323.4 354.8,323.3 355.6,323.2 356.7,323.2 358.0,323.1 359.4,323.1 361.1,323.0 362.9,323.0 364.8,322.9 366.8,322.8 369.0,322.8 371.3,322.7 373.8,322.7 376.7,322.6 379.8,322.5 383.0,322.5 386.3,322.4 389.3,322.4 392.0,322.3 394.0,322.2 395.5,322.2 396.3,322.1 396.8,322.1 397.1,322.0 397.6,321.9 398.4,321.9 399.4,321.8 400.6,321.8 401.6,321.7 402.1,321.6 401.7,321.6 400.4,321.5 398.1,321.5 394.9,321.4 391.1,321.3 387.0,321.3 382.9,321.2 378.9,321.2 375.4,321.1 372.2,321.0 369.4,321.0 366.9,320.9 364.8,320.9 362.8,320.8 361.2,320.7 359.8,320.7 358.8,320.6 358.2,320.6 358.1,320.5 358.4,320.4 359.1,320.4 360.2,320.3 361.6,320.3 363.3,320.2 365.0,320.1 366.7,320.1 368.1,320.0 369.0,320.0 369.3,319.9 369.0,319.8 368.0,319.8 366.5,319.7 364.6,319.7 362.6,319.6 360.5,319.5 358.6,319.5 357.0,319.4 355.7,319.4 350.0,319.4 348.7,319.4 347.1,319.5 345.2,319.5 343.1,319.6 341.1,319.7 339.2,319.7 337.7,319.8 336.7,319.8 336.4,319.9 336.7,320.0 337.6,320.0 339.0,320.1 340.7,320.1 342.4,320.2 344.1,320.3 345.5,320.3 346.6,320.4 347.4,320.4 347.6,320.5 347.5,320.6 346.9,320.6 345.9,320.7 344.5,320.7 342.9,320.8 341.0,320.9 338.8,320.9 336.3,321.0 333.5,321.0 330.3,321.1 326.8,321.2 322.9,321.2 318.7,321.3 314.6,321.3 310.8,321.4 307.6,321.5 305.3,321.5 304.0,321.6 303.7,321.6 304.2,321.7 305.1,321.8 306.3,321.8 307.3,321.9 308.1,321.9 308.6,322.0 308.9,322.1 309.4,322.1 310.3,322.2 311.7,322.2 313.7,322.3 316.4,322.4 319.4,322.4 322.7,322.5 326.0,322.5 329.0,322.6 331.9,322.7 334.4,322.7 336.8,322.8 338.9,322.8 340.9,322.9 342.8,323.0 344.6,323.0 346.3,323.1 347.8,323.1 349.0,323.2 350.1,323.2 350.9,323.3 351.5,323.4 352.0,323.4 352.3,323.5 352.5,323.5 352.7,323.6" fill="#2a8" opacity="0.5" stroke="#2a8" stroke-width="1"/>
<line x1="303.8" y1="321.6658492234891" x2="401.9" y2="321.6658492234891" stroke="#114" stroke-width="2"/>
<circle cx="352.85714285714283" cy="322.5170595510263" r="2.4" fill="#114"/>
<text x="352.85714285714283" y="313.83524185594615" text-anchor="middle" font-size="11">0.99</text>
<text x="352.85714285714283" y="376" text-anchor="middle" font-size="12">zscal</text>
<polygon points="471.4,186.0 471.9,184.1 472.4,182.3 473.1,180.4 473.9,178.6 474.9,176.7 475.9,174.9 477.1,173.0 478.5,171.2 479.9,169.3 481.4,167.5 483.0,165.6 484.5,163.8 486.1,161.9 487.5,160.1 488.9,158.2 490.1,156.4 491.1,154.5 492.0,152.7 492.8,150.8 493.4,149.0 493.8,147.1 494.2,145.3 494.5,143.4 494.7,141.6 494.8,139.7 494.9,137.9 494.7,136.0 494.4,134.2 494.0,132.3 493.2,130.5 492.3,128.6 491.1,126.8 489.7,124.9 488.2,123.1 486.6,121.2 484.9,119.4 483.3,117.5 481.8,115.7 480.4,113.8 479.1,112.0 478.1,110.1 477.3,108.3 476.8,106.4 476.5,104.6 476.5,102.7 476.9,100.9 477.5,99.0 478.6,97.2 480.1,95.4 482.0,93.5 484.4,91.7 487.3,89.8 490.7,88.0 494.5,86.1 498.6,84.3 502.7,82.4 506.9,80.6 510.7,78.7 514.1,76.9 516.7,75.0 518.5,73.2 519.2,71.3 518.9,69.5 517.4,67.6 515.1,65.8 511.8,63.9 508.0,62.1 503.7,60.2 499.3,58.4 494.8,56.5 490.6,54.7 449.4,54.7 445.2,56.5 440.7,58.4 436.3,60.2 432.0,62.1 428.2,63.9 424.9,65.8 422.6,67.6 421.1,69.5 420.8,71.3 421.5,73.2 423.3,75.0 425.9,76.9 429.3,78.7 433.1,80.6 437.3,82.4 441.4,84.3 445.5,86.1 449.3,88.0 452.7,89.8 455.6,91.7 458.0,93.5 459.9,95.4 461.4,97.2 462.5,99.0 463.1,100.9 463.5,102.7 463.5,104.6 463.2,106.4 462.7,108.3 461.9,110.1 460.9,112.0 459.6,113.8 458.2,115.7 456.7,117.5 455.1,119.4 453.4,121.2 451.8,123.1 450.3,124.9 448.9,126.8 447.7,128.6 446.8,130.5 446.0,132.3 445.6,134.2 445.3,136.0 445.1,137.9 445.2,139.7 445.3,141.6 445.5,143.4 445.8,145.3 446.2,147.1 446.6,149.0 447.2,150.8 448.0,152.7 448.9,154.5 449.9,156.4 451.1,158.2 452.5,160.1 453.9,161.9 455.5,163.8 457.0,165.6 458.6,167.5 460.1,169.3 461.5,171.2 462.9,173.0 464.1,174.9 465.1,176.7 466.1,178.6 466.9,180.4 467.6,182.3 468.1,184.1 468.6,186.0" fill="#2a8" opacity="0.5" stroke="#2a8" stroke-width="1"/>
<line x1="424.1" y1="75.67300390768908" x2="515.9" y2="75.67300390768908" stroke="#114" stroke-width="2"/>
<circle cx="470.0" cy="152.64369740969994" r="2.4" fill="#114"/>
<text x="470.0" y="61.43396226415098" text-anchor="middle" font-size="11">7.71</text>
<text x="470.0" y="376" text-anchor="middle" font-size="12">dznrm2</text>
<polygon points="588.1,320.3 588.5,319.7 589.1,319.2 589.9,318.6 590.8,318.1 592.0,317.5 593.5,317.0 595.3,316.4 597.6,315.9 600.3,315.3 603.5,314.8 607.3,314.2 611.5,313.6 616.0,313.1 620.5,312.5 624.9,312.0 628.8,311.4 631.8,310.9 633.7,310.3 634.3,309.8 633.6,309.2 631.8,308.7 629.1,308.1 626.1,307.5 623.2,307.0 620.8,306.4 619.4,305.9 619.3,305.3 620.3,304.8 622.6,304.2 625.6,303.7 629.0,303.1 632.3,302.6 634.9,302.0 636.3,301.4 636.3,300.9 634.7,300.3 631.6,299.8 627.3,299.2 622.1,298.7 616.5,298.1 610.9,297.6 605.7,297.0 601.1,296.4 597.2,295.9 594.2,295.3 591.9,294.8 590.3,294.2 589.2,293.7 588.6,293.1 588.3,292.6 588.3,292.0 588.6,291.5 589.1,290.9 590.0,290.3 591.2,289.8 592.6,289.2 594.4,288.7 596.3,288.1 598.4,287.6 600.3,287.0 602.1,286.5 603.4,285.9 604.2,285.4 604.4,284.8 603.9,284.2 602.8,283.7 601.2,283.1 599.3,282.6 597.3,282.0 595.3,281.5 593.4,280.9 580.9,280.9 579.0,281.5 577.0,282.0 575.0,282.6 573.1,283.1 571.5,283.7 570.4,284.2 569.9,284.8 570.1,285.4 570.9,285.9 572.2,286.5 574.0,287.0 575.9,287.6 578.0,288.1 579.9,288.7 581.7,289.2 583.1,289.8 584.3,290.3 585.1,290.9 585.7,291.5 586.0,292.0 586.0,292.6 585.7,293.1 585.1,293.7 584.0,294.2 582.4,294.8 580.1,295.3 577.1,295.9 573.2,296.4 568.6,297.0 563.4,297.6 557.8,298.1 552.2,298.7 547.0,299.2 542.7,299.8 539.6,300.3 538.0,300.9 537.9,301.4 539.4,302.0 542.0,302.6 545.2,303.1 548.7,303.7 551.7,304.2 553.9,304.8 555.0,305.3 554.8,305.9 553.4,306.4 551.1,307.0 548.2,307.5 545.2,308.1 542.5,308.7 540.7,309.2 540.0,309.8 540.6,310.3 542.5,310.9 545.5,311.4 549.4,312.0 553.7,312.5 558.3,313.1 562.8,313.6 567.0,314.2 570.7,314.8 574.0,315.3 576.7,315.9 579.0,316.4 580.8,317.0 582.3,317.5 583.5,318.1 584.4,318.6 585.2,319.2 585.8,319.7 586.2,320.3" fill="#2a8" opacity="0.5" stroke="#2a8" stroke-width="1"/>
<line x1="538.0" y1="301.4631387883509" x2="636.3" y2="301.4631387883509" stroke="#114" stroke-width="2"/>
<circle cx="587.1428571428571" cy="310.1799029107711" r="2.4" fill="#114"/>
<text x="587.1428571428571" y="278.7842903008952" text-anchor="middle" font-size="11">1.54</text>
<text x="587.1428571428571" y="376" text-anchor="middle" font-size="12">dzasum</text>
<polygon points="707.9,330.7 708.9,330.5 710.1,330.3 711.2,330.1 712.3,329.9 713.3,329.7 714.0,329.5 714.4,329.4 714.6,329.2 714.3,329.0 713.8,328.8 713.0,328.6 712.0,328.4 710.9,328.2 709.7,328.0 708.6,327.8 707.7,327.7 706.8,327.5 706.1,327.3 705.6,327.1 705.2,326.9 704.9,326.7 704.7,326.5 704.5,326.3 704.4,326.1 704.4,326.0 704.3,325.8 704.3,325.6 704.3,325.4 704.3,325.2 704.4,325.0 704.5,324.8 704.6,324.6 704.8,324.5 705.1,324.3 705.6,324.1 706.4,323.9 707.4,323.7 708.8,323.5 710.7,323.3 713.1,323.1 716.1,322.9 719.7,322.8 723.9,322.6 728.4,322.4 733.2,322.2 738.0,322.0 742.5,321.8 746.5,321.6 749.8,321.4 752.1,321.2 753.3,321.1 753.5,320.9 752.6,320.7 750.7,320.5 748.1,320.3 745.0,320.1 741.4,319.9 737.6,319.7 733.7,319.5 729.8,319.4 726.1,319.2 722.6,319.0 719.4,318.8 716.6,318.6 714.0,318.4 711.8,318.2 710.0,318.0 708.5,317.8 707.4,317.7 706.4,317.5 705.8,317.3 702.8,317.3 702.1,317.5 701.2,317.7 700.0,317.8 698.6,318.0 696.7,318.2 694.6,318.4 692.0,318.6 689.1,318.8 685.9,319.0 682.5,319.2 678.8,319.4 674.9,319.5 671.0,319.7 667.2,319.9 663.6,320.1 660.4,320.3 657.8,320.5 656.0,320.7 655.1,320.9 655.2,321.1 656.5,321.2 658.8,321.4 662.0,321.6 666.1,321.8 670.6,322.0 675.4,322.2 680.2,322.4 684.7,322.6 688.8,322.8 692.4,322.9 695.4,323.1 697.9,323.3 699.8,323.5 701.2,323.7 702.2,323.9 702.9,324.1 703.4,324.3 703.8,324.5 704.0,324.6 704.1,324.8 704.2,325.0 704.2,325.2 704.2,325.4 704.2,325.6 704.2,325.8 704.2,326.0 704.1,326.1 704.1,326.3 703.9,326.5 703.7,326.7 703.4,326.9 703.0,327.1 702.4,327.3 701.7,327.5 700.9,327.7 699.9,327.8 698.8,328.0 697.7,328.2 696.6,328.4 695.6,328.6 694.8,328.8 694.2,329.0 694.0,329.2 694.1,329.4 694.6,329.5 695.3,329.7 696.3,329.9 697.4,330.1 698.5,330.3 699.6,330.5 700.7,330.7" fill="#d33" opacity="0.5" stroke="#d33" stroke-width="1"/>
<line x1="656.4" y1="321.23757051102086" x2="752.2" y2="321.23757051102086" stroke="#114" stroke-width="2"/>
<circle cx="704.2857142857142" cy="329.29635188882935" r="2.4" fill="#114"/>
<text x="704.2857142857142" y="312.6383491268359" text-anchor="middle" font-size="11">1.00</text>
<text x="704.2857142857142" y="376" text-anchor="middle" font-size="12">zdotu</text>
<polygon points="826.8,333.3 828.6,332.8 830.7,332.3 833.2,331.8 835.9,331.3 838.8,330.8 841.8,330.3 844.7,329.8 847.6,329.3 850.2,328.8 852.6,328.2 854.7,327.7 856.4,327.2 857.8,326.7 858.8,326.2 859.6,325.7 860.2,325.2 860.6,324.7 860.9,324.2 861.1,323.7 861.3,323.2 861.5,322.7 861.8,322.2 862.2,321.7 862.7,321.2 863.3,320.7 863.9,320.2 864.6,319.7 865.3,319.2 866.0,318.6 866.5,318.1 867.0,317.6 867.3,317.1 867.5,316.6 867.7,316.1 867.7,315.6 867.8,315.1 867.8,314.6 867.9,314.1 868.1,313.6 868.4,313.1 868.7,312.6 869.0,312.1 869.4,311.6 869.7,311.1 870.0,310.6 870.3,310.1 870.5,309.6 870.6,309.0 870.6,308.5 870.5,308.0 870.3,307.5 870.0,307.0 869.4,306.5 868.5,306.0 867.4,305.5 866.0,305.0 864.2,304.5 862.0,304.0 859.4,303.5 856.6,303.0 853.4,302.5 850.0,302.0 846.5,301.5 843.0,301.0 839.6,300.5 836.4,300.0 833.5,299.4 830.9,298.9 828.6,298.4 826.8,297.9 825.3,297.4 817.5,297.4 816.1,297.9 814.2,298.4 812.0,298.9 809.4,299.4 806.5,300.0 803.2,300.5 799.8,301.0 796.3,301.5 792.8,302.0 789.5,302.5 786.3,303.0 783.4,303.5 780.9,304.0 778.7,304.5 776.9,305.0 775.4,305.5 774.3,306.0 773.5,306.5 772.9,307.0 772.5,307.5 772.3,308.0 772.2,308.5 772.3,309.0 772.4,309.6 772.6,310.1 772.8,310.6 773.1,311.1 773.5,311.6 773.8,312.1 774.2,312.6 774.5,313.1 774.7,313.6 774.9,314.1 775.0,314.6 775.1,315.1 775.1,315.6 775.2,316.1 775.3,316.6 775.5,317.1 775.9,317.6 776.3,318.1 776.9,318.6 777.5,319.2 778.2,319.7 778.9,320.2 779.6,320.7 780.2,321.2 780.7,321.7 781.1,322.2 781.4,322.7 781.6,323.2 781.8,323.7 782.0,324.2 782.3,324.7 782.6,325.2 783.2,325.7 784.0,326.2 785.1,326.7 786.5,327.2 788.2,327.7 790.3,328.2 792.6,328.8 795.3,329.3 798.1,329.8 801.1,330.3 804.1,330.8 807.0,331.3 809.7,331.8 812.1,332.3 814.3,332.8 816.1,333.3" fill="#2a8" opacity="0.5" stroke="#2a8" stroke-width="1"/>
<line x1="775.1" y1="314.81996533459477" x2="867.8" y2="314.81996533459477" stroke="#114" stroke-width="2"/>
<circle cx="821.4285714285714" cy="315.64969889591197" r="2.4" fill="#114"/>
<text x="821.4285714285714" y="294.9557970284909" text-anchor="middle" font-size="11">1.18</text>
<text x="821.4285714285714" y="376" text-anchor="middle" font-size="12">izamax</text>
<text x="450.0" y="428" text-anchor="middle" font-size="11" fill="#666">violin = ratio distribution over sizes · line = median · dark dot = worst size · green = every size ≥ gate</text>
</svg>
