<svg xmlns="http://www.w3.org/2000/svg" width="962" height="592" font-family="sans-serif">
<rect width="962" height="592" fill="white"/>
<text x="481.0" y="26" text-anchor="middle" font-size="17" font-weight="bold">Complex BLAS-2 — PureBLAS / AOCL (PB/AOCL ratio)</text>
<line x1="46" y1="42" x2="68" y2="42" stroke="#d62728" stroke-width="3"/>
<text x="73" y="46" font-size="12">Zen3 · AVX2</text>
<line x1="176" y1="42" x2="198" y2="42" stroke="#2ca02c" stroke-width="3"/>
<text x="203" y="46" font-size="12">Zen5 · AVX-512</text>
<line x1="327" y1="42" x2="349" y2="42" stroke="#1f77b4" stroke-width="3"/>
<text x="354" y="46" font-size="12">Zen4 · AVX-512</text>
<rect x="46" y="60" width="210" height="138" fill="none" stroke="#e2e2e2"/>
<line x1="46" y1="116.23492300061248" x2="256" y2="116.23492300061248" stroke="#d33" stroke-dasharray="4 3"/>
<text x="42" y="201.0" text-anchor="end" font-size="9" fill="#999">0.5×</text>
<text x="42" y="119.23492300061248" text-anchor="end" font-size="9" fill="#999">1.0×</text>
<text x="42" y="63.057352915249005" text-anchor="end" font-size="9" fill="#999">1.61×</text>
<polygon points="46.0,69.1 98.5,81.9 151.0,94.2 203.5,101.3 256.0,101.8 256.0,105.8 203.5,104.9 151.0,99.8 98.5,86.8 46.0,70.2" fill="#d62728" opacity="0.11"/>
<polyline points="46.0,69.9 98.5,85.5 151.0,98.2 203.5,103.1 256.0,105.4" fill="none" stroke="#d62728" stroke-width="1.6"/>
<circle cx="46.0" cy="69.9" r="2" fill="#d62728"/>
<circle cx="98.5" cy="85.5" r="2" fill="#d62728"/>
<circle cx="151.0" cy="98.2" r="2" fill="#d62728"/>
<circle cx="203.5" cy="103.1" r="2" fill="#d62728"/>
<circle cx="256.0" cy="105.4" r="2" fill="#d62728"/>
<polygon points="46.0,104.5 98.5,110.6 151.0,103.5 203.5,104.1 256.0,119.5 256.0,122.9 203.5,122.6 151.0,105.2 98.5,111.1 46.0,112.1" fill="#2ca02c" opacity="0.11"/>
<polyline points="46.0,111.9 98.5,110.8 151.0,104.6 203.5,113.9 256.0,121.2" fill="none" stroke="#2ca02c" stroke-width="1.6"/>
<circle cx="46.0" cy="111.9" r="2" fill="#2ca02c"/>
<circle cx="98.5" cy="110.8" r="2" fill="#2ca02c"/>
<circle cx="151.0" cy="104.6" r="2" fill="#2ca02c"/>
<circle cx="203.5" cy="113.9" r="2" fill="#2ca02c"/>
<circle cx="256.0" cy="121.2" r="2" fill="#2ca02c"/>
<polygon points="46.0,111.4 98.5,112.0 151.0,97.0 203.5,123.5 256.0,125.8 256.0,133.3 203.5,126.2 151.0,108.0 98.5,123.9 46.0,114.8" fill="#1f77b4" opacity="0.11"/>
<polyline points="46.0,114.5 98.5,112.8 151.0,100.8 203.5,124.8 256.0,129.5" fill="none" stroke="#1f77b4" stroke-width="1.6"/>
<circle cx="46.0" cy="114.5" r="2" fill="#1f77b4"/>
<circle cx="98.5" cy="112.8" r="2" fill="#1f77b4"/>
<circle cx="151.0" cy="100.8" r="2" fill="#1f77b4"/>
<circle cx="203.5" cy="124.8" r="2" fill="#1f77b4"/>
<circle cx="256.0" cy="129.5" r="2" fill="#1f77b4"/>
<text x="151.0" y="55" text-anchor="middle" font-size="12" font-weight="bold">zgemvN</text>
<line x1="46.0" y1="60" x2="46.0" y2="198" stroke="#f4f4f4"/>
<text x="46.0" y="209" text-anchor="middle" font-size="8" fill="#999">64</text>
<line x1="98.5" y1="60" x2="98.5" y2="198" stroke="#f4f4f4"/>
<text x="98.5" y="209" text-anchor="middle" font-size="8" fill="#999">128</text>
<line x1="151.0" y1="60" x2="151.0" y2="198" stroke="#f4f4f4"/>
<text x="151.0" y="209" text-anchor="middle" font-size="8" fill="#999">256</text>
<line x1="203.5" y1="60" x2="203.5" y2="198" stroke="#f4f4f4"/>
<text x="203.5" y="209" text-anchor="middle" font-size="8" fill="#999">512</text>
<line x1="256.0" y1="60" x2="256.0" y2="198" stroke="#f4f4f4"/>
<text x="256.0" y="209" text-anchor="middle" font-size="8" fill="#999">1k</text>
<rect x="276" y="60" width="210" height="138" fill="none" stroke="#e2e2e2"/>
<line x1="276" y1="115.76276119065531" x2="486" y2="115.76276119065531" stroke="#d33" stroke-dasharray="4 3"/>
<text x="272" y="201.0" text-anchor="end" font-size="9" fill="#999">0.5×</text>
<text x="272" y="118.76276119065531" text-anchor="end" font-size="9" fill="#999">1.0×</text>
<text x="272" y="63.0" text-anchor="end" font-size="9" fill="#999">1.6×</text>
<polygon points="276.0,91.8 328.5,91.8 381.0,105.7 433.5,114.6 486.0,117.5 486.0,121.5 433.5,116.6 381.0,108.2 328.5,99.8 276.0,93.5" fill="#d62728" opacity="0.11"/>
<polyline points="276.0,92.5 328.5,93.1 381.0,107.1 433.5,115.8 486.0,120.3" fill="none" stroke="#d62728" stroke-width="1.6"/>
<circle cx="276.0" cy="92.5" r="2" fill="#d62728"/>
<circle cx="328.5" cy="93.1" r="2" fill="#d62728"/>
<circle cx="381.0" cy="107.1" r="2" fill="#d62728"/>
<circle cx="433.5" cy="115.8" r="2" fill="#d62728"/>
<circle cx="486.0" cy="120.3" r="2" fill="#d62728"/>
<polygon points="276.0,119.0 328.5,117.3 381.0,108.5 433.5,99.6 486.0,119.2 486.0,121.9 433.5,110.4 381.0,113.1 328.5,117.9 276.0,120.5" fill="#2ca02c" opacity="0.11"/>
<polyline points="276.0,120.3 328.5,117.5 381.0,111.6 433.5,101.4 486.0,120.5" fill="none" stroke="#2ca02c" stroke-width="1.6"/>
<circle cx="276.0" cy="120.3" r="2" fill="#2ca02c"/>
<circle cx="328.5" cy="117.5" r="2" fill="#2ca02c"/>
<circle cx="381.0" cy="111.6" r="2" fill="#2ca02c"/>
<circle cx="433.5" cy="101.4" r="2" fill="#2ca02c"/>
<circle cx="486.0" cy="120.5" r="2" fill="#2ca02c"/>
<polygon points="276.0,112.4 328.5,111.4 381.0,97.0 433.5,119.1 486.0,123.5 486.0,128.2 433.5,124.6 381.0,103.2 328.5,115.7 276.0,113.4" fill="#1f77b4" opacity="0.11"/>
<polyline points="276.0,113.0 328.5,114.5 381.0,100.5 433.5,119.8 486.0,125.8" fill="none" stroke="#1f77b4" stroke-width="1.6"/>
<circle cx="276.0" cy="113.0" r="2" fill="#1f77b4"/>
<circle cx="328.5" cy="114.5" r="2" fill="#1f77b4"/>
<circle cx="381.0" cy="100.5" r="2" fill="#1f77b4"/>
<circle cx="433.5" cy="119.8" r="2" fill="#1f77b4"/>
<circle cx="486.0" cy="125.8" r="2" fill="#1f77b4"/>
<text x="381.0" y="55" text-anchor="middle" font-size="12" font-weight="bold">zgemvT</text>
<line x1="276.0" y1="60" x2="276.0" y2="198" stroke="#f4f4f4"/>
<text x="276.0" y="209" text-anchor="middle" font-size="8" fill="#999">64</text>
<line x1="328.5" y1="60" x2="328.5" y2="198" stroke="#f4f4f4"/>
<text x="328.5" y="209" text-anchor="middle" font-size="8" fill="#999">128</text>
<line x1="381.0" y1="60" x2="381.0" y2="198" stroke="#f4f4f4"/>
<text x="381.0" y="209" text-anchor="middle" font-size="8" fill="#999">256</text>
<line x1="433.5" y1="60" x2="433.5" y2="198" stroke="#f4f4f4"/>
<text x="433.5" y="209" text-anchor="middle" font-size="8" fill="#999">512</text>
<line x1="486.0" y1="60" x2="486.0" y2="198" stroke="#f4f4f4"/>
<text x="486.0" y="209" text-anchor="middle" font-size="8" fill="#999">1k</text>
<rect x="506" y="60" width="210" height="138" fill="none" stroke="#e2e2e2"/>
<line x1="506" y1="115.76276119065531" x2="716" y2="115.76276119065531" stroke="#d33" stroke-dasharray="4 3"/>
<text x="502" y="201.0" text-anchor="end" font-size="9" fill="#999">0.5×</text>
<text x="502" y="118.76276119065531" text-anchor="end" font-size="9" fill="#999">1.0×</text>
<text x="502" y="63.0" text-anchor="end" font-size="9" fill="#999">1.6×</text>
<polygon points="506.0,84.5 558.5,96.1 611.0,106.4 663.5,114.9 716.0,120.3 716.0,121.1 663.5,116.9 611.0,112.8 558.5,102.5 506.0,85.9" fill="#d62728" opacity="0.11"/>
<polyline points="506.0,85.0 558.5,97.4 611.0,106.6 663.5,116.0 716.0,120.8" fill="none" stroke="#d62728" stroke-width="1.6"/>
<circle cx="506.0" cy="85.0" r="2" fill="#d62728"/>
<circle cx="558.5" cy="97.4" r="2" fill="#d62728"/>
<circle cx="611.0" cy="106.6" r="2" fill="#d62728"/>
<circle cx="663.5" cy="116.0" r="2" fill="#d62728"/>
<circle cx="716.0" cy="120.8" r="2" fill="#d62728"/>
<polygon points="506.0,112.6 558.5,114.8 611.0,110.6 663.5,113.8 716.0,121.2 716.0,124.5 663.5,117.2 611.0,115.3 558.5,115.5 506.0,116.0" fill="#2ca02c" opacity="0.11"/>
<polyline points="506.0,114.2 558.5,115.2 611.0,112.5 663.5,116.4 716.0,122.9" fill="none" stroke="#2ca02c" stroke-width="1.6"/>
<circle cx="506.0" cy="114.2" r="2" fill="#2ca02c"/>
<circle cx="558.5" cy="115.2" r="2" fill="#2ca02c"/>
<circle cx="611.0" cy="112.5" r="2" fill="#2ca02c"/>
<circle cx="663.5" cy="116.4" r="2" fill="#2ca02c"/>
<circle cx="716.0" cy="122.9" r="2" fill="#2ca02c"/>
<polygon points="506.0,105.1 558.5,109.8 611.0,98.2 663.5,118.1 716.0,124.0 716.0,127.1 663.5,119.0 611.0,103.2 558.5,112.1 506.0,107.5" fill="#1f77b4" opacity="0.11"/>
<polyline points="506.0,107.1 558.5,111.0 611.0,101.2 663.5,118.2 716.0,125.6" fill="none" stroke="#1f77b4" stroke-width="1.6"/>
<circle cx="506.0" cy="107.1" r="2" fill="#1f77b4"/>
<circle cx="558.5" cy="111.0" r="2" fill="#1f77b4"/>
<circle cx="611.0" cy="101.2" r="2" fill="#1f77b4"/>
<circle cx="663.5" cy="118.2" r="2" fill="#1f77b4"/>
<circle cx="716.0" cy="125.6" r="2" fill="#1f77b4"/>
<text x="611.0" y="55" text-anchor="middle" font-size="12" font-weight="bold">zgemvC</text>
<line x1="506.0" y1="60" x2="506.0" y2="198" stroke="#f4f4f4"/>
<text x="506.0" y="209" text-anchor="middle" font-size="8" fill="#999">64</text>
<line x1="558.5" y1="60" x2="558.5" y2="198" stroke="#f4f4f4"/>
<text x="558.5" y="209" text-anchor="middle" font-size="8" fill="#999">128</text>
<line x1="611.0" y1="60" x2="611.0" y2="198" stroke="#f4f4f4"/>
<text x="611.0" y="209" text-anchor="middle" font-size="8" fill="#999">256</text>
<line x1="663.5" y1="60" x2="663.5" y2="198" stroke="#f4f4f4"/>
<text x="663.5" y="209" text-anchor="middle" font-size="8" fill="#999">512</text>
<line x1="716.0" y1="60" x2="716.0" y2="198" stroke="#f4f4f4"/>
<text x="716.0" y="209" text-anchor="middle" font-size="8" fill="#999">1k</text>
<rect x="736" y="60" width="210" height="138" fill="none" stroke="#e2e2e2"/>
<line x1="736" y1="118.55196114942763" x2="946" y2="118.55196114942763" stroke="#d33" stroke-dasharray="4 3"/>
<text x="732" y="201.0" text-anchor="end" font-size="9" fill="#999">0.5×</text>
<text x="732" y="121.55196114942763" text-anchor="end" font-size="9" fill="#999">1.0×</text>
<polygon points="736.0,68.8 788.5,72.5 841.0,77.6 893.5,81.8 946.0,81.7 946.0,83.7 893.5,83.9 841.0,80.7 788.5,73.1 736.0,71.3" fill="#d62728" opacity="0.11"/>
<polyline points="736.0,70.1 788.5,72.7 841.0,78.8 893.5,82.6 946.0,82.2" fill="none" stroke="#d62728" stroke-width="1.6"/>
<circle cx="736.0" cy="70.1" r="2" fill="#d62728"/>
<circle cx="788.5" cy="72.7" r="2" fill="#d62728"/>
<circle cx="841.0" cy="78.8" r="2" fill="#d62728"/>
<circle cx="893.5" cy="82.6" r="2" fill="#d62728"/>
<circle cx="946.0" cy="82.2" r="2" fill="#d62728"/>
<polygon points="736.0,109.7 788.5,108.4 841.0,113.7 893.5,115.8 946.0,121.9 946.0,123.4 893.5,117.5 841.0,119.7 788.5,109.3 736.0,111.7" fill="#2ca02c" opacity="0.11"/>
<polyline points="736.0,110.4 788.5,108.9 841.0,115.3 893.5,116.1 946.0,122.7" fill="none" stroke="#2ca02c" stroke-width="1.6"/>
<circle cx="736.0" cy="110.4" r="2" fill="#2ca02c"/>
<circle cx="788.5" cy="108.9" r="2" fill="#2ca02c"/>
<circle cx="841.0" cy="115.3" r="2" fill="#2ca02c"/>
<circle cx="893.5" cy="116.1" r="2" fill="#2ca02c"/>
<circle cx="946.0" cy="122.7" r="2" fill="#2ca02c"/>
<polygon points="736.0,97.1 788.5,90.5 841.0,108.5 893.5,111.6 946.0,131.7 946.0,135.2 893.5,133.3 841.0,141.1 788.5,112.3 736.0,106.2" fill="#1f77b4" opacity="0.11"/>
<polyline points="736.0,99.0 788.5,101.2 841.0,121.6 893.5,120.2 946.0,133.4" fill="none" stroke="#1f77b4" stroke-width="1.6"/>
<circle cx="736.0" cy="99.0" r="2" fill="#1f77b4"/>
<circle cx="788.5" cy="101.2" r="2" fill="#1f77b4"/>
<circle cx="841.0" cy="121.6" r="2" fill="#1f77b4"/>
<circle cx="893.5" cy="120.2" r="2" fill="#1f77b4"/>
<circle cx="946.0" cy="133.4" r="2" fill="#1f77b4"/>
<text x="841.0" y="55" text-anchor="middle" font-size="12" font-weight="bold">zgeru</text>
<line x1="736.0" y1="60" x2="736.0" y2="198" stroke="#f4f4f4"/>
<text x="736.0" y="209" text-anchor="middle" font-size="8" fill="#999">64</text>
<line x1="788.5" y1="60" x2="788.5" y2="198" stroke="#f4f4f4"/>
<text x="788.5" y="209" text-anchor="middle" font-size="8" fill="#999">128</text>
<line x1="841.0" y1="60" x2="841.0" y2="198" stroke="#f4f4f4"/>
<text x="841.0" y="209" text-anchor="middle" font-size="8" fill="#999">256</text>
<line x1="893.5" y1="60" x2="893.5" y2="198" stroke="#f4f4f4"/>
<text x="893.5" y="209" text-anchor="middle" font-size="8" fill="#999">512</text>
<line x1="946.0" y1="60" x2="946.0" y2="198" stroke="#f4f4f4"/>
<text x="946.0" y="209" text-anchor="middle" font-size="8" fill="#999">1k</text>
<rect x="46" y="232" width="210" height="138" fill="none" stroke="#e2e2e2"/>
<line x1="46" y1="319.36144052749114" x2="256" y2="319.36144052749114" stroke="#d33" stroke-dasharray="4 3"/>
<text x="42" y="373.0" text-anchor="end" font-size="9" fill="#999">0.5×</text>
<text x="42" y="322.36144052749114" text-anchor="end" font-size="9" fill="#999">1.0×</text>
<polygon points="46.0,299.8 98.5,306.1 151.0,313.8 203.5,316.8 256.0,318.5 256.0,319.0 203.5,319.3 151.0,317.0 98.5,307.0 46.0,300.5" fill="#d62728" opacity="0.11"/>
<polyline points="46.0,300.2 98.5,306.8 151.0,315.1 203.5,318.5 256.0,318.7" fill="none" stroke="#d62728" stroke-width="1.6"/>
<circle cx="46.0" cy="300.2" r="2" fill="#d62728"/>
<circle cx="98.5" cy="306.8" r="2" fill="#d62728"/>
<circle cx="151.0" cy="315.1" r="2" fill="#d62728"/>
<circle cx="203.5" cy="318.5" r="2" fill="#d62728"/>
<circle cx="256.0" cy="318.7" r="2" fill="#d62728"/>
<polygon points="46.0,274.2 98.5,264.8 151.0,256.3 203.5,253.8 256.0,252.0 256.0,253.4 203.5,254.9 151.0,257.6 98.5,265.4 46.0,276.1" fill="#2ca02c" opacity="0.11"/>
<polyline points="46.0,275.1 98.5,265.1 151.0,256.8 203.5,254.3 256.0,252.7" fill="none" stroke="#2ca02c" stroke-width="1.6"/>
<circle cx="46.0" cy="275.1" r="2" fill="#2ca02c"/>
<circle cx="98.5" cy="265.1" r="2" fill="#2ca02c"/>
<circle cx="151.0" cy="256.8" r="2" fill="#2ca02c"/>
<circle cx="203.5" cy="254.3" r="2" fill="#2ca02c"/>
<circle cx="256.0" cy="252.7" r="2" fill="#2ca02c"/>
<polygon points="46.0,272.8 98.5,257.1 151.0,246.1 203.5,239.7 256.0,237.6 256.0,248.8 203.5,244.7 151.0,247.1 98.5,257.6 46.0,274.0" fill="#1f77b4" opacity="0.11"/>
<polyline points="46.0,273.2 98.5,257.3 151.0,246.6 203.5,240.9 256.0,241.3" fill="none" stroke="#1f77b4" stroke-width="1.6"/>
<circle cx="46.0" cy="273.2" r="2" fill="#1f77b4"/>
<circle cx="98.5" cy="257.3" r="2" fill="#1f77b4"/>
<circle cx="151.0" cy="246.6" r="2" fill="#1f77b4"/>
<circle cx="203.5" cy="240.9" r="2" fill="#1f77b4"/>
<circle cx="256.0" cy="241.3" r="2" fill="#1f77b4"/>
<text x="151.0" y="227" text-anchor="middle" font-size="12" font-weight="bold">zhemv</text>
<line x1="46.0" y1="232" x2="46.0" y2="370" stroke="#f4f4f4"/>
<text x="46.0" y="381" text-anchor="middle" font-size="8" fill="#999">64</text>
<line x1="98.5" y1="232" x2="98.5" y2="370" stroke="#f4f4f4"/>
<text x="98.5" y="381" text-anchor="middle" font-size="8" fill="#999">128</text>
<line x1="151.0" y1="232" x2="151.0" y2="370" stroke="#f4f4f4"/>
<text x="151.0" y="381" text-anchor="middle" font-size="8" fill="#999">256</text>
<line x1="203.5" y1="232" x2="203.5" y2="370" stroke="#f4f4f4"/>
<text x="203.5" y="381" text-anchor="middle" font-size="8" fill="#999">512</text>
<line x1="256.0" y1="232" x2="256.0" y2="370" stroke="#f4f4f4"/>
<text x="256.0" y="381" text-anchor="middle" font-size="8" fill="#999">1k</text>
<rect x="276" y="232" width="210" height="138" fill="none" stroke="#e2e2e2"/>
<line x1="276" y1="307.85435960780103" x2="486" y2="307.85435960780103" stroke="#d33" stroke-dasharray="4 3"/>
<text x="272" y="373.0" text-anchor="end" font-size="9" fill="#999">0.5×</text>
<text x="272" y="310.85435960780103" text-anchor="end" font-size="9" fill="#999">1.0×</text>
<text x="272" y="235.0161730720278" text-anchor="end" font-size="9" fill="#999">2.33×</text>
<polygon points="276.0,238.9 328.5,247.3 381.0,276.3 433.5,261.6 486.0,258.3 486.0,260.3 433.5,264.5 381.0,277.7 328.5,252.3 276.0,242.5" fill="#d62728" opacity="0.11"/>
<polyline points="276.0,239.9 328.5,247.7 381.0,277.2 433.5,263.3 486.0,259.0" fill="none" stroke="#d62728" stroke-width="1.6"/>
<circle cx="276.0" cy="239.9" r="2" fill="#d62728"/>
<circle cx="328.5" cy="247.7" r="2" fill="#d62728"/>
<circle cx="381.0" cy="277.2" r="2" fill="#d62728"/>
<circle cx="433.5" cy="263.3" r="2" fill="#d62728"/>
<circle cx="486.0" cy="259.0" r="2" fill="#d62728"/>
<polygon points="276.0,261.7 328.5,264.1 381.0,278.3 433.5,298.2 486.0,297.4 486.0,301.1 433.5,300.8 381.0,285.4 328.5,265.2 276.0,272.1" fill="#2ca02c" opacity="0.11"/>
<polyline points="276.0,265.0 328.5,264.7 381.0,282.0 433.5,299.7 486.0,299.9" fill="none" stroke="#2ca02c" stroke-width="1.6"/>
<circle cx="276.0" cy="265.0" r="2" fill="#2ca02c"/>
<circle cx="328.5" cy="264.7" r="2" fill="#2ca02c"/>
<circle cx="381.0" cy="282.0" r="2" fill="#2ca02c"/>
<circle cx="433.5" cy="299.7" r="2" fill="#2ca02c"/>
<circle cx="486.0" cy="299.9" r="2" fill="#2ca02c"/>
<polygon points="276.0,257.2 328.5,268.3 381.0,283.2 433.5,298.6 486.0,303.5 486.0,322.2 433.5,305.3 381.0,287.6 328.5,272.5 276.0,257.9" fill="#1f77b4" opacity="0.11"/>
<polyline points="276.0,257.5 328.5,269.3 381.0,285.4 433.5,299.2 486.0,307.8" fill="none" stroke="#1f77b4" stroke-width="1.6"/>
<circle cx="276.0" cy="257.5" r="2" fill="#1f77b4"/>
<circle cx="328.5" cy="269.3" r="2" fill="#1f77b4"/>
<circle cx="381.0" cy="285.4" r="2" fill="#1f77b4"/>
<circle cx="433.5" cy="299.2" r="2" fill="#1f77b4"/>
<circle cx="486.0" cy="307.8" r="2" fill="#1f77b4"/>
<text x="381.0" y="227" text-anchor="middle" font-size="12" font-weight="bold">ztrmv</text>
<line x1="276.0" y1="232" x2="276.0" y2="370" stroke="#f4f4f4"/>
<text x="276.0" y="381" text-anchor="middle" font-size="8" fill="#999">64</text>
<line x1="328.5" y1="232" x2="328.5" y2="370" stroke="#f4f4f4"/>
<text x="328.5" y="381" text-anchor="middle" font-size="8" fill="#999">128</text>
<line x1="381.0" y1="232" x2="381.0" y2="370" stroke="#f4f4f4"/>
<text x="381.0" y="381" text-anchor="middle" font-size="8" fill="#999">256</text>
<line x1="433.5" y1="232" x2="433.5" y2="370" stroke="#f4f4f4"/>
<text x="433.5" y="381" text-anchor="middle" font-size="8" fill="#999">512</text>
<line x1="486.0" y1="232" x2="486.0" y2="370" stroke="#f4f4f4"/>
<text x="486.0" y="381" text-anchor="middle" font-size="8" fill="#999">1k</text>
<rect x="506" y="232" width="210" height="138" fill="none" stroke="#e2e2e2"/>
<line x1="506" y1="291.22128452589936" x2="716" y2="291.22128452589936" stroke="#d33" stroke-dasharray="4 3"/>
<text x="502" y="373.0" text-anchor="end" font-size="9" fill="#999">0.5×</text>
<text x="502" y="294.22128452589936" text-anchor="end" font-size="9" fill="#999">1.0×</text>
<text x="502" y="235.25847000767993" text-anchor="end" font-size="9" fill="#999">1.68×</text>
<polygon points="506.0,240.7 558.5,255.2 611.0,283.9 663.5,267.9 716.0,268.1 716.0,269.5 663.5,270.1 611.0,287.4 558.5,257.2 506.0,242.7" fill="#d62728" opacity="0.11"/>
<polyline points="506.0,241.6 558.5,256.0 611.0,286.1 663.5,269.3 716.0,268.7" fill="none" stroke="#d62728" stroke-width="1.6"/>
<circle cx="506.0" cy="241.6" r="2" fill="#d62728"/>
<circle cx="558.5" cy="256.0" r="2" fill="#d62728"/>
<circle cx="611.0" cy="286.1" r="2" fill="#d62728"/>
<circle cx="663.5" cy="269.3" r="2" fill="#d62728"/>
<circle cx="716.0" cy="268.7" r="2" fill="#d62728"/>
<polygon points="506.0,252.6 558.5,251.4 611.0,255.5 663.5,269.6 716.0,278.6 716.0,283.2 663.5,271.5 611.0,260.0 558.5,253.6 506.0,253.5" fill="#2ca02c" opacity="0.11"/>
<polyline points="506.0,252.9 558.5,252.9 611.0,256.9 663.5,269.8 716.0,280.1" fill="none" stroke="#2ca02c" stroke-width="1.6"/>
<circle cx="506.0" cy="252.9" r="2" fill="#2ca02c"/>
<circle cx="558.5" cy="252.9" r="2" fill="#2ca02c"/>
<circle cx="611.0" cy="256.9" r="2" fill="#2ca02c"/>
<circle cx="663.5" cy="269.8" r="2" fill="#2ca02c"/>
<circle cx="716.0" cy="280.1" r="2" fill="#2ca02c"/>
<polygon points="506.0,244.4 558.5,249.8 611.0,249.5 663.5,268.0 716.0,286.8 716.0,306.4 663.5,280.2 611.0,252.7 558.5,251.6 506.0,246.5" fill="#1f77b4" opacity="0.11"/>
<polyline points="506.0,245.1 558.5,251.0 611.0,250.0 663.5,268.2 716.0,294.5" fill="none" stroke="#1f77b4" stroke-width="1.6"/>
<circle cx="506.0" cy="245.1" r="2" fill="#1f77b4"/>
<circle cx="558.5" cy="251.0" r="2" fill="#1f77b4"/>
<circle cx="611.0" cy="250.0" r="2" fill="#1f77b4"/>
<circle cx="663.5" cy="268.2" r="2" fill="#1f77b4"/>
<circle cx="716.0" cy="294.5" r="2" fill="#1f77b4"/>
<text x="611.0" y="227" text-anchor="middle" font-size="12" font-weight="bold">ztrsv</text>
<line x1="506.0" y1="232" x2="506.0" y2="370" stroke="#f4f4f4"/>
<text x="506.0" y="381" text-anchor="middle" font-size="8" fill="#999">64</text>
<line x1="558.5" y1="232" x2="558.5" y2="370" stroke="#f4f4f4"/>
<text x="558.5" y="381" text-anchor="middle" font-size="8" fill="#999">128</text>
<line x1="611.0" y1="232" x2="611.0" y2="370" stroke="#f4f4f4"/>
<text x="611.0" y="381" text-anchor="middle" font-size="8" fill="#999">256</text>
<line x1="663.5" y1="232" x2="663.5" y2="370" stroke="#f4f4f4"/>
<text x="663.5" y="381" text-anchor="middle" font-size="8" fill="#999">512</text>
<line x1="716.0" y1="232" x2="716.0" y2="370" stroke="#f4f4f4"/>
<text x="716.0" y="381" text-anchor="middle" font-size="8" fill="#999">1k</text>
<rect x="736" y="232" width="210" height="138" fill="none" stroke="#e2e2e2"/>
<line x1="736" y1="339.1713878478387" x2="946" y2="339.1713878478387" stroke="#d33" stroke-dasharray="4 3"/>
<text x="732" y="373.0" text-anchor="end" font-size="9" fill="#999">0.5×</text>
<text x="732" y="342.1713878478387" text-anchor="end" font-size="9" fill="#999">1.0×</text>
<polygon points="736.0,269.3 788.5,258.2 841.0,251.5 893.5,247.8 946.0,248.5 946.0,249.1 893.5,248.4 841.0,252.6 788.5,258.5 736.0,269.9" fill="#d62728" opacity="0.11"/>
<polyline points="736.0,269.5 788.5,258.3 841.0,251.7 893.5,248.3 946.0,248.6" fill="none" stroke="#d62728" stroke-width="1.6"/>
<circle cx="736.0" cy="269.5" r="2" fill="#d62728"/>
<circle cx="788.5" cy="258.3" r="2" fill="#d62728"/>
<circle cx="841.0" cy="251.7" r="2" fill="#d62728"/>
<circle cx="893.5" cy="248.3" r="2" fill="#d62728"/>
<circle cx="946.0" cy="248.6" r="2" fill="#d62728"/>
<polygon points="736.0,269.0 788.5,253.5 841.0,243.3 893.5,238.1 946.0,235.4 946.0,235.6 893.5,240.1 841.0,244.0 788.5,253.9 736.0,271.6" fill="#2ca02c" opacity="0.11"/>
<polyline points="736.0,269.5 788.5,253.5 841.0,243.7 893.5,238.2 946.0,235.5" fill="none" stroke="#2ca02c" stroke-width="1.6"/>
<circle cx="736.0" cy="269.5" r="2" fill="#2ca02c"/>
<circle cx="788.5" cy="253.5" r="2" fill="#2ca02c"/>
<circle cx="841.0" cy="243.7" r="2" fill="#2ca02c"/>
<circle cx="893.5" cy="238.2" r="2" fill="#2ca02c"/>
<circle cx="946.0" cy="235.5" r="2" fill="#2ca02c"/>
<polygon points="736.0,270.8 788.5,256.2 841.0,246.3 893.5,241.0 946.0,247.0 946.0,247.7 893.5,282.7 841.0,246.8 788.5,258.1 736.0,272.2" fill="#1f77b4" opacity="0.11"/>
<polyline points="736.0,271.3 788.5,256.6 841.0,246.5 893.5,257.5 946.0,247.2" fill="none" stroke="#1f77b4" stroke-width="1.6"/>
<circle cx="736.0" cy="271.3" r="2" fill="#1f77b4"/>
<circle cx="788.5" cy="256.6" r="2" fill="#1f77b4"/>
<circle cx="841.0" cy="246.5" r="2" fill="#1f77b4"/>
<circle cx="893.5" cy="257.5" r="2" fill="#1f77b4"/>
<circle cx="946.0" cy="247.2" r="2" fill="#1f77b4"/>
<text x="841.0" y="227" text-anchor="middle" font-size="12" font-weight="bold">zhpmv</text>
<line x1="736.0" y1="232" x2="736.0" y2="370" stroke="#f4f4f4"/>
<text x="736.0" y="381" text-anchor="middle" font-size="8" fill="#999">64</text>
<line x1="788.5" y1="232" x2="788.5" y2="370" stroke="#f4f4f4"/>
<text x="788.5" y="381" text-anchor="middle" font-size="8" fill="#999">128</text>
<line x1="841.0" y1="232" x2="841.0" y2="370" stroke="#f4f4f4"/>
<text x="841.0" y="381" text-anchor="middle" font-size="8" fill="#999">256</text>
<line x1="893.5" y1="232" x2="893.5" y2="370" stroke="#f4f4f4"/>
<text x="893.5" y="381" text-anchor="middle" font-size="8" fill="#999">512</text>
<line x1="946.0" y1="232" x2="946.0" y2="370" stroke="#f4f4f4"/>
<text x="946.0" y="381" text-anchor="middle" font-size="8" fill="#999">1k</text>
<rect x="46" y="404" width="210" height="138" fill="none" stroke="#e2e2e2"/>
<line x1="46" y1="485.32029996496544" x2="256" y2="485.32029996496544" stroke="#d33" stroke-dasharray="4 3"/>
<text x="42" y="545.0" text-anchor="end" font-size="9" fill="#999">0.5×</text>
<text x="42" y="488.32029996496544" text-anchor="end" font-size="9" fill="#999">1.0×</text>
<text x="42" y="407.1005905981749" text-anchor="end" font-size="9" fill="#999">2.7×</text>
<polygon points="46.0,420.7 98.5,422.9 151.0,423.4 203.5,423.6 256.0,426.8 256.0,429.8 203.5,427.3 151.0,428.8 98.5,426.5 46.0,422.5" fill="#d62728" opacity="0.11"/>
<polyline points="46.0,421.5 98.5,425.4 151.0,423.8 203.5,424.6 256.0,428.2" fill="none" stroke="#d62728" stroke-width="1.6"/>
<circle cx="46.0" cy="421.5" r="2" fill="#d62728"/>
<circle cx="98.5" cy="425.4" r="2" fill="#d62728"/>
<circle cx="151.0" cy="423.8" r="2" fill="#d62728"/>
<circle cx="203.5" cy="424.6" r="2" fill="#d62728"/>
<circle cx="256.0" cy="428.2" r="2" fill="#d62728"/>
<polygon points="46.0,411.8 98.5,410.3 151.0,412.2 203.5,412.4 256.0,412.2 256.0,413.5 203.5,413.3 151.0,415.4 98.5,413.3 46.0,421.5" fill="#2ca02c" opacity="0.11"/>
<polyline points="46.0,413.8 98.5,411.0 151.0,413.8 203.5,412.9 256.0,413.2" fill="none" stroke="#2ca02c" stroke-width="1.6"/>
<circle cx="46.0" cy="413.8" r="2" fill="#2ca02c"/>
<circle cx="98.5" cy="411.0" r="2" fill="#2ca02c"/>
<circle cx="151.0" cy="413.8" r="2" fill="#2ca02c"/>
<circle cx="203.5" cy="412.9" r="2" fill="#2ca02c"/>
<circle cx="256.0" cy="413.2" r="2" fill="#2ca02c"/>
<polygon points="46.0,429.4 98.5,429.1 151.0,432.2 203.5,431.7 256.0,432.9 256.0,435.1 203.5,434.3 151.0,435.6 98.5,434.6 46.0,433.4" fill="#1f77b4" opacity="0.11"/>
<polyline points="46.0,430.3 98.5,430.5 151.0,432.7 203.5,432.7 256.0,434.0" fill="none" stroke="#1f77b4" stroke-width="1.6"/>
<circle cx="46.0" cy="430.3" r="2" fill="#1f77b4"/>
<circle cx="98.5" cy="430.5" r="2" fill="#1f77b4"/>
<circle cx="151.0" cy="432.7" r="2" fill="#1f77b4"/>
<circle cx="203.5" cy="432.7" r="2" fill="#1f77b4"/>
<circle cx="256.0" cy="434.0" r="2" fill="#1f77b4"/>
<text x="151.0" y="399" text-anchor="middle" font-size="12" font-weight="bold">zgbmvN</text>
<line x1="46.0" y1="404" x2="46.0" y2="542" stroke="#f4f4f4"/>
<text x="46.0" y="553" text-anchor="middle" font-size="8" fill="#999">64</text>
<line x1="98.5" y1="404" x2="98.5" y2="542" stroke="#f4f4f4"/>
<text x="98.5" y="553" text-anchor="middle" font-size="8" fill="#999">128</text>
<line x1="151.0" y1="404" x2="151.0" y2="542" stroke="#f4f4f4"/>
<text x="151.0" y="553" text-anchor="middle" font-size="8" fill="#999">256</text>
<line x1="203.5" y1="404" x2="203.5" y2="542" stroke="#f4f4f4"/>
<text x="203.5" y="553" text-anchor="middle" font-size="8" fill="#999">512</text>
<line x1="256.0" y1="404" x2="256.0" y2="542" stroke="#f4f4f4"/>
<text x="256.0" y="553" text-anchor="middle" font-size="8" fill="#999">1k</text>
<rect x="276" y="404" width="210" height="138" fill="none" stroke="#e2e2e2"/>
<line x1="276" y1="489.44524510153076" x2="486" y2="489.44524510153076" stroke="#d33" stroke-dasharray="4 3"/>
<text x="272" y="545.0" text-anchor="end" font-size="9" fill="#999">0.5×</text>
<text x="272" y="492.44524510153076" text-anchor="end" font-size="9" fill="#999">1.0×</text>
<polygon points="276.0,415.3 328.5,412.3 381.0,410.3 433.5,410.4 486.0,409.8 486.0,410.6 433.5,411.0 381.0,412.2 328.5,413.5 276.0,419.7" fill="#d62728" opacity="0.11"/>
<polyline points="276.0,416.2 328.5,413.4 381.0,410.7 433.5,410.4 486.0,410.1" fill="none" stroke="#d62728" stroke-width="1.6"/>
<circle cx="276.0" cy="416.2" r="2" fill="#d62728"/>
<circle cx="328.5" cy="413.4" r="2" fill="#d62728"/>
<circle cx="381.0" cy="410.7" r="2" fill="#d62728"/>
<circle cx="433.5" cy="410.4" r="2" fill="#d62728"/>
<circle cx="486.0" cy="410.1" r="2" fill="#d62728"/>
<polygon points="276.0,426.3 328.5,424.0 381.0,422.6 433.5,421.3 486.0,421.4 486.0,422.2 433.5,422.6 381.0,424.1 328.5,424.8 276.0,428.3" fill="#2ca02c" opacity="0.11"/>
<polyline points="276.0,426.5 328.5,424.4 381.0,423.0 433.5,422.5 486.0,421.9" fill="none" stroke="#2ca02c" stroke-width="1.6"/>
<circle cx="276.0" cy="426.5" r="2" fill="#2ca02c"/>
<circle cx="328.5" cy="424.4" r="2" fill="#2ca02c"/>
<circle cx="381.0" cy="423.0" r="2" fill="#2ca02c"/>
<circle cx="433.5" cy="422.5" r="2" fill="#2ca02c"/>
<circle cx="486.0" cy="421.9" r="2" fill="#2ca02c"/>
<polygon points="276.0,424.0 328.5,420.6 381.0,420.3 433.5,419.9 486.0,419.7 486.0,422.7 433.5,421.0 381.0,421.4 328.5,422.2 276.0,429.0" fill="#1f77b4" opacity="0.11"/>
<polyline points="276.0,425.1 328.5,421.0 381.0,421.0 433.5,420.3 486.0,420.5" fill="none" stroke="#1f77b4" stroke-width="1.6"/>
<circle cx="276.0" cy="425.1" r="2" fill="#1f77b4"/>
<circle cx="328.5" cy="421.0" r="2" fill="#1f77b4"/>
<circle cx="381.0" cy="421.0" r="2" fill="#1f77b4"/>
<circle cx="433.5" cy="420.3" r="2" fill="#1f77b4"/>
<circle cx="486.0" cy="420.5" r="2" fill="#1f77b4"/>
<text x="381.0" y="399" text-anchor="middle" font-size="12" font-weight="bold">zhbmv</text>
<line x1="276.0" y1="404" x2="276.0" y2="542" stroke="#f4f4f4"/>
<text x="276.0" y="553" text-anchor="middle" font-size="8" fill="#999">64</text>
<line x1="328.5" y1="404" x2="328.5" y2="542" stroke="#f4f4f4"/>
<text x="328.5" y="553" text-anchor="middle" font-size="8" fill="#999">128</text>
<line x1="381.0" y1="404" x2="381.0" y2="542" stroke="#f4f4f4"/>
<text x="381.0" y="553" text-anchor="middle" font-size="8" fill="#999">256</text>
<line x1="433.5" y1="404" x2="433.5" y2="542" stroke="#f4f4f4"/>
<text x="433.5" y="553" text-anchor="middle" font-size="8" fill="#999">512</text>
<line x1="486.0" y1="404" x2="486.0" y2="542" stroke="#f4f4f4"/>
<text x="486.0" y="553" text-anchor="middle" font-size="8" fill="#999">1k</text>
</svg>
