<svg xmlns="http://www.w3.org/2000/svg" width="900" height="460" font-family="sans-serif">
<rect width="900" height="460" fill="white"/>
<text x="450.0" y="28" text-anchor="middle" font-size="18" font-weight="bold">Complex BLAS-3: PureBLAS / OpenBLAS (AVX-512 native (Zen5), 1 thread, ComplexF64)</text>
<line x1="62" y1="400.0" x2="768" y2="400.0" stroke="#eee"/>
<text x="54" y="404.0" text-anchor="end" font-size="11" fill="#666">0.5×</text>
<line x1="62" y1="321.14715844286155" x2="768" y2="321.14715844286155" stroke="#eee"/>
<text x="54" y="325.14715844286155" text-anchor="end" font-size="11" fill="#666">0.7×</text>
<line x1="62" y1="237.55977802709216" x2="768" y2="237.55977802709216" stroke="#eee"/>
<text x="54" y="241.55977802709216" text-anchor="end" font-size="11" fill="#666">1.0×</text>
<line x1="62" y1="142.5383395641203" x2="768" y2="142.5383395641203" stroke="#eee"/>
<text x="54" y="146.5383395641203" text-anchor="end" font-size="11" fill="#666">1.5×</text>
<line x1="62" y1="75.1195560541843" x2="768" y2="75.1195560541843" stroke="#eee"/>
<text x="54" y="79.1195560541843" text-anchor="end" font-size="11" fill="#666">2.0×</text>
<line x1="62.0" y1="50" x2="62.0" y2="400" stroke="#f4f4f4"/>
<text x="62.0" y="418" text-anchor="middle" font-size="11" fill="#444">8</text>
<line x1="238.5" y1="50" x2="238.5" y2="400" stroke="#f4f4f4"/>
<text x="238.5" y="418" text-anchor="middle" font-size="11" fill="#444">32</text>
<line x1="415.0" y1="50" x2="415.0" y2="400" stroke="#f4f4f4"/>
<text x="415.0" y="418" text-anchor="middle" font-size="11" fill="#444">128</text>
<line x1="503.25" y1="50" x2="503.25" y2="400" stroke="#f4f4f4"/>
<text x="503.25" y="418" text-anchor="middle" font-size="11" fill="#444">256</text>
<line x1="591.5" y1="50" x2="591.5" y2="400" stroke="#f4f4f4"/>
<text x="591.5" y="418" text-anchor="middle" font-size="11" fill="#444">512</text>
<line x1="679.75" y1="50" x2="679.75" y2="400" stroke="#f4f4f4"/>
<text x="679.75" y="418" text-anchor="middle" font-size="11" fill="#444">1024</text>
<line x1="768.0" y1="50" x2="768.0" y2="400" stroke="#f4f4f4"/>
<text x="768.0" y="418" text-anchor="middle" font-size="11" fill="#444">2048</text>
<line x1="62" y1="237.55977802709216" x2="768" y2="237.55977802709216" stroke="#888"/>
<line x1="62" y1="247.12648194975722" x2="768" y2="247.12648194975722" stroke="#d33" stroke-width="1.5" stroke-dasharray="6 4"/>
<text x="66" y="242.12648194975722" font-size="11" fill="#d33">0.96× gate</text>
<polygon points="62.0,114.8 238.5,126.8 415.0,179.2 503.2,181.4 591.5,192.3 679.8,195.8 768.0,198.8 768.0,199.0 679.8,196.1 591.5,193.3 503.2,182.4 415.0,181.0 238.5,139.3 62.0,204.1" fill="#1f77b4" opacity="0.14" stroke="none"/>
<polyline points="62.0,151.9 238.5,133.3 415.0,180.1 503.2,181.7 591.5,192.6 679.8,195.9 768.0,198.9" fill="none" stroke="#1f77b4" stroke-width="2"/>
<circle cx="62.0" cy="151.9" r="3" fill="#1f77b4"/>
<circle cx="238.5" cy="133.3" r="3" fill="#1f77b4"/>
<circle cx="415.0" cy="180.1" r="3" fill="#1f77b4"/>
<circle cx="503.2" cy="181.7" r="3" fill="#1f77b4"/>
<circle cx="591.5" cy="192.6" r="3" fill="#1f77b4"/>
<circle cx="679.8" cy="195.9" r="3" fill="#1f77b4"/>
<circle cx="768.0" cy="198.9" r="3" fill="#1f77b4"/>
<line x1="782" y1="56" x2="802" y2="56" stroke="#1f77b4" stroke-width="3"/>
<text x="806" y="60" font-size="12">zgemm</text>
<polygon points="62.0,254.4 238.5,161.2 415.0,192.7 503.2,183.9 591.5,193.9 679.8,196.0 768.0,198.6 768.0,198.9 679.8,196.9 591.5,195.7 503.2,185.0 415.0,195.4 238.5,184.8 62.0,263.0" fill="#d62728" opacity="0.14" stroke="none"/>
<polyline points="62.0,258.6 238.5,183.5 415.0,193.8 503.2,184.6 591.5,194.7 679.8,196.5 768.0,198.7" fill="none" stroke="#d62728" stroke-width="2"/>
<circle cx="62.0" cy="258.6" r="3" fill="#d62728"/>
<circle cx="238.5" cy="183.5" r="3" fill="#d62728"/>
<circle cx="415.0" cy="193.8" r="3" fill="#d62728"/>
<circle cx="503.2" cy="184.6" r="3" fill="#d62728"/>
<circle cx="591.5" cy="194.7" r="3" fill="#d62728"/>
<circle cx="679.8" cy="196.5" r="3" fill="#d62728"/>
<circle cx="768.0" cy="198.7" r="3" fill="#d62728"/>
<line x1="782" y1="74" x2="802" y2="74" stroke="#d62728" stroke-width="3"/>
<text x="806" y="78" font-size="12">zhemm</text>
<polygon points="62.0,181.8 238.5,267.1 415.0,208.2 503.2,187.2 591.5,194.1 679.8,195.5 768.0,197.3 768.0,198.2 679.8,196.6 591.5,201.3 503.2,192.4 415.0,219.0 238.5,284.9 62.0,186.6" fill="#2ca02c" opacity="0.14" stroke="none"/>
<polyline points="62.0,185.1 238.5,276.1 415.0,211.8 503.2,190.3 591.5,196.4 679.8,196.1 768.0,198.1" fill="none" stroke="#2ca02c" stroke-width="2"/>
<circle cx="62.0" cy="185.1" r="3" fill="#2ca02c"/>
<circle cx="238.5" cy="276.1" r="3" fill="#2ca02c"/>
<circle cx="415.0" cy="211.8" r="3" fill="#2ca02c"/>
<circle cx="503.2" cy="190.3" r="3" fill="#2ca02c"/>
<circle cx="591.5" cy="196.4" r="3" fill="#2ca02c"/>
<circle cx="679.8" cy="196.1" r="3" fill="#2ca02c"/>
<circle cx="768.0" cy="198.1" r="3" fill="#2ca02c"/>
<line x1="782" y1="92" x2="802" y2="92" stroke="#2ca02c" stroke-width="3"/>
<text x="806" y="96" font-size="12">zherk</text>
<polygon points="62.0,238.3 238.5,267.4 415.0,218.0 503.2,190.7 591.5,196.6 679.8,196.4 768.0,197.4 768.0,197.9 679.8,197.4 591.5,199.5 503.2,195.4 415.0,228.8 238.5,290.3 62.0,249.6" fill="#9467bd" opacity="0.14" stroke="none"/>
<polyline points="62.0,243.1 238.5,279.8 415.0,222.9 503.2,192.3 591.5,197.6 679.8,196.8 768.0,197.7" fill="none" stroke="#9467bd" stroke-width="2"/>
<circle cx="62.0" cy="243.1" r="3" fill="#9467bd"/>
<circle cx="238.5" cy="279.8" r="3" fill="#9467bd"/>
<circle cx="415.0" cy="222.9" r="3" fill="#9467bd"/>
<circle cx="503.2" cy="192.3" r="3" fill="#9467bd"/>
<circle cx="591.5" cy="197.6" r="3" fill="#9467bd"/>
<circle cx="679.8" cy="196.8" r="3" fill="#9467bd"/>
<circle cx="768.0" cy="197.7" r="3" fill="#9467bd"/>
<line x1="782" y1="110" x2="802" y2="110" stroke="#9467bd" stroke-width="3"/>
<text x="806" y="114" font-size="12">zher2k</text>
<polygon points="62.0,242.1 238.5,269.3 415.0,219.8 503.2,189.3 591.5,198.0 679.8,196.2 768.0,199.1 768.0,199.4 679.8,197.4 591.5,200.8 503.2,201.4 415.0,227.6 238.5,285.2 62.0,259.2" fill="#ff7f0e" opacity="0.14" stroke="none"/>
<polyline points="62.0,247.9 238.5,275.7 415.0,221.4 503.2,193.9 591.5,199.7 679.8,197.0 768.0,199.3" fill="none" stroke="#ff7f0e" stroke-width="2"/>
<circle cx="62.0" cy="247.9" r="3" fill="#ff7f0e"/>
<circle cx="238.5" cy="275.7" r="3" fill="#ff7f0e"/>
<circle cx="415.0" cy="221.4" r="3" fill="#ff7f0e"/>
<circle cx="503.2" cy="193.9" r="3" fill="#ff7f0e"/>
<circle cx="591.5" cy="199.7" r="3" fill="#ff7f0e"/>
<circle cx="679.8" cy="197.0" r="3" fill="#ff7f0e"/>
<circle cx="768.0" cy="199.3" r="3" fill="#ff7f0e"/>
<line x1="782" y1="128" x2="802" y2="128" stroke="#ff7f0e" stroke-width="3"/>
<text x="806" y="132" font-size="12">zsyr2k</text>
<polygon points="62.0,177.4 238.5,193.6 415.0,211.0 503.2,206.8 591.5,203.7 679.8,204.5 768.0,204.3 768.0,204.6 679.8,204.7 591.5,205.0 503.2,208.2 415.0,223.2 238.5,244.2 62.0,201.1" fill="#17becf" opacity="0.14" stroke="none"/>
<polyline points="62.0,189.6 238.5,224.1 415.0,214.0 503.2,207.1 591.5,204.2 679.8,204.5 768.0,204.4" fill="none" stroke="#17becf" stroke-width="2"/>
<circle cx="62.0" cy="189.6" r="3" fill="#17becf"/>
<circle cx="238.5" cy="224.1" r="3" fill="#17becf"/>
<circle cx="415.0" cy="214.0" r="3" fill="#17becf"/>
<circle cx="503.2" cy="207.1" r="3" fill="#17becf"/>
<circle cx="591.5" cy="204.2" r="3" fill="#17becf"/>
<circle cx="679.8" cy="204.5" r="3" fill="#17becf"/>
<circle cx="768.0" cy="204.4" r="3" fill="#17becf"/>
<line x1="782" y1="146" x2="802" y2="146" stroke="#17becf" stroke-width="3"/>
<text x="806" y="150" font-size="12">ztrmm</text>
<polygon points="62.0,149.7 238.5,194.2 415.0,176.8 503.2,193.6 591.5,190.1 679.8,195.1 768.0,201.4 768.0,201.7 679.8,196.1 591.5,191.4 503.2,195.3 415.0,180.6 238.5,209.5 62.0,165.8" fill="#8c564b" opacity="0.14" stroke="none"/>
<polyline points="62.0,154.4 238.5,198.7 415.0,177.5 503.2,194.2 591.5,191.2 679.8,195.4 768.0,201.5" fill="none" stroke="#8c564b" stroke-width="2"/>
<circle cx="62.0" cy="154.4" r="3" fill="#8c564b"/>
<circle cx="238.5" cy="198.7" r="3" fill="#8c564b"/>
<circle cx="415.0" cy="177.5" r="3" fill="#8c564b"/>
<circle cx="503.2" cy="194.2" r="3" fill="#8c564b"/>
<circle cx="591.5" cy="191.2" r="3" fill="#8c564b"/>
<circle cx="679.8" cy="195.4" r="3" fill="#8c564b"/>
<circle cx="768.0" cy="201.5" r="3" fill="#8c564b"/>
<line x1="782" y1="164" x2="802" y2="164" stroke="#8c564b" stroke-width="3"/>
<text x="806" y="168" font-size="12">ztrsm</text>
<polygon points="62.0,164.1 238.5,179.9 415.0,214.7 503.2,199.4 591.5,203.5 679.8,203.3 768.0,203.2 768.0,203.3 679.8,203.6 591.5,206.7 503.2,201.4 415.0,224.5 238.5,211.5 62.0,182.7" fill="#e377c2" opacity="0.14" stroke="none"/>
<polyline points="62.0,176.8 238.5,187.2 415.0,217.6 503.2,200.6 591.5,204.2 679.8,203.4 768.0,203.2" fill="none" stroke="#e377c2" stroke-width="2"/>
<circle cx="62.0" cy="176.8" r="3" fill="#e377c2"/>
<circle cx="238.5" cy="187.2" r="3" fill="#e377c2"/>
<circle cx="415.0" cy="217.6" r="3" fill="#e377c2"/>
<circle cx="503.2" cy="200.6" r="3" fill="#e377c2"/>
<circle cx="591.5" cy="204.2" r="3" fill="#e377c2"/>
<circle cx="679.8" cy="203.4" r="3" fill="#e377c2"/>
<circle cx="768.0" cy="203.2" r="3" fill="#e377c2"/>
<line x1="782" y1="182" x2="802" y2="182" stroke="#e377c2" stroke-width="3"/>
<text x="806" y="186" font-size="12">ztrmmR</text>
<polygon points="62.0,70.2 238.5,83.6 415.0,121.6 503.2,150.7 591.5,174.1 679.8,188.3 768.0,199.2 768.0,200.9 679.8,188.7 591.5,175.6 503.2,151.5 415.0,123.9 238.5,91.3 62.0,95.2" fill="#1f77b4" opacity="0.14" stroke="none"/>
<polyline points="62.0,82.8 238.5,87.0 415.0,122.4 503.2,151.2 591.5,174.6 679.8,188.4 768.0,199.8" fill="none" stroke="#1f77b4" stroke-width="2"/>
<circle cx="62.0" cy="82.8" r="3" fill="#1f77b4"/>
<circle cx="238.5" cy="87.0" r="3" fill="#1f77b4"/>
<circle cx="415.0" cy="122.4" r="3" fill="#1f77b4"/>
<circle cx="503.2" cy="151.2" r="3" fill="#1f77b4"/>
<circle cx="591.5" cy="174.6" r="3" fill="#1f77b4"/>
<circle cx="679.8" cy="188.4" r="3" fill="#1f77b4"/>
<circle cx="768.0" cy="199.8" r="3" fill="#1f77b4"/>
<line x1="782" y1="200" x2="802" y2="200" stroke="#1f77b4" stroke-width="3"/>
<text x="806" y="204" font-size="12">ztrsmR</text>
<text x="415.0" y="450" text-anchor="middle" font-size="11" fill="#666">matrix size n (log) · y = median ratio (log) · dashed = the 0.96× gate</text>
</svg>
