<svg xmlns="http://www.w3.org/2000/svg" width="900" height="440" font-family="sans-serif">
<rect width="900" height="440" fill="white"/>
<text x="450.0" y="28" text-anchor="middle" font-size="18" font-weight="bold">Complex BLAS-2: PureBLAS / OpenBLAS (AVX-512, 1 thread, ComplexF64)</text>
<line x1="60" y1="358.0" x2="880" y2="358.0" stroke="#eee"/>
<text x="52" y="362.0" text-anchor="end" font-size="11" fill="#666">0×</text>
<line x1="60" y1="290.5736139126773" x2="880" y2="290.5736139126773" stroke="#eee"/>
<text x="52" y="294.5736139126773" text-anchor="end" font-size="11" fill="#666">0.5×</text>
<line x1="60" y1="223.14722782535458" x2="880" y2="223.14722782535458" stroke="#eee"/>
<text x="52" y="227.14722782535458" text-anchor="end" font-size="11" fill="#666">1×</text>
<line x1="60" y1="155.72084173803188" x2="880" y2="155.72084173803188" stroke="#eee"/>
<text x="52" y="159.72084173803188" text-anchor="end" font-size="11" fill="#666">1.5×</text>
<line x1="60" y1="223.14722782535458" x2="880" y2="223.14722782535458" stroke="#888" stroke-width="1"/>
<line x1="60" y1="228.54133871234038" x2="880" y2="228.54133871234038" stroke="#d33" stroke-width="1.5" stroke-dasharray="6 4"/>
<text x="880" y="223.54133871234038" text-anchor="end" font-size="11" fill="#d33">0.96× gate</text>
<polygon points="101.8,226.0 102.2,225.2 102.8,224.4 103.5,223.6 104.6,222.8 105.9,222.0 107.6,221.3 109.6,220.5 112.0,219.7 114.7,218.9 117.6,218.1 120.7,217.3 123.8,216.5 126.8,215.7 129.5,214.9 131.8,214.1 133.7,213.4 134.9,212.6 135.4,211.8 135.3,211.0 134.6,210.2 133.3,209.4 131.5,208.6 129.3,207.8 126.8,207.0 124.2,206.2 121.6,205.4 119.1,204.7 116.8,203.9 114.9,203.1 113.3,202.3 112.2,201.5 111.5,200.7 111.1,199.9 111.1,199.1 111.4,198.3 111.8,197.5 112.4,196.8 113.1,196.0 113.7,195.2 114.3,194.4 114.8,193.6 115.2,192.8 115.4,192.0 115.4,191.2 115.1,190.4 114.7,189.6 114.0,188.8 113.2,188.1 112.2,187.3 111.2,186.5 110.2,185.7 109.3,184.9 108.5,184.1 107.9,183.3 107.7,182.5 107.7,181.7 108.0,180.9 108.4,180.2 109.1,179.4 109.8,178.6 110.4,177.8 110.9,177.0 111.2,176.2 111.2,175.4 111.0,174.6 110.5,173.8 109.7,173.0 108.8,172.3 107.8,171.5 106.7,170.7 105.6,169.9 96.4,169.9 95.3,170.7 94.2,171.5 93.2,172.3 92.3,173.0 91.5,173.8 91.0,174.6 90.8,175.4 90.8,176.2 91.1,177.0 91.6,177.8 92.2,178.6 92.9,179.4 93.6,180.2 94.0,180.9 94.3,181.7 94.3,182.5 94.1,183.3 93.5,184.1 92.7,184.9 91.8,185.7 90.8,186.5 89.8,187.3 88.8,188.1 88.0,188.8 87.3,189.6 86.9,190.4 86.6,191.2 86.6,192.0 86.8,192.8 87.2,193.6 87.7,194.4 88.3,195.2 88.9,196.0 89.6,196.8 90.2,197.5 90.6,198.3 90.9,199.1 90.9,199.9 90.5,200.7 89.8,201.5 88.7,202.3 87.1,203.1 85.2,203.9 82.9,204.7 80.4,205.4 77.8,206.2 75.2,207.0 72.7,207.8 70.5,208.6 68.7,209.4 67.4,210.2 66.7,211.0 66.6,211.8 67.1,212.6 68.3,213.4 70.2,214.1 72.5,214.9 75.2,215.7 78.2,216.5 81.3,217.3 84.4,218.1 87.3,218.9 90.0,219.7 92.4,220.5 94.4,221.3 96.1,222.0 97.4,222.8 98.5,223.6 99.2,224.4 99.8,225.2 100.2,226.0" fill="#2a8" opacity="0.5" stroke="#2a8" stroke-width="1"/>
<line x1="72.2" y1="208.00553636563302" x2="129.8" y2="208.00553636563302" stroke="#114" stroke-width="2"/>
<circle cx="101.0" cy="213.99030667526227" r="2.4" fill="#114"/>
<text x="101.0" y="169.5283704760081" text-anchor="middle" font-size="11">1.11</text>
<text x="101.0" y="376" text-anchor="middle" font-size="12">zgemvN</text>
<polygon points="185.9,246.3 186.9,245.3 188.0,244.2 189.3,243.2 190.6,242.1 192.0,241.1 193.4,240.0 194.7,239.0 195.9,237.9 196.9,236.9 197.8,235.9 198.5,234.8 199.2,233.8 199.9,232.7 200.7,231.7 201.7,230.6 202.8,229.6 204.3,228.6 206.0,227.5 207.8,226.5 209.8,225.4 211.8,224.4 213.6,223.3 215.2,222.3 216.4,221.3 217.2,220.2 217.4,219.2 217.2,218.1 216.5,217.1 215.3,216.0 213.8,215.0 212.1,214.0 210.3,212.9 208.5,211.9 206.8,210.8 205.2,209.8 203.8,208.7 202.6,207.7 201.6,206.7 200.9,205.6 200.3,204.6 199.8,203.5 199.5,202.5 199.3,201.4 199.1,200.4 199.0,199.3 198.9,198.3 198.7,197.3 198.5,196.2 198.1,195.2 197.7,194.1 197.2,193.1 196.6,192.0 196.1,191.0 195.6,190.0 195.3,188.9 195.1,187.9 195.1,186.8 195.3,185.8 195.7,184.7 196.1,183.7 196.5,182.7 196.8,181.6 196.9,180.6 196.7,179.5 196.2,178.5 195.4,177.4 194.4,176.4 193.1,175.4 191.7,174.3 190.3,173.3 188.9,172.2 177.1,172.2 175.7,173.3 174.3,174.3 172.9,175.4 171.6,176.4 170.6,177.4 169.8,178.5 169.3,179.5 169.1,180.6 169.2,181.6 169.5,182.7 169.9,183.7 170.3,184.7 170.7,185.8 170.9,186.8 170.9,187.9 170.7,188.9 170.4,190.0 169.9,191.0 169.4,192.0 168.8,193.1 168.3,194.1 167.9,195.2 167.5,196.2 167.3,197.3 167.1,198.3 167.0,199.3 166.9,200.4 166.7,201.4 166.5,202.5 166.2,203.5 165.7,204.6 165.1,205.6 164.4,206.7 163.4,207.7 162.2,208.7 160.8,209.8 159.2,210.8 157.5,211.9 155.7,212.9 153.9,214.0 152.2,215.0 150.7,216.0 149.5,217.1 148.8,218.1 148.6,219.2 148.8,220.2 149.6,221.3 150.8,222.3 152.4,223.3 154.2,224.4 156.2,225.4 158.2,226.5 160.0,227.5 161.7,228.6 163.2,229.6 164.3,230.6 165.3,231.7 166.1,232.7 166.8,233.8 167.5,234.8 168.2,235.9 169.1,236.9 170.1,237.9 171.3,239.0 172.6,240.0 174.0,241.1 175.4,242.1 176.7,243.2 178.0,244.2 179.1,245.3 180.1,246.3" fill="#d33" opacity="0.5" stroke="#d33" stroke-width="1"/>
<line x1="151.3" y1="215.61356396127835" x2="214.7" y2="215.61356396127835" stroke="#114" stroke-width="2"/>
<circle cx="183.0" cy="236.32451482305063" r="2.4" fill="#114"/>
<text x="183.0" y="173.61008192117586" text-anchor="middle" font-size="11">1.06</text>
<text x="183.0" y="376" text-anchor="middle" font-size="12">zgemvT</text>
<polygon points="268.7,238.2 269.7,237.3 270.8,236.4 272.0,235.5 273.2,234.7 274.5,233.8 275.7,232.9 276.8,232.0 277.9,231.2 278.8,230.3 279.7,229.4 280.6,228.5 281.6,227.7 282.7,226.8 284.0,225.9 285.6,225.0 287.5,224.2 289.5,223.3 291.7,222.4 293.8,221.5 295.8,220.7 297.5,219.8 298.7,218.9 299.4,218.0 299.4,217.2 298.8,216.3 297.7,215.4 296.0,214.5 294.0,213.7 291.8,212.8 289.4,211.9 287.2,211.0 285.0,210.2 283.1,209.3 281.4,208.4 280.0,207.5 278.9,206.7 278.0,205.8 277.3,204.9 276.7,204.0 276.3,203.2 276.1,202.3 276.0,201.4 276.0,200.6 276.2,199.7 276.4,198.8 276.8,197.9 277.2,197.1 277.7,196.2 278.3,195.3 278.8,194.4 279.2,193.6 279.6,192.7 279.8,191.8 280.0,190.9 280.0,190.1 280.0,189.2 280.0,188.3 279.9,187.4 279.9,186.6 279.8,185.7 279.6,184.8 279.4,183.9 279.0,183.1 278.5,182.2 277.7,181.3 276.8,180.4 275.7,179.6 274.5,178.7 273.3,177.8 272.0,176.9 270.7,176.1 259.3,176.1 258.0,176.9 256.7,177.8 255.5,178.7 254.3,179.6 253.2,180.4 252.3,181.3 251.5,182.2 251.0,183.1 250.6,183.9 250.4,184.8 250.2,185.7 250.1,186.6 250.1,187.4 250.0,188.3 250.0,189.2 250.0,190.1 250.0,190.9 250.2,191.8 250.4,192.7 250.8,193.6 251.2,194.4 251.7,195.3 252.3,196.2 252.8,197.1 253.2,197.9 253.6,198.8 253.8,199.7 254.0,200.6 254.0,201.4 253.9,202.3 253.7,203.2 253.3,204.0 252.7,204.9 252.0,205.8 251.1,206.7 250.0,207.5 248.6,208.4 246.9,209.3 245.0,210.2 242.8,211.0 240.6,211.9 238.2,212.8 236.0,213.7 234.0,214.5 232.3,215.4 231.2,216.3 230.6,217.2 230.6,218.0 231.3,218.9 232.5,219.8 234.2,220.7 236.2,221.5 238.3,222.4 240.5,223.3 242.5,224.2 244.4,225.0 246.0,225.9 247.3,226.8 248.4,227.7 249.4,228.5 250.3,229.4 251.2,230.3 252.1,231.2 253.2,232.0 254.3,232.9 255.5,233.8 256.8,234.7 258.0,235.5 259.2,236.4 260.3,237.3 261.3,238.2" fill="#d33" opacity="0.5" stroke="#d33" stroke-width="1"/>
<line x1="231.4" y1="216.09059557028425" x2="298.6" y2="216.09059557028425" stroke="#114" stroke-width="2"/>
<circle cx="265.0" cy="230.05382838256796" r="2.4" fill="#114"/>
<text x="265.0" y="176.28966940774967" text-anchor="middle" font-size="11">1.05</text>
<text x="265.0" y="376" text-anchor="middle" font-size="12">zgemvC</text>
<polygon points="348.6,230.2 349.3,229.1 350.1,228.0 351.1,226.8 352.2,225.7 353.3,224.6 354.5,223.5 355.6,222.4 356.5,221.3 357.1,220.2 357.6,219.1 357.8,218.0 358.0,216.9 358.2,215.8 358.6,214.6 359.4,213.5 360.7,212.4 362.6,211.3 365.1,210.2 368.1,209.1 371.3,208.0 374.5,206.9 377.3,205.8 379.6,204.7 381.0,203.6 381.4,202.5 380.9,201.3 379.6,200.2 377.6,199.1 375.3,198.0 372.9,196.9 370.6,195.8 368.7,194.7 367.1,193.6 365.9,192.5 365.0,191.4 364.2,190.3 363.5,189.2 362.6,188.0 361.6,186.9 360.3,185.8 358.8,184.7 357.3,183.6 355.6,182.5 354.0,181.4 352.6,180.3 351.3,179.2 350.3,178.1 349.5,177.0 349.0,175.8 348.7,174.7 348.7,173.6 349.0,172.5 349.4,171.4 350.1,170.3 350.9,169.2 351.9,168.1 353.0,167.0 354.0,165.9 355.0,164.8 355.8,163.7 356.4,162.5 356.6,161.4 356.5,160.3 356.1,159.2 355.4,158.1 354.4,157.0 353.4,155.9 352.2,154.8 351.2,153.7 350.2,152.6 349.3,151.5 344.7,151.5 343.8,152.6 342.8,153.7 341.8,154.8 340.6,155.9 339.6,157.0 338.6,158.1 337.9,159.2 337.5,160.3 337.4,161.4 337.6,162.5 338.2,163.7 339.0,164.8 340.0,165.9 341.0,167.0 342.1,168.1 343.1,169.2 343.9,170.3 344.6,171.4 345.0,172.5 345.3,173.6 345.3,174.7 345.0,175.8 344.5,177.0 343.7,178.1 342.7,179.2 341.4,180.3 340.0,181.4 338.4,182.5 336.7,183.6 335.2,184.7 333.7,185.8 332.4,186.9 331.4,188.0 330.5,189.2 329.8,190.3 329.0,191.4 328.1,192.5 326.9,193.6 325.3,194.7 323.4,195.8 321.1,196.9 318.7,198.0 316.4,199.1 314.4,200.2 313.1,201.3 312.6,202.5 313.0,203.6 314.4,204.7 316.7,205.8 319.5,206.9 322.7,208.0 325.9,209.1 328.9,210.2 331.4,211.3 333.3,212.4 334.6,213.5 335.4,214.6 335.8,215.8 336.0,216.9 336.2,218.0 336.4,219.1 336.9,220.2 337.5,221.3 338.4,222.4 339.5,223.5 340.7,224.6 341.8,225.7 342.9,226.8 343.9,228.0 344.7,229.1 345.4,230.2" fill="#2a8" opacity="0.5" stroke="#2a8" stroke-width="1"/>
<line x1="312.7" y1="201.94602528273026" x2="381.3" y2="201.94602528273026" stroke="#114" stroke-width="2"/>
<circle cx="347.0" cy="219.0830888364446" r="2.4" fill="#114"/>
<text x="347.0" y="153.2947388114029" text-anchor="middle" font-size="11">1.16</text>
<text x="347.0" y="376" text-anchor="middle" font-size="12">zgeru</text>
<polygon points="441.3,255.8 443.8,252.9 446.3,250.0 449.0,247.1 451.6,244.2 454.1,241.3 456.4,238.4 458.5,235.5 460.2,232.6 461.6,229.7 462.5,226.8 463.0,223.9 463.1,221.0 462.9,218.1 462.4,215.2 461.6,212.3 460.6,209.4 459.5,206.5 458.2,203.6 456.8,200.7 455.2,197.9 453.6,195.0 451.9,192.1 450.2,189.2 448.5,186.3 446.9,183.4 445.3,180.5 444.0,177.6 443.0,174.7 442.3,171.8 441.9,168.9 442.1,166.0 442.7,163.1 443.8,160.2 445.2,157.3 447.1,154.4 449.2,151.5 451.5,148.6 453.8,145.7 456.1,142.8 458.1,139.9 459.9,137.0 461.4,134.1 462.5,131.2 463.1,128.3 463.4,125.4 463.4,122.5 463.2,119.6 462.7,116.7 462.2,113.8 461.7,110.9 461.2,108.0 460.8,105.1 460.5,102.2 460.2,99.3 460.0,96.4 459.8,93.5 459.5,90.6 459.1,87.7 458.5,84.8 457.7,81.9 456.6,79.0 455.3,76.1 453.7,73.2 451.9,70.3 450.0,67.4 447.9,64.5 445.8,61.6 443.6,58.7 441.5,55.8 439.6,52.9 437.8,50.0 420.2,50.0 418.4,52.9 416.5,55.8 414.4,58.7 412.2,61.6 410.1,64.5 408.0,67.4 406.1,70.3 404.3,73.2 402.7,76.1 401.4,79.0 400.3,81.9 399.5,84.8 398.9,87.7 398.5,90.6 398.2,93.5 398.0,96.4 397.8,99.3 397.5,102.2 397.2,105.1 396.8,108.0 396.3,110.9 395.8,113.8 395.3,116.7 394.8,119.6 394.6,122.5 394.6,125.4 394.9,128.3 395.5,131.2 396.6,134.1 398.1,137.0 399.9,139.9 401.9,142.8 404.2,145.7 406.5,148.6 408.8,151.5 410.9,154.4 412.8,157.3 414.2,160.2 415.3,163.1 415.9,166.0 416.1,168.9 415.7,171.8 415.0,174.7 414.0,177.6 412.7,180.5 411.1,183.4 409.5,186.3 407.8,189.2 406.1,192.1 404.4,195.0 402.8,197.9 401.2,200.7 399.8,203.6 398.5,206.5 397.4,209.4 396.4,212.3 395.6,215.2 395.1,218.1 394.9,221.0 395.0,223.9 395.5,226.8 396.4,229.7 397.8,232.6 399.5,235.5 401.6,238.4 403.9,241.3 406.4,244.2 409.0,247.1 411.7,250.0 414.2,252.9 416.7,255.8" fill="#d33" opacity="0.5" stroke="#d33" stroke-width="1"/>
<line x1="398.0" y1="136.79045375525527" x2="460.0" y2="136.79045375525527" stroke="#114" stroke-width="2"/>
<circle cx="429.0" cy="235.40470750111137" r="2.4" fill="#114"/>
<text x="429.0" y="61.43396226415098" text-anchor="middle" font-size="11">1.64</text>
<text x="429.0" y="376" text-anchor="middle" font-size="12">zhemv</text>
<polygon points="511.6,267.5 511.8,265.2 512.2,262.8 512.7,260.5 513.3,258.1 514.1,255.8 515.1,253.4 516.4,251.1 517.8,248.7 519.5,246.4 521.3,244.0 523.3,241.7 525.3,239.4 527.2,237.0 529.0,234.7 530.7,232.3 532.2,230.0 533.6,227.6 535.0,225.3 536.4,222.9 537.9,220.6 539.4,218.2 541.1,215.9 542.7,213.5 544.1,211.2 545.0,208.8 545.4,206.5 545.2,204.1 544.2,201.8 542.7,199.4 540.7,197.1 538.4,194.8 536.1,192.4 534.0,190.1 532.2,187.7 530.7,185.4 529.6,183.0 528.8,180.7 528.2,178.3 527.7,176.0 527.2,173.6 526.8,171.3 526.4,168.9 526.0,166.6 525.7,164.2 525.5,161.9 525.4,159.5 525.2,157.2 525.1,154.8 524.9,152.5 524.7,150.1 524.4,147.8 524.0,145.5 523.7,143.1 523.4,140.8 523.3,138.4 523.4,136.1 523.6,133.7 524.0,131.4 524.3,129.0 524.5,126.7 524.5,124.3 524.2,122.0 523.6,119.6 522.7,117.3 521.5,114.9 520.1,112.6 518.6,110.2 517.1,107.9 515.8,105.5 514.6,103.2 513.6,100.9 508.4,100.9 507.4,103.2 506.2,105.5 504.9,107.9 503.4,110.2 501.9,112.6 500.5,114.9 499.3,117.3 498.4,119.6 497.8,122.0 497.5,124.3 497.5,126.7 497.7,129.0 498.0,131.4 498.4,133.7 498.6,136.1 498.7,138.4 498.6,140.8 498.3,143.1 498.0,145.5 497.6,147.8 497.3,150.1 497.1,152.5 496.9,154.8 496.8,157.2 496.6,159.5 496.5,161.9 496.3,164.2 496.0,166.6 495.6,168.9 495.2,171.3 494.8,173.6 494.3,176.0 493.8,178.3 493.2,180.7 492.4,183.0 491.3,185.4 489.8,187.7 488.0,190.1 485.9,192.4 483.6,194.8 481.3,197.1 479.3,199.4 477.8,201.8 476.8,204.1 476.6,206.5 477.0,208.8 477.9,211.2 479.3,213.5 480.9,215.9 482.6,218.2 484.1,220.6 485.6,222.9 487.0,225.3 488.4,227.6 489.8,230.0 491.3,232.3 493.0,234.7 494.8,237.0 496.7,239.4 498.7,241.7 500.7,244.0 502.5,246.4 504.2,248.7 505.6,251.1 506.9,253.4 507.9,255.8 508.7,258.1 509.3,260.5 509.8,262.8 510.2,265.2 510.4,267.5" fill="#d33" opacity="0.5" stroke="#d33" stroke-width="1"/>
<line x1="477.4" y1="202.59322782489932" x2="544.6" y2="202.59322782489932" stroke="#114" stroke-width="2"/>
<circle cx="511.0" cy="230.8141894097725" r="2.4" fill="#114"/>
<text x="511.0" y="111.19791011655053" text-anchor="middle" font-size="11">1.15</text>
<text x="511.0" y="376" text-anchor="middle" font-size="12">ztrmv</text>
<polygon points="602.0,234.3 604.1,233.2 606.5,232.2 609.0,231.1 611.5,230.1 614.0,229.1 616.3,228.0 618.3,227.0 620.0,225.9 621.3,224.9 622.1,223.8 622.5,222.8 622.6,221.7 622.3,220.7 621.7,219.7 621.0,218.6 620.2,217.6 619.3,216.5 618.5,215.5 617.8,214.4 617.1,213.4 616.6,212.4 616.2,211.3 615.9,210.3 615.7,209.2 615.7,208.2 615.8,207.1 616.1,206.1 616.6,205.0 617.3,204.0 618.1,203.0 619.0,201.9 620.0,200.9 621.1,199.8 622.1,198.8 623.1,197.7 623.9,196.7 624.7,195.7 625.3,194.6 625.9,193.6 626.3,192.5 626.7,191.5 627.0,190.4 627.3,189.4 627.4,188.4 627.4,187.3 627.3,186.3 626.8,185.2 626.1,184.2 625.1,183.1 623.9,182.1 622.5,181.0 621.0,180.0 619.5,179.0 618.0,177.9 616.8,176.9 615.8,175.8 615.0,174.8 614.4,173.7 613.9,172.7 613.5,171.7 613.1,170.6 612.5,169.6 611.7,168.5 610.7,167.5 609.4,166.4 607.9,165.4 606.3,164.3 604.5,163.3 602.7,162.3 601.0,161.2 599.5,160.2 586.5,160.2 585.0,161.2 583.3,162.3 581.5,163.3 579.7,164.3 578.1,165.4 576.6,166.4 575.3,167.5 574.3,168.5 573.5,169.6 572.9,170.6 572.5,171.7 572.1,172.7 571.6,173.7 571.0,174.8 570.2,175.8 569.2,176.9 568.0,177.9 566.5,179.0 565.0,180.0 563.5,181.0 562.1,182.1 560.9,183.1 559.9,184.2 559.2,185.2 558.7,186.3 558.6,187.3 558.6,188.4 558.7,189.4 559.0,190.4 559.3,191.5 559.7,192.5 560.1,193.6 560.7,194.6 561.3,195.7 562.1,196.7 562.9,197.7 563.9,198.8 564.9,199.8 566.0,200.9 567.0,201.9 567.9,203.0 568.7,204.0 569.4,205.0 569.9,206.1 570.2,207.1 570.3,208.2 570.3,209.2 570.1,210.3 569.8,211.3 569.4,212.4 568.9,213.4 568.2,214.4 567.5,215.5 566.7,216.5 565.8,217.6 565.0,218.6 564.3,219.7 563.7,220.7 563.4,221.7 563.5,222.8 563.9,223.8 564.7,224.9 566.0,225.9 567.7,227.0 569.7,228.0 572.0,229.1 574.5,230.1 577.0,231.1 579.5,232.2 581.9,233.2 584.0,234.3" fill="#2a8" opacity="0.5" stroke="#2a8" stroke-width="1"/>
<line x1="561.4" y1="195.83788652897238" x2="624.6" y2="195.83788652897238" stroke="#114" stroke-width="2"/>
<circle cx="593.0" cy="226.30610913135683" r="2.4" fill="#114"/>
<text x="593.0" y="161.5588682856687" text-anchor="middle" font-size="11">1.20</text>
<text x="593.0" y="376" text-anchor="middle" font-size="12">ztrsv</text>
<polygon points="688.5,219.1 691.2,217.8 694.1,216.6 697.0,215.3 699.9,214.0 702.5,212.7 704.7,211.4 706.5,210.1 707.8,208.8 708.4,207.5 708.3,206.2 707.7,204.9 706.5,203.6 704.9,202.3 703.0,201.0 701.0,199.7 699.0,198.4 697.1,197.1 695.6,195.8 694.3,194.5 693.4,193.2 693.0,191.9 692.9,190.6 693.1,189.3 693.6,188.0 694.4,186.7 695.3,185.4 696.2,184.1 697.2,182.8 698.2,181.5 699.2,180.2 700.0,178.9 700.8,177.6 701.5,176.3 702.1,175.0 702.6,173.7 702.9,172.4 703.2,171.1 703.3,169.8 703.4,168.5 703.4,167.2 703.4,165.9 703.4,164.6 703.3,163.4 703.3,162.1 703.2,160.8 703.2,159.5 703.3,158.2 703.4,156.9 703.6,155.6 703.9,154.3 704.4,153.0 704.9,151.7 705.6,150.4 706.4,149.1 707.2,147.8 708.0,146.5 708.7,145.2 709.2,143.9 709.4,142.6 709.3,141.3 708.8,140.0 707.9,138.7 706.5,137.4 704.7,136.1 702.5,134.8 700.0,133.5 697.3,132.2 694.5,130.9 691.8,129.6 689.1,128.3 686.7,127.0 663.3,127.0 660.9,128.3 658.2,129.6 655.5,130.9 652.7,132.2 650.0,133.5 647.5,134.8 645.3,136.1 643.5,137.4 642.1,138.7 641.2,140.0 640.7,141.3 640.6,142.6 640.8,143.9 641.3,145.2 642.0,146.5 642.8,147.8 643.6,149.1 644.4,150.4 645.1,151.7 645.6,153.0 646.1,154.3 646.4,155.6 646.6,156.9 646.7,158.2 646.8,159.5 646.8,160.8 646.7,162.1 646.7,163.4 646.6,164.6 646.6,165.9 646.6,167.2 646.6,168.5 646.7,169.8 646.8,171.1 647.1,172.4 647.4,173.7 647.9,175.0 648.5,176.3 649.2,177.6 650.0,178.9 650.8,180.2 651.8,181.5 652.8,182.8 653.8,184.1 654.7,185.4 655.6,186.7 656.4,188.0 656.9,189.3 657.1,190.6 657.0,191.9 656.6,193.2 655.7,194.5 654.4,195.8 652.9,197.1 651.0,198.4 649.0,199.7 647.0,201.0 645.1,202.3 643.5,203.6 642.3,204.9 641.7,206.2 641.6,207.5 642.2,208.8 643.5,210.1 645.3,211.4 647.5,212.7 650.1,214.0 653.0,215.3 655.9,216.6 658.8,217.8 661.5,219.1" fill="#2a8" opacity="0.5" stroke="#2a8" stroke-width="1"/>
<line x1="646.7" y1="170.02018282719308" x2="703.3" y2="170.02018282719308" stroke="#114" stroke-width="2"/>
<circle cx="675.0" cy="207.63349497133152" r="2.4" fill="#114"/>
<text x="675.0" y="130.1518381682671" text-anchor="middle" font-size="11">1.39</text>
<text x="675.0" y="376" text-anchor="middle" font-size="12">zhpmv</text>
<polygon points="757.0,215.0 757.0,214.1 757.1,213.2 757.1,212.3 757.1,211.5 757.2,210.6 757.2,209.7 757.2,208.8 757.2,207.9 757.2,207.0 757.2,206.1 757.1,205.2 757.1,204.4 757.1,203.5 757.2,202.6 757.3,201.7 757.5,200.8 757.7,199.9 757.9,199.0 758.2,198.1 758.5,197.2 759.0,196.4 759.7,195.5 760.8,194.6 762.6,193.7 765.0,192.8 768.2,191.9 772.1,191.0 776.5,190.1 781.0,189.3 785.1,188.4 788.4,187.5 790.6,186.6 791.4,185.7 791.0,184.8 789.5,183.9 787.4,183.0 784.9,182.2 782.3,181.3 780.0,180.4 777.8,179.5 775.9,178.6 774.2,177.7 772.7,176.8 771.2,175.9 769.9,175.1 768.6,174.2 767.5,173.3 766.3,172.4 765.2,171.5 764.3,170.6 763.4,169.7 762.8,168.8 762.5,168.0 762.6,167.1 762.9,166.2 763.5,165.3 764.2,164.4 764.8,163.5 765.1,162.6 765.1,161.7 764.6,160.9 763.9,160.0 762.9,159.1 761.8,158.2 760.7,157.3 759.7,156.4 758.8,155.5 758.2,154.6 757.7,153.7 757.4,152.9 757.2,152.0 756.8,152.0 756.6,152.9 756.3,153.7 755.8,154.6 755.2,155.5 754.3,156.4 753.3,157.3 752.2,158.2 751.1,159.1 750.1,160.0 749.4,160.9 748.9,161.7 748.9,162.6 749.2,163.5 749.8,164.4 750.5,165.3 751.1,166.2 751.4,167.1 751.5,168.0 751.2,168.8 750.6,169.7 749.7,170.6 748.8,171.5 747.7,172.4 746.5,173.3 745.4,174.2 744.1,175.1 742.8,175.9 741.3,176.8 739.8,177.7 738.1,178.6 736.2,179.5 734.0,180.4 731.7,181.3 729.1,182.2 726.6,183.0 724.5,183.9 723.0,184.8 722.6,185.7 723.4,186.6 725.6,187.5 728.9,188.4 733.0,189.3 737.5,190.1 741.9,191.0 745.8,191.9 749.0,192.8 751.4,193.7 753.2,194.6 754.3,195.5 755.0,196.4 755.5,197.2 755.8,198.1 756.1,199.0 756.3,199.9 756.5,200.8 756.7,201.7 756.8,202.6 756.9,203.5 756.9,204.4 756.9,205.2 756.8,206.1 756.8,207.0 756.8,207.9 756.8,208.8 756.8,209.7 756.8,210.6 756.9,211.5 756.9,212.3 756.9,213.2 757.0,214.1 757.0,215.0" fill="#2a8" opacity="0.5" stroke="#2a8" stroke-width="1"/>
<line x1="726.4" y1="183.14981917590325" x2="787.6" y2="183.14981917590325" stroke="#114" stroke-width="2"/>
<circle cx="757.0" cy="188.23953696072644" r="2.4" fill="#114"/>
<text x="757.0" y="152.29117943165662" text-anchor="middle" font-size="11">1.30</text>
<text x="757.0" y="376" text-anchor="middle" font-size="12">zgbmvN</text>
<polygon points="839.0,224.1 839.0,223.8 839.0,223.5 839.1,223.2 839.1,222.9 839.2,222.6 839.2,222.3 839.3,222.1 839.3,221.8 839.3,221.5 839.2,221.2 839.1,220.9 839.1,220.6 839.1,220.4 839.1,220.1 839.1,219.8 839.3,219.5 839.5,219.2 839.8,218.9 840.3,218.6 840.7,218.4 841.1,218.1 841.4,217.8 841.7,217.5 842.0,217.2 842.5,216.9 843.5,216.7 844.8,216.4 846.5,216.1 848.6,215.8 850.8,215.5 853.1,215.2 855.6,214.9 858.3,214.7 861.1,214.4 864.0,214.1 866.7,213.8 869.1,213.5 871.0,213.2 872.3,212.9 873.2,212.7 873.4,212.4 873.0,212.1 871.7,211.8 869.3,211.5 866.2,211.2 862.9,211.0 859.8,210.7 857.5,210.4 855.8,210.1 854.4,209.8 852.9,209.5 851.2,209.2 849.3,209.0 847.4,208.7 845.7,208.4 844.4,208.1 843.6,207.8 843.3,207.5 843.2,207.3 843.3,207.0 843.3,206.7 843.1,206.4 842.7,206.1 842.0,205.8 841.2,205.5 840.5,205.3 839.9,205.0 839.5,204.7 839.2,204.4 839.1,204.1 839.0,203.8 839.0,203.8 838.9,204.1 838.8,204.4 838.5,204.7 838.1,205.0 837.5,205.3 836.8,205.5 836.0,205.8 835.3,206.1 834.9,206.4 834.7,206.7 834.7,207.0 834.8,207.3 834.7,207.5 834.4,207.8 833.6,208.1 832.3,208.4 830.6,208.7 828.7,209.0 826.8,209.2 825.1,209.5 823.6,209.8 822.2,210.1 820.5,210.4 818.2,210.7 815.1,211.0 811.8,211.2 808.7,211.5 806.3,211.8 805.0,212.1 804.6,212.4 804.8,212.7 805.7,212.9 807.0,213.2 808.9,213.5 811.3,213.8 814.0,214.1 816.9,214.4 819.7,214.7 822.4,214.9 824.9,215.2 827.2,215.5 829.4,215.8 831.5,216.1 833.2,216.4 834.5,216.7 835.5,216.9 836.0,217.2 836.3,217.5 836.6,217.8 836.9,218.1 837.3,218.4 837.7,218.6 838.2,218.9 838.5,219.2 838.7,219.5 838.9,219.8 838.9,220.1 838.9,220.4 838.9,220.6 838.9,220.9 838.8,221.2 838.7,221.5 838.7,221.8 838.7,222.1 838.8,222.3 838.8,222.6 838.9,222.9 838.9,223.2 839.0,223.5 839.0,223.8 839.0,224.1" fill="#2a8" opacity="0.5" stroke="#2a8" stroke-width="1"/>
<line x1="804.6" y1="212.34938734392506" x2="873.4" y2="212.34938734392506" stroke="#114" stroke-width="2"/>
<circle cx="839.0" cy="214.11249630526757" r="2.4" fill="#114"/>
<text x="839.0" y="200.0072775641129" text-anchor="middle" font-size="11">1.08</text>
<text x="839.0" y="376" text-anchor="middle" font-size="12">zhbmv</text>
<text x="450.0" y="428" text-anchor="middle" font-size="11" fill="#666">violin = ratio distribution over sizes · line = median · dark dot = worst size · green = every size ≥ gate</text>
</svg>
