<svg xmlns="http://www.w3.org/2000/svg" width="962" height="592" font-family="sans-serif">
<rect width="962" height="592" fill="white"/>
<text x="481.0" y="26" text-anchor="middle" font-size="17" font-weight="bold">Complex BLAS-3 — PureBLAS / OpenBLAS (PB/OpenBLAS ratio)</text>
<line x1="46" y1="42" x2="68" y2="42" stroke="#d62728" stroke-width="3"/>
<text x="73" y="46" font-size="12">Zen3 · AVX2</text>
<line x1="176" y1="42" x2="198" y2="42" stroke="#2ca02c" stroke-width="3"/>
<text x="203" y="46" font-size="12">Zen5 · AVX-512</text>
<line x1="327" y1="42" x2="349" y2="42" stroke="#1f77b4" stroke-width="3"/>
<text x="354" y="46" font-size="12">Zen4 · AVX-512</text>
<rect x="46" y="60" width="210" height="138" fill="none" stroke="#e2e2e2"/>
<line x1="46" y1="141.6845991334362" x2="256" y2="141.6845991334362" stroke="#d33" stroke-dasharray="4 3"/>
<text x="42" y="201.0" text-anchor="end" font-size="9" fill="#999">0.5×</text>
<text x="42" y="144.6845991334362" text-anchor="end" font-size="9" fill="#999">1.0×</text>
<text x="42" y="63.08916125375273" text-anchor="end" font-size="9" fill="#999">2.73×</text>
<polygon points="46.0,92.9 98.5,139.1 151.0,132.6 177.2,126.8 203.5,122.3 229.8,122.4 256.0,119.8 256.0,120.8 229.8,123.1 203.5,123.6 177.2,128.3 151.0,134.4 98.5,142.5 46.0,94.2" fill="#d62728" opacity="0.11"/>
<polyline points="46.0,93.7 98.5,140.6 151.0,133.6 177.2,127.9 203.5,123.0 229.8,122.9 256.0,120.1" fill="none" stroke="#d62728" stroke-width="1.6"/>
<circle cx="46.0" cy="93.7" r="2" fill="#d62728"/>
<circle cx="98.5" cy="140.6" r="2" fill="#d62728"/>
<circle cx="151.0" cy="133.6" r="2" fill="#d62728"/>
<circle cx="177.2" cy="127.9" r="2" fill="#d62728"/>
<circle cx="203.5" cy="123.0" r="2" fill="#d62728"/>
<circle cx="229.8" cy="122.9" r="2" fill="#d62728"/>
<circle cx="256.0" cy="120.1" r="2" fill="#d62728"/>
<polygon points="46.0,66.3 98.5,104.3 151.0,120.4 177.2,123.3 203.5,125.5 229.8,126.4 256.0,127.4 256.0,127.7 229.8,126.9 203.5,126.3 177.2,123.9 151.0,121.0 98.5,106.7 46.0,76.0" fill="#2ca02c" opacity="0.11"/>
<polyline points="46.0,69.3 98.5,105.9 151.0,120.8 177.2,123.6 203.5,125.8 229.8,126.5 256.0,127.6" fill="none" stroke="#2ca02c" stroke-width="1.6"/>
<circle cx="46.0" cy="69.3" r="2" fill="#2ca02c"/>
<circle cx="98.5" cy="105.9" r="2" fill="#2ca02c"/>
<circle cx="151.0" cy="120.8" r="2" fill="#2ca02c"/>
<circle cx="177.2" cy="123.6" r="2" fill="#2ca02c"/>
<circle cx="203.5" cy="125.8" r="2" fill="#2ca02c"/>
<circle cx="229.8" cy="126.5" r="2" fill="#2ca02c"/>
<circle cx="256.0" cy="127.6" r="2" fill="#2ca02c"/>
<polygon points="46.0,84.8 98.5,112.3 151.0,129.2 177.2,131.6 203.5,133.2 229.8,131.8 256.0,132.3 256.0,133.9 229.8,133.0 203.5,133.6 177.2,131.9 151.0,129.5 98.5,114.4 46.0,88.8" fill="#1f77b4" opacity="0.11"/>
<polyline points="46.0,85.7 98.5,113.4 151.0,129.3 177.2,131.7 203.5,133.4 229.8,132.7 256.0,133.2" fill="none" stroke="#1f77b4" stroke-width="1.6"/>
<circle cx="46.0" cy="85.7" r="2" fill="#1f77b4"/>
<circle cx="98.5" cy="113.4" r="2" fill="#1f77b4"/>
<circle cx="151.0" cy="129.3" r="2" fill="#1f77b4"/>
<circle cx="177.2" cy="131.7" r="2" fill="#1f77b4"/>
<circle cx="203.5" cy="133.4" r="2" fill="#1f77b4"/>
<circle cx="229.8" cy="132.7" r="2" fill="#1f77b4"/>
<circle cx="256.0" cy="133.2" r="2" fill="#1f77b4"/>
<text x="151.0" y="55" text-anchor="middle" font-size="12" font-weight="bold">zgemm</text>
<line x1="46.0" y1="60" x2="46.0" y2="198" stroke="#f4f4f4"/>
<text x="46.0" y="209" text-anchor="middle" font-size="8" fill="#999">8</text>
<line x1="98.5" y1="60" x2="98.5" y2="198" stroke="#f4f4f4"/>
<text x="98.5" y="209" text-anchor="middle" font-size="8" fill="#999">32</text>
<line x1="151.0" y1="60" x2="151.0" y2="198" stroke="#f4f4f4"/>
<text x="151.0" y="209" text-anchor="middle" font-size="8" fill="#999">128</text>
<line x1="177.2" y1="60" x2="177.2" y2="198" stroke="#f4f4f4"/>
<text x="177.2" y="209" text-anchor="middle" font-size="8" fill="#999">256</text>
<line x1="203.5" y1="60" x2="203.5" y2="198" stroke="#f4f4f4"/>
<text x="203.5" y="209" text-anchor="middle" font-size="8" fill="#999">512</text>
<line x1="229.8" y1="60" x2="229.8" y2="198" stroke="#f4f4f4"/>
<text x="229.8" y="209" text-anchor="middle" font-size="8" fill="#999">1k</text>
<line x1="256.0" y1="60" x2="256.0" y2="198" stroke="#f4f4f4"/>
<text x="256.0" y="209" text-anchor="middle" font-size="8" fill="#999">2k</text>
<rect x="276" y="60" width="210" height="138" fill="none" stroke="#e2e2e2"/>
<line x1="276" y1="115.76276119065531" x2="486" y2="115.76276119065531" stroke="#d33" stroke-dasharray="4 3"/>
<text x="272" y="201.0" text-anchor="end" font-size="9" fill="#999">0.5×</text>
<text x="272" y="118.76276119065531" text-anchor="end" font-size="9" fill="#999">1.0×</text>
<text x="272" y="63.0" text-anchor="end" font-size="9" fill="#999">1.6×</text>
<polygon points="276.0,103.9 328.5,120.9 381.0,109.3 407.2,99.1 433.5,91.2 459.8,88.1 486.0,84.7 486.0,88.7 459.8,89.5 433.5,93.0 407.2,101.2 381.0,111.9 328.5,123.9 276.0,105.9" fill="#d62728" opacity="0.11"/>
<polyline points="276.0,105.1 328.5,122.7 381.0,111.2 407.2,100.9 433.5,92.7 459.8,89.1 486.0,85.4" fill="none" stroke="#d62728" stroke-width="1.6"/>
<circle cx="276.0" cy="105.1" r="2" fill="#d62728"/>
<circle cx="328.5" cy="122.7" r="2" fill="#d62728"/>
<circle cx="381.0" cy="111.2" r="2" fill="#d62728"/>
<circle cx="407.2" cy="100.9" r="2" fill="#d62728"/>
<circle cx="433.5" cy="92.7" r="2" fill="#d62728"/>
<circle cx="459.8" cy="89.1" r="2" fill="#d62728"/>
<circle cx="486.0" cy="85.4" r="2" fill="#d62728"/>
<polygon points="276.0,70.4 328.5,83.4 381.0,93.7 407.2,89.6 433.5,92.9 459.8,94.3 486.0,95.7 486.0,96.1 459.8,95.0 433.5,95.8 407.2,90.3 381.0,97.2 328.5,87.9 276.0,78.9" fill="#2ca02c" opacity="0.11"/>
<polyline points="276.0,73.2 328.5,84.5 381.0,94.4 407.2,90.0 433.5,95.1 459.8,94.7 486.0,96.1" fill="none" stroke="#2ca02c" stroke-width="1.6"/>
<circle cx="276.0" cy="73.2" r="2" fill="#2ca02c"/>
<circle cx="328.5" cy="84.5" r="2" fill="#2ca02c"/>
<circle cx="381.0" cy="94.4" r="2" fill="#2ca02c"/>
<circle cx="407.2" cy="90.0" r="2" fill="#2ca02c"/>
<circle cx="433.5" cy="95.1" r="2" fill="#2ca02c"/>
<circle cx="459.8" cy="94.7" r="2" fill="#2ca02c"/>
<circle cx="486.0" cy="96.1" r="2" fill="#2ca02c"/>
<polygon points="276.0,100.2 328.5,93.2 381.0,106.7 407.2,104.5 433.5,104.0 459.8,101.5 486.0,100.4 486.0,105.5 459.8,103.0 433.5,104.8 407.2,104.8 381.0,107.5 328.5,94.6 276.0,102.8" fill="#1f77b4" opacity="0.11"/>
<polyline points="276.0,101.5 328.5,93.9 381.0,107.2 407.2,104.7 433.5,104.5 459.8,102.7 486.0,102.6" fill="none" stroke="#1f77b4" stroke-width="1.6"/>
<circle cx="276.0" cy="101.5" r="2" fill="#1f77b4"/>
<circle cx="328.5" cy="93.9" r="2" fill="#1f77b4"/>
<circle cx="381.0" cy="107.2" r="2" fill="#1f77b4"/>
<circle cx="407.2" cy="104.7" r="2" fill="#1f77b4"/>
<circle cx="433.5" cy="104.5" r="2" fill="#1f77b4"/>
<circle cx="459.8" cy="102.7" r="2" fill="#1f77b4"/>
<circle cx="486.0" cy="102.6" r="2" fill="#1f77b4"/>
<text x="381.0" y="55" text-anchor="middle" font-size="12" font-weight="bold">zhemm</text>
<line x1="276.0" y1="60" x2="276.0" y2="198" stroke="#f4f4f4"/>
<text x="276.0" y="209" text-anchor="middle" font-size="8" fill="#999">8</text>
<line x1="328.5" y1="60" x2="328.5" y2="198" stroke="#f4f4f4"/>
<text x="328.5" y="209" text-anchor="middle" font-size="8" fill="#999">32</text>
<line x1="381.0" y1="60" x2="381.0" y2="198" stroke="#f4f4f4"/>
<text x="381.0" y="209" text-anchor="middle" font-size="8" fill="#999">128</text>
<line x1="407.2" y1="60" x2="407.2" y2="198" stroke="#f4f4f4"/>
<text x="407.2" y="209" text-anchor="middle" font-size="8" fill="#999">256</text>
<line x1="433.5" y1="60" x2="433.5" y2="198" stroke="#f4f4f4"/>
<text x="433.5" y="209" text-anchor="middle" font-size="8" fill="#999">512</text>
<line x1="459.8" y1="60" x2="459.8" y2="198" stroke="#f4f4f4"/>
<text x="459.8" y="209" text-anchor="middle" font-size="8" fill="#999">1k</text>
<line x1="486.0" y1="60" x2="486.0" y2="198" stroke="#f4f4f4"/>
<text x="486.0" y="209" text-anchor="middle" font-size="8" fill="#999">2k</text>
<rect x="506" y="60" width="210" height="138" fill="none" stroke="#e2e2e2"/>
<line x1="506" y1="118.44848480786979" x2="716" y2="118.44848480786979" stroke="#d33" stroke-dasharray="4 3"/>
<text x="502" y="201.0" text-anchor="end" font-size="9" fill="#999">0.5×</text>
<text x="502" y="121.44848480786979" text-anchor="end" font-size="9" fill="#999">1.0×</text>
<text x="502" y="63.28175005770789" text-anchor="end" font-size="9" fill="#999">1.66×</text>
<polygon points="506.0,103.0 558.5,125.8 611.0,112.3 637.2,102.6 663.5,93.4 689.8,91.8 716.0,88.5 716.0,89.3 689.8,92.9 663.5,95.1 637.2,104.6 611.0,114.7 558.5,131.5 506.0,104.2" fill="#d62728" opacity="0.11"/>
<polyline points="506.0,103.5 558.5,128.7 611.0,113.6 637.2,103.5 663.5,94.8 689.8,92.6 716.0,88.9" fill="none" stroke="#d62728" stroke-width="1.6"/>
<circle cx="506.0" cy="103.5" r="2" fill="#d62728"/>
<circle cx="558.5" cy="128.7" r="2" fill="#d62728"/>
<circle cx="611.0" cy="113.6" r="2" fill="#d62728"/>
<circle cx="637.2" cy="103.5" r="2" fill="#d62728"/>
<circle cx="663.5" cy="94.8" r="2" fill="#d62728"/>
<circle cx="689.8" cy="92.6" r="2" fill="#d62728"/>
<circle cx="716.0" cy="88.9" r="2" fill="#d62728"/>
<polygon points="506.0,68.8 558.5,88.0 611.0,95.4 637.2,95.9 663.5,99.5 689.8,98.5 716.0,99.5 716.0,100.3 689.8,100.7 663.5,104.9 637.2,97.1 611.0,96.5 558.5,89.3 506.0,120.4" fill="#2ca02c" opacity="0.11"/>
<polyline points="506.0,73.6 558.5,88.7 611.0,95.9 637.2,96.4 663.5,99.8 689.8,99.0 716.0,99.8" fill="none" stroke="#2ca02c" stroke-width="1.6"/>
<circle cx="506.0" cy="73.6" r="2" fill="#2ca02c"/>
<circle cx="558.5" cy="88.7" r="2" fill="#2ca02c"/>
<circle cx="611.0" cy="95.9" r="2" fill="#2ca02c"/>
<circle cx="637.2" cy="96.4" r="2" fill="#2ca02c"/>
<circle cx="663.5" cy="99.8" r="2" fill="#2ca02c"/>
<circle cx="689.8" cy="99.0" r="2" fill="#2ca02c"/>
<circle cx="716.0" cy="99.8" r="2" fill="#2ca02c"/>
<polygon points="506.0,96.3 558.5,99.1 611.0,108.2 637.2,111.7 663.5,111.9 689.8,107.3 716.0,106.8 716.0,110.6 689.8,109.8 663.5,112.5 637.2,112.4 611.0,108.7 558.5,100.8 506.0,100.5" fill="#1f77b4" opacity="0.11"/>
<polyline points="506.0,97.3 558.5,99.9 611.0,108.5 637.2,112.0 663.5,112.3 689.8,108.8 716.0,108.7" fill="none" stroke="#1f77b4" stroke-width="1.6"/>
<circle cx="506.0" cy="97.3" r="2" fill="#1f77b4"/>
<circle cx="558.5" cy="99.9" r="2" fill="#1f77b4"/>
<circle cx="611.0" cy="108.5" r="2" fill="#1f77b4"/>
<circle cx="637.2" cy="112.0" r="2" fill="#1f77b4"/>
<circle cx="663.5" cy="112.3" r="2" fill="#1f77b4"/>
<circle cx="689.8" cy="108.8" r="2" fill="#1f77b4"/>
<circle cx="716.0" cy="108.7" r="2" fill="#1f77b4"/>
<text x="611.0" y="55" text-anchor="middle" font-size="12" font-weight="bold">zsymm</text>
<line x1="506.0" y1="60" x2="506.0" y2="198" stroke="#f4f4f4"/>
<text x="506.0" y="209" text-anchor="middle" font-size="8" fill="#999">8</text>
<line x1="558.5" y1="60" x2="558.5" y2="198" stroke="#f4f4f4"/>
<text x="558.5" y="209" text-anchor="middle" font-size="8" fill="#999">32</text>
<line x1="611.0" y1="60" x2="611.0" y2="198" stroke="#f4f4f4"/>
<text x="611.0" y="209" text-anchor="middle" font-size="8" fill="#999">128</text>
<line x1="637.2" y1="60" x2="637.2" y2="198" stroke="#f4f4f4"/>
<text x="637.2" y="209" text-anchor="middle" font-size="8" fill="#999">256</text>
<line x1="663.5" y1="60" x2="663.5" y2="198" stroke="#f4f4f4"/>
<text x="663.5" y="209" text-anchor="middle" font-size="8" fill="#999">512</text>
<line x1="689.8" y1="60" x2="689.8" y2="198" stroke="#f4f4f4"/>
<text x="689.8" y="209" text-anchor="middle" font-size="8" fill="#999">1k</text>
<line x1="716.0" y1="60" x2="716.0" y2="198" stroke="#f4f4f4"/>
<text x="716.0" y="209" text-anchor="middle" font-size="8" fill="#999">2k</text>
<rect x="736" y="60" width="210" height="138" fill="none" stroke="#e2e2e2"/>
<line x1="736" y1="140.37090865559813" x2="946" y2="140.37090865559813" stroke="#d33" stroke-dasharray="4 3"/>
<text x="732" y="201.0" text-anchor="end" font-size="9" fill="#999">0.5×</text>
<text x="732" y="143.37090865559813" text-anchor="end" font-size="9" fill="#999">1.0×</text>
<polygon points="736.0,119.9 788.5,128.9 841.0,140.1 867.2,129.3 893.5,123.9 919.8,122.3 946.0,119.6 946.0,119.8 919.8,122.7 893.5,124.8 867.2,130.7 841.0,141.5 788.5,131.0 736.0,121.3" fill="#d62728" opacity="0.11"/>
<polyline points="736.0,120.6 788.5,129.3 841.0,140.5 867.2,130.1 893.5,124.1 919.8,122.5 946.0,119.7" fill="none" stroke="#d62728" stroke-width="1.6"/>
<circle cx="736.0" cy="120.6" r="2" fill="#d62728"/>
<circle cx="788.5" cy="129.3" r="2" fill="#d62728"/>
<circle cx="841.0" cy="140.5" r="2" fill="#d62728"/>
<circle cx="867.2" cy="130.1" r="2" fill="#d62728"/>
<circle cx="893.5" cy="124.1" r="2" fill="#d62728"/>
<circle cx="919.8" cy="122.5" r="2" fill="#d62728"/>
<circle cx="946.0" cy="119.7" r="2" fill="#d62728"/>
<polygon points="736.0,66.4 788.5,130.2 841.0,131.6 867.2,123.6 893.5,123.3 919.8,124.6 946.0,125.9 946.0,126.8 919.8,125.6 893.5,130.8 867.2,124.6 841.0,135.2 788.5,133.6 736.0,85.1" fill="#2ca02c" opacity="0.11"/>
<polyline points="736.0,73.7 788.5,131.3 841.0,133.1 867.2,123.9 893.5,125.7 919.8,125.2 946.0,126.1" fill="none" stroke="#2ca02c" stroke-width="1.6"/>
<circle cx="736.0" cy="73.7" r="2" fill="#2ca02c"/>
<circle cx="788.5" cy="131.3" r="2" fill="#2ca02c"/>
<circle cx="841.0" cy="133.1" r="2" fill="#2ca02c"/>
<circle cx="867.2" cy="123.9" r="2" fill="#2ca02c"/>
<circle cx="893.5" cy="125.7" r="2" fill="#2ca02c"/>
<circle cx="919.8" cy="125.2" r="2" fill="#2ca02c"/>
<circle cx="946.0" cy="126.1" r="2" fill="#2ca02c"/>
<polygon points="736.0,81.3 788.5,124.1 841.0,135.5 867.2,129.5 893.5,128.6 919.8,129.6 946.0,130.1 946.0,131.6 919.8,130.3 893.5,129.0 867.2,130.1 841.0,136.6 788.5,128.9 736.0,87.0" fill="#1f77b4" opacity="0.11"/>
<polyline points="736.0,83.2 788.5,127.7 841.0,136.1 867.2,129.9 893.5,128.8 919.8,130.1 946.0,130.9" fill="none" stroke="#1f77b4" stroke-width="1.6"/>
<circle cx="736.0" cy="83.2" r="2" fill="#1f77b4"/>
<circle cx="788.5" cy="127.7" r="2" fill="#1f77b4"/>
<circle cx="841.0" cy="136.1" r="2" fill="#1f77b4"/>
<circle cx="867.2" cy="129.9" r="2" fill="#1f77b4"/>
<circle cx="893.5" cy="128.8" r="2" fill="#1f77b4"/>
<circle cx="919.8" cy="130.1" r="2" fill="#1f77b4"/>
<circle cx="946.0" cy="130.9" r="2" fill="#1f77b4"/>
<text x="841.0" y="55" text-anchor="middle" font-size="12" font-weight="bold">zsyrk</text>
<line x1="736.0" y1="60" x2="736.0" y2="198" stroke="#f4f4f4"/>
<text x="736.0" y="209" text-anchor="middle" font-size="8" fill="#999">8</text>
<line x1="788.5" y1="60" x2="788.5" y2="198" stroke="#f4f4f4"/>
<text x="788.5" y="209" text-anchor="middle" font-size="8" fill="#999">32</text>
<line x1="841.0" y1="60" x2="841.0" y2="198" stroke="#f4f4f4"/>
<text x="841.0" y="209" text-anchor="middle" font-size="8" fill="#999">128</text>
<line x1="867.2" y1="60" x2="867.2" y2="198" stroke="#f4f4f4"/>
<text x="867.2" y="209" text-anchor="middle" font-size="8" fill="#999">256</text>
<line x1="893.5" y1="60" x2="893.5" y2="198" stroke="#f4f4f4"/>
<text x="893.5" y="209" text-anchor="middle" font-size="8" fill="#999">512</text>
<line x1="919.8" y1="60" x2="919.8" y2="198" stroke="#f4f4f4"/>
<text x="919.8" y="209" text-anchor="middle" font-size="8" fill="#999">1k</text>
<line x1="946.0" y1="60" x2="946.0" y2="198" stroke="#f4f4f4"/>
<text x="946.0" y="209" text-anchor="middle" font-size="8" fill="#999">2k</text>
<rect x="46" y="232" width="210" height="138" fill="none" stroke="#e2e2e2"/>
<line x1="46" y1="307.67283888037895" x2="256" y2="307.67283888037895" stroke="#d33" stroke-dasharray="4 3"/>
<text x="42" y="373.0" text-anchor="end" font-size="9" fill="#999">0.5×</text>
<text x="42" y="310.67283888037895" text-anchor="end" font-size="9" fill="#999">1.0×</text>
<polygon points="46.0,281.9 98.5,295.3 151.0,307.4 177.2,299.3 203.5,292.1 229.8,291.2 256.0,286.8 256.0,286.9 229.8,292.0 203.5,293.7 177.2,301.3 151.0,309.4 98.5,297.2 46.0,283.2" fill="#d62728" opacity="0.11"/>
<polyline points="46.0,282.5 98.5,296.6 151.0,308.6 177.2,300.5 203.5,292.4 229.8,291.3 256.0,286.9" fill="none" stroke="#d62728" stroke-width="1.6"/>
<circle cx="46.0" cy="282.5" r="2" fill="#d62728"/>
<circle cx="98.5" cy="296.6" r="2" fill="#d62728"/>
<circle cx="151.0" cy="308.6" r="2" fill="#d62728"/>
<circle cx="177.2" cy="300.5" r="2" fill="#d62728"/>
<circle cx="203.5" cy="292.4" r="2" fill="#d62728"/>
<circle cx="229.8" cy="291.3" r="2" fill="#d62728"/>
<circle cx="256.0" cy="286.9" r="2" fill="#d62728"/>
<polygon points="46.0,238.9 98.5,298.6 151.0,299.0 177.2,289.7 203.5,289.6 229.8,290.7 256.0,291.7 256.0,292.8 229.8,291.5 203.5,295.4 177.2,290.9 151.0,304.0 98.5,302.0 46.0,261.2" fill="#2ca02c" opacity="0.11"/>
<polyline points="46.0,242.7 98.5,300.1 151.0,300.2 177.2,290.1 203.5,291.9 229.8,291.0 256.0,291.9" fill="none" stroke="#2ca02c" stroke-width="1.6"/>
<circle cx="46.0" cy="242.7" r="2" fill="#2ca02c"/>
<circle cx="98.5" cy="300.1" r="2" fill="#2ca02c"/>
<circle cx="151.0" cy="300.2" r="2" fill="#2ca02c"/>
<circle cx="177.2" cy="290.1" r="2" fill="#2ca02c"/>
<circle cx="203.5" cy="291.9" r="2" fill="#2ca02c"/>
<circle cx="229.8" cy="291.0" r="2" fill="#2ca02c"/>
<circle cx="256.0" cy="291.9" r="2" fill="#2ca02c"/>
<polygon points="46.0,248.3 98.5,292.9 151.0,302.1 177.2,295.7 203.5,295.0 229.8,296.5 256.0,297.2 256.0,298.2 229.8,297.1 203.5,295.4 177.2,300.7 151.0,306.8 98.5,296.4 46.0,269.2" fill="#1f77b4" opacity="0.11"/>
<polyline points="46.0,249.6 98.5,295.1 151.0,303.4 177.2,296.4 203.5,295.3 229.8,296.9 256.0,297.7" fill="none" stroke="#1f77b4" stroke-width="1.6"/>
<circle cx="46.0" cy="249.6" r="2" fill="#1f77b4"/>
<circle cx="98.5" cy="295.1" r="2" fill="#1f77b4"/>
<circle cx="151.0" cy="303.4" r="2" fill="#1f77b4"/>
<circle cx="177.2" cy="296.4" r="2" fill="#1f77b4"/>
<circle cx="203.5" cy="295.3" r="2" fill="#1f77b4"/>
<circle cx="229.8" cy="296.9" r="2" fill="#1f77b4"/>
<circle cx="256.0" cy="297.7" r="2" fill="#1f77b4"/>
<text x="151.0" y="227" text-anchor="middle" font-size="12" font-weight="bold">zherk</text>
<line x1="46.0" y1="232" x2="46.0" y2="370" stroke="#f4f4f4"/>
<text x="46.0" y="381" text-anchor="middle" font-size="8" fill="#999">8</text>
<line x1="98.5" y1="232" x2="98.5" y2="370" stroke="#f4f4f4"/>
<text x="98.5" y="381" text-anchor="middle" font-size="8" fill="#999">32</text>
<line x1="151.0" y1="232" x2="151.0" y2="370" stroke="#f4f4f4"/>
<text x="151.0" y="381" text-anchor="middle" font-size="8" fill="#999">128</text>
<line x1="177.2" y1="232" x2="177.2" y2="370" stroke="#f4f4f4"/>
<text x="177.2" y="381" text-anchor="middle" font-size="8" fill="#999">256</text>
<line x1="203.5" y1="232" x2="203.5" y2="370" stroke="#f4f4f4"/>
<text x="203.5" y="381" text-anchor="middle" font-size="8" fill="#999">512</text>
<line x1="229.8" y1="232" x2="229.8" y2="370" stroke="#f4f4f4"/>
<text x="229.8" y="381" text-anchor="middle" font-size="8" fill="#999">1k</text>
<line x1="256.0" y1="232" x2="256.0" y2="370" stroke="#f4f4f4"/>
<text x="256.0" y="381" text-anchor="middle" font-size="8" fill="#999">2k</text>
<rect x="276" y="232" width="210" height="138" fill="none" stroke="#e2e2e2"/>
<line x1="276" y1="296.2216422088544" x2="486" y2="296.2216422088544" stroke="#d33" stroke-dasharray="4 3"/>
<text x="272" y="373.0" text-anchor="end" font-size="9" fill="#999">0.5×</text>
<text x="272" y="299.2216422088544" text-anchor="end" font-size="9" fill="#999">1.0×</text>
<polygon points="276.0,247.7 328.5,295.1 381.0,299.9 407.2,287.9 433.5,279.0 459.8,277.1 486.0,271.2 486.0,271.6 459.8,277.9 433.5,280.7 407.2,290.3 381.0,302.4 328.5,300.9 276.0,248.9" fill="#d62728" opacity="0.11"/>
<polyline points="276.0,248.1 328.5,296.6 381.0,300.6 407.2,289.4 433.5,279.2 459.8,277.3 486.0,271.5" fill="none" stroke="#d62728" stroke-width="1.6"/>
<circle cx="276.0" cy="248.1" r="2" fill="#d62728"/>
<circle cx="328.5" cy="296.6" r="2" fill="#d62728"/>
<circle cx="381.0" cy="300.6" r="2" fill="#d62728"/>
<circle cx="407.2" cy="289.4" r="2" fill="#d62728"/>
<circle cx="433.5" cy="279.2" r="2" fill="#d62728"/>
<circle cx="459.8" cy="277.3" r="2" fill="#d62728"/>
<circle cx="486.0" cy="271.5" r="2" fill="#d62728"/>
<polygon points="276.0,240.2 328.5,293.0 381.0,286.9 407.2,275.3 433.5,275.8 459.8,276.1 486.0,277.3 486.0,277.7 459.8,277.0 433.5,279.1 407.2,276.9 381.0,289.5 328.5,295.5 276.0,244.4" fill="#2ca02c" opacity="0.11"/>
<polyline points="276.0,241.4 328.5,293.6 381.0,288.1 407.2,275.9 433.5,276.8 459.8,276.5 486.0,277.5" fill="none" stroke="#2ca02c" stroke-width="1.6"/>
<circle cx="276.0" cy="241.4" r="2" fill="#2ca02c"/>
<circle cx="328.5" cy="293.6" r="2" fill="#2ca02c"/>
<circle cx="381.0" cy="288.1" r="2" fill="#2ca02c"/>
<circle cx="407.2" cy="275.9" r="2" fill="#2ca02c"/>
<circle cx="433.5" cy="276.8" r="2" fill="#2ca02c"/>
<circle cx="459.8" cy="276.5" r="2" fill="#2ca02c"/>
<circle cx="486.0" cy="277.5" r="2" fill="#2ca02c"/>
<polygon points="276.0,256.1 328.5,292.2 381.0,292.9 407.2,285.1 433.5,282.8 459.8,283.4 486.0,284.7 486.0,286.2 459.8,284.7 433.5,283.0 407.2,285.4 381.0,293.9 328.5,295.1 276.0,257.8" fill="#1f77b4" opacity="0.11"/>
<polyline points="276.0,256.7 328.5,294.0 381.0,293.3 407.2,285.2 433.5,282.9 459.8,284.1 486.0,285.6" fill="none" stroke="#1f77b4" stroke-width="1.6"/>
<circle cx="276.0" cy="256.7" r="2" fill="#1f77b4"/>
<circle cx="328.5" cy="294.0" r="2" fill="#1f77b4"/>
<circle cx="381.0" cy="293.3" r="2" fill="#1f77b4"/>
<circle cx="407.2" cy="285.2" r="2" fill="#1f77b4"/>
<circle cx="433.5" cy="282.9" r="2" fill="#1f77b4"/>
<circle cx="459.8" cy="284.1" r="2" fill="#1f77b4"/>
<circle cx="486.0" cy="285.6" r="2" fill="#1f77b4"/>
<text x="381.0" y="227" text-anchor="middle" font-size="12" font-weight="bold">zher2k</text>
<line x1="276.0" y1="232" x2="276.0" y2="370" stroke="#f4f4f4"/>
<text x="276.0" y="381" text-anchor="middle" font-size="8" fill="#999">8</text>
<line x1="328.5" y1="232" x2="328.5" y2="370" stroke="#f4f4f4"/>
<text x="328.5" y="381" text-anchor="middle" font-size="8" fill="#999">32</text>
<line x1="381.0" y1="232" x2="381.0" y2="370" stroke="#f4f4f4"/>
<text x="381.0" y="381" text-anchor="middle" font-size="8" fill="#999">128</text>
<line x1="407.2" y1="232" x2="407.2" y2="370" stroke="#f4f4f4"/>
<text x="407.2" y="381" text-anchor="middle" font-size="8" fill="#999">256</text>
<line x1="433.5" y1="232" x2="433.5" y2="370" stroke="#f4f4f4"/>
<text x="433.5" y="381" text-anchor="middle" font-size="8" fill="#999">512</text>
<line x1="459.8" y1="232" x2="459.8" y2="370" stroke="#f4f4f4"/>
<text x="459.8" y="381" text-anchor="middle" font-size="8" fill="#999">1k</text>
<line x1="486.0" y1="232" x2="486.0" y2="370" stroke="#f4f4f4"/>
<text x="486.0" y="381" text-anchor="middle" font-size="8" fill="#999">2k</text>
<rect x="506" y="232" width="210" height="138" fill="none" stroke="#e2e2e2"/>
<line x1="506" y1="293.4330992840254" x2="716" y2="293.4330992840254" stroke="#d33" stroke-dasharray="4 3"/>
<text x="502" y="373.0" text-anchor="end" font-size="9" fill="#999">0.5×</text>
<text x="502" y="296.4330992840254" text-anchor="end" font-size="9" fill="#999">1.0×</text>
<text x="502" y="235.2494608564615" text-anchor="end" font-size="9" fill="#999">1.74×</text>
<polygon points="506.0,244.2 558.5,291.2 611.0,298.1 637.2,285.8 663.5,276.8 689.8,274.2 716.0,263.4 716.0,268.2 689.8,274.5 663.5,277.8 637.2,287.6 611.0,299.9 558.5,296.3 506.0,246.4" fill="#d62728" opacity="0.11"/>
<polyline points="506.0,245.4 558.5,292.6 611.0,298.5 637.2,286.5 663.5,277.1 689.8,274.4 716.0,267.8" fill="none" stroke="#d62728" stroke-width="1.6"/>
<circle cx="506.0" cy="245.4" r="2" fill="#d62728"/>
<circle cx="558.5" cy="292.6" r="2" fill="#d62728"/>
<circle cx="611.0" cy="298.5" r="2" fill="#d62728"/>
<circle cx="637.2" cy="286.5" r="2" fill="#d62728"/>
<circle cx="663.5" cy="277.1" r="2" fill="#d62728"/>
<circle cx="689.8" cy="274.4" r="2" fill="#d62728"/>
<circle cx="716.0" cy="267.8" r="2" fill="#d62728"/>
<polygon points="506.0,240.5 558.5,289.6 611.0,283.7 637.2,271.8 663.5,272.6 689.8,272.7 716.0,274.6 716.0,275.5 689.8,275.0 663.5,275.5 637.2,274.0 611.0,286.4 558.5,292.9 506.0,247.7" fill="#2ca02c" opacity="0.11"/>
<polyline points="506.0,241.9 558.5,290.9 611.0,284.9 637.2,272.3 663.5,273.5 689.8,273.4 716.0,275.1" fill="none" stroke="#2ca02c" stroke-width="1.6"/>
<circle cx="506.0" cy="241.9" r="2" fill="#2ca02c"/>
<circle cx="558.5" cy="290.9" r="2" fill="#2ca02c"/>
<circle cx="611.0" cy="284.9" r="2" fill="#2ca02c"/>
<circle cx="637.2" cy="272.3" r="2" fill="#2ca02c"/>
<circle cx="663.5" cy="273.5" r="2" fill="#2ca02c"/>
<circle cx="689.8" cy="273.4" r="2" fill="#2ca02c"/>
<circle cx="716.0" cy="275.1" r="2" fill="#2ca02c"/>
<polygon points="506.0,246.2 558.5,289.8 611.0,289.7 637.2,281.8 663.5,279.3 689.8,279.6 716.0,279.7 716.0,283.2 689.8,281.5 663.5,279.5 637.2,282.2 611.0,290.8 558.5,292.4 506.0,247.7" fill="#1f77b4" opacity="0.11"/>
<polyline points="506.0,247.3 558.5,291.1 611.0,290.0 637.2,281.9 663.5,279.4 689.8,280.4 716.0,282.5" fill="none" stroke="#1f77b4" stroke-width="1.6"/>
<circle cx="506.0" cy="247.3" r="2" fill="#1f77b4"/>
<circle cx="558.5" cy="291.1" r="2" fill="#1f77b4"/>
<circle cx="611.0" cy="290.0" r="2" fill="#1f77b4"/>
<circle cx="637.2" cy="281.9" r="2" fill="#1f77b4"/>
<circle cx="663.5" cy="279.4" r="2" fill="#1f77b4"/>
<circle cx="689.8" cy="280.4" r="2" fill="#1f77b4"/>
<circle cx="716.0" cy="282.5" r="2" fill="#1f77b4"/>
<text x="611.0" y="227" text-anchor="middle" font-size="12" font-weight="bold">zsyr2k</text>
<line x1="506.0" y1="232" x2="506.0" y2="370" stroke="#f4f4f4"/>
<text x="506.0" y="381" text-anchor="middle" font-size="8" fill="#999">8</text>
<line x1="558.5" y1="232" x2="558.5" y2="370" stroke="#f4f4f4"/>
<text x="558.5" y="381" text-anchor="middle" font-size="8" fill="#999">32</text>
<line x1="611.0" y1="232" x2="611.0" y2="370" stroke="#f4f4f4"/>
<text x="611.0" y="381" text-anchor="middle" font-size="8" fill="#999">128</text>
<line x1="637.2" y1="232" x2="637.2" y2="370" stroke="#f4f4f4"/>
<text x="637.2" y="381" text-anchor="middle" font-size="8" fill="#999">256</text>
<line x1="663.5" y1="232" x2="663.5" y2="370" stroke="#f4f4f4"/>
<text x="663.5" y="381" text-anchor="middle" font-size="8" fill="#999">512</text>
<line x1="689.8" y1="232" x2="689.8" y2="370" stroke="#f4f4f4"/>
<text x="689.8" y="381" text-anchor="middle" font-size="8" fill="#999">1k</text>
<line x1="716.0" y1="232" x2="716.0" y2="370" stroke="#f4f4f4"/>
<text x="716.0" y="381" text-anchor="middle" font-size="8" fill="#999">2k</text>
<rect x="736" y="232" width="210" height="138" fill="none" stroke="#e2e2e2"/>
<line x1="736" y1="287.7627611906553" x2="946" y2="287.7627611906553" stroke="#d33" stroke-dasharray="4 3"/>
<text x="732" y="373.0" text-anchor="end" font-size="9" fill="#999">0.5×</text>
<text x="732" y="290.7627611906553" text-anchor="end" font-size="9" fill="#999">1.0×</text>
<text x="732" y="235.0" text-anchor="end" font-size="9" fill="#999">1.6×</text>
<polygon points="736.0,289.1 788.5,314.9 841.0,296.6 867.2,290.2 893.5,282.4 919.8,275.9 946.0,270.0 946.0,271.2 919.8,276.6 893.5,283.7 867.2,291.1 841.0,296.9 788.5,319.6 736.0,290.9" fill="#d62728" opacity="0.11"/>
<polyline points="736.0,290.2 788.5,317.1 841.0,296.8 867.2,290.8 893.5,283.4 919.8,276.4 946.0,270.6" fill="none" stroke="#d62728" stroke-width="1.6"/>
<circle cx="736.0" cy="290.2" r="2" fill="#d62728"/>
<circle cx="788.5" cy="317.1" r="2" fill="#d62728"/>
<circle cx="841.0" cy="296.8" r="2" fill="#d62728"/>
<circle cx="867.2" cy="290.8" r="2" fill="#d62728"/>
<circle cx="893.5" cy="283.4" r="2" fill="#d62728"/>
<circle cx="919.8" cy="276.4" r="2" fill="#d62728"/>
<circle cx="946.0" cy="270.6" r="2" fill="#d62728"/>
<polygon points="736.0,255.6 788.5,294.1 841.0,278.6 867.2,273.9 893.5,268.6 919.8,270.2 946.0,270.1 946.0,270.9 919.8,271.3 893.5,269.8 867.2,274.7 841.0,280.8 788.5,296.0 736.0,265.4" fill="#2ca02c" opacity="0.11"/>
<polyline points="736.0,257.5 788.5,295.0 841.0,280.2 867.2,274.5 893.5,269.4 919.8,270.7 946.0,270.4" fill="none" stroke="#2ca02c" stroke-width="1.6"/>
<circle cx="736.0" cy="257.5" r="2" fill="#2ca02c"/>
<circle cx="788.5" cy="295.0" r="2" fill="#2ca02c"/>
<circle cx="841.0" cy="280.2" r="2" fill="#2ca02c"/>
<circle cx="867.2" cy="274.5" r="2" fill="#2ca02c"/>
<circle cx="893.5" cy="269.4" r="2" fill="#2ca02c"/>
<circle cx="919.8" cy="270.7" r="2" fill="#2ca02c"/>
<circle cx="946.0" cy="270.4" r="2" fill="#2ca02c"/>
<polygon points="736.0,273.7 788.5,285.5 841.0,284.5 867.2,282.6 893.5,280.3 919.8,277.6 946.0,276.8 946.0,280.1 919.8,278.5 893.5,280.7 867.2,283.3 841.0,285.0 788.5,287.2 736.0,277.4" fill="#1f77b4" opacity="0.11"/>
<polyline points="736.0,275.9 788.5,286.3 841.0,284.8 867.2,282.9 893.5,280.6 919.8,278.0 946.0,278.8" fill="none" stroke="#1f77b4" stroke-width="1.6"/>
<circle cx="736.0" cy="275.9" r="2" fill="#1f77b4"/>
<circle cx="788.5" cy="286.3" r="2" fill="#1f77b4"/>
<circle cx="841.0" cy="284.8" r="2" fill="#1f77b4"/>
<circle cx="867.2" cy="282.9" r="2" fill="#1f77b4"/>
<circle cx="893.5" cy="280.6" r="2" fill="#1f77b4"/>
<circle cx="919.8" cy="278.0" r="2" fill="#1f77b4"/>
<circle cx="946.0" cy="278.8" r="2" fill="#1f77b4"/>
<text x="841.0" y="227" text-anchor="middle" font-size="12" font-weight="bold">ztrmm</text>
<line x1="736.0" y1="232" x2="736.0" y2="370" stroke="#f4f4f4"/>
<text x="736.0" y="381" text-anchor="middle" font-size="8" fill="#999">8</text>
<line x1="788.5" y1="232" x2="788.5" y2="370" stroke="#f4f4f4"/>
<text x="788.5" y="381" text-anchor="middle" font-size="8" fill="#999">32</text>
<line x1="841.0" y1="232" x2="841.0" y2="370" stroke="#f4f4f4"/>
<text x="841.0" y="381" text-anchor="middle" font-size="8" fill="#999">128</text>
<line x1="867.2" y1="232" x2="867.2" y2="370" stroke="#f4f4f4"/>
<text x="867.2" y="381" text-anchor="middle" font-size="8" fill="#999">256</text>
<line x1="893.5" y1="232" x2="893.5" y2="370" stroke="#f4f4f4"/>
<text x="893.5" y="381" text-anchor="middle" font-size="8" fill="#999">512</text>
<line x1="919.8" y1="232" x2="919.8" y2="370" stroke="#f4f4f4"/>
<text x="919.8" y="381" text-anchor="middle" font-size="8" fill="#999">1k</text>
<line x1="946.0" y1="232" x2="946.0" y2="370" stroke="#f4f4f4"/>
<text x="946.0" y="381" text-anchor="middle" font-size="8" fill="#999">2k</text>
<rect x="46" y="404" width="210" height="138" fill="none" stroke="#e2e2e2"/>
<line x1="46" y1="459.7627611906553" x2="256" y2="459.7627611906553" stroke="#d33" stroke-dasharray="4 3"/>
<text x="42" y="545.0" text-anchor="end" font-size="9" fill="#999">0.5×</text>
<text x="42" y="462.7627611906553" text-anchor="end" font-size="9" fill="#999">1.0×</text>
<text x="42" y="407.0" text-anchor="end" font-size="9" fill="#999">1.6×</text>
<polygon points="46.0,428.1 98.5,454.0 151.0,471.6 177.2,456.7 203.5,445.8 229.8,441.6 256.0,438.1 256.0,438.8 229.8,442.6 203.5,446.5 177.2,457.2 151.0,474.6 98.5,456.6 46.0,429.7" fill="#d62728" opacity="0.11"/>
<polyline points="46.0,428.9 98.5,455.0 151.0,473.6 177.2,457.0 203.5,446.4 229.8,442.4 256.0,438.5" fill="none" stroke="#d62728" stroke-width="1.6"/>
<circle cx="46.0" cy="428.9" r="2" fill="#d62728"/>
<circle cx="98.5" cy="455.0" r="2" fill="#d62728"/>
<circle cx="151.0" cy="473.6" r="2" fill="#d62728"/>
<circle cx="177.2" cy="457.0" r="2" fill="#d62728"/>
<circle cx="203.5" cy="446.4" r="2" fill="#d62728"/>
<circle cx="229.8" cy="442.4" r="2" fill="#d62728"/>
<circle cx="256.0" cy="438.5" r="2" fill="#d62728"/>
<polygon points="46.0,416.5 98.5,456.6 151.0,430.2 177.2,437.7 203.5,435.0 229.8,438.1 256.0,440.4 256.0,440.7 229.8,438.6 203.5,436.3 177.2,438.6 151.0,432.3 98.5,460.8 46.0,435.0" fill="#2ca02c" opacity="0.11"/>
<polyline points="46.0,419.2 98.5,459.1 151.0,431.7 177.2,438.1 203.5,435.3 229.8,438.4 256.0,440.6" fill="none" stroke="#2ca02c" stroke-width="1.6"/>
<circle cx="46.0" cy="419.2" r="2" fill="#2ca02c"/>
<circle cx="98.5" cy="459.1" r="2" fill="#2ca02c"/>
<circle cx="151.0" cy="431.7" r="2" fill="#2ca02c"/>
<circle cx="177.2" cy="438.1" r="2" fill="#2ca02c"/>
<circle cx="203.5" cy="435.3" r="2" fill="#2ca02c"/>
<circle cx="229.8" cy="438.4" r="2" fill="#2ca02c"/>
<circle cx="256.0" cy="440.6" r="2" fill="#2ca02c"/>
<polygon points="46.0,437.4 98.5,457.9 151.0,447.1 177.2,444.9 203.5,442.4 229.8,443.3 256.0,444.9 256.0,447.1 229.8,444.7 203.5,443.0 177.2,445.2 151.0,448.3 98.5,459.5 46.0,440.1" fill="#1f77b4" opacity="0.11"/>
<polyline points="46.0,438.7 98.5,458.6 151.0,448.0 177.2,445.1 203.5,442.8 229.8,443.9 256.0,446.0" fill="none" stroke="#1f77b4" stroke-width="1.6"/>
<circle cx="46.0" cy="438.7" r="2" fill="#1f77b4"/>
<circle cx="98.5" cy="458.6" r="2" fill="#1f77b4"/>
<circle cx="151.0" cy="448.0" r="2" fill="#1f77b4"/>
<circle cx="177.2" cy="445.1" r="2" fill="#1f77b4"/>
<circle cx="203.5" cy="442.8" r="2" fill="#1f77b4"/>
<circle cx="229.8" cy="443.9" r="2" fill="#1f77b4"/>
<circle cx="256.0" cy="446.0" r="2" fill="#1f77b4"/>
<text x="151.0" y="399" text-anchor="middle" font-size="12" font-weight="bold">ztrsm</text>
<line x1="46.0" y1="404" x2="46.0" y2="542" stroke="#f4f4f4"/>
<text x="46.0" y="553" text-anchor="middle" font-size="8" fill="#999">8</text>
<line x1="98.5" y1="404" x2="98.5" y2="542" stroke="#f4f4f4"/>
<text x="98.5" y="553" text-anchor="middle" font-size="8" fill="#999">32</text>
<line x1="151.0" y1="404" x2="151.0" y2="542" stroke="#f4f4f4"/>
<text x="151.0" y="553" text-anchor="middle" font-size="8" fill="#999">128</text>
<line x1="177.2" y1="404" x2="177.2" y2="542" stroke="#f4f4f4"/>
<text x="177.2" y="553" text-anchor="middle" font-size="8" fill="#999">256</text>
<line x1="203.5" y1="404" x2="203.5" y2="542" stroke="#f4f4f4"/>
<text x="203.5" y="553" text-anchor="middle" font-size="8" fill="#999">512</text>
<line x1="229.8" y1="404" x2="229.8" y2="542" stroke="#f4f4f4"/>
<text x="229.8" y="553" text-anchor="middle" font-size="8" fill="#999">1k</text>
<line x1="256.0" y1="404" x2="256.0" y2="542" stroke="#f4f4f4"/>
<text x="256.0" y="553" text-anchor="middle" font-size="8" fill="#999">2k</text>
<rect x="276" y="404" width="210" height="138" fill="none" stroke="#e2e2e2"/>
<line x1="276" y1="459.7627611906553" x2="486" y2="459.7627611906553" stroke="#d33" stroke-dasharray="4 3"/>
<text x="272" y="545.0" text-anchor="end" font-size="9" fill="#999">0.5×</text>
<text x="272" y="462.7627611906553" text-anchor="end" font-size="9" fill="#999">1.0×</text>
<text x="272" y="407.0" text-anchor="end" font-size="9" fill="#999">1.6×</text>
<polygon points="276.0,457.7 328.5,491.9 381.0,462.4 407.2,452.8 433.5,445.6 459.8,440.9 486.0,436.4 486.0,437.1 459.8,442.1 433.5,446.8 407.2,453.4 381.0,463.0 328.5,498.0 276.0,459.1" fill="#d62728" opacity="0.11"/>
<polyline points="276.0,458.4 328.5,493.9 381.0,462.7 407.2,453.2 433.5,446.3 459.8,442.0 486.0,436.8" fill="none" stroke="#d62728" stroke-width="1.6"/>
<circle cx="276.0" cy="458.4" r="2" fill="#d62728"/>
<circle cx="328.5" cy="493.9" r="2" fill="#d62728"/>
<circle cx="381.0" cy="462.7" r="2" fill="#d62728"/>
<circle cx="407.2" cy="453.2" r="2" fill="#d62728"/>
<circle cx="433.5" cy="446.3" r="2" fill="#d62728"/>
<circle cx="459.8" cy="442.0" r="2" fill="#d62728"/>
<circle cx="486.0" cy="436.8" r="2" fill="#d62728"/>
<polygon points="276.0,424.3 328.5,468.8 381.0,449.3 407.2,440.6 433.5,439.9 459.8,441.8 486.0,441.9 486.0,442.1 459.8,442.3 433.5,442.1 407.2,441.4 381.0,452.0 328.5,472.8 276.0,432.5" fill="#2ca02c" opacity="0.11"/>
<polyline points="276.0,429.8 328.5,471.0 381.0,450.1 407.2,441.2 433.5,441.1 459.8,442.1 486.0,442.0" fill="none" stroke="#2ca02c" stroke-width="1.6"/>
<circle cx="276.0" cy="429.8" r="2" fill="#2ca02c"/>
<circle cx="328.5" cy="471.0" r="2" fill="#2ca02c"/>
<circle cx="381.0" cy="450.1" r="2" fill="#2ca02c"/>
<circle cx="407.2" cy="441.2" r="2" fill="#2ca02c"/>
<circle cx="433.5" cy="441.1" r="2" fill="#2ca02c"/>
<circle cx="459.8" cy="442.1" r="2" fill="#2ca02c"/>
<circle cx="486.0" cy="442.0" r="2" fill="#2ca02c"/>
<polygon points="276.0,437.0 328.5,440.9 381.0,448.6 407.2,450.4 433.5,451.0 459.8,448.8 486.0,445.6 486.0,448.6 459.8,450.3 433.5,451.2 407.2,451.1 381.0,449.2 328.5,442.5 276.0,439.9" fill="#1f77b4" opacity="0.11"/>
<polyline points="276.0,438.4 328.5,441.7 381.0,448.9 407.2,450.6 433.5,451.1 459.8,449.8 486.0,447.5" fill="none" stroke="#1f77b4" stroke-width="1.6"/>
<circle cx="276.0" cy="438.4" r="2" fill="#1f77b4"/>
<circle cx="328.5" cy="441.7" r="2" fill="#1f77b4"/>
<circle cx="381.0" cy="448.9" r="2" fill="#1f77b4"/>
<circle cx="407.2" cy="450.6" r="2" fill="#1f77b4"/>
<circle cx="433.5" cy="451.1" r="2" fill="#1f77b4"/>
<circle cx="459.8" cy="449.8" r="2" fill="#1f77b4"/>
<circle cx="486.0" cy="447.5" r="2" fill="#1f77b4"/>
<text x="381.0" y="399" text-anchor="middle" font-size="12" font-weight="bold">ztrmmR</text>
<line x1="276.0" y1="404" x2="276.0" y2="542" stroke="#f4f4f4"/>
<text x="276.0" y="553" text-anchor="middle" font-size="8" fill="#999">8</text>
<line x1="328.5" y1="404" x2="328.5" y2="542" stroke="#f4f4f4"/>
<text x="328.5" y="553" text-anchor="middle" font-size="8" fill="#999">32</text>
<line x1="381.0" y1="404" x2="381.0" y2="542" stroke="#f4f4f4"/>
<text x="381.0" y="553" text-anchor="middle" font-size="8" fill="#999">128</text>
<line x1="407.2" y1="404" x2="407.2" y2="542" stroke="#f4f4f4"/>
<text x="407.2" y="553" text-anchor="middle" font-size="8" fill="#999">256</text>
<line x1="433.5" y1="404" x2="433.5" y2="542" stroke="#f4f4f4"/>
<text x="433.5" y="553" text-anchor="middle" font-size="8" fill="#999">512</text>
<line x1="459.8" y1="404" x2="459.8" y2="542" stroke="#f4f4f4"/>
<text x="459.8" y="553" text-anchor="middle" font-size="8" fill="#999">1k</text>
<line x1="486.0" y1="404" x2="486.0" y2="542" stroke="#f4f4f4"/>
<text x="486.0" y="553" text-anchor="middle" font-size="8" fill="#999">2k</text>
<rect x="506" y="404" width="210" height="138" fill="none" stroke="#e2e2e2"/>
<line x1="506" y1="476.6209677776475" x2="716" y2="476.6209677776475" stroke="#d33" stroke-dasharray="4 3"/>
<text x="502" y="545.0" text-anchor="end" font-size="9" fill="#999">0.5×</text>
<text x="502" y="479.6209677776475" text-anchor="end" font-size="9" fill="#999">1.0×</text>
<polygon points="506.0,424.2 558.5,433.8 611.0,469.8 637.2,464.4 663.5,463.0 689.8,462.7 716.0,458.7 716.0,459.4 689.8,463.6 663.5,463.6 637.2,464.7 611.0,470.5 558.5,438.9 506.0,426.5" fill="#d62728" opacity="0.11"/>
<polyline points="506.0,425.4 558.5,435.7 611.0,470.3 637.2,464.6 663.5,463.3 689.8,463.5 716.0,458.9" fill="none" stroke="#d62728" stroke-width="1.6"/>
<circle cx="506.0" cy="425.4" r="2" fill="#d62728"/>
<circle cx="558.5" cy="435.7" r="2" fill="#d62728"/>
<circle cx="611.0" cy="470.3" r="2" fill="#d62728"/>
<circle cx="637.2" cy="464.6" r="2" fill="#d62728"/>
<circle cx="663.5" cy="463.3" r="2" fill="#d62728"/>
<circle cx="689.8" cy="463.5" r="2" fill="#d62728"/>
<circle cx="716.0" cy="458.9" r="2" fill="#d62728"/>
<polygon points="506.0,411.3 558.5,427.9 611.0,429.2 637.2,442.4 663.5,450.5 689.8,456.4 716.0,461.8 716.0,462.4 689.8,457.0 663.5,451.4 637.2,443.3 611.0,431.5 558.5,430.2 506.0,419.0" fill="#2ca02c" opacity="0.11"/>
<polyline points="506.0,415.2 558.5,429.2 611.0,430.6 637.2,442.9 663.5,450.9 689.8,456.7 716.0,461.9" fill="none" stroke="#2ca02c" stroke-width="1.6"/>
<circle cx="506.0" cy="415.2" r="2" fill="#2ca02c"/>
<circle cx="558.5" cy="429.2" r="2" fill="#2ca02c"/>
<circle cx="611.0" cy="430.6" r="2" fill="#2ca02c"/>
<circle cx="637.2" cy="442.9" r="2" fill="#2ca02c"/>
<circle cx="663.5" cy="450.9" r="2" fill="#2ca02c"/>
<circle cx="689.8" cy="456.7" r="2" fill="#2ca02c"/>
<circle cx="716.0" cy="461.9" r="2" fill="#2ca02c"/>
<polygon points="506.0,416.2 558.5,433.5 611.0,437.5 637.2,450.6 663.5,458.4 689.8,464.7 716.0,466.6 716.0,468.8 689.8,466.7 663.5,458.9 637.2,451.2 611.0,438.8 558.5,435.1 506.0,419.3" fill="#1f77b4" opacity="0.11"/>
<polyline points="506.0,417.7 558.5,434.3 611.0,438.3 637.2,450.8 663.5,458.8 689.8,465.8 716.0,467.6" fill="none" stroke="#1f77b4" stroke-width="1.6"/>
<circle cx="506.0" cy="417.7" r="2" fill="#1f77b4"/>
<circle cx="558.5" cy="434.3" r="2" fill="#1f77b4"/>
<circle cx="611.0" cy="438.3" r="2" fill="#1f77b4"/>
<circle cx="637.2" cy="450.8" r="2" fill="#1f77b4"/>
<circle cx="663.5" cy="458.8" r="2" fill="#1f77b4"/>
<circle cx="689.8" cy="465.8" r="2" fill="#1f77b4"/>
<circle cx="716.0" cy="467.6" r="2" fill="#1f77b4"/>
<text x="611.0" y="399" text-anchor="middle" font-size="12" font-weight="bold">ztrsmR</text>
<line x1="506.0" y1="404" x2="506.0" y2="542" stroke="#f4f4f4"/>
<text x="506.0" y="553" text-anchor="middle" font-size="8" fill="#999">8</text>
<line x1="558.5" y1="404" x2="558.5" y2="542" stroke="#f4f4f4"/>
<text x="558.5" y="553" text-anchor="middle" font-size="8" fill="#999">32</text>
<line x1="611.0" y1="404" x2="611.0" y2="542" stroke="#f4f4f4"/>
<text x="611.0" y="553" text-anchor="middle" font-size="8" fill="#999">128</text>
<line x1="637.2" y1="404" x2="637.2" y2="542" stroke="#f4f4f4"/>
<text x="637.2" y="553" text-anchor="middle" font-size="8" fill="#999">256</text>
<line x1="663.5" y1="404" x2="663.5" y2="542" stroke="#f4f4f4"/>
<text x="663.5" y="553" text-anchor="middle" font-size="8" fill="#999">512</text>
<line x1="689.8" y1="404" x2="689.8" y2="542" stroke="#f4f4f4"/>
<text x="689.8" y="553" text-anchor="middle" font-size="8" fill="#999">1k</text>
<line x1="716.0" y1="404" x2="716.0" y2="542" stroke="#f4f4f4"/>
<text x="716.0" y="553" text-anchor="middle" font-size="8" fill="#999">2k</text>
</svg>
