<svg xmlns="http://www.w3.org/2000/svg" width="900" height="440" font-family="sans-serif">
<rect width="900" height="440" fill="white"/>
<text x="450.0" y="28" text-anchor="middle" font-size="18" font-weight="bold">Complex BLAS-2: PureBLAS / OpenBLAS (AVX2, 1 thread, ComplexF64)</text>
<line x1="60" y1="358.0" x2="880" y2="358.0" stroke="#eee"/>
<text x="52" y="362.0" text-anchor="end" font-size="11" fill="#666">0×</text>
<line x1="60" y1="294.6312380977539" x2="880" y2="294.6312380977539" stroke="#eee"/>
<text x="52" y="298.6312380977539" text-anchor="end" font-size="11" fill="#666">0.5×</text>
<line x1="60" y1="231.26247619550773" x2="880" y2="231.26247619550773" stroke="#eee"/>
<text x="52" y="235.26247619550773" text-anchor="end" font-size="11" fill="#666">1×</text>
<line x1="60" y1="167.8937142932616" x2="880" y2="167.8937142932616" stroke="#eee"/>
<text x="52" y="171.8937142932616" text-anchor="end" font-size="11" fill="#666">1.5×</text>
<line x1="60" y1="231.26247619550773" x2="880" y2="231.26247619550773" stroke="#888" stroke-width="1"/>
<line x1="60" y1="236.33197714768744" x2="880" y2="236.33197714768744" stroke="#d33" stroke-width="1.5" stroke-dasharray="6 4"/>
<text x="880" y="231.33197714768744" text-anchor="end" font-size="11" fill="#d33">0.96× gate</text>
<polygon points="102.5,230.2 103.1,229.9 103.8,229.6 104.8,229.2 105.9,228.9 107.3,228.6 108.8,228.3 110.5,228.0 112.4,227.7 114.4,227.3 116.4,227.0 118.5,226.7 120.5,226.4 122.6,226.1 124.5,225.8 126.4,225.4 128.2,225.1 130.0,224.8 131.5,224.5 132.9,224.2 134.1,223.8 134.9,223.5 135.4,223.2 135.4,222.9 135.0,222.6 134.0,222.3 132.5,221.9 130.5,221.6 128.2,221.3 125.6,221.0 122.8,220.7 120.0,220.3 117.4,220.0 114.9,219.7 112.7,219.4 110.9,219.1 109.5,218.8 108.5,218.4 107.9,218.1 107.7,217.8 107.8,217.5 108.3,217.2 109.1,216.8 110.1,216.5 111.4,216.2 112.7,215.9 114.2,215.6 115.7,215.3 117.2,214.9 118.6,214.6 119.9,214.3 121.0,214.0 122.0,213.7 122.8,213.4 123.4,213.0 123.8,212.7 123.9,212.4 123.9,212.1 123.7,211.8 123.2,211.4 122.6,211.1 121.7,210.8 120.6,210.5 119.3,210.2 117.9,209.9 116.3,209.5 114.6,209.2 112.8,208.9 111.1,208.6 109.4,208.3 107.9,207.9 106.5,207.6 95.5,207.6 94.1,207.9 92.6,208.3 90.9,208.6 89.2,208.9 87.4,209.2 85.7,209.5 84.1,209.9 82.7,210.2 81.4,210.5 80.3,210.8 79.4,211.1 78.8,211.4 78.3,211.8 78.1,212.1 78.1,212.4 78.2,212.7 78.6,213.0 79.2,213.4 80.0,213.7 81.0,214.0 82.1,214.3 83.4,214.6 84.8,214.9 86.3,215.3 87.8,215.6 89.3,215.9 90.6,216.2 91.9,216.5 92.9,216.8 93.7,217.2 94.2,217.5 94.3,217.8 94.1,218.1 93.5,218.4 92.5,218.8 91.1,219.1 89.3,219.4 87.1,219.7 84.6,220.0 82.0,220.3 79.2,220.7 76.4,221.0 73.8,221.3 71.5,221.6 69.5,221.9 68.0,222.3 67.0,222.6 66.6,222.9 66.6,223.2 67.1,223.5 67.9,223.8 69.1,224.2 70.5,224.5 72.0,224.8 73.8,225.1 75.6,225.4 77.5,225.8 79.4,226.1 81.5,226.4 83.5,226.7 85.6,227.0 87.6,227.3 89.6,227.7 91.5,228.0 93.2,228.3 94.7,228.6 96.1,228.9 97.2,229.2 98.2,229.6 98.9,229.9 99.5,230.2" fill="#2a8" opacity="0.5" stroke="#2a8" stroke-width="1"/>
<line x1="70.7" y1="221.73811305018273" x2="131.3" y2="221.73811305018273" stroke="#114" stroke-width="2"/>
<circle cx="101.0" cy="226.1450079656274" r="2.4" fill="#114"/>
<text x="101.0" y="204.0162910886159" text-anchor="middle" font-size="11">1.08</text>
<text x="101.0" y="376" text-anchor="middle" font-size="12">zgemvN</text>
<polygon points="183.4,225.6 183.7,225.1 184.0,224.5 184.5,224.0 185.0,223.5 185.8,223.0 186.8,222.5 188.0,222.0 189.4,221.5 191.0,221.0 192.8,220.5 194.8,220.0 196.9,219.5 199.0,219.0 201.2,218.4 203.4,217.9 205.5,217.4 207.5,216.9 209.5,216.4 211.3,215.9 213.0,215.4 214.5,214.9 215.8,214.4 216.7,213.9 217.3,213.4 217.4,212.8 217.2,212.3 216.5,211.8 215.4,211.3 213.9,210.8 212.0,210.3 209.8,209.8 207.3,209.3 204.6,208.8 201.9,208.3 199.4,207.8 197.1,207.2 195.3,206.7 194.0,206.2 193.2,205.7 193.0,205.2 193.2,204.7 193.7,204.2 194.3,203.7 194.9,203.2 195.3,202.7 195.4,202.2 195.2,201.6 194.6,201.1 193.7,200.6 192.6,200.1 191.5,199.6 190.5,199.1 189.7,198.6 189.2,198.1 189.0,197.6 189.2,197.1 189.6,196.6 190.3,196.0 191.0,195.5 191.7,195.0 192.2,194.5 192.5,194.0 192.4,193.5 192.1,193.0 191.4,192.5 190.4,192.0 189.4,191.5 188.2,191.0 187.1,190.4 186.1,189.9 185.3,189.4 180.7,189.4 179.9,189.9 178.9,190.4 177.8,191.0 176.6,191.5 175.6,192.0 174.6,192.5 173.9,193.0 173.6,193.5 173.5,194.0 173.8,194.5 174.3,195.0 175.0,195.5 175.7,196.0 176.4,196.6 176.8,197.1 177.0,197.6 176.8,198.1 176.3,198.6 175.5,199.1 174.5,199.6 173.4,200.1 172.3,200.6 171.4,201.1 170.8,201.6 170.6,202.2 170.7,202.7 171.1,203.2 171.7,203.7 172.3,204.2 172.8,204.7 173.0,205.2 172.8,205.7 172.0,206.2 170.7,206.7 168.9,207.2 166.6,207.8 164.1,208.3 161.4,208.8 158.7,209.3 156.2,209.8 154.0,210.3 152.1,210.8 150.6,211.3 149.5,211.8 148.8,212.3 148.6,212.8 148.7,213.4 149.3,213.9 150.2,214.4 151.5,214.9 153.0,215.4 154.7,215.9 156.5,216.4 158.5,216.9 160.5,217.4 162.6,217.9 164.8,218.4 167.0,219.0 169.1,219.5 171.2,220.0 173.2,220.5 175.0,221.0 176.6,221.5 178.0,222.0 179.2,222.5 180.2,223.0 181.0,223.5 181.5,224.0 182.0,224.5 182.3,225.1 182.6,225.6" fill="#2a8" opacity="0.5" stroke="#2a8" stroke-width="1"/>
<line x1="151.1" y1="211.12138953382708" x2="214.9" y2="211.12138953382708" stroke="#114" stroke-width="2"/>
<circle cx="183.0" cy="217.73826762234566" r="2.4" fill="#114"/>
<text x="183.0" y="187.12949504558551" text-anchor="middle" font-size="11">1.16</text>
<text x="183.0" y="376" text-anchor="middle" font-size="12">zgemvT</text>
<polygon points="268.0,221.2 269.4,220.8 271.1,220.4 273.2,220.0 275.8,219.6 278.7,219.1 281.9,218.7 285.2,218.3 288.5,217.9 291.5,217.5 294.2,217.1 296.4,216.7 298.0,216.3 299.0,215.9 299.4,215.5 299.4,215.0 299.1,214.6 298.6,214.2 298.0,213.8 297.5,213.4 297.0,213.0 296.5,212.6 296.0,212.2 295.4,211.8 294.7,211.4 293.9,211.0 292.8,210.5 291.6,210.1 290.2,209.7 288.7,209.3 287.1,208.9 285.4,208.5 283.6,208.1 281.7,207.7 279.8,207.3 277.8,206.9 275.9,206.4 274.0,206.0 272.3,205.6 270.8,205.2 269.5,204.8 268.4,204.4 267.6,204.0 267.1,203.6 266.7,203.2 266.6,202.8 266.6,202.4 266.8,201.9 267.0,201.5 267.4,201.1 267.9,200.7 268.5,200.3 269.1,199.9 269.8,199.5 270.5,199.1 271.2,198.7 271.9,198.3 272.4,197.8 272.9,197.4 273.2,197.0 273.4,196.6 273.3,196.2 273.1,195.8 272.6,195.4 272.0,195.0 271.3,194.6 270.5,194.2 269.6,193.8 268.8,193.3 268.0,192.9 267.3,192.5 266.7,192.1 263.3,192.1 262.7,192.5 262.0,192.9 261.2,193.3 260.4,193.8 259.5,194.2 258.7,194.6 258.0,195.0 257.4,195.4 256.9,195.8 256.7,196.2 256.6,196.6 256.8,197.0 257.1,197.4 257.6,197.8 258.1,198.3 258.8,198.7 259.5,199.1 260.2,199.5 260.9,199.9 261.5,200.3 262.1,200.7 262.6,201.1 263.0,201.5 263.2,201.9 263.4,202.4 263.4,202.8 263.3,203.2 262.9,203.6 262.4,204.0 261.6,204.4 260.5,204.8 259.2,205.2 257.7,205.6 256.0,206.0 254.1,206.4 252.2,206.9 250.2,207.3 248.3,207.7 246.4,208.1 244.6,208.5 242.9,208.9 241.3,209.3 239.8,209.7 238.4,210.1 237.2,210.5 236.1,211.0 235.3,211.4 234.6,211.8 234.0,212.2 233.5,212.6 233.0,213.0 232.5,213.4 232.0,213.8 231.4,214.2 230.9,214.6 230.6,215.0 230.6,215.5 231.0,215.9 232.0,216.3 233.6,216.7 235.8,217.1 238.5,217.5 241.5,217.9 244.8,218.3 248.1,218.7 251.3,219.1 254.2,219.6 256.8,220.0 258.9,220.4 260.6,220.8 262.0,221.2" fill="#2a8" opacity="0.5" stroke="#2a8" stroke-width="1"/>
<line x1="233.7" y1="212.38185695197632" x2="296.3" y2="212.38185695197632" stroke="#114" stroke-width="2"/>
<circle cx="265.0" cy="217.07760283450884" r="2.4" fill="#114"/>
<text x="265.0" y="189.13126655272904" text-anchor="middle" font-size="11">1.15</text>
<text x="265.0" y="376" text-anchor="middle" font-size="12">zgemvC</text>
<polygon points="351.6,244.0 353.0,243.1 354.6,242.3 356.5,241.4 358.5,240.6 360.8,239.7 363.3,238.9 365.9,238.0 368.6,237.2 371.2,236.3 373.8,235.5 376.2,234.6 378.2,233.8 379.8,232.9 380.9,232.1 381.4,231.2 381.3,230.4 380.5,229.5 379.0,228.7 377.0,227.8 374.5,227.0 371.8,226.1 368.8,225.3 365.8,224.4 362.9,223.6 360.2,222.7 357.9,221.9 355.9,221.0 354.4,220.2 353.3,219.3 352.6,218.4 352.2,217.6 352.2,216.7 352.4,215.9 352.7,215.0 353.2,214.2 353.7,213.3 354.2,212.5 354.6,211.6 354.9,210.8 355.0,209.9 354.9,209.1 354.6,208.2 354.1,207.4 353.6,206.5 352.9,205.7 352.3,204.8 351.6,204.0 351.1,203.1 350.7,202.3 350.4,201.4 350.3,200.6 350.4,199.7 350.7,198.9 351.1,198.0 351.7,197.2 352.4,196.3 353.2,195.5 353.9,194.6 354.6,193.7 355.1,192.9 355.4,192.0 355.4,191.2 355.3,190.3 354.9,189.5 354.3,188.6 353.6,187.8 352.8,186.9 351.9,186.1 351.1,185.2 350.3,184.4 349.6,183.5 344.4,183.5 343.7,184.4 342.9,185.2 342.1,186.1 341.2,186.9 340.4,187.8 339.7,188.6 339.1,189.5 338.7,190.3 338.6,191.2 338.6,192.0 338.9,192.9 339.4,193.7 340.1,194.6 340.8,195.5 341.6,196.3 342.3,197.2 342.9,198.0 343.3,198.9 343.6,199.7 343.7,200.6 343.6,201.4 343.3,202.3 342.9,203.1 342.4,204.0 341.7,204.8 341.1,205.7 340.4,206.5 339.9,207.4 339.4,208.2 339.1,209.1 339.0,209.9 339.1,210.8 339.4,211.6 339.8,212.5 340.3,213.3 340.8,214.2 341.3,215.0 341.6,215.9 341.8,216.7 341.8,217.6 341.4,218.4 340.7,219.3 339.6,220.2 338.1,221.0 336.1,221.9 333.8,222.7 331.1,223.6 328.2,224.4 325.2,225.3 322.2,226.1 319.5,227.0 317.0,227.8 315.0,228.7 313.5,229.5 312.7,230.4 312.6,231.2 313.1,232.1 314.2,232.9 315.8,233.8 317.8,234.6 320.2,235.5 322.8,236.3 325.4,237.2 328.1,238.0 330.7,238.9 333.2,239.7 335.5,240.6 337.5,241.4 339.4,242.3 341.0,243.1 342.4,244.0" fill="#d33" opacity="0.5" stroke="#d33" stroke-width="1"/>
<line x1="313.5" y1="229.50861793424752" x2="380.5" y2="229.50861793424752" stroke="#114" stroke-width="2"/>
<circle cx="347.0" cy="237.51743530694637" r="2.4" fill="#114"/>
<text x="347.0" y="183.58377258878983" text-anchor="middle" font-size="11">1.01</text>
<text x="347.0" y="376" text-anchor="middle" font-size="12">zgeru</text>
<polygon points="445.3,208.0 448.0,206.6 450.7,205.2 453.4,203.9 456.0,202.5 458.3,201.2 460.3,199.8 461.9,198.5 462.9,197.1 463.4,195.8 463.4,194.4 462.8,193.0 461.6,191.7 460.1,190.3 458.1,189.0 456.0,187.6 453.6,186.3 451.3,184.9 449.0,183.6 446.9,182.2 445.1,180.8 443.5,179.5 442.2,178.1 441.3,176.8 440.7,175.4 440.4,174.1 440.4,172.7 440.5,171.4 440.9,170.0 441.3,168.6 441.7,167.3 442.1,165.9 442.4,164.6 442.7,163.2 442.8,161.9 442.9,160.5 442.8,159.2 442.7,157.8 442.6,156.4 442.5,155.1 442.4,153.7 442.5,152.4 442.7,151.0 443.1,149.7 443.7,148.3 444.5,147.0 445.5,145.6 446.7,144.2 448.1,142.9 449.5,141.5 451.0,140.2 452.6,138.8 454.1,137.5 455.4,136.1 456.7,134.8 457.7,133.4 458.4,132.0 458.8,130.7 458.8,129.3 458.5,128.0 457.7,126.6 456.7,125.3 455.3,123.9 453.6,122.6 451.7,121.2 449.6,119.8 447.5,118.5 445.3,117.1 443.1,115.8 441.1,114.4 439.2,113.1 437.4,111.7 420.6,111.7 418.8,113.1 416.9,114.4 414.9,115.8 412.7,117.1 410.5,118.5 408.4,119.8 406.3,121.2 404.4,122.6 402.7,123.9 401.3,125.3 400.3,126.6 399.5,128.0 399.2,129.3 399.2,130.7 399.6,132.0 400.3,133.4 401.3,134.8 402.6,136.1 403.9,137.5 405.4,138.8 407.0,140.2 408.5,141.5 409.9,142.9 411.3,144.2 412.5,145.6 413.5,147.0 414.3,148.3 414.9,149.7 415.3,151.0 415.5,152.4 415.6,153.7 415.5,155.1 415.4,156.4 415.3,157.8 415.2,159.2 415.1,160.5 415.2,161.9 415.3,163.2 415.6,164.6 415.9,165.9 416.3,167.3 416.7,168.6 417.1,170.0 417.5,171.4 417.6,172.7 417.6,174.1 417.3,175.4 416.7,176.8 415.8,178.1 414.5,179.5 412.9,180.8 411.1,182.2 409.0,183.6 406.7,184.9 404.4,186.3 402.0,187.6 399.9,189.0 397.9,190.3 396.4,191.7 395.2,193.0 394.6,194.4 394.6,195.8 395.1,197.1 396.1,198.5 397.7,199.8 399.7,201.2 402.0,202.5 404.6,203.9 407.3,205.2 410.0,206.6 412.7,208.0" fill="#2a8" opacity="0.5" stroke="#2a8" stroke-width="1"/>
<line x1="415.3" y1="163.1088498917609" x2="442.7" y2="163.1088498917609" stroke="#114" stroke-width="2"/>
<circle cx="429.0" cy="197.83175275990416" r="2.4" fill="#114"/>
<text x="429.0" y="115.22839095671536" text-anchor="middle" font-size="11">1.54</text>
<text x="429.0" y="376" text-anchor="middle" font-size="12">zhemv</text>
<polygon points="513.9,242.7 515.6,239.9 518.1,237.2 521.3,234.5 525.3,231.8 529.7,229.1 534.4,226.4 538.8,223.7 542.4,220.9 544.7,218.2 545.4,215.5 544.4,212.8 541.9,210.1 538.1,207.4 533.8,204.7 529.4,202.0 525.4,199.2 522.2,196.5 519.9,193.8 518.6,191.1 518.1,188.4 518.2,185.7 518.7,183.0 519.3,180.2 519.8,177.5 519.9,174.8 519.6,172.1 518.9,169.4 518.0,166.7 516.9,164.0 515.8,161.3 514.9,158.5 514.3,155.8 514.0,153.1 514.1,150.4 514.6,147.7 515.4,145.0 516.3,142.3 517.3,139.5 518.2,136.8 518.8,134.1 519.1,131.4 518.9,128.7 518.4,126.0 517.5,123.3 516.5,120.6 515.4,117.8 514.3,115.1 513.4,112.4 512.8,109.7 512.2,107.0 511.9,104.3 511.7,101.6 511.5,98.8 511.5,96.1 511.4,93.4 511.4,90.7 511.4,88.0 511.4,85.3 511.4,82.6 511.4,79.8 511.4,77.1 511.3,74.4 511.3,71.7 511.3,69.0 511.3,66.3 511.2,63.6 511.2,60.9 511.1,58.1 511.1,55.4 511.1,52.7 511.1,50.0 510.9,50.0 510.9,52.7 510.9,55.4 510.9,58.1 510.8,60.9 510.8,63.6 510.7,66.3 510.7,69.0 510.7,71.7 510.7,74.4 510.6,77.1 510.6,79.8 510.6,82.6 510.6,85.3 510.6,88.0 510.6,90.7 510.6,93.4 510.5,96.1 510.5,98.8 510.3,101.6 510.1,104.3 509.8,107.0 509.2,109.7 508.6,112.4 507.7,115.1 506.6,117.8 505.5,120.6 504.5,123.3 503.6,126.0 503.1,128.7 502.9,131.4 503.2,134.1 503.8,136.8 504.7,139.5 505.7,142.3 506.6,145.0 507.4,147.7 507.9,150.4 508.0,153.1 507.7,155.8 507.1,158.5 506.2,161.3 505.1,164.0 504.0,166.7 503.1,169.4 502.4,172.1 502.1,174.8 502.2,177.5 502.7,180.2 503.3,183.0 503.8,185.7 503.9,188.4 503.4,191.1 502.1,193.8 499.8,196.5 496.6,199.2 492.6,202.0 488.2,204.7 483.9,207.4 480.1,210.1 477.6,212.8 476.6,215.5 477.3,218.2 479.6,220.9 483.2,223.7 487.6,226.4 492.3,229.1 496.7,231.8 500.7,234.5 503.9,237.2 506.4,239.9 508.1,242.7" fill="#2a8" opacity="0.5" stroke="#2a8" stroke-width="1"/>
<line x1="477.3" y1="213.32268774608838" x2="544.7" y2="213.32268774608838" stroke="#114" stroke-width="2"/>
<circle cx="511.0" cy="222.71591406213554" r="2.4" fill="#114"/>
<text x="511.0" y="61.43396226415098" text-anchor="middle" font-size="11">1.14</text>
<text x="511.0" y="376" text-anchor="middle" font-size="12">ztrmv</text>
<polygon points="596.6,239.2 597.6,237.9 598.6,236.7 599.8,235.4 601.1,234.2 602.4,232.9 603.8,231.7 605.3,230.4 606.9,229.2 608.6,227.9 610.4,226.7 612.5,225.4 614.7,224.2 617.1,223.0 619.5,221.7 621.8,220.5 624.0,219.2 625.7,218.0 626.9,216.7 627.4,215.5 627.2,214.2 626.1,213.0 624.3,211.7 621.9,210.5 619.0,209.3 615.7,208.0 612.4,206.8 609.3,205.5 606.4,204.3 603.9,203.0 601.8,201.8 600.3,200.5 599.3,199.3 598.8,198.0 598.7,196.8 598.9,195.5 599.4,194.3 599.9,193.1 600.5,191.8 601.1,190.6 601.5,189.3 601.7,188.1 601.6,186.8 601.4,185.6 600.9,184.3 600.3,183.1 599.5,181.8 598.7,180.6 597.9,179.4 597.2,178.1 596.6,176.9 596.2,175.6 596.0,174.4 596.0,173.1 596.2,171.9 596.7,170.6 597.3,169.4 598.0,168.1 598.8,166.9 599.6,165.6 600.3,164.4 600.9,163.2 601.3,161.9 601.6,160.7 601.5,159.4 601.3,158.2 600.8,156.9 600.1,155.7 599.3,154.4 598.4,153.2 597.5,151.9 596.7,150.7 589.3,150.7 588.5,151.9 587.6,153.2 586.7,154.4 585.9,155.7 585.2,156.9 584.7,158.2 584.5,159.4 584.4,160.7 584.7,161.9 585.1,163.2 585.7,164.4 586.4,165.6 587.2,166.9 588.0,168.1 588.7,169.4 589.3,170.6 589.8,171.9 590.0,173.1 590.0,174.4 589.8,175.6 589.4,176.9 588.8,178.1 588.1,179.4 587.3,180.6 586.5,181.8 585.7,183.1 585.1,184.3 584.6,185.6 584.4,186.8 584.3,188.1 584.5,189.3 584.9,190.6 585.5,191.8 586.1,193.1 586.6,194.3 587.1,195.5 587.3,196.8 587.2,198.0 586.7,199.3 585.7,200.5 584.2,201.8 582.1,203.0 579.6,204.3 576.7,205.5 573.6,206.8 570.3,208.0 567.0,209.3 564.1,210.5 561.7,211.7 559.9,213.0 558.8,214.2 558.6,215.5 559.1,216.7 560.3,218.0 562.0,219.2 564.2,220.5 566.5,221.7 568.9,223.0 571.3,224.2 573.5,225.4 575.6,226.7 577.4,227.9 579.1,229.2 580.7,230.4 582.2,231.7 583.6,232.9 584.9,234.2 586.2,235.4 587.4,236.7 588.4,237.9 589.4,239.2" fill="#2a8" opacity="0.5" stroke="#2a8" stroke-width="1"/>
<line x1="559.0" y1="213.87029362202074" x2="627.0" y2="213.87029362202074" stroke="#114" stroke-width="2"/>
<circle cx="593.0" cy="229.43783351488844" r="2.4" fill="#114"/>
<text x="593.0" y="153.46052559442785" text-anchor="middle" font-size="11">1.14</text>
<text x="593.0" y="376" text-anchor="middle" font-size="12">ztrsv</text>
<polygon points="690.8,201.7 693.8,200.5 696.9,199.2 699.9,198.0 702.7,196.8 705.1,195.6 707.1,194.4 708.6,193.2 709.3,191.9 709.4,190.7 708.9,189.5 707.7,188.3 706.1,187.1 704.1,185.9 701.9,184.7 699.5,183.4 697.3,182.2 695.1,181.0 693.2,179.8 691.4,178.6 690.0,177.4 688.7,176.2 687.6,174.9 686.7,173.7 685.9,172.5 685.1,171.3 684.4,170.1 683.7,168.9 683.1,167.7 682.5,166.4 682.0,165.2 681.7,164.0 681.4,162.8 681.3,161.6 681.4,160.4 681.5,159.1 681.8,157.9 682.2,156.7 682.6,155.5 683.0,154.3 683.4,153.1 683.6,151.9 683.7,150.6 683.7,149.4 683.6,148.2 683.3,147.0 682.9,145.8 682.4,144.6 681.9,143.4 681.4,142.1 681.0,140.9 680.7,139.7 680.6,138.5 680.6,137.3 680.7,136.1 681.0,134.9 681.4,133.6 681.8,132.4 682.3,131.2 682.7,130.0 683.1,128.8 683.4,127.6 683.6,126.4 683.5,125.1 683.4,123.9 683.0,122.7 682.5,121.5 681.9,120.3 681.2,119.1 680.4,117.8 679.6,116.6 678.9,115.4 671.1,115.4 670.4,116.6 669.6,117.8 668.8,119.1 668.1,120.3 667.5,121.5 667.0,122.7 666.6,123.9 666.5,125.1 666.4,126.4 666.6,127.6 666.9,128.8 667.3,130.0 667.7,131.2 668.2,132.4 668.6,133.6 669.0,134.9 669.3,136.1 669.4,137.3 669.4,138.5 669.3,139.7 669.0,140.9 668.6,142.1 668.1,143.4 667.6,144.6 667.1,145.8 666.7,147.0 666.4,148.2 666.3,149.4 666.3,150.6 666.4,151.9 666.6,153.1 667.0,154.3 667.4,155.5 667.8,156.7 668.2,157.9 668.5,159.1 668.6,160.4 668.7,161.6 668.6,162.8 668.3,164.0 668.0,165.2 667.5,166.4 666.9,167.7 666.3,168.9 665.6,170.1 664.9,171.3 664.1,172.5 663.3,173.7 662.4,174.9 661.3,176.2 660.0,177.4 658.6,178.6 656.8,179.8 654.9,181.0 652.7,182.2 650.5,183.4 648.1,184.7 645.9,185.9 643.9,187.1 642.3,188.3 641.1,189.5 640.6,190.7 640.7,191.9 641.4,193.2 642.9,194.4 644.9,195.6 647.3,196.8 650.1,198.0 653.1,199.2 656.2,200.5 659.2,201.7" fill="#2a8" opacity="0.5" stroke="#2a8" stroke-width="1"/>
<line x1="641.5" y1="189.0690075551692" x2="708.5" y2="189.0690075551692" stroke="#114" stroke-width="2"/>
<circle cx="675.0" cy="192.82397334712172" r="2.4" fill="#114"/>
<text x="675.0" y="117.96891962262953" text-anchor="middle" font-size="11">1.33</text>
<text x="675.0" y="376" text-anchor="middle" font-size="12">zhpmv</text>
<polygon points="757.0,192.1 757.1,191.0 757.1,189.8 757.3,188.7 757.5,187.6 758.0,186.5 758.9,185.4 760.3,184.3 762.5,183.2 765.5,182.1 769.5,181.0 774.1,179.9 778.9,178.8 783.5,177.7 787.2,176.6 789.8,175.5 791.2,174.4 791.4,173.3 790.9,172.2 790.0,171.1 788.6,170.0 786.9,168.9 784.7,167.8 782.0,166.7 778.8,165.6 775.5,164.5 772.4,163.4 769.6,162.3 767.3,161.2 765.5,160.0 764.1,158.9 762.9,157.8 762.0,156.7 761.2,155.6 760.8,154.5 760.6,153.4 760.7,152.3 761.0,151.2 761.5,150.1 762.0,149.0 762.6,147.9 763.3,146.8 763.9,145.7 764.3,144.6 764.5,143.5 764.2,142.4 763.5,141.3 762.5,140.2 761.3,139.1 760.2,138.0 759.1,136.9 758.3,135.8 757.8,134.7 757.4,133.6 757.2,132.5 757.1,131.4 757.0,130.3 757.0,129.1 757.0,128.0 757.1,126.9 757.1,125.8 757.1,124.7 757.2,123.6 757.2,122.5 757.2,121.4 757.2,120.3 757.2,119.2 757.1,118.1 757.1,117.0 757.1,115.9 757.0,114.8 757.0,113.7 757.0,113.7 757.0,114.8 756.9,115.9 756.9,117.0 756.9,118.1 756.8,119.2 756.8,120.3 756.8,121.4 756.8,122.5 756.8,123.6 756.9,124.7 756.9,125.8 756.9,126.9 757.0,128.0 757.0,129.1 757.0,130.3 756.9,131.4 756.8,132.5 756.6,133.6 756.2,134.7 755.7,135.8 754.9,136.9 753.8,138.0 752.7,139.1 751.5,140.2 750.5,141.3 749.8,142.4 749.5,143.5 749.7,144.6 750.1,145.7 750.7,146.8 751.4,147.9 752.0,149.0 752.5,150.1 753.0,151.2 753.3,152.3 753.4,153.4 753.2,154.5 752.8,155.6 752.0,156.7 751.1,157.8 749.9,158.9 748.5,160.0 746.7,161.2 744.4,162.3 741.6,163.4 738.5,164.5 735.2,165.6 732.0,166.7 729.3,167.8 727.1,168.9 725.4,170.0 724.0,171.1 723.1,172.2 722.6,173.3 722.8,174.4 724.2,175.5 726.8,176.6 730.5,177.7 735.1,178.8 739.9,179.9 744.5,181.0 748.5,182.1 751.5,183.2 753.7,184.3 755.1,185.4 756.0,186.5 756.5,187.6 756.7,188.7 756.9,189.8 756.9,191.0 757.0,192.1" fill="#2a8" opacity="0.5" stroke="#2a8" stroke-width="1"/>
<line x1="725.6" y1="169.8325018657997" x2="788.4" y2="169.8325018657997" stroke="#114" stroke-width="2"/>
<circle cx="757.0" cy="177.43375300898913" r="2.4" fill="#114"/>
<text x="757.0" y="115.48500946512802" text-anchor="middle" font-size="11">1.48</text>
<text x="757.0" y="376" text-anchor="middle" font-size="12">zgbmvN</text>
<polygon points="839.0,191.5 839.1,191.2 839.2,190.9 839.7,190.5 840.9,190.2 843.1,189.8 846.7,189.5 851.6,189.2 857.4,188.8 863.5,188.5 868.9,188.1 872.4,187.8 873.4,187.5 872.2,187.1 869.6,186.8 866.2,186.4 862.3,186.1 858.1,185.8 853.8,185.4 850.0,185.1 847.1,184.7 845.7,184.4 845.8,184.1 846.8,183.7 847.8,183.4 848.0,183.0 847.1,182.7 845.3,182.3 843.4,182.0 841.7,181.7 840.6,181.3 840.0,181.0 839.6,180.6 839.4,180.3 839.4,180.0 839.3,179.6 839.2,179.3 839.1,178.9 839.1,178.6 839.0,178.3 839.0,177.9 839.0,177.6 839.0,177.2 839.0,176.9 839.0,176.6 839.0,176.2 839.0,175.9 839.0,175.5 839.1,175.2 839.1,174.9 839.2,174.5 839.2,174.2 839.3,173.8 839.3,173.5 839.3,173.2 839.3,172.8 839.2,172.5 839.2,172.1 839.1,171.8 839.1,171.5 839.1,171.1 839.1,170.8 839.2,170.4 839.2,170.1 839.2,169.8 839.2,169.4 839.1,169.1 839.1,168.7 839.0,168.4 839.0,168.1 839.0,167.7 839.0,167.4 839.0,167.4 839.0,167.7 839.0,168.1 839.0,168.4 838.9,168.7 838.9,169.1 838.8,169.4 838.8,169.8 838.8,170.1 838.8,170.4 838.9,170.8 838.9,171.1 838.9,171.5 838.9,171.8 838.8,172.1 838.8,172.5 838.7,172.8 838.7,173.2 838.7,173.5 838.7,173.8 838.8,174.2 838.8,174.5 838.9,174.9 838.9,175.2 839.0,175.5 839.0,175.9 839.0,176.2 839.0,176.6 839.0,176.9 839.0,177.2 839.0,177.6 839.0,177.9 839.0,178.3 838.9,178.6 838.9,178.9 838.8,179.3 838.7,179.6 838.6,180.0 838.6,180.3 838.4,180.6 838.0,181.0 837.4,181.3 836.3,181.7 834.6,182.0 832.7,182.3 830.9,182.7 830.0,183.0 830.2,183.4 831.2,183.7 832.2,184.1 832.3,184.4 830.9,184.7 828.0,185.1 824.2,185.4 819.9,185.8 815.7,186.1 811.8,186.4 808.4,186.8 805.8,187.1 804.6,187.5 805.6,187.8 809.1,188.1 814.5,188.5 820.6,188.8 826.4,189.2 831.3,189.5 834.9,189.8 837.1,190.2 838.3,190.5 838.8,190.9 838.9,191.2 839.0,191.5" fill="#2a8" opacity="0.5" stroke="#2a8" stroke-width="1"/>
<line x1="806.8" y1="186.96816561951206" x2="871.2" y2="186.96816561951206" stroke="#114" stroke-width="2"/>
<circle cx="839.0" cy="188.77671699882038" r="2.4" fill="#114"/>
<text x="839.0" y="163.91370086441117" text-anchor="middle" font-size="11">1.35</text>
<text x="839.0" y="376" text-anchor="middle" font-size="12">zhbmv</text>
<text x="450.0" y="428" text-anchor="middle" font-size="11" fill="#666">violin = ratio distribution over sizes · line = median · dark dot = worst size · green = every size ≥ gate</text>
</svg>
