<svg xmlns="http://www.w3.org/2000/svg" width="962" height="592" font-family="sans-serif">
<rect width="962" height="592" fill="white"/>
<text x="481.0" y="26" text-anchor="middle" font-size="17" font-weight="bold">Complex BLAS-3 — PureBLAS / OpenBLAS (PB/OpenBLAS ratio)</text>
<line x1="46" y1="42" x2="68" y2="42" stroke="#d62728" stroke-width="3"/>
<text x="73" y="46" font-size="12">Zen3 · AVX2</text>
<line x1="176" y1="42" x2="198" y2="42" stroke="#2ca02c" stroke-width="3"/>
<text x="203" y="46" font-size="12">Zen5 · AVX-512</text>
<line x1="327" y1="42" x2="349" y2="42" stroke="#1f77b4" stroke-width="3"/>
<text x="354" y="46" font-size="12">Zen4 · AVX-512</text>
<rect x="46" y="60" width="210" height="138" fill="none" stroke="#e2e2e2"/>
<line x1="46" y1="143.87577094929668" x2="256" y2="143.87577094929668" stroke="#d33" stroke-dasharray="4 3"/>
<text x="42" y="201.0" text-anchor="end" font-size="9" fill="#999">0.5×</text>
<text x="42" y="146.87577094929668" text-anchor="end" font-size="9" fill="#999">1.0×</text>
<polygon points="46.0,96.5 98.5,142.0 151.0,134.8 177.2,130.0 203.5,126.3 229.8,126.0 256.0,123.5 256.0,124.1 229.8,127.0 203.5,127.5 177.2,131.3 151.0,136.5 98.5,146.0 46.0,98.1" fill="#d62728" opacity="0.11"/>
<polyline points="46.0,97.5 98.5,143.5 151.0,135.4 177.2,131.1 203.5,127.1 229.8,126.7 256.0,123.9" fill="none" stroke="#d62728" stroke-width="1.6"/>
<circle cx="46.0" cy="97.5" r="2" fill="#d62728"/>
<circle cx="98.5" cy="143.5" r="2" fill="#d62728"/>
<circle cx="151.0" cy="135.4" r="2" fill="#d62728"/>
<circle cx="177.2" cy="131.1" r="2" fill="#d62728"/>
<circle cx="203.5" cy="127.1" r="2" fill="#d62728"/>
<circle cx="229.8" cy="126.7" r="2" fill="#d62728"/>
<circle cx="256.0" cy="123.9" r="2" fill="#d62728"/>
<polygon points="46.0,66.0 98.5,102.2 151.0,110.5 177.2,109.7 203.5,127.5 229.8,130.1 256.0,131.3 256.0,131.6 229.8,130.6 203.5,130.0 177.2,135.7 151.0,134.3 98.5,112.2 46.0,99.1" fill="#2ca02c" opacity="0.11"/>
<polyline points="46.0,76.8 98.5,111.0 151.0,127.4 177.2,132.6 203.5,128.5 229.8,130.2 256.0,131.4" fill="none" stroke="#2ca02c" stroke-width="1.6"/>
<circle cx="46.0" cy="76.8" r="2" fill="#2ca02c"/>
<circle cx="98.5" cy="111.0" r="2" fill="#2ca02c"/>
<circle cx="151.0" cy="127.4" r="2" fill="#2ca02c"/>
<circle cx="177.2" cy="132.6" r="2" fill="#2ca02c"/>
<circle cx="203.5" cy="128.5" r="2" fill="#2ca02c"/>
<circle cx="229.8" cy="130.2" r="2" fill="#2ca02c"/>
<circle cx="256.0" cy="131.4" r="2" fill="#2ca02c"/>
<polygon points="46.0,88.4 98.5,115.7 151.0,131.6 177.2,133.4 203.5,135.8 229.8,135.8 256.0,135.0 256.0,137.0 229.8,136.2 203.5,136.4 177.2,134.1 151.0,132.6 98.5,117.5 46.0,94.7" fill="#1f77b4" opacity="0.11"/>
<polyline points="46.0,89.7 98.5,116.7 151.0,132.1 177.2,133.9 203.5,136.2 229.8,136.0 256.0,136.1" fill="none" stroke="#1f77b4" stroke-width="1.6"/>
<circle cx="46.0" cy="89.7" r="2" fill="#1f77b4"/>
<circle cx="98.5" cy="116.7" r="2" fill="#1f77b4"/>
<circle cx="151.0" cy="132.1" r="2" fill="#1f77b4"/>
<circle cx="177.2" cy="133.9" r="2" fill="#1f77b4"/>
<circle cx="203.5" cy="136.2" r="2" fill="#1f77b4"/>
<circle cx="229.8" cy="136.0" r="2" fill="#1f77b4"/>
<circle cx="256.0" cy="136.1" r="2" fill="#1f77b4"/>
<text x="151.0" y="55" text-anchor="middle" font-size="12" font-weight="bold">zgemm</text>
<line x1="46.0" y1="60" x2="46.0" y2="198" stroke="#f4f4f4"/>
<text x="46.0" y="209" text-anchor="middle" font-size="8" fill="#999">8</text>
<line x1="98.5" y1="60" x2="98.5" y2="198" stroke="#f4f4f4"/>
<text x="98.5" y="209" text-anchor="middle" font-size="8" fill="#999">32</text>
<line x1="151.0" y1="60" x2="151.0" y2="198" stroke="#f4f4f4"/>
<text x="151.0" y="209" text-anchor="middle" font-size="8" fill="#999">128</text>
<line x1="177.2" y1="60" x2="177.2" y2="198" stroke="#f4f4f4"/>
<text x="177.2" y="209" text-anchor="middle" font-size="8" fill="#999">256</text>
<line x1="203.5" y1="60" x2="203.5" y2="198" stroke="#f4f4f4"/>
<text x="203.5" y="209" text-anchor="middle" font-size="8" fill="#999">512</text>
<line x1="229.8" y1="60" x2="229.8" y2="198" stroke="#f4f4f4"/>
<text x="229.8" y="209" text-anchor="middle" font-size="8" fill="#999">1k</text>
<line x1="256.0" y1="60" x2="256.0" y2="198" stroke="#f4f4f4"/>
<text x="256.0" y="209" text-anchor="middle" font-size="8" fill="#999">2k</text>
<rect x="276" y="60" width="210" height="138" fill="none" stroke="#e2e2e2"/>
<line x1="276" y1="118.31457132807" x2="486" y2="118.31457132807" stroke="#d33" stroke-dasharray="4 3"/>
<text x="272" y="201.0" text-anchor="end" font-size="9" fill="#999">0.5×</text>
<text x="272" y="121.31457132807" text-anchor="end" font-size="9" fill="#999">1.0×</text>
<text x="272" y="63.04992128565787" text-anchor="end" font-size="9" fill="#999">1.66×</text>
<polygon points="276.0,107.8 328.5,124.0 381.0,109.9 407.2,102.0 433.5,96.1 459.8,93.2 486.0,89.1 486.0,91.3 459.8,94.4 433.5,97.7 407.2,104.0 381.0,112.3 328.5,126.7 276.0,109.0" fill="#d62728" opacity="0.11"/>
<polyline points="276.0,108.3 328.5,125.1 381.0,111.5 407.2,103.2 433.5,97.4 459.8,94.0 486.0,90.3" fill="none" stroke="#d62728" stroke-width="1.6"/>
<circle cx="276.0" cy="108.3" r="2" fill="#d62728"/>
<circle cx="328.5" cy="125.1" r="2" fill="#d62728"/>
<circle cx="381.0" cy="111.5" r="2" fill="#d62728"/>
<circle cx="407.2" cy="103.2" r="2" fill="#d62728"/>
<circle cx="433.5" cy="97.4" r="2" fill="#d62728"/>
<circle cx="459.8" cy="94.0" r="2" fill="#d62728"/>
<circle cx="486.0" cy="90.3" r="2" fill="#d62728"/>
<polygon points="276.0,70.7 328.5,81.7 381.0,86.2 407.2,68.8 433.5,94.8 459.8,97.3 486.0,98.2 486.0,99.6 459.8,98.6 433.5,98.4 407.2,106.6 381.0,108.7 328.5,102.8 276.0,93.6" fill="#2ca02c" opacity="0.11"/>
<polyline points="276.0,81.4 328.5,85.1 381.0,108.0 407.2,102.1 433.5,96.4 459.8,98.0 486.0,99.5" fill="none" stroke="#2ca02c" stroke-width="1.6"/>
<circle cx="276.0" cy="81.4" r="2" fill="#2ca02c"/>
<circle cx="328.5" cy="85.1" r="2" fill="#2ca02c"/>
<circle cx="381.0" cy="108.0" r="2" fill="#2ca02c"/>
<circle cx="407.2" cy="102.1" r="2" fill="#2ca02c"/>
<circle cx="433.5" cy="96.4" r="2" fill="#2ca02c"/>
<circle cx="459.8" cy="98.0" r="2" fill="#2ca02c"/>
<circle cx="486.0" cy="99.5" r="2" fill="#2ca02c"/>
<polygon points="276.0,76.4 328.5,94.7 381.0,106.4 407.2,105.3 433.5,106.9 459.8,106.1 486.0,106.8 486.0,109.0 459.8,107.8 433.5,108.1 407.2,108.3 381.0,111.2 328.5,97.7 276.0,107.1" fill="#1f77b4" opacity="0.11"/>
<polyline points="276.0,103.7 328.5,96.4 381.0,110.0 407.2,107.4 433.5,107.6 459.8,107.3 486.0,108.1" fill="none" stroke="#1f77b4" stroke-width="1.6"/>
<circle cx="276.0" cy="103.7" r="2" fill="#1f77b4"/>
<circle cx="328.5" cy="96.4" r="2" fill="#1f77b4"/>
<circle cx="381.0" cy="110.0" r="2" fill="#1f77b4"/>
<circle cx="407.2" cy="107.4" r="2" fill="#1f77b4"/>
<circle cx="433.5" cy="107.6" r="2" fill="#1f77b4"/>
<circle cx="459.8" cy="107.3" r="2" fill="#1f77b4"/>
<circle cx="486.0" cy="108.1" r="2" fill="#1f77b4"/>
<text x="381.0" y="55" text-anchor="middle" font-size="12" font-weight="bold">zhemm</text>
<line x1="276.0" y1="60" x2="276.0" y2="198" stroke="#f4f4f4"/>
<text x="276.0" y="209" text-anchor="middle" font-size="8" fill="#999">8</text>
<line x1="328.5" y1="60" x2="328.5" y2="198" stroke="#f4f4f4"/>
<text x="328.5" y="209" text-anchor="middle" font-size="8" fill="#999">32</text>
<line x1="381.0" y1="60" x2="381.0" y2="198" stroke="#f4f4f4"/>
<text x="381.0" y="209" text-anchor="middle" font-size="8" fill="#999">128</text>
<line x1="407.2" y1="60" x2="407.2" y2="198" stroke="#f4f4f4"/>
<text x="407.2" y="209" text-anchor="middle" font-size="8" fill="#999">256</text>
<line x1="433.5" y1="60" x2="433.5" y2="198" stroke="#f4f4f4"/>
<text x="433.5" y="209" text-anchor="middle" font-size="8" fill="#999">512</text>
<line x1="459.8" y1="60" x2="459.8" y2="198" stroke="#f4f4f4"/>
<text x="459.8" y="209" text-anchor="middle" font-size="8" fill="#999">1k</text>
<line x1="486.0" y1="60" x2="486.0" y2="198" stroke="#f4f4f4"/>
<text x="486.0" y="209" text-anchor="middle" font-size="8" fill="#999">2k</text>
<rect x="506" y="60" width="210" height="138" fill="none" stroke="#e2e2e2"/>
<line x1="506" y1="118.40592813492114" x2="716" y2="118.40592813492114" stroke="#d33" stroke-dasharray="4 3"/>
<text x="502" y="201.0" text-anchor="end" font-size="9" fill="#999">0.5×</text>
<text x="502" y="121.40592813492114" text-anchor="end" font-size="9" fill="#999">1.0×</text>
<text x="502" y="63.20807665868211" text-anchor="end" font-size="9" fill="#999">1.66×</text>
<polygon points="506.0,102.2 558.5,125.7 611.0,109.7 637.2,102.3 663.5,94.8 689.8,93.5 716.0,89.5 716.0,90.5 689.8,94.7 663.5,96.4 637.2,104.3 611.0,112.3 558.5,131.6 506.0,104.9" fill="#d62728" opacity="0.11"/>
<polyline points="506.0,103.3 558.5,128.3 611.0,111.1 637.2,103.8 663.5,96.1 689.8,94.2 716.0,90.0" fill="none" stroke="#d62728" stroke-width="1.6"/>
<circle cx="506.0" cy="103.3" r="2" fill="#d62728"/>
<circle cx="558.5" cy="128.3" r="2" fill="#d62728"/>
<circle cx="611.0" cy="111.1" r="2" fill="#d62728"/>
<circle cx="637.2" cy="103.8" r="2" fill="#d62728"/>
<circle cx="663.5" cy="96.1" r="2" fill="#d62728"/>
<circle cx="689.8" cy="94.2" r="2" fill="#d62728"/>
<circle cx="716.0" cy="90.0" r="2" fill="#d62728"/>
<polygon points="506.0,68.8 558.5,81.0 611.0,75.9 637.2,70.5 663.5,98.6 689.8,98.1 716.0,99.6 716.0,100.1 689.8,99.1 663.5,100.9 637.2,107.9 611.0,107.3 558.5,103.1 506.0,103.5" fill="#2ca02c" opacity="0.11"/>
<polyline points="506.0,78.8 558.5,84.3 611.0,106.0 637.2,103.6 663.5,99.8 689.8,98.5 716.0,99.7" fill="none" stroke="#2ca02c" stroke-width="1.6"/>
<circle cx="506.0" cy="78.8" r="2" fill="#2ca02c"/>
<circle cx="558.5" cy="84.3" r="2" fill="#2ca02c"/>
<circle cx="611.0" cy="106.0" r="2" fill="#2ca02c"/>
<circle cx="637.2" cy="103.6" r="2" fill="#2ca02c"/>
<circle cx="663.5" cy="99.8" r="2" fill="#2ca02c"/>
<circle cx="689.8" cy="98.5" r="2" fill="#2ca02c"/>
<circle cx="716.0" cy="99.7" r="2" fill="#2ca02c"/>
<polygon points="506.0,94.4 558.5,98.3 611.0,106.9 637.2,110.3 663.5,111.7 689.8,108.9 716.0,106.9 716.0,110.7 689.8,110.0 663.5,112.7 637.2,111.4 611.0,108.8 558.5,100.4 506.0,99.9" fill="#1f77b4" opacity="0.11"/>
<polyline points="506.0,97.6 558.5,99.3 611.0,108.2 637.2,110.9 663.5,112.2 689.8,109.7 716.0,108.9" fill="none" stroke="#1f77b4" stroke-width="1.6"/>
<circle cx="506.0" cy="97.6" r="2" fill="#1f77b4"/>
<circle cx="558.5" cy="99.3" r="2" fill="#1f77b4"/>
<circle cx="611.0" cy="108.2" r="2" fill="#1f77b4"/>
<circle cx="637.2" cy="110.9" r="2" fill="#1f77b4"/>
<circle cx="663.5" cy="112.2" r="2" fill="#1f77b4"/>
<circle cx="689.8" cy="109.7" r="2" fill="#1f77b4"/>
<circle cx="716.0" cy="108.9" r="2" fill="#1f77b4"/>
<text x="611.0" y="55" text-anchor="middle" font-size="12" font-weight="bold">zsymm</text>
<line x1="506.0" y1="60" x2="506.0" y2="198" stroke="#f4f4f4"/>
<text x="506.0" y="209" text-anchor="middle" font-size="8" fill="#999">8</text>
<line x1="558.5" y1="60" x2="558.5" y2="198" stroke="#f4f4f4"/>
<text x="558.5" y="209" text-anchor="middle" font-size="8" fill="#999">32</text>
<line x1="611.0" y1="60" x2="611.0" y2="198" stroke="#f4f4f4"/>
<text x="611.0" y="209" text-anchor="middle" font-size="8" fill="#999">128</text>
<line x1="637.2" y1="60" x2="637.2" y2="198" stroke="#f4f4f4"/>
<text x="637.2" y="209" text-anchor="middle" font-size="8" fill="#999">256</text>
<line x1="663.5" y1="60" x2="663.5" y2="198" stroke="#f4f4f4"/>
<text x="663.5" y="209" text-anchor="middle" font-size="8" fill="#999">512</text>
<line x1="689.8" y1="60" x2="689.8" y2="198" stroke="#f4f4f4"/>
<text x="689.8" y="209" text-anchor="middle" font-size="8" fill="#999">1k</text>
<line x1="716.0" y1="60" x2="716.0" y2="198" stroke="#f4f4f4"/>
<text x="716.0" y="209" text-anchor="middle" font-size="8" fill="#999">2k</text>
<rect x="736" y="60" width="210" height="138" fill="none" stroke="#e2e2e2"/>
<line x1="736" y1="136.2463808155237" x2="946" y2="136.2463808155237" stroke="#d33" stroke-dasharray="4 3"/>
<text x="732" y="201.0" text-anchor="end" font-size="9" fill="#999">0.5×</text>
<text x="732" y="139.2463808155237" text-anchor="end" font-size="9" fill="#999">1.0×</text>
<text x="732" y="63.12511785704876" text-anchor="end" font-size="9" fill="#999">2.35×</text>
<polygon points="736.0,90.6 788.5,123.6 841.0,136.1 867.2,126.0 893.5,119.6 919.8,118.4 946.0,115.0 946.0,115.2 919.8,118.9 893.5,120.7 867.2,127.4 841.0,138.2 788.5,125.6 736.0,93.1" fill="#d62728" opacity="0.11"/>
<polyline points="736.0,91.3 788.5,124.3 841.0,137.7 867.2,127.0 893.5,119.7 919.8,118.6 946.0,115.1" fill="none" stroke="#d62728" stroke-width="1.6"/>
<circle cx="736.0" cy="91.3" r="2" fill="#d62728"/>
<circle cx="788.5" cy="124.3" r="2" fill="#d62728"/>
<circle cx="841.0" cy="137.7" r="2" fill="#d62728"/>
<circle cx="867.2" cy="127.0" r="2" fill="#d62728"/>
<circle cx="893.5" cy="119.7" r="2" fill="#d62728"/>
<circle cx="919.8" cy="118.6" r="2" fill="#d62728"/>
<circle cx="946.0" cy="115.1" r="2" fill="#d62728"/>
<polygon points="736.0,66.9 788.5,110.3 841.0,98.7 867.2,99.0 893.5,117.3 919.8,119.7 946.0,121.6 946.0,122.4 919.8,121.6 893.5,123.8 867.2,128.6 841.0,129.1 788.5,133.0 736.0,75.4" fill="#2ca02c" opacity="0.11"/>
<polyline points="736.0,70.3 788.5,131.4 841.0,128.0 867.2,128.0 893.5,122.0 919.8,120.6 946.0,122.0" fill="none" stroke="#2ca02c" stroke-width="1.6"/>
<circle cx="736.0" cy="70.3" r="2" fill="#2ca02c"/>
<circle cx="788.5" cy="131.4" r="2" fill="#2ca02c"/>
<circle cx="841.0" cy="128.0" r="2" fill="#2ca02c"/>
<circle cx="867.2" cy="128.0" r="2" fill="#2ca02c"/>
<circle cx="893.5" cy="122.0" r="2" fill="#2ca02c"/>
<circle cx="919.8" cy="120.6" r="2" fill="#2ca02c"/>
<circle cx="946.0" cy="122.0" r="2" fill="#2ca02c"/>
<polygon points="736.0,71.0 788.5,122.6 841.0,121.6 867.2,124.5 893.5,123.5 919.8,125.7 946.0,125.8 946.0,126.6 919.8,126.3 893.5,125.1 867.2,125.2 841.0,123.2 788.5,125.5 736.0,76.1" fill="#1f77b4" opacity="0.11"/>
<polyline points="736.0,72.0 788.5,124.3 841.0,122.5 867.2,124.9 893.5,123.9 919.8,126.1 946.0,126.4" fill="none" stroke="#1f77b4" stroke-width="1.6"/>
<circle cx="736.0" cy="72.0" r="2" fill="#1f77b4"/>
<circle cx="788.5" cy="124.3" r="2" fill="#1f77b4"/>
<circle cx="841.0" cy="122.5" r="2" fill="#1f77b4"/>
<circle cx="867.2" cy="124.9" r="2" fill="#1f77b4"/>
<circle cx="893.5" cy="123.9" r="2" fill="#1f77b4"/>
<circle cx="919.8" cy="126.1" r="2" fill="#1f77b4"/>
<circle cx="946.0" cy="126.4" r="2" fill="#1f77b4"/>
<text x="841.0" y="55" text-anchor="middle" font-size="12" font-weight="bold">zsyrk</text>
<line x1="736.0" y1="60" x2="736.0" y2="198" stroke="#f4f4f4"/>
<text x="736.0" y="209" text-anchor="middle" font-size="8" fill="#999">8</text>
<line x1="788.5" y1="60" x2="788.5" y2="198" stroke="#f4f4f4"/>
<text x="788.5" y="209" text-anchor="middle" font-size="8" fill="#999">32</text>
<line x1="841.0" y1="60" x2="841.0" y2="198" stroke="#f4f4f4"/>
<text x="841.0" y="209" text-anchor="middle" font-size="8" fill="#999">128</text>
<line x1="867.2" y1="60" x2="867.2" y2="198" stroke="#f4f4f4"/>
<text x="867.2" y="209" text-anchor="middle" font-size="8" fill="#999">256</text>
<line x1="893.5" y1="60" x2="893.5" y2="198" stroke="#f4f4f4"/>
<text x="893.5" y="209" text-anchor="middle" font-size="8" fill="#999">512</text>
<line x1="919.8" y1="60" x2="919.8" y2="198" stroke="#f4f4f4"/>
<text x="919.8" y="209" text-anchor="middle" font-size="8" fill="#999">1k</text>
<line x1="946.0" y1="60" x2="946.0" y2="198" stroke="#f4f4f4"/>
<text x="946.0" y="209" text-anchor="middle" font-size="8" fill="#999">2k</text>
<rect x="46" y="232" width="210" height="138" fill="none" stroke="#e2e2e2"/>
<line x1="46" y1="306.3894729242293" x2="256" y2="306.3894729242293" stroke="#d33" stroke-dasharray="4 3"/>
<text x="42" y="373.0" text-anchor="end" font-size="9" fill="#999">0.5×</text>
<text x="42" y="309.3894729242293" text-anchor="end" font-size="9" fill="#999">1.0×</text>
<polygon points="46.0,258.6 98.5,294.1 151.0,305.9 177.2,298.0 203.5,291.4 229.8,291.5 256.0,286.4 256.0,286.8 229.8,292.4 203.5,293.4 177.2,300.2 151.0,308.1 98.5,295.9 46.0,260.3" fill="#d62728" opacity="0.11"/>
<polyline points="46.0,258.9 98.5,295.0 151.0,307.5 177.2,298.6 203.5,292.0 229.8,291.8 256.0,286.5" fill="none" stroke="#d62728" stroke-width="1.6"/>
<circle cx="46.0" cy="258.9" r="2" fill="#d62728"/>
<circle cx="98.5" cy="295.0" r="2" fill="#d62728"/>
<circle cx="151.0" cy="307.5" r="2" fill="#d62728"/>
<circle cx="177.2" cy="298.6" r="2" fill="#d62728"/>
<circle cx="203.5" cy="292.0" r="2" fill="#d62728"/>
<circle cx="229.8" cy="291.8" r="2" fill="#d62728"/>
<circle cx="256.0" cy="286.5" r="2" fill="#d62728"/>
<polygon points="46.0,239.1 98.5,284.2 151.0,266.7 177.2,280.6 203.5,287.3 229.8,290.3 256.0,291.5 256.0,292.2 229.8,291.8 203.5,293.5 177.2,298.5 151.0,298.5 98.5,304.1 46.0,247.4" fill="#2ca02c" opacity="0.11"/>
<polyline points="46.0,242.2 98.5,301.8 151.0,298.0 177.2,298.0 203.5,292.0 229.8,290.9 256.0,291.8" fill="none" stroke="#2ca02c" stroke-width="1.6"/>
<circle cx="46.0" cy="242.2" r="2" fill="#2ca02c"/>
<circle cx="98.5" cy="301.8" r="2" fill="#2ca02c"/>
<circle cx="151.0" cy="298.0" r="2" fill="#2ca02c"/>
<circle cx="177.2" cy="298.0" r="2" fill="#2ca02c"/>
<circle cx="203.5" cy="292.0" r="2" fill="#2ca02c"/>
<circle cx="229.8" cy="290.9" r="2" fill="#2ca02c"/>
<circle cx="256.0" cy="291.8" r="2" fill="#2ca02c"/>
<polygon points="46.0,242.1 98.5,293.3 151.0,291.3 177.2,293.4 203.5,293.2 229.8,295.7 256.0,296.0 256.0,296.9 229.8,296.2 203.5,294.6 177.2,294.9 151.0,292.8 98.5,295.7 46.0,246.2" fill="#1f77b4" opacity="0.11"/>
<polyline points="46.0,243.4 98.5,295.0 151.0,292.4 177.2,294.6 203.5,293.7 229.8,296.1 256.0,296.7" fill="none" stroke="#1f77b4" stroke-width="1.6"/>
<circle cx="46.0" cy="243.4" r="2" fill="#1f77b4"/>
<circle cx="98.5" cy="295.0" r="2" fill="#1f77b4"/>
<circle cx="151.0" cy="292.4" r="2" fill="#1f77b4"/>
<circle cx="177.2" cy="294.6" r="2" fill="#1f77b4"/>
<circle cx="203.5" cy="293.7" r="2" fill="#1f77b4"/>
<circle cx="229.8" cy="296.1" r="2" fill="#1f77b4"/>
<circle cx="256.0" cy="296.7" r="2" fill="#1f77b4"/>
<text x="151.0" y="227" text-anchor="middle" font-size="12" font-weight="bold">zherk</text>
<line x1="46.0" y1="232" x2="46.0" y2="370" stroke="#f4f4f4"/>
<text x="46.0" y="381" text-anchor="middle" font-size="8" fill="#999">8</text>
<line x1="98.5" y1="232" x2="98.5" y2="370" stroke="#f4f4f4"/>
<text x="98.5" y="381" text-anchor="middle" font-size="8" fill="#999">32</text>
<line x1="151.0" y1="232" x2="151.0" y2="370" stroke="#f4f4f4"/>
<text x="151.0" y="381" text-anchor="middle" font-size="8" fill="#999">128</text>
<line x1="177.2" y1="232" x2="177.2" y2="370" stroke="#f4f4f4"/>
<text x="177.2" y="381" text-anchor="middle" font-size="8" fill="#999">256</text>
<line x1="203.5" y1="232" x2="203.5" y2="370" stroke="#f4f4f4"/>
<text x="203.5" y="381" text-anchor="middle" font-size="8" fill="#999">512</text>
<line x1="229.8" y1="232" x2="229.8" y2="370" stroke="#f4f4f4"/>
<text x="229.8" y="381" text-anchor="middle" font-size="8" fill="#999">1k</text>
<line x1="256.0" y1="232" x2="256.0" y2="370" stroke="#f4f4f4"/>
<text x="256.0" y="381" text-anchor="middle" font-size="8" fill="#999">2k</text>
<rect x="276" y="232" width="210" height="138" fill="none" stroke="#e2e2e2"/>
<line x1="276" y1="294.3303540255764" x2="486" y2="294.3303540255764" stroke="#d33" stroke-dasharray="4 3"/>
<text x="272" y="373.0" text-anchor="end" font-size="9" fill="#999">0.5×</text>
<text x="272" y="297.3303540255764" text-anchor="end" font-size="9" fill="#999">1.0×</text>
<polygon points="276.0,269.7 328.5,292.0 381.0,298.9 407.2,285.7 433.5,278.0 459.8,277.3 486.0,270.9 486.0,271.6 459.8,278.3 433.5,279.7 407.2,288.3 381.0,301.3 328.5,296.7 276.0,271.2" fill="#d62728" opacity="0.11"/>
<polyline points="276.0,270.2 328.5,293.8 381.0,299.5 407.2,287.5 433.5,279.4 459.8,277.7 486.0,271.2" fill="none" stroke="#d62728" stroke-width="1.6"/>
<circle cx="276.0" cy="270.2" r="2" fill="#d62728"/>
<circle cx="328.5" cy="293.8" r="2" fill="#d62728"/>
<circle cx="381.0" cy="299.5" r="2" fill="#d62728"/>
<circle cx="407.2" cy="287.5" r="2" fill="#d62728"/>
<circle cx="433.5" cy="279.4" r="2" fill="#d62728"/>
<circle cx="459.8" cy="277.7" r="2" fill="#d62728"/>
<circle cx="486.0" cy="271.2" r="2" fill="#d62728"/>
<polygon points="276.0,240.4 328.5,287.4 381.0,263.3 407.2,251.9 433.5,275.0 459.8,274.0 486.0,276.9 486.0,277.3 459.8,275.5 433.5,279.0 407.2,285.4 381.0,284.5 328.5,293.9 276.0,251.9" fill="#2ca02c" opacity="0.11"/>
<polyline points="276.0,245.8 328.5,292.2 381.0,283.4 407.2,284.6 433.5,276.9 459.8,274.6 486.0,277.1" fill="none" stroke="#2ca02c" stroke-width="1.6"/>
<circle cx="276.0" cy="245.8" r="2" fill="#2ca02c"/>
<circle cx="328.5" cy="292.2" r="2" fill="#2ca02c"/>
<circle cx="381.0" cy="283.4" r="2" fill="#2ca02c"/>
<circle cx="407.2" cy="284.6" r="2" fill="#2ca02c"/>
<circle cx="433.5" cy="276.9" r="2" fill="#2ca02c"/>
<circle cx="459.8" cy="274.6" r="2" fill="#2ca02c"/>
<circle cx="486.0" cy="277.1" r="2" fill="#2ca02c"/>
<polygon points="276.0,248.1 328.5,291.9 381.0,275.4 407.2,282.4 433.5,280.1 459.8,281.4 486.0,282.1 486.0,284.5 459.8,282.5 433.5,281.9 407.2,284.5 381.0,279.8 328.5,293.2 276.0,251.1" fill="#1f77b4" opacity="0.11"/>
<polyline points="276.0,249.5 328.5,292.9 381.0,277.4 407.2,282.9 433.5,280.9 459.8,282.2 486.0,282.7" fill="none" stroke="#1f77b4" stroke-width="1.6"/>
<circle cx="276.0" cy="249.5" r="2" fill="#1f77b4"/>
<circle cx="328.5" cy="292.9" r="2" fill="#1f77b4"/>
<circle cx="381.0" cy="277.4" r="2" fill="#1f77b4"/>
<circle cx="407.2" cy="282.9" r="2" fill="#1f77b4"/>
<circle cx="433.5" cy="280.9" r="2" fill="#1f77b4"/>
<circle cx="459.8" cy="282.2" r="2" fill="#1f77b4"/>
<circle cx="486.0" cy="282.7" r="2" fill="#1f77b4"/>
<text x="381.0" y="227" text-anchor="middle" font-size="12" font-weight="bold">zher2k</text>
<line x1="276.0" y1="232" x2="276.0" y2="370" stroke="#f4f4f4"/>
<text x="276.0" y="381" text-anchor="middle" font-size="8" fill="#999">8</text>
<line x1="328.5" y1="232" x2="328.5" y2="370" stroke="#f4f4f4"/>
<text x="328.5" y="381" text-anchor="middle" font-size="8" fill="#999">32</text>
<line x1="381.0" y1="232" x2="381.0" y2="370" stroke="#f4f4f4"/>
<text x="381.0" y="381" text-anchor="middle" font-size="8" fill="#999">128</text>
<line x1="407.2" y1="232" x2="407.2" y2="370" stroke="#f4f4f4"/>
<text x="407.2" y="381" text-anchor="middle" font-size="8" fill="#999">256</text>
<line x1="433.5" y1="232" x2="433.5" y2="370" stroke="#f4f4f4"/>
<text x="433.5" y="381" text-anchor="middle" font-size="8" fill="#999">512</text>
<line x1="459.8" y1="232" x2="459.8" y2="370" stroke="#f4f4f4"/>
<text x="459.8" y="381" text-anchor="middle" font-size="8" fill="#999">1k</text>
<line x1="486.0" y1="232" x2="486.0" y2="370" stroke="#f4f4f4"/>
<text x="486.0" y="381" text-anchor="middle" font-size="8" fill="#999">2k</text>
<rect x="506" y="232" width="210" height="138" fill="none" stroke="#e2e2e2"/>
<line x1="506" y1="295.1099559848588" x2="716" y2="295.1099559848588" stroke="#d33" stroke-dasharray="4 3"/>
<text x="502" y="373.0" text-anchor="end" font-size="9" fill="#999">0.5×</text>
<text x="502" y="298.1099559848588" text-anchor="end" font-size="9" fill="#999">1.0×</text>
<text x="502" y="235.20534550682794" text-anchor="end" font-size="9" fill="#999">1.79×</text>
<polygon points="506.0,266.6 558.5,292.5 611.0,300.2 637.2,287.3 663.5,279.9 689.8,278.3 716.0,271.5 716.0,272.4 689.8,278.9 663.5,280.7 637.2,289.1 611.0,302.1 558.5,297.2 506.0,268.2" fill="#d62728" opacity="0.11"/>
<polyline points="506.0,267.3 558.5,294.1 611.0,300.8 637.2,287.6 663.5,280.4 689.8,278.6 716.0,272.0" fill="none" stroke="#d62728" stroke-width="1.6"/>
<circle cx="506.0" cy="267.3" r="2" fill="#d62728"/>
<circle cx="558.5" cy="294.1" r="2" fill="#d62728"/>
<circle cx="611.0" cy="300.8" r="2" fill="#d62728"/>
<circle cx="637.2" cy="287.6" r="2" fill="#d62728"/>
<circle cx="663.5" cy="280.4" r="2" fill="#d62728"/>
<circle cx="689.8" cy="278.6" r="2" fill="#d62728"/>
<circle cx="716.0" cy="272.0" r="2" fill="#d62728"/>
<polygon points="506.0,240.3 558.5,280.6 611.0,264.3 637.2,254.3 663.5,275.5 689.8,275.0 716.0,277.5 716.0,278.0 689.8,276.9 663.5,279.4 637.2,286.6 611.0,285.5 558.5,292.7 506.0,248.2" fill="#2ca02c" opacity="0.11"/>
<polyline points="506.0,243.3 558.5,290.6 611.0,284.9 637.2,285.6 663.5,277.6 689.8,275.7 716.0,277.8" fill="none" stroke="#2ca02c" stroke-width="1.6"/>
<circle cx="506.0" cy="243.3" r="2" fill="#2ca02c"/>
<circle cx="558.5" cy="290.6" r="2" fill="#2ca02c"/>
<circle cx="611.0" cy="284.9" r="2" fill="#2ca02c"/>
<circle cx="637.2" cy="285.6" r="2" fill="#2ca02c"/>
<circle cx="663.5" cy="277.6" r="2" fill="#2ca02c"/>
<circle cx="689.8" cy="275.7" r="2" fill="#2ca02c"/>
<circle cx="716.0" cy="277.8" r="2" fill="#2ca02c"/>
<polygon points="506.0,245.9 558.5,291.8 611.0,277.3 637.2,282.9 663.5,281.1 689.8,282.5 716.0,281.5 716.0,283.6 689.8,283.4 663.5,282.7 637.2,284.8 611.0,278.9 558.5,293.0 506.0,248.7" fill="#1f77b4" opacity="0.11"/>
<polyline points="506.0,247.7 558.5,292.7 611.0,278.3 637.2,283.9 663.5,281.7 689.8,283.1 716.0,282.3" fill="none" stroke="#1f77b4" stroke-width="1.6"/>
<circle cx="506.0" cy="247.7" r="2" fill="#1f77b4"/>
<circle cx="558.5" cy="292.7" r="2" fill="#1f77b4"/>
<circle cx="611.0" cy="278.3" r="2" fill="#1f77b4"/>
<circle cx="637.2" cy="283.9" r="2" fill="#1f77b4"/>
<circle cx="663.5" cy="281.7" r="2" fill="#1f77b4"/>
<circle cx="689.8" cy="283.1" r="2" fill="#1f77b4"/>
<circle cx="716.0" cy="282.3" r="2" fill="#1f77b4"/>
<text x="611.0" y="227" text-anchor="middle" font-size="12" font-weight="bold">zsyr2k</text>
<line x1="506.0" y1="232" x2="506.0" y2="370" stroke="#f4f4f4"/>
<text x="506.0" y="381" text-anchor="middle" font-size="8" fill="#999">8</text>
<line x1="558.5" y1="232" x2="558.5" y2="370" stroke="#f4f4f4"/>
<text x="558.5" y="381" text-anchor="middle" font-size="8" fill="#999">32</text>
<line x1="611.0" y1="232" x2="611.0" y2="370" stroke="#f4f4f4"/>
<text x="611.0" y="381" text-anchor="middle" font-size="8" fill="#999">128</text>
<line x1="637.2" y1="232" x2="637.2" y2="370" stroke="#f4f4f4"/>
<text x="637.2" y="381" text-anchor="middle" font-size="8" fill="#999">256</text>
<line x1="663.5" y1="232" x2="663.5" y2="370" stroke="#f4f4f4"/>
<text x="663.5" y="381" text-anchor="middle" font-size="8" fill="#999">512</text>
<line x1="689.8" y1="232" x2="689.8" y2="370" stroke="#f4f4f4"/>
<text x="689.8" y="381" text-anchor="middle" font-size="8" fill="#999">1k</text>
<line x1="716.0" y1="232" x2="716.0" y2="370" stroke="#f4f4f4"/>
<text x="716.0" y="381" text-anchor="middle" font-size="8" fill="#999">2k</text>
<rect x="736" y="232" width="210" height="138" fill="none" stroke="#e2e2e2"/>
<line x1="736" y1="296.9959914907873" x2="946" y2="296.9959914907873" stroke="#d33" stroke-dasharray="4 3"/>
<text x="732" y="373.0" text-anchor="end" font-size="9" fill="#999">0.5×</text>
<text x="732" y="299.9959914907873" text-anchor="end" font-size="9" fill="#999">1.0×</text>
<text x="732" y="235.20308907342707" text-anchor="end" font-size="9" fill="#999">1.85×</text>
<polygon points="736.0,298.4 788.5,315.5 841.0,308.0 867.2,295.4 893.5,289.5 919.8,285.8 946.0,281.2 946.0,282.8 919.8,286.9 893.5,291.4 867.2,296.5 841.0,308.5 788.5,319.0 736.0,300.3" fill="#d62728" opacity="0.11"/>
<polyline points="736.0,299.1 788.5,317.3 841.0,308.4 867.2,296.2 893.5,290.7 919.8,286.8 946.0,282.0" fill="none" stroke="#d62728" stroke-width="1.6"/>
<circle cx="736.0" cy="299.1" r="2" fill="#d62728"/>
<circle cx="788.5" cy="317.3" r="2" fill="#d62728"/>
<circle cx="841.0" cy="308.4" r="2" fill="#d62728"/>
<circle cx="867.2" cy="296.2" r="2" fill="#d62728"/>
<circle cx="893.5" cy="290.7" r="2" fill="#d62728"/>
<circle cx="919.8" cy="286.8" r="2" fill="#d62728"/>
<circle cx="946.0" cy="282.0" r="2" fill="#d62728"/>
<polygon points="736.0,255.4 788.5,297.3 841.0,291.1 867.2,240.1 893.5,280.6 919.8,280.9 946.0,282.4 946.0,283.1 919.8,283.1 893.5,283.3 867.2,291.6 841.0,294.1 788.5,305.7 736.0,275.8" fill="#2ca02c" opacity="0.11"/>
<polyline points="736.0,268.4 788.5,298.2 841.0,293.4 867.2,291.3 893.5,281.3 919.8,282.5 946.0,282.8" fill="none" stroke="#2ca02c" stroke-width="1.6"/>
<circle cx="736.0" cy="268.4" r="2" fill="#2ca02c"/>
<circle cx="788.5" cy="298.2" r="2" fill="#2ca02c"/>
<circle cx="841.0" cy="293.4" r="2" fill="#2ca02c"/>
<circle cx="867.2" cy="291.3" r="2" fill="#2ca02c"/>
<circle cx="893.5" cy="281.3" r="2" fill="#2ca02c"/>
<circle cx="919.8" cy="282.5" r="2" fill="#2ca02c"/>
<circle cx="946.0" cy="282.8" r="2" fill="#2ca02c"/>
<polygon points="736.0,285.4 788.5,287.9 841.0,289.6 867.2,290.2 893.5,289.2 919.8,288.6 946.0,288.0 946.0,290.5 919.8,289.8 893.5,290.0 867.2,291.7 841.0,292.3 788.5,290.3 736.0,290.1" fill="#1f77b4" opacity="0.11"/>
<polyline points="736.0,286.9 788.5,288.8 841.0,291.6 867.2,291.0 893.5,289.8 919.8,289.1 946.0,288.4" fill="none" stroke="#1f77b4" stroke-width="1.6"/>
<circle cx="736.0" cy="286.9" r="2" fill="#1f77b4"/>
<circle cx="788.5" cy="288.8" r="2" fill="#1f77b4"/>
<circle cx="841.0" cy="291.6" r="2" fill="#1f77b4"/>
<circle cx="867.2" cy="291.0" r="2" fill="#1f77b4"/>
<circle cx="893.5" cy="289.8" r="2" fill="#1f77b4"/>
<circle cx="919.8" cy="289.1" r="2" fill="#1f77b4"/>
<circle cx="946.0" cy="288.4" r="2" fill="#1f77b4"/>
<text x="841.0" y="227" text-anchor="middle" font-size="12" font-weight="bold">ztrmm</text>
<line x1="736.0" y1="232" x2="736.0" y2="370" stroke="#f4f4f4"/>
<text x="736.0" y="381" text-anchor="middle" font-size="8" fill="#999">8</text>
<line x1="788.5" y1="232" x2="788.5" y2="370" stroke="#f4f4f4"/>
<text x="788.5" y="381" text-anchor="middle" font-size="8" fill="#999">32</text>
<line x1="841.0" y1="232" x2="841.0" y2="370" stroke="#f4f4f4"/>
<text x="841.0" y="381" text-anchor="middle" font-size="8" fill="#999">128</text>
<line x1="867.2" y1="232" x2="867.2" y2="370" stroke="#f4f4f4"/>
<text x="867.2" y="381" text-anchor="middle" font-size="8" fill="#999">256</text>
<line x1="893.5" y1="232" x2="893.5" y2="370" stroke="#f4f4f4"/>
<text x="893.5" y="381" text-anchor="middle" font-size="8" fill="#999">512</text>
<line x1="919.8" y1="232" x2="919.8" y2="370" stroke="#f4f4f4"/>
<text x="919.8" y="381" text-anchor="middle" font-size="8" fill="#999">1k</text>
<line x1="946.0" y1="232" x2="946.0" y2="370" stroke="#f4f4f4"/>
<text x="946.0" y="381" text-anchor="middle" font-size="8" fill="#999">2k</text>
<rect x="46" y="404" width="210" height="138" fill="none" stroke="#e2e2e2"/>
<line x1="46" y1="463.89751155922204" x2="256" y2="463.89751155922204" stroke="#d33" stroke-dasharray="4 3"/>
<text x="42" y="545.0" text-anchor="end" font-size="9" fill="#999">0.5×</text>
<text x="42" y="466.89751155922204" text-anchor="end" font-size="9" fill="#999">1.0×</text>
<text x="42" y="407.1073428803938" text-anchor="end" font-size="9" fill="#999">1.7×</text>
<polygon points="46.0,436.6 98.5,456.3 151.0,473.7 177.2,461.1 203.5,450.8 229.8,447.4 256.0,444.0 256.0,445.2 229.8,448.3 203.5,451.4 177.2,462.0 151.0,475.5 98.5,460.4 46.0,438.5" fill="#d62728" opacity="0.11"/>
<polyline points="46.0,437.5 98.5,458.6 151.0,475.0 177.2,461.4 203.5,451.1 229.8,448.2 256.0,444.8" fill="none" stroke="#d62728" stroke-width="1.6"/>
<circle cx="46.0" cy="437.5" r="2" fill="#d62728"/>
<circle cx="98.5" cy="458.6" r="2" fill="#d62728"/>
<circle cx="151.0" cy="475.0" r="2" fill="#d62728"/>
<circle cx="177.2" cy="461.4" r="2" fill="#d62728"/>
<circle cx="203.5" cy="451.1" r="2" fill="#d62728"/>
<circle cx="229.8" cy="448.2" r="2" fill="#d62728"/>
<circle cx="256.0" cy="444.8" r="2" fill="#d62728"/>
<polygon points="46.0,432.8 98.5,451.4 151.0,413.3 177.2,412.7 203.5,436.7 229.8,442.5 256.0,445.6 256.0,446.6 229.8,443.9 203.5,444.8 177.2,453.7 151.0,452.3 98.5,464.8 46.0,459.4" fill="#2ca02c" opacity="0.11"/>
<polyline points="46.0,438.4 98.5,463.4 151.0,446.7 177.2,453.5 203.5,440.8 229.8,443.3 256.0,446.0" fill="none" stroke="#2ca02c" stroke-width="1.6"/>
<circle cx="46.0" cy="438.4" r="2" fill="#2ca02c"/>
<circle cx="98.5" cy="463.4" r="2" fill="#2ca02c"/>
<circle cx="151.0" cy="446.7" r="2" fill="#2ca02c"/>
<circle cx="177.2" cy="453.5" r="2" fill="#2ca02c"/>
<circle cx="203.5" cy="440.8" r="2" fill="#2ca02c"/>
<circle cx="229.8" cy="443.3" r="2" fill="#2ca02c"/>
<circle cx="256.0" cy="446.0" r="2" fill="#2ca02c"/>
<polygon points="46.0,442.6 98.5,462.1 151.0,451.4 177.2,450.0 203.5,448.3 229.8,450.0 256.0,451.3 256.0,453.6 229.8,451.0 203.5,448.7 177.2,450.5 151.0,454.0 98.5,463.5 46.0,450.3" fill="#1f77b4" opacity="0.11"/>
<polyline points="46.0,444.2 98.5,462.7 151.0,452.8 177.2,450.3 203.5,448.5 229.8,450.4 256.0,452.6" fill="none" stroke="#1f77b4" stroke-width="1.6"/>
<circle cx="46.0" cy="444.2" r="2" fill="#1f77b4"/>
<circle cx="98.5" cy="462.7" r="2" fill="#1f77b4"/>
<circle cx="151.0" cy="452.8" r="2" fill="#1f77b4"/>
<circle cx="177.2" cy="450.3" r="2" fill="#1f77b4"/>
<circle cx="203.5" cy="448.5" r="2" fill="#1f77b4"/>
<circle cx="229.8" cy="450.4" r="2" fill="#1f77b4"/>
<circle cx="256.0" cy="452.6" r="2" fill="#1f77b4"/>
<text x="151.0" y="399" text-anchor="middle" font-size="12" font-weight="bold">ztrsm</text>
<line x1="46.0" y1="404" x2="46.0" y2="542" stroke="#f4f4f4"/>
<text x="46.0" y="553" text-anchor="middle" font-size="8" fill="#999">8</text>
<line x1="98.5" y1="404" x2="98.5" y2="542" stroke="#f4f4f4"/>
<text x="98.5" y="553" text-anchor="middle" font-size="8" fill="#999">32</text>
<line x1="151.0" y1="404" x2="151.0" y2="542" stroke="#f4f4f4"/>
<text x="151.0" y="553" text-anchor="middle" font-size="8" fill="#999">128</text>
<line x1="177.2" y1="404" x2="177.2" y2="542" stroke="#f4f4f4"/>
<text x="177.2" y="553" text-anchor="middle" font-size="8" fill="#999">256</text>
<line x1="203.5" y1="404" x2="203.5" y2="542" stroke="#f4f4f4"/>
<text x="203.5" y="553" text-anchor="middle" font-size="8" fill="#999">512</text>
<line x1="229.8" y1="404" x2="229.8" y2="542" stroke="#f4f4f4"/>
<text x="229.8" y="553" text-anchor="middle" font-size="8" fill="#999">1k</text>
<line x1="256.0" y1="404" x2="256.0" y2="542" stroke="#f4f4f4"/>
<text x="256.0" y="553" text-anchor="middle" font-size="8" fill="#999">2k</text>
<rect x="276" y="404" width="210" height="138" fill="none" stroke="#e2e2e2"/>
<line x1="276" y1="465.2794929153609" x2="486" y2="465.2794929153609" stroke="#d33" stroke-dasharray="4 3"/>
<text x="272" y="545.0" text-anchor="end" font-size="9" fill="#999">0.5×</text>
<text x="272" y="468.2794929153609" text-anchor="end" font-size="9" fill="#999">1.0×</text>
<polygon points="276.0,463.4 328.5,488.3 381.0,466.8 407.2,461.2 433.5,453.3 459.8,449.4 486.0,444.9 486.0,446.2 459.8,450.6 433.5,454.4 407.2,461.4 381.0,467.7 328.5,504.8 276.0,465.2" fill="#d62728" opacity="0.11"/>
<polyline points="276.0,464.5 328.5,492.7 381.0,467.4 407.2,461.3 433.5,454.1 459.8,450.2 486.0,445.8" fill="none" stroke="#d62728" stroke-width="1.6"/>
<circle cx="276.0" cy="464.5" r="2" fill="#d62728"/>
<circle cx="328.5" cy="492.7" r="2" fill="#d62728"/>
<circle cx="381.0" cy="467.4" r="2" fill="#d62728"/>
<circle cx="407.2" cy="461.3" r="2" fill="#d62728"/>
<circle cx="433.5" cy="454.1" r="2" fill="#d62728"/>
<circle cx="459.8" cy="450.2" r="2" fill="#d62728"/>
<circle cx="486.0" cy="445.8" r="2" fill="#d62728"/>
<polygon points="276.0,431.1 328.5,457.8 381.0,457.6 407.2,412.5 433.5,448.7 459.8,448.7 486.0,446.1 486.0,448.9 459.8,450.4 433.5,451.9 407.2,458.3 381.0,464.6 328.5,470.9 276.0,446.1" fill="#2ca02c" opacity="0.11"/>
<polyline points="276.0,435.3 328.5,465.3 381.0,462.6 407.2,457.7 433.5,449.5 459.8,449.8 486.0,448.3" fill="none" stroke="#2ca02c" stroke-width="1.6"/>
<circle cx="276.0" cy="435.3" r="2" fill="#2ca02c"/>
<circle cx="328.5" cy="465.3" r="2" fill="#2ca02c"/>
<circle cx="381.0" cy="462.6" r="2" fill="#2ca02c"/>
<circle cx="407.2" cy="457.7" r="2" fill="#2ca02c"/>
<circle cx="433.5" cy="449.5" r="2" fill="#2ca02c"/>
<circle cx="459.8" cy="449.8" r="2" fill="#2ca02c"/>
<circle cx="486.0" cy="448.3" r="2" fill="#2ca02c"/>
<polygon points="276.0,441.0 328.5,438.9 381.0,450.1 407.2,455.4 433.5,457.0 459.8,456.3 486.0,455.0 486.0,456.5 459.8,457.6 433.5,457.7 407.2,456.4 381.0,452.5 328.5,440.3 276.0,448.8" fill="#1f77b4" opacity="0.11"/>
<polyline points="276.0,444.9 328.5,439.5 381.0,451.7 407.2,456.0 433.5,457.2 459.8,456.9 486.0,455.8" fill="none" stroke="#1f77b4" stroke-width="1.6"/>
<circle cx="276.0" cy="444.9" r="2" fill="#1f77b4"/>
<circle cx="328.5" cy="439.5" r="2" fill="#1f77b4"/>
<circle cx="381.0" cy="451.7" r="2" fill="#1f77b4"/>
<circle cx="407.2" cy="456.0" r="2" fill="#1f77b4"/>
<circle cx="433.5" cy="457.2" r="2" fill="#1f77b4"/>
<circle cx="459.8" cy="456.9" r="2" fill="#1f77b4"/>
<circle cx="486.0" cy="455.8" r="2" fill="#1f77b4"/>
<text x="381.0" y="399" text-anchor="middle" font-size="12" font-weight="bold">ztrmmR</text>
<line x1="276.0" y1="404" x2="276.0" y2="542" stroke="#f4f4f4"/>
<text x="276.0" y="553" text-anchor="middle" font-size="8" fill="#999">8</text>
<line x1="328.5" y1="404" x2="328.5" y2="542" stroke="#f4f4f4"/>
<text x="328.5" y="553" text-anchor="middle" font-size="8" fill="#999">32</text>
<line x1="381.0" y1="404" x2="381.0" y2="542" stroke="#f4f4f4"/>
<text x="381.0" y="553" text-anchor="middle" font-size="8" fill="#999">128</text>
<line x1="407.2" y1="404" x2="407.2" y2="542" stroke="#f4f4f4"/>
<text x="407.2" y="553" text-anchor="middle" font-size="8" fill="#999">256</text>
<line x1="433.5" y1="404" x2="433.5" y2="542" stroke="#f4f4f4"/>
<text x="433.5" y="553" text-anchor="middle" font-size="8" fill="#999">512</text>
<line x1="459.8" y1="404" x2="459.8" y2="542" stroke="#f4f4f4"/>
<text x="459.8" y="553" text-anchor="middle" font-size="8" fill="#999">1k</text>
<line x1="486.0" y1="404" x2="486.0" y2="542" stroke="#f4f4f4"/>
<text x="486.0" y="553" text-anchor="middle" font-size="8" fill="#999">2k</text>
<rect x="506" y="404" width="210" height="138" fill="none" stroke="#e2e2e2"/>
<line x1="506" y1="487.12126350205955" x2="716" y2="487.12126350205955" stroke="#d33" stroke-dasharray="4 3"/>
<text x="502" y="545.0" text-anchor="end" font-size="9" fill="#999">0.5×</text>
<text x="502" y="490.12126350205955" text-anchor="end" font-size="9" fill="#999">1.0×</text>
<polygon points="506.0,443.5 558.5,451.4 611.0,481.0 637.2,478.7 663.5,476.8 689.8,477.1 716.0,472.8 716.0,474.0 689.8,477.9 663.5,477.3 637.2,479.1 611.0,481.5 558.5,455.3 506.0,445.1" fill="#d62728" opacity="0.11"/>
<polyline points="506.0,444.1 558.5,453.1 611.0,481.2 637.2,478.8 663.5,477.1 689.8,477.7 716.0,473.6" fill="none" stroke="#d62728" stroke-width="1.6"/>
<circle cx="506.0" cy="444.1" r="2" fill="#d62728"/>
<circle cx="558.5" cy="453.1" r="2" fill="#d62728"/>
<circle cx="611.0" cy="481.2" r="2" fill="#d62728"/>
<circle cx="637.2" cy="478.8" r="2" fill="#d62728"/>
<circle cx="663.5" cy="477.1" r="2" fill="#d62728"/>
<circle cx="689.8" cy="477.7" r="2" fill="#d62728"/>
<circle cx="716.0" cy="473.6" r="2" fill="#d62728"/>
<polygon points="506.0,428.0 558.5,439.7 611.0,440.4 637.2,410.1 663.5,465.4 689.8,470.4 716.0,473.5 716.0,475.1 689.8,471.7 663.5,469.5 637.2,473.7 611.0,466.1 558.5,454.3 506.0,443.9" fill="#2ca02c" opacity="0.11"/>
<polyline points="506.0,441.1 558.5,445.2 611.0,448.3 637.2,473.3 663.5,466.1 689.8,471.3 716.0,474.8" fill="none" stroke="#2ca02c" stroke-width="1.6"/>
<circle cx="506.0" cy="441.1" r="2" fill="#2ca02c"/>
<circle cx="558.5" cy="445.2" r="2" fill="#2ca02c"/>
<circle cx="611.0" cy="448.3" r="2" fill="#2ca02c"/>
<circle cx="637.2" cy="473.3" r="2" fill="#2ca02c"/>
<circle cx="663.5" cy="466.1" r="2" fill="#2ca02c"/>
<circle cx="689.8" cy="471.3" r="2" fill="#2ca02c"/>
<circle cx="716.0" cy="474.8" r="2" fill="#2ca02c"/>
<polygon points="506.0,432.2 558.5,449.3 611.0,453.6 637.2,464.4 663.5,471.9 689.8,478.5 716.0,478.4 716.0,481.0 689.8,478.9 663.5,472.3 637.2,465.6 611.0,457.0 558.5,450.1 506.0,437.7" fill="#1f77b4" opacity="0.11"/>
<polyline points="506.0,434.7 558.5,449.7 611.0,454.8 637.2,465.2 663.5,472.2 689.8,478.7 716.0,480.4" fill="none" stroke="#1f77b4" stroke-width="1.6"/>
<circle cx="506.0" cy="434.7" r="2" fill="#1f77b4"/>
<circle cx="558.5" cy="449.7" r="2" fill="#1f77b4"/>
<circle cx="611.0" cy="454.8" r="2" fill="#1f77b4"/>
<circle cx="637.2" cy="465.2" r="2" fill="#1f77b4"/>
<circle cx="663.5" cy="472.2" r="2" fill="#1f77b4"/>
<circle cx="689.8" cy="478.7" r="2" fill="#1f77b4"/>
<circle cx="716.0" cy="480.4" r="2" fill="#1f77b4"/>
<text x="611.0" y="399" text-anchor="middle" font-size="12" font-weight="bold">ztrsmR</text>
<line x1="506.0" y1="404" x2="506.0" y2="542" stroke="#f4f4f4"/>
<text x="506.0" y="553" text-anchor="middle" font-size="8" fill="#999">8</text>
<line x1="558.5" y1="404" x2="558.5" y2="542" stroke="#f4f4f4"/>
<text x="558.5" y="553" text-anchor="middle" font-size="8" fill="#999">32</text>
<line x1="611.0" y1="404" x2="611.0" y2="542" stroke="#f4f4f4"/>
<text x="611.0" y="553" text-anchor="middle" font-size="8" fill="#999">128</text>
<line x1="637.2" y1="404" x2="637.2" y2="542" stroke="#f4f4f4"/>
<text x="637.2" y="553" text-anchor="middle" font-size="8" fill="#999">256</text>
<line x1="663.5" y1="404" x2="663.5" y2="542" stroke="#f4f4f4"/>
<text x="663.5" y="553" text-anchor="middle" font-size="8" fill="#999">512</text>
<line x1="689.8" y1="404" x2="689.8" y2="542" stroke="#f4f4f4"/>
<text x="689.8" y="553" text-anchor="middle" font-size="8" fill="#999">1k</text>
<line x1="716.0" y1="404" x2="716.0" y2="542" stroke="#f4f4f4"/>
<text x="716.0" y="553" text-anchor="middle" font-size="8" fill="#999">2k</text>
</svg>
