<svg xmlns="http://www.w3.org/2000/svg" width="900" height="440" font-family="sans-serif">
<rect width="900" height="440" fill="white"/>
<text x="450.0" y="28" text-anchor="middle" font-size="18" font-weight="bold">BLAS-1: PureBLAS / OpenBLAS (AVX-512 (Zen4), 1 thread, Float64)</text>
<line x1="60" y1="358.0" x2="880" y2="358.0" stroke="#eee"/>
<text x="52" y="362.0" text-anchor="end" font-size="11" fill="#666">0×</text>
<line x1="60" y1="349.9548282166938" x2="880" y2="349.9548282166938" stroke="#eee"/>
<text x="52" y="353.9548282166938" text-anchor="end" font-size="11" fill="#666">0.5×</text>
<line x1="60" y1="341.9096564333875" x2="880" y2="341.9096564333875" stroke="#eee"/>
<text x="52" y="345.9096564333875" text-anchor="end" font-size="11" fill="#666">1×</text>
<line x1="60" y1="333.86448465008124" x2="880" y2="333.86448465008124" stroke="#eee"/>
<text x="52" y="337.86448465008124" text-anchor="end" font-size="11" fill="#666">1.5×</text>
<line x1="60" y1="341.9096564333875" x2="880" y2="341.9096564333875" stroke="#888" stroke-width="1"/>
<line x1="60" y1="342.553270176052" x2="880" y2="342.553270176052" stroke="#d33" stroke-width="1.5" stroke-dasharray="6 4"/>
<text x="880" y="337.553270176052" text-anchor="end" font-size="11" fill="#d33">0.96× gate</text>
<polygon points="128.5,347.4 128.7,347.2 128.9,347.0 129.2,346.9 129.6,346.7 130.0,346.5 130.4,346.4 130.7,346.2 130.7,346.0 130.6,345.9 130.4,345.7 130.2,345.6 129.9,345.4 129.7,345.2 129.7,345.1 129.7,344.9 129.8,344.7 130.0,344.6 130.3,344.4 130.8,344.2 131.5,344.1 132.4,343.9 133.6,343.7 135.0,343.6 136.7,343.4 138.8,343.3 141.7,343.1 145.5,342.9 150.4,342.8 156.5,342.6 163.5,342.4 170.9,342.3 177.6,342.1 182.9,341.9 185.7,341.8 185.7,341.6 183.2,341.5 178.9,341.3 173.9,341.1 169.1,341.0 165.2,340.8 162.2,340.6 159.8,340.5 157.6,340.3 155.1,340.1 152.0,340.0 148.6,339.8 145.0,339.6 141.7,339.5 138.8,339.3 136.4,339.2 134.5,339.0 132.9,338.8 131.7,338.7 130.8,338.5 130.2,338.3 129.9,338.2 129.8,338.0 129.8,337.8 129.9,337.7 130.0,337.5 130.2,337.3 130.2,337.2 130.2,337.0 130.1,336.9 129.9,336.7 129.6,336.5 129.2,336.4 129.0,336.2 128.7,336.0 128.6,335.9 128.4,335.7 128.2,335.7 128.1,335.9 127.9,336.0 127.7,336.2 127.4,336.4 127.1,336.5 126.8,336.7 126.6,336.9 126.5,337.0 126.4,337.2 126.5,337.3 126.6,337.5 126.8,337.7 126.9,337.8 126.9,338.0 126.7,338.2 126.4,338.3 125.8,338.5 125.0,338.7 123.8,338.8 122.2,339.0 120.3,339.2 117.9,339.3 115.0,339.5 111.6,339.6 108.1,339.8 104.7,340.0 101.6,340.1 99.0,340.3 96.8,340.5 94.5,340.6 91.5,340.8 87.5,341.0 82.7,341.1 77.7,341.3 73.4,341.5 70.9,341.6 71.0,341.8 73.8,341.9 79.0,342.1 85.8,342.3 93.1,342.4 100.1,342.6 106.2,342.8 111.1,342.9 115.0,343.1 117.8,343.3 120.0,343.4 121.7,343.6 123.1,343.7 124.2,343.9 125.1,344.1 125.8,344.2 126.3,344.4 126.7,344.6 126.9,344.7 127.0,344.9 127.0,345.1 126.9,345.2 126.8,345.4 126.5,345.6 126.2,345.7 126.0,345.9 125.9,346.0 126.0,346.2 126.3,346.4 126.6,346.5 127.1,346.7 127.5,346.9 127.8,347.0 128.0,347.2 128.2,347.4" fill="#2a8" opacity="0.5" stroke="#2a8" stroke-width="1"/>
<line x1="71.0" y1="341.60349871150436" x2="185.6" y2="341.60349871150436" stroke="#114" stroke-width="2"/>
<circle cx="128.33333333333331" cy="341.9070279124158" r="2.4" fill="#114"/>
<text x="128.33333333333331" y="330.8624882042288" text-anchor="middle" font-size="11">1.02</text>
<text x="128.33333333333331" y="376" text-anchor="middle" font-size="12">axpy</text>
<polygon points="265.0,349.6 265.0,349.4 265.1,349.2 265.2,349.0 265.3,348.7 265.5,348.5 265.7,348.3 265.7,348.1 265.7,347.9 265.5,347.7 265.3,347.5 265.2,347.3 265.1,347.0 265.0,346.8 265.0,346.6 265.0,346.4 265.0,346.2 265.0,346.0 265.0,345.8 265.0,345.6 265.0,345.4 265.0,345.1 265.1,344.9 265.4,344.7 265.8,344.5 266.5,344.3 267.6,344.1 269.2,343.9 271.4,343.7 274.4,343.5 278.6,343.2 284.1,343.0 291.2,342.8 299.6,342.6 308.4,342.4 316.2,342.2 321.3,342.0 322.4,341.8 319.2,341.5 312.7,341.3 304.4,341.1 295.8,340.9 288.3,340.7 282.3,340.5 278.0,340.3 275.3,340.1 273.6,339.9 272.5,339.6 271.4,339.4 270.2,339.2 269.0,339.0 267.9,338.8 267.1,338.6 266.7,338.4 266.5,338.2 266.6,338.0 266.7,337.7 266.9,337.5 267.1,337.3 267.2,337.1 267.1,336.9 266.9,336.7 266.7,336.5 266.4,336.3 266.1,336.1 265.9,335.8 265.6,335.6 265.4,335.4 265.2,335.2 265.1,335.0 265.0,334.8 265.0,334.6 265.0,334.6 265.0,334.8 264.9,335.0 264.8,335.2 264.6,335.4 264.4,335.6 264.1,335.8 263.9,336.1 263.6,336.3 263.3,336.5 263.1,336.7 262.9,336.9 262.8,337.1 262.9,337.3 263.1,337.5 263.3,337.7 263.4,338.0 263.5,338.2 263.3,338.4 262.9,338.6 262.1,338.8 261.0,339.0 259.8,339.2 258.6,339.4 257.5,339.6 256.4,339.9 254.7,340.1 252.0,340.3 247.7,340.5 241.7,340.7 234.2,340.9 225.6,341.1 217.3,341.3 210.8,341.5 207.6,341.8 208.7,342.0 213.8,342.2 221.6,342.4 230.4,342.6 238.8,342.8 245.9,343.0 251.4,343.2 255.6,343.5 258.6,343.7 260.8,343.9 262.4,344.1 263.5,344.3 264.2,344.5 264.6,344.7 264.9,344.9 265.0,345.1 265.0,345.4 265.0,345.6 265.0,345.8 265.0,346.0 265.0,346.2 265.0,346.4 265.0,346.6 265.0,346.8 264.9,347.0 264.8,347.3 264.7,347.5 264.5,347.7 264.3,347.9 264.3,348.1 264.3,348.3 264.5,348.5 264.7,348.7 264.8,349.0 264.9,349.2 265.0,349.4 265.0,349.6" fill="#2a8" opacity="0.5" stroke="#2a8" stroke-width="1"/>
<line x1="207.6" y1="341.76727605360935" x2="322.4" y2="341.76727605360935" stroke="#114" stroke-width="2"/>
<circle cx="265.0" cy="342.1098759897609" r="2.4" fill="#114"/>
<text x="265.0" y="330.0491231732188" text-anchor="middle" font-size="11">1.01</text>
<text x="265.0" y="376" text-anchor="middle" font-size="12">dot</text>
<polygon points="402.7,351.7 403.3,347.4 404.3,343.2 405.7,338.9 407.5,334.7 409.9,330.4 412.8,326.2 416.2,321.9 420.0,317.7 424.2,313.4 428.6,309.2 433.3,304.9 438.0,300.7 442.7,296.5 447.2,292.2 451.3,288.0 454.8,283.7 457.4,279.5 458.8,275.2 459.1,271.0 458.0,266.7 455.7,262.5 452.4,258.2 448.3,254.0 443.9,249.7 439.4,245.5 435.0,241.2 431.0,237.0 427.5,232.7 424.4,228.5 421.7,224.2 419.4,220.0 417.4,215.7 415.8,211.5 414.5,207.2 413.4,203.0 412.6,198.7 411.9,194.5 411.4,190.2 411.1,186.0 410.7,181.7 410.5,177.5 410.2,173.2 409.9,169.0 409.6,164.7 409.1,160.5 408.6,156.2 407.9,152.0 407.1,147.7 406.3,143.5 405.5,139.2 404.8,135.0 404.2,130.7 403.7,126.5 403.4,122.2 403.1,118.0 403.0,113.7 402.9,109.5 402.9,105.2 402.9,101.0 403.0,96.7 403.0,92.5 403.1,88.2 403.2,84.0 403.3,79.7 403.3,75.5 403.2,71.2 403.2,67.0 403.0,62.7 402.8,58.5 402.6,54.2 402.4,50.0 400.9,50.0 400.7,54.2 400.5,58.5 400.3,62.7 400.2,67.0 400.1,71.2 400.1,75.5 400.1,79.7 400.1,84.0 400.2,88.2 400.3,92.5 400.4,96.7 400.4,101.0 400.4,105.2 400.4,109.5 400.3,113.7 400.2,118.0 400.0,122.2 399.6,126.5 399.1,130.7 398.5,135.0 397.8,139.2 397.0,143.5 396.2,147.7 395.5,152.0 394.8,156.2 394.2,160.5 393.8,164.7 393.4,169.0 393.1,173.2 392.9,177.5 392.6,181.7 392.3,186.0 391.9,190.2 391.4,194.5 390.8,198.7 389.9,203.0 388.8,207.2 387.5,211.5 385.9,215.7 383.9,220.0 381.7,224.2 379.0,228.5 375.9,232.7 372.3,237.0 368.3,241.2 363.9,245.5 359.4,249.7 355.0,254.0 351.0,258.2 347.6,262.5 345.3,266.7 344.3,271.0 344.5,275.2 346.0,279.5 348.6,283.7 352.1,288.0 356.2,292.2 360.7,296.5 365.4,300.7 370.1,304.9 374.7,309.2 379.2,313.4 383.3,317.7 387.2,321.9 390.5,326.2 393.4,330.4 395.8,334.7 397.6,338.9 399.0,343.2 400.0,347.4 400.7,351.7" fill="#2a8" opacity="0.5" stroke="#2a8" stroke-width="1"/>
<line x1="344.9" y1="267.89567054020665" x2="458.4" y2="267.89567054020665" stroke="#114" stroke-width="2"/>
<circle cx="401.66666666666663" cy="300.6828571534286" r="2.4" fill="#114"/>
<text x="401.66666666666663" y="61.43396226415098" text-anchor="middle" font-size="11">5.60</text>
<text x="401.66666666666663" y="376" text-anchor="middle" font-size="12">nrm2</text>
<polygon points="538.6,346.4 538.7,346.2 538.8,346.1 539.0,345.9 539.2,345.8 539.5,345.6 539.7,345.5 540.1,345.3 540.4,345.2 540.8,345.0 541.3,344.9 541.9,344.7 542.6,344.6 543.5,344.4 544.6,344.3 546.0,344.1 547.6,344.0 549.7,343.8 552.3,343.7 555.5,343.5 559.2,343.4 563.7,343.2 568.6,343.1 574.0,342.9 579.4,342.8 584.7,342.6 589.2,342.5 592.8,342.3 595.0,342.2 595.7,342.0 595.1,341.9 593.2,341.7 590.6,341.6 587.5,341.4 584.4,341.3 581.6,341.1 579.1,341.0 577.1,340.8 575.2,340.7 573.4,340.5 571.6,340.4 569.5,340.2 567.3,340.1 564.8,339.9 562.2,339.8 559.5,339.6 557.0,339.5 554.7,339.3 552.7,339.2 551.0,339.0 549.6,338.9 548.6,338.7 547.9,338.6 547.5,338.4 547.3,338.3 547.2,338.1 547.0,338.0 546.7,337.8 546.3,337.7 545.7,337.5 545.1,337.4 544.3,337.2 543.6,337.1 542.8,336.9 542.1,336.8 541.4,336.6 540.7,336.5 540.2,336.3 539.7,336.2 539.3,336.0 539.0,335.9 538.8,335.8 537.9,335.8 537.7,335.9 537.4,336.0 537.0,336.2 536.5,336.3 535.9,336.5 535.3,336.6 534.6,336.8 533.9,336.9 533.1,337.1 532.3,337.2 531.6,337.4 530.9,337.5 530.4,337.7 530.0,337.8 529.7,338.0 529.5,338.1 529.4,338.3 529.1,338.4 528.7,338.6 528.1,338.7 527.1,338.9 525.7,339.0 524.0,339.2 522.0,339.3 519.7,339.5 517.1,339.6 514.5,339.8 511.9,339.9 509.4,340.1 507.1,340.2 505.1,340.4 503.2,340.5 501.5,340.7 499.6,340.8 497.5,341.0 495.1,341.1 492.2,341.3 489.2,341.4 486.1,341.6 483.4,341.7 481.6,341.9 480.9,342.0 481.7,342.2 483.9,342.3 487.4,342.5 492.0,342.6 497.2,342.8 502.7,342.9 508.0,343.1 513.0,343.2 517.4,343.4 521.2,343.5 524.4,343.7 526.9,343.8 529.0,344.0 530.7,344.1 532.1,344.3 533.1,344.4 534.0,344.6 534.8,344.7 535.4,344.9 535.8,345.0 536.3,345.2 536.6,345.3 536.9,345.5 537.2,345.6 537.4,345.8 537.7,345.9 537.8,346.1 538.0,346.2 538.1,346.4" fill="#2a8" opacity="0.5" stroke="#2a8" stroke-width="1"/>
<line x1="483.5" y1="341.72272010159446" x2="593.2" y2="341.72272010159446" stroke="#114" stroke-width="2"/>
<circle cx="538.3333333333333" cy="342.2569672742785" r="2.4" fill="#114"/>
<text x="538.3333333333333" y="330.80284522943526" text-anchor="middle" font-size="11">1.01</text>
<text x="538.3333333333333" y="376" text-anchor="middle" font-size="12">asum</text>
<polygon points="675.0,347.2 675.1,347.0 675.1,346.8 675.3,346.5 675.4,346.3 675.6,346.0 675.7,345.8 675.8,345.6 675.8,345.3 675.7,345.1 675.7,344.9 675.7,344.6 675.8,344.4 675.8,344.1 675.8,343.9 675.9,343.7 676.0,343.4 676.3,343.2 677.2,343.0 678.7,342.7 681.0,342.5 684.2,342.2 688.3,342.0 693.5,341.8 699.9,341.5 707.5,341.3 715.8,341.1 723.7,340.8 729.7,340.6 732.4,340.4 731.2,340.1 726.5,339.9 719.7,339.6 712.6,339.4 706.4,339.2 701.7,338.9 698.3,338.7 695.6,338.5 693.0,338.2 690.3,338.0 687.6,337.7 685.1,337.5 683.0,337.3 681.4,337.0 680.2,336.8 679.2,336.6 678.4,336.3 677.8,336.1 677.3,335.8 676.9,335.6 676.7,335.4 676.6,335.1 676.7,334.9 676.6,334.7 676.5,334.4 676.3,334.2 676.0,333.9 675.7,333.7 675.5,333.5 675.4,333.2 675.4,333.0 675.4,332.8 675.6,332.5 675.7,332.3 675.8,332.0 675.7,331.8 675.6,331.6 675.4,331.3 675.3,331.1 675.1,330.9 675.1,330.6 675.0,330.4 675.0,330.4 674.9,330.6 674.9,330.9 674.7,331.1 674.6,331.3 674.4,331.6 674.3,331.8 674.2,332.0 674.3,332.3 674.4,332.5 674.6,332.8 674.6,333.0 674.6,333.2 674.5,333.5 674.3,333.7 674.0,333.9 673.7,334.2 673.5,334.4 673.4,334.7 673.3,334.9 673.4,335.1 673.3,335.4 673.1,335.6 672.7,335.8 672.2,336.1 671.6,336.3 670.8,336.6 669.8,336.8 668.6,337.0 667.0,337.3 664.9,337.5 662.4,337.7 659.7,338.0 657.0,338.2 654.4,338.5 651.7,338.7 648.3,338.9 643.6,339.2 637.4,339.4 630.3,339.6 623.5,339.9 618.8,340.1 617.6,340.4 620.3,340.6 626.3,340.8 634.2,341.1 642.5,341.3 650.1,341.5 656.5,341.8 661.7,342.0 665.8,342.2 669.0,342.5 671.3,342.7 672.8,343.0 673.7,343.2 674.0,343.4 674.1,343.7 674.2,343.9 674.2,344.1 674.2,344.4 674.3,344.6 674.3,344.9 674.3,345.1 674.2,345.3 674.2,345.6 674.3,345.8 674.4,346.0 674.6,346.3 674.7,346.5 674.9,346.8 674.9,347.0 675.0,347.2" fill="#2a8" opacity="0.5" stroke="#2a8" stroke-width="1"/>
<line x1="618.1" y1="340.1784803472649" x2="731.9" y2="340.1784803472649" stroke="#114" stroke-width="2"/>
<circle cx="675.0" cy="340.4745256158104" r="2.4" fill="#114"/>
<text x="675.0" y="326.0423029303563" text-anchor="middle" font-size="11">1.11</text>
<text x="675.0" y="376" text-anchor="middle" font-size="12">scal</text>
<polygon points="813.3,350.6 814.0,350.2 814.9,349.8 816.0,349.5 817.3,349.1 818.8,348.7 820.5,348.3 822.5,348.0 824.6,347.6 827.0,347.2 829.4,346.9 832.0,346.5 834.7,346.1 837.5,345.8 840.4,345.4 843.3,345.0 846.3,344.6 849.2,344.3 852.0,343.9 854.6,343.5 857.1,343.2 859.3,342.8 861.2,342.4 862.8,342.0 864.1,341.7 865.1,341.3 866.0,340.9 866.7,340.6 867.3,340.2 867.8,339.8 868.3,339.5 868.7,339.1 869.0,338.7 869.1,338.3 869.0,338.0 868.7,337.6 868.2,337.2 867.5,336.9 866.8,336.5 866.0,336.1 865.2,335.8 864.3,335.4 863.5,335.0 862.7,334.6 861.7,334.3 860.6,333.9 859.2,333.5 857.5,333.2 855.5,332.8 853.0,332.4 850.1,332.1 846.9,331.7 843.4,331.3 839.9,330.9 836.4,330.6 833.0,330.2 829.9,329.8 827.3,329.5 825.0,329.1 823.1,328.7 821.6,328.4 820.4,328.0 819.5,327.6 818.6,327.2 817.9,326.9 817.2,326.5 816.4,326.1 815.7,325.8 815.0,325.4 814.3,325.0 813.7,324.6 813.2,324.3 810.1,324.3 809.6,324.6 809.0,325.0 808.3,325.4 807.6,325.8 806.9,326.1 806.2,326.5 805.4,326.9 804.7,327.2 803.9,327.6 802.9,328.0 801.7,328.4 800.2,328.7 798.4,329.1 796.1,329.5 793.4,329.8 790.3,330.2 787.0,330.6 783.4,330.9 779.9,331.3 776.4,331.7 773.2,332.1 770.4,332.4 767.9,332.8 765.8,333.2 764.1,333.5 762.7,333.9 761.6,334.3 760.7,334.6 759.8,335.0 759.0,335.4 758.2,335.8 757.4,336.1 756.6,336.5 755.8,336.9 755.2,337.2 754.7,337.6 754.4,338.0 754.3,338.3 754.4,338.7 754.6,339.1 755.0,339.5 755.5,339.8 756.0,340.2 756.7,340.6 757.4,340.9 758.2,341.3 759.3,341.7 760.6,342.0 762.2,342.4 764.1,342.8 766.3,343.2 768.7,343.5 771.4,343.9 774.2,344.3 777.1,344.6 780.0,345.0 782.9,345.4 785.8,345.8 788.6,346.1 791.3,346.5 793.9,346.9 796.4,347.2 798.7,347.6 800.8,348.0 802.8,348.3 804.5,348.7 806.1,349.1 807.4,349.5 808.4,349.8 809.3,350.2 810.0,350.6" fill="#2a8" opacity="0.5" stroke="#2a8" stroke-width="1"/>
<line x1="754.3" y1="338.2236929083514" x2="869.1" y2="338.2236929083514" stroke="#114" stroke-width="2"/>
<circle cx="811.6666666666666" cy="340.52241304018787" r="2.4" fill="#114"/>
<text x="811.6666666666666" y="320.8478200837903" text-anchor="middle" font-size="11">1.23</text>
<text x="811.6666666666666" y="376" text-anchor="middle" font-size="12">iamax</text>
<text x="450.0" y="428" text-anchor="middle" font-size="11" fill="#666">violin = ratio distribution over sizes · line = median · dark dot = worst size · green = every size ≥ gate</text>
</svg>
