<svg xmlns="http://www.w3.org/2000/svg" width="900" height="440" font-family="sans-serif">
<rect width="900" height="440" fill="white"/>
<text x="450.0" y="28" text-anchor="middle" font-size="18" font-weight="bold">BLAS-2: PureBLAS / OpenBLAS (AVX-512, 1 thread, Float64)</text>
<line x1="60" y1="358.0" x2="880" y2="358.0" stroke="#eee"/>
<text x="52" y="362.0" text-anchor="end" font-size="11" fill="#666">0×</text>
<line x1="60" y1="294.92674862957585" x2="880" y2="294.92674862957585" stroke="#eee"/>
<text x="52" y="298.92674862957585" text-anchor="end" font-size="11" fill="#666">0.5×</text>
<line x1="60" y1="231.85349725915177" x2="880" y2="231.85349725915177" stroke="#eee"/>
<text x="52" y="235.85349725915177" text-anchor="end" font-size="11" fill="#666">1×</text>
<line x1="60" y1="168.78024588872768" x2="880" y2="168.78024588872768" stroke="#eee"/>
<text x="52" y="172.78024588872768" text-anchor="end" font-size="11" fill="#666">1.5×</text>
<line x1="60" y1="231.85349725915177" x2="880" y2="231.85349725915177" stroke="#888" stroke-width="1"/>
<line x1="60" y1="236.89935736878576" x2="880" y2="236.89935736878576" stroke="#d33" stroke-width="1.5" stroke-dasharray="6 4"/>
<text x="880" y="231.89935736878576" text-anchor="end" font-size="11" fill="#d33">0.96× gate</text>
<polygon points="111.0,263.7 112.7,260.6 114.8,257.6 117.3,254.6 120.0,251.6 123.1,248.6 126.3,245.6 129.6,242.6 132.8,239.6 135.9,236.6 138.5,233.6 140.8,230.5 142.4,227.5 143.5,224.5 143.8,221.5 143.5,218.5 142.6,215.5 141.3,212.5 139.5,209.5 137.5,206.5 135.3,203.5 133.0,200.5 130.8,197.4 128.7,194.4 126.6,191.4 124.7,188.4 122.9,185.4 121.2,182.4 119.5,179.4 117.9,176.4 116.3,173.4 114.9,170.4 113.5,167.4 112.2,164.3 111.1,161.3 110.1,158.3 109.3,155.3 108.7,152.3 108.3,149.3 108.0,146.3 107.9,143.3 107.9,140.3 108.0,137.3 108.3,134.3 108.6,131.2 109.0,128.2 109.4,125.2 109.9,122.2 110.3,119.2 110.8,116.2 111.2,113.2 111.6,110.2 112.0,107.2 112.2,104.2 112.4,101.2 112.5,98.1 112.5,95.1 112.3,92.1 112.1,89.1 111.7,86.1 111.3,83.1 110.8,80.1 110.3,77.1 109.8,74.1 109.2,71.1 108.7,68.1 108.2,65.0 107.7,62.0 107.3,59.0 107.0,56.0 106.7,53.0 106.4,50.0 104.7,50.0 104.4,53.0 104.1,56.0 103.8,59.0 103.4,62.0 102.9,65.0 102.4,68.1 101.9,71.1 101.4,74.1 100.8,77.1 100.3,80.1 99.8,83.1 99.4,86.1 99.0,89.1 98.8,92.1 98.6,95.1 98.6,98.1 98.7,101.2 98.9,104.2 99.1,107.2 99.5,110.2 99.9,113.2 100.3,116.2 100.8,119.2 101.3,122.2 101.7,125.2 102.1,128.2 102.5,131.2 102.8,134.3 103.1,137.3 103.2,140.3 103.2,143.3 103.1,146.3 102.9,149.3 102.4,152.3 101.8,155.3 101.0,158.3 100.0,161.3 98.9,164.3 97.6,167.4 96.3,170.4 94.8,173.4 93.2,176.4 91.6,179.4 89.9,182.4 88.2,185.4 86.4,188.4 84.5,191.4 82.4,194.4 80.3,197.4 78.1,200.5 75.9,203.5 73.7,206.5 71.6,209.5 69.8,212.5 68.5,215.5 67.6,218.5 67.3,221.5 67.6,224.5 68.7,227.5 70.3,230.5 72.6,233.6 75.3,236.6 78.3,239.6 81.5,242.6 84.8,245.6 88.0,248.6 91.1,251.6 93.9,254.6 96.3,257.6 98.4,260.6 100.2,263.7" fill="#d33" opacity="0.5" stroke="#d33" stroke-width="1"/>
<line x1="68.1" y1="216.42103775832555" x2="143.0" y2="216.42103775832555" stroke="#114" stroke-width="2"/>
<circle cx="105.55555555555556" cy="237.53058774055364" r="2.4" fill="#114"/>
<text x="105.55555555555556" y="61.43396226415098" text-anchor="middle" font-size="11">1.12</text>
<text x="105.55555555555556" y="376" text-anchor="middle" font-size="12">gemvN</text>
<polygon points="196.7,256.9 196.9,254.3 197.2,251.8 197.8,249.2 199.1,246.7 201.2,244.1 204.5,241.6 209.2,239.1 215.1,236.5 221.6,234.0 227.8,231.4 232.5,228.9 234.9,226.3 234.7,223.8 232.3,221.2 228.3,218.7 223.9,216.2 219.6,213.6 216.1,211.1 213.5,208.5 212.1,206.0 211.7,203.4 211.8,200.9 211.9,198.3 211.4,195.8 209.9,193.3 207.6,190.7 204.9,188.2 202.4,185.6 200.4,183.1 199.0,180.5 198.3,178.0 197.9,175.4 197.8,172.9 197.8,170.4 197.8,167.8 197.7,165.3 197.6,162.7 197.4,160.2 197.2,157.6 197.0,155.1 196.8,152.5 196.8,150.0 196.7,147.5 196.7,144.9 196.7,142.4 196.7,139.8 196.7,137.3 196.7,134.7 196.7,132.2 196.7,129.6 196.7,127.1 196.7,124.6 196.7,122.0 196.7,119.5 196.7,116.9 196.7,114.4 196.7,111.8 196.7,109.3 196.8,106.7 196.8,104.2 196.9,101.7 197.1,99.1 197.1,96.6 197.2,94.0 197.2,91.5 197.1,88.9 197.0,86.4 196.9,83.8 196.8,81.3 196.7,78.8 196.7,76.2 196.6,76.2 196.6,78.8 196.6,81.3 196.5,83.8 196.4,86.4 196.3,88.9 196.2,91.5 196.2,94.0 196.2,96.6 196.3,99.1 196.4,101.7 196.5,104.2 196.6,106.7 196.6,109.3 196.6,111.8 196.7,114.4 196.7,116.9 196.7,119.5 196.7,122.0 196.7,124.6 196.7,127.1 196.7,129.6 196.7,132.2 196.7,134.7 196.7,137.3 196.7,139.8 196.7,142.4 196.7,144.9 196.6,147.5 196.6,150.0 196.5,152.5 196.4,155.1 196.2,157.6 196.0,160.2 195.8,162.7 195.6,165.3 195.6,167.8 195.5,170.4 195.5,172.9 195.4,175.4 195.0,178.0 194.3,180.5 193.0,183.1 191.0,185.6 188.4,188.2 185.7,190.7 183.4,193.3 181.9,195.8 181.4,198.3 181.5,200.9 181.7,203.4 181.2,206.0 179.8,208.5 177.3,211.1 173.7,213.6 169.5,216.2 165.0,218.7 161.1,221.2 158.6,223.8 158.4,226.3 160.8,228.9 165.6,231.4 171.7,234.0 178.2,236.5 184.1,239.1 188.8,241.6 192.1,244.1 194.3,246.7 195.5,249.2 196.1,251.8 196.5,254.3 196.6,256.9" fill="#2a8" opacity="0.5" stroke="#2a8" stroke-width="1"/>
<line x1="159.5" y1="222.605624532102" x2="233.8" y2="222.605624532102" stroke="#114" stroke-width="2"/>
<circle cx="196.66666666666669" cy="232.6305148652808" r="2.4" fill="#114"/>
<text x="196.66666666666669" y="87.89615563554125" text-anchor="middle" font-size="11">1.07</text>
<text x="196.66666666666669" y="376" text-anchor="middle" font-size="12">gemvT</text>
<polygon points="287.9,245.2 287.9,244.3 288.0,243.4 288.1,242.4 288.2,241.5 288.3,240.6 288.5,239.7 288.7,238.8 289.1,237.9 289.6,237.0 290.4,236.0 291.7,235.1 293.6,234.2 296.0,233.3 299.0,232.4 302.4,231.5 306.0,230.6 309.7,229.7 313.2,228.7 316.5,227.8 319.4,226.9 321.9,226.0 323.9,225.1 325.3,224.2 326.0,223.3 326.0,222.4 325.1,221.4 323.6,220.5 321.3,219.6 318.6,218.7 315.5,217.8 312.3,216.9 309.1,216.0 306.0,215.0 303.2,214.1 300.6,213.2 298.4,212.3 296.5,211.4 294.9,210.5 293.6,209.6 292.6,208.7 292.0,207.7 291.8,206.8 291.8,205.9 292.1,205.0 292.5,204.1 292.8,203.2 293.0,202.3 292.9,201.3 292.6,200.4 292.1,199.5 291.5,198.6 290.9,197.7 290.3,196.8 289.8,195.9 289.4,195.0 289.1,194.0 288.9,193.1 288.7,192.2 288.6,191.3 288.6,190.4 288.5,189.5 288.5,188.6 288.5,187.7 288.4,186.7 288.4,185.8 288.3,184.9 288.2,184.0 288.1,183.1 288.0,182.2 287.9,181.3 287.9,180.3 287.7,180.3 287.6,181.3 287.6,182.2 287.5,183.1 287.4,184.0 287.3,184.9 287.2,185.8 287.1,186.7 287.1,187.7 287.1,188.6 287.0,189.5 287.0,190.4 286.9,191.3 286.8,192.2 286.7,193.1 286.4,194.0 286.2,195.0 285.8,195.9 285.3,196.8 284.7,197.7 284.1,198.6 283.4,199.5 282.9,200.4 282.6,201.3 282.5,202.3 282.7,203.2 283.1,204.1 283.4,205.0 283.7,205.9 283.8,206.8 283.5,207.7 282.9,208.7 282.0,209.6 280.7,210.5 279.1,211.4 277.2,212.3 275.0,213.2 272.4,214.1 269.5,215.0 266.4,216.0 263.2,216.9 260.0,217.8 257.0,218.7 254.2,219.6 252.0,220.5 250.4,221.4 249.6,222.4 249.5,223.3 250.2,224.2 251.7,225.1 253.7,226.0 256.2,226.9 259.1,227.8 262.3,228.7 265.9,229.7 269.5,230.6 273.2,231.5 276.6,232.4 279.5,233.3 282.0,234.2 283.8,235.1 285.1,236.0 286.0,237.0 286.5,237.9 286.8,238.8 287.0,239.7 287.2,240.6 287.3,241.5 287.5,242.4 287.6,243.4 287.6,244.3 287.7,245.2" fill="#2a8" opacity="0.5" stroke="#2a8" stroke-width="1"/>
<line x1="249.6" y1="222.21313808819116" x2="325.9" y2="222.21313808819116" stroke="#114" stroke-width="2"/>
<circle cx="287.77777777777777" cy="229.1850564226137" r="2.4" fill="#114"/>
<text x="287.77777777777777" y="180.82597391754604" text-anchor="middle" font-size="11">1.08</text>
<text x="287.77777777777777" y="376" text-anchor="middle" font-size="12">ger</text>
<polygon points="379.1,234.0 379.3,232.2 379.8,230.4 380.7,228.5 382.2,226.7 384.3,224.9 387.3,223.0 391.1,221.2 395.6,219.4 400.6,217.6 405.5,215.7 410.0,213.9 413.5,212.1 415.7,210.2 416.7,208.4 416.6,206.6 416.2,204.7 415.9,202.9 416.0,201.1 416.5,199.2 417.1,197.4 417.2,195.6 416.2,193.7 414.1,191.9 411.0,190.1 407.2,188.2 403.2,186.4 399.4,184.6 396.1,182.7 393.4,180.9 391.0,179.1 389.0,177.3 387.2,175.4 385.7,173.6 384.4,171.8 383.4,169.9 382.7,168.1 382.1,166.3 381.7,164.4 381.3,162.6 380.9,160.8 380.5,158.9 380.1,157.1 379.7,155.3 379.4,153.4 379.2,151.6 379.0,149.8 379.0,147.9 378.9,146.1 378.9,144.3 378.9,142.4 378.9,140.6 378.9,138.8 378.9,137.0 378.9,135.1 378.9,133.3 378.9,131.5 378.9,129.6 379.0,127.8 379.1,126.0 379.2,124.1 379.3,122.3 379.5,120.5 379.6,118.6 379.6,116.8 379.6,115.0 379.5,113.1 379.3,111.3 379.2,109.5 379.1,107.6 379.0,105.8 378.9,104.0 378.8,104.0 378.8,105.8 378.7,107.6 378.6,109.5 378.4,111.3 378.3,113.1 378.2,115.0 378.2,116.8 378.2,118.6 378.3,120.5 378.4,122.3 378.6,124.1 378.7,126.0 378.8,127.8 378.8,129.6 378.9,131.5 378.9,133.3 378.9,135.1 378.9,137.0 378.9,138.8 378.9,140.6 378.9,142.4 378.9,144.3 378.9,146.1 378.8,147.9 378.7,149.8 378.6,151.6 378.4,153.4 378.1,155.3 377.7,157.1 377.3,158.9 376.9,160.8 376.5,162.6 376.1,164.4 375.7,166.3 375.1,168.1 374.4,169.9 373.4,171.8 372.1,173.6 370.5,175.4 368.8,177.3 366.7,179.1 364.4,180.9 361.6,182.7 358.3,184.6 354.6,186.4 350.6,188.2 346.8,190.1 343.7,191.9 341.5,193.7 340.6,195.6 340.7,197.4 341.3,199.2 341.8,201.1 341.9,202.9 341.6,204.7 341.1,206.6 341.1,208.4 342.1,210.2 344.3,212.1 347.8,213.9 352.3,215.7 357.2,217.6 362.2,219.4 366.7,221.2 370.5,223.0 373.5,224.9 375.6,226.7 377.0,228.5 377.9,230.4 378.4,232.2 378.7,234.0" fill="#2a8" opacity="0.5" stroke="#2a8" stroke-width="1"/>
<line x1="341.1" y1="198.75963535875624" x2="416.7" y2="198.75963535875624" stroke="#114" stroke-width="2"/>
<circle cx="378.8888888888889" cy="212.53819143060278" r="2.4" fill="#114"/>
<text x="378.8888888888889" y="110.76836032499483" text-anchor="middle" font-size="11">1.26</text>
<text x="378.8888888888889" y="376" text-anchor="middle" font-size="12">symv</text>
<polygon points="470.2,252.5 470.3,250.9 470.5,249.3 470.7,247.7 471.0,246.1 471.5,244.5 472.0,242.9 472.5,241.3 473.2,239.7 474.0,238.1 474.9,236.5 476.1,234.9 477.6,233.3 479.4,231.7 481.5,230.1 483.7,228.5 485.9,226.9 487.9,225.3 489.5,223.7 490.7,222.1 491.5,220.5 492.1,218.9 492.9,217.3 493.9,215.7 495.5,214.1 497.6,212.5 500.1,210.9 502.7,209.3 505.2,207.7 507.2,206.1 508.3,204.5 508.2,202.8 506.9,201.2 504.5,199.6 501.1,198.0 497.1,196.4 493.0,194.8 489.3,193.2 486.2,191.6 483.8,190.0 482.3,188.4 481.4,186.8 481.0,185.2 480.8,183.6 480.7,182.0 480.3,180.4 479.6,178.8 478.7,177.2 477.5,175.6 476.1,174.0 474.8,172.4 473.6,170.8 472.5,169.2 471.7,167.6 471.1,166.0 470.6,164.4 470.4,162.8 470.3,161.2 470.3,159.6 470.3,158.0 470.4,156.4 470.5,154.8 470.5,153.2 470.6,151.6 470.6,150.0 470.6,148.4 470.5,146.8 470.5,145.2 470.4,143.6 470.3,142.0 470.2,140.4 470.1,138.8 469.9,138.8 469.8,140.4 469.7,142.0 469.6,143.6 469.5,145.2 469.5,146.8 469.4,148.4 469.4,150.0 469.4,151.6 469.5,153.2 469.5,154.8 469.6,156.4 469.7,158.0 469.7,159.6 469.7,161.2 469.6,162.8 469.4,164.4 468.9,166.0 468.3,167.6 467.5,169.2 466.4,170.8 465.2,172.4 463.9,174.0 462.5,175.6 461.3,177.2 460.4,178.8 459.7,180.4 459.3,182.0 459.2,183.6 459.0,185.2 458.6,186.8 457.7,188.4 456.2,190.0 453.8,191.6 450.7,193.2 447.0,194.8 442.9,196.4 438.9,198.0 435.5,199.6 433.1,201.2 431.8,202.8 431.7,204.5 432.8,206.1 434.8,207.7 437.3,209.3 439.9,210.9 442.4,212.5 444.5,214.1 446.1,215.7 447.1,217.3 447.9,218.9 448.5,220.5 449.3,222.1 450.5,223.7 452.1,225.3 454.1,226.9 456.3,228.5 458.5,230.1 460.6,231.7 462.4,233.3 463.9,234.9 465.1,236.5 466.0,238.1 466.8,239.7 467.5,241.3 468.0,242.9 468.5,244.5 469.0,246.1 469.3,247.7 469.5,249.3 469.7,250.9 469.8,252.5" fill="#2a8" opacity="0.5" stroke="#2a8" stroke-width="1"/>
<line x1="431.7" y1="204.35728248281168" x2="508.3" y2="204.35728248281168" stroke="#114" stroke-width="2"/>
<circle cx="470.0" cy="223.5887959150296" r="2.4" fill="#114"/>
<text x="470.0" y="143.98673173883458" text-anchor="middle" font-size="11">1.22</text>
<text x="470.0" y="376" text-anchor="middle" font-size="12">trmv</text>
<polygon points="561.3,252.2 561.4,251.2 561.5,250.2 561.6,249.3 561.7,248.3 561.8,247.4 561.9,246.4 562.0,245.5 562.1,244.5 562.2,243.5 562.3,242.6 562.4,241.6 562.6,240.7 562.7,239.7 562.9,238.8 563.1,237.8 563.5,236.8 564.0,235.9 564.7,234.9 565.9,234.0 567.4,233.0 569.4,232.0 571.9,231.1 574.6,230.1 577.4,229.2 580.1,228.2 582.4,227.3 584.2,226.3 585.5,225.3 586.3,224.4 586.7,223.4 586.8,222.5 587.0,221.5 587.3,220.5 587.9,219.6 588.6,218.6 589.6,217.7 590.7,216.7 591.8,215.8 593.0,214.8 594.1,213.8 595.3,212.9 596.4,211.9 597.5,211.0 598.5,210.0 599.2,209.1 599.4,208.1 598.9,207.1 597.7,206.2 595.7,205.2 593.0,204.3 589.7,203.3 586.0,202.3 582.3,201.4 578.8,200.4 575.6,199.5 572.8,198.5 570.5,197.6 568.7,196.6 567.3,195.6 566.3,194.7 565.5,193.7 564.8,192.8 564.3,191.8 563.9,190.8 563.4,189.9 563.0,188.9 562.6,188.0 562.2,187.0 561.9,186.1 561.6,185.1 561.4,184.1 560.8,184.1 560.6,185.1 560.3,186.1 560.0,187.0 559.7,188.0 559.2,188.9 558.8,189.9 558.4,190.8 557.9,191.8 557.4,192.8 556.8,193.7 556.0,194.7 554.9,195.6 553.5,196.6 551.7,197.6 549.4,198.5 546.6,199.5 543.4,200.4 539.9,201.4 536.2,202.3 532.6,203.3 529.3,204.3 526.5,205.2 524.5,206.2 523.3,207.1 522.8,208.1 523.1,209.1 523.7,210.0 524.7,211.0 525.8,211.9 526.9,212.9 528.1,213.8 529.2,214.8 530.4,215.8 531.5,216.7 532.6,217.7 533.6,218.6 534.4,219.6 534.9,220.5 535.2,221.5 535.4,222.5 535.6,223.4 535.9,224.4 536.7,225.3 538.0,226.3 539.8,227.3 542.2,228.2 544.8,229.2 547.6,230.1 550.4,231.1 552.8,232.0 554.8,233.0 556.3,234.0 557.5,234.9 558.2,235.9 558.8,236.8 559.1,237.8 559.3,238.8 559.5,239.7 559.7,240.7 559.8,241.6 559.9,242.6 560.0,243.5 560.1,244.5 560.2,245.5 560.3,246.4 560.4,247.4 560.5,248.3 560.7,249.3 560.8,250.2 560.9,251.2 561.0,252.2" fill="#2a8" opacity="0.5" stroke="#2a8" stroke-width="1"/>
<line x1="527.3" y1="213.21231985935304" x2="594.9" y2="213.21231985935304" stroke="#114" stroke-width="2"/>
<circle cx="561.1111111111111" cy="227.169414843032" r="2.4" fill="#114"/>
<text x="561.1111111111111" y="184.92751937687217" text-anchor="middle" font-size="11">1.15</text>
<text x="561.1111111111111" y="376" text-anchor="middle" font-size="12">trsv</text>
<polygon points="652.3,313.7 652.3,310.4 652.4,307.1 652.5,303.9 652.6,300.6 652.7,297.3 652.8,294.0 652.8,290.7 652.8,287.5 652.7,284.2 652.6,280.9 652.5,277.6 652.4,274.4 652.3,271.1 652.3,267.8 652.3,264.5 652.3,261.3 652.3,258.0 652.4,254.7 652.7,251.4 653.1,248.1 653.9,244.9 655.0,241.6 656.5,238.3 658.4,235.0 660.3,231.8 662.0,228.5 663.2,225.2 663.7,221.9 663.5,218.7 662.9,215.4 662.3,212.1 662.1,208.8 662.4,205.6 663.5,202.3 665.3,199.0 667.5,195.7 670.1,192.4 673.0,189.2 676.0,185.9 679.4,182.6 682.8,179.3 686.0,176.1 688.6,172.8 690.3,169.5 690.5,166.2 689.2,163.0 686.5,159.7 682.8,156.4 678.6,153.1 674.3,149.8 670.3,146.6 666.8,143.3 664.0,140.0 661.8,136.7 660.2,133.5 659.1,130.2 658.4,126.9 657.8,123.6 657.3,120.4 656.8,117.1 656.2,113.8 655.6,110.5 654.9,107.2 654.3,104.0 653.8,100.7 653.3,97.4 653.0,94.1 652.7,90.9 652.5,87.6 652.4,84.3 652.3,81.0 652.1,81.0 652.1,84.3 651.9,87.6 651.8,90.9 651.5,94.1 651.1,97.4 650.7,100.7 650.1,104.0 649.5,107.2 648.9,110.5 648.2,113.8 647.6,117.1 647.1,120.4 646.6,123.6 646.1,126.9 645.3,130.2 644.2,133.5 642.7,136.7 640.5,140.0 637.6,143.3 634.2,146.6 630.2,149.8 625.9,153.1 621.6,156.4 617.9,159.7 615.3,163.0 614.0,166.2 614.2,169.5 615.8,172.8 618.5,176.1 621.7,179.3 625.1,182.6 628.4,185.9 631.5,189.2 634.3,192.4 636.9,195.7 639.2,199.0 640.9,202.3 642.0,205.6 642.4,208.8 642.1,212.1 641.5,215.4 640.9,218.7 640.8,221.9 641.3,225.2 642.5,228.5 644.2,231.8 646.1,235.0 647.9,238.3 649.4,241.6 650.6,244.9 651.3,248.1 651.8,251.4 652.0,254.7 652.1,258.0 652.2,261.3 652.2,264.5 652.2,267.8 652.1,271.1 652.0,274.4 651.9,277.6 651.8,280.9 651.8,284.2 651.7,287.5 651.7,290.7 651.7,294.0 651.7,297.3 651.8,300.6 651.9,303.9 652.0,307.1 652.1,310.4 652.1,313.7" fill="#2a8" opacity="0.5" stroke="#2a8" stroke-width="1"/>
<line x1="614.0" y1="168.8462390814963" x2="690.4" y2="168.8462390814963" stroke="#114" stroke-width="2"/>
<circle cx="652.2222222222223" cy="222.80129767951593" r="2.4" fill="#114"/>
<text x="652.2222222222223" y="97.74993046580093" text-anchor="middle" font-size="11">1.50</text>
<text x="652.2222222222223" y="376" text-anchor="middle" font-size="12">spmv</text>
<polygon points="743.5,234.7 743.7,233.1 743.8,231.5 744.1,229.9 744.4,228.3 744.8,226.7 745.2,225.1 745.8,223.5 746.4,221.9 747.2,220.3 748.1,218.7 749.1,217.1 750.3,215.5 751.6,214.0 753.0,212.4 754.4,210.8 756.0,209.2 757.7,207.6 759.6,206.0 761.7,204.4 764.1,202.8 766.8,201.2 769.6,199.6 772.5,198.0 775.2,196.4 777.5,194.8 779.4,193.2 780.8,191.6 781.5,190.0 781.6,188.4 781.1,186.8 780.1,185.2 778.6,183.6 776.6,182.0 774.2,180.4 771.6,178.8 768.9,177.2 766.4,175.6 764.2,174.0 762.2,172.4 760.6,170.8 759.2,169.2 757.9,167.6 756.6,166.0 755.2,164.4 753.7,162.8 752.1,161.2 750.6,159.6 749.2,158.0 748.0,156.5 747.0,154.9 746.1,153.3 745.4,151.7 745.0,150.1 744.6,148.5 744.5,146.9 744.4,145.3 744.5,143.7 744.6,142.1 744.8,140.5 745.0,138.9 745.1,137.3 745.1,135.7 745.0,134.1 744.9,132.5 744.7,130.9 744.4,129.3 744.2,127.7 744.0,126.1 743.8,124.5 743.6,122.9 743.5,121.3 743.2,121.3 743.1,122.9 742.9,124.5 742.7,126.1 742.5,127.7 742.2,129.3 742.0,130.9 741.8,132.5 741.6,134.1 741.6,135.7 741.6,137.3 741.7,138.9 741.9,140.5 742.0,142.1 742.2,143.7 742.2,145.3 742.2,146.9 742.0,148.5 741.7,150.1 741.2,151.7 740.6,153.3 739.7,154.9 738.7,156.5 737.4,158.0 736.1,159.6 734.6,161.2 733.0,162.8 731.5,164.4 730.1,166.0 728.7,167.6 727.4,169.2 726.0,170.8 724.4,172.4 722.5,174.0 720.3,175.6 717.7,177.2 715.1,178.8 712.5,180.4 710.1,182.0 708.1,183.6 706.5,185.2 705.5,186.8 705.1,188.4 705.2,190.0 705.9,191.6 707.2,193.2 709.1,194.8 711.5,196.4 714.2,198.0 717.1,199.6 719.9,201.2 722.6,202.8 725.0,204.4 727.1,206.0 729.0,207.6 730.7,209.2 732.2,210.8 733.7,212.4 735.1,214.0 736.4,215.5 737.6,217.1 738.6,218.7 739.5,220.3 740.2,221.9 740.9,223.5 741.4,225.1 741.9,226.7 742.3,228.3 742.6,229.9 742.8,231.5 743.0,233.1 743.1,234.7" fill="#2a8" opacity="0.5" stroke="#2a8" stroke-width="1"/>
<line x1="705.1" y1="188.27163966236589" x2="781.6" y2="188.27163966236589" stroke="#114" stroke-width="2"/>
<circle cx="743.3333333333334" cy="199.50841008543168" r="2.4" fill="#114"/>
<text x="743.3333333333334" y="126.49103035689882" text-anchor="middle" font-size="11">1.35</text>
<text x="743.3333333333334" y="376" text-anchor="middle" font-size="12">gbmvN</text>
<polygon points="834.5,267.7 834.5,266.2 834.6,264.7 834.7,263.2 834.8,261.7 834.9,260.2 835.0,258.6 835.0,257.1 835.0,255.6 834.9,254.1 834.8,252.6 834.7,251.1 834.6,249.6 834.5,248.1 834.5,246.5 834.5,245.0 834.4,243.5 834.5,242.0 834.5,240.5 834.5,239.0 834.5,237.5 834.6,236.0 834.8,234.4 835.0,232.9 835.2,231.4 835.5,229.9 835.7,228.4 836.0,226.9 836.5,225.4 837.3,223.9 838.6,222.3 840.5,220.8 842.9,219.3 845.7,217.8 848.8,216.3 851.9,214.8 855.1,213.3 858.6,211.8 862.6,210.2 866.6,208.7 870.2,207.2 872.5,205.7 872.7,204.2 870.7,202.7 866.9,201.2 862.3,199.7 857.8,198.1 854.2,196.6 851.7,195.1 850.1,193.6 849.1,192.1 848.2,190.6 847.1,189.1 845.6,187.6 843.9,186.0 842.2,184.5 840.5,183.0 839.1,181.5 838.1,180.0 837.3,178.5 836.7,177.0 836.3,175.5 835.9,173.9 835.7,172.4 835.5,170.9 835.2,169.4 835.0,167.9 834.8,166.4 834.7,164.9 834.6,163.4 834.5,161.8 834.5,160.3 834.4,160.3 834.4,161.8 834.3,163.4 834.2,164.9 834.1,166.4 833.9,167.9 833.7,169.4 833.4,170.9 833.2,172.4 832.9,173.9 832.6,175.5 832.2,177.0 831.6,178.5 830.8,180.0 829.8,181.5 828.4,183.0 826.7,184.5 825.0,186.0 823.3,187.6 821.8,189.1 820.7,190.6 819.8,192.1 818.8,193.6 817.2,195.1 814.7,196.6 811.1,198.1 806.6,199.7 802.0,201.2 798.2,202.7 796.2,204.2 796.4,205.7 798.7,207.2 802.3,208.7 806.3,210.2 810.2,211.8 813.8,213.3 817.0,214.8 820.1,216.3 823.2,217.8 826.0,219.3 828.4,220.8 830.3,222.3 831.6,223.9 832.4,225.4 832.8,226.9 833.2,228.4 833.4,229.9 833.7,231.4 833.9,232.9 834.1,234.4 834.3,236.0 834.4,237.5 834.4,239.0 834.4,240.5 834.4,242.0 834.4,243.5 834.4,245.0 834.4,246.5 834.4,248.1 834.3,249.6 834.2,251.1 834.1,252.6 834.0,254.1 833.9,255.6 833.9,257.1 833.9,258.6 834.0,260.2 834.1,261.7 834.2,263.2 834.3,264.7 834.4,266.2 834.4,267.7" fill="#2a8" opacity="0.5" stroke="#2a8" stroke-width="1"/>
<line x1="796.1" y1="204.38965455706347" x2="872.8" y2="204.38965455706347" stroke="#114" stroke-width="2"/>
<circle cx="834.4444444444445" cy="212.97834447038875" r="2.4" fill="#114"/>
<text x="834.4444444444445" y="164.92658927959073" text-anchor="middle" font-size="11">1.22</text>
<text x="834.4444444444445" y="376" text-anchor="middle" font-size="12">sbmv</text>
<text x="450.0" y="428" text-anchor="middle" font-size="11" fill="#666">violin = ratio distribution over sizes · line = median · dark dot = worst size · green = every size ≥ gate</text>
</svg>
