<svg xmlns="http://www.w3.org/2000/svg" width="900" height="440" font-family="sans-serif">
<rect width="900" height="440" fill="white"/>
<text x="450.0" y="28" text-anchor="middle" font-size="18" font-weight="bold">Complex BLAS-2: PureBLAS / OpenBLAS (AVX-512, 1 thread, ComplexF64)</text>
<line x1="60" y1="358.0" x2="880" y2="358.0" stroke="#eee"/>
<text x="52" y="362.0" text-anchor="end" font-size="11" fill="#666">0×</text>
<line x1="60" y1="290.672308108424" x2="880" y2="290.672308108424" stroke="#eee"/>
<text x="52" y="294.672308108424" text-anchor="end" font-size="11" fill="#666">0.5×</text>
<line x1="60" y1="223.34461621684795" x2="880" y2="223.34461621684795" stroke="#eee"/>
<text x="52" y="227.34461621684795" text-anchor="end" font-size="11" fill="#666">1×</text>
<line x1="60" y1="156.01692432527193" x2="880" y2="156.01692432527193" stroke="#eee"/>
<text x="52" y="160.01692432527193" text-anchor="end" font-size="11" fill="#666">1.5×</text>
<line x1="60" y1="223.34461621684795" x2="880" y2="223.34461621684795" stroke="#888" stroke-width="1"/>
<line x1="60" y1="228.73083156817407" x2="880" y2="228.73083156817407" stroke="#d33" stroke-width="1.5" stroke-dasharray="6 4"/>
<text x="880" y="223.73083156817407" text-anchor="end" font-size="11" fill="#d33">0.96× gate</text>
<polygon points="101.1,234.2 101.2,233.3 101.2,232.4 101.3,231.5 101.4,230.6 101.6,229.7 101.7,228.8 101.9,228.0 102.1,227.1 102.3,226.2 102.6,225.3 103.0,224.4 103.6,223.5 104.4,222.6 105.5,221.7 107.0,220.8 108.9,219.9 111.3,219.0 114.3,218.1 117.6,217.2 121.2,216.4 124.8,215.5 128.3,214.6 131.3,213.7 133.6,212.8 135.0,211.9 135.4,211.0 135.0,210.1 133.7,209.2 131.7,208.3 129.4,207.4 127.0,206.5 124.6,205.7 122.5,204.8 120.6,203.9 119.0,203.0 117.6,202.1 116.5,201.2 115.4,200.3 114.5,199.4 113.6,198.5 112.9,197.6 112.4,196.7 112.1,195.8 112.0,194.9 112.1,194.1 112.3,193.2 112.4,192.3 112.5,191.4 112.2,190.5 111.7,189.6 111.0,188.7 110.1,187.8 109.1,186.9 108.2,186.0 107.5,185.1 107.1,184.2 107.1,183.3 107.6,182.5 108.3,181.6 109.1,180.7 110.0,179.8 110.8,178.9 111.3,178.0 111.4,177.1 111.1,176.2 110.4,175.3 109.4,174.4 108.1,173.5 106.8,172.6 105.6,171.8 104.4,170.9 97.6,170.9 96.4,171.8 95.2,172.6 93.9,173.5 92.6,174.4 91.6,175.3 90.9,176.2 90.6,177.1 90.7,178.0 91.2,178.9 92.0,179.8 92.9,180.7 93.7,181.6 94.4,182.5 94.9,183.3 94.9,184.2 94.5,185.1 93.8,186.0 92.9,186.9 91.9,187.8 91.0,188.7 90.3,189.6 89.8,190.5 89.5,191.4 89.6,192.3 89.7,193.2 89.9,194.1 90.0,194.9 89.9,195.8 89.6,196.7 89.1,197.6 88.4,198.5 87.5,199.4 86.6,200.3 85.5,201.2 84.4,202.1 83.0,203.0 81.4,203.9 79.5,204.8 77.4,205.7 75.0,206.5 72.6,207.4 70.3,208.3 68.3,209.2 67.0,210.1 66.6,211.0 67.0,211.9 68.4,212.8 70.7,213.7 73.7,214.6 77.2,215.5 80.8,216.4 84.4,217.2 87.7,218.1 90.7,219.0 93.1,219.9 95.0,220.8 96.5,221.7 97.6,222.6 98.4,223.5 99.0,224.4 99.4,225.3 99.7,226.2 99.9,227.1 100.1,228.0 100.3,228.8 100.4,229.7 100.6,230.6 100.7,231.5 100.8,232.4 100.8,233.3 100.9,234.2" fill="#2a8" opacity="0.5" stroke="#2a8" stroke-width="1"/>
<line x1="70.7" y1="208.15114917940838" x2="131.3" y2="208.15114917940838" stroke="#114" stroke-width="2"/>
<circle cx="101.0" cy="213.339041001965" r="2.4" fill="#114"/>
<text x="101.0" y="171.20546694263638" text-anchor="middle" font-size="11">1.11</text>
<text x="101.0" y="376" text-anchor="middle" font-size="12">zgemvN</text>
<polygon points="187.5,245.2 188.7,244.1 190.0,243.1 191.3,242.0 192.6,241.0 193.9,240.0 194.9,238.9 195.7,237.9 196.3,236.9 196.6,235.8 196.8,234.8 196.8,233.8 196.8,232.7 196.9,231.7 197.2,230.6 197.8,229.6 198.8,228.6 200.1,227.5 201.7,226.5 203.6,225.5 205.6,224.4 207.7,223.4 209.9,222.3 211.8,221.3 213.6,220.3 215.1,219.2 216.3,218.2 217.0,217.2 217.4,216.1 217.4,215.1 217.0,214.1 216.3,213.0 215.2,212.0 213.8,210.9 212.1,209.9 210.3,208.9 208.3,207.8 206.4,206.8 204.5,205.8 202.7,204.7 201.2,203.7 200.0,202.6 199.1,201.6 198.5,200.6 198.2,199.5 198.0,198.5 197.9,197.5 197.8,196.4 197.6,195.4 197.3,194.4 196.8,193.3 196.1,192.3 195.4,191.2 194.6,190.2 194.0,189.2 193.5,188.1 193.3,187.1 193.3,186.1 193.6,185.0 194.1,184.0 194.7,182.9 195.4,181.9 195.9,180.9 196.1,179.8 196.1,178.8 195.8,177.8 195.1,176.7 194.1,175.7 192.9,174.7 191.5,173.6 190.1,172.6 188.8,171.5 177.2,171.5 175.9,172.6 174.5,173.6 173.1,174.7 171.9,175.7 170.9,176.7 170.2,177.8 169.9,178.8 169.9,179.8 170.1,180.9 170.6,181.9 171.3,182.9 171.9,184.0 172.4,185.0 172.7,186.1 172.7,187.1 172.5,188.1 172.0,189.2 171.4,190.2 170.6,191.2 169.9,192.3 169.2,193.3 168.7,194.4 168.4,195.4 168.2,196.4 168.1,197.5 168.0,198.5 167.8,199.5 167.5,200.6 166.9,201.6 166.0,202.6 164.8,203.7 163.3,204.7 161.5,205.8 159.6,206.8 157.7,207.8 155.7,208.9 153.9,209.9 152.2,210.9 150.8,212.0 149.7,213.0 149.0,214.1 148.6,215.1 148.6,216.1 149.0,217.2 149.7,218.2 150.9,219.2 152.4,220.3 154.2,221.3 156.1,222.3 158.3,223.4 160.4,224.4 162.4,225.5 164.3,226.5 165.9,227.5 167.2,228.6 168.2,229.6 168.8,230.6 169.1,231.7 169.2,232.7 169.2,233.8 169.2,234.8 169.4,235.8 169.7,236.9 170.3,237.9 171.1,238.9 172.1,240.0 173.4,241.0 174.7,242.0 176.0,243.1 177.3,244.1 178.5,245.2" fill="#d33" opacity="0.5" stroke="#d33" stroke-width="1"/>
<line x1="149.7" y1="213.07717432197913" x2="216.3" y2="213.07717432197913" stroke="#114" stroke-width="2"/>
<circle cx="183.0" cy="237.18870202108522" r="2.4" fill="#114"/>
<text x="183.0" y="172.88318113741636" text-anchor="middle" font-size="11">1.08</text>
<text x="183.0" y="376" text-anchor="middle" font-size="12">zgemvT</text>
<polygon points="267.4,242.9 268.3,241.9 269.5,240.9 270.8,239.9 272.3,238.9 274.0,237.9 275.7,236.9 277.4,235.9 279.0,234.9 280.6,233.8 281.9,232.8 283.2,231.8 284.3,230.8 285.4,229.8 286.6,228.8 287.9,227.8 289.4,226.8 291.0,225.8 292.8,224.8 294.5,223.8 296.2,222.7 297.5,221.7 298.6,220.7 299.2,219.7 299.4,218.7 299.3,217.7 298.9,216.7 298.3,215.7 297.6,214.7 297.0,213.7 296.4,212.6 296.0,211.6 295.6,210.6 295.1,209.6 294.5,208.6 293.7,207.6 292.7,206.6 291.4,205.6 290.0,204.6 288.4,203.6 286.8,202.6 285.4,201.5 284.2,200.5 283.2,199.5 282.6,198.5 282.2,197.5 282.0,196.5 281.9,195.5 281.8,194.5 281.6,193.5 281.2,192.5 280.7,191.4 280.0,190.4 279.2,189.4 278.5,188.4 278.0,187.4 277.6,186.4 277.5,185.4 277.8,184.4 278.2,183.4 278.8,182.4 279.4,181.4 279.9,180.3 280.1,179.3 280.0,178.3 279.6,177.3 278.7,176.3 277.6,175.3 276.2,174.3 274.6,173.3 273.0,172.3 271.5,171.3 258.5,171.3 257.0,172.3 255.4,173.3 253.8,174.3 252.4,175.3 251.3,176.3 250.4,177.3 250.0,178.3 249.9,179.3 250.1,180.3 250.6,181.4 251.2,182.4 251.8,183.4 252.2,184.4 252.5,185.4 252.4,186.4 252.0,187.4 251.5,188.4 250.8,189.4 250.0,190.4 249.3,191.4 248.8,192.5 248.4,193.5 248.2,194.5 248.1,195.5 248.0,196.5 247.8,197.5 247.4,198.5 246.8,199.5 245.8,200.5 244.6,201.5 243.2,202.6 241.6,203.6 240.0,204.6 238.6,205.6 237.3,206.6 236.3,207.6 235.5,208.6 234.9,209.6 234.4,210.6 234.0,211.6 233.6,212.6 233.0,213.7 232.4,214.7 231.7,215.7 231.1,216.7 230.7,217.7 230.6,218.7 230.8,219.7 231.4,220.7 232.5,221.7 233.8,222.7 235.5,223.8 237.2,224.8 239.0,225.8 240.6,226.8 242.1,227.8 243.4,228.8 244.6,229.8 245.7,230.8 246.8,231.8 248.1,232.8 249.4,233.8 251.0,234.9 252.6,235.9 254.3,236.9 256.0,237.9 257.7,238.9 259.2,239.9 260.5,240.9 261.7,241.9 262.6,242.9" fill="#d33" opacity="0.5" stroke="#d33" stroke-width="1"/>
<line x1="234.3" y1="210.84702456469097" x2="295.7" y2="210.84702456469097" stroke="#114" stroke-width="2"/>
<circle cx="265.0" cy="232.09570495486008" r="2.4" fill="#114"/>
<text x="265.0" y="172.41099099473348" text-anchor="middle" font-size="11">1.09</text>
<text x="265.0" y="376" text-anchor="middle" font-size="12">zgemvC</text>
<polygon points="348.5,230.4 349.1,229.3 350.0,228.2 351.0,227.1 352.2,226.0 353.7,224.9 355.2,223.8 357.0,222.7 358.7,221.6 360.5,220.5 362.2,219.4 363.7,218.3 365.1,217.2 366.3,216.1 367.4,215.0 368.3,213.9 369.2,212.8 370.2,211.7 371.3,210.6 372.6,209.5 374.1,208.4 375.7,207.3 377.4,206.2 379.0,205.1 380.3,204.0 381.1,202.9 381.4,201.8 381.2,200.7 380.3,199.5 378.8,198.4 376.9,197.3 374.6,196.2 372.2,195.1 369.6,194.0 366.9,192.9 364.3,191.8 361.8,190.7 359.4,189.6 357.2,188.5 355.2,187.4 353.4,186.3 351.9,185.2 350.6,184.1 349.7,183.0 349.0,181.9 348.5,180.8 348.2,179.7 348.1,178.6 348.2,177.5 348.4,176.4 348.8,175.3 349.2,174.2 349.8,173.1 350.4,172.0 351.2,170.9 352.0,169.8 352.9,168.7 353.8,167.6 354.6,166.5 355.3,165.4 355.8,164.3 356.2,163.2 356.2,162.0 355.9,160.9 355.4,159.8 354.6,158.7 353.7,157.6 352.7,156.5 351.7,155.4 350.7,154.3 349.8,153.2 349.1,152.1 344.9,152.1 344.2,153.2 343.3,154.3 342.3,155.4 341.3,156.5 340.3,157.6 339.4,158.7 338.6,159.8 338.1,160.9 337.8,162.0 337.8,163.2 338.2,164.3 338.7,165.4 339.4,166.5 340.2,167.6 341.1,168.7 342.0,169.8 342.8,170.9 343.6,172.0 344.2,173.1 344.8,174.2 345.2,175.3 345.6,176.4 345.8,177.5 345.9,178.6 345.8,179.7 345.5,180.8 345.0,181.9 344.3,183.0 343.4,184.1 342.1,185.2 340.6,186.3 338.8,187.4 336.8,188.5 334.6,189.6 332.2,190.7 329.7,191.8 327.1,192.9 324.4,194.0 321.8,195.1 319.4,196.2 317.1,197.3 315.2,198.4 313.7,199.5 312.8,200.7 312.6,201.8 312.9,202.9 313.7,204.0 315.0,205.1 316.6,206.2 318.3,207.3 319.9,208.4 321.4,209.5 322.7,210.6 323.8,211.7 324.8,212.8 325.7,213.9 326.6,215.0 327.7,216.1 328.9,217.2 330.3,218.3 331.8,219.4 333.5,220.5 335.3,221.6 337.0,222.7 338.8,223.8 340.3,224.9 341.8,226.0 343.0,227.1 344.0,228.2 344.9,229.3 345.5,230.4" fill="#2a8" opacity="0.5" stroke="#2a8" stroke-width="1"/>
<line x1="312.7" y1="200.97126397768707" x2="381.3" y2="200.97126397768707" stroke="#114" stroke-width="2"/>
<circle cx="347.0" cy="218.4151958897346" r="2.4" fill="#114"/>
<text x="347.0" y="153.91638233701383" text-anchor="middle" font-size="11">1.17</text>
<text x="347.0" y="376" text-anchor="middle" font-size="12">zgeru</text>
<polygon points="444.0,245.3 446.7,242.5 449.6,239.8 452.5,237.0 455.2,234.3 457.7,231.5 459.8,228.8 461.5,226.0 462.7,223.3 463.3,220.5 463.4,217.8 463.1,215.0 462.2,212.3 461.0,209.5 459.5,206.8 457.7,204.0 455.8,201.3 453.7,198.5 451.6,195.8 449.5,193.0 447.4,190.3 445.5,187.5 443.7,184.8 442.1,182.0 440.7,179.3 439.7,176.5 439.0,173.8 438.6,171.0 438.7,168.3 439.2,165.5 440.1,162.8 441.3,160.0 442.9,157.3 444.8,154.5 446.9,151.8 449.1,149.0 451.3,146.3 453.6,143.5 455.6,140.8 457.5,138.0 459.1,135.3 460.4,132.5 461.4,129.8 462.0,127.0 462.2,124.3 462.1,121.5 461.6,118.8 460.8,116.0 459.9,113.3 458.7,110.5 457.5,107.8 456.3,105.0 455.1,102.3 454.0,99.5 453.0,96.8 452.1,94.0 451.3,91.3 450.6,88.5 450.0,85.8 449.3,83.0 448.6,80.3 447.8,77.5 446.9,74.8 445.8,72.0 444.6,69.3 443.3,66.5 441.8,63.8 440.4,61.0 438.9,58.3 437.4,55.5 436.0,52.8 434.8,50.0 423.2,50.0 422.0,52.8 420.6,55.5 419.1,58.3 417.6,61.0 416.2,63.8 414.7,66.5 413.4,69.3 412.2,72.0 411.1,74.8 410.2,77.5 409.4,80.3 408.7,83.0 408.0,85.8 407.4,88.5 406.7,91.3 405.9,94.0 405.0,96.8 404.0,99.5 402.9,102.3 401.7,105.0 400.5,107.8 399.3,110.5 398.1,113.3 397.2,116.0 396.4,118.8 395.9,121.5 395.8,124.3 396.0,127.0 396.6,129.8 397.6,132.5 398.9,135.3 400.5,138.0 402.4,140.8 404.4,143.5 406.7,146.3 408.9,149.0 411.1,151.8 413.2,154.5 415.1,157.3 416.7,160.0 417.9,162.8 418.8,165.5 419.3,168.3 419.4,171.0 419.0,173.8 418.3,176.5 417.3,179.3 415.9,182.0 414.3,184.8 412.5,187.5 410.6,190.3 408.5,193.0 406.4,195.8 404.3,198.5 402.2,201.3 400.3,204.0 398.5,206.8 397.0,209.5 395.8,212.3 394.9,215.0 394.6,217.8 394.7,220.5 395.3,223.3 396.5,226.0 398.2,228.8 400.3,231.5 402.8,234.3 405.5,237.0 408.4,239.8 411.3,242.5 414.0,245.3" fill="#2a8" opacity="0.5" stroke="#2a8" stroke-width="1"/>
<line x1="402.1" y1="140.39471070226583" x2="455.9" y2="140.39471070226583" stroke="#114" stroke-width="2"/>
<circle cx="429.0" cy="225.99209220223395" r="2.4" fill="#114"/>
<text x="429.0" y="61.433962264150935" text-anchor="middle" font-size="11">1.62</text>
<text x="429.0" y="376" text-anchor="middle" font-size="12">zhemv</text>
<polygon points="516.5,246.2 518.0,244.2 519.7,242.1 521.5,240.1 523.4,238.1 525.2,236.1 527.0,234.1 528.7,232.1 530.2,230.1 531.5,228.0 532.7,226.0 533.7,224.0 534.7,222.0 535.6,220.0 536.6,218.0 537.6,215.9 538.6,213.9 539.8,211.9 541.0,209.9 542.2,207.9 543.3,205.9 544.3,203.9 545.0,201.8 545.4,199.8 545.4,197.8 545.1,195.8 544.3,193.8 543.1,191.8 541.7,189.8 539.9,187.7 538.0,185.7 535.9,183.7 533.8,181.7 531.7,179.7 529.7,177.7 527.8,175.7 526.1,173.6 524.6,171.6 523.5,169.6 522.7,167.6 522.2,165.6 522.0,163.6 522.0,161.5 522.3,159.5 522.7,157.5 523.0,155.5 523.4,153.5 523.6,151.5 523.7,149.5 523.6,147.4 523.5,145.4 523.2,143.4 523.0,141.4 522.8,139.4 522.7,137.4 522.7,135.4 522.8,133.3 523.0,131.3 523.2,129.3 523.4,127.3 523.5,125.3 523.4,123.3 523.2,121.3 522.6,119.2 521.9,117.2 520.9,115.2 519.8,113.2 518.6,111.2 517.4,109.2 516.2,107.2 515.2,105.1 514.2,103.1 507.8,103.1 506.8,105.1 505.8,107.2 504.6,109.2 503.4,111.2 502.2,113.2 501.1,115.2 500.1,117.2 499.4,119.2 498.8,121.3 498.6,123.3 498.5,125.3 498.6,127.3 498.8,129.3 499.0,131.3 499.2,133.3 499.3,135.4 499.3,137.4 499.2,139.4 499.0,141.4 498.8,143.4 498.5,145.4 498.4,147.4 498.3,149.5 498.4,151.5 498.6,153.5 499.0,155.5 499.3,157.5 499.7,159.5 500.0,161.5 500.0,163.6 499.8,165.6 499.3,167.6 498.5,169.6 497.4,171.6 495.9,173.6 494.2,175.7 492.3,177.7 490.3,179.7 488.2,181.7 486.1,183.7 484.0,185.7 482.1,187.7 480.3,189.8 478.9,191.8 477.7,193.8 476.9,195.8 476.6,197.8 476.6,199.8 477.0,201.8 477.7,203.9 478.7,205.9 479.8,207.9 481.0,209.9 482.2,211.9 483.4,213.9 484.4,215.9 485.4,218.0 486.4,220.0 487.3,222.0 488.3,224.0 489.3,226.0 490.5,228.0 491.8,230.1 493.3,232.1 495.0,234.1 496.8,236.1 498.6,238.1 500.5,240.1 502.3,242.1 504.0,244.2 505.5,246.2" fill="#d33" opacity="0.5" stroke="#d33" stroke-width="1"/>
<line x1="476.7" y1="196.84173376424138" x2="545.3" y2="196.84173376424138" stroke="#114" stroke-width="2"/>
<circle cx="511.0" cy="230.5760003147939" r="2.4" fill="#114"/>
<text x="511.0" y="111.18134342146234" text-anchor="middle" font-size="11">1.20</text>
<text x="511.0" y="376" text-anchor="middle" font-size="12">ztrmv</text>
<polygon points="597.6,240.3 599.2,239.2 601.1,238.0 603.3,236.9 605.9,235.7 608.6,234.6 611.4,233.5 614.2,232.3 616.7,231.2 618.9,230.0 620.5,228.9 621.5,227.8 621.8,226.6 621.3,225.5 620.2,224.3 618.4,223.2 616.3,222.1 613.9,220.9 611.4,219.8 609.0,218.6 607.0,217.5 605.3,216.4 604.2,215.2 603.7,214.1 603.7,212.9 604.2,211.8 605.3,210.7 606.8,209.5 608.5,208.4 610.6,207.2 612.7,206.1 614.9,205.0 617.2,203.8 619.3,202.7 621.3,201.5 623.1,200.4 624.6,199.3 625.9,198.1 626.8,197.0 627.3,195.8 627.4,194.7 627.1,193.6 626.4,192.4 625.4,191.3 624.1,190.2 622.6,189.0 621.2,187.9 619.8,186.7 618.6,185.6 617.7,184.5 617.1,183.3 616.8,182.2 616.7,181.0 616.9,179.9 617.1,178.8 617.4,177.6 617.6,176.5 617.6,175.3 617.5,174.2 617.2,173.1 616.5,171.9 615.6,170.8 614.4,169.6 612.9,168.5 611.2,167.4 609.4,166.2 607.5,165.1 605.5,163.9 603.6,162.8 601.7,161.7 600.0,160.5 598.6,159.4 587.4,159.4 586.0,160.5 584.3,161.7 582.4,162.8 580.5,163.9 578.5,165.1 576.6,166.2 574.8,167.4 573.1,168.5 571.6,169.6 570.4,170.8 569.5,171.9 568.8,173.1 568.5,174.2 568.4,175.3 568.4,176.5 568.6,177.6 568.9,178.8 569.1,179.9 569.3,181.0 569.2,182.2 568.9,183.3 568.3,184.5 567.4,185.6 566.2,186.7 564.8,187.9 563.4,189.0 561.9,190.2 560.6,191.3 559.6,192.4 558.9,193.6 558.6,194.7 558.7,195.8 559.2,197.0 560.1,198.1 561.4,199.3 562.9,200.4 564.7,201.5 566.7,202.7 568.8,203.8 571.1,205.0 573.3,206.1 575.4,207.2 577.5,208.4 579.2,209.5 580.7,210.7 581.8,211.8 582.3,212.9 582.3,214.1 581.8,215.2 580.7,216.4 579.0,217.5 577.0,218.6 574.6,219.8 572.1,220.9 569.7,222.1 567.6,223.2 565.8,224.3 564.7,225.5 564.2,226.6 564.5,227.8 565.5,228.9 567.1,230.0 569.3,231.2 571.8,232.3 574.6,233.5 577.4,234.6 580.1,235.7 582.7,236.9 584.9,238.0 586.8,239.2 588.4,240.3" fill="#2a8" opacity="0.5" stroke="#2a8" stroke-width="1"/>
<line x1="558.6" y1="194.4740517438108" x2="627.4" y2="194.4740517438108" stroke="#114" stroke-width="2"/>
<circle cx="593.0" cy="226.52626760447976" r="2.4" fill="#114"/>
<text x="593.0" y="161.4285362684704" text-anchor="middle" font-size="11">1.21</text>
<text x="593.0" y="376" text-anchor="middle" font-size="12">ztrsv</text>
<polygon points="679.7,221.2 681.1,220.0 682.9,218.8 685.0,217.6 687.3,216.4 689.8,215.1 692.5,213.9 695.2,212.7 697.9,211.5 700.3,210.3 702.4,209.1 704.1,207.8 705.3,206.6 705.9,205.4 706.0,204.2 705.5,203.0 704.6,201.8 703.3,200.5 701.9,199.3 700.4,198.1 699.0,196.9 697.7,195.7 696.6,194.5 695.7,193.2 695.1,192.0 694.7,190.8 694.4,189.6 694.3,188.4 694.2,187.2 694.1,185.9 694.1,184.7 694.1,183.5 694.2,182.3 694.4,181.1 694.7,179.9 695.1,178.6 695.7,177.4 696.4,176.2 697.3,175.0 698.2,173.8 699.2,172.5 700.1,171.3 701.0,170.1 701.8,168.9 702.5,167.7 703.1,166.5 703.6,165.2 704.0,164.0 704.4,162.8 704.7,161.6 705.1,160.4 705.6,159.2 706.1,157.9 706.6,156.7 707.3,155.5 707.9,154.3 708.6,153.1 709.1,151.9 709.4,150.6 709.4,149.4 709.1,148.2 708.4,147.0 707.1,145.8 705.5,144.6 703.4,143.3 700.9,142.1 698.2,140.9 695.4,139.7 692.5,138.5 689.7,137.3 687.1,136.0 684.7,134.8 665.3,134.8 662.9,136.0 660.3,137.3 657.5,138.5 654.6,139.7 651.8,140.9 649.1,142.1 646.6,143.3 644.5,144.6 642.9,145.8 641.6,147.0 640.9,148.2 640.6,149.4 640.6,150.6 640.9,151.9 641.4,153.1 642.1,154.3 642.7,155.5 643.4,156.7 643.9,157.9 644.4,159.2 644.9,160.4 645.3,161.6 645.6,162.8 646.0,164.0 646.4,165.2 646.9,166.5 647.5,167.7 648.2,168.9 649.0,170.1 649.9,171.3 650.8,172.5 651.8,173.8 652.7,175.0 653.6,176.2 654.3,177.4 654.9,178.6 655.3,179.9 655.6,181.1 655.8,182.3 655.9,183.5 655.9,184.7 655.9,185.9 655.8,187.2 655.7,188.4 655.6,189.6 655.3,190.8 654.9,192.0 654.3,193.2 653.4,194.5 652.3,195.7 651.0,196.9 649.6,198.1 648.1,199.3 646.7,200.5 645.4,201.8 644.5,203.0 644.0,204.2 644.1,205.4 644.7,206.6 645.9,207.8 647.6,209.1 649.7,210.3 652.1,211.5 654.8,212.7 657.5,213.9 660.2,215.1 662.7,216.4 665.0,217.6 667.1,218.8 668.9,220.0 670.3,221.2" fill="#2a8" opacity="0.5" stroke="#2a8" stroke-width="1"/>
<line x1="649.5" y1="170.80544144336994" x2="700.5" y2="170.80544144336994" stroke="#114" stroke-width="2"/>
<circle cx="675.0" cy="206.22446629132833" r="2.4" fill="#114"/>
<text x="675.0" y="137.40351774512618" text-anchor="middle" font-size="11">1.39</text>
<text x="675.0" y="376" text-anchor="middle" font-size="12">zhpmv</text>
<polygon points="757.4,204.9 757.5,204.1 757.8,203.4 758.1,202.6 758.6,201.9 759.1,201.1 759.9,200.3 760.8,199.6 761.9,198.8 763.3,198.1 765.1,197.3 767.2,196.6 769.6,195.8 772.4,195.1 775.5,194.3 778.7,193.5 781.9,192.8 784.9,192.0 787.5,191.3 789.5,190.5 790.9,189.8 791.4,189.0 791.2,188.2 790.2,187.5 788.6,186.7 786.4,186.0 783.9,185.2 781.2,184.5 778.3,183.7 775.6,183.0 772.9,182.2 770.5,181.4 768.4,180.7 766.6,179.9 765.2,179.2 764.3,178.4 763.6,177.7 763.4,176.9 763.4,176.1 763.6,175.4 764.0,174.6 764.4,173.9 764.8,173.1 765.2,172.4 765.5,171.6 765.6,170.9 765.6,170.1 765.6,169.3 765.5,168.6 765.4,167.8 765.3,167.1 765.3,166.3 765.4,165.6 765.5,164.8 765.7,164.0 765.8,163.3 765.8,162.5 765.8,161.8 765.5,161.0 765.0,160.3 764.4,159.5 763.6,158.8 762.7,158.0 761.7,157.2 760.8,156.5 760.0,155.7 759.3,155.0 758.7,154.2 758.2,153.5 757.8,152.7 757.6,151.9 757.4,151.2 756.6,151.2 756.4,151.9 756.2,152.7 755.8,153.5 755.3,154.2 754.7,155.0 754.0,155.7 753.2,156.5 752.3,157.2 751.3,158.0 750.4,158.8 749.6,159.5 749.0,160.3 748.5,161.0 748.2,161.8 748.2,162.5 748.2,163.3 748.3,164.0 748.5,164.8 748.6,165.6 748.7,166.3 748.7,167.1 748.6,167.8 748.5,168.6 748.4,169.3 748.4,170.1 748.4,170.9 748.5,171.6 748.8,172.4 749.2,173.1 749.6,173.9 750.0,174.6 750.4,175.4 750.6,176.1 750.6,176.9 750.4,177.7 749.7,178.4 748.8,179.2 747.4,179.9 745.6,180.7 743.5,181.4 741.1,182.2 738.4,183.0 735.7,183.7 732.8,184.5 730.1,185.2 727.6,186.0 725.4,186.7 723.8,187.5 722.8,188.2 722.6,189.0 723.1,189.8 724.5,190.5 726.5,191.3 729.1,192.0 732.1,192.8 735.3,193.5 738.5,194.3 741.6,195.1 744.4,195.8 746.8,196.6 748.9,197.3 750.7,198.1 752.1,198.8 753.2,199.6 754.1,200.3 754.9,201.1 755.4,201.9 755.9,202.6 756.2,203.4 756.5,204.1 756.6,204.9" fill="#2a8" opacity="0.5" stroke="#2a8" stroke-width="1"/>
<line x1="725.0" y1="186.9055157275813" x2="789.0" y2="186.9055157275813" stroke="#114" stroke-width="2"/>
<circle cx="757.0" cy="191.7955706968208" r="2.4" fill="#114"/>
<text x="757.0" y="150.6060364228519" text-anchor="middle" font-size="11">1.27</text>
<text x="757.0" y="376" text-anchor="middle" font-size="12">zgbmvN</text>
<polygon points="839.0,258.2 839.0,257.3 839.0,256.4 839.0,255.5 839.0,254.6 839.1,253.7 839.1,252.9 839.2,252.0 839.2,251.1 839.1,250.2 839.1,249.3 839.0,248.4 839.0,247.5 839.0,246.6 839.0,245.8 839.1,244.9 839.1,244.0 839.2,243.1 839.2,242.2 839.1,241.3 839.1,240.4 839.2,239.6 839.2,238.7 839.2,237.8 839.1,236.9 839.1,236.0 839.1,235.1 839.1,234.2 839.2,233.3 839.3,232.5 839.4,231.6 839.4,230.7 839.5,229.8 839.6,228.9 839.9,228.0 840.3,227.1 840.8,226.2 841.2,225.4 841.4,224.5 841.6,223.6 842.2,222.7 843.7,221.8 847.0,220.9 852.7,220.0 860.6,219.2 868.6,218.3 873.4,217.4 872.7,216.5 867.0,215.6 859.4,214.7 852.7,213.8 848.2,212.9 845.4,212.1 843.7,211.2 842.9,210.3 843.0,209.4 843.3,208.5 843.1,207.6 842.3,206.7 841.3,205.8 840.6,205.0 840.3,204.1 840.3,203.2 840.2,202.3 839.9,201.4 839.6,200.5 839.3,199.6 839.1,198.8 839.0,197.9 839.0,197.0 839.0,196.1 839.0,195.2 839.0,195.2 839.0,196.1 839.0,197.0 839.0,197.9 838.9,198.8 838.7,199.6 838.4,200.5 838.1,201.4 837.8,202.3 837.7,203.2 837.7,204.1 837.4,205.0 836.7,205.8 835.7,206.7 834.9,207.6 834.7,208.5 835.0,209.4 835.1,210.3 834.3,211.2 832.6,212.1 829.8,212.9 825.3,213.8 818.6,214.7 811.0,215.6 805.3,216.5 804.6,217.4 809.4,218.3 817.4,219.2 825.3,220.0 831.0,220.9 834.3,221.8 835.8,222.7 836.4,223.6 836.6,224.5 836.8,225.4 837.2,226.2 837.7,227.1 838.1,228.0 838.4,228.9 838.5,229.8 838.6,230.7 838.6,231.6 838.7,232.5 838.8,233.3 838.9,234.2 838.9,235.1 838.9,236.0 838.9,236.9 838.8,237.8 838.8,238.7 838.8,239.6 838.9,240.4 838.9,241.3 838.8,242.2 838.8,243.1 838.9,244.0 838.9,244.9 839.0,245.8 839.0,246.6 839.0,247.5 839.0,248.4 838.9,249.3 838.9,250.2 838.8,251.1 838.8,252.0 838.9,252.9 838.9,253.7 839.0,254.6 839.0,255.5 839.0,256.4 839.0,257.3 839.0,258.2" fill="#2a8" opacity="0.5" stroke="#2a8" stroke-width="1"/>
<line x1="804.1" y1="217.0219920089479" x2="873.9" y2="217.0219920089479" stroke="#114" stroke-width="2"/>
<circle cx="839.0" cy="217.8085121729609" r="2.4" fill="#114"/>
<text x="839.0" y="195.5159467456263" text-anchor="middle" font-size="11">1.05</text>
<text x="839.0" y="376" text-anchor="middle" font-size="12">zhbmv</text>
<text x="450.0" y="428" text-anchor="middle" font-size="11" fill="#666">violin = ratio distribution over sizes · line = median · dark dot = worst size · green = every size ≥ gate</text>
</svg>
