<svg xmlns="http://www.w3.org/2000/svg" width="900" height="460" font-family="sans-serif">
<rect width="900" height="460" fill="white"/>
<text x="450.0" y="28" text-anchor="middle" font-size="18" font-weight="bold">BLAS-3: PureBLAS / OpenBLAS (AVX-512, 1 thread, Float64)</text>
<line x1="62" y1="400.0" x2="768" y2="400.0" stroke="#eee"/>
<text x="54" y="404.0" text-anchor="end" font-size="11" fill="#666">0.5×</text>
<line x1="62" y1="326.7924487747123" x2="768" y2="326.7924487747123" stroke="#eee"/>
<text x="54" y="330.7924487747123" text-anchor="end" font-size="11" fill="#666">0.7×</text>
<line x1="62" y1="249.189317261171" x2="768" y2="249.189317261171" stroke="#eee"/>
<text x="54" y="253.189317261171" text-anchor="end" font-size="11" fill="#666">1.0×</text>
<line x1="62" y1="160.9707231508007" x2="768" y2="160.9707231508007" stroke="#eee"/>
<text x="54" y="164.9707231508007" text-anchor="end" font-size="11" fill="#666">1.5×</text>
<line x1="62" y1="98.37863452234197" x2="768" y2="98.37863452234197" stroke="#eee"/>
<text x="54" y="102.37863452234197" text-anchor="end" font-size="11" fill="#666">2.0×</text>
<line x1="62.0" y1="50" x2="62.0" y2="400" stroke="#f4f4f4"/>
<text x="62.0" y="418" text-anchor="middle" font-size="11" fill="#444">8</text>
<line x1="238.5" y1="50" x2="238.5" y2="400" stroke="#f4f4f4"/>
<text x="238.5" y="418" text-anchor="middle" font-size="11" fill="#444">32</text>
<line x1="415.0" y1="50" x2="415.0" y2="400" stroke="#f4f4f4"/>
<text x="415.0" y="418" text-anchor="middle" font-size="11" fill="#444">128</text>
<line x1="503.25" y1="50" x2="503.25" y2="400" stroke="#f4f4f4"/>
<text x="503.25" y="418" text-anchor="middle" font-size="11" fill="#444">256</text>
<line x1="591.5" y1="50" x2="591.5" y2="400" stroke="#f4f4f4"/>
<text x="591.5" y="418" text-anchor="middle" font-size="11" fill="#444">512</text>
<line x1="679.75" y1="50" x2="679.75" y2="400" stroke="#f4f4f4"/>
<text x="679.75" y="418" text-anchor="middle" font-size="11" fill="#444">1024</text>
<line x1="768.0" y1="50" x2="768.0" y2="400" stroke="#f4f4f4"/>
<text x="768.0" y="418" text-anchor="middle" font-size="11" fill="#444">2048</text>
<line x1="62" y1="249.189317261171" x2="768" y2="249.189317261171" stroke="#888"/>
<line x1="62" y1="258.07111471634795" x2="768" y2="258.07111471634795" stroke="#d33" stroke-width="1.5" stroke-dasharray="6 4"/>
<text x="66" y="253.07111471634795" font-size="11" fill="#d33">0.96× gate</text>
<polygon points="62.0,234.1 238.5,275.3 415.0,190.5 503.2,223.9 591.5,228.5 679.8,240.4 768.0,250.0 768.0,255.8 679.8,246.9 591.5,249.4 503.2,271.1 415.0,212.7 238.5,291.7 62.0,240.8" fill="#1f77b4" opacity="0.14" stroke="none"/>
<polyline points="62.0,239.6 238.5,280.6 415.0,203.7 503.2,233.0 591.5,243.5 679.8,244.7 768.0,254.0" fill="none" stroke="#1f77b4" stroke-width="2"/>
<circle cx="62.0" cy="239.6" r="3" fill="#1f77b4"/>
<circle cx="238.5" cy="280.6" r="3" fill="#1f77b4"/>
<circle cx="415.0" cy="203.7" r="3" fill="#1f77b4"/>
<circle cx="503.2" cy="233.0" r="3" fill="#1f77b4"/>
<circle cx="591.5" cy="243.5" r="3" fill="#1f77b4"/>
<circle cx="679.8" cy="244.7" r="3" fill="#1f77b4"/>
<circle cx="768.0" cy="254.0" r="3" fill="#1f77b4"/>
<line x1="782" y1="56" x2="802" y2="56" stroke="#1f77b4" stroke-width="3"/>
<text x="806" y="60" font-size="12">gemm</text>
<polygon points="62.0,136.7 238.5,177.4 415.0,193.1 503.2,193.5 591.5,213.7 679.8,221.1 768.0,225.8 768.0,226.8 679.8,224.9 591.5,218.1 503.2,204.7 415.0,214.0 238.5,196.5 62.0,155.2" fill="#d62728" opacity="0.14" stroke="none"/>
<polyline points="62.0,145.2 238.5,186.8 415.0,207.8 503.2,201.8 591.5,216.8 679.8,222.9 768.0,226.3" fill="none" stroke="#d62728" stroke-width="2"/>
<circle cx="62.0" cy="145.2" r="3" fill="#d62728"/>
<circle cx="238.5" cy="186.8" r="3" fill="#d62728"/>
<circle cx="415.0" cy="207.8" r="3" fill="#d62728"/>
<circle cx="503.2" cy="201.8" r="3" fill="#d62728"/>
<circle cx="591.5" cy="216.8" r="3" fill="#d62728"/>
<circle cx="679.8" cy="222.9" r="3" fill="#d62728"/>
<circle cx="768.0" cy="226.3" r="3" fill="#d62728"/>
<line x1="782" y1="74" x2="802" y2="74" stroke="#d62728" stroke-width="3"/>
<text x="806" y="78" font-size="12">zgemm</text>
<polygon points="62.0,204.4 238.5,200.3 415.0,215.4 503.2,234.9 591.5,227.6 679.8,233.0 768.0,248.8 768.0,252.2 679.8,242.6 591.5,256.6 503.2,262.0 415.0,236.9 238.5,213.6 62.0,216.8" fill="#2ca02c" opacity="0.14" stroke="none"/>
<polyline points="62.0,213.6 238.5,208.6 415.0,227.6 503.2,254.1 591.5,228.1 679.8,238.8 768.0,250.0" fill="none" stroke="#2ca02c" stroke-width="2"/>
<circle cx="62.0" cy="213.6" r="3" fill="#2ca02c"/>
<circle cx="238.5" cy="208.6" r="3" fill="#2ca02c"/>
<circle cx="415.0" cy="227.6" r="3" fill="#2ca02c"/>
<circle cx="503.2" cy="254.1" r="3" fill="#2ca02c"/>
<circle cx="591.5" cy="228.1" r="3" fill="#2ca02c"/>
<circle cx="679.8" cy="238.8" r="3" fill="#2ca02c"/>
<circle cx="768.0" cy="250.0" r="3" fill="#2ca02c"/>
<line x1="782" y1="92" x2="802" y2="92" stroke="#2ca02c" stroke-width="3"/>
<text x="806" y="96" font-size="12">symm</text>
<polygon points="62.0,189.5 238.5,201.3 415.0,200.0 503.2,233.6 591.5,190.4 679.8,231.5 768.0,252.3 768.0,256.8 679.8,248.0 591.5,213.8 503.2,249.0 415.0,211.2 238.5,219.9 62.0,191.4" fill="#9467bd" opacity="0.14" stroke="none"/>
<polyline points="62.0,190.7 238.5,214.1 415.0,204.0 503.2,241.2 591.5,205.8 679.8,241.0 768.0,255.0" fill="none" stroke="#9467bd" stroke-width="2"/>
<circle cx="62.0" cy="190.7" r="3" fill="#9467bd"/>
<circle cx="238.5" cy="214.1" r="3" fill="#9467bd"/>
<circle cx="415.0" cy="204.0" r="3" fill="#9467bd"/>
<circle cx="503.2" cy="241.2" r="3" fill="#9467bd"/>
<circle cx="591.5" cy="205.8" r="3" fill="#9467bd"/>
<circle cx="679.8" cy="241.0" r="3" fill="#9467bd"/>
<circle cx="768.0" cy="255.0" r="3" fill="#9467bd"/>
<line x1="782" y1="110" x2="802" y2="110" stroke="#9467bd" stroke-width="3"/>
<text x="806" y="114" font-size="12">syrk</text>
<polygon points="62.0,155.9 238.5,175.6 415.0,198.3 503.2,199.8 591.5,221.2 679.8,246.5 768.0,258.1 768.0,260.8 679.8,255.6 591.5,234.9 503.2,233.3 415.0,211.8 238.5,192.6 62.0,169.5" fill="#ff7f0e" opacity="0.14" stroke="none"/>
<polyline points="62.0,158.1 238.5,181.6 415.0,200.8 503.2,223.4 591.5,223.8 679.8,252.2 768.0,259.3" fill="none" stroke="#ff7f0e" stroke-width="2"/>
<circle cx="62.0" cy="158.1" r="3" fill="#ff7f0e"/>
<circle cx="238.5" cy="181.6" r="3" fill="#ff7f0e"/>
<circle cx="415.0" cy="200.8" r="3" fill="#ff7f0e"/>
<circle cx="503.2" cy="223.4" r="3" fill="#ff7f0e"/>
<circle cx="591.5" cy="223.8" r="3" fill="#ff7f0e"/>
<circle cx="679.8" cy="252.2" r="3" fill="#ff7f0e"/>
<circle cx="768.0" cy="259.3" r="3" fill="#ff7f0e"/>
<line x1="782" y1="128" x2="802" y2="128" stroke="#ff7f0e" stroke-width="3"/>
<text x="806" y="132" font-size="12">syr2k</text>
<polygon points="62.0,180.5 238.5,209.4 415.0,195.9 503.2,219.5 591.5,222.1 679.8,239.1 768.0,250.8 768.0,254.2 679.8,250.0 591.5,242.9 503.2,235.0 415.0,200.6 238.5,225.5 62.0,225.0" fill="#17becf" opacity="0.14" stroke="none"/>
<polyline points="62.0,213.3 238.5,221.3 415.0,198.3 503.2,226.2 591.5,234.7 679.8,248.1 768.0,252.2" fill="none" stroke="#17becf" stroke-width="2"/>
<circle cx="62.0" cy="213.3" r="3" fill="#17becf"/>
<circle cx="238.5" cy="221.3" r="3" fill="#17becf"/>
<circle cx="415.0" cy="198.3" r="3" fill="#17becf"/>
<circle cx="503.2" cy="226.2" r="3" fill="#17becf"/>
<circle cx="591.5" cy="234.7" r="3" fill="#17becf"/>
<circle cx="679.8" cy="248.1" r="3" fill="#17becf"/>
<circle cx="768.0" cy="252.2" r="3" fill="#17becf"/>
<line x1="782" y1="146" x2="802" y2="146" stroke="#17becf" stroke-width="3"/>
<text x="806" y="150" font-size="12">trmm</text>
<polygon points="62.0,158.3 238.5,88.6 415.0,70.9 503.2,76.6 591.5,168.3 679.8,194.4 768.0,232.5 768.0,239.7 679.8,205.5 591.5,182.0 503.2,108.6 415.0,95.3 238.5,108.9 62.0,167.4" fill="#8c564b" opacity="0.14" stroke="none"/>
<polyline points="62.0,166.2 238.5,94.6 415.0,80.4 503.2,101.2 591.5,174.8 679.8,199.5 768.0,237.3" fill="none" stroke="#8c564b" stroke-width="2"/>
<circle cx="62.0" cy="166.2" r="3" fill="#8c564b"/>
<circle cx="238.5" cy="94.6" r="3" fill="#8c564b"/>
<circle cx="415.0" cy="80.4" r="3" fill="#8c564b"/>
<circle cx="503.2" cy="101.2" r="3" fill="#8c564b"/>
<circle cx="591.5" cy="174.8" r="3" fill="#8c564b"/>
<circle cx="679.8" cy="199.5" r="3" fill="#8c564b"/>
<circle cx="768.0" cy="237.3" r="3" fill="#8c564b"/>
<line x1="782" y1="164" x2="802" y2="164" stroke="#8c564b" stroke-width="3"/>
<text x="806" y="168" font-size="12">trsm</text>
<text x="415.0" y="450" text-anchor="middle" font-size="11" fill="#666">matrix size n (log) · y = median ratio (log) · dashed = the 0.96× gate</text>
</svg>
