<svg xmlns="http://www.w3.org/2000/svg" width="900" height="440" font-family="sans-serif">
<rect width="900" height="440" fill="white"/>
<text x="450.0" y="28" text-anchor="middle" font-size="18" font-weight="bold">BLAS-1: PureBLAS / OpenBLAS (AVX-512, 1 thread, Float64)</text>
<line x1="60" y1="358.0" x2="880" y2="358.0" stroke="#eee"/>
<text x="52" y="362.0" text-anchor="end" font-size="11" fill="#666">0×</text>
<line x1="60" y1="347.9057662169153" x2="880" y2="347.9057662169153" stroke="#eee"/>
<text x="52" y="351.9057662169153" text-anchor="end" font-size="11" fill="#666">0.5×</text>
<line x1="60" y1="337.8115324338306" x2="880" y2="337.8115324338306" stroke="#eee"/>
<text x="52" y="341.8115324338306" text-anchor="end" font-size="11" fill="#666">1×</text>
<line x1="60" y1="327.71729865074593" x2="880" y2="327.71729865074593" stroke="#eee"/>
<text x="52" y="331.71729865074593" text-anchor="end" font-size="11" fill="#666">1.5×</text>
<line x1="60" y1="337.8115324338306" x2="880" y2="337.8115324338306" stroke="#888" stroke-width="1"/>
<line x1="60" y1="338.61907113647743" x2="880" y2="338.61907113647743" stroke="#d33" stroke-width="1.5" stroke-dasharray="6 4"/>
<text x="880" y="333.61907113647743" text-anchor="end" font-size="11" fill="#d33">0.96× gate</text>
<polygon points="128.5,344.8 128.6,344.6 128.7,344.4 128.8,344.2 129.0,343.9 129.1,343.7 129.3,343.5 129.4,343.3 129.5,343.1 129.6,342.9 129.8,342.7 130.1,342.5 130.5,342.3 131.1,342.0 131.9,341.8 132.8,341.6 133.8,341.4 134.9,341.2 136.2,341.0 137.7,340.8 139.4,340.6 141.4,340.4 143.7,340.1 146.3,339.9 149.3,339.7 152.7,339.5 156.5,339.3 160.7,339.1 165.4,338.9 170.3,338.7 175.2,338.5 179.7,338.2 183.2,338.0 185.3,337.8 185.7,337.6 184.4,337.4 181.5,337.2 177.5,337.0 173.1,336.8 168.6,336.6 164.4,336.3 160.7,336.1 157.5,335.9 154.6,335.7 152.0,335.5 149.5,335.3 147.1,335.1 145.0,334.9 143.1,334.7 141.5,334.4 140.3,334.2 139.4,334.0 138.6,333.8 138.0,333.6 137.4,333.4 136.7,333.2 136.1,333.0 135.4,332.8 134.7,332.5 134.1,332.3 133.4,332.1 132.9,331.9 132.3,331.7 131.8,331.5 131.2,331.3 130.7,331.1 130.2,330.9 129.7,330.6 129.3,330.4 129.0,330.2 128.7,330.0 128.6,329.8 128.1,329.8 127.9,330.0 127.7,330.2 127.4,330.4 127.0,330.6 126.5,330.9 126.0,331.1 125.5,331.3 124.9,331.5 124.4,331.7 123.8,331.9 123.2,332.1 122.6,332.3 122.0,332.5 121.3,332.8 120.6,333.0 119.9,333.2 119.3,333.4 118.7,333.6 118.0,333.8 117.3,334.0 116.3,334.2 115.1,334.4 113.6,334.7 111.7,334.9 109.5,335.1 107.2,335.3 104.7,335.5 102.0,335.7 99.2,335.9 95.9,336.1 92.3,336.3 88.1,336.6 83.6,336.8 79.1,337.0 75.2,337.2 72.3,337.4 70.9,337.6 71.3,337.8 73.4,338.0 77.0,338.2 81.4,338.5 86.4,338.7 91.3,338.9 95.9,339.1 100.2,339.3 103.9,339.5 107.3,339.7 110.3,339.9 113.0,340.1 115.3,340.4 117.3,340.6 119.0,340.8 120.5,341.0 121.8,341.2 122.9,341.4 123.9,341.6 124.8,341.8 125.5,342.0 126.1,342.3 126.6,342.5 126.9,342.7 127.1,342.9 127.2,343.1 127.3,343.3 127.4,343.5 127.5,343.7 127.7,343.9 127.8,344.2 128.0,344.4 128.1,344.6 128.2,344.8" fill="#2a8" opacity="0.5" stroke="#2a8" stroke-width="1"/>
<line x1="70.9" y1="337.6157051747047" x2="185.8" y2="337.6157051747047" stroke="#114" stroke-width="2"/>
<circle cx="128.33333333333331" cy="338.04130656135834" r="2.4" fill="#114"/>
<text x="128.33333333333331" y="325.28038966603754" text-anchor="middle" font-size="11">1.01</text>
<text x="128.33333333333331" y="376" text-anchor="middle" font-size="12">axpy</text>
<polygon points="265.1,345.7 265.1,345.5 265.2,345.2 265.3,345.0 265.5,344.8 265.6,344.5 265.7,344.3 265.8,344.1 265.8,343.8 265.8,343.6 265.8,343.3 265.9,343.1 266.2,342.9 266.5,342.6 266.9,342.4 267.4,342.1 267.9,341.9 268.5,341.7 269.0,341.4 269.6,341.2 270.2,340.9 271.0,340.7 271.9,340.5 273.0,340.2 274.4,340.0 276.3,339.7 278.8,339.5 282.3,339.3 286.9,339.0 292.9,338.8 300.1,338.5 307.9,338.3 315.0,338.1 320.2,337.8 322.4,337.6 321.1,337.3 316.7,337.1 310.2,336.9 302.8,336.6 295.7,336.4 289.4,336.2 284.5,335.9 280.8,335.7 278.2,335.4 276.5,335.2 275.4,335.0 274.7,334.7 274.1,334.5 273.7,334.2 273.1,334.0 272.4,333.8 271.5,333.5 270.5,333.3 269.5,333.0 268.5,332.8 267.8,332.6 267.3,332.3 267.0,332.1 266.8,331.8 266.7,331.6 266.5,331.4 266.4,331.1 266.3,330.9 266.2,330.6 266.0,330.4 265.9,330.2 265.7,329.9 265.5,329.7 265.3,329.5 265.2,329.2 265.1,329.0 265.1,328.7 264.9,328.7 264.9,329.0 264.8,329.2 264.7,329.5 264.5,329.7 264.3,329.9 264.1,330.2 264.0,330.4 263.8,330.6 263.7,330.9 263.6,331.1 263.5,331.4 263.3,331.6 263.2,331.8 263.0,332.1 262.7,332.3 262.2,332.6 261.5,332.8 260.5,333.0 259.5,333.3 258.5,333.5 257.6,333.8 256.9,334.0 256.3,334.2 255.9,334.5 255.3,334.7 254.6,335.0 253.5,335.2 251.8,335.4 249.2,335.7 245.5,335.9 240.6,336.2 234.3,336.4 227.2,336.6 219.8,336.9 213.3,337.1 208.9,337.3 207.6,337.6 209.8,337.8 215.0,338.1 222.1,338.3 229.9,338.5 237.1,338.8 243.1,339.0 247.7,339.3 251.2,339.5 253.7,339.7 255.6,340.0 257.0,340.2 258.1,340.5 259.0,340.7 259.8,340.9 260.4,341.2 261.0,341.4 261.5,341.7 262.1,341.9 262.6,342.1 263.1,342.4 263.5,342.6 263.8,342.9 264.1,343.1 264.2,343.3 264.2,343.6 264.2,343.8 264.2,344.1 264.3,344.3 264.4,344.5 264.5,344.8 264.7,345.0 264.8,345.2 264.9,345.5 264.9,345.7" fill="#2a8" opacity="0.5" stroke="#2a8" stroke-width="1"/>
<line x1="207.6" y1="337.57846485661673" x2="322.4" y2="337.57846485661673" stroke="#114" stroke-width="2"/>
<circle cx="265.0" cy="337.80659819824405" r="2.4" fill="#114"/>
<text x="265.0" y="324.4104603963383" text-anchor="middle" font-size="11">1.01</text>
<text x="265.0" y="376" text-anchor="middle" font-size="12">dot</text>
<polygon points="405.7,340.6 407.2,336.5 408.9,332.5 411.0,328.4 413.5,324.3 416.3,320.2 419.5,316.1 423.0,312.0 426.7,307.9 430.6,303.8 434.5,299.7 438.4,295.6 442.2,291.5 445.7,287.4 448.9,283.3 451.8,279.2 454.2,275.1 456.2,271.0 457.7,267.0 458.7,262.9 459.1,258.8 458.9,254.7 458.3,250.6 457.1,246.5 455.4,242.4 453.4,238.3 451.1,234.2 448.5,230.1 445.7,226.0 442.9,221.9 440.2,217.8 437.4,213.7 434.8,209.6 432.3,205.6 429.9,201.5 427.7,197.4 425.6,193.3 423.6,189.2 421.8,185.1 420.1,181.0 418.6,176.9 417.2,172.8 416.0,168.7 415.0,164.6 414.2,160.5 413.6,156.4 413.2,152.3 413.0,148.2 413.0,144.2 413.2,140.1 413.6,136.0 414.1,131.9 414.7,127.8 415.3,123.7 415.9,119.6 416.4,115.5 416.8,111.4 417.0,107.3 417.0,103.2 416.8,99.1 416.3,95.0 415.5,90.9 414.6,86.8 413.5,82.7 412.3,78.7 411.0,74.6 409.8,70.5 408.5,66.4 407.4,62.3 406.4,58.2 405.4,54.1 404.6,50.0 398.7,50.0 397.9,54.1 397.0,58.2 395.9,62.3 394.8,66.4 393.6,70.5 392.3,74.6 391.0,78.7 389.8,82.7 388.7,86.8 387.8,90.9 387.1,95.0 386.6,99.1 386.3,103.2 386.3,107.3 386.5,111.4 386.9,115.5 387.4,119.6 388.0,123.7 388.7,127.8 389.3,131.9 389.8,136.0 390.1,140.1 390.3,144.2 390.3,148.2 390.1,152.3 389.7,156.4 389.1,160.5 388.3,164.6 387.3,168.7 386.1,172.8 384.7,176.9 383.2,181.0 381.5,185.1 379.7,189.2 377.7,193.3 375.6,197.4 373.4,201.5 371.0,205.6 368.5,209.6 365.9,213.7 363.2,217.8 360.4,221.9 357.6,226.0 354.9,230.1 352.3,234.2 349.9,238.3 347.9,242.4 346.2,246.5 345.1,250.6 344.4,254.7 344.3,258.8 344.7,262.9 345.6,267.0 347.1,271.0 349.1,275.1 351.5,279.2 354.4,283.3 357.6,287.4 361.1,291.5 364.9,295.6 368.8,299.7 372.7,303.8 376.6,307.9 380.3,312.0 383.8,316.1 387.0,320.2 389.8,324.3 392.3,328.4 394.4,332.5 396.2,336.5 397.6,340.6" fill="#2a8" opacity="0.5" stroke="#2a8" stroke-width="1"/>
<line x1="346.6" y1="245.46791133887112" x2="456.7" y2="245.46791133887112" stroke="#114" stroke-width="2"/>
<circle cx="401.66666666666663" cy="284.98819092891927" r="2.4" fill="#114"/>
<text x="401.66666666666663" y="61.433962264150935" text-anchor="middle" font-size="11">5.57</text>
<text x="401.66666666666663" y="376" text-anchor="middle" font-size="12">nrm2</text>
<polygon points="538.6,346.0 538.7,345.7 538.9,345.4 539.2,345.1 539.5,344.9 539.8,344.6 540.2,344.3 540.4,344.0 540.6,343.8 540.7,343.5 540.7,343.2 540.6,342.9 540.5,342.6 540.5,342.4 540.5,342.1 540.8,341.8 541.2,341.5 542.0,341.3 543.2,341.0 544.9,340.7 547.2,340.4 550.2,340.1 554.1,339.9 559.0,339.6 564.7,339.3 571.2,339.0 577.9,338.8 584.3,338.5 589.7,338.2 593.5,337.9 595.5,337.6 595.7,337.4 594.6,337.1 592.6,336.8 590.2,336.5 587.9,336.3 585.7,336.0 583.7,335.7 581.7,335.4 579.6,335.1 577.1,334.9 574.4,334.6 571.3,334.3 567.9,334.0 564.4,333.8 560.8,333.5 557.4,333.2 554.4,332.9 551.9,332.6 550.0,332.4 548.7,332.1 548.0,331.8 547.7,331.5 547.6,331.2 547.5,331.0 547.3,330.7 547.0,330.4 546.4,330.1 545.6,329.9 544.7,329.6 543.8,329.3 543.0,329.0 542.2,328.7 541.4,328.5 540.8,328.2 540.3,327.9 539.8,327.6 539.4,327.4 539.1,327.1 538.9,326.8 538.7,326.5 538.5,326.2 538.1,326.2 538.0,326.5 537.8,326.8 537.6,327.1 537.2,327.4 536.8,327.6 536.4,327.9 535.8,328.2 535.2,328.5 534.5,328.7 533.7,329.0 532.8,329.3 531.9,329.6 531.1,329.9 530.3,330.1 529.7,330.4 529.3,330.7 529.1,331.0 529.1,331.2 529.0,331.5 528.7,331.8 527.9,332.1 526.7,332.4 524.8,332.6 522.3,332.9 519.2,333.2 515.8,333.5 512.3,333.8 508.7,334.0 505.4,334.3 502.3,334.6 499.5,334.9 497.1,335.1 495.0,335.4 493.0,335.7 491.0,336.0 488.8,336.3 486.5,336.5 484.1,336.8 482.1,337.1 480.9,337.4 481.2,337.6 483.2,337.9 487.0,338.2 492.4,338.5 498.8,338.8 505.5,339.0 511.9,339.3 517.7,339.6 522.5,339.9 526.4,340.1 529.5,340.4 531.8,340.7 533.5,341.0 534.7,341.3 535.5,341.5 535.9,341.8 536.1,342.1 536.2,342.4 536.1,342.6 536.0,342.9 536.0,343.2 536.0,343.5 536.1,343.8 536.2,344.0 536.5,344.3 536.8,344.6 537.2,344.9 537.5,345.1 537.7,345.4 537.9,345.7 538.1,346.0" fill="#2a8" opacity="0.5" stroke="#2a8" stroke-width="1"/>
<line x1="486.6" y1="336.51807048747304" x2="590.1" y2="336.51807048747304" stroke="#114" stroke-width="2"/>
<circle cx="538.3333333333333" cy="337.95472246836226" r="2.4" fill="#114"/>
<text x="538.3333333333333" y="322.18802953637027" text-anchor="middle" font-size="11">1.06</text>
<text x="538.3333333333333" y="376" text-anchor="middle" font-size="12">asum</text>
<polygon points="675.1,343.5 675.2,343.3 675.3,343.0 675.5,342.8 675.7,342.5 675.8,342.3 675.9,342.1 676.0,341.8 676.0,341.6 676.0,341.4 676.0,341.1 676.0,340.9 676.2,340.6 676.5,340.4 677.1,340.2 677.9,339.9 679.1,339.7 680.8,339.5 683.1,339.2 686.0,339.0 689.7,338.7 693.8,338.5 698.1,338.3 702.5,338.0 706.6,337.8 710.4,337.6 714.0,337.3 717.4,337.1 720.8,336.9 724.2,336.6 727.4,336.4 730.1,336.1 731.9,335.9 732.4,335.7 731.6,335.4 729.4,335.2 726.3,335.0 722.4,334.7 718.3,334.5 714.1,334.2 710.1,334.0 706.2,333.8 702.5,333.5 699.0,333.3 695.8,333.1 692.7,332.8 689.9,332.6 687.4,332.3 685.1,332.1 683.2,331.9 681.5,331.6 680.3,331.4 679.4,331.2 678.8,330.9 678.5,330.7 678.4,330.5 678.5,330.2 678.6,330.0 678.8,329.7 678.9,329.5 679.0,329.3 678.9,329.0 678.7,328.8 678.3,328.6 677.9,328.3 677.3,328.1 676.8,327.8 676.3,327.6 675.8,327.4 675.5,327.1 675.3,326.9 675.2,326.7 674.8,326.7 674.7,326.9 674.5,327.1 674.2,327.4 673.7,327.6 673.2,327.8 672.7,328.1 672.1,328.3 671.7,328.6 671.3,328.8 671.1,329.0 671.0,329.3 671.1,329.5 671.2,329.7 671.4,330.0 671.5,330.2 671.6,330.5 671.5,330.7 671.2,330.9 670.6,331.2 669.7,331.4 668.5,331.6 666.8,331.9 664.9,332.1 662.6,332.3 660.1,332.6 657.3,332.8 654.2,333.1 651.0,333.3 647.5,333.5 643.8,333.8 639.9,334.0 635.9,334.2 631.7,334.5 627.6,334.7 623.7,335.0 620.6,335.2 618.4,335.4 617.6,335.7 618.1,335.9 619.9,336.1 622.6,336.4 625.8,336.6 629.2,336.9 632.6,337.1 636.0,337.3 639.6,337.6 643.4,337.8 647.5,338.0 651.9,338.3 656.2,338.5 660.3,338.7 664.0,339.0 666.9,339.2 669.2,339.5 670.9,339.7 672.1,339.9 672.9,340.2 673.5,340.4 673.8,340.6 674.0,340.9 674.0,341.1 674.0,341.4 674.0,341.6 674.0,341.8 674.1,342.1 674.2,342.3 674.3,342.5 674.5,342.8 674.7,343.0 674.8,343.3 674.9,343.5" fill="#2a8" opacity="0.5" stroke="#2a8" stroke-width="1"/>
<line x1="617.7" y1="335.6063806154917" x2="732.3" y2="335.6063806154917" stroke="#114" stroke-width="2"/>
<circle cx="675.0" cy="337.695888832214" r="2.4" fill="#114"/>
<text x="675.0" y="322.3206262983015" text-anchor="middle" font-size="11">1.11</text>
<text x="675.0" y="376" text-anchor="middle" font-size="12">scal</text>
<polygon points="814.0,348.0 815.0,347.5 816.3,347.0 818.0,346.5 820.0,346.0 822.4,345.5 825.2,345.0 828.4,344.5 831.8,344.0 835.4,343.4 839.0,342.9 842.7,342.4 846.2,341.9 849.4,341.4 852.4,340.9 855.1,340.4 857.4,339.9 859.4,339.4 861.0,338.9 862.3,338.3 863.3,337.8 864.1,337.3 864.7,336.8 865.2,336.3 865.6,335.8 866.1,335.3 866.6,334.8 867.1,334.3 867.6,333.7 868.0,333.2 868.4,332.7 868.8,332.2 869.0,331.7 869.1,331.2 869.1,330.7 869.0,330.2 868.9,329.7 868.7,329.1 868.5,328.6 868.2,328.1 867.9,327.6 867.4,327.1 866.8,326.6 866.0,326.1 865.1,325.6 864.0,325.1 862.7,324.5 861.2,324.0 859.5,323.5 857.4,323.0 855.1,322.5 852.5,322.0 849.6,321.5 846.5,321.0 843.3,320.5 840.0,319.9 836.7,319.4 833.5,318.9 830.5,318.4 827.8,317.9 825.3,317.4 823.1,316.9 821.2,316.4 819.5,315.9 818.1,315.3 816.9,314.8 815.8,314.3 815.0,313.8 814.2,313.3 813.6,312.8 813.1,312.3 812.7,311.8 810.6,311.8 810.2,312.3 809.7,312.8 809.1,313.3 808.4,313.8 807.5,314.3 806.5,314.8 805.2,315.3 803.8,315.9 802.1,316.4 800.2,316.9 798.0,317.4 795.6,317.9 792.8,318.4 789.8,318.9 786.7,319.4 783.4,319.9 780.1,320.5 776.8,321.0 773.7,321.5 770.8,322.0 768.2,322.5 765.9,323.0 763.9,323.5 762.1,324.0 760.6,324.5 759.3,325.1 758.2,325.6 757.3,326.1 756.5,326.6 755.9,327.1 755.4,327.6 755.1,328.1 754.8,328.6 754.6,329.1 754.5,329.7 754.3,330.2 754.3,330.7 754.3,331.2 754.4,331.7 754.6,332.2 754.9,332.7 755.3,333.2 755.8,333.7 756.3,334.3 756.8,334.8 757.3,335.3 757.7,335.8 758.2,336.3 758.7,336.8 759.3,337.3 760.0,337.8 761.0,338.3 762.3,338.9 763.9,339.4 765.9,339.9 768.2,340.4 770.9,340.9 773.9,341.4 777.2,341.9 780.7,342.4 784.3,342.9 788.0,343.4 791.6,344.0 795.0,344.5 798.1,345.0 800.9,345.5 803.3,346.0 805.3,346.5 807.0,347.0 808.3,347.5 809.3,348.0" fill="#2a8" opacity="0.5" stroke="#2a8" stroke-width="1"/>
<line x1="754.3" y1="331.6040636881818" x2="869.0" y2="331.6040636881818" stroke="#114" stroke-width="2"/>
<circle cx="811.6666666666666" cy="334.43995567795656" r="2.4" fill="#114"/>
<text x="811.6666666666666" y="309.3130244403162" text-anchor="middle" font-size="11">1.31</text>
<text x="811.6666666666666" y="376" text-anchor="middle" font-size="12">iamax</text>
<text x="450.0" y="428" text-anchor="middle" font-size="11" fill="#666">violin = ratio distribution over sizes · line = median · dark dot = worst size · green = every size ≥ gate</text>
</svg>
