<svg xmlns="http://www.w3.org/2000/svg" width="962" height="420" font-family="sans-serif">
<rect width="962" height="420" fill="white"/>
<text x="481.0" y="26" text-anchor="middle" font-size="17" font-weight="bold">BLAS-3 — PureBLAS / OpenBLAS (PB/OpenBLAS ratio)</text>
<line x1="46" y1="42" x2="68" y2="42" stroke="#d62728" stroke-width="3"/>
<text x="73" y="46" font-size="12">Zen3 · AVX2</text>
<line x1="176" y1="42" x2="198" y2="42" stroke="#2ca02c" stroke-width="3"/>
<text x="203" y="46" font-size="12">Zen5 · AVX-512</text>
<line x1="327" y1="42" x2="349" y2="42" stroke="#1f77b4" stroke-width="3"/>
<text x="354" y="46" font-size="12">Zen4 · AVX-512</text>
<rect x="46" y="60" width="210" height="138" fill="none" stroke="#e2e2e2"/>
<line x1="46" y1="131.31928478627367" x2="256" y2="131.31928478627367" stroke="#bbb"/>
<line x1="46" y1="135.24635809394044" x2="256" y2="135.24635809394044" stroke="#d33" stroke-dasharray="4 3"/>
<text x="42" y="201.0" text-anchor="end" font-size="9" fill="#999">0.5×</text>
<text x="42" y="134.31928478627367" text-anchor="end" font-size="9" fill="#999">1.0×</text>
<polygon points="46.0,67.4 92.7,98.5 139.3,121.1 162.7,127.5 186.0,123.2 209.3,120.0 232.7,112.8 256.0,100.5 256.0,103.9 232.7,115.3 209.3,121.7 186.0,126.1 162.7,129.5 139.3,122.7 92.7,102.0 46.0,68.3" fill="#d62728" opacity="0.11"/>
<polyline points="46.0,67.7 92.7,99.3 139.3,122.1 162.7,128.8 186.0,124.2 209.3,121.0 232.7,113.6 256.0,102.2" fill="none" stroke="#d62728" stroke-width="1.6"/>
<circle cx="46.0" cy="67.7" r="2" fill="#d62728"/>
<circle cx="92.7" cy="99.3" r="2" fill="#d62728"/>
<circle cx="139.3" cy="122.1" r="2" fill="#d62728"/>
<circle cx="162.7" cy="128.8" r="2" fill="#d62728"/>
<circle cx="186.0" cy="124.2" r="2" fill="#d62728"/>
<circle cx="209.3" cy="121.0" r="2" fill="#d62728"/>
<circle cx="232.7" cy="113.6" r="2" fill="#d62728"/>
<circle cx="256.0" cy="102.2" r="2" fill="#d62728"/>
<polygon points="46.0,108.7 92.7,126.2 139.3,103.1 162.7,112.0 186.0,118.5 209.3,119.0 232.7,111.5 256.0,101.9 256.0,102.1 232.7,112.0 209.3,120.7 186.0,119.5 162.7,113.7 139.3,104.7 92.7,131.7 46.0,119.3" fill="#2ca02c" opacity="0.11"/>
<polyline points="46.0,117.2 92.7,130.4 139.3,104.2 162.7,112.4 186.0,118.8 209.3,120.1 232.7,111.9 256.0,102.0" fill="none" stroke="#2ca02c" stroke-width="1.6"/>
<circle cx="46.0" cy="117.2" r="2" fill="#2ca02c"/>
<circle cx="92.7" cy="130.4" r="2" fill="#2ca02c"/>
<circle cx="139.3" cy="104.2" r="2" fill="#2ca02c"/>
<circle cx="162.7" cy="112.4" r="2" fill="#2ca02c"/>
<circle cx="186.0" cy="118.8" r="2" fill="#2ca02c"/>
<circle cx="209.3" cy="120.1" r="2" fill="#2ca02c"/>
<circle cx="232.7" cy="111.9" r="2" fill="#2ca02c"/>
<circle cx="256.0" cy="102.0" r="2" fill="#2ca02c"/>
<polygon points="46.0,111.2 92.7,128.7 139.3,110.9 162.7,119.6 186.0,128.9 209.3,129.3 232.7,122.0 256.0,112.4 256.0,112.5 232.7,123.2 209.3,130.4 186.0,133.2 162.7,128.0 139.3,118.2 92.7,137.0 46.0,141.5" fill="#1f77b4" opacity="0.11"/>
<polyline points="46.0,125.1 92.7,133.6 139.3,113.9 162.7,122.9 186.0,130.8 209.3,129.9 232.7,122.6 256.0,112.5" fill="none" stroke="#1f77b4" stroke-width="1.6"/>
<circle cx="46.0" cy="125.1" r="2" fill="#1f77b4"/>
<circle cx="92.7" cy="133.6" r="2" fill="#1f77b4"/>
<circle cx="139.3" cy="113.9" r="2" fill="#1f77b4"/>
<circle cx="162.7" cy="122.9" r="2" fill="#1f77b4"/>
<circle cx="186.0" cy="130.8" r="2" fill="#1f77b4"/>
<circle cx="209.3" cy="129.9" r="2" fill="#1f77b4"/>
<circle cx="232.7" cy="122.6" r="2" fill="#1f77b4"/>
<circle cx="256.0" cy="112.5" r="2" fill="#1f77b4"/>
<text x="151.0" y="55" text-anchor="middle" font-size="12" font-weight="bold">gemm</text>
<line x1="46.0" y1="60" x2="46.0" y2="198" stroke="#f4f4f4"/>
<text x="46.0" y="209" text-anchor="middle" font-size="8" fill="#999">8</text>
<line x1="92.7" y1="60" x2="92.7" y2="198" stroke="#f4f4f4"/>
<text x="92.7" y="209" text-anchor="middle" font-size="8" fill="#999">32</text>
<line x1="139.3" y1="60" x2="139.3" y2="198" stroke="#f4f4f4"/>
<text x="139.3" y="209" text-anchor="middle" font-size="8" fill="#999">128</text>
<line x1="162.7" y1="60" x2="162.7" y2="198" stroke="#f4f4f4"/>
<text x="162.7" y="209" text-anchor="middle" font-size="8" fill="#999">256</text>
<line x1="186.0" y1="60" x2="186.0" y2="198" stroke="#f4f4f4"/>
<text x="186.0" y="209" text-anchor="middle" font-size="8" fill="#999">512</text>
<line x1="209.3" y1="60" x2="209.3" y2="198" stroke="#f4f4f4"/>
<text x="209.3" y="209" text-anchor="middle" font-size="8" fill="#999">1k</text>
<line x1="232.7" y1="60" x2="232.7" y2="198" stroke="#f4f4f4"/>
<text x="232.7" y="209" text-anchor="middle" font-size="8" fill="#999">2k</text>
<line x1="256.0" y1="60" x2="256.0" y2="198" stroke="#f4f4f4"/>
<text x="256.0" y="209" text-anchor="middle" font-size="8" fill="#999">4k</text>
<rect x="276" y="60" width="210" height="138" fill="none" stroke="#e2e2e2"/>
<line x1="276" y1="119.07155504267934" x2="486" y2="119.07155504267934" stroke="#bbb"/>
<line x1="276" y1="123.71994233747748" x2="486" y2="123.71994233747748" stroke="#d33" stroke-dasharray="4 3"/>
<text x="272" y="201.0" text-anchor="end" font-size="9" fill="#999">0.5×</text>
<text x="272" y="122.07155504267934" text-anchor="end" font-size="9" fill="#999">1.0×</text>
<polygon points="276.0,103.1 322.7,94.3 369.3,117.3 392.7,121.4 416.0,114.6 439.3,111.2 462.7,110.3 486.0,108.6 486.0,111.9 462.7,111.9 439.3,113.4 416.0,116.8 392.7,123.2 369.3,123.8 322.7,107.8 276.0,104.4" fill="#d62728" opacity="0.11"/>
<polyline points="276.0,103.4 322.7,100.6 369.3,120.7 392.7,122.5 416.0,115.2 439.3,112.9 462.7,111.4 486.0,110.2" fill="none" stroke="#d62728" stroke-width="1.6"/>
<circle cx="276.0" cy="103.4" r="2" fill="#d62728"/>
<circle cx="322.7" cy="100.6" r="2" fill="#d62728"/>
<circle cx="369.3" cy="120.7" r="2" fill="#d62728"/>
<circle cx="392.7" cy="122.5" r="2" fill="#d62728"/>
<circle cx="416.0" cy="115.2" r="2" fill="#d62728"/>
<circle cx="439.3" cy="112.9" r="2" fill="#d62728"/>
<circle cx="462.7" cy="111.4" r="2" fill="#d62728"/>
<circle cx="486.0" cy="110.2" r="2" fill="#d62728"/>
<polygon points="276.0,68.8 322.7,87.4 369.3,93.3 392.7,101.6 416.0,104.0 439.3,107.1 462.7,106.5 486.0,107.2 486.0,107.4 462.7,107.3 439.3,108.2 416.0,104.4 392.7,102.9 369.3,94.9 322.7,93.6 276.0,92.5" fill="#2ca02c" opacity="0.11"/>
<polyline points="276.0,76.7 322.7,89.8 369.3,94.2 392.7,102.7 416.0,104.3 439.3,107.6 462.7,107.1 486.0,107.3" fill="none" stroke="#2ca02c" stroke-width="1.6"/>
<circle cx="276.0" cy="76.7" r="2" fill="#2ca02c"/>
<circle cx="322.7" cy="89.8" r="2" fill="#2ca02c"/>
<circle cx="369.3" cy="94.2" r="2" fill="#2ca02c"/>
<circle cx="392.7" cy="102.7" r="2" fill="#2ca02c"/>
<circle cx="416.0" cy="104.3" r="2" fill="#2ca02c"/>
<circle cx="439.3" cy="107.6" r="2" fill="#2ca02c"/>
<circle cx="462.7" cy="107.1" r="2" fill="#2ca02c"/>
<circle cx="486.0" cy="107.3" r="2" fill="#2ca02c"/>
<polygon points="276.0,78.9 322.7,83.0 369.3,101.0 392.7,117.6 416.0,112.7 439.3,117.3 462.7,119.5 486.0,120.9 486.0,121.0 462.7,120.6 439.3,119.1 416.0,121.1 392.7,127.2 369.3,110.3 322.7,91.8 276.0,112.0" fill="#1f77b4" opacity="0.11"/>
<polyline points="276.0,96.6 322.7,87.8 369.3,105.6 392.7,120.0 416.0,118.4 439.3,118.1 462.7,120.2 486.0,120.9" fill="none" stroke="#1f77b4" stroke-width="1.6"/>
<circle cx="276.0" cy="96.6" r="2" fill="#1f77b4"/>
<circle cx="322.7" cy="87.8" r="2" fill="#1f77b4"/>
<circle cx="369.3" cy="105.6" r="2" fill="#1f77b4"/>
<circle cx="392.7" cy="120.0" r="2" fill="#1f77b4"/>
<circle cx="416.0" cy="118.4" r="2" fill="#1f77b4"/>
<circle cx="439.3" cy="118.1" r="2" fill="#1f77b4"/>
<circle cx="462.7" cy="120.2" r="2" fill="#1f77b4"/>
<circle cx="486.0" cy="120.9" r="2" fill="#1f77b4"/>
<text x="381.0" y="55" text-anchor="middle" font-size="12" font-weight="bold">symm</text>
<line x1="276.0" y1="60" x2="276.0" y2="198" stroke="#f4f4f4"/>
<text x="276.0" y="209" text-anchor="middle" font-size="8" fill="#999">8</text>
<line x1="322.7" y1="60" x2="322.7" y2="198" stroke="#f4f4f4"/>
<text x="322.7" y="209" text-anchor="middle" font-size="8" fill="#999">32</text>
<line x1="369.3" y1="60" x2="369.3" y2="198" stroke="#f4f4f4"/>
<text x="369.3" y="209" text-anchor="middle" font-size="8" fill="#999">128</text>
<line x1="392.7" y1="60" x2="392.7" y2="198" stroke="#f4f4f4"/>
<text x="392.7" y="209" text-anchor="middle" font-size="8" fill="#999">256</text>
<line x1="416.0" y1="60" x2="416.0" y2="198" stroke="#f4f4f4"/>
<text x="416.0" y="209" text-anchor="middle" font-size="8" fill="#999">512</text>
<line x1="439.3" y1="60" x2="439.3" y2="198" stroke="#f4f4f4"/>
<text x="439.3" y="209" text-anchor="middle" font-size="8" fill="#999">1k</text>
<line x1="462.7" y1="60" x2="462.7" y2="198" stroke="#f4f4f4"/>
<text x="462.7" y="209" text-anchor="middle" font-size="8" fill="#999">2k</text>
<line x1="486.0" y1="60" x2="486.0" y2="198" stroke="#f4f4f4"/>
<text x="486.0" y="209" text-anchor="middle" font-size="8" fill="#999">4k</text>
<rect x="506" y="60" width="210" height="138" fill="none" stroke="#e2e2e2"/>
<line x1="506" y1="122.86472277463352" x2="716" y2="122.86472277463352" stroke="#bbb"/>
<line x1="506" y1="127.28971642849793" x2="716" y2="127.28971642849793" stroke="#d33" stroke-dasharray="4 3"/>
<text x="502" y="201.0" text-anchor="end" font-size="9" fill="#999">0.5×</text>
<text x="502" y="125.86472277463352" text-anchor="end" font-size="9" fill="#999">1.0×</text>
<polygon points="506.0,80.7 552.7,91.2 599.3,113.9 622.7,121.0 646.0,119.0 669.3,118.3 692.7,119.7 716.0,116.9 716.0,119.1 692.7,120.5 669.3,118.7 646.0,119.4 622.7,121.9 599.3,124.3 552.7,113.3 506.0,84.0" fill="#d62728" opacity="0.11"/>
<polyline points="506.0,82.5 552.7,101.9 599.3,119.9 622.7,121.4 646.0,119.2 669.3,118.5 692.7,120.1 716.0,118.2" fill="none" stroke="#d62728" stroke-width="1.6"/>
<circle cx="506.0" cy="82.5" r="2" fill="#d62728"/>
<circle cx="552.7" cy="101.9" r="2" fill="#d62728"/>
<circle cx="599.3" cy="119.9" r="2" fill="#d62728"/>
<circle cx="622.7" cy="121.4" r="2" fill="#d62728"/>
<circle cx="646.0" cy="119.2" r="2" fill="#d62728"/>
<circle cx="669.3" cy="118.5" r="2" fill="#d62728"/>
<circle cx="692.7" cy="120.1" r="2" fill="#d62728"/>
<circle cx="716.0" cy="118.2" r="2" fill="#d62728"/>
<polygon points="506.0,68.3 552.7,90.3 599.3,98.6 622.7,96.2 646.0,99.9 669.3,105.7 692.7,113.8 716.0,117.3 716.0,118.1 692.7,116.9 669.3,107.7 646.0,100.6 622.7,97.7 599.3,101.5 552.7,92.2 506.0,76.8" fill="#2ca02c" opacity="0.11"/>
<polyline points="506.0,71.9 552.7,91.1 599.3,99.3 622.7,96.4 646.0,100.1 669.3,107.2 692.7,114.5 716.0,118.0" fill="none" stroke="#2ca02c" stroke-width="1.6"/>
<circle cx="506.0" cy="71.9" r="2" fill="#2ca02c"/>
<circle cx="552.7" cy="91.1" r="2" fill="#2ca02c"/>
<circle cx="599.3" cy="99.3" r="2" fill="#2ca02c"/>
<circle cx="622.7" cy="96.4" r="2" fill="#2ca02c"/>
<circle cx="646.0" cy="100.1" r="2" fill="#2ca02c"/>
<circle cx="669.3" cy="107.2" r="2" fill="#2ca02c"/>
<circle cx="692.7" cy="114.5" r="2" fill="#2ca02c"/>
<circle cx="716.0" cy="118.0" r="2" fill="#2ca02c"/>
<polygon points="506.0,69.2 552.7,98.8 599.3,104.8 622.7,104.7 646.0,112.3 669.3,119.1 692.7,127.0 716.0,128.0 716.0,130.2 692.7,127.7 669.3,120.4 646.0,115.3 622.7,114.4 599.3,108.2 552.7,102.9 506.0,88.1" fill="#1f77b4" opacity="0.11"/>
<polyline points="506.0,77.7 552.7,100.8 599.3,106.9 622.7,109.3 646.0,113.2 669.3,119.9 692.7,127.3 716.0,129.5" fill="none" stroke="#1f77b4" stroke-width="1.6"/>
<circle cx="506.0" cy="77.7" r="2" fill="#1f77b4"/>
<circle cx="552.7" cy="100.8" r="2" fill="#1f77b4"/>
<circle cx="599.3" cy="106.9" r="2" fill="#1f77b4"/>
<circle cx="622.7" cy="109.3" r="2" fill="#1f77b4"/>
<circle cx="646.0" cy="113.2" r="2" fill="#1f77b4"/>
<circle cx="669.3" cy="119.9" r="2" fill="#1f77b4"/>
<circle cx="692.7" cy="127.3" r="2" fill="#1f77b4"/>
<circle cx="716.0" cy="129.5" r="2" fill="#1f77b4"/>
<text x="611.0" y="55" text-anchor="middle" font-size="12" font-weight="bold">syrk</text>
<line x1="506.0" y1="60" x2="506.0" y2="198" stroke="#f4f4f4"/>
<text x="506.0" y="209" text-anchor="middle" font-size="8" fill="#999">8</text>
<line x1="552.7" y1="60" x2="552.7" y2="198" stroke="#f4f4f4"/>
<text x="552.7" y="209" text-anchor="middle" font-size="8" fill="#999">32</text>
<line x1="599.3" y1="60" x2="599.3" y2="198" stroke="#f4f4f4"/>
<text x="599.3" y="209" text-anchor="middle" font-size="8" fill="#999">128</text>
<line x1="622.7" y1="60" x2="622.7" y2="198" stroke="#f4f4f4"/>
<text x="622.7" y="209" text-anchor="middle" font-size="8" fill="#999">256</text>
<line x1="646.0" y1="60" x2="646.0" y2="198" stroke="#f4f4f4"/>
<text x="646.0" y="209" text-anchor="middle" font-size="8" fill="#999">512</text>
<line x1="669.3" y1="60" x2="669.3" y2="198" stroke="#f4f4f4"/>
<text x="669.3" y="209" text-anchor="middle" font-size="8" fill="#999">1k</text>
<line x1="692.7" y1="60" x2="692.7" y2="198" stroke="#f4f4f4"/>
<text x="692.7" y="209" text-anchor="middle" font-size="8" fill="#999">2k</text>
<line x1="716.0" y1="60" x2="716.0" y2="198" stroke="#f4f4f4"/>
<text x="716.0" y="209" text-anchor="middle" font-size="8" fill="#999">4k</text>
<rect x="736" y="60" width="210" height="138" fill="none" stroke="#e2e2e2"/>
<line x1="736" y1="125.35592922064963" x2="946" y2="125.35592922064963" stroke="#bbb"/>
<line x1="736" y1="129.63420653671415" x2="946" y2="129.63420653671415" stroke="#d33" stroke-dasharray="4 3"/>
<text x="732" y="201.0" text-anchor="end" font-size="9" fill="#999">0.5×</text>
<text x="732" y="128.3559292206496" text-anchor="end" font-size="9" fill="#999">1.0×</text>
<polygon points="736.0,68.1 782.7,92.6 829.3,126.7 852.7,129.0 876.0,125.0 899.3,122.7 922.7,122.5 946.0,118.9 946.0,119.7 922.7,123.6 899.3,123.1 876.0,126.0 852.7,129.7 829.3,134.8 782.7,104.4 736.0,83.8" fill="#d62728" opacity="0.11"/>
<polyline points="736.0,72.1 782.7,95.9 829.3,129.0 852.7,129.3 876.0,125.5 899.3,122.9 922.7,122.8 946.0,119.3" fill="none" stroke="#d62728" stroke-width="1.6"/>
<circle cx="736.0" cy="72.1" r="2" fill="#d62728"/>
<circle cx="782.7" cy="95.9" r="2" fill="#d62728"/>
<circle cx="829.3" cy="129.0" r="2" fill="#d62728"/>
<circle cx="852.7" cy="129.3" r="2" fill="#d62728"/>
<circle cx="876.0" cy="125.5" r="2" fill="#d62728"/>
<circle cx="899.3" cy="122.9" r="2" fill="#d62728"/>
<circle cx="922.7" cy="122.8" r="2" fill="#d62728"/>
<circle cx="946.0" cy="119.3" r="2" fill="#d62728"/>
<polygon points="736.0,76.1 782.7,83.7 829.3,81.2 852.7,88.4 876.0,104.2 899.3,113.3 922.7,120.9 946.0,122.7 946.0,122.7 922.7,124.5 899.3,116.9 876.0,105.7 852.7,90.0 829.3,85.7 782.7,90.1 736.0,93.1" fill="#2ca02c" opacity="0.11"/>
<polyline points="736.0,80.5 782.7,85.6 829.3,81.9 852.7,88.7 876.0,104.9 899.3,115.6 922.7,123.6 946.0,122.7" fill="none" stroke="#2ca02c" stroke-width="1.6"/>
<circle cx="736.0" cy="80.5" r="2" fill="#2ca02c"/>
<circle cx="782.7" cy="85.6" r="2" fill="#2ca02c"/>
<circle cx="829.3" cy="81.9" r="2" fill="#2ca02c"/>
<circle cx="852.7" cy="88.7" r="2" fill="#2ca02c"/>
<circle cx="876.0" cy="104.9" r="2" fill="#2ca02c"/>
<circle cx="899.3" cy="115.6" r="2" fill="#2ca02c"/>
<circle cx="922.7" cy="123.6" r="2" fill="#2ca02c"/>
<circle cx="946.0" cy="122.7" r="2" fill="#2ca02c"/>
<polygon points="736.0,76.3 782.7,94.9 829.3,100.0 852.7,103.9 876.0,118.2 899.3,125.1 922.7,129.0 946.0,129.5 946.0,130.2 922.7,129.4 899.3,126.7 876.0,119.3 852.7,109.6 829.3,105.6 782.7,104.8 736.0,99.2" fill="#1f77b4" opacity="0.11"/>
<polyline points="736.0,82.9 782.7,98.7 829.3,103.6 852.7,106.8 876.0,118.8 899.3,126.0 922.7,129.2 946.0,129.8" fill="none" stroke="#1f77b4" stroke-width="1.6"/>
<circle cx="736.0" cy="82.9" r="2" fill="#1f77b4"/>
<circle cx="782.7" cy="98.7" r="2" fill="#1f77b4"/>
<circle cx="829.3" cy="103.6" r="2" fill="#1f77b4"/>
<circle cx="852.7" cy="106.8" r="2" fill="#1f77b4"/>
<circle cx="876.0" cy="118.8" r="2" fill="#1f77b4"/>
<circle cx="899.3" cy="126.0" r="2" fill="#1f77b4"/>
<circle cx="922.7" cy="129.2" r="2" fill="#1f77b4"/>
<circle cx="946.0" cy="129.8" r="2" fill="#1f77b4"/>
<text x="841.0" y="55" text-anchor="middle" font-size="12" font-weight="bold">syr2k</text>
<line x1="736.0" y1="60" x2="736.0" y2="198" stroke="#f4f4f4"/>
<text x="736.0" y="209" text-anchor="middle" font-size="8" fill="#999">8</text>
<line x1="782.7" y1="60" x2="782.7" y2="198" stroke="#f4f4f4"/>
<text x="782.7" y="209" text-anchor="middle" font-size="8" fill="#999">32</text>
<line x1="829.3" y1="60" x2="829.3" y2="198" stroke="#f4f4f4"/>
<text x="829.3" y="209" text-anchor="middle" font-size="8" fill="#999">128</text>
<line x1="852.7" y1="60" x2="852.7" y2="198" stroke="#f4f4f4"/>
<text x="852.7" y="209" text-anchor="middle" font-size="8" fill="#999">256</text>
<line x1="876.0" y1="60" x2="876.0" y2="198" stroke="#f4f4f4"/>
<text x="876.0" y="209" text-anchor="middle" font-size="8" fill="#999">512</text>
<line x1="899.3" y1="60" x2="899.3" y2="198" stroke="#f4f4f4"/>
<text x="899.3" y="209" text-anchor="middle" font-size="8" fill="#999">1k</text>
<line x1="922.7" y1="60" x2="922.7" y2="198" stroke="#f4f4f4"/>
<text x="922.7" y="209" text-anchor="middle" font-size="8" fill="#999">2k</text>
<line x1="946.0" y1="60" x2="946.0" y2="198" stroke="#f4f4f4"/>
<text x="946.0" y="209" text-anchor="middle" font-size="8" fill="#999">4k</text>
<rect x="46" y="232" width="210" height="138" fill="none" stroke="#e2e2e2"/>
<line x1="46" y1="287.7627611906553" x2="256" y2="287.7627611906553" stroke="#bbb"/>
<line x1="46" y1="292.6060155617169" x2="256" y2="292.6060155617169" stroke="#d33" stroke-dasharray="4 3"/>
<text x="42" y="373.0" text-anchor="end" font-size="9" fill="#999">0.5×</text>
<text x="42" y="290.7627611906553" text-anchor="end" font-size="9" fill="#999">1.0×</text>
<text x="42" y="235.0" text-anchor="end" font-size="9" fill="#999">1.6×</text>
<polygon points="46.0,314.3 92.7,262.2 139.3,264.0 162.7,272.1 186.0,273.1 209.3,277.0 232.7,280.7 256.0,279.1 256.0,279.4 232.7,282.6 209.3,279.1 186.0,275.6 162.7,275.7 139.3,270.0 92.7,293.3 46.0,317.4" fill="#d62728" opacity="0.11"/>
<polyline points="46.0,315.6 92.7,277.6 139.3,267.3 162.7,274.1 186.0,275.3 209.3,278.9 232.7,281.2 256.0,279.3" fill="none" stroke="#d62728" stroke-width="1.6"/>
<circle cx="46.0" cy="315.6" r="2" fill="#d62728"/>
<circle cx="92.7" cy="277.6" r="2" fill="#d62728"/>
<circle cx="139.3" cy="267.3" r="2" fill="#d62728"/>
<circle cx="162.7" cy="274.1" r="2" fill="#d62728"/>
<circle cx="186.0" cy="275.3" r="2" fill="#d62728"/>
<circle cx="209.3" cy="278.9" r="2" fill="#d62728"/>
<circle cx="232.7" cy="281.2" r="2" fill="#d62728"/>
<circle cx="256.0" cy="279.3" r="2" fill="#d62728"/>
<polygon points="46.0,245.1 92.7,263.5 139.3,258.3 162.7,261.3 186.0,272.7 209.3,275.5 232.7,278.6 256.0,276.9 256.0,277.3 232.7,279.4 209.3,277.4 186.0,274.7 162.7,262.6 139.3,259.4 92.7,274.4 46.0,251.8" fill="#2ca02c" opacity="0.11"/>
<polyline points="46.0,247.0 92.7,271.3 139.3,259.0 162.7,261.6 186.0,273.6 209.3,276.1 232.7,279.0 256.0,277.1" fill="none" stroke="#2ca02c" stroke-width="1.6"/>
<circle cx="46.0" cy="247.0" r="2" fill="#2ca02c"/>
<circle cx="92.7" cy="271.3" r="2" fill="#2ca02c"/>
<circle cx="139.3" cy="259.0" r="2" fill="#2ca02c"/>
<circle cx="162.7" cy="261.6" r="2" fill="#2ca02c"/>
<circle cx="186.0" cy="273.6" r="2" fill="#2ca02c"/>
<circle cx="209.3" cy="276.1" r="2" fill="#2ca02c"/>
<circle cx="232.7" cy="279.0" r="2" fill="#2ca02c"/>
<circle cx="256.0" cy="277.1" r="2" fill="#2ca02c"/>
<polygon points="46.0,252.5 92.7,275.1 139.3,263.7 162.7,270.6 186.0,286.1 209.3,288.8 232.7,291.1 256.0,291.5 256.0,293.1 232.7,294.3 209.3,291.0 186.0,289.2 162.7,279.6 139.3,275.7 92.7,282.4 46.0,279.0" fill="#1f77b4" opacity="0.11"/>
<polyline points="46.0,265.7 92.7,279.8 139.3,273.8 162.7,274.6 186.0,287.4 209.3,289.9 232.7,292.3 256.0,292.7" fill="none" stroke="#1f77b4" stroke-width="1.6"/>
<circle cx="46.0" cy="265.7" r="2" fill="#1f77b4"/>
<circle cx="92.7" cy="279.8" r="2" fill="#1f77b4"/>
<circle cx="139.3" cy="273.8" r="2" fill="#1f77b4"/>
<circle cx="162.7" cy="274.6" r="2" fill="#1f77b4"/>
<circle cx="186.0" cy="287.4" r="2" fill="#1f77b4"/>
<circle cx="209.3" cy="289.9" r="2" fill="#1f77b4"/>
<circle cx="232.7" cy="292.3" r="2" fill="#1f77b4"/>
<circle cx="256.0" cy="292.7" r="2" fill="#1f77b4"/>
<text x="151.0" y="227" text-anchor="middle" font-size="12" font-weight="bold">trmm</text>
<line x1="46.0" y1="232" x2="46.0" y2="370" stroke="#f4f4f4"/>
<text x="46.0" y="381" text-anchor="middle" font-size="8" fill="#999">8</text>
<line x1="92.7" y1="232" x2="92.7" y2="370" stroke="#f4f4f4"/>
<text x="92.7" y="381" text-anchor="middle" font-size="8" fill="#999">32</text>
<line x1="139.3" y1="232" x2="139.3" y2="370" stroke="#f4f4f4"/>
<text x="139.3" y="381" text-anchor="middle" font-size="8" fill="#999">128</text>
<line x1="162.7" y1="232" x2="162.7" y2="370" stroke="#f4f4f4"/>
<text x="162.7" y="381" text-anchor="middle" font-size="8" fill="#999">256</text>
<line x1="186.0" y1="232" x2="186.0" y2="370" stroke="#f4f4f4"/>
<text x="186.0" y="381" text-anchor="middle" font-size="8" fill="#999">512</text>
<line x1="209.3" y1="232" x2="209.3" y2="370" stroke="#f4f4f4"/>
<text x="209.3" y="381" text-anchor="middle" font-size="8" fill="#999">1k</text>
<line x1="232.7" y1="232" x2="232.7" y2="370" stroke="#f4f4f4"/>
<text x="232.7" y="381" text-anchor="middle" font-size="8" fill="#999">2k</text>
<line x1="256.0" y1="232" x2="256.0" y2="370" stroke="#f4f4f4"/>
<text x="256.0" y="381" text-anchor="middle" font-size="8" fill="#999">4k</text>
<rect x="276" y="232" width="210" height="138" fill="none" stroke="#e2e2e2"/>
<line x1="276" y1="309.03421771595833" x2="486" y2="309.03421771595833" stroke="#bbb"/>
<line x1="276" y1="312.6247175407022" x2="486" y2="312.6247175407022" stroke="#d33" stroke-dasharray="4 3"/>
<text x="272" y="373.0" text-anchor="end" font-size="9" fill="#999">0.5×</text>
<text x="272" y="312.03421771595833" text-anchor="end" font-size="9" fill="#999">1.0×</text>
<text x="272" y="235.03233711264127" text-anchor="end" font-size="9" fill="#999">2.4×</text>
<polygon points="276.0,301.9 322.7,308.9 369.3,308.9 392.7,311.7 416.0,303.4 439.3,305.6 462.7,303.4 486.0,301.6 486.0,306.6 462.7,306.5 439.3,307.0 416.0,305.7 392.7,312.5 369.3,313.6 322.7,323.8 276.0,305.4" fill="#d62728" opacity="0.11"/>
<polyline points="276.0,302.3 322.7,315.0 369.3,311.7 392.7,312.1 416.0,304.6 439.3,306.8 462.7,304.1 486.0,304.5" fill="none" stroke="#d62728" stroke-width="1.6"/>
<circle cx="276.0" cy="302.3" r="2" fill="#d62728"/>
<circle cx="322.7" cy="315.0" r="2" fill="#d62728"/>
<circle cx="369.3" cy="311.7" r="2" fill="#d62728"/>
<circle cx="392.7" cy="312.1" r="2" fill="#d62728"/>
<circle cx="416.0" cy="304.6" r="2" fill="#d62728"/>
<circle cx="439.3" cy="306.8" r="2" fill="#d62728"/>
<circle cx="462.7" cy="304.1" r="2" fill="#d62728"/>
<circle cx="486.0" cy="304.5" r="2" fill="#d62728"/>
<polygon points="276.0,250.7 322.7,238.8 369.3,245.5 392.7,250.9 416.0,277.3 439.3,286.9 462.7,294.9 486.0,297.3 486.0,298.0 462.7,295.6 439.3,289.3 416.0,277.8 392.7,251.8 369.3,246.8 322.7,244.1 276.0,259.7" fill="#2ca02c" opacity="0.11"/>
<polyline points="276.0,255.9 322.7,239.8 369.3,245.8 392.7,251.2 416.0,277.5 439.3,288.8 462.7,295.4 486.0,297.7" fill="none" stroke="#2ca02c" stroke-width="1.6"/>
<circle cx="276.0" cy="255.9" r="2" fill="#2ca02c"/>
<circle cx="322.7" cy="239.8" r="2" fill="#2ca02c"/>
<circle cx="369.3" cy="245.8" r="2" fill="#2ca02c"/>
<circle cx="392.7" cy="251.2" r="2" fill="#2ca02c"/>
<circle cx="416.0" cy="277.5" r="2" fill="#2ca02c"/>
<circle cx="439.3" cy="288.8" r="2" fill="#2ca02c"/>
<circle cx="462.7" cy="295.4" r="2" fill="#2ca02c"/>
<circle cx="486.0" cy="297.7" r="2" fill="#2ca02c"/>
<polygon points="276.0,271.4 322.7,252.2 369.3,244.7 392.7,246.5 416.0,280.8 439.3,291.8 462.7,301.2 486.0,305.7 486.0,318.2 462.7,305.3 439.3,292.3 416.0,282.7 392.7,256.2 369.3,249.1 322.7,259.7 276.0,285.4" fill="#1f77b4" opacity="0.11"/>
<polyline points="276.0,275.9 322.7,254.9 369.3,246.3 392.7,248.1 416.0,281.0 439.3,292.0 462.7,302.4 486.0,311.7" fill="none" stroke="#1f77b4" stroke-width="1.6"/>
<circle cx="276.0" cy="275.9" r="2" fill="#1f77b4"/>
<circle cx="322.7" cy="254.9" r="2" fill="#1f77b4"/>
<circle cx="369.3" cy="246.3" r="2" fill="#1f77b4"/>
<circle cx="392.7" cy="248.1" r="2" fill="#1f77b4"/>
<circle cx="416.0" cy="281.0" r="2" fill="#1f77b4"/>
<circle cx="439.3" cy="292.0" r="2" fill="#1f77b4"/>
<circle cx="462.7" cy="302.4" r="2" fill="#1f77b4"/>
<circle cx="486.0" cy="311.7" r="2" fill="#1f77b4"/>
<text x="381.0" y="227" text-anchor="middle" font-size="12" font-weight="bold">trsm</text>
<line x1="276.0" y1="232" x2="276.0" y2="370" stroke="#f4f4f4"/>
<text x="276.0" y="381" text-anchor="middle" font-size="8" fill="#999">8</text>
<line x1="322.7" y1="232" x2="322.7" y2="370" stroke="#f4f4f4"/>
<text x="322.7" y="381" text-anchor="middle" font-size="8" fill="#999">32</text>
<line x1="369.3" y1="232" x2="369.3" y2="370" stroke="#f4f4f4"/>
<text x="369.3" y="381" text-anchor="middle" font-size="8" fill="#999">128</text>
<line x1="392.7" y1="232" x2="392.7" y2="370" stroke="#f4f4f4"/>
<text x="392.7" y="381" text-anchor="middle" font-size="8" fill="#999">256</text>
<line x1="416.0" y1="232" x2="416.0" y2="370" stroke="#f4f4f4"/>
<text x="416.0" y="381" text-anchor="middle" font-size="8" fill="#999">512</text>
<line x1="439.3" y1="232" x2="439.3" y2="370" stroke="#f4f4f4"/>
<text x="439.3" y="381" text-anchor="middle" font-size="8" fill="#999">1k</text>
<line x1="462.7" y1="232" x2="462.7" y2="370" stroke="#f4f4f4"/>
<text x="462.7" y="381" text-anchor="middle" font-size="8" fill="#999">2k</text>
<line x1="486.0" y1="232" x2="486.0" y2="370" stroke="#f4f4f4"/>
<text x="486.0" y="381" text-anchor="middle" font-size="8" fill="#999">4k</text>
</svg>
