<svg xmlns="http://www.w3.org/2000/svg" width="900" height="440" font-family="sans-serif">
<rect width="900" height="440" fill="white"/>
<text x="450.0" y="28" text-anchor="middle" font-size="18" font-weight="bold">BLAS-1: PureBLAS / OpenBLAS (AVX2, 1 thread, Float64)</text>
<line x1="60" y1="358.0" x2="880" y2="358.0" stroke="#eee"/>
<text x="52" y="362.0" text-anchor="end" font-size="11" fill="#666">0×</text>
<line x1="60" y1="339.90016211825923" x2="880" y2="339.90016211825923" stroke="#eee"/>
<text x="52" y="343.90016211825923" text-anchor="end" font-size="11" fill="#666">0.5×</text>
<line x1="60" y1="321.80032423651846" x2="880" y2="321.80032423651846" stroke="#eee"/>
<text x="52" y="325.80032423651846" text-anchor="end" font-size="11" fill="#666">1×</text>
<line x1="60" y1="303.7004863547777" x2="880" y2="303.7004863547777" stroke="#eee"/>
<text x="52" y="307.7004863547777" text-anchor="end" font-size="11" fill="#666">1.5×</text>
<line x1="60" y1="321.80032423651846" x2="880" y2="321.80032423651846" stroke="#888" stroke-width="1"/>
<line x1="60" y1="323.24831126705766" x2="880" y2="323.24831126705766" stroke="#d33" stroke-width="1.5" stroke-dasharray="6 4"/>
<text x="880" y="318.24831126705766" text-anchor="end" font-size="11" fill="#d33">0.96× gate</text>
<polygon points="128.4,331.2 128.4,330.0 128.9,328.8 130.5,327.6 135.2,326.4 145.0,325.2 160.3,324.0 176.5,322.8 185.7,321.6 182.7,320.4 169.5,319.2 153.9,318.0 142.0,316.8 135.7,315.6 133.2,314.4 132.3,313.2 131.6,312.0 130.7,310.8 129.8,309.5 129.1,308.3 128.7,307.1 128.5,305.9 128.4,304.7 128.3,303.5 128.3,302.3 128.3,301.1 128.3,299.9 128.3,298.7 128.3,297.5 128.3,296.3 128.3,295.1 128.3,293.9 128.3,292.7 128.3,291.5 128.3,290.3 128.3,289.1 128.3,287.9 128.3,286.7 128.3,285.5 128.3,284.3 128.3,283.1 128.3,281.9 128.3,280.7 128.3,279.5 128.3,278.3 128.3,277.1 128.3,275.9 128.3,274.7 128.3,273.5 128.3,272.3 128.3,271.1 128.3,269.9 128.3,268.7 128.3,267.5 128.3,266.3 128.3,265.1 128.3,263.9 128.3,262.7 128.3,261.5 128.4,260.3 128.4,259.1 128.5,257.9 128.6,256.7 128.7,255.5 128.8,254.3 128.8,253.1 128.6,251.9 128.5,250.7 128.4,249.5 128.4,248.3 128.3,247.1 128.3,245.9 128.3,245.9 128.3,247.1 128.3,248.3 128.3,249.5 128.2,250.7 128.0,251.9 127.9,253.1 127.9,254.3 127.9,255.5 128.1,256.7 128.2,257.9 128.3,259.1 128.3,260.3 128.3,261.5 128.3,262.7 128.3,263.9 128.3,265.1 128.3,266.3 128.3,267.5 128.3,268.7 128.3,269.9 128.3,271.1 128.3,272.3 128.3,273.5 128.3,274.7 128.3,275.9 128.3,277.1 128.3,278.3 128.3,279.5 128.3,280.7 128.3,281.9 128.3,283.1 128.3,284.3 128.3,285.5 128.3,286.7 128.3,287.9 128.3,289.1 128.3,290.3 128.3,291.5 128.3,292.7 128.3,293.9 128.3,295.1 128.3,296.3 128.3,297.5 128.3,298.7 128.3,299.9 128.3,301.1 128.3,302.3 128.3,303.5 128.3,304.7 128.2,305.9 128.0,307.1 127.6,308.3 126.9,309.5 126.0,310.8 125.1,312.0 124.4,313.2 123.5,314.4 121.0,315.6 114.7,316.8 102.8,318.0 87.1,319.2 74.0,320.4 70.9,321.6 80.2,322.8 96.4,324.0 111.7,325.2 121.5,326.4 126.1,327.6 127.8,328.8 128.2,330.0 128.3,331.2" fill="#2a8" opacity="0.5" stroke="#2a8" stroke-width="1"/>
<line x1="70.6" y1="321.39282972066457" x2="186.1" y2="321.39282972066457" stroke="#114" stroke-width="2"/>
<circle cx="128.33333333333331" cy="321.7177783746221" r="2.4" fill="#114"/>
<text x="128.33333333333331" y="248.18194589696236" text-anchor="middle" font-size="11">1.01</text>
<text x="128.33333333333331" y="376" text-anchor="middle" font-size="12">axpy</text>
<polygon points="265.0,326.0 265.0,325.8 265.1,325.5 265.2,325.2 265.3,324.9 265.5,324.7 265.7,324.4 266.0,324.1 266.7,323.8 268.4,323.5 272.1,323.3 278.7,323.0 288.5,322.7 300.5,322.4 312.2,322.1 320.2,321.9 322.4,321.6 319.0,321.3 312.1,321.0 304.7,320.8 298.6,320.5 294.2,320.2 290.6,319.9 287.0,319.6 282.9,319.4 278.5,319.1 274.4,318.8 271.2,318.5 269.0,318.2 267.7,318.0 267.0,317.7 266.7,317.4 266.7,317.1 266.7,316.9 266.8,316.6 266.8,316.3 266.9,316.0 267.1,315.7 267.1,315.5 266.9,315.2 266.5,314.9 266.0,314.6 265.6,314.3 265.3,314.1 265.1,313.8 265.1,313.5 265.0,313.2 265.0,313.0 265.0,312.7 265.0,312.4 265.0,312.1 265.0,311.8 265.0,311.6 265.0,311.3 265.0,311.0 265.0,310.7 265.0,310.5 265.0,310.2 265.0,309.9 265.1,309.6 265.2,309.3 265.3,309.1 265.5,308.8 265.6,308.5 265.7,308.2 265.6,307.9 265.5,307.7 265.3,307.4 265.2,307.1 265.1,306.8 265.0,306.6 265.0,306.3 265.0,306.3 265.0,306.6 264.9,306.8 264.8,307.1 264.7,307.4 264.5,307.7 264.4,307.9 264.3,308.2 264.4,308.5 264.5,308.8 264.7,309.1 264.8,309.3 264.9,309.6 265.0,309.9 265.0,310.2 265.0,310.5 265.0,310.7 265.0,311.0 265.0,311.3 265.0,311.6 265.0,311.8 265.0,312.1 265.0,312.4 265.0,312.7 265.0,313.0 265.0,313.2 264.9,313.5 264.9,313.8 264.7,314.1 264.4,314.3 264.0,314.6 263.5,314.9 263.1,315.2 262.9,315.5 262.9,315.7 263.1,316.0 263.2,316.3 263.2,316.6 263.3,316.9 263.3,317.1 263.3,317.4 263.0,317.7 262.3,318.0 261.0,318.2 258.8,318.5 255.6,318.8 251.5,319.1 247.1,319.4 243.0,319.6 239.4,319.9 235.8,320.2 231.4,320.5 225.3,320.8 217.9,321.0 211.0,321.3 207.6,321.6 209.8,321.9 217.8,322.1 229.5,322.4 241.5,322.7 251.3,323.0 257.9,323.3 261.6,323.5 263.3,323.8 264.0,324.1 264.3,324.4 264.5,324.7 264.7,324.9 264.8,325.2 264.9,325.5 265.0,325.8 265.0,326.0" fill="#2a8" opacity="0.5" stroke="#2a8" stroke-width="1"/>
<line x1="208.3" y1="321.4855671345673" x2="321.7" y2="321.4855671345673" stroke="#114" stroke-width="2"/>
<circle cx="265.0" cy="321.9531251057091" r="2.4" fill="#114"/>
<text x="265.0" y="302.24670792831876" text-anchor="middle" font-size="11">1.01</text>
<text x="265.0" y="376" text-anchor="middle" font-size="12">dot</text>
<polygon points="403.6,216.0 404.0,213.7 404.5,211.3 405.1,209.0 405.7,206.7 406.4,204.4 407.1,202.1 407.9,199.8 408.8,197.4 409.6,195.1 410.6,192.8 411.6,190.5 412.7,188.2 413.8,185.9 415.1,183.5 416.4,181.2 417.8,178.9 419.2,176.6 420.7,174.3 422.2,172.0 423.8,169.6 425.2,167.3 426.6,165.0 427.9,162.7 429.0,160.4 429.9,158.0 430.5,155.7 430.9,153.4 431.1,151.1 431.0,148.8 430.6,146.5 429.9,144.1 429.1,141.8 428.0,139.5 426.8,137.2 425.5,134.9 424.0,132.6 422.5,130.2 421.1,127.9 419.6,125.6 418.3,123.3 417.2,121.0 416.3,118.7 415.7,116.3 415.6,114.0 415.9,111.7 416.7,109.4 418.1,107.1 420.1,104.8 422.7,102.4 425.8,100.1 429.5,97.8 433.5,95.5 437.8,93.2 442.1,90.8 446.3,88.5 450.2,86.2 453.6,83.9 456.3,81.6 458.2,79.3 459.1,76.9 458.9,74.6 457.8,72.3 455.6,70.0 452.6,67.7 448.9,65.4 444.7,63.0 440.1,60.7 435.3,58.4 430.6,56.1 426.1,53.8 421.9,51.5 381.4,51.5 377.2,53.8 372.7,56.1 368.0,58.4 363.3,60.7 358.7,63.0 354.4,65.4 350.7,67.7 347.7,70.0 345.6,72.3 344.4,74.6 344.3,76.9 345.1,79.3 347.0,81.6 349.7,83.9 353.1,86.2 357.0,88.5 361.2,90.8 365.6,93.2 369.8,95.5 373.9,97.8 377.5,100.1 380.6,102.4 383.2,104.8 385.2,107.1 386.6,109.4 387.5,111.7 387.8,114.0 387.6,116.3 387.0,118.7 386.2,121.0 385.0,123.3 383.7,125.6 382.3,127.9 380.8,130.2 379.3,132.6 377.9,134.9 376.5,137.2 375.3,139.5 374.2,141.8 373.4,144.1 372.8,146.5 372.4,148.8 372.3,151.1 372.4,153.4 372.8,155.7 373.5,158.0 374.4,160.4 375.5,162.7 376.7,165.0 378.1,167.3 379.6,169.6 381.1,172.0 382.6,174.3 384.1,176.6 385.6,178.9 387.0,181.2 388.3,183.5 389.5,185.9 390.6,188.2 391.7,190.5 392.7,192.8 393.7,195.1 394.6,197.4 395.4,199.8 396.2,202.1 396.9,204.4 397.6,206.7 398.2,209.0 398.8,211.3 399.3,213.7 399.7,216.0" fill="#2a8" opacity="0.5" stroke="#2a8" stroke-width="1"/>
<line x1="350.9" y1="84.7412709637063" x2="452.5" y2="84.7412709637063" stroke="#114" stroke-width="2"/>
<circle cx="401.66666666666663" cy="160.71932133314206" r="2.4" fill="#114"/>
<text x="401.66666666666663" y="61.433962264150935" text-anchor="middle" font-size="11">7.55</text>
<text x="401.66666666666663" y="376" text-anchor="middle" font-size="12">nrm2</text>
<polygon points="541.9,316.7 542.9,316.3 544.2,315.8 545.8,315.4 547.6,314.9 549.8,314.5 552.3,314.0 555.1,313.6 558.3,313.1 561.8,312.7 565.5,312.3 569.4,311.8 573.3,311.4 577.2,310.9 580.9,310.5 584.4,310.0 587.5,309.6 590.1,309.1 592.2,308.7 593.7,308.2 594.8,307.8 595.5,307.3 595.7,306.9 595.7,306.4 595.5,306.0 595.3,305.5 594.9,305.1 594.5,304.6 594.2,304.2 593.7,303.7 593.1,303.3 592.2,302.8 591.1,302.4 589.6,302.0 587.6,301.5 585.2,301.1 582.4,300.6 579.2,300.2 575.7,299.7 572.1,299.3 568.3,298.8 564.7,298.4 561.3,297.9 558.2,297.5 555.6,297.0 553.6,296.6 552.1,296.1 551.3,295.7 551.2,295.2 551.7,294.8 552.9,294.3 554.6,293.9 556.9,293.4 559.6,293.0 562.5,292.5 565.6,292.1 568.7,291.7 571.5,291.2 573.9,290.8 575.9,290.3 577.1,289.9 577.7,289.4 577.5,289.0 576.5,288.5 574.8,288.1 572.6,287.6 569.8,287.2 566.7,286.7 563.4,286.3 560.0,285.8 556.7,285.4 553.6,284.9 523.0,284.9 519.9,285.4 516.7,285.8 513.3,286.3 510.0,286.7 506.9,287.2 504.1,287.6 501.8,288.1 500.1,288.5 499.2,289.0 499.0,289.4 499.5,289.9 500.8,290.3 502.7,290.8 505.2,291.2 508.0,291.7 511.0,292.1 514.1,292.5 517.1,293.0 519.7,293.4 522.0,293.9 523.8,294.3 525.0,294.8 525.5,295.2 525.4,295.7 524.6,296.1 523.1,296.6 521.0,297.0 518.4,297.5 515.4,297.9 512.0,298.4 508.3,298.8 504.6,299.3 500.9,299.7 497.5,300.2 494.3,300.6 491.4,301.1 489.0,301.5 487.1,302.0 485.6,302.4 484.4,302.8 483.6,303.3 483.0,303.7 482.5,304.2 482.1,304.6 481.8,305.1 481.4,305.5 481.1,306.0 480.9,306.4 480.9,306.9 481.2,307.3 481.8,307.8 482.9,308.2 484.5,308.7 486.6,309.1 489.2,309.6 492.3,310.0 495.7,310.5 499.4,310.9 503.3,311.4 507.3,311.8 511.1,312.3 514.9,312.7 518.3,313.1 521.5,313.6 524.4,314.0 526.9,314.5 529.1,314.9 530.9,315.4 532.5,315.8 533.7,316.3 534.8,316.7" fill="#2a8" opacity="0.5" stroke="#2a8" stroke-width="1"/>
<line x1="486.9" y1="301.99397272780436" x2="589.7" y2="301.99397272780436" stroke="#114" stroke-width="2"/>
<circle cx="538.3333333333333" cy="309.3331789177679" r="2.4" fill="#114"/>
<text x="538.3333333333333" y="282.06918457066206" text-anchor="middle" font-size="11">1.55</text>
<text x="538.3333333333333" y="376" text-anchor="middle" font-size="12">asum</text>
<polygon points="675.4,324.1 675.8,323.8 676.8,323.6 678.5,323.4 681.3,323.1 685.6,322.9 691.6,322.7 699.2,322.4 707.8,322.2 716.6,322.0 724.3,321.7 729.8,321.5 732.4,321.3 731.9,321.0 728.6,320.8 723.2,320.6 716.7,320.3 709.8,320.1 703.0,319.9 696.8,319.6 691.4,319.4 687.1,319.2 683.8,318.9 681.5,318.7 680.0,318.5 679.1,318.2 678.5,318.0 678.2,317.8 677.9,317.5 677.6,317.3 677.3,317.1 677.0,316.8 676.8,316.6 676.7,316.4 676.6,316.1 676.6,315.9 676.6,315.7 676.6,315.4 676.5,315.2 676.3,315.0 676.0,314.7 675.8,314.5 675.5,314.3 675.3,314.0 675.2,313.8 675.2,313.6 675.2,313.3 675.3,313.1 675.4,312.9 675.7,312.6 675.9,312.4 676.1,312.2 676.2,311.9 676.2,311.7 676.1,311.5 675.9,311.2 675.7,311.0 675.5,310.8 675.4,310.5 675.3,310.3 675.4,310.1 675.4,309.8 675.5,309.6 675.6,309.4 675.6,309.1 675.6,308.9 675.5,308.7 675.4,308.4 675.3,308.2 675.2,308.0 675.1,307.7 675.0,307.5 675.0,307.5 674.9,307.7 674.8,308.0 674.7,308.2 674.6,308.4 674.5,308.7 674.4,308.9 674.4,309.1 674.4,309.4 674.5,309.6 674.6,309.8 674.6,310.1 674.7,310.3 674.6,310.5 674.5,310.8 674.3,311.0 674.1,311.2 673.9,311.5 673.8,311.7 673.8,311.9 673.9,312.2 674.1,312.4 674.3,312.6 674.6,312.9 674.7,313.1 674.8,313.3 674.8,313.6 674.8,313.8 674.7,314.0 674.5,314.3 674.2,314.5 674.0,314.7 673.7,315.0 673.5,315.2 673.4,315.4 673.4,315.7 673.4,315.9 673.4,316.1 673.3,316.4 673.2,316.6 673.0,316.8 672.7,317.1 672.4,317.3 672.1,317.5 671.8,317.8 671.5,318.0 670.9,318.2 670.0,318.5 668.5,318.7 666.2,318.9 662.9,319.2 658.6,319.4 653.2,319.6 647.0,319.9 640.2,320.1 633.3,320.3 626.8,320.6 621.4,320.8 618.1,321.0 617.6,321.3 620.2,321.5 625.7,321.7 633.4,322.0 642.2,322.2 650.8,322.4 658.4,322.7 664.4,322.9 668.7,323.1 671.5,323.4 673.2,323.6 674.2,323.8 674.6,324.1" fill="#2a8" opacity="0.5" stroke="#2a8" stroke-width="1"/>
<line x1="617.7" y1="321.10688064995156" x2="732.3" y2="321.10688064995156" stroke="#114" stroke-width="2"/>
<circle cx="675.0" cy="321.6226328287596" r="2.4" fill="#114"/>
<text x="675.0" y="303.16582279011" text-anchor="middle" font-size="11">1.02</text>
<text x="675.0" y="376" text-anchor="middle" font-size="12">scal</text>
<polygon points="813.9,343.6 814.7,343.0 815.6,342.3 816.8,341.6 818.1,341.0 819.6,340.3 821.4,339.6 823.3,339.0 825.5,338.3 827.8,337.6 830.4,337.0 833.1,336.3 836.0,335.6 839.0,335.0 842.2,334.3 845.4,333.7 848.6,333.0 851.8,332.3 855.0,331.7 857.9,331.0 860.7,330.3 863.1,329.7 865.2,329.0 866.8,328.3 868.0,327.7 868.7,327.0 869.1,326.3 869.0,325.7 868.7,325.0 868.1,324.4 867.4,323.7 866.6,323.0 865.8,322.4 865.0,321.7 864.3,321.0 863.6,320.4 863.0,319.7 862.4,319.0 861.8,318.4 861.2,317.7 860.6,317.0 860.0,316.4 859.4,315.7 858.8,315.0 858.1,314.4 857.3,313.7 856.4,313.1 855.4,312.4 854.2,311.7 852.9,311.1 851.4,310.4 849.9,309.7 848.3,309.1 846.7,308.4 845.0,307.7 843.4,307.1 841.8,306.4 840.2,305.7 838.5,305.1 836.8,304.4 835.0,303.8 833.1,303.1 831.1,302.4 829.0,301.8 826.9,301.1 824.8,300.4 822.8,299.8 820.9,299.1 819.1,298.4 817.6,297.8 816.2,297.1 815.1,296.4 808.2,296.4 807.1,297.1 805.8,297.8 804.2,298.4 802.5,299.1 800.5,299.8 798.5,300.4 796.4,301.1 794.3,301.8 792.2,302.4 790.2,303.1 788.3,303.8 786.5,304.4 784.8,305.1 783.1,305.7 781.5,306.4 779.9,307.1 778.3,307.7 776.7,308.4 775.0,309.1 773.4,309.7 771.9,310.4 770.4,311.1 769.1,311.7 768.0,312.4 766.9,313.1 766.0,313.7 765.3,314.4 764.6,315.0 763.9,315.7 763.3,316.4 762.7,317.0 762.1,317.7 761.6,318.4 761.0,319.0 760.3,319.7 759.7,320.4 759.0,321.0 758.3,321.7 757.5,322.4 756.7,323.0 756.0,323.7 755.2,324.4 754.7,325.0 754.3,325.7 754.3,326.3 754.6,327.0 755.3,327.7 756.5,328.3 758.2,329.0 760.2,329.7 762.7,330.3 765.4,331.0 768.4,331.7 771.5,332.3 774.7,333.0 777.9,333.7 781.2,334.3 784.3,335.0 787.3,335.6 790.2,336.3 792.9,337.0 795.5,337.6 797.9,338.3 800.0,339.0 802.0,339.6 803.7,340.3 805.2,341.0 806.6,341.6 807.7,342.3 808.6,343.0 809.4,343.6" fill="#d33" opacity="0.5" stroke="#d33" stroke-width="1"/>
<line x1="759.3" y1="320.75955219485024" x2="864.0" y2="320.75955219485024" stroke="#114" stroke-width="2"/>
<circle cx="811.6666666666666" cy="325.46728155165664" r="2.4" fill="#114"/>
<text x="811.6666666666666" y="295.06447036306383" text-anchor="middle" font-size="11">1.03</text>
<text x="811.6666666666666" y="376" text-anchor="middle" font-size="12">iamax</text>
<text x="450.0" y="428" text-anchor="middle" font-size="11" fill="#666">violin = ratio distribution over sizes · line = median · dark dot = worst size · green = every size ≥ gate</text>
</svg>
