<svg xmlns="http://www.w3.org/2000/svg" width="962" height="592" font-family="sans-serif">
<rect width="962" height="592" fill="white"/>
<text x="481.0" y="26" text-anchor="middle" font-size="17" font-weight="bold">Complex BLAS-2 — PureBLAS / AOCL (PB/AOCL ratio)</text>
<line x1="46" y1="42" x2="68" y2="42" stroke="#888888" stroke-width="3"/>
<text x="73" y="46" font-size="12">AVX2</text>
<line x1="127" y1="42" x2="149" y2="42" stroke="#888888" stroke-width="3"/>
<text x="154" y="46" font-size="12">Zen5</text>
<line x1="208" y1="42" x2="230" y2="42" stroke="#888888" stroke-width="3"/>
<text x="235" y="46" font-size="12">AVX-512</text>
<rect x="46" y="60" width="210" height="138" fill="none" stroke="#e2e2e2"/>
<line x1="46" y1="115.76276119065531" x2="256" y2="115.76276119065531" stroke="#d33" stroke-dasharray="4 3"/>
<text x="42" y="201.0" text-anchor="end" font-size="9" fill="#999">0.5×</text>
<text x="42" y="118.76276119065531" text-anchor="end" font-size="9" fill="#999">1.0×</text>
<text x="42" y="63.0" text-anchor="end" font-size="9" fill="#999">1.6×</text>
<polygon points="46.0,69.4 98.5,85.6 151.0,99.2 203.5,99.8 256.0,98.3 256.0,106.8 203.5,102.1 151.0,101.8 98.5,93.5 46.0,72.7" fill="#888888" opacity="0.11"/>
<polyline points="46.0,70.1 98.5,88.9 151.0,100.1 203.5,100.3 256.0,103.1" fill="none" stroke="#888888" stroke-width="1.6"/>
<circle cx="46.0" cy="70.1" r="2" fill="#888888"/>
<circle cx="98.5" cy="88.9" r="2" fill="#888888"/>
<circle cx="151.0" cy="100.1" r="2" fill="#888888"/>
<circle cx="203.5" cy="100.3" r="2" fill="#888888"/>
<circle cx="256.0" cy="103.1" r="2" fill="#888888"/>
<polygon points="46.0,111.0 98.5,109.9 151.0,103.3 203.5,86.8 256.0,117.6 256.0,119.4 203.5,120.5 151.0,105.7 98.5,110.4 46.0,112.0" fill="#888888" opacity="0.11"/>
<polyline points="46.0,111.5 98.5,110.1 151.0,104.2 203.5,102.0 256.0,118.5" fill="none" stroke="#888888" stroke-width="1.6"/>
<circle cx="46.0" cy="111.5" r="2" fill="#888888"/>
<circle cx="98.5" cy="110.1" r="2" fill="#888888"/>
<circle cx="151.0" cy="104.2" r="2" fill="#888888"/>
<circle cx="203.5" cy="102.0" r="2" fill="#888888"/>
<circle cx="256.0" cy="118.5" r="2" fill="#888888"/>
<polygon points="46.0,108.0 98.5,100.9 151.0,98.4 203.5,120.5 256.0,137.8 256.0,138.6 203.5,122.0 151.0,98.8 98.5,109.9 46.0,114.6" fill="#888888" opacity="0.11"/>
<polyline points="46.0,114.3 98.5,104.6 151.0,98.6 203.5,121.3 256.0,138.2" fill="none" stroke="#888888" stroke-width="1.6"/>
<circle cx="46.0" cy="114.3" r="2" fill="#888888"/>
<circle cx="98.5" cy="104.6" r="2" fill="#888888"/>
<circle cx="151.0" cy="98.6" r="2" fill="#888888"/>
<circle cx="203.5" cy="121.3" r="2" fill="#888888"/>
<circle cx="256.0" cy="138.2" r="2" fill="#888888"/>
<text x="151.0" y="55" text-anchor="middle" font-size="12" font-weight="bold">zgemvN</text>
<line x1="46.0" y1="60" x2="46.0" y2="198" stroke="#f4f4f4"/>
<text x="46.0" y="209" text-anchor="middle" font-size="8" fill="#999">64</text>
<line x1="98.5" y1="60" x2="98.5" y2="198" stroke="#f4f4f4"/>
<text x="98.5" y="209" text-anchor="middle" font-size="8" fill="#999">128</text>
<line x1="151.0" y1="60" x2="151.0" y2="198" stroke="#f4f4f4"/>
<text x="151.0" y="209" text-anchor="middle" font-size="8" fill="#999">256</text>
<line x1="203.5" y1="60" x2="203.5" y2="198" stroke="#f4f4f4"/>
<text x="203.5" y="209" text-anchor="middle" font-size="8" fill="#999">512</text>
<line x1="256.0" y1="60" x2="256.0" y2="198" stroke="#f4f4f4"/>
<text x="256.0" y="209" text-anchor="middle" font-size="8" fill="#999">1k</text>
<rect x="276" y="60" width="210" height="138" fill="none" stroke="#e2e2e2"/>
<line x1="276" y1="115.76276119065531" x2="486" y2="115.76276119065531" stroke="#d33" stroke-dasharray="4 3"/>
<text x="272" y="201.0" text-anchor="end" font-size="9" fill="#999">0.5×</text>
<text x="272" y="118.76276119065531" text-anchor="end" font-size="9" fill="#999">1.0×</text>
<text x="272" y="63.0" text-anchor="end" font-size="9" fill="#999">1.6×</text>
<polygon points="276.0,92.5 328.5,94.2 381.0,109.4 433.5,114.7 486.0,120.5 486.0,120.8 433.5,117.9 381.0,111.3 328.5,115.9 276.0,93.2" fill="#888888" opacity="0.11"/>
<polyline points="276.0,93.0 328.5,102.3 381.0,110.6 433.5,116.8 486.0,120.6" fill="none" stroke="#888888" stroke-width="1.6"/>
<circle cx="276.0" cy="93.0" r="2" fill="#888888"/>
<circle cx="328.5" cy="102.3" r="2" fill="#888888"/>
<circle cx="381.0" cy="110.6" r="2" fill="#888888"/>
<circle cx="433.5" cy="116.8" r="2" fill="#888888"/>
<circle cx="486.0" cy="120.6" r="2" fill="#888888"/>
<polygon points="276.0,117.1 328.5,116.5 381.0,110.0 433.5,113.6 486.0,119.6 486.0,119.9 433.5,124.6 381.0,113.2 328.5,117.1 276.0,119.4" fill="#888888" opacity="0.11"/>
<polyline points="276.0,118.3 328.5,116.9 381.0,110.5 433.5,119.3 486.0,119.7" fill="none" stroke="#888888" stroke-width="1.6"/>
<circle cx="276.0" cy="118.3" r="2" fill="#888888"/>
<circle cx="328.5" cy="116.9" r="2" fill="#888888"/>
<circle cx="381.0" cy="110.5" r="2" fill="#888888"/>
<circle cx="433.5" cy="119.3" r="2" fill="#888888"/>
<circle cx="486.0" cy="119.7" r="2" fill="#888888"/>
<polygon points="276.0,110.9 328.5,115.9 381.0,89.9 433.5,119.1 486.0,122.8 486.0,126.0 433.5,124.7 381.0,96.2 328.5,150.7 276.0,115.0" fill="#888888" opacity="0.11"/>
<polyline points="276.0,114.5 328.5,131.8 381.0,93.0 433.5,121.9 486.0,124.4" fill="none" stroke="#888888" stroke-width="1.6"/>
<circle cx="276.0" cy="114.5" r="2" fill="#888888"/>
<circle cx="328.5" cy="131.8" r="2" fill="#888888"/>
<circle cx="381.0" cy="93.0" r="2" fill="#888888"/>
<circle cx="433.5" cy="121.9" r="2" fill="#888888"/>
<circle cx="486.0" cy="124.4" r="2" fill="#888888"/>
<text x="381.0" y="55" text-anchor="middle" font-size="12" font-weight="bold">zgemvT</text>
<line x1="276.0" y1="60" x2="276.0" y2="198" stroke="#f4f4f4"/>
<text x="276.0" y="209" text-anchor="middle" font-size="8" fill="#999">64</text>
<line x1="328.5" y1="60" x2="328.5" y2="198" stroke="#f4f4f4"/>
<text x="328.5" y="209" text-anchor="middle" font-size="8" fill="#999">128</text>
<line x1="381.0" y1="60" x2="381.0" y2="198" stroke="#f4f4f4"/>
<text x="381.0" y="209" text-anchor="middle" font-size="8" fill="#999">256</text>
<line x1="433.5" y1="60" x2="433.5" y2="198" stroke="#f4f4f4"/>
<text x="433.5" y="209" text-anchor="middle" font-size="8" fill="#999">512</text>
<line x1="486.0" y1="60" x2="486.0" y2="198" stroke="#f4f4f4"/>
<text x="486.0" y="209" text-anchor="middle" font-size="8" fill="#999">1k</text>
<rect x="506" y="60" width="210" height="138" fill="none" stroke="#e2e2e2"/>
<line x1="506" y1="116.6951600399796" x2="716" y2="116.6951600399796" stroke="#d33" stroke-dasharray="4 3"/>
<text x="502" y="201.0" text-anchor="end" font-size="9" fill="#999">0.5×</text>
<text x="502" y="119.6951600399796" text-anchor="end" font-size="9" fill="#999">1.0×</text>
<text x="502" y="63.10749445191482" text-anchor="end" font-size="9" fill="#999">1.62×</text>
<polygon points="506.0,85.1 558.5,97.3 611.0,109.9 663.5,115.9 716.0,122.2 716.0,122.6 663.5,116.9 611.0,110.9 558.5,102.7 506.0,87.5" fill="#888888" opacity="0.11"/>
<polyline points="506.0,87.2 558.5,100.0 611.0,110.4 663.5,116.9 716.0,122.5" fill="none" stroke="#888888" stroke-width="1.6"/>
<circle cx="506.0" cy="87.2" r="2" fill="#888888"/>
<circle cx="558.5" cy="100.0" r="2" fill="#888888"/>
<circle cx="611.0" cy="110.4" r="2" fill="#888888"/>
<circle cx="663.5" cy="116.9" r="2" fill="#888888"/>
<circle cx="716.0" cy="122.5" r="2" fill="#888888"/>
<polygon points="506.0,114.0 558.5,115.4 611.0,111.2 663.5,112.2 716.0,119.8 716.0,120.7 663.5,120.0 611.0,112.6 558.5,115.8 506.0,116.2" fill="#888888" opacity="0.11"/>
<polyline points="506.0,115.1 558.5,115.6 611.0,111.9 663.5,117.8 716.0,120.3" fill="none" stroke="#888888" stroke-width="1.6"/>
<circle cx="506.0" cy="115.1" r="2" fill="#888888"/>
<circle cx="558.5" cy="115.6" r="2" fill="#888888"/>
<circle cx="611.0" cy="111.9" r="2" fill="#888888"/>
<circle cx="663.5" cy="117.8" r="2" fill="#888888"/>
<circle cx="716.0" cy="120.3" r="2" fill="#888888"/>
<polygon points="506.0,102.3 558.5,102.6 611.0,69.0 663.5,118.6 716.0,116.3 716.0,124.1 663.5,127.1 611.0,91.5 558.5,115.6 506.0,112.1" fill="#888888" opacity="0.11"/>
<polyline points="506.0,111.9 558.5,112.5 611.0,79.7 663.5,122.8 716.0,120.2" fill="none" stroke="#888888" stroke-width="1.6"/>
<circle cx="506.0" cy="111.9" r="2" fill="#888888"/>
<circle cx="558.5" cy="112.5" r="2" fill="#888888"/>
<circle cx="611.0" cy="79.7" r="2" fill="#888888"/>
<circle cx="663.5" cy="122.8" r="2" fill="#888888"/>
<circle cx="716.0" cy="120.2" r="2" fill="#888888"/>
<text x="611.0" y="55" text-anchor="middle" font-size="12" font-weight="bold">zgemvC</text>
<line x1="506.0" y1="60" x2="506.0" y2="198" stroke="#f4f4f4"/>
<text x="506.0" y="209" text-anchor="middle" font-size="8" fill="#999">64</text>
<line x1="558.5" y1="60" x2="558.5" y2="198" stroke="#f4f4f4"/>
<text x="558.5" y="209" text-anchor="middle" font-size="8" fill="#999">128</text>
<line x1="611.0" y1="60" x2="611.0" y2="198" stroke="#f4f4f4"/>
<text x="611.0" y="209" text-anchor="middle" font-size="8" fill="#999">256</text>
<line x1="663.5" y1="60" x2="663.5" y2="198" stroke="#f4f4f4"/>
<text x="663.5" y="209" text-anchor="middle" font-size="8" fill="#999">512</text>
<line x1="716.0" y1="60" x2="716.0" y2="198" stroke="#f4f4f4"/>
<text x="716.0" y="209" text-anchor="middle" font-size="8" fill="#999">1k</text>
<rect x="736" y="60" width="210" height="138" fill="none" stroke="#e2e2e2"/>
<line x1="736" y1="143.29741680326003" x2="946" y2="143.29741680326003" stroke="#d33" stroke-dasharray="4 3"/>
<text x="732" y="201.0" text-anchor="end" font-size="9" fill="#999">0.5×</text>
<text x="732" y="146.29741680326003" text-anchor="end" font-size="9" fill="#999">1.0×</text>
<text x="732" y="63.09201232147247" text-anchor="end" font-size="9" fill="#999">2.87×</text>
<polygon points="736.0,107.6 788.5,110.9 841.0,116.0 893.5,117.0 946.0,118.1 946.0,126.9 893.5,119.3 841.0,119.8 788.5,113.7 736.0,109.5" fill="#888888" opacity="0.11"/>
<polyline points="736.0,108.3 788.5,111.0 841.0,117.1 893.5,117.6 946.0,118.7" fill="none" stroke="#888888" stroke-width="1.6"/>
<circle cx="736.0" cy="108.3" r="2" fill="#888888"/>
<circle cx="788.5" cy="111.0" r="2" fill="#888888"/>
<circle cx="841.0" cy="117.1" r="2" fill="#888888"/>
<circle cx="893.5" cy="117.6" r="2" fill="#888888"/>
<circle cx="946.0" cy="118.7" r="2" fill="#888888"/>
<polygon points="736.0,136.4 788.5,135.6 841.0,139.5 893.5,141.2 946.0,142.8 946.0,146.4 893.5,141.8 841.0,140.6 788.5,135.6 736.0,139.2" fill="#888888" opacity="0.11"/>
<polyline points="736.0,137.4 788.5,135.6 841.0,140.3 893.5,141.5 946.0,144.6" fill="none" stroke="#888888" stroke-width="1.6"/>
<circle cx="736.0" cy="137.4" r="2" fill="#888888"/>
<circle cx="788.5" cy="135.6" r="2" fill="#888888"/>
<circle cx="841.0" cy="140.3" r="2" fill="#888888"/>
<circle cx="893.5" cy="141.5" r="2" fill="#888888"/>
<circle cx="946.0" cy="144.6" r="2" fill="#888888"/>
<polygon points="736.0,118.4 788.5,66.1 841.0,133.0 893.5,139.7 946.0,148.8 946.0,163.1 893.5,140.1 841.0,138.5 788.5,133.2 736.0,129.0" fill="#888888" opacity="0.11"/>
<polyline points="736.0,123.3 788.5,92.7 841.0,135.7 893.5,139.9 946.0,155.6" fill="none" stroke="#888888" stroke-width="1.6"/>
<circle cx="736.0" cy="123.3" r="2" fill="#888888"/>
<circle cx="788.5" cy="92.7" r="2" fill="#888888"/>
<circle cx="841.0" cy="135.7" r="2" fill="#888888"/>
<circle cx="893.5" cy="139.9" r="2" fill="#888888"/>
<circle cx="946.0" cy="155.6" r="2" fill="#888888"/>
<text x="841.0" y="55" text-anchor="middle" font-size="12" font-weight="bold">zgeru</text>
<line x1="736.0" y1="60" x2="736.0" y2="198" stroke="#f4f4f4"/>
<text x="736.0" y="209" text-anchor="middle" font-size="8" fill="#999">64</text>
<line x1="788.5" y1="60" x2="788.5" y2="198" stroke="#f4f4f4"/>
<text x="788.5" y="209" text-anchor="middle" font-size="8" fill="#999">128</text>
<line x1="841.0" y1="60" x2="841.0" y2="198" stroke="#f4f4f4"/>
<text x="841.0" y="209" text-anchor="middle" font-size="8" fill="#999">256</text>
<line x1="893.5" y1="60" x2="893.5" y2="198" stroke="#f4f4f4"/>
<text x="893.5" y="209" text-anchor="middle" font-size="8" fill="#999">512</text>
<line x1="946.0" y1="60" x2="946.0" y2="198" stroke="#f4f4f4"/>
<text x="946.0" y="209" text-anchor="middle" font-size="8" fill="#999">1k</text>
<rect x="46" y="232" width="210" height="138" fill="none" stroke="#e2e2e2"/>
<line x1="46" y1="314.549871252471" x2="256" y2="314.549871252471" stroke="#d33" stroke-dasharray="4 3"/>
<text x="42" y="373.0" text-anchor="end" font-size="9" fill="#999">0.5×</text>
<text x="42" y="317.549871252471" text-anchor="end" font-size="9" fill="#999">1.0×</text>
<polygon points="46.0,283.9 98.5,298.9 151.0,308.6 203.5,320.6 256.0,328.8 256.0,329.7 203.5,322.5 151.0,312.4 98.5,300.8 46.0,284.7" fill="#888888" opacity="0.11"/>
<polyline points="46.0,284.4 98.5,299.9 151.0,309.9 203.5,321.6 256.0,329.7" fill="none" stroke="#888888" stroke-width="1.6"/>
<circle cx="46.0" cy="284.4" r="2" fill="#888888"/>
<circle cx="98.5" cy="299.9" r="2" fill="#888888"/>
<circle cx="151.0" cy="309.9" r="2" fill="#888888"/>
<circle cx="203.5" cy="321.6" r="2" fill="#888888"/>
<circle cx="256.0" cy="329.7" r="2" fill="#888888"/>
<polygon points="46.0,266.1 98.5,254.0 151.0,246.6 203.5,242.5 256.0,244.3 256.0,245.5 203.5,243.7 151.0,247.8 98.5,254.2 46.0,267.7" fill="#888888" opacity="0.11"/>
<polyline points="46.0,266.3 98.5,254.1 151.0,247.3 203.5,243.3 256.0,244.8" fill="none" stroke="#888888" stroke-width="1.6"/>
<circle cx="46.0" cy="266.3" r="2" fill="#888888"/>
<circle cx="98.5" cy="254.1" r="2" fill="#888888"/>
<circle cx="151.0" cy="247.3" r="2" fill="#888888"/>
<circle cx="203.5" cy="243.3" r="2" fill="#888888"/>
<circle cx="256.0" cy="244.8" r="2" fill="#888888"/>
<polygon points="46.0,258.1 98.5,243.3 151.0,238.5 203.5,238.2 256.0,264.3 256.0,270.6 203.5,239.5 151.0,240.8 98.5,246.7 46.0,262.1" fill="#888888" opacity="0.11"/>
<polyline points="46.0,259.9 98.5,245.0 151.0,239.7 203.5,238.8 256.0,267.4" fill="none" stroke="#888888" stroke-width="1.6"/>
<circle cx="46.0" cy="259.9" r="2" fill="#888888"/>
<circle cx="98.5" cy="245.0" r="2" fill="#888888"/>
<circle cx="151.0" cy="239.7" r="2" fill="#888888"/>
<circle cx="203.5" cy="238.8" r="2" fill="#888888"/>
<circle cx="256.0" cy="267.4" r="2" fill="#888888"/>
<text x="151.0" y="227" text-anchor="middle" font-size="12" font-weight="bold">zhemv</text>
<line x1="46.0" y1="232" x2="46.0" y2="370" stroke="#f4f4f4"/>
<text x="46.0" y="381" text-anchor="middle" font-size="8" fill="#999">64</text>
<line x1="98.5" y1="232" x2="98.5" y2="370" stroke="#f4f4f4"/>
<text x="98.5" y="381" text-anchor="middle" font-size="8" fill="#999">128</text>
<line x1="151.0" y1="232" x2="151.0" y2="370" stroke="#f4f4f4"/>
<text x="151.0" y="381" text-anchor="middle" font-size="8" fill="#999">256</text>
<line x1="203.5" y1="232" x2="203.5" y2="370" stroke="#f4f4f4"/>
<text x="203.5" y="381" text-anchor="middle" font-size="8" fill="#999">512</text>
<line x1="256.0" y1="232" x2="256.0" y2="370" stroke="#f4f4f4"/>
<text x="256.0" y="381" text-anchor="middle" font-size="8" fill="#999">1k</text>
<rect x="276" y="232" width="210" height="138" fill="none" stroke="#e2e2e2"/>
<line x1="276" y1="307.9585028216367" x2="486" y2="307.9585028216367" stroke="#d33" stroke-dasharray="4 3"/>
<text x="272" y="373.0" text-anchor="end" font-size="9" fill="#999">0.5×</text>
<text x="272" y="310.9585028216367" text-anchor="end" font-size="9" fill="#999">1.0×</text>
<polygon points="276.0,238.9 328.5,246.0 381.0,274.2 433.5,262.8 486.0,257.2 486.0,257.9 433.5,264.7 381.0,276.8 328.5,250.3 276.0,240.6" fill="#888888" opacity="0.11"/>
<polyline points="276.0,239.2 328.5,247.0 381.0,275.1 433.5,263.5 486.0,257.5" fill="none" stroke="#888888" stroke-width="1.6"/>
<circle cx="276.0" cy="239.2" r="2" fill="#888888"/>
<circle cx="328.5" cy="247.0" r="2" fill="#888888"/>
<circle cx="381.0" cy="275.1" r="2" fill="#888888"/>
<circle cx="433.5" cy="263.5" r="2" fill="#888888"/>
<circle cx="486.0" cy="257.5" r="2" fill="#888888"/>
<polygon points="276.0,261.0 328.5,263.4 381.0,277.6 433.5,294.7 486.0,305.2 486.0,306.9 433.5,295.7 381.0,284.3 328.5,266.6 276.0,264.5" fill="#888888" opacity="0.11"/>
<polyline points="276.0,263.8 328.5,264.4 381.0,280.6 433.5,295.6 486.0,305.7" fill="none" stroke="#888888" stroke-width="1.6"/>
<circle cx="276.0" cy="263.8" r="2" fill="#888888"/>
<circle cx="328.5" cy="264.4" r="2" fill="#888888"/>
<circle cx="381.0" cy="280.6" r="2" fill="#888888"/>
<circle cx="433.5" cy="295.6" r="2" fill="#888888"/>
<circle cx="486.0" cy="305.7" r="2" fill="#888888"/>
<polygon points="276.0,252.0 328.5,258.7 381.0,284.5 433.5,302.3 486.0,291.3 486.0,312.7 433.5,315.2 381.0,296.8 328.5,297.2 276.0,263.9" fill="#888888" opacity="0.11"/>
<polyline points="276.0,259.9 328.5,267.1 381.0,290.1 433.5,307.4 486.0,301.4" fill="none" stroke="#888888" stroke-width="1.6"/>
<circle cx="276.0" cy="259.9" r="2" fill="#888888"/>
<circle cx="328.5" cy="267.1" r="2" fill="#888888"/>
<circle cx="381.0" cy="290.1" r="2" fill="#888888"/>
<circle cx="433.5" cy="307.4" r="2" fill="#888888"/>
<circle cx="486.0" cy="301.4" r="2" fill="#888888"/>
<text x="381.0" y="227" text-anchor="middle" font-size="12" font-weight="bold">ztrmv</text>
<line x1="276.0" y1="232" x2="276.0" y2="370" stroke="#f4f4f4"/>
<text x="276.0" y="381" text-anchor="middle" font-size="8" fill="#999">64</text>
<line x1="328.5" y1="232" x2="328.5" y2="370" stroke="#f4f4f4"/>
<text x="328.5" y="381" text-anchor="middle" font-size="8" fill="#999">128</text>
<line x1="381.0" y1="232" x2="381.0" y2="370" stroke="#f4f4f4"/>
<text x="381.0" y="381" text-anchor="middle" font-size="8" fill="#999">256</text>
<line x1="433.5" y1="232" x2="433.5" y2="370" stroke="#f4f4f4"/>
<text x="433.5" y="381" text-anchor="middle" font-size="8" fill="#999">512</text>
<line x1="486.0" y1="232" x2="486.0" y2="370" stroke="#f4f4f4"/>
<text x="486.0" y="381" text-anchor="middle" font-size="8" fill="#999">1k</text>
<rect x="506" y="232" width="210" height="138" fill="none" stroke="#e2e2e2"/>
<line x1="506" y1="293.8879455043739" x2="716" y2="293.8879455043739" stroke="#d33" stroke-dasharray="4 3"/>
<text x="502" y="373.0" text-anchor="end" font-size="9" fill="#999">0.5×</text>
<text x="502" y="296.8879455043739" text-anchor="end" font-size="9" fill="#999">1.0×</text>
<polygon points="506.0,245.7 558.5,258.6 611.0,287.7 663.5,274.0 716.0,270.1 716.0,272.5 663.5,276.1 611.0,290.3 558.5,267.9 506.0,249.3" fill="#888888" opacity="0.11"/>
<polyline points="506.0,245.9 558.5,260.8 611.0,289.1 663.5,275.7 716.0,271.7" fill="none" stroke="#888888" stroke-width="1.6"/>
<circle cx="506.0" cy="245.9" r="2" fill="#888888"/>
<circle cx="558.5" cy="260.8" r="2" fill="#888888"/>
<circle cx="611.0" cy="289.1" r="2" fill="#888888"/>
<circle cx="663.5" cy="275.7" r="2" fill="#888888"/>
<circle cx="716.0" cy="271.7" r="2" fill="#888888"/>
<polygon points="506.0,256.7 558.5,256.7 611.0,259.1 663.5,272.2 716.0,284.4 716.0,288.8 663.5,273.3 611.0,260.6 558.5,257.2 506.0,257.1" fill="#888888" opacity="0.11"/>
<polyline points="506.0,256.9 558.5,256.9 611.0,259.9 663.5,272.6 716.0,285.0" fill="none" stroke="#888888" stroke-width="1.6"/>
<circle cx="506.0" cy="256.9" r="2" fill="#888888"/>
<circle cx="558.5" cy="256.9" r="2" fill="#888888"/>
<circle cx="611.0" cy="259.9" r="2" fill="#888888"/>
<circle cx="663.5" cy="272.6" r="2" fill="#888888"/>
<circle cx="716.0" cy="285.0" r="2" fill="#888888"/>
<polygon points="506.0,240.5 558.5,252.8 611.0,262.2 663.5,268.3 716.0,307.3 716.0,327.2 663.5,275.9 611.0,267.2 558.5,258.3 506.0,251.4" fill="#888888" opacity="0.11"/>
<polyline points="506.0,249.8 558.5,256.1 611.0,262.2 663.5,272.0 716.0,316.8" fill="none" stroke="#888888" stroke-width="1.6"/>
<circle cx="506.0" cy="249.8" r="2" fill="#888888"/>
<circle cx="558.5" cy="256.1" r="2" fill="#888888"/>
<circle cx="611.0" cy="262.2" r="2" fill="#888888"/>
<circle cx="663.5" cy="272.0" r="2" fill="#888888"/>
<circle cx="716.0" cy="316.8" r="2" fill="#888888"/>
<text x="611.0" y="227" text-anchor="middle" font-size="12" font-weight="bold">ztrsv</text>
<line x1="506.0" y1="232" x2="506.0" y2="370" stroke="#f4f4f4"/>
<text x="506.0" y="381" text-anchor="middle" font-size="8" fill="#999">64</text>
<line x1="558.5" y1="232" x2="558.5" y2="370" stroke="#f4f4f4"/>
<text x="558.5" y="381" text-anchor="middle" font-size="8" fill="#999">128</text>
<line x1="611.0" y1="232" x2="611.0" y2="370" stroke="#f4f4f4"/>
<text x="611.0" y="381" text-anchor="middle" font-size="8" fill="#999">256</text>
<line x1="663.5" y1="232" x2="663.5" y2="370" stroke="#f4f4f4"/>
<text x="663.5" y="381" text-anchor="middle" font-size="8" fill="#999">512</text>
<line x1="716.0" y1="232" x2="716.0" y2="370" stroke="#f4f4f4"/>
<text x="716.0" y="381" text-anchor="middle" font-size="8" fill="#999">1k</text>
<rect x="736" y="232" width="210" height="138" fill="none" stroke="#e2e2e2"/>
<line x1="736" y1="339.2320091081167" x2="946" y2="339.2320091081167" stroke="#d33" stroke-dasharray="4 3"/>
<text x="732" y="373.0" text-anchor="end" font-size="9" fill="#999">0.5×</text>
<text x="732" y="342.2320091081167" text-anchor="end" font-size="9" fill="#999">1.0×</text>
<polygon points="736.0,269.4 788.5,258.4 841.0,251.7 893.5,248.8 946.0,249.1 946.0,252.0 893.5,249.2 841.0,252.5 788.5,259.0 736.0,270.9" fill="#888888" opacity="0.11"/>
<polyline points="736.0,269.8 788.5,258.5 841.0,252.3 893.5,249.0 946.0,249.3" fill="none" stroke="#888888" stroke-width="1.6"/>
<circle cx="736.0" cy="269.8" r="2" fill="#888888"/>
<circle cx="788.5" cy="258.5" r="2" fill="#888888"/>
<circle cx="841.0" cy="252.3" r="2" fill="#888888"/>
<circle cx="893.5" cy="249.0" r="2" fill="#888888"/>
<circle cx="946.0" cy="249.3" r="2" fill="#888888"/>
<polygon points="736.0,269.8 788.5,253.4 841.0,243.7 893.5,238.4 946.0,235.4 946.0,235.7 893.5,238.6 841.0,244.3 788.5,253.9 736.0,275.4" fill="#888888" opacity="0.11"/>
<polyline points="736.0,269.9 788.5,253.4 841.0,244.2 893.5,238.5 946.0,235.6" fill="none" stroke="#888888" stroke-width="1.6"/>
<circle cx="736.0" cy="269.9" r="2" fill="#888888"/>
<circle cx="788.5" cy="253.4" r="2" fill="#888888"/>
<circle cx="841.0" cy="244.2" r="2" fill="#888888"/>
<circle cx="893.5" cy="238.5" r="2" fill="#888888"/>
<circle cx="946.0" cy="235.6" r="2" fill="#888888"/>
<polygon points="736.0,268.6 788.5,254.9 841.0,243.3 893.5,242.1 946.0,252.1 946.0,253.2 893.5,242.5 841.0,249.4 788.5,259.4 736.0,275.5" fill="#888888" opacity="0.11"/>
<polyline points="736.0,271.8 788.5,257.1 841.0,246.2 893.5,242.3 946.0,252.7" fill="none" stroke="#888888" stroke-width="1.6"/>
<circle cx="736.0" cy="271.8" r="2" fill="#888888"/>
<circle cx="788.5" cy="257.1" r="2" fill="#888888"/>
<circle cx="841.0" cy="246.2" r="2" fill="#888888"/>
<circle cx="893.5" cy="242.3" r="2" fill="#888888"/>
<circle cx="946.0" cy="252.7" r="2" fill="#888888"/>
<text x="841.0" y="227" text-anchor="middle" font-size="12" font-weight="bold">zhpmv</text>
<line x1="736.0" y1="232" x2="736.0" y2="370" stroke="#f4f4f4"/>
<text x="736.0" y="381" text-anchor="middle" font-size="8" fill="#999">64</text>
<line x1="788.5" y1="232" x2="788.5" y2="370" stroke="#f4f4f4"/>
<text x="788.5" y="381" text-anchor="middle" font-size="8" fill="#999">128</text>
<line x1="841.0" y1="232" x2="841.0" y2="370" stroke="#f4f4f4"/>
<text x="841.0" y="381" text-anchor="middle" font-size="8" fill="#999">256</text>
<line x1="893.5" y1="232" x2="893.5" y2="370" stroke="#f4f4f4"/>
<text x="893.5" y="381" text-anchor="middle" font-size="8" fill="#999">512</text>
<line x1="946.0" y1="232" x2="946.0" y2="370" stroke="#f4f4f4"/>
<text x="946.0" y="381" text-anchor="middle" font-size="8" fill="#999">1k</text>
<rect x="46" y="404" width="210" height="138" fill="none" stroke="#e2e2e2"/>
<line x1="46" y1="485.6456152891385" x2="256" y2="485.6456152891385" stroke="#d33" stroke-dasharray="4 3"/>
<text x="42" y="545.0" text-anchor="end" font-size="9" fill="#999">0.5×</text>
<text x="42" y="488.6456152891385" text-anchor="end" font-size="9" fill="#999">1.0×</text>
<polygon points="46.0,421.8 98.5,423.3 151.0,423.6 203.5,424.7 256.0,427.7 256.0,430.8 203.5,430.1 151.0,425.9 98.5,427.9 46.0,429.8" fill="#888888" opacity="0.11"/>
<polyline points="46.0,423.1 98.5,426.6 151.0,424.4 203.5,426.0 256.0,428.9" fill="none" stroke="#888888" stroke-width="1.6"/>
<circle cx="46.0" cy="423.1" r="2" fill="#888888"/>
<circle cx="98.5" cy="426.6" r="2" fill="#888888"/>
<circle cx="151.0" cy="424.4" r="2" fill="#888888"/>
<circle cx="203.5" cy="426.0" r="2" fill="#888888"/>
<circle cx="256.0" cy="428.9" r="2" fill="#888888"/>
<polygon points="46.0,412.0 98.5,410.3 151.0,413.1 203.5,413.7 256.0,413.9 256.0,414.6 203.5,414.3 151.0,414.9 98.5,412.4 46.0,413.2" fill="#888888" opacity="0.11"/>
<polyline points="46.0,412.5 98.5,410.5 151.0,414.0 203.5,413.9 256.0,414.1" fill="none" stroke="#888888" stroke-width="1.6"/>
<circle cx="46.0" cy="412.5" r="2" fill="#888888"/>
<circle cx="98.5" cy="410.5" r="2" fill="#888888"/>
<circle cx="151.0" cy="414.0" r="2" fill="#888888"/>
<circle cx="203.5" cy="413.9" r="2" fill="#888888"/>
<circle cx="256.0" cy="414.1" r="2" fill="#888888"/>
<polygon points="46.0,427.0 98.5,429.4 151.0,431.9 203.5,429.6 256.0,423.3 256.0,441.9 203.5,437.2 151.0,436.3 98.5,434.0 46.0,433.4" fill="#888888" opacity="0.11"/>
<polyline points="46.0,429.8 98.5,431.2 151.0,433.4 203.5,433.1 256.0,431.4" fill="none" stroke="#888888" stroke-width="1.6"/>
<circle cx="46.0" cy="429.8" r="2" fill="#888888"/>
<circle cx="98.5" cy="431.2" r="2" fill="#888888"/>
<circle cx="151.0" cy="433.4" r="2" fill="#888888"/>
<circle cx="203.5" cy="433.1" r="2" fill="#888888"/>
<circle cx="256.0" cy="431.4" r="2" fill="#888888"/>
<text x="151.0" y="399" text-anchor="middle" font-size="12" font-weight="bold">zgbmvN</text>
<line x1="46.0" y1="404" x2="46.0" y2="542" stroke="#f4f4f4"/>
<text x="46.0" y="553" text-anchor="middle" font-size="8" fill="#999">64</text>
<line x1="98.5" y1="404" x2="98.5" y2="542" stroke="#f4f4f4"/>
<text x="98.5" y="553" text-anchor="middle" font-size="8" fill="#999">128</text>
<line x1="151.0" y1="404" x2="151.0" y2="542" stroke="#f4f4f4"/>
<text x="151.0" y="553" text-anchor="middle" font-size="8" fill="#999">256</text>
<line x1="203.5" y1="404" x2="203.5" y2="542" stroke="#f4f4f4"/>
<text x="203.5" y="553" text-anchor="middle" font-size="8" fill="#999">512</text>
<line x1="256.0" y1="404" x2="256.0" y2="542" stroke="#f4f4f4"/>
<text x="256.0" y="553" text-anchor="middle" font-size="8" fill="#999">1k</text>
<rect x="276" y="404" width="210" height="138" fill="none" stroke="#e2e2e2"/>
<line x1="276" y1="500.9633885275162" x2="486" y2="500.9633885275162" stroke="#d33" stroke-dasharray="4 3"/>
<text x="272" y="545.0" text-anchor="end" font-size="9" fill="#999">0.5×</text>
<text x="272" y="503.9633885275162" text-anchor="end" font-size="9" fill="#999">1.0×</text>
<text x="272" y="407.0444179740269" text-anchor="end" font-size="9" fill="#999">5.14×</text>
<polygon points="276.0,442.6 328.5,440.4 381.0,439.1 433.5,438.9 486.0,438.8 486.0,439.2 433.5,439.5 381.0,441.0 328.5,442.5 276.0,444.7" fill="#888888" opacity="0.11"/>
<polyline points="276.0,442.9 328.5,441.1 381.0,439.8 433.5,439.3 486.0,439.0" fill="none" stroke="#888888" stroke-width="1.6"/>
<circle cx="276.0" cy="442.9" r="2" fill="#888888"/>
<circle cx="328.5" cy="441.1" r="2" fill="#888888"/>
<circle cx="381.0" cy="439.8" r="2" fill="#888888"/>
<circle cx="433.5" cy="439.3" r="2" fill="#888888"/>
<circle cx="486.0" cy="439.0" r="2" fill="#888888"/>
<polygon points="276.0,452.2 328.5,449.8 381.0,449.1 433.5,448.5 486.0,448.4 486.0,448.5 433.5,448.7 381.0,449.4 328.5,450.7 276.0,452.4" fill="#888888" opacity="0.11"/>
<polyline points="276.0,452.3 328.5,450.2 381.0,449.2 433.5,448.6 486.0,448.4" fill="none" stroke="#888888" stroke-width="1.6"/>
<circle cx="276.0" cy="452.3" r="2" fill="#888888"/>
<circle cx="328.5" cy="450.2" r="2" fill="#888888"/>
<circle cx="381.0" cy="449.2" r="2" fill="#888888"/>
<circle cx="433.5" cy="448.6" r="2" fill="#888888"/>
<circle cx="486.0" cy="448.4" r="2" fill="#888888"/>
<polygon points="276.0,408.6 328.5,448.2 381.0,447.0 433.5,446.8 486.0,446.5 486.0,447.5 433.5,447.7 381.0,448.6 328.5,453.0 276.0,451.5" fill="#888888" opacity="0.11"/>
<polyline points="276.0,432.1 328.5,449.0 381.0,447.4 433.5,446.9 486.0,447.1" fill="none" stroke="#888888" stroke-width="1.6"/>
<circle cx="276.0" cy="432.1" r="2" fill="#888888"/>
<circle cx="328.5" cy="449.0" r="2" fill="#888888"/>
<circle cx="381.0" cy="447.4" r="2" fill="#888888"/>
<circle cx="433.5" cy="446.9" r="2" fill="#888888"/>
<circle cx="486.0" cy="447.1" r="2" fill="#888888"/>
<text x="381.0" y="399" text-anchor="middle" font-size="12" font-weight="bold">zhbmv</text>
<line x1="276.0" y1="404" x2="276.0" y2="542" stroke="#f4f4f4"/>
<text x="276.0" y="553" text-anchor="middle" font-size="8" fill="#999">64</text>
<line x1="328.5" y1="404" x2="328.5" y2="542" stroke="#f4f4f4"/>
<text x="328.5" y="553" text-anchor="middle" font-size="8" fill="#999">128</text>
<line x1="381.0" y1="404" x2="381.0" y2="542" stroke="#f4f4f4"/>
<text x="381.0" y="553" text-anchor="middle" font-size="8" fill="#999">256</text>
<line x1="433.5" y1="404" x2="433.5" y2="542" stroke="#f4f4f4"/>
<text x="433.5" y="553" text-anchor="middle" font-size="8" fill="#999">512</text>
<line x1="486.0" y1="404" x2="486.0" y2="542" stroke="#f4f4f4"/>
<text x="486.0" y="553" text-anchor="middle" font-size="8" fill="#999">1k</text>
</svg>
