<svg xmlns="http://www.w3.org/2000/svg" width="900" height="460" font-family="sans-serif">
<rect width="900" height="460" fill="white"/>
<text x="450.0" y="28" text-anchor="middle" font-size="18" font-weight="bold">LAPACK: PureBLAS / OpenBLAS (AVX2, 1 thread, Float64)</text>
<line x1="62" y1="400.0" x2="768" y2="400.0" stroke="#eee"/>
<text x="54" y="404.0" text-anchor="end" font-size="11" fill="#666">0.5×</text>
<line x1="62" y1="342.4517388549237" x2="768" y2="342.4517388549237" stroke="#eee"/>
<text x="54" y="346.4517388549237" text-anchor="end" font-size="11" fill="#666">0.7×</text>
<line x1="62" y1="281.448123745963" x2="768" y2="281.448123745963" stroke="#eee"/>
<text x="54" y="285.448123745963" text-anchor="end" font-size="11" fill="#666">1.0×</text>
<line x1="62" y1="212.09972174721645" x2="768" y2="212.09972174721645" stroke="#eee"/>
<text x="54" y="216.09972174721645" text-anchor="end" font-size="11" fill="#666">1.5×</text>
<line x1="62" y1="162.89624749192598" x2="768" y2="162.89624749192598" stroke="#eee"/>
<text x="54" y="166.89624749192598" text-anchor="end" font-size="11" fill="#666">2.0×</text>
<line x1="62" y1="93.54784549317941" x2="768" y2="93.54784549317941" stroke="#eee"/>
<text x="54" y="97.54784549317941" text-anchor="end" font-size="11" fill="#666">3.0×</text>
<line x1="62.0" y1="50" x2="62.0" y2="400" stroke="#f4f4f4"/>
<text x="62.0" y="418" text-anchor="middle" font-size="11" fill="#444">8</text>
<line x1="238.5" y1="50" x2="238.5" y2="400" stroke="#f4f4f4"/>
<text x="238.5" y="418" text-anchor="middle" font-size="11" fill="#444">32</text>
<line x1="415.0" y1="50" x2="415.0" y2="400" stroke="#f4f4f4"/>
<text x="415.0" y="418" text-anchor="middle" font-size="11" fill="#444">128</text>
<line x1="503.25" y1="50" x2="503.25" y2="400" stroke="#f4f4f4"/>
<text x="503.25" y="418" text-anchor="middle" font-size="11" fill="#444">256</text>
<line x1="591.5" y1="50" x2="591.5" y2="400" stroke="#f4f4f4"/>
<text x="591.5" y="418" text-anchor="middle" font-size="11" fill="#444">512</text>
<line x1="679.75" y1="50" x2="679.75" y2="400" stroke="#f4f4f4"/>
<text x="679.75" y="418" text-anchor="middle" font-size="11" fill="#444">1024</text>
<line x1="768.0" y1="50" x2="768.0" y2="400" stroke="#f4f4f4"/>
<text x="768.0" y="418" text-anchor="middle" font-size="11" fill="#444">2048</text>
<line x1="62" y1="281.448123745963" x2="768" y2="281.448123745963" stroke="#888"/>
<line x1="62" y1="288.43008108278536" x2="768" y2="288.43008108278536" stroke="#d33" stroke-width="1.5" stroke-dasharray="6 4"/>
<text x="66" y="283.43008108278536" font-size="11" fill="#d33">0.96× gate</text>
<polygon points="62.0,228.2 238.5,199.5 415.0,271.8 503.2,268.3 591.5,266.0 679.8,271.0 768.0,270.5 768.0,272.7 679.8,271.7 591.5,268.6 503.2,271.3 415.0,274.0 238.5,201.5 62.0,229.0" fill="#1f77b4" opacity="0.14" stroke="none"/>
<polyline points="62.0,228.7 238.5,200.3 415.0,273.5 503.2,270.7 591.5,267.4 679.8,271.2 768.0,271.3" fill="none" stroke="#1f77b4" stroke-width="2"/>
<circle cx="62.0" cy="228.7" r="3" fill="#1f77b4"/>
<circle cx="238.5" cy="200.3" r="3" fill="#1f77b4"/>
<circle cx="415.0" cy="273.5" r="3" fill="#1f77b4"/>
<circle cx="503.2" cy="270.7" r="3" fill="#1f77b4"/>
<circle cx="591.5" cy="267.4" r="3" fill="#1f77b4"/>
<circle cx="679.8" cy="271.2" r="3" fill="#1f77b4"/>
<circle cx="768.0" cy="271.3" r="3" fill="#1f77b4"/>
<line x1="782" y1="56" x2="802" y2="56" stroke="#1f77b4" stroke-width="3"/>
<text x="806" y="60" font-size="12">potrf</text>
<polygon points="62.0,50.0 238.5,197.4 415.0,238.6 503.2,260.0 591.5,243.5 679.8,248.7 768.0,244.8 768.0,246.1 679.8,249.8 591.5,244.2 503.2,261.2 415.0,239.1 238.5,198.7 62.0,94.1" fill="#d62728" opacity="0.14" stroke="none"/>
<polyline points="62.0,73.9 238.5,198.6 415.0,238.9 503.2,260.5 591.5,243.9 679.8,249.1 768.0,245.3" fill="none" stroke="#d62728" stroke-width="2"/>
<circle cx="62.0" cy="73.9" r="3" fill="#d62728"/>
<circle cx="238.5" cy="198.6" r="3" fill="#d62728"/>
<circle cx="415.0" cy="238.9" r="3" fill="#d62728"/>
<circle cx="503.2" cy="260.5" r="3" fill="#d62728"/>
<circle cx="591.5" cy="243.9" r="3" fill="#d62728"/>
<circle cx="679.8" cy="249.1" r="3" fill="#d62728"/>
<circle cx="768.0" cy="245.3" r="3" fill="#d62728"/>
<line x1="782" y1="74" x2="802" y2="74" stroke="#d62728" stroke-width="3"/>
<text x="806" y="78" font-size="12">geqrf</text>
<polygon points="62.0,139.2 238.5,140.5 415.0,242.7 503.2,275.5 591.5,278.5 679.8,271.1 768.0,273.6 768.0,279.2 679.8,271.5 591.5,280.2 503.2,278.0 415.0,244.3 238.5,140.8 62.0,144.4" fill="#2ca02c" opacity="0.14" stroke="none"/>
<polyline points="62.0,140.7 238.5,140.7 415.0,243.1 503.2,276.9 591.5,279.5 679.8,271.2 768.0,276.1" fill="none" stroke="#2ca02c" stroke-width="2"/>
<circle cx="62.0" cy="140.7" r="3" fill="#2ca02c"/>
<circle cx="238.5" cy="140.7" r="3" fill="#2ca02c"/>
<circle cx="415.0" cy="243.1" r="3" fill="#2ca02c"/>
<circle cx="503.2" cy="276.9" r="3" fill="#2ca02c"/>
<circle cx="591.5" cy="279.5" r="3" fill="#2ca02c"/>
<circle cx="679.8" cy="271.2" r="3" fill="#2ca02c"/>
<circle cx="768.0" cy="276.1" r="3" fill="#2ca02c"/>
<line x1="782" y1="92" x2="802" y2="92" stroke="#2ca02c" stroke-width="3"/>
<text x="806" y="96" font-size="12">getrf</text>
<polygon points="62.0,187.8 238.5,248.1 415.0,264.4 503.2,241.5 591.5,230.6 679.8,239.3 768.0,247.9 768.0,251.8 679.8,248.5 591.5,235.5 503.2,242.8 415.0,265.0 238.5,248.9 62.0,191.7" fill="#9467bd" opacity="0.14" stroke="none"/>
<polyline points="62.0,190.1 238.5,248.6 415.0,264.8 503.2,241.7 591.5,234.0 679.8,241.5 768.0,248.9" fill="none" stroke="#9467bd" stroke-width="2"/>
<circle cx="62.0" cy="190.1" r="3" fill="#9467bd"/>
<circle cx="238.5" cy="248.6" r="3" fill="#9467bd"/>
<circle cx="415.0" cy="264.8" r="3" fill="#9467bd"/>
<circle cx="503.2" cy="241.7" r="3" fill="#9467bd"/>
<circle cx="591.5" cy="234.0" r="3" fill="#9467bd"/>
<circle cx="679.8" cy="241.5" r="3" fill="#9467bd"/>
<circle cx="768.0" cy="248.9" r="3" fill="#9467bd"/>
<line x1="782" y1="110" x2="802" y2="110" stroke="#9467bd" stroke-width="3"/>
<text x="806" y="114" font-size="12">gesvd</text>
<text x="415.0" y="450" text-anchor="middle" font-size="11" fill="#666">matrix size n (log) · y = median ratio (log) · dashed = the 0.96× gate</text>
</svg>
