<svg xmlns="http://www.w3.org/2000/svg" width="900" height="440" font-family="sans-serif">
<rect width="900" height="440" fill="white"/>
<text x="450.0" y="28" text-anchor="middle" font-size="18" font-weight="bold">Complex BLAS-2: PureBLAS / OpenBLAS (AVX2, 1 thread, ComplexF64)</text>
<line x1="60" y1="358.0" x2="880" y2="358.0" stroke="#eee"/>
<text x="52" y="362.0" text-anchor="end" font-size="11" fill="#666">0×</text>
<line x1="60" y1="278.65480668828314" x2="880" y2="278.65480668828314" stroke="#eee"/>
<text x="52" y="282.65480668828314" text-anchor="end" font-size="11" fill="#666">0.5×</text>
<line x1="60" y1="199.3096133765663" x2="880" y2="199.3096133765663" stroke="#eee"/>
<text x="52" y="203.3096133765663" text-anchor="end" font-size="11" fill="#666">1×</text>
<line x1="60" y1="119.96442006484938" x2="880" y2="119.96442006484938" stroke="#eee"/>
<text x="52" y="123.96442006484938" text-anchor="end" font-size="11" fill="#666">1.5×</text>
<line x1="60" y1="199.3096133765663" x2="880" y2="199.3096133765663" stroke="#888" stroke-width="1"/>
<line x1="60" y1="205.6572288415036" x2="880" y2="205.6572288415036" stroke="#d33" stroke-width="1.5" stroke-dasharray="6 4"/>
<text x="880" y="200.6572288415036" text-anchor="end" font-size="11" fill="#d33">0.96× gate</text>
<polygon points="101.5,196.9 101.7,196.5 102.1,196.0 102.6,195.6 103.4,195.2 104.4,194.8 105.7,194.4 107.4,194.0 109.4,193.6 111.8,193.1 114.6,192.7 117.6,192.3 120.8,191.9 123.9,191.5 126.9,191.1 129.6,190.6 131.9,190.2 133.6,189.8 134.8,189.4 135.4,189.0 135.4,188.6 135.0,188.1 134.1,187.7 132.8,187.3 131.1,186.9 129.1,186.5 126.8,186.1 124.4,185.6 121.9,185.2 119.5,184.8 117.4,184.4 115.6,184.0 114.2,183.6 113.4,183.2 113.1,182.7 113.4,182.3 114.1,181.9 115.2,181.5 116.5,181.1 117.8,180.7 119.1,180.2 120.3,179.8 121.1,179.4 121.7,179.0 122.0,178.6 122.1,178.2 121.9,177.7 121.6,177.3 121.2,176.9 120.7,176.5 120.1,176.1 119.5,175.7 118.8,175.2 118.1,174.8 117.3,174.4 116.5,174.0 115.6,173.6 114.6,173.2 113.6,172.8 112.4,172.3 111.2,171.9 110.0,171.5 108.7,171.1 107.5,170.7 106.4,170.3 105.3,169.8 104.4,169.4 103.6,169.0 102.9,168.6 102.4,168.2 102.0,167.8 101.7,167.3 100.3,167.3 100.0,167.8 99.6,168.2 99.1,168.6 98.4,169.0 97.6,169.4 96.7,169.8 95.6,170.3 94.5,170.7 93.3,171.1 92.0,171.5 90.8,171.9 89.6,172.3 88.4,172.8 87.4,173.2 86.4,173.6 85.5,174.0 84.7,174.4 83.9,174.8 83.2,175.2 82.5,175.7 81.9,176.1 81.3,176.5 80.8,176.9 80.4,177.3 80.1,177.7 79.9,178.2 80.0,178.6 80.3,179.0 80.9,179.4 81.7,179.8 82.9,180.2 84.2,180.7 85.5,181.1 86.8,181.5 87.9,181.9 88.6,182.3 88.9,182.7 88.6,183.2 87.8,183.6 86.4,184.0 84.6,184.4 82.5,184.8 80.1,185.2 77.6,185.6 75.2,186.1 72.9,186.5 70.9,186.9 69.2,187.3 67.9,187.7 67.0,188.1 66.6,188.6 66.6,189.0 67.2,189.4 68.4,189.8 70.1,190.2 72.4,190.6 75.1,191.1 78.1,191.5 81.2,191.9 84.4,192.3 87.4,192.7 90.2,193.1 92.6,193.6 94.6,194.0 96.3,194.4 97.6,194.8 98.6,195.2 99.4,195.6 99.9,196.0 100.3,196.5 100.5,196.9" fill="#2a8" opacity="0.5" stroke="#2a8" stroke-width="1"/>
<line x1="75.9" y1="185.9344162849014" x2="126.1" y2="185.9344162849014" stroke="#114" stroke-width="2"/>
<circle cx="101.0" cy="190.24015072174566" r="2.4" fill="#114"/>
<text x="101.0" y="164.4584395833516" text-anchor="middle" font-size="11">1.08</text>
<text x="101.0" y="376" text-anchor="middle" font-size="12">zgemvN</text>
<polygon points="183.5,187.5 183.7,186.9 184.2,186.3 184.7,185.7 185.6,185.1 186.7,184.5 188.1,183.9 189.9,183.3 192.1,182.8 194.7,182.2 197.5,181.6 200.6,181.0 203.9,180.4 207.0,179.8 210.0,179.2 212.6,178.6 214.7,178.0 216.2,177.4 217.1,176.8 217.4,176.3 217.2,175.7 216.6,175.1 215.7,174.5 214.6,173.9 213.3,173.3 212.1,172.7 210.8,172.1 209.7,171.5 208.6,170.9 207.7,170.3 207.0,169.7 206.6,169.2 206.3,168.6 206.2,168.0 206.2,167.4 206.3,166.8 206.2,166.2 205.9,165.6 205.2,165.0 204.2,164.4 202.7,163.8 200.9,163.2 198.9,162.7 196.7,162.1 194.5,161.5 192.4,160.9 190.5,160.3 188.9,159.7 187.6,159.1 186.7,158.5 186.1,157.9 185.8,157.3 185.8,156.7 186.2,156.1 186.7,155.6 187.5,155.0 188.6,154.4 189.7,153.8 190.9,153.2 192.1,152.6 193.2,152.0 194.0,151.4 194.4,150.8 194.5,150.2 194.1,149.6 193.4,149.1 192.4,148.5 191.2,147.9 189.8,147.3 188.5,146.7 187.3,146.1 186.2,145.5 179.8,145.5 178.7,146.1 177.5,146.7 176.2,147.3 174.8,147.9 173.6,148.5 172.6,149.1 171.9,149.6 171.5,150.2 171.6,150.8 172.0,151.4 172.8,152.0 173.9,152.6 175.1,153.2 176.3,153.8 177.4,154.4 178.5,155.0 179.3,155.6 179.8,156.1 180.2,156.7 180.2,157.3 179.9,157.9 179.3,158.5 178.4,159.1 177.1,159.7 175.5,160.3 173.6,160.9 171.5,161.5 169.3,162.1 167.1,162.7 165.1,163.2 163.3,163.8 161.8,164.4 160.8,165.0 160.1,165.6 159.8,166.2 159.7,166.8 159.8,167.4 159.8,168.0 159.7,168.6 159.4,169.2 159.0,169.7 158.3,170.3 157.4,170.9 156.3,171.5 155.2,172.1 153.9,172.7 152.7,173.3 151.4,173.9 150.3,174.5 149.4,175.1 148.8,175.7 148.6,176.3 148.9,176.8 149.8,177.4 151.3,178.0 153.4,178.6 156.0,179.2 159.0,179.8 162.1,180.4 165.4,181.0 168.5,181.6 171.3,182.2 173.9,182.8 176.1,183.3 177.9,183.9 179.3,184.5 180.4,185.1 181.3,185.7 181.8,186.3 182.3,186.9 182.5,187.5" fill="#2a8" opacity="0.5" stroke="#2a8" stroke-width="1"/>
<line x1="156.7" y1="171.33105195572557" x2="209.3" y2="171.33105195572557" stroke="#114" stroke-width="2"/>
<circle cx="183.0" cy="179.4108039850267" r="2.4" fill="#114"/>
<text x="183.0" y="143.82144161068902" text-anchor="middle" font-size="11">1.18</text>
<text x="183.0" y="376" text-anchor="middle" font-size="12">zgemvT</text>
<polygon points="267.4,184.8 268.4,184.3 269.7,183.8 271.4,183.4 273.3,182.9 275.4,182.4 277.7,181.9 280.1,181.5 282.3,181.0 284.3,180.5 286.0,180.0 287.3,179.6 288.2,179.1 288.8,178.6 289.0,178.1 289.1,177.7 289.1,177.2 289.3,176.7 289.6,176.2 290.2,175.8 291.1,175.3 292.3,174.8 293.8,174.3 295.3,173.9 296.8,173.4 298.1,172.9 299.0,172.4 299.4,172.0 299.2,171.5 298.3,171.0 296.7,170.5 294.4,170.1 291.5,169.6 288.3,169.1 284.8,168.6 281.4,168.2 278.2,167.7 275.3,167.2 272.8,166.7 270.8,166.2 269.2,165.8 268.0,165.3 267.2,164.8 266.7,164.3 266.4,163.9 266.2,163.4 266.2,162.9 266.3,162.4 266.4,162.0 266.7,161.5 267.0,161.0 267.5,160.5 268.1,160.1 268.8,159.6 269.7,159.1 270.6,158.6 271.6,158.2 272.6,157.7 273.5,157.2 274.1,156.7 274.6,156.3 274.7,155.8 274.5,155.3 273.9,154.8 273.2,154.4 272.2,153.9 271.1,153.4 270.0,152.9 269.0,152.5 268.1,152.0 267.3,151.5 266.6,151.0 263.4,151.0 262.7,151.5 261.9,152.0 261.0,152.5 260.0,152.9 258.9,153.4 257.8,153.9 256.8,154.4 256.1,154.8 255.5,155.3 255.3,155.8 255.4,156.3 255.9,156.7 256.5,157.2 257.4,157.7 258.4,158.2 259.4,158.6 260.3,159.1 261.2,159.6 261.9,160.1 262.5,160.5 263.0,161.0 263.3,161.5 263.6,162.0 263.7,162.4 263.8,162.9 263.8,163.4 263.6,163.9 263.3,164.3 262.8,164.8 262.0,165.3 260.8,165.8 259.2,166.2 257.2,166.7 254.7,167.2 251.8,167.7 248.6,168.2 245.2,168.6 241.7,169.1 238.5,169.6 235.6,170.1 233.3,170.5 231.7,171.0 230.8,171.5 230.6,172.0 231.0,172.4 231.9,172.9 233.2,173.4 234.7,173.9 236.2,174.3 237.7,174.8 238.9,175.3 239.8,175.8 240.4,176.2 240.7,176.7 240.9,177.2 240.9,177.7 241.0,178.1 241.2,178.6 241.8,179.1 242.7,179.6 244.0,180.0 245.7,180.5 247.7,181.0 249.9,181.5 252.3,181.9 254.6,182.4 256.7,182.9 258.6,183.4 260.3,183.8 261.6,184.3 262.6,184.8" fill="#2a8" opacity="0.5" stroke="#2a8" stroke-width="1"/>
<line x1="231.9" y1="172.9032334429093" x2="298.1" y2="172.9032334429093" stroke="#114" stroke-width="2"/>
<circle cx="265.0" cy="180.1305887420035" r="2.4" fill="#114"/>
<text x="265.0" y="148.55431551751965" text-anchor="middle" font-size="11">1.17</text>
<text x="265.0" y="376" text-anchor="middle" font-size="12">zgemvC</text>
<polygon points="347.5,228.8 347.7,227.6 348.0,226.4 348.3,225.1 348.8,223.9 349.3,222.7 349.9,221.5 350.7,220.2 351.5,219.0 352.6,217.8 353.9,216.6 355.5,215.3 357.4,214.1 359.5,212.9 362.0,211.6 364.8,210.4 367.8,209.2 370.8,208.0 373.8,206.7 376.5,205.5 378.7,204.3 380.4,203.0 381.3,201.8 381.4,200.6 380.8,199.4 379.5,198.1 377.5,196.9 375.2,195.7 372.6,194.5 369.8,193.2 367.1,192.0 364.5,190.8 362.0,189.5 359.8,188.3 357.8,187.1 356.3,185.9 355.0,184.6 354.2,183.4 353.8,182.2 353.7,180.9 354.0,179.7 354.4,178.5 355.0,177.3 355.6,176.0 356.1,174.8 356.4,173.6 356.5,172.3 356.2,171.1 355.7,169.9 355.0,168.7 354.2,167.4 353.4,166.2 352.7,165.0 352.1,163.8 351.8,162.5 351.8,161.3 352.0,160.1 352.5,158.8 353.2,157.6 354.0,156.4 354.8,155.2 355.4,153.9 355.9,152.7 356.1,151.5 356.0,150.2 355.6,149.0 355.0,147.8 354.1,146.6 353.1,145.3 352.1,144.1 351.1,142.9 350.1,141.7 343.9,141.7 342.9,142.9 341.9,144.1 340.9,145.3 339.9,146.6 339.0,147.8 338.4,149.0 338.0,150.2 337.9,151.5 338.1,152.7 338.6,153.9 339.2,155.2 340.0,156.4 340.8,157.6 341.5,158.8 342.0,160.1 342.2,161.3 342.2,162.5 341.9,163.8 341.3,165.0 340.6,166.2 339.8,167.4 339.0,168.7 338.3,169.9 337.8,171.1 337.5,172.3 337.6,173.6 337.9,174.8 338.4,176.0 339.0,177.3 339.6,178.5 340.0,179.7 340.3,180.9 340.2,182.2 339.8,183.4 339.0,184.6 337.7,185.9 336.2,187.1 334.2,188.3 332.0,189.5 329.5,190.8 326.9,192.0 324.2,193.2 321.4,194.5 318.8,195.7 316.5,196.9 314.5,198.1 313.2,199.4 312.6,200.6 312.7,201.8 313.6,203.0 315.3,204.3 317.5,205.5 320.2,206.7 323.2,208.0 326.2,209.2 329.2,210.4 332.0,211.6 334.5,212.9 336.6,214.1 338.5,215.3 340.1,216.6 341.4,217.8 342.5,219.0 343.3,220.2 344.1,221.5 344.7,222.7 345.2,223.9 345.7,225.1 346.0,226.4 346.3,227.6 346.5,228.8" fill="#d33" opacity="0.5" stroke="#d33" stroke-width="1"/>
<line x1="312.9" y1="199.76203973033765" x2="381.1" y2="199.76203973033765" stroke="#114" stroke-width="2"/>
<circle cx="347.0" cy="208.89776725655014" r="2.4" fill="#114"/>
<text x="347.0" y="144.34469123293127" text-anchor="middle" font-size="11">1.00</text>
<text x="347.0" y="376" text-anchor="middle" font-size="12">zgeru</text>
<polygon points="442.5,173.6 444.9,172.0 447.5,170.3 450.1,168.7 452.7,167.0 455.2,165.4 457.6,163.7 459.6,162.1 461.2,160.4 462.5,158.8 463.2,157.1 463.4,155.5 463.1,153.8 462.4,152.1 461.1,150.5 459.5,148.8 457.6,147.2 455.5,145.5 453.2,143.9 451.0,142.2 448.8,140.6 446.8,138.9 445.0,137.3 443.4,135.6 442.2,134.0 441.2,132.3 440.6,130.6 440.3,129.0 440.2,127.3 440.3,125.7 440.6,124.0 440.9,122.4 441.3,120.7 441.7,119.1 442.0,117.4 442.2,115.8 442.3,114.1 442.4,112.5 442.3,110.8 442.1,109.2 441.9,107.5 441.8,105.8 441.7,104.2 441.8,102.5 442.0,100.9 442.4,99.2 443.1,97.6 444.0,95.9 445.2,94.3 446.6,92.6 448.2,91.0 449.9,89.3 451.8,87.7 453.7,86.0 455.5,84.3 457.2,82.7 458.7,81.0 460.0,79.4 460.9,77.7 461.5,76.1 461.6,74.4 461.3,72.8 460.6,71.1 459.5,69.5 458.0,67.8 456.2,66.2 454.1,64.5 451.9,62.9 449.5,61.2 447.1,59.5 444.7,57.9 442.5,56.2 415.5,56.2 413.3,57.9 410.9,59.5 408.5,61.2 406.1,62.9 403.9,64.5 401.8,66.2 400.0,67.8 398.5,69.5 397.4,71.1 396.7,72.8 396.4,74.4 396.5,76.1 397.1,77.7 398.0,79.4 399.3,81.0 400.8,82.7 402.5,84.3 404.3,86.0 406.2,87.7 408.1,89.3 409.8,91.0 411.4,92.6 412.8,94.3 414.0,95.9 414.9,97.6 415.6,99.2 416.0,100.9 416.2,102.5 416.3,104.2 416.2,105.8 416.1,107.5 415.9,109.2 415.7,110.8 415.6,112.5 415.7,114.1 415.8,115.8 416.0,117.4 416.3,119.1 416.7,120.7 417.1,122.4 417.4,124.0 417.7,125.7 417.8,127.3 417.7,129.0 417.4,130.6 416.8,132.3 415.8,134.0 414.6,135.6 413.0,137.3 411.2,138.9 409.2,140.6 407.0,142.2 404.8,143.9 402.5,145.5 400.4,147.2 398.5,148.8 396.9,150.5 395.6,152.1 394.9,153.8 394.6,155.5 394.8,157.1 395.5,158.8 396.8,160.4 398.4,162.1 400.4,163.7 402.8,165.4 405.3,167.0 407.9,168.7 410.5,170.3 413.1,172.0 415.5,173.6" fill="#2a8" opacity="0.5" stroke="#2a8" stroke-width="1"/>
<line x1="415.7" y1="114.42850425191185" x2="442.3" y2="114.42850425191185" stroke="#114" stroke-width="2"/>
<circle cx="429.0" cy="159.8949868764688" r="2.4" fill="#114"/>
<text x="429.0" y="61.854478732346905" text-anchor="middle" font-size="11">1.53</text>
<text x="429.0" y="376" text-anchor="middle" font-size="12">zhemv</text>
<polygon points="517.1,206.0 518.9,203.9 521.0,201.9 523.4,199.8 526.1,197.7 529.0,195.6 532.0,193.5 535.0,191.5 537.9,189.4 540.5,187.3 542.6,185.2 544.3,183.1 545.2,181.1 545.4,179.0 544.9,176.9 543.6,174.8 541.7,172.7 539.3,170.7 536.5,168.6 533.4,166.5 530.3,164.4 527.4,162.3 524.6,160.3 522.2,158.2 520.1,156.1 518.5,154.0 517.3,151.9 516.5,149.9 516.1,147.8 515.9,145.7 516.0,143.6 516.3,141.5 516.7,139.5 517.1,137.4 517.5,135.3 517.8,133.2 518.0,131.2 518.1,129.1 518.1,127.0 517.8,124.9 517.5,122.8 517.0,120.8 516.4,118.7 515.8,116.6 515.2,114.5 514.6,112.4 514.1,110.4 513.6,108.3 513.3,106.2 513.1,104.1 513.0,102.0 513.1,100.0 513.3,97.9 513.6,95.8 514.1,93.7 514.6,91.6 515.2,89.6 515.9,87.5 516.5,85.4 517.1,83.3 517.6,81.2 518.0,79.2 518.2,77.1 518.3,75.0 518.1,72.9 517.8,70.9 517.4,68.8 516.8,66.7 516.1,64.6 515.4,62.5 514.7,60.5 514.0,58.4 508.0,58.4 507.3,60.5 506.6,62.5 505.9,64.6 505.2,66.7 504.6,68.8 504.2,70.9 503.9,72.9 503.7,75.0 503.8,77.1 504.0,79.2 504.4,81.2 504.9,83.3 505.5,85.4 506.1,87.5 506.8,89.6 507.4,91.6 507.9,93.7 508.4,95.8 508.7,97.9 508.9,100.0 509.0,102.0 508.9,104.1 508.7,106.2 508.4,108.3 507.9,110.4 507.4,112.4 506.8,114.5 506.2,116.6 505.6,118.7 505.0,120.8 504.5,122.8 504.2,124.9 503.9,127.0 503.9,129.1 504.0,131.2 504.2,133.2 504.5,135.3 504.9,137.4 505.3,139.5 505.7,141.5 506.0,143.6 506.1,145.7 505.9,147.8 505.5,149.9 504.7,151.9 503.5,154.0 501.9,156.1 499.8,158.2 497.4,160.3 494.6,162.3 491.7,164.4 488.6,166.5 485.5,168.6 482.7,170.7 480.3,172.7 478.4,174.8 477.1,176.9 476.6,179.0 476.8,181.1 477.7,183.1 479.4,185.2 481.5,187.3 484.1,189.4 487.0,191.5 490.0,193.5 493.0,195.6 495.9,197.7 498.6,199.8 501.0,201.9 503.1,203.9 504.9,206.0" fill="#2a8" opacity="0.5" stroke="#2a8" stroke-width="1"/>
<line x1="477.0" y1="177.20053043259196" x2="545.0" y2="177.20053043259196" stroke="#114" stroke-width="2"/>
<circle cx="511.0" cy="190.05317004435022" r="2.4" fill="#114"/>
<text x="511.0" y="66.91805482687177" text-anchor="middle" font-size="11">1.14</text>
<text x="511.0" y="376" text-anchor="middle" font-size="12">ztrmv</text>
<polygon points="596.9,205.9 597.9,204.4 599.1,202.9 600.5,201.4 601.9,200.0 603.5,198.5 605.2,197.0 607.1,195.5 609.0,194.0 611.1,192.5 613.4,191.1 615.7,189.6 618.2,188.1 620.6,186.6 622.8,185.1 624.8,183.7 626.3,182.2 627.2,180.7 627.4,179.2 626.9,177.7 625.6,176.2 623.5,174.8 620.9,173.3 617.9,171.8 614.6,170.3 611.4,168.8 608.3,167.4 605.5,165.9 603.1,164.4 601.3,162.9 599.9,161.4 599.1,159.9 598.7,158.5 598.6,157.0 598.9,155.5 599.3,154.0 599.9,152.5 600.5,151.1 600.9,149.6 601.3,148.1 601.4,146.6 601.4,145.1 601.1,143.7 600.6,142.2 599.9,140.7 599.1,139.2 598.3,137.7 597.6,136.2 596.9,134.8 596.3,133.3 595.9,131.8 595.7,130.3 595.8,128.8 596.0,127.4 596.4,125.9 597.0,124.4 597.7,122.9 598.5,121.4 599.3,119.9 600.1,118.5 600.8,117.0 601.2,115.5 601.5,114.0 601.5,112.5 601.3,111.1 600.8,109.6 600.1,108.1 599.3,106.6 598.5,105.1 597.6,103.6 596.7,102.2 595.9,100.7 590.1,100.7 589.3,102.2 588.4,103.6 587.5,105.1 586.7,106.6 585.9,108.1 585.2,109.6 584.7,111.1 584.5,112.5 584.5,114.0 584.8,115.5 585.2,117.0 585.9,118.5 586.7,119.9 587.5,121.4 588.3,122.9 589.0,124.4 589.6,125.9 590.0,127.4 590.2,128.8 590.3,130.3 590.1,131.8 589.7,133.3 589.1,134.8 588.4,136.2 587.7,137.7 586.9,139.2 586.1,140.7 585.4,142.2 584.9,143.7 584.6,145.1 584.6,146.6 584.7,148.1 585.1,149.6 585.5,151.1 586.1,152.5 586.7,154.0 587.1,155.5 587.4,157.0 587.3,158.5 586.9,159.9 586.1,161.4 584.7,162.9 582.9,164.4 580.5,165.9 577.7,167.4 574.6,168.8 571.4,170.3 568.1,171.8 565.1,173.3 562.5,174.8 560.4,176.2 559.1,177.7 558.6,179.2 558.8,180.7 559.7,182.2 561.2,183.7 563.2,185.1 565.4,186.6 567.8,188.1 570.3,189.6 572.6,191.1 574.9,192.5 577.0,194.0 578.9,195.5 580.8,197.0 582.5,198.5 584.1,200.0 585.5,201.4 586.9,202.9 588.1,204.4 589.1,205.9" fill="#2a8" opacity="0.5" stroke="#2a8" stroke-width="1"/>
<line x1="559.7" y1="176.9244387057293" x2="626.3" y2="176.9244387057293" stroke="#114" stroke-width="2"/>
<circle cx="593.0" cy="194.73058881602947" r="2.4" fill="#114"/>
<text x="593.0" y="105.11854443063893" text-anchor="middle" font-size="11">1.14</text>
<text x="593.0" y="376" text-anchor="middle" font-size="12">ztrsv</text>
<polygon points="677.2,181.3 677.9,179.5 678.9,177.7 680.2,175.9 681.7,174.1 683.5,172.4 685.6,170.6 688.0,168.8 690.6,167.0 693.4,165.2 696.4,163.5 699.3,161.7 702.1,159.9 704.6,158.1 706.7,156.3 708.3,154.6 709.2,152.8 709.4,151.0 709.0,149.2 707.8,147.5 706.2,145.7 704.1,143.9 701.8,142.1 699.5,140.3 697.2,138.6 695.0,136.8 693.1,135.0 691.4,133.2 689.9,131.4 688.6,129.7 687.5,127.9 686.5,126.1 685.5,124.3 684.6,122.6 683.7,120.8 682.9,119.0 682.3,117.2 681.7,115.4 681.4,113.7 681.3,111.9 681.4,110.1 681.7,108.3 682.1,106.5 682.7,104.8 683.3,103.0 683.8,101.2 684.3,99.4 684.6,97.6 684.7,95.9 684.6,94.1 684.4,92.3 684.0,90.5 683.6,88.8 683.3,87.0 682.9,85.2 682.7,83.4 682.7,81.6 682.8,79.9 683.1,78.1 683.4,76.3 683.8,74.5 684.2,72.7 684.5,71.0 684.6,69.2 684.5,67.4 684.2,65.6 683.7,63.8 683.0,62.1 682.2,60.3 681.3,58.5 680.4,56.7 679.4,55.0 670.6,55.0 669.6,56.7 668.7,58.5 667.8,60.3 667.0,62.1 666.3,63.8 665.8,65.6 665.5,67.4 665.4,69.2 665.5,71.0 665.8,72.7 666.2,74.5 666.6,76.3 666.9,78.1 667.2,79.9 667.3,81.6 667.3,83.4 667.1,85.2 666.7,87.0 666.4,88.8 666.0,90.5 665.6,92.3 665.4,94.1 665.3,95.9 665.4,97.6 665.7,99.4 666.2,101.2 666.7,103.0 667.3,104.8 667.9,106.5 668.3,108.3 668.6,110.1 668.7,111.9 668.6,113.7 668.3,115.4 667.7,117.2 667.1,119.0 666.3,120.8 665.4,122.6 664.5,124.3 663.5,126.1 662.5,127.9 661.4,129.7 660.1,131.4 658.6,133.2 656.9,135.0 655.0,136.8 652.8,138.6 650.5,140.3 648.2,142.1 645.9,143.9 643.8,145.7 642.2,147.5 641.0,149.2 640.6,151.0 640.8,152.8 641.7,154.6 643.3,156.3 645.4,158.1 647.9,159.9 650.7,161.7 653.6,163.5 656.6,165.2 659.4,167.0 662.0,168.8 664.4,170.6 666.5,172.4 668.3,174.1 669.8,175.9 671.1,177.7 672.1,179.5 672.8,181.3" fill="#2a8" opacity="0.5" stroke="#2a8" stroke-width="1"/>
<line x1="641.5" y1="148.4493663743935" x2="708.5" y2="148.4493663743935" stroke="#114" stroke-width="2"/>
<circle cx="675.0" cy="160.99979630713977" r="2.4" fill="#114"/>
<text x="675.0" y="61.433962264150935" text-anchor="middle" font-size="11">1.32</text>
<text x="675.0" y="376" text-anchor="middle" font-size="12">zhpmv</text>
<polygon points="758.3,146.4 759.0,145.5 760.0,144.6 761.3,143.7 763.1,142.8 765.2,142.0 767.8,141.1 770.7,140.2 773.8,139.3 777.1,138.4 780.3,137.6 783.4,136.7 786.1,135.8 788.3,134.9 790.0,134.0 791.0,133.2 791.4,132.3 791.3,131.4 790.7,130.5 789.8,129.6 788.7,128.8 787.4,127.9 786.1,127.0 784.9,126.1 783.7,125.2 782.5,124.4 781.4,123.5 780.3,122.6 779.2,121.7 778.0,120.8 776.9,120.0 775.7,119.1 774.6,118.2 773.5,117.3 772.3,116.4 771.2,115.6 770.0,114.7 768.7,113.8 767.5,112.9 766.2,112.0 765.0,111.2 763.9,110.3 762.8,109.4 761.9,108.5 761.1,107.6 760.5,106.8 760.1,105.9 759.7,105.0 759.5,104.1 759.4,103.2 759.4,102.4 759.5,101.5 759.7,100.6 760.0,99.7 760.4,98.8 760.9,98.0 761.5,97.1 762.0,96.2 762.6,95.3 763.0,94.4 763.4,93.6 763.6,92.7 763.5,91.8 763.3,90.9 762.8,90.0 762.2,89.2 761.5,88.3 760.8,87.4 760.0,86.5 759.3,85.6 758.7,84.8 758.2,83.9 755.8,83.9 755.3,84.8 754.7,85.6 754.0,86.5 753.2,87.4 752.5,88.3 751.8,89.2 751.2,90.0 750.7,90.9 750.5,91.8 750.4,92.7 750.6,93.6 751.0,94.4 751.4,95.3 752.0,96.2 752.5,97.1 753.1,98.0 753.6,98.8 754.0,99.7 754.3,100.6 754.5,101.5 754.6,102.4 754.6,103.2 754.5,104.1 754.3,105.0 753.9,105.9 753.5,106.8 752.9,107.6 752.1,108.5 751.2,109.4 750.1,110.3 749.0,111.2 747.8,112.0 746.5,112.9 745.3,113.8 744.0,114.7 742.8,115.6 741.7,116.4 740.5,117.3 739.4,118.2 738.3,119.1 737.1,120.0 736.0,120.8 734.8,121.7 733.7,122.6 732.6,123.5 731.5,124.4 730.3,125.2 729.1,126.1 727.9,127.0 726.6,127.9 725.3,128.8 724.2,129.6 723.3,130.5 722.7,131.4 722.6,132.3 723.0,133.2 724.0,134.0 725.7,134.9 727.9,135.8 730.6,136.7 733.7,137.6 736.9,138.4 740.2,139.3 743.3,140.2 746.2,141.1 748.8,142.0 750.9,142.8 752.7,143.7 754.0,144.6 755.0,145.5 755.7,146.4" fill="#2a8" opacity="0.5" stroke="#2a8" stroke-width="1"/>
<line x1="727.8" y1="127.05551151645135" x2="786.2" y2="127.05551151645135" stroke="#114" stroke-width="2"/>
<circle cx="757.0" cy="137.24556131844022" r="2.4" fill="#114"/>
<text x="757.0" y="84.1878546889622" text-anchor="middle" font-size="11">1.46</text>
<text x="757.0" y="376" text-anchor="middle" font-size="12">zgbmvN</text>
<polygon points="839.0,149.7 839.0,149.5 839.1,149.2 839.1,148.9 839.2,148.7 839.5,148.4 840.0,148.2 841.0,147.9 842.6,147.6 845.0,147.4 848.4,147.1 852.5,146.9 857.0,146.6 861.4,146.4 865.2,146.1 868.2,145.8 870.4,145.6 872.0,145.3 873.0,145.1 873.4,144.8 872.9,144.6 871.1,144.3 868.1,144.0 864.3,143.8 860.3,143.5 856.7,143.3 853.7,143.0 851.3,142.7 849.6,142.5 848.3,142.2 847.4,142.0 846.9,141.7 846.8,141.5 847.0,141.2 847.4,140.9 847.9,140.7 848.3,140.4 848.6,140.2 848.8,139.9 848.9,139.6 848.7,139.4 848.1,139.1 847.1,138.9 845.7,138.6 844.2,138.4 842.7,138.1 841.5,137.8 840.7,137.6 840.1,137.3 839.7,137.1 839.5,136.8 839.4,136.6 839.3,136.3 839.2,136.0 839.1,135.8 839.1,135.5 839.1,135.3 839.0,135.0 839.1,134.7 839.1,134.5 839.1,134.2 839.2,134.0 839.2,133.7 839.2,133.5 839.2,133.2 839.2,132.9 839.2,132.7 839.1,132.4 839.1,132.2 839.0,131.9 839.0,131.7 839.0,131.4 839.0,131.4 839.0,131.7 839.0,131.9 838.9,132.2 838.9,132.4 838.8,132.7 838.8,132.9 838.8,133.2 838.8,133.5 838.8,133.7 838.8,134.0 838.9,134.2 838.9,134.5 838.9,134.7 839.0,135.0 838.9,135.3 838.9,135.5 838.9,135.8 838.8,136.0 838.7,136.3 838.6,136.6 838.5,136.8 838.3,137.1 837.9,137.3 837.3,137.6 836.5,137.8 835.3,138.1 833.8,138.4 832.3,138.6 830.9,138.9 829.9,139.1 829.3,139.4 829.1,139.6 829.2,139.9 829.4,140.2 829.7,140.4 830.1,140.7 830.6,140.9 831.0,141.2 831.2,141.5 831.1,141.7 830.6,142.0 829.7,142.2 828.4,142.5 826.7,142.7 824.3,143.0 821.3,143.3 817.7,143.5 813.7,143.8 809.9,144.0 806.9,144.3 805.1,144.6 804.6,144.8 805.0,145.1 806.0,145.3 807.6,145.6 809.8,145.8 812.8,146.1 816.6,146.4 821.0,146.6 825.5,146.9 829.6,147.1 833.0,147.4 835.4,147.6 837.0,147.9 838.0,148.2 838.5,148.4 838.8,148.7 838.9,148.9 838.9,149.2 839.0,149.5 839.0,149.7" fill="#2a8" opacity="0.5" stroke="#2a8" stroke-width="1"/>
<line x1="805.9" y1="144.42249431201378" x2="872.1" y2="144.42249431201378" stroke="#114" stroke-width="2"/>
<circle cx="839.0" cy="146.10594756236986" r="2.4" fill="#114"/>
<text x="839.0" y="127.42122615065196" text-anchor="middle" font-size="11">1.35</text>
<text x="839.0" y="376" text-anchor="middle" font-size="12">zhbmv</text>
<text x="450.0" y="428" text-anchor="middle" font-size="11" fill="#666">violin = ratio distribution over sizes · line = median · dark dot = worst size · green = every size ≥ gate</text>
</svg>
