<svg xmlns="http://www.w3.org/2000/svg" width="900" height="440" font-family="sans-serif">
<rect width="900" height="440" fill="white"/>
<text x="450.0" y="28" text-anchor="middle" font-size="18" font-weight="bold">Complex BLAS-1: PureBLAS / OpenBLAS (AVX-512, 1 thread, ComplexF64)</text>
<line x1="60" y1="358.0" x2="880" y2="358.0" stroke="#eee"/>
<text x="52" y="362.0" text-anchor="end" font-size="11" fill="#666">0×</text>
<line x1="60" y1="347.89915723244957" x2="880" y2="347.89915723244957" stroke="#eee"/>
<text x="52" y="351.89915723244957" text-anchor="end" font-size="11" fill="#666">0.5×</text>
<line x1="60" y1="337.79831446489925" x2="880" y2="337.79831446489925" stroke="#eee"/>
<text x="52" y="341.79831446489925" text-anchor="end" font-size="11" fill="#666">1×</text>
<line x1="60" y1="327.6974716973488" x2="880" y2="327.6974716973488" stroke="#eee"/>
<text x="52" y="331.6974716973488" text-anchor="end" font-size="11" fill="#666">1.5×</text>
<line x1="60" y1="337.79831446489925" x2="880" y2="337.79831446489925" stroke="#888" stroke-width="1"/>
<line x1="60" y1="338.60638188630327" x2="880" y2="338.60638188630327" stroke="#d33" stroke-width="1.5" stroke-dasharray="6 4"/>
<text x="880" y="333.60638188630327" text-anchor="end" font-size="11" fill="#d33">0.96× gate</text>
<polygon points="142.1,345.1 142.2,344.9 142.4,344.6 142.5,344.4 142.7,344.2 143.0,344.0 143.2,343.8 143.5,343.6 143.8,343.3 144.2,343.1 144.7,342.9 145.3,342.7 146.0,342.5 146.8,342.3 147.6,342.1 148.2,341.8 148.6,341.6 148.9,341.4 149.0,341.2 149.0,341.0 149.0,340.8 149.3,340.6 150.0,340.3 151.2,340.1 153.2,339.9 156.0,339.7 159.8,339.5 164.4,339.3 169.8,339.0 175.9,338.8 182.6,338.6 189.6,338.4 196.6,338.2 202.8,338.0 207.7,337.8 210.5,337.5 210.9,337.3 208.7,337.1 204.5,336.9 198.7,336.7 192.1,336.5 185.5,336.3 179.5,336.0 174.2,335.8 169.7,335.6 166.1,335.4 163.2,335.2 160.7,335.0 158.6,334.7 156.8,334.5 155.1,334.3 153.5,334.1 152.0,333.9 150.7,333.7 149.5,333.5 148.5,333.2 147.6,333.0 146.8,332.8 146.1,332.6 145.5,332.4 144.9,332.2 144.5,331.9 144.1,331.7 143.8,331.5 143.5,331.3 143.2,331.1 143.0,330.9 142.8,330.7 142.5,330.4 142.4,330.2 142.2,330.0 142.1,329.8 141.9,329.8 141.8,330.0 141.6,330.2 141.5,330.4 141.2,330.7 141.0,330.9 140.8,331.1 140.5,331.3 140.2,331.5 139.9,331.7 139.5,331.9 139.1,332.2 138.5,332.4 137.9,332.6 137.2,332.8 136.4,333.0 135.5,333.2 134.5,333.5 133.3,333.7 132.0,333.9 130.5,334.1 128.9,334.3 127.2,334.5 125.4,334.7 123.3,335.0 120.8,335.2 117.9,335.4 114.3,335.6 109.8,335.8 104.5,336.0 98.5,336.3 91.9,336.5 85.3,336.7 79.5,336.9 75.3,337.1 73.1,337.3 73.5,337.5 76.3,337.8 81.2,338.0 87.4,338.2 94.4,338.4 101.4,338.6 108.1,338.8 114.2,339.0 119.6,339.3 124.2,339.5 128.0,339.7 130.8,339.9 132.8,340.1 134.0,340.3 134.7,340.6 135.0,340.8 135.0,341.0 135.0,341.2 135.1,341.4 135.4,341.6 135.8,341.8 136.4,342.1 137.2,342.3 138.0,342.5 138.7,342.7 139.3,342.9 139.8,343.1 140.2,343.3 140.5,343.6 140.8,343.8 141.0,344.0 141.3,344.2 141.5,344.4 141.6,344.6 141.8,344.9 141.9,345.1" fill="#2a8" opacity="0.5" stroke="#2a8" stroke-width="1"/>
<line x1="73.0" y1="337.3963133988728" x2="211.0" y2="337.3963133988728" stroke="#114" stroke-width="2"/>
<circle cx="142.0" cy="338.3910195029438" r="2.4" fill="#114"/>
<text x="142.0" y="325.3076970351015" text-anchor="middle" font-size="11">1.02</text>
<text x="142.0" y="376" text-anchor="middle" font-size="12">zaxpy</text>
<polygon points="306.3,343.0 306.5,342.7 306.8,342.4 307.3,342.2 307.8,341.9 308.4,341.6 309.1,341.3 309.9,341.1 310.7,340.8 311.6,340.5 312.7,340.3 314.0,340.0 315.5,339.7 317.4,339.5 319.9,339.2 323.1,338.9 327.3,338.6 332.5,338.4 338.8,338.1 346.0,337.8 353.7,337.6 361.1,337.3 367.5,337.0 372.2,336.8 374.6,336.5 374.9,336.2 373.2,335.9 370.2,335.7 366.4,335.4 362.3,335.1 358.1,334.9 354.0,334.6 349.8,334.3 345.6,334.1 341.2,333.8 336.8,333.5 332.6,333.2 328.6,333.0 325.2,332.7 322.3,332.4 320.2,332.2 318.7,331.9 317.6,331.6 317.0,331.4 316.5,331.1 316.1,330.8 315.7,330.6 315.1,330.3 314.4,330.0 313.6,329.7 312.6,329.5 311.7,329.2 310.8,328.9 310.0,328.7 309.3,328.4 308.7,328.1 308.3,327.9 308.0,327.6 307.8,327.3 307.7,327.0 307.6,326.8 307.5,326.5 307.5,326.2 307.4,326.0 307.3,325.7 307.1,325.4 307.0,325.2 306.8,324.9 306.6,324.6 306.4,324.3 306.3,324.1 306.2,323.8 305.8,323.8 305.7,324.1 305.6,324.3 305.4,324.6 305.2,324.9 305.0,325.2 304.9,325.4 304.7,325.7 304.6,326.0 304.5,326.2 304.5,326.5 304.4,326.8 304.3,327.0 304.2,327.3 304.0,327.6 303.7,327.9 303.3,328.1 302.7,328.4 302.0,328.7 301.2,328.9 300.3,329.2 299.4,329.5 298.4,329.7 297.6,330.0 296.9,330.3 296.3,330.6 295.9,330.8 295.5,331.1 295.0,331.4 294.4,331.6 293.3,331.9 291.8,332.2 289.7,332.4 286.8,332.7 283.4,333.0 279.4,333.2 275.2,333.5 270.8,333.8 266.4,334.1 262.2,334.3 258.0,334.6 253.9,334.9 249.7,335.1 245.6,335.4 241.8,335.7 238.8,335.9 237.1,336.2 237.4,336.5 239.8,336.8 244.5,337.0 250.9,337.3 258.3,337.6 266.0,337.8 273.2,338.1 279.5,338.4 284.7,338.6 288.9,338.9 292.1,339.2 294.6,339.5 296.5,339.7 298.0,340.0 299.3,340.3 300.4,340.5 301.3,340.8 302.1,341.1 302.9,341.3 303.6,341.6 304.2,341.9 304.7,342.2 305.2,342.4 305.5,342.7 305.7,343.0" fill="#2a8" opacity="0.5" stroke="#2a8" stroke-width="1"/>
<line x1="238.8" y1="335.9439298406467" x2="373.2" y2="335.9439298406467" stroke="#114" stroke-width="2"/>
<circle cx="306.0" cy="336.9717205616016" r="2.4" fill="#114"/>
<text x="306.0" y="319.6946402162863" text-anchor="middle" font-size="11">1.09</text>
<text x="306.0" y="376" text-anchor="middle" font-size="12">zdotc</text>
<polygon points="470.2,342.7 470.3,342.5 470.5,342.3 470.8,342.1 471.1,341.9 471.5,341.7 471.9,341.5 472.3,341.3 472.7,341.1 473.2,340.9 473.7,340.7 474.4,340.5 475.3,340.3 476.5,340.1 477.9,339.9 479.8,339.7 482.1,339.5 485.1,339.3 489.0,339.1 494.1,338.9 500.4,338.7 507.9,338.5 516.1,338.3 524.2,338.1 531.3,337.9 536.3,337.7 538.9,337.5 538.7,337.3 536.3,337.1 532.1,336.9 526.9,336.7 521.4,336.5 515.8,336.3 510.4,336.1 505.4,335.9 500.7,335.7 496.6,335.5 493.0,335.3 490.0,335.1 487.6,334.9 485.5,334.7 483.8,334.5 482.3,334.3 481.0,334.1 479.9,333.9 478.9,333.7 478.0,333.5 477.3,333.3 476.6,333.1 476.0,332.9 475.6,332.7 475.2,332.5 474.8,332.3 474.5,332.1 474.2,331.9 473.8,331.7 473.4,331.5 472.9,331.3 472.5,331.1 472.1,330.9 471.8,330.7 471.6,330.5 471.4,330.3 471.3,330.1 471.2,329.9 471.0,329.7 470.9,329.5 470.7,329.3 470.5,329.1 470.3,329.0 470.2,328.8 470.1,328.6 469.9,328.6 469.8,328.8 469.7,329.0 469.5,329.1 469.3,329.3 469.1,329.5 469.0,329.7 468.8,329.9 468.7,330.1 468.6,330.3 468.4,330.5 468.2,330.7 467.9,330.9 467.5,331.1 467.1,331.3 466.6,331.5 466.2,331.7 465.8,331.9 465.5,332.1 465.2,332.3 464.8,332.5 464.4,332.7 464.0,332.9 463.4,333.1 462.7,333.3 462.0,333.5 461.1,333.7 460.1,333.9 459.0,334.1 457.7,334.3 456.2,334.5 454.5,334.7 452.4,334.9 450.0,335.1 447.0,335.3 443.4,335.5 439.3,335.7 434.6,335.9 429.6,336.1 424.2,336.3 418.6,336.5 413.1,336.7 407.9,336.9 403.7,337.1 401.3,337.3 401.1,337.5 403.7,337.7 408.7,337.9 415.8,338.1 423.9,338.3 432.1,338.5 439.6,338.7 445.9,338.9 451.0,339.1 454.9,339.3 457.9,339.5 460.2,339.7 462.1,339.9 463.5,340.1 464.7,340.3 465.6,340.5 466.3,340.7 466.8,340.9 467.3,341.1 467.7,341.3 468.1,341.5 468.5,341.7 468.9,341.9 469.2,342.1 469.5,342.3 469.7,342.5 469.8,342.7" fill="#2a8" opacity="0.5" stroke="#2a8" stroke-width="1"/>
<line x1="402.0" y1="337.2251538020687" x2="538.0" y2="337.2251538020687" stroke="#114" stroke-width="2"/>
<circle cx="470.0" cy="337.6598938208365" r="2.4" fill="#114"/>
<text x="470.0" y="323.95146319698875" text-anchor="middle" font-size="11">1.03</text>
<text x="470.0" y="376" text-anchor="middle" font-size="12">zscal</text>
<polygon points="637.0,328.4 638.6,324.5 640.9,320.6 644.0,316.6 647.8,312.7 652.6,308.8 658.0,304.9 664.2,300.9 670.6,297.0 677.2,293.1 683.6,289.2 689.3,285.3 694.3,281.3 698.1,277.4 700.9,273.5 702.4,269.6 702.9,265.7 702.4,261.7 701.3,257.8 699.6,253.9 697.6,250.0 695.3,246.1 692.9,242.1 690.4,238.2 687.8,234.3 685.2,230.4 682.6,226.4 679.9,222.5 677.3,218.6 674.7,214.7 672.2,210.8 669.6,206.8 667.0,202.9 664.4,199.0 661.7,195.1 659.0,191.2 656.3,187.2 653.5,183.3 650.9,179.4 648.4,175.5 646.2,171.6 644.4,167.6 642.9,163.7 641.8,159.8 641.0,155.9 640.5,151.9 640.2,148.0 640.1,144.1 639.9,140.2 639.8,136.3 639.7,132.3 639.4,128.4 639.2,124.5 638.8,120.6 638.4,116.7 637.9,112.7 637.5,108.8 637.1,104.9 636.8,101.0 636.6,97.1 636.4,93.1 636.3,89.2 636.3,85.3 636.3,81.4 636.3,77.4 636.2,73.5 636.1,69.6 635.9,65.7 635.7,61.8 635.4,57.8 635.1,53.9 634.9,50.0 633.1,50.0 632.9,53.9 632.6,57.8 632.3,61.8 632.1,65.7 631.9,69.6 631.8,73.5 631.7,77.4 631.7,81.4 631.7,85.3 631.7,89.2 631.6,93.1 631.4,97.1 631.2,101.0 630.9,104.9 630.5,108.8 630.1,112.7 629.6,116.7 629.2,120.6 628.8,124.5 628.6,128.4 628.3,132.3 628.2,136.3 628.1,140.2 627.9,144.1 627.8,148.0 627.5,151.9 627.0,155.9 626.2,159.8 625.1,163.7 623.6,167.6 621.8,171.6 619.6,175.5 617.1,179.4 614.5,183.3 611.7,187.2 609.0,191.2 606.3,195.1 603.6,199.0 601.0,202.9 598.4,206.8 595.8,210.8 593.3,214.7 590.7,218.6 588.1,222.5 585.4,226.4 582.8,230.4 580.2,234.3 577.6,238.2 575.1,242.1 572.7,246.1 570.4,250.0 568.4,253.9 566.7,257.8 565.6,261.7 565.1,265.7 565.6,269.6 567.1,273.5 569.9,277.4 573.7,281.3 578.7,285.3 584.4,289.2 590.8,293.1 597.4,297.0 603.8,300.9 610.0,304.9 615.4,308.8 620.2,312.7 624.0,316.6 627.1,320.6 629.4,324.5 631.0,328.4" fill="#2a8" opacity="0.5" stroke="#2a8" stroke-width="1"/>
<line x1="570.4" y1="249.9589231413055" x2="697.6" y2="249.9589231413055" stroke="#114" stroke-width="2"/>
<circle cx="634.0" cy="279.31176948387485" r="2.4" fill="#114"/>
<text x="634.0" y="61.433962264150935" text-anchor="middle" font-size="11">5.35</text>
<text x="634.0" y="376" text-anchor="middle" font-size="12">dznrm2</text>
<polygon points="798.1,345.3 798.2,345.1 798.3,344.9 798.5,344.7 798.6,344.5 798.8,344.3 799.0,344.1 799.2,343.9 799.2,343.7 799.3,343.5 799.4,343.3 799.5,343.1 799.6,342.9 799.8,342.7 800.0,342.5 800.2,342.3 800.3,342.1 800.4,341.9 800.6,341.7 800.8,341.5 801.0,341.3 801.4,341.1 802.0,340.9 802.7,340.7 803.6,340.5 804.8,340.3 806.4,340.1 808.4,339.9 811.2,339.7 814.9,339.5 819.7,339.3 825.7,339.1 832.7,338.9 840.6,338.7 848.8,338.5 856.3,338.3 862.4,338.1 866.1,337.9 866.9,337.7 864.8,337.4 860.3,337.2 854.4,337.0 847.8,336.8 841.5,336.6 835.9,336.4 831.1,336.2 827.3,336.0 824.1,335.8 821.4,335.6 818.8,335.4 816.3,335.2 813.8,335.0 811.4,334.8 809.3,334.6 807.4,334.4 806.0,334.2 804.8,334.0 803.7,333.8 802.9,333.6 802.1,333.4 801.5,333.2 801.0,333.0 800.6,332.8 800.3,332.6 799.9,332.4 799.6,332.2 799.2,332.0 798.9,331.8 798.6,331.6 798.3,331.4 798.2,331.2 798.1,331.0 797.9,331.0 797.8,331.2 797.7,331.4 797.4,331.6 797.1,331.8 796.8,332.0 796.4,332.2 796.1,332.4 795.7,332.6 795.4,332.8 795.0,333.0 794.5,333.2 793.9,333.4 793.1,333.6 792.3,333.8 791.2,334.0 790.0,334.2 788.6,334.4 786.7,334.6 784.6,334.8 782.2,335.0 779.7,335.2 777.2,335.4 774.6,335.6 771.9,335.8 768.7,336.0 764.9,336.2 760.1,336.4 754.5,336.6 748.2,336.8 741.6,337.0 735.7,337.2 731.2,337.4 729.1,337.7 729.9,337.9 733.6,338.1 739.7,338.3 747.2,338.5 755.4,338.7 763.3,338.9 770.3,339.1 776.3,339.3 781.1,339.5 784.8,339.7 787.6,339.9 789.6,340.1 791.2,340.3 792.4,340.5 793.3,340.7 794.0,340.9 794.6,341.1 795.0,341.3 795.2,341.5 795.4,341.7 795.6,341.9 795.7,342.1 795.8,342.3 796.0,342.5 796.2,342.7 796.4,342.9 796.5,343.1 796.6,343.3 796.7,343.5 796.8,343.7 796.8,343.9 797.0,344.1 797.2,344.3 797.4,344.5 797.5,344.7 797.7,344.9 797.8,345.1 797.9,345.3" fill="#2a8" opacity="0.5" stroke="#2a8" stroke-width="1"/>
<line x1="729.2" y1="337.640740343825" x2="866.8" y2="337.640740343825" stroke="#114" stroke-width="2"/>
<circle cx="798.0" cy="338.3682127347061" r="2.4" fill="#114"/>
<text x="798.0" y="326.4015286866297" text-anchor="middle" font-size="11">1.01</text>
<text x="798.0" y="376" text-anchor="middle" font-size="12">dzasum</text>
<text x="450.0" y="428" text-anchor="middle" font-size="11" fill="#666">violin = ratio distribution over sizes · line = median · dark dot = worst size · green = every size ≥ gate</text>
</svg>
