<svg xmlns="http://www.w3.org/2000/svg" width="900" height="440" font-family="sans-serif">
<rect width="900" height="440" fill="white"/>
<text x="450.0" y="28" text-anchor="middle" font-size="18" font-weight="bold">Complex BLAS-1: PureBLAS / OpenBLAS (AVX-512 (Zen4), 1 thread, ComplexF64)</text>
<line x1="60" y1="358.0" x2="880" y2="358.0" stroke="#eee"/>
<text x="52" y="362.0" text-anchor="end" font-size="11" fill="#666">0×</text>
<line x1="60" y1="346.8833882798314" x2="880" y2="346.8833882798314" stroke="#eee"/>
<text x="52" y="350.8833882798314" text-anchor="end" font-size="11" fill="#666">0.5×</text>
<line x1="60" y1="335.76677655966284" x2="880" y2="335.76677655966284" stroke="#eee"/>
<text x="52" y="339.76677655966284" text-anchor="end" font-size="11" fill="#666">1×</text>
<line x1="60" y1="324.65016483949427" x2="880" y2="324.65016483949427" stroke="#eee"/>
<text x="52" y="328.65016483949427" text-anchor="end" font-size="11" fill="#666">1.5×</text>
<line x1="60" y1="335.76677655966284" x2="880" y2="335.76677655966284" stroke="#888" stroke-width="1"/>
<line x1="60" y1="336.6561054972763" x2="880" y2="336.6561054972763" stroke="#d33" stroke-width="1.5" stroke-dasharray="6 4"/>
<text x="880" y="331.6561054972763" text-anchor="end" font-size="11" fill="#d33">0.96× gate</text>
<polygon points="142.2,341.6 142.3,341.4 142.6,341.2 142.9,341.0 143.3,340.8 143.7,340.6 144.2,340.4 144.8,340.2 145.3,340.0 145.9,339.8 146.4,339.6 146.8,339.4 147.2,339.2 147.5,339.0 147.7,338.8 147.8,338.5 148.0,338.3 148.5,338.1 149.3,337.9 150.9,337.7 153.4,337.5 157.0,337.3 161.7,337.1 167.5,336.9 174.1,336.7 181.3,336.5 188.7,336.3 195.8,336.1 202.1,335.9 207.0,335.7 210.0,335.5 210.9,335.3 209.5,335.1 206.1,334.9 201.2,334.7 195.2,334.5 188.9,334.3 182.5,334.1 176.5,333.9 171.1,333.7 166.4,333.5 162.3,333.3 158.9,333.1 156.1,332.9 154.0,332.7 152.4,332.5 151.3,332.3 150.6,332.1 150.1,331.9 149.8,331.7 149.5,331.5 149.3,331.3 149.0,331.1 148.6,330.9 148.3,330.7 147.9,330.5 147.5,330.3 147.0,330.1 146.4,329.9 145.8,329.6 145.2,329.4 144.7,329.2 144.2,329.0 143.8,328.8 143.5,328.6 143.2,328.4 143.0,328.2 142.7,328.0 142.5,327.8 142.4,327.6 142.2,327.4 142.1,327.2 141.9,327.2 141.8,327.4 141.6,327.6 141.5,327.8 141.3,328.0 141.0,328.2 140.8,328.4 140.5,328.6 140.2,328.8 139.8,329.0 139.3,329.2 138.8,329.4 138.2,329.6 137.6,329.9 137.0,330.1 136.5,330.3 136.1,330.5 135.7,330.7 135.4,330.9 135.0,331.1 134.7,331.3 134.5,331.5 134.2,331.7 133.9,331.9 133.4,332.1 132.7,332.3 131.6,332.5 130.0,332.7 127.9,332.9 125.1,333.1 121.7,333.3 117.6,333.5 112.9,333.7 107.5,333.9 101.5,334.1 95.1,334.3 88.8,334.5 82.8,334.7 77.9,334.9 74.5,335.1 73.1,335.3 74.0,335.5 77.0,335.7 81.9,335.9 88.2,336.1 95.3,336.3 102.7,336.5 109.9,336.7 116.5,336.9 122.3,337.1 127.0,337.3 130.6,337.5 133.1,337.7 134.7,337.9 135.5,338.1 136.0,338.3 136.2,338.5 136.3,338.8 136.5,339.0 136.8,339.2 137.2,339.4 137.6,339.6 138.1,339.8 138.7,340.0 139.2,340.2 139.8,340.4 140.3,340.6 140.7,340.8 141.1,341.0 141.4,341.2 141.7,341.4 141.8,341.6" fill="#2a8" opacity="0.5" stroke="#2a8" stroke-width="1"/>
<line x1="73.1" y1="335.33280546298346" x2="210.9" y2="335.33280546298346" stroke="#114" stroke-width="2"/>
<circle cx="142.0" cy="335.7516340991792" r="2.4" fill="#114"/>
<text x="142.0" y="322.64743378378046" text-anchor="middle" font-size="11">1.02</text>
<text x="142.0" y="376" text-anchor="middle" font-size="12">zaxpy</text>
<polygon points="306.0,347.1 306.1,346.7 306.2,346.3 306.4,345.9 306.7,345.5 306.9,345.1 307.2,344.7 307.3,344.3 307.2,343.9 306.9,343.5 306.7,343.1 306.5,342.8 306.4,342.4 306.5,342.0 306.7,341.6 307.1,341.2 307.5,340.8 307.9,340.4 308.4,340.0 309.1,339.6 310.1,339.2 311.6,338.8 313.7,338.4 316.7,338.0 320.9,337.6 326.3,337.3 332.7,336.9 339.8,336.5 346.9,336.1 353.6,335.7 359.6,335.3 364.7,334.9 368.8,334.5 371.6,334.1 373.4,333.7 374.4,333.3 374.9,332.9 374.8,332.5 373.4,332.1 370.0,331.8 364.2,331.4 356.2,331.0 347.2,330.6 338.0,330.2 329.9,329.8 323.2,329.4 318.3,329.0 314.9,328.6 312.7,328.2 311.3,327.8 310.2,327.4 309.2,327.0 308.3,326.6 307.5,326.3 306.9,325.9 306.5,325.5 306.2,325.1 306.1,324.7 306.1,324.3 306.2,323.9 306.4,323.5 306.6,323.1 306.9,322.7 307.2,322.3 307.3,321.9 307.2,321.5 306.9,321.1 306.7,320.8 306.4,320.4 306.2,320.0 306.1,319.6 306.0,319.2 306.0,319.2 305.9,319.6 305.8,320.0 305.6,320.4 305.3,320.8 305.1,321.1 304.8,321.5 304.7,321.9 304.8,322.3 305.1,322.7 305.4,323.1 305.6,323.5 305.8,323.9 305.9,324.3 305.9,324.7 305.8,325.1 305.5,325.5 305.1,325.9 304.5,326.3 303.7,326.6 302.8,327.0 301.8,327.4 300.7,327.8 299.3,328.2 297.1,328.6 293.7,329.0 288.8,329.4 282.1,329.8 274.0,330.2 264.8,330.6 255.8,331.0 247.8,331.4 242.0,331.8 238.6,332.1 237.2,332.5 237.1,332.9 237.6,333.3 238.6,333.7 240.4,334.1 243.2,334.5 247.3,334.9 252.4,335.3 258.4,335.7 265.1,336.1 272.2,336.5 279.3,336.9 285.7,337.3 291.1,337.6 295.3,338.0 298.3,338.4 300.4,338.8 301.9,339.2 302.9,339.6 303.6,340.0 304.1,340.4 304.5,340.8 304.9,341.2 305.3,341.6 305.5,342.0 305.6,342.4 305.5,342.8 305.3,343.1 305.1,343.5 304.8,343.9 304.7,344.3 304.8,344.7 305.1,345.1 305.3,345.5 305.6,345.9 305.8,346.3 305.9,346.7 306.0,347.1" fill="#2a8" opacity="0.5" stroke="#2a8" stroke-width="1"/>
<line x1="237.5" y1="333.27352028064115" x2="374.5" y2="333.27352028064115" stroke="#114" stroke-width="2"/>
<circle cx="306.0" cy="335.3564818710745" r="2.4" fill="#114"/>
<text x="306.0" y="315.91632875154863" text-anchor="middle" font-size="11">1.11</text>
<text x="306.0" y="376" text-anchor="middle" font-size="12">zdotc</text>
<polygon points="470.1,340.8 470.2,340.6 470.4,340.4 470.8,340.2 471.3,339.9 471.9,339.7 472.8,339.5 473.7,339.3 474.8,339.1 476.0,338.8 477.1,338.6 478.1,338.4 479.1,338.2 480.2,338.0 481.4,337.8 483.1,337.5 485.4,337.3 488.9,337.1 493.7,336.9 500.1,336.7 507.9,336.5 516.5,336.2 525.0,336.0 532.2,335.8 537.1,335.6 538.9,335.4 537.5,335.2 533.5,334.9 527.8,334.7 521.3,334.5 515.2,334.3 510.1,334.1 506.5,333.8 504.1,333.6 502.5,333.4 501.1,333.2 499.5,333.0 497.3,332.8 494.4,332.5 491.1,332.3 487.5,332.1 484.2,331.9 481.2,331.7 478.8,331.5 476.8,331.2 475.3,331.0 474.1,330.8 473.2,330.6 472.5,330.4 471.8,330.2 471.3,329.9 470.9,329.7 470.6,329.5 470.3,329.3 470.2,329.1 470.1,328.8 470.1,328.6 470.1,328.4 470.2,328.2 470.3,328.0 470.5,327.8 470.7,327.5 470.9,327.3 471.0,327.1 471.0,326.9 471.0,326.7 470.8,326.5 470.7,326.2 470.5,326.0 470.3,325.8 470.2,325.6 470.1,325.4 469.9,325.4 469.8,325.6 469.7,325.8 469.5,326.0 469.3,326.2 469.2,326.5 469.0,326.7 469.0,326.9 469.0,327.1 469.1,327.3 469.3,327.5 469.5,327.8 469.7,328.0 469.8,328.2 469.9,328.4 469.9,328.6 469.9,328.8 469.8,329.1 469.7,329.3 469.4,329.5 469.1,329.7 468.7,329.9 468.2,330.2 467.5,330.4 466.8,330.6 465.9,330.8 464.7,331.0 463.2,331.2 461.2,331.5 458.8,331.7 455.8,331.9 452.5,332.1 448.9,332.3 445.6,332.5 442.7,332.8 440.5,333.0 438.9,333.2 437.5,333.4 435.9,333.6 433.5,333.8 429.9,334.1 424.8,334.3 418.7,334.5 412.2,334.7 406.5,334.9 402.5,335.2 401.1,335.4 402.9,335.6 407.8,335.8 415.0,336.0 423.5,336.2 432.1,336.5 439.9,336.7 446.3,336.9 451.1,337.1 454.6,337.3 456.9,337.5 458.6,337.8 459.8,338.0 460.9,338.2 461.9,338.4 462.9,338.6 464.0,338.8 465.2,339.1 466.3,339.3 467.2,339.5 468.1,339.7 468.7,339.9 469.2,340.2 469.6,340.4 469.8,340.6 469.9,340.8" fill="#2a8" opacity="0.5" stroke="#2a8" stroke-width="1"/>
<line x1="403.1" y1="335.10591083619084" x2="536.9" y2="335.10591083619084" stroke="#114" stroke-width="2"/>
<circle cx="470.0" cy="335.62419706382514" r="2.4" fill="#114"/>
<text x="470.0" y="320.89777624322033" text-anchor="middle" font-size="11">1.03</text>
<text x="470.0" y="376" text-anchor="middle" font-size="12">zscal</text>
<polygon points="638.0,321.2 640.4,317.4 643.9,313.6 648.5,309.7 654.5,305.9 661.5,302.1 669.4,298.3 677.5,294.5 685.4,290.6 692.3,286.8 697.7,283.0 701.2,279.2 702.9,275.4 702.8,271.5 701.6,267.7 699.6,263.9 697.5,260.1 695.7,256.3 694.4,252.4 693.5,248.6 693.0,244.8 692.6,241.0 692.0,237.2 691.1,233.4 689.9,229.5 688.3,225.7 686.4,221.9 684.5,218.1 682.7,214.3 680.9,210.4 679.3,206.6 677.8,202.8 676.3,199.0 674.7,195.2 672.9,191.3 670.8,187.5 668.2,183.7 665.3,179.9 662.1,176.1 658.7,172.2 655.4,168.4 652.1,164.6 649.2,160.8 646.6,157.0 644.4,153.1 642.5,149.3 641.0,145.5 639.7,141.7 638.7,137.9 637.8,134.0 637.1,130.2 636.6,126.4 636.2,122.6 635.9,118.8 635.8,114.9 635.7,111.1 635.6,107.3 635.6,103.5 635.5,99.7 635.5,95.8 635.5,92.0 635.4,88.2 635.4,84.4 635.4,80.6 635.5,76.7 635.5,72.9 635.4,69.1 635.4,65.3 635.3,61.5 635.1,57.6 634.9,53.8 634.8,50.0 633.2,50.0 633.1,53.8 632.9,57.6 632.7,61.5 632.6,65.3 632.6,69.1 632.5,72.9 632.5,76.7 632.6,80.6 632.6,84.4 632.6,88.2 632.5,92.0 632.5,95.8 632.5,99.7 632.4,103.5 632.4,107.3 632.3,111.1 632.2,114.9 632.1,118.8 631.8,122.6 631.4,126.4 630.9,130.2 630.2,134.0 629.3,137.9 628.3,141.7 627.0,145.5 625.5,149.3 623.6,153.1 621.4,157.0 618.8,160.8 615.9,164.6 612.6,168.4 609.3,172.2 605.9,176.1 602.7,179.9 599.8,183.7 597.2,187.5 595.1,191.3 593.3,195.2 591.7,199.0 590.2,202.8 588.7,206.6 587.1,210.4 585.3,214.3 583.5,218.1 581.6,221.9 579.7,225.7 578.1,229.5 576.9,233.4 576.0,237.2 575.4,241.0 575.0,244.8 574.5,248.6 573.6,252.4 572.3,256.3 570.5,260.1 568.4,263.9 566.4,267.7 565.2,271.5 565.1,275.4 566.8,279.2 570.3,283.0 575.7,286.8 582.6,290.6 590.5,294.5 598.6,298.3 606.5,302.1 613.5,305.9 619.5,309.7 624.1,313.6 627.6,317.4 630.0,321.2" fill="#2a8" opacity="0.5" stroke="#2a8" stroke-width="1"/>
<line x1="575.5" y1="240.35714173507384" x2="692.5" y2="240.35714173507384" stroke="#114" stroke-width="2"/>
<circle cx="634.0" cy="282.3208053706162" r="2.4" fill="#114"/>
<text x="634.0" y="61.433962264150935" text-anchor="middle" font-size="11">5.29</text>
<text x="634.0" y="376" text-anchor="middle" font-size="12">dznrm2</text>
<polygon points="798.0,346.9 798.1,346.6 798.2,346.3 798.3,346.0 798.5,345.7 798.7,345.5 798.9,345.2 799.0,344.9 798.9,344.6 798.7,344.3 798.5,344.0 798.3,343.7 798.2,343.4 798.1,343.1 798.0,342.8 798.0,342.6 798.0,342.3 798.1,342.0 798.2,341.7 798.5,341.4 799.0,341.1 799.7,340.8 800.5,340.5 801.4,340.2 802.1,339.9 802.5,339.7 802.9,339.4 803.6,339.1 804.9,338.8 807.1,338.5 810.3,338.2 814.5,337.9 820.1,337.6 827.2,337.3 835.7,337.0 845.3,336.7 854.7,336.5 862.3,336.2 866.6,335.9 866.9,335.6 863.3,335.3 856.8,335.0 848.9,334.7 840.9,334.4 833.5,334.1 827.0,333.8 821.4,333.6 816.5,333.3 812.4,333.0 809.2,332.7 806.9,332.4 805.5,332.1 804.8,331.8 804.4,331.5 804.1,331.2 803.6,330.9 802.9,330.7 802.0,330.4 801.0,330.1 800.2,329.8 799.5,329.5 799.2,329.2 799.0,328.9 799.0,328.6 799.0,328.3 798.9,328.0 798.7,327.8 798.5,327.5 798.3,327.2 798.2,326.9 798.1,326.6 798.0,326.3 798.0,326.3 797.9,326.6 797.8,326.9 797.7,327.2 797.5,327.5 797.3,327.8 797.1,328.0 797.0,328.3 797.0,328.6 797.0,328.9 796.8,329.2 796.5,329.5 795.8,329.8 795.0,330.1 794.0,330.4 793.1,330.7 792.4,330.9 791.9,331.2 791.6,331.5 791.2,331.8 790.5,332.1 789.1,332.4 786.8,332.7 783.6,333.0 779.5,333.3 774.6,333.6 769.0,333.8 762.5,334.1 755.1,334.4 747.1,334.7 739.2,335.0 732.7,335.3 729.1,335.6 729.4,335.9 733.7,336.2 741.3,336.5 750.7,336.7 760.3,337.0 768.8,337.3 775.9,337.6 781.5,337.9 785.7,338.2 788.9,338.5 791.1,338.8 792.4,339.1 793.1,339.4 793.5,339.7 793.9,339.9 794.6,340.2 795.5,340.5 796.3,340.8 797.0,341.1 797.5,341.4 797.8,341.7 797.9,342.0 798.0,342.3 798.0,342.6 798.0,342.8 797.9,343.1 797.8,343.4 797.7,343.7 797.5,344.0 797.3,344.3 797.1,344.6 797.0,344.9 797.1,345.2 797.3,345.5 797.5,345.7 797.7,346.0 797.8,346.3 797.9,346.6 798.0,346.9" fill="#d33" opacity="0.5" stroke="#d33" stroke-width="1"/>
<line x1="728.8" y1="335.65535555710665" x2="867.2" y2="335.65535555710665" stroke="#114" stroke-width="2"/>
<circle cx="798.0" cy="336.8781093576118" r="2.4" fill="#114"/>
<text x="798.0" y="322.33196517622747" text-anchor="middle" font-size="11">1.01</text>
<text x="798.0" y="376" text-anchor="middle" font-size="12">dzasum</text>
<text x="450.0" y="428" text-anchor="middle" font-size="11" fill="#666">violin = ratio distribution over sizes · line = median · dark dot = worst size · green = every size ≥ gate</text>
</svg>
