<svg xmlns="http://www.w3.org/2000/svg" width="900" height="460" font-family="sans-serif">
<rect width="900" height="460" fill="white"/>
<text x="450.0" y="28" text-anchor="middle" font-size="18" font-weight="bold">Complex BLAS-3: PureBLAS / OpenBLAS (AVX2, 1 thread, ComplexF64)</text>
<line x1="62" y1="400.0" x2="768" y2="400.0" stroke="#eee"/>
<text x="54" y="404.0" text-anchor="end" font-size="11" fill="#666">0.5×</text>
<line x1="62" y1="303.7688780356323" x2="768" y2="303.7688780356323" stroke="#eee"/>
<text x="54" y="307.7688780356323" text-anchor="end" font-size="11" fill="#666">0.7×</text>
<line x1="62" y1="201.75977803835113" x2="768" y2="201.75977803835113" stroke="#eee"/>
<text x="54" y="205.75977803835113" text-anchor="end" font-size="11" fill="#666">1.0×</text>
<line x1="62" y1="85.79668205614797" x2="768" y2="85.79668205614797" stroke="#eee"/>
<text x="54" y="89.79668205614797" text-anchor="end" font-size="11" fill="#666">1.5×</text>
<line x1="62.0" y1="50" x2="62.0" y2="400" stroke="#f4f4f4"/>
<text x="62.0" y="418" text-anchor="middle" font-size="11" fill="#444">8</text>
<line x1="238.5" y1="50" x2="238.5" y2="400" stroke="#f4f4f4"/>
<text x="238.5" y="418" text-anchor="middle" font-size="11" fill="#444">32</text>
<line x1="415.0" y1="50" x2="415.0" y2="400" stroke="#f4f4f4"/>
<text x="415.0" y="418" text-anchor="middle" font-size="11" fill="#444">128</text>
<line x1="503.25" y1="50" x2="503.25" y2="400" stroke="#f4f4f4"/>
<text x="503.25" y="418" text-anchor="middle" font-size="11" fill="#444">256</text>
<line x1="591.5" y1="50" x2="591.5" y2="400" stroke="#f4f4f4"/>
<text x="591.5" y="418" text-anchor="middle" font-size="11" fill="#444">512</text>
<line x1="679.75" y1="50" x2="679.75" y2="400" stroke="#f4f4f4"/>
<text x="679.75" y="418" text-anchor="middle" font-size="11" fill="#444">1024</text>
<line x1="768.0" y1="50" x2="768.0" y2="400" stroke="#f4f4f4"/>
<text x="768.0" y="418" text-anchor="middle" font-size="11" fill="#444">2048</text>
<line x1="62" y1="201.75977803835113" x2="768" y2="201.75977803835113" stroke="#888"/>
<line x1="62" y1="213.4348760284709" x2="768" y2="213.4348760284709" stroke="#d33" stroke-width="1.5" stroke-dasharray="6 4"/>
<text x="66" y="208.4348760284709" font-size="11" fill="#d33">0.96× gate</text>
<polygon points="62.0,151.7 238.5,202.8 415.0,208.4 503.2,216.1 591.5,215.6 679.8,210.9 768.0,209.7 768.0,211.0 679.8,212.4 591.5,219.2 503.2,216.9 415.0,211.0 238.5,219.5 62.0,199.1" fill="#1f77b4" opacity="0.14" stroke="none"/>
<polyline points="62.0,156.1 238.5,212.0 415.0,209.6 503.2,216.5 591.5,216.6 679.8,211.6 768.0,210.6" fill="none" stroke="#1f77b4" stroke-width="2"/>
<circle cx="62.0" cy="156.1" r="3" fill="#1f77b4"/>
<circle cx="238.5" cy="212.0" r="3" fill="#1f77b4"/>
<circle cx="415.0" cy="209.6" r="3" fill="#1f77b4"/>
<circle cx="503.2" cy="216.5" r="3" fill="#1f77b4"/>
<circle cx="591.5" cy="216.6" r="3" fill="#1f77b4"/>
<circle cx="679.8" cy="211.6" r="3" fill="#1f77b4"/>
<circle cx="768.0" cy="210.6" r="3" fill="#1f77b4"/>
<line x1="782" y1="56" x2="802" y2="56" stroke="#1f77b4" stroke-width="3"/>
<text x="806" y="60" font-size="12">zgemm</text>
<polygon points="62.0,344.5 238.5,228.7 415.0,223.4 503.2,208.4 591.5,205.2 679.8,198.8 768.0,196.5 768.0,199.6 679.8,199.6 591.5,206.1 503.2,209.2 415.0,226.7 238.5,242.5 62.0,358.8" fill="#d62728" opacity="0.14" stroke="none"/>
<polyline points="62.0,347.7 238.5,237.0 415.0,224.7 503.2,208.7 591.5,205.6 679.8,199.3 768.0,198.3" fill="none" stroke="#d62728" stroke-width="2"/>
<circle cx="62.0" cy="347.7" r="3" fill="#d62728"/>
<circle cx="238.5" cy="237.0" r="3" fill="#d62728"/>
<circle cx="415.0" cy="224.7" r="3" fill="#d62728"/>
<circle cx="503.2" cy="208.7" r="3" fill="#d62728"/>
<circle cx="591.5" cy="205.6" r="3" fill="#d62728"/>
<circle cx="679.8" cy="199.3" r="3" fill="#d62728"/>
<circle cx="768.0" cy="198.3" r="3" fill="#d62728"/>
<line x1="782" y1="74" x2="802" y2="74" stroke="#d62728" stroke-width="3"/>
<text x="806" y="78" font-size="12">zhemm</text>
<polygon points="62.0,215.6 238.5,162.7 415.0,199.0 503.2,210.8 591.5,219.4 679.8,221.1 768.0,218.6 768.0,221.5 679.8,222.1 591.5,220.1 503.2,212.8 415.0,206.4 238.5,172.0 62.0,219.5" fill="#2ca02c" opacity="0.14" stroke="none"/>
<polyline points="62.0,217.5 238.5,168.8 415.0,202.1 503.2,212.2 591.5,219.7 679.8,221.6 768.0,220.3" fill="none" stroke="#2ca02c" stroke-width="2"/>
<circle cx="62.0" cy="217.5" r="3" fill="#2ca02c"/>
<circle cx="238.5" cy="168.8" r="3" fill="#2ca02c"/>
<circle cx="415.0" cy="202.1" r="3" fill="#2ca02c"/>
<circle cx="503.2" cy="212.2" r="3" fill="#2ca02c"/>
<circle cx="591.5" cy="219.7" r="3" fill="#2ca02c"/>
<circle cx="679.8" cy="221.6" r="3" fill="#2ca02c"/>
<circle cx="768.0" cy="220.3" r="3" fill="#2ca02c"/>
<line x1="782" y1="92" x2="802" y2="92" stroke="#2ca02c" stroke-width="3"/>
<text x="806" y="96" font-size="12">zherk</text>
<polygon points="62.0,269.1 238.5,190.8 415.0,211.2 503.2,218.3 591.5,235.1 679.8,223.9 768.0,219.8 768.0,221.5 679.8,225.1 591.5,235.5 503.2,220.2 415.0,213.2 238.5,201.8 62.0,274.7" fill="#9467bd" opacity="0.14" stroke="none"/>
<polyline points="62.0,272.4 238.5,193.9 415.0,212.2 503.2,219.7 591.5,235.3 679.8,224.5 768.0,220.4" fill="none" stroke="#9467bd" stroke-width="2"/>
<circle cx="62.0" cy="272.4" r="3" fill="#9467bd"/>
<circle cx="238.5" cy="193.9" r="3" fill="#9467bd"/>
<circle cx="415.0" cy="212.2" r="3" fill="#9467bd"/>
<circle cx="503.2" cy="219.7" r="3" fill="#9467bd"/>
<circle cx="591.5" cy="235.3" r="3" fill="#9467bd"/>
<circle cx="679.8" cy="224.5" r="3" fill="#9467bd"/>
<circle cx="768.0" cy="220.4" r="3" fill="#9467bd"/>
<line x1="782" y1="110" x2="802" y2="110" stroke="#9467bd" stroke-width="3"/>
<text x="806" y="114" font-size="12">zher2k</text>
<polygon points="62.0,267.9 238.5,183.6 415.0,207.4 503.2,218.2 591.5,234.2 679.8,222.6 768.0,216.0 768.0,217.4 679.8,223.7 591.5,235.4 503.2,220.3 415.0,208.8 238.5,193.8 62.0,274.1" fill="#ff7f0e" opacity="0.14" stroke="none"/>
<polyline points="62.0,269.1 238.5,189.2 415.0,208.1 503.2,219.9 591.5,234.6 679.8,223.5 768.0,216.7" fill="none" stroke="#ff7f0e" stroke-width="2"/>
<circle cx="62.0" cy="269.1" r="3" fill="#ff7f0e"/>
<circle cx="238.5" cy="189.2" r="3" fill="#ff7f0e"/>
<circle cx="415.0" cy="208.1" r="3" fill="#ff7f0e"/>
<circle cx="503.2" cy="219.9" r="3" fill="#ff7f0e"/>
<circle cx="591.5" cy="234.6" r="3" fill="#ff7f0e"/>
<circle cx="679.8" cy="223.5" r="3" fill="#ff7f0e"/>
<circle cx="768.0" cy="216.7" r="3" fill="#ff7f0e"/>
<line x1="782" y1="128" x2="802" y2="128" stroke="#ff7f0e" stroke-width="3"/>
<text x="806" y="132" font-size="12">zsyr2k</text>
<polygon points="62.0,197.4 238.5,242.3 415.0,233.3 503.2,223.0 591.5,217.8 679.8,212.2 768.0,210.8 768.0,212.8 679.8,213.0 591.5,218.8 503.2,225.5 415.0,236.8 238.5,249.1 62.0,204.7" fill="#17becf" opacity="0.14" stroke="none"/>
<polyline points="62.0,201.3 238.5,247.1 415.0,234.9 503.2,224.3 591.5,218.1 679.8,212.6 768.0,212.0" fill="none" stroke="#17becf" stroke-width="2"/>
<circle cx="62.0" cy="201.3" r="3" fill="#17becf"/>
<circle cx="238.5" cy="247.1" r="3" fill="#17becf"/>
<circle cx="415.0" cy="234.9" r="3" fill="#17becf"/>
<circle cx="503.2" cy="224.3" r="3" fill="#17becf"/>
<circle cx="591.5" cy="218.1" r="3" fill="#17becf"/>
<circle cx="679.8" cy="212.6" r="3" fill="#17becf"/>
<circle cx="768.0" cy="212.0" r="3" fill="#17becf"/>
<line x1="782" y1="146" x2="802" y2="146" stroke="#17becf" stroke-width="3"/>
<text x="806" y="150" font-size="12">ztrmm</text>
<polygon points="62.0,117.1 238.5,182.9 415.0,307.9 503.2,216.4 591.5,198.2 679.8,197.5 768.0,201.7 768.0,203.8 679.8,199.4 591.5,199.8 503.2,217.3 415.0,309.8 238.5,189.7 62.0,124.3" fill="#8c564b" opacity="0.14" stroke="none"/>
<polyline points="62.0,121.7 238.5,186.2 415.0,308.2 503.2,216.5 591.5,199.2 679.8,198.3 768.0,202.7" fill="none" stroke="#8c564b" stroke-width="2"/>
<circle cx="62.0" cy="121.7" r="3" fill="#8c564b"/>
<circle cx="238.5" cy="186.2" r="3" fill="#8c564b"/>
<circle cx="415.0" cy="308.2" r="3" fill="#8c564b"/>
<circle cx="503.2" cy="216.5" r="3" fill="#8c564b"/>
<circle cx="591.5" cy="199.2" r="3" fill="#8c564b"/>
<circle cx="679.8" cy="198.3" r="3" fill="#8c564b"/>
<circle cx="768.0" cy="202.7" r="3" fill="#8c564b"/>
<line x1="782" y1="164" x2="802" y2="164" stroke="#8c564b" stroke-width="3"/>
<text x="806" y="168" font-size="12">ztrsm</text>
<polygon points="62.0,178.2 238.5,267.6 415.0,208.8 503.2,211.2 591.5,214.2 679.8,213.5 768.0,210.4 768.0,212.1 679.8,214.3 591.5,215.4 503.2,212.6 415.0,216.4 238.5,278.2 62.0,182.9" fill="#e377c2" opacity="0.14" stroke="none"/>
<polyline points="62.0,181.4 238.5,271.7 415.0,213.0 503.2,211.8 591.5,214.6 679.8,214.2 768.0,211.1" fill="none" stroke="#e377c2" stroke-width="2"/>
<circle cx="62.0" cy="181.4" r="3" fill="#e377c2"/>
<circle cx="238.5" cy="271.7" r="3" fill="#e377c2"/>
<circle cx="415.0" cy="213.0" r="3" fill="#e377c2"/>
<circle cx="503.2" cy="211.8" r="3" fill="#e377c2"/>
<circle cx="591.5" cy="214.6" r="3" fill="#e377c2"/>
<circle cx="679.8" cy="214.2" r="3" fill="#e377c2"/>
<circle cx="768.0" cy="211.1" r="3" fill="#e377c2"/>
<line x1="782" y1="182" x2="802" y2="182" stroke="#e377c2" stroke-width="3"/>
<text x="806" y="186" font-size="12">ztrmmR</text>
<polygon points="62.0,392.7 238.5,396.0 415.0,323.9 503.2,230.1 591.5,208.3 679.8,200.5 768.0,201.2 768.0,203.1 679.8,201.9 591.5,209.9 503.2,235.3 415.0,328.2 238.5,400.0 62.0,397.7" fill="#1f77b4" opacity="0.14" stroke="none"/>
<polyline points="62.0,395.6 238.5,400.0 415.0,325.8 503.2,234.7 591.5,208.8 679.8,201.3 768.0,202.4" fill="none" stroke="#1f77b4" stroke-width="2"/>
<circle cx="62.0" cy="395.6" r="3" fill="#1f77b4"/>
<circle cx="238.5" cy="400.0" r="3" fill="#1f77b4"/>
<circle cx="415.0" cy="325.8" r="3" fill="#1f77b4"/>
<circle cx="503.2" cy="234.7" r="3" fill="#1f77b4"/>
<circle cx="591.5" cy="208.8" r="3" fill="#1f77b4"/>
<circle cx="679.8" cy="201.3" r="3" fill="#1f77b4"/>
<circle cx="768.0" cy="202.4" r="3" fill="#1f77b4"/>
<line x1="782" y1="200" x2="802" y2="200" stroke="#1f77b4" stroke-width="3"/>
<text x="806" y="204" font-size="12">ztrsmR</text>
<text x="415.0" y="450" text-anchor="middle" font-size="11" fill="#666">matrix size n (log) · y = median ratio (log) · dashed = the 0.96× gate</text>
</svg>
