<svg xmlns="http://www.w3.org/2000/svg" width="900" height="440" font-family="sans-serif">
<rect width="900" height="440" fill="white"/>
<text x="450.0" y="28" text-anchor="middle" font-size="18" font-weight="bold">BLAS-1: PureBLAS / OpenBLAS (AVX2, 1 thread, Float64)</text>
<line x1="60" y1="358.0" x2="880" y2="358.0" stroke="#eee"/>
<text x="52" y="362.0" text-anchor="end" font-size="11" fill="#666">0×</text>
<line x1="60" y1="344.0780616517757" x2="880" y2="344.0780616517757" stroke="#eee"/>
<text x="52" y="348.0780616517757" text-anchor="end" font-size="11" fill="#666">0.5×</text>
<line x1="60" y1="330.15612330355145" x2="880" y2="330.15612330355145" stroke="#eee"/>
<text x="52" y="334.15612330355145" text-anchor="end" font-size="11" fill="#666">1×</text>
<line x1="60" y1="316.2341849553272" x2="880" y2="316.2341849553272" stroke="#eee"/>
<text x="52" y="320.2341849553272" text-anchor="end" font-size="11" fill="#666">1.5×</text>
<line x1="60" y1="330.15612330355145" x2="880" y2="330.15612330355145" stroke="#888" stroke-width="1"/>
<line x1="60" y1="331.26987837140945" x2="880" y2="331.26987837140945" stroke="#d33" stroke-width="1.5" stroke-dasharray="6 4"/>
<text x="880" y="326.26987837140945" text-anchor="end" font-size="11" fill="#d33">0.96× gate</text>
<polygon points="130.5,331.6 132.0,331.4 134.2,331.3 137.4,331.2 141.7,331.0 147.1,330.9 153.5,330.8 160.6,330.6 167.9,330.5 174.6,330.3 180.2,330.2 184.0,330.1 185.7,329.9 185.3,329.8 183.0,329.6 179.1,329.5 174.4,329.4 169.3,329.2 164.2,329.1 159.3,328.9 154.8,328.8 150.7,328.7 147.0,328.5 143.6,328.4 140.5,328.2 137.7,328.1 135.4,328.0 133.5,327.8 132.0,327.7 130.9,327.5 130.2,327.4 129.8,327.3 129.6,327.1 129.5,327.0 129.5,326.8 129.5,326.7 129.6,326.6 129.6,326.4 129.6,326.3 129.6,326.1 129.7,326.0 129.7,325.9 129.8,325.7 129.8,325.6 129.9,325.4 130.0,325.3 130.1,325.2 130.1,325.0 130.1,324.9 130.1,324.7 130.1,324.6 130.1,324.5 130.1,324.3 130.1,324.2 130.2,324.0 130.4,323.9 130.5,323.8 130.6,323.6 130.6,323.5 130.7,323.4 130.6,323.2 130.5,323.1 130.4,322.9 130.2,322.8 130.0,322.7 129.7,322.5 129.5,322.4 129.2,322.2 129.0,322.1 128.8,322.0 128.7,321.8 128.6,321.7 128.1,321.7 128.0,321.8 127.8,322.0 127.7,322.1 127.4,322.2 127.2,322.4 127.0,322.5 126.7,322.7 126.5,322.8 126.3,322.9 126.2,323.1 126.1,323.2 126.0,323.4 126.0,323.5 126.1,323.6 126.2,323.8 126.3,323.9 126.4,324.0 126.5,324.2 126.6,324.3 126.6,324.5 126.6,324.6 126.6,324.7 126.6,324.9 126.6,325.0 126.6,325.2 126.6,325.3 126.7,325.4 126.8,325.6 126.9,325.7 127.0,325.9 127.0,326.0 127.0,326.1 127.0,326.3 127.1,326.4 127.1,326.6 127.1,326.7 127.2,326.8 127.2,327.0 127.1,327.1 126.9,327.3 126.4,327.4 125.7,327.5 124.6,327.7 123.2,327.8 121.3,328.0 118.9,328.1 116.2,328.2 113.1,328.4 109.7,328.5 105.9,328.7 101.8,328.8 97.4,328.9 92.5,329.1 87.4,329.2 82.3,329.4 77.5,329.5 73.7,329.6 71.4,329.8 70.9,329.9 72.7,330.1 76.5,330.2 82.1,330.3 88.8,330.5 96.1,330.6 103.1,330.8 109.6,330.9 115.0,331.0 119.3,331.2 122.5,331.3 124.7,331.4 126.2,331.6" fill="#2a8" opacity="0.5" stroke="#2a8" stroke-width="1"/>
<line x1="70.9" y1="329.84504840380055" x2="185.8" y2="329.84504840380055" stroke="#114" stroke-width="2"/>
<circle cx="128.33333333333331" cy="330.08327343921854" r="2.4" fill="#114"/>
<text x="128.33333333333331" y="316.6804382526166" text-anchor="middle" font-size="11">1.01</text>
<text x="128.33333333333331" y="376" text-anchor="middle" font-size="12">axpy</text>
<polygon points="266.0,331.7 267.1,331.5 268.9,331.4 271.8,331.2 276.2,331.1 282.1,331.0 289.6,330.8 298.2,330.7 306.9,330.5 314.6,330.4 320.0,330.2 322.4,330.1 321.5,330.0 317.6,329.8 311.8,329.7 305.2,329.5 298.9,329.4 293.6,329.2 289.6,329.1 286.6,328.9 284.3,328.8 282.2,328.7 280.2,328.5 278.0,328.4 275.8,328.2 273.6,328.1 271.7,327.9 270.1,327.8 268.9,327.6 268.0,327.5 267.5,327.4 267.2,327.2 267.1,327.1 267.0,326.9 266.9,326.8 266.8,326.6 266.7,326.5 266.6,326.4 266.5,326.2 266.5,326.1 266.4,325.9 266.4,325.8 266.4,325.6 266.4,325.5 266.4,325.3 266.4,325.2 266.4,325.1 266.3,324.9 266.2,324.8 266.1,324.6 265.9,324.5 265.7,324.3 265.6,324.2 265.4,324.1 265.3,323.9 265.3,323.8 265.2,323.6 265.3,323.5 265.4,323.3 265.6,323.2 265.7,323.0 265.9,322.9 266.1,322.8 266.2,322.6 266.2,322.5 266.1,322.3 265.9,322.2 265.8,322.0 265.6,321.9 265.4,321.7 265.2,321.6 265.1,321.5 264.9,321.5 264.8,321.6 264.6,321.7 264.4,321.9 264.2,322.0 264.1,322.2 263.9,322.3 263.8,322.5 263.8,322.6 263.9,322.8 264.1,322.9 264.3,323.0 264.4,323.2 264.6,323.3 264.7,323.5 264.8,323.6 264.7,323.8 264.7,323.9 264.6,324.1 264.4,324.2 264.3,324.3 264.1,324.5 263.9,324.6 263.8,324.8 263.7,324.9 263.6,325.1 263.6,325.2 263.6,325.3 263.6,325.5 263.6,325.6 263.6,325.8 263.6,325.9 263.5,326.1 263.5,326.2 263.4,326.4 263.3,326.5 263.2,326.6 263.1,326.8 263.0,326.9 262.9,327.1 262.8,327.2 262.5,327.4 262.0,327.5 261.1,327.6 259.9,327.8 258.3,327.9 256.4,328.1 254.2,328.2 252.0,328.4 249.8,328.5 247.8,328.7 245.7,328.8 243.4,328.9 240.4,329.1 236.4,329.2 231.1,329.4 224.8,329.5 218.2,329.7 212.4,329.8 208.5,330.0 207.6,330.1 210.0,330.2 215.4,330.4 223.1,330.5 231.8,330.7 240.4,330.8 247.9,331.0 253.8,331.1 258.2,331.2 261.1,331.4 262.9,331.5 264.0,331.7" fill="#2a8" opacity="0.5" stroke="#2a8" stroke-width="1"/>
<line x1="207.8" y1="330.0043588330637" x2="322.2" y2="330.0043588330637" stroke="#114" stroke-width="2"/>
<circle cx="265.0" cy="330.2194707258665" r="2.4" fill="#114"/>
<text x="265.0" y="316.4945924096391" text-anchor="middle" font-size="11">1.01</text>
<text x="265.0" y="376" text-anchor="middle" font-size="12">dot</text>
<polygon points="402.8,257.7 403.4,254.8 404.1,251.9 405.0,248.9 406.1,246.0 407.3,243.1 408.7,240.2 410.1,237.2 411.5,234.3 412.9,231.4 414.3,228.5 415.7,225.5 417.2,222.6 418.8,219.7 420.5,216.8 422.4,213.8 424.5,210.9 426.6,208.0 428.5,205.1 430.2,202.1 431.3,199.2 431.8,196.3 431.6,193.3 430.6,190.4 428.8,187.5 426.6,184.6 424.1,181.6 421.5,178.7 419.4,175.8 417.9,172.9 417.5,169.9 418.5,167.0 420.9,164.1 424.9,161.2 430.2,158.2 436.4,155.3 442.9,152.4 449.2,149.5 454.4,146.5 457.8,143.6 459.1,140.7 457.9,137.8 454.4,134.8 449.0,131.9 442.3,129.0 435.0,126.1 427.8,123.1 421.3,120.2 415.7,117.3 411.2,114.4 407.9,111.4 405.6,108.5 404.0,105.6 403.0,102.7 402.4,99.7 402.1,96.8 401.9,93.9 401.9,91.0 401.9,88.0 402.0,85.1 402.1,82.2 402.2,79.3 402.3,76.3 402.4,73.4 402.4,70.5 402.4,67.6 402.4,64.6 402.4,61.7 402.3,58.8 402.2,55.9 402.1,52.9 402.0,50.0 401.3,50.0 401.2,52.9 401.1,55.9 401.0,58.8 401.0,61.7 400.9,64.6 400.9,67.6 400.9,70.5 401.0,73.4 401.1,76.3 401.1,79.3 401.2,82.2 401.3,85.1 401.4,88.0 401.4,91.0 401.4,93.9 401.2,96.8 400.9,99.7 400.3,102.7 399.4,105.6 397.8,108.5 395.4,111.4 392.1,114.4 387.6,117.3 382.1,120.2 375.5,123.1 368.3,126.1 361.0,129.0 354.3,131.9 348.9,134.8 345.4,137.8 344.3,140.7 345.5,143.6 349.0,146.5 354.2,149.5 360.4,152.4 367.0,155.3 373.2,158.2 378.4,161.2 382.4,164.1 384.8,167.0 385.8,169.9 385.4,172.9 384.0,175.8 381.8,178.7 379.3,181.6 376.7,184.6 374.5,187.5 372.8,190.4 371.8,193.3 371.5,196.3 372.0,199.2 373.2,202.1 374.8,205.1 376.8,208.0 378.9,210.9 380.9,213.8 382.8,216.8 384.6,219.7 386.2,222.6 387.6,225.5 389.0,228.5 390.4,231.4 391.8,234.3 393.2,237.2 394.6,240.2 396.0,243.1 397.2,246.0 398.3,248.9 399.2,251.9 400.0,254.8 400.5,257.7" fill="#2a8" opacity="0.5" stroke="#2a8" stroke-width="1"/>
<line x1="352.5" y1="148.58468715973288" x2="450.9" y2="148.58468715973288" stroke="#114" stroke-width="2"/>
<circle cx="401.66666666666663" cy="203.10025447087568" r="2.4" fill="#114"/>
<text x="401.66666666666663" y="61.433962264150935" text-anchor="middle" font-size="11">7.52</text>
<text x="401.66666666666663" y="376" text-anchor="middle" font-size="12">nrm2</text>
<polygon points="539.8,329.7 540.3,329.3 541.1,328.8 542.0,328.4 543.3,328.0 544.8,327.5 546.8,327.1 549.3,326.7 552.2,326.2 555.6,325.8 559.5,325.4 563.8,324.9 568.4,324.5 573.1,324.1 577.9,323.6 582.4,323.2 586.5,322.8 589.9,322.3 592.7,321.9 594.6,321.5 595.6,321.0 595.7,320.6 595.2,320.2 594.1,319.7 592.6,319.3 590.9,318.9 589.3,318.4 587.8,318.0 586.6,317.6 585.7,317.1 585.1,316.7 584.5,316.2 584.0,315.8 583.3,315.4 582.3,314.9 581.0,314.5 579.1,314.1 576.8,313.6 574.0,313.2 570.9,312.8 567.7,312.3 564.4,311.9 561.3,311.5 558.5,311.0 556.1,310.6 554.4,310.2 553.3,309.7 553.0,309.3 553.4,308.9 554.4,308.4 556.1,308.0 558.2,307.6 560.7,307.1 563.4,306.7 566.1,306.3 568.7,305.8 570.9,305.4 572.7,305.0 573.9,304.5 574.4,304.1 574.2,303.7 573.3,303.2 571.7,302.8 569.6,302.3 567.0,301.9 564.1,301.5 561.0,301.0 557.9,300.6 554.8,300.2 552.0,299.7 549.4,299.3 547.1,298.9 529.5,298.9 527.3,299.3 524.7,299.7 521.8,300.2 518.8,300.6 515.7,301.0 512.6,301.5 509.7,301.9 507.1,302.3 505.0,302.8 503.4,303.2 502.5,303.7 502.3,304.1 502.8,304.5 504.0,305.0 505.7,305.4 508.0,305.8 510.6,306.3 513.3,306.7 516.0,307.1 518.5,307.6 520.6,308.0 522.2,308.4 523.3,308.9 523.7,309.3 523.3,309.7 522.3,310.2 520.5,310.6 518.2,311.0 515.4,311.5 512.3,311.9 509.0,312.3 505.7,312.8 502.6,313.2 499.9,313.6 497.6,314.1 495.7,314.5 494.3,314.9 493.4,315.4 492.7,315.8 492.1,316.2 491.6,316.7 490.9,317.1 490.0,317.6 488.8,318.0 487.4,318.4 485.7,318.9 484.1,319.3 482.6,319.7 481.5,320.2 480.9,320.6 481.1,321.0 482.1,321.5 484.0,321.9 486.7,322.3 490.2,322.8 494.3,323.2 498.8,323.6 503.5,324.1 508.3,324.5 512.9,324.9 517.2,325.4 521.0,325.8 524.5,326.2 527.4,326.7 529.8,327.1 531.8,327.5 533.4,328.0 534.7,328.4 535.6,328.8 536.3,329.3 536.9,329.7" fill="#2a8" opacity="0.5" stroke="#2a8" stroke-width="1"/>
<line x1="495.2" y1="314.6673761438646" x2="581.5" y2="314.6673761438646" stroke="#114" stroke-width="2"/>
<circle cx="538.3333333333333" cy="321.5668919087125" r="2.4" fill="#114"/>
<text x="538.3333333333333" y="295.9038883356532" text-anchor="middle" font-size="11">1.56</text>
<text x="538.3333333333333" y="376" text-anchor="middle" font-size="12">asum</text>
<polygon points="675.1,331.1 675.3,331.0 675.6,330.9 676.2,330.8 677.5,330.7 679.7,330.6 683.3,330.5 688.7,330.4 695.8,330.3 704.4,330.2 713.6,330.1 722.1,330.1 728.6,330.0 732.1,329.9 732.4,329.8 729.8,329.7 725.1,329.6 719.7,329.5 714.3,329.4 709.7,329.3 705.9,329.2 702.7,329.1 699.9,329.0 697.0,328.9 693.9,328.9 690.7,328.8 687.4,328.7 684.3,328.6 681.7,328.5 679.7,328.4 678.2,328.3 677.3,328.2 676.7,328.1 676.4,328.0 676.3,327.9 676.2,327.8 676.1,327.7 676.0,327.6 675.9,327.6 675.7,327.5 675.6,327.4 675.4,327.3 675.3,327.2 675.2,327.1 675.1,327.0 675.1,326.9 675.0,326.8 675.1,326.7 675.1,326.6 675.2,326.5 675.2,326.4 675.4,326.3 675.5,326.3 675.6,326.2 675.7,326.1 675.7,326.0 675.7,325.9 675.7,325.8 675.7,325.7 675.7,325.6 675.9,325.5 676.1,325.4 676.2,325.3 676.4,325.2 676.4,325.1 676.2,325.0 676.0,325.0 675.8,324.9 675.5,324.8 675.3,324.7 675.2,324.6 675.1,324.5 674.9,324.5 674.8,324.6 674.7,324.7 674.5,324.8 674.2,324.9 674.0,325.0 673.8,325.0 673.6,325.1 673.6,325.2 673.8,325.3 673.9,325.4 674.1,325.5 674.3,325.6 674.3,325.7 674.3,325.8 674.3,325.9 674.3,326.0 674.3,326.1 674.4,326.2 674.5,326.3 674.6,326.3 674.8,326.4 674.8,326.5 674.9,326.6 674.9,326.7 675.0,326.8 674.9,326.9 674.9,327.0 674.8,327.1 674.7,327.2 674.6,327.3 674.4,327.4 674.3,327.5 674.1,327.6 674.0,327.6 673.9,327.7 673.8,327.8 673.7,327.9 673.6,328.0 673.3,328.1 672.7,328.2 671.8,328.3 670.3,328.4 668.3,328.5 665.7,328.6 662.6,328.7 659.3,328.8 656.1,328.9 653.0,328.9 650.1,329.0 647.3,329.1 644.1,329.2 640.3,329.3 635.7,329.4 630.3,329.5 624.9,329.6 620.2,329.7 617.6,329.8 617.9,329.9 621.4,330.0 627.9,330.1 636.4,330.1 645.6,330.2 654.2,330.3 661.3,330.4 666.7,330.5 670.3,330.6 672.5,330.7 673.8,330.8 674.4,330.9 674.7,331.0 674.9,331.1" fill="#2a8" opacity="0.5" stroke="#2a8" stroke-width="1"/>
<line x1="618.3" y1="329.7447164660775" x2="731.7" y2="329.7447164660775" stroke="#114" stroke-width="2"/>
<circle cx="675.0" cy="329.89315348428056" r="2.4" fill="#114"/>
<text x="675.0" y="319.1738792779997" text-anchor="middle" font-size="11">1.01</text>
<text x="675.0" y="376" text-anchor="middle" font-size="12">scal</text>
<polygon points="812.1,351.1 812.3,350.5 812.5,349.9 812.8,349.4 813.0,348.8 813.4,348.2 813.8,347.7 814.2,347.1 814.9,346.5 815.6,346.0 816.7,345.4 818.0,344.8 819.7,344.3 821.7,343.7 824.2,343.1 827.1,342.6 830.3,342.0 833.9,341.4 837.7,340.9 841.6,340.3 845.5,339.7 849.2,339.2 852.7,338.6 855.9,338.0 858.8,337.5 861.3,336.9 863.4,336.3 865.2,335.8 866.6,335.2 867.7,334.6 868.4,334.1 868.9,333.5 869.1,332.9 869.1,332.4 868.9,331.8 868.7,331.2 868.4,330.7 868.0,330.1 867.5,329.6 866.7,329.0 865.7,328.4 864.2,327.9 862.5,327.3 860.3,326.7 857.9,326.2 855.4,325.6 852.7,325.0 850.2,324.5 847.8,323.9 845.7,323.3 843.9,322.8 842.3,322.2 841.0,321.6 839.9,321.1 838.9,320.5 838.0,319.9 837.1,319.4 836.2,318.8 835.0,318.2 833.7,317.7 832.2,317.1 830.4,316.5 828.5,316.0 826.4,315.4 824.2,314.8 822.1,314.3 820.1,313.7 818.3,313.1 816.7,312.6 815.4,312.0 814.3,311.4 813.5,310.9 809.8,310.9 809.0,311.4 807.9,312.0 806.6,312.6 805.0,313.1 803.2,313.7 801.2,314.3 799.1,314.8 797.0,315.4 794.9,316.0 792.9,316.5 791.2,317.1 789.6,317.7 788.3,318.2 787.2,318.8 786.2,319.4 785.3,319.9 784.4,320.5 783.5,321.1 782.4,321.6 781.0,322.2 779.5,322.8 777.6,323.3 775.5,323.9 773.1,324.5 770.6,325.0 768.0,325.6 765.4,326.2 763.0,326.7 760.9,327.3 759.1,327.9 757.7,328.4 756.6,329.0 755.8,329.6 755.3,330.1 754.9,330.7 754.6,331.2 754.4,331.8 754.3,332.4 754.3,332.9 754.5,333.5 754.9,334.1 755.7,334.6 756.7,335.2 758.2,335.8 759.9,336.3 762.1,336.9 764.6,337.5 767.4,338.0 770.6,338.6 774.1,339.2 777.9,339.7 781.7,340.3 785.6,340.9 789.4,341.4 793.0,342.0 796.3,342.6 799.2,343.1 801.6,343.7 803.7,344.3 805.3,344.8 806.7,345.4 807.7,346.0 808.5,346.5 809.1,347.1 809.6,347.7 810.0,348.2 810.3,348.8 810.6,349.4 810.8,349.9 811.0,350.5 811.2,351.1" fill="#d33" opacity="0.5" stroke="#d33" stroke-width="1"/>
<line x1="755.1" y1="330.37290387343137" x2="868.2" y2="330.37290387343137" stroke="#114" stroke-width="2"/>
<circle cx="811.6666666666666" cy="334.7290033508047" r="2.4" fill="#114"/>
<text x="811.6666666666666" y="308.8061058410454" text-anchor="middle" font-size="11">0.99</text>
<text x="811.6666666666666" y="376" text-anchor="middle" font-size="12">iamax</text>
<text x="450.0" y="428" text-anchor="middle" font-size="11" fill="#666">violin = ratio distribution over sizes · line = median · dark dot = worst size · green = every size ≥ gate</text>
</svg>
