<svg xmlns="http://www.w3.org/2000/svg" width="900" height="440" font-family="sans-serif">
<rect width="900" height="440" fill="white"/>
<text x="450.0" y="28" text-anchor="middle" font-size="18" font-weight="bold">BLAS-2: PureBLAS / OpenBLAS (AVX-512, 1 thread, Float64)</text>
<line x1="60" y1="358.0" x2="880" y2="358.0" stroke="#eee"/>
<text x="52" y="362.0" text-anchor="end" font-size="11" fill="#666">0×</text>
<line x1="60" y1="289.19558396952357" x2="880" y2="289.19558396952357" stroke="#eee"/>
<text x="52" y="293.19558396952357" text-anchor="end" font-size="11" fill="#666">0.5×</text>
<line x1="60" y1="220.39116793904714" x2="880" y2="220.39116793904714" stroke="#eee"/>
<text x="52" y="224.39116793904714" text-anchor="end" font-size="11" fill="#666">1×</text>
<line x1="60" y1="151.5867519085707" x2="880" y2="151.5867519085707" stroke="#eee"/>
<text x="52" y="155.5867519085707" text-anchor="end" font-size="11" fill="#666">1.5×</text>
<line x1="60" y1="220.39116793904714" x2="880" y2="220.39116793904714" stroke="#888" stroke-width="1"/>
<line x1="60" y1="225.89552122148524" x2="880" y2="225.89552122148524" stroke="#d33" stroke-width="1.5" stroke-dasharray="6 4"/>
<text x="880" y="220.89552122148524" text-anchor="end" font-size="11" fill="#d33">0.96× gate</text>
<polygon points="113.2,247.3 115.7,244.6 118.6,241.8 121.9,239.0 125.5,236.2 129.2,233.4 132.8,230.7 136.2,227.9 139.2,225.1 141.5,222.3 143.1,219.5 143.8,216.8 143.8,214.0 143.0,211.2 141.6,208.4 139.7,205.7 137.5,202.9 135.2,200.1 132.9,197.3 130.7,194.5 128.8,191.8 127.0,189.0 125.5,186.2 124.1,183.4 122.9,180.6 121.8,177.9 120.7,175.1 119.6,172.3 118.4,169.5 117.1,166.7 115.7,164.0 114.4,161.2 113.0,158.4 111.8,155.6 110.6,152.8 109.6,150.1 108.8,147.3 108.1,144.5 107.7,141.7 107.4,138.9 107.2,136.2 107.2,133.4 107.3,130.6 107.4,127.8 107.5,125.0 107.6,122.3 107.8,119.5 107.9,116.7 108.0,113.9 108.2,111.1 108.4,108.4 108.6,105.6 108.9,102.8 109.3,100.0 109.7,97.3 110.2,94.5 110.7,91.7 111.3,88.9 111.7,86.1 112.1,83.4 112.4,80.6 112.6,77.8 112.5,75.0 112.3,72.2 111.9,69.5 111.4,66.7 110.7,63.9 110.0,61.1 109.3,58.3 108.6,55.6 108.0,52.8 107.4,50.0 103.7,50.0 103.2,52.8 102.5,55.6 101.8,58.3 101.1,61.1 100.4,63.9 99.8,66.7 99.2,69.5 98.8,72.2 98.6,75.0 98.6,77.8 98.7,80.6 99.0,83.4 99.4,86.1 99.9,88.9 100.4,91.7 100.9,94.5 101.4,97.3 101.8,100.0 102.2,102.8 102.5,105.6 102.7,108.4 102.9,111.1 103.1,113.9 103.2,116.7 103.4,119.5 103.5,122.3 103.6,125.0 103.8,127.8 103.9,130.6 103.9,133.4 103.9,136.2 103.7,138.9 103.4,141.7 103.0,144.5 102.3,147.3 101.5,150.1 100.5,152.8 99.3,155.6 98.1,158.4 96.7,161.2 95.4,164.0 94.0,166.7 92.8,169.5 91.6,172.3 90.4,175.1 89.3,177.9 88.2,180.6 87.0,183.4 85.6,186.2 84.1,189.0 82.4,191.8 80.4,194.5 78.2,197.3 75.9,200.1 73.6,202.9 71.4,205.7 69.5,208.4 68.1,211.2 67.3,214.0 67.3,216.8 68.1,219.5 69.6,222.3 71.9,225.1 74.9,227.9 78.3,230.7 81.9,233.4 85.6,236.2 89.2,239.0 92.5,241.8 95.4,244.6 97.9,247.3" fill="#d33" opacity="0.5" stroke="#d33" stroke-width="1"/>
<line x1="67.7" y1="212.5903425622433" x2="143.5" y2="212.5903425622433" stroke="#114" stroke-width="2"/>
<circle cx="105.55555555555556" cy="227.2669095378996" r="2.4" fill="#114"/>
<text x="105.55555555555556" y="61.433962264150935" text-anchor="middle" font-size="11">1.06</text>
<text x="105.55555555555556" y="376" text-anchor="middle" font-size="12">gemvN</text>
<polygon points="199.0,228.8 199.8,228.1 200.7,227.4 201.8,226.7 203.1,226.0 204.5,225.3 206.1,224.6 207.8,223.9 209.7,223.2 211.8,222.6 213.9,221.9 216.1,221.2 218.4,220.5 220.8,219.8 223.2,219.1 225.5,218.4 227.8,217.7 229.8,217.0 231.7,216.3 233.1,215.6 234.2,214.9 234.8,214.2 234.9,213.5 234.5,212.8 233.7,212.1 232.4,211.4 230.8,210.8 229.0,210.1 227.0,209.4 224.9,208.7 222.9,208.0 220.8,207.3 218.8,206.6 216.9,205.9 215.0,205.2 213.2,204.5 211.4,203.8 209.6,203.1 207.9,202.4 206.3,201.7 204.9,201.0 203.6,200.3 202.4,199.6 201.5,199.0 200.8,198.3 200.4,197.6 200.2,196.9 200.2,196.2 200.6,195.5 201.2,194.8 202.1,194.1 203.2,193.4 204.6,192.7 206.2,192.0 208.0,191.3 209.8,190.6 211.6,189.9 213.4,189.2 214.9,188.5 216.2,187.8 217.1,187.2 217.6,186.5 217.7,185.8 217.2,185.1 216.4,184.4 215.1,183.7 213.5,183.0 211.8,182.3 209.9,181.6 207.9,180.9 206.0,180.2 204.3,179.5 189.0,179.5 187.3,180.2 185.4,180.9 183.5,181.6 181.6,182.3 179.8,183.0 178.2,183.7 177.0,184.4 176.1,185.1 175.7,185.8 175.7,186.5 176.2,187.2 177.1,187.8 178.4,188.5 180.0,189.2 181.7,189.9 183.6,190.6 185.4,191.3 187.1,192.0 188.7,192.7 190.1,193.4 191.2,194.1 192.1,194.8 192.7,195.5 193.1,196.2 193.2,196.9 193.0,197.6 192.5,198.3 191.8,199.0 190.9,199.6 189.8,200.3 188.5,201.0 187.0,201.7 185.4,202.4 183.7,203.1 182.0,203.8 180.2,204.5 178.3,205.2 176.4,205.9 174.5,206.6 172.5,207.3 170.5,208.0 168.4,208.7 166.3,209.4 164.4,210.1 162.5,210.8 160.9,211.4 159.6,212.1 158.8,212.8 158.4,213.5 158.5,214.2 159.1,214.9 160.2,215.6 161.7,216.3 163.5,217.0 165.6,217.7 167.8,218.4 170.2,219.1 172.5,219.8 174.9,220.5 177.2,221.2 179.4,221.9 181.6,222.6 183.6,223.2 185.5,223.9 187.2,224.6 188.8,225.3 190.3,226.0 191.5,226.7 192.6,227.4 193.5,228.1 194.3,228.8" fill="#2a8" opacity="0.5" stroke="#2a8" stroke-width="1"/>
<line x1="160.2" y1="211.83084420299932" x2="233.2" y2="211.83084420299932" stroke="#114" stroke-width="2"/>
<circle cx="196.66666666666669" cy="220.41301740903438" r="2.4" fill="#114"/>
<text x="196.66666666666669" y="178.51198586112412" text-anchor="middle" font-size="11">1.06</text>
<text x="196.66666666666669" y="376" text-anchor="middle" font-size="12">gemvT</text>
<polygon points="287.8,231.9 287.8,231.1 287.9,230.2 287.9,229.4 288.0,228.5 288.1,227.7 288.3,226.9 288.5,226.0 288.8,225.2 289.4,224.3 290.4,223.5 292.0,222.7 294.2,221.8 296.9,221.0 299.9,220.1 302.6,219.3 304.8,218.5 306.2,217.6 307.0,216.8 307.6,215.9 308.8,215.1 310.9,214.2 313.9,213.4 317.5,212.6 321.1,211.7 324.0,210.9 325.7,210.0 326.0,209.2 325.3,208.4 323.9,207.5 322.3,206.7 320.9,205.8 319.4,205.0 317.8,204.2 315.5,203.3 312.4,202.5 308.7,201.6 304.8,200.8 301.2,200.0 298.5,199.1 296.9,198.3 296.5,197.4 297.2,196.6 298.7,195.8 300.4,194.9 301.7,194.1 302.3,193.2 301.8,192.4 300.4,191.6 298.4,190.7 296.1,189.9 293.9,189.0 292.0,188.2 290.6,187.3 289.7,186.5 289.1,185.7 288.7,184.8 288.5,184.0 288.5,183.1 288.4,182.3 288.4,181.5 288.5,180.6 288.5,179.8 288.4,178.9 288.4,178.1 288.3,177.3 288.2,176.4 288.1,175.6 288.0,174.7 287.9,173.9 287.8,173.1 287.8,172.2 287.7,172.2 287.7,173.1 287.7,173.9 287.6,174.7 287.5,175.6 287.4,176.4 287.3,177.3 287.2,178.1 287.1,178.9 287.1,179.8 287.1,180.6 287.1,181.5 287.1,182.3 287.1,183.1 287.0,184.0 286.8,184.8 286.5,185.7 285.9,186.5 284.9,187.3 283.5,188.2 281.7,189.0 279.5,189.9 277.2,190.7 275.1,191.6 273.7,192.4 273.3,193.2 273.8,194.1 275.2,194.9 276.9,195.8 278.3,196.6 279.0,197.4 278.7,198.3 277.1,199.1 274.4,200.0 270.8,200.8 266.8,201.6 263.1,202.5 260.1,203.3 257.8,204.2 256.1,205.0 254.7,205.8 253.2,206.7 251.6,207.5 250.2,208.4 249.5,209.2 249.9,210.0 251.6,210.9 254.5,211.7 258.0,212.6 261.7,213.4 264.7,214.2 266.7,215.1 267.9,215.9 268.6,216.8 269.4,217.6 270.8,218.5 272.9,219.3 275.7,220.1 278.7,221.0 281.4,221.8 283.6,222.7 285.2,223.5 286.2,224.3 286.8,225.2 287.1,226.0 287.3,226.9 287.4,227.7 287.5,228.5 287.6,229.4 287.7,230.2 287.7,231.1 287.7,231.9" fill="#2a8" opacity="0.5" stroke="#2a8" stroke-width="1"/>
<line x1="250.2" y1="208.39536374931438" x2="325.3" y2="208.39536374931438" stroke="#114" stroke-width="2"/>
<circle cx="287.77777777777777" cy="218.03811870638438" r="2.4" fill="#114"/>
<text x="287.77777777777777" y="172.21300758431894" text-anchor="middle" font-size="11">1.09</text>
<text x="287.77777777777777" y="376" text-anchor="middle" font-size="12">ger</text>
<polygon points="380.2,211.1 381.1,210.1 382.5,209.1 384.5,208.1 387.2,207.1 390.7,206.2 394.8,205.2 399.5,204.2 404.4,203.2 409.1,202.2 413.0,201.2 415.8,200.3 417.2,199.3 416.9,198.3 415.1,197.3 412.2,196.3 408.7,195.3 405.0,194.3 401.9,193.4 399.6,192.4 398.6,191.4 398.8,190.4 400.3,189.4 402.6,188.4 405.3,187.5 407.8,186.5 409.6,185.5 410.3,184.5 409.7,183.5 408.1,182.5 405.8,181.5 403.3,180.6 401.0,179.6 399.2,178.6 398.0,177.6 397.4,176.6 397.1,175.6 397.0,174.7 396.9,173.7 396.9,172.7 396.8,171.7 396.8,170.7 396.8,169.7 396.7,168.8 396.3,167.8 395.6,166.8 394.4,165.8 392.8,164.8 390.9,163.8 388.8,162.8 386.7,161.9 384.8,160.9 383.1,159.9 381.8,158.9 380.9,157.9 380.2,156.9 379.8,156.0 379.6,155.0 379.5,154.0 379.5,153.0 379.5,152.0 379.5,151.0 379.5,150.0 379.5,149.1 379.4,148.1 379.4,147.1 379.3,146.1 379.2,145.1 379.1,144.1 379.1,143.2 379.0,142.2 379.0,141.2 378.8,141.2 378.8,142.2 378.7,143.2 378.6,144.1 378.6,145.1 378.5,146.1 378.4,147.1 378.4,148.1 378.3,149.1 378.3,150.0 378.3,151.0 378.3,152.0 378.3,153.0 378.3,154.0 378.2,155.0 377.9,156.0 377.5,156.9 376.9,157.9 375.9,158.9 374.6,159.9 373.0,160.9 371.1,161.9 369.0,162.8 366.9,163.8 364.9,164.8 363.3,165.8 362.2,166.8 361.5,167.8 361.1,168.8 361.0,169.7 361.0,170.7 361.0,171.7 360.9,172.7 360.9,173.7 360.8,174.7 360.7,175.6 360.4,176.6 359.8,177.6 358.6,178.6 356.8,179.6 354.5,180.6 352.0,181.5 349.7,182.5 348.0,183.5 347.5,184.5 348.2,185.5 349.9,186.5 352.4,187.5 355.1,188.4 357.5,189.4 358.9,190.4 359.2,191.4 358.2,192.4 355.9,193.4 352.8,194.3 349.1,195.3 345.6,196.3 342.7,197.3 340.9,198.3 340.6,199.3 341.9,200.3 344.7,201.2 348.7,202.2 353.4,203.2 358.3,204.2 362.9,205.2 367.1,206.2 370.6,207.1 373.3,208.1 375.3,209.1 376.7,210.1 377.6,211.1" fill="#2a8" opacity="0.5" stroke="#2a8" stroke-width="1"/>
<line x1="347.6" y1="184.92885174140568" x2="410.1" y2="184.92885174140568" stroke="#114" stroke-width="2"/>
<circle cx="378.8888888888889" cy="200.7805364171702" r="2.4" fill="#114"/>
<text x="378.8888888888889" y="142.17197636603402" text-anchor="middle" font-size="11">1.26</text>
<text x="378.8888888888889" y="376" text-anchor="middle" font-size="12">symv</text>
<polygon points="473.5,223.7 474.9,222.7 476.5,221.7 478.5,220.7 480.8,219.7 483.2,218.7 485.8,217.7 488.3,216.7 490.6,215.7 492.6,214.7 494.1,213.7 495.2,212.7 495.8,211.7 496.0,210.7 495.8,209.7 495.5,208.7 495.3,207.7 495.3,206.7 495.7,205.7 496.6,204.7 498.0,203.7 499.8,202.7 501.9,201.7 504.1,200.7 506.0,199.7 507.5,198.7 508.3,197.7 508.2,196.7 507.2,195.7 505.5,194.7 503.1,193.7 500.2,192.7 497.3,191.7 494.4,190.8 491.9,189.8 489.8,188.8 488.2,187.8 487.0,186.8 486.2,185.8 485.6,184.8 485.0,183.8 484.4,182.8 483.6,181.8 482.6,180.8 481.4,179.8 480.1,178.8 478.8,177.8 477.5,176.8 476.4,175.8 475.6,174.8 475.0,173.8 474.9,172.8 475.1,171.8 475.8,170.8 476.7,169.8 477.9,168.8 479.2,167.8 480.5,166.8 481.6,165.8 482.5,164.8 483.1,163.8 483.2,162.8 482.9,161.8 482.1,160.8 481.1,159.8 479.7,158.8 478.3,157.8 476.8,156.8 475.4,155.8 474.2,154.8 473.1,153.8 472.2,152.8 467.8,152.8 466.9,153.8 465.8,154.8 464.6,155.8 463.2,156.8 461.7,157.8 460.3,158.8 458.9,159.8 457.9,160.8 457.1,161.8 456.8,162.8 456.9,163.8 457.5,164.8 458.4,165.8 459.5,166.8 460.8,167.8 462.1,168.8 463.3,169.8 464.2,170.8 464.9,171.8 465.1,172.8 465.0,173.8 464.4,174.8 463.6,175.8 462.5,176.8 461.2,177.8 459.9,178.8 458.6,179.8 457.4,180.8 456.4,181.8 455.6,182.8 455.0,183.8 454.4,184.8 453.8,185.8 453.0,186.8 451.8,187.8 450.2,188.8 448.1,189.8 445.6,190.8 442.7,191.7 439.8,192.7 436.9,193.7 434.5,194.7 432.8,195.7 431.8,196.7 431.7,197.7 432.5,198.7 434.0,199.7 435.9,200.7 438.1,201.7 440.2,202.7 442.0,203.7 443.4,204.7 444.3,205.7 444.7,206.7 444.7,207.7 444.5,208.7 444.2,209.7 444.0,210.7 444.2,211.7 444.8,212.7 445.9,213.7 447.4,214.7 449.4,215.7 451.7,216.7 454.2,217.7 456.8,218.7 459.2,219.7 461.5,220.7 463.5,221.7 465.1,222.7 466.5,223.7" fill="#2a8" opacity="0.5" stroke="#2a8" stroke-width="1"/>
<line x1="432.0" y1="196.43856045607214" x2="508.0" y2="196.43856045607214" stroke="#114" stroke-width="2"/>
<circle cx="470.0" cy="214.54848149450592" r="2.4" fill="#114"/>
<text x="470.0" y="153.91493414699698" text-anchor="middle" font-size="11">1.17</text>
<text x="470.0" y="376" text-anchor="middle" font-size="12">trmv</text>
<polygon points="561.8,223.7 562.2,223.1 562.9,222.5 563.9,222.0 565.2,221.4 567.0,220.8 569.1,220.2 571.5,219.6 574.1,219.0 576.6,218.5 578.9,217.9 580.7,217.3 581.8,216.7 582.2,216.1 581.9,215.5 581.1,215.0 579.8,214.4 578.4,213.8 577.0,213.2 575.9,212.6 575.0,212.0 574.6,211.5 574.6,210.9 574.9,210.3 575.3,209.7 575.7,209.1 576.0,208.5 576.1,208.0 576.0,207.4 575.8,206.8 575.7,206.2 576.0,205.6 576.8,205.1 578.3,204.5 580.7,203.9 583.7,203.3 587.3,202.7 591.0,202.1 594.5,201.6 597.2,201.0 598.9,200.4 599.4,199.8 598.6,199.2 596.8,198.6 594.3,198.1 591.3,197.5 588.2,196.9 585.2,196.3 582.5,195.7 580.0,195.1 577.7,194.6 575.6,194.0 573.5,193.4 571.5,192.8 569.6,192.2 567.9,191.6 566.4,191.1 565.2,190.5 564.2,189.9 563.5,189.3 563.0,188.7 562.6,188.1 562.4,187.6 562.2,187.0 562.0,186.4 561.9,185.8 561.7,185.2 561.6,184.6 561.5,184.1 561.4,183.5 561.3,182.9 561.2,182.3 561.0,182.3 560.9,182.9 560.8,183.5 560.7,184.1 560.6,184.6 560.5,185.2 560.4,185.8 560.2,186.4 560.0,187.0 559.9,187.6 559.6,188.1 559.2,188.7 558.7,189.3 558.0,189.9 557.1,190.5 555.8,191.1 554.3,191.6 552.6,192.2 550.7,192.8 548.7,193.4 546.7,194.0 544.5,194.6 542.2,195.1 539.7,195.7 537.0,196.3 534.0,196.9 530.9,197.5 528.0,198.1 525.4,198.6 523.6,199.2 522.8,199.8 523.3,200.4 525.0,201.0 527.8,201.6 531.2,202.1 534.9,202.7 538.5,203.3 541.5,203.9 543.9,204.5 545.4,205.1 546.2,205.6 546.5,206.2 546.4,206.8 546.2,207.4 546.1,208.0 546.2,208.5 546.5,209.1 546.9,209.7 547.4,210.3 547.6,210.9 547.6,211.5 547.2,212.0 546.4,212.6 545.2,213.2 543.8,213.8 542.4,214.4 541.1,215.0 540.3,215.5 540.0,216.1 540.4,216.7 541.6,217.3 543.3,217.9 545.6,218.5 548.1,219.0 550.7,219.6 553.1,220.2 555.3,220.8 557.0,221.4 558.3,222.0 559.3,222.5 560.0,223.1 560.5,223.7" fill="#2a8" opacity="0.5" stroke="#2a8" stroke-width="1"/>
<line x1="527.9" y1="201.57279475969108" x2="594.3" y2="201.57279475969108" stroke="#114" stroke-width="2"/>
<circle cx="561.1111111111111" cy="216.98593882729844" r="2.4" fill="#114"/>
<text x="561.1111111111111" y="180.53686358199536" text-anchor="middle" font-size="11">1.14</text>
<text x="561.1111111111111" y="376" text-anchor="middle" font-size="12">trsv</text>
<polygon points="658.5,221.9 659.9,220.2 661.3,218.5 662.6,216.8 663.8,215.1 664.8,213.4 665.4,211.7 665.8,210.0 665.8,208.3 665.5,206.6 665.0,204.9 664.3,203.2 663.6,201.5 663.0,199.8 662.5,198.1 662.3,196.4 662.3,194.7 662.6,193.0 663.1,191.3 663.7,189.6 664.4,187.9 665.0,186.2 665.5,184.5 665.8,182.8 665.7,181.1 665.5,179.4 665.0,177.7 664.4,176.0 663.7,174.3 663.2,172.6 662.8,170.9 662.8,169.2 663.3,167.5 664.2,165.8 665.5,164.1 667.4,162.4 669.6,160.7 672.2,159.0 674.9,157.3 677.6,155.6 680.2,153.8 682.7,152.1 684.9,150.4 686.7,148.7 688.2,147.0 689.3,145.3 690.1,143.6 690.5,141.9 690.5,140.2 690.2,138.5 689.5,136.8 688.6,135.1 687.3,133.4 685.8,131.7 684.2,130.0 682.4,128.3 680.6,126.6 678.8,124.9 677.1,123.2 675.6,121.5 674.1,119.8 672.7,118.1 671.3,116.4 669.9,114.7 668.4,113.0 666.9,111.3 665.3,109.6 663.7,107.9 662.0,106.2 660.4,104.5 658.9,102.8 657.6,101.1 646.9,101.1 645.5,102.8 644.0,104.5 642.4,106.2 640.8,107.9 639.1,109.6 637.5,111.3 636.0,113.0 634.6,114.7 633.2,116.4 631.8,118.1 630.4,119.8 628.9,121.5 627.3,123.2 625.6,124.9 623.9,126.6 622.1,128.3 620.3,130.0 618.6,131.7 617.1,133.4 615.9,135.1 614.9,136.8 614.3,138.5 614.0,140.2 614.0,141.9 614.4,143.6 615.1,145.3 616.2,147.0 617.7,148.7 619.6,150.4 621.7,152.1 624.2,153.8 626.9,155.6 629.6,157.3 632.3,159.0 634.8,160.7 637.1,162.4 638.9,164.1 640.3,165.8 641.2,167.5 641.6,169.2 641.6,170.9 641.3,172.6 640.7,174.3 640.1,176.0 639.4,177.7 639.0,179.4 638.7,181.1 638.7,182.8 638.9,184.5 639.4,186.2 640.0,187.9 640.7,189.6 641.4,191.3 641.9,193.0 642.1,194.7 642.2,196.4 641.9,198.1 641.5,199.8 640.8,201.5 640.1,203.2 639.5,204.9 638.9,206.6 638.6,208.3 638.7,210.0 639.0,211.7 639.7,213.4 640.7,215.1 641.8,216.8 643.2,218.5 644.5,220.2 645.9,221.9" fill="#2a8" opacity="0.5" stroke="#2a8" stroke-width="1"/>
<line x1="616.2" y1="146.99041069101884" x2="688.2" y2="146.99041069101884" stroke="#114" stroke-width="2"/>
<circle cx="652.2222222222223" cy="209.87170922406577" r="2.4" fill="#114"/>
<text x="652.2222222222223" y="107.01118050257976" text-anchor="middle" font-size="11">1.53</text>
<text x="652.2222222222223" y="376" text-anchor="middle" font-size="12">spmv</text>
<polygon points="743.3,191.9 743.4,190.6 743.4,189.4 743.5,188.1 743.6,186.9 743.7,185.7 743.8,184.4 744.0,183.2 744.1,182.0 744.1,180.7 744.2,179.5 744.4,178.3 744.8,177.0 745.5,175.8 747.0,174.6 749.5,173.3 753.4,172.1 758.9,170.9 765.5,169.6 772.2,168.4 777.9,167.2 781.3,165.9 781.6,164.7 778.8,163.4 773.7,162.2 767.4,161.0 761.2,159.7 755.9,158.5 752.1,157.3 750.0,156.0 749.2,154.8 749.6,153.6 750.5,152.3 751.5,151.1 752.1,149.9 751.9,148.6 751.1,147.4 749.9,146.2 748.8,144.9 747.8,143.7 747.2,142.5 746.7,141.2 746.2,140.0 745.8,138.7 745.3,137.5 744.9,136.3 744.5,135.0 744.2,133.8 744.0,132.6 743.8,131.3 743.7,130.1 743.7,128.9 743.6,127.6 743.6,126.4 743.6,125.2 743.7,123.9 743.7,122.7 743.8,121.5 743.8,120.2 743.9,119.0 744.0,117.8 744.1,116.5 744.2,115.3 744.2,114.1 744.2,112.8 744.1,111.6 743.9,110.3 743.7,109.1 743.6,107.9 743.5,106.6 743.4,105.4 743.4,104.2 743.3,104.2 743.3,105.4 743.2,106.6 743.1,107.9 742.9,109.1 742.8,110.3 742.6,111.6 742.5,112.8 742.4,114.1 742.5,115.3 742.6,116.5 742.7,117.8 742.8,119.0 742.9,120.2 742.9,121.5 743.0,122.7 743.0,123.9 743.0,125.2 743.0,126.4 743.0,127.6 743.0,128.9 742.9,130.1 742.8,131.3 742.7,132.6 742.5,133.8 742.2,135.0 741.8,136.3 741.4,137.5 740.9,138.7 740.4,140.0 740.0,141.2 739.5,142.5 738.8,143.7 737.9,144.9 736.7,146.2 735.6,147.4 734.7,148.6 734.6,149.9 735.1,151.1 736.1,152.3 737.1,153.6 737.5,154.8 736.7,156.0 734.5,157.3 730.7,158.5 725.5,159.7 719.2,161.0 713.0,162.2 707.8,163.4 705.1,164.7 705.4,165.9 708.7,167.2 714.4,168.4 721.2,169.6 727.8,170.9 733.2,172.1 737.1,173.3 739.7,174.6 741.1,175.8 741.9,177.0 742.3,178.3 742.4,179.5 742.5,180.7 742.6,182.0 742.7,183.2 742.8,184.4 743.0,185.7 743.1,186.9 743.2,188.1 743.3,189.4 743.3,190.6 743.3,191.9" fill="#2a8" opacity="0.5" stroke="#2a8" stroke-width="1"/>
<line x1="706.9" y1="163.74047053661857" x2="779.7" y2="163.74047053661857" stroke="#114" stroke-width="2"/>
<circle cx="743.3333333333334" cy="166.90166215340616" r="2.4" fill="#114"/>
<text x="743.3333333333334" y="106.87896661262944" text-anchor="middle" font-size="11">1.41</text>
<text x="743.3333333333334" y="376" text-anchor="middle" font-size="12">gbmvN</text>
<polygon points="834.4,233.7 834.5,232.7 834.5,231.8 834.5,230.8 834.6,229.8 834.6,228.8 834.7,227.9 834.7,226.9 834.7,225.9 834.7,225.0 834.7,224.0 834.7,223.0 834.7,222.0 834.7,221.1 834.7,220.1 834.7,219.1 834.8,218.2 834.9,217.2 834.9,216.2 835.0,215.3 835.1,214.3 835.3,213.3 835.6,212.3 836.2,211.4 837.4,210.4 839.3,209.4 842.7,208.5 847.7,207.5 854.2,206.5 861.4,205.5 867.7,204.6 871.8,203.6 872.7,202.6 870.6,201.7 866.4,200.7 861.2,199.7 856.1,198.7 851.9,197.8 848.9,196.8 847.0,195.8 845.8,194.9 844.9,193.9 843.8,192.9 842.6,192.0 841.4,191.0 840.4,190.0 840.0,189.0 840.2,188.1 841.0,187.1 841.9,186.1 842.4,185.2 842.2,184.2 841.3,183.2 839.9,182.2 838.5,181.3 837.3,180.3 836.5,179.3 835.9,178.4 835.6,177.4 835.3,176.4 835.2,175.4 835.1,174.5 835.0,173.5 834.9,172.5 834.9,171.6 834.8,170.6 834.7,169.6 834.6,168.7 834.5,167.7 834.5,166.7 834.5,165.7 834.5,164.8 834.4,164.8 834.4,165.7 834.4,166.7 834.4,167.7 834.3,168.7 834.2,169.6 834.1,170.6 834.0,171.6 833.9,172.5 833.9,173.5 833.8,174.5 833.7,175.4 833.6,176.4 833.3,177.4 832.9,178.4 832.4,179.3 831.6,180.3 830.4,181.3 829.0,182.2 827.6,183.2 826.7,184.2 826.4,185.2 827.0,186.1 827.9,187.1 828.7,188.1 828.9,189.0 828.5,190.0 827.5,191.0 826.2,192.0 825.0,192.9 824.0,193.9 823.1,194.9 821.9,195.8 820.0,196.8 817.0,197.8 812.8,198.7 807.7,199.7 802.5,200.7 798.3,201.7 796.2,202.6 797.1,203.6 801.2,204.6 807.5,205.5 814.7,206.5 821.2,207.5 826.2,208.5 829.5,209.4 831.5,210.4 832.6,211.4 833.2,212.3 833.6,213.3 833.8,214.3 833.9,215.3 833.9,216.2 834.0,217.2 834.1,218.2 834.1,219.1 834.2,220.1 834.2,221.1 834.2,222.0 834.2,223.0 834.2,224.0 834.2,225.0 834.2,225.9 834.2,226.9 834.2,227.9 834.3,228.8 834.3,229.8 834.4,230.8 834.4,231.8 834.4,232.7 834.4,233.7" fill="#2a8" opacity="0.5" stroke="#2a8" stroke-width="1"/>
<line x1="798.1" y1="201.69778598538565" x2="870.7" y2="201.69778598538565" stroke="#114" stroke-width="2"/>
<circle cx="834.4444444444445" cy="203.89473928015033" r="2.4" fill="#114"/>
<text x="834.4444444444445" y="165.65983143062942" text-anchor="middle" font-size="11">1.14</text>
<text x="834.4444444444445" y="376" text-anchor="middle" font-size="12">sbmv</text>
<text x="450.0" y="428" text-anchor="middle" font-size="11" fill="#666">violin = ratio distribution over sizes · line = median · dark dot = worst size · green = every size ≥ gate</text>
</svg>
