<svg xmlns="http://www.w3.org/2000/svg" width="900" height="440" font-family="sans-serif">
<rect width="900" height="440" fill="white"/>
<text x="450.0" y="28" text-anchor="middle" font-size="18" font-weight="bold">Complex BLAS-1: PureBLAS / OpenBLAS (AVX-512, 1 thread, ComplexF64)</text>
<line x1="60" y1="358.0" x2="880" y2="358.0" stroke="#eee"/>
<text x="52" y="362.0" text-anchor="end" font-size="11" fill="#666">0×</text>
<line x1="60" y1="346.5822575565035" x2="880" y2="346.5822575565035" stroke="#eee"/>
<text x="52" y="350.5822575565035" text-anchor="end" font-size="11" fill="#666">0.5×</text>
<line x1="60" y1="335.16451511300704" x2="880" y2="335.16451511300704" stroke="#eee"/>
<text x="52" y="339.16451511300704" text-anchor="end" font-size="11" fill="#666">1×</text>
<line x1="60" y1="323.74677266951056" x2="880" y2="323.74677266951056" stroke="#eee"/>
<text x="52" y="327.74677266951056" text-anchor="end" font-size="11" fill="#666">1.5×</text>
<line x1="60" y1="335.16451511300704" x2="880" y2="335.16451511300704" stroke="#888" stroke-width="1"/>
<line x1="60" y1="336.07793450848675" x2="880" y2="336.07793450848675" stroke="#d33" stroke-width="1.5" stroke-dasharray="6 4"/>
<text x="880" y="331.07793450848675" text-anchor="end" font-size="11" fill="#d33">0.96× gate</text>
<polygon points="142.0,344.5 142.0,344.3 142.1,344.0 142.2,343.7 142.4,343.5 142.6,343.2 142.8,342.9 142.9,342.7 142.8,342.4 142.6,342.2 142.4,341.9 142.2,341.6 142.1,341.4 142.1,341.1 142.1,340.8 142.2,340.6 142.5,340.3 142.8,340.1 143.2,339.8 143.8,339.5 144.4,339.3 145.1,339.0 145.7,338.7 146.1,338.5 146.0,338.2 145.8,338.0 145.6,337.7 146.0,337.4 147.6,337.2 150.9,336.9 156.5,336.6 164.7,336.4 175.3,336.1 187.3,335.9 198.6,335.6 207.1,335.3 210.9,335.1 209.8,334.8 204.7,334.5 197.2,334.3 188.4,334.0 179.2,333.8 170.5,333.5 162.9,333.2 157.0,333.0 152.8,332.7 150.0,332.4 148.1,332.2 146.6,331.9 145.5,331.7 144.6,331.4 143.9,331.1 143.5,330.9 143.2,330.6 143.1,330.3 143.0,330.1 143.0,329.8 143.0,329.6 142.9,329.3 142.8,329.0 142.7,328.8 142.7,328.5 142.7,328.2 142.9,328.0 142.9,327.7 142.8,327.5 142.6,327.2 142.4,326.9 142.2,326.7 142.1,326.4 142.0,326.1 142.0,325.9 142.0,325.9 142.0,326.1 141.9,326.4 141.8,326.7 141.6,326.9 141.4,327.2 141.2,327.5 141.1,327.7 141.1,328.0 141.3,328.2 141.3,328.5 141.3,328.8 141.2,329.0 141.1,329.3 141.0,329.6 141.0,329.8 141.0,330.1 140.9,330.3 140.8,330.6 140.5,330.9 140.1,331.1 139.4,331.4 138.5,331.7 137.4,331.9 135.9,332.2 134.0,332.4 131.2,332.7 127.0,333.0 121.1,333.2 113.5,333.5 104.8,333.8 95.6,334.0 86.8,334.3 79.3,334.5 74.2,334.8 73.1,335.1 76.9,335.3 85.4,335.6 96.7,335.9 108.7,336.1 119.3,336.4 127.5,336.6 133.1,336.9 136.4,337.2 138.0,337.4 138.4,337.7 138.2,338.0 138.0,338.2 137.9,338.5 138.3,338.7 138.9,339.0 139.6,339.3 140.2,339.5 140.8,339.8 141.2,340.1 141.5,340.3 141.8,340.6 141.9,340.8 141.9,341.1 141.9,341.4 141.8,341.6 141.6,341.9 141.4,342.2 141.2,342.4 141.1,342.7 141.2,342.9 141.4,343.2 141.6,343.5 141.8,343.7 141.9,344.0 142.0,344.3 142.0,344.5" fill="#2a8" opacity="0.5" stroke="#2a8" stroke-width="1"/>
<line x1="73.0" y1="334.96185659010956" x2="211.0" y2="334.96185659010956" stroke="#114" stroke-width="2"/>
<circle cx="142.0" cy="335.3319325137619" r="2.4" fill="#114"/>
<text x="142.0" y="321.7184927183149" text-anchor="middle" font-size="11">1.01</text>
<text x="142.0" y="376" text-anchor="middle" font-size="12">zaxpy</text>
<polygon points="306.7,338.5 307.2,338.3 308.0,338.1 309.1,337.9 310.5,337.7 312.0,337.5 313.6,337.3 315.1,337.0 316.5,336.8 317.9,336.6 319.3,336.4 321.0,336.2 323.3,336.0 326.2,335.8 329.8,335.5 334.3,335.3 339.4,335.1 345.2,334.9 351.3,334.7 357.4,334.5 363.3,334.3 368.3,334.0 372.0,333.8 374.2,333.6 374.9,333.4 374.5,333.2 373.5,333.0 372.4,332.8 371.4,332.5 370.5,332.3 369.3,332.1 367.5,331.9 364.8,331.7 361.3,331.5 357.3,331.3 352.9,331.0 348.4,330.8 343.9,330.6 339.2,330.4 334.5,330.2 329.8,330.0 325.3,329.8 321.0,329.5 317.3,329.3 314.3,329.1 311.9,328.9 310.1,328.7 309.0,328.5 308.3,328.3 307.9,328.0 307.7,327.8 307.5,327.6 307.4,327.4 307.2,327.2 306.9,327.0 306.7,326.8 306.6,326.5 306.5,326.3 306.5,326.1 306.6,325.9 306.7,325.7 306.9,325.5 307.1,325.3 307.3,325.0 307.3,324.8 307.2,324.6 307.1,324.4 306.9,324.2 306.7,324.0 306.5,323.8 306.3,323.5 306.2,323.3 305.8,323.3 305.7,323.5 305.5,323.8 305.3,324.0 305.1,324.2 304.9,324.4 304.8,324.6 304.7,324.8 304.7,325.0 304.9,325.3 305.1,325.5 305.3,325.7 305.4,325.9 305.5,326.1 305.5,326.3 305.4,326.5 305.3,326.8 305.1,327.0 304.8,327.2 304.6,327.4 304.5,327.6 304.3,327.8 304.1,328.0 303.7,328.3 303.0,328.5 301.9,328.7 300.1,328.9 297.7,329.1 294.7,329.3 291.0,329.5 286.7,329.8 282.2,330.0 277.5,330.2 272.8,330.4 268.1,330.6 263.6,330.8 259.1,331.0 254.7,331.3 250.7,331.5 247.2,331.7 244.5,331.9 242.7,332.1 241.5,332.3 240.6,332.5 239.6,332.8 238.5,333.0 237.5,333.2 237.1,333.4 237.8,333.6 240.0,333.8 243.7,334.0 248.7,334.3 254.6,334.5 260.7,334.7 266.8,334.9 272.6,335.1 277.7,335.3 282.2,335.5 285.8,335.8 288.7,336.0 291.0,336.2 292.7,336.4 294.1,336.6 295.5,336.8 296.9,337.0 298.4,337.3 300.0,337.5 301.5,337.7 302.9,337.9 304.0,338.1 304.8,338.3 305.3,338.5" fill="#2a8" opacity="0.5" stroke="#2a8" stroke-width="1"/>
<line x1="238.5" y1="332.97590564032134" x2="373.5" y2="332.97590564032134" stroke="#114" stroke-width="2"/>
<circle cx="306.0" cy="334.83532795013673" r="2.4" fill="#114"/>
<text x="306.0" y="318.8431088288186" text-anchor="middle" font-size="11">1.10</text>
<text x="306.0" y="376" text-anchor="middle" font-size="12">zdotc</text>
<polygon points="470.0,342.9 470.1,342.6 470.2,342.3 470.4,342.0 470.7,341.7 471.0,341.4 471.4,341.2 471.7,340.9 471.9,340.6 471.8,340.3 471.7,340.0 471.5,339.7 471.3,339.4 471.0,339.2 470.9,338.9 470.9,338.6 471.1,338.3 471.8,338.0 472.8,337.7 474.4,337.5 476.7,337.2 479.8,336.9 484.3,336.6 490.5,336.3 499.0,336.0 509.5,335.8 520.8,335.5 530.9,335.2 537.5,334.9 538.9,334.6 535.2,334.3 527.9,334.1 519.0,333.8 510.0,333.5 501.9,333.2 494.8,332.9 488.7,332.6 483.7,332.4 479.9,332.1 477.1,331.8 475.1,331.5 473.7,331.2 472.8,330.9 472.1,330.7 471.8,330.4 471.6,330.1 471.6,329.8 471.5,329.5 471.4,329.2 471.1,329.0 470.8,328.7 470.6,328.4 470.3,328.1 470.2,327.8 470.1,327.5 470.0,327.3 470.0,327.0 470.1,326.7 470.2,326.4 470.4,326.1 470.7,325.8 471.1,325.6 471.4,325.3 471.6,325.0 471.5,324.7 471.3,324.4 471.0,324.1 470.6,323.8 470.4,323.6 470.2,323.3 470.1,323.0 470.0,322.7 470.0,322.7 469.9,323.0 469.8,323.3 469.6,323.6 469.4,323.8 469.0,324.1 468.7,324.4 468.5,324.7 468.4,325.0 468.6,325.3 468.9,325.6 469.3,325.8 469.6,326.1 469.8,326.4 469.9,326.7 470.0,327.0 470.0,327.3 469.9,327.5 469.8,327.8 469.7,328.1 469.4,328.4 469.2,328.7 468.9,329.0 468.6,329.2 468.5,329.5 468.4,329.8 468.4,330.1 468.2,330.4 467.9,330.7 467.2,330.9 466.3,331.2 464.9,331.5 462.9,331.8 460.1,332.1 456.3,332.4 451.3,332.6 445.2,332.9 438.1,333.2 430.0,333.5 421.0,333.8 412.1,334.1 404.8,334.3 401.1,334.6 402.5,334.9 409.1,335.2 419.2,335.5 430.5,335.8 441.0,336.0 449.5,336.3 455.7,336.6 460.2,336.9 463.3,337.2 465.6,337.5 467.2,337.7 468.2,338.0 468.9,338.3 469.1,338.6 469.1,338.9 469.0,339.2 468.7,339.4 468.5,339.7 468.3,340.0 468.2,340.3 468.1,340.6 468.3,340.9 468.6,341.2 469.0,341.4 469.3,341.7 469.6,342.0 469.8,342.3 469.9,342.6 470.0,342.9" fill="#2a8" opacity="0.5" stroke="#2a8" stroke-width="1"/>
<line x1="401.0" y1="334.67495548769796" x2="539.0" y2="334.67495548769796" stroke="#114" stroke-width="2"/>
<circle cx="470.0" cy="334.85987333701485" r="2.4" fill="#114"/>
<text x="470.0" y="318.7010507913534" text-anchor="middle" font-size="11">1.02</text>
<text x="470.0" y="376" text-anchor="middle" font-size="12">zscal</text>
<polygon points="637.8,321.0 640.1,317.1 643.5,313.3 648.0,309.5 653.7,305.7 660.5,301.9 668.2,298.1 676.3,294.2 684.2,290.4 691.2,286.6 696.7,282.8 700.5,279.0 702.5,275.2 702.9,271.3 702.1,267.5 700.6,263.7 699.1,259.9 697.8,256.1 696.9,252.3 696.5,248.5 696.3,244.6 696.1,240.8 695.6,237.0 694.7,233.2 693.2,229.4 691.2,225.6 688.8,221.7 686.0,217.9 683.1,214.1 680.1,210.3 677.0,206.5 673.9,202.7 670.9,198.8 667.9,195.0 665.1,191.2 662.5,187.4 660.1,183.6 657.9,179.8 655.9,175.9 654.1,172.1 652.3,168.3 650.5,164.5 648.9,160.7 647.3,156.9 645.9,153.0 644.6,149.2 643.5,145.4 642.6,141.6 641.7,137.8 641.0,134.0 640.2,130.1 639.5,126.3 638.8,122.5 638.1,118.7 637.4,114.9 636.8,111.1 636.2,107.2 635.7,103.4 635.4,99.6 635.2,95.8 635.0,92.0 635.0,88.2 635.0,84.3 635.1,80.5 635.2,76.7 635.3,72.9 635.3,69.1 635.3,65.3 635.2,61.4 635.1,57.6 634.9,53.8 634.7,50.0 633.3,50.0 633.1,53.8 632.9,57.6 632.8,61.4 632.7,65.3 632.7,69.1 632.7,72.9 632.8,76.7 632.9,80.5 633.0,84.3 633.0,88.2 633.0,92.0 632.8,95.8 632.6,99.6 632.3,103.4 631.8,107.2 631.2,111.1 630.6,114.9 629.9,118.7 629.2,122.5 628.5,126.3 627.8,130.1 627.0,134.0 626.3,137.8 625.4,141.6 624.5,145.4 623.4,149.2 622.1,153.0 620.7,156.9 619.1,160.7 617.5,164.5 615.7,168.3 613.9,172.1 612.1,175.9 610.1,179.8 607.9,183.6 605.5,187.4 602.9,191.2 600.1,195.0 597.1,198.8 594.1,202.7 591.0,206.5 587.9,210.3 584.9,214.1 582.0,217.9 579.2,221.7 576.8,225.6 574.8,229.4 573.3,233.2 572.4,237.0 571.9,240.8 571.7,244.6 571.5,248.5 571.1,252.3 570.2,256.1 568.9,259.9 567.4,263.7 565.9,267.5 565.1,271.3 565.5,275.2 567.5,279.0 571.3,282.8 576.8,286.6 583.8,290.4 591.7,294.2 599.8,298.1 607.5,301.9 614.3,305.7 620.0,309.5 624.5,313.3 627.9,317.1 630.2,321.0" fill="#2a8" opacity="0.5" stroke="#2a8" stroke-width="1"/>
<line x1="571.9" y1="240.62469067663724" x2="696.1" y2="240.62469067663724" stroke="#114" stroke-width="2"/>
<circle cx="634.0" cy="281.6123894264533" r="2.4" fill="#114"/>
<text x="634.0" y="61.433962264150935" text-anchor="middle" font-size="11">5.14</text>
<text x="634.0" y="376" text-anchor="middle" font-size="12">dznrm2</text>
<polygon points="798.0,344.0 798.0,343.7 798.1,343.3 798.3,343.0 798.5,342.6 798.8,342.3 799.0,342.0 799.1,341.6 799.1,341.3 799.1,340.9 799.2,340.6 799.7,340.3 800.4,339.9 801.5,339.6 802.9,339.2 804.8,338.9 807.8,338.6 812.6,338.2 820.1,337.9 830.6,337.5 843.1,337.2 855.3,336.9 863.9,336.5 866.9,336.2 864.7,335.8 859.7,335.5 854.9,335.2 851.6,334.8 849.5,334.5 847.2,334.1 843.4,333.8 837.7,333.5 830.5,333.1 822.8,332.8 815.5,332.4 809.4,332.1 805.0,331.8 802.1,331.4 800.5,331.1 799.7,330.7 799.5,330.4 799.6,330.1 799.9,329.7 800.1,329.4 800.0,329.0 799.7,328.7 799.2,328.4 798.7,328.0 798.4,327.7 798.2,327.3 798.1,327.0 798.0,326.7 798.0,326.3 798.0,326.0 798.0,325.6 798.0,325.3 798.0,325.0 798.0,324.6 798.0,324.3 798.1,324.0 798.3,323.6 798.5,323.3 798.7,322.9 799.0,322.6 799.1,322.3 799.0,321.9 798.8,321.6 798.5,321.2 798.3,320.9 798.1,320.6 798.0,320.2 798.0,319.9 798.0,319.9 798.0,320.2 797.9,320.6 797.7,320.9 797.5,321.2 797.2,321.6 797.0,321.9 796.9,322.3 797.0,322.6 797.3,322.9 797.5,323.3 797.7,323.6 797.9,324.0 798.0,324.3 798.0,324.6 798.0,325.0 798.0,325.3 798.0,325.6 798.0,326.0 798.0,326.3 798.0,326.7 797.9,327.0 797.8,327.3 797.6,327.7 797.3,328.0 796.8,328.4 796.3,328.7 796.0,329.0 795.9,329.4 796.1,329.7 796.4,330.1 796.5,330.4 796.3,330.7 795.5,331.1 793.9,331.4 791.0,331.8 786.6,332.1 780.5,332.4 773.2,332.8 765.5,333.1 758.3,333.5 752.6,333.8 748.8,334.1 746.5,334.5 744.4,334.8 741.1,335.2 736.3,335.5 731.3,335.8 729.1,336.2 732.1,336.5 740.7,336.9 752.9,337.2 765.4,337.5 775.9,337.9 783.4,338.2 788.2,338.6 791.2,338.9 793.1,339.2 794.5,339.6 795.6,339.9 796.3,340.3 796.8,340.6 796.9,340.9 796.9,341.3 796.9,341.6 797.0,342.0 797.2,342.3 797.5,342.6 797.7,343.0 797.9,343.3 798.0,343.7 798.0,344.0" fill="#d33" opacity="0.5" stroke="#d33" stroke-width="1"/>
<line x1="733.8" y1="335.65896766888307" x2="862.2" y2="335.65896766888307" stroke="#114" stroke-width="2"/>
<circle cx="798.0" cy="336.6500789773106" r="2.4" fill="#114"/>
<text x="798.0" y="316.2462920282774" text-anchor="middle" font-size="11">0.98</text>
<text x="798.0" y="376" text-anchor="middle" font-size="12">dzasum</text>
<text x="450.0" y="428" text-anchor="middle" font-size="11" fill="#666">violin = ratio distribution over sizes · line = median · dark dot = worst size · green = every size ≥ gate</text>
</svg>
