<svg xmlns="http://www.w3.org/2000/svg" width="900" height="440" font-family="sans-serif">
<rect width="900" height="440" fill="white"/>
<text x="450.0" y="28" text-anchor="middle" font-size="18" font-weight="bold">Complex BLAS-1: PureBLAS / OpenBLAS (AVX2, 1 thread, ComplexF64)</text>
<line x1="60" y1="358.0" x2="880" y2="358.0" stroke="#eee"/>
<text x="52" y="362.0" text-anchor="end" font-size="11" fill="#666">0×</text>
<line x1="60" y1="339.74348389393117" x2="880" y2="339.74348389393117" stroke="#eee"/>
<text x="52" y="343.74348389393117" text-anchor="end" font-size="11" fill="#666">0.5×</text>
<line x1="60" y1="321.48696778786234" x2="880" y2="321.48696778786234" stroke="#eee"/>
<text x="52" y="325.48696778786234" text-anchor="end" font-size="11" fill="#666">1×</text>
<line x1="60" y1="303.2304516817935" x2="880" y2="303.2304516817935" stroke="#eee"/>
<text x="52" y="307.2304516817935" text-anchor="end" font-size="11" fill="#666">1.5×</text>
<line x1="60" y1="321.48696778786234" x2="880" y2="321.48696778786234" stroke="#888" stroke-width="1"/>
<line x1="60" y1="322.94748907634784" x2="880" y2="322.94748907634784" stroke="#d33" stroke-width="1.5" stroke-dasharray="6 4"/>
<text x="880" y="317.94748907634784" text-anchor="end" font-size="11" fill="#d33">0.96× gate</text>
<polygon points="142.6,324.7 142.8,324.5 143.1,324.4 143.5,324.2 144.0,324.1 144.7,323.9 145.6,323.7 146.9,323.6 148.6,323.4 150.7,323.3 153.5,323.1 156.9,323.0 161.0,322.8 165.8,322.7 171.2,322.5 177.2,322.4 183.5,322.2 189.7,322.1 195.8,321.9 201.1,321.8 205.5,321.6 208.8,321.5 210.6,321.3 210.9,321.2 209.7,321.0 207.2,320.9 203.6,320.7 199.1,320.6 194.0,320.4 188.5,320.3 183.0,320.1 177.6,320.0 172.5,319.8 167.9,319.7 163.8,319.5 160.3,319.4 157.3,319.2 154.9,319.1 153.0,318.9 151.6,318.8 150.5,318.6 149.8,318.5 149.3,318.3 149.0,318.2 148.9,318.0 148.9,317.9 149.0,317.7 149.3,317.6 149.8,317.4 150.4,317.2 151.2,317.1 152.1,316.9 153.1,316.8 154.2,316.6 155.3,316.5 156.4,316.3 157.2,316.2 157.8,316.0 158.0,315.9 157.9,315.7 157.4,315.6 156.6,315.4 155.5,315.3 154.1,315.1 152.7,315.0 151.1,314.8 149.6,314.7 148.1,314.5 146.8,314.4 145.7,314.2 144.8,314.1 144.0,313.9 140.0,313.9 139.2,314.1 138.3,314.2 137.2,314.4 135.9,314.5 134.4,314.7 132.9,314.8 131.3,315.0 129.9,315.1 128.5,315.3 127.4,315.4 126.6,315.6 126.1,315.7 126.0,315.9 126.2,316.0 126.8,316.2 127.6,316.3 128.7,316.5 129.8,316.6 130.9,316.8 131.9,316.9 132.8,317.1 133.6,317.2 134.2,317.4 134.7,317.6 135.0,317.7 135.1,317.9 135.1,318.0 135.0,318.2 134.7,318.3 134.2,318.5 133.5,318.6 132.4,318.8 131.0,318.9 129.1,319.1 126.7,319.2 123.7,319.4 120.2,319.5 116.1,319.7 111.5,319.8 106.4,320.0 101.0,320.1 95.5,320.3 90.0,320.4 84.9,320.6 80.4,320.7 76.8,320.9 74.3,321.0 73.1,321.2 73.4,321.3 75.2,321.5 78.5,321.6 82.9,321.8 88.2,321.9 94.3,322.1 100.5,322.2 106.8,322.4 112.8,322.5 118.2,322.7 123.0,322.8 127.1,323.0 130.5,323.1 133.3,323.3 135.4,323.4 137.1,323.6 138.4,323.7 139.3,323.9 140.0,324.1 140.5,324.2 140.9,324.4 141.2,324.5 141.4,324.7" fill="#2a8" opacity="0.5" stroke="#2a8" stroke-width="1"/>
<line x1="73.8" y1="321.06805494249295" x2="210.2" y2="321.06805494249295" stroke="#114" stroke-width="2"/>
<circle cx="142.0" cy="321.7226454100287" r="2.4" fill="#114"/>
<text x="142.0" y="309.02104229884714" text-anchor="middle" font-size="11">1.01</text>
<text x="142.0" y="376" text-anchor="middle" font-size="12">zaxpy</text>
<polygon points="306.1,344.0 306.2,343.5 306.2,343.1 306.4,342.6 306.5,342.2 306.6,341.7 306.7,341.3 306.7,340.8 306.7,340.4 306.6,339.9 306.5,339.5 306.4,339.0 306.2,338.5 306.2,338.1 306.1,337.6 306.0,337.2 306.0,336.7 306.0,336.3 306.0,335.8 306.0,335.4 306.0,334.9 306.1,334.5 306.1,334.0 306.3,333.6 306.7,333.1 307.4,332.6 308.5,332.2 310.2,331.7 312.2,331.3 314.6,330.8 316.9,330.4 318.6,329.9 319.4,329.5 319.1,329.0 317.8,328.6 315.8,328.1 313.6,327.6 311.6,327.2 310.0,326.7 309.0,326.3 308.7,325.8 309.2,325.4 310.7,324.9 313.7,324.5 318.6,324.0 325.6,323.6 334.8,323.1 345.5,322.7 356.4,322.2 366.0,321.7 372.6,321.3 374.9,320.8 372.7,320.4 366.6,319.9 358.1,319.5 348.7,319.0 339.8,318.6 332.4,318.1 326.9,317.7 322.9,317.2 320.2,316.7 318.3,316.3 316.7,315.8 315.2,315.4 313.6,314.9 312.0,314.5 310.5,314.0 309.2,313.6 308.1,313.1 307.3,312.7 306.7,312.2 306.4,311.7 305.6,311.7 305.3,312.2 304.7,312.7 303.9,313.1 302.8,313.6 301.5,314.0 300.0,314.5 298.4,314.9 296.8,315.4 295.3,315.8 293.7,316.3 291.8,316.7 289.1,317.2 285.1,317.7 279.6,318.1 272.2,318.6 263.3,319.0 253.9,319.5 245.4,319.9 239.3,320.4 237.1,320.8 239.4,321.3 246.0,321.7 255.6,322.2 266.5,322.7 277.2,323.1 286.4,323.6 293.4,324.0 298.3,324.5 301.3,324.9 302.8,325.4 303.3,325.8 303.0,326.3 302.0,326.7 300.4,327.2 298.4,327.6 296.2,328.1 294.2,328.6 292.9,329.0 292.6,329.5 293.4,329.9 295.1,330.4 297.4,330.8 299.8,331.3 301.8,331.7 303.5,332.2 304.6,332.6 305.3,333.1 305.7,333.6 305.9,334.0 305.9,334.5 306.0,334.9 306.0,335.4 306.0,335.8 306.0,336.3 306.0,336.7 306.0,337.2 305.9,337.6 305.8,338.1 305.8,338.5 305.6,339.0 305.5,339.5 305.4,339.9 305.3,340.4 305.3,340.8 305.3,341.3 305.4,341.7 305.5,342.2 305.6,342.6 305.8,343.1 305.8,343.5 305.9,344.0" fill="#d33" opacity="0.5" stroke="#d33" stroke-width="1"/>
<line x1="237.5" y1="321.02243214874625" x2="374.5" y2="321.02243214874625" stroke="#114" stroke-width="2"/>
<circle cx="306.0" cy="329.4563002487644" r="2.4" fill="#114"/>
<text x="306.0" y="308.9293513312835" text-anchor="middle" font-size="11">1.01</text>
<text x="306.0" y="376" text-anchor="middle" font-size="12">zdotc</text>
<polygon points="470.0,338.6 470.0,338.3 470.1,337.9 470.2,337.6 470.3,337.2 470.5,336.9 470.7,336.5 470.8,336.1 470.8,335.8 470.7,335.4 470.7,335.1 470.8,334.7 470.8,334.4 470.7,334.0 470.6,333.7 470.4,333.3 470.2,333.0 470.1,332.6 470.0,332.3 470.0,331.9 470.0,331.6 470.0,331.2 470.0,330.9 470.0,330.5 470.0,330.2 470.0,329.8 470.0,329.5 470.0,329.1 470.0,328.8 470.0,328.4 470.0,328.1 470.0,327.7 470.0,327.4 470.0,327.0 470.0,326.7 470.0,326.3 470.0,326.0 470.1,325.6 470.3,325.2 470.6,324.9 471.2,324.5 472.3,324.2 474.6,323.8 479.4,323.5 487.9,323.1 500.8,322.8 516.5,322.4 530.7,322.1 538.9,321.7 538.5,321.4 530.8,321.0 519.8,320.7 508.9,320.3 499.8,320.0 492.5,319.6 486.7,319.3 482.1,318.9 478.7,318.6 476.3,318.2 474.6,317.9 473.5,317.5 472.7,317.2 472.1,316.8 471.7,316.5 471.3,316.1 470.9,315.8 470.6,315.4 470.3,315.1 470.2,314.7 470.1,314.4 470.0,314.0 470.0,313.6 470.0,313.6 470.0,314.0 469.9,314.4 469.8,314.7 469.7,315.1 469.4,315.4 469.1,315.8 468.7,316.1 468.3,316.5 467.9,316.8 467.3,317.2 466.5,317.5 465.4,317.9 463.7,318.2 461.3,318.6 457.9,318.9 453.3,319.3 447.5,319.6 440.2,320.0 431.1,320.3 420.2,320.7 409.2,321.0 401.5,321.4 401.1,321.7 409.3,322.1 423.5,322.4 439.2,322.8 452.1,323.1 460.6,323.5 465.4,323.8 467.7,324.2 468.8,324.5 469.4,324.9 469.7,325.2 469.9,325.6 470.0,326.0 470.0,326.3 470.0,326.7 470.0,327.0 470.0,327.4 470.0,327.7 470.0,328.1 470.0,328.4 470.0,328.8 470.0,329.1 470.0,329.5 470.0,329.8 470.0,330.2 470.0,330.5 470.0,330.9 470.0,331.2 470.0,331.6 470.0,331.9 470.0,332.3 469.9,332.6 469.8,333.0 469.6,333.3 469.4,333.7 469.3,334.0 469.2,334.4 469.2,334.7 469.3,335.1 469.3,335.4 469.2,335.8 469.2,336.1 469.3,336.5 469.5,336.9 469.7,337.2 469.8,337.6 469.9,337.9 470.0,338.3 470.0,338.6" fill="#2a8" opacity="0.5" stroke="#2a8" stroke-width="1"/>
<line x1="400.3" y1="321.5480401911537" x2="539.7" y2="321.5480401911537" stroke="#114" stroke-width="2"/>
<circle cx="470.0" cy="321.91443019618896" r="2.4" fill="#114"/>
<text x="470.0" y="310.1217089466665" text-anchor="middle" font-size="11">1.00</text>
<text x="470.0" y="376" text-anchor="middle" font-size="12">zscal</text>
<polygon points="642.7,192.4 644.2,190.4 645.8,188.5 647.5,186.5 649.3,184.6 651.1,182.6 652.9,180.7 654.6,178.7 656.4,176.8 658.0,174.8 659.5,172.9 660.9,170.9 662.1,169.0 663.2,167.0 664.1,165.1 664.9,163.1 665.5,161.2 666.1,159.2 666.5,157.3 666.8,155.3 667.0,153.4 667.1,151.4 667.1,149.5 667.0,147.5 666.8,145.6 666.5,143.6 666.1,141.7 665.5,139.7 664.7,137.8 663.8,135.8 662.8,133.9 661.5,132.0 660.2,130.0 658.7,128.1 657.1,126.1 655.5,124.2 653.9,122.2 652.3,120.3 650.9,118.3 649.6,116.4 648.5,114.4 647.7,112.5 647.2,110.5 647.1,108.6 647.5,106.6 648.3,104.7 649.6,102.7 651.4,100.8 653.8,98.8 656.7,96.9 660.1,94.9 663.9,93.0 668.2,91.0 672.7,89.1 677.3,87.1 682.0,85.2 686.6,83.2 690.8,81.3 694.7,79.3 697.9,77.4 700.4,75.4 702.1,73.5 702.9,71.5 702.7,69.6 701.6,67.6 699.7,65.7 696.9,63.7 693.4,61.8 689.3,59.8 684.8,57.9 680.0,55.9 675.1,54.0 592.9,54.0 588.0,55.9 583.2,57.9 578.7,59.8 574.6,61.8 571.1,63.7 568.3,65.7 566.4,67.6 565.3,69.6 565.1,71.5 565.9,73.5 567.6,75.4 570.1,77.4 573.3,79.3 577.2,81.3 581.4,83.2 586.0,85.2 590.7,87.1 595.3,89.1 599.8,91.0 604.1,93.0 607.9,94.9 611.3,96.9 614.2,98.8 616.6,100.8 618.4,102.7 619.7,104.7 620.5,106.6 620.9,108.6 620.8,110.5 620.3,112.5 619.5,114.4 618.4,116.4 617.1,118.3 615.7,120.3 614.1,122.2 612.5,124.2 610.9,126.1 609.3,128.1 607.8,130.0 606.5,132.0 605.2,133.9 604.2,135.8 603.3,137.8 602.5,139.7 601.9,141.7 601.5,143.6 601.2,145.6 601.0,147.5 600.9,149.5 600.9,151.4 601.0,153.4 601.2,155.3 601.5,157.3 601.9,159.2 602.5,161.2 603.1,163.1 603.9,165.1 604.8,167.0 605.9,169.0 607.1,170.9 608.5,172.9 610.0,174.8 611.6,176.8 613.4,178.7 615.1,180.7 616.9,182.6 618.7,184.6 620.5,186.5 622.2,188.5 623.8,190.4 625.3,192.4" fill="#2a8" opacity="0.5" stroke="#2a8" stroke-width="1"/>
<line x1="565.5" y1="72.6398593397409" x2="702.5" y2="72.6398593397409" stroke="#114" stroke-width="2"/>
<circle cx="634.0" cy="167.6689705402444" r="2.4" fill="#114"/>
<text x="634.0" y="61.433962264150935" text-anchor="middle" font-size="11">7.82</text>
<text x="634.0" y="376" text-anchor="middle" font-size="12">dznrm2</text>
<polygon points="820.7,314.6 825.6,314.1 830.7,313.7 836.2,313.2 841.7,312.7 847.0,312.2 852.0,311.8 856.5,311.3 860.2,310.8 863.1,310.3 865.0,309.9 866.0,309.4 866.1,308.9 865.5,308.4 864.4,308.0 862.9,307.5 861.4,307.0 860.1,306.5 859.2,306.1 858.9,305.6 859.1,305.1 859.9,304.6 861.2,304.2 862.7,303.7 864.3,303.2 865.7,302.7 866.7,302.3 866.9,301.8 866.2,301.3 864.6,300.8 861.9,300.4 858.3,299.9 853.8,299.4 848.7,298.9 843.2,298.5 837.5,298.0 831.9,297.5 826.4,297.0 821.4,296.6 816.9,296.1 813.0,295.6 809.8,295.1 807.2,294.7 805.2,294.2 803.7,293.7 802.8,293.2 802.4,292.8 802.4,292.3 802.8,291.8 803.5,291.4 804.6,290.9 806.0,290.4 807.6,289.9 809.4,289.5 811.3,289.0 813.3,288.5 815.3,288.0 817.1,287.6 818.7,287.1 820.0,286.6 820.8,286.1 821.3,285.7 821.2,285.2 820.7,284.7 819.8,284.2 818.4,283.8 816.8,283.3 814.9,282.8 812.9,282.3 810.9,281.9 808.9,281.4 807.1,280.9 788.9,280.9 787.1,281.4 785.1,281.9 783.1,282.3 781.1,282.8 779.2,283.3 777.6,283.8 776.2,284.2 775.3,284.7 774.8,285.2 774.7,285.7 775.2,286.1 776.0,286.6 777.3,287.1 778.9,287.6 780.7,288.0 782.7,288.5 784.7,289.0 786.6,289.5 788.4,289.9 790.0,290.4 791.4,290.9 792.5,291.4 793.2,291.8 793.6,292.3 793.6,292.8 793.2,293.2 792.3,293.7 790.8,294.2 788.8,294.7 786.2,295.1 783.0,295.6 779.1,296.1 774.6,296.6 769.6,297.0 764.1,297.5 758.5,298.0 752.8,298.5 747.3,298.9 742.2,299.4 737.7,299.9 734.1,300.4 731.4,300.8 729.8,301.3 729.1,301.8 729.3,302.3 730.3,302.7 731.7,303.2 733.3,303.7 734.8,304.2 736.1,304.6 736.9,305.1 737.1,305.6 736.8,306.1 735.9,306.5 734.6,307.0 733.1,307.5 731.6,308.0 730.5,308.4 729.9,308.9 730.0,309.4 731.0,309.9 732.9,310.3 735.8,310.8 739.5,311.3 744.0,311.8 749.0,312.2 754.3,312.7 759.8,313.2 765.3,313.7 770.4,314.1 775.3,314.6" fill="#2a8" opacity="0.5" stroke="#2a8" stroke-width="1"/>
<line x1="729.2" y1="302.1173689577529" x2="866.8" y2="302.1173689577529" stroke="#114" stroke-width="2"/>
<circle cx="798.0" cy="310.645802892528" r="2.4" fill="#114"/>
<text x="798.0" y="278.2304359878148" text-anchor="middle" font-size="11">1.53</text>
<text x="798.0" y="376" text-anchor="middle" font-size="12">dzasum</text>
<text x="450.0" y="428" text-anchor="middle" font-size="11" fill="#666">violin = ratio distribution over sizes · line = median · dark dot = worst size · green = every size ≥ gate</text>
</svg>
