<svg xmlns="http://www.w3.org/2000/svg" width="900" height="440" font-family="sans-serif">
<rect width="900" height="440" fill="white"/>
<text x="450.0" y="28" text-anchor="middle" font-size="18" font-weight="bold">BLAS-1: PureBLAS / OpenBLAS (AVX-512 native (Zen5), 1 thread, Float64)</text>
<line x1="60" y1="358.0" x2="880" y2="358.0" stroke="#eee"/>
<text x="52" y="362.0" text-anchor="end" font-size="11" fill="#666">0×</text>
<line x1="60" y1="348.1249998854977" x2="880" y2="348.1249998854977" stroke="#eee"/>
<text x="52" y="352.1249998854977" text-anchor="end" font-size="11" fill="#666">0.5×</text>
<line x1="60" y1="338.24999977099543" x2="880" y2="338.24999977099543" stroke="#eee"/>
<text x="52" y="342.24999977099543" text-anchor="end" font-size="11" fill="#666">1×</text>
<line x1="60" y1="328.3749996564931" x2="880" y2="328.3749996564931" stroke="#eee"/>
<text x="52" y="332.3749996564931" text-anchor="end" font-size="11" fill="#666">1.5×</text>
<line x1="60" y1="338.24999977099543" x2="880" y2="338.24999977099543" stroke="#888" stroke-width="1"/>
<line x1="60" y1="339.0399997801556" x2="880" y2="339.0399997801556" stroke="#d33" stroke-width="1.5" stroke-dasharray="6 4"/>
<text x="880" y="334.0399997801556" text-anchor="end" font-size="11" fill="#d33">0.96× gate</text>
<polygon points="128.4,340.6 128.4,340.5 128.5,340.4 128.6,340.4 128.8,340.3 129.2,340.2 129.7,340.1 130.4,340.1 131.4,340.0 132.6,339.9 134.1,339.8 135.5,339.7 136.9,339.7 137.9,339.6 138.6,339.5 138.9,339.4 139.0,339.4 139.1,339.3 139.5,339.2 140.7,339.1 142.8,339.0 146.1,339.0 150.8,338.9 156.7,338.8 163.8,338.7 171.2,338.7 178.1,338.6 183.3,338.5 185.7,338.4 184.9,338.3 180.8,338.3 174.5,338.2 166.9,338.1 159.3,338.0 152.7,338.0 147.4,337.9 143.6,337.8 141.6,337.7 141.1,337.6 142.3,337.6 144.9,337.5 148.4,337.4 152.1,337.3 155.2,337.3 157.1,337.2 157.3,337.1 155.8,337.0 153.0,336.9 149.2,336.9 145.1,336.8 141.1,336.7 137.5,336.6 134.7,336.6 132.5,336.5 131.1,336.4 130.1,336.3 129.6,336.3 129.3,336.2 129.1,336.1 129.0,336.0 129.0,335.9 128.9,335.9 128.9,335.8 128.9,335.7 128.8,335.6 128.7,335.6 128.7,335.5 128.6,335.4 128.5,335.3 128.4,335.2 128.4,335.2 128.4,335.1 128.3,335.1 128.3,335.2 128.2,335.2 128.2,335.3 128.1,335.4 128.0,335.5 127.9,335.6 127.9,335.6 127.8,335.7 127.8,335.8 127.7,335.9 127.7,335.9 127.7,336.0 127.6,336.1 127.4,336.2 127.1,336.3 126.5,336.3 125.6,336.4 124.1,336.5 122.0,336.6 119.1,336.6 115.6,336.7 111.6,336.8 107.5,336.9 103.7,336.9 100.8,337.0 99.4,337.1 99.6,337.2 101.5,337.3 104.6,337.3 108.3,337.4 111.8,337.5 114.4,337.6 115.5,337.6 115.1,337.7 113.0,337.8 109.3,337.9 104.0,338.0 97.3,338.0 89.8,338.1 82.2,338.2 75.8,338.3 71.8,338.3 70.9,338.4 73.4,338.5 78.6,338.6 85.5,338.7 92.9,338.7 99.9,338.8 105.9,338.9 110.6,339.0 113.9,339.0 116.0,339.1 117.1,339.2 117.6,339.3 117.7,339.4 117.8,339.4 118.1,339.5 118.7,339.6 119.8,339.7 121.1,339.7 122.6,339.8 124.0,339.9 125.3,340.0 126.3,340.1 127.0,340.1 127.5,340.2 127.8,340.3 128.0,340.4 128.2,340.4 128.3,340.5 128.3,340.6" fill="#d33" opacity="0.5" stroke="#d33" stroke-width="1"/>
<line x1="72.5" y1="338.32624098333963" x2="184.2" y2="338.32624098333963" stroke="#114" stroke-width="2"/>
<circle cx="128.33333333333331" cy="339.04757154515227" r="2.4" fill="#114"/>
<text x="128.33333333333331" y="329.6515405572719" text-anchor="middle" font-size="11">1.00</text>
<text x="128.33333333333331" y="376" text-anchor="middle" font-size="12">axpy</text>
<polygon points="265.0,340.3 265.0,340.2 265.0,340.2 265.0,340.1 265.1,340.0 265.2,340.0 265.3,339.9 265.3,339.9 265.3,339.8 265.3,339.8 265.2,339.7 265.1,339.7 265.1,339.6 265.1,339.5 265.2,339.5 265.4,339.4 265.8,339.4 266.3,339.3 267.0,339.3 267.6,339.2 268.3,339.2 268.9,339.1 269.5,339.1 270.3,339.0 271.0,338.9 271.8,338.9 272.6,338.8 273.3,338.8 273.7,338.7 274.2,338.7 275.0,338.6 277.0,338.6 280.8,338.5 286.7,338.5 294.9,338.4 304.7,338.3 314.3,338.3 321.0,338.2 322.4,338.2 317.6,338.1 308.5,338.1 298.2,338.0 290.2,338.0 285.9,337.9 284.9,337.8 284.8,337.8 283.5,337.7 280.1,337.7 275.7,337.6 271.5,337.6 268.6,337.5 267.0,337.5 266.3,337.4 266.1,337.4 266.1,337.3 266.2,337.2 266.4,337.2 266.5,337.1 266.4,337.1 266.3,337.0 266.2,337.0 265.9,336.9 265.8,336.9 265.6,336.8 265.5,336.7 265.3,336.7 265.2,336.6 265.1,336.6 265.0,336.5 265.0,336.5 265.0,336.4 265.0,336.4 265.0,336.4 265.0,336.4 265.0,336.5 265.0,336.5 264.9,336.6 264.8,336.6 264.7,336.7 264.5,336.7 264.4,336.8 264.2,336.9 264.1,336.9 263.8,337.0 263.7,337.0 263.6,337.1 263.5,337.1 263.6,337.2 263.8,337.2 263.9,337.3 263.9,337.4 263.7,337.4 263.0,337.5 261.4,337.5 258.5,337.6 254.3,337.6 249.9,337.7 246.5,337.7 245.2,337.8 245.1,337.8 244.1,337.9 239.8,338.0 231.8,338.0 221.5,338.1 212.4,338.1 207.6,338.2 209.0,338.2 215.7,338.3 225.3,338.3 235.1,338.4 243.3,338.5 249.2,338.5 253.0,338.6 255.0,338.6 255.8,338.7 256.3,338.7 256.7,338.8 257.4,338.8 258.2,338.9 259.0,338.9 259.7,339.0 260.5,339.1 261.1,339.1 261.7,339.2 262.4,339.2 263.0,339.3 263.7,339.3 264.2,339.4 264.6,339.4 264.8,339.5 264.9,339.5 264.9,339.6 264.9,339.7 264.8,339.7 264.7,339.8 264.7,339.8 264.7,339.9 264.7,339.9 264.8,340.0 264.9,340.0 265.0,340.1 265.0,340.2 265.0,340.2 265.0,340.3" fill="#2a8" opacity="0.5" stroke="#2a8" stroke-width="1"/>
<line x1="207.4" y1="338.190593074783" x2="322.6" y2="338.190593074783" stroke="#114" stroke-width="2"/>
<circle cx="265.0" cy="338.4849094960121" r="2.4" fill="#114"/>
<text x="265.0" y="330.7735749998711" text-anchor="middle" font-size="11">1.00</text>
<text x="265.0" y="376" text-anchor="middle" font-size="12">dot</text>
<polygon points="413.2,258.4 416.2,255.5 419.6,252.5 423.2,249.6 426.9,246.7 430.5,243.7 433.9,240.8 436.9,237.9 439.2,234.9 440.7,232.0 441.3,229.1 440.9,226.1 439.7,223.2 437.6,220.2 434.8,217.3 431.5,214.4 428.0,211.4 424.3,208.5 420.8,205.6 417.5,202.6 414.7,199.7 412.3,196.8 410.5,193.8 409.2,190.9 408.6,188.0 408.6,185.0 409.2,182.1 410.4,179.2 412.2,176.2 414.6,173.3 417.6,170.3 421.2,167.4 425.3,164.5 429.8,161.5 434.5,158.6 439.3,155.7 444.0,152.7 448.3,149.8 452.1,146.9 455.1,143.9 457.3,141.0 458.7,138.1 459.1,135.1 458.7,132.2 457.5,129.3 455.9,126.3 453.9,123.4 451.6,120.4 449.3,117.5 447.1,114.6 445.0,111.6 443.0,108.7 441.3,105.8 439.7,102.8 438.3,99.9 437.0,97.0 435.9,94.0 434.9,91.1 433.9,88.2 433.0,85.2 432.2,82.3 431.2,79.4 430.2,76.4 429.0,73.5 427.6,70.5 425.9,67.6 424.0,64.7 421.9,61.7 419.7,58.8 417.4,55.9 415.1,52.9 412.9,50.0 390.4,50.0 388.2,52.9 385.9,55.9 383.6,58.8 381.4,61.7 379.3,64.7 377.4,67.6 375.8,70.5 374.4,73.5 373.1,76.4 372.1,79.4 371.2,82.3 370.3,85.2 369.4,88.2 368.5,91.1 367.5,94.0 366.3,97.0 365.1,99.9 363.6,102.8 362.1,105.8 360.3,108.7 358.3,111.6 356.2,114.6 354.0,117.5 351.7,120.4 349.5,123.4 347.4,126.3 345.8,129.3 344.7,132.2 344.3,135.1 344.7,138.1 346.0,141.0 348.2,143.9 351.3,146.9 355.0,149.8 359.4,152.7 364.0,155.7 368.8,158.6 373.5,161.5 378.0,164.5 382.1,167.4 385.7,170.3 388.7,173.3 391.2,176.2 393.0,179.2 394.2,182.1 394.8,185.0 394.7,188.0 394.1,190.9 392.9,193.8 391.0,196.8 388.7,199.7 385.8,202.6 382.5,205.6 379.0,208.5 375.4,211.4 371.8,214.4 368.5,217.3 365.8,220.2 363.7,223.2 362.4,226.1 362.1,229.1 362.7,232.0 364.2,234.9 366.5,237.9 369.4,240.8 372.8,243.7 376.4,246.7 380.1,249.6 383.7,252.5 387.1,255.5 390.1,258.4" fill="#2a8" opacity="0.5" stroke="#2a8" stroke-width="1"/>
<line x1="344.5" y1="137.46568726382532" x2="458.8" y2="137.46568726382532" stroke="#114" stroke-width="2"/>
<circle cx="401.66666666666663" cy="228.83535378353656" r="2.4" fill="#114"/>
<text x="401.66666666666663" y="61.433962264150935" text-anchor="middle" font-size="11">11.17</text>
<text x="401.66666666666663" y="376" text-anchor="middle" font-size="12">nrm2</text>
<polygon points="542.8,340.3 544.7,340.2 547.2,340.0 550.4,339.9 554.3,339.8 558.9,339.6 564.1,339.5 569.7,339.3 575.5,339.2 581.1,339.0 586.2,338.9 590.5,338.7 593.7,338.6 595.4,338.5 595.7,338.3 594.6,338.2 592.2,338.0 588.8,337.9 584.7,337.7 580.2,337.6 575.7,337.4 571.4,337.3 567.5,337.1 564.1,337.0 561.2,336.9 558.7,336.7 556.5,336.6 554.6,336.4 552.7,336.3 551.0,336.1 549.3,336.0 547.7,335.8 546.1,335.7 544.7,335.6 543.3,335.4 542.2,335.3 541.2,335.1 540.4,335.0 539.8,334.8 539.4,334.7 539.0,334.5 538.8,334.4 538.6,334.3 538.5,334.1 538.5,334.0 538.5,333.8 538.5,333.7 538.6,333.5 538.8,333.4 539.0,333.2 539.4,333.1 539.8,333.0 540.4,332.8 541.2,332.7 542.1,332.5 543.1,332.4 544.3,332.2 545.6,332.1 546.8,331.9 548.0,331.8 548.9,331.7 549.7,331.5 550.1,331.4 550.1,331.2 549.8,331.1 549.2,330.9 548.3,330.8 547.2,330.6 546.0,330.5 544.7,330.4 543.5,330.2 542.4,330.1 534.3,330.1 533.2,330.2 531.9,330.4 530.7,330.5 529.5,330.6 528.4,330.8 527.5,330.9 526.8,331.1 526.5,331.2 526.6,331.4 527.0,331.5 527.7,331.7 528.7,331.8 529.9,331.9 531.1,332.1 532.3,332.2 533.5,332.4 534.6,332.5 535.5,332.7 536.3,332.8 536.9,333.0 537.3,333.1 537.6,333.2 537.9,333.4 538.0,333.5 538.1,333.7 538.2,333.8 538.2,334.0 538.1,334.1 538.0,334.3 537.9,334.4 537.7,334.5 537.3,334.7 536.8,334.8 536.2,335.0 535.4,335.1 534.5,335.3 533.3,335.4 532.0,335.6 530.6,335.7 529.0,335.8 527.4,336.0 525.7,336.1 523.9,336.3 522.1,336.4 520.1,336.6 518.0,336.7 515.4,336.9 512.5,337.0 509.1,337.1 505.2,337.3 501.0,337.4 496.5,337.6 492.0,337.7 487.9,337.9 484.5,338.0 482.1,338.2 480.9,338.3 481.2,338.5 483.0,338.6 486.2,338.7 490.4,338.9 495.6,339.0 501.2,339.2 507.0,339.3 512.6,339.5 517.7,339.6 522.3,339.8 526.2,339.9 529.4,340.0 532.0,340.2 533.9,340.3" fill="#2a8" opacity="0.5" stroke="#2a8" stroke-width="1"/>
<line x1="481.2" y1="338.2540382218707" x2="595.5" y2="338.2540382218707" stroke="#114" stroke-width="2"/>
<circle cx="538.3333333333333" cy="338.6356808153447" r="2.4" fill="#114"/>
<text x="538.3333333333333" y="325.092361744989" text-anchor="middle" font-size="11">1.00</text>
<text x="538.3333333333333" y="376" text-anchor="middle" font-size="12">asum</text>
<polygon points="677.5,339.9 678.7,339.7 680.3,339.6 682.4,339.5 685.0,339.4 688.2,339.2 691.9,339.1 696.2,339.0 700.9,338.8 705.9,338.7 711.0,338.6 716.0,338.5 720.7,338.3 724.8,338.2 728.2,338.1 730.6,337.9 732.1,337.8 732.4,337.7 731.6,337.6 729.8,337.4 727.0,337.3 723.4,337.2 719.2,337.0 714.5,336.9 709.7,336.8 704.8,336.7 700.1,336.5 695.7,336.4 691.7,336.3 688.2,336.1 685.2,336.0 682.7,335.9 680.7,335.8 679.1,335.6 677.8,335.5 676.9,335.4 676.3,335.2 675.9,335.1 675.6,335.0 675.5,334.9 675.4,334.7 675.4,334.6 675.5,334.5 675.7,334.3 675.8,334.2 676.0,334.1 676.3,334.0 676.5,333.8 676.9,333.7 677.2,333.6 677.6,333.4 678.0,333.3 678.6,333.2 679.2,333.1 680.0,332.9 680.8,332.8 681.8,332.7 682.7,332.5 683.7,332.4 684.6,332.3 685.3,332.2 685.7,332.0 685.8,331.9 685.6,331.8 685.1,331.6 684.3,331.5 683.3,331.4 682.1,331.3 680.9,331.1 679.8,331.0 678.7,330.9 677.8,330.7 672.2,330.7 671.3,330.9 670.2,331.0 669.1,331.1 667.9,331.3 666.7,331.4 665.7,331.5 664.9,331.6 664.4,331.8 664.2,331.9 664.3,332.0 664.7,332.2 665.4,332.3 666.3,332.4 667.3,332.5 668.2,332.7 669.2,332.8 670.0,332.9 670.8,333.1 671.4,333.2 672.0,333.3 672.4,333.4 672.8,333.6 673.1,333.7 673.5,333.8 673.7,334.0 674.0,334.1 674.2,334.2 674.3,334.3 674.5,334.5 674.6,334.6 674.6,334.7 674.5,334.9 674.4,335.0 674.1,335.1 673.7,335.2 673.1,335.4 672.2,335.5 670.9,335.6 669.3,335.8 667.3,335.9 664.8,336.0 661.8,336.1 658.3,336.3 654.3,336.4 649.9,336.5 645.2,336.7 640.3,336.8 635.5,336.9 630.8,337.0 626.6,337.2 623.0,337.3 620.2,337.4 618.4,337.6 617.6,337.7 617.9,337.8 619.4,337.9 621.8,338.1 625.2,338.2 629.3,338.3 634.0,338.5 639.0,338.6 644.1,338.7 649.1,338.8 653.8,339.0 658.1,339.1 661.8,339.2 665.0,339.4 667.6,339.5 669.7,339.6 671.3,339.7 672.5,339.9" fill="#2a8" opacity="0.5" stroke="#2a8" stroke-width="1"/>
<line x1="618.4" y1="337.55429078658284" x2="731.6" y2="337.55429078658284" stroke="#114" stroke-width="2"/>
<circle cx="675.0" cy="338.4265844090463" r="2.4" fill="#114"/>
<text x="675.0" y="325.66138176055836" text-anchor="middle" font-size="11">1.04</text>
<text x="675.0" y="376" text-anchor="middle" font-size="12">scal</text>
<polygon points="814.4,345.0 815.6,344.5 817.1,344.0 818.9,343.5 821.1,342.9 823.7,342.4 826.5,341.9 829.6,341.4 832.9,340.9 836.4,340.4 839.8,339.9 843.3,339.4 846.6,338.9 849.7,338.4 852.7,337.9 855.3,337.3 857.6,336.8 859.5,336.3 861.0,335.8 862.1,335.3 862.8,334.8 863.2,334.3 863.4,333.8 863.4,333.3 863.3,332.8 863.1,332.3 863.0,331.7 863.0,331.2 863.1,330.7 863.2,330.2 863.4,329.7 863.5,329.2 863.7,328.7 863.8,328.2 863.8,327.7 863.9,327.2 863.9,326.7 864.0,326.1 864.2,325.6 864.5,325.1 864.9,324.6 865.4,324.1 866.1,323.6 866.8,323.1 867.5,322.6 868.2,322.1 868.7,321.6 869.0,321.1 869.1,320.5 868.8,320.0 868.1,319.5 867.0,319.0 865.5,318.5 863.7,318.0 861.4,317.5 858.7,317.0 855.7,316.5 852.4,316.0 848.9,315.5 845.2,314.9 841.4,314.4 837.5,313.9 833.8,313.4 830.2,312.9 826.8,312.4 823.8,311.9 821.2,311.4 818.9,310.9 817.1,310.4 815.6,309.9 814.4,309.3 813.6,308.8 809.8,308.8 808.9,309.3 807.8,309.9 806.3,310.4 804.4,310.9 802.1,311.4 799.5,311.9 796.5,312.4 793.2,312.9 789.6,313.4 785.8,313.9 782.0,314.4 778.1,314.9 774.4,315.5 770.9,316.0 767.6,316.5 764.6,317.0 762.0,317.5 759.7,318.0 757.8,318.5 756.3,319.0 755.2,319.5 754.6,320.0 754.3,320.5 754.3,321.1 754.6,321.6 755.1,322.1 755.8,322.6 756.5,323.1 757.3,323.6 757.9,324.1 758.5,324.6 758.9,325.1 759.2,325.6 759.3,326.1 759.4,326.7 759.4,327.2 759.5,327.7 759.5,328.2 759.7,328.7 759.8,329.2 760.0,329.7 760.1,330.2 760.3,330.7 760.3,331.2 760.3,331.7 760.2,332.3 760.1,332.8 759.9,333.3 759.9,333.8 760.1,334.3 760.5,334.8 761.2,335.3 762.4,335.8 763.9,336.3 765.8,336.8 768.0,337.3 770.7,337.9 773.6,338.4 776.8,338.9 780.1,339.4 783.5,339.9 787.0,340.4 790.4,340.9 793.7,341.4 796.8,341.9 799.7,342.4 802.2,342.9 804.4,343.5 806.2,344.0 807.7,344.5 808.9,345.0" fill="#2a8" opacity="0.5" stroke="#2a8" stroke-width="1"/>
<line x1="759.4" y1="326.8728117973612" x2="863.9" y2="326.8728117973612" stroke="#114" stroke-width="2"/>
<circle cx="811.6666666666666" cy="330.1699236717382" r="2.4" fill="#114"/>
<text x="811.6666666666666" y="306.3652137452351" text-anchor="middle" font-size="11">1.58</text>
<text x="811.6666666666666" y="376" text-anchor="middle" font-size="12">iamax</text>
<text x="450.0" y="428" text-anchor="middle" font-size="11" fill="#666">violin = ratio distribution over sizes · line = median · dark dot = worst size · green = every size ≥ gate</text>
</svg>
