<svg xmlns="http://www.w3.org/2000/svg" width="962" height="592" font-family="sans-serif">
<rect width="962" height="592" fill="white"/>
<text x="481.0" y="26" text-anchor="middle" font-size="17" font-weight="bold">Complex BLAS-2 — PureBLAS / AOCL (PB/AOCL ratio)</text>
<line x1="46" y1="42" x2="68" y2="42" stroke="#d62728" stroke-width="3"/>
<text x="73" y="46" font-size="12">Zen3 · AVX2</text>
<line x1="176" y1="42" x2="198" y2="42" stroke="#2ca02c" stroke-width="3"/>
<text x="203" y="46" font-size="12">Zen5 · AVX-512</text>
<line x1="327" y1="42" x2="349" y2="42" stroke="#1f77b4" stroke-width="3"/>
<text x="354" y="46" font-size="12">Zen4 · AVX-512</text>
<rect x="46" y="60" width="210" height="138" fill="none" stroke="#e2e2e2"/>
<line x1="46" y1="116.04680818784996" x2="256" y2="116.04680818784996" stroke="#d33" stroke-dasharray="4 3"/>
<text x="42" y="201.0" text-anchor="end" font-size="9" fill="#999">0.5×</text>
<text x="42" y="119.04680818784996" text-anchor="end" font-size="9" fill="#999">1.0×</text>
<polygon points="46.0,69.1 81.0,78.2 116.0,96.8 151.0,97.7 186.0,101.3 221.0,96.1 256.0,112.7 256.0,114.3 221.0,124.4 186.0,105.5 151.0,103.7 116.0,100.0 81.0,84.7 46.0,70.7" fill="#d62728" opacity="0.11"/>
<polyline points="46.0,69.6 81.0,84.0 116.0,98.2 151.0,101.9 186.0,103.8 221.0,110.0 256.0,113.7" fill="none" stroke="#d62728" stroke-width="1.6"/>
<circle cx="46.0" cy="69.6" r="2" fill="#d62728"/>
<circle cx="81.0" cy="84.0" r="2" fill="#d62728"/>
<circle cx="116.0" cy="98.2" r="2" fill="#d62728"/>
<circle cx="151.0" cy="101.9" r="2" fill="#d62728"/>
<circle cx="186.0" cy="103.8" r="2" fill="#d62728"/>
<circle cx="221.0" cy="110.0" r="2" fill="#d62728"/>
<circle cx="256.0" cy="113.7" r="2" fill="#d62728"/>
<polygon points="46.0,109.4 81.0,110.1 116.0,103.7 151.0,91.4 186.0,115.7 221.0,108.0 256.0,95.8 256.0,98.2 221.0,110.4 186.0,123.9 151.0,121.1 116.0,109.7 81.0,111.0 46.0,111.9" fill="#2ca02c" opacity="0.11"/>
<polyline points="46.0,110.8 81.0,110.7 116.0,104.9 151.0,103.5 186.0,119.8 221.0,109.4 256.0,96.8" fill="none" stroke="#2ca02c" stroke-width="1.6"/>
<circle cx="46.0" cy="110.8" r="2" fill="#2ca02c"/>
<circle cx="81.0" cy="110.7" r="2" fill="#2ca02c"/>
<circle cx="116.0" cy="104.9" r="2" fill="#2ca02c"/>
<circle cx="151.0" cy="103.5" r="2" fill="#2ca02c"/>
<circle cx="186.0" cy="119.8" r="2" fill="#2ca02c"/>
<circle cx="221.0" cy="109.4" r="2" fill="#2ca02c"/>
<circle cx="256.0" cy="96.8" r="2" fill="#2ca02c"/>
<polygon points="46.0,114.3 81.0,100.2 116.0,101.2 151.0,118.9 186.0,124.1 221.0,117.5 256.0,112.4 256.0,113.2 221.0,123.5 186.0,131.4 151.0,127.3 116.0,108.3 81.0,113.0 46.0,118.1" fill="#1f77b4" opacity="0.11"/>
<polyline points="46.0,114.7 81.0,112.1 116.0,105.1 151.0,122.8 186.0,127.1 221.0,119.6 256.0,112.6" fill="none" stroke="#1f77b4" stroke-width="1.6"/>
<circle cx="46.0" cy="114.7" r="2" fill="#1f77b4"/>
<circle cx="81.0" cy="112.1" r="2" fill="#1f77b4"/>
<circle cx="116.0" cy="105.1" r="2" fill="#1f77b4"/>
<circle cx="151.0" cy="122.8" r="2" fill="#1f77b4"/>
<circle cx="186.0" cy="127.1" r="2" fill="#1f77b4"/>
<circle cx="221.0" cy="119.6" r="2" fill="#1f77b4"/>
<circle cx="256.0" cy="112.6" r="2" fill="#1f77b4"/>
<text x="151.0" y="55" text-anchor="middle" font-size="12" font-weight="bold">zgemvN</text>
<line x1="46.0" y1="60" x2="46.0" y2="198" stroke="#f4f4f4"/>
<text x="46.0" y="209" text-anchor="middle" font-size="8" fill="#999">64</text>
<line x1="81.0" y1="60" x2="81.0" y2="198" stroke="#f4f4f4"/>
<text x="81.0" y="209" text-anchor="middle" font-size="8" fill="#999">128</text>
<line x1="116.0" y1="60" x2="116.0" y2="198" stroke="#f4f4f4"/>
<text x="116.0" y="209" text-anchor="middle" font-size="8" fill="#999">256</text>
<line x1="151.0" y1="60" x2="151.0" y2="198" stroke="#f4f4f4"/>
<text x="151.0" y="209" text-anchor="middle" font-size="8" fill="#999">512</text>
<line x1="186.0" y1="60" x2="186.0" y2="198" stroke="#f4f4f4"/>
<text x="186.0" y="209" text-anchor="middle" font-size="8" fill="#999">1k</text>
<line x1="221.0" y1="60" x2="221.0" y2="198" stroke="#f4f4f4"/>
<text x="221.0" y="209" text-anchor="middle" font-size="8" fill="#999">2k</text>
<line x1="256.0" y1="60" x2="256.0" y2="198" stroke="#f4f4f4"/>
<text x="256.0" y="209" text-anchor="middle" font-size="8" fill="#999">4k</text>
<rect x="276" y="60" width="210" height="138" fill="none" stroke="#e2e2e2"/>
<line x1="276" y1="115.76276119065531" x2="486" y2="115.76276119065531" stroke="#d33" stroke-dasharray="4 3"/>
<text x="272" y="201.0" text-anchor="end" font-size="9" fill="#999">0.5×</text>
<text x="272" y="118.76276119065531" text-anchor="end" font-size="9" fill="#999">1.0×</text>
<text x="272" y="63.0" text-anchor="end" font-size="9" fill="#999">1.6×</text>
<polygon points="276.0,92.3 311.0,101.8 346.0,112.3 381.0,116.4 416.0,119.2 451.0,103.7 486.0,112.8 486.0,115.1 451.0,126.0 416.0,122.5 381.0,118.8 346.0,116.5 311.0,106.5 276.0,94.3" fill="#d62728" opacity="0.11"/>
<polyline points="276.0,92.9 311.0,103.7 346.0,113.1 381.0,117.4 416.0,121.3 451.0,117.5 486.0,113.7" fill="none" stroke="#d62728" stroke-width="1.6"/>
<circle cx="276.0" cy="92.9" r="2" fill="#d62728"/>
<circle cx="311.0" cy="103.7" r="2" fill="#d62728"/>
<circle cx="346.0" cy="113.1" r="2" fill="#d62728"/>
<circle cx="381.0" cy="117.4" r="2" fill="#d62728"/>
<circle cx="416.0" cy="121.3" r="2" fill="#d62728"/>
<circle cx="451.0" cy="117.5" r="2" fill="#d62728"/>
<circle cx="486.0" cy="113.7" r="2" fill="#d62728"/>
<polygon points="276.0,118.2 311.0,116.6 346.0,110.3 381.0,95.1 416.0,119.3 451.0,108.7 486.0,96.1 486.0,101.5 451.0,115.4 416.0,124.1 381.0,118.7 346.0,117.8 311.0,117.3 276.0,120.0" fill="#2ca02c" opacity="0.11"/>
<polyline points="276.0,119.4 311.0,117.0 346.0,112.7 381.0,106.6 416.0,120.9 451.0,111.4 486.0,99.4" fill="none" stroke="#2ca02c" stroke-width="1.6"/>
<circle cx="276.0" cy="119.4" r="2" fill="#2ca02c"/>
<circle cx="311.0" cy="117.0" r="2" fill="#2ca02c"/>
<circle cx="346.0" cy="112.7" r="2" fill="#2ca02c"/>
<circle cx="381.0" cy="106.6" r="2" fill="#2ca02c"/>
<circle cx="416.0" cy="120.9" r="2" fill="#2ca02c"/>
<circle cx="451.0" cy="111.4" r="2" fill="#2ca02c"/>
<circle cx="486.0" cy="99.4" r="2" fill="#2ca02c"/>
<polygon points="276.0,113.1 311.0,112.5 346.0,87.6 381.0,118.3 416.0,124.0 451.0,115.9 486.0,110.2 486.0,111.2 451.0,117.8 416.0,127.4 381.0,121.2 346.0,103.0 311.0,114.6 276.0,114.3" fill="#1f77b4" opacity="0.11"/>
<polyline points="276.0,114.0 311.0,113.5 346.0,98.2 381.0,119.7 416.0,126.7 451.0,116.6 486.0,110.7" fill="none" stroke="#1f77b4" stroke-width="1.6"/>
<circle cx="276.0" cy="114.0" r="2" fill="#1f77b4"/>
<circle cx="311.0" cy="113.5" r="2" fill="#1f77b4"/>
<circle cx="346.0" cy="98.2" r="2" fill="#1f77b4"/>
<circle cx="381.0" cy="119.7" r="2" fill="#1f77b4"/>
<circle cx="416.0" cy="126.7" r="2" fill="#1f77b4"/>
<circle cx="451.0" cy="116.6" r="2" fill="#1f77b4"/>
<circle cx="486.0" cy="110.7" r="2" fill="#1f77b4"/>
<text x="381.0" y="55" text-anchor="middle" font-size="12" font-weight="bold">zgemvT</text>
<line x1="276.0" y1="60" x2="276.0" y2="198" stroke="#f4f4f4"/>
<text x="276.0" y="209" text-anchor="middle" font-size="8" fill="#999">64</text>
<line x1="311.0" y1="60" x2="311.0" y2="198" stroke="#f4f4f4"/>
<text x="311.0" y="209" text-anchor="middle" font-size="8" fill="#999">128</text>
<line x1="346.0" y1="60" x2="346.0" y2="198" stroke="#f4f4f4"/>
<text x="346.0" y="209" text-anchor="middle" font-size="8" fill="#999">256</text>
<line x1="381.0" y1="60" x2="381.0" y2="198" stroke="#f4f4f4"/>
<text x="381.0" y="209" text-anchor="middle" font-size="8" fill="#999">512</text>
<line x1="416.0" y1="60" x2="416.0" y2="198" stroke="#f4f4f4"/>
<text x="416.0" y="209" text-anchor="middle" font-size="8" fill="#999">1k</text>
<line x1="451.0" y1="60" x2="451.0" y2="198" stroke="#f4f4f4"/>
<text x="451.0" y="209" text-anchor="middle" font-size="8" fill="#999">2k</text>
<line x1="486.0" y1="60" x2="486.0" y2="198" stroke="#f4f4f4"/>
<text x="486.0" y="209" text-anchor="middle" font-size="8" fill="#999">4k</text>
<rect x="506" y="60" width="210" height="138" fill="none" stroke="#e2e2e2"/>
<line x1="506" y1="115.76276119065531" x2="716" y2="115.76276119065531" stroke="#d33" stroke-dasharray="4 3"/>
<text x="502" y="201.0" text-anchor="end" font-size="9" fill="#999">0.5×</text>
<text x="502" y="118.76276119065531" text-anchor="end" font-size="9" fill="#999">1.0×</text>
<text x="502" y="63.0" text-anchor="end" font-size="9" fill="#999">1.6×</text>
<polygon points="506.0,84.5 541.0,97.4 576.0,109.3 611.0,112.8 646.0,117.1 681.0,106.7 716.0,111.0 716.0,113.6 681.0,127.7 646.0,121.6 611.0,116.1 576.0,114.6 541.0,100.5 506.0,86.0" fill="#d62728" opacity="0.11"/>
<polyline points="506.0,85.4 541.0,98.8 576.0,111.5 611.0,114.3 646.0,121.1 681.0,121.5 716.0,112.9" fill="none" stroke="#d62728" stroke-width="1.6"/>
<circle cx="506.0" cy="85.4" r="2" fill="#d62728"/>
<circle cx="541.0" cy="98.8" r="2" fill="#d62728"/>
<circle cx="576.0" cy="111.5" r="2" fill="#d62728"/>
<circle cx="611.0" cy="114.3" r="2" fill="#d62728"/>
<circle cx="646.0" cy="121.1" r="2" fill="#d62728"/>
<circle cx="681.0" cy="121.5" r="2" fill="#d62728"/>
<circle cx="716.0" cy="112.9" r="2" fill="#d62728"/>
<polygon points="506.0,115.1 541.0,114.4 576.0,110.1 611.0,90.1 646.0,119.1 681.0,108.1 716.0,96.0 716.0,103.3 681.0,112.8 646.0,133.0 611.0,111.4 576.0,115.6 541.0,115.5 506.0,116.3" fill="#2ca02c" opacity="0.11"/>
<polyline points="506.0,115.5 541.0,114.9 576.0,112.8 611.0,103.1 646.0,125.5 681.0,112.1 716.0,97.8" fill="none" stroke="#2ca02c" stroke-width="1.6"/>
<circle cx="506.0" cy="115.5" r="2" fill="#2ca02c"/>
<circle cx="541.0" cy="114.9" r="2" fill="#2ca02c"/>
<circle cx="576.0" cy="112.8" r="2" fill="#2ca02c"/>
<circle cx="611.0" cy="103.1" r="2" fill="#2ca02c"/>
<circle cx="646.0" cy="125.5" r="2" fill="#2ca02c"/>
<circle cx="681.0" cy="112.1" r="2" fill="#2ca02c"/>
<circle cx="716.0" cy="97.8" r="2" fill="#2ca02c"/>
<polygon points="506.0,106.2 541.0,109.4 576.0,91.6 611.0,114.0 646.0,122.2 681.0,115.6 716.0,109.2 716.0,110.9 681.0,117.5 646.0,126.0 611.0,120.7 576.0,103.7 541.0,112.1 506.0,107.7" fill="#1f77b4" opacity="0.11"/>
<polyline points="506.0,107.0 541.0,111.0 576.0,97.9 611.0,119.0 646.0,124.9 681.0,116.4 716.0,109.8" fill="none" stroke="#1f77b4" stroke-width="1.6"/>
<circle cx="506.0" cy="107.0" r="2" fill="#1f77b4"/>
<circle cx="541.0" cy="111.0" r="2" fill="#1f77b4"/>
<circle cx="576.0" cy="97.9" r="2" fill="#1f77b4"/>
<circle cx="611.0" cy="119.0" r="2" fill="#1f77b4"/>
<circle cx="646.0" cy="124.9" r="2" fill="#1f77b4"/>
<circle cx="681.0" cy="116.4" r="2" fill="#1f77b4"/>
<circle cx="716.0" cy="109.8" r="2" fill="#1f77b4"/>
<text x="611.0" y="55" text-anchor="middle" font-size="12" font-weight="bold">zgemvC</text>
<line x1="506.0" y1="60" x2="506.0" y2="198" stroke="#f4f4f4"/>
<text x="506.0" y="209" text-anchor="middle" font-size="8" fill="#999">64</text>
<line x1="541.0" y1="60" x2="541.0" y2="198" stroke="#f4f4f4"/>
<text x="541.0" y="209" text-anchor="middle" font-size="8" fill="#999">128</text>
<line x1="576.0" y1="60" x2="576.0" y2="198" stroke="#f4f4f4"/>
<text x="576.0" y="209" text-anchor="middle" font-size="8" fill="#999">256</text>
<line x1="611.0" y1="60" x2="611.0" y2="198" stroke="#f4f4f4"/>
<text x="611.0" y="209" text-anchor="middle" font-size="8" fill="#999">512</text>
<line x1="646.0" y1="60" x2="646.0" y2="198" stroke="#f4f4f4"/>
<text x="646.0" y="209" text-anchor="middle" font-size="8" fill="#999">1k</text>
<line x1="681.0" y1="60" x2="681.0" y2="198" stroke="#f4f4f4"/>
<text x="681.0" y="209" text-anchor="middle" font-size="8" fill="#999">2k</text>
<line x1="716.0" y1="60" x2="716.0" y2="198" stroke="#f4f4f4"/>
<text x="716.0" y="209" text-anchor="middle" font-size="8" fill="#999">4k</text>
<rect x="736" y="60" width="210" height="138" fill="none" stroke="#e2e2e2"/>
<line x1="736" y1="119.50601833669393" x2="946" y2="119.50601833669393" stroke="#d33" stroke-dasharray="4 3"/>
<text x="732" y="201.0" text-anchor="end" font-size="9" fill="#999">0.5×</text>
<text x="732" y="122.50601833669393" text-anchor="end" font-size="9" fill="#999">1.0×</text>
<text x="732" y="63.08424950664093" text-anchor="end" font-size="9" fill="#999">1.69×</text>
<polygon points="736.0,68.7 771.0,70.5 806.0,81.2 841.0,79.5 876.0,81.8 911.0,113.2 946.0,116.6 946.0,118.3 911.0,115.5 876.0,87.7 841.0,84.8 806.0,85.5 771.0,76.6 736.0,70.8" fill="#d62728" opacity="0.11"/>
<polyline points="736.0,69.4 771.0,72.7 806.0,82.5 841.0,82.2 876.0,83.7 911.0,114.9 946.0,118.0" fill="none" stroke="#d62728" stroke-width="1.6"/>
<circle cx="736.0" cy="69.4" r="2" fill="#d62728"/>
<circle cx="771.0" cy="72.7" r="2" fill="#d62728"/>
<circle cx="806.0" cy="82.5" r="2" fill="#d62728"/>
<circle cx="841.0" cy="82.2" r="2" fill="#d62728"/>
<circle cx="876.0" cy="83.7" r="2" fill="#d62728"/>
<circle cx="911.0" cy="114.9" r="2" fill="#d62728"/>
<circle cx="946.0" cy="118.0" r="2" fill="#d62728"/>
<polygon points="736.0,108.9 771.0,108.4 806.0,115.0 841.0,115.0 876.0,116.6 911.0,122.9 946.0,123.9 946.0,127.2 911.0,126.6 876.0,123.3 841.0,119.4 806.0,118.3 771.0,110.5 736.0,113.2" fill="#2ca02c" opacity="0.11"/>
<polyline points="736.0,110.8 771.0,109.4 806.0,116.2 841.0,117.0 876.0,121.4 911.0,125.4 946.0,125.5" fill="none" stroke="#2ca02c" stroke-width="1.6"/>
<circle cx="736.0" cy="110.8" r="2" fill="#2ca02c"/>
<circle cx="771.0" cy="109.4" r="2" fill="#2ca02c"/>
<circle cx="806.0" cy="116.2" r="2" fill="#2ca02c"/>
<circle cx="841.0" cy="117.0" r="2" fill="#2ca02c"/>
<circle cx="876.0" cy="121.4" r="2" fill="#2ca02c"/>
<circle cx="911.0" cy="125.4" r="2" fill="#2ca02c"/>
<circle cx="946.0" cy="125.5" r="2" fill="#2ca02c"/>
<polygon points="736.0,98.0 771.0,92.7 806.0,103.1 841.0,93.1 876.0,121.9 911.0,121.2 946.0,121.1 946.0,121.9 911.0,126.5 876.0,138.8 841.0,115.2 806.0,118.9 771.0,110.2 736.0,104.3" fill="#1f77b4" opacity="0.11"/>
<polyline points="736.0,99.9 771.0,103.3 806.0,109.2 841.0,114.2 876.0,128.4 911.0,123.1 946.0,121.6" fill="none" stroke="#1f77b4" stroke-width="1.6"/>
<circle cx="736.0" cy="99.9" r="2" fill="#1f77b4"/>
<circle cx="771.0" cy="103.3" r="2" fill="#1f77b4"/>
<circle cx="806.0" cy="109.2" r="2" fill="#1f77b4"/>
<circle cx="841.0" cy="114.2" r="2" fill="#1f77b4"/>
<circle cx="876.0" cy="128.4" r="2" fill="#1f77b4"/>
<circle cx="911.0" cy="123.1" r="2" fill="#1f77b4"/>
<circle cx="946.0" cy="121.6" r="2" fill="#1f77b4"/>
<text x="841.0" y="55" text-anchor="middle" font-size="12" font-weight="bold">zgeru</text>
<line x1="736.0" y1="60" x2="736.0" y2="198" stroke="#f4f4f4"/>
<text x="736.0" y="209" text-anchor="middle" font-size="8" fill="#999">64</text>
<line x1="771.0" y1="60" x2="771.0" y2="198" stroke="#f4f4f4"/>
<text x="771.0" y="209" text-anchor="middle" font-size="8" fill="#999">128</text>
<line x1="806.0" y1="60" x2="806.0" y2="198" stroke="#f4f4f4"/>
<text x="806.0" y="209" text-anchor="middle" font-size="8" fill="#999">256</text>
<line x1="841.0" y1="60" x2="841.0" y2="198" stroke="#f4f4f4"/>
<text x="841.0" y="209" text-anchor="middle" font-size="8" fill="#999">512</text>
<line x1="876.0" y1="60" x2="876.0" y2="198" stroke="#f4f4f4"/>
<text x="876.0" y="209" text-anchor="middle" font-size="8" fill="#999">1k</text>
<line x1="911.0" y1="60" x2="911.0" y2="198" stroke="#f4f4f4"/>
<text x="911.0" y="209" text-anchor="middle" font-size="8" fill="#999">2k</text>
<line x1="946.0" y1="60" x2="946.0" y2="198" stroke="#f4f4f4"/>
<text x="946.0" y="209" text-anchor="middle" font-size="8" fill="#999">4k</text>
<rect x="46" y="232" width="210" height="138" fill="none" stroke="#e2e2e2"/>
<line x1="46" y1="319.6848176383651" x2="256" y2="319.6848176383651" stroke="#d33" stroke-dasharray="4 3"/>
<text x="42" y="373.0" text-anchor="end" font-size="9" fill="#999">0.5×</text>
<text x="42" y="322.6848176383651" text-anchor="end" font-size="9" fill="#999">1.0×</text>
<polygon points="46.0,300.6 81.0,306.7 116.0,314.1 151.0,317.8 186.0,318.3 221.0,323.6 256.0,320.7 256.0,325.9 221.0,325.4 186.0,321.1 151.0,319.6 116.0,319.1 81.0,308.0 46.0,301.6" fill="#d62728" opacity="0.11"/>
<polyline points="46.0,300.9 81.0,307.1 116.0,316.0 151.0,318.5 186.0,319.3 221.0,324.8 256.0,324.5" fill="none" stroke="#d62728" stroke-width="1.6"/>
<circle cx="46.0" cy="300.9" r="2" fill="#d62728"/>
<circle cx="81.0" cy="307.1" r="2" fill="#d62728"/>
<circle cx="116.0" cy="316.0" r="2" fill="#d62728"/>
<circle cx="151.0" cy="318.5" r="2" fill="#d62728"/>
<circle cx="186.0" cy="319.3" r="2" fill="#d62728"/>
<circle cx="221.0" cy="324.8" r="2" fill="#d62728"/>
<circle cx="256.0" cy="324.5" r="2" fill="#d62728"/>
<polygon points="46.0,275.6 81.0,265.4 116.0,255.8 151.0,254.0 186.0,252.3 221.0,249.2 256.0,249.1 256.0,253.0 221.0,250.3 186.0,254.8 151.0,256.3 116.0,259.2 81.0,266.1 46.0,276.5" fill="#2ca02c" opacity="0.11"/>
<polyline points="46.0,276.2 81.0,265.8 116.0,257.9 151.0,255.4 186.0,253.5 221.0,250.0 256.0,252.3" fill="none" stroke="#2ca02c" stroke-width="1.6"/>
<circle cx="46.0" cy="276.2" r="2" fill="#2ca02c"/>
<circle cx="81.0" cy="265.8" r="2" fill="#2ca02c"/>
<circle cx="116.0" cy="257.9" r="2" fill="#2ca02c"/>
<circle cx="151.0" cy="255.4" r="2" fill="#2ca02c"/>
<circle cx="186.0" cy="253.5" r="2" fill="#2ca02c"/>
<circle cx="221.0" cy="250.0" r="2" fill="#2ca02c"/>
<circle cx="256.0" cy="252.3" r="2" fill="#2ca02c"/>
<polygon points="46.0,270.0 81.0,253.8 116.0,243.9 151.0,237.6 186.0,238.5 221.0,263.5 256.0,250.2 256.0,263.0 221.0,266.5 186.0,246.7 151.0,239.5 116.0,247.2 81.0,255.8 46.0,270.8" fill="#1f77b4" opacity="0.11"/>
<polyline points="46.0,270.2 81.0,255.7 116.0,245.3 151.0,238.6 186.0,241.9 221.0,265.6 256.0,261.6" fill="none" stroke="#1f77b4" stroke-width="1.6"/>
<circle cx="46.0" cy="270.2" r="2" fill="#1f77b4"/>
<circle cx="81.0" cy="255.7" r="2" fill="#1f77b4"/>
<circle cx="116.0" cy="245.3" r="2" fill="#1f77b4"/>
<circle cx="151.0" cy="238.6" r="2" fill="#1f77b4"/>
<circle cx="186.0" cy="241.9" r="2" fill="#1f77b4"/>
<circle cx="221.0" cy="265.6" r="2" fill="#1f77b4"/>
<circle cx="256.0" cy="261.6" r="2" fill="#1f77b4"/>
<text x="151.0" y="227" text-anchor="middle" font-size="12" font-weight="bold">zhemv</text>
<line x1="46.0" y1="232" x2="46.0" y2="370" stroke="#f4f4f4"/>
<text x="46.0" y="381" text-anchor="middle" font-size="8" fill="#999">64</text>
<line x1="81.0" y1="232" x2="81.0" y2="370" stroke="#f4f4f4"/>
<text x="81.0" y="381" text-anchor="middle" font-size="8" fill="#999">128</text>
<line x1="116.0" y1="232" x2="116.0" y2="370" stroke="#f4f4f4"/>
<text x="116.0" y="381" text-anchor="middle" font-size="8" fill="#999">256</text>
<line x1="151.0" y1="232" x2="151.0" y2="370" stroke="#f4f4f4"/>
<text x="151.0" y="381" text-anchor="middle" font-size="8" fill="#999">512</text>
<line x1="186.0" y1="232" x2="186.0" y2="370" stroke="#f4f4f4"/>
<text x="186.0" y="381" text-anchor="middle" font-size="8" fill="#999">1k</text>
<line x1="221.0" y1="232" x2="221.0" y2="370" stroke="#f4f4f4"/>
<text x="221.0" y="381" text-anchor="middle" font-size="8" fill="#999">2k</text>
<line x1="256.0" y1="232" x2="256.0" y2="370" stroke="#f4f4f4"/>
<text x="256.0" y="381" text-anchor="middle" font-size="8" fill="#999">4k</text>
<rect x="276" y="232" width="210" height="138" fill="none" stroke="#e2e2e2"/>
<line x1="276" y1="307.88282686844536" x2="486" y2="307.88282686844536" stroke="#d33" stroke-dasharray="4 3"/>
<text x="272" y="373.0" text-anchor="end" font-size="9" fill="#999">0.5×</text>
<text x="272" y="310.88282686844536" text-anchor="end" font-size="9" fill="#999">1.0×</text>
<text x="272" y="235.07937978356975" text-anchor="end" font-size="9" fill="#999">2.33×</text>
<polygon points="276.0,238.9 311.0,246.8 346.0,274.9 381.0,260.3 416.0,255.0 451.0,245.5 486.0,269.8 486.0,271.3 451.0,252.0 416.0,258.4 381.0,263.7 346.0,277.1 311.0,250.3 276.0,241.4" fill="#d62728" opacity="0.11"/>
<polyline points="276.0,239.6 311.0,247.7 346.0,276.1 381.0,262.7 416.0,256.9 451.0,248.2 486.0,270.5" fill="none" stroke="#d62728" stroke-width="1.6"/>
<circle cx="276.0" cy="239.6" r="2" fill="#d62728"/>
<circle cx="311.0" cy="247.7" r="2" fill="#d62728"/>
<circle cx="346.0" cy="276.1" r="2" fill="#d62728"/>
<circle cx="381.0" cy="262.7" r="2" fill="#d62728"/>
<circle cx="416.0" cy="256.9" r="2" fill="#d62728"/>
<circle cx="451.0" cy="248.2" r="2" fill="#d62728"/>
<circle cx="486.0" cy="270.5" r="2" fill="#d62728"/>
<polygon points="276.0,260.9 311.0,263.6 346.0,279.8 381.0,297.0 416.0,298.1 451.0,274.6 486.0,273.3 486.0,276.4 451.0,280.3 416.0,308.0 381.0,305.2 346.0,284.0 311.0,266.0 276.0,267.7" fill="#2ca02c" opacity="0.11"/>
<polyline points="276.0,262.5 311.0,264.6 346.0,282.2 381.0,301.3 416.0,300.2 451.0,277.6 486.0,275.3" fill="none" stroke="#2ca02c" stroke-width="1.6"/>
<circle cx="276.0" cy="262.5" r="2" fill="#2ca02c"/>
<circle cx="311.0" cy="264.6" r="2" fill="#2ca02c"/>
<circle cx="346.0" cy="282.2" r="2" fill="#2ca02c"/>
<circle cx="381.0" cy="301.3" r="2" fill="#2ca02c"/>
<circle cx="416.0" cy="300.2" r="2" fill="#2ca02c"/>
<circle cx="451.0" cy="277.6" r="2" fill="#2ca02c"/>
<circle cx="486.0" cy="275.3" r="2" fill="#2ca02c"/>
<polygon points="276.0,255.9 311.0,263.6 346.0,277.4 381.0,294.3 416.0,290.4 451.0,269.0 486.0,265.7 486.0,267.8 451.0,282.0 416.0,309.5 381.0,302.2 346.0,296.6 311.0,272.8 276.0,259.9" fill="#1f77b4" opacity="0.11"/>
<polyline points="276.0,257.3 311.0,266.9 346.0,283.8 381.0,299.2 416.0,300.3 451.0,270.4 486.0,267.1" fill="none" stroke="#1f77b4" stroke-width="1.6"/>
<circle cx="276.0" cy="257.3" r="2" fill="#1f77b4"/>
<circle cx="311.0" cy="266.9" r="2" fill="#1f77b4"/>
<circle cx="346.0" cy="283.8" r="2" fill="#1f77b4"/>
<circle cx="381.0" cy="299.2" r="2" fill="#1f77b4"/>
<circle cx="416.0" cy="300.3" r="2" fill="#1f77b4"/>
<circle cx="451.0" cy="270.4" r="2" fill="#1f77b4"/>
<circle cx="486.0" cy="267.1" r="2" fill="#1f77b4"/>
<text x="381.0" y="227" text-anchor="middle" font-size="12" font-weight="bold">ztrmv</text>
<line x1="276.0" y1="232" x2="276.0" y2="370" stroke="#f4f4f4"/>
<text x="276.0" y="381" text-anchor="middle" font-size="8" fill="#999">64</text>
<line x1="311.0" y1="232" x2="311.0" y2="370" stroke="#f4f4f4"/>
<text x="311.0" y="381" text-anchor="middle" font-size="8" fill="#999">128</text>
<line x1="346.0" y1="232" x2="346.0" y2="370" stroke="#f4f4f4"/>
<text x="346.0" y="381" text-anchor="middle" font-size="8" fill="#999">256</text>
<line x1="381.0" y1="232" x2="381.0" y2="370" stroke="#f4f4f4"/>
<text x="381.0" y="381" text-anchor="middle" font-size="8" fill="#999">512</text>
<line x1="416.0" y1="232" x2="416.0" y2="370" stroke="#f4f4f4"/>
<text x="416.0" y="381" text-anchor="middle" font-size="8" fill="#999">1k</text>
<line x1="451.0" y1="232" x2="451.0" y2="370" stroke="#f4f4f4"/>
<text x="451.0" y="381" text-anchor="middle" font-size="8" fill="#999">2k</text>
<line x1="486.0" y1="232" x2="486.0" y2="370" stroke="#f4f4f4"/>
<text x="486.0" y="381" text-anchor="middle" font-size="8" fill="#999">4k</text>
<rect x="506" y="232" width="210" height="138" fill="none" stroke="#e2e2e2"/>
<line x1="506" y1="291.0546928729339" x2="716" y2="291.0546928729339" stroke="#d33" stroke-dasharray="4 3"/>
<text x="502" y="373.0" text-anchor="end" font-size="9" fill="#999">0.5×</text>
<text x="502" y="294.0546928729339" text-anchor="end" font-size="9" fill="#999">1.0×</text>
<polygon points="506.0,240.8 541.0,254.7 576.0,280.1 611.0,268.2 646.0,264.9 681.0,271.8 716.0,286.5 716.0,289.9 681.0,280.4 646.0,268.0 611.0,271.4 576.0,287.7 541.0,260.0 506.0,243.5" fill="#d62728" opacity="0.11"/>
<polyline points="506.0,241.4 541.0,256.7 576.0,285.1 611.0,269.0 646.0,266.0 681.0,276.7 716.0,288.6" fill="none" stroke="#d62728" stroke-width="1.6"/>
<circle cx="506.0" cy="241.4" r="2" fill="#d62728"/>
<circle cx="541.0" cy="256.7" r="2" fill="#d62728"/>
<circle cx="576.0" cy="285.1" r="2" fill="#d62728"/>
<circle cx="611.0" cy="269.0" r="2" fill="#d62728"/>
<circle cx="646.0" cy="266.0" r="2" fill="#d62728"/>
<circle cx="681.0" cy="276.7" r="2" fill="#d62728"/>
<circle cx="716.0" cy="288.6" r="2" fill="#d62728"/>
<polygon points="506.0,252.5 541.0,251.8 576.0,254.5 611.0,270.3 646.0,278.9 681.0,273.2 716.0,275.4 716.0,279.5 681.0,280.7 646.0,287.6 611.0,272.3 576.0,257.9 541.0,253.5 506.0,253.8" fill="#2ca02c" opacity="0.11"/>
<polyline points="506.0,252.8 541.0,252.6 576.0,256.4 611.0,271.4 646.0,282.2 681.0,276.2 716.0,276.4" fill="none" stroke="#2ca02c" stroke-width="1.6"/>
<circle cx="506.0" cy="252.8" r="2" fill="#2ca02c"/>
<circle cx="541.0" cy="252.6" r="2" fill="#2ca02c"/>
<circle cx="576.0" cy="256.4" r="2" fill="#2ca02c"/>
<circle cx="611.0" cy="271.4" r="2" fill="#2ca02c"/>
<circle cx="646.0" cy="282.2" r="2" fill="#2ca02c"/>
<circle cx="681.0" cy="276.2" r="2" fill="#2ca02c"/>
<circle cx="716.0" cy="276.4" r="2" fill="#2ca02c"/>
<polygon points="506.0,242.1 541.0,246.3 576.0,250.7 611.0,265.7 646.0,290.6 681.0,282.2 716.0,284.0 716.0,285.8 681.0,291.1 646.0,300.2 611.0,271.4 576.0,265.5 541.0,254.9 506.0,243.6" fill="#1f77b4" opacity="0.11"/>
<polyline points="506.0,242.8 541.0,249.1 576.0,255.4 611.0,268.5 646.0,296.7 681.0,286.9 716.0,285.3" fill="none" stroke="#1f77b4" stroke-width="1.6"/>
<circle cx="506.0" cy="242.8" r="2" fill="#1f77b4"/>
<circle cx="541.0" cy="249.1" r="2" fill="#1f77b4"/>
<circle cx="576.0" cy="255.4" r="2" fill="#1f77b4"/>
<circle cx="611.0" cy="268.5" r="2" fill="#1f77b4"/>
<circle cx="646.0" cy="296.7" r="2" fill="#1f77b4"/>
<circle cx="681.0" cy="286.9" r="2" fill="#1f77b4"/>
<circle cx="716.0" cy="285.3" r="2" fill="#1f77b4"/>
<text x="611.0" y="227" text-anchor="middle" font-size="12" font-weight="bold">ztrsv</text>
<line x1="506.0" y1="232" x2="506.0" y2="370" stroke="#f4f4f4"/>
<text x="506.0" y="381" text-anchor="middle" font-size="8" fill="#999">64</text>
<line x1="541.0" y1="232" x2="541.0" y2="370" stroke="#f4f4f4"/>
<text x="541.0" y="381" text-anchor="middle" font-size="8" fill="#999">128</text>
<line x1="576.0" y1="232" x2="576.0" y2="370" stroke="#f4f4f4"/>
<text x="576.0" y="381" text-anchor="middle" font-size="8" fill="#999">256</text>
<line x1="611.0" y1="232" x2="611.0" y2="370" stroke="#f4f4f4"/>
<text x="611.0" y="381" text-anchor="middle" font-size="8" fill="#999">512</text>
<line x1="646.0" y1="232" x2="646.0" y2="370" stroke="#f4f4f4"/>
<text x="646.0" y="381" text-anchor="middle" font-size="8" fill="#999">1k</text>
<line x1="681.0" y1="232" x2="681.0" y2="370" stroke="#f4f4f4"/>
<text x="681.0" y="381" text-anchor="middle" font-size="8" fill="#999">2k</text>
<line x1="716.0" y1="232" x2="716.0" y2="370" stroke="#f4f4f4"/>
<text x="716.0" y="381" text-anchor="middle" font-size="8" fill="#999">4k</text>
<rect x="736" y="232" width="210" height="138" fill="none" stroke="#e2e2e2"/>
<line x1="736" y1="339.20561558439283" x2="946" y2="339.20561558439283" stroke="#d33" stroke-dasharray="4 3"/>
<text x="732" y="373.0" text-anchor="end" font-size="9" fill="#999">0.5×</text>
<text x="732" y="342.20561558439283" text-anchor="end" font-size="9" fill="#999">1.0×</text>
<polygon points="736.0,269.4 771.0,257.8 806.0,251.5 841.0,246.8 876.0,248.7 911.0,258.3 946.0,266.6 946.0,267.0 911.0,260.2 876.0,249.1 841.0,248.7 806.0,252.3 771.0,258.7 736.0,270.0" fill="#d62728" opacity="0.11"/>
<polyline points="736.0,269.5 771.0,258.1 806.0,252.0 841.0,248.4 876.0,248.8 911.0,258.6 946.0,266.7" fill="none" stroke="#d62728" stroke-width="1.6"/>
<circle cx="736.0" cy="269.5" r="2" fill="#d62728"/>
<circle cx="771.0" cy="258.1" r="2" fill="#d62728"/>
<circle cx="806.0" cy="252.0" r="2" fill="#d62728"/>
<circle cx="841.0" cy="248.4" r="2" fill="#d62728"/>
<circle cx="876.0" cy="248.8" r="2" fill="#d62728"/>
<circle cx="911.0" cy="258.6" r="2" fill="#d62728"/>
<circle cx="946.0" cy="266.7" r="2" fill="#d62728"/>
<polygon points="736.0,269.6 771.0,253.1 806.0,243.2 841.0,237.9 876.0,235.4 911.0,254.2 946.0,258.9 946.0,260.7 911.0,255.4 876.0,236.2 841.0,238.4 806.0,244.2 771.0,253.5 736.0,271.9" fill="#2ca02c" opacity="0.11"/>
<polyline points="736.0,270.0 771.0,253.4 806.0,243.9 841.0,238.1 876.0,235.8 911.0,255.0 946.0,259.0" fill="none" stroke="#2ca02c" stroke-width="1.6"/>
<circle cx="736.0" cy="270.0" r="2" fill="#2ca02c"/>
<circle cx="771.0" cy="253.4" r="2" fill="#2ca02c"/>
<circle cx="806.0" cy="243.9" r="2" fill="#2ca02c"/>
<circle cx="841.0" cy="238.1" r="2" fill="#2ca02c"/>
<circle cx="876.0" cy="235.8" r="2" fill="#2ca02c"/>
<circle cx="911.0" cy="255.0" r="2" fill="#2ca02c"/>
<circle cx="946.0" cy="259.0" r="2" fill="#2ca02c"/>
<polygon points="736.0,271.1 771.0,256.3 806.0,246.3 841.0,241.2 876.0,246.0 911.0,271.7 946.0,276.8 946.0,277.1 911.0,278.0 876.0,249.2 841.0,242.2 806.0,247.1 771.0,256.9 736.0,272.8" fill="#1f77b4" opacity="0.11"/>
<polyline points="736.0,271.6 771.0,256.7 806.0,246.6 841.0,241.5 876.0,247.1 911.0,275.5 946.0,276.9" fill="none" stroke="#1f77b4" stroke-width="1.6"/>
<circle cx="736.0" cy="271.6" r="2" fill="#1f77b4"/>
<circle cx="771.0" cy="256.7" r="2" fill="#1f77b4"/>
<circle cx="806.0" cy="246.6" r="2" fill="#1f77b4"/>
<circle cx="841.0" cy="241.5" r="2" fill="#1f77b4"/>
<circle cx="876.0" cy="247.1" r="2" fill="#1f77b4"/>
<circle cx="911.0" cy="275.5" r="2" fill="#1f77b4"/>
<circle cx="946.0" cy="276.9" r="2" fill="#1f77b4"/>
<text x="841.0" y="227" text-anchor="middle" font-size="12" font-weight="bold">zhpmv</text>
<line x1="736.0" y1="232" x2="736.0" y2="370" stroke="#f4f4f4"/>
<text x="736.0" y="381" text-anchor="middle" font-size="8" fill="#999">64</text>
<line x1="771.0" y1="232" x2="771.0" y2="370" stroke="#f4f4f4"/>
<text x="771.0" y="381" text-anchor="middle" font-size="8" fill="#999">128</text>
<line x1="806.0" y1="232" x2="806.0" y2="370" stroke="#f4f4f4"/>
<text x="806.0" y="381" text-anchor="middle" font-size="8" fill="#999">256</text>
<line x1="841.0" y1="232" x2="841.0" y2="370" stroke="#f4f4f4"/>
<text x="841.0" y="381" text-anchor="middle" font-size="8" fill="#999">512</text>
<line x1="876.0" y1="232" x2="876.0" y2="370" stroke="#f4f4f4"/>
<text x="876.0" y="381" text-anchor="middle" font-size="8" fill="#999">1k</text>
<line x1="911.0" y1="232" x2="911.0" y2="370" stroke="#f4f4f4"/>
<text x="911.0" y="381" text-anchor="middle" font-size="8" fill="#999">2k</text>
<line x1="946.0" y1="232" x2="946.0" y2="370" stroke="#f4f4f4"/>
<text x="946.0" y="381" text-anchor="middle" font-size="8" fill="#999">4k</text>
<rect x="46" y="404" width="210" height="138" fill="none" stroke="#e2e2e2"/>
<line x1="46" y1="485.48567813862394" x2="256" y2="485.48567813862394" stroke="#d33" stroke-dasharray="4 3"/>
<text x="42" y="545.0" text-anchor="end" font-size="9" fill="#999">0.5×</text>
<text x="42" y="488.48567813862394" text-anchor="end" font-size="9" fill="#999">1.0×</text>
<polygon points="46.0,420.9 81.0,422.4 116.0,423.5 151.0,423.9 186.0,427.2 221.0,426.9 256.0,427.4 256.0,428.9 221.0,429.2 186.0,429.6 151.0,427.0 116.0,426.7 81.0,427.2 46.0,427.8" fill="#d62728" opacity="0.11"/>
<polyline points="46.0,422.0 81.0,424.4 116.0,424.1 151.0,424.9 186.0,428.6 221.0,427.7 256.0,428.0" fill="none" stroke="#d62728" stroke-width="1.6"/>
<circle cx="46.0" cy="422.0" r="2" fill="#d62728"/>
<circle cx="81.0" cy="424.4" r="2" fill="#d62728"/>
<circle cx="116.0" cy="424.1" r="2" fill="#d62728"/>
<circle cx="151.0" cy="424.9" r="2" fill="#d62728"/>
<circle cx="186.0" cy="428.6" r="2" fill="#d62728"/>
<circle cx="221.0" cy="427.7" r="2" fill="#d62728"/>
<circle cx="256.0" cy="428.0" r="2" fill="#d62728"/>
<polygon points="46.0,412.3 81.0,410.3 116.0,412.6 151.0,413.2 186.0,413.4 221.0,414.5 256.0,415.2 256.0,416.1 221.0,415.9 186.0,414.8 151.0,414.1 116.0,414.7 81.0,416.7 46.0,418.7" fill="#2ca02c" opacity="0.11"/>
<polyline points="46.0,413.0 81.0,413.5 116.0,413.8 151.0,413.7 186.0,413.9 221.0,415.1 256.0,415.6" fill="none" stroke="#2ca02c" stroke-width="1.6"/>
<circle cx="46.0" cy="413.0" r="2" fill="#2ca02c"/>
<circle cx="81.0" cy="413.5" r="2" fill="#2ca02c"/>
<circle cx="116.0" cy="413.8" r="2" fill="#2ca02c"/>
<circle cx="151.0" cy="413.7" r="2" fill="#2ca02c"/>
<circle cx="186.0" cy="413.9" r="2" fill="#2ca02c"/>
<circle cx="221.0" cy="415.1" r="2" fill="#2ca02c"/>
<circle cx="256.0" cy="415.6" r="2" fill="#2ca02c"/>
<polygon points="46.0,429.7 81.0,430.1 116.0,436.0 151.0,436.1 186.0,436.5 221.0,438.2 256.0,438.5 256.0,440.4 221.0,440.2 186.0,438.1 151.0,438.7 116.0,438.4 81.0,442.6 46.0,448.9" fill="#1f77b4" opacity="0.11"/>
<polyline points="46.0,430.4 81.0,432.2 116.0,436.9 151.0,436.9 186.0,437.3 221.0,439.2 256.0,439.4" fill="none" stroke="#1f77b4" stroke-width="1.6"/>
<circle cx="46.0" cy="430.4" r="2" fill="#1f77b4"/>
<circle cx="81.0" cy="432.2" r="2" fill="#1f77b4"/>
<circle cx="116.0" cy="436.9" r="2" fill="#1f77b4"/>
<circle cx="151.0" cy="436.9" r="2" fill="#1f77b4"/>
<circle cx="186.0" cy="437.3" r="2" fill="#1f77b4"/>
<circle cx="221.0" cy="439.2" r="2" fill="#1f77b4"/>
<circle cx="256.0" cy="439.4" r="2" fill="#1f77b4"/>
<text x="151.0" y="399" text-anchor="middle" font-size="12" font-weight="bold">zgbmvN</text>
<line x1="46.0" y1="404" x2="46.0" y2="542" stroke="#f4f4f4"/>
<text x="46.0" y="553" text-anchor="middle" font-size="8" fill="#999">64</text>
<line x1="81.0" y1="404" x2="81.0" y2="542" stroke="#f4f4f4"/>
<text x="81.0" y="553" text-anchor="middle" font-size="8" fill="#999">128</text>
<line x1="116.0" y1="404" x2="116.0" y2="542" stroke="#f4f4f4"/>
<text x="116.0" y="553" text-anchor="middle" font-size="8" fill="#999">256</text>
<line x1="151.0" y1="404" x2="151.0" y2="542" stroke="#f4f4f4"/>
<text x="151.0" y="553" text-anchor="middle" font-size="8" fill="#999">512</text>
<line x1="186.0" y1="404" x2="186.0" y2="542" stroke="#f4f4f4"/>
<text x="186.0" y="553" text-anchor="middle" font-size="8" fill="#999">1k</text>
<line x1="221.0" y1="404" x2="221.0" y2="542" stroke="#f4f4f4"/>
<text x="221.0" y="553" text-anchor="middle" font-size="8" fill="#999">2k</text>
<line x1="256.0" y1="404" x2="256.0" y2="542" stroke="#f4f4f4"/>
<text x="256.0" y="553" text-anchor="middle" font-size="8" fill="#999">4k</text>
<rect x="276" y="404" width="210" height="138" fill="none" stroke="#e2e2e2"/>
<line x1="276" y1="489.3615273760185" x2="486" y2="489.3615273760185" stroke="#d33" stroke-dasharray="4 3"/>
<text x="272" y="545.0" text-anchor="end" font-size="9" fill="#999">0.5×</text>
<text x="272" y="492.3615273760185" text-anchor="end" font-size="9" fill="#999">1.0×</text>
<polygon points="276.0,414.5 311.0,410.8 346.0,410.3 381.0,410.0 416.0,409.8 451.0,410.3 486.0,410.2 486.0,410.6 451.0,410.7 416.0,410.5 381.0,411.0 346.0,411.6 311.0,414.4 276.0,416.9" fill="#d62728" opacity="0.11"/>
<polyline points="276.0,414.8 311.0,412.1 346.0,410.7 381.0,410.2 416.0,410.2 451.0,410.5 486.0,410.4" fill="none" stroke="#d62728" stroke-width="1.6"/>
<circle cx="276.0" cy="414.8" r="2" fill="#d62728"/>
<circle cx="311.0" cy="412.1" r="2" fill="#d62728"/>
<circle cx="346.0" cy="410.7" r="2" fill="#d62728"/>
<circle cx="381.0" cy="410.2" r="2" fill="#d62728"/>
<circle cx="416.0" cy="410.2" r="2" fill="#d62728"/>
<circle cx="451.0" cy="410.5" r="2" fill="#d62728"/>
<circle cx="486.0" cy="410.4" r="2" fill="#d62728"/>
<polygon points="276.0,426.6 311.0,423.3 346.0,422.8 381.0,421.6 416.0,421.8 451.0,421.9 486.0,422.0 486.0,422.4 451.0,422.4 416.0,422.2 381.0,422.6 346.0,423.8 311.0,425.0 276.0,429.3" fill="#2ca02c" opacity="0.11"/>
<polyline points="276.0,427.0 311.0,424.5 346.0,423.1 381.0,422.2 416.0,421.9 451.0,422.0 486.0,422.1" fill="none" stroke="#2ca02c" stroke-width="1.6"/>
<circle cx="276.0" cy="427.0" r="2" fill="#2ca02c"/>
<circle cx="311.0" cy="424.5" r="2" fill="#2ca02c"/>
<circle cx="346.0" cy="423.1" r="2" fill="#2ca02c"/>
<circle cx="381.0" cy="422.2" r="2" fill="#2ca02c"/>
<circle cx="416.0" cy="421.9" r="2" fill="#2ca02c"/>
<circle cx="451.0" cy="422.0" r="2" fill="#2ca02c"/>
<circle cx="486.0" cy="422.1" r="2" fill="#2ca02c"/>
<polygon points="276.0,424.2 311.0,421.2 346.0,420.4 381.0,419.8 416.0,419.7 451.0,419.8 486.0,420.3 486.0,422.0 451.0,421.0 416.0,420.9 381.0,421.9 346.0,424.4 311.0,428.8 276.0,429.0" fill="#1f77b4" opacity="0.11"/>
<polyline points="276.0,424.6 311.0,423.2 346.0,421.2 381.0,420.2 416.0,420.1 451.0,420.2 486.0,420.5" fill="none" stroke="#1f77b4" stroke-width="1.6"/>
<circle cx="276.0" cy="424.6" r="2" fill="#1f77b4"/>
<circle cx="311.0" cy="423.2" r="2" fill="#1f77b4"/>
<circle cx="346.0" cy="421.2" r="2" fill="#1f77b4"/>
<circle cx="381.0" cy="420.2" r="2" fill="#1f77b4"/>
<circle cx="416.0" cy="420.1" r="2" fill="#1f77b4"/>
<circle cx="451.0" cy="420.2" r="2" fill="#1f77b4"/>
<circle cx="486.0" cy="420.5" r="2" fill="#1f77b4"/>
<text x="381.0" y="399" text-anchor="middle" font-size="12" font-weight="bold">zhbmv</text>
<line x1="276.0" y1="404" x2="276.0" y2="542" stroke="#f4f4f4"/>
<text x="276.0" y="553" text-anchor="middle" font-size="8" fill="#999">64</text>
<line x1="311.0" y1="404" x2="311.0" y2="542" stroke="#f4f4f4"/>
<text x="311.0" y="553" text-anchor="middle" font-size="8" fill="#999">128</text>
<line x1="346.0" y1="404" x2="346.0" y2="542" stroke="#f4f4f4"/>
<text x="346.0" y="553" text-anchor="middle" font-size="8" fill="#999">256</text>
<line x1="381.0" y1="404" x2="381.0" y2="542" stroke="#f4f4f4"/>
<text x="381.0" y="553" text-anchor="middle" font-size="8" fill="#999">512</text>
<line x1="416.0" y1="404" x2="416.0" y2="542" stroke="#f4f4f4"/>
<text x="416.0" y="553" text-anchor="middle" font-size="8" fill="#999">1k</text>
<line x1="451.0" y1="404" x2="451.0" y2="542" stroke="#f4f4f4"/>
<text x="451.0" y="553" text-anchor="middle" font-size="8" fill="#999">2k</text>
<line x1="486.0" y1="404" x2="486.0" y2="542" stroke="#f4f4f4"/>
<text x="486.0" y="553" text-anchor="middle" font-size="8" fill="#999">4k</text>
</svg>
