<svg xmlns="http://www.w3.org/2000/svg" width="900" height="440" font-family="sans-serif">
<rect width="900" height="440" fill="white"/>
<text x="450.0" y="28" text-anchor="middle" font-size="18" font-weight="bold">Complex BLAS-1: PureBLAS / OpenBLAS (AVX2, 1 thread, ComplexF64)</text>
<line x1="60" y1="358.0" x2="880" y2="358.0" stroke="#eee"/>
<text x="52" y="362.0" text-anchor="end" font-size="11" fill="#666">0×</text>
<line x1="60" y1="339.7106936510708" x2="880" y2="339.7106936510708" stroke="#eee"/>
<text x="52" y="343.7106936510708" text-anchor="end" font-size="11" fill="#666">0.5×</text>
<line x1="60" y1="321.4213873021416" x2="880" y2="321.4213873021416" stroke="#eee"/>
<text x="52" y="325.4213873021416" text-anchor="end" font-size="11" fill="#666">1×</text>
<line x1="60" y1="303.1320809532124" x2="880" y2="303.1320809532124" stroke="#eee"/>
<text x="52" y="307.1320809532124" text-anchor="end" font-size="11" fill="#666">1.5×</text>
<line x1="60" y1="321.4213873021416" x2="880" y2="321.4213873021416" stroke="#888" stroke-width="1"/>
<line x1="60" y1="322.88453181005593" x2="880" y2="322.88453181005593" stroke="#d33" stroke-width="1.5" stroke-dasharray="6 4"/>
<text x="880" y="317.88453181005593" text-anchor="end" font-size="11" fill="#d33">0.96× gate</text>
<polygon points="119.4,325.3 119.7,325.1 120.2,324.9 120.8,324.8 121.5,324.6 122.3,324.5 123.2,324.3 124.3,324.1 125.4,324.0 126.6,323.8 128.0,323.7 129.6,323.5 131.5,323.4 133.7,323.2 136.4,323.0 139.6,322.9 143.3,322.7 147.6,322.6 152.1,322.4 156.7,322.3 161.0,322.1 164.5,321.9 166.8,321.8 167.8,321.6 167.1,321.5 164.8,321.3 161.1,321.1 156.2,321.0 150.8,320.8 145.1,320.7 139.6,320.5 134.7,320.4 130.4,320.2 127.0,320.0 124.3,319.9 122.3,319.7 121.0,319.6 120.0,319.4 119.4,319.3 119.1,319.1 118.8,318.9 118.7,318.8 118.6,318.6 118.6,318.5 118.6,318.3 118.6,318.1 118.6,318.0 118.7,317.8 118.8,317.7 119.0,317.5 119.2,317.4 119.6,317.2 120.2,317.0 120.9,316.9 121.8,316.7 122.8,316.6 124.0,316.4 125.2,316.3 126.4,316.1 127.4,315.9 128.2,315.8 128.6,315.6 128.5,315.5 128.1,315.3 127.4,315.2 126.3,315.0 125.1,314.8 123.9,314.7 122.7,314.5 121.7,314.4 120.8,314.2 120.1,314.0 117.0,314.0 116.3,314.2 115.5,314.4 114.4,314.5 113.2,314.7 112.0,314.8 110.8,315.0 109.8,315.2 109.0,315.3 108.6,315.5 108.6,315.6 109.0,315.8 109.7,315.9 110.7,316.1 111.9,316.3 113.1,316.4 114.3,316.6 115.4,316.7 116.3,316.9 117.0,317.0 117.5,317.2 117.9,317.4 118.2,317.5 118.3,317.7 118.4,317.8 118.5,318.0 118.5,318.1 118.5,318.3 118.5,318.5 118.5,318.6 118.4,318.8 118.3,318.9 118.1,319.1 117.7,319.3 117.1,319.4 116.2,319.6 114.8,319.7 112.8,319.9 110.2,320.0 106.7,320.2 102.5,320.4 97.5,320.5 92.0,320.7 86.4,320.8 80.9,321.0 76.1,321.1 72.4,321.3 70.1,321.5 69.4,321.6 70.3,321.8 72.7,321.9 76.2,322.1 80.4,322.3 85.0,322.4 89.6,322.6 93.8,322.7 97.6,322.9 100.8,323.0 103.5,323.2 105.7,323.4 107.5,323.5 109.1,323.7 110.5,323.8 111.8,324.0 112.9,324.1 113.9,324.3 114.9,324.5 115.7,324.6 116.4,324.8 117.0,324.9 117.4,325.1 117.8,325.3" fill="#d33" opacity="0.5" stroke="#d33" stroke-width="1"/>
<line x1="69.5" y1="321.54398112950577" x2="167.6" y2="321.54398112950577" stroke="#114" stroke-width="2"/>
<circle cx="118.57142857142857" cy="323.2214240457087" r="2.4" fill="#114"/>
<text x="118.57142857142857" y="309.1886911528116" text-anchor="middle" font-size="11">1.00</text>
<text x="118.57142857142857" y="376" text-anchor="middle" font-size="12">zaxpy</text>
<polygon points="238.9,330.6 239.7,330.4 240.6,330.3 241.6,330.1 242.6,329.9 243.4,329.8 244.1,329.6 244.6,329.4 244.9,329.2 244.8,329.1 244.5,328.9 244.0,328.7 243.2,328.6 242.3,328.4 241.3,328.2 240.4,328.1 239.5,327.9 238.6,327.7 237.9,327.6 237.3,327.4 236.9,327.2 236.5,327.0 236.3,326.9 236.1,326.7 236.0,326.5 235.9,326.4 235.8,326.2 235.8,326.0 235.9,325.9 235.9,325.7 235.9,325.5 236.0,325.3 236.0,325.2 236.1,325.0 236.2,324.8 236.3,324.7 236.5,324.5 236.6,324.3 236.8,324.2 237.2,324.0 237.6,323.8 238.3,323.6 239.3,323.5 240.6,323.3 242.4,323.1 244.7,323.0 247.6,322.8 251.0,322.6 255.0,322.5 259.5,322.3 264.3,322.1 269.1,321.9 273.7,321.8 277.9,321.6 281.2,321.4 283.6,321.3 284.9,321.1 284.9,320.9 283.7,320.8 281.4,320.6 278.2,320.4 274.2,320.2 269.8,320.1 265.2,319.9 260.6,319.7 256.3,319.6 252.3,319.4 248.8,319.2 245.7,319.1 243.2,318.9 241.2,318.7 239.6,318.5 231.8,318.5 230.2,318.7 228.2,318.9 225.7,319.1 222.7,319.2 219.1,319.4 215.1,319.6 210.8,319.7 206.2,319.9 201.6,320.1 197.2,320.2 193.2,320.4 190.0,320.6 187.7,320.8 186.5,320.9 186.5,321.1 187.8,321.3 190.2,321.4 193.6,321.6 197.7,321.8 202.3,321.9 207.1,322.1 211.9,322.3 216.4,322.5 220.4,322.6 223.9,322.8 226.8,323.0 229.1,323.1 230.8,323.3 232.2,323.5 233.1,323.6 233.8,323.8 234.3,324.0 234.6,324.2 234.8,324.3 235.0,324.5 235.1,324.7 235.2,324.8 235.3,325.0 235.4,325.2 235.4,325.3 235.5,325.5 235.5,325.7 235.6,325.9 235.6,326.0 235.6,326.2 235.5,326.4 235.5,326.5 235.4,326.7 235.2,326.9 234.9,327.0 234.6,327.2 234.1,327.4 233.5,327.6 232.8,327.7 232.0,327.9 231.0,328.1 230.1,328.2 229.1,328.4 228.2,328.6 227.5,328.7 226.9,328.9 226.6,329.1 226.6,329.2 226.8,329.4 227.3,329.6 228.0,329.8 228.9,329.9 229.8,330.1 230.8,330.3 231.7,330.4 232.6,330.6" fill="#d33" opacity="0.5" stroke="#d33" stroke-width="1"/>
<line x1="187.7" y1="321.25737951618476" x2="283.7" y2="321.25737951618476" stroke="#114" stroke-width="2"/>
<circle cx="235.71428571428572" cy="329.23255994637077" r="2.4" fill="#114"/>
<text x="235.71428571428572" y="313.7752259856105" text-anchor="middle" font-size="11">1.00</text>
<text x="235.71428571428572" y="376" text-anchor="middle" font-size="12">zdotc</text>
<polygon points="354.4,322.7 355.3,322.6 356.4,322.6 357.9,322.6 359.9,322.5 362.2,322.5 364.9,322.4 367.9,322.4 371.0,322.3 374.0,322.3 376.9,322.2 379.4,322.2 381.6,322.1 383.3,322.1 384.8,322.1 386.0,322.0 387.3,322.0 388.7,321.9 390.3,321.9 392.2,321.8 394.3,321.8 396.5,321.7 398.6,321.7 400.4,321.6 401.6,321.6 402.1,321.6 401.7,321.5 400.4,321.5 398.2,321.4 395.3,321.4 391.8,321.3 387.9,321.3 383.8,321.2 379.7,321.2 375.8,321.1 372.1,321.1 368.9,321.1 366.0,321.0 363.6,321.0 361.6,320.9 360.0,320.9 358.7,320.8 357.6,320.8 356.8,320.7 356.2,320.7 355.8,320.7 355.5,320.6 355.5,320.6 355.6,320.5 356.0,320.5 356.7,320.4 357.7,320.4 358.9,320.3 360.4,320.3 362.1,320.2 363.8,320.2 365.4,320.2 366.8,320.1 367.7,320.1 368.1,320.0 368.0,320.0 367.2,319.9 366.0,319.9 364.4,319.8 362.6,319.8 360.8,319.7 359.0,319.7 357.5,319.7 356.2,319.6 355.2,319.6 354.4,319.5 353.8,319.5 351.9,319.5 351.3,319.5 350.5,319.6 349.5,319.6 348.2,319.7 346.7,319.7 344.9,319.7 343.1,319.8 341.3,319.8 339.7,319.9 338.5,319.9 337.8,320.0 337.6,320.0 338.0,320.1 338.9,320.1 340.3,320.2 341.9,320.2 343.6,320.2 345.3,320.3 346.8,320.3 348.1,320.4 349.0,320.4 349.7,320.5 350.1,320.5 350.2,320.6 350.2,320.6 349.9,320.7 349.5,320.7 348.9,320.7 348.1,320.8 347.0,320.8 345.7,320.9 344.1,320.9 342.1,321.0 339.7,321.0 336.8,321.1 333.6,321.1 329.9,321.1 326.0,321.2 321.9,321.2 317.8,321.3 313.9,321.3 310.4,321.4 307.5,321.4 305.3,321.5 304.0,321.5 303.7,321.6 304.1,321.6 305.3,321.6 307.1,321.7 309.2,321.7 311.4,321.8 313.5,321.8 315.4,321.9 317.1,321.9 318.4,322.0 319.7,322.0 321.0,322.1 322.4,322.1 324.2,322.1 326.3,322.2 328.8,322.2 331.7,322.3 334.7,322.3 337.8,322.4 340.8,322.4 343.5,322.5 345.8,322.5 347.8,322.6 349.3,322.6 350.5,322.6 351.3,322.7" fill="#2a8" opacity="0.5" stroke="#2a8" stroke-width="1"/>
<line x1="303.9" y1="321.5204492715056" x2="401.8" y2="321.5204492715056" stroke="#114" stroke-width="2"/>
<circle cx="352.85714285714283" cy="322.12751451461554" r="2.4" fill="#114"/>
<text x="352.85714285714283" y="313.84110763139313" text-anchor="middle" font-size="11">1.00</text>
<text x="352.85714285714283" y="376" text-anchor="middle" font-size="12">zscal</text>
<polygon points="472.2,181.7 472.9,179.9 473.7,178.1 474.8,176.3 476.0,174.5 477.5,172.7 479.0,171.0 480.8,169.2 482.6,167.4 484.4,165.6 486.3,163.8 488.0,162.1 489.6,160.3 491.0,158.5 492.2,156.7 493.2,154.9 493.9,153.1 494.5,151.4 494.8,149.6 495.1,147.8 495.4,146.0 495.6,144.2 495.9,142.5 496.2,140.7 496.6,138.9 497.0,137.1 497.4,135.3 497.7,133.5 497.8,131.8 497.7,130.0 497.3,128.2 496.7,126.4 495.9,124.6 494.8,122.9 493.6,121.1 492.2,119.3 490.8,117.5 489.4,115.7 488.1,113.9 486.8,112.2 485.7,110.4 484.8,108.6 484.0,106.8 483.4,105.0 483.0,103.2 482.8,101.5 482.8,99.7 483.2,97.9 483.8,96.1 484.8,94.3 486.3,92.6 488.2,90.8 490.6,89.0 493.4,87.2 496.7,85.4 500.3,83.6 504.1,81.9 507.8,80.1 511.4,78.3 514.5,76.5 517.0,74.7 518.6,73.0 519.2,71.2 518.8,69.4 517.3,67.6 514.9,65.8 511.7,64.0 507.8,62.3 503.5,60.5 499.0,58.7 494.6,56.9 490.4,55.1 449.6,55.1 445.4,56.9 441.0,58.7 436.5,60.5 432.2,62.3 428.3,64.0 425.1,65.8 422.7,67.6 421.2,69.4 420.8,71.2 421.4,73.0 423.0,74.7 425.5,76.5 428.6,78.3 432.2,80.1 435.9,81.9 439.7,83.6 443.3,85.4 446.6,87.2 449.4,89.0 451.8,90.8 453.7,92.6 455.2,94.3 456.2,96.1 456.8,97.9 457.2,99.7 457.2,101.5 457.0,103.2 456.6,105.0 456.0,106.8 455.2,108.6 454.3,110.4 453.2,112.2 451.9,113.9 450.6,115.7 449.2,117.5 447.8,119.3 446.4,121.1 445.2,122.9 444.1,124.6 443.3,126.4 442.7,128.2 442.3,130.0 442.2,131.8 442.3,133.5 442.6,135.3 443.0,137.1 443.4,138.9 443.8,140.7 444.1,142.5 444.4,144.2 444.6,146.0 444.9,147.8 445.2,149.6 445.5,151.4 446.1,153.1 446.8,154.9 447.8,156.7 449.0,158.5 450.4,160.3 452.0,162.1 453.7,163.8 455.6,165.6 457.4,167.4 459.2,169.2 461.0,171.0 462.5,172.7 464.0,174.5 465.2,176.3 466.3,178.1 467.1,179.9 467.8,181.7" fill="#2a8" opacity="0.5" stroke="#2a8" stroke-width="1"/>
<line x1="457.2" y1="100.02997333469332" x2="482.8" y2="100.02997333469332" stroke="#114" stroke-width="2"/>
<circle cx="470.0" cy="155.11441380529996" r="2.4" fill="#114"/>
<text x="470.0" y="61.43396226415098" text-anchor="middle" font-size="11">7.05</text>
<text x="470.0" y="376" text-anchor="middle" font-size="12">dznrm2</text>
<polygon points="588.3,319.4 588.9,318.8 589.6,318.3 590.6,317.8 591.9,317.2 593.6,316.7 595.6,316.2 598.1,315.6 601.2,315.1 604.6,314.6 608.6,314.0 612.8,313.5 617.2,313.0 621.7,312.4 625.9,311.9 629.6,311.4 632.7,310.8 634.8,310.3 636.1,309.7 636.3,309.2 635.7,308.7 634.5,308.1 632.8,307.6 631.0,307.1 629.3,306.5 628.0,306.0 627.4,305.5 627.4,304.9 628.1,304.4 629.3,303.9 630.6,303.3 632.0,302.8 632.8,302.3 633.0,301.7 632.2,301.2 630.3,300.6 627.3,300.1 623.4,299.6 618.9,299.0 614.0,298.5 609.1,298.0 604.5,297.4 600.4,296.9 596.9,296.4 594.1,295.8 591.9,295.3 590.4,294.8 589.3,294.2 588.6,293.7 588.2,293.1 588.2,292.6 588.3,292.1 588.8,291.5 589.5,291.0 590.4,290.5 591.7,289.9 593.3,289.4 595.1,288.9 597.1,288.3 599.2,287.8 601.1,287.3 602.8,286.7 604.0,286.2 604.7,285.7 604.7,285.1 604.1,284.6 602.9,284.0 601.2,283.5 599.3,283.0 597.2,282.4 595.2,281.9 593.4,281.4 580.9,281.4 579.0,281.9 577.0,282.4 575.0,283.0 573.1,283.5 571.4,284.0 570.2,284.6 569.6,285.1 569.6,285.7 570.3,286.2 571.5,286.7 573.2,287.3 575.1,287.8 577.2,288.3 579.2,288.9 581.0,289.4 582.6,289.9 583.8,290.5 584.8,291.0 585.5,291.5 586.0,292.1 586.1,292.6 586.1,293.1 585.7,293.7 585.0,294.2 583.9,294.8 582.3,295.3 580.2,295.8 577.4,296.4 573.9,296.9 569.7,297.4 565.1,298.0 560.3,298.5 555.4,299.0 550.9,299.6 547.0,300.1 544.0,300.6 542.1,301.2 541.3,301.7 541.4,302.3 542.3,302.8 543.6,303.3 545.0,303.9 546.2,304.4 546.9,304.9 546.9,305.5 546.2,306.0 545.0,306.5 543.3,307.1 541.5,307.6 539.8,308.1 538.5,308.7 537.9,309.2 538.2,309.7 539.4,310.3 541.6,310.8 544.7,311.4 548.4,311.9 552.6,312.4 557.0,313.0 561.5,313.5 565.7,314.0 569.6,314.6 573.1,315.1 576.1,315.6 578.7,316.2 580.7,316.7 582.4,317.2 583.7,317.8 584.7,318.3 585.4,318.8 586.0,319.4" fill="#2a8" opacity="0.5" stroke="#2a8" stroke-width="1"/>
<line x1="546.0" y1="304.28336396175797" x2="628.3" y2="304.28336396175797" stroke="#114" stroke-width="2"/>
<circle cx="587.1428571428571" cy="311.28020294888717" r="2.4" fill="#114"/>
<text x="587.1428571428571" y="279.1049465839621" text-anchor="middle" font-size="11">1.47</text>
<text x="587.1428571428571" y="376" text-anchor="middle" font-size="12">dzasum</text>
<polygon points="707.8,330.5 708.7,330.3 709.7,330.1 710.8,329.9 711.7,329.8 712.5,329.6 713.2,329.4 713.5,329.2 713.6,329.0 713.4,328.9 712.9,328.7 712.1,328.5 711.3,328.3 710.3,328.1 709.3,328.0 708.3,327.8 707.5,327.6 706.7,327.4 706.1,327.2 705.6,327.1 705.2,326.9 704.9,326.7 704.7,326.5 704.6,326.3 704.5,326.2 704.4,326.0 704.4,325.8 704.3,325.6 704.3,325.4 704.3,325.2 704.3,325.1 704.3,324.9 704.4,324.7 704.4,324.5 704.5,324.3 704.7,324.2 705.0,324.0 705.4,323.8 706.0,323.6 706.9,323.4 708.1,323.3 709.8,323.1 711.9,322.9 714.6,322.7 717.8,322.5 721.5,322.4 725.7,322.2 730.3,322.0 734.9,321.8 739.5,321.6 743.9,321.5 747.6,321.3 750.6,321.1 752.6,320.9 753.5,320.7 753.2,320.5 751.8,320.4 749.3,320.2 745.9,320.0 741.9,319.8 737.4,319.6 732.7,319.5 728.0,319.3 723.6,319.1 719.6,318.9 716.1,318.7 713.1,318.6 710.7,318.4 708.9,318.2 707.5,318.0 706.4,317.8 705.7,317.7 702.9,317.7 702.2,317.8 701.1,318.0 699.7,318.2 697.8,318.4 695.4,318.6 692.5,318.7 689.0,318.9 685.0,319.1 680.6,319.3 675.9,319.5 671.2,319.6 666.7,319.8 662.6,320.0 659.2,320.2 656.8,320.4 655.4,320.5 655.1,320.7 656.0,320.9 658.0,321.1 661.0,321.3 664.7,321.5 669.0,321.6 673.6,321.8 678.3,322.0 682.8,322.2 687.0,322.4 690.8,322.5 694.0,322.7 696.7,322.9 698.8,323.1 700.5,323.3 701.7,323.4 702.6,323.6 703.2,323.8 703.6,324.0 703.9,324.2 704.0,324.3 704.2,324.5 704.2,324.7 704.2,324.9 704.3,325.1 704.3,325.2 704.3,325.4 704.2,325.6 704.2,325.8 704.2,326.0 704.1,326.2 704.0,326.3 703.8,326.5 703.6,326.7 703.3,326.9 703.0,327.1 702.5,327.2 701.8,327.4 701.1,327.6 700.2,327.8 699.3,328.0 698.3,328.1 697.3,328.3 696.4,328.5 695.7,328.7 695.2,328.9 695.0,329.0 695.1,329.2 695.4,329.4 696.0,329.6 696.9,329.8 697.8,329.9 698.8,330.1 699.8,330.3 700.8,330.5" fill="#d33" opacity="0.5" stroke="#d33" stroke-width="1"/>
<line x1="655.1" y1="320.72505281122585" x2="753.5" y2="320.72505281122585" stroke="#114" stroke-width="2"/>
<circle cx="704.2857142857142" cy="329.1455928521926" r="2.4" fill="#114"/>
<text x="704.2857142857142" y="312.95530182692596" text-anchor="middle" font-size="11">1.02</text>
<text x="704.2857142857142" y="376" text-anchor="middle" font-size="12">zdotu</text>
<polygon points="823.5,334.1 824.5,333.6 825.7,333.1 827.2,332.5 829.1,332.0 831.3,331.5 833.9,331.0 836.6,330.5 839.5,330.0 842.5,329.5 845.5,329.0 848.3,328.4 850.9,327.9 853.2,327.4 855.2,326.9 856.8,326.4 858.1,325.9 859.1,325.4 859.8,324.8 860.3,324.3 860.7,323.8 861.1,323.3 861.4,322.8 861.8,322.3 862.3,321.8 862.8,321.3 863.5,320.7 864.3,320.2 865.1,319.7 865.9,319.2 866.8,318.7 867.6,318.2 868.3,317.7 869.0,317.2 869.5,316.6 869.9,316.1 870.3,315.6 870.5,315.1 870.6,314.6 870.6,314.1 870.4,313.6 870.1,313.0 869.6,312.5 869.0,312.0 868.3,311.5 867.6,311.0 866.9,310.5 866.2,310.0 865.7,309.5 865.3,308.9 865.0,308.4 864.7,307.9 864.4,307.4 863.9,306.9 863.3,306.4 862.5,305.9 861.3,305.3 859.9,304.8 858.0,304.3 855.8,303.8 853.2,303.3 850.3,302.8 847.2,302.3 843.9,301.8 840.6,301.2 837.4,300.7 834.4,300.2 831.7,299.7 829.4,299.2 827.4,298.7 825.7,298.2 824.4,297.6 818.4,297.6 817.1,298.2 815.5,298.7 813.5,299.2 811.1,299.7 808.4,300.2 805.4,300.7 802.2,301.2 798.9,301.8 795.7,302.3 792.6,302.8 789.7,303.3 787.1,303.8 784.9,304.3 783.0,304.8 781.5,305.3 780.4,305.9 779.5,306.4 778.9,306.9 778.5,307.4 778.2,307.9 777.9,308.4 777.5,308.9 777.1,309.5 776.6,310.0 776.0,310.5 775.3,311.0 774.6,311.5 773.9,312.0 773.3,312.5 772.8,313.0 772.4,313.6 772.3,314.1 772.2,314.6 772.3,315.1 772.6,315.6 772.9,316.1 773.4,316.6 773.9,317.2 774.5,317.7 775.3,318.2 776.1,318.7 776.9,319.2 777.8,319.7 778.6,320.2 779.3,320.7 780.0,321.3 780.6,321.8 781.0,322.3 781.4,322.8 781.8,323.3 782.1,323.8 782.5,324.3 783.1,324.8 783.8,325.4 784.8,325.9 786.1,326.4 787.7,326.9 789.6,327.4 791.9,327.9 794.5,328.4 797.4,329.0 800.3,329.5 803.3,330.0 806.2,330.5 809.0,331.0 811.5,331.5 813.7,332.0 815.6,332.5 817.2,333.1 818.4,333.6 819.3,334.1" fill="#2a8" opacity="0.5" stroke="#2a8" stroke-width="1"/>
<line x1="772.4" y1="315.194768345773" x2="870.5" y2="315.194768345773" stroke="#114" stroke-width="2"/>
<circle cx="821.4285714285714" cy="317.65308764524616" r="2.4" fill="#114"/>
<text x="821.4285714285714" y="295.2314918617335" text-anchor="middle" font-size="11">1.17</text>
<text x="821.4285714285714" y="376" text-anchor="middle" font-size="12">izamax</text>
<text x="450.0" y="428" text-anchor="middle" font-size="11" fill="#666">violin = ratio distribution over sizes · line = median · dark dot = worst size · green = every size ≥ gate</text>
</svg>
