<svg xmlns="http://www.w3.org/2000/svg" width="900" height="440" font-family="sans-serif">
<rect width="900" height="440" fill="white"/>
<text x="450.0" y="28" text-anchor="middle" font-size="18" font-weight="bold">Complex BLAS-1: PureBLAS / OpenBLAS (AVX-512 native (Zen5), 1 thread, ComplexF64)</text>
<line x1="60" y1="358.0" x2="880" y2="358.0" stroke="#eee"/>
<text x="52" y="362.0" text-anchor="end" font-size="11" fill="#666">0×</text>
<line x1="60" y1="348.56122997040995" x2="880" y2="348.56122997040995" stroke="#eee"/>
<text x="52" y="352.56122997040995" text-anchor="end" font-size="11" fill="#666">0.5×</text>
<line x1="60" y1="339.12245994081985" x2="880" y2="339.12245994081985" stroke="#eee"/>
<text x="52" y="343.12245994081985" text-anchor="end" font-size="11" fill="#666">1×</text>
<line x1="60" y1="329.6836899112298" x2="880" y2="329.6836899112298" stroke="#eee"/>
<text x="52" y="333.6836899112298" text-anchor="end" font-size="11" fill="#666">1.5×</text>
<line x1="60" y1="339.12245994081985" x2="880" y2="339.12245994081985" stroke="#888" stroke-width="1"/>
<line x1="60" y1="339.8775615431871" x2="880" y2="339.8775615431871" stroke="#d33" stroke-width="1.5" stroke-dasharray="6 4"/>
<text x="880" y="334.8775615431871" text-anchor="end" font-size="11" fill="#d33">0.96× gate</text>
<polygon points="144.9,342.6 146.0,342.4 147.3,342.3 149.0,342.1 151.0,342.0 153.4,341.9 156.2,341.7 159.3,341.6 162.9,341.4 166.7,341.3 170.8,341.2 175.0,341.0 179.4,340.9 183.7,340.7 188.0,340.6 192.1,340.5 195.9,340.3 199.4,340.2 202.5,340.0 205.2,339.9 207.4,339.8 209.0,339.6 210.2,339.5 210.8,339.3 210.9,339.2 210.5,339.1 209.7,338.9 208.5,338.8 207.1,338.6 205.4,338.5 203.7,338.4 201.8,338.2 200.0,338.1 198.1,337.9 196.3,337.8 194.5,337.6 192.7,337.5 190.8,337.4 188.9,337.2 186.8,337.1 184.6,336.9 182.2,336.8 179.7,336.7 177.0,336.5 174.2,336.4 171.4,336.2 168.6,336.1 166.0,336.0 163.6,335.8 161.6,335.7 159.9,335.5 158.8,335.4 158.2,335.3 158.2,335.1 158.6,335.0 159.5,334.8 160.7,334.7 162.1,334.6 163.5,334.4 164.8,334.3 165.8,334.1 166.4,334.0 166.5,333.9 166.1,333.7 165.1,333.6 163.7,333.4 161.8,333.3 159.7,333.2 157.4,333.0 155.1,332.9 152.8,332.7 150.7,332.6 133.3,332.6 131.2,332.7 128.9,332.9 126.6,333.0 124.3,333.2 122.2,333.3 120.3,333.4 118.9,333.6 117.9,333.7 117.5,333.9 117.6,334.0 118.2,334.1 119.2,334.3 120.5,334.4 121.9,334.6 123.3,334.7 124.5,334.8 125.4,335.0 125.8,335.1 125.8,335.3 125.2,335.4 124.1,335.5 122.4,335.7 120.4,335.8 118.0,336.0 115.4,336.1 112.6,336.2 109.8,336.4 107.0,336.5 104.3,336.7 101.8,336.8 99.4,336.9 97.2,337.1 95.1,337.2 93.2,337.4 91.3,337.5 89.5,337.6 87.7,337.8 85.9,337.9 84.0,338.1 82.2,338.2 80.3,338.4 78.6,338.5 76.9,338.6 75.5,338.8 74.3,338.9 73.5,339.1 73.1,339.2 73.2,339.3 73.8,339.5 75.0,339.6 76.6,339.8 78.8,339.9 81.5,340.0 84.6,340.2 88.1,340.3 91.9,340.5 96.0,340.6 100.3,340.7 104.6,340.9 109.0,341.0 113.2,341.2 117.3,341.3 121.1,341.4 124.7,341.6 127.8,341.7 130.6,341.9 133.0,342.0 135.0,342.1 136.7,342.3 138.0,342.4 139.1,342.6" fill="#d33" opacity="0.5" stroke="#d33" stroke-width="1"/>
<line x1="77.2" y1="338.6031428359163" x2="206.8" y2="338.6031428359163" stroke="#114" stroke-width="2"/>
<circle cx="142.0" cy="340.48358147952024" r="2.4" fill="#114"/>
<text x="142.0" y="327.59801595798655" text-anchor="middle" font-size="11">1.03</text>
<text x="142.0" y="376" text-anchor="middle" font-size="12">zaxpy</text>
<polygon points="310.4,340.8 311.8,340.7 313.6,340.6 315.6,340.4 318.0,340.3 320.8,340.2 323.7,340.1 327.0,339.9 330.4,339.8 333.9,339.7 337.4,339.6 341.0,339.4 344.5,339.3 348.0,339.2 351.5,339.0 354.9,338.9 358.2,338.8 361.4,338.7 364.5,338.5 367.4,338.4 370.0,338.3 372.2,338.2 373.8,338.0 374.8,337.9 374.9,337.8 374.1,337.6 372.3,337.5 369.6,337.4 366.0,337.3 361.7,337.1 356.7,337.0 351.4,336.9 346.0,336.8 340.7,336.6 335.6,336.5 330.9,336.4 326.7,336.3 323.1,336.1 320.1,336.0 317.7,335.9 315.8,335.7 314.4,335.6 313.3,335.5 312.5,335.4 312.0,335.2 311.8,335.1 311.7,335.0 311.7,334.9 312.0,334.7 312.4,334.6 313.1,334.5 313.9,334.4 314.9,334.2 316.1,334.1 317.5,334.0 318.8,333.8 320.2,333.7 321.5,333.6 322.6,333.5 323.5,333.3 324.0,333.2 324.2,333.1 324.0,333.0 323.3,332.8 322.4,332.7 321.1,332.6 319.6,332.5 318.0,332.3 316.3,332.2 314.6,332.1 313.1,331.9 311.6,331.8 300.4,331.8 298.9,331.9 297.4,332.1 295.7,332.2 294.0,332.3 292.4,332.5 290.9,332.6 289.6,332.7 288.7,332.8 288.0,333.0 287.8,333.1 288.0,333.2 288.5,333.3 289.4,333.5 290.5,333.6 291.8,333.7 293.2,333.8 294.5,334.0 295.9,334.1 297.1,334.2 298.1,334.4 298.9,334.5 299.6,334.6 300.0,334.7 300.3,334.9 300.3,335.0 300.2,335.1 300.0,335.2 299.5,335.4 298.7,335.5 297.6,335.6 296.2,335.7 294.3,335.9 291.9,336.0 288.9,336.1 285.3,336.3 281.1,336.4 276.4,336.5 271.3,336.6 266.0,336.8 260.6,336.9 255.3,337.0 250.3,337.1 246.0,337.3 242.4,337.4 239.7,337.5 237.9,337.6 237.1,337.8 237.2,337.9 238.2,338.0 239.8,338.2 242.0,338.3 244.6,338.4 247.5,338.5 250.6,338.7 253.8,338.8 257.1,338.9 260.5,339.0 264.0,339.2 267.5,339.3 271.0,339.4 274.6,339.6 278.1,339.7 281.6,339.8 285.0,339.9 288.3,340.1 291.2,340.2 294.0,340.3 296.4,340.4 298.4,340.6 300.2,340.7 301.6,340.8" fill="#2a8" opacity="0.5" stroke="#2a8" stroke-width="1"/>
<line x1="238.3" y1="337.61325019646586" x2="373.7" y2="337.61325019646586" stroke="#114" stroke-width="2"/>
<circle cx="306.0" cy="339.35485998592975" r="2.4" fill="#114"/>
<text x="306.0" y="326.72294151498346" text-anchor="middle" font-size="11">1.08</text>
<text x="306.0" y="376" text-anchor="middle" font-size="12">zdotc</text>
<polygon points="472.8,341.0 474.5,340.8 476.8,340.7 480.1,340.5 484.4,340.4 489.8,340.2 496.2,340.1 503.5,339.9 511.3,339.8 519.1,339.6 526.3,339.5 532.3,339.3 536.6,339.1 538.9,339.0 538.9,338.8 536.7,338.7 532.6,338.5 527.0,338.4 520.5,338.2 513.5,338.1 506.5,337.9 499.9,337.8 494.0,337.6 489.0,337.5 484.7,337.3 481.4,337.2 478.7,337.0 476.7,336.9 475.2,336.7 474.2,336.6 473.4,336.4 472.9,336.3 472.5,336.1 472.3,336.0 472.1,335.8 472.0,335.7 472.0,335.5 472.0,335.4 472.1,335.2 472.3,335.1 472.5,334.9 472.8,334.7 473.1,334.6 473.5,334.4 473.8,334.3 474.2,334.1 474.6,334.0 475.0,333.8 475.3,333.7 475.6,333.5 475.8,333.4 475.9,333.2 476.0,333.1 476.0,332.9 475.9,332.8 475.7,332.6 475.4,332.5 475.0,332.3 474.6,332.2 474.2,332.0 473.7,331.9 473.2,331.7 472.7,331.6 472.3,331.4 471.9,331.3 471.5,331.1 471.2,331.0 471.0,330.8 470.7,330.7 470.6,330.5 470.4,330.3 470.3,330.2 469.7,330.2 469.6,330.3 469.4,330.5 469.3,330.7 469.0,330.8 468.8,331.0 468.5,331.1 468.1,331.3 467.7,331.4 467.3,331.6 466.8,331.7 466.3,331.9 465.8,332.0 465.4,332.2 465.0,332.3 464.6,332.5 464.3,332.6 464.1,332.8 464.0,332.9 464.0,333.1 464.1,333.2 464.2,333.4 464.4,333.5 464.7,333.7 465.0,333.8 465.4,334.0 465.8,334.1 466.2,334.3 466.5,334.4 466.9,334.6 467.2,334.7 467.5,334.9 467.7,335.1 467.9,335.2 468.0,335.4 468.0,335.5 468.0,335.7 467.9,335.8 467.7,336.0 467.5,336.1 467.1,336.3 466.6,336.4 465.8,336.6 464.8,336.7 463.3,336.9 461.3,337.0 458.6,337.2 455.3,337.3 451.0,337.5 446.0,337.6 440.1,337.8 433.5,337.9 426.5,338.1 419.5,338.2 413.0,338.4 407.4,338.5 403.3,338.7 401.1,338.8 401.1,339.0 403.4,339.1 407.7,339.3 413.7,339.5 420.9,339.6 428.7,339.8 436.5,339.9 443.8,340.1 450.2,340.2 455.6,340.4 459.9,340.5 463.2,340.7 465.5,340.8 467.2,341.0" fill="#2a8" opacity="0.5" stroke="#2a8" stroke-width="1"/>
<line x1="400.9" y1="338.9560279504686" x2="539.1" y2="338.9560279504686" stroke="#114" stroke-width="2"/>
<circle cx="470.0" cy="339.1229743622076" r="2.4" fill="#114"/>
<text x="470.0" y="325.2689325473679" text-anchor="middle" font-size="11">1.01</text>
<text x="470.0" y="376" text-anchor="middle" font-size="12">zscal</text>
<polygon points="655.9,285.2 659.4,281.8 663.0,278.5 666.9,275.2 670.8,271.9 674.7,268.6 678.5,265.3 682.1,262.0 685.5,258.7 688.6,255.3 691.2,252.0 693.3,248.7 694.8,245.4 695.8,242.1 696.2,238.8 696.0,235.5 695.1,232.2 693.8,228.9 691.9,225.5 689.6,222.2 686.9,218.9 684.0,215.6 680.9,212.3 677.8,209.0 674.6,205.7 671.6,202.4 668.7,199.0 666.2,195.7 663.9,192.4 662.0,189.1 660.6,185.8 659.5,182.5 658.8,179.2 658.6,175.9 658.7,172.5 659.1,169.2 659.9,165.9 660.8,162.6 662.0,159.3 663.4,156.0 664.8,152.7 666.4,149.4 668.1,146.0 669.8,142.7 671.7,139.4 673.7,136.1 675.7,132.8 677.9,129.5 680.3,126.2 682.7,122.9 685.3,119.6 687.9,116.2 690.6,112.9 693.2,109.6 695.6,106.3 697.9,103.0 699.8,99.7 701.3,96.4 702.4,93.1 702.9,89.7 702.8,86.4 702.0,83.1 700.6,79.8 698.6,76.5 696.0,73.2 692.9,69.9 689.3,66.6 685.4,63.2 681.2,59.9 676.9,56.6 672.5,53.3 668.2,50.0 599.8,50.0 595.5,53.3 591.1,56.6 586.8,59.9 582.6,63.2 578.7,66.6 575.1,69.9 572.0,73.2 569.4,76.5 567.4,79.8 566.0,83.1 565.2,86.4 565.1,89.7 565.6,93.1 566.7,96.4 568.2,99.7 570.1,103.0 572.4,106.3 574.8,109.6 577.4,112.9 580.1,116.2 582.7,119.6 585.3,122.9 587.7,126.2 590.1,129.5 592.3,132.8 594.3,136.1 596.3,139.4 598.2,142.7 599.9,146.0 601.6,149.4 603.2,152.7 604.6,156.0 606.0,159.3 607.2,162.6 608.1,165.9 608.9,169.2 609.3,172.5 609.4,175.9 609.2,179.2 608.5,182.5 607.4,185.8 606.0,189.1 604.1,192.4 601.8,195.7 599.3,199.0 596.4,202.4 593.4,205.7 590.2,209.0 587.1,212.3 584.0,215.6 581.1,218.9 578.4,222.2 576.1,225.5 574.2,228.9 572.9,232.2 572.0,235.5 571.8,238.8 572.2,242.1 573.2,245.4 574.7,248.7 576.8,252.0 579.4,255.3 582.5,258.7 585.9,262.0 589.5,265.3 593.3,268.6 597.2,271.9 601.1,275.2 605.0,278.5 608.6,281.8 612.1,285.2" fill="#2a8" opacity="0.5" stroke="#2a8" stroke-width="1"/>
<line x1="599.8" y1="145.85885712189165" x2="668.2" y2="145.85885712189165" stroke="#114" stroke-width="2"/>
<circle cx="634.0" cy="253.12366566890287" r="2.4" fill="#114"/>
<text x="634.0" y="61.433962264150935" text-anchor="middle" font-size="11">11.24</text>
<text x="634.0" y="376" text-anchor="middle" font-size="12">dznrm2</text>
<polygon points="800.2,343.1 801.1,342.8 802.3,342.6 803.8,342.3 805.7,342.1 808.1,341.8 810.9,341.6 814.3,341.3 818.2,341.1 822.7,340.8 827.7,340.6 833.2,340.3 839.1,340.1 845.1,339.8 851.0,339.6 856.4,339.3 861.0,339.1 864.5,338.8 866.5,338.6 866.9,338.4 865.5,338.1 862.4,337.9 857.9,337.6 852.1,337.4 845.6,337.1 838.8,336.9 832.0,336.6 825.5,336.4 819.7,336.1 814.7,335.9 810.5,335.6 807.2,335.4 804.6,335.1 802.6,334.9 801.2,334.6 800.2,334.4 799.5,334.1 799.1,333.9 798.8,333.6 798.7,333.4 798.7,333.1 798.8,332.9 799.0,332.6 799.3,332.4 799.6,332.2 800.1,331.9 800.7,331.7 801.3,331.4 802.1,331.2 803.0,330.9 803.9,330.7 804.9,330.4 805.8,330.2 806.7,329.9 807.5,329.7 808.1,329.4 808.5,329.2 808.5,328.9 808.3,328.7 807.9,328.4 807.2,328.2 806.3,327.9 805.3,327.7 804.2,327.4 803.1,327.2 802.2,326.9 801.3,326.7 800.5,326.4 799.9,326.2 799.4,326.0 799.0,325.7 798.7,325.5 797.3,325.5 797.0,325.7 796.6,326.0 796.1,326.2 795.5,326.4 794.7,326.7 793.8,326.9 792.9,327.2 791.8,327.4 790.7,327.7 789.7,327.9 788.8,328.2 788.1,328.4 787.7,328.7 787.5,328.9 787.5,329.2 787.9,329.4 788.5,329.7 789.3,329.9 790.2,330.2 791.1,330.4 792.1,330.7 793.0,330.9 793.9,331.2 794.7,331.4 795.3,331.7 795.9,331.9 796.4,332.2 796.7,332.4 797.0,332.6 797.2,332.9 797.3,333.1 797.3,333.4 797.2,333.6 796.9,333.9 796.5,334.1 795.8,334.4 794.8,334.6 793.4,334.9 791.4,335.1 788.8,335.4 785.5,335.6 781.3,335.9 776.3,336.1 770.5,336.4 764.0,336.6 757.2,336.9 750.4,337.1 743.9,337.4 738.1,337.6 733.6,337.9 730.5,338.1 729.1,338.4 729.5,338.6 731.5,338.8 735.0,339.1 739.6,339.3 745.0,339.6 750.9,339.8 756.9,340.1 762.8,340.3 768.3,340.6 773.3,340.8 777.8,341.1 781.7,341.3 785.1,341.6 787.9,341.8 790.3,342.1 792.2,342.3 793.7,342.6 794.9,342.8 795.8,343.1" fill="#d33" opacity="0.5" stroke="#d33" stroke-width="1"/>
<line x1="729.2" y1="338.32923369588286" x2="866.8" y2="338.32923369588286" stroke="#114" stroke-width="2"/>
<circle cx="798.0" cy="340.2720645834628" r="2.4" fill="#114"/>
<text x="798.0" y="321.1901021055863" text-anchor="middle" font-size="11">1.04</text>
<text x="798.0" y="376" text-anchor="middle" font-size="12">dzasum</text>
<text x="450.0" y="428" text-anchor="middle" font-size="11" fill="#666">violin = ratio distribution over sizes · line = median · dark dot = worst size · green = every size ≥ gate</text>
</svg>
