<svg xmlns="http://www.w3.org/2000/svg" width="900" height="440" font-family="sans-serif">
<rect width="900" height="440" fill="white"/>
<text x="450.0" y="28" text-anchor="middle" font-size="18" font-weight="bold">BLAS-2: PureBLAS / OpenBLAS (AVX2, 1 thread, Float64)</text>
<line x1="60" y1="358.0" x2="880" y2="358.0" stroke="#eee"/>
<text x="52" y="362.0" text-anchor="end" font-size="11" fill="#666">0×</text>
<line x1="60" y1="300.00557399989896" x2="880" y2="300.00557399989896" stroke="#eee"/>
<text x="52" y="304.00557399989896" text-anchor="end" font-size="11" fill="#666">0.5×</text>
<line x1="60" y1="242.01114799979786" x2="880" y2="242.01114799979786" stroke="#eee"/>
<text x="52" y="246.01114799979786" text-anchor="end" font-size="11" fill="#666">1×</text>
<line x1="60" y1="184.01672199969678" x2="880" y2="184.01672199969678" stroke="#eee"/>
<text x="52" y="188.01672199969678" text-anchor="end" font-size="11" fill="#666">1.5×</text>
<line x1="60" y1="242.01114799979786" x2="880" y2="242.01114799979786" stroke="#888" stroke-width="1"/>
<line x1="60" y1="246.65070207980594" x2="880" y2="246.65070207980594" stroke="#d33" stroke-width="1.5" stroke-dasharray="6 4"/>
<text x="880" y="241.65070207980594" text-anchor="end" font-size="11" fill="#d33">0.96× gate</text>
<polygon points="106.3,267.8 106.7,266.3 107.3,264.7 108.0,263.1 109.1,261.6 110.4,260.0 112.1,258.4 114.2,256.9 116.7,255.3 119.6,253.7 122.8,252.1 126.2,250.6 129.8,249.0 133.3,247.4 136.5,245.9 139.4,244.3 141.6,242.7 143.1,241.2 143.8,239.6 143.6,238.0 142.5,236.4 140.7,234.9 138.2,233.3 135.1,231.7 131.8,230.2 128.3,228.6 124.8,227.0 121.5,225.5 118.5,223.9 115.8,222.3 113.6,220.8 111.7,219.2 110.1,217.6 109.0,216.0 108.0,214.5 107.4,212.9 106.9,211.3 106.6,209.8 106.3,208.2 106.3,206.6 106.3,205.1 106.4,203.5 106.6,201.9 106.9,200.3 107.3,198.8 107.9,197.2 108.5,195.6 109.2,194.1 109.9,192.5 110.6,190.9 111.2,189.4 111.8,187.8 112.1,186.2 112.4,184.7 112.4,183.1 112.2,181.5 111.9,179.9 111.4,178.4 110.9,176.8 110.3,175.2 109.6,173.7 109.0,172.1 108.5,170.5 107.9,169.0 107.5,167.4 107.1,165.8 106.8,164.3 106.5,162.7 106.3,161.1 106.1,159.5 105.9,158.0 105.8,156.4 105.3,156.4 105.2,158.0 105.0,159.5 104.8,161.1 104.6,162.7 104.3,164.3 104.0,165.8 103.6,167.4 103.2,169.0 102.7,170.5 102.1,172.1 101.5,173.7 100.9,175.2 100.2,176.8 99.7,178.4 99.2,179.9 98.9,181.5 98.7,183.1 98.8,184.7 99.0,186.2 99.3,187.8 99.9,189.4 100.5,190.9 101.2,192.5 101.9,194.1 102.6,195.6 103.3,197.2 103.8,198.8 104.2,200.3 104.5,201.9 104.7,203.5 104.9,205.1 104.9,206.6 104.8,208.2 104.6,209.8 104.2,211.3 103.7,212.9 103.1,214.5 102.2,216.0 101.0,217.6 99.4,219.2 97.5,220.8 95.3,222.3 92.6,223.9 89.6,225.5 86.3,227.0 82.8,228.6 79.3,230.2 76.0,231.7 73.0,233.3 70.4,234.9 68.6,236.4 67.5,238.0 67.3,239.6 68.0,241.2 69.5,242.7 71.7,244.3 74.6,245.9 77.8,247.4 81.3,249.0 84.9,250.6 88.3,252.1 91.6,253.7 94.4,255.3 96.9,256.9 99.0,258.4 100.7,260.0 102.1,261.6 103.1,263.1 103.8,264.7 104.4,266.3 104.8,267.8" fill="#d33" opacity="0.5" stroke="#d33" stroke-width="1"/>
<line x1="67.3" y1="238.4777166136408" x2="143.8" y2="238.4777166136408" stroke="#114" stroke-width="2"/>
<circle cx="105.55555555555556" cy="247.8734982823724" r="2.4" fill="#114"/>
<text x="105.55555555555556" y="161.37363237893783" text-anchor="middle" font-size="11">1.03</text>
<text x="105.55555555555556" y="376" text-anchor="middle" font-size="12">gemvN</text>
<polygon points="196.9,246.9 197.0,246.6 197.1,246.4 197.3,246.1 197.4,245.8 197.6,245.5 197.8,245.2 198.1,244.9 198.3,244.6 198.6,244.3 199.0,244.0 199.5,243.7 200.1,243.5 200.9,243.2 202.0,242.9 203.5,242.6 205.4,242.3 207.8,242.0 210.7,241.7 213.9,241.4 217.5,241.1 221.1,240.9 224.7,240.6 227.9,240.3 230.7,240.0 232.8,239.7 234.3,239.4 234.9,239.1 234.9,238.8 234.1,238.5 232.7,238.2 230.9,238.0 228.6,237.7 226.1,237.4 223.5,237.1 220.9,236.8 218.3,236.5 216.0,236.2 214.0,235.9 212.3,235.6 211.1,235.3 210.2,235.1 209.7,234.8 209.6,234.5 209.7,234.2 210.1,233.9 210.6,233.6 211.2,233.3 211.8,233.0 212.3,232.7 212.8,232.5 213.1,232.2 213.2,231.9 213.0,231.6 212.6,231.3 212.0,231.0 211.1,230.7 209.9,230.4 208.7,230.1 207.3,229.8 205.8,229.6 204.4,229.3 203.1,229.0 201.8,228.7 200.7,228.4 199.8,228.1 199.0,227.8 198.4,227.5 197.9,227.2 197.5,227.0 197.2,226.7 197.0,226.4 196.3,226.4 196.1,226.7 195.8,227.0 195.4,227.2 195.0,227.5 194.3,227.8 193.5,228.1 192.6,228.4 191.5,228.7 190.3,229.0 188.9,229.3 187.5,229.6 186.1,229.8 184.7,230.1 183.4,230.4 182.3,230.7 181.4,231.0 180.7,231.3 180.3,231.6 180.1,231.9 180.2,232.2 180.5,232.5 181.0,232.7 181.6,233.0 182.2,233.3 182.7,233.6 183.2,233.9 183.6,234.2 183.7,234.5 183.6,234.8 183.1,235.1 182.3,235.3 181.0,235.6 179.3,235.9 177.3,236.2 175.0,236.5 172.4,236.8 169.8,237.1 167.2,237.4 164.7,237.7 162.5,238.0 160.6,238.2 159.2,238.5 158.5,238.8 158.4,239.1 159.1,239.4 160.5,239.7 162.6,240.0 165.4,240.3 168.7,240.6 172.2,240.9 175.9,241.1 179.4,241.4 182.6,241.7 185.5,242.0 187.9,242.3 189.8,242.6 191.3,242.9 192.4,243.2 193.3,243.5 193.9,243.7 194.3,244.0 194.7,244.3 195.0,244.6 195.3,244.9 195.5,245.2 195.7,245.5 195.9,245.8 196.1,246.1 196.2,246.4 196.3,246.6 196.4,246.9" fill="#2a8" opacity="0.5" stroke="#2a8" stroke-width="1"/>
<line x1="162.8" y1="237.90428921402642" x2="230.5" y2="237.90428921402642" stroke="#114" stroke-width="2"/>
<circle cx="196.66666666666669" cy="240.07553690508158" r="2.4" fill="#114"/>
<text x="196.66666666666669" y="222.54998990063115" text-anchor="middle" font-size="11">1.04</text>
<text x="196.66666666666669" y="376" text-anchor="middle" font-size="12">gemvT</text>
<polygon points="288.6,256.4 289.1,255.4 289.8,254.5 290.8,253.5 292.2,252.5 294.1,251.6 296.5,250.6 299.4,249.6 302.8,248.7 306.6,247.7 310.6,246.8 314.7,245.8 318.5,244.8 321.7,243.9 324.2,242.9 325.7,241.9 326.0,241.0 325.3,240.0 323.6,239.1 321.0,238.1 317.8,237.1 314.2,236.2 310.3,235.2 306.5,234.2 302.9,233.3 299.7,232.3 296.8,231.3 294.5,230.4 292.6,229.4 291.1,228.5 290.0,227.5 289.2,226.5 288.7,225.6 288.4,224.6 288.2,223.6 288.1,222.7 288.2,221.7 288.3,220.8 288.5,219.8 288.9,218.8 289.3,217.9 289.9,216.9 290.6,215.9 291.4,215.0 292.3,214.0 293.1,213.0 293.8,212.1 294.3,211.1 294.7,210.2 294.8,209.2 294.6,208.2 294.2,207.3 293.5,206.3 292.8,205.3 291.9,204.4 291.1,203.4 290.4,202.5 289.8,201.5 289.3,200.5 288.9,199.6 288.6,198.6 288.5,197.6 288.4,196.7 288.3,195.7 288.2,194.7 288.2,193.8 288.2,192.8 288.1,191.9 288.1,190.9 288.0,189.9 288.0,189.0 287.9,188.0 287.6,188.0 287.6,189.0 287.6,189.9 287.5,190.9 287.5,191.9 287.4,192.8 287.4,193.8 287.3,194.7 287.3,195.7 287.2,196.7 287.1,197.6 286.9,198.6 286.6,199.6 286.3,200.5 285.8,201.5 285.1,202.5 284.4,203.4 283.6,204.4 282.8,205.3 282.0,206.3 281.4,207.3 281.0,208.2 280.8,209.2 280.9,210.2 281.2,211.1 281.8,212.1 282.5,213.0 283.3,214.0 284.1,215.0 284.9,215.9 285.6,216.9 286.2,217.9 286.7,218.8 287.0,219.8 287.3,220.8 287.4,221.7 287.4,222.7 287.4,223.6 287.2,224.6 286.8,225.6 286.3,226.5 285.5,227.5 284.5,228.5 283.0,229.4 281.1,230.4 278.7,231.3 275.9,232.3 272.6,233.3 269.0,234.2 265.2,235.2 261.4,236.2 257.8,237.1 254.5,238.1 251.9,239.1 250.2,240.0 249.5,241.0 249.9,241.9 251.4,242.9 253.8,243.9 257.1,244.8 260.9,245.8 264.9,246.8 269.0,247.7 272.8,248.7 276.2,249.6 279.1,250.6 281.5,251.6 283.4,252.5 284.8,253.5 285.8,254.5 286.5,255.4 287.0,256.4" fill="#2a8" opacity="0.5" stroke="#2a8" stroke-width="1"/>
<line x1="249.5" y1="241.08626255072906" x2="326.1" y2="241.08626255072906" stroke="#114" stroke-width="2"/>
<circle cx="287.77777777777777" cy="243.78439109072562" r="2.4" fill="#114"/>
<text x="287.77777777777777" y="188.8115262386715" text-anchor="middle" font-size="11">1.01</text>
<text x="287.77777777777777" y="376" text-anchor="middle" font-size="12">ger</text>
<polygon points="382.5,253.7 383.8,252.7 385.4,251.6 387.3,250.6 389.5,249.6 392.0,248.6 394.9,247.6 397.9,246.6 401.1,245.6 404.3,244.5 407.3,243.5 410.2,242.5 412.7,241.5 414.7,240.5 416.1,239.5 417.0,238.5 417.2,237.4 416.7,236.4 415.7,235.4 414.1,234.4 412.2,233.4 409.9,232.4 407.4,231.3 404.8,230.3 402.2,229.3 399.6,228.3 397.2,227.3 394.9,226.3 392.9,225.3 391.1,224.2 389.7,223.2 388.5,222.2 387.6,221.2 386.9,220.2 386.6,219.2 386.5,218.2 386.6,217.1 386.8,216.1 387.2,215.1 387.6,214.1 387.9,213.1 388.3,212.1 388.5,211.1 388.6,210.0 388.7,209.0 388.6,208.0 388.5,207.0 388.3,206.0 388.1,205.0 387.9,203.9 387.8,202.9 387.8,201.9 387.8,200.9 387.9,199.9 388.1,198.9 388.2,197.9 388.4,196.8 388.4,195.8 388.4,194.8 388.3,193.8 388.0,192.8 387.6,191.8 387.1,190.8 386.4,189.7 385.7,188.7 384.9,187.7 384.1,186.7 383.3,185.7 382.6,184.7 381.9,183.7 381.3,182.6 380.8,181.6 377.0,181.6 376.5,182.6 375.9,183.7 375.2,184.7 374.5,185.7 373.7,186.7 372.9,187.7 372.1,188.7 371.4,189.7 370.7,190.8 370.2,191.8 369.8,192.8 369.5,193.8 369.3,194.8 369.3,195.8 369.4,196.8 369.6,197.9 369.7,198.9 369.9,199.9 370.0,200.9 370.0,201.9 370.0,202.9 369.9,203.9 369.7,205.0 369.5,206.0 369.3,207.0 369.2,208.0 369.1,209.0 369.1,210.0 369.3,211.1 369.5,212.1 369.8,213.1 370.2,214.1 370.6,215.1 371.0,216.1 371.2,217.1 371.3,218.2 371.2,219.2 370.8,220.2 370.2,221.2 369.3,222.2 368.1,223.2 366.6,224.2 364.9,225.3 362.8,226.3 360.6,227.3 358.1,228.3 355.6,229.3 353.0,230.3 350.4,231.3 347.9,232.4 345.6,233.4 343.6,234.4 342.1,235.4 341.1,236.4 340.6,237.4 340.8,238.5 341.6,239.5 343.1,240.5 345.1,241.5 347.6,242.5 350.4,243.5 353.5,244.5 356.7,245.6 359.9,246.6 362.9,247.6 365.8,248.6 368.3,249.6 370.5,250.6 372.4,251.6 374.0,252.7 375.2,253.7" fill="#2a8" opacity="0.5" stroke="#2a8" stroke-width="1"/>
<line x1="342.5" y1="235.1200077478433" x2="415.3" y2="235.1200077478433" stroke="#114" stroke-width="2"/>
<circle cx="378.8888888888889" cy="240.66414657058945" r="2.4" fill="#114"/>
<text x="378.8888888888889" y="182.78084806981272" text-anchor="middle" font-size="11">1.06</text>
<text x="378.8888888888889" y="376" text-anchor="middle" font-size="12">symv</text>
<polygon points="474.9,250.3 476.5,249.1 478.4,247.8 480.6,246.6 483.2,245.4 486.2,244.2 489.3,243.0 492.6,241.7 495.9,240.5 499.0,239.3 501.9,238.1 504.4,236.9 506.4,235.6 507.7,234.4 508.3,233.2 508.2,232.0 507.4,230.8 506.0,229.6 504.2,228.3 502.0,227.1 499.6,225.9 497.1,224.7 494.7,223.5 492.5,222.2 490.5,221.0 488.8,219.8 487.3,218.6 486.2,217.4 485.4,216.1 484.7,214.9 484.3,213.7 484.0,212.5 483.9,211.3 483.8,210.0 483.8,208.8 483.7,207.6 483.7,206.4 483.6,205.2 483.4,204.0 483.1,202.7 482.7,201.5 482.2,200.3 481.5,199.1 480.8,197.9 480.1,196.6 479.4,195.4 478.7,194.2 478.1,193.0 477.6,191.8 477.3,190.5 477.2,189.3 477.2,188.1 477.4,186.9 477.7,185.7 478.1,184.4 478.6,183.2 479.0,182.0 479.4,180.8 479.7,179.6 479.8,178.4 479.7,177.1 479.5,175.9 479.1,174.7 478.5,173.5 477.8,172.3 477.0,171.0 476.2,169.8 475.3,168.6 474.5,167.4 473.7,166.2 473.0,164.9 472.4,163.7 467.6,163.7 467.0,164.9 466.3,166.2 465.5,167.4 464.7,168.6 463.8,169.8 463.0,171.0 462.2,172.3 461.5,173.5 460.9,174.7 460.5,175.9 460.3,177.1 460.2,178.4 460.3,179.6 460.6,180.8 461.0,182.0 461.4,183.2 461.9,184.4 462.3,185.7 462.6,186.9 462.8,188.1 462.8,189.3 462.7,190.5 462.4,191.8 461.9,193.0 461.3,194.2 460.6,195.4 459.9,196.6 459.2,197.9 458.5,199.1 457.8,200.3 457.3,201.5 456.9,202.7 456.6,204.0 456.4,205.2 456.3,206.4 456.3,207.6 456.2,208.8 456.2,210.0 456.1,211.3 456.0,212.5 455.7,213.7 455.3,214.9 454.6,216.1 453.8,217.4 452.7,218.6 451.2,219.8 449.5,221.0 447.5,222.2 445.3,223.5 442.9,224.7 440.4,225.9 438.0,227.1 435.8,228.3 434.0,229.6 432.6,230.8 431.8,232.0 431.7,233.2 432.3,234.4 433.6,235.6 435.6,236.9 438.1,238.1 441.0,239.3 444.1,240.5 447.4,241.7 450.7,243.0 453.8,244.2 456.8,245.4 459.4,246.6 461.6,247.8 463.5,249.1 465.1,250.3" fill="#2a8" opacity="0.5" stroke="#2a8" stroke-width="1"/>
<line x1="432.6" y1="230.79669403414442" x2="507.4" y2="230.79669403414442" stroke="#114" stroke-width="2"/>
<circle cx="470.0" cy="234.3817919239055" r="2.4" fill="#114"/>
<text x="470.0" y="166.28606683065007" text-anchor="middle" font-size="11">1.10</text>
<text x="470.0" y="376" text-anchor="middle" font-size="12">trmv</text>
<polygon points="566.8,250.2 568.3,249.0 570.2,247.8 572.3,246.5 574.7,245.3 577.3,244.1 580.1,242.9 583.0,241.7 585.9,240.4 588.8,239.2 591.5,238.0 593.9,236.8 596.0,235.6 597.7,234.3 598.8,233.1 599.4,231.9 599.4,230.7 598.8,229.5 597.8,228.2 596.3,227.0 594.4,225.8 592.3,224.6 590.0,223.3 587.6,222.1 585.3,220.9 583.0,219.7 581.0,218.5 579.1,217.2 577.6,216.0 576.3,214.8 575.4,213.6 574.7,212.4 574.3,211.1 574.2,209.9 574.2,208.7 574.4,207.5 574.8,206.3 575.2,205.0 575.6,203.8 576.0,202.6 576.4,201.4 576.8,200.1 577.1,198.9 577.4,197.7 577.5,196.5 577.6,195.3 577.6,194.0 577.6,192.8 577.5,191.6 577.3,190.4 577.1,189.2 576.9,187.9 576.7,186.7 576.5,185.5 576.3,184.3 576.1,183.1 575.9,181.8 575.7,180.6 575.5,179.4 575.3,178.2 575.1,177.0 574.8,175.7 574.4,174.5 573.9,173.3 573.3,172.1 572.6,170.8 571.8,169.6 570.9,168.4 570.0,167.2 569.0,166.0 568.0,164.7 567.1,163.5 555.2,163.5 554.2,164.7 553.2,166.0 552.3,167.2 551.3,168.4 550.4,169.6 549.7,170.8 549.0,172.1 548.4,173.3 547.9,174.5 547.5,175.7 547.2,177.0 546.9,178.2 546.7,179.4 546.5,180.6 546.3,181.8 546.1,183.1 546.0,184.3 545.7,185.5 545.5,186.7 545.3,187.9 545.1,189.2 544.9,190.4 544.7,191.6 544.6,192.8 544.6,194.0 544.6,195.3 544.7,196.5 544.9,197.7 545.1,198.9 545.4,200.1 545.8,201.4 546.2,202.6 546.6,203.8 547.1,205.0 547.5,206.3 547.8,207.5 548.0,208.7 548.0,209.9 547.9,211.1 547.5,212.4 546.8,213.6 545.9,214.8 544.6,216.0 543.1,217.2 541.3,218.5 539.2,219.7 537.0,220.9 534.6,222.1 532.2,223.3 529.9,224.6 527.8,225.8 525.9,227.0 524.4,228.2 523.4,229.5 522.8,230.7 522.9,231.9 523.4,233.1 524.6,234.3 526.2,235.6 528.3,236.8 530.7,238.0 533.4,239.2 536.3,240.4 539.3,241.7 542.2,242.9 545.0,244.1 547.6,245.3 549.9,246.5 552.0,247.8 553.9,249.0 555.4,250.2" fill="#2a8" opacity="0.5" stroke="#2a8" stroke-width="1"/>
<line x1="530.3" y1="224.37167031295186" x2="591.9" y2="224.37167031295186" stroke="#114" stroke-width="2"/>
<circle cx="561.1111111111111" cy="233.26074656791926" r="2.4" fill="#114"/>
<text x="561.1111111111111" y="166.0973576772004" text-anchor="middle" font-size="11">1.15</text>
<text x="561.1111111111111" y="376" text-anchor="middle" font-size="12">trsv</text>
<polygon points="660.2,271.7 662.3,268.5 664.8,265.4 667.6,262.3 670.5,259.2 673.6,256.1 676.7,252.9 679.7,249.8 682.5,246.7 685.0,243.6 687.1,240.4 688.7,237.3 689.8,234.2 690.4,231.1 690.5,228.0 690.1,224.8 689.3,221.7 688.2,218.6 686.8,215.5 685.1,212.3 683.2,209.2 681.2,206.1 679.1,203.0 676.9,199.9 674.8,196.7 672.8,193.6 670.9,190.5 669.2,187.4 667.7,184.2 666.4,181.1 665.4,178.0 664.7,174.9 664.2,171.8 663.9,168.6 663.7,165.5 663.6,162.4 663.6,159.3 663.5,156.2 663.3,153.0 663.1,149.9 662.7,146.8 662.3,143.7 661.9,140.5 661.4,137.4 661.1,134.3 660.8,131.2 660.6,128.1 660.6,124.9 660.8,121.8 661.1,118.7 661.5,115.6 661.9,112.4 662.3,109.3 662.6,106.2 662.8,103.1 662.8,100.0 662.6,96.8 662.2,93.7 661.7,90.6 661.0,87.5 660.1,84.3 659.2,81.2 658.3,78.1 657.4,75.0 656.6,71.9 655.8,68.7 655.1,65.6 654.5,62.5 654.0,59.4 653.6,56.2 653.3,53.1 653.0,50.0 651.4,50.0 651.1,53.1 650.8,56.2 650.4,59.4 649.9,62.5 649.3,65.6 648.6,68.7 647.9,71.9 647.0,75.0 646.1,78.1 645.2,81.2 644.3,84.3 643.5,87.5 642.8,90.6 642.2,93.7 641.8,96.8 641.7,100.0 641.7,103.1 641.9,106.2 642.2,109.3 642.6,112.4 643.0,115.6 643.4,118.7 643.6,121.8 643.8,124.9 643.8,128.1 643.7,131.2 643.4,134.3 643.0,137.4 642.6,140.5 642.1,143.7 641.7,146.8 641.4,149.9 641.1,153.0 641.0,156.2 640.9,159.3 640.8,162.4 640.7,165.5 640.6,168.6 640.3,171.8 639.8,174.9 639.0,178.0 638.0,181.1 636.8,184.2 635.3,187.4 633.6,190.5 631.6,193.6 629.6,196.7 627.5,199.9 625.4,203.0 623.3,206.1 621.3,209.2 619.4,212.3 617.7,215.5 616.2,218.6 615.1,221.7 614.3,224.8 614.0,228.0 614.1,231.1 614.7,234.2 615.8,237.3 617.4,240.4 619.5,243.6 622.0,246.7 624.8,249.8 627.8,252.9 630.9,256.1 633.9,259.2 636.9,262.3 639.6,265.4 642.1,268.5 644.3,271.7" fill="#2a8" opacity="0.5" stroke="#2a8" stroke-width="1"/>
<line x1="617.9" y1="215.12507467747548" x2="686.6" y2="215.12507467747548" stroke="#114" stroke-width="2"/>
<circle cx="652.2222222222223" cy="243.2975911359627" r="2.4" fill="#114"/>
<text x="652.2222222222223" y="61.433962264150935" text-anchor="middle" font-size="11">1.23</text>
<text x="652.2222222222223" y="376" text-anchor="middle" font-size="12">spmv</text>
<polygon points="743.3,278.6 743.4,277.7 743.4,276.7 743.5,275.7 743.6,274.7 743.7,273.8 743.8,272.8 743.8,271.8 743.8,270.8 743.7,269.9 743.6,268.9 743.5,267.9 743.4,266.9 743.4,266.0 743.3,265.0 743.3,264.0 743.3,263.0 743.4,262.1 743.4,261.1 743.4,260.1 743.5,259.1 743.6,258.2 743.7,257.2 743.8,256.2 743.8,255.2 743.7,254.3 743.6,253.3 743.5,252.3 743.4,251.3 743.4,250.4 743.3,249.4 743.3,248.4 743.3,247.4 743.4,246.5 743.4,245.5 743.5,244.5 743.7,243.5 744.1,242.5 745.0,241.6 746.7,240.6 749.6,239.6 753.9,238.6 759.7,237.7 766.6,236.7 773.5,235.7 779.0,234.7 781.6,233.8 780.8,232.8 777.0,231.8 771.4,230.8 765.4,229.9 760.0,228.9 756.0,227.9 753.5,226.9 752.4,226.0 752.4,225.0 753.0,224.0 753.3,223.0 753.0,222.1 751.7,221.1 750.0,220.1 748.2,219.1 746.6,218.2 745.5,217.2 744.7,216.2 744.2,215.2 743.9,214.3 743.6,213.3 743.5,212.3 743.4,211.3 743.4,210.4 743.3,209.4 743.3,209.4 743.3,210.4 743.3,211.3 743.2,212.3 743.0,213.3 742.8,214.3 742.4,215.2 741.9,216.2 741.2,217.2 740.0,218.2 738.5,219.1 736.7,220.1 734.9,221.1 733.7,222.1 733.3,223.0 733.7,224.0 734.2,225.0 734.3,226.0 733.2,226.9 730.7,227.9 726.6,228.9 721.3,229.9 715.3,230.8 709.6,231.8 705.8,232.8 705.1,233.8 707.7,234.7 713.1,235.7 720.0,236.7 726.9,237.7 732.8,238.6 737.1,239.6 739.9,240.6 741.6,241.6 742.5,242.5 743.0,243.5 743.2,244.5 743.3,245.5 743.3,246.5 743.3,247.4 743.3,248.4 743.3,249.4 743.3,250.4 743.2,251.3 743.2,252.3 743.1,253.3 743.0,254.3 742.9,255.2 742.9,256.2 742.9,257.2 743.0,258.2 743.1,259.1 743.2,260.1 743.3,261.1 743.3,262.1 743.3,263.0 743.3,264.0 743.3,265.0 743.3,266.0 743.3,266.9 743.2,267.9 743.1,268.9 743.0,269.9 742.9,270.8 742.9,271.8 742.9,272.8 743.0,273.8 743.1,274.7 743.2,275.7 743.3,276.7 743.3,277.7 743.3,278.6" fill="#2a8" opacity="0.5" stroke="#2a8" stroke-width="1"/>
<line x1="705.8" y1="232.82644450678168" x2="780.9" y2="232.82644450678168" stroke="#114" stroke-width="2"/>
<circle cx="743.3333333333334" cy="235.33206947319903" r="2.4" fill="#114"/>
<text x="743.3333333333334" y="210.2679748774779" text-anchor="middle" font-size="11">1.08</text>
<text x="743.3333333333334" y="376" text-anchor="middle" font-size="12">gbmvN</text>
<polygon points="834.5,219.3 834.5,217.7 834.5,216.1 834.6,214.6 834.7,213.0 834.8,211.4 834.9,209.9 834.9,208.3 834.9,206.7 834.8,205.2 834.7,203.6 834.6,202.0 834.5,200.5 834.5,198.9 834.5,197.3 834.4,195.8 834.4,194.2 834.4,192.6 834.4,191.1 834.4,189.5 834.4,187.9 834.5,186.4 834.5,184.8 834.5,183.2 834.7,181.6 835.0,180.1 835.8,178.5 837.5,176.9 840.7,175.4 845.8,173.8 852.7,172.2 860.7,170.7 867.8,169.1 872.2,167.5 872.7,166.0 869.7,164.4 864.4,162.8 858.7,161.3 853.6,159.7 849.6,158.1 846.6,156.6 844.4,155.0 842.8,153.4 841.9,151.9 841.7,150.3 841.9,148.7 842.1,147.1 841.9,145.6 841.0,144.0 839.6,142.4 838.1,140.9 836.7,139.3 835.7,137.7 835.1,136.2 834.7,134.6 834.6,133.0 834.5,131.5 834.5,129.9 834.6,128.3 834.7,126.8 834.9,125.2 835.1,123.6 835.2,122.1 835.3,120.5 835.3,118.9 835.1,117.4 834.9,115.8 834.7,114.2 834.6,112.7 834.5,111.1 834.5,109.5 834.5,107.9 834.4,107.9 834.4,109.5 834.4,111.1 834.3,112.7 834.1,114.2 834.0,115.8 833.8,117.4 833.6,118.9 833.6,120.5 833.7,122.1 833.8,123.6 834.0,125.2 834.2,126.8 834.3,128.3 834.4,129.9 834.4,131.5 834.3,133.0 834.2,134.6 833.8,136.2 833.2,137.7 832.2,139.3 830.8,140.9 829.3,142.4 827.9,144.0 827.0,145.6 826.7,147.1 827.0,148.7 827.2,150.3 827.0,151.9 826.1,153.4 824.5,155.0 822.3,156.6 819.3,158.1 815.3,159.7 810.2,161.3 804.5,162.8 799.2,164.4 796.2,166.0 796.7,167.5 801.1,169.1 808.2,170.7 816.1,172.2 823.1,173.8 828.2,175.4 831.4,176.9 833.1,178.5 833.9,180.1 834.2,181.6 834.4,183.2 834.4,184.8 834.4,186.4 834.4,187.9 834.4,189.5 834.4,191.1 834.4,192.6 834.4,194.2 834.4,195.8 834.4,197.3 834.4,198.9 834.4,200.5 834.3,202.0 834.2,203.6 834.1,205.2 834.0,206.7 834.0,208.3 834.0,209.9 834.1,211.4 834.2,213.0 834.3,214.6 834.4,216.1 834.4,217.7 834.4,219.3" fill="#2a8" opacity="0.5" stroke="#2a8" stroke-width="1"/>
<line x1="796.3" y1="165.866220051149" x2="872.6" y2="165.866220051149" stroke="#114" stroke-width="2"/>
<circle cx="834.4444444444445" cy="168.45071781886756" r="2.4" fill="#114"/>
<text x="834.4444444444445" y="112.91012098627829" text-anchor="middle" font-size="11">1.66</text>
<text x="834.4444444444445" y="376" text-anchor="middle" font-size="12">sbmv</text>
<text x="450.0" y="428" text-anchor="middle" font-size="11" fill="#666">violin = ratio distribution over sizes · line = median · dark dot = worst size · green = every size ≥ gate</text>
</svg>
