<svg xmlns="http://www.w3.org/2000/svg" width="900" height="440" font-family="sans-serif">
<rect width="900" height="440" fill="white"/>
<text x="450.0" y="28" text-anchor="middle" font-size="18" font-weight="bold">BLAS-1: PureBLAS / OpenBLAS (Zen4, 1 thread, Float64)</text>
<line x1="60" y1="358.0" x2="880" y2="358.0" stroke="#eee"/>
<text x="52" y="362.0" text-anchor="end" font-size="11" fill="#666">0×</text>
<line x1="60" y1="347.1619425001446" x2="880" y2="347.1619425001446" stroke="#eee"/>
<text x="52" y="351.1619425001446" text-anchor="end" font-size="11" fill="#666">0.5×</text>
<line x1="60" y1="336.32388500028924" x2="880" y2="336.32388500028924" stroke="#eee"/>
<text x="52" y="340.32388500028924" text-anchor="end" font-size="11" fill="#666">1×</text>
<line x1="60" y1="325.48582750043386" x2="880" y2="325.48582750043386" stroke="#eee"/>
<text x="52" y="329.48582750043386" text-anchor="end" font-size="11" fill="#666">1.5×</text>
<line x1="60" y1="336.32388500028924" x2="880" y2="336.32388500028924" stroke="#888" stroke-width="1"/>
<line x1="60" y1="337.1909296002777" x2="880" y2="337.1909296002777" stroke="#d33" stroke-width="1.5" stroke-dasharray="6 4"/>
<text x="880" y="332.1909296002777" text-anchor="end" font-size="11" fill="#d33">0.96× gate</text>
<polygon points="128.4,348.1 128.4,347.8 128.5,347.4 128.6,347.1 128.8,346.7 128.9,346.3 129.1,346.0 129.1,345.6 129.1,345.3 129.1,344.9 129.0,344.5 129.0,344.2 129.0,343.8 129.1,343.5 129.3,343.1 129.4,342.8 129.6,342.4 129.8,342.0 130.2,341.7 130.8,341.3 131.5,341.0 132.5,340.6 133.6,340.3 135.0,339.9 136.8,339.5 139.1,339.2 142.2,338.8 146.3,338.5 151.7,338.1 158.5,337.8 166.2,337.4 174.1,337.0 180.8,336.7 184.9,336.3 185.7,336.0 183.2,335.6 178.1,335.2 171.9,334.9 165.7,334.5 160.2,334.2 155.6,333.8 151.5,333.5 147.9,333.1 144.5,332.7 141.6,332.4 139.2,332.0 137.4,331.7 136.0,331.3 135.0,331.0 134.1,330.6 133.4,330.2 132.7,329.9 132.2,329.5 131.8,329.2 131.4,328.8 131.2,328.4 130.9,328.1 130.7,327.7 130.5,327.4 130.2,327.0 129.9,326.7 129.7,326.3 129.5,325.9 129.4,325.6 129.3,325.2 129.2,324.9 129.0,324.5 128.8,324.2 128.6,323.8 128.5,323.4 128.4,323.1 128.4,322.7 128.3,322.7 128.2,323.1 128.1,323.4 128.0,323.8 127.9,324.2 127.7,324.5 127.5,324.9 127.4,325.2 127.3,325.6 127.1,325.9 127.0,326.3 126.7,326.7 126.5,327.0 126.2,327.4 126.0,327.7 125.7,328.1 125.5,328.4 125.2,328.8 124.9,329.2 124.5,329.5 123.9,329.9 123.3,330.2 122.5,330.6 121.7,331.0 120.7,331.3 119.3,331.7 117.5,332.0 115.1,332.4 112.1,332.7 108.8,333.1 105.2,333.5 101.1,333.8 96.4,334.2 91.0,334.5 84.8,334.9 78.6,335.2 73.5,335.6 70.9,336.0 71.7,336.3 75.9,336.7 82.6,337.0 90.5,337.4 98.2,337.8 104.9,338.1 110.3,338.5 114.5,338.8 117.5,339.2 119.9,339.5 121.7,339.9 123.1,340.3 124.2,340.6 125.1,341.0 125.9,341.3 126.5,341.7 126.9,342.0 127.1,342.4 127.3,342.8 127.4,343.1 127.5,343.5 127.6,343.8 127.7,344.2 127.7,344.5 127.6,344.9 127.6,345.3 127.5,345.6 127.6,346.0 127.7,346.3 127.9,346.7 128.0,347.1 128.1,347.4 128.2,347.8 128.3,348.1" fill="#2a8" opacity="0.5" stroke="#2a8" stroke-width="1"/>
<line x1="70.9" y1="335.9609842694052" x2="185.7" y2="335.9609842694052" stroke="#114" stroke-width="2"/>
<circle cx="128.33333333333331" cy="336.4358031167355" r="2.4" fill="#114"/>
<text x="128.33333333333331" y="319.21715355558405" text-anchor="middle" font-size="11">1.02</text>
<text x="128.33333333333331" y="376" text-anchor="middle" font-size="12">axpy</text>
<polygon points="265.0,347.0 265.1,346.7 265.2,346.4 265.3,346.0 265.5,345.7 265.7,345.3 265.9,345.0 266.1,344.6 266.2,344.3 266.2,344.0 266.1,343.6 265.9,343.3 265.7,342.9 265.7,342.6 265.8,342.3 266.1,341.9 266.7,341.6 267.4,341.2 268.3,340.9 269.4,340.5 270.7,340.2 272.2,339.9 273.9,339.5 275.8,339.2 278.2,338.8 281.4,338.5 286.0,338.2 292.3,337.8 300.3,337.5 309.1,337.1 316.9,336.8 321.8,336.4 322.4,336.1 318.6,335.8 311.5,335.4 302.8,335.1 294.1,334.7 286.5,334.4 280.5,334.1 276.2,333.7 273.2,333.4 271.3,333.0 270.2,332.7 269.6,332.3 269.3,332.0 269.0,331.7 268.6,331.3 268.2,331.0 267.6,330.6 267.1,330.3 266.7,330.0 266.5,329.6 266.5,329.3 266.7,328.9 266.9,328.6 266.9,328.2 266.8,327.9 266.6,327.6 266.3,327.2 265.9,326.9 265.7,326.5 265.6,326.2 265.6,325.9 265.7,325.5 265.7,325.2 265.6,324.8 265.5,324.5 265.4,324.1 265.2,323.8 265.1,323.5 265.1,323.1 265.0,322.8 265.0,322.8 264.9,323.1 264.9,323.5 264.8,323.8 264.6,324.1 264.5,324.5 264.4,324.8 264.3,325.2 264.3,325.5 264.4,325.9 264.4,326.2 264.3,326.5 264.1,326.9 263.7,327.2 263.4,327.6 263.2,327.9 263.1,328.2 263.1,328.6 263.3,328.9 263.5,329.3 263.5,329.6 263.3,330.0 262.9,330.3 262.4,330.6 261.8,331.0 261.4,331.3 261.0,331.7 260.7,332.0 260.4,332.3 259.8,332.7 258.7,333.0 256.8,333.4 253.8,333.7 249.5,334.1 243.5,334.4 235.9,334.7 227.2,335.1 218.5,335.4 211.4,335.8 207.6,336.1 208.2,336.4 213.1,336.8 220.9,337.1 229.7,337.5 237.7,337.8 244.0,338.2 248.6,338.5 251.8,338.8 254.2,339.2 256.1,339.5 257.8,339.9 259.3,340.2 260.6,340.5 261.7,340.9 262.6,341.2 263.3,341.6 263.9,341.9 264.2,342.3 264.3,342.6 264.3,342.9 264.1,343.3 263.9,343.6 263.8,344.0 263.8,344.3 263.9,344.6 264.1,345.0 264.3,345.3 264.5,345.7 264.7,346.0 264.8,346.4 264.9,346.7 265.0,347.0" fill="#2a8" opacity="0.5" stroke="#2a8" stroke-width="1"/>
<line x1="207.3" y1="336.2702530345166" x2="322.7" y2="336.2702530345166" stroke="#114" stroke-width="2"/>
<circle cx="265.0" cy="336.51305883603004" r="2.4" fill="#114"/>
<text x="265.0" y="319.1604578131402" text-anchor="middle" font-size="11">1.00</text>
<text x="265.0" y="376" text-anchor="middle" font-size="12">dot</text>
<polygon points="402.1,345.9 402.4,341.8 402.8,337.6 403.4,333.4 404.2,329.3 405.4,325.1 407.0,320.9 409.3,316.8 412.2,312.6 415.9,308.4 420.2,304.3 425.2,300.1 430.5,295.9 436.0,291.8 441.1,287.6 445.6,283.4 449.3,279.3 451.8,275.1 453.4,270.9 454.0,266.7 453.9,262.6 453.6,258.4 453.3,254.2 453.3,250.1 453.8,245.9 454.7,241.7 455.9,237.6 457.3,233.4 458.4,229.2 459.1,225.1 459.1,220.9 458.2,216.7 456.6,212.6 454.2,208.4 451.1,204.2 447.6,200.1 443.8,195.9 439.9,191.7 436.1,187.6 432.2,183.4 428.5,179.2 424.9,175.0 421.4,170.9 418.1,166.7 415.1,162.5 412.3,158.4 409.9,154.2 407.9,150.0 406.2,145.9 405.0,141.7 404.1,137.5 403.5,133.4 403.2,129.2 403.2,125.0 403.4,120.9 403.7,116.7 404.2,112.5 404.8,108.4 405.5,104.2 406.1,100.0 406.7,95.9 407.2,91.7 407.6,87.5 407.8,83.3 407.8,79.2 407.5,75.0 407.2,70.8 406.6,66.7 406.0,62.5 405.3,58.3 404.6,54.2 403.9,50.0 399.4,50.0 398.8,54.2 398.1,58.3 397.4,62.5 396.7,66.7 396.2,70.8 395.8,75.0 395.6,79.2 395.6,83.3 395.7,87.5 396.1,91.7 396.6,95.9 397.2,100.0 397.9,104.2 398.5,108.4 399.1,112.5 399.6,116.7 400.0,120.9 400.2,125.0 400.1,129.2 399.8,133.4 399.3,137.5 398.4,141.7 397.1,145.9 395.5,150.0 393.4,154.2 391.0,158.4 388.3,162.5 385.2,166.7 382.0,170.9 378.5,175.0 374.9,179.2 371.1,183.4 367.3,187.6 363.4,191.7 359.5,195.9 355.7,200.1 352.2,204.2 349.2,208.4 346.8,212.6 345.1,216.7 344.3,220.9 344.3,225.1 344.9,229.2 346.1,233.4 347.4,237.6 348.6,241.7 349.5,245.9 350.0,250.1 350.0,254.2 349.7,258.4 349.4,262.6 349.4,266.7 350.0,270.9 351.5,275.1 354.1,279.3 357.7,283.4 362.2,287.6 367.4,291.8 372.8,295.9 378.1,300.1 383.1,304.3 387.5,308.4 391.1,312.6 394.0,316.8 396.3,320.9 397.9,325.1 399.1,329.3 400.0,333.4 400.6,337.6 400.9,341.8 401.2,345.9" fill="#2a8" opacity="0.5" stroke="#2a8" stroke-width="1"/>
<line x1="345.1" y1="229.83235287558665" x2="458.3" y2="229.83235287558665" stroke="#114" stroke-width="2"/>
<circle cx="401.66666666666663" cy="279.9196684383181" r="2.4" fill="#114"/>
<text x="401.66666666666663" y="61.433962264150935" text-anchor="middle" font-size="11">5.91</text>
<text x="401.66666666666663" y="376" text-anchor="middle" font-size="12">nrm2</text>
<polygon points="538.6,343.7 538.8,343.4 539.0,343.1 539.2,342.8 539.5,342.6 539.8,342.3 540.0,342.0 540.2,341.7 540.4,341.4 540.6,341.1 540.8,340.8 541.2,340.5 541.7,340.2 542.5,340.0 543.6,339.7 545.2,339.4 547.2,339.1 550.0,338.8 553.7,338.5 558.5,338.2 564.2,337.9 570.8,337.6 577.7,337.4 584.4,337.1 590.1,336.8 594.0,336.5 595.7,336.2 595.1,335.9 592.4,335.6 588.2,335.3 583.1,335.0 577.9,334.8 573.0,334.5 568.8,334.2 565.4,333.9 562.7,333.6 560.7,333.3 559.1,333.0 557.9,332.7 556.7,332.4 555.6,332.2 554.5,331.9 553.1,331.6 551.7,331.3 550.2,331.0 548.8,330.7 547.5,330.4 546.4,330.1 545.6,329.8 545.0,329.6 544.7,329.3 544.6,329.0 544.5,328.7 544.3,328.4 544.1,328.1 543.7,327.8 543.1,327.5 542.6,327.2 542.0,327.0 541.4,326.7 541.0,326.4 540.6,326.1 540.3,325.8 540.1,325.5 539.8,325.2 539.6,324.9 539.4,324.6 539.1,324.4 538.9,324.1 538.8,323.8 538.6,323.5 538.5,323.2 538.2,323.2 538.1,323.5 537.9,323.8 537.7,324.1 537.5,324.4 537.3,324.6 537.1,324.9 536.8,325.2 536.6,325.5 536.3,325.8 536.1,326.1 535.7,326.4 535.2,326.7 534.7,327.0 534.1,327.2 533.5,327.5 533.0,327.8 532.6,328.1 532.4,328.4 532.2,328.7 532.1,329.0 532.0,329.3 531.6,329.6 531.1,329.8 530.3,330.1 529.2,330.4 527.9,330.7 526.4,331.0 524.9,331.3 523.5,331.6 522.2,331.9 521.0,332.2 519.9,332.4 518.8,332.7 517.6,333.0 516.0,333.3 513.9,333.6 511.3,333.9 507.9,334.2 503.7,334.5 498.8,334.8 493.6,335.0 488.5,335.3 484.3,335.6 481.6,335.9 480.9,336.2 482.6,336.5 486.6,336.8 492.2,337.1 498.9,337.4 505.9,337.6 512.5,337.9 518.2,338.2 522.9,338.5 526.6,338.8 529.4,339.1 531.5,339.4 533.0,339.7 534.2,340.0 534.9,340.2 535.5,340.5 535.8,340.8 536.1,341.1 536.3,341.4 536.5,341.7 536.7,342.0 536.9,342.3 537.2,342.6 537.4,342.8 537.7,343.1 537.9,343.4 538.1,343.7" fill="#2a8" opacity="0.5" stroke="#2a8" stroke-width="1"/>
<line x1="481.4" y1="335.9349933405841" x2="595.3" y2="335.9349933405841" stroke="#114" stroke-width="2"/>
<circle cx="538.3333333333333" cy="336.41003697268457" r="2.4" fill="#114"/>
<text x="538.3333333333333" y="319.21788308942115" text-anchor="middle" font-size="11">1.02</text>
<text x="538.3333333333333" y="376" text-anchor="middle" font-size="12">asum</text>
<polygon points="675.1,343.3 675.2,343.0 675.3,342.7 675.4,342.4 675.6,342.1 675.8,341.9 676.0,341.6 676.3,341.3 676.5,341.0 676.8,340.7 677.1,340.5 677.4,340.2 677.6,339.9 677.8,339.6 678.0,339.3 678.1,339.0 678.2,338.8 678.5,338.5 679.1,338.2 680.2,337.9 681.8,337.6 684.1,337.3 687.1,337.1 690.8,336.8 695.0,336.5 699.8,336.2 705.0,335.9 710.6,335.6 716.3,335.4 722.0,335.1 727.0,334.8 730.6,334.5 732.4,334.2 732.0,334.0 729.4,333.7 725.1,333.4 719.7,333.1 713.7,332.8 707.9,332.5 702.5,332.3 697.7,332.0 693.7,331.7 690.4,331.4 687.7,331.1 685.5,330.8 683.8,330.6 682.5,330.3 681.6,330.0 681.0,329.7 680.5,329.4 680.2,329.2 679.8,328.9 679.5,328.6 679.1,328.3 678.7,328.0 678.3,327.7 678.0,327.5 677.7,327.2 677.4,326.9 677.3,326.6 677.1,326.3 677.0,326.0 676.8,325.8 676.6,325.5 676.4,325.2 676.1,324.9 675.9,324.6 675.7,324.3 675.4,324.1 675.3,323.8 675.2,323.5 675.1,323.2 674.9,323.2 674.8,323.5 674.7,323.8 674.6,324.1 674.3,324.3 674.1,324.6 673.9,324.9 673.6,325.2 673.4,325.5 673.2,325.8 673.0,326.0 672.9,326.3 672.7,326.6 672.6,326.9 672.3,327.2 672.0,327.5 671.7,327.7 671.3,328.0 670.9,328.3 670.5,328.6 670.2,328.9 669.8,329.2 669.5,329.4 669.0,329.7 668.4,330.0 667.5,330.3 666.2,330.6 664.5,330.8 662.3,331.1 659.6,331.4 656.3,331.7 652.3,332.0 647.5,332.3 642.1,332.5 636.3,332.8 630.3,333.1 624.9,333.4 620.6,333.7 618.0,334.0 617.6,334.2 619.4,334.5 623.0,334.8 628.0,335.1 633.7,335.4 639.4,335.6 645.0,335.9 650.2,336.2 655.0,336.5 659.2,336.8 662.9,337.1 665.9,337.3 668.2,337.6 669.8,337.9 670.9,338.2 671.5,338.5 671.8,338.8 671.9,339.0 672.0,339.3 672.2,339.6 672.4,339.9 672.6,340.2 672.9,340.5 673.2,340.7 673.5,341.0 673.7,341.3 674.0,341.6 674.2,341.9 674.4,342.1 674.6,342.4 674.7,342.7 674.8,343.0 674.9,343.3" fill="#2a8" opacity="0.5" stroke="#2a8" stroke-width="1"/>
<line x1="617.6" y1="334.0715584926797" x2="732.4" y2="334.0715584926797" stroke="#114" stroke-width="2"/>
<circle cx="675.0" cy="335.07744885707007" r="2.4" fill="#114"/>
<text x="675.0" y="319.1950722274491" text-anchor="middle" font-size="11">1.10</text>
<text x="675.0" y="376" text-anchor="middle" font-size="12">scal</text>
<polygon points="812.4,349.8 812.7,349.3 813.0,348.8 813.4,348.3 813.8,347.8 814.4,347.3 815.1,346.8 815.9,346.3 816.9,345.8 818.1,345.3 819.5,344.8 821.2,344.3 823.1,343.8 825.3,343.3 827.7,342.8 830.3,342.3 833.0,341.8 835.8,341.2 838.6,340.7 841.3,340.2 843.7,339.7 845.9,339.2 847.8,338.7 849.3,338.2 850.5,337.7 851.5,337.2 852.2,336.7 852.7,336.2 853.2,335.7 853.7,335.2 854.3,334.7 855.1,334.2 856.0,333.7 857.1,333.2 858.4,332.7 860.0,332.2 861.7,331.7 863.4,331.1 865.1,330.6 866.6,330.1 867.8,329.6 868.7,329.1 869.1,328.6 869.0,328.1 868.5,327.6 867.5,327.1 866.3,326.6 864.8,326.1 863.3,325.6 861.7,325.1 860.2,324.6 858.9,324.1 857.7,323.6 856.5,323.1 855.5,322.6 854.4,322.1 853.1,321.6 851.7,321.0 850.0,320.5 848.0,320.0 845.6,319.5 842.9,319.0 839.9,318.5 836.7,318.0 833.4,317.5 830.1,317.0 827.0,316.5 824.1,316.0 821.5,315.5 819.3,315.0 817.4,314.5 815.8,314.0 807.5,314.0 806.0,314.5 804.1,315.0 801.8,315.5 799.2,316.0 796.3,316.5 793.2,317.0 789.9,317.5 786.7,318.0 783.5,318.5 780.5,319.0 777.8,319.5 775.4,320.0 773.3,320.5 771.6,321.0 770.2,321.6 769.0,322.1 767.9,322.6 766.8,323.1 765.7,323.6 764.5,324.1 763.1,324.6 761.6,325.1 760.1,325.6 758.5,326.1 757.1,326.6 755.8,327.1 754.9,327.6 754.3,328.1 754.3,328.6 754.7,329.1 755.5,329.6 756.8,330.1 758.3,330.6 760.0,331.1 761.7,331.7 763.4,332.2 764.9,332.7 766.2,333.2 767.4,333.7 768.3,334.2 769.0,334.7 769.6,335.2 770.1,335.7 770.6,336.2 771.2,336.7 771.9,337.2 772.8,337.7 774.0,338.2 775.5,338.7 777.4,339.2 779.6,339.7 782.1,340.2 784.7,340.7 787.5,341.2 790.3,341.8 793.0,342.3 795.6,342.8 798.1,343.3 800.2,343.8 802.2,344.3 803.8,344.8 805.2,345.3 806.4,345.8 807.4,346.3 808.2,346.8 808.9,347.3 809.5,347.8 810.0,348.3 810.4,348.8 810.7,349.3 810.9,349.8" fill="#2a8" opacity="0.5" stroke="#2a8" stroke-width="1"/>
<line x1="754.8" y1="329.1928694627082" x2="868.6" y2="329.1928694627082" stroke="#114" stroke-width="2"/>
<circle cx="811.6666666666666" cy="333.1772388686482" r="2.4" fill="#114"/>
<text x="811.6666666666666" y="311.4851630973846" text-anchor="middle" font-size="11">1.33</text>
<text x="811.6666666666666" y="376" text-anchor="middle" font-size="12">iamax</text>
<text x="450.0" y="428" text-anchor="middle" font-size="11" fill="#666">violin = ratio distribution over sizes · line = median · dark dot = worst size · green = every size ≥ gate</text>
</svg>
