<svg xmlns="http://www.w3.org/2000/svg" width="900" height="440" font-family="sans-serif">
<rect width="900" height="440" fill="white"/>
<text x="450.0" y="28" text-anchor="middle" font-size="18" font-weight="bold">Complex BLAS-1: PureBLAS / OpenBLAS (AVX-512, 1 thread, ComplexF64)</text>
<line x1="60" y1="358.0" x2="880" y2="358.0" stroke="#eee"/>
<text x="52" y="362.0" text-anchor="end" font-size="11" fill="#666">0×</text>
<line x1="60" y1="346.7445673119728" x2="880" y2="346.7445673119728" stroke="#eee"/>
<text x="52" y="350.7445673119728" text-anchor="end" font-size="11" fill="#666">0.5×</text>
<line x1="60" y1="335.4891346239455" x2="880" y2="335.4891346239455" stroke="#eee"/>
<text x="52" y="339.4891346239455" text-anchor="end" font-size="11" fill="#666">1×</text>
<line x1="60" y1="324.2337019359183" x2="880" y2="324.2337019359183" stroke="#eee"/>
<text x="52" y="328.2337019359183" text-anchor="end" font-size="11" fill="#666">1.5×</text>
<line x1="60" y1="335.4891346239455" x2="880" y2="335.4891346239455" stroke="#888" stroke-width="1"/>
<line x1="60" y1="336.38956923898775" x2="880" y2="336.38956923898775" stroke="#d33" stroke-width="1.5" stroke-dasharray="6 4"/>
<text x="880" y="331.38956923898775" text-anchor="end" font-size="11" fill="#d33">0.96× gate</text>
<polygon points="118.6,340.8 118.6,340.7 118.7,340.5 118.7,340.3 118.7,340.2 118.8,340.0 118.8,339.9 118.9,339.7 118.9,339.6 118.9,339.4 118.9,339.2 119.1,339.1 119.2,338.9 119.5,338.8 119.8,338.6 120.2,338.5 120.6,338.3 121.0,338.1 121.6,338.0 122.4,337.8 123.6,337.7 125.4,337.5 127.8,337.4 130.9,337.2 134.6,337.0 138.9,336.9 143.6,336.7 148.7,336.6 153.9,336.4 159.0,336.3 163.3,336.1 166.4,335.9 167.8,335.8 167.1,335.6 164.4,335.5 160.1,335.3 154.7,335.2 148.8,335.0 142.9,334.8 137.6,334.7 132.9,334.5 129.1,334.4 126.2,334.2 124.1,334.0 122.6,333.9 121.6,333.7 121.0,333.6 120.7,333.4 120.6,333.3 120.7,333.1 121.1,332.9 121.6,332.8 122.2,332.6 123.0,332.5 123.8,332.3 124.5,332.2 125.1,332.0 125.5,331.8 125.7,331.7 125.8,331.5 125.7,331.4 125.4,331.2 124.8,331.1 124.1,330.9 123.2,330.7 122.2,330.6 121.2,330.4 120.4,330.3 119.7,330.1 119.3,330.0 119.0,329.8 118.8,329.6 118.4,329.6 118.2,329.8 117.9,330.0 117.4,330.1 116.7,330.3 115.9,330.4 115.0,330.6 114.0,330.7 113.1,330.9 112.3,331.1 111.8,331.2 111.5,331.4 111.4,331.5 111.4,331.7 111.7,331.8 112.1,332.0 112.7,332.2 113.4,332.3 114.1,332.5 114.9,332.6 115.6,332.8 116.1,332.9 116.4,333.1 116.5,333.3 116.5,333.4 116.1,333.6 115.5,333.7 114.6,333.9 113.1,334.0 110.9,334.2 108.0,334.4 104.2,334.5 99.6,334.7 94.2,334.8 88.4,335.0 82.5,335.2 77.1,335.3 72.7,335.5 70.1,335.6 69.4,335.8 70.7,335.9 73.8,336.1 78.2,336.3 83.2,336.4 88.5,336.6 93.5,336.7 98.3,336.9 102.5,337.0 106.2,337.2 109.3,337.4 111.8,337.5 113.5,337.7 114.7,337.8 115.5,338.0 116.1,338.1 116.6,338.3 117.0,338.5 117.3,338.6 117.7,338.8 117.9,338.9 118.1,339.1 118.2,339.2 118.2,339.4 118.3,339.6 118.3,339.7 118.3,339.9 118.3,340.0 118.4,340.2 118.4,340.3 118.5,340.5 118.5,340.7 118.5,340.8" fill="#d33" opacity="0.5" stroke="#d33" stroke-width="1"/>
<line x1="69.5" y1="335.70091571578513" x2="167.7" y2="335.70091571578513" stroke="#114" stroke-width="2"/>
<circle cx="118.57142857142857" cy="336.72937600709804" r="2.4" fill="#114"/>
<text x="118.57142857142857" y="324.7632228101746" text-anchor="middle" font-size="11">0.99</text>
<text x="118.57142857142857" y="376" text-anchor="middle" font-size="12">zaxpy</text>
<polygon points="242.6,336.5 244.6,336.4 247.1,336.4 249.9,336.3 253.1,336.2 256.6,336.1 260.4,336.0 264.3,335.9 268.2,335.8 272.0,335.7 275.5,335.6 278.6,335.5 281.2,335.4 283.1,335.4 284.4,335.3 284.9,335.2 284.8,335.1 284.0,335.0 282.7,334.9 280.9,334.8 278.8,334.7 276.4,334.6 273.9,334.5 271.2,334.4 268.6,334.4 266.1,334.3 263.7,334.2 261.5,334.1 259.4,334.0 257.6,333.9 255.9,333.8 254.4,333.7 253.2,333.6 252.1,333.5 251.2,333.4 250.5,333.4 250.0,333.3 249.8,333.2 249.9,333.1 250.3,333.0 250.9,332.9 251.9,332.8 253.3,332.7 254.9,332.6 256.8,332.5 258.9,332.4 261.2,332.4 263.5,332.3 266.0,332.2 268.4,332.1 270.6,332.0 272.8,331.9 274.6,331.8 276.2,331.7 277.4,331.6 278.1,331.5 278.4,331.5 278.1,331.4 277.2,331.3 275.8,331.2 273.9,331.1 271.5,331.0 268.7,330.9 265.6,330.8 262.3,330.7 258.9,330.6 255.6,330.5 252.4,330.5 249.5,330.4 246.9,330.3 244.5,330.2 242.6,330.1 228.9,330.1 226.9,330.2 224.6,330.3 221.9,330.4 219.0,330.5 215.8,330.5 212.5,330.6 209.1,330.7 205.8,330.8 202.7,330.9 199.9,331.0 197.5,331.1 195.6,331.2 194.2,331.3 193.4,331.4 193.1,331.5 193.3,331.5 194.1,331.6 195.3,331.7 196.8,331.8 198.7,331.9 200.8,332.0 203.1,332.1 205.5,332.2 207.9,332.3 210.3,332.4 212.6,332.4 214.7,332.5 216.6,332.6 218.2,332.7 219.5,332.8 220.5,332.9 221.2,333.0 221.5,333.1 221.6,333.2 221.4,333.3 220.9,333.4 220.2,333.4 219.4,333.5 218.3,333.6 217.0,333.7 215.5,333.8 213.9,333.9 212.0,334.0 209.9,334.1 207.7,334.2 205.3,334.3 202.8,334.4 200.2,334.4 197.6,334.5 195.0,334.6 192.6,334.7 190.5,334.8 188.7,334.9 187.4,335.0 186.6,335.1 186.5,335.2 187.1,335.3 188.3,335.4 190.3,335.4 192.8,335.5 195.9,335.6 199.4,335.7 203.2,335.8 207.1,335.9 211.0,336.0 214.8,336.1 218.3,336.2 221.5,336.3 224.4,336.4 226.8,336.4 228.9,336.5" fill="#2a8" opacity="0.5" stroke="#2a8" stroke-width="1"/>
<line x1="217.4" y1="333.6931481043139" x2="254.0" y2="333.6931481043139" stroke="#114" stroke-width="2"/>
<circle cx="235.71428571428572" cy="335.46246082047725" r="2.4" fill="#114"/>
<text x="235.71428571428572" y="324.7500274517048" text-anchor="middle" font-size="11">1.08</text>
<text x="235.71428571428572" y="376" text-anchor="middle" font-size="12">zdotc</text>
<polygon points="352.9,341.8 352.9,341.7 352.9,341.6 352.9,341.5 352.9,341.4 353.0,341.2 353.1,341.1 353.1,341.0 353.1,340.9 353.1,340.8 353.0,340.7 352.9,340.6 352.9,340.5 352.9,340.4 352.9,340.2 352.9,340.1 352.9,340.0 352.9,339.9 352.9,339.8 352.9,339.7 352.9,339.6 352.9,339.5 352.9,339.4 352.9,339.3 352.9,339.1 352.9,339.0 352.9,338.9 352.9,338.8 352.9,338.7 352.9,338.6 352.9,338.5 352.9,338.4 352.9,338.3 353.0,338.1 353.2,338.0 353.5,337.9 353.9,337.8 354.3,337.7 354.8,337.6 355.5,337.5 356.4,337.4 357.2,337.3 357.8,337.1 358.2,337.0 358.8,336.9 360.0,336.8 361.5,336.7 362.8,336.6 363.2,336.5 362.9,336.4 362.2,336.3 362.2,336.1 363.8,336.0 367.6,335.9 373.5,335.8 381.0,335.7 388.9,335.6 396.3,335.5 401.3,335.4 402.1,335.3 397.7,335.1 389.7,335.0 380.9,334.9 373.2,334.8 366.9,334.7 361.7,334.6 357.7,334.5 355.1,334.4 353.7,334.3 353.1,334.1 352.9,334.0 352.9,333.9 352.8,333.9 352.8,334.0 352.6,334.1 352.0,334.3 350.6,334.4 348.0,334.5 344.0,334.6 338.8,334.7 332.5,334.8 324.8,334.9 316.0,335.0 308.0,335.1 303.7,335.3 304.4,335.4 309.4,335.5 316.8,335.6 324.7,335.7 332.2,335.8 338.1,335.9 341.9,336.0 343.5,336.1 343.5,336.3 342.9,336.4 342.5,336.5 343.0,336.6 344.2,336.7 345.8,336.8 346.9,336.9 347.5,337.0 348.0,337.1 348.5,337.3 349.3,337.4 350.2,337.5 350.9,337.6 351.4,337.7 351.8,337.8 352.2,337.9 352.5,338.0 352.7,338.1 352.8,338.3 352.8,338.4 352.9,338.5 352.9,338.6 352.9,338.7 352.9,338.8 352.9,338.9 352.9,339.0 352.9,339.1 352.9,339.3 352.9,339.4 352.9,339.5 352.9,339.6 352.9,339.7 352.9,339.8 352.9,339.9 352.9,340.0 352.9,340.1 352.9,340.2 352.9,340.4 352.8,340.5 352.8,340.6 352.7,340.7 352.7,340.8 352.6,340.9 352.6,341.0 352.6,341.1 352.7,341.2 352.8,341.4 352.8,341.5 352.8,341.6 352.9,341.7 352.9,341.8" fill="#d33" opacity="0.5" stroke="#d33" stroke-width="1"/>
<line x1="303.5" y1="335.3251348394989" x2="402.2" y2="335.3251348394989" stroke="#114" stroke-width="2"/>
<circle cx="352.85714285714283" cy="336.46417337539305" r="2.4" fill="#114"/>
<text x="352.85714285714283" y="328.72360924743873" text-anchor="middle" font-size="11">1.01</text>
<text x="352.85714285714283" y="376" text-anchor="middle" font-size="12">zscal</text>
<polygon points="476.8,297.0 479.1,293.5 481.9,290.0 485.1,286.6 488.6,283.1 492.4,279.6 496.2,276.1 500.0,272.6 503.4,269.2 506.5,265.7 508.9,262.2 510.6,258.7 511.6,255.3 511.8,251.8 511.3,248.3 510.2,244.8 508.6,241.3 506.8,237.9 504.9,234.4 503.1,230.9 501.6,227.4 500.6,223.9 500.2,220.5 500.5,217.0 501.5,213.5 503.3,210.0 505.8,206.5 508.6,203.1 511.7,199.6 514.6,196.1 517.0,192.6 518.6,189.2 519.2,185.7 518.6,182.2 516.8,178.7 513.9,175.2 510.0,171.8 505.5,168.3 500.6,164.8 495.6,161.3 490.8,157.8 486.5,154.4 482.8,150.9 479.7,147.4 477.4,143.9 475.6,140.4 474.4,137.0 473.7,133.5 473.4,130.0 473.4,126.5 473.7,123.1 474.1,119.6 474.6,116.1 475.3,112.6 476.0,109.1 476.8,105.7 477.7,102.2 478.7,98.7 479.7,95.2 480.7,91.7 481.7,88.3 482.6,84.8 483.3,81.3 483.7,77.8 483.9,74.4 483.8,70.9 483.3,67.4 482.5,63.9 481.4,60.4 480.2,57.0 478.8,53.5 477.4,50.0 462.6,50.0 461.2,53.5 459.8,57.0 458.6,60.4 457.5,63.9 456.7,67.4 456.2,70.9 456.1,74.4 456.3,77.8 456.7,81.3 457.4,84.8 458.3,88.3 459.3,91.7 460.3,95.2 461.3,98.7 462.3,102.2 463.2,105.7 464.0,109.1 464.7,112.6 465.4,116.1 465.9,119.6 466.3,123.1 466.6,126.5 466.6,130.0 466.3,133.5 465.6,137.0 464.4,140.4 462.6,143.9 460.3,147.4 457.2,150.9 453.5,154.4 449.2,157.8 444.4,161.3 439.4,164.8 434.5,168.3 430.0,171.8 426.1,175.2 423.2,178.7 421.4,182.2 420.8,185.7 421.4,189.2 423.0,192.6 425.4,196.1 428.3,199.6 431.4,203.1 434.2,206.5 436.7,210.0 438.5,213.5 439.5,217.0 439.8,220.5 439.4,223.9 438.4,227.4 436.9,230.9 435.1,234.4 433.2,237.9 431.4,241.3 429.8,244.8 428.7,248.3 428.2,251.8 428.4,255.3 429.4,258.7 431.1,262.2 433.5,265.7 436.6,269.2 440.0,272.6 443.8,276.1 447.6,279.6 451.4,283.1 454.9,286.6 458.1,290.0 460.9,293.5 463.2,297.0" fill="#2a8" opacity="0.5" stroke="#2a8" stroke-width="1"/>
<line x1="422.3" y1="191.39815128206718" x2="517.7" y2="191.39815128206718" stroke="#114" stroke-width="2"/>
<circle cx="470.0" cy="266.0950591978743" r="2.4" fill="#114"/>
<text x="470.0" y="61.43396226415098" text-anchor="middle" font-size="11">7.40</text>
<text x="470.0" y="376" text-anchor="middle" font-size="12">dznrm2</text>
<polygon points="587.3,337.7 587.4,337.7 587.6,337.6 588.0,337.5 588.5,337.4 589.3,337.3 590.4,337.3 591.8,337.2 593.6,337.1 595.7,337.0 597.8,337.0 599.9,336.9 601.7,336.8 603.0,336.7 603.9,336.6 604.4,336.6 604.8,336.5 605.3,336.4 606.3,336.3 607.9,336.3 610.3,336.2 613.4,336.1 617.2,336.0 621.4,336.0 625.7,335.9 629.8,335.8 633.2,335.7 635.5,335.6 636.3,335.6 635.6,335.5 633.5,335.4 630.4,335.3 626.6,335.3 622.9,335.2 619.3,335.1 616.2,335.0 613.6,334.9 611.3,334.9 609.1,334.8 607.0,334.7 604.9,334.6 603.0,334.6 601.2,334.5 599.7,334.4 598.6,334.3 597.7,334.3 597.1,334.2 596.5,334.1 596.0,334.0 595.4,333.9 594.8,333.9 594.2,333.8 593.6,333.7 593.1,333.6 592.7,333.6 592.5,333.5 592.4,333.4 592.2,333.3 592.0,333.2 591.7,333.2 591.3,333.1 590.8,333.0 590.3,332.9 589.7,332.9 589.2,332.8 588.7,332.7 588.3,332.6 588.0,332.6 587.7,332.5 587.5,332.4 587.4,332.3 587.3,332.2 587.0,332.2 586.9,332.3 586.8,332.4 586.6,332.5 586.3,332.6 586.0,332.6 585.5,332.7 585.1,332.8 584.5,332.9 584.0,332.9 583.5,333.0 583.0,333.1 582.6,333.2 582.3,333.2 582.1,333.3 581.9,333.4 581.8,333.5 581.5,333.6 581.2,333.6 580.7,333.7 580.1,333.8 579.5,333.9 578.9,333.9 578.3,334.0 577.7,334.1 577.2,334.2 576.6,334.3 575.7,334.3 574.5,334.4 573.1,334.5 571.3,334.6 569.3,334.6 567.3,334.7 565.2,334.8 563.0,334.9 560.7,334.9 558.0,335.0 555.0,335.1 551.4,335.2 547.6,335.3 543.9,335.3 540.8,335.4 538.6,335.5 537.9,335.6 538.8,335.6 541.1,335.7 544.5,335.8 548.6,335.9 552.9,336.0 557.1,336.0 560.9,336.1 564.0,336.2 566.4,336.3 568.0,336.3 569.0,336.4 569.5,336.5 569.9,336.6 570.4,336.6 571.3,336.7 572.6,336.8 574.4,336.9 576.4,337.0 578.6,337.0 580.6,337.1 582.4,337.2 583.9,337.3 585.0,337.3 585.8,337.4 586.3,337.5 586.7,337.6 586.9,337.7 587.0,337.7" fill="#2a8" opacity="0.5" stroke="#2a8" stroke-width="1"/>
<line x1="538.0" y1="335.54003729117056" x2="636.3" y2="335.54003729117056" stroke="#114" stroke-width="2"/>
<circle cx="587.1428571428571" cy="336.2909939565869" r="2.4" fill="#114"/>
<text x="587.1428571428571" y="326.8102978214337" text-anchor="middle" font-size="11">1.00</text>
<text x="587.1428571428571" y="376" text-anchor="middle" font-size="12">dzasum</text>
<polygon points="709.4,336.8 711.0,336.7 713.0,336.6 715.3,336.5 718.0,336.4 721.1,336.3 724.4,336.2 728.1,336.1 731.9,336.0 735.7,335.9 739.5,335.8 743.1,335.7 746.3,335.6 749.1,335.5 751.2,335.4 752.7,335.3 753.5,335.2 753.5,335.1 752.8,335.0 751.4,334.9 749.4,334.8 747.0,334.7 744.2,334.6 741.2,334.5 738.2,334.4 735.1,334.3 732.2,334.2 729.5,334.1 727.0,334.0 724.8,333.9 722.9,333.8 721.2,333.7 719.7,333.6 718.6,333.5 717.6,333.4 716.8,333.3 716.3,333.2 716.0,333.1 715.9,333.0 716.2,332.9 716.7,332.8 717.6,332.7 718.8,332.6 720.3,332.5 722.2,332.4 724.4,332.3 726.8,332.2 729.5,332.1 732.3,332.0 735.1,331.9 737.8,331.8 740.4,331.7 742.7,331.6 744.6,331.5 746.1,331.4 747.0,331.3 747.3,331.2 747.1,331.1 746.2,331.0 744.7,330.9 742.6,330.8 740.1,330.7 737.1,330.6 733.9,330.5 730.5,330.4 727.1,330.3 723.8,330.2 720.6,330.1 717.7,330.0 715.0,329.9 712.8,329.8 710.8,329.7 697.7,329.7 695.8,329.8 693.5,329.9 690.9,330.0 688.0,330.1 684.8,330.2 681.5,330.3 678.0,330.4 674.6,330.5 671.4,330.6 668.5,330.7 665.9,330.8 663.9,330.9 662.4,331.0 661.5,331.1 661.2,331.2 661.6,331.3 662.5,331.4 664.0,331.5 665.9,331.6 668.2,331.7 670.8,331.8 673.5,331.9 676.3,332.0 679.1,332.1 681.7,332.2 684.2,332.3 686.4,332.4 688.3,332.5 689.8,332.6 691.0,332.7 691.9,332.8 692.4,332.9 692.6,333.0 692.6,333.1 692.3,333.2 691.7,333.3 691.0,333.4 690.0,333.5 688.8,333.6 687.4,333.7 685.7,333.8 683.8,333.9 681.5,334.0 679.1,334.1 676.3,334.2 673.4,334.3 670.4,334.4 667.3,334.5 664.4,334.6 661.6,334.7 659.2,334.8 657.2,334.9 655.8,335.0 655.1,335.1 655.1,335.2 655.8,335.3 657.3,335.4 659.5,335.5 662.3,335.6 665.5,335.7 669.1,335.8 672.9,335.9 676.7,336.0 680.5,336.1 684.1,336.2 687.5,336.3 690.5,336.4 693.2,336.5 695.6,336.6 697.5,336.7 699.1,336.8" fill="#2a8" opacity="0.5" stroke="#2a8" stroke-width="1"/>
<line x1="685.7" y1="333.79119792945846" x2="722.9" y2="333.79119792945846" stroke="#114" stroke-width="2"/>
<circle cx="704.2857142857142" cy="335.33249027700487" r="2.4" fill="#114"/>
<text x="704.2857142857142" y="324.4491691316873" text-anchor="middle" font-size="11">1.08</text>
<text x="704.2857142857142" y="376" text-anchor="middle" font-size="12">zdotu</text>
<polygon points="824.2,336.1 825.3,335.8 826.7,335.4 828.3,335.0 830.3,334.6 832.5,334.2 835.0,333.8 837.7,333.4 840.4,333.0 843.3,332.6 846.1,332.2 848.8,331.8 851.4,331.5 853.8,331.1 856.0,330.7 858.0,330.3 859.7,329.9 861.2,329.5 862.4,329.1 863.3,328.7 864.0,328.3 864.5,327.9 864.8,327.5 865.0,327.2 865.0,326.8 864.9,326.4 864.8,326.0 864.6,325.6 864.3,325.2 864.1,324.8 863.9,324.4 863.7,324.0 863.5,323.6 863.4,323.3 863.3,322.9 863.4,322.5 863.5,322.1 863.7,321.7 864.1,321.3 864.5,320.9 865.1,320.5 865.7,320.1 866.3,319.7 867.0,319.3 867.6,319.0 868.1,318.6 868.6,318.2 869.0,317.8 869.4,317.4 869.7,317.0 870.1,316.6 870.3,316.2 870.6,315.8 870.6,315.4 870.4,315.0 869.9,314.7 868.9,314.3 867.3,313.9 865.1,313.5 862.3,313.1 859.0,312.7 855.3,312.3 851.3,311.9 847.2,311.5 843.1,311.1 839.2,310.8 835.7,310.4 832.6,310.0 829.9,309.6 827.7,309.2 825.9,308.8 824.6,308.4 818.3,308.4 816.9,308.8 815.2,309.2 813.0,309.6 810.3,310.0 807.2,310.4 803.6,310.8 799.8,311.1 795.7,311.5 791.6,311.9 787.6,312.3 783.8,312.7 780.5,313.1 777.7,313.5 775.6,313.9 774.0,314.3 773.0,314.7 772.4,315.0 772.2,315.4 772.3,315.8 772.5,316.2 772.8,316.6 773.1,317.0 773.5,317.4 773.9,317.8 774.3,318.2 774.7,318.6 775.3,319.0 775.9,319.3 776.5,319.7 777.2,320.1 777.8,320.5 778.3,320.9 778.8,321.3 779.1,321.7 779.4,322.1 779.5,322.5 779.5,322.9 779.5,323.3 779.4,323.6 779.2,324.0 779.0,324.4 778.8,324.8 778.5,325.2 778.3,325.6 778.1,326.0 777.9,326.4 777.9,326.8 777.9,327.2 778.0,327.5 778.3,327.9 778.8,328.3 779.5,328.7 780.5,329.1 781.7,329.5 783.1,329.9 784.9,330.3 786.9,330.7 789.1,331.1 791.5,331.5 794.1,331.8 796.8,332.2 799.6,332.6 802.4,333.0 805.2,333.4 807.8,333.8 810.3,334.2 812.6,334.6 814.5,335.0 816.2,335.4 817.6,335.8 818.7,336.1" fill="#2a8" opacity="0.5" stroke="#2a8" stroke-width="1"/>
<line x1="778.9" y1="321.4251228470847" x2="863.9" y2="321.4251228470847" stroke="#114" stroke-width="2"/>
<circle cx="821.4285714285714" cy="323.28953868907325" r="2.4" fill="#114"/>
<text x="821.4285714285714" y="305.1271022718089" text-anchor="middle" font-size="11">1.62</text>
<text x="821.4285714285714" y="376" text-anchor="middle" font-size="12">izamax</text>
<text x="450.0" y="428" text-anchor="middle" font-size="11" fill="#666">violin = ratio distribution over sizes · line = median · dark dot = worst size · green = every size ≥ gate</text>
</svg>
