<svg xmlns="http://www.w3.org/2000/svg" width="900" height="440" font-family="sans-serif">
<rect width="900" height="440" fill="white"/>
<text x="450.0" y="28" text-anchor="middle" font-size="18" font-weight="bold">BLAS-2: PureBLAS / OpenBLAS (AVX2, 1 thread, Float64)</text>
<line x1="60" y1="358.0" x2="880" y2="358.0" stroke="#eee"/>
<text x="52" y="362.0" text-anchor="end" font-size="11" fill="#666">0×</text>
<line x1="60" y1="294.82415055978595" x2="880" y2="294.82415055978595" stroke="#eee"/>
<text x="52" y="298.82415055978595" text-anchor="end" font-size="11" fill="#666">0.5×</text>
<line x1="60" y1="231.6483011195718" x2="880" y2="231.6483011195718" stroke="#eee"/>
<text x="52" y="235.6483011195718" text-anchor="end" font-size="11" fill="#666">1×</text>
<line x1="60" y1="168.4724516793578" x2="880" y2="168.4724516793578" stroke="#eee"/>
<text x="52" y="172.4724516793578" text-anchor="end" font-size="11" fill="#666">1.5×</text>
<line x1="60" y1="231.6483011195718" x2="880" y2="231.6483011195718" stroke="#888" stroke-width="1"/>
<line x1="60" y1="236.702369074789" x2="880" y2="236.702369074789" stroke="#d33" stroke-width="1.5" stroke-dasharray="6 4"/>
<text x="880" y="231.702369074789" text-anchor="end" font-size="11" fill="#d33">0.96× gate</text>
<polygon points="106.6,256.8 107.2,254.9 108.1,253.1 109.4,251.3 111.0,249.4 113.2,247.6 115.9,245.7 119.1,243.9 122.8,242.1 126.7,240.2 130.8,238.4 134.7,236.6 138.2,234.7 141.0,232.9 142.9,231.1 143.8,229.2 143.6,227.4 142.4,225.6 140.2,223.7 137.2,221.9 133.7,220.0 129.8,218.2 125.9,216.4 122.1,214.5 118.6,212.7 115.6,210.9 113.0,209.0 110.9,207.2 109.2,205.4 108.0,203.5 107.2,201.7 106.6,199.8 106.2,198.0 106.0,196.2 105.9,194.3 105.9,192.5 106.1,190.7 106.3,188.8 106.6,187.0 107.1,185.2 107.7,183.3 108.4,181.5 109.2,179.7 110.0,177.8 110.8,176.0 111.6,174.1 112.1,172.3 112.4,170.5 112.4,168.6 112.2,166.8 111.8,165.0 111.2,163.1 110.4,161.3 109.6,159.5 108.9,157.6 108.2,155.8 107.6,154.0 107.1,152.1 106.8,150.3 106.5,148.4 106.3,146.6 106.2,144.8 106.1,142.9 106.1,141.1 106.0,139.3 106.0,137.4 105.9,135.6 105.9,133.8 105.8,131.9 105.8,130.1 105.7,128.3 105.7,126.4 105.4,126.4 105.4,128.3 105.3,130.1 105.3,131.9 105.2,133.8 105.2,135.6 105.1,137.4 105.1,139.3 105.0,141.1 105.0,142.9 104.9,144.8 104.8,146.6 104.6,148.4 104.4,150.3 104.0,152.1 103.5,154.0 102.9,155.8 102.2,157.6 101.5,159.5 100.7,161.3 100.0,163.1 99.3,165.0 98.9,166.8 98.7,168.6 98.7,170.5 99.0,172.3 99.6,174.1 100.3,176.0 101.1,177.8 101.9,179.7 102.7,181.5 103.4,183.3 104.0,185.2 104.5,187.0 104.8,188.8 105.1,190.7 105.2,192.5 105.2,194.3 105.1,196.2 104.9,198.0 104.5,199.8 104.0,201.7 103.1,203.5 101.9,205.4 100.3,207.2 98.2,209.0 95.6,210.9 92.5,212.7 89.0,214.5 85.2,216.4 81.3,218.2 77.4,220.0 73.9,221.9 70.9,223.7 68.7,225.6 67.5,227.4 67.3,229.2 68.2,231.1 70.1,232.9 72.9,234.7 76.4,236.6 80.3,238.4 84.4,240.2 88.3,242.1 92.0,243.9 95.2,245.7 97.9,247.6 100.1,249.4 101.8,251.3 103.0,253.1 103.9,254.9 104.5,256.8" fill="#2a8" opacity="0.5" stroke="#2a8" stroke-width="1"/>
<line x1="67.4" y1="227.48883003466628" x2="143.7" y2="227.48883003466628" stroke="#114" stroke-width="2"/>
<circle cx="105.55555555555556" cy="235.4520790840558" r="2.4" fill="#114"/>
<text x="105.55555555555556" y="133.23556481822658" text-anchor="middle" font-size="11">1.03</text>
<text x="105.55555555555556" y="376" text-anchor="middle" font-size="12">gemvN</text>
<polygon points="196.8,241.3 196.9,240.9 197.0,240.5 197.1,240.2 197.2,239.8 197.3,239.4 197.3,239.0 197.4,238.6 197.4,238.2 197.3,237.8 197.3,237.4 197.2,237.1 197.1,236.7 197.0,236.3 197.0,235.9 197.1,235.5 197.3,235.1 197.6,234.7 198.2,234.3 199.1,234.0 200.4,233.6 202.2,233.2 204.5,232.8 207.4,232.4 210.7,232.0 214.6,231.6 218.6,231.3 222.7,230.9 226.5,230.5 229.9,230.1 232.5,229.7 234.2,229.3 234.9,228.9 234.8,228.5 233.9,228.2 232.4,227.8 230.7,227.4 228.9,227.0 227.2,226.6 225.7,226.2 224.5,225.8 223.5,225.4 222.8,225.1 222.4,224.7 222.1,224.3 222.0,223.9 222.0,223.5 222.2,223.1 222.4,222.7 222.6,222.4 222.8,222.0 222.9,221.6 222.6,221.2 222.0,220.8 221.0,220.4 219.6,220.0 217.9,219.6 215.9,219.3 213.7,218.9 211.6,218.5 209.5,218.1 207.5,217.7 205.7,217.3 204.1,216.9 202.7,216.6 201.4,216.2 200.3,215.8 199.4,215.4 198.7,215.0 198.1,214.6 197.6,214.2 197.3,213.8 196.1,213.8 195.7,214.2 195.3,214.6 194.7,215.0 193.9,215.4 193.0,215.8 191.9,216.2 190.6,216.6 189.2,216.9 187.6,217.3 185.8,217.7 183.9,218.1 181.8,218.5 179.6,218.9 177.4,219.3 175.4,219.6 173.7,220.0 172.3,220.4 171.3,220.8 170.7,221.2 170.5,221.6 170.5,222.0 170.7,222.4 170.9,222.7 171.2,223.1 171.3,223.5 171.3,223.9 171.2,224.3 171.0,224.7 170.5,225.1 169.8,225.4 168.9,225.8 167.7,226.2 166.2,226.6 164.5,227.0 162.6,227.4 160.9,227.8 159.4,228.2 158.5,228.5 158.4,228.9 159.2,229.3 160.9,229.7 163.5,230.1 166.8,230.5 170.6,230.9 174.7,231.3 178.8,231.6 182.6,232.0 186.0,232.4 188.9,232.8 191.2,233.2 192.9,233.6 194.2,234.0 195.1,234.3 195.7,234.7 196.1,235.1 196.2,235.5 196.3,235.9 196.3,236.3 196.2,236.7 196.1,237.1 196.1,237.4 196.0,237.8 196.0,238.2 195.9,238.6 196.0,239.0 196.1,239.4 196.1,239.8 196.2,240.2 196.3,240.5 196.4,240.9 196.5,241.3" fill="#2a8" opacity="0.5" stroke="#2a8" stroke-width="1"/>
<line x1="169.0" y1="225.80451807467443" x2="224.4" y2="225.80451807467443" stroke="#114" stroke-width="2"/>
<circle cx="196.66666666666669" cy="229.93604783376227" r="2.4" fill="#114"/>
<text x="196.66666666666669" y="210.70608983498138" text-anchor="middle" font-size="11">1.05</text>
<text x="196.66666666666669" y="376" text-anchor="middle" font-size="12">gemvT</text>
<polygon points="290.8,242.8 292.3,241.8 294.3,240.7 296.8,239.7 299.9,238.7 303.4,237.6 307.3,236.6 311.2,235.6 315.1,234.5 318.7,233.5 321.7,232.5 324.0,231.4 325.5,230.4 326.0,229.4 325.7,228.3 324.4,227.3 322.4,226.3 319.7,225.2 316.4,224.2 312.9,223.2 309.1,222.1 305.5,221.1 302.0,220.1 298.9,219.0 296.3,218.0 294.0,217.0 292.3,215.9 290.9,214.9 289.9,213.9 289.2,212.8 288.8,211.8 288.5,210.8 288.4,209.7 288.4,208.7 288.6,207.7 288.9,206.6 289.3,205.6 289.9,204.6 290.6,203.5 291.5,202.5 292.4,201.5 293.2,200.4 294.1,199.4 294.7,198.4 295.1,197.3 295.3,196.3 295.1,195.3 294.6,194.2 294.0,193.2 293.1,192.2 292.2,191.1 291.3,190.1 290.5,189.1 289.8,188.0 289.3,187.0 288.8,186.0 288.5,184.9 288.3,183.9 288.2,182.9 288.2,181.8 288.2,180.8 288.2,179.7 288.2,178.7 288.2,177.7 288.2,176.6 288.2,175.6 288.2,174.6 288.1,173.5 288.1,172.5 288.0,171.5 288.0,170.4 287.9,169.4 287.6,169.4 287.6,170.4 287.5,171.5 287.5,172.5 287.4,173.5 287.4,174.6 287.4,175.6 287.4,176.6 287.4,177.7 287.4,178.7 287.4,179.7 287.4,180.8 287.4,181.8 287.3,182.9 287.2,183.9 287.0,184.9 286.7,186.0 286.3,187.0 285.7,188.0 285.0,189.1 284.2,190.1 283.3,191.1 282.4,192.2 281.6,193.2 280.9,194.2 280.5,195.3 280.3,196.3 280.4,197.3 280.8,198.4 281.5,199.4 282.3,200.4 283.2,201.5 284.1,202.5 284.9,203.5 285.6,204.6 286.2,205.6 286.7,206.6 287.0,207.7 287.1,208.7 287.2,209.7 287.0,210.8 286.8,211.8 286.3,212.8 285.6,213.9 284.6,214.9 283.3,215.9 281.5,217.0 279.3,218.0 276.6,219.0 273.5,220.1 270.1,221.1 266.4,222.1 262.7,223.2 259.1,224.2 255.9,225.2 253.2,226.3 251.1,227.3 249.9,228.3 249.5,229.4 250.1,230.4 251.5,231.4 253.8,232.5 256.9,233.5 260.4,234.5 264.3,235.6 268.3,236.6 272.1,237.6 275.7,238.7 278.7,239.7 281.3,240.7 283.3,241.8 284.8,242.8" fill="#2a8" opacity="0.5" stroke="#2a8" stroke-width="1"/>
<line x1="250.5" y1="227.724230068609" x2="325.1" y2="227.724230068609" stroke="#114" stroke-width="2"/>
<circle cx="287.77777777777777" cy="233.3790738199223" r="2.4" fill="#114"/>
<text x="287.77777777777777" y="170.71956688419584" text-anchor="middle" font-size="11">1.03</text>
<text x="287.77777777777777" y="376" text-anchor="middle" font-size="12">ger</text>
<polygon points="379.3,262.2 379.4,260.9 379.6,259.5 379.8,258.1 380.0,256.8 380.3,255.4 380.6,254.1 380.8,252.7 381.2,251.3 381.5,250.0 381.9,248.6 382.4,247.3 383.1,245.9 384.0,244.5 385.2,243.2 386.8,241.8 388.8,240.5 391.2,239.1 394.1,237.7 397.4,236.4 400.9,235.0 404.5,233.7 408.1,232.3 411.3,230.9 414.0,229.6 415.9,228.2 417.0,226.9 417.2,225.5 416.4,224.1 414.9,222.8 412.7,221.4 410.0,220.1 407.0,218.7 403.9,217.3 400.9,216.0 398.0,214.6 395.5,213.3 393.3,211.9 391.5,210.5 390.1,209.2 389.1,207.8 388.5,206.5 388.2,205.1 388.2,203.7 388.3,202.4 388.5,201.0 388.8,199.7 389.0,198.3 389.1,196.9 389.2,195.6 389.1,194.2 388.9,192.9 388.8,191.5 388.7,190.1 388.6,188.8 388.6,187.4 388.7,186.1 388.8,184.7 388.9,183.3 389.0,182.0 388.9,180.6 388.6,179.3 388.1,177.9 387.5,176.5 386.6,175.2 385.7,173.8 384.7,172.5 383.7,171.1 382.8,169.7 381.9,168.4 381.2,167.0 380.5,165.7 377.2,165.7 376.6,167.0 375.9,168.4 375.0,169.7 374.1,171.1 373.1,172.5 372.1,173.8 371.1,175.2 370.3,176.5 369.7,177.9 369.2,179.3 368.9,180.6 368.8,182.0 368.8,183.3 368.9,184.7 369.1,186.1 369.1,187.4 369.2,188.8 369.1,190.1 369.0,191.5 368.8,192.9 368.7,194.2 368.6,195.6 368.6,196.9 368.8,198.3 369.0,199.7 369.2,201.0 369.5,202.4 369.6,203.7 369.6,205.1 369.3,206.5 368.7,207.8 367.7,209.2 366.3,210.5 364.5,211.9 362.3,213.3 359.7,214.6 356.9,216.0 353.9,217.3 350.8,218.7 347.8,220.1 345.1,221.4 342.9,222.8 341.4,224.1 340.6,225.5 340.8,226.9 341.9,228.2 343.8,229.6 346.5,230.9 349.7,232.3 353.2,233.7 356.9,235.0 360.4,236.4 363.7,237.7 366.6,239.1 369.0,240.5 371.0,241.8 372.6,243.2 373.8,244.5 374.7,245.9 375.3,247.3 375.9,248.6 376.3,250.0 376.6,251.3 376.9,252.7 377.2,254.1 377.5,255.4 377.7,256.8 378.0,258.1 378.2,259.5 378.3,260.9 378.5,262.2" fill="#2a8" opacity="0.5" stroke="#2a8" stroke-width="1"/>
<line x1="341.0" y1="224.65784628834297" x2="416.8" y2="224.65784628834297" stroke="#114" stroke-width="2"/>
<circle cx="378.8888888888889" cy="230.47359788685282" r="2.4" fill="#114"/>
<text x="378.8888888888889" y="169.21497376098176" text-anchor="middle" font-size="11">1.06</text>
<text x="378.8888888888889" y="376" text-anchor="middle" font-size="12">symv</text>
<polygon points="472.4,241.7 473.3,240.4 474.5,239.0 476.1,237.7 477.9,236.4 480.1,235.0 482.7,233.7 485.6,232.3 488.7,231.0 492.1,229.6 495.4,228.3 498.6,227.0 501.6,225.6 504.2,224.3 506.2,222.9 507.6,221.6 508.3,220.2 508.2,218.9 507.5,217.5 506.2,216.2 504.4,214.9 502.3,213.5 500.0,212.2 497.6,210.8 495.4,209.5 493.3,208.1 491.5,206.8 490.0,205.5 488.7,204.1 487.7,202.8 487.0,201.4 486.4,200.1 485.9,198.7 485.6,197.4 485.3,196.0 485.0,194.7 484.7,193.4 484.3,192.0 483.9,190.7 483.5,189.3 482.9,188.0 482.3,186.6 481.6,185.3 480.8,184.0 480.0,182.6 479.2,181.3 478.4,179.9 477.8,178.6 477.2,177.2 476.9,175.9 476.7,174.5 476.7,173.2 476.9,171.9 477.2,170.5 477.7,169.2 478.2,167.8 478.7,166.5 479.1,165.1 479.5,163.8 479.7,162.5 479.7,161.1 479.5,159.8 479.1,158.4 478.6,157.1 477.8,155.7 477.0,154.4 476.2,153.0 475.3,151.7 474.4,150.4 473.6,149.0 472.9,147.7 472.2,146.3 467.8,146.3 467.1,147.7 466.4,149.0 465.6,150.4 464.7,151.7 463.8,153.0 463.0,154.4 462.2,155.7 461.4,157.1 460.9,158.4 460.5,159.8 460.3,161.1 460.3,162.5 460.5,163.8 460.9,165.1 461.3,166.5 461.8,167.8 462.3,169.2 462.8,170.5 463.1,171.9 463.3,173.2 463.3,174.5 463.1,175.9 462.8,177.2 462.2,178.6 461.6,179.9 460.8,181.3 460.0,182.6 459.2,184.0 458.4,185.3 457.7,186.6 457.1,188.0 456.5,189.3 456.1,190.7 455.7,192.0 455.3,193.4 455.0,194.7 454.7,196.0 454.4,197.4 454.1,198.7 453.6,200.1 453.0,201.4 452.3,202.8 451.3,204.1 450.0,205.5 448.5,206.8 446.7,208.1 444.6,209.5 442.4,210.8 440.0,212.2 437.7,213.5 435.6,214.9 433.8,216.2 432.5,217.5 431.8,218.9 431.7,220.2 432.4,221.6 433.8,222.9 435.8,224.3 438.4,225.6 441.4,227.0 444.6,228.3 447.9,229.6 451.3,231.0 454.4,232.3 457.3,233.7 459.9,235.0 462.1,236.4 463.9,237.7 465.5,239.0 466.7,240.4 467.6,241.7" fill="#2a8" opacity="0.5" stroke="#2a8" stroke-width="1"/>
<line x1="434.9" y1="215.36937985169476" x2="505.1" y2="215.36937985169476" stroke="#114" stroke-width="2"/>
<circle cx="470.0" cy="221.847717213812" r="2.4" fill="#114"/>
<text x="470.0" y="149.76186406150848" text-anchor="middle" font-size="11">1.13</text>
<text x="470.0" y="376" text-anchor="middle" font-size="12">trmv</text>
<polygon points="564.5,240.7 565.8,239.2 567.4,237.6 569.4,236.1 571.8,234.5 574.6,233.0 577.7,231.5 581.0,229.9 584.5,228.4 588.0,226.8 591.2,225.3 594.1,223.7 596.5,222.2 598.2,220.6 599.2,219.1 599.4,217.5 598.8,216.0 597.5,214.4 595.6,212.9 593.3,211.4 590.7,209.8 588.0,208.3 585.4,206.7 583.0,205.2 580.9,203.6 579.1,202.1 577.7,200.5 576.6,199.0 575.9,197.4 575.5,195.9 575.3,194.4 575.2,192.8 575.3,191.3 575.4,189.7 575.6,188.2 575.7,186.6 575.9,185.1 576.0,183.5 576.1,182.0 576.1,180.4 576.1,178.9 576.1,177.3 576.0,175.8 575.9,174.3 575.7,172.7 575.5,171.2 575.4,169.6 575.2,168.1 575.1,166.5 574.9,165.0 574.8,163.4 574.6,161.9 574.3,160.3 574.0,158.8 573.4,157.2 572.8,155.7 572.0,154.2 571.1,152.6 570.0,151.1 569.0,149.5 567.9,148.0 566.9,146.4 565.9,144.9 565.0,143.3 564.2,141.8 563.6,140.2 563.0,138.7 562.6,137.1 562.2,135.6 562.0,134.1 561.7,132.5 561.6,131.0 560.6,131.0 560.5,132.5 560.3,134.1 560.0,135.6 559.6,137.1 559.2,138.7 558.6,140.2 558.0,141.8 557.2,143.3 556.3,144.9 555.4,146.4 554.3,148.0 553.2,149.5 552.2,151.1 551.2,152.6 550.2,154.2 549.4,155.7 548.8,157.2 548.3,158.8 547.9,160.3 547.6,161.9 547.4,163.4 547.3,165.0 547.1,166.5 547.0,168.1 546.8,169.6 546.7,171.2 546.5,172.7 546.4,174.3 546.2,175.8 546.1,177.3 546.1,178.9 546.1,180.4 546.1,182.0 546.2,183.5 546.3,185.1 546.5,186.6 546.6,188.2 546.8,189.7 546.9,191.3 547.0,192.8 546.9,194.4 546.7,195.9 546.3,197.4 545.6,199.0 544.6,200.5 543.2,202.1 541.4,203.6 539.2,205.2 536.8,206.7 534.2,208.3 531.5,209.8 528.9,211.4 526.6,212.9 524.7,214.4 523.4,216.0 522.8,217.5 523.0,219.1 524.0,220.6 525.7,222.2 528.1,223.7 531.0,225.3 534.3,226.8 537.7,228.4 541.2,229.9 544.5,231.5 547.6,233.0 550.4,234.5 552.8,236.1 554.8,237.6 556.5,239.2 557.7,240.7" fill="#2a8" opacity="0.5" stroke="#2a8" stroke-width="1"/>
<line x1="528.1" y1="211.8619126951775" x2="594.1" y2="211.8619126951775" stroke="#114" stroke-width="2"/>
<circle cx="561.1111111111111" cy="221.59030454280696" r="2.4" fill="#114"/>
<text x="561.1111111111111" y="135.7876027038604" text-anchor="middle" font-size="11">1.16</text>
<text x="561.1111111111111" y="376" text-anchor="middle" font-size="12">trsv</text>
<polygon points="666.4,254.5 668.9,251.6 671.6,248.7 674.2,245.8 676.9,243.0 679.5,240.1 681.9,237.2 684.2,234.3 686.1,231.4 687.7,228.6 689.0,225.7 689.9,222.8 690.4,219.9 690.5,217.0 690.3,214.2 689.7,211.3 688.9,208.4 687.8,205.5 686.5,202.6 685.0,199.8 683.3,196.9 681.6,194.0 679.7,191.1 677.8,188.2 675.9,185.4 674.0,182.5 672.2,179.6 670.4,176.7 668.9,173.8 667.4,171.0 666.2,168.1 665.2,165.2 664.4,162.3 663.9,159.4 663.5,156.6 663.3,153.7 663.2,150.8 663.2,147.9 663.3,145.0 663.4,142.2 663.4,139.3 663.4,136.4 663.3,133.5 663.1,130.6 662.8,127.8 662.5,124.9 662.1,122.0 661.8,119.1 661.5,116.2 661.2,113.4 661.0,110.5 661.0,107.6 661.0,104.7 661.1,101.8 661.4,99.0 661.7,96.1 662.0,93.2 662.3,90.3 662.6,87.4 662.8,84.6 662.8,81.7 662.8,78.8 662.5,75.9 662.2,73.0 661.7,70.2 661.1,67.3 660.3,64.4 659.5,61.5 658.7,58.6 657.9,55.8 657.1,52.9 656.3,50.0 648.2,50.0 647.4,52.9 646.6,55.8 645.7,58.6 644.9,61.5 644.1,64.4 643.4,67.3 642.8,70.2 642.3,73.0 641.9,75.9 641.7,78.8 641.6,81.7 641.7,84.6 641.9,87.4 642.1,90.3 642.5,93.2 642.8,96.1 643.1,99.0 643.3,101.8 643.4,104.7 643.5,107.6 643.4,110.5 643.3,113.4 643.0,116.2 642.7,119.1 642.3,122.0 642.0,124.9 641.6,127.8 641.4,130.6 641.2,133.5 641.1,136.4 641.0,139.3 641.1,142.2 641.1,145.0 641.2,147.9 641.2,150.8 641.1,153.7 640.9,156.6 640.6,159.4 640.0,162.3 639.2,165.2 638.2,168.1 637.0,171.0 635.6,173.8 634.0,176.7 632.3,179.6 630.5,182.5 628.6,185.4 626.6,188.2 624.7,191.1 622.9,194.0 621.1,196.9 619.5,199.8 618.0,202.6 616.6,205.5 615.6,208.4 614.7,211.3 614.2,214.2 614.0,217.0 614.1,219.9 614.6,222.8 615.5,225.7 616.7,228.6 618.3,231.4 620.3,234.3 622.5,237.2 624.9,240.1 627.5,243.0 630.2,245.8 632.9,248.7 635.5,251.6 638.0,254.5" fill="#2a8" opacity="0.5" stroke="#2a8" stroke-width="1"/>
<line x1="618.0" y1="202.63977446792273" x2="686.5" y2="202.63977446792273" stroke="#114" stroke-width="2"/>
<circle cx="652.2222222222223" cy="233.20459809653323" r="2.4" fill="#114"/>
<text x="652.2222222222223" y="61.433962264150935" text-anchor="middle" font-size="11">1.23</text>
<text x="652.2222222222223" y="376" text-anchor="middle" font-size="12">spmv</text>
<polygon points="743.4,235.6 743.5,235.0 743.5,234.5 743.6,233.9 743.8,233.3 743.9,232.8 744.1,232.2 744.3,231.7 744.6,231.1 745.0,230.5 745.5,230.0 746.1,229.4 746.9,228.8 748.0,228.3 749.4,227.7 751.3,227.2 753.9,226.6 757.1,226.0 761.0,225.5 765.5,224.9 770.2,224.3 774.6,223.8 778.3,223.2 780.8,222.6 781.6,222.1 780.8,221.5 778.7,221.0 775.7,220.4 772.2,219.8 768.7,219.3 765.5,218.7 762.7,218.1 760.2,217.6 758.0,217.0 756.1,216.5 754.5,215.9 753.3,215.3 752.4,214.8 751.8,214.2 751.4,213.6 751.2,213.1 750.9,212.5 750.5,212.0 750.0,211.4 749.4,210.8 748.7,210.3 748.0,209.7 747.3,209.1 746.8,208.6 746.3,208.0 746.0,207.5 745.7,206.9 745.5,206.3 745.3,205.8 745.1,205.2 744.9,204.6 744.7,204.1 744.6,203.5 744.5,203.0 744.4,202.4 744.4,201.8 744.4,201.3 744.3,200.7 744.3,200.1 744.2,199.6 744.0,199.0 743.9,198.5 743.8,197.9 743.6,197.3 743.5,196.8 743.5,196.2 743.4,195.6 743.3,195.6 743.2,196.2 743.1,196.8 743.0,197.3 742.9,197.9 742.8,198.5 742.6,199.0 742.5,199.6 742.4,200.1 742.3,200.7 742.3,201.3 742.3,201.8 742.2,202.4 742.2,203.0 742.1,203.5 741.9,204.1 741.8,204.6 741.6,205.2 741.4,205.8 741.2,206.3 741.0,206.9 740.7,207.5 740.4,208.0 739.9,208.6 739.4,209.1 738.7,209.7 738.0,210.3 737.3,210.8 736.6,211.4 736.1,212.0 735.8,212.5 735.5,213.1 735.2,213.6 734.9,214.2 734.3,214.8 733.4,215.3 732.2,215.9 730.6,216.5 728.7,217.0 726.5,217.6 724.0,218.1 721.2,218.7 717.9,219.3 714.5,219.8 711.0,220.4 707.9,221.0 705.8,221.5 705.1,222.1 705.9,222.6 708.3,223.2 712.0,223.8 716.5,224.3 721.2,224.9 725.7,225.5 729.6,226.0 732.8,226.6 735.3,227.2 737.2,227.7 738.7,228.3 739.8,228.8 740.6,229.4 741.2,230.0 741.7,230.5 742.0,231.1 742.3,231.7 742.6,232.2 742.7,232.8 742.9,233.3 743.0,233.9 743.1,234.5 743.2,235.0 743.3,235.6" fill="#2a8" opacity="0.5" stroke="#2a8" stroke-width="1"/>
<line x1="706.1" y1="221.42629035363703" x2="780.6" y2="221.42629035363703" stroke="#114" stroke-width="2"/>
<circle cx="743.3333333333334" cy="223.57028237004886" r="2.4" fill="#114"/>
<text x="743.3333333333334" y="193.71353610046367" text-anchor="middle" font-size="11">1.08</text>
<text x="743.3333333333334" y="376" text-anchor="middle" font-size="12">gbmvN</text>
<polygon points="834.7,173.2 834.8,172.4 834.9,171.6 835.0,170.8 835.1,169.9 835.3,169.1 835.3,168.3 835.4,167.5 835.4,166.6 835.3,165.8 835.2,165.0 835.1,164.2 835.0,163.4 834.9,162.5 834.9,161.7 834.9,160.9 835.1,160.1 835.5,159.2 836.2,158.4 837.3,157.6 838.9,156.8 841.1,156.0 844.1,155.1 847.7,154.3 852.0,153.5 856.7,152.7 861.4,151.8 865.7,151.0 869.3,150.2 871.7,149.4 872.7,148.6 872.3,147.7 870.6,146.9 867.9,146.1 864.5,145.3 860.9,144.4 857.4,143.6 854.4,142.8 851.8,142.0 849.9,141.2 848.5,140.3 847.5,139.5 846.8,138.7 846.1,137.9 845.4,137.0 844.6,136.2 843.8,135.4 842.8,134.6 841.8,133.8 841.0,132.9 840.4,132.1 840.0,131.3 839.8,130.5 839.9,129.6 840.2,128.8 840.6,128.0 840.9,127.2 841.2,126.4 841.4,125.5 841.3,124.7 841.0,123.9 840.5,123.1 839.9,122.3 839.1,121.4 838.4,120.6 837.6,119.8 836.9,119.0 836.3,118.1 835.8,117.3 835.4,116.5 835.1,115.7 834.9,114.9 834.0,114.9 833.8,115.7 833.5,116.5 833.1,117.3 832.6,118.1 831.9,119.0 831.3,119.8 830.5,120.6 829.7,121.4 829.0,122.3 828.4,123.1 827.9,123.9 827.6,124.7 827.5,125.5 827.7,126.4 827.9,127.2 828.3,128.0 828.7,128.8 829.0,129.6 829.1,130.5 828.9,131.3 828.5,132.1 827.9,132.9 827.0,133.8 826.1,134.6 825.1,135.4 824.2,136.2 823.5,137.0 822.8,137.9 822.1,138.7 821.4,139.5 820.4,140.3 819.0,141.2 817.1,142.0 814.5,142.8 811.4,143.6 808.0,144.4 804.4,145.3 801.0,146.1 798.3,146.9 796.6,147.7 796.2,148.6 797.2,149.4 799.6,150.2 803.2,151.0 807.5,151.8 812.2,152.7 816.9,153.5 821.2,154.3 824.8,155.1 827.8,156.0 830.0,156.8 831.6,157.6 832.7,158.4 833.4,159.2 833.8,160.1 834.0,160.9 834.0,161.7 834.0,162.5 833.9,163.4 833.8,164.2 833.7,165.0 833.6,165.8 833.5,166.6 833.5,167.5 833.5,168.3 833.6,169.1 833.7,169.9 833.9,170.8 834.0,171.6 834.1,172.4 834.2,173.2" fill="#2a8" opacity="0.5" stroke="#2a8" stroke-width="1"/>
<line x1="797.0" y1="147.46095402686592" x2="871.9" y2="147.46095402686592" stroke="#114" stroke-width="2"/>
<circle cx="834.4444444444445" cy="150.6959351358932" r="2.4" fill="#114"/>
<text x="834.4444444444445" y="114.70464996707015" text-anchor="middle" font-size="11">1.67</text>
<text x="834.4444444444445" y="376" text-anchor="middle" font-size="12">sbmv</text>
<text x="450.0" y="428" text-anchor="middle" font-size="11" fill="#666">violin = ratio distribution over sizes · line = median · dark dot = worst size · green = every size ≥ gate</text>
</svg>
