<svg xmlns="http://www.w3.org/2000/svg" width="900" height="440" font-family="sans-serif">
<rect width="900" height="440" fill="white"/>
<text x="450.0" y="28" text-anchor="middle" font-size="18" font-weight="bold">Complex BLAS-2: PureBLAS / OpenBLAS (AVX2, 1 thread, ComplexF64)</text>
<line x1="60" y1="358.0" x2="880" y2="358.0" stroke="#eee"/>
<text x="52" y="362.0" text-anchor="end" font-size="11" fill="#666">0×</text>
<line x1="60" y1="279.73613237610493" x2="880" y2="279.73613237610493" stroke="#eee"/>
<text x="52" y="283.73613237610493" text-anchor="end" font-size="11" fill="#666">0.5×</text>
<line x1="60" y1="201.47226475220984" x2="880" y2="201.47226475220984" stroke="#eee"/>
<text x="52" y="205.47226475220984" text-anchor="end" font-size="11" fill="#666">1×</text>
<line x1="60" y1="123.20839712831477" x2="880" y2="123.20839712831477" stroke="#eee"/>
<text x="52" y="127.20839712831477" text-anchor="end" font-size="11" fill="#666">1.5×</text>
<line x1="60" y1="201.47226475220984" x2="880" y2="201.47226475220984" stroke="#888" stroke-width="1"/>
<line x1="60" y1="207.73337416212144" x2="880" y2="207.73337416212144" stroke="#d33" stroke-width="1.5" stroke-dasharray="6 4"/>
<text x="880" y="202.73337416212144" text-anchor="end" font-size="11" fill="#d33">0.96× gate</text>
<polygon points="132.1,262.7 133.3,261.5 134.7,260.2 136.5,259.0 138.5,257.8 140.8,256.6 143.4,255.3 146.3,254.1 149.4,252.9 152.6,251.7 155.9,250.4 159.3,249.2 162.6,248.0 165.7,246.8 168.8,245.5 171.7,244.3 174.3,243.1 176.7,241.9 178.9,240.6 180.8,239.4 182.5,238.2 183.9,237.0 184.9,235.7 185.5,234.5 185.7,233.3 185.4,232.1 184.6,230.8 183.2,229.6 181.2,228.4 178.7,227.2 175.6,226.0 172.2,224.7 168.5,223.5 164.6,222.3 160.7,221.1 157.0,219.8 153.6,218.6 150.5,217.4 148.0,216.2 146.0,214.9 144.5,213.7 143.6,212.5 143.2,211.3 143.2,210.0 143.6,208.8 144.2,207.6 145.0,206.4 145.8,205.1 146.7,203.9 147.5,202.7 148.2,201.5 148.9,200.2 149.4,199.0 149.8,197.8 150.1,196.6 150.3,195.3 150.5,194.1 150.5,192.9 150.5,191.7 150.3,190.5 149.9,189.2 149.3,188.0 148.6,186.8 147.6,185.6 146.3,184.3 144.9,183.1 143.3,181.9 141.7,180.7 140.0,179.4 138.3,178.2 136.6,177.0 135.1,175.8 121.5,175.8 120.0,177.0 118.4,178.2 116.7,179.4 115.0,180.7 113.3,181.9 111.8,183.1 110.3,184.3 109.1,185.6 108.1,186.8 107.3,188.0 106.8,189.2 106.4,190.5 106.2,191.7 106.1,192.9 106.2,194.1 106.3,195.3 106.5,196.6 106.9,197.8 107.3,199.0 107.8,200.2 108.4,201.5 109.2,202.7 110.0,203.9 110.8,205.1 111.7,206.4 112.5,207.6 113.1,208.8 113.4,210.0 113.4,211.3 113.0,212.5 112.1,213.7 110.7,214.9 108.7,216.2 106.1,217.4 103.1,218.6 99.7,219.8 96.0,221.1 92.1,222.3 88.2,223.5 84.5,224.7 81.0,226.0 78.0,227.2 75.4,228.4 73.5,229.6 72.1,230.8 71.2,232.1 70.9,233.3 71.1,234.5 71.8,235.7 72.8,237.0 74.2,238.2 75.8,239.4 77.8,240.6 79.9,241.9 82.4,243.1 85.0,244.3 87.9,245.5 90.9,246.8 94.1,248.0 97.4,249.2 100.8,250.4 104.1,251.7 107.3,252.9 110.4,254.1 113.2,255.3 115.8,256.6 118.2,257.8 120.2,259.0 121.9,260.2 123.4,261.5 124.6,262.7" fill="#d33" opacity="0.5" stroke="#d33" stroke-width="1"/>
<line x1="73.5" y1="229.593640114068" x2="183.2" y2="229.593640114068" stroke="#114" stroke-width="2"/>
<circle cx="128.33333333333331" cy="245.8075414113086" r="2.4" fill="#114"/>
<text x="128.33333333333331" y="178.42689787742364" text-anchor="middle" font-size="11">0.82</text>
<text x="128.33333333333331" y="376" text-anchor="middle" font-size="12">zgemvN</text>
<polygon points="265.1,281.2 265.1,279.4 265.3,277.6 265.4,275.9 265.6,274.1 265.8,272.3 265.9,270.5 266.0,268.7 265.9,266.9 265.8,265.1 265.6,263.3 265.4,261.6 265.3,259.8 265.2,258.0 265.1,256.2 265.0,254.4 265.0,252.6 265.1,250.8 265.1,249.0 265.2,247.3 265.5,245.5 265.9,243.7 266.7,241.9 267.9,240.1 269.7,238.3 272.1,236.5 275.1,234.7 278.4,233.0 281.6,231.2 284.1,229.4 285.7,227.6 286.5,225.8 287.1,224.0 288.3,222.2 290.9,220.5 295.3,218.7 301.1,216.9 307.7,215.1 313.9,213.3 318.9,211.5 321.8,209.7 322.4,207.9 320.9,206.2 317.9,204.4 313.9,202.6 309.7,200.8 305.9,199.0 302.8,197.2 300.5,195.4 298.9,193.6 297.4,191.9 295.7,190.1 293.2,188.3 289.7,186.5 285.5,184.7 280.8,182.9 276.3,181.1 272.5,179.3 269.6,177.6 267.7,175.8 266.7,174.0 266.2,172.2 266.0,170.4 266.0,168.6 266.0,166.8 265.9,165.1 265.8,163.3 265.6,161.5 265.4,159.7 265.3,157.9 265.1,156.1 265.1,154.3 264.9,154.3 264.9,156.1 264.7,157.9 264.6,159.7 264.4,161.5 264.2,163.3 264.1,165.1 264.0,166.8 264.0,168.6 264.0,170.4 263.8,172.2 263.3,174.0 262.3,175.8 260.4,177.6 257.5,179.3 253.7,181.1 249.2,182.9 244.5,184.7 240.3,186.5 236.8,188.3 234.3,190.1 232.6,191.9 231.1,193.6 229.5,195.4 227.2,197.2 224.1,199.0 220.3,200.8 216.1,202.6 212.1,204.4 209.1,206.2 207.6,207.9 208.2,209.7 211.1,211.5 216.1,213.3 222.3,215.1 228.9,216.9 234.7,218.7 239.1,220.5 241.7,222.2 242.9,224.0 243.5,225.8 244.3,227.6 245.9,229.4 248.4,231.2 251.6,233.0 254.9,234.7 257.9,236.5 260.3,238.3 262.1,240.1 263.3,241.9 264.1,243.7 264.5,245.5 264.8,247.3 264.9,249.0 264.9,250.8 265.0,252.6 265.0,254.4 264.9,256.2 264.8,258.0 264.7,259.8 264.6,261.6 264.4,263.3 264.2,265.1 264.1,266.9 264.0,268.7 264.1,270.5 264.2,272.3 264.4,274.1 264.6,275.9 264.7,277.6 264.9,279.4 264.9,281.2" fill="#d33" opacity="0.5" stroke="#d33" stroke-width="1"/>
<line x1="208.4" y1="206.71125867390248" x2="321.6" y2="206.71125867390248" stroke="#114" stroke-width="2"/>
<circle cx="265.0" cy="227.85217485631762" r="2.4" fill="#114"/>
<text x="265.0" y="160.86157295191958" text-anchor="middle" font-size="11">0.97</text>
<text x="265.0" y="376" text-anchor="middle" font-size="12">zgemvC</text>
<polygon points="404.1,227.4 404.9,226.1 406.1,224.8 407.5,223.6 409.3,222.3 411.4,221.0 413.9,219.8 416.9,218.5 420.2,217.2 423.9,215.9 427.9,214.7 432.2,213.4 436.6,212.1 441.0,210.9 445.3,209.6 449.3,208.3 452.9,207.0 455.7,205.8 457.8,204.5 458.9,203.2 459.1,202.0 458.2,200.7 456.3,199.4 453.6,198.2 450.1,196.9 446.1,195.6 441.8,194.3 437.3,193.1 433.0,191.8 428.9,190.5 425.4,189.3 422.4,188.0 420.0,186.7 418.2,185.4 417.1,184.2 416.4,182.9 416.1,181.6 416.1,180.4 416.2,179.1 416.3,177.8 416.3,176.6 416.1,175.3 415.7,174.0 415.1,172.7 414.4,171.5 413.5,170.2 412.6,168.9 411.7,167.7 411.0,166.4 410.4,165.1 410.0,163.8 409.9,162.6 410.0,161.3 410.3,160.0 410.8,158.8 411.5,157.5 412.2,156.2 412.8,154.9 413.5,153.7 413.9,152.4 414.2,151.1 414.2,149.9 413.9,148.6 413.4,147.3 412.7,146.1 411.8,144.8 410.8,143.5 409.6,142.2 408.5,141.0 407.4,139.7 406.3,138.4 405.4,137.2 397.9,137.2 397.0,138.4 396.0,139.7 394.8,141.0 393.7,142.2 392.6,143.5 391.5,144.8 390.6,146.1 389.9,147.3 389.4,148.6 389.2,149.9 389.2,151.1 389.4,152.4 389.9,153.7 390.5,154.9 391.2,156.2 391.9,157.5 392.5,158.8 393.0,160.0 393.4,161.3 393.5,162.6 393.3,163.8 393.0,165.1 392.4,166.4 391.6,167.7 390.7,168.9 389.8,170.2 389.0,171.5 388.2,172.7 387.6,174.0 387.3,175.3 387.1,176.6 387.1,177.8 387.1,179.1 387.2,180.4 387.2,181.6 386.9,182.9 386.2,184.2 385.1,185.4 383.3,186.7 381.0,188.0 378.0,189.3 374.4,190.5 370.4,191.8 366.0,193.1 361.6,194.3 357.2,195.6 353.2,196.9 349.7,198.2 347.0,199.4 345.1,200.7 344.3,202.0 344.4,203.2 345.6,204.5 347.6,205.8 350.5,207.0 354.0,208.3 358.0,209.6 362.3,210.9 366.7,212.1 371.1,213.4 375.4,214.7 379.4,215.9 383.1,217.2 386.5,218.5 389.4,219.8 391.9,221.0 394.1,222.3 395.8,223.6 397.3,224.8 398.4,226.1 399.3,227.4" fill="#d33" opacity="0.5" stroke="#d33" stroke-width="1"/>
<line x1="346.1" y1="199.92903566235756" x2="457.2" y2="199.92903566235756" stroke="#114" stroke-width="2"/>
<circle cx="401.66666666666663" cy="210.20072364037352" r="2.4" fill="#114"/>
<text x="401.66666666666663" y="140.14127664683102" text-anchor="middle" font-size="11">1.01</text>
<text x="401.66666666666663" y="376" text-anchor="middle" font-size="12">zgeru</text>
<polygon points="562.8,176.9 566.5,175.2 570.2,173.5 573.9,171.8 577.5,170.1 581.0,168.3 584.2,166.6 587.0,164.9 589.3,163.2 591.1,161.5 592.3,159.8 593.0,158.1 593.0,156.4 592.5,154.7 591.5,153.0 590.1,151.2 588.2,149.5 586.1,147.8 583.8,146.1 581.4,144.4 578.9,142.7 576.6,141.0 574.3,139.3 572.3,137.6 570.4,135.8 568.9,134.1 567.7,132.4 566.7,130.7 566.1,129.0 565.7,127.3 565.7,125.6 565.8,123.9 566.2,122.2 566.7,120.4 567.4,118.7 568.1,117.0 569.0,115.3 569.9,113.6 570.8,111.9 571.9,110.2 573.0,108.5 574.3,106.8 575.6,105.0 577.1,103.3 578.6,101.6 580.4,99.9 582.2,98.2 584.2,96.5 586.1,94.8 588.1,93.1 590.0,91.4 591.8,89.6 593.3,87.9 594.5,86.2 595.3,84.5 595.7,82.8 595.6,81.1 595.0,79.4 593.8,77.7 592.1,76.0 589.9,74.2 587.2,72.5 584.1,70.8 580.7,69.1 577.1,67.4 573.4,65.7 569.6,64.0 565.9,62.3 562.3,60.6 559.0,58.8 555.8,57.1 553.0,55.4 523.7,55.4 520.9,57.1 517.7,58.8 514.3,60.6 510.7,62.3 507.0,64.0 503.3,65.7 499.5,67.4 495.9,69.1 492.6,70.8 489.5,72.5 486.8,74.2 484.6,76.0 482.9,77.7 481.7,79.4 481.0,81.1 480.9,82.8 481.3,84.5 482.2,86.2 483.4,87.9 484.9,89.6 486.7,91.4 488.6,93.1 490.5,94.8 492.5,96.5 494.4,98.2 496.3,99.9 498.0,101.6 499.6,103.3 501.1,105.0 502.4,106.8 503.6,108.5 504.8,110.2 505.8,111.9 506.8,113.6 507.7,115.3 508.6,117.0 509.3,118.7 510.0,120.4 510.5,122.2 510.8,123.9 511.0,125.6 510.9,127.3 510.6,129.0 509.9,130.7 509.0,132.4 507.8,134.1 506.2,135.8 504.4,137.6 502.4,139.3 500.1,141.0 497.7,142.7 495.3,144.4 492.9,146.1 490.6,147.8 488.4,149.5 486.6,151.2 485.2,153.0 484.1,154.7 483.6,156.4 483.7,158.1 484.4,159.8 485.6,161.5 487.4,163.2 489.7,164.9 492.5,166.6 495.7,168.3 499.1,170.1 502.8,171.8 506.5,173.5 510.2,175.2 513.8,176.9" fill="#2a8" opacity="0.5" stroke="#2a8" stroke-width="1"/>
<line x1="506.7" y1="113.50903062165152" x2="569.9" y2="113.50903062165152" stroke="#114" stroke-width="2"/>
<circle cx="538.3333333333333" cy="162.84487057892676" r="2.4" fill="#114"/>
<text x="538.3333333333333" y="61.433962264150935" text-anchor="middle" font-size="11">1.56</text>
<text x="538.3333333333333" y="376" text-anchor="middle" font-size="12">zhemv</text>
<polygon points="692.9,250.7 696.2,247.8 699.8,245.0 703.6,242.2 707.5,239.4 711.4,236.5 715.3,233.7 718.9,230.9 722.3,228.0 725.4,225.2 727.9,222.4 730.0,219.6 731.4,216.7 732.2,213.9 732.4,211.1 731.9,208.3 730.8,205.4 729.0,202.6 726.7,199.8 723.9,197.0 720.8,194.1 717.3,191.3 713.7,188.5 709.9,185.7 706.2,182.8 702.6,180.0 699.2,177.2 696.1,174.4 693.4,171.5 691.0,168.7 689.1,165.9 687.6,163.0 686.6,160.2 685.9,157.4 685.6,154.6 685.6,151.7 685.9,148.9 686.4,146.1 687.0,143.3 687.6,140.4 688.2,137.6 688.8,134.8 689.2,132.0 689.6,129.1 689.7,126.3 689.7,123.5 689.6,120.7 689.4,117.8 689.1,115.0 688.7,112.2 688.4,109.3 688.1,106.5 687.9,103.7 687.8,100.9 687.8,98.0 688.0,95.2 688.2,92.4 688.4,89.6 688.7,86.7 688.9,83.9 689.1,81.1 689.2,78.3 689.1,75.4 688.8,72.6 688.4,69.8 687.8,67.0 687.1,64.1 686.2,61.3 685.2,58.5 684.1,55.7 683.1,52.8 682.0,50.0 668.0,50.0 666.9,52.8 665.9,55.7 664.8,58.5 663.8,61.3 662.9,64.1 662.2,67.0 661.6,69.8 661.2,72.6 660.9,75.4 660.8,78.3 660.9,81.1 661.1,83.9 661.3,86.7 661.6,89.6 661.8,92.4 662.0,95.2 662.2,98.0 662.2,100.9 662.1,103.7 661.9,106.5 661.6,109.3 661.3,112.2 660.9,115.0 660.6,117.8 660.4,120.7 660.3,123.5 660.3,126.3 660.4,129.1 660.8,132.0 661.2,134.8 661.8,137.6 662.4,140.4 663.0,143.3 663.6,146.1 664.1,148.9 664.4,151.7 664.4,154.6 664.1,157.4 663.4,160.2 662.4,163.0 660.9,165.9 659.0,168.7 656.6,171.5 653.9,174.4 650.8,177.2 647.4,180.0 643.8,182.8 640.1,185.7 636.3,188.5 632.7,191.3 629.2,194.1 626.1,197.0 623.3,199.8 621.0,202.6 619.2,205.4 618.1,208.3 617.6,211.1 617.8,213.9 618.6,216.7 620.0,219.6 622.1,222.4 624.6,225.2 627.7,228.0 631.1,230.9 634.7,233.7 638.6,236.5 642.5,239.4 646.4,242.2 650.2,245.0 653.8,247.8 657.1,250.7" fill="#d33" opacity="0.5" stroke="#d33" stroke-width="1"/>
<line x1="621.4" y1="202.10192106494654" x2="728.6" y2="202.10192106494654" stroke="#114" stroke-width="2"/>
<circle cx="675.0" cy="227.11414690826032" r="2.4" fill="#114"/>
<text x="675.0" y="61.49991876612938" text-anchor="middle" font-size="11">1.00</text>
<text x="675.0" y="376" text-anchor="middle" font-size="12">ztrmv</text>
<polygon points="813.0,237.8 813.6,237.1 814.3,236.4 815.1,235.8 816.2,235.1 817.5,234.5 818.9,233.8 820.6,233.1 822.5,232.5 824.5,231.8 826.6,231.1 828.7,230.5 830.9,229.8 833.0,229.2 835.1,228.5 837.0,227.8 838.8,227.2 840.6,226.5 842.3,225.8 844.1,225.2 845.9,224.5 848.0,223.9 850.3,223.2 852.8,222.5 855.5,221.9 858.3,221.2 861.1,220.5 863.6,219.9 865.9,219.2 867.6,218.6 868.6,217.9 869.1,217.2 868.8,216.6 867.9,215.9 866.5,215.2 864.6,214.6 862.4,213.9 860.0,213.3 857.4,212.6 854.8,211.9 852.1,211.3 849.4,210.6 846.8,209.9 844.4,209.3 842.0,208.6 839.9,207.9 838.0,207.3 836.4,206.6 835.1,206.0 834.1,205.3 833.5,204.6 833.3,204.0 833.3,203.3 833.4,202.6 833.6,202.0 833.7,201.3 833.5,200.7 833.1,200.0 832.3,199.3 831.1,198.7 829.6,198.0 827.8,197.3 825.8,196.7 823.7,196.0 821.7,195.4 819.9,194.7 818.2,194.0 816.7,193.4 815.5,192.7 814.5,192.0 813.7,191.4 813.1,190.7 810.2,190.7 809.6,191.4 808.8,192.0 807.8,192.7 806.6,193.4 805.2,194.0 803.5,194.7 801.6,195.4 799.6,196.0 797.5,196.7 795.6,197.3 793.8,198.0 792.2,198.7 791.1,199.3 790.2,200.0 789.8,200.7 789.7,201.3 789.8,202.0 789.9,202.6 790.1,203.3 790.1,204.0 789.8,204.6 789.2,205.3 788.3,206.0 787.0,206.6 785.4,207.3 783.5,207.9 781.3,208.6 779.0,209.3 776.5,209.9 773.9,210.6 771.2,211.3 768.6,211.9 765.9,212.6 763.3,213.3 760.9,213.9 758.7,214.6 756.8,215.2 755.4,215.9 754.5,216.6 754.3,217.2 754.7,217.9 755.8,218.6 757.5,219.2 759.7,219.9 762.2,220.5 765.0,221.2 767.8,221.9 770.5,222.5 773.0,223.2 775.3,223.9 777.4,224.5 779.3,225.2 781.0,225.8 782.8,226.5 784.5,227.2 786.3,227.8 788.3,228.5 790.3,229.2 792.4,229.8 794.6,230.5 796.8,231.1 798.9,231.8 800.9,232.5 802.7,233.1 804.4,233.8 805.9,234.5 807.2,235.1 808.2,235.8 809.1,236.4 809.8,237.1 810.3,237.8" fill="#d33" opacity="0.5" stroke="#d33" stroke-width="1"/>
<line x1="754.3" y1="216.98837111764865" x2="869.1" y2="216.98837111764865" stroke="#114" stroke-width="2"/>
<circle cx="811.6666666666666" cy="227.50605060908487" r="2.4" fill="#114"/>
<text x="811.6666666666666" y="189.52550993961188" text-anchor="middle" font-size="11">0.90</text>
<text x="811.6666666666666" y="376" text-anchor="middle" font-size="12">ztrsv</text>
<text x="450.0" y="428" text-anchor="middle" font-size="11" fill="#666">violin = ratio distribution over sizes · line = median · dark dot = worst size · green = every size ≥ gate</text>
</svg>
