<svg xmlns="http://www.w3.org/2000/svg" width="900" height="460" font-family="sans-serif">
<rect width="900" height="460" fill="white"/>
<text x="450.0" y="28" text-anchor="middle" font-size="18" font-weight="bold">BLAS-3: PureBLAS / OpenBLAS (AVX2, 1 thread, Float64)</text>
<line x1="62" y1="400.0" x2="768" y2="400.0" stroke="#eee"/>
<text x="54" y="404.0" text-anchor="end" font-size="11" fill="#666">0.5×</text>
<line x1="62" y1="321.7153643749532" x2="768" y2="321.7153643749532" stroke="#eee"/>
<text x="54" y="325.7153643749532" text-anchor="end" font-size="11" fill="#666">0.7×</text>
<line x1="62" y1="238.73030651931396" x2="768" y2="238.73030651931396" stroke="#eee"/>
<text x="54" y="242.73030651931396" text-anchor="end" font-size="11" fill="#666">1.0×</text>
<line x1="62" y1="144.39358333031754" x2="768" y2="144.39358333031754" stroke="#eee"/>
<text x="54" y="148.39358333031754" text-anchor="end" font-size="11" fill="#666">1.5×</text>
<line x1="62" y1="77.46061303862793" x2="768" y2="77.46061303862793" stroke="#eee"/>
<text x="54" y="81.46061303862793" text-anchor="end" font-size="11" fill="#666">2.0×</text>
<line x1="62.0" y1="50" x2="62.0" y2="400" stroke="#f4f4f4"/>
<text x="62.0" y="418" text-anchor="middle" font-size="11" fill="#444">8</text>
<line x1="238.5" y1="50" x2="238.5" y2="400" stroke="#f4f4f4"/>
<text x="238.5" y="418" text-anchor="middle" font-size="11" fill="#444">32</text>
<line x1="415.0" y1="50" x2="415.0" y2="400" stroke="#f4f4f4"/>
<text x="415.0" y="418" text-anchor="middle" font-size="11" fill="#444">128</text>
<line x1="503.25" y1="50" x2="503.25" y2="400" stroke="#f4f4f4"/>
<text x="503.25" y="418" text-anchor="middle" font-size="11" fill="#444">256</text>
<line x1="591.5" y1="50" x2="591.5" y2="400" stroke="#f4f4f4"/>
<text x="591.5" y="418" text-anchor="middle" font-size="11" fill="#444">512</text>
<line x1="679.75" y1="50" x2="679.75" y2="400" stroke="#f4f4f4"/>
<text x="679.75" y="418" text-anchor="middle" font-size="11" fill="#444">1024</text>
<line x1="768.0" y1="50" x2="768.0" y2="400" stroke="#f4f4f4"/>
<text x="768.0" y="418" text-anchor="middle" font-size="11" fill="#444">2048</text>
<line x1="62" y1="238.73030651931396" x2="768" y2="238.73030651931396" stroke="#888"/>
<line x1="62" y1="248.2280737009298" x2="768" y2="248.2280737009298" stroke="#d33" stroke-width="1.5" stroke-dasharray="6 4"/>
<text x="66" y="243.2280737009298" font-size="11" fill="#d33">0.96× gate</text>
<polyline points="62.0,82.5 238.5,215.0 415.0,215.7 503.2,231.0 591.5,227.3 679.8,228.3 768.0,224.3" fill="none" stroke="#1f77b4" stroke-width="2"/>
<circle cx="62.0" cy="82.5" r="3" fill="#1f77b4"/>
<circle cx="238.5" cy="215.0" r="3" fill="#1f77b4"/>
<circle cx="415.0" cy="215.7" r="3" fill="#1f77b4"/>
<circle cx="503.2" cy="231.0" r="3" fill="#1f77b4"/>
<circle cx="591.5" cy="227.3" r="3" fill="#1f77b4"/>
<circle cx="679.8" cy="228.3" r="3" fill="#1f77b4"/>
<circle cx="768.0" cy="224.3" r="3" fill="#1f77b4"/>
<line x1="782" y1="56" x2="802" y2="56" stroke="#1f77b4" stroke-width="3"/>
<text x="806" y="60" font-size="12">gemm</text>
<polyline points="62.0,199.8 238.5,244.1 415.0,249.0 503.2,249.3 591.5,248.2 679.8,244.2 768.0,249.1" fill="none" stroke="#d62728" stroke-width="2"/>
<circle cx="62.0" cy="199.8" r="3" fill="#d62728"/>
<circle cx="238.5" cy="244.1" r="3" fill="#d62728"/>
<circle cx="415.0" cy="249.0" r="3" fill="#d62728"/>
<circle cx="503.2" cy="249.3" r="3" fill="#d62728"/>
<circle cx="591.5" cy="248.2" r="3" fill="#d62728"/>
<circle cx="679.8" cy="244.2" r="3" fill="#d62728"/>
<circle cx="768.0" cy="249.1" r="3" fill="#d62728"/>
<line x1="782" y1="74" x2="802" y2="74" stroke="#d62728" stroke-width="3"/>
<text x="806" y="78" font-size="12">zgemm</text>
<polyline points="62.0,189.8 238.5,209.8 415.0,236.6 503.2,241.2 591.5,228.3 679.8,227.6 768.0,227.4" fill="none" stroke="#2ca02c" stroke-width="2"/>
<circle cx="62.0" cy="189.8" r="3" fill="#2ca02c"/>
<circle cx="238.5" cy="209.8" r="3" fill="#2ca02c"/>
<circle cx="415.0" cy="236.6" r="3" fill="#2ca02c"/>
<circle cx="503.2" cy="241.2" r="3" fill="#2ca02c"/>
<circle cx="591.5" cy="228.3" r="3" fill="#2ca02c"/>
<circle cx="679.8" cy="227.6" r="3" fill="#2ca02c"/>
<circle cx="768.0" cy="227.4" r="3" fill="#2ca02c"/>
<line x1="782" y1="92" x2="802" y2="92" stroke="#2ca02c" stroke-width="3"/>
<text x="806" y="96" font-size="12">symm</text>
<polyline points="62.0,121.7 238.5,180.4 415.0,235.2 503.2,230.8 591.5,229.8 679.8,235.6 768.0,234.8" fill="none" stroke="#9467bd" stroke-width="2"/>
<circle cx="62.0" cy="121.7" r="3" fill="#9467bd"/>
<circle cx="238.5" cy="180.4" r="3" fill="#9467bd"/>
<circle cx="415.0" cy="235.2" r="3" fill="#9467bd"/>
<circle cx="503.2" cy="230.8" r="3" fill="#9467bd"/>
<circle cx="591.5" cy="229.8" r="3" fill="#9467bd"/>
<circle cx="679.8" cy="235.6" r="3" fill="#9467bd"/>
<circle cx="768.0" cy="234.8" r="3" fill="#9467bd"/>
<line x1="782" y1="110" x2="802" y2="110" stroke="#9467bd" stroke-width="3"/>
<text x="806" y="114" font-size="12">syrk</text>
<polyline points="62.0,112.4 238.5,217.6 415.0,234.3 503.2,250.5 591.5,239.9 679.8,240.6 768.0,238.0" fill="none" stroke="#ff7f0e" stroke-width="2"/>
<circle cx="62.0" cy="112.4" r="3" fill="#ff7f0e"/>
<circle cx="238.5" cy="217.6" r="3" fill="#ff7f0e"/>
<circle cx="415.0" cy="234.3" r="3" fill="#ff7f0e"/>
<circle cx="503.2" cy="250.5" r="3" fill="#ff7f0e"/>
<circle cx="591.5" cy="239.9" r="3" fill="#ff7f0e"/>
<circle cx="679.8" cy="240.6" r="3" fill="#ff7f0e"/>
<circle cx="768.0" cy="238.0" r="3" fill="#ff7f0e"/>
<line x1="782" y1="128" x2="802" y2="128" stroke="#ff7f0e" stroke-width="3"/>
<text x="806" y="132" font-size="12">syr2k</text>
<polyline points="62.0,285.8 238.5,200.3 415.0,196.5 503.2,195.9 591.5,207.8 679.8,221.8 768.0,225.2" fill="none" stroke="#17becf" stroke-width="2"/>
<circle cx="62.0" cy="285.8" r="3" fill="#17becf"/>
<circle cx="238.5" cy="200.3" r="3" fill="#17becf"/>
<circle cx="415.0" cy="196.5" r="3" fill="#17becf"/>
<circle cx="503.2" cy="195.9" r="3" fill="#17becf"/>
<circle cx="591.5" cy="207.8" r="3" fill="#17becf"/>
<circle cx="679.8" cy="221.8" r="3" fill="#17becf"/>
<circle cx="768.0" cy="225.2" r="3" fill="#17becf"/>
<line x1="782" y1="146" x2="802" y2="146" stroke="#17becf" stroke-width="3"/>
<text x="806" y="150" font-size="12">trmm</text>
<polyline points="62.0,232.2 238.5,243.9 415.0,260.9 503.2,251.6 591.5,236.5 679.8,232.5 768.0,226.2" fill="none" stroke="#8c564b" stroke-width="2"/>
<circle cx="62.0" cy="232.2" r="3" fill="#8c564b"/>
<circle cx="238.5" cy="243.9" r="3" fill="#8c564b"/>
<circle cx="415.0" cy="260.9" r="3" fill="#8c564b"/>
<circle cx="503.2" cy="251.6" r="3" fill="#8c564b"/>
<circle cx="591.5" cy="236.5" r="3" fill="#8c564b"/>
<circle cx="679.8" cy="232.5" r="3" fill="#8c564b"/>
<circle cx="768.0" cy="226.2" r="3" fill="#8c564b"/>
<line x1="782" y1="164" x2="802" y2="164" stroke="#8c564b" stroke-width="3"/>
<text x="806" y="168" font-size="12">trsm</text>
<text x="415.0" y="450" text-anchor="middle" font-size="11" fill="#666">matrix size n (log) · y = median ratio (log) · dashed = the 0.96× gate</text>
</svg>
