<svg xmlns="http://www.w3.org/2000/svg" width="900" height="460" font-family="sans-serif">
<rect width="900" height="460" fill="white"/>
<text x="450.0" y="28" text-anchor="middle" font-size="18" font-weight="bold">BLAS-3: PureBLAS / OpenBLAS (AVX2, 1 thread, Float64)</text>
<line x1="62" y1="400.0" x2="768" y2="400.0" stroke="#eee"/>
<text x="54" y="404.0" text-anchor="end" font-size="11" fill="#666">0.5×</text>
<line x1="62" y1="321.9913166363898" x2="768" y2="321.9913166363898" stroke="#eee"/>
<text x="54" y="325.9913166363898" text-anchor="end" font-size="11" fill="#666">0.7×</text>
<line x1="62" y1="239.29877996575544" x2="768" y2="239.29877996575544" stroke="#eee"/>
<text x="54" y="243.29877996575544" text-anchor="end" font-size="11" fill="#666">1.0×</text>
<line x1="62" y1="145.294592425583" x2="768" y2="145.294592425583" stroke="#eee"/>
<text x="54" y="149.294592425583" text-anchor="end" font-size="11" fill="#666">1.5×</text>
<line x1="62" y1="78.59755993151092" x2="768" y2="78.59755993151092" stroke="#eee"/>
<text x="54" y="82.59755993151092" text-anchor="end" font-size="11" fill="#666">2.0×</text>
<line x1="62.0" y1="50" x2="62.0" y2="400" stroke="#f4f4f4"/>
<text x="62.0" y="418" text-anchor="middle" font-size="11" fill="#444">8</text>
<line x1="238.5" y1="50" x2="238.5" y2="400" stroke="#f4f4f4"/>
<text x="238.5" y="418" text-anchor="middle" font-size="11" fill="#444">32</text>
<line x1="415.0" y1="50" x2="415.0" y2="400" stroke="#f4f4f4"/>
<text x="415.0" y="418" text-anchor="middle" font-size="11" fill="#444">128</text>
<line x1="503.25" y1="50" x2="503.25" y2="400" stroke="#f4f4f4"/>
<text x="503.25" y="418" text-anchor="middle" font-size="11" fill="#444">256</text>
<line x1="591.5" y1="50" x2="591.5" y2="400" stroke="#f4f4f4"/>
<text x="591.5" y="418" text-anchor="middle" font-size="11" fill="#444">512</text>
<line x1="679.75" y1="50" x2="679.75" y2="400" stroke="#f4f4f4"/>
<text x="679.75" y="418" text-anchor="middle" font-size="11" fill="#444">1024</text>
<line x1="768.0" y1="50" x2="768.0" y2="400" stroke="#f4f4f4"/>
<text x="768.0" y="418" text-anchor="middle" font-size="11" fill="#444">2048</text>
<line x1="62" y1="239.29877996575544" x2="768" y2="239.29877996575544" stroke="#888"/>
<line x1="62" y1="248.76306764898135" x2="768" y2="248.76306764898135" stroke="#d33" stroke-width="1.5" stroke-dasharray="6 4"/>
<text x="66" y="243.76306764898135" font-size="11" fill="#d33">0.96× gate</text>
<polyline points="62.0,82.4 238.5,226.3 415.0,210.9 503.2,230.0 591.5,221.1 679.8,225.1 768.0,224.4" fill="none" stroke="#1f77b4" stroke-width="2"/>
<circle cx="62.0" cy="82.4" r="3" fill="#1f77b4"/>
<circle cx="238.5" cy="226.3" r="3" fill="#1f77b4"/>
<circle cx="415.0" cy="210.9" r="3" fill="#1f77b4"/>
<circle cx="503.2" cy="230.0" r="3" fill="#1f77b4"/>
<circle cx="591.5" cy="221.1" r="3" fill="#1f77b4"/>
<circle cx="679.8" cy="225.1" r="3" fill="#1f77b4"/>
<circle cx="768.0" cy="224.4" r="3" fill="#1f77b4"/>
<line x1="782" y1="56" x2="802" y2="56" stroke="#1f77b4" stroke-width="3"/>
<text x="806" y="60" font-size="12">gemm</text>
<polyline points="62.0,195.4 238.5,251.5 415.0,251.3 503.2,237.3 591.5,243.2 679.8,239.3 768.0,241.8" fill="none" stroke="#d62728" stroke-width="2"/>
<circle cx="62.0" cy="195.4" r="3" fill="#d62728"/>
<circle cx="238.5" cy="251.5" r="3" fill="#d62728"/>
<circle cx="415.0" cy="251.3" r="3" fill="#d62728"/>
<circle cx="503.2" cy="237.3" r="3" fill="#d62728"/>
<circle cx="591.5" cy="243.2" r="3" fill="#d62728"/>
<circle cx="679.8" cy="239.3" r="3" fill="#d62728"/>
<circle cx="768.0" cy="241.8" r="3" fill="#d62728"/>
<line x1="782" y1="74" x2="802" y2="74" stroke="#d62728" stroke-width="3"/>
<text x="806" y="78" font-size="12">zgemm</text>
<polyline points="62.0,190.7 238.5,205.1 415.0,238.1 503.2,241.2 591.5,229.3 679.8,226.9 768.0,221.9" fill="none" stroke="#2ca02c" stroke-width="2"/>
<circle cx="62.0" cy="190.7" r="3" fill="#2ca02c"/>
<circle cx="238.5" cy="205.1" r="3" fill="#2ca02c"/>
<circle cx="415.0" cy="238.1" r="3" fill="#2ca02c"/>
<circle cx="503.2" cy="241.2" r="3" fill="#2ca02c"/>
<circle cx="591.5" cy="229.3" r="3" fill="#2ca02c"/>
<circle cx="679.8" cy="226.9" r="3" fill="#2ca02c"/>
<circle cx="768.0" cy="221.9" r="3" fill="#2ca02c"/>
<line x1="782" y1="92" x2="802" y2="92" stroke="#2ca02c" stroke-width="3"/>
<text x="806" y="96" font-size="12">symm</text>
<polyline points="62.0,152.8 238.5,179.0 415.0,233.4 503.2,232.3 591.5,229.5 679.8,235.5 768.0,231.7" fill="none" stroke="#9467bd" stroke-width="2"/>
<circle cx="62.0" cy="152.8" r="3" fill="#9467bd"/>
<circle cx="238.5" cy="179.0" r="3" fill="#9467bd"/>
<circle cx="415.0" cy="233.4" r="3" fill="#9467bd"/>
<circle cx="503.2" cy="232.3" r="3" fill="#9467bd"/>
<circle cx="591.5" cy="229.5" r="3" fill="#9467bd"/>
<circle cx="679.8" cy="235.5" r="3" fill="#9467bd"/>
<circle cx="768.0" cy="231.7" r="3" fill="#9467bd"/>
<line x1="782" y1="110" x2="802" y2="110" stroke="#9467bd" stroke-width="3"/>
<text x="806" y="114" font-size="12">syrk</text>
<polyline points="62.0,115.8 238.5,209.5 415.0,237.9 503.2,247.6 591.5,235.6 679.8,239.1 768.0,235.3" fill="none" stroke="#ff7f0e" stroke-width="2"/>
<circle cx="62.0" cy="115.8" r="3" fill="#ff7f0e"/>
<circle cx="238.5" cy="209.5" r="3" fill="#ff7f0e"/>
<circle cx="415.0" cy="237.9" r="3" fill="#ff7f0e"/>
<circle cx="503.2" cy="247.6" r="3" fill="#ff7f0e"/>
<circle cx="591.5" cy="235.6" r="3" fill="#ff7f0e"/>
<circle cx="679.8" cy="239.1" r="3" fill="#ff7f0e"/>
<circle cx="768.0" cy="235.3" r="3" fill="#ff7f0e"/>
<line x1="782" y1="128" x2="802" y2="128" stroke="#ff7f0e" stroke-width="3"/>
<text x="806" y="132" font-size="12">syr2k</text>
<polyline points="62.0,294.6 238.5,189.0 415.0,194.3 503.2,196.7 591.5,210.2 679.8,219.6 768.0,224.0" fill="none" stroke="#17becf" stroke-width="2"/>
<circle cx="62.0" cy="294.6" r="3" fill="#17becf"/>
<circle cx="238.5" cy="189.0" r="3" fill="#17becf"/>
<circle cx="415.0" cy="194.3" r="3" fill="#17becf"/>
<circle cx="503.2" cy="196.7" r="3" fill="#17becf"/>
<circle cx="591.5" cy="210.2" r="3" fill="#17becf"/>
<circle cx="679.8" cy="219.6" r="3" fill="#17becf"/>
<circle cx="768.0" cy="224.0" r="3" fill="#17becf"/>
<line x1="782" y1="146" x2="802" y2="146" stroke="#17becf" stroke-width="3"/>
<text x="806" y="150" font-size="12">trmm</text>
<polyline points="62.0,228.5 238.5,240.7 415.0,245.8 503.2,239.8 591.5,228.0 679.8,230.0 768.0,228.9" fill="none" stroke="#8c564b" stroke-width="2"/>
<circle cx="62.0" cy="228.5" r="3" fill="#8c564b"/>
<circle cx="238.5" cy="240.7" r="3" fill="#8c564b"/>
<circle cx="415.0" cy="245.8" r="3" fill="#8c564b"/>
<circle cx="503.2" cy="239.8" r="3" fill="#8c564b"/>
<circle cx="591.5" cy="228.0" r="3" fill="#8c564b"/>
<circle cx="679.8" cy="230.0" r="3" fill="#8c564b"/>
<circle cx="768.0" cy="228.9" r="3" fill="#8c564b"/>
<line x1="782" y1="164" x2="802" y2="164" stroke="#8c564b" stroke-width="3"/>
<text x="806" y="168" font-size="12">trsm</text>
<text x="415.0" y="450" text-anchor="middle" font-size="11" fill="#666">matrix size n (log) · y = median ratio (log) · dashed = the 0.96× gate</text>
</svg>
