<svg xmlns="http://www.w3.org/2000/svg" width="900" height="440" font-family="sans-serif">
<rect width="900" height="440" fill="white"/>
<text x="450.0" y="28" text-anchor="middle" font-size="18" font-weight="bold">BLAS-1: PureBLAS / OpenBLAS (AVX-512, 1 thread, Float64)</text>
<line x1="60" y1="358.0" x2="880" y2="358.0" stroke="#eee"/>
<text x="52" y="362.0" text-anchor="end" font-size="11" fill="#666">0×</text>
<line x1="60" y1="346.9415739349741" x2="880" y2="346.9415739349741" stroke="#eee"/>
<text x="52" y="350.9415739349741" text-anchor="end" font-size="11" fill="#666">0.5×</text>
<line x1="60" y1="335.88314786994823" x2="880" y2="335.88314786994823" stroke="#eee"/>
<text x="52" y="339.88314786994823" text-anchor="end" font-size="11" fill="#666">1×</text>
<line x1="60" y1="324.8247218049224" x2="880" y2="324.8247218049224" stroke="#eee"/>
<text x="52" y="328.8247218049224" text-anchor="end" font-size="11" fill="#666">1.5×</text>
<line x1="60" y1="335.88314786994823" x2="880" y2="335.88314786994823" stroke="#888" stroke-width="1"/>
<line x1="60" y1="336.76782195515034" x2="880" y2="336.76782195515034" stroke="#d33" stroke-width="1.5" stroke-dasharray="6 4"/>
<text x="880" y="331.76782195515034" text-anchor="end" font-size="11" fill="#d33">0.96× gate</text>
<polygon points="128.3,345.2 128.3,345.1 128.3,344.9 128.4,344.7 128.4,344.5 128.5,344.3 128.6,344.1 128.6,343.9 128.6,343.8 128.5,343.6 128.4,343.4 128.4,343.2 128.3,343.0 128.3,342.8 128.3,342.6 128.3,342.5 128.3,342.3 128.3,342.1 128.3,341.9 128.3,341.7 128.3,341.5 128.4,341.3 128.4,341.1 128.5,341.0 128.6,340.8 128.6,340.6 128.6,340.4 128.5,340.2 128.4,340.0 128.4,339.8 128.5,339.7 128.6,339.5 128.6,339.3 128.6,339.1 128.6,338.9 128.6,338.7 128.8,338.5 129.2,338.4 129.8,338.2 130.6,338.0 131.3,337.8 131.7,337.6 131.7,337.4 132.0,337.2 133.6,337.1 138.0,336.9 146.6,336.7 159.0,336.5 172.7,336.3 182.7,336.1 185.7,335.9 181.5,335.8 173.0,335.6 162.9,335.4 153.1,335.2 144.8,335.0 138.9,334.8 135.9,334.6 135.4,334.5 136.2,334.3 137.3,334.1 138.1,333.9 138.4,333.7 138.0,333.5 136.6,333.3 134.2,333.2 131.7,333.0 129.9,332.8 128.9,332.6 128.5,332.4 128.4,332.2 128.3,332.0 128.3,332.0 128.3,332.2 128.2,332.4 127.8,332.6 126.8,332.8 124.9,333.0 122.4,333.2 120.1,333.3 118.6,333.5 118.2,333.7 118.5,333.9 119.3,334.1 120.4,334.3 121.3,334.5 120.8,334.6 117.8,334.8 111.9,335.0 103.5,335.2 93.8,335.4 83.7,335.6 75.1,335.8 70.9,335.9 73.9,336.1 84.0,336.3 97.6,336.5 110.1,336.7 118.6,336.9 123.1,337.1 124.7,337.2 124.9,337.4 125.0,337.6 125.3,337.8 126.0,338.0 126.8,338.2 127.5,338.4 127.9,338.5 128.1,338.7 128.1,338.9 128.0,339.1 128.0,339.3 128.1,339.5 128.2,339.7 128.2,339.8 128.2,340.0 128.2,340.2 128.1,340.4 128.0,340.6 128.0,340.8 128.1,341.0 128.2,341.1 128.3,341.3 128.3,341.5 128.3,341.7 128.3,341.9 128.3,342.1 128.3,342.3 128.3,342.5 128.3,342.6 128.3,342.8 128.3,343.0 128.3,343.2 128.2,343.4 128.1,343.6 128.1,343.8 128.0,343.9 128.1,344.1 128.2,344.3 128.2,344.5 128.3,344.7 128.3,344.9 128.3,345.1 128.3,345.2" fill="#2a8" opacity="0.5" stroke="#2a8" stroke-width="1"/>
<line x1="71.4" y1="335.89572012872895" x2="185.3" y2="335.89572012872895" stroke="#114" stroke-width="2"/>
<circle cx="128.33333333333331" cy="336.3350562056101" r="2.4" fill="#114"/>
<text x="128.33333333333331" y="327.35154295318233" text-anchor="middle" font-size="11">1.00</text>
<text x="128.33333333333331" y="376" text-anchor="middle" font-size="12">axpy</text>
<polygon points="265.0,337.3 265.0,337.2 265.0,337.1 265.0,337.0 265.1,337.0 265.2,336.9 265.6,336.8 266.2,336.7 267.0,336.6 268.1,336.5 269.8,336.4 272.2,336.3 276.4,336.3 284.6,336.2 298.4,336.1 313.7,336.0 322.4,335.9 320.2,335.8 310.3,335.7 299.6,335.7 292.8,335.6 288.8,335.5 283.8,335.4 276.9,335.3 270.9,335.2 267.6,335.1 266.7,335.0 266.8,335.0 266.9,334.9 266.7,334.8 266.1,334.7 265.5,334.6 265.2,334.5 265.0,334.4 265.0,334.4 265.0,334.3 265.0,334.2 265.0,334.1 265.0,334.0 265.0,333.9 265.1,333.8 265.2,333.7 265.3,333.7 265.3,333.6 265.3,333.5 265.3,333.4 265.3,333.3 265.3,333.2 265.2,333.1 265.1,333.1 265.0,333.0 265.0,332.9 265.0,332.8 265.0,332.7 265.0,332.6 265.0,332.5 265.0,332.4 265.0,332.4 265.0,332.3 265.0,332.2 265.0,332.1 265.1,332.0 265.2,331.9 265.3,331.8 265.3,331.7 265.2,331.7 265.1,331.6 265.0,331.5 265.0,331.4 265.0,331.3 265.0,331.2 265.0,331.1 265.0,331.1 265.0,331.2 265.0,331.3 265.0,331.4 265.0,331.5 264.9,331.6 264.8,331.7 264.7,331.7 264.7,331.8 264.8,331.9 264.9,332.0 265.0,332.1 265.0,332.2 265.0,332.3 265.0,332.4 265.0,332.4 265.0,332.5 265.0,332.6 265.0,332.7 265.0,332.8 265.0,332.9 265.0,333.0 264.9,333.1 264.8,333.1 264.7,333.2 264.7,333.3 264.7,333.4 264.7,333.5 264.7,333.6 264.7,333.7 264.8,333.7 264.9,333.8 265.0,333.9 265.0,334.0 265.0,334.1 265.0,334.2 265.0,334.3 265.0,334.4 265.0,334.4 264.8,334.5 264.5,334.6 263.9,334.7 263.3,334.8 263.1,334.9 263.2,335.0 263.3,335.0 262.4,335.1 259.1,335.2 253.1,335.3 246.2,335.4 241.2,335.5 237.2,335.6 230.4,335.7 219.7,335.7 209.8,335.8 207.6,335.9 216.3,336.0 231.6,336.1 245.4,336.2 253.6,336.3 257.8,336.3 260.2,336.4 261.9,336.5 263.0,336.6 263.8,336.7 264.4,336.8 264.8,336.9 264.9,337.0 265.0,337.0 265.0,337.1 265.0,337.2 265.0,337.3" fill="#2a8" opacity="0.5" stroke="#2a8" stroke-width="1"/>
<line x1="207.9" y1="335.85858293181354" x2="322.1" y2="335.85858293181354" stroke="#114" stroke-width="2"/>
<circle cx="265.0" cy="335.96413863935294" r="2.4" fill="#114"/>
<text x="265.0" y="325.77331563082436" text-anchor="middle" font-size="11">1.00</text>
<text x="265.0" y="376" text-anchor="middle" font-size="12">dot</text>
<polygon points="403.6,312.3 404.4,308.6 405.4,304.9 406.8,301.2 408.5,297.5 410.6,293.8 413.1,290.1 416.1,286.4 419.5,282.7 423.3,279.0 427.2,275.3 431.3,271.7 435.3,268.0 439.0,264.3 442.2,260.6 444.8,256.9 446.7,253.2 447.7,249.5 448.0,245.8 447.7,242.1 446.9,238.4 446.1,234.7 445.3,231.0 444.9,227.3 445.1,223.6 446.0,219.9 447.6,216.2 449.7,212.5 452.2,208.9 454.7,205.2 456.9,201.5 458.5,197.8 459.1,194.1 458.5,190.4 456.7,186.7 453.8,183.0 449.7,179.3 444.8,175.6 439.5,171.9 433.9,168.2 428.5,164.5 423.5,160.8 419.1,157.1 415.4,153.4 412.6,149.7 410.6,146.0 409.6,142.4 409.3,138.7 409.8,135.0 411.1,131.3 413.0,127.6 415.5,123.9 418.4,120.2 421.6,116.5 425.1,112.8 428.5,109.1 431.7,105.4 434.6,101.7 436.8,98.0 438.4,94.3 439.2,90.6 439.1,86.9 438.2,83.2 436.6,79.6 434.3,75.9 431.4,72.2 428.3,68.5 424.9,64.8 421.5,61.1 418.2,57.4 415.2,53.7 412.5,50.0 390.9,50.0 388.1,53.7 385.1,57.4 381.8,61.1 378.4,64.8 375.1,68.5 371.9,72.2 369.1,75.9 366.8,79.6 365.1,83.2 364.2,86.9 364.1,90.6 364.9,94.3 366.5,98.0 368.8,101.7 371.6,105.4 374.8,109.1 378.3,112.8 381.7,116.5 384.9,120.2 387.9,123.9 390.3,127.6 392.3,131.3 393.5,135.0 394.0,138.7 393.8,142.4 392.7,146.0 390.7,149.7 387.9,153.4 384.3,157.1 379.9,160.8 374.8,164.5 369.4,168.2 363.9,171.9 358.5,175.6 353.6,179.3 349.6,183.0 346.6,186.7 344.8,190.4 344.3,194.1 344.9,197.8 346.4,201.5 348.6,205.2 351.1,208.9 353.6,212.5 355.7,216.2 357.3,219.9 358.2,223.6 358.4,227.3 358.0,231.0 357.3,234.7 356.4,238.4 355.7,242.1 355.3,245.8 355.6,249.5 356.7,253.2 358.5,256.9 361.1,260.6 364.3,264.3 368.0,268.0 372.0,271.7 376.1,275.3 380.1,279.0 383.8,282.7 387.2,286.4 390.2,290.1 392.7,293.8 394.8,297.5 396.6,301.2 397.9,304.9 399.0,308.6 399.8,312.3" fill="#2a8" opacity="0.5" stroke="#2a8" stroke-width="1"/>
<line x1="344.7" y1="190.84085274413363" x2="458.7" y2="190.84085274413363" stroke="#114" stroke-width="2"/>
<circle cx="401.66666666666663" cy="251.2880891900363" r="2.4" fill="#114"/>
<text x="401.66666666666663" y="61.43396226415098" text-anchor="middle" font-size="11">7.56</text>
<text x="401.66666666666663" y="376" text-anchor="middle" font-size="12">nrm2</text>
<polygon points="538.4,344.3 538.4,344.0 538.5,343.7 538.5,343.4 538.6,343.1 538.6,342.8 538.7,342.5 538.8,342.2 538.9,341.9 539.1,341.6 539.3,341.3 539.6,341.0 540.1,340.7 540.8,340.4 541.6,340.1 542.7,339.8 544.0,339.5 545.7,339.2 547.8,338.9 550.8,338.7 554.6,338.4 559.7,338.1 566.1,337.8 573.3,337.5 580.9,337.2 587.9,336.9 593.1,336.6 595.7,336.3 595.2,336.0 591.7,335.7 585.9,335.4 578.7,335.1 571.4,334.8 565.0,334.5 560.0,334.2 556.6,333.9 554.6,333.6 553.4,333.3 552.6,333.0 551.7,332.7 550.5,332.4 549.0,332.1 547.2,331.8 545.4,331.5 543.8,331.2 542.4,330.9 541.5,330.7 541.0,330.4 541.1,330.1 541.5,329.8 542.3,329.5 543.4,329.2 544.6,328.9 545.6,328.6 546.5,328.3 547.0,328.0 547.2,327.7 547.0,327.4 546.7,327.1 546.2,326.8 545.7,326.5 545.3,326.2 544.7,325.9 544.2,325.6 543.5,325.3 542.8,325.0 542.0,324.7 541.2,324.4 540.4,324.1 539.8,323.8 539.3,323.5 538.9,323.2 537.7,323.2 537.4,323.5 536.9,323.8 536.2,324.1 535.5,324.4 534.7,324.7 533.9,325.0 533.2,325.3 532.5,325.6 531.9,325.9 531.4,326.2 530.9,326.5 530.4,326.8 530.0,327.1 529.6,327.4 529.5,327.7 529.7,328.0 530.2,328.3 531.0,328.6 532.1,328.9 533.3,329.2 534.3,329.5 535.2,329.8 535.6,330.1 535.6,330.4 535.2,330.7 534.3,330.9 532.9,331.2 531.3,331.5 529.5,331.8 527.7,332.1 526.2,332.4 525.0,332.7 524.1,333.0 523.3,333.3 522.1,333.6 520.1,333.9 516.7,334.2 511.7,334.5 505.3,334.8 498.0,335.1 490.8,335.4 484.9,335.7 481.4,336.0 480.9,336.3 483.6,336.6 488.8,336.9 495.7,337.2 503.3,337.5 510.6,337.8 516.9,338.1 522.0,338.4 525.9,338.7 528.8,338.9 531.0,339.2 532.7,339.5 534.0,339.8 535.1,340.1 535.9,340.4 536.6,340.7 537.0,341.0 537.4,341.3 537.6,341.6 537.8,341.9 537.9,342.2 538.0,342.5 538.0,342.8 538.1,343.1 538.2,343.4 538.2,343.7 538.2,344.0 538.3,344.3" fill="#d33" opacity="0.5" stroke="#d33" stroke-width="1"/>
<line x1="481.6" y1="335.9541672762641" x2="595.0" y2="335.9541672762641" stroke="#114" stroke-width="2"/>
<circle cx="538.3333333333333" cy="337.13138560177157" r="2.4" fill="#114"/>
<text x="538.3333333333333" y="319.3160063261589" text-anchor="middle" font-size="11">1.00</text>
<text x="538.3333333333333" y="376" text-anchor="middle" font-size="12">asum</text>
<polygon points="675.0,338.3 675.0,338.1 675.1,338.0 675.2,337.8 675.5,337.7 676.1,337.5 677.0,337.3 678.3,337.2 679.7,337.0 681.1,336.8 682.2,336.7 682.9,336.5 683.6,336.3 684.9,336.2 687.8,336.0 692.9,335.8 700.6,335.7 710.3,335.5 720.4,335.3 728.5,335.2 732.4,335.0 731.1,334.8 724.8,334.7 715.2,334.5 704.6,334.4 695.2,334.2 688.3,334.0 684.1,333.9 682.4,333.7 682.5,333.5 684.0,333.4 686.2,333.2 688.1,333.0 688.8,332.9 687.9,332.7 685.5,332.5 682.6,332.4 680.0,332.2 678.2,332.0 677.1,331.9 676.5,331.7 676.2,331.6 676.0,331.4 675.8,331.2 675.7,331.1 675.7,330.9 675.8,330.7 675.8,330.6 675.9,330.4 675.8,330.2 675.7,330.1 675.5,329.9 675.3,329.7 675.2,329.6 675.1,329.4 675.0,329.2 675.0,329.1 675.0,328.9 675.0,328.7 675.0,328.6 675.1,328.4 675.1,328.3 675.2,328.1 675.3,327.9 675.3,327.8 675.3,327.6 675.2,327.4 675.1,327.3 675.1,327.1 675.0,326.9 675.0,326.8 675.0,326.6 675.0,326.6 675.0,326.8 675.0,326.9 674.9,327.1 674.9,327.3 674.8,327.4 674.7,327.6 674.7,327.8 674.7,327.9 674.8,328.1 674.9,328.3 674.9,328.4 675.0,328.6 675.0,328.7 675.0,328.9 675.0,329.1 675.0,329.2 674.9,329.4 674.8,329.6 674.7,329.7 674.5,329.9 674.3,330.1 674.2,330.2 674.1,330.4 674.2,330.6 674.2,330.7 674.3,330.9 674.3,331.1 674.2,331.2 674.0,331.4 673.8,331.6 673.5,331.7 672.9,331.9 671.8,332.0 670.0,332.2 667.4,332.4 664.5,332.5 662.1,332.7 661.2,332.9 661.9,333.0 663.8,333.2 666.0,333.4 667.5,333.5 667.6,333.7 665.9,333.9 661.7,334.0 654.8,334.2 645.4,334.4 634.8,334.5 625.2,334.7 618.9,334.8 617.6,335.0 621.5,335.2 629.6,335.3 639.7,335.5 649.4,335.7 657.1,335.8 662.2,336.0 665.1,336.2 666.4,336.3 667.1,336.5 667.8,336.7 668.9,336.8 670.3,337.0 671.7,337.2 673.0,337.3 673.9,337.5 674.5,337.7 674.8,337.8 674.9,338.0 675.0,338.1 675.0,338.3" fill="#2a8" opacity="0.5" stroke="#2a8" stroke-width="1"/>
<line x1="618.3" y1="334.88120655462535" x2="731.7" y2="334.88120655462535" stroke="#114" stroke-width="2"/>
<circle cx="675.0" cy="335.34719905174165" r="2.4" fill="#114"/>
<text x="675.0" y="321.7733454161736" text-anchor="middle" font-size="11">1.05</text>
<text x="675.0" y="376" text-anchor="middle" font-size="12">scal</text>
<polygon points="813.1,343.9 813.9,343.4 814.9,343.0 816.2,342.5 817.9,342.1 819.9,341.6 822.3,341.2 824.9,340.7 827.9,340.3 831.2,339.8 834.7,339.4 838.4,338.9 842.3,338.5 846.3,338.0 850.2,337.5 854.0,337.1 857.5,336.6 860.6,336.2 863.3,335.7 865.5,335.3 867.1,334.8 868.2,334.4 868.9,333.9 869.1,333.5 868.9,333.0 868.4,332.6 867.8,332.1 867.1,331.7 866.5,331.2 865.9,330.8 865.6,330.3 865.4,329.9 865.3,329.4 865.4,328.9 865.6,328.5 865.8,328.0 866.0,327.6 866.1,327.1 866.1,326.7 865.8,326.2 865.3,325.8 864.4,325.3 863.3,324.9 861.7,324.4 859.8,324.0 857.7,323.5 855.3,323.1 852.8,322.6 850.3,322.2 847.8,321.7 845.5,321.2 843.2,320.8 841.0,320.3 838.8,319.9 836.5,319.4 834.2,319.0 831.9,318.5 829.6,318.1 827.3,317.6 825.2,317.2 823.2,316.7 821.4,316.3 819.9,315.8 818.6,315.4 817.4,314.9 816.4,314.5 815.5,314.0 814.7,313.6 814.0,313.1 813.4,312.6 812.9,312.2 812.5,311.7 810.8,311.7 810.5,312.2 810.0,312.6 809.4,313.1 808.7,313.6 807.9,314.0 806.9,314.5 805.9,314.9 804.7,315.4 803.4,315.8 801.9,316.3 800.1,316.7 798.2,317.2 796.0,317.6 793.8,318.1 791.4,318.5 789.1,319.0 786.8,319.4 784.6,319.9 782.3,320.3 780.1,320.8 777.9,321.2 775.5,321.7 773.0,322.2 770.5,322.6 768.1,323.1 765.7,323.5 763.5,324.0 761.6,324.4 760.1,324.9 758.9,325.3 758.1,325.8 757.5,326.2 757.3,326.7 757.2,327.1 757.3,327.6 757.5,328.0 757.7,328.5 757.9,328.9 758.0,329.4 758.0,329.9 757.8,330.3 757.4,330.8 756.9,331.2 756.2,331.7 755.5,332.1 754.9,332.6 754.4,333.0 754.3,333.5 754.5,333.9 755.1,334.4 756.2,334.8 757.9,335.3 760.0,335.7 762.7,336.2 765.8,336.6 769.3,337.1 773.1,337.5 777.0,338.0 781.0,338.5 784.9,338.9 788.6,339.4 792.2,339.8 795.4,340.3 798.4,340.7 801.1,341.2 803.4,341.6 805.4,342.1 807.1,342.5 808.4,343.0 809.5,343.4 810.2,343.9" fill="#2a8" opacity="0.5" stroke="#2a8" stroke-width="1"/>
<line x1="758.0" y1="329.3651634891962" x2="865.3" y2="329.3651634891962" stroke="#114" stroke-width="2"/>
<circle cx="811.6666666666666" cy="332.9462870506024" r="2.4" fill="#114"/>
<text x="811.6666666666666" y="308.8881354477604" text-anchor="middle" font-size="11">1.29</text>
<text x="811.6666666666666" y="376" text-anchor="middle" font-size="12">iamax</text>
<text x="450.0" y="428" text-anchor="middle" font-size="11" fill="#666">violin = ratio distribution over sizes · line = median · dark dot = worst size · green = every size ≥ gate</text>
</svg>
