<svg xmlns="http://www.w3.org/2000/svg" width="962" height="248" font-family="sans-serif">
<rect width="962" height="248" fill="white"/>
<text x="481.0" y="26" text-anchor="middle" font-size="17" font-weight="bold">LAPACK — PureBLAS / AOCL (PB/AOCL ratio)</text>
<line x1="46" y1="42" x2="68" y2="42" stroke="#888888" stroke-width="3"/>
<text x="73" y="46" font-size="12">AVX2</text>
<line x1="127" y1="42" x2="149" y2="42" stroke="#888888" stroke-width="3"/>
<text x="154" y="46" font-size="12">Zen5</text>
<line x1="208" y1="42" x2="230" y2="42" stroke="#888888" stroke-width="3"/>
<text x="235" y="46" font-size="12">AVX-512</text>
<rect x="46" y="60" width="210" height="138" fill="none" stroke="#e2e2e2"/>
<line x1="46" y1="151.88826376852427" x2="256" y2="151.88826376852427" stroke="#d33" stroke-dasharray="4 3"/>
<text x="42" y="201.0" text-anchor="end" font-size="9" fill="#999">0.5×</text>
<text x="42" y="154.88826376852427" text-anchor="end" font-size="9" fill="#999">1.0×</text>
<polygon points="46.0,91.1 106.0,68.6 166.0,101.8 196.0,127.5 226.0,124.9 256.0,124.3 256.0,125.8 226.0,125.2 196.0,128.5 166.0,103.2 106.0,71.9 46.0,91.9" fill="#888888" opacity="0.11"/>
<polyline points="46.0,91.7 106.0,69.7 166.0,102.7 196.0,128.0 226.0,125.1 256.0,125.2" fill="none" stroke="#888888" stroke-width="1.6"/>
<circle cx="46.0" cy="91.7" r="2" fill="#888888"/>
<circle cx="106.0" cy="69.7" r="2" fill="#888888"/>
<circle cx="166.0" cy="102.7" r="2" fill="#888888"/>
<circle cx="196.0" cy="128.0" r="2" fill="#888888"/>
<circle cx="226.0" cy="125.1" r="2" fill="#888888"/>
<circle cx="256.0" cy="125.2" r="2" fill="#888888"/>
<polygon points="46.0,91.9 106.0,74.9 166.0,114.4 196.0,133.6 226.0,143.0 256.0,148.5 256.0,148.8 226.0,143.3 196.0,134.0 166.0,115.0 106.0,78.5 46.0,93.5" fill="#888888" opacity="0.11"/>
<polyline points="46.0,92.7 106.0,75.4 166.0,114.7 196.0,133.7 226.0,143.1 256.0,148.6" fill="none" stroke="#888888" stroke-width="1.6"/>
<circle cx="46.0" cy="92.7" r="2" fill="#888888"/>
<circle cx="106.0" cy="75.4" r="2" fill="#888888"/>
<circle cx="166.0" cy="114.7" r="2" fill="#888888"/>
<circle cx="196.0" cy="133.7" r="2" fill="#888888"/>
<circle cx="226.0" cy="143.1" r="2" fill="#888888"/>
<circle cx="256.0" cy="148.6" r="2" fill="#888888"/>
<polygon points="46.0,89.8 106.0,65.1 166.0,108.1 196.0,127.7 226.0,128.9 256.0,142.8 256.0,144.1 226.0,129.6 196.0,129.3 166.0,109.6 106.0,73.5 46.0,92.1" fill="#888888" opacity="0.11"/>
<polyline points="46.0,91.4 106.0,67.6 166.0,108.6 196.0,128.7 226.0,129.2 256.0,143.0" fill="none" stroke="#888888" stroke-width="1.6"/>
<circle cx="46.0" cy="91.4" r="2" fill="#888888"/>
<circle cx="106.0" cy="67.6" r="2" fill="#888888"/>
<circle cx="166.0" cy="108.6" r="2" fill="#888888"/>
<circle cx="196.0" cy="128.7" r="2" fill="#888888"/>
<circle cx="226.0" cy="129.2" r="2" fill="#888888"/>
<circle cx="256.0" cy="143.0" r="2" fill="#888888"/>
<text x="151.0" y="55" text-anchor="middle" font-size="12" font-weight="bold">potrf</text>
<line x1="46.0" y1="60" x2="46.0" y2="198" stroke="#f4f4f4"/>
<text x="46.0" y="209" text-anchor="middle" font-size="8" fill="#999">8</text>
<line x1="106.0" y1="60" x2="106.0" y2="198" stroke="#f4f4f4"/>
<text x="106.0" y="209" text-anchor="middle" font-size="8" fill="#999">32</text>
<line x1="166.0" y1="60" x2="166.0" y2="198" stroke="#f4f4f4"/>
<text x="166.0" y="209" text-anchor="middle" font-size="8" fill="#999">128</text>
<line x1="196.0" y1="60" x2="196.0" y2="198" stroke="#f4f4f4"/>
<text x="196.0" y="209" text-anchor="middle" font-size="8" fill="#999">256</text>
<line x1="226.0" y1="60" x2="226.0" y2="198" stroke="#f4f4f4"/>
<text x="226.0" y="209" text-anchor="middle" font-size="8" fill="#999">512</text>
<line x1="256.0" y1="60" x2="256.0" y2="198" stroke="#f4f4f4"/>
<text x="256.0" y="209" text-anchor="middle" font-size="8" fill="#999">1k</text>
<rect x="276" y="60" width="210" height="138" fill="none" stroke="#e2e2e2"/>
<line x1="276" y1="132.27671517717891" x2="486" y2="132.27671517717891" stroke="#d33" stroke-dasharray="4 3"/>
<text x="272" y="201.0" text-anchor="end" font-size="9" fill="#999">0.5×</text>
<text x="272" y="135.27671517717891" text-anchor="end" font-size="9" fill="#999">1.0×</text>
<text x="272" y="63.13812816589702" text-anchor="end" font-size="9" fill="#999">2.14×</text>
<polygon points="276.0,102.1 336.0,121.1 396.0,86.7 426.0,93.2 456.0,79.0 486.0,74.1 486.0,74.7 456.0,83.6 426.0,95.0 396.0,86.9 336.0,130.6 276.0,105.6" fill="#888888" opacity="0.11"/>
<polyline points="276.0,103.9 336.0,130.2 396.0,86.8 426.0,94.1 456.0,81.0 486.0,74.3" fill="none" stroke="#888888" stroke-width="1.6"/>
<circle cx="276.0" cy="103.9" r="2" fill="#888888"/>
<circle cx="336.0" cy="130.2" r="2" fill="#888888"/>
<circle cx="396.0" cy="86.8" r="2" fill="#888888"/>
<circle cx="426.0" cy="94.1" r="2" fill="#888888"/>
<circle cx="456.0" cy="81.0" r="2" fill="#888888"/>
<circle cx="486.0" cy="74.3" r="2" fill="#888888"/>
<polygon points="276.0,103.8 336.0,86.0 396.0,87.3 426.0,89.9 456.0,90.4 486.0,97.3 486.0,98.3 456.0,90.9 426.0,90.3 396.0,88.3 336.0,135.0 276.0,112.1" fill="#888888" opacity="0.11"/>
<polyline points="276.0,109.7 336.0,134.5 396.0,88.0 426.0,90.1 456.0,90.6 486.0,97.8" fill="none" stroke="#888888" stroke-width="1.6"/>
<circle cx="276.0" cy="109.7" r="2" fill="#888888"/>
<circle cx="336.0" cy="134.5" r="2" fill="#888888"/>
<circle cx="396.0" cy="88.0" r="2" fill="#888888"/>
<circle cx="426.0" cy="90.1" r="2" fill="#888888"/>
<circle cx="456.0" cy="90.6" r="2" fill="#888888"/>
<circle cx="486.0" cy="97.8" r="2" fill="#888888"/>
<polygon points="276.0,102.8 336.0,132.6 396.0,81.6 426.0,78.7 456.0,67.3 486.0,81.5 486.0,81.9 456.0,69.6 426.0,80.9 396.0,84.6 336.0,136.0 276.0,108.4" fill="#888888" opacity="0.11"/>
<polyline points="276.0,105.7 336.0,135.1 396.0,84.1 426.0,80.0 456.0,68.2 486.0,81.8" fill="none" stroke="#888888" stroke-width="1.6"/>
<circle cx="276.0" cy="105.7" r="2" fill="#888888"/>
<circle cx="336.0" cy="135.1" r="2" fill="#888888"/>
<circle cx="396.0" cy="84.1" r="2" fill="#888888"/>
<circle cx="426.0" cy="80.0" r="2" fill="#888888"/>
<circle cx="456.0" cy="68.2" r="2" fill="#888888"/>
<circle cx="486.0" cy="81.8" r="2" fill="#888888"/>
<text x="381.0" y="55" text-anchor="middle" font-size="12" font-weight="bold">geqrf</text>
<line x1="276.0" y1="60" x2="276.0" y2="198" stroke="#f4f4f4"/>
<text x="276.0" y="209" text-anchor="middle" font-size="8" fill="#999">8</text>
<line x1="336.0" y1="60" x2="336.0" y2="198" stroke="#f4f4f4"/>
<text x="336.0" y="209" text-anchor="middle" font-size="8" fill="#999">32</text>
<line x1="396.0" y1="60" x2="396.0" y2="198" stroke="#f4f4f4"/>
<text x="396.0" y="209" text-anchor="middle" font-size="8" fill="#999">128</text>
<line x1="426.0" y1="60" x2="426.0" y2="198" stroke="#f4f4f4"/>
<text x="426.0" y="209" text-anchor="middle" font-size="8" fill="#999">256</text>
<line x1="456.0" y1="60" x2="456.0" y2="198" stroke="#f4f4f4"/>
<text x="456.0" y="209" text-anchor="middle" font-size="8" fill="#999">512</text>
<line x1="486.0" y1="60" x2="486.0" y2="198" stroke="#f4f4f4"/>
<text x="486.0" y="209" text-anchor="middle" font-size="8" fill="#999">1k</text>
<rect x="506" y="60" width="210" height="138" fill="none" stroke="#e2e2e2"/>
<line x1="506" y1="164.0886449482516" x2="716" y2="164.0886449482516" stroke="#d33" stroke-dasharray="4 3"/>
<text x="502" y="201.0" text-anchor="end" font-size="9" fill="#999">0.5×</text>
<text x="502" y="167.0886449482516" text-anchor="end" font-size="9" fill="#999">1.0×</text>
<text x="502" y="63.02585955085083" text-anchor="end" font-size="9" fill="#999">8.39×</text>
<polygon points="506.0,154.8 566.0,165.7 626.0,136.1 656.0,141.2 686.0,135.6 716.0,141.2 716.0,143.1 686.0,136.4 656.0,144.7 626.0,136.3 566.0,166.7 506.0,155.0" fill="#888888" opacity="0.11"/>
<polyline points="506.0,154.9 566.0,166.0 626.0,136.2 656.0,142.7 686.0,135.9 716.0,143.0" fill="none" stroke="#888888" stroke-width="1.6"/>
<circle cx="506.0" cy="154.9" r="2" fill="#888888"/>
<circle cx="566.0" cy="166.0" r="2" fill="#888888"/>
<circle cx="626.0" cy="136.2" r="2" fill="#888888"/>
<circle cx="656.0" cy="142.7" r="2" fill="#888888"/>
<circle cx="686.0" cy="135.9" r="2" fill="#888888"/>
<circle cx="716.0" cy="143.0" r="2" fill="#888888"/>
<polygon points="506.0,154.6 566.0,166.1 626.0,63.8 656.0,138.4 686.0,121.6 716.0,134.6 716.0,135.7 686.0,121.9 656.0,139.5 626.0,64.3 566.0,166.6 506.0,155.9" fill="#888888" opacity="0.11"/>
<polyline points="506.0,155.6 566.0,166.5 626.0,63.9 656.0,139.4 686.0,121.6 716.0,135.2" fill="none" stroke="#888888" stroke-width="1.6"/>
<circle cx="506.0" cy="155.6" r="2" fill="#888888"/>
<circle cx="566.0" cy="166.5" r="2" fill="#888888"/>
<circle cx="626.0" cy="63.9" r="2" fill="#888888"/>
<circle cx="656.0" cy="139.4" r="2" fill="#888888"/>
<circle cx="686.0" cy="121.6" r="2" fill="#888888"/>
<circle cx="716.0" cy="135.2" r="2" fill="#888888"/>
<polygon points="506.0,155.3 566.0,164.5 626.0,68.6 656.0,149.5 686.0,131.2 716.0,135.6 716.0,136.9 686.0,132.1 656.0,150.2 626.0,70.5 566.0,166.5 506.0,156.3" fill="#888888" opacity="0.11"/>
<polyline points="506.0,156.3 566.0,165.0 626.0,69.3 656.0,149.8 686.0,131.5 716.0,136.2" fill="none" stroke="#888888" stroke-width="1.6"/>
<circle cx="506.0" cy="156.3" r="2" fill="#888888"/>
<circle cx="566.0" cy="165.0" r="2" fill="#888888"/>
<circle cx="626.0" cy="69.3" r="2" fill="#888888"/>
<circle cx="656.0" cy="149.8" r="2" fill="#888888"/>
<circle cx="686.0" cy="131.5" r="2" fill="#888888"/>
<circle cx="716.0" cy="136.2" r="2" fill="#888888"/>
<text x="611.0" y="55" text-anchor="middle" font-size="12" font-weight="bold">getrf</text>
<line x1="506.0" y1="60" x2="506.0" y2="198" stroke="#f4f4f4"/>
<text x="506.0" y="209" text-anchor="middle" font-size="8" fill="#999">8</text>
<line x1="566.0" y1="60" x2="566.0" y2="198" stroke="#f4f4f4"/>
<text x="566.0" y="209" text-anchor="middle" font-size="8" fill="#999">32</text>
<line x1="626.0" y1="60" x2="626.0" y2="198" stroke="#f4f4f4"/>
<text x="626.0" y="209" text-anchor="middle" font-size="8" fill="#999">128</text>
<line x1="656.0" y1="60" x2="656.0" y2="198" stroke="#f4f4f4"/>
<text x="656.0" y="209" text-anchor="middle" font-size="8" fill="#999">256</text>
<line x1="686.0" y1="60" x2="686.0" y2="198" stroke="#f4f4f4"/>
<text x="686.0" y="209" text-anchor="middle" font-size="8" fill="#999">512</text>
<line x1="716.0" y1="60" x2="716.0" y2="198" stroke="#f4f4f4"/>
<text x="716.0" y="209" text-anchor="middle" font-size="8" fill="#999">1k</text>
<rect x="736" y="60" width="210" height="138" fill="none" stroke="#e2e2e2"/>
<line x1="736" y1="137.18966505511685" x2="946" y2="137.18966505511685" stroke="#d33" stroke-dasharray="4 3"/>
<text x="732" y="201.0" text-anchor="end" font-size="9" fill="#999">0.5×</text>
<text x="732" y="140.18966505511685" text-anchor="end" font-size="9" fill="#999">1.0×</text>
<text x="732" y="63.0193343630149" text-anchor="end" font-size="9" fill="#999">2.41×</text>
<polygon points="736.0,74.9 796.0,117.7 856.0,122.3 886.0,110.1 916.0,110.5 946.0,106.1 946.0,108.7 916.0,111.4 886.0,117.0 856.0,122.7 796.0,119.1 736.0,75.2" fill="#888888" opacity="0.11"/>
<polyline points="736.0,75.0 796.0,118.1 856.0,122.4 886.0,116.8 916.0,110.8 946.0,106.5" fill="none" stroke="#888888" stroke-width="1.6"/>
<circle cx="736.0" cy="75.0" r="2" fill="#888888"/>
<circle cx="796.0" cy="118.1" r="2" fill="#888888"/>
<circle cx="856.0" cy="122.4" r="2" fill="#888888"/>
<circle cx="886.0" cy="116.8" r="2" fill="#888888"/>
<circle cx="916.0" cy="110.8" r="2" fill="#888888"/>
<circle cx="946.0" cy="106.5" r="2" fill="#888888"/>
<polygon points="736.0,78.7 796.0,116.9 856.0,125.7 886.0,122.0 916.0,123.1 946.0,127.6 946.0,128.3 916.0,124.2 886.0,127.2 856.0,130.4 796.0,119.6 736.0,80.3" fill="#888888" opacity="0.11"/>
<polyline points="736.0,79.3 796.0,119.3 856.0,129.7 886.0,126.9 916.0,123.9 946.0,128.1" fill="none" stroke="#888888" stroke-width="1.6"/>
<circle cx="736.0" cy="79.3" r="2" fill="#888888"/>
<circle cx="796.0" cy="119.3" r="2" fill="#888888"/>
<circle cx="856.0" cy="129.7" r="2" fill="#888888"/>
<circle cx="886.0" cy="126.9" r="2" fill="#888888"/>
<circle cx="916.0" cy="123.9" r="2" fill="#888888"/>
<circle cx="946.0" cy="128.1" r="2" fill="#888888"/>
<polygon points="736.0,66.8 796.0,108.4 856.0,130.2 886.0,122.5 916.0,112.3 946.0,93.8 946.0,116.9 916.0,115.0 886.0,123.1 856.0,130.7 796.0,119.7 736.0,78.0" fill="#888888" opacity="0.11"/>
<polyline points="736.0,77.6 796.0,117.6 856.0,130.3 886.0,123.0 916.0,114.3 946.0,111.4" fill="none" stroke="#888888" stroke-width="1.6"/>
<circle cx="736.0" cy="77.6" r="2" fill="#888888"/>
<circle cx="796.0" cy="117.6" r="2" fill="#888888"/>
<circle cx="856.0" cy="130.3" r="2" fill="#888888"/>
<circle cx="886.0" cy="123.0" r="2" fill="#888888"/>
<circle cx="916.0" cy="114.3" r="2" fill="#888888"/>
<circle cx="946.0" cy="111.4" r="2" fill="#888888"/>
<text x="841.0" y="55" text-anchor="middle" font-size="12" font-weight="bold">gesvd</text>
<line x1="736.0" y1="60" x2="736.0" y2="198" stroke="#f4f4f4"/>
<text x="736.0" y="209" text-anchor="middle" font-size="8" fill="#999">8</text>
<line x1="796.0" y1="60" x2="796.0" y2="198" stroke="#f4f4f4"/>
<text x="796.0" y="209" text-anchor="middle" font-size="8" fill="#999">32</text>
<line x1="856.0" y1="60" x2="856.0" y2="198" stroke="#f4f4f4"/>
<text x="856.0" y="209" text-anchor="middle" font-size="8" fill="#999">128</text>
<line x1="886.0" y1="60" x2="886.0" y2="198" stroke="#f4f4f4"/>
<text x="886.0" y="209" text-anchor="middle" font-size="8" fill="#999">256</text>
<line x1="916.0" y1="60" x2="916.0" y2="198" stroke="#f4f4f4"/>
<text x="916.0" y="209" text-anchor="middle" font-size="8" fill="#999">512</text>
<line x1="946.0" y1="60" x2="946.0" y2="198" stroke="#f4f4f4"/>
<text x="946.0" y="209" text-anchor="middle" font-size="8" fill="#999">1k</text>
</svg>
