<svg xmlns="http://www.w3.org/2000/svg" width="900" height="440" font-family="sans-serif">
<rect width="900" height="440" fill="white"/>
<text x="450.0" y="28" text-anchor="middle" font-size="18" font-weight="bold">BLAS-2: PureBLAS / OpenBLAS (AVX2, 1 thread, Float64)</text>
<line x1="60" y1="358.0" x2="880" y2="358.0" stroke="#eee"/>
<text x="52" y="362.0" text-anchor="end" font-size="11" fill="#666">0×</text>
<line x1="60" y1="295.2041061168345" x2="880" y2="295.2041061168345" stroke="#eee"/>
<text x="52" y="299.2041061168345" text-anchor="end" font-size="11" fill="#666">0.5×</text>
<line x1="60" y1="232.40821223366908" x2="880" y2="232.40821223366908" stroke="#eee"/>
<text x="52" y="236.40821223366908" text-anchor="end" font-size="11" fill="#666">1×</text>
<line x1="60" y1="169.61231835050364" x2="880" y2="169.61231835050364" stroke="#eee"/>
<text x="52" y="173.61231835050364" text-anchor="end" font-size="11" fill="#666">1.5×</text>
<line x1="60" y1="232.40821223366908" x2="880" y2="232.40821223366908" stroke="#888" stroke-width="1"/>
<line x1="60" y1="237.43188374432233" x2="880" y2="237.43188374432233" stroke="#d33" stroke-width="1.5" stroke-dasharray="6 4"/>
<text x="880" y="232.43188374432233" text-anchor="end" font-size="11" fill="#d33">0.96× gate</text>
<polygon points="105.9,259.9 106.0,259.1 106.2,258.3 106.4,257.6 106.7,256.8 107.0,256.0 107.4,255.3 107.9,254.5 108.5,253.7 109.3,253.0 110.1,252.2 111.1,251.4 112.2,250.7 113.4,249.9 114.7,249.1 116.1,248.4 117.6,247.6 119.2,246.8 121.0,246.1 122.9,245.3 125.0,244.5 127.2,243.8 129.6,243.0 132.1,242.2 134.6,241.5 136.9,240.7 139.0,239.9 140.8,239.1 142.2,238.4 143.1,237.6 143.7,236.8 143.8,236.1 143.7,235.3 143.4,234.5 143.0,233.8 142.5,233.0 142.0,232.2 141.5,231.5 141.0,230.7 140.6,229.9 140.1,229.2 139.6,228.4 139.2,227.6 138.7,226.9 138.2,226.1 137.7,225.3 137.1,224.6 136.3,223.8 135.4,223.0 134.3,222.3 133.1,221.5 131.6,220.7 130.1,220.0 128.3,219.2 126.6,218.4 124.8,217.7 123.0,216.9 121.2,216.1 119.5,215.4 117.9,214.6 116.4,213.8 115.0,213.1 113.7,212.3 112.4,211.5 111.3,210.8 110.2,210.0 109.3,209.2 108.5,208.4 107.8,207.7 107.2,206.9 106.7,206.1 106.4,205.4 104.7,205.4 104.4,206.1 103.9,206.9 103.3,207.7 102.6,208.4 101.8,209.2 100.9,210.0 99.8,210.8 98.7,211.5 97.4,212.3 96.1,213.1 94.7,213.8 93.2,214.6 91.6,215.4 89.9,216.1 88.1,216.9 86.3,217.7 84.5,218.4 82.8,219.2 81.1,220.0 79.5,220.7 78.0,221.5 76.8,222.3 75.7,223.0 74.8,223.8 74.0,224.6 73.4,225.3 72.9,226.1 72.4,226.9 71.9,227.6 71.5,228.4 71.0,229.2 70.6,229.9 70.1,230.7 69.6,231.5 69.1,232.2 68.6,233.0 68.1,233.8 67.7,234.5 67.4,235.3 67.3,236.1 67.4,236.8 68.0,237.6 68.9,238.4 70.3,239.1 72.1,239.9 74.2,240.7 76.5,241.5 79.0,242.2 81.5,243.0 83.9,243.8 86.1,244.5 88.2,245.3 90.1,246.1 91.9,246.8 93.5,247.6 95.0,248.4 96.4,249.1 97.7,249.9 98.9,250.7 100.0,251.4 101.0,252.2 101.8,253.0 102.6,253.7 103.2,254.5 103.7,255.3 104.1,256.0 104.4,256.8 104.7,257.6 104.9,258.3 105.1,259.1 105.2,259.9" fill="#d33" opacity="0.5" stroke="#d33" stroke-width="1"/>
<line x1="69.5" y1="231.55883722947223" x2="141.6" y2="231.55883722947223" stroke="#114" stroke-width="2"/>
<circle cx="105.55555555555556" cy="241.66228649757878" r="2.4" fill="#114"/>
<text x="105.55555555555556" y="204.8556818521653" text-anchor="middle" font-size="11">1.01</text>
<text x="105.55555555555556" y="376" text-anchor="middle" font-size="12">gemvN</text>
<polygon points="196.7,253.1 196.8,252.4 196.8,251.7 196.9,251.0 197.0,250.3 197.1,249.6 197.2,248.9 197.2,248.2 197.2,247.5 197.2,246.8 197.1,246.1 197.0,245.3 197.0,244.6 197.1,243.9 197.2,243.2 197.4,242.5 197.8,241.8 198.1,241.1 198.6,240.4 199.0,239.7 199.5,239.0 199.9,238.3 200.3,237.6 200.9,236.9 201.8,236.2 203.2,235.5 205.4,234.8 208.5,234.1 212.4,233.4 217.1,232.7 222.1,232.0 227.0,231.3 231.0,230.6 233.7,229.9 234.9,229.2 234.6,228.5 232.8,227.8 230.2,227.1 227.0,226.4 223.7,225.7 220.6,225.0 217.9,224.3 215.6,223.6 213.6,222.9 211.9,222.2 210.2,221.5 208.6,220.8 207.1,220.1 205.7,219.4 204.5,218.7 203.4,218.0 202.7,217.3 202.2,216.6 201.8,215.8 201.6,215.1 201.4,214.4 201.2,213.7 200.9,213.0 200.4,212.3 199.9,211.6 199.3,210.9 198.8,210.2 198.3,209.5 198.0,208.8 197.7,208.1 197.4,207.4 197.2,206.7 197.1,206.0 196.9,205.3 196.8,204.6 196.8,203.9 196.7,203.2 196.6,203.2 196.6,203.9 196.5,204.6 196.4,205.3 196.3,206.0 196.1,206.7 195.9,207.4 195.6,208.1 195.4,208.8 195.0,209.5 194.5,210.2 194.0,210.9 193.5,211.6 192.9,212.3 192.5,213.0 192.1,213.7 191.9,214.4 191.7,215.1 191.5,215.8 191.2,216.6 190.6,217.3 189.9,218.0 188.9,218.7 187.6,219.4 186.2,220.1 184.7,220.8 183.1,221.5 181.5,222.2 179.7,222.9 177.7,223.6 175.4,224.3 172.7,225.0 169.6,225.7 166.3,226.4 163.1,227.1 160.5,227.8 158.8,228.5 158.4,229.2 159.6,229.9 162.3,230.6 166.4,231.3 171.2,232.0 176.2,232.7 180.9,233.4 184.9,234.1 187.9,234.8 190.1,235.5 191.5,236.2 192.4,236.9 193.0,237.6 193.5,238.3 193.9,239.0 194.3,239.7 194.7,240.4 195.2,241.1 195.6,241.8 195.9,242.5 196.1,243.2 196.3,243.9 196.3,244.6 196.3,245.3 196.3,246.1 196.2,246.8 196.1,247.5 196.1,248.2 196.2,248.9 196.2,249.6 196.3,250.3 196.4,251.0 196.5,251.7 196.6,252.4 196.6,253.1" fill="#2a8" opacity="0.5" stroke="#2a8" stroke-width="1"/>
<line x1="159.3" y1="228.241025066149" x2="234.1" y2="228.241025066149" stroke="#114" stroke-width="2"/>
<circle cx="196.66666666666669" cy="230.96901259170764" r="2.4" fill="#114"/>
<text x="196.66666666666669" y="202.23613148113571" text-anchor="middle" font-size="11">1.03</text>
<text x="196.66666666666669" y="376" text-anchor="middle" font-size="12">gemvT</text>
<polygon points="288.1,251.3 288.2,250.4 288.4,249.5 288.6,248.6 289.0,247.6 289.4,246.7 290.1,245.8 290.9,244.9 292.1,244.0 293.5,243.1 295.3,242.2 297.5,241.3 300.1,240.4 303.1,239.5 306.4,238.6 309.8,237.7 313.4,236.8 316.8,235.9 319.9,235.0 322.5,234.1 324.5,233.2 325.7,232.3 326.0,231.4 325.6,230.4 324.3,229.5 322.3,228.6 319.7,227.7 316.7,226.8 313.4,225.9 310.1,225.0 306.8,224.1 303.7,223.2 301.0,222.3 298.6,221.4 296.5,220.5 294.8,219.6 293.4,218.7 292.2,217.8 291.3,216.9 290.6,216.0 290.1,215.1 289.6,214.1 289.3,213.2 289.0,212.3 288.8,211.4 288.7,210.5 288.7,209.6 288.7,208.7 288.8,207.8 289.0,206.9 289.3,206.0 289.7,205.1 290.2,204.2 290.7,203.3 291.3,202.4 292.0,201.5 292.6,200.6 293.3,199.7 293.8,198.8 294.2,197.9 294.5,196.9 294.6,196.0 294.5,195.1 294.2,194.2 293.8,193.3 293.2,192.4 292.6,191.5 291.9,190.6 291.1,189.7 290.5,188.8 289.9,187.9 289.4,187.0 286.2,187.0 285.7,187.9 285.1,188.8 284.4,189.7 283.7,190.6 283.0,191.5 282.3,192.4 281.8,193.3 281.3,194.2 281.0,195.1 280.9,196.0 281.0,196.9 281.3,197.9 281.8,198.8 282.3,199.7 282.9,200.6 283.6,201.5 284.2,202.4 284.8,203.3 285.4,204.2 285.9,205.1 286.2,206.0 286.5,206.9 286.7,207.8 286.9,208.7 286.9,209.6 286.9,210.5 286.7,211.4 286.6,212.3 286.3,213.2 285.9,214.1 285.5,215.1 284.9,216.0 284.2,216.9 283.3,217.8 282.2,218.7 280.8,219.6 279.1,220.5 277.0,221.4 274.6,222.3 271.8,223.2 268.8,224.1 265.5,225.0 262.2,225.9 258.9,226.8 255.9,227.7 253.3,228.6 251.3,229.5 250.0,230.4 249.5,231.4 249.9,232.3 251.1,233.2 253.1,234.1 255.7,235.0 258.8,235.9 262.2,236.8 265.7,237.7 269.2,238.6 272.4,239.5 275.4,240.4 278.0,241.3 280.2,242.2 282.1,243.1 283.5,244.0 284.6,244.9 285.5,245.8 286.1,246.7 286.6,247.6 286.9,248.6 287.2,249.5 287.4,250.4 287.5,251.3" fill="#2a8" opacity="0.5" stroke="#2a8" stroke-width="1"/>
<line x1="249.8" y1="230.64709437265657" x2="325.7" y2="230.64709437265657" stroke="#114" stroke-width="2"/>
<circle cx="287.77777777777777" cy="234.8490998559363" r="2.4" fill="#114"/>
<text x="287.77777777777777" y="187.41155193013054" text-anchor="middle" font-size="11">1.01</text>
<text x="287.77777777777777" y="376" text-anchor="middle" font-size="12">ger</text>
<polygon points="382.0,245.8 383.5,244.4 385.4,243.0 387.9,241.6 390.8,240.2 394.3,238.8 398.1,237.5 402.1,236.1 406.2,234.7 409.9,233.3 413.0,231.9 415.4,230.5 416.8,229.1 417.2,227.8 416.5,226.4 414.8,225.0 412.4,223.6 409.5,222.2 406.1,220.8 402.7,219.5 399.3,218.1 396.2,216.7 393.4,215.3 391.1,213.9 389.2,212.5 387.8,211.1 386.9,209.8 386.4,208.4 386.3,207.0 386.5,205.6 386.8,204.2 387.3,202.8 387.7,201.5 388.0,200.1 388.2,198.7 388.2,197.3 388.1,195.9 387.9,194.5 387.7,193.2 387.5,191.8 387.4,190.4 387.4,189.0 387.4,187.6 387.6,186.2 387.7,184.8 387.8,183.5 387.8,182.1 387.6,180.7 387.2,179.3 386.6,177.9 385.8,176.5 385.0,175.2 384.0,173.8 383.1,172.4 382.3,171.0 381.5,169.6 380.9,168.2 380.4,166.8 380.0,165.5 379.8,164.1 379.6,162.7 379.5,161.3 379.5,159.9 379.4,158.5 379.4,157.2 379.4,155.8 379.3,154.4 379.3,153.0 379.2,151.6 379.2,150.2 379.1,148.8 379.1,147.5 378.7,147.5 378.7,148.8 378.6,150.2 378.6,151.6 378.5,153.0 378.5,154.4 378.4,155.8 378.4,157.2 378.4,158.5 378.3,159.9 378.3,161.3 378.2,162.7 378.0,164.1 377.7,165.5 377.4,166.8 376.9,168.2 376.2,169.6 375.5,171.0 374.6,172.4 373.7,173.8 372.8,175.2 371.9,176.5 371.2,177.9 370.6,179.3 370.2,180.7 370.0,182.1 369.9,183.5 370.0,184.8 370.2,186.2 370.3,187.6 370.4,189.0 370.4,190.4 370.3,191.8 370.1,193.2 369.9,194.5 369.7,195.9 369.6,197.3 369.6,198.7 369.8,200.1 370.1,201.5 370.5,202.8 370.9,204.2 371.3,205.6 371.5,207.0 371.3,208.4 370.9,209.8 370.0,211.1 368.6,212.5 366.7,213.9 364.3,215.3 361.6,216.7 358.4,218.1 355.1,219.5 351.6,220.8 348.3,222.2 345.3,223.6 342.9,225.0 341.3,226.4 340.6,227.8 341.0,229.1 342.4,230.5 344.8,231.9 347.9,233.3 351.6,234.7 355.6,236.1 359.7,237.5 363.5,238.8 366.9,240.2 369.9,241.6 372.4,243.0 374.3,244.4 375.8,245.8" fill="#2a8" opacity="0.5" stroke="#2a8" stroke-width="1"/>
<line x1="341.5" y1="226.11386931499928" x2="416.2" y2="226.11386931499928" stroke="#114" stroke-width="2"/>
<circle cx="378.8888888888889" cy="231.15411510992737" r="2.4" fill="#114"/>
<text x="378.8888888888889" y="151.17808703775844" text-anchor="middle" font-size="11">1.05</text>
<text x="378.8888888888889" y="376" text-anchor="middle" font-size="12">symv</text>
<polygon points="473.8,242.9 475.1,241.6 476.7,240.3 478.5,238.9 480.7,237.6 483.3,236.3 486.0,235.0 489.1,233.7 492.2,232.4 495.4,231.1 498.4,229.8 501.3,228.5 503.8,227.2 505.8,225.8 507.3,224.5 508.1,223.2 508.3,221.9 507.8,220.6 506.7,219.3 505.1,218.0 503.2,216.7 500.9,215.4 498.4,214.1 495.8,212.7 493.3,211.4 490.9,210.1 488.7,208.8 486.7,207.5 485.0,206.2 483.6,204.9 482.5,203.6 481.6,202.3 480.9,201.0 480.5,199.6 480.2,198.3 480.1,197.0 480.0,195.7 479.9,194.4 479.8,193.1 479.7,191.8 479.4,190.5 479.1,189.2 478.6,187.9 478.1,186.5 477.5,185.2 477.0,183.9 476.4,182.6 475.9,181.3 475.5,180.0 475.2,178.7 475.0,177.4 475.0,176.1 475.2,174.8 475.5,173.5 476.0,172.1 476.5,170.8 477.1,169.5 477.7,168.2 478.2,166.9 478.6,165.6 478.9,164.3 479.0,163.0 479.0,161.7 478.7,160.4 478.3,159.0 477.7,157.7 477.0,156.4 476.3,155.1 475.5,153.8 474.7,152.5 473.9,151.2 473.2,149.9 466.8,149.9 466.1,151.2 465.3,152.5 464.5,153.8 463.7,155.1 463.0,156.4 462.3,157.7 461.7,159.0 461.3,160.4 461.0,161.7 461.0,163.0 461.1,164.3 461.4,165.6 461.8,166.9 462.3,168.2 462.9,169.5 463.5,170.8 464.0,172.1 464.5,173.5 464.8,174.8 465.0,176.1 465.0,177.4 464.8,178.7 464.5,180.0 464.1,181.3 463.6,182.6 463.0,183.9 462.5,185.2 461.9,186.5 461.4,187.9 460.9,189.2 460.6,190.5 460.3,191.8 460.2,193.1 460.1,194.4 460.0,195.7 459.9,197.0 459.8,198.3 459.5,199.6 459.1,201.0 458.4,202.3 457.5,203.6 456.4,204.9 455.0,206.2 453.3,207.5 451.3,208.8 449.1,210.1 446.7,211.4 444.2,212.7 441.6,214.1 439.1,215.4 436.8,216.7 434.9,218.0 433.3,219.3 432.2,220.6 431.7,221.9 431.9,223.2 432.7,224.5 434.2,225.8 436.2,227.2 438.7,228.5 441.6,229.8 444.6,231.1 447.8,232.4 450.9,233.7 454.0,235.0 456.7,236.3 459.3,237.6 461.5,238.9 463.3,240.3 464.9,241.6 466.2,242.9" fill="#2a8" opacity="0.5" stroke="#2a8" stroke-width="1"/>
<line x1="432.0" y1="221.00047061415944" x2="508.0" y2="221.00047061415944" stroke="#114" stroke-width="2"/>
<circle cx="470.0" cy="223.89323586059248" r="2.4" fill="#114"/>
<text x="470.0" y="153.0751399708452" text-anchor="middle" font-size="11">1.09</text>
<text x="470.0" y="376" text-anchor="middle" font-size="12">trmv</text>
<polygon points="565.3,243.0 567.1,241.1 569.5,239.2 572.5,237.3 576.0,235.4 580.0,233.5 584.2,231.6 588.4,229.7 592.3,227.8 595.6,225.9 597.9,224.0 599.2,222.1 599.4,220.2 598.4,218.3 596.4,216.4 593.8,214.5 590.7,212.6 587.6,210.7 584.6,208.8 582.0,207.0 579.8,205.1 578.1,203.2 576.7,201.3 575.7,199.4 575.0,197.5 574.4,195.6 574.0,193.7 573.6,191.8 573.4,189.9 573.4,188.0 573.4,186.1 573.5,184.2 573.6,182.3 573.7,180.4 573.7,178.5 573.7,176.6 573.6,174.7 573.4,172.8 573.3,170.9 573.1,169.1 573.0,167.2 572.9,165.3 572.7,163.4 572.4,161.5 572.0,159.6 571.4,157.7 570.6,155.8 569.6,153.9 568.5,152.0 567.3,150.1 566.2,148.2 565.1,146.3 564.1,144.4 563.4,142.5 562.7,140.6 562.3,138.7 561.9,136.8 561.7,134.9 561.6,133.1 561.6,131.2 561.6,129.3 561.6,127.4 561.6,125.5 561.6,123.6 561.6,121.7 561.6,119.8 561.6,117.9 561.5,116.0 561.5,114.1 561.4,112.2 561.4,110.3 561.3,108.4 560.9,108.4 560.9,110.3 560.8,112.2 560.7,114.1 560.7,116.0 560.6,117.9 560.6,119.8 560.6,121.7 560.6,123.6 560.6,125.5 560.6,127.4 560.7,129.3 560.7,131.2 560.6,133.1 560.5,134.9 560.3,136.8 560.0,138.7 559.5,140.6 558.9,142.5 558.1,144.4 557.1,146.3 556.0,148.2 554.9,150.1 553.7,152.0 552.6,153.9 551.6,155.8 550.8,157.7 550.2,159.6 549.8,161.5 549.5,163.4 549.4,165.3 549.2,167.2 549.1,169.1 548.9,170.9 548.8,172.8 548.6,174.7 548.5,176.6 548.5,178.5 548.5,180.4 548.6,182.3 548.7,184.2 548.8,186.1 548.9,188.0 548.8,189.9 548.6,191.8 548.3,193.7 547.8,195.6 547.2,197.5 546.5,199.4 545.5,201.3 544.2,203.2 542.4,205.1 540.2,207.0 537.6,208.8 534.6,210.7 531.5,212.6 528.4,214.5 525.8,216.4 523.8,218.3 522.8,220.2 523.0,222.1 524.3,224.0 526.7,225.9 529.9,227.8 533.8,229.7 538.0,231.6 542.2,233.5 546.2,235.4 549.7,237.3 552.7,239.2 555.1,241.1 557.0,243.0" fill="#2a8" opacity="0.5" stroke="#2a8" stroke-width="1"/>
<line x1="525.6" y1="216.58336288733042" x2="596.6" y2="216.58336288733042" stroke="#114" stroke-width="2"/>
<circle cx="561.1111111111111" cy="222.93461524533208" r="2.4" fill="#114"/>
<text x="561.1111111111111" y="115.63950019563829" text-anchor="middle" font-size="11">1.13</text>
<text x="561.1111111111111" y="376" text-anchor="middle" font-size="12">trsv</text>
<polygon points="666.2,253.4 668.8,250.5 671.5,247.6 674.3,244.8 677.0,241.9 679.7,239.1 682.3,236.2 684.5,233.3 686.5,230.5 688.1,227.6 689.3,224.7 690.1,221.9 690.5,219.0 690.5,216.1 690.1,213.3 689.3,210.4 688.3,207.5 686.9,204.7 685.4,201.8 683.7,198.9 681.9,196.1 680.0,193.2 678.1,190.4 676.1,187.5 674.2,184.6 672.4,181.8 670.6,178.9 669.0,176.0 667.5,173.2 666.3,170.3 665.3,167.4 664.5,164.6 663.9,161.7 663.6,158.8 663.4,156.0 663.3,153.1 663.4,150.3 663.5,147.4 663.6,144.5 663.7,141.7 663.7,138.8 663.7,135.9 663.5,133.1 663.2,130.2 662.9,127.3 662.5,124.5 662.0,121.6 661.6,118.7 661.3,115.9 661.0,113.0 660.8,110.2 660.7,107.3 660.8,104.4 660.9,101.6 661.1,98.7 661.3,95.8 661.5,93.0 661.7,90.1 661.9,87.2 661.9,84.4 661.8,81.5 661.7,78.6 661.3,75.8 660.9,72.9 660.4,70.1 659.7,67.2 659.0,64.3 658.3,61.5 657.5,58.6 656.8,55.7 656.1,52.9 655.4,50.0 649.0,50.0 648.4,52.9 647.6,55.7 646.9,58.6 646.2,61.5 645.4,64.3 644.7,67.2 644.1,70.1 643.5,72.9 643.1,75.8 642.8,78.6 642.6,81.5 642.5,84.4 642.6,87.2 642.7,90.1 642.9,93.0 643.1,95.8 643.4,98.7 643.6,101.6 643.7,104.4 643.7,107.3 643.6,110.2 643.4,113.0 643.2,115.9 642.8,118.7 642.4,121.6 642.0,124.5 641.6,127.3 641.2,130.2 641.0,133.1 640.8,135.9 640.7,138.8 640.7,141.7 640.8,144.5 640.9,147.4 641.0,150.3 641.1,153.1 641.1,156.0 640.9,158.8 640.5,161.7 640.0,164.6 639.2,167.4 638.1,170.3 636.9,173.2 635.5,176.0 633.8,178.9 632.1,181.8 630.2,184.6 628.3,187.5 626.4,190.4 624.4,193.2 622.5,196.1 620.7,198.9 619.0,201.8 617.5,204.7 616.2,207.5 615.1,210.4 614.4,213.3 614.0,216.1 614.0,219.0 614.3,221.9 615.1,224.7 616.3,227.6 617.9,230.5 619.9,233.3 622.2,236.2 624.7,239.1 627.4,241.9 630.2,244.8 632.9,247.6 635.6,250.5 638.2,253.4" fill="#2a8" opacity="0.5" stroke="#2a8" stroke-width="1"/>
<line x1="617.8" y1="204.02105423909484" x2="686.6" y2="204.02105423909484" stroke="#114" stroke-width="2"/>
<circle cx="652.2222222222223" cy="231.884568731878" r="2.4" fill="#114"/>
<text x="652.2222222222223" y="61.433962264150935" text-anchor="middle" font-size="11">1.23</text>
<text x="652.2222222222223" y="376" text-anchor="middle" font-size="12">spmv</text>
<polygon points="743.5,237.1 743.5,236.6 743.6,236.1 743.8,235.6 743.9,235.1 744.1,234.6 744.3,234.1 744.5,233.5 744.7,233.0 745.0,232.5 745.3,232.0 745.7,231.5 746.3,231.0 747.0,230.5 747.9,230.0 749.2,229.5 750.8,229.0 752.8,228.4 755.3,227.9 758.2,227.4 761.5,226.9 765.1,226.4 768.8,225.9 772.5,225.4 775.8,224.9 778.5,224.4 780.5,223.9 781.5,223.4 781.6,222.8 780.8,222.3 779.1,221.8 777.0,221.3 774.5,220.8 771.9,220.3 769.4,219.8 766.9,219.3 764.5,218.8 762.1,218.3 759.8,217.7 757.7,217.2 755.8,216.7 754.3,216.2 753.3,215.7 752.8,215.2 752.7,214.7 752.8,214.2 753.0,213.7 753.2,213.2 753.2,212.7 752.9,212.1 752.4,211.6 751.6,211.1 750.7,210.6 749.6,210.1 748.5,209.6 747.6,209.1 746.7,208.6 746.0,208.1 745.5,207.6 745.1,207.0 744.8,206.5 744.7,206.0 744.5,205.5 744.4,205.0 744.3,204.5 744.1,204.0 744.0,203.5 743.8,203.0 743.7,202.5 743.6,202.0 743.5,201.4 743.4,200.9 743.2,200.9 743.2,201.4 743.1,202.0 743.0,202.5 742.8,203.0 742.7,203.5 742.5,204.0 742.4,204.5 742.3,205.0 742.1,205.5 742.0,206.0 741.8,206.5 741.6,207.0 741.2,207.6 740.7,208.1 740.0,208.6 739.1,209.1 738.1,209.6 737.1,210.1 736.0,210.6 735.1,211.1 734.3,211.6 733.8,212.1 733.5,212.7 733.5,213.2 733.7,213.7 733.9,214.2 734.0,214.7 733.9,215.2 733.3,215.7 732.3,216.2 730.8,216.7 729.0,217.2 726.8,217.7 724.5,218.3 722.2,218.8 719.7,219.3 717.3,219.8 714.7,220.3 712.2,220.8 709.7,221.3 707.5,221.8 705.9,222.3 705.1,222.8 705.1,223.4 706.2,223.9 708.2,224.4 710.9,224.9 714.2,225.4 717.8,225.9 721.6,226.4 725.2,226.9 728.5,227.4 731.4,227.9 733.9,228.4 735.9,229.0 737.5,229.5 738.7,230.0 739.7,230.5 740.4,231.0 740.9,231.5 741.3,232.0 741.7,232.5 741.9,233.0 742.2,233.5 742.4,234.1 742.6,234.6 742.8,235.1 742.9,235.6 743.0,236.1 743.1,236.6 743.2,237.1" fill="#2a8" opacity="0.5" stroke="#2a8" stroke-width="1"/>
<line x1="706.1" y1="222.2425585473164" x2="780.5" y2="222.2425585473164" stroke="#114" stroke-width="2"/>
<circle cx="743.3333333333334" cy="225.24001853544766" r="2.4" fill="#114"/>
<text x="743.3333333333334" y="198.6364368225352" text-anchor="middle" font-size="11">1.08</text>
<text x="743.3333333333334" y="376" text-anchor="middle" font-size="12">gbmvN</text>
<polygon points="834.5,184.2 834.5,182.9 834.6,181.7 834.7,180.4 834.8,179.2 834.8,178.0 834.9,176.7 835.0,175.5 835.0,174.2 834.9,173.0 834.9,171.8 834.9,170.5 834.9,169.3 835.0,168.0 835.0,166.8 835.1,165.6 835.2,164.3 835.5,163.1 836.1,161.8 837.3,160.6 839.3,159.4 842.5,158.1 846.9,156.9 852.3,155.6 858.4,154.4 864.2,153.2 869.1,151.9 872.0,150.7 872.7,149.4 871.1,148.2 867.8,147.0 863.6,145.7 859.2,144.5 855.4,143.2 852.3,142.0 850.1,140.8 848.5,139.5 847.2,138.3 846.0,137.0 844.8,135.8 843.7,134.6 842.6,133.3 841.9,132.1 841.6,130.8 841.5,129.6 841.7,128.4 841.9,127.1 841.9,125.9 841.5,124.6 840.8,123.4 839.8,122.2 838.6,120.9 837.6,119.7 836.6,118.4 835.9,117.2 835.5,116.0 835.2,114.7 835.1,113.5 835.1,112.2 835.1,111.0 835.1,109.8 835.2,108.5 835.1,107.3 835.1,106.0 835.1,104.8 835.0,103.6 834.9,102.3 834.8,101.1 834.7,99.8 834.6,98.6 834.5,97.4 834.5,96.1 834.4,96.1 834.4,97.4 834.3,98.6 834.2,99.8 834.1,101.1 834.0,102.3 833.9,103.6 833.8,104.8 833.8,106.0 833.7,107.3 833.7,108.5 833.7,109.8 833.8,111.0 833.8,112.2 833.8,113.5 833.7,114.7 833.4,116.0 833.0,117.2 832.3,118.4 831.3,119.7 830.2,120.9 829.1,122.2 828.1,123.4 827.4,124.6 827.0,125.9 827.0,127.1 827.2,128.4 827.4,129.6 827.3,130.8 827.0,132.1 826.2,133.3 825.2,134.6 824.0,135.8 822.9,137.0 821.7,138.3 820.4,139.5 818.8,140.8 816.6,142.0 813.5,143.2 809.7,144.5 805.3,145.7 801.0,147.0 797.7,148.2 796.2,149.4 796.8,150.7 799.8,151.9 804.6,153.2 810.5,154.4 816.6,155.6 822.0,156.9 826.4,158.1 829.6,159.4 831.6,160.6 832.8,161.8 833.4,163.1 833.7,164.3 833.8,165.6 833.9,166.8 833.9,168.0 834.0,169.3 834.0,170.5 834.0,171.8 833.9,173.0 833.9,174.2 833.9,175.5 834.0,176.7 834.0,178.0 834.1,179.2 834.2,180.4 834.3,181.7 834.4,182.9 834.4,184.2" fill="#2a8" opacity="0.5" stroke="#2a8" stroke-width="1"/>
<line x1="797.5" y1="148.31007055033314" x2="871.4" y2="148.31007055033314" stroke="#114" stroke-width="2"/>
<circle cx="834.4444444444445" cy="151.58830644432064" r="2.4" fill="#114"/>
<text x="834.4444444444445" y="98.8499069300702" text-anchor="middle" font-size="11">1.67</text>
<text x="834.4444444444445" y="376" text-anchor="middle" font-size="12">sbmv</text>
<text x="450.0" y="428" text-anchor="middle" font-size="11" fill="#666">violin = ratio distribution over sizes · line = median · dark dot = worst size · green = every size ≥ gate</text>
</svg>
