<svg xmlns="http://www.w3.org/2000/svg" width="900" height="460" font-family="sans-serif">
<rect width="900" height="460" fill="white"/>
<text x="450.0" y="28" text-anchor="middle" font-size="18" font-weight="bold">Complex LAPACK: PureBLAS / OpenBLAS (AVX2, 1 thread, ComplexF64)</text>
<line x1="62" y1="400.0" x2="768" y2="400.0" stroke="#eee"/>
<text x="54" y="404.0" text-anchor="end" font-size="11" fill="#666">0.5×</text>
<line x1="62" y1="323.58869337642653" x2="768" y2="323.58869337642653" stroke="#eee"/>
<text x="54" y="327.58869337642653" text-anchor="end" font-size="11" fill="#666">0.7×</text>
<line x1="62" y1="242.58944428554295" x2="768" y2="242.58944428554295" stroke="#eee"/>
<text x="54" y="246.58944428554295" text-anchor="end" font-size="11" fill="#666">1.0×</text>
<line x1="62" y1="150.51017197490728" x2="768" y2="150.51017197490728" stroke="#eee"/>
<text x="54" y="154.51017197490728" text-anchor="end" font-size="11" fill="#666">1.5×</text>
<line x1="62" y1="85.17888857108589" x2="768" y2="85.17888857108589" stroke="#eee"/>
<text x="54" y="89.17888857108589" text-anchor="end" font-size="11" fill="#666">2.0×</text>
<line x1="62.0" y1="50" x2="62.0" y2="400" stroke="#f4f4f4"/>
<text x="62.0" y="418" text-anchor="middle" font-size="11" fill="#444">8</text>
<line x1="238.5" y1="50" x2="238.5" y2="400" stroke="#f4f4f4"/>
<text x="238.5" y="418" text-anchor="middle" font-size="11" fill="#444">32</text>
<line x1="415.0" y1="50" x2="415.0" y2="400" stroke="#f4f4f4"/>
<text x="415.0" y="418" text-anchor="middle" font-size="11" fill="#444">128</text>
<line x1="503.25" y1="50" x2="503.25" y2="400" stroke="#f4f4f4"/>
<text x="503.25" y="418" text-anchor="middle" font-size="11" fill="#444">256</text>
<line x1="591.5" y1="50" x2="591.5" y2="400" stroke="#f4f4f4"/>
<text x="591.5" y="418" text-anchor="middle" font-size="11" fill="#444">512</text>
<line x1="679.75" y1="50" x2="679.75" y2="400" stroke="#f4f4f4"/>
<text x="679.75" y="418" text-anchor="middle" font-size="11" fill="#444">1024</text>
<line x1="768.0" y1="50" x2="768.0" y2="400" stroke="#f4f4f4"/>
<text x="768.0" y="418" text-anchor="middle" font-size="11" fill="#444">2048</text>
<line x1="62" y1="242.58944428554295" x2="768" y2="242.58944428554295" stroke="#888"/>
<line x1="62" y1="251.8599326075396" x2="768" y2="251.8599326075396" stroke="#d33" stroke-width="1.5" stroke-dasharray="6 4"/>
<text x="66" y="246.8599326075396" font-size="11" fill="#d33">0.96× gate</text>
<polygon points="62.0,81.2 238.5,223.2 415.0,240.6 503.2,239.9 591.5,259.1 679.8,260.1 768.0,288.4 768.0,288.9 679.8,261.7 591.5,259.2 503.2,240.1 415.0,241.2 238.5,225.6 62.0,85.2" fill="#1f77b4" opacity="0.14" stroke="none"/>
<polyline points="62.0,81.7 238.5,225.0 415.0,240.9 503.2,240.0 591.5,259.1 679.8,260.7 768.0,288.9" fill="none" stroke="#1f77b4" stroke-width="2"/>
<circle cx="62.0" cy="81.7" r="3" fill="#1f77b4"/>
<circle cx="238.5" cy="225.0" r="3" fill="#1f77b4"/>
<circle cx="415.0" cy="240.9" r="3" fill="#1f77b4"/>
<circle cx="503.2" cy="240.0" r="3" fill="#1f77b4"/>
<circle cx="591.5" cy="259.1" r="3" fill="#1f77b4"/>
<circle cx="679.8" cy="260.7" r="3" fill="#1f77b4"/>
<circle cx="768.0" cy="288.9" r="3" fill="#1f77b4"/>
<line x1="782" y1="56" x2="802" y2="56" stroke="#1f77b4" stroke-width="3"/>
<text x="806" y="60" font-size="12">zpotrf</text>
<polygon points="62.0,221.2 238.5,343.5 415.0,357.1 503.2,323.7 591.5,305.6 679.8,308.6 768.0,310.9 768.0,311.3 679.8,309.7 591.5,307.6 503.2,324.2 415.0,360.1 238.5,344.5 62.0,224.7" fill="#d62728" opacity="0.14" stroke="none"/>
<polyline points="62.0,223.0 238.5,344.1 415.0,358.5 503.2,323.9 591.5,306.9 679.8,308.8 768.0,311.1" fill="none" stroke="#d62728" stroke-width="2"/>
<circle cx="62.0" cy="223.0" r="3" fill="#d62728"/>
<circle cx="238.5" cy="344.1" r="3" fill="#d62728"/>
<circle cx="415.0" cy="358.5" r="3" fill="#d62728"/>
<circle cx="503.2" cy="323.9" r="3" fill="#d62728"/>
<circle cx="591.5" cy="306.9" r="3" fill="#d62728"/>
<circle cx="679.8" cy="308.8" r="3" fill="#d62728"/>
<circle cx="768.0" cy="311.1" r="3" fill="#d62728"/>
<line x1="782" y1="74" x2="802" y2="74" stroke="#d62728" stroke-width="3"/>
<text x="806" y="78" font-size="12">zgeqrf</text>
<polygon points="62.0,185.0 238.5,232.4 415.0,295.8 503.2,297.3 591.5,274.9 679.8,290.2 768.0,296.6 768.0,297.3 679.8,292.1 591.5,275.3 503.2,297.8 415.0,296.1 238.5,232.7 62.0,185.1" fill="#2ca02c" opacity="0.14" stroke="none"/>
<polyline points="62.0,185.1 238.5,232.6 415.0,296.0 503.2,297.5 591.5,275.2 679.8,291.3 768.0,297.1" fill="none" stroke="#2ca02c" stroke-width="2"/>
<circle cx="62.0" cy="185.1" r="3" fill="#2ca02c"/>
<circle cx="238.5" cy="232.6" r="3" fill="#2ca02c"/>
<circle cx="415.0" cy="296.0" r="3" fill="#2ca02c"/>
<circle cx="503.2" cy="297.5" r="3" fill="#2ca02c"/>
<circle cx="591.5" cy="275.2" r="3" fill="#2ca02c"/>
<circle cx="679.8" cy="291.3" r="3" fill="#2ca02c"/>
<circle cx="768.0" cy="297.1" r="3" fill="#2ca02c"/>
<line x1="782" y1="92" x2="802" y2="92" stroke="#2ca02c" stroke-width="3"/>
<text x="806" y="96" font-size="12">zgetrf</text>
<polygon points="62.0,119.9 238.5,254.4 415.0,400.0 503.2,400.0 591.5,400.0 679.8,400.0 768.0,400.0 768.0,400.0 679.8,400.0 591.5,400.0 503.2,400.0 415.0,400.0 238.5,259.5 62.0,120.9" fill="#9467bd" opacity="0.14" stroke="none"/>
<polyline points="62.0,120.7 238.5,259.3 415.0,400.0 503.2,400.0 591.5,400.0 679.8,400.0 768.0,400.0" fill="none" stroke="#9467bd" stroke-width="2"/>
<circle cx="62.0" cy="120.7" r="3" fill="#9467bd"/>
<circle cx="238.5" cy="259.3" r="3" fill="#9467bd"/>
<circle cx="415.0" cy="400.0" r="3" fill="#9467bd"/>
<circle cx="503.2" cy="400.0" r="3" fill="#9467bd"/>
<circle cx="591.5" cy="400.0" r="3" fill="#9467bd"/>
<circle cx="679.8" cy="400.0" r="3" fill="#9467bd"/>
<circle cx="768.0" cy="400.0" r="3" fill="#9467bd"/>
<line x1="782" y1="110" x2="802" y2="110" stroke="#9467bd" stroke-width="3"/>
<text x="806" y="114" font-size="12">zgesvd</text>
<text x="415.0" y="450" text-anchor="middle" font-size="11" fill="#666">matrix size n (log) · y = median ratio (log) · dashed = the 0.96× gate</text>
</svg>
