<svg xmlns="http://www.w3.org/2000/svg" width="900" height="440" font-family="sans-serif">
<rect width="900" height="440" fill="white"/>
<text x="450.0" y="28" text-anchor="middle" font-size="18" font-weight="bold">BLAS-1: PureBLAS / OpenBLAS (AVX2, 1 thread, Float64)</text>
<line x1="60" y1="358.0" x2="880" y2="358.0" stroke="#eee"/>
<text x="52" y="362.0" text-anchor="end" font-size="11" fill="#666">0×</text>
<line x1="60" y1="340.1596584425634" x2="880" y2="340.1596584425634" stroke="#eee"/>
<text x="52" y="344.1596584425634" text-anchor="end" font-size="11" fill="#666">0.5×</text>
<line x1="60" y1="322.3193168851268" x2="880" y2="322.3193168851268" stroke="#eee"/>
<text x="52" y="326.3193168851268" text-anchor="end" font-size="11" fill="#666">1×</text>
<line x1="60" y1="304.47897532769025" x2="880" y2="304.47897532769025" stroke="#eee"/>
<text x="52" y="308.47897532769025" text-anchor="end" font-size="11" fill="#666">1.5×</text>
<line x1="60" y1="322.3193168851268" x2="880" y2="322.3193168851268" stroke="#888" stroke-width="1"/>
<line x1="60" y1="323.7465442097218" x2="880" y2="323.7465442097218" stroke="#d33" stroke-width="1.5" stroke-dasharray="6 4"/>
<text x="880" y="318.7465442097218" text-anchor="end" font-size="11" fill="#d33">0.96× gate</text>
<polygon points="128.3,334.9 128.4,334.5 128.4,334.1 128.5,333.7 128.6,333.3 128.8,332.9 128.9,332.5 128.9,332.1 128.9,331.7 128.8,331.3 128.6,330.9 128.5,330.5 128.4,330.1 128.4,329.8 128.3,329.4 128.3,329.0 128.3,328.6 128.3,328.2 128.3,327.8 128.3,327.4 128.3,327.0 128.3,326.6 128.4,326.2 128.4,325.8 128.7,325.4 129.4,325.0 131.3,324.6 135.2,324.2 142.2,323.8 152.8,323.4 165.6,323.0 177.5,322.6 184.9,322.2 185.7,321.9 180.8,321.5 172.7,321.1 163.7,320.7 155.3,320.3 147.8,319.9 141.6,319.5 137.1,319.1 134.2,318.7 132.8,318.3 132.1,317.9 131.7,317.5 131.4,317.1 131.1,316.7 130.8,316.3 130.5,315.9 130.3,315.5 130.0,315.1 129.7,314.7 129.5,314.3 129.2,314.0 129.0,313.6 128.9,313.2 128.8,312.8 128.9,312.4 129.1,312.0 129.2,311.6 129.4,311.2 129.5,310.8 129.6,310.4 129.6,310.0 129.5,309.6 129.2,309.2 129.0,308.8 128.7,308.4 128.5,308.0 128.4,307.6 128.4,307.2 128.3,306.8 128.3,306.8 128.3,307.2 128.3,307.6 128.2,308.0 128.0,308.4 127.7,308.8 127.4,309.2 127.2,309.6 127.1,310.0 127.1,310.4 127.2,310.8 127.3,311.2 127.4,311.6 127.6,312.0 127.8,312.4 127.8,312.8 127.8,313.2 127.7,313.6 127.5,314.0 127.2,314.3 126.9,314.7 126.7,315.1 126.4,315.5 126.1,315.9 125.8,316.3 125.5,316.7 125.2,317.1 124.9,317.5 124.6,317.9 123.9,318.3 122.4,318.7 119.6,319.1 115.0,319.5 108.9,319.9 101.4,320.3 92.9,320.7 84.0,321.1 75.9,321.5 70.9,321.9 71.8,322.2 79.1,322.6 91.1,323.0 103.9,323.4 114.5,323.8 121.5,324.2 125.4,324.6 127.2,325.0 128.0,325.4 128.2,325.8 128.3,326.2 128.3,326.6 128.3,327.0 128.3,327.4 128.3,327.8 128.3,328.2 128.3,328.6 128.3,329.0 128.3,329.4 128.3,329.8 128.3,330.1 128.2,330.5 128.1,330.9 127.9,331.3 127.8,331.7 127.7,332.1 127.8,332.5 127.9,332.9 128.1,333.3 128.2,333.7 128.3,334.1 128.3,334.5 128.3,334.9" fill="#2a8" opacity="0.5" stroke="#2a8" stroke-width="1"/>
<line x1="70.5" y1="322.0444133329591" x2="186.2" y2="322.0444133329591" stroke="#114" stroke-width="2"/>
<circle cx="128.33333333333331" cy="322.2352153693133" r="2.4" fill="#114"/>
<text x="128.33333333333331" y="303.61239785488004" text-anchor="middle" font-size="11">1.01</text>
<text x="128.33333333333331" y="376" text-anchor="middle" font-size="12">axpy</text>
<polygon points="266.7,324.4 268.1,324.2 270.2,324.0 273.3,323.8 277.6,323.6 283.1,323.5 289.8,323.3 297.3,323.1 305.0,322.9 312.0,322.7 317.7,322.6 321.3,322.4 322.4,322.2 320.9,322.0 317.2,321.8 311.8,321.7 305.5,321.5 299.0,321.3 292.7,321.1 287.1,320.9 282.4,320.8 278.6,320.6 275.6,320.4 273.3,320.2 271.7,320.0 270.4,319.9 269.6,319.7 269.0,319.5 268.6,319.3 268.2,319.1 268.0,319.0 267.7,318.8 267.5,318.6 267.3,318.4 267.1,318.2 267.0,318.1 266.8,317.9 266.7,317.7 266.7,317.5 266.6,317.3 266.5,317.2 266.5,317.0 266.4,316.8 266.3,316.6 266.3,316.4 266.3,316.3 266.2,316.1 266.2,315.9 266.2,315.7 266.2,315.5 266.3,315.4 266.3,315.2 266.3,315.0 266.3,314.8 266.2,314.6 266.2,314.5 266.2,314.3 266.3,314.1 266.3,313.9 266.4,313.7 266.5,313.6 266.6,313.4 266.6,313.2 266.6,313.0 266.5,312.8 266.3,312.7 266.1,312.5 265.9,312.3 265.6,312.1 265.5,311.9 265.3,311.8 265.2,311.6 264.8,311.6 264.7,311.8 264.5,311.9 264.4,312.1 264.1,312.3 263.9,312.5 263.7,312.7 263.5,312.8 263.4,313.0 263.4,313.2 263.4,313.4 263.5,313.6 263.6,313.7 263.7,313.9 263.7,314.1 263.8,314.3 263.8,314.5 263.8,314.6 263.7,314.8 263.7,315.0 263.7,315.2 263.7,315.4 263.8,315.5 263.8,315.7 263.8,315.9 263.8,316.1 263.7,316.3 263.7,316.4 263.7,316.6 263.6,316.8 263.5,317.0 263.5,317.2 263.4,317.3 263.3,317.5 263.3,317.7 263.2,317.9 263.0,318.1 262.9,318.2 262.7,318.4 262.5,318.6 262.3,318.8 262.0,319.0 261.8,319.1 261.4,319.3 261.0,319.5 260.4,319.7 259.6,319.9 258.3,320.0 256.7,320.2 254.4,320.4 251.4,320.6 247.6,320.8 242.9,320.9 237.3,321.1 231.0,321.3 224.5,321.5 218.2,321.7 212.8,321.8 209.1,322.0 207.6,322.2 208.7,322.4 212.3,322.6 218.0,322.7 225.0,322.9 232.7,323.1 240.2,323.3 246.9,323.5 252.4,323.6 256.7,323.8 259.8,324.0 261.9,324.2 263.3,324.4" fill="#2a8" opacity="0.5" stroke="#2a8" stroke-width="1"/>
<line x1="207.6" y1="322.19096899752986" x2="322.4" y2="322.19096899752986" stroke="#114" stroke-width="2"/>
<circle cx="265.0" cy="322.53258156249524" r="2.4" fill="#114"/>
<text x="265.0" y="306.8751325360587" text-anchor="middle" font-size="11">1.00</text>
<text x="265.0" y="376" text-anchor="middle" font-size="12">dot</text>
<polygon points="403.1,220.1 403.5,217.7 404.0,215.3 404.5,213.0 405.2,210.6 405.9,208.2 406.7,205.8 407.6,203.4 408.6,201.1 409.7,198.7 410.9,196.3 412.1,193.9 413.5,191.5 414.9,189.1 416.4,186.8 417.9,184.4 419.5,182.0 421.1,179.6 422.7,177.2 424.2,174.9 425.6,172.5 426.9,170.1 428.0,167.7 428.9,165.3 429.6,162.9 430.1,160.6 430.2,158.2 430.2,155.8 429.9,153.4 429.4,151.0 428.6,148.7 427.7,146.3 426.7,143.9 425.5,141.5 424.2,139.1 422.8,136.8 421.5,134.4 420.1,132.0 418.7,129.6 417.5,127.2 416.5,124.8 415.7,122.5 415.2,120.1 415.2,117.7 415.6,115.3 416.6,112.9 418.1,110.6 420.3,108.2 423.0,105.8 426.4,103.4 430.2,101.0 434.4,98.6 438.7,96.3 443.1,93.9 447.4,91.5 451.2,89.1 454.5,86.7 457.0,84.4 458.5,82.0 459.1,79.6 458.5,77.2 457.0,74.8 454.4,72.4 451.0,70.1 447.0,67.7 442.4,65.3 437.7,62.9 432.8,60.5 428.1,58.2 423.7,55.8 419.6,53.4 416.0,51.0 387.3,51.0 383.7,53.4 379.7,55.8 375.2,58.2 370.5,60.5 365.7,62.9 360.9,65.3 356.4,67.7 352.3,70.1 348.9,72.4 346.4,74.8 344.8,77.2 344.3,79.6 344.8,82.0 346.4,84.4 348.8,86.7 352.1,89.1 355.9,91.5 360.2,93.9 364.6,96.3 369.0,98.6 373.2,101.0 377.0,103.4 380.3,105.8 383.1,108.2 385.2,110.6 386.8,112.9 387.7,115.3 388.2,117.7 388.1,120.1 387.6,122.5 386.9,124.8 385.8,127.2 384.6,129.6 383.3,132.0 381.9,134.4 380.5,136.8 379.1,139.1 377.9,141.5 376.7,143.9 375.6,146.3 374.7,148.7 374.0,151.0 373.5,153.4 373.1,155.8 373.1,158.2 373.3,160.6 373.7,162.9 374.4,165.3 375.3,167.7 376.4,170.1 377.7,172.5 379.1,174.9 380.7,177.2 382.2,179.6 383.8,182.0 385.4,184.4 387.0,186.8 388.4,189.1 389.9,191.5 391.2,193.9 392.5,196.3 393.6,198.7 394.7,201.1 395.7,203.4 396.6,205.8 397.4,208.2 398.2,210.6 398.8,213.0 399.3,215.3 399.8,217.7 400.2,220.1" fill="#2a8" opacity="0.5" stroke="#2a8" stroke-width="1"/>
<line x1="351.7" y1="88.87708809084535" x2="451.6" y2="88.87708809084535" stroke="#114" stroke-width="2"/>
<circle cx="401.66666666666663" cy="164.32324792958605" r="2.4" fill="#114"/>
<text x="401.66666666666663" y="61.43396226415098" text-anchor="middle" font-size="11">7.54</text>
<text x="401.66666666666663" y="376" text-anchor="middle" font-size="12">nrm2</text>
<polygon points="539.0,323.4 539.2,322.8 539.4,322.3 539.7,321.8 540.0,321.2 540.5,320.7 541.2,320.2 542.0,319.6 543.2,319.1 544.6,318.6 546.5,318.0 548.9,317.5 551.8,316.9 555.2,316.4 559.1,315.9 563.4,315.3 568.1,314.8 572.9,314.3 577.8,313.7 582.4,313.2 586.6,312.7 590.2,312.1 592.9,311.6 594.8,311.0 595.7,310.5 595.7,310.0 595.0,309.4 593.7,308.9 592.0,308.4 590.1,307.8 588.3,307.3 586.7,306.7 585.4,306.2 584.5,305.7 583.9,305.1 583.6,304.6 583.3,304.1 583.0,303.5 582.3,303.0 581.3,302.5 579.7,301.9 577.7,301.4 575.1,300.8 572.1,300.3 568.9,299.8 565.7,299.2 562.6,298.7 559.8,298.2 557.6,297.6 556.1,297.1 555.4,296.6 555.4,296.0 556.3,295.5 558.0,294.9 560.3,294.4 563.1,293.9 566.2,293.3 569.2,292.8 572.1,292.3 574.6,291.7 576.4,291.2 577.4,290.6 577.5,290.1 576.7,289.6 575.1,289.0 572.6,288.5 569.6,288.0 566.2,287.4 562.5,286.9 558.9,286.4 555.4,285.8 552.1,285.3 524.6,285.3 521.3,285.8 517.8,286.4 514.1,286.9 510.5,287.4 507.0,288.0 504.0,288.5 501.6,289.0 499.9,289.6 499.1,290.1 499.3,290.6 500.3,291.2 502.1,291.7 504.5,292.3 507.4,292.8 510.5,293.3 513.6,293.9 516.3,294.4 518.7,294.9 520.3,295.5 521.2,296.0 521.3,296.6 520.6,297.1 519.0,297.6 516.8,298.2 514.1,298.7 511.0,299.2 507.7,299.8 504.5,300.3 501.6,300.8 499.0,301.4 496.9,301.9 495.4,302.5 494.3,303.0 493.7,303.5 493.3,304.1 493.1,304.6 492.7,305.1 492.2,305.7 491.3,306.2 490.0,306.7 488.4,307.3 486.6,307.8 484.7,308.4 483.0,308.9 481.7,309.4 480.9,310.0 481.0,310.5 481.9,311.0 483.8,311.6 486.5,312.1 490.1,312.7 494.3,313.2 498.9,313.7 503.7,314.3 508.6,314.8 513.3,315.3 517.6,315.9 521.5,316.4 524.9,316.9 527.8,317.5 530.1,318.0 532.0,318.6 533.5,319.1 534.6,319.6 535.5,320.2 536.2,320.7 536.6,321.2 537.0,321.8 537.3,322.3 537.5,322.8 537.7,323.4" fill="#2a8" opacity="0.5" stroke="#2a8" stroke-width="1"/>
<line x1="495.2" y1="302.5485117854513" x2="581.5" y2="302.5485117854513" stroke="#114" stroke-width="2"/>
<circle cx="538.3333333333333" cy="311.4732036243848" r="2.4" fill="#114"/>
<text x="538.3333333333333" y="283.0278598150053" text-anchor="middle" font-size="11">1.55</text>
<text x="538.3333333333333" y="376" text-anchor="middle" font-size="12">asum</text>
<polygon points="675.0,330.0 675.1,329.0 675.6,328.0 677.3,326.9 682.4,325.9 692.9,324.9 708.9,323.9 724.9,322.9 732.4,321.8 727.0,320.8 712.5,319.8 696.9,318.8 685.8,317.8 680.0,316.8 677.4,315.7 676.3,314.7 675.6,313.7 675.3,312.7 675.1,311.7 675.0,310.7 675.0,309.6 675.0,308.6 675.0,307.6 675.0,306.6 675.0,305.6 675.0,304.5 675.0,303.5 675.0,302.5 675.0,301.5 675.0,300.5 675.0,299.5 675.0,298.4 675.0,297.4 675.0,296.4 675.0,295.4 675.0,294.4 675.0,293.3 675.0,292.3 675.0,291.3 675.0,290.3 675.0,289.3 675.0,288.3 675.0,287.2 675.0,286.2 675.0,285.2 675.0,284.2 675.0,283.2 675.0,282.1 675.0,281.1 675.0,280.1 675.0,279.1 675.0,278.1 675.0,277.1 675.0,276.0 675.0,275.0 675.0,274.0 675.0,273.0 675.0,272.0 675.0,270.9 675.0,269.9 675.0,268.9 675.1,267.9 675.3,266.9 675.4,265.9 675.5,264.8 675.4,263.8 675.3,262.8 675.1,261.8 675.1,260.8 675.0,259.8 675.0,258.7 675.0,257.7 675.0,257.7 675.0,258.7 675.0,259.8 674.9,260.8 674.9,261.8 674.7,262.8 674.6,263.8 674.5,264.8 674.6,265.9 674.7,266.9 674.9,267.9 675.0,268.9 675.0,269.9 675.0,270.9 675.0,272.0 675.0,273.0 675.0,274.0 675.0,275.0 675.0,276.0 675.0,277.1 675.0,278.1 675.0,279.1 675.0,280.1 675.0,281.1 675.0,282.1 675.0,283.2 675.0,284.2 675.0,285.2 675.0,286.2 675.0,287.2 675.0,288.3 675.0,289.3 675.0,290.3 675.0,291.3 675.0,292.3 675.0,293.3 675.0,294.4 675.0,295.4 675.0,296.4 675.0,297.4 675.0,298.4 675.0,299.5 675.0,300.5 675.0,301.5 675.0,302.5 675.0,303.5 675.0,304.5 675.0,305.6 675.0,306.6 675.0,307.6 675.0,308.6 675.0,309.6 675.0,310.7 674.9,311.7 674.7,312.7 674.4,313.7 673.7,314.7 672.6,315.7 670.0,316.8 664.2,317.8 653.1,318.8 637.5,319.8 623.0,320.8 617.6,321.8 625.1,322.9 641.1,323.9 657.1,324.9 667.6,325.9 672.7,326.9 674.4,328.0 674.9,329.0 675.0,330.0" fill="#2a8" opacity="0.5" stroke="#2a8" stroke-width="1"/>
<line x1="617.7" y1="321.92430977267026" x2="732.3" y2="321.92430977267026" stroke="#114" stroke-width="2"/>
<circle cx="675.0" cy="322.3444478993068" r="2.4" fill="#114"/>
<text x="675.0" y="258.76796720466024" text-anchor="middle" font-size="11">1.01</text>
<text x="675.0" y="376" text-anchor="middle" font-size="12">scal</text>
<polygon points="812.3,346.9 812.9,345.7 813.9,344.5 815.5,343.3 817.8,342.1 820.9,340.9 824.8,339.7 829.5,338.5 834.8,337.3 840.5,336.0 846.0,334.8 851.1,333.6 855.3,332.4 858.5,331.2 860.7,330.0 862.0,328.8 862.8,327.6 863.3,326.4 863.8,325.2 864.2,323.9 864.8,322.7 865.4,321.5 866.3,320.3 867.2,319.1 868.1,317.9 868.8,316.7 869.1,315.5 868.6,314.3 867.2,313.0 864.9,311.8 861.6,310.6 857.5,309.4 852.7,308.2 847.6,307.0 842.4,305.8 837.3,304.6 832.4,303.4 828.1,302.1 824.3,300.9 821.1,299.7 818.5,298.5 816.5,297.3 815.0,296.1 813.9,294.9 813.1,293.7 812.6,292.5 812.2,291.2 812.0,290.0 811.8,288.8 811.8,287.6 811.7,286.4 811.7,285.2 811.7,284.0 811.7,282.8 811.7,281.6 811.7,280.3 811.7,279.1 811.8,277.9 811.9,276.7 812.1,275.5 812.3,274.3 812.5,273.1 812.7,271.9 812.8,270.7 812.9,269.5 812.8,268.2 812.7,267.0 812.5,265.8 812.3,264.6 812.1,263.4 811.9,262.2 811.8,261.0 811.5,261.0 811.4,262.2 811.2,263.4 811.0,264.6 810.8,265.8 810.6,267.0 810.5,268.2 810.5,269.5 810.5,270.7 810.7,271.9 810.9,273.1 811.1,274.3 811.3,275.5 811.4,276.7 811.5,277.9 811.6,279.1 811.6,280.3 811.7,281.6 811.7,282.8 811.7,284.0 811.6,285.2 811.6,286.4 811.6,287.6 811.5,288.8 811.3,290.0 811.1,291.2 810.7,292.5 810.2,293.7 809.4,294.9 808.4,296.1 806.9,297.3 804.9,298.5 802.3,299.7 799.1,300.9 795.3,302.1 790.9,303.4 786.1,304.6 781.0,305.8 775.7,307.0 770.6,308.2 765.9,309.4 761.7,310.6 758.4,311.8 756.1,313.0 754.7,314.3 754.3,315.5 754.5,316.7 755.2,317.9 756.2,319.1 757.1,320.3 757.9,321.5 758.6,322.7 759.1,323.9 759.6,325.2 760.0,326.4 760.5,327.6 761.3,328.8 762.6,330.0 764.8,331.2 768.0,332.4 772.3,333.6 777.3,334.8 782.9,336.0 788.5,337.3 793.8,338.5 798.5,339.7 802.5,340.9 805.6,342.1 807.8,343.3 809.4,344.5 810.4,345.7 811.0,346.9" fill="#d33" opacity="0.5" stroke="#d33" stroke-width="1"/>
<line x1="757.0" y1="320.1793216602999" x2="866.4" y2="320.1793216602999" stroke="#114" stroke-width="2"/>
<circle cx="811.6666666666666" cy="331.685743197322" r="2.4" fill="#114"/>
<text x="811.6666666666666" y="263.3527346339272" text-anchor="middle" font-size="11">1.06</text>
<text x="811.6666666666666" y="376" text-anchor="middle" font-size="12">iamax</text>
<text x="450.0" y="428" text-anchor="middle" font-size="11" fill="#666">violin = ratio distribution over sizes · line = median · dark dot = worst size · green = every size ≥ gate</text>
</svg>
