<svg xmlns="http://www.w3.org/2000/svg" width="962" height="248" font-family="sans-serif">
<rect width="962" height="248" fill="white"/>
<text x="481.0" y="26" text-anchor="middle" font-size="17" font-weight="bold">Complex LAPACK — PureBLAS / OpenBLAS (PB/OpenBLAS ratio)</text>
<line x1="46" y1="42" x2="68" y2="42" stroke="#d62728" stroke-width="3"/>
<text x="73" y="46" font-size="12">Zen3 · AVX2</text>
<line x1="176" y1="42" x2="198" y2="42" stroke="#2ca02c" stroke-width="3"/>
<text x="203" y="46" font-size="12">Zen5 · AVX-512</text>
<line x1="327" y1="42" x2="349" y2="42" stroke="#1f77b4" stroke-width="3"/>
<text x="354" y="46" font-size="12">Zen4 · AVX-512</text>
<rect x="46" y="60" width="210" height="138" fill="none" stroke="#e2e2e2"/>
<line x1="46" y1="126.43126416460905" x2="256" y2="126.43126416460905" stroke="#d33" stroke-dasharray="4 3"/>
<text x="42" y="201.0" text-anchor="end" font-size="9" fill="#999">0.5×</text>
<text x="42" y="129.43126416460905" text-anchor="end" font-size="9" fill="#999">1.0×</text>
<text x="42" y="63.15865639423311" text-anchor="end" font-size="9" fill="#999">1.9×</text>
<polygon points="46.0,76.0 92.7,104.0 139.3,122.0 162.7,125.7 186.0,126.6 209.3,121.4 232.7,120.3 256.0,128.8 256.0,128.9 232.7,121.1 209.3,121.9 186.0,127.5 162.7,126.9 139.3,122.6 92.7,104.7 46.0,77.2" fill="#d62728" opacity="0.11"/>
<polyline points="46.0,76.6 92.7,104.2 139.3,122.4 162.7,126.5 186.0,126.9 209.3,121.7 232.7,120.7 256.0,128.9" fill="none" stroke="#d62728" stroke-width="1.6"/>
<circle cx="46.0" cy="76.6" r="2" fill="#d62728"/>
<circle cx="92.7" cy="104.2" r="2" fill="#d62728"/>
<circle cx="139.3" cy="122.4" r="2" fill="#d62728"/>
<circle cx="162.7" cy="126.5" r="2" fill="#d62728"/>
<circle cx="186.0" cy="126.9" r="2" fill="#d62728"/>
<circle cx="209.3" cy="121.7" r="2" fill="#d62728"/>
<circle cx="232.7" cy="120.7" r="2" fill="#d62728"/>
<circle cx="256.0" cy="128.9" r="2" fill="#d62728"/>
<polygon points="46.0,80.7 92.7,122.1 139.3,102.6 162.7,103.4 186.0,98.1 209.3,102.5 232.7,107.5 256.0,111.5 256.0,111.8 232.7,108.4 209.3,103.3 186.0,98.5 162.7,104.6 139.3,103.1 92.7,127.1 46.0,83.2" fill="#2ca02c" opacity="0.11"/>
<polyline points="46.0,82.0 92.7,124.0 139.3,102.8 162.7,104.0 186.0,98.3 209.3,103.0 232.7,108.1 256.0,111.7" fill="none" stroke="#2ca02c" stroke-width="1.6"/>
<circle cx="46.0" cy="82.0" r="2" fill="#2ca02c"/>
<circle cx="92.7" cy="124.0" r="2" fill="#2ca02c"/>
<circle cx="139.3" cy="102.8" r="2" fill="#2ca02c"/>
<circle cx="162.7" cy="104.0" r="2" fill="#2ca02c"/>
<circle cx="186.0" cy="98.3" r="2" fill="#2ca02c"/>
<circle cx="209.3" cy="103.0" r="2" fill="#2ca02c"/>
<circle cx="232.7" cy="108.1" r="2" fill="#2ca02c"/>
<circle cx="256.0" cy="111.7" r="2" fill="#2ca02c"/>
<polygon points="46.0,67.9 92.7,102.7 139.3,103.9 162.7,109.4 186.0,106.5 209.3,110.3 232.7,113.1 256.0,105.3 256.0,116.3 232.7,114.7 209.3,111.4 186.0,107.5 162.7,117.2 139.3,112.7 92.7,107.7 46.0,86.6" fill="#1f77b4" opacity="0.11"/>
<polyline points="46.0,81.0 92.7,105.2 139.3,109.2 162.7,115.2 186.0,106.9 209.3,111.1 232.7,113.5 256.0,105.3" fill="none" stroke="#1f77b4" stroke-width="1.6"/>
<circle cx="46.0" cy="81.0" r="2" fill="#1f77b4"/>
<circle cx="92.7" cy="105.2" r="2" fill="#1f77b4"/>
<circle cx="139.3" cy="109.2" r="2" fill="#1f77b4"/>
<circle cx="162.7" cy="115.2" r="2" fill="#1f77b4"/>
<circle cx="186.0" cy="106.9" r="2" fill="#1f77b4"/>
<circle cx="209.3" cy="111.1" r="2" fill="#1f77b4"/>
<circle cx="232.7" cy="113.5" r="2" fill="#1f77b4"/>
<circle cx="256.0" cy="105.3" r="2" fill="#1f77b4"/>
<text x="151.0" y="55" text-anchor="middle" font-size="12" font-weight="bold">zpotrf</text>
<line x1="46.0" y1="60" x2="46.0" y2="198" stroke="#f4f4f4"/>
<text x="46.0" y="209" text-anchor="middle" font-size="8" fill="#999">8</text>
<line x1="92.7" y1="60" x2="92.7" y2="198" stroke="#f4f4f4"/>
<text x="92.7" y="209" text-anchor="middle" font-size="8" fill="#999">32</text>
<line x1="139.3" y1="60" x2="139.3" y2="198" stroke="#f4f4f4"/>
<text x="139.3" y="209" text-anchor="middle" font-size="8" fill="#999">128</text>
<line x1="162.7" y1="60" x2="162.7" y2="198" stroke="#f4f4f4"/>
<text x="162.7" y="209" text-anchor="middle" font-size="8" fill="#999">256</text>
<line x1="186.0" y1="60" x2="186.0" y2="198" stroke="#f4f4f4"/>
<text x="186.0" y="209" text-anchor="middle" font-size="8" fill="#999">512</text>
<line x1="209.3" y1="60" x2="209.3" y2="198" stroke="#f4f4f4"/>
<text x="209.3" y="209" text-anchor="middle" font-size="8" fill="#999">1k</text>
<line x1="232.7" y1="60" x2="232.7" y2="198" stroke="#f4f4f4"/>
<text x="232.7" y="209" text-anchor="middle" font-size="8" fill="#999">2k</text>
<line x1="256.0" y1="60" x2="256.0" y2="198" stroke="#f4f4f4"/>
<text x="256.0" y="209" text-anchor="middle" font-size="8" fill="#999">4k</text>
<rect x="276" y="60" width="210" height="138" fill="none" stroke="#e2e2e2"/>
<line x1="276" y1="115.76276119065531" x2="486" y2="115.76276119065531" stroke="#d33" stroke-dasharray="4 3"/>
<text x="272" y="201.0" text-anchor="end" font-size="9" fill="#999">0.5×</text>
<text x="272" y="118.76276119065531" text-anchor="end" font-size="9" fill="#999">1.0×</text>
<text x="272" y="63.0" text-anchor="end" font-size="9" fill="#999">1.6×</text>
<polygon points="276.0,103.0 322.7,166.6 369.3,178.2 392.7,163.8 416.0,155.6 439.3,155.4 462.7,152.8 486.0,125.0 486.0,125.3 462.7,153.7 439.3,156.6 416.0,156.7 392.7,166.0 369.3,179.9 322.7,168.7 276.0,106.0" fill="#d62728" opacity="0.11"/>
<polyline points="276.0,104.9 322.7,168.4 369.3,179.0 392.7,165.0 416.0,156.0 439.3,156.1 462.7,153.3 486.0,125.2" fill="none" stroke="#d62728" stroke-width="1.6"/>
<circle cx="276.0" cy="104.9" r="2" fill="#d62728"/>
<circle cx="322.7" cy="168.4" r="2" fill="#d62728"/>
<circle cx="369.3" cy="179.0" r="2" fill="#d62728"/>
<circle cx="392.7" cy="165.0" r="2" fill="#d62728"/>
<circle cx="416.0" cy="156.0" r="2" fill="#d62728"/>
<circle cx="439.3" cy="156.1" r="2" fill="#d62728"/>
<circle cx="462.7" cy="153.3" r="2" fill="#d62728"/>
<circle cx="486.0" cy="125.2" r="2" fill="#d62728"/>
<polygon points="276.0,119.0 322.7,174.1 369.3,177.1 392.7,136.7 416.0,120.8 439.3,114.8 462.7,111.7 486.0,107.6 486.0,109.4 462.7,112.2 439.3,116.0 416.0,121.5 392.7,137.8 369.3,179.0 322.7,182.2 276.0,126.6" fill="#2ca02c" opacity="0.11"/>
<polyline points="276.0,124.5 322.7,180.8 369.3,178.0 392.7,137.2 416.0,121.2 439.3,115.4 462.7,111.8 486.0,109.0" fill="none" stroke="#2ca02c" stroke-width="1.6"/>
<circle cx="276.0" cy="124.5" r="2" fill="#2ca02c"/>
<circle cx="322.7" cy="180.8" r="2" fill="#2ca02c"/>
<circle cx="369.3" cy="178.0" r="2" fill="#2ca02c"/>
<circle cx="392.7" cy="137.2" r="2" fill="#2ca02c"/>
<circle cx="416.0" cy="121.2" r="2" fill="#2ca02c"/>
<circle cx="439.3" cy="115.4" r="2" fill="#2ca02c"/>
<circle cx="462.7" cy="111.8" r="2" fill="#2ca02c"/>
<circle cx="486.0" cy="109.0" r="2" fill="#2ca02c"/>
<polygon points="276.0,110.1 322.7,168.6 369.3,166.5 392.7,129.9 416.0,116.5 439.3,106.4 462.7,97.1 486.0,70.7 486.0,70.9 462.7,100.5 439.3,110.1 416.0,118.2 392.7,133.8 369.3,168.3 322.7,174.7 276.0,127.3" fill="#1f77b4" opacity="0.11"/>
<polyline points="276.0,124.1 322.7,173.9 369.3,167.7 392.7,132.0 416.0,117.2 439.3,109.5 462.7,97.5 486.0,70.8" fill="none" stroke="#1f77b4" stroke-width="1.6"/>
<circle cx="276.0" cy="124.1" r="2" fill="#1f77b4"/>
<circle cx="322.7" cy="173.9" r="2" fill="#1f77b4"/>
<circle cx="369.3" cy="167.7" r="2" fill="#1f77b4"/>
<circle cx="392.7" cy="132.0" r="2" fill="#1f77b4"/>
<circle cx="416.0" cy="117.2" r="2" fill="#1f77b4"/>
<circle cx="439.3" cy="109.5" r="2" fill="#1f77b4"/>
<circle cx="462.7" cy="97.5" r="2" fill="#1f77b4"/>
<circle cx="486.0" cy="70.8" r="2" fill="#1f77b4"/>
<text x="381.0" y="55" text-anchor="middle" font-size="12" font-weight="bold">zgeqrf</text>
<line x1="276.0" y1="60" x2="276.0" y2="198" stroke="#f4f4f4"/>
<text x="276.0" y="209" text-anchor="middle" font-size="8" fill="#999">8</text>
<line x1="322.7" y1="60" x2="322.7" y2="198" stroke="#f4f4f4"/>
<text x="322.7" y="209" text-anchor="middle" font-size="8" fill="#999">32</text>
<line x1="369.3" y1="60" x2="369.3" y2="198" stroke="#f4f4f4"/>
<text x="369.3" y="209" text-anchor="middle" font-size="8" fill="#999">128</text>
<line x1="392.7" y1="60" x2="392.7" y2="198" stroke="#f4f4f4"/>
<text x="392.7" y="209" text-anchor="middle" font-size="8" fill="#999">256</text>
<line x1="416.0" y1="60" x2="416.0" y2="198" stroke="#f4f4f4"/>
<text x="416.0" y="209" text-anchor="middle" font-size="8" fill="#999">512</text>
<line x1="439.3" y1="60" x2="439.3" y2="198" stroke="#f4f4f4"/>
<text x="439.3" y="209" text-anchor="middle" font-size="8" fill="#999">1k</text>
<line x1="462.7" y1="60" x2="462.7" y2="198" stroke="#f4f4f4"/>
<text x="462.7" y="209" text-anchor="middle" font-size="8" fill="#999">2k</text>
<line x1="486.0" y1="60" x2="486.0" y2="198" stroke="#f4f4f4"/>
<text x="486.0" y="209" text-anchor="middle" font-size="8" fill="#999">4k</text>
<rect x="506" y="60" width="210" height="138" fill="none" stroke="#e2e2e2"/>
<line x1="506" y1="115.76276119065531" x2="716" y2="115.76276119065531" stroke="#d33" stroke-dasharray="4 3"/>
<text x="502" y="201.0" text-anchor="end" font-size="9" fill="#999">0.5×</text>
<text x="502" y="118.76276119065531" text-anchor="end" font-size="9" fill="#999">1.0×</text>
<text x="502" y="63.0" text-anchor="end" font-size="9" fill="#999">1.6×</text>
<polygon points="506.0,87.9 552.7,109.9 599.3,143.1 622.7,145.5 646.0,133.5 669.3,142.0 692.7,143.7 716.0,136.2 716.0,138.6 692.7,144.9 669.3,143.1 646.0,134.2 622.7,147.3 599.3,144.6 552.7,110.4 506.0,88.8" fill="#d62728" opacity="0.11"/>
<polyline points="506.0,88.4 552.7,110.2 599.3,143.9 622.7,146.4 646.0,133.8 669.3,142.9 692.7,144.3 716.0,136.5" fill="none" stroke="#d62728" stroke-width="1.6"/>
<circle cx="506.0" cy="88.4" r="2" fill="#d62728"/>
<circle cx="552.7" cy="110.2" r="2" fill="#d62728"/>
<circle cx="599.3" cy="143.9" r="2" fill="#d62728"/>
<circle cx="622.7" cy="146.4" r="2" fill="#d62728"/>
<circle cx="646.0" cy="133.8" r="2" fill="#d62728"/>
<circle cx="669.3" cy="142.9" r="2" fill="#d62728"/>
<circle cx="692.7" cy="144.3" r="2" fill="#d62728"/>
<circle cx="716.0" cy="136.5" r="2" fill="#d62728"/>
<polygon points="506.0,100.9 552.7,101.8 599.3,114.3 622.7,117.1 646.0,107.6 669.3,114.4 692.7,107.2 716.0,105.4 716.0,105.6 692.7,108.1 669.3,116.1 646.0,108.1 622.7,118.7 599.3,115.4 552.7,105.1 506.0,104.1" fill="#2ca02c" opacity="0.11"/>
<polyline points="506.0,102.7 552.7,102.8 599.3,114.9 622.7,117.6 646.0,107.8 669.3,114.9 692.7,107.8 716.0,105.5" fill="none" stroke="#2ca02c" stroke-width="1.6"/>
<circle cx="506.0" cy="102.7" r="2" fill="#2ca02c"/>
<circle cx="552.7" cy="102.8" r="2" fill="#2ca02c"/>
<circle cx="599.3" cy="114.9" r="2" fill="#2ca02c"/>
<circle cx="622.7" cy="117.6" r="2" fill="#2ca02c"/>
<circle cx="646.0" cy="107.8" r="2" fill="#2ca02c"/>
<circle cx="669.3" cy="114.9" r="2" fill="#2ca02c"/>
<circle cx="692.7" cy="107.8" r="2" fill="#2ca02c"/>
<circle cx="716.0" cy="105.5" r="2" fill="#2ca02c"/>
<polygon points="506.0,94.9 552.7,111.4 599.3,126.6 622.7,122.2 646.0,118.4 669.3,127.7 692.7,116.0 716.0,110.8 716.0,111.0 692.7,117.7 669.3,129.4 646.0,120.2 622.7,128.3 599.3,131.4 552.7,112.9 506.0,106.2" fill="#1f77b4" opacity="0.11"/>
<polyline points="506.0,104.3 552.7,112.0 599.3,129.4 622.7,124.8 646.0,118.9 669.3,129.0 692.7,117.0 716.0,110.9" fill="none" stroke="#1f77b4" stroke-width="1.6"/>
<circle cx="506.0" cy="104.3" r="2" fill="#1f77b4"/>
<circle cx="552.7" cy="112.0" r="2" fill="#1f77b4"/>
<circle cx="599.3" cy="129.4" r="2" fill="#1f77b4"/>
<circle cx="622.7" cy="124.8" r="2" fill="#1f77b4"/>
<circle cx="646.0" cy="118.9" r="2" fill="#1f77b4"/>
<circle cx="669.3" cy="129.0" r="2" fill="#1f77b4"/>
<circle cx="692.7" cy="117.0" r="2" fill="#1f77b4"/>
<circle cx="716.0" cy="110.9" r="2" fill="#1f77b4"/>
<text x="611.0" y="55" text-anchor="middle" font-size="12" font-weight="bold">zgetrf</text>
<line x1="506.0" y1="60" x2="506.0" y2="198" stroke="#f4f4f4"/>
<text x="506.0" y="209" text-anchor="middle" font-size="8" fill="#999">8</text>
<line x1="552.7" y1="60" x2="552.7" y2="198" stroke="#f4f4f4"/>
<text x="552.7" y="209" text-anchor="middle" font-size="8" fill="#999">32</text>
<line x1="599.3" y1="60" x2="599.3" y2="198" stroke="#f4f4f4"/>
<text x="599.3" y="209" text-anchor="middle" font-size="8" fill="#999">128</text>
<line x1="622.7" y1="60" x2="622.7" y2="198" stroke="#f4f4f4"/>
<text x="622.7" y="209" text-anchor="middle" font-size="8" fill="#999">256</text>
<line x1="646.0" y1="60" x2="646.0" y2="198" stroke="#f4f4f4"/>
<text x="646.0" y="209" text-anchor="middle" font-size="8" fill="#999">512</text>
<line x1="669.3" y1="60" x2="669.3" y2="198" stroke="#f4f4f4"/>
<text x="669.3" y="209" text-anchor="middle" font-size="8" fill="#999">1k</text>
<line x1="692.7" y1="60" x2="692.7" y2="198" stroke="#f4f4f4"/>
<text x="692.7" y="209" text-anchor="middle" font-size="8" fill="#999">2k</text>
<line x1="716.0" y1="60" x2="716.0" y2="198" stroke="#f4f4f4"/>
<text x="716.0" y="209" text-anchor="middle" font-size="8" fill="#999">4k</text>
<rect x="736" y="60" width="210" height="138" fill="none" stroke="#e2e2e2"/>
<line x1="736" y1="82.61030914252473" x2="946" y2="82.61030914252473" stroke="#d33" stroke-dasharray="4 3"/>
<text x="732" y="85.61030914252473" text-anchor="end" font-size="9" fill="#999">1.0×</text>
<text x="732" y="63.07031373939685" text-anchor="end" font-size="9" fill="#999">1.86×</text>
<polygon points="736.0,62.8 796.0,84.8 856.0,130.6 886.0,160.8 916.0,172.7 946.0,179.6 946.0,184.6 916.0,173.5 886.0,165.2 856.0,132.4 796.0,85.4 736.0,66.5" fill="#d62728" opacity="0.11"/>
<polyline points="736.0,62.9 796.0,85.3 856.0,131.4 886.0,161.0 916.0,173.0 946.0,181.3" fill="none" stroke="#d62728" stroke-width="1.6"/>
<circle cx="736.0" cy="62.9" r="2" fill="#d62728"/>
<circle cx="796.0" cy="85.3" r="2" fill="#d62728"/>
<circle cx="856.0" cy="131.4" r="2" fill="#d62728"/>
<circle cx="886.0" cy="161.0" r="2" fill="#d62728"/>
<circle cx="916.0" cy="173.0" r="2" fill="#d62728"/>
<circle cx="946.0" cy="181.3" r="2" fill="#d62728"/>
<polygon points="736.0,65.7 796.0,84.3 856.0,135.7 886.0,162.5 916.0,173.4 946.0,177.6 946.0,181.3 916.0,177.1 886.0,163.2 856.0,136.2 796.0,84.8 736.0,67.3" fill="#2ca02c" opacity="0.11"/>
<polyline points="736.0,66.0 796.0,84.7 856.0,135.8 886.0,162.6 916.0,173.9 946.0,178.1" fill="none" stroke="#2ca02c" stroke-width="1.6"/>
<circle cx="736.0" cy="66.0" r="2" fill="#2ca02c"/>
<circle cx="796.0" cy="84.7" r="2" fill="#2ca02c"/>
<circle cx="856.0" cy="135.8" r="2" fill="#2ca02c"/>
<circle cx="886.0" cy="162.6" r="2" fill="#2ca02c"/>
<circle cx="916.0" cy="173.9" r="2" fill="#2ca02c"/>
<circle cx="946.0" cy="178.1" r="2" fill="#2ca02c"/>
<polygon points="736.0,62.8 796.0,79.3 856.0,142.2 886.0,170.9 916.0,180.8 946.0,185.9 946.0,195.4 916.0,182.7 886.0,177.1 856.0,145.4 796.0,83.8 736.0,67.1" fill="#1f77b4" opacity="0.11"/>
<polyline points="736.0,63.1 796.0,83.7 856.0,143.1 886.0,172.9 916.0,181.2 946.0,190.0" fill="none" stroke="#1f77b4" stroke-width="1.6"/>
<circle cx="736.0" cy="63.1" r="2" fill="#1f77b4"/>
<circle cx="796.0" cy="83.7" r="2" fill="#1f77b4"/>
<circle cx="856.0" cy="143.1" r="2" fill="#1f77b4"/>
<circle cx="886.0" cy="172.9" r="2" fill="#1f77b4"/>
<circle cx="916.0" cy="181.2" r="2" fill="#1f77b4"/>
<circle cx="946.0" cy="190.0" r="2" fill="#1f77b4"/>
<text x="841.0" y="55" text-anchor="middle" font-size="12" font-weight="bold">zgesvd</text>
<line x1="736.0" y1="60" x2="736.0" y2="198" stroke="#f4f4f4"/>
<text x="736.0" y="209" text-anchor="middle" font-size="8" fill="#999">8</text>
<line x1="796.0" y1="60" x2="796.0" y2="198" stroke="#f4f4f4"/>
<text x="796.0" y="209" text-anchor="middle" font-size="8" fill="#999">32</text>
<line x1="856.0" y1="60" x2="856.0" y2="198" stroke="#f4f4f4"/>
<text x="856.0" y="209" text-anchor="middle" font-size="8" fill="#999">128</text>
<line x1="886.0" y1="60" x2="886.0" y2="198" stroke="#f4f4f4"/>
<text x="886.0" y="209" text-anchor="middle" font-size="8" fill="#999">256</text>
<line x1="916.0" y1="60" x2="916.0" y2="198" stroke="#f4f4f4"/>
<text x="916.0" y="209" text-anchor="middle" font-size="8" fill="#999">512</text>
<line x1="946.0" y1="60" x2="946.0" y2="198" stroke="#f4f4f4"/>
<text x="946.0" y="209" text-anchor="middle" font-size="8" fill="#999">1k</text>
</svg>
