<svg xmlns="http://www.w3.org/2000/svg" width="900" height="440" font-family="sans-serif">
<rect width="900" height="440" fill="white"/>
<text x="450.0" y="28" text-anchor="middle" font-size="18" font-weight="bold">BLAS-1: PureBLAS / OpenBLAS (AVX-512 native (Zen5), 1 thread, Float64)</text>
<line x1="60" y1="358.0" x2="880" y2="358.0" stroke="#eee"/>
<text x="52" y="362.0" text-anchor="end" font-size="11" fill="#666">0×</text>
<line x1="60" y1="348.1901007412945" x2="880" y2="348.1901007412945" stroke="#eee"/>
<text x="52" y="352.1901007412945" text-anchor="end" font-size="11" fill="#666">0.5×</text>
<line x1="60" y1="338.380201482589" x2="880" y2="338.380201482589" stroke="#eee"/>
<text x="52" y="342.380201482589" text-anchor="end" font-size="11" fill="#666">1×</text>
<line x1="60" y1="328.57030222388346" x2="880" y2="328.57030222388346" stroke="#eee"/>
<text x="52" y="332.57030222388346" text-anchor="end" font-size="11" fill="#666">1.5×</text>
<line x1="60" y1="338.380201482589" x2="880" y2="338.380201482589" stroke="#888" stroke-width="1"/>
<line x1="60" y1="339.1649934232854" x2="880" y2="339.1649934232854" stroke="#d33" stroke-width="1.5" stroke-dasharray="6 4"/>
<text x="880" y="334.1649934232854" text-anchor="end" font-size="11" fill="#d33">0.96× gate</text>
<polygon points="128.6,339.8 128.7,339.8 129.0,339.7 129.3,339.7 129.6,339.6 130.1,339.6 130.6,339.5 131.1,339.5 131.6,339.4 132.1,339.4 132.5,339.3 132.8,339.3 133.1,339.2 133.4,339.2 133.7,339.2 134.0,339.1 134.4,339.1 135.0,339.0 136.0,339.0 137.4,338.9 139.5,338.9 142.4,338.8 146.3,338.8 151.1,338.7 156.8,338.7 163.1,338.7 169.6,338.6 175.6,338.6 180.7,338.5 184.3,338.5 185.7,338.4 185.0,338.4 182.0,338.3 177.3,338.3 171.3,338.2 164.7,338.2 158.2,338.2 152.3,338.1 147.3,338.1 143.4,338.0 140.5,338.0 138.7,337.9 137.6,337.9 137.2,337.8 137.4,337.8 138.0,337.7 139.2,337.7 141.0,337.7 143.3,337.6 146.2,337.6 149.4,337.5 152.8,337.5 155.8,337.4 158.2,337.4 159.6,337.3 159.6,337.3 158.3,337.2 155.8,337.2 152.3,337.2 148.3,337.1 144.2,337.1 140.4,337.0 137.1,337.0 134.5,336.9 132.5,336.9 131.0,336.8 130.0,336.8 129.4,336.7 128.9,336.7 128.7,336.7 128.5,336.6 128.5,336.6 128.2,336.6 128.1,336.6 128.0,336.7 127.7,336.7 127.3,336.7 126.7,336.8 125.7,336.8 124.2,336.9 122.2,336.9 119.5,337.0 116.2,337.0 112.4,337.1 108.3,337.1 104.4,337.2 100.9,337.2 98.3,337.2 97.0,337.3 97.1,337.3 98.4,337.4 100.8,337.4 103.9,337.5 107.2,337.5 110.5,337.6 113.3,337.6 115.7,337.7 117.4,337.7 118.6,337.7 119.3,337.8 119.5,337.8 119.1,337.9 118.0,337.9 116.1,338.0 113.3,338.0 109.4,338.1 104.4,338.1 98.5,338.2 92.0,338.2 85.4,338.2 79.4,338.3 74.6,338.3 71.7,338.4 70.9,338.4 72.4,338.5 75.9,338.5 81.0,338.6 87.1,338.6 93.6,338.7 99.9,338.7 105.5,338.7 110.4,338.8 114.2,338.8 117.1,338.9 119.3,338.9 120.7,339.0 121.7,339.0 122.3,339.1 122.7,339.1 123.0,339.2 123.2,339.2 123.5,339.2 123.8,339.3 124.2,339.3 124.6,339.4 125.1,339.4 125.6,339.5 126.1,339.5 126.6,339.6 127.0,339.6 127.4,339.7 127.7,339.7 127.9,339.8 128.1,339.8" fill="#2a8" opacity="0.5" stroke="#2a8" stroke-width="1"/>
<line x1="75.0" y1="338.33360703276213" x2="181.7" y2="338.33360703276213" stroke="#114" stroke-width="2"/>
<circle cx="128.33333333333331" cy="338.7284612387801" r="2.4" fill="#114"/>
<text x="128.33333333333331" y="330.90522974356946" text-anchor="middle" font-size="11">1.00</text>
<text x="128.33333333333331" y="376" text-anchor="middle" font-size="12">axpy</text>
<polygon points="265.0,341.0 265.0,340.9 265.0,340.8 265.1,340.7 265.1,340.7 265.2,340.6 265.3,340.5 265.3,340.4 265.3,340.4 265.3,340.3 265.3,340.2 265.3,340.1 265.3,340.1 265.3,340.0 265.4,339.9 265.3,339.9 265.2,339.8 265.2,339.7 265.2,339.6 265.2,339.6 265.4,339.5 265.6,339.4 266.1,339.3 266.7,339.3 267.7,339.2 268.9,339.1 270.3,339.0 271.8,339.0 273.9,338.9 277.0,338.8 282.1,338.8 289.5,338.7 299.4,338.6 310.1,338.5 318.9,338.5 322.4,338.4 319.2,338.3 310.9,338.2 301.9,338.2 295.6,338.1 293.2,338.0 292.9,337.9 292.0,337.9 289.1,337.8 284.4,337.7 279.6,337.7 275.8,337.6 273.4,337.5 271.9,337.4 270.9,337.4 270.2,337.3 269.7,337.2 269.6,337.1 269.5,337.1 269.4,337.0 269.2,336.9 268.8,336.8 268.4,336.8 267.9,336.7 267.4,336.6 267.0,336.6 266.6,336.5 266.3,336.4 266.0,336.3 265.7,336.3 265.5,336.2 265.3,336.1 265.2,336.0 265.1,336.0 265.0,335.9 265.0,335.8 265.0,335.7 265.0,335.7 265.0,335.8 265.0,335.9 264.9,336.0 264.8,336.0 264.7,336.1 264.5,336.2 264.3,336.3 264.0,336.3 263.7,336.4 263.4,336.5 263.0,336.6 262.6,336.6 262.1,336.7 261.6,336.8 261.2,336.8 260.8,336.9 260.6,337.0 260.5,337.1 260.4,337.1 260.3,337.2 259.8,337.3 259.1,337.4 258.1,337.4 256.6,337.5 254.2,337.6 250.4,337.7 245.6,337.7 240.9,337.8 238.0,337.9 237.1,337.9 236.8,338.0 234.4,338.1 228.1,338.2 219.1,338.2 210.8,338.3 207.6,338.4 211.1,338.5 219.9,338.5 230.6,338.6 240.5,338.7 247.9,338.8 253.0,338.8 256.1,338.9 258.2,339.0 259.7,339.0 261.1,339.1 262.3,339.2 263.3,339.3 263.9,339.3 264.4,339.4 264.6,339.5 264.8,339.6 264.8,339.6 264.8,339.7 264.8,339.8 264.7,339.9 264.6,339.9 264.7,340.0 264.7,340.1 264.7,340.1 264.7,340.2 264.7,340.3 264.7,340.4 264.7,340.4 264.7,340.5 264.8,340.6 264.9,340.7 264.9,340.7 265.0,340.8 265.0,340.9 265.0,341.0" fill="#2a8" opacity="0.5" stroke="#2a8" stroke-width="1"/>
<line x1="208.8" y1="338.3404723168668" x2="321.2" y2="338.3404723168668" stroke="#114" stroke-width="2"/>
<circle cx="265.0" cy="338.5727132722418" r="2.4" fill="#114"/>
<text x="265.0" y="330.28050124774506" text-anchor="middle" font-size="11">1.00</text>
<text x="265.0" y="376" text-anchor="middle" font-size="12">dot</text>
<polygon points="415.0,246.4 418.1,243.6 421.6,240.8 425.2,238.1 428.9,235.3 432.4,232.5 435.6,229.8 438.4,227.0 440.5,224.2 441.9,221.5 442.3,218.7 441.9,216.0 440.7,213.2 438.6,210.4 435.9,207.7 432.8,204.9 429.3,202.1 425.8,199.4 422.3,196.6 419.1,193.8 416.3,191.1 414.1,188.3 412.4,185.5 411.4,182.8 411.1,180.0 411.6,177.2 412.9,174.5 415.0,171.7 417.8,168.9 421.3,166.2 425.4,163.4 430.0,160.6 434.9,157.9 439.8,155.1 444.6,152.3 449.0,149.6 452.8,146.8 455.7,144.0 457.8,141.3 458.9,138.5 459.1,135.7 458.4,133.0 457.1,130.2 455.3,127.4 453.3,124.7 451.2,121.9 449.3,119.1 447.5,116.4 446.0,113.6 444.7,110.8 443.7,108.1 442.7,105.3 441.8,102.6 441.0,99.8 440.0,97.0 439.1,94.3 438.1,91.5 437.1,88.7 436.0,86.0 435.0,83.2 434.0,80.4 432.9,77.7 431.7,74.9 430.3,72.1 428.8,69.4 427.1,66.6 425.2,63.8 423.0,61.1 420.7,58.3 418.4,55.5 416.0,52.8 413.7,50.0 389.6,50.0 387.3,52.8 385.0,55.5 382.6,58.3 380.3,61.1 378.2,63.8 376.2,66.6 374.5,69.4 373.0,72.1 371.7,74.9 370.5,77.7 369.4,80.4 368.3,83.2 367.3,86.0 366.3,88.7 365.2,91.5 364.2,94.3 363.3,97.0 362.4,99.8 361.5,102.6 360.6,105.3 359.7,108.1 358.6,110.8 357.3,113.6 355.8,116.4 354.1,119.1 352.1,121.9 350.0,124.7 348.0,127.4 346.2,130.2 344.9,133.0 344.3,135.7 344.4,138.5 345.5,141.3 347.6,144.0 350.6,146.8 354.3,149.6 358.7,152.3 363.5,155.1 368.5,157.9 373.3,160.6 377.9,163.4 382.0,166.2 385.5,168.9 388.3,171.7 390.4,174.5 391.7,177.2 392.2,180.0 391.9,182.8 390.9,185.5 389.3,188.3 387.0,191.1 384.2,193.8 381.0,196.6 377.5,199.4 374.0,202.1 370.5,204.9 367.4,207.7 364.7,210.4 362.7,213.2 361.4,216.0 361.0,218.7 361.5,221.5 362.8,224.2 364.9,227.0 367.7,229.8 370.9,232.5 374.5,235.3 378.1,238.1 381.8,240.8 385.2,243.6 388.4,246.4" fill="#2a8" opacity="0.5" stroke="#2a8" stroke-width="1"/>
<line x1="344.2" y1="136.99143325920033" x2="459.1" y2="136.99143325920033" stroke="#114" stroke-width="2"/>
<circle cx="401.66666666666663" cy="224.56666028057967" r="2.4" fill="#114"/>
<text x="401.66666666666663" y="61.433962264150935" text-anchor="middle" font-size="11">11.26</text>
<text x="401.66666666666663" y="376" text-anchor="middle" font-size="12">nrm2</text>
<polygon points="540.9,340.7 542.2,340.5 544.0,340.4 546.5,340.2 549.7,340.1 553.6,339.9 558.3,339.8 563.7,339.6 569.6,339.4 575.6,339.3 581.6,339.1 586.9,339.0 591.3,338.8 594.3,338.7 595.7,338.5 595.5,338.4 593.6,338.2 590.3,338.1 586.0,337.9 581.0,337.8 575.9,337.6 570.9,337.5 566.5,337.3 562.7,337.2 559.6,337.0 557.3,336.8 555.5,336.7 554.1,336.5 552.9,336.4 551.8,336.2 550.6,336.1 549.4,335.9 548.0,335.8 546.7,335.6 545.3,335.5 544.0,335.3 542.8,335.2 541.7,335.0 540.8,334.9 540.1,334.7 539.6,334.6 539.2,334.4 538.9,334.2 538.7,334.1 538.6,333.9 538.6,333.8 538.6,333.6 538.7,333.5 538.9,333.3 539.2,333.2 539.6,333.0 540.1,332.9 540.8,332.7 541.7,332.6 542.7,332.4 543.9,332.3 545.1,332.1 546.4,332.0 547.6,331.8 548.6,331.7 549.4,331.5 549.8,331.3 549.9,331.2 549.7,331.0 549.0,330.9 548.1,330.7 547.0,330.6 545.8,330.4 544.5,330.3 543.3,330.1 542.2,330.0 541.3,329.8 535.4,329.8 534.5,330.0 533.4,330.1 532.1,330.3 530.9,330.4 529.6,330.6 528.5,330.7 527.6,330.9 527.0,331.0 526.7,331.2 526.8,331.3 527.3,331.5 528.1,331.7 529.1,331.8 530.3,332.0 531.6,332.1 532.8,332.3 534.0,332.4 535.0,332.6 535.9,332.7 536.6,332.9 537.1,333.0 537.5,333.2 537.8,333.3 538.0,333.5 538.1,333.6 538.1,333.8 538.1,333.9 538.0,334.1 537.8,334.2 537.5,334.4 537.1,334.6 536.6,334.7 535.9,334.9 535.0,335.0 533.9,335.2 532.7,335.3 531.4,335.5 530.0,335.6 528.6,335.8 527.3,335.9 526.1,336.1 524.9,336.2 523.8,336.4 522.6,336.5 521.2,336.7 519.4,336.8 517.0,337.0 514.0,337.2 510.2,337.3 505.8,337.5 500.8,337.6 495.7,337.8 490.7,337.9 486.4,338.1 483.1,338.2 481.2,338.4 480.9,338.5 482.4,338.7 485.4,338.8 489.8,339.0 495.1,339.1 501.0,339.3 507.1,339.4 513.0,339.6 518.4,339.8 523.1,339.9 527.0,340.1 530.2,340.2 532.6,340.4 534.5,340.5 535.8,340.7" fill="#2a8" opacity="0.5" stroke="#2a8" stroke-width="1"/>
<line x1="481.1" y1="338.3949498572618" x2="595.6" y2="338.3949498572618" stroke="#114" stroke-width="2"/>
<circle cx="538.3333333333333" cy="338.7924746851092" r="2.4" fill="#114"/>
<text x="538.3333333333333" y="324.89814207025256" text-anchor="middle" font-size="11">1.00</text>
<text x="538.3333333333333" y="376" text-anchor="middle" font-size="12">asum</text>
<polygon points="675.8,340.6 676.3,340.4 677.0,340.3 678.0,340.1 679.4,340.0 681.3,339.8 683.8,339.7 687.0,339.5 690.9,339.4 695.5,339.3 700.7,339.1 706.3,339.0 712.0,338.8 717.6,338.7 722.7,338.5 727.0,338.4 730.2,338.2 732.0,338.1 732.4,337.9 731.4,337.8 729.1,337.6 725.8,337.5 721.7,337.3 717.1,337.2 712.2,337.1 707.3,336.9 702.7,336.8 698.3,336.6 694.3,336.5 690.7,336.3 687.6,336.2 684.9,336.0 682.6,335.9 680.8,335.7 679.3,335.6 678.1,335.4 677.2,335.3 676.5,335.1 676.0,335.0 675.6,334.8 675.4,334.7 675.2,334.6 675.2,334.4 675.1,334.3 675.1,334.1 675.1,334.0 675.1,333.8 675.2,333.7 675.4,333.5 675.6,333.4 675.9,333.2 676.3,333.1 676.9,332.9 677.6,332.8 678.5,332.6 679.6,332.5 680.8,332.3 682.0,332.2 683.3,332.1 684.5,331.9 685.5,331.8 686.2,331.6 686.6,331.5 686.5,331.3 686.1,331.2 685.3,331.0 684.2,330.9 683.0,330.7 681.7,330.6 680.4,330.4 679.2,330.3 678.1,330.1 671.9,330.1 670.8,330.3 669.6,330.4 668.3,330.6 667.0,330.7 665.8,330.9 664.7,331.0 663.9,331.2 663.5,331.3 663.4,331.5 663.8,331.6 664.5,331.8 665.5,331.9 666.7,332.1 668.0,332.2 669.2,332.3 670.4,332.5 671.5,332.6 672.4,332.8 673.1,332.9 673.7,333.1 674.1,333.2 674.4,333.4 674.6,333.5 674.8,333.7 674.9,333.8 674.9,334.0 674.9,334.1 674.9,334.3 674.8,334.4 674.8,334.6 674.6,334.7 674.4,334.8 674.0,335.0 673.5,335.1 672.8,335.3 671.9,335.4 670.7,335.6 669.2,335.7 667.4,335.9 665.1,336.0 662.4,336.2 659.3,336.3 655.7,336.5 651.7,336.6 647.3,336.8 642.7,336.9 637.8,337.1 632.9,337.2 628.3,337.3 624.2,337.5 620.9,337.6 618.6,337.8 617.6,337.9 618.0,338.1 619.8,338.2 623.0,338.4 627.3,338.5 632.4,338.7 638.0,338.8 643.7,339.0 649.3,339.1 654.5,339.3 659.1,339.4 663.0,339.5 666.2,339.7 668.7,339.8 670.6,340.0 672.0,340.1 673.0,340.3 673.7,340.4 674.2,340.6" fill="#2a8" opacity="0.5" stroke="#2a8" stroke-width="1"/>
<line x1="617.7" y1="337.89842816388716" x2="732.3" y2="337.89842816388716" stroke="#114" stroke-width="2"/>
<circle cx="675.0" cy="338.4004222201351" r="2.4" fill="#114"/>
<text x="675.0" y="325.18637531184305" text-anchor="middle" font-size="11">1.02</text>
<text x="675.0" y="376" text-anchor="middle" font-size="12">scal</text>
<polygon points="815.3,344.9 816.7,344.4 818.4,343.9 820.6,343.4 823.2,342.9 826.1,342.4 829.4,341.9 832.9,341.4 836.7,340.9 840.5,340.4 844.4,339.9 848.2,339.4 851.7,338.9 855.1,338.4 858.1,337.9 860.8,337.4 863.1,336.9 865.0,336.3 866.5,335.8 867.7,335.3 868.4,334.8 868.9,334.3 869.1,333.8 869.1,333.3 868.9,332.8 868.7,332.3 868.4,331.8 868.1,331.3 867.9,330.8 867.6,330.3 867.4,329.8 867.1,329.3 866.8,328.8 866.3,328.3 865.8,327.8 865.2,327.2 864.5,326.7 863.8,326.2 863.0,325.7 862.3,325.2 861.6,324.7 861.0,324.2 860.5,323.7 860.1,323.2 859.9,322.7 859.8,322.2 859.8,321.7 860.0,321.2 860.2,320.7 860.5,320.2 860.9,319.7 861.2,319.2 861.5,318.7 861.7,318.1 861.8,317.6 861.5,317.1 860.8,316.6 859.7,316.1 858.1,315.6 855.8,315.1 853.1,314.6 849.8,314.1 846.1,313.6 842.1,313.1 838.0,312.6 833.9,312.1 830.0,311.6 826.4,311.1 823.2,310.6 820.4,310.1 818.2,309.6 816.3,309.0 807.0,309.0 805.2,309.6 802.9,310.1 800.1,310.6 796.9,311.1 793.3,311.6 789.4,312.1 785.3,312.6 781.2,313.1 777.2,313.6 773.5,314.1 770.2,314.6 767.5,315.1 765.3,315.6 763.6,316.1 762.5,316.6 761.9,317.1 761.6,317.6 761.6,318.1 761.8,318.7 762.1,319.2 762.5,319.7 762.8,320.2 763.1,320.7 763.4,321.2 763.5,321.7 763.5,322.2 763.4,322.7 763.2,323.2 762.8,323.7 762.3,324.2 761.7,324.7 761.1,325.2 760.3,325.7 759.6,326.2 758.8,326.7 758.1,327.2 757.5,327.8 757.0,328.3 756.6,328.8 756.2,329.3 756.0,329.8 755.7,330.3 755.5,330.8 755.2,331.3 754.9,331.8 754.7,332.3 754.4,332.8 754.3,333.3 754.3,333.8 754.5,334.3 754.9,334.8 755.7,335.3 756.8,335.8 758.3,336.3 760.2,336.9 762.5,337.4 765.2,337.9 768.2,338.4 771.6,338.9 775.2,339.4 778.9,339.9 782.8,340.4 786.7,340.9 790.4,341.4 794.0,341.9 797.2,342.4 800.2,342.9 802.7,343.4 804.9,343.9 806.7,344.4 808.1,344.9" fill="#2a8" opacity="0.5" stroke="#2a8" stroke-width="1"/>
<line x1="757.6" y1="327.6345602642224" x2="865.7" y2="327.6345602642224" stroke="#114" stroke-width="2"/>
<circle cx="811.6666666666666" cy="330.74193035272424" r="2.4" fill="#114"/>
<text x="811.6666666666666" y="306.5534016739414" text-anchor="middle" font-size="11">1.55</text>
<text x="811.6666666666666" y="376" text-anchor="middle" font-size="12">iamax</text>
<text x="450.0" y="428" text-anchor="middle" font-size="11" fill="#666">violin = ratio distribution over sizes · line = median · dark dot = worst size · green = every size ≥ gate</text>
</svg>
