<svg xmlns="http://www.w3.org/2000/svg" width="962" height="420" font-family="sans-serif">
<rect width="962" height="420" fill="white"/>
<text x="481.0" y="26" text-anchor="middle" font-size="17" font-weight="bold">Complex BLAS-1 — PureBLAS / OpenBLAS (PB/OpenBLAS ratio)</text>
<line x1="46" y1="42" x2="68" y2="42" stroke="#d62728" stroke-width="3"/>
<text x="73" y="46" font-size="12">Zen3 · AVX2</text>
<line x1="176" y1="42" x2="198" y2="42" stroke="#2ca02c" stroke-width="3"/>
<text x="203" y="46" font-size="12">Zen5 · AVX-512</text>
<line x1="327" y1="42" x2="349" y2="42" stroke="#1f77b4" stroke-width="3"/>
<text x="354" y="46" font-size="12">Zen4 · AVX-512</text>
<rect x="46" y="60" width="210" height="138" fill="none" stroke="#e2e2e2"/>
<line x1="46" y1="115.76276119065531" x2="256" y2="115.76276119065531" stroke="#d33" stroke-dasharray="4 3"/>
<text x="42" y="201.0" text-anchor="end" font-size="9" fill="#999">0.5×</text>
<text x="42" y="118.76276119065531" text-anchor="end" font-size="9" fill="#999">1.0×</text>
<text x="42" y="63.0" text-anchor="end" font-size="9" fill="#999">1.6×</text>
<polygon points="46.0,97.5 79.4,115.3 116.0,116.7 149.4,115.5 186.0,115.3 219.4,114.9 256.0,119.7 256.0,121.9 219.4,119.0 186.0,117.4 149.4,117.5 116.0,123.6 79.4,116.0 46.0,99.5" fill="#d62728" opacity="0.11"/>
<polyline points="46.0,98.2 79.4,115.9 116.0,117.6 149.4,116.3 186.0,115.9 219.4,117.1 256.0,121.0" fill="none" stroke="#d62728" stroke-width="1.6"/>
<circle cx="46.0" cy="98.2" r="2" fill="#d62728"/>
<circle cx="79.4" cy="115.9" r="2" fill="#d62728"/>
<circle cx="116.0" cy="117.6" r="2" fill="#d62728"/>
<circle cx="149.4" cy="116.3" r="2" fill="#d62728"/>
<circle cx="186.0" cy="115.9" r="2" fill="#d62728"/>
<circle cx="219.4" cy="117.1" r="2" fill="#d62728"/>
<circle cx="256.0" cy="121.0" r="2" fill="#d62728"/>
<polygon points="46.0,87.7 79.4,121.9 116.0,112.3 149.4,108.4 186.0,113.0 219.4,103.1 256.0,108.0 256.0,117.6 219.4,111.5 186.0,115.6 149.4,112.8 116.0,124.8 79.4,123.9 46.0,89.6" fill="#2ca02c" opacity="0.11"/>
<polyline points="46.0,88.5 79.4,123.4 116.0,121.8 149.4,110.4 186.0,114.4 219.4,107.6 256.0,114.6" fill="none" stroke="#2ca02c" stroke-width="1.6"/>
<circle cx="46.0" cy="88.5" r="2" fill="#2ca02c"/>
<circle cx="79.4" cy="123.4" r="2" fill="#2ca02c"/>
<circle cx="116.0" cy="121.8" r="2" fill="#2ca02c"/>
<circle cx="149.4" cy="110.4" r="2" fill="#2ca02c"/>
<circle cx="186.0" cy="114.4" r="2" fill="#2ca02c"/>
<circle cx="219.4" cy="107.6" r="2" fill="#2ca02c"/>
<circle cx="256.0" cy="114.6" r="2" fill="#2ca02c"/>
<polygon points="46.0,95.2 79.4,114.2 116.0,115.4 149.4,109.8 186.0,120.8 219.4,119.3 256.0,113.9 256.0,117.4 219.4,121.8 186.0,121.7 149.4,115.4 116.0,125.7 79.4,114.5 46.0,98.1" fill="#1f77b4" opacity="0.11"/>
<polyline points="46.0,96.3 79.4,114.3 116.0,118.7 149.4,113.3 186.0,121.3 219.4,120.3 256.0,115.7" fill="none" stroke="#1f77b4" stroke-width="1.6"/>
<circle cx="46.0" cy="96.3" r="2" fill="#1f77b4"/>
<circle cx="79.4" cy="114.3" r="2" fill="#1f77b4"/>
<circle cx="116.0" cy="118.7" r="2" fill="#1f77b4"/>
<circle cx="149.4" cy="113.3" r="2" fill="#1f77b4"/>
<circle cx="186.0" cy="121.3" r="2" fill="#1f77b4"/>
<circle cx="219.4" cy="120.3" r="2" fill="#1f77b4"/>
<circle cx="256.0" cy="115.7" r="2" fill="#1f77b4"/>
<text x="151.0" y="55" text-anchor="middle" font-size="12" font-weight="bold">zaxpy</text>
<line x1="46.0" y1="60" x2="46.0" y2="198" stroke="#f4f4f4"/>
<text x="46.0" y="209" text-anchor="middle" font-size="8" fill="#999">1000</text>
<line x1="79.4" y1="60" x2="79.4" y2="198" stroke="#f4f4f4"/>
<text x="79.4" y="209" text-anchor="middle" font-size="8" fill="#999">2k</text>
<line x1="116.0" y1="60" x2="116.0" y2="198" stroke="#f4f4f4"/>
<text x="116.0" y="209" text-anchor="middle" font-size="8" fill="#999">9k</text>
<line x1="149.4" y1="60" x2="149.4" y2="198" stroke="#f4f4f4"/>
<text x="149.4" y="209" text-anchor="middle" font-size="8" fill="#999">29k</text>
<line x1="186.0" y1="60" x2="186.0" y2="198" stroke="#f4f4f4"/>
<text x="186.0" y="209" text-anchor="middle" font-size="8" fill="#999">97k</text>
<line x1="219.4" y1="60" x2="219.4" y2="198" stroke="#f4f4f4"/>
<text x="219.4" y="209" text-anchor="middle" font-size="8" fill="#999">292k</text>
<line x1="256.0" y1="60" x2="256.0" y2="198" stroke="#f4f4f4"/>
<text x="256.0" y="209" text-anchor="middle" font-size="8" fill="#999">976k</text>
<rect x="276" y="60" width="210" height="138" fill="none" stroke="#e2e2e2"/>
<line x1="276" y1="115.76276119065531" x2="486" y2="115.76276119065531" stroke="#d33" stroke-dasharray="4 3"/>
<text x="272" y="201.0" text-anchor="end" font-size="9" fill="#999">0.5×</text>
<text x="272" y="118.76276119065531" text-anchor="end" font-size="9" fill="#999">1.0×</text>
<text x="272" y="63.0" text-anchor="end" font-size="9" fill="#999">1.6×</text>
<polygon points="276.0,143.6 309.4,115.5 346.0,114.8 379.4,110.0 416.0,111.2 449.4,110.4 486.0,112.5 486.0,119.3 449.4,114.7 416.0,114.3 379.4,113.6 346.0,118.0 309.4,116.0 276.0,144.8" fill="#d62728" opacity="0.11"/>
<polyline points="276.0,144.1 309.4,115.8 346.0,115.8 379.4,111.5 416.0,113.3 449.4,112.5 486.0,117.5" fill="none" stroke="#d62728" stroke-width="1.6"/>
<circle cx="276.0" cy="144.1" r="2" fill="#d62728"/>
<circle cx="309.4" cy="115.8" r="2" fill="#d62728"/>
<circle cx="346.0" cy="115.8" r="2" fill="#d62728"/>
<circle cx="379.4" cy="111.5" r="2" fill="#d62728"/>
<circle cx="416.0" cy="113.3" r="2" fill="#d62728"/>
<circle cx="449.4" cy="112.5" r="2" fill="#d62728"/>
<circle cx="486.0" cy="117.5" r="2" fill="#d62728"/>
<polygon points="276.0,104.4 309.4,101.8 346.0,80.3 379.4,105.2 416.0,114.4 449.4,118.9 486.0,91.1 486.0,93.9 449.4,124.6 416.0,117.2 379.4,110.7 346.0,103.3 309.4,105.4 276.0,111.0" fill="#2ca02c" opacity="0.11"/>
<polyline points="276.0,109.4 309.4,104.0 346.0,99.7 379.4,108.0 416.0,115.9 449.4,122.1 486.0,93.0" fill="none" stroke="#2ca02c" stroke-width="1.6"/>
<circle cx="276.0" cy="109.4" r="2" fill="#2ca02c"/>
<circle cx="309.4" cy="104.0" r="2" fill="#2ca02c"/>
<circle cx="346.0" cy="99.7" r="2" fill="#2ca02c"/>
<circle cx="379.4" cy="108.0" r="2" fill="#2ca02c"/>
<circle cx="416.0" cy="115.9" r="2" fill="#2ca02c"/>
<circle cx="449.4" cy="122.1" r="2" fill="#2ca02c"/>
<circle cx="486.0" cy="93.0" r="2" fill="#2ca02c"/>
<polygon points="276.0,103.9 309.4,114.6 346.0,115.1 379.4,103.8 416.0,90.0 449.4,90.4 486.0,95.7 486.0,99.1 449.4,94.6 416.0,94.9 379.4,122.3 346.0,115.8 309.4,115.0 276.0,116.3" fill="#1f77b4" opacity="0.11"/>
<polyline points="276.0,114.5 309.4,114.9 346.0,115.6 379.4,107.7 416.0,92.4 449.4,92.4 486.0,97.2" fill="none" stroke="#1f77b4" stroke-width="1.6"/>
<circle cx="276.0" cy="114.5" r="2" fill="#1f77b4"/>
<circle cx="309.4" cy="114.9" r="2" fill="#1f77b4"/>
<circle cx="346.0" cy="115.6" r="2" fill="#1f77b4"/>
<circle cx="379.4" cy="107.7" r="2" fill="#1f77b4"/>
<circle cx="416.0" cy="92.4" r="2" fill="#1f77b4"/>
<circle cx="449.4" cy="92.4" r="2" fill="#1f77b4"/>
<circle cx="486.0" cy="97.2" r="2" fill="#1f77b4"/>
<text x="381.0" y="55" text-anchor="middle" font-size="12" font-weight="bold">zdotc</text>
<line x1="276.0" y1="60" x2="276.0" y2="198" stroke="#f4f4f4"/>
<text x="276.0" y="209" text-anchor="middle" font-size="8" fill="#999">1000</text>
<line x1="309.4" y1="60" x2="309.4" y2="198" stroke="#f4f4f4"/>
<text x="309.4" y="209" text-anchor="middle" font-size="8" fill="#999">2k</text>
<line x1="346.0" y1="60" x2="346.0" y2="198" stroke="#f4f4f4"/>
<text x="346.0" y="209" text-anchor="middle" font-size="8" fill="#999">9k</text>
<line x1="379.4" y1="60" x2="379.4" y2="198" stroke="#f4f4f4"/>
<text x="379.4" y="209" text-anchor="middle" font-size="8" fill="#999">29k</text>
<line x1="416.0" y1="60" x2="416.0" y2="198" stroke="#f4f4f4"/>
<text x="416.0" y="209" text-anchor="middle" font-size="8" fill="#999">97k</text>
<line x1="449.4" y1="60" x2="449.4" y2="198" stroke="#f4f4f4"/>
<text x="449.4" y="209" text-anchor="middle" font-size="8" fill="#999">292k</text>
<line x1="486.0" y1="60" x2="486.0" y2="198" stroke="#f4f4f4"/>
<text x="486.0" y="209" text-anchor="middle" font-size="8" fill="#999">976k</text>
<rect x="506" y="60" width="210" height="138" fill="none" stroke="#e2e2e2"/>
<line x1="506" y1="115.76276119065531" x2="716" y2="115.76276119065531" stroke="#d33" stroke-dasharray="4 3"/>
<text x="502" y="201.0" text-anchor="end" font-size="9" fill="#999">0.5×</text>
<text x="502" y="118.76276119065531" text-anchor="end" font-size="9" fill="#999">1.0×</text>
<text x="502" y="63.0" text-anchor="end" font-size="9" fill="#999">1.6×</text>
<polygon points="506.0,111.1 539.4,116.2 576.0,115.8 609.4,112.9 646.0,115.8 679.4,115.5 716.0,111.9 716.0,118.6 679.4,118.7 646.0,118.5 609.4,117.6 576.0,116.3 539.4,116.7 506.0,111.7" fill="#d62728" opacity="0.11"/>
<polyline points="506.0,111.3 539.4,116.4 576.0,116.1 609.4,114.7 646.0,117.8 679.4,117.6 716.0,116.8" fill="none" stroke="#d62728" stroke-width="1.6"/>
<circle cx="506.0" cy="111.3" r="2" fill="#d62728"/>
<circle cx="539.4" cy="116.4" r="2" fill="#d62728"/>
<circle cx="576.0" cy="116.1" r="2" fill="#d62728"/>
<circle cx="609.4" cy="114.7" r="2" fill="#d62728"/>
<circle cx="646.0" cy="117.8" r="2" fill="#d62728"/>
<circle cx="679.4" cy="117.6" r="2" fill="#d62728"/>
<circle cx="716.0" cy="116.8" r="2" fill="#d62728"/>
<polygon points="506.0,112.5 539.4,110.6 576.0,115.5 609.4,115.5 646.0,115.2 679.4,114.7 716.0,110.0 716.0,125.2 679.4,118.4 646.0,116.9 609.4,116.5 576.0,116.5 539.4,114.0 506.0,114.1" fill="#2ca02c" opacity="0.11"/>
<polyline points="506.0,113.4 539.4,113.0 576.0,116.0 609.4,116.1 646.0,116.1 679.4,116.6 716.0,118.5" fill="none" stroke="#2ca02c" stroke-width="1.6"/>
<circle cx="506.0" cy="113.4" r="2" fill="#2ca02c"/>
<circle cx="539.4" cy="113.0" r="2" fill="#2ca02c"/>
<circle cx="576.0" cy="116.0" r="2" fill="#2ca02c"/>
<circle cx="609.4" cy="116.1" r="2" fill="#2ca02c"/>
<circle cx="646.0" cy="116.1" r="2" fill="#2ca02c"/>
<circle cx="679.4" cy="116.6" r="2" fill="#2ca02c"/>
<circle cx="716.0" cy="118.5" r="2" fill="#2ca02c"/>
<polygon points="506.0,112.1 539.4,114.5 576.0,115.3 609.4,113.8 646.0,116.5 679.4,116.2 716.0,109.4 716.0,122.2 679.4,119.8 646.0,118.3 609.4,117.0 576.0,115.5 539.4,114.8 506.0,113.1" fill="#1f77b4" opacity="0.11"/>
<polyline points="506.0,112.7 539.4,114.6 576.0,115.4 609.4,115.6 646.0,117.4 679.4,117.0 716.0,116.1" fill="none" stroke="#1f77b4" stroke-width="1.6"/>
<circle cx="506.0" cy="112.7" r="2" fill="#1f77b4"/>
<circle cx="539.4" cy="114.6" r="2" fill="#1f77b4"/>
<circle cx="576.0" cy="115.4" r="2" fill="#1f77b4"/>
<circle cx="609.4" cy="115.6" r="2" fill="#1f77b4"/>
<circle cx="646.0" cy="117.4" r="2" fill="#1f77b4"/>
<circle cx="679.4" cy="117.0" r="2" fill="#1f77b4"/>
<circle cx="716.0" cy="116.1" r="2" fill="#1f77b4"/>
<text x="611.0" y="55" text-anchor="middle" font-size="12" font-weight="bold">zscal</text>
<line x1="506.0" y1="60" x2="506.0" y2="198" stroke="#f4f4f4"/>
<text x="506.0" y="209" text-anchor="middle" font-size="8" fill="#999">1000</text>
<line x1="539.4" y1="60" x2="539.4" y2="198" stroke="#f4f4f4"/>
<text x="539.4" y="209" text-anchor="middle" font-size="8" fill="#999">2k</text>
<line x1="576.0" y1="60" x2="576.0" y2="198" stroke="#f4f4f4"/>
<text x="576.0" y="209" text-anchor="middle" font-size="8" fill="#999">9k</text>
<line x1="609.4" y1="60" x2="609.4" y2="198" stroke="#f4f4f4"/>
<text x="609.4" y="209" text-anchor="middle" font-size="8" fill="#999">29k</text>
<line x1="646.0" y1="60" x2="646.0" y2="198" stroke="#f4f4f4"/>
<text x="646.0" y="209" text-anchor="middle" font-size="8" fill="#999">97k</text>
<line x1="679.4" y1="60" x2="679.4" y2="198" stroke="#f4f4f4"/>
<text x="679.4" y="209" text-anchor="middle" font-size="8" fill="#999">292k</text>
<line x1="716.0" y1="60" x2="716.0" y2="198" stroke="#f4f4f4"/>
<text x="716.0" y="209" text-anchor="middle" font-size="8" fill="#999">976k</text>
<rect x="736" y="60" width="210" height="138" fill="none" stroke="#e2e2e2"/>
<line x1="736" y1="170.48399442908342" x2="946" y2="170.48399442908342" stroke="#d33" stroke-dasharray="4 3"/>
<text x="732" y="201.0" text-anchor="end" font-size="9" fill="#999">0.5×</text>
<text x="732" y="173.48399442908342" text-anchor="end" font-size="9" fill="#999">1.0×</text>
<text x="732" y="63.000414319373114" text-anchor="end" font-size="9" fill="#999">16.17×</text>
<polygon points="736.0,88.6 769.4,88.7 806.0,88.2 839.4,88.8 876.0,97.4 909.4,97.9 946.0,102.0 946.0,103.8 909.4,103.8 876.0,100.2 839.4,94.4 806.0,88.3 769.4,88.8 736.0,88.8" fill="#d62728" opacity="0.11"/>
<polyline points="736.0,88.8 769.4,88.8 806.0,88.2 839.4,92.2 876.0,98.0 909.4,98.6 946.0,102.8" fill="none" stroke="#d62728" stroke-width="1.6"/>
<circle cx="736.0" cy="88.8" r="2" fill="#d62728"/>
<circle cx="769.4" cy="88.8" r="2" fill="#d62728"/>
<circle cx="806.0" cy="88.2" r="2" fill="#d62728"/>
<circle cx="839.4" cy="92.2" r="2" fill="#d62728"/>
<circle cx="876.0" cy="98.0" r="2" fill="#d62728"/>
<circle cx="909.4" cy="98.6" r="2" fill="#d62728"/>
<circle cx="946.0" cy="102.8" r="2" fill="#d62728"/>
<polygon points="736.0,65.3 769.4,63.1 806.0,74.8 839.4,66.3 876.0,90.8 909.4,96.1 946.0,99.1 946.0,110.3 909.4,102.9 876.0,92.6 839.4,68.1 806.0,75.2 769.4,64.1 736.0,65.9" fill="#2ca02c" opacity="0.11"/>
<polyline points="736.0,65.6 769.4,63.4 806.0,75.0 839.4,67.2 876.0,91.8 909.4,100.6 946.0,107.1" fill="none" stroke="#2ca02c" stroke-width="1.6"/>
<circle cx="736.0" cy="65.6" r="2" fill="#2ca02c"/>
<circle cx="769.4" cy="63.4" r="2" fill="#2ca02c"/>
<circle cx="806.0" cy="75.0" r="2" fill="#2ca02c"/>
<circle cx="839.4" cy="67.2" r="2" fill="#2ca02c"/>
<circle cx="876.0" cy="91.8" r="2" fill="#2ca02c"/>
<circle cx="909.4" cy="100.6" r="2" fill="#2ca02c"/>
<circle cx="946.0" cy="107.1" r="2" fill="#2ca02c"/>
<polygon points="736.0,69.1 769.4,87.6 806.0,88.0 839.4,88.0 876.0,94.9 909.4,95.8 946.0,105.6 946.0,107.2 909.4,97.1 876.0,95.9 839.4,89.2 806.0,88.2 769.4,88.0 736.0,70.4" fill="#1f77b4" opacity="0.11"/>
<polyline points="736.0,69.7 769.4,87.6 806.0,88.0 839.4,88.1 876.0,95.3 909.4,96.2 946.0,106.4" fill="none" stroke="#1f77b4" stroke-width="1.6"/>
<circle cx="736.0" cy="69.7" r="2" fill="#1f77b4"/>
<circle cx="769.4" cy="87.6" r="2" fill="#1f77b4"/>
<circle cx="806.0" cy="88.0" r="2" fill="#1f77b4"/>
<circle cx="839.4" cy="88.1" r="2" fill="#1f77b4"/>
<circle cx="876.0" cy="95.3" r="2" fill="#1f77b4"/>
<circle cx="909.4" cy="96.2" r="2" fill="#1f77b4"/>
<circle cx="946.0" cy="106.4" r="2" fill="#1f77b4"/>
<text x="841.0" y="55" text-anchor="middle" font-size="12" font-weight="bold">dznrm2</text>
<line x1="736.0" y1="60" x2="736.0" y2="198" stroke="#f4f4f4"/>
<text x="736.0" y="209" text-anchor="middle" font-size="8" fill="#999">1000</text>
<line x1="769.4" y1="60" x2="769.4" y2="198" stroke="#f4f4f4"/>
<text x="769.4" y="209" text-anchor="middle" font-size="8" fill="#999">2k</text>
<line x1="806.0" y1="60" x2="806.0" y2="198" stroke="#f4f4f4"/>
<text x="806.0" y="209" text-anchor="middle" font-size="8" fill="#999">9k</text>
<line x1="839.4" y1="60" x2="839.4" y2="198" stroke="#f4f4f4"/>
<text x="839.4" y="209" text-anchor="middle" font-size="8" fill="#999">29k</text>
<line x1="876.0" y1="60" x2="876.0" y2="198" stroke="#f4f4f4"/>
<text x="876.0" y="209" text-anchor="middle" font-size="8" fill="#999">97k</text>
<line x1="909.4" y1="60" x2="909.4" y2="198" stroke="#f4f4f4"/>
<text x="909.4" y="209" text-anchor="middle" font-size="8" fill="#999">292k</text>
<line x1="946.0" y1="60" x2="946.0" y2="198" stroke="#f4f4f4"/>
<text x="946.0" y="209" text-anchor="middle" font-size="8" fill="#999">976k</text>
<rect x="46" y="232" width="210" height="138" fill="none" stroke="#e2e2e2"/>
<line x1="46" y1="304.3407983567492" x2="256" y2="304.3407983567492" stroke="#d33" stroke-dasharray="4 3"/>
<text x="42" y="373.0" text-anchor="end" font-size="9" fill="#999">0.5×</text>
<text x="42" y="307.3407983567492" text-anchor="end" font-size="9" fill="#999">1.0×</text>
<polygon points="46.0,239.3 79.4,261.0 116.0,252.8 149.4,264.6 186.0,272.9 219.4,276.4 256.0,278.6 256.0,282.4 219.4,283.6 186.0,278.2 149.4,270.4 116.0,263.2 79.4,261.9 46.0,243.2" fill="#d62728" opacity="0.11"/>
<polyline points="46.0,241.3 79.4,261.7 116.0,262.3 149.4,268.4 186.0,277.0 219.4,277.2 256.0,280.6" fill="none" stroke="#d62728" stroke-width="1.6"/>
<circle cx="46.0" cy="241.3" r="2" fill="#d62728"/>
<circle cx="79.4" cy="261.7" r="2" fill="#d62728"/>
<circle cx="116.0" cy="262.3" r="2" fill="#d62728"/>
<circle cx="149.4" cy="268.4" r="2" fill="#d62728"/>
<circle cx="186.0" cy="277.0" r="2" fill="#d62728"/>
<circle cx="219.4" cy="277.2" r="2" fill="#d62728"/>
<circle cx="256.0" cy="280.6" r="2" fill="#d62728"/>
<polygon points="46.0,297.1 79.4,302.2 116.0,298.1 149.4,305.1 186.0,300.3 219.4,299.8 256.0,286.3 256.0,297.8 219.4,305.1 186.0,301.6 149.4,310.8 116.0,298.6 79.4,302.6 46.0,298.2" fill="#2ca02c" opacity="0.11"/>
<polyline points="46.0,297.3 79.4,302.4 116.0,298.4 149.4,309.1 186.0,301.0 219.4,303.1 256.0,292.7" fill="none" stroke="#2ca02c" stroke-width="1.6"/>
<circle cx="46.0" cy="297.3" r="2" fill="#2ca02c"/>
<circle cx="79.4" cy="302.4" r="2" fill="#2ca02c"/>
<circle cx="116.0" cy="298.4" r="2" fill="#2ca02c"/>
<circle cx="149.4" cy="309.1" r="2" fill="#2ca02c"/>
<circle cx="186.0" cy="301.0" r="2" fill="#2ca02c"/>
<circle cx="219.4" cy="303.1" r="2" fill="#2ca02c"/>
<circle cx="256.0" cy="292.7" r="2" fill="#2ca02c"/>
<polygon points="46.0,306.1 79.4,303.3 116.0,303.8 149.4,303.7 186.0,300.8 219.4,302.7 256.0,300.8 256.0,306.9 219.4,304.5 186.0,303.7 149.4,304.8 116.0,304.1 79.4,303.5 46.0,308.8" fill="#1f77b4" opacity="0.11"/>
<polyline points="46.0,307.8 79.4,303.4 116.0,304.0 149.4,304.2 186.0,303.4 219.4,303.3 256.0,303.4" fill="none" stroke="#1f77b4" stroke-width="1.6"/>
<circle cx="46.0" cy="307.8" r="2" fill="#1f77b4"/>
<circle cx="79.4" cy="303.4" r="2" fill="#1f77b4"/>
<circle cx="116.0" cy="304.0" r="2" fill="#1f77b4"/>
<circle cx="149.4" cy="304.2" r="2" fill="#1f77b4"/>
<circle cx="186.0" cy="303.4" r="2" fill="#1f77b4"/>
<circle cx="219.4" cy="303.3" r="2" fill="#1f77b4"/>
<circle cx="256.0" cy="303.4" r="2" fill="#1f77b4"/>
<text x="151.0" y="227" text-anchor="middle" font-size="12" font-weight="bold">dzasum</text>
<line x1="46.0" y1="232" x2="46.0" y2="370" stroke="#f4f4f4"/>
<text x="46.0" y="381" text-anchor="middle" font-size="8" fill="#999">1000</text>
<line x1="79.4" y1="232" x2="79.4" y2="370" stroke="#f4f4f4"/>
<text x="79.4" y="381" text-anchor="middle" font-size="8" fill="#999">2k</text>
<line x1="116.0" y1="232" x2="116.0" y2="370" stroke="#f4f4f4"/>
<text x="116.0" y="381" text-anchor="middle" font-size="8" fill="#999">9k</text>
<line x1="149.4" y1="232" x2="149.4" y2="370" stroke="#f4f4f4"/>
<text x="149.4" y="381" text-anchor="middle" font-size="8" fill="#999">29k</text>
<line x1="186.0" y1="232" x2="186.0" y2="370" stroke="#f4f4f4"/>
<text x="186.0" y="381" text-anchor="middle" font-size="8" fill="#999">97k</text>
<line x1="219.4" y1="232" x2="219.4" y2="370" stroke="#f4f4f4"/>
<text x="219.4" y="381" text-anchor="middle" font-size="8" fill="#999">292k</text>
<line x1="256.0" y1="232" x2="256.0" y2="370" stroke="#f4f4f4"/>
<text x="256.0" y="381" text-anchor="middle" font-size="8" fill="#999">976k</text>
<rect x="276" y="232" width="210" height="138" fill="none" stroke="#e2e2e2"/>
<line x1="276" y1="287.7627611906553" x2="486" y2="287.7627611906553" stroke="#d33" stroke-dasharray="4 3"/>
<text x="272" y="373.0" text-anchor="end" font-size="9" fill="#999">0.5×</text>
<text x="272" y="290.7627611906553" text-anchor="end" font-size="9" fill="#999">1.0×</text>
<text x="272" y="235.0" text-anchor="end" font-size="9" fill="#999">1.6×</text>
<polygon points="276.0,315.4 309.4,287.3 346.0,284.5 379.4,282.4 416.0,284.1 449.4,282.1 486.0,285.6 486.0,294.0 449.4,286.3 416.0,287.7 379.4,284.9 346.0,289.8 309.4,287.9 276.0,316.4" fill="#d62728" opacity="0.11"/>
<polyline points="276.0,315.7 309.4,287.7 346.0,287.6 379.4,283.1 416.0,285.1 449.4,284.1 486.0,288.9" fill="none" stroke="#d62728" stroke-width="1.6"/>
<circle cx="276.0" cy="315.7" r="2" fill="#d62728"/>
<circle cx="309.4" cy="287.7" r="2" fill="#d62728"/>
<circle cx="346.0" cy="287.6" r="2" fill="#d62728"/>
<circle cx="379.4" cy="283.1" r="2" fill="#d62728"/>
<circle cx="416.0" cy="285.1" r="2" fill="#d62728"/>
<circle cx="449.4" cy="284.1" r="2" fill="#d62728"/>
<circle cx="486.0" cy="288.9" r="2" fill="#d62728"/>
<polygon points="276.0,276.9 309.4,272.3 346.0,250.0 379.4,276.6 416.0,285.3 449.4,284.4 486.0,261.7 486.0,268.0 449.4,296.2 416.0,287.5 379.4,280.2 346.0,272.0 309.4,275.7 276.0,284.3" fill="#2ca02c" opacity="0.11"/>
<polyline points="276.0,282.6 309.4,274.5 346.0,252.6 379.4,278.8 416.0,286.1 449.4,291.9 486.0,264.7" fill="none" stroke="#2ca02c" stroke-width="1.6"/>
<circle cx="276.0" cy="282.6" r="2" fill="#2ca02c"/>
<circle cx="309.4" cy="274.5" r="2" fill="#2ca02c"/>
<circle cx="346.0" cy="252.6" r="2" fill="#2ca02c"/>
<circle cx="379.4" cy="278.8" r="2" fill="#2ca02c"/>
<circle cx="416.0" cy="286.1" r="2" fill="#2ca02c"/>
<circle cx="449.4" cy="291.9" r="2" fill="#2ca02c"/>
<circle cx="486.0" cy="264.7" r="2" fill="#2ca02c"/>
<polygon points="276.0,269.6 309.4,286.5 346.0,287.1 379.4,277.6 416.0,262.7 449.4,262.0 486.0,268.0 486.0,271.4 449.4,267.0 416.0,267.3 379.4,295.7 346.0,287.8 309.4,286.8 276.0,284.7" fill="#1f77b4" opacity="0.11"/>
<polyline points="276.0,275.1 309.4,286.7 346.0,287.3 379.4,282.1 416.0,265.1 449.4,264.8 486.0,269.8" fill="none" stroke="#1f77b4" stroke-width="1.6"/>
<circle cx="276.0" cy="275.1" r="2" fill="#1f77b4"/>
<circle cx="309.4" cy="286.7" r="2" fill="#1f77b4"/>
<circle cx="346.0" cy="287.3" r="2" fill="#1f77b4"/>
<circle cx="379.4" cy="282.1" r="2" fill="#1f77b4"/>
<circle cx="416.0" cy="265.1" r="2" fill="#1f77b4"/>
<circle cx="449.4" cy="264.8" r="2" fill="#1f77b4"/>
<circle cx="486.0" cy="269.8" r="2" fill="#1f77b4"/>
<text x="381.0" y="227" text-anchor="middle" font-size="12" font-weight="bold">zdotu</text>
<line x1="276.0" y1="232" x2="276.0" y2="370" stroke="#f4f4f4"/>
<text x="276.0" y="381" text-anchor="middle" font-size="8" fill="#999">1000</text>
<line x1="309.4" y1="232" x2="309.4" y2="370" stroke="#f4f4f4"/>
<text x="309.4" y="381" text-anchor="middle" font-size="8" fill="#999">2k</text>
<line x1="346.0" y1="232" x2="346.0" y2="370" stroke="#f4f4f4"/>
<text x="346.0" y="381" text-anchor="middle" font-size="8" fill="#999">9k</text>
<line x1="379.4" y1="232" x2="379.4" y2="370" stroke="#f4f4f4"/>
<text x="379.4" y="381" text-anchor="middle" font-size="8" fill="#999">29k</text>
<line x1="416.0" y1="232" x2="416.0" y2="370" stroke="#f4f4f4"/>
<text x="416.0" y="381" text-anchor="middle" font-size="8" fill="#999">97k</text>
<line x1="449.4" y1="232" x2="449.4" y2="370" stroke="#f4f4f4"/>
<text x="449.4" y="381" text-anchor="middle" font-size="8" fill="#999">292k</text>
<line x1="486.0" y1="232" x2="486.0" y2="370" stroke="#f4f4f4"/>
<text x="486.0" y="381" text-anchor="middle" font-size="8" fill="#999">976k</text>
<rect x="506" y="232" width="210" height="138" fill="none" stroke="#e2e2e2"/>
<line x1="506" y1="310.1881184833834" x2="716" y2="310.1881184833834" stroke="#d33" stroke-dasharray="4 3"/>
<text x="502" y="373.0" text-anchor="end" font-size="9" fill="#999">0.5×</text>
<text x="502" y="313.1881184833834" text-anchor="end" font-size="9" fill="#999">1.0×</text>
<text x="502" y="235.16285861352844" text-anchor="end" font-size="9" fill="#999">2.47×</text>
<polygon points="506.0,276.8 539.4,276.7 576.0,277.5 609.4,277.4 646.0,276.4 679.4,277.5 716.0,280.0 716.0,318.3 679.4,320.2 646.0,321.2 609.4,323.2 576.0,322.9 539.4,319.8 506.0,325.7" fill="#d62728" opacity="0.11"/>
<polyline points="506.0,296.7 539.4,296.2 576.0,300.5 609.4,295.7 646.0,292.1 679.4,295.4 716.0,301.6" fill="none" stroke="#d62728" stroke-width="1.6"/>
<circle cx="506.0" cy="296.7" r="2" fill="#d62728"/>
<circle cx="539.4" cy="296.2" r="2" fill="#d62728"/>
<circle cx="576.0" cy="300.5" r="2" fill="#d62728"/>
<circle cx="609.4" cy="295.7" r="2" fill="#d62728"/>
<circle cx="646.0" cy="292.1" r="2" fill="#d62728"/>
<circle cx="679.4" cy="295.4" r="2" fill="#d62728"/>
<circle cx="716.0" cy="301.6" r="2" fill="#d62728"/>
<polygon points="506.0,240.3 539.4,240.0 576.0,239.3 609.4,239.2 646.0,238.6 679.4,244.7 716.0,247.7 716.0,284.3 679.4,280.7 646.0,280.4 609.4,282.3 576.0,283.1 539.4,284.1 506.0,285.8" fill="#2ca02c" opacity="0.11"/>
<polyline points="506.0,260.0 539.4,257.6 576.0,258.6 609.4,258.0 646.0,256.5 679.4,259.2 716.0,263.7" fill="none" stroke="#2ca02c" stroke-width="1.6"/>
<circle cx="506.0" cy="260.0" r="2" fill="#2ca02c"/>
<circle cx="539.4" cy="257.6" r="2" fill="#2ca02c"/>
<circle cx="576.0" cy="258.6" r="2" fill="#2ca02c"/>
<circle cx="609.4" cy="258.0" r="2" fill="#2ca02c"/>
<circle cx="646.0" cy="256.5" r="2" fill="#2ca02c"/>
<circle cx="679.4" cy="259.2" r="2" fill="#2ca02c"/>
<circle cx="716.0" cy="263.7" r="2" fill="#2ca02c"/>
<polygon points="506.0,251.2 539.4,246.9 576.0,248.1 609.4,247.5 646.0,245.7 679.4,246.0 716.0,246.4 716.0,285.1 679.4,292.6 646.0,291.1 609.4,290.6 576.0,293.1 539.4,293.6 506.0,292.7" fill="#1f77b4" opacity="0.11"/>
<polyline points="506.0,266.6 539.4,266.4 576.0,266.5 609.4,267.8 646.0,263.9 679.4,263.0 716.0,266.7" fill="none" stroke="#1f77b4" stroke-width="1.6"/>
<circle cx="506.0" cy="266.6" r="2" fill="#1f77b4"/>
<circle cx="539.4" cy="266.4" r="2" fill="#1f77b4"/>
<circle cx="576.0" cy="266.5" r="2" fill="#1f77b4"/>
<circle cx="609.4" cy="267.8" r="2" fill="#1f77b4"/>
<circle cx="646.0" cy="263.9" r="2" fill="#1f77b4"/>
<circle cx="679.4" cy="263.0" r="2" fill="#1f77b4"/>
<circle cx="716.0" cy="266.7" r="2" fill="#1f77b4"/>
<text x="611.0" y="227" text-anchor="middle" font-size="12" font-weight="bold">izamax</text>
<line x1="506.0" y1="232" x2="506.0" y2="370" stroke="#f4f4f4"/>
<text x="506.0" y="381" text-anchor="middle" font-size="8" fill="#999">1000</text>
<line x1="539.4" y1="232" x2="539.4" y2="370" stroke="#f4f4f4"/>
<text x="539.4" y="381" text-anchor="middle" font-size="8" fill="#999">2k</text>
<line x1="576.0" y1="232" x2="576.0" y2="370" stroke="#f4f4f4"/>
<text x="576.0" y="381" text-anchor="middle" font-size="8" fill="#999">9k</text>
<line x1="609.4" y1="232" x2="609.4" y2="370" stroke="#f4f4f4"/>
<text x="609.4" y="381" text-anchor="middle" font-size="8" fill="#999">29k</text>
<line x1="646.0" y1="232" x2="646.0" y2="370" stroke="#f4f4f4"/>
<text x="646.0" y="381" text-anchor="middle" font-size="8" fill="#999">97k</text>
<line x1="679.4" y1="232" x2="679.4" y2="370" stroke="#f4f4f4"/>
<text x="679.4" y="381" text-anchor="middle" font-size="8" fill="#999">292k</text>
<line x1="716.0" y1="232" x2="716.0" y2="370" stroke="#f4f4f4"/>
<text x="716.0" y="381" text-anchor="middle" font-size="8" fill="#999">976k</text>
</svg>
