<svg xmlns="http://www.w3.org/2000/svg" width="900" height="440" font-family="sans-serif">
<rect width="900" height="440" fill="white"/>
<text x="450.0" y="28" text-anchor="middle" font-size="18" font-weight="bold">BLAS-2: PureBLAS / OpenBLAS (AVX-512, 1 thread, Float64)</text>
<line x1="60" y1="358.0" x2="880" y2="358.0" stroke="#eee"/>
<text x="52" y="362.0" text-anchor="end" font-size="11" fill="#666">0×</text>
<line x1="60" y1="336.38814448279766" x2="880" y2="336.38814448279766" stroke="#eee"/>
<text x="52" y="340.38814448279766" text-anchor="end" font-size="11" fill="#666">0.5×</text>
<line x1="60" y1="314.7762889655953" x2="880" y2="314.7762889655953" stroke="#eee"/>
<text x="52" y="318.7762889655953" text-anchor="end" font-size="11" fill="#666">1×</text>
<line x1="60" y1="293.16443344839297" x2="880" y2="293.16443344839297" stroke="#eee"/>
<text x="52" y="297.16443344839297" text-anchor="end" font-size="11" fill="#666">1.5×</text>
<line x1="60" y1="314.7762889655953" x2="880" y2="314.7762889655953" stroke="#888" stroke-width="1"/>
<line x1="60" y1="316.50523740697145" x2="880" y2="316.50523740697145" stroke="#d33" stroke-width="1.5" stroke-dasharray="6 4"/>
<text x="880" y="311.50523740697145" text-anchor="end" font-size="11" fill="#d33">0.96× gate</text>
<polygon points="111.3,324.9 113.2,324.0 115.5,323.1 118.1,322.2 121.1,321.3 124.3,320.4 127.7,319.5 131.1,318.6 134.4,317.7 137.3,316.8 139.9,315.9 141.8,315.0 143.2,314.1 143.8,313.2 143.8,312.3 143.1,311.3 142.0,310.4 140.4,309.5 138.5,308.6 136.5,307.7 134.4,306.8 132.4,305.9 130.4,305.0 128.6,304.1 126.8,303.2 125.1,302.3 123.4,301.4 121.8,300.5 120.1,299.6 118.4,298.7 116.8,297.8 115.1,296.9 113.5,296.0 112.1,295.1 110.7,294.2 109.6,293.2 108.6,292.3 107.8,291.4 107.2,290.5 106.7,289.6 106.4,288.7 106.2,287.8 106.0,286.9 106.0,286.0 106.1,285.1 106.2,284.2 106.3,283.3 106.6,282.4 106.8,281.5 107.2,280.6 107.6,279.7 108.1,278.8 108.6,277.9 109.2,277.0 109.9,276.1 110.6,275.1 111.3,274.2 112.0,273.3 112.7,272.4 113.2,271.5 113.6,270.6 113.9,269.7 113.9,268.8 113.7,267.9 113.3,267.0 112.8,266.1 112.0,265.2 111.2,264.3 110.4,263.4 109.5,262.5 108.8,261.6 108.0,260.7 103.1,260.7 102.4,261.6 101.6,262.5 100.7,263.4 99.9,264.3 99.1,265.2 98.4,266.1 97.8,267.0 97.4,267.9 97.2,268.8 97.2,269.7 97.5,270.6 97.9,271.5 98.4,272.4 99.1,273.3 99.8,274.2 100.5,275.1 101.2,276.1 101.9,277.0 102.5,277.9 103.0,278.8 103.5,279.7 103.9,280.6 104.3,281.5 104.6,282.4 104.8,283.3 104.9,284.2 105.1,285.1 105.1,286.0 105.1,286.9 105.0,287.8 104.7,288.7 104.4,289.6 104.0,290.5 103.3,291.4 102.5,292.3 101.5,293.2 100.4,294.2 99.0,295.1 97.6,296.0 96.0,296.9 94.3,297.8 92.7,298.7 91.0,299.6 89.3,300.5 87.7,301.4 86.0,302.3 84.3,303.2 82.6,304.1 80.7,305.0 78.7,305.9 76.7,306.8 74.6,307.7 72.6,308.6 70.7,309.5 69.2,310.4 68.0,311.3 67.3,312.3 67.3,313.2 67.9,314.1 69.3,315.0 71.2,315.9 73.8,316.8 76.7,317.7 80.0,318.6 83.4,319.5 86.8,320.4 90.0,321.3 93.0,322.2 95.6,323.1 97.9,324.0 99.8,324.9" fill="#d33" opacity="0.5" stroke="#d33" stroke-width="1"/>
<line x1="67.5" y1="311.9514636069191" x2="143.6" y2="311.9514636069191" stroke="#114" stroke-width="2"/>
<circle cx="105.55555555555556" cy="318.1681045414144" r="2.4" fill="#114"/>
<text x="105.55555555555556" y="260.95276646174386" text-anchor="middle" font-size="11">1.07</text>
<text x="105.55555555555556" y="376" text-anchor="middle" font-size="12">gemvN</text>
<polygon points="204.2,317.2 206.0,317.0 208.1,316.8 210.3,316.6 212.6,316.3 215.0,316.1 217.5,315.9 219.9,315.7 222.3,315.5 224.5,315.3 226.5,315.0 228.3,314.8 229.9,314.6 231.2,314.4 232.4,314.2 233.3,313.9 234.0,313.7 234.5,313.5 234.8,313.3 234.9,313.1 234.8,312.9 234.5,312.6 233.9,312.4 233.1,312.2 232.0,312.0 230.7,311.8 229.3,311.6 227.7,311.3 226.1,311.1 224.4,310.9 222.7,310.7 221.1,310.5 219.5,310.3 218.0,310.0 216.5,309.8 215.1,309.6 213.7,309.4 212.4,309.2 211.0,308.9 209.7,308.7 208.4,308.5 207.1,308.3 206.0,308.1 204.9,307.9 204.0,307.6 203.4,307.4 202.9,307.2 202.7,307.0 202.8,306.8 203.1,306.6 203.8,306.3 204.9,306.1 206.2,305.9 207.8,305.7 209.6,305.5 211.7,305.2 213.8,305.0 215.8,304.8 217.8,304.6 219.5,304.4 220.9,304.2 221.8,303.9 222.3,303.7 222.2,303.5 221.6,303.3 220.4,303.1 218.9,302.9 217.0,302.6 214.8,302.4 212.6,302.2 210.3,302.0 208.1,301.8 185.2,301.8 183.0,302.0 180.8,302.2 178.5,302.4 176.4,302.6 174.5,302.9 172.9,303.1 171.8,303.3 171.2,303.5 171.1,303.7 171.5,303.9 172.4,304.2 173.8,304.4 175.5,304.6 177.5,304.8 179.6,305.0 181.7,305.2 183.7,305.5 185.5,305.7 187.1,305.9 188.5,306.1 189.5,306.3 190.2,306.6 190.6,306.8 190.7,307.0 190.4,307.2 190.0,307.4 189.3,307.6 188.4,307.9 187.4,308.1 186.2,308.3 185.0,308.5 183.7,308.7 182.3,308.9 181.0,309.2 179.6,309.4 178.2,309.6 176.8,309.8 175.3,310.0 173.8,310.3 172.3,310.5 170.6,310.7 169.0,310.9 167.3,311.1 165.6,311.3 164.0,311.6 162.6,311.8 161.3,312.0 160.3,312.2 159.4,312.4 158.8,312.6 158.5,312.9 158.4,313.1 158.5,313.3 158.8,313.5 159.4,313.7 160.1,313.9 161.0,314.2 162.1,314.4 163.4,314.6 165.0,314.8 166.8,315.0 168.8,315.3 171.0,315.5 173.4,315.7 175.8,315.9 178.3,316.1 180.7,316.3 183.1,316.6 185.3,316.8 187.3,317.0 189.1,317.2" fill="#2a8" opacity="0.5" stroke="#2a8" stroke-width="1"/>
<line x1="160.8" y1="312.0813265139976" x2="232.5" y2="312.0813265139976" stroke="#114" stroke-width="2"/>
<circle cx="196.66666666666669" cy="315.35822405139" r="2.4" fill="#114"/>
<text x="196.66666666666669" y="297.3332483210849" text-anchor="middle" font-size="11">1.06</text>
<text x="196.66666666666669" y="376" text-anchor="middle" font-size="12">gemvT</text>
<polygon points="287.8,325.4 287.8,325.1 287.8,324.8 287.9,324.4 288.0,324.1 288.1,323.8 288.2,323.5 288.3,323.2 288.4,322.9 288.5,322.6 288.5,322.2 288.5,321.9 288.5,321.6 288.5,321.3 288.5,321.0 288.5,320.7 288.4,320.4 288.4,320.0 288.4,319.7 288.4,319.4 288.4,319.1 288.5,318.8 288.6,318.5 288.6,318.2 288.7,317.8 288.7,317.5 288.8,317.2 288.9,316.9 289.1,316.6 289.6,316.3 290.5,316.0 292.0,315.7 294.1,315.3 296.6,315.0 299.2,314.7 301.3,314.4 302.7,314.1 303.5,313.8 304.3,313.5 305.6,313.1 308.0,312.8 311.6,312.5 316.0,312.2 320.5,311.9 324.1,311.6 326.0,311.3 325.7,310.9 322.9,310.6 318.2,310.3 312.4,310.0 306.4,309.7 301.0,309.4 296.9,309.1 294.2,308.7 292.9,308.4 292.7,308.1 293.3,307.8 294.3,307.5 295.3,307.2 296.1,306.9 296.3,306.5 295.9,306.2 294.9,305.9 293.6,305.6 292.2,305.3 290.9,305.0 289.8,304.7 289.0,304.4 288.4,304.0 288.1,303.7 287.9,303.4 287.8,303.1 287.7,303.1 287.6,303.4 287.4,303.7 287.1,304.0 286.6,304.4 285.8,304.7 284.7,305.0 283.4,305.3 282.0,305.6 280.6,305.9 279.7,306.2 279.3,306.5 279.5,306.9 280.3,307.2 281.3,307.5 282.3,307.8 282.8,308.1 282.6,308.4 281.3,308.7 278.6,309.1 274.5,309.4 269.2,309.7 263.1,310.0 257.3,310.3 252.7,310.6 249.9,310.9 249.5,311.3 251.4,311.6 255.1,311.9 259.6,312.2 264.0,312.5 267.6,312.8 270.0,313.1 271.3,313.5 272.0,313.8 272.9,314.1 274.3,314.4 276.4,314.7 278.9,315.0 281.4,315.3 283.5,315.7 285.0,316.0 286.0,316.3 286.4,316.6 286.7,316.9 286.8,317.2 286.8,317.5 286.9,317.8 286.9,318.2 287.0,318.5 287.1,318.8 287.1,319.1 287.2,319.4 287.2,319.7 287.2,320.0 287.1,320.4 287.1,320.7 287.1,321.0 287.0,321.3 287.0,321.6 287.0,321.9 287.0,322.2 287.1,322.6 287.1,322.9 287.2,323.2 287.4,323.5 287.5,323.8 287.6,324.1 287.7,324.4 287.7,324.8 287.7,325.1 287.8,325.4" fill="#2a8" opacity="0.5" stroke="#2a8" stroke-width="1"/>
<line x1="249.8" y1="311.33147113747606" x2="325.8" y2="311.33147113747606" stroke="#114" stroke-width="2"/>
<circle cx="287.77777777777777" cy="314.19505906725556" r="2.4" fill="#114"/>
<text x="287.77777777777777" y="299.3228665512801" text-anchor="middle" font-size="11">1.08</text>
<text x="287.77777777777777" y="376" text-anchor="middle" font-size="12">ger</text>
<polygon points="380.9,311.7 381.8,311.5 383.1,311.2 384.7,311.0 386.8,310.8 389.2,310.5 392.2,310.3 395.4,310.1 399.0,309.8 402.6,309.6 406.3,309.3 409.6,309.1 412.6,308.9 414.9,308.6 416.5,308.4 417.2,308.1 417.0,307.9 415.9,307.7 414.2,307.4 411.8,307.2 409.1,306.9 406.2,306.7 403.3,306.5 400.6,306.2 398.4,306.0 396.6,305.7 395.3,305.5 394.7,305.3 394.5,305.0 394.8,304.8 395.5,304.6 396.3,304.3 397.4,304.1 398.4,303.8 399.4,303.6 400.2,303.4 400.9,303.1 401.5,302.9 401.9,302.6 402.3,302.4 402.7,302.2 403.0,301.9 403.3,301.7 403.6,301.4 403.8,301.2 403.9,301.0 403.8,300.7 403.5,300.5 403.1,300.2 402.5,300.0 401.7,299.8 400.9,299.5 400.0,299.3 399.1,299.1 398.1,298.8 397.2,298.6 396.1,298.3 395.0,298.1 393.7,297.9 392.3,297.6 390.8,297.4 389.3,297.1 387.7,296.9 386.3,296.7 384.9,296.4 383.6,296.2 382.6,295.9 381.7,295.7 380.9,295.5 380.4,295.2 379.9,295.0 379.6,294.7 378.2,294.7 377.9,295.0 377.4,295.2 376.8,295.5 376.1,295.7 375.2,295.9 374.1,296.2 372.9,296.4 371.5,296.7 370.0,296.9 368.5,297.1 367.0,297.4 365.5,297.6 364.1,297.9 362.8,298.1 361.7,298.3 360.6,298.6 359.6,298.8 358.7,299.1 357.8,299.3 356.9,299.5 356.1,299.8 355.3,300.0 354.7,300.2 354.2,300.5 354.0,300.7 353.9,301.0 354.0,301.2 354.2,301.4 354.5,301.7 354.8,301.9 355.1,302.2 355.5,302.4 355.8,302.6 356.3,302.9 356.9,303.1 357.6,303.4 358.4,303.6 359.4,303.8 360.4,304.1 361.4,304.3 362.3,304.6 363.0,304.8 363.3,305.0 363.1,305.3 362.4,305.5 361.2,305.7 359.4,306.0 357.1,306.2 354.5,306.5 351.6,306.7 348.7,306.9 346.0,307.2 343.6,307.4 341.8,307.7 340.8,307.9 340.6,308.1 341.3,308.4 342.9,308.6 345.2,308.9 348.1,309.1 351.5,309.3 355.1,309.6 358.8,309.8 362.4,310.1 365.6,310.3 368.5,310.5 371.0,310.8 373.1,311.0 374.7,311.2 376.0,311.5 376.9,311.7" fill="#2a8" opacity="0.5" stroke="#2a8" stroke-width="1"/>
<line x1="359.3" y1="303.8124203266749" x2="398.5" y2="303.8124203266749" stroke="#114" stroke-width="2"/>
<circle cx="378.8888888888889" cy="308.6021260117245" r="2.4" fill="#114"/>
<text x="378.8888888888889" y="290.4611591816928" text-anchor="middle" font-size="11">1.25</text>
<text x="378.8888888888889" y="376" text-anchor="middle" font-size="12">symv</text>
<polygon points="471.4,317.8 471.9,317.5 472.6,317.2 473.5,316.9 474.6,316.5 476.0,316.2 477.5,315.9 479.2,315.6 481.1,315.2 483.1,314.9 485.2,314.6 487.3,314.3 489.3,313.9 491.0,313.6 492.5,313.3 493.6,313.0 494.3,312.6 494.7,312.3 494.8,312.0 494.8,311.7 494.8,311.3 495.1,311.0 495.8,310.7 497.0,310.3 498.6,310.0 500.6,309.7 502.8,309.4 505.0,309.0 506.7,308.7 507.9,308.4 508.3,308.1 507.8,307.7 506.5,307.4 504.4,307.1 501.9,306.8 499.1,306.4 496.2,306.1 493.7,305.8 491.5,305.5 489.7,305.1 488.5,304.8 487.6,304.5 486.9,304.2 486.3,303.8 485.7,303.5 484.8,303.2 483.8,302.9 482.6,302.5 481.2,302.2 479.8,301.9 478.5,301.6 477.4,301.2 476.7,300.9 476.3,300.6 476.3,300.3 476.7,299.9 477.4,299.6 478.4,299.3 479.6,299.0 480.7,298.6 481.7,298.3 482.5,298.0 482.9,297.7 482.9,297.3 482.5,297.0 481.6,296.7 480.4,296.4 479.0,296.0 477.6,295.7 476.1,295.4 474.7,295.1 473.5,294.7 466.5,294.7 465.3,295.1 463.9,295.4 462.4,295.7 461.0,296.0 459.6,296.4 458.4,296.7 457.5,297.0 457.1,297.3 457.1,297.7 457.5,298.0 458.3,298.3 459.3,298.6 460.4,299.0 461.6,299.3 462.6,299.6 463.3,299.9 463.7,300.3 463.7,300.6 463.3,300.9 462.6,301.2 461.5,301.6 460.2,301.9 458.8,302.2 457.4,302.5 456.2,302.9 455.2,303.2 454.3,303.5 453.7,303.8 453.1,304.2 452.4,304.5 451.5,304.8 450.3,305.1 448.5,305.5 446.3,305.8 443.8,306.1 440.9,306.4 438.1,306.8 435.6,307.1 433.5,307.4 432.2,307.7 431.7,308.1 432.1,308.4 433.3,308.7 435.0,309.0 437.2,309.4 439.4,309.7 441.4,310.0 443.0,310.3 444.2,310.7 444.9,311.0 445.2,311.3 445.2,311.7 445.2,312.0 445.3,312.3 445.7,312.6 446.4,313.0 447.5,313.3 449.0,313.6 450.7,313.9 452.7,314.3 454.8,314.6 456.9,314.9 458.9,315.2 460.8,315.6 462.5,315.9 464.0,316.2 465.4,316.5 466.5,316.9 467.4,317.2 468.1,317.5 468.6,317.8" fill="#2a8" opacity="0.5" stroke="#2a8" stroke-width="1"/>
<line x1="431.8" y1="308.2052349456229" x2="508.2" y2="308.2052349456229" stroke="#114" stroke-width="2"/>
<circle cx="470.0" cy="312.5618493198899" r="2.4" fill="#114"/>
<text x="470.0" y="291.03171965133936" text-anchor="middle" font-size="11">1.15</text>
<text x="470.0" y="376" text-anchor="middle" font-size="12">trmv</text>
<polygon points="561.4,318.2 561.6,318.0 561.7,317.8 561.9,317.6 562.2,317.4 562.4,317.2 562.7,317.0 563.0,316.8 563.3,316.6 563.8,316.4 564.3,316.2 565.0,316.0 566.0,315.7 567.2,315.5 568.5,315.3 570.1,315.1 571.8,314.9 573.5,314.7 575.1,314.5 576.8,314.3 578.2,314.1 579.5,313.9 580.5,313.7 581.2,313.5 581.6,313.3 581.7,313.1 581.6,312.9 581.5,312.7 581.6,312.5 582.0,312.3 582.8,312.0 584.2,311.8 586.0,311.6 588.1,311.4 590.2,311.2 592.2,311.0 593.8,310.8 594.8,310.6 595.0,310.4 594.7,310.2 593.8,310.0 592.6,309.8 591.5,309.6 590.8,309.4 590.6,309.2 591.1,309.0 592.2,308.8 593.8,308.5 595.6,308.3 597.3,308.1 598.7,307.9 599.4,307.7 599.3,307.5 598.5,307.3 597.0,307.1 594.9,306.9 592.2,306.7 589.2,306.5 585.9,306.3 582.5,306.1 579.0,305.9 575.8,305.7 572.7,305.5 570.1,305.3 567.8,305.0 565.9,304.8 564.5,304.6 563.4,304.4 562.6,304.2 562.0,304.0 561.7,303.8 561.4,303.6 560.8,303.6 560.6,303.8 560.2,304.0 559.6,304.2 558.9,304.4 557.8,304.6 556.3,304.8 554.4,305.0 552.2,305.3 549.5,305.5 546.5,305.7 543.2,305.9 539.8,306.1 536.3,306.3 533.0,306.5 530.0,306.7 527.3,306.9 525.2,307.1 523.7,307.3 522.9,307.5 522.8,307.7 523.5,307.9 524.9,308.1 526.6,308.3 528.4,308.5 530.0,308.8 531.2,309.0 531.6,309.2 531.4,309.4 530.7,309.6 529.6,309.8 528.4,310.0 527.6,310.2 527.2,310.4 527.5,310.6 528.4,310.8 530.0,311.0 532.0,311.2 534.2,311.4 536.3,311.6 538.1,311.8 539.4,312.0 540.2,312.3 540.6,312.5 540.7,312.7 540.6,312.9 540.5,313.1 540.6,313.3 541.0,313.5 541.7,313.7 542.7,313.9 544.0,314.1 545.5,314.3 547.1,314.5 548.8,314.7 550.5,314.9 552.1,315.1 553.7,315.3 555.1,315.5 556.2,315.7 557.2,316.0 557.9,316.2 558.5,316.4 558.9,316.6 559.2,316.8 559.5,317.0 559.8,317.2 560.0,317.4 560.3,317.6 560.5,317.8 560.7,318.0 560.8,318.2" fill="#2a8" opacity="0.5" stroke="#2a8" stroke-width="1"/>
<line x1="528.6" y1="309.95026246374687" x2="593.6" y2="309.95026246374687" stroke="#114" stroke-width="2"/>
<circle cx="561.1111111111111" cy="313.7852831480358" r="2.4" fill="#114"/>
<text x="561.1111111111111" y="299.09123439171276" text-anchor="middle" font-size="11">1.11</text>
<text x="561.1111111111111" y="376" text-anchor="middle" font-size="12">trsv</text>
<polygon points="653.4,324.4 653.8,323.7 654.4,323.0 655.2,322.3 656.0,321.6 656.9,320.9 657.8,320.2 658.7,319.5 659.5,318.8 660.2,318.1 660.7,317.4 661.0,316.6 661.1,315.9 660.9,315.2 660.6,314.5 660.1,313.8 659.4,313.1 658.7,312.4 658.0,311.7 657.3,311.0 656.8,310.3 656.5,309.5 656.5,308.8 656.7,308.1 657.3,307.4 658.1,306.7 659.1,306.0 660.2,305.3 661.3,304.6 662.2,303.9 663.0,303.2 663.4,302.5 663.5,301.7 663.3,301.0 663.0,300.3 662.8,299.6 662.7,298.9 663.1,298.2 664.0,297.5 665.6,296.8 667.8,296.1 670.7,295.4 674.1,294.7 677.8,293.9 681.5,293.2 684.9,292.5 687.6,291.8 689.6,291.1 690.5,290.4 690.4,289.7 689.2,289.0 687.3,288.3 684.7,287.6 681.8,286.8 678.8,286.1 676.0,285.4 673.5,284.7 671.4,284.0 669.6,283.3 668.1,282.6 666.8,281.9 665.5,281.2 664.1,280.5 662.8,279.8 661.3,279.0 659.9,278.3 658.5,277.6 657.1,276.9 656.0,276.2 655.0,275.5 654.2,274.8 653.6,274.1 650.9,274.1 650.3,274.8 649.5,275.5 648.5,276.2 647.3,276.9 646.0,277.6 644.6,278.3 643.1,279.0 641.7,279.8 640.3,280.5 639.0,281.2 637.7,281.9 636.3,282.6 634.8,283.3 633.0,284.0 630.9,284.7 628.4,285.4 625.6,286.1 622.7,286.8 619.8,287.6 617.2,288.3 615.2,289.0 614.1,289.7 614.0,290.4 614.9,291.1 616.8,291.8 619.6,292.5 622.9,293.2 626.6,293.9 630.3,294.7 633.7,295.4 636.6,296.1 638.9,296.8 640.4,297.5 641.4,298.2 641.7,298.9 641.7,299.6 641.4,300.3 641.1,301.0 641.0,301.7 641.1,302.5 641.5,303.2 642.2,303.9 643.2,304.6 644.2,305.3 645.4,306.0 646.4,306.7 647.2,307.4 647.7,308.1 648.0,308.8 647.9,309.5 647.6,310.3 647.1,311.0 646.5,311.7 645.8,312.4 645.0,313.1 644.4,313.8 643.9,314.5 643.5,315.2 643.4,315.9 643.4,316.6 643.7,317.4 644.3,318.1 645.0,318.8 645.8,319.5 646.7,320.2 647.6,320.9 648.5,321.6 649.3,322.3 650.0,323.0 650.6,323.7 651.1,324.4" fill="#2a8" opacity="0.5" stroke="#2a8" stroke-width="1"/>
<line x1="615.0" y1="291.16502378557175" x2="689.4" y2="291.16502378557175" stroke="#114" stroke-width="2"/>
<circle cx="652.2222222222223" cy="316.12408240713796" r="2.4" fill="#114"/>
<text x="652.2222222222223" y="273.01993104227364" text-anchor="middle" font-size="11">1.55</text>
<text x="652.2222222222223" y="376" text-anchor="middle" font-size="12">spmv</text>
<polygon points="743.5,358.0 743.6,354.2 743.7,350.4 743.8,346.5 744.0,342.7 744.3,338.9 744.8,335.1 745.8,331.2 747.6,327.4 750.4,323.6 754.6,319.8 760.1,315.9 766.4,312.1 772.9,308.3 778.3,304.5 781.5,300.6 781.6,296.8 778.6,293.0 773.1,289.2 766.3,285.3 759.7,281.5 754.2,277.7 750.1,273.9 747.6,270.0 746.2,266.2 745.6,262.4 745.4,258.6 745.4,254.7 745.5,250.9 745.7,247.1 745.9,243.3 746.1,239.4 746.2,235.6 746.2,231.8 746.1,228.0 745.9,224.1 745.6,220.3 745.3,216.5 745.1,212.7 744.9,208.8 744.7,205.0 744.5,201.2 744.3,197.4 744.1,193.5 744.0,189.7 743.9,185.9 743.8,182.1 743.8,178.2 743.9,174.4 743.9,170.6 743.9,166.8 744.0,162.9 744.0,159.1 744.0,155.3 744.0,151.5 744.0,147.6 744.0,143.8 743.9,140.0 743.8,136.2 743.8,132.3 743.7,128.5 743.7,124.7 743.7,120.9 743.7,117.0 743.6,113.2 743.6,109.4 743.5,105.6 743.5,101.7 743.4,97.9 743.4,94.1 743.4,90.3 743.3,86.4 743.3,86.4 743.3,90.3 743.3,94.1 743.3,97.9 743.2,101.7 743.2,105.6 743.1,109.4 743.0,113.2 743.0,117.0 743.0,120.9 742.9,124.7 742.9,128.5 742.9,132.3 742.8,136.2 742.8,140.0 742.7,143.8 742.7,147.6 742.7,151.5 742.7,155.3 742.7,159.1 742.7,162.9 742.7,166.8 742.8,170.6 742.8,174.4 742.8,178.2 742.8,182.1 742.8,185.9 742.7,189.7 742.5,193.5 742.4,197.4 742.2,201.2 742.0,205.0 741.8,208.8 741.6,212.7 741.4,216.5 741.1,220.3 740.8,224.1 740.6,228.0 740.4,231.8 740.5,235.6 740.6,239.4 740.8,243.3 741.0,247.1 741.1,250.9 741.3,254.7 741.3,258.6 741.0,262.4 740.4,266.2 739.0,270.0 736.5,273.9 732.5,277.7 727.0,281.5 720.3,285.3 713.6,289.2 708.1,293.0 705.1,296.8 705.2,300.6 708.4,304.5 713.8,308.3 720.2,312.1 726.6,315.9 732.1,319.8 736.2,323.6 739.1,327.4 740.8,331.2 741.8,335.1 742.3,338.9 742.6,342.7 742.8,346.5 743.0,350.4 743.1,354.2 743.2,358.0" fill="#2a8" opacity="0.5" stroke="#2a8" stroke-width="1"/>
<line x1="705.1" y1="296.7036540211477" x2="781.6" y2="296.7036540211477" stroke="#114" stroke-width="2"/>
<circle cx="743.3333333333334" cy="306.85979181049584" r="2.4" fill="#114"/>
<text x="743.3333333333334" y="108.05582107811402" text-anchor="middle" font-size="11">1.42</text>
<text x="743.3333333333334" y="376" text-anchor="middle" font-size="12">gbmvN</text>
<polygon points="834.7,358.0 834.9,353.7 835.0,349.3 835.0,345.0 834.9,340.6 834.9,336.3 835.2,332.0 836.5,327.6 840.3,323.3 847.8,319.0 858.5,314.6 868.5,310.3 872.7,305.9 868.7,301.6 859.1,297.3 848.9,292.9 841.8,288.6 838.2,284.3 836.7,279.9 836.1,275.6 835.7,271.2 835.4,266.9 835.1,262.6 834.9,258.2 834.8,253.9 834.7,249.5 834.7,245.2 834.7,240.9 834.8,236.5 834.9,232.2 834.9,227.9 834.9,223.5 834.8,219.2 834.7,214.8 834.6,210.5 834.5,206.2 834.5,201.8 834.4,197.5 834.4,193.2 834.4,188.8 834.4,184.5 834.4,180.1 834.4,175.8 834.4,171.5 834.5,167.1 834.5,162.8 834.5,158.5 834.5,154.1 834.6,149.8 834.6,145.4 834.5,141.1 834.5,136.8 834.5,132.4 834.5,128.1 834.4,123.7 834.4,119.4 834.4,115.1 834.4,110.7 834.4,106.4 834.4,102.1 834.4,97.7 834.5,93.4 834.5,89.0 834.5,84.7 834.6,80.4 834.7,76.0 834.7,71.7 834.7,67.4 834.6,63.0 834.5,58.7 834.5,54.3 834.5,50.0 834.4,50.0 834.4,54.3 834.4,58.7 834.3,63.0 834.2,67.4 834.2,71.7 834.2,76.0 834.3,80.4 834.3,84.7 834.4,89.0 834.4,93.4 834.4,97.7 834.4,102.1 834.4,106.4 834.4,110.7 834.4,115.1 834.4,119.4 834.4,123.7 834.4,128.1 834.4,132.4 834.4,136.8 834.3,141.1 834.3,145.4 834.3,149.8 834.3,154.1 834.4,158.5 834.4,162.8 834.4,167.1 834.4,171.5 834.4,175.8 834.4,180.1 834.4,184.5 834.4,188.8 834.4,193.2 834.4,197.5 834.4,201.8 834.4,206.2 834.3,210.5 834.2,214.8 834.1,219.2 834.0,223.5 834.0,227.9 834.0,232.2 834.1,236.5 834.1,240.9 834.2,245.2 834.1,249.5 834.1,253.9 833.9,258.2 833.8,262.6 833.5,266.9 833.2,271.2 832.8,275.6 832.2,279.9 830.7,284.3 827.1,288.6 819.9,292.9 809.8,297.3 800.2,301.6 796.2,305.9 800.3,310.3 810.4,314.6 821.1,319.0 828.6,323.3 832.4,327.6 833.7,332.0 834.0,336.3 834.0,340.6 833.9,345.0 833.9,349.3 834.0,353.7 834.2,358.0" fill="#2a8" opacity="0.5" stroke="#2a8" stroke-width="1"/>
<line x1="796.2" y1="305.47283950866245" x2="872.7" y2="305.47283950866245" stroke="#114" stroke-width="2"/>
<circle cx="834.4444444444445" cy="309.1767023522445" r="2.4" fill="#114"/>
<text x="834.4444444444445" y="61.43396226415098" text-anchor="middle" font-size="11">1.22</text>
<text x="834.4444444444445" y="376" text-anchor="middle" font-size="12">sbmv</text>
<text x="450.0" y="428" text-anchor="middle" font-size="11" fill="#666">violin = ratio distribution over sizes · line = median · dark dot = worst size · green = every size ≥ gate</text>
</svg>
