<svg xmlns="http://www.w3.org/2000/svg" width="962" height="420" font-family="sans-serif">
<rect width="962" height="420" fill="white"/>
<text x="481.0" y="26" text-anchor="middle" font-size="17" font-weight="bold">BLAS-3 — PureBLAS / AOCL (PB/AOCL ratio)</text>
<line x1="46" y1="42" x2="68" y2="42" stroke="#888888" stroke-width="3"/>
<text x="73" y="46" font-size="12">AVX2</text>
<line x1="127" y1="42" x2="149" y2="42" stroke="#888888" stroke-width="3"/>
<text x="154" y="46" font-size="12">Zen5</text>
<line x1="208" y1="42" x2="230" y2="42" stroke="#888888" stroke-width="3"/>
<text x="235" y="46" font-size="12">AVX-512</text>
<rect x="46" y="60" width="210" height="138" fill="none" stroke="#e2e2e2"/>
<line x1="46" y1="126.20816256104301" x2="256" y2="126.20816256104301" stroke="#d33" stroke-dasharray="4 3"/>
<text x="42" y="201.0" text-anchor="end" font-size="9" fill="#999">0.5×</text>
<text x="42" y="129.20816256104303" text-anchor="end" font-size="9" fill="#999">1.0×</text>
<polygon points="46.0,78.8 106.0,125.3 166.0,126.5 196.0,125.4 226.0,123.9 256.0,119.2 256.0,119.6 226.0,124.1 196.0,125.7 166.0,128.1 106.0,129.7 46.0,83.0" fill="#888888" opacity="0.11"/>
<polyline points="46.0,82.8 106.0,126.4 166.0,126.9 196.0,125.6 226.0,124.0 256.0,119.2" fill="none" stroke="#888888" stroke-width="1.6"/>
<circle cx="46.0" cy="82.8" r="2" fill="#888888"/>
<circle cx="106.0" cy="126.4" r="2" fill="#888888"/>
<circle cx="166.0" cy="126.9" r="2" fill="#888888"/>
<circle cx="196.0" cy="125.6" r="2" fill="#888888"/>
<circle cx="226.0" cy="124.0" r="2" fill="#888888"/>
<circle cx="256.0" cy="119.2" r="2" fill="#888888"/>
<polygon points="46.0,74.8 106.0,116.4 166.0,126.0 196.0,126.2 226.0,126.5 256.0,120.2 256.0,120.7 226.0,127.0 196.0,127.8 166.0,127.0 106.0,118.5 46.0,81.6" fill="#888888" opacity="0.11"/>
<polyline points="46.0,76.0 106.0,117.3 166.0,126.3 196.0,126.6 226.0,126.5 256.0,120.5" fill="none" stroke="#888888" stroke-width="1.6"/>
<circle cx="46.0" cy="76.0" r="2" fill="#888888"/>
<circle cx="106.0" cy="117.3" r="2" fill="#888888"/>
<circle cx="166.0" cy="126.3" r="2" fill="#888888"/>
<circle cx="196.0" cy="126.6" r="2" fill="#888888"/>
<circle cx="226.0" cy="126.5" r="2" fill="#888888"/>
<circle cx="256.0" cy="120.5" r="2" fill="#888888"/>
<polygon points="46.0,68.0 106.0,108.3 166.0,127.5 196.0,127.0 226.0,116.5 256.0,114.5 256.0,116.0 226.0,120.5 196.0,127.6 166.0,129.0 106.0,111.5 46.0,80.6" fill="#888888" opacity="0.11"/>
<polyline points="46.0,80.2 106.0,110.8 166.0,128.4 196.0,127.2 226.0,119.2 256.0,114.7" fill="none" stroke="#888888" stroke-width="1.6"/>
<circle cx="46.0" cy="80.2" r="2" fill="#888888"/>
<circle cx="106.0" cy="110.8" r="2" fill="#888888"/>
<circle cx="166.0" cy="128.4" r="2" fill="#888888"/>
<circle cx="196.0" cy="127.2" r="2" fill="#888888"/>
<circle cx="226.0" cy="119.2" r="2" fill="#888888"/>
<circle cx="256.0" cy="114.7" r="2" fill="#888888"/>
<text x="151.0" y="55" text-anchor="middle" font-size="12" font-weight="bold">gemm</text>
<line x1="46.0" y1="60" x2="46.0" y2="198" stroke="#f4f4f4"/>
<text x="46.0" y="209" text-anchor="middle" font-size="8" fill="#999">8</text>
<line x1="106.0" y1="60" x2="106.0" y2="198" stroke="#f4f4f4"/>
<text x="106.0" y="209" text-anchor="middle" font-size="8" fill="#999">32</text>
<line x1="166.0" y1="60" x2="166.0" y2="198" stroke="#f4f4f4"/>
<text x="166.0" y="209" text-anchor="middle" font-size="8" fill="#999">128</text>
<line x1="196.0" y1="60" x2="196.0" y2="198" stroke="#f4f4f4"/>
<text x="196.0" y="209" text-anchor="middle" font-size="8" fill="#999">256</text>
<line x1="226.0" y1="60" x2="226.0" y2="198" stroke="#f4f4f4"/>
<text x="226.0" y="209" text-anchor="middle" font-size="8" fill="#999">512</text>
<line x1="256.0" y1="60" x2="256.0" y2="198" stroke="#f4f4f4"/>
<text x="256.0" y="209" text-anchor="middle" font-size="8" fill="#999">1k</text>
<rect x="276" y="60" width="210" height="138" fill="none" stroke="#e2e2e2"/>
<line x1="276" y1="175.09305578549157" x2="486" y2="175.09305578549157" stroke="#d33" stroke-dasharray="4 3"/>
<text x="272" y="201.0" text-anchor="end" font-size="9" fill="#999">0.5×</text>
<text x="272" y="178.09305578549157" text-anchor="end" font-size="9" fill="#999">1.0×</text>
<polygon points="276.0,72.2 336.0,147.7 396.0,173.7 426.0,177.5 456.0,175.9 486.0,175.4 486.0,175.5 456.0,175.9 426.0,177.6 396.0,173.9 336.0,149.4 276.0,72.5" fill="#888888" opacity="0.11"/>
<polyline points="276.0,72.3 336.0,147.8 396.0,173.8 426.0,177.5 456.0,175.9 486.0,175.4" fill="none" stroke="#888888" stroke-width="1.6"/>
<circle cx="276.0" cy="72.3" r="2" fill="#888888"/>
<circle cx="336.0" cy="147.8" r="2" fill="#888888"/>
<circle cx="396.0" cy="173.8" r="2" fill="#888888"/>
<circle cx="426.0" cy="177.5" r="2" fill="#888888"/>
<circle cx="456.0" cy="175.9" r="2" fill="#888888"/>
<circle cx="486.0" cy="175.4" r="2" fill="#888888"/>
<polygon points="276.0,62.5 336.0,141.5 396.0,170.1 426.0,174.1 456.0,175.1 486.0,175.6 486.0,175.7 456.0,175.4 426.0,174.6 396.0,170.5 336.0,142.5 276.0,63.0" fill="#888888" opacity="0.11"/>
<polyline points="276.0,62.9 336.0,141.8 396.0,170.4 426.0,174.6 456.0,175.1 486.0,175.7" fill="none" stroke="#888888" stroke-width="1.6"/>
<circle cx="276.0" cy="62.9" r="2" fill="#888888"/>
<circle cx="336.0" cy="141.8" r="2" fill="#888888"/>
<circle cx="396.0" cy="170.4" r="2" fill="#888888"/>
<circle cx="426.0" cy="174.6" r="2" fill="#888888"/>
<circle cx="456.0" cy="175.1" r="2" fill="#888888"/>
<circle cx="486.0" cy="175.7" r="2" fill="#888888"/>
<polygon points="276.0,63.9 336.0,138.2 396.0,170.1 426.0,175.9 456.0,176.0 486.0,176.2 486.0,176.9 456.0,176.7 426.0,176.1 396.0,170.5 336.0,139.7 276.0,65.2" fill="#888888" opacity="0.11"/>
<polyline points="276.0,63.9 336.0,138.8 396.0,170.5 426.0,176.0 456.0,176.2 486.0,176.5" fill="none" stroke="#888888" stroke-width="1.6"/>
<circle cx="276.0" cy="63.9" r="2" fill="#888888"/>
<circle cx="336.0" cy="138.8" r="2" fill="#888888"/>
<circle cx="396.0" cy="170.5" r="2" fill="#888888"/>
<circle cx="426.0" cy="176.0" r="2" fill="#888888"/>
<circle cx="456.0" cy="176.2" r="2" fill="#888888"/>
<circle cx="486.0" cy="176.5" r="2" fill="#888888"/>
<text x="381.0" y="55" text-anchor="middle" font-size="12" font-weight="bold">symm</text>
<line x1="276.0" y1="60" x2="276.0" y2="198" stroke="#f4f4f4"/>
<text x="276.0" y="209" text-anchor="middle" font-size="8" fill="#999">8</text>
<line x1="336.0" y1="60" x2="336.0" y2="198" stroke="#f4f4f4"/>
<text x="336.0" y="209" text-anchor="middle" font-size="8" fill="#999">32</text>
<line x1="396.0" y1="60" x2="396.0" y2="198" stroke="#f4f4f4"/>
<text x="396.0" y="209" text-anchor="middle" font-size="8" fill="#999">128</text>
<line x1="426.0" y1="60" x2="426.0" y2="198" stroke="#f4f4f4"/>
<text x="426.0" y="209" text-anchor="middle" font-size="8" fill="#999">256</text>
<line x1="456.0" y1="60" x2="456.0" y2="198" stroke="#f4f4f4"/>
<text x="456.0" y="209" text-anchor="middle" font-size="8" fill="#999">512</text>
<line x1="486.0" y1="60" x2="486.0" y2="198" stroke="#f4f4f4"/>
<text x="486.0" y="209" text-anchor="middle" font-size="8" fill="#999">1k</text>
<rect x="506" y="60" width="210" height="138" fill="none" stroke="#e2e2e2"/>
<line x1="506" y1="167.761868851207" x2="716" y2="167.761868851207" stroke="#d33" stroke-dasharray="4 3"/>
<text x="502" y="201.0" text-anchor="end" font-size="9" fill="#999">0.5×</text>
<text x="502" y="170.761868851207" text-anchor="end" font-size="9" fill="#999">1.0×</text>
<polygon points="506.0,67.8 566.0,164.0 626.0,166.8 656.0,167.5 686.0,167.4 716.0,168.0 716.0,168.0 686.0,167.4 656.0,168.0 626.0,167.5 566.0,167.7 506.0,70.0" fill="#888888" opacity="0.11"/>
<polyline points="506.0,68.8 566.0,165.0 626.0,167.1 656.0,167.8 686.0,167.4 716.0,168.0" fill="none" stroke="#888888" stroke-width="1.6"/>
<circle cx="506.0" cy="68.8" r="2" fill="#888888"/>
<circle cx="566.0" cy="165.0" r="2" fill="#888888"/>
<circle cx="626.0" cy="167.1" r="2" fill="#888888"/>
<circle cx="656.0" cy="167.8" r="2" fill="#888888"/>
<circle cx="686.0" cy="167.4" r="2" fill="#888888"/>
<circle cx="716.0" cy="168.0" r="2" fill="#888888"/>
<polygon points="506.0,81.2 566.0,164.6 626.0,171.7 656.0,164.7 686.0,165.7 716.0,166.9 716.0,167.1 686.0,165.9 656.0,165.3 626.0,173.6 566.0,164.9 506.0,81.9" fill="#888888" opacity="0.11"/>
<polyline points="506.0,81.4 566.0,164.8 626.0,173.2 656.0,165.1 686.0,165.7 716.0,167.0" fill="none" stroke="#888888" stroke-width="1.6"/>
<circle cx="506.0" cy="81.4" r="2" fill="#888888"/>
<circle cx="566.0" cy="164.8" r="2" fill="#888888"/>
<circle cx="626.0" cy="173.2" r="2" fill="#888888"/>
<circle cx="656.0" cy="165.1" r="2" fill="#888888"/>
<circle cx="686.0" cy="165.7" r="2" fill="#888888"/>
<circle cx="716.0" cy="167.0" r="2" fill="#888888"/>
<polygon points="506.0,63.4 566.0,152.5 626.0,171.4 656.0,165.4 686.0,164.7 716.0,166.9 716.0,167.1 686.0,165.1 656.0,166.4 626.0,171.9 566.0,153.5 506.0,63.9" fill="#888888" opacity="0.11"/>
<polyline points="506.0,63.5 566.0,153.2 626.0,171.6 656.0,165.6 686.0,165.0 716.0,167.0" fill="none" stroke="#888888" stroke-width="1.6"/>
<circle cx="506.0" cy="63.5" r="2" fill="#888888"/>
<circle cx="566.0" cy="153.2" r="2" fill="#888888"/>
<circle cx="626.0" cy="171.6" r="2" fill="#888888"/>
<circle cx="656.0" cy="165.6" r="2" fill="#888888"/>
<circle cx="686.0" cy="165.0" r="2" fill="#888888"/>
<circle cx="716.0" cy="167.0" r="2" fill="#888888"/>
<text x="611.0" y="55" text-anchor="middle" font-size="12" font-weight="bold">syrk</text>
<line x1="506.0" y1="60" x2="506.0" y2="198" stroke="#f4f4f4"/>
<text x="506.0" y="209" text-anchor="middle" font-size="8" fill="#999">8</text>
<line x1="566.0" y1="60" x2="566.0" y2="198" stroke="#f4f4f4"/>
<text x="566.0" y="209" text-anchor="middle" font-size="8" fill="#999">32</text>
<line x1="626.0" y1="60" x2="626.0" y2="198" stroke="#f4f4f4"/>
<text x="626.0" y="209" text-anchor="middle" font-size="8" fill="#999">128</text>
<line x1="656.0" y1="60" x2="656.0" y2="198" stroke="#f4f4f4"/>
<text x="656.0" y="209" text-anchor="middle" font-size="8" fill="#999">256</text>
<line x1="686.0" y1="60" x2="686.0" y2="198" stroke="#f4f4f4"/>
<text x="686.0" y="209" text-anchor="middle" font-size="8" fill="#999">512</text>
<line x1="716.0" y1="60" x2="716.0" y2="198" stroke="#f4f4f4"/>
<text x="716.0" y="209" text-anchor="middle" font-size="8" fill="#999">1k</text>
<rect x="736" y="60" width="210" height="138" fill="none" stroke="#e2e2e2"/>
<line x1="736" y1="176.7274329666285" x2="946" y2="176.7274329666285" stroke="#d33" stroke-dasharray="4 3"/>
<text x="732" y="201.0" text-anchor="end" font-size="9" fill="#999">0.5×</text>
<text x="732" y="179.7274329666285" text-anchor="end" font-size="9" fill="#999">1.0×</text>
<polygon points="736.0,69.1 796.0,136.7 856.0,173.9 886.0,176.7 916.0,176.3 946.0,177.1 946.0,177.1 916.0,176.4 886.0,176.8 856.0,174.3 796.0,139.4 736.0,72.3" fill="#888888" opacity="0.11"/>
<polyline points="736.0,70.1 796.0,136.9 856.0,174.0 886.0,176.8 916.0,176.4 946.0,177.1" fill="none" stroke="#888888" stroke-width="1.6"/>
<circle cx="736.0" cy="70.1" r="2" fill="#888888"/>
<circle cx="796.0" cy="136.9" r="2" fill="#888888"/>
<circle cx="856.0" cy="174.0" r="2" fill="#888888"/>
<circle cx="886.0" cy="176.8" r="2" fill="#888888"/>
<circle cx="916.0" cy="176.4" r="2" fill="#888888"/>
<circle cx="946.0" cy="177.1" r="2" fill="#888888"/>
<polygon points="736.0,62.4 796.0,131.7 856.0,166.0 886.0,171.4 916.0,175.2 946.0,175.7 946.0,176.0 916.0,175.7 886.0,171.9 856.0,166.4 796.0,133.1 736.0,63.8" fill="#888888" opacity="0.11"/>
<polyline points="736.0,63.1 796.0,132.5 856.0,166.1 886.0,171.4 916.0,175.3 946.0,176.0" fill="none" stroke="#888888" stroke-width="1.6"/>
<circle cx="736.0" cy="63.1" r="2" fill="#888888"/>
<circle cx="796.0" cy="132.5" r="2" fill="#888888"/>
<circle cx="856.0" cy="166.1" r="2" fill="#888888"/>
<circle cx="886.0" cy="171.4" r="2" fill="#888888"/>
<circle cx="916.0" cy="175.3" r="2" fill="#888888"/>
<circle cx="946.0" cy="176.0" r="2" fill="#888888"/>
<polygon points="736.0,64.3 796.0,134.5 856.0,165.5 886.0,171.4 916.0,174.5 946.0,175.5 946.0,175.6 916.0,174.7 886.0,172.3 856.0,165.9 796.0,137.5 736.0,64.7" fill="#888888" opacity="0.11"/>
<polyline points="736.0,64.5 796.0,135.5 856.0,165.5 886.0,171.8 916.0,174.7 946.0,175.6" fill="none" stroke="#888888" stroke-width="1.6"/>
<circle cx="736.0" cy="64.5" r="2" fill="#888888"/>
<circle cx="796.0" cy="135.5" r="2" fill="#888888"/>
<circle cx="856.0" cy="165.5" r="2" fill="#888888"/>
<circle cx="886.0" cy="171.8" r="2" fill="#888888"/>
<circle cx="916.0" cy="174.7" r="2" fill="#888888"/>
<circle cx="946.0" cy="175.6" r="2" fill="#888888"/>
<text x="841.0" y="55" text-anchor="middle" font-size="12" font-weight="bold">syr2k</text>
<line x1="736.0" y1="60" x2="736.0" y2="198" stroke="#f4f4f4"/>
<text x="736.0" y="209" text-anchor="middle" font-size="8" fill="#999">8</text>
<line x1="796.0" y1="60" x2="796.0" y2="198" stroke="#f4f4f4"/>
<text x="796.0" y="209" text-anchor="middle" font-size="8" fill="#999">32</text>
<line x1="856.0" y1="60" x2="856.0" y2="198" stroke="#f4f4f4"/>
<text x="856.0" y="209" text-anchor="middle" font-size="8" fill="#999">128</text>
<line x1="886.0" y1="60" x2="886.0" y2="198" stroke="#f4f4f4"/>
<text x="886.0" y="209" text-anchor="middle" font-size="8" fill="#999">256</text>
<line x1="916.0" y1="60" x2="916.0" y2="198" stroke="#f4f4f4"/>
<text x="916.0" y="209" text-anchor="middle" font-size="8" fill="#999">512</text>
<line x1="946.0" y1="60" x2="946.0" y2="198" stroke="#f4f4f4"/>
<text x="946.0" y="209" text-anchor="middle" font-size="8" fill="#999">1k</text>
<rect x="46" y="232" width="210" height="138" fill="none" stroke="#e2e2e2"/>
<line x1="46" y1="347.6949973061903" x2="256" y2="347.6949973061903" stroke="#d33" stroke-dasharray="4 3"/>
<text x="42" y="373.0" text-anchor="end" font-size="9" fill="#999">0.5×</text>
<text x="42" y="350.6949973061903" text-anchor="end" font-size="9" fill="#999">1.0×</text>
<polygon points="46.0,249.7 106.0,313.0 166.0,347.5 196.0,349.2 226.0,349.0 256.0,349.2 256.0,349.4 226.0,349.4 196.0,349.3 166.0,347.7 106.0,314.8 46.0,252.2" fill="#888888" opacity="0.11"/>
<polyline points="46.0,251.3 106.0,313.1 166.0,347.6 196.0,349.3 226.0,349.1 256.0,349.3" fill="none" stroke="#888888" stroke-width="1.6"/>
<circle cx="46.0" cy="251.3" r="2" fill="#888888"/>
<circle cx="106.0" cy="313.1" r="2" fill="#888888"/>
<circle cx="166.0" cy="347.6" r="2" fill="#888888"/>
<circle cx="196.0" cy="349.3" r="2" fill="#888888"/>
<circle cx="226.0" cy="349.1" r="2" fill="#888888"/>
<circle cx="256.0" cy="349.3" r="2" fill="#888888"/>
<polygon points="46.0,234.5 106.0,310.8 166.0,341.4 196.0,344.9 226.0,348.3 256.0,348.6 256.0,349.1 226.0,349.6 196.0,345.2 166.0,341.7 106.0,313.5 46.0,236.0" fill="#888888" opacity="0.11"/>
<polyline points="46.0,234.9 106.0,312.1 166.0,341.5 196.0,345.1 226.0,348.7 256.0,348.8" fill="none" stroke="#888888" stroke-width="1.6"/>
<circle cx="46.0" cy="234.9" r="2" fill="#888888"/>
<circle cx="106.0" cy="312.1" r="2" fill="#888888"/>
<circle cx="166.0" cy="341.5" r="2" fill="#888888"/>
<circle cx="196.0" cy="345.1" r="2" fill="#888888"/>
<circle cx="226.0" cy="348.7" r="2" fill="#888888"/>
<circle cx="256.0" cy="348.8" r="2" fill="#888888"/>
<polygon points="46.0,238.3 106.0,313.4 166.0,341.5 196.0,346.2 226.0,349.1 256.0,349.5 256.0,349.6 226.0,349.3 196.0,346.3 166.0,341.8 106.0,317.0 46.0,238.7" fill="#888888" opacity="0.11"/>
<polyline points="46.0,238.6 106.0,314.4 166.0,341.7 196.0,346.2 226.0,349.3 256.0,349.6" fill="none" stroke="#888888" stroke-width="1.6"/>
<circle cx="46.0" cy="238.6" r="2" fill="#888888"/>
<circle cx="106.0" cy="314.4" r="2" fill="#888888"/>
<circle cx="166.0" cy="341.7" r="2" fill="#888888"/>
<circle cx="196.0" cy="346.2" r="2" fill="#888888"/>
<circle cx="226.0" cy="349.3" r="2" fill="#888888"/>
<circle cx="256.0" cy="349.6" r="2" fill="#888888"/>
<text x="151.0" y="227" text-anchor="middle" font-size="12" font-weight="bold">trmm</text>
<line x1="46.0" y1="232" x2="46.0" y2="370" stroke="#f4f4f4"/>
<text x="46.0" y="381" text-anchor="middle" font-size="8" fill="#999">8</text>
<line x1="106.0" y1="232" x2="106.0" y2="370" stroke="#f4f4f4"/>
<text x="106.0" y="381" text-anchor="middle" font-size="8" fill="#999">32</text>
<line x1="166.0" y1="232" x2="166.0" y2="370" stroke="#f4f4f4"/>
<text x="166.0" y="381" text-anchor="middle" font-size="8" fill="#999">128</text>
<line x1="196.0" y1="232" x2="196.0" y2="370" stroke="#f4f4f4"/>
<text x="196.0" y="381" text-anchor="middle" font-size="8" fill="#999">256</text>
<line x1="226.0" y1="232" x2="226.0" y2="370" stroke="#f4f4f4"/>
<text x="226.0" y="381" text-anchor="middle" font-size="8" fill="#999">512</text>
<line x1="256.0" y1="232" x2="256.0" y2="370" stroke="#f4f4f4"/>
<text x="256.0" y="381" text-anchor="middle" font-size="8" fill="#999">1k</text>
<rect x="276" y="232" width="210" height="138" fill="none" stroke="#e2e2e2"/>
<line x1="276" y1="291.4003386978762" x2="486" y2="291.4003386978762" stroke="#d33" stroke-dasharray="4 3"/>
<text x="272" y="373.0" text-anchor="end" font-size="9" fill="#999">0.5×</text>
<text x="272" y="294.4003386978762" text-anchor="end" font-size="9" fill="#999">1.0×</text>
<polygon points="276.0,260.4 336.0,291.1 396.0,314.7 426.0,317.3 456.0,298.6 486.0,294.8 486.0,295.1 456.0,299.2 426.0,320.1 396.0,324.0 336.0,304.6 276.0,263.5" fill="#888888" opacity="0.11"/>
<polyline points="276.0,263.3 336.0,298.3 396.0,315.7 426.0,318.3 456.0,298.9 486.0,295.1" fill="none" stroke="#888888" stroke-width="1.6"/>
<circle cx="276.0" cy="263.3" r="2" fill="#888888"/>
<circle cx="336.0" cy="298.3" r="2" fill="#888888"/>
<circle cx="396.0" cy="315.7" r="2" fill="#888888"/>
<circle cx="426.0" cy="318.3" r="2" fill="#888888"/>
<circle cx="456.0" cy="298.9" r="2" fill="#888888"/>
<circle cx="486.0" cy="295.1" r="2" fill="#888888"/>
<polygon points="276.0,240.7 336.0,337.7 396.0,293.7 426.0,288.0 456.0,294.0 486.0,292.4 486.0,293.1 456.0,295.9 426.0,290.1 396.0,296.3 336.0,340.9 276.0,242.6" fill="#888888" opacity="0.11"/>
<polyline points="276.0,241.2 336.0,339.0 396.0,293.9 426.0,289.1 456.0,295.2 486.0,293.0" fill="none" stroke="#888888" stroke-width="1.6"/>
<circle cx="276.0" cy="241.2" r="2" fill="#888888"/>
<circle cx="336.0" cy="339.0" r="2" fill="#888888"/>
<circle cx="396.0" cy="293.9" r="2" fill="#888888"/>
<circle cx="426.0" cy="289.1" r="2" fill="#888888"/>
<circle cx="456.0" cy="295.2" r="2" fill="#888888"/>
<circle cx="486.0" cy="293.0" r="2" fill="#888888"/>
<polygon points="276.0,248.1 336.0,334.0 396.0,308.6 426.0,298.7 456.0,302.1 486.0,297.0 486.0,298.2 456.0,303.9 426.0,299.8 396.0,321.6 336.0,340.6 276.0,252.3" fill="#888888" opacity="0.11"/>
<polyline points="276.0,249.4 336.0,336.0 396.0,316.0 426.0,298.9 456.0,303.8 486.0,297.5" fill="none" stroke="#888888" stroke-width="1.6"/>
<circle cx="276.0" cy="249.4" r="2" fill="#888888"/>
<circle cx="336.0" cy="336.0" r="2" fill="#888888"/>
<circle cx="396.0" cy="316.0" r="2" fill="#888888"/>
<circle cx="426.0" cy="298.9" r="2" fill="#888888"/>
<circle cx="456.0" cy="303.8" r="2" fill="#888888"/>
<circle cx="486.0" cy="297.5" r="2" fill="#888888"/>
<text x="381.0" y="227" text-anchor="middle" font-size="12" font-weight="bold">trsm</text>
<line x1="276.0" y1="232" x2="276.0" y2="370" stroke="#f4f4f4"/>
<text x="276.0" y="381" text-anchor="middle" font-size="8" fill="#999">8</text>
<line x1="336.0" y1="232" x2="336.0" y2="370" stroke="#f4f4f4"/>
<text x="336.0" y="381" text-anchor="middle" font-size="8" fill="#999">32</text>
<line x1="396.0" y1="232" x2="396.0" y2="370" stroke="#f4f4f4"/>
<text x="396.0" y="381" text-anchor="middle" font-size="8" fill="#999">128</text>
<line x1="426.0" y1="232" x2="426.0" y2="370" stroke="#f4f4f4"/>
<text x="426.0" y="381" text-anchor="middle" font-size="8" fill="#999">256</text>
<line x1="456.0" y1="232" x2="456.0" y2="370" stroke="#f4f4f4"/>
<text x="456.0" y="381" text-anchor="middle" font-size="8" fill="#999">512</text>
<line x1="486.0" y1="232" x2="486.0" y2="370" stroke="#f4f4f4"/>
<text x="486.0" y="381" text-anchor="middle" font-size="8" fill="#999">1k</text>
<rect x="506" y="232" width="210" height="138" fill="none" stroke="#e2e2e2"/>
<line x1="506" y1="321.5723144460455" x2="716" y2="321.5723144460455" stroke="#d33" stroke-dasharray="4 3"/>
<text x="502" y="373.0" text-anchor="end" font-size="9" fill="#999">0.5×</text>
<text x="502" y="324.5723144460455" text-anchor="end" font-size="9" fill="#999">1.0×</text>
<text x="502" y="235.07810135072168" text-anchor="end" font-size="9" fill="#999">3.6×</text>
<polygon points="506.0,252.7 566.0,321.9 626.0,342.5 656.0,327.1 686.0,303.6 716.0,293.0 716.0,293.4 686.0,304.2 656.0,328.4 626.0,343.0 566.0,326.7 506.0,253.8" fill="#888888" opacity="0.11"/>
<polyline points="506.0,253.2 566.0,325.1 626.0,342.9 656.0,327.6 686.0,303.8 716.0,293.2" fill="none" stroke="#888888" stroke-width="1.6"/>
<circle cx="506.0" cy="253.2" r="2" fill="#888888"/>
<circle cx="566.0" cy="325.1" r="2" fill="#888888"/>
<circle cx="626.0" cy="342.9" r="2" fill="#888888"/>
<circle cx="656.0" cy="327.6" r="2" fill="#888888"/>
<circle cx="686.0" cy="303.8" r="2" fill="#888888"/>
<circle cx="716.0" cy="293.2" r="2" fill="#888888"/>
<polygon points="506.0,237.4 566.0,315.1 626.0,320.3 656.0,321.6 686.0,326.7 716.0,324.0 716.0,324.7 686.0,326.8 656.0,321.9 626.0,320.7 566.0,317.8 506.0,240.1" fill="#888888" opacity="0.11"/>
<polyline points="506.0,237.9 566.0,315.4 626.0,320.4 656.0,321.7 686.0,326.7 716.0,324.4" fill="none" stroke="#888888" stroke-width="1.6"/>
<circle cx="506.0" cy="237.9" r="2" fill="#888888"/>
<circle cx="566.0" cy="315.4" r="2" fill="#888888"/>
<circle cx="626.0" cy="320.4" r="2" fill="#888888"/>
<circle cx="656.0" cy="321.7" r="2" fill="#888888"/>
<circle cx="686.0" cy="326.7" r="2" fill="#888888"/>
<circle cx="716.0" cy="324.4" r="2" fill="#888888"/>
<polygon points="506.0,267.8 566.0,308.3 626.0,324.8 656.0,321.7 686.0,273.0 716.0,287.8 716.0,290.0 686.0,282.8 656.0,322.4 626.0,325.1 566.0,311.7 506.0,270.5" fill="#888888" opacity="0.11"/>
<polyline points="506.0,269.0 566.0,309.9 626.0,325.0 656.0,322.2 686.0,273.4 716.0,289.0" fill="none" stroke="#888888" stroke-width="1.6"/>
<circle cx="506.0" cy="269.0" r="2" fill="#888888"/>
<circle cx="566.0" cy="309.9" r="2" fill="#888888"/>
<circle cx="626.0" cy="325.0" r="2" fill="#888888"/>
<circle cx="656.0" cy="322.2" r="2" fill="#888888"/>
<circle cx="686.0" cy="273.4" r="2" fill="#888888"/>
<circle cx="716.0" cy="289.0" r="2" fill="#888888"/>
<text x="611.0" y="227" text-anchor="middle" font-size="12" font-weight="bold">trsmR</text>
<line x1="506.0" y1="232" x2="506.0" y2="370" stroke="#f4f4f4"/>
<text x="506.0" y="381" text-anchor="middle" font-size="8" fill="#999">8</text>
<line x1="566.0" y1="232" x2="566.0" y2="370" stroke="#f4f4f4"/>
<text x="566.0" y="381" text-anchor="middle" font-size="8" fill="#999">32</text>
<line x1="626.0" y1="232" x2="626.0" y2="370" stroke="#f4f4f4"/>
<text x="626.0" y="381" text-anchor="middle" font-size="8" fill="#999">128</text>
<line x1="656.0" y1="232" x2="656.0" y2="370" stroke="#f4f4f4"/>
<text x="656.0" y="381" text-anchor="middle" font-size="8" fill="#999">256</text>
<line x1="686.0" y1="232" x2="686.0" y2="370" stroke="#f4f4f4"/>
<text x="686.0" y="381" text-anchor="middle" font-size="8" fill="#999">512</text>
<line x1="716.0" y1="232" x2="716.0" y2="370" stroke="#f4f4f4"/>
<text x="716.0" y="381" text-anchor="middle" font-size="8" fill="#999">1k</text>
</svg>
