<svg xmlns="http://www.w3.org/2000/svg" width="900" height="440" font-family="sans-serif">
<rect width="900" height="440" fill="white"/>
<text x="450.0" y="28" text-anchor="middle" font-size="18" font-weight="bold">BLAS-1: PureBLAS / OpenBLAS (AVX2, 1 thread, Float64)</text>
<line x1="60" y1="358.0" x2="880" y2="358.0" stroke="#eee"/>
<text x="52" y="362.0" text-anchor="end" font-size="11" fill="#666">0×</text>
<line x1="60" y1="339.81419493141556" x2="880" y2="339.81419493141556" stroke="#eee"/>
<text x="52" y="343.81419493141556" text-anchor="end" font-size="11" fill="#666">0.5×</text>
<line x1="60" y1="321.6283898628311" x2="880" y2="321.6283898628311" stroke="#eee"/>
<text x="52" y="325.6283898628311" text-anchor="end" font-size="11" fill="#666">1×</text>
<line x1="60" y1="303.4425847942466" x2="880" y2="303.4425847942466" stroke="#eee"/>
<text x="52" y="307.4425847942466" text-anchor="end" font-size="11" fill="#666">1.5×</text>
<line x1="60" y1="321.6283898628311" x2="880" y2="321.6283898628311" stroke="#888" stroke-width="1"/>
<line x1="60" y1="323.0832542683179" x2="880" y2="323.0832542683179" stroke="#d33" stroke-width="1.5" stroke-dasharray="6 4"/>
<text x="880" y="318.0832542683179" text-anchor="end" font-size="11" fill="#d33">0.96× gate</text>
<polygon points="129.4,323.8 130.7,323.5 132.9,323.3 136.6,323.1 142.0,322.8 149.4,322.6 158.3,322.4 167.7,322.1 176.4,321.9 182.7,321.7 185.7,321.4 185.1,321.2 181.5,321.0 175.8,320.7 169.4,320.5 163.1,320.3 157.4,320.0 152.5,319.8 148.1,319.6 144.4,319.3 141.1,319.1 138.3,318.9 136.1,318.6 134.4,318.4 133.1,318.2 132.3,317.9 131.7,317.7 131.3,317.5 130.9,317.2 130.6,317.0 130.3,316.8 130.1,316.6 129.8,316.3 129.7,316.1 129.6,315.9 129.5,315.6 129.5,315.4 129.5,315.2 129.5,314.9 129.5,314.7 129.4,314.5 129.4,314.2 129.3,314.0 129.4,313.8 129.6,313.5 129.8,313.3 130.0,313.1 130.1,312.8 130.1,312.6 130.0,312.4 129.8,312.1 129.5,311.9 129.1,311.7 128.9,311.4 128.7,311.2 128.5,311.0 128.5,310.7 128.4,310.5 128.5,310.3 128.5,310.0 128.6,309.8 128.7,309.6 128.8,309.3 128.9,309.1 128.9,308.9 128.9,308.6 128.8,308.4 128.7,308.2 128.6,307.9 128.5,307.7 128.4,307.5 128.4,307.3 128.3,307.3 128.2,307.5 128.1,307.7 128.1,307.9 127.9,308.2 127.8,308.4 127.8,308.6 127.7,308.9 127.8,309.1 127.8,309.3 127.9,309.6 128.0,309.8 128.1,310.0 128.2,310.3 128.2,310.5 128.2,310.7 128.1,311.0 128.0,311.2 127.8,311.4 127.5,311.7 127.2,311.9 126.9,312.1 126.7,312.4 126.5,312.6 126.6,312.8 126.7,313.1 126.9,313.3 127.1,313.5 127.2,313.8 127.3,314.0 127.3,314.2 127.3,314.5 127.2,314.7 127.2,314.9 127.2,315.2 127.2,315.4 127.1,315.6 127.1,315.9 127.0,316.1 126.8,316.3 126.6,316.6 126.3,316.8 126.0,317.0 125.7,317.2 125.4,317.5 125.0,317.7 124.4,317.9 123.5,318.2 122.3,318.4 120.6,318.6 118.4,318.9 115.6,319.1 112.3,319.3 108.5,319.6 104.2,319.8 99.2,320.0 93.6,320.3 87.3,320.5 80.9,320.7 75.2,321.0 71.5,321.2 70.9,321.4 74.0,321.7 80.3,321.9 88.9,322.1 98.4,322.4 107.3,322.6 114.7,322.8 120.1,323.1 123.8,323.3 126.0,323.5 127.2,323.8" fill="#2a8" opacity="0.5" stroke="#2a8" stroke-width="1"/>
<line x1="70.8" y1="321.3127130191404" x2="185.9" y2="321.3127130191404" stroke="#114" stroke-width="2"/>
<circle cx="128.33333333333331" cy="321.54094981145613" r="2.4" fill="#114"/>
<text x="128.33333333333331" y="302.9068503134126" text-anchor="middle" font-size="11">1.01</text>
<text x="128.33333333333331" y="376" text-anchor="middle" font-size="12">axpy</text>
<polygon points="265.5,323.8 266.1,323.6 267.2,323.4 269.2,323.2 272.5,323.0 277.3,322.8 284.0,322.6 292.3,322.5 301.5,322.3 310.4,322.1 317.6,321.9 321.9,321.7 322.4,321.5 319.3,321.3 313.4,321.1 306.1,320.9 299.0,320.7 293.1,320.6 289.0,320.4 286.5,320.2 285.4,320.0 284.8,319.8 284.1,319.6 282.8,319.4 281.0,319.2 278.5,319.0 275.9,318.8 273.2,318.6 270.9,318.5 269.0,318.3 267.6,318.1 266.6,317.9 266.0,317.7 265.6,317.5 265.4,317.3 265.4,317.1 265.4,316.9 265.5,316.7 265.5,316.6 265.6,316.4 265.6,316.2 265.6,316.0 265.5,315.8 265.4,315.6 265.3,315.4 265.2,315.2 265.1,315.0 265.1,314.8 265.0,314.6 265.0,314.5 265.0,314.3 265.0,314.1 265.0,313.9 265.0,313.7 265.1,313.5 265.2,313.3 265.3,313.1 265.5,312.9 265.7,312.7 266.0,312.6 266.3,312.4 266.6,312.2 266.7,312.0 266.8,311.8 266.7,311.6 266.5,311.4 266.2,311.2 265.9,311.0 265.6,310.8 265.4,310.6 265.2,310.5 265.1,310.3 264.9,310.3 264.8,310.5 264.6,310.6 264.4,310.8 264.1,311.0 263.8,311.2 263.5,311.4 263.3,311.6 263.2,311.8 263.3,312.0 263.4,312.2 263.7,312.4 264.0,312.6 264.3,312.7 264.5,312.9 264.7,313.1 264.8,313.3 264.9,313.5 265.0,313.7 265.0,313.9 265.0,314.1 265.0,314.3 265.0,314.5 265.0,314.6 264.9,314.8 264.9,315.0 264.8,315.2 264.7,315.4 264.6,315.6 264.5,315.8 264.4,316.0 264.4,316.2 264.4,316.4 264.5,316.6 264.5,316.7 264.6,316.9 264.6,317.1 264.6,317.3 264.4,317.5 264.0,317.7 263.4,317.9 262.4,318.1 261.0,318.3 259.1,318.5 256.8,318.6 254.1,318.8 251.5,319.0 249.0,319.2 247.2,319.4 245.9,319.6 245.2,319.8 244.6,320.0 243.5,320.2 241.0,320.4 236.9,320.6 231.0,320.7 223.9,320.9 216.6,321.1 210.7,321.3 207.6,321.5 208.1,321.7 212.4,321.9 219.6,322.1 228.5,322.3 237.7,322.5 246.0,322.6 252.7,322.8 257.5,323.0 260.8,323.2 262.8,323.4 263.9,323.6 264.5,323.8" fill="#2a8" opacity="0.5" stroke="#2a8" stroke-width="1"/>
<line x1="207.6" y1="321.4984299876606" x2="322.4" y2="321.4984299876606" stroke="#114" stroke-width="2"/>
<circle cx="265.0" cy="321.85370294454714" r="2.4" fill="#114"/>
<text x="265.0" y="305.6339383459216" text-anchor="middle" font-size="11">1.00</text>
<text x="265.0" y="376" text-anchor="middle" font-size="12">dot</text>
<polygon points="403.5,212.1 403.9,209.8 404.4,207.6 404.9,205.3 405.5,203.1 406.1,200.8 406.8,198.6 407.5,196.3 408.4,194.0 409.2,191.8 410.2,189.5 411.2,187.3 412.3,185.0 413.5,182.8 414.8,180.5 416.2,178.3 417.7,176.0 419.2,173.7 420.8,171.5 422.5,169.2 424.1,167.0 425.8,164.7 427.3,162.5 428.8,160.2 430.1,157.9 431.2,155.7 432.1,153.4 432.7,151.2 433.1,148.9 433.2,146.7 432.9,144.4 432.4,142.1 431.5,139.9 430.4,137.6 429.1,135.4 427.6,133.1 425.9,130.9 424.1,128.6 422.3,126.3 420.5,124.1 418.8,121.8 417.4,119.6 416.2,117.3 415.4,115.1 415.0,112.8 415.1,110.5 415.8,108.3 417.0,106.0 418.9,103.8 421.3,101.5 424.3,99.3 427.7,97.0 431.6,94.7 435.7,92.5 439.9,90.2 444.2,88.0 448.2,85.7 451.8,83.5 454.8,81.2 457.1,79.0 458.6,76.7 459.1,74.4 458.6,72.2 457.2,69.9 454.8,67.7 451.7,65.4 447.9,63.2 443.7,60.9 439.1,58.6 434.4,56.4 429.8,54.1 425.4,51.9 377.9,51.9 373.5,54.1 368.9,56.4 364.2,58.6 359.7,60.9 355.4,63.2 351.6,65.4 348.5,67.7 346.2,69.9 344.7,72.2 344.3,74.4 344.8,76.7 346.2,79.0 348.5,81.2 351.6,83.5 355.2,85.7 359.2,88.0 363.4,90.2 367.7,92.5 371.8,94.7 375.6,97.0 379.1,99.3 382.0,101.5 384.5,103.8 386.3,106.0 387.5,108.3 388.2,110.5 388.3,112.8 387.9,115.1 387.1,117.3 386.0,119.6 384.5,121.8 382.8,124.1 381.1,126.3 379.3,128.6 377.5,130.9 375.8,133.1 374.2,135.4 372.9,137.6 371.8,139.9 371.0,142.1 370.4,144.4 370.2,146.7 370.2,148.9 370.6,151.2 371.2,153.4 372.1,155.7 373.2,157.9 374.6,160.2 376.0,162.5 377.6,164.7 379.2,167.0 380.9,169.2 382.5,171.5 384.1,173.7 385.7,176.0 387.2,178.3 388.5,180.5 389.8,182.8 391.0,185.0 392.1,187.3 393.2,189.5 394.1,191.8 395.0,194.0 395.8,196.3 396.5,198.6 397.2,200.8 397.9,203.1 398.4,205.3 399.0,207.6 399.4,209.8 399.8,212.1" fill="#2a8" opacity="0.5" stroke="#2a8" stroke-width="1"/>
<line x1="354.1" y1="85.05336980581993" x2="449.3" y2="85.05336980581993" stroke="#114" stroke-width="2"/>
<circle cx="401.66666666666663" cy="152.0216020612021" r="2.4" fill="#114"/>
<text x="401.66666666666663" y="61.43396226415098" text-anchor="middle" font-size="11">7.50</text>
<text x="401.66666666666663" y="376" text-anchor="middle" font-size="12">nrm2</text>
<polygon points="538.5,347.8 538.6,346.9 538.8,345.9 538.9,345.0 539.1,344.1 539.2,343.1 539.3,342.2 539.3,341.3 539.3,340.3 539.2,339.4 539.1,338.5 538.9,337.5 538.8,336.6 538.6,335.6 538.5,334.7 538.5,333.8 538.4,332.8 538.4,331.9 538.4,331.0 538.3,330.0 538.3,329.1 538.3,328.2 538.3,327.2 538.3,326.3 538.3,325.4 538.4,324.4 538.4,323.5 538.6,322.6 538.8,321.6 539.4,320.7 540.3,319.7 541.9,318.8 544.4,317.9 548.1,316.9 553.1,316.0 559.5,315.1 566.9,314.1 574.8,313.2 582.5,312.3 588.9,311.3 593.5,310.4 595.7,309.5 595.7,308.5 593.8,307.6 590.8,306.7 587.5,305.7 584.6,304.8 582.2,303.8 580.2,302.9 578.3,302.0 576.0,301.0 573.2,300.1 570.1,299.2 567.0,298.2 564.5,297.3 563.1,296.4 563.2,295.4 564.7,294.5 567.5,293.6 571.0,292.6 574.7,291.7 577.6,290.8 579.0,289.8 578.5,288.9 575.9,287.9 571.6,287.0 566.1,286.1 560.1,285.1 554.5,284.2 549.5,283.3 545.7,282.3 542.8,281.4 533.8,281.4 531.0,282.3 527.1,283.3 522.2,284.2 516.5,285.1 510.6,286.1 505.1,287.0 500.8,287.9 498.2,288.9 497.7,289.8 499.1,290.8 502.0,291.7 505.6,292.6 509.2,293.6 512.0,294.5 513.5,295.4 513.5,296.4 512.1,297.3 509.6,298.2 506.6,299.2 503.4,300.1 500.7,301.0 498.4,302.0 496.4,302.9 494.4,303.8 492.0,304.8 489.1,305.7 485.9,306.7 482.9,307.6 481.0,308.5 480.9,309.5 483.2,310.4 487.7,311.3 494.2,312.3 501.8,313.2 509.8,314.1 517.2,315.1 523.5,316.0 528.6,316.9 532.3,317.9 534.8,318.8 536.4,319.7 537.3,320.7 537.8,321.6 538.1,322.6 538.2,323.5 538.3,324.4 538.3,325.4 538.3,326.3 538.3,327.2 538.3,328.2 538.3,329.1 538.3,330.0 538.3,331.0 538.3,331.9 538.3,332.8 538.2,333.8 538.1,334.7 538.0,335.6 537.9,336.6 537.8,337.5 537.6,338.5 537.5,339.4 537.4,340.3 537.4,341.3 537.4,342.2 537.5,343.1 537.6,344.1 537.7,345.0 537.9,345.9 538.0,346.9 538.1,347.8" fill="#2a8" opacity="0.5" stroke="#2a8" stroke-width="1"/>
<line x1="499.1" y1="301.67954997784307" x2="577.6" y2="301.67954997784307" stroke="#114" stroke-width="2"/>
<circle cx="538.3333333333333" cy="310.45820153085197" r="2.4" fill="#114"/>
<text x="538.3333333333333" y="281.88657123983506" text-anchor="middle" font-size="11">1.55</text>
<text x="538.3333333333333" y="376" text-anchor="middle" font-size="12">asum</text>
<polygon points="675.1,323.4 675.3,323.2 675.9,323.0 677.2,322.8 679.7,322.6 684.2,322.4 691.1,322.3 700.3,322.1 710.8,321.9 720.8,321.7 728.5,321.5 732.4,321.4 732.2,321.2 728.6,321.0 723.0,320.8 716.7,320.6 710.5,320.5 704.9,320.3 699.8,320.1 695.1,319.9 690.7,319.7 686.9,319.6 683.7,319.4 681.1,319.2 679.2,319.0 677.8,318.8 676.8,318.6 676.2,318.5 676.0,318.3 675.9,318.1 676.0,317.9 676.1,317.7 676.2,317.6 676.3,317.4 676.3,317.2 676.3,317.0 676.2,316.8 676.1,316.7 675.9,316.5 675.6,316.3 675.4,316.1 675.3,315.9 675.2,315.8 675.2,315.6 675.2,315.4 675.3,315.2 675.5,315.0 675.6,314.8 675.7,314.7 675.6,314.5 675.5,314.3 675.4,314.1 675.3,313.9 675.1,313.8 675.1,313.6 675.0,313.4 675.0,313.2 675.0,313.0 675.1,312.9 675.1,312.7 675.3,312.5 675.4,312.3 675.5,312.1 675.6,312.0 675.7,311.8 675.6,311.6 675.5,311.4 675.3,311.2 675.2,311.0 675.1,310.9 675.1,310.7 675.0,310.5 675.0,310.5 674.9,310.7 674.9,310.9 674.8,311.0 674.7,311.2 674.5,311.4 674.4,311.6 674.3,311.8 674.4,312.0 674.5,312.1 674.6,312.3 674.7,312.5 674.9,312.7 674.9,312.9 675.0,313.0 675.0,313.2 675.0,313.4 674.9,313.6 674.9,313.8 674.7,313.9 674.6,314.1 674.5,314.3 674.4,314.5 674.3,314.7 674.4,314.8 674.5,315.0 674.7,315.2 674.8,315.4 674.8,315.6 674.8,315.8 674.7,315.9 674.6,316.1 674.4,316.3 674.1,316.5 673.9,316.7 673.8,316.8 673.7,317.0 673.7,317.2 673.7,317.4 673.8,317.6 673.9,317.7 674.0,317.9 674.1,318.1 674.0,318.3 673.8,318.5 673.2,318.6 672.2,318.8 670.8,319.0 668.9,319.2 666.3,319.4 663.1,319.6 659.3,319.7 654.9,319.9 650.2,320.1 645.1,320.3 639.5,320.5 633.3,320.6 627.0,320.8 621.4,321.0 617.8,321.2 617.6,321.4 621.5,321.5 629.2,321.7 639.2,321.9 649.7,322.1 658.9,322.3 665.8,322.4 670.3,322.6 672.8,322.8 674.1,323.0 674.7,323.2 674.9,323.4" fill="#2a8" opacity="0.5" stroke="#2a8" stroke-width="1"/>
<line x1="618.1" y1="321.1618862825423" x2="731.9" y2="321.1618862825423" stroke="#114" stroke-width="2"/>
<circle cx="675.0" cy="321.6292319650951" r="2.4" fill="#114"/>
<text x="675.0" y="305.80613631499085" text-anchor="middle" font-size="11">1.01</text>
<text x="675.0" y="376" text-anchor="middle" font-size="12">scal</text>
<polygon points="814.5,342.3 815.5,341.6 816.8,340.9 818.3,340.3 820.1,339.6 822.0,338.9 824.2,338.3 826.5,337.6 829.0,336.9 831.4,336.2 834.0,335.6 836.4,334.9 838.9,334.2 841.2,333.6 843.4,332.9 845.6,332.2 847.5,331.6 849.4,330.9 851.1,330.2 852.7,329.6 854.2,328.9 855.6,328.2 856.9,327.6 858.2,326.9 859.4,326.2 860.6,325.6 861.8,324.9 863.0,324.2 864.2,323.5 865.3,322.9 866.2,322.2 867.0,321.5 867.5,320.9 867.9,320.2 868.1,319.5 868.2,318.9 868.2,318.2 868.2,317.5 868.2,316.9 868.4,316.2 868.6,315.5 868.8,314.9 869.0,314.2 869.1,313.5 868.9,312.9 868.3,312.2 867.3,311.5 865.9,310.8 863.9,310.2 861.5,309.5 858.7,308.8 855.5,308.2 852.1,307.5 848.5,306.8 844.9,306.2 841.4,305.5 837.9,304.8 834.6,304.2 831.6,303.5 828.8,302.8 826.2,302.2 823.9,301.5 821.9,300.8 820.1,300.1 818.6,299.5 817.2,298.8 816.1,298.1 815.1,297.5 814.3,296.8 813.7,296.1 813.2,295.5 812.7,294.8 810.6,294.8 810.2,295.5 809.7,296.1 809.0,296.8 808.2,297.5 807.2,298.1 806.1,298.8 804.8,299.5 803.2,300.1 801.4,300.8 799.4,301.5 797.1,302.2 794.6,302.8 791.8,303.5 788.7,304.2 785.4,304.8 782.0,305.5 778.4,306.2 774.8,306.8 771.2,307.5 767.8,308.2 764.6,308.8 761.8,309.5 759.4,310.2 757.4,310.8 756.0,311.5 755.0,312.2 754.5,312.9 754.3,313.5 754.3,314.2 754.5,314.9 754.8,315.5 755.0,316.2 755.1,316.9 755.2,317.5 755.2,318.2 755.2,318.9 755.2,319.5 755.4,320.2 755.8,320.9 756.4,321.5 757.1,322.2 758.1,322.9 759.1,323.5 760.3,324.2 761.5,324.9 762.7,325.6 763.9,326.2 765.2,326.9 766.4,327.6 767.8,328.2 769.1,328.9 770.6,329.6 772.2,330.2 773.9,330.9 775.8,331.6 777.8,332.2 779.9,332.9 782.1,333.6 784.5,334.2 786.9,334.9 789.4,335.6 791.9,336.2 794.4,336.9 796.8,337.6 799.1,338.3 801.3,338.9 803.3,339.6 805.0,340.3 806.5,340.9 807.8,341.6 808.8,342.3" fill="#2a8" opacity="0.5" stroke="#2a8" stroke-width="1"/>
<line x1="755.2" y1="319.2607508635811" x2="868.1" y2="319.2607508635811" stroke="#114" stroke-width="2"/>
<circle cx="811.6666666666666" cy="321.95279138554326" r="2.4" fill="#114"/>
<text x="811.6666666666666" y="293.453465828926" text-anchor="middle" font-size="11">1.07</text>
<text x="811.6666666666666" y="376" text-anchor="middle" font-size="12">iamax</text>
<text x="450.0" y="428" text-anchor="middle" font-size="11" fill="#666">violin = ratio distribution over sizes · line = median · dark dot = worst size · green = every size ≥ gate</text>
</svg>
