<svg xmlns="http://www.w3.org/2000/svg" width="900" height="440" font-family="sans-serif">
<rect width="900" height="440" fill="white"/>
<text x="450.0" y="28" text-anchor="middle" font-size="18" font-weight="bold">Complex BLAS-2: PureBLAS / OpenBLAS (AVX-512, 1 thread, ComplexF64)</text>
<line x1="60" y1="358.0" x2="880" y2="358.0" stroke="#eee"/>
<text x="52" y="362.0" text-anchor="end" font-size="11" fill="#666">0×</text>
<line x1="60" y1="289.1103247895869" x2="880" y2="289.1103247895869" stroke="#eee"/>
<text x="52" y="293.1103247895869" text-anchor="end" font-size="11" fill="#666">0.5×</text>
<line x1="60" y1="220.2206495791738" x2="880" y2="220.2206495791738" stroke="#eee"/>
<text x="52" y="224.2206495791738" text-anchor="end" font-size="11" fill="#666">1×</text>
<line x1="60" y1="151.33097436876068" x2="880" y2="151.33097436876068" stroke="#eee"/>
<text x="52" y="155.33097436876068" text-anchor="end" font-size="11" fill="#666">1.5×</text>
<line x1="60" y1="220.2206495791738" x2="880" y2="220.2206495791738" stroke="#888" stroke-width="1"/>
<line x1="60" y1="225.73182359600685" x2="880" y2="225.73182359600685" stroke="#d33" stroke-width="1.5" stroke-dasharray="6 4"/>
<text x="880" y="220.73182359600685" text-anchor="end" font-size="11" fill="#d33">0.96× gate</text>
<polygon points="129.0,247.5 129.2,246.5 129.5,245.5 130.0,244.5 130.5,243.5 131.1,242.5 132.0,241.5 133.0,240.5 134.3,239.6 135.9,238.6 137.8,237.6 140.1,236.6 142.8,235.6 145.8,234.6 149.1,233.6 152.7,232.6 156.5,231.6 160.5,230.6 164.5,229.6 168.4,228.6 172.1,227.6 175.5,226.6 178.6,225.6 181.1,224.6 183.2,223.6 184.6,222.6 185.5,221.6 185.7,220.6 185.3,219.6 184.3,218.6 182.7,217.6 180.4,216.6 177.7,215.6 174.4,214.6 170.8,213.6 166.9,212.6 162.8,211.6 158.7,210.6 154.6,209.6 150.7,208.6 147.2,207.6 144.0,206.6 141.2,205.6 138.9,204.6 137.1,203.6 135.7,202.6 134.8,201.6 134.2,200.6 134.1,199.6 134.2,198.6 134.6,197.6 135.3,196.6 136.2,195.6 137.3,194.6 138.5,193.6 139.8,192.6 141.1,191.7 142.4,190.7 143.5,189.7 144.4,188.7 145.0,187.7 145.3,186.7 145.2,185.7 144.7,184.7 143.8,183.7 142.7,182.7 141.2,181.7 139.6,180.7 138.0,179.7 136.4,178.7 134.8,177.7 133.4,176.7 123.3,176.7 121.9,177.7 120.3,178.7 118.7,179.7 117.0,180.7 115.4,181.7 114.0,182.7 112.8,183.7 112.0,184.7 111.5,185.7 111.4,186.7 111.7,187.7 112.3,188.7 113.2,189.7 114.3,190.7 115.6,191.7 116.9,192.6 118.2,193.6 119.4,194.6 120.4,195.6 121.3,196.6 122.0,197.6 122.5,198.6 122.6,199.6 122.4,200.6 121.9,201.6 120.9,202.6 119.6,203.6 117.7,204.6 115.4,205.6 112.7,206.6 109.5,207.6 105.9,208.6 102.1,209.6 98.0,210.6 93.9,211.6 89.8,212.6 85.9,213.6 82.3,214.6 79.0,215.6 76.2,216.6 74.0,217.6 72.4,218.6 71.3,219.6 70.9,220.6 71.2,221.6 72.0,222.6 73.5,223.6 75.5,224.6 78.1,225.6 81.1,226.6 84.6,227.6 88.3,228.6 92.2,229.6 96.2,230.6 100.1,231.6 104.0,232.6 107.6,233.6 110.9,234.6 113.9,235.6 116.5,236.6 118.8,237.6 120.7,238.6 122.3,239.6 123.6,240.5 124.7,241.5 125.5,242.5 126.2,243.5 126.7,244.5 127.1,245.5 127.4,246.5 127.7,247.5" fill="#d33" opacity="0.5" stroke="#d33" stroke-width="1"/>
<line x1="71.7" y1="219.148968027989" x2="185.0" y2="219.148968027989" stroke="#114" stroke-width="2"/>
<circle cx="128.33333333333331" cy="229.47759132903494" r="2.4" fill="#114"/>
<text x="128.33333333333331" y="177.76119715429547" text-anchor="middle" font-size="11">1.01</text>
<text x="128.33333333333331" y="376" text-anchor="middle" font-size="12">zgemvN</text>
<polygon points="270.8,232.5 272.3,231.6 274.2,230.7 276.4,229.7 278.9,228.8 281.7,227.8 284.8,226.9 288.2,225.9 291.7,225.0 295.5,224.1 299.3,223.1 303.1,222.2 306.7,221.2 310.2,220.3 313.4,219.3 316.2,218.4 318.5,217.5 320.3,216.5 321.6,215.6 322.3,214.6 322.4,213.7 322.0,212.7 321.1,211.8 319.7,210.9 318.0,209.9 316.0,209.0 313.7,208.0 311.2,207.1 308.7,206.1 306.1,205.2 303.4,204.3 300.8,203.3 298.3,202.4 295.7,201.4 293.3,200.5 290.9,199.5 288.5,198.6 286.3,197.6 284.2,196.7 282.2,195.8 280.4,194.8 278.7,193.9 277.4,192.9 276.4,192.0 275.6,191.0 275.3,190.1 275.3,189.2 275.8,188.2 276.6,187.3 277.8,186.3 279.4,185.4 281.3,184.4 283.3,183.5 285.6,182.6 287.8,181.6 290.1,180.7 292.1,179.7 293.9,178.8 295.3,177.8 296.2,176.9 296.7,176.0 296.6,175.0 296.0,174.1 295.0,173.1 293.4,172.2 291.5,171.2 289.3,170.3 286.9,169.4 284.4,168.4 281.9,167.5 279.5,166.5 277.2,165.6 252.8,165.6 250.5,166.5 248.1,167.5 245.6,168.4 243.1,169.4 240.7,170.3 238.5,171.2 236.6,172.2 235.0,173.1 234.0,174.1 233.4,175.0 233.3,176.0 233.8,176.9 234.7,177.8 236.1,178.8 237.9,179.7 239.9,180.7 242.2,181.6 244.4,182.6 246.7,183.5 248.7,184.4 250.6,185.4 252.2,186.3 253.4,187.3 254.2,188.2 254.7,189.2 254.7,190.1 254.4,191.0 253.6,192.0 252.6,192.9 251.3,193.9 249.6,194.8 247.8,195.8 245.8,196.7 243.7,197.6 241.5,198.6 239.1,199.5 236.7,200.5 234.3,201.4 231.7,202.4 229.2,203.3 226.6,204.3 223.9,205.2 221.3,206.1 218.8,207.1 216.3,208.0 214.0,209.0 212.0,209.9 210.3,210.9 208.9,211.8 208.0,212.7 207.6,213.7 207.7,214.6 208.4,215.6 209.7,216.5 211.5,217.5 213.8,218.4 216.6,219.3 219.8,220.3 223.3,221.2 226.9,222.2 230.7,223.1 234.5,224.1 238.3,225.0 241.8,225.9 245.2,226.9 248.3,227.8 251.1,228.8 253.6,229.7 255.8,230.7 257.7,231.6 259.2,232.5" fill="#2a8" opacity="0.5" stroke="#2a8" stroke-width="1"/>
<line x1="212.6" y1="209.6065560655018" x2="317.4" y2="209.6065560655018" stroke="#114" stroke-width="2"/>
<circle cx="265.0" cy="218.6452399377972" r="2.4" fill="#114"/>
<text x="265.0" y="166.2804380818066" text-anchor="middle" font-size="11">1.08</text>
<text x="265.0" y="376" text-anchor="middle" font-size="12">zgemvC</text>
<polygon points="401.9,250.4 402.0,249.0 402.1,247.7 402.3,246.3 402.5,244.9 402.7,243.5 402.8,242.1 403.0,240.7 403.1,239.4 403.1,238.0 403.1,236.6 403.0,235.2 403.0,233.8 403.0,232.4 403.0,231.0 403.2,229.7 403.7,228.3 404.3,226.9 405.2,225.5 406.4,224.1 407.9,222.7 409.8,221.4 411.9,220.0 414.2,218.6 416.6,217.2 419.1,215.8 421.6,214.4 424.1,213.0 426.8,211.7 429.8,210.3 433.3,208.9 437.5,207.5 442.2,206.1 447.1,204.7 451.9,203.4 455.8,202.0 458.3,200.6 459.1,199.2 457.9,197.8 454.8,196.4 450.2,195.0 444.6,193.7 438.5,192.3 432.4,190.9 426.7,189.5 421.5,188.1 417.2,186.7 413.8,185.4 411.3,184.0 409.6,182.6 408.6,181.2 408.2,179.8 408.2,178.4 408.5,177.0 409.1,175.7 409.8,174.3 410.5,172.9 411.2,171.5 411.7,170.1 412.0,168.7 412.0,167.4 411.5,166.0 410.7,164.6 409.6,163.2 408.4,161.8 407.0,160.4 405.7,159.0 404.6,157.7 403.7,156.3 403.0,154.9 402.5,153.5 402.1,152.1 401.2,152.1 400.9,153.5 400.4,154.9 399.7,156.3 398.7,157.7 397.6,159.0 396.3,160.4 395.0,161.8 393.7,163.2 392.6,164.6 391.8,166.0 391.4,167.4 391.3,168.7 391.6,170.1 392.2,171.5 392.8,172.9 393.6,174.3 394.3,175.7 394.8,177.0 395.2,178.4 395.2,179.8 394.8,181.2 393.8,182.6 392.1,184.0 389.5,185.4 386.1,186.7 381.8,188.1 376.7,189.5 370.9,190.9 364.8,192.3 358.7,193.7 353.1,195.0 348.5,196.4 345.5,197.8 344.3,199.2 345.0,200.6 347.6,202.0 351.5,203.4 356.2,204.7 361.2,206.1 365.9,207.5 370.0,208.9 373.5,210.3 376.5,211.7 379.2,213.0 381.7,214.4 384.2,215.8 386.7,217.2 389.2,218.6 391.5,220.0 393.6,221.4 395.4,222.7 396.9,224.1 398.1,225.5 399.0,226.9 399.7,228.3 400.1,229.7 400.3,231.0 400.4,232.4 400.4,233.8 400.3,235.2 400.2,236.6 400.2,238.0 400.3,239.4 400.4,240.7 400.5,242.1 400.7,243.5 400.9,244.9 401.1,246.3 401.2,247.7 401.4,249.0 401.5,250.4" fill="#2a8" opacity="0.5" stroke="#2a8" stroke-width="1"/>
<line x1="344.3" y1="199.08561730187753" x2="459.0" y2="199.08561730187753" stroke="#114" stroke-width="2"/>
<circle cx="401.66666666666663" cy="212.85872777782978" r="2.4" fill="#114"/>
<text x="401.66666666666663" y="155.86024689168244" text-anchor="middle" font-size="11">1.15</text>
<text x="401.66666666666663" y="376" text-anchor="middle" font-size="12">zgeru</text>
<polygon points="546.0,263.0 548.2,260.0 550.6,257.0 553.5,254.0 556.8,251.0 560.5,248.0 564.4,245.0 568.5,242.0 572.8,239.0 577.1,236.0 581.2,233.0 585.1,230.0 588.5,227.0 591.4,224.0 593.6,221.0 595.1,218.0 595.7,215.0 595.6,212.0 594.7,209.0 593.0,206.0 590.8,203.0 588.0,200.0 584.8,197.0 581.4,194.0 577.9,191.0 574.5,188.0 571.4,185.0 568.5,182.0 566.1,179.0 564.2,176.0 563.0,173.0 562.3,170.0 562.2,167.0 562.8,164.0 563.8,161.0 565.4,158.0 567.3,155.0 569.5,152.0 571.9,149.0 574.3,146.0 576.7,143.0 578.9,140.0 580.9,137.0 582.6,134.0 584.0,131.0 585.0,128.0 585.7,125.0 586.1,122.0 586.3,119.0 586.2,116.0 585.9,113.0 585.6,110.0 585.1,107.0 584.6,104.0 584.1,101.0 583.5,98.0 582.8,95.0 582.1,92.0 581.2,89.0 580.2,86.0 578.9,83.0 577.5,80.0 575.8,77.0 573.8,74.0 571.6,71.0 569.2,68.0 566.7,65.0 564.0,62.0 561.3,59.0 558.6,56.0 555.9,53.0 553.4,50.0 523.2,50.0 520.7,53.0 518.1,56.0 515.4,59.0 512.6,62.0 510.0,65.0 507.4,68.0 505.0,71.0 502.8,74.0 500.9,77.0 499.2,80.0 497.7,83.0 496.5,86.0 495.5,89.0 494.6,92.0 493.9,95.0 493.2,98.0 492.6,101.0 492.1,104.0 491.5,107.0 491.1,110.0 490.7,113.0 490.5,116.0 490.4,119.0 490.5,122.0 490.9,125.0 491.6,128.0 492.7,131.0 494.1,134.0 495.8,137.0 497.8,140.0 500.0,143.0 502.4,146.0 504.8,149.0 507.2,152.0 509.4,155.0 511.3,158.0 512.8,161.0 513.9,164.0 514.4,167.0 514.4,170.0 513.7,173.0 512.4,176.0 510.6,179.0 508.2,182.0 505.3,185.0 502.1,188.0 498.7,191.0 495.3,194.0 491.9,197.0 488.7,200.0 485.9,203.0 483.6,206.0 482.0,209.0 481.1,212.0 480.9,215.0 481.6,218.0 483.1,221.0 485.3,224.0 488.2,227.0 491.6,230.0 495.4,233.0 499.6,236.0 503.8,239.0 508.1,242.0 512.3,245.0 516.2,248.0 519.8,251.0 523.1,254.0 526.0,257.0 528.5,260.0 530.6,263.0" fill="#2a8" opacity="0.5" stroke="#2a8" stroke-width="1"/>
<line x1="497.3" y1="139.32657305045248" x2="579.4" y2="139.32657305045248" stroke="#114" stroke-width="2"/>
<circle cx="538.3333333333333" cy="221.81136664414396" r="2.4" fill="#114"/>
<text x="538.3333333333333" y="61.43396226415098" text-anchor="middle" font-size="11">1.59</text>
<text x="538.3333333333333" y="376" text-anchor="middle" font-size="12">zhemv</text>
<polygon points="675.7,271.7 675.9,268.9 676.3,266.2 676.7,263.5 677.3,260.8 678.1,258.1 679.1,255.4 680.4,252.7 682.1,250.0 684.5,247.3 687.4,244.5 691.1,241.8 695.4,239.1 700.4,236.4 705.7,233.7 711.0,231.0 716.2,228.3 720.9,225.6 724.8,222.8 727.8,220.1 729.9,217.4 731.3,214.7 732.0,212.0 732.4,209.3 732.4,206.6 732.3,203.9 732.0,201.2 731.4,198.4 730.5,195.7 729.1,193.0 727.0,190.3 724.3,187.6 721.1,184.9 717.4,182.2 713.6,179.5 709.9,176.7 706.6,174.0 704.0,171.3 702.2,168.6 701.3,165.9 701.3,163.2 702.0,160.5 703.1,157.8 704.4,155.0 705.6,152.3 706.5,149.6 706.9,146.9 706.7,144.2 706.0,141.5 704.8,138.8 703.1,136.1 701.1,133.4 698.8,130.6 696.3,127.9 693.7,125.2 691.1,122.5 688.5,119.8 686.1,117.1 683.9,114.4 682.0,111.7 680.5,108.9 679.2,106.2 678.3,103.5 677.5,100.8 677.0,98.1 676.6,95.4 676.3,92.7 676.1,90.0 675.9,87.3 675.7,84.5 675.5,81.8 675.4,79.1 674.6,79.1 674.5,81.8 674.3,84.5 674.1,87.3 673.9,90.0 673.7,92.7 673.4,95.4 673.0,98.1 672.5,100.8 671.7,103.5 670.8,106.2 669.5,108.9 668.0,111.7 666.1,114.4 663.9,117.1 661.5,119.8 658.9,122.5 656.3,125.2 653.7,127.9 651.2,130.6 648.9,133.4 646.9,136.1 645.2,138.8 644.0,141.5 643.3,144.2 643.1,146.9 643.5,149.6 644.4,152.3 645.6,155.0 646.9,157.8 648.0,160.5 648.7,163.2 648.7,165.9 647.8,168.6 646.0,171.3 643.4,174.0 640.1,176.7 636.4,179.5 632.6,182.2 628.9,184.9 625.7,187.6 623.0,190.3 620.9,193.0 619.5,195.7 618.6,198.4 618.0,201.2 617.7,203.9 617.6,206.6 617.6,209.3 618.0,212.0 618.7,214.7 620.1,217.4 622.2,220.1 625.2,222.8 629.1,225.6 633.8,228.3 639.0,231.0 644.3,233.7 649.6,236.4 654.6,239.1 658.9,241.8 662.6,244.5 665.5,247.3 667.9,250.0 669.6,252.7 670.9,255.4 671.9,258.1 672.7,260.8 673.3,263.5 673.7,266.2 674.1,268.9 674.3,271.7" fill="#2a8" opacity="0.5" stroke="#2a8" stroke-width="1"/>
<line x1="621.6" y1="192.10691575262302" x2="728.4" y2="192.10691575262302" stroke="#114" stroke-width="2"/>
<circle cx="675.0" cy="225.22571624559706" r="2.4" fill="#114"/>
<text x="675.0" y="91.9743230230839" text-anchor="middle" font-size="11">1.20</text>
<text x="675.0" y="376" text-anchor="middle" font-size="12">ztrmv</text>
<polygon points="814.6,243.9 815.7,242.6 817.2,241.2 819.0,239.9 821.3,238.6 824.1,237.2 827.3,235.9 831.0,234.6 835.1,233.3 839.5,231.9 844.0,230.6 848.4,229.3 852.6,227.9 856.3,226.6 859.3,225.3 861.5,223.9 862.7,222.6 863.0,221.3 862.4,220.0 861.0,218.6 859.0,217.3 856.7,216.0 854.2,214.6 851.8,213.3 849.7,212.0 848.0,210.6 846.8,209.3 846.1,208.0 846.0,206.7 846.4,205.3 847.2,204.0 848.4,202.7 849.9,201.3 851.6,200.0 853.6,198.7 855.6,197.3 857.8,196.0 859.9,194.7 862.0,193.4 863.9,192.0 865.7,190.7 867.1,189.4 868.2,188.0 868.8,186.7 869.1,185.4 868.9,184.0 868.3,182.7 867.3,181.4 866.0,180.0 864.4,178.7 862.6,177.4 860.7,176.1 858.7,174.7 856.6,173.4 854.5,172.1 852.3,170.7 850.0,169.4 847.7,168.1 845.2,166.7 842.6,165.4 840.0,164.1 837.2,162.8 834.5,161.4 831.7,160.1 829.0,158.8 826.4,157.4 824.0,156.1 821.8,154.8 819.8,153.4 818.1,152.1 816.6,150.8 815.4,149.5 807.9,149.5 806.7,150.8 805.2,152.1 803.5,153.4 801.6,154.8 799.4,156.1 796.9,157.4 794.3,158.8 791.6,160.1 788.9,161.4 786.1,162.8 783.4,164.1 780.7,165.4 778.1,166.7 775.7,168.1 773.3,169.4 771.0,170.7 768.8,172.1 766.7,173.4 764.6,174.7 762.6,176.1 760.7,177.4 758.9,178.7 757.4,180.0 756.1,181.4 755.1,182.7 754.5,184.0 754.3,185.4 754.5,186.7 755.2,188.0 756.2,189.4 757.7,190.7 759.4,192.0 761.3,193.4 763.4,194.7 765.6,196.0 767.7,197.3 769.8,198.7 771.7,200.0 773.4,201.3 775.0,202.7 776.2,204.0 777.0,205.3 777.4,206.7 777.2,208.0 776.6,209.3 775.4,210.6 773.7,212.0 771.5,213.3 769.1,214.6 766.7,216.0 764.3,217.3 762.3,218.6 761.0,220.0 760.3,221.3 760.6,222.6 761.9,223.9 764.0,225.3 767.0,226.6 770.7,227.9 774.9,229.3 779.3,230.6 783.8,231.9 788.2,233.3 792.3,234.6 796.0,235.9 799.3,237.2 802.0,238.6 804.3,239.9 806.2,241.2 807.6,242.6 808.7,243.9" fill="#2a8" opacity="0.5" stroke="#2a8" stroke-width="1"/>
<line x1="758.1" y1="191.04481930973373" x2="865.2" y2="191.04481930973373" stroke="#114" stroke-width="2"/>
<circle cx="811.6666666666666" cy="223.73378173245706" r="2.4" fill="#114"/>
<text x="811.6666666666666" y="152.82019904460392" text-anchor="middle" font-size="11">1.21</text>
<text x="811.6666666666666" y="376" text-anchor="middle" font-size="12">ztrsv</text>
<text x="450.0" y="428" text-anchor="middle" font-size="11" fill="#666">violin = ratio distribution over sizes · line = median · dark dot = worst size · green = every size ≥ gate</text>
</svg>
