<svg xmlns="http://www.w3.org/2000/svg" width="962" height="592" font-family="sans-serif">
<rect width="962" height="592" fill="white"/>
<text x="481.0" y="26" text-anchor="middle" font-size="17" font-weight="bold">BLAS-2 — PureBLAS / OpenBLAS (PB/OpenBLAS ratio)</text>
<line x1="46" y1="42" x2="68" y2="42" stroke="#d62728" stroke-width="3"/>
<text x="73" y="46" font-size="12">Zen3 · AVX2</text>
<line x1="176" y1="42" x2="198" y2="42" stroke="#2ca02c" stroke-width="3"/>
<text x="203" y="46" font-size="12">Zen5 · AVX-512</text>
<line x1="327" y1="42" x2="349" y2="42" stroke="#1f77b4" stroke-width="3"/>
<text x="354" y="46" font-size="12">Zen4 · AVX-512</text>
<rect x="46" y="60" width="210" height="138" fill="none" stroke="#e2e2e2"/>
<line x1="46" y1="136.6727729633108" x2="256" y2="136.6727729633108" stroke="#d33" stroke-dasharray="4 3"/>
<text x="42" y="201.0" text-anchor="end" font-size="9" fill="#999">0.5×</text>
<text x="42" y="139.6727729633108" text-anchor="end" font-size="9" fill="#999">1.0×</text>
<polygon points="46.0,98.7 81.0,133.8 116.0,127.3 151.0,133.0 186.0,129.8 221.0,121.8 256.0,132.6 256.0,133.4 221.0,123.0 186.0,130.9 151.0,136.3 116.0,133.0 81.0,135.7 46.0,101.5" fill="#d62728" opacity="0.11"/>
<polyline points="46.0,100.5 81.0,134.8 116.0,130.0 151.0,135.1 186.0,130.3 221.0,122.4 256.0,133.1" fill="none" stroke="#d62728" stroke-width="1.6"/>
<circle cx="46.0" cy="100.5" r="2" fill="#d62728"/>
<circle cx="81.0" cy="134.8" r="2" fill="#d62728"/>
<circle cx="116.0" cy="130.0" r="2" fill="#d62728"/>
<circle cx="151.0" cy="135.1" r="2" fill="#d62728"/>
<circle cx="186.0" cy="130.3" r="2" fill="#d62728"/>
<circle cx="221.0" cy="122.4" r="2" fill="#d62728"/>
<circle cx="256.0" cy="133.1" r="2" fill="#d62728"/>
<polygon points="46.0,75.3 81.0,119.9 116.0,124.9 151.0,135.6 186.0,136.2 221.0,133.4 256.0,125.0 256.0,129.5 221.0,142.9 186.0,138.8 151.0,138.8 116.0,135.4 81.0,121.6 46.0,90.2" fill="#2ca02c" opacity="0.11"/>
<polyline points="46.0,76.6 81.0,120.9 116.0,129.1 151.0,138.2 186.0,137.4 221.0,137.8 256.0,127.9" fill="none" stroke="#2ca02c" stroke-width="1.6"/>
<circle cx="46.0" cy="76.6" r="2" fill="#2ca02c"/>
<circle cx="81.0" cy="120.9" r="2" fill="#2ca02c"/>
<circle cx="116.0" cy="129.1" r="2" fill="#2ca02c"/>
<circle cx="151.0" cy="138.2" r="2" fill="#2ca02c"/>
<circle cx="186.0" cy="137.4" r="2" fill="#2ca02c"/>
<circle cx="221.0" cy="137.8" r="2" fill="#2ca02c"/>
<circle cx="256.0" cy="127.9" r="2" fill="#2ca02c"/>
<polygon points="46.0,66.8 81.0,129.9 116.0,131.4 151.0,129.3 186.0,127.8 221.0,112.4 256.0,109.2 256.0,114.8 221.0,115.3 186.0,138.6 151.0,136.4 116.0,140.4 81.0,133.8 46.0,76.2" fill="#1f77b4" opacity="0.11"/>
<polyline points="46.0,69.7 81.0,132.8 116.0,138.0 151.0,133.7 186.0,131.4 221.0,113.6 256.0,112.8" fill="none" stroke="#1f77b4" stroke-width="1.6"/>
<circle cx="46.0" cy="69.7" r="2" fill="#1f77b4"/>
<circle cx="81.0" cy="132.8" r="2" fill="#1f77b4"/>
<circle cx="116.0" cy="138.0" r="2" fill="#1f77b4"/>
<circle cx="151.0" cy="133.7" r="2" fill="#1f77b4"/>
<circle cx="186.0" cy="131.4" r="2" fill="#1f77b4"/>
<circle cx="221.0" cy="113.6" r="2" fill="#1f77b4"/>
<circle cx="256.0" cy="112.8" r="2" fill="#1f77b4"/>
<text x="151.0" y="55" text-anchor="middle" font-size="12" font-weight="bold">gemvN</text>
<line x1="46.0" y1="60" x2="46.0" y2="198" stroke="#f4f4f4"/>
<text x="46.0" y="209" text-anchor="middle" font-size="8" fill="#999">64</text>
<line x1="81.0" y1="60" x2="81.0" y2="198" stroke="#f4f4f4"/>
<text x="81.0" y="209" text-anchor="middle" font-size="8" fill="#999">128</text>
<line x1="116.0" y1="60" x2="116.0" y2="198" stroke="#f4f4f4"/>
<text x="116.0" y="209" text-anchor="middle" font-size="8" fill="#999">256</text>
<line x1="151.0" y1="60" x2="151.0" y2="198" stroke="#f4f4f4"/>
<text x="151.0" y="209" text-anchor="middle" font-size="8" fill="#999">512</text>
<line x1="186.0" y1="60" x2="186.0" y2="198" stroke="#f4f4f4"/>
<text x="186.0" y="209" text-anchor="middle" font-size="8" fill="#999">1k</text>
<line x1="221.0" y1="60" x2="221.0" y2="198" stroke="#f4f4f4"/>
<text x="221.0" y="209" text-anchor="middle" font-size="8" fill="#999">2k</text>
<line x1="256.0" y1="60" x2="256.0" y2="198" stroke="#f4f4f4"/>
<text x="256.0" y="209" text-anchor="middle" font-size="8" fill="#999">4k</text>
<rect x="276" y="60" width="210" height="138" fill="none" stroke="#e2e2e2"/>
<line x1="276" y1="115.76276119065531" x2="486" y2="115.76276119065531" stroke="#d33" stroke-dasharray="4 3"/>
<text x="272" y="201.0" text-anchor="end" font-size="9" fill="#999">0.5×</text>
<text x="272" y="118.76276119065531" text-anchor="end" font-size="9" fill="#999">1.0×</text>
<text x="272" y="63.0" text-anchor="end" font-size="9" fill="#999">1.6×</text>
<polygon points="276.0,104.2 311.0,109.2 346.0,102.3 381.0,109.2 416.0,113.5 451.0,114.1 486.0,108.0 486.0,110.2 451.0,115.6 416.0,114.6 381.0,113.1 346.0,111.2 311.0,112.6 276.0,106.3" fill="#d62728" opacity="0.11"/>
<polyline points="276.0,105.0 311.0,110.0 346.0,105.6 381.0,111.4 416.0,114.1 451.0,115.0 486.0,108.4" fill="none" stroke="#d62728" stroke-width="1.6"/>
<circle cx="276.0" cy="105.0" r="2" fill="#d62728"/>
<circle cx="311.0" cy="110.0" r="2" fill="#d62728"/>
<circle cx="346.0" cy="105.6" r="2" fill="#d62728"/>
<circle cx="381.0" cy="111.4" r="2" fill="#d62728"/>
<circle cx="416.0" cy="114.1" r="2" fill="#d62728"/>
<circle cx="451.0" cy="115.0" r="2" fill="#d62728"/>
<circle cx="486.0" cy="108.4" r="2" fill="#d62728"/>
<polygon points="276.0,90.8 311.0,106.2 346.0,112.3 381.0,110.0 416.0,112.5 451.0,93.0 486.0,93.7 486.0,99.2 451.0,96.3 416.0,114.6 381.0,112.9 346.0,114.2 311.0,108.1 276.0,102.5" fill="#2ca02c" opacity="0.11"/>
<polyline points="276.0,92.3 311.0,107.5 346.0,113.1 381.0,111.1 416.0,113.5 451.0,94.8 486.0,96.2" fill="none" stroke="#2ca02c" stroke-width="1.6"/>
<circle cx="276.0" cy="92.3" r="2" fill="#2ca02c"/>
<circle cx="311.0" cy="107.5" r="2" fill="#2ca02c"/>
<circle cx="346.0" cy="113.1" r="2" fill="#2ca02c"/>
<circle cx="381.0" cy="111.1" r="2" fill="#2ca02c"/>
<circle cx="416.0" cy="113.5" r="2" fill="#2ca02c"/>
<circle cx="451.0" cy="94.8" r="2" fill="#2ca02c"/>
<circle cx="486.0" cy="96.2" r="2" fill="#2ca02c"/>
<polygon points="276.0,83.8 311.0,107.8 346.0,115.5 381.0,108.3 416.0,108.0 451.0,102.8 486.0,87.4 486.0,88.3 451.0,107.7 416.0,111.7 381.0,112.1 346.0,122.0 311.0,109.5 276.0,88.7" fill="#1f77b4" opacity="0.11"/>
<polyline points="276.0,86.7 311.0,108.7 346.0,119.1 381.0,110.2 416.0,108.9 451.0,105.5 486.0,87.7" fill="none" stroke="#1f77b4" stroke-width="1.6"/>
<circle cx="276.0" cy="86.7" r="2" fill="#1f77b4"/>
<circle cx="311.0" cy="108.7" r="2" fill="#1f77b4"/>
<circle cx="346.0" cy="119.1" r="2" fill="#1f77b4"/>
<circle cx="381.0" cy="110.2" r="2" fill="#1f77b4"/>
<circle cx="416.0" cy="108.9" r="2" fill="#1f77b4"/>
<circle cx="451.0" cy="105.5" r="2" fill="#1f77b4"/>
<circle cx="486.0" cy="87.7" r="2" fill="#1f77b4"/>
<text x="381.0" y="55" text-anchor="middle" font-size="12" font-weight="bold">gemvT</text>
<line x1="276.0" y1="60" x2="276.0" y2="198" stroke="#f4f4f4"/>
<text x="276.0" y="209" text-anchor="middle" font-size="8" fill="#999">64</text>
<line x1="311.0" y1="60" x2="311.0" y2="198" stroke="#f4f4f4"/>
<text x="311.0" y="209" text-anchor="middle" font-size="8" fill="#999">128</text>
<line x1="346.0" y1="60" x2="346.0" y2="198" stroke="#f4f4f4"/>
<text x="346.0" y="209" text-anchor="middle" font-size="8" fill="#999">256</text>
<line x1="381.0" y1="60" x2="381.0" y2="198" stroke="#f4f4f4"/>
<text x="381.0" y="209" text-anchor="middle" font-size="8" fill="#999">512</text>
<line x1="416.0" y1="60" x2="416.0" y2="198" stroke="#f4f4f4"/>
<text x="416.0" y="209" text-anchor="middle" font-size="8" fill="#999">1k</text>
<line x1="451.0" y1="60" x2="451.0" y2="198" stroke="#f4f4f4"/>
<text x="451.0" y="209" text-anchor="middle" font-size="8" fill="#999">2k</text>
<line x1="486.0" y1="60" x2="486.0" y2="198" stroke="#f4f4f4"/>
<text x="486.0" y="209" text-anchor="middle" font-size="8" fill="#999">4k</text>
<rect x="506" y="60" width="210" height="138" fill="none" stroke="#e2e2e2"/>
<line x1="506" y1="116.62563947083962" x2="716" y2="116.62563947083962" stroke="#d33" stroke-dasharray="4 3"/>
<text x="502" y="201.0" text-anchor="end" font-size="9" fill="#999">0.5×</text>
<text x="502" y="119.62563947083962" text-anchor="end" font-size="9" fill="#999">1.0×</text>
<polygon points="506.0,85.1 541.0,109.0 576.0,112.0 611.0,113.6 646.0,114.7 681.0,92.1 716.0,108.7 716.0,111.1 681.0,94.6 646.0,117.2 611.0,117.1 576.0,116.5 541.0,117.4 506.0,87.4" fill="#d62728" opacity="0.11"/>
<polyline points="506.0,85.8 541.0,111.4 576.0,113.5 611.0,115.2 646.0,116.5 681.0,93.0 716.0,109.6" fill="none" stroke="#d62728" stroke-width="1.6"/>
<circle cx="506.0" cy="85.8" r="2" fill="#d62728"/>
<circle cx="541.0" cy="111.4" r="2" fill="#d62728"/>
<circle cx="576.0" cy="113.5" r="2" fill="#d62728"/>
<circle cx="611.0" cy="115.2" r="2" fill="#d62728"/>
<circle cx="646.0" cy="116.5" r="2" fill="#d62728"/>
<circle cx="681.0" cy="93.0" r="2" fill="#d62728"/>
<circle cx="716.0" cy="109.6" r="2" fill="#d62728"/>
<polygon points="506.0,69.0 541.0,111.1 576.0,114.7 611.0,112.3 646.0,113.1 681.0,114.0 716.0,116.1 716.0,118.5 681.0,119.5 646.0,121.3 611.0,117.5 576.0,116.2 541.0,114.6 506.0,122.0" fill="#2ca02c" opacity="0.11"/>
<polyline points="506.0,98.2 541.0,113.2 576.0,115.3 611.0,116.3 646.0,116.2 681.0,116.6 716.0,117.4" fill="none" stroke="#2ca02c" stroke-width="1.6"/>
<circle cx="506.0" cy="98.2" r="2" fill="#2ca02c"/>
<circle cx="541.0" cy="113.2" r="2" fill="#2ca02c"/>
<circle cx="576.0" cy="115.3" r="2" fill="#2ca02c"/>
<circle cx="611.0" cy="116.3" r="2" fill="#2ca02c"/>
<circle cx="646.0" cy="116.2" r="2" fill="#2ca02c"/>
<circle cx="681.0" cy="116.6" r="2" fill="#2ca02c"/>
<circle cx="716.0" cy="117.4" r="2" fill="#2ca02c"/>
<polygon points="506.0,94.4 541.0,99.9 576.0,104.5 611.0,99.3 646.0,108.3 681.0,75.9 716.0,75.0 716.0,76.9 681.0,78.7 646.0,112.2 611.0,129.3 576.0,113.4 541.0,109.2 506.0,99.7" fill="#1f77b4" opacity="0.11"/>
<polyline points="506.0,97.2 541.0,106.6 576.0,107.1 611.0,106.3 646.0,110.0 681.0,77.4 716.0,75.8" fill="none" stroke="#1f77b4" stroke-width="1.6"/>
<circle cx="506.0" cy="97.2" r="2" fill="#1f77b4"/>
<circle cx="541.0" cy="106.6" r="2" fill="#1f77b4"/>
<circle cx="576.0" cy="107.1" r="2" fill="#1f77b4"/>
<circle cx="611.0" cy="106.3" r="2" fill="#1f77b4"/>
<circle cx="646.0" cy="110.0" r="2" fill="#1f77b4"/>
<circle cx="681.0" cy="77.4" r="2" fill="#1f77b4"/>
<circle cx="716.0" cy="75.8" r="2" fill="#1f77b4"/>
<text x="611.0" y="55" text-anchor="middle" font-size="12" font-weight="bold">ger</text>
<line x1="506.0" y1="60" x2="506.0" y2="198" stroke="#f4f4f4"/>
<text x="506.0" y="209" text-anchor="middle" font-size="8" fill="#999">64</text>
<line x1="541.0" y1="60" x2="541.0" y2="198" stroke="#f4f4f4"/>
<text x="541.0" y="209" text-anchor="middle" font-size="8" fill="#999">128</text>
<line x1="576.0" y1="60" x2="576.0" y2="198" stroke="#f4f4f4"/>
<text x="576.0" y="209" text-anchor="middle" font-size="8" fill="#999">256</text>
<line x1="611.0" y1="60" x2="611.0" y2="198" stroke="#f4f4f4"/>
<text x="611.0" y="209" text-anchor="middle" font-size="8" fill="#999">512</text>
<line x1="646.0" y1="60" x2="646.0" y2="198" stroke="#f4f4f4"/>
<text x="646.0" y="209" text-anchor="middle" font-size="8" fill="#999">1k</text>
<line x1="681.0" y1="60" x2="681.0" y2="198" stroke="#f4f4f4"/>
<text x="681.0" y="209" text-anchor="middle" font-size="8" fill="#999">2k</text>
<line x1="716.0" y1="60" x2="716.0" y2="198" stroke="#f4f4f4"/>
<text x="716.0" y="209" text-anchor="middle" font-size="8" fill="#999">4k</text>
<rect x="736" y="60" width="210" height="138" fill="none" stroke="#e2e2e2"/>
<line x1="736" y1="115.76276119065531" x2="946" y2="115.76276119065531" stroke="#d33" stroke-dasharray="4 3"/>
<text x="732" y="201.0" text-anchor="end" font-size="9" fill="#999">0.5×</text>
<text x="732" y="118.76276119065531" text-anchor="end" font-size="9" fill="#999">1.0×</text>
<text x="732" y="63.0" text-anchor="end" font-size="9" fill="#999">1.6×</text>
<polygon points="736.0,73.6 771.0,85.0 806.0,96.9 841.0,112.5 876.0,114.5 911.0,115.0 946.0,110.6 946.0,112.4 911.0,116.2 876.0,116.9 841.0,115.8 806.0,111.2 771.0,87.6 736.0,75.4" fill="#d62728" opacity="0.11"/>
<polyline points="736.0,74.9 771.0,87.0 806.0,101.3 841.0,113.9 876.0,115.5 911.0,115.6 946.0,111.2" fill="none" stroke="#d62728" stroke-width="1.6"/>
<circle cx="736.0" cy="74.9" r="2" fill="#d62728"/>
<circle cx="771.0" cy="87.0" r="2" fill="#d62728"/>
<circle cx="806.0" cy="101.3" r="2" fill="#d62728"/>
<circle cx="841.0" cy="113.9" r="2" fill="#d62728"/>
<circle cx="876.0" cy="115.5" r="2" fill="#d62728"/>
<circle cx="911.0" cy="115.6" r="2" fill="#d62728"/>
<circle cx="946.0" cy="111.2" r="2" fill="#d62728"/>
<polygon points="736.0,83.8 771.0,92.5 806.0,98.7 841.0,99.5 876.0,109.8 911.0,96.5 946.0,101.5 946.0,107.2 911.0,99.7 876.0,112.0 841.0,103.5 806.0,99.5 771.0,94.4 736.0,85.2" fill="#2ca02c" opacity="0.11"/>
<polyline points="736.0,84.8 771.0,93.1 806.0,99.0 841.0,101.0 876.0,110.9 911.0,98.2 946.0,103.5" fill="none" stroke="#2ca02c" stroke-width="1.6"/>
<circle cx="736.0" cy="84.8" r="2" fill="#2ca02c"/>
<circle cx="771.0" cy="93.1" r="2" fill="#2ca02c"/>
<circle cx="806.0" cy="99.0" r="2" fill="#2ca02c"/>
<circle cx="841.0" cy="101.0" r="2" fill="#2ca02c"/>
<circle cx="876.0" cy="110.9" r="2" fill="#2ca02c"/>
<circle cx="911.0" cy="98.2" r="2" fill="#2ca02c"/>
<circle cx="946.0" cy="103.5" r="2" fill="#2ca02c"/>
<polygon points="736.0,75.3 771.0,81.4 806.0,85.8 841.0,92.8 876.0,100.9 911.0,90.3 946.0,81.7 946.0,109.4 911.0,92.3 876.0,103.0 841.0,98.9 806.0,88.6 771.0,82.7 736.0,77.1" fill="#1f77b4" opacity="0.11"/>
<polyline points="736.0,76.6 771.0,81.9 806.0,87.2 841.0,96.3 876.0,101.9 911.0,91.2 946.0,94.7" fill="none" stroke="#1f77b4" stroke-width="1.6"/>
<circle cx="736.0" cy="76.6" r="2" fill="#1f77b4"/>
<circle cx="771.0" cy="81.9" r="2" fill="#1f77b4"/>
<circle cx="806.0" cy="87.2" r="2" fill="#1f77b4"/>
<circle cx="841.0" cy="96.3" r="2" fill="#1f77b4"/>
<circle cx="876.0" cy="101.9" r="2" fill="#1f77b4"/>
<circle cx="911.0" cy="91.2" r="2" fill="#1f77b4"/>
<circle cx="946.0" cy="94.7" r="2" fill="#1f77b4"/>
<text x="841.0" y="55" text-anchor="middle" font-size="12" font-weight="bold">symv</text>
<line x1="736.0" y1="60" x2="736.0" y2="198" stroke="#f4f4f4"/>
<text x="736.0" y="209" text-anchor="middle" font-size="8" fill="#999">64</text>
<line x1="771.0" y1="60" x2="771.0" y2="198" stroke="#f4f4f4"/>
<text x="771.0" y="209" text-anchor="middle" font-size="8" fill="#999">128</text>
<line x1="806.0" y1="60" x2="806.0" y2="198" stroke="#f4f4f4"/>
<text x="806.0" y="209" text-anchor="middle" font-size="8" fill="#999">256</text>
<line x1="841.0" y1="60" x2="841.0" y2="198" stroke="#f4f4f4"/>
<text x="841.0" y="209" text-anchor="middle" font-size="8" fill="#999">512</text>
<line x1="876.0" y1="60" x2="876.0" y2="198" stroke="#f4f4f4"/>
<text x="876.0" y="209" text-anchor="middle" font-size="8" fill="#999">1k</text>
<line x1="911.0" y1="60" x2="911.0" y2="198" stroke="#f4f4f4"/>
<text x="911.0" y="209" text-anchor="middle" font-size="8" fill="#999">2k</text>
<line x1="946.0" y1="60" x2="946.0" y2="198" stroke="#f4f4f4"/>
<text x="946.0" y="209" text-anchor="middle" font-size="8" fill="#999">4k</text>
<rect x="46" y="232" width="210" height="138" fill="none" stroke="#e2e2e2"/>
<line x1="46" y1="291.4920397170838" x2="256" y2="291.4920397170838" stroke="#d33" stroke-dasharray="4 3"/>
<text x="42" y="373.0" text-anchor="end" font-size="9" fill="#999">0.5×</text>
<text x="42" y="294.4920397170838" text-anchor="end" font-size="9" fill="#999">1.0×</text>
<text x="42" y="235.05968874703188" text-anchor="end" font-size="9" fill="#999">1.69×</text>
<polygon points="46.0,240.7 81.0,255.9 116.0,258.0 151.0,281.4 186.0,286.2 221.0,284.3 256.0,284.6 256.0,285.8 221.0,286.1 186.0,289.1 151.0,283.1 116.0,267.9 81.0,258.4 46.0,241.5" fill="#d62728" opacity="0.11"/>
<polyline points="46.0,241.2 81.0,257.0 116.0,265.2 151.0,282.1 186.0,287.4 221.0,285.1 256.0,284.9" fill="none" stroke="#d62728" stroke-width="1.6"/>
<circle cx="46.0" cy="241.2" r="2" fill="#d62728"/>
<circle cx="81.0" cy="257.0" r="2" fill="#d62728"/>
<circle cx="116.0" cy="265.2" r="2" fill="#d62728"/>
<circle cx="151.0" cy="282.1" r="2" fill="#d62728"/>
<circle cx="186.0" cy="287.4" r="2" fill="#d62728"/>
<circle cx="221.0" cy="285.1" r="2" fill="#d62728"/>
<circle cx="256.0" cy="284.9" r="2" fill="#d62728"/>
<polygon points="46.0,246.9 81.0,266.0 116.0,265.8 151.0,283.2 186.0,286.3 221.0,283.2 256.0,282.1 256.0,292.8 221.0,287.7 186.0,288.6 151.0,286.4 116.0,268.7 81.0,271.2 46.0,264.5" fill="#2ca02c" opacity="0.11"/>
<polyline points="46.0,254.7 81.0,269.9 116.0,267.8 151.0,285.1 186.0,288.0 221.0,285.7 256.0,286.5" fill="none" stroke="#2ca02c" stroke-width="1.6"/>
<circle cx="46.0" cy="254.7" r="2" fill="#2ca02c"/>
<circle cx="81.0" cy="269.9" r="2" fill="#2ca02c"/>
<circle cx="116.0" cy="267.8" r="2" fill="#2ca02c"/>
<circle cx="151.0" cy="285.1" r="2" fill="#2ca02c"/>
<circle cx="186.0" cy="288.0" r="2" fill="#2ca02c"/>
<circle cx="221.0" cy="285.7" r="2" fill="#2ca02c"/>
<circle cx="256.0" cy="286.5" r="2" fill="#2ca02c"/>
<polygon points="46.0,251.5 81.0,262.6 116.0,273.4 151.0,283.1 186.0,285.1 221.0,269.8 256.0,265.4 256.0,272.0 221.0,276.6 186.0,289.3 151.0,289.9 116.0,278.5 81.0,265.3 46.0,252.9" fill="#1f77b4" opacity="0.11"/>
<polyline points="46.0,252.4 81.0,264.3 116.0,276.3 151.0,286.2 186.0,286.9 221.0,272.6 256.0,268.6" fill="none" stroke="#1f77b4" stroke-width="1.6"/>
<circle cx="46.0" cy="252.4" r="2" fill="#1f77b4"/>
<circle cx="81.0" cy="264.3" r="2" fill="#1f77b4"/>
<circle cx="116.0" cy="276.3" r="2" fill="#1f77b4"/>
<circle cx="151.0" cy="286.2" r="2" fill="#1f77b4"/>
<circle cx="186.0" cy="286.9" r="2" fill="#1f77b4"/>
<circle cx="221.0" cy="272.6" r="2" fill="#1f77b4"/>
<circle cx="256.0" cy="268.6" r="2" fill="#1f77b4"/>
<text x="151.0" y="227" text-anchor="middle" font-size="12" font-weight="bold">trmv</text>
<line x1="46.0" y1="232" x2="46.0" y2="370" stroke="#f4f4f4"/>
<text x="46.0" y="381" text-anchor="middle" font-size="8" fill="#999">64</text>
<line x1="81.0" y1="232" x2="81.0" y2="370" stroke="#f4f4f4"/>
<text x="81.0" y="381" text-anchor="middle" font-size="8" fill="#999">128</text>
<line x1="116.0" y1="232" x2="116.0" y2="370" stroke="#f4f4f4"/>
<text x="116.0" y="381" text-anchor="middle" font-size="8" fill="#999">256</text>
<line x1="151.0" y1="232" x2="151.0" y2="370" stroke="#f4f4f4"/>
<text x="151.0" y="381" text-anchor="middle" font-size="8" fill="#999">512</text>
<line x1="186.0" y1="232" x2="186.0" y2="370" stroke="#f4f4f4"/>
<text x="186.0" y="381" text-anchor="middle" font-size="8" fill="#999">1k</text>
<line x1="221.0" y1="232" x2="221.0" y2="370" stroke="#f4f4f4"/>
<text x="221.0" y="381" text-anchor="middle" font-size="8" fill="#999">2k</text>
<line x1="256.0" y1="232" x2="256.0" y2="370" stroke="#f4f4f4"/>
<text x="256.0" y="381" text-anchor="middle" font-size="8" fill="#999">4k</text>
<rect x="276" y="232" width="210" height="138" fill="none" stroke="#e2e2e2"/>
<line x1="276" y1="292.04841107875694" x2="486" y2="292.04841107875694" stroke="#d33" stroke-dasharray="4 3"/>
<text x="272" y="373.0" text-anchor="end" font-size="9" fill="#999">0.5×</text>
<text x="272" y="295.04841107875694" text-anchor="end" font-size="9" fill="#999">1.0×</text>
<polygon points="276.0,240.7 311.0,249.7 346.0,256.3 381.0,276.5 416.0,282.5 451.0,284.1 486.0,283.7 486.0,286.2 451.0,288.0 416.0,286.2 381.0,277.6 346.0,262.8 311.0,251.5 276.0,241.0" fill="#d62728" opacity="0.11"/>
<polyline points="276.0,240.8 311.0,250.0 346.0,259.0 381.0,276.8 416.0,284.4 451.0,286.5 486.0,285.3" fill="none" stroke="#d62728" stroke-width="1.6"/>
<circle cx="276.0" cy="240.8" r="2" fill="#d62728"/>
<circle cx="311.0" cy="250.0" r="2" fill="#d62728"/>
<circle cx="346.0" cy="259.0" r="2" fill="#d62728"/>
<circle cx="381.0" cy="276.8" r="2" fill="#d62728"/>
<circle cx="416.0" cy="284.4" r="2" fill="#d62728"/>
<circle cx="451.0" cy="286.5" r="2" fill="#d62728"/>
<circle cx="486.0" cy="285.3" r="2" fill="#d62728"/>
<polygon points="276.0,269.1 311.0,275.2 346.0,274.7 381.0,288.3 416.0,289.6 451.0,286.3 486.0,280.2 486.0,293.7 451.0,292.8 416.0,290.9 381.0,291.0 346.0,276.2 311.0,282.3 276.0,277.0" fill="#2ca02c" opacity="0.11"/>
<polyline points="276.0,271.9 311.0,276.4 346.0,275.7 381.0,289.5 416.0,290.1 451.0,287.1 486.0,283.9" fill="none" stroke="#2ca02c" stroke-width="1.6"/>
<circle cx="276.0" cy="271.9" r="2" fill="#2ca02c"/>
<circle cx="311.0" cy="276.4" r="2" fill="#2ca02c"/>
<circle cx="346.0" cy="275.7" r="2" fill="#2ca02c"/>
<circle cx="381.0" cy="289.5" r="2" fill="#2ca02c"/>
<circle cx="416.0" cy="290.1" r="2" fill="#2ca02c"/>
<circle cx="451.0" cy="287.1" r="2" fill="#2ca02c"/>
<circle cx="486.0" cy="283.9" r="2" fill="#2ca02c"/>
<polygon points="276.0,273.3 311.0,277.0 346.0,279.6 381.0,287.9 416.0,285.4 451.0,270.3 486.0,269.2 486.0,275.1 451.0,288.2 416.0,290.9 381.0,293.9 346.0,282.9 311.0,278.2 276.0,273.8" fill="#1f77b4" opacity="0.11"/>
<polyline points="276.0,273.5 311.0,277.7 346.0,281.9 381.0,291.4 416.0,289.0 451.0,274.9 486.0,272.6" fill="none" stroke="#1f77b4" stroke-width="1.6"/>
<circle cx="276.0" cy="273.5" r="2" fill="#1f77b4"/>
<circle cx="311.0" cy="277.7" r="2" fill="#1f77b4"/>
<circle cx="346.0" cy="281.9" r="2" fill="#1f77b4"/>
<circle cx="381.0" cy="291.4" r="2" fill="#1f77b4"/>
<circle cx="416.0" cy="289.0" r="2" fill="#1f77b4"/>
<circle cx="451.0" cy="274.9" r="2" fill="#1f77b4"/>
<circle cx="486.0" cy="272.6" r="2" fill="#1f77b4"/>
<text x="381.0" y="227" text-anchor="middle" font-size="12" font-weight="bold">trsv</text>
<line x1="276.0" y1="232" x2="276.0" y2="370" stroke="#f4f4f4"/>
<text x="276.0" y="381" text-anchor="middle" font-size="8" fill="#999">64</text>
<line x1="311.0" y1="232" x2="311.0" y2="370" stroke="#f4f4f4"/>
<text x="311.0" y="381" text-anchor="middle" font-size="8" fill="#999">128</text>
<line x1="346.0" y1="232" x2="346.0" y2="370" stroke="#f4f4f4"/>
<text x="346.0" y="381" text-anchor="middle" font-size="8" fill="#999">256</text>
<line x1="381.0" y1="232" x2="381.0" y2="370" stroke="#f4f4f4"/>
<text x="381.0" y="381" text-anchor="middle" font-size="8" fill="#999">512</text>
<line x1="416.0" y1="232" x2="416.0" y2="370" stroke="#f4f4f4"/>
<text x="416.0" y="381" text-anchor="middle" font-size="8" fill="#999">1k</text>
<line x1="451.0" y1="232" x2="451.0" y2="370" stroke="#f4f4f4"/>
<text x="451.0" y="381" text-anchor="middle" font-size="8" fill="#999">2k</text>
<line x1="486.0" y1="232" x2="486.0" y2="370" stroke="#f4f4f4"/>
<text x="486.0" y="381" text-anchor="middle" font-size="8" fill="#999">4k</text>
<rect x="506" y="232" width="210" height="138" fill="none" stroke="#e2e2e2"/>
<line x1="506" y1="318.3509235087786" x2="716" y2="318.3509235087786" stroke="#d33" stroke-dasharray="4 3"/>
<text x="502" y="373.0" text-anchor="end" font-size="9" fill="#999">0.5×</text>
<text x="502" y="321.3509235087786" text-anchor="end" font-size="9" fill="#999">1.0×</text>
<polygon points="506.0,258.6 541.0,241.9 576.0,250.8 611.0,268.5 646.0,267.7 681.0,264.7 716.0,267.1 716.0,268.8 681.0,265.3 646.0,268.8 611.0,270.6 576.0,253.6 541.0,243.6 506.0,260.1" fill="#d62728" opacity="0.11"/>
<polyline points="506.0,259.2 541.0,242.5 576.0,252.9 611.0,269.5 646.0,268.4 681.0,265.1 716.0,267.8" fill="none" stroke="#d62728" stroke-width="1.6"/>
<circle cx="506.0" cy="259.2" r="2" fill="#d62728"/>
<circle cx="541.0" cy="242.5" r="2" fill="#d62728"/>
<circle cx="576.0" cy="252.9" r="2" fill="#d62728"/>
<circle cx="611.0" cy="269.5" r="2" fill="#d62728"/>
<circle cx="646.0" cy="268.4" r="2" fill="#d62728"/>
<circle cx="681.0" cy="265.1" r="2" fill="#d62728"/>
<circle cx="716.0" cy="267.8" r="2" fill="#d62728"/>
<polygon points="506.0,275.6 541.0,237.7 576.0,249.6 611.0,258.4 646.0,269.7 681.0,268.1 716.0,270.1 716.0,271.9 681.0,276.7 646.0,273.6 611.0,261.2 576.0,252.1 541.0,240.9 506.0,279.8" fill="#2ca02c" opacity="0.11"/>
<polyline points="506.0,277.6 541.0,239.9 576.0,251.5 611.0,259.8 646.0,270.5 681.0,270.1 716.0,271.3" fill="none" stroke="#2ca02c" stroke-width="1.6"/>
<circle cx="506.0" cy="277.6" r="2" fill="#2ca02c"/>
<circle cx="541.0" cy="239.9" r="2" fill="#2ca02c"/>
<circle cx="576.0" cy="251.5" r="2" fill="#2ca02c"/>
<circle cx="611.0" cy="259.8" r="2" fill="#2ca02c"/>
<circle cx="646.0" cy="270.5" r="2" fill="#2ca02c"/>
<circle cx="681.0" cy="270.1" r="2" fill="#2ca02c"/>
<circle cx="716.0" cy="271.3" r="2" fill="#2ca02c"/>
<polygon points="506.0,274.3 541.0,246.2 576.0,246.2 611.0,252.8 646.0,262.9 681.0,270.9 716.0,266.1 716.0,268.4 681.0,277.4 646.0,264.7 611.0,255.6 576.0,247.8 541.0,248.2 506.0,277.7" fill="#1f77b4" opacity="0.11"/>
<polyline points="506.0,275.3 541.0,246.9 576.0,247.1 611.0,254.0 646.0,263.9 681.0,273.5 716.0,267.4" fill="none" stroke="#1f77b4" stroke-width="1.6"/>
<circle cx="506.0" cy="275.3" r="2" fill="#1f77b4"/>
<circle cx="541.0" cy="246.9" r="2" fill="#1f77b4"/>
<circle cx="576.0" cy="247.1" r="2" fill="#1f77b4"/>
<circle cx="611.0" cy="254.0" r="2" fill="#1f77b4"/>
<circle cx="646.0" cy="263.9" r="2" fill="#1f77b4"/>
<circle cx="681.0" cy="273.5" r="2" fill="#1f77b4"/>
<circle cx="716.0" cy="267.4" r="2" fill="#1f77b4"/>
<text x="611.0" y="227" text-anchor="middle" font-size="12" font-weight="bold">spmv</text>
<line x1="506.0" y1="232" x2="506.0" y2="370" stroke="#f4f4f4"/>
<text x="506.0" y="381" text-anchor="middle" font-size="8" fill="#999">64</text>
<line x1="541.0" y1="232" x2="541.0" y2="370" stroke="#f4f4f4"/>
<text x="541.0" y="381" text-anchor="middle" font-size="8" fill="#999">128</text>
<line x1="576.0" y1="232" x2="576.0" y2="370" stroke="#f4f4f4"/>
<text x="576.0" y="381" text-anchor="middle" font-size="8" fill="#999">256</text>
<line x1="611.0" y1="232" x2="611.0" y2="370" stroke="#f4f4f4"/>
<text x="611.0" y="381" text-anchor="middle" font-size="8" fill="#999">512</text>
<line x1="646.0" y1="232" x2="646.0" y2="370" stroke="#f4f4f4"/>
<text x="646.0" y="381" text-anchor="middle" font-size="8" fill="#999">1k</text>
<line x1="681.0" y1="232" x2="681.0" y2="370" stroke="#f4f4f4"/>
<text x="681.0" y="381" text-anchor="middle" font-size="8" fill="#999">2k</text>
<line x1="716.0" y1="232" x2="716.0" y2="370" stroke="#f4f4f4"/>
<text x="716.0" y="381" text-anchor="middle" font-size="8" fill="#999">4k</text>
<rect x="736" y="232" width="210" height="138" fill="none" stroke="#e2e2e2"/>
<line x1="736" y1="292.5743663731489" x2="946" y2="292.5743663731489" stroke="#d33" stroke-dasharray="4 3"/>
<text x="732" y="373.0" text-anchor="end" font-size="9" fill="#999">0.5×</text>
<text x="732" y="295.5743663731489" text-anchor="end" font-size="9" fill="#999">1.0×</text>
<polygon points="736.0,274.3 771.0,273.0 806.0,279.3 841.0,283.5 876.0,284.9 911.0,285.3 946.0,284.9 946.0,285.8 911.0,286.0 876.0,286.8 841.0,286.4 806.0,286.2 771.0,284.9 736.0,277.1" fill="#d62728" opacity="0.11"/>
<polyline points="736.0,275.0 771.0,280.6 806.0,283.2 841.0,284.0 876.0,285.0 911.0,285.7 946.0,285.4" fill="none" stroke="#d62728" stroke-width="1.6"/>
<circle cx="736.0" cy="275.0" r="2" fill="#d62728"/>
<circle cx="771.0" cy="280.6" r="2" fill="#d62728"/>
<circle cx="806.0" cy="283.2" r="2" fill="#d62728"/>
<circle cx="841.0" cy="284.0" r="2" fill="#d62728"/>
<circle cx="876.0" cy="285.0" r="2" fill="#d62728"/>
<circle cx="911.0" cy="285.7" r="2" fill="#d62728"/>
<circle cx="946.0" cy="285.4" r="2" fill="#d62728"/>
<polygon points="736.0,259.7 771.0,264.2 806.0,265.0 841.0,268.9 876.0,269.0 911.0,268.2 946.0,270.1 946.0,270.7 911.0,269.6 876.0,269.9 841.0,269.9 806.0,271.5 771.0,268.9 736.0,263.6" fill="#2ca02c" opacity="0.11"/>
<polyline points="736.0,262.7 771.0,268.0 806.0,269.5 841.0,269.5 876.0,269.4 911.0,268.9 946.0,270.4" fill="none" stroke="#2ca02c" stroke-width="1.6"/>
<circle cx="736.0" cy="262.7" r="2" fill="#2ca02c"/>
<circle cx="771.0" cy="268.0" r="2" fill="#2ca02c"/>
<circle cx="806.0" cy="269.5" r="2" fill="#2ca02c"/>
<circle cx="841.0" cy="269.5" r="2" fill="#2ca02c"/>
<circle cx="876.0" cy="269.4" r="2" fill="#2ca02c"/>
<circle cx="911.0" cy="268.9" r="2" fill="#2ca02c"/>
<circle cx="946.0" cy="270.4" r="2" fill="#2ca02c"/>
<polygon points="736.0,243.2 771.0,240.6 806.0,247.6 841.0,251.3 876.0,252.3 911.0,253.1 946.0,256.2 946.0,259.2 911.0,254.5 876.0,253.2 841.0,253.1 806.0,254.7 771.0,253.3 736.0,247.3" fill="#1f77b4" opacity="0.11"/>
<polyline points="736.0,245.9 771.0,252.0 806.0,251.4 841.0,252.2 876.0,252.9 911.0,253.4 946.0,257.7" fill="none" stroke="#1f77b4" stroke-width="1.6"/>
<circle cx="736.0" cy="245.9" r="2" fill="#1f77b4"/>
<circle cx="771.0" cy="252.0" r="2" fill="#1f77b4"/>
<circle cx="806.0" cy="251.4" r="2" fill="#1f77b4"/>
<circle cx="841.0" cy="252.2" r="2" fill="#1f77b4"/>
<circle cx="876.0" cy="252.9" r="2" fill="#1f77b4"/>
<circle cx="911.0" cy="253.4" r="2" fill="#1f77b4"/>
<circle cx="946.0" cy="257.7" r="2" fill="#1f77b4"/>
<text x="841.0" y="227" text-anchor="middle" font-size="12" font-weight="bold">gbmvN</text>
<line x1="736.0" y1="232" x2="736.0" y2="370" stroke="#f4f4f4"/>
<text x="736.0" y="381" text-anchor="middle" font-size="8" fill="#999">64</text>
<line x1="771.0" y1="232" x2="771.0" y2="370" stroke="#f4f4f4"/>
<text x="771.0" y="381" text-anchor="middle" font-size="8" fill="#999">128</text>
<line x1="806.0" y1="232" x2="806.0" y2="370" stroke="#f4f4f4"/>
<text x="806.0" y="381" text-anchor="middle" font-size="8" fill="#999">256</text>
<line x1="841.0" y1="232" x2="841.0" y2="370" stroke="#f4f4f4"/>
<text x="841.0" y="381" text-anchor="middle" font-size="8" fill="#999">512</text>
<line x1="876.0" y1="232" x2="876.0" y2="370" stroke="#f4f4f4"/>
<text x="876.0" y="381" text-anchor="middle" font-size="8" fill="#999">1k</text>
<line x1="911.0" y1="232" x2="911.0" y2="370" stroke="#f4f4f4"/>
<text x="911.0" y="381" text-anchor="middle" font-size="8" fill="#999">2k</text>
<line x1="946.0" y1="232" x2="946.0" y2="370" stroke="#f4f4f4"/>
<text x="946.0" y="381" text-anchor="middle" font-size="8" fill="#999">4k</text>
<rect x="46" y="404" width="210" height="138" fill="none" stroke="#e2e2e2"/>
<line x1="46" y1="472.5200534540215" x2="256" y2="472.5200534540215" stroke="#d33" stroke-dasharray="4 3"/>
<text x="42" y="545.0" text-anchor="end" font-size="9" fill="#999">0.5×</text>
<text x="42" y="475.5200534540215" text-anchor="end" font-size="9" fill="#999">1.0×</text>
<text x="42" y="407.0475362353992" text-anchor="end" font-size="9" fill="#999">1.98×</text>
<polygon points="46.0,411.7 81.0,417.5 116.0,419.3 151.0,421.6 186.0,421.9 221.0,422.3 256.0,423.5 256.0,423.8 221.0,423.2 186.0,423.0 151.0,424.2 116.0,422.7 81.0,423.8 46.0,413.4" fill="#d62728" opacity="0.11"/>
<polyline points="46.0,412.6 81.0,417.9 116.0,420.8 151.0,422.5 186.0,422.8 221.0,422.9 256.0,423.7" fill="none" stroke="#d62728" stroke-width="1.6"/>
<circle cx="46.0" cy="412.6" r="2" fill="#d62728"/>
<circle cx="81.0" cy="417.9" r="2" fill="#d62728"/>
<circle cx="116.0" cy="420.8" r="2" fill="#d62728"/>
<circle cx="151.0" cy="422.5" r="2" fill="#d62728"/>
<circle cx="186.0" cy="422.8" r="2" fill="#d62728"/>
<circle cx="221.0" cy="422.9" r="2" fill="#d62728"/>
<circle cx="256.0" cy="423.7" r="2" fill="#d62728"/>
<polygon points="46.0,441.6 81.0,445.9 116.0,453.3 151.0,457.1 186.0,458.1 221.0,458.7 256.0,458.8 256.0,459.2 221.0,459.0 186.0,458.5 151.0,458.2 116.0,457.1 81.0,452.9 46.0,443.9" fill="#2ca02c" opacity="0.11"/>
<polyline points="46.0,442.2 81.0,449.7 116.0,454.5 151.0,457.3 186.0,458.3 221.0,458.8 256.0,459.0" fill="none" stroke="#2ca02c" stroke-width="1.6"/>
<circle cx="46.0" cy="442.2" r="2" fill="#2ca02c"/>
<circle cx="81.0" cy="449.7" r="2" fill="#2ca02c"/>
<circle cx="116.0" cy="454.5" r="2" fill="#2ca02c"/>
<circle cx="151.0" cy="457.3" r="2" fill="#2ca02c"/>
<circle cx="186.0" cy="458.3" r="2" fill="#2ca02c"/>
<circle cx="221.0" cy="458.8" r="2" fill="#2ca02c"/>
<circle cx="256.0" cy="459.0" r="2" fill="#2ca02c"/>
<polygon points="46.0,447.6 81.0,453.2 116.0,456.4 151.0,460.1 186.0,460.9 221.0,462.0 256.0,462.6 256.0,463.7 221.0,462.6 186.0,462.2 151.0,461.8 116.0,461.1 81.0,458.0 46.0,450.8" fill="#1f77b4" opacity="0.11"/>
<polyline points="46.0,449.7 81.0,456.0 116.0,458.6 151.0,461.1 186.0,461.9 221.0,462.3 256.0,462.9" fill="none" stroke="#1f77b4" stroke-width="1.6"/>
<circle cx="46.0" cy="449.7" r="2" fill="#1f77b4"/>
<circle cx="81.0" cy="456.0" r="2" fill="#1f77b4"/>
<circle cx="116.0" cy="458.6" r="2" fill="#1f77b4"/>
<circle cx="151.0" cy="461.1" r="2" fill="#1f77b4"/>
<circle cx="186.0" cy="461.9" r="2" fill="#1f77b4"/>
<circle cx="221.0" cy="462.3" r="2" fill="#1f77b4"/>
<circle cx="256.0" cy="462.9" r="2" fill="#1f77b4"/>
<text x="151.0" y="399" text-anchor="middle" font-size="12" font-weight="bold">sbmv</text>
<line x1="46.0" y1="404" x2="46.0" y2="542" stroke="#f4f4f4"/>
<text x="46.0" y="553" text-anchor="middle" font-size="8" fill="#999">64</text>
<line x1="81.0" y1="404" x2="81.0" y2="542" stroke="#f4f4f4"/>
<text x="81.0" y="553" text-anchor="middle" font-size="8" fill="#999">128</text>
<line x1="116.0" y1="404" x2="116.0" y2="542" stroke="#f4f4f4"/>
<text x="116.0" y="553" text-anchor="middle" font-size="8" fill="#999">256</text>
<line x1="151.0" y1="404" x2="151.0" y2="542" stroke="#f4f4f4"/>
<text x="151.0" y="553" text-anchor="middle" font-size="8" fill="#999">512</text>
<line x1="186.0" y1="404" x2="186.0" y2="542" stroke="#f4f4f4"/>
<text x="186.0" y="553" text-anchor="middle" font-size="8" fill="#999">1k</text>
<line x1="221.0" y1="404" x2="221.0" y2="542" stroke="#f4f4f4"/>
<text x="221.0" y="553" text-anchor="middle" font-size="8" fill="#999">2k</text>
<line x1="256.0" y1="404" x2="256.0" y2="542" stroke="#f4f4f4"/>
<text x="256.0" y="553" text-anchor="middle" font-size="8" fill="#999">4k</text>
</svg>
