<svg xmlns="http://www.w3.org/2000/svg" width="900" height="440" font-family="sans-serif">
<rect width="900" height="440" fill="white"/>
<text x="450.0" y="28" text-anchor="middle" font-size="18" font-weight="bold">Complex BLAS-1: PureBLAS / OpenBLAS (AVX-512 native (Zen5), 1 thread, ComplexF64)</text>
<line x1="60" y1="358.0" x2="880" y2="358.0" stroke="#eee"/>
<text x="52" y="362.0" text-anchor="end" font-size="11" fill="#666">0×</text>
<line x1="60" y1="348.40868246652246" x2="880" y2="348.40868246652246" stroke="#eee"/>
<text x="52" y="352.40868246652246" text-anchor="end" font-size="11" fill="#666">0.5×</text>
<line x1="60" y1="338.8173649330449" x2="880" y2="338.8173649330449" stroke="#eee"/>
<text x="52" y="342.8173649330449" text-anchor="end" font-size="11" fill="#666">1×</text>
<line x1="60" y1="329.2260473995674" x2="880" y2="329.2260473995674" stroke="#eee"/>
<text x="52" y="333.2260473995674" text-anchor="end" font-size="11" fill="#666">1.5×</text>
<line x1="60" y1="338.8173649330449" x2="880" y2="338.8173649330449" stroke="#888" stroke-width="1"/>
<line x1="60" y1="339.58467033572316" x2="880" y2="339.58467033572316" stroke="#d33" stroke-width="1.5" stroke-dasharray="6 4"/>
<text x="880" y="334.58467033572316" text-anchor="end" font-size="11" fill="#d33">0.96× gate</text>
<polygon points="122.5,340.9 123.9,340.8 125.7,340.7 127.7,340.5 130.1,340.4 132.8,340.3 135.6,340.2 138.6,340.1 141.6,340.0 144.5,339.9 147.5,339.8 150.3,339.7 153.0,339.5 155.6,339.4 158.0,339.3 160.3,339.2 162.4,339.1 164.2,339.0 165.7,338.9 166.8,338.8 167.5,338.6 167.8,338.5 167.5,338.4 166.9,338.3 165.8,338.2 164.4,338.1 162.6,338.0 160.6,337.9 158.2,337.7 155.5,337.6 152.6,337.5 149.5,337.4 146.1,337.3 142.7,337.2 139.2,337.1 135.8,337.0 132.6,336.9 129.8,336.7 127.2,336.6 125.1,336.5 123.3,336.4 121.9,336.3 120.9,336.2 120.1,336.1 119.6,336.0 119.3,335.8 119.2,335.7 119.1,335.6 119.3,335.5 119.5,335.4 119.9,335.3 120.5,335.2 121.3,335.1 122.3,334.9 123.6,334.8 125.0,334.7 126.5,334.6 128.1,334.5 129.7,334.4 131.1,334.3 132.2,334.2 132.9,334.1 133.1,333.9 132.9,333.8 132.3,333.7 131.2,333.6 129.8,333.5 128.3,333.4 126.7,333.3 125.1,333.2 123.7,333.0 122.4,332.9 114.7,332.9 113.5,333.0 112.0,333.2 110.5,333.3 108.9,333.4 107.3,333.5 106.0,333.6 104.9,333.7 104.2,333.8 104.0,333.9 104.3,334.1 105.0,334.2 106.1,334.3 107.5,334.4 109.0,334.5 110.6,334.6 112.2,334.7 113.6,334.8 114.8,334.9 115.8,335.1 116.6,335.2 117.2,335.3 117.6,335.4 117.9,335.5 118.0,335.6 118.0,335.7 117.8,335.8 117.5,336.0 117.0,336.1 116.2,336.2 115.2,336.3 113.8,336.4 112.1,336.5 109.9,336.6 107.4,336.7 104.5,336.9 101.3,337.0 98.0,337.1 94.5,337.2 91.0,337.3 87.7,337.4 84.5,337.5 81.6,337.6 78.9,337.7 76.6,337.9 74.5,338.0 72.7,338.1 71.3,338.2 70.3,338.3 69.6,338.4 69.4,338.5 69.6,338.6 70.3,338.8 71.4,338.9 72.9,339.0 74.8,339.1 76.8,339.2 79.1,339.3 81.6,339.4 84.2,339.5 86.9,339.7 89.7,339.8 92.6,339.9 95.6,340.0 98.6,340.1 101.5,340.2 104.4,340.3 107.0,340.4 109.4,340.5 111.5,340.7 113.2,340.8 114.7,340.9" fill="#d33" opacity="0.5" stroke="#d33" stroke-width="1"/>
<line x1="69.9" y1="338.3535800691751" x2="167.2" y2="338.3535800691751" stroke="#114" stroke-width="2"/>
<circle cx="118.57142857142857" cy="339.64237873005453" r="2.4" fill="#114"/>
<text x="118.57142857142857" y="327.73196407671463" text-anchor="middle" font-size="11">1.02</text>
<text x="118.57142857142857" y="376" text-anchor="middle" font-size="12">zaxpy</text>
<polygon points="236.1,341.1 236.3,340.9 236.6,340.8 237.0,340.6 237.6,340.5 238.5,340.3 239.6,340.2 241.1,340.0 243.0,339.9 245.5,339.7 248.6,339.6 252.2,339.4 256.3,339.3 260.7,339.1 265.2,339.0 269.6,338.8 273.5,338.7 276.9,338.5 279.7,338.4 281.8,338.2 283.3,338.1 284.3,337.9 284.8,337.8 284.9,337.6 284.4,337.5 283.2,337.3 281.2,337.2 278.4,337.0 274.9,336.9 271.0,336.7 266.9,336.6 263.1,336.4 259.8,336.3 257.3,336.1 255.5,336.0 254.5,335.8 254.0,335.7 253.8,335.5 253.7,335.4 253.5,335.2 252.9,335.1 252.0,334.9 250.7,334.8 249.2,334.6 247.4,334.5 245.7,334.3 244.0,334.2 242.5,334.0 241.2,333.9 240.2,333.7 239.6,333.6 239.1,333.4 238.9,333.3 239.0,333.1 239.2,333.0 239.6,332.8 240.2,332.7 240.9,332.5 241.8,332.4 242.7,332.2 243.5,332.1 244.2,331.9 244.6,331.8 244.7,331.6 244.4,331.5 243.8,331.3 242.8,331.2 241.7,331.0 240.6,330.9 239.4,330.7 238.5,330.6 237.6,330.4 233.8,330.4 233.0,330.6 232.0,330.7 230.9,330.9 229.7,331.0 228.6,331.2 227.7,331.3 227.0,331.5 226.7,331.6 226.8,331.8 227.2,331.9 227.9,332.1 228.7,332.2 229.6,332.4 230.5,332.5 231.2,332.7 231.8,332.8 232.3,333.0 232.5,333.1 232.5,333.3 232.3,333.4 231.9,333.6 231.2,333.7 230.2,333.9 229.0,334.0 227.5,334.2 225.8,334.3 224.0,334.5 222.3,334.6 220.7,334.8 219.4,334.9 218.5,335.1 218.0,335.2 217.7,335.4 217.6,335.5 217.4,335.7 216.9,335.8 215.9,336.0 214.1,336.1 211.6,336.3 208.3,336.4 204.5,336.6 200.5,336.7 196.5,336.9 193.0,337.0 190.2,337.2 188.2,337.3 187.0,337.5 186.5,337.6 186.6,337.8 187.1,337.9 188.2,338.1 189.7,338.2 191.8,338.4 194.5,338.5 197.9,338.7 201.9,338.8 206.2,339.0 210.7,339.1 215.2,339.3 219.3,339.4 222.9,339.6 225.9,339.7 228.4,339.9 230.4,340.0 231.9,340.2 233.0,340.3 233.8,340.5 234.4,340.6 234.8,340.8 235.1,340.9 235.3,341.1" fill="#2a8" opacity="0.5" stroke="#2a8" stroke-width="1"/>
<line x1="189.0" y1="337.2565270586335" x2="282.5" y2="337.2565270586335" stroke="#114" stroke-width="2"/>
<circle cx="235.71428571428572" cy="338.65163244899867" r="2.4" fill="#114"/>
<text x="235.71428571428572" y="325.49391662282125" text-anchor="middle" font-size="11">1.08</text>
<text x="235.71428571428572" y="376" text-anchor="middle" font-size="12">zdotc</text>
<polygon points="352.9,340.9 353.0,340.9 353.1,340.8 353.3,340.8 353.5,340.7 353.8,340.7 354.1,340.6 354.4,340.6 354.7,340.5 354.9,340.5 355.1,340.4 355.2,340.4 355.3,340.3 355.4,340.3 355.6,340.2 356.0,340.2 356.5,340.1 357.3,340.1 358.2,340.1 359.1,340.0 359.9,340.0 360.6,339.9 360.9,339.9 361.0,339.8 360.7,339.8 360.2,339.7 359.4,339.7 358.6,339.6 357.7,339.6 356.9,339.5 356.2,339.5 355.8,339.4 355.7,339.4 356.3,339.3 357.7,339.3 360.3,339.2 364.2,339.2 369.5,339.1 376.1,339.1 383.4,339.0 390.6,339.0 396.6,338.9 400.7,338.9 402.1,338.8 400.7,338.8 397.2,338.7 392.2,338.7 386.8,338.6 381.9,338.6 378.0,338.5 375.4,338.5 374.0,338.4 373.5,338.4 373.5,338.3 373.6,338.3 373.4,338.2 372.6,338.2 371.2,338.1 369.3,338.1 366.9,338.0 364.4,338.0 362.0,337.9 359.7,337.9 357.9,337.8 356.4,337.8 355.3,337.7 354.5,337.7 353.9,337.6 353.5,337.6 353.2,337.5 353.1,337.5 353.0,337.4 352.7,337.4 352.6,337.5 352.5,337.5 352.2,337.6 351.8,337.6 351.2,337.7 350.4,337.7 349.3,337.8 347.8,337.8 346.0,337.9 343.8,337.9 341.3,338.0 338.8,338.0 336.4,338.1 334.5,338.1 333.1,338.2 332.3,338.2 332.1,338.3 332.2,338.3 332.2,338.4 331.7,338.4 330.3,338.5 327.7,338.5 323.8,338.6 318.9,338.6 313.5,338.7 308.5,338.7 305.0,338.8 303.7,338.8 305.1,338.9 309.1,338.9 315.2,339.0 322.3,339.0 329.6,339.1 336.2,339.1 341.5,339.2 345.5,339.2 348.0,339.3 349.4,339.3 350.0,339.4 349.9,339.4 349.5,339.5 348.8,339.5 348.0,339.6 347.1,339.6 346.3,339.7 345.6,339.7 345.0,339.8 344.7,339.8 344.8,339.9 345.1,339.9 345.8,340.0 346.6,340.0 347.6,340.1 348.4,340.1 349.2,340.1 349.7,340.2 350.1,340.2 350.3,340.3 350.4,340.3 350.5,340.4 350.6,340.4 350.8,340.5 351.0,340.5 351.3,340.6 351.6,340.6 351.9,340.7 352.2,340.7 352.4,340.8 352.6,340.8 352.7,340.9 352.8,340.9" fill="#d33" opacity="0.5" stroke="#d33" stroke-width="1"/>
<line x1="303.8" y1="338.81020487900173" x2="402.0" y2="338.81020487900173" stroke="#114" stroke-width="2"/>
<circle cx="352.85714285714283" cy="339.8824158133589" r="2.4" fill="#114"/>
<text x="352.85714285714283" y="331.8169233402367" text-anchor="middle" font-size="11">1.00</text>
<text x="352.85714285714283" y="376" text-anchor="middle" font-size="12">zscal</text>
<polygon points="479.1,302.2 481.1,298.7 483.3,295.1 485.7,291.6 488.2,288.0 490.8,284.5 493.4,280.9 495.9,277.4 498.4,273.8 500.7,270.3 502.8,266.7 504.6,263.2 506.1,259.6 507.3,256.1 508.2,252.5 508.7,249.0 508.9,245.4 508.7,241.8 508.2,238.3 507.3,234.7 506.1,231.2 504.7,227.6 502.9,224.1 501.0,220.5 498.8,217.0 496.6,213.4 494.3,209.9 492.0,206.3 489.8,202.8 487.8,199.2 486.1,195.7 484.7,192.1 483.6,188.6 483.0,185.0 482.7,181.5 482.8,177.9 483.3,174.3 484.1,170.8 485.1,167.2 486.3,163.7 487.6,160.1 488.9,156.6 490.2,153.0 491.5,149.5 492.7,145.9 493.9,142.4 495.2,138.8 496.4,135.3 497.8,131.7 499.3,128.2 501.1,124.6 503.0,121.1 505.2,117.5 507.4,113.9 509.8,110.4 512.2,106.8 514.4,103.3 516.3,99.7 517.8,96.2 518.8,92.6 519.2,89.1 518.9,85.5 517.9,82.0 516.2,78.4 513.9,74.9 511.0,71.3 507.7,67.8 504.1,64.2 500.4,60.7 496.5,57.1 492.8,53.6 489.3,50.0 450.7,50.0 447.2,53.6 443.5,57.1 439.6,60.7 435.9,64.2 432.3,67.8 429.0,71.3 426.1,74.9 423.8,78.4 422.1,82.0 421.1,85.5 420.8,89.1 421.2,92.6 422.2,96.2 423.7,99.7 425.6,103.3 427.8,106.8 430.2,110.4 432.6,113.9 434.8,117.5 437.0,121.1 438.9,124.6 440.7,128.2 442.2,131.7 443.6,135.3 444.8,138.8 446.1,142.4 447.3,145.9 448.5,149.5 449.8,153.0 451.1,156.6 452.4,160.1 453.7,163.7 454.9,167.2 455.9,170.8 456.7,174.3 457.2,177.9 457.3,181.5 457.0,185.0 456.4,188.6 455.3,192.1 453.9,195.7 452.2,199.2 450.2,202.8 448.0,206.3 445.7,209.9 443.4,213.4 441.2,217.0 439.0,220.5 437.1,224.1 435.3,227.6 433.9,231.2 432.7,234.7 431.8,238.3 431.3,241.8 431.1,245.4 431.3,249.0 431.8,252.5 432.7,256.1 433.9,259.6 435.4,263.2 437.2,266.7 439.3,270.3 441.6,273.8 444.1,277.4 446.6,280.9 449.2,284.5 451.8,288.0 454.3,291.6 456.7,295.1 458.9,298.7 460.9,302.2" fill="#2a8" opacity="0.5" stroke="#2a8" stroke-width="1"/>
<line x1="447.5" y1="146.72504807799166" x2="492.5" y2="146.72504807799166" stroke="#114" stroke-width="2"/>
<circle cx="470.0" cy="269.9469538211605" r="2.4" fill="#114"/>
<text x="470.0" y="61.43396226415098" text-anchor="middle" font-size="11">11.01</text>
<text x="470.0" y="376" text-anchor="middle" font-size="12">dznrm2</text>
<polygon points="587.8,340.8 588.3,340.7 589.0,340.6 590.0,340.6 591.2,340.5 592.6,340.4 594.1,340.4 595.6,340.3 596.9,340.2 597.9,340.1 598.5,340.1 598.7,340.0 598.5,339.9 598.0,339.9 597.3,339.8 596.4,339.7 595.6,339.6 594.8,339.6 594.1,339.5 593.6,339.4 593.1,339.3 592.8,339.3 592.6,339.2 592.7,339.1 593.1,339.1 594.1,339.0 595.7,338.9 598.1,338.8 601.4,338.8 605.6,338.7 610.3,338.6 615.3,338.6 620.1,338.5 624.3,338.4 627.7,338.3 630.3,338.3 631.9,338.2 632.9,338.1 633.4,338.1 633.6,338.0 633.8,337.9 634.2,337.8 634.8,337.8 635.5,337.7 636.1,337.6 636.3,337.6 635.8,337.5 634.0,337.4 631.1,337.3 627.0,337.3 622.2,337.2 617.1,337.1 612.1,337.0 607.7,337.0 603.9,336.9 600.9,336.8 598.5,336.8 596.7,336.7 595.2,336.6 594.0,336.5 593.0,336.5 592.0,336.4 591.2,336.3 590.4,336.3 589.7,336.2 589.1,336.1 588.5,336.0 588.1,336.0 587.8,335.9 587.6,335.8 587.4,335.8 587.3,335.7 587.0,335.7 586.9,335.8 586.7,335.8 586.5,335.9 586.2,336.0 585.7,336.0 585.2,336.1 584.6,336.2 583.9,336.3 583.1,336.3 582.2,336.4 581.3,336.5 580.3,336.5 579.1,336.6 577.6,336.7 575.8,336.8 573.4,336.8 570.4,336.9 566.6,337.0 562.1,337.0 557.2,337.1 552.1,337.2 547.3,337.3 543.2,337.3 540.2,337.4 538.5,337.5 537.9,337.6 538.2,337.6 538.8,337.7 539.5,337.8 540.1,337.8 540.4,337.9 540.7,338.0 540.9,338.1 541.4,338.1 542.4,338.2 544.0,338.3 546.5,338.3 550.0,338.4 554.2,338.5 559.0,338.6 564.0,338.6 568.7,338.7 572.9,338.8 576.2,338.8 578.6,338.9 580.2,339.0 581.1,339.1 581.6,339.1 581.6,339.2 581.5,339.3 581.2,339.3 580.7,339.4 580.1,339.5 579.5,339.6 578.7,339.6 577.8,339.7 577.0,339.8 576.3,339.9 575.7,339.9 575.5,340.0 575.7,340.1 576.4,340.1 577.4,340.2 578.7,340.3 580.2,340.4 581.7,340.4 583.1,340.5 584.3,340.6 585.3,340.6 586.0,340.7 586.4,340.8" fill="#d33" opacity="0.5" stroke="#d33" stroke-width="1"/>
<line x1="540.5" y1="337.92924839973466" x2="633.8" y2="337.92924839973466" stroke="#114" stroke-width="2"/>
<circle cx="587.1428571428571" cy="339.9239427546774" r="2.4" fill="#114"/>
<text x="587.1428571428571" y="330.2081176306447" text-anchor="middle" font-size="11">1.05</text>
<text x="587.1428571428571" y="376" text-anchor="middle" font-size="12">dzasum</text>
<polygon points="704.7,340.6 704.9,340.4 705.4,340.3 706.0,340.2 706.9,340.1 708.2,339.9 710.0,339.8 712.4,339.7 715.5,339.5 719.4,339.4 724.1,339.3 729.5,339.2 735.2,339.0 740.9,338.9 746.0,338.8 750.0,338.6 752.6,338.5 753.5,338.4 753.0,338.2 751.3,338.1 749.1,338.0 746.7,337.9 744.5,337.7 742.6,337.6 741.1,337.5 740.1,337.3 739.4,337.2 739.1,337.1 739.1,337.0 739.3,336.8 739.6,336.7 739.8,336.6 739.6,336.4 738.8,336.3 737.4,336.2 735.7,336.1 733.8,335.9 732.3,335.8 731.3,335.7 731.0,335.5 731.5,335.4 732.4,335.3 733.4,335.1 734.0,335.0 733.9,334.9 732.9,334.8 730.8,334.6 728.0,334.5 724.6,334.4 721.1,334.2 717.8,334.1 714.8,334.0 712.4,333.9 710.5,333.7 709.1,333.6 708.0,333.5 707.2,333.3 706.7,333.2 706.3,333.1 705.9,333.0 705.7,332.8 705.5,332.7 705.3,332.6 705.2,332.4 705.0,332.3 704.9,332.2 704.8,332.1 704.7,331.9 704.6,331.8 704.5,331.7 704.4,331.5 704.4,331.4 704.2,331.4 704.1,331.5 704.1,331.7 704.0,331.8 703.9,331.9 703.8,332.1 703.7,332.2 703.5,332.3 703.4,332.4 703.3,332.6 703.1,332.7 702.9,332.8 702.6,333.0 702.3,333.1 701.9,333.2 701.3,333.3 700.6,333.5 699.5,333.6 698.1,333.7 696.2,333.9 693.7,334.0 690.8,334.1 687.5,334.2 684.0,334.4 680.6,334.5 677.8,334.6 675.7,334.8 674.6,334.9 674.5,335.0 675.1,335.1 676.1,335.3 677.1,335.4 677.5,335.5 677.3,335.7 676.3,335.8 674.7,335.9 672.9,336.1 671.1,336.2 669.8,336.3 669.0,336.4 668.8,336.6 668.9,336.7 669.3,336.8 669.5,337.0 669.5,337.1 669.2,337.2 668.5,337.3 667.4,337.5 666.0,337.6 664.1,337.7 661.9,337.9 659.5,338.0 657.2,338.1 655.6,338.2 655.1,338.4 656.0,338.5 658.5,338.6 662.5,338.8 667.6,338.9 673.3,339.0 679.1,339.2 684.5,339.3 689.2,339.4 693.1,339.5 696.2,339.7 698.6,339.8 700.3,339.9 701.6,340.1 702.6,340.2 703.2,340.3 703.6,340.4 703.9,340.6" fill="#2a8" opacity="0.5" stroke="#2a8" stroke-width="1"/>
<line x1="669.3" y1="337.16191936581646" x2="739.2" y2="337.16191936581646" stroke="#114" stroke-width="2"/>
<circle cx="704.2857142857142" cy="338.5686710179874" r="2.4" fill="#114"/>
<text x="704.2857142857142" y="326.3234578256985" text-anchor="middle" font-size="11">1.09</text>
<text x="704.2857142857142" y="376" text-anchor="middle" font-size="12">zdotu</text>
<polygon points="823.2,337.9 824.1,337.5 825.1,337.1 826.6,336.7 828.3,336.3 830.4,335.9 832.8,335.5 835.5,335.1 838.4,334.7 841.5,334.3 844.5,333.9 847.5,333.5 850.2,333.1 852.5,332.7 854.5,332.3 856.1,331.9 857.3,331.5 858.0,331.2 858.5,330.8 858.7,330.4 858.7,330.0 858.6,329.6 858.4,329.2 858.3,328.8 858.2,328.4 858.2,328.0 858.3,327.6 858.5,327.2 858.8,326.8 859.2,326.4 859.7,326.0 860.2,325.6 860.9,325.2 861.6,324.8 862.5,324.4 863.4,324.0 864.4,323.6 865.5,323.2 866.6,322.8 867.7,322.4 868.7,322.0 869.6,321.6 870.2,321.2 870.6,320.8 870.6,320.4 870.4,320.0 869.8,319.6 869.0,319.2 868.0,318.8 867.0,318.4 865.8,318.0 864.7,317.6 863.6,317.2 862.4,316.8 861.2,316.4 859.9,316.0 858.4,315.6 856.7,315.2 854.7,314.8 852.5,314.4 849.9,314.0 847.2,313.6 844.2,313.2 841.2,312.8 838.3,312.4 835.4,312.0 832.7,311.6 830.3,311.2 828.3,310.8 826.5,310.4 825.1,310.0 824.0,309.6 818.8,309.6 817.7,310.0 816.3,310.4 814.6,310.8 812.5,311.2 810.1,311.6 807.4,312.0 804.6,312.4 801.6,312.8 798.6,313.2 795.7,313.6 792.9,314.0 790.4,314.4 788.1,314.8 786.2,315.2 784.4,315.6 782.9,316.0 781.6,316.4 780.4,316.8 779.3,317.2 778.1,317.6 777.0,318.0 775.9,318.4 774.8,318.8 773.9,319.2 773.1,319.6 772.5,320.0 772.2,320.4 772.3,320.8 772.6,321.2 773.3,321.6 774.1,322.0 775.1,322.4 776.2,322.8 777.4,323.2 778.4,323.6 779.5,324.0 780.4,324.4 781.2,324.8 782.0,325.2 782.6,325.6 783.2,326.0 783.7,326.4 784.1,326.8 784.3,327.2 784.5,327.6 784.6,328.0 784.6,328.4 784.5,328.8 784.4,329.2 784.3,329.6 784.2,330.0 784.2,330.4 784.4,330.8 784.8,331.2 785.6,331.5 786.7,331.9 788.3,332.3 790.3,332.7 792.7,333.1 795.4,333.5 798.3,333.9 801.4,334.3 804.4,334.7 807.3,335.1 810.0,335.5 812.5,335.9 814.6,336.3 816.3,336.7 817.7,337.1 818.8,337.5 819.6,337.9" fill="#2a8" opacity="0.5" stroke="#2a8" stroke-width="1"/>
<line x1="776.5" y1="322.8614509038053" x2="866.4" y2="322.8614509038053" stroke="#114" stroke-width="2"/>
<circle cx="821.4285714285714" cy="324.6616713346499" r="2.4" fill="#114"/>
<text x="821.4285714285714" y="306.4127345310603" text-anchor="middle" font-size="11">1.83</text>
<text x="821.4285714285714" y="376" text-anchor="middle" font-size="12">izamax</text>
<text x="450.0" y="428" text-anchor="middle" font-size="11" fill="#666">violin = ratio distribution over sizes · line = median · dark dot = worst size · green = every size ≥ gate</text>
</svg>
