<svg xmlns="http://www.w3.org/2000/svg" width="962" height="592" font-family="sans-serif">
<rect width="962" height="592" fill="white"/>
<text x="481.0" y="26" text-anchor="middle" font-size="17" font-weight="bold">Complex BLAS-2 — PureBLAS / OpenBLAS (PB/OpenBLAS ratio)</text>
<line x1="46" y1="42" x2="68" y2="42" stroke="#d62728" stroke-width="3"/>
<text x="73" y="46" font-size="12">Zen3 · AVX2</text>
<line x1="176" y1="42" x2="198" y2="42" stroke="#2ca02c" stroke-width="3"/>
<text x="203" y="46" font-size="12">Zen5 · AVX-512</text>
<line x1="327" y1="42" x2="349" y2="42" stroke="#1f77b4" stroke-width="3"/>
<text x="354" y="46" font-size="12">Zen4 · AVX-512</text>
<rect x="46" y="60" width="210" height="138" fill="none" stroke="#e2e2e2"/>
<line x1="46" y1="115.76276119065531" x2="256" y2="115.76276119065531" stroke="#d33" stroke-dasharray="4 3"/>
<text x="42" y="201.0" text-anchor="end" font-size="9" fill="#999">0.5×</text>
<text x="42" y="118.76276119065531" text-anchor="end" font-size="9" fill="#999">1.0×</text>
<text x="42" y="63.0" text-anchor="end" font-size="9" fill="#999">1.6×</text>
<polygon points="46.0,102.8 81.0,94.7 116.0,105.5 151.0,108.4 186.0,107.8 221.0,95.5 256.0,95.9 256.0,98.3 221.0,102.6 186.0,114.0 151.0,111.4 116.0,108.9 81.0,99.8 46.0,104.9" fill="#d62728" opacity="0.11"/>
<polyline points="46.0,103.4 81.0,97.4 116.0,107.2 151.0,110.2 186.0,109.4 221.0,97.8 256.0,97.3" fill="none" stroke="#d62728" stroke-width="1.6"/>
<circle cx="46.0" cy="103.4" r="2" fill="#d62728"/>
<circle cx="81.0" cy="97.4" r="2" fill="#d62728"/>
<circle cx="116.0" cy="107.2" r="2" fill="#d62728"/>
<circle cx="151.0" cy="110.2" r="2" fill="#d62728"/>
<circle cx="186.0" cy="109.4" r="2" fill="#d62728"/>
<circle cx="221.0" cy="97.8" r="2" fill="#d62728"/>
<circle cx="256.0" cy="97.3" r="2" fill="#d62728"/>
<polygon points="46.0,113.6 81.0,115.6 116.0,107.2 151.0,119.0 186.0,99.6 221.0,84.9 256.0,91.5 256.0,95.3 221.0,93.9 186.0,107.4 151.0,127.7 116.0,111.3 81.0,116.4 46.0,115.2" fill="#2ca02c" opacity="0.11"/>
<polyline points="46.0,114.4 81.0,116.1 116.0,109.6 151.0,122.7 186.0,102.5 221.0,92.0 256.0,93.2" fill="none" stroke="#2ca02c" stroke-width="1.6"/>
<circle cx="46.0" cy="114.4" r="2" fill="#2ca02c"/>
<circle cx="81.0" cy="116.1" r="2" fill="#2ca02c"/>
<circle cx="116.0" cy="109.6" r="2" fill="#2ca02c"/>
<circle cx="151.0" cy="122.7" r="2" fill="#2ca02c"/>
<circle cx="186.0" cy="102.5" r="2" fill="#2ca02c"/>
<circle cx="221.0" cy="92.0" r="2" fill="#2ca02c"/>
<circle cx="256.0" cy="93.2" r="2" fill="#2ca02c"/>
<polygon points="46.0,98.3 81.0,94.9 116.0,83.9 151.0,106.8 186.0,103.1 221.0,88.6 256.0,78.8 256.0,81.1 221.0,91.5 186.0,111.8 151.0,115.0 116.0,91.8 81.0,105.1 46.0,101.4" fill="#1f77b4" opacity="0.11"/>
<polyline points="46.0,98.9 81.0,96.9 116.0,86.7 151.0,109.2 186.0,107.9 221.0,90.7 256.0,79.3" fill="none" stroke="#1f77b4" stroke-width="1.6"/>
<circle cx="46.0" cy="98.9" r="2" fill="#1f77b4"/>
<circle cx="81.0" cy="96.9" r="2" fill="#1f77b4"/>
<circle cx="116.0" cy="86.7" r="2" fill="#1f77b4"/>
<circle cx="151.0" cy="109.2" r="2" fill="#1f77b4"/>
<circle cx="186.0" cy="107.9" r="2" fill="#1f77b4"/>
<circle cx="221.0" cy="90.7" r="2" fill="#1f77b4"/>
<circle cx="256.0" cy="79.3" r="2" fill="#1f77b4"/>
<text x="151.0" y="55" text-anchor="middle" font-size="12" font-weight="bold">zgemvN</text>
<line x1="46.0" y1="60" x2="46.0" y2="198" stroke="#f4f4f4"/>
<text x="46.0" y="209" text-anchor="middle" font-size="8" fill="#999">64</text>
<line x1="81.0" y1="60" x2="81.0" y2="198" stroke="#f4f4f4"/>
<text x="81.0" y="209" text-anchor="middle" font-size="8" fill="#999">128</text>
<line x1="116.0" y1="60" x2="116.0" y2="198" stroke="#f4f4f4"/>
<text x="116.0" y="209" text-anchor="middle" font-size="8" fill="#999">256</text>
<line x1="151.0" y1="60" x2="151.0" y2="198" stroke="#f4f4f4"/>
<text x="151.0" y="209" text-anchor="middle" font-size="8" fill="#999">512</text>
<line x1="186.0" y1="60" x2="186.0" y2="198" stroke="#f4f4f4"/>
<text x="186.0" y="209" text-anchor="middle" font-size="8" fill="#999">1k</text>
<line x1="221.0" y1="60" x2="221.0" y2="198" stroke="#f4f4f4"/>
<text x="221.0" y="209" text-anchor="middle" font-size="8" fill="#999">2k</text>
<line x1="256.0" y1="60" x2="256.0" y2="198" stroke="#f4f4f4"/>
<text x="256.0" y="209" text-anchor="middle" font-size="8" fill="#999">4k</text>
<rect x="276" y="60" width="210" height="138" fill="none" stroke="#e2e2e2"/>
<line x1="276" y1="115.76276119065531" x2="486" y2="115.76276119065531" stroke="#d33" stroke-dasharray="4 3"/>
<text x="272" y="201.0" text-anchor="end" font-size="9" fill="#999">0.5×</text>
<text x="272" y="118.76276119065531" text-anchor="end" font-size="9" fill="#999">1.0×</text>
<text x="272" y="63.0" text-anchor="end" font-size="9" fill="#999">1.6×</text>
<polygon points="276.0,83.4 311.0,78.4 346.0,95.2 381.0,101.3 416.0,101.5 451.0,99.2 486.0,93.9 486.0,99.7 451.0,104.2 416.0,106.9 381.0,104.1 346.0,103.7 311.0,90.4 276.0,85.1" fill="#d62728" opacity="0.11"/>
<polyline points="276.0,84.0 311.0,82.0 346.0,98.0 381.0,102.6 416.0,103.7 451.0,100.9 486.0,96.9" fill="none" stroke="#d62728" stroke-width="1.6"/>
<circle cx="276.0" cy="84.0" r="2" fill="#d62728"/>
<circle cx="311.0" cy="82.0" r="2" fill="#d62728"/>
<circle cx="346.0" cy="98.0" r="2" fill="#d62728"/>
<circle cx="381.0" cy="102.6" r="2" fill="#d62728"/>
<circle cx="416.0" cy="103.7" r="2" fill="#d62728"/>
<circle cx="451.0" cy="100.9" r="2" fill="#d62728"/>
<circle cx="486.0" cy="96.9" r="2" fill="#d62728"/>
<polygon points="276.0,103.0 311.0,101.0 346.0,96.8 381.0,107.2 416.0,94.8 451.0,90.9 486.0,97.3 486.0,99.6 451.0,95.6 416.0,100.6 381.0,123.8 346.0,103.6 311.0,102.6 276.0,104.3" fill="#2ca02c" opacity="0.11"/>
<polyline points="276.0,103.7 311.0,102.2 346.0,100.4 381.0,116.6 416.0,97.2 451.0,93.8 486.0,98.7" fill="none" stroke="#2ca02c" stroke-width="1.6"/>
<circle cx="276.0" cy="103.7" r="2" fill="#2ca02c"/>
<circle cx="311.0" cy="102.2" r="2" fill="#2ca02c"/>
<circle cx="346.0" cy="100.4" r="2" fill="#2ca02c"/>
<circle cx="381.0" cy="116.6" r="2" fill="#2ca02c"/>
<circle cx="416.0" cy="97.2" r="2" fill="#2ca02c"/>
<circle cx="451.0" cy="93.8" r="2" fill="#2ca02c"/>
<circle cx="486.0" cy="98.7" r="2" fill="#2ca02c"/>
<polygon points="276.0,88.9 311.0,90.4 346.0,84.9 381.0,102.6 416.0,97.3 451.0,89.1 486.0,79.3 486.0,85.5 451.0,92.2 416.0,109.9 381.0,109.2 346.0,96.4 311.0,93.9 276.0,92.9" fill="#1f77b4" opacity="0.11"/>
<polyline points="276.0,89.3 311.0,92.1 346.0,90.7 381.0,107.1 416.0,106.1 451.0,90.3 486.0,80.9" fill="none" stroke="#1f77b4" stroke-width="1.6"/>
<circle cx="276.0" cy="89.3" r="2" fill="#1f77b4"/>
<circle cx="311.0" cy="92.1" r="2" fill="#1f77b4"/>
<circle cx="346.0" cy="90.7" r="2" fill="#1f77b4"/>
<circle cx="381.0" cy="107.1" r="2" fill="#1f77b4"/>
<circle cx="416.0" cy="106.1" r="2" fill="#1f77b4"/>
<circle cx="451.0" cy="90.3" r="2" fill="#1f77b4"/>
<circle cx="486.0" cy="80.9" r="2" fill="#1f77b4"/>
<text x="381.0" y="55" text-anchor="middle" font-size="12" font-weight="bold">zgemvT</text>
<line x1="276.0" y1="60" x2="276.0" y2="198" stroke="#f4f4f4"/>
<text x="276.0" y="209" text-anchor="middle" font-size="8" fill="#999">64</text>
<line x1="311.0" y1="60" x2="311.0" y2="198" stroke="#f4f4f4"/>
<text x="311.0" y="209" text-anchor="middle" font-size="8" fill="#999">128</text>
<line x1="346.0" y1="60" x2="346.0" y2="198" stroke="#f4f4f4"/>
<text x="346.0" y="209" text-anchor="middle" font-size="8" fill="#999">256</text>
<line x1="381.0" y1="60" x2="381.0" y2="198" stroke="#f4f4f4"/>
<text x="381.0" y="209" text-anchor="middle" font-size="8" fill="#999">512</text>
<line x1="416.0" y1="60" x2="416.0" y2="198" stroke="#f4f4f4"/>
<text x="416.0" y="209" text-anchor="middle" font-size="8" fill="#999">1k</text>
<line x1="451.0" y1="60" x2="451.0" y2="198" stroke="#f4f4f4"/>
<text x="451.0" y="209" text-anchor="middle" font-size="8" fill="#999">2k</text>
<line x1="486.0" y1="60" x2="486.0" y2="198" stroke="#f4f4f4"/>
<text x="486.0" y="209" text-anchor="middle" font-size="8" fill="#999">4k</text>
<rect x="506" y="60" width="210" height="138" fill="none" stroke="#e2e2e2"/>
<line x1="506" y1="115.76276119065531" x2="716" y2="115.76276119065531" stroke="#d33" stroke-dasharray="4 3"/>
<text x="502" y="201.0" text-anchor="end" font-size="9" fill="#999">0.5×</text>
<text x="502" y="118.76276119065531" text-anchor="end" font-size="9" fill="#999">1.0×</text>
<text x="502" y="63.0" text-anchor="end" font-size="9" fill="#999">1.6×</text>
<polygon points="506.0,80.0 541.0,75.1 576.0,93.1 611.0,100.3 646.0,101.5 681.0,99.4 716.0,95.9 716.0,98.2 681.0,103.8 646.0,106.8 611.0,103.5 576.0,100.1 541.0,81.7 506.0,81.9" fill="#d62728" opacity="0.11"/>
<polyline points="506.0,80.3 541.0,78.3 576.0,97.4 611.0,102.8 646.0,105.7 681.0,101.4 716.0,97.2" fill="none" stroke="#d62728" stroke-width="1.6"/>
<circle cx="506.0" cy="80.3" r="2" fill="#d62728"/>
<circle cx="541.0" cy="78.3" r="2" fill="#d62728"/>
<circle cx="576.0" cy="97.4" r="2" fill="#d62728"/>
<circle cx="611.0" cy="102.8" r="2" fill="#d62728"/>
<circle cx="646.0" cy="105.7" r="2" fill="#d62728"/>
<circle cx="681.0" cy="101.4" r="2" fill="#d62728"/>
<circle cx="716.0" cy="97.2" r="2" fill="#d62728"/>
<polygon points="506.0,98.6 541.0,98.2 576.0,95.6 611.0,106.1 646.0,98.3 681.0,90.8 716.0,83.6 716.0,100.7 681.0,95.2 646.0,105.7 611.0,117.6 576.0,102.5 541.0,100.6 506.0,99.9" fill="#2ca02c" opacity="0.11"/>
<polyline points="506.0,99.2 541.0,99.9 576.0,100.8 611.0,111.9 646.0,101.1 681.0,92.2 716.0,99.4" fill="none" stroke="#2ca02c" stroke-width="1.6"/>
<circle cx="506.0" cy="99.2" r="2" fill="#2ca02c"/>
<circle cx="541.0" cy="99.9" r="2" fill="#2ca02c"/>
<circle cx="576.0" cy="100.8" r="2" fill="#2ca02c"/>
<circle cx="611.0" cy="111.9" r="2" fill="#2ca02c"/>
<circle cx="646.0" cy="101.1" r="2" fill="#2ca02c"/>
<circle cx="681.0" cy="92.2" r="2" fill="#2ca02c"/>
<circle cx="716.0" cy="99.4" r="2" fill="#2ca02c"/>
<polygon points="506.0,87.9 541.0,88.0 576.0,84.4 611.0,103.6 646.0,96.1 681.0,88.0 716.0,78.7 716.0,79.6 681.0,92.0 646.0,111.7 611.0,109.8 576.0,95.9 541.0,93.3 506.0,89.0" fill="#1f77b4" opacity="0.11"/>
<polyline points="506.0,88.6 541.0,89.8 576.0,87.0 611.0,106.5 646.0,104.4 681.0,89.8 716.0,79.1" fill="none" stroke="#1f77b4" stroke-width="1.6"/>
<circle cx="506.0" cy="88.6" r="2" fill="#1f77b4"/>
<circle cx="541.0" cy="89.8" r="2" fill="#1f77b4"/>
<circle cx="576.0" cy="87.0" r="2" fill="#1f77b4"/>
<circle cx="611.0" cy="106.5" r="2" fill="#1f77b4"/>
<circle cx="646.0" cy="104.4" r="2" fill="#1f77b4"/>
<circle cx="681.0" cy="89.8" r="2" fill="#1f77b4"/>
<circle cx="716.0" cy="79.1" r="2" fill="#1f77b4"/>
<text x="611.0" y="55" text-anchor="middle" font-size="12" font-weight="bold">zgemvC</text>
<line x1="506.0" y1="60" x2="506.0" y2="198" stroke="#f4f4f4"/>
<text x="506.0" y="209" text-anchor="middle" font-size="8" fill="#999">64</text>
<line x1="541.0" y1="60" x2="541.0" y2="198" stroke="#f4f4f4"/>
<text x="541.0" y="209" text-anchor="middle" font-size="8" fill="#999">128</text>
<line x1="576.0" y1="60" x2="576.0" y2="198" stroke="#f4f4f4"/>
<text x="576.0" y="209" text-anchor="middle" font-size="8" fill="#999">256</text>
<line x1="611.0" y1="60" x2="611.0" y2="198" stroke="#f4f4f4"/>
<text x="611.0" y="209" text-anchor="middle" font-size="8" fill="#999">512</text>
<line x1="646.0" y1="60" x2="646.0" y2="198" stroke="#f4f4f4"/>
<text x="646.0" y="209" text-anchor="middle" font-size="8" fill="#999">1k</text>
<line x1="681.0" y1="60" x2="681.0" y2="198" stroke="#f4f4f4"/>
<text x="681.0" y="209" text-anchor="middle" font-size="8" fill="#999">2k</text>
<line x1="716.0" y1="60" x2="716.0" y2="198" stroke="#f4f4f4"/>
<text x="716.0" y="209" text-anchor="middle" font-size="8" fill="#999">4k</text>
<rect x="736" y="60" width="210" height="138" fill="none" stroke="#e2e2e2"/>
<line x1="736" y1="118.3374274296506" x2="946" y2="118.3374274296506" stroke="#d33" stroke-dasharray="4 3"/>
<text x="732" y="201.0" text-anchor="end" font-size="9" fill="#999">0.5×</text>
<text x="732" y="121.3374274296506" text-anchor="end" font-size="9" fill="#999">1.0×</text>
<text x="732" y="63.0894893856819" text-anchor="end" font-size="9" fill="#999">1.66×</text>
<polygon points="736.0,88.8 771.0,103.1 806.0,110.7 841.0,119.3 876.0,117.3 911.0,116.3 946.0,118.7 946.0,121.0 911.0,125.5 876.0,125.3 841.0,122.1 806.0,120.1 771.0,108.0 736.0,92.5" fill="#d62728" opacity="0.11"/>
<polyline points="736.0,89.6 771.0,106.4 806.0,116.8 841.0,120.6 876.0,122.4 911.0,121.8 946.0,119.7" fill="none" stroke="#d62728" stroke-width="1.6"/>
<circle cx="736.0" cy="89.6" r="2" fill="#d62728"/>
<circle cx="771.0" cy="106.4" r="2" fill="#d62728"/>
<circle cx="806.0" cy="116.8" r="2" fill="#d62728"/>
<circle cx="841.0" cy="120.6" r="2" fill="#d62728"/>
<circle cx="876.0" cy="122.4" r="2" fill="#d62728"/>
<circle cx="911.0" cy="121.8" r="2" fill="#d62728"/>
<circle cx="946.0" cy="119.7" r="2" fill="#d62728"/>
<polygon points="736.0,102.2 771.0,102.2 806.0,107.7 841.0,110.3 876.0,108.1 911.0,113.3 946.0,117.8 946.0,121.0 911.0,116.1 876.0,120.7 841.0,118.3 806.0,113.8 771.0,105.4 736.0,106.3" fill="#2ca02c" opacity="0.11"/>
<polyline points="736.0,104.8 771.0,102.7 806.0,110.3 841.0,115.1 876.0,115.2 911.0,114.0 946.0,120.1" fill="none" stroke="#2ca02c" stroke-width="1.6"/>
<circle cx="736.0" cy="104.8" r="2" fill="#2ca02c"/>
<circle cx="771.0" cy="102.7" r="2" fill="#2ca02c"/>
<circle cx="806.0" cy="110.3" r="2" fill="#2ca02c"/>
<circle cx="841.0" cy="115.1" r="2" fill="#2ca02c"/>
<circle cx="876.0" cy="115.2" r="2" fill="#2ca02c"/>
<circle cx="911.0" cy="114.0" r="2" fill="#2ca02c"/>
<circle cx="946.0" cy="120.1" r="2" fill="#2ca02c"/>
<polygon points="736.0,68.8 771.0,88.7 806.0,93.6 841.0,97.6 876.0,100.1 911.0,103.0 946.0,107.7 946.0,109.5 911.0,104.3 876.0,118.5 841.0,116.1 806.0,100.5 771.0,93.2 736.0,76.3" fill="#1f77b4" opacity="0.11"/>
<polyline points="736.0,71.5 771.0,90.1 806.0,97.6 841.0,106.6 876.0,107.5 911.0,103.8 946.0,108.5" fill="none" stroke="#1f77b4" stroke-width="1.6"/>
<circle cx="736.0" cy="71.5" r="2" fill="#1f77b4"/>
<circle cx="771.0" cy="90.1" r="2" fill="#1f77b4"/>
<circle cx="806.0" cy="97.6" r="2" fill="#1f77b4"/>
<circle cx="841.0" cy="106.6" r="2" fill="#1f77b4"/>
<circle cx="876.0" cy="107.5" r="2" fill="#1f77b4"/>
<circle cx="911.0" cy="103.8" r="2" fill="#1f77b4"/>
<circle cx="946.0" cy="108.5" r="2" fill="#1f77b4"/>
<text x="841.0" y="55" text-anchor="middle" font-size="12" font-weight="bold">zgeru</text>
<line x1="736.0" y1="60" x2="736.0" y2="198" stroke="#f4f4f4"/>
<text x="736.0" y="209" text-anchor="middle" font-size="8" fill="#999">64</text>
<line x1="771.0" y1="60" x2="771.0" y2="198" stroke="#f4f4f4"/>
<text x="771.0" y="209" text-anchor="middle" font-size="8" fill="#999">128</text>
<line x1="806.0" y1="60" x2="806.0" y2="198" stroke="#f4f4f4"/>
<text x="806.0" y="209" text-anchor="middle" font-size="8" fill="#999">256</text>
<line x1="841.0" y1="60" x2="841.0" y2="198" stroke="#f4f4f4"/>
<text x="841.0" y="209" text-anchor="middle" font-size="8" fill="#999">512</text>
<line x1="876.0" y1="60" x2="876.0" y2="198" stroke="#f4f4f4"/>
<text x="876.0" y="209" text-anchor="middle" font-size="8" fill="#999">1k</text>
<line x1="911.0" y1="60" x2="911.0" y2="198" stroke="#f4f4f4"/>
<text x="911.0" y="209" text-anchor="middle" font-size="8" fill="#999">2k</text>
<line x1="946.0" y1="60" x2="946.0" y2="198" stroke="#f4f4f4"/>
<text x="946.0" y="209" text-anchor="middle" font-size="8" fill="#999">4k</text>
<rect x="46" y="232" width="210" height="138" fill="none" stroke="#e2e2e2"/>
<line x1="46" y1="315.0474841248682" x2="256" y2="315.0474841248682" stroke="#d33" stroke-dasharray="4 3"/>
<text x="42" y="373.0" text-anchor="end" font-size="9" fill="#999">0.5×</text>
<text x="42" y="318.0474841248682" text-anchor="end" font-size="9" fill="#999">1.0×</text>
<text x="42" y="235.01632526905854" text-anchor="end" font-size="9" fill="#999">2.85×</text>
<polygon points="46.0,304.4 81.0,283.3 116.0,269.9 151.0,258.9 186.0,254.9 221.0,258.9 256.0,263.1 256.0,267.7 221.0,265.6 186.0,258.2 151.0,262.8 116.0,272.5 81.0,285.4 46.0,306.6" fill="#d62728" opacity="0.11"/>
<polyline points="46.0,305.7 81.0,283.9 116.0,271.3 151.0,262.1 186.0,255.7 221.0,261.2 256.0,265.1" fill="none" stroke="#d62728" stroke-width="1.6"/>
<circle cx="46.0" cy="305.7" r="2" fill="#d62728"/>
<circle cx="81.0" cy="283.9" r="2" fill="#d62728"/>
<circle cx="116.0" cy="271.3" r="2" fill="#d62728"/>
<circle cx="151.0" cy="262.1" r="2" fill="#d62728"/>
<circle cx="186.0" cy="255.7" r="2" fill="#d62728"/>
<circle cx="221.0" cy="261.2" r="2" fill="#d62728"/>
<circle cx="256.0" cy="265.1" r="2" fill="#d62728"/>
<polygon points="46.0,288.4 81.0,264.6 116.0,247.2 151.0,241.3 186.0,238.1 221.0,242.0 256.0,238.5 256.0,244.8 221.0,244.7 186.0,242.5 151.0,243.6 116.0,249.0 81.0,265.5 46.0,289.0" fill="#2ca02c" opacity="0.11"/>
<polyline points="46.0,288.7 81.0,264.8 116.0,248.6 151.0,242.2 186.0,239.3 221.0,243.3 256.0,240.2" fill="none" stroke="#2ca02c" stroke-width="1.6"/>
<circle cx="46.0" cy="288.7" r="2" fill="#2ca02c"/>
<circle cx="81.0" cy="264.8" r="2" fill="#2ca02c"/>
<circle cx="116.0" cy="248.6" r="2" fill="#2ca02c"/>
<circle cx="151.0" cy="242.2" r="2" fill="#2ca02c"/>
<circle cx="186.0" cy="239.3" r="2" fill="#2ca02c"/>
<circle cx="221.0" cy="243.3" r="2" fill="#2ca02c"/>
<circle cx="256.0" cy="240.2" r="2" fill="#2ca02c"/>
<polygon points="46.0,301.8 81.0,275.1 116.0,253.1 151.0,242.5 186.0,238.8 221.0,260.1 256.0,255.9 256.0,268.0 221.0,261.8 186.0,248.0 151.0,245.7 116.0,256.7 81.0,275.9 46.0,302.8" fill="#1f77b4" opacity="0.11"/>
<polyline points="46.0,302.4 81.0,275.5 116.0,254.7 151.0,244.2 186.0,244.4 221.0,260.8 256.0,258.2" fill="none" stroke="#1f77b4" stroke-width="1.6"/>
<circle cx="46.0" cy="302.4" r="2" fill="#1f77b4"/>
<circle cx="81.0" cy="275.5" r="2" fill="#1f77b4"/>
<circle cx="116.0" cy="254.7" r="2" fill="#1f77b4"/>
<circle cx="151.0" cy="244.2" r="2" fill="#1f77b4"/>
<circle cx="186.0" cy="244.4" r="2" fill="#1f77b4"/>
<circle cx="221.0" cy="260.8" r="2" fill="#1f77b4"/>
<circle cx="256.0" cy="258.2" r="2" fill="#1f77b4"/>
<text x="151.0" y="227" text-anchor="middle" font-size="12" font-weight="bold">zhemv</text>
<line x1="46.0" y1="232" x2="46.0" y2="370" stroke="#f4f4f4"/>
<text x="46.0" y="381" text-anchor="middle" font-size="8" fill="#999">64</text>
<line x1="81.0" y1="232" x2="81.0" y2="370" stroke="#f4f4f4"/>
<text x="81.0" y="381" text-anchor="middle" font-size="8" fill="#999">128</text>
<line x1="116.0" y1="232" x2="116.0" y2="370" stroke="#f4f4f4"/>
<text x="116.0" y="381" text-anchor="middle" font-size="8" fill="#999">256</text>
<line x1="151.0" y1="232" x2="151.0" y2="370" stroke="#f4f4f4"/>
<text x="151.0" y="381" text-anchor="middle" font-size="8" fill="#999">512</text>
<line x1="186.0" y1="232" x2="186.0" y2="370" stroke="#f4f4f4"/>
<text x="186.0" y="381" text-anchor="middle" font-size="8" fill="#999">1k</text>
<line x1="221.0" y1="232" x2="221.0" y2="370" stroke="#f4f4f4"/>
<text x="221.0" y="381" text-anchor="middle" font-size="8" fill="#999">2k</text>
<line x1="256.0" y1="232" x2="256.0" y2="370" stroke="#f4f4f4"/>
<text x="256.0" y="381" text-anchor="middle" font-size="8" fill="#999">4k</text>
<rect x="276" y="232" width="210" height="138" fill="none" stroke="#e2e2e2"/>
<line x1="276" y1="299.74831999470314" x2="486" y2="299.74831999470314" stroke="#d33" stroke-dasharray="4 3"/>
<text x="272" y="373.0" text-anchor="end" font-size="9" fill="#999">0.5×</text>
<text x="272" y="302.74831999470314" text-anchor="end" font-size="9" fill="#999">1.0×</text>
<text x="272" y="235.06264414383566" text-anchor="end" font-size="9" fill="#999">1.95×</text>
<polygon points="276.0,240.5 311.0,259.3 346.0,290.1 381.0,283.8 416.0,286.4 451.0,283.1 486.0,283.1 486.0,291.5 451.0,284.9 416.0,290.3 381.0,286.7 346.0,294.9 311.0,262.4 276.0,246.2" fill="#d62728" opacity="0.11"/>
<polyline points="276.0,241.3 311.0,260.2 346.0,292.5 381.0,285.3 416.0,288.8 451.0,284.0 486.0,286.5" fill="none" stroke="#d62728" stroke-width="1.6"/>
<circle cx="276.0" cy="241.3" r="2" fill="#d62728"/>
<circle cx="311.0" cy="260.2" r="2" fill="#d62728"/>
<circle cx="346.0" cy="292.5" r="2" fill="#d62728"/>
<circle cx="381.0" cy="285.3" r="2" fill="#d62728"/>
<circle cx="416.0" cy="288.8" r="2" fill="#d62728"/>
<circle cx="451.0" cy="284.0" r="2" fill="#d62728"/>
<circle cx="486.0" cy="286.5" r="2" fill="#d62728"/>
<polygon points="276.0,255.1 311.0,246.4 346.0,264.1 381.0,287.3 416.0,286.9 451.0,280.4 486.0,278.6 486.0,287.7 451.0,284.9 416.0,297.0 381.0,292.7 346.0,271.3 311.0,249.7 276.0,264.8" fill="#2ca02c" opacity="0.11"/>
<polyline points="276.0,257.4 311.0,247.8 346.0,268.3 381.0,291.8 416.0,292.2 451.0,282.1 486.0,284.7" fill="none" stroke="#2ca02c" stroke-width="1.6"/>
<circle cx="276.0" cy="257.4" r="2" fill="#2ca02c"/>
<circle cx="311.0" cy="247.8" r="2" fill="#2ca02c"/>
<circle cx="346.0" cy="268.3" r="2" fill="#2ca02c"/>
<circle cx="381.0" cy="291.8" r="2" fill="#2ca02c"/>
<circle cx="416.0" cy="292.2" r="2" fill="#2ca02c"/>
<circle cx="451.0" cy="282.1" r="2" fill="#2ca02c"/>
<circle cx="486.0" cy="284.7" r="2" fill="#2ca02c"/>
<polygon points="276.0,239.8 311.0,252.2 346.0,263.2 381.0,279.6 416.0,287.9 451.0,279.2 486.0,275.5 486.0,286.7 451.0,283.9 416.0,310.3 381.0,283.7 346.0,278.6 311.0,260.0 276.0,246.3" fill="#1f77b4" opacity="0.11"/>
<polyline points="276.0,241.9 311.0,254.0 346.0,269.6 381.0,282.2 416.0,300.0 451.0,280.3 486.0,276.9" fill="none" stroke="#1f77b4" stroke-width="1.6"/>
<circle cx="276.0" cy="241.9" r="2" fill="#1f77b4"/>
<circle cx="311.0" cy="254.0" r="2" fill="#1f77b4"/>
<circle cx="346.0" cy="269.6" r="2" fill="#1f77b4"/>
<circle cx="381.0" cy="282.2" r="2" fill="#1f77b4"/>
<circle cx="416.0" cy="300.0" r="2" fill="#1f77b4"/>
<circle cx="451.0" cy="280.3" r="2" fill="#1f77b4"/>
<circle cx="486.0" cy="276.9" r="2" fill="#1f77b4"/>
<text x="381.0" y="227" text-anchor="middle" font-size="12" font-weight="bold">ztrmv</text>
<line x1="276.0" y1="232" x2="276.0" y2="370" stroke="#f4f4f4"/>
<text x="276.0" y="381" text-anchor="middle" font-size="8" fill="#999">64</text>
<line x1="311.0" y1="232" x2="311.0" y2="370" stroke="#f4f4f4"/>
<text x="311.0" y="381" text-anchor="middle" font-size="8" fill="#999">128</text>
<line x1="346.0" y1="232" x2="346.0" y2="370" stroke="#f4f4f4"/>
<text x="346.0" y="381" text-anchor="middle" font-size="8" fill="#999">256</text>
<line x1="381.0" y1="232" x2="381.0" y2="370" stroke="#f4f4f4"/>
<text x="381.0" y="381" text-anchor="middle" font-size="8" fill="#999">512</text>
<line x1="416.0" y1="232" x2="416.0" y2="370" stroke="#f4f4f4"/>
<text x="416.0" y="381" text-anchor="middle" font-size="8" fill="#999">1k</text>
<line x1="451.0" y1="232" x2="451.0" y2="370" stroke="#f4f4f4"/>
<text x="451.0" y="381" text-anchor="middle" font-size="8" fill="#999">2k</text>
<line x1="486.0" y1="232" x2="486.0" y2="370" stroke="#f4f4f4"/>
<text x="486.0" y="381" text-anchor="middle" font-size="8" fill="#999">4k</text>
<rect x="506" y="232" width="210" height="138" fill="none" stroke="#e2e2e2"/>
<line x1="506" y1="290.7131668998509" x2="716" y2="290.7131668998509" stroke="#d33" stroke-dasharray="4 3"/>
<text x="502" y="373.0" text-anchor="end" font-size="9" fill="#999">0.5×</text>
<text x="502" y="293.7131668998509" text-anchor="end" font-size="9" fill="#999">1.0×</text>
<text x="502" y="235.05295386166728" text-anchor="end" font-size="9" fill="#999">1.67×</text>
<polygon points="506.0,240.8 541.0,254.9 576.0,284.6 611.0,273.8 646.0,278.2 681.0,269.9 716.0,274.3 716.0,276.8 681.0,274.2 646.0,279.9 611.0,277.0 576.0,288.1 541.0,260.3 506.0,243.0" fill="#d62728" opacity="0.11"/>
<polyline points="506.0,241.5 541.0,258.4 576.0,286.1 611.0,275.9 646.0,279.0 681.0,273.4 716.0,275.9" fill="none" stroke="#d62728" stroke-width="1.6"/>
<circle cx="506.0" cy="241.5" r="2" fill="#d62728"/>
<circle cx="541.0" cy="258.4" r="2" fill="#d62728"/>
<circle cx="576.0" cy="286.1" r="2" fill="#d62728"/>
<circle cx="611.0" cy="275.9" r="2" fill="#d62728"/>
<circle cx="646.0" cy="279.0" r="2" fill="#d62728"/>
<circle cx="681.0" cy="273.4" r="2" fill="#d62728"/>
<circle cx="716.0" cy="275.9" r="2" fill="#d62728"/>
<polygon points="506.0,254.8 541.0,257.9 576.0,267.8 611.0,275.7 646.0,295.7 681.0,264.6 716.0,265.3 716.0,275.1 681.0,277.8 646.0,304.5 611.0,286.1 576.0,270.7 541.0,259.1 506.0,256.2" fill="#2ca02c" opacity="0.11"/>
<polyline points="506.0,255.0 541.0,258.8 576.0,268.7 611.0,281.2 646.0,298.6 681.0,274.9 716.0,267.6" fill="none" stroke="#2ca02c" stroke-width="1.6"/>
<circle cx="506.0" cy="255.0" r="2" fill="#2ca02c"/>
<circle cx="541.0" cy="258.8" r="2" fill="#2ca02c"/>
<circle cx="576.0" cy="268.7" r="2" fill="#2ca02c"/>
<circle cx="611.0" cy="281.2" r="2" fill="#2ca02c"/>
<circle cx="646.0" cy="298.6" r="2" fill="#2ca02c"/>
<circle cx="681.0" cy="274.9" r="2" fill="#2ca02c"/>
<circle cx="716.0" cy="267.6" r="2" fill="#2ca02c"/>
<polygon points="506.0,247.5 541.0,256.1 576.0,256.3 611.0,267.9 646.0,276.9 681.0,266.3 716.0,261.1 716.0,263.8 681.0,268.5 646.0,303.0 611.0,278.3 576.0,271.7 541.0,258.5 506.0,248.7" fill="#1f77b4" opacity="0.11"/>
<polyline points="506.0,247.9 541.0,256.5 576.0,264.2 611.0,270.7 646.0,291.0 681.0,267.3 716.0,263.2" fill="none" stroke="#1f77b4" stroke-width="1.6"/>
<circle cx="506.0" cy="247.9" r="2" fill="#1f77b4"/>
<circle cx="541.0" cy="256.5" r="2" fill="#1f77b4"/>
<circle cx="576.0" cy="264.2" r="2" fill="#1f77b4"/>
<circle cx="611.0" cy="270.7" r="2" fill="#1f77b4"/>
<circle cx="646.0" cy="291.0" r="2" fill="#1f77b4"/>
<circle cx="681.0" cy="267.3" r="2" fill="#1f77b4"/>
<circle cx="716.0" cy="263.2" r="2" fill="#1f77b4"/>
<text x="611.0" y="227" text-anchor="middle" font-size="12" font-weight="bold">ztrsv</text>
<line x1="506.0" y1="232" x2="506.0" y2="370" stroke="#f4f4f4"/>
<text x="506.0" y="381" text-anchor="middle" font-size="8" fill="#999">64</text>
<line x1="541.0" y1="232" x2="541.0" y2="370" stroke="#f4f4f4"/>
<text x="541.0" y="381" text-anchor="middle" font-size="8" fill="#999">128</text>
<line x1="576.0" y1="232" x2="576.0" y2="370" stroke="#f4f4f4"/>
<text x="576.0" y="381" text-anchor="middle" font-size="8" fill="#999">256</text>
<line x1="611.0" y1="232" x2="611.0" y2="370" stroke="#f4f4f4"/>
<text x="611.0" y="381" text-anchor="middle" font-size="8" fill="#999">512</text>
<line x1="646.0" y1="232" x2="646.0" y2="370" stroke="#f4f4f4"/>
<text x="646.0" y="381" text-anchor="middle" font-size="8" fill="#999">1k</text>
<line x1="681.0" y1="232" x2="681.0" y2="370" stroke="#f4f4f4"/>
<text x="681.0" y="381" text-anchor="middle" font-size="8" fill="#999">2k</text>
<line x1="716.0" y1="232" x2="716.0" y2="370" stroke="#f4f4f4"/>
<text x="716.0" y="381" text-anchor="middle" font-size="8" fill="#999">4k</text>
<rect x="736" y="232" width="210" height="138" fill="none" stroke="#e2e2e2"/>
<line x1="736" y1="301.3783851191216" x2="946" y2="301.3783851191216" stroke="#d33" stroke-dasharray="4 3"/>
<text x="732" y="373.0" text-anchor="end" font-size="9" fill="#999">0.5×</text>
<text x="732" y="304.3783851191216" text-anchor="end" font-size="9" fill="#999">1.0×</text>
<polygon points="736.0,239.6 771.0,249.1 806.0,261.6 841.0,272.5 876.0,273.8 911.0,271.5 946.0,273.9 946.0,276.2 911.0,272.9 876.0,275.9 841.0,275.8 806.0,265.4 771.0,252.3 736.0,242.5" fill="#d62728" opacity="0.11"/>
<polyline points="736.0,240.8 771.0,251.3 806.0,263.1 841.0,274.3 876.0,274.5 911.0,272.3 946.0,274.6" fill="none" stroke="#d62728" stroke-width="1.6"/>
<circle cx="736.0" cy="240.8" r="2" fill="#d62728"/>
<circle cx="771.0" cy="251.3" r="2" fill="#d62728"/>
<circle cx="806.0" cy="263.1" r="2" fill="#d62728"/>
<circle cx="841.0" cy="274.3" r="2" fill="#d62728"/>
<circle cx="876.0" cy="274.5" r="2" fill="#d62728"/>
<circle cx="911.0" cy="272.3" r="2" fill="#d62728"/>
<circle cx="946.0" cy="274.6" r="2" fill="#d62728"/>
<polygon points="736.0,262.5 771.0,259.3 806.0,265.7 841.0,268.3 876.0,259.6 911.0,282.4 946.0,290.5 946.0,292.8 911.0,291.7 876.0,267.3 841.0,270.8 806.0,267.7 771.0,260.5 736.0,264.7" fill="#2ca02c" opacity="0.11"/>
<polyline points="736.0,263.5 771.0,260.0 806.0,266.5 841.0,268.9 876.0,265.1 911.0,284.1 946.0,291.7" fill="none" stroke="#2ca02c" stroke-width="1.6"/>
<circle cx="736.0" cy="263.5" r="2" fill="#2ca02c"/>
<circle cx="771.0" cy="260.0" r="2" fill="#2ca02c"/>
<circle cx="806.0" cy="266.5" r="2" fill="#2ca02c"/>
<circle cx="841.0" cy="268.9" r="2" fill="#2ca02c"/>
<circle cx="876.0" cy="265.1" r="2" fill="#2ca02c"/>
<circle cx="911.0" cy="284.1" r="2" fill="#2ca02c"/>
<circle cx="946.0" cy="291.7" r="2" fill="#2ca02c"/>
<polygon points="736.0,253.7 771.0,253.5 806.0,260.9 841.0,253.9 876.0,268.5 911.0,287.2 946.0,289.5 946.0,290.8 911.0,290.4 876.0,275.4 841.0,268.0 806.0,262.3 771.0,266.9 736.0,256.6" fill="#1f77b4" opacity="0.11"/>
<polyline points="736.0,254.5 771.0,254.6 806.0,261.4 841.0,266.0 876.0,270.3 911.0,289.0 946.0,290.3" fill="none" stroke="#1f77b4" stroke-width="1.6"/>
<circle cx="736.0" cy="254.5" r="2" fill="#1f77b4"/>
<circle cx="771.0" cy="254.6" r="2" fill="#1f77b4"/>
<circle cx="806.0" cy="261.4" r="2" fill="#1f77b4"/>
<circle cx="841.0" cy="266.0" r="2" fill="#1f77b4"/>
<circle cx="876.0" cy="270.3" r="2" fill="#1f77b4"/>
<circle cx="911.0" cy="289.0" r="2" fill="#1f77b4"/>
<circle cx="946.0" cy="290.3" r="2" fill="#1f77b4"/>
<text x="841.0" y="227" text-anchor="middle" font-size="12" font-weight="bold">zhpmv</text>
<line x1="736.0" y1="232" x2="736.0" y2="370" stroke="#f4f4f4"/>
<text x="736.0" y="381" text-anchor="middle" font-size="8" fill="#999">64</text>
<line x1="771.0" y1="232" x2="771.0" y2="370" stroke="#f4f4f4"/>
<text x="771.0" y="381" text-anchor="middle" font-size="8" fill="#999">128</text>
<line x1="806.0" y1="232" x2="806.0" y2="370" stroke="#f4f4f4"/>
<text x="806.0" y="381" text-anchor="middle" font-size="8" fill="#999">256</text>
<line x1="841.0" y1="232" x2="841.0" y2="370" stroke="#f4f4f4"/>
<text x="841.0" y="381" text-anchor="middle" font-size="8" fill="#999">512</text>
<line x1="876.0" y1="232" x2="876.0" y2="370" stroke="#f4f4f4"/>
<text x="876.0" y="381" text-anchor="middle" font-size="8" fill="#999">1k</text>
<line x1="911.0" y1="232" x2="911.0" y2="370" stroke="#f4f4f4"/>
<text x="911.0" y="381" text-anchor="middle" font-size="8" fill="#999">2k</text>
<line x1="946.0" y1="232" x2="946.0" y2="370" stroke="#f4f4f4"/>
<text x="946.0" y="381" text-anchor="middle" font-size="8" fill="#999">4k</text>
<rect x="46" y="404" width="210" height="138" fill="none" stroke="#e2e2e2"/>
<line x1="46" y1="469.1355042506032" x2="256" y2="469.1355042506032" stroke="#d33" stroke-dasharray="4 3"/>
<text x="42" y="545.0" text-anchor="end" font-size="9" fill="#999">0.5×</text>
<text x="42" y="472.1355042506032" text-anchor="end" font-size="9" fill="#999">1.0×</text>
<polygon points="46.0,412.1 81.0,415.8 116.0,424.1 151.0,426.0 186.0,429.4 221.0,428.9 256.0,430.0 256.0,432.0 221.0,430.6 186.0,432.7 151.0,429.4 116.0,427.2 81.0,426.7 46.0,420.2" fill="#d62728" opacity="0.11"/>
<polyline points="46.0,413.2 81.0,422.1 116.0,425.3 151.0,426.9 186.0,430.9 221.0,429.7 256.0,430.7" fill="none" stroke="#d62728" stroke-width="1.6"/>
<circle cx="46.0" cy="413.2" r="2" fill="#d62728"/>
<circle cx="81.0" cy="422.1" r="2" fill="#d62728"/>
<circle cx="116.0" cy="425.3" r="2" fill="#d62728"/>
<circle cx="151.0" cy="426.9" r="2" fill="#d62728"/>
<circle cx="186.0" cy="430.9" r="2" fill="#d62728"/>
<circle cx="221.0" cy="429.7" r="2" fill="#d62728"/>
<circle cx="256.0" cy="430.7" r="2" fill="#d62728"/>
<polygon points="46.0,430.9 81.0,436.0 116.0,444.7 151.0,447.2 186.0,448.2 221.0,449.4 256.0,450.1 256.0,452.4 221.0,450.8 186.0,449.1 151.0,448.3 116.0,446.2 81.0,444.4 46.0,439.6" fill="#2ca02c" opacity="0.11"/>
<polyline points="46.0,432.1 81.0,438.5 116.0,445.2 151.0,447.6 186.0,448.5 221.0,449.7 256.0,450.8" fill="none" stroke="#2ca02c" stroke-width="1.6"/>
<circle cx="46.0" cy="432.1" r="2" fill="#2ca02c"/>
<circle cx="81.0" cy="438.5" r="2" fill="#2ca02c"/>
<circle cx="116.0" cy="445.2" r="2" fill="#2ca02c"/>
<circle cx="151.0" cy="447.6" r="2" fill="#2ca02c"/>
<circle cx="186.0" cy="448.5" r="2" fill="#2ca02c"/>
<circle cx="221.0" cy="449.7" r="2" fill="#2ca02c"/>
<circle cx="256.0" cy="450.8" r="2" fill="#2ca02c"/>
<polygon points="46.0,428.1 81.0,431.7 116.0,441.3 151.0,443.6 186.0,445.2 221.0,446.4 256.0,447.0 256.0,448.1 221.0,448.7 186.0,447.6 151.0,445.2 116.0,444.4 81.0,442.1 46.0,442.7" fill="#1f77b4" opacity="0.11"/>
<polyline points="46.0,430.7 81.0,438.7 116.0,442.3 151.0,444.3 186.0,446.0 221.0,447.6 256.0,447.6" fill="none" stroke="#1f77b4" stroke-width="1.6"/>
<circle cx="46.0" cy="430.7" r="2" fill="#1f77b4"/>
<circle cx="81.0" cy="438.7" r="2" fill="#1f77b4"/>
<circle cx="116.0" cy="442.3" r="2" fill="#1f77b4"/>
<circle cx="151.0" cy="444.3" r="2" fill="#1f77b4"/>
<circle cx="186.0" cy="446.0" r="2" fill="#1f77b4"/>
<circle cx="221.0" cy="447.6" r="2" fill="#1f77b4"/>
<circle cx="256.0" cy="447.6" r="2" fill="#1f77b4"/>
<text x="151.0" y="399" text-anchor="middle" font-size="12" font-weight="bold">zgbmvN</text>
<line x1="46.0" y1="404" x2="46.0" y2="542" stroke="#f4f4f4"/>
<text x="46.0" y="553" text-anchor="middle" font-size="8" fill="#999">64</text>
<line x1="81.0" y1="404" x2="81.0" y2="542" stroke="#f4f4f4"/>
<text x="81.0" y="553" text-anchor="middle" font-size="8" fill="#999">128</text>
<line x1="116.0" y1="404" x2="116.0" y2="542" stroke="#f4f4f4"/>
<text x="116.0" y="553" text-anchor="middle" font-size="8" fill="#999">256</text>
<line x1="151.0" y1="404" x2="151.0" y2="542" stroke="#f4f4f4"/>
<text x="151.0" y="553" text-anchor="middle" font-size="8" fill="#999">512</text>
<line x1="186.0" y1="404" x2="186.0" y2="542" stroke="#f4f4f4"/>
<text x="186.0" y="553" text-anchor="middle" font-size="8" fill="#999">1k</text>
<line x1="221.0" y1="404" x2="221.0" y2="542" stroke="#f4f4f4"/>
<text x="221.0" y="553" text-anchor="middle" font-size="8" fill="#999">2k</text>
<line x1="256.0" y1="404" x2="256.0" y2="542" stroke="#f4f4f4"/>
<text x="256.0" y="553" text-anchor="middle" font-size="8" fill="#999">4k</text>
<rect x="276" y="404" width="210" height="138" fill="none" stroke="#e2e2e2"/>
<line x1="276" y1="459.7627611906553" x2="486" y2="459.7627611906553" stroke="#d33" stroke-dasharray="4 3"/>
<text x="272" y="545.0" text-anchor="end" font-size="9" fill="#999">0.5×</text>
<text x="272" y="462.7627611906553" text-anchor="end" font-size="9" fill="#999">1.0×</text>
<text x="272" y="407.0" text-anchor="end" font-size="9" fill="#999">1.6×</text>
<polygon points="276.0,419.8 311.0,419.9 346.0,423.1 381.0,423.5 416.0,423.7 451.0,423.3 486.0,423.5 486.0,424.1 451.0,424.4 416.0,425.2 381.0,425.0 346.0,424.9 311.0,424.4 276.0,424.8" fill="#d62728" opacity="0.11"/>
<polyline points="276.0,421.5 311.0,423.0 346.0,424.2 381.0,424.4 416.0,424.5 451.0,423.8 486.0,423.9" fill="none" stroke="#d62728" stroke-width="1.6"/>
<circle cx="276.0" cy="421.5" r="2" fill="#d62728"/>
<circle cx="311.0" cy="423.0" r="2" fill="#d62728"/>
<circle cx="346.0" cy="424.2" r="2" fill="#d62728"/>
<circle cx="381.0" cy="424.4" r="2" fill="#d62728"/>
<circle cx="416.0" cy="424.5" r="2" fill="#d62728"/>
<circle cx="451.0" cy="423.8" r="2" fill="#d62728"/>
<circle cx="486.0" cy="423.9" r="2" fill="#d62728"/>
<polygon points="276.0,447.2 311.0,449.2 346.0,451.6 381.0,452.0 416.0,453.6 451.0,452.2 486.0,452.0 486.0,454.8 451.0,454.6 416.0,454.2 381.0,454.0 346.0,453.8 311.0,454.6 276.0,451.3" fill="#2ca02c" opacity="0.11"/>
<polyline points="276.0,448.2 311.0,453.3 346.0,452.8 381.0,453.6 416.0,453.9 451.0,453.9 486.0,454.3" fill="none" stroke="#2ca02c" stroke-width="1.6"/>
<circle cx="276.0" cy="448.2" r="2" fill="#2ca02c"/>
<circle cx="311.0" cy="453.3" r="2" fill="#2ca02c"/>
<circle cx="346.0" cy="452.8" r="2" fill="#2ca02c"/>
<circle cx="381.0" cy="453.6" r="2" fill="#2ca02c"/>
<circle cx="416.0" cy="453.9" r="2" fill="#2ca02c"/>
<circle cx="451.0" cy="453.9" r="2" fill="#2ca02c"/>
<circle cx="486.0" cy="454.3" r="2" fill="#2ca02c"/>
<polygon points="276.0,443.9 311.0,448.4 346.0,450.9 381.0,451.5 416.0,451.5 451.0,452.2 486.0,451.6 486.0,452.6 451.0,453.2 416.0,453.6 381.0,453.9 346.0,452.8 311.0,452.2 276.0,452.2" fill="#1f77b4" opacity="0.11"/>
<polyline points="276.0,449.4 311.0,450.2 346.0,451.8 381.0,452.2 416.0,452.5 451.0,452.6 486.0,452.1" fill="none" stroke="#1f77b4" stroke-width="1.6"/>
<circle cx="276.0" cy="449.4" r="2" fill="#1f77b4"/>
<circle cx="311.0" cy="450.2" r="2" fill="#1f77b4"/>
<circle cx="346.0" cy="451.8" r="2" fill="#1f77b4"/>
<circle cx="381.0" cy="452.2" r="2" fill="#1f77b4"/>
<circle cx="416.0" cy="452.5" r="2" fill="#1f77b4"/>
<circle cx="451.0" cy="452.6" r="2" fill="#1f77b4"/>
<circle cx="486.0" cy="452.1" r="2" fill="#1f77b4"/>
<text x="381.0" y="399" text-anchor="middle" font-size="12" font-weight="bold">zhbmv</text>
<line x1="276.0" y1="404" x2="276.0" y2="542" stroke="#f4f4f4"/>
<text x="276.0" y="553" text-anchor="middle" font-size="8" fill="#999">64</text>
<line x1="311.0" y1="404" x2="311.0" y2="542" stroke="#f4f4f4"/>
<text x="311.0" y="553" text-anchor="middle" font-size="8" fill="#999">128</text>
<line x1="346.0" y1="404" x2="346.0" y2="542" stroke="#f4f4f4"/>
<text x="346.0" y="553" text-anchor="middle" font-size="8" fill="#999">256</text>
<line x1="381.0" y1="404" x2="381.0" y2="542" stroke="#f4f4f4"/>
<text x="381.0" y="553" text-anchor="middle" font-size="8" fill="#999">512</text>
<line x1="416.0" y1="404" x2="416.0" y2="542" stroke="#f4f4f4"/>
<text x="416.0" y="553" text-anchor="middle" font-size="8" fill="#999">1k</text>
<line x1="451.0" y1="404" x2="451.0" y2="542" stroke="#f4f4f4"/>
<text x="451.0" y="553" text-anchor="middle" font-size="8" fill="#999">2k</text>
<line x1="486.0" y1="404" x2="486.0" y2="542" stroke="#f4f4f4"/>
<text x="486.0" y="553" text-anchor="middle" font-size="8" fill="#999">4k</text>
</svg>
