<svg xmlns="http://www.w3.org/2000/svg" width="900" height="440" font-family="sans-serif">
<rect width="900" height="440" fill="white"/>
<text x="450.0" y="28" text-anchor="middle" font-size="18" font-weight="bold">BLAS-2: PureBLAS / OpenBLAS (AVX-512 native (Zen5), 1 thread, Float64)</text>
<line x1="60" y1="358.0" x2="880" y2="358.0" stroke="#eee"/>
<text x="52" y="362.0" text-anchor="end" font-size="11" fill="#666">0×</text>
<line x1="60" y1="285.24605643686743" x2="880" y2="285.24605643686743" stroke="#eee"/>
<text x="52" y="289.24605643686743" text-anchor="end" font-size="11" fill="#666">0.5×</text>
<line x1="60" y1="212.49211287373487" x2="880" y2="212.49211287373487" stroke="#eee"/>
<text x="52" y="216.49211287373487" text-anchor="end" font-size="11" fill="#666">1×</text>
<line x1="60" y1="139.73816931060227" x2="880" y2="139.73816931060227" stroke="#eee"/>
<text x="52" y="143.73816931060227" text-anchor="end" font-size="11" fill="#666">1.5×</text>
<line x1="60" y1="212.49211287373487" x2="880" y2="212.49211287373487" stroke="#888" stroke-width="1"/>
<line x1="60" y1="218.31242835878547" x2="880" y2="218.31242835878547" stroke="#d33" stroke-width="1.5" stroke-dasharray="6 4"/>
<text x="880" y="213.31242835878547" text-anchor="end" font-size="11" fill="#d33">0.96× gate</text>
<polygon points="108.8,284.0 109.9,280.7 111.4,277.4 113.1,274.1 115.2,270.8 117.5,267.5 120.1,264.2 123.0,260.9 125.9,257.6 128.9,254.3 131.8,251.0 134.5,247.8 137.0,244.5 139.2,241.2 140.9,237.9 142.3,234.6 143.2,231.3 143.7,228.0 143.8,224.7 143.5,221.4 142.9,218.1 141.9,214.8 140.6,211.5 139.0,208.2 137.1,204.9 134.9,201.6 132.5,198.3 129.9,195.0 127.1,191.7 124.3,188.4 121.6,185.1 119.0,181.8 116.5,178.5 114.4,175.2 112.5,171.9 111.0,168.7 109.8,165.4 108.9,162.1 108.3,158.8 107.9,155.5 107.7,152.2 107.7,148.9 107.8,145.6 107.9,142.3 108.1,139.0 108.4,135.7 108.6,132.4 108.9,129.1 109.1,125.8 109.4,122.5 109.7,119.2 110.0,115.9 110.4,112.6 110.8,109.3 111.2,106.0 111.6,102.7 112.0,99.4 112.2,96.1 112.4,92.8 112.4,89.6 112.3,86.3 112.0,83.0 111.6,79.7 111.1,76.4 110.5,73.1 109.9,69.8 109.3,66.5 108.8,63.2 108.2,59.9 107.7,56.6 107.3,53.3 106.9,50.0 104.2,50.0 103.8,53.3 103.4,56.6 102.9,59.9 102.4,63.2 101.8,66.5 101.2,69.8 100.6,73.1 100.0,76.4 99.5,79.7 99.1,83.0 98.9,86.3 98.7,89.6 98.7,92.8 98.9,96.1 99.1,99.4 99.5,102.7 99.9,106.0 100.3,109.3 100.7,112.6 101.1,115.9 101.4,119.2 101.7,122.5 102.0,125.8 102.3,129.1 102.5,132.4 102.7,135.7 103.0,139.0 103.2,142.3 103.3,145.6 103.4,148.9 103.4,152.2 103.2,155.5 102.8,158.8 102.2,162.1 101.3,165.4 100.1,168.7 98.6,171.9 96.7,175.2 94.6,178.5 92.2,181.8 89.5,185.1 86.8,188.4 84.0,191.7 81.2,195.0 78.6,198.3 76.2,201.6 74.0,204.9 72.1,208.2 70.5,211.5 69.2,214.8 68.2,218.1 67.6,221.4 67.3,224.7 67.4,228.0 67.9,231.3 68.8,234.6 70.2,237.9 71.9,241.2 74.1,244.5 76.6,247.8 79.3,251.0 82.3,254.3 85.2,257.6 88.2,260.9 91.0,264.2 93.6,267.5 95.9,270.8 98.0,274.1 99.7,277.4 101.2,280.7 102.3,284.0" fill="#d33" opacity="0.5" stroke="#d33" stroke-width="1"/>
<line x1="67.5" y1="221.69359119476022" x2="143.6" y2="221.69359119476022" stroke="#114" stroke-width="2"/>
<circle cx="105.55555555555556" cy="241.6601863775636" r="2.4" fill="#114"/>
<text x="105.55555555555556" y="61.43396226415098" text-anchor="middle" font-size="11">0.94</text>
<text x="105.55555555555556" y="376" text-anchor="middle" font-size="12">gemvN</text>
<polygon points="196.9,235.5 197.0,234.5 197.1,233.4 197.2,232.4 197.3,231.3 197.4,230.3 197.4,229.2 197.4,228.2 197.4,227.1 197.4,226.1 197.3,225.0 197.3,224.0 197.3,222.9 197.3,221.9 197.5,220.8 197.7,219.8 198.2,218.7 198.8,217.7 199.8,216.6 200.9,215.6 202.4,214.5 204.1,213.5 206.1,212.4 208.3,211.4 210.6,210.4 213.1,209.3 215.6,208.3 218.1,207.2 220.4,206.2 222.5,205.1 224.3,204.1 225.6,203.0 226.5,202.0 226.8,200.9 226.7,199.9 226.2,198.8 225.5,197.8 224.8,196.7 224.2,195.7 223.9,194.6 223.9,193.6 224.3,192.5 225.0,191.5 225.9,190.4 227.0,189.4 228.2,188.3 229.4,187.3 230.7,186.2 232.0,185.2 233.1,184.1 234.1,183.1 234.7,182.0 234.9,181.0 234.5,179.9 233.5,178.9 231.8,177.8 229.4,176.8 226.5,175.7 223.3,174.7 219.9,173.6 216.4,172.6 213.1,171.5 210.0,170.5 207.2,169.4 204.8,168.4 202.8,167.4 201.1,166.3 199.8,165.3 198.8,164.2 198.1,163.2 197.6,162.1 197.2,161.1 196.1,161.1 195.8,162.1 195.2,163.2 194.5,164.2 193.5,165.3 192.2,166.3 190.6,167.4 188.5,168.4 186.1,169.4 183.3,170.5 180.3,171.5 176.9,172.6 173.5,173.6 170.1,174.7 166.8,175.7 163.9,176.8 161.6,177.8 159.8,178.9 158.8,179.9 158.4,181.0 158.6,182.0 159.2,183.1 160.2,184.1 161.4,185.2 162.6,186.2 163.9,187.3 165.2,188.3 166.4,189.4 167.4,190.4 168.4,191.5 169.1,192.5 169.4,193.6 169.5,194.6 169.2,195.7 168.6,196.7 167.9,197.8 167.2,198.8 166.7,199.9 166.5,200.9 166.9,202.0 167.7,203.0 169.1,204.1 170.8,205.1 172.9,206.2 175.3,207.2 177.7,208.3 180.2,209.3 182.7,210.4 185.1,211.4 187.2,212.4 189.2,213.5 190.9,214.5 192.4,215.6 193.6,216.6 194.5,217.7 195.2,218.7 195.6,219.8 195.9,220.8 196.0,221.9 196.1,222.9 196.0,224.0 196.0,225.0 195.9,226.1 195.9,227.1 195.9,228.2 195.9,229.2 196.0,230.3 196.1,231.3 196.2,232.4 196.3,233.4 196.4,234.5 196.5,235.5" fill="#2a8" opacity="0.5" stroke="#2a8" stroke-width="1"/>
<line x1="165.8" y1="188.90117191911074" x2="227.5" y2="188.90117191911074" stroke="#114" stroke-width="2"/>
<circle cx="196.66666666666669" cy="206.58754006294419" r="2.4" fill="#114"/>
<text x="196.66666666666669" y="162.49895232608696" text-anchor="middle" font-size="11">1.16</text>
<text x="196.66666666666669" y="376" text-anchor="middle" font-size="12">gemvT</text>
<polygon points="288.2,277.5 288.4,275.8 288.6,274.2 289.0,272.6 289.4,270.9 289.9,269.3 290.6,267.6 291.4,266.0 292.3,264.3 293.5,262.7 294.8,261.0 296.3,259.4 298.0,257.7 299.9,256.1 302.0,254.4 304.2,252.8 306.7,251.1 309.3,249.5 312.1,247.8 315.0,246.2 317.8,244.6 320.4,242.9 322.7,241.3 324.5,239.6 325.7,238.0 326.0,236.3 325.5,234.7 324.2,233.0 322.2,231.4 319.6,229.7 316.7,228.1 313.9,226.4 311.3,224.8 309.2,223.1 307.8,221.5 307.0,219.8 307.0,218.2 307.5,216.5 308.4,214.9 309.5,213.3 310.5,211.6 311.3,210.0 311.7,208.3 311.6,206.7 311.1,205.0 310.2,203.4 309.1,201.7 307.8,200.1 306.4,198.4 305.2,196.8 304.0,195.1 303.0,193.5 302.1,191.8 301.3,190.2 300.5,188.5 299.6,186.9 298.8,185.3 297.8,183.6 296.9,182.0 296.0,180.3 295.0,178.7 294.1,177.0 293.3,175.4 292.5,173.7 291.8,172.1 291.1,170.4 290.5,168.8 290.0,167.1 289.5,165.5 289.1,163.8 288.8,162.2 288.5,160.5 287.0,160.5 286.8,162.2 286.4,163.8 286.0,165.5 285.5,167.1 285.0,168.8 284.4,170.4 283.8,172.1 283.0,173.7 282.3,175.4 281.4,177.0 280.5,178.7 279.6,180.3 278.7,182.0 277.7,183.6 276.8,185.3 275.9,186.9 275.1,188.5 274.3,190.2 273.4,191.8 272.5,193.5 271.5,195.1 270.4,196.8 269.1,198.4 267.8,200.1 266.5,201.7 265.3,203.4 264.4,205.0 263.9,206.7 263.9,208.3 264.3,210.0 265.1,211.6 266.1,213.3 267.1,214.9 268.1,216.5 268.6,218.2 268.5,219.8 267.8,221.5 266.4,223.1 264.3,224.8 261.7,226.4 258.8,228.1 256.0,229.7 253.4,231.4 251.3,233.0 250.0,234.7 249.5,236.3 249.9,238.0 251.0,239.6 252.8,241.3 255.1,242.9 257.8,244.6 260.6,246.2 263.4,247.8 266.2,249.5 268.8,251.1 271.3,252.8 273.6,254.4 275.7,256.1 277.6,257.7 279.3,259.4 280.8,261.0 282.1,262.7 283.2,264.3 284.2,266.0 285.0,267.6 285.6,269.3 286.2,270.9 286.6,272.6 286.9,274.2 287.2,275.8 287.3,277.5" fill="#d33" opacity="0.5" stroke="#d33" stroke-width="1"/>
<line x1="252.9" y1="231.72105254368836" x2="322.7" y2="231.72105254368836" stroke="#114" stroke-width="2"/>
<circle cx="287.77777777777777" cy="250.26688634978353" r="2.4" fill="#114"/>
<text x="287.77777777777777" y="166.095074971398" text-anchor="middle" font-size="11">0.87</text>
<text x="287.77777777777777" y="376" text-anchor="middle" font-size="12">ger</text>
<polygon points="379.2,243.5 379.4,242.2 379.6,241.0 379.8,239.7 380.2,238.4 380.6,237.2 381.1,235.9 381.6,234.7 382.1,233.4 382.7,232.2 383.2,230.9 383.7,229.6 384.0,228.4 384.2,227.1 384.2,225.9 384.1,224.6 383.9,223.4 383.5,222.1 383.0,220.8 382.5,219.6 382.1,218.3 381.8,217.1 381.6,215.8 381.8,214.5 382.3,213.3 383.2,212.0 384.6,210.8 386.6,209.5 389.1,208.3 392.0,207.0 395.4,205.7 399.1,204.5 402.8,203.2 406.4,202.0 409.7,200.7 412.5,199.5 414.6,198.2 416.1,196.9 417.0,195.7 417.2,194.4 416.8,193.2 416.0,191.9 414.8,190.6 413.2,189.4 411.5,188.1 409.5,186.9 407.4,185.6 405.3,184.4 403.1,183.1 401.0,181.8 399.1,180.6 397.2,179.3 395.7,178.1 394.4,176.8 393.5,175.6 392.9,174.3 392.6,173.0 392.4,171.8 392.3,170.5 392.1,169.3 391.6,168.0 390.9,166.7 389.9,165.5 388.6,164.2 387.2,163.0 385.7,161.7 384.2,160.5 382.9,159.2 381.8,157.9 381.0,156.7 380.3,155.4 379.8,154.2 378.0,154.2 377.5,155.4 376.8,156.7 375.9,157.9 374.8,159.2 373.5,160.5 372.1,161.7 370.6,163.0 369.2,164.2 367.9,165.5 366.9,166.7 366.2,168.0 365.7,169.3 365.5,170.5 365.4,171.8 365.2,173.0 364.9,174.3 364.3,175.6 363.4,176.8 362.1,178.1 360.5,179.3 358.7,180.6 356.7,181.8 354.6,183.1 352.5,184.4 350.4,185.6 348.3,186.9 346.3,188.1 344.5,189.4 343.0,190.6 341.8,191.9 341.0,193.2 340.6,194.4 340.8,195.7 341.6,196.9 343.1,198.2 345.3,199.5 348.1,200.7 351.3,202.0 354.9,203.2 358.7,204.5 362.3,205.7 365.7,207.0 368.7,208.3 371.2,209.5 373.2,210.8 374.6,212.0 375.5,213.3 376.0,214.5 376.1,215.8 376.0,217.1 375.7,218.3 375.3,219.6 374.8,220.8 374.3,222.1 373.9,223.4 373.7,224.6 373.5,225.9 373.6,227.1 373.8,228.4 374.1,229.6 374.6,230.9 375.1,232.2 375.6,233.4 376.2,234.7 376.7,235.9 377.2,237.2 377.6,238.4 377.9,239.7 378.2,241.0 378.4,242.2 378.6,243.5" fill="#2a8" opacity="0.5" stroke="#2a8" stroke-width="1"/>
<line x1="342.6" y1="191.0527115473206" x2="415.2" y2="191.0527115473206" stroke="#114" stroke-width="2"/>
<circle cx="378.8888888888889" cy="201.16728649028084" r="2.4" fill="#114"/>
<text x="378.8888888888889" y="157.0481709088133" text-anchor="middle" font-size="11">1.15</text>
<text x="378.8888888888889" y="376" text-anchor="middle" font-size="12">symv</text>
<polygon points="470.6,259.6 470.9,257.2 471.4,254.8 472.1,252.5 472.9,250.1 473.8,247.7 475.0,245.3 476.2,242.9 477.7,240.5 479.5,238.1 481.8,235.8 484.5,233.4 487.7,231.0 491.5,228.6 495.5,226.2 499.5,223.8 503.1,221.4 505.9,219.0 507.7,216.7 508.3,214.3 507.7,211.9 506.3,209.5 504.4,207.1 502.4,204.7 500.8,202.3 499.6,200.0 498.9,197.6 498.5,195.2 498.1,192.8 497.4,190.4 496.2,188.0 494.4,185.6 492.2,183.2 489.7,180.9 487.2,178.5 484.9,176.1 482.9,173.7 481.4,171.3 480.2,168.9 479.4,166.5 478.8,164.2 478.4,161.8 478.0,159.4 477.5,157.0 476.9,154.6 476.1,152.2 475.2,149.8 474.2,147.4 473.3,145.1 472.5,142.7 471.8,140.3 471.3,137.9 470.9,135.5 470.8,133.1 470.7,130.7 470.7,128.4 470.7,126.0 470.8,123.6 470.8,121.2 470.9,118.8 470.9,116.4 470.9,114.0 470.9,111.6 470.8,109.3 470.8,106.9 470.7,104.5 470.6,102.1 470.5,99.7 470.4,97.3 470.3,94.9 470.2,92.6 470.1,90.2 469.9,90.2 469.8,92.6 469.7,94.9 469.6,97.3 469.5,99.7 469.4,102.1 469.3,104.5 469.2,106.9 469.2,109.3 469.1,111.6 469.1,114.0 469.1,116.4 469.1,118.8 469.2,121.2 469.2,123.6 469.3,126.0 469.3,128.4 469.3,130.7 469.2,133.1 469.1,135.5 468.7,137.9 468.2,140.3 467.5,142.7 466.7,145.1 465.8,147.4 464.8,149.8 463.9,152.2 463.1,154.6 462.5,157.0 462.0,159.4 461.6,161.8 461.2,164.2 460.6,166.5 459.8,168.9 458.6,171.3 457.1,173.7 455.1,176.1 452.8,178.5 450.3,180.9 447.8,183.2 445.6,185.6 443.8,188.0 442.6,190.4 441.9,192.8 441.5,195.2 441.1,197.6 440.4,200.0 439.2,202.3 437.6,204.7 435.6,207.1 433.7,209.5 432.3,211.9 431.7,214.3 432.3,216.7 434.1,219.0 436.9,221.4 440.5,223.8 444.5,226.2 448.5,228.6 452.3,231.0 455.5,233.4 458.2,235.8 460.5,238.1 462.3,240.5 463.8,242.9 465.0,245.3 466.2,247.7 467.1,250.1 467.9,252.5 468.6,254.8 469.1,257.2 469.4,259.6" fill="#d33" opacity="0.5" stroke="#d33" stroke-width="1"/>
<line x1="436.0" y1="206.63982642216558" x2="504.0" y2="206.63982642216558" stroke="#114" stroke-width="2"/>
<circle cx="470.0" cy="221.2140535521408" r="2.4" fill="#114"/>
<text x="470.0" y="100.80113839912886" text-anchor="middle" font-size="11">1.04</text>
<text x="470.0" y="376" text-anchor="middle" font-size="12">trmv</text>
<polygon points="561.5,260.6 561.6,259.3 561.7,258.1 561.9,256.8 562.1,255.5 562.3,254.3 562.6,253.0 562.9,251.7 563.2,250.5 563.6,249.2 564.0,247.9 564.4,246.7 564.9,245.4 565.5,244.1 566.1,242.9 566.9,241.6 567.8,240.4 568.9,239.1 570.2,237.8 571.7,236.6 573.5,235.3 575.5,234.0 577.8,232.8 580.4,231.5 583.1,230.2 585.8,229.0 588.6,227.7 591.3,226.4 593.8,225.2 595.9,223.9 597.6,222.6 598.8,221.4 599.4,220.1 599.4,218.8 598.8,217.6 597.8,216.3 596.5,215.1 594.9,213.8 593.3,212.5 591.7,211.3 590.4,210.0 589.5,208.7 589.1,207.5 589.2,206.2 589.8,204.9 590.9,203.7 592.2,202.4 593.7,201.1 595.0,199.9 596.0,198.6 596.6,197.3 596.6,196.1 596.1,194.8 595.2,193.5 593.8,192.3 592.1,191.0 590.2,189.7 588.2,188.5 586.1,187.2 583.9,186.0 581.7,184.7 579.4,183.4 577.2,182.2 574.9,180.9 572.7,179.6 570.7,178.4 568.8,177.1 567.1,175.8 565.6,174.6 564.4,173.3 563.5,172.0 562.8,170.8 559.5,170.8 558.7,172.0 557.8,173.3 556.6,174.6 555.1,175.8 553.5,177.1 551.6,178.4 549.5,179.6 547.3,180.9 545.1,182.2 542.8,183.4 540.5,184.7 538.3,186.0 536.1,187.2 534.0,188.5 532.0,189.7 530.1,191.0 528.4,192.3 527.0,193.5 526.1,194.8 525.6,196.1 525.7,197.3 526.2,198.6 527.2,199.9 528.6,201.1 530.0,202.4 531.3,203.7 532.4,204.9 533.0,206.2 533.1,207.5 532.7,208.7 531.8,210.0 530.5,211.3 529.0,212.5 527.3,213.8 525.7,215.1 524.4,216.3 523.4,217.6 522.8,218.8 522.8,220.1 523.4,221.4 524.6,222.6 526.3,223.9 528.4,225.2 530.9,226.4 533.6,227.7 536.4,229.0 539.2,230.2 541.9,231.5 544.4,232.8 546.7,234.0 548.7,235.3 550.5,236.6 552.0,237.8 553.3,239.1 554.4,240.4 555.3,241.6 556.1,242.9 556.7,244.1 557.3,245.4 557.8,246.7 558.2,247.9 558.6,249.2 559.0,250.5 559.3,251.7 559.6,253.0 559.9,254.3 560.1,255.5 560.3,256.8 560.5,258.1 560.6,259.3 560.8,260.6" fill="#d33" opacity="0.5" stroke="#d33" stroke-width="1"/>
<line x1="531.5" y1="210.31621526094938" x2="590.7" y2="210.31621526094938" stroke="#114" stroke-width="2"/>
<circle cx="561.1111111111111" cy="224.74228771720817" r="2.4" fill="#114"/>
<text x="561.1111111111111" y="173.69821482091191" text-anchor="middle" font-size="11">1.01</text>
<text x="561.1111111111111" y="376" text-anchor="middle" font-size="12">trsv</text>
<polygon points="652.4,218.0 652.5,216.0 652.6,213.9 652.8,211.8 652.9,209.7 653.1,207.7 653.4,205.6 653.7,203.5 654.1,201.4 654.7,199.3 655.4,197.3 656.3,195.2 657.5,193.1 658.8,191.0 660.3,188.9 661.9,186.9 663.4,184.8 664.8,182.7 666.0,180.6 666.9,178.5 667.5,176.5 667.9,174.4 668.2,172.3 668.5,170.2 669.0,168.2 669.8,166.1 671.0,164.0 672.6,161.9 674.5,159.8 676.7,157.8 679.1,155.7 681.6,153.6 684.0,151.5 686.1,149.4 688.0,147.4 689.4,145.3 690.2,143.2 690.5,141.1 690.1,139.1 689.2,137.0 687.6,134.9 685.4,132.8 682.7,130.7 679.7,128.7 676.6,126.6 673.4,124.5 670.5,122.4 667.9,120.3 665.7,118.3 664.1,116.2 663.1,114.1 662.4,112.0 662.1,109.9 662.0,107.9 661.9,105.8 661.9,103.7 661.8,101.6 661.5,99.6 661.1,97.5 660.6,95.4 660.0,93.3 659.2,91.2 658.4,89.2 657.6,87.1 656.8,85.0 656.0,82.9 655.3,80.8 654.6,78.8 654.0,76.7 653.5,74.6 653.2,72.5 652.9,70.4 651.6,70.4 651.3,72.5 650.9,74.6 650.4,76.7 649.8,78.8 649.2,80.8 648.4,82.9 647.6,85.0 646.8,87.1 646.0,89.2 645.2,91.2 644.5,93.3 643.8,95.4 643.3,97.5 642.9,99.6 642.7,101.6 642.6,103.7 642.5,105.8 642.5,107.9 642.4,109.9 642.0,112.0 641.4,114.1 640.3,116.2 638.7,118.3 636.6,120.3 634.0,122.4 631.0,124.5 627.9,126.6 624.7,128.7 621.7,130.7 619.1,132.8 616.9,134.9 615.3,137.0 614.3,139.1 614.0,141.1 614.2,143.2 615.1,145.3 616.5,147.4 618.3,149.4 620.5,151.5 622.8,153.6 625.3,155.7 627.7,157.8 629.9,159.8 631.9,161.9 633.5,164.0 634.6,166.1 635.4,168.2 635.9,170.2 636.3,172.3 636.6,174.4 636.9,176.5 637.6,178.5 638.4,180.6 639.6,182.7 641.0,184.8 642.6,186.9 644.1,188.9 645.6,191.0 647.0,193.1 648.1,195.2 649.1,197.3 649.8,199.3 650.3,201.4 650.7,203.5 651.1,205.6 651.3,207.7 651.5,209.7 651.7,211.8 651.8,213.9 651.9,216.0 652.0,218.0" fill="#2a8" opacity="0.5" stroke="#2a8" stroke-width="1"/>
<line x1="614.3" y1="143.5390366637059" x2="690.1" y2="143.5390366637059" stroke="#114" stroke-width="2"/>
<circle cx="652.2222222222223" cy="178.54123580524092" r="2.4" fill="#114"/>
<text x="652.2222222222223" y="78.96544439863328" text-anchor="middle" font-size="11">1.47</text>
<text x="652.2222222222223" y="376" text-anchor="middle" font-size="12">spmv</text>
<polygon points="744.0,267.3 744.3,265.1 744.7,262.9 745.3,260.7 746.1,258.5 746.9,256.3 747.9,254.1 748.9,251.9 749.8,249.7 750.6,247.5 751.1,245.3 751.4,243.1 751.3,240.9 750.9,238.7 750.3,236.5 749.5,234.3 748.5,232.1 747.6,229.9 746.7,227.7 745.9,225.5 745.2,223.3 744.7,221.0 744.3,218.8 744.1,216.6 744.0,214.4 744.1,212.2 744.3,210.0 744.6,207.8 745.2,205.6 746.1,203.4 747.3,201.2 749.1,199.0 751.4,196.8 754.3,194.6 757.9,192.4 761.9,190.2 766.3,188.0 770.7,185.8 774.8,183.6 778.2,181.4 780.5,179.2 781.6,177.0 781.3,174.8 779.8,172.6 777.2,170.3 773.9,168.1 770.2,165.9 766.4,163.7 762.7,161.5 759.3,159.3 756.2,157.1 753.6,154.9 751.4,152.7 749.6,150.5 748.0,148.3 746.8,146.1 745.9,143.9 745.2,141.7 744.7,139.5 744.3,137.3 744.1,135.1 743.9,132.9 743.9,130.7 743.8,128.5 743.8,126.3 743.7,124.1 743.7,121.9 743.7,119.7 743.6,117.4 743.6,115.2 743.5,113.0 743.5,110.8 743.2,110.8 743.2,113.0 743.1,115.2 743.1,117.4 743.0,119.7 743.0,121.9 742.9,124.1 742.9,126.3 742.9,128.5 742.8,130.7 742.7,132.9 742.6,135.1 742.3,137.3 742.0,139.5 741.5,141.7 740.8,143.9 739.8,146.1 738.6,148.3 737.1,150.5 735.3,152.7 733.0,154.9 730.4,157.1 727.4,159.3 724.0,161.5 720.3,163.7 716.5,165.9 712.7,168.1 709.4,170.3 706.9,172.6 705.3,174.8 705.1,177.0 706.1,179.2 708.5,181.4 711.8,183.6 715.9,185.8 720.4,188.0 724.7,190.2 728.8,192.4 732.4,194.6 735.3,196.8 737.6,199.0 739.3,201.2 740.6,203.4 741.5,205.6 742.0,207.8 742.4,210.0 742.6,212.2 742.6,214.4 742.5,216.6 742.3,218.8 742.0,221.0 741.4,223.3 740.8,225.5 740.0,227.7 739.1,229.9 738.1,232.1 737.2,234.3 736.4,236.5 735.7,238.7 735.4,240.9 735.3,243.1 735.6,245.3 736.1,247.5 736.9,249.7 737.8,251.9 738.8,254.1 739.7,256.3 740.6,258.5 741.3,260.7 741.9,262.9 742.4,265.1 742.7,267.3" fill="#d33" opacity="0.5" stroke="#d33" stroke-width="1"/>
<line x1="705.4" y1="178.0694079246962" x2="781.2" y2="178.0694079246962" stroke="#114" stroke-width="2"/>
<circle cx="743.3333333333334" cy="242.97138527605182" r="2.4" fill="#114"/>
<text x="743.3333333333334" y="120.21542924999697" text-anchor="middle" font-size="11">1.24</text>
<text x="743.3333333333334" y="376" text-anchor="middle" font-size="12">gbmvN</text>
<polygon points="834.6,213.6 834.8,212.3 835.1,210.9 835.4,209.5 835.9,208.2 836.5,206.8 837.2,205.5 838.1,204.1 839.2,202.7 840.8,201.4 842.9,200.0 845.9,198.6 849.6,197.3 854.2,195.9 859.3,194.6 864.4,193.2 868.7,191.8 871.6,190.5 872.7,189.1 871.9,187.7 869.5,186.4 866.2,185.0 862.4,183.7 858.8,182.3 855.7,180.9 853.2,179.6 851.0,178.2 849.1,176.8 847.3,175.5 845.5,174.1 843.8,172.8 842.4,171.4 841.3,170.0 840.7,168.7 840.6,167.3 841.1,165.9 841.8,164.6 842.6,163.2 843.1,161.8 843.2,160.5 842.7,159.1 841.8,157.8 840.6,156.4 839.3,155.0 838.0,153.7 836.9,152.3 836.1,150.9 835.5,149.6 835.1,148.2 834.8,146.9 834.7,145.5 834.6,144.1 834.5,142.8 834.5,141.4 834.5,140.0 834.5,138.7 834.5,137.3 834.5,136.0 834.6,134.6 834.6,133.2 834.7,131.9 834.8,130.5 834.9,129.1 834.9,127.8 834.9,126.4 834.9,125.1 834.9,123.7 834.8,122.3 834.7,121.0 834.6,119.6 834.6,118.2 834.5,116.9 834.4,116.9 834.3,118.2 834.3,119.6 834.2,121.0 834.1,122.3 834.0,123.7 834.0,125.1 833.9,126.4 834.0,127.8 834.0,129.1 834.1,130.5 834.2,131.9 834.3,133.2 834.3,134.6 834.4,136.0 834.4,137.3 834.4,138.7 834.4,140.0 834.4,141.4 834.4,142.8 834.3,144.1 834.2,145.5 834.1,146.9 833.8,148.2 833.4,149.6 832.8,150.9 832.0,152.3 830.9,153.7 829.6,155.0 828.3,156.4 827.1,157.8 826.2,159.1 825.7,160.5 825.8,161.8 826.3,163.2 827.1,164.6 827.8,165.9 828.3,167.3 828.2,168.7 827.6,170.0 826.5,171.4 825.0,172.8 823.3,174.1 821.6,175.5 819.8,176.8 817.9,178.2 815.7,179.6 813.2,180.9 810.1,182.3 806.5,183.7 802.7,185.0 799.4,186.4 797.0,187.7 796.2,189.1 797.3,190.5 800.2,191.8 804.5,193.2 809.5,194.6 814.6,195.9 819.2,197.3 823.0,198.6 825.9,200.0 828.1,201.4 829.6,202.7 830.8,204.1 831.7,205.5 832.4,206.8 833.0,208.2 833.5,209.5 833.8,210.9 834.1,212.3 834.2,213.6" fill="#2a8" opacity="0.5" stroke="#2a8" stroke-width="1"/>
<line x1="796.8" y1="187.89994918915284" x2="872.1" y2="187.89994918915284" stroke="#114" stroke-width="2"/>
<circle cx="834.4444444444445" cy="191.21974886306543" r="2.4" fill="#114"/>
<text x="834.4444444444445" y="120.47415901531465" text-anchor="middle" font-size="11">1.17</text>
<text x="834.4444444444445" y="376" text-anchor="middle" font-size="12">sbmv</text>
<text x="450.0" y="428" text-anchor="middle" font-size="11" fill="#666">violin = ratio distribution over sizes · line = median · dark dot = worst size · green = every size ≥ gate</text>
</svg>
