<svg xmlns="http://www.w3.org/2000/svg" width="900" height="440" font-family="sans-serif">
<rect width="900" height="440" fill="white"/>
<text x="450.0" y="28" text-anchor="middle" font-size="18" font-weight="bold">BLAS-2: PureBLAS / OpenBLAS (AVX-512, 1 thread, Float64)</text>
<line x1="60" y1="358.0" x2="880" y2="358.0" stroke="#eee"/>
<text x="52" y="362.0" text-anchor="end" font-size="11" fill="#666">0×</text>
<line x1="60" y1="289.08108889446186" x2="880" y2="289.08108889446186" stroke="#eee"/>
<text x="52" y="293.08108889446186" text-anchor="end" font-size="11" fill="#666">0.5×</text>
<line x1="60" y1="220.16217778892374" x2="880" y2="220.16217778892374" stroke="#eee"/>
<text x="52" y="224.16217778892374" text-anchor="end" font-size="11" fill="#666">1×</text>
<line x1="60" y1="151.24326668338563" x2="880" y2="151.24326668338563" stroke="#eee"/>
<text x="52" y="155.24326668338563" text-anchor="end" font-size="11" fill="#666">1.5×</text>
<line x1="60" y1="220.16217778892374" x2="880" y2="220.16217778892374" stroke="#888" stroke-width="1"/>
<line x1="60" y1="225.6756906773668" x2="880" y2="225.6756906773668" stroke="#d33" stroke-width="1.5" stroke-dasharray="6 4"/>
<text x="880" y="220.6756906773668" text-anchor="end" font-size="11" fill="#d33">0.96× gate</text>
<polygon points="112.3,250.3 114.3,247.5 116.7,244.6 119.5,241.8 122.5,239.0 125.8,236.2 129.2,233.3 132.5,230.5 135.6,227.7 138.4,224.9 140.7,222.1 142.4,219.2 143.5,216.4 143.8,213.6 143.5,210.8 142.4,208.0 140.8,205.1 138.8,202.3 136.5,199.5 134.0,196.7 131.5,193.9 129.1,191.0 126.9,188.2 124.9,185.4 123.2,182.6 121.8,179.8 120.6,176.9 119.6,174.1 118.6,171.3 117.8,168.5 116.9,165.6 115.9,162.8 114.9,160.0 113.8,157.2 112.7,154.4 111.7,151.5 110.6,148.7 109.6,145.9 108.8,143.1 108.0,140.3 107.4,137.4 107.0,134.6 106.6,131.8 106.4,129.0 106.2,126.2 106.1,123.3 106.1,120.5 106.2,117.7 106.3,114.9 106.5,112.1 106.7,109.2 107.0,106.4 107.4,103.6 107.9,100.8 108.5,98.0 109.2,95.1 110.0,92.3 110.8,89.5 111.6,86.7 112.4,83.8 113.1,81.0 113.6,78.2 114.0,75.4 114.2,72.6 114.1,69.7 113.8,66.9 113.3,64.1 112.6,61.3 111.9,58.5 111.0,55.6 110.1,52.8 109.3,50.0 101.8,50.0 101.0,52.8 100.1,55.6 99.3,58.5 98.5,61.3 97.8,64.1 97.3,66.9 97.0,69.7 97.0,72.6 97.1,75.4 97.5,78.2 98.0,81.0 98.7,83.8 99.5,86.7 100.3,89.5 101.1,92.3 101.9,95.1 102.6,98.0 103.2,100.8 103.7,103.6 104.1,106.4 104.4,109.2 104.7,112.1 104.8,114.9 104.9,117.7 105.0,120.5 105.0,123.3 104.9,126.2 104.8,129.0 104.5,131.8 104.1,134.6 103.7,137.4 103.1,140.3 102.3,143.1 101.5,145.9 100.5,148.7 99.5,151.5 98.4,154.4 97.3,157.2 96.2,160.0 95.2,162.8 94.3,165.6 93.4,168.5 92.5,171.3 91.5,174.1 90.5,176.9 89.3,179.8 87.9,182.6 86.2,185.4 84.3,188.2 82.0,191.0 79.6,193.9 77.1,196.7 74.6,199.5 72.3,202.3 70.3,205.1 68.7,208.0 67.7,210.8 67.3,213.6 67.6,216.4 68.7,219.2 70.4,222.1 72.7,224.9 75.5,227.7 78.6,230.5 82.0,233.3 85.3,236.2 88.6,239.0 91.6,241.8 94.4,244.6 96.8,247.5 98.9,250.3" fill="#d33" opacity="0.5" stroke="#d33" stroke-width="1"/>
<line x1="68.0" y1="209.69508223904117" x2="143.1" y2="209.69508223904117" stroke="#114" stroke-width="2"/>
<circle cx="105.55555555555556" cy="228.38427972718728" r="2.4" fill="#114"/>
<text x="105.55555555555556" y="61.43396226415098" text-anchor="middle" font-size="11">1.08</text>
<text x="105.55555555555556" y="376" text-anchor="middle" font-size="12">gemvN</text>
<polygon points="199.4,232.1 200.2,231.3 201.1,230.5 202.2,229.7 203.2,228.9 204.4,228.1 205.5,227.3 206.6,226.6 207.6,225.8 208.6,225.0 209.6,224.2 210.6,223.4 211.6,222.6 212.6,221.8 213.9,221.0 215.4,220.2 217.1,219.4 219.0,218.6 221.2,217.8 223.6,217.0 226.0,216.2 228.4,215.4 230.5,214.6 232.4,213.8 233.8,213.0 234.7,212.2 234.9,211.4 234.6,210.6 233.6,209.8 232.1,209.0 230.0,208.2 227.6,207.5 224.9,206.7 222.0,205.9 218.9,205.1 215.9,204.3 213.0,203.5 210.3,202.7 207.8,201.9 205.7,201.1 203.8,200.3 202.3,199.5 201.1,198.7 200.3,197.9 199.8,197.1 199.6,196.3 199.7,195.5 200.2,194.7 200.9,193.9 201.8,193.1 203.1,192.3 204.5,191.5 206.2,190.7 208.0,189.9 209.8,189.2 211.7,188.4 213.4,187.6 215.0,186.8 216.2,186.0 217.1,185.2 217.5,184.4 217.5,183.6 216.9,182.8 215.9,182.0 214.6,181.2 212.9,180.4 211.0,179.6 209.0,178.8 207.0,178.0 205.1,177.2 203.4,176.4 201.9,175.6 191.4,175.6 189.9,176.4 188.2,177.2 186.3,178.0 184.3,178.8 182.4,179.6 180.5,180.4 178.8,181.2 177.4,182.0 176.4,182.8 175.9,183.6 175.8,184.4 176.2,185.2 177.1,186.0 178.3,186.8 179.9,187.6 181.6,188.4 183.5,189.2 185.4,189.9 187.2,190.7 188.8,191.5 190.3,192.3 191.5,193.1 192.5,193.9 193.2,194.7 193.6,195.5 193.7,196.3 193.5,197.1 193.0,197.9 192.2,198.7 191.0,199.5 189.5,200.3 187.7,201.1 185.5,201.9 183.0,202.7 180.3,203.5 177.4,204.3 174.4,205.1 171.4,205.9 168.5,206.7 165.7,207.5 163.3,208.2 161.3,209.0 159.7,209.8 158.8,210.6 158.4,211.4 158.7,212.2 159.5,213.0 160.9,213.8 162.8,214.6 165.0,215.4 167.3,216.2 169.7,217.0 172.1,217.8 174.3,218.6 176.3,219.4 178.0,220.2 179.4,221.0 180.7,221.8 181.8,222.6 182.8,223.4 183.7,224.2 184.7,225.0 185.7,225.8 186.7,226.6 187.8,227.3 189.0,228.1 190.1,228.9 191.2,229.7 192.2,230.5 193.1,231.3 193.9,232.1" fill="#2a8" opacity="0.5" stroke="#2a8" stroke-width="1"/>
<line x1="158.5" y1="210.96574830164786" x2="234.8" y2="210.96574830164786" stroke="#114" stroke-width="2"/>
<circle cx="196.66666666666669" cy="224.13748015509185" r="2.4" fill="#114"/>
<text x="196.66666666666669" y="175.31649208490126" text-anchor="middle" font-size="11">1.07</text>
<text x="196.66666666666669" y="376" text-anchor="middle" font-size="12">gemvT</text>
<polygon points="287.8,229.2 287.9,228.4 287.9,227.6 288.1,226.8 288.3,226.0 288.6,225.2 289.2,224.4 290.1,223.6 291.6,222.8 293.7,221.9 296.5,221.1 299.8,220.3 303.4,219.5 306.7,218.7 309.2,217.9 310.6,217.1 311.0,216.3 310.8,215.5 310.8,214.7 311.4,213.8 313.1,213.0 315.8,212.2 319.0,211.4 322.2,210.6 324.7,209.8 326.0,209.0 325.9,208.2 324.4,207.4 321.9,206.5 318.9,205.7 315.9,204.9 313.1,204.1 310.6,203.3 308.4,202.5 306.4,201.7 304.5,200.9 302.7,200.1 301.3,199.3 300.4,198.4 300.2,197.6 300.4,196.8 301.0,196.0 301.6,195.2 302.0,194.4 301.9,193.6 301.2,192.8 299.9,192.0 298.3,191.1 296.4,190.3 294.5,189.5 292.7,188.7 291.2,187.9 290.1,187.1 289.3,186.3 288.8,185.5 288.5,184.7 288.4,183.9 288.3,183.0 288.2,182.2 288.2,181.4 288.2,180.6 288.2,179.8 288.2,179.0 288.2,178.2 288.1,177.4 288.1,176.6 288.0,175.8 288.0,174.9 287.9,174.1 287.9,173.3 287.8,172.5 287.8,171.7 287.7,171.7 287.7,172.5 287.7,173.3 287.6,174.1 287.6,174.9 287.5,175.8 287.5,176.6 287.4,177.4 287.4,178.2 287.4,179.0 287.3,179.8 287.3,180.6 287.3,181.4 287.3,182.2 287.3,183.0 287.2,183.9 287.0,184.7 286.7,185.5 286.2,186.3 285.5,187.1 284.3,187.9 282.9,188.7 281.1,189.5 279.2,190.3 277.3,191.1 275.6,192.0 274.4,192.8 273.7,193.6 273.6,194.4 273.9,195.2 274.5,196.0 275.1,196.8 275.4,197.6 275.1,198.4 274.2,199.3 272.8,200.1 271.1,200.9 269.1,201.7 267.1,202.5 264.9,203.3 262.5,204.1 259.7,204.9 256.6,205.7 253.6,206.5 251.1,207.4 249.6,208.2 249.5,209.0 250.8,209.8 253.3,210.6 256.5,211.4 259.8,212.2 262.4,213.0 264.1,213.8 264.8,214.7 264.7,215.5 264.6,216.3 265.0,217.1 266.4,217.9 268.9,218.7 272.2,219.5 275.7,220.3 279.1,221.1 281.9,221.9 284.0,222.8 285.4,223.6 286.4,224.4 286.9,225.2 287.3,226.0 287.5,226.8 287.6,227.6 287.7,228.4 287.7,229.2" fill="#2a8" opacity="0.5" stroke="#2a8" stroke-width="1"/>
<line x1="249.8" y1="208.0478596895824" x2="325.8" y2="208.0478596895824" stroke="#114" stroke-width="2"/>
<circle cx="287.77777777777777" cy="217.63210357117802" r="2.4" fill="#114"/>
<text x="287.77777777777777" y="171.4909035154515" text-anchor="middle" font-size="11">1.09</text>
<text x="287.77777777777777" y="376" text-anchor="middle" font-size="12">ger</text>
<polygon points="378.9,236.9 379.0,235.7 379.0,234.6 379.1,233.4 379.1,232.2 379.2,231.1 379.3,229.9 379.3,228.7 379.3,227.6 379.4,226.4 379.4,225.3 379.4,224.1 379.4,222.9 379.4,221.8 379.4,220.6 379.5,219.4 379.5,218.3 379.6,217.1 379.7,215.9 379.8,214.8 380.1,213.6 380.5,212.4 381.2,211.3 382.3,210.1 384.0,208.9 386.5,207.8 389.8,206.6 393.8,205.4 398.4,204.3 403.2,203.1 407.9,201.9 412.1,200.8 415.2,199.6 417.0,198.5 417.2,197.3 415.7,196.1 412.8,195.0 409.3,193.8 405.7,192.6 403.0,191.5 401.5,190.3 401.4,189.1 402.8,188.0 405.0,186.8 407.8,185.6 410.5,184.5 412.8,183.3 414.5,182.1 415.3,181.0 415.0,179.8 413.6,178.6 411.2,177.5 407.8,176.3 403.8,175.1 399.8,174.0 396.0,172.8 393.1,171.7 391.1,170.5 390.1,169.3 389.9,168.2 390.2,167.0 390.6,165.8 390.6,164.7 390.1,163.5 389.0,162.3 387.5,161.2 385.7,160.0 383.8,158.8 382.3,157.7 381.0,156.5 380.1,155.3 379.6,154.2 378.2,154.2 377.6,155.3 376.8,156.5 375.5,157.7 373.9,158.8 372.1,160.0 370.3,161.2 368.7,162.3 367.6,163.5 367.1,164.7 367.2,165.8 367.5,167.0 367.8,168.2 367.7,169.3 366.7,170.5 364.7,171.7 361.8,172.8 358.0,174.0 353.9,175.1 350.0,176.3 346.6,177.5 344.1,178.6 342.8,179.8 342.5,181.0 343.3,182.1 344.9,183.3 347.3,184.5 350.0,185.6 352.7,186.8 355.0,188.0 356.3,189.1 356.3,190.3 354.8,191.5 352.0,192.6 348.5,193.8 344.9,195.0 342.1,196.1 340.6,197.3 340.8,198.5 342.5,199.6 345.7,200.8 349.8,201.9 354.5,203.1 359.4,204.3 364.0,205.4 368.0,206.6 371.3,207.8 373.7,208.9 375.5,210.1 376.6,211.3 377.3,212.4 377.7,213.6 378.0,214.8 378.1,215.9 378.2,217.1 378.3,218.3 378.3,219.4 378.3,220.6 378.4,221.8 378.4,222.9 378.4,224.1 378.4,225.3 378.4,226.4 378.4,227.6 378.5,228.7 378.5,229.9 378.6,231.1 378.6,232.2 378.7,233.4 378.8,234.6 378.8,235.7 378.8,236.9" fill="#2a8" opacity="0.5" stroke="#2a8" stroke-width="1"/>
<line x1="350.4" y1="185.81252712967216" x2="407.3" y2="185.81252712967216" stroke="#114" stroke-width="2"/>
<circle cx="378.8888888888889" cy="202.4576179433051" r="2.4" fill="#114"/>
<text x="378.8888888888889" y="156.40210098387962" text-anchor="middle" font-size="11">1.25</text>
<text x="378.8888888888889" y="376" text-anchor="middle" font-size="12">symv</text>
<polygon points="470.6,229.2 470.9,228.1 471.4,227.0 472.3,225.9 473.4,224.8 475.0,223.7 477.1,222.7 479.8,221.6 483.1,220.5 486.9,219.4 491.0,218.3 495.2,217.2 499.2,216.1 502.7,215.0 505.5,213.9 507.3,212.9 508.3,211.8 508.3,210.7 507.6,209.6 506.3,208.5 504.8,207.4 503.3,206.3 501.8,205.2 500.6,204.1 499.7,203.1 499.1,202.0 499.1,200.9 499.5,199.8 500.4,198.7 501.6,197.6 503.1,196.5 504.6,195.4 506.0,194.3 507.0,193.3 507.5,192.2 507.5,191.1 507.0,190.0 506.0,188.9 504.8,187.8 503.2,186.7 501.5,185.6 499.6,184.5 497.6,183.4 495.4,182.4 493.1,181.3 490.7,180.2 488.4,179.1 486.2,178.0 484.3,176.9 482.7,175.8 481.5,174.7 480.7,173.6 480.4,172.6 480.4,171.5 480.7,170.4 481.2,169.3 481.8,168.2 482.3,167.1 482.6,166.0 482.7,164.9 482.5,163.8 481.9,162.8 481.0,161.7 479.8,160.6 478.5,159.5 477.1,158.4 475.7,157.3 474.5,156.2 473.4,155.1 472.5,154.0 471.7,153.0 471.2,151.9 468.8,151.9 468.3,153.0 467.5,154.0 466.6,155.1 465.5,156.2 464.3,157.3 462.9,158.4 461.5,159.5 460.2,160.6 459.0,161.7 458.1,162.8 457.5,163.8 457.3,164.9 457.4,166.0 457.7,167.1 458.2,168.2 458.8,169.3 459.3,170.4 459.6,171.5 459.6,172.6 459.3,173.6 458.5,174.7 457.3,175.8 455.7,176.9 453.8,178.0 451.6,179.1 449.3,180.2 446.9,181.3 444.6,182.4 442.4,183.4 440.4,184.5 438.5,185.6 436.8,186.7 435.2,187.8 434.0,188.9 433.0,190.0 432.5,191.1 432.5,192.2 433.0,193.3 434.0,194.3 435.4,195.4 436.9,196.5 438.4,197.6 439.6,198.7 440.5,199.8 440.9,200.9 440.9,202.0 440.3,203.1 439.4,204.1 438.2,205.2 436.7,206.3 435.2,207.4 433.7,208.5 432.4,209.6 431.7,210.7 431.7,211.8 432.7,212.9 434.5,213.9 437.3,215.0 440.8,216.1 444.8,217.2 449.0,218.3 453.1,219.4 456.9,220.5 460.2,221.6 462.9,222.7 465.0,223.7 466.6,224.8 467.7,225.9 468.6,227.0 469.1,228.1 469.4,229.2" fill="#2a8" opacity="0.5" stroke="#2a8" stroke-width="1"/>
<line x1="433.7" y1="194.04154488266653" x2="506.3" y2="194.04154488266653" stroke="#114" stroke-width="2"/>
<circle cx="470.0" cy="213.10557150614463" r="2.4" fill="#114"/>
<text x="470.0" y="153.57009839778235" text-anchor="middle" font-size="11">1.19</text>
<text x="470.0" y="376" text-anchor="middle" font-size="12">trmv</text>
<polygon points="561.4,229.5 561.5,228.9 561.7,228.3 561.9,227.7 562.2,227.0 562.5,226.4 562.9,225.8 563.4,225.2 564.1,224.5 564.9,223.9 565.9,223.3 567.1,222.7 568.6,222.0 570.3,221.4 572.1,220.8 574.0,220.2 575.9,219.6 577.7,218.9 579.2,218.3 580.4,217.7 581.3,217.1 581.6,216.4 581.6,215.8 581.1,215.2 580.4,214.6 579.4,213.9 578.3,213.3 577.3,212.7 576.4,212.1 575.8,211.5 575.3,210.8 575.1,210.2 575.1,209.6 575.3,209.0 575.4,208.3 575.5,207.7 575.6,207.1 575.6,206.5 575.6,205.8 575.6,205.2 575.9,204.6 576.3,204.0 577.2,203.4 578.4,202.7 580.1,202.1 582.1,201.5 584.5,200.9 587.1,200.2 589.7,199.6 592.3,199.0 594.7,198.4 596.7,197.7 598.2,197.1 599.1,196.5 599.4,195.9 598.9,195.3 597.7,194.6 595.8,194.0 593.3,193.4 590.3,192.8 587.0,192.1 583.5,191.5 580.0,190.9 576.7,190.3 573.6,189.6 570.9,189.0 568.6,188.4 566.7,187.8 565.1,187.2 563.9,186.5 563.0,185.9 562.4,185.3 559.8,185.3 559.2,185.9 558.3,186.5 557.1,187.2 555.6,187.8 553.6,188.4 551.3,189.0 548.6,189.6 545.5,190.3 542.2,190.9 538.7,191.5 535.3,192.1 531.9,192.8 529.0,193.4 526.5,194.0 524.5,194.6 523.3,195.3 522.8,195.9 523.1,196.5 524.0,197.1 525.5,197.7 527.5,198.4 529.9,199.0 532.5,199.6 535.1,200.2 537.7,200.9 540.1,201.5 542.1,202.1 543.8,202.7 545.0,203.4 545.9,204.0 546.4,204.6 546.6,205.2 546.6,205.8 546.6,206.5 546.6,207.1 546.7,207.7 546.8,208.3 547.0,209.0 547.1,209.6 547.1,210.2 546.9,210.8 546.4,211.5 545.8,212.1 544.9,212.7 543.9,213.3 542.8,213.9 541.9,214.6 541.1,215.2 540.7,215.8 540.6,216.4 541.0,217.1 541.8,217.7 543.0,218.3 544.5,218.9 546.3,219.6 548.2,220.2 550.1,220.8 551.9,221.4 553.6,222.0 555.1,222.7 556.3,223.3 557.3,223.9 558.2,224.5 558.8,225.2 559.3,225.8 559.7,226.4 560.1,227.0 560.3,227.7 560.5,228.3 560.7,228.9 560.8,229.5" fill="#2a8" opacity="0.5" stroke="#2a8" stroke-width="1"/>
<line x1="534.7" y1="200.12212414812802" x2="587.6" y2="200.12212414812802" stroke="#114" stroke-width="2"/>
<circle cx="561.1111111111111" cy="217.7345849668376" r="2.4" fill="#114"/>
<text x="561.1111111111111" y="183.7869605839665" text-anchor="middle" font-size="11">1.15</text>
<text x="561.1111111111111" y="376" text-anchor="middle" font-size="12">trsv</text>
<polygon points="657.3,223.3 658.6,221.5 659.9,219.7 661.2,217.8 662.5,216.0 663.7,214.2 664.6,212.3 665.3,210.5 665.7,208.7 665.9,206.8 665.9,205.0 665.8,203.2 665.7,201.3 665.6,199.5 665.6,197.7 665.6,195.9 665.7,194.0 665.7,192.2 665.7,190.4 665.5,188.5 665.1,186.7 664.5,184.9 663.7,183.0 662.7,181.2 661.6,179.4 660.6,177.5 659.6,175.7 658.9,173.9 658.5,172.0 658.5,170.2 658.9,168.4 659.8,166.6 661.2,164.7 663.0,162.9 665.3,161.1 667.9,159.2 670.8,157.4 673.9,155.6 677.0,153.7 680.0,151.9 682.8,150.1 685.3,148.2 687.4,146.4 689.0,144.6 690.0,142.7 690.5,140.9 690.4,139.1 689.7,137.2 688.4,135.4 686.8,133.6 684.8,131.8 682.7,129.9 680.4,128.1 678.2,126.3 676.2,124.4 674.3,122.6 672.6,120.8 671.1,118.9 669.7,117.1 668.3,115.3 667.0,113.4 665.7,111.6 664.3,109.8 662.9,107.9 661.5,106.1 660.1,104.3 658.8,102.5 657.5,100.6 656.4,98.8 655.5,97.0 654.7,95.1 654.0,93.3 650.4,93.3 649.8,95.1 649.0,97.0 648.0,98.8 646.9,100.6 645.7,102.5 644.3,104.3 642.9,106.1 641.5,107.9 640.1,109.8 638.7,111.6 637.4,113.4 636.1,115.3 634.8,117.1 633.4,118.9 631.8,120.8 630.2,122.6 628.3,124.4 626.2,126.3 624.0,128.1 621.8,129.9 619.6,131.8 617.7,133.6 616.0,135.4 614.8,137.2 614.1,139.1 614.0,140.9 614.4,142.7 615.5,144.6 617.1,146.4 619.2,148.2 621.7,150.1 624.5,151.9 627.5,153.7 630.6,155.6 633.6,157.4 636.5,159.2 639.1,161.1 641.4,162.9 643.3,164.7 644.7,166.6 645.6,168.4 646.0,170.2 646.0,172.0 645.6,173.9 644.8,175.7 643.9,177.5 642.8,179.4 641.7,181.2 640.8,183.0 639.9,184.9 639.3,186.7 638.9,188.5 638.7,190.4 638.7,192.2 638.8,194.0 638.8,195.9 638.9,197.7 638.9,199.5 638.8,201.3 638.6,203.2 638.5,205.0 638.6,206.8 638.8,208.7 639.2,210.5 639.9,212.3 640.8,214.2 641.9,216.0 643.2,217.8 644.5,219.7 645.9,221.5 647.2,223.3" fill="#2a8" opacity="0.5" stroke="#2a8" stroke-width="1"/>
<line x1="614.6" y1="143.05832682078" x2="689.9" y2="143.05832682078" stroke="#114" stroke-width="2"/>
<circle cx="652.2222222222223" cy="209.64744235772042" r="2.4" fill="#114"/>
<text x="652.2222222222223" y="100.10036662264558" text-anchor="middle" font-size="11">1.56</text>
<text x="652.2222222222223" y="376" text-anchor="middle" font-size="12">spmv</text>
<polygon points="743.3,208.1 743.4,206.8 743.4,205.4 743.5,204.1 743.6,202.7 743.8,201.4 743.9,200.0 744.0,198.7 744.0,197.3 744.0,196.0 743.9,194.6 743.8,193.3 743.8,191.9 743.9,190.6 744.0,189.2 744.1,187.9 744.3,186.6 744.5,185.2 744.7,183.9 745.0,182.5 745.5,181.2 746.2,179.8 747.1,178.5 748.2,177.1 749.6,175.8 751.2,174.4 753.4,173.1 756.3,171.7 760.4,170.4 765.7,169.0 771.6,167.7 777.1,166.3 780.8,165.0 781.6,163.6 779.4,162.3 775.1,161.0 769.8,159.6 764.9,158.3 761.0,156.9 758.2,155.6 756.1,154.2 754.5,152.9 753.2,151.5 752.2,150.2 751.4,148.8 750.9,147.5 750.6,146.1 750.5,144.8 750.4,143.4 750.0,142.1 749.3,140.7 748.2,139.4 747.0,138.1 745.9,136.7 745.0,135.4 744.5,134.0 744.2,132.7 744.2,131.3 744.3,130.0 744.5,128.6 744.7,127.3 744.8,125.9 744.8,124.6 744.7,123.2 744.6,121.9 744.3,120.5 744.0,119.2 743.8,117.8 743.6,116.5 743.5,115.1 743.4,113.8 743.4,112.5 743.3,112.5 743.3,113.8 743.2,115.1 743.1,116.5 742.9,117.8 742.6,119.2 742.4,120.5 742.1,121.9 741.9,123.2 741.9,124.6 741.9,125.9 742.0,127.3 742.2,128.6 742.3,130.0 742.5,131.3 742.4,132.7 742.2,134.0 741.7,135.4 740.8,136.7 739.6,138.1 738.4,139.4 737.4,140.7 736.7,142.1 736.3,143.4 736.1,144.8 736.0,146.1 735.8,147.5 735.3,148.8 734.5,150.2 733.4,151.5 732.1,152.9 730.5,154.2 728.5,155.6 725.6,156.9 721.7,158.3 716.8,159.6 711.6,161.0 707.2,162.3 705.1,163.6 705.9,165.0 709.6,166.3 715.1,167.7 721.0,169.0 726.2,170.4 730.3,171.7 733.3,173.1 735.4,174.4 737.1,175.8 738.4,177.1 739.6,178.5 740.5,179.8 741.2,181.2 741.6,182.5 742.0,183.9 742.2,185.2 742.4,186.6 742.6,187.9 742.7,189.2 742.8,190.6 742.8,191.9 742.8,193.3 742.8,194.6 742.7,196.0 742.7,197.3 742.7,198.7 742.8,200.0 742.9,201.4 743.0,202.7 743.2,204.1 743.2,205.4 743.3,206.8 743.3,208.1" fill="#2a8" opacity="0.5" stroke="#2a8" stroke-width="1"/>
<line x1="705.1" y1="163.5899181232034" x2="781.6" y2="163.5899181232034" stroke="#114" stroke-width="2"/>
<circle cx="743.3333333333334" cy="171.06462389794638" r="2.4" fill="#114"/>
<text x="743.3333333333334" y="115.93191418721466" text-anchor="middle" font-size="11">1.41</text>
<text x="743.3333333333334" y="376" text-anchor="middle" font-size="12">gbmvN</text>
<polygon points="834.6,233.9 834.8,232.9 834.9,231.9 835.1,231.0 835.4,230.0 835.6,229.1 835.9,228.1 836.1,227.2 836.2,226.2 836.3,225.3 836.3,224.3 836.5,223.3 836.8,222.4 837.4,221.4 838.2,220.5 839.3,219.5 840.7,218.6 842.3,217.6 844.0,216.7 845.9,215.7 847.8,214.7 849.8,213.8 852.1,212.8 854.6,211.9 857.5,210.9 860.6,210.0 863.8,209.0 866.8,208.1 869.3,207.1 871.2,206.1 872.3,205.2 872.7,204.2 872.5,203.3 871.8,202.3 870.6,201.4 869.1,200.4 867.1,199.5 864.7,198.5 861.8,197.5 858.8,196.6 855.7,195.6 853.1,194.7 851.1,193.7 849.9,192.8 849.7,191.8 850.4,190.8 851.9,189.9 853.8,188.9 855.9,188.0 857.8,187.0 859.2,186.1 859.7,185.1 859.3,184.2 857.8,183.2 855.4,182.2 852.4,181.3 849.3,180.3 846.2,179.4 843.5,178.4 841.2,177.5 839.5,176.5 838.2,175.6 837.2,174.6 836.5,173.6 836.0,172.7 835.6,171.7 835.3,170.8 835.0,169.8 834.8,168.9 834.7,167.9 834.6,167.0 834.5,166.0 834.4,166.0 834.3,167.0 834.2,167.9 834.1,168.9 833.9,169.8 833.6,170.8 833.3,171.7 832.9,172.7 832.4,173.6 831.7,174.6 830.7,175.6 829.4,176.5 827.6,177.5 825.4,178.4 822.7,179.4 819.6,180.3 816.5,181.3 813.5,182.2 811.1,183.2 809.6,184.2 809.2,185.1 809.7,186.1 811.1,187.0 813.0,188.0 815.1,188.9 817.0,189.9 818.5,190.8 819.2,191.8 819.0,192.8 817.8,193.7 815.8,194.7 813.2,195.6 810.1,196.6 807.1,197.5 804.2,198.5 801.8,199.5 799.8,200.4 798.3,201.4 797.1,202.3 796.4,203.3 796.2,204.2 796.6,205.2 797.7,206.1 799.6,207.1 802.1,208.1 805.1,209.0 808.3,210.0 811.4,210.9 814.2,211.9 816.8,212.8 819.1,213.8 821.1,214.7 823.0,215.7 824.8,216.7 826.6,217.6 828.2,218.6 829.5,219.5 830.7,220.5 831.5,221.4 832.1,222.4 832.4,223.3 832.5,224.3 832.6,225.3 832.7,226.2 832.8,227.2 833.0,228.1 833.2,229.1 833.5,230.0 833.7,231.0 834.0,231.9 834.1,232.9 834.3,233.9" fill="#2a8" opacity="0.5" stroke="#2a8" stroke-width="1"/>
<line x1="798.9" y1="200.92554455509048" x2="870.0" y2="200.92554455509048" stroke="#114" stroke-width="2"/>
<circle cx="834.4444444444445" cy="211.81637367078193" r="2.4" fill="#114"/>
<text x="834.4444444444445" y="166.7882018432249" text-anchor="middle" font-size="11">1.14</text>
<text x="834.4444444444445" y="376" text-anchor="middle" font-size="12">sbmv</text>
<text x="450.0" y="428" text-anchor="middle" font-size="11" fill="#666">violin = ratio distribution over sizes · line = median · dark dot = worst size · green = every size ≥ gate</text>
</svg>
