<svg xmlns="http://www.w3.org/2000/svg" width="900" height="440" font-family="sans-serif">
<rect width="900" height="440" fill="white"/>
<text x="450.0" y="28" text-anchor="middle" font-size="18" font-weight="bold">BLAS-1: PureBLAS / OpenBLAS (AVX2, 1 thread, Float64)</text>
<line x1="60" y1="358.0" x2="880" y2="358.0" stroke="#eee"/>
<text x="52" y="362.0" text-anchor="end" font-size="11" fill="#666">0×</text>
<line x1="60" y1="339.88543821627155" x2="880" y2="339.88543821627155" stroke="#eee"/>
<text x="52" y="343.88543821627155" text-anchor="end" font-size="11" fill="#666">0.5×</text>
<line x1="60" y1="321.77087643254316" x2="880" y2="321.77087643254316" stroke="#eee"/>
<text x="52" y="325.77087643254316" text-anchor="end" font-size="11" fill="#666">1×</text>
<line x1="60" y1="303.6563146488147" x2="880" y2="303.6563146488147" stroke="#eee"/>
<text x="52" y="307.6563146488147" text-anchor="end" font-size="11" fill="#666">1.5×</text>
<line x1="60" y1="321.77087643254316" x2="880" y2="321.77087643254316" stroke="#888" stroke-width="1"/>
<line x1="60" y1="323.2200413752414" x2="880" y2="323.2200413752414" stroke="#d33" stroke-width="1.5" stroke-dasharray="6 4"/>
<text x="880" y="318.2200413752414" text-anchor="end" font-size="11" fill="#d33">0.96× gate</text>
<polygon points="128.3,343.7 128.3,343.1 128.4,342.6 128.4,342.0 128.6,341.4 128.7,340.8 128.9,340.2 128.9,339.6 128.8,339.0 128.7,338.4 128.5,337.8 128.4,337.2 128.4,336.6 128.3,336.0 128.3,335.4 128.3,334.8 128.3,334.2 128.3,333.6 128.3,333.0 128.3,332.4 128.3,331.8 128.3,331.3 128.3,330.7 128.3,330.1 128.3,329.5 128.3,328.9 128.3,328.3 128.3,327.7 128.3,327.1 128.4,326.5 128.6,325.9 129.4,325.3 131.5,324.7 136.1,324.1 144.6,323.5 156.8,322.9 170.6,322.3 181.5,321.7 185.7,321.1 182.0,320.5 172.2,319.9 160.2,319.4 149.4,318.8 141.6,318.2 137.1,317.6 134.7,317.0 133.4,316.4 132.6,315.8 132.0,315.2 131.8,314.6 131.6,314.0 131.4,313.4 131.0,312.8 130.4,312.2 129.8,311.6 129.3,311.0 129.1,310.4 129.0,309.8 129.0,309.2 128.9,308.6 128.9,308.1 129.0,307.5 129.2,306.9 129.4,306.3 129.5,305.7 129.3,305.1 129.0,304.5 128.7,303.9 128.5,303.3 128.4,302.7 128.3,302.1 128.3,301.5 128.3,301.5 128.3,302.1 128.3,302.7 128.2,303.3 128.0,303.9 127.7,304.5 127.4,305.1 127.2,305.7 127.2,306.3 127.4,306.9 127.7,307.5 127.8,308.1 127.8,308.6 127.7,309.2 127.6,309.8 127.6,310.4 127.3,311.0 126.9,311.6 126.3,312.2 125.6,312.8 125.2,313.4 125.0,314.0 124.9,314.6 124.6,315.2 124.1,315.8 123.2,316.4 122.0,317.0 119.6,317.6 115.0,318.2 107.3,318.8 96.4,319.4 84.4,319.9 74.7,320.5 70.9,321.1 75.2,321.7 86.1,322.3 99.8,322.9 112.1,323.5 120.5,324.1 125.2,324.7 127.3,325.3 128.0,325.9 128.3,326.5 128.3,327.1 128.3,327.7 128.3,328.3 128.3,328.9 128.3,329.5 128.3,330.1 128.3,330.7 128.3,331.3 128.3,331.8 128.3,332.4 128.3,333.0 128.3,333.6 128.3,334.2 128.3,334.8 128.3,335.4 128.3,336.0 128.3,336.6 128.2,337.2 128.1,337.8 128.0,338.4 127.8,339.0 127.8,339.6 127.8,340.2 128.0,340.8 128.1,341.4 128.2,342.0 128.3,342.6 128.3,343.1 128.3,343.7" fill="#2a8" opacity="0.5" stroke="#2a8" stroke-width="1"/>
<line x1="71.0" y1="321.05592596676667" x2="185.7" y2="321.05592596676667" stroke="#114" stroke-width="2"/>
<circle cx="128.33333333333331" cy="321.674215828359" r="2.4" fill="#114"/>
<text x="128.33333333333331" y="299.6544228534742" text-anchor="middle" font-size="11">1.02</text>
<text x="128.33333333333331" y="376" text-anchor="middle" font-size="12">axpy</text>
<polygon points="265.0,326.4 265.0,325.9 265.1,325.5 265.5,325.0 266.4,324.6 268.7,324.1 273.7,323.7 282.5,323.2 294.9,322.8 308.7,322.4 319.3,321.9 322.4,321.5 317.1,321.0 305.9,320.6 293.4,320.1 282.9,319.7 275.8,319.2 271.5,318.8 269.3,318.3 268.1,317.9 267.6,317.4 267.4,317.0 267.3,316.5 267.3,316.1 267.1,315.6 266.9,315.2 266.5,314.7 266.2,314.3 265.9,313.9 265.7,313.4 265.8,313.0 265.9,312.5 266.0,312.1 266.0,311.6 265.8,311.2 265.5,310.7 265.3,310.3 265.1,309.8 265.1,309.4 265.0,308.9 265.0,308.5 265.0,308.0 265.0,307.6 265.0,307.1 265.0,306.7 265.0,306.2 265.0,305.8 265.0,305.4 265.0,304.9 265.0,304.5 265.0,304.0 265.0,303.6 265.0,303.1 265.0,302.7 265.0,302.2 265.0,301.8 265.0,301.3 265.0,300.9 265.0,300.4 265.0,300.0 265.1,299.5 265.2,299.1 265.3,298.6 265.5,298.2 265.5,297.7 265.5,297.3 265.3,296.8 265.2,296.4 265.1,296.0 265.0,295.5 265.0,295.1 265.0,294.6 265.0,294.6 265.0,295.1 265.0,295.5 264.9,296.0 264.8,296.4 264.7,296.8 264.5,297.3 264.5,297.7 264.5,298.2 264.7,298.6 264.8,299.1 264.9,299.5 265.0,300.0 265.0,300.4 265.0,300.9 265.0,301.3 265.0,301.8 265.0,302.2 265.0,302.7 265.0,303.1 265.0,303.6 265.0,304.0 265.0,304.5 265.0,304.9 265.0,305.4 265.0,305.8 265.0,306.2 265.0,306.7 265.0,307.1 265.0,307.6 265.0,308.0 265.0,308.5 265.0,308.9 264.9,309.4 264.9,309.8 264.7,310.3 264.5,310.7 264.2,311.2 264.0,311.6 264.0,312.1 264.1,312.5 264.2,313.0 264.3,313.4 264.1,313.9 263.8,314.3 263.5,314.7 263.1,315.2 262.9,315.6 262.7,316.1 262.7,316.5 262.6,317.0 262.4,317.4 261.9,317.9 260.7,318.3 258.5,318.8 254.2,319.2 247.1,319.7 236.6,320.1 224.1,320.6 212.9,321.0 207.6,321.5 210.7,321.9 221.3,322.4 235.1,322.8 247.5,323.2 256.3,323.7 261.3,324.1 263.6,324.6 264.5,325.0 264.9,325.5 265.0,325.9 265.0,326.4" fill="#2a8" opacity="0.5" stroke="#2a8" stroke-width="1"/>
<line x1="207.5" y1="321.530248936408" x2="322.5" y2="321.530248936408" stroke="#114" stroke-width="2"/>
<circle cx="265.0" cy="321.7205666490062" r="2.4" fill="#114"/>
<text x="265.0" y="291.7447037905757" text-anchor="middle" font-size="11">1.01</text>
<text x="265.0" y="376" text-anchor="middle" font-size="12">dot</text>
<polygon points="404.6,231.1 405.2,228.5 405.9,226.0 406.7,223.4 407.6,220.9 408.5,218.3 409.6,215.8 410.8,213.2 412.1,210.7 413.5,208.1 415.0,205.6 416.6,203.0 418.3,200.5 420.1,197.9 421.9,195.4 423.7,192.8 425.4,190.3 427.1,187.7 428.6,185.2 429.9,182.6 430.9,180.1 431.7,177.5 432.2,175.0 432.3,172.4 432.2,169.9 431.7,167.3 431.0,164.8 430.0,162.2 428.8,159.7 427.5,157.1 426.1,154.6 424.7,152.0 423.2,149.5 421.9,146.9 420.6,144.4 419.4,141.8 418.4,139.3 417.5,136.7 416.9,134.2 416.4,131.6 416.0,129.1 416.0,126.5 416.1,124.0 416.5,121.4 417.3,118.9 418.3,116.3 419.8,113.8 421.6,111.2 423.8,108.7 426.4,106.1 429.4,103.6 432.8,101.0 436.3,98.5 440.0,95.9 443.8,93.4 447.4,90.8 450.8,88.3 453.8,85.7 456.2,83.2 457.9,80.6 458.9,78.1 459.1,75.5 458.4,73.0 456.8,70.4 454.5,67.9 451.5,65.3 447.9,62.8 443.9,60.2 439.6,57.7 435.2,55.1 430.9,52.6 426.6,50.0 376.7,50.0 372.5,52.6 368.1,55.1 363.7,57.7 359.4,60.2 355.4,62.8 351.8,65.3 348.8,67.9 346.5,70.4 345.0,73.0 344.3,75.5 344.4,78.1 345.4,80.6 347.2,83.2 349.6,85.7 352.5,88.3 355.9,90.8 359.6,93.4 363.3,95.9 367.0,98.5 370.6,101.0 373.9,103.6 376.9,106.1 379.5,108.7 381.8,111.2 383.6,113.8 385.0,116.3 386.1,118.9 386.8,121.4 387.2,124.0 387.4,126.5 387.3,129.1 387.0,131.6 386.5,134.2 385.8,136.7 384.9,139.3 383.9,141.8 382.7,144.4 381.5,146.9 380.1,149.5 378.7,152.0 377.2,154.6 375.8,157.1 374.5,159.7 373.3,162.2 372.4,164.8 371.6,167.3 371.1,169.9 371.0,172.4 371.1,175.0 371.6,177.5 372.4,180.1 373.5,182.6 374.8,185.2 376.3,187.7 377.9,190.3 379.6,192.8 381.4,195.4 383.2,197.9 385.0,200.5 386.7,203.0 388.3,205.6 389.8,208.1 391.2,210.7 392.5,213.2 393.7,215.8 394.8,218.3 395.8,220.9 396.6,223.4 397.4,226.0 398.1,228.5 398.7,231.1" fill="#2a8" opacity="0.5" stroke="#2a8" stroke-width="1"/>
<line x1="351.8" y1="87.63526696326835" x2="451.5" y2="87.63526696326835" stroke="#114" stroke-width="2"/>
<circle cx="401.66666666666663" cy="173.92984545059406" r="2.4" fill="#114"/>
<text x="401.66666666666663" y="61.43396226415098" text-anchor="middle" font-size="11">7.46</text>
<text x="401.66666666666663" y="376" text-anchor="middle" font-size="12">nrm2</text>
<polygon points="540.0,320.0 540.7,319.5 541.6,318.9 542.9,318.3 544.5,317.7 546.5,317.1 548.9,316.5 551.9,316.0 555.3,315.4 559.1,314.8 563.2,314.2 567.6,313.6 571.9,313.0 576.1,312.5 580.0,311.9 583.4,311.3 586.1,310.7 588.2,310.1 589.6,309.6 590.4,309.0 590.7,308.4 590.8,307.8 590.8,307.2 590.9,306.6 591.2,306.1 591.8,305.5 592.7,304.9 593.7,304.3 594.7,303.7 595.4,303.1 595.7,302.6 595.4,302.0 594.4,301.4 592.5,300.8 590.0,300.2 586.8,299.7 583.2,299.1 579.5,298.5 575.7,297.9 572.3,297.3 569.3,296.7 567.0,296.2 565.4,295.6 564.7,295.0 564.8,294.4 565.7,293.8 567.5,293.2 569.9,292.7 572.7,292.1 575.8,291.5 578.9,290.9 581.6,290.3 583.8,289.8 585.1,289.2 585.4,288.6 584.6,288.0 582.7,287.4 579.9,286.8 576.2,286.3 572.1,285.7 567.6,285.1 563.1,284.5 558.8,283.9 554.8,283.3 551.3,282.8 548.4,282.2 545.9,281.6 544.0,281.0 542.4,280.4 541.3,279.9 540.4,279.3 539.8,278.7 536.9,278.7 536.2,279.3 535.4,279.9 534.2,280.4 532.7,281.0 530.7,281.6 528.3,282.2 525.3,282.8 521.8,283.3 517.9,283.9 513.6,284.5 509.1,285.1 504.6,285.7 500.4,286.3 496.8,286.8 493.9,287.4 492.1,288.0 491.3,288.6 491.6,289.2 492.9,289.8 495.0,290.3 497.8,290.9 500.8,291.5 503.9,292.1 506.8,292.7 509.2,293.2 510.9,293.8 511.9,294.4 512.0,295.0 511.3,295.6 509.7,296.2 507.3,296.7 504.4,297.3 500.9,297.9 497.2,298.5 493.4,299.1 489.9,299.7 486.7,300.2 484.1,300.8 482.3,301.4 481.3,302.0 480.9,302.6 481.2,303.1 482.0,303.7 483.0,304.3 484.0,304.9 484.8,305.5 485.4,306.1 485.8,306.6 485.9,307.2 485.9,307.8 486.0,308.4 486.3,309.0 487.1,309.6 488.5,310.1 490.5,310.7 493.3,311.3 496.7,311.9 500.5,312.5 504.7,313.0 509.1,313.6 513.4,314.2 517.6,314.8 521.4,315.4 524.8,316.0 527.7,316.5 530.2,317.1 532.2,317.7 533.8,318.3 535.0,318.9 536.0,319.5 536.7,320.0" fill="#2a8" opacity="0.5" stroke="#2a8" stroke-width="1"/>
<line x1="481.8" y1="301.60618117255535" x2="594.8" y2="301.60618117255535" stroke="#114" stroke-width="2"/>
<circle cx="538.3333333333333" cy="311.3561796291888" r="2.4" fill="#114"/>
<text x="538.3333333333333" y="276.74799736127346" text-anchor="middle" font-size="11">1.56</text>
<text x="538.3333333333333" y="376" text-anchor="middle" font-size="12">asum</text>
<polygon points="678.1,323.7 680.0,323.5 682.7,323.2 686.4,323.0 691.1,322.8 696.8,322.6 703.4,322.3 710.3,322.1 717.2,321.9 723.4,321.7 728.3,321.5 731.4,321.2 732.4,321.0 731.2,320.8 728.0,320.6 723.2,320.3 717.3,320.1 711.0,319.9 704.7,319.7 698.9,319.5 693.9,319.2 689.7,319.0 686.4,318.8 683.9,318.6 682.1,318.3 680.7,318.1 679.8,317.9 679.2,317.7 678.7,317.4 678.5,317.2 678.3,317.0 678.2,316.8 678.2,316.6 678.2,316.3 678.2,316.1 678.2,315.9 678.2,315.7 678.2,315.4 678.1,315.2 678.0,315.0 677.9,314.8 677.7,314.5 677.5,314.3 677.3,314.1 677.2,313.9 677.1,313.7 677.1,313.4 677.1,313.2 677.3,313.0 677.5,312.8 677.7,312.5 677.9,312.3 678.1,312.1 678.2,311.9 678.2,311.7 678.1,311.4 677.9,311.2 677.6,311.0 677.3,310.8 677.0,310.5 676.6,310.3 676.4,310.1 676.1,309.9 676.0,309.6 675.8,309.4 675.7,309.2 675.6,309.0 675.5,308.8 675.4,308.5 675.3,308.3 675.2,308.1 675.2,307.9 674.8,307.9 674.8,308.1 674.7,308.3 674.6,308.5 674.5,308.8 674.4,309.0 674.3,309.2 674.2,309.4 674.0,309.6 673.9,309.9 673.6,310.1 673.4,310.3 673.0,310.5 672.7,310.8 672.4,311.0 672.1,311.2 671.9,311.4 671.8,311.7 671.8,311.9 671.9,312.1 672.1,312.3 672.3,312.5 672.5,312.8 672.7,313.0 672.9,313.2 672.9,313.4 672.9,313.7 672.8,313.9 672.7,314.1 672.5,314.3 672.3,314.5 672.1,314.8 672.0,315.0 671.9,315.2 671.8,315.4 671.8,315.7 671.8,315.9 671.8,316.1 671.8,316.3 671.8,316.6 671.8,316.8 671.7,317.0 671.5,317.2 671.3,317.4 670.8,317.7 670.2,317.9 669.3,318.1 667.9,318.3 666.1,318.6 663.6,318.8 660.3,319.0 656.1,319.2 651.1,319.5 645.3,319.7 639.0,319.9 632.7,320.1 626.8,320.3 622.0,320.6 618.8,320.8 617.6,321.0 618.6,321.2 621.7,321.5 626.6,321.7 632.8,321.9 639.7,322.1 646.6,322.3 653.2,322.6 658.9,322.8 663.6,323.0 667.3,323.2 670.0,323.5 671.9,323.7" fill="#2a8" opacity="0.5" stroke="#2a8" stroke-width="1"/>
<line x1="618.0" y1="320.89143591462374" x2="732.0" y2="320.89143591462374" stroke="#114" stroke-width="2"/>
<circle cx="675.0" cy="321.50656618028586" r="2.4" fill="#114"/>
<text x="675.0" y="303.45216727637415" text-anchor="middle" font-size="11">1.02</text>
<text x="675.0" y="376" text-anchor="middle" font-size="12">scal</text>
<polygon points="813.9,337.6 814.8,336.9 816.0,336.2 817.5,335.5 819.4,334.7 821.5,334.0 824.1,333.3 826.9,332.6 830.1,331.9 833.5,331.2 837.1,330.5 840.7,329.8 844.4,329.0 848.1,328.3 851.5,327.6 854.7,326.9 857.6,326.2 860.1,325.5 862.2,324.8 863.9,324.1 865.2,323.3 866.1,322.6 866.9,321.9 867.4,321.2 867.8,320.5 868.2,319.8 868.5,319.1 868.7,318.3 868.9,317.6 869.1,316.9 869.1,316.2 868.9,315.5 868.6,314.8 868.1,314.1 867.5,313.4 866.9,312.6 866.1,311.9 865.3,311.2 864.6,310.5 863.8,309.8 863.0,309.1 862.2,308.4 861.2,307.7 860.2,306.9 858.9,306.2 857.4,305.5 855.6,304.8 853.6,304.1 851.5,303.4 849.1,302.7 846.7,302.0 844.2,301.2 841.8,300.5 839.5,299.8 837.3,299.1 835.2,298.4 833.2,297.7 831.5,297.0 829.8,296.2 828.2,295.5 826.7,294.8 825.2,294.1 823.7,293.4 822.3,292.7 820.9,292.0 819.5,291.3 818.2,290.5 817.0,289.8 816.0,289.1 815.0,288.4 814.2,287.7 813.6,287.0 809.8,287.0 809.1,287.7 808.3,288.4 807.4,289.1 806.3,289.8 805.1,290.5 803.8,291.3 802.5,292.0 801.1,292.7 799.6,293.4 798.2,294.1 796.7,294.8 795.1,295.5 793.6,296.2 791.9,297.0 790.1,297.7 788.2,298.4 786.1,299.1 783.9,299.8 781.5,300.5 779.1,301.2 776.6,302.0 774.2,302.7 771.9,303.4 769.7,304.1 767.7,304.8 766.0,305.5 764.5,306.2 763.2,306.9 762.1,307.7 761.1,308.4 760.3,309.1 759.5,309.8 758.8,310.5 758.0,311.2 757.2,311.9 756.5,312.6 755.8,313.4 755.2,314.1 754.7,314.8 754.4,315.5 754.3,316.2 754.3,316.9 754.4,317.6 754.6,318.3 754.9,319.1 755.2,319.8 755.5,320.5 755.9,321.2 756.5,321.9 757.2,322.6 758.2,323.3 759.5,324.1 761.2,324.8 763.2,325.5 765.7,326.2 768.6,326.9 771.8,327.6 775.3,328.3 778.9,329.0 782.6,329.8 786.3,330.5 789.9,331.2 793.3,331.9 796.4,332.6 799.3,333.3 801.8,334.0 804.0,334.7 805.8,335.5 807.3,336.2 808.5,336.9 809.4,337.6" fill="#2a8" opacity="0.5" stroke="#2a8" stroke-width="1"/>
<line x1="754.7" y1="314.79748134225594" x2="868.6" y2="314.79748134225594" stroke="#114" stroke-width="2"/>
<circle cx="811.6666666666666" cy="319.07462872046534" r="2.4" fill="#114"/>
<text x="811.6666666666666" y="285.9382734819758" text-anchor="middle" font-size="11">1.19</text>
<text x="811.6666666666666" y="376" text-anchor="middle" font-size="12">iamax</text>
<text x="450.0" y="428" text-anchor="middle" font-size="11" fill="#666">violin = ratio distribution over sizes · line = median · dark dot = worst size · green = every size ≥ gate</text>
</svg>
