<svg xmlns="http://www.w3.org/2000/svg" width="962" height="420" font-family="sans-serif">
<rect width="962" height="420" fill="white"/>
<text x="481.0" y="26" text-anchor="middle" font-size="17" font-weight="bold">BLAS-3 — PB / AOCL ratio</text>
<line x1="46" y1="42" x2="68" y2="42" stroke="#d62728" stroke-width="3"/>
<text x="73" y="46" font-size="12">Zen3 · AVX2</text>
<line x1="176" y1="42" x2="198" y2="42" stroke="#1f77b4" stroke-width="3"/>
<text x="203" y="46" font-size="12">Zen4 · AVX-512</text>
<line x1="327" y1="42" x2="349" y2="42" stroke="#2ca02c" stroke-width="3"/>
<text x="354" y="46" font-size="12">Zen5 · AVX-512</text>
<rect x="46" y="60" width="210" height="138" fill="none" stroke="#e2e2e2"/>
<line x1="46" y1="128.49943580607453" x2="256" y2="128.49943580607453" stroke="#d33" stroke-dasharray="4 3"/>
<text x="42" y="201.0" text-anchor="end" font-size="9" fill="#999">0.5×</text>
<text x="42" y="131.49943580607453" text-anchor="end" font-size="9" fill="#999">1.0×</text>
<text x="42" y="63.0065998865287" text-anchor="end" font-size="9" fill="#999">1.98×</text>
<polygon points="46.0,87.4 92.7,126.4 107.7,117.4 131.0,124.6 139.3,127.2 162.7,130.9 186.0,126.5 208.5,123.8 209.3,122.6 232.7,115.0 233.5,117.7 256.0,103.4 256.0,104.1 233.5,117.8 232.7,115.5 209.3,122.8 208.5,123.9 186.0,126.9 162.7,132.9 139.3,130.5 131.0,130.2 107.7,123.3 92.7,131.2 46.0,98.0" fill="#d62728" opacity="0.11"/>
<polyline points="46.0,90.4 92.7,127.2 107.7,118.9 131.0,126.1 139.3,129.1 162.7,132.3 186.0,126.6 208.5,123.8 209.3,122.7 232.7,115.4 233.5,117.8 256.0,103.6" fill="none" stroke="#d62728" stroke-width="1.6"/>
<circle cx="46.0" cy="90.4" r="2" fill="#d62728"/>
<circle cx="92.7" cy="127.2" r="2" fill="#d62728"/>
<circle cx="107.7" cy="118.9" r="2" fill="#d62728"/>
<circle cx="131.0" cy="126.1" r="2" fill="#d62728"/>
<circle cx="139.3" cy="129.1" r="2" fill="#d62728"/>
<circle cx="162.7" cy="132.3" r="2" fill="#d62728"/>
<circle cx="186.0" cy="126.6" r="2" fill="#d62728"/>
<circle cx="208.5" cy="123.8" r="2" fill="#d62728"/>
<circle cx="209.3" cy="122.7" r="2" fill="#d62728"/>
<circle cx="232.7" cy="115.4" r="2" fill="#d62728"/>
<circle cx="233.5" cy="117.8" r="2" fill="#d62728"/>
<circle cx="256.0" cy="103.6" r="2" fill="#d62728"/>
<polygon points="46.0,73.0 92.7,111.0 107.7,127.6 131.0,134.9 139.3,130.6 162.7,128.4 186.0,114.8 208.5,128.4 209.3,111.5 232.7,97.7 233.5,119.3 256.0,102.2 256.0,103.0 233.5,119.8 232.7,104.7 209.3,114.5 208.5,128.9 186.0,116.7 162.7,130.2 139.3,132.3 131.0,137.1 107.7,131.6 92.7,115.5 46.0,85.6" fill="#1f77b4" opacity="0.11"/>
<polyline points="46.0,73.6 92.7,113.6 107.7,130.4 131.0,136.2 139.3,131.6 162.7,130.0 186.0,115.9 208.5,128.6 209.3,113.6 232.7,101.6 233.5,119.7 256.0,102.6" fill="none" stroke="#1f77b4" stroke-width="1.6"/>
<circle cx="46.0" cy="73.6" r="2" fill="#1f77b4"/>
<circle cx="92.7" cy="113.6" r="2" fill="#1f77b4"/>
<circle cx="107.7" cy="130.4" r="2" fill="#1f77b4"/>
<circle cx="131.0" cy="136.2" r="2" fill="#1f77b4"/>
<circle cx="139.3" cy="131.6" r="2" fill="#1f77b4"/>
<circle cx="162.7" cy="130.0" r="2" fill="#1f77b4"/>
<circle cx="186.0" cy="115.9" r="2" fill="#1f77b4"/>
<circle cx="208.5" cy="128.6" r="2" fill="#1f77b4"/>
<circle cx="209.3" cy="113.6" r="2" fill="#1f77b4"/>
<circle cx="232.7" cy="101.6" r="2" fill="#1f77b4"/>
<circle cx="233.5" cy="119.7" r="2" fill="#1f77b4"/>
<circle cx="256.0" cy="102.6" r="2" fill="#1f77b4"/>
<polygon points="46.0,67.7 92.7,117.7 107.7,124.9 131.0,130.6 139.3,127.7 162.7,126.7 186.0,119.9 208.5,120.5 209.3,115.6 232.7,106.8 233.5,114.0 256.0,95.5 256.0,95.8 233.5,114.4 232.7,107.5 209.3,116.4 208.5,121.5 186.0,120.5 162.7,127.6 139.3,129.5 131.0,132.4 107.7,129.7 92.7,121.3 46.0,91.7" fill="#2ca02c" opacity="0.11"/>
<polyline points="46.0,75.0 92.7,119.6 107.7,128.0 131.0,131.7 139.3,128.6 162.7,127.1 186.0,120.1 208.5,121.0 209.3,116.1 232.7,107.1 233.5,114.2 256.0,95.6" fill="none" stroke="#2ca02c" stroke-width="1.6"/>
<circle cx="46.0" cy="75.0" r="2" fill="#2ca02c"/>
<circle cx="92.7" cy="119.6" r="2" fill="#2ca02c"/>
<circle cx="107.7" cy="128.0" r="2" fill="#2ca02c"/>
<circle cx="131.0" cy="131.7" r="2" fill="#2ca02c"/>
<circle cx="139.3" cy="128.6" r="2" fill="#2ca02c"/>
<circle cx="162.7" cy="127.1" r="2" fill="#2ca02c"/>
<circle cx="186.0" cy="120.1" r="2" fill="#2ca02c"/>
<circle cx="208.5" cy="121.0" r="2" fill="#2ca02c"/>
<circle cx="209.3" cy="116.1" r="2" fill="#2ca02c"/>
<circle cx="232.7" cy="107.1" r="2" fill="#2ca02c"/>
<circle cx="233.5" cy="114.2" r="2" fill="#2ca02c"/>
<circle cx="256.0" cy="95.6" r="2" fill="#2ca02c"/>
<text x="151.0" y="55" text-anchor="middle" font-size="12" font-weight="bold">gemm</text>
<line x1="46.0" y1="60" x2="46.0" y2="198" stroke="#f4f4f4"/>
<text x="46.0" y="209" text-anchor="middle" font-size="8" fill="#999">8</text>
<line x1="92.7" y1="60" x2="92.7" y2="198" stroke="#f4f4f4"/>
<text x="92.7" y="209" text-anchor="middle" font-size="8" fill="#999">32</text>
<line x1="107.7" y1="60" x2="107.7" y2="198" stroke="#f4f4f4"/>
<text x="107.7" y="209" text-anchor="middle" font-size="8" fill="#999">50</text>
<line x1="131.0" y1="60" x2="131.0" y2="198" stroke="#f4f4f4"/>
<text x="131.0" y="209" text-anchor="middle" font-size="8" fill="#999">100</text>
<line x1="139.3" y1="60" x2="139.3" y2="198" stroke="#f4f4f4"/>
<text x="139.3" y="209" text-anchor="middle" font-size="8" fill="#999">128</text>
<line x1="162.7" y1="60" x2="162.7" y2="198" stroke="#f4f4f4"/>
<text x="162.7" y="209" text-anchor="middle" font-size="8" fill="#999">256</text>
<line x1="186.0" y1="60" x2="186.0" y2="198" stroke="#f4f4f4"/>
<text x="186.0" y="209" text-anchor="middle" font-size="8" fill="#999">512</text>
<line x1="208.5" y1="60" x2="208.5" y2="198" stroke="#f4f4f4"/>
<text x="208.5" y="209" text-anchor="middle" font-size="8" fill="#999">1000</text>
<line x1="209.3" y1="60" x2="209.3" y2="198" stroke="#f4f4f4"/>
<text x="209.3" y="209" text-anchor="middle" font-size="8" fill="#999">1k</text>
<line x1="232.7" y1="60" x2="232.7" y2="198" stroke="#f4f4f4"/>
<text x="232.7" y="209" text-anchor="middle" font-size="8" fill="#999">2k</text>
<line x1="233.5" y1="60" x2="233.5" y2="198" stroke="#f4f4f4"/>
<text x="233.5" y="209" text-anchor="middle" font-size="8" fill="#999">2k</text>
<line x1="256.0" y1="60" x2="256.0" y2="198" stroke="#f4f4f4"/>
<text x="256.0" y="209" text-anchor="middle" font-size="8" fill="#999">4k</text>
<rect x="276" y="60" width="210" height="138" fill="none" stroke="#e2e2e2"/>
<line x1="276" y1="174.79837642091437" x2="486" y2="174.79837642091437" stroke="#d33" stroke-dasharray="4 3"/>
<text x="272" y="201.0" text-anchor="end" font-size="9" fill="#999">0.5×</text>
<text x="272" y="177.79837642091437" text-anchor="end" font-size="9" fill="#999">1.0×</text>
<text x="272" y="63.00448865595211" text-anchor="end" font-size="9" fill="#999">30.86×</text>
<polygon points="276.0,72.2 322.7,145.0 337.7,156.9 361.0,168.5 369.3,172.2 392.7,177.2 416.0,176.1 438.5,174.1 439.3,174.3 462.7,170.9 463.5,171.6 486.0,166.8 486.0,167.1 463.5,171.7 462.7,170.9 439.3,174.4 438.5,174.2 416.0,176.2 392.7,177.5 369.3,174.6 361.0,173.5 337.7,161.7 322.7,148.6 276.0,73.2" fill="#d62728" opacity="0.11"/>
<polyline points="276.0,72.6 322.7,146.4 337.7,158.7 361.0,170.5 369.3,174.3 392.7,177.3 416.0,176.1 438.5,174.2 439.3,174.3 462.7,170.9 463.5,171.6 486.0,166.8" fill="none" stroke="#d62728" stroke-width="1.6"/>
<circle cx="276.0" cy="72.6" r="2" fill="#d62728"/>
<circle cx="322.7" cy="146.4" r="2" fill="#d62728"/>
<circle cx="337.7" cy="158.7" r="2" fill="#d62728"/>
<circle cx="361.0" cy="170.5" r="2" fill="#d62728"/>
<circle cx="369.3" cy="174.3" r="2" fill="#d62728"/>
<circle cx="392.7" cy="177.3" r="2" fill="#d62728"/>
<circle cx="416.0" cy="176.1" r="2" fill="#d62728"/>
<circle cx="438.5" cy="174.2" r="2" fill="#d62728"/>
<circle cx="439.3" cy="174.3" r="2" fill="#d62728"/>
<circle cx="462.7" cy="170.9" r="2" fill="#d62728"/>
<circle cx="463.5" cy="171.6" r="2" fill="#d62728"/>
<circle cx="486.0" cy="166.8" r="2" fill="#d62728"/>
<polygon points="276.0,62.6 322.7,137.0 337.7,154.9 361.0,166.6 369.3,169.3 392.7,174.7 416.0,174.8 438.5,175.2 439.3,174.5 462.7,170.9 463.5,172.5 486.0,166.9 486.0,167.9 463.5,172.6 462.7,171.0 439.3,174.8 438.5,175.4 416.0,175.0 392.7,174.8 369.3,169.5 361.0,166.8 337.7,156.1 322.7,138.9 276.0,65.7" fill="#1f77b4" opacity="0.11"/>
<polyline points="276.0,62.8 322.7,137.7 337.7,155.3 361.0,166.7 369.3,169.4 392.7,174.8 416.0,174.8 438.5,175.3 439.3,174.6 462.7,170.9 463.5,172.5 486.0,167.6" fill="none" stroke="#1f77b4" stroke-width="1.6"/>
<circle cx="276.0" cy="62.8" r="2" fill="#1f77b4"/>
<circle cx="322.7" cy="137.7" r="2" fill="#1f77b4"/>
<circle cx="337.7" cy="155.3" r="2" fill="#1f77b4"/>
<circle cx="361.0" cy="166.7" r="2" fill="#1f77b4"/>
<circle cx="369.3" cy="169.4" r="2" fill="#1f77b4"/>
<circle cx="392.7" cy="174.8" r="2" fill="#1f77b4"/>
<circle cx="416.0" cy="174.8" r="2" fill="#1f77b4"/>
<circle cx="438.5" cy="175.3" r="2" fill="#1f77b4"/>
<circle cx="439.3" cy="174.6" r="2" fill="#1f77b4"/>
<circle cx="462.7" cy="170.9" r="2" fill="#1f77b4"/>
<circle cx="463.5" cy="172.5" r="2" fill="#1f77b4"/>
<circle cx="486.0" cy="167.6" r="2" fill="#1f77b4"/>
<polygon points="276.0,63.5 322.7,138.9 337.7,156.5 361.0,167.4 369.3,170.0 392.7,172.6 416.0,172.3 438.5,172.3 439.3,171.0 462.7,168.4 463.5,170.5 486.0,163.9 486.0,164.0 463.5,170.6 462.7,168.7 439.3,171.9 438.5,172.8 416.0,172.4 392.7,173.1 369.3,170.3 361.0,168.0 337.7,159.3 322.7,140.9 276.0,64.5" fill="#2ca02c" opacity="0.11"/>
<polyline points="276.0,63.8 322.7,139.8 337.7,156.9 361.0,167.7 369.3,170.2 392.7,173.0 416.0,172.4 438.5,172.6 439.3,171.8 462.7,168.6 463.5,170.6 486.0,164.0" fill="none" stroke="#2ca02c" stroke-width="1.6"/>
<circle cx="276.0" cy="63.8" r="2" fill="#2ca02c"/>
<circle cx="322.7" cy="139.8" r="2" fill="#2ca02c"/>
<circle cx="337.7" cy="156.9" r="2" fill="#2ca02c"/>
<circle cx="361.0" cy="167.7" r="2" fill="#2ca02c"/>
<circle cx="369.3" cy="170.2" r="2" fill="#2ca02c"/>
<circle cx="392.7" cy="173.0" r="2" fill="#2ca02c"/>
<circle cx="416.0" cy="172.4" r="2" fill="#2ca02c"/>
<circle cx="438.5" cy="172.6" r="2" fill="#2ca02c"/>
<circle cx="439.3" cy="171.8" r="2" fill="#2ca02c"/>
<circle cx="462.7" cy="168.6" r="2" fill="#2ca02c"/>
<circle cx="463.5" cy="170.6" r="2" fill="#2ca02c"/>
<circle cx="486.0" cy="164.0" r="2" fill="#2ca02c"/>
<text x="381.0" y="55" text-anchor="middle" font-size="12" font-weight="bold">symm</text>
<line x1="276.0" y1="60" x2="276.0" y2="198" stroke="#f4f4f4"/>
<text x="276.0" y="209" text-anchor="middle" font-size="8" fill="#999">8</text>
<line x1="322.7" y1="60" x2="322.7" y2="198" stroke="#f4f4f4"/>
<text x="322.7" y="209" text-anchor="middle" font-size="8" fill="#999">32</text>
<line x1="337.7" y1="60" x2="337.7" y2="198" stroke="#f4f4f4"/>
<text x="337.7" y="209" text-anchor="middle" font-size="8" fill="#999">50</text>
<line x1="361.0" y1="60" x2="361.0" y2="198" stroke="#f4f4f4"/>
<text x="361.0" y="209" text-anchor="middle" font-size="8" fill="#999">100</text>
<line x1="369.3" y1="60" x2="369.3" y2="198" stroke="#f4f4f4"/>
<text x="369.3" y="209" text-anchor="middle" font-size="8" fill="#999">128</text>
<line x1="392.7" y1="60" x2="392.7" y2="198" stroke="#f4f4f4"/>
<text x="392.7" y="209" text-anchor="middle" font-size="8" fill="#999">256</text>
<line x1="416.0" y1="60" x2="416.0" y2="198" stroke="#f4f4f4"/>
<text x="416.0" y="209" text-anchor="middle" font-size="8" fill="#999">512</text>
<line x1="438.5" y1="60" x2="438.5" y2="198" stroke="#f4f4f4"/>
<text x="438.5" y="209" text-anchor="middle" font-size="8" fill="#999">1000</text>
<line x1="439.3" y1="60" x2="439.3" y2="198" stroke="#f4f4f4"/>
<text x="439.3" y="209" text-anchor="middle" font-size="8" fill="#999">1k</text>
<line x1="462.7" y1="60" x2="462.7" y2="198" stroke="#f4f4f4"/>
<text x="462.7" y="209" text-anchor="middle" font-size="8" fill="#999">2k</text>
<line x1="463.5" y1="60" x2="463.5" y2="198" stroke="#f4f4f4"/>
<text x="463.5" y="209" text-anchor="middle" font-size="8" fill="#999">2k</text>
<line x1="486.0" y1="60" x2="486.0" y2="198" stroke="#f4f4f4"/>
<text x="486.0" y="209" text-anchor="middle" font-size="8" fill="#999">4k</text>
<rect x="506" y="60" width="210" height="138" fill="none" stroke="#e2e2e2"/>
<line x1="506" y1="168.7638151298038" x2="716" y2="168.7638151298038" stroke="#d33" stroke-dasharray="4 3"/>
<text x="502" y="201.0" text-anchor="end" font-size="9" fill="#999">0.5×</text>
<text x="502" y="171.7638151298038" text-anchor="end" font-size="9" fill="#999">1.0×</text>
<polygon points="506.0,68.3 552.7,157.3 567.7,168.5 591.0,170.1 599.3,163.8 622.7,171.4 646.0,171.9 668.5,170.2 669.3,169.8 692.7,171.1 693.5,171.9 716.0,171.2 716.0,171.6 693.5,173.2 692.7,172.5 669.3,172.5 668.5,172.9 646.0,172.2 622.7,171.9 599.3,166.7 591.0,172.7 567.7,169.9 552.7,158.2 506.0,70.1" fill="#d62728" opacity="0.11"/>
<polyline points="506.0,68.5 552.7,157.8 567.7,169.5 591.0,170.8 599.3,166.4 622.7,171.7 646.0,172.0 668.5,172.8 669.3,172.3 692.7,172.3 693.5,173.1 716.0,171.4" fill="none" stroke="#d62728" stroke-width="1.6"/>
<circle cx="506.0" cy="68.5" r="2" fill="#d62728"/>
<circle cx="552.7" cy="157.8" r="2" fill="#d62728"/>
<circle cx="567.7" cy="169.5" r="2" fill="#d62728"/>
<circle cx="591.0" cy="170.8" r="2" fill="#d62728"/>
<circle cx="599.3" cy="166.4" r="2" fill="#d62728"/>
<circle cx="622.7" cy="171.7" r="2" fill="#d62728"/>
<circle cx="646.0" cy="172.0" r="2" fill="#d62728"/>
<circle cx="668.5" cy="172.8" r="2" fill="#d62728"/>
<circle cx="669.3" cy="172.3" r="2" fill="#d62728"/>
<circle cx="692.7" cy="172.3" r="2" fill="#d62728"/>
<circle cx="693.5" cy="173.1" r="2" fill="#d62728"/>
<circle cx="716.0" cy="171.4" r="2" fill="#d62728"/>
<polygon points="506.0,63.2 552.7,141.4 567.7,165.9 591.0,169.7 599.3,168.1 622.7,163.1 646.0,166.2 668.5,167.2 669.3,167.3 692.7,170.0 693.5,168.7 716.0,171.1 716.0,172.6 693.5,168.7 692.7,170.4 669.3,167.5 668.5,167.3 646.0,166.3 622.7,163.6 599.3,168.5 591.0,170.2 567.7,166.8 552.7,142.7 506.0,63.9" fill="#1f77b4" opacity="0.11"/>
<polyline points="506.0,63.4 552.7,141.8 567.7,166.4 591.0,170.0 599.3,168.3 622.7,163.4 646.0,166.3 668.5,167.2 669.3,167.4 692.7,170.3 693.5,168.7 716.0,171.8" fill="none" stroke="#1f77b4" stroke-width="1.6"/>
<circle cx="506.0" cy="63.4" r="2" fill="#1f77b4"/>
<circle cx="552.7" cy="141.8" r="2" fill="#1f77b4"/>
<circle cx="567.7" cy="166.4" r="2" fill="#1f77b4"/>
<circle cx="591.0" cy="170.0" r="2" fill="#1f77b4"/>
<circle cx="599.3" cy="168.3" r="2" fill="#1f77b4"/>
<circle cx="622.7" cy="163.4" r="2" fill="#1f77b4"/>
<circle cx="646.0" cy="166.3" r="2" fill="#1f77b4"/>
<circle cx="668.5" cy="167.2" r="2" fill="#1f77b4"/>
<circle cx="669.3" cy="167.4" r="2" fill="#1f77b4"/>
<circle cx="692.7" cy="170.3" r="2" fill="#1f77b4"/>
<circle cx="693.5" cy="168.7" r="2" fill="#1f77b4"/>
<circle cx="716.0" cy="171.8" r="2" fill="#1f77b4"/>
<polygon points="506.0,77.3 552.7,151.1 567.7,170.1 591.0,170.9 599.3,169.1 622.7,163.4 646.0,166.4 668.5,167.7 669.3,167.8 692.7,169.5 693.5,169.1 716.0,170.7 716.0,170.8 693.5,169.1 692.7,169.7 669.3,167.9 668.5,167.8 646.0,166.5 622.7,164.2 599.3,170.5 591.0,171.6 567.7,171.4 552.7,152.9 506.0,79.8" fill="#2ca02c" opacity="0.11"/>
<polyline points="506.0,78.0 552.7,152.0 567.7,170.4 591.0,171.4 599.3,170.1 622.7,164.0 646.0,166.5 668.5,167.8 669.3,167.9 692.7,169.6 693.5,169.1 716.0,170.7" fill="none" stroke="#2ca02c" stroke-width="1.6"/>
<circle cx="506.0" cy="78.0" r="2" fill="#2ca02c"/>
<circle cx="552.7" cy="152.0" r="2" fill="#2ca02c"/>
<circle cx="567.7" cy="170.4" r="2" fill="#2ca02c"/>
<circle cx="591.0" cy="171.4" r="2" fill="#2ca02c"/>
<circle cx="599.3" cy="170.1" r="2" fill="#2ca02c"/>
<circle cx="622.7" cy="164.0" r="2" fill="#2ca02c"/>
<circle cx="646.0" cy="166.5" r="2" fill="#2ca02c"/>
<circle cx="668.5" cy="167.8" r="2" fill="#2ca02c"/>
<circle cx="669.3" cy="167.9" r="2" fill="#2ca02c"/>
<circle cx="692.7" cy="169.6" r="2" fill="#2ca02c"/>
<circle cx="693.5" cy="169.1" r="2" fill="#2ca02c"/>
<circle cx="716.0" cy="170.7" r="2" fill="#2ca02c"/>
<text x="611.0" y="55" text-anchor="middle" font-size="12" font-weight="bold">syrk</text>
<line x1="506.0" y1="60" x2="506.0" y2="198" stroke="#f4f4f4"/>
<text x="506.0" y="209" text-anchor="middle" font-size="8" fill="#999">8</text>
<line x1="552.7" y1="60" x2="552.7" y2="198" stroke="#f4f4f4"/>
<text x="552.7" y="209" text-anchor="middle" font-size="8" fill="#999">32</text>
<line x1="567.7" y1="60" x2="567.7" y2="198" stroke="#f4f4f4"/>
<text x="567.7" y="209" text-anchor="middle" font-size="8" fill="#999">50</text>
<line x1="591.0" y1="60" x2="591.0" y2="198" stroke="#f4f4f4"/>
<text x="591.0" y="209" text-anchor="middle" font-size="8" fill="#999">100</text>
<line x1="599.3" y1="60" x2="599.3" y2="198" stroke="#f4f4f4"/>
<text x="599.3" y="209" text-anchor="middle" font-size="8" fill="#999">128</text>
<line x1="622.7" y1="60" x2="622.7" y2="198" stroke="#f4f4f4"/>
<text x="622.7" y="209" text-anchor="middle" font-size="8" fill="#999">256</text>
<line x1="646.0" y1="60" x2="646.0" y2="198" stroke="#f4f4f4"/>
<text x="646.0" y="209" text-anchor="middle" font-size="8" fill="#999">512</text>
<line x1="668.5" y1="60" x2="668.5" y2="198" stroke="#f4f4f4"/>
<text x="668.5" y="209" text-anchor="middle" font-size="8" fill="#999">1000</text>
<line x1="669.3" y1="60" x2="669.3" y2="198" stroke="#f4f4f4"/>
<text x="669.3" y="209" text-anchor="middle" font-size="8" fill="#999">1k</text>
<line x1="692.7" y1="60" x2="692.7" y2="198" stroke="#f4f4f4"/>
<text x="692.7" y="209" text-anchor="middle" font-size="8" fill="#999">2k</text>
<line x1="693.5" y1="60" x2="693.5" y2="198" stroke="#f4f4f4"/>
<text x="693.5" y="209" text-anchor="middle" font-size="8" fill="#999">2k</text>
<line x1="716.0" y1="60" x2="716.0" y2="198" stroke="#f4f4f4"/>
<text x="716.0" y="209" text-anchor="middle" font-size="8" fill="#999">4k</text>
<rect x="736" y="60" width="210" height="138" fill="none" stroke="#e2e2e2"/>
<line x1="736" y1="177.49425294668993" x2="946" y2="177.49425294668993" stroke="#d33" stroke-dasharray="4 3"/>
<text x="732" y="201.0" text-anchor="end" font-size="9" fill="#999">0.5×</text>
<text x="732" y="180.49425294668993" text-anchor="end" font-size="9" fill="#999">1.0×</text>
<polygon points="736.0,68.3 782.7,137.5 797.7,156.1 821.0,170.5 829.3,172.7 852.7,179.0 876.0,177.2 898.5,178.3 899.3,178.1 922.7,178.9 923.5,179.4 946.0,179.0 946.0,179.3 923.5,180.3 922.7,180.0 899.3,180.0 898.5,180.2 876.0,179.5 852.7,179.3 829.3,173.1 821.0,170.9 797.7,158.4 782.7,141.9 736.0,72.8" fill="#d62728" opacity="0.11"/>
<polyline points="736.0,68.6 782.7,138.2 797.7,156.8 821.0,170.6 829.3,172.8 852.7,179.1 876.0,179.4 898.5,180.2 899.3,179.9 922.7,179.9 923.5,180.0 946.0,179.1" fill="none" stroke="#d62728" stroke-width="1.6"/>
<circle cx="736.0" cy="68.6" r="2" fill="#d62728"/>
<circle cx="782.7" cy="138.2" r="2" fill="#d62728"/>
<circle cx="797.7" cy="156.8" r="2" fill="#d62728"/>
<circle cx="821.0" cy="170.6" r="2" fill="#d62728"/>
<circle cx="829.3" cy="172.8" r="2" fill="#d62728"/>
<circle cx="852.7" cy="179.1" r="2" fill="#d62728"/>
<circle cx="876.0" cy="179.4" r="2" fill="#d62728"/>
<circle cx="898.5" cy="180.2" r="2" fill="#d62728"/>
<circle cx="899.3" cy="179.9" r="2" fill="#d62728"/>
<circle cx="922.7" cy="179.9" r="2" fill="#d62728"/>
<circle cx="923.5" cy="180.0" r="2" fill="#d62728"/>
<circle cx="946.0" cy="179.1" r="2" fill="#d62728"/>
<polygon points="736.0,62.6 782.7,139.5 797.7,155.8 821.0,167.2 829.3,169.6 852.7,172.8 876.0,175.2 898.5,176.1 899.3,176.1 922.7,178.0 923.5,177.2 946.0,178.4 946.0,179.3 923.5,177.2 922.7,178.2 899.3,176.2 898.5,176.2 876.0,175.4 852.7,173.8 829.3,170.1 821.0,167.4 797.7,156.5 782.7,141.1 736.0,64.3" fill="#1f77b4" opacity="0.11"/>
<polyline points="736.0,63.2 782.7,139.8 797.7,156.0 821.0,167.3 829.3,170.0 852.7,173.5 876.0,175.3 898.5,176.1 899.3,176.2 922.7,178.1 923.5,177.2 946.0,178.9" fill="none" stroke="#1f77b4" stroke-width="1.6"/>
<circle cx="736.0" cy="63.2" r="2" fill="#1f77b4"/>
<circle cx="782.7" cy="139.8" r="2" fill="#1f77b4"/>
<circle cx="797.7" cy="156.0" r="2" fill="#1f77b4"/>
<circle cx="821.0" cy="167.3" r="2" fill="#1f77b4"/>
<circle cx="829.3" cy="170.0" r="2" fill="#1f77b4"/>
<circle cx="852.7" cy="173.5" r="2" fill="#1f77b4"/>
<circle cx="876.0" cy="175.3" r="2" fill="#1f77b4"/>
<circle cx="898.5" cy="176.1" r="2" fill="#1f77b4"/>
<circle cx="899.3" cy="176.2" r="2" fill="#1f77b4"/>
<circle cx="922.7" cy="178.1" r="2" fill="#1f77b4"/>
<circle cx="923.5" cy="177.2" r="2" fill="#1f77b4"/>
<circle cx="946.0" cy="178.9" r="2" fill="#1f77b4"/>
<polygon points="736.0,62.3 782.7,138.6 797.7,156.5 821.0,168.1 829.3,170.7 852.7,174.0 876.0,176.3 898.5,176.8 899.3,176.6 922.7,178.2 923.5,177.6 946.0,178.7 946.0,178.7 923.5,177.7 922.7,178.2 899.3,176.9 898.5,176.9 876.0,176.5 852.7,174.7 829.3,171.3 821.0,168.8 797.7,158.1 782.7,141.1 736.0,63.9" fill="#2ca02c" opacity="0.11"/>
<polyline points="736.0,62.7 782.7,138.9 797.7,156.9 821.0,168.5 829.3,171.1 852.7,174.6 876.0,176.5 898.5,176.9 899.3,176.7 922.7,178.2 923.5,177.7 946.0,178.7" fill="none" stroke="#2ca02c" stroke-width="1.6"/>
<circle cx="736.0" cy="62.7" r="2" fill="#2ca02c"/>
<circle cx="782.7" cy="138.9" r="2" fill="#2ca02c"/>
<circle cx="797.7" cy="156.9" r="2" fill="#2ca02c"/>
<circle cx="821.0" cy="168.5" r="2" fill="#2ca02c"/>
<circle cx="829.3" cy="171.1" r="2" fill="#2ca02c"/>
<circle cx="852.7" cy="174.6" r="2" fill="#2ca02c"/>
<circle cx="876.0" cy="176.5" r="2" fill="#2ca02c"/>
<circle cx="898.5" cy="176.9" r="2" fill="#2ca02c"/>
<circle cx="899.3" cy="176.7" r="2" fill="#2ca02c"/>
<circle cx="922.7" cy="178.2" r="2" fill="#2ca02c"/>
<circle cx="923.5" cy="177.7" r="2" fill="#2ca02c"/>
<circle cx="946.0" cy="178.7" r="2" fill="#2ca02c"/>
<text x="841.0" y="55" text-anchor="middle" font-size="12" font-weight="bold">syr2k</text>
<line x1="736.0" y1="60" x2="736.0" y2="198" stroke="#f4f4f4"/>
<text x="736.0" y="209" text-anchor="middle" font-size="8" fill="#999">8</text>
<line x1="782.7" y1="60" x2="782.7" y2="198" stroke="#f4f4f4"/>
<text x="782.7" y="209" text-anchor="middle" font-size="8" fill="#999">32</text>
<line x1="797.7" y1="60" x2="797.7" y2="198" stroke="#f4f4f4"/>
<text x="797.7" y="209" text-anchor="middle" font-size="8" fill="#999">50</text>
<line x1="821.0" y1="60" x2="821.0" y2="198" stroke="#f4f4f4"/>
<text x="821.0" y="209" text-anchor="middle" font-size="8" fill="#999">100</text>
<line x1="829.3" y1="60" x2="829.3" y2="198" stroke="#f4f4f4"/>
<text x="829.3" y="209" text-anchor="middle" font-size="8" fill="#999">128</text>
<line x1="852.7" y1="60" x2="852.7" y2="198" stroke="#f4f4f4"/>
<text x="852.7" y="209" text-anchor="middle" font-size="8" fill="#999">256</text>
<line x1="876.0" y1="60" x2="876.0" y2="198" stroke="#f4f4f4"/>
<text x="876.0" y="209" text-anchor="middle" font-size="8" fill="#999">512</text>
<line x1="898.5" y1="60" x2="898.5" y2="198" stroke="#f4f4f4"/>
<text x="898.5" y="209" text-anchor="middle" font-size="8" fill="#999">1000</text>
<line x1="899.3" y1="60" x2="899.3" y2="198" stroke="#f4f4f4"/>
<text x="899.3" y="209" text-anchor="middle" font-size="8" fill="#999">1k</text>
<line x1="922.7" y1="60" x2="922.7" y2="198" stroke="#f4f4f4"/>
<text x="922.7" y="209" text-anchor="middle" font-size="8" fill="#999">2k</text>
<line x1="923.5" y1="60" x2="923.5" y2="198" stroke="#f4f4f4"/>
<text x="923.5" y="209" text-anchor="middle" font-size="8" fill="#999">2k</text>
<line x1="946.0" y1="60" x2="946.0" y2="198" stroke="#f4f4f4"/>
<text x="946.0" y="209" text-anchor="middle" font-size="8" fill="#999">4k</text>
<rect x="46" y="232" width="210" height="138" fill="none" stroke="#e2e2e2"/>
<line x1="46" y1="348.16266173911345" x2="256" y2="348.16266173911345" stroke="#d33" stroke-dasharray="4 3"/>
<text x="42" y="373.0" text-anchor="end" font-size="9" fill="#999">0.5×</text>
<text x="42" y="351.16266173911345" text-anchor="end" font-size="9" fill="#999">1.0×</text>
<text x="42" y="235.00109911307345" text-anchor="end" font-size="9" fill="#999">39.93×</text>
<polygon points="46.0,234.6 92.7,305.8 107.7,328.0 131.0,341.3 139.3,348.9 162.7,348.5 186.0,349.7 208.5,349.4 209.3,349.3 232.7,348.3 233.5,349.0 256.0,346.3 256.0,346.4 233.5,349.1 232.7,348.5 209.3,349.3 208.5,349.4 186.0,349.7 162.7,349.6 139.3,351.5 131.0,349.0 107.7,335.1 92.7,312.7 46.0,235.7" fill="#d62728" opacity="0.11"/>
<polyline points="46.0,235.0 92.7,311.3 107.7,332.4 131.0,341.7 139.3,349.2 162.7,348.6 186.0,349.7 208.5,349.4 209.3,349.3 232.7,348.4 233.5,349.0 256.0,346.3" fill="none" stroke="#d62728" stroke-width="1.6"/>
<circle cx="46.0" cy="235.0" r="2" fill="#d62728"/>
<circle cx="92.7" cy="311.3" r="2" fill="#d62728"/>
<circle cx="107.7" cy="332.4" r="2" fill="#d62728"/>
<circle cx="131.0" cy="341.7" r="2" fill="#d62728"/>
<circle cx="139.3" cy="349.2" r="2" fill="#d62728"/>
<circle cx="162.7" cy="348.6" r="2" fill="#d62728"/>
<circle cx="186.0" cy="349.7" r="2" fill="#d62728"/>
<circle cx="208.5" cy="349.4" r="2" fill="#d62728"/>
<circle cx="209.3" cy="349.3" r="2" fill="#d62728"/>
<circle cx="232.7" cy="348.4" r="2" fill="#d62728"/>
<circle cx="233.5" cy="349.0" r="2" fill="#d62728"/>
<circle cx="256.0" cy="346.3" r="2" fill="#d62728"/>
<polygon points="46.0,235.7 92.7,311.2 107.7,327.3 131.0,341.4 139.3,341.7 162.7,345.0 186.0,348.9 208.5,349.9 209.3,348.8 232.7,349.4 233.5,350.0 256.0,346.6 256.0,346.7 233.5,350.1 232.7,349.5 209.3,349.2 208.5,350.0 186.0,349.1 162.7,345.3 139.3,342.2 131.0,341.8 107.7,328.1 92.7,313.6 46.0,236.4" fill="#1f77b4" opacity="0.11"/>
<polyline points="46.0,235.8 92.7,312.1 107.7,327.6 131.0,341.6 139.3,342.0 162.7,345.2 186.0,349.0 208.5,350.0 209.3,349.0 232.7,349.5 233.5,350.1 256.0,346.6" fill="none" stroke="#1f77b4" stroke-width="1.6"/>
<circle cx="46.0" cy="235.8" r="2" fill="#1f77b4"/>
<circle cx="92.7" cy="312.1" r="2" fill="#1f77b4"/>
<circle cx="107.7" cy="327.6" r="2" fill="#1f77b4"/>
<circle cx="131.0" cy="341.6" r="2" fill="#1f77b4"/>
<circle cx="139.3" cy="342.0" r="2" fill="#1f77b4"/>
<circle cx="162.7" cy="345.2" r="2" fill="#1f77b4"/>
<circle cx="186.0" cy="349.0" r="2" fill="#1f77b4"/>
<circle cx="208.5" cy="350.0" r="2" fill="#1f77b4"/>
<circle cx="209.3" cy="349.0" r="2" fill="#1f77b4"/>
<circle cx="232.7" cy="349.5" r="2" fill="#1f77b4"/>
<circle cx="233.5" cy="350.1" r="2" fill="#1f77b4"/>
<circle cx="256.0" cy="346.6" r="2" fill="#1f77b4"/>
<polygon points="46.0,234.4 92.7,310.8 107.7,327.7 131.0,340.9 139.3,342.4 162.7,345.1 186.0,346.8 208.5,348.1 209.3,347.3 232.7,347.8 233.5,348.5 256.0,345.0 256.0,345.2 233.5,348.6 232.7,348.1 209.3,347.5 208.5,348.2 186.0,346.9 162.7,345.6 139.3,342.9 131.0,341.4 107.7,329.9 92.7,315.7 46.0,238.1" fill="#2ca02c" opacity="0.11"/>
<polyline points="46.0,235.3 92.7,311.2 107.7,328.2 131.0,341.1 139.3,342.7 162.7,345.4 186.0,346.9 208.5,348.2 209.3,347.4 232.7,348.0 233.5,348.5 256.0,345.1" fill="none" stroke="#2ca02c" stroke-width="1.6"/>
<circle cx="46.0" cy="235.3" r="2" fill="#2ca02c"/>
<circle cx="92.7" cy="311.2" r="2" fill="#2ca02c"/>
<circle cx="107.7" cy="328.2" r="2" fill="#2ca02c"/>
<circle cx="131.0" cy="341.1" r="2" fill="#2ca02c"/>
<circle cx="139.3" cy="342.7" r="2" fill="#2ca02c"/>
<circle cx="162.7" cy="345.4" r="2" fill="#2ca02c"/>
<circle cx="186.0" cy="346.9" r="2" fill="#2ca02c"/>
<circle cx="208.5" cy="348.2" r="2" fill="#2ca02c"/>
<circle cx="209.3" cy="347.4" r="2" fill="#2ca02c"/>
<circle cx="232.7" cy="348.0" r="2" fill="#2ca02c"/>
<circle cx="233.5" cy="348.5" r="2" fill="#2ca02c"/>
<circle cx="256.0" cy="345.1" r="2" fill="#2ca02c"/>
<text x="151.0" y="227" text-anchor="middle" font-size="12" font-weight="bold">trmm</text>
<line x1="46.0" y1="232" x2="46.0" y2="370" stroke="#f4f4f4"/>
<text x="46.0" y="381" text-anchor="middle" font-size="8" fill="#999">8</text>
<line x1="92.7" y1="232" x2="92.7" y2="370" stroke="#f4f4f4"/>
<text x="92.7" y="381" text-anchor="middle" font-size="8" fill="#999">32</text>
<line x1="107.7" y1="232" x2="107.7" y2="370" stroke="#f4f4f4"/>
<text x="107.7" y="381" text-anchor="middle" font-size="8" fill="#999">50</text>
<line x1="131.0" y1="232" x2="131.0" y2="370" stroke="#f4f4f4"/>
<text x="131.0" y="381" text-anchor="middle" font-size="8" fill="#999">100</text>
<line x1="139.3" y1="232" x2="139.3" y2="370" stroke="#f4f4f4"/>
<text x="139.3" y="381" text-anchor="middle" font-size="8" fill="#999">128</text>
<line x1="162.7" y1="232" x2="162.7" y2="370" stroke="#f4f4f4"/>
<text x="162.7" y="381" text-anchor="middle" font-size="8" fill="#999">256</text>
<line x1="186.0" y1="232" x2="186.0" y2="370" stroke="#f4f4f4"/>
<text x="186.0" y="381" text-anchor="middle" font-size="8" fill="#999">512</text>
<line x1="208.5" y1="232" x2="208.5" y2="370" stroke="#f4f4f4"/>
<text x="208.5" y="381" text-anchor="middle" font-size="8" fill="#999">1000</text>
<line x1="209.3" y1="232" x2="209.3" y2="370" stroke="#f4f4f4"/>
<text x="209.3" y="381" text-anchor="middle" font-size="8" fill="#999">1k</text>
<line x1="232.7" y1="232" x2="232.7" y2="370" stroke="#f4f4f4"/>
<text x="232.7" y="381" text-anchor="middle" font-size="8" fill="#999">2k</text>
<line x1="233.5" y1="232" x2="233.5" y2="370" stroke="#f4f4f4"/>
<text x="233.5" y="381" text-anchor="middle" font-size="8" fill="#999">2k</text>
<line x1="256.0" y1="232" x2="256.0" y2="370" stroke="#f4f4f4"/>
<text x="256.0" y="381" text-anchor="middle" font-size="8" fill="#999">4k</text>
<rect x="276" y="232" width="210" height="138" fill="none" stroke="#e2e2e2"/>
<line x1="276" y1="315.200000233262" x2="486" y2="315.200000233262" stroke="#d33" stroke-dasharray="4 3"/>
<text x="272" y="373.0" text-anchor="end" font-size="9" fill="#999">0.5×</text>
<text x="272" y="318.200000233262" text-anchor="end" font-size="9" fill="#999">1.0×</text>
<text x="272" y="235.12237053108998" text-anchor="end" font-size="9" fill="#999">2.86×</text>
<polygon points="276.0,238.1 322.7,286.7 337.7,286.2 361.0,303.5 369.3,309.6 392.7,314.5 416.0,311.8 438.5,315.5 439.3,311.8 462.7,311.0 463.5,315.4 486.0,307.2 486.0,307.5 463.5,315.4 462.7,311.3 439.3,312.0 438.5,315.8 416.0,312.5 392.7,318.0 369.3,325.4 361.0,318.7 337.7,310.7 322.7,327.5 276.0,241.7" fill="#d62728" opacity="0.11"/>
<polyline points="276.0,239.1 322.7,307.2 337.7,305.6 361.0,305.2 369.3,311.3 392.7,315.4 416.0,312.2 438.5,315.6 439.3,311.9 462.7,311.2 463.5,315.4 486.0,307.3" fill="none" stroke="#d62728" stroke-width="1.6"/>
<circle cx="276.0" cy="239.1" r="2" fill="#d62728"/>
<circle cx="322.7" cy="307.2" r="2" fill="#d62728"/>
<circle cx="337.7" cy="305.6" r="2" fill="#d62728"/>
<circle cx="361.0" cy="305.2" r="2" fill="#d62728"/>
<circle cx="369.3" cy="311.3" r="2" fill="#d62728"/>
<circle cx="392.7" cy="315.4" r="2" fill="#d62728"/>
<circle cx="416.0" cy="312.2" r="2" fill="#d62728"/>
<circle cx="438.5" cy="315.6" r="2" fill="#d62728"/>
<circle cx="439.3" cy="311.9" r="2" fill="#d62728"/>
<circle cx="462.7" cy="311.2" r="2" fill="#d62728"/>
<circle cx="463.5" cy="315.4" r="2" fill="#d62728"/>
<circle cx="486.0" cy="307.3" r="2" fill="#d62728"/>
<polygon points="276.0,296.7 322.7,299.9 337.7,303.3 361.0,323.4 369.3,316.2 392.7,316.9 416.0,318.5 438.5,321.8 439.3,317.7 462.7,312.4 463.5,316.2 486.0,304.1 486.0,305.3 463.5,316.3 462.7,313.5 439.3,318.2 438.5,322.1 416.0,318.9 392.7,317.4 369.3,318.1 361.0,324.8 337.7,307.6 322.7,310.4 276.0,298.2" fill="#1f77b4" opacity="0.11"/>
<polyline points="276.0,297.5 322.7,306.3 337.7,305.8 361.0,324.5 369.3,317.4 392.7,317.2 416.0,318.8 438.5,322.0 439.3,317.9 462.7,313.3 463.5,316.2 486.0,304.8" fill="none" stroke="#1f77b4" stroke-width="1.6"/>
<circle cx="276.0" cy="297.5" r="2" fill="#1f77b4"/>
<circle cx="322.7" cy="306.3" r="2" fill="#1f77b4"/>
<circle cx="337.7" cy="305.8" r="2" fill="#1f77b4"/>
<circle cx="361.0" cy="324.5" r="2" fill="#1f77b4"/>
<circle cx="369.3" cy="317.4" r="2" fill="#1f77b4"/>
<circle cx="392.7" cy="317.2" r="2" fill="#1f77b4"/>
<circle cx="416.0" cy="318.8" r="2" fill="#1f77b4"/>
<circle cx="438.5" cy="322.0" r="2" fill="#1f77b4"/>
<circle cx="439.3" cy="317.9" r="2" fill="#1f77b4"/>
<circle cx="462.7" cy="313.3" r="2" fill="#1f77b4"/>
<circle cx="463.5" cy="316.2" r="2" fill="#1f77b4"/>
<circle cx="486.0" cy="304.8" r="2" fill="#1f77b4"/>
<polygon points="276.0,284.4 322.7,304.7 337.7,317.1 361.0,319.5 369.3,303.7 392.7,310.6 416.0,311.0 438.5,314.6 439.3,311.4 462.7,310.1 463.5,312.2 486.0,303.4 486.0,304.0 463.5,312.4 462.7,310.4 439.3,312.2 438.5,315.0 416.0,311.6 392.7,311.1 369.3,304.6 361.0,320.9 337.7,323.9 322.7,312.5 276.0,287.4" fill="#2ca02c" opacity="0.11"/>
<polyline points="276.0,286.0 322.7,306.6 337.7,319.7 361.0,320.2 369.3,304.2 392.7,311.0 416.0,311.4 438.5,314.7 439.3,311.7 462.7,310.3 463.5,312.2 486.0,303.8" fill="none" stroke="#2ca02c" stroke-width="1.6"/>
<circle cx="276.0" cy="286.0" r="2" fill="#2ca02c"/>
<circle cx="322.7" cy="306.6" r="2" fill="#2ca02c"/>
<circle cx="337.7" cy="319.7" r="2" fill="#2ca02c"/>
<circle cx="361.0" cy="320.2" r="2" fill="#2ca02c"/>
<circle cx="369.3" cy="304.2" r="2" fill="#2ca02c"/>
<circle cx="392.7" cy="311.0" r="2" fill="#2ca02c"/>
<circle cx="416.0" cy="311.4" r="2" fill="#2ca02c"/>
<circle cx="438.5" cy="314.7" r="2" fill="#2ca02c"/>
<circle cx="439.3" cy="311.7" r="2" fill="#2ca02c"/>
<circle cx="462.7" cy="310.3" r="2" fill="#2ca02c"/>
<circle cx="463.5" cy="312.2" r="2" fill="#2ca02c"/>
<circle cx="486.0" cy="303.8" r="2" fill="#2ca02c"/>
<text x="381.0" y="227" text-anchor="middle" font-size="12" font-weight="bold">trsm</text>
<line x1="276.0" y1="232" x2="276.0" y2="370" stroke="#f4f4f4"/>
<text x="276.0" y="381" text-anchor="middle" font-size="8" fill="#999">8</text>
<line x1="322.7" y1="232" x2="322.7" y2="370" stroke="#f4f4f4"/>
<text x="322.7" y="381" text-anchor="middle" font-size="8" fill="#999">32</text>
<line x1="337.7" y1="232" x2="337.7" y2="370" stroke="#f4f4f4"/>
<text x="337.7" y="381" text-anchor="middle" font-size="8" fill="#999">50</text>
<line x1="361.0" y1="232" x2="361.0" y2="370" stroke="#f4f4f4"/>
<text x="361.0" y="381" text-anchor="middle" font-size="8" fill="#999">100</text>
<line x1="369.3" y1="232" x2="369.3" y2="370" stroke="#f4f4f4"/>
<text x="369.3" y="381" text-anchor="middle" font-size="8" fill="#999">128</text>
<line x1="392.7" y1="232" x2="392.7" y2="370" stroke="#f4f4f4"/>
<text x="392.7" y="381" text-anchor="middle" font-size="8" fill="#999">256</text>
<line x1="416.0" y1="232" x2="416.0" y2="370" stroke="#f4f4f4"/>
<text x="416.0" y="381" text-anchor="middle" font-size="8" fill="#999">512</text>
<line x1="438.5" y1="232" x2="438.5" y2="370" stroke="#f4f4f4"/>
<text x="438.5" y="381" text-anchor="middle" font-size="8" fill="#999">1000</text>
<line x1="439.3" y1="232" x2="439.3" y2="370" stroke="#f4f4f4"/>
<text x="439.3" y="381" text-anchor="middle" font-size="8" fill="#999">1k</text>
<line x1="462.7" y1="232" x2="462.7" y2="370" stroke="#f4f4f4"/>
<text x="462.7" y="381" text-anchor="middle" font-size="8" fill="#999">2k</text>
<line x1="463.5" y1="232" x2="463.5" y2="370" stroke="#f4f4f4"/>
<text x="463.5" y="381" text-anchor="middle" font-size="8" fill="#999">2k</text>
<line x1="486.0" y1="232" x2="486.0" y2="370" stroke="#f4f4f4"/>
<text x="486.0" y="381" text-anchor="middle" font-size="8" fill="#999">4k</text>
<rect x="506" y="232" width="210" height="138" fill="none" stroke="#e2e2e2"/>
<line x1="506" y1="315.6047924246109" x2="716" y2="315.6047924246109" stroke="#d33" stroke-dasharray="4 3"/>
<text x="502" y="373.0" text-anchor="end" font-size="9" fill="#999">0.5×</text>
<text x="502" y="318.6047924246109" text-anchor="end" font-size="9" fill="#999">1.0×</text>
<text x="502" y="235.05087606926625" text-anchor="end" font-size="9" fill="#999">2.9×</text>
<polygon points="506.0,253.0 552.7,307.9 567.7,296.3 591.0,302.6 599.3,311.7 622.7,308.4 646.0,281.3 668.5,317.7 669.3,275.8 692.7,314.2 693.5,316.3 716.0,309.5 716.0,309.9 693.5,316.7 692.7,314.6 669.3,276.5 668.5,318.9 646.0,283.0 622.7,309.6 599.3,326.5 591.0,324.5 567.7,315.0 552.7,339.6 506.0,255.3" fill="#d62728" opacity="0.11"/>
<polyline points="506.0,253.9 552.7,324.9 567.7,313.2 591.0,313.4 599.3,313.5 622.7,309.1 646.0,282.2 668.5,318.6 669.3,276.3 692.7,314.5 693.5,316.5 716.0,309.7" fill="none" stroke="#d62728" stroke-width="1.6"/>
<circle cx="506.0" cy="253.9" r="2" fill="#d62728"/>
<circle cx="552.7" cy="324.9" r="2" fill="#d62728"/>
<circle cx="567.7" cy="313.2" r="2" fill="#d62728"/>
<circle cx="591.0" cy="313.4" r="2" fill="#d62728"/>
<circle cx="599.3" cy="313.5" r="2" fill="#d62728"/>
<circle cx="622.7" cy="309.1" r="2" fill="#d62728"/>
<circle cx="646.0" cy="282.2" r="2" fill="#d62728"/>
<circle cx="668.5" cy="318.6" r="2" fill="#d62728"/>
<circle cx="669.3" cy="276.3" r="2" fill="#d62728"/>
<circle cx="692.7" cy="314.5" r="2" fill="#d62728"/>
<circle cx="693.5" cy="316.5" r="2" fill="#d62728"/>
<circle cx="716.0" cy="309.7" r="2" fill="#d62728"/>
<polygon points="506.0,254.5 552.7,304.8 567.7,304.4 591.0,313.3 599.3,311.9 622.7,313.8 646.0,260.1 668.5,323.3 669.3,281.8 692.7,315.3 693.5,317.7 716.0,308.4 716.0,309.7 693.5,317.9 692.7,315.5 669.3,283.9 668.5,323.6 646.0,272.5 622.7,314.2 599.3,312.4 591.0,313.8 567.7,308.7 552.7,313.0 506.0,256.3" fill="#1f77b4" opacity="0.11"/>
<polyline points="506.0,255.4 552.7,309.6 567.7,307.1 591.0,313.6 599.3,312.1 622.7,314.0 646.0,261.4 668.5,323.5 669.3,283.2 692.7,315.4 693.5,317.8 716.0,309.3" fill="none" stroke="#1f77b4" stroke-width="1.6"/>
<circle cx="506.0" cy="255.4" r="2" fill="#1f77b4"/>
<circle cx="552.7" cy="309.6" r="2" fill="#1f77b4"/>
<circle cx="567.7" cy="307.1" r="2" fill="#1f77b4"/>
<circle cx="591.0" cy="313.6" r="2" fill="#1f77b4"/>
<circle cx="599.3" cy="312.1" r="2" fill="#1f77b4"/>
<circle cx="622.7" cy="314.0" r="2" fill="#1f77b4"/>
<circle cx="646.0" cy="261.4" r="2" fill="#1f77b4"/>
<circle cx="668.5" cy="323.5" r="2" fill="#1f77b4"/>
<circle cx="669.3" cy="283.2" r="2" fill="#1f77b4"/>
<circle cx="692.7" cy="315.4" r="2" fill="#1f77b4"/>
<circle cx="693.5" cy="317.8" r="2" fill="#1f77b4"/>
<circle cx="716.0" cy="309.3" r="2" fill="#1f77b4"/>
<polygon points="506.0,238.0 552.7,312.4 567.7,300.6 591.0,305.6 599.3,308.2 622.7,313.2 646.0,315.8 668.5,318.5 669.3,316.1 692.7,313.3 693.5,315.2 716.0,306.8 716.0,307.1 693.5,315.5 692.7,313.9 669.3,316.9 668.5,319.0 646.0,316.4 622.7,313.8 599.3,308.9 591.0,307.2 567.7,307.6 552.7,321.5 506.0,245.2" fill="#2ca02c" opacity="0.11"/>
<polyline points="506.0,238.9 552.7,313.5 567.7,303.0 591.0,306.5 599.3,308.7 622.7,313.4 646.0,316.3 668.5,318.6 669.3,316.6 692.7,313.7 693.5,315.4 716.0,306.9" fill="none" stroke="#2ca02c" stroke-width="1.6"/>
<circle cx="506.0" cy="238.9" r="2" fill="#2ca02c"/>
<circle cx="552.7" cy="313.5" r="2" fill="#2ca02c"/>
<circle cx="567.7" cy="303.0" r="2" fill="#2ca02c"/>
<circle cx="591.0" cy="306.5" r="2" fill="#2ca02c"/>
<circle cx="599.3" cy="308.7" r="2" fill="#2ca02c"/>
<circle cx="622.7" cy="313.4" r="2" fill="#2ca02c"/>
<circle cx="646.0" cy="316.3" r="2" fill="#2ca02c"/>
<circle cx="668.5" cy="318.6" r="2" fill="#2ca02c"/>
<circle cx="669.3" cy="316.6" r="2" fill="#2ca02c"/>
<circle cx="692.7" cy="313.7" r="2" fill="#2ca02c"/>
<circle cx="693.5" cy="315.4" r="2" fill="#2ca02c"/>
<circle cx="716.0" cy="306.9" r="2" fill="#2ca02c"/>
<text x="611.0" y="227" text-anchor="middle" font-size="12" font-weight="bold">trsmR</text>
<line x1="506.0" y1="232" x2="506.0" y2="370" stroke="#f4f4f4"/>
<text x="506.0" y="381" text-anchor="middle" font-size="8" fill="#999">8</text>
<line x1="552.7" y1="232" x2="552.7" y2="370" stroke="#f4f4f4"/>
<text x="552.7" y="381" text-anchor="middle" font-size="8" fill="#999">32</text>
<line x1="567.7" y1="232" x2="567.7" y2="370" stroke="#f4f4f4"/>
<text x="567.7" y="381" text-anchor="middle" font-size="8" fill="#999">50</text>
<line x1="591.0" y1="232" x2="591.0" y2="370" stroke="#f4f4f4"/>
<text x="591.0" y="381" text-anchor="middle" font-size="8" fill="#999">100</text>
<line x1="599.3" y1="232" x2="599.3" y2="370" stroke="#f4f4f4"/>
<text x="599.3" y="381" text-anchor="middle" font-size="8" fill="#999">128</text>
<line x1="622.7" y1="232" x2="622.7" y2="370" stroke="#f4f4f4"/>
<text x="622.7" y="381" text-anchor="middle" font-size="8" fill="#999">256</text>
<line x1="646.0" y1="232" x2="646.0" y2="370" stroke="#f4f4f4"/>
<text x="646.0" y="381" text-anchor="middle" font-size="8" fill="#999">512</text>
<line x1="668.5" y1="232" x2="668.5" y2="370" stroke="#f4f4f4"/>
<text x="668.5" y="381" text-anchor="middle" font-size="8" fill="#999">1000</text>
<line x1="669.3" y1="232" x2="669.3" y2="370" stroke="#f4f4f4"/>
<text x="669.3" y="381" text-anchor="middle" font-size="8" fill="#999">1k</text>
<line x1="692.7" y1="232" x2="692.7" y2="370" stroke="#f4f4f4"/>
<text x="692.7" y="381" text-anchor="middle" font-size="8" fill="#999">2k</text>
<line x1="693.5" y1="232" x2="693.5" y2="370" stroke="#f4f4f4"/>
<text x="693.5" y="381" text-anchor="middle" font-size="8" fill="#999">2k</text>
<line x1="716.0" y1="232" x2="716.0" y2="370" stroke="#f4f4f4"/>
<text x="716.0" y="381" text-anchor="middle" font-size="8" fill="#999">4k</text>
<rect x="736" y="232" width="210" height="138" fill="none" stroke="#e2e2e2"/>
<line x1="736" y1="348.12662212500794" x2="946" y2="348.12662212500794" stroke="#d33" stroke-dasharray="4 3"/>
<text x="732" y="373.0" text-anchor="end" font-size="9" fill="#999">0.5×</text>
<text x="732" y="351.12662212500794" text-anchor="end" font-size="9" fill="#999">1.0×</text>
<text x="732" y="235.00337316934142" text-anchor="end" font-size="9" fill="#999">39.64×</text>
<polygon points="736.0,236.9 782.7,305.1 797.7,325.9 821.0,335.8 829.3,345.4 852.7,350.8 876.0,352.8 898.5,348.9 899.3,351.1 922.7,348.8 923.5,349.1 946.0,347.9 946.0,347.9 923.5,349.2 922.7,348.9 899.3,351.1 898.5,349.0 876.0,352.9 852.7,351.1 829.3,350.3 821.0,343.5 797.7,334.6 782.7,312.8 736.0,237.9" fill="#d62728" opacity="0.11"/>
<polyline points="736.0,237.3 782.7,310.6 797.7,332.6 821.0,340.5 829.3,347.6 852.7,351.0 876.0,352.8 898.5,348.9 899.3,351.1 922.7,348.9 923.5,349.2 946.0,347.9" fill="none" stroke="#d62728" stroke-width="1.6"/>
<circle cx="736.0" cy="237.3" r="2" fill="#d62728"/>
<circle cx="782.7" cy="310.6" r="2" fill="#d62728"/>
<circle cx="797.7" cy="332.6" r="2" fill="#d62728"/>
<circle cx="821.0" cy="340.5" r="2" fill="#d62728"/>
<circle cx="829.3" cy="347.6" r="2" fill="#d62728"/>
<circle cx="852.7" cy="351.0" r="2" fill="#d62728"/>
<circle cx="876.0" cy="352.8" r="2" fill="#d62728"/>
<circle cx="898.5" cy="348.9" r="2" fill="#d62728"/>
<circle cx="899.3" cy="351.1" r="2" fill="#d62728"/>
<circle cx="922.7" cy="348.9" r="2" fill="#d62728"/>
<circle cx="923.5" cy="349.2" r="2" fill="#d62728"/>
<circle cx="946.0" cy="347.9" r="2" fill="#d62728"/>
<polygon points="736.0,236.9 782.7,308.4 797.7,324.6 821.0,340.3 829.3,340.7 852.7,344.9 876.0,348.6 898.5,350.2 899.3,349.4 922.7,349.1 923.5,349.1 946.0,349.0 946.0,349.1 923.5,349.2 922.7,349.1 899.3,349.6 898.5,350.2 876.0,348.9 852.7,345.6 829.3,341.1 821.0,340.7 797.7,325.4 782.7,310.7 736.0,238.8" fill="#1f77b4" opacity="0.11"/>
<polyline points="736.0,237.3 782.7,309.0 797.7,325.1 821.0,340.6 829.3,340.9 852.7,345.5 876.0,348.7 898.5,350.2 899.3,349.5 922.7,349.1 923.5,349.2 946.0,349.0" fill="none" stroke="#1f77b4" stroke-width="1.6"/>
<circle cx="736.0" cy="237.3" r="2" fill="#1f77b4"/>
<circle cx="782.7" cy="309.0" r="2" fill="#1f77b4"/>
<circle cx="797.7" cy="325.1" r="2" fill="#1f77b4"/>
<circle cx="821.0" cy="340.6" r="2" fill="#1f77b4"/>
<circle cx="829.3" cy="340.9" r="2" fill="#1f77b4"/>
<circle cx="852.7" cy="345.5" r="2" fill="#1f77b4"/>
<circle cx="876.0" cy="348.7" r="2" fill="#1f77b4"/>
<circle cx="898.5" cy="350.2" r="2" fill="#1f77b4"/>
<circle cx="899.3" cy="349.5" r="2" fill="#1f77b4"/>
<circle cx="922.7" cy="349.1" r="2" fill="#1f77b4"/>
<circle cx="923.5" cy="349.2" r="2" fill="#1f77b4"/>
<circle cx="946.0" cy="349.0" r="2" fill="#1f77b4"/>
<polygon points="736.0,234.4 782.7,306.7 797.7,324.3 821.0,339.0 829.3,340.4 852.7,345.2 876.0,346.8 898.5,348.8 899.3,348.0 922.7,348.4 923.5,349.2 946.0,348.6 946.0,348.9 923.5,349.4 922.7,349.0 899.3,348.1 898.5,348.8 876.0,346.9 852.7,345.6 829.3,341.2 821.0,339.9 797.7,325.5 782.7,311.5 736.0,236.4" fill="#2ca02c" opacity="0.11"/>
<polyline points="736.0,234.9 782.7,307.3 797.7,324.6 821.0,339.5 829.3,340.8 852.7,345.4 876.0,346.9 898.5,348.8 899.3,348.0 922.7,348.8 923.5,349.3 946.0,348.7" fill="none" stroke="#2ca02c" stroke-width="1.6"/>
<circle cx="736.0" cy="234.9" r="2" fill="#2ca02c"/>
<circle cx="782.7" cy="307.3" r="2" fill="#2ca02c"/>
<circle cx="797.7" cy="324.6" r="2" fill="#2ca02c"/>
<circle cx="821.0" cy="339.5" r="2" fill="#2ca02c"/>
<circle cx="829.3" cy="340.8" r="2" fill="#2ca02c"/>
<circle cx="852.7" cy="345.4" r="2" fill="#2ca02c"/>
<circle cx="876.0" cy="346.9" r="2" fill="#2ca02c"/>
<circle cx="898.5" cy="348.8" r="2" fill="#2ca02c"/>
<circle cx="899.3" cy="348.0" r="2" fill="#2ca02c"/>
<circle cx="922.7" cy="348.8" r="2" fill="#2ca02c"/>
<circle cx="923.5" cy="349.3" r="2" fill="#2ca02c"/>
<circle cx="946.0" cy="348.7" r="2" fill="#2ca02c"/>
<text x="841.0" y="227" text-anchor="middle" font-size="12" font-weight="bold">trmmR</text>
<line x1="736.0" y1="232" x2="736.0" y2="370" stroke="#f4f4f4"/>
<text x="736.0" y="381" text-anchor="middle" font-size="8" fill="#999">8</text>
<line x1="782.7" y1="232" x2="782.7" y2="370" stroke="#f4f4f4"/>
<text x="782.7" y="381" text-anchor="middle" font-size="8" fill="#999">32</text>
<line x1="797.7" y1="232" x2="797.7" y2="370" stroke="#f4f4f4"/>
<text x="797.7" y="381" text-anchor="middle" font-size="8" fill="#999">50</text>
<line x1="821.0" y1="232" x2="821.0" y2="370" stroke="#f4f4f4"/>
<text x="821.0" y="381" text-anchor="middle" font-size="8" fill="#999">100</text>
<line x1="829.3" y1="232" x2="829.3" y2="370" stroke="#f4f4f4"/>
<text x="829.3" y="381" text-anchor="middle" font-size="8" fill="#999">128</text>
<line x1="852.7" y1="232" x2="852.7" y2="370" stroke="#f4f4f4"/>
<text x="852.7" y="381" text-anchor="middle" font-size="8" fill="#999">256</text>
<line x1="876.0" y1="232" x2="876.0" y2="370" stroke="#f4f4f4"/>
<text x="876.0" y="381" text-anchor="middle" font-size="8" fill="#999">512</text>
<line x1="898.5" y1="232" x2="898.5" y2="370" stroke="#f4f4f4"/>
<text x="898.5" y="381" text-anchor="middle" font-size="8" fill="#999">1000</text>
<line x1="899.3" y1="232" x2="899.3" y2="370" stroke="#f4f4f4"/>
<text x="899.3" y="381" text-anchor="middle" font-size="8" fill="#999">1k</text>
<line x1="922.7" y1="232" x2="922.7" y2="370" stroke="#f4f4f4"/>
<text x="922.7" y="381" text-anchor="middle" font-size="8" fill="#999">2k</text>
<line x1="923.5" y1="232" x2="923.5" y2="370" stroke="#f4f4f4"/>
<text x="923.5" y="381" text-anchor="middle" font-size="8" fill="#999">2k</text>
<line x1="946.0" y1="232" x2="946.0" y2="370" stroke="#f4f4f4"/>
<text x="946.0" y="381" text-anchor="middle" font-size="8" fill="#999">4k</text>
</svg>
