<svg xmlns="http://www.w3.org/2000/svg" width="900" height="440" font-family="sans-serif">
<rect width="900" height="440" fill="white"/>
<text x="450.0" y="28" text-anchor="middle" font-size="18" font-weight="bold">Complex BLAS-2: PureBLAS / OpenBLAS (AVX2, 1 thread, ComplexF64)</text>
<line x1="60" y1="358.0" x2="880" y2="358.0" stroke="#eee"/>
<text x="52" y="362.0" text-anchor="end" font-size="11" fill="#666">0×</text>
<line x1="60" y1="280.2997429769057" x2="880" y2="280.2997429769057" stroke="#eee"/>
<text x="52" y="284.2997429769057" text-anchor="end" font-size="11" fill="#666">0.5×</text>
<line x1="60" y1="202.59948595381132" x2="880" y2="202.59948595381132" stroke="#eee"/>
<text x="52" y="206.59948595381132" text-anchor="end" font-size="11" fill="#666">1×</text>
<line x1="60" y1="124.89922893071699" x2="880" y2="124.89922893071699" stroke="#eee"/>
<text x="52" y="128.899228930717" text-anchor="end" font-size="11" fill="#666">1.5×</text>
<line x1="60" y1="202.59948595381132" x2="880" y2="202.59948595381132" stroke="#888" stroke-width="1"/>
<line x1="60" y1="208.8155065156589" x2="880" y2="208.8155065156589" stroke="#d33" stroke-width="1.5" stroke-dasharray="6 4"/>
<text x="880" y="203.8155065156589" text-anchor="end" font-size="11" fill="#d33">0.96× gate</text>
<polygon points="101.4,202.4 101.6,202.0 101.8,201.6 102.1,201.2 102.6,200.8 103.1,200.3 103.8,199.9 104.6,199.5 105.7,199.1 107.1,198.7 108.8,198.3 110.8,197.9 113.1,197.5 115.7,197.1 118.6,196.6 121.6,196.2 124.6,195.8 127.5,195.4 130.1,195.0 132.3,194.6 133.9,194.2 135.0,193.8 135.4,193.4 135.2,193.0 134.5,192.5 133.2,192.1 131.5,191.7 129.6,191.3 127.5,190.9 125.4,190.5 123.3,190.1 121.4,189.7 119.7,189.3 118.3,188.9 117.0,188.4 116.0,188.0 115.1,187.6 114.2,187.2 113.4,186.8 112.6,186.4 111.8,186.0 110.9,185.6 110.1,185.2 109.3,184.8 108.7,184.3 108.2,183.9 108.1,183.5 108.2,183.1 108.6,182.7 109.3,182.3 110.2,181.9 111.3,181.5 112.5,181.1 113.7,180.7 114.9,180.2 115.9,179.8 116.7,179.4 117.3,179.0 117.6,178.6 117.7,178.2 117.5,177.8 117.1,177.4 116.4,177.0 115.5,176.6 114.4,176.1 113.1,175.7 111.7,175.3 110.2,174.9 108.7,174.5 107.3,174.1 106.0,173.7 104.8,173.3 97.2,173.3 96.0,173.7 94.7,174.1 93.3,174.5 91.8,174.9 90.3,175.3 88.9,175.7 87.6,176.1 86.5,176.6 85.6,177.0 84.9,177.4 84.5,177.8 84.3,178.2 84.4,178.6 84.7,179.0 85.3,179.4 86.1,179.8 87.1,180.2 88.3,180.7 89.5,181.1 90.7,181.5 91.8,181.9 92.7,182.3 93.4,182.7 93.8,183.1 93.9,183.5 93.8,183.9 93.3,184.3 92.7,184.8 91.9,185.2 91.1,185.6 90.2,186.0 89.4,186.4 88.6,186.8 87.8,187.2 86.9,187.6 86.0,188.0 85.0,188.4 83.7,188.9 82.3,189.3 80.6,189.7 78.7,190.1 76.6,190.5 74.5,190.9 72.4,191.3 70.5,191.7 68.8,192.1 67.5,192.5 66.8,193.0 66.6,193.4 67.0,193.8 68.1,194.2 69.7,194.6 71.9,195.0 74.5,195.4 77.4,195.8 80.4,196.2 83.4,196.6 86.3,197.1 88.9,197.5 91.2,197.9 93.2,198.3 94.9,198.7 96.3,199.1 97.4,199.5 98.2,199.9 98.9,200.3 99.4,200.8 99.9,201.2 100.2,201.6 100.4,202.0 100.6,202.4" fill="#2a8" opacity="0.5" stroke="#2a8" stroke-width="1"/>
<line x1="74.0" y1="191.00173005959496" x2="128.0" y2="191.00173005959496" stroke="#114" stroke-width="2"/>
<circle cx="101.0" cy="194.70124930468742" r="2.4" fill="#114"/>
<text x="101.0" y="170.3445704666129" text-anchor="middle" font-size="11">1.07</text>
<text x="101.0" y="376" text-anchor="middle" font-size="12">zgemvN</text>
<polygon points="190.1,189.8 192.3,189.2 194.9,188.6 197.8,188.0 200.9,187.4 204.1,186.9 207.2,186.3 210.1,185.7 212.7,185.1 214.7,184.5 216.2,184.0 217.1,183.4 217.4,182.8 217.3,182.2 216.8,181.6 216.0,181.0 215.1,180.5 214.2,179.9 213.3,179.3 212.3,178.7 211.3,178.1 210.1,177.6 208.8,177.0 207.3,176.4 205.6,175.8 203.7,175.2 201.8,174.6 199.9,174.1 198.2,173.5 196.7,172.9 195.5,172.3 194.7,171.7 194.2,171.2 194.0,170.6 194.0,170.0 194.1,169.4 194.2,168.8 194.3,168.2 194.2,167.7 193.9,167.1 193.4,166.5 192.7,165.9 191.8,165.3 190.9,164.8 189.9,164.2 189.0,163.6 188.3,163.0 187.7,162.4 187.2,161.8 187.0,161.3 187.0,160.7 187.2,160.1 187.5,159.5 188.0,158.9 188.6,158.4 189.3,157.8 190.1,157.2 190.8,156.6 191.4,156.0 191.9,155.4 192.3,154.9 192.4,154.3 192.3,153.7 192.0,153.1 191.5,152.5 190.8,152.0 190.0,151.4 189.1,150.8 188.1,150.2 187.2,149.6 186.4,149.0 185.6,148.5 180.4,148.5 179.6,149.0 178.8,149.6 177.9,150.2 176.9,150.8 176.0,151.4 175.2,152.0 174.5,152.5 174.0,153.1 173.7,153.7 173.6,154.3 173.7,154.9 174.1,155.4 174.6,156.0 175.2,156.6 175.9,157.2 176.7,157.8 177.4,158.4 178.0,158.9 178.5,159.5 178.8,160.1 179.0,160.7 179.0,161.3 178.8,161.8 178.3,162.4 177.7,163.0 177.0,163.6 176.1,164.2 175.1,164.8 174.2,165.3 173.3,165.9 172.6,166.5 172.1,167.1 171.8,167.7 171.7,168.2 171.8,168.8 171.9,169.4 172.0,170.0 172.0,170.6 171.8,171.2 171.3,171.7 170.5,172.3 169.3,172.9 167.8,173.5 166.1,174.1 164.2,174.6 162.3,175.2 160.4,175.8 158.7,176.4 157.2,177.0 155.9,177.6 154.7,178.1 153.7,178.7 152.7,179.3 151.8,179.9 150.9,180.5 150.0,181.0 149.2,181.6 148.7,182.2 148.6,182.8 148.9,183.4 149.8,184.0 151.3,184.5 153.3,185.1 155.9,185.7 158.8,186.3 161.9,186.9 165.1,187.4 168.2,188.0 171.1,188.6 173.7,189.2 175.9,189.8" fill="#2a8" opacity="0.5" stroke="#2a8" stroke-width="1"/>
<line x1="156.3" y1="177.3588157878471" x2="209.7" y2="177.3588157878471" stroke="#114" stroke-width="2"/>
<circle cx="183.0" cy="184.91608220102896" r="2.4" fill="#114"/>
<text x="183.0" y="146.70989614099256" text-anchor="middle" font-size="11">1.16</text>
<text x="183.0" y="376" text-anchor="middle" font-size="12">zgemvT</text>
<polygon points="267.8,188.5 269.0,188.0 270.4,187.5 272.1,187.1 274.2,186.6 276.5,186.1 279.1,185.7 281.8,185.2 284.7,184.7 287.5,184.2 290.2,183.8 292.7,183.3 294.8,182.8 296.6,182.4 298.0,181.9 298.9,181.4 299.4,181.0 299.4,180.5 299.0,180.0 298.1,179.6 296.8,179.1 295.1,178.6 293.1,178.2 290.8,177.7 288.3,177.2 285.8,176.8 283.4,176.3 281.2,175.8 279.2,175.4 277.6,174.9 276.5,174.4 275.7,174.0 275.2,173.5 275.1,173.0 275.1,172.6 275.2,172.1 275.3,171.6 275.2,171.2 275.0,170.7 274.6,170.2 274.0,169.8 273.2,169.3 272.3,168.8 271.3,168.4 270.4,167.9 269.5,167.4 268.7,167.0 268.1,166.5 267.7,166.0 267.5,165.6 267.4,165.1 267.5,164.6 267.8,164.2 268.2,163.7 268.8,163.2 269.4,162.8 270.1,162.3 270.9,161.8 271.7,161.4 272.4,160.9 273.0,160.4 273.5,160.0 273.7,159.5 273.7,159.0 273.4,158.6 273.0,158.1 272.3,157.6 271.5,157.2 270.6,156.7 269.7,156.2 268.8,155.8 268.0,155.3 262.0,155.3 261.2,155.8 260.3,156.2 259.4,156.7 258.5,157.2 257.7,157.6 257.0,158.1 256.6,158.6 256.3,159.0 256.3,159.5 256.5,160.0 257.0,160.4 257.6,160.9 258.3,161.4 259.1,161.8 259.9,162.3 260.6,162.8 261.2,163.2 261.8,163.7 262.2,164.2 262.5,164.6 262.6,165.1 262.5,165.6 262.3,166.0 261.9,166.5 261.3,167.0 260.5,167.4 259.6,167.9 258.7,168.4 257.7,168.8 256.8,169.3 256.0,169.8 255.4,170.2 255.0,170.7 254.8,171.2 254.7,171.6 254.8,172.1 254.9,172.6 254.9,173.0 254.8,173.5 254.3,174.0 253.5,174.4 252.4,174.9 250.8,175.4 248.8,175.8 246.6,176.3 244.2,176.8 241.7,177.2 239.2,177.7 236.9,178.2 234.9,178.6 233.2,179.1 231.9,179.6 231.0,180.0 230.6,180.5 230.6,181.0 231.1,181.4 232.0,181.9 233.4,182.4 235.2,182.8 237.3,183.3 239.8,183.8 242.5,184.2 245.3,184.7 248.2,185.2 250.9,185.7 253.5,186.1 255.8,186.6 257.9,187.1 259.6,187.5 261.0,188.0 262.2,188.5" fill="#2a8" opacity="0.5" stroke="#2a8" stroke-width="1"/>
<line x1="232.7" y1="179.28296541056474" x2="297.3" y2="179.28296541056474" stroke="#114" stroke-width="2"/>
<circle cx="265.0" cy="183.16224402804878" r="2.4" fill="#114"/>
<text x="265.0" y="152.752323922657" text-anchor="middle" font-size="11">1.15</text>
<text x="265.0" y="376" text-anchor="middle" font-size="12">zgemvC</text>
<polygon points="347.2,236.8 347.3,235.4 347.4,234.1 347.6,232.7 347.8,231.3 348.0,230.0 348.2,228.6 348.5,227.2 348.8,225.9 349.2,224.5 349.7,223.2 350.4,221.8 351.4,220.4 352.7,219.1 354.5,217.7 356.8,216.3 359.6,215.0 362.9,213.6 366.6,212.2 370.4,210.9 374.0,209.5 377.2,208.2 379.6,206.8 381.1,205.4 381.4,204.1 380.7,202.7 379.1,201.3 376.7,200.0 373.9,198.6 370.9,197.2 367.8,195.9 364.9,194.5 362.3,193.1 359.9,191.8 357.9,190.4 356.1,189.1 354.7,187.7 353.7,186.3 353.0,185.0 352.7,183.6 352.8,182.2 353.1,180.9 353.6,179.5 354.3,178.1 354.9,176.8 355.5,175.4 355.8,174.1 355.8,172.7 355.5,171.3 355.0,170.0 354.4,168.6 353.6,167.2 353.0,165.9 352.4,164.5 352.1,163.1 352.0,161.8 352.2,160.4 352.6,159.1 353.2,157.7 353.9,156.3 354.5,155.0 354.9,153.6 355.2,152.2 355.1,150.9 354.8,149.5 354.2,148.1 353.4,146.8 352.5,145.4 351.5,144.1 350.5,142.7 349.7,141.3 348.9,140.0 345.1,140.0 344.3,141.3 343.5,142.7 342.5,144.1 341.5,145.4 340.6,146.8 339.8,148.1 339.2,149.5 338.9,150.9 338.8,152.2 339.1,153.6 339.5,155.0 340.1,156.3 340.8,157.7 341.4,159.1 341.8,160.4 342.0,161.8 341.9,163.1 341.6,164.5 341.0,165.9 340.4,167.2 339.6,168.6 339.0,170.0 338.5,171.3 338.2,172.7 338.2,174.1 338.5,175.4 339.1,176.8 339.7,178.1 340.4,179.5 340.9,180.9 341.2,182.2 341.3,183.6 341.0,185.0 340.3,186.3 339.3,187.7 337.9,189.1 336.1,190.4 334.1,191.8 331.7,193.1 329.1,194.5 326.2,195.9 323.1,197.2 320.1,198.6 317.3,200.0 314.9,201.3 313.3,202.7 312.6,204.1 312.9,205.4 314.4,206.8 316.8,208.2 320.0,209.5 323.6,210.9 327.4,212.2 331.1,213.6 334.4,215.0 337.2,216.3 339.5,217.7 341.3,219.1 342.6,220.4 343.6,221.8 344.3,223.2 344.8,224.5 345.2,225.9 345.5,227.2 345.8,228.6 346.0,230.0 346.2,231.3 346.4,232.7 346.6,234.1 346.7,235.4 346.8,236.8" fill="#2a8" opacity="0.5" stroke="#2a8" stroke-width="1"/>
<line x1="312.8" y1="203.43484510907524" x2="381.2" y2="203.43484510907524" stroke="#114" stroke-width="2"/>
<circle cx="347.0" cy="207.11164474900824" r="2.4" fill="#114"/>
<text x="347.0" y="143.58653931687041" text-anchor="middle" font-size="11">0.99</text>
<text x="347.0" y="376" text-anchor="middle" font-size="12">zgeru</text>
<polygon points="438.7,178.8 440.7,177.1 443.0,175.4 445.4,173.7 447.8,172.0 450.2,170.3 452.5,168.6 454.5,166.9 456.3,165.2 457.7,163.5 458.8,161.8 459.4,160.1 459.6,158.4 459.5,156.7 459.0,155.0 458.2,153.3 457.1,151.6 455.9,149.9 454.6,148.2 453.2,146.5 451.8,144.8 450.5,143.1 449.2,141.4 448.1,139.7 447.1,138.0 446.3,136.3 445.6,134.6 445.1,132.9 444.8,131.2 444.5,129.5 444.4,127.8 444.3,126.1 444.1,124.4 443.9,122.7 443.7,121.0 443.3,119.3 442.9,117.6 442.3,115.9 441.8,114.2 441.2,112.5 440.8,110.8 440.5,109.1 440.5,107.4 440.7,105.7 441.3,104.0 442.3,102.3 443.6,100.6 445.3,98.9 447.3,97.2 449.6,95.5 451.9,93.8 454.3,92.1 456.7,90.4 458.8,88.7 460.6,87.0 462.1,85.3 463.0,83.6 463.4,81.9 463.3,80.2 462.6,78.4 461.4,76.7 459.6,75.0 457.5,73.3 455.2,71.6 452.6,69.9 449.9,68.2 447.2,66.5 444.5,64.8 442.1,63.1 439.8,61.4 437.8,59.7 436.0,58.0 422.0,58.0 420.2,59.7 418.2,61.4 415.9,63.1 413.5,64.8 410.8,66.5 408.1,68.2 405.4,69.9 402.8,71.6 400.5,73.3 398.4,75.0 396.6,76.7 395.4,78.4 394.7,80.2 394.6,81.9 395.0,83.6 395.9,85.3 397.4,87.0 399.2,88.7 401.3,90.4 403.7,92.1 406.1,93.8 408.4,95.5 410.7,97.2 412.7,98.9 414.4,100.6 415.7,102.3 416.7,104.0 417.3,105.7 417.5,107.4 417.5,109.1 417.2,110.8 416.8,112.5 416.2,114.2 415.7,115.9 415.1,117.6 414.7,119.3 414.3,121.0 414.1,122.7 413.9,124.4 413.7,126.1 413.6,127.8 413.5,129.5 413.2,131.2 412.9,132.9 412.4,134.6 411.7,136.3 410.9,138.0 409.9,139.7 408.8,141.4 407.5,143.1 406.2,144.8 404.8,146.5 403.4,148.2 402.1,149.9 400.9,151.6 399.8,153.3 399.0,155.0 398.5,156.7 398.4,158.4 398.6,160.1 399.2,161.8 400.3,163.5 401.7,165.2 403.5,166.9 405.5,168.6 407.8,170.3 410.2,172.0 412.6,173.7 415.0,175.4 417.3,177.1 419.3,178.8" fill="#2a8" opacity="0.5" stroke="#2a8" stroke-width="1"/>
<line x1="414.4" y1="120.34164167915792" x2="443.6" y2="120.34164167915792" stroke="#114" stroke-width="2"/>
<circle cx="429.0" cy="162.15409259968874" r="2.4" fill="#114"/>
<text x="429.0" y="63.97355067246097" text-anchor="middle" font-size="11">1.53</text>
<text x="429.0" y="376" text-anchor="middle" font-size="12">zhemv</text>
<polygon points="515.8,212.9 517.3,210.8 519.1,208.7 521.2,206.5 523.6,204.4 526.3,202.3 529.2,200.1 532.2,198.0 535.2,195.9 538.1,193.7 540.7,191.6 542.8,189.4 544.4,187.3 545.3,185.2 545.4,183.0 544.8,180.9 543.4,178.8 541.3,176.6 538.6,174.5 535.6,172.4 532.5,170.2 529.3,168.1 526.2,166.0 523.5,163.8 521.1,161.7 519.2,159.6 517.7,157.4 516.7,155.3 516.1,153.1 515.8,151.0 515.9,148.9 516.2,146.7 516.6,144.6 517.1,142.5 517.6,140.3 518.1,138.2 518.4,136.1 518.5,133.9 518.5,131.8 518.3,129.7 517.9,127.5 517.3,125.4 516.7,123.3 516.0,121.1 515.3,119.0 514.7,116.8 514.1,114.7 513.6,112.6 513.3,110.4 513.1,108.3 513.0,106.2 513.1,104.0 513.3,101.9 513.6,99.8 514.0,97.6 514.6,95.5 515.2,93.4 515.9,91.2 516.5,89.1 517.1,87.0 517.6,84.8 518.0,82.7 518.2,80.5 518.2,78.4 518.0,76.3 517.7,74.1 517.2,72.0 516.6,69.9 515.9,67.7 515.2,65.6 514.5,63.5 513.8,61.3 508.2,61.3 507.5,63.5 506.8,65.6 506.1,67.7 505.4,69.9 504.8,72.0 504.3,74.1 504.0,76.3 503.8,78.4 503.8,80.5 504.0,82.7 504.4,84.8 504.9,87.0 505.5,89.1 506.1,91.2 506.8,93.4 507.4,95.5 508.0,97.6 508.4,99.8 508.7,101.9 508.9,104.0 509.0,106.2 508.9,108.3 508.7,110.4 508.4,112.6 507.9,114.7 507.3,116.8 506.7,119.0 506.0,121.1 505.3,123.3 504.7,125.4 504.1,127.5 503.7,129.7 503.5,131.8 503.5,133.9 503.6,136.1 503.9,138.2 504.4,140.3 504.9,142.5 505.4,144.6 505.8,146.7 506.1,148.9 506.2,151.0 505.9,153.1 505.3,155.3 504.3,157.4 502.8,159.6 500.9,161.7 498.5,163.8 495.8,166.0 492.7,168.1 489.5,170.2 486.4,172.4 483.4,174.5 480.7,176.6 478.6,178.8 477.2,180.9 476.6,183.0 476.7,185.2 477.6,187.3 479.2,189.4 481.3,191.6 483.9,193.7 486.8,195.9 489.8,198.0 492.8,200.1 495.7,202.3 498.4,204.4 500.8,206.5 502.9,208.7 504.7,210.8 506.2,212.9" fill="#2a8" opacity="0.5" stroke="#2a8" stroke-width="1"/>
<line x1="476.8" y1="182.0680398884485" x2="545.2" y2="182.0680398884485" stroke="#114" stroke-width="2"/>
<circle cx="511.0" cy="196.8090211610557" r="2.4" fill="#114"/>
<text x="511.0" y="70.25042674080308" text-anchor="middle" font-size="11">1.13</text>
<text x="511.0" y="376" text-anchor="middle" font-size="12">ztrmv</text>
<polygon points="596.8,212.3 597.8,210.9 598.8,209.4 600.0,207.9 601.1,206.5 602.3,205.0 603.4,203.5 604.6,202.1 605.7,200.6 607.0,199.1 608.3,197.6 609.9,196.2 611.7,194.7 613.8,193.2 616.1,191.8 618.5,190.3 621.0,188.8 623.3,187.4 625.2,185.9 626.7,184.4 627.4,183.0 627.4,181.5 626.6,180.0 625.0,178.5 622.7,177.1 619.9,175.6 616.8,174.1 613.6,172.7 610.5,171.2 607.6,169.7 605.1,168.3 603.1,166.8 601.5,165.3 600.4,163.8 599.8,162.4 599.5,160.9 599.5,159.4 599.7,158.0 600.0,156.5 600.3,155.0 600.6,153.6 600.8,152.1 600.8,150.6 600.7,149.1 600.3,147.7 599.9,146.2 599.2,144.7 598.6,143.3 597.9,141.8 597.3,140.3 596.9,138.9 596.6,137.4 596.4,135.9 596.5,134.5 596.8,133.0 597.2,131.5 597.8,130.0 598.5,128.6 599.2,127.1 599.9,125.6 600.5,124.2 601.0,122.7 601.3,121.2 601.4,119.8 601.3,118.3 600.9,116.8 600.4,115.3 599.6,113.9 598.8,112.4 597.9,110.9 597.1,109.5 596.3,108.0 589.7,108.0 588.9,109.5 588.1,110.9 587.2,112.4 586.4,113.9 585.6,115.3 585.1,116.8 584.7,118.3 584.6,119.8 584.7,121.2 585.0,122.7 585.5,124.2 586.1,125.6 586.8,127.1 587.5,128.6 588.2,130.0 588.8,131.5 589.2,133.0 589.5,134.5 589.6,135.9 589.4,137.4 589.1,138.9 588.7,140.3 588.1,141.8 587.4,143.3 586.8,144.7 586.1,146.2 585.7,147.7 585.3,149.1 585.2,150.6 585.2,152.1 585.4,153.6 585.7,155.0 586.0,156.5 586.3,158.0 586.5,159.4 586.5,160.9 586.2,162.4 585.6,163.8 584.5,165.3 582.9,166.8 580.9,168.3 578.4,169.7 575.5,171.2 572.4,172.7 569.2,174.1 566.1,175.6 563.3,177.1 561.0,178.5 559.4,180.0 558.6,181.5 558.6,183.0 559.3,184.4 560.8,185.9 562.7,187.4 565.0,188.8 567.5,190.3 569.9,191.8 572.2,193.2 574.3,194.7 576.1,196.2 577.7,197.6 579.0,199.1 580.3,200.6 581.4,202.1 582.6,203.5 583.7,205.0 584.9,206.5 586.0,207.9 587.2,209.4 588.2,210.9 589.2,212.3" fill="#2a8" opacity="0.5" stroke="#2a8" stroke-width="1"/>
<line x1="559.1" y1="180.38299003231035" x2="626.9" y2="180.38299003231035" stroke="#114" stroke-width="2"/>
<circle cx="593.0" cy="201.66372679855348" r="2.4" fill="#114"/>
<text x="593.0" y="112.34417199515555" text-anchor="middle" font-size="11">1.14</text>
<text x="593.0" y="376" text-anchor="middle" font-size="12">ztrsv</text>
<polygon points="684.8,173.0 687.2,171.4 689.9,169.7 692.8,168.1 695.8,166.4 698.8,164.8 701.6,163.1 704.2,161.5 706.4,159.8 708.0,158.2 709.1,156.5 709.4,154.9 709.2,153.2 708.3,151.6 706.8,149.9 705.0,148.3 702.8,146.6 700.5,145.0 698.2,143.3 696.0,141.7 694.0,140.0 692.3,138.4 690.8,136.7 689.5,135.1 688.4,133.4 687.5,131.8 686.7,130.1 686.0,128.5 685.3,126.8 684.6,125.2 683.9,123.5 683.2,121.9 682.6,120.2 682.0,118.6 681.6,116.9 681.3,115.3 681.2,113.6 681.2,111.9 681.5,110.3 681.8,108.6 682.3,107.0 682.8,105.3 683.3,103.7 683.7,102.0 684.1,100.4 684.3,98.7 684.4,97.1 684.3,95.4 684.1,93.8 683.9,92.1 683.5,90.5 683.2,88.8 682.9,87.2 682.7,85.5 682.6,83.9 682.6,82.2 682.7,80.6 682.9,78.9 683.2,77.3 683.4,75.6 683.7,74.0 683.9,72.3 684.0,70.7 683.9,69.0 683.7,67.4 683.3,65.7 682.8,64.1 682.1,62.4 681.4,60.8 680.6,59.1 679.8,57.5 679.1,55.8 670.9,55.8 670.2,57.5 669.4,59.1 668.6,60.8 667.9,62.4 667.2,64.1 666.7,65.7 666.3,67.4 666.1,69.0 666.0,70.7 666.1,72.3 666.3,74.0 666.6,75.6 666.8,77.3 667.1,78.9 667.3,80.6 667.4,82.2 667.4,83.9 667.3,85.5 667.1,87.2 666.8,88.8 666.5,90.5 666.1,92.1 665.9,93.8 665.7,95.4 665.6,97.1 665.7,98.7 665.9,100.4 666.3,102.0 666.7,103.7 667.2,105.3 667.7,107.0 668.2,108.6 668.5,110.3 668.8,111.9 668.8,113.6 668.7,115.3 668.4,116.9 668.0,118.6 667.4,120.2 666.8,121.9 666.1,123.5 665.4,125.2 664.7,126.8 664.0,128.5 663.3,130.1 662.5,131.8 661.6,133.4 660.5,135.1 659.2,136.7 657.7,138.4 656.0,140.0 654.0,141.7 651.8,143.3 649.5,145.0 647.2,146.6 645.0,148.3 643.2,149.9 641.7,151.6 640.8,153.2 640.6,154.9 640.9,156.5 642.0,158.2 643.6,159.8 645.8,161.5 648.4,163.1 651.2,164.8 654.2,166.4 657.2,168.1 660.1,169.7 662.8,171.4 665.2,173.0" fill="#2a8" opacity="0.5" stroke="#2a8" stroke-width="1"/>
<line x1="642.0" y1="151.2473947464144" x2="708.0" y2="151.2473947464144" stroke="#114" stroke-width="2"/>
<circle cx="675.0" cy="160.21580243615986" r="2.4" fill="#114"/>
<text x="675.0" y="61.433962264150935" text-anchor="middle" font-size="11">1.33</text>
<text x="675.0" y="376" text-anchor="middle" font-size="12">zhpmv</text>
<polygon points="758.2,151.1 758.8,150.2 759.7,149.3 760.9,148.4 762.4,147.5 764.3,146.6 766.6,145.7 769.3,144.8 772.2,143.9 775.4,143.0 778.6,142.1 781.7,141.2 784.5,140.3 787.0,139.4 789.0,138.5 790.4,137.6 791.2,136.7 791.4,135.8 791.2,134.9 790.7,134.0 790.0,133.1 789.2,132.2 788.5,131.3 788.0,130.4 787.5,129.5 787.0,128.6 786.4,127.8 785.6,126.9 784.5,126.0 783.0,125.1 781.2,124.2 779.1,123.3 776.8,122.4 774.5,121.5 772.2,120.6 770.0,119.7 768.1,118.8 766.4,117.9 765.0,117.0 763.8,116.1 762.8,115.2 762.1,114.3 761.5,113.4 761.2,112.5 760.9,111.6 760.8,110.7 760.8,109.8 760.9,108.9 761.0,108.0 761.1,107.1 761.3,106.2 761.6,105.3 761.9,104.5 762.3,103.6 762.7,102.7 763.1,101.8 763.5,100.9 763.8,100.0 764.1,99.1 764.2,98.2 764.2,97.3 764.0,96.4 763.7,95.5 763.2,94.6 762.6,93.7 761.8,92.8 761.1,91.9 760.3,91.0 759.6,90.1 759.0,89.2 758.4,88.3 758.0,87.4 756.0,87.4 755.6,88.3 755.0,89.2 754.4,90.1 753.7,91.0 752.9,91.9 752.2,92.8 751.4,93.7 750.8,94.6 750.3,95.5 750.0,96.4 749.8,97.3 749.8,98.2 749.9,99.1 750.2,100.0 750.5,100.9 750.9,101.8 751.3,102.7 751.7,103.6 752.1,104.5 752.4,105.3 752.7,106.2 752.9,107.1 753.0,108.0 753.1,108.9 753.2,109.8 753.2,110.7 753.1,111.6 752.8,112.5 752.5,113.4 751.9,114.3 751.2,115.2 750.2,116.1 749.0,117.0 747.6,117.9 745.9,118.8 744.0,119.7 741.8,120.6 739.5,121.5 737.2,122.4 734.9,123.3 732.8,124.2 731.0,125.1 729.5,126.0 728.4,126.9 727.6,127.8 727.0,128.6 726.5,129.5 726.0,130.4 725.5,131.3 724.8,132.2 724.0,133.1 723.3,134.0 722.8,134.9 722.6,135.8 722.8,136.7 723.6,137.6 725.0,138.5 727.0,139.4 729.5,140.3 732.3,141.2 735.4,142.1 738.6,143.0 741.8,143.9 744.7,144.8 747.4,145.7 749.7,146.6 751.6,147.5 753.1,148.4 754.3,149.3 755.2,150.2 755.8,151.1" fill="#2a8" opacity="0.5" stroke="#2a8" stroke-width="1"/>
<line x1="726.3" y1="129.87446296394336" x2="787.7" y2="129.87446296394336" stroke="#114" stroke-width="2"/>
<circle cx="757.0" cy="141.4402314757748" r="2.4" fill="#114"/>
<text x="757.0" y="87.8342587490711" text-anchor="middle" font-size="11">1.47</text>
<text x="757.0" y="376" text-anchor="middle" font-size="12">zgbmvN</text>
<polygon points="839.0,158.2 839.0,157.6 839.0,157.0 839.0,156.4 839.1,155.8 839.1,155.2 839.2,154.6 839.3,154.0 839.3,153.4 839.4,152.8 839.5,152.2 839.7,151.6 840.6,151.1 842.7,150.5 847.1,149.9 854.3,149.3 863.0,148.7 870.3,148.1 873.4,147.5 871.5,146.9 865.9,146.3 859.4,145.7 853.8,145.1 849.8,144.5 847.8,143.9 847.3,143.4 847.7,142.8 848.1,142.2 847.9,141.6 846.8,141.0 845.0,140.4 843.0,139.8 841.4,139.2 840.3,138.6 839.8,138.0 839.5,137.4 839.3,136.8 839.2,136.3 839.2,135.7 839.1,135.1 839.2,134.5 839.2,133.9 839.2,133.3 839.2,132.7 839.2,132.1 839.2,131.5 839.3,130.9 839.3,130.3 839.3,129.7 839.3,129.1 839.4,128.6 839.4,128.0 839.4,127.4 839.3,126.8 839.3,126.2 839.2,125.6 839.2,125.0 839.2,124.4 839.2,123.8 839.2,123.2 839.2,122.6 839.2,122.0 839.2,121.5 839.2,120.9 839.2,120.3 839.1,119.7 839.1,119.1 839.0,118.5 839.0,117.9 839.0,117.3 839.0,116.7 839.0,116.1 839.0,116.1 839.0,116.7 839.0,117.3 839.0,117.9 839.0,118.5 838.9,119.1 838.9,119.7 838.8,120.3 838.8,120.9 838.8,121.5 838.8,122.0 838.8,122.6 838.8,123.2 838.8,123.8 838.8,124.4 838.8,125.0 838.8,125.6 838.7,126.2 838.7,126.8 838.6,127.4 838.6,128.0 838.6,128.6 838.7,129.1 838.7,129.7 838.7,130.3 838.7,130.9 838.8,131.5 838.8,132.1 838.8,132.7 838.8,133.3 838.8,133.9 838.8,134.5 838.9,135.1 838.8,135.7 838.8,136.3 838.7,136.8 838.5,137.4 838.2,138.0 837.7,138.6 836.6,139.2 835.0,139.8 833.0,140.4 831.2,141.0 830.1,141.6 829.9,142.2 830.3,142.8 830.7,143.4 830.2,143.9 828.2,144.5 824.2,145.1 818.6,145.7 812.1,146.3 806.5,146.9 804.6,147.5 807.7,148.1 815.0,148.7 823.7,149.3 830.9,149.9 835.3,150.5 837.4,151.1 838.3,151.6 838.5,152.2 838.6,152.8 838.7,153.4 838.7,154.0 838.8,154.6 838.9,155.2 838.9,155.8 839.0,156.4 839.0,157.0 839.0,157.6 839.0,158.2" fill="#2a8" opacity="0.5" stroke="#2a8" stroke-width="1"/>
<line x1="806.1" y1="146.98156569205497" x2="871.9" y2="146.98156569205497" stroke="#114" stroke-width="2"/>
<circle cx="839.0" cy="148.0566340527779" r="2.4" fill="#114"/>
<text x="839.0" y="114.44355114783485" text-anchor="middle" font-size="11">1.36</text>
<text x="839.0" y="376" text-anchor="middle" font-size="12">zhbmv</text>
<text x="450.0" y="428" text-anchor="middle" font-size="11" fill="#666">violin = ratio distribution over sizes · line = median · dark dot = worst size · green = every size ≥ gate</text>
</svg>
