<svg xmlns="http://www.w3.org/2000/svg" width="900" height="440" font-family="sans-serif">
<rect width="900" height="440" fill="white"/>
<text x="450.0" y="28" text-anchor="middle" font-size="18" font-weight="bold">BLAS-1: PureBLAS / OpenBLAS (AVX-512 native (Zen5), 1 thread, Float64)</text>
<line x1="60" y1="358.0" x2="880" y2="358.0" stroke="#eee"/>
<text x="52" y="362.0" text-anchor="end" font-size="11" fill="#666">0×</text>
<line x1="60" y1="348.1111494699507" x2="880" y2="348.1111494699507" stroke="#eee"/>
<text x="52" y="352.1111494699507" text-anchor="end" font-size="11" fill="#666">0.5×</text>
<line x1="60" y1="338.22229893990135" x2="880" y2="338.22229893990135" stroke="#eee"/>
<text x="52" y="342.22229893990135" text-anchor="end" font-size="11" fill="#666">1×</text>
<line x1="60" y1="328.33344840985205" x2="880" y2="328.33344840985205" stroke="#eee"/>
<text x="52" y="332.33344840985205" text-anchor="end" font-size="11" fill="#666">1.5×</text>
<line x1="60" y1="338.22229893990135" x2="880" y2="338.22229893990135" stroke="#888" stroke-width="1"/>
<line x1="60" y1="339.0134069823053" x2="880" y2="339.0134069823053" stroke="#d33" stroke-width="1.5" stroke-dasharray="6 4"/>
<text x="880" y="334.0134069823053" text-anchor="end" font-size="11" fill="#d33">0.96× gate</text>
<polygon points="128.3,340.7 128.4,340.6 128.4,340.5 128.5,340.4 128.6,340.3 128.9,340.2 129.1,340.1 129.3,340.0 129.5,339.9 129.6,339.9 129.8,339.8 130.0,339.7 130.5,339.6 131.3,339.5 132.6,339.4 133.9,339.3 135.1,339.2 136.0,339.1 136.6,339.1 137.8,339.0 140.4,338.9 145.3,338.8 153.1,338.7 162.9,338.6 173.1,338.5 181.3,338.4 185.7,338.3 185.7,338.3 181.5,338.2 174.0,338.1 164.5,338.0 154.5,337.9 145.9,337.8 139.9,337.7 137.5,337.6 138.9,337.5 143.7,337.5 150.2,337.4 156.3,337.3 159.5,337.2 158.6,337.1 154.0,337.0 147.5,336.9 141.3,336.8 136.5,336.7 133.3,336.7 131.4,336.6 130.3,336.5 129.5,336.4 129.0,336.3 128.7,336.2 128.5,336.1 128.4,336.0 128.4,336.0 128.3,335.9 128.3,335.8 128.3,335.7 128.3,335.6 128.4,335.5 128.4,335.4 128.5,335.3 128.5,335.2 128.6,335.2 128.7,335.1 128.7,335.0 128.7,334.9 128.6,334.8 128.5,334.7 128.4,334.6 128.4,334.5 128.3,334.4 128.3,334.4 128.3,334.4 128.3,334.4 128.3,334.5 128.2,334.6 128.2,334.7 128.1,334.8 128.0,334.9 128.0,335.0 128.0,335.1 128.0,335.2 128.1,335.2 128.2,335.3 128.3,335.4 128.3,335.5 128.3,335.6 128.3,335.7 128.3,335.8 128.3,335.9 128.3,336.0 128.3,336.0 128.2,336.1 128.0,336.2 127.6,336.3 127.1,336.4 126.4,336.5 125.3,336.6 123.4,336.7 120.2,336.7 115.4,336.8 109.1,336.9 102.7,337.0 98.1,337.1 97.1,337.2 100.4,337.3 106.4,337.4 113.0,337.5 117.7,337.5 119.2,337.6 116.8,337.7 110.8,337.8 102.2,337.9 92.2,338.0 82.7,338.1 75.1,338.2 70.9,338.3 70.9,338.3 75.4,338.4 83.6,338.5 93.7,338.6 103.6,338.7 111.3,338.8 116.3,338.9 118.9,339.0 120.0,339.1 120.7,339.1 121.5,339.2 122.7,339.3 124.1,339.4 125.3,339.5 126.2,339.6 126.7,339.7 126.9,339.8 127.0,339.9 127.1,339.9 127.3,340.0 127.6,340.1 127.8,340.2 128.0,340.3 128.2,340.4 128.3,340.5 128.3,340.6 128.3,340.7" fill="#2a8" opacity="0.5" stroke="#2a8" stroke-width="1"/>
<line x1="74.7" y1="338.17475609016213" x2="181.9" y2="338.17475609016213" stroke="#114" stroke-width="2"/>
<circle cx="128.33333333333331" cy="338.57973883793755" r="2.4" fill="#114"/>
<text x="128.33333333333331" y="328.99531322450747" text-anchor="middle" font-size="11">1.00</text>
<text x="128.33333333333331" y="376" text-anchor="middle" font-size="12">axpy</text>
<polygon points="265.0,340.4 265.0,340.4 265.0,340.3 265.1,340.3 265.2,340.2 265.3,340.1 265.5,340.1 265.7,340.0 265.8,340.0 265.9,339.9 266.0,339.9 266.1,339.8 266.3,339.8 266.4,339.7 266.5,339.7 266.4,339.6 266.1,339.6 265.7,339.5 265.4,339.5 265.2,339.4 265.1,339.3 265.0,339.3 265.0,339.2 265.0,339.2 265.0,339.1 265.0,339.1 265.0,339.0 265.0,339.0 265.1,338.9 265.2,338.9 265.5,338.8 266.2,338.8 267.5,338.7 269.7,338.7 273.3,338.6 278.8,338.5 286.4,338.5 296.0,338.4 306.3,338.4 315.3,338.3 321.0,338.3 322.4,338.2 319.7,338.2 314.0,338.1 307.2,338.1 301.4,338.0 298.2,338.0 298.0,337.9 299.9,337.9 301.5,337.8 300.7,337.7 296.2,337.7 289.0,337.6 281.3,337.6 275.0,337.5 270.9,337.5 268.5,337.4 267.1,337.4 266.4,337.3 266.1,337.3 266.2,337.2 266.4,337.2 266.6,337.1 266.5,337.1 266.2,337.0 265.8,336.9 265.5,336.9 265.2,336.8 265.1,336.8 265.0,336.7 265.0,336.7 265.0,336.6 265.0,336.6 265.0,336.7 265.0,336.7 264.9,336.8 264.8,336.8 264.5,336.9 264.2,336.9 263.8,337.0 263.5,337.1 263.4,337.1 263.6,337.2 263.8,337.2 263.9,337.3 263.6,337.3 262.9,337.4 261.5,337.4 259.1,337.5 255.0,337.5 248.7,337.6 241.0,337.6 233.8,337.7 229.3,337.7 228.5,337.8 230.1,337.9 232.0,337.9 231.8,338.0 228.6,338.0 222.8,338.1 216.0,338.1 210.3,338.2 207.6,338.2 209.0,338.3 214.7,338.3 223.7,338.4 234.0,338.4 243.6,338.5 251.2,338.5 256.7,338.6 260.3,338.7 262.5,338.7 263.8,338.8 264.5,338.8 264.8,338.9 264.9,338.9 265.0,339.0 265.0,339.0 265.0,339.1 265.0,339.1 265.0,339.2 265.0,339.2 265.0,339.3 264.9,339.3 264.8,339.4 264.6,339.5 264.3,339.5 263.9,339.6 263.6,339.6 263.5,339.7 263.6,339.7 263.7,339.8 263.9,339.8 264.0,339.9 264.1,339.9 264.2,340.0 264.3,340.0 264.5,340.1 264.7,340.1 264.8,340.2 264.9,340.3 265.0,340.3 265.0,340.4 265.0,340.4" fill="#2a8" opacity="0.5" stroke="#2a8" stroke-width="1"/>
<line x1="214.8" y1="338.13169796867004" x2="315.2" y2="338.13169796867004" stroke="#114" stroke-width="2"/>
<circle cx="265.0" cy="338.34336673523455" r="2.4" fill="#114"/>
<text x="265.0" y="331.02807849331776" text-anchor="middle" font-size="11">1.00</text>
<text x="265.0" y="376" text-anchor="middle" font-size="12">dot</text>
<polygon points="415.5,252.4 418.8,249.5 422.5,246.7 426.3,243.8 430.1,241.0 433.8,238.1 437.1,235.3 439.8,232.4 441.8,229.6 443.0,226.7 443.1,223.9 442.3,221.0 440.7,218.2 438.2,215.3 435.1,212.5 431.6,209.6 428.0,206.8 424.3,203.9 420.8,201.1 417.6,198.2 415.0,195.4 412.8,192.5 411.3,189.7 410.4,186.8 410.2,184.0 410.7,181.1 411.8,178.3 413.6,175.4 416.0,172.6 418.9,169.7 422.5,166.9 426.4,164.0 430.8,161.2 435.3,158.3 439.9,155.5 444.4,152.6 448.5,149.8 452.2,146.9 455.1,144.1 457.3,141.2 458.6,138.4 459.1,135.5 458.7,132.7 457.7,129.8 456.1,127.0 454.2,124.1 452.1,121.3 449.9,118.4 447.8,115.6 445.9,112.7 444.1,109.9 442.7,107.0 441.4,104.2 440.3,101.3 439.4,98.5 438.7,95.6 438.1,92.8 437.5,89.9 436.9,87.1 436.3,84.2 435.5,81.4 434.6,78.5 433.5,75.7 432.1,72.8 430.4,70.0 428.4,67.1 426.2,64.3 423.8,61.4 421.2,58.6 418.6,55.7 416.1,52.9 413.7,50.0 389.7,50.0 387.3,52.9 384.7,55.7 382.1,58.6 379.6,61.4 377.1,64.3 374.9,67.1 372.9,70.0 371.2,72.8 369.8,75.7 368.7,78.5 367.8,81.4 367.1,84.2 366.4,87.1 365.9,89.9 365.3,92.8 364.6,95.6 363.9,98.5 363.0,101.3 361.9,104.2 360.7,107.0 359.2,109.9 357.5,112.7 355.5,115.6 353.4,118.4 351.3,121.3 349.1,124.1 347.2,127.0 345.6,129.8 344.6,132.7 344.3,135.5 344.7,138.4 346.0,141.2 348.2,144.1 351.2,146.9 354.8,149.8 358.9,152.6 363.4,155.5 368.0,158.3 372.6,161.2 376.9,164.0 380.9,166.9 384.4,169.7 387.4,172.6 389.8,175.4 391.5,178.3 392.6,181.1 393.1,184.0 392.9,186.8 392.0,189.7 390.5,192.5 388.4,195.4 385.7,198.2 382.5,201.1 379.1,203.9 375.4,206.8 371.7,209.6 368.2,212.5 365.1,215.3 362.7,218.2 361.0,221.0 360.2,223.9 360.4,226.7 361.5,229.6 363.5,232.4 366.2,235.3 369.5,238.1 373.2,241.0 377.0,243.8 380.9,246.7 384.5,249.5 387.8,252.4" fill="#2a8" opacity="0.5" stroke="#2a8" stroke-width="1"/>
<line x1="344.6" y1="138.06385185849302" x2="458.7" y2="138.06385185849302" stroke="#114" stroke-width="2"/>
<circle cx="401.66666666666663" cy="226.80935141152483" r="2.4" fill="#114"/>
<text x="401.66666666666663" y="61.433962264150935" text-anchor="middle" font-size="11">11.12</text>
<text x="401.66666666666663" y="376" text-anchor="middle" font-size="12">nrm2</text>
<polygon points="539.4,340.9 540.0,340.7 540.8,340.6 541.9,340.4 543.5,340.2 545.7,340.1 548.5,339.9 552.0,339.8 556.3,339.6 561.3,339.5 566.8,339.3 572.8,339.1 578.7,339.0 584.3,338.8 589.1,338.7 592.8,338.5 595.1,338.3 595.7,338.2 594.8,338.0 592.5,337.9 589.1,337.7 584.9,337.5 580.3,337.4 575.8,337.2 571.5,337.1 567.6,336.9 564.3,336.7 561.4,336.6 558.9,336.4 556.7,336.3 554.6,336.1 552.7,335.9 550.7,335.8 548.8,335.6 547.0,335.5 545.3,335.3 543.8,335.2 542.5,335.0 541.4,334.8 540.5,334.7 539.8,334.5 539.3,334.4 539.0,334.2 538.7,334.0 538.6,333.9 538.5,333.7 538.5,333.6 538.6,333.4 538.7,333.2 539.0,333.1 539.3,332.9 539.8,332.8 540.4,332.6 541.2,332.4 542.3,332.3 543.5,332.1 544.8,332.0 546.2,331.8 547.5,331.7 548.7,331.5 549.7,331.3 550.3,331.2 550.6,331.0 550.4,330.9 549.8,330.7 548.8,330.5 547.6,330.4 546.3,330.2 544.9,330.1 543.6,329.9 542.4,329.7 541.3,329.6 535.3,329.6 534.3,329.7 533.1,329.9 531.8,330.1 530.4,330.2 529.0,330.4 527.8,330.5 526.9,330.7 526.3,330.9 526.1,331.0 526.3,331.2 527.0,331.3 527.9,331.5 529.1,331.7 530.5,331.8 531.9,332.0 533.2,332.1 534.4,332.3 535.4,332.4 536.2,332.6 536.9,332.8 537.4,332.9 537.7,333.1 537.9,333.2 538.1,333.4 538.1,333.6 538.1,333.7 538.1,333.9 537.9,334.0 537.7,334.2 537.4,334.4 536.9,334.5 536.2,334.7 535.3,334.8 534.2,335.0 532.9,335.2 531.3,335.3 529.6,335.5 527.8,335.6 525.9,335.8 524.0,335.9 522.0,336.1 520.0,336.3 517.8,336.4 515.3,336.6 512.4,336.7 509.1,336.9 505.2,337.1 500.9,337.2 496.3,337.4 491.8,337.5 487.6,337.7 484.1,337.9 481.8,338.0 480.9,338.2 481.6,338.3 483.9,338.5 487.5,338.7 492.4,338.8 498.0,339.0 503.9,339.1 509.8,339.3 515.4,339.5 520.4,339.6 524.7,339.8 528.2,339.9 531.0,340.1 533.1,340.2 534.7,340.4 535.9,340.6 536.7,340.7 537.3,340.9" fill="#2a8" opacity="0.5" stroke="#2a8" stroke-width="1"/>
<line x1="480.9" y1="338.16960457025726" x2="595.7" y2="338.16960457025726" stroke="#114" stroke-width="2"/>
<circle cx="538.3333333333333" cy="338.59326427500883" r="2.4" fill="#114"/>
<text x="538.3333333333333" y="324.7093135733536" text-anchor="middle" font-size="11">1.00</text>
<text x="538.3333333333333" y="376" text-anchor="middle" font-size="12">asum</text>
<polygon points="681.9,339.1 684.7,339.0 688.1,338.9 692.3,338.8 697.0,338.7 702.1,338.5 707.5,338.4 712.8,338.3 717.8,338.2 722.3,338.1 726.1,338.0 729.0,337.9 731.1,337.8 732.2,337.7 732.4,337.6 731.7,337.5 730.3,337.4 728.1,337.3 725.2,337.2 721.7,337.1 717.8,337.0 713.5,336.9 709.0,336.8 704.5,336.6 700.0,336.5 695.8,336.4 691.9,336.3 688.4,336.2 685.4,336.1 682.8,336.0 680.8,335.9 679.1,335.8 677.9,335.7 676.9,335.6 676.3,335.5 675.8,335.4 675.6,335.3 675.4,335.2 675.4,335.1 675.4,335.0 675.6,334.8 675.8,334.7 676.1,334.6 676.6,334.5 677.1,334.4 677.8,334.3 678.5,334.2 679.4,334.1 680.3,334.0 681.2,333.9 682.2,333.8 683.1,333.7 683.9,333.6 684.6,333.5 685.1,333.4 685.5,333.3 685.6,333.2 685.5,333.1 685.1,332.9 684.6,332.8 683.9,332.7 683.0,332.6 682.1,332.5 681.1,332.4 680.2,332.3 679.3,332.2 678.5,332.1 677.8,332.0 677.1,331.9 676.6,331.8 676.2,331.7 675.8,331.6 674.2,331.6 673.8,331.7 673.4,331.8 672.9,331.9 672.2,332.0 671.5,332.1 670.7,332.2 669.8,332.3 668.9,332.4 667.9,332.5 667.0,332.6 666.1,332.7 665.4,332.8 664.9,332.9 664.5,333.1 664.4,333.2 664.5,333.3 664.9,333.4 665.4,333.5 666.1,333.6 666.9,333.7 667.8,333.8 668.8,333.9 669.7,334.0 670.6,334.1 671.5,334.2 672.2,334.3 672.9,334.4 673.4,334.5 673.9,334.6 674.2,334.7 674.4,334.8 674.6,335.0 674.6,335.1 674.6,335.2 674.4,335.3 674.2,335.4 673.7,335.5 673.1,335.6 672.1,335.7 670.9,335.8 669.2,335.9 667.2,336.0 664.6,336.1 661.6,336.2 658.1,336.3 654.2,336.4 650.0,336.5 645.5,336.6 641.0,336.8 636.5,336.9 632.2,337.0 628.3,337.1 624.8,337.2 621.9,337.3 619.7,337.4 618.3,337.5 617.6,337.6 617.8,337.7 618.9,337.8 621.0,337.9 623.9,338.0 627.7,338.1 632.2,338.2 637.2,338.3 642.5,338.4 647.9,338.5 653.0,338.7 657.7,338.8 661.9,338.9 665.3,339.0 668.1,339.1" fill="#2a8" opacity="0.5" stroke="#2a8" stroke-width="1"/>
<line x1="618.3" y1="337.4862672900229" x2="731.7" y2="337.4862672900229" stroke="#114" stroke-width="2"/>
<circle cx="675.0" cy="338.1360086414454" r="2.4" fill="#114"/>
<text x="675.0" y="326.3287938850002" text-anchor="middle" font-size="11">1.04</text>
<text x="675.0" y="376" text-anchor="middle" font-size="12">scal</text>
<polygon points="814.8,344.7 816.1,344.2 817.8,343.7 819.8,343.2 822.2,342.7 824.9,342.2 828.0,341.7 831.3,341.2 834.8,340.7 838.3,340.2 841.8,339.7 845.1,339.2 848.3,338.7 851.2,338.2 853.8,337.7 856.1,337.1 858.2,336.6 860.0,336.1 861.6,335.6 863.0,335.1 864.2,334.6 865.3,334.1 866.3,333.6 867.1,333.1 867.8,332.6 868.3,332.1 868.7,331.6 869.0,331.1 869.1,330.6 869.1,330.1 868.9,329.6 868.7,329.0 868.5,328.5 868.2,328.0 867.9,327.5 867.7,327.0 867.6,326.5 867.5,326.0 867.5,325.5 867.6,325.0 867.7,324.5 867.8,324.0 867.8,323.5 867.8,323.0 867.7,322.5 867.4,322.0 867.2,321.5 866.8,320.9 866.4,320.4 866.0,319.9 865.5,319.4 864.9,318.9 864.1,318.4 863.2,317.9 862.1,317.4 860.6,316.9 858.8,316.4 856.6,315.9 854.0,315.4 850.9,314.9 847.5,314.4 843.9,313.9 840.0,313.4 836.1,312.8 832.2,312.3 828.6,311.8 825.2,311.3 822.3,310.8 819.7,310.3 817.6,309.8 816.0,309.3 814.7,308.8 808.7,308.8 807.4,309.3 805.7,309.8 803.6,310.3 801.1,310.8 798.1,311.3 794.7,311.8 791.1,312.3 787.2,312.8 783.3,313.4 779.5,313.9 775.8,314.4 772.4,314.9 769.4,315.4 766.8,315.9 764.6,316.4 762.7,316.9 761.3,317.4 760.1,317.9 759.2,318.4 758.5,318.9 757.8,319.4 757.3,319.9 756.9,320.4 756.5,320.9 756.2,321.5 755.9,322.0 755.7,322.5 755.6,323.0 755.5,323.5 755.6,324.0 755.6,324.5 755.7,325.0 755.8,325.5 755.8,326.0 755.8,326.5 755.6,327.0 755.4,327.5 755.1,328.0 754.9,328.5 754.6,329.0 754.4,329.6 754.3,330.1 754.3,330.6 754.4,331.1 754.6,331.6 755.0,332.1 755.5,332.6 756.2,333.1 757.0,333.6 758.0,334.1 759.1,334.6 760.4,335.1 761.8,335.6 763.4,336.1 765.2,336.6 767.2,337.1 769.6,337.7 772.2,338.2 775.1,338.7 778.2,339.2 781.6,339.7 785.1,340.2 788.6,340.7 792.0,341.2 795.3,341.7 798.4,342.2 801.1,342.7 803.5,343.2 805.6,343.7 807.2,344.2 808.5,344.7" fill="#2a8" opacity="0.5" stroke="#2a8" stroke-width="1"/>
<line x1="755.7" y1="326.8043639636965" x2="867.6" y2="326.8043639636965" stroke="#114" stroke-width="2"/>
<circle cx="811.6666666666666" cy="329.21443317354493" r="2.4" fill="#114"/>
<text x="811.6666666666666" y="306.3044031791831" text-anchor="middle" font-size="11">1.58</text>
<text x="811.6666666666666" y="376" text-anchor="middle" font-size="12">iamax</text>
<text x="450.0" y="428" text-anchor="middle" font-size="11" fill="#666">violin = ratio distribution over sizes · line = median · dark dot = worst size · green = every size ≥ gate</text>
</svg>
