<svg xmlns="http://www.w3.org/2000/svg" width="900" height="460" font-family="sans-serif">
<rect width="900" height="460" fill="white"/>
<text x="450.0" y="28" text-anchor="middle" font-size="18" font-weight="bold">Complex BLAS-3: PureBLAS / OpenBLAS (AVX-512 (Zen4), 1 thread, ComplexF64)</text>
<line x1="62" y1="400.0" x2="768" y2="400.0" stroke="#eee"/>
<text x="54" y="404.0" text-anchor="end" font-size="11" fill="#666">0.5×</text>
<line x1="62" y1="315.26710979054866" x2="768" y2="315.26710979054866" stroke="#eee"/>
<text x="54" y="319.26710979054866" text-anchor="end" font-size="11" fill="#666">0.7×</text>
<line x1="62" y1="225.44662662466516" x2="768" y2="225.44662662466516" stroke="#eee"/>
<text x="54" y="229.44662662466516" text-anchor="end" font-size="11" fill="#666">1.0×</text>
<line x1="62" y1="123.3394488257156" x2="768" y2="123.3394488257156" stroke="#eee"/>
<text x="54" y="127.3394488257156" text-anchor="end" font-size="11" fill="#666">1.5×</text>
<line x1="62" y1="50.89325324933031" x2="768" y2="50.89325324933031" stroke="#eee"/>
<text x="54" y="54.89325324933031" text-anchor="end" font-size="11" fill="#666">2.0×</text>
<line x1="62.0" y1="50" x2="62.0" y2="400" stroke="#f4f4f4"/>
<text x="62.0" y="418" text-anchor="middle" font-size="11" fill="#444">8</text>
<line x1="238.5" y1="50" x2="238.5" y2="400" stroke="#f4f4f4"/>
<text x="238.5" y="418" text-anchor="middle" font-size="11" fill="#444">32</text>
<line x1="415.0" y1="50" x2="415.0" y2="400" stroke="#f4f4f4"/>
<text x="415.0" y="418" text-anchor="middle" font-size="11" fill="#444">128</text>
<line x1="503.25" y1="50" x2="503.25" y2="400" stroke="#f4f4f4"/>
<text x="503.25" y="418" text-anchor="middle" font-size="11" fill="#444">256</text>
<line x1="591.5" y1="50" x2="591.5" y2="400" stroke="#f4f4f4"/>
<text x="591.5" y="418" text-anchor="middle" font-size="11" fill="#444">512</text>
<line x1="679.75" y1="50" x2="679.75" y2="400" stroke="#f4f4f4"/>
<text x="679.75" y="418" text-anchor="middle" font-size="11" fill="#444">1024</text>
<line x1="768.0" y1="50" x2="768.0" y2="400" stroke="#f4f4f4"/>
<text x="768.0" y="418" text-anchor="middle" font-size="11" fill="#444">2048</text>
<line x1="62" y1="225.44662662466516" x2="768" y2="225.44662662466516" stroke="#888"/>
<line x1="62" y1="235.72671871948356" x2="768" y2="235.72671871948356" stroke="#d33" stroke-width="1.5" stroke-dasharray="6 4"/>
<text x="66" y="230.72671871948356" font-size="11" fill="#d33">0.96× gate</text>
<polygon points="62.0,71.1 238.5,149.3 415.0,173.8 503.2,171.6 591.5,190.2 679.8,194.5 768.0,188.9 768.0,193.5 679.8,199.0 591.5,194.1 503.2,186.5 415.0,190.3 238.5,172.4 62.0,95.7" fill="#1f77b4" opacity="0.14" stroke="none"/>
<polyline points="62.0,85.2 238.5,162.4 415.0,182.5 503.2,178.6 591.5,192.5 679.8,196.3 768.0,191.3" fill="none" stroke="#1f77b4" stroke-width="2"/>
<circle cx="62.0" cy="85.2" r="3" fill="#1f77b4"/>
<circle cx="238.5" cy="162.4" r="3" fill="#1f77b4"/>
<circle cx="415.0" cy="182.5" r="3" fill="#1f77b4"/>
<circle cx="503.2" cy="178.6" r="3" fill="#1f77b4"/>
<circle cx="591.5" cy="192.5" r="3" fill="#1f77b4"/>
<circle cx="679.8" cy="196.3" r="3" fill="#1f77b4"/>
<circle cx="768.0" cy="191.3" r="3" fill="#1f77b4"/>
<line x1="782" y1="56" x2="802" y2="56" stroke="#1f77b4" stroke-width="3"/>
<text x="806" y="60" font-size="12">zgemm</text>
<polygon points="62.0,242.3 238.5,187.4 415.0,173.4 503.2,188.6 591.5,196.7 679.8,193.4 768.0,197.1 768.0,201.3 679.8,198.4 591.5,215.0 503.2,228.7 415.0,202.3 238.5,209.1 62.0,295.0" fill="#d62728" opacity="0.14" stroke="none"/>
<polyline points="62.0,262.5 238.5,200.4 415.0,200.8 503.2,202.4 591.5,203.8 679.8,194.8 768.0,198.8" fill="none" stroke="#d62728" stroke-width="2"/>
<circle cx="62.0" cy="262.5" r="3" fill="#d62728"/>
<circle cx="238.5" cy="200.4" r="3" fill="#d62728"/>
<circle cx="415.0" cy="200.8" r="3" fill="#d62728"/>
<circle cx="503.2" cy="202.4" r="3" fill="#d62728"/>
<circle cx="591.5" cy="203.8" r="3" fill="#d62728"/>
<circle cx="679.8" cy="194.8" r="3" fill="#d62728"/>
<circle cx="768.0" cy="198.8" r="3" fill="#d62728"/>
<line x1="782" y1="74" x2="802" y2="74" stroke="#d62728" stroke-width="3"/>
<text x="806" y="78" font-size="12">zhemm</text>
<polygon points="62.0,145.9 238.5,267.0 415.0,204.6 503.2,180.9 591.5,188.1 679.8,187.5 768.0,195.2 768.0,197.7 679.8,196.5 591.5,192.4 503.2,187.6 415.0,215.0 238.5,292.3 62.0,184.8" fill="#2ca02c" opacity="0.14" stroke="none"/>
<polyline points="62.0,150.3 238.5,273.6 415.0,209.2 503.2,184.7 591.5,189.8 679.8,192.7 768.0,196.8" fill="none" stroke="#2ca02c" stroke-width="2"/>
<circle cx="62.0" cy="150.3" r="3" fill="#2ca02c"/>
<circle cx="238.5" cy="273.6" r="3" fill="#2ca02c"/>
<circle cx="415.0" cy="209.2" r="3" fill="#2ca02c"/>
<circle cx="503.2" cy="184.7" r="3" fill="#2ca02c"/>
<circle cx="591.5" cy="189.8" r="3" fill="#2ca02c"/>
<circle cx="679.8" cy="192.7" r="3" fill="#2ca02c"/>
<circle cx="768.0" cy="196.8" r="3" fill="#2ca02c"/>
<line x1="782" y1="92" x2="802" y2="92" stroke="#2ca02c" stroke-width="3"/>
<text x="806" y="96" font-size="12">zherk</text>
<polygon points="62.0,189.4 238.5,266.5 415.0,206.4 503.2,175.6 591.5,193.8 679.8,193.0 768.0,190.5 768.0,198.2 679.8,195.5 591.5,201.0 503.2,191.0 415.0,230.2 238.5,290.4 62.0,210.8" fill="#9467bd" opacity="0.14" stroke="none"/>
<polyline points="62.0,198.7 238.5,277.7 415.0,223.1 503.2,187.2 591.5,196.3 679.8,193.3 768.0,195.9" fill="none" stroke="#9467bd" stroke-width="2"/>
<circle cx="62.0" cy="198.7" r="3" fill="#9467bd"/>
<circle cx="238.5" cy="277.7" r="3" fill="#9467bd"/>
<circle cx="415.0" cy="223.1" r="3" fill="#9467bd"/>
<circle cx="503.2" cy="187.2" r="3" fill="#9467bd"/>
<circle cx="591.5" cy="196.3" r="3" fill="#9467bd"/>
<circle cx="679.8" cy="193.3" r="3" fill="#9467bd"/>
<circle cx="768.0" cy="195.9" r="3" fill="#9467bd"/>
<line x1="782" y1="110" x2="802" y2="110" stroke="#9467bd" stroke-width="3"/>
<text x="806" y="114" font-size="12">zher2k</text>
<polygon points="62.0,197.4 238.5,259.1 415.0,208.9 503.2,184.1 591.5,187.1 679.8,195.6 768.0,189.3 768.0,197.1 679.8,198.1 591.5,192.2 503.2,190.9 415.0,230.3 238.5,270.8 62.0,208.0" fill="#ff7f0e" opacity="0.14" stroke="none"/>
<polyline points="62.0,204.0 238.5,269.1 415.0,217.3 503.2,187.3 591.5,189.7 679.8,197.3 768.0,192.8" fill="none" stroke="#ff7f0e" stroke-width="2"/>
<circle cx="62.0" cy="204.0" r="3" fill="#ff7f0e"/>
<circle cx="238.5" cy="269.1" r="3" fill="#ff7f0e"/>
<circle cx="415.0" cy="217.3" r="3" fill="#ff7f0e"/>
<circle cx="503.2" cy="187.3" r="3" fill="#ff7f0e"/>
<circle cx="591.5" cy="189.7" r="3" fill="#ff7f0e"/>
<circle cx="679.8" cy="197.3" r="3" fill="#ff7f0e"/>
<circle cx="768.0" cy="192.8" r="3" fill="#ff7f0e"/>
<line x1="782" y1="128" x2="802" y2="128" stroke="#ff7f0e" stroke-width="3"/>
<text x="806" y="132" font-size="12">zsyr2k</text>
<polygon points="62.0,175.0 238.5,184.3 415.0,166.9 503.2,186.1 591.5,187.4 679.8,195.3 768.0,205.2 768.0,210.2 679.8,199.5 591.5,196.5 503.2,205.2 415.0,200.0 238.5,203.4 62.0,186.4" fill="#17becf" opacity="0.14" stroke="none"/>
<polyline points="62.0,182.7 238.5,194.2 415.0,188.0 503.2,200.6 591.5,193.0 679.8,196.6 768.0,208.2" fill="none" stroke="#17becf" stroke-width="2"/>
<circle cx="62.0" cy="182.7" r="3" fill="#17becf"/>
<circle cx="238.5" cy="194.2" r="3" fill="#17becf"/>
<circle cx="415.0" cy="188.0" r="3" fill="#17becf"/>
<circle cx="503.2" cy="200.6" r="3" fill="#17becf"/>
<circle cx="591.5" cy="193.0" r="3" fill="#17becf"/>
<circle cx="679.8" cy="196.6" r="3" fill="#17becf"/>
<circle cx="768.0" cy="208.2" r="3" fill="#17becf"/>
<line x1="782" y1="146" x2="802" y2="146" stroke="#17becf" stroke-width="3"/>
<text x="806" y="150" font-size="12">ztrmm</text>
<polygon points="62.0,345.3 238.5,285.3 415.0,220.7 503.2,172.7 591.5,182.2 679.8,179.5 768.0,192.8 768.0,199.3 679.8,192.9 591.5,187.2 503.2,187.3 415.0,228.6 238.5,291.1 62.0,354.2" fill="#8c564b" opacity="0.14" stroke="none"/>
<polyline points="62.0,349.1 238.5,287.0 415.0,224.9 503.2,180.9 591.5,186.6 679.8,190.0 768.0,196.2" fill="none" stroke="#8c564b" stroke-width="2"/>
<circle cx="62.0" cy="349.1" r="3" fill="#8c564b"/>
<circle cx="238.5" cy="287.0" r="3" fill="#8c564b"/>
<circle cx="415.0" cy="224.9" r="3" fill="#8c564b"/>
<circle cx="503.2" cy="180.9" r="3" fill="#8c564b"/>
<circle cx="591.5" cy="186.6" r="3" fill="#8c564b"/>
<circle cx="679.8" cy="190.0" r="3" fill="#8c564b"/>
<circle cx="768.0" cy="196.2" r="3" fill="#8c564b"/>
<line x1="782" y1="164" x2="802" y2="164" stroke="#8c564b" stroke-width="3"/>
<text x="806" y="168" font-size="12">ztrsm</text>
<polygon points="62.0,153.2 238.5,158.2 415.0,143.2 503.2,174.1 591.5,190.9 679.8,201.5 768.0,200.4 768.0,204.2 679.8,207.4 591.5,206.3 503.2,191.7 415.0,151.3 238.5,171.0 62.0,177.9" fill="#e377c2" opacity="0.14" stroke="none"/>
<polyline points="62.0,159.8 238.5,165.9 415.0,145.8 503.2,188.2 591.5,199.3 679.8,205.3 768.0,202.8" fill="none" stroke="#e377c2" stroke-width="2"/>
<circle cx="62.0" cy="159.8" r="3" fill="#e377c2"/>
<circle cx="238.5" cy="165.9" r="3" fill="#e377c2"/>
<circle cx="415.0" cy="145.8" r="3" fill="#e377c2"/>
<circle cx="503.2" cy="188.2" r="3" fill="#e377c2"/>
<circle cx="591.5" cy="199.3" r="3" fill="#e377c2"/>
<circle cx="679.8" cy="205.3" r="3" fill="#e377c2"/>
<circle cx="768.0" cy="202.8" r="3" fill="#e377c2"/>
<line x1="782" y1="182" x2="802" y2="182" stroke="#e377c2" stroke-width="3"/>
<text x="806" y="186" font-size="12">ztrmmR</text>
<polygon points="62.0,327.3 238.5,281.4 415.0,210.8 503.2,164.8 591.5,170.7 679.8,183.9 768.0,197.6 768.0,199.9 679.8,189.7 591.5,186.0 503.2,177.4 415.0,218.2 238.5,293.1 62.0,343.9" fill="#1f77b4" opacity="0.14" stroke="none"/>
<polyline points="62.0,338.2 238.5,283.1 415.0,213.6 503.2,174.2 591.5,181.7 679.8,186.9 768.0,199.0" fill="none" stroke="#1f77b4" stroke-width="2"/>
<circle cx="62.0" cy="338.2" r="3" fill="#1f77b4"/>
<circle cx="238.5" cy="283.1" r="3" fill="#1f77b4"/>
<circle cx="415.0" cy="213.6" r="3" fill="#1f77b4"/>
<circle cx="503.2" cy="174.2" r="3" fill="#1f77b4"/>
<circle cx="591.5" cy="181.7" r="3" fill="#1f77b4"/>
<circle cx="679.8" cy="186.9" r="3" fill="#1f77b4"/>
<circle cx="768.0" cy="199.0" r="3" fill="#1f77b4"/>
<line x1="782" y1="200" x2="802" y2="200" stroke="#1f77b4" stroke-width="3"/>
<text x="806" y="204" font-size="12">ztrsmR</text>
<text x="415.0" y="450" text-anchor="middle" font-size="11" fill="#666">matrix size n (log) · y = median ratio (log) · dashed = the 0.96× gate</text>
</svg>
