<svg xmlns="http://www.w3.org/2000/svg" width="962" height="248" font-family="sans-serif">
<rect width="962" height="248" fill="white"/>
<text x="481.0" y="26" text-anchor="middle" font-size="17" font-weight="bold">LAPACK — PureBLAS / AOCL (PB/AOCL ratio)</text>
<line x1="46" y1="42" x2="68" y2="42" stroke="#d62728" stroke-width="3"/>
<text x="73" y="46" font-size="12">Zen3 · AVX2</text>
<line x1="176" y1="42" x2="198" y2="42" stroke="#2ca02c" stroke-width="3"/>
<text x="203" y="46" font-size="12">Zen5 · AVX-512</text>
<line x1="327" y1="42" x2="349" y2="42" stroke="#1f77b4" stroke-width="3"/>
<text x="354" y="46" font-size="12">Zen4 · AVX-512</text>
<rect x="46" y="60" width="210" height="138" fill="none" stroke="#e2e2e2"/>
<line x1="46" y1="152.21392279476612" x2="256" y2="152.21392279476612" stroke="#d33" stroke-dasharray="4 3"/>
<text x="42" y="201.0" text-anchor="end" font-size="9" fill="#999">0.5×</text>
<text x="42" y="155.21392279476612" text-anchor="end" font-size="9" fill="#999">1.0×</text>
<polygon points="46.0,92.3 92.7,66.4 139.3,103.2 162.7,126.8 186.0,123.9 209.3,124.7 232.7,114.9 256.0,110.6 256.0,113.7 232.7,115.7 209.3,125.6 186.0,124.3 162.7,127.7 139.3,104.7 92.7,74.0 46.0,94.1" fill="#d62728" opacity="0.11"/>
<polyline points="46.0,93.6 92.7,68.5 139.3,103.8 162.7,127.4 186.0,124.1 209.3,124.9 232.7,115.3 256.0,111.1" fill="none" stroke="#d62728" stroke-width="1.6"/>
<circle cx="46.0" cy="93.6" r="2" fill="#d62728"/>
<circle cx="92.7" cy="68.5" r="2" fill="#d62728"/>
<circle cx="139.3" cy="103.8" r="2" fill="#d62728"/>
<circle cx="162.7" cy="127.4" r="2" fill="#d62728"/>
<circle cx="186.0" cy="124.1" r="2" fill="#d62728"/>
<circle cx="209.3" cy="124.9" r="2" fill="#d62728"/>
<circle cx="232.7" cy="115.3" r="2" fill="#d62728"/>
<circle cx="256.0" cy="111.1" r="2" fill="#d62728"/>
<polygon points="46.0,92.8 92.7,77.0 139.3,115.1 162.7,134.2 186.0,143.2 209.3,149.1 232.7,152.9 256.0,144.0 256.0,144.3 232.7,153.5 209.3,149.5 186.0,143.8 162.7,135.0 139.3,116.4 92.7,79.0 46.0,94.9" fill="#2ca02c" opacity="0.11"/>
<polyline points="46.0,94.3 92.7,77.9 139.3,115.6 162.7,134.6 186.0,143.6 209.3,149.3 232.7,153.3 256.0,144.2" fill="none" stroke="#2ca02c" stroke-width="1.6"/>
<circle cx="46.0" cy="94.3" r="2" fill="#2ca02c"/>
<circle cx="92.7" cy="77.9" r="2" fill="#2ca02c"/>
<circle cx="139.3" cy="115.6" r="2" fill="#2ca02c"/>
<circle cx="162.7" cy="134.6" r="2" fill="#2ca02c"/>
<circle cx="186.0" cy="143.6" r="2" fill="#2ca02c"/>
<circle cx="209.3" cy="149.3" r="2" fill="#2ca02c"/>
<circle cx="232.7" cy="153.3" r="2" fill="#2ca02c"/>
<circle cx="256.0" cy="144.2" r="2" fill="#2ca02c"/>
<polygon points="46.0,92.7 92.7,65.1 139.3,107.3 162.7,128.6 186.0,129.5 209.3,142.7 232.7,137.6 256.0,110.6 256.0,135.3 232.7,145.2 209.3,144.6 186.0,131.2 162.7,130.7 139.3,108.7 92.7,72.4 46.0,95.0" fill="#1f77b4" opacity="0.11"/>
<polyline points="46.0,94.0 92.7,70.1 139.3,108.0 162.7,130.1 186.0,130.2 209.3,143.7 232.7,139.8 256.0,119.8" fill="none" stroke="#1f77b4" stroke-width="1.6"/>
<circle cx="46.0" cy="94.0" r="2" fill="#1f77b4"/>
<circle cx="92.7" cy="70.1" r="2" fill="#1f77b4"/>
<circle cx="139.3" cy="108.0" r="2" fill="#1f77b4"/>
<circle cx="162.7" cy="130.1" r="2" fill="#1f77b4"/>
<circle cx="186.0" cy="130.2" r="2" fill="#1f77b4"/>
<circle cx="209.3" cy="143.7" r="2" fill="#1f77b4"/>
<circle cx="232.7" cy="139.8" r="2" fill="#1f77b4"/>
<circle cx="256.0" cy="119.8" r="2" fill="#1f77b4"/>
<text x="151.0" y="55" text-anchor="middle" font-size="12" font-weight="bold">potrf</text>
<line x1="46.0" y1="60" x2="46.0" y2="198" stroke="#f4f4f4"/>
<text x="46.0" y="209" text-anchor="middle" font-size="8" fill="#999">8</text>
<line x1="92.7" y1="60" x2="92.7" y2="198" stroke="#f4f4f4"/>
<text x="92.7" y="209" text-anchor="middle" font-size="8" fill="#999">32</text>
<line x1="139.3" y1="60" x2="139.3" y2="198" stroke="#f4f4f4"/>
<text x="139.3" y="209" text-anchor="middle" font-size="8" fill="#999">128</text>
<line x1="162.7" y1="60" x2="162.7" y2="198" stroke="#f4f4f4"/>
<text x="162.7" y="209" text-anchor="middle" font-size="8" fill="#999">256</text>
<line x1="186.0" y1="60" x2="186.0" y2="198" stroke="#f4f4f4"/>
<text x="186.0" y="209" text-anchor="middle" font-size="8" fill="#999">512</text>
<line x1="209.3" y1="60" x2="209.3" y2="198" stroke="#f4f4f4"/>
<text x="209.3" y="209" text-anchor="middle" font-size="8" fill="#999">1k</text>
<line x1="232.7" y1="60" x2="232.7" y2="198" stroke="#f4f4f4"/>
<text x="232.7" y="209" text-anchor="middle" font-size="8" fill="#999">2k</text>
<line x1="256.0" y1="60" x2="256.0" y2="198" stroke="#f4f4f4"/>
<text x="256.0" y="209" text-anchor="middle" font-size="8" fill="#999">4k</text>
<rect x="276" y="60" width="210" height="138" fill="none" stroke="#e2e2e2"/>
<line x1="276" y1="135.69750408142366" x2="486" y2="135.69750408142366" stroke="#d33" stroke-dasharray="4 3"/>
<text x="272" y="201.0" text-anchor="end" font-size="9" fill="#999">0.5×</text>
<text x="272" y="138.69750408142366" text-anchor="end" font-size="9" fill="#999">1.0×</text>
<text x="272" y="63.05449835128558" text-anchor="end" font-size="9" fill="#999">2.32×</text>
<polygon points="276.0,108.1 322.7,131.8 369.3,77.6 392.7,89.8 416.0,85.7 439.3,80.7 462.7,76.6 486.0,78.2 486.0,79.0 462.7,77.2 439.3,81.4 416.0,89.4 392.7,91.0 369.3,78.0 322.7,134.6 276.0,113.1" fill="#d62728" opacity="0.11"/>
<polyline points="276.0,110.5 322.7,133.5 369.3,77.8 392.7,90.4 416.0,87.2 439.3,80.8 462.7,76.9 486.0,78.8" fill="none" stroke="#d62728" stroke-width="1.6"/>
<circle cx="276.0" cy="110.5" r="2" fill="#d62728"/>
<circle cx="322.7" cy="133.5" r="2" fill="#d62728"/>
<circle cx="369.3" cy="77.8" r="2" fill="#d62728"/>
<circle cx="392.7" cy="90.4" r="2" fill="#d62728"/>
<circle cx="416.0" cy="87.2" r="2" fill="#d62728"/>
<circle cx="439.3" cy="80.8" r="2" fill="#d62728"/>
<circle cx="462.7" cy="76.9" r="2" fill="#d62728"/>
<circle cx="486.0" cy="78.8" r="2" fill="#d62728"/>
<polygon points="276.0,112.0 322.7,135.6 369.3,68.6 392.7,81.3 416.0,90.6 439.3,103.3 462.7,111.6 486.0,117.5 486.0,117.8 462.7,112.3 439.3,103.8 416.0,91.3 392.7,82.1 369.3,69.1 322.7,139.5 276.0,119.0" fill="#2ca02c" opacity="0.11"/>
<polyline points="276.0,117.4 322.7,137.1 369.3,68.9 392.7,81.8 416.0,90.9 439.3,103.6 462.7,112.0 486.0,117.6" fill="none" stroke="#2ca02c" stroke-width="1.6"/>
<circle cx="276.0" cy="117.4" r="2" fill="#2ca02c"/>
<circle cx="322.7" cy="137.1" r="2" fill="#2ca02c"/>
<circle cx="369.3" cy="68.9" r="2" fill="#2ca02c"/>
<circle cx="392.7" cy="81.8" r="2" fill="#2ca02c"/>
<circle cx="416.0" cy="90.9" r="2" fill="#2ca02c"/>
<circle cx="439.3" cy="103.6" r="2" fill="#2ca02c"/>
<circle cx="462.7" cy="112.0" r="2" fill="#2ca02c"/>
<circle cx="486.0" cy="117.6" r="2" fill="#2ca02c"/>
<polygon points="276.0,112.3 322.7,136.2 369.3,66.9 392.7,75.2 416.0,69.7 439.3,87.2 462.7,100.0 486.0,111.0 486.0,115.0 462.7,105.6 439.3,88.1 416.0,70.8 392.7,76.7 369.3,67.7 322.7,140.0 276.0,119.0" fill="#1f77b4" opacity="0.11"/>
<polyline points="276.0,116.8 322.7,138.4 369.3,67.2 392.7,76.0 416.0,70.2 439.3,87.6 462.7,100.2 486.0,112.9" fill="none" stroke="#1f77b4" stroke-width="1.6"/>
<circle cx="276.0" cy="116.8" r="2" fill="#1f77b4"/>
<circle cx="322.7" cy="138.4" r="2" fill="#1f77b4"/>
<circle cx="369.3" cy="67.2" r="2" fill="#1f77b4"/>
<circle cx="392.7" cy="76.0" r="2" fill="#1f77b4"/>
<circle cx="416.0" cy="70.2" r="2" fill="#1f77b4"/>
<circle cx="439.3" cy="87.6" r="2" fill="#1f77b4"/>
<circle cx="462.7" cy="100.2" r="2" fill="#1f77b4"/>
<circle cx="486.0" cy="112.9" r="2" fill="#1f77b4"/>
<text x="381.0" y="55" text-anchor="middle" font-size="12" font-weight="bold">geqrf</text>
<line x1="276.0" y1="60" x2="276.0" y2="198" stroke="#f4f4f4"/>
<text x="276.0" y="209" text-anchor="middle" font-size="8" fill="#999">8</text>
<line x1="322.7" y1="60" x2="322.7" y2="198" stroke="#f4f4f4"/>
<text x="322.7" y="209" text-anchor="middle" font-size="8" fill="#999">32</text>
<line x1="369.3" y1="60" x2="369.3" y2="198" stroke="#f4f4f4"/>
<text x="369.3" y="209" text-anchor="middle" font-size="8" fill="#999">128</text>
<line x1="392.7" y1="60" x2="392.7" y2="198" stroke="#f4f4f4"/>
<text x="392.7" y="209" text-anchor="middle" font-size="8" fill="#999">256</text>
<line x1="416.0" y1="60" x2="416.0" y2="198" stroke="#f4f4f4"/>
<text x="416.0" y="209" text-anchor="middle" font-size="8" fill="#999">512</text>
<line x1="439.3" y1="60" x2="439.3" y2="198" stroke="#f4f4f4"/>
<text x="439.3" y="209" text-anchor="middle" font-size="8" fill="#999">1k</text>
<line x1="462.7" y1="60" x2="462.7" y2="198" stroke="#f4f4f4"/>
<text x="462.7" y="209" text-anchor="middle" font-size="8" fill="#999">2k</text>
<line x1="486.0" y1="60" x2="486.0" y2="198" stroke="#f4f4f4"/>
<text x="486.0" y="209" text-anchor="middle" font-size="8" fill="#999">4k</text>
<rect x="506" y="60" width="210" height="138" fill="none" stroke="#e2e2e2"/>
<line x1="506" y1="164.19517296581176" x2="716" y2="164.19517296581176" stroke="#d33" stroke-dasharray="4 3"/>
<text x="502" y="201.0" text-anchor="end" font-size="9" fill="#999">0.5×</text>
<text x="502" y="167.19517296581176" text-anchor="end" font-size="9" fill="#999">1.0×</text>
<polygon points="506.0,155.3 552.7,163.9 599.3,135.6 622.7,142.6 646.0,132.4 669.3,139.9 692.7,150.2 716.0,156.9 716.0,157.8 692.7,151.8 669.3,142.1 646.0,136.4 622.7,147.5 599.3,136.7 552.7,166.7 506.0,155.7" fill="#d62728" opacity="0.11"/>
<polyline points="506.0,155.5 552.7,165.9 599.3,136.6 622.7,144.1 646.0,134.7 669.3,141.2 692.7,151.3 716.0,157.1" fill="none" stroke="#d62728" stroke-width="1.6"/>
<circle cx="506.0" cy="155.5" r="2" fill="#d62728"/>
<circle cx="552.7" cy="165.9" r="2" fill="#d62728"/>
<circle cx="599.3" cy="136.6" r="2" fill="#d62728"/>
<circle cx="622.7" cy="144.1" r="2" fill="#d62728"/>
<circle cx="646.0" cy="134.7" r="2" fill="#d62728"/>
<circle cx="669.3" cy="141.2" r="2" fill="#d62728"/>
<circle cx="692.7" cy="151.3" r="2" fill="#d62728"/>
<circle cx="716.0" cy="157.1" r="2" fill="#d62728"/>
<polygon points="506.0,155.5 552.7,165.7 599.3,63.8 622.7,139.0 646.0,122.3 669.3,134.8 692.7,147.5 716.0,155.0 716.0,155.2 692.7,148.1 669.3,135.3 646.0,122.6 622.7,139.5 599.3,64.3 552.7,166.5 506.0,157.7" fill="#2ca02c" opacity="0.11"/>
<polyline points="506.0,156.5 552.7,166.2 599.3,64.0 622.7,139.3 646.0,122.4 669.3,134.9 692.7,147.9 716.0,155.1" fill="none" stroke="#2ca02c" stroke-width="1.6"/>
<circle cx="506.0" cy="156.5" r="2" fill="#2ca02c"/>
<circle cx="552.7" cy="166.2" r="2" fill="#2ca02c"/>
<circle cx="599.3" cy="64.0" r="2" fill="#2ca02c"/>
<circle cx="622.7" cy="139.3" r="2" fill="#2ca02c"/>
<circle cx="646.0" cy="122.4" r="2" fill="#2ca02c"/>
<circle cx="669.3" cy="134.9" r="2" fill="#2ca02c"/>
<circle cx="692.7" cy="147.9" r="2" fill="#2ca02c"/>
<circle cx="716.0" cy="155.1" r="2" fill="#2ca02c"/>
<polygon points="506.0,156.2 552.7,164.5 599.3,70.0 622.7,148.5 646.0,129.4 669.3,133.6 692.7,138.3 716.0,142.9 716.0,151.3 692.7,141.9 669.3,140.5 646.0,131.9 622.7,150.5 599.3,71.5 552.7,165.1 506.0,157.4" fill="#1f77b4" opacity="0.11"/>
<polyline points="506.0,156.6 552.7,164.9 599.3,70.6 622.7,149.3 646.0,130.8 669.3,134.2 692.7,138.8 716.0,151.2" fill="none" stroke="#1f77b4" stroke-width="1.6"/>
<circle cx="506.0" cy="156.6" r="2" fill="#1f77b4"/>
<circle cx="552.7" cy="164.9" r="2" fill="#1f77b4"/>
<circle cx="599.3" cy="70.6" r="2" fill="#1f77b4"/>
<circle cx="622.7" cy="149.3" r="2" fill="#1f77b4"/>
<circle cx="646.0" cy="130.8" r="2" fill="#1f77b4"/>
<circle cx="669.3" cy="134.2" r="2" fill="#1f77b4"/>
<circle cx="692.7" cy="138.8" r="2" fill="#1f77b4"/>
<circle cx="716.0" cy="151.2" r="2" fill="#1f77b4"/>
<text x="611.0" y="55" text-anchor="middle" font-size="12" font-weight="bold">getrf</text>
<line x1="506.0" y1="60" x2="506.0" y2="198" stroke="#f4f4f4"/>
<text x="506.0" y="209" text-anchor="middle" font-size="8" fill="#999">8</text>
<line x1="552.7" y1="60" x2="552.7" y2="198" stroke="#f4f4f4"/>
<text x="552.7" y="209" text-anchor="middle" font-size="8" fill="#999">32</text>
<line x1="599.3" y1="60" x2="599.3" y2="198" stroke="#f4f4f4"/>
<text x="599.3" y="209" text-anchor="middle" font-size="8" fill="#999">128</text>
<line x1="622.7" y1="60" x2="622.7" y2="198" stroke="#f4f4f4"/>
<text x="622.7" y="209" text-anchor="middle" font-size="8" fill="#999">256</text>
<line x1="646.0" y1="60" x2="646.0" y2="198" stroke="#f4f4f4"/>
<text x="646.0" y="209" text-anchor="middle" font-size="8" fill="#999">512</text>
<line x1="669.3" y1="60" x2="669.3" y2="198" stroke="#f4f4f4"/>
<text x="669.3" y="209" text-anchor="middle" font-size="8" fill="#999">1k</text>
<line x1="692.7" y1="60" x2="692.7" y2="198" stroke="#f4f4f4"/>
<text x="692.7" y="209" text-anchor="middle" font-size="8" fill="#999">2k</text>
<line x1="716.0" y1="60" x2="716.0" y2="198" stroke="#f4f4f4"/>
<text x="716.0" y="209" text-anchor="middle" font-size="8" fill="#999">4k</text>
<rect x="736" y="60" width="210" height="138" fill="none" stroke="#e2e2e2"/>
<line x1="736" y1="133.09467667477514" x2="946" y2="133.09467667477514" stroke="#d33" stroke-dasharray="4 3"/>
<text x="732" y="201.0" text-anchor="end" font-size="9" fill="#999">0.5×</text>
<text x="732" y="136.09467667477514" text-anchor="end" font-size="9" fill="#999">1.0×</text>
<text x="732" y="63.119795548810146" text-anchor="end" font-size="9" fill="#999">2.18×</text>
<polygon points="736.0,67.2 788.5,112.2 841.0,115.7 867.2,110.9 893.5,100.2 919.8,100.2 946.0,95.7 946.0,102.3 919.8,104.6 893.5,104.3 867.2,116.1 841.0,117.9 788.5,114.0 736.0,68.0" fill="#d62728" opacity="0.11"/>
<polyline points="736.0,67.6 788.5,113.6 841.0,117.7 867.2,111.8 893.5,103.5 919.8,103.2 946.0,98.3" fill="none" stroke="#d62728" stroke-width="1.6"/>
<circle cx="736.0" cy="67.6" r="2" fill="#d62728"/>
<circle cx="788.5" cy="113.6" r="2" fill="#d62728"/>
<circle cx="841.0" cy="117.7" r="2" fill="#d62728"/>
<circle cx="867.2" cy="111.8" r="2" fill="#d62728"/>
<circle cx="893.5" cy="103.5" r="2" fill="#d62728"/>
<circle cx="919.8" cy="103.2" r="2" fill="#d62728"/>
<circle cx="946.0" cy="98.3" r="2" fill="#d62728"/>
<polygon points="736.0,71.9 788.5,110.2 841.0,124.8 867.2,121.9 893.5,117.8 919.8,120.5 946.0,123.0 946.0,126.9 919.8,124.1 893.5,119.5 867.2,122.5 841.0,125.8 788.5,113.9 736.0,73.1" fill="#2ca02c" opacity="0.11"/>
<polyline points="736.0,72.5 788.5,113.5 841.0,125.5 867.2,122.3 893.5,119.1 919.8,123.0 946.0,125.2" fill="none" stroke="#2ca02c" stroke-width="1.6"/>
<circle cx="736.0" cy="72.5" r="2" fill="#2ca02c"/>
<circle cx="788.5" cy="113.5" r="2" fill="#2ca02c"/>
<circle cx="841.0" cy="125.5" r="2" fill="#2ca02c"/>
<circle cx="867.2" cy="122.3" r="2" fill="#2ca02c"/>
<circle cx="893.5" cy="119.1" r="2" fill="#2ca02c"/>
<circle cx="919.8" cy="123.0" r="2" fill="#2ca02c"/>
<circle cx="946.0" cy="125.2" r="2" fill="#2ca02c"/>
<polygon points="736.0,71.0 788.5,110.9 841.0,125.4 867.2,117.0 893.5,109.4 919.8,108.9 946.0,108.5 946.0,118.0 919.8,111.7 893.5,110.5 867.2,117.5 841.0,125.8 788.5,114.0 736.0,78.1" fill="#1f77b4" opacity="0.11"/>
<polyline points="736.0,71.2 788.5,113.8 841.0,125.7 867.2,117.3 893.5,109.9 919.8,110.3 946.0,113.6" fill="none" stroke="#1f77b4" stroke-width="1.6"/>
<circle cx="736.0" cy="71.2" r="2" fill="#1f77b4"/>
<circle cx="788.5" cy="113.8" r="2" fill="#1f77b4"/>
<circle cx="841.0" cy="125.7" r="2" fill="#1f77b4"/>
<circle cx="867.2" cy="117.3" r="2" fill="#1f77b4"/>
<circle cx="893.5" cy="109.9" r="2" fill="#1f77b4"/>
<circle cx="919.8" cy="110.3" r="2" fill="#1f77b4"/>
<circle cx="946.0" cy="113.6" r="2" fill="#1f77b4"/>
<text x="841.0" y="55" text-anchor="middle" font-size="12" font-weight="bold">gesvd</text>
<line x1="736.0" y1="60" x2="736.0" y2="198" stroke="#f4f4f4"/>
<text x="736.0" y="209" text-anchor="middle" font-size="8" fill="#999">8</text>
<line x1="788.5" y1="60" x2="788.5" y2="198" stroke="#f4f4f4"/>
<text x="788.5" y="209" text-anchor="middle" font-size="8" fill="#999">32</text>
<line x1="841.0" y1="60" x2="841.0" y2="198" stroke="#f4f4f4"/>
<text x="841.0" y="209" text-anchor="middle" font-size="8" fill="#999">128</text>
<line x1="867.2" y1="60" x2="867.2" y2="198" stroke="#f4f4f4"/>
<text x="867.2" y="209" text-anchor="middle" font-size="8" fill="#999">256</text>
<line x1="893.5" y1="60" x2="893.5" y2="198" stroke="#f4f4f4"/>
<text x="893.5" y="209" text-anchor="middle" font-size="8" fill="#999">512</text>
<line x1="919.8" y1="60" x2="919.8" y2="198" stroke="#f4f4f4"/>
<text x="919.8" y="209" text-anchor="middle" font-size="8" fill="#999">1k</text>
<line x1="946.0" y1="60" x2="946.0" y2="198" stroke="#f4f4f4"/>
<text x="946.0" y="209" text-anchor="middle" font-size="8" fill="#999">2k</text>
</svg>
