<svg xmlns="http://www.w3.org/2000/svg" width="900" height="460" font-family="sans-serif">
<rect width="900" height="460" fill="white"/>
<text x="450.0" y="28" text-anchor="middle" font-size="18" font-weight="bold">BLAS-3: PureBLAS / OpenBLAS (AVX-512, 1 thread, Float64)</text>
<line x1="62" y1="400.0" x2="768" y2="400.0" stroke="#eee"/>
<text x="54" y="404.0" text-anchor="end" font-size="11" fill="#666">0.5×</text>
<line x1="62" y1="322.6384950894953" x2="768" y2="322.6384950894953" stroke="#eee"/>
<text x="54" y="326.6384950894953" text-anchor="end" font-size="11" fill="#666">0.7×</text>
<line x1="62" y1="240.6319952247434" x2="768" y2="240.6319952247434" stroke="#eee"/>
<text x="54" y="244.6319952247434" text-anchor="end" font-size="11" fill="#666">1.0×</text>
<line x1="62" y1="147.40768861646814" x2="768" y2="147.40768861646814" stroke="#eee"/>
<text x="54" y="151.40768861646814" text-anchor="end" font-size="11" fill="#666">1.5×</text>
<line x1="62" y1="81.26399044948676" x2="768" y2="81.26399044948676" stroke="#eee"/>
<text x="54" y="85.26399044948676" text-anchor="end" font-size="11" fill="#666">2.0×</text>
<line x1="62.0" y1="50" x2="62.0" y2="400" stroke="#f4f4f4"/>
<text x="62.0" y="418" text-anchor="middle" font-size="11" fill="#444">8</text>
<line x1="238.5" y1="50" x2="238.5" y2="400" stroke="#f4f4f4"/>
<text x="238.5" y="418" text-anchor="middle" font-size="11" fill="#444">32</text>
<line x1="415.0" y1="50" x2="415.0" y2="400" stroke="#f4f4f4"/>
<text x="415.0" y="418" text-anchor="middle" font-size="11" fill="#444">128</text>
<line x1="503.25" y1="50" x2="503.25" y2="400" stroke="#f4f4f4"/>
<text x="503.25" y="418" text-anchor="middle" font-size="11" fill="#444">256</text>
<line x1="591.5" y1="50" x2="591.5" y2="400" stroke="#f4f4f4"/>
<text x="591.5" y="418" text-anchor="middle" font-size="11" fill="#444">512</text>
<line x1="679.75" y1="50" x2="679.75" y2="400" stroke="#f4f4f4"/>
<text x="679.75" y="418" text-anchor="middle" font-size="11" fill="#444">1024</text>
<line x1="768.0" y1="50" x2="768.0" y2="400" stroke="#f4f4f4"/>
<text x="768.0" y="418" text-anchor="middle" font-size="11" fill="#444">2048</text>
<line x1="62" y1="240.6319952247434" x2="768" y2="240.6319952247434" stroke="#888"/>
<line x1="62" y1="250.017764943065" x2="768" y2="250.017764943065" stroke="#d33" stroke-width="1.5" stroke-dasharray="6 4"/>
<text x="66" y="245.017764943065" font-size="11" fill="#d33">0.96× gate</text>
<polygon points="62.0,234.4 238.5,281.5 415.0,194.4 503.2,220.8 591.5,238.2 679.8,236.0 768.0,219.7 768.0,219.8 679.8,236.7 591.5,240.3 503.2,225.7 415.0,206.1 238.5,291.8 62.0,238.1" fill="#1f77b4" opacity="0.14" stroke="none"/>
<polyline points="62.0,236.0 238.5,287.9 415.0,198.4 503.2,224.7 591.5,239.5 679.8,236.3 768.0,219.7" fill="none" stroke="#1f77b4" stroke-width="2"/>
<circle cx="62.0" cy="236.0" r="3" fill="#1f77b4"/>
<circle cx="238.5" cy="287.9" r="3" fill="#1f77b4"/>
<circle cx="415.0" cy="198.4" r="3" fill="#1f77b4"/>
<circle cx="503.2" cy="224.7" r="3" fill="#1f77b4"/>
<circle cx="591.5" cy="239.5" r="3" fill="#1f77b4"/>
<circle cx="679.8" cy="236.3" r="3" fill="#1f77b4"/>
<circle cx="768.0" cy="219.7" r="3" fill="#1f77b4"/>
<line x1="782" y1="56" x2="802" y2="56" stroke="#1f77b4" stroke-width="3"/>
<text x="806" y="60" font-size="12">gemm</text>
<polygon points="62.0,110.9 238.5,157.6 415.0,202.0 503.2,205.4 591.5,211.8 679.8,211.5 768.0,213.5 768.0,214.0 679.8,212.5 591.5,212.3 503.2,210.2 415.0,207.9 238.5,160.6 62.0,113.8" fill="#d62728" opacity="0.14" stroke="none"/>
<polyline points="62.0,112.6 238.5,159.0 415.0,204.0 503.2,206.8 591.5,212.1 679.8,211.9 768.0,213.7" fill="none" stroke="#d62728" stroke-width="2"/>
<circle cx="62.0" cy="112.6" r="3" fill="#d62728"/>
<circle cx="238.5" cy="159.0" r="3" fill="#d62728"/>
<circle cx="415.0" cy="204.0" r="3" fill="#d62728"/>
<circle cx="503.2" cy="206.8" r="3" fill="#d62728"/>
<circle cx="591.5" cy="212.1" r="3" fill="#d62728"/>
<circle cx="679.8" cy="211.9" r="3" fill="#d62728"/>
<circle cx="768.0" cy="213.7" r="3" fill="#d62728"/>
<line x1="782" y1="74" x2="802" y2="74" stroke="#d62728" stroke-width="3"/>
<text x="806" y="78" font-size="12">zgemm</text>
<polygon points="62.0,181.8 238.5,200.3 415.0,205.6 503.2,243.0 591.5,237.6 679.8,236.0 768.0,242.5 768.0,242.7 679.8,237.1 591.5,238.0 503.2,244.1 415.0,217.1 238.5,206.8 62.0,193.6" fill="#2ca02c" opacity="0.14" stroke="none"/>
<polyline points="62.0,191.5 238.5,205.3 415.0,210.7 503.2,243.5 591.5,237.8 679.8,236.9 768.0,242.5" fill="none" stroke="#2ca02c" stroke-width="2"/>
<circle cx="62.0" cy="191.5" r="3" fill="#2ca02c"/>
<circle cx="238.5" cy="205.3" r="3" fill="#2ca02c"/>
<circle cx="415.0" cy="210.7" r="3" fill="#2ca02c"/>
<circle cx="503.2" cy="243.5" r="3" fill="#2ca02c"/>
<circle cx="591.5" cy="237.8" r="3" fill="#2ca02c"/>
<circle cx="679.8" cy="236.9" r="3" fill="#2ca02c"/>
<circle cx="768.0" cy="242.5" r="3" fill="#2ca02c"/>
<line x1="782" y1="92" x2="802" y2="92" stroke="#2ca02c" stroke-width="3"/>
<text x="806" y="96" font-size="12">symm</text>
<polygon points="62.0,177.4 238.5,195.8 415.0,200.8 503.2,213.9 591.5,221.0 679.8,235.5 768.0,249.3 768.0,250.0 679.8,236.5 591.5,223.6 503.2,221.1 415.0,210.3 238.5,203.8 62.0,183.9" fill="#9467bd" opacity="0.14" stroke="none"/>
<polyline points="62.0,183.6 238.5,196.3 415.0,205.1 503.2,217.7 591.5,222.0 679.8,235.7 768.0,249.7" fill="none" stroke="#9467bd" stroke-width="2"/>
<circle cx="62.0" cy="183.6" r="3" fill="#9467bd"/>
<circle cx="238.5" cy="196.3" r="3" fill="#9467bd"/>
<circle cx="415.0" cy="205.1" r="3" fill="#9467bd"/>
<circle cx="503.2" cy="217.7" r="3" fill="#9467bd"/>
<circle cx="591.5" cy="222.0" r="3" fill="#9467bd"/>
<circle cx="679.8" cy="235.7" r="3" fill="#9467bd"/>
<circle cx="768.0" cy="249.7" r="3" fill="#9467bd"/>
<line x1="782" y1="110" x2="802" y2="110" stroke="#9467bd" stroke-width="3"/>
<text x="806" y="114" font-size="12">syrk</text>
<polygon points="62.0,133.5 238.5,173.5 415.0,181.3 503.2,201.6 591.5,226.7 679.8,242.5 768.0,249.5 768.0,249.8 679.8,244.1 591.5,228.4 503.2,208.8 415.0,194.3 238.5,179.8 62.0,164.5" fill="#ff7f0e" opacity="0.14" stroke="none"/>
<polyline points="62.0,157.9 238.5,175.5 415.0,188.2 503.2,206.8 591.5,227.5 679.8,243.0 768.0,249.6" fill="none" stroke="#ff7f0e" stroke-width="2"/>
<circle cx="62.0" cy="157.9" r="3" fill="#ff7f0e"/>
<circle cx="238.5" cy="175.5" r="3" fill="#ff7f0e"/>
<circle cx="415.0" cy="188.2" r="3" fill="#ff7f0e"/>
<circle cx="503.2" cy="206.8" r="3" fill="#ff7f0e"/>
<circle cx="591.5" cy="227.5" r="3" fill="#ff7f0e"/>
<circle cx="679.8" cy="243.0" r="3" fill="#ff7f0e"/>
<circle cx="768.0" cy="249.6" r="3" fill="#ff7f0e"/>
<line x1="782" y1="128" x2="802" y2="128" stroke="#ff7f0e" stroke-width="3"/>
<text x="806" y="132" font-size="12">syr2k</text>
<polygon points="62.0,219.4 238.5,224.6 415.0,201.0 503.2,215.5 591.5,241.4 679.8,244.6 768.0,246.0 768.0,247.5 679.8,245.8 591.5,243.1 503.2,224.1 415.0,212.9 238.5,228.9 62.0,230.9" fill="#17becf" opacity="0.14" stroke="none"/>
<polyline points="62.0,223.7 238.5,227.5 415.0,211.5 503.2,217.7 591.5,242.3 679.8,245.0 768.0,247.1" fill="none" stroke="#17becf" stroke-width="2"/>
<circle cx="62.0" cy="223.7" r="3" fill="#17becf"/>
<circle cx="238.5" cy="227.5" r="3" fill="#17becf"/>
<circle cx="415.0" cy="211.5" r="3" fill="#17becf"/>
<circle cx="503.2" cy="217.7" r="3" fill="#17becf"/>
<circle cx="591.5" cy="242.3" r="3" fill="#17becf"/>
<circle cx="679.8" cy="245.0" r="3" fill="#17becf"/>
<circle cx="768.0" cy="247.1" r="3" fill="#17becf"/>
<line x1="782" y1="146" x2="802" y2="146" stroke="#17becf" stroke-width="3"/>
<text x="806" y="150" font-size="12">trmm</text>
<polygon points="62.0,170.0 238.5,102.6 415.0,80.1 503.2,80.7 591.5,168.8 679.8,197.4 768.0,227.6 768.0,231.4 679.8,198.6 591.5,170.7 503.2,97.8 415.0,84.4 238.5,113.2 62.0,180.7" fill="#8c564b" opacity="0.14" stroke="none"/>
<polyline points="62.0,173.5 238.5,106.6 415.0,82.1 503.2,84.7 591.5,170.2 679.8,198.0 768.0,227.9" fill="none" stroke="#8c564b" stroke-width="2"/>
<circle cx="62.0" cy="173.5" r="3" fill="#8c564b"/>
<circle cx="238.5" cy="106.6" r="3" fill="#8c564b"/>
<circle cx="415.0" cy="82.1" r="3" fill="#8c564b"/>
<circle cx="503.2" cy="84.7" r="3" fill="#8c564b"/>
<circle cx="591.5" cy="170.2" r="3" fill="#8c564b"/>
<circle cx="679.8" cy="198.0" r="3" fill="#8c564b"/>
<circle cx="768.0" cy="227.9" r="3" fill="#8c564b"/>
<line x1="782" y1="164" x2="802" y2="164" stroke="#8c564b" stroke-width="3"/>
<text x="806" y="168" font-size="12">trsm</text>
<text x="415.0" y="450" text-anchor="middle" font-size="11" fill="#666">matrix size n (log) · y = median ratio (log) · dashed = the 0.96× gate</text>
</svg>
