<svg xmlns="http://www.w3.org/2000/svg" width="900" height="460" font-family="sans-serif">
<rect width="900" height="460" fill="white"/>
<text x="450.0" y="28" text-anchor="middle" font-size="18" font-weight="bold">Complex BLAS-3: PureBLAS / OpenBLAS (AVX-512, 1 thread, ComplexF64)</text>
<line x1="62" y1="400.0" x2="768" y2="400.0" stroke="#eee"/>
<text x="54" y="404.0" text-anchor="end" font-size="11" fill="#666">0.5×</text>
<line x1="62" y1="306.91781734206256" x2="768" y2="306.91781734206256" stroke="#eee"/>
<text x="54" y="310.91781734206256" text-anchor="end" font-size="11" fill="#666">0.7×</text>
<line x1="62" y1="208.24672752317204" x2="768" y2="208.24672752317204" stroke="#eee"/>
<text x="54" y="212.24672752317204" text-anchor="end" font-size="11" fill="#666">1.0×</text>
<line x1="62" y1="96.0782537336615" x2="768" y2="96.0782537336615" stroke="#eee"/>
<text x="54" y="100.0782537336615" text-anchor="end" font-size="11" fill="#666">1.5×</text>
<line x1="62.0" y1="50" x2="62.0" y2="400" stroke="#f4f4f4"/>
<text x="62.0" y="418" text-anchor="middle" font-size="11" fill="#444">8</text>
<line x1="238.5" y1="50" x2="238.5" y2="400" stroke="#f4f4f4"/>
<text x="238.5" y="418" text-anchor="middle" font-size="11" fill="#444">32</text>
<line x1="415.0" y1="50" x2="415.0" y2="400" stroke="#f4f4f4"/>
<text x="415.0" y="418" text-anchor="middle" font-size="11" fill="#444">128</text>
<line x1="503.25" y1="50" x2="503.25" y2="400" stroke="#f4f4f4"/>
<text x="503.25" y="418" text-anchor="middle" font-size="11" fill="#444">256</text>
<line x1="591.5" y1="50" x2="591.5" y2="400" stroke="#f4f4f4"/>
<text x="591.5" y="418" text-anchor="middle" font-size="11" fill="#444">512</text>
<line x1="679.75" y1="50" x2="679.75" y2="400" stroke="#f4f4f4"/>
<text x="679.75" y="418" text-anchor="middle" font-size="11" fill="#444">1024</text>
<line x1="768.0" y1="50" x2="768.0" y2="400" stroke="#f4f4f4"/>
<text x="768.0" y="418" text-anchor="middle" font-size="11" fill="#444">2048</text>
<line x1="62" y1="208.24672752317204" x2="768" y2="208.24672752317204" stroke="#888"/>
<line x1="62" y1="219.53978512742654" x2="768" y2="219.53978512742654" stroke="#d33" stroke-width="1.5" stroke-dasharray="6 4"/>
<text x="66" y="214.53978512742654" font-size="11" fill="#d33">0.96× gate</text>
<polygon points="62.0,129.0 238.5,114.4 415.0,162.6 503.2,168.4 591.5,176.6 679.8,174.3 768.0,174.8 768.0,176.8 679.8,174.9 591.5,178.4 503.2,175.8 415.0,166.1 238.5,121.7 62.0,144.6" fill="#1f77b4" opacity="0.14" stroke="none"/>
<polyline points="62.0,134.1 238.5,119.0 415.0,164.2 503.2,172.8 591.5,177.4 679.8,174.7 768.0,176.1" fill="none" stroke="#1f77b4" stroke-width="2"/>
<circle cx="62.0" cy="134.1" r="3" fill="#1f77b4"/>
<circle cx="238.5" cy="119.0" r="3" fill="#1f77b4"/>
<circle cx="415.0" cy="164.2" r="3" fill="#1f77b4"/>
<circle cx="503.2" cy="172.8" r="3" fill="#1f77b4"/>
<circle cx="591.5" cy="177.4" r="3" fill="#1f77b4"/>
<circle cx="679.8" cy="174.7" r="3" fill="#1f77b4"/>
<circle cx="768.0" cy="176.1" r="3" fill="#1f77b4"/>
<line x1="782" y1="56" x2="802" y2="56" stroke="#1f77b4" stroke-width="3"/>
<text x="806" y="60" font-size="12">zgemm</text>
<polygon points="62.0,316.1 238.5,155.8 415.0,183.9 503.2,174.2 591.5,179.1 679.8,173.2 768.0,177.4 768.0,177.8 679.8,174.1 591.5,180.8 503.2,179.5 415.0,188.3 238.5,164.8 62.0,329.3" fill="#d62728" opacity="0.14" stroke="none"/>
<polyline points="62.0,318.9 238.5,161.2 415.0,185.8 503.2,178.2 591.5,180.1 679.8,173.5 768.0,177.4" fill="none" stroke="#d62728" stroke-width="2"/>
<circle cx="62.0" cy="318.9" r="3" fill="#d62728"/>
<circle cx="238.5" cy="161.2" r="3" fill="#d62728"/>
<circle cx="415.0" cy="185.8" r="3" fill="#d62728"/>
<circle cx="503.2" cy="178.2" r="3" fill="#d62728"/>
<circle cx="591.5" cy="180.1" r="3" fill="#d62728"/>
<circle cx="679.8" cy="173.5" r="3" fill="#d62728"/>
<circle cx="768.0" cy="177.4" r="3" fill="#d62728"/>
<line x1="782" y1="74" x2="802" y2="74" stroke="#d62728" stroke-width="3"/>
<text x="806" y="78" font-size="12">zhemm</text>
<polygon points="62.0,308.9 238.5,161.6 415.0,178.4 503.2,188.9 591.5,189.4 679.8,180.6 768.0,176.7 768.0,179.4 679.8,181.0 591.5,191.2 503.2,193.8 415.0,184.1 238.5,168.7 62.0,321.5" fill="#2ca02c" opacity="0.14" stroke="none"/>
<polyline points="62.0,311.7 238.5,165.0 415.0,182.0 503.2,190.1 591.5,190.2 679.8,180.8 768.0,176.9" fill="none" stroke="#2ca02c" stroke-width="2"/>
<circle cx="62.0" cy="311.7" r="3" fill="#2ca02c"/>
<circle cx="238.5" cy="165.0" r="3" fill="#2ca02c"/>
<circle cx="415.0" cy="182.0" r="3" fill="#2ca02c"/>
<circle cx="503.2" cy="190.1" r="3" fill="#2ca02c"/>
<circle cx="591.5" cy="190.2" r="3" fill="#2ca02c"/>
<circle cx="679.8" cy="180.8" r="3" fill="#2ca02c"/>
<circle cx="768.0" cy="176.9" r="3" fill="#2ca02c"/>
<line x1="782" y1="92" x2="802" y2="92" stroke="#2ca02c" stroke-width="3"/>
<text x="806" y="96" font-size="12">zsymm</text>
<polygon points="62.0,218.7 238.5,275.4 415.0,196.0 503.2,169.9 591.5,174.2 679.8,172.3 768.0,173.9 768.0,174.1 679.8,173.6 591.5,175.7 503.2,175.4 415.0,202.7 238.5,281.2 62.0,239.6" fill="#9467bd" opacity="0.14" stroke="none"/>
<polyline points="62.0,238.2 238.5,276.4 415.0,197.4 503.2,173.7 591.5,174.9 679.8,173.2 768.0,173.9" fill="none" stroke="#9467bd" stroke-width="2"/>
<circle cx="62.0" cy="238.2" r="3" fill="#9467bd"/>
<circle cx="238.5" cy="276.4" r="3" fill="#9467bd"/>
<circle cx="415.0" cy="197.4" r="3" fill="#9467bd"/>
<circle cx="503.2" cy="173.7" r="3" fill="#9467bd"/>
<circle cx="591.5" cy="174.9" r="3" fill="#9467bd"/>
<circle cx="679.8" cy="173.2" r="3" fill="#9467bd"/>
<circle cx="768.0" cy="173.9" r="3" fill="#9467bd"/>
<line x1="782" y1="110" x2="802" y2="110" stroke="#9467bd" stroke-width="3"/>
<text x="806" y="114" font-size="12">zsyrk</text>
<polygon points="62.0,182.4 238.5,276.7 415.0,197.9 503.2,176.0 591.5,179.3 679.8,176.7 768.0,177.9 768.0,178.6 679.8,177.4 591.5,184.3 503.2,178.8 415.0,202.3 238.5,282.9 62.0,199.1" fill="#ff7f0e" opacity="0.14" stroke="none"/>
<polyline points="62.0,187.8 238.5,281.6 415.0,198.9 503.2,177.4 591.5,181.0 679.8,176.9 768.0,178.3" fill="none" stroke="#ff7f0e" stroke-width="2"/>
<circle cx="62.0" cy="187.8" r="3" fill="#ff7f0e"/>
<circle cx="238.5" cy="281.6" r="3" fill="#ff7f0e"/>
<circle cx="415.0" cy="198.9" r="3" fill="#ff7f0e"/>
<circle cx="503.2" cy="177.4" r="3" fill="#ff7f0e"/>
<circle cx="591.5" cy="181.0" r="3" fill="#ff7f0e"/>
<circle cx="679.8" cy="176.9" r="3" fill="#ff7f0e"/>
<circle cx="768.0" cy="178.3" r="3" fill="#ff7f0e"/>
<line x1="782" y1="128" x2="802" y2="128" stroke="#ff7f0e" stroke-width="3"/>
<text x="806" y="132" font-size="12">zherk</text>
<polygon points="62.0,245.3 238.5,266.7 415.0,197.1 503.2,180.2 591.5,181.3 679.8,176.7 768.0,180.1 768.0,181.1 679.8,177.8 591.5,183.6 503.2,184.4 415.0,208.1 238.5,273.4 62.0,275.6" fill="#17becf" opacity="0.14" stroke="none"/>
<polyline points="62.0,269.4 238.5,269.4 415.0,204.3 503.2,181.2 591.5,182.3 679.8,177.0 768.0,180.8" fill="none" stroke="#17becf" stroke-width="2"/>
<circle cx="62.0" cy="269.4" r="3" fill="#17becf"/>
<circle cx="238.5" cy="269.4" r="3" fill="#17becf"/>
<circle cx="415.0" cy="204.3" r="3" fill="#17becf"/>
<circle cx="503.2" cy="181.2" r="3" fill="#17becf"/>
<circle cx="591.5" cy="182.3" r="3" fill="#17becf"/>
<circle cx="679.8" cy="177.0" r="3" fill="#17becf"/>
<circle cx="768.0" cy="180.8" r="3" fill="#17becf"/>
<line x1="782" y1="146" x2="802" y2="146" stroke="#17becf" stroke-width="3"/>
<text x="806" y="150" font-size="12">zher2k</text>
<polygon points="62.0,255.3 238.5,267.7 415.0,201.1 503.2,173.6 591.5,174.7 679.8,173.4 768.0,177.5 768.0,179.0 679.8,174.4 591.5,179.6 503.2,181.5 415.0,214.2 238.5,274.1 62.0,279.9" fill="#8c564b" opacity="0.14" stroke="none"/>
<polyline points="62.0,267.0 238.5,269.3 415.0,204.8 503.2,178.1 591.5,177.0 679.8,174.1 768.0,178.0" fill="none" stroke="#8c564b" stroke-width="2"/>
<circle cx="62.0" cy="267.0" r="3" fill="#8c564b"/>
<circle cx="238.5" cy="269.3" r="3" fill="#8c564b"/>
<circle cx="415.0" cy="204.8" r="3" fill="#8c564b"/>
<circle cx="503.2" cy="178.1" r="3" fill="#8c564b"/>
<circle cx="591.5" cy="177.0" r="3" fill="#8c564b"/>
<circle cx="679.8" cy="174.1" r="3" fill="#8c564b"/>
<circle cx="768.0" cy="178.0" r="3" fill="#8c564b"/>
<line x1="782" y1="164" x2="802" y2="164" stroke="#8c564b" stroke-width="3"/>
<text x="806" y="168" font-size="12">zsyr2k</text>
<polygon points="62.0,176.3 238.5,197.7 415.0,191.4 503.2,184.9 591.5,189.5 679.8,183.6 768.0,182.3 768.0,184.0 679.8,184.1 591.5,192.0 503.2,195.0 415.0,194.7 238.5,201.2 62.0,185.7" fill="#e377c2" opacity="0.14" stroke="none"/>
<polyline points="62.0,184.6 238.5,199.9 415.0,191.8 503.2,191.7 591.5,190.7 679.8,183.9 768.0,183.5" fill="none" stroke="#e377c2" stroke-width="2"/>
<circle cx="62.0" cy="184.6" r="3" fill="#e377c2"/>
<circle cx="238.5" cy="199.9" r="3" fill="#e377c2"/>
<circle cx="415.0" cy="191.8" r="3" fill="#e377c2"/>
<circle cx="503.2" cy="191.7" r="3" fill="#e377c2"/>
<circle cx="591.5" cy="190.7" r="3" fill="#e377c2"/>
<circle cx="679.8" cy="183.9" r="3" fill="#e377c2"/>
<circle cx="768.0" cy="183.5" r="3" fill="#e377c2"/>
<line x1="782" y1="182" x2="802" y2="182" stroke="#e377c2" stroke-width="3"/>
<text x="806" y="186" font-size="12">ztrmm</text>
<polygon points="62.0,182.2 238.5,214.3 415.0,187.0 503.2,177.1 591.5,169.3 679.8,172.0 768.0,178.7 768.0,179.1 679.8,173.0 591.5,171.2 503.2,179.5 415.0,191.8 238.5,218.1 62.0,234.4" fill="#1f77b4" opacity="0.14" stroke="none"/>
<polyline points="62.0,211.2 238.5,217.3 415.0,190.2 503.2,178.4 591.5,170.3 679.8,172.7 768.0,178.8" fill="none" stroke="#1f77b4" stroke-width="2"/>
<circle cx="62.0" cy="211.2" r="3" fill="#1f77b4"/>
<circle cx="238.5" cy="217.3" r="3" fill="#1f77b4"/>
<circle cx="415.0" cy="190.2" r="3" fill="#1f77b4"/>
<circle cx="503.2" cy="178.4" r="3" fill="#1f77b4"/>
<circle cx="591.5" cy="170.3" r="3" fill="#1f77b4"/>
<circle cx="679.8" cy="172.7" r="3" fill="#1f77b4"/>
<circle cx="768.0" cy="178.8" r="3" fill="#1f77b4"/>
<line x1="782" y1="200" x2="802" y2="200" stroke="#1f77b4" stroke-width="3"/>
<text x="806" y="204" font-size="12">ztrsm</text>
<polygon points="62.0,169.7 238.5,155.5 415.0,172.4 503.2,180.3 591.5,188.1 679.8,185.5 768.0,181.7 768.0,182.2 679.8,186.9 591.5,190.1 503.2,186.3 415.0,179.5 238.5,158.5 62.0,194.8" fill="#d62728" opacity="0.14" stroke="none"/>
<polyline points="62.0,178.1 238.5,156.3 415.0,173.7 503.2,182.2 591.5,188.7 679.8,186.2 768.0,182.0" fill="none" stroke="#d62728" stroke-width="2"/>
<circle cx="62.0" cy="178.1" r="3" fill="#d62728"/>
<circle cx="238.5" cy="156.3" r="3" fill="#d62728"/>
<circle cx="415.0" cy="173.7" r="3" fill="#d62728"/>
<circle cx="503.2" cy="182.2" r="3" fill="#d62728"/>
<circle cx="591.5" cy="188.7" r="3" fill="#d62728"/>
<circle cx="679.8" cy="186.2" r="3" fill="#d62728"/>
<circle cx="768.0" cy="182.0" r="3" fill="#d62728"/>
<line x1="782" y1="218" x2="802" y2="218" stroke="#d62728" stroke-width="3"/>
<text x="806" y="222" font-size="12">ztrmmR</text>
<polygon points="62.0,82.2 238.5,103.8 415.0,98.7 503.2,135.5 591.5,156.1 679.8,172.7 768.0,178.3 768.0,180.5 679.8,174.0 591.5,157.4 503.2,139.7 415.0,105.3 238.5,110.6 62.0,103.3" fill="#2ca02c" opacity="0.14" stroke="none"/>
<polyline points="62.0,88.7 238.5,109.3 415.0,101.7 503.2,137.7 591.5,157.1 679.8,173.5 768.0,180.0" fill="none" stroke="#2ca02c" stroke-width="2"/>
<circle cx="62.0" cy="88.7" r="3" fill="#2ca02c"/>
<circle cx="238.5" cy="109.3" r="3" fill="#2ca02c"/>
<circle cx="415.0" cy="101.7" r="3" fill="#2ca02c"/>
<circle cx="503.2" cy="137.7" r="3" fill="#2ca02c"/>
<circle cx="591.5" cy="157.1" r="3" fill="#2ca02c"/>
<circle cx="679.8" cy="173.5" r="3" fill="#2ca02c"/>
<circle cx="768.0" cy="180.0" r="3" fill="#2ca02c"/>
<line x1="782" y1="236" x2="802" y2="236" stroke="#2ca02c" stroke-width="3"/>
<text x="806" y="240" font-size="12">ztrsmR</text>
<text x="415.0" y="450" text-anchor="middle" font-size="11" fill="#666">matrix size n (log) · y = median ratio (log) · dashed = the 0.96× gate</text>
</svg>
