<svg xmlns="http://www.w3.org/2000/svg" width="962" height="420" font-family="sans-serif">
<rect width="962" height="420" fill="white"/>
<text x="481.0" y="26" text-anchor="middle" font-size="17" font-weight="bold">BLAS-1 — PureBLAS / AOCL (PB/AOCL ratio)</text>
<line x1="46" y1="42" x2="68" y2="42" stroke="#888888" stroke-width="3"/>
<text x="73" y="46" font-size="12">AVX2</text>
<line x1="127" y1="42" x2="149" y2="42" stroke="#888888" stroke-width="3"/>
<text x="154" y="46" font-size="12">Zen5</text>
<line x1="208" y1="42" x2="230" y2="42" stroke="#888888" stroke-width="3"/>
<text x="235" y="46" font-size="12">AVX-512</text>
<rect x="46" y="60" width="210" height="138" fill="none" stroke="#e2e2e2"/>
<line x1="46" y1="123.59658947072617" x2="256" y2="123.59658947072617" stroke="#d33" stroke-dasharray="4 3"/>
<text x="42" y="201.0" text-anchor="end" font-size="9" fill="#999">0.5×</text>
<text x="42" y="126.59658947072617" text-anchor="end" font-size="9" fill="#999">1.0×</text>
<polygon points="46.0,68.3 46.0,68.7" fill="#888888" opacity="0.11"/>
<polyline points="46.0,68.5" fill="none" stroke="#888888" stroke-width="1.6"/>
<circle cx="46.0" cy="68.5" r="2" fill="#888888"/>
<polygon points="46.0,117.9 46.0,119.9" fill="#888888" opacity="0.11"/>
<polyline points="46.0,119.4" fill="none" stroke="#888888" stroke-width="1.6"/>
<circle cx="46.0" cy="119.4" r="2" fill="#888888"/>
<polygon points="46.0,113.7 46.0,114.4" fill="#888888" opacity="0.11"/>
<polyline points="46.0,114.1" fill="none" stroke="#888888" stroke-width="1.6"/>
<circle cx="46.0" cy="114.1" r="2" fill="#888888"/>
<text x="151.0" y="55" text-anchor="middle" font-size="12" font-weight="bold">axpy</text>
<line x1="46.0" y1="60" x2="46.0" y2="198" stroke="#f4f4f4"/>
<text x="46.0" y="209" text-anchor="middle" font-size="8" fill="#999">1000</text>
<rect x="276" y="60" width="210" height="138" fill="none" stroke="#e2e2e2"/>
<line x1="276" y1="115.76276119065531" x2="486" y2="115.76276119065531" stroke="#d33" stroke-dasharray="4 3"/>
<text x="272" y="201.0" text-anchor="end" font-size="9" fill="#999">0.5×</text>
<text x="272" y="118.76276119065531" text-anchor="end" font-size="9" fill="#999">1.0×</text>
<text x="272" y="63.0" text-anchor="end" font-size="9" fill="#999">1.6×</text>
<polygon points="276.0,107.2 276.0,108.5" fill="#888888" opacity="0.11"/>
<polyline points="276.0,108.1" fill="none" stroke="#888888" stroke-width="1.6"/>
<circle cx="276.0" cy="108.1" r="2" fill="#888888"/>
<polygon points="276.0,111.5 276.0,113.7" fill="#888888" opacity="0.11"/>
<polyline points="276.0,112.5" fill="none" stroke="#888888" stroke-width="1.6"/>
<circle cx="276.0" cy="112.5" r="2" fill="#888888"/>
<polygon points="276.0,106.5 276.0,109.9" fill="#888888" opacity="0.11"/>
<polyline points="276.0,109.4" fill="none" stroke="#888888" stroke-width="1.6"/>
<circle cx="276.0" cy="109.4" r="2" fill="#888888"/>
<text x="381.0" y="55" text-anchor="middle" font-size="12" font-weight="bold">dot</text>
<line x1="276.0" y1="60" x2="276.0" y2="198" stroke="#f4f4f4"/>
<text x="276.0" y="209" text-anchor="middle" font-size="8" fill="#999">1000</text>
<rect x="506" y="60" width="210" height="138" fill="none" stroke="#e2e2e2"/>
<line x1="506" y1="157.65799842290875" x2="716" y2="157.65799842290875" stroke="#d33" stroke-dasharray="4 3"/>
<text x="502" y="201.0" text-anchor="end" font-size="9" fill="#999">0.5×</text>
<text x="502" y="160.65799842290875" text-anchor="end" font-size="9" fill="#999">1.0×</text>
<text x="502" y="63.04895664562603" text-anchor="end" font-size="9" fill="#999">5.35×</text>
<polygon points="506.0,90.7 506.0,91.4" fill="#888888" opacity="0.11"/>
<polyline points="506.0,90.9" fill="none" stroke="#888888" stroke-width="1.6"/>
<circle cx="506.0" cy="90.9" r="2" fill="#888888"/>
<polygon points="506.0,64.5 506.0,65.1" fill="#888888" opacity="0.11"/>
<polyline points="506.0,64.8" fill="none" stroke="#888888" stroke-width="1.6"/>
<circle cx="506.0" cy="64.8" r="2" fill="#888888"/>
<polygon points="506.0,65.7 506.0,68.4" fill="#888888" opacity="0.11"/>
<polyline points="506.0,67.0" fill="none" stroke="#888888" stroke-width="1.6"/>
<circle cx="506.0" cy="67.0" r="2" fill="#888888"/>
<text x="611.0" y="55" text-anchor="middle" font-size="12" font-weight="bold">nrm2</text>
<line x1="506.0" y1="60" x2="506.0" y2="198" stroke="#f4f4f4"/>
<text x="506.0" y="209" text-anchor="middle" font-size="8" fill="#999">1000</text>
<rect x="736" y="60" width="210" height="138" fill="none" stroke="#e2e2e2"/>
<line x1="736" y1="173.2897180521295" x2="946" y2="173.2897180521295" stroke="#d33" stroke-dasharray="4 3"/>
<text x="732" y="201.0" text-anchor="end" font-size="9" fill="#999">0.5×</text>
<text x="732" y="176.2897180521295" text-anchor="end" font-size="9" fill="#999">1.0×</text>
<polygon points="736.0,77.1 736.0,77.4" fill="#888888" opacity="0.11"/>
<polyline points="736.0,77.2" fill="none" stroke="#888888" stroke-width="1.6"/>
<circle cx="736.0" cy="77.2" r="2" fill="#888888"/>
<polygon points="736.0,62.7 736.0,64.9" fill="#888888" opacity="0.11"/>
<polyline points="736.0,63.0" fill="none" stroke="#888888" stroke-width="1.6"/>
<circle cx="736.0" cy="63.0" r="2" fill="#888888"/>
<polygon points="736.0,68.2 736.0,68.7" fill="#888888" opacity="0.11"/>
<polyline points="736.0,68.4" fill="none" stroke="#888888" stroke-width="1.6"/>
<circle cx="736.0" cy="68.4" r="2" fill="#888888"/>
<text x="841.0" y="55" text-anchor="middle" font-size="12" font-weight="bold">asum</text>
<line x1="736.0" y1="60" x2="736.0" y2="198" stroke="#f4f4f4"/>
<text x="736.0" y="209" text-anchor="middle" font-size="8" fill="#999">1000</text>
<rect x="46" y="232" width="210" height="138" fill="none" stroke="#e2e2e2"/>
<line x1="46" y1="304.4054291471922" x2="256" y2="304.4054291471922" stroke="#d33" stroke-dasharray="4 3"/>
<text x="42" y="373.0" text-anchor="end" font-size="9" fill="#999">0.5×</text>
<text x="42" y="307.4054291471922" text-anchor="end" font-size="9" fill="#999">1.0×</text>
<polygon points="46.0,239.3 46.0,239.8" fill="#888888" opacity="0.11"/>
<polyline points="46.0,239.6" fill="none" stroke="#888888" stroke-width="1.6"/>
<circle cx="46.0" cy="239.6" r="2" fill="#888888"/>
<polygon points="46.0,301.2 46.0,302.5" fill="#888888" opacity="0.11"/>
<polyline points="46.0,301.7" fill="none" stroke="#888888" stroke-width="1.6"/>
<circle cx="46.0" cy="301.7" r="2" fill="#888888"/>
<polygon points="46.0,300.3 46.0,302.3" fill="#888888" opacity="0.11"/>
<polyline points="46.0,302.1" fill="none" stroke="#888888" stroke-width="1.6"/>
<circle cx="46.0" cy="302.1" r="2" fill="#888888"/>
<text x="151.0" y="227" text-anchor="middle" font-size="12" font-weight="bold">scal</text>
<line x1="46.0" y1="232" x2="46.0" y2="370" stroke="#f4f4f4"/>
<text x="46.0" y="381" text-anchor="middle" font-size="8" fill="#999">1000</text>
<rect x="276" y="232" width="210" height="138" fill="none" stroke="#e2e2e2"/>
<line x1="276" y1="284.6143481986868" x2="486" y2="284.6143481986868" stroke="#d33" stroke-dasharray="4 3"/>
<text x="272" y="372.13501713655796" text-anchor="end" font-size="9" fill="#999">0.47×</text>
<text x="272" y="287.6143481986868" text-anchor="end" font-size="9" fill="#999">1.0×</text>
<text x="272" y="235.0" text-anchor="end" font-size="9" fill="#999">1.6×</text>
<polygon points="276.0,342.6 276.0,361.9" fill="#888888" opacity="0.11"/>
<polyline points="276.0,349.4" fill="none" stroke="#888888" stroke-width="1.6"/>
<circle cx="276.0" cy="349.4" r="2" fill="#888888"/>
<polygon points="276.0,300.0 276.0,334.1" fill="#888888" opacity="0.11"/>
<polyline points="276.0,322.9" fill="none" stroke="#888888" stroke-width="1.6"/>
<circle cx="276.0" cy="322.9" r="2" fill="#888888"/>
<polygon points="276.0,314.1 276.0,332.8" fill="#888888" opacity="0.11"/>
<polyline points="276.0,323.2" fill="none" stroke="#888888" stroke-width="1.6"/>
<circle cx="276.0" cy="323.2" r="2" fill="#888888"/>
<text x="381.0" y="227" text-anchor="middle" font-size="12" font-weight="bold">iamax</text>
<line x1="276.0" y1="232" x2="276.0" y2="370" stroke="#f4f4f4"/>
<text x="276.0" y="381" text-anchor="middle" font-size="8" fill="#999">1000</text>
</svg>
