<svg xmlns="http://www.w3.org/2000/svg" width="900" height="440" font-family="sans-serif">
<rect width="900" height="440" fill="white"/>
<text x="450.0" y="28" text-anchor="middle" font-size="18" font-weight="bold">BLAS-1: PureBLAS / OpenBLAS (AVX-512, 1 thread, Float64)</text>
<line x1="60" y1="358.0" x2="880" y2="358.0" stroke="#eee"/>
<text x="52" y="362.0" text-anchor="end" font-size="11" fill="#666">0×</text>
<line x1="60" y1="347.03650022446527" x2="880" y2="347.03650022446527" stroke="#eee"/>
<text x="52" y="351.03650022446527" text-anchor="end" font-size="11" fill="#666">0.5×</text>
<line x1="60" y1="336.0730004489305" x2="880" y2="336.0730004489305" stroke="#eee"/>
<text x="52" y="340.0730004489305" text-anchor="end" font-size="11" fill="#666">1×</text>
<line x1="60" y1="325.10950067339576" x2="880" y2="325.10950067339576" stroke="#eee"/>
<text x="52" y="329.10950067339576" text-anchor="end" font-size="11" fill="#666">1.5×</text>
<line x1="60" y1="336.0730004489305" x2="880" y2="336.0730004489305" stroke="#888" stroke-width="1"/>
<line x1="60" y1="336.9500804309733" x2="880" y2="336.9500804309733" stroke="#d33" stroke-width="1.5" stroke-dasharray="6 4"/>
<text x="880" y="331.9500804309733" text-anchor="end" font-size="11" fill="#d33">0.96× gate</text>
<polygon points="128.5,343.1 128.6,342.9 128.7,342.7 128.9,342.5 129.1,342.3 129.2,342.1 129.4,341.9 129.5,341.7 129.6,341.5 129.7,341.3 130.0,341.1 130.3,340.8 130.7,340.6 131.3,340.4 132.0,340.2 132.9,340.0 133.9,339.8 135.0,339.6 136.4,339.4 138.0,339.2 139.9,339.0 142.1,338.8 144.5,338.6 147.3,338.4 150.2,338.2 153.2,337.9 156.4,337.7 159.9,337.5 163.7,337.3 167.7,337.1 172.0,336.9 176.2,336.7 180.0,336.5 183.1,336.3 185.1,336.1 185.7,335.9 185.0,335.7 183.1,335.5 180.2,335.3 176.7,335.0 173.0,334.8 169.4,334.6 165.9,334.4 162.8,334.2 160.1,334.0 157.7,333.8 155.5,333.6 153.7,333.4 151.9,333.2 150.2,333.0 148.5,332.8 146.8,332.6 144.9,332.4 143.0,332.1 141.0,331.9 139.1,331.7 137.4,331.5 136.0,331.3 134.9,331.1 134.0,330.9 133.5,330.7 133.1,330.5 132.7,330.3 132.4,330.1 131.9,329.9 131.4,329.7 130.9,329.5 130.3,329.2 129.8,329.0 129.3,328.8 129.0,328.6 128.7,328.4 127.9,328.4 127.7,328.6 127.4,328.8 126.9,329.0 126.4,329.2 125.8,329.5 125.2,329.7 124.7,329.9 124.3,330.1 123.9,330.3 123.6,330.5 123.2,330.7 122.6,330.9 121.8,331.1 120.7,331.3 119.2,331.5 117.5,331.7 115.6,331.9 113.7,332.1 111.8,332.4 109.9,332.6 108.2,332.8 106.5,333.0 104.8,333.2 103.0,333.4 101.1,333.6 99.0,333.8 96.6,334.0 93.8,334.2 90.7,334.4 87.3,334.6 83.6,334.8 79.9,335.0 76.5,335.3 73.6,335.5 71.7,335.7 70.9,335.9 71.6,336.1 73.5,336.3 76.6,336.5 80.5,336.7 84.7,336.9 88.9,337.1 93.0,337.3 96.8,337.5 100.2,337.7 103.5,337.9 106.5,338.2 109.4,338.4 112.1,338.6 114.6,338.8 116.8,339.0 118.7,339.2 120.3,339.4 121.7,339.6 122.8,339.8 123.8,340.0 124.7,340.2 125.4,340.4 126.0,340.6 126.4,340.8 126.7,341.1 126.9,341.3 127.1,341.5 127.2,341.7 127.3,341.9 127.5,342.1 127.6,342.3 127.8,342.5 127.9,342.7 128.0,342.9 128.1,343.1" fill="#2a8" opacity="0.5" stroke="#2a8" stroke-width="1"/>
<line x1="71.0" y1="335.8115945494191" x2="185.7" y2="335.8115945494191" stroke="#114" stroke-width="2"/>
<circle cx="128.33333333333331" cy="336.27189330253987" r="2.4" fill="#114"/>
<text x="128.33333333333331" y="323.874507195941" text-anchor="middle" font-size="11">1.01</text>
<text x="128.33333333333331" y="376" text-anchor="middle" font-size="12">axpy</text>
<polygon points="265.0,343.1 265.1,342.8 265.1,342.5 265.3,342.3 265.4,342.0 265.6,341.7 265.7,341.5 265.8,341.2 265.8,340.9 265.7,340.7 265.6,340.4 265.6,340.1 266.0,339.8 266.7,339.6 268.0,339.3 270.0,339.0 272.8,338.8 276.5,338.5 280.9,338.2 285.9,338.0 291.4,337.7 297.3,337.4 303.6,337.1 310.0,336.9 315.9,336.6 320.4,336.3 322.4,336.1 321.2,335.8 316.8,335.5 310.1,335.3 302.5,335.0 295.4,334.7 289.6,334.4 285.4,334.2 282.6,333.9 280.5,333.6 278.8,333.4 277.0,333.1 275.1,332.8 273.1,332.6 271.3,332.3 269.8,332.0 268.6,331.7 267.7,331.5 267.0,331.2 266.5,330.9 266.0,330.7 265.7,330.4 265.4,330.1 265.2,329.9 265.1,329.6 265.0,329.3 265.0,329.0 265.0,328.8 265.0,328.5 265.1,328.2 265.1,328.0 265.3,327.7 265.5,327.4 265.7,327.2 266.0,326.9 266.2,326.6 266.4,326.3 266.4,326.1 266.3,325.8 266.1,325.5 265.8,325.3 265.5,325.0 265.3,324.7 265.2,324.5 265.1,324.2 265.0,323.9 265.0,323.9 264.9,324.2 264.8,324.5 264.7,324.7 264.5,325.0 264.2,325.3 263.9,325.5 263.7,325.8 263.6,326.1 263.6,326.3 263.8,326.6 264.0,326.9 264.3,327.2 264.5,327.4 264.7,327.7 264.9,328.0 264.9,328.2 265.0,328.5 265.0,328.8 265.0,329.0 265.0,329.3 264.9,329.6 264.8,329.9 264.6,330.1 264.3,330.4 264.0,330.7 263.5,330.9 263.0,331.2 262.3,331.5 261.4,331.7 260.2,332.0 258.7,332.3 256.9,332.6 254.9,332.8 253.0,333.1 251.2,333.4 249.5,333.6 247.4,333.9 244.6,334.2 240.4,334.4 234.6,334.7 227.5,335.0 219.9,335.3 213.2,335.5 208.8,335.8 207.6,336.1 209.6,336.3 214.1,336.6 220.0,336.9 226.4,337.1 232.7,337.4 238.6,337.7 244.1,338.0 249.1,338.2 253.5,338.5 257.2,338.8 260.0,339.0 262.0,339.3 263.3,339.6 264.0,339.8 264.4,340.1 264.4,340.4 264.3,340.7 264.2,340.9 264.2,341.2 264.3,341.5 264.4,341.7 264.6,342.0 264.7,342.3 264.9,342.5 264.9,342.8 265.0,343.1" fill="#2a8" opacity="0.5" stroke="#2a8" stroke-width="1"/>
<line x1="207.7" y1="335.9603828525016" x2="322.3" y2="335.9603828525016" stroke="#114" stroke-width="2"/>
<circle cx="265.0" cy="336.721850136319" r="2.4" fill="#114"/>
<text x="265.0" y="319.8052060507769" text-anchor="middle" font-size="11">1.01</text>
<text x="265.0" y="376" text-anchor="middle" font-size="12">dot</text>
<polygon points="406.3,323.6 408.6,319.7 411.6,315.8 415.3,312.0 419.8,308.1 425.0,304.3 430.5,300.4 436.1,296.6 441.5,292.7 446.2,288.9 450.1,285.0 453.1,281.2 455.0,277.3 456.1,273.5 456.6,269.6 456.8,265.8 456.9,261.9 457.2,258.1 457.5,254.2 458.0,250.3 458.5,246.5 458.9,242.6 459.1,238.8 458.9,234.9 458.4,231.1 457.4,227.2 456.0,223.4 454.0,219.5 451.6,215.7 448.6,211.8 445.1,208.0 441.2,204.1 436.9,200.3 432.5,196.4 428.1,192.6 424.0,188.7 420.2,184.9 416.8,181.0 413.9,177.1 411.5,173.3 409.6,169.4 408.0,165.6 406.7,161.7 405.7,157.9 404.9,154.0 404.2,150.2 403.7,146.3 403.2,142.5 402.9,138.6 402.6,134.8 402.4,130.9 402.3,127.1 402.2,123.2 402.2,119.4 402.3,115.5 402.5,111.6 402.8,107.8 403.2,103.9 403.7,100.1 404.3,96.2 405.0,92.4 405.6,88.5 406.3,84.7 406.8,80.8 407.2,77.0 407.3,73.1 407.3,69.3 407.0,65.4 406.6,61.6 406.0,57.7 405.3,53.9 404.6,50.0 398.7,50.0 398.0,53.9 397.3,57.7 396.8,61.6 396.3,65.4 396.0,69.3 396.0,73.1 396.2,77.0 396.5,80.8 397.1,84.7 397.7,88.5 398.4,92.4 399.0,96.2 399.6,100.1 400.1,103.9 400.5,107.8 400.8,111.6 401.0,115.5 401.1,119.4 401.1,123.2 401.1,127.1 400.9,130.9 400.7,134.8 400.5,138.6 400.1,142.5 399.7,146.3 399.1,150.2 398.5,154.0 397.7,157.9 396.6,161.7 395.4,165.6 393.8,169.4 391.8,173.3 389.4,177.1 386.5,181.0 383.2,184.9 379.4,188.7 375.2,192.6 370.8,196.4 366.4,200.3 362.2,204.1 358.2,208.0 354.7,211.8 351.7,215.7 349.3,219.5 347.4,223.4 345.9,227.2 345.0,231.1 344.4,234.9 344.3,238.8 344.4,242.6 344.8,246.5 345.3,250.3 345.8,254.2 346.2,258.1 346.4,261.9 346.5,265.8 346.7,269.6 347.2,273.5 348.3,277.3 350.3,281.2 353.2,285.0 357.1,288.9 361.9,292.7 367.2,296.6 372.9,300.4 378.4,304.3 383.5,308.1 388.0,312.0 391.8,315.8 394.8,319.7 397.0,323.6" fill="#2a8" opacity="0.5" stroke="#2a8" stroke-width="1"/>
<line x1="344.5" y1="243.77904054126654" x2="458.8" y2="243.77904054126654" stroke="#114" stroke-width="2"/>
<circle cx="401.66666666666663" cy="283.6455264857216" r="2.4" fill="#114"/>
<text x="401.66666666666663" y="61.433962264150935" text-anchor="middle" font-size="11">5.21</text>
<text x="401.66666666666663" y="376" text-anchor="middle" font-size="12">nrm2</text>
<polygon points="538.5,341.8 538.6,341.5 538.8,341.3 539.0,341.1 539.3,340.8 539.7,340.6 540.2,340.3 540.7,340.1 541.3,339.9 541.9,339.6 542.6,339.4 543.3,339.2 544.1,338.9 545.0,338.7 546.2,338.4 548.0,338.2 550.7,338.0 554.5,337.7 559.6,337.5 566.2,337.2 573.7,337.0 581.4,336.8 588.4,336.5 593.4,336.3 595.7,336.1 595.0,335.8 591.7,335.6 586.7,335.3 581.2,335.1 576.2,334.9 572.6,334.6 570.6,334.4 570.0,334.1 570.3,333.9 571.0,333.7 571.5,333.4 571.6,333.2 570.8,333.0 569.2,332.7 566.7,332.5 563.6,332.2 560.1,332.0 556.5,331.8 553.1,331.5 550.0,331.3 547.3,331.1 545.1,330.8 543.3,330.6 542.0,330.3 541.1,330.1 540.5,329.9 540.2,329.6 539.9,329.4 539.8,329.1 539.8,328.9 539.8,328.7 539.7,328.4 539.7,328.2 539.7,328.0 539.6,327.7 539.6,327.5 539.6,327.2 539.5,327.0 539.5,326.8 539.4,326.5 539.3,326.3 539.1,326.0 539.0,325.8 538.8,325.6 538.7,325.3 538.5,325.1 538.5,324.9 538.2,324.9 538.1,325.1 538.0,325.3 537.9,325.6 537.7,325.8 537.5,326.0 537.4,326.3 537.3,326.5 537.2,326.8 537.1,327.0 537.1,327.2 537.1,327.5 537.0,327.7 537.0,328.0 537.0,328.2 536.9,328.4 536.9,328.7 536.9,328.9 536.8,329.1 536.7,329.4 536.5,329.6 536.1,329.9 535.5,330.1 534.6,330.3 533.3,330.6 531.6,330.8 529.4,331.1 526.7,331.3 523.6,331.5 520.1,331.8 516.5,332.0 513.0,332.2 510.0,332.5 507.5,332.7 505.9,333.0 505.1,333.2 505.1,333.4 505.7,333.7 506.4,333.9 506.7,334.1 506.1,334.4 504.1,334.6 500.4,334.9 495.5,335.1 490.0,335.3 484.9,335.6 481.6,335.8 480.9,336.1 483.2,336.3 488.3,336.5 495.2,336.8 503.0,337.0 510.5,337.2 517.0,337.5 522.2,337.7 526.0,338.0 528.6,338.2 530.4,338.4 531.7,338.7 532.6,338.9 533.4,339.2 534.1,339.4 534.8,339.6 535.4,339.9 535.9,340.1 536.5,340.3 536.9,340.6 537.3,340.8 537.7,341.1 537.9,341.3 538.1,341.5 538.2,341.8" fill="#2a8" opacity="0.5" stroke="#2a8" stroke-width="1"/>
<line x1="484.4" y1="335.6087773256156" x2="592.3" y2="335.6087773256156" stroke="#114" stroke-width="2"/>
<circle cx="538.3333333333333" cy="336.1241403183449" r="2.4" fill="#114"/>
<text x="538.3333333333333" y="320.53056430082626" text-anchor="middle" font-size="11">1.02</text>
<text x="538.3333333333333" y="376" text-anchor="middle" font-size="12">asum</text>
<polygon points="675.1,339.5 675.1,339.3 675.2,339.0 675.4,338.8 675.6,338.5 675.8,338.3 676.1,338.0 676.5,337.8 676.9,337.5 677.7,337.3 678.8,337.0 680.3,336.8 682.4,336.5 685.1,336.3 688.4,336.0 692.4,335.8 697.3,335.5 703.0,335.3 709.4,335.0 716.0,334.8 722.3,334.5 727.6,334.3 731.1,334.0 732.4,333.8 731.5,333.5 728.7,333.3 724.7,333.0 720.4,332.8 716.4,332.5 713.1,332.3 710.2,332.0 707.5,331.8 704.4,331.5 700.8,331.3 696.8,331.0 692.7,330.8 688.8,330.5 685.5,330.3 682.8,330.1 680.9,329.8 679.6,329.6 678.9,329.3 678.5,329.1 678.3,328.8 678.1,328.6 677.9,328.3 677.5,328.1 677.0,327.8 676.6,327.6 676.1,327.3 675.8,327.1 675.5,326.8 675.4,326.6 675.3,326.3 675.4,326.1 675.6,325.8 675.7,325.6 675.9,325.3 676.0,325.1 676.1,324.8 676.1,324.6 676.1,324.3 676.1,324.1 676.1,323.8 676.0,323.6 675.9,323.3 675.7,323.1 675.5,322.8 675.4,322.6 675.2,322.3 675.1,322.1 675.1,321.8 674.9,321.8 674.9,322.1 674.8,322.3 674.6,322.6 674.5,322.8 674.3,323.1 674.1,323.3 674.0,323.6 673.9,323.8 673.9,324.1 673.9,324.3 673.9,324.6 673.9,324.8 674.0,325.1 674.1,325.3 674.3,325.6 674.4,325.8 674.6,326.1 674.7,326.3 674.6,326.6 674.5,326.8 674.2,327.1 673.9,327.3 673.4,327.6 673.0,327.8 672.5,328.1 672.1,328.3 671.9,328.6 671.7,328.8 671.5,329.1 671.1,329.3 670.4,329.6 669.1,329.8 667.2,330.1 664.5,330.3 661.2,330.5 657.3,330.8 653.2,331.0 649.2,331.3 645.6,331.5 642.5,331.8 639.8,332.0 636.9,332.3 633.6,332.5 629.6,332.8 625.3,333.0 621.3,333.3 618.5,333.5 617.6,333.8 618.9,334.0 622.4,334.3 627.7,334.5 634.0,334.8 640.6,335.0 647.0,335.3 652.7,335.5 657.6,335.8 661.6,336.0 664.9,336.3 667.6,336.5 669.7,336.8 671.2,337.0 672.3,337.3 673.1,337.5 673.5,337.8 673.9,338.0 674.2,338.3 674.4,338.5 674.6,338.8 674.8,339.0 674.9,339.3 674.9,339.5" fill="#2a8" opacity="0.5" stroke="#2a8" stroke-width="1"/>
<line x1="618.9" y1="333.4934082500322" x2="731.1" y2="333.4934082500322" stroke="#114" stroke-width="2"/>
<circle cx="675.0" cy="334.23867861026065" r="2.4" fill="#114"/>
<text x="675.0" y="317.5774830128328" text-anchor="middle" font-size="11">1.12</text>
<text x="675.0" y="376" text-anchor="middle" font-size="12">scal</text>
<polygon points="812.5,348.3 813.0,347.6 813.8,346.9 814.9,346.2 816.4,345.5 818.3,344.8 820.6,344.1 823.4,343.3 826.7,342.6 830.4,341.9 834.6,341.2 839.2,340.5 843.9,339.8 848.7,339.0 853.3,338.3 857.6,337.6 861.3,336.9 864.5,336.2 866.9,335.5 868.5,334.7 869.1,334.0 868.6,333.3 867.2,332.6 864.9,331.9 862.2,331.2 859.4,330.5 856.9,329.7 855.1,329.0 853.9,328.3 853.4,327.6 853.2,326.9 853.0,326.2 852.6,325.4 851.8,324.7 850.4,324.0 848.5,323.3 846.2,322.6 843.5,321.9 840.6,321.1 837.6,320.4 834.5,319.7 831.4,319.0 828.4,318.3 825.6,317.6 823.0,316.9 820.8,316.1 818.8,315.4 817.1,314.7 815.7,314.0 814.7,313.3 813.9,312.6 813.4,311.8 813.1,311.1 812.9,310.4 812.9,309.7 812.9,309.0 812.9,308.3 813.0,307.5 813.0,306.8 813.0,306.1 813.0,305.4 813.0,304.7 813.0,304.0 812.9,303.3 812.9,302.5 812.8,301.8 812.7,301.1 812.5,300.4 812.3,299.7 812.2,299.0 812.0,298.2 811.9,297.5 811.4,297.5 811.3,298.2 811.2,299.0 811.0,299.7 810.8,300.4 810.7,301.1 810.5,301.8 810.4,302.5 810.4,303.3 810.4,304.0 810.4,304.7 810.4,305.4 810.4,306.1 810.4,306.8 810.4,307.5 810.4,308.3 810.4,309.0 810.4,309.7 810.4,310.4 810.3,311.1 810.0,311.8 809.4,312.6 808.7,313.3 807.6,314.0 806.2,314.7 804.6,315.4 802.6,316.1 800.3,316.9 797.7,317.6 794.9,318.3 792.0,319.0 788.9,319.7 785.8,320.4 782.7,321.1 779.8,321.9 777.1,322.6 774.8,323.3 772.9,324.0 771.5,324.7 770.7,325.4 770.3,326.2 770.1,326.9 770.0,327.6 769.4,328.3 768.3,329.0 766.4,329.7 763.9,330.5 761.1,331.2 758.4,331.9 756.2,332.6 754.7,333.3 754.3,334.0 754.8,334.7 756.4,335.5 758.8,336.2 762.0,336.9 765.8,337.6 770.1,338.3 774.7,339.0 779.4,339.8 784.2,340.5 788.7,341.2 792.9,341.9 796.7,342.6 799.9,343.3 802.7,344.1 805.1,344.8 806.9,345.5 808.4,346.2 809.5,346.9 810.3,347.6 810.8,348.3" fill="#2a8" opacity="0.5" stroke="#2a8" stroke-width="1"/>
<line x1="759.1" y1="331.6979884778741" x2="864.2" y2="331.6979884778741" stroke="#114" stroke-width="2"/>
<circle cx="811.6666666666666" cy="335.8102811302881" r="2.4" fill="#114"/>
<text x="811.6666666666666" y="296.47943309542586" text-anchor="middle" font-size="11">1.20</text>
<text x="811.6666666666666" y="376" text-anchor="middle" font-size="12">iamax</text>
<text x="450.0" y="428" text-anchor="middle" font-size="11" fill="#666">violin = ratio distribution over sizes · line = median · dark dot = worst size · green = every size ≥ gate</text>
</svg>
