<svg xmlns="http://www.w3.org/2000/svg" width="900" height="440" font-family="sans-serif">
<rect width="900" height="440" fill="white"/>
<text x="450.0" y="28" text-anchor="middle" font-size="18" font-weight="bold">Complex BLAS-1: PureBLAS / OpenBLAS (AVX2, 1 thread, ComplexF64)</text>
<line x1="60" y1="358.0" x2="880" y2="358.0" stroke="#eee"/>
<text x="52" y="362.0" text-anchor="end" font-size="11" fill="#666">0×</text>
<line x1="60" y1="339.743240715798" x2="880" y2="339.743240715798" stroke="#eee"/>
<text x="52" y="343.743240715798" text-anchor="end" font-size="11" fill="#666">0.5×</text>
<line x1="60" y1="321.4864814315961" x2="880" y2="321.4864814315961" stroke="#eee"/>
<text x="52" y="325.4864814315961" text-anchor="end" font-size="11" fill="#666">1×</text>
<line x1="60" y1="303.22972214739406" x2="880" y2="303.22972214739406" stroke="#eee"/>
<text x="52" y="307.22972214739406" text-anchor="end" font-size="11" fill="#666">1.5×</text>
<line x1="60" y1="321.4864814315961" x2="880" y2="321.4864814315961" stroke="#888" stroke-width="1"/>
<line x1="60" y1="322.9470221743322" x2="880" y2="322.9470221743322" stroke="#d33" stroke-width="1.5" stroke-dasharray="6 4"/>
<text x="880" y="317.9470221743322" text-anchor="end" font-size="11" fill="#d33">0.96× gate</text>
<polygon points="142.3,325.4 142.4,325.3 142.5,325.1 142.7,324.9 142.8,324.8 143.0,324.6 143.2,324.4 143.6,324.3 144.1,324.1 144.8,323.9 145.9,323.8 147.5,323.6 149.7,323.4 152.6,323.3 156.3,323.1 160.8,322.9 166.2,322.8 172.3,322.6 178.8,322.4 185.6,322.3 192.3,322.1 198.4,321.9 203.6,321.8 207.5,321.6 210.0,321.4 210.9,321.3 210.2,321.1 208.0,320.9 204.5,320.8 200.1,320.6 195.0,320.4 189.5,320.3 183.9,320.1 178.5,319.9 173.3,319.8 168.6,319.6 164.5,319.4 160.9,319.2 157.9,319.1 155.4,318.9 153.5,318.7 152.0,318.6 151.0,318.4 150.3,318.2 150.0,318.1 150.0,317.9 150.3,317.7 150.8,317.6 151.6,317.4 152.6,317.2 153.7,317.1 155.0,316.9 156.3,316.7 157.7,316.6 158.9,316.4 160.0,316.2 160.7,316.1 161.2,315.9 161.2,315.7 160.8,315.6 160.1,315.4 158.9,315.2 157.5,315.1 155.8,314.9 154.0,314.7 152.2,314.6 150.5,314.4 148.8,314.2 147.4,314.1 146.1,313.9 145.1,313.7 144.2,313.6 139.8,313.6 138.9,313.7 137.9,313.9 136.6,314.1 135.2,314.2 133.5,314.4 131.8,314.6 130.0,314.7 128.2,314.9 126.5,315.1 125.1,315.2 123.9,315.4 123.2,315.6 122.8,315.7 122.8,315.9 123.3,316.1 124.0,316.2 125.1,316.4 126.3,316.6 127.7,316.7 129.0,316.9 130.3,317.1 131.4,317.2 132.4,317.4 133.2,317.6 133.7,317.7 134.0,317.9 134.0,318.1 133.7,318.2 133.0,318.4 132.0,318.6 130.5,318.7 128.6,318.9 126.1,319.1 123.1,319.2 119.5,319.4 115.4,319.6 110.7,319.8 105.5,319.9 100.1,320.1 94.5,320.3 89.0,320.4 83.9,320.6 79.5,320.8 76.0,320.9 73.8,321.1 73.1,321.3 74.0,321.4 76.5,321.6 80.4,321.8 85.6,321.9 91.7,322.1 98.4,322.3 105.2,322.4 111.7,322.6 117.8,322.8 123.2,322.9 127.7,323.1 131.4,323.3 134.3,323.4 136.5,323.6 138.1,323.8 139.2,323.9 139.9,324.1 140.4,324.3 140.8,324.4 141.0,324.6 141.2,324.8 141.3,324.9 141.5,325.1 141.6,325.3 141.7,325.4" fill="#2a8" opacity="0.5" stroke="#2a8" stroke-width="1"/>
<line x1="74.9" y1="320.9969998515867" x2="209.1" y2="320.9969998515867" stroke="#114" stroke-width="2"/>
<circle cx="142.0" cy="321.7663102885889" r="2.4" fill="#114"/>
<text x="142.0" y="308.76919296397597" text-anchor="middle" font-size="11">1.01</text>
<text x="142.0" y="376" text-anchor="middle" font-size="12">zaxpy</text>
<polygon points="306.1,334.9 306.2,334.3 306.6,333.7 307.3,333.1 308.6,332.5 310.6,331.9 313.4,331.3 316.4,330.6 318.9,330.0 320.2,329.4 319.9,328.8 318.0,328.2 315.2,327.6 312.4,327.0 310.2,326.4 309.3,325.8 310.0,325.2 312.9,324.6 318.8,323.9 328.0,323.3 340.2,322.7 353.7,322.1 365.8,321.5 373.4,320.9 374.9,320.3 370.1,319.7 361.1,319.1 350.2,318.5 340.0,317.8 331.6,317.2 325.4,316.6 320.7,316.0 317.1,315.4 314.0,314.8 311.5,314.2 309.5,313.6 308.0,313.0 307.1,312.4 306.5,311.8 306.2,311.1 306.1,310.5 306.0,309.9 306.0,309.3 306.0,308.7 306.0,308.1 306.0,307.5 306.0,306.9 306.0,306.3 306.0,305.7 306.0,305.1 306.0,304.4 306.0,303.8 306.0,303.2 306.0,302.6 306.0,302.0 306.0,301.4 306.0,300.8 306.0,300.2 306.1,299.6 306.1,299.0 306.3,298.3 306.4,297.7 306.6,297.1 306.7,296.5 306.8,295.9 306.7,295.3 306.6,294.7 306.4,294.1 306.3,293.5 306.1,292.9 306.1,292.3 306.0,291.6 306.0,291.6 305.9,292.3 305.9,292.9 305.7,293.5 305.6,294.1 305.4,294.7 305.3,295.3 305.2,295.9 305.3,296.5 305.4,297.1 305.6,297.7 305.7,298.3 305.9,299.0 305.9,299.6 306.0,300.2 306.0,300.8 306.0,301.4 306.0,302.0 306.0,302.6 306.0,303.2 306.0,303.8 306.0,304.4 306.0,305.1 306.0,305.7 306.0,306.3 306.0,306.9 306.0,307.5 306.0,308.1 306.0,308.7 306.0,309.3 306.0,309.9 305.9,310.5 305.8,311.1 305.5,311.8 304.9,312.4 304.0,313.0 302.5,313.6 300.5,314.2 298.0,314.8 294.9,315.4 291.3,316.0 286.6,316.6 280.4,317.2 272.0,317.8 261.8,318.5 250.9,319.1 241.9,319.7 237.1,320.3 238.6,320.9 246.2,321.5 258.3,322.1 271.8,322.7 284.0,323.3 293.2,323.9 299.1,324.6 302.0,325.2 302.7,325.8 301.8,326.4 299.6,327.0 296.8,327.6 294.0,328.2 292.1,328.8 291.8,329.4 293.1,330.0 295.6,330.6 298.6,331.3 301.4,331.9 303.4,332.5 304.7,333.1 305.4,333.7 305.8,334.3 305.9,334.9" fill="#d33" opacity="0.5" stroke="#d33" stroke-width="1"/>
<line x1="236.9" y1="320.5039044691992" x2="375.1" y2="320.5039044691992" stroke="#114" stroke-width="2"/>
<circle cx="306.0" cy="329.32024691903086" r="2.4" fill="#114"/>
<text x="306.0" y="289.89036263053754" text-anchor="middle" font-size="11">1.03</text>
<text x="306.0" y="376" text-anchor="middle" font-size="12">zdotc</text>
<polygon points="471.2,323.2 471.9,323.1 473.0,323.0 474.4,322.9 476.4,322.9 479.1,322.8 482.6,322.7 486.9,322.6 492.0,322.5 498.0,322.4 504.5,322.3 511.4,322.2 518.3,322.1 524.7,322.0 530.3,321.9 534.7,321.8 537.6,321.7 538.9,321.6 538.6,321.5 537.0,321.5 534.3,321.4 530.8,321.3 526.8,321.2 522.6,321.1 518.6,321.0 514.8,320.9 511.4,320.8 508.5,320.7 506.0,320.6 503.8,320.5 502.0,320.4 500.2,320.3 498.6,320.2 496.8,320.1 494.9,320.1 492.7,320.0 490.5,319.9 488.1,319.8 485.8,319.7 483.6,319.6 481.7,319.5 480.2,319.4 479.1,319.3 478.4,319.2 478.0,319.1 477.9,319.0 477.9,318.9 478.0,318.8 478.1,318.7 478.2,318.6 478.1,318.6 478.0,318.5 477.8,318.4 477.6,318.3 477.3,318.2 477.1,318.1 476.9,318.0 476.7,317.9 476.4,317.8 476.2,317.7 475.9,317.6 475.6,317.5 475.1,317.4 474.7,317.3 474.1,317.2 473.6,317.2 473.0,317.1 472.4,317.0 471.9,316.9 471.5,316.8 471.1,316.7 470.8,316.6 469.2,316.6 468.9,316.7 468.5,316.8 468.1,316.9 467.6,317.0 467.0,317.1 466.4,317.2 465.9,317.2 465.3,317.3 464.9,317.4 464.4,317.5 464.1,317.6 463.8,317.7 463.6,317.8 463.3,317.9 463.1,318.0 462.9,318.1 462.7,318.2 462.4,318.3 462.2,318.4 462.0,318.5 461.9,318.6 461.8,318.6 461.9,318.7 462.0,318.8 462.1,318.9 462.1,319.0 462.0,319.1 461.6,319.2 460.9,319.3 459.8,319.4 458.3,319.5 456.4,319.6 454.2,319.7 451.9,319.8 449.5,319.9 447.3,320.0 445.1,320.1 443.2,320.1 441.4,320.2 439.8,320.3 438.0,320.4 436.2,320.5 434.0,320.6 431.5,320.7 428.6,320.8 425.2,320.9 421.4,321.0 417.4,321.1 413.2,321.2 409.2,321.3 405.7,321.4 403.0,321.5 401.4,321.5 401.1,321.6 402.4,321.7 405.3,321.8 409.7,321.9 415.3,322.0 421.7,322.1 428.6,322.2 435.5,322.3 442.0,322.4 448.0,322.5 453.1,322.6 457.4,322.7 460.9,322.8 463.6,322.9 465.6,322.9 467.0,323.0 468.1,323.1 468.8,323.2" fill="#2a8" opacity="0.5" stroke="#2a8" stroke-width="1"/>
<line x1="407.2" y1="321.3173536992008" x2="532.8" y2="321.3173536992008" stroke="#114" stroke-width="2"/>
<circle cx="470.0" cy="321.78336358703973" r="2.4" fill="#114"/>
<text x="470.0" y="311.29537195329965" text-anchor="middle" font-size="11">1.00</text>
<text x="470.0" y="376" text-anchor="middle" font-size="12">zscal</text>
<polygon points="647.2,187.8 649.1,185.9 651.1,184.1 653.2,182.2 655.4,180.3 657.5,178.4 659.6,176.5 661.6,174.7 663.6,172.8 665.4,170.9 667.1,169.0 668.6,167.1 670.0,165.3 671.3,163.4 672.3,161.5 673.3,159.6 674.0,157.8 674.7,155.9 675.1,154.0 675.5,152.1 675.7,150.2 675.7,148.4 675.6,146.5 675.4,144.6 674.9,142.7 674.3,140.9 673.5,139.0 672.5,137.1 671.3,135.2 670.0,133.3 668.6,131.5 667.1,129.6 665.4,127.7 663.8,125.8 662.2,124.0 660.6,122.1 659.0,120.2 657.6,118.3 656.4,116.4 655.4,114.6 654.7,112.7 654.2,110.8 654.0,108.9 654.3,107.1 654.9,105.2 656.0,103.3 657.5,101.4 659.4,99.5 661.8,97.7 664.7,95.8 668.0,93.9 671.6,92.0 675.5,90.2 679.5,88.3 683.7,86.4 687.7,84.5 691.6,82.6 695.1,80.8 698.0,78.9 700.4,77.0 702.1,75.1 702.9,73.3 702.8,71.4 701.9,69.5 700.2,67.6 697.6,65.7 694.4,63.9 690.6,62.0 686.3,60.1 681.7,58.2 676.9,56.3 672.1,54.5 595.9,54.5 591.1,56.3 586.3,58.2 581.7,60.1 577.4,62.0 573.6,63.9 570.4,65.7 567.8,67.6 566.1,69.5 565.2,71.4 565.1,73.3 565.9,75.1 567.6,77.0 570.0,78.9 572.9,80.8 576.4,82.6 580.3,84.5 584.3,86.4 588.5,88.3 592.5,90.2 596.4,92.0 600.0,93.9 603.3,95.8 606.2,97.7 608.6,99.5 610.5,101.4 612.0,103.3 613.1,105.2 613.7,107.1 614.0,108.9 613.8,110.8 613.3,112.7 612.6,114.6 611.6,116.4 610.4,118.3 609.0,120.2 607.4,122.1 605.8,124.0 604.2,125.8 602.6,127.7 600.9,129.6 599.4,131.5 598.0,133.3 596.7,135.2 595.5,137.1 594.5,139.0 593.7,140.9 593.1,142.7 592.6,144.6 592.4,146.5 592.3,148.4 592.3,150.2 592.5,152.1 592.9,154.0 593.3,155.9 594.0,157.8 594.7,159.6 595.7,161.5 596.7,163.4 598.0,165.3 599.4,167.1 600.9,169.0 602.6,170.9 604.4,172.8 606.4,174.7 608.4,176.5 610.5,178.4 612.6,180.3 614.8,182.2 616.9,184.1 618.9,185.9 620.8,187.8" fill="#2a8" opacity="0.5" stroke="#2a8" stroke-width="1"/>
<line x1="601.6" y1="94.7612616545502" x2="666.4" y2="94.7612616545502" stroke="#114" stroke-width="2"/>
<circle cx="634.0" cy="168.16941961079903" r="2.4" fill="#114"/>
<text x="634.0" y="61.433962264150935" text-anchor="middle" font-size="11">7.21</text>
<text x="634.0" y="376" text-anchor="middle" font-size="12">dznrm2</text>
<polygon points="815.9,315.0 820.5,314.5 825.6,314.0 831.2,313.5 837.1,313.0 843.0,312.5 848.8,312.0 854.1,311.5 858.6,311.0 862.3,310.5 864.9,310.0 866.4,309.5 866.9,309.0 866.4,308.5 865.1,308.0 863.4,307.5 861.5,307.0 859.7,306.5 858.2,306.0 857.2,305.5 856.8,305.0 857.0,304.5 857.6,304.0 858.4,303.5 859.2,303.0 859.8,302.5 859.8,302.0 859.1,301.5 857.5,301.0 855.0,300.5 851.5,300.0 847.3,299.5 842.5,299.0 837.3,298.5 831.9,297.9 826.6,297.4 821.6,296.9 817.1,296.4 813.1,295.9 809.7,295.4 807.0,294.9 804.8,294.4 803.3,293.9 802.2,293.4 801.7,292.9 801.5,292.4 801.8,291.9 802.4,291.4 803.4,290.9 804.6,290.4 806.1,289.9 807.8,289.4 809.7,288.9 811.6,288.4 813.5,287.9 815.2,287.4 816.7,286.9 817.9,286.4 818.6,285.9 818.9,285.4 818.7,284.9 818.0,284.4 816.9,283.9 815.5,283.4 813.8,282.9 811.9,282.4 810.0,281.9 808.1,281.4 806.3,280.9 804.7,280.4 803.3,279.9 802.1,279.4 793.9,279.4 792.7,279.9 791.3,280.4 789.7,280.9 787.9,281.4 786.0,281.9 784.1,282.4 782.2,282.9 780.5,283.4 779.1,283.9 778.0,284.4 777.3,284.9 777.1,285.4 777.4,285.9 778.1,286.4 779.3,286.9 780.8,287.4 782.5,287.9 784.4,288.4 786.3,288.9 788.2,289.4 789.9,289.9 791.4,290.4 792.6,290.9 793.6,291.4 794.2,291.9 794.5,292.4 794.3,292.9 793.8,293.4 792.7,293.9 791.2,294.4 789.0,294.9 786.3,295.4 782.9,295.9 778.9,296.4 774.4,296.9 769.4,297.4 764.1,297.9 758.7,298.5 753.5,299.0 748.7,299.5 744.5,300.0 741.0,300.5 738.5,301.0 736.9,301.5 736.2,302.0 736.2,302.5 736.8,303.0 737.6,303.5 738.4,304.0 739.0,304.5 739.2,305.0 738.8,305.5 737.8,306.0 736.3,306.5 734.5,307.0 732.6,307.5 730.9,308.0 729.6,308.5 729.1,309.0 729.6,309.5 731.1,310.0 733.7,310.5 737.4,311.0 741.9,311.5 747.2,312.0 753.0,312.5 758.9,313.0 764.8,313.5 770.4,314.0 775.5,314.5 780.1,315.0" fill="#2a8" opacity="0.5" stroke="#2a8" stroke-width="1"/>
<line x1="736.5" y1="302.7409830702807" x2="859.5" y2="302.7409830702807" stroke="#114" stroke-width="2"/>
<circle cx="798.0" cy="310.04909061302425" r="2.4" fill="#114"/>
<text x="798.0" y="276.91467729255186" text-anchor="middle" font-size="11">1.51</text>
<text x="798.0" y="376" text-anchor="middle" font-size="12">dzasum</text>
<text x="450.0" y="428" text-anchor="middle" font-size="11" fill="#666">violin = ratio distribution over sizes · line = median · dark dot = worst size · green = every size ≥ gate</text>
</svg>
