<svg xmlns="http://www.w3.org/2000/svg" width="900" height="440" font-family="sans-serif">
<rect width="900" height="440" fill="white"/>
<text x="450.0" y="28" text-anchor="middle" font-size="18" font-weight="bold">BLAS-1: PureBLAS / OpenBLAS (AVX2, 1 thread, Float64)</text>
<line x1="60" y1="358.0" x2="880" y2="358.0" stroke="#eee"/>
<text x="52" y="362.0" text-anchor="end" font-size="11" fill="#666">0×</text>
<line x1="60" y1="339.8403120917696" x2="880" y2="339.8403120917696" stroke="#eee"/>
<text x="52" y="343.8403120917696" text-anchor="end" font-size="11" fill="#666">0.5×</text>
<line x1="60" y1="321.6806241835392" x2="880" y2="321.6806241835392" stroke="#eee"/>
<text x="52" y="325.6806241835392" text-anchor="end" font-size="11" fill="#666">1×</text>
<line x1="60" y1="303.5209362753088" x2="880" y2="303.5209362753088" stroke="#eee"/>
<text x="52" y="307.5209362753088" text-anchor="end" font-size="11" fill="#666">1.5×</text>
<line x1="60" y1="321.6806241835392" x2="880" y2="321.6806241835392" stroke="#888" stroke-width="1"/>
<line x1="60" y1="323.13339921619763" x2="880" y2="323.13339921619763" stroke="#d33" stroke-width="1.5" stroke-dasharray="6 4"/>
<text x="880" y="318.13339921619763" text-anchor="end" font-size="11" fill="#d33">0.96× gate</text>
<polygon points="128.3,342.7 128.4,342.1 128.4,341.6 128.5,341.1 128.6,340.6 128.7,340.1 128.9,339.5 128.9,339.0 128.9,338.5 128.7,338.0 128.6,337.5 128.5,336.9 128.4,336.4 128.4,335.9 128.3,335.4 128.3,334.9 128.3,334.3 128.3,333.8 128.3,333.3 128.3,332.8 128.3,332.3 128.3,331.7 128.3,331.2 128.3,330.7 128.3,330.2 128.3,329.7 128.3,329.1 128.3,328.6 128.3,328.1 128.3,327.6 128.3,327.1 128.4,326.5 128.4,326.0 128.7,325.5 129.4,325.0 131.3,324.5 135.2,323.9 142.2,323.4 152.7,322.9 165.5,322.4 177.5,321.9 185.1,321.3 185.7,320.8 179.7,320.3 169.5,319.8 158.2,319.3 148.4,318.7 141.4,318.2 137.3,317.7 135.1,317.2 134.2,316.7 133.6,316.1 133.0,315.6 132.4,315.1 131.9,314.6 131.6,314.1 131.6,313.6 131.8,313.0 131.9,312.5 131.9,312.0 131.7,311.5 131.2,311.0 130.6,310.4 130.0,309.9 129.5,309.4 129.1,308.9 128.8,308.4 128.6,307.8 128.5,307.3 128.4,306.8 128.4,306.3 128.3,305.8 128.3,305.8 128.3,306.3 128.3,306.8 128.2,307.3 128.0,307.8 127.8,308.4 127.5,308.9 127.2,309.4 126.7,309.9 126.1,310.4 125.5,311.0 125.0,311.5 124.7,312.0 124.7,312.5 124.9,313.0 125.1,313.6 125.0,314.1 124.8,314.6 124.2,315.1 123.6,315.6 123.1,316.1 122.5,316.7 121.5,317.2 119.4,317.7 115.2,318.2 108.2,318.7 98.5,319.3 87.2,319.8 76.9,320.3 70.9,320.8 71.6,321.3 79.1,321.9 91.1,322.4 103.9,322.9 114.5,323.4 121.5,323.9 125.4,324.5 127.2,325.0 128.0,325.5 128.2,326.0 128.3,326.5 128.3,327.1 128.3,327.6 128.3,328.1 128.3,328.6 128.3,329.1 128.3,329.7 128.3,330.2 128.3,330.7 128.3,331.2 128.3,331.7 128.3,332.3 128.3,332.8 128.3,333.3 128.3,333.8 128.3,334.3 128.3,334.9 128.3,335.4 128.3,335.9 128.3,336.4 128.2,336.9 128.1,337.5 127.9,338.0 127.8,338.5 127.7,339.0 127.8,339.5 127.9,340.1 128.1,340.6 128.2,341.1 128.3,341.6 128.3,342.1 128.3,342.7" fill="#2a8" opacity="0.5" stroke="#2a8" stroke-width="1"/>
<line x1="70.4" y1="320.95712227068645" x2="186.2" y2="320.95712227068645" stroke="#114" stroke-width="2"/>
<circle cx="128.33333333333331" cy="321.5969226549191" r="2.4" fill="#114"/>
<text x="128.33333333333331" y="303.3836522032161" text-anchor="middle" font-size="11">1.02</text>
<text x="128.33333333333331" y="376" text-anchor="middle" font-size="12">axpy</text>
<polygon points="265.0,335.4 265.0,334.5 265.0,333.6 265.1,332.7 265.1,331.8 265.3,330.9 265.4,330.0 265.5,329.1 265.4,328.2 265.5,327.3 266.1,326.4 268.6,325.5 275.3,324.6 287.9,323.7 304.7,322.8 318.8,321.9 322.4,321.0 313.7,320.1 298.3,319.2 283.7,318.3 274.0,317.4 269.1,316.5 267.2,315.6 266.8,314.7 266.9,313.8 267.2,312.9 267.3,312.0 267.0,311.1 266.5,310.2 266.1,309.3 265.8,308.4 265.6,307.5 265.4,306.6 265.2,305.7 265.1,304.8 265.0,303.9 265.0,303.0 265.0,302.1 265.0,301.2 265.0,300.3 265.0,299.4 265.0,298.5 265.0,297.6 265.0,296.7 265.0,295.8 265.0,294.9 265.0,294.0 265.0,293.1 265.0,292.2 265.0,291.4 265.0,290.5 265.0,289.6 265.0,288.7 265.0,287.8 265.0,286.9 265.0,286.0 265.0,285.1 265.0,284.2 265.0,283.3 265.0,282.4 265.0,281.5 265.1,280.6 265.3,279.7 265.4,278.8 265.5,277.9 265.4,277.0 265.3,276.1 265.1,275.2 265.1,274.3 265.0,273.4 265.0,272.5 265.0,271.6 265.0,271.6 265.0,272.5 265.0,273.4 264.9,274.3 264.9,275.2 264.7,276.1 264.6,277.0 264.5,277.9 264.6,278.8 264.7,279.7 264.9,280.6 265.0,281.5 265.0,282.4 265.0,283.3 265.0,284.2 265.0,285.1 265.0,286.0 265.0,286.9 265.0,287.8 265.0,288.7 265.0,289.6 265.0,290.5 265.0,291.4 265.0,292.2 265.0,293.1 265.0,294.0 265.0,294.9 265.0,295.8 265.0,296.7 265.0,297.6 265.0,298.5 265.0,299.4 265.0,300.3 265.0,301.2 265.0,302.1 265.0,303.0 265.0,303.9 264.9,304.8 264.8,305.7 264.6,306.6 264.4,307.5 264.2,308.4 263.9,309.3 263.5,310.2 263.0,311.1 262.7,312.0 262.8,312.9 263.1,313.8 263.2,314.7 262.8,315.6 260.9,316.5 256.0,317.4 246.3,318.3 231.7,319.2 216.3,320.1 207.6,321.0 211.2,321.9 225.3,322.8 242.1,323.7 254.7,324.6 261.4,325.5 263.9,326.4 264.5,327.3 264.6,328.2 264.5,329.1 264.6,330.0 264.7,330.9 264.9,331.8 264.9,332.7 265.0,333.6 265.0,334.5 265.0,335.4" fill="#2a8" opacity="0.5" stroke="#2a8" stroke-width="1"/>
<line x1="207.3" y1="321.2706681200096" x2="322.7" y2="321.2706681200096" stroke="#114" stroke-width="2"/>
<circle cx="265.0" cy="321.7116282574915" r="2.4" fill="#114"/>
<text x="265.0" y="271.8015708123541" text-anchor="middle" font-size="11">1.01</text>
<text x="265.0" y="376" text-anchor="middle" font-size="12">dot</text>
<polygon points="403.5,220.3 404.0,217.9 404.5,215.5 405.0,213.1 405.7,210.7 406.3,208.4 407.1,206.0 407.9,203.6 408.8,201.2 409.7,198.8 410.7,196.4 411.7,194.1 412.8,191.7 413.9,189.3 415.1,186.9 416.4,184.5 417.6,182.1 419.0,179.7 420.3,177.4 421.7,175.0 423.0,172.6 424.4,170.2 425.6,167.8 426.8,165.4 427.9,163.1 428.8,160.7 429.6,158.3 430.1,155.9 430.5,153.5 430.6,151.1 430.5,148.8 430.2,146.4 429.6,144.0 428.8,141.6 427.9,139.2 426.7,136.8 425.4,134.4 424.1,132.1 422.7,129.7 421.2,127.3 419.9,124.9 418.7,122.5 417.7,120.1 417.1,117.8 416.8,115.4 416.9,113.0 417.6,110.6 418.8,108.2 420.7,105.8 423.1,103.4 426.1,101.1 429.6,98.7 433.5,96.3 437.6,93.9 441.9,91.5 446.0,89.1 449.9,86.8 453.3,84.4 456.1,82.0 458.0,79.6 459.0,77.2 459.1,74.8 458.1,72.5 456.2,70.1 453.4,67.7 449.8,65.3 445.7,62.9 441.2,60.5 436.5,58.1 431.8,55.8 427.3,53.4 423.0,51.0 380.3,51.0 376.1,53.4 371.5,55.8 366.8,58.1 362.1,60.5 357.6,62.9 353.5,65.3 350.0,67.7 347.2,70.1 345.2,72.5 344.3,74.8 344.3,77.2 345.3,79.6 347.3,82.0 350.0,84.4 353.4,86.8 357.3,89.1 361.5,91.5 365.7,93.9 369.9,96.3 373.7,98.7 377.2,101.1 380.2,103.4 382.6,105.8 384.5,108.2 385.7,110.6 386.4,113.0 386.6,115.4 386.3,117.8 385.6,120.1 384.6,122.5 383.4,124.9 382.1,127.3 380.7,129.7 379.3,132.1 377.9,134.4 376.6,136.8 375.5,139.2 374.5,141.6 373.7,144.0 373.2,146.4 372.8,148.8 372.7,151.1 372.8,153.5 373.2,155.9 373.8,158.3 374.5,160.7 375.4,163.1 376.5,165.4 377.7,167.8 379.0,170.2 380.3,172.6 381.7,175.0 383.0,177.4 384.4,179.7 385.7,182.1 387.0,184.5 388.2,186.9 389.4,189.3 390.5,191.7 391.6,194.1 392.7,196.4 393.7,198.8 394.6,201.2 395.4,203.6 396.2,206.0 397.0,208.4 397.7,210.7 398.3,213.1 398.9,215.5 399.4,217.9 399.8,220.3" fill="#2a8" opacity="0.5" stroke="#2a8" stroke-width="1"/>
<line x1="352.4" y1="86.0707168046562" x2="450.9" y2="86.0707168046562" stroke="#114" stroke-width="2"/>
<circle cx="401.66666666666663" cy="160.27967626186182" r="2.4" fill="#114"/>
<text x="401.66666666666663" y="61.43396226415098" text-anchor="middle" font-size="11">7.49</text>
<text x="401.66666666666663" y="376" text-anchor="middle" font-size="12">nrm2</text>
<polygon points="539.9,318.4 540.4,317.8 541.1,317.3 542.0,316.8 543.1,316.3 544.6,315.8 546.3,315.2 548.4,314.7 550.9,314.2 553.8,313.7 557.0,313.2 560.6,312.6 564.4,312.1 568.4,311.6 572.5,311.1 576.5,310.6 580.3,310.1 583.7,309.5 586.8,309.0 589.4,308.5 591.5,308.0 593.1,307.5 594.2,306.9 595.0,306.4 595.5,305.9 595.7,305.4 595.7,304.9 595.5,304.3 595.0,303.8 594.1,303.3 593.0,302.8 591.3,302.3 589.3,301.8 586.7,301.2 583.6,300.7 580.2,300.2 576.4,299.7 572.4,299.2 568.5,298.6 564.6,298.1 561.0,297.6 557.8,297.1 555.1,296.6 552.9,296.0 551.5,295.5 550.7,295.0 550.5,294.5 551.0,294.0 552.2,293.4 553.8,292.9 555.9,292.4 558.3,291.9 561.0,291.4 563.6,290.9 566.2,290.3 568.6,289.8 570.6,289.3 572.0,288.8 572.8,288.3 573.0,287.7 572.5,287.2 571.3,286.7 569.5,286.2 567.3,285.7 564.6,285.1 561.7,284.6 558.7,284.1 555.7,283.6 552.9,283.1 550.2,282.6 547.9,282.0 545.8,281.5 530.9,281.5 528.8,282.0 526.4,282.6 523.8,283.1 520.9,283.6 518.0,284.1 515.0,284.6 512.1,285.1 509.4,285.7 507.1,286.2 505.3,286.7 504.2,287.2 503.6,287.7 503.8,288.3 504.7,288.8 506.1,289.3 508.1,289.8 510.4,290.3 513.0,290.9 515.7,291.4 518.3,291.9 520.8,292.4 522.9,292.9 524.5,293.4 525.6,294.0 526.1,294.5 526.0,295.0 525.2,295.5 523.7,296.0 521.6,296.6 518.9,297.1 515.7,297.6 512.1,298.1 508.2,298.6 504.2,299.2 500.3,299.7 496.5,300.2 493.0,300.7 490.0,301.2 487.4,301.8 485.3,302.3 483.7,302.8 482.5,303.3 481.7,303.8 481.2,304.3 481.0,304.9 480.9,305.4 481.1,305.9 481.6,306.4 482.4,306.9 483.6,307.5 485.2,308.0 487.3,308.5 489.9,309.0 492.9,309.5 496.4,310.1 500.2,310.6 504.2,311.1 508.2,311.6 512.2,312.1 516.1,312.6 519.7,313.2 522.9,313.7 525.8,314.2 528.3,314.7 530.4,315.2 532.1,315.8 533.5,316.3 534.7,316.8 535.5,317.3 536.2,317.8 536.8,318.4" fill="#2a8" opacity="0.5" stroke="#2a8" stroke-width="1"/>
<line x1="487.1" y1="301.81247278441947" x2="589.5" y2="301.81247278441947" stroke="#114" stroke-width="2"/>
<circle cx="538.3333333333333" cy="308.39059097444067" r="2.4" fill="#114"/>
<text x="538.3333333333333" y="279.1388811478639" text-anchor="middle" font-size="11">1.55</text>
<text x="538.3333333333333" y="376" text-anchor="middle" font-size="12">asum</text>
<polygon points="675.3,324.2 675.6,324.0 676.2,323.7 677.1,323.5 678.6,323.3 680.9,323.1 684.2,322.9 688.6,322.6 694.2,322.4 700.8,322.2 708.1,322.0 715.5,321.8 722.2,321.6 727.6,321.3 731.1,321.1 732.4,320.9 731.4,320.7 728.4,320.5 723.8,320.3 718.3,320.0 712.2,319.8 706.1,319.6 700.3,319.4 695.2,319.2 690.7,318.9 687.1,318.7 684.3,318.5 682.2,318.3 680.6,318.1 679.5,317.9 678.7,317.6 678.1,317.4 677.6,317.2 677.3,317.0 677.0,316.8 676.8,316.5 676.6,316.3 676.5,316.1 676.4,315.9 676.3,315.7 676.3,315.5 676.2,315.2 676.2,315.0 676.2,314.8 676.1,314.6 676.1,314.4 676.1,314.2 676.0,313.9 676.0,313.7 675.9,313.5 675.9,313.3 676.0,313.1 676.1,312.8 676.3,312.6 676.4,312.4 676.6,312.2 676.8,312.0 677.0,311.8 677.1,311.5 677.1,311.3 677.1,311.1 677.1,310.9 676.9,310.7 676.7,310.4 676.5,310.2 676.2,310.0 675.9,309.8 675.7,309.6 675.5,309.4 675.3,309.1 675.2,308.9 675.1,308.7 674.9,308.7 674.8,308.9 674.7,309.1 674.5,309.4 674.3,309.6 674.1,309.8 673.8,310.0 673.5,310.2 673.3,310.4 673.1,310.7 672.9,310.9 672.9,311.1 672.9,311.3 672.9,311.5 673.0,311.8 673.2,312.0 673.4,312.2 673.6,312.4 673.7,312.6 673.9,312.8 674.0,313.1 674.1,313.3 674.1,313.5 674.0,313.7 674.0,313.9 673.9,314.2 673.9,314.4 673.9,314.6 673.8,314.8 673.8,315.0 673.8,315.2 673.7,315.5 673.7,315.7 673.6,315.9 673.5,316.1 673.4,316.3 673.2,316.5 673.0,316.8 672.7,317.0 672.4,317.2 671.9,317.4 671.3,317.6 670.5,317.9 669.4,318.1 667.8,318.3 665.7,318.5 662.9,318.7 659.3,318.9 654.8,319.2 649.7,319.4 643.9,319.6 637.8,319.8 631.7,320.0 626.2,320.3 621.6,320.5 618.6,320.7 617.6,320.9 618.9,321.1 622.4,321.3 627.8,321.6 634.5,321.8 641.9,322.0 649.2,322.2 655.8,322.4 661.4,322.6 665.8,322.9 669.1,323.1 671.4,323.3 672.9,323.5 673.8,323.7 674.4,324.0 674.7,324.2" fill="#2a8" opacity="0.5" stroke="#2a8" stroke-width="1"/>
<line x1="617.7" y1="320.8177746522224" x2="732.3" y2="320.8177746522224" stroke="#114" stroke-width="2"/>
<circle cx="675.0" cy="321.5102164714806" r="2.4" fill="#114"/>
<text x="675.0" y="304.2605562015412" text-anchor="middle" font-size="11">1.02</text>
<text x="675.0" y="376" text-anchor="middle" font-size="12">scal</text>
<polygon points="814.3,343.4 815.3,342.7 816.6,342.0 818.1,341.4 820.0,340.7 822.0,340.0 824.4,339.3 826.9,338.6 829.5,337.9 832.3,337.3 835.0,336.6 837.6,335.9 840.2,335.2 842.5,334.5 844.7,333.9 846.6,333.2 848.3,332.5 849.8,331.8 851.1,331.1 852.3,330.5 853.4,329.8 854.6,329.1 855.7,328.4 856.9,327.7 858.2,327.0 859.5,326.4 860.9,325.7 862.3,325.0 863.8,324.3 865.1,323.6 866.4,323.0 867.5,322.3 868.3,321.6 868.8,320.9 869.1,320.2 869.0,319.6 868.5,318.9 867.8,318.2 867.0,317.5 866.0,316.8 865.0,316.1 864.2,315.5 863.5,314.8 863.0,314.1 862.6,313.4 862.3,312.7 861.9,312.1 861.3,311.4 860.3,310.7 859.0,310.0 857.1,309.3 854.8,308.6 852.1,308.0 849.0,307.3 845.7,306.6 842.3,305.9 838.9,305.2 835.6,304.6 832.6,303.9 829.7,303.2 827.2,302.5 824.8,301.8 822.7,301.2 820.9,300.5 819.3,299.8 817.8,299.1 816.6,298.4 815.6,297.7 814.7,297.1 814.0,296.4 813.4,295.7 812.9,295.0 810.4,295.0 810.0,295.7 809.4,296.4 808.6,297.1 807.8,297.7 806.7,298.4 805.5,299.1 804.1,299.8 802.4,300.5 800.6,301.2 798.5,301.8 796.2,302.5 793.6,303.2 790.8,303.9 787.7,304.6 784.4,305.2 781.1,305.9 777.7,306.6 774.4,307.3 771.3,308.0 768.5,308.6 766.2,309.3 764.4,310.0 763.0,310.7 762.1,311.4 761.5,312.1 761.1,312.7 760.7,313.4 760.3,314.1 759.8,314.8 759.1,315.5 758.3,316.1 757.3,316.8 756.4,317.5 755.5,318.2 754.8,318.9 754.4,319.6 754.3,320.2 754.5,320.9 755.0,321.6 755.9,322.3 756.9,323.0 758.2,323.6 759.6,324.3 761.0,325.0 762.4,325.7 763.8,326.4 765.2,327.0 766.4,327.7 767.6,328.4 768.8,329.1 769.9,329.8 771.0,330.5 772.2,331.1 773.6,331.8 775.1,332.5 776.8,333.2 778.7,333.9 780.8,334.5 783.2,335.2 785.7,335.9 788.3,336.6 791.1,337.3 793.8,337.9 796.4,338.6 799.0,339.3 801.3,340.0 803.4,340.7 805.2,341.4 806.7,342.0 808.0,342.7 809.0,343.4" fill="#d33" opacity="0.5" stroke="#d33" stroke-width="1"/>
<line x1="754.3" y1="320.0132542903047" x2="869.1" y2="320.0132542903047" stroke="#114" stroke-width="2"/>
<circle cx="811.6666666666666" cy="324.2523697470256" r="2.4" fill="#114"/>
<text x="811.6666666666666" y="293.7605991723981" text-anchor="middle" font-size="11">1.05</text>
<text x="811.6666666666666" y="376" text-anchor="middle" font-size="12">iamax</text>
<text x="450.0" y="428" text-anchor="middle" font-size="11" fill="#666">violin = ratio distribution over sizes · line = median · dark dot = worst size · green = every size ≥ gate</text>
</svg>
