<svg xmlns="http://www.w3.org/2000/svg" width="962" height="592" font-family="sans-serif">
<rect width="962" height="592" fill="white"/>
<text x="481.0" y="26" text-anchor="middle" font-size="17" font-weight="bold">Complex BLAS-2 — PureBLAS / OpenBLAS (PB/OpenBLAS ratio)</text>
<line x1="46" y1="42" x2="68" y2="42" stroke="#d62728" stroke-width="3"/>
<text x="73" y="46" font-size="12">Zen3 · AVX2</text>
<line x1="176" y1="42" x2="198" y2="42" stroke="#2ca02c" stroke-width="3"/>
<text x="203" y="46" font-size="12">Zen5 · AVX-512</text>
<line x1="327" y1="42" x2="349" y2="42" stroke="#1f77b4" stroke-width="3"/>
<text x="354" y="46" font-size="12">Zen4 · AVX-512</text>
<rect x="46" y="60" width="210" height="138" fill="none" stroke="#e2e2e2"/>
<line x1="46" y1="115.76276119065531" x2="256" y2="115.76276119065531" stroke="#d33" stroke-dasharray="4 3"/>
<text x="42" y="201.0" text-anchor="end" font-size="9" fill="#999">0.5×</text>
<text x="42" y="118.76276119065531" text-anchor="end" font-size="9" fill="#999">1.0×</text>
<text x="42" y="63.0" text-anchor="end" font-size="9" fill="#999">1.6×</text>
<polygon points="46.0,106.0 81.0,99.3 116.0,107.1 151.0,109.4 186.0,112.4 221.0,98.5 256.0,96.7 256.0,98.9 221.0,100.3 186.0,113.6 151.0,115.6 116.0,113.7 81.0,108.8 46.0,110.2" fill="#d62728" opacity="0.11"/>
<polyline points="46.0,106.8 81.0,103.9 116.0,111.4 151.0,111.5 186.0,112.7 221.0,99.8 256.0,97.7" fill="none" stroke="#d62728" stroke-width="1.6"/>
<circle cx="46.0" cy="106.8" r="2" fill="#d62728"/>
<circle cx="81.0" cy="103.9" r="2" fill="#d62728"/>
<circle cx="116.0" cy="111.4" r="2" fill="#d62728"/>
<circle cx="151.0" cy="111.5" r="2" fill="#d62728"/>
<circle cx="186.0" cy="112.7" r="2" fill="#d62728"/>
<circle cx="221.0" cy="99.8" r="2" fill="#d62728"/>
<circle cx="256.0" cy="97.7" r="2" fill="#d62728"/>
<polygon points="46.0,112.2 81.0,114.3 116.0,105.3 151.0,114.8 186.0,89.2 221.0,98.9 256.0,80.5 256.0,94.0 221.0,105.6 186.0,120.1 151.0,129.2 116.0,112.3 81.0,116.8 46.0,114.7" fill="#2ca02c" opacity="0.11"/>
<polyline points="46.0,113.5 81.0,116.0 116.0,109.6 151.0,124.3 186.0,100.0 221.0,102.0 256.0,88.2" fill="none" stroke="#2ca02c" stroke-width="1.6"/>
<circle cx="46.0" cy="113.5" r="2" fill="#2ca02c"/>
<circle cx="81.0" cy="116.0" r="2" fill="#2ca02c"/>
<circle cx="116.0" cy="109.6" r="2" fill="#2ca02c"/>
<circle cx="151.0" cy="124.3" r="2" fill="#2ca02c"/>
<circle cx="186.0" cy="100.0" r="2" fill="#2ca02c"/>
<circle cx="221.0" cy="102.0" r="2" fill="#2ca02c"/>
<circle cx="256.0" cy="88.2" r="2" fill="#2ca02c"/>
<polygon points="46.0,89.9 81.0,93.4 116.0,86.5 151.0,102.6 186.0,94.7 221.0,84.1 256.0,75.4 256.0,82.1 221.0,90.0 186.0,116.3 151.0,112.7 116.0,96.3 81.0,106.9 46.0,102.2" fill="#1f77b4" opacity="0.11"/>
<polyline points="46.0,100.2 81.0,97.0 116.0,92.2 151.0,106.5 186.0,109.5 221.0,86.7 256.0,79.8" fill="none" stroke="#1f77b4" stroke-width="1.6"/>
<circle cx="46.0" cy="100.2" r="2" fill="#1f77b4"/>
<circle cx="81.0" cy="97.0" r="2" fill="#1f77b4"/>
<circle cx="116.0" cy="92.2" r="2" fill="#1f77b4"/>
<circle cx="151.0" cy="106.5" r="2" fill="#1f77b4"/>
<circle cx="186.0" cy="109.5" r="2" fill="#1f77b4"/>
<circle cx="221.0" cy="86.7" r="2" fill="#1f77b4"/>
<circle cx="256.0" cy="79.8" r="2" fill="#1f77b4"/>
<text x="151.0" y="55" text-anchor="middle" font-size="12" font-weight="bold">zgemvN</text>
<line x1="46.0" y1="60" x2="46.0" y2="198" stroke="#f4f4f4"/>
<text x="46.0" y="209" text-anchor="middle" font-size="8" fill="#999">64</text>
<line x1="81.0" y1="60" x2="81.0" y2="198" stroke="#f4f4f4"/>
<text x="81.0" y="209" text-anchor="middle" font-size="8" fill="#999">128</text>
<line x1="116.0" y1="60" x2="116.0" y2="198" stroke="#f4f4f4"/>
<text x="116.0" y="209" text-anchor="middle" font-size="8" fill="#999">256</text>
<line x1="151.0" y1="60" x2="151.0" y2="198" stroke="#f4f4f4"/>
<text x="151.0" y="209" text-anchor="middle" font-size="8" fill="#999">512</text>
<line x1="186.0" y1="60" x2="186.0" y2="198" stroke="#f4f4f4"/>
<text x="186.0" y="209" text-anchor="middle" font-size="8" fill="#999">1k</text>
<line x1="221.0" y1="60" x2="221.0" y2="198" stroke="#f4f4f4"/>
<text x="221.0" y="209" text-anchor="middle" font-size="8" fill="#999">2k</text>
<line x1="256.0" y1="60" x2="256.0" y2="198" stroke="#f4f4f4"/>
<text x="256.0" y="209" text-anchor="middle" font-size="8" fill="#999">4k</text>
<rect x="276" y="60" width="210" height="138" fill="none" stroke="#e2e2e2"/>
<line x1="276" y1="115.76276119065531" x2="486" y2="115.76276119065531" stroke="#d33" stroke-dasharray="4 3"/>
<text x="272" y="201.0" text-anchor="end" font-size="9" fill="#999">0.5×</text>
<text x="272" y="118.76276119065531" text-anchor="end" font-size="9" fill="#999">1.0×</text>
<text x="272" y="63.0" text-anchor="end" font-size="9" fill="#999">1.6×</text>
<polygon points="276.0,83.9 311.0,77.8 346.0,89.1 381.0,100.4 416.0,102.8 451.0,100.2 486.0,96.7 486.0,98.0 451.0,102.0 416.0,104.8 381.0,105.6 346.0,102.6 311.0,82.7 276.0,85.7" fill="#d62728" opacity="0.11"/>
<polyline points="276.0,84.4 311.0,80.2 346.0,98.4 381.0,102.3 416.0,103.3 451.0,100.8 486.0,97.3" fill="none" stroke="#d62728" stroke-width="1.6"/>
<circle cx="276.0" cy="84.4" r="2" fill="#d62728"/>
<circle cx="311.0" cy="80.2" r="2" fill="#d62728"/>
<circle cx="346.0" cy="98.4" r="2" fill="#d62728"/>
<circle cx="381.0" cy="102.3" r="2" fill="#d62728"/>
<circle cx="416.0" cy="103.3" r="2" fill="#d62728"/>
<circle cx="451.0" cy="100.8" r="2" fill="#d62728"/>
<circle cx="486.0" cy="97.3" r="2" fill="#d62728"/>
<polygon points="276.0,81.2 311.0,81.6 346.0,90.1 381.0,92.1 416.0,105.5 451.0,86.1 486.0,91.4 486.0,100.4 451.0,98.7 416.0,125.9 381.0,123.6 346.0,100.6 311.0,88.4 276.0,88.1" fill="#2ca02c" opacity="0.11"/>
<polyline points="276.0,84.1 311.0,84.8 346.0,96.7 381.0,104.7 416.0,109.9 451.0,92.6 486.0,98.1" fill="none" stroke="#2ca02c" stroke-width="1.6"/>
<circle cx="276.0" cy="84.1" r="2" fill="#2ca02c"/>
<circle cx="311.0" cy="84.8" r="2" fill="#2ca02c"/>
<circle cx="346.0" cy="96.7" r="2" fill="#2ca02c"/>
<circle cx="381.0" cy="104.7" r="2" fill="#2ca02c"/>
<circle cx="416.0" cy="109.9" r="2" fill="#2ca02c"/>
<circle cx="451.0" cy="92.6" r="2" fill="#2ca02c"/>
<circle cx="486.0" cy="98.1" r="2" fill="#2ca02c"/>
<polygon points="276.0,81.2 311.0,87.6 346.0,79.8 381.0,92.2 416.0,97.5 451.0,84.0 486.0,79.1 486.0,82.9 451.0,92.0 416.0,115.6 381.0,109.8 346.0,98.6 311.0,95.5 276.0,95.3" fill="#1f77b4" opacity="0.11"/>
<polyline points="276.0,88.6 311.0,90.1 346.0,84.4 381.0,104.3 416.0,107.4 451.0,89.1 486.0,80.9" fill="none" stroke="#1f77b4" stroke-width="1.6"/>
<circle cx="276.0" cy="88.6" r="2" fill="#1f77b4"/>
<circle cx="311.0" cy="90.1" r="2" fill="#1f77b4"/>
<circle cx="346.0" cy="84.4" r="2" fill="#1f77b4"/>
<circle cx="381.0" cy="104.3" r="2" fill="#1f77b4"/>
<circle cx="416.0" cy="107.4" r="2" fill="#1f77b4"/>
<circle cx="451.0" cy="89.1" r="2" fill="#1f77b4"/>
<circle cx="486.0" cy="80.9" r="2" fill="#1f77b4"/>
<text x="381.0" y="55" text-anchor="middle" font-size="12" font-weight="bold">zgemvT</text>
<line x1="276.0" y1="60" x2="276.0" y2="198" stroke="#f4f4f4"/>
<text x="276.0" y="209" text-anchor="middle" font-size="8" fill="#999">64</text>
<line x1="311.0" y1="60" x2="311.0" y2="198" stroke="#f4f4f4"/>
<text x="311.0" y="209" text-anchor="middle" font-size="8" fill="#999">128</text>
<line x1="346.0" y1="60" x2="346.0" y2="198" stroke="#f4f4f4"/>
<text x="346.0" y="209" text-anchor="middle" font-size="8" fill="#999">256</text>
<line x1="381.0" y1="60" x2="381.0" y2="198" stroke="#f4f4f4"/>
<text x="381.0" y="209" text-anchor="middle" font-size="8" fill="#999">512</text>
<line x1="416.0" y1="60" x2="416.0" y2="198" stroke="#f4f4f4"/>
<text x="416.0" y="209" text-anchor="middle" font-size="8" fill="#999">1k</text>
<line x1="451.0" y1="60" x2="451.0" y2="198" stroke="#f4f4f4"/>
<text x="451.0" y="209" text-anchor="middle" font-size="8" fill="#999">2k</text>
<line x1="486.0" y1="60" x2="486.0" y2="198" stroke="#f4f4f4"/>
<text x="486.0" y="209" text-anchor="middle" font-size="8" fill="#999">4k</text>
<rect x="506" y="60" width="210" height="138" fill="none" stroke="#e2e2e2"/>
<line x1="506" y1="115.76276119065531" x2="716" y2="115.76276119065531" stroke="#d33" stroke-dasharray="4 3"/>
<text x="502" y="201.0" text-anchor="end" font-size="9" fill="#999">0.5×</text>
<text x="502" y="118.76276119065531" text-anchor="end" font-size="9" fill="#999">1.0×</text>
<text x="502" y="63.0" text-anchor="end" font-size="9" fill="#999">1.6×</text>
<polygon points="506.0,78.3 541.0,75.1 576.0,93.5 611.0,99.8 646.0,100.7 681.0,99.7 716.0,95.9 716.0,101.8 681.0,100.9 646.0,102.2 611.0,105.6 576.0,101.0 541.0,84.0 506.0,80.1" fill="#d62728" opacity="0.11"/>
<polyline points="506.0,79.3 541.0,79.3 576.0,98.4 611.0,101.6 646.0,101.5 681.0,100.1 716.0,96.9" fill="none" stroke="#d62728" stroke-width="1.6"/>
<circle cx="506.0" cy="79.3" r="2" fill="#d62728"/>
<circle cx="541.0" cy="79.3" r="2" fill="#d62728"/>
<circle cx="576.0" cy="98.4" r="2" fill="#d62728"/>
<circle cx="611.0" cy="101.6" r="2" fill="#d62728"/>
<circle cx="646.0" cy="101.5" r="2" fill="#d62728"/>
<circle cx="681.0" cy="100.1" r="2" fill="#d62728"/>
<circle cx="716.0" cy="96.9" r="2" fill="#d62728"/>
<polygon points="506.0,98.7 541.0,99.7 576.0,97.5 611.0,105.1 646.0,84.2 681.0,79.3 716.0,96.1 716.0,102.9 681.0,93.1 646.0,98.9 611.0,120.3 576.0,103.3 541.0,100.3 506.0,100.3" fill="#2ca02c" opacity="0.11"/>
<polyline points="506.0,99.3 541.0,100.0 576.0,101.1 611.0,109.7 646.0,93.5 681.0,88.3 716.0,98.1" fill="none" stroke="#2ca02c" stroke-width="1.6"/>
<circle cx="506.0" cy="99.3" r="2" fill="#2ca02c"/>
<circle cx="541.0" cy="100.0" r="2" fill="#2ca02c"/>
<circle cx="576.0" cy="101.1" r="2" fill="#2ca02c"/>
<circle cx="611.0" cy="109.7" r="2" fill="#2ca02c"/>
<circle cx="646.0" cy="93.5" r="2" fill="#2ca02c"/>
<circle cx="681.0" cy="88.3" r="2" fill="#2ca02c"/>
<circle cx="716.0" cy="98.1" r="2" fill="#2ca02c"/>
<polygon points="506.0,84.8 541.0,88.9 576.0,85.4 611.0,102.4 646.0,99.4 681.0,86.7 716.0,79.5 716.0,81.5 681.0,89.6 646.0,111.3 611.0,106.8 576.0,90.5 541.0,93.4 506.0,88.6" fill="#1f77b4" opacity="0.11"/>
<polyline points="506.0,87.7 541.0,91.6 576.0,88.5 611.0,104.7 646.0,107.8 681.0,88.7 716.0,80.3" fill="none" stroke="#1f77b4" stroke-width="1.6"/>
<circle cx="506.0" cy="87.7" r="2" fill="#1f77b4"/>
<circle cx="541.0" cy="91.6" r="2" fill="#1f77b4"/>
<circle cx="576.0" cy="88.5" r="2" fill="#1f77b4"/>
<circle cx="611.0" cy="104.7" r="2" fill="#1f77b4"/>
<circle cx="646.0" cy="107.8" r="2" fill="#1f77b4"/>
<circle cx="681.0" cy="88.7" r="2" fill="#1f77b4"/>
<circle cx="716.0" cy="80.3" r="2" fill="#1f77b4"/>
<text x="611.0" y="55" text-anchor="middle" font-size="12" font-weight="bold">zgemvC</text>
<line x1="506.0" y1="60" x2="506.0" y2="198" stroke="#f4f4f4"/>
<text x="506.0" y="209" text-anchor="middle" font-size="8" fill="#999">64</text>
<line x1="541.0" y1="60" x2="541.0" y2="198" stroke="#f4f4f4"/>
<text x="541.0" y="209" text-anchor="middle" font-size="8" fill="#999">128</text>
<line x1="576.0" y1="60" x2="576.0" y2="198" stroke="#f4f4f4"/>
<text x="576.0" y="209" text-anchor="middle" font-size="8" fill="#999">256</text>
<line x1="611.0" y1="60" x2="611.0" y2="198" stroke="#f4f4f4"/>
<text x="611.0" y="209" text-anchor="middle" font-size="8" fill="#999">512</text>
<line x1="646.0" y1="60" x2="646.0" y2="198" stroke="#f4f4f4"/>
<text x="646.0" y="209" text-anchor="middle" font-size="8" fill="#999">1k</text>
<line x1="681.0" y1="60" x2="681.0" y2="198" stroke="#f4f4f4"/>
<text x="681.0" y="209" text-anchor="middle" font-size="8" fill="#999">2k</text>
<line x1="716.0" y1="60" x2="716.0" y2="198" stroke="#f4f4f4"/>
<text x="716.0" y="209" text-anchor="middle" font-size="8" fill="#999">4k</text>
<rect x="736" y="60" width="210" height="138" fill="none" stroke="#e2e2e2"/>
<line x1="736" y1="119.00016473906051" x2="946" y2="119.00016473906051" stroke="#d33" stroke-dasharray="4 3"/>
<text x="732" y="201.0" text-anchor="end" font-size="9" fill="#999">0.5×</text>
<text x="732" y="122.00016473906051" text-anchor="end" font-size="9" fill="#999">1.0×</text>
<polygon points="736.0,89.2 771.0,102.5 806.0,112.2 841.0,120.3 876.0,121.4 911.0,120.9 946.0,118.7 946.0,122.4 911.0,124.3 876.0,124.8 841.0,122.6 806.0,119.7 771.0,107.8 736.0,92.3" fill="#d62728" opacity="0.11"/>
<polyline points="736.0,91.4 771.0,104.7 806.0,116.7 841.0,121.1 876.0,123.0 911.0,121.6 946.0,121.2" fill="none" stroke="#d62728" stroke-width="1.6"/>
<circle cx="736.0" cy="91.4" r="2" fill="#d62728"/>
<circle cx="771.0" cy="104.7" r="2" fill="#d62728"/>
<circle cx="806.0" cy="116.7" r="2" fill="#d62728"/>
<circle cx="841.0" cy="121.1" r="2" fill="#d62728"/>
<circle cx="876.0" cy="123.0" r="2" fill="#d62728"/>
<circle cx="911.0" cy="121.6" r="2" fill="#d62728"/>
<circle cx="946.0" cy="121.2" r="2" fill="#d62728"/>
<polygon points="736.0,100.5 771.0,100.1 806.0,97.3 841.0,98.7 876.0,108.7 911.0,113.7 946.0,119.2 946.0,121.7 911.0,118.1 876.0,115.7 841.0,116.2 806.0,116.1 771.0,104.9 736.0,106.8" fill="#2ca02c" opacity="0.11"/>
<polyline points="736.0,103.1 771.0,101.9 806.0,109.1 841.0,113.6 876.0,112.2 911.0,115.5 946.0,120.9" fill="none" stroke="#2ca02c" stroke-width="1.6"/>
<circle cx="736.0" cy="103.1" r="2" fill="#2ca02c"/>
<circle cx="771.0" cy="101.9" r="2" fill="#2ca02c"/>
<circle cx="806.0" cy="109.1" r="2" fill="#2ca02c"/>
<circle cx="841.0" cy="113.6" r="2" fill="#2ca02c"/>
<circle cx="876.0" cy="112.2" r="2" fill="#2ca02c"/>
<circle cx="911.0" cy="115.5" r="2" fill="#2ca02c"/>
<circle cx="946.0" cy="120.9" r="2" fill="#2ca02c"/>
<polygon points="736.0,68.8 771.0,90.7 806.0,90.2 841.0,110.6 876.0,91.0 911.0,104.5 946.0,109.3 946.0,113.9 911.0,109.9 876.0,137.7 841.0,156.4 806.0,122.8 771.0,102.1 736.0,81.8" fill="#1f77b4" opacity="0.11"/>
<polyline points="736.0,72.4 771.0,94.9 806.0,99.4 841.0,122.0 876.0,117.8 911.0,107.4 946.0,111.0" fill="none" stroke="#1f77b4" stroke-width="1.6"/>
<circle cx="736.0" cy="72.4" r="2" fill="#1f77b4"/>
<circle cx="771.0" cy="94.9" r="2" fill="#1f77b4"/>
<circle cx="806.0" cy="99.4" r="2" fill="#1f77b4"/>
<circle cx="841.0" cy="122.0" r="2" fill="#1f77b4"/>
<circle cx="876.0" cy="117.8" r="2" fill="#1f77b4"/>
<circle cx="911.0" cy="107.4" r="2" fill="#1f77b4"/>
<circle cx="946.0" cy="111.0" r="2" fill="#1f77b4"/>
<text x="841.0" y="55" text-anchor="middle" font-size="12" font-weight="bold">zgeru</text>
<line x1="736.0" y1="60" x2="736.0" y2="198" stroke="#f4f4f4"/>
<text x="736.0" y="209" text-anchor="middle" font-size="8" fill="#999">64</text>
<line x1="771.0" y1="60" x2="771.0" y2="198" stroke="#f4f4f4"/>
<text x="771.0" y="209" text-anchor="middle" font-size="8" fill="#999">128</text>
<line x1="806.0" y1="60" x2="806.0" y2="198" stroke="#f4f4f4"/>
<text x="806.0" y="209" text-anchor="middle" font-size="8" fill="#999">256</text>
<line x1="841.0" y1="60" x2="841.0" y2="198" stroke="#f4f4f4"/>
<text x="841.0" y="209" text-anchor="middle" font-size="8" fill="#999">512</text>
<line x1="876.0" y1="60" x2="876.0" y2="198" stroke="#f4f4f4"/>
<text x="876.0" y="209" text-anchor="middle" font-size="8" fill="#999">1k</text>
<line x1="911.0" y1="60" x2="911.0" y2="198" stroke="#f4f4f4"/>
<text x="911.0" y="209" text-anchor="middle" font-size="8" fill="#999">2k</text>
<line x1="946.0" y1="60" x2="946.0" y2="198" stroke="#f4f4f4"/>
<text x="946.0" y="209" text-anchor="middle" font-size="8" fill="#999">4k</text>
<rect x="46" y="232" width="210" height="138" fill="none" stroke="#e2e2e2"/>
<line x1="46" y1="315.4907103913315" x2="256" y2="315.4907103913315" stroke="#d33" stroke-dasharray="4 3"/>
<text x="42" y="373.0" text-anchor="end" font-size="9" fill="#999">0.5×</text>
<text x="42" y="318.4907103913315" text-anchor="end" font-size="9" fill="#999">1.0×</text>
<text x="42" y="235.0332000013353" text-anchor="end" font-size="9" fill="#999">2.89×</text>
<polygon points="46.0,295.2 81.0,279.2 116.0,271.0 151.0,265.8 186.0,269.6 221.0,285.4 256.0,296.2 256.0,300.0 221.0,296.1 186.0,271.0 151.0,269.5 116.0,272.2 81.0,280.8 46.0,296.9" fill="#d62728" opacity="0.11"/>
<polyline points="46.0,296.5 81.0,280.0 116.0,271.7 151.0,267.7 186.0,270.0 221.0,291.5 256.0,298.3" fill="none" stroke="#d62728" stroke-width="1.6"/>
<circle cx="46.0" cy="296.5" r="2" fill="#d62728"/>
<circle cx="81.0" cy="280.0" r="2" fill="#d62728"/>
<circle cx="116.0" cy="271.7" r="2" fill="#d62728"/>
<circle cx="151.0" cy="267.7" r="2" fill="#d62728"/>
<circle cx="186.0" cy="270.0" r="2" fill="#d62728"/>
<circle cx="221.0" cy="291.5" r="2" fill="#d62728"/>
<circle cx="256.0" cy="298.3" r="2" fill="#d62728"/>
<polygon points="46.0,288.8 81.0,264.7 116.0,251.0 151.0,242.6 186.0,238.1 221.0,283.1 256.0,284.7 256.0,290.8 221.0,287.2 186.0,246.0 151.0,244.4 116.0,251.7 81.0,266.6 46.0,290.8" fill="#2ca02c" opacity="0.11"/>
<polyline points="46.0,289.7 81.0,265.2 116.0,251.4 151.0,243.7 186.0,240.5 221.0,284.3 256.0,287.7" fill="none" stroke="#2ca02c" stroke-width="1.6"/>
<circle cx="46.0" cy="289.7" r="2" fill="#2ca02c"/>
<circle cx="81.0" cy="265.2" r="2" fill="#2ca02c"/>
<circle cx="116.0" cy="251.4" r="2" fill="#2ca02c"/>
<circle cx="151.0" cy="243.7" r="2" fill="#2ca02c"/>
<circle cx="186.0" cy="240.5" r="2" fill="#2ca02c"/>
<circle cx="221.0" cy="284.3" r="2" fill="#2ca02c"/>
<circle cx="256.0" cy="287.7" r="2" fill="#2ca02c"/>
<polygon points="46.0,297.3 81.0,274.9 116.0,257.2 151.0,250.6 186.0,264.9 221.0,312.4 256.0,315.3 256.0,318.5 221.0,316.1 186.0,285.9 151.0,253.0 116.0,265.1 81.0,279.5 46.0,301.7" fill="#1f77b4" opacity="0.11"/>
<polyline points="46.0,298.3 81.0,276.2 116.0,259.7 151.0,251.6 186.0,272.7 221.0,314.6 256.0,317.3" fill="none" stroke="#1f77b4" stroke-width="1.6"/>
<circle cx="46.0" cy="298.3" r="2" fill="#1f77b4"/>
<circle cx="81.0" cy="276.2" r="2" fill="#1f77b4"/>
<circle cx="116.0" cy="259.7" r="2" fill="#1f77b4"/>
<circle cx="151.0" cy="251.6" r="2" fill="#1f77b4"/>
<circle cx="186.0" cy="272.7" r="2" fill="#1f77b4"/>
<circle cx="221.0" cy="314.6" r="2" fill="#1f77b4"/>
<circle cx="256.0" cy="317.3" r="2" fill="#1f77b4"/>
<text x="151.0" y="227" text-anchor="middle" font-size="12" font-weight="bold">zhemv</text>
<line x1="46.0" y1="232" x2="46.0" y2="370" stroke="#f4f4f4"/>
<text x="46.0" y="381" text-anchor="middle" font-size="8" fill="#999">64</text>
<line x1="81.0" y1="232" x2="81.0" y2="370" stroke="#f4f4f4"/>
<text x="81.0" y="381" text-anchor="middle" font-size="8" fill="#999">128</text>
<line x1="116.0" y1="232" x2="116.0" y2="370" stroke="#f4f4f4"/>
<text x="116.0" y="381" text-anchor="middle" font-size="8" fill="#999">256</text>
<line x1="151.0" y1="232" x2="151.0" y2="370" stroke="#f4f4f4"/>
<text x="151.0" y="381" text-anchor="middle" font-size="8" fill="#999">512</text>
<line x1="186.0" y1="232" x2="186.0" y2="370" stroke="#f4f4f4"/>
<text x="186.0" y="381" text-anchor="middle" font-size="8" fill="#999">1k</text>
<line x1="221.0" y1="232" x2="221.0" y2="370" stroke="#f4f4f4"/>
<text x="221.0" y="381" text-anchor="middle" font-size="8" fill="#999">2k</text>
<line x1="256.0" y1="232" x2="256.0" y2="370" stroke="#f4f4f4"/>
<text x="256.0" y="381" text-anchor="middle" font-size="8" fill="#999">4k</text>
<rect x="276" y="232" width="210" height="138" fill="none" stroke="#e2e2e2"/>
<line x1="276" y1="299.861444957489" x2="486" y2="299.861444957489" stroke="#d33" stroke-dasharray="4 3"/>
<text x="272" y="373.0" text-anchor="end" font-size="9" fill="#999">0.5×</text>
<text x="272" y="302.861444957489" text-anchor="end" font-size="9" fill="#999">1.0×</text>
<polygon points="276.0,239.8 311.0,259.6 346.0,290.0 381.0,284.1 416.0,288.4 451.0,288.2 486.0,285.6 486.0,287.7 451.0,290.9 416.0,290.0 381.0,287.1 346.0,295.4 311.0,264.3 276.0,245.3" fill="#d62728" opacity="0.11"/>
<polyline points="276.0,240.8 311.0,261.0 346.0,293.4 381.0,285.7 416.0,289.1 451.0,288.5 486.0,287.1" fill="none" stroke="#d62728" stroke-width="1.6"/>
<circle cx="276.0" cy="240.8" r="2" fill="#d62728"/>
<circle cx="311.0" cy="261.0" r="2" fill="#d62728"/>
<circle cx="346.0" cy="293.4" r="2" fill="#d62728"/>
<circle cx="381.0" cy="285.7" r="2" fill="#d62728"/>
<circle cx="416.0" cy="289.1" r="2" fill="#d62728"/>
<circle cx="451.0" cy="288.5" r="2" fill="#d62728"/>
<circle cx="486.0" cy="287.1" r="2" fill="#d62728"/>
<polygon points="276.0,253.2 311.0,244.3 346.0,268.4 381.0,288.1 416.0,290.9 451.0,272.7 486.0,285.1 486.0,289.3 451.0,290.5 416.0,299.8 381.0,297.5 346.0,274.5 311.0,248.1 276.0,268.0" fill="#2ca02c" opacity="0.11"/>
<polyline points="276.0,257.3 311.0,246.8 346.0,269.8 381.0,290.1 416.0,294.3 451.0,282.8 486.0,286.1" fill="none" stroke="#2ca02c" stroke-width="1.6"/>
<circle cx="276.0" cy="257.3" r="2" fill="#2ca02c"/>
<circle cx="311.0" cy="246.8" r="2" fill="#2ca02c"/>
<circle cx="346.0" cy="269.8" r="2" fill="#2ca02c"/>
<circle cx="381.0" cy="290.1" r="2" fill="#2ca02c"/>
<circle cx="416.0" cy="294.3" r="2" fill="#2ca02c"/>
<circle cx="451.0" cy="282.8" r="2" fill="#2ca02c"/>
<circle cx="486.0" cy="286.1" r="2" fill="#2ca02c"/>
<polygon points="276.0,240.3 311.0,252.6 346.0,267.5 381.0,281.7 416.0,291.0 451.0,278.2 486.0,270.1 486.0,278.0 451.0,284.8 416.0,312.3 381.0,283.9 346.0,278.6 311.0,260.1 276.0,244.8" fill="#1f77b4" opacity="0.11"/>
<polyline points="276.0,241.3 311.0,255.9 346.0,273.2 381.0,282.9 416.0,301.5 451.0,280.9 486.0,276.9" fill="none" stroke="#1f77b4" stroke-width="1.6"/>
<circle cx="276.0" cy="241.3" r="2" fill="#1f77b4"/>
<circle cx="311.0" cy="255.9" r="2" fill="#1f77b4"/>
<circle cx="346.0" cy="273.2" r="2" fill="#1f77b4"/>
<circle cx="381.0" cy="282.9" r="2" fill="#1f77b4"/>
<circle cx="416.0" cy="301.5" r="2" fill="#1f77b4"/>
<circle cx="451.0" cy="280.9" r="2" fill="#1f77b4"/>
<circle cx="486.0" cy="276.9" r="2" fill="#1f77b4"/>
<text x="381.0" y="227" text-anchor="middle" font-size="12" font-weight="bold">ztrmv</text>
<line x1="276.0" y1="232" x2="276.0" y2="370" stroke="#f4f4f4"/>
<text x="276.0" y="381" text-anchor="middle" font-size="8" fill="#999">64</text>
<line x1="311.0" y1="232" x2="311.0" y2="370" stroke="#f4f4f4"/>
<text x="311.0" y="381" text-anchor="middle" font-size="8" fill="#999">128</text>
<line x1="346.0" y1="232" x2="346.0" y2="370" stroke="#f4f4f4"/>
<text x="346.0" y="381" text-anchor="middle" font-size="8" fill="#999">256</text>
<line x1="381.0" y1="232" x2="381.0" y2="370" stroke="#f4f4f4"/>
<text x="381.0" y="381" text-anchor="middle" font-size="8" fill="#999">512</text>
<line x1="416.0" y1="232" x2="416.0" y2="370" stroke="#f4f4f4"/>
<text x="416.0" y="381" text-anchor="middle" font-size="8" fill="#999">1k</text>
<line x1="451.0" y1="232" x2="451.0" y2="370" stroke="#f4f4f4"/>
<text x="451.0" y="381" text-anchor="middle" font-size="8" fill="#999">2k</text>
<line x1="486.0" y1="232" x2="486.0" y2="370" stroke="#f4f4f4"/>
<text x="486.0" y="381" text-anchor="middle" font-size="8" fill="#999">4k</text>
<rect x="506" y="232" width="210" height="138" fill="none" stroke="#e2e2e2"/>
<line x1="506" y1="290.06191462196944" x2="716" y2="290.06191462196944" stroke="#d33" stroke-dasharray="4 3"/>
<text x="502" y="373.0" text-anchor="end" font-size="9" fill="#999">0.5×</text>
<text x="502" y="293.06191462196944" text-anchor="end" font-size="9" fill="#999">1.0×</text>
<text x="502" y="235.30936387507307" text-anchor="end" font-size="9" fill="#999">1.65×</text>
<polygon points="506.0,240.9 541.0,257.9 576.0,285.7 611.0,274.2 646.0,278.4 681.0,276.7 716.0,274.6 716.0,276.6 681.0,278.9 646.0,279.8 611.0,277.3 576.0,288.3 541.0,260.1 506.0,243.7" fill="#d62728" opacity="0.11"/>
<polyline points="506.0,241.5 541.0,258.7 576.0,286.5 611.0,275.4 646.0,279.1 681.0,277.5 716.0,276.3" fill="none" stroke="#d62728" stroke-width="1.6"/>
<circle cx="506.0" cy="241.5" r="2" fill="#d62728"/>
<circle cx="541.0" cy="258.7" r="2" fill="#d62728"/>
<circle cx="576.0" cy="286.5" r="2" fill="#d62728"/>
<circle cx="611.0" cy="275.4" r="2" fill="#d62728"/>
<circle cx="646.0" cy="279.1" r="2" fill="#d62728"/>
<circle cx="681.0" cy="277.5" r="2" fill="#d62728"/>
<circle cx="716.0" cy="276.3" r="2" fill="#d62728"/>
<polygon points="506.0,253.7 541.0,254.8 576.0,265.1 611.0,274.8 646.0,284.8 681.0,266.2 716.0,262.1 716.0,278.5 681.0,280.3 646.0,316.6 611.0,281.1 576.0,273.7 541.0,261.2 506.0,257.8" fill="#2ca02c" opacity="0.11"/>
<polyline points="506.0,254.4 541.0,257.3 576.0,268.4 611.0,278.2 646.0,301.1 681.0,273.7 716.0,265.1" fill="none" stroke="#2ca02c" stroke-width="1.6"/>
<circle cx="506.0" cy="254.4" r="2" fill="#2ca02c"/>
<circle cx="541.0" cy="257.3" r="2" fill="#2ca02c"/>
<circle cx="576.0" cy="268.4" r="2" fill="#2ca02c"/>
<circle cx="611.0" cy="278.2" r="2" fill="#2ca02c"/>
<circle cx="646.0" cy="301.1" r="2" fill="#2ca02c"/>
<circle cx="681.0" cy="273.7" r="2" fill="#2ca02c"/>
<circle cx="716.0" cy="265.1" r="2" fill="#2ca02c"/>
<polygon points="506.0,245.4 541.0,253.9 576.0,261.4 611.0,268.4 646.0,286.0 681.0,263.9 716.0,262.0 716.0,273.0 681.0,272.7 646.0,315.6 611.0,275.3 576.0,267.2 541.0,264.0 506.0,246.8" fill="#1f77b4" opacity="0.11"/>
<polyline points="506.0,246.1 541.0,255.5 576.0,263.8 611.0,271.9 646.0,299.5 681.0,267.8 716.0,263.1" fill="none" stroke="#1f77b4" stroke-width="1.6"/>
<circle cx="506.0" cy="246.1" r="2" fill="#1f77b4"/>
<circle cx="541.0" cy="255.5" r="2" fill="#1f77b4"/>
<circle cx="576.0" cy="263.8" r="2" fill="#1f77b4"/>
<circle cx="611.0" cy="271.9" r="2" fill="#1f77b4"/>
<circle cx="646.0" cy="299.5" r="2" fill="#1f77b4"/>
<circle cx="681.0" cy="267.8" r="2" fill="#1f77b4"/>
<circle cx="716.0" cy="263.1" r="2" fill="#1f77b4"/>
<text x="611.0" y="227" text-anchor="middle" font-size="12" font-weight="bold">ztrsv</text>
<line x1="506.0" y1="232" x2="506.0" y2="370" stroke="#f4f4f4"/>
<text x="506.0" y="381" text-anchor="middle" font-size="8" fill="#999">64</text>
<line x1="541.0" y1="232" x2="541.0" y2="370" stroke="#f4f4f4"/>
<text x="541.0" y="381" text-anchor="middle" font-size="8" fill="#999">128</text>
<line x1="576.0" y1="232" x2="576.0" y2="370" stroke="#f4f4f4"/>
<text x="576.0" y="381" text-anchor="middle" font-size="8" fill="#999">256</text>
<line x1="611.0" y1="232" x2="611.0" y2="370" stroke="#f4f4f4"/>
<text x="611.0" y="381" text-anchor="middle" font-size="8" fill="#999">512</text>
<line x1="646.0" y1="232" x2="646.0" y2="370" stroke="#f4f4f4"/>
<text x="646.0" y="381" text-anchor="middle" font-size="8" fill="#999">1k</text>
<line x1="681.0" y1="232" x2="681.0" y2="370" stroke="#f4f4f4"/>
<text x="681.0" y="381" text-anchor="middle" font-size="8" fill="#999">2k</text>
<line x1="716.0" y1="232" x2="716.0" y2="370" stroke="#f4f4f4"/>
<text x="716.0" y="381" text-anchor="middle" font-size="8" fill="#999">4k</text>
<rect x="736" y="232" width="210" height="138" fill="none" stroke="#e2e2e2"/>
<line x1="736" y1="302.7412215874578" x2="946" y2="302.7412215874578" stroke="#d33" stroke-dasharray="4 3"/>
<text x="732" y="373.0" text-anchor="end" font-size="9" fill="#999">0.5×</text>
<text x="732" y="305.7412215874578" text-anchor="end" font-size="9" fill="#999">1.0×</text>
<text x="732" y="235.1443383660824" text-anchor="end" font-size="9" fill="#999">2.07×</text>
<polygon points="736.0,239.5 771.0,250.0 806.0,261.9 841.0,274.1 876.0,275.2 911.0,274.8 946.0,277.1 946.0,278.9 911.0,276.1 876.0,276.7 841.0,275.7 806.0,265.1 771.0,253.0 736.0,241.5" fill="#d62728" opacity="0.11"/>
<polyline points="736.0,240.7 771.0,251.5 806.0,263.5 841.0,274.7 876.0,276.0 911.0,275.5 946.0,278.2" fill="none" stroke="#d62728" stroke-width="1.6"/>
<circle cx="736.0" cy="240.7" r="2" fill="#d62728"/>
<circle cx="771.0" cy="251.5" r="2" fill="#d62728"/>
<circle cx="806.0" cy="263.5" r="2" fill="#d62728"/>
<circle cx="841.0" cy="274.7" r="2" fill="#d62728"/>
<circle cx="876.0" cy="276.0" r="2" fill="#d62728"/>
<circle cx="911.0" cy="275.5" r="2" fill="#d62728"/>
<circle cx="946.0" cy="278.2" r="2" fill="#d62728"/>
<polygon points="736.0,263.3 771.0,257.0 806.0,266.7 841.0,269.4 876.0,265.6 911.0,285.4 946.0,291.4 946.0,295.3 911.0,290.7 876.0,268.2 841.0,270.6 806.0,268.8 771.0,261.6 736.0,265.8" fill="#2ca02c" opacity="0.11"/>
<polyline points="736.0,264.6 771.0,261.0 806.0,267.7 841.0,270.0 876.0,266.9 911.0,287.2 946.0,294.2" fill="none" stroke="#2ca02c" stroke-width="1.6"/>
<circle cx="736.0" cy="264.6" r="2" fill="#2ca02c"/>
<circle cx="771.0" cy="261.0" r="2" fill="#2ca02c"/>
<circle cx="806.0" cy="267.7" r="2" fill="#2ca02c"/>
<circle cx="841.0" cy="270.0" r="2" fill="#2ca02c"/>
<circle cx="876.0" cy="266.9" r="2" fill="#2ca02c"/>
<circle cx="911.0" cy="287.2" r="2" fill="#2ca02c"/>
<circle cx="946.0" cy="294.2" r="2" fill="#2ca02c"/>
<polygon points="736.0,253.9 771.0,251.1 806.0,260.4 841.0,266.5 876.0,261.4 911.0,289.3 946.0,290.7 946.0,293.8 911.0,293.5 876.0,277.9 841.0,268.5 806.0,263.1 771.0,255.5 736.0,256.1" fill="#1f77b4" opacity="0.11"/>
<polyline points="736.0,254.8 771.0,254.0 806.0,262.1 841.0,267.4 876.0,274.3 911.0,291.0 946.0,292.2" fill="none" stroke="#1f77b4" stroke-width="1.6"/>
<circle cx="736.0" cy="254.8" r="2" fill="#1f77b4"/>
<circle cx="771.0" cy="254.0" r="2" fill="#1f77b4"/>
<circle cx="806.0" cy="262.1" r="2" fill="#1f77b4"/>
<circle cx="841.0" cy="267.4" r="2" fill="#1f77b4"/>
<circle cx="876.0" cy="274.3" r="2" fill="#1f77b4"/>
<circle cx="911.0" cy="291.0" r="2" fill="#1f77b4"/>
<circle cx="946.0" cy="292.2" r="2" fill="#1f77b4"/>
<text x="841.0" y="227" text-anchor="middle" font-size="12" font-weight="bold">zhpmv</text>
<line x1="736.0" y1="232" x2="736.0" y2="370" stroke="#f4f4f4"/>
<text x="736.0" y="381" text-anchor="middle" font-size="8" fill="#999">64</text>
<line x1="771.0" y1="232" x2="771.0" y2="370" stroke="#f4f4f4"/>
<text x="771.0" y="381" text-anchor="middle" font-size="8" fill="#999">128</text>
<line x1="806.0" y1="232" x2="806.0" y2="370" stroke="#f4f4f4"/>
<text x="806.0" y="381" text-anchor="middle" font-size="8" fill="#999">256</text>
<line x1="841.0" y1="232" x2="841.0" y2="370" stroke="#f4f4f4"/>
<text x="841.0" y="381" text-anchor="middle" font-size="8" fill="#999">512</text>
<line x1="876.0" y1="232" x2="876.0" y2="370" stroke="#f4f4f4"/>
<text x="876.0" y="381" text-anchor="middle" font-size="8" fill="#999">1k</text>
<line x1="911.0" y1="232" x2="911.0" y2="370" stroke="#f4f4f4"/>
<text x="911.0" y="381" text-anchor="middle" font-size="8" fill="#999">2k</text>
<line x1="946.0" y1="232" x2="946.0" y2="370" stroke="#f4f4f4"/>
<text x="946.0" y="381" text-anchor="middle" font-size="8" fill="#999">4k</text>
<rect x="46" y="404" width="210" height="138" fill="none" stroke="#e2e2e2"/>
<line x1="46" y1="470.1539778741983" x2="256" y2="470.1539778741983" stroke="#d33" stroke-dasharray="4 3"/>
<text x="42" y="545.0" text-anchor="end" font-size="9" fill="#999">0.5×</text>
<text x="42" y="473.1539778741983" text-anchor="end" font-size="9" fill="#999">1.0×</text>
<text x="42" y="407.1715801541343" text-anchor="end" font-size="9" fill="#999">1.89×</text>
<polygon points="46.0,412.0 81.0,420.0 116.0,426.1 151.0,428.0 186.0,433.4 221.0,431.7 256.0,431.7 256.0,432.4 221.0,434.9 186.0,436.0 151.0,429.9 116.0,428.9 81.0,473.7 46.0,417.0" fill="#d62728" opacity="0.11"/>
<polyline points="46.0,414.5 81.0,424.7 116.0,426.7 151.0,428.6 186.0,434.4 221.0,432.8 256.0,432.0" fill="none" stroke="#d62728" stroke-width="1.6"/>
<circle cx="46.0" cy="414.5" r="2" fill="#d62728"/>
<circle cx="81.0" cy="424.7" r="2" fill="#d62728"/>
<circle cx="116.0" cy="426.7" r="2" fill="#d62728"/>
<circle cx="151.0" cy="428.6" r="2" fill="#d62728"/>
<circle cx="186.0" cy="434.4" r="2" fill="#d62728"/>
<circle cx="221.0" cy="432.8" r="2" fill="#d62728"/>
<circle cx="256.0" cy="432.0" r="2" fill="#d62728"/>
<polygon points="46.0,430.5 81.0,440.8 116.0,446.3 151.0,448.9 186.0,447.3 221.0,451.6 256.0,452.5 256.0,454.8 221.0,459.0 186.0,452.1 151.0,453.0 116.0,449.3 81.0,448.1 46.0,437.2" fill="#2ca02c" opacity="0.11"/>
<polyline points="46.0,433.4 81.0,444.6 116.0,447.4 151.0,449.9 186.0,450.2 221.0,452.4 256.0,453.2" fill="none" stroke="#2ca02c" stroke-width="1.6"/>
<circle cx="46.0" cy="433.4" r="2" fill="#2ca02c"/>
<circle cx="81.0" cy="444.6" r="2" fill="#2ca02c"/>
<circle cx="116.0" cy="447.4" r="2" fill="#2ca02c"/>
<circle cx="151.0" cy="449.9" r="2" fill="#2ca02c"/>
<circle cx="186.0" cy="450.2" r="2" fill="#2ca02c"/>
<circle cx="221.0" cy="452.4" r="2" fill="#2ca02c"/>
<circle cx="256.0" cy="453.2" r="2" fill="#2ca02c"/>
<polygon points="46.0,429.2 81.0,435.9 116.0,440.8 151.0,437.5 186.0,441.0 221.0,445.7 256.0,443.9 256.0,448.2 221.0,455.4 186.0,447.5 151.0,450.6 116.0,451.7 81.0,446.8 46.0,438.1" fill="#1f77b4" opacity="0.11"/>
<polyline points="46.0,430.7 81.0,438.7 116.0,443.2 151.0,443.5 186.0,445.5 221.0,447.9 256.0,446.8" fill="none" stroke="#1f77b4" stroke-width="1.6"/>
<circle cx="46.0" cy="430.7" r="2" fill="#1f77b4"/>
<circle cx="81.0" cy="438.7" r="2" fill="#1f77b4"/>
<circle cx="116.0" cy="443.2" r="2" fill="#1f77b4"/>
<circle cx="151.0" cy="443.5" r="2" fill="#1f77b4"/>
<circle cx="186.0" cy="445.5" r="2" fill="#1f77b4"/>
<circle cx="221.0" cy="447.9" r="2" fill="#1f77b4"/>
<circle cx="256.0" cy="446.8" r="2" fill="#1f77b4"/>
<text x="151.0" y="399" text-anchor="middle" font-size="12" font-weight="bold">zgbmvN</text>
<line x1="46.0" y1="404" x2="46.0" y2="542" stroke="#f4f4f4"/>
<text x="46.0" y="553" text-anchor="middle" font-size="8" fill="#999">64</text>
<line x1="81.0" y1="404" x2="81.0" y2="542" stroke="#f4f4f4"/>
<text x="81.0" y="553" text-anchor="middle" font-size="8" fill="#999">128</text>
<line x1="116.0" y1="404" x2="116.0" y2="542" stroke="#f4f4f4"/>
<text x="116.0" y="553" text-anchor="middle" font-size="8" fill="#999">256</text>
<line x1="151.0" y1="404" x2="151.0" y2="542" stroke="#f4f4f4"/>
<text x="151.0" y="553" text-anchor="middle" font-size="8" fill="#999">512</text>
<line x1="186.0" y1="404" x2="186.0" y2="542" stroke="#f4f4f4"/>
<text x="186.0" y="553" text-anchor="middle" font-size="8" fill="#999">1k</text>
<line x1="221.0" y1="404" x2="221.0" y2="542" stroke="#f4f4f4"/>
<text x="221.0" y="553" text-anchor="middle" font-size="8" fill="#999">2k</text>
<line x1="256.0" y1="404" x2="256.0" y2="542" stroke="#f4f4f4"/>
<text x="256.0" y="553" text-anchor="middle" font-size="8" fill="#999">4k</text>
<rect x="276" y="404" width="210" height="138" fill="none" stroke="#e2e2e2"/>
<line x1="276" y1="459.7627611906553" x2="486" y2="459.7627611906553" stroke="#d33" stroke-dasharray="4 3"/>
<text x="272" y="545.0" text-anchor="end" font-size="9" fill="#999">0.5×</text>
<text x="272" y="462.7627611906553" text-anchor="end" font-size="9" fill="#999">1.0×</text>
<text x="272" y="407.0" text-anchor="end" font-size="9" fill="#999">1.6×</text>
<polygon points="276.0,418.0 311.0,419.5 346.0,422.9 381.0,422.7 416.0,423.4 451.0,423.2 486.0,423.3 486.0,424.6 451.0,424.6 416.0,425.9 381.0,426.0 346.0,425.6 311.0,426.1 276.0,421.7" fill="#d62728" opacity="0.11"/>
<polyline points="276.0,420.8 311.0,424.0 346.0,424.7 381.0,425.1 416.0,425.1 451.0,424.4 486.0,424.5" fill="none" stroke="#d62728" stroke-width="1.6"/>
<circle cx="276.0" cy="420.8" r="2" fill="#d62728"/>
<circle cx="311.0" cy="424.0" r="2" fill="#d62728"/>
<circle cx="346.0" cy="424.7" r="2" fill="#d62728"/>
<circle cx="381.0" cy="425.1" r="2" fill="#d62728"/>
<circle cx="416.0" cy="425.1" r="2" fill="#d62728"/>
<circle cx="451.0" cy="424.4" r="2" fill="#d62728"/>
<circle cx="486.0" cy="424.5" r="2" fill="#d62728"/>
<polygon points="276.0,442.8 311.0,447.9 346.0,445.2 381.0,445.7 416.0,446.0 451.0,445.2 486.0,449.5 486.0,455.7 451.0,455.9 416.0,457.4 381.0,455.0 346.0,454.4 311.0,453.4 276.0,454.1" fill="#2ca02c" opacity="0.11"/>
<polyline points="276.0,448.4 311.0,450.0 346.0,452.6 381.0,452.8 416.0,453.8 451.0,454.6 486.0,454.8" fill="none" stroke="#2ca02c" stroke-width="1.6"/>
<circle cx="276.0" cy="448.4" r="2" fill="#2ca02c"/>
<circle cx="311.0" cy="450.0" r="2" fill="#2ca02c"/>
<circle cx="346.0" cy="452.6" r="2" fill="#2ca02c"/>
<circle cx="381.0" cy="452.8" r="2" fill="#2ca02c"/>
<circle cx="416.0" cy="453.8" r="2" fill="#2ca02c"/>
<circle cx="451.0" cy="454.6" r="2" fill="#2ca02c"/>
<circle cx="486.0" cy="454.8" r="2" fill="#2ca02c"/>
<polygon points="276.0,438.9 311.0,445.8 346.0,449.0 381.0,450.8 416.0,452.1 451.0,450.6 486.0,451.2 486.0,453.4 451.0,453.4 416.0,454.0 381.0,453.3 346.0,452.8 311.0,460.6 276.0,452.9" fill="#1f77b4" opacity="0.11"/>
<polyline points="276.0,448.5 311.0,451.6 346.0,451.2 381.0,451.9 416.0,452.9 451.0,452.3 486.0,451.9" fill="none" stroke="#1f77b4" stroke-width="1.6"/>
<circle cx="276.0" cy="448.5" r="2" fill="#1f77b4"/>
<circle cx="311.0" cy="451.6" r="2" fill="#1f77b4"/>
<circle cx="346.0" cy="451.2" r="2" fill="#1f77b4"/>
<circle cx="381.0" cy="451.9" r="2" fill="#1f77b4"/>
<circle cx="416.0" cy="452.9" r="2" fill="#1f77b4"/>
<circle cx="451.0" cy="452.3" r="2" fill="#1f77b4"/>
<circle cx="486.0" cy="451.9" r="2" fill="#1f77b4"/>
<text x="381.0" y="399" text-anchor="middle" font-size="12" font-weight="bold">zhbmv</text>
<line x1="276.0" y1="404" x2="276.0" y2="542" stroke="#f4f4f4"/>
<text x="276.0" y="553" text-anchor="middle" font-size="8" fill="#999">64</text>
<line x1="311.0" y1="404" x2="311.0" y2="542" stroke="#f4f4f4"/>
<text x="311.0" y="553" text-anchor="middle" font-size="8" fill="#999">128</text>
<line x1="346.0" y1="404" x2="346.0" y2="542" stroke="#f4f4f4"/>
<text x="346.0" y="553" text-anchor="middle" font-size="8" fill="#999">256</text>
<line x1="381.0" y1="404" x2="381.0" y2="542" stroke="#f4f4f4"/>
<text x="381.0" y="553" text-anchor="middle" font-size="8" fill="#999">512</text>
<line x1="416.0" y1="404" x2="416.0" y2="542" stroke="#f4f4f4"/>
<text x="416.0" y="553" text-anchor="middle" font-size="8" fill="#999">1k</text>
<line x1="451.0" y1="404" x2="451.0" y2="542" stroke="#f4f4f4"/>
<text x="451.0" y="553" text-anchor="middle" font-size="8" fill="#999">2k</text>
<line x1="486.0" y1="404" x2="486.0" y2="542" stroke="#f4f4f4"/>
<text x="486.0" y="553" text-anchor="middle" font-size="8" fill="#999">4k</text>
</svg>
