<svg xmlns="http://www.w3.org/2000/svg" width="900" height="440" font-family="sans-serif">
<rect width="900" height="440" fill="white"/>
<text x="450.0" y="28" text-anchor="middle" font-size="18" font-weight="bold">Complex BLAS-2: PureBLAS / OpenBLAS (AVX-512 native (Zen5), 1 thread, ComplexF64)</text>
<line x1="60" y1="358.0" x2="880" y2="358.0" stroke="#eee"/>
<text x="52" y="362.0" text-anchor="end" font-size="11" fill="#666">0×</text>
<line x1="60" y1="301.1067729241088" x2="880" y2="301.1067729241088" stroke="#eee"/>
<text x="52" y="305.1067729241088" text-anchor="end" font-size="11" fill="#666">0.5×</text>
<line x1="60" y1="244.2135458482175" x2="880" y2="244.2135458482175" stroke="#eee"/>
<text x="52" y="248.2135458482175" text-anchor="end" font-size="11" fill="#666">1×</text>
<line x1="60" y1="187.32031877232626" x2="880" y2="187.32031877232626" stroke="#eee"/>
<text x="52" y="191.32031877232626" text-anchor="end" font-size="11" fill="#666">1.5×</text>
<line x1="60" y1="244.2135458482175" x2="880" y2="244.2135458482175" stroke="#888" stroke-width="1"/>
<line x1="60" y1="248.76500401428882" x2="880" y2="248.76500401428882" stroke="#d33" stroke-width="1.5" stroke-dasharray="6 4"/>
<text x="880" y="243.76500401428882" text-anchor="end" font-size="11" fill="#d33">0.96× gate</text>
<polygon points="107.4,263.2 109.0,262.4 110.8,261.7 112.9,260.9 115.1,260.1 117.5,259.4 119.9,258.6 122.4,257.8 124.9,257.1 127.2,256.3 129.4,255.5 131.3,254.8 132.9,254.0 134.2,253.3 135.0,252.5 135.4,251.7 135.4,251.0 134.9,250.2 134.0,249.4 132.7,248.7 131.0,247.9 129.0,247.1 126.8,246.4 124.5,245.6 122.1,244.8 119.7,244.1 117.5,243.3 115.5,242.5 113.7,241.8 112.2,241.0 111.1,240.2 110.3,239.5 109.9,238.7 109.7,237.9 109.8,237.2 110.0,236.4 110.4,235.6 110.8,234.9 111.2,234.1 111.6,233.4 111.8,232.6 111.9,231.8 111.9,231.1 111.8,230.3 111.5,229.5 111.2,228.8 111.0,228.0 110.7,227.2 110.6,226.5 110.7,225.7 111.0,224.9 111.5,224.2 112.2,223.4 113.2,222.6 114.2,221.9 115.5,221.1 116.7,220.3 117.9,219.6 119.0,218.8 119.9,218.0 120.5,217.3 120.8,216.5 120.8,215.7 120.5,215.0 119.8,214.2 118.8,213.4 117.5,212.7 116.1,211.9 114.5,211.2 112.9,210.4 111.2,209.6 109.7,208.9 92.3,208.9 90.8,209.6 89.1,210.4 87.5,211.2 85.9,211.9 84.5,212.7 83.2,213.4 82.2,214.2 81.5,215.0 81.2,215.7 81.2,216.5 81.5,217.3 82.1,218.0 83.0,218.8 84.1,219.6 85.3,220.3 86.5,221.1 87.8,221.9 88.8,222.6 89.8,223.4 90.5,224.2 91.0,224.9 91.3,225.7 91.4,226.5 91.3,227.2 91.0,228.0 90.8,228.8 90.5,229.5 90.2,230.3 90.1,231.1 90.1,231.8 90.2,232.6 90.4,233.4 90.8,234.1 91.2,234.9 91.6,235.6 92.0,236.4 92.2,237.2 92.3,237.9 92.1,238.7 91.7,239.5 90.9,240.2 89.8,241.0 88.3,241.8 86.5,242.5 84.5,243.3 82.3,244.1 79.9,244.8 77.5,245.6 75.2,246.4 73.0,247.1 71.0,247.9 69.3,248.7 68.0,249.4 67.1,250.2 66.6,251.0 66.6,251.7 67.0,252.5 67.8,253.3 69.1,254.0 70.7,254.8 72.6,255.5 74.8,256.3 77.1,257.1 79.6,257.8 82.1,258.6 84.5,259.4 86.9,260.1 89.1,260.9 91.2,261.7 93.0,262.4 94.6,263.2" fill="#d33" opacity="0.5" stroke="#d33" stroke-width="1"/>
<line x1="70.5" y1="248.09644014966486" x2="131.5" y2="248.09644014966486" stroke="#114" stroke-width="2"/>
<circle cx="101.0" cy="255.38745193528067" r="2.4" fill="#114"/>
<text x="101.0" y="208.30000592065775" text-anchor="middle" font-size="11">0.97</text>
<text x="101.0" y="376" text-anchor="middle" font-size="12">zgemvN</text>
<polygon points="190.1,268.1 191.4,267.3 192.8,266.6 194.1,265.8 195.3,265.0 196.3,264.2 197.0,263.5 197.5,262.7 197.8,261.9 197.9,261.2 197.8,260.4 197.7,259.6 197.6,258.8 197.7,258.1 198.1,257.3 198.7,256.5 199.8,255.7 201.1,255.0 202.8,254.2 204.7,253.4 206.8,252.7 208.9,251.9 210.8,251.1 212.5,250.3 213.9,249.6 215.0,248.8 215.5,248.0 215.7,247.3 215.4,246.5 214.6,245.7 213.5,244.9 212.1,244.2 210.3,243.4 208.4,242.6 206.3,241.8 204.1,241.1 201.9,240.3 199.8,239.5 197.9,238.8 196.2,238.0 194.8,237.2 193.8,236.4 193.3,235.7 193.3,234.9 193.8,234.1 194.9,233.4 196.5,232.6 198.5,231.8 201.0,231.0 203.6,230.3 206.4,229.5 209.1,228.7 211.6,227.9 213.8,227.2 215.6,226.4 216.8,225.6 217.4,224.9 217.4,224.1 216.9,223.3 215.9,222.5 214.4,221.8 212.5,221.0 210.3,220.2 207.9,219.4 205.4,218.7 202.9,217.9 200.4,217.1 197.9,216.4 195.6,215.6 193.4,214.8 191.5,214.0 189.8,213.3 176.2,213.3 174.5,214.0 172.6,214.8 170.4,215.6 168.1,216.4 165.6,217.1 163.1,217.9 160.6,218.7 158.1,219.4 155.7,220.2 153.5,221.0 151.6,221.8 150.1,222.5 149.1,223.3 148.6,224.1 148.6,224.9 149.2,225.6 150.4,226.4 152.2,227.2 154.4,227.9 156.9,228.7 159.6,229.5 162.4,230.3 165.0,231.0 167.5,231.8 169.5,232.6 171.1,233.4 172.2,234.1 172.7,234.9 172.7,235.7 172.2,236.4 171.2,237.2 169.8,238.0 168.1,238.8 166.2,239.5 164.1,240.3 161.9,241.1 159.7,241.8 157.6,242.6 155.7,243.4 153.9,244.2 152.5,244.9 151.4,245.7 150.6,246.5 150.3,247.3 150.5,248.0 151.0,248.8 152.1,249.6 153.5,250.3 155.2,251.1 157.1,251.9 159.2,252.7 161.3,253.4 163.2,254.2 164.9,255.0 166.2,255.7 167.3,256.5 167.9,257.3 168.3,258.1 168.4,258.8 168.3,259.6 168.2,260.4 168.1,261.2 168.2,261.9 168.5,262.7 169.0,263.5 169.7,264.2 170.7,265.0 171.9,265.8 173.2,266.6 174.6,267.3 175.9,268.1" fill="#d33" opacity="0.5" stroke="#d33" stroke-width="1"/>
<line x1="159.8" y1="241.81474450488267" x2="206.2" y2="241.81474450488267" stroke="#114" stroke-width="2"/>
<circle cx="183.0" cy="262.5143175303376" r="2.4" fill="#114"/>
<text x="183.0" y="212.75934163793096" text-anchor="middle" font-size="11">1.02</text>
<text x="183.0" y="376" text-anchor="middle" font-size="12">zgemvT</text>
<polygon points="272.2,264.7 273.7,264.0 275.2,263.3 276.7,262.6 278.1,261.9 279.3,261.2 280.3,260.4 281.1,259.7 281.7,259.0 282.2,258.3 282.6,257.6 283.0,256.9 283.6,256.1 284.3,255.4 285.4,254.7 286.8,254.0 288.4,253.3 290.3,252.6 292.3,251.8 294.3,251.1 296.1,250.4 297.6,249.7 298.7,249.0 299.3,248.3 299.4,247.5 299.1,246.8 298.2,246.1 297.0,245.4 295.5,244.7 293.9,243.9 292.1,243.2 290.2,242.5 288.3,241.8 286.4,241.1 284.6,240.4 282.9,239.6 281.4,238.9 280.0,238.2 279.0,237.5 278.4,236.8 278.1,236.1 278.4,235.3 279.2,234.6 280.6,233.9 282.3,233.2 284.5,232.5 286.9,231.8 289.3,231.0 291.7,230.3 293.8,229.6 295.6,228.9 296.8,228.2 297.5,227.5 297.6,226.7 297.2,226.0 296.4,225.3 295.2,224.6 293.9,223.9 292.4,223.1 290.9,222.4 289.4,221.7 288.0,221.0 286.5,220.3 285.0,219.6 283.4,218.8 281.8,218.1 280.1,217.4 278.3,216.7 276.6,216.0 274.9,215.3 273.2,214.5 271.7,213.8 258.3,213.8 256.8,214.5 255.1,215.3 253.4,216.0 251.7,216.7 249.9,217.4 248.2,218.1 246.6,218.8 245.0,219.6 243.5,220.3 242.0,221.0 240.6,221.7 239.1,222.4 237.6,223.1 236.1,223.9 234.8,224.6 233.6,225.3 232.8,226.0 232.4,226.7 232.5,227.5 233.2,228.2 234.4,228.9 236.2,229.6 238.3,230.3 240.7,231.0 243.1,231.8 245.5,232.5 247.7,233.2 249.4,233.9 250.8,234.6 251.6,235.3 251.9,236.1 251.6,236.8 251.0,237.5 250.0,238.2 248.6,238.9 247.1,239.6 245.4,240.4 243.6,241.1 241.7,241.8 239.8,242.5 237.9,243.2 236.1,243.9 234.5,244.7 233.0,245.4 231.8,246.1 230.9,246.8 230.6,247.5 230.7,248.3 231.3,249.0 232.4,249.7 233.9,250.4 235.7,251.1 237.7,251.8 239.7,252.6 241.6,253.3 243.2,254.0 244.6,254.7 245.7,255.4 246.4,256.1 247.0,256.9 247.4,257.6 247.8,258.3 248.3,259.0 248.9,259.7 249.7,260.4 250.7,261.2 251.9,261.9 253.3,262.6 254.8,263.3 256.3,264.0 257.8,264.7" fill="#d33" opacity="0.5" stroke="#d33" stroke-width="1"/>
<line x1="242.3" y1="241.57783627468504" x2="287.7" y2="241.57783627468504" stroke="#114" stroke-width="2"/>
<circle cx="265.0" cy="259.40644524757397" r="2.4" fill="#114"/>
<text x="265.0" y="212.93431581297267" text-anchor="middle" font-size="11">1.02</text>
<text x="265.0" y="376" text-anchor="middle" font-size="12">zgemvC</text>
<polygon points="353.0,243.5 354.4,243.2 355.9,243.0 357.5,242.7 359.3,242.4 361.1,242.1 363.0,241.9 364.9,241.6 366.9,241.3 368.8,241.0 370.7,240.7 372.5,240.5 374.3,240.2 375.9,239.9 377.4,239.6 378.8,239.3 379.9,239.1 380.7,238.8 381.3,238.5 381.4,238.2 381.3,237.9 380.7,237.7 379.8,237.4 378.6,237.1 377.1,236.8 375.3,236.5 373.4,236.3 371.3,236.0 369.1,235.7 366.9,235.4 364.8,235.2 362.7,234.9 360.8,234.6 359.1,234.3 357.6,234.0 356.4,233.8 355.3,233.5 354.4,233.2 353.8,232.9 353.3,232.6 352.9,232.4 352.7,232.1 352.6,231.8 352.6,231.5 352.7,231.2 352.8,231.0 353.1,230.7 353.4,230.4 353.7,230.1 354.2,229.8 354.7,229.6 355.4,229.3 356.2,229.0 357.0,228.7 357.9,228.4 358.9,228.2 359.9,227.9 360.8,227.6 361.6,227.3 362.2,227.1 362.5,226.8 362.6,226.5 362.4,226.2 361.9,225.9 361.1,225.7 360.0,225.4 358.8,225.1 357.4,224.8 356.0,224.5 354.6,224.3 353.3,224.0 352.1,223.7 341.9,223.7 340.7,224.0 339.4,224.3 338.0,224.5 336.6,224.8 335.2,225.1 334.0,225.4 332.9,225.7 332.1,225.9 331.6,226.2 331.4,226.5 331.5,226.8 331.8,227.1 332.4,227.3 333.2,227.6 334.1,227.9 335.1,228.2 336.1,228.4 337.0,228.7 337.8,229.0 338.6,229.3 339.3,229.6 339.8,229.8 340.3,230.1 340.6,230.4 340.9,230.7 341.2,231.0 341.3,231.2 341.4,231.5 341.4,231.8 341.3,232.1 341.1,232.4 340.7,232.6 340.2,232.9 339.6,233.2 338.7,233.5 337.6,233.8 336.4,234.0 334.9,234.3 333.2,234.6 331.3,234.9 329.2,235.2 327.1,235.4 324.9,235.7 322.7,236.0 320.6,236.3 318.7,236.5 316.9,236.8 315.4,237.1 314.2,237.4 313.3,237.7 312.7,237.9 312.6,238.2 312.7,238.5 313.3,238.8 314.1,239.1 315.2,239.3 316.6,239.6 318.1,239.9 319.7,240.2 321.5,240.5 323.3,240.7 325.2,241.0 327.1,241.3 329.1,241.6 331.0,241.9 332.9,242.1 334.7,242.4 336.5,242.7 338.1,243.0 339.6,243.2 341.0,243.5" fill="#2a8" opacity="0.5" stroke="#2a8" stroke-width="1"/>
<line x1="315.6" y1="237.06238575923524" x2="378.4" y2="237.06238575923524" stroke="#114" stroke-width="2"/>
<circle cx="347.0" cy="241.42485649946323" r="2.4" fill="#114"/>
<text x="347.0" y="219.80435049883036" text-anchor="middle" font-size="11">1.06</text>
<text x="347.0" y="376" text-anchor="middle" font-size="12">zgeru</text>
<polygon points="437.7,224.9 439.7,222.4 442.0,220.0 444.6,217.5 447.3,215.0 450.0,212.6 452.8,210.1 455.5,207.7 457.9,205.2 460.0,202.8 461.7,200.3 462.8,197.8 463.4,195.4 463.4,192.9 462.9,190.5 461.8,188.0 460.2,185.6 458.3,183.1 456.2,180.6 453.9,178.2 451.7,175.7 449.6,173.3 447.8,170.8 446.2,168.3 444.9,165.9 444.0,163.4 443.3,161.0 443.0,158.5 442.8,156.1 442.7,153.6 442.7,151.1 442.7,148.7 442.7,146.2 442.7,143.8 442.5,141.3 442.3,138.8 442.1,136.4 441.8,133.9 441.7,131.5 441.6,129.0 441.6,126.6 441.7,124.1 442.0,121.6 442.5,119.2 443.0,116.7 443.7,114.3 444.5,111.8 445.4,109.4 446.3,106.9 447.2,104.4 448.2,102.0 449.2,99.5 450.1,97.1 451.1,94.6 452.0,92.1 452.9,89.7 453.7,87.2 454.4,84.8 454.9,82.3 455.1,79.9 455.1,77.4 454.8,74.9 454.1,72.5 453.1,70.0 451.9,67.6 450.3,65.1 448.5,62.7 446.5,60.2 444.5,57.7 442.5,55.3 440.5,52.8 438.6,50.4 419.4,50.4 417.5,52.8 415.5,55.3 413.5,57.7 411.5,60.2 409.5,62.7 407.7,65.1 406.1,67.6 404.9,70.0 403.9,72.5 403.2,74.9 402.9,77.4 402.9,79.9 403.1,82.3 403.6,84.8 404.3,87.2 405.1,89.7 406.0,92.1 406.9,94.6 407.9,97.1 408.8,99.5 409.8,102.0 410.8,104.4 411.7,106.9 412.6,109.4 413.5,111.8 414.3,114.3 415.0,116.7 415.5,119.2 416.0,121.6 416.3,124.1 416.4,126.6 416.4,129.0 416.3,131.5 416.2,133.9 415.9,136.4 415.7,138.8 415.5,141.3 415.3,143.8 415.3,146.2 415.3,148.7 415.3,151.1 415.3,153.6 415.2,156.1 415.0,158.5 414.7,161.0 414.0,163.4 413.1,165.9 411.8,168.3 410.2,170.8 408.4,173.3 406.3,175.7 404.1,178.2 401.8,180.6 399.7,183.1 397.8,185.6 396.2,188.0 395.1,190.5 394.6,192.9 394.6,195.4 395.2,197.8 396.3,200.3 398.0,202.8 400.1,205.2 402.5,207.7 405.2,210.1 408.0,212.6 410.7,215.0 413.4,217.5 416.0,220.0 418.3,222.4 420.3,224.9" fill="#2a8" opacity="0.5" stroke="#2a8" stroke-width="1"/>
<line x1="415.3" y1="145.59919482318492" x2="442.7" y2="145.59919482318492" stroke="#114" stroke-width="2"/>
<circle cx="429.0" cy="201.02598599785327" r="2.4" fill="#114"/>
<text x="429.0" y="61.43396226415098" text-anchor="middle" font-size="11">1.87</text>
<text x="429.0" y="376" text-anchor="middle" font-size="12">zhemv</text>
<polygon points="517.4,257.8 519.1,256.4 521.0,255.0 523.1,253.6 525.5,252.2 528.1,250.8 530.8,249.4 533.5,248.0 536.2,246.6 538.7,245.3 541.0,243.9 542.9,242.5 544.3,241.1 545.2,239.7 545.4,238.3 545.1,236.9 544.1,235.5 542.7,234.1 540.7,232.7 538.5,231.3 536.0,229.9 533.4,228.5 530.9,227.1 528.6,225.7 526.6,224.3 524.8,222.9 523.4,221.5 522.3,220.1 521.6,218.7 521.1,217.3 520.8,215.9 520.8,214.5 520.8,213.1 520.9,211.7 520.9,210.3 521.0,208.9 520.9,207.5 520.8,206.1 520.7,204.7 520.4,203.3 520.1,201.9 519.8,200.5 519.4,199.1 519.1,197.7 518.9,196.3 518.7,194.9 518.7,193.5 518.7,192.1 519.0,190.7 519.3,189.3 519.8,187.9 520.4,186.5 521.0,185.1 521.8,183.7 522.5,182.3 523.2,180.9 523.9,179.5 524.5,178.1 525.0,176.7 525.2,175.3 525.3,173.9 525.2,172.5 524.9,171.1 524.4,169.7 523.7,168.3 522.8,166.9 521.8,165.5 520.7,164.1 519.5,162.7 518.4,161.3 517.2,159.9 516.2,158.5 505.8,158.5 504.8,159.9 503.6,161.3 502.5,162.7 501.3,164.1 500.2,165.5 499.2,166.9 498.3,168.3 497.6,169.7 497.1,171.1 496.8,172.5 496.7,173.9 496.8,175.3 497.0,176.7 497.5,178.1 498.1,179.5 498.8,180.9 499.5,182.3 500.2,183.7 501.0,185.1 501.6,186.5 502.2,187.9 502.7,189.3 503.0,190.7 503.3,192.1 503.3,193.5 503.3,194.9 503.1,196.3 502.9,197.7 502.6,199.1 502.2,200.5 501.9,201.9 501.6,203.3 501.3,204.7 501.2,206.1 501.1,207.5 501.0,208.9 501.1,210.3 501.1,211.7 501.2,213.1 501.2,214.5 501.2,215.9 500.9,217.3 500.4,218.7 499.7,220.1 498.6,221.5 497.2,222.9 495.4,224.3 493.4,225.7 491.1,227.1 488.6,228.5 486.0,229.9 483.5,231.3 481.3,232.7 479.3,234.1 477.9,235.5 476.9,236.9 476.6,238.3 476.8,239.7 477.7,241.1 479.1,242.5 481.0,243.9 483.3,245.3 485.8,246.6 488.5,248.0 491.2,249.4 493.9,250.8 496.5,252.2 498.9,253.6 501.0,255.0 502.9,256.4 504.6,257.8" fill="#2a8" opacity="0.5" stroke="#2a8" stroke-width="1"/>
<line x1="478.8" y1="234.5074540939309" x2="543.2" y2="234.5074540939309" stroke="#114" stroke-width="2"/>
<circle cx="511.0" cy="246.70466972432254" r="2.4" fill="#114"/>
<text x="511.0" y="162.33062883313804" text-anchor="middle" font-size="11">1.09</text>
<text x="511.0" y="376" text-anchor="middle" font-size="12">ztrmv</text>
<polygon points="604.6,256.6 607.2,255.8 609.9,255.0 612.7,254.2 615.5,253.4 618.1,252.6 620.4,251.8 622.3,251.0 623.5,250.3 624.1,249.5 624.0,248.7 623.3,247.9 621.9,247.1 620.1,246.3 617.8,245.5 615.4,244.7 612.9,243.9 610.6,243.2 608.5,242.4 606.9,241.6 605.8,240.8 605.3,240.0 605.4,239.2 606.1,238.4 607.4,237.6 609.2,236.8 611.5,236.1 614.0,235.3 616.6,234.5 619.3,233.7 621.7,232.9 623.8,232.1 625.5,231.3 626.7,230.5 627.3,229.7 627.4,228.9 627.1,228.2 626.3,227.4 625.3,226.6 624.0,225.8 622.8,225.0 621.5,224.2 620.3,223.4 619.3,222.6 618.5,221.8 617.9,221.1 617.4,220.3 617.1,219.5 617.1,218.7 617.1,217.9 617.4,217.1 617.8,216.3 618.4,215.5 619.1,214.7 619.9,214.0 620.7,213.2 621.5,212.4 622.2,211.6 622.7,210.8 622.9,210.0 622.8,209.2 622.3,208.4 621.4,207.6 620.2,206.8 618.6,206.1 616.8,205.3 614.6,204.5 612.4,203.7 610.0,202.9 607.7,202.1 605.4,201.3 603.3,200.5 582.7,200.5 580.6,201.3 578.3,202.1 576.0,202.9 573.6,203.7 571.4,204.5 569.2,205.3 567.4,206.1 565.8,206.8 564.6,207.6 563.7,208.4 563.2,209.2 563.1,210.0 563.3,210.8 563.8,211.6 564.5,212.4 565.3,213.2 566.1,214.0 566.9,214.7 567.6,215.5 568.2,216.3 568.6,217.1 568.9,217.9 568.9,218.7 568.9,219.5 568.6,220.3 568.1,221.1 567.5,221.8 566.7,222.6 565.7,223.4 564.5,224.2 563.2,225.0 562.0,225.8 560.7,226.6 559.7,227.4 558.9,228.2 558.6,228.9 558.7,229.7 559.3,230.5 560.5,231.3 562.2,232.1 564.3,232.9 566.7,233.7 569.4,234.5 572.0,235.3 574.5,236.1 576.8,236.8 578.6,237.6 579.9,238.4 580.6,239.2 580.7,240.0 580.2,240.8 579.1,241.6 577.5,242.4 575.4,243.2 573.1,243.9 570.6,244.7 568.2,245.5 565.9,246.3 564.1,247.1 562.7,247.9 562.0,248.7 561.9,249.5 562.5,250.3 563.7,251.0 565.6,251.8 567.9,252.6 570.5,253.4 573.3,254.2 576.1,255.0 578.8,255.8 581.4,256.6" fill="#d33" opacity="0.5" stroke="#d33" stroke-width="1"/>
<line x1="558.6" y1="229.67870574654384" x2="627.4" y2="229.67870574654384" stroke="#114" stroke-width="2"/>
<circle cx="593.0" cy="249.50513162697683" r="2.4" fill="#114"/>
<text x="593.0" y="200.14151080062246" text-anchor="middle" font-size="11">1.13</text>
<text x="593.0" y="376" text-anchor="middle" font-size="12">ztrsv</text>
<polygon points="679.9,239.2 680.9,238.3 681.9,237.4 682.8,236.6 683.7,235.7 684.6,234.8 685.3,234.0 685.9,233.1 686.3,232.3 686.7,231.4 686.9,230.5 687.0,229.7 687.1,228.8 687.1,228.0 687.1,227.1 687.1,226.2 686.9,225.4 686.7,224.5 686.4,223.7 685.9,222.8 685.3,221.9 684.6,221.1 683.8,220.2 682.9,219.4 682.0,218.5 681.0,217.6 680.1,216.8 679.2,215.9 678.5,215.1 677.8,214.2 677.4,213.3 677.1,212.5 677.0,211.6 677.1,210.8 677.5,209.9 678.1,209.0 679.0,208.2 680.2,207.3 681.7,206.5 683.6,205.6 685.8,204.7 688.3,203.9 691.0,203.0 693.9,202.2 696.9,201.3 699.7,200.4 702.4,199.6 704.8,198.7 706.7,197.9 708.2,197.0 709.1,196.1 709.4,195.3 709.2,194.4 708.6,193.6 707.5,192.7 706.0,191.8 704.4,191.0 702.6,190.1 700.7,189.2 698.8,188.4 696.9,187.5 695.1,186.7 693.3,185.8 691.5,184.9 689.9,184.1 688.2,183.2 686.6,182.4 685.1,181.5 683.7,180.6 682.3,179.8 681.0,178.9 679.9,178.1 670.1,178.1 669.0,178.9 667.7,179.8 666.3,180.6 664.9,181.5 663.4,182.4 661.8,183.2 660.1,184.1 658.5,184.9 656.7,185.8 654.9,186.7 653.1,187.5 651.2,188.4 649.3,189.2 647.4,190.1 645.6,191.0 644.0,191.8 642.5,192.7 641.4,193.6 640.8,194.4 640.6,195.3 640.9,196.1 641.8,197.0 643.3,197.9 645.2,198.7 647.6,199.6 650.3,200.4 653.1,201.3 656.1,202.2 659.0,203.0 661.7,203.9 664.2,204.7 666.4,205.6 668.3,206.5 669.8,207.3 671.0,208.2 671.9,209.0 672.5,209.9 672.9,210.8 673.0,211.6 672.9,212.5 672.6,213.3 672.2,214.2 671.5,215.1 670.8,215.9 669.9,216.8 669.0,217.6 668.0,218.5 667.1,219.4 666.2,220.2 665.4,221.1 664.7,221.9 664.1,222.8 663.6,223.7 663.3,224.5 663.1,225.4 662.9,226.2 662.9,227.1 662.9,228.0 662.9,228.8 663.0,229.7 663.1,230.5 663.3,231.4 663.7,232.3 664.1,233.1 664.7,234.0 665.4,234.8 666.3,235.7 667.2,236.6 668.1,237.4 669.1,238.3 670.1,239.2" fill="#2a8" opacity="0.5" stroke="#2a8" stroke-width="1"/>
<line x1="641.2" y1="196.49561717790795" x2="708.8" y2="196.49561717790795" stroke="#114" stroke-width="2"/>
<circle cx="675.0" cy="232.9364040029639" r="2.4" fill="#114"/>
<text x="675.0" y="178.15819323142966" text-anchor="middle" font-size="11">1.42</text>
<text x="675.0" y="376" text-anchor="middle" font-size="12">zhpmv</text>
<polygon points="758.3,225.8 759.1,225.2 760.1,224.5 761.4,223.9 763.2,223.3 765.3,222.6 767.7,222.0 770.5,221.4 773.6,220.8 776.7,220.1 779.7,219.5 782.6,218.9 785.3,218.2 787.5,217.6 789.2,217.0 790.5,216.3 791.2,215.7 791.4,215.1 791.2,214.5 790.4,213.8 789.3,213.2 787.9,212.6 786.2,211.9 784.3,211.3 782.3,210.7 780.2,210.0 777.9,209.4 775.7,208.8 773.4,208.2 771.2,207.5 769.1,206.9 767.2,206.3 765.6,205.6 764.3,205.0 763.3,204.4 762.8,203.7 762.7,203.1 763.1,202.5 763.7,201.9 764.7,201.2 765.8,200.6 767.1,200.0 768.4,199.3 769.6,198.7 770.5,198.1 771.2,197.4 771.6,196.8 771.7,196.2 771.4,195.5 770.9,194.9 770.1,194.3 769.2,193.7 768.1,193.0 767.0,192.4 765.9,191.8 764.8,191.1 763.7,190.5 762.7,189.9 761.8,189.2 760.9,188.6 760.2,188.0 759.5,187.4 759.0,186.7 758.6,186.1 758.2,185.5 757.9,184.8 757.7,184.2 757.5,183.6 757.4,182.9 757.3,182.3 757.2,181.7 757.1,181.1 756.9,181.1 756.8,181.7 756.7,182.3 756.6,182.9 756.5,183.6 756.3,184.2 756.1,184.8 755.8,185.5 755.4,186.1 755.0,186.7 754.5,187.4 753.8,188.0 753.1,188.6 752.2,189.2 751.3,189.9 750.3,190.5 749.2,191.1 748.1,191.8 747.0,192.4 745.9,193.0 744.8,193.7 743.9,194.3 743.1,194.9 742.6,195.5 742.3,196.2 742.4,196.8 742.8,197.4 743.5,198.1 744.4,198.7 745.6,199.3 746.9,200.0 748.2,200.6 749.3,201.2 750.3,201.9 750.9,202.5 751.3,203.1 751.2,203.7 750.7,204.4 749.7,205.0 748.4,205.6 746.8,206.3 744.9,206.9 742.8,207.5 740.6,208.2 738.3,208.8 736.1,209.4 733.8,210.0 731.7,210.7 729.7,211.3 727.8,211.9 726.1,212.6 724.7,213.2 723.6,213.8 722.8,214.5 722.6,215.1 722.8,215.7 723.5,216.3 724.8,217.0 726.5,217.6 728.7,218.2 731.4,218.9 734.3,219.5 737.3,220.1 740.4,220.8 743.5,221.4 746.3,222.0 748.7,222.6 750.8,223.3 752.6,223.9 753.9,224.5 754.9,225.2 755.7,225.8" fill="#2a8" opacity="0.5" stroke="#2a8" stroke-width="1"/>
<line x1="725.6" y1="212.77274966490626" x2="788.4" y2="212.77274966490626" stroke="#114" stroke-width="2"/>
<circle cx="757.0" cy="218.64918380501885" r="2.4" fill="#114"/>
<text x="757.0" y="179.5687383365052" text-anchor="middle" font-size="11">1.28</text>
<text x="757.0" y="376" text-anchor="middle" font-size="12">zgbmvN</text>
<polygon points="839.1,240.3 839.3,240.1 839.5,239.9 840.0,239.7 840.7,239.6 841.9,239.4 843.6,239.2 845.9,239.0 849.0,238.8 852.8,238.6 857.1,238.4 861.6,238.2 865.9,238.0 869.6,237.8 872.2,237.6 873.4,237.4 873.3,237.2 871.9,237.0 869.5,236.8 866.4,236.6 863.2,236.4 860.0,236.2 857.1,236.1 854.6,235.9 852.6,235.7 850.8,235.5 849.4,235.3 848.3,235.1 847.4,234.9 846.8,234.7 846.4,234.5 846.2,234.3 846.3,234.1 846.5,233.9 846.8,233.7 847.0,233.5 847.3,233.3 847.5,233.1 847.6,232.9 847.7,232.7 847.6,232.6 847.4,232.4 847.2,232.2 846.8,232.0 846.4,231.8 845.8,231.6 845.2,231.4 844.5,231.2 843.7,231.0 843.0,230.8 842.3,230.6 841.7,230.4 841.2,230.2 840.8,230.0 840.6,229.8 840.4,229.6 840.3,229.4 840.2,229.2 840.1,229.1 840.1,228.9 840.0,228.7 839.9,228.5 839.8,228.3 839.7,228.1 839.5,227.9 839.4,227.7 839.3,227.5 839.2,227.3 839.2,227.1 839.1,226.9 839.1,226.7 839.0,226.5 839.0,226.5 838.9,226.7 838.9,226.9 838.8,227.1 838.8,227.3 838.7,227.5 838.6,227.7 838.5,227.9 838.3,228.1 838.2,228.3 838.1,228.5 838.0,228.7 837.9,228.9 837.9,229.1 837.8,229.2 837.7,229.4 837.6,229.6 837.4,229.8 837.2,230.0 836.8,230.2 836.3,230.4 835.7,230.6 835.0,230.8 834.3,231.0 833.5,231.2 832.8,231.4 832.2,231.6 831.6,231.8 831.2,232.0 830.8,232.2 830.6,232.4 830.4,232.6 830.3,232.7 830.4,232.9 830.5,233.1 830.7,233.3 831.0,233.5 831.2,233.7 831.5,233.9 831.7,234.1 831.8,234.3 831.6,234.5 831.2,234.7 830.6,234.9 829.7,235.1 828.6,235.3 827.2,235.5 825.4,235.7 823.4,235.9 820.9,236.1 818.0,236.2 814.8,236.4 811.6,236.6 808.5,236.8 806.1,237.0 804.7,237.2 804.6,237.4 805.8,237.6 808.4,237.8 812.1,238.0 816.4,238.2 820.9,238.4 825.2,238.6 829.0,238.8 832.1,239.0 834.4,239.2 836.1,239.4 837.3,239.6 838.0,239.7 838.5,239.9 838.7,240.1 838.9,240.3" fill="#2a8" opacity="0.5" stroke="#2a8" stroke-width="1"/>
<line x1="807.4" y1="236.91586066917077" x2="870.6" y2="236.91586066917077" stroke="#114" stroke-width="2"/>
<circle cx="839.0" cy="237.79485188043336" r="2.4" fill="#114"/>
<text x="839.0" y="222.04255548536315" text-anchor="middle" font-size="11">1.06</text>
<text x="839.0" y="376" text-anchor="middle" font-size="12">zhbmv</text>
<text x="450.0" y="428" text-anchor="middle" font-size="11" fill="#666">violin = ratio distribution over sizes · line = median · dark dot = worst size · green = every size ≥ gate</text>
</svg>
