<svg xmlns="http://www.w3.org/2000/svg" width="900" height="440" font-family="sans-serif">
<rect width="900" height="440" fill="white"/>
<text x="450.0" y="28" text-anchor="middle" font-size="18" font-weight="bold">Complex BLAS-1: PureBLAS / OpenBLAS (AVX2, 1 thread, ComplexF64)</text>
<line x1="60" y1="358.0" x2="880" y2="358.0" stroke="#eee"/>
<text x="52" y="362.0" text-anchor="end" font-size="11" fill="#666">0×</text>
<line x1="60" y1="339.73636142009747" x2="880" y2="339.73636142009747" stroke="#eee"/>
<text x="52" y="343.73636142009747" text-anchor="end" font-size="11" fill="#666">0.5×</text>
<line x1="60" y1="321.472722840195" x2="880" y2="321.472722840195" stroke="#eee"/>
<text x="52" y="325.472722840195" text-anchor="end" font-size="11" fill="#666">1×</text>
<line x1="60" y1="303.20908426029246" x2="880" y2="303.20908426029246" stroke="#eee"/>
<text x="52" y="307.20908426029246" text-anchor="end" font-size="11" fill="#666">1.5×</text>
<line x1="60" y1="321.472722840195" x2="880" y2="321.472722840195" stroke="#888" stroke-width="1"/>
<line x1="60" y1="322.93381392658716" x2="880" y2="322.93381392658716" stroke="#d33" stroke-width="1.5" stroke-dasharray="6 4"/>
<text x="880" y="317.93381392658716" text-anchor="end" font-size="11" fill="#d33">0.96× gate</text>
<polygon points="119.8,324.7 120.5,324.5 121.5,324.3 122.9,324.1 124.8,324.0 127.1,323.8 129.9,323.6 133.1,323.4 136.8,323.3 140.8,323.1 145.2,322.9 149.8,322.7 154.5,322.6 158.9,322.4 162.8,322.2 165.8,322.0 167.6,321.9 167.8,321.7 166.2,321.5 163.0,321.3 158.4,321.2 152.8,321.0 146.8,320.8 140.8,320.6 135.3,320.5 130.6,320.3 126.9,320.1 124.0,319.9 122.0,319.8 120.6,319.6 119.7,319.4 119.2,319.2 118.9,319.1 118.7,318.9 118.6,318.7 118.6,318.5 118.6,318.4 118.6,318.2 118.6,318.0 118.7,317.8 118.8,317.7 118.9,317.5 119.2,317.3 119.5,317.1 120.1,317.0 120.9,316.8 121.8,316.6 123.0,316.4 124.3,316.3 125.7,316.1 126.9,315.9 127.8,315.7 128.4,315.6 128.5,315.4 128.1,315.2 127.3,315.0 126.2,314.9 124.9,314.7 123.6,314.5 122.4,314.3 121.3,314.2 120.5,314.0 119.9,313.8 119.5,313.6 119.2,313.5 119.0,313.3 118.9,313.1 118.8,312.9 118.7,312.8 118.7,312.6 118.7,312.4 118.6,312.2 118.5,312.2 118.5,312.4 118.5,312.6 118.4,312.8 118.3,312.9 118.3,313.1 118.1,313.3 117.9,313.5 117.7,313.6 117.2,313.8 116.6,314.0 115.8,314.2 114.8,314.3 113.6,314.5 112.3,314.7 111.0,314.9 109.8,315.0 109.0,315.2 108.6,315.4 108.7,315.6 109.3,315.7 110.3,315.9 111.5,316.1 112.8,316.3 114.1,316.4 115.3,316.6 116.3,316.8 117.1,317.0 117.6,317.1 118.0,317.3 118.2,317.5 118.4,317.7 118.5,317.8 118.5,318.0 118.5,318.2 118.5,318.4 118.5,318.5 118.5,318.7 118.4,318.9 118.2,319.1 117.9,319.2 117.4,319.4 116.5,319.6 115.2,319.8 113.1,319.9 110.3,320.1 106.5,320.3 101.8,320.5 96.3,320.6 90.4,320.8 84.3,321.0 78.7,321.2 74.1,321.3 70.9,321.5 69.4,321.7 69.6,321.9 71.3,322.0 74.3,322.2 78.2,322.4 82.7,322.6 87.3,322.7 91.9,322.9 96.3,323.1 100.4,323.3 104.0,323.4 107.3,323.6 110.1,323.8 112.4,324.0 114.2,324.1 115.6,324.3 116.6,324.5 117.4,324.7" fill="#d33" opacity="0.5" stroke="#d33" stroke-width="1"/>
<line x1="70.3" y1="321.55402311854937" x2="166.8" y2="321.55402311854937" stroke="#114" stroke-width="2"/>
<circle cx="118.57142857142857" cy="323.01952457899495" r="2.4" fill="#114"/>
<text x="118.57142857142857" y="307.5012927838352" text-anchor="middle" font-size="11">1.00</text>
<text x="118.57142857142857" y="376" text-anchor="middle" font-size="12">zaxpy</text>
<polygon points="239.5,330.7 240.5,330.5 241.5,330.3 242.6,330.2 243.6,330.0 244.4,329.8 245.1,329.6 245.5,329.5 245.7,329.3 245.5,329.1 245.1,328.9 244.4,328.8 243.6,328.6 242.6,328.4 241.6,328.2 240.6,328.1 239.7,327.9 238.9,327.7 238.1,327.5 237.5,327.4 237.1,327.2 236.7,327.0 236.4,326.8 236.2,326.7 236.0,326.5 235.9,326.3 235.9,326.1 235.8,326.0 235.8,325.8 235.8,325.6 235.8,325.4 235.8,325.2 235.8,325.1 235.9,324.9 236.0,324.7 236.1,324.5 236.4,324.4 236.8,324.2 237.4,324.0 238.2,323.8 239.4,323.7 240.9,323.5 242.9,323.3 245.3,323.1 248.3,323.0 251.7,322.8 255.6,322.6 259.8,322.4 264.2,322.3 268.6,322.1 272.8,321.9 276.6,321.7 279.9,321.6 282.4,321.4 284.1,321.2 284.9,321.0 284.8,320.9 283.8,320.7 282.0,320.5 279.5,320.3 276.4,320.2 272.9,320.0 269.0,319.8 265.0,319.6 260.9,319.4 256.9,319.3 253.2,319.1 249.8,318.9 246.8,318.7 244.2,318.6 242.0,318.4 240.3,318.2 231.1,318.2 229.4,318.4 227.2,318.6 224.7,318.7 221.7,318.9 218.2,319.1 214.5,319.3 210.5,319.4 206.5,319.6 202.4,319.8 198.5,320.0 195.0,320.2 191.9,320.3 189.4,320.5 187.6,320.7 186.6,320.9 186.5,321.0 187.3,321.2 189.0,321.4 191.5,321.6 194.8,321.7 198.6,321.9 202.8,322.1 207.2,322.3 211.6,322.4 215.8,322.6 219.7,322.8 223.2,323.0 226.1,323.1 228.6,323.3 230.5,323.5 232.0,323.7 233.2,323.8 234.0,324.0 234.6,324.2 235.0,324.4 235.3,324.5 235.5,324.7 235.6,324.9 235.6,325.1 235.7,325.2 235.7,325.4 235.7,325.6 235.7,325.8 235.6,326.0 235.6,326.1 235.5,326.3 235.4,326.5 235.2,326.7 235.0,326.8 234.8,327.0 234.4,327.2 233.9,327.4 233.3,327.5 232.6,327.7 231.7,327.9 230.8,328.1 229.8,328.2 228.8,328.4 227.8,328.6 227.0,328.8 226.3,328.9 225.9,329.1 225.7,329.3 225.9,329.5 226.3,329.6 227.0,329.8 227.9,330.0 228.8,330.2 229.9,330.3 230.9,330.5 231.9,330.7" fill="#d33" opacity="0.5" stroke="#d33" stroke-width="1"/>
<line x1="188.5" y1="321.34178189292777" x2="282.9" y2="321.34178189292777" stroke="#114" stroke-width="2"/>
<circle cx="235.71428571428572" cy="329.377999693414" r="2.4" fill="#114"/>
<text x="235.71428571428572" y="313.48611950189786" text-anchor="middle" font-size="11">1.00</text>
<text x="235.71428571428572" y="376" text-anchor="middle" font-size="12">zdotc</text>
<polygon points="353.0,322.9 353.1,322.8 353.3,322.8 353.7,322.7 354.3,322.6 355.3,322.6 356.8,322.5 358.9,322.4 361.9,322.4 365.8,322.3 370.6,322.2 376.1,322.1 382.1,322.1 388.1,322.0 393.7,321.9 398.2,321.9 401.1,321.8 402.1,321.7 400.9,321.7 397.7,321.6 393.1,321.5 387.6,321.4 382.0,321.4 376.8,321.3 372.6,321.2 369.5,321.2 367.4,321.1 366.1,321.0 365.3,321.0 364.8,320.9 364.4,320.8 364.0,320.8 363.8,320.7 363.8,320.6 364.3,320.5 365.3,320.5 366.8,320.4 368.7,320.3 370.8,320.3 372.6,320.2 373.9,320.1 374.3,320.1 373.6,320.0 372.0,319.9 369.6,319.8 366.7,319.8 363.7,319.7 361.0,319.6 358.7,319.6 357.0,319.5 355.7,319.4 354.9,319.4 354.4,319.3 354.1,319.2 353.9,319.2 353.9,319.1 353.9,319.0 353.9,318.9 353.9,318.9 353.9,318.8 353.9,318.7 353.8,318.7 353.8,318.6 353.7,318.5 353.6,318.5 353.5,318.4 353.3,318.3 353.2,318.2 353.1,318.2 353.0,318.1 353.0,318.0 352.9,318.0 352.8,318.0 352.8,318.0 352.7,318.1 352.6,318.2 352.5,318.2 352.4,318.3 352.3,318.4 352.1,318.5 352.0,318.5 351.9,318.6 351.9,318.7 351.8,318.7 351.8,318.8 351.8,318.9 351.9,318.9 351.9,319.0 351.8,319.1 351.8,319.2 351.6,319.2 351.3,319.3 350.8,319.4 350.0,319.4 348.7,319.5 347.0,319.6 344.7,319.6 342.0,319.7 339.0,319.8 336.1,319.8 333.7,319.9 332.1,320.0 331.4,320.1 331.8,320.1 333.1,320.2 334.9,320.3 337.0,320.3 338.9,320.4 340.4,320.5 341.4,320.5 341.9,320.6 341.9,320.7 341.7,320.8 341.4,320.8 340.9,320.9 340.4,321.0 339.6,321.0 338.3,321.1 336.2,321.2 333.1,321.2 328.9,321.3 323.8,321.4 318.1,321.4 312.7,321.5 308.0,321.6 304.9,321.7 303.7,321.7 304.6,321.8 307.5,321.9 312.0,321.9 317.6,322.0 323.6,322.1 329.6,322.1 335.1,322.2 339.9,322.3 343.8,322.4 346.8,322.4 349.0,322.5 350.5,322.6 351.4,322.6 352.1,322.7 352.4,322.8 352.6,322.8 352.7,322.9" fill="#2a8" opacity="0.5" stroke="#2a8" stroke-width="1"/>
<line x1="307.0" y1="321.60506849584533" x2="398.7" y2="321.60506849584533" stroke="#114" stroke-width="2"/>
<circle cx="352.85714285714283" cy="321.9596537526395" r="2.4" fill="#114"/>
<text x="352.85714285714283" y="312.5075593386925" text-anchor="middle" font-size="11">1.00</text>
<text x="352.85714285714283" y="376" text-anchor="middle" font-size="12">zscal</text>
<polygon points="473.4,180.6 474.3,178.9 475.4,177.1 476.6,175.3 478.0,173.6 479.5,171.8 481.0,170.0 482.6,168.3 484.2,166.5 485.7,164.7 487.0,163.0 488.3,161.2 489.3,159.4 490.1,157.7 490.8,155.9 491.3,154.1 491.6,152.4 491.9,150.6 492.1,148.8 492.3,147.1 492.4,145.3 492.7,143.5 492.9,141.8 493.2,140.0 493.4,138.2 493.6,136.5 493.6,134.7 493.6,132.9 493.3,131.2 492.8,129.4 492.1,127.6 491.3,125.9 490.2,124.1 489.0,122.3 487.7,120.6 486.3,118.8 484.9,117.0 483.5,115.3 482.3,113.5 481.1,111.8 480.1,110.0 479.2,108.2 478.6,106.5 478.1,104.7 478.0,102.9 478.1,101.2 478.6,99.4 479.4,97.6 480.7,95.9 482.4,94.1 484.6,92.3 487.3,90.6 490.4,88.8 493.9,87.0 497.7,85.3 501.7,83.5 505.7,81.7 509.5,80.0 512.9,78.2 515.7,76.4 517.8,74.7 519.0,72.9 519.2,71.1 518.4,69.4 516.7,67.6 514.1,65.8 510.8,64.1 507.0,62.3 502.9,60.5 498.6,58.8 494.3,57.0 490.3,55.2 449.7,55.2 445.7,57.0 441.4,58.8 437.1,60.5 433.0,62.3 429.2,64.1 425.9,65.8 423.3,67.6 421.6,69.4 420.8,71.1 421.0,72.9 422.2,74.7 424.3,76.4 427.1,78.2 430.5,80.0 434.3,81.7 438.3,83.5 442.3,85.3 446.1,87.0 449.6,88.8 452.7,90.6 455.4,92.3 457.6,94.1 459.3,95.9 460.6,97.6 461.4,99.4 461.9,101.2 462.0,102.9 461.9,104.7 461.4,106.5 460.8,108.2 459.9,110.0 458.9,111.8 457.7,113.5 456.5,115.3 455.1,117.0 453.7,118.8 452.3,120.6 451.0,122.3 449.8,124.1 448.7,125.9 447.9,127.6 447.2,129.4 446.7,131.2 446.4,132.9 446.4,134.7 446.4,136.5 446.6,138.2 446.8,140.0 447.1,141.8 447.3,143.5 447.6,145.3 447.7,147.1 447.9,148.8 448.1,150.6 448.4,152.4 448.7,154.1 449.2,155.9 449.9,157.7 450.7,159.4 451.7,161.2 453.0,163.0 454.3,164.7 455.8,166.5 457.4,168.3 459.0,170.0 460.5,171.8 462.0,173.6 463.4,175.3 464.6,177.1 465.7,178.9 466.6,180.6" fill="#2a8" opacity="0.5" stroke="#2a8" stroke-width="1"/>
<line x1="425.7" y1="77.36944712639435" x2="514.3" y2="77.36944712639435" stroke="#114" stroke-width="2"/>
<circle cx="470.0" cy="157.86609124730597" r="2.4" fill="#114"/>
<text x="470.0" y="61.433962264150935" text-anchor="middle" font-size="11">7.68</text>
<text x="470.0" y="376" text-anchor="middle" font-size="12">dznrm2</text>
<polygon points="588.7,319.9 589.3,319.3 590.1,318.8 591.1,318.2 592.4,317.7 594.1,317.1 596.1,316.6 598.6,316.0 601.5,315.5 605.0,315.0 608.9,314.4 613.2,313.9 617.8,313.3 622.4,312.8 626.7,312.2 630.5,311.7 633.5,311.1 635.5,310.6 636.3,310.0 636.0,309.5 634.6,308.9 632.5,308.4 629.8,307.9 627.1,307.3 624.8,306.8 623.1,306.2 622.3,305.7 622.6,305.1 623.9,304.6 626.1,304.0 628.7,303.5 631.4,302.9 633.7,302.4 635.3,301.9 635.7,301.3 634.8,300.8 632.7,300.2 629.4,299.7 625.2,299.1 620.5,298.6 615.7,298.0 611.1,297.5 606.9,296.9 603.3,296.4 600.3,295.8 597.9,295.3 596.0,294.8 594.5,294.2 593.4,293.7 592.5,293.1 591.9,292.6 591.5,292.0 591.4,291.5 591.5,290.9 592.1,290.4 593.0,289.8 594.3,289.3 596.0,288.7 597.8,288.2 599.8,287.7 601.7,287.1 603.4,286.6 604.7,286.0 605.4,285.5 605.5,284.9 604.9,284.4 603.8,283.8 602.2,283.3 600.2,282.7 598.1,282.2 596.0,281.7 594.1,281.1 580.2,281.1 578.3,281.7 576.2,282.2 574.1,282.7 572.1,283.3 570.5,283.8 569.4,284.4 568.8,284.9 568.9,285.5 569.6,286.0 570.9,286.6 572.6,287.1 574.5,287.7 576.5,288.2 578.3,288.7 580.0,289.3 581.3,289.8 582.2,290.4 582.7,290.9 582.9,291.5 582.8,292.0 582.4,292.6 581.8,293.1 580.9,293.7 579.8,294.2 578.3,294.8 576.4,295.3 574.0,295.8 571.0,296.4 567.4,296.9 563.2,297.5 558.6,298.0 553.8,298.6 549.1,299.1 544.9,299.7 541.6,300.2 539.5,300.8 538.6,301.3 539.0,301.9 540.6,302.4 542.9,302.9 545.6,303.5 548.2,304.0 550.4,304.6 551.7,305.1 552.0,305.7 551.2,306.2 549.5,306.8 547.2,307.3 544.5,307.9 541.8,308.4 539.6,308.9 538.3,309.5 537.9,310.0 538.8,310.6 540.8,311.1 543.8,311.7 547.6,312.2 551.9,312.8 556.5,313.3 561.1,313.9 565.4,314.4 569.3,315.0 572.7,315.5 575.7,316.0 578.2,316.6 580.2,317.1 581.8,317.7 583.2,318.2 584.2,318.8 585.0,319.3 585.6,319.9" fill="#2a8" opacity="0.5" stroke="#2a8" stroke-width="1"/>
<line x1="538.7" y1="301.6660235792079" x2="635.5" y2="301.6660235792079" stroke="#114" stroke-width="2"/>
<circle cx="587.1428571428571" cy="311.2193774405538" r="2.4" fill="#114"/>
<text x="587.1428571428571" y="278.91449539257405" text-anchor="middle" font-size="11">1.54</text>
<text x="587.1428571428571" y="376" text-anchor="middle" font-size="12">dzasum</text>
<polygon points="708.6,330.4 709.6,330.3 710.7,330.1 711.8,329.9 712.7,329.8 713.6,329.6 714.2,329.4 714.6,329.3 714.6,329.1 714.4,328.9 713.9,328.8 713.1,328.6 712.1,328.4 711.1,328.3 710.0,328.1 709.0,327.9 708.0,327.7 707.2,327.6 706.4,327.4 705.8,327.2 705.4,327.1 705.0,326.9 704.8,326.7 704.6,326.6 704.5,326.4 704.4,326.2 704.4,326.1 704.3,325.9 704.3,325.7 704.3,325.6 704.3,325.4 704.3,325.2 704.4,325.0 704.4,324.9 704.5,324.7 704.7,324.5 705.0,324.4 705.4,324.2 705.9,324.0 706.7,323.9 707.7,323.7 709.2,323.5 711.0,323.4 713.2,323.2 715.9,323.0 719.1,322.9 722.7,322.7 726.6,322.5 730.8,322.3 735.1,322.2 739.3,322.0 743.2,321.8 746.6,321.7 749.5,321.5 751.6,321.3 753.0,321.2 753.5,321.0 753.1,320.8 752.0,320.7 750.1,320.5 747.5,320.3 744.4,320.2 740.9,320.0 737.1,319.8 733.1,319.6 729.2,319.5 725.3,319.3 721.7,319.1 718.4,319.0 715.4,318.8 712.9,318.6 710.8,318.5 697.8,318.5 695.7,318.6 693.1,318.8 690.2,319.0 686.9,319.1 683.3,319.3 679.4,319.5 675.4,319.6 671.5,319.8 667.7,320.0 664.1,320.2 661.0,320.3 658.5,320.5 656.6,320.7 655.4,320.8 655.1,321.0 655.6,321.2 656.9,321.3 659.1,321.5 662.0,321.7 665.4,321.8 669.3,322.0 673.5,322.2 677.8,322.3 681.9,322.5 685.9,322.7 689.5,322.9 692.7,323.0 695.4,323.2 697.6,323.4 699.4,323.5 700.8,323.7 701.9,323.9 702.7,324.0 703.2,324.2 703.6,324.4 703.9,324.5 704.0,324.7 704.1,324.9 704.2,325.0 704.2,325.2 704.3,325.4 704.3,325.6 704.3,325.7 704.2,325.9 704.2,326.1 704.2,326.2 704.1,326.4 704.0,326.6 703.8,326.7 703.5,326.9 703.2,327.1 702.7,327.2 702.1,327.4 701.4,327.6 700.6,327.7 699.6,327.9 698.5,328.1 697.5,328.3 696.4,328.4 695.5,328.6 694.7,328.8 694.2,328.9 693.9,329.1 694.0,329.3 694.4,329.4 695.0,329.6 695.8,329.8 696.8,329.9 697.9,330.1 699.0,330.3 700.0,330.4" fill="#d33" opacity="0.5" stroke="#d33" stroke-width="1"/>
<line x1="656.3" y1="321.26759183955625" x2="752.3" y2="321.26759183955625" stroke="#114" stroke-width="2"/>
<circle cx="704.2857142857142" cy="329.1650112290768" r="2.4" fill="#114"/>
<text x="704.2857142857142" y="313.6822042844549" text-anchor="middle" font-size="11">1.01</text>
<text x="704.2857142857142" y="376" text-anchor="middle" font-size="12">zdotu</text>
<polygon points="823.4,334.5 824.2,334.0 825.4,333.4 826.9,332.9 828.7,332.4 831.0,331.9 833.6,331.3 836.6,330.8 839.8,330.3 843.3,329.8 846.8,329.2 850.3,328.7 853.6,328.2 856.6,327.7 859.2,327.1 861.3,326.6 863.0,326.1 864.2,325.6 865.0,325.0 865.5,324.5 865.8,324.0 866.1,323.5 866.4,322.9 866.7,322.4 867.2,321.9 867.7,321.4 868.3,320.8 868.9,320.3 869.5,319.8 870.1,319.3 870.4,318.7 870.6,318.2 870.6,317.7 870.4,317.2 870.1,316.6 869.6,316.1 868.9,315.6 868.2,315.1 867.4,314.5 866.5,314.0 865.8,313.5 865.1,313.0 864.5,312.4 864.0,311.9 863.7,311.4 863.6,310.9 863.6,310.4 863.8,309.8 864.0,309.3 864.3,308.8 864.5,308.3 864.7,307.7 864.8,307.2 864.6,306.7 864.2,306.2 863.5,305.6 862.5,305.1 861.1,304.6 859.3,304.1 857.1,303.5 854.6,303.0 851.7,302.5 848.6,302.0 845.3,301.4 841.9,300.9 838.7,300.4 835.6,299.9 832.7,299.3 830.2,298.8 828.1,298.3 826.3,297.8 824.9,297.2 817.9,297.2 816.5,297.8 814.8,298.3 812.6,298.8 810.1,299.3 807.3,299.9 804.2,300.4 800.9,300.9 797.6,301.4 794.3,302.0 791.2,302.5 788.3,303.0 785.7,303.5 783.6,304.1 781.8,304.6 780.4,305.1 779.3,305.6 778.6,306.2 778.2,306.7 778.1,307.2 778.1,307.7 778.3,308.3 778.6,308.8 778.8,309.3 779.1,309.8 779.2,310.4 779.2,310.9 779.1,311.4 778.8,311.9 778.4,312.4 777.8,313.0 777.1,313.5 776.3,314.0 775.5,314.5 774.7,315.1 774.0,315.6 773.3,316.1 772.8,316.6 772.4,317.2 772.2,317.7 772.2,318.2 772.4,318.7 772.8,319.3 773.3,319.8 773.9,320.3 774.5,320.8 775.2,321.4 775.7,321.9 776.2,322.4 776.5,322.9 776.8,323.5 777.0,324.0 777.4,324.5 777.9,325.0 778.7,325.6 779.9,326.1 781.5,326.6 783.6,327.1 786.2,327.7 789.2,328.2 792.5,328.7 796.0,329.2 799.6,329.8 803.0,330.3 806.3,330.8 809.3,331.3 811.9,331.9 814.1,332.4 816.0,332.9 817.5,333.4 818.6,334.0 819.5,334.5" fill="#2a8" opacity="0.5" stroke="#2a8" stroke-width="1"/>
<line x1="773.5" y1="315.9105365156753" x2="869.3" y2="315.9105365156753" stroke="#114" stroke-width="2"/>
<circle cx="821.4285714285714" cy="317.2290483201953" r="2.4" fill="#114"/>
<text x="821.4285714285714" y="294.9031949967425" text-anchor="middle" font-size="11">1.15</text>
<text x="821.4285714285714" y="376" text-anchor="middle" font-size="12">izamax</text>
<text x="450.0" y="428" text-anchor="middle" font-size="11" fill="#666">violin = ratio distribution over sizes · line = median · dark dot = worst size · green = every size ≥ gate</text>
</svg>
