<svg xmlns="http://www.w3.org/2000/svg" width="900" height="440" font-family="sans-serif">
<rect width="900" height="440" fill="white"/>
<text x="450.0" y="28" text-anchor="middle" font-size="18" font-weight="bold">BLAS-2: PureBLAS / OpenBLAS (AVX-512, 1 thread, Float64)</text>
<line x1="60" y1="358.0" x2="880" y2="358.0" stroke="#eee"/>
<text x="52" y="362.0" text-anchor="end" font-size="11" fill="#666">0×</text>
<line x1="60" y1="298.76810005478126" x2="880" y2="298.76810005478126" stroke="#eee"/>
<text x="52" y="302.76810005478126" text-anchor="end" font-size="11" fill="#666">0.5×</text>
<line x1="60" y1="239.53620010956251" x2="880" y2="239.53620010956251" stroke="#eee"/>
<text x="52" y="243.53620010956251" text-anchor="end" font-size="11" fill="#666">1×</text>
<line x1="60" y1="180.30430016434377" x2="880" y2="180.30430016434377" stroke="#eee"/>
<text x="52" y="184.30430016434377" text-anchor="end" font-size="11" fill="#666">1.5×</text>
<line x1="60" y1="239.53620010956251" x2="880" y2="239.53620010956251" stroke="#888" stroke-width="1"/>
<line x1="60" y1="244.27475210518003" x2="880" y2="244.27475210518003" stroke="#d33" stroke-width="1.5" stroke-dasharray="6 4"/>
<text x="880" y="239.27475210518003" text-anchor="end" font-size="11" fill="#d33">0.96× gate</text>
<polygon points="106.4,288.0 106.8,284.6 107.5,281.3 108.4,277.9 109.7,274.5 111.4,271.2 113.4,267.8 116.0,264.5 119.0,261.1 122.4,257.8 126.0,254.4 129.7,251.1 133.4,247.7 136.8,244.4 139.6,241.0 141.8,237.7 143.2,234.3 143.8,231.0 143.6,227.6 142.6,224.3 141.0,220.9 138.9,217.6 136.6,214.2 134.1,210.9 131.5,207.5 129.0,204.2 126.5,200.8 124.2,197.5 121.9,194.1 119.8,190.8 117.9,187.4 116.0,184.1 114.4,180.7 112.9,177.4 111.6,174.0 110.5,170.7 109.6,167.3 108.9,163.9 108.3,160.6 107.9,157.2 107.6,153.9 107.5,150.5 107.4,147.2 107.5,143.8 107.6,140.5 107.9,137.1 108.2,133.8 108.6,130.4 109.1,127.1 109.5,123.7 110.0,120.4 110.5,117.0 110.9,113.7 111.2,110.3 111.4,107.0 111.4,103.6 111.3,100.3 111.1,96.9 110.8,93.6 110.4,90.2 109.9,86.9 109.4,83.5 108.8,80.2 108.3,76.8 107.9,73.5 107.5,70.1 107.1,66.8 106.8,63.4 106.6,60.1 106.3,56.7 106.2,53.4 106.0,50.0 105.1,50.0 104.9,53.4 104.8,56.7 104.5,60.1 104.3,63.4 104.0,66.8 103.6,70.1 103.2,73.5 102.8,76.8 102.3,80.2 101.8,83.5 101.2,86.9 100.8,90.2 100.3,93.6 100.0,96.9 99.8,100.3 99.7,103.6 99.7,107.0 99.9,110.3 100.2,113.7 100.6,117.0 101.1,120.4 101.6,123.7 102.1,127.1 102.5,130.4 102.9,133.8 103.2,137.1 103.5,140.5 103.6,143.8 103.7,147.2 103.6,150.5 103.5,153.9 103.2,157.2 102.8,160.6 102.3,163.9 101.5,167.3 100.6,170.7 99.5,174.0 98.2,177.4 96.8,180.7 95.1,184.1 93.3,187.4 91.3,190.8 89.2,194.1 86.9,197.5 84.6,200.8 82.1,204.2 79.6,207.5 77.0,210.9 74.5,214.2 72.2,217.6 70.1,220.9 68.5,224.3 67.5,227.6 67.3,231.0 67.9,234.3 69.3,237.7 71.5,241.0 74.3,244.4 77.7,247.7 81.4,251.1 85.1,254.4 88.8,257.8 92.1,261.1 95.1,264.5 97.7,267.8 99.8,271.2 101.4,274.5 102.7,277.9 103.6,281.3 104.3,284.6 104.7,288.0" fill="#d33" opacity="0.5" stroke="#d33" stroke-width="1"/>
<line x1="67.8" y1="226.53494429547237" x2="143.3" y2="226.53494429547237" stroke="#114" stroke-width="2"/>
<circle cx="105.55555555555556" cy="244.6674301989198" r="2.4" fill="#114"/>
<text x="105.55555555555556" y="61.433962264150935" text-anchor="middle" font-size="11">1.11</text>
<text x="105.55555555555556" y="376" text-anchor="middle" font-size="12">gemvN</text>
<polygon points="196.8,282.2 196.8,280.7 196.9,279.1 197.0,277.6 197.1,276.0 197.2,274.5 197.2,272.9 197.2,271.4 197.2,269.8 197.2,268.3 197.1,266.7 197.0,265.2 196.9,263.6 196.9,262.1 196.9,260.5 197.0,259.0 197.3,257.4 197.8,255.9 198.5,254.3 199.6,252.8 201.2,251.2 203.2,249.7 205.7,248.1 208.6,246.6 211.8,245.0 215.2,243.5 218.8,241.9 222.4,240.4 225.9,238.8 229.1,237.3 231.8,235.7 233.9,234.2 234.9,232.6 234.9,231.1 233.6,229.5 231.2,228.0 227.8,226.4 223.9,224.9 219.8,223.3 216.0,221.8 212.8,220.2 210.4,218.7 209.0,217.1 208.5,215.6 208.7,214.0 209.3,212.5 210.0,210.9 210.4,209.4 210.4,207.8 210.0,206.3 209.0,204.7 207.6,203.2 206.1,201.6 204.5,200.1 203.0,198.5 201.8,197.0 200.9,195.4 200.2,193.9 199.8,192.3 199.6,190.8 199.4,189.2 199.1,187.7 198.9,186.1 198.6,184.6 198.3,183.0 198.0,181.5 197.7,179.9 197.4,178.4 197.2,176.8 197.0,175.3 196.9,173.7 196.8,172.2 196.6,172.2 196.5,173.7 196.3,175.3 196.2,176.8 195.9,178.4 195.7,179.9 195.4,181.5 195.0,183.0 194.7,184.6 194.4,186.1 194.2,187.7 194.0,189.2 193.8,190.8 193.5,192.3 193.1,193.9 192.5,195.4 191.5,197.0 190.3,198.5 188.9,200.1 187.3,201.6 185.7,203.2 184.3,204.7 183.4,206.3 182.9,207.8 182.9,209.4 183.4,210.9 184.0,212.5 184.6,214.0 184.8,215.6 184.3,217.1 182.9,218.7 180.6,220.2 177.4,221.8 173.5,223.3 169.4,224.9 165.5,226.4 162.2,228.0 159.7,229.5 158.5,231.1 158.4,232.6 159.5,234.2 161.5,235.7 164.2,237.3 167.5,238.8 170.9,240.4 174.5,241.9 178.1,243.5 181.5,245.0 184.8,246.6 187.7,248.1 190.1,249.7 192.1,251.2 193.7,252.8 194.8,254.3 195.6,255.9 196.0,257.4 196.3,259.0 196.4,260.5 196.5,262.1 196.4,263.6 196.3,265.2 196.3,266.7 196.2,268.3 196.1,269.8 196.1,271.4 196.1,272.9 196.2,274.5 196.3,276.0 196.4,277.6 196.4,279.1 196.5,280.7 196.6,282.2" fill="#2a8" opacity="0.5" stroke="#2a8" stroke-width="1"/>
<line x1="159.3" y1="229.88474557899164" x2="234.0" y2="229.88474557899164" stroke="#114" stroke-width="2"/>
<circle cx="196.66666666666669" cy="242.58035887917222" r="2.4" fill="#114"/>
<text x="196.66666666666669" y="176.99225670246443" text-anchor="middle" font-size="11">1.08</text>
<text x="196.66666666666669" y="376" text-anchor="middle" font-size="12">gemvT</text>
<polygon points="287.8,265.1 287.9,264.2 288.0,263.3 288.1,262.4 288.2,261.5 288.3,260.5 288.4,259.6 288.5,258.7 288.5,257.8 288.4,256.9 288.3,256.0 288.1,255.0 288.0,254.1 288.0,253.2 288.0,252.3 288.0,251.4 288.2,250.5 288.3,249.5 288.6,248.6 288.9,247.7 289.4,246.8 290.2,245.9 291.3,244.9 292.8,244.0 294.9,243.1 297.5,242.2 300.7,241.3 304.1,240.4 307.8,239.4 311.5,238.5 315.0,237.6 318.0,236.7 320.6,235.8 322.6,234.9 324.1,233.9 325.2,233.0 325.9,232.1 326.0,231.2 325.7,230.3 325.0,229.4 323.8,228.4 322.3,227.5 320.5,226.6 318.4,225.7 315.9,224.8 313.1,223.9 310.1,222.9 307.0,222.0 304.2,221.1 301.7,220.2 299.7,219.3 297.9,218.3 296.5,217.4 295.4,216.5 294.4,215.6 293.5,214.7 292.7,213.8 292.0,212.8 291.3,211.9 290.7,211.0 290.3,210.1 290.0,209.2 289.8,208.3 289.6,207.3 289.4,206.4 289.1,205.5 288.9,204.6 288.6,203.7 288.3,202.8 288.1,201.8 288.0,200.9 287.9,200.0 287.7,200.0 287.6,200.9 287.4,201.8 287.2,202.8 287.0,203.7 286.7,204.6 286.4,205.5 286.2,206.4 286.0,207.3 285.8,208.3 285.6,209.2 285.2,210.1 284.8,211.0 284.3,211.9 283.6,212.8 282.9,213.8 282.1,214.7 281.2,215.6 280.2,216.5 279.0,217.4 277.6,218.3 275.9,219.3 273.8,220.2 271.3,221.1 268.5,222.0 265.5,222.9 262.5,223.9 259.6,224.8 257.1,225.7 255.0,226.6 253.2,227.5 251.7,228.4 250.6,229.4 249.8,230.3 249.5,231.2 249.7,232.1 250.3,233.0 251.4,233.9 252.9,234.9 255.0,235.8 257.5,236.7 260.6,237.6 264.0,238.5 267.7,239.4 271.4,240.4 274.9,241.3 278.0,242.2 280.6,243.1 282.7,244.0 284.3,244.9 285.4,245.9 286.1,246.8 286.6,247.7 287.0,248.6 287.2,249.5 287.4,250.5 287.5,251.4 287.6,252.3 287.6,253.2 287.5,254.1 287.4,255.0 287.3,256.0 287.2,256.9 287.1,257.8 287.1,258.7 287.1,259.6 287.2,260.5 287.3,261.5 287.5,262.4 287.6,263.3 287.7,264.2 287.7,265.1" fill="#2a8" opacity="0.5" stroke="#2a8" stroke-width="1"/>
<line x1="249.7" y1="230.44429721591183" x2="325.8" y2="230.44429721591183" stroke="#114" stroke-width="2"/>
<circle cx="287.77777777777777" cy="236.97827898358585" r="2.4" fill="#114"/>
<text x="287.77777777777777" y="200.4951631114113" text-anchor="middle" font-size="11">1.08</text>
<text x="287.77777777777777" y="376" text-anchor="middle" font-size="12">ger</text>
<polygon points="379.6,238.3 380.1,237.0 380.9,235.7 382.1,234.4 383.8,233.1 386.0,231.8 388.8,230.5 392.1,229.2 395.9,227.9 399.9,226.6 404.1,225.3 408.0,224.0 411.5,222.7 414.2,221.4 416.1,220.1 417.1,218.8 417.2,217.5 416.4,216.2 415.1,214.9 413.5,213.6 411.6,212.3 409.9,211.0 408.2,209.7 406.8,208.4 405.7,207.0 404.7,205.7 403.9,204.4 403.1,203.1 402.3,201.8 401.3,200.5 400.0,199.2 398.5,197.9 396.6,196.6 394.5,195.3 392.4,194.0 390.3,192.7 388.4,191.4 386.7,190.1 385.4,188.8 384.4,187.5 383.7,186.2 383.3,184.9 383.0,183.6 382.8,182.3 382.6,181.0 382.5,179.7 382.4,178.4 382.2,177.1 382.0,175.8 381.7,174.5 381.4,173.2 381.0,171.9 380.6,170.6 380.2,169.2 379.9,167.9 379.6,166.6 379.4,165.3 379.3,164.0 379.3,162.7 379.3,161.4 379.3,160.1 379.4,158.8 379.5,157.5 379.5,156.2 379.5,154.9 379.5,153.6 379.4,152.3 379.4,151.0 379.3,149.7 379.2,148.4 379.1,147.1 379.0,145.8 378.8,145.8 378.7,147.1 378.6,148.4 378.5,149.7 378.4,151.0 378.3,152.3 378.3,153.6 378.3,154.9 378.3,156.2 378.3,157.5 378.4,158.8 378.5,160.1 378.5,161.4 378.5,162.7 378.5,164.0 378.4,165.3 378.2,166.6 377.9,167.9 377.5,169.2 377.2,170.6 376.8,171.9 376.4,173.2 376.1,174.5 375.8,175.8 375.6,177.1 375.4,178.4 375.3,179.7 375.2,181.0 375.0,182.3 374.8,183.6 374.5,184.9 374.1,186.2 373.4,187.5 372.4,188.8 371.1,190.1 369.4,191.4 367.5,192.7 365.4,194.0 363.3,195.3 361.2,196.6 359.3,197.9 357.7,199.2 356.5,200.5 355.5,201.8 354.6,203.1 353.9,204.4 353.1,205.7 352.1,207.0 351.0,208.4 349.5,209.7 347.9,211.0 346.1,212.3 344.3,213.6 342.7,214.9 341.3,216.2 340.6,217.5 340.7,218.8 341.6,220.1 343.5,221.4 346.3,222.7 349.8,224.0 353.7,225.3 357.8,226.6 361.9,227.9 365.7,229.2 369.0,230.5 371.8,231.8 374.0,233.1 375.7,234.4 376.9,235.7 377.7,237.0 378.2,238.3" fill="#2a8" opacity="0.5" stroke="#2a8" stroke-width="1"/>
<line x1="346.1" y1="212.25449406397297" x2="411.6" y2="212.25449406397297" stroke="#114" stroke-width="2"/>
<circle cx="378.8888888888889" cy="222.0614852942615" r="2.4" fill="#114"/>
<text x="378.8888888888889" y="148.93485923400686" text-anchor="middle" font-size="11">1.23</text>
<text x="378.8888888888889" y="376" text-anchor="middle" font-size="12">symv</text>
<polygon points="470.5,251.3 470.8,250.1 471.3,248.8 471.9,247.6 472.8,246.3 473.9,245.0 475.5,243.8 477.3,242.5 479.6,241.2 482.1,240.0 484.8,238.7 487.5,237.4 490.1,236.2 492.4,234.9 494.3,233.6 495.7,232.4 496.5,231.1 497.0,229.8 497.3,228.6 497.6,227.3 498.0,226.1 498.7,224.8 499.6,223.5 500.9,222.3 502.4,221.0 504.0,219.7 505.5,218.5 506.8,217.2 507.7,215.9 508.3,214.7 508.3,213.4 507.7,212.1 506.6,210.9 504.9,209.6 502.6,208.3 500.0,207.1 497.0,205.8 494.0,204.6 491.0,203.3 488.2,202.0 485.8,200.8 483.9,199.5 482.4,198.2 481.3,197.0 480.5,195.7 480.0,194.4 479.5,193.2 479.1,191.9 478.6,190.6 478.0,189.4 477.4,188.1 476.7,186.9 476.0,185.6 475.4,184.3 474.8,183.1 474.4,181.8 474.0,180.5 473.8,179.3 473.5,178.0 473.4,176.7 473.2,175.5 473.0,174.2 472.8,172.9 472.6,171.7 472.3,170.4 472.0,169.1 471.7,167.9 471.4,166.6 471.1,165.4 470.8,164.1 470.6,162.8 470.4,161.6 469.6,161.6 469.4,162.8 469.2,164.1 468.9,165.4 468.6,166.6 468.3,167.9 468.0,169.1 467.7,170.4 467.4,171.7 467.2,172.9 467.0,174.2 466.8,175.5 466.6,176.7 466.5,178.0 466.2,179.3 466.0,180.5 465.6,181.8 465.2,183.1 464.6,184.3 464.0,185.6 463.3,186.9 462.6,188.1 462.0,189.4 461.4,190.6 460.9,191.9 460.5,193.2 460.0,194.4 459.5,195.7 458.7,197.0 457.6,198.2 456.1,199.5 454.2,200.8 451.8,202.0 449.0,203.3 446.0,204.6 443.0,205.8 440.0,207.1 437.4,208.3 435.1,209.6 433.4,210.9 432.3,212.1 431.7,213.4 431.7,214.7 432.3,215.9 433.2,217.2 434.5,218.5 436.0,219.7 437.6,221.0 439.1,222.3 440.4,223.5 441.3,224.8 442.0,226.1 442.4,227.3 442.7,228.6 443.0,229.8 443.5,231.1 444.3,232.4 445.7,233.6 447.6,234.9 449.9,236.2 452.5,237.4 455.2,238.7 457.9,240.0 460.4,241.2 462.7,242.5 464.5,243.8 466.1,245.0 467.2,246.3 468.1,247.6 468.7,248.8 469.2,250.1 469.5,251.3" fill="#2a8" opacity="0.5" stroke="#2a8" stroke-width="1"/>
<line x1="432.5" y1="216.25483936850452" x2="507.5" y2="216.25483936850452" stroke="#114" stroke-width="2"/>
<circle cx="470.0" cy="232.9194778768225" r="2.4" fill="#114"/>
<text x="470.0" y="164.43963080193828" text-anchor="middle" font-size="11">1.20</text>
<text x="470.0" y="376" text-anchor="middle" font-size="12">trmv</text>
<polygon points="561.3,252.0 561.4,251.0 561.5,249.9 561.8,248.8 562.2,247.8 562.7,246.7 563.5,245.6 564.5,244.5 565.8,243.5 567.6,242.4 569.8,241.3 572.4,240.3 575.4,239.2 578.5,238.1 581.7,237.1 584.6,236.0 587.0,234.9 588.8,233.9 589.9,232.8 590.3,231.7 590.4,230.6 590.3,229.6 590.3,228.5 590.6,227.4 591.3,226.4 592.4,225.3 593.8,224.2 595.3,223.2 596.9,222.1 598.2,221.0 599.1,219.9 599.4,218.9 598.9,217.8 597.5,216.7 595.4,215.7 592.6,214.6 589.3,213.5 585.8,212.5 582.3,211.4 578.9,210.3 575.9,209.2 573.3,208.2 571.0,207.1 569.1,206.0 567.6,205.0 566.4,203.9 565.3,202.8 564.5,201.8 563.8,200.7 563.2,199.6 562.7,198.5 562.3,197.5 561.9,196.4 561.7,195.3 561.5,194.3 561.3,193.2 561.3,192.1 561.3,191.1 561.3,190.0 561.4,188.9 561.5,187.8 561.6,186.8 561.8,185.7 561.8,184.6 561.9,183.6 561.8,182.5 561.7,181.4 561.6,180.4 561.5,179.3 561.4,178.2 561.3,177.2 561.2,176.1 561.0,176.1 560.9,177.2 560.8,178.2 560.7,179.3 560.6,180.4 560.5,181.4 560.4,182.5 560.4,183.6 560.4,184.6 560.5,185.7 560.6,186.8 560.7,187.8 560.8,188.9 560.9,190.0 560.9,191.1 560.9,192.1 560.9,193.2 560.8,194.3 560.6,195.3 560.3,196.4 560.0,197.5 559.5,198.5 559.0,199.6 558.4,200.7 557.7,201.8 556.9,202.8 555.9,203.9 554.6,205.0 553.1,206.0 551.2,207.1 549.0,208.2 546.3,209.2 543.3,210.3 540.0,211.4 536.5,212.5 532.9,213.5 529.7,214.6 526.8,215.7 524.7,216.7 523.3,217.8 522.8,218.9 523.1,219.9 524.0,221.0 525.3,222.1 526.9,223.2 528.4,224.2 529.8,225.3 530.9,226.4 531.6,227.4 531.9,228.5 531.9,229.6 531.8,230.6 531.9,231.7 532.3,232.8 533.4,233.9 535.2,234.9 537.6,236.0 540.5,237.1 543.7,238.1 546.9,239.2 549.8,240.3 552.5,241.3 554.6,242.4 556.4,243.5 557.7,244.5 558.7,245.6 559.5,246.7 560.0,247.8 560.4,248.8 560.7,249.9 560.9,251.0 561.0,252.0" fill="#2a8" opacity="0.5" stroke="#2a8" stroke-width="1"/>
<line x1="526.0" y1="222.53468632012098" x2="596.2" y2="222.53468632012098" stroke="#114" stroke-width="2"/>
<circle cx="561.1111111111111" cy="235.62011710965476" r="2.4" fill="#114"/>
<text x="561.1111111111111" y="177.62336625108506" text-anchor="middle" font-size="11">1.14</text>
<text x="561.1111111111111" y="376" text-anchor="middle" font-size="12">trsv</text>
<polygon points="652.3,317.7 652.3,314.6 652.4,311.4 652.5,308.2 652.6,305.0 652.7,301.9 652.8,298.7 652.8,295.5 652.8,292.4 652.7,289.2 652.6,286.0 652.5,282.8 652.4,279.7 652.3,276.5 652.3,273.3 652.3,270.2 652.3,267.0 652.3,263.8 652.4,260.6 652.7,257.5 653.1,254.3 653.9,251.1 655.1,248.0 656.7,244.8 658.6,241.6 660.7,238.4 662.6,235.3 663.9,232.1 664.6,228.9 664.6,225.8 664.2,222.6 663.9,219.4 663.9,216.2 664.6,213.1 665.9,209.9 667.8,206.7 670.2,203.6 672.9,200.4 675.8,197.2 678.9,194.0 682.2,190.9 685.3,187.7 688.0,184.5 689.8,181.4 690.5,178.2 689.8,175.0 687.8,171.8 684.7,168.7 681.0,165.5 677.1,162.3 673.4,159.2 670.1,156.0 667.4,152.8 665.1,149.6 663.1,146.5 661.3,143.3 659.5,140.1 657.9,137.0 656.4,133.8 655.2,130.6 654.3,127.5 653.7,124.3 653.3,121.1 653.1,117.9 653.0,114.8 652.9,111.6 652.8,108.4 652.6,105.3 652.5,102.1 652.4,98.9 652.3,95.7 652.3,92.6 652.2,92.6 652.1,95.7 652.0,98.9 651.9,102.1 651.8,105.3 651.7,108.4 651.6,111.6 651.5,114.8 651.3,117.9 651.1,121.1 650.8,124.3 650.1,127.5 649.2,130.6 648.0,133.8 646.6,137.0 644.9,140.1 643.2,143.3 641.3,146.5 639.3,149.6 637.1,152.8 634.3,156.0 631.1,159.2 627.4,162.3 623.5,165.5 619.7,168.7 616.7,171.8 614.6,175.0 614.0,178.2 614.6,181.4 616.5,184.5 619.2,187.7 622.3,190.9 625.5,194.0 628.6,197.2 631.6,200.4 634.2,203.6 636.6,206.7 638.5,209.9 639.9,213.1 640.6,216.2 640.6,219.4 640.2,222.6 639.9,225.8 639.9,228.9 640.5,232.1 641.9,235.3 643.7,238.4 645.8,241.6 647.8,244.8 649.4,248.0 650.6,251.1 651.3,254.3 651.8,257.5 652.0,260.6 652.1,263.8 652.2,267.0 652.2,270.2 652.2,273.3 652.1,276.5 652.0,279.7 651.9,282.8 651.8,286.0 651.7,289.2 651.7,292.4 651.6,295.5 651.6,298.7 651.7,301.9 651.8,305.0 651.9,308.2 652.0,311.4 652.1,314.6 652.2,317.7" fill="#2a8" opacity="0.5" stroke="#2a8" stroke-width="1"/>
<line x1="614.3" y1="180.54713533001495" x2="690.1" y2="180.54713533001495" stroke="#114" stroke-width="2"/>
<circle cx="652.2222222222223" cy="230.41857624512957" r="2.4" fill="#114"/>
<text x="652.2222222222223" y="108.5472727599395" text-anchor="middle" font-size="11">1.50</text>
<text x="652.2222222222223" y="376" text-anchor="middle" font-size="12">spmv</text>
<polygon points="743.4,278.2 743.4,275.6 743.5,273.0 743.6,270.3 743.7,267.7 743.8,265.1 743.9,262.5 743.9,259.8 743.9,257.2 743.8,254.6 743.8,251.9 743.8,249.3 743.8,246.7 744.1,244.0 744.4,241.4 744.9,238.8 745.4,236.2 746.1,233.5 746.9,230.9 747.9,228.3 749.3,225.6 751.3,223.0 754.1,220.4 757.6,217.7 762.0,215.1 766.9,212.5 772.0,209.9 776.5,207.2 779.9,204.6 781.6,202.0 781.6,199.3 780.0,196.7 777.5,194.1 774.6,191.4 771.6,188.8 768.8,186.2 766.1,183.6 763.5,180.9 761.1,178.3 758.7,175.7 756.4,173.0 754.2,170.4 752.1,167.8 750.2,165.1 748.6,162.5 747.3,159.9 746.5,157.3 746.1,154.6 746.0,152.0 746.0,149.4 746.0,146.7 745.9,144.1 745.7,141.5 745.4,138.8 745.0,136.2 744.7,133.6 744.4,131.0 744.1,128.3 743.9,125.7 743.7,123.1 743.7,120.4 743.7,117.8 743.8,115.2 743.9,112.6 743.9,109.9 743.9,107.3 743.8,104.7 743.7,102.0 743.6,99.4 743.5,96.8 743.4,94.1 743.4,91.5 743.3,91.5 743.3,94.1 743.2,96.8 743.1,99.4 743.0,102.0 742.9,104.7 742.8,107.3 742.8,109.9 742.8,112.6 742.9,115.2 742.9,117.8 743.0,120.4 742.9,123.1 742.8,125.7 742.6,128.3 742.3,131.0 742.0,133.6 741.6,136.2 741.3,138.8 741.0,141.5 740.8,144.1 740.7,146.7 740.6,149.4 740.6,152.0 740.5,154.6 740.1,157.3 739.4,159.9 738.1,162.5 736.5,165.1 734.5,167.8 732.4,170.4 730.3,173.0 728.0,175.7 725.6,178.3 723.1,180.9 720.6,183.6 717.9,186.2 715.1,188.8 712.1,191.4 709.2,194.1 706.7,196.7 705.1,199.3 705.1,202.0 706.8,204.6 710.2,207.2 714.7,209.9 719.8,212.5 724.7,215.1 729.0,217.7 732.6,220.4 735.3,223.0 737.3,225.6 738.7,228.3 739.8,230.9 740.6,233.5 741.2,236.2 741.8,238.8 742.3,241.4 742.6,244.0 742.8,246.7 742.9,249.3 742.9,251.9 742.8,254.6 742.8,257.2 742.8,259.8 742.8,262.5 742.9,265.1 743.0,267.7 743.1,270.3 743.2,273.0 743.3,275.6 743.3,278.2" fill="#2a8" opacity="0.5" stroke="#2a8" stroke-width="1"/>
<line x1="705.8" y1="197.94494740121604" x2="780.9" y2="197.94494740121604" stroke="#114" stroke-width="2"/>
<circle cx="743.3333333333334" cy="207.20877721543744" r="2.4" fill="#114"/>
<text x="743.3333333333334" y="103.77295127722407" text-anchor="middle" font-size="11">1.35</text>
<text x="743.3333333333334" y="376" text-anchor="middle" font-size="12">gbmvN</text>
<polygon points="834.5,278.2 834.6,276.4 834.7,274.6 834.9,272.9 835.1,271.1 835.3,269.3 835.5,267.6 835.6,265.8 835.6,264.0 835.5,262.3 835.3,260.5 835.1,258.7 835.0,257.0 835.0,255.2 835.1,253.4 835.2,251.7 835.4,249.9 835.6,248.1 836.0,246.4 836.4,244.6 836.9,242.9 837.7,241.1 838.8,239.3 840.2,237.6 842.2,235.8 844.7,234.0 847.9,232.3 851.4,230.5 855.2,228.7 859.0,227.0 862.5,225.2 865.7,223.4 868.5,221.7 870.8,219.9 872.3,218.1 872.7,216.4 871.9,214.6 869.8,212.8 866.7,211.1 863.0,209.3 859.3,207.6 855.9,205.8 853.0,204.0 850.3,202.3 847.9,200.5 845.7,198.7 843.6,197.0 841.8,195.2 840.4,193.4 839.4,191.7 838.8,189.9 838.4,188.1 838.1,186.4 837.8,184.6 837.5,182.8 837.0,181.1 836.4,179.3 835.9,177.5 835.5,175.8 835.2,174.0 835.0,172.3 835.0,170.5 835.0,168.7 835.0,167.0 835.0,165.2 835.0,163.4 834.9,161.7 834.8,159.9 834.7,158.1 834.6,156.4 834.5,154.6 834.5,152.8 834.4,152.8 834.4,154.6 834.3,156.4 834.2,158.1 834.1,159.9 834.0,161.7 833.9,163.4 833.8,165.2 833.9,167.0 833.9,168.7 833.9,170.5 833.9,172.3 833.7,174.0 833.4,175.8 833.0,177.5 832.4,179.3 831.9,181.1 831.4,182.8 831.1,184.6 830.8,186.4 830.5,188.1 830.1,189.9 829.4,191.7 828.5,193.4 827.1,195.2 825.3,197.0 823.2,198.7 821.0,200.5 818.6,202.3 815.9,204.0 813.0,205.8 809.6,207.6 805.9,209.3 802.2,211.1 799.1,212.8 797.0,214.6 796.2,216.4 796.6,218.1 798.1,219.9 800.4,221.7 803.2,223.4 806.4,225.2 809.9,227.0 813.7,228.7 817.5,230.5 821.0,232.3 824.2,234.0 826.7,235.8 828.7,237.6 830.1,239.3 831.2,241.1 832.0,242.9 832.5,244.6 832.9,246.4 833.2,248.1 833.5,249.9 833.7,251.7 833.8,253.4 833.9,255.2 833.9,257.0 833.8,258.7 833.6,260.5 833.4,262.3 833.3,264.0 833.3,265.8 833.4,267.6 833.6,269.3 833.8,271.1 834.0,272.9 834.2,274.6 834.3,276.4 834.4,278.2" fill="#2a8" opacity="0.5" stroke="#2a8" stroke-width="1"/>
<line x1="796.4" y1="215.59538226030313" x2="872.5" y2="215.59538226030313" stroke="#114" stroke-width="2"/>
<circle cx="834.4444444444445" cy="227.13817575726029" r="2.4" fill="#114"/>
<text x="834.4444444444445" y="159.15757335778807" text-anchor="middle" font-size="11">1.20</text>
<text x="834.4444444444445" y="376" text-anchor="middle" font-size="12">sbmv</text>
<text x="450.0" y="428" text-anchor="middle" font-size="11" fill="#666">violin = ratio distribution over sizes · line = median · dark dot = worst size · green = every size ≥ gate</text>
</svg>
