<svg xmlns="http://www.w3.org/2000/svg" width="900" height="460" font-family="sans-serif">
<rect width="900" height="460" fill="white"/>
<text x="450.0" y="28" text-anchor="middle" font-size="18" font-weight="bold">Complex LAPACK: PureBLAS / OpenBLAS (AVX-512, 1 thread, ComplexF64)</text>
<line x1="62" y1="400.0" x2="768" y2="400.0" stroke="#eee"/>
<text x="54" y="404.0" text-anchor="end" font-size="11" fill="#666">0.5×</text>
<line x1="62" y1="314.09937635798815" x2="768" y2="314.09937635798815" stroke="#eee"/>
<text x="54" y="318.09937635798815" text-anchor="end" font-size="11" fill="#666">0.7×</text>
<line x1="62" y1="223.04104587139747" x2="768" y2="223.04104587139747" stroke="#eee"/>
<text x="54" y="227.04104587139747" text-anchor="end" font-size="11" fill="#666">1.0×</text>
<line x1="62" y1="119.52669353932978" x2="768" y2="119.52669353932978" stroke="#eee"/>
<text x="54" y="123.52669353932978" text-anchor="end" font-size="11" fill="#666">1.5×</text>
<line x1="62.0" y1="50" x2="62.0" y2="400" stroke="#f4f4f4"/>
<text x="62.0" y="418" text-anchor="middle" font-size="11" fill="#444">8</text>
<line x1="238.5" y1="50" x2="238.5" y2="400" stroke="#f4f4f4"/>
<text x="238.5" y="418" text-anchor="middle" font-size="11" fill="#444">32</text>
<line x1="415.0" y1="50" x2="415.0" y2="400" stroke="#f4f4f4"/>
<text x="415.0" y="418" text-anchor="middle" font-size="11" fill="#444">128</text>
<line x1="503.25" y1="50" x2="503.25" y2="400" stroke="#f4f4f4"/>
<text x="503.25" y="418" text-anchor="middle" font-size="11" fill="#444">256</text>
<line x1="591.5" y1="50" x2="591.5" y2="400" stroke="#f4f4f4"/>
<text x="591.5" y="418" text-anchor="middle" font-size="11" fill="#444">512</text>
<line x1="679.75" y1="50" x2="679.75" y2="400" stroke="#f4f4f4"/>
<text x="679.75" y="418" text-anchor="middle" font-size="11" fill="#444">1024</text>
<line x1="768.0" y1="50" x2="768.0" y2="400" stroke="#f4f4f4"/>
<text x="768.0" y="418" text-anchor="middle" font-size="11" fill="#444">2048</text>
<line x1="62" y1="223.04104587139747" x2="768" y2="223.04104587139747" stroke="#888"/>
<line x1="62" y1="233.46281149109208" x2="768" y2="233.46281149109208" stroke="#d33" stroke-width="1.5" stroke-dasharray="6 4"/>
<text x="66" y="228.46281149109208" font-size="11" fill="#d33">0.96× gate</text>
<polygon points="62.0,95.3 238.5,165.0 415.0,173.6 503.2,202.3 591.5,177.6 679.8,184.4 768.0,190.4 768.0,190.9 679.8,186.5 591.5,180.5 503.2,212.9 415.0,191.2 238.5,168.7 62.0,149.2" fill="#1f77b4" opacity="0.14" stroke="none"/>
<polyline points="62.0,120.0 238.5,168.1 415.0,186.6 503.2,209.1 591.5,179.0 679.8,185.6 768.0,190.8" fill="none" stroke="#1f77b4" stroke-width="2"/>
<circle cx="62.0" cy="120.0" r="3" fill="#1f77b4"/>
<circle cx="238.5" cy="168.1" r="3" fill="#1f77b4"/>
<circle cx="415.0" cy="186.6" r="3" fill="#1f77b4"/>
<circle cx="503.2" cy="209.1" r="3" fill="#1f77b4"/>
<circle cx="591.5" cy="179.0" r="3" fill="#1f77b4"/>
<circle cx="679.8" cy="185.6" r="3" fill="#1f77b4"/>
<circle cx="768.0" cy="190.8" r="3" fill="#1f77b4"/>
<line x1="782" y1="56" x2="802" y2="56" stroke="#1f77b4" stroke-width="3"/>
<text x="806" y="60" font-size="12">zpotrf</text>
<polygon points="62.0,239.6 238.5,332.8 415.0,330.6 503.2,263.2 591.5,228.0 679.8,211.3 768.0,177.6 768.0,181.4 679.8,212.4 591.5,229.1 503.2,268.1 415.0,334.7 238.5,352.5 62.0,246.1" fill="#d62728" opacity="0.14" stroke="none"/>
<polyline points="62.0,243.1 238.5,350.2 415.0,332.2 503.2,264.2 591.5,228.3 679.8,211.7 768.0,178.0" fill="none" stroke="#d62728" stroke-width="2"/>
<circle cx="62.0" cy="243.1" r="3" fill="#d62728"/>
<circle cx="238.5" cy="350.2" r="3" fill="#d62728"/>
<circle cx="415.0" cy="332.2" r="3" fill="#d62728"/>
<circle cx="503.2" cy="264.2" r="3" fill="#d62728"/>
<circle cx="591.5" cy="228.3" r="3" fill="#d62728"/>
<circle cx="679.8" cy="211.7" r="3" fill="#d62728"/>
<circle cx="768.0" cy="178.0" r="3" fill="#d62728"/>
<line x1="782" y1="74" x2="802" y2="74" stroke="#d62728" stroke-width="3"/>
<text x="806" y="78" font-size="12">zgeqrf</text>
<polygon points="62.0,193.8 238.5,217.5 415.0,252.8 503.2,238.8 591.5,232.3 679.8,252.5 768.0,226.5 768.0,228.6 679.8,253.8 591.5,237.2 503.2,250.1 415.0,254.7 238.5,218.8 62.0,195.6" fill="#2ca02c" opacity="0.14" stroke="none"/>
<polyline points="62.0,194.7 238.5,217.8 415.0,253.9 503.2,240.3 591.5,233.4 679.8,253.1 768.0,227.3" fill="none" stroke="#2ca02c" stroke-width="2"/>
<circle cx="62.0" cy="194.7" r="3" fill="#2ca02c"/>
<circle cx="238.5" cy="217.8" r="3" fill="#2ca02c"/>
<circle cx="415.0" cy="253.9" r="3" fill="#2ca02c"/>
<circle cx="503.2" cy="240.3" r="3" fill="#2ca02c"/>
<circle cx="591.5" cy="233.4" r="3" fill="#2ca02c"/>
<circle cx="679.8" cy="253.1" r="3" fill="#2ca02c"/>
<circle cx="768.0" cy="227.3" r="3" fill="#2ca02c"/>
<line x1="782" y1="92" x2="802" y2="92" stroke="#2ca02c" stroke-width="3"/>
<text x="806" y="96" font-size="12">zgetrf</text>
<polygon points="62.0,78.5 238.5,223.1 415.0,400.0 503.2,400.0 591.5,400.0 679.8,400.0 768.0,400.0 768.0,400.0 679.8,400.0 591.5,400.0 503.2,400.0 415.0,400.0 238.5,229.6 62.0,87.2" fill="#9467bd" opacity="0.14" stroke="none"/>
<polyline points="62.0,85.7 238.5,229.1 415.0,400.0 503.2,400.0 591.5,400.0 679.8,400.0 768.0,400.0" fill="none" stroke="#9467bd" stroke-width="2"/>
<circle cx="62.0" cy="85.7" r="3" fill="#9467bd"/>
<circle cx="238.5" cy="229.1" r="3" fill="#9467bd"/>
<circle cx="415.0" cy="400.0" r="3" fill="#9467bd"/>
<circle cx="503.2" cy="400.0" r="3" fill="#9467bd"/>
<circle cx="591.5" cy="400.0" r="3" fill="#9467bd"/>
<circle cx="679.8" cy="400.0" r="3" fill="#9467bd"/>
<circle cx="768.0" cy="400.0" r="3" fill="#9467bd"/>
<line x1="782" y1="110" x2="802" y2="110" stroke="#9467bd" stroke-width="3"/>
<text x="806" y="114" font-size="12">zgesvd</text>
<text x="415.0" y="450" text-anchor="middle" font-size="11" fill="#666">matrix size n (log) · y = median ratio (log) · dashed = the 0.96× gate</text>
</svg>
