<svg xmlns="http://www.w3.org/2000/svg" width="900" height="440" font-family="sans-serif">
<rect width="900" height="440" fill="white"/>
<text x="450.0" y="28" text-anchor="middle" font-size="18" font-weight="bold">Complex BLAS-2: PureBLAS / OpenBLAS (AVX2, 1 thread, ComplexF64)</text>
<line x1="60" y1="358.0" x2="880" y2="358.0" stroke="#eee"/>
<text x="52" y="362.0" text-anchor="end" font-size="11" fill="#666">0×</text>
<line x1="60" y1="281.4327562449345" x2="880" y2="281.4327562449345" stroke="#eee"/>
<text x="52" y="285.4327562449345" text-anchor="end" font-size="11" fill="#666">0.5×</text>
<line x1="60" y1="204.86551248986908" x2="880" y2="204.86551248986908" stroke="#eee"/>
<text x="52" y="208.86551248986908" text-anchor="end" font-size="11" fill="#666">1×</text>
<line x1="60" y1="128.2982687348036" x2="880" y2="128.2982687348036" stroke="#eee"/>
<text x="52" y="132.2982687348036" text-anchor="end" font-size="11" fill="#666">1.5×</text>
<line x1="60" y1="204.86551248986908" x2="880" y2="204.86551248986908" stroke="#888" stroke-width="1"/>
<line x1="60" y1="210.9908919902743" x2="880" y2="210.9908919902743" stroke="#d33" stroke-width="1.5" stroke-dasharray="6 4"/>
<text x="880" y="205.9908919902743" text-anchor="end" font-size="11" fill="#d33">0.96× gate</text>
<polygon points="129.9,208.5 130.4,208.0 131.1,207.5 131.9,206.9 132.9,206.4 134.1,205.9 135.5,205.4 137.1,204.9 139.1,204.3 141.2,203.8 143.7,203.3 146.4,202.8 149.4,202.3 152.7,201.8 156.1,201.2 159.8,200.7 163.5,200.2 167.2,199.7 170.9,199.2 174.3,198.6 177.5,198.1 180.3,197.6 182.6,197.1 184.3,196.6 185.3,196.0 185.7,195.5 185.5,195.0 184.6,194.5 183.1,194.0 181.1,193.5 178.6,192.9 175.9,192.4 173.0,191.9 170.0,191.4 167.1,190.9 164.3,190.3 161.8,189.8 159.6,189.3 157.8,188.8 156.4,188.3 155.4,187.8 154.9,187.2 154.8,186.7 155.1,186.2 155.8,185.7 156.8,185.2 158.1,184.6 159.6,184.1 161.4,183.6 163.3,183.1 165.2,182.6 167.1,182.0 168.9,181.5 170.4,181.0 171.7,180.5 172.4,180.0 172.6,179.5 172.2,178.9 171.1,178.4 169.3,177.9 167.0,177.4 164.1,176.9 160.8,176.3 157.3,175.8 153.6,175.3 150.0,174.8 146.5,174.3 143.2,173.8 140.3,173.2 137.7,172.7 135.6,172.2 133.8,171.7 122.9,171.7 121.1,172.2 118.9,172.7 116.4,173.2 113.4,173.8 110.2,174.3 106.7,174.8 103.0,175.3 99.4,175.8 95.8,176.3 92.5,176.9 89.7,177.4 87.3,177.9 85.6,178.4 84.5,178.9 84.1,179.5 84.3,180.0 85.0,180.5 86.2,181.0 87.8,181.5 89.6,182.0 91.5,182.6 93.4,183.1 95.3,183.6 97.0,184.1 98.6,184.6 99.9,185.2 100.9,185.7 101.5,186.2 101.8,186.7 101.7,187.2 101.2,187.8 100.3,188.3 98.9,188.8 97.0,189.3 94.8,189.8 92.3,190.3 89.6,190.9 86.6,191.4 83.7,191.9 80.7,192.4 78.0,192.9 75.6,193.5 73.6,194.0 72.1,194.5 71.2,195.0 70.9,195.5 71.3,196.0 72.4,196.6 74.1,197.1 76.4,197.6 79.2,198.1 82.3,198.6 85.8,199.2 89.5,199.7 93.2,200.2 96.9,200.7 100.5,201.2 104.0,201.8 107.2,202.3 110.2,202.8 113.0,203.3 115.4,203.8 117.6,204.3 119.5,204.9 121.2,205.4 122.6,205.9 123.8,206.4 124.8,206.9 125.6,207.5 126.3,208.0 126.8,208.5" fill="#2a8" opacity="0.5" stroke="#2a8" stroke-width="1"/>
<line x1="87.2" y1="191.28302078448283" x2="169.5" y2="191.28302078448283" stroke="#114" stroke-width="2"/>
<circle cx="128.33333333333331" cy="196.87331408598467" r="2.4" fill="#114"/>
<text x="128.33333333333331" y="169.48859945546903" text-anchor="middle" font-size="11">1.09</text>
<text x="128.33333333333331" y="376" text-anchor="middle" font-size="12">zgemvN</text>
<polygon points="270.9,238.6 272.4,237.8 274.2,237.0 276.0,236.2 277.9,235.4 279.7,234.6 281.5,233.8 282.9,232.9 284.1,232.1 284.9,231.3 285.2,230.5 285.2,229.7 284.8,228.9 284.2,228.1 283.4,227.3 282.7,226.5 282.2,225.7 282.1,224.9 282.4,224.1 283.3,223.3 284.9,222.5 287.2,221.7 290.1,220.9 293.6,220.1 297.5,219.3 301.6,218.5 305.8,217.7 309.8,216.9 313.5,216.1 316.7,215.3 319.2,214.5 321.0,213.6 322.1,212.8 322.4,212.0 322.1,211.2 321.2,210.4 319.8,209.6 318.1,208.8 316.1,208.0 313.9,207.2 311.7,206.4 309.4,205.6 307.1,204.8 304.9,204.0 302.8,203.2 301.0,202.4 299.4,201.6 298.1,200.8 297.1,200.0 296.5,199.2 296.4,198.4 296.5,197.6 297.0,196.8 297.6,196.0 298.3,195.2 299.0,194.3 299.5,193.5 299.7,192.7 299.5,191.9 298.9,191.1 297.7,190.3 296.0,189.5 293.9,188.7 291.4,187.9 288.6,187.1 285.8,186.3 282.8,185.5 280.0,184.7 277.4,183.9 275.0,183.1 272.8,182.3 271.0,181.5 259.0,181.5 257.2,182.3 255.0,183.1 252.6,183.9 250.0,184.7 247.2,185.5 244.2,186.3 241.4,187.1 238.6,187.9 236.1,188.7 234.0,189.5 232.3,190.3 231.1,191.1 230.5,191.9 230.3,192.7 230.5,193.5 231.0,194.3 231.7,195.2 232.4,196.0 233.0,196.8 233.5,197.6 233.6,198.4 233.5,199.2 232.9,200.0 231.9,200.8 230.6,201.6 229.0,202.4 227.2,203.2 225.1,204.0 222.9,204.8 220.6,205.6 218.3,206.4 216.1,207.2 213.9,208.0 211.9,208.8 210.2,209.6 208.8,210.4 207.9,211.2 207.6,212.0 207.9,212.8 209.0,213.6 210.8,214.5 213.3,215.3 216.5,216.1 220.2,216.9 224.2,217.7 228.4,218.5 232.5,219.3 236.4,220.1 239.9,220.9 242.8,221.7 245.1,222.5 246.7,223.3 247.6,224.1 247.9,224.9 247.8,225.7 247.3,226.5 246.6,227.3 245.8,228.1 245.2,228.9 244.8,229.7 244.8,230.5 245.1,231.3 245.9,232.1 247.1,232.9 248.5,233.8 250.3,234.6 252.1,235.4 254.0,236.2 255.8,237.0 257.6,237.8 259.1,238.6" fill="#d33" opacity="0.5" stroke="#d33" stroke-width="1"/>
<line x1="210.3" y1="209.58322886810467" x2="319.7" y2="209.58322886810467" stroke="#114" stroke-width="2"/>
<circle cx="265.0" cy="230.41672795841413" r="2.4" fill="#114"/>
<text x="265.0" y="181.2556349305315" text-anchor="middle" font-size="11">0.97</text>
<text x="265.0" y="376" text-anchor="middle" font-size="12">zgemvC</text>
<polygon points="409.3,220.8 411.6,219.8 414.4,218.7 417.7,217.6 421.4,216.5 425.5,215.5 430.0,214.4 434.7,213.3 439.4,212.2 444.0,211.2 448.3,210.1 452.1,209.0 455.2,207.9 457.4,206.9 458.7,205.8 459.1,204.7 458.4,203.6 456.8,202.6 454.5,201.5 451.5,200.4 448.1,199.3 444.3,198.3 440.6,197.2 436.9,196.1 433.4,195.0 430.2,194.0 427.4,192.9 425.1,191.8 423.1,190.7 421.6,189.7 420.4,188.6 419.6,187.5 418.9,186.4 418.4,185.4 418.0,184.3 417.7,183.2 417.3,182.1 416.8,181.1 416.2,180.0 415.5,178.9 414.7,177.8 413.8,176.8 413.0,175.7 412.1,174.6 411.3,173.5 410.7,172.5 410.2,171.4 409.9,170.3 409.9,169.2 410.1,168.2 410.5,167.1 411.1,166.0 411.8,164.9 412.6,163.9 413.4,162.8 414.1,161.7 414.8,160.6 415.2,159.6 415.4,158.5 415.4,157.4 415.1,156.3 414.6,155.3 413.8,154.2 412.9,153.1 411.8,152.0 410.7,151.0 409.5,149.9 408.4,148.8 407.3,147.7 406.3,146.7 405.4,145.6 404.6,144.5 398.8,144.5 398.0,145.6 397.1,146.7 396.1,147.7 395.0,148.8 393.8,149.9 392.6,151.0 391.5,152.0 390.4,153.1 389.5,154.2 388.7,155.3 388.2,156.3 387.9,157.4 387.9,158.5 388.1,159.6 388.6,160.6 389.2,161.7 389.9,162.8 390.7,163.9 391.5,164.9 392.3,166.0 392.9,167.1 393.3,168.2 393.5,169.2 393.4,170.3 393.2,171.4 392.7,172.5 392.0,173.5 391.2,174.6 390.4,175.7 389.5,176.8 388.6,177.8 387.8,178.9 387.1,180.0 386.6,181.1 386.1,182.1 385.7,183.2 385.3,184.3 384.9,185.4 384.4,186.4 383.8,187.5 382.9,188.6 381.7,189.7 380.2,190.7 378.3,191.8 375.9,192.9 373.1,194.0 370.0,195.0 366.5,196.1 362.8,197.2 359.0,198.3 355.3,199.3 351.8,200.4 348.8,201.5 346.5,202.6 344.9,203.6 344.3,204.7 344.6,205.8 345.9,206.9 348.2,207.9 351.3,209.0 355.0,210.1 359.3,211.2 363.9,212.2 368.7,213.3 373.3,214.4 377.8,215.5 381.9,216.5 385.7,217.6 388.9,218.7 391.7,219.8 394.0,220.8" fill="#2a8" opacity="0.5" stroke="#2a8" stroke-width="1"/>
<line x1="345.0" y1="203.57880504086725" x2="458.4" y2="203.57880504086725" stroke="#114" stroke-width="2"/>
<circle cx="401.66666666666663" cy="208.78890385732345" r="2.4" fill="#114"/>
<text x="401.66666666666663" y="146.141184974782" text-anchor="middle" font-size="11">1.01</text>
<text x="401.66666666666663" y="376" text-anchor="middle" font-size="12">zgeru</text>
<polygon points="557.8,181.4 561.1,179.7 564.5,177.9 568.0,176.2 571.5,174.5 574.9,172.7 578.0,171.0 581.0,169.2 583.5,167.5 585.6,165.8 587.2,164.0 588.3,162.3 588.9,160.5 589.0,158.8 588.7,157.0 588.0,155.3 586.9,153.6 585.5,151.8 584.0,150.1 582.3,148.3 580.6,146.6 578.8,144.9 577.1,143.1 575.5,141.4 574.0,139.6 572.7,137.9 571.5,136.1 570.6,134.4 569.8,132.7 569.2,130.9 568.9,129.2 568.7,127.4 568.6,125.7 568.7,124.0 568.9,122.2 569.2,120.5 569.6,118.7 570.1,117.0 570.6,115.2 571.3,113.5 572.1,111.8 573.1,110.0 574.2,108.3 575.6,106.5 577.2,104.8 578.9,103.1 580.9,101.3 583.0,99.6 585.3,97.8 587.5,96.1 589.6,94.3 591.6,92.6 593.3,90.9 594.6,89.1 595.4,87.4 595.7,85.6 595.4,83.9 594.5,82.2 593.0,80.4 590.9,78.7 588.2,76.9 585.1,75.2 581.6,73.5 577.9,71.7 573.9,70.0 570.0,68.2 566.1,66.5 562.3,64.7 558.8,63.0 555.5,61.3 552.6,59.5 550.0,57.8 526.7,57.8 524.1,59.5 521.1,61.3 517.9,63.0 514.3,64.7 510.6,66.5 506.7,68.2 502.7,70.0 498.8,71.7 495.1,73.5 491.6,75.2 488.4,76.9 485.8,78.7 483.7,80.4 482.1,82.2 481.2,83.9 480.9,85.6 481.2,87.4 482.1,89.1 483.4,90.9 485.1,92.6 487.0,94.3 489.2,96.1 491.4,97.8 493.6,99.6 495.7,101.3 497.7,103.1 499.5,104.8 501.1,106.5 502.5,108.3 503.6,110.0 504.6,111.8 505.4,113.5 506.0,115.2 506.6,117.0 507.1,118.7 507.5,120.5 507.7,122.2 507.9,124.0 508.0,125.7 508.0,127.4 507.8,129.2 507.4,130.9 506.9,132.7 506.1,134.4 505.1,136.1 504.0,137.9 502.7,139.6 501.2,141.4 499.5,143.1 497.8,144.9 496.1,146.6 494.3,148.3 492.7,150.1 491.1,151.8 489.8,153.6 488.7,155.3 488.0,157.0 487.6,158.8 487.8,160.5 488.4,162.3 489.5,164.0 491.1,165.8 493.2,167.5 495.7,169.2 498.6,171.0 501.8,172.7 505.2,174.5 508.7,176.2 512.2,177.9 515.6,179.7 518.9,181.4" fill="#2a8" opacity="0.5" stroke="#2a8" stroke-width="1"/>
<line x1="506.9" y1="118.19729665795779" x2="569.7" y2="118.19729665795779" stroke="#114" stroke-width="2"/>
<circle cx="538.3333333333333" cy="164.3656305946917" r="2.4" fill="#114"/>
<text x="538.3333333333333" y="63.99039080511534" text-anchor="middle" font-size="11">1.57</text>
<text x="538.3333333333333" y="376" text-anchor="middle" font-size="12">zhemv</text>
<polygon points="683.0,218.6 685.4,216.3 688.3,213.9 691.7,211.5 695.5,209.2 699.7,206.8 704.2,204.5 709.0,202.1 713.7,199.7 718.3,197.4 722.6,195.0 726.3,192.7 729.3,190.3 731.4,187.9 732.4,185.6 732.3,183.2 731.2,180.8 729.0,178.5 725.9,176.1 722.0,173.8 717.7,171.4 713.1,169.0 708.5,166.7 704.1,164.3 700.0,162.0 696.5,159.6 693.6,157.2 691.4,154.9 689.8,152.5 688.7,150.1 688.1,147.8 687.9,145.4 688.0,143.1 688.1,140.7 688.3,138.3 688.3,136.0 688.2,133.6 687.9,131.3 687.4,128.9 686.7,126.5 685.8,124.2 684.9,121.8 684.0,119.4 683.1,117.1 682.4,114.7 681.8,112.4 681.5,110.0 681.4,107.6 681.5,105.3 681.8,102.9 682.4,100.6 683.1,98.2 683.9,95.8 684.7,93.5 685.5,91.1 686.2,88.7 686.7,86.4 687.0,84.0 687.0,81.7 686.8,79.3 686.4,76.9 685.7,74.6 684.9,72.2 683.9,69.9 682.9,67.5 681.8,65.1 680.7,62.8 679.7,60.4 678.8,58.0 678.0,55.7 677.3,53.3 676.8,51.0 673.2,51.0 672.7,53.3 672.0,55.7 671.2,58.0 670.3,60.4 669.3,62.8 668.2,65.1 667.1,67.5 666.1,69.9 665.1,72.2 664.3,74.6 663.6,76.9 663.2,79.3 663.0,81.7 663.0,84.0 663.3,86.4 663.8,88.7 664.5,91.1 665.3,93.5 666.1,95.8 666.9,98.2 667.6,100.6 668.2,102.9 668.5,105.3 668.6,107.6 668.5,110.0 668.2,112.4 667.6,114.7 666.9,117.1 666.0,119.4 665.1,121.8 664.2,124.2 663.3,126.5 662.6,128.9 662.1,131.3 661.8,133.6 661.7,136.0 661.7,138.3 661.9,140.7 662.0,143.1 662.1,145.4 661.9,147.8 661.3,150.1 660.2,152.5 658.6,154.9 656.4,157.2 653.5,159.6 650.0,162.0 645.9,164.3 641.5,166.7 636.9,169.0 632.3,171.4 628.0,173.8 624.1,176.1 621.0,178.5 618.8,180.8 617.7,183.2 617.6,185.6 618.6,187.9 620.7,190.3 623.7,192.7 627.4,195.0 631.7,197.4 636.3,199.7 641.0,202.1 645.8,204.5 650.3,206.8 654.5,209.2 658.3,211.5 661.7,213.9 664.6,216.3 667.0,218.6" fill="#2a8" opacity="0.5" stroke="#2a8" stroke-width="1"/>
<line x1="619.4" y1="180.1575272741938" x2="730.6" y2="180.1575272741938" stroke="#114" stroke-width="2"/>
<circle cx="675.0" cy="196.8513841214431" r="2.4" fill="#114"/>
<text x="675.0" y="61.43396226415098" text-anchor="middle" font-size="11">1.16</text>
<text x="675.0" y="376" text-anchor="middle" font-size="12">ztrmv</text>
<polygon points="817.7,215.3 819.4,213.7 821.3,212.0 823.6,210.4 826.1,208.8 828.9,207.2 831.9,205.5 835.1,203.9 838.6,202.3 842.2,200.7 846.0,199.0 849.9,197.4 853.7,195.8 857.5,194.2 861.0,192.5 864.0,190.9 866.5,189.3 868.2,187.7 869.1,186.1 868.9,184.4 867.7,182.8 865.5,181.2 862.4,179.6 858.7,177.9 854.4,176.3 849.9,174.7 845.5,173.1 841.3,171.4 837.6,169.8 834.5,168.2 832.0,166.6 830.1,164.9 828.9,163.3 828.1,161.7 827.7,160.1 827.6,158.4 827.5,156.8 827.3,155.2 827.0,153.6 826.6,151.9 825.9,150.3 825.0,148.7 824.0,147.1 822.9,145.4 821.9,143.8 821.1,142.2 820.4,140.6 820.1,138.9 820.0,137.3 820.3,135.7 820.8,134.1 821.6,132.4 822.5,130.8 823.5,129.2 824.4,127.6 825.1,126.0 825.6,124.3 825.8,122.7 825.7,121.1 825.2,119.5 824.4,117.8 823.4,116.2 822.2,114.6 820.9,113.0 819.6,111.3 818.3,109.7 817.1,108.1 816.0,106.5 815.0,104.8 814.2,103.2 813.6,101.6 813.1,100.0 810.3,100.0 809.8,101.6 809.1,103.2 808.3,104.8 807.4,106.5 806.3,108.1 805.0,109.7 803.7,111.3 802.4,113.0 801.1,114.6 799.9,116.2 798.9,117.8 798.1,119.5 797.7,121.1 797.5,122.7 797.7,124.3 798.2,126.0 799.0,127.6 799.8,129.2 800.8,130.8 801.7,132.4 802.5,134.1 803.0,135.7 803.3,137.3 803.3,138.9 802.9,140.6 802.3,142.2 801.4,143.8 800.4,145.4 799.4,147.1 798.4,148.7 797.5,150.3 796.8,151.9 796.3,153.6 796.0,155.2 795.9,156.8 795.8,158.4 795.6,160.1 795.2,161.7 794.5,163.3 793.2,164.9 791.4,166.6 788.9,168.2 785.7,169.8 782.0,171.4 777.8,173.1 773.4,174.7 768.9,176.3 764.7,177.9 760.9,179.6 757.8,181.2 755.7,182.8 754.4,184.4 754.3,186.1 755.1,187.7 756.8,189.3 759.3,190.9 762.4,192.5 765.9,194.2 769.6,195.8 773.5,197.4 777.3,199.0 781.1,200.7 784.7,202.3 788.2,203.9 791.4,205.5 794.5,207.2 797.2,208.8 799.7,210.4 802.0,212.0 804.0,213.7 805.6,215.3" fill="#2a8" opacity="0.5" stroke="#2a8" stroke-width="1"/>
<line x1="755.4" y1="183.031630094679" x2="867.9" y2="183.031630094679" stroke="#114" stroke-width="2"/>
<circle cx="811.6666666666666" cy="201.78117883297105" r="2.4" fill="#114"/>
<text x="811.6666666666666" y="105.3717909488039" text-anchor="middle" font-size="11">1.14</text>
<text x="811.6666666666666" y="376" text-anchor="middle" font-size="12">ztrsv</text>
<text x="450.0" y="428" text-anchor="middle" font-size="11" fill="#666">violin = ratio distribution over sizes · line = median · dark dot = worst size · green = every size ≥ gate</text>
</svg>
