<svg xmlns="http://www.w3.org/2000/svg" width="900" height="440" font-family="sans-serif">
<rect width="900" height="440" fill="white"/>
<text x="450.0" y="28" text-anchor="middle" font-size="18" font-weight="bold">Complex BLAS-2: PureBLAS / OpenBLAS (AVX2, 1 thread, ComplexF64)</text>
<line x1="60" y1="358.0" x2="880" y2="358.0" stroke="#eee"/>
<text x="52" y="362.0" text-anchor="end" font-size="11" fill="#666">0×</text>
<line x1="60" y1="279.7400371750151" x2="880" y2="279.7400371750151" stroke="#eee"/>
<text x="52" y="283.7400371750151" text-anchor="end" font-size="11" fill="#666">0.5×</text>
<line x1="60" y1="201.48007435003026" x2="880" y2="201.48007435003026" stroke="#eee"/>
<text x="52" y="205.48007435003026" text-anchor="end" font-size="11" fill="#666">1×</text>
<line x1="60" y1="123.22011152504541" x2="880" y2="123.22011152504541" stroke="#eee"/>
<text x="52" y="127.22011152504541" text-anchor="end" font-size="11" fill="#666">1.5×</text>
<line x1="60" y1="201.48007435003026" x2="880" y2="201.48007435003026" stroke="#888" stroke-width="1"/>
<line x1="60" y1="207.74087137602908" x2="880" y2="207.74087137602908" stroke="#d33" stroke-width="1.5" stroke-dasharray="6 4"/>
<text x="880" y="202.74087137602908" text-anchor="end" font-size="11" fill="#d33">0.96× gate</text>
<polygon points="101.2,203.2 101.4,202.7 101.6,202.2 101.8,201.7 102.2,201.2 102.7,200.7 103.4,200.2 104.4,199.6 105.5,199.1 107.0,198.6 108.9,198.1 111.1,197.6 113.7,197.1 116.6,196.6 119.7,196.1 122.9,195.6 126.0,195.1 128.9,194.6 131.3,194.1 133.3,193.6 134.6,193.1 135.4,192.6 135.4,192.1 134.9,191.6 133.7,191.1 132.0,190.6 129.9,190.0 127.4,189.5 124.8,189.0 122.2,188.5 119.8,188.0 117.7,187.5 115.9,187.0 114.6,186.5 113.7,186.0 113.4,185.5 113.5,185.0 114.1,184.5 115.1,184.0 116.5,183.5 118.1,183.0 119.8,182.5 121.5,182.0 123.2,181.5 124.6,181.0 125.8,180.4 126.7,179.9 127.3,179.4 127.3,178.9 126.9,178.4 125.8,177.9 124.1,177.4 121.9,176.9 119.2,176.4 116.3,175.9 113.5,175.4 110.8,174.9 108.4,174.4 106.5,173.9 105.0,173.4 103.9,172.9 103.1,172.4 102.6,171.9 102.2,171.3 101.9,170.8 101.7,170.3 101.5,169.8 101.4,169.3 101.3,168.8 101.2,168.3 101.2,167.8 101.1,167.3 100.9,167.3 100.8,167.8 100.8,168.3 100.7,168.8 100.6,169.3 100.5,169.8 100.3,170.3 100.1,170.8 99.8,171.3 99.4,171.9 98.9,172.4 98.1,172.9 97.0,173.4 95.5,173.9 93.6,174.4 91.2,174.9 88.5,175.4 85.7,175.9 82.8,176.4 80.1,176.9 77.9,177.4 76.2,177.9 75.1,178.4 74.7,178.9 74.7,179.4 75.3,179.9 76.2,180.4 77.4,181.0 78.8,181.5 80.5,182.0 82.2,182.5 83.9,183.0 85.5,183.5 86.9,184.0 87.9,184.5 88.5,185.0 88.6,185.5 88.3,186.0 87.4,186.5 86.1,187.0 84.3,187.5 82.2,188.0 79.8,188.5 77.2,189.0 74.6,189.5 72.1,190.0 70.0,190.6 68.3,191.1 67.1,191.6 66.6,192.1 66.6,192.6 67.4,193.1 68.7,193.6 70.7,194.1 73.1,194.6 76.0,195.1 79.1,195.6 82.3,196.1 85.4,196.6 88.3,197.1 90.9,197.6 93.1,198.1 95.0,198.6 96.5,199.1 97.6,199.6 98.6,200.2 99.3,200.7 99.8,201.2 100.2,201.7 100.4,202.2 100.6,202.7 100.8,203.2" fill="#2a8" opacity="0.5" stroke="#2a8" stroke-width="1"/>
<line x1="72.9" y1="189.87151967884128" x2="129.1" y2="189.87151967884128" stroke="#114" stroke-width="2"/>
<circle cx="101.0" cy="194.13317811071835" r="2.4" fill="#114"/>
<text x="101.0" y="165.03095478047413" text-anchor="middle" font-size="11">1.07</text>
<text x="101.0" y="376" text-anchor="middle" font-size="12">zgemvN</text>
<polygon points="184.4,238.9 185.0,238.1 185.8,237.2 186.8,236.4 187.9,235.6 189.2,234.7 190.6,233.9 191.9,233.1 193.1,232.3 194.1,231.4 194.7,230.6 195.0,229.8 194.8,229.0 194.3,228.1 193.4,227.3 192.3,226.5 191.1,225.6 190.0,224.8 189.1,224.0 188.5,223.2 188.3,222.3 188.6,221.5 189.4,220.7 190.7,219.8 192.5,219.0 194.7,218.2 197.3,217.4 200.1,216.5 203.1,215.7 206.1,214.9 208.9,214.1 211.5,213.2 213.7,212.4 215.5,211.6 216.7,210.7 217.4,209.9 217.4,209.1 216.9,208.3 215.9,207.4 214.3,206.6 212.4,205.8 210.2,204.9 207.7,204.1 205.3,203.3 202.9,202.5 200.8,201.6 199.0,200.8 197.6,200.0 196.6,199.2 196.1,198.3 196.1,197.5 196.4,196.7 197.1,195.8 198.1,195.0 199.3,194.2 200.5,193.4 201.7,192.5 202.7,191.7 203.4,190.9 203.6,190.0 203.4,189.2 202.7,188.4 201.6,187.6 200.0,186.7 198.1,185.9 196.1,185.1 194.0,184.3 192.0,183.4 190.1,182.6 188.5,181.8 187.1,180.9 185.9,180.1 180.1,180.1 178.9,180.9 177.5,181.8 175.9,182.6 174.0,183.4 172.0,184.3 169.9,185.1 167.9,185.9 166.0,186.7 164.4,187.6 163.3,188.4 162.6,189.2 162.4,190.0 162.6,190.9 163.3,191.7 164.3,192.5 165.5,193.4 166.7,194.2 167.9,195.0 168.9,195.8 169.6,196.7 169.9,197.5 169.9,198.3 169.4,199.2 168.4,200.0 167.0,200.8 165.2,201.6 163.1,202.5 160.7,203.3 158.3,204.1 155.8,204.9 153.6,205.8 151.7,206.6 150.1,207.4 149.1,208.3 148.6,209.1 148.6,209.9 149.3,210.7 150.5,211.6 152.3,212.4 154.5,213.2 157.1,214.1 159.9,214.9 162.9,215.7 165.9,216.5 168.7,217.4 171.3,218.2 173.5,219.0 175.3,219.8 176.6,220.7 177.4,221.5 177.7,222.3 177.5,223.2 176.9,224.0 176.0,224.8 174.9,225.6 173.7,226.5 172.6,227.3 171.7,228.1 171.2,229.0 171.0,229.8 171.3,230.6 171.9,231.4 172.9,232.3 174.1,233.1 175.4,233.9 176.8,234.7 178.1,235.6 179.2,236.4 180.2,237.2 181.0,238.1 181.6,238.9" fill="#d33" opacity="0.5" stroke="#d33" stroke-width="1"/>
<line x1="150.7" y1="207.06114094897947" x2="215.3" y2="207.06114094897947" stroke="#114" stroke-width="2"/>
<circle cx="183.0" cy="229.522361968564" r="2.4" fill="#114"/>
<text x="183.0" y="180.0544012301398" text-anchor="middle" font-size="11">0.96</text>
<text x="183.0" y="376" text-anchor="middle" font-size="12">zgemvT</text>
<polygon points="265.6,240.2 265.8,239.4 266.2,238.6 266.8,237.8 267.5,236.9 268.3,236.1 269.4,235.3 270.7,234.5 272.0,233.7 273.4,232.8 274.8,232.0 275.9,231.2 276.9,230.4 277.4,229.6 277.5,228.7 277.2,227.9 276.5,227.1 275.5,226.3 274.3,225.5 273.0,224.6 271.9,223.8 271.0,223.0 270.4,222.2 270.3,221.4 270.6,220.5 271.5,219.7 272.9,218.9 274.7,218.1 277.0,217.3 279.7,216.4 282.6,215.6 285.7,214.8 288.7,214.0 291.6,213.1 294.2,212.3 296.3,211.5 297.9,210.7 299.0,209.9 299.4,209.0 299.4,208.2 298.8,207.4 297.7,206.6 296.4,205.8 294.7,204.9 292.8,204.1 290.7,203.3 288.6,202.5 286.5,201.7 284.5,200.8 282.8,200.0 281.4,199.2 280.6,198.4 280.3,197.6 280.7,196.7 281.6,195.9 283.1,195.1 284.9,194.3 286.8,193.5 288.6,192.6 289.9,191.8 290.7,191.0 290.7,190.2 290.0,189.3 288.4,188.5 286.2,187.7 283.6,186.9 280.7,186.1 277.8,185.2 275.1,184.4 272.7,183.6 270.6,182.8 269.0,182.0 261.0,182.0 259.4,182.8 257.3,183.6 254.9,184.4 252.2,185.2 249.3,186.1 246.4,186.9 243.8,187.7 241.6,188.5 240.0,189.3 239.3,190.2 239.3,191.0 240.1,191.8 241.4,192.6 243.2,193.5 245.1,194.3 246.9,195.1 248.4,195.9 249.3,196.7 249.7,197.6 249.4,198.4 248.6,199.2 247.2,200.0 245.5,200.8 243.5,201.7 241.4,202.5 239.3,203.3 237.2,204.1 235.3,204.9 233.6,205.8 232.3,206.6 231.2,207.4 230.6,208.2 230.6,209.0 231.0,209.9 232.1,210.7 233.7,211.5 235.8,212.3 238.4,213.1 241.3,214.0 244.3,214.8 247.4,215.6 250.3,216.4 253.0,217.3 255.3,218.1 257.1,218.9 258.5,219.7 259.4,220.5 259.7,221.4 259.6,222.2 259.0,223.0 258.1,223.8 257.0,224.6 255.7,225.5 254.5,226.3 253.5,227.1 252.8,227.9 252.5,228.7 252.6,229.6 253.1,230.4 254.1,231.2 255.2,232.0 256.6,232.8 258.0,233.7 259.3,234.5 260.6,235.3 261.7,236.1 262.5,236.9 263.2,237.8 263.8,238.6 264.2,239.4 264.4,240.2" fill="#d33" opacity="0.5" stroke="#d33" stroke-width="1"/>
<line x1="231.4" y1="207.23597187994835" x2="298.6" y2="207.23597187994835" stroke="#114" stroke-width="2"/>
<circle cx="265.0" cy="228.71284893602586" r="2.4" fill="#114"/>
<text x="265.0" y="181.85373380205172" text-anchor="middle" font-size="11">0.96</text>
<text x="265.0" y="376" text-anchor="middle" font-size="12">zgemvC</text>
<polygon points="350.4,216.7 351.6,215.5 353.1,214.4 355.0,213.2 357.2,212.0 359.7,210.8 362.5,209.7 365.4,208.5 368.5,207.3 371.6,206.1 374.5,204.9 377.0,203.8 379.1,202.6 380.6,201.4 381.4,200.2 381.4,199.1 380.8,197.9 379.4,196.7 377.4,195.5 375.0,194.3 372.3,193.2 369.4,192.0 366.5,190.8 363.7,189.6 361.2,188.5 358.9,187.3 357.1,186.1 355.6,184.9 354.6,183.7 354.0,182.6 353.7,181.4 353.8,180.2 354.0,179.0 354.3,177.9 354.7,176.7 355.0,175.5 355.2,174.3 355.3,173.1 355.1,172.0 354.7,170.8 354.1,169.6 353.4,168.4 352.6,167.3 351.8,166.1 351.0,164.9 350.3,163.7 349.6,162.5 349.1,161.4 348.8,160.2 348.6,159.0 348.6,157.8 348.7,156.7 349.0,155.5 349.5,154.3 350.1,153.1 350.8,151.9 351.5,150.8 352.3,149.6 353.1,148.4 353.8,147.2 354.4,146.0 354.8,144.9 355.0,143.7 354.9,142.5 354.7,141.3 354.2,140.2 353.6,139.0 352.8,137.8 352.0,136.6 351.2,135.4 350.4,134.3 349.7,133.1 344.3,133.1 343.6,134.3 342.8,135.4 342.0,136.6 341.2,137.8 340.4,139.0 339.8,140.2 339.3,141.3 339.1,142.5 339.0,143.7 339.2,144.9 339.6,146.0 340.2,147.2 340.9,148.4 341.7,149.6 342.5,150.8 343.2,151.9 343.9,153.1 344.5,154.3 345.0,155.5 345.3,156.7 345.4,157.8 345.4,159.0 345.2,160.2 344.9,161.4 344.4,162.5 343.7,163.7 343.0,164.9 342.2,166.1 341.4,167.3 340.6,168.4 339.9,169.6 339.3,170.8 338.9,172.0 338.7,173.1 338.8,174.3 339.0,175.5 339.3,176.7 339.7,177.9 340.0,179.0 340.2,180.2 340.3,181.4 340.0,182.6 339.4,183.7 338.4,184.9 336.9,186.1 335.1,187.3 332.8,188.5 330.3,189.6 327.5,190.8 324.6,192.0 321.7,193.2 319.0,194.3 316.6,195.5 314.6,196.7 313.2,197.9 312.6,199.1 312.6,200.2 313.4,201.4 314.9,202.6 317.0,203.8 319.5,204.9 322.4,206.1 325.5,207.3 328.6,208.5 331.5,209.7 334.3,210.8 336.8,212.0 339.0,213.2 340.9,214.4 342.4,215.5 343.6,216.7" fill="#2a8" opacity="0.5" stroke="#2a8" stroke-width="1"/>
<line x1="313.5" y1="197.59517272705648" x2="380.5" y2="197.59517272705648" stroke="#114" stroke-width="2"/>
<circle cx="347.0" cy="205.23293051251144" r="2.4" fill="#114"/>
<text x="347.0" y="135.43797044180798" text-anchor="middle" font-size="11">1.02</text>
<text x="347.0" y="376" text-anchor="middle" font-size="12">zgeru</text>
<polygon points="443.4,174.4 445.8,172.8 448.4,171.2 450.9,169.6 453.4,168.0 455.7,166.4 457.8,164.7 459.6,163.1 461.0,161.5 462.0,159.9 462.6,158.3 462.8,156.7 462.6,155.0 462.1,153.4 461.2,151.8 460.0,150.2 458.7,148.6 457.2,147.0 455.6,145.3 453.9,143.7 452.3,142.1 450.8,140.5 449.3,138.9 448.0,137.3 446.9,135.6 445.9,134.0 445.2,132.4 444.7,130.8 444.3,129.2 444.2,127.5 444.2,125.9 444.3,124.3 444.5,122.7 444.6,121.1 444.8,119.5 444.9,117.8 445.0,116.2 444.9,114.6 444.9,113.0 444.8,111.4 444.6,109.8 444.6,108.1 444.6,106.5 444.7,104.9 445.1,103.3 445.6,101.7 446.3,100.1 447.3,98.4 448.4,96.8 449.8,95.2 451.3,93.6 452.9,92.0 454.6,90.4 456.3,88.7 458.0,87.1 459.5,85.5 460.9,83.9 462.0,82.3 462.9,80.7 463.3,79.0 463.4,77.4 463.1,75.8 462.3,74.2 461.2,72.6 459.6,71.0 457.6,69.3 455.4,67.7 453.0,66.1 450.5,64.5 447.9,62.9 445.3,61.3 442.9,59.6 415.1,59.6 412.7,61.3 410.1,62.9 407.5,64.5 405.0,66.1 402.6,67.7 400.4,69.3 398.4,71.0 396.8,72.6 395.7,74.2 394.9,75.8 394.6,77.4 394.7,79.0 395.1,80.7 396.0,82.3 397.1,83.9 398.5,85.5 400.0,87.1 401.7,88.7 403.4,90.4 405.1,92.0 406.7,93.6 408.2,95.2 409.6,96.8 410.7,98.4 411.7,100.1 412.4,101.7 412.9,103.3 413.3,104.9 413.4,106.5 413.4,108.1 413.4,109.8 413.2,111.4 413.1,113.0 413.1,114.6 413.0,116.2 413.1,117.8 413.2,119.5 413.4,121.1 413.5,122.7 413.7,124.3 413.8,125.9 413.8,127.5 413.7,129.2 413.3,130.8 412.8,132.4 412.1,134.0 411.1,135.6 410.0,137.3 408.7,138.9 407.2,140.5 405.7,142.1 404.1,143.7 402.4,145.3 400.8,147.0 399.3,148.6 398.0,150.2 396.8,151.8 395.9,153.4 395.4,155.0 395.2,156.7 395.4,158.3 396.0,159.9 397.0,161.5 398.4,163.1 400.2,164.7 402.3,166.4 404.6,168.0 407.1,169.6 409.6,171.2 412.2,172.8 414.6,174.4" fill="#2a8" opacity="0.5" stroke="#2a8" stroke-width="1"/>
<line x1="413.1" y1="117.23271954325193" x2="444.9" y2="117.23271954325193" stroke="#114" stroke-width="2"/>
<circle cx="429.0" cy="160.60056339387626" r="2.4" fill="#114"/>
<text x="429.0" y="65.000681246375" text-anchor="middle" font-size="11">1.54</text>
<text x="429.0" y="376" text-anchor="middle" font-size="12">zhemv</text>
<polygon points="516.3,210.7 518.0,208.5 519.9,206.4 522.1,204.3 524.7,202.1 527.4,200.0 530.3,197.8 533.3,195.7 536.2,193.5 539.0,191.4 541.4,189.3 543.3,187.1 544.7,185.0 545.4,182.8 545.4,180.7 544.7,178.5 543.3,176.4 541.2,174.3 538.7,172.1 535.8,170.0 532.7,167.8 529.6,165.7 526.6,163.6 523.9,161.4 521.5,159.3 519.5,157.1 517.9,155.0 516.8,152.8 516.1,150.7 515.8,148.6 515.8,146.4 516.0,144.3 516.4,142.1 516.9,140.0 517.5,137.8 518.0,135.7 518.4,133.6 518.6,131.4 518.7,129.3 518.6,127.1 518.3,125.0 517.8,122.9 517.3,120.7 516.6,118.6 515.9,116.4 515.2,114.3 514.6,112.1 514.1,110.0 513.7,107.9 513.4,105.7 513.3,103.6 513.3,101.4 513.5,99.3 513.8,97.1 514.2,95.0 514.7,92.9 515.3,90.7 515.9,88.6 516.6,86.4 517.2,84.3 517.7,82.2 518.1,80.0 518.3,77.9 518.3,75.7 518.2,73.6 517.9,71.4 517.4,69.3 516.8,67.2 516.1,65.0 515.4,62.9 514.7,60.7 514.0,58.6 508.0,58.6 507.3,60.7 506.6,62.9 505.9,65.0 505.2,67.2 504.6,69.3 504.1,71.4 503.8,73.6 503.7,75.7 503.7,77.9 503.9,80.0 504.3,82.2 504.8,84.3 505.4,86.4 506.1,88.6 506.7,90.7 507.3,92.9 507.8,95.0 508.2,97.1 508.5,99.3 508.7,101.4 508.7,103.6 508.6,105.7 508.3,107.9 507.9,110.0 507.4,112.1 506.8,114.3 506.1,116.4 505.4,118.6 504.7,120.7 504.2,122.9 503.7,125.0 503.4,127.1 503.3,129.3 503.4,131.4 503.6,133.6 504.0,135.7 504.5,137.8 505.1,140.0 505.6,142.1 506.0,144.3 506.2,146.4 506.2,148.6 505.9,150.7 505.2,152.8 504.1,155.0 502.5,157.1 500.5,159.3 498.1,161.4 495.4,163.6 492.4,165.7 489.3,167.8 486.2,170.0 483.3,172.1 480.8,174.3 478.7,176.4 477.3,178.5 476.6,180.7 476.6,182.8 477.3,185.0 478.7,187.1 480.6,189.3 483.0,191.4 485.8,193.5 488.7,195.7 491.7,197.8 494.6,200.0 497.3,202.1 499.9,204.3 502.1,206.4 504.0,208.5 505.7,210.7" fill="#2a8" opacity="0.5" stroke="#2a8" stroke-width="1"/>
<line x1="477.3" y1="178.5735224099555" x2="544.7" y2="178.5735224099555" stroke="#114" stroke-width="2"/>
<circle cx="511.0" cy="193.40620374644487" r="2.4" fill="#114"/>
<text x="511.0" y="67.55969170646354" text-anchor="middle" font-size="11">1.15</text>
<text x="511.0" y="376" text-anchor="middle" font-size="12">ztrmv</text>
<polygon points="596.0,209.5 596.9,208.0 598.0,206.6 599.2,205.1 600.6,203.7 602.1,202.2 603.8,200.8 605.7,199.3 607.7,197.9 609.9,196.4 612.2,195.0 614.6,193.5 617.1,192.1 619.7,190.6 622.0,189.2 624.2,187.7 625.9,186.3 627.0,184.8 627.4,183.4 627.1,181.9 626.0,180.5 624.2,179.0 621.8,177.6 618.8,176.1 615.6,174.7 612.3,173.2 609.0,171.8 606.0,170.3 603.4,168.9 601.2,167.5 599.4,166.0 598.2,164.6 597.4,163.1 597.0,161.7 596.9,160.2 597.2,158.8 597.7,157.3 598.3,155.9 599.1,154.4 599.8,153.0 600.5,151.5 601.0,150.1 601.3,148.6 601.4,147.2 601.3,145.7 601.0,144.3 600.5,142.8 599.9,141.4 599.3,139.9 598.6,138.5 598.0,137.0 597.5,135.6 597.2,134.1 597.1,132.7 597.1,131.2 597.4,129.8 597.8,128.4 598.3,126.9 598.9,125.5 599.5,124.0 600.0,122.6 600.5,121.1 600.8,119.7 600.9,118.2 600.8,116.8 600.5,115.3 600.0,113.9 599.4,112.4 598.7,111.0 597.9,109.5 597.1,108.1 596.3,106.6 589.7,106.6 588.9,108.1 588.1,109.5 587.3,111.0 586.6,112.4 586.0,113.9 585.5,115.3 585.2,116.8 585.1,118.2 585.2,119.7 585.5,121.1 586.0,122.6 586.5,124.0 587.1,125.5 587.7,126.9 588.2,128.4 588.6,129.8 588.9,131.2 588.9,132.7 588.8,134.1 588.5,135.6 588.0,137.0 587.4,138.5 586.7,139.9 586.1,141.4 585.5,142.8 585.0,144.3 584.7,145.7 584.6,147.2 584.7,148.6 585.0,150.1 585.5,151.5 586.2,153.0 586.9,154.4 587.7,155.9 588.3,157.3 588.8,158.8 589.1,160.2 589.0,161.7 588.6,163.1 587.8,164.6 586.6,166.0 584.8,167.5 582.6,168.9 580.0,170.3 577.0,171.8 573.7,173.2 570.4,174.7 567.2,176.1 564.2,177.6 561.8,179.0 560.0,180.5 558.9,181.9 558.6,183.4 559.0,184.8 560.1,186.3 561.8,187.7 564.0,189.2 566.3,190.6 568.9,192.1 571.4,193.5 573.8,195.0 576.1,196.4 578.3,197.9 580.3,199.3 582.2,200.8 583.9,202.2 585.4,203.7 586.8,205.1 588.0,206.6 589.1,208.0 590.0,209.5" fill="#2a8" opacity="0.5" stroke="#2a8" stroke-width="1"/>
<line x1="559.1" y1="181.5614845307826" x2="626.9" y2="181.5614845307826" stroke="#114" stroke-width="2"/>
<circle cx="593.0" cy="197.0061207454928" r="2.4" fill="#114"/>
<text x="593.0" y="110.83135761546507" text-anchor="middle" font-size="11">1.13</text>
<text x="593.0" y="376" text-anchor="middle" font-size="12">ztrsv</text>
<polygon points="683.2,172.9 685.5,171.3 688.1,169.6 691.0,168.0 694.0,166.3 697.1,164.7 700.2,163.0 703.0,161.4 705.5,159.7 707.5,158.1 708.8,156.4 709.4,154.8 709.4,153.2 708.6,151.5 707.3,149.9 705.5,148.2 703.3,146.6 701.0,144.9 698.7,143.3 696.5,141.6 694.5,140.0 692.7,138.3 691.3,136.7 690.0,135.0 689.0,133.4 688.2,131.7 687.4,130.1 686.7,128.4 686.0,126.8 685.3,125.1 684.7,123.5 684.0,121.8 683.3,120.2 682.8,118.5 682.3,116.9 682.0,115.2 681.8,113.6 681.7,111.9 681.8,110.3 682.0,108.6 682.2,107.0 682.4,105.3 682.5,103.7 682.6,102.0 682.6,100.4 682.5,98.7 682.3,97.1 682.0,95.4 681.6,93.8 681.2,92.1 680.8,90.5 680.4,88.8 680.2,87.2 680.1,85.5 680.1,83.9 680.3,82.2 680.6,80.6 681.1,78.9 681.6,77.3 682.2,75.6 682.7,74.0 683.2,72.3 683.5,70.7 683.7,69.0 683.7,67.4 683.5,65.7 683.2,64.1 682.6,62.4 682.0,60.8 681.2,59.1 680.4,57.5 679.6,55.9 670.4,55.9 669.6,57.5 668.8,59.1 668.0,60.8 667.4,62.4 666.8,64.1 666.5,65.7 666.3,67.4 666.3,69.0 666.5,70.7 666.8,72.3 667.3,74.0 667.8,75.6 668.4,77.3 668.9,78.9 669.4,80.6 669.7,82.2 669.9,83.9 669.9,85.5 669.8,87.2 669.6,88.8 669.2,90.5 668.8,92.1 668.4,93.8 668.0,95.4 667.7,97.1 667.5,98.7 667.4,100.4 667.4,102.0 667.5,103.7 667.6,105.3 667.8,107.0 668.0,108.6 668.2,110.3 668.3,111.9 668.2,113.6 668.0,115.2 667.7,116.9 667.2,118.5 666.7,120.2 666.0,121.8 665.3,123.5 664.7,125.1 664.0,126.8 663.3,128.4 662.6,130.1 661.8,131.7 661.0,133.4 660.0,135.0 658.7,136.7 657.3,138.3 655.5,140.0 653.5,141.6 651.3,143.3 649.0,144.9 646.7,146.6 644.5,148.2 642.7,149.9 641.4,151.5 640.6,153.2 640.6,154.8 641.2,156.4 642.5,158.1 644.5,159.7 647.0,161.4 649.8,163.0 652.9,164.7 656.0,166.3 659.0,168.0 661.9,169.6 664.5,171.3 666.8,172.9" fill="#2a8" opacity="0.5" stroke="#2a8" stroke-width="1"/>
<line x1="641.8" y1="150.89233735336907" x2="708.2" y2="150.89233735336907" stroke="#114" stroke-width="2"/>
<circle cx="675.0" cy="155.67702074885125" r="2.4" fill="#114"/>
<text x="675.0" y="61.43396226415098" text-anchor="middle" font-size="11">1.32</text>
<text x="675.0" y="376" text-anchor="middle" font-size="12">zhpmv</text>
<polygon points="757.8,149.9 758.3,149.0 758.9,148.1 759.8,147.2 761.0,146.3 762.6,145.5 764.4,144.6 766.7,143.7 769.3,142.8 772.2,141.9 775.2,141.0 778.3,140.1 781.3,139.2 784.0,138.3 786.5,137.5 788.5,136.6 790.0,135.7 791.0,134.8 791.4,133.9 791.4,133.0 790.9,132.1 790.0,131.2 788.7,130.3 787.0,129.5 785.1,128.6 783.0,127.7 780.7,126.8 778.5,125.9 776.3,125.0 774.2,124.1 772.3,123.2 770.5,122.3 769.0,121.4 767.6,120.6 766.4,119.7 765.2,118.8 764.1,117.9 763.1,117.0 762.1,116.1 761.2,115.2 760.4,114.3 759.6,113.4 759.0,112.6 758.5,111.7 758.2,110.8 758.0,109.9 757.9,109.0 757.9,108.1 758.1,107.2 758.4,106.3 758.8,105.4 759.3,104.5 759.9,103.7 760.6,102.8 761.4,101.9 762.2,101.0 763.0,100.1 763.8,99.2 764.4,98.3 764.9,97.4 765.2,96.5 765.2,95.7 765.0,94.8 764.6,93.9 764.0,93.0 763.2,92.1 762.3,91.2 761.4,90.3 760.6,89.4 759.8,88.5 759.1,87.6 758.5,86.8 755.5,86.8 754.9,87.6 754.2,88.5 753.4,89.4 752.6,90.3 751.7,91.2 750.8,92.1 750.0,93.0 749.4,93.9 749.0,94.8 748.8,95.7 748.8,96.5 749.1,97.4 749.6,98.3 750.2,99.2 751.0,100.1 751.8,101.0 752.6,101.9 753.4,102.8 754.1,103.7 754.7,104.5 755.2,105.4 755.6,106.3 755.9,107.2 756.1,108.1 756.1,109.0 756.0,109.9 755.8,110.8 755.5,111.7 755.0,112.6 754.4,113.4 753.6,114.3 752.8,115.2 751.9,116.1 750.9,117.0 749.9,117.9 748.8,118.8 747.6,119.7 746.4,120.6 745.0,121.4 743.5,122.3 741.7,123.2 739.8,124.1 737.7,125.0 735.5,125.9 733.3,126.8 731.0,127.7 728.9,128.6 727.0,129.5 725.3,130.3 724.0,131.2 723.1,132.1 722.6,133.0 722.6,133.9 723.0,134.8 724.0,135.7 725.5,136.6 727.5,137.5 730.0,138.3 732.7,139.2 735.7,140.1 738.8,141.0 741.8,141.9 744.7,142.8 747.3,143.7 749.6,144.6 751.4,145.5 753.0,146.3 754.2,147.2 755.1,148.1 755.7,149.0 756.2,149.9" fill="#2a8" opacity="0.5" stroke="#2a8" stroke-width="1"/>
<line x1="724.7" y1="130.74481619288667" x2="789.3" y2="130.74481619288667" stroke="#114" stroke-width="2"/>
<circle cx="757.0" cy="138.73666597598256" r="2.4" fill="#114"/>
<text x="757.0" y="87.12313525554275" text-anchor="middle" font-size="11">1.45</text>
<text x="757.0" y="376" text-anchor="middle" font-size="12">zgbmvN</text>
<polygon points="839.1,150.1 839.2,149.8 839.4,149.6 839.7,149.4 840.2,149.2 841.0,149.0 842.3,148.8 843.9,148.6 846.2,148.4 849.0,148.2 852.3,148.0 856.0,147.8 860.0,147.6 863.9,147.4 867.4,147.2 870.4,147.0 872.5,146.8 873.4,146.6 873.2,146.4 871.8,146.2 869.4,146.0 866.2,145.8 862.7,145.6 859.2,145.4 856.0,145.2 853.3,144.9 851.3,144.7 849.8,144.5 848.8,144.3 848.0,144.1 847.4,143.9 846.9,143.7 846.6,143.5 846.5,143.3 846.5,143.1 846.8,142.9 847.3,142.7 847.8,142.5 848.3,142.3 848.5,142.1 848.5,141.9 848.1,141.7 847.5,141.5 846.6,141.3 845.7,141.1 844.9,140.9 844.2,140.7 843.6,140.5 843.1,140.2 842.8,140.0 842.4,139.8 842.0,139.6 841.7,139.4 841.3,139.2 840.9,139.0 840.5,138.8 840.2,138.6 840.0,138.4 839.8,138.2 839.7,138.0 839.6,137.8 839.6,137.6 839.5,137.4 839.4,137.2 839.4,137.0 839.3,136.8 839.2,136.6 839.2,136.4 839.1,136.2 839.1,136.0 839.0,135.8 839.0,135.5 839.0,135.5 839.0,135.8 838.9,136.0 838.9,136.2 838.8,136.4 838.8,136.6 838.7,136.8 838.6,137.0 838.6,137.2 838.5,137.4 838.4,137.6 838.4,137.8 838.3,138.0 838.2,138.2 838.0,138.4 837.8,138.6 837.5,138.8 837.1,139.0 836.7,139.2 836.3,139.4 836.0,139.6 835.6,139.8 835.2,140.0 834.9,140.2 834.4,140.5 833.8,140.7 833.1,140.9 832.3,141.1 831.4,141.3 830.5,141.5 829.9,141.7 829.5,141.9 829.5,142.1 829.7,142.3 830.2,142.5 830.7,142.7 831.2,142.9 831.5,143.1 831.5,143.3 831.4,143.5 831.1,143.7 830.6,143.9 830.0,144.1 829.2,144.3 828.2,144.5 826.7,144.7 824.7,144.9 822.0,145.2 818.8,145.4 815.3,145.6 811.8,145.8 808.6,146.0 806.2,146.2 804.8,146.4 804.6,146.6 805.5,146.8 807.6,147.0 810.6,147.2 814.1,147.4 818.0,147.6 822.0,147.8 825.7,148.0 829.0,148.2 831.8,148.4 834.1,148.6 835.7,148.8 837.0,149.0 837.8,149.2 838.3,149.4 838.6,149.6 838.8,149.8 838.9,150.1" fill="#2a8" opacity="0.5" stroke="#2a8" stroke-width="1"/>
<line x1="806.0" y1="146.19202457651838" x2="872.0" y2="146.19202457651838" stroke="#114" stroke-width="2"/>
<circle cx="839.0" cy="147.47864041038468" r="2.4" fill="#114"/>
<text x="839.0" y="131.20440880284258" text-anchor="middle" font-size="11">1.35</text>
<text x="839.0" y="376" text-anchor="middle" font-size="12">zhbmv</text>
<text x="450.0" y="428" text-anchor="middle" font-size="11" fill="#666">violin = ratio distribution over sizes · line = median · dark dot = worst size · green = every size ≥ gate</text>
</svg>
