<svg xmlns="http://www.w3.org/2000/svg" width="900" height="440" font-family="sans-serif">
<rect width="900" height="440" fill="white"/>
<text x="450.0" y="28" text-anchor="middle" font-size="18" font-weight="bold">BLAS-2: PureBLAS / OpenBLAS (AVX2, 1 thread, Float64)</text>
<line x1="60" y1="358.0" x2="880" y2="358.0" stroke="#eee"/>
<text x="52" y="362.0" text-anchor="end" font-size="11" fill="#666">0×</text>
<line x1="60" y1="303.4274645996454" x2="880" y2="303.4274645996454" stroke="#eee"/>
<text x="52" y="307.4274645996454" text-anchor="end" font-size="11" fill="#666">0.5×</text>
<line x1="60" y1="248.85492919929084" x2="880" y2="248.85492919929084" stroke="#eee"/>
<text x="52" y="252.85492919929084" text-anchor="end" font-size="11" fill="#666">1×</text>
<line x1="60" y1="194.28239379893625" x2="880" y2="194.28239379893625" stroke="#eee"/>
<text x="52" y="198.28239379893625" text-anchor="end" font-size="11" fill="#666">1.5×</text>
<line x1="60" y1="248.85492919929084" x2="880" y2="248.85492919929084" stroke="#888" stroke-width="1"/>
<line x1="60" y1="253.22073203131922" x2="880" y2="253.22073203131922" stroke="#d33" stroke-width="1.5" stroke-dasharray="6 4"/>
<text x="880" y="248.22073203131922" text-anchor="end" font-size="11" fill="#d33">0.96× gate</text>
<polygon points="106.4,271.6 106.8,270.8 107.4,270.0 108.0,269.2 108.7,268.5 109.6,267.7 110.5,266.9 111.6,266.2 112.7,265.4 114.1,264.6 115.6,263.8 117.3,263.1 119.4,262.3 121.7,261.5 124.3,260.8 127.2,260.0 130.3,259.2 133.4,258.4 136.4,257.7 139.1,256.9 141.3,256.1 142.9,255.3 143.7,254.6 143.8,253.8 143.2,253.0 142.1,252.3 140.6,251.5 138.9,250.7 137.2,249.9 135.7,249.2 134.5,248.4 133.6,247.6 133.0,246.9 132.7,246.1 132.6,245.3 132.7,244.5 132.8,243.8 133.0,243.0 133.1,242.2 133.2,241.4 133.2,240.7 133.1,239.9 132.7,239.1 132.1,238.4 131.2,237.6 129.9,236.8 128.2,236.0 126.1,235.3 123.8,234.5 121.4,233.7 118.9,233.0 116.6,232.2 114.5,231.4 112.7,230.6 111.1,229.9 109.9,229.1 109.0,228.3 108.3,227.5 107.8,226.8 107.5,226.0 107.4,225.2 107.3,224.5 107.2,223.7 107.2,222.9 107.1,222.1 107.0,221.4 106.9,220.6 106.7,219.8 106.5,219.1 106.3,218.3 106.2,217.5 106.0,216.7 105.1,216.7 105.0,217.5 104.8,218.3 104.6,219.1 104.4,219.8 104.2,220.6 104.1,221.4 104.0,222.1 103.9,222.9 103.9,223.7 103.8,224.5 103.7,225.2 103.6,226.0 103.3,226.8 102.8,227.5 102.1,228.3 101.2,229.1 100.0,229.9 98.4,230.6 96.6,231.4 94.5,232.2 92.2,233.0 89.7,233.7 87.3,234.5 85.0,235.3 83.0,236.0 81.2,236.8 79.9,237.6 79.0,238.4 78.4,239.1 78.0,239.9 77.9,240.7 77.9,241.4 78.0,242.2 78.1,243.0 78.3,243.8 78.4,244.5 78.5,245.3 78.4,246.1 78.1,246.9 77.6,247.6 76.6,248.4 75.4,249.2 73.9,249.9 72.2,250.7 70.5,251.5 69.0,252.3 67.9,253.0 67.3,253.8 67.4,254.6 68.2,255.3 69.8,256.1 72.0,256.9 74.7,257.7 77.7,258.4 80.8,259.2 83.9,260.0 86.8,260.8 89.4,261.5 91.7,262.3 93.8,263.1 95.5,263.8 97.0,264.6 98.4,265.4 99.6,266.2 100.6,266.9 101.6,267.7 102.4,268.5 103.1,269.2 103.8,270.0 104.3,270.8 104.7,271.6" fill="#d33" opacity="0.5" stroke="#d33" stroke-width="1"/>
<line x1="75.3" y1="249.2074985070881" x2="135.8" y2="249.2074985070881" stroke="#114" stroke-width="2"/>
<circle cx="105.55555555555556" cy="257.95897132436164" r="2.4" fill="#114"/>
<text x="105.55555555555556" y="216.2216524712537" text-anchor="middle" font-size="11">1.00</text>
<text x="105.55555555555556" y="376" text-anchor="middle" font-size="12">gemvN</text>
<polygon points="196.7,267.3 196.7,266.7 196.8,266.0 196.9,265.4 197.0,264.7 197.1,264.1 197.2,263.4 197.2,262.8 197.2,262.2 197.1,261.5 197.0,260.9 196.9,260.2 196.9,259.6 196.9,258.9 197.0,258.3 197.2,257.6 197.4,257.0 197.7,256.3 198.1,255.7 198.3,255.0 198.5,254.4 198.6,253.7 198.7,253.1 198.9,252.4 199.4,251.8 200.6,251.1 202.7,250.5 206.0,249.8 210.5,249.2 216.1,248.5 222.0,247.9 227.5,247.2 231.8,246.6 234.3,245.9 234.9,245.3 233.9,244.6 231.8,244.0 229.2,243.3 226.5,242.7 224.1,242.1 221.9,241.4 219.6,240.8 217.2,240.1 214.7,239.5 212.3,238.8 210.0,238.2 208.0,237.5 206.4,236.9 204.9,236.2 203.6,235.6 202.3,234.9 201.2,234.3 200.1,233.6 199.3,233.0 198.7,232.3 198.2,231.7 197.8,231.0 197.5,230.4 197.4,229.7 197.4,229.1 197.5,228.4 197.6,227.8 197.7,227.1 197.7,226.5 197.6,225.8 197.5,225.2 197.3,224.5 197.1,223.9 196.9,223.2 196.8,222.6 196.7,221.9 196.7,221.3 196.6,221.3 196.6,221.9 196.5,222.6 196.4,223.2 196.3,223.9 196.1,224.5 195.9,225.2 195.7,225.8 195.6,226.5 195.6,227.1 195.7,227.8 195.8,228.4 195.9,229.1 195.9,229.7 195.8,230.4 195.5,231.0 195.2,231.7 194.7,232.3 194.0,233.0 193.2,233.6 192.2,234.3 191.0,234.9 189.7,235.6 188.4,236.2 186.9,236.9 185.3,237.5 183.3,238.2 181.1,238.8 178.6,239.5 176.1,240.1 173.7,240.8 171.5,241.4 169.2,242.1 166.8,242.7 164.1,243.3 161.5,244.0 159.4,244.6 158.4,245.3 159.0,245.9 161.5,246.6 165.8,247.2 171.3,247.9 177.3,248.5 182.8,249.2 187.4,249.8 190.7,250.5 192.8,251.1 193.9,251.8 194.4,252.4 194.6,253.1 194.7,253.7 194.8,254.4 195.0,255.0 195.3,255.7 195.6,256.3 195.9,257.0 196.2,257.6 196.4,258.3 196.5,258.9 196.5,259.6 196.4,260.2 196.3,260.9 196.2,261.5 196.1,262.2 196.1,262.8 196.1,263.4 196.2,264.1 196.3,264.7 196.5,265.4 196.5,266.0 196.6,266.7 196.6,267.3" fill="#2a8" opacity="0.5" stroke="#2a8" stroke-width="1"/>
<line x1="159.8" y1="244.4950239157775" x2="233.5" y2="244.4950239157775" stroke="#114" stroke-width="2"/>
<circle cx="196.66666666666669" cy="247.18499075627156" r="2.4" fill="#114"/>
<text x="196.66666666666669" y="219.9318295185505" text-anchor="middle" font-size="11">1.04</text>
<text x="196.66666666666669" y="376" text-anchor="middle" font-size="12">gemvT</text>
<polygon points="288.1,265.1 288.2,264.3 288.5,263.4 288.7,262.6 289.1,261.7 289.7,260.9 290.5,260.0 291.6,259.2 293.0,258.3 294.9,257.5 297.2,256.6 300.1,255.7 303.4,254.9 307.1,254.0 311.0,253.2 314.8,252.3 318.5,251.5 321.6,250.6 324.0,249.8 325.6,248.9 326.0,248.1 325.5,247.2 324.0,246.3 321.6,245.5 318.6,244.6 315.1,243.8 311.5,242.9 307.8,242.1 304.4,241.2 301.2,240.4 298.4,239.5 296.0,238.7 294.1,237.8 292.6,237.0 291.4,236.1 290.5,235.2 289.8,234.4 289.4,233.5 289.0,232.7 288.8,231.8 288.7,231.0 288.6,230.1 288.7,229.3 288.7,228.4 288.9,227.6 289.2,226.7 289.5,225.8 290.0,225.0 290.5,224.1 291.1,223.3 291.8,222.4 292.5,221.6 293.2,220.7 293.8,219.9 294.2,219.0 294.5,218.2 294.6,217.3 294.4,216.4 294.1,215.6 293.6,214.7 293.0,213.9 292.3,213.0 291.6,212.2 290.9,211.3 290.3,210.5 289.8,209.6 289.3,208.8 288.9,207.9 288.6,207.1 288.4,206.2 288.2,205.3 288.1,204.5 287.5,204.5 287.4,205.3 287.2,206.2 287.0,207.1 286.6,207.9 286.3,208.8 285.8,209.6 285.2,210.5 284.6,211.3 283.9,212.2 283.2,213.0 282.5,213.9 281.9,214.7 281.4,215.6 281.1,216.4 281.0,217.3 281.1,218.2 281.3,219.0 281.8,219.9 282.4,220.7 283.1,221.6 283.8,222.4 284.4,223.3 285.1,224.1 285.6,225.0 286.0,225.8 286.4,226.7 286.6,227.6 286.8,228.4 286.9,229.3 286.9,230.1 286.9,231.0 286.7,231.8 286.5,232.7 286.2,233.5 285.7,234.4 285.1,235.2 284.2,236.1 283.0,237.0 281.4,237.8 279.5,238.7 277.1,239.5 274.4,240.4 271.2,241.2 267.7,242.1 264.1,242.9 260.4,243.8 257.0,244.6 254.0,245.5 251.6,246.3 250.1,247.2 249.5,248.1 250.0,248.9 251.5,249.8 253.9,250.6 257.1,251.5 260.7,252.3 264.6,253.2 268.5,254.0 272.2,254.9 275.5,255.7 278.3,256.6 280.7,257.5 282.5,258.3 284.0,259.2 285.1,260.0 285.8,260.9 286.4,261.7 286.8,262.6 287.1,263.4 287.3,264.3 287.5,265.1" fill="#2a8" opacity="0.5" stroke="#2a8" stroke-width="1"/>
<line x1="249.7" y1="247.59173312851613" x2="325.9" y2="247.59173312851613" stroke="#114" stroke-width="2"/>
<circle cx="287.77777777777777" cy="250.15988926277345" r="2.4" fill="#114"/>
<text x="287.77777777777777" y="204.5345959422608" text-anchor="middle" font-size="11">1.01</text>
<text x="287.77777777777777" y="376" text-anchor="middle" font-size="12">ger</text>
<polygon points="380.4,261.9 381.0,260.9 381.8,260.0 382.9,259.0 384.3,258.0 386.0,257.0 388.1,256.0 390.6,255.0 393.4,254.0 396.4,253.0 399.7,252.0 403.1,251.1 406.4,250.1 409.5,249.1 412.2,248.1 414.5,247.1 416.1,246.1 417.0,245.1 417.2,244.1 416.6,243.2 415.4,242.2 413.5,241.2 411.2,240.2 408.6,239.2 405.8,238.2 403.0,237.2 400.1,236.2 397.4,235.2 395.0,234.3 392.8,233.3 390.9,232.3 389.4,231.3 388.2,230.3 387.3,229.3 386.8,228.3 386.5,227.3 386.5,226.4 386.7,225.4 387.0,224.4 387.4,223.4 387.8,222.4 388.1,221.4 388.3,220.4 388.5,219.4 388.4,218.4 388.3,217.5 388.1,216.5 387.8,215.5 387.5,214.5 387.2,213.5 386.9,212.5 386.8,211.5 386.7,210.5 386.7,209.6 386.8,208.6 387.0,207.6 387.1,206.6 387.2,205.6 387.3,204.6 387.3,203.6 387.1,202.6 386.8,201.7 386.4,200.7 385.9,199.7 385.3,198.7 384.6,197.7 383.9,196.7 383.2,195.7 382.5,194.7 381.8,193.7 381.3,192.8 380.8,191.8 377.0,191.8 376.5,192.8 375.9,193.7 375.3,194.7 374.6,195.7 373.9,196.7 373.2,197.7 372.5,198.7 371.9,199.7 371.4,200.7 371.0,201.7 370.7,202.6 370.5,203.6 370.5,204.6 370.5,205.6 370.7,206.6 370.8,207.6 371.0,208.6 371.1,209.6 371.1,210.5 371.0,211.5 370.9,212.5 370.6,213.5 370.3,214.5 370.0,215.5 369.7,216.5 369.5,217.5 369.3,218.4 369.3,219.4 369.4,220.4 369.7,221.4 370.0,222.4 370.4,223.4 370.8,224.4 371.1,225.4 371.3,226.4 371.3,227.3 371.0,228.3 370.5,229.3 369.6,230.3 368.4,231.3 366.9,232.3 365.0,233.3 362.8,234.3 360.3,235.2 357.7,236.2 354.8,237.2 352.0,238.2 349.1,239.2 346.5,240.2 344.2,241.2 342.4,242.2 341.2,243.2 340.6,244.1 340.8,245.1 341.7,246.1 343.3,247.1 345.5,248.1 348.3,249.1 351.4,250.1 354.7,251.1 358.1,252.0 361.4,253.0 364.4,254.0 367.2,255.0 369.7,256.0 371.7,257.0 373.5,258.0 374.9,259.0 376.0,260.0 376.8,260.9 377.4,261.9" fill="#2a8" opacity="0.5" stroke="#2a8" stroke-width="1"/>
<line x1="341.2" y1="243.12119360289375" x2="416.6" y2="243.12119360289375" stroke="#114" stroke-width="2"/>
<circle cx="378.8888888888889" cy="246.611434569519" r="2.4" fill="#114"/>
<text x="378.8888888888889" y="192.73456799129792" text-anchor="middle" font-size="11">1.05</text>
<text x="378.8888888888889" y="376" text-anchor="middle" font-size="12">symv</text>
<polygon points="474.2,258.7 475.5,257.6 477.1,256.4 479.0,255.3 481.3,254.1 483.8,253.0 486.6,251.8 489.5,250.6 492.6,249.5 495.7,248.3 498.7,247.2 501.5,246.0 503.9,244.8 505.9,243.7 507.3,242.5 508.1,241.4 508.3,240.2 507.8,239.1 506.8,237.9 505.3,236.7 503.4,235.6 501.2,234.4 498.8,233.3 496.3,232.1 493.9,231.0 491.5,229.8 489.3,228.6 487.3,227.5 485.6,226.3 484.1,225.2 483.0,224.0 482.1,222.8 481.4,221.7 481.0,220.5 480.8,219.4 480.6,218.2 480.6,217.1 480.5,215.9 480.4,214.7 480.3,213.6 480.0,212.4 479.6,211.3 479.2,210.1 478.6,209.0 478.0,207.8 477.3,206.6 476.7,205.5 476.2,204.3 475.7,203.2 475.4,202.0 475.3,200.8 475.3,199.7 475.5,198.5 475.9,197.4 476.3,196.2 476.9,195.1 477.4,193.9 477.9,192.7 478.4,191.6 478.7,190.4 478.9,189.3 479.0,188.1 478.8,187.0 478.5,185.8 478.0,184.6 477.4,183.5 476.7,182.3 475.9,181.2 475.1,180.0 474.3,178.8 473.6,177.7 472.9,176.5 467.1,176.5 466.4,177.7 465.7,178.8 464.9,180.0 464.1,181.2 463.3,182.3 462.6,183.5 462.0,184.6 461.5,185.8 461.2,187.0 461.0,188.1 461.1,189.3 461.3,190.4 461.6,191.6 462.1,192.7 462.6,193.9 463.1,195.1 463.7,196.2 464.1,197.4 464.5,198.5 464.7,199.7 464.7,200.8 464.6,202.0 464.3,203.2 463.8,204.3 463.3,205.5 462.7,206.6 462.0,207.8 461.4,209.0 460.8,210.1 460.4,211.3 460.0,212.4 459.7,213.6 459.6,214.7 459.5,215.9 459.4,217.1 459.4,218.2 459.2,219.4 459.0,220.5 458.6,221.7 457.9,222.8 457.0,224.0 455.9,225.2 454.4,226.3 452.7,227.5 450.7,228.6 448.5,229.8 446.1,231.0 443.7,232.1 441.2,233.3 438.8,234.4 436.6,235.6 434.7,236.7 433.2,237.9 432.2,239.1 431.7,240.2 431.9,241.4 432.7,242.5 434.1,243.7 436.1,244.8 438.5,246.0 441.3,247.2 444.3,248.3 447.4,249.5 450.5,250.6 453.4,251.8 456.2,253.0 458.7,254.1 461.0,255.3 462.9,256.4 464.5,257.6 465.8,258.7" fill="#2a8" opacity="0.5" stroke="#2a8" stroke-width="1"/>
<line x1="432.5" y1="238.64551890735842" x2="507.5" y2="238.64551890735842" stroke="#114" stroke-width="2"/>
<circle cx="470.0" cy="244.09523058736409" r="2.4" fill="#114"/>
<text x="470.0" y="178.6610131080148" text-anchor="middle" font-size="11">1.09</text>
<text x="470.0" y="376" text-anchor="middle" font-size="12">trmv</text>
<polygon points="566.1,257.1 567.5,255.9 569.2,254.8 571.1,253.6 573.3,252.5 575.7,251.3 578.4,250.1 581.2,249.0 584.1,247.8 587.0,246.7 589.8,245.5 592.4,244.4 594.7,243.2 596.6,242.1 598.0,240.9 599.0,239.7 599.4,238.6 599.3,237.4 598.6,236.3 597.6,235.1 596.1,234.0 594.4,232.8 592.5,231.7 590.5,230.5 588.5,229.3 586.6,228.2 584.8,227.0 583.1,225.9 581.6,224.7 580.2,223.6 579.0,222.4 577.9,221.3 576.9,220.1 576.1,218.9 575.3,217.8 574.6,216.6 574.1,215.5 573.5,214.3 573.1,213.2 572.8,212.0 572.6,210.9 572.4,209.7 572.4,208.5 572.4,207.4 572.4,206.2 572.5,205.1 572.5,203.9 572.5,202.8 572.5,201.6 572.5,200.4 572.5,199.3 572.4,198.1 572.3,197.0 572.3,195.8 572.3,194.7 572.3,193.5 572.4,192.4 572.5,191.2 572.6,190.0 572.7,188.9 572.7,187.7 572.7,186.6 572.5,185.4 572.3,184.3 571.9,183.1 571.4,182.0 570.7,180.8 569.9,179.6 569.1,178.5 568.2,177.3 567.3,176.2 566.4,175.0 555.8,175.0 554.9,176.2 554.0,177.3 553.1,178.5 552.3,179.6 551.5,180.8 550.9,182.0 550.3,183.1 550.0,184.3 549.7,185.4 549.6,186.6 549.5,187.7 549.6,188.9 549.7,190.0 549.8,191.2 549.9,192.4 549.9,193.5 549.9,194.7 549.9,195.8 549.9,197.0 549.8,198.1 549.8,199.3 549.7,200.4 549.7,201.6 549.7,202.8 549.7,203.9 549.8,205.1 549.8,206.2 549.9,207.4 549.8,208.5 549.8,209.7 549.6,210.9 549.4,212.0 549.1,213.2 548.7,214.3 548.2,215.5 547.6,216.6 546.9,217.8 546.1,218.9 545.3,220.1 544.3,221.3 543.2,222.4 542.0,223.6 540.7,224.7 539.1,225.9 537.5,227.0 535.6,228.2 533.7,229.3 531.7,230.5 529.7,231.7 527.8,232.8 526.1,234.0 524.7,235.1 523.6,236.3 523.0,237.4 522.8,238.6 523.3,239.7 524.2,240.9 525.6,242.1 527.6,243.2 529.9,244.4 532.5,245.5 535.2,246.7 538.1,247.8 541.0,249.0 543.8,250.1 546.5,251.3 548.9,252.5 551.1,253.6 553.1,254.8 554.7,255.9 556.1,257.1" fill="#2a8" opacity="0.5" stroke="#2a8" stroke-width="1"/>
<line x1="526.0" y1="234.07170474349465" x2="596.3" y2="234.07170474349465" stroke="#114" stroke-width="2"/>
<circle cx="561.1111111111111" cy="240.57267302127482" r="2.4" fill="#114"/>
<text x="561.1111111111111" y="177.13870697875336" text-anchor="middle" font-size="11">1.14</text>
<text x="561.1111111111111" y="376" text-anchor="middle" font-size="12">trsv</text>
<polygon points="661.4,273.7 664.0,270.6 666.9,267.4 670.0,264.3 673.3,261.1 676.7,258.0 679.9,254.8 682.9,251.7 685.5,248.5 687.6,245.4 689.1,242.2 690.1,239.1 690.5,235.9 690.3,232.8 689.6,229.6 688.4,226.5 686.9,223.3 685.0,220.2 682.9,217.0 680.7,213.9 678.3,210.7 676.0,207.6 673.7,204.4 671.5,201.3 669.6,198.1 667.9,194.9 666.5,191.8 665.5,188.6 664.8,185.5 664.3,182.3 664.1,179.2 664.0,176.0 663.9,172.9 663.8,169.7 663.6,166.6 663.3,163.4 662.8,160.3 662.3,157.1 661.7,154.0 661.1,150.8 660.6,147.7 660.2,144.5 660.0,141.4 660.0,138.2 660.1,135.1 660.4,131.9 660.8,128.8 661.2,125.6 661.6,122.5 661.8,119.3 661.9,116.2 661.8,113.0 661.4,109.9 660.9,106.7 660.2,103.6 659.4,100.4 658.5,97.3 657.6,94.1 656.8,91.0 656.0,87.8 655.3,84.7 654.7,81.5 654.2,78.4 653.8,75.2 653.5,72.1 653.3,68.9 653.1,65.8 653.0,62.6 652.9,59.5 652.8,56.3 652.7,53.2 652.6,50.0 651.9,50.0 651.8,53.2 651.7,56.3 651.6,59.5 651.5,62.6 651.3,65.8 651.1,68.9 650.9,72.1 650.6,75.2 650.2,78.4 649.7,81.5 649.1,84.7 648.5,87.8 647.7,91.0 646.8,94.1 645.9,97.3 645.0,100.4 644.2,103.6 643.5,106.7 643.0,109.9 642.7,113.0 642.5,116.2 642.6,119.3 642.8,122.5 643.2,125.6 643.6,128.8 644.0,131.9 644.3,135.1 644.5,138.2 644.5,141.4 644.2,144.5 643.9,147.7 643.3,150.8 642.8,154.0 642.2,157.1 641.6,160.3 641.2,163.4 640.9,166.6 640.7,169.7 640.6,172.9 640.5,176.0 640.4,179.2 640.1,182.3 639.7,185.5 639.0,188.6 637.9,191.8 636.6,194.9 634.9,198.1 632.9,201.3 630.8,204.4 628.5,207.6 626.1,210.7 623.8,213.9 621.5,217.0 619.4,220.2 617.5,223.3 616.0,226.5 614.8,229.6 614.1,232.8 614.0,235.9 614.3,239.1 615.3,242.2 616.9,245.4 619.0,248.5 621.6,251.7 624.6,254.8 627.8,258.0 631.1,261.1 634.4,264.3 637.6,267.4 640.5,270.6 643.0,273.7" fill="#2a8" opacity="0.5" stroke="#2a8" stroke-width="1"/>
<line x1="617.6" y1="223.1826670675255" x2="686.8" y2="223.1826670675255" stroke="#114" stroke-width="2"/>
<circle cx="652.2222222222223" cy="248.20140763063" r="2.4" fill="#114"/>
<text x="652.2222222222223" y="61.43396226415098" text-anchor="middle" font-size="11">1.24</text>
<text x="652.2222222222223" y="376" text-anchor="middle" font-size="12">spmv</text>
<polygon points="743.3,268.0 743.3,266.9 743.4,265.8 743.4,264.8 743.5,263.7 743.7,262.7 743.8,261.6 743.9,260.5 743.8,259.5 743.8,258.4 743.8,257.4 743.9,256.3 744.0,255.2 744.3,254.2 744.5,253.1 744.8,252.1 745.1,251.0 745.8,249.9 747.0,248.9 749.2,247.8 752.8,246.8 757.8,245.7 764.0,244.6 770.7,243.6 776.8,242.5 780.8,241.5 781.6,240.4 778.9,239.3 773.7,238.3 767.7,237.2 762.3,236.2 758.7,235.1 756.9,234.0 756.3,233.0 755.9,231.9 754.7,230.9 752.5,229.8 749.8,228.7 747.3,227.7 745.5,226.6 744.5,225.6 744.1,224.5 743.9,223.4 743.8,222.4 743.6,221.3 743.5,220.3 743.4,219.2 743.4,218.1 743.3,217.1 743.3,216.0 743.3,215.0 743.3,213.9 743.3,212.9 743.3,211.8 743.3,210.7 743.3,209.7 743.3,208.6 743.3,207.6 743.3,206.5 743.4,205.4 743.4,204.4 743.6,203.3 743.7,202.3 743.8,201.2 743.8,200.1 743.8,199.1 743.7,198.0 743.5,197.0 743.4,195.9 743.4,194.8 743.3,193.8 743.3,192.7 743.3,192.7 743.3,193.8 743.3,194.8 743.2,195.9 743.1,197.0 743.0,198.0 742.9,199.1 742.8,200.1 742.9,201.2 743.0,202.3 743.1,203.3 743.2,204.4 743.3,205.4 743.3,206.5 743.3,207.6 743.3,208.6 743.3,209.7 743.3,210.7 743.3,211.8 743.3,212.9 743.3,213.9 743.3,215.0 743.3,216.0 743.3,217.1 743.3,218.1 743.3,219.2 743.2,220.3 743.0,221.3 742.9,222.4 742.7,223.4 742.5,224.5 742.1,225.6 741.1,226.6 739.4,227.7 736.9,228.7 734.2,229.8 732.0,230.9 730.8,231.9 730.4,233.0 729.8,234.0 728.0,235.1 724.3,236.2 719.0,237.2 712.9,238.3 707.7,239.3 705.1,240.4 705.9,241.5 709.9,242.5 715.9,243.6 722.6,244.6 728.8,245.7 733.9,246.8 737.5,247.8 739.7,248.9 740.9,249.9 741.5,251.0 741.9,252.1 742.1,253.1 742.4,254.2 742.6,255.2 742.8,256.3 742.9,257.4 742.9,258.4 742.8,259.5 742.8,260.5 742.9,261.6 743.0,262.7 743.1,263.7 743.2,264.8 743.3,265.8 743.3,266.9 743.3,268.0" fill="#2a8" opacity="0.5" stroke="#2a8" stroke-width="1"/>
<line x1="705.4" y1="240.14739234902981" x2="781.3" y2="240.14739234902981" stroke="#114" stroke-width="2"/>
<circle cx="743.3333333333334" cy="242.78903089510152" r="2.4" fill="#114"/>
<text x="743.3333333333334" y="194.1739515584623" text-anchor="middle" font-size="11">1.08</text>
<text x="743.3333333333334" y="376" text-anchor="middle" font-size="12">gbmvN</text>
<polygon points="834.7,190.9 835.0,189.9 835.3,189.0 836.0,188.1 836.9,187.2 838.4,186.2 840.4,185.3 843.2,184.4 846.7,183.5 850.9,182.5 855.6,181.6 860.5,180.7 865.0,179.8 868.9,178.8 871.5,177.9 872.7,177.0 872.4,176.1 870.7,175.1 867.9,174.2 864.4,173.3 860.6,172.4 856.9,171.5 853.5,170.5 850.5,169.6 848.0,168.7 846.0,167.8 844.4,166.8 843.2,165.9 842.2,165.0 841.5,164.1 841.0,163.1 840.8,162.2 840.8,161.3 841.0,160.4 841.2,159.4 841.4,158.5 841.5,157.6 841.4,156.7 841.1,155.7 840.6,154.8 840.0,153.9 839.2,153.0 838.4,152.0 837.7,151.1 837.0,150.2 836.4,149.3 836.0,148.3 835.7,147.4 835.5,146.5 835.5,145.6 835.4,144.7 835.4,143.7 835.4,142.8 835.4,141.9 835.3,141.0 835.3,140.0 835.2,139.1 835.2,138.2 835.2,137.3 835.2,136.3 835.3,135.4 835.3,134.5 835.3,133.6 835.3,132.6 835.3,131.7 835.2,130.8 835.1,129.9 835.0,128.9 834.8,128.0 834.7,127.1 834.6,126.2 834.6,125.2 834.3,125.2 834.2,126.2 834.2,127.1 834.0,128.0 833.9,128.9 833.8,129.9 833.7,130.8 833.6,131.7 833.6,132.6 833.6,133.6 833.6,134.5 833.6,135.4 833.7,136.3 833.7,137.3 833.7,138.2 833.7,139.1 833.6,140.0 833.6,141.0 833.5,141.9 833.5,142.8 833.5,143.7 833.5,144.7 833.4,145.6 833.3,146.5 833.2,147.4 832.9,148.3 832.4,149.3 831.9,150.2 831.2,151.1 830.5,152.0 829.7,153.0 828.9,153.9 828.3,154.8 827.8,155.7 827.5,156.7 827.4,157.6 827.5,158.5 827.7,159.4 827.9,160.4 828.0,161.3 828.0,162.2 827.8,163.1 827.4,164.1 826.7,165.0 825.7,165.9 824.5,166.8 822.9,167.8 820.9,168.7 818.4,169.6 815.4,170.5 812.0,171.5 808.3,172.4 804.5,173.3 801.0,174.2 798.2,175.1 796.5,176.1 796.2,177.0 797.4,177.9 800.0,178.8 803.8,179.8 808.4,180.7 813.3,181.6 818.0,182.5 822.2,183.5 825.7,184.4 828.4,185.3 830.5,186.2 831.9,187.2 832.9,188.1 833.5,189.0 833.9,189.9 834.2,190.9" fill="#2a8" opacity="0.5" stroke="#2a8" stroke-width="1"/>
<line x1="796.8" y1="175.8656205780609" x2="872.1" y2="175.8656205780609" stroke="#114" stroke-width="2"/>
<circle cx="834.4444444444445" cy="178.52570111434545" r="2.4" fill="#114"/>
<text x="834.4444444444445" y="125.77376546763293" text-anchor="middle" font-size="11">1.67</text>
<text x="834.4444444444445" y="376" text-anchor="middle" font-size="12">sbmv</text>
<text x="450.0" y="428" text-anchor="middle" font-size="11" fill="#666">violin = ratio distribution over sizes · line = median · dark dot = worst size · green = every size ≥ gate</text>
</svg>
