<svg xmlns="http://www.w3.org/2000/svg" width="900" height="440" font-family="sans-serif">
<rect width="900" height="440" fill="white"/>
<text x="450.0" y="28" text-anchor="middle" font-size="18" font-weight="bold">BLAS-1: PureBLAS / OpenBLAS (AVX2, 1 thread, Float64)</text>
<line x1="60" y1="358.0" x2="880" y2="358.0" stroke="#eee"/>
<text x="52" y="362.0" text-anchor="end" font-size="11" fill="#666">0×</text>
<line x1="60" y1="343.4209187788111" x2="880" y2="343.4209187788111" stroke="#eee"/>
<text x="52" y="347.4209187788111" text-anchor="end" font-size="11" fill="#666">0.5×</text>
<line x1="60" y1="328.84183755762217" x2="880" y2="328.84183755762217" stroke="#eee"/>
<text x="52" y="332.84183755762217" text-anchor="end" font-size="11" fill="#666">1×</text>
<line x1="60" y1="314.2627563364333" x2="880" y2="314.2627563364333" stroke="#eee"/>
<text x="52" y="318.2627563364333" text-anchor="end" font-size="11" fill="#666">1.5×</text>
<line x1="60" y1="328.84183755762217" x2="880" y2="328.84183755762217" stroke="#888" stroke-width="1"/>
<line x1="60" y1="330.0081640553173" x2="880" y2="330.0081640553173" stroke="#d33" stroke-width="1.5" stroke-dasharray="6 4"/>
<text x="880" y="325.0081640553173" text-anchor="end" font-size="11" fill="#d33">0.96× gate</text>
<polygon points="128.3,335.4 128.4,335.1 128.4,334.7 128.5,334.3 128.6,334.0 128.8,333.6 128.9,333.3 128.9,332.9 128.9,332.5 128.8,332.2 128.9,331.8 129.3,331.4 130.6,331.1 133.8,330.7 139.7,330.3 148.9,330.0 160.6,329.6 172.6,329.2 181.7,328.9 185.7,328.5 184.4,328.1 178.8,327.8 170.7,327.4 161.8,327.0 153.2,326.7 145.7,326.3 140.0,325.9 136.0,325.6 133.4,325.2 131.7,324.8 130.6,324.5 129.9,324.1 129.5,323.8 129.5,323.4 129.6,323.0 129.8,322.7 130.0,322.3 130.2,321.9 130.2,321.6 129.9,321.2 129.6,320.8 129.1,320.5 128.8,320.1 128.6,319.7 128.4,319.4 128.4,319.0 128.3,318.6 128.3,318.3 128.3,317.9 128.3,317.5 128.3,317.2 128.4,316.8 128.4,316.4 128.5,316.1 128.6,315.7 128.7,315.3 128.9,315.0 128.9,314.6 128.9,314.3 128.9,313.9 128.8,313.5 128.8,313.2 128.8,312.8 128.9,312.4 128.9,312.1 128.9,311.7 128.8,311.3 128.6,311.0 128.5,310.6 128.4,310.2 128.4,309.9 128.3,309.5 128.3,309.5 128.3,309.9 128.3,310.2 128.2,310.6 128.1,311.0 127.9,311.3 127.8,311.7 127.7,312.1 127.8,312.4 127.8,312.8 127.9,313.2 127.9,313.5 127.8,313.9 127.7,314.3 127.7,314.6 127.8,315.0 127.9,315.3 128.1,315.7 128.2,316.1 128.3,316.4 128.3,316.8 128.3,317.2 128.3,317.5 128.3,317.9 128.3,318.3 128.3,318.6 128.3,319.0 128.2,319.4 128.1,319.7 127.9,320.1 127.5,320.5 127.1,320.8 126.7,321.2 126.5,321.6 126.5,321.9 126.6,322.3 126.9,322.7 127.1,323.0 127.2,323.4 127.1,323.8 126.8,324.1 126.1,324.5 125.0,324.8 123.3,325.2 120.7,325.6 116.7,325.9 110.9,326.3 103.5,326.7 94.9,327.0 86.0,327.4 77.9,327.8 72.3,328.1 70.9,328.5 75.0,328.9 84.1,329.2 96.0,329.6 107.7,330.0 116.9,330.3 122.9,330.7 126.0,331.1 127.4,331.4 127.8,331.8 127.8,332.2 127.8,332.5 127.7,332.9 127.8,333.3 127.9,333.6 128.1,334.0 128.2,334.3 128.3,334.7 128.3,335.1 128.3,335.4" fill="#2a8" opacity="0.5" stroke="#2a8" stroke-width="1"/>
<line x1="70.8" y1="328.43184351587985" x2="185.9" y2="328.43184351587985" stroke="#114" stroke-width="2"/>
<circle cx="128.33333333333331" cy="328.8692684460406" r="2.4" fill="#114"/>
<text x="128.33333333333331" y="306.06165806999525" text-anchor="middle" font-size="11">1.01</text>
<text x="128.33333333333331" y="376" text-anchor="middle" font-size="12">axpy</text>
<polygon points="265.0,336.2 265.0,335.9 265.1,335.6 265.2,335.3 265.3,335.0 265.4,334.7 265.6,334.4 265.6,334.1 265.6,333.8 265.5,333.5 265.3,333.2 265.2,332.9 265.1,332.6 265.0,332.3 265.0,332.0 265.1,331.7 265.2,331.4 265.7,331.1 266.9,330.9 269.6,330.6 274.9,330.3 283.4,330.0 294.7,329.7 306.9,329.4 317.1,329.1 322.4,328.8 321.9,328.5 316.9,328.2 309.6,327.9 302.2,327.6 295.5,327.3 289.4,327.0 283.8,326.7 278.7,326.4 274.4,326.1 271.1,325.8 268.9,325.5 267.6,325.2 266.8,324.9 266.4,324.6 266.2,324.3 266.0,324.0 265.8,323.7 265.7,323.4 265.7,323.1 265.8,322.8 265.9,322.5 266.0,322.2 266.0,321.9 265.9,321.6 265.8,321.3 265.7,321.0 265.6,320.7 265.7,320.4 265.8,320.1 266.0,319.8 266.2,319.5 266.2,319.2 266.1,318.9 265.9,318.6 265.7,318.3 265.6,318.0 265.6,317.7 265.6,317.4 265.6,317.1 265.6,316.8 265.4,316.6 265.3,316.3 265.2,316.0 265.1,315.7 265.0,315.4 265.0,315.1 265.0,315.1 265.0,315.4 264.9,315.7 264.8,316.0 264.7,316.3 264.6,316.6 264.4,316.8 264.4,317.1 264.4,317.4 264.4,317.7 264.4,318.0 264.3,318.3 264.1,318.6 263.9,318.9 263.8,319.2 263.8,319.5 264.0,319.8 264.2,320.1 264.3,320.4 264.4,320.7 264.3,321.0 264.2,321.3 264.1,321.6 264.0,321.9 264.0,322.2 264.1,322.5 264.2,322.8 264.3,323.1 264.3,323.4 264.2,323.7 264.0,324.0 263.8,324.3 263.6,324.6 263.2,324.9 262.4,325.2 261.1,325.5 258.9,325.8 255.6,326.1 251.3,326.4 246.2,326.7 240.6,327.0 234.5,327.3 227.8,327.6 220.4,327.9 213.1,328.2 208.1,328.5 207.6,328.8 212.9,329.1 223.1,329.4 235.3,329.7 246.6,330.0 255.1,330.3 260.4,330.6 263.1,330.9 264.3,331.1 264.8,331.4 264.9,331.7 265.0,332.0 265.0,332.3 264.9,332.6 264.8,332.9 264.7,333.2 264.5,333.5 264.4,333.8 264.4,334.1 264.4,334.4 264.6,334.7 264.7,335.0 264.8,335.3 264.9,335.6 265.0,335.9 265.0,336.2" fill="#2a8" opacity="0.5" stroke="#2a8" stroke-width="1"/>
<line x1="207.1" y1="328.64179947698517" x2="322.9" y2="328.64179947698517" stroke="#114" stroke-width="2"/>
<circle cx="265.0" cy="328.9410551441729" r="2.4" fill="#114"/>
<text x="265.0" y="311.1554160955941" text-anchor="middle" font-size="11">1.01</text>
<text x="265.0" y="376" text-anchor="middle" font-size="12">dot</text>
<polygon points="402.2,266.3 402.4,263.2 402.7,260.2 403.1,257.1 403.6,254.1 404.2,251.0 404.9,248.0 405.8,244.9 406.6,241.9 407.6,238.9 408.6,235.8 409.7,232.8 410.7,229.7 411.7,226.7 412.7,223.6 413.7,220.6 414.7,217.5 415.8,214.5 417.2,211.4 418.8,208.4 420.7,205.3 422.8,202.3 425.1,199.3 427.4,196.2 429.4,193.2 431.0,190.1 431.9,187.1 431.9,184.0 431.2,181.0 429.7,177.9 427.6,174.9 425.3,171.8 423.0,168.8 421.2,165.7 420.2,162.7 420.4,159.7 421.9,156.6 425.0,153.6 429.4,150.5 434.9,147.5 441.0,144.4 447.2,141.4 452.7,138.3 456.9,135.3 459.1,132.2 459.0,129.2 456.6,126.2 452.1,123.1 446.0,120.1 439.0,117.0 431.7,114.0 424.8,110.9 418.6,107.9 413.6,104.8 409.7,101.8 406.8,98.7 404.9,95.7 403.6,92.6 402.9,89.6 402.5,86.6 402.3,83.5 402.3,80.5 402.3,77.4 402.4,74.4 402.4,71.3 402.5,68.3 402.4,65.2 402.4,62.2 402.3,59.1 402.2,56.1 402.1,53.0 402.0,50.0 401.3,50.0 401.2,53.0 401.1,56.1 401.0,59.1 400.9,62.2 400.9,65.2 400.9,68.3 400.9,71.3 400.9,74.4 401.0,77.4 401.0,80.5 401.0,83.5 400.8,86.6 400.4,89.6 399.7,92.6 398.5,95.7 396.5,98.7 393.6,101.8 389.7,104.8 384.7,107.9 378.6,110.9 371.7,114.0 364.4,117.0 357.3,120.1 351.3,123.1 346.8,126.2 344.3,129.2 344.3,132.2 346.5,135.3 350.6,138.3 356.1,141.4 362.3,144.4 368.4,147.5 374.0,150.5 378.4,153.6 381.4,156.6 382.9,159.7 383.1,162.7 382.1,165.7 380.3,168.8 378.0,171.8 375.7,174.9 373.6,177.9 372.1,181.0 371.4,184.0 371.5,187.1 372.4,190.1 373.9,193.2 375.9,196.2 378.2,199.3 380.5,202.3 382.7,205.3 384.6,208.4 386.2,211.4 387.5,214.5 388.7,217.5 389.7,220.6 390.6,223.6 391.6,226.7 392.6,229.7 393.7,232.8 394.7,235.8 395.7,238.9 396.7,241.9 397.6,244.9 398.4,248.0 399.1,251.0 399.7,254.1 400.2,257.1 400.6,260.2 400.9,263.2 401.2,266.3" fill="#2a8" opacity="0.5" stroke="#2a8" stroke-width="1"/>
<line x1="353.2" y1="139.8675280146783" x2="450.1" y2="139.8675280146783" stroke="#114" stroke-width="2"/>
<circle cx="401.66666666666663" cy="191.02589426647535" r="2.4" fill="#114"/>
<text x="401.66666666666663" y="61.43396226415098" text-anchor="middle" font-size="11">7.48</text>
<text x="401.66666666666663" y="376" text-anchor="middle" font-size="12">nrm2</text>
<polygon points="543.4,324.0 545.0,323.7 546.9,323.3 549.1,322.9 551.7,322.6 554.7,322.2 558.0,321.9 561.5,321.5 565.2,321.2 569.0,320.8 572.7,320.5 576.3,320.1 579.5,319.7 582.4,319.4 584.8,319.0 586.6,318.7 588.0,318.3 588.8,318.0 589.2,317.6 589.3,317.2 589.3,316.9 589.2,316.5 589.2,316.2 589.4,315.8 589.9,315.5 590.7,315.1 591.6,314.8 592.7,314.4 593.8,314.0 594.8,313.7 595.5,313.3 595.7,313.0 595.4,312.6 594.5,312.3 592.9,311.9 590.7,311.5 588.0,311.2 584.9,310.8 581.5,310.5 578.1,310.1 574.7,309.8 571.5,309.4 568.6,309.1 566.2,308.7 564.3,308.3 563.1,308.0 562.4,307.6 562.4,307.3 563.0,306.9 564.2,306.6 565.9,306.2 568.1,305.8 570.5,305.5 573.1,305.1 575.8,304.8 578.3,304.4 580.4,304.1 582.1,303.7 583.3,303.3 583.7,303.0 583.3,302.6 582.2,302.3 580.4,301.9 577.9,301.6 574.9,301.2 571.4,300.9 567.8,300.5 564.0,300.1 560.3,299.8 556.8,299.4 553.6,299.1 550.6,298.7 526.0,298.7 523.1,299.1 519.8,299.4 516.3,299.8 512.6,300.1 508.9,300.5 505.2,300.9 501.8,301.2 498.8,301.6 496.3,301.9 494.4,302.3 493.3,302.6 493.0,303.0 493.4,303.3 494.5,303.7 496.2,304.1 498.4,304.4 500.9,304.8 503.5,305.1 506.2,305.5 508.6,305.8 510.7,306.2 512.4,306.6 513.6,306.9 514.3,307.3 514.2,307.6 513.6,308.0 512.3,308.3 510.5,308.7 508.1,309.1 505.2,309.4 502.0,309.8 498.6,310.1 495.1,310.5 491.7,310.8 488.6,311.2 485.9,311.5 483.7,311.9 482.2,312.3 481.2,312.6 480.9,313.0 481.2,313.3 481.8,313.7 482.8,314.0 483.9,314.4 485.0,314.8 486.0,315.1 486.7,315.5 487.2,315.8 487.4,316.2 487.5,316.5 487.4,316.9 487.3,317.2 487.5,317.6 487.9,318.0 488.7,318.3 490.0,318.7 491.9,319.0 494.3,319.4 497.1,319.7 500.4,320.1 504.0,320.5 507.7,320.8 511.5,321.2 515.2,321.5 518.7,321.9 522.0,322.2 524.9,322.6 527.5,322.9 529.8,323.3 531.7,323.7 533.2,324.0" fill="#2a8" opacity="0.5" stroke="#2a8" stroke-width="1"/>
<line x1="481.5" y1="312.4876168404688" x2="595.2" y2="312.4876168404688" stroke="#114" stroke-width="2"/>
<circle cx="538.3333333333333" cy="318.42102518976657" r="2.4" fill="#114"/>
<text x="538.3333333333333" y="295.2118761042423" text-anchor="middle" font-size="11">1.56</text>
<text x="538.3333333333333" y="376" text-anchor="middle" font-size="12">asum</text>
<polygon points="677.4,330.2 679.0,330.0 681.2,329.9 684.2,329.8 688.2,329.6 693.1,329.5 698.9,329.3 705.2,329.2 711.8,329.1 718.2,328.9 723.8,328.8 728.3,328.7 731.2,328.5 732.4,328.4 731.8,328.3 729.6,328.1 726.0,328.0 721.4,327.8 716.3,327.7 711.1,327.6 705.9,327.4 701.2,327.3 696.9,327.2 693.2,327.0 690.1,326.9 687.4,326.7 685.2,326.6 683.4,326.5 681.8,326.3 680.5,326.2 679.5,326.1 678.7,325.9 678.1,325.8 677.6,325.6 677.3,325.5 677.1,325.4 676.9,325.2 676.8,325.1 676.8,325.0 676.8,324.8 676.8,324.7 676.8,324.6 676.9,324.4 676.9,324.3 676.9,324.1 676.9,324.0 676.9,323.9 676.8,323.7 676.7,323.6 676.5,323.5 676.4,323.3 676.3,323.2 676.3,323.0 676.3,322.9 676.3,322.8 676.4,322.6 676.6,322.5 676.8,322.4 677.1,322.2 677.3,322.1 677.5,321.9 677.6,321.8 677.6,321.7 677.5,321.5 677.3,321.4 677.1,321.3 676.8,321.1 676.4,321.0 676.1,320.9 675.8,320.7 675.6,320.6 675.4,320.4 674.6,320.4 674.4,320.6 674.2,320.7 673.9,320.9 673.6,321.0 673.2,321.1 672.9,321.3 672.7,321.4 672.5,321.5 672.4,321.7 672.4,321.8 672.5,321.9 672.7,322.1 672.9,322.2 673.2,322.4 673.4,322.5 673.6,322.6 673.7,322.8 673.7,322.9 673.7,323.0 673.7,323.2 673.6,323.3 673.5,323.5 673.3,323.6 673.2,323.7 673.1,323.9 673.1,324.0 673.1,324.1 673.1,324.3 673.1,324.4 673.2,324.6 673.2,324.7 673.2,324.8 673.2,325.0 673.2,325.1 673.1,325.2 672.9,325.4 672.7,325.5 672.4,325.6 671.9,325.8 671.3,325.9 670.5,326.1 669.5,326.2 668.2,326.3 666.6,326.5 664.8,326.6 662.6,326.7 659.9,326.9 656.8,327.0 653.1,327.2 648.8,327.3 644.1,327.4 638.9,327.6 633.7,327.7 628.6,327.8 624.0,328.0 620.4,328.1 618.2,328.3 617.6,328.4 618.8,328.5 621.7,328.7 626.2,328.8 631.8,328.9 638.2,329.1 644.8,329.2 651.1,329.3 656.9,329.5 661.8,329.6 665.8,329.8 668.8,329.9 671.0,330.0 672.6,330.2" fill="#2a8" opacity="0.5" stroke="#2a8" stroke-width="1"/>
<line x1="618.2" y1="328.24945754167663" x2="731.8" y2="328.24945754167663" stroke="#114" stroke-width="2"/>
<circle cx="675.0" cy="328.6648085061927" r="2.4" fill="#114"/>
<text x="675.0" y="315.43125146767846" text-anchor="middle" font-size="11">1.02</text>
<text x="675.0" y="376" text-anchor="middle" font-size="12">scal</text>
<polygon points="815.0,346.3 816.1,345.7 817.4,345.2 819.0,344.7 820.9,344.1 823.0,343.6 825.3,343.0 827.8,342.5 830.4,342.0 833.1,341.4 835.7,340.9 838.2,340.3 840.6,339.8 842.8,339.3 844.9,338.7 846.7,338.2 848.4,337.6 850.0,337.1 851.4,336.6 852.7,336.0 854.0,335.5 855.1,334.9 856.2,334.4 857.1,333.9 857.9,333.3 858.6,332.8 859.2,332.2 859.6,331.7 860.1,331.1 860.5,330.6 860.9,330.1 861.3,329.5 861.9,329.0 862.5,328.4 863.3,327.9 864.1,327.4 865.0,326.8 865.9,326.3 866.8,325.7 867.5,325.2 868.2,324.7 868.7,324.1 869.0,323.6 869.1,323.0 868.9,322.5 868.6,322.0 868.0,321.4 867.2,320.9 866.2,320.3 864.9,319.8 863.5,319.3 861.9,318.7 860.1,318.2 858.2,317.6 856.1,317.1 854.0,316.6 851.7,316.0 849.3,315.5 846.8,314.9 844.3,314.4 841.7,313.9 839.1,313.3 836.4,312.8 833.7,312.2 831.0,311.7 828.4,311.2 825.8,310.6 823.5,310.1 821.3,309.5 819.4,309.0 817.7,308.5 816.3,307.9 807.0,307.9 805.6,308.5 803.9,309.0 802.0,309.5 799.8,310.1 797.5,310.6 795.0,311.2 792.4,311.7 789.7,312.2 787.0,312.8 784.3,313.3 781.6,313.9 779.0,314.4 776.5,314.9 774.0,315.5 771.7,316.0 769.4,316.6 767.2,317.1 765.1,317.6 763.2,318.2 761.4,318.7 759.8,319.3 758.4,319.8 757.2,320.3 756.2,320.9 755.3,321.4 754.8,322.0 754.4,322.5 754.3,323.0 754.4,323.6 754.7,324.1 755.1,324.7 755.8,325.2 756.6,325.7 757.4,326.3 758.3,326.8 759.2,327.4 760.0,327.9 760.8,328.4 761.4,329.0 762.0,329.5 762.5,330.1 762.9,330.6 763.3,331.1 763.7,331.7 764.2,332.2 764.7,332.8 765.4,333.3 766.2,333.9 767.2,334.4 768.2,334.9 769.4,335.5 770.6,336.0 771.9,336.6 773.4,337.1 774.9,337.6 776.6,338.2 778.5,338.7 780.5,339.3 782.7,339.8 785.1,340.3 787.7,340.9 790.3,341.4 792.9,342.0 795.5,342.5 798.0,343.0 800.3,343.6 802.4,344.1 804.3,344.7 805.9,345.2 807.3,345.7 808.4,346.3" fill="#d33" opacity="0.5" stroke="#d33" stroke-width="1"/>
<line x1="756.5" y1="325.7114479140083" x2="866.8" y2="325.7114479140083" stroke="#114" stroke-width="2"/>
<circle cx="811.6666666666666" cy="333.2813904078584" r="2.4" fill="#114"/>
<text x="811.6666666666666" y="305.674814294974" text-anchor="middle" font-size="11">1.11</text>
<text x="811.6666666666666" y="376" text-anchor="middle" font-size="12">iamax</text>
<text x="450.0" y="428" text-anchor="middle" font-size="11" fill="#666">violin = ratio distribution over sizes · line = median · dark dot = worst size · green = every size ≥ gate</text>
</svg>
