<svg xmlns="http://www.w3.org/2000/svg" width="900" height="440" font-family="sans-serif">
<rect width="900" height="440" fill="white"/>
<text x="450.0" y="28" text-anchor="middle" font-size="18" font-weight="bold">BLAS-1: PureBLAS / OpenBLAS (AVX2, 1 thread, Float64)</text>
<line x1="60" y1="358.0" x2="880" y2="358.0" stroke="#eee"/>
<text x="52" y="362.0" text-anchor="end" font-size="11" fill="#666">0×</text>
<line x1="60" y1="339.86886258782835" x2="880" y2="339.86886258782835" stroke="#eee"/>
<text x="52" y="343.86886258782835" text-anchor="end" font-size="11" fill="#666">0.5×</text>
<line x1="60" y1="321.7377251756567" x2="880" y2="321.7377251756567" stroke="#eee"/>
<text x="52" y="325.7377251756567" text-anchor="end" font-size="11" fill="#666">1×</text>
<line x1="60" y1="303.6065877634851" x2="880" y2="303.6065877634851" stroke="#eee"/>
<text x="52" y="307.6065877634851" text-anchor="end" font-size="11" fill="#666">1.5×</text>
<line x1="60" y1="321.7377251756567" x2="880" y2="321.7377251756567" stroke="#888" stroke-width="1"/>
<line x1="60" y1="323.18821616863045" x2="880" y2="323.18821616863045" stroke="#d33" stroke-width="1.5" stroke-dasharray="6 4"/>
<text x="880" y="318.18821616863045" text-anchor="end" font-size="11" fill="#d33">0.96× gate</text>
<polygon points="128.6,324.8 128.9,324.5 129.7,324.2 131.3,323.9 134.3,323.6 139.1,323.3 146.1,323.0 155.1,322.6 165.2,322.3 174.8,322.0 182.1,321.7 185.7,321.4 185.4,321.1 181.6,320.8 175.5,320.5 168.4,320.2 161.2,319.9 154.5,319.6 148.6,319.3 143.5,319.0 139.5,318.6 136.3,318.3 134.0,318.0 132.3,317.7 131.0,317.4 130.2,317.1 129.7,316.8 129.4,316.5 129.4,316.2 129.5,315.9 129.6,315.6 129.8,315.3 129.8,315.0 129.8,314.7 129.7,314.3 129.6,314.0 129.6,313.7 129.6,313.4 129.7,313.1 129.9,312.8 130.2,312.5 130.3,312.2 130.4,311.9 130.3,311.6 130.1,311.3 129.8,311.0 129.5,310.7 129.2,310.3 128.9,310.0 128.7,309.7 128.5,309.4 128.4,309.1 128.4,308.8 128.4,308.5 128.3,308.2 128.3,307.9 128.4,307.6 128.4,307.3 128.4,307.0 128.5,306.7 128.6,306.3 128.7,306.0 128.8,305.7 128.9,305.4 128.9,305.1 128.9,304.8 128.8,304.5 128.7,304.2 128.6,303.9 128.5,303.6 128.4,303.3 128.4,303.0 128.3,303.0 128.3,303.3 128.2,303.6 128.1,303.9 128.0,304.2 127.9,304.5 127.8,304.8 127.7,305.1 127.8,305.4 127.9,305.7 128.0,306.0 128.1,306.3 128.2,306.7 128.2,307.0 128.3,307.3 128.3,307.6 128.3,307.9 128.3,308.2 128.3,308.5 128.3,308.8 128.2,309.1 128.1,309.4 128.0,309.7 127.8,310.0 127.5,310.3 127.2,310.7 126.8,311.0 126.5,311.3 126.3,311.6 126.3,311.9 126.3,312.2 126.5,312.5 126.7,312.8 126.9,313.1 127.1,313.4 127.1,313.7 127.1,314.0 127.0,314.3 126.9,314.7 126.9,315.0 126.9,315.3 127.0,315.6 127.2,315.9 127.3,316.2 127.3,316.5 127.0,316.8 126.5,317.1 125.6,317.4 124.4,317.7 122.7,318.0 120.3,318.3 117.2,318.6 113.1,319.0 108.1,319.3 102.1,319.6 95.4,319.9 88.3,320.2 81.2,320.5 75.1,320.8 71.3,321.1 70.9,321.4 74.6,321.7 81.9,322.0 91.5,322.3 101.6,322.6 110.6,323.0 117.6,323.3 122.4,323.6 125.3,323.9 126.9,324.2 127.7,324.5 128.1,324.8" fill="#2a8" opacity="0.5" stroke="#2a8" stroke-width="1"/>
<line x1="70.6" y1="321.32350730344143" x2="186.0" y2="321.32350730344143" stroke="#114" stroke-width="2"/>
<circle cx="128.33333333333331" cy="321.64066523955324" r="2.4" fill="#114"/>
<text x="128.33333333333331" y="299.1324322524938" text-anchor="middle" font-size="11">1.01</text>
<text x="128.33333333333331" y="376" text-anchor="middle" font-size="12">axpy</text>
<polygon points="265.0,330.6 265.0,330.3 265.1,330.0 265.1,329.7 265.2,329.4 265.4,329.1 265.5,328.8 265.5,328.5 265.5,328.3 265.4,328.0 265.3,327.7 265.1,327.4 265.1,327.1 265.0,326.8 265.0,326.5 265.0,326.2 265.0,325.9 265.0,325.6 265.0,325.3 265.0,325.0 265.0,324.7 265.1,324.4 265.3,324.1 266.1,323.8 267.9,323.5 271.8,323.2 278.9,323.0 289.5,322.7 302.4,322.4 314.5,322.1 322.0,321.8 322.4,321.5 315.8,321.2 305.1,320.9 293.6,320.6 284.1,320.3 277.3,320.0 272.8,319.7 270.1,319.4 268.3,319.1 267.1,318.8 266.3,318.5 265.8,318.2 265.5,318.0 265.3,317.7 265.3,317.4 265.4,317.1 265.5,316.8 265.5,316.5 265.6,316.2 265.5,315.9 265.6,315.6 265.7,315.3 265.9,315.0 266.2,314.7 266.4,314.4 266.4,314.1 266.3,313.8 266.1,313.5 265.9,313.2 265.8,312.9 265.8,312.7 265.9,312.4 266.0,312.1 266.0,311.8 265.9,311.5 265.7,311.2 265.4,310.9 265.2,310.6 265.1,310.3 265.0,310.0 265.0,309.7 265.0,309.7 265.0,310.0 264.9,310.3 264.8,310.6 264.6,310.9 264.3,311.2 264.1,311.5 264.0,311.8 264.0,312.1 264.1,312.4 264.2,312.7 264.2,312.9 264.1,313.2 263.9,313.5 263.7,313.8 263.6,314.1 263.6,314.4 263.8,314.7 264.1,315.0 264.3,315.3 264.4,315.6 264.5,315.9 264.4,316.2 264.5,316.5 264.5,316.8 264.6,317.1 264.7,317.4 264.7,317.7 264.5,318.0 264.2,318.2 263.7,318.5 262.9,318.8 261.7,319.1 259.9,319.4 257.2,319.7 252.7,320.0 245.9,320.3 236.4,320.6 224.9,320.9 214.2,321.2 207.6,321.5 208.0,321.8 215.5,322.1 227.6,322.4 240.5,322.7 251.1,323.0 258.2,323.2 262.1,323.5 263.9,323.8 264.7,324.1 264.9,324.4 265.0,324.7 265.0,325.0 265.0,325.3 265.0,325.6 265.0,325.9 265.0,326.2 265.0,326.5 265.0,326.8 264.9,327.1 264.9,327.4 264.7,327.7 264.6,328.0 264.5,328.3 264.5,328.5 264.5,328.8 264.6,329.1 264.8,329.4 264.9,329.7 264.9,330.0 265.0,330.3 265.0,330.6" fill="#2a8" opacity="0.5" stroke="#2a8" stroke-width="1"/>
<line x1="206.8" y1="321.628419076334" x2="323.2" y2="321.628419076334" stroke="#114" stroke-width="2"/>
<circle cx="265.0" cy="321.92476158419925" r="2.4" fill="#114"/>
<text x="265.0" y="305.78990439404583" text-anchor="middle" font-size="11">1.00</text>
<text x="265.0" y="376" text-anchor="middle" font-size="12">dot</text>
<polygon points="401.9,307.1 402.0,303.5 402.1,299.8 402.2,296.2 402.3,292.6 402.4,289.0 402.4,285.3 402.4,281.7 402.4,278.1 402.4,274.5 402.3,270.9 402.2,267.2 402.1,263.6 402.0,260.0 401.9,256.4 401.9,252.8 401.8,249.1 401.8,245.5 401.8,241.9 401.9,238.3 402.0,234.7 402.1,231.0 402.4,227.4 402.7,223.8 403.2,220.2 403.7,216.6 404.4,212.9 405.3,209.3 406.3,205.7 407.4,202.1 408.7,198.4 410.2,194.8 411.8,191.2 413.6,187.6 415.4,184.0 417.4,180.3 419.5,176.7 421.6,173.1 423.6,169.5 425.6,165.9 427.5,162.2 429.1,158.6 430.3,155.0 431.2,151.4 431.5,147.8 431.2,144.1 430.4,140.5 429.1,136.9 427.2,133.3 425.1,129.7 423.0,126.0 421.1,122.4 419.7,118.8 419.1,115.2 419.5,111.6 421.3,107.9 424.3,104.3 428.7,100.7 434.0,97.1 439.9,93.4 445.9,89.8 451.4,86.2 455.8,82.6 458.4,79.0 459.1,75.3 457.5,71.7 453.9,68.1 448.6,64.5 442.2,60.9 435.2,57.2 428.3,53.6 422.0,50.0 381.4,50.0 375.0,53.6 368.1,57.2 361.1,60.9 354.7,64.5 349.4,68.1 345.8,71.7 344.3,75.3 344.9,79.0 347.6,82.6 351.9,86.2 357.4,89.8 363.4,93.4 369.4,97.1 374.7,100.7 379.0,104.3 382.0,107.9 383.8,111.6 384.3,115.2 383.7,118.8 382.3,122.4 380.3,126.0 378.2,129.7 376.1,133.3 374.3,136.9 372.9,140.5 372.1,144.1 371.8,147.8 372.2,151.4 373.0,155.0 374.3,158.6 375.8,162.2 377.7,165.9 379.7,169.5 381.8,173.1 383.9,176.7 385.9,180.3 387.9,184.0 389.8,187.6 391.5,191.2 393.1,194.8 394.6,198.4 395.9,202.1 397.1,205.7 398.1,209.3 398.9,212.9 399.6,216.6 400.2,220.2 400.6,223.8 401.0,227.4 401.2,231.0 401.4,234.7 401.5,238.3 401.5,241.9 401.5,245.5 401.5,249.1 401.5,252.8 401.4,256.4 401.3,260.0 401.2,263.6 401.1,267.2 401.0,270.9 401.0,274.5 400.9,278.1 400.9,281.7 400.9,285.3 401.0,289.0 401.0,292.6 401.1,296.2 401.2,299.8 401.3,303.5 401.4,307.1" fill="#2a8" opacity="0.5" stroke="#2a8" stroke-width="1"/>
<line x1="354.3" y1="87.88420573565784" x2="449.0" y2="87.88420573565784" stroke="#114" stroke-width="2"/>
<circle cx="401.66666666666663" cy="164.50249107393861" r="2.4" fill="#114"/>
<text x="401.66666666666663" y="61.433962264150935" text-anchor="middle" font-size="11">7.45</text>
<text x="401.66666666666663" y="376" text-anchor="middle" font-size="12">nrm2</text>
<polygon points="546.7,318.3 549.0,317.8 551.6,317.3 554.6,316.8 558.0,316.3 561.7,315.9 565.7,315.4 569.9,314.9 574.2,314.4 578.4,314.0 582.4,313.5 586.2,313.0 589.4,312.5 592.0,312.1 594.0,311.6 595.2,311.1 595.7,310.6 595.5,310.1 594.7,309.7 593.3,309.2 591.5,308.7 589.5,308.2 587.5,307.8 585.6,307.3 583.9,306.8 582.5,306.3 581.5,305.8 581.0,305.4 580.8,304.9 580.9,304.4 581.3,303.9 581.7,303.5 582.0,303.0 582.1,302.5 581.9,302.0 581.3,301.6 580.2,301.1 578.6,300.6 576.6,300.1 574.2,299.6 571.6,299.2 568.8,298.7 566.1,298.2 563.5,297.7 561.2,297.3 559.3,296.8 557.9,296.3 557.1,295.8 556.9,295.3 557.4,294.9 558.4,294.4 560.0,293.9 562.1,293.4 564.4,293.0 567.0,292.5 569.6,292.0 572.1,291.5 574.3,291.1 576.1,290.6 577.4,290.1 578.0,289.6 578.0,289.1 577.3,288.7 575.9,288.2 574.0,287.7 571.6,287.2 568.8,286.8 565.7,286.3 562.6,285.8 559.4,285.3 556.3,284.8 553.4,284.4 523.3,284.4 520.4,284.8 517.3,285.3 514.1,285.8 510.9,286.3 507.9,286.8 505.1,287.2 502.7,287.7 500.7,288.2 499.4,288.7 498.7,289.1 498.7,289.6 499.3,290.1 500.6,290.6 502.4,291.1 504.6,291.5 507.1,292.0 509.7,292.5 512.2,293.0 514.6,293.4 516.7,293.9 518.3,294.4 519.3,294.9 519.8,295.3 519.6,295.8 518.8,296.3 517.4,296.8 515.5,297.3 513.2,297.7 510.6,298.2 507.8,298.7 505.1,299.2 502.4,299.6 500.1,300.1 498.1,300.6 496.5,301.1 495.4,301.6 494.8,302.0 494.6,302.5 494.7,303.0 495.0,303.5 495.4,303.9 495.7,304.4 495.9,304.9 495.7,305.4 495.1,305.8 494.2,306.3 492.8,306.8 491.1,307.3 489.2,307.8 487.1,308.2 485.2,308.7 483.4,309.2 482.0,309.7 481.2,310.1 480.9,310.6 481.4,311.1 482.7,311.6 484.6,312.1 487.3,312.5 490.5,313.0 494.2,313.5 498.3,314.0 502.5,314.4 506.8,314.9 511.0,315.4 515.0,315.9 518.7,316.3 522.1,316.8 525.1,317.3 527.7,317.8 529.9,318.3" fill="#2a8" opacity="0.5" stroke="#2a8" stroke-width="1"/>
<line x1="495.0" y1="301.83902183492216" x2="581.7" y2="301.83902183492216" stroke="#114" stroke-width="2"/>
<circle cx="538.3333333333333" cy="311.4611101865442" r="2.4" fill="#114"/>
<text x="538.3333333333333" y="281.7078651029899" text-anchor="middle" font-size="11">1.55</text>
<text x="538.3333333333333" y="376" text-anchor="middle" font-size="12">asum</text>
<polygon points="675.2,323.5 675.4,323.4 675.9,323.2 676.8,323.1 678.3,323.0 680.7,322.8 684.3,322.7 689.2,322.5 695.5,322.4 703.1,322.2 711.2,322.1 719.1,321.9 725.8,321.8 730.4,321.7 732.4,321.5 731.7,321.4 728.8,321.2 724.3,321.1 719.2,320.9 714.3,320.8 709.8,320.6 706.1,320.5 702.9,320.3 699.9,320.2 697.0,320.1 694.0,319.9 691.0,319.8 687.9,319.6 685.2,319.5 682.9,319.3 681.0,319.2 679.7,319.0 678.8,318.9 678.2,318.8 677.8,318.6 677.4,318.5 677.0,318.3 676.6,318.2 676.3,318.0 675.9,317.9 675.6,317.7 675.4,317.6 675.2,317.5 675.1,317.3 675.1,317.2 675.0,317.0 675.0,316.9 675.0,316.7 675.1,316.6 675.1,316.4 675.2,316.3 675.4,316.2 675.6,316.0 675.8,315.9 676.0,315.7 676.2,315.6 676.4,315.4 676.4,315.3 676.4,315.1 676.3,315.0 676.2,314.9 676.1,314.7 676.0,314.6 676.0,314.4 675.9,314.3 675.7,314.1 675.6,314.0 675.4,313.8 675.3,313.7 675.2,313.6 675.1,313.4 675.1,313.3 674.9,313.3 674.9,313.4 674.8,313.6 674.7,313.7 674.6,313.8 674.4,314.0 674.3,314.1 674.1,314.3 674.0,314.4 674.0,314.6 673.9,314.7 673.8,314.9 673.7,315.0 673.6,315.1 673.6,315.3 673.6,315.4 673.8,315.6 674.0,315.7 674.2,315.9 674.4,316.0 674.6,316.2 674.8,316.3 674.9,316.4 674.9,316.6 675.0,316.7 675.0,316.9 675.0,317.0 674.9,317.2 674.9,317.3 674.8,317.5 674.6,317.6 674.4,317.7 674.1,317.9 673.7,318.0 673.4,318.2 673.0,318.3 672.6,318.5 672.2,318.6 671.8,318.8 671.2,318.9 670.3,319.0 669.0,319.2 667.1,319.3 664.8,319.5 662.1,319.6 659.0,319.8 656.0,319.9 653.0,320.1 650.1,320.2 647.1,320.3 643.9,320.5 640.2,320.6 635.7,320.8 630.8,320.9 625.7,321.1 621.2,321.2 618.3,321.4 617.6,321.5 619.6,321.7 624.2,321.8 630.9,321.9 638.8,322.1 646.9,322.2 654.5,322.4 660.8,322.5 665.7,322.7 669.3,322.8 671.7,323.0 673.2,323.1 674.1,323.2 674.6,323.4 674.8,323.5" fill="#2a8" opacity="0.5" stroke="#2a8" stroke-width="1"/>
<line x1="618.7" y1="321.33703735297934" x2="731.3" y2="321.33703735297934" stroke="#114" stroke-width="2"/>
<circle cx="675.0" cy="321.7833475198584" r="2.4" fill="#114"/>
<text x="675.0" y="308.3163916203637" text-anchor="middle" font-size="11">1.01</text>
<text x="675.0" y="376" text-anchor="middle" font-size="12">scal</text>
<polygon points="814.8,342.3 815.8,341.7 817.0,341.0 818.4,340.4 820.0,339.8 821.8,339.2 823.7,338.6 825.7,338.0 827.9,337.3 830.1,336.7 832.3,336.1 834.6,335.5 837.0,334.9 839.5,334.2 842.0,333.6 844.7,333.0 847.6,332.4 850.5,331.8 853.5,331.1 856.4,330.5 859.2,329.9 861.8,329.3 864.1,328.7 866.0,328.1 867.4,327.4 868.4,326.8 868.9,326.2 869.1,325.6 868.9,325.0 868.7,324.3 868.4,323.7 868.1,323.1 867.9,322.5 867.9,321.9 867.9,321.2 867.9,320.6 867.8,320.0 867.5,319.4 866.9,318.8 866.0,318.2 864.8,317.5 863.2,316.9 861.5,316.3 859.6,315.7 857.7,315.1 855.8,314.4 854.2,313.8 852.7,313.2 851.4,312.6 850.2,312.0 849.2,311.3 848.2,310.7 847.1,310.1 845.9,309.5 844.6,308.9 843.0,308.3 841.3,307.6 839.4,307.0 837.4,306.4 835.3,305.8 833.1,305.2 830.8,304.5 828.6,303.9 826.5,303.3 824.5,302.7 822.5,302.1 820.8,301.5 819.1,300.8 817.7,300.2 816.4,299.6 815.3,299.0 814.4,298.4 808.9,298.4 808.0,299.0 806.9,299.6 805.7,300.2 804.2,300.8 802.6,301.5 800.8,302.1 798.9,302.7 796.8,303.3 794.7,303.9 792.5,304.5 790.3,305.2 788.1,305.8 785.9,306.4 783.9,307.0 782.0,307.6 780.3,308.3 778.8,308.9 777.4,309.5 776.2,310.1 775.2,310.7 774.1,311.3 773.1,312.0 771.9,312.6 770.7,313.2 769.2,313.8 767.5,314.4 765.7,315.1 763.8,315.7 761.9,316.3 760.1,316.9 758.6,317.5 757.3,318.2 756.4,318.8 755.8,319.4 755.5,320.0 755.4,320.6 755.4,321.2 755.4,321.9 755.4,322.5 755.2,323.1 755.0,323.7 754.7,324.3 754.4,325.0 754.3,325.6 754.4,326.2 754.9,326.8 755.9,327.4 757.3,328.1 759.2,328.7 761.5,329.3 764.1,329.9 766.9,330.5 769.9,331.1 772.8,331.8 775.8,332.4 778.6,333.0 781.3,333.6 783.9,334.2 786.3,334.9 788.7,335.5 791.0,336.1 793.3,336.7 795.5,337.3 797.6,338.0 799.6,338.6 801.6,339.2 803.3,339.8 804.9,340.4 806.4,341.0 807.6,341.7 808.6,342.3" fill="#d33" opacity="0.5" stroke="#d33" stroke-width="1"/>
<line x1="755.4" y1="320.57832563808125" x2="867.9" y2="320.57832563808125" stroke="#114" stroke-width="2"/>
<circle cx="811.6666666666666" cy="327.31861861883925" r="2.4" fill="#114"/>
<text x="811.6666666666666" y="296.6661224363837" text-anchor="middle" font-size="11">1.03</text>
<text x="811.6666666666666" y="376" text-anchor="middle" font-size="12">iamax</text>
<text x="450.0" y="428" text-anchor="middle" font-size="11" fill="#666">violin = ratio distribution over sizes · line = median · dark dot = worst size · green = every size ≥ gate</text>
</svg>
