<svg xmlns="http://www.w3.org/2000/svg" width="900" height="460" font-family="sans-serif">
<rect width="900" height="460" fill="white"/>
<text x="450.0" y="28" text-anchor="middle" font-size="18" font-weight="bold">Complex BLAS-3: PureBLAS / OpenBLAS (AVX-512, 1 thread, ComplexF64)</text>
<line x1="62" y1="400.0" x2="768" y2="400.0" stroke="#eee"/>
<text x="54" y="404.0" text-anchor="end" font-size="11" fill="#666">0.5×</text>
<line x1="62" y1="303.7688780356323" x2="768" y2="303.7688780356323" stroke="#eee"/>
<text x="54" y="307.7688780356323" text-anchor="end" font-size="11" fill="#666">0.7×</text>
<line x1="62" y1="201.75977803835113" x2="768" y2="201.75977803835113" stroke="#eee"/>
<text x="54" y="205.75977803835113" text-anchor="end" font-size="11" fill="#666">1.0×</text>
<line x1="62" y1="85.79668205614797" x2="768" y2="85.79668205614797" stroke="#eee"/>
<text x="54" y="89.79668205614797" text-anchor="end" font-size="11" fill="#666">1.5×</text>
<line x1="62.0" y1="50" x2="62.0" y2="400" stroke="#f4f4f4"/>
<text x="62.0" y="418" text-anchor="middle" font-size="11" fill="#444">8</text>
<line x1="238.5" y1="50" x2="238.5" y2="400" stroke="#f4f4f4"/>
<text x="238.5" y="418" text-anchor="middle" font-size="11" fill="#444">32</text>
<line x1="415.0" y1="50" x2="415.0" y2="400" stroke="#f4f4f4"/>
<text x="415.0" y="418" text-anchor="middle" font-size="11" fill="#444">128</text>
<line x1="503.25" y1="50" x2="503.25" y2="400" stroke="#f4f4f4"/>
<text x="503.25" y="418" text-anchor="middle" font-size="11" fill="#444">256</text>
<line x1="591.5" y1="50" x2="591.5" y2="400" stroke="#f4f4f4"/>
<text x="591.5" y="418" text-anchor="middle" font-size="11" fill="#444">512</text>
<line x1="679.75" y1="50" x2="679.75" y2="400" stroke="#f4f4f4"/>
<text x="679.75" y="418" text-anchor="middle" font-size="11" fill="#444">1024</text>
<line x1="768.0" y1="50" x2="768.0" y2="400" stroke="#f4f4f4"/>
<text x="768.0" y="418" text-anchor="middle" font-size="11" fill="#444">2048</text>
<line x1="62" y1="201.75977803835113" x2="768" y2="201.75977803835113" stroke="#888"/>
<line x1="62" y1="213.4348760284709" x2="768" y2="213.4348760284709" stroke="#d33" stroke-width="1.5" stroke-dasharray="6 4"/>
<text x="66" y="208.4348760284709" font-size="11" fill="#d33">0.96× gate</text>
<polygon points="62.0,64.5 238.5,96.7 415.0,160.4 503.2,141.0 591.5,157.4 679.8,167.6 768.0,165.6 768.0,170.1 679.8,173.6 591.5,168.8 503.2,156.5 415.0,175.4 238.5,148.6 62.0,106.2" fill="#1f77b4" opacity="0.14" stroke="none"/>
<polyline points="62.0,94.2 238.5,121.7 415.0,163.1 503.2,149.5 591.5,163.0 679.8,170.9 768.0,167.3" fill="none" stroke="#1f77b4" stroke-width="2"/>
<circle cx="62.0" cy="94.2" r="3" fill="#1f77b4"/>
<circle cx="238.5" cy="121.7" r="3" fill="#1f77b4"/>
<circle cx="415.0" cy="163.1" r="3" fill="#1f77b4"/>
<circle cx="503.2" cy="149.5" r="3" fill="#1f77b4"/>
<circle cx="591.5" cy="163.0" r="3" fill="#1f77b4"/>
<circle cx="679.8" cy="170.9" r="3" fill="#1f77b4"/>
<circle cx="768.0" cy="167.3" r="3" fill="#1f77b4"/>
<line x1="782" y1="56" x2="802" y2="56" stroke="#1f77b4" stroke-width="3"/>
<text x="806" y="60" font-size="12">zgemm</text>
<polygon points="62.0,234.2 238.5,170.2 415.0,163.3 503.2,145.7 591.5,162.8 679.8,176.9 768.0,170.0 768.0,174.6 679.8,181.8 591.5,178.9 503.2,161.7 415.0,179.1 238.5,188.8 62.0,246.2" fill="#d62728" opacity="0.14" stroke="none"/>
<polyline points="62.0,241.7 238.5,183.9 415.0,167.3 503.2,151.1 591.5,172.5 679.8,180.6 768.0,173.3" fill="none" stroke="#d62728" stroke-width="2"/>
<circle cx="62.0" cy="241.7" r="3" fill="#d62728"/>
<circle cx="238.5" cy="183.9" r="3" fill="#d62728"/>
<circle cx="415.0" cy="167.3" r="3" fill="#d62728"/>
<circle cx="503.2" cy="151.1" r="3" fill="#d62728"/>
<circle cx="591.5" cy="172.5" r="3" fill="#d62728"/>
<circle cx="679.8" cy="180.6" r="3" fill="#d62728"/>
<circle cx="768.0" cy="173.3" r="3" fill="#d62728"/>
<line x1="782" y1="74" x2="802" y2="74" stroke="#d62728" stroke-width="3"/>
<text x="806" y="78" font-size="12">zhemm</text>
<polygon points="62.0,140.1 238.5,243.5 415.0,170.5 503.2,157.1 591.5,145.3 679.8,145.7 768.0,164.8 768.0,169.9 679.8,162.4 591.5,163.0 503.2,167.6 415.0,195.5 238.5,259.6 62.0,153.2" fill="#2ca02c" opacity="0.14" stroke="none"/>
<polyline points="62.0,151.2 238.5,251.6 415.0,184.9 503.2,162.5 591.5,151.1 679.8,160.2 768.0,166.3" fill="none" stroke="#2ca02c" stroke-width="2"/>
<circle cx="62.0" cy="151.2" r="3" fill="#2ca02c"/>
<circle cx="238.5" cy="251.6" r="3" fill="#2ca02c"/>
<circle cx="415.0" cy="184.9" r="3" fill="#2ca02c"/>
<circle cx="503.2" cy="162.5" r="3" fill="#2ca02c"/>
<circle cx="591.5" cy="151.1" r="3" fill="#2ca02c"/>
<circle cx="679.8" cy="160.2" r="3" fill="#2ca02c"/>
<circle cx="768.0" cy="166.3" r="3" fill="#2ca02c"/>
<line x1="782" y1="92" x2="802" y2="92" stroke="#2ca02c" stroke-width="3"/>
<text x="806" y="96" font-size="12">zherk</text>
<polygon points="62.0,89.0 238.5,168.6 415.0,138.5 503.2,165.5 591.5,159.3 679.8,171.7 768.0,177.5 768.0,181.2 679.8,181.9 591.5,190.0 503.2,175.3 415.0,178.6 238.5,201.2 62.0,173.5" fill="#9467bd" opacity="0.14" stroke="none"/>
<polyline points="62.0,115.3 238.5,188.4 415.0,158.8 503.2,170.5 591.5,178.9 679.8,179.3 768.0,180.0" fill="none" stroke="#9467bd" stroke-width="2"/>
<circle cx="62.0" cy="115.3" r="3" fill="#9467bd"/>
<circle cx="238.5" cy="188.4" r="3" fill="#9467bd"/>
<circle cx="415.0" cy="158.8" r="3" fill="#9467bd"/>
<circle cx="503.2" cy="170.5" r="3" fill="#9467bd"/>
<circle cx="591.5" cy="178.9" r="3" fill="#9467bd"/>
<circle cx="679.8" cy="179.3" r="3" fill="#9467bd"/>
<circle cx="768.0" cy="180.0" r="3" fill="#9467bd"/>
<line x1="782" y1="110" x2="802" y2="110" stroke="#9467bd" stroke-width="3"/>
<text x="806" y="114" font-size="12">ztrmm</text>
<polygon points="62.0,319.7 238.5,260.8 415.0,182.6 503.2,117.7 591.5,147.2 679.8,152.4 768.0,167.9 768.0,174.6 679.8,161.9 591.5,165.3 503.2,167.2 415.0,210.5 238.5,287.1 62.0,346.2" fill="#ff7f0e" opacity="0.14" stroke="none"/>
<polyline points="62.0,327.6 238.5,272.4 415.0,200.5 503.2,158.5 591.5,158.0 679.8,157.5 768.0,170.4" fill="none" stroke="#ff7f0e" stroke-width="2"/>
<circle cx="62.0" cy="327.6" r="3" fill="#ff7f0e"/>
<circle cx="238.5" cy="272.4" r="3" fill="#ff7f0e"/>
<circle cx="415.0" cy="200.5" r="3" fill="#ff7f0e"/>
<circle cx="503.2" cy="158.5" r="3" fill="#ff7f0e"/>
<circle cx="591.5" cy="158.0" r="3" fill="#ff7f0e"/>
<circle cx="679.8" cy="157.5" r="3" fill="#ff7f0e"/>
<circle cx="768.0" cy="170.4" r="3" fill="#ff7f0e"/>
<line x1="782" y1="128" x2="802" y2="128" stroke="#ff7f0e" stroke-width="3"/>
<text x="806" y="132" font-size="12">ztrsm</text>
<text x="415.0" y="450" text-anchor="middle" font-size="11" fill="#666">matrix size n (log) · y = median ratio (log) · dashed = the 0.96× gate</text>
</svg>
