<svg xmlns="http://www.w3.org/2000/svg" width="900" height="440" font-family="sans-serif">
<rect width="900" height="440" fill="white"/>
<text x="450.0" y="28" text-anchor="middle" font-size="18" font-weight="bold">BLAS-1: PureBLAS / OpenBLAS (AVX2, 1 thread, Float64)</text>
<line x1="60" y1="358.0" x2="880" y2="358.0" stroke="#eee"/>
<text x="52" y="362.0" text-anchor="end" font-size="11" fill="#666">0×</text>
<line x1="60" y1="339.80164858822263" x2="880" y2="339.80164858822263" stroke="#eee"/>
<text x="52" y="343.80164858822263" text-anchor="end" font-size="11" fill="#666">0.5×</text>
<line x1="60" y1="321.60329717644527" x2="880" y2="321.60329717644527" stroke="#eee"/>
<text x="52" y="325.60329717644527" text-anchor="end" font-size="11" fill="#666">1×</text>
<line x1="60" y1="303.4049457646679" x2="880" y2="303.4049457646679" stroke="#eee"/>
<text x="52" y="307.4049457646679" text-anchor="end" font-size="11" fill="#666">1.5×</text>
<line x1="60" y1="321.60329717644527" x2="880" y2="321.60329717644527" stroke="#888" stroke-width="1"/>
<line x1="60" y1="323.05916528938747" x2="880" y2="323.05916528938747" stroke="#d33" stroke-width="1.5" stroke-dasharray="6 4"/>
<text x="880" y="318.05916528938747" text-anchor="end" font-size="11" fill="#d33">0.96× gate</text>
<polygon points="129.0,324.1 129.7,323.8 131.0,323.6 133.2,323.4 136.7,323.1 141.7,322.9 148.4,322.7 156.4,322.5 165.2,322.2 173.6,322.0 180.4,321.8 184.6,321.5 185.7,321.3 183.9,321.1 180.0,320.9 174.9,320.6 169.6,320.4 164.6,320.2 160.1,319.9 155.9,319.7 151.9,319.5 148.0,319.3 144.2,319.0 140.8,318.8 137.7,318.6 135.2,318.3 133.3,318.1 131.9,317.9 130.8,317.6 130.1,317.4 129.6,317.2 129.3,317.0 129.1,316.7 129.0,316.5 129.0,316.3 129.0,316.0 129.0,315.8 129.0,315.6 128.9,315.4 128.8,315.1 128.8,314.9 128.7,314.7 128.7,314.4 128.8,314.2 129.0,314.0 129.2,313.7 129.4,313.5 129.7,313.3 129.9,313.1 130.0,312.8 130.1,312.6 130.1,312.4 130.1,312.1 130.0,311.9 129.9,311.7 129.7,311.5 129.5,311.2 129.3,311.0 129.1,310.8 129.0,310.5 129.0,310.3 129.0,310.1 129.0,309.8 129.0,309.6 129.0,309.4 128.9,309.2 128.9,308.9 128.7,308.7 128.6,308.5 128.5,308.2 128.5,308.0 128.4,307.8 128.3,307.8 128.2,308.0 128.1,308.2 128.0,308.5 127.9,308.7 127.8,308.9 127.7,309.2 127.7,309.4 127.7,309.6 127.7,309.8 127.7,310.1 127.7,310.3 127.6,310.5 127.5,310.8 127.4,311.0 127.2,311.2 127.0,311.5 126.8,311.7 126.7,311.9 126.6,312.1 126.5,312.4 126.6,312.6 126.6,312.8 126.8,313.1 127.0,313.3 127.2,313.5 127.5,313.7 127.7,314.0 127.8,314.2 127.9,314.4 127.9,314.7 127.9,314.9 127.8,315.1 127.7,315.4 127.7,315.6 127.7,315.8 127.7,316.0 127.7,316.3 127.6,316.5 127.5,316.7 127.4,317.0 127.0,317.2 126.6,317.4 125.8,317.6 124.8,317.9 123.4,318.1 121.4,318.3 118.9,318.6 115.9,318.8 112.4,319.0 108.7,319.3 104.7,319.5 100.8,319.7 96.6,319.9 92.1,320.2 87.1,320.4 81.8,320.6 76.7,320.9 72.7,321.1 70.9,321.3 72.0,321.5 76.2,321.8 83.0,322.0 91.5,322.2 100.2,322.5 108.3,322.7 115.0,322.9 120.0,323.1 123.5,323.4 125.7,323.6 127.0,323.8 127.7,324.1" fill="#2a8" opacity="0.5" stroke="#2a8" stroke-width="1"/>
<line x1="70.9" y1="321.3106717458751" x2="185.7" y2="321.3106717458751" stroke="#114" stroke-width="2"/>
<circle cx="128.33333333333331" cy="321.5105983473646" r="2.4" fill="#114"/>
<text x="128.33333333333331" y="303.41784285455833" text-anchor="middle" font-size="11">1.01</text>
<text x="128.33333333333331" y="376" text-anchor="middle" font-size="12">axpy</text>
<polygon points="265.9,324.0 266.9,323.8 268.8,323.6 271.8,323.3 276.4,323.1 282.9,322.9 291.1,322.6 300.2,322.4 309.3,322.2 316.8,321.9 321.4,321.7 322.4,321.4 319.7,321.2 314.2,321.0 307.2,320.7 300.0,320.5 293.7,320.3 288.8,320.0 285.3,319.8 282.7,319.6 280.6,319.3 278.6,319.1 276.4,318.8 274.2,318.6 272.1,318.4 270.2,318.1 268.7,317.9 267.6,317.7 266.9,317.4 266.5,317.2 266.3,317.0 266.1,316.7 266.1,316.5 266.0,316.2 266.0,316.0 266.0,315.8 265.9,315.5 265.8,315.3 265.7,315.1 265.6,314.8 265.5,314.6 265.4,314.4 265.3,314.1 265.3,313.9 265.4,313.7 265.5,313.4 265.7,313.2 265.9,312.9 266.0,312.7 266.1,312.5 266.1,312.2 266.0,312.0 265.9,311.8 265.7,311.5 265.5,311.3 265.4,311.1 265.4,310.8 265.4,310.6 265.5,310.3 265.6,310.1 265.8,309.9 265.9,309.6 266.1,309.4 266.1,309.2 266.1,308.9 265.9,308.7 265.8,308.5 265.6,308.2 265.4,308.0 265.3,307.7 265.2,307.5 265.1,307.3 264.9,307.3 264.8,307.5 264.7,307.7 264.6,308.0 264.4,308.2 264.2,308.5 264.1,308.7 263.9,308.9 263.9,309.2 263.9,309.4 264.1,309.6 264.2,309.9 264.4,310.1 264.5,310.3 264.6,310.6 264.6,310.8 264.6,311.1 264.5,311.3 264.3,311.5 264.1,311.8 264.0,312.0 263.9,312.2 263.9,312.5 264.0,312.7 264.1,312.9 264.3,313.2 264.5,313.4 264.6,313.7 264.7,313.9 264.7,314.1 264.6,314.4 264.5,314.6 264.4,314.8 264.3,315.1 264.2,315.3 264.1,315.5 264.0,315.8 264.0,316.0 264.0,316.2 263.9,316.5 263.9,316.7 263.7,317.0 263.5,317.2 263.1,317.4 262.4,317.7 261.3,317.9 259.8,318.1 257.9,318.4 255.8,318.6 253.6,318.8 251.4,319.1 249.4,319.3 247.3,319.6 244.7,319.8 241.2,320.0 236.3,320.3 230.0,320.5 222.8,320.7 215.8,321.0 210.3,321.2 207.6,321.4 208.6,321.7 213.2,321.9 220.7,322.2 229.8,322.4 238.9,322.6 247.1,322.9 253.6,323.1 258.2,323.3 261.2,323.6 263.1,323.8 264.1,324.0" fill="#2a8" opacity="0.5" stroke="#2a8" stroke-width="1"/>
<line x1="207.6" y1="321.4541722673186" x2="322.4" y2="321.4541722673186" stroke="#114" stroke-width="2"/>
<circle cx="265.0" cy="321.73618699146306" r="2.4" fill="#114"/>
<text x="265.0" y="302.9577824041583" text-anchor="middle" font-size="11">1.00</text>
<text x="265.0" y="376" text-anchor="middle" font-size="12">dot</text>
<polygon points="403.0,215.8 403.3,213.5 403.7,211.2 404.2,208.9 404.7,206.6 405.4,204.3 406.1,201.9 406.9,199.6 407.8,197.3 408.8,195.0 409.9,192.7 411.1,190.4 412.5,188.1 414.0,185.7 415.6,183.4 417.4,181.1 419.2,178.8 421.0,176.5 422.9,174.2 424.8,171.9 426.5,169.5 428.2,167.2 429.7,164.9 430.9,162.6 431.9,160.3 432.6,158.0 432.9,155.6 433.0,153.3 432.7,151.0 432.1,148.7 431.2,146.4 430.1,144.1 428.7,141.8 427.2,139.4 425.6,137.1 424.0,134.8 422.3,132.5 420.6,130.2 419.1,127.9 417.6,125.6 416.3,123.2 415.2,120.9 414.4,118.6 414.0,116.3 413.9,114.0 414.2,111.7 415.0,109.3 416.3,107.0 418.1,104.7 420.5,102.4 423.5,100.1 426.9,97.8 430.7,95.5 434.8,93.1 439.1,90.8 443.4,88.5 447.5,86.2 451.2,83.9 454.4,81.6 456.8,79.2 458.4,76.9 459.1,74.6 458.7,72.3 457.3,70.0 455.1,67.7 451.9,65.4 448.2,63.0 443.9,60.7 439.3,58.4 434.6,56.1 429.9,53.8 425.5,51.5 377.8,51.5 373.4,53.8 368.8,56.1 364.0,58.4 359.5,60.7 355.2,63.0 351.4,65.4 348.3,67.7 346.0,70.0 344.6,72.3 344.3,74.6 344.9,76.9 346.5,79.2 349.0,81.6 352.1,83.9 355.9,86.2 360.0,88.5 364.3,90.8 368.5,93.1 372.7,95.5 376.5,97.8 379.9,100.1 382.8,102.4 385.2,104.7 387.0,107.0 388.4,109.3 389.2,111.7 389.5,114.0 389.4,116.3 388.9,118.6 388.1,120.9 387.0,123.2 385.7,125.6 384.3,127.9 382.7,130.2 381.0,132.5 379.4,134.8 377.7,137.1 376.1,139.4 374.6,141.8 373.3,144.1 372.2,146.4 371.3,148.7 370.7,151.0 370.4,153.3 370.4,155.6 370.8,158.0 371.4,160.3 372.4,162.6 373.7,164.9 375.1,167.2 376.8,169.5 378.6,171.9 380.4,174.2 382.3,176.5 384.2,178.8 386.0,181.1 387.7,183.4 389.3,185.7 390.8,188.1 392.2,190.4 393.4,192.7 394.6,195.0 395.6,197.3 396.5,199.6 397.3,201.9 398.0,204.3 398.6,206.6 399.1,208.9 399.6,211.2 400.0,213.5 400.3,215.8" fill="#2a8" opacity="0.5" stroke="#2a8" stroke-width="1"/>
<line x1="350.6" y1="82.81204897594834" x2="452.7" y2="82.81204897594834" stroke="#114" stroke-width="2"/>
<circle cx="401.66666666666663" cy="157.4643532570182" r="2.4" fill="#114"/>
<text x="401.66666666666663" y="61.43396226415098" text-anchor="middle" font-size="11">7.56</text>
<text x="401.66666666666663" y="376" text-anchor="middle" font-size="12">nrm2</text>
<polygon points="538.5,329.3 539.1,326.8 540.6,324.3 544.3,321.8 551.2,319.3 561.8,316.8 574.6,314.3 586.3,311.8 593.8,309.3 595.7,306.8 592.7,304.3 586.4,301.8 578.7,299.3 571.8,296.8 568.0,294.3 567.7,291.8 568.9,289.3 568.3,286.8 564.2,284.3 557.3,281.8 550.0,279.3 544.4,276.8 540.9,274.3 539.3,271.8 538.6,269.3 538.4,266.8 538.3,264.3 538.3,261.8 538.3,259.3 538.3,256.8 538.3,254.3 538.3,251.8 538.3,249.3 538.3,246.8 538.3,244.3 538.3,241.8 538.3,239.2 538.3,236.7 538.3,234.2 538.3,231.7 538.3,229.2 538.3,226.7 538.3,224.2 538.3,221.7 538.3,219.2 538.3,216.7 538.3,214.2 538.3,211.7 538.3,209.2 538.3,206.7 538.3,204.2 538.3,201.7 538.3,199.2 538.3,196.7 538.3,194.2 538.3,191.7 538.3,189.2 538.3,186.7 538.4,184.2 538.4,181.7 538.5,179.2 538.6,176.7 538.8,174.2 539.0,171.7 539.1,169.2 539.0,166.7 538.9,164.2 538.7,161.7 538.5,159.2 538.4,156.7 538.4,154.2 538.3,151.7 538.3,151.7 538.3,154.2 538.3,156.7 538.2,159.2 538.0,161.7 537.8,164.2 537.6,166.7 537.6,169.2 537.7,171.7 537.8,174.2 538.0,176.7 538.2,179.2 538.3,181.7 538.3,184.2 538.3,186.7 538.3,189.2 538.3,191.7 538.3,194.2 538.3,196.7 538.3,199.2 538.3,201.7 538.3,204.2 538.3,206.7 538.3,209.2 538.3,211.7 538.3,214.2 538.3,216.7 538.3,219.2 538.3,221.7 538.3,224.2 538.3,226.7 538.3,229.2 538.3,231.7 538.3,234.2 538.3,236.7 538.3,239.2 538.3,241.8 538.3,244.3 538.3,246.8 538.3,249.3 538.3,251.8 538.3,254.3 538.3,256.8 538.3,259.3 538.3,261.8 538.3,264.3 538.3,266.8 538.1,269.3 537.4,271.8 535.7,274.3 532.3,276.8 526.6,279.3 519.4,281.8 512.5,284.3 508.4,286.8 507.8,289.3 509.0,291.8 508.7,294.3 504.9,296.8 498.0,299.3 490.2,301.8 483.9,304.3 480.9,306.8 482.9,309.3 490.4,311.8 502.1,314.3 514.8,316.8 525.4,319.3 532.4,321.8 536.0,324.3 537.6,326.8 538.1,329.3" fill="#2a8" opacity="0.5" stroke="#2a8" stroke-width="1"/>
<line x1="491.2" y1="301.47008539206854" x2="585.5" y2="301.47008539206854" stroke="#114" stroke-width="2"/>
<circle cx="538.3333333333333" cy="310.62155870592574" r="2.4" fill="#114"/>
<text x="538.3333333333333" y="162.94828136881563" text-anchor="middle" font-size="11">1.55</text>
<text x="538.3333333333333" y="376" text-anchor="middle" font-size="12">asum</text>
<polygon points="675.1,323.5 675.2,323.5 675.3,323.4 675.5,323.3 675.6,323.2 675.8,323.1 676.0,323.0 676.2,322.9 676.4,322.8 676.8,322.8 677.5,322.7 678.7,322.6 680.5,322.5 683.1,322.4 686.7,322.3 691.2,322.2 696.6,322.2 702.4,322.1 708.6,322.0 714.5,321.9 720.0,321.8 724.7,321.7 728.3,321.6 730.9,321.5 732.2,321.5 732.4,321.4 731.4,321.3 729.4,321.2 726.5,321.1 722.9,321.0 719.0,320.9 715.0,320.8 711.4,320.8 708.4,320.7 706.0,320.6 704.4,320.5 703.3,320.4 702.5,320.3 701.8,320.2 700.9,320.1 699.6,320.1 698.0,320.0 696.1,319.9 693.9,319.8 691.7,319.7 689.4,319.6 687.3,319.5 685.5,319.4 683.8,319.4 682.4,319.3 681.2,319.2 680.1,319.1 679.3,319.0 678.6,318.9 678.0,318.8 677.7,318.8 677.4,318.7 677.3,318.6 677.3,318.5 677.2,318.4 677.2,318.3 677.1,318.2 677.0,318.1 676.9,318.1 676.6,318.0 676.4,317.9 676.1,317.8 675.8,317.7 675.6,317.6 675.4,317.5 675.2,317.4 675.1,317.4 674.9,317.4 674.8,317.4 674.6,317.5 674.4,317.6 674.2,317.7 673.9,317.8 673.6,317.9 673.4,318.0 673.1,318.1 673.0,318.1 672.9,318.2 672.8,318.3 672.8,318.4 672.7,318.5 672.7,318.6 672.6,318.7 672.3,318.8 672.0,318.8 671.4,318.9 670.7,319.0 669.9,319.1 668.8,319.2 667.6,319.3 666.2,319.4 664.5,319.4 662.7,319.5 660.6,319.6 658.3,319.7 656.1,319.8 653.9,319.9 652.0,320.0 650.4,320.1 649.1,320.1 648.2,320.2 647.5,320.3 646.7,320.4 645.6,320.5 644.0,320.6 641.6,320.7 638.6,320.8 635.0,320.8 631.0,320.9 627.1,321.0 623.5,321.1 620.6,321.2 618.6,321.3 617.6,321.4 617.8,321.5 619.1,321.5 621.7,321.6 625.3,321.7 630.0,321.8 635.5,321.9 641.4,322.0 647.6,322.1 653.4,322.2 658.8,322.2 663.3,322.3 666.9,322.4 669.5,322.5 671.3,322.6 672.5,322.7 673.2,322.8 673.6,322.8 673.8,322.9 674.0,323.0 674.2,323.1 674.4,323.2 674.5,323.3 674.7,323.4 674.8,323.5 674.9,323.5" fill="#2a8" opacity="0.5" stroke="#2a8" stroke-width="1"/>
<line x1="622.1" y1="321.1457911207423" x2="727.9" y2="321.1457911207423" stroke="#114" stroke-width="2"/>
<circle cx="675.0" cy="321.65993029074957" r="2.4" fill="#114"/>
<text x="675.0" y="312.0132761619798" text-anchor="middle" font-size="11">1.01</text>
<text x="675.0" y="376" text-anchor="middle" font-size="12">scal</text>
<polygon points="813.9,343.1 814.6,342.5 815.5,341.9 816.6,341.2 817.8,340.6 819.2,339.9 820.7,339.3 822.4,338.7 824.3,338.0 826.4,337.4 828.7,336.7 831.2,336.1 833.9,335.5 836.8,334.8 839.8,334.2 843.0,333.5 846.2,332.9 849.2,332.3 852.1,331.6 854.6,331.0 856.7,330.3 858.3,329.7 859.4,329.1 860.0,328.4 860.2,327.8 860.0,327.2 859.7,326.5 859.2,325.9 858.8,325.2 858.5,324.6 858.4,324.0 858.5,323.3 858.9,322.7 859.6,322.0 860.4,321.4 861.4,320.8 862.5,320.1 863.6,319.5 864.8,318.8 865.9,318.2 866.8,317.6 867.7,316.9 868.4,316.3 868.8,315.6 869.1,315.0 869.1,314.4 868.8,313.7 868.2,313.1 867.3,312.5 866.2,311.8 864.7,311.2 863.0,310.5 861.0,309.9 858.8,309.3 856.5,308.6 854.0,308.0 851.4,307.3 848.7,306.7 846.0,306.1 843.3,305.4 840.5,304.8 837.8,304.1 835.0,303.5 832.3,302.9 829.6,302.2 827.0,301.6 824.6,300.9 822.3,300.3 820.3,299.7 818.5,299.0 817.0,298.4 815.7,297.8 807.7,297.8 806.4,298.4 804.8,299.0 803.0,299.7 801.0,300.3 798.7,300.9 796.3,301.6 793.7,302.2 791.1,302.9 788.3,303.5 785.6,304.1 782.8,304.8 780.0,305.4 777.3,306.1 774.6,306.7 771.9,307.3 769.4,308.0 766.9,308.6 764.5,309.3 762.3,309.9 760.4,310.5 758.6,311.2 757.2,311.8 756.0,312.5 755.1,313.1 754.6,313.7 754.3,314.4 754.3,315.0 754.5,315.6 755.0,316.3 755.6,316.9 756.5,317.6 757.5,318.2 758.6,318.8 759.7,319.5 760.8,320.1 761.9,320.8 762.9,321.4 763.8,322.0 764.4,322.7 764.8,323.3 764.9,324.0 764.8,324.6 764.6,325.2 764.1,325.9 763.7,326.5 763.3,327.2 763.2,327.8 763.3,328.4 763.9,329.1 765.0,329.7 766.6,330.3 768.7,331.0 771.2,331.6 774.1,332.3 777.2,332.9 780.3,333.5 783.5,334.2 786.6,334.8 789.5,335.5 792.2,336.1 794.7,336.7 796.9,337.4 799.0,338.0 800.9,338.7 802.6,339.3 804.2,339.9 805.6,340.6 806.8,341.2 807.8,341.9 808.7,342.5 809.4,343.1" fill="#d33" opacity="0.5" stroke="#d33" stroke-width="1"/>
<line x1="757.7" y1="318.3726255433353" x2="865.6" y2="318.3726255433353" stroke="#114" stroke-width="2"/>
<circle cx="811.6666666666666" cy="328.4931395947763" r="2.4" fill="#114"/>
<text x="811.6666666666666" y="296.2043667131334" text-anchor="middle" font-size="11">1.09</text>
<text x="811.6666666666666" y="376" text-anchor="middle" font-size="12">iamax</text>
<text x="450.0" y="428" text-anchor="middle" font-size="11" fill="#666">violin = ratio distribution over sizes · line = median · dark dot = worst size · green = every size ≥ gate</text>
</svg>
