<svg xmlns="http://www.w3.org/2000/svg" width="900" height="440" font-family="sans-serif">
<rect width="900" height="440" fill="white"/>
<text x="450.0" y="28" text-anchor="middle" font-size="18" font-weight="bold">Complex BLAS-1: PureBLAS / OpenBLAS (AVX2, 1 thread, ComplexF64)</text>
<line x1="60" y1="358.0" x2="880" y2="358.0" stroke="#eee"/>
<text x="52" y="362.0" text-anchor="end" font-size="11" fill="#666">0×</text>
<line x1="60" y1="339.69470315611653" x2="880" y2="339.69470315611653" stroke="#eee"/>
<text x="52" y="343.69470315611653" text-anchor="end" font-size="11" fill="#666">0.5×</text>
<line x1="60" y1="321.38940631223306" x2="880" y2="321.38940631223306" stroke="#eee"/>
<text x="52" y="325.38940631223306" text-anchor="end" font-size="11" fill="#666">1×</text>
<line x1="60" y1="303.0841094683496" x2="880" y2="303.0841094683496" stroke="#eee"/>
<text x="52" y="307.0841094683496" text-anchor="end" font-size="11" fill="#666">1.5×</text>
<line x1="60" y1="321.38940631223306" x2="880" y2="321.38940631223306" stroke="#888" stroke-width="1"/>
<line x1="60" y1="322.85383005974376" x2="880" y2="322.85383005974376" stroke="#d33" stroke-width="1.5" stroke-dasharray="6 4"/>
<text x="880" y="317.85383005974376" text-anchor="end" font-size="11" fill="#d33">0.96× gate</text>
<polygon points="120.7,324.4 121.6,324.2 122.8,324.1 124.4,323.9 126.3,323.7 128.6,323.6 131.2,323.4 134.2,323.3 137.5,323.1 141.0,323.0 144.7,322.8 148.5,322.7 152.4,322.5 156.2,322.4 159.7,322.2 162.8,322.1 165.3,321.9 167.1,321.8 167.8,321.6 167.4,321.5 165.8,321.3 163.1,321.2 159.5,321.0 155.1,320.9 150.3,320.7 145.3,320.5 140.5,320.4 136.0,320.2 132.1,320.1 128.7,319.9 126.0,319.8 123.9,319.6 122.3,319.5 121.1,319.3 120.3,319.2 119.7,319.0 119.3,318.9 119.0,318.7 118.9,318.6 118.7,318.4 118.7,318.3 118.6,318.1 118.6,318.0 118.6,317.8 118.7,317.7 118.7,317.5 118.8,317.3 119.0,317.2 119.3,317.0 119.7,316.9 120.2,316.7 120.9,316.6 121.8,316.4 122.8,316.3 124.0,316.1 125.2,316.0 126.4,315.8 127.5,315.7 128.4,315.5 129.0,315.4 129.2,315.2 129.0,315.1 128.4,314.9 127.5,314.8 126.4,314.6 125.2,314.4 124.0,314.3 122.8,314.1 121.8,314.0 120.9,313.8 120.2,313.7 119.7,313.5 117.4,313.5 116.9,313.7 116.2,313.8 115.3,314.0 114.3,314.1 113.1,314.3 111.9,314.4 110.7,314.6 109.6,314.8 108.7,314.9 108.2,315.1 108.0,315.2 108.1,315.4 108.7,315.5 109.6,315.7 110.7,315.8 111.9,316.0 113.2,316.1 114.3,316.3 115.4,316.4 116.2,316.6 116.9,316.7 117.5,316.9 117.9,317.0 118.1,317.2 118.3,317.3 118.4,317.5 118.5,317.7 118.5,317.8 118.5,318.0 118.5,318.1 118.5,318.3 118.4,318.4 118.3,318.6 118.1,318.7 117.9,318.9 117.5,319.0 116.9,319.2 116.1,319.3 114.9,319.5 113.3,319.6 111.1,319.8 108.4,319.9 105.1,320.1 101.1,320.2 96.7,320.4 91.8,320.5 86.9,320.7 82.0,320.9 77.7,321.0 74.0,321.2 71.3,321.3 69.8,321.5 69.4,321.6 70.1,321.8 71.8,321.9 74.3,322.1 77.4,322.2 81.0,322.4 84.7,322.5 88.6,322.7 92.4,322.8 96.1,323.0 99.6,323.1 102.9,323.3 105.9,323.4 108.5,323.6 110.8,323.7 112.7,323.9 114.3,324.1 115.5,324.2 116.5,324.4" fill="#2a8" opacity="0.5" stroke="#2a8" stroke-width="1"/>
<line x1="70.0" y1="321.4331854232766" x2="167.2" y2="321.4331854232766" stroke="#114" stroke-width="2"/>
<circle cx="118.57142857142857" cy="322.68244117910905" r="2.4" fill="#114"/>
<text x="118.57142857142857" y="308.6409611235289" text-anchor="middle" font-size="11">1.00</text>
<text x="118.57142857142857" y="376" text-anchor="middle" font-size="12">zaxpy</text>
<polygon points="236.4,331.4 236.8,331.2 237.4,331.0 238.2,330.8 239.2,330.6 240.4,330.4 241.7,330.2 242.9,329.9 244.0,329.7 244.8,329.5 245.3,329.3 245.3,329.1 244.8,328.9 244.0,328.6 242.9,328.4 241.6,328.2 240.4,328.0 239.2,327.8 238.2,327.6 237.4,327.4 236.8,327.1 236.4,326.9 236.1,326.7 235.9,326.5 235.8,326.3 235.8,326.1 235.7,325.9 235.7,325.6 235.7,325.4 235.8,325.2 235.8,325.0 235.9,324.8 236.0,324.6 236.2,324.4 236.6,324.1 237.3,323.9 238.3,323.7 239.7,323.5 241.8,323.3 244.6,323.1 248.1,322.8 252.5,322.6 257.6,322.4 263.1,322.2 268.8,322.0 274.2,321.8 278.9,321.6 282.5,321.3 284.5,321.1 284.9,320.9 283.6,320.7 280.8,320.5 276.7,320.3 271.7,320.1 266.3,319.8 260.9,319.6 255.7,319.4 251.2,319.2 247.3,319.0 244.1,318.8 241.7,318.6 239.8,318.3 238.5,318.1 237.6,317.9 237.0,317.7 236.6,317.5 236.3,317.3 236.1,317.0 236.0,316.8 235.9,316.6 235.9,316.4 235.8,316.2 235.6,316.2 235.6,316.4 235.5,316.6 235.4,316.8 235.3,317.0 235.1,317.3 234.8,317.5 234.4,317.7 233.8,317.9 232.9,318.1 231.6,318.3 229.8,318.6 227.3,318.8 224.2,319.0 220.3,319.2 215.7,319.4 210.6,319.6 205.1,319.8 199.7,320.1 194.8,320.3 190.7,320.5 187.8,320.7 186.5,320.9 186.9,321.1 189.0,321.3 192.5,321.6 197.2,321.8 202.6,322.0 208.3,322.2 213.9,322.4 218.9,322.6 223.3,322.8 226.9,323.1 229.6,323.3 231.7,323.5 233.2,323.7 234.2,323.9 234.8,324.1 235.2,324.4 235.4,324.6 235.6,324.8 235.6,325.0 235.7,325.2 235.7,325.4 235.7,325.6 235.7,325.9 235.6,326.1 235.6,326.3 235.5,326.5 235.3,326.7 235.0,326.9 234.6,327.1 234.0,327.4 233.2,327.6 232.2,327.8 231.0,328.0 229.8,328.2 228.5,328.4 227.4,328.6 226.6,328.9 226.2,329.1 226.2,329.3 226.6,329.5 227.4,329.7 228.5,329.9 229.8,330.2 231.0,330.4 232.2,330.6 233.2,330.8 234.0,331.0 234.6,331.2 235.0,331.4" fill="#d33" opacity="0.5" stroke="#d33" stroke-width="1"/>
<line x1="187.5" y1="321.2129645819745" x2="283.9" y2="321.2129645819745" stroke="#114" stroke-width="2"/>
<circle cx="235.71428571428572" cy="329.1599460343721" r="2.4" fill="#114"/>
<text x="235.71428571428572" y="311.72526529246835" text-anchor="middle" font-size="11">1.00</text>
<text x="235.71428571428572" y="376" text-anchor="middle" font-size="12">zdotc</text>
<polygon points="354.7,324.5 355.6,324.4 356.6,324.4 357.8,324.3 359.2,324.2 360.6,324.2 361.9,324.1 363.0,324.0 363.8,323.9 364.2,323.9 364.1,323.8 363.6,323.7 362.8,323.6 361.6,323.6 360.3,323.5 359.0,323.4 357.8,323.3 356.8,323.3 356.0,323.2 355.4,323.1 355.1,323.1 355.1,323.0 355.4,322.9 356.0,322.8 357.0,322.8 358.5,322.7 360.5,322.6 363.0,322.5 366.2,322.5 369.9,322.4 374.3,322.3 379.0,322.2 383.9,322.2 388.8,322.1 393.4,322.0 397.3,322.0 400.2,321.9 401.8,321.8 402.1,321.7 400.8,321.7 398.3,321.6 394.5,321.5 389.9,321.4 384.8,321.4 379.6,321.3 374.5,321.2 369.9,321.1 365.9,321.1 362.7,321.0 360.1,320.9 358.3,320.9 357.2,320.8 356.6,320.7 356.4,320.6 356.8,320.6 357.4,320.5 358.3,320.4 359.5,320.3 360.7,320.3 361.9,320.2 363.0,320.1 363.8,320.1 364.2,320.0 364.2,319.9 363.7,319.8 362.9,319.8 361.7,319.7 360.4,319.6 359.0,319.5 357.6,319.5 356.4,319.4 355.4,319.3 350.3,319.3 349.3,319.4 348.1,319.5 346.7,319.5 345.3,319.6 344.0,319.7 342.8,319.8 342.0,319.8 341.5,319.9 341.5,320.0 341.9,320.1 342.7,320.1 343.8,320.2 345.0,320.3 346.2,320.3 347.4,320.4 348.3,320.5 349.0,320.6 349.3,320.6 349.2,320.7 348.6,320.8 347.4,320.9 345.6,320.9 343.1,321.0 339.8,321.1 335.8,321.1 331.2,321.2 326.1,321.3 320.9,321.4 315.8,321.4 311.2,321.5 307.4,321.6 304.9,321.7 303.7,321.7 303.9,321.8 305.5,321.9 308.4,322.0 312.3,322.0 316.9,322.1 321.8,322.2 326.7,322.2 331.5,322.3 335.8,322.4 339.5,322.5 342.7,322.5 345.2,322.6 347.2,322.7 348.7,322.8 349.7,322.8 350.3,322.9 350.6,323.0 350.6,323.1 350.3,323.1 349.8,323.2 348.9,323.3 347.9,323.3 346.7,323.4 345.4,323.5 344.1,323.6 342.9,323.6 342.1,323.7 341.6,323.8 341.5,323.9 341.9,323.9 342.7,324.0 343.8,324.1 345.1,324.2 346.5,324.2 347.9,324.3 349.1,324.4 350.2,324.4 351.0,324.5" fill="#d33" opacity="0.5" stroke="#d33" stroke-width="1"/>
<line x1="303.6" y1="321.77007127276596" x2="402.1" y2="321.77007127276596" stroke="#114" stroke-width="2"/>
<circle cx="352.85714285714283" cy="323.8564212678091" r="2.4" fill="#114"/>
<text x="352.85714285714283" y="313.88155681891556" text-anchor="middle" font-size="11">0.99</text>
<text x="352.85714285714283" y="376" text-anchor="middle" font-size="12">zscal</text>
<polygon points="471.4,193.8 471.8,191.8 472.4,189.9 473.1,187.9 474.0,185.9 475.0,183.9 476.2,182.0 477.6,180.0 479.1,178.0 480.8,176.1 482.6,174.1 484.5,172.1 486.4,170.1 488.3,168.2 490.1,166.2 491.9,164.2 493.5,162.3 494.9,160.3 496.2,158.3 497.3,156.3 498.3,154.4 499.1,152.4 499.7,150.4 500.2,148.5 500.6,146.5 500.7,144.5 500.6,142.5 500.2,140.6 499.6,138.6 498.6,136.6 497.4,134.7 495.9,132.7 494.2,130.7 492.4,128.7 490.6,126.8 488.9,124.8 487.3,122.8 486.0,120.9 484.9,118.9 484.2,116.9 483.8,114.9 483.7,113.0 483.9,111.0 484.2,109.0 484.8,107.1 485.4,105.1 486.1,103.1 486.8,101.1 487.6,99.2 488.5,97.2 489.7,95.2 491.1,93.3 492.8,91.3 495.0,89.3 497.6,87.3 500.6,85.4 503.9,83.4 507.3,81.4 510.7,79.5 513.8,77.5 516.4,75.5 518.3,73.5 519.2,71.6 519.1,69.6 517.8,67.6 515.6,65.7 512.4,63.7 508.6,61.7 504.2,59.7 499.6,57.8 495.1,55.8 490.7,53.8 449.3,53.8 444.9,55.8 440.4,57.8 435.8,59.7 431.4,61.7 427.6,63.7 424.4,65.7 422.2,67.6 420.9,69.6 420.8,71.6 421.7,73.5 423.6,75.5 426.2,77.5 429.3,79.5 432.7,81.4 436.1,83.4 439.4,85.4 442.4,87.3 445.0,89.3 447.2,91.3 448.9,93.3 450.3,95.2 451.5,97.2 452.4,99.2 453.2,101.1 453.9,103.1 454.6,105.1 455.2,107.1 455.8,109.0 456.1,111.0 456.3,113.0 456.2,114.9 455.8,116.9 455.1,118.9 454.0,120.9 452.7,122.8 451.1,124.8 449.4,126.8 447.6,128.7 445.8,130.7 444.1,132.7 442.6,134.7 441.4,136.6 440.4,138.6 439.8,140.6 439.4,142.5 439.3,144.5 439.4,146.5 439.8,148.5 440.3,150.4 440.9,152.4 441.7,154.4 442.7,156.3 443.8,158.3 445.1,160.3 446.5,162.3 448.1,164.2 449.9,166.2 451.7,168.2 453.6,170.1 455.5,172.1 457.4,174.1 459.2,176.1 460.9,178.0 462.4,180.0 463.8,182.0 465.0,183.9 466.0,185.9 466.9,187.9 467.6,189.9 468.2,191.8 468.6,193.8" fill="#2a8" opacity="0.5" stroke="#2a8" stroke-width="1"/>
<line x1="452.8" y1="100.05236109480023" x2="487.2" y2="100.05236109480023" stroke="#114" stroke-width="2"/>
<circle cx="470.0" cy="158.62955092129505" r="2.4" fill="#114"/>
<text x="470.0" y="61.43396226415098" text-anchor="middle" font-size="11">7.05</text>
<text x="470.0" y="376" text-anchor="middle" font-size="12">dznrm2</text>
<polygon points="588.7,320.3 589.4,319.7 590.4,319.2 591.7,318.6 593.3,318.0 595.3,317.5 597.8,316.9 600.9,316.3 604.4,315.7 608.4,315.2 612.7,314.6 617.3,314.0 621.8,313.5 626.1,312.9 629.9,312.3 633.0,311.7 635.1,311.2 636.2,310.6 636.3,310.0 635.6,309.5 634.1,308.9 632.2,308.3 630.2,307.7 628.5,307.2 627.1,306.6 626.4,306.0 626.4,305.5 626.9,304.9 628.0,304.3 629.3,303.7 630.6,303.2 631.6,302.6 632.0,302.0 631.6,301.5 630.2,300.9 627.9,300.3 624.7,299.8 620.8,299.2 616.4,298.6 611.9,298.0 607.6,297.5 603.5,296.9 600.0,296.3 597.0,295.8 594.6,295.2 592.7,294.6 591.4,294.0 590.4,293.5 589.8,292.9 589.5,292.3 589.5,291.8 589.8,291.2 590.4,290.6 591.3,290.0 592.6,289.5 594.2,288.9 596.1,288.3 598.2,287.8 600.2,287.2 602.1,286.6 603.7,286.0 604.7,285.5 605.1,284.9 604.9,284.3 604.0,283.8 602.6,283.2 600.7,282.6 598.7,282.0 596.6,281.5 594.6,280.9 592.8,280.3 591.3,279.8 583.0,279.8 581.5,280.3 579.7,280.9 577.7,281.5 575.6,282.0 573.5,282.6 571.7,283.2 570.3,283.8 569.4,284.3 569.2,284.9 569.6,285.5 570.6,286.0 572.2,286.6 574.1,287.2 576.1,287.8 578.2,288.3 580.0,288.9 581.7,289.5 583.0,290.0 583.9,290.6 584.5,291.2 584.8,291.8 584.8,292.3 584.5,292.9 583.9,293.5 582.9,294.0 581.5,294.6 579.7,295.2 577.3,295.8 574.3,296.3 570.8,296.9 566.7,297.5 562.4,298.0 557.9,298.6 553.5,299.2 549.6,299.8 546.4,300.3 544.1,300.9 542.7,301.5 542.3,302.0 542.7,302.6 543.7,303.2 545.0,303.7 546.3,304.3 547.3,304.9 547.9,305.5 547.9,306.0 547.1,306.6 545.8,307.2 544.1,307.7 542.1,308.3 540.2,308.9 538.7,309.5 537.9,310.0 538.0,310.6 539.2,311.2 541.3,311.7 544.4,312.3 548.2,312.9 552.5,313.5 557.0,314.0 561.6,314.6 565.9,315.2 569.9,315.7 573.4,316.3 576.4,316.9 579.0,317.5 581.0,318.0 582.6,318.6 583.9,319.2 584.8,319.7 585.6,320.3" fill="#2a8" opacity="0.5" stroke="#2a8" stroke-width="1"/>
<line x1="547.4" y1="304.9211044647516" x2="626.9" y2="304.9211044647516" stroke="#114" stroke-width="2"/>
<circle cx="587.1428571428571" cy="312.1129486470325" r="2.4" fill="#114"/>
<text x="587.1428571428571" y="277.73868336258784" text-anchor="middle" font-size="11">1.45</text>
<text x="587.1428571428571" y="376" text-anchor="middle" font-size="12">dzasum</text>
<polygon points="706.6,331.0 707.3,330.8 708.2,330.6 709.1,330.4 710.1,330.3 711.1,330.1 712.0,329.9 712.8,329.7 713.4,329.5 713.7,329.4 713.8,329.2 713.5,329.0 713.0,328.8 712.3,328.6 711.4,328.5 710.4,328.3 709.4,328.1 708.4,327.9 707.5,327.8 706.7,327.6 706.1,327.4 705.6,327.2 705.2,327.0 704.9,326.9 704.7,326.7 704.5,326.5 704.4,326.3 704.4,326.1 704.3,326.0 704.3,325.8 704.3,325.6 704.3,325.4 704.3,325.3 704.3,325.1 704.4,324.9 704.4,324.7 704.5,324.5 704.6,324.4 704.8,324.2 705.1,324.0 705.6,323.8 706.2,323.6 707.1,323.5 708.3,323.3 709.9,323.1 712.0,322.9 714.5,322.7 717.6,322.6 721.1,322.4 725.1,322.2 729.4,322.0 733.9,321.9 738.4,321.7 742.7,321.5 746.5,321.3 749.7,321.1 752.0,321.0 753.3,320.8 753.5,320.6 752.6,320.4 750.7,320.2 747.8,320.1 744.3,319.9 740.1,319.7 735.7,319.5 731.1,319.4 726.7,319.2 722.5,319.0 718.8,318.8 715.5,318.6 712.7,318.5 710.5,318.3 698.1,318.3 695.8,318.5 693.1,318.6 689.8,318.8 686.1,319.0 681.9,319.2 677.5,319.4 672.9,319.5 668.5,319.7 664.3,319.9 660.7,320.1 657.9,320.2 656.0,320.4 655.1,320.6 655.3,320.8 656.6,321.0 658.9,321.1 662.1,321.3 665.9,321.5 670.1,321.7 674.6,321.9 679.1,322.0 683.5,322.2 687.4,322.4 691.0,322.6 694.1,322.7 696.6,322.9 698.6,323.1 700.2,323.3 701.5,323.5 702.4,323.6 703.0,323.8 703.5,324.0 703.8,324.2 704.0,324.4 704.1,324.5 704.2,324.7 704.2,324.9 704.2,325.1 704.3,325.3 704.3,325.4 704.3,325.6 704.3,325.8 704.2,326.0 704.2,326.1 704.1,326.3 704.0,326.5 703.9,326.7 703.7,326.9 703.4,327.0 703.0,327.2 702.5,327.4 701.8,327.6 701.1,327.8 700.2,327.9 699.2,328.1 698.2,328.3 697.2,328.5 696.3,328.6 695.6,328.8 695.1,329.0 694.8,329.2 694.8,329.4 695.2,329.5 695.7,329.7 696.5,329.9 697.5,330.1 698.5,330.3 699.5,330.4 700.4,330.6 701.3,330.8 702.0,331.0" fill="#d33" opacity="0.5" stroke="#d33" stroke-width="1"/>
<line x1="655.3" y1="320.78666312891283" x2="753.2" y2="320.78666312891283" stroke="#114" stroke-width="2"/>
<circle cx="704.2857142857142" cy="329.28052220538564" r="2.4" fill="#114"/>
<text x="704.2857142857142" y="313.56615883555224" text-anchor="middle" font-size="11">1.02</text>
<text x="704.2857142857142" y="376" text-anchor="middle" font-size="12">zdotu</text>
<polygon points="825.5,334.5 827.0,333.9 829.0,333.4 831.2,332.8 833.9,332.3 836.8,331.8 840.0,331.2 843.3,330.7 846.6,330.1 849.7,329.6 852.7,329.0 855.3,328.5 857.4,328.0 859.2,327.4 860.5,326.9 861.3,326.3 861.8,325.8 861.9,325.2 861.8,324.7 861.5,324.2 861.1,323.6 860.7,323.1 860.2,322.5 859.9,322.0 859.6,321.4 859.4,320.9 859.3,320.4 859.3,319.8 859.5,319.3 859.7,318.7 860.0,318.2 860.4,317.6 860.9,317.1 861.4,316.6 861.9,316.0 862.4,315.5 863.0,314.9 863.5,314.4 864.1,313.8 864.6,313.3 865.1,312.8 865.6,312.2 866.2,311.7 866.8,311.1 867.4,310.6 868.1,310.0 868.7,309.5 869.4,308.9 869.9,308.4 870.4,307.9 870.6,307.3 870.6,306.8 870.2,306.2 869.5,305.7 868.2,305.1 866.5,304.6 864.3,304.1 861.6,303.5 858.5,303.0 855.1,302.4 851.5,301.9 847.7,301.3 844.0,300.8 840.4,300.3 837.0,299.7 833.9,299.2 831.2,298.6 828.9,298.1 827.1,297.5 825.5,297.0 824.3,296.5 823.4,295.9 819.4,295.9 818.5,296.5 817.3,297.0 815.8,297.5 813.9,298.1 811.6,298.6 808.9,299.2 805.9,299.7 802.5,300.3 798.9,300.8 795.1,301.3 791.4,301.9 787.7,302.4 784.3,303.0 781.2,303.5 778.6,304.1 776.3,304.6 774.6,305.1 773.4,305.7 772.6,306.2 772.3,306.8 772.2,307.3 772.5,307.9 772.9,308.4 773.5,308.9 774.1,309.5 774.8,310.0 775.5,310.6 776.1,311.1 776.7,311.7 777.2,312.2 777.8,312.8 778.3,313.3 778.8,313.8 779.3,314.4 779.9,314.9 780.4,315.5 781.0,316.0 781.5,316.6 782.0,317.1 782.5,317.6 782.8,318.2 783.2,318.7 783.4,319.3 783.5,319.8 783.6,320.4 783.5,320.9 783.3,321.4 783.0,322.0 782.6,322.5 782.2,323.1 781.8,323.6 781.4,324.2 781.1,324.7 780.9,325.2 781.1,325.8 781.5,326.3 782.4,326.9 783.7,327.4 785.4,328.0 787.6,328.5 790.2,329.0 793.1,329.6 796.3,330.1 799.6,330.7 802.9,331.2 806.0,331.8 809.0,332.3 811.6,332.8 813.9,333.4 815.8,333.9 817.4,334.5" fill="#2a8" opacity="0.5" stroke="#2a8" stroke-width="1"/>
<line x1="779.6" y1="314.59638676789945" x2="863.3" y2="314.59638676789945" stroke="#114" stroke-width="2"/>
<circle cx="821.4285714285714" cy="316.95188487829915" r="2.4" fill="#114"/>
<text x="821.4285714285714" y="293.7061856828636" text-anchor="middle" font-size="11">1.19</text>
<text x="821.4285714285714" y="376" text-anchor="middle" font-size="12">izamax</text>
<text x="450.0" y="428" text-anchor="middle" font-size="11" fill="#666">violin = ratio distribution over sizes · line = median · dark dot = worst size · green = every size ≥ gate</text>
</svg>
