<svg xmlns="http://www.w3.org/2000/svg" width="900" height="440" font-family="sans-serif">
<rect width="900" height="440" fill="white"/>
<text x="450.0" y="28" text-anchor="middle" font-size="18" font-weight="bold">BLAS-1: PureBLAS / OpenBLAS (AVX-512, 1 thread, Float64)</text>
<line x1="60" y1="358.0" x2="880" y2="358.0" stroke="#eee"/>
<text x="52" y="362.0" text-anchor="end" font-size="11" fill="#666">0×</text>
<line x1="60" y1="348.3211946978087" x2="880" y2="348.3211946978087" stroke="#eee"/>
<text x="52" y="352.3211946978087" text-anchor="end" font-size="11" fill="#666">0.5×</text>
<line x1="60" y1="338.6423893956174" x2="880" y2="338.6423893956174" stroke="#eee"/>
<text x="52" y="342.6423893956174" text-anchor="end" font-size="11" fill="#666">1×</text>
<line x1="60" y1="328.9635840934261" x2="880" y2="328.9635840934261" stroke="#eee"/>
<text x="52" y="332.9635840934261" text-anchor="end" font-size="11" fill="#666">1.5×</text>
<line x1="60" y1="338.6423893956174" x2="880" y2="338.6423893956174" stroke="#888" stroke-width="1"/>
<line x1="60" y1="339.4166938197927" x2="880" y2="339.4166938197927" stroke="#d33" stroke-width="1.5" stroke-dasharray="6 4"/>
<text x="880" y="334.4166938197927" text-anchor="end" font-size="11" fill="#d33">0.96× gate</text>
<polygon points="128.4,346.2 128.4,345.9 128.5,345.5 128.6,345.2 128.8,344.9 129.0,344.6 129.2,344.2 129.3,343.9 129.3,343.6 129.3,343.3 129.4,343.0 129.7,342.6 130.4,342.3 131.4,342.0 133.1,341.7 135.6,341.3 139.1,341.0 143.6,340.7 149.2,340.4 155.5,340.1 162.5,339.7 169.8,339.4 176.6,339.1 182.1,338.8 185.3,338.4 185.7,338.1 183.7,337.8 180.1,337.5 175.7,337.1 171.1,336.8 166.7,336.5 162.4,336.2 158.1,335.9 154.0,335.5 150.0,335.2 146.4,334.9 143.2,334.6 140.4,334.2 138.2,333.9 136.4,333.6 135.0,333.3 133.8,332.9 132.7,332.6 131.5,332.3 130.5,332.0 129.7,331.7 129.2,331.3 129.0,331.0 128.9,330.7 129.0,330.4 129.2,330.0 129.2,329.7 129.2,329.4 129.0,329.1 128.8,328.7 128.7,328.4 128.5,328.1 128.5,327.8 128.4,327.5 128.5,327.1 128.6,326.8 128.8,326.5 129.0,326.2 129.2,325.8 129.2,325.5 129.2,325.2 129.0,324.9 128.8,324.5 128.6,324.2 128.5,323.9 128.4,323.6 128.4,323.3 128.3,323.3 128.3,323.6 128.2,323.9 128.0,324.2 127.8,324.5 127.7,324.9 127.5,325.2 127.5,325.5 127.5,325.8 127.7,326.2 127.9,326.5 128.0,326.8 128.2,327.1 128.2,327.5 128.2,327.8 128.1,328.1 128.0,328.4 127.8,328.7 127.6,329.1 127.5,329.4 127.4,329.7 127.5,330.0 127.6,330.4 127.7,330.7 127.7,331.0 127.5,331.3 126.9,331.7 126.1,332.0 125.1,332.3 124.0,332.6 122.8,332.9 121.6,333.3 120.2,333.6 118.5,333.9 116.3,334.2 113.5,334.6 110.3,334.9 106.6,335.2 102.7,335.5 98.5,335.9 94.3,336.2 90.0,336.5 85.5,336.8 81.0,337.1 76.6,337.5 72.9,337.8 70.9,338.1 71.4,338.4 74.6,338.8 80.1,339.1 86.9,339.4 94.1,339.7 101.1,340.1 107.5,340.4 113.0,340.7 117.6,341.0 121.1,341.3 123.6,341.7 125.2,342.0 126.3,342.3 126.9,342.6 127.2,343.0 127.3,343.3 127.4,343.6 127.4,343.9 127.5,344.2 127.6,344.6 127.8,344.9 128.0,345.2 128.2,345.5 128.3,345.9 128.3,346.2" fill="#2a8" opacity="0.5" stroke="#2a8" stroke-width="1"/>
<line x1="71.4" y1="337.99915189718996" x2="185.3" y2="337.99915189718996" stroke="#114" stroke-width="2"/>
<circle cx="128.33333333333331" cy="338.55489943448475" r="2.4" fill="#114"/>
<text x="128.33333333333331" y="319.5043547729521" text-anchor="middle" font-size="11">1.03</text>
<text x="128.33333333333331" y="376" text-anchor="middle" font-size="12">axpy</text>
<polygon points="265.1,347.2 265.1,346.9 265.2,346.7 265.3,346.4 265.5,346.2 265.6,345.9 265.7,345.7 265.7,345.4 265.7,345.2 265.6,344.9 265.5,344.7 265.4,344.4 265.4,344.2 265.5,343.9 265.8,343.7 266.2,343.4 266.8,343.2 267.5,342.9 268.3,342.7 269.0,342.4 269.7,342.2 270.3,341.9 271.0,341.7 271.9,341.4 273.1,341.2 274.7,340.9 276.9,340.7 279.8,340.4 283.7,340.2 288.8,339.9 295.1,339.7 302.5,339.4 310.1,339.2 316.8,339.0 321.2,338.7 322.4,338.5 320.2,338.2 315.3,338.0 308.5,337.7 301.2,337.5 294.2,337.2 288.0,337.0 283.0,336.7 279.2,336.5 276.5,336.2 274.8,336.0 273.9,335.7 273.3,335.5 273.0,335.2 272.7,335.0 272.3,334.7 271.7,334.5 271.1,334.2 270.3,334.0 269.4,333.7 268.6,333.5 267.8,333.2 267.2,333.0 266.7,332.7 266.5,332.5 266.4,332.2 266.4,332.0 266.4,331.7 266.4,331.5 266.3,331.2 266.1,331.0 265.9,330.7 265.6,330.5 265.4,330.2 265.2,330.0 265.1,329.7 265.1,329.5 264.9,329.5 264.9,329.7 264.8,330.0 264.6,330.2 264.4,330.5 264.1,330.7 263.9,331.0 263.7,331.2 263.6,331.5 263.6,331.7 263.6,332.0 263.6,332.2 263.5,332.5 263.3,332.7 262.8,333.0 262.2,333.2 261.4,333.5 260.6,333.7 259.7,334.0 258.9,334.2 258.3,334.5 257.7,334.7 257.3,335.0 257.0,335.2 256.7,335.5 256.1,335.7 255.2,336.0 253.5,336.2 250.8,336.5 247.0,336.7 242.0,337.0 235.8,337.2 228.8,337.5 221.5,337.7 214.7,338.0 209.8,338.2 207.6,338.5 208.8,338.7 213.2,339.0 219.9,339.2 227.5,339.4 234.9,339.7 241.2,339.9 246.3,340.2 250.2,340.4 253.1,340.7 255.3,340.9 256.9,341.2 258.1,341.4 259.0,341.7 259.7,341.9 260.3,342.2 261.0,342.4 261.7,342.7 262.5,342.9 263.2,343.2 263.8,343.4 264.2,343.7 264.5,343.9 264.6,344.2 264.6,344.4 264.5,344.7 264.4,344.9 264.3,345.2 264.3,345.4 264.3,345.7 264.4,345.9 264.5,346.2 264.7,346.4 264.8,346.7 264.9,346.9 264.9,347.2" fill="#2a8" opacity="0.5" stroke="#2a8" stroke-width="1"/>
<line x1="207.6" y1="338.52325615789096" x2="322.4" y2="338.52325615789096" stroke="#114" stroke-width="2"/>
<circle cx="265.0" cy="338.72627765701384" r="2.4" fill="#114"/>
<text x="265.0" y="325.23373513463997" text-anchor="middle" font-size="11">1.01</text>
<text x="265.0" y="376" text-anchor="middle" font-size="12">dot</text>
<polygon points="402.9,347.3 403.6,343.1 404.5,339.0 405.9,334.8 407.7,330.6 410.0,326.4 413.0,322.2 416.6,318.0 420.8,313.8 425.5,309.6 430.5,305.5 435.7,301.3 440.8,297.1 445.6,292.9 449.9,288.7 453.4,284.5 456.1,280.3 458.0,276.1 458.9,272.0 459.1,267.8 458.4,263.6 457.1,259.4 455.3,255.2 453.0,251.0 450.5,246.8 447.9,242.6 445.3,238.5 442.9,234.3 440.7,230.1 438.8,225.9 437.2,221.7 435.8,217.5 434.6,213.3 433.3,209.1 431.8,204.9 430.1,200.8 428.2,196.6 426.1,192.4 423.8,188.2 421.4,184.0 419.1,179.8 417.0,175.6 415.1,171.4 413.4,167.3 412.0,163.1 410.9,158.9 410.1,154.7 409.5,150.5 409.1,146.3 408.9,142.1 408.8,137.9 409.0,133.8 409.2,129.6 409.5,125.4 409.8,121.2 410.1,117.0 410.2,112.8 410.2,108.6 410.0,104.4 409.6,100.3 409.1,96.1 408.4,91.9 407.7,87.7 406.9,83.5 406.2,79.3 405.5,75.1 404.8,70.9 404.3,66.8 403.8,62.6 403.3,58.4 403.0,54.2 402.7,50.0 400.6,50.0 400.3,54.2 400.0,58.4 399.6,62.6 399.1,66.8 398.5,70.9 397.9,75.1 397.2,79.3 396.4,83.5 395.6,87.7 394.9,91.9 394.3,96.1 393.7,100.3 393.3,104.4 393.1,108.6 393.1,112.8 393.2,117.0 393.5,121.2 393.8,125.4 394.1,129.6 394.4,133.8 394.5,137.9 394.5,142.1 394.3,146.3 393.9,150.5 393.3,154.7 392.4,158.9 391.3,163.1 389.9,167.3 388.3,171.4 386.3,175.6 384.2,179.8 381.9,184.0 379.6,188.2 377.3,192.4 375.1,196.6 373.2,200.8 371.5,204.9 370.1,209.1 368.8,213.3 367.5,217.5 366.1,221.7 364.5,225.9 362.6,230.1 360.5,234.3 358.1,238.5 355.5,242.6 352.8,246.8 350.3,251.0 348.1,255.2 346.2,259.4 344.9,263.6 344.3,267.8 344.4,272.0 345.4,276.1 347.2,280.3 349.9,284.5 353.5,288.7 357.7,292.9 362.5,297.1 367.6,301.3 372.8,305.5 377.9,309.6 382.6,313.8 386.7,318.0 390.3,322.2 393.3,326.4 395.7,330.6 397.5,334.8 398.8,339.0 399.8,343.1 400.5,347.3" fill="#2a8" opacity="0.5" stroke="#2a8" stroke-width="1"/>
<line x1="348.5" y1="254.39782688903637" x2="454.9" y2="254.39782688903637" stroke="#114" stroke-width="2"/>
<circle cx="401.66666666666663" cy="290.2632442653175" r="2.4" fill="#114"/>
<text x="401.66666666666663" y="61.43396226415098" text-anchor="middle" font-size="11">5.35</text>
<text x="401.66666666666663" y="376" text-anchor="middle" font-size="12">nrm2</text>
<polygon points="538.4,349.0 538.5,348.7 538.6,348.4 538.7,348.1 538.9,347.9 539.0,347.6 539.1,347.3 539.2,347.0 539.2,346.8 539.1,346.5 539.0,346.2 539.0,345.9 539.0,345.7 539.1,345.4 539.2,345.1 539.4,344.9 539.6,344.6 539.8,344.3 539.9,344.0 539.9,343.8 539.9,343.5 539.9,343.2 540.0,342.9 540.3,342.7 540.9,342.4 541.9,342.1 543.1,341.8 544.7,341.6 546.5,341.3 548.7,341.0 551.5,340.7 555.2,340.5 560.1,340.2 566.2,339.9 573.5,339.7 581.1,339.4 588.0,339.1 593.2,338.8 595.7,338.6 595.5,338.3 592.8,338.0 588.5,337.7 583.7,337.5 579.1,337.2 575.2,336.9 572.0,336.6 569.4,336.4 567.1,336.1 564.8,335.8 562.5,335.5 560.2,335.3 558.1,335.0 556.1,334.7 554.3,334.5 552.7,334.2 551.2,333.9 549.7,333.6 548.1,333.4 546.5,333.1 544.9,332.8 543.5,332.5 542.4,332.3 541.5,332.0 540.9,331.7 540.4,331.4 540.0,331.2 539.6,330.9 539.3,330.6 539.0,330.3 538.7,330.1 538.6,329.8 538.4,329.5 538.2,329.5 538.1,329.8 537.9,330.1 537.7,330.3 537.4,330.6 537.0,330.9 536.6,331.2 536.2,331.4 535.7,331.7 535.1,332.0 534.3,332.3 533.2,332.5 531.8,332.8 530.2,333.1 528.5,333.4 526.9,333.6 525.4,333.9 523.9,334.2 522.4,334.5 520.6,334.7 518.6,335.0 516.4,335.3 514.2,335.5 511.9,335.8 509.6,336.1 507.3,336.4 504.6,336.6 501.5,336.9 497.6,337.2 493.0,337.5 488.2,337.7 483.9,338.0 481.2,338.3 480.9,338.6 483.5,338.8 488.7,339.1 495.6,339.4 503.2,339.7 510.4,339.9 516.6,340.2 521.5,340.5 525.2,340.7 528.0,341.0 530.2,341.3 532.0,341.6 533.5,341.8 534.8,342.1 535.7,342.4 536.3,342.7 536.7,342.9 536.8,343.2 536.8,343.5 536.8,343.8 536.8,344.0 536.9,344.3 537.0,344.6 537.2,344.9 537.4,345.1 537.6,345.4 537.7,345.7 537.7,345.9 537.6,346.2 537.6,346.5 537.5,346.8 537.5,347.0 537.5,347.3 537.6,347.6 537.8,347.9 537.9,348.1 538.1,348.4 538.2,348.7 538.2,349.0" fill="#2a8" opacity="0.5" stroke="#2a8" stroke-width="1"/>
<line x1="482.0" y1="338.1788606441133" x2="594.7" y2="338.1788606441133" stroke="#114" stroke-width="2"/>
<circle cx="538.3333333333333" cy="338.9227591515771" r="2.4" fill="#114"/>
<text x="538.3333333333333" y="325.4401990847462" text-anchor="middle" font-size="11">1.02</text>
<text x="538.3333333333333" y="376" text-anchor="middle" font-size="12">asum</text>
<polygon points="675.3,342.1 675.4,341.9 675.7,341.7 676.0,341.5 676.3,341.3 676.7,341.1 677.2,340.9 677.6,340.6 678.1,340.4 678.6,340.2 679.2,340.0 680.1,339.8 681.3,339.6 683.0,339.4 685.3,339.2 688.3,339.0 692.1,338.8 696.5,338.6 701.6,338.4 707.2,338.2 712.9,338.0 718.6,337.8 723.8,337.6 728.0,337.4 731.0,337.2 732.4,337.0 732.2,336.8 730.4,336.6 727.4,336.4 723.4,336.2 719.1,336.0 714.7,335.8 710.7,335.6 707.2,335.4 704.3,335.2 702.0,335.0 700.2,334.8 698.6,334.6 697.2,334.4 695.8,334.2 694.2,334.0 692.4,333.8 690.5,333.6 688.6,333.4 686.7,333.2 685.0,333.0 683.4,332.8 682.2,332.6 681.1,332.4 680.3,332.2 679.6,332.0 679.2,331.8 678.8,331.6 678.6,331.4 678.5,331.2 678.5,331.0 678.6,330.8 678.6,330.6 678.7,330.4 678.7,330.2 678.6,330.0 678.4,329.8 678.2,329.6 677.9,329.3 677.6,329.1 677.2,328.9 676.7,328.7 676.3,328.5 676.0,328.3 675.7,328.1 675.5,327.9 675.3,327.7 674.7,327.7 674.5,327.9 674.3,328.1 674.0,328.3 673.7,328.5 673.3,328.7 672.8,328.9 672.4,329.1 672.1,329.3 671.8,329.6 671.6,329.8 671.4,330.0 671.3,330.2 671.3,330.4 671.4,330.6 671.4,330.8 671.5,331.0 671.5,331.2 671.4,331.4 671.2,331.6 670.8,331.8 670.4,332.0 669.7,332.2 668.9,332.4 667.8,332.6 666.6,332.8 665.0,333.0 663.3,333.2 661.4,333.4 659.5,333.6 657.6,333.8 655.8,334.0 654.2,334.2 652.8,334.4 651.4,334.6 649.8,334.8 648.0,335.0 645.7,335.2 642.8,335.4 639.3,335.6 635.3,335.8 630.9,336.0 626.6,336.2 622.6,336.4 619.6,336.6 617.8,336.8 617.6,337.0 619.0,337.2 622.0,337.4 626.2,337.6 631.4,337.8 637.1,338.0 642.8,338.2 648.4,338.4 653.5,338.6 657.9,338.8 661.7,339.0 664.7,339.2 667.0,339.4 668.7,339.6 669.9,339.8 670.8,340.0 671.4,340.2 671.9,340.4 672.4,340.6 672.8,340.9 673.3,341.1 673.7,341.3 674.0,341.5 674.3,341.7 674.6,341.9 674.7,342.1" fill="#2a8" opacity="0.5" stroke="#2a8" stroke-width="1"/>
<line x1="619.0" y1="336.66395311891995" x2="731.0" y2="336.66395311891995" stroke="#114" stroke-width="2"/>
<circle cx="675.0" cy="337.0570402860147" r="2.4" fill="#114"/>
<text x="675.0" y="323.15162046345193" text-anchor="middle" font-size="11">1.10</text>
<text x="675.0" y="376" text-anchor="middle" font-size="12">scal</text>
<polygon points="814.3,348.5 815.5,347.9 817.1,347.4 819.1,346.9 821.5,346.4 824.2,345.8 827.1,345.3 830.2,344.8 833.2,344.3 836.2,343.7 838.9,343.2 841.3,342.7 843.5,342.2 845.4,341.6 847.0,341.1 848.3,340.6 849.3,340.1 850.1,339.5 850.6,339.0 850.9,338.5 851.1,338.0 851.3,337.4 851.7,336.9 852.2,336.4 853.1,335.9 854.4,335.3 856.0,334.8 857.9,334.3 860.0,333.8 862.1,333.3 864.1,332.7 865.9,332.2 867.3,331.7 868.3,331.2 868.9,330.6 869.1,330.1 868.7,329.6 867.9,329.1 866.6,328.5 864.8,328.0 862.5,327.5 859.7,327.0 856.5,326.4 853.1,325.9 849.5,325.4 845.8,324.9 842.2,324.3 838.6,323.8 835.2,323.3 831.9,322.8 828.9,322.2 826.1,321.7 823.6,321.2 821.4,320.7 819.5,320.2 817.9,319.6 816.6,319.1 815.5,318.6 814.7,318.1 814.1,317.5 813.7,317.0 813.5,316.5 813.3,316.0 813.2,315.4 813.0,314.9 812.9,314.4 812.8,313.9 812.7,313.3 812.5,312.8 812.4,312.3 812.2,311.8 812.1,311.2 811.3,311.2 811.1,311.8 811.0,312.3 810.8,312.8 810.7,313.3 810.5,313.9 810.4,314.4 810.3,314.9 810.2,315.4 810.1,316.0 809.9,316.5 809.6,317.0 809.2,317.5 808.6,318.1 807.8,318.6 806.8,319.1 805.5,319.6 803.8,320.2 801.9,320.7 799.7,321.2 797.2,321.7 794.4,322.2 791.4,322.8 788.2,323.3 784.7,323.8 781.2,324.3 777.5,324.9 773.8,325.4 770.2,325.9 766.8,326.4 763.6,327.0 760.9,327.5 758.6,328.0 756.7,328.5 755.4,329.1 754.6,329.6 754.3,330.1 754.4,330.6 755.0,331.2 756.1,331.7 757.5,332.2 759.2,332.7 761.2,333.3 763.3,333.8 765.4,334.3 767.3,334.8 769.0,335.3 770.2,335.9 771.1,336.4 771.7,336.9 772.0,337.4 772.2,338.0 772.4,338.5 772.7,339.0 773.3,339.5 774.0,340.1 775.1,340.6 776.4,341.1 778.0,341.6 779.8,342.2 782.0,342.7 784.5,343.2 787.2,343.7 790.1,344.3 793.2,344.8 796.2,345.3 799.2,345.8 801.9,346.4 804.2,346.9 806.2,347.4 807.8,347.9 809.1,348.5" fill="#2a8" opacity="0.5" stroke="#2a8" stroke-width="1"/>
<line x1="757.2" y1="332.1258384637408" x2="866.1" y2="332.1258384637408" stroke="#114" stroke-width="2"/>
<circle cx="811.6666666666666" cy="336.7178251870301" r="2.4" fill="#114"/>
<text x="811.6666666666666" y="308.87561997784417" text-anchor="middle" font-size="11">1.34</text>
<text x="811.6666666666666" y="376" text-anchor="middle" font-size="12">iamax</text>
<text x="450.0" y="428" text-anchor="middle" font-size="11" fill="#666">violin = ratio distribution over sizes · line = median · dark dot = worst size · green = every size ≥ gate</text>
</svg>
